<svg xmlns="http://www.w3.org/2000/svg" xml:space="preserve" viewBox="0 0 800 800"><path fill="none" d="M0 0h800v800H0z"/><path d="M220.6 176.5c2.5 2.1 4.5 4.1 6.9 5.6 5.3 3.3 8.1 2.3 9.2-3.9.8-4.3 3.6-2.2 5.6-2.8 1.8-.5 4.5 0 5-2.4.5-2.5-1.6-3.7-3.6-5-4.3-2.8-8.9-2.1-13.5-1.7-1 .1-2.3.7-2.9-.7-.5-1.3.5-2 1.3-2.8 2.9-2.9 6.3-3.8 10.4-3.1 2.3.4 4.7.6 6.2-2.4 1.7-3.6-1.8-3.5-3.1-4.7-3.4-3.4-7.5-6.1-10.8-9.6-6.6-7-4.3-14.9 5.1-18.6-.9-1.3-2.8.5-3.1-.3-1-1.5-.4-1.8.1-2.3 8.1-7.3 18-3.6 23.8 4.3.8 1.1 1.2 2.5 2.6 2.5 6.6.1 10.6 6.2 16.8 7.4 2 .4 3.7 2.4 4.5 5.2 1.1 3.4 2.8 7 6.5 8.8 1.5.7 2.5 1.8 2.7 3.5.6 6 3.8 10.2 9 13.1 1.2.7 1.8 2.1 1.7 4-.3 9.2-6.9 13.7-13.4 18-2.1 1.4-5.2 1-7.6-1.8-3.8-4.3-5-2.5-8.5 1.8-3.7 4.6-4 9.5-2.3 13.2 5.4 11.7 12.5 22.3 27.4 23.2 4.4.3 8.1.5 8.8 6.2.4 3.4 4.2 2.6 6.5 3.7 7.9 4 16.6 6.8 23.3 13 1.1 1 2.7 2 4.1 2.1 10.7 1 17.3 9.9 26.6 13.7 6.7 2.7 12.9 6.9 19.8 8.9 5.5 1.6 6.7 7.6 12.6 8.7 10.3 1.9 19 8.7 30.3 8.6 4.6 0 9.9 3.7 15.1 5.3 3.4 1.1 5.5.6 7.4-2.1.1-.2.4-.3.4-.5 1.6-3.3 5.3-2.4 5.6-.7.8 4.5 15.1.9 6.3 10.5-2.5 2.7-4.9 17.2-2.7 19.2 5.2 4.5 11.3 7.9 18.6 7 2.9-.3 5.5.1 7.2 2.3 2.2 2.8-1.1 4.8-1.6 7.3-.4 2-2.6 2.4-4.3 2.4-2.1.1-3.5-1.2-3.3-3.3.3-2.6-1.6-2.9-3.2-3.5-7.8-2.8-15.1-7.3-24.2-2.9-2.5 1.2-7.6-1.7-10.8-3.7-.7-.4-.1-4.6-1.1-7.4-1.9-5.1-5.6-6.6-9.9-7.7-4.2-1-8.2-1.9-10-6.4-1.3-3-4.4-1.4-6.5-2.5-18-9-36.9-16.4-54.8-25.4-10.5-5.3-22.8-7.1-32-13.7-11.9-8.6-26.6-10.5-38.2-19.2-3.5-2.7-9.3-3.4-15.9-3.3 9.6 9.3 16.7 18.7 25.4 26.6 5.3 4.8.8 9.2-2.4 13.1-2.8 3.4-5.8 4.8-10.2 1.6-8-5.7-14-13.6-22.5-18.7-2.2-1.3-3.8-4.7-6.1-1.8-2.3 2.8-1.9 7.1.1 10.1 5.2 7.7 9.9 15.4 14.1 23.7 3 5.9 6.4 12.3 10.1 18.1 5.2 8.1 11.4 15.9 14.9 25.4 2.3 6.2 7.1 11.6 11.1 17.1 1.3 1.7 1.6 2.9.8 5.3-8.5-5.9-11.3-15.3-16.5-23-5.4-8.1-8.6-17.9-16.5-24.4-1.1-.9-1.4-1.6-1.2-3.2.3-3.4-1.5-5.8-4-8.4-3.9-4.1-4.2-10.4-7.6-15.1-3.4-4.7-6.4-9.9-9.6-14.6-3.8-5.4-11.1-8.9-18.9-8.1-.4 2.8 3.9 2.9 2.5 5.3-1.6 2.6-4.5 1-6 .1-4.4-2.7-9.6-2.6-14.2-4.7-4.5-2-9.5-2.2-15.1-.1 4.1 3.9 6.1 7.9 3.9 13.8-2.2 6-6.5 8.2-11.7 9.9-4.4 1.4-8.4.9-11.1-3.4-1.6-2.6-4.1-4.3-7-4.7-9.6-1.2-14.5-9.2-21.4-14.3-4.2-3.1-9-6.7-7.1-13.4-5.4-1.3-5.3-7.2-8.4-10.3-4.1-4-5.8-9.5-3.7-14.1 3.2-7.1 11.4-10.1 17.7-7.6 4.6 1.9 7.8 5.8 10.9 9.7 2.8 3.6 6.1 7 12.6 4.5-4.1-3.2-6.3-6.5-4.6-11.1.8-2-.8-2.7-2.2-3.5-4.5-2.8-2.9-8-.9-9.7 3.6-3.2 6-9.2 12.7-8.2 2 .3 4.2-.5 4.4-3.1.2-3.1-.2-5.9-2.9-8.3-16.7-14.9-33.9-29.4-50-45.1-1.3-1.3-1.1-1.7-.1-3.1 2.7-3.8.9-6.5-2.8-8.4-5.2-2.6-8.8-6.7-11.8-11.6-3-4.7-8.1-7.2-11.8-11.2-2.6-2.8-6-5.2-3.5-9.3 2.5-4 8.1-3.9 12.1-.6 5.4 4.4 10.8 9.1 16.6 12.9 2.7 1.7 3.7 4.6 4.9 6.6 4.4 7.1 12.6 3.9 18 8 2.9 2.2 5.4 5.9 10 5.6.6 0 2 1.2 1.9 1.5-2.5 6.7 4.2 5.7 6.8 8 2.7 2.4 5.7 3.9 7.3 8 1 2.4 5.2 5.1 8.2 7.3 4.2 3.1 8.7 5.9 12.1 10 2.4 2.9 16.5 3.5 21 1.6 2.1-.9 3.9-5.8 6.3-2.3 2.4 2.9-2.3 4-4.7 6.5zm162.7 106.6c-5.4-2.4-2.5-8-6.4-9.7-12.2-5.4-24.9-9.7-35.9-17.6-5.5-4-13.3-2.8-18.4-7.9-7.4-7.4-16.9-11-26.6-14.4-2.1-.7-4.1-2-6.1-3.6-5-4.1-10.8-7-18.7-6 2.1 2.5 4.5 3.9 4.7 5.7.6 4.9 3.6 6.5 7.7 7.9 4.9 1.7 9.5 4.6 13.6 7.4 7.9 5.5 15.9 9.5 25.7 9.5 1.1 0 2.2-1.1 3.1 1.1 2.3 5.6 7.4 8.1 12.6 10.1 10.1 3.7 20.4 6.7 29.1 13.6 3.7 2.7 8.4 4.6 15.6 3.9zM199.7 180.5c-11.6-1.9-16.4-12.1-24.6-18.1-5.5-4-9.5-9.8-15.3-13.7-2.8-1.9-5.4-2.2-7.9 0-2.3 2.1-1.3 3.6.5 6.1 2.3 3.3 4.6 5.8 8.4 7.7 4.8 2.4 7.3 7.8 11.1 11.4 5.2 4.8 11.6 8.3 16.4 13.9 2.4 2.9 5.7 1.9 8-1 1.2-1.7 2-3.8 3.4-6.3zm88 85.1c-5.4-1.6-7.2-6.8-10.9-10.1-3.3-2.9-8.9-4.3-10-8.9-.9-4-4-3.6-6.2-4.7-3.6-1.8-4.8 2.1-6.6 3.9-2.6 2.6.8 2.9 2 4.1 5.8 5.7 11 11.9 17.6 16.8 1 .7 1.9 1.5 2.6 2.8 1.8 3.5 4.6 2.8 7.1.8 1.6-1.3 2.7-2.9 4.4-4.7zm-67.2-51.3c3.6.3 6.4-1.7 7.8-4.3 1.4-2.7-2.6-2.8-3.9-4.4-2.5-3.3-6.2-5.4-8.9-8.7-2.8-3.3-7.6-5.1-11.8-7.2-2.8-1.4-5.2.7-7.2 2.4-1.4 1.2-.8 2.9.7 4 5.4 3.9 9.1 9.5 14.3 13.5 2.6 2 4.9 5.4 9 4.7zm39.5-32.1c-7.7-.1-9.1 1.2-8.5 7.9.2 1.9-.9 2.5-2.2 3.5-2.8 2-1.6 4.4 0 6.6 1.7 2.3 4.6 3.2 6.1 1 2.5-3.5 6.4-5.2 8.9-8.4 1.7-2.2 4.7-5.2 3.8-6.9-1.3-2.7-4.8-4.4-8.1-3.7zm-72.1 54.4c-3.4-7.4-2.3-9.6 5.2-10.7 1.7-.3 3.8.1 4.1-2.4.3-2.5-2.3-2.1-3.5-3.2-5-4.6-7.9-3.4-12.9 1.3-4.1 3.8-5.9 7.8-4.2 11.5 1.5 3 6.1 5.7 11.3 3.5zm-41.6.8c6.3 3.2 6.7 10.8 12.2 15.1 2.9 2.2 8.6 3.5 8.8 7.1.4 7.6 6.7 6.7 10.7 9.1 1.9 1.1 3.9 2.4 5.9.1.5-.6 1.4-1.3.6-2.3-1.3-1.6-3-2.7-5.2-2.4-3.6.5-5.5-1.1-5.8-4.5-.2-2.1-1.6-3.8-3-4-6.8-1.3-8.7-7.7-13-11.6-3-2.9-5.3-8-11.2-6.6zm69.8 5.9c.4-2.3-1.2-4-3-5.3-2.4-1.8-3.3 1-4.9 1.8-4.5 2.1-6.1 6.8-9.2 10.1-1.2 1.3-3 2.2-1.4 4.3 1.2 1.7 2.5 2.9 4.9 2.9 4 0 13.7-9.4 13.6-13.8zM105.3 106.1c3.8 6.9 9.8 11.2 14.6 16.5 2.6 2.8 5.3 5.6 8.2 8 1.8 1.5 4.5 1.8 6.2.2 2.4-2.3-.9-3.5-2-4.5-6.8-6.7-13.8-13.1-20.8-19.5-1.4-1.4-3.5-1.7-6.2-.7zm351.9 196.1c.2-1.9-.1-3-1.2-3.6-1.5-.8-2.9.1-4.4.6-2.7.9-2.2 3.9-3.8 5.8-3.1 3.6-5.3 8-6.5 12.8-.5 2.3.2 4 2.5 4.6 2.3.7 5.1.1 5.1-2.3 0-2.9 1.8-4.3 2.9-6.4 2.1-4 1.2-9.2 5.4-11.5zm-204.4-70.7c-.4-2.9-2.3-3.9-4.6-3.9-5 0-6.9 5.7-11.4 6.7-.1 0-.2 1.9.3 2.3 2.3 2 5 4.5 8.2 3.2 3.6-1.5 6.5-4.3 7.5-8.3zm6.2-85.8c-2.4-2-4.8-3-5.7-4.8-2.3-4.7-7.1-5.7-10.7-8.5-1.3-1-2.7-.9-3.3.5-.5 1.3.9 1.9 1.9 2.1 2.9.6 3.8 2.8 5.3 5.1 2.5 3.7 5.7 8 12.5 5.6zm-22.6 73.9c-3.8-.1-6.5 1.1-6.6 5-.1 3.3 2.8 3 4.8 3 3.7-.1 6.6-2.4 6.8-5.8.1-2.8-3.4-1.7-5-2.2zm38.5-55.3c1.1 1.5 2.1 2.6 2.8 3.9.8 1.5.8 3.6 3.4 3.4 1-.1 1.9-.8 1.6-1.6-.8-2-.6-4.6-2.8-5.6-1.6-.8-3.5-1-5-.1zm-133-20.3c2.5 2.5 5 3.4 7.9 1.6.7-.4 1.8-1.3 1-2.1-2.1-2.2-4.8-1.1-7.4-.8-.3 0-.6.5-1.5 1.3zm82.3 93.7c1.4 3.8 3.5 5.7 7.2 4.6.9-.3 1.8-1.1 1.1-1.9-2.1-2.5-4.4-4.6-8.3-2.7zM322.6 437.6c4.1-3.3 4.1-7.5 1.2-10.1-3.9-3.4-2.9-9.9-8.9-12-2.1-.7-.7-4.3 1.6-6.4 2.6-2.3 6.1-.8 8.5-2.8-.7-2-2.2-2.5-3.8-2.3-2.1.2-3.9 4.5-5.4 2.2-2.1-3.1-5.9-5.2-5.9-9.8 0-2.7-1-5.3-4.1-6.9-4.2-2.2-3.2-7.5-5.5-10.8-3.7-5.4-7.9-10.4-12.6-16.6 7.1 1.5 13.4 3.3 19.8 1.6 1.7-.5 2.3 1.4 2.9 3 1.3 3.6-2.4 2.9-4 4.9 6.1.4 9.7 2.8 11.7 8.7 1.4 4.1 7.4 6.9 8 10.9 1.7 9.7 10.3 15 13 23.8.9 3 3.7 4.6 7.3 4.8 4.9.2 12.1 9.7 11.1 14.4-.2.9-1.5 1.5-2.2 2.4-5.8 7.4-14.8 10.4-22.1 15.6-4.1 3-12.7-1.5-14.4-6.8-.2-.5-.1-1.5.3-1.8 1-1.1 2.1-.6 2.8.4 2.6 3.6 6.4 2 8.2.3 5.2-5.3 12.6-7.1 18.1-11.8 1.7-1.5 2.7-3.1 2.4-5.1-.2-1.8-2-2.3-3.6-2.5-1.9-.2-4.4-.9-5.4 1.4-3.7 7.9-12.1 7.9-19 11.3zm-.1-44.2c-1.1-2.8-2.4-5.4-4.7-5.9-3.4-.7-7-.2-7.7-5.1-.2-1.3-2.8-1.9-4.1-.8-2.2 1.8.6 2.3 1.2 3.4 2.3 4.1 7.4 6.7 7.1 12.4 0 .9.8 2.6 2.5 2.7 1.2.1 2.1-.3 2.9-1.3 1.3-1.7-3-5.8 2.8-5.4z"/><path d="M252.7 307.1c-2.7-2.2-1.5-7.5-5.8-8.9-6.8-2.3-5.9-8.8-8.3-13.4-.4-.8.1-1.9 1.2-2 .8-.1 2.1 0 2.4.5 4.9 8.1 11.2 15.4 14.1 24.7.2.8.1 2.2.5 2.3 7.2 3.1 8.4 10.2 11.6 16.2 4.5 8.3 9.4 16.4 15.2 24 1.6 2.1 2.9 4.4 5.1 5.9.9.6 2 1.3 1.2 2.6-.7 1.2-1.9.7-3 .5-3.1-.9-4.6-3.3-5.6-6.1-1.6-4.5-4.1-8.3-8.5-10.6-.7-.4-1.9-1.1-1.9-1.6.6-7.3-5.6-11-8.1-16.4-2.4-5.2-5.9-8.9-9.2-13.1-1-1.2-2.3-2-.9-4.6z"/><path fill="none" d="M100 400h200v300H100z"/><path d="M106.6 660.5v-48.8c0-27 14.1-37.2 28.6-37.2 12.6 0 20.8 6.7 24.2 14.2 2.8-7.5 10.8-17.4 25.5-17.4 19.1 0 33.4 15 33.4 38.8v50.4H106.6zm44-46c0-11.5-5.2-16.2-13-16.2-8.2 0-12.4 6.2-12.4 15.5v23h25.4v-22.3zm49 22.3V615c0-13.1-5.5-19-15.6-19-9 0-14.7 5.8-14.7 19.1v21.7h30.3zM218.3 546.3h-79.7c2.3 4.9 4.2 14 4.6 19.3h-17.3c-1.9-10.1-7.6-20.3-14.3-26.4v-16.4h106.7v23.5zM218.3 509.1h-1.5c-18.6 0-33.7-8.3-50.5-31.4-11-15-14.8-19.6-24.1-19.6-9.2 0-14.4 4.5-14.4 13.5 0 10.4 6.4 14.2 15.7 15.7v22.4c-18.4-1.5-33.7-13.6-33.7-38.1 0-27.4 16.3-36.8 32.3-36.8 15.5 0 23 6.7 36.8 26.3 9.2 13.1 15.3 18.4 20.1 20.2v-50.5l19.3 2.9v75.4z"/><path fill="none" d="M100 500h300v200H100z"/><path d="M276.9 578.2v31.4h30.7v16.7h-30.7v31.8h-16.7v-31.8h-30.9v-16.7h30.9v-31.4h16.7zM321 658.9v-.8c0-14.5 4.7-31.5 32.5-52.8 13.1-10.1 17.8-14.8 17.8-24.1 0-8.7-4.7-14.4-13.7-14.4-10.1 0-14.4 6.7-15.4 17.6h-21c.7-18.1 11.3-34.6 37.1-34.6 23.2 0 35.3 13.9 35.3 31.3 0 13.9-5.4 22.4-25 36.5-10.5 7.7-18.4 15.6-21.1 23.1h49l-2.7 18.1H321z"/><path fill="none" d="M400 100h300v600H400z"/><path d="M488.8 264.7V185c-4.9 2.3-14 4.2-19.3 4.6v-17.3c10.1-1.9 20.3-7.6 26.4-14.3h16.4v106.7h-23.5zM607.4 210.8c0 29.3-9.3 55.9-41 55.9-31.3 0-40.9-25.7-40.9-55.2 0-29.2 10.7-55.2 41.4-55.2 29.7-.1 40.5 24.2 40.5 54.5zm-58 .4c0 19.6 2.2 37 17.3 37 14.7 0 16.7-16.3 16.7-37.3 0-20.7-2.5-36.2-16.4-36.2-13.7 0-17.6 13.4-17.6 36.5zM687.6 177h-42.7c-.7 5.7-2.5 15.9-3.2 20.3 4-3.3 10-5.7 19.2-5.7 21 0 32.9 15.2 32.9 35.5 0 20.6-11.3 39.6-40.1 39.6-21.1 0-36.6-10.8-38.9-29.9h23.1c2 7.3 7.2 12.1 16.3 12.1 11 0 16.3-8.1 16.3-19.9 0-11.1-4.1-19-16.3-19-9.9 0-13.9 4.3-16.3 10.6l-20.9-2.7c2.8-13.5 7.4-45.2 9.2-59.8h64.9l-3.5 18.9zM507.9 541.8H532v43.6h45v-43.6h24.2v111.7H577v-48.3h-45v48.3h-24.2V541.8zM668.5 572.9c-1.3-5.3-4.3-10.3-13.6-10.3-14.3 0-18 13.4-18.6 27.7 4.5-5.5 12-9.9 24.1-9.9 19.5 0 33.4 14.4 33.4 35.4 0 22.8-14.6 39.7-39.1 39.7-30.9 0-41.2-23.8-41.2-53.9 0-27.7 9.8-56.6 42.5-56.6 23.2 0 34 14.5 35 27.9h-22.5zm2.1 44.8c0-10.1-3.8-19.2-16.6-19.2-10.4 0-16.4 6.1-16.4 18.4 0 8.6 4.1 20.1 16.5 20.1 11.3 0 16.5-8.5 16.5-19.3z"/><path fill="none" d="M500 300.4h199.5v200H500z"/><path d="M562.5 459.7v-.8c0-14.6 4.7-31.7 32.7-53.1 13.1-10.1 17.9-14.9 17.9-24.3 0-8.7-4.7-14.4-13.8-14.4-10.2 0-14.5 6.7-15.5 17.7h-21.1c.7-18.2 11.4-34.8 37.4-34.8 23.4 0 35.5 14 35.5 31.5 0 14-5.4 22.5-25.1 36.8C600 426 592 434 589.3 441.5h49.3l-2.7 18.2h-73.4z"/><circle cx="600" cy="400" r="100" fill="none" stroke="#000" stroke-miterlimit="10" stroke-width="10"/><path fill="none" stroke="#000" stroke-miterlimit="10" stroke-width="10" d="M465 138h235"/></svg>