<?xml version="1.0" encoding="utf-8"?>
<!-- Generator: Adobe Illustrator 26.5.0, SVG Export Plug-In . SVG Version: 6.00 Build 0)  -->
<svg version="1.2" baseProfile="tiny" xmlns="http://www.w3.org/2000/svg" xmlns:xlink="http://www.w3.org/1999/xlink" x="0px"
	 y="0px" viewBox="0 0 800 800" overflow="visible" xml:space="preserve">
<g id="bg" display="none">
</g>
<g id="scratch" display="none">
</g>
<g id="counters_00000155831629897369998050000010902328751353074356_">
	<g>
		<g>
			<line fill="none" stroke="#FFFFFF" stroke-width="75" stroke-miterlimit="10" x1="99.6" y1="699.6" x2="699.6" y2="99.6"/>
			<line fill="none" stroke="#FFFFFF" stroke-width="75" stroke-miterlimit="10" x1="99.6" y1="99.6" x2="699.6" y2="699.6"/>
		</g>
		<g id="art76_00000026127011667224275440000004773694787678228368_">
			<path stroke="#000000" stroke-width="2" stroke-miterlimit="10" d="M297.6,453.5c0.2,0.2,0.4,0.5,0.4,0.8
				c0.7,3.1,1.3,6.2,1.8,9.3c0.2,1.4,0.5,2.8,0.7,4.1c0,0.2,0.1,0.6,0.4,0.5c1.3-0.2,1.1,0.8,1.1,1.4c0.5,4.2,1.5,8.4,2.3,12.6
				c0.6,3.2,1.2,6.3,1.8,9.5c0.1,0.8,0.4,1.5,0.5,2.3c0.2,1.3,0.8,1.7,2.1,1.2c2.3-0.9,2.5-0.7,2.6,1.7c0,0.5,0,1,0.1,1.5
				c0.1,0.5-0.4,2.2,1.1,0.6c0.3-0.4,1.2-0.4,1.4,0.6c0.4,1.5,0.3,3.1,0.4,4.6c0.1,0.7-0.7,1-1.2,1c-0.9,0.1-1.1,0.6-1,1.3
				c0.1,1.9,0.2,3.9,0.3,5.8c0,0.6,0.5,0.7,0.9,0.6c1.2-0.1,1.6,0.4,1.7,1.6c0.1,1.8,0.3,3.6,0.6,5.4c0.3,2.2-0.6,3.1-3.2,3.3
				c-0.7,0.1-1.4,0.3-2.1,0.4c-0.7,0.1-0.7,0.4-0.6,1c0.3,0.8,0.4,1.7,1.2,2.3c0.8,0.6,0.6,1.4-0.1,2c-0.6,0.5-0.6,0.9-0.5,1.6
				c0.7,2.7,1.2,5.4,1.8,8.2c0.4,1.8,0.9,3.6,1.3,5.4c0.1,0.3,0.2,0.7,0.2,1c0,0.7,0.7,1.7-0.7,2c-1.5,0.3-2.6-0.3-2.9-1.5
				c-0.4-2-0.8-4-1.3-5.9c-0.6-2.5-1.2-5-1.8-7.5c-0.1-0.4-0.2-0.8-0.2-1.1c-0.1-0.8-0.3-1.4-1.2-1.6c-1-0.3-1.2-1.2-0.7-2.2
				c0-0.1,0.1-0.1,0.1-0.2c0.1-0.7,0.6-1.5,0.1-2.2c-0.5-0.8-1.3-0.3-2-0.2c-1.9,0.1-3.7,0.8-5.6,1.1c-1,0.2-2,0.1-3,0.2
				c-0.5,0-0.9-0.3-1.2-0.6c-1.6-1.5-3.2-3.1-4.9-4.7c-1-0.9-1.3-2.3-1.5-3.4c-0.4-2.8-1.1-5.5-1.7-8.2c-0.2-1.2-0.5-2.4-0.7-3.5
				c-0.1-0.4-0.2-0.9,0.3-1.1c0.5-0.2,1,0,1.2,0.5c0.4,0.7,0.9,0.6,1.5,0.5c2.9-0.5,5.9-1.1,8.8-1.6c1-0.2,1.6-1.6,1.1-2.5
				c-0.2-0.3-0.5-0.2-0.7-0.1c-0.6,0.3-1.3,0.2-1.9,0.1c-2.1-0.4-2.4-0.8-2.6-2.9c-0.3-2.4-1-4.7-1.5-7.1c-0.4-1.7-0.8-3.3-1.2-5
				c-0.2-0.7,0.2-1.1,0.6-1.6c0.7-0.8,1.5-1.4,2.5-1.6c0.9-0.2,1.2-0.7,1-1.6c-0.4-1.6-0.6-3.2-1.1-4.8c-1-3.2-1.3-6.5-2-9.8
				c-0.7-2.8-1.2-5.7-1.8-8.5c-0.1-0.6-0.3-0.9-1.1-0.7c-1.7,0.4-3.2-0.7-3-2.4c0.3-3.4-1-6.6-1.6-9.8c-0.6-2.8-1.2-5.7-1.9-8.5
				c-1.2-5.2-2.4-10.4-3.6-15.7c-1.2-5.5-2.4-11.1-3.6-16.6c-0.7-3-1.5-5.9-2.2-8.8c-1-4-1.9-8-2.8-12c-1-4.3-2-8.5-2.9-12.8
				c-0.3-1.1-0.5-2.2-0.7-3.3c-0.6-2.9-1.5-5.8-2-8.7c-0.2-1.5-1-2.9-1.2-4.4c-0.7-4.3-2-8.4-2.7-12.7c-0.3-1.6-0.7-1.9-2.3-2
				c-0.6,0-1.1-0.2-1.4-0.7c-0.3-0.6,0.1-1.1,0.4-1.6c1-1.5,2.5-2,4.2-2.2c0.7-0.1,0.7-0.3,0.6-0.9c-0.2-0.8-0.3-1.6-0.5-2.4
				c-0.2-1.1-0.4-1.9-2-2c-1.2-0.1-1.8,0.1-2.8,0.7c-0.9,0.6-2.1-0.1-2.9-0.7c-1.5-1.2-2.7-2.6-4.1-3.9c-2.6-2.4-4.9-5-7.4-7.4
				c-0.3-0.3-0.6-0.4-0.9-0.2c-0.8,0.6-1.7,0.3-2.6,0.4c-0.4,0-0.7-0.2-0.9-0.4c-0.9-1-1.9-2-2.8-3c-0.9-1-1-2.3-0.3-3.4
				c0.1-0.2,0.4-0.4,0.1-0.6c-0.2-0.2-0.5-0.1-0.6,0c-0.6,0.5-1.1,1-1.7,1.6c-0.4,0.4-0.1,0.6,0.2,0.9c2.7,2.8,5.5,5.5,8.1,8.4
				c1.4,1.6,2.9,3.1,4.4,4.6c0.5,0.6,0.6,1.2,0.2,1.7c-0.5,0.6-1.1,1.4-2.1,1.1c-0.4-0.1-0.8-0.9-1.3-0.3c-0.4,0.6,0.3,0.7,0.6,1.1
				c0.2,0.2,0.3,0.5,0.1,0.8c-0.5,1.1-2.6,1.9-3.6,1.3c-0.3-0.1-0.5-0.3-0.7,0c-0.2,0.3-0.1,0.6,0.1,0.7c1,0.7,0.6,1.3-0.1,1.9
				c-1.4,1.2-1.7,1.2-2.6,0.3c-5.4-5.6-10.8-11.1-15.9-16.9c-0.9-1-1.9-1.7-2.6-2.8c-0.3-0.5-0.8-0.5-1.3-0.1
				c-1.3,0.9-2.6,1.9-3.7,3c-0.7,0.7-1.1,0.6-1.7-0.1c-2-2.2-4.1-4.5-6.1-6.7c-0.5-0.5-1.4-0.7-1.4-1.5c0-0.7,0.9-1,1.3-1.6
				c0.7-1.1,1.7-1.9,2.3-3.1c0.2-0.5,0.3-0.8-0.1-1.3c-3.3-4-7.2-7.6-10.7-11.4c-2.8-3-5.7-5.9-8.6-8.9c-0.7-0.7-0.6-1.2,0.1-1.9
				c0.9-0.8,1.7-1.2,2.7-0.3c0.2,0.2,0.4,0.2,0.6,0c0.1-0.1,0.1-0.3,0-0.4c-1.1-1,0-1.8,0.5-2.4c0.5-0.6,1.3-1.2,2.2-0.3
				c0.2,0.2,0.5,0.1,0.7-0.1c0.3-0.2,0.3-0.5,0.2-0.8c-0.4-0.9,0.2-2.4,1.1-2.7c0.7-0.3,1,0.3,1.4,0.7c1.8,1.8,3.5,3.6,5.3,5.4
				c2,2,3.9,4,5.8,6c1.1,1.2,1.6,1.1,2.7-0.1c1.4-1.7,1.5-1.7,3,0c4.1,4.4,8.3,8.7,12.4,13.1c2.6,2.8,5.2,5.8,7.8,8.7
				c0.3,0.3,0.5,0.7,1.2,0.7c-2.4-2.6-4.7-5.2-7-7.7c-4.3-4.7-8.5-9.4-12.9-13.9c-1-1-1.7-2.5-3.4-2.7c-0.1,0-0.3-0.3-0.3-0.3
				c0.4-1.1-0.5-1.5-1-2.1c-0.6-0.6-0.5-1,0.2-1.3c1-0.5,2-0.5,3.1-0.2c0.5,0.2,0.8,0.6,0.8,1.2c0,0.5,0.2,0.8,0.5,1.1
				c1,1,1.1,1.1,2.1,0.1c0.8-0.8,0.8-1.2-0.1-2.1c-0.2-0.2-0.5-0.5-0.7-0.7c-0.9-1.1-0.6-2.2,0.7-2.8c0.1-0.1,0.3-0.1,0.4,0
				c0.2,0.1,0.3,0.5,0.1,0.6c-0.8,1,0.2,1.3,0.7,1.8c0.6,0.7,0.9-0.2,1.3-0.4c0.2-0.1,0.3-0.2,0.5-0.3c-0.5-0.5-1-0.9-1.5-1.4
				c-0.8-0.7-1-1.7-0.4-2.4c0.6-0.7,1.2-0.6,2.2,0.2c1,0.8,1.2,2.2,2.3,3.1c1.3,1,2.3,2.2,4,2.4c0.6,0.1,0.9,0.7,1.2,1.2
				c0.9,1.3,1,1.1,2.3,0.3c1.3-0.8,1.2-1.8,1.2-3.1c-0.1-1.8-1.1-3.1-2.3-4.3c-1.3-1.4-2.5-2.7-3.8-4.1c-0.3-0.4-0.7-0.7-1.3-0.7
				c-0.9-0.1-1.2-1.1-1.8-1.7c-0.8-0.7-1.4-1.5-2.1-2.1c-0.5-0.5-1.1-0.5-1.7-0.1c-2,1.3-4,2.5-6,3.7c-0.5,0.3-0.9,0.6-1.1,1.2
				c-0.1,0.4-0.4,0.5-0.7,0.7c-0.3,0.2-0.7,0.3-0.8,0.5c-0.3,1.4-1.8,1.7-2.4,2.8c-0.2,0.4-0.6,0.7-1,0.7c-1.1,0.1-2,0.6-2.8,1.3
				c-0.3,0.3-0.8,0.5-1.1,0c-0.3-0.4-0.2-0.9,0.2-1.2c0.4-0.3,0.6-0.6,0.9-0.9c0.3-0.3,0.4-0.5,0.1-0.9c-0.7-0.8-0.2-1.3,0.5-1.6
				c0.8-0.3,1.4-0.8,1.6-1.5c0.1-0.4,0.4-0.6,0.8-0.6c0.5-0.1,0.9-0.3,0.9-0.9c0-0.1,0-0.3,0.1-0.3c1.5-0.7,1.4-2.1,1.8-3.4
				c0.2-0.8,0.6-1.7,1.2-2.3c3.3-3.5,6.1-7.3,9.3-10.9c0.3-0.4,0.5-0.8,0.4-1.4c-0.1-0.8,0.4-1.3,1.1-1.4c1.2-0.2,2.2-1.1,2.5-2.4
				c0.1-0.7,0.5-1,1.2-1.1c1.9-0.2,2.7-2,4-3.1c0.3-0.3,0-0.6-0.2-0.9c-1.8-1.8-3.5-3.7-5.3-5.4c-0.7-0.7-1.7-1.1-2.5-1.6
				c-0.5-0.3-0.7-0.7-0.7-1.3c0-2-0.2-4,0.1-5.9c0.1-0.6-0.3-0.9-0.7-1.2c-3.7-3.5-7.2-7.2-10.8-10.8c-2.5-2.5-4.8-5.1-7.3-7.6
				c-5.6-5.7-11-11.6-16.6-17.3c-11.9-12.2-23.7-24.4-35.5-36.6c-2.9-3-5.7-6.2-8.7-9.2c-4.1-4-8-8.3-12.1-12.3
				c-0.9-0.8-1.5-2-2.7-2.5c-4.1-1.9-7.4-5-11.6-6.7c-0.2-0.1-0.5-0.3-0.7-0.3c-1.1,0.4-1.5-0.3-1.8-1.1c-0.6-1.8-1.9-3-3-4.4
				c-1-1.1-2.2-2.1-3-3.4c-0.3-0.4-0.6-0.4-1-0.3c-0.7,0.2-1.3-0.1-1.7-0.7c-0.4-0.7-0.7-1.4-0.2-2.2c0.7-1.1,1.7-2,1.6-3.5
				c0-0.3,0.3-0.6,0.6-0.9c1.9-1.9,3.9-3.8,5.8-5.7c0.6-0.5,1.1-0.9,2-0.8c0.9,0.1,1.6-0.6,2.4-0.9c1.4-0.6,2.3-0.1,2.7,1.2
				c0.6,1.8,1.8,3.1,2.9,4.4c1.3,1.5,2.6,2.9,4.6,3.6c0.7,0.2,1.2,0.8,1.3,1.8c0.1,1.2,0.4,2.3,1.1,3.3c1.4,2.2,2,4.9,3.8,6.9
				c1.2,1.4,2,3,2.8,4.5c0.5,1,1.4,1.5,2.2,2.3c4,4.1,8.3,7.8,12.4,11.8c2.8,2.7,5.6,5.5,8.5,8.1c4.2,3.8,8.2,7.9,12.3,11.8
				c4.4,4.1,8.7,8.3,13,12.5c4.8,4.6,9.6,9.2,14.3,13.8c3.2,3,6.2,6.3,9.3,9.3c3.5,3.4,7.1,6.7,10.6,10.2c3.9,3.9,8.1,7.4,11.9,11.4
				c0.6,0.6,1.2,0.9,2,0.9c2,0,4-0.3,5.9,0.1c0.7,0.1,1.3,0.4,1.9,0.8c0.2,0.1,0.5,0.3,0.5,0.5c-0.3,1.9,1.5,2.5,2.4,3.6
				c1.1,1.3,2.5,2.5,3.7,3.7c0.5,0.5,0.9,0.6,1.4,0.1c0.2-0.2,0.5-0.3,0.6-0.5c4.2-4,8.7-7.7,12.8-11.7c1.1-1.1,2.3-2.1,3.4-3.1
				c0.4-0.4,0.5-0.7,0-1c-0.6-0.4-0.3-0.8,0-1.2c1.3-1.6,3-2.7,4.7-3.7c1.4-0.8,2.8-0.1,3.6,1.8c0.6-0.8,1.9-1.1,1-2.5
				c-0.4-0.7,0.2-1.2,1.1-1.5c-2-0.7-3.3-2.1-4.5-3.7c-0.4-0.6-0.4-1.1,0-1.6c1.5-1.6,3-3.2,4.7-4.5c1.1-0.8,2-0.4,2.8,0.3
				c0.8,0.7,1.5,1.5,2.3,2.2c0.3,0.3,0.5,0.7,0.4,1.2c-0.3,0.9,0.1,1.3,0.9,1.6c0.6,0.2,1.4,0.7,1.2,1.2c-0.3,0.8-0.2,2-1.5,2.2
				c-0.7,0.1-0.9,0.4-0.8,1.1c0.2,1-0.6,1.6-1.3,2.2c-1.2,0.8-2.2,1.8-3.1,2.8c-0.3,0.3-0.4,0.6-0.2,1c0.8,1.7,0.3,3.3-1.2,4.5
				c-0.6,0.4-0.8,0.9-0.9,1.5c-0.2,1.2-0.7,2.2-2.2,2.4c0.9,1.1,1.8,2,2.7,2.8c0.6,0.5,1.1,1,0.7,1.9c-0.2,0.4,0.1,0.7,0.4,1
				c1.1,1.1,2.4,2,3.3,3.2c1.8,2.5,4.5,1.7,6.8,2.3c0.6,0.2,2.6-1.5,2.8-2.1c0.1-0.3,0-0.5-0.1-0.8c-0.7-1-1.2-2.2-2.5-2.8
				c-0.7-0.4-1.3-0.9-1.4-2c-0.1-0.9-1.2-1.5-1.9-2.1c-0.7-0.5-1.4-1-2-1.6c-1-0.9-0.9-2.2,0.4-2.6c1.3-0.4,2.1-1.2,2.9-2.2
				c0.4-0.6,0.8-0.6,1.3-0.1c0.6,0.4,1,1,1.5,1.4c0.4,0.3,0.7,0.7,1.2,0.4c0.4-0.3,0.9-0.6,0.9-1.1c0-0.6-0.5-1.1-1-1.1
				c-1.1-0.1-1.8-0.6-1.8-1.6c0-1.1,0.4-2.2,1.2-3c0.5-0.5,1-0.3,1.5,0.3c0.8,0.9,2.2,1,3,0.2c1.9-1.6,1.9-1.6,0.1-3.4
				c-3.6-3.7-7.2-7.6-10.9-11.2c-0.4-0.4-0.7-0.8-0.2-1.3c0.5-0.5,0.8-1.4,1.9-1c0.4,0.1,0.8,0.6,1.1,0.1c0.4-0.5-0.2-0.8-0.4-1.2
				c-0.3-0.5-0.3-0.8,0.2-1.2c0.7-0.5,1.4-0.8,1.9-1.5c0.3-0.4,0.7-0.2,1,0.1c0.4,0.5,0.9,0.5,1.5,0.1c0-0.1,0-0.2-0.1-0.3
				c-1-1.3-0.7-2.4,1-2.8c0.5-0.1,0.8,0.1,1.1,0.4c3.2,3.4,6.6,6.6,9.6,10.2c1.1,1.3,2.5,2.3,3.6,3.6c1.8,2,3.9,3.8,5.5,5.9
				c0.5,0.6,1.1,0.6,1.7,0.3c1.2-0.6,2.3-1.4,3.4-2.2c0.3-0.3,0.7-0.6,1-0.8c2.2-1.4,2.9-1.3,4.6,0.7c1.2,1.4,2.5,2.7,3.8,4
				c0.8,0.8,0.6,1.5,0.1,2.3c-1,1.8-2.4,3.5-3.6,5.1c-0.7,0.9-0.6,1.5,0.2,2.4c2.9,3.2,5.9,6.4,9,9.5c3.2,3.3,6.3,6.7,9.7,9.9
				c0.8,0.8,0.3,2.9-0.8,3.2c-0.4,0.1-0.6-0.1-0.8-0.3c-0.3-0.1-0.6-0.1-0.7,0.1c-0.2,0.3-0.1,0.6,0.2,0.8c0.9,0.6,0.8,1-0.1,1.5
				c-0.3,0.2-0.6,0.5-0.9,0.8c-0.6,0.7-1.1,0.9-2,0.4c-0.7-0.4-1.1,0-0.9,0.7c0.3,0.9-0.1,1.6-0.8,2.1c-0.7,0.5-1.3,0.4-1.8-0.2
				c-3.9-4.3-8-8.4-12-12.6c-0.6-0.6-1.1-0.7-1.8-0.1c-0.7,0.7-1.4,1.3-2.2,2.2c1-0.5,2-0.3,2.8-0.7c0.6-0.3,1.1-0.1,1.5,0.3
				c0.5,0.6,1,1.2,1.6,1.7c1.7,1.3,1.5,3,1.2,4.7c-0.1,0.4,0,0.6,0.3,0.8c1.8,1.8,3.6,3.6,5.4,5.4c1.7,1.8,3.5,3.5,5.2,5.3
				c1.2,1.2,1.3,2.1,0.3,3.5c-0.5,0.7-0.7,1.3-0.2,2.2c0.4,0.8,0.3,1.7-0.1,2.6c-0.3,0.7-0.1,1,0.7,1c0.2,0,0.4,0,0.6,0.1
				c0.6,0.1,1.3,0.6,1.9,0.4c0.7-0.2,0.4-1.1,0.6-1.7c0.5-1.2,1.5-1.5,2.6-1.7c0.7-0.1,1.1-0.3,1.5-0.8c0.8-1,2.2-0.9,2.2,0.3
				c0.1,2.2,1.8,2,3.1,2.4c4.4,1.1,8.7,2.2,13.1,3.3c4.5,1.1,9,2.1,13.5,3.2c3.5,0.8,7.1,1.7,10.6,2.6c4,1,7.9,2,11.9,2.9
				c6,1.5,12,3,18,4.4c4.8,1.2,9.6,2.3,14.4,3.5c6.6,1.7,13.2,3.4,19.7,5c1.3,0.3,2.7,0.3,4,0.6c1.7,0.4,2.4,1.1,2.1,2.8
				c-0.2,1.2,0.3,1.6,1.4,1.8c5,1.3,10,2.6,14.9,3.9c1,0.3,2,0.3,2.9,0.7c0.1,0.1,0.4,0.1,0.4,0.1c1.1-0.7,2-0.1,2.9,0.3
				c0.5,0.2,0.9,0.2,1.1-0.4c0.1-0.4,0.4-0.7,0.7-1c0.2-0.2,0.4-0.4,0.1-0.7c-0.7-0.9,0-1.6,0.5-2.2c0.6-0.7,1.3-0.6,2-0.3
				c1.3,0.6,2.6,0.6,3.9,1c0.8,0.2,1.1,0.7,0.9,1.5c-0.5,1.4,0.2,2.9-0.4,4.2c-0.1,0.2,0.1,0.3,0.2,0.3c0.2,0,0.3,0,0.4-0.2
				c0.1-0.3,0.2-0.6,0.3-0.9c0.6-2.3,2.3-3.3,4.6-2.7c4,1,8,2.1,12,3.2c0.4,0.1,0.9,0.4,1.3,0.6c1.6,0.8,1,2.1,0.9,3.3
				c0,0.3-0.2,0.6-0.2,0.9c0,0.3-0.4,0.8,0.3,0.9c0.4,0,0.8-0.2,0.9-0.7c0.2-0.9,0.4-1.8,0.6-2.7c0.4-2.2,0.8-4.5,1.3-6.7
				c0.1-0.6,0.3-1.1-0.4-1.5c-0.4-0.2-0.3-0.7-0.1-1c0.2-0.4,0.4-0.8,1-0.6c4,1.2,8.1,1.8,12,3.1c1.4,0.5,2.4,1.4,3.4,2.6
				c1.4,1.8,3,3.4,4.6,5.1c0.6,0.7,0.9,1.3,0.7,2.3c-0.6,2.5-1.1,5.1-1.4,7.7c-0.1,0.7,0.1,1.1,0.9,1.1c0.3,0,0.6,0.1,0.9,0.1
				c1.4-0.4,2.6-0.3,3.3,1.2c0.2,0.3,0.7,0.3,1,0.4c3.6,0.9,7.1,1.9,10.7,2.8c1.5,0.3,2.9,0.7,4.4,1.1c0.7,0.2,1.5,0.4,1.3,1.5
				c-0.1,1-0.6,1.6-1.7,1.6c-0.7,0-1.5-0.1-2.2-0.3c-4.4-1.1-8.7-2.3-13-3.5c-0.6-0.2-1.2-0.3-1.6,0.4c-0.6,0.9-1.4,0.8-1.9,0.1
				c-0.7-0.9-1.8-1.1-2.8-1.6c-0.6-0.3-0.8-0.1-0.9,0.5c-0.2,1.3-0.5,2.7-0.8,4c-0.2,1.1-0.9,1.6-2,1.5c-1.9-0.2-3.9-0.4-5.8-0.6
				c-1-0.1-1.5-0.6-1.3-1.7c0.3-1.1-0.1-1.5-1.3-1.5c-1.3,0-2.7-0.3-4-0.5c-0.8-0.1-1.4-0.2-1.5,1c-0.1,1-0.9,1.5-1.9,1.4
				c-1-0.1-2.1-0.1-3.1-0.2c-0.5,0-0.9,0-1,0.6c-0.2,1.1-0.4,2.2-0.1,3.3c0.3,1.1,0,2.4-0.9,3.1c-0.4,0.3-1.1,1.1-1.4-0.3
				c-0.1-0.5-0.7-0.7-1.2-0.1c-0.6,0.6-0.9,0.4-1.2-0.3c-0.3-0.8-0.3-1.6-0.1-2.3c0.4-1.3,0.3-2.7,0.6-4c0-0.2,0.1-0.4,0-0.5
				c-0.9-1-0.9-2.2-1-3.5c0-0.5-0.6-0.4-0.9-0.5c-1.1,0-2.3,0-3.4-0.1c-0.3,0-0.7,0-0.8,0.3c-0.2,0.9-0.9,1.6-0.8,2.6
				c0,1.1-0.3,2.1-1.5,2.5c-1.2,0.5-2.3,0.5-3.3-0.4c-0.2-0.2-0.4-0.5-0.8-0.3c-0.9,0.5-1.7,0-2.6-0.2c-2.1-0.6-4.1-1.4-6.3-1.6
				c-1.5-0.1-3.2-0.5-4.5-1.7c-0.5-0.5-1.2-0.5-1.8-0.8c-2.8-1.2-5.8-1.9-8.6-2.8c-3.6-1.2-7.2-2.2-10.8-3.3
				c-2.6-0.8-5.2-1.5-7.8-2.3c-0.8-0.2-1.5-0.1-2.2,0.3c-2.4,1.3-5.6,0.1-6.9-2.6c-1.1-2.2,0.2-5.3,2.5-6.4c0.2-0.1,0.4-0.1,0.5-0.2
				c0.3-0.1,0.7-0.3,0.7-0.7c0-0.5-0.5-0.5-0.8-0.6c-3.1-0.7-6.2-1.5-9.3-2.2c-3-0.7-6-1.4-9.1-2c-4.2-0.9-8.4-1.7-12.7-2.6
				c-3.1-0.6-6.1-1.3-9.2-2c-2.8-0.6-5.5-1.2-8.3-1.8c-0.7-0.2-1.1,0-1.2,0.8c-0.1,1.3-0.8,2.3-1.7,3.1c-1,0.9-2.2,0.8-3.5-0.1
				c-1-0.7-1.5-2.1-1.2-3.2c0.5-2.2,0.6-2.2-1.7-2.8c-6.4-1.5-12.8-3-19.2-4.4c-5.9-1.3-11.9-2.6-17.9-3.9c-5-1.1-9.9-2.4-14.9-3.6
				c-2.4-0.6-4.8-1.2-7.2-1.5c-1.7-0.2-3.5-0.6-5.1-0.6c-1.3,0-3.2-0.3-4,1.8c-0.4,1.1-1.6,1.8-2.7,2.4c-0.7,0.4-1.5,0-2.6-0.2
				c0.7,1,1.3,1.7,2,2.2c1.8,1.5,1.9,1.6,0.2,3.3c-1.2,1.2-2.4,2.4-3.7,3.5c-0.7,0.6-0.6,0.9-0.1,1.4c2.8,3.4,6,6.4,9,9.6
				c3.6,3.7,7.2,7.4,10.8,11.1c0.8,0.8,1.7,1.4,2.4,2.2c3.6,4.5,7.6,8.5,11.7,12.6c4.3,4.3,8.5,8.7,12.9,12.9
				c2.1,2.1,4.1,4.2,6.3,6.2c0.3,0.3,0.7,0.5,0.3,1c-0.3,0.4,0.1,0.6,0.3,0.9c0.3,0.4,0.3,0.8,0,1.2c-0.4,0.4-0.8,0-1.1-0.2
				c-0.1-0.1-0.2-0.2-0.3-0.2c-1.3-1.3-1.3-1.3-2.6,0c-1.9,2-4,3.7-5.7,5.8c-0.9,1-1.9,1.9-3,2.8c-0.7,0.5-0.6,0.9-0.1,1.4
				c0.2,0.2,0.5,0.4,0.6,0.7c0.4,0.6,1.1,1.3,0.2,2c-0.8,0.6-1.8,0.5-2.5-0.4c-0.5-0.6-1-1.4-1.6,0c-0.3,0.6-0.8,0.5-1.2,0
				c-0.5-0.5-0.8-1-1.6-0.3c-0.5,0.4-1.1-0.2-1.5-0.6c-1.7-2.1-3.9-3.8-5.8-5.8c-2.7-2.8-5.4-5.6-8.1-8.4c-2.7-2.8-5.5-5.5-8.2-8.2
				c-0.6-0.6-1.3-0.7-1.8,0c-0.9,1.2-1.7,1-2.7,0.2c-0.9-0.7-2-1.2-2.4-2.5c-0.1-0.4-0.5-0.7-0.8-1c-3.1-2.6-5.6-5.7-8.5-8.5
				c-1.9-1.8-3.6-3.8-5.4-5.6c-0.7-0.7-1.5-1.3-2.4-1.8c-1.1-0.6-2.3-1.1-2.9-2.3c-0.2-0.4-0.6-0.7-1-0.9c-1.7-0.7-3-2.1-4.1-3.5
				c-0.3-0.3-0.6-0.8-1-0.4c-0.5,0.4-0.2,0.8,0.2,1.1c1.8,1.7,2.5,4,3.1,6.3c0.7,2.4,1.4,4.9,2,7.3c0.3,1.2,1.1,2,1.9,2.8
				c4.1,4.4,8.2,8.8,12.5,12.9c3.7,3.5,7.1,7.3,10.7,10.9c0.5,0.5,1.4,1,0.8,1.9c-0.5,0.8-2,0.8-2.8,0.1c-1.3-1.1-2.5-2.3-3.7-3.5
				c-3-3.1-6-6.1-8.9-9.2c-3.9-4-7.9-8-11.6-12.2c-0.9-1-1.2-2.3-1.6-3.6c-1-3.3-2-6.7-3-10c-0.6-1.9-2.3-3-3.6-4.4
				c-0.2-0.2-0.4-0.2-0.6,0c-1,0.8-2.1,0.6-3.2,0.4c-0.3-0.1-0.6,0-0.9,0.2c-0.5,0.6-1.1,0.7-1.7,0c-0.1,0.8,0.1,1.4,0.3,2
				c0.2,0.5,0.5,0.6,1,0.5c0.6-0.1,0.4-0.6,0.2-0.9c-0.1-0.3-0.3-0.8,0.1-0.9c0.5-0.2,0.5,0.4,0.7,0.7c0.6,1.5,0.6,3.2,1.2,4.7
				c0.3,0.9,0.8,1.5,1.8,1.6c1.5,0.1,2.9,0.6,4.4,0.3c0.4-0.1,0.8,0,0.8,0.4c0.1,0.5-0.3,0.5-0.7,0.6c-4,0.4-7.8,1.6-11.8,2.4
				c-0.3,0.1-0.9,0-0.8,0.6c0.1,0.4,0.6,0.2,0.9,0.1c3.6-0.8,7.3-1.6,10.9-2.3c0.4-0.1,0.9-0.1,1.2-0.3c0.2-0.1,0.5-0.3,0.7,0.1
				c0.1,0.3-0.1,0.6-0.3,0.7c-0.5,0.2-1.1,0.4-1.7,0.5c-0.9,0.2-1.9,0.5-2.9,0.6c-1.1,0.1-1.1,0.7-0.8,1.5c0.5,1.5,0.9,3,1.4,4.6
				c0.2,0.7,0.3,1.3-0.5,1.5c-0.7,0.2-1.5,0.4-1.9-0.8c-0.5-1.9-1.2-3.7-1.8-5.6c-0.4,0.3-0.3,0.7-0.2,1c1.3,4.7,1.9,9.6,2.9,14.4
				c1.3,6.1,2.4,12.2,3.9,18.3c1,4,1.8,8,2.6,12.1c0.9,4.2,1.6,8.5,2.6,12.6c0.6,2.3,1,4.6,1.6,6.9c0.2,1,0.8,1.5,1.9,1.8
				c1.5,0.5,2.8-0.2,4.2-0.2c1.1,0,1.7,0.4,1.8,1.4c0.2,2,0.7,4,1.3,5.9c0.6,2,0.8,4.1,1.3,6.1c1,3.6,1.5,7.3,2.3,10.9
				c0.8,3.6,1.5,7.3,2.3,10.9c0.3,1.4,0.2,1.5-1.2,1.2c-1.1-0.2-2.2,0.1-3.2,0.3c-0.8,0.2-1.6,0.4-2.4,0.2c-0.4,3,0.5,5.8,1.1,8.6
				c1.1,5,2.1,10.1,3.2,15.1c0.4,1.8,0.7,3.7,1,5.6C297.8,452.9,297.9,453.2,297.6,453.5c-0.5-0.4-0.6-1-0.7-1.6
				c-0.3-1.7-0.6-3.4-0.9-5.2c-0.8-4-1.8-7.9-2.6-11.9c-1-5.2-2.2-10.4-3.1-15.6c-0.9-5.2-2.4-10.4-3.4-15.6
				c-0.4-2.2-0.7-4.5-1.4-6.7c-0.5-1.6-0.3-3.5-1.7-4.8c-0.2-0.2-0.3-0.6-0.3-1c-0.3-1.2-0.6-2.4-0.8-3.6c-0.1-0.5-0.3-1,0.1-1.4
				c0.5-0.5,0.5-1.2,0.3-1.6c-0.6-1.7-0.5-3.5-1-5.2c-1.2-4.3-1.9-8.7-2.9-13.1c-0.9-4.2-1.8-8.5-2.7-12.7c-0.4-2-1.1-3.9-1.4-5.9
				c-0.6-3.5-1.6-7-2.1-10.5c-0.5-3.1-1.3-6.1-1.8-9.1c-0.4-2.6-1-5.2-1.8-7.7c-0.3-0.8-0.7-0.8-1.4-0.6c-0.7,0.1-0.6,0.6-0.5,1.1
				c0.5,2.9,1,5.9,1.7,8.8c0.9,3.9,1.1,3-2.4,4c-1.5,0.4-2.4-0.2-2.6-1.7c-0.5-2.8-1-5.6-1.6-8.3c-0.3-1.5-0.8-2.7-2-3.7
				c-0.8-0.6-1.3-1.5-2.3-2.2c0.3,1.6,0.6,3.1,0.8,4.5c0,0.2,0.2,0.3,0.4,0.4c1,0.7,1.4,2.5,0.8,3.6c-0.6-0.5-0.5-1.3-0.7-1.9
				c-0.3-0.9-0.7-0.9-1.4-0.7c-1.3,0.4-0.5,1.5-0.6,2.3c-0.1,0.6,0.4,0.9,1,0.6c0.5-0.3,1.1-0.3,1.7-0.3c0.3,0.5,0,1,0.2,1.6
				c0.5,1.7,0.9,3.4,1.2,5.1c0.3,1.8,2.4,2,2.9,3.7c0,0,0.1,0,0.2,0c0.4,0.1,0.5,0.4,0.2,0.6c-0.5,0.3-0.5,0.8-0.5,1.3
				c0.1,0.5-0.1,0.9-0.7,0.9c-0.8,0-0.8,0.5-0.7,1.1c1.1,5.1,2.1,10.3,3.3,15.3c1.2,5.1,2.3,10.3,3.5,15.4c0.6,2.2,1.1,4.5,1.6,6.8
				c0.8,4.2,1.8,8.3,2.8,12.5c0.8,3.4,1.6,6.9,2.4,10.3c0.2,0.9,0.2,1.7,1.6,1.4c0.9-0.2,1.3,0.7,1.5,1.4c0.1,0.6-0.2,1-0.7,1
				c-1.5,0.1-1.2,1.2-1,2c0.9,3.3,1.6,6.6,2.3,9.9c0.2,0.9,0.5,1.4,1.5,1.4c1,0,1.2,0.6,0.6,1.5c-0.2,0.3-0.4,0.7-0.7,0.9
				c-0.6,0.4-0.6,0.8-0.5,1.5c0.8,4.3,2,8.5,2.9,12.8c0.9,4.6,2.2,9.2,3.1,13.9c0.8,4,1.8,7.9,2.7,11.8c0.7,3.1,1.3,6.3,2,9.5
				c0.5,2.1,1.7,3.5,3.9,3.8c1.9,0.2,3.3-0.7,4.3-2.2c0.5-0.7,0.6-1.2-0.1-1.8c-0.2-0.1-0.2-0.4-0.3-0.6c-0.4-2-0.8-4-1-6
				c-0.3-2.7-0.6-5.3-1.4-7.9C297.3,454.5,297.2,454,297.6,453.5z M148.2,154.6C148.2,154.6,148.2,154.7,148.2,154.6
				c5.4,5.6,10.7,11.1,16.1,16.7c5.8,6,11.7,12,17.5,18.1c6,6.2,12,12.5,18.1,18.7c5.8,6,11.5,12.1,17.5,17.8c2.1,2,4.2,4,6.3,6.1
				c0.4,0.4,0.7,0.6,1.2,0.2c2.6-2.3,4.9-5,7.5-7.2c0.5-0.4,0.4-0.7-0.1-1.1c-0.5-0.4-1-0.9-1.4-1.4c-2.1-2.1-4.1-4.3-6.3-6.4
				c-3.4-3.3-6.8-6.4-10.2-9.7c-3.9-3.7-7.8-7.5-11.6-11.3c-4.1-4.1-8.2-8.2-12.4-12.2c-1.7-1.6-3.3-3.4-5-5
				c-3.3-3.1-6.7-6.2-9.9-9.4c-4.3-4.3-8.8-8.3-13.1-12.6c-2.7-2.8-5.7-5.3-8.5-7.9c-4.6-4.2-9-8.7-13.7-12.8
				c-1.9-1.7-3.7-3.6-5.5-5.3c-0.5-0.5-0.9-0.8-1.5-0.2c-1.4,1.4-2.8,2.7-4.2,4.1c-0.4,0.3-0.5,0.6,0,1.1c2.5,2.7,5,5.4,7.6,8
				C140.5,146.6,144.3,150.6,148.2,154.6z M396.7,280.8c-0.5,0.5-0.8,0.7-1.3,0.5c-0.7-0.3-1.2-0.9-1.1-1.6c0.1-1.2-0.6-1.4-1.5-1.6
				c-2.6-0.6-5.1-1.3-7.7-2c-2.9-0.7-5.9-1.4-8.8-2.2c-3-0.7-6-1.4-8.9-2.2c-2.1-0.5-4.2-1.1-6.4-1.5c-2.5-0.5-5-1.2-7.5-1.8
				c-4.5-1-9-2.3-13.4-3.4c-0.9-0.2-1.6,0-1.9,1c-0.2,0.6-0.6,1-1.2,0.8c-1-0.2-2.2-0.2-3-1c-0.1-0.1-0.1-0.3,0-0.4
				c0.2-1.3-0.7-1.6-1.6-1.8c-0.6-0.1-1.1-0.2-1.7-0.4c-1.5-0.4-3.1-0.9-4.6-1.1c-1.6-0.1-3.1-0.1-4.3-1.4c-0.3-0.3-1.1-0.8-1.5-0.1
				c-0.5,1,0.2,2.3,1.3,2.5c3.4,0.8,6.7,1.5,10.1,2.3c1.3,0.3,1.5,0.6,1.2,1.9c-0.2,0.8-0.4,1.6-0.6,2.4c-0.3,1.4-0.8,1.8-2.2,1.5
				c-1.8-0.4-3.6-0.8-5.4-1.2c-1.8-0.4-3.6-0.7-5.4-1.1c-1.2-0.3-1.4,0.9-1.7,1.4c-0.3,0.6,0.7,0.6,1.1,0.7c4.7,1.3,9.6,2,14.3,3.4
				c4.1,1.2,8.4,1.8,12.6,2.9c5,1.3,10.1,2.3,15.2,3.4c4.9,1.1,9.7,2.4,14.6,3.2c0.8,0.1,1.8,0.8,2.4,0.3c1.1-0.8,2-0.3,2.9-0.1
				c0.9,0.2,1.8,0.5,2.7,0.5c0.5,0,1.5,0,1.5,0.7c0.1,0.9,0.6,1,1.2,1.1c4.2,1.2,8.5,1.9,12.7,2.8c4,0.9,8.1,1.6,12.1,2.5
				c6.9,1.5,13.8,2.8,20.7,4.6c1,0.2,2,0.6,3,0c0.9-0.5,4,0.5,4.4,1.3c0.4,0.8,1.1,1.1,1.8,1.3c3.2,0.7,6.4,1.5,9.6,2.2
				c3.4,0.8,6.9,1.7,10.3,2.4c2.9,0.5,5.7,1.9,8.8,1.3c2.3-0.4,3-0.9,3.2-3.2c0.2-2.4-0.3-3.4-2.5-4.3c-1.8-0.8-3.8-1-5.7-1.5
				c-4.6-1.2-9.2-2.5-13.8-3.7c-3.6-1-7.3-1.7-11-2.7c-4.8-1.3-9.6-2.6-14.4-3.7c-4.1-0.9-8.1-2.1-12.2-3c-1-0.2-1.2,0-1.1,0.9
				c0.1,0.5-0.3,0.9-0.7,1.1c-0.5,0.2-0.9,0-1.3-0.4c-0.3-0.3-0.4-0.7-0.5-1c-0.2-1-0.9-1.6-1.8-1.8c-3-0.8-6.1-1.6-9.1-2.3
				c-0.9-0.2-1.6-0.3-1.7,1C397,280.5,396.7,280.7,396.7,280.8z M261.7,226.8c-0.1,0.1-0.1,0.2-0.2,0.3c1,1,2,2.1,3,3.1
				c4.8,5,9.7,10,14.5,15c0.9,0.9,1.7,1.7,3.2,1.9c3.2,0.4,6.3,1.2,9.5,1.8c5.7,0.9,11.5,1.8,17.2,2.7c4.1,0.7,8.2,1.4,12.3,2.1
				c1.9,0.3,3.8,0.6,5.6,0.9c0.5,0.1,1-0.1,1.2-0.5c0.2-0.4-0.1-0.8-0.4-1c-2-1.8-3.5-4-5.4-5.8c-3.4-3.1-6.6-6.5-9.7-9.9
				c-0.8-0.8-1.7-1.2-2.8-1.4c-4.3-0.7-8.6-1.5-12.8-2.4c-3.1-0.7-6.2-1.3-9.2-1.9c-2.7-0.5-5.4-1-8.1-1.4c-2.1-0.3-4.1-0.9-6.2-1.2
				c-2.1-0.3-4.2-0.9-6.3-1.3C265.3,227.4,263.5,227,261.7,226.8z M227.1,260.4c0.3,1.4,0.6,2.5,0.8,3.6c0.4,2.4,0.7,4.8,1.1,7.1
				c0.8,4.4,1.6,8.8,2.4,13.2c1,5.5,1.9,11,2.8,16.5c0.4,2.3,0.9,4.5,1.2,6.7c0.3,2.2,1,4.2,2.7,5.8c1.7,1.6,3.4,3.3,4.9,5.1
				c1.3,1.6,2.8,2.9,4.3,4.4c1.2,1.3,2.4,2.5,3.8,3.6c0.8,0.7,1.5,1.4,2.1,2.3c0.2,0.3,0.6,0.6,1,0.5c0.4-0.1,0.3-0.6,0.4-0.9
				c0.1-0.6,0-1.2,0-1.9c0-0.3,0-0.7-0.4-0.5c-0.6,0.3-0.9,0.2-1.3-0.2c-0.4-0.4-0.6-0.9-0.6-1.5c0-0.7,0.3-1.2,1.1-0.9
				c0.7,0.3,0.8,0.1,0.7-0.6c-0.6-4.3-1.5-8.5-2.3-12.8c-1.1-6-2.2-12-3.3-18c-0.6-3.7-1.3-7.5-2.2-11.2c-0.1-0.3-0.1-0.5-0.3-0.7
				c-1-0.8-1.6-1.8-2.4-2.7c-2.6-2.8-5.2-5.6-7.8-8.4c-1.6-1.8-3.4-3.5-4.9-5.3C229.6,262.6,228.6,261.6,227.1,260.4z M341.2,350.8
				c-0.8-0.6-0.2-1,0.2-1.4c0.4-0.4,0.8-0.8,1.2-1.1c0.5-0.5,0.9-0.9,0.8-1.8c-0.2-0.9,0.9-1.8,1.8-1.6c0.6,0.1,1-0.1,1.3-0.5
				c0.5-0.5,1-1,1.5-1.5c1.4-1.4,1.4-1.4,0.1-2.9c-0.7-0.7-1.2-1.6-2.4-0.8c-0.4,0.3-1.1,0.2-1.4-0.5c-0.3-0.6-0.1-1.1,0.4-1.4
				c0.6-0.3,0.3-0.5,0-0.8c-2.1-2.2-4.2-4.4-6.4-6.5c-2.6-2.5-5-5.1-7.5-7.6c-2.4-2.3-4.7-4.8-7-7.2c-0.4-0.4-0.8-0.9-1.5-0.4
				c-3,2.3-5.4,5.2-8.1,7.8c-0.4,0.4-0.2,0.7,0,1.1c1,1.3,2.2,2.4,3.3,3.6c3.7,3.8,7.3,7.6,11,11.4c2.7,2.8,5.5,5.7,8.3,8.5
				c1.1,1.2,2.3,2.3,3.5,3.4C340.6,350.9,340.8,351,341.2,350.8z M266,266.6C266.1,266.6,266.1,266.6,266,266.6
				c-1.3,1.2-2.5,2.4-3.8,3.7c-1,1-1.1,1.2-0.1,2.3c1.8,1.9,3.6,3.8,5.5,5.7c4.9,5,9.7,10.2,14.8,15.1c1,1,1.4,0.8,2.2,0
				c2.4-2.5,5.1-4.6,7.5-7.1c1.1-1.2,1.2-1.2,0.1-2.3c-2.9-3-5.7-5.9-8.6-8.9c-2.1-2.2-4.3-4.4-6.4-6.6c-1.7-1.8-3.6-3.5-5.2-5.6
				c-0.6-0.8-1.3-0.9-2.1-0.1C268.7,264.1,267.4,265.3,266,266.6z M251.7,242.7c-2.2-2.2-5-5.3-8-8.2c-0.6-0.6-1-0.6-1.5-0.1
				c-2.8,2.5-5.6,5-8.1,7.8c-0.5,0.6-0.2,1,0.2,1.4c1.2,1.3,2.4,2.5,3.7,3.8c2.5,2.5,5.1,5,7.5,7.6c2,2.1,4.3,3.8,5.9,6.2
				c0.1,0.2,0.3,0.4,0.6,0.3c1.3-0.1,2.7,0,3.8-0.8c2.7-1.8,4.3-4.3,5.1-7.5c0.2-0.8,0-1.2-0.5-1.8
				C257.7,248.9,255.1,246.2,251.7,242.7z M254.6,264.8c-0.5-0.3-0.9-0.2-1.3-0.1c-3.3,0.8-5.9-0.1-8.2-2.6
				c-3.2-3.4-6.5-6.7-9.8-9.9c-0.7-0.6-1.1-0.7-1.7,0c-1.2,1.2-2.4,2.4-3.7,3.6c-0.8,0.8-1.5,1.5-2.2,2.3c-0.4,0.5-0.5,0.9,0.1,1.4
				c1.1,1.1,2,2.2,3.1,3.3c2.2,2.4,4.5,4.8,6.7,7.1c2.2,2.3,4.3,4.7,6.5,7c0.7,0.7,1.4,1.5,2.1,2.1c1.3,1,1.6,1,2.8-0.2
				c1.3-1.4,2.5-2.8,3.9-4.1c4.2-4.2,8.5-8.3,12.8-12.5c0.6-0.6,1.4-1.2,1.7-2.2c-0.3,0.2-0.6,0.5-0.9,0.7c-3,2.9-6,5.7-8.9,8.7
				c-2.9,3-6,5.7-8.7,8.9c-0.3,0.4-0.8,1.1-1.3,0.6c-0.3-0.3,0.4-0.7,0.7-1.1c0.1-0.1,0.1-0.2,0.2-0.4c-0.9-0.1-1.5-0.4-1.1-1.4
				c0.3-0.7,1.3-1.1,2-0.6c0.6,0.4,1,0.2,1.4-0.2c1.4-1.3,2.8-2.6,4.1-3.9c0.6-0.7,0.6-1.2,0-1.8c-0.6-0.6-1.1-1.2-1.7-1.8
				c-0.5-0.5-0.6-1.1,0.1-1.6C253.6,265.9,254.1,265.4,254.6,264.8z M264,255.6c0.7-0.3,1-0.7,1.3-1.2c1.1-1.8,2-1.8,3.6-0.2
				c0.2,0.2,0.4,0.4,0.6,0.6c0.6,0.8,1.1,0.8,1.9,0.1c2.6-2.3,4.9-4.8,7.5-7.2c0.7-0.7,0.7-1,0.1-1.6c-5.3-5.4-10.5-10.9-15.8-16.4
				c-0.9-0.9-1.8-1.8-2.7-2.6c-0.6-0.5-1.2-0.8-1.9-0.3c-2.3,2-4.5,4.2-6.5,6.4c-0.3,0.4-0.2,0.6,0.1,1c3.9,3.8,7.5,8,11.5,11.7
				c0.4,0.3,0.5,0.8,0.6,1.2C264.7,250,264.7,252.7,264,255.6z M338.5,264c0.9-0.1,1.6,0.3,2.4,0.5c6,1.5,12,3,18,4.5
				c5.5,1.3,10.9,2.5,16.4,3.8c6.2,1.5,12.4,3.1,18.6,4.7c0.5,0.1,0.9-0.1,1.3-0.3c0.6-0.4,1.2-0.9,2-0.6c4.2,1.3,8.5,2.2,12.7,3.2
				c0.7,0.2,1.3,0.5,1.6,1.2c0.2,0.3,0.3,0.8,0.8,0.9c5.3,1,10.5,2.5,15.7,3.8c3.2,0.8,6.3,1.6,9.4,2.4c1.9,0.5,3.7,1,5.6,1.5
				c0.9,0.3,1.2-0.4,1.4-1c0.2-0.5,0-1-0.6-1.2c-4.3-1.2-8.5-2.4-12.8-3.5c-4.7-1.2-9.3-2.3-14-3.4c-2.5-0.6-4.9-1.3-7.3-1.9
				c-3.5-0.9-7-1.6-10.4-2.4c-3.3-0.8-6.6-1.8-9.9-2.5c-4.6-1-9.2-2.3-13.8-3.3c-5.2-1.1-10.3-2.5-15.5-3.8
				c-2.4-0.6-4.8-1.1-7.2-1.7c-4.3-1-8.6-2.1-12.9-3.1c-0.3-0.1-0.6-0.2-0.8,0.2C338.9,262.6,338.7,263.3,338.5,264z M287.2,452.7
				c0.3-0.3,0.3-0.6,0.2-1c-0.5-1.9-0.7-3.9-1.2-5.8c-0.9-3.5-1.7-7.1-2.6-10.6c-1-4.4-2.1-8.8-3.1-13.1c-0.1-0.4-0.2-0.9-0.4-1.1
				c-1.3-0.9-1.5-2.2-1.8-3.5c-0.3-1.4-0.7-2.9-1-4.3c-0.7-2.8-1.3-5.5-2-8.3c-0.1-0.6-0.3-1.4,0.2-1.9c0.8-0.8,0.6-1.6,0.4-2.5
				c-0.8-3.2-1.5-6.5-2.3-9.7c-1.4-5.7-2.7-11.5-3.9-17.2c-0.5-2.1-1-4.2-1.6-6.3c-0.8-3.2-1.5-6.5-2.2-9.8c-0.7-3.3-1.4-6.7-2.2-10
				c-0.5-2.4-0.9-4.9-1.7-7.3c-0.2-0.5-0.3-0.9-1-0.8c-0.8,0.1-1.2,0.4-1,1.3c0.6,2.8,1.2,5.7,1.8,8.5c0.9,4.7,2.3,9.3,3.1,14.1
				c0.3,1.7,1.1,3.2,1.2,4.8c0.1,1.6,0.7,3.2,1.1,4.8c0.9,3.8,1.9,7.5,2.6,11.4c0.6,3.3,1.6,6.5,2.3,9.8c0.9,4.3,2.2,8.5,3.1,12.8
				c0.9,4,1.8,8,2.7,12c0.7,3,1.4,5.9,2,8.9c0.6,2.8,1.3,5.6,1.9,8.4c0.7,2.9,1.3,5.8,2,8.6c0.5,2.5,1,4.9,1.6,7.4
				C285.7,453.1,286.6,453.3,287.2,452.7z M297.8,475.2c-1.6-0.1-3-0.4-4.2-1.3c-0.2-0.1-0.3-0.2-0.5-0.1c-0.2,0.1-0.1,0.3,0,0.4
				c0.4,1.9,0.8,3.7,1.3,5.6c0.4,1.7,1.2,3.4,1.2,5.1c0,4,1.5,7.7,1.9,11.6c0.2,2,2.4,3.6,1.3,5.8c0,0.1,0,0.2,0.1,0.3
				c0.6,1.9,0.8,3.9,1.2,5.8c0.2,1.1,0.8,2.1,1.7,2.8c-0.4-1.8-0.2-3.8-1.5-5.4c-0.1-0.2-0.2-0.6-0.1-0.8c0.6-1.5,0-2.8-0.3-4.2
				c-0.5-3.2-0.2-2.4,2.3-2.8c0.7-0.1,2.1-1,2.3,0.9c-0.1-1.3,0.6-2.1,1.2-3c0.2-0.3,0.4-0.5,0.3-0.9c-0.4-3-1.2-5.9-1.6-8.9
				c-0.4-2.8-1.1-5.5-1.7-8.2c-0.4-1.6-0.4-3.3-1.1-5.1c-0.7,1.2-1.9,1.7-3.1,2.2c2.1,0,2.1,0,2.5,1.8c0.2,1-0.1,1.5-1.2,1.4
				c-0.8-0.1-1.6,0.1-2.3,0.4c-1.8,0.7-2.6,0.2-2.9-1.7c-0.1-0.9,0.2-1.4,1.1-1.3C296.4,475.7,297.1,475.6,297.8,475.2z
				 M516.7,296.9c-0.5-0.5-0.8-0.9-1.2-1.2c-0.3-0.2-0.7-0.4-0.8,0.1c-0.2,1.3-1,2.5-1.1,3.9c-0.3,2.1-0.9,4.2-1.5,6.2
				c-0.1,0.4-0.1,1-0.7,0.8c-0.5-0.1-0.8-0.7-0.7-1.2c0.2-0.5,0.2-1.1,0.2-1.6c0.3-2.9,1-5.7,1.1-8.6c0-0.4-0.1-0.7-0.5-0.8
				c-2-0.5-4-1-6-1.5c-0.5-0.1-0.7,0-0.9,0.6c-0.9,3.3-1.2,6.7-2,9.9c-0.1,0.5,0,0.9,0.6,1c0.9,0.2,1.8,0.4,2.6,0.6
				c2.2,0.7,4.5,1.3,5.8,3.5c0.3,0.6,0.6,0.5,1.1,0.1c1.3-1.2,2.3-0.9,3,0.7c0.2,0.4,0.4,0.6,0.8,0.6c1.2,0.2,2.4,0.4,3.5,0.7
				c0.4,0.1,0.5,0,0.6-0.4c0.4-2.2,0.8-4.3,1.3-6.5c0.2-0.9,0-1.5-0.6-2.1C519.6,300.3,518,298.6,516.7,296.9z M290.3,518.4
				c1.2,1.3,2.5,2.6,3.7,3.8c0.4,0.4,0.9,0.8,1.5,0.8c2.4-0.2,4.7-0.5,7-1c0.5-0.1,0.7-0.3,0.6-0.8c-0.3-1.4-0.2-2.9-0.8-4.2
				c-0.4-0.9-0.6-1.8-0.5-2.7c0.1-0.9-0.2-1.5-0.7-2.1c-0.8-1-1.7-1.8-1.9-3.1c-0.2-1.4-0.6-2.7-0.8-4.1c-0.1-0.7-0.3-0.8-1-0.7
				c-1.5,0.3-3,0.4-4.5,0.6c-1.8,0.3-3.5,0.6-5.3,1c-0.8,0.2-1.2,0.5-0.9,1.5c0.4,1.4,0.7,2.9,0.9,4.4c0.1,1.3,0.6,1.4,1.7,1.2
				c2.4-0.4,4.8-0.7,7.1-1c0.5-0.1,1.1-0.2,1.6,0c0.5,0.2,1,0.4,1,1c0,0.6-0.6,0.7-1,0.8c-2.3,0.5-4.6,1-6.9,1.5
				c-0.8,0.2-2,0.1-2.4,0.9C288.5,517.2,289.7,517.7,290.3,518.4z M245.1,230.5c-0.1-0.1-0.1-0.2-0.2-0.2c-0.4,0.2-0.7,0.4-1.1,0.6
				c-1.2,0.6-1.9,0.4-2.6-0.8c-0.5-1-0.3-1.7,0.8-2.2c0.7-0.3,0.6-0.6,0.2-1c-0.7-0.7-1.4-1.3-2.1-2c-0.4-0.5-0.6-0.4-0.8,0.1
				c-0.3,0.7-0.7,1.2-1.4,1.5c-0.7,0.3-0.4,0.5-0.1,0.8c1.5,1.4,2.7,3.1,4.4,4.3c0.3,0.2,0.5,0.6,0.3,0.9c-0.3,0.4-0.6,0.1-0.9-0.2
				c-1.5-1.6-3-3.1-4.5-4.7c-0.8-0.9-1.6-1.7-2.4-2.4c-0.6-0.5-1-0.4-1.5,0.1c-2.5,2.5-5,5-7.6,7.5c-1,1-1,1.2,0,2.3
				c2.1,2.3,4.3,4.5,6.5,6.7c0.6,0.6,1,0.6,1.6,0c1.6-1.6,3.2-3.1,4.9-4.7C240.7,234.8,242.9,232.7,245.1,230.5z M105.6,112
				c0.1,0.1,0.1,0.1,0.2,0.2c-0.5,0.5-1,1-1.5,1.5c-0.4,0.4-0.4,0.6,0,1.1c1.9,2.4,4.3,4.4,6.1,6.9c0.4,0.6,0.8,0.8,1.5,0.1
				c3.4-3,6.4-6.5,9.6-9.6c0.2-0.2,0.4-0.6,0.6-0.8c0.2-0.3,0.3-0.6-0.1-0.9c-2.2-1.8-4-4-5.8-6.2c-1.1-1.4-1.1-1.4-2.4-0.1
				C111.1,106.7,108.4,109.3,105.6,112z M509.6,308.2c-1.5-0.9-2.9-1.7-4.7-2c-2-0.3-4-0.7-5.9-1.3c-2.2-0.7-4.4-1.5-6.6-2
				c-3-0.8-5.9-1.9-9.1-1.7c-0.3,0-0.6-0.1-0.7-0.3c-0.5-1.1-1.7-1-2.5-1.4c-0.7-0.4-1.2,0-1.5,0.7c-0.9,1.8-1.2,3.6-0.8,5.5
				c0.2,0.9,1.1,1.6,1.2,2.7c0,0.1,0.3,0.1,0.5,0.1c1.1,0.2,2.1,0.4,3.3,0.1c1.6-0.4,3.7,0,5.1,1c2,1.4,4.2,1.5,6.4,2
				c0.9,0.2,2.3-1.1,2.4-1.9c0.2-1.1,0.2-2.2,0.6-3.3c0.3-0.8,0.7-1,1.6-0.8C502.5,306.6,506,307.6,509.6,308.2z M432.6,300.9
				c-1.5,1.4-1.6,3.5-0.4,5.2c1.3,1.8,3.6,2.4,5.3,1.3c0.8-0.5,1.5-0.6,2.4-0.3c5.4,1.7,10.8,3.3,16.2,5c4.2,1.3,8.5,2.6,12.7,3.9
				c0.4,0.1,0.9,0.3,1.2-0.1c0.7-0.9,0.7-1.9,0.6-2.9c-0.1-0.7-0.9-0.9-1.5-1c-3.1-0.9-6.3-1.8-9.4-2.8c-4.3-1.3-8.7-2.7-13-4.1
				c-2.7-0.9-5.6-1.3-8-2.9c-0.4-0.2-0.6,0.1-0.6,0.4c0,0.3,0.1,0.5,0.2,0.8c0.5,1.9-1.1,3.9-3,3.5c-2.4-0.6-3.7-2.8-1.7-4.9
				c0.4-0.4,1-0.9,0.5-1.5C433.5,299.8,433.1,300.6,432.6,300.9z M115.1,121.5c-0.6,0.6-1.3,1.3-1.9,1.8c-0.5,0.4-0.4,0.7,0.1,0.9
				c0.4,0.2,0.8,0.4,1.1,0.6c2.5,1.5,5.2,2.6,7.5,4.4c0.9,0.7,1.4,0.6,2.1-0.2c0.8-0.8,0.5-1.4,0.1-2.2c-0.4-0.8-0.2-1.5,0.4-2
				c0.6-0.6,1.1-0.1,1.7,0.2c0.1,0.1,0.3,0.2,0.4,0.2c0.4,0.2,0.8,0.5,1.2,0.1c0.6-0.7,1.6-1.2,1.9-2.2c0-0.1-0.1-0.2-0.1-0.3
				c-1.3-1.4-1.8-3.3-2.7-5c-0.7-1.4-1.8-2.7-2.2-4.3c-0.4-1.2-0.4-1.2-1.3-0.3C120.5,116,117.9,118.9,115.1,121.5z M304.1,227
				C304,227.1,304,227.1,304.1,227c1.6,1.8,3.3,3.5,5,5.2c1.8,1.9,1.8,1.9,3.9,0.4c0.7-0.5,0.7-0.8,0.2-1.4
				c-1.7-1.8-3.4-3.7-5.1-5.5c-4.9-5.3-9.9-10.5-14.9-15.8c-1.8-1.9-1.8-1.9-3.7,0c-0.6,0.6-0.6,1.1-0.1,1.7c2.9,3.2,6,6.1,8.8,9.4
				C300,223,302.1,225,304.1,227z M301,315c0.7,0.7,1.2,1.2,1.7,1.7c0.2,0.2,0.5,0.5,0.2,0.8c-0.3,0.3-0.6,0-0.8-0.2
				c-0.8-0.8-1.5-1.6-2.3-2.3c-0.4-0.4-0.8-0.6-1.4-0.3c-0.8,0.3-1.5,0.1-2-0.5c-1-1-1.9-2-2.8-2.9c-0.6-0.5-0.7-1-0.2-1.6
				c0.4-0.4,0.3-0.8-0.1-1.1c-0.4-0.3-0.7-0.3-1,0c-0.9,1-2.1,1.7-3,2.8c-0.6,0.7-0.4,1,0.1,1.5c2.6,2.6,5.1,5.3,7.6,8
				c2.4,2.6,5,4.8,7.4,7.3c0.4,0.4,0.9,0.6,1.4,0c0.7-0.8,1.6-1.5,2.3-2.3c0.4-0.4,1.3-0.8,0.8-1.6c-0.4-0.8-1.2-1-2.1-0.7
				c-0.3,0.1-0.7,0.3-1,0c-1.2-1.2-2.7-2.2-3.5-3.7c-0.3-0.6-0.3-1.2,0.3-1.7c0.8-0.7,1.6-1.4,2.4-2c0.3-0.3,0.7-0.6,0.5-1.1
				c-0.2-0.5-0.7-0.2-1-0.3c-0.5-0.1-0.9-0.1-1.1,0.6c-0.1,0.6-0.7,0.5-1.2,0.4C301.8,315.8,301.6,315.3,301,315z M283.6,251.3
				c2.1,2.4,4.1,4.7,6.4,6.8c0.2,0.2,0.5,0.5,0.9,0.4c1.6-0.7,2.8,0,3.8,1.3c0.4,0.6,0.9,1.2,1.3,1.8c0.1,0.2,0.2,0.4,0.2,0.8
				c-0.1,1.4-0.8,2.5-2,3.2c-0.7,0.4-0.7,0.7-0.1,1.2c1.6,1.6,3.2,3.2,4.8,4.9c1.1,1.2,1.4,1.2,2.5,0.2c0.2-0.2,0.3-0.3,0.5-0.5
				c0.6-0.6,1-0.8,1.7-0.1c1.1,1.1,1.2,1,2.4-0.1c0.1-0.1,0.2-0.2,0.3-0.2c1-0.8,1.1-1,0-1.9c-2.1-1.7-3.7-3.9-5.7-5.8
				c-0.2-0.2-0.4-0.6-0.6-0.9c-0.1-0.2-0.1-0.5,0.1-0.6c0.2-0.1,0.4-0.1,0.5,0.1c0.8,1.1,1.4,0.5,2.1-0.2c0.5-0.5,1.1-1,1.6-1.5
				c0.2-0.2,0.5-0.4,0.4-0.8c-0.1-0.3-0.5-0.2-0.7-0.3c-1.6-0.5-2.6,0.6-3.4,1.7c-0.8,0.9-1.6,0.9-2.5,0.5c-0.7-0.3-1.4-0.6-1.9-1.1
				c-1.7-1.7-3.6-3.3-5.1-5.2C289.2,252.4,286.8,251.2,283.6,251.3z M439.9,301.8c0.1,0,0.2,0.2,0.4,0.2c1.5,0.4,2.8,1,4.3,1.4
				c3.8,1.1,7.6,2.1,11.4,3.4c4.6,1.6,9.3,2.9,14,4.3c2.4,0.7,3.1,0.2,3.3-2.4c0-0.1,0-0.2,0-0.3c0-0.4-0.1-0.6-0.5-0.7
				c-2.1-0.5-4.1-1.4-6.2-2c-4.4-1.2-8.8-2-13.2-3.2c-4.2-1.1-8.6-1.9-12.9-2.7c-0.5-0.1-1-0.5-1.4,0.1c-0.3,0.5,0.2,0.8,0.4,1.3
				C439.6,301.4,439.7,301.6,439.9,301.8z M305.5,259.9c0.4,0.6,0.8,0.5,1.1,0.5c1.3,0.2,2.5,0.5,3.1,1.8c0.4,0.8,0.6,1.5,0,2.3
				c-0.6,0.8-1.4,1.1-2.4,0.8c-1-0.3-1.9-0.6-2.9-0.9c-0.6-0.2-1.1-0.5-1.4-1.1c-0.1-0.2-0.3-0.5-0.6-0.3c-0.4,0.2-0.1,0.5,0,0.8
				c0.4,0.9,1.4,1,2.1,1.4c1,0.6,2,1.3,3.2,1.7c1.1,0.4,1.9,1,1.6,2.4c-0.1,0.6,0.2,1.4,1.1,0.9c0.8-0.4,1.4-0.3,2.1,0
				c0.7,0.2,1.4,0.3,2,0.4c1,0.2,1.7-0.1,2-1c0.3-0.8,0.8-1.4,1.1-2.2c0.8-2.2,1.5-4.3,0.7-6.7c-0.2-0.7-0.4-1-1.1-1.2
				c-1.1-0.3-2.4,0.2-3.4-0.7c-0.1-0.1-0.3-0.1-0.4,0c-1.3,1.2-2.3,0.3-3.2-0.5c-0.5-0.5-0.9-0.3-1.4,0
				C307.7,259.1,307,260.3,305.5,259.9z M225.7,307.5c1.3,1.4,2.6,2.7,4,4.1c0.5,0.5,0.9,1.1,1.7,0.4c1.3-1.2,1.4-1.4,0.6-2.3
				c-0.8-1-1.7-1.9-2.5-2.9c-3.1-3.3-6-6.8-9.3-10c-2-2-3.8-4.1-5.7-6.1c-0.9-0.9-1.9-1.9-2.7-2.8c-0.3-0.3-0.7-0.9-1.3-0.4
				c-0.5,0.5-1.1,1-1.6,1.5c-0.3,0.3-0.1,0.6,0.1,0.8c0.9,1,1.9,2.1,2.8,3.1c2.4,2.6,5,4.9,7.3,7.5
				C221.3,302.8,223.6,305.1,225.7,307.5z M336.6,351.3c0.3,0.2,0.6,0.3,0.9,0.5c0.2,0.2,0.4,0.4,0.6,0.6c0.8,0.9,1,0.9,1.7-0.1
				c0.5-0.7,0-1-0.4-1.4c-2.7-2.9-5.6-5.7-8.4-8.5c-3-2.9-5.7-6-8.6-9c-2.8-2.8-5.6-5.7-8.2-8.7c-0.4-0.4-0.8-1.1-1.5-0.3
				c-0.5,0.6-1.3,1-0.3,2c3.4,3.5,6.9,7,10.3,10.4c4,4,7.9,8.1,11.8,12.1c0.2,0.2,0.6,0.5,0.3,0.8c-0.3,0.3-0.6-0.1-0.8-0.3
				c-1-1-2.1-2-3.1-3c-0.3-0.3-0.7-0.7-1.1-0.2c-0.4,0.4,0.1,0.7,0.3,1c1.3,1.3,2.6,2.7,3.9,4c0.2,0.2,0.6,0.5,0.6,0.4
				c0.9-0.7,1.3,0,1.7,0.6C336.8,351.9,336.4,351.6,336.6,351.3z M301.1,296.8c0.5,1.6,1.6,2.8,2.4,4.2c2.1,3.7,4.5,7.1,6.7,10.6
				c0.3,0.5,0.6,0.8,1.2,0.5c0.7-0.3,1.3-0.1,1.8,0.5c0.7,0.7,1.4,1.5,1.6,2.5c0.2,1,0.6,0.7,1.1,0.3c1-1,2-1.9,3-2.9
				c0.5-0.5,0.6-0.8,0-1.3c-3.2-3.1-6.3-6.3-9.5-9.5c-0.3-0.3-0.7-0.5-1.1-0.4c-1.7,0.7-3-0.1-4.1-1.3
				C303.2,298.9,302.1,297.9,301.1,296.8z M310.1,298.9c1.1-1,1.1-1,0.1-2.1c-0.9-1-1.7-2-2.7-2.9c-2.6-2.5-5.2-5-7.5-7.8
				c-0.6-0.8-1.2-0.8-1.9-0.1c-0.9,0.9-1.7,1.8-2.8,2.5c-0.5,0.4-0.5,0.7-0.1,1.2c0.9,1,1.8,2.1,2.8,3.1c0.9,0.9,1.7,1.9,3.2,1.1
				c0.3-0.2,0.8,0,1,0.4c0.2,0.4,0.5,0.8,0.1,1.2c-0.9,0.8-0.1,1.3,0.3,1.7c0.4,0.4,0.7,0.8,1.1,1.2c2.3,2.4,3.2,3,5.6,1.3
				C309.7,299.5,309.9,299.2,310.1,298.9z M292.9,271c-0.1,1.8-1,3.1-2.3,4.1c-0.3,0.3-0.3,0.4,0,0.7c2.4,2.9,5.4,5.2,7.9,8
				c0.4,0.4,0.9,0.5,1.3,0.1c1.4-1.3,2.8-2.5,4.2-3.8c0.4-0.4,0.8-1,0.2-1.5c-2.4-2.3-4.3-5.1-6.9-7.2c-0.7-0.6-1-0.5-1.5,0.2
				c-0.4,0.6-0.3,0.9,0.2,1.4c2.2,2.2,4.3,4.5,6.5,6.7c0.2,0.2,0.5,0.4,0.2,0.6c-0.2,0.2-0.4,0-0.6-0.2c-0.9-0.9-1.9-1.8-2.8-2.8
				C297.3,275.1,295,273.2,292.9,271z M283,273.1C283,273.1,282.9,273.1,283,273.1c1.3,1.5,2.7,2.9,4.1,4.3c2.1,2.1,4.1,4.4,6.4,6.3
				c0.8,0.6,1.2,0.4,1.8-0.2c0.5-0.6,0.7-1.2,0-1.8c-0.9-0.9-1.9-1.8-2.8-2.8c-2-2.1-4.2-4.1-6.2-6.3c-2.9-3.3-6-6.4-9-9.5
				c-1-1-1.8-2.3-2.9-3.2c-0.4-0.4-0.8-0.5-1.2-0.1c-0.4,0.4-0.7,0.7-1.1,1.1c-0.2,0.2-0.4,0.6,0,0.8c0.7,0.4,1,1.2,1.5,1.7
				C276.7,266.6,279.8,269.9,283,273.1z M271.7,283.5C271.7,283.5,271.7,283.5,271.7,283.5c-3.4-3.5-6.9-7.1-10.3-10.7
				c-0.7-0.7-1.1-0.6-1.7,0c-0.6,0.6-1,1.1-0.2,1.8c0.8,0.7,1.4,1.7,2.1,2.5c3.1,3.3,6.3,6.5,9.4,9.8c1.5,1.5,3.1,2.9,4.4,4.5
				c1.5,1.8,3.3,3.2,4.9,4.8c0.2,0.2,0.4,0.4,0.7,0.3c0.6-0.3,1.1-0.8,1.4-1.4c0.3-0.6-0.3-0.9-0.6-1.2
				C278.4,290.4,275,287,271.7,283.5z M329.9,317.6c-1.8-1.8-3-3.1-4.2-4.4c-0.6-0.7-1.1-0.5-1.7,0c-0.7,0.6-0.1,1,0.2,1.3
				c2.3,2.5,4.7,5,7.1,7.5c6.2,6.3,12.4,12.5,18.5,18.7c0.5,0.5,1,0.9,1.7,0.3c0.6-0.6,0.6-1.2-0.1-1.8c-2.1-2-4.1-4-6.1-6
				C340,327.7,334.9,322.2,329.9,317.6z M275.3,305.8c1.8,1.8,3.6,3.6,4.1,6.3c0.5,2.7,1.6,5.4,2.4,8c0.5,1.6,1.1,3.1,2.2,4.3
				c2.7,3.1,5.7,6.1,8.5,9.1c3.6,3.8,7.3,7.5,11.1,11.2c1.1,1.1,2.4,2.2,3.5,3.4c0.4,0.4,1,0.7,1.5,0.3c0.5-0.5-0.2-0.9-0.5-1.2
				c-3.4-3.4-6.6-6.9-10.1-10.2c-4.7-4.6-9.1-9.4-13.7-14.1c-0.3-0.3-0.6-0.8-0.7-1.2c-0.8-2.5-1.5-5-2.2-7.5
				c-0.8-2.6-1.3-5.2-3.5-7.1c-0.7-0.6-1.2-1.3-1.8-2c-1-1.2-2-2.4-3.3-3.3c-0.2-0.2-0.5-0.7-0.9-0.3c-0.3,0.3,0.1,0.7,0.3,0.9
				C273.2,303.6,274.2,304.7,275.3,305.8z M252.2,242.1C252.2,242.1,252.2,242.1,252.2,242.1c2.4,2.4,4.8,4.9,7.2,7.4
				c0.5,0.5,1,1.4,1.4,1.2c0.6-0.3,0.4-1.3,0.5-2c0.1-1.1,0.4-2.3-0.7-3.1c-1.4-1.1-2.6-2.5-3.8-3.8c-3.2-3.3-6.3-6.5-9.5-9.8
				c-1-1-1.4-0.9-2.8,0.3c-1,0.9-0.3,1.4,0.3,2C247.2,236.9,249.7,239.5,252.2,242.1z M211,310.2C211,310.1,211,310.1,211,310.2
				c-1.2-1.2-2.4-2.5-3.5-3.7c-0.5-0.5-0.7-0.5-1.2,0.1c-0.8,1.1-1.7,2.1-2.6,3.1c-0.4,0.4-0.4,0.8,0,1.2c1.9,2.1,3.9,4.2,5.8,6.3
				c0.7,0.7,1.3,0.7,2,0.1c0.9-0.7,1.7-1.5,2.6-2.1c1-0.6,0.8-1.1,0.1-1.8C213,312.4,212,311.2,211,310.2z M311.3,211.3
				C311.3,211.3,311.3,211.3,311.3,211.3c1.1,1.3,2.2,2.4,3.3,3.6c0.5,0.6,0.8,0.5,1.2-0.1c0.7-1.2,1.5-2.4,2.3-3.5
				c0.5-0.6,0.5-1.1,0-1.6c-1.8-1.9-3.6-3.7-5.3-5.7c-0.3-0.4-0.5-0.3-1,0c-1.4,1-2.7,2.1-4.2,2.8c-0.6,0.3-0.4,0.5-0.1,0.8
				C308.9,208.8,310.1,210,311.3,211.3z M228.9,276.1c0.1-2-0.6-3.7-0.8-5.4c-0.1-0.8-0.1-1.6-0.6-2.2c-2.1-2.5-4.3-4.9-6.6-7.2
				c-0.4-0.4-0.8-0.6-1.2-0.3c-0.8,0.7-1.6,1.6-2.4,2.4c-0.1,0.1-0.1,0.3,0,0.3c0.6,0.3,0.7,1,1.1,1.4c2.6,2.4,4.8,5.2,7.2,7.6
				C226.7,273.7,227.7,274.8,228.9,276.1z M236.7,247c0,0-0.1,0.1-0.1,0.1c-1-1-2-2.1-3-3.1c-0.5-0.5-0.9-0.6-1.4,0
				c-0.4,0.5-1.3,0.9-0.4,1.7c0.7,0.7,1.4,1.5,2.1,2.2c3.6,3.8,7.2,7.5,10.7,11.3c0.6,0.7,1.1,1.7,2,1.8c1,0.2,1.9,0.2,2.9,0.5
				c0.2,0.1,0.5,0.2,0.6-0.1c0.1-0.3-0.1-0.4-0.3-0.6c-1.5-1.7-3-3.3-4.6-5C242.4,252.9,239.6,250,236.7,247z M291.5,265.3
				c0.1-0.1,0.2-0.2,0.3-0.3c-3.6-3.7-7.1-7.4-10.7-11c-0.1-0.1-0.2-0.2-0.3-0.3c-0.4-0.4-0.8-0.4-1.2,0c-1.5,1.5-3.1,3-4.6,4.5
				c-0.4,0.4-0.4,0.7,0,1.1c1.1,1.1,1.9,2.4,3.1,3.5c0.6,0.5,0.9,0.6,1.4,0.1c1-0.9,2.1-1.7,3.7-2c-1.5-1.6-2.9-3-4.2-4.4
				c-0.2-0.2-0.6-0.5-0.3-0.9c0.4-0.4,0.6,0,0.8,0.3c1.8,2,3.8,3.8,5.5,6c0.3,0.3,0.5,0.7,0.9,0c0.7-1.3,1-1.3,2-0.2
				C289.1,262.8,290.3,264,291.5,265.3z M285.7,298.3c-1.6,1.3-1.6,1.3-0.4,2.5c0.8,0.8,1.5,1.7,2.4,2.6c0.7,0.7,1.3,1.8,2.6,0.9
				c0.3-0.2,0.7,0,0.9,0.3c0.4,0.4,0.9,0.8,1.2,1.4c0.2,0.3,0.3,1,0.8,0.7c0.4-0.2,0.6-0.8,0.5-1.3c-0.1-0.3-0.3-0.6-0.5-0.9
				c-0.4-0.6-0.3-1.2,0.4-1.4c1-0.3,0.9-0.9,0.5-1.6c-0.1-0.3-0.3-0.5-0.5-0.8c-1.2-1.7-2.9-3-4.2-4.6c-0.5-0.6-1-0.6-1.6,0
				C287.1,296.8,286.2,297.7,285.7,298.3z M268.5,291.8c0.4,1.1,1.3,1.6,1.9,2.2c2.7,3.2,6,5.8,8.9,8.9c0.5,0.6,1,0.3,1.4-0.1
				c0.6-0.5-0.1-0.7-0.4-1c-1-1-1.1-2.4-0.3-3.5c0.4-0.5,0.3-0.8-0.1-1.2c-1.7-1.8-3.4-3.5-5.2-5.3c-0.5-0.5-0.9-0.6-1.6-0.1
				c-2,1.6-2,1.5-4.1,0.2C268.9,291.9,268.8,291.8,268.5,291.8z M319.2,268.1c0.1,0,0.3,0.1,0.5,0.2c3.4,0.8,6.9,1.5,10.3,2.3
				c0.3,0.1,0.6,0.1,0.9-0.1c0.4-0.3,1.1-3.1,0.9-3.5c-0.1-0.3-0.4-0.4-0.6-0.5c-3.5-0.8-7-1.6-10.6-2.4c-0.4-0.1-0.6,0.1-0.8,0.5
				c-0.3,0.9-0.3,2-0.9,2.9C318.9,267.6,318.9,267.9,319.2,268.1z M515.1,320c0.1,0.1,3.1,0.5,3.2,0.4c0.1-0.1,0.3-0.3,0.3-0.5
				c0.2-1,0.4-2,0.6-3c0.1-0.3,0.1-0.9-0.3-0.9c-1.6-0.1-3-2-4.8-0.5c-0.1,0.1-0.5,0.1-0.7,0c-0.9-0.1-1.4-0.8-1.6-1.6
				c-0.2-0.7-0.4-0.8-0.9-0.2c-0.8,0.9-1.8,1.2-3,1.3c-1.3,0.1-2.5-0.2-3.8-0.5c-3.1-0.8-3.1-0.8-3.8,2.2c-0.1,0.2-0.1,0.5-0.1,0.7
				c-0.1,0.8,0.7,1.5,1.5,1.2c0.6-0.3,0.5-0.9,0.6-1.4c0.2-1,0.6-1.2,1.6-1c2.9,0.5,5.9,0.7,8.8,0.7c2.2,0,2.5,0.2,2.2,2.3
				C515,319.5,514.8,319.7,515.1,320z M324.2,311.4c0-0.6-0.4-0.8-0.7-1.1c-2.1-2.1-4.3-4.2-6.4-6.4c-1.6-1.6-3.1-3.2-4.6-4.7
				c-0.2-0.2-0.4-0.6-0.9-0.4c-1.6,0.6-2,2.1-0.8,3.3c3,3.1,6.1,6.1,9.3,8.9c0.4,0.3,0.8,0.5,1.3,0.5
				C322.3,311.4,323.3,311.4,324.2,311.4z M290.3,252.5c0.6,1.1,1.5,2,2.4,2.9c1.8,1.7,3.2,3.7,5.4,4.8c0.7,0.3,1.3,0.4,1.9-0.3
				c0.6-0.6,1.2-1.1,1.8-1.7c1.8-1.6,1.8-2.3,0-3.8c-0.3-0.3-0.7-0.4-1.2-0.5c-1.1-0.2-2.2-0.3-3.2-0.5c-1.3-0.4-2.5-0.3-3.6,0.7
				c-0.8,0.8-1.5,0.4-2-0.4C291.5,253.2,291,252.7,290.3,252.5z M306,312.3c-1.3-2.1-2.6-4.2-3.9-6.4c-1.8-2.8-3.5-5.7-5.3-8.5
				c-0.6-0.9-1.6-0.9-2.7-0.1c-1,0.8-1.1,1.1-0.2,2.1c0.9,1,1.7,2.1,1.4,3.6c-0.1,0.3,0.1,0.4,0.3,0.6c0.6,0.8,1.2,1.7,1.9,2.5
				c0.4,0.5,0.8,0.8,1.4,0.3c0.8-0.7,1.6-0.5,2.2,0.2c0.9,0.9,1.8,1.8,2.7,2.8c0.2,0.2,0.6,0.6,0.5,0.9
				C304,311.8,305.2,311.9,306,312.3z M295.9,287.2C295.8,287.2,295.8,287.1,295.9,287.2c0.3-0.4,0.7-0.8,1-1.1
				c0.6-0.5,0.6-1,0.1-1.5c-0.4-0.4-0.9-0.8-1.6-0.2c-1.4,1.3-2.8,2.5-4.2,3.8c-2.2,2.1-4.4,4.2-6.6,6.3c-0.6,0.6-1.3,1-1.9,1.7
				c-0.9,1.2,0.4,1.4,0.7,1.9c0.4,0.7,0.8,0.2,1.2-0.2C288.4,294.4,292.1,290.8,295.9,287.2z M266.6,320.3c-0.6-0.5-1.2-0.1-1.8-0.1
				c-1.3-0.1-1.9,0.7-1.6,2c0.6,2.8,1.2,5.7,1.8,8.5c0.5,2.7,0.2,2.1,2.7,1.7c1.1-0.2,1.3-0.8,1.1-1.8c-0.6-3-1.1-6-1.7-9
				C266.9,321.1,266.7,320.7,266.6,320.3z M308.2,513.5c0.5,0.6,1.2,1.3,0.6,2.2c-0.4,0.6-0.3,1-0.3,1.5c0.1,0.6,0.4,1.2,0.4,1.8
				c0.1,1.6,0.4,1.8,2,1.5c0.2,0,0.5-0.1,0.7-0.1c1.1-0.1,2.4,0,1.7-1.8c-0.1-0.2,0.2-0.6,0.2-0.9c0-0.7,0-1.3-1-1.3
				c-0.8,0-1.5-0.5-1.6-1.4c-0.2-1.1-0.3-2.2-0.4-3.3c-0.2-2.2-0.4-4.5-0.6-6.7c-0.1-0.8-0.1-1.4,0.5-2c0.2-0.2,0.4-0.5,0-0.8
				c-0.6-0.4-1.3-0.4-1.9-0.1c-0.5,0.3-0.5,0.8-0.4,1.3c0.3,1.4,0.7,2.9,1,4.3c0.3,1.6,0.4,3.2-1,4.4
				C307.5,512.6,307.6,513,308.2,513.5z M299.3,299.6c0,0.3,0.1,0.5,0.3,0.7c1.5,2.1,2.6,4.4,4.1,6.5c1.6,2.4,3.1,4.9,4.6,7.3
				c0.6,0.9,1,0.9,1.8,0.5c1-0.5,0.3-1,0.1-1.5c-0.1-0.5-0.5-0.9-0.7-1.3c-2.1-3.4-4.3-6.8-6.4-10.3c-0.6-1-1.3-1.9-2.1-3
				C300.4,299.8,300.4,299.8,299.3,299.6z M246.4,262.3c1.2,1,2.4,1.8,4.1,1.7c2.2-0.1,4.8,0.2,6.4-1.5c1.3-1.3,3.2-2.2,3.8-4.1
				c0.1-0.3,0.4-0.4,0.7-0.4c1.2-0.3,1.5-1.2,1.8-2.2c0.4-1.7,0.6-3.5,0.6-5.3c0-2.1-0.2-4.1-2.5-5.3c1.4,1.1,0.9,2.5,0.9,3.7
				c0.1,4-1,7.6-3.5,10.7c-1.1,1.3-2.4,2.3-4.1,2.7c-2.2,0.4-4.4,0.6-6.6-0.1C247.5,262,247,262,246.4,262.3z M262.2,285.6
				c0.3-0.6-0.1-0.9-0.3-1.1c-1.2-1.2-1.1-2.5,0.2-3.6c0.2-0.2,0.4-0.4,0.7-0.2c0.3,0.2,0.1,0.5-0.1,0.7c-0.3,0.5-0.6,0.9-0.8,1.4
				c-0.2,0.4,0.1,0.7,0.4,0.9c0.2,0.1,0.3,0.1,0.5-0.1c0.5-0.5,0.8-3.3,0.3-3.8c-1.4-1.5-2.8-3-4.2-4.5c-0.4-0.5-0.8-0.5-1.3-0.1
				c-0.8,0.6-1.4,1.5-2.1,2.1c-0.5,0.4-0.5,0.8,0,1.2c1.6,1.7,3.2,3.4,4.8,5.1C260.8,284.2,261.5,284.9,262.2,285.6z M275.5,228.6
				c0.1-0.1,0.1-0.1,0.2-0.2c-2.8-2.4-4.9-5.5-7.6-8c-0.5-0.5-1-0.4-1.3,0.2c-0.5,0.8-0.9,1.7-2.1,1.8c-0.5,0.1-0.4,0.5-0.1,0.8
				c1.2,1.3,2.4,2.6,3.6,3.8c0.1,0.1,0.4,0.2,0.6,0.2C271,227.7,273.3,228.2,275.5,228.6z M309.9,527.8c-0.8,0.1-1.4-0.5-2.1-0.4
				c-0.4,0-1-0.1-0.8,0.6c0.8,3.2,1.5,6.3,2.2,9.5c0.6,2.6,1.2,5.1,1.8,7.7c0.2,0.9,0.9,0.9,1.5,0.9c0.8-0.1,0.2-0.7,0.3-1
				c0-0.3,0-0.5-0.1-0.8c-1.1-4.8-2.3-9.7-3.4-14.5C309.2,529.1,309,528.3,309.9,527.8z M227.4,296.5c0.2,0.8,0.7,1,1,1.4
				c1.3,1.9,2.9,3.5,4.5,5.2c0.2,0.2,0.4,0.6,0.8,0.4c0.3-0.2,0.1-0.5,0-0.8c-0.2-1.2-0.5-2.4-0.7-3.6c-0.5-3.8-1.6-7.5-1.9-11.3
				c0-0.2-0.1-0.4-0.4-0.4c-0.1,0.5-0.2,1-0.3,1.6c-0.1,0.6-0.2,1.2-0.4,1.7c-0.3,0.7-0.2,1.2,0.5,1.7c1,0.8,0.8,1.9-0.4,2.3
				c-0.8,0.2-1.2,0.7-1.3,1.4C228.6,296.7,228.3,297,227.4,296.5z M313.6,331.5c-0.3-0.3-0.6-0.7-1-1c-0.2-0.2-0.4-0.4-0.7-0.2
				c-0.3,0.2-0.1,0.5,0.1,0.7c0.6,0.7,1.1,1.4,1.8,2c3.6,3.3,6.8,7,10.4,10.4c2.7,2.6,5.3,5.4,7.9,8c0.8,0.8,1.6,1.7,2.5,2.4
				c0.2,0.2,0.6,0.4,0.8,0.1c0.3-0.3,0-0.6-0.3-0.8c-1-0.7-1.8-1.6-2.6-2.5C326.2,344.3,320.1,337.7,313.6,331.5z M258.3,218.5
				c1.7-1.7,3.4-3.3,5.1-5c0.3-0.3,0.9-0.5,0.5-1c-0.4-0.4-0.8,0.1-1.1,0.4c-1.7,1.6-3.6,3-5.2,4.7c-1,1-2,1.9-3.1,2.9
				c-2.9,2.5-5.7,5-8.4,7.7c-0.3,0.3-0.8,0.6-0.2,1c0.4,0.3,1,0.5,1.3-0.1c0.4-0.9,2.2-0.7,1.8-2.2c0,0,0-0.1,0.1-0.1
				c0.9-0.2,1.3-1,1.9-1.6C253.5,223.1,255.9,220.7,258.3,218.5z M485.8,298.6c-0.8,0.7-0.7,1.4,0.7,1.9c0.3,0.1,0.5,0.2,0.8,0.2
				c3,0.6,5.9,1.8,9,2.2c0.5,0.1,1.2,0.7,1.5,0c0.3-0.7-0.2-1.4-0.6-1.9c-0.2-0.2-0.6-0.3-0.9-0.4c-3-0.8-5.9-1.6-8.9-2.4
				C486.9,298.1,486.4,298,485.8,298.6z M481.7,319.8c1.4-1.2,0.9-3.8-0.9-4.4c-0.7-0.2-1.3-0.4-2-0.6c-3.1-1-2.4-1.4-3.6,2.1
				c0,0.1,0,0.2,0,0.2c-0.2,0.6,0,0.8,0.5,1.1c1.7,0.9,3.6,1.1,5.4,1.7C481.3,319.9,481.5,320,481.7,319.8z M488.3,315
				c0-0.3,0-0.5,0-0.7c0-0.7,0-1.5,0.1-2.2c0.1-1-0.3-1.5-1.1-1.9c-1-0.5-2.2-0.5-3.3-0.8c-0.9-0.2-1.3,0.2-1.2,1
				c0.1,0.9,0,1.8-0.2,2.7c-0.1,0.8,0.1,1.5,1.1,1.7c1.3,0.2,2.5,0.2,3.8,0.4C487.8,315.2,488,315.1,488.3,315z M528,316.2
				c0.4,0.4,1,0.3,1.4,0.4c4.4,1.6,9,2.5,13.5,3.7c0.4,0.1,0.8,0.1,1.2,0.1c0.4,0,0.8-0.2,0.9-0.6c0.1-0.4-0.3-0.6-0.6-0.7
				c-0.8-0.3-1.5-0.6-2.3-0.8c-3.7-0.7-7.2-1.9-10.8-2.8c-0.8-0.2-1.6-0.3-2.4-0.5c-0.4-0.1-0.8,0.1-1,0.5
				C527.7,315.8,527.9,316,528,316.2z M288.4,230.9c3.1,1,13.4,3,14.3,2.7c-1.3-1.3-2.5-2.5-3.7-3.8c-0.8-0.9-1.8-0.6-2.7-0.4
				c-0.3,0.1-0.5,0.2-0.4,0.6c0.3,0.9-0.3,1-0.9,1.2c-0.6,0.2-1.1-0.1-1.3-0.7c-0.2-0.5-0.5-0.5-0.9-0.4
				C291.5,230.3,290.1,230.6,288.4,230.9z M304.6,321.1c0.1,0.1,0.2,0.2,0.3,0.3c1.2,1.3,2.9,1.4,4.3,0.4c0.8-0.6,0.9-2.3,0-3.6
				c-0.3-0.6-0.4-1.2-1.3-1.4c-1.3-0.3-2.2,0-3.2,0.8C302.9,319.3,302.8,319.3,304.6,321.1z M261.9,306.3c-0.3-0.3-0.5-0.6-0.8-0.8
				c-2-2-1.5-2.1-3.7,0.1c-0.5,0.5-0.5,0.9,0,1.4c0.9,0.9,1.8,1.9,2.8,2.8c1.8,1.8,1.8,1.8,3.6,0c0.6-0.6,0.5-1,0-1.6
				C263.1,307.6,262.5,307,261.9,306.3z M294.3,486c-0.2-0.2-0.4-0.2-0.6-0.1c-0.8,0.4-1.1,1-1,1.9c0.2,2.5,1,5,1.6,7.4
				c0.2,0.9,0.4,1.7,0.7,2.6c0.2,0.6,0.7,1,1.3,0.8c0.7-0.2,0.5-0.7,0.4-1.2c-0.3-2.9-1.1-5.8-1.7-8.7
				C294.8,487.8,294.8,486.8,294.3,486z M266.2,300.9c-0.2,0.2-0.3,0.4-0.5,0.5c-1,0.6-0.9,1.1-0.1,1.8c0.8,0.8,1.8,1.4,2.5,2.4
				c0.4,0.6,1.1,0.7,1.7,0c0.5-0.6,1-1.1,1.5-1.6c0.4-0.4,0.4-0.7,0.1-1.1c-0.5-1-1.4-1.6-2.2-2.2c-1.4-1.3-1.4-1.3-2.8,0
				C266.4,300.8,266.3,300.9,266.2,300.9z M267.3,313.1c-0.4,0.5-0.9,0.8-1.3,1.2c-2,1.8-2,1.8-3.8,0c-0.3-0.3-0.6-1-1.2-0.3
				c-0.4,0.5-1,1-0.2,1.8c0.7,0.7,1.3,1.4,1.9,2.2c0.4,0.5,1,1.4,1.7,0.1c0.1-0.2,0.5-0.3,0.8-0.4c1.2-0.5,2.3-1.2,3.3-2.1
				c0.5-0.4,1-1,0.9-1.7c-0.1-0.6-0.3-1.4-0.9-1.7C268,312,267.9,312.9,267.3,313.1z M291.5,263.3c0.5,0.4,0.7,0.7,1,0.9
				c0.7,0.6,1.4,0.6,2-0.2c0.7-0.8,0-1.2-0.4-1.7c-0.5-0.5-1.1-0.9-1.8-1c-0.5-0.1-0.8-0.3-1.1-0.6c-1.1-1.2-2.3-2.4-3.4-3.6
				c-1.7-1.9-3.4-3.7-5.3-5.4c-0.2-0.2-0.5-0.5-0.8-0.2c-0.3,0.3,0,0.6,0.2,0.8c0.7,0.8,1.3,1.5,2,2.3c2.1,2.2,4.1,4.4,6.2,6.5
				C290.9,261.9,290.9,262.9,291.5,263.3z M484,296.5c-0.6,0.5-0.8,1.1-0.9,1.8c-0.1,0.4-0.3,1.1,0.2,1.3c0.6,0.2,0.6-0.5,0.8-0.9
				c0.7-1.6,1.3-2,3-1.5c3.4,0.9,6.8,1.8,10.2,2.7c0.9,0.2,1.5,0.7,1.3,1.8c-0.1,0.5,0,1,0,1.5c0,0.3,0.2,0.5,0.5,0.6
				c0.2,0.1,0.3-0.1,0.4-0.2c1.1-1.3,0.6-3.6-0.9-4.1c-2-0.7-4-1.3-6-1.9c-2.3-0.6-4.7-1.2-7-1.8C485,295.8,484.4,296,484,296.5z
				 M273.6,301.3C273.7,301.3,273.7,301.3,273.6,301.3c1.2,1.1,2.4,2.3,3.5,3.4c0.6,0.6,1.1,0.3,1.5-0.1c0.5-0.5,0.3-0.9-0.1-1.3
				c-0.7-0.7-1.3-1.4-2-2.1c-1.6-1.6-3.3-3.2-4.9-4.8c-0.4-0.4-0.7-0.5-1,0.1c-0.2,0.4-1,0.7-0.3,1.3
				C271.5,299,272.5,300.2,273.6,301.3z M275.1,200.9c1.9-1.8,1.9-1.8,0.3-3.7c0-0.1-0.1-0.1-0.1-0.2c-0.4-0.6-0.8-0.5-1.3-0.1
				c-1.2,1-2.2,2.2-3.5,3.1c-0.4,0.3-0.5,0.7-0.1,1c0.6,0.4,0.9,0.9,1.4,1.4c0.4,0.5,1,0.6,1.5,0.1
				C273.9,201.9,274.5,201.4,275.1,200.9z M111.7,105.2C111.7,105.2,111.7,105.1,111.7,105.2c0.8-1,1.7-1.9,2.7-2.8
				c0.2-0.1,0.5-0.2,0.4-0.5c-0.1-0.3-0.5-0.2-0.7-0.1c-0.9,0.3-1.8,0.8-2.5,1.5c-2.8,2.9-5.7,5.7-8.5,8.6c-0.5,0.5-0.7,1-0.9,1.6
				c-0.1,0.2,0,0.5,0.2,0.6c0.2,0.1,0.3-0.1,0.5-0.2C105.8,110.9,108.8,108.1,111.7,105.2z M256.9,288.6c-0.1,0.1-0.2,0.1-0.2,0.2
				c0.9,0.9,1.8,1.8,2.7,2.8c0.9,1,1.8,2.1,2.8,3.1c0.3,0.4,0.7,0.7,1,0.1c0.4-0.8,0-2.1-0.8-2.4c-1.7-0.5-2.6-1.9-3.6-3.1
				c-2.2-2.5-4.6-4.8-6.9-7.3c-0.2-0.2-0.5-0.6-0.9-0.3c-0.3,0.4,0.1,0.6,0.3,0.9C253.1,284.6,255,286.6,256.9,288.6z M287.6,403
				c-0.1-1,0.4-1.6,1.3-2c0.7-0.4,1.1-0.9,0.7-1.8c-0.3-0.7-0.3-1.7-1.5-1.2c-0.4,0.2-0.7-0.2-0.9-0.6c-0.2-0.5,0-1,0.4-1.1
				c1.4-0.4,1.2-1.2,1-2.3c-0.4-1.8-0.3-1.8-2.3-1.6c-0.5,0.1-0.7,0.1-0.6,0.7C286.3,396.4,287.1,399.7,287.6,403z M216.9,256.9
				c-1.8,1.7-3.2,3.9-4.7,5.9c-0.3,0.4-0.7,0.9,0,1.3c0.6,0.3,1,0.1,1.4-0.4c0.7-1,1.5-1.8,2.3-2.8c1-1.2,2-2.4,3.1-3.5
				c0.6-0.7,0.3-1.3-0.1-1.7c-0.5-0.5-0.8,0.2-1.1,0.4C217.5,256.4,217.2,256.7,216.9,256.9z M474,317.8c0.5-0.7,0.5-1.5,0.8-2.2
				c0.7-2,0.7-2-1.1-2.8c-0.1-0.1-0.3-0.1-0.4-0.2c-1.1-0.5-1.6-0.2-1.9,1c-0.1,0.6-0.2,1.1-0.3,1.7c-0.4,1.8-0.4,1.9,1.4,2.4
				C473,317.8,473.5,318,474,317.8z M260.8,223.3c1.7-1.5,2.8-3,4.4-4.1c0.5-0.4,0.6-0.9,0.1-1.4c-0.5-0.5-0.9-0.3-1.3,0.1
				c-0.6,0.5-1.1,1.1-1.7,1.6c-0.5,0.5-0.9,0.9-0.7,1.7c0.1,0.5-0.2,0.9-0.8,1.1c-0.3,0.1-0.7,0.1-0.9,0.3c-1.2,1.7-3.1,2.7-4.5,4.3
				c-0.2,0.2-0.6,0.3-0.3,0.6c0.2,0.3,0.6,0.5,1,0.3c0.4-0.2,0.8-0.6,1.1-0.9C258.7,225.7,259.9,224.3,260.8,223.3z M291.3,484.8
				c-1,0.8-0.4,2-0.2,3c0.7,3.4,1.6,6.8,2.3,10.2c0.4,1.8,1.6,2.7,3.4,2.2c0.3-0.1,0.9-0.1,0.8-0.6c-0.2-0.5-0.6-0.2-1-0.1
				c-1.1,0.3-2.2-0.2-2.4-1.3c-0.7-3.4-1.8-6.7-2.3-10.2c-0.2-2,0.1-2.5,2-3c0.2-0.1,0.7,0.2,0.6-0.4c-0.1-0.4-0.3-0.7-0.7-0.8
				C292.8,483.7,292,484,291.3,484.8z M292.5,249.9c3.7,1.1,31.1,5.5,32.3,5.2C314,253.1,303.3,251.4,292.5,249.9z M306.9,233.8
				c0.1-0.1,0.2-0.2,0.3-0.2c-0.7-0.7-1.4-1.5-2.1-2.2c-2.7-2.7-5.4-5.6-8-8.4c-3.2-3.5-6.8-6.7-9.5-10.7c-0.5-0.7-1.7-0.6-1.9-1.8
				c0-0.3-0.3-0.6-0.7-0.6c-0.1,0-0.2,0.1-0.2,0.2c-0.2,0.4,0.2,0.6,0.4,0.8c5.2,5.5,10.4,11.1,15.7,16.6
				C302.9,229.6,304.9,231.7,306.9,233.8z M476.2,313.1c1.8,0.2,3.1,1.2,4.7,1.3c0.7,0.1,1,0,1-0.8c0-1,0-1.9,0-2.9
				c0.1-1.2-0.8-1-1.4-1.2c-0.7-0.2-1.1-0.1-1.2,0.7c0,0.4-0.4,0.7-0.9,0.8c-0.2,0-0.6-0.1-0.6,0.3
				C478,312.5,477.1,312.5,476.2,313.1z M281.8,418.8c-1.1-0.1-1.8-0.5-2.1-1.6c-0.8-3.9-1.8-7.7-2.6-11.6c-0.3-1.5-0.3-1.5,1.2-1.7
				c0.2,0,0.5,0,0.5-0.3c0-0.1-0.2-0.3-0.4-0.4c-0.7-0.4-1.4,0-2,0.3c-0.5,0.3-0.4,0.8-0.3,1.2c1,4.6,2,9.3,3.2,13.8
				c0.1,0.5,0.1,1.1,0.8,1.2C280.9,420,281.3,419.6,281.8,418.8z M318.5,314c-0.5,0.5-1,0.9-1.5,1.5c-0.4,0.4-0.2,1.8,0.3,2.2
				c0.6,0.4,0.9-0.2,1.2-0.5c1.5-1.3,2.9-2.7,4.3-4c0.2-0.2,0.6-0.3,0.4-0.7c-0.2-0.3-0.6-0.2-0.9-0.2
				C320.9,312.3,319.4,312.6,318.5,314z M304.1,503.4c0.4-0.3,0.2-0.5,0.2-0.7c0-0.8-0.3-1.5-0.4-2.3c-0.4-2.3-0.7-1.7-2.4-1.6
				c-0.7,0-1,0.4-0.9,1c0.2,1.2,0.3,2.4,0.5,3.6c0,0.3,0.2,0.6,0.5,0.6C302.5,504,303.2,503.2,304.1,503.4z M293.4,206.1
				c10,10.7,20,21.4,30.4,31.8C313.9,227.1,303.5,216.7,293.4,206.1z M258.7,285.4c-0.1,0.1-0.1,0.1-0.2,0.2
				c0.2,0.2,0.3,0.3,0.5,0.5c0.4,0.4,0.8,1,1.5,0.3c0.7-0.7,0.3-1.1-0.2-1.5c-1.3-1.3-2.5-2.6-3.7-4c-0.7-0.7-1.3-1.4-2-2.1
				c-0.1-0.1-0.3-0.2-0.5-0.1c-0.2,0.1-0.2,0.3-0.1,0.4c0.8,0.7,0.4,1.9,1.1,2.6C256.3,282.9,257.5,284.2,258.7,285.4z M489.4,314.8
				c0.1,0,0.2,0.1,0.4,0.1c1.3,0.3,2.6,0.3,3.9,0.2c0.8-0.1,0.5-0.8,0.6-1.3c0-0.5,0.3-1.2-0.6-1.4c-1.2-0.3-2.3-0.6-3.5-0.8
				c-0.2-0.1-0.5-0.2-0.8,0C489.1,311.9,489.1,314.5,489.4,314.8z M218.8,304.4c-0.1,0.1-0.2,0.2-0.2,0.2c6.6,7.2,13,14.6,20.2,21.2
				C232.1,318.7,225.5,311.5,218.8,304.4z M307.1,511.4c1.9-2.5,0.8-9-2.5-11.7c0.2,1.2,0.5,2.3,0.7,3.3c0.1,0.3,0.3,0.5,0.5,0.6
				c0.9,0.5,0.9,1.3,0.5,2.1c-0.2,0.4-0.4,0.8-0.3,1.2C306.3,508.4,306.7,509.8,307.1,511.4z M223.7,252.2c0.6-1.3,2.2-1.3,2.7-2.8
				c0.2-0.5,0.7-0.7,1.3-0.6c0.7,0.2,0.8-0.1,0.9-0.8c0-0.8,0.4-1.4,1.4-0.9c0.3,0.1,0.7,0,1,0c0.2,0,0.3-0.1,0.4-0.2
				c0-0.2-0.1-0.4-0.3-0.4c-0.5-0.1-1-0.4-1.4-0.7c-1.2-1.1-1.3-1.2-2.3,0.1c-1.3,1.8-2.3,3.8-3.7,5.5
				C223.5,251.5,223.3,251.8,223.7,252.2z M475.6,312c0-0.2,0.1-0.4,0.1-0.7c0.2-1.3,0.3-2.5,0.7-3.8c0.2-0.5,0.3-1,0.3-1.5
				c0-0.7-0.2-1.3-1-1.5c-0.8-0.1-0.8,0.5-1,1.1c-0.2,0.6-0.2,1.2-0.4,1.8c-0.3,1.2-0.4,2.4-0.6,3.7c-0.1,0.5,0.2,0.8,0.7,0.9
				C474.9,312.1,475.2,312.4,475.6,312z M298.3,312.2c0.6,0.7,1,1.1,1.3,1.5c0.2,0.2,0.4,0.4,0.8,0.2c1.1-0.7,2.2-1.2,2.7-2.6
				c0.2-0.4,0.2-0.8-0.1-1.2c-0.7-1-1.5-1.8-2.5-2.6c-0.5-0.4-1.1-0.5-1.4,0c-0.4,0.6,0.4,0.6,0.6,0.8c0.8,0.7,1.5,1.3,1,2.5
				C300.4,312,299.8,312.6,298.3,312.2z M287.9,211.5c6.7,7.6,13.6,14.9,20.7,22.1C302,226,294.9,218.8,287.9,211.5z M410.4,281
				c-0.4-0.4-0.9-0.4-1.3-0.5c-3.7-0.9-7.4-1.9-11-2.8c-1.9-0.5-2.4-0.2-2.8,1.7c-0.1,0.3-0.4,0.6,0.2,0.7c0.4,0.1,0.6,0,0.7-0.6
				c0.2-1,1.1-1.5,2.1-1.3c3.3,0.9,6.7,1.7,10,2.6c0.9,0.2,1.7,0.7,2.1,1.5c0.2,0.3,0,1.1,0.6,0.9c0.5-0.2,0.2-0.8,0.1-1.2
				C410.8,281.7,410.6,281.3,410.4,281z M498.9,309.4c-0.4-0.3-1-0.4-1.1,0.3c-0.4,2.2-0.9,4.4-1.1,6.6c0,0.7,0.5,0.7,1,0.8
				c0.7,0.2,0.8-0.3,0.8-0.8c0.2-2,0.4-4,0.6-6C499.2,310,499.2,309.7,498.9,309.4z M307.3,521.6c0.3-0.3,0.6-0.7,0.5-1.2
				c-0.3-1.2-0.7-2.3-1-3.5c-0.2-1-0.8-0.6-1.3-0.5c-0.5,0.1-0.9,0.2-0.7,1c0.3,1.2,0.4,2.4,0.6,3.6
				C305.7,522.9,305.7,522.9,307.3,521.6z M505.6,310.7c0.2,0,0.3,0.1,0.5,0.2c1.6,0.7,3.3,0.9,4.9,1.3c0.6,0.2,1.1,0.2,1.2-0.7
				c0.1-0.8-0.1-1.2-0.9-1.2c-0.3,0-0.7-0.2-1-0.2c-1.4-0.2-2.8-0.8-4.2-0.8c-0.3,0-0.7-0.1-0.6,0.3
				C505.5,309.9,505.2,310.3,505.6,310.7z M280.8,248.5c-0.3-0.1-0.4,0.1-0.6,0.3c-1.6,1.9-3.5,3.6-5.3,5.4
				c-1.3,1.3-3.2,2.3-3.3,4.6c1.3-1.3,2.6-2.5,3.8-3.7c1.3-1.2,2.6-2.5,3.7-3.8c0.6-0.7,1.2-1.6,1.7-2.6
				C280.9,248.8,280.8,248.6,280.8,248.5z M502.6,310.4c0.4-0.3,0.4-0.7,0.1-1.1c-0.2-0.3-0.4-0.5-0.1-0.9c0.4-0.6,0-0.9-0.6-1.1
				c-1-0.3-2-0.5-3-0.8c-0.7-0.2-0.9,0.2-1,0.7c-0.2,0.6,0,0.9,0.6,1c0.9,0.1,1.5,0.6,1.5,1.5c0,1.2,1,0.5,1.4,0.9
				C501.9,311,502.3,310.8,502.6,310.4z M262.6,319.3c-1.2-1.9-6.5-7.4-7.4-7.8C255.3,313.7,260.3,319,262.6,319.3z M258.6,271.7
				c-1.7-0.2-2.4,0.9-3.3,1.7c-2.3,2.1-4.3,4.5-6.4,6.7c-0.3,0.3-0.9,0.4-0.5,0.9c0.3,0.4,0.7-0.1,1-0.4
				C252.5,277.7,255.5,274.8,258.6,271.7z M297.1,416.5c0-0.4,0.1-0.6,0.1-0.9c-0.1-0.5-0.3-1-0.4-1.6c-0.3-1.5-0.3-1.5-1.7-1.3
				c-1.6,0.2-1.7,0.4-1.4,2c0.1,0.3,0.1,0.5,0.2,0.8c0.1,0.5,0.1,1.2,0.7,1.3C295.4,417,296.1,416.3,297.1,416.5z M295.4,291.1
				c-0.4-0.4-0.9-1.3-1.3-1.1c-0.9,0.5-1.8,1.3-2.3,2.2c-0.3,0.6,0.7,1,1.2,1.6c0.1,0.2,0.3,0.3,0.5,0.4c0.3,0.2,0.6,0.2,0.8-0.1
				c0.4-0.6,1-1,1.7-1.4c0.6-0.3,0.6-0.7,0.1-1.2C295.8,291.5,295.6,291.3,295.4,291.1z M288,403.8c0,1.6,0.3,3.1,0.6,4.6
				c0.8,3.3,1.6,6.6,2.3,10c0.2,1,0.9,1.4,1.8,1.6c0.3,0.1,0.9,0.1,1-0.4c0.1-0.5-0.4-0.5-0.7-0.6c-1.3-0.2-1.6-1.1-1.9-2.3
				c-0.5-2.3-0.8-4.7-1.3-6.9c-0.3-1.1-1.2-1.9-1.2-3.1C288.5,405.7,288.2,404.8,288,403.8z M302.8,507c0.2,1.9,0.8,3.7,1.2,5.5
				c0.1,0.5,0.2,0.9,0.9,0.7c0.5-0.2,1.3-0.1,1-1.1c-0.3-1-0.5-2.1-0.7-3.2C304.9,507.8,304.8,506.4,302.8,507z M111.7,123.2
				c0.4,0.2,0.5,0,0.7-0.1c1.5-1.4,3-2.8,4.5-4.2c2.1-2.2,4.2-4.3,6.4-6.3c0.3-0.3,1.2-0.5,0.7-1c-0.4-0.5-0.8,0.3-1.1,0.5
				c-0.1,0.1-0.2,0.2-0.3,0.2c-2.7,2.6-5.4,5.2-8,7.8C113.5,121,112.7,122.1,111.7,123.2z M265.9,259.2
				C265.9,259.2,265.9,259.2,265.9,259.2c0.3-0.4,0.8-0.7,1.1-1.1c0.6-0.7-0.1-1.3-0.4-1.9c-0.2-0.4-0.5-0.8-1-0.6
				c-1,0.5-1.8,1.4-2.4,2.2c-0.5,0.6,0.4,1,0.6,1.5c0.3,1.1,0.8,1.1,1.7,0.3C265.5,259.5,265.7,259.3,265.9,259.2z M307.4,499.3
				c-0.5-0.5-0.4-0.9,0-1.4c0.4-0.4,0.8-0.6,1.3-0.7c0.3-0.1,0.6-0.2,0.6-0.6c-0.1-0.4-0.3-0.6-0.6-0.6c-0.8,0-1.7,0-2.2,0.7
				c-0.6,0.8-1.2,1.5-0.7,2.6c0.7,1.6,0.9,1.7,3.1,1.5c0.4,0,1,0,0.9-0.6c0-0.6-0.6-0.6-1-0.5C308.2,499.9,307.8,499.7,307.4,499.3z
				 M253,298.9c-0.1,0-0.1,0.1-0.2,0.1c0.2,0.8,0.3,1.6,0.5,2.5c0.1,0.3,0.1,0.5,0.4,0.7c1,0.6,1.5,1.5,2.3,2.3
				c0.4,0.3,0.6,0.9,1.2,0.3c0.5-0.5,0.6-1,0.1-1.5C255.8,301.8,254.4,300.3,253,298.9z M314.5,317.3c0.3-0.6-0.2-1-0.3-1.5
				c-0.1-0.5-0.2-1.1-0.9-0.9c-0.8,0.2-0.4,0.9-0.3,1.3c0.3,1.4-0.4,2.5-1.8,2.7c-0.2,0-0.6-0.1-0.6,0.2c0,0.5-0.2,1.2,0.2,1.3
				c0.9,0.4,1.8-0.1,2.7-0.4c0.3-0.1,0.7-0.2,0.7-0.7c0,0,0-0.1,0-0.1C313.4,318.5,313.1,317.8,314.5,317.3z M215.4,302.8
				c-6.7-7.9-14.3-14.9-21.6-22.3C201,287.9,208.2,295.3,215.4,302.8z M129,130.2C129,130.2,129,130.2,129,130.2
				c0.4-0.4,0.9-0.8,1.3-1.2c0.4-0.5,0.8-1,1.2-1.4c0.4-0.4,0.3-0.9,0.1-1.2c-0.3-0.4-0.6,0-0.9,0.3c-0.5,0.6-1.2,1.1-1.8,1.7
				c-0.8,0.8-1.5,1.6-2.3,2.4c-0.4,0.4-0.7,0.8-0.2,1.3c0.5,0.5,0.8-0.1,1.1-0.4C128,131.2,128.5,130.7,129,130.2z M293.7,401.3
				c0.2-0.2-0.1-2.9-0.3-3.1c-0.3-0.2-2.4,0.2-2.8,0.5c-0.2,0.2,0.2,2.7,0.4,3C291.2,401.9,293.3,401.6,293.7,401.3z M263.4,283.7
				c1.6,1.6,2.9,3,4.2,4.4c1,1,2.1,1.8,2.5,3.3c0.1,0.6,0.6,0.7,1.2,0.5c0.6-0.2,1.1-0.6,1.5-1c0.1-0.1,0.3-0.3,0.2-0.5
				c-0.1-0.3-0.4-0.2-0.6-0.1c-1.1,0.6-1.8,0-2.5-0.8c-1.6-1.7-3.2-3.4-4.9-5C264.7,284.1,264.4,283.7,263.4,283.7z M309.4,329
				C309.4,329,309.4,329,309.4,329c-0.5,0.4-1,0.9-1.5,1.3c-0.4,0.3-0.7,0.6-0.2,1.1c0.5,0.4,0.8,0.8,1.4,0.2c1-1.1,2.2-2,2.9-3.3
				c0.2-0.4,0.4-0.6,0-1c-0.4-0.4-0.7-0.4-1.1,0C310.5,328,310,328.5,309.4,329z M265.4,312.3c0.2-0.2,0.5-0.4,0.7-0.7
				c0.4-0.4,1-0.6,0.3-1.3c-0.5-0.5-1-1.2-1.8-0.3c-0.6,0.7-1.3,1.3-1.9,1.8c-0.6,0.5-0.6,1.1-0.1,1.6c0.5,0.6,1.1,0.3,1.5-0.1
				C264.6,313.1,264.8,312.6,265.4,312.3z M500.6,311.6c0.6,0.4,0.2,1.4,1,1.6c2.3,0.4,4.5,1.1,6.8,1c0.3,0,0.6,0,0.6-0.4
				c0-0.4-0.3-0.4-0.6-0.5C505.9,312.6,503.3,312.3,500.6,311.6z M216,262.3c0.5-0.1,0.7-0.4,1-0.6c2.7-2.7,5.3-5.3,8-8
				c0.2-0.2,0.8-0.5,0.4-0.9c-0.4-0.4-1-0.1-1.2,0.3c-0.4,1.1-1.4,1.5-2.1,2.3c-1.6,2-3.4,3.9-5.2,5.7
				C216.4,261.3,216.1,261.7,216,262.3z M290.1,309.5c0.5-0.5,1.1-1,1.7-1.6c0.3-0.4,0.3-0.8,0-1.2c-0.2-0.2-0.4-0.4-0.7-0.1
				c-1.4,1.3-2.8,2.5-4,4c-0.2,0.2-0.5,0.5-0.2,0.8c0.3,0.3,0.6,0.2,1,0.1C288.8,311,289.3,310.1,290.1,309.5z M438,298
				c-0.4-0.5-1.7-0.6-2.1-0.2c-0.5,0.6-1,2.7-0.7,3c0,0,0.1,0,0.1,0c1.4,0.9,2.1,0.6,2.7-0.9c0.2-0.5,0.1-0.9,0.2-1.4
				C438.2,298.4,438.2,298.2,438,298z M295.3,408.6c0.3-0.2,0.1-2.1-0.3-2.7c-0.2-0.3-2.2-0.2-2.7,0.2c-0.3,0.2-0.1,2.4,0.2,2.8
				C292.7,409.3,294.8,409,295.3,408.6z M228.2,243.1c-0.2-0.8-0.7-1.7,0.2-2.1c1.4-0.6,0.7-1.2,0.1-1.8c-0.4-0.4-0.8-0.8-1.1-1.2
				c-0.2-0.2-0.6-0.3-0.5,0c0.1,1.3-0.9,1.4-1.8,1.7C226.1,240.9,227.1,241.9,228.2,243.1z M256.8,263.9
				C256.8,263.9,256.8,263.9,256.8,263.9c-0.2,0.2-0.5,0.5-0.8,0.7c-0.3,0.3-0.3,0.5,0,0.8c0.5,0.3,1,0.7,1.2,1.4
				c0.1,0.2,0.3,0.2,0.5,0.2c1.4-0.4,2.1-2.2,1.4-3.4c-0.4-0.7-0.9-0.9-1.5-0.3C257.3,263.4,257,263.6,256.8,263.9z M264.7,213.6
				c-0.1,0.1-0.2,0.3-0.4,0.4c-3.8,3.1-7.1,6.7-10.6,10c-0.2,0.2-0.6,0.4-0.4,0.7c0.3,0.4,0.5,0,0.7-0.2
				C257.8,221,261.2,217.3,264.7,213.6z M323.5,258c-2.6-0.6-5-1.1-7.6-1.3c0.3,0.4,0.3,0.8,0.3,1.1c-0.1,0.5-0.1,1,0.6,0.4
				c0.2-0.2,0.5-0.2,0.8-0.1c0.8,0.2,1.7,0.4,2.5,0.6c1,0.2,2.1,0.9,2.7-0.5C322.8,258.1,323.1,258.1,323.5,258z M314.7,320.6
				c-1.8,0.7-3.7,0.4-4.9,2c-0.3,0.4-0.5,0.6-0.2,1.1c0.5,0.8,1.5,0.9,2.1,0.2c0.4-0.4,0.9-0.8,1.2-1.2
				C313.5,322,314.3,321.7,314.7,320.6z M126.5,129.7c1-1.5,2.5-2.6,3.7-4c0.2-0.3,0.8-0.5,0.4-0.9c-0.3-0.4-0.8,0-1,0.2
				c-1.7,1.7-3.3,3.4-5,5c-0.1,0.1-0.3,0.3-0.1,0.5c0.1,0.1,0.3,0.2,0.5,0.2C125.7,130.7,126,130.1,126.5,129.7z M222.4,231.9
				c-0.2-0.1-0.6-0.4-0.9-0.7c-0.2-0.2-0.4-0.4-0.7-0.3c-0.3,0.1-0.3,0.5-0.3,0.8c0,0.8,0,1.6,0.1,2.4c0,0.5,0.1,1,0.6,1.2
				c0.5,0.2,0.7-0.4,1-0.6c0.2-0.1,0.3-0.3,0.4-0.4C223.6,233.3,223.6,233.2,222.4,231.9z M308,327.2c-0.7,0.5-1.1,1.3-1.7,1.9
				c-0.3,0.4-0.1,0.9,0.2,1.1c0.4,0.3,0.4-0.3,0.7-0.4c1.3-0.9,2.2-2.1,3.4-3.2c0.4-0.3,0.5-0.6,0.2-1c-0.3-0.3-0.8-0.4-1,0
				C309.2,326.3,308.5,326.6,308,327.2z M264.6,305.4c-0.1,0.1-0.2,0.2-0.3,0.2c-0.6,0.5-1.1,1-0.2,1.8c0.8,0.7,1.4,0.7,2.1,0
				c0.2-0.2,0.3-0.4,0.6-0.6c0.8-0.4,0.7-0.8,0.1-1.4C265.8,304.3,265.7,304.3,264.6,305.4z M434.8,303.2c-0.2-0.3-0.4-1-0.9-0.3
				c-0.4,0.6-0.5,1.2,0,1.9c0.6,0.8,1.4,1.2,2.4,1c0.7-0.2,1.2-0.6,1.2-1.3c0-0.5,0-1-0.8-0.6C435.9,304.1,435.3,303.7,434.8,303.2z
				 M263.7,290.2C263.7,290.2,263.7,290.2,263.7,290.2c0.4,0.5,0.9,1,1.4,1.4c0.3,0.4,0.7,0.6,1.2,0.2c0.5-0.5,0.3-0.9-0.1-1.3
				c-1-0.9-1.9-1.8-2.9-2.7c-0.3-0.3-0.7-0.4-1,0c-0.3,0.3-0.2,0.6,0.1,0.9C262.8,289.3,263.3,289.7,263.7,290.2z M224.2,248.9
				c-0.7,0.4-3.9,3.9-4.2,4.4c-0.4,0.6,0.1,1.1,0.3,1.6c0.1,0.2,0.4,0.5,0.5,0.3c0.5-0.5,1.5-0.8,1.2-1.8c-0.2-0.9,0.1-1.5,0.5-2.2
				C223,250.5,223.6,249.7,224.2,248.9z M262.4,300.3c0.1-0.4,1.2-0.5,0.5-1.1c-0.5-0.5-0.9-1.6-1.8-1.3c-0.7,0.3-1.3,0.9-1.4,1.9
				c0,0.6,0.3,1,0.8,1.3C261.4,301.5,261.8,300.7,262.4,300.3z M288.3,305.7c-0.7,0.4-1-0.1-1.4-0.4c-1.1-1.1-2.1-2.2-3.2-3.3
				c-0.3-0.3-0.5-0.7-0.9-0.4c-0.4,0.3,0,0.7,0.2,0.9c1.1,1.6,2.7,2.8,4,4.2c0.3,0.3,0.5,0.1,0.7-0.1
				C287.9,306.4,288.1,306,288.3,305.7z M219.4,283.5c0,0-0.2-0.3-0.5-0.4c-0.4-0.3-0.8-0.2-1.2,0.1c-0.3,0.3-0.8,0.6-0.5,1
				c0.5,0.7,0.4,1.2-0.2,1.8c-0.5,0.6,0.1,1.1,0.5,1.5c0.2,0.2,0.4,0.5,0.7,0.3c0.5-0.4,0.2-0.8,0-1.2c-0.3-0.9,0.2-1.7,1-1.8
				c0.3,0,0.8,0.2,0.9-0.2C220.3,284.2,219.8,283.9,219.4,283.5z M254.5,287.6c-0.6-0.7-1.2-1.4-1.8-2.1c-0.3-0.4-0.8-0.4-1.1-0.1
				c-0.4,0.5,0.2,0.5,0.4,0.8c0.2,0.2,0.4,0.4,0.6,0.6c1,1.4,2.4,2.5,3.5,3.8c0.3,0.3,0.7,0.7,1.1,0.3c0.4-0.4-0.2-0.5-0.3-0.8
				C256.1,289.2,255.2,288.4,254.5,287.6z M289.3,393.9c0.3,0.4,2.4,0.2,2.7-0.2c0.4-0.7,0.1-1.4-0.2-2.1c-0.2-0.4-2.4-0.3-2.7,0.1
				C288.6,392.5,289.4,393.2,289.3,393.9z M254.4,305.4c-0.1,0.1-0.2,0.2-0.3,0.3c0,0.9,0.3,1.6,0.9,2.3c0.8,0.7,1.5,1.5,2.2,2.2
				c0.3,0.3,0.6,0.9,1.1,0.4c0.6-0.5,0-0.9-0.3-1.3C257,308,255.7,306.7,254.4,305.4z M268,259.2c0.1,0.1,0.2,0.2,0.3,0.3
				c3.4-3.4,7-6.6,10.3-10.1c-0.1-0.1-0.2-0.2-0.2-0.2C274.9,252.6,271.5,255.9,268,259.2z M382.9,289.6c0.2-0.8,0.4-1.3,0.5-1.8
				c0.1-0.4,0-0.7-0.4-0.8c-1.1-0.3-2.2-0.5-3.3-0.8c-0.4-0.1-0.8,0-0.8,0.4c0,0.7-0.2,1.2-0.4,1.8c-0.2,0.7,0.1,1.3,0.8,1.7
				c-0.5-1.5-0.2-2.4,0.9-2.7C381.6,287,382.2,287.5,382.9,289.6z M297.6,513c0-0.1-0.1-0.2-0.1-0.3c-2.8,0.4-5.6,0.8-8.3,1.2
				c-0.3,0.1-0.9,0.2-0.7,0.7c0.2,0.6,0.7,0.3,1,0.2c1.9-0.4,3.9-0.7,5.8-1.2C296,513.5,296.9,513.6,297.6,513z M222.7,290.4
				c0,0.5-0.9,0.5-0.5,1c0.2,0.3,0.6,0.8,1.1,0.7c0.7-0.1,1.9-1.2,1.8-1.9c-0.1-0.9,0.3-1.3,0.9-1.8c0.2-0.2,0.6-0.3,0.3-0.6
				c-0.3-0.3-0.5-0.1-0.8,0.1C224.4,288.6,223.8,289.8,222.7,290.4z M515.5,312.9c1,0.6,2.3,0.9,3.5,1c0.5,0.1,0.5-0.7,0.8-1
				c0.1-0.2-0.1-0.4-0.3-0.5c-1.2-0.3-2.3-0.5-3.5-0.8c-0.4-0.1-0.6,0-0.7,0.4C515.2,312.3,515.2,312.6,515.5,312.9z M254.8,320.8
				c0.3-0.8-2-13.2-2.6-14.1C252.9,311.6,253.8,316.2,254.8,320.8z M226.8,264.9c0.1,0,0.1-0.1,0.2-0.1c-0.2-1.2-0.5-2.4-0.7-3.6
				c-0.1-0.3-0.1-1-0.5-0.9c-0.6,0.2-1,0.6-1.5,1.1c-0.3,0.3-0.2,0.6,0.1,0.9C225.2,263.1,226,264,226.8,264.9z M289.1,271.2
				c-0.1-1.6-5-6.4-6-6.3C285.1,267,287.1,269.1,289.1,271.2z M230.9,221c0.7,0.8,1.3,1.3,1.8,1.8c0.3,0.3,0.7,0.7,1.1,0.4
				c0.6-0.5,1.5-0.8,1.7-1.6c0.1-0.4-0.3-0.4-0.5-0.4C233.7,221,232.5,220.9,230.9,221z M236.9,315.2c0.7,0.7,1.4,1.5,2.1,2.2
				c0.3,0.3,0.9,0.4,1.1,0.1c0.3-0.3-0.2-0.6-0.5-0.8c-1.2-0.8-2-2-3.3-2.8c-0.3-0.2-0.5-0.7-0.8-1c-0.2-0.3-0.1-0.7-0.6-0.8
				c-0.1,0-0.3,0.2-0.3,0.3c-0.2,0.4,0.1,0.7,0.4,1C235.7,314,236.2,314.8,236.9,315.2z M279.4,264.1c0.6,0.4,1,0.1,1.4-0.1
				c0.8-0.3,1.5-0.7,2.4-0.7c0.4,0,0.9,0.4,1.1-0.2c0.2-0.5-0.4-0.8-0.7-1.1c-0.6-0.5-1.2-0.2-1.7,0
				C281,262.5,280.2,263.2,279.4,264.1z M277.3,203.1c-0.1-0.1-0.2-0.2-0.2-0.3c-3.1,3.1-6.4,6-9.3,9.4
				C271,209.2,274.1,206.1,277.3,203.1z M448.6,288.5c-0.7-0.3-1.5-1.2-1.9-0.5c-0.4,0.6-0.7,1.6-0.4,2.4c0.1,0.4,2,0.6,2.3,0.2
				C449,289.8,449,289.1,448.6,288.5z M266.6,288.1c0,0-0.1,0.1-0.1,0.1c-0.8-0.8-1.6-1.7-2.4-2.5c-0.2-0.2-0.3-0.4-0.6-0.2
				c-0.2,0.2-0.1,0.4,0,0.5c1.4,1.6,2.8,3.2,4.4,4.6c0.2,0.2,0.5,0.3,0.7,0.1c0.2-0.3,0-0.5-0.2-0.7
				C267.9,289.3,267.2,288.7,266.6,288.1z M309.4,255.5c-2.3-0.3-2.3-0.3-3.1,0.9c-0.2,0.2-0.4,0.5-0.1,0.7c0.5,0.4,1.1,0.9,1.9,0.8
				c0.6-0.1,0.8-0.6,0.9-1.2C309,256.3,309.2,255.9,309.4,255.5z M295.3,206.8c0.3,0,0.3-0.1,0.2-0.2c-4-4.1-7.9-8.4-12.2-12.3
				C287.4,198.5,291.3,202.8,295.3,206.8z M288.7,226.1c2-0.3,3.4-1,4.4-2.3c0.2-0.2,0.6-0.3,0.3-0.7c-0.2-0.3-0.7-0.6-1-0.3
				C291.2,223.8,289.9,224.7,288.7,226.1z M252.3,281c-0.1,0.1-0.2,0.1-0.2,0.2c3.1,3.2,6,6.6,9.3,9.6c0.1-0.1,0.2-0.1,0.2-0.2
				C258.4,287.3,255.4,284.2,252.3,281z M269,200.1c1.7-1.5,3.3-2.9,5-4.4c0.1-0.1,0.3-0.3,0.1-0.5c-0.2-0.3-0.5-0.1-0.7,0.1
				c-1.7,1-3,2.4-4.3,3.9C269,199.3,268.8,199.6,269,200.1z M292.7,395.5c-0.3-0.3-0.7-0.2-2,0.1c-0.9,0.2-1,0.6-0.8,1.4
				c0.2,0.8,0.7,0.7,1.3,0.6c0.4-0.1,0.7-0.2,1.1-0.3C293,397,293.2,396,292.7,395.5z M227,299.5c-0.4-0.7-0.8-1.2-0.8-1.7
				c-0.1-1.2-0.9-1.9-1.6-2.7c-0.3-0.4-0.7-0.6-1.1-0.3c-0.5,0.4-0.2,1,0.1,1.2C224.8,297,225.5,298.5,227,299.5z M259.1,294.9
				c-0.6-0.5-0.9-1.4-1.6-0.7c-0.5,0.5-1.4,1.2-0.3,2c0.5,0.4,0.8,1.4,1.7,0.6C259.6,296.2,260,295.4,259.1,294.9z M524.4,315.9
				c0-0.6-0.2-1-0.1-1.5c0.1-0.5-0.2-0.8-0.7-0.8c-0.8,0-1.7,0-2.5,0c-0.2,0-0.4,0-0.5,0.3c-0.1,0.3,0.1,0.4,0.4,0.5
				C522.1,314.9,523.1,315.7,524.4,315.9z M265.2,300.9c0.5-0.6,1.2-1.1,1.5-1.9c0.1-0.2,0.2-0.4,0-0.5c-0.3-0.2-0.4,0-0.6,0.2
				c-0.7,0.8-1.4,1.5-2.5,1.9c-0.4,0.1-0.6,0.6-0.9,0.8c-0.2,0.2-0.4,0.5-0.2,0.8c0.2,0.3,0.5,0.2,0.8,0
				C264,301.8,264.6,301.3,265.2,300.9z M229.1,303.6c0.1-0.1,0.2-0.2,0.3-0.3c-3.4-3.5-6.8-7-10.2-10.5
				C222.5,296.3,225.9,299.9,229.1,303.6z M295.4,228.1c0.4,0.4,0.8,0.3,1.2,0.2c1.4-0.4,2.4,0.1,3.3,1.1c1.4,1.6,2.9,3.1,4.6,4.8
				c-0.4-0.6-0.6-0.9-0.9-1.2c-1.3-1.4-2.5-2.8-3.8-4.1C298.3,227.3,297.7,227.1,295.4,228.1z M295,420.1c0.6,0.6,1.3,0.7,1.8,0.1
				c0.6-0.6,0.5-1.3-0.1-1.8c-0.5-0.5-1.1-0.7-1.6-0.1C294.6,418.8,294.4,419.5,295,420.1z M129.9,130.4
				C129.9,130.4,129.9,130.4,129.9,130.4c-0.6,0.6-1.2,1.1-1.7,1.7c-0.2,0.2-0.7,0.5-0.4,0.8c0.3,0.4,0.7,0,1-0.3
				c1.2-1.2,2.4-2.4,3.6-3.6c0.2-0.2,0.2-0.4,0.1-0.6c-0.2-0.3-0.4,0-0.6,0.1C131.2,129.2,130.6,129.8,129.9,130.4z M250.3,296.1
				c0.1,0,0.2-0.1,0.3-0.1c-0.7-4.2-1.5-8.4-2.2-12.6C248.6,287.8,249.6,291.9,250.3,296.1z M285.7,310.1c0.6,0.1,0.8-0.3,1.1-0.6
				c1.3-1,2.4-2.3,3.6-3.4c0.2-0.2,0.8-0.3,0.4-0.8c-0.4-0.5-0.7,0.1-0.9,0.3c-0.8,0.6-1.5,1.4-2.1,2.1
				C287,308.4,285.9,308.9,285.7,310.1z M289.8,269.1c0.1-0.6-0.2-0.8-0.5-1c-1.1-1.1-2.2-2.2-3.3-3.3c-0.2-0.2-0.4-0.4-0.7-0.6
				c-0.2-0.1-0.4-0.3-0.6-0.1c-0.2,0.2,0,0.4,0.2,0.6c0.8,0.8,1.5,1.7,2.3,2.4C288,267.7,288.7,268.6,289.8,269.1z M285.2,230.3
				c0.1,0.1,0.1,0.2,0.2,0.2c2.4-0.4,4.8-0.7,7.2-1.3c0.2-0.1,0.5-0.1,0.4-0.4c-0.1-0.3-0.4-0.2-0.6-0.1c-2,0.4-4,0.9-6,1.3
				C285.9,230,285.4,229.8,285.2,230.3z M496.9,325.5c0.1-0.7,0.9-1.2,0.9-2c0-0.7-0.1-1-0.8-1.1c-0.7-0.1-1,0.2-1,0.9
				c0,0.7-0.1,1.3-0.1,2c0,0.3,0.1,0.5,0.3,0.5C496.5,325.8,496.7,325.8,496.9,325.5z M325.2,261.1c0.2-0.6,0.4-1.2,0-1.8
				c-0.3-0.4-1.8-0.5-2.1-0.1c-0.5,0.6-0.4,1.2,0.1,1.7C323.8,261.4,324.5,261.6,325.2,261.1z M304.6,515.3c0.4,0.4,2.8,0.2,3.1-0.2
				c0.3-0.4,0.1-0.7-0.3-1c-0.8-0.5-1.7-0.4-2.6-0.1C304.1,514.4,304.4,514.9,304.6,515.3z M252.7,296.5c-0.1,0.1-0.2,0.2-0.3,0.3
				c1.9,2,3.9,4,5.8,6C256.6,300.5,254.6,298.5,252.7,296.5z M511.8,302.8c0.9-2.3,1.1-4.7,1.9-7c0.1-0.3,0-0.7-0.4-0.7
				c-0.4,0-0.5,0.3-0.6,0.6C512.5,298,512.2,300.4,511.8,302.8z M296.9,421.9c0-0.1,0-0.3,0-0.4c-1.1,0-2.2-0.3-3.2-0.7
				c-0.1,0-0.3,0-0.5,0.1c-0.5,0.1-0.7,0.3-0.6,0.9c0.1,0.5,0.3,0.9,0.9,0.8C294.6,422.3,295.7,422.1,296.9,421.9z M267,209
				c0.5,0.4,1,1,1.6,0.3c0.4-0.5,0.8-1.3,0.2-1.9c-0.6-0.6-1.3-0.5-1.9,0.2C266.5,208.1,266.4,208.5,267,209z M259.1,243.1
				c-0.9-1.8-7.1-7.9-8-8.3C253.8,237.6,256.4,240.4,259.1,243.1z M110.3,103.5c-0.1-0.1-0.2-0.2-0.3-0.3c-1.9,2.1-4.3,3.7-5.8,6.2
				C106.2,107.5,108.2,105.5,110.3,103.5z M225,235.7c-0.5-0.5-0.7-1.3-1.4-1c-0.7,0.3-1.5,0.9-1.6,1.7c-0.1,0.6,0.6,1,1.2,1.4
				C223.3,236.6,223.9,235.9,225,235.7z M310.1,315.8c-0.3,0.5-0.7,1.1,0,1.7c0.6,0.5,1.3,0.6,1.8,0.1c0.4-0.5,0.3-1.3-0.3-1.9
				C311.1,315.2,310.6,315.3,310.1,315.8z M229.9,219.7c2.2,0.6,4.6,0.2,6.8,0.8C234.6,218.9,232.2,219.6,229.9,219.7z M293.2,411.3
				c0.8,0.2,1.5-0.1,2.3-0.2c0.5-0.1,0.6-0.4,0.5-0.8c-0.1-0.4-0.2-0.9-0.8-0.8c-0.6,0.1-1.2,0.3-1.8,0.5
				C292.7,410.3,292.8,410.8,293.2,411.3z M231.4,253.1c0-0.5,1.4-0.7,0.5-1.6c-0.5-0.5-1.1-0.7-1.7-0.1c-0.5,0.5-0.9,1-0.2,1.7
				C230.5,253.5,230.9,253.8,231.4,253.1z M273.8,324.5c0-0.1,0.1-0.2,0.1-0.2c-0.4-1.4-0.6-2.8-1.3-4.1c-0.1-0.2-0.3-0.2-0.5-0.1
				c-0.2,0.1-0.3,0.3-0.2,0.5c0.4,1.2,0.8,2.5,1.2,3.7C273.2,324.6,273.5,324.8,273.8,324.5z M280.4,305.5c1.1,1.3,1.9,2.8,4,3.3
				C283.3,307.1,282.1,306,280.4,305.5z"/>
			<path stroke="#000000" stroke-width="2" stroke-miterlimit="10" d="M241.8,284.4c1.6,1.3,1.3,3.2,1.7,4.8c0.4,1.5,0.5,3,0.8,4.5
				c0.1,0.3,0.2,0.6-0.1,0.8c-0.4,0.2-0.6-0.1-0.9-0.3c-1.8-1.1-2.3-2.7-2.4-4.7c-0.1-1.7-0.5-3.3-0.8-4.9c-0.1-0.4-0.3-1,0.2-1.2
				c0.5-0.2,0.7,0.3,1.1,0.6C241.5,284,241.7,284.3,241.8,284.4z"/>
		</g>
		<g>
			<g>
				<path d="M575,173.4V218h-23.6V106.4h49.1c24.4,0,37.5,13.4,37.5,30.7c0,15-8.2,23.1-16.2,26.4c5.5,2,13.9,7.8,13.9,27.8v5.5
					c0,7.5,0.1,16.1,1.6,21.3h-22.9c-2-4.9-2.3-13.2-2.3-25.1v-1.6c0-12.2-3.1-18-21.1-18H575z M575,154.1h20.2
					c13.2,0,18.3-5,18.3-14.4c0-9.1-5.9-14.2-17.7-14.2H575V154.1z"/>
				<path d="M663.6,218v-79.7c-4.9,2.3-14,4.2-19.3,4.6v-17.3c10.1-1.9,20.3-7.6,26.4-14.3h16.4V218H663.6z"/>
				<path d="M588.7,606.7l-23.9-39.3h-0.2l-24.4,39.3h-26l37.1-56.2l-36.1-55.4h28l22.6,37h0.2l23.4-37h25.6l-36,53.2l37.7,58.4
					H588.7z"/>
				<path d="M668.9,526.1c-1.3-5.3-4.3-10.3-13.6-10.3c-14.3,0-18,13.4-18.6,27.7c4.5-5.5,12-9.9,24.1-9.9
					c19.5,0,33.4,14.4,33.4,35.3c0,22.8-14.6,39.6-39.1,39.6c-30.9,0-41.2-23.8-41.2-53.9c0-27.7,9.8-56.5,42.5-56.5
					c23.2,0,34,14.5,35,27.9H668.9z M671,571c0-10.1-3.8-19.2-16.6-19.2c-10.4,0-16.4,6-16.4,18.4c0,8.6,4.1,20.1,16.5,20.1
					C665.8,590.2,671,581.7,671,571z"/>
			</g>
		</g>
	</g>
</g>
<g id="text" display="none">
</g>
<g id="guides" display="none">
</g>
</svg>
