<svg xmlns="http://www.w3.org/2000/svg" xml:space="preserve" viewBox="0 0 800 800"><path fill="none" d="M0 0h800v800H0z"/><path fill="none" d="M299.9 84.1h400v600h-400z"/><path d="M609.8 142.2v17.2c-16.9 23.9-33.4 58.5-37.6 89.4h-23.8c4.2-31.4 23.3-68.9 37.8-87.5H536v-19.1h73.8zM668.4 168.2c-1.3-5.3-4.3-10.3-13.6-10.3-14.3 0-18 13.4-18.6 27.7 4.5-5.5 12-9.9 24.1-9.9 19.5 0 33.4 14.4 33.4 35.4 0 22.8-14.6 39.7-39.1 39.7-30.9 0-41.2-23.8-41.2-53.9 0-27.7 9.8-56.6 42.5-56.6 23.2 0 34 14.5 35 27.9h-22.5zm2.1 44.8c0-10.1-3.8-19.2-16.6-19.2-10.4 0-16.4 6.1-16.4 18.4 0 8.6 4.1 20.1 16.5 20.1 11.2 0 16.5-8.5 16.5-19.3zM578.5 546.2V582h35v19.4h-35v36.3H559v-36.3h-35.4V582H559v-35.7h19.5zM616.9 637.6v-1.5c0-18.6 8.3-33.7 31.4-50.5 15-11 19.6-14.8 19.6-24.1 0-9.2-4.5-14.4-13.5-14.4-10.4 0-14.2 6.4-15.7 15.7h-22.4c1.5-18.4 13.6-33.7 38.1-33.7 27.4 0 36.8 16.3 36.8 32.3 0 15.5-6.7 23-26.3 36.8-13.1 9.2-18.4 15.3-20.2 20.1h50.5l-2.9 19.3h-75.4z"/><path fill="none" d="M102 400h200v300H102z"/><path d="M108.6 660.5v-48.8c0-27 14.1-37.2 28.6-37.2 12.6 0 20.8 6.7 24.2 14.2 2.8-7.5 10.8-17.4 25.5-17.4 19.1 0 33.4 15 33.4 38.8v50.4H108.6zm44-46c0-11.5-5.2-16.2-13-16.2-8.2 0-12.4 6.2-12.4 15.5v23h25.4v-22.3zm49 22.3V615c0-13.1-5.5-19-15.6-19-9 0-14.7 5.8-14.7 19.1v21.7h30.3zM220.3 546.3h-79.7c2.3 4.9 4.2 14 4.6 19.3h-17.3c-1.9-10.1-7.6-20.3-14.3-26.4v-16.4h106.7v23.5zM220.3 509.1h-1.5c-18.6 0-33.7-8.3-50.5-31.4-11-15-14.8-19.6-24.1-19.6-9.2 0-14.4 4.5-14.4 13.5 0 10.4 6.4 14.2 15.7 15.7v22.4c-18.4-1.5-33.7-13.6-33.7-38.1 0-27.4 16.3-36.8 32.3-36.8 15.5 0 23 6.7 36.8 26.3 9.2 13.1 15.3 18.4 20.1 20.2v-50.5l19.3 2.9v75.4z"/><path fill="none" d="M361 351.7h200v200H361z"/><path d="M422.9 510.8v-1.5c0-18.6 8.3-33.7 31.4-50.5 15-11 19.6-14.8 19.6-24.1 0-9.2-4.5-14.4-13.5-14.4-10.4 0-14.2 6.4-15.7 15.7h-22.4c1.5-18.4 13.6-33.7 38.1-33.7 27.4 0 36.8 16.3 36.8 32.3 0 15.5-6.7 23-26.3 36.8-13.1 9.2-18.4 15.3-20.2 20.1h50.5l-2.9 19.3h-75.4z"/><circle cx="461" cy="452" r="100" fill="none" stroke="#000" stroke-miterlimit="10" stroke-width="10"/><g stroke="#000" stroke-miterlimit="10" stroke-width="2"><path d="M297.6 453.5c.2.2.4.5.4.8.7 3.1 1.3 6.2 1.8 9.3.2 1.4.5 2.8.7 4.1 0 .2.1.6.4.5 1.3-.2 1.1.8 1.1 1.4.5 4.2 1.5 8.4 2.3 12.6.6 3.2 1.2 6.3 1.8 9.5.1.8.4 1.5.5 2.3.2 1.3.8 1.7 2.1 1.2 2.3-.9 2.5-.7 2.6 1.7 0 .5 0 1 .1 1.5s-.4 2.2 1.1.6c.3-.4 1.2-.4 1.4.6.4 1.5.3 3.1.4 4.6.1.7-.7 1-1.2 1-.9.1-1.1.6-1 1.3.1 1.9.2 3.9.3 5.8 0 .6.5.7.9.6 1.2-.1 1.6.4 1.7 1.6.1 1.8.3 3.6.6 5.4.3 2.2-.6 3.1-3.2 3.3-.7.1-1.4.3-2.1.4-.7.1-.7.4-.6 1 .3.8.4 1.7 1.2 2.3.8.6.6 1.4-.1 2-.6.5-.6.9-.5 1.6.7 2.7 1.2 5.4 1.8 8.2.4 1.8.9 3.6 1.3 5.4.1.3.2.7.2 1 0 .7.7 1.7-.7 2-1.5.3-2.6-.3-2.9-1.5-.4-2-.8-4-1.3-5.9l-1.8-7.5c-.1-.4-.2-.8-.2-1.1-.1-.8-.3-1.4-1.2-1.6-1-.3-1.2-1.2-.7-2.2 0-.1.1-.1.1-.2.1-.7.6-1.5.1-2.2-.5-.8-1.3-.3-2-.2-1.9.1-3.7.8-5.6 1.1-1 .2-2 .1-3 .2-.5 0-.9-.3-1.2-.6-1.6-1.5-3.2-3.1-4.9-4.7-1-.9-1.3-2.3-1.5-3.4-.4-2.8-1.1-5.5-1.7-8.2-.2-1.2-.5-2.4-.7-3.5-.1-.4-.2-.9.3-1.1.5-.2 1 0 1.2.5.4.7.9.6 1.5.5 2.9-.5 5.9-1.1 8.8-1.6 1-.2 1.6-1.6 1.1-2.5-.2-.3-.5-.2-.7-.1-.6.3-1.3.2-1.9.1-2.1-.4-2.4-.8-2.6-2.9-.3-2.4-1-4.7-1.5-7.1-.4-1.7-.8-3.3-1.2-5-.2-.7.2-1.1.6-1.6.7-.8 1.5-1.4 2.5-1.6.9-.2 1.2-.7 1-1.6-.4-1.6-.6-3.2-1.1-4.8-1-3.2-1.3-6.5-2-9.8-.7-2.8-1.2-5.7-1.8-8.5-.1-.6-.3-.9-1.1-.7-1.7.4-3.2-.7-3-2.4.3-3.4-1-6.6-1.6-9.8-.6-2.8-1.2-5.7-1.9-8.5-1.2-5.2-2.4-10.4-3.6-15.7-1.2-5.5-2.4-11.1-3.6-16.6-.7-3-1.5-5.9-2.2-8.8-1-4-1.9-8-2.8-12-1-4.3-2-8.5-2.9-12.8-.3-1.1-.5-2.2-.7-3.3-.6-2.9-1.5-5.8-2-8.7-.2-1.5-1-2.9-1.2-4.4-.7-4.3-2-8.4-2.7-12.7-.3-1.6-.7-1.9-2.3-2-.6 0-1.1-.2-1.4-.7-.3-.6.1-1.1.4-1.6 1-1.5 2.5-2 4.2-2.2.7-.1.7-.3.6-.9-.2-.8-.3-1.6-.5-2.4-.2-1.1-.4-1.9-2-2-1.2-.1-1.8.1-2.8.7-.9.6-2.1-.1-2.9-.7-1.5-1.2-2.7-2.6-4.1-3.9-2.6-2.4-4.9-5-7.4-7.4-.3-.3-.6-.4-.9-.2-.8.6-1.7.3-2.6.4-.4 0-.7-.2-.9-.4-.9-1-1.9-2-2.8-3-.9-1-1-2.3-.3-3.4.1-.2.4-.4.1-.6-.2-.2-.5-.1-.6 0-.6.5-1.1 1-1.7 1.6-.4.4-.1.6.2.9 2.7 2.8 5.5 5.5 8.1 8.4 1.4 1.6 2.9 3.1 4.4 4.6.5.6.6 1.2.2 1.7-.5.6-1.1 1.4-2.1 1.1-.4-.1-.8-.9-1.3-.3-.4.6.3.7.6 1.1.2.2.3.5.1.8-.5 1.1-2.6 1.9-3.6 1.3-.3-.1-.5-.3-.7 0-.2.3-.1.6.1.7 1 .7.6 1.3-.1 1.9-1.4 1.2-1.7 1.2-2.6.3-5.4-5.6-10.8-11.1-15.9-16.9-.9-1-1.9-1.7-2.6-2.8-.3-.5-.8-.5-1.3-.1-1.3.9-2.6 1.9-3.7 3-.7.7-1.1.6-1.7-.1-2-2.2-4.1-4.5-6.1-6.7-.5-.5-1.4-.7-1.4-1.5 0-.7.9-1 1.3-1.6.7-1.1 1.7-1.9 2.3-3.1.2-.5.3-.8-.1-1.3-3.3-4-7.2-7.6-10.7-11.4-2.8-3-5.7-5.9-8.6-8.9-.7-.7-.6-1.2.1-1.9.9-.8 1.7-1.2 2.7-.3.2.2.4.2.6 0 .1-.1.1-.3 0-.4-1.1-1 0-1.8.5-2.4.5-.6 1.3-1.2 2.2-.3.2.2.5.1.7-.1.3-.2.3-.5.2-.8-.4-.9.2-2.4 1.1-2.7.7-.3 1 .3 1.4.7 1.8 1.8 3.5 3.6 5.3 5.4 2 2 3.9 4 5.8 6 1.1 1.2 1.6 1.1 2.7-.1 1.4-1.7 1.5-1.7 3 0 4.1 4.4 8.3 8.7 12.4 13.1 2.6 2.8 5.2 5.8 7.8 8.7.3.3.5.7 1.2.7-2.4-2.6-4.7-5.2-7-7.7-4.3-4.7-8.5-9.4-12.9-13.9-1-1-1.7-2.5-3.4-2.7-.1 0-.3-.3-.3-.3.4-1.1-.5-1.5-1-2.1-.6-.6-.5-1 .2-1.3 1-.5 2-.5 3.1-.2.5.2.8.6.8 1.2 0 .5.2.8.5 1.1 1 1 1.1 1.1 2.1.1.8-.8.8-1.2-.1-2.1l-.7-.7c-.9-1.1-.6-2.2.7-2.8.1-.1.3-.1.4 0 .2.1.3.5.1.6-.8 1 .2 1.3.7 1.8.6.7.9-.2 1.3-.4.2-.1.3-.2.5-.3-.5-.5-1-.9-1.5-1.4-.8-.7-1-1.7-.4-2.4s1.2-.6 2.2.2c1 .8 1.2 2.2 2.3 3.1 1.3 1 2.3 2.2 4 2.4.6.1.9.7 1.2 1.2.9 1.3 1 1.1 2.3.3 1.3-.8 1.2-1.8 1.2-3.1-.1-1.8-1.1-3.1-2.3-4.3-1.3-1.4-2.5-2.7-3.8-4.1-.3-.4-.7-.7-1.3-.7-.9-.1-1.2-1.1-1.8-1.7-.8-.7-1.4-1.5-2.1-2.1-.5-.5-1.1-.5-1.7-.1-2 1.3-4 2.5-6 3.7-.5.3-.9.6-1.1 1.2-.1.4-.4.5-.7.7-.3.2-.7.3-.8.5-.3 1.4-1.8 1.7-2.4 2.8-.2.4-.6.7-1 .7-1.1.1-2 .6-2.8 1.3-.3.3-.8.5-1.1 0-.3-.4-.2-.9.2-1.2.4-.3.6-.6.9-.9.3-.3.4-.5.1-.9-.7-.8-.2-1.3.5-1.6.8-.3 1.4-.8 1.6-1.5.1-.4.4-.6.8-.6.5-.1.9-.3.9-.9 0-.1 0-.3.1-.3 1.5-.7 1.4-2.1 1.8-3.4.2-.8.6-1.7 1.2-2.3 3.3-3.5 6.1-7.3 9.3-10.9.3-.4.5-.8.4-1.4-.1-.8.4-1.3 1.1-1.4 1.2-.2 2.2-1.1 2.5-2.4.1-.7.5-1 1.2-1.1 1.9-.2 2.7-2 4-3.1.3-.3 0-.6-.2-.9-1.8-1.8-3.5-3.7-5.3-5.4-.7-.7-1.7-1.1-2.5-1.6-.5-.3-.7-.7-.7-1.3 0-2-.2-4 .1-5.9.1-.6-.3-.9-.7-1.2-3.7-3.5-7.2-7.2-10.8-10.8-2.5-2.5-4.8-5.1-7.3-7.6-5.6-5.7-11-11.6-16.6-17.3-11.9-12.2-23.7-24.4-35.5-36.6-2.9-3-5.7-6.2-8.7-9.2-4.1-4-8-8.3-12.1-12.3-.9-.8-1.5-2-2.7-2.5-4.1-1.9-7.4-5-11.6-6.7-.2-.1-.5-.3-.7-.3-1.1.4-1.5-.3-1.8-1.1-.6-1.8-1.9-3-3-4.4-1-1.1-2.2-2.1-3-3.4-.3-.4-.6-.4-1-.3-.7.2-1.3-.1-1.7-.7-.4-.7-.7-1.4-.2-2.2.7-1.1 1.7-2 1.6-3.5 0-.3.3-.6.6-.9 1.9-1.9 3.9-3.8 5.8-5.7.6-.5 1.1-.9 2-.8.9.1 1.6-.6 2.4-.9 1.4-.6 2.3-.1 2.7 1.2.6 1.8 1.8 3.1 2.9 4.4 1.3 1.5 2.6 2.9 4.6 3.6.7.2 1.2.8 1.3 1.8.1 1.2.4 2.3 1.1 3.3 1.4 2.2 2 4.9 3.8 6.9 1.2 1.4 2 3 2.8 4.5.5 1 1.4 1.5 2.2 2.3 4 4.1 8.3 7.8 12.4 11.8 2.8 2.7 5.6 5.5 8.5 8.1 4.2 3.8 8.2 7.9 12.3 11.8 4.4 4.1 8.7 8.3 13 12.5 4.8 4.6 9.6 9.2 14.3 13.8 3.2 3 6.2 6.3 9.3 9.3 3.5 3.4 7.1 6.7 10.6 10.2 3.9 3.9 8.1 7.4 11.9 11.4.6.6 1.2.9 2 .9 2 0 4-.3 5.9.1.7.1 1.3.4 1.9.8.2.1.5.3.5.5-.3 1.9 1.5 2.5 2.4 3.6 1.1 1.3 2.5 2.5 3.7 3.7.5.5.9.6 1.4.1.2-.2.5-.3.6-.5 4.2-4 8.7-7.7 12.8-11.7 1.1-1.1 2.3-2.1 3.4-3.1.4-.4.5-.7 0-1-.6-.4-.3-.8 0-1.2 1.3-1.6 3-2.7 4.7-3.7 1.4-.8 2.8-.1 3.6 1.8.6-.8 1.9-1.1 1-2.5-.4-.7.2-1.2 1.1-1.5-2-.7-3.3-2.1-4.5-3.7-.4-.6-.4-1.1 0-1.6 1.5-1.6 3-3.2 4.7-4.5 1.1-.8 2-.4 2.8.3.8.7 1.5 1.5 2.3 2.2.3.3.5.7.4 1.2-.3.9.1 1.3.9 1.6.6.2 1.4.7 1.2 1.2-.3.8-.2 2-1.5 2.2-.7.1-.9.4-.8 1.1.2 1-.6 1.6-1.3 2.2-1.2.8-2.2 1.8-3.1 2.8-.3.3-.4.6-.2 1 .8 1.7.3 3.3-1.2 4.5-.6.4-.8.9-.9 1.5-.2 1.2-.7 2.2-2.2 2.4.9 1.1 1.8 2 2.7 2.8.6.5 1.1 1 .7 1.9-.2.4.1.7.4 1 1.1 1.1 2.4 2 3.3 3.2 1.8 2.5 4.5 1.7 6.8 2.3.6.2 2.6-1.5 2.8-2.1.1-.3 0-.5-.1-.8-.7-1-1.2-2.2-2.5-2.8-.7-.4-1.3-.9-1.4-2-.1-.9-1.2-1.5-1.9-2.1-.7-.5-1.4-1-2-1.6-1-.9-.9-2.2.4-2.6 1.3-.4 2.1-1.2 2.9-2.2.4-.6.8-.6 1.3-.1.6.4 1 1 1.5 1.4.4.3.7.7 1.2.4.4-.3.9-.6.9-1.1 0-.6-.5-1.1-1-1.1-1.1-.1-1.8-.6-1.8-1.6 0-1.1.4-2.2 1.2-3 .5-.5 1-.3 1.5.3.8.9 2.2 1 3 .2 1.9-1.6 1.9-1.6.1-3.4-3.6-3.7-7.2-7.6-10.9-11.2-.4-.4-.7-.8-.2-1.3.5-.5.8-1.4 1.9-1 .4.1.8.6 1.1.1.4-.5-.2-.8-.4-1.2-.3-.5-.3-.8.2-1.2.7-.5 1.4-.8 1.9-1.5.3-.4.7-.2 1 .1.4.5.9.5 1.5.1 0-.1 0-.2-.1-.3-1-1.3-.7-2.4 1-2.8.5-.1.8.1 1.1.4 3.2 3.4 6.6 6.6 9.6 10.2 1.1 1.3 2.5 2.3 3.6 3.6 1.8 2 3.9 3.8 5.5 5.9.5.6 1.1.6 1.7.3 1.2-.6 2.3-1.4 3.4-2.2.3-.3.7-.6 1-.8 2.2-1.4 2.9-1.3 4.6.7 1.2 1.4 2.5 2.7 3.8 4 .8.8.6 1.5.1 2.3-1 1.8-2.4 3.5-3.6 5.1-.7.9-.6 1.5.2 2.4 2.9 3.2 5.9 6.4 9 9.5 3.2 3.3 6.3 6.7 9.7 9.9.8.8.3 2.9-.8 3.2-.4.1-.6-.1-.8-.3-.3-.1-.6-.1-.7.1-.2.3-.1.6.2.8.9.6.8 1-.1 1.5-.3.2-.6.5-.9.8-.6.7-1.1.9-2 .4-.7-.4-1.1 0-.9.7.3.9-.1 1.6-.8 2.1-.7.5-1.3.4-1.8-.2-3.9-4.3-8-8.4-12-12.6-.6-.6-1.1-.7-1.8-.1-.7.7-1.4 1.3-2.2 2.2 1-.5 2-.3 2.8-.7.6-.3 1.1-.1 1.5.3.5.6 1 1.2 1.6 1.7 1.7 1.3 1.5 3 1.2 4.7-.1.4 0 .6.3.8l5.4 5.4c1.7 1.8 3.5 3.5 5.2 5.3 1.2 1.2 1.3 2.1.3 3.5-.5.7-.7 1.3-.2 2.2.4.8.3 1.7-.1 2.6-.3.7-.1 1 .7 1 .2 0 .4 0 .6.1.6.1 1.3.6 1.9.4.7-.2.4-1.1.6-1.7.5-1.2 1.5-1.5 2.6-1.7.7-.1 1.1-.3 1.5-.8.8-1 2.2-.9 2.2.3.1 2.2 1.8 2 3.1 2.4 4.4 1.1 8.7 2.2 13.1 3.3 4.5 1.1 9 2.1 13.5 3.2 3.5.8 7.1 1.7 10.6 2.6 4 1 7.9 2 11.9 2.9 6 1.5 12 3 18 4.4 4.8 1.2 9.6 2.3 14.4 3.5 6.6 1.7 13.2 3.4 19.7 5 1.3.3 2.7.3 4 .6 1.7.4 2.4 1.1 2.1 2.8-.2 1.2.3 1.6 1.4 1.8 5 1.3 10 2.6 14.9 3.9 1 .3 2 .3 2.9.7.1.1.4.1.4.1 1.1-.7 2-.1 2.9.3.5.2.9.2 1.1-.4.1-.4.4-.7.7-1 .2-.2.4-.4.1-.7-.7-.9 0-1.6.5-2.2.6-.7 1.3-.6 2-.3 1.3.6 2.6.6 3.9 1 .8.2 1.1.7.9 1.5-.5 1.4.2 2.9-.4 4.2-.1.2.1.3.2.3.2 0 .3 0 .4-.2l.3-.9c.6-2.3 2.3-3.3 4.6-2.7 4 1 8 2.1 12 3.2.4.1.9.4 1.3.6 1.6.8 1 2.1.9 3.3 0 .3-.2.6-.2.9 0 .3-.4.8.3.9.4 0 .8-.2.9-.7l.6-2.7c.4-2.2.8-4.5 1.3-6.7.1-.6.3-1.1-.4-1.5-.4-.2-.3-.7-.1-1 .2-.4.4-.8 1-.6 4 1.2 8.1 1.8 12 3.1 1.4.5 2.4 1.4 3.4 2.6 1.4 1.8 3 3.4 4.6 5.1.6.7.9 1.3.7 2.3-.6 2.5-1.1 5.1-1.4 7.7-.1.7.1 1.1.9 1.1.3 0 .6.1.9.1 1.4-.4 2.6-.3 3.3 1.2.2.3.7.3 1 .4 3.6.9 7.1 1.9 10.7 2.8 1.5.3 2.9.7 4.4 1.1.7.2 1.5.4 1.3 1.5-.1 1-.6 1.6-1.7 1.6-.7 0-1.5-.1-2.2-.3-4.4-1.1-8.7-2.3-13-3.5-.6-.2-1.2-.3-1.6.4-.6.9-1.4.8-1.9.1-.7-.9-1.8-1.1-2.8-1.6-.6-.3-.8-.1-.9.5-.2 1.3-.5 2.7-.8 4-.2 1.1-.9 1.6-2 1.5-1.9-.2-3.9-.4-5.8-.6-1-.1-1.5-.6-1.3-1.7.3-1.1-.1-1.5-1.3-1.5-1.3 0-2.7-.3-4-.5-.8-.1-1.4-.2-1.5 1-.1 1-.9 1.5-1.9 1.4-1-.1-2.1-.1-3.1-.2-.5 0-.9 0-1 .6-.2 1.1-.4 2.2-.1 3.3.3 1.1 0 2.4-.9 3.1-.4.3-1.1 1.1-1.4-.3-.1-.5-.7-.7-1.2-.1-.6.6-.9.4-1.2-.3-.3-.8-.3-1.6-.1-2.3.4-1.3.3-2.7.6-4 0-.2.1-.4 0-.5-.9-1-.9-2.2-1-3.5 0-.5-.6-.4-.9-.5-1.1 0-2.3 0-3.4-.1-.3 0-.7 0-.8.3-.2.9-.9 1.6-.8 2.6 0 1.1-.3 2.1-1.5 2.5-1.2.5-2.3.5-3.3-.4-.2-.2-.4-.5-.8-.3-.9.5-1.7 0-2.6-.2-2.1-.6-4.1-1.4-6.3-1.6-1.5-.1-3.2-.5-4.5-1.7-.5-.5-1.2-.5-1.8-.8-2.8-1.2-5.8-1.9-8.6-2.8-3.6-1.2-7.2-2.2-10.8-3.3-2.6-.8-5.2-1.5-7.8-2.3-.8-.2-1.5-.1-2.2.3-2.4 1.3-5.6.1-6.9-2.6-1.1-2.2.2-5.3 2.5-6.4.2-.1.4-.1.5-.2.3-.1.7-.3.7-.7 0-.5-.5-.5-.8-.6-3.1-.7-6.2-1.5-9.3-2.2-3-.7-6-1.4-9.1-2-4.2-.9-8.4-1.7-12.7-2.6-3.1-.6-6.1-1.3-9.2-2-2.8-.6-5.5-1.2-8.3-1.8-.7-.2-1.1 0-1.2.8-.1 1.3-.8 2.3-1.7 3.1-1 .9-2.2.8-3.5-.1-1-.7-1.5-2.1-1.2-3.2.5-2.2.6-2.2-1.7-2.8-6.4-1.5-12.8-3-19.2-4.4-5.9-1.3-11.9-2.6-17.9-3.9-5-1.1-9.9-2.4-14.9-3.6-2.4-.6-4.8-1.2-7.2-1.5-1.7-.2-3.5-.6-5.1-.6-1.3 0-3.2-.3-4 1.8-.4 1.1-1.6 1.8-2.7 2.4-.7.4-1.5 0-2.6-.2.7 1 1.3 1.7 2 2.2 1.8 1.5 1.9 1.6.2 3.3-1.2 1.2-2.4 2.4-3.7 3.5-.7.6-.6.9-.1 1.4 2.8 3.4 6 6.4 9 9.6l10.8 11.1c.8.8 1.7 1.4 2.4 2.2 3.6 4.5 7.6 8.5 11.7 12.6 4.3 4.3 8.5 8.7 12.9 12.9 2.1 2.1 4.1 4.2 6.3 6.2.3.3.7.5.3 1-.3.4.1.6.3.9.3.4.3.8 0 1.2-.4.4-.8 0-1.1-.2-.1-.1-.2-.2-.3-.2-1.3-1.3-1.3-1.3-2.6 0-1.9 2-4 3.7-5.7 5.8-.9 1-1.9 1.9-3 2.8-.7.5-.6.9-.1 1.4.2.2.5.4.6.7.4.6 1.1 1.3.2 2-.8.6-1.8.5-2.5-.4-.5-.6-1-1.4-1.6 0-.3.6-.8.5-1.2 0-.5-.5-.8-1-1.6-.3-.5.4-1.1-.2-1.5-.6-1.7-2.1-3.9-3.8-5.8-5.8l-8.1-8.4c-2.7-2.8-5.5-5.5-8.2-8.2-.6-.6-1.3-.7-1.8 0-.9 1.2-1.7 1-2.7.2-.9-.7-2-1.2-2.4-2.5-.1-.4-.5-.7-.8-1-3.1-2.6-5.6-5.7-8.5-8.5-1.9-1.8-3.6-3.8-5.4-5.6-.7-.7-1.5-1.3-2.4-1.8-1.1-.6-2.3-1.1-2.9-2.3-.2-.4-.6-.7-1-.9-1.7-.7-3-2.1-4.1-3.5-.3-.3-.6-.8-1-.4-.5.4-.2.8.2 1.1 1.8 1.7 2.5 4 3.1 6.3.7 2.4 1.4 4.9 2 7.3.3 1.2 1.1 2 1.9 2.8 4.1 4.4 8.2 8.8 12.5 12.9 3.7 3.5 7.1 7.3 10.7 10.9.5.5 1.4 1 .8 1.9-.5.8-2 .8-2.8.1-1.3-1.1-2.5-2.3-3.7-3.5-3-3.1-6-6.1-8.9-9.2-3.9-4-7.9-8-11.6-12.2-.9-1-1.2-2.3-1.6-3.6-1-3.3-2-6.7-3-10-.6-1.9-2.3-3-3.6-4.4-.2-.2-.4-.2-.6 0-1 .8-2.1.6-3.2.4-.3-.1-.6 0-.9.2-.5.6-1.1.7-1.7 0-.1.8.1 1.4.3 2 .2.5.5.6 1 .5.6-.1.4-.6.2-.9-.1-.3-.3-.8.1-.9.5-.2.5.4.7.7.6 1.5.6 3.2 1.2 4.7.3.9.8 1.5 1.8 1.6 1.5.1 2.9.6 4.4.3.4-.1.8 0 .8.4.1.5-.3.5-.7.6-4 .4-7.8 1.6-11.8 2.4-.3.1-.9 0-.8.6.1.4.6.2.9.1 3.6-.8 7.3-1.6 10.9-2.3.4-.1.9-.1 1.2-.3.2-.1.5-.3.7.1.1.3-.1.6-.3.7-.5.2-1.1.4-1.7.5-.9.2-1.9.5-2.9.6-1.1.1-1.1.7-.8 1.5.5 1.5.9 3 1.4 4.6.2.7.3 1.3-.5 1.5-.7.2-1.5.4-1.9-.8-.5-1.9-1.2-3.7-1.8-5.6-.4.3-.3.7-.2 1 1.3 4.7 1.9 9.6 2.9 14.4 1.3 6.1 2.4 12.2 3.9 18.3 1 4 1.8 8 2.6 12.1.9 4.2 1.6 8.5 2.6 12.6.6 2.3 1 4.6 1.6 6.9.2 1 .8 1.5 1.9 1.8 1.5.5 2.8-.2 4.2-.2 1.1 0 1.7.4 1.8 1.4.2 2 .7 4 1.3 5.9.6 2 .8 4.1 1.3 6.1 1 3.6 1.5 7.3 2.3 10.9.8 3.6 1.5 7.3 2.3 10.9.3 1.4.2 1.5-1.2 1.2-1.1-.2-2.2.1-3.2.3-.8.2-1.6.4-2.4.2-.4 3 .5 5.8 1.1 8.6 1.1 5 2.1 10.1 3.2 15.1.4 1.8.7 3.7 1 5.6-.5 1.1-.4 1.4-.7 1.7-.5-.4-.6-1-.7-1.6-.3-1.7-.6-3.4-.9-5.2-.8-4-1.8-7.9-2.6-11.9-1-5.2-2.2-10.4-3.1-15.6-.9-5.2-2.4-10.4-3.4-15.6-.4-2.2-.7-4.5-1.4-6.7-.5-1.6-.3-3.5-1.7-4.8-.2-.2-.3-.6-.3-1-.3-1.2-.6-2.4-.8-3.6-.1-.5-.3-1 .1-1.4.5-.5.5-1.2.3-1.6-.6-1.7-.5-3.5-1-5.2-1.2-4.3-1.9-8.7-2.9-13.1-.9-4.2-1.8-8.5-2.7-12.7-.4-2-1.1-3.9-1.4-5.9-.6-3.5-1.6-7-2.1-10.5-.5-3.1-1.3-6.1-1.8-9.1-.4-2.6-1-5.2-1.8-7.7-.3-.8-.7-.8-1.4-.6-.7.1-.6.6-.5 1.1.5 2.9 1 5.9 1.7 8.8.9 3.9 1.1 3-2.4 4-1.5.4-2.4-.2-2.6-1.7-.5-2.8-1-5.6-1.6-8.3-.3-1.5-.8-2.7-2-3.7-.8-.6-1.3-1.5-2.3-2.2.3 1.6.6 3.1.8 4.5 0 .2.2.3.4.4 1 .7 1.4 2.5.8 3.6-.6-.5-.5-1.3-.7-1.9-.3-.9-.7-.9-1.4-.7-1.3.4-.5 1.5-.6 2.3-.1.6.4.9 1 .6.5-.3 1.1-.3 1.7-.3.3.5 0 1 .2 1.6.5 1.7.9 3.4 1.2 5.1.3 1.8 2.4 2 2.9 3.7h.2c.4.1.5.4.2.6-.5.3-.5.8-.5 1.3.1.5-.1.9-.7.9-.8 0-.8.5-.7 1.1 1.1 5.1 2.1 10.3 3.3 15.3 1.2 5.1 2.3 10.3 3.5 15.4.6 2.2 1.1 4.5 1.6 6.8.8 4.2 1.8 8.3 2.8 12.5.8 3.4 1.6 6.9 2.4 10.3.2.9.2 1.7 1.6 1.4.9-.2 1.3.7 1.5 1.4.1.6-.2 1-.7 1-1.5.1-1.2 1.2-1 2 .9 3.3 1.6 6.6 2.3 9.9.2.9.5 1.4 1.5 1.4s1.2.6.6 1.5c-.2.3-.4.7-.7.9-.6.4-.6.8-.5 1.5.8 4.3 2 8.5 2.9 12.8.9 4.6 2.2 9.2 3.1 13.9.8 4 1.8 7.9 2.7 11.8.7 3.1 1.3 6.3 2 9.5.5 2.1 1.7 3.5 3.9 3.8 1.9.2 3.3-.7 4.3-2.2.5-.7.6-1.2-.1-1.8-.2-.1-.2-.4-.3-.6-.4-2-.8-4-1-6-.3-2.7-.6-5.3-1.4-7.9-.1-.6-.2-1.1.2-1.6zM148.2 154.6s0 .1 0 0l16.1 16.7c5.8 6 11.7 12 17.5 18.1 6 6.2 12 12.5 18.1 18.7 5.8 6 11.5 12.1 17.5 17.8 2.1 2 4.2 4 6.3 6.1.4.4.7.6 1.2.2 2.6-2.3 4.9-5 7.5-7.2.5-.4.4-.7-.1-1.1-.5-.4-1-.9-1.4-1.4-2.1-2.1-4.1-4.3-6.3-6.4-3.4-3.3-6.8-6.4-10.2-9.7-3.9-3.7-7.8-7.5-11.6-11.3-4.1-4.1-8.2-8.2-12.4-12.2-1.7-1.6-3.3-3.4-5-5-3.3-3.1-6.7-6.2-9.9-9.4-4.3-4.3-8.8-8.3-13.1-12.6-2.7-2.8-5.7-5.3-8.5-7.9-4.6-4.2-9-8.7-13.7-12.8-1.9-1.7-3.7-3.6-5.5-5.3-.5-.5-.9-.8-1.5-.2-1.4 1.4-2.8 2.7-4.2 4.1-.4.3-.5.6 0 1.1 2.5 2.7 5 5.4 7.6 8 3.9 3.7 7.7 7.7 11.6 11.7zm248.5 126.2c-.5.5-.8.7-1.3.5-.7-.3-1.2-.9-1.1-1.6.1-1.2-.6-1.4-1.5-1.6-2.6-.6-5.1-1.3-7.7-2-2.9-.7-5.9-1.4-8.8-2.2-3-.7-6-1.4-8.9-2.2-2.1-.5-4.2-1.1-6.4-1.5-2.5-.5-5-1.2-7.5-1.8-4.5-1-9-2.3-13.4-3.4-.9-.2-1.6 0-1.9 1-.2.6-.6 1-1.2.8-1-.2-2.2-.2-3-1-.1-.1-.1-.3 0-.4.2-1.3-.7-1.6-1.6-1.8-.6-.1-1.1-.2-1.7-.4-1.5-.4-3.1-.9-4.6-1.1-1.6-.1-3.1-.1-4.3-1.4-.3-.3-1.1-.8-1.5-.1-.5 1 .2 2.3 1.3 2.5 3.4.8 6.7 1.5 10.1 2.3 1.3.3 1.5.6 1.2 1.9l-.6 2.4c-.3 1.4-.8 1.8-2.2 1.5l-5.4-1.2c-1.8-.4-3.6-.7-5.4-1.1-1.2-.3-1.4.9-1.7 1.4-.3.6.7.6 1.1.7 4.7 1.3 9.6 2 14.3 3.4 4.1 1.2 8.4 1.8 12.6 2.9 5 1.3 10.1 2.3 15.2 3.4 4.9 1.1 9.7 2.4 14.6 3.2.8.1 1.8.8 2.4.3 1.1-.8 2-.3 2.9-.1.9.2 1.8.5 2.7.5.5 0 1.5 0 1.5.7.1.9.6 1 1.2 1.1 4.2 1.2 8.5 1.9 12.7 2.8 4 .9 8.1 1.6 12.1 2.5 6.9 1.5 13.8 2.8 20.7 4.6 1 .2 2 .6 3 0 .9-.5 4 .5 4.4 1.3.4.8 1.1 1.1 1.8 1.3 3.2.7 6.4 1.5 9.6 2.2 3.4.8 6.9 1.7 10.3 2.4 2.9.5 5.7 1.9 8.8 1.3 2.3-.4 3-.9 3.2-3.2.2-2.4-.3-3.4-2.5-4.3-1.8-.8-3.8-1-5.7-1.5-4.6-1.2-9.2-2.5-13.8-3.7-3.6-1-7.3-1.7-11-2.7-4.8-1.3-9.6-2.6-14.4-3.7-4.1-.9-8.1-2.1-12.2-3-1-.2-1.2 0-1.1.9.1.5-.3.9-.7 1.1-.5.2-.9 0-1.3-.4-.3-.3-.4-.7-.5-1-.2-1-.9-1.6-1.8-1.8-3-.8-6.1-1.6-9.1-2.3-.9-.2-1.6-.3-1.7 1 .1.3-.2.5-.2.6zm-135-54c-.1.1-.1.2-.2.3 1 1 2 2.1 3 3.1 4.8 5 9.7 10 14.5 15 .9.9 1.7 1.7 3.2 1.9 3.2.4 6.3 1.2 9.5 1.8 5.7.9 11.5 1.8 17.2 2.7l12.3 2.1c1.9.3 3.8.6 5.6.9.5.1 1-.1 1.2-.5.2-.4-.1-.8-.4-1-2-1.8-3.5-4-5.4-5.8-3.4-3.1-6.6-6.5-9.7-9.9-.8-.8-1.7-1.2-2.8-1.4-4.3-.7-8.6-1.5-12.8-2.4-3.1-.7-6.2-1.3-9.2-1.9-2.7-.5-5.4-1-8.1-1.4-2.1-.3-4.1-.9-6.2-1.2-2.1-.3-4.2-.9-6.3-1.3-1.8-.4-3.6-.8-5.4-1zm-34.6 33.6c.3 1.4.6 2.5.8 3.6.4 2.4.7 4.8 1.1 7.1l2.4 13.2c1 5.5 1.9 11 2.8 16.5.4 2.3.9 4.5 1.2 6.7.3 2.2 1 4.2 2.7 5.8 1.7 1.6 3.4 3.3 4.9 5.1 1.3 1.6 2.8 2.9 4.3 4.4 1.2 1.3 2.4 2.5 3.8 3.6.8.7 1.5 1.4 2.1 2.3.2.3.6.6 1 .5.4-.1.3-.6.4-.9.1-.6 0-1.2 0-1.9 0-.3 0-.7-.4-.5-.6.3-.9.2-1.3-.2s-.6-.9-.6-1.5c0-.7.3-1.2 1.1-.9.7.3.8.1.7-.6-.6-4.3-1.5-8.5-2.3-12.8l-3.3-18c-.6-3.7-1.3-7.5-2.2-11.2-.1-.3-.1-.5-.3-.7-1-.8-1.6-1.8-2.4-2.7l-7.8-8.4c-1.6-1.8-3.4-3.5-4.9-5.3-1.3-1-2.3-2-3.8-3.2zm114.1 90.4c-.8-.6-.2-1 .2-1.4.4-.4.8-.8 1.2-1.1.5-.5.9-.9.8-1.8-.2-.9.9-1.8 1.8-1.6.6.1 1-.1 1.3-.5l1.5-1.5c1.4-1.4 1.4-1.4.1-2.9-.7-.7-1.2-1.6-2.4-.8-.4.3-1.1.2-1.4-.5-.3-.6-.1-1.1.4-1.4.6-.3.3-.5 0-.8-2.1-2.2-4.2-4.4-6.4-6.5-2.6-2.5-5-5.1-7.5-7.6-2.4-2.3-4.7-4.8-7-7.2-.4-.4-.8-.9-1.5-.4-3 2.3-5.4 5.2-8.1 7.8-.4.4-.2.7 0 1.1 1 1.3 2.2 2.4 3.3 3.6 3.7 3.8 7.3 7.6 11 11.4 2.7 2.8 5.5 5.7 8.3 8.5 1.1 1.2 2.3 2.3 3.5 3.4.3.3.5.4.9.2zM266 266.6c.1 0 .1 0 0 0-1.3 1.2-2.5 2.4-3.8 3.7-1 1-1.1 1.2-.1 2.3 1.8 1.9 3.6 3.8 5.5 5.7 4.9 5 9.7 10.2 14.8 15.1 1 1 1.4.8 2.2 0 2.4-2.5 5.1-4.6 7.5-7.1 1.1-1.2 1.2-1.2.1-2.3l-8.6-8.9c-2.1-2.2-4.3-4.4-6.4-6.6-1.7-1.8-3.6-3.5-5.2-5.6-.6-.8-1.3-.9-2.1-.1-1.2 1.3-2.5 2.5-3.9 3.8zm-14.3-23.9c-2.2-2.2-5-5.3-8-8.2-.6-.6-1-.6-1.5-.1-2.8 2.5-5.6 5-8.1 7.8-.5.6-.2 1 .2 1.4 1.2 1.3 2.4 2.5 3.7 3.8 2.5 2.5 5.1 5 7.5 7.6 2 2.1 4.3 3.8 5.9 6.2.1.2.3.4.6.3 1.3-.1 2.7 0 3.8-.8 2.7-1.8 4.3-4.3 5.1-7.5.2-.8 0-1.2-.5-1.8-2.7-2.5-5.3-5.2-8.7-8.7zm2.9 22.1c-.5-.3-.9-.2-1.3-.1-3.3.8-5.9-.1-8.2-2.6-3.2-3.4-6.5-6.7-9.8-9.9-.7-.6-1.1-.7-1.7 0-1.2 1.2-2.4 2.4-3.7 3.6-.8.8-1.5 1.5-2.2 2.3-.4.5-.5.9.1 1.4 1.1 1.1 2 2.2 3.1 3.3 2.2 2.4 4.5 4.8 6.7 7.1s4.3 4.7 6.5 7c.7.7 1.4 1.5 2.1 2.1 1.3 1 1.6 1 2.8-.2 1.3-1.4 2.5-2.8 3.9-4.1 4.2-4.2 8.5-8.3 12.8-12.5.6-.6 1.4-1.2 1.7-2.2-.3.2-.6.5-.9.7-3 2.9-6 5.7-8.9 8.7-2.9 3-6 5.7-8.7 8.9-.3.4-.8 1.1-1.3.6-.3-.3.4-.7.7-1.1.1-.1.1-.2.2-.4-.9-.1-1.5-.4-1.1-1.4.3-.7 1.3-1.1 2-.6.6.4 1 .2 1.4-.2 1.4-1.3 2.8-2.6 4.1-3.9.6-.7.6-1.2 0-1.8-.6-.6-1.1-1.2-1.7-1.8-.5-.5-.6-1.1.1-1.6.3-.2.8-.7 1.3-1.3zm9.4-9.2c.7-.3 1-.7 1.3-1.2 1.1-1.8 2-1.8 3.6-.2l.6.6c.6.8 1.1.8 1.9.1 2.6-2.3 4.9-4.8 7.5-7.2.7-.7.7-1 .1-1.6-5.3-5.4-10.5-10.9-15.8-16.4-.9-.9-1.8-1.8-2.7-2.6-.6-.5-1.2-.8-1.9-.3-2.3 2-4.5 4.2-6.5 6.4-.3.4-.2.6.1 1 3.9 3.8 7.5 8 11.5 11.7.4.3.5.8.6 1.2.4 2.9.4 5.6-.3 8.5zm74.5 8.4c.9-.1 1.6.3 2.4.5l18 4.5c5.5 1.3 10.9 2.5 16.4 3.8 6.2 1.5 12.4 3.1 18.6 4.7.5.1.9-.1 1.3-.3.6-.4 1.2-.9 2-.6 4.2 1.3 8.5 2.2 12.7 3.2.7.2 1.3.5 1.6 1.2.2.3.3.8.8.9 5.3 1 10.5 2.5 15.7 3.8 3.2.8 6.3 1.6 9.4 2.4 1.9.5 3.7 1 5.6 1.5.9.3 1.2-.4 1.4-1 .2-.5 0-1-.6-1.2-4.3-1.2-8.5-2.4-12.8-3.5-4.7-1.2-9.3-2.3-14-3.4-2.5-.6-4.9-1.3-7.3-1.9-3.5-.9-7-1.6-10.4-2.4-3.3-.8-6.6-1.8-9.9-2.5-4.6-1-9.2-2.3-13.8-3.3-5.2-1.1-10.3-2.5-15.5-3.8-2.4-.6-4.8-1.1-7.2-1.7-4.3-1-8.6-2.1-12.9-3.1-.3-.1-.6-.2-.8.2-.3.6-.5 1.3-.7 2zm-51.3 188.7c.3-.3.3-.6.2-1-.5-1.9-.7-3.9-1.2-5.8-.9-3.5-1.7-7.1-2.6-10.6-1-4.4-2.1-8.8-3.1-13.1-.1-.4-.2-.9-.4-1.1-1.3-.9-1.5-2.2-1.8-3.5-.3-1.4-.7-2.9-1-4.3-.7-2.8-1.3-5.5-2-8.3-.1-.6-.3-1.4.2-1.9.8-.8.6-1.6.4-2.5-.8-3.2-1.5-6.5-2.3-9.7-1.4-5.7-2.7-11.5-3.9-17.2-.5-2.1-1-4.2-1.6-6.3-.8-3.2-1.5-6.5-2.2-9.8-.7-3.3-1.4-6.7-2.2-10-.5-2.4-.9-4.9-1.7-7.3-.2-.5-.3-.9-1-.8-.8.1-1.2.4-1 1.3.6 2.8 1.2 5.7 1.8 8.5.9 4.7 2.3 9.3 3.1 14.1.3 1.7 1.1 3.2 1.2 4.8.1 1.6.7 3.2 1.1 4.8.9 3.8 1.9 7.5 2.6 11.4.6 3.3 1.6 6.5 2.3 9.8.9 4.3 2.2 8.5 3.1 12.8l2.7 12c.7 3 1.4 5.9 2 8.9.6 2.8 1.3 5.6 1.9 8.4.7 2.9 1.3 5.8 2 8.6.5 2.5 1 4.9 1.6 7.4.3.8 1.2 1 1.8.4zm10.6 22.5c-1.6-.1-3-.4-4.2-1.3-.2-.1-.3-.2-.5-.1s-.1.3 0 .4c.4 1.9.8 3.7 1.3 5.6.4 1.7 1.2 3.4 1.2 5.1 0 4 1.5 7.7 1.9 11.6.2 2 2.4 3.6 1.3 5.8 0 .1 0 .2.1.3.6 1.9.8 3.9 1.2 5.8.2 1.1.8 2.1 1.7 2.8-.4-1.8-.2-3.8-1.5-5.4-.1-.2-.2-.6-.1-.8.6-1.5 0-2.8-.3-4.2-.5-3.2-.2-2.4 2.3-2.8.7-.1 2.1-1 2.3.9-.1-1.3.6-2.1 1.2-3 .2-.3.4-.5.3-.9-.4-3-1.2-5.9-1.6-8.9-.4-2.8-1.1-5.5-1.7-8.2-.4-1.6-.4-3.3-1.1-5.1-.7 1.2-1.9 1.7-3.1 2.2 2.1 0 2.1 0 2.5 1.8.2 1-.1 1.5-1.2 1.4-.8-.1-1.6.1-2.3.4-1.8.7-2.6.2-2.9-1.7-.1-.9.2-1.4 1.1-1.3.7.1 1.4 0 2.1-.4zm218.9-178.3c-.5-.5-.8-.9-1.2-1.2-.3-.2-.7-.4-.8.1-.2 1.3-1 2.5-1.1 3.9-.3 2.1-.9 4.2-1.5 6.2-.1.4-.1 1-.7.8-.5-.1-.8-.7-.7-1.2.2-.5.2-1.1.2-1.6.3-2.9 1-5.7 1.1-8.6 0-.4-.1-.7-.5-.8l-6-1.5c-.5-.1-.7 0-.9.6-.9 3.3-1.2 6.7-2 9.9-.1.5 0 .9.6 1 .9.2 1.8.4 2.6.6 2.2.7 4.5 1.3 5.8 3.5.3.6.6.5 1.1.1 1.3-1.2 2.3-.9 3 .7.2.4.4.6.8.6 1.2.2 2.4.4 3.5.7.4.1.5 0 .6-.4.4-2.2.8-4.3 1.3-6.5.2-.9 0-1.5-.6-2.1-1.7-1.4-3.3-3.1-4.6-4.8zM290.3 518.4c1.2 1.3 2.5 2.6 3.7 3.8.4.4.9.8 1.5.8 2.4-.2 4.7-.5 7-1 .5-.1.7-.3.6-.8-.3-1.4-.2-2.9-.8-4.2-.4-.9-.6-1.8-.5-2.7.1-.9-.2-1.5-.7-2.1-.8-1-1.7-1.8-1.9-3.1-.2-1.4-.6-2.7-.8-4.1-.1-.7-.3-.8-1-.7-1.5.3-3 .4-4.5.6-1.8.3-3.5.6-5.3 1-.8.2-1.2.5-.9 1.5.4 1.4.7 2.9.9 4.4.1 1.3.6 1.4 1.7 1.2 2.4-.4 4.8-.7 7.1-1 .5-.1 1.1-.2 1.6 0s1 .4 1 1-.6.7-1 .8l-6.9 1.5c-.8.2-2 .1-2.4.9-.2 1 1 1.5 1.6 2.2zm-45.2-287.9c-.1-.1-.1-.2-.2-.2-.4.2-.7.4-1.1.6-1.2.6-1.9.4-2.6-.8-.5-1-.3-1.7.8-2.2.7-.3.6-.6.2-1-.7-.7-1.4-1.3-2.1-2-.4-.5-.6-.4-.8.1-.3.7-.7 1.2-1.4 1.5-.7.3-.4.5-.1.8 1.5 1.4 2.7 3.1 4.4 4.3.3.2.5.6.3.9-.3.4-.6.1-.9-.2-1.5-1.6-3-3.1-4.5-4.7-.8-.9-1.6-1.7-2.4-2.4-.6-.5-1-.4-1.5.1-2.5 2.5-5 5-7.6 7.5-1 1-1 1.2 0 2.3 2.1 2.3 4.3 4.5 6.5 6.7.6.6 1 .6 1.6 0 1.6-1.6 3.2-3.1 4.9-4.7 2.1-2.3 4.3-4.4 6.5-6.6zM105.6 112l.2.2-1.5 1.5c-.4.4-.4.6 0 1.1 1.9 2.4 4.3 4.4 6.1 6.9.4.6.8.8 1.5.1 3.4-3 6.4-6.5 9.6-9.6.2-.2.4-.6.6-.8.2-.3.3-.6-.1-.9-2.2-1.8-4-4-5.8-6.2-1.1-1.4-1.1-1.4-2.4-.1-2.7 2.5-5.4 5.1-8.2 7.8zm404 196.2c-1.5-.9-2.9-1.7-4.7-2-2-.3-4-.7-5.9-1.3-2.2-.7-4.4-1.5-6.6-2-3-.8-5.9-1.9-9.1-1.7-.3 0-.6-.1-.7-.3-.5-1.1-1.7-1-2.5-1.4-.7-.4-1.2 0-1.5.7-.9 1.8-1.2 3.6-.8 5.5.2.9 1.1 1.6 1.2 2.7 0 .1.3.1.5.1 1.1.2 2.1.4 3.3.1 1.6-.4 3.7 0 5.1 1 2 1.4 4.2 1.5 6.4 2 .9.2 2.3-1.1 2.4-1.9.2-1.1.2-2.2.6-3.3.3-.8.7-1 1.6-.8 3.6 1 7.1 2 10.7 2.6zm-77-7.3c-1.5 1.4-1.6 3.5-.4 5.2 1.3 1.8 3.6 2.4 5.3 1.3.8-.5 1.5-.6 2.4-.3 5.4 1.7 10.8 3.3 16.2 5 4.2 1.3 8.5 2.6 12.7 3.9.4.1.9.3 1.2-.1.7-.9.7-1.9.6-2.9-.1-.7-.9-.9-1.5-1-3.1-.9-6.3-1.8-9.4-2.8-4.3-1.3-8.7-2.7-13-4.1-2.7-.9-5.6-1.3-8-2.9-.4-.2-.6.1-.6.4 0 .3.1.5.2.8.5 1.9-1.1 3.9-3 3.5-2.4-.6-3.7-2.8-1.7-4.9.4-.4 1-.9.5-1.5-.6-.7-1 .1-1.5.4zM115.1 121.5c-.6.6-1.3 1.3-1.9 1.8-.5.4-.4.7.1.9.4.2.8.4 1.1.6 2.5 1.5 5.2 2.6 7.5 4.4.9.7 1.4.6 2.1-.2.8-.8.5-1.4.1-2.2-.4-.8-.2-1.5.4-2 .6-.6 1.1-.1 1.7.2.1.1.3.2.4.2.4.2.8.5 1.2.1.6-.7 1.6-1.2 1.9-2.2 0-.1-.1-.2-.1-.3-1.3-1.4-1.8-3.3-2.7-5-.7-1.4-1.8-2.7-2.2-4.3-.4-1.2-.4-1.2-1.3-.3-2.9 2.8-5.5 5.7-8.3 8.3zm189 105.5c-.1.1-.1.1 0 0 1.6 1.8 3.3 3.5 5 5.2 1.8 1.9 1.8 1.9 3.9.4.7-.5.7-.8.2-1.4-1.7-1.8-3.4-3.7-5.1-5.5-4.9-5.3-9.9-10.5-14.9-15.8-1.8-1.9-1.8-1.9-3.7 0-.6.6-.6 1.1-.1 1.7 2.9 3.2 6 6.1 8.8 9.4 1.8 2 3.9 4 5.9 6zm-3.1 88 1.7 1.7c.2.2.5.5.2.8-.3.3-.6 0-.8-.2-.8-.8-1.5-1.6-2.3-2.3-.4-.4-.8-.6-1.4-.3-.8.3-1.5.1-2-.5-1-1-1.9-2-2.8-2.9-.6-.5-.7-1-.2-1.6.4-.4.3-.8-.1-1.1-.4-.3-.7-.3-1 0-.9 1-2.1 1.7-3 2.8-.6.7-.4 1 .1 1.5 2.6 2.6 5.1 5.3 7.6 8 2.4 2.6 5 4.8 7.4 7.3.4.4.9.6 1.4 0 .7-.8 1.6-1.5 2.3-2.3.4-.4 1.3-.8.8-1.6-.4-.8-1.2-1-2.1-.7-.3.1-.7.3-1 0-1.2-1.2-2.7-2.2-3.5-3.7-.3-.6-.3-1.2.3-1.7.8-.7 1.6-1.4 2.4-2 .3-.3.7-.6.5-1.1-.2-.5-.7-.2-1-.3-.5-.1-.9-.1-1.1.6-.1.6-.7.5-1.2.4-.4 0-.6-.5-1.2-.8zm-17.4-63.7c2.1 2.4 4.1 4.7 6.4 6.8.2.2.5.5.9.4 1.6-.7 2.8 0 3.8 1.3.4.6.9 1.2 1.3 1.8.1.2.2.4.2.8-.1 1.4-.8 2.5-2 3.2-.7.4-.7.7-.1 1.2 1.6 1.6 3.2 3.2 4.8 4.9 1.1 1.2 1.4 1.2 2.5.2l.5-.5c.6-.6 1-.8 1.7-.1 1.1 1.1 1.2 1 2.4-.1.1-.1.2-.2.3-.2 1-.8 1.1-1 0-1.9-2.1-1.7-3.7-3.9-5.7-5.8-.2-.2-.4-.6-.6-.9-.1-.2-.1-.5.1-.6.2-.1.4-.1.5.1.8 1.1 1.4.5 2.1-.2.5-.5 1.1-1 1.6-1.5.2-.2.5-.4.4-.8-.1-.3-.5-.2-.7-.3-1.6-.5-2.6.6-3.4 1.7-.8.9-1.6.9-2.5.5-.7-.3-1.4-.6-1.9-1.1-1.7-1.7-3.6-3.3-5.1-5.2-1.9-2.6-4.3-3.8-7.5-3.7zm156.3 50.5c.1 0 .2.2.4.2 1.5.4 2.8 1 4.3 1.4 3.8 1.1 7.6 2.1 11.4 3.4 4.6 1.6 9.3 2.9 14 4.3 2.4.7 3.1.2 3.3-2.4v-.3c0-.4-.1-.6-.5-.7-2.1-.5-4.1-1.4-6.2-2-4.4-1.2-8.8-2-13.2-3.2-4.2-1.1-8.6-1.9-12.9-2.7-.5-.1-1-.5-1.4.1-.3.5.2.8.4 1.3.1.2.2.4.4.6zm-134.4-41.9c.4.6.8.5 1.1.5 1.3.2 2.5.5 3.1 1.8.4.8.6 1.5 0 2.3-.6.8-1.4 1.1-2.4.8-1-.3-1.9-.6-2.9-.9-.6-.2-1.1-.5-1.4-1.1-.1-.2-.3-.5-.6-.3-.4.2-.1.5 0 .8.4.9 1.4 1 2.1 1.4 1 .6 2 1.3 3.2 1.7 1.1.4 1.9 1 1.6 2.4-.1.6.2 1.4 1.1.9.8-.4 1.4-.3 2.1 0 .7.2 1.4.3 2 .4 1 .2 1.7-.1 2-1 .3-.8.8-1.4 1.1-2.2.8-2.2 1.5-4.3.7-6.7-.2-.7-.4-1-1.1-1.2-1.1-.3-2.4.2-3.4-.7-.1-.1-.3-.1-.4 0-1.3 1.2-2.3.3-3.2-.5-.5-.5-.9-.3-1.4 0-1.1.8-1.8 2-3.3 1.6zm-79.8 47.6c1.3 1.4 2.6 2.7 4 4.1.5.5.9 1.1 1.7.4 1.3-1.2 1.4-1.4.6-2.3-.8-1-1.7-1.9-2.5-2.9-3.1-3.3-6-6.8-9.3-10-2-2-3.8-4.1-5.7-6.1-.9-.9-1.9-1.9-2.7-2.8-.3-.3-.7-.9-1.3-.4-.5.5-1.1 1-1.6 1.5-.3.3-.1.6.1.8.9 1 1.9 2.1 2.8 3.1 2.4 2.6 5 4.9 7.3 7.5 2.2 2.4 4.5 4.7 6.6 7.1zm110.9 43.8c.3.2.6.3.9.5l.6.6c.8.9 1 .9 1.7-.1.5-.7 0-1-.4-1.4-2.7-2.9-5.6-5.7-8.4-8.5-3-2.9-5.7-6-8.6-9-2.8-2.8-5.6-5.7-8.2-8.7-.4-.4-.8-1.1-1.5-.3-.5.6-1.3 1-.3 2 3.4 3.5 6.9 7 10.3 10.4 4 4 7.9 8.1 11.8 12.1.2.2.6.5.3.8-.3.3-.6-.1-.8-.3-1-1-2.1-2-3.1-3-.3-.3-.7-.7-1.1-.2-.4.4.1.7.3 1 1.3 1.3 2.6 2.7 3.9 4 .2.2.6.5.6.4.9-.7 1.3 0 1.7.6.5-.3.1-.6.3-.9zm-35.5-54.5c.5 1.6 1.6 2.8 2.4 4.2 2.1 3.7 4.5 7.1 6.7 10.6.3.5.6.8 1.2.5.7-.3 1.3-.1 1.8.5.7.7 1.4 1.5 1.6 2.5.2 1 .6.7 1.1.3 1-1 2-1.9 3-2.9.5-.5.6-.8 0-1.3-3.2-3.1-6.3-6.3-9.5-9.5-.3-.3-.7-.5-1.1-.4-1.7.7-3-.1-4.1-1.3-1-1.1-2.1-2.1-3.1-3.2zm9 2.1c1.1-1 1.1-1 .1-2.1-.9-1-1.7-2-2.7-2.9-2.6-2.5-5.2-5-7.5-7.8-.6-.8-1.2-.8-1.9-.1-.9.9-1.7 1.8-2.8 2.5-.5.4-.5.7-.1 1.2.9 1 1.8 2.1 2.8 3.1.9.9 1.7 1.9 3.2 1.1.3-.2.8 0 1 .4.2.4.5.8.1 1.2-.9.8-.1 1.3.3 1.7.4.4.7.8 1.1 1.2 2.3 2.4 3.2 3 5.6 1.3.4-.2.6-.5.8-.8zM292.9 271c-.1 1.8-1 3.1-2.3 4.1-.3.3-.3.4 0 .7 2.4 2.9 5.4 5.2 7.9 8 .4.4.9.5 1.3.1 1.4-1.3 2.8-2.5 4.2-3.8.4-.4.8-1 .2-1.5-2.4-2.3-4.3-5.1-6.9-7.2-.7-.6-1-.5-1.5.2-.4.6-.3.9.2 1.4 2.2 2.2 4.3 4.5 6.5 6.7.2.2.5.4.2.6-.2.2-.4 0-.6-.2-.9-.9-1.9-1.8-2.8-2.8-2-2.2-4.3-4.1-6.4-6.3zm-9.9 2.1s-.1 0 0 0c1.3 1.5 2.7 2.9 4.1 4.3 2.1 2.1 4.1 4.4 6.4 6.3.8.6 1.2.4 1.8-.2.5-.6.7-1.2 0-1.8-.9-.9-1.9-1.8-2.8-2.8-2-2.1-4.2-4.1-6.2-6.3-2.9-3.3-6-6.4-9-9.5-1-1-1.8-2.3-2.9-3.2-.4-.4-.8-.5-1.2-.1l-1.1 1.1c-.2.2-.4.6 0 .8.7.4 1 1.2 1.5 1.7 3.1 3.2 6.2 6.5 9.4 9.7zm-11.3 10.4c-3.4-3.5-6.9-7.1-10.3-10.7-.7-.7-1.1-.6-1.7 0-.6.6-1 1.1-.2 1.8s1.4 1.7 2.1 2.5c3.1 3.3 6.3 6.5 9.4 9.8 1.5 1.5 3.1 2.9 4.4 4.5 1.5 1.8 3.3 3.2 4.9 4.8.2.2.4.4.7.3.6-.3 1.1-.8 1.4-1.4.3-.6-.3-.9-.6-1.2-3.4-3.5-6.8-6.9-10.1-10.4zm58.2 34.1c-1.8-1.8-3-3.1-4.2-4.4-.6-.7-1.1-.5-1.7 0-.7.6-.1 1 .2 1.3 2.3 2.5 4.7 5 7.1 7.5 6.2 6.3 12.4 12.5 18.5 18.7.5.5 1 .9 1.7.3.6-.6.6-1.2-.1-1.8-2.1-2-4.1-4-6.1-6-5.3-5.5-10.4-11-15.4-15.6zm-54.6-11.8c1.8 1.8 3.6 3.6 4.1 6.3.5 2.7 1.6 5.4 2.4 8 .5 1.6 1.1 3.1 2.2 4.3 2.7 3.1 5.7 6.1 8.5 9.1 3.6 3.8 7.3 7.5 11.1 11.2 1.1 1.1 2.4 2.2 3.5 3.4.4.4 1 .7 1.5.3.5-.5-.2-.9-.5-1.2-3.4-3.4-6.6-6.9-10.1-10.2-4.7-4.6-9.1-9.4-13.7-14.1-.3-.3-.6-.8-.7-1.2-.8-2.5-1.5-5-2.2-7.5-.8-2.6-1.3-5.2-3.5-7.1-.7-.6-1.2-1.3-1.8-2-1-1.2-2-2.4-3.3-3.3-.2-.2-.5-.7-.9-.3-.3.3.1.7.3.9 1 1.2 2 2.3 3.1 3.4zm-23.1-63.7c2.4 2.4 4.8 4.9 7.2 7.4.5.5 1 1.4 1.4 1.2.6-.3.4-1.3.5-2 .1-1.1.4-2.3-.7-3.1-1.4-1.1-2.6-2.5-3.8-3.8l-9.5-9.8c-1-1-1.4-.9-2.8.3-1 .9-.3 1.4.3 2 2.4 2.6 4.9 5.2 7.4 7.8zM211 310.2c0-.1 0-.1 0 0-1.2-1.2-2.4-2.5-3.5-3.7-.5-.5-.7-.5-1.2.1-.8 1.1-1.7 2.1-2.6 3.1-.4.4-.4.8 0 1.2 1.9 2.1 3.9 4.2 5.8 6.3.7.7 1.3.7 2 .1.9-.7 1.7-1.5 2.6-2.1 1-.6.8-1.1.1-1.8-1.2-1-2.2-2.2-3.2-3.2zm100.3-98.9c1.1 1.3 2.2 2.4 3.3 3.6.5.6.8.5 1.2-.1.7-1.2 1.5-2.4 2.3-3.5.5-.6.5-1.1 0-1.6-1.8-1.9-3.6-3.7-5.3-5.7-.3-.4-.5-.3-1 0-1.4 1-2.7 2.1-4.2 2.8-.6.3-.4.5-.1.8 1.4 1.2 2.6 2.4 3.8 3.7zm-82.4 64.8c.1-2-.6-3.7-.8-5.4-.1-.8-.1-1.6-.6-2.2-2.1-2.5-4.3-4.9-6.6-7.2-.4-.4-.8-.6-1.2-.3-.8.7-1.6 1.6-2.4 2.4-.1.1-.1.3 0 .3.6.3.7 1 1.1 1.4 2.6 2.4 4.8 5.2 7.2 7.6 1.1 1 2.1 2.1 3.3 3.4zm7.8-29.1-.1.1c-1-1-2-2.1-3-3.1-.5-.5-.9-.6-1.4 0-.4.5-1.3.9-.4 1.7.7.7 1.4 1.5 2.1 2.2 3.6 3.8 7.2 7.5 10.7 11.3.6.7 1.1 1.7 2 1.8 1 .2 1.9.2 2.9.5.2.1.5.2.6-.1.1-.3-.1-.4-.3-.6-1.5-1.7-3-3.3-4.6-5-2.8-2.9-5.6-5.8-8.5-8.8zm54.8 18.3.3-.3c-3.6-3.7-7.1-7.4-10.7-11l-.3-.3c-.4-.4-.8-.4-1.2 0-1.5 1.5-3.1 3-4.6 4.5-.4.4-.4.7 0 1.1 1.1 1.1 1.9 2.4 3.1 3.5.6.5.9.6 1.4.1 1-.9 2.1-1.7 3.7-2-1.5-1.6-2.9-3-4.2-4.4-.2-.2-.6-.5-.3-.9.4-.4.6 0 .8.3 1.8 2 3.8 3.8 5.5 6 .3.3.5.7.9 0 .7-1.3 1-1.3 2-.2 1.2 1.1 2.4 2.3 3.6 3.6zm-5.8 33c-1.6 1.3-1.6 1.3-.4 2.5.8.8 1.5 1.7 2.4 2.6.7.7 1.3 1.8 2.6.9.3-.2.7 0 .9.3.4.4.9.8 1.2 1.4.2.3.3 1 .8.7.4-.2.6-.8.5-1.3-.1-.3-.3-.6-.5-.9-.4-.6-.3-1.2.4-1.4 1-.3.9-.9.5-1.6-.1-.3-.3-.5-.5-.8-1.2-1.7-2.9-3-4.2-4.6-.5-.6-1-.6-1.6 0-.7.7-1.6 1.6-2.1 2.2zm-17.2-6.5c.4 1.1 1.3 1.6 1.9 2.2 2.7 3.2 6 5.8 8.9 8.9.5.6 1 .3 1.4-.1.6-.5-.1-.7-.4-1-1-1-1.1-2.4-.3-3.5.4-.5.3-.8-.1-1.2-1.7-1.8-3.4-3.5-5.2-5.3-.5-.5-.9-.6-1.6-.1-2 1.6-2 1.5-4.1.2-.1 0-.2-.1-.5-.1zm50.7-23.7c.1 0 .3.1.5.2 3.4.8 6.9 1.5 10.3 2.3.3.1.6.1.9-.1.4-.3 1.1-3.1.9-3.5-.1-.3-.4-.4-.6-.5-3.5-.8-7-1.6-10.6-2.4-.4-.1-.6.1-.8.5-.3.9-.3 2-.9 2.9 0 .1 0 .4.3.6zM515.1 320c.1.1 3.1.5 3.2.4.1-.1.3-.3.3-.5l.6-3c.1-.3.1-.9-.3-.9-1.6-.1-3-2-4.8-.5-.1.1-.5.1-.7 0-.9-.1-1.4-.8-1.6-1.6-.2-.7-.4-.8-.9-.2-.8.9-1.8 1.2-3 1.3-1.3.1-2.5-.2-3.8-.5-3.1-.8-3.1-.8-3.8 2.2-.1.2-.1.5-.1.7-.1.8.7 1.5 1.5 1.2.6-.3.5-.9.6-1.4.2-1 .6-1.2 1.6-1 2.9.5 5.9.7 8.8.7 2.2 0 2.5.2 2.2 2.3.1.3-.1.5.2.8zm-190.9-8.6c0-.6-.4-.8-.7-1.1-2.1-2.1-4.3-4.2-6.4-6.4-1.6-1.6-3.1-3.2-4.6-4.7-.2-.2-.4-.6-.9-.4-1.6.6-2 2.1-.8 3.3 3 3.1 6.1 6.1 9.3 8.9.4.3.8.5 1.3.5.9-.1 1.9-.1 2.8-.1zm-33.9-58.9c.6 1.1 1.5 2 2.4 2.9 1.8 1.7 3.2 3.7 5.4 4.8.7.3 1.3.4 1.9-.3.6-.6 1.2-1.1 1.8-1.7 1.8-1.6 1.8-2.3 0-3.8-.3-.3-.7-.4-1.2-.5-1.1-.2-2.2-.3-3.2-.5-1.3-.4-2.5-.3-3.6.7-.8.8-1.5.4-2-.4-.3-.5-.8-1-1.5-1.2zm15.7 59.8c-1.3-2.1-2.6-4.2-3.9-6.4-1.8-2.8-3.5-5.7-5.3-8.5-.6-.9-1.6-.9-2.7-.1-1 .8-1.1 1.1-.2 2.1.9 1 1.7 2.1 1.4 3.6-.1.3.1.4.3.6.6.8 1.2 1.7 1.9 2.5.4.5.8.8 1.4.3.8-.7 1.6-.5 2.2.2.9.9 1.8 1.8 2.7 2.8.2.2.6.6.5.9-.3 1.5.9 1.6 1.7 2zm-10.1-25.1c-.1 0-.1-.1 0 0 .3-.4.7-.8 1-1.1.6-.5.6-1 .1-1.5-.4-.4-.9-.8-1.6-.2-1.4 1.3-2.8 2.5-4.2 3.8l-6.6 6.3c-.6.6-1.3 1-1.9 1.7-.9 1.2.4 1.4.7 1.9.4.7.8.2 1.2-.2 3.8-3.5 7.5-7.1 11.3-10.7zm-29.3 33.1c-.6-.5-1.2-.1-1.8-.1-1.3-.1-1.9.7-1.6 2 .6 2.8 1.2 5.7 1.8 8.5.5 2.7.2 2.1 2.7 1.7 1.1-.2 1.3-.8 1.1-1.8-.6-3-1.1-6-1.7-9-.2-.5-.4-.9-.5-1.3zm41.6 193.2c.5.6 1.2 1.3.6 2.2-.4.6-.3 1-.3 1.5.1.6.4 1.2.4 1.8.1 1.6.4 1.8 2 1.5.2 0 .5-.1.7-.1 1.1-.1 2.4 0 1.7-1.8-.1-.2.2-.6.2-.9 0-.7 0-1.3-1-1.3-.8 0-1.5-.5-1.6-1.4-.2-1.1-.3-2.2-.4-3.3-.2-2.2-.4-4.5-.6-6.7-.1-.8-.1-1.4.5-2 .2-.2.4-.5 0-.8-.6-.4-1.3-.4-1.9-.1-.5.3-.5.8-.4 1.3.3 1.4.7 2.9 1 4.3.3 1.6.4 3.2-1 4.4-.6.5-.5.9.1 1.4zm-8.9-213.9c0 .3.1.5.3.7 1.5 2.1 2.6 4.4 4.1 6.5 1.6 2.4 3.1 4.9 4.6 7.3.6.9 1 .9 1.8.5 1-.5.3-1 .1-1.5-.1-.5-.5-.9-.7-1.3-2.1-3.4-4.3-6.8-6.4-10.3-.6-1-1.3-1.9-2.1-3-.6 1.3-.6 1.3-1.7 1.1zm-52.9-37.3c1.2 1 2.4 1.8 4.1 1.7 2.2-.1 4.8.2 6.4-1.5 1.3-1.3 3.2-2.2 3.8-4.1.1-.3.4-.4.7-.4 1.2-.3 1.5-1.2 1.8-2.2.4-1.7.6-3.5.6-5.3 0-2.1-.2-4.1-2.5-5.3 1.4 1.1.9 2.5.9 3.7.1 4-1 7.6-3.5 10.7-1.1 1.3-2.4 2.3-4.1 2.7-2.2.4-4.4.6-6.6-.1-.5-.2-1-.2-1.6.1zm15.8 23.3c.3-.6-.1-.9-.3-1.1-1.2-1.2-1.1-2.5.2-3.6.2-.2.4-.4.7-.2.3.2.1.5-.1.7-.3.5-.6.9-.8 1.4-.2.4.1.7.4.9.2.1.3.1.5-.1.5-.5.8-3.3.3-3.8l-4.2-4.5c-.4-.5-.8-.5-1.3-.1-.8.6-1.4 1.5-2.1 2.1-.5.4-.5.8 0 1.2l4.8 5.1c.5.6 1.2 1.3 1.9 2zm13.3-57 .2-.2c-2.8-2.4-4.9-5.5-7.6-8-.5-.5-1-.4-1.3.2-.5.8-.9 1.7-2.1 1.8-.5.1-.4.5-.1.8 1.2 1.3 2.4 2.6 3.6 3.8.1.1.4.2.6.2 2.2.5 4.5 1 6.7 1.4zm34.4 299.2c-.8.1-1.4-.5-2.1-.4-.4 0-1-.1-.8.6.8 3.2 1.5 6.3 2.2 9.5.6 2.6 1.2 5.1 1.8 7.7.2.9.9.9 1.5.9.8-.1.2-.7.3-1 0-.3 0-.5-.1-.8-1.1-4.8-2.3-9.7-3.4-14.5-.1-.7-.3-1.5.6-2zm-82.5-231.3c.2.8.7 1 1 1.4 1.3 1.9 2.9 3.5 4.5 5.2.2.2.4.6.8.4.3-.2.1-.5 0-.8-.2-1.2-.5-2.4-.7-3.6-.5-3.8-1.6-7.5-1.9-11.3 0-.2-.1-.4-.4-.4-.1.5-.2 1-.3 1.6-.1.6-.2 1.2-.4 1.7-.3.7-.2 1.2.5 1.7 1 .8.8 1.9-.4 2.3-.8.2-1.2.7-1.3 1.4-.2.6-.5.9-1.4.4zm86.2 35c-.3-.3-.6-.7-1-1-.2-.2-.4-.4-.7-.2-.3.2-.1.5.1.7.6.7 1.1 1.4 1.8 2 3.6 3.3 6.8 7 10.4 10.4 2.7 2.6 5.3 5.4 7.9 8 .8.8 1.6 1.7 2.5 2.4.2.2.6.4.8.1.3-.3 0-.6-.3-.8-1-.7-1.8-1.6-2.6-2.5-6.3-6.3-12.4-12.9-18.9-19.1zm-55.3-113c1.7-1.7 3.4-3.3 5.1-5 .3-.3.9-.5.5-1-.4-.4-.8.1-1.1.4-1.7 1.6-3.6 3-5.2 4.7-1 1-2 1.9-3.1 2.9-2.9 2.5-5.7 5-8.4 7.7-.3.3-.8.6-.2 1 .4.3 1 .5 1.3-.1.4-.9 2.2-.7 1.8-2.2 0 0 0-.1.1-.1.9-.2 1.3-1 1.9-1.6 2.5-2.1 4.9-4.5 7.3-6.7zm227.5 80.1c-.8.7-.7 1.4.7 1.9.3.1.5.2.8.2 3 .6 5.9 1.8 9 2.2.5.1 1.2.7 1.5 0 .3-.7-.2-1.4-.6-1.9-.2-.2-.6-.3-.9-.4-3-.8-5.9-1.6-8.9-2.4-.5-.1-1-.2-1.6.4zm-4.1 21.2c1.4-1.2.9-3.8-.9-4.4-.7-.2-1.3-.4-2-.6-3.1-1-2.4-1.4-3.6 2.1v.2c-.2.6 0 .8.5 1.1 1.7.9 3.6 1.1 5.4 1.7.2 0 .4.1.6-.1zm6.6-4.8v-.7c0-.7 0-1.5.1-2.2.1-1-.3-1.5-1.1-1.9-1-.5-2.2-.5-3.3-.8-.9-.2-1.3.2-1.2 1 .1.9 0 1.8-.2 2.7-.1.8.1 1.5 1.1 1.7 1.3.2 2.5.2 3.8.4.3 0 .5-.1.8-.2zm39.7 1.2c.4.4 1 .3 1.4.4 4.4 1.6 9 2.5 13.5 3.7.4.1.8.1 1.2.1.4 0 .8-.2.9-.6.1-.4-.3-.6-.6-.7-.8-.3-1.5-.6-2.3-.8-3.7-.7-7.2-1.9-10.8-2.8-.8-.2-1.6-.3-2.4-.5-.4-.1-.8.1-1 .5-.2.3 0 .5.1.7zm-239.6-85.3c3.1 1 13.4 3 14.3 2.7-1.3-1.3-2.5-2.5-3.7-3.8-.8-.9-1.8-.6-2.7-.4-.3.1-.5.2-.4.6.3.9-.3 1-.9 1.2-.6.2-1.1-.1-1.3-.7-.2-.5-.5-.5-.9-.4-1.3.2-2.7.5-4.4.8zm16.2 90.2.3.3c1.2 1.3 2.9 1.4 4.3.4.8-.6.9-2.3 0-3.6-.3-.6-.4-1.2-1.3-1.4-1.3-.3-2.2 0-3.2.8-1.8 1.7-1.9 1.7-.1 3.5zm-42.7-14.8c-.3-.3-.5-.6-.8-.8-2-2-1.5-2.1-3.7.1-.5.5-.5.9 0 1.4.9.9 1.8 1.9 2.8 2.8 1.8 1.8 1.8 1.8 3.6 0 .6-.6.5-1 0-1.6-.7-.6-1.3-1.2-1.9-1.9zM294.3 486c-.2-.2-.4-.2-.6-.1-.8.4-1.1 1-1 1.9.2 2.5 1 5 1.6 7.4.2.9.4 1.7.7 2.6.2.6.7 1 1.3.8.7-.2.5-.7.4-1.2-.3-2.9-1.1-5.8-1.7-8.7-.2-.9-.2-1.9-.7-2.7zm-28.1-185.1c-.2.2-.3.4-.5.5-1 .6-.9 1.1-.1 1.8.8.8 1.8 1.4 2.5 2.4.4.6 1.1.7 1.7 0 .5-.6 1-1.1 1.5-1.6.4-.4.4-.7.1-1.1-.5-1-1.4-1.6-2.2-2.2-1.4-1.3-1.4-1.3-2.8 0 0 .1-.1.2-.2.2zm1.1 12.2c-.4.5-.9.8-1.3 1.2-2 1.8-2 1.8-3.8 0-.3-.3-.6-1-1.2-.3-.4.5-1 1-.2 1.8.7.7 1.3 1.4 1.9 2.2.4.5 1 1.4 1.7.1.1-.2.5-.3.8-.4 1.2-.5 2.3-1.2 3.3-2.1.5-.4 1-1 .9-1.7-.1-.6-.3-1.4-.9-1.7-.5-.2-.6.7-1.2.9zm24.2-49.8c.5.4.7.7 1 .9.7.6 1.4.6 2-.2.7-.8 0-1.2-.4-1.7-.5-.5-1.1-.9-1.8-1-.5-.1-.8-.3-1.1-.6-1.1-1.2-2.3-2.4-3.4-3.6-1.7-1.9-3.4-3.7-5.3-5.4-.2-.2-.5-.5-.8-.2-.3.3 0 .6.2.8.7.8 1.3 1.5 2 2.3 2.1 2.2 4.1 4.4 6.2 6.5.8.8.8 1.8 1.4 2.2zM484 296.5c-.6.5-.8 1.1-.9 1.8-.1.4-.3 1.1.2 1.3.6.2.6-.5.8-.9.7-1.6 1.3-2 3-1.5l10.2 2.7c.9.2 1.5.7 1.3 1.8-.1.5 0 1 0 1.5 0 .3.2.5.5.6.2.1.3-.1.4-.2 1.1-1.3.6-3.6-.9-4.1-2-.7-4-1.3-6-1.9-2.3-.6-4.7-1.2-7-1.8-.6 0-1.2.2-1.6.7zm-210.4 4.8c.1 0 .1 0 0 0 1.2 1.1 2.4 2.3 3.5 3.4.6.6 1.1.3 1.5-.1.5-.5.3-.9-.1-1.3-.7-.7-1.3-1.4-2-2.1-1.6-1.6-3.3-3.2-4.9-4.8-.4-.4-.7-.5-1 .1-.2.4-1 .7-.3 1.3 1.2 1.2 2.2 2.4 3.3 3.5zm1.5-100.4c1.9-1.8 1.9-1.8.3-3.7 0-.1-.1-.1-.1-.2-.4-.6-.8-.5-1.3-.1-1.2 1-2.2 2.2-3.5 3.1-.4.3-.5.7-.1 1 .6.4.9.9 1.4 1.4.4.5 1 .6 1.5.1.6-.6 1.2-1.1 1.8-1.6zm-163.4-95.7s0-.1 0 0c.8-1 1.7-1.9 2.7-2.8.2-.1.5-.2.4-.5-.1-.3-.5-.2-.7-.1-.9.3-1.8.8-2.5 1.5-2.8 2.9-5.7 5.7-8.5 8.6-.5.5-.7 1-.9 1.6-.1.2 0 .5.2.6.2.1.3-.1.5-.2 2.9-3 5.9-5.8 8.8-8.7zm145.2 183.4c-.1.1-.2.1-.2.2.9.9 1.8 1.8 2.7 2.8.9 1 1.8 2.1 2.8 3.1.3.4.7.7 1 .1.4-.8 0-2.1-.8-2.4-1.7-.5-2.6-1.9-3.6-3.1-2.2-2.5-4.6-4.8-6.9-7.3-.2-.2-.5-.6-.9-.3-.3.4.1.6.3.9 1.8 2 3.7 4 5.6 6zM287.6 403c-.1-1 .4-1.6 1.3-2 .7-.4 1.1-.9.7-1.8-.3-.7-.3-1.7-1.5-1.2-.4.2-.7-.2-.9-.6-.2-.5 0-1 .4-1.1 1.4-.4 1.2-1.2 1-2.3-.4-1.8-.3-1.8-2.3-1.6-.5.1-.7.1-.6.7.6 3.3 1.4 6.6 1.9 9.9zm-70.7-146.1c-1.8 1.7-3.2 3.9-4.7 5.9-.3.4-.7.9 0 1.3.6.3 1 .1 1.4-.4.7-1 1.5-1.8 2.3-2.8 1-1.2 2-2.4 3.1-3.5.6-.7.3-1.3-.1-1.7-.5-.5-.8.2-1.1.4-.3.3-.6.6-.9.8zM474 317.8c.5-.7.5-1.5.8-2.2.7-2 .7-2-1.1-2.8-.1-.1-.3-.1-.4-.2-1.1-.5-1.6-.2-1.9 1-.1.6-.2 1.1-.3 1.7-.4 1.8-.4 1.9 1.4 2.4.5.1 1 .3 1.5.1zm-213.2-94.5c1.7-1.5 2.8-3 4.4-4.1.5-.4.6-.9.1-1.4-.5-.5-.9-.3-1.3.1-.6.5-1.1 1.1-1.7 1.6-.5.5-.9.9-.7 1.7.1.5-.2.9-.8 1.1-.3.1-.7.1-.9.3-1.2 1.7-3.1 2.7-4.5 4.3-.2.2-.6.3-.3.6.2.3.6.5 1 .3s.8-.6 1.1-.9c1.5-1.2 2.7-2.6 3.6-3.6zm30.5 261.5c-1 .8-.4 2-.2 3 .7 3.4 1.6 6.8 2.3 10.2.4 1.8 1.6 2.7 3.4 2.2.3-.1.9-.1.8-.6-.2-.5-.6-.2-1-.1-1.1.3-2.2-.2-2.4-1.3-.7-3.4-1.8-6.7-2.3-10.2-.2-2 .1-2.5 2-3 .2-.1.7.2.6-.4-.1-.4-.3-.7-.7-.8-1-.1-1.8.2-2.5 1zm1.2-234.9c3.7 1.1 31.1 5.5 32.3 5.2-10.8-2-21.5-3.7-32.3-5.2zm14.4-16.1c.1-.1.2-.2.3-.2-.7-.7-1.4-1.5-2.1-2.2-2.7-2.7-5.4-5.6-8-8.4-3.2-3.5-6.8-6.7-9.5-10.7-.5-.7-1.7-.6-1.9-1.8 0-.3-.3-.6-.7-.6-.1 0-.2.1-.2.2-.2.4.2.6.4.8 5.2 5.5 10.4 11.1 15.7 16.6l6 6.3zm169.3 79.3c1.8.2 3.1 1.2 4.7 1.3.7.1 1 0 1-.8v-2.9c.1-1.2-.8-1-1.4-1.2-.7-.2-1.1-.1-1.2.7 0 .4-.4.7-.9.8-.2 0-.6-.1-.6.3.2 1.2-.7 1.2-1.6 1.8zM281.8 418.8c-1.1-.1-1.8-.5-2.1-1.6-.8-3.9-1.8-7.7-2.6-11.6-.3-1.5-.3-1.5 1.2-1.7.2 0 .5 0 .5-.3 0-.1-.2-.3-.4-.4-.7-.4-1.4 0-2 .3-.5.3-.4.8-.3 1.2 1 4.6 2 9.3 3.2 13.8.1.5.1 1.1.8 1.2.8.3 1.2-.1 1.7-.9zM318.5 314c-.5.5-1 .9-1.5 1.5-.4.4-.2 1.8.3 2.2.6.4.9-.2 1.2-.5 1.5-1.3 2.9-2.7 4.3-4 .2-.2.6-.3.4-.7-.2-.3-.6-.2-.9-.2-1.4 0-2.9.3-3.8 1.7zm-14.4 189.4c.4-.3.2-.5.2-.7 0-.8-.3-1.5-.4-2.3-.4-2.3-.7-1.7-2.4-1.6-.7 0-1 .4-.9 1 .2 1.2.3 2.4.5 3.6 0 .3.2.6.5.6.9 0 1.6-.8 2.5-.6zm-10.7-297.3c10 10.7 20 21.4 30.4 31.8-9.9-10.8-20.3-21.2-30.4-31.8zm-34.7 79.3-.2.2.5.5c.4.4.8 1 1.5.3s.3-1.1-.2-1.5c-1.3-1.3-2.5-2.6-3.7-4-.7-.7-1.3-1.4-2-2.1-.1-.1-.3-.2-.5-.1s-.2.3-.1.4c.8.7.4 1.9 1.1 2.6 1.2 1.2 2.4 2.5 3.6 3.7zm230.7 29.4c.1 0 .2.1.4.1 1.3.3 2.6.3 3.9.2.8-.1.5-.8.6-1.3 0-.5.3-1.2-.6-1.4-1.2-.3-2.3-.6-3.5-.8-.2-.1-.5-.2-.8 0-.3.3-.3 2.9 0 3.2zm-270.6-10.4-.2.2c6.6 7.2 13 14.6 20.2 21.2-6.7-7.1-13.3-14.3-20-21.4zm88.3 207c1.9-2.5.8-9-2.5-11.7.2 1.2.5 2.3.7 3.3.1.3.3.5.5.6.9.5.9 1.3.5 2.1-.2.4-.4.8-.3 1.2.3 1.5.7 2.9 1.1 4.5zm-83.4-259.2c.6-1.3 2.2-1.3 2.7-2.8.2-.5.7-.7 1.3-.6.7.2.8-.1.9-.8 0-.8.4-1.4 1.4-.9.3.1.7 0 1 0 .2 0 .3-.1.4-.2 0-.2-.1-.4-.3-.4-.5-.1-1-.4-1.4-.7-1.2-1.1-1.3-1.2-2.3.1-1.3 1.8-2.3 3.8-3.7 5.5-.2.1-.4.4 0 .8zM475.6 312c0-.2.1-.4.1-.7.2-1.3.3-2.5.7-3.8.2-.5.3-1 .3-1.5 0-.7-.2-1.3-1-1.5-.8-.1-.8.5-1 1.1-.2.6-.2 1.2-.4 1.8-.3 1.2-.4 2.4-.6 3.7-.1.5.2.8.7.9.5.1.8.4 1.2 0zm-177.3.2c.6.7 1 1.1 1.3 1.5.2.2.4.4.8.2 1.1-.7 2.2-1.2 2.7-2.6.2-.4.2-.8-.1-1.2-.7-1-1.5-1.8-2.5-2.6-.5-.4-1.1-.5-1.4 0-.4.6.4.6.6.8.8.7 1.5 1.3 1 2.5-.3 1.2-.9 1.8-2.4 1.4zm-10.4-100.7c6.7 7.6 13.6 14.9 20.7 22.1-6.6-7.6-13.7-14.8-20.7-22.1zM410.4 281c-.4-.4-.9-.4-1.3-.5-3.7-.9-7.4-1.9-11-2.8-1.9-.5-2.4-.2-2.8 1.7-.1.3-.4.6.2.7.4.1.6 0 .7-.6.2-1 1.1-1.5 2.1-1.3 3.3.9 6.7 1.7 10 2.6.9.2 1.7.7 2.1 1.5.2.3 0 1.1.6.9.5-.2.2-.8.1-1.2-.3-.3-.5-.7-.7-1zm88.5 28.4c-.4-.3-1-.4-1.1.3-.4 2.2-.9 4.4-1.1 6.6 0 .7.5.7 1 .8.7.2.8-.3.8-.8l.6-6c.1-.3.1-.6-.2-.9zM307.3 521.6c.3-.3.6-.7.5-1.2-.3-1.2-.7-2.3-1-3.5-.2-1-.8-.6-1.3-.5-.5.1-.9.2-.7 1 .3 1.2.4 2.4.6 3.6.3 1.9.3 1.9 1.9.6zm198.3-210.9c.2 0 .3.1.5.2 1.6.7 3.3.9 4.9 1.3.6.2 1.1.2 1.2-.7.1-.8-.1-1.2-.9-1.2-.3 0-.7-.2-1-.2-1.4-.2-2.8-.8-4.2-.8-.3 0-.7-.1-.6.3 0 .3-.3.7.1 1.1zm-224.8-62.2c-.3-.1-.4.1-.6.3-1.6 1.9-3.5 3.6-5.3 5.4-1.3 1.3-3.2 2.3-3.3 4.6 1.3-1.3 2.6-2.5 3.8-3.7 1.3-1.2 2.6-2.5 3.7-3.8.6-.7 1.2-1.6 1.7-2.6.1.1 0-.1 0-.2zm221.8 61.9c.4-.3.4-.7.1-1.1-.2-.3-.4-.5-.1-.9.4-.6 0-.9-.6-1.1-1-.3-2-.5-3-.8-.7-.2-.9.2-1 .7-.2.6 0 .9.6 1 .9.1 1.5.6 1.5 1.5 0 1.2 1 .5 1.4.9.4.4.8.2 1.1-.2zm-240 8.9c-1.2-1.9-6.5-7.4-7.4-7.8.1 2.2 5.1 7.5 7.4 7.8zm-4-47.6c-1.7-.2-2.4.9-3.3 1.7-2.3 2.1-4.3 4.5-6.4 6.7-.3.3-.9.4-.5.9.3.4.7-.1 1-.4 3.1-2.9 6.1-5.8 9.2-8.9zm38.5 144.8c0-.4.1-.6.1-.9-.1-.5-.3-1-.4-1.6-.3-1.5-.3-1.5-1.7-1.3-1.6.2-1.7.4-1.4 2 .1.3.1.5.2.8.1.5.1 1.2.7 1.3.8.2 1.5-.5 2.5-.3zm-1.7-125.4c-.4-.4-.9-1.3-1.3-1.1-.9.5-1.8 1.3-2.3 2.2-.3.6.7 1 1.2 1.6.1.2.3.3.5.4.3.2.6.2.8-.1.4-.6 1-1 1.7-1.4.6-.3.6-.7.1-1.2-.3 0-.5-.2-.7-.4zM288 403.8c0 1.6.3 3.1.6 4.6.8 3.3 1.6 6.6 2.3 10 .2 1 .9 1.4 1.8 1.6.3.1.9.1 1-.4.1-.5-.4-.5-.7-.6-1.3-.2-1.6-1.1-1.9-2.3-.5-2.3-.8-4.7-1.3-6.9-.3-1.1-1.2-1.9-1.2-3.1-.1-1-.4-1.9-.6-2.9zM302.8 507c.2 1.9.8 3.7 1.2 5.5.1.5.2.9.9.7.5-.2 1.3-.1 1-1.1-.3-1-.5-2.1-.7-3.2-.3-1.1-.4-2.5-2.4-1.9zM111.7 123.2c.4.2.5 0 .7-.1l4.5-4.2c2.1-2.2 4.2-4.3 6.4-6.3.3-.3 1.2-.5.7-1-.4-.5-.8.3-1.1.5-.1.1-.2.2-.3.2-2.7 2.6-5.4 5.2-8 7.8-1.1.9-1.9 2-2.9 3.1zm154.2 136c.3-.4.8-.7 1.1-1.1.6-.7-.1-1.3-.4-1.9-.2-.4-.5-.8-1-.6-1 .5-1.8 1.4-2.4 2.2-.5.6.4 1 .6 1.5.3 1.1.8 1.1 1.7.3 0-.1.2-.3.4-.4zm41.5 240.1c-.5-.5-.4-.9 0-1.4.4-.4.8-.6 1.3-.7.3-.1.6-.2.6-.6-.1-.4-.3-.6-.6-.6-.8 0-1.7 0-2.2.7-.6.8-1.2 1.5-.7 2.6.7 1.6.9 1.7 3.1 1.5.4 0 1 0 .9-.6 0-.6-.6-.6-1-.5-.6.2-1 0-1.4-.4zM253 298.9c-.1 0-.1.1-.2.1.2.8.3 1.6.5 2.5.1.3.1.5.4.7 1 .6 1.5 1.5 2.3 2.3.4.3.6.9 1.2.3.5-.5.6-1 .1-1.5-1.5-1.5-2.9-3-4.3-4.4zm61.5 18.4c.3-.6-.2-1-.3-1.5-.1-.5-.2-1.1-.9-.9-.8.2-.4.9-.3 1.3.3 1.4-.4 2.5-1.8 2.7-.2 0-.6-.1-.6.2 0 .5-.2 1.2.2 1.3.9.4 1.8-.1 2.7-.4.3-.1.7-.2.7-.7v-.1c-.8-.7-1.1-1.4.3-1.9zm-99.1-14.5c-6.7-7.9-14.3-14.9-21.6-22.3 7.2 7.4 14.4 14.8 21.6 22.3zM129 130.2c.4-.4.9-.8 1.3-1.2.4-.5.8-1 1.2-1.4.4-.4.3-.9.1-1.2-.3-.4-.6 0-.9.3-.5.6-1.2 1.1-1.8 1.7-.8.8-1.5 1.6-2.3 2.4-.4.4-.7.8-.2 1.3.5.5.8-.1 1.1-.4l1.5-1.5zm164.7 271.1c.2-.2-.1-2.9-.3-3.1-.3-.2-2.4.2-2.8.5-.2.2.2 2.7.4 3 .2.2 2.3-.1 2.7-.4zm-30.3-117.6c1.6 1.6 2.9 3 4.2 4.4 1 1 2.1 1.8 2.5 3.3.1.6.6.7 1.2.5.6-.2 1.1-.6 1.5-1 .1-.1.3-.3.2-.5-.1-.3-.4-.2-.6-.1-1.1.6-1.8 0-2.5-.8-1.6-1.7-3.2-3.4-4.9-5-.3-.4-.6-.8-1.6-.8zm46 45.3c-.5.4-1 .9-1.5 1.3-.4.3-.7.6-.2 1.1.5.4.8.8 1.4.2 1-1.1 2.2-2 2.9-3.3.2-.4.4-.6 0-1s-.7-.4-1.1 0c-.4.7-.9 1.2-1.5 1.7zm-44-16.7c.2-.2.5-.4.7-.7.4-.4 1-.6.3-1.3-.5-.5-1-1.2-1.8-.3-.6.7-1.3 1.3-1.9 1.8-.6.5-.6 1.1-.1 1.6.5.6 1.1.3 1.5-.1.5-.2.7-.7 1.3-1zm235.2-.7c.6.4.2 1.4 1 1.6 2.3.4 4.5 1.1 6.8 1 .3 0 .6 0 .6-.4s-.3-.4-.6-.5c-2.5-.7-5.1-1-7.8-1.7zM216 262.3c.5-.1.7-.4 1-.6l8-8c.2-.2.8-.5.4-.9s-1-.1-1.2.3c-.4 1.1-1.4 1.5-2.1 2.3-1.6 2-3.4 3.9-5.2 5.7-.5.2-.8.6-.9 1.2zm74.1 47.2c.5-.5 1.1-1 1.7-1.6.3-.4.3-.8 0-1.2-.2-.2-.4-.4-.7-.1-1.4 1.3-2.8 2.5-4 4-.2.2-.5.5-.2.8.3.3.6.2 1 .1.9-.5 1.4-1.4 2.2-2zM438 298c-.4-.5-1.7-.6-2.1-.2-.5.6-1 2.7-.7 3h.1c1.4.9 2.1.6 2.7-.9.2-.5.1-.9.2-1.4 0-.1 0-.3-.2-.5zM295.3 408.6c.3-.2.1-2.1-.3-2.7-.2-.3-2.2-.2-2.7.2-.3.2-.1 2.4.2 2.8.2.4 2.3.1 2.8-.3zm-67.1-165.5c-.2-.8-.7-1.7.2-2.1 1.4-.6.7-1.2.1-1.8-.4-.4-.8-.8-1.1-1.2-.2-.2-.6-.3-.5 0 .1 1.3-.9 1.4-1.8 1.7 1 1.2 2 2.2 3.1 3.4zm28.6 20.8c-.2.2-.5.5-.8.7-.3.3-.3.5 0 .8.5.3 1 .7 1.2 1.4.1.2.3.2.5.2 1.4-.4 2.1-2.2 1.4-3.4-.4-.7-.9-.9-1.5-.3-.3.1-.6.3-.8.6zm7.9-50.3c-.1.1-.2.3-.4.4-3.8 3.1-7.1 6.7-10.6 10-.2.2-.6.4-.4.7.3.4.5 0 .7-.2 3.8-3.5 7.2-7.2 10.7-10.9zm58.8 44.4c-2.6-.6-5-1.1-7.6-1.3.3.4.3.8.3 1.1-.1.5-.1 1 .6.4.2-.2.5-.2.8-.1.8.2 1.7.4 2.5.6 1 .2 2.1.9 2.7-.5 0-.1.3-.1.7-.2zm-8.8 62.6c-1.8.7-3.7.4-4.9 2-.3.4-.5.6-.2 1.1.5.8 1.5.9 2.1.2.4-.4.9-.8 1.2-1.2.6-.7 1.4-1 1.8-2.1zM126.5 129.7c1-1.5 2.5-2.6 3.7-4 .2-.3.8-.5.4-.9-.3-.4-.8 0-1 .2-1.7 1.7-3.3 3.4-5 5-.1.1-.3.3-.1.5.1.1.3.2.5.2.7 0 1-.6 1.5-1zm95.9 102.2c-.2-.1-.6-.4-.9-.7-.2-.2-.4-.4-.7-.3-.3.1-.3.5-.3.8 0 .8 0 1.6.1 2.4 0 .5.1 1 .6 1.2.5.2.7-.4 1-.6.2-.1.3-.3.4-.4 1-1 1-1.1-.2-2.4zm85.6 95.3c-.7.5-1.1 1.3-1.7 1.9-.3.4-.1.9.2 1.1.4.3.4-.3.7-.4 1.3-.9 2.2-2.1 3.4-3.2.4-.3.5-.6.2-1-.3-.3-.8-.4-1 0-.6.7-1.3 1-1.8 1.6zm-43.4-21.8c-.1.1-.2.2-.3.2-.6.5-1.1 1-.2 1.8.8.7 1.4.7 2.1 0 .2-.2.3-.4.6-.6.8-.4.7-.8.1-1.4-1.1-1.1-1.2-1.1-2.3 0zm170.2-2.2c-.2-.3-.4-1-.9-.3-.4.6-.5 1.2 0 1.9.6.8 1.4 1.2 2.4 1 .7-.2 1.2-.6 1.2-1.3 0-.5 0-1-.8-.6-.8.2-1.4-.2-1.9-.7zm-171.1-13c.4.5.9 1 1.4 1.4.3.4.7.6 1.2.2.5-.5.3-.9-.1-1.3-1-.9-1.9-1.8-2.9-2.7-.3-.3-.7-.4-1 0-.3.3-.2.6.1.9.4.6.9 1 1.3 1.5zm-39.5-41.3c-.7.4-3.9 3.9-4.2 4.4-.4.6.1 1.1.3 1.6.1.2.4.5.5.3.5-.5 1.5-.8 1.2-1.8-.2-.9.1-1.5.5-2.2.5-.7 1.1-1.5 1.7-2.3zm38.2 51.4c.1-.4 1.2-.5.5-1.1-.5-.5-.9-1.6-1.8-1.3-.7.3-1.3.9-1.4 1.9 0 .6.3 1 .8 1.3.9.4 1.3-.4 1.9-.8zm25.9 5.4c-.7.4-1-.1-1.4-.4-1.1-1.1-2.1-2.2-3.2-3.3-.3-.3-.5-.7-.9-.4-.4.3 0 .7.2.9 1.1 1.6 2.7 2.8 4 4.2.3.3.5.1.7-.1.2-.2.4-.6.6-.9zm-68.9-22.2s-.2-.3-.5-.4c-.4-.3-.8-.2-1.2.1-.3.3-.8.6-.5 1 .5.7.4 1.2-.2 1.8-.5.6.1 1.1.5 1.5.2.2.4.5.7.3.5-.4.2-.8 0-1.2-.3-.9.2-1.7 1-1.8.3 0 .8.2.9-.2.2-.4-.3-.7-.7-1.1zm35.1 4.1-1.8-2.1c-.3-.4-.8-.4-1.1-.1-.4.5.2.5.4.8l.6.6c1 1.4 2.4 2.5 3.5 3.8.3.3.7.7 1.1.3.4-.4-.2-.5-.3-.8-.8-.9-1.7-1.7-2.4-2.5zm34.8 106.3c.3.4 2.4.2 2.7-.2.4-.7.1-1.4-.2-2.1-.2-.4-2.4-.3-2.7.1-.5.8.3 1.5.2 2.2zm-34.9-88.5-.3.3c0 .9.3 1.6.9 2.3.8.7 1.5 1.5 2.2 2.2.3.3.6.9 1.1.4.6-.5 0-.9-.3-1.3-1-1.3-2.3-2.6-3.6-3.9zm13.6-46.2.3.3c3.4-3.4 7-6.6 10.3-10.1l-.2-.2c-3.5 3.4-6.9 6.7-10.4 10zm114.9 30.4c.2-.8.4-1.3.5-1.8.1-.4 0-.7-.4-.8-1.1-.3-2.2-.5-3.3-.8-.4-.1-.8 0-.8.4 0 .7-.2 1.2-.4 1.8-.2.7.1 1.3.8 1.7-.5-1.5-.2-2.4.9-2.7 1.4-.4 2 .1 2.7 2.2zM297.6 513c0-.1-.1-.2-.1-.3-2.8.4-5.6.8-8.3 1.2-.3.1-.9.2-.7.7.2.6.7.3 1 .2 1.9-.4 3.9-.7 5.8-1.2.7-.1 1.6 0 2.3-.6zm-74.9-222.6c0 .5-.9.5-.5 1 .2.3.6.8 1.1.7.7-.1 1.9-1.2 1.8-1.9-.1-.9.3-1.3.9-1.8.2-.2.6-.3.3-.6s-.5-.1-.8.1c-1.1.7-1.7 1.9-2.8 2.5zm292.8 22.5c1 .6 2.3.9 3.5 1 .5.1.5-.7.8-1 .1-.2-.1-.4-.3-.5-1.2-.3-2.3-.5-3.5-.8-.4-.1-.6 0-.7.4-.1.3-.1.6.2.9zm-260.7 7.9c.3-.8-2-13.2-2.6-14.1.7 4.9 1.6 9.5 2.6 14.1zm-28-55.9c.1 0 .1-.1.2-.1-.2-1.2-.5-2.4-.7-3.6-.1-.3-.1-1-.5-.9-.6.2-1 .6-1.5 1.1-.3.3-.2.6.1.9.8.8 1.6 1.7 2.4 2.6zm62.3 6.3c-.1-1.6-5-6.4-6-6.3l6 6.3zM230.9 221c.7.8 1.3 1.3 1.8 1.8.3.3.7.7 1.1.4.6-.5 1.5-.8 1.7-1.6.1-.4-.3-.4-.5-.4-1.3-.2-2.5-.3-4.1-.2zm6 94.2c.7.7 1.4 1.5 2.1 2.2.3.3.9.4 1.1.1.3-.3-.2-.6-.5-.8-1.2-.8-2-2-3.3-2.8-.3-.2-.5-.7-.8-1-.2-.3-.1-.7-.6-.8-.1 0-.3.2-.3.3-.2.4.1.7.4 1 .7.6 1.2 1.4 1.9 1.8zm42.5-51.1c.6.4 1 .1 1.4-.1.8-.3 1.5-.7 2.4-.7.4 0 .9.4 1.1-.2.2-.5-.4-.8-.7-1.1-.6-.5-1.2-.2-1.7 0-.9.5-1.7 1.2-2.5 2.1zm-2.1-61c-.1-.1-.2-.2-.2-.3-3.1 3.1-6.4 6-9.3 9.4 3.2-3 6.3-6.1 9.5-9.1zm171.3 85.4c-.7-.3-1.5-1.2-1.9-.5-.4.6-.7 1.6-.4 2.4.1.4 2 .6 2.3.2.4-.8.4-1.5 0-2.1zm-182-.4-.1.1c-.8-.8-1.6-1.7-2.4-2.5-.2-.2-.3-.4-.6-.2-.2.2-.1.4 0 .5 1.4 1.6 2.8 3.2 4.4 4.6.2.2.5.3.7.1.2-.3 0-.5-.2-.7-.5-.7-1.2-1.3-1.8-1.9zm42.8-32.6c-2.3-.3-2.3-.3-3.1.9-.2.2-.4.5-.1.7.5.4 1.1.9 1.9.8.6-.1.8-.6.9-1.2 0-.4.2-.8.4-1.2zm-14.1-48.7c.3 0 .3-.1.2-.2-4-4.1-7.9-8.4-12.2-12.3 4.1 4.2 8 8.5 12 12.5zm-6.6 19.3c2-.3 3.4-1 4.4-2.3.2-.2.6-.3.3-.7-.2-.3-.7-.6-1-.3-1.2 1-2.5 1.9-3.7 3.3zM252.3 281c-.1.1-.2.1-.2.2 3.1 3.2 6 6.6 9.3 9.6.1-.1.2-.1.2-.2-3.2-3.3-6.2-6.4-9.3-9.6zm16.7-80.9c1.7-1.5 3.3-2.9 5-4.4.1-.1.3-.3.1-.5-.2-.3-.5-.1-.7.1-1.7 1-3 2.4-4.3 3.9-.1.1-.3.4-.1.9zm23.7 195.4c-.3-.3-.7-.2-2 .1-.9.2-1 .6-.8 1.4.2.8.7.7 1.3.6.4-.1.7-.2 1.1-.3.7-.3.9-1.3.4-1.8zm-65.7-96c-.4-.7-.8-1.2-.8-1.7-.1-1.2-.9-1.9-1.6-2.7-.3-.4-.7-.6-1.1-.3-.5.4-.2 1 .1 1.2 1.2 1 1.9 2.5 3.4 3.5zm32.1-4.6c-.6-.5-.9-1.4-1.6-.7-.5.5-1.4 1.2-.3 2 .5.4.8 1.4 1.7.6.7-.6 1.1-1.4.2-1.9zm265.3 21c0-.6-.2-1-.1-1.5s-.2-.8-.7-.8h-2.5c-.2 0-.4 0-.5.3-.1.3.1.4.4.5 1.1.5 2.1 1.3 3.4 1.5zm-259.2-15c.5-.6 1.2-1.1 1.5-1.9.1-.2.2-.4 0-.5-.3-.2-.4 0-.6.2-.7.8-1.4 1.5-2.5 1.9-.4.1-.6.6-.9.8-.2.2-.4.5-.2.8.2.3.5.2.8 0 .7-.4 1.3-.9 1.9-1.3zm-36.1 2.7.3-.3-10.2-10.5c3.3 3.5 6.7 7.1 9.9 10.8zm66.3-75.5c.4.4.8.3 1.2.2 1.4-.4 2.4.1 3.3 1.1 1.4 1.6 2.9 3.1 4.6 4.8-.4-.6-.6-.9-.9-1.2-1.3-1.4-2.5-2.8-3.8-4.1-1.5-1.6-2.1-1.8-4.4-.8zm-.4 192c.6.6 1.3.7 1.8.1.6-.6.5-1.3-.1-1.8-.5-.5-1.1-.7-1.6-.1-.5.5-.7 1.2-.1 1.8zM129.9 130.4c-.6.6-1.2 1.1-1.7 1.7-.2.2-.7.5-.4.8.3.4.7 0 1-.3l3.6-3.6c.2-.2.2-.4.1-.6-.2-.3-.4 0-.6.1-.7.7-1.3 1.3-2 1.9zm120.4 165.7c.1 0 .2-.1.3-.1-.7-4.2-1.5-8.4-2.2-12.6.2 4.4 1.2 8.5 1.9 12.7zm35.4 14c.6.1.8-.3 1.1-.6 1.3-1 2.4-2.3 3.6-3.4.2-.2.8-.3.4-.8s-.7.1-.9.3c-.8.6-1.5 1.4-2.1 2.1-.8.7-1.9 1.2-2.1 2.4zm4.1-41c.1-.6-.2-.8-.5-1l-3.3-3.3c-.2-.2-.4-.4-.7-.6-.2-.1-.4-.3-.6-.1-.2.2 0 .4.2.6.8.8 1.5 1.7 2.3 2.4.8.6 1.5 1.5 2.6 2zm-4.6-38.8c.1.1.1.2.2.2 2.4-.4 4.8-.7 7.2-1.3.2-.1.5-.1.4-.4-.1-.3-.4-.2-.6-.1-2 .4-4 .9-6 1.3-.5 0-1-.2-1.2.3zm211.7 95.2c.1-.7.9-1.2.9-2 0-.7-.1-1-.8-1.1-.7-.1-1 .2-1 .9s-.1 1.3-.1 2c0 .3.1.5.3.5.3 0 .5 0 .7-.3zm-171.7-64.4c.2-.6.4-1.2 0-1.8-.3-.4-1.8-.5-2.1-.1-.5.6-.4 1.2.1 1.7.6.5 1.3.7 2 .2zm-20.6 254.2c.4.4 2.8.2 3.1-.2.3-.4.1-.7-.3-1-.8-.5-1.7-.4-2.6-.1-.7.4-.4.9-.2 1.3zm-51.9-218.8-.3.3c1.9 2 3.9 4 5.8 6-1.6-2.3-3.6-4.3-5.5-6.3zm259.1 6.3c.9-2.3 1.1-4.7 1.9-7 .1-.3 0-.7-.4-.7s-.5.3-.6.6c-.2 2.3-.5 4.7-.9 7.1zM296.9 421.9v-.4c-1.1 0-2.2-.3-3.2-.7-.1 0-.3 0-.5.1-.5.1-.7.3-.6.9.1.5.3.9.9.8 1.1-.3 2.2-.5 3.4-.7zM267 209c.5.4 1 1 1.6.3.4-.5.8-1.3.2-1.9-.6-.6-1.3-.5-1.9.2-.4.5-.5.9.1 1.4zm-7.9 34.1c-.9-1.8-7.1-7.9-8-8.3 2.7 2.8 5.3 5.6 8 8.3zM110.3 103.5l-.3-.3c-1.9 2.1-4.3 3.7-5.8 6.2 2-1.9 4-3.9 6.1-5.9zM225 235.7c-.5-.5-.7-1.3-1.4-1-.7.3-1.5.9-1.6 1.7-.1.6.6 1 1.2 1.4.1-1.2.7-1.9 1.8-2.1zm85.1 80.1c-.3.5-.7 1.1 0 1.7.6.5 1.3.6 1.8.1.4-.5.3-1.3-.3-1.9-.5-.5-1-.4-1.5.1zm-80.2-96.1c2.2.6 4.6.2 6.8.8-2.1-1.6-4.5-.9-6.8-.8zm63.3 191.6c.8.2 1.5-.1 2.3-.2.5-.1.6-.4.5-.8-.1-.4-.2-.9-.8-.8-.6.1-1.2.3-1.8.5-.7.3-.6.8-.2 1.3zm-61.8-158.2c0-.5 1.4-.7.5-1.6-.5-.5-1.1-.7-1.7-.1-.5.5-.9 1-.2 1.7.5.4.9.7 1.4 0zm42.4 71.4c0-.1.1-.2.1-.2-.4-1.4-.6-2.8-1.3-4.1-.1-.2-.3-.2-.5-.1s-.3.3-.2.5c.4 1.2.8 2.5 1.2 3.7.1.3.4.5.7.2zm6.6-19c1.1 1.3 1.9 2.8 4 3.3-1.1-1.7-2.3-2.8-4-3.3z"/><path d="M241.8 284.4c1.6 1.3 1.3 3.2 1.7 4.8.4 1.5.5 3 .8 4.5.1.3.2.6-.1.8-.4.2-.6-.1-.9-.3-1.8-1.1-2.3-2.7-2.4-4.7-.1-1.7-.5-3.3-.8-4.9-.1-.4-.3-1 .2-1.2.5-.2.7.3 1.1.6.1 0 .3.3.4.4z"/></g></svg>