<?xml version="1.0" encoding="utf-8"?>
<!-- Generator: Adobe Illustrator 26.5.0, SVG Export Plug-In . SVG Version: 6.00 Build 0)  -->
<svg version="1.1" xmlns="http://www.w3.org/2000/svg" xmlns:xlink="http://www.w3.org/1999/xlink" x="0px" y="0px"
	 viewBox="0 0 800 800" enable-background="new 0 0 800 800" xml:space="preserve">
<g id="bg" display="none">
</g>
<g id="scratch" display="none">
</g>
<g id="counters_00000155831629897369998050000010902328751353074356_">
	<g id="art50">
		<rect id="_x31__x2F_2_x22__800x800_00000037687837158073566920000017463104576554797496_" fill="none" width="800" height="800"/>
		<g>
			<g>
				<rect x="299.9" y="100.1" fill="none" width="400" height="600"/>
				<path d="M598.2,177.2h-42.7c-0.7,5.7-2.5,15.9-3.2,20.3c4-3.3,10-5.7,19.2-5.7c21,0,32.9,15.2,32.9,35.5
					c0,20.6-11.3,39.6-40.1,39.6c-21.1,0-36.6-10.8-38.9-29.9h23.1c2,7.3,7.2,12.1,16.3,12.1c11,0,16.3-8.1,16.3-19.9
					c0-11.1-4.1-19-16.3-19c-9.9,0-13.9,4.3-16.3,10.6l-20.9-2.7c2.8-13.5,7.4-45.2,9.2-59.8h64.9L598.2,177.2z"/>
				<path d="M692.9,210.9c0,29.3-9.3,55.9-41,55.9c-31.3,0-40.9-25.7-40.9-55.2c0-29.2,10.7-55.2,41.4-55.2
					C682.2,156.3,692.9,180.6,692.9,210.9z M634.9,211.3c0,19.6,2.2,37,17.3,37c14.7,0,16.7-16.3,16.7-37.3
					c0-20.7-2.5-36.2-16.4-36.2C638.9,174.8,634.9,188.2,634.9,211.3z"/>
				<path d="M578.5,562.2V598h35v19.4h-35v36.3H559v-36.3h-35.4V598H559v-35.7H578.5z"/>
				<path d="M616.9,653.6v-1.5c0-18.6,8.3-33.7,31.4-50.5c15-11,19.6-14.8,19.6-24.1c0-9.2-4.5-14.4-13.5-14.4
					c-10.4,0-14.2,6.4-15.7,15.7h-22.4c1.5-18.4,13.6-33.7,38.1-33.7c27.4,0,36.8,16.3,36.8,32.3c0,15.5-6.7,23-26.3,36.8
					c-13.1,9.2-18.4,15.3-20.2,20.1h50.5l-2.9,19.3H616.9z"/>
			</g>
			<g>
				<rect x="100" y="400" fill="none" width="200" height="300"/>
				<path d="M106.6,660.5v-48.8c0-27,14.1-37.2,28.6-37.2c12.6,0,20.8,6.7,24.2,14.2c2.8-7.5,10.8-17.4,25.5-17.4
					c19.1,0,33.4,15,33.4,38.8v50.4H106.6z M150.6,614.5c0-11.5-5.2-16.2-13-16.2c-8.2,0-12.4,6.2-12.4,15.5v23h25.4V614.5z
					 M199.6,636.8V615c0-13.1-5.5-19-15.6-19c-9,0-14.7,5.8-14.7,19.1v21.7H199.6z"/>
				<path d="M218.3,546.3h-79.7c2.3,4.9,4.2,14,4.6,19.3h-17.3c-1.9-10.1-7.6-20.3-14.3-26.4v-16.4h106.7V546.3z"/>
				<path d="M218.3,509.1h-1.5c-18.6,0-33.7-8.3-50.5-31.4c-11-15-14.8-19.6-24.1-19.6c-9.2,0-14.4,4.5-14.4,13.5
					c0,10.4,6.4,14.2,15.7,15.7v22.4c-18.4-1.5-33.7-13.6-33.7-38.1c0-27.4,16.3-36.8,32.3-36.8c15.5,0,23,6.7,36.8,26.3
					c9.2,13.1,15.3,18.4,20.1,20.2v-50.5l19.3,2.9V509.1z"/>
			</g>
			<g>
				<g>
					<rect x="361" y="367.7" fill="none" width="200" height="200"/>
					<path d="M422.9,526.8v-1.5c0-18.6,8.3-33.7,31.4-50.5c15-11,19.6-14.8,19.6-24.1c0-9.2-4.5-14.4-13.5-14.4
						c-10.4,0-14.2,6.4-15.7,15.7h-22.4c1.5-18.4,13.6-33.7,38.1-33.7c27.4,0,36.8,16.3,36.8,32.3c0,15.5-6.7,23-26.3,36.8
						c-13.1,9.2-18.4,15.3-20.2,20.1h50.5l-2.9,19.3H422.9z"/>
				</g>
				<circle fill="none" stroke="#000000" stroke-width="10" stroke-miterlimit="10" cx="461" cy="468" r="100"/>
			</g>
			<g>
				<path stroke="#000000" stroke-width="2" stroke-miterlimit="10" d="M295.6,452.5c0.2,0.2,0.4,0.5,0.4,0.8
					c0.7,3.1,1.3,6.2,1.8,9.3c0.2,1.4,0.5,2.8,0.7,4.1c0,0.2,0.1,0.6,0.4,0.5c1.3-0.2,1.1,0.8,1.1,1.4c0.5,4.2,1.5,8.4,2.3,12.6
					c0.6,3.2,1.2,6.3,1.8,9.5c0.1,0.8,0.4,1.5,0.5,2.3c0.2,1.3,0.8,1.7,2.1,1.2c2.3-0.9,2.5-0.7,2.6,1.7c0,0.5,0,1,0.1,1.5
					c0.1,0.5-0.4,2.2,1.1,0.6c0.3-0.4,1.2-0.4,1.4,0.6c0.4,1.5,0.3,3.1,0.4,4.6c0.1,0.7-0.7,1-1.2,1c-0.9,0.1-1.1,0.6-1,1.3
					c0.1,1.9,0.2,3.9,0.3,5.8c0,0.6,0.5,0.7,0.9,0.6c1.2-0.1,1.6,0.4,1.7,1.6c0.1,1.8,0.3,3.6,0.6,5.4c0.3,2.2-0.6,3.1-3.2,3.3
					c-0.7,0.1-1.4,0.3-2.1,0.4c-0.7,0.1-0.7,0.4-0.6,1c0.3,0.8,0.4,1.7,1.2,2.3c0.8,0.6,0.6,1.4-0.1,2c-0.6,0.5-0.6,0.9-0.5,1.6
					c0.7,2.7,1.2,5.4,1.8,8.2c0.4,1.8,0.9,3.6,1.3,5.4c0.1,0.3,0.2,0.7,0.2,1c0,0.7,0.7,1.7-0.7,2c-1.5,0.3-2.6-0.3-2.9-1.5
					c-0.4-2-0.8-4-1.3-5.9c-0.6-2.5-1.2-5-1.8-7.5c-0.1-0.4-0.2-0.8-0.2-1.1c-0.1-0.8-0.3-1.4-1.2-1.6c-1-0.3-1.2-1.2-0.7-2.2
					c0-0.1,0.1-0.1,0.1-0.2c0.1-0.7,0.6-1.5,0.1-2.2c-0.5-0.8-1.3-0.3-2-0.2c-1.9,0.1-3.7,0.8-5.6,1.1c-1,0.2-2,0.1-3,0.2
					c-0.5,0-0.9-0.3-1.2-0.6c-1.6-1.5-3.2-3.1-4.9-4.7c-1-0.9-1.3-2.3-1.5-3.4c-0.4-2.8-1.1-5.5-1.7-8.2c-0.2-1.2-0.5-2.4-0.7-3.5
					c-0.1-0.4-0.2-0.9,0.3-1.1c0.5-0.2,1,0,1.2,0.5c0.4,0.7,0.9,0.6,1.5,0.5c2.9-0.5,5.9-1.1,8.8-1.6c1-0.2,1.6-1.6,1.1-2.5
					c-0.2-0.3-0.5-0.2-0.7-0.1c-0.6,0.3-1.3,0.2-1.9,0.1c-2.1-0.4-2.4-0.8-2.6-2.9c-0.3-2.4-1-4.7-1.5-7.1c-0.4-1.7-0.8-3.3-1.2-5
					c-0.2-0.7,0.2-1.1,0.6-1.6c0.7-0.8,1.5-1.4,2.5-1.6c0.9-0.2,1.2-0.7,1-1.6c-0.4-1.6-0.6-3.2-1.1-4.8c-1-3.2-1.3-6.5-2-9.8
					c-0.7-2.8-1.2-5.7-1.8-8.5c-0.1-0.6-0.3-0.9-1.1-0.7c-1.7,0.4-3.2-0.7-3-2.4c0.3-3.4-1-6.6-1.6-9.8c-0.6-2.8-1.2-5.7-1.9-8.5
					c-1.2-5.2-2.4-10.4-3.6-15.7c-1.2-5.5-2.4-11.1-3.6-16.6c-0.7-3-1.5-5.9-2.2-8.8c-1-4-1.9-8-2.8-12c-1-4.3-2-8.5-2.9-12.8
					c-0.3-1.1-0.5-2.2-0.7-3.3c-0.6-2.9-1.5-5.8-2-8.7c-0.2-1.5-1-2.9-1.2-4.4c-0.7-4.3-2-8.4-2.7-12.7c-0.3-1.6-0.7-1.9-2.3-2
					c-0.6,0-1.1-0.2-1.4-0.7c-0.3-0.6,0.1-1.1,0.4-1.6c1-1.5,2.5-2,4.2-2.2c0.7-0.1,0.7-0.3,0.6-0.9c-0.2-0.8-0.3-1.6-0.5-2.4
					c-0.2-1.1-0.4-1.9-2-2c-1.2-0.1-1.8,0.1-2.8,0.7c-0.9,0.6-2.1-0.1-2.9-0.7c-1.5-1.2-2.7-2.6-4.1-3.9c-2.6-2.4-4.9-5-7.4-7.4
					c-0.3-0.3-0.6-0.4-0.9-0.2c-0.8,0.6-1.7,0.3-2.6,0.4c-0.4,0-0.7-0.2-0.9-0.4c-0.9-1-1.9-2-2.8-3c-0.9-1-1-2.3-0.3-3.4
					c0.1-0.2,0.4-0.4,0.1-0.6c-0.2-0.2-0.5-0.1-0.6,0c-0.6,0.5-1.1,1-1.7,1.6c-0.4,0.4-0.1,0.6,0.2,0.9c2.7,2.8,5.5,5.5,8.1,8.4
					c1.4,1.6,2.9,3.1,4.4,4.6c0.5,0.6,0.6,1.2,0.2,1.7c-0.5,0.6-1.1,1.4-2.1,1.1c-0.4-0.1-0.8-0.9-1.3-0.3c-0.4,0.6,0.3,0.7,0.6,1.1
					c0.2,0.2,0.3,0.5,0.1,0.8c-0.5,1.1-2.6,1.9-3.6,1.3c-0.3-0.1-0.5-0.3-0.7,0c-0.2,0.3-0.1,0.6,0.1,0.7c1,0.7,0.6,1.3-0.1,1.9
					c-1.4,1.2-1.7,1.2-2.6,0.3c-5.4-5.6-10.8-11.1-15.9-16.9c-0.9-1-1.9-1.7-2.6-2.8c-0.3-0.5-0.8-0.5-1.3-0.1
					c-1.3,0.9-2.6,1.9-3.7,3c-0.7,0.7-1.1,0.6-1.7-0.1c-2-2.2-4.1-4.5-6.1-6.7c-0.5-0.5-1.4-0.7-1.4-1.5c0-0.7,0.9-1,1.3-1.6
					c0.7-1.1,1.7-1.9,2.3-3.1c0.2-0.5,0.3-0.8-0.1-1.3c-3.3-4-7.2-7.6-10.7-11.4c-2.8-3-5.7-5.9-8.6-8.9c-0.7-0.7-0.6-1.2,0.1-1.9
					c0.9-0.8,1.7-1.2,2.7-0.3c0.2,0.2,0.4,0.2,0.6,0c0.1-0.1,0.1-0.3,0-0.4c-1.1-1,0-1.8,0.5-2.4c0.5-0.6,1.3-1.2,2.2-0.3
					c0.2,0.2,0.5,0.1,0.7-0.1c0.3-0.2,0.3-0.5,0.2-0.8c-0.4-0.9,0.2-2.4,1.1-2.7c0.7-0.3,1,0.3,1.4,0.7c1.8,1.8,3.5,3.6,5.3,5.4
					c2,2,3.9,4,5.8,6c1.1,1.2,1.6,1.1,2.7-0.1c1.4-1.7,1.5-1.7,3,0c4.1,4.4,8.3,8.7,12.4,13.1c2.6,2.8,5.2,5.8,7.8,8.7
					c0.3,0.3,0.5,0.7,1.2,0.7c-2.4-2.6-4.7-5.2-7-7.7c-4.3-4.7-8.5-9.4-12.9-13.9c-1-1-1.7-2.5-3.4-2.7c-0.1,0-0.3-0.3-0.3-0.3
					c0.4-1.1-0.5-1.5-1-2.1c-0.6-0.6-0.5-1,0.2-1.3c1-0.5,2-0.5,3.1-0.2c0.5,0.2,0.8,0.6,0.8,1.2c0,0.5,0.2,0.8,0.5,1.1
					c1,1,1.1,1.1,2.1,0.1c0.8-0.8,0.8-1.2-0.1-2.1c-0.2-0.2-0.5-0.5-0.7-0.7c-0.9-1.1-0.6-2.2,0.7-2.8c0.1-0.1,0.3-0.1,0.4,0
					c0.2,0.1,0.3,0.5,0.1,0.6c-0.8,1,0.2,1.3,0.7,1.8c0.6,0.7,0.9-0.2,1.3-0.4c0.2-0.1,0.3-0.2,0.5-0.3c-0.5-0.5-1-0.9-1.5-1.4
					c-0.8-0.7-1-1.7-0.4-2.4c0.6-0.7,1.2-0.6,2.2,0.2c1,0.8,1.2,2.2,2.3,3.1c1.3,1,2.3,2.2,4,2.4c0.6,0.1,0.9,0.7,1.2,1.2
					c0.9,1.3,1,1.1,2.3,0.3c1.3-0.8,1.2-1.8,1.2-3.1c-0.1-1.8-1.1-3.1-2.3-4.3c-1.3-1.4-2.5-2.7-3.8-4.1c-0.3-0.4-0.7-0.7-1.3-0.7
					c-0.9-0.1-1.2-1.1-1.8-1.7c-0.8-0.7-1.4-1.5-2.1-2.1c-0.5-0.5-1.1-0.5-1.7-0.1c-2,1.3-4,2.5-6,3.7c-0.5,0.3-0.9,0.6-1.1,1.2
					c-0.1,0.4-0.4,0.5-0.7,0.7c-0.3,0.2-0.7,0.3-0.8,0.5c-0.3,1.4-1.8,1.7-2.4,2.8c-0.2,0.4-0.6,0.7-1,0.7c-1.1,0.1-2,0.6-2.8,1.3
					c-0.3,0.3-0.8,0.5-1.1,0c-0.3-0.4-0.2-0.9,0.2-1.2c0.4-0.3,0.6-0.6,0.9-0.9c0.3-0.3,0.4-0.5,0.1-0.9c-0.7-0.8-0.2-1.3,0.5-1.6
					c0.8-0.3,1.4-0.8,1.6-1.5c0.1-0.4,0.4-0.6,0.8-0.6c0.5-0.1,0.9-0.3,0.9-0.9c0-0.1,0-0.3,0.1-0.3c1.5-0.7,1.4-2.1,1.8-3.4
					c0.2-0.8,0.6-1.7,1.2-2.3c3.3-3.5,6.1-7.3,9.3-10.9c0.3-0.4,0.5-0.8,0.4-1.4c-0.1-0.8,0.4-1.3,1.1-1.4c1.2-0.2,2.2-1.1,2.5-2.4
					c0.1-0.7,0.5-1,1.2-1.1c1.9-0.2,2.7-2,4-3.1c0.3-0.3,0-0.6-0.2-0.9c-1.8-1.8-3.5-3.7-5.3-5.4c-0.7-0.7-1.7-1.1-2.5-1.6
					c-0.5-0.3-0.7-0.7-0.7-1.3c0-2-0.2-4,0.1-5.9c0.1-0.6-0.3-0.9-0.7-1.2c-3.7-3.5-7.2-7.2-10.8-10.8c-2.5-2.5-4.8-5.1-7.3-7.6
					c-5.6-5.7-11-11.6-16.6-17.3c-11.9-12.2-23.7-24.4-35.5-36.6c-2.9-3-5.7-6.2-8.7-9.2c-4.1-4-8-8.3-12.1-12.3
					c-0.9-0.8-1.5-2-2.7-2.5c-4.1-1.9-7.4-5-11.6-6.7c-0.2-0.1-0.5-0.3-0.7-0.3c-1.1,0.4-1.5-0.3-1.8-1.1c-0.6-1.8-1.9-3-3-4.4
					c-1-1.1-2.2-2.1-3-3.4c-0.3-0.4-0.6-0.4-1-0.3c-0.7,0.2-1.3-0.1-1.7-0.7c-0.4-0.7-0.7-1.4-0.2-2.2c0.7-1.1,1.7-2,1.6-3.5
					c0-0.3,0.3-0.6,0.6-0.9c1.9-1.9,3.9-3.8,5.8-5.7c0.6-0.5,1.1-0.9,2-0.8c0.9,0.1,1.6-0.6,2.4-0.9c1.4-0.6,2.3-0.1,2.7,1.2
					c0.6,1.8,1.8,3.1,2.9,4.4c1.3,1.5,2.6,2.9,4.6,3.6c0.7,0.2,1.2,0.8,1.3,1.8c0.1,1.2,0.4,2.3,1.1,3.3c1.4,2.2,2,4.9,3.8,6.9
					c1.2,1.4,2,3,2.8,4.5c0.5,1,1.4,1.5,2.2,2.3c4,4.1,8.3,7.8,12.4,11.8c2.8,2.7,5.6,5.5,8.5,8.1c4.2,3.8,8.2,7.9,12.3,11.8
					c4.4,4.1,8.7,8.3,13,12.5c4.8,4.6,9.6,9.2,14.3,13.8c3.2,3,6.2,6.3,9.3,9.3c3.5,3.4,7.1,6.7,10.6,10.2
					c3.9,3.9,8.1,7.4,11.9,11.4c0.6,0.6,1.2,0.9,2,0.9c2,0,4-0.3,5.9,0.1c0.7,0.1,1.3,0.4,1.9,0.8c0.2,0.1,0.5,0.3,0.5,0.5
					c-0.3,1.9,1.5,2.5,2.4,3.6c1.1,1.3,2.5,2.5,3.7,3.7c0.5,0.5,0.9,0.6,1.4,0.1c0.2-0.2,0.5-0.3,0.6-0.5c4.2-4,8.7-7.7,12.8-11.7
					c1.1-1.1,2.3-2.1,3.4-3.1c0.4-0.4,0.5-0.7,0-1c-0.6-0.4-0.3-0.8,0-1.2c1.3-1.6,3-2.7,4.7-3.7c1.4-0.8,2.8-0.1,3.6,1.8
					c0.6-0.8,1.9-1.1,1-2.5c-0.4-0.7,0.2-1.2,1.1-1.5c-2-0.7-3.3-2.1-4.5-3.7c-0.4-0.6-0.4-1.1,0-1.6c1.5-1.6,3-3.2,4.7-4.5
					c1.1-0.8,2-0.4,2.8,0.3c0.8,0.7,1.5,1.5,2.3,2.2c0.3,0.3,0.5,0.7,0.4,1.2c-0.3,0.9,0.1,1.3,0.9,1.6c0.6,0.2,1.4,0.7,1.2,1.2
					c-0.3,0.8-0.2,2-1.5,2.2c-0.7,0.1-0.9,0.4-0.8,1.1c0.2,1-0.6,1.6-1.3,2.2c-1.2,0.8-2.2,1.8-3.1,2.8c-0.3,0.3-0.4,0.6-0.2,1
					c0.8,1.7,0.3,3.3-1.2,4.5c-0.6,0.4-0.8,0.9-0.9,1.5c-0.2,1.2-0.7,2.2-2.2,2.4c0.9,1.1,1.8,2,2.7,2.8c0.6,0.5,1.1,1,0.7,1.9
					c-0.2,0.4,0.1,0.7,0.4,1c1.1,1.1,2.4,2,3.3,3.2c1.8,2.5,4.5,1.7,6.8,2.3c0.6,0.2,2.6-1.5,2.8-2.1c0.1-0.3,0-0.5-0.1-0.8
					c-0.7-1-1.2-2.2-2.5-2.8c-0.7-0.4-1.3-0.9-1.4-2c-0.1-0.9-1.2-1.5-1.9-2.1c-0.7-0.5-1.4-1-2-1.6c-1-0.9-0.9-2.2,0.4-2.6
					c1.3-0.4,2.1-1.2,2.9-2.2c0.4-0.6,0.8-0.6,1.3-0.1c0.6,0.4,1,1,1.5,1.4c0.4,0.3,0.7,0.7,1.2,0.4c0.4-0.3,0.9-0.6,0.9-1.1
					c0-0.6-0.5-1.1-1-1.1c-1.1-0.1-1.8-0.6-1.8-1.6c0-1.1,0.4-2.2,1.2-3c0.5-0.5,1-0.3,1.5,0.3c0.8,0.9,2.2,1,3,0.2
					c1.9-1.6,1.9-1.6,0.1-3.4c-3.6-3.7-7.2-7.6-10.9-11.2c-0.4-0.4-0.7-0.8-0.2-1.3c0.5-0.5,0.8-1.4,1.9-1c0.4,0.1,0.8,0.6,1.1,0.1
					c0.4-0.5-0.2-0.8-0.4-1.2c-0.3-0.5-0.3-0.8,0.2-1.2c0.7-0.5,1.4-0.8,1.9-1.5c0.3-0.4,0.7-0.2,1,0.1c0.4,0.5,0.9,0.5,1.5,0.1
					c0-0.1,0-0.2-0.1-0.3c-1-1.3-0.7-2.4,1-2.8c0.5-0.1,0.8,0.1,1.1,0.4c3.2,3.4,6.6,6.6,9.6,10.2c1.1,1.3,2.5,2.3,3.6,3.6
					c1.8,2,3.9,3.8,5.5,5.9c0.5,0.6,1.1,0.6,1.7,0.3c1.2-0.6,2.3-1.4,3.4-2.2c0.3-0.3,0.7-0.6,1-0.8c2.2-1.4,2.9-1.3,4.6,0.7
					c1.2,1.4,2.5,2.7,3.8,4c0.8,0.8,0.6,1.5,0.1,2.3c-1,1.8-2.4,3.5-3.6,5.1c-0.7,0.9-0.6,1.5,0.2,2.4c2.9,3.2,5.9,6.4,9,9.5
					c3.2,3.3,6.3,6.7,9.7,9.9c0.8,0.8,0.3,2.9-0.8,3.2c-0.4,0.1-0.6-0.1-0.8-0.3c-0.3-0.1-0.6-0.1-0.7,0.1c-0.2,0.3-0.1,0.6,0.2,0.8
					c0.9,0.6,0.8,1-0.1,1.5c-0.3,0.2-0.6,0.5-0.9,0.8c-0.6,0.7-1.1,0.9-2,0.4c-0.7-0.4-1.1,0-0.9,0.7c0.3,0.9-0.1,1.6-0.8,2.1
					c-0.7,0.5-1.3,0.4-1.8-0.2c-3.9-4.3-8-8.4-12-12.6c-0.6-0.6-1.1-0.7-1.8-0.1c-0.7,0.7-1.4,1.3-2.2,2.2c1-0.5,2-0.3,2.8-0.7
					c0.6-0.3,1.1-0.1,1.5,0.3c0.5,0.6,1,1.2,1.6,1.7c1.7,1.3,1.5,3,1.2,4.7c-0.1,0.4,0,0.6,0.3,0.8c1.8,1.8,3.6,3.6,5.4,5.4
					c1.7,1.8,3.5,3.5,5.2,5.3c1.2,1.2,1.3,2.1,0.3,3.5c-0.5,0.7-0.7,1.3-0.2,2.2c0.4,0.8,0.3,1.7-0.1,2.6c-0.3,0.7-0.1,1,0.7,1
					c0.2,0,0.4,0,0.6,0.1c0.6,0.1,1.3,0.6,1.9,0.4c0.7-0.2,0.4-1.1,0.6-1.7c0.5-1.2,1.5-1.5,2.6-1.7c0.7-0.1,1.1-0.3,1.5-0.8
					c0.8-1,2.2-0.9,2.2,0.3c0.1,2.2,1.8,2,3.1,2.4c4.4,1.1,8.7,2.2,13.1,3.3c4.5,1.1,9,2.1,13.5,3.2c3.5,0.8,7.1,1.7,10.6,2.6
					c4,1,7.9,2,11.9,2.9c6,1.5,12,3,18,4.4c4.8,1.2,9.6,2.3,14.4,3.5c6.6,1.7,13.2,3.4,19.7,5c1.3,0.3,2.7,0.3,4,0.6
					c1.7,0.4,2.4,1.1,2.1,2.8c-0.2,1.2,0.3,1.6,1.4,1.8c5,1.3,10,2.6,14.9,3.9c1,0.3,2,0.3,2.9,0.7c0.1,0.1,0.4,0.1,0.4,0.1
					c1.1-0.7,2-0.1,2.9,0.3c0.5,0.2,0.9,0.2,1.1-0.4c0.1-0.4,0.4-0.7,0.7-1c0.2-0.2,0.4-0.4,0.1-0.7c-0.7-0.9,0-1.6,0.5-2.2
					c0.6-0.7,1.3-0.6,2-0.3c1.3,0.6,2.6,0.6,3.9,1c0.8,0.2,1.1,0.7,0.9,1.5c-0.5,1.4,0.2,2.9-0.4,4.2c-0.1,0.2,0.1,0.3,0.2,0.3
					c0.2,0,0.3,0,0.4-0.2c0.1-0.3,0.2-0.6,0.3-0.9c0.6-2.3,2.3-3.3,4.6-2.7c4,1,8,2.1,12,3.2c0.4,0.1,0.9,0.4,1.3,0.6
					c1.6,0.8,1,2.1,0.9,3.3c0,0.3-0.2,0.6-0.2,0.9c0,0.3-0.4,0.8,0.3,0.9c0.4,0,0.8-0.2,0.9-0.7c0.2-0.9,0.4-1.8,0.6-2.7
					c0.4-2.2,0.8-4.5,1.3-6.7c0.1-0.6,0.3-1.1-0.4-1.5c-0.4-0.2-0.3-0.7-0.1-1c0.2-0.4,0.4-0.8,1-0.6c4,1.2,8.1,1.8,12,3.1
					c1.4,0.5,2.4,1.4,3.4,2.6c1.4,1.8,3,3.4,4.6,5.1c0.6,0.7,0.9,1.3,0.7,2.3c-0.6,2.5-1.1,5.1-1.4,7.7c-0.1,0.7,0.1,1.1,0.9,1.1
					c0.3,0,0.6,0.1,0.9,0.1c1.4-0.4,2.6-0.3,3.3,1.2c0.2,0.3,0.7,0.3,1,0.4c3.6,0.9,7.1,1.9,10.7,2.8c1.5,0.3,2.9,0.7,4.4,1.1
					c0.7,0.2,1.5,0.4,1.3,1.5c-0.1,1-0.6,1.6-1.7,1.6c-0.7,0-1.5-0.1-2.2-0.3c-4.4-1.1-8.7-2.3-13-3.5c-0.6-0.2-1.2-0.3-1.6,0.4
					c-0.6,0.9-1.4,0.8-1.9,0.1c-0.7-0.9-1.8-1.1-2.8-1.6c-0.6-0.3-0.8-0.1-0.9,0.5c-0.2,1.3-0.5,2.7-0.8,4c-0.2,1.1-0.9,1.6-2,1.5
					c-1.9-0.2-3.9-0.4-5.8-0.6c-1-0.1-1.5-0.6-1.3-1.7c0.3-1.1-0.1-1.5-1.3-1.5c-1.3,0-2.7-0.3-4-0.5c-0.8-0.1-1.4-0.2-1.5,1
					c-0.1,1-0.9,1.5-1.9,1.4c-1-0.1-2.1-0.1-3.1-0.2c-0.5,0-0.9,0-1,0.6c-0.2,1.1-0.4,2.2-0.1,3.3c0.3,1.1,0,2.4-0.9,3.1
					c-0.4,0.3-1.1,1.1-1.4-0.3c-0.1-0.5-0.7-0.7-1.2-0.1c-0.6,0.6-0.9,0.4-1.2-0.3c-0.3-0.8-0.3-1.6-0.1-2.3c0.4-1.3,0.3-2.7,0.6-4
					c0-0.2,0.1-0.4,0-0.5c-0.9-1-0.9-2.2-1-3.5c0-0.5-0.6-0.4-0.9-0.5c-1.1,0-2.3,0-3.4-0.1c-0.3,0-0.7,0-0.8,0.3
					c-0.2,0.9-0.9,1.6-0.8,2.6c0,1.1-0.3,2.1-1.5,2.5c-1.2,0.5-2.3,0.5-3.3-0.4c-0.2-0.2-0.4-0.5-0.8-0.3c-0.9,0.5-1.7,0-2.6-0.2
					c-2.1-0.6-4.1-1.4-6.3-1.6c-1.5-0.1-3.2-0.5-4.5-1.7c-0.5-0.5-1.2-0.5-1.8-0.8c-2.8-1.2-5.8-1.9-8.6-2.8
					c-3.6-1.2-7.2-2.2-10.8-3.3c-2.6-0.8-5.2-1.5-7.8-2.3c-0.8-0.2-1.5-0.1-2.2,0.3c-2.4,1.3-5.6,0.1-6.9-2.6
					c-1.1-2.2,0.2-5.3,2.5-6.4c0.2-0.1,0.4-0.1,0.5-0.2c0.3-0.1,0.7-0.3,0.7-0.7c0-0.5-0.5-0.5-0.8-0.6c-3.1-0.7-6.2-1.5-9.3-2.2
					c-3-0.7-6-1.4-9.1-2c-4.2-0.9-8.4-1.7-12.7-2.6c-3.1-0.6-6.1-1.3-9.2-2c-2.8-0.6-5.5-1.2-8.3-1.8c-0.7-0.2-1.1,0-1.2,0.8
					c-0.1,1.3-0.8,2.3-1.7,3.1c-1,0.9-2.2,0.8-3.5-0.1c-1-0.7-1.5-2.1-1.2-3.2c0.5-2.2,0.6-2.2-1.7-2.8c-6.4-1.5-12.8-3-19.2-4.4
					c-5.9-1.3-11.9-2.6-17.9-3.9c-5-1.1-9.9-2.4-14.9-3.6c-2.4-0.6-4.8-1.2-7.2-1.5c-1.7-0.2-3.5-0.6-5.1-0.6c-1.3,0-3.2-0.3-4,1.8
					c-0.4,1.1-1.6,1.8-2.7,2.4c-0.7,0.4-1.5,0-2.6-0.2c0.7,1,1.3,1.7,2,2.2c1.8,1.5,1.9,1.6,0.2,3.3c-1.2,1.2-2.4,2.4-3.7,3.5
					c-0.7,0.6-0.6,0.9-0.1,1.4c2.8,3.4,6,6.4,9,9.6c3.6,3.7,7.2,7.4,10.8,11.1c0.8,0.8,1.7,1.4,2.4,2.2c3.6,4.5,7.6,8.5,11.7,12.6
					c4.3,4.3,8.5,8.7,12.9,12.9c2.1,2.1,4.1,4.2,6.3,6.2c0.3,0.3,0.7,0.5,0.3,1c-0.3,0.4,0.1,0.6,0.3,0.9c0.3,0.4,0.3,0.8,0,1.2
					c-0.4,0.4-0.8,0-1.1-0.2c-0.1-0.1-0.2-0.2-0.3-0.2c-1.3-1.3-1.3-1.3-2.6,0c-1.9,2-4,3.7-5.7,5.8c-0.9,1-1.9,1.9-3,2.8
					c-0.7,0.5-0.6,0.9-0.1,1.4c0.2,0.2,0.5,0.4,0.6,0.7c0.4,0.6,1.1,1.3,0.2,2c-0.8,0.6-1.8,0.5-2.5-0.4c-0.5-0.6-1-1.4-1.6,0
					c-0.3,0.6-0.8,0.5-1.2,0c-0.5-0.5-0.8-1-1.6-0.3c-0.5,0.4-1.1-0.2-1.5-0.6c-1.7-2.1-3.9-3.8-5.8-5.8c-2.7-2.8-5.4-5.6-8.1-8.4
					c-2.7-2.8-5.5-5.5-8.2-8.2c-0.6-0.6-1.3-0.7-1.8,0c-0.9,1.2-1.7,1-2.7,0.2c-0.9-0.7-2-1.2-2.4-2.5c-0.1-0.4-0.5-0.7-0.8-1
					c-3.1-2.6-5.6-5.7-8.5-8.5c-1.9-1.8-3.6-3.8-5.4-5.6c-0.7-0.7-1.5-1.3-2.4-1.8c-1.1-0.6-2.3-1.1-2.9-2.3c-0.2-0.4-0.6-0.7-1-0.9
					c-1.7-0.7-3-2.1-4.1-3.5c-0.3-0.3-0.6-0.8-1-0.4c-0.5,0.4-0.2,0.8,0.2,1.1c1.8,1.7,2.5,4,3.1,6.3c0.7,2.4,1.4,4.9,2,7.3
					c0.3,1.2,1.1,2,1.9,2.8c4.1,4.4,8.2,8.8,12.5,12.9c3.7,3.5,7.1,7.3,10.7,10.9c0.5,0.5,1.4,1,0.8,1.9c-0.5,0.8-2,0.8-2.8,0.1
					c-1.3-1.1-2.5-2.3-3.7-3.5c-3-3.1-6-6.1-8.9-9.2c-3.9-4-7.9-8-11.6-12.2c-0.9-1-1.2-2.3-1.6-3.6c-1-3.3-2-6.7-3-10
					c-0.6-1.9-2.3-3-3.6-4.4c-0.2-0.2-0.4-0.2-0.6,0c-1,0.8-2.1,0.6-3.2,0.4c-0.3-0.1-0.6,0-0.9,0.2c-0.5,0.6-1.1,0.7-1.7,0
					c-0.1,0.8,0.1,1.4,0.3,2c0.2,0.5,0.5,0.6,1,0.5c0.6-0.1,0.4-0.6,0.2-0.9c-0.1-0.3-0.3-0.8,0.1-0.9c0.5-0.2,0.5,0.4,0.7,0.7
					c0.6,1.5,0.6,3.2,1.2,4.7c0.3,0.9,0.8,1.5,1.8,1.6c1.5,0.1,2.9,0.6,4.4,0.3c0.4-0.1,0.8,0,0.8,0.4c0.1,0.5-0.3,0.5-0.7,0.6
					c-4,0.4-7.8,1.6-11.8,2.4c-0.3,0.1-0.9,0-0.8,0.6c0.1,0.4,0.6,0.2,0.9,0.1c3.6-0.8,7.3-1.6,10.9-2.3c0.4-0.1,0.9-0.1,1.2-0.3
					c0.2-0.1,0.5-0.3,0.7,0.1c0.1,0.3-0.1,0.6-0.3,0.7c-0.5,0.2-1.1,0.4-1.7,0.5c-0.9,0.2-1.9,0.5-2.9,0.6c-1.1,0.1-1.1,0.7-0.8,1.5
					c0.5,1.5,0.9,3,1.4,4.6c0.2,0.7,0.3,1.3-0.5,1.5c-0.7,0.2-1.5,0.4-1.9-0.8c-0.5-1.9-1.2-3.7-1.8-5.6c-0.4,0.3-0.3,0.7-0.2,1
					c1.3,4.7,1.9,9.6,2.9,14.4c1.3,6.1,2.4,12.2,3.9,18.3c1,4,1.8,8,2.6,12.1c0.9,4.2,1.6,8.5,2.6,12.6c0.6,2.3,1,4.6,1.6,6.9
					c0.2,1,0.8,1.5,1.9,1.8c1.5,0.5,2.8-0.2,4.2-0.2c1.1,0,1.7,0.4,1.8,1.4c0.2,2,0.7,4,1.3,5.9c0.6,2,0.8,4.1,1.3,6.1
					c1,3.6,1.5,7.3,2.3,10.9c0.8,3.6,1.5,7.3,2.3,10.9c0.3,1.4,0.2,1.5-1.2,1.2c-1.1-0.2-2.2,0.1-3.2,0.3c-0.8,0.2-1.6,0.4-2.4,0.2
					c-0.4,3,0.5,5.8,1.1,8.6c1.1,5,2.1,10.1,3.2,15.1c0.4,1.8,0.7,3.7,1,5.6C295.8,451.9,295.9,452.2,295.6,452.5
					c-0.5-0.4-0.6-1-0.7-1.6c-0.3-1.7-0.6-3.4-0.9-5.2c-0.8-4-1.8-7.9-2.6-11.9c-1-5.2-2.2-10.4-3.1-15.6
					c-0.9-5.2-2.4-10.4-3.4-15.6c-0.4-2.2-0.7-4.5-1.4-6.7c-0.5-1.6-0.3-3.5-1.7-4.8c-0.2-0.2-0.3-0.6-0.3-1
					c-0.3-1.2-0.6-2.4-0.8-3.6c-0.1-0.5-0.3-1,0.1-1.4c0.5-0.5,0.5-1.2,0.3-1.6c-0.6-1.7-0.5-3.5-1-5.2c-1.2-4.3-1.9-8.7-2.9-13.1
					c-0.9-4.2-1.8-8.5-2.7-12.7c-0.4-2-1.1-3.9-1.4-5.9c-0.6-3.5-1.6-7-2.1-10.5c-0.5-3.1-1.3-6.1-1.8-9.1c-0.4-2.6-1-5.2-1.8-7.7
					c-0.3-0.8-0.7-0.8-1.4-0.6c-0.7,0.1-0.6,0.6-0.5,1.1c0.5,2.9,1,5.9,1.7,8.8c0.9,3.9,1.1,3-2.4,4c-1.5,0.4-2.4-0.2-2.6-1.7
					c-0.5-2.8-1-5.6-1.6-8.3c-0.3-1.5-0.8-2.7-2-3.7c-0.8-0.6-1.3-1.5-2.3-2.2c0.3,1.6,0.6,3.1,0.8,4.5c0,0.2,0.2,0.3,0.4,0.4
					c1,0.7,1.4,2.5,0.8,3.6c-0.6-0.5-0.5-1.3-0.7-1.9c-0.3-0.9-0.7-0.9-1.4-0.7c-1.3,0.4-0.5,1.5-0.6,2.3c-0.1,0.6,0.4,0.9,1,0.6
					c0.5-0.3,1.1-0.3,1.7-0.3c0.3,0.5,0,1,0.2,1.6c0.5,1.7,0.9,3.4,1.2,5.1c0.3,1.8,2.4,2,2.9,3.7c0,0,0.1,0,0.2,0
					c0.4,0.1,0.5,0.4,0.2,0.6c-0.5,0.3-0.5,0.8-0.5,1.3c0.1,0.5-0.1,0.9-0.7,0.9c-0.8,0-0.8,0.5-0.7,1.1c1.1,5.1,2.1,10.3,3.3,15.3
					c1.2,5.1,2.3,10.3,3.5,15.4c0.6,2.2,1.1,4.5,1.6,6.8c0.8,4.2,1.8,8.3,2.8,12.5c0.8,3.4,1.6,6.9,2.4,10.3
					c0.2,0.9,0.2,1.7,1.6,1.4c0.9-0.2,1.3,0.7,1.5,1.4c0.1,0.6-0.2,1-0.7,1c-1.5,0.1-1.2,1.2-1,2c0.9,3.3,1.6,6.6,2.3,9.9
					c0.2,0.9,0.5,1.4,1.5,1.4c1,0,1.2,0.6,0.6,1.5c-0.2,0.3-0.4,0.7-0.7,0.9c-0.6,0.4-0.6,0.8-0.5,1.5c0.8,4.3,2,8.5,2.9,12.8
					c0.9,4.6,2.2,9.2,3.1,13.9c0.8,4,1.8,7.9,2.7,11.8c0.7,3.1,1.3,6.3,2,9.5c0.5,2.1,1.7,3.5,3.9,3.8c1.9,0.2,3.3-0.7,4.3-2.2
					c0.5-0.7,0.6-1.2-0.1-1.8c-0.2-0.1-0.2-0.4-0.3-0.6c-0.4-2-0.8-4-1-6c-0.3-2.7-0.6-5.3-1.4-7.9
					C295.3,453.5,295.2,453,295.6,452.5z M146.2,153.6C146.2,153.6,146.2,153.7,146.2,153.6c5.4,5.6,10.7,11.1,16.1,16.7
					c5.8,6,11.7,12,17.5,18.1c6,6.2,12,12.5,18.1,18.7c5.8,6,11.5,12.1,17.5,17.8c2.1,2,4.2,4,6.3,6.1c0.4,0.4,0.7,0.6,1.2,0.2
					c2.6-2.3,4.9-5,7.5-7.2c0.5-0.4,0.4-0.7-0.1-1.1c-0.5-0.4-1-0.9-1.4-1.4c-2.1-2.1-4.1-4.3-6.3-6.4c-3.4-3.3-6.8-6.4-10.2-9.7
					c-3.9-3.7-7.8-7.5-11.6-11.3c-4.1-4.1-8.2-8.2-12.4-12.2c-1.7-1.6-3.3-3.4-5-5c-3.3-3.1-6.7-6.2-9.9-9.4
					c-4.3-4.3-8.8-8.3-13.1-12.6c-2.7-2.8-5.7-5.3-8.5-7.9c-4.6-4.2-9-8.7-13.7-12.8c-1.9-1.7-3.7-3.6-5.5-5.3
					c-0.5-0.5-0.9-0.8-1.5-0.2c-1.4,1.4-2.8,2.7-4.2,4.1c-0.4,0.3-0.5,0.6,0,1.1c2.5,2.7,5,5.4,7.6,8
					C138.5,145.6,142.3,149.6,146.2,153.6z M394.7,279.8c-0.5,0.5-0.8,0.7-1.3,0.5c-0.7-0.3-1.2-0.9-1.1-1.6
					c0.1-1.2-0.6-1.4-1.5-1.6c-2.6-0.6-5.1-1.3-7.7-2c-2.9-0.7-5.9-1.4-8.8-2.2c-3-0.7-6-1.4-8.9-2.2c-2.1-0.5-4.2-1.1-6.4-1.5
					c-2.5-0.5-5-1.2-7.5-1.8c-4.5-1-9-2.3-13.4-3.4c-0.9-0.2-1.6,0-1.9,1c-0.2,0.6-0.6,1-1.2,0.8c-1-0.2-2.2-0.2-3-1
					c-0.1-0.1-0.1-0.3,0-0.4c0.2-1.3-0.7-1.6-1.6-1.8c-0.6-0.1-1.1-0.2-1.7-0.4c-1.5-0.4-3.1-0.9-4.6-1.1c-1.6-0.1-3.1-0.1-4.3-1.4
					c-0.3-0.3-1.1-0.8-1.5-0.1c-0.5,1,0.2,2.3,1.3,2.5c3.4,0.8,6.7,1.5,10.1,2.3c1.3,0.3,1.5,0.6,1.2,1.9c-0.2,0.8-0.4,1.6-0.6,2.4
					c-0.3,1.4-0.8,1.8-2.2,1.5c-1.8-0.4-3.6-0.8-5.4-1.2c-1.8-0.4-3.6-0.7-5.4-1.1c-1.2-0.3-1.4,0.9-1.7,1.4
					c-0.3,0.6,0.7,0.6,1.1,0.7c4.7,1.3,9.6,2,14.3,3.4c4.1,1.2,8.4,1.8,12.6,2.9c5,1.3,10.1,2.3,15.2,3.4c4.9,1.1,9.7,2.4,14.6,3.2
					c0.8,0.1,1.8,0.8,2.4,0.3c1.1-0.8,2-0.3,2.9-0.1c0.9,0.2,1.8,0.5,2.7,0.5c0.5,0,1.5,0,1.5,0.7c0.1,0.9,0.6,1,1.2,1.1
					c4.2,1.2,8.5,1.9,12.7,2.8c4,0.9,8.1,1.6,12.1,2.5c6.9,1.5,13.8,2.8,20.7,4.6c1,0.2,2,0.6,3,0c0.9-0.5,4,0.5,4.4,1.3
					c0.4,0.8,1.1,1.1,1.8,1.3c3.2,0.7,6.4,1.5,9.6,2.2c3.4,0.8,6.9,1.7,10.3,2.4c2.9,0.5,5.7,1.9,8.8,1.3c2.3-0.4,3-0.9,3.2-3.2
					c0.2-2.4-0.3-3.4-2.5-4.3c-1.8-0.8-3.8-1-5.7-1.5c-4.6-1.2-9.2-2.5-13.8-3.7c-3.6-1-7.3-1.7-11-2.7c-4.8-1.3-9.6-2.6-14.4-3.7
					c-4.1-0.9-8.1-2.1-12.2-3c-1-0.2-1.2,0-1.1,0.9c0.1,0.5-0.3,0.9-0.7,1.1c-0.5,0.2-0.9,0-1.3-0.4c-0.3-0.3-0.4-0.7-0.5-1
					c-0.2-1-0.9-1.6-1.8-1.8c-3-0.8-6.1-1.6-9.1-2.3c-0.9-0.2-1.6-0.3-1.7,1C395,279.5,394.7,279.7,394.7,279.8z M259.7,225.8
					c-0.1,0.1-0.1,0.2-0.2,0.3c1,1,2,2.1,3,3.1c4.8,5,9.7,10,14.5,15c0.9,0.9,1.7,1.7,3.2,1.9c3.2,0.4,6.3,1.2,9.5,1.8
					c5.7,0.9,11.5,1.8,17.2,2.7c4.1,0.7,8.2,1.4,12.3,2.1c1.9,0.3,3.8,0.6,5.6,0.9c0.5,0.1,1-0.1,1.2-0.5c0.2-0.4-0.1-0.8-0.4-1
					c-2-1.8-3.5-4-5.4-5.8c-3.4-3.1-6.6-6.5-9.7-9.9c-0.8-0.8-1.7-1.2-2.8-1.4c-4.3-0.7-8.6-1.5-12.8-2.4c-3.1-0.7-6.2-1.3-9.2-1.9
					c-2.7-0.5-5.4-1-8.1-1.4c-2.1-0.3-4.1-0.9-6.2-1.2c-2.1-0.3-4.2-0.9-6.3-1.3C263.3,226.4,261.5,226,259.7,225.8z M225.1,259.4
					c0.3,1.4,0.6,2.5,0.8,3.6c0.4,2.4,0.7,4.8,1.1,7.1c0.8,4.4,1.6,8.8,2.4,13.2c1,5.5,1.9,11,2.8,16.5c0.4,2.3,0.9,4.5,1.2,6.7
					c0.3,2.2,1,4.2,2.7,5.8c1.7,1.6,3.4,3.3,4.9,5.1c1.3,1.6,2.8,2.9,4.3,4.4c1.2,1.3,2.4,2.5,3.8,3.6c0.8,0.7,1.5,1.4,2.1,2.3
					c0.2,0.3,0.6,0.6,1,0.5c0.4-0.1,0.3-0.6,0.4-0.9c0.1-0.6,0-1.2,0-1.9c0-0.3,0-0.7-0.4-0.5c-0.6,0.3-0.9,0.2-1.3-0.2
					c-0.4-0.4-0.6-0.9-0.6-1.5c0-0.7,0.3-1.2,1.1-0.9c0.7,0.3,0.8,0.1,0.7-0.6c-0.6-4.3-1.5-8.5-2.3-12.8c-1.1-6-2.2-12-3.3-18
					c-0.6-3.7-1.3-7.5-2.2-11.2c-0.1-0.3-0.1-0.5-0.3-0.7c-1-0.8-1.6-1.8-2.4-2.7c-2.6-2.8-5.2-5.6-7.8-8.4
					c-1.6-1.8-3.4-3.5-4.9-5.3C227.6,261.6,226.6,260.6,225.1,259.4z M339.2,349.8c-0.8-0.6-0.2-1,0.2-1.4c0.4-0.4,0.8-0.8,1.2-1.1
					c0.5-0.5,0.9-0.9,0.8-1.8c-0.2-0.9,0.9-1.8,1.8-1.6c0.6,0.1,1-0.1,1.3-0.5c0.5-0.5,1-1,1.5-1.5c1.4-1.4,1.4-1.4,0.1-2.9
					c-0.7-0.7-1.2-1.6-2.4-0.8c-0.4,0.3-1.1,0.2-1.4-0.5c-0.3-0.6-0.1-1.1,0.4-1.4c0.6-0.3,0.3-0.5,0-0.8c-2.1-2.2-4.2-4.4-6.4-6.5
					c-2.6-2.5-5-5.1-7.5-7.6c-2.4-2.3-4.7-4.8-7-7.2c-0.4-0.4-0.8-0.9-1.5-0.4c-3,2.3-5.4,5.2-8.1,7.8c-0.4,0.4-0.2,0.7,0,1.1
					c1,1.3,2.2,2.4,3.3,3.6c3.7,3.8,7.3,7.6,11,11.4c2.7,2.8,5.5,5.7,8.3,8.5c1.1,1.2,2.3,2.3,3.5,3.4
					C338.6,349.9,338.8,350,339.2,349.8z M264,265.6C264.1,265.6,264.1,265.6,264,265.6c-1.3,1.2-2.5,2.4-3.8,3.7
					c-1,1-1.1,1.2-0.1,2.3c1.8,1.9,3.6,3.8,5.5,5.7c4.9,5,9.7,10.2,14.8,15.1c1,1,1.4,0.8,2.2,0c2.4-2.5,5.1-4.6,7.5-7.1
					c1.1-1.2,1.2-1.2,0.1-2.3c-2.9-3-5.7-5.9-8.6-8.9c-2.1-2.2-4.3-4.4-6.4-6.6c-1.7-1.8-3.6-3.5-5.2-5.6c-0.6-0.8-1.3-0.9-2.1-0.1
					C266.7,263.1,265.4,264.3,264,265.6z M249.7,241.7c-2.2-2.2-5-5.3-8-8.2c-0.6-0.6-1-0.6-1.5-0.1c-2.8,2.5-5.6,5-8.1,7.8
					c-0.5,0.6-0.2,1,0.2,1.4c1.2,1.3,2.4,2.5,3.7,3.8c2.5,2.5,5.1,5,7.5,7.6c2,2.1,4.3,3.8,5.9,6.2c0.1,0.2,0.3,0.4,0.6,0.3
					c1.3-0.1,2.7,0,3.8-0.8c2.7-1.8,4.3-4.3,5.1-7.5c0.2-0.8,0-1.2-0.5-1.8C255.7,247.9,253.1,245.2,249.7,241.7z M252.6,263.8
					c-0.5-0.3-0.9-0.2-1.3-0.1c-3.3,0.8-5.9-0.1-8.2-2.6c-3.2-3.4-6.5-6.7-9.8-9.9c-0.7-0.6-1.1-0.7-1.7,0c-1.2,1.2-2.4,2.4-3.7,3.6
					c-0.8,0.8-1.5,1.5-2.2,2.3c-0.4,0.5-0.5,0.9,0.1,1.4c1.1,1.1,2,2.2,3.1,3.3c2.2,2.4,4.5,4.8,6.7,7.1c2.2,2.3,4.3,4.7,6.5,7
					c0.7,0.7,1.4,1.5,2.1,2.1c1.3,1,1.6,1,2.8-0.2c1.3-1.4,2.5-2.8,3.9-4.1c4.2-4.2,8.5-8.3,12.8-12.5c0.6-0.6,1.4-1.2,1.7-2.2
					c-0.3,0.2-0.6,0.5-0.9,0.7c-3,2.9-6,5.7-8.9,8.7c-2.9,3-6,5.7-8.7,8.9c-0.3,0.4-0.8,1.1-1.3,0.6c-0.3-0.3,0.4-0.7,0.7-1.1
					c0.1-0.1,0.1-0.2,0.2-0.4c-0.9-0.1-1.5-0.4-1.1-1.4c0.3-0.7,1.3-1.1,2-0.6c0.6,0.4,1,0.2,1.4-0.2c1.4-1.3,2.8-2.6,4.1-3.9
					c0.6-0.7,0.6-1.2,0-1.8c-0.6-0.6-1.1-1.2-1.7-1.8c-0.5-0.5-0.6-1.1,0.1-1.6C251.6,264.9,252.1,264.4,252.6,263.8z M262,254.6
					c0.7-0.3,1-0.7,1.3-1.2c1.1-1.8,2-1.8,3.6-0.2c0.2,0.2,0.4,0.4,0.6,0.6c0.6,0.8,1.1,0.8,1.9,0.1c2.6-2.3,4.9-4.8,7.5-7.2
					c0.7-0.7,0.7-1,0.1-1.6c-5.3-5.4-10.5-10.9-15.8-16.4c-0.9-0.9-1.8-1.8-2.7-2.6c-0.6-0.5-1.2-0.8-1.9-0.3
					c-2.3,2-4.5,4.2-6.5,6.4c-0.3,0.4-0.2,0.6,0.1,1c3.9,3.8,7.5,8,11.5,11.7c0.4,0.3,0.5,0.8,0.6,1.2
					C262.7,249,262.7,251.7,262,254.6z M336.5,263c0.9-0.1,1.6,0.3,2.4,0.5c6,1.5,12,3,18,4.5c5.5,1.3,10.9,2.5,16.4,3.8
					c6.2,1.5,12.4,3.1,18.6,4.7c0.5,0.1,0.9-0.1,1.3-0.3c0.6-0.4,1.2-0.9,2-0.6c4.2,1.3,8.5,2.2,12.7,3.2c0.7,0.2,1.3,0.5,1.6,1.2
					c0.2,0.3,0.3,0.8,0.8,0.9c5.3,1,10.5,2.5,15.7,3.8c3.2,0.8,6.3,1.6,9.4,2.4c1.9,0.5,3.7,1,5.6,1.5c0.9,0.3,1.2-0.4,1.4-1
					c0.2-0.5,0-1-0.6-1.2c-4.3-1.2-8.5-2.4-12.8-3.5c-4.7-1.2-9.3-2.3-14-3.4c-2.5-0.6-4.9-1.3-7.3-1.9c-3.5-0.9-7-1.6-10.4-2.4
					c-3.3-0.8-6.6-1.8-9.9-2.5c-4.6-1-9.2-2.3-13.8-3.3c-5.2-1.1-10.3-2.5-15.5-3.8c-2.4-0.6-4.8-1.1-7.2-1.7
					c-4.3-1-8.6-2.1-12.9-3.1c-0.3-0.1-0.6-0.2-0.8,0.2C336.9,261.6,336.7,262.3,336.5,263z M285.2,451.7c0.3-0.3,0.3-0.6,0.2-1
					c-0.5-1.9-0.7-3.9-1.2-5.8c-0.9-3.5-1.7-7.1-2.6-10.6c-1-4.4-2.1-8.8-3.1-13.1c-0.1-0.4-0.2-0.9-0.4-1.1
					c-1.3-0.9-1.5-2.2-1.8-3.5c-0.3-1.4-0.7-2.9-1-4.3c-0.7-2.8-1.3-5.5-2-8.3c-0.1-0.6-0.3-1.4,0.2-1.9c0.8-0.8,0.6-1.6,0.4-2.5
					c-0.8-3.2-1.5-6.5-2.3-9.7c-1.4-5.7-2.7-11.5-3.9-17.2c-0.5-2.1-1-4.2-1.6-6.3c-0.8-3.2-1.5-6.5-2.2-9.8
					c-0.7-3.3-1.4-6.7-2.2-10c-0.5-2.4-0.9-4.9-1.7-7.3c-0.2-0.5-0.3-0.9-1-0.8c-0.8,0.1-1.2,0.4-1,1.3c0.6,2.8,1.2,5.7,1.8,8.5
					c0.9,4.7,2.3,9.3,3.1,14.1c0.3,1.7,1.1,3.2,1.2,4.8c0.1,1.6,0.7,3.2,1.1,4.8c0.9,3.8,1.9,7.5,2.6,11.4c0.6,3.3,1.6,6.5,2.3,9.8
					c0.9,4.3,2.2,8.5,3.1,12.8c0.9,4,1.8,8,2.7,12c0.7,3,1.4,5.9,2,8.9c0.6,2.8,1.3,5.6,1.9,8.4c0.7,2.9,1.3,5.8,2,8.6
					c0.5,2.5,1,4.9,1.6,7.4C283.7,452.1,284.6,452.3,285.2,451.7z M295.8,474.2c-1.6-0.1-3-0.4-4.2-1.3c-0.2-0.1-0.3-0.2-0.5-0.1
					c-0.2,0.1-0.1,0.3,0,0.4c0.4,1.9,0.8,3.7,1.3,5.6c0.4,1.7,1.2,3.4,1.2,5.1c0,4,1.5,7.7,1.9,11.6c0.2,2,2.4,3.6,1.3,5.8
					c0,0.1,0,0.2,0.1,0.3c0.6,1.9,0.8,3.9,1.2,5.8c0.2,1.1,0.8,2.1,1.7,2.8c-0.4-1.8-0.2-3.8-1.5-5.4c-0.1-0.2-0.2-0.6-0.1-0.8
					c0.6-1.5,0-2.8-0.3-4.2c-0.5-3.2-0.2-2.4,2.3-2.8c0.7-0.1,2.1-1,2.3,0.9c-0.1-1.3,0.6-2.1,1.2-3c0.2-0.3,0.4-0.5,0.3-0.9
					c-0.4-3-1.2-5.9-1.6-8.9c-0.4-2.8-1.1-5.5-1.7-8.2c-0.4-1.6-0.4-3.3-1.1-5.1c-0.7,1.2-1.9,1.7-3.1,2.2c2.1,0,2.1,0,2.5,1.8
					c0.2,1-0.1,1.5-1.2,1.4c-0.8-0.1-1.6,0.1-2.3,0.4c-1.8,0.7-2.6,0.2-2.9-1.7c-0.1-0.9,0.2-1.4,1.1-1.3
					C294.4,474.7,295.1,474.6,295.8,474.2z M514.7,295.9c-0.5-0.5-0.8-0.9-1.2-1.2c-0.3-0.2-0.7-0.4-0.8,0.1c-0.2,1.3-1,2.5-1.1,3.9
					c-0.3,2.1-0.9,4.2-1.5,6.2c-0.1,0.4-0.1,1-0.7,0.8c-0.5-0.1-0.8-0.7-0.7-1.2c0.2-0.5,0.2-1.1,0.2-1.6c0.3-2.9,1-5.7,1.1-8.6
					c0-0.4-0.1-0.7-0.5-0.8c-2-0.5-4-1-6-1.5c-0.5-0.1-0.7,0-0.9,0.6c-0.9,3.3-1.2,6.7-2,9.9c-0.1,0.5,0,0.9,0.6,1
					c0.9,0.2,1.8,0.4,2.6,0.6c2.2,0.7,4.5,1.3,5.8,3.5c0.3,0.6,0.6,0.5,1.1,0.1c1.3-1.2,2.3-0.9,3,0.7c0.2,0.4,0.4,0.6,0.8,0.6
					c1.2,0.2,2.4,0.4,3.5,0.7c0.4,0.1,0.5,0,0.6-0.4c0.4-2.2,0.8-4.3,1.3-6.5c0.2-0.9,0-1.5-0.6-2.1
					C517.6,299.3,516,297.6,514.7,295.9z M288.3,517.4c1.2,1.3,2.5,2.6,3.7,3.8c0.4,0.4,0.9,0.8,1.5,0.8c2.4-0.2,4.7-0.5,7-1
					c0.5-0.1,0.7-0.3,0.6-0.8c-0.3-1.4-0.2-2.9-0.8-4.2c-0.4-0.9-0.6-1.8-0.5-2.7c0.1-0.9-0.2-1.5-0.7-2.1c-0.8-1-1.7-1.8-1.9-3.1
					c-0.2-1.4-0.6-2.7-0.8-4.1c-0.1-0.7-0.3-0.8-1-0.7c-1.5,0.3-3,0.4-4.5,0.6c-1.8,0.3-3.5,0.6-5.3,1c-0.8,0.2-1.2,0.5-0.9,1.5
					c0.4,1.4,0.7,2.9,0.9,4.4c0.1,1.3,0.6,1.4,1.7,1.2c2.4-0.4,4.8-0.7,7.1-1c0.5-0.1,1.1-0.2,1.6,0c0.5,0.2,1,0.4,1,1
					c0,0.6-0.6,0.7-1,0.8c-2.3,0.5-4.6,1-6.9,1.5c-0.8,0.2-2,0.1-2.4,0.9C286.5,516.2,287.7,516.7,288.3,517.4z M243.1,229.5
					c-0.1-0.1-0.1-0.2-0.2-0.2c-0.4,0.2-0.7,0.4-1.1,0.6c-1.2,0.6-1.9,0.4-2.6-0.8c-0.5-1-0.3-1.7,0.8-2.2c0.7-0.3,0.6-0.6,0.2-1
					c-0.7-0.7-1.4-1.3-2.1-2c-0.4-0.5-0.6-0.4-0.8,0.1c-0.3,0.7-0.7,1.2-1.4,1.5c-0.7,0.3-0.4,0.5-0.1,0.8c1.5,1.4,2.7,3.1,4.4,4.3
					c0.3,0.2,0.5,0.6,0.3,0.9c-0.3,0.4-0.6,0.1-0.9-0.2c-1.5-1.6-3-3.1-4.5-4.7c-0.8-0.9-1.6-1.7-2.4-2.4c-0.6-0.5-1-0.4-1.5,0.1
					c-2.5,2.5-5,5-7.6,7.5c-1,1-1,1.2,0,2.3c2.1,2.3,4.3,4.5,6.5,6.7c0.6,0.6,1,0.6,1.6,0c1.6-1.6,3.2-3.1,4.9-4.7
					C238.7,233.8,240.9,231.7,243.1,229.5z M103.6,111c0.1,0.1,0.1,0.1,0.2,0.2c-0.5,0.5-1,1-1.5,1.5c-0.4,0.4-0.4,0.6,0,1.1
					c1.9,2.4,4.3,4.4,6.1,6.9c0.4,0.6,0.8,0.8,1.5,0.1c3.4-3,6.4-6.5,9.6-9.6c0.2-0.2,0.4-0.6,0.6-0.8c0.2-0.3,0.3-0.6-0.1-0.9
					c-2.2-1.8-4-4-5.8-6.2c-1.1-1.4-1.1-1.4-2.4-0.1C109.1,105.7,106.4,108.3,103.6,111z M507.6,307.2c-1.5-0.9-2.9-1.7-4.7-2
					c-2-0.3-4-0.7-5.9-1.3c-2.2-0.7-4.4-1.5-6.6-2c-3-0.8-5.9-1.9-9.1-1.7c-0.3,0-0.6-0.1-0.7-0.3c-0.5-1.1-1.7-1-2.5-1.4
					c-0.7-0.4-1.2,0-1.5,0.7c-0.9,1.8-1.2,3.6-0.8,5.5c0.2,0.9,1.1,1.6,1.2,2.7c0,0.1,0.3,0.1,0.5,0.1c1.1,0.2,2.1,0.4,3.3,0.1
					c1.6-0.4,3.7,0,5.1,1c2,1.4,4.2,1.5,6.4,2c0.9,0.2,2.3-1.1,2.4-1.9c0.2-1.1,0.2-2.2,0.6-3.3c0.3-0.8,0.7-1,1.6-0.8
					C500.5,305.6,504,306.6,507.6,307.2z M430.6,299.9c-1.5,1.4-1.6,3.5-0.4,5.2c1.3,1.8,3.6,2.4,5.3,1.3c0.8-0.5,1.5-0.6,2.4-0.3
					c5.4,1.7,10.8,3.3,16.2,5c4.2,1.3,8.5,2.6,12.7,3.9c0.4,0.1,0.9,0.3,1.2-0.1c0.7-0.9,0.7-1.9,0.6-2.9c-0.1-0.7-0.9-0.9-1.5-1
					c-3.1-0.9-6.3-1.8-9.4-2.8c-4.3-1.3-8.7-2.7-13-4.1c-2.7-0.9-5.6-1.3-8-2.9c-0.4-0.2-0.6,0.1-0.6,0.4c0,0.3,0.1,0.5,0.2,0.8
					c0.5,1.9-1.1,3.9-3,3.5c-2.4-0.6-3.7-2.8-1.7-4.9c0.4-0.4,1-0.9,0.5-1.5C431.5,298.8,431.1,299.6,430.6,299.9z M113.1,120.5
					c-0.6,0.6-1.3,1.3-1.9,1.8c-0.5,0.4-0.4,0.7,0.1,0.9c0.4,0.2,0.8,0.4,1.1,0.6c2.5,1.5,5.2,2.6,7.5,4.4c0.9,0.7,1.4,0.6,2.1-0.2
					c0.8-0.8,0.5-1.4,0.1-2.2c-0.4-0.8-0.2-1.5,0.4-2c0.6-0.6,1.1-0.1,1.7,0.2c0.1,0.1,0.3,0.2,0.4,0.2c0.4,0.2,0.8,0.5,1.2,0.1
					c0.6-0.7,1.6-1.2,1.9-2.2c0-0.1-0.1-0.2-0.1-0.3c-1.3-1.4-1.8-3.3-2.7-5c-0.7-1.4-1.8-2.7-2.2-4.3c-0.4-1.2-0.4-1.2-1.3-0.3
					C118.5,115,115.9,117.9,113.1,120.5z M302.1,226C302,226.1,302,226.1,302.1,226c1.6,1.8,3.3,3.5,5,5.2c1.8,1.9,1.8,1.9,3.9,0.4
					c0.7-0.5,0.7-0.8,0.2-1.4c-1.7-1.8-3.4-3.7-5.1-5.5c-4.9-5.3-9.9-10.5-14.9-15.8c-1.8-1.9-1.8-1.9-3.7,0
					c-0.6,0.6-0.6,1.1-0.1,1.7c2.9,3.2,6,6.1,8.8,9.4C298,222,300.1,224,302.1,226z M299,314c0.7,0.7,1.2,1.2,1.7,1.7
					c0.2,0.2,0.5,0.5,0.2,0.8c-0.3,0.3-0.6,0-0.8-0.2c-0.8-0.8-1.5-1.6-2.3-2.3c-0.4-0.4-0.8-0.6-1.4-0.3c-0.8,0.3-1.5,0.1-2-0.5
					c-1-1-1.9-2-2.8-2.9c-0.6-0.5-0.7-1-0.2-1.6c0.4-0.4,0.3-0.8-0.1-1.1c-0.4-0.3-0.7-0.3-1,0c-0.9,1-2.1,1.7-3,2.8
					c-0.6,0.7-0.4,1,0.1,1.5c2.6,2.6,5.1,5.3,7.6,8c2.4,2.6,5,4.8,7.4,7.3c0.4,0.4,0.9,0.6,1.4,0c0.7-0.8,1.6-1.5,2.3-2.3
					c0.4-0.4,1.3-0.8,0.8-1.6c-0.4-0.8-1.2-1-2.1-0.7c-0.3,0.1-0.7,0.3-1,0c-1.2-1.2-2.7-2.2-3.5-3.7c-0.3-0.6-0.3-1.2,0.3-1.7
					c0.8-0.7,1.6-1.4,2.4-2c0.3-0.3,0.7-0.6,0.5-1.1c-0.2-0.5-0.7-0.2-1-0.3c-0.5-0.1-0.9-0.1-1.1,0.6c-0.1,0.6-0.7,0.5-1.2,0.4
					C299.8,314.8,299.6,314.3,299,314z M281.6,250.3c2.1,2.4,4.1,4.7,6.4,6.8c0.2,0.2,0.5,0.5,0.9,0.4c1.6-0.7,2.8,0,3.8,1.3
					c0.4,0.6,0.9,1.2,1.3,1.8c0.1,0.2,0.2,0.4,0.2,0.8c-0.1,1.4-0.8,2.5-2,3.2c-0.7,0.4-0.7,0.7-0.1,1.2c1.6,1.6,3.2,3.2,4.8,4.9
					c1.1,1.2,1.4,1.2,2.5,0.2c0.2-0.2,0.3-0.3,0.5-0.5c0.6-0.6,1-0.8,1.7-0.1c1.1,1.1,1.2,1,2.4-0.1c0.1-0.1,0.2-0.2,0.3-0.2
					c1-0.8,1.1-1,0-1.9c-2.1-1.7-3.7-3.9-5.7-5.8c-0.2-0.2-0.4-0.6-0.6-0.9c-0.1-0.2-0.1-0.5,0.1-0.6c0.2-0.1,0.4-0.1,0.5,0.1
					c0.8,1.1,1.4,0.5,2.1-0.2c0.5-0.5,1.1-1,1.6-1.5c0.2-0.2,0.5-0.4,0.4-0.8c-0.1-0.3-0.5-0.2-0.7-0.3c-1.6-0.5-2.6,0.6-3.4,1.7
					c-0.8,0.9-1.6,0.9-2.5,0.5c-0.7-0.3-1.4-0.6-1.9-1.1c-1.7-1.7-3.6-3.3-5.1-5.2C287.2,251.4,284.8,250.2,281.6,250.3z
					 M437.9,300.8c0.1,0,0.2,0.2,0.4,0.2c1.5,0.4,2.8,1,4.3,1.4c3.8,1.1,7.6,2.1,11.4,3.4c4.6,1.6,9.3,2.9,14,4.3
					c2.4,0.7,3.1,0.2,3.3-2.4c0-0.1,0-0.2,0-0.3c0-0.4-0.1-0.6-0.5-0.7c-2.1-0.5-4.1-1.4-6.2-2c-4.4-1.2-8.8-2-13.2-3.2
					c-4.2-1.1-8.6-1.9-12.9-2.7c-0.5-0.1-1-0.5-1.4,0.1c-0.3,0.5,0.2,0.8,0.4,1.3C437.6,300.4,437.7,300.6,437.9,300.8z
					 M303.5,258.9c0.4,0.6,0.8,0.5,1.1,0.5c1.3,0.2,2.5,0.5,3.1,1.8c0.4,0.8,0.6,1.5,0,2.3c-0.6,0.8-1.4,1.1-2.4,0.8
					c-1-0.3-1.9-0.6-2.9-0.9c-0.6-0.2-1.1-0.5-1.4-1.1c-0.1-0.2-0.3-0.5-0.6-0.3c-0.4,0.2-0.1,0.5,0,0.8c0.4,0.9,1.4,1,2.1,1.4
					c1,0.6,2,1.3,3.2,1.7c1.1,0.4,1.9,1,1.6,2.4c-0.1,0.6,0.2,1.4,1.1,0.9c0.8-0.4,1.4-0.3,2.1,0c0.7,0.2,1.4,0.3,2,0.4
					c1,0.2,1.7-0.1,2-1c0.3-0.8,0.8-1.4,1.1-2.2c0.8-2.2,1.5-4.3,0.7-6.7c-0.2-0.7-0.4-1-1.1-1.2c-1.1-0.3-2.4,0.2-3.4-0.7
					c-0.1-0.1-0.3-0.1-0.4,0c-1.3,1.2-2.3,0.3-3.2-0.5c-0.5-0.5-0.9-0.3-1.4,0C305.7,258.1,305,259.3,303.5,258.9z M223.7,306.5
					c1.3,1.4,2.6,2.7,4,4.1c0.5,0.5,0.9,1.1,1.7,0.4c1.3-1.2,1.4-1.4,0.6-2.3c-0.8-1-1.7-1.9-2.5-2.9c-3.1-3.3-6-6.8-9.3-10
					c-2-2-3.8-4.1-5.7-6.1c-0.9-0.9-1.9-1.9-2.7-2.8c-0.3-0.3-0.7-0.9-1.3-0.4c-0.5,0.5-1.1,1-1.6,1.5c-0.3,0.3-0.1,0.6,0.1,0.8
					c0.9,1,1.9,2.1,2.8,3.1c2.4,2.6,5,4.9,7.3,7.5C219.3,301.8,221.6,304.1,223.7,306.5z M334.6,350.3c0.3,0.2,0.6,0.3,0.9,0.5
					c0.2,0.2,0.4,0.4,0.6,0.6c0.8,0.9,1,0.9,1.7-0.1c0.5-0.7,0-1-0.4-1.4c-2.7-2.9-5.6-5.7-8.4-8.5c-3-2.9-5.7-6-8.6-9
					c-2.8-2.8-5.6-5.7-8.2-8.7c-0.4-0.4-0.8-1.1-1.5-0.3c-0.5,0.6-1.3,1-0.3,2c3.4,3.5,6.9,7,10.3,10.4c4,4,7.9,8.1,11.8,12.1
					c0.2,0.2,0.6,0.5,0.3,0.8c-0.3,0.3-0.6-0.1-0.8-0.3c-1-1-2.1-2-3.1-3c-0.3-0.3-0.7-0.7-1.1-0.2c-0.4,0.4,0.1,0.7,0.3,1
					c1.3,1.3,2.6,2.7,3.9,4c0.2,0.2,0.6,0.5,0.6,0.4c0.9-0.7,1.3,0,1.7,0.6C334.8,350.9,334.4,350.6,334.6,350.3z M299.1,295.8
					c0.5,1.6,1.6,2.8,2.4,4.2c2.1,3.7,4.5,7.1,6.7,10.6c0.3,0.5,0.6,0.8,1.2,0.5c0.7-0.3,1.3-0.1,1.8,0.5c0.7,0.7,1.4,1.5,1.6,2.5
					c0.2,1,0.6,0.7,1.1,0.3c1-1,2-1.9,3-2.9c0.5-0.5,0.6-0.8,0-1.3c-3.2-3.1-6.3-6.3-9.5-9.5c-0.3-0.3-0.7-0.5-1.1-0.4
					c-1.7,0.7-3-0.1-4.1-1.3C301.2,297.9,300.1,296.9,299.1,295.8z M308.1,297.9c1.1-1,1.1-1,0.1-2.1c-0.9-1-1.7-2-2.7-2.9
					c-2.6-2.5-5.2-5-7.5-7.8c-0.6-0.8-1.2-0.8-1.9-0.1c-0.9,0.9-1.7,1.8-2.8,2.5c-0.5,0.4-0.5,0.7-0.1,1.2c0.9,1,1.8,2.1,2.8,3.1
					c0.9,0.9,1.7,1.9,3.2,1.1c0.3-0.2,0.8,0,1,0.4c0.2,0.4,0.5,0.8,0.1,1.2c-0.9,0.8-0.1,1.3,0.3,1.7c0.4,0.4,0.7,0.8,1.1,1.2
					c2.3,2.4,3.2,3,5.6,1.3C307.7,298.5,307.9,298.2,308.1,297.9z M290.9,270c-0.1,1.8-1,3.1-2.3,4.1c-0.3,0.3-0.3,0.4,0,0.7
					c2.4,2.9,5.4,5.2,7.9,8c0.4,0.4,0.9,0.5,1.3,0.1c1.4-1.3,2.8-2.5,4.2-3.8c0.4-0.4,0.8-1,0.2-1.5c-2.4-2.3-4.3-5.1-6.9-7.2
					c-0.7-0.6-1-0.5-1.5,0.2c-0.4,0.6-0.3,0.9,0.2,1.4c2.2,2.2,4.3,4.5,6.5,6.7c0.2,0.2,0.5,0.4,0.2,0.6c-0.2,0.2-0.4,0-0.6-0.2
					c-0.9-0.9-1.9-1.8-2.8-2.8C295.3,274.1,293,272.2,290.9,270z M281,272.1C281,272.1,280.9,272.1,281,272.1
					c1.3,1.5,2.7,2.9,4.1,4.3c2.1,2.1,4.1,4.4,6.4,6.3c0.8,0.6,1.2,0.4,1.8-0.2c0.5-0.6,0.7-1.2,0-1.8c-0.9-0.9-1.9-1.8-2.8-2.8
					c-2-2.1-4.2-4.1-6.2-6.3c-2.9-3.3-6-6.4-9-9.5c-1-1-1.8-2.3-2.9-3.2c-0.4-0.4-0.8-0.5-1.2-0.1c-0.4,0.4-0.7,0.7-1.1,1.1
					c-0.2,0.2-0.4,0.6,0,0.8c0.7,0.4,1,1.2,1.5,1.7C274.7,265.6,277.8,268.9,281,272.1z M269.7,282.5
					C269.7,282.5,269.7,282.5,269.7,282.5c-3.4-3.5-6.9-7.1-10.3-10.7c-0.7-0.7-1.1-0.6-1.7,0c-0.6,0.6-1,1.1-0.2,1.8
					c0.8,0.7,1.4,1.7,2.1,2.5c3.1,3.3,6.3,6.5,9.4,9.8c1.5,1.5,3.1,2.9,4.4,4.5c1.5,1.8,3.3,3.2,4.9,4.8c0.2,0.2,0.4,0.4,0.7,0.3
					c0.6-0.3,1.1-0.8,1.4-1.4c0.3-0.6-0.3-0.9-0.6-1.2C276.4,289.4,273,286,269.7,282.5z M327.9,316.6c-1.8-1.8-3-3.1-4.2-4.4
					c-0.6-0.7-1.1-0.5-1.7,0c-0.7,0.6-0.1,1,0.2,1.3c2.3,2.5,4.7,5,7.1,7.5c6.2,6.3,12.4,12.5,18.5,18.7c0.5,0.5,1,0.9,1.7,0.3
					c0.6-0.6,0.6-1.2-0.1-1.8c-2.1-2-4.1-4-6.1-6C338,326.7,332.9,321.2,327.9,316.6z M273.3,304.8c1.8,1.8,3.6,3.6,4.1,6.3
					c0.5,2.7,1.6,5.4,2.4,8c0.5,1.6,1.1,3.1,2.2,4.3c2.7,3.1,5.7,6.1,8.5,9.1c3.6,3.8,7.3,7.5,11.1,11.2c1.1,1.1,2.4,2.2,3.5,3.4
					c0.4,0.4,1,0.7,1.5,0.3c0.5-0.5-0.2-0.9-0.5-1.2c-3.4-3.4-6.6-6.9-10.1-10.2c-4.7-4.6-9.1-9.4-13.7-14.1
					c-0.3-0.3-0.6-0.8-0.7-1.2c-0.8-2.5-1.5-5-2.2-7.5c-0.8-2.6-1.3-5.2-3.5-7.1c-0.7-0.6-1.2-1.3-1.8-2c-1-1.2-2-2.4-3.3-3.3
					c-0.2-0.2-0.5-0.7-0.9-0.3c-0.3,0.3,0.1,0.7,0.3,0.9C271.2,302.6,272.2,303.7,273.3,304.8z M250.2,241.1
					C250.2,241.1,250.2,241.1,250.2,241.1c2.4,2.4,4.8,4.9,7.2,7.4c0.5,0.5,1,1.4,1.4,1.2c0.6-0.3,0.4-1.3,0.5-2
					c0.1-1.1,0.4-2.3-0.7-3.1c-1.4-1.1-2.6-2.5-3.8-3.8c-3.2-3.3-6.3-6.5-9.5-9.8c-1-1-1.4-0.9-2.8,0.3c-1,0.9-0.3,1.4,0.3,2
					C245.2,235.9,247.7,238.5,250.2,241.1z M209,309.2C209,309.1,209,309.1,209,309.2c-1.2-1.2-2.4-2.5-3.5-3.7
					c-0.5-0.5-0.7-0.5-1.2,0.1c-0.8,1.1-1.7,2.1-2.6,3.1c-0.4,0.4-0.4,0.8,0,1.2c1.9,2.1,3.9,4.2,5.8,6.3c0.7,0.7,1.3,0.7,2,0.1
					c0.9-0.7,1.7-1.5,2.6-2.1c1-0.6,0.8-1.1,0.1-1.8C211,311.4,210,310.2,209,309.2z M309.3,210.3
					C309.3,210.3,309.3,210.3,309.3,210.3c1.1,1.3,2.2,2.4,3.3,3.6c0.5,0.6,0.8,0.5,1.2-0.1c0.7-1.2,1.5-2.4,2.3-3.5
					c0.5-0.6,0.5-1.1,0-1.6c-1.8-1.9-3.6-3.7-5.3-5.7c-0.3-0.4-0.5-0.3-1,0c-1.4,1-2.7,2.1-4.2,2.8c-0.6,0.3-0.4,0.5-0.1,0.8
					C306.9,207.8,308.1,209,309.3,210.3z M226.9,275.1c0.1-2-0.6-3.7-0.8-5.4c-0.1-0.8-0.1-1.6-0.6-2.2c-2.1-2.5-4.3-4.9-6.6-7.2
					c-0.4-0.4-0.8-0.6-1.2-0.3c-0.8,0.7-1.6,1.6-2.4,2.4c-0.1,0.1-0.1,0.3,0,0.3c0.6,0.3,0.7,1,1.1,1.4c2.6,2.4,4.8,5.2,7.2,7.6
					C224.7,272.7,225.7,273.8,226.9,275.1z M234.7,246c0,0-0.1,0.1-0.1,0.1c-1-1-2-2.1-3-3.1c-0.5-0.5-0.9-0.6-1.4,0
					c-0.4,0.5-1.3,0.9-0.4,1.7c0.7,0.7,1.4,1.5,2.1,2.2c3.6,3.8,7.2,7.5,10.7,11.3c0.6,0.7,1.1,1.7,2,1.8c1,0.2,1.9,0.2,2.9,0.5
					c0.2,0.1,0.5,0.2,0.6-0.1c0.1-0.3-0.1-0.4-0.3-0.6c-1.5-1.7-3-3.3-4.6-5C240.4,251.9,237.6,249,234.7,246z M289.5,264.3
					c0.1-0.1,0.2-0.2,0.3-0.3c-3.6-3.7-7.1-7.4-10.7-11c-0.1-0.1-0.2-0.2-0.3-0.3c-0.4-0.4-0.8-0.4-1.2,0c-1.5,1.5-3.1,3-4.6,4.5
					c-0.4,0.4-0.4,0.7,0,1.1c1.1,1.1,1.9,2.4,3.1,3.5c0.6,0.5,0.9,0.6,1.4,0.1c1-0.9,2.1-1.7,3.7-2c-1.5-1.6-2.9-3-4.2-4.4
					c-0.2-0.2-0.6-0.5-0.3-0.9c0.4-0.4,0.6,0,0.8,0.3c1.8,2,3.8,3.8,5.5,6c0.3,0.3,0.5,0.7,0.9,0c0.7-1.3,1-1.3,2-0.2
					C287.1,261.8,288.3,263,289.5,264.3z M283.7,297.3c-1.6,1.3-1.6,1.3-0.4,2.5c0.8,0.8,1.5,1.7,2.4,2.6c0.7,0.7,1.3,1.8,2.6,0.9
					c0.3-0.2,0.7,0,0.9,0.3c0.4,0.4,0.9,0.8,1.2,1.4c0.2,0.3,0.3,1,0.8,0.7c0.4-0.2,0.6-0.8,0.5-1.3c-0.1-0.3-0.3-0.6-0.5-0.9
					c-0.4-0.6-0.3-1.2,0.4-1.4c1-0.3,0.9-0.9,0.5-1.6c-0.1-0.3-0.3-0.5-0.5-0.8c-1.2-1.7-2.9-3-4.2-4.6c-0.5-0.6-1-0.6-1.6,0
					C285.1,295.8,284.2,296.7,283.7,297.3z M266.5,290.8c0.4,1.1,1.3,1.6,1.9,2.2c2.7,3.2,6,5.8,8.9,8.9c0.5,0.6,1,0.3,1.4-0.1
					c0.6-0.5-0.1-0.7-0.4-1c-1-1-1.1-2.4-0.3-3.5c0.4-0.5,0.3-0.8-0.1-1.2c-1.7-1.8-3.4-3.5-5.2-5.3c-0.5-0.5-0.9-0.6-1.6-0.1
					c-2,1.6-2,1.5-4.1,0.2C266.9,290.9,266.8,290.8,266.5,290.8z M317.2,267.1c0.1,0,0.3,0.1,0.5,0.2c3.4,0.8,6.9,1.5,10.3,2.3
					c0.3,0.1,0.6,0.1,0.9-0.1c0.4-0.3,1.1-3.1,0.9-3.5c-0.1-0.3-0.4-0.4-0.6-0.5c-3.5-0.8-7-1.6-10.6-2.4c-0.4-0.1-0.6,0.1-0.8,0.5
					c-0.3,0.9-0.3,2-0.9,2.9C316.9,266.6,316.9,266.9,317.2,267.1z M513.1,319c0.1,0.1,3.1,0.5,3.2,0.4c0.1-0.1,0.3-0.3,0.3-0.5
					c0.2-1,0.4-2,0.6-3c0.1-0.3,0.1-0.9-0.3-0.9c-1.6-0.1-3-2-4.8-0.5c-0.1,0.1-0.5,0.1-0.7,0c-0.9-0.1-1.4-0.8-1.6-1.6
					c-0.2-0.7-0.4-0.8-0.9-0.2c-0.8,0.9-1.8,1.2-3,1.3c-1.3,0.1-2.5-0.2-3.8-0.5c-3.1-0.8-3.1-0.8-3.8,2.2c-0.1,0.2-0.1,0.5-0.1,0.7
					c-0.1,0.8,0.7,1.5,1.5,1.2c0.6-0.3,0.5-0.9,0.6-1.4c0.2-1,0.6-1.2,1.6-1c2.9,0.5,5.9,0.7,8.8,0.7c2.2,0,2.5,0.2,2.2,2.3
					C513,318.5,512.8,318.7,513.1,319z M322.2,310.4c0-0.6-0.4-0.8-0.7-1.1c-2.1-2.1-4.3-4.2-6.4-6.4c-1.6-1.6-3.1-3.2-4.6-4.7
					c-0.2-0.2-0.4-0.6-0.9-0.4c-1.6,0.6-2,2.1-0.8,3.3c3,3.1,6.1,6.1,9.3,8.9c0.4,0.3,0.8,0.5,1.3,0.5
					C320.3,310.4,321.3,310.4,322.2,310.4z M288.3,251.5c0.6,1.1,1.5,2,2.4,2.9c1.8,1.7,3.2,3.7,5.4,4.8c0.7,0.3,1.3,0.4,1.9-0.3
					c0.6-0.6,1.2-1.1,1.8-1.7c1.8-1.6,1.8-2.3,0-3.8c-0.3-0.3-0.7-0.4-1.2-0.5c-1.1-0.2-2.2-0.3-3.2-0.5c-1.3-0.4-2.5-0.3-3.6,0.7
					c-0.8,0.8-1.5,0.4-2-0.4C289.5,252.2,289,251.7,288.3,251.5z M304,311.3c-1.3-2.1-2.6-4.2-3.9-6.4c-1.8-2.8-3.5-5.7-5.3-8.5
					c-0.6-0.9-1.6-0.9-2.7-0.1c-1,0.8-1.1,1.1-0.2,2.1c0.9,1,1.7,2.1,1.4,3.6c-0.1,0.3,0.1,0.4,0.3,0.6c0.6,0.8,1.2,1.7,1.9,2.5
					c0.4,0.5,0.8,0.8,1.4,0.3c0.8-0.7,1.6-0.5,2.2,0.2c0.9,0.9,1.8,1.8,2.7,2.8c0.2,0.2,0.6,0.6,0.5,0.9
					C302,310.8,303.2,310.9,304,311.3z M293.9,286.2C293.8,286.2,293.8,286.1,293.9,286.2c0.3-0.4,0.7-0.8,1-1.1
					c0.6-0.5,0.6-1,0.1-1.5c-0.4-0.4-0.9-0.8-1.6-0.2c-1.4,1.3-2.8,2.5-4.2,3.8c-2.2,2.1-4.4,4.2-6.6,6.3c-0.6,0.6-1.3,1-1.9,1.7
					c-0.9,1.2,0.4,1.4,0.7,1.9c0.4,0.7,0.8,0.2,1.2-0.2C286.4,293.4,290.1,289.8,293.9,286.2z M264.6,319.3
					c-0.6-0.5-1.2-0.1-1.8-0.1c-1.3-0.1-1.9,0.7-1.6,2c0.6,2.8,1.2,5.7,1.8,8.5c0.5,2.7,0.2,2.1,2.7,1.7c1.1-0.2,1.3-0.8,1.1-1.8
					c-0.6-3-1.1-6-1.7-9C264.9,320.1,264.7,319.7,264.6,319.3z M306.2,512.5c0.5,0.6,1.2,1.3,0.6,2.2c-0.4,0.6-0.3,1-0.3,1.5
					c0.1,0.6,0.4,1.2,0.4,1.8c0.1,1.6,0.4,1.8,2,1.5c0.2,0,0.5-0.1,0.7-0.1c1.1-0.1,2.4,0,1.7-1.8c-0.1-0.2,0.2-0.6,0.2-0.9
					c0-0.7,0-1.3-1-1.3c-0.8,0-1.5-0.5-1.6-1.4c-0.2-1.1-0.3-2.2-0.4-3.3c-0.2-2.2-0.4-4.5-0.6-6.7c-0.1-0.8-0.1-1.4,0.5-2
					c0.2-0.2,0.4-0.5,0-0.8c-0.6-0.4-1.3-0.4-1.9-0.1c-0.5,0.3-0.5,0.8-0.4,1.3c0.3,1.4,0.7,2.9,1,4.3c0.3,1.6,0.4,3.2-1,4.4
					C305.5,511.6,305.6,512,306.2,512.5z M297.3,298.6c0,0.3,0.1,0.5,0.3,0.7c1.5,2.1,2.6,4.4,4.1,6.5c1.6,2.4,3.1,4.9,4.6,7.3
					c0.6,0.9,1,0.9,1.8,0.5c1-0.5,0.3-1,0.1-1.5c-0.1-0.5-0.5-0.9-0.7-1.3c-2.1-3.4-4.3-6.8-6.4-10.3c-0.6-1-1.3-1.9-2.1-3
					C298.4,298.8,298.4,298.8,297.3,298.6z M244.4,261.3c1.2,1,2.4,1.8,4.1,1.7c2.2-0.1,4.8,0.2,6.4-1.5c1.3-1.3,3.2-2.2,3.8-4.1
					c0.1-0.3,0.4-0.4,0.7-0.4c1.2-0.3,1.5-1.2,1.8-2.2c0.4-1.7,0.6-3.5,0.6-5.3c0-2.1-0.2-4.1-2.5-5.3c1.4,1.1,0.9,2.5,0.9,3.7
					c0.1,4-1,7.6-3.5,10.7c-1.1,1.3-2.4,2.3-4.1,2.7c-2.2,0.4-4.4,0.6-6.6-0.1C245.5,261,245,261,244.4,261.3z M260.2,284.6
					c0.3-0.6-0.1-0.9-0.3-1.1c-1.2-1.2-1.1-2.5,0.2-3.6c0.2-0.2,0.4-0.4,0.7-0.2c0.3,0.2,0.1,0.5-0.1,0.7c-0.3,0.5-0.6,0.9-0.8,1.4
					c-0.2,0.4,0.1,0.7,0.4,0.9c0.2,0.1,0.3,0.1,0.5-0.1c0.5-0.5,0.8-3.3,0.3-3.8c-1.4-1.5-2.8-3-4.2-4.5c-0.4-0.5-0.8-0.5-1.3-0.1
					c-0.8,0.6-1.4,1.5-2.1,2.1c-0.5,0.4-0.5,0.8,0,1.2c1.6,1.7,3.2,3.4,4.8,5.1C258.8,283.2,259.5,283.9,260.2,284.6z M273.5,227.6
					c0.1-0.1,0.1-0.1,0.2-0.2c-2.8-2.4-4.9-5.5-7.6-8c-0.5-0.5-1-0.4-1.3,0.2c-0.5,0.8-0.9,1.7-2.1,1.8c-0.5,0.1-0.4,0.5-0.1,0.8
					c1.2,1.3,2.4,2.6,3.6,3.8c0.1,0.1,0.4,0.2,0.6,0.2C269,226.7,271.3,227.2,273.5,227.6z M307.9,526.8c-0.8,0.1-1.4-0.5-2.1-0.4
					c-0.4,0-1-0.1-0.8,0.6c0.8,3.2,1.5,6.3,2.2,9.5c0.6,2.6,1.2,5.1,1.8,7.7c0.2,0.9,0.9,0.9,1.5,0.9c0.8-0.1,0.2-0.7,0.3-1
					c0-0.3,0-0.5-0.1-0.8c-1.1-4.8-2.3-9.7-3.4-14.5C307.2,528.1,307,527.3,307.9,526.8z M225.4,295.5c0.2,0.8,0.7,1,1,1.4
					c1.3,1.9,2.9,3.5,4.5,5.2c0.2,0.2,0.4,0.6,0.8,0.4c0.3-0.2,0.1-0.5,0-0.8c-0.2-1.2-0.5-2.4-0.7-3.6c-0.5-3.8-1.6-7.5-1.9-11.3
					c0-0.2-0.1-0.4-0.4-0.4c-0.1,0.5-0.2,1-0.3,1.6c-0.1,0.6-0.2,1.2-0.4,1.7c-0.3,0.7-0.2,1.2,0.5,1.7c1,0.8,0.8,1.9-0.4,2.3
					c-0.8,0.2-1.2,0.7-1.3,1.4C226.6,295.7,226.3,296,225.4,295.5z M311.6,330.5c-0.3-0.3-0.6-0.7-1-1c-0.2-0.2-0.4-0.4-0.7-0.2
					c-0.3,0.2-0.1,0.5,0.1,0.7c0.6,0.7,1.1,1.4,1.8,2c3.6,3.3,6.8,7,10.4,10.4c2.7,2.6,5.3,5.4,7.9,8c0.8,0.8,1.6,1.7,2.5,2.4
					c0.2,0.2,0.6,0.4,0.8,0.1c0.3-0.3,0-0.6-0.3-0.8c-1-0.7-1.8-1.6-2.6-2.5C324.2,343.3,318.1,336.7,311.6,330.5z M256.3,217.5
					c1.7-1.7,3.4-3.3,5.1-5c0.3-0.3,0.9-0.5,0.5-1c-0.4-0.4-0.8,0.1-1.1,0.4c-1.7,1.6-3.6,3-5.2,4.7c-1,1-2,1.9-3.1,2.9
					c-2.9,2.5-5.7,5-8.4,7.7c-0.3,0.3-0.8,0.6-0.2,1c0.4,0.3,1,0.5,1.3-0.1c0.4-0.9,2.2-0.7,1.8-2.2c0,0,0-0.1,0.1-0.1
					c0.9-0.2,1.3-1,1.9-1.6C251.5,222.1,253.9,219.7,256.3,217.5z M483.8,297.6c-0.8,0.7-0.7,1.4,0.7,1.9c0.3,0.1,0.5,0.2,0.8,0.2
					c3,0.6,5.9,1.8,9,2.2c0.5,0.1,1.2,0.7,1.5,0c0.3-0.7-0.2-1.4-0.6-1.9c-0.2-0.2-0.6-0.3-0.9-0.4c-3-0.8-5.9-1.6-8.9-2.4
					C484.9,297.1,484.4,297,483.8,297.6z M479.7,318.8c1.4-1.2,0.9-3.8-0.9-4.4c-0.7-0.2-1.3-0.4-2-0.6c-3.1-1-2.4-1.4-3.6,2.1
					c0,0.1,0,0.2,0,0.2c-0.2,0.6,0,0.8,0.5,1.1c1.7,0.9,3.6,1.1,5.4,1.7C479.3,318.9,479.5,319,479.7,318.8z M486.3,314
					c0-0.3,0-0.5,0-0.7c0-0.7,0-1.5,0.1-2.2c0.1-1-0.3-1.5-1.1-1.9c-1-0.5-2.2-0.5-3.3-0.8c-0.9-0.2-1.3,0.2-1.2,1
					c0.1,0.9,0,1.8-0.2,2.7c-0.1,0.8,0.1,1.5,1.1,1.7c1.3,0.2,2.5,0.2,3.8,0.4C485.8,314.2,486,314.1,486.3,314z M526,315.2
					c0.4,0.4,1,0.3,1.4,0.4c4.4,1.6,9,2.5,13.5,3.7c0.4,0.1,0.8,0.1,1.2,0.1c0.4,0,0.8-0.2,0.9-0.6c0.1-0.4-0.3-0.6-0.6-0.7
					c-0.8-0.3-1.5-0.6-2.3-0.8c-3.7-0.7-7.2-1.9-10.8-2.8c-0.8-0.2-1.6-0.3-2.4-0.5c-0.4-0.1-0.8,0.1-1,0.5
					C525.7,314.8,525.9,315,526,315.2z M286.4,229.9c3.1,1,13.4,3,14.3,2.7c-1.3-1.3-2.5-2.5-3.7-3.8c-0.8-0.9-1.8-0.6-2.7-0.4
					c-0.3,0.1-0.5,0.2-0.4,0.6c0.3,0.9-0.3,1-0.9,1.2c-0.6,0.2-1.1-0.1-1.3-0.7c-0.2-0.5-0.5-0.5-0.9-0.4
					C289.5,229.3,288.1,229.6,286.4,229.9z M302.6,320.1c0.1,0.1,0.2,0.2,0.3,0.3c1.2,1.3,2.9,1.4,4.3,0.4c0.8-0.6,0.9-2.3,0-3.6
					c-0.3-0.6-0.4-1.2-1.3-1.4c-1.3-0.3-2.2,0-3.2,0.8C300.9,318.3,300.8,318.3,302.6,320.1z M259.9,305.3c-0.3-0.3-0.5-0.6-0.8-0.8
					c-2-2-1.5-2.1-3.7,0.1c-0.5,0.5-0.5,0.9,0,1.4c0.9,0.9,1.8,1.9,2.8,2.8c1.8,1.8,1.8,1.8,3.6,0c0.6-0.6,0.5-1,0-1.6
					C261.1,306.6,260.5,306,259.9,305.3z M292.3,485c-0.2-0.2-0.4-0.2-0.6-0.1c-0.8,0.4-1.1,1-1,1.9c0.2,2.5,1,5,1.6,7.4
					c0.2,0.9,0.4,1.7,0.7,2.6c0.2,0.6,0.7,1,1.3,0.8c0.7-0.2,0.5-0.7,0.4-1.2c-0.3-2.9-1.1-5.8-1.7-8.7
					C292.8,486.8,292.8,485.8,292.3,485z M264.2,299.9c-0.2,0.2-0.3,0.4-0.5,0.5c-1,0.6-0.9,1.1-0.1,1.8c0.8,0.8,1.8,1.4,2.5,2.4
					c0.4,0.6,1.1,0.7,1.7,0c0.5-0.6,1-1.1,1.5-1.6c0.4-0.4,0.4-0.7,0.1-1.1c-0.5-1-1.4-1.6-2.2-2.2c-1.4-1.3-1.4-1.3-2.8,0
					C264.4,299.8,264.3,299.9,264.2,299.9z M265.3,312.1c-0.4,0.5-0.9,0.8-1.3,1.2c-2,1.8-2,1.8-3.8,0c-0.3-0.3-0.6-1-1.2-0.3
					c-0.4,0.5-1,1-0.2,1.8c0.7,0.7,1.3,1.4,1.9,2.2c0.4,0.5,1,1.4,1.7,0.1c0.1-0.2,0.5-0.3,0.8-0.4c1.2-0.5,2.3-1.2,3.3-2.1
					c0.5-0.4,1-1,0.9-1.7c-0.1-0.6-0.3-1.4-0.9-1.7C266,311,265.9,311.9,265.3,312.1z M289.5,262.3c0.5,0.4,0.7,0.7,1,0.9
					c0.7,0.6,1.4,0.6,2-0.2c0.7-0.8,0-1.2-0.4-1.7c-0.5-0.5-1.1-0.9-1.8-1c-0.5-0.1-0.8-0.3-1.1-0.6c-1.1-1.2-2.3-2.4-3.4-3.6
					c-1.7-1.9-3.4-3.7-5.3-5.4c-0.2-0.2-0.5-0.5-0.8-0.2c-0.3,0.3,0,0.6,0.2,0.8c0.7,0.8,1.3,1.5,2,2.3c2.1,2.2,4.1,4.4,6.2,6.5
					C288.9,260.9,288.9,261.9,289.5,262.3z M482,295.5c-0.6,0.5-0.8,1.1-0.9,1.8c-0.1,0.4-0.3,1.1,0.2,1.3c0.6,0.2,0.6-0.5,0.8-0.9
					c0.7-1.6,1.3-2,3-1.5c3.4,0.9,6.8,1.8,10.2,2.7c0.9,0.2,1.5,0.7,1.3,1.8c-0.1,0.5,0,1,0,1.5c0,0.3,0.2,0.5,0.5,0.6
					c0.2,0.1,0.3-0.1,0.4-0.2c1.1-1.3,0.6-3.6-0.9-4.1c-2-0.7-4-1.3-6-1.9c-2.3-0.6-4.7-1.2-7-1.8C483,294.8,482.4,295,482,295.5z
					 M271.6,300.3C271.7,300.3,271.7,300.3,271.6,300.3c1.2,1.1,2.4,2.3,3.5,3.4c0.6,0.6,1.1,0.3,1.5-0.1c0.5-0.5,0.3-0.9-0.1-1.3
					c-0.7-0.7-1.3-1.4-2-2.1c-1.6-1.6-3.3-3.2-4.9-4.8c-0.4-0.4-0.7-0.5-1,0.1c-0.2,0.4-1,0.7-0.3,1.3
					C269.5,298,270.5,299.2,271.6,300.3z M273.1,199.9c1.9-1.8,1.9-1.8,0.3-3.7c0-0.1-0.1-0.1-0.1-0.2c-0.4-0.6-0.8-0.5-1.3-0.1
					c-1.2,1-2.2,2.2-3.5,3.1c-0.4,0.3-0.5,0.7-0.1,1c0.6,0.4,0.9,0.9,1.4,1.4c0.4,0.5,1,0.6,1.5,0.1
					C271.9,200.9,272.5,200.4,273.1,199.9z M109.7,104.2C109.7,104.2,109.7,104.1,109.7,104.2c0.8-1,1.7-1.9,2.7-2.8
					c0.2-0.1,0.5-0.2,0.4-0.5c-0.1-0.3-0.5-0.2-0.7-0.1c-0.9,0.3-1.8,0.8-2.5,1.5c-2.8,2.9-5.7,5.7-8.5,8.6c-0.5,0.5-0.7,1-0.9,1.6
					c-0.1,0.2,0,0.5,0.2,0.6c0.2,0.1,0.3-0.1,0.5-0.2C103.8,109.9,106.8,107.1,109.7,104.2z M254.9,287.6c-0.1,0.1-0.2,0.1-0.2,0.2
					c0.9,0.9,1.8,1.8,2.7,2.8c0.9,1,1.8,2.1,2.8,3.1c0.3,0.4,0.7,0.7,1,0.1c0.4-0.8,0-2.1-0.8-2.4c-1.7-0.5-2.6-1.9-3.6-3.1
					c-2.2-2.5-4.6-4.8-6.9-7.3c-0.2-0.2-0.5-0.6-0.9-0.3c-0.3,0.4,0.1,0.6,0.3,0.9C251.1,283.6,253,285.6,254.9,287.6z M285.6,402
					c-0.1-1,0.4-1.6,1.3-2c0.7-0.4,1.1-0.9,0.7-1.8c-0.3-0.7-0.3-1.7-1.5-1.2c-0.4,0.2-0.7-0.2-0.9-0.6c-0.2-0.5,0-1,0.4-1.1
					c1.4-0.4,1.2-1.2,1-2.3c-0.4-1.8-0.3-1.8-2.3-1.6c-0.5,0.1-0.7,0.1-0.6,0.7C284.3,395.4,285.1,398.7,285.6,402z M214.9,255.9
					c-1.8,1.7-3.2,3.9-4.7,5.9c-0.3,0.4-0.7,0.9,0,1.3c0.6,0.3,1,0.1,1.4-0.4c0.7-1,1.5-1.8,2.3-2.8c1-1.2,2-2.4,3.1-3.5
					c0.6-0.7,0.3-1.3-0.1-1.7c-0.5-0.5-0.8,0.2-1.1,0.4C215.5,255.4,215.2,255.7,214.9,255.9z M472,316.8c0.5-0.7,0.5-1.5,0.8-2.2
					c0.7-2,0.7-2-1.1-2.8c-0.1-0.1-0.3-0.1-0.4-0.2c-1.1-0.5-1.6-0.2-1.9,1c-0.1,0.6-0.2,1.1-0.3,1.7c-0.4,1.8-0.4,1.9,1.4,2.4
					C471,316.8,471.5,317,472,316.8z M258.8,222.3c1.7-1.5,2.8-3,4.4-4.1c0.5-0.4,0.6-0.9,0.1-1.4c-0.5-0.5-0.9-0.3-1.3,0.1
					c-0.6,0.5-1.1,1.1-1.7,1.6c-0.5,0.5-0.9,0.9-0.7,1.7c0.1,0.5-0.2,0.9-0.8,1.1c-0.3,0.1-0.7,0.1-0.9,0.3
					c-1.2,1.7-3.1,2.7-4.5,4.3c-0.2,0.2-0.6,0.3-0.3,0.6c0.2,0.3,0.6,0.5,1,0.3c0.4-0.2,0.8-0.6,1.1-0.9
					C256.7,224.7,257.9,223.3,258.8,222.3z M289.3,483.8c-1,0.8-0.4,2-0.2,3c0.7,3.4,1.6,6.8,2.3,10.2c0.4,1.8,1.6,2.7,3.4,2.2
					c0.3-0.1,0.9-0.1,0.8-0.6c-0.2-0.5-0.6-0.2-1-0.1c-1.1,0.3-2.2-0.2-2.4-1.3c-0.7-3.4-1.8-6.7-2.3-10.2c-0.2-2,0.1-2.5,2-3
					c0.2-0.1,0.7,0.2,0.6-0.4c-0.1-0.4-0.3-0.7-0.7-0.8C290.8,482.7,290,483,289.3,483.8z M290.5,248.9c3.7,1.1,31.1,5.5,32.3,5.2
					C312,252.1,301.3,250.4,290.5,248.9z M304.9,232.8c0.1-0.1,0.2-0.2,0.3-0.2c-0.7-0.7-1.4-1.5-2.1-2.2c-2.7-2.7-5.4-5.6-8-8.4
					c-3.2-3.5-6.8-6.7-9.5-10.7c-0.5-0.7-1.7-0.6-1.9-1.8c0-0.3-0.3-0.6-0.7-0.6c-0.1,0-0.2,0.1-0.2,0.2c-0.2,0.4,0.2,0.6,0.4,0.8
					c5.2,5.5,10.4,11.1,15.7,16.6C300.9,228.6,302.9,230.7,304.9,232.8z M474.2,312.1c1.8,0.2,3.1,1.2,4.7,1.3c0.7,0.1,1,0,1-0.8
					c0-1,0-1.9,0-2.9c0.1-1.2-0.8-1-1.4-1.2c-0.7-0.2-1.1-0.1-1.2,0.7c0,0.4-0.4,0.7-0.9,0.8c-0.2,0-0.6-0.1-0.6,0.3
					C476,311.5,475.1,311.5,474.2,312.1z M279.8,417.8c-1.1-0.1-1.8-0.5-2.1-1.6c-0.8-3.9-1.8-7.7-2.6-11.6
					c-0.3-1.5-0.3-1.5,1.2-1.7c0.2,0,0.5,0,0.5-0.3c0-0.1-0.2-0.3-0.4-0.4c-0.7-0.4-1.4,0-2,0.3c-0.5,0.3-0.4,0.8-0.3,1.2
					c1,4.6,2,9.3,3.2,13.8c0.1,0.5,0.1,1.1,0.8,1.2C278.9,419,279.3,418.6,279.8,417.8z M316.5,313c-0.5,0.5-1,0.9-1.5,1.5
					c-0.4,0.4-0.2,1.8,0.3,2.2c0.6,0.4,0.9-0.2,1.2-0.5c1.5-1.3,2.9-2.7,4.3-4c0.2-0.2,0.6-0.3,0.4-0.7c-0.2-0.3-0.6-0.2-0.9-0.2
					C318.9,311.3,317.4,311.6,316.5,313z M302.1,502.4c0.4-0.3,0.2-0.5,0.2-0.7c0-0.8-0.3-1.5-0.4-2.3c-0.4-2.3-0.7-1.7-2.4-1.6
					c-0.7,0-1,0.4-0.9,1c0.2,1.2,0.3,2.4,0.5,3.6c0,0.3,0.2,0.6,0.5,0.6C300.5,503,301.2,502.2,302.1,502.4z M291.4,205.1
					c10,10.7,20,21.4,30.4,31.8C311.9,226.1,301.5,215.7,291.4,205.1z M256.7,284.4c-0.1,0.1-0.1,0.1-0.2,0.2
					c0.2,0.2,0.3,0.3,0.5,0.5c0.4,0.4,0.8,1,1.5,0.3c0.7-0.7,0.3-1.1-0.2-1.5c-1.3-1.3-2.5-2.6-3.7-4c-0.7-0.7-1.3-1.4-2-2.1
					c-0.1-0.1-0.3-0.2-0.5-0.1c-0.2,0.1-0.2,0.3-0.1,0.4c0.8,0.7,0.4,1.9,1.1,2.6C254.3,281.9,255.5,283.2,256.7,284.4z
					 M487.4,313.8c0.1,0,0.2,0.1,0.4,0.1c1.3,0.3,2.6,0.3,3.9,0.2c0.8-0.1,0.5-0.8,0.6-1.3c0-0.5,0.3-1.2-0.6-1.4
					c-1.2-0.3-2.3-0.6-3.5-0.8c-0.2-0.1-0.5-0.2-0.8,0C487.1,310.9,487.1,313.5,487.4,313.8z M216.8,303.4c-0.1,0.1-0.2,0.2-0.2,0.2
					c6.6,7.2,13,14.6,20.2,21.2C230.1,317.7,223.5,310.5,216.8,303.4z M305.1,510.4c1.9-2.5,0.8-9-2.5-11.7c0.2,1.2,0.5,2.3,0.7,3.3
					c0.1,0.3,0.3,0.5,0.5,0.6c0.9,0.5,0.9,1.3,0.5,2.1c-0.2,0.4-0.4,0.8-0.3,1.2C304.3,507.4,304.7,508.8,305.1,510.4z M221.7,251.2
					c0.6-1.3,2.2-1.3,2.7-2.8c0.2-0.5,0.7-0.7,1.3-0.6c0.7,0.2,0.8-0.1,0.9-0.8c0-0.8,0.4-1.4,1.4-0.9c0.3,0.1,0.7,0,1,0
					c0.2,0,0.3-0.1,0.4-0.2c0-0.2-0.1-0.4-0.3-0.4c-0.5-0.1-1-0.4-1.4-0.7c-1.2-1.1-1.3-1.2-2.3,0.1c-1.3,1.8-2.3,3.8-3.7,5.5
					C221.5,250.5,221.3,250.8,221.7,251.2z M473.6,311c0-0.2,0.1-0.4,0.1-0.7c0.2-1.3,0.3-2.5,0.7-3.8c0.2-0.5,0.3-1,0.3-1.5
					c0-0.7-0.2-1.3-1-1.5c-0.8-0.1-0.8,0.5-1,1.1c-0.2,0.6-0.2,1.2-0.4,1.8c-0.3,1.2-0.4,2.4-0.6,3.7c-0.1,0.5,0.2,0.8,0.7,0.9
					C472.9,311.1,473.2,311.4,473.6,311z M296.3,311.2c0.6,0.7,1,1.1,1.3,1.5c0.2,0.2,0.4,0.4,0.8,0.2c1.1-0.7,2.2-1.2,2.7-2.6
					c0.2-0.4,0.2-0.8-0.1-1.2c-0.7-1-1.5-1.8-2.5-2.6c-0.5-0.4-1.1-0.5-1.4,0c-0.4,0.6,0.4,0.6,0.6,0.8c0.8,0.7,1.5,1.3,1,2.5
					C298.4,311,297.8,311.6,296.3,311.2z M285.9,210.5c6.7,7.6,13.6,14.9,20.7,22.1C300,225,292.9,217.8,285.9,210.5z M408.4,280
					c-0.4-0.4-0.9-0.4-1.3-0.5c-3.7-0.9-7.4-1.9-11-2.8c-1.9-0.5-2.4-0.2-2.8,1.7c-0.1,0.3-0.4,0.6,0.2,0.7c0.4,0.1,0.6,0,0.7-0.6
					c0.2-1,1.1-1.5,2.1-1.3c3.3,0.9,6.7,1.7,10,2.6c0.9,0.2,1.7,0.7,2.1,1.5c0.2,0.3,0,1.1,0.6,0.9c0.5-0.2,0.2-0.8,0.1-1.2
					C408.8,280.7,408.6,280.3,408.4,280z M496.9,308.4c-0.4-0.3-1-0.4-1.1,0.3c-0.4,2.2-0.9,4.4-1.1,6.6c0,0.7,0.5,0.7,1,0.8
					c0.7,0.2,0.8-0.3,0.8-0.8c0.2-2,0.4-4,0.6-6C497.2,309,497.2,308.7,496.9,308.4z M305.3,520.6c0.3-0.3,0.6-0.7,0.5-1.2
					c-0.3-1.2-0.7-2.3-1-3.5c-0.2-1-0.8-0.6-1.3-0.5c-0.5,0.1-0.9,0.2-0.7,1c0.3,1.2,0.4,2.4,0.6,3.6
					C303.7,521.9,303.7,521.9,305.3,520.6z M503.6,309.7c0.2,0,0.3,0.1,0.5,0.2c1.6,0.7,3.3,0.9,4.9,1.3c0.6,0.2,1.1,0.2,1.2-0.7
					c0.1-0.8-0.1-1.2-0.9-1.2c-0.3,0-0.7-0.2-1-0.2c-1.4-0.2-2.8-0.8-4.2-0.8c-0.3,0-0.7-0.1-0.6,0.3
					C503.5,308.9,503.2,309.3,503.6,309.7z M278.8,247.5c-0.3-0.1-0.4,0.1-0.6,0.3c-1.6,1.9-3.5,3.6-5.3,5.4
					c-1.3,1.3-3.2,2.3-3.3,4.6c1.3-1.3,2.6-2.5,3.8-3.7c1.3-1.2,2.6-2.5,3.7-3.8c0.6-0.7,1.2-1.6,1.7-2.6
					C278.9,247.8,278.8,247.6,278.8,247.5z M500.6,309.4c0.4-0.3,0.4-0.7,0.1-1.1c-0.2-0.3-0.4-0.5-0.1-0.9c0.4-0.6,0-0.9-0.6-1.1
					c-1-0.3-2-0.5-3-0.8c-0.7-0.2-0.9,0.2-1,0.7c-0.2,0.6,0,0.9,0.6,1c0.9,0.1,1.5,0.6,1.5,1.5c0,1.2,1,0.5,1.4,0.9
					C499.9,310,500.3,309.8,500.6,309.4z M260.6,318.3c-1.2-1.9-6.5-7.4-7.4-7.8C253.3,312.7,258.3,318,260.6,318.3z M256.6,270.7
					c-1.7-0.2-2.4,0.9-3.3,1.7c-2.3,2.1-4.3,4.5-6.4,6.7c-0.3,0.3-0.9,0.4-0.5,0.9c0.3,0.4,0.7-0.1,1-0.4
					C250.5,276.7,253.5,273.8,256.6,270.7z M295.1,415.5c0-0.4,0.1-0.6,0.1-0.9c-0.1-0.5-0.3-1-0.4-1.6c-0.3-1.5-0.3-1.5-1.7-1.3
					c-1.6,0.2-1.7,0.4-1.4,2c0.1,0.3,0.1,0.5,0.2,0.8c0.1,0.5,0.1,1.2,0.7,1.3C293.4,416,294.1,415.3,295.1,415.5z M293.4,290.1
					c-0.4-0.4-0.9-1.3-1.3-1.1c-0.9,0.5-1.8,1.3-2.3,2.2c-0.3,0.6,0.7,1,1.2,1.6c0.1,0.2,0.3,0.3,0.5,0.4c0.3,0.2,0.6,0.2,0.8-0.1
					c0.4-0.6,1-1,1.7-1.4c0.6-0.3,0.6-0.7,0.1-1.2C293.8,290.5,293.6,290.3,293.4,290.1z M286,402.8c0,1.6,0.3,3.1,0.6,4.6
					c0.8,3.3,1.6,6.6,2.3,10c0.2,1,0.9,1.4,1.8,1.6c0.3,0.1,0.9,0.1,1-0.4c0.1-0.5-0.4-0.5-0.7-0.6c-1.3-0.2-1.6-1.1-1.9-2.3
					c-0.5-2.3-0.8-4.7-1.3-6.9c-0.3-1.1-1.2-1.9-1.2-3.1C286.5,404.7,286.2,403.8,286,402.8z M300.8,506c0.2,1.9,0.8,3.7,1.2,5.5
					c0.1,0.5,0.2,0.9,0.9,0.7c0.5-0.2,1.3-0.1,1-1.1c-0.3-1-0.5-2.1-0.7-3.2C302.9,506.8,302.8,505.4,300.8,506z M109.7,122.2
					c0.4,0.2,0.5,0,0.7-0.1c1.5-1.4,3-2.8,4.5-4.2c2.1-2.2,4.2-4.3,6.4-6.3c0.3-0.3,1.2-0.5,0.7-1c-0.4-0.5-0.8,0.3-1.1,0.5
					c-0.1,0.1-0.2,0.2-0.3,0.2c-2.7,2.6-5.4,5.2-8,7.8C111.5,120,110.7,121.1,109.7,122.2z M263.9,258.2
					C263.9,258.2,263.9,258.2,263.9,258.2c0.3-0.4,0.8-0.7,1.1-1.1c0.6-0.7-0.1-1.3-0.4-1.9c-0.2-0.4-0.5-0.8-1-0.6
					c-1,0.5-1.8,1.4-2.4,2.2c-0.5,0.6,0.4,1,0.6,1.5c0.3,1.1,0.8,1.1,1.7,0.3C263.5,258.5,263.7,258.3,263.9,258.2z M305.4,498.3
					c-0.5-0.5-0.4-0.9,0-1.4c0.4-0.4,0.8-0.6,1.3-0.7c0.3-0.1,0.6-0.2,0.6-0.6c-0.1-0.4-0.3-0.6-0.6-0.6c-0.8,0-1.7,0-2.2,0.7
					c-0.6,0.8-1.2,1.5-0.7,2.6c0.7,1.6,0.9,1.7,3.1,1.5c0.4,0,1,0,0.9-0.6c0-0.6-0.6-0.6-1-0.5C306.2,498.9,305.8,498.7,305.4,498.3
					z M251,297.9c-0.1,0-0.1,0.1-0.2,0.1c0.2,0.8,0.3,1.6,0.5,2.5c0.1,0.3,0.1,0.5,0.4,0.7c1,0.6,1.5,1.5,2.3,2.3
					c0.4,0.3,0.6,0.9,1.2,0.3c0.5-0.5,0.6-1,0.1-1.5C253.8,300.8,252.4,299.3,251,297.9z M312.5,316.3c0.3-0.6-0.2-1-0.3-1.5
					c-0.1-0.5-0.2-1.1-0.9-0.9c-0.8,0.2-0.4,0.9-0.3,1.3c0.3,1.4-0.4,2.5-1.8,2.7c-0.2,0-0.6-0.1-0.6,0.2c0,0.5-0.2,1.2,0.2,1.3
					c0.9,0.4,1.8-0.1,2.7-0.4c0.3-0.1,0.7-0.2,0.7-0.7c0,0,0-0.1,0-0.1C311.4,317.5,311.1,316.8,312.5,316.3z M213.4,301.8
					c-6.7-7.9-14.3-14.9-21.6-22.3C199,286.9,206.2,294.3,213.4,301.8z M127,129.2C127,129.2,127,129.2,127,129.2
					c0.4-0.4,0.9-0.8,1.3-1.2c0.4-0.5,0.8-1,1.2-1.4c0.4-0.4,0.3-0.9,0.1-1.2c-0.3-0.4-0.6,0-0.9,0.3c-0.5,0.6-1.2,1.1-1.8,1.7
					c-0.8,0.8-1.5,1.6-2.3,2.4c-0.4,0.4-0.7,0.8-0.2,1.3c0.5,0.5,0.8-0.1,1.1-0.4C126,130.2,126.5,129.7,127,129.2z M291.7,400.3
					c0.2-0.2-0.1-2.9-0.3-3.1c-0.3-0.2-2.4,0.2-2.8,0.5c-0.2,0.2,0.2,2.7,0.4,3C289.2,400.9,291.3,400.6,291.7,400.3z M261.4,282.7
					c1.6,1.6,2.9,3,4.2,4.4c1,1,2.1,1.8,2.5,3.3c0.1,0.6,0.6,0.7,1.2,0.5c0.6-0.2,1.1-0.6,1.5-1c0.1-0.1,0.3-0.3,0.2-0.5
					c-0.1-0.3-0.4-0.2-0.6-0.1c-1.1,0.6-1.8,0-2.5-0.8c-1.6-1.7-3.2-3.4-4.9-5C262.7,283.1,262.4,282.7,261.4,282.7z M307.4,328
					C307.4,328,307.4,328,307.4,328c-0.5,0.4-1,0.9-1.5,1.3c-0.4,0.3-0.7,0.6-0.2,1.1c0.5,0.4,0.8,0.8,1.4,0.2c1-1.1,2.2-2,2.9-3.3
					c0.2-0.4,0.4-0.6,0-1c-0.4-0.4-0.7-0.4-1.1,0C308.5,327,308,327.5,307.4,328z M263.4,311.3c0.2-0.2,0.5-0.4,0.7-0.7
					c0.4-0.4,1-0.6,0.3-1.3c-0.5-0.5-1-1.2-1.8-0.3c-0.6,0.7-1.3,1.3-1.9,1.8c-0.6,0.5-0.6,1.1-0.1,1.6c0.5,0.6,1.1,0.3,1.5-0.1
					C262.6,312.1,262.8,311.6,263.4,311.3z M498.6,310.6c0.6,0.4,0.2,1.4,1,1.6c2.3,0.4,4.5,1.1,6.8,1c0.3,0,0.6,0,0.6-0.4
					c0-0.4-0.3-0.4-0.6-0.5C503.9,311.6,501.3,311.3,498.6,310.6z M214,261.3c0.5-0.1,0.7-0.4,1-0.6c2.7-2.7,5.3-5.3,8-8
					c0.2-0.2,0.8-0.5,0.4-0.9c-0.4-0.4-1-0.1-1.2,0.3c-0.4,1.1-1.4,1.5-2.1,2.3c-1.6,2-3.4,3.9-5.2,5.7
					C214.4,260.3,214.1,260.7,214,261.3z M288.1,308.5c0.5-0.5,1.1-1,1.7-1.6c0.3-0.4,0.3-0.8,0-1.2c-0.2-0.2-0.4-0.4-0.7-0.1
					c-1.4,1.3-2.8,2.5-4,4c-0.2,0.2-0.5,0.5-0.2,0.8c0.3,0.3,0.6,0.2,1,0.1C286.8,310,287.3,309.1,288.1,308.5z M436,297
					c-0.4-0.5-1.7-0.6-2.1-0.2c-0.5,0.6-1,2.7-0.7,3c0,0,0.1,0,0.1,0c1.4,0.9,2.1,0.6,2.7-0.9c0.2-0.5,0.1-0.9,0.2-1.4
					C436.2,297.4,436.2,297.2,436,297z M293.3,407.6c0.3-0.2,0.1-2.1-0.3-2.7c-0.2-0.3-2.2-0.2-2.7,0.2c-0.3,0.2-0.1,2.4,0.2,2.8
					C290.7,408.3,292.8,408,293.3,407.6z M226.2,242.1c-0.2-0.8-0.7-1.7,0.2-2.1c1.4-0.6,0.7-1.2,0.1-1.8c-0.4-0.4-0.8-0.8-1.1-1.2
					c-0.2-0.2-0.6-0.3-0.5,0c0.1,1.3-0.9,1.4-1.8,1.7C224.1,239.9,225.1,240.9,226.2,242.1z M254.8,262.9
					C254.8,262.9,254.8,262.9,254.8,262.9c-0.2,0.2-0.5,0.5-0.8,0.7c-0.3,0.3-0.3,0.5,0,0.8c0.5,0.3,1,0.7,1.2,1.4
					c0.1,0.2,0.3,0.2,0.5,0.2c1.4-0.4,2.1-2.2,1.4-3.4c-0.4-0.7-0.9-0.9-1.5-0.3C255.3,262.4,255,262.6,254.8,262.9z M262.7,212.6
					c-0.1,0.1-0.2,0.3-0.4,0.4c-3.8,3.1-7.1,6.7-10.6,10c-0.2,0.2-0.6,0.4-0.4,0.7c0.3,0.4,0.5,0,0.7-0.2
					C255.8,220,259.2,216.3,262.7,212.6z M321.5,257c-2.6-0.6-5-1.1-7.6-1.3c0.3,0.4,0.3,0.8,0.3,1.1c-0.1,0.5-0.1,1,0.6,0.4
					c0.2-0.2,0.5-0.2,0.8-0.1c0.8,0.2,1.7,0.4,2.5,0.6c1,0.2,2.1,0.9,2.7-0.5C320.8,257.1,321.1,257.1,321.5,257z M312.7,319.6
					c-1.8,0.7-3.7,0.4-4.9,2c-0.3,0.4-0.5,0.6-0.2,1.1c0.5,0.8,1.5,0.9,2.1,0.2c0.4-0.4,0.9-0.8,1.2-1.2
					C311.5,321,312.3,320.7,312.7,319.6z M124.5,128.7c1-1.5,2.5-2.6,3.7-4c0.2-0.3,0.8-0.5,0.4-0.9c-0.3-0.4-0.8,0-1,0.2
					c-1.7,1.7-3.3,3.4-5,5c-0.1,0.1-0.3,0.3-0.1,0.5c0.1,0.1,0.3,0.2,0.5,0.2C123.7,129.7,124,129.1,124.5,128.7z M220.4,230.9
					c-0.2-0.1-0.6-0.4-0.9-0.7c-0.2-0.2-0.4-0.4-0.7-0.3c-0.3,0.1-0.3,0.5-0.3,0.8c0,0.8,0,1.6,0.1,2.4c0,0.5,0.1,1,0.6,1.2
					c0.5,0.2,0.7-0.4,1-0.6c0.2-0.1,0.3-0.3,0.4-0.4C221.6,232.3,221.6,232.2,220.4,230.9z M306,326.2c-0.7,0.5-1.1,1.3-1.7,1.9
					c-0.3,0.4-0.1,0.9,0.2,1.1c0.4,0.3,0.4-0.3,0.7-0.4c1.3-0.9,2.2-2.1,3.4-3.2c0.4-0.3,0.5-0.6,0.2-1c-0.3-0.3-0.8-0.4-1,0
					C307.2,325.3,306.5,325.6,306,326.2z M262.6,304.4c-0.1,0.1-0.2,0.2-0.3,0.2c-0.6,0.5-1.1,1-0.2,1.8c0.8,0.7,1.4,0.7,2.1,0
					c0.2-0.2,0.3-0.4,0.6-0.6c0.8-0.4,0.7-0.8,0.1-1.4C263.8,303.3,263.7,303.3,262.6,304.4z M432.8,302.2c-0.2-0.3-0.4-1-0.9-0.3
					c-0.4,0.6-0.5,1.2,0,1.9c0.6,0.8,1.4,1.2,2.4,1c0.7-0.2,1.2-0.6,1.2-1.3c0-0.5,0-1-0.8-0.6C433.9,303.1,433.3,302.7,432.8,302.2
					z M261.7,289.2C261.7,289.2,261.7,289.2,261.7,289.2c0.4,0.5,0.9,1,1.4,1.4c0.3,0.4,0.7,0.6,1.2,0.2c0.5-0.5,0.3-0.9-0.1-1.3
					c-1-0.9-1.9-1.8-2.9-2.7c-0.3-0.3-0.7-0.4-1,0c-0.3,0.3-0.2,0.6,0.1,0.9C260.8,288.3,261.3,288.7,261.7,289.2z M222.2,247.9
					c-0.7,0.4-3.9,3.9-4.2,4.4c-0.4,0.6,0.1,1.1,0.3,1.6c0.1,0.2,0.4,0.5,0.5,0.3c0.5-0.5,1.5-0.8,1.2-1.8c-0.2-0.9,0.1-1.5,0.5-2.2
					C221,249.5,221.6,248.7,222.2,247.9z M260.4,299.3c0.1-0.4,1.2-0.5,0.5-1.1c-0.5-0.5-0.9-1.6-1.8-1.3c-0.7,0.3-1.3,0.9-1.4,1.9
					c0,0.6,0.3,1,0.8,1.3C259.4,300.5,259.8,299.7,260.4,299.3z M286.3,304.7c-0.7,0.4-1-0.1-1.4-0.4c-1.1-1.1-2.1-2.2-3.2-3.3
					c-0.3-0.3-0.5-0.7-0.9-0.4c-0.4,0.3,0,0.7,0.2,0.9c1.1,1.6,2.7,2.8,4,4.2c0.3,0.3,0.5,0.1,0.7-0.1
					C285.9,305.4,286.1,305,286.3,304.7z M217.4,282.5c0,0-0.2-0.3-0.5-0.4c-0.4-0.3-0.8-0.2-1.2,0.1c-0.3,0.3-0.8,0.6-0.5,1
					c0.5,0.7,0.4,1.2-0.2,1.8c-0.5,0.6,0.1,1.1,0.5,1.5c0.2,0.2,0.4,0.5,0.7,0.3c0.5-0.4,0.2-0.8,0-1.2c-0.3-0.9,0.2-1.7,1-1.8
					c0.3,0,0.8,0.2,0.9-0.2C218.3,283.2,217.8,282.9,217.4,282.5z M252.5,286.6c-0.6-0.7-1.2-1.4-1.8-2.1c-0.3-0.4-0.8-0.4-1.1-0.1
					c-0.4,0.5,0.2,0.5,0.4,0.8c0.2,0.2,0.4,0.4,0.6,0.6c1,1.4,2.4,2.5,3.5,3.8c0.3,0.3,0.7,0.7,1.1,0.3c0.4-0.4-0.2-0.5-0.3-0.8
					C254.1,288.2,253.2,287.4,252.5,286.6z M287.3,392.9c0.3,0.4,2.4,0.2,2.7-0.2c0.4-0.7,0.1-1.4-0.2-2.1c-0.2-0.4-2.4-0.3-2.7,0.1
					C286.6,391.5,287.4,392.2,287.3,392.9z M252.4,304.4c-0.1,0.1-0.2,0.2-0.3,0.3c0,0.9,0.3,1.6,0.9,2.3c0.8,0.7,1.5,1.5,2.2,2.2
					c0.3,0.3,0.6,0.9,1.1,0.4c0.6-0.5,0-0.9-0.3-1.3C255,307,253.7,305.7,252.4,304.4z M266,258.2c0.1,0.1,0.2,0.2,0.3,0.3
					c3.4-3.4,7-6.6,10.3-10.1c-0.1-0.1-0.2-0.2-0.2-0.2C272.9,251.6,269.5,254.9,266,258.2z M380.9,288.6c0.2-0.8,0.4-1.3,0.5-1.8
					c0.1-0.4,0-0.7-0.4-0.8c-1.1-0.3-2.2-0.5-3.3-0.8c-0.4-0.1-0.8,0-0.8,0.4c0,0.7-0.2,1.2-0.4,1.8c-0.2,0.7,0.1,1.3,0.8,1.7
					c-0.5-1.5-0.2-2.4,0.9-2.7C379.6,286,380.2,286.5,380.9,288.6z M295.6,512c0-0.1-0.1-0.2-0.1-0.3c-2.8,0.4-5.6,0.8-8.3,1.2
					c-0.3,0.1-0.9,0.2-0.7,0.7c0.2,0.6,0.7,0.3,1,0.2c1.9-0.4,3.9-0.7,5.8-1.2C294,512.5,294.9,512.6,295.6,512z M220.7,289.4
					c0,0.5-0.9,0.5-0.5,1c0.2,0.3,0.6,0.8,1.1,0.7c0.7-0.1,1.9-1.2,1.8-1.9c-0.1-0.9,0.3-1.3,0.9-1.8c0.2-0.2,0.6-0.3,0.3-0.6
					c-0.3-0.3-0.5-0.1-0.8,0.1C222.4,287.6,221.8,288.8,220.7,289.4z M513.5,311.9c1,0.6,2.3,0.9,3.5,1c0.5,0.1,0.5-0.7,0.8-1
					c0.1-0.2-0.1-0.4-0.3-0.5c-1.2-0.3-2.3-0.5-3.5-0.8c-0.4-0.1-0.6,0-0.7,0.4C513.2,311.3,513.2,311.6,513.5,311.9z M252.8,319.8
					c0.3-0.8-2-13.2-2.6-14.1C250.9,310.6,251.8,315.2,252.8,319.8z M224.8,263.9c0.1,0,0.1-0.1,0.2-0.1c-0.2-1.2-0.5-2.4-0.7-3.6
					c-0.1-0.3-0.1-1-0.5-0.9c-0.6,0.2-1,0.6-1.5,1.1c-0.3,0.3-0.2,0.6,0.1,0.9C223.2,262.1,224,263,224.8,263.9z M287.1,270.2
					c-0.1-1.6-5-6.4-6-6.3C283.1,266,285.1,268.1,287.1,270.2z M228.9,220c0.7,0.8,1.3,1.3,1.8,1.8c0.3,0.3,0.7,0.7,1.1,0.4
					c0.6-0.5,1.5-0.8,1.7-1.6c0.1-0.4-0.3-0.4-0.5-0.4C231.7,220,230.5,219.9,228.9,220z M234.9,314.2c0.7,0.7,1.4,1.5,2.1,2.2
					c0.3,0.3,0.9,0.4,1.1,0.1c0.3-0.3-0.2-0.6-0.5-0.8c-1.2-0.8-2-2-3.3-2.8c-0.3-0.2-0.5-0.7-0.8-1c-0.2-0.3-0.1-0.7-0.6-0.8
					c-0.1,0-0.3,0.2-0.3,0.3c-0.2,0.4,0.1,0.7,0.4,1C233.7,313,234.2,313.8,234.9,314.2z M277.4,263.1c0.6,0.4,1,0.1,1.4-0.1
					c0.8-0.3,1.5-0.7,2.4-0.7c0.4,0,0.9,0.4,1.1-0.2c0.2-0.5-0.4-0.8-0.7-1.1c-0.6-0.5-1.2-0.2-1.7,0
					C279,261.5,278.2,262.2,277.4,263.1z M275.3,202.1c-0.1-0.1-0.2-0.2-0.2-0.3c-3.1,3.1-6.4,6-9.3,9.4
					C269,208.2,272.1,205.1,275.3,202.1z M446.6,287.5c-0.7-0.3-1.5-1.2-1.9-0.5c-0.4,0.6-0.7,1.6-0.4,2.4c0.1,0.4,2,0.6,2.3,0.2
					C447,288.8,447,288.1,446.6,287.5z M264.6,287.1c0,0-0.1,0.1-0.1,0.1c-0.8-0.8-1.6-1.7-2.4-2.5c-0.2-0.2-0.3-0.4-0.6-0.2
					c-0.2,0.2-0.1,0.4,0,0.5c1.4,1.6,2.8,3.2,4.4,4.6c0.2,0.2,0.5,0.3,0.7,0.1c0.2-0.3,0-0.5-0.2-0.7
					C265.9,288.3,265.2,287.7,264.6,287.1z M307.4,254.5c-2.3-0.3-2.3-0.3-3.1,0.9c-0.2,0.2-0.4,0.5-0.1,0.7
					c0.5,0.4,1.1,0.9,1.9,0.8c0.6-0.1,0.8-0.6,0.9-1.2C307,255.3,307.2,254.9,307.4,254.5z M293.3,205.8c0.3,0,0.3-0.1,0.2-0.2
					c-4-4.1-7.9-8.4-12.2-12.3C285.4,197.5,289.3,201.8,293.3,205.8z M286.7,225.1c2-0.3,3.4-1,4.4-2.3c0.2-0.2,0.6-0.3,0.3-0.7
					c-0.2-0.3-0.7-0.6-1-0.3C289.2,222.8,287.9,223.7,286.7,225.1z M250.3,280c-0.1,0.1-0.2,0.1-0.2,0.2c3.1,3.2,6,6.6,9.3,9.6
					c0.1-0.1,0.2-0.1,0.2-0.2C256.4,286.3,253.4,283.2,250.3,280z M267,199.1c1.7-1.5,3.3-2.9,5-4.4c0.1-0.1,0.3-0.3,0.1-0.5
					c-0.2-0.3-0.5-0.1-0.7,0.1c-1.7,1-3,2.4-4.3,3.9C267,198.3,266.8,198.6,267,199.1z M290.7,394.5c-0.3-0.3-0.7-0.2-2,0.1
					c-0.9,0.2-1,0.6-0.8,1.4c0.2,0.8,0.7,0.7,1.3,0.6c0.4-0.1,0.7-0.2,1.1-0.3C291,396,291.2,395,290.7,394.5z M225,298.5
					c-0.4-0.7-0.8-1.2-0.8-1.7c-0.1-1.2-0.9-1.9-1.6-2.7c-0.3-0.4-0.7-0.6-1.1-0.3c-0.5,0.4-0.2,1,0.1,1.2
					C222.8,296,223.5,297.5,225,298.5z M257.1,293.9c-0.6-0.5-0.9-1.4-1.6-0.7c-0.5,0.5-1.4,1.2-0.3,2c0.5,0.4,0.8,1.4,1.7,0.6
					C257.6,295.2,258,294.4,257.1,293.9z M522.4,314.9c0-0.6-0.2-1-0.1-1.5c0.1-0.5-0.2-0.8-0.7-0.8c-0.8,0-1.7,0-2.5,0
					c-0.2,0-0.4,0-0.5,0.3c-0.1,0.3,0.1,0.4,0.4,0.5C520.1,313.9,521.1,314.7,522.4,314.9z M263.2,299.9c0.5-0.6,1.2-1.1,1.5-1.9
					c0.1-0.2,0.2-0.4,0-0.5c-0.3-0.2-0.4,0-0.6,0.2c-0.7,0.8-1.4,1.5-2.5,1.9c-0.4,0.1-0.6,0.6-0.9,0.8c-0.2,0.2-0.4,0.5-0.2,0.8
					c0.2,0.3,0.5,0.2,0.8,0C262,300.8,262.6,300.3,263.2,299.9z M227.1,302.6c0.1-0.1,0.2-0.2,0.3-0.3c-3.4-3.5-6.8-7-10.2-10.5
					C220.5,295.3,223.9,298.9,227.1,302.6z M293.4,227.1c0.4,0.4,0.8,0.3,1.2,0.2c1.4-0.4,2.4,0.1,3.3,1.1c1.4,1.6,2.9,3.1,4.6,4.8
					c-0.4-0.6-0.6-0.9-0.9-1.2c-1.3-1.4-2.5-2.8-3.8-4.1C296.3,226.3,295.7,226.1,293.4,227.1z M293,419.1c0.6,0.6,1.3,0.7,1.8,0.1
					c0.6-0.6,0.5-1.3-0.1-1.8c-0.5-0.5-1.1-0.7-1.6-0.1C292.6,417.8,292.4,418.5,293,419.1z M127.9,129.4
					C127.9,129.4,127.9,129.4,127.9,129.4c-0.6,0.6-1.2,1.1-1.7,1.7c-0.2,0.2-0.7,0.5-0.4,0.8c0.3,0.4,0.7,0,1-0.3
					c1.2-1.2,2.4-2.4,3.6-3.6c0.2-0.2,0.2-0.4,0.1-0.6c-0.2-0.3-0.4,0-0.6,0.1C129.2,128.2,128.6,128.8,127.9,129.4z M248.3,295.1
					c0.1,0,0.2-0.1,0.3-0.1c-0.7-4.2-1.5-8.4-2.2-12.6C246.6,286.8,247.6,290.9,248.3,295.1z M283.7,309.1c0.6,0.1,0.8-0.3,1.1-0.6
					c1.3-1,2.4-2.3,3.6-3.4c0.2-0.2,0.8-0.3,0.4-0.8c-0.4-0.5-0.7,0.1-0.9,0.3c-0.8,0.6-1.5,1.4-2.1,2.1
					C285,307.4,283.9,307.9,283.7,309.1z M287.8,268.1c0.1-0.6-0.2-0.8-0.5-1c-1.1-1.1-2.2-2.2-3.3-3.3c-0.2-0.2-0.4-0.4-0.7-0.6
					c-0.2-0.1-0.4-0.3-0.6-0.1c-0.2,0.2,0,0.4,0.2,0.6c0.8,0.8,1.5,1.7,2.3,2.4C286,266.7,286.7,267.6,287.8,268.1z M283.2,229.3
					c0.1,0.1,0.1,0.2,0.2,0.2c2.4-0.4,4.8-0.7,7.2-1.3c0.2-0.1,0.5-0.1,0.4-0.4c-0.1-0.3-0.4-0.2-0.6-0.1c-2,0.4-4,0.9-6,1.3
					C283.9,229,283.4,228.8,283.2,229.3z M494.9,324.5c0.1-0.7,0.9-1.2,0.9-2c0-0.7-0.1-1-0.8-1.1c-0.7-0.1-1,0.2-1,0.9
					c0,0.7-0.1,1.3-0.1,2c0,0.3,0.1,0.5,0.3,0.5C494.5,324.8,494.7,324.8,494.9,324.5z M323.2,260.1c0.2-0.6,0.4-1.2,0-1.8
					c-0.3-0.4-1.8-0.5-2.1-0.1c-0.5,0.6-0.4,1.2,0.1,1.7C321.8,260.4,322.5,260.6,323.2,260.1z M302.6,514.3
					c0.4,0.4,2.8,0.2,3.1-0.2c0.3-0.4,0.1-0.7-0.3-1c-0.8-0.5-1.7-0.4-2.6-0.1C302.1,513.4,302.4,513.9,302.6,514.3z M250.7,295.5
					c-0.1,0.1-0.2,0.2-0.3,0.3c1.9,2,3.9,4,5.8,6C254.6,299.5,252.6,297.5,250.7,295.5z M509.8,301.8c0.9-2.3,1.1-4.7,1.9-7
					c0.1-0.3,0-0.7-0.4-0.7c-0.4,0-0.5,0.3-0.6,0.6C510.5,297,510.2,299.4,509.8,301.8z M294.9,420.9c0-0.1,0-0.3,0-0.4
					c-1.1,0-2.2-0.3-3.2-0.7c-0.1,0-0.3,0-0.5,0.1c-0.5,0.1-0.7,0.3-0.6,0.9c0.1,0.5,0.3,0.9,0.9,0.8
					C292.6,421.3,293.7,421.1,294.9,420.9z M265,208c0.5,0.4,1,1,1.6,0.3c0.4-0.5,0.8-1.3,0.2-1.9c-0.6-0.6-1.3-0.5-1.9,0.2
					C264.5,207.1,264.4,207.5,265,208z M257.1,242.1c-0.9-1.8-7.1-7.9-8-8.3C251.8,236.6,254.4,239.4,257.1,242.1z M108.3,102.5
					c-0.1-0.1-0.2-0.2-0.3-0.3c-1.9,2.1-4.3,3.7-5.8,6.2C104.2,106.5,106.2,104.5,108.3,102.5z M223,234.7c-0.5-0.5-0.7-1.3-1.4-1
					c-0.7,0.3-1.5,0.9-1.6,1.7c-0.1,0.6,0.6,1,1.2,1.4C221.3,235.6,221.9,234.9,223,234.7z M308.1,314.8c-0.3,0.5-0.7,1.1,0,1.7
					c0.6,0.5,1.3,0.6,1.8,0.1c0.4-0.5,0.3-1.3-0.3-1.9C309.1,314.2,308.6,314.3,308.1,314.8z M227.9,218.7c2.2,0.6,4.6,0.2,6.8,0.8
					C232.6,217.9,230.2,218.6,227.9,218.7z M291.2,410.3c0.8,0.2,1.5-0.1,2.3-0.2c0.5-0.1,0.6-0.4,0.5-0.8c-0.1-0.4-0.2-0.9-0.8-0.8
					c-0.6,0.1-1.2,0.3-1.8,0.5C290.7,409.3,290.8,409.8,291.2,410.3z M229.4,252.1c0-0.5,1.4-0.7,0.5-1.6c-0.5-0.5-1.1-0.7-1.7-0.1
					c-0.5,0.5-0.9,1-0.2,1.7C228.5,252.5,228.9,252.8,229.4,252.1z M271.8,323.5c0-0.1,0.1-0.2,0.1-0.2c-0.4-1.4-0.6-2.8-1.3-4.1
					c-0.1-0.2-0.3-0.2-0.5-0.1c-0.2,0.1-0.3,0.3-0.2,0.5c0.4,1.2,0.8,2.5,1.2,3.7C271.2,323.6,271.5,323.8,271.8,323.5z
					 M278.4,304.5c1.1,1.3,1.9,2.8,4,3.3C281.3,306.1,280.1,305,278.4,304.5z"/>
				<path stroke="#000000" stroke-width="2" stroke-miterlimit="10" d="M239.8,283.4c1.6,1.3,1.3,3.2,1.7,4.8c0.4,1.5,0.5,3,0.8,4.5
					c0.1,0.3,0.2,0.6-0.1,0.8c-0.4,0.2-0.6-0.1-0.9-0.3c-1.8-1.1-2.3-2.7-2.4-4.7c-0.1-1.7-0.5-3.3-0.8-4.9c-0.1-0.4-0.3-1,0.2-1.2
					c0.5-0.2,0.7,0.3,1.1,0.6C239.5,283,239.7,283.3,239.8,283.4z"/>
			</g>
		</g>
	</g>
</g>
<g id="text" display="none">
</g>
<g id="guides" display="none">
</g>
</svg>
