<svg xmlns="http://www.w3.org/2000/svg" xml:space="preserve" viewBox="0 0 800 800"><path fill="none" d="M0 0h800v800H0z"/><path d="M307.3 570.9c-9.6 1.1-14.7-1.6-19.6-7.2-3.6-4.1-6.9-7.9-9.1-12.8-.8-1.8-3-3.6-4.9-4-10.3-1.9-19.7-.3-27.6 7.7-9.2 9.3-20.9 12.1-33.1 9.2-3-.7-6.6-7.6-6.4-11.5.5-13.3 3.9-26.1 12.5-36.9 5.7-7.2 11.2-14.5 17.1-21.5 1.2-1.4 3.2-2.5 5.1-3 10.5-2.7 20.9-6.1 31.6-7.2 7.9-.8 16.2 1.4 24.2 2.8 2.2.4 3.8 3.1 5.9 4.5 1.7 1.1 3.6 2.6 5.6 2.7 4.7.3 10.2.5 11 5.5.7 4.1-1.2 9.4-3.5 13.2-5 8.1-7.5 16.1-4.3 25.5.9 2.6.2 5.6.3 8.4.1 1.8.3 3.7.5 5.5 2.3-.4 5.8 0 6.6-1.3 4.9-8 12-15.2 11.5-23.7 2.9-3.5 4.6-6 6.8-8 2.9-2.6 6.1-4.8 9.8-7.6 2.6 4 4.4 6.9 6.1 9.6 4.5-.2 9.2-.5 15.2-.8-1.9-3.7-3.3-5.7-4-8-.4-1.3.4-3 .7-4.5 1.4.3 3.2.2 4.1 1 7.7 6.8 15.6 13.4 22.7 20.8 2.5 2.6 4.3 7.1 4.5 10.8.4 9.2 0 18.4-.8 27.6-.3 3.6-2.5 6.9-4.4 11.8 10.3-1.6 17.2 2.7 24.7 6.4 3.3 1.7 8.9-1.2 13.4-2.2 2.6-.6 5-1.8 7.6-2 11-1.2 16.5 4.3 17 15.4.3 7.7 1.5 15.5 3.4 22.9 1.8 6.9-.6 13.2-5.3 15.9-4.5 2.6-11.6 2.4-17.2 1.3-4.1-.8-5-5.7-3.3-10.2 2.2-5.9.8-10-7.6-11.4-4 6.1-8.2 12.8-12.7 19.3-.9 1.3-2.5 2.6-4.1 3-7 1.7-13.9 4.1-21.1.1-1.8-1-4.9.4-7.3.9-2.2.4-4.3 1.6-6.4 1.6-7.4-.1-13.9-2.6-20.5-6.2-6.7-3.6-14.9-3.4-21.5.9-11.7 7.6-31.5-2.7-36.7-12.2-1.7-3.1-.6-8.2.3-12.2 2.1-9.1 4.6-18.1 7.4-27 1.3-4.2 3.3-7.6 5.8-12.9zm64.4-1c-2 5.5-3.9 10.6-5.7 15.7-1.6 4.4-3.9 8.8-4.5 13.3-1 6.9-2.7 14.4 2.1 20.5 1.6 2 5.5 2.2 8.4 3.2.6-2.9 1.7-5.8 1.8-8.7 0-3.4-1.3-6.8-1.3-10.1 0-5.5.2-11.1 1.2-16.6.9-5 2.9-9.8 4.5-14.9-1.2-.4-3.4-1.2-6.5-2.4zM301 621.6c.7.1 1.4.1 2.1.2 1.8-11.7 13.1-21 9-34.3-6.2 1.5-9.3 5.7-9.9 11.2-.9 7.5-.9 15.2-1.2 22.9zm-5.5-79.8c-.3-4.3-.5-8.1-.8-11.8-.4-4-2.6-6.6-6.7-5.3-3.6 1.2-7.3 2.8-6.8 8.3.9 8.5 7.7 7.4 14.3 8.8zm-77.4-14.7c-1.5 2-3.3 3.4-3.7 5.2-1.4 5.8-2.5 11.6-3.1 17.5-.1 1.3 1.8 3.5 3.4 4.2 1.1.5 3.8-.4 4.4-1.4 1.1-1.8 1.2-4.2 1.4-6.3.5-4.8.9-9.5 1.4-15.2-.5-.5-1.8-1.9-3.8-4zm60.6-21.5c-1.6-7.6-2.7-9.4-7.1-8.6-3 .5-7 2.5-8 4.8-1.4 3.3 6 12.1 8.5 10.8 2.7-1.3 4.5-4.6 6.6-7zm133 101.9c-3-8.9-5-9.8-10.2-4.7 2.5 3.5 4.4 8.2 10.2 4.7z"/><path fill="none" d="M100 115.8h600v200H100z"/><path d="M166.5 151.6h59.6c33 0 45.5 17.2 45.5 34.9 0 15.4-8.2 25.4-17.4 29.6 9.2 3.5 21.3 13.2 21.3 31.1 0 23.4-18.3 40.9-47.4 40.9h-61.7V151.6zm56.2 53.8c14 0 19.8-6.3 19.8-15.9 0-10-7.6-15.2-19-15.2h-28.1v31h27.3zm-27.2 59.9h26.6c15.9 0 23.2-6.7 23.2-19 0-11-7.1-18-23.3-18h-26.5v37zM285.3 213.4c0-10.2 0-19.2-.2-27.8H313c.4 2.3.7 12.5.7 18 4.5-11.7 15.5-20.3 32.9-20.4v27.1c-20.6-.5-32.9 5-32.9 33.1v44.7h-28.4v-74.7zM447 236.7c0 31-18.6 53.8-51 53.8-31.8 0-50.3-22.7-50.3-53.3 0-31.6 19.1-54 51.7-54 30.1 0 49.6 21.3 49.6 53.5zm-72.5.2c0 19.7 8.5 31.4 22.2 31.4 13.9 0 21.6-11.7 21.6-31.2 0-21.4-7.9-31.6-22-31.6-13.2-.1-21.8 9.7-21.8 31.4zM485 228.9c7.5-10.2 21.1-26.1 35.3-43.2h32.5l-35.7 38.7 39.1 63.8H524l-25.9-45.6-13.1 12.6v32.9h-28.4V143.6H485v85.3z"/><path d="M577 242.9c0 12.8 6.4 25.3 20.6 25.3 11.8 0 15.2-4.7 17.9-10.9h28.4c-3.6 12.5-14.8 33.1-47 33.1-33.8 0-48.4-25.2-48.4-52.1 0-32.1 16.5-55.1 49.4-55.1 35.2 0 47.2 25.5 47.2 51 0 3.5 0 5.7-.4 8.6H577zm39.6-17.4c-.2-11.9-5-22-18.8-22-13.6 0-19.1 9.4-20.2 22h39z"/><path fill="none" d="M500.6 400.7h200v200h-200z"/><path d="M620 418.9v26.8c-26.3 37.2-52 91-58.5 139h-37.1c6.5-48.8 36.2-107.2 58.9-136.2h-78.1v-29.7H620z"/></svg>