<svg xmlns="http://www.w3.org/2000/svg" xml:space="preserve" viewBox="0 0 800 800"><path fill="none" d="M0 0h800v800H0z"/><path d="M380.6 646.6c-.2-3.4-1.9-3.5-5-10-1.4-2.9-3.4-7.3-4-13-.6-5.6 1-5.8 0-9-2-6.5-8.5-7.1-9-12-.2-1.7.4-3.2 4-8 9.1-12.1 12.5-12 13-16 .7-5.8-6.2-7-12-20-2.8-6.3-1.3-6.3-4-12-5.9-12.5-14.2-15-13-20 1.1-4.7 8.7-3.6 12-10 2.7-5.2.4-11.3-1-15-4.4-11.6-14.1-17.6-23-23-8.9-5.4-20.4-12.3-27-8-4.6 3-3.8 9.3-9 11-2.8.9-5.3-.1-10-2-3.5-1.4-7.8-3.1-11-7-4.5-5.4-1.7-8.6-5-13-12-16-27.2-9.8-30-8-4.3 2.8-6.9 8.4-8 11-2.6 6 6 12.2 4 20-1.2 4.6-3.2 3.3-9 11-3.8 5-5.6 10.1-8 17-1.3 3.7-2.1 6.7-3 10l-.6 2.4c.5-.7 1.3-1.7 2.6-3.4 2.3-2.8 2.7-3 3-3 2.3-.2 4.5 6.5 5 8l-2 6c-2.5 1.3-4.1 2.8-5 4-.9 1.2-1.3 2-2 2-1.4 0-2.6-3-3-5-.1-.2-.2-.9-.2-1.7-.3 1.3-.5 2.5-.8 3.7-1.7 8.2-2.5 12.3-2 15 .3 1.9 1.3 7.3 6 11 4.8 3.8 10.6 3.2 13 3 2.2-.2 5.8-.5 9-3 4.4-3.4 3-6.9 7-11 5-5.2 12.5-5 13-5 1.9.1 4.1.5 15 8 12.2 8.4 13.5 10.7 14 13 .5 2.3-.4 4.8-2 10-1.5 4.8-3 7.8-6 14-.9 1.9-3.8 8.1-6 13-3.8 8.6-5.7 12.8-7 18-.8 3.2-2.7 11.5-2 22 .5 7.4.8 11.7 4 16 4.4 5.9 11 7.5 13 8 9.8 2.3 18.1-2.5 19-3 7.2-4.2 8.8-10.2 14-10 2.3.1 4.6 1.3 6 3 1.8 2.2 1.3 4.2 2 9 .9 5.7 1.3 8.6 3 10 1.6 1.3 3.8 1.3 20-4 8-2.6 9.5-3.2 11-4 3.5-1.8 8.1-4.1 12-9 2.4-3 5.2-6.6 5-11zm-126-155c-1.2 6.1-1.8 9.1-3 11-2.7 4.1-6.7 6.1-9 7-1.3-1.7-2.7-3.3-4-5 2.4-3.3 2.9-6.1 3-8 .1-2.1-.5-3.3 0-6 .2-1.1.6-3 2-5 .8-1.1 2.8-3.8 6-4 .2 0 3.4-.1 5 2 .9 1.2 1 2.7 0 8zm62-2c2.5-1.7 5.4-1.1 6-1 2.5.5 4.1 2.1 6 4 3.6 3.6 2.9 5 5 6 3 1.4 4.7-1.5 10-1 2.9.3 5 1.4 8 3 3.1 1.7 5 2.7 5 4-.1 2.5-7.4 3.9-8 4.9 3.7.1 6 0 6 .1 0 .2-5.8.8-6 0v-.1c-3.6-.1-8.6-.6-14-1.9-4.8-1.1-6.7-2.1-8-3-3.4-2.3-3.4-4-7-6-3.4-1.9-5.3-1.4-6-3-.8-1.9 1-4.7 3-6zm-44 8c-1.4 1.3-4.2 1-6 0-2.6-1.5-3.9-4.8-3-6 .8-1 2.9.3 4-1 .9-1.1.2-2.4 1-4 .8-1.7 2.5-2.4 4-3 4.2-1.7 8.4-.6 10 0 .9.3 2.4.9 4 2s4.2 2.9 4 5c-.1.8-.7 1.5-2 3-1.7 1.9-2.8 3.2-4 3-.8-.1-.7-.9-2-2-.6-.6-2.5-2.1-5-2-.6 0-1.9.1-3 1-1.5 1.3-.8 2.8-2 4zm20 4c-1.8 2.5-4.1 3.6-5 4-.4.2-6.4 2.7-9 0-.6-.6-.9-1.4-1-2-.5-1.5-.8-3.2 0-4 .8-.7 2 .2 4 0 2.4-.2 2.9-1.6 6-3 .4-.2 5.7-2.6 7-1 1 1.3-1.1 4.7-2 6zm1 107c-2.1 2.1-3.1 1.5-4 3-1.2 2.1.3 4.3 2 10 1 3.2 1.8 5.9 2 9 .1 1.1.4 6.1-2 12-1.5 3.6-3.1 7.7-7 9-.6.2-2.7.9-5 0-3.9-1.6-5.7-7-5-11 .6-3.3 2.5-3.4 3-7 .4-2.7-.5-3.4-1-8-.4-3.7-.1-6.6 0-8 .4-4.7.8-8.1 3-11 2.1-2.8 3.3-1.7 6-5 2.5-3.1 2.9-5.7 5-6 1.2-.2 2.3.5 3 1 2 1.4 3 3.8 3 6-.1 3-2.1 5-3 6zm63-44c-5.2.5-7.1-2.9-13-4-5-1-9.1.4-11 1-5.1 1.7-13.4 6.3-13 11 .4 5.3 11 4.7 15 13 3 6.2 1.2 15.3-3 17-4.3 1.8-10.4-4.4-13-7-5.1-5.1-6.9-10.6-8-14-1.3-3.9-2.5-7.8-1-12 1.1-3 2.4-3 3-5 2.2-7.6-14.8-15.9-13-21 1.5-4.3 15.2-3.1 16-3 1.3.1 1.5.2 15 4 11 3.1 11.5 3.2 13 4 2.5 1.3 4.8 3 9 4 2.1.5 2.6.4 4 1 3.5 1.6 6.9 5.4 6 8-.9 2.4-5.3 2.9-6 3z"/><path fill="none" d="M99.6 99.5h600v200h-600z"/><path d="M166.1 135.3h59.6c33 0 45.5 17.2 45.5 34.9 0 15.4-8.2 25.4-17.4 29.6 9.2 3.5 21.3 13.2 21.3 31.1 0 23.4-18.3 40.9-47.4 40.9H166V135.3zm56.2 53.8c14 0 19.8-6.3 19.8-15.9 0-10-7.6-15.2-19-15.2H195v31h27.3zM195.1 249h26.6c15.9 0 23.2-6.7 23.2-19 0-11-7.1-18-23.3-18h-26.5v37zM284.9 197.1c0-10.2 0-19.2-.2-27.8h27.8c.4 2.3.7 12.5.7 18 4.5-11.7 15.5-20.3 32.9-20.4V194c-20.6-.5-32.9 5-32.9 33.1v44.7h-28.4v-74.7zM446.6 220.4c0 31-18.6 53.8-51 53.8-31.8 0-50.3-22.7-50.3-53.3 0-31.6 19.1-54 51.7-54 30.1 0 49.6 21.3 49.6 53.5zm-72.5.2c0 19.7 8.5 31.4 22.2 31.4 13.9 0 21.6-11.7 21.6-31.2 0-21.4-7.9-31.6-22-31.6-13.2-.1-21.8 9.7-21.8 31.4zM484.6 212.6c7.5-10.2 21.1-26.1 35.3-43.2h32.5L516.7 208l39.1 63.8h-32.1l-25.9-45.6-13.1 12.7v32.9h-28.4V127.3h28.4v85.3z"/><path d="M576.6 226.6c0 12.8 6.4 25.3 20.6 25.3 11.8 0 15.2-4.7 17.9-10.9h28.4c-3.6 12.5-14.8 33.1-47 33.1-33.8 0-48.4-25.2-48.4-52.1 0-32.1 16.5-55.1 49.4-55.1 35.2 0 47.2 25.5 47.2 51 0 3.5 0 5.7-.4 8.6h-67.7zm39.6-17.4c-.2-11.9-5-22-18.8-22-13.6 0-19.1 9.4-20.2 22h39z"/><path fill="none" d="M400 400h300v300H400z"/><path d="M440.9 583.9V460c-7.7 3.6-21.7 6.5-30 7.2v-26.9c15.7-2.9 31.6-11.8 41.1-22.3h25.5v166h-36.6zM625.3 500c0 45.6-14.5 87-63.7 87-48.6 0-63.7-40-63.7-85.9 0-45.5 16.7-85.9 64.4-85.9 46.3-.1 63 37.7 63 84.8zm-90.2.6c0 30.5 3.5 57.6 26.9 57.6 22.9 0 25.9-25.4 25.9-58 0-32.2-3.9-56.4-25.6-56.4-21.1 0-27.2 20.9-27.2 56.8z"/></svg>