<?xml version="1.0" encoding="utf-8"?>
<!-- Generator: Adobe Illustrator 27.0.1, SVG Export Plug-In . SVG Version: 6.00 Build 0)  -->
<svg version="1.2" baseProfile="tiny" xmlns="http://www.w3.org/2000/svg" xmlns:xlink="http://www.w3.org/1999/xlink" x="0px"
	 y="0px" viewBox="0 0 800 800" overflow="visible" xml:space="preserve">
<g id="bg" display="none">
</g>
<g id="scratch" display="none">
</g>
<g id="counters_00000155831629897369998050000010902328751353074356_">
	<g id="broke9_00000124856942138692373930000014728186919448350625_">
		<rect id="_x31__x2F_2_x22__800x800_00000083767653702513193700000000783830211616994695_" fill="none" width="800" height="800"/>
		<g>
			<path d="M197.2,511c2.6,3.3,2.8,7,5.6,9.3c0.9,0.7,0.6,3.1,2.6,1.8c1.6-1.1,1.6-2.5,0-3.9c-1.4-1.2-2.4-2.7-1.2-4.7
				c3.9-1.5,6.3,10.3,10.7,0.8c4.5,4.9,7.6,10,10.4,15.6c3.4,6.6,9.7,11.2,16.9,14.1c1.9,0.8,1.9,2.2,2.2,3.8
				c1.1,5.1,0.8,10.4,3.2,15.3c1.4,2.9,3.3,4,6.5,3.3c1.4-0.3,1.1-4.3,3.1-1.9c1.4,1.6,3.5,3.9,2,6.7c-2.2,4.3-0.4,7.4,2.9,10
				c1.3,1.1,2.9,1.6,4.1-0.3c2.2-3.7,6.5-6.1,4.7-11.9c-2.2-7-9.9-9-12.5-15.3c-0.1-0.2-0.5-0.2-0.6-0.3
				c-3.3-11-17.7-14.3-18.5-26.9c-0.1-1.5-1.2-2.7-2.7-2.6c-5.8,0.3-5.5-4.6-6.5-7.9c-1.4-4.5,3.3-2.2,4.7-3.7
				c2.1-2,4.2-4.1,5.6-6.8c2.9-5.9,14.2-10.6,20.9-9c-9.6,2.1-20.9,12.9-19.6,19.7c2.9-3.9,8.3-3.9,10.2-8.6c0.2-0.6,1.4-1,2.2-1.1
				c4-0.5,13.6,5.9,14.8,9.8c0.4,1.3,0.9,2.6,1.5,3.8c1.2,2.5,3.7,3.2,5.7,2.3c2.1-1,1.7-3.9,0.6-5.5c-2.1-3.3-3.8-6.5-3.7-11
				c3.5,1.6,6,3,5.7,7.6c-0.3,3.8,4.7,4.6,6.1,7.8c2,4.6,4.2,9,6.1,13.6c2.3,5.6,5.7,9.3,12.3,10.1c3.7,0.4,7.9,1.9,10.5,4.3
				c3.3,3,7.4,1.7,9,0.6c4.5-3.2,8.2-2.7,12.1,0c3.8,2.5,6.8,3.7,11.9,1.8c4.9-1.8,11.1-0.6,16.6,0c8.2,0.9,15.4-4.4,23.2-3.7
				c8.2,0.7,11.4-4.8,16.2-9.3c6.3-6,10.8-13.8,16.8-19.2c7.6-6.8,13.3-16.3,24.1-20.5c-0.5,5.3-3.2,9.6-6.7,12.4
				c-7.3,5.7-11.4,14.3-19,19.8c-2.2,1.6-2.1,4.6-0.9,6.9c1.3,2.6,3.8,2,6,1.4c4.7-1.4,9.5-2.1,9.8-9.2c0.2-5.1,3.2-3.3,5.9,0.2
				c-0.8-7.9,7.5-7.7,9.8-13c1.2-2.8,6.2-3.6,7-7.7c0.1-0.5,1.9-1.4,2.1-1.2c5.2,4.6,13.1,0.8,18.3,6c1.6,1.6,2,3.3,2.5,5.3
				c0.9,3.8,10.8,10.5,13.8,9c2.5-1.2,2.7-4,2.3-6.6c-0.2-1.7-2.1-3.9,0.2-4.9c2.3-1,3.3,1.9,4.3,3.4c4.2,6.2,7.3,13,9.8,20
				c1,2.8,1.8,5,5.8,6.2c3.8,1.1,5.5,6.8,8.5,10.2c2.3,2.7-2.4,4.9-4,3.6c-3.8-3.1-7.9-2-11.4-1.3c-6.8,1.3-12.8-1.9-19.2-2.4
				c-0.9-0.1-2.2-0.8-2.6-0.5c-4.6,4.6-9.5,4.9-14.7,1.2c-6.3,5.1-5.6-2.1-7.5-4.7c-1.6,3.1-0.4,16.3,1.4,17.9
				c1.1,1,2.6,1.7,3.7,0.8c2.5-2,3.5-0.2,4.9,1.3c2.6,2.8,6.1,3.8,9.8,4.2c4.8,0.6,10.2-2.5,14.2,2.5c0.1,0.1,0.5,0.1,0.7,0.1
				c5.9-2.3,11.7-3.3,17.6,0.2c0.2,0.1,0.5,0,0.6-0.1c8.1-6.1,20.4-6.6,24.3-18.4c1.5-4.6,6.1-2.6,7.9-1.5
				c7.7,4.9,15.5,2.2,23.5,1.7c9.4-0.5,12-6.5,15.4-13.8c3.5-7.6,4.6-15.8,8.2-23.3c1.1-2.2,2.2-4.4,5-3.4c3,1.2,7.7-0.3,8.6,5
				c1,6,2.3,12,3.2,18c0.6,3.8,0.6,7.5-1.7,11.1c-2.2,3.5-2.7,8.1-0.6,11.8c3.5,6.4,3.1,13.2,3.2,20c0.1,4.4-1.6,7.5-7.6,7.9
				c-8.1,0.5-15.2-1.5-22.4-4.4c-6.8-2.7-26.6,2.1-31.7,7.7c-1.1,1.2-2.2,1.5-3.5,1.4c-18.7-0.8-37.2,2.5-56.1,0.6
				c-12.6-1.2-25.6-0.3-38.5,1.8c-8.4,1.4-17.3-0.6-25.6,3.1c-1.1,0.5-2.4,0.3-3.8,1c-4.3,2.3-4.4,2.2-6.4-4.3
				c-3,8.5-9.6,9.3-16.1,9.1c-5.3-0.2-11.6,3.8-16.6-3.8c0.2,4.9-1.6,5.7-5.8,5.6c-7.8-0.2-15.6,1-23.4,1.5
				c-1.1,0.1-2.6,0.2-3.2-0.4c-9.6-8.5-20.9-4.8-31.7-4.5c-6.6,0.2-13.1-1.5-19.7-0.5c-6.6,1-13.2,0.7-19.8,2.5
				c-6.7,1.8-14,0.4-20.5-2.8c-4.1-2-8.1-4-12-6.4c-1.3-0.8-2.3-1.5-3.6-0.8c-4.8,2.7-8.9,0.4-13-1.7c-2.5-1.3-4.7-1.7-7-0.1
				c-8.1,5.6-16.8,8.2-26.9,7.7c-6.6-0.3-12.6-2.3-18.6-4.4c-9.4-3.3-16.1-20-12-29.2c0.8-1.8,0.7-4,1.3-5.9
				c0.9-2.8,2.7-4.8,6.1-3.9c3.1,0.8,3.8,3.4,3.3,5.9c-1.4,7,2,7.4,7.3,5.9c0.6-0.2,1.4-0.5,2-0.4c3.9,0.7,8.2,2.9,8.6-4.1
				c0.5-8.6-1.7-12.6-8.6-13.7c-3.9-0.6-7.7,0.2-3.1-5.7c2.5-3.2,3.9-8.2,2.9-13c-1.4-6.9,1.1-13.3,2.5-19.9
				C191.2,515.5,196.5,515.3,197.2,511z M457.5,568.2c1.8,0.7,3.7,1.4,4.1-1.5c0.3-2.2-0.5-3.4-3-3.3c-2.1,0.1-2.5-1.7-2.6-3.3
				c-0.5-5.7-4.8-5.9-8.9-6c-5.8-0.1-11.5,0.2-17.3,0c-2.9-0.1-5.1,0.5-6.2,3.1c-2.8,6.4-6.6,4.1-10.9,1.8
				c-4.4-2.4-9.5-6.2-13.8-5.6c-7.8,1-15.6-2.3-23.6,1.1c-3.2,1.3-6.4,5.2-11.2,3.8c-1.7-0.5-3.2,3.2-2.7,5.4c0.8,3.4,1,7.5,4.4,9.4
				c2.7,1.5,2.8-1.8,3.9-3.4c4-5.9,7.7-5.8,12.4-0.2c1.8,2.2,2.5,5.4,6.5,6.2c9.5,2,18.3,0.7,26.8-3.7c1-0.5,1.6-0.5,2.4,0
				c6.1,4.4,9.4,0.1,12.6-4.2c0.5-0.7,1-2.3,1.6-1.6c3.3,3.1,6.7,1,10.1,0.8c3.5-0.2,3.6,5,7.5,5C453,572,453.7,566.8,457.5,568.2z
				 M227.9,568.6c0.3-2.4-0.5-3.5-1.7-4.8c-3.7-4.1-12,2.3-13.8-6c-0.2,0.1-0.6,0.1-0.6,0.2c-1.9,4.8-8,6.3-9.3,11.2
				c-1.3,4.9,2,9,5.5,11.4c2.1,1.4,2.5,5.5,3.4,4.4c2.8-3.4,3.2-0.8,4,1c2.2,5.2,8.6,7.5,13.8,4.8c3-1.5,4.8-9.2,2.1-12.2
				C228.2,575.3,226.2,572.4,227.9,568.6z M326.8,570.7c-1.5-5.4,1.1-5.6,5.4-4c3.9,1.5,5.4-0.6,5.6-4.2c0.1-2.3,0.7-5.6-1.7-6
				c-4-0.6-7.7-5-11.9-1.6c-2,1.6-4.5,2.5-6.2,1.4c-4.8-2.8-7.3,1.6-7.7,3.6c-0.9,4.5-4.2,9.4-0.6,14.1c0.5,0.6,1.6,1.2,2.4,1.2
				c2.1-0.2,3.5,0.8,5.3,1.9C324.4,581,326.9,579.2,326.8,570.7z M306.8,552.3c-0.3-1.7-0.8-3.9-3.7-3.5c-3.3,0.5-7.9,0.4-7.4,5.5
				c0.3,2.8,2.8,5.2,6.1,5.3C306.3,559.6,306.4,556,306.8,552.3z M294.1,588.5c-1,2-0.5,3,1.6,3.4c2.7,0.5,1.7-1.7,2.4-2.9
				c2.3-4.3-0.4-5.8-3.5-7.4c-1.3-0.7-2.5-2.5-4-0.7c-1.6,2,0.3,2.7,1.6,3.5C293.9,585.3,295.3,586.4,294.1,588.5z M279.1,579.7
				c1.7-0.3,4.6,0.6,4.6-2.4c0-4.1-4-3.8-6.6-4.5c-2.3-0.6-2.7,2-2.9,3.7C274,580.1,276.7,579.7,279.1,579.7z M426.4,586
				c2.8-4.6,3.6-7.8,1.4-10.9c-1-1.4-2.4-0.5-3.4,0.5C420,579.9,426.5,581.4,426.4,586z M216.8,545.4c-2.7,3.1-6.1,4.2-4.2,7.9
				c0.6,1.1,2.1,2.4,3.2,1.4C218.4,552.6,217.3,549.6,216.8,545.4z"/>
			<path d="M213.8,500.9c-2.1,1.3-4.1,2.8-6.3,3.7c-1.4,0.5-3.8,1.9-4.8-0.4c-0.9-2.1,0.6-3.9,2.6-4.9c3.2-1.5,6-1,8.4,1.7
				L213.8,500.9z"/>
			<path d="M213.7,501c2.5,2.5,6.4,1.3,8.9,3.6c1,0.9,2.2,2,1.4,3.5c-0.6,1.1-2.2,1.1-3.1,0.5C218.1,506.5,212,507.4,213.7,501
				C213.8,500.9,213.7,501,213.7,501z"/>
		</g>
		<g>
			<rect x="100" y="100" fill="none" width="600" height="200"/>
			<path d="M166.5,135.8h59.6c33,0,45.5,17.2,45.5,34.9c0,15.4-8.2,25.4-17.4,29.6c9.2,3.5,21.3,13.2,21.3,31.1
				c0,23.4-18.3,40.9-47.4,40.9h-61.7V135.8z M222.7,189.6c14,0,19.8-6.3,19.8-15.9c0-10-7.6-15.2-19-15.2h-28.1v31H222.7z
				 M195.5,249.5h26.6c16,0,23.2-6.7,23.2-19c0-11-7.1-18-23.3-18h-26.5V249.5z"/>
			<path d="M285.3,197.6c0-10.2,0-19.2-0.2-27.8H313c0.4,2.3,0.7,12.5,0.7,18c4.5-11.7,15.5-20.3,32.9-20.4v27.1
				c-20.6-0.5-32.9,5-32.9,33.1v44.7h-28.4V197.6z"/>
			<path d="M447,220.8c0,31-18.6,53.8-51,53.8c-31.8,0-50.3-22.7-50.3-53.3c0-31.6,19.1-54,51.7-54C427.5,167.4,447,188.7,447,220.8
				z M374.5,221c0,19.7,8.5,31.4,22.2,31.4c13.9,0,21.6-11.7,21.6-31.2c0-21.4-7.9-31.6-22-31.6C383.1,189.6,374.5,199.4,374.5,221z
				"/>
			<path d="M485,213c7.5-10.2,21.1-26.1,35.3-43.2h32.5l-35.7,38.7l39.1,63.8H524l-25.9-45.6L485,239.4v32.9h-28.4V127.7H485V213z"
				/>
			<path d="M577,227.1c0,12.8,6.4,25.3,20.6,25.3c11.8,0,15.2-4.7,17.9-10.9h28.4c-3.6,12.5-14.8,33.1-47,33.1
				c-33.8,0-48.4-25.2-48.4-52.1c0-32.1,16.5-55.1,49.4-55.1c35.2,0,47.2,25.5,47.2,51c0,3.5,0,5.7-0.4,8.6H577z M616.6,209.7
				c-0.2-11.9-5-22-18.8-22c-13.6,0-19.1,9.4-20.2,22H616.6z"/>
		</g>
		<g>
			<rect x="100" y="300" fill="none" width="200" height="200"/>
			<path d="M204.9,442.9c3.1,9.7,9,16,22.9,16c23.4,0,26-28.4,26.9-46.9c-7,9.6-20.1,13.9-34.7,13.9c-34.3,0-53.7-23.4-53.7-53.3
				c0-32.5,22.6-57.3,61-57.3c46.9,0,62.9,36.2,62.9,77.2c0,46.7-12,94.4-64.1,94.4c-38.6,0-54.3-23.5-57.4-44H204.9z M202.8,370.8
				c0,16.9,9.8,27.2,25.4,27.2c16,0,24.7-8.2,24.7-26.4c0-11.1-4.6-28.2-25.2-28.2C211,343.4,202.8,355.4,202.8,370.8z"/>
		</g>
		<path d="M624.8,368.9c-9.8,1.4-19.5,5.2-29.8,6.4c-5.5,0.6-10.8,3.7-16.9,3c-2.8-0.3-5.2,4.5-3.9,7.2c0.8,1.5,1.3,3-0.6,3.7
			c-1.7,0.7-2.1-0.6-2.4-2.1c-0.9-4.1-4-3-6-1.6c-1.6,1-3.1,0.8-4.5,1.3c-8.7,3.1-18.7,2.8-24.4,12.8c-3,5.3-10.2,7.8-16.5,8.4
			c-6.2,0.5-11.9,4-18,3.3c-8.2-0.9-13.6,5.3-20.7,7.1c-3.1,0.8-4.9,2.9-1.4,6.1c2.1,1.9,3.4,4.5,5.6,6.6c4.4,4.2,8.8,3,12.9,1.4
			c9.3-3.5,19-5.7,28.3-9.2c8.4-3.2,14.6-9.4,22.7-12.5c4.1-1.6,7-3.9,9-8c1.2-2.5,3.2-5.9,7.2-5c5.1,1.1,7.3,5.2,9.4,9.4
			c4.7,9.6,16.1,15.6,25.1,7.3c3.8-3.5,6.4-8.7,4.4-14.4c-1.1-3.1-0.9-6.5-2.8-9.5c-1.3-2,3.2-7.4,6.9-8c5.9-0.9,11.1-4.1,17.5-3.5
			c3.5,0.3,7.4-1.8,10.9-3.2c2.4-1,3.1-3.5,2.7-5.9c-0.4-2.6-2.5-3.3-5-2.9C631.4,367.6,628.3,368.2,624.8,368.9z"/>
		<path d="M335.9,470.7c3.4-2.4,3.4-5.4,3-8.1c-1.3-8.4,1.4-16.5,2.6-24.6c0.7-4.8,3.4-9.6,8.7-11.9c2.9-1.2,5.5-2.9,8-5
			c3.7-3.2,8.3-1,12.4-1.3c6.5-0.5,12,3.2,17.4,6.5c6.2,3.8,9.9,8.9,11.1,16.2c0.6,3.8,1.4,8.2,6,10c1.7,0.7,2.7,2.6,1.9,4.1
			c-1.2,2.3-1.8,5.7-5.3,5.9c-4.3,0.2-7.2,2.7-10.4,5.1c-3.7,2.8-8.9,3.6-11.2,8.2c-0.1,0.2-0.7,0.4-0.8,0.3
			c-5.1-4.1-10.1,1.2-14.9,0.1c-8-1.7-16.8,0.4-24.2-4.8C339.3,470.9,338,471.1,335.9,470.7z"/>
	</g>
</g>
<g id="text" display="none">
</g>
<g id="guides" display="none">
</g>
</svg>
