<svg xmlns="http://www.w3.org/2000/svg" xml:space="preserve" viewBox="0 0 800 800"><path fill="none" d="M0 0h800v800H0z"/><path fill="none" d="M99.9 100.2h600v200h-600z"/><path d="M166.4 136H226c33 0 45.5 17.2 45.5 34.9 0 15.4-8.2 25.4-17.4 29.6 9.2 3.5 21.3 13.2 21.3 31.1 0 23.4-18.3 40.9-47.4 40.9h-61.7V136zm56.2 53.8c14 0 19.8-6.3 19.8-15.9 0-10-7.6-15.2-19-15.2h-28.1v31h27.3zm-27.3 59.9H222c16 0 23.2-6.7 23.2-19 0-11-7.1-18-23.3-18h-26.5v37zM285.2 197.8c0-10.2 0-19.2-.2-27.8h27.8c.4 2.3.7 12.5.7 18 4.5-11.7 15.5-20.3 32.9-20.4v27.1c-20.6-.5-32.9 5-32.9 33.1v44.7h-28.4v-74.7zM446.9 221c0 31-18.6 53.8-51 53.8-31.8 0-50.3-22.7-50.3-53.3 0-31.6 19.1-54 51.7-54 30.1.1 49.6 21.4 49.6 53.5zm-72.6.2c0 19.7 8.5 31.4 22.2 31.4 13.9 0 21.6-11.7 21.6-31.2 0-21.4-7.9-31.6-22-31.6-13.2 0-21.8 9.8-21.8 31.4zM484.9 213.2c7.5-10.2 21.1-26.1 35.3-43.2h32.5L517 208.7l39.1 63.8H524l-26-45.6-13.1 12.7v32.9h-28.4V128h28.4v85.2z"/><path d="M576.9 227.3c0 12.8 6.4 25.3 20.6 25.3 11.8 0 15.2-4.7 17.9-10.9h28.4c-3.6 12.5-14.8 33.1-47 33.1-33.8 0-48.4-25.2-48.4-52.1 0-32.1 16.5-55.1 49.4-55.1 35.2 0 47.2 25.5 47.2 51 0 3.5 0 5.7-.4 8.6h-67.7zm39.5-17.4c-.2-11.9-5-22-18.8-22-13.6 0-19.1 9.4-20.2 22h39z"/><path fill="none" d="M99.9 300.2h200v200h-200z"/><path d="M294.9 318.4v26.8c-26.3 37.2-52 91-58.5 139h-37.1c6.5-48.8 36.2-107.2 58.9-136.2h-78.1v-29.7h114.8zM686.6 397.9c-12.1.7-24.9 18-36 10-6.4-16.5-5.8-33.9-21.2-45.8-6.1-5.9-14.3-21.6-24-17.2-1.5 2.6.8 4.3 3 5.1 11 5.8 20 21.9 22 33.1-4.2 3.4-8.3-6.3-11.8-.2-2.5 4.1-4 2.4-5.5-.7-1-7.1-18.4-12.1-6.9-17.7 3.8-4.5-4-16.8-11.6-16.8-1 0-2.8-.6-2.6-2.5 19.1-.5-5.1-10.9-11.4-3.2 8.3 20.4-23.1 12-32.2 24.3-8.5 5-28.7-.1-29.8-12 8.3 9 15.4-2.3 17.7-9 2.8-2.5-2-5.5-3.6-2.6-22.7 10-34.6-35.2-59.5-26.7-15.9 2.5-32 21.7-46.5 6.3-12.3-15.3-66.2-5-52.3 22.2 6.1 7.6 18.1 7.8 26.3 15.1 11.5 4-4.5 10-1.5 15.8 8.1 3.1 14.6-10.2 21.7-13.6 6-1.7-6.2-15.7 4.9-10.1 2.1 5.9 18.7 5.7 11.1 12.4-12.3 4.6-13.8.6-19.5 12.7-3.4-2.4-18.1 4.5-10.9 8.8 2.5 6.5-11.4 10.1-16.5 11.8-7.8 3.8-6.8-1.8-10.9-5.9-9.1 12.8-21.6 26-30.6 40.6-6.8 6.1-4 12.5-7.8 19-7.9 3.4-6 11.3-8.8 17.2-9.7 11.6 12.9 24.7 16.7 9.2 2.8-6.9 15.2-4.1 10.2-15.5-.5-1.8.3-4.5-2.8-4.3-4.4-.9-5.8 2.7-7.4 6.2-3.1 5.5-10.7 1.2-8.1-4.5 19.5-37.9 11.1 14.2 21-10.4 12.9-16.2 30.5-31.9 43-46.1 9.8 2.8 17.4-13.5 26.7-3.5 7.2-1.3 13.1-.2 19.5 3.3 23.2 12.1-23.7 15.5-12.1 31.6.9 2 3.8 3.9-.4 6.3-6.7 21.9 38.4-3.2 22.3-4.3-23.6 4-16.5-10.3-2.2-19.5 2.5-9 12.7-1.9 9.9 5.6-.7 2.5-1.9 5.1 0 7.9 3.4-1.7 3.5-8.4 8.1-7 3.6 1.1 3.1-1.2 3.7-2.6 5.8-15.1 14.3 5 22.5 7.4 5.8 3.5 14.1-5 15.9 6.7 13.1 10.8 24.1 24.5 37.1 35.3 42.5 1.1 38.1 41.1 62.7 26.5 15.6-10.2-3-21.8-5.1-33.7 7.8-.5.4-44.2-8.7-41.3-3.6-1.4-2.6 2.3-2.7 4.3-5.2.3-9.3.3-11.1 6.7-8.4 12.2-29.1-17.1-31.2-28 1.2-15 32.7-24.5 36.4-6.1.9 4.8 3.5 9.5 8.4 11.3 35.4 8 19.4 43.6 42.4 34.9 8.9-8.3 19.4-8 29.7-11.7 13.8-6.3 40.9-34.5 10.3-35.1zm-330.5 33.6c-3-3 4.7-17.7 10.6-9.8 6.7 6.7-4.1 13.2-10.6 9.8zm12.2-17.4c-2.8-2.1-1.2-3.2.4-4.5 9-8.9 8.5 13.8-.4 4.5zm97.4-52.2c4.1 4.7-.5 13.1-7 7.1-5.2-3.6 1.5-14 7-7.1zM404.6 349c-.8 5.1-7.8 2.3-8.6-1.5 15.8-16.8.1-4.6-9.7-18.7 1.7-13.6 21.6-8 31.9-8 11.9 4.8 13.2 20.8 25 27.8-12.9-2.4-27.4-3.3-38.6.4zm74.8 39.9c-4.4.4-5.3 11.6-9.9 6.4-1.2-1.5-3.7-4.3-1.2-5.2 4.6-1.7 4.8-6.2 5.8-9.1 9.6-13.5 11.6-.3 5.3 7.9zm-18-40.7c-8.5.4-10.5-8.1-15.2-12.3.1-4.9 6.9-3.1 7.9-7.7.2-1.1 3.9 1 5.5 2.6-7.7 15-1.5 4.9 1.8 17.4zm4.9-19c-12.8-.1 9.5-12.8 15.3-4.2-.1 6.6 13.2 14.4 7.7 19.7-9.3 4.2 6.4 6.8 1.9 12.2-2.7 3.3-6.9.7-7.8-.5-19.8-10-6.8-31.5-17.1-27.2zm84.1 105.4c-10.1-6.2-6.6-22.7-21.8-20.7-9.7-4-17.4-15.9-27.3-21.8-15.4-23.7 36.4-37.5 26.5-12.6-4.4 4.3-2.8 7.2.6 11.3 10.6 14.2 72.2 57.5 22 43.8z"/><path d="M546.6 501.2c4.8.2 7.3 4.3 10.2 6.9 4.1 3.6 8.7 6.6 12.8 10.3 4.6 4.1 9.8 7.3 11.2 13.8 1.2 5.6 6.1 8.8 9.1 13.2 1.9 2.8 4.6 5.1 6.8 7.9 3.3 4.4 9.5 3.6 13.5 6.9.6.5 1.8.3 2.3.9 4.9 5.5 10.6 5.8 17.3 3.7 3.3-1 7.4 2 10.7-1.6.3-.3 1.8 0 2.3.4 3.3 2.9 5.5.6 7.5-1.7 1.5-1.8 3.5-3 5.4-4.3 4-2.9 3.8-7.4 3.7-11.7-.3-8.2 3.6-14.5 8.8-20.3.9-1 1.9-1.1 3.1-.8 3.9.8 9.7 6.4 10 10.3.8 10.2 2.2 20.3.4 30.6-.9 4.8 1.1 10.1 1.9 15.1.8 5-2 8.3-6.9 7.7-1-.1-2.1-.4-3-.1-5.9 2.3-11.3-.6-16.9-1.7-7.3-1.4-14.5-.9-21.8.8-12.4 2.9-23.4 10.2-35.9 12.4-5 .9-10.7 2.8-16-.1-.7-.4-1.8-.6-2.4-.3-6.2 3.5-13.1.7-19.6 1.9-4.5.9-9.2.4-13.3 3-2.3 1.5-5.5 1.3-7.6 1.1-5-.4-8 2.6-11.5 4.6-5.9 3.4-12.7 3.7-18.9 5.6-2.3.7-5.1-1.5-7.3 2-.9 1.5-2.9-.8-4.4-1.2-8.5-2.3-16.9-4.6-25.4-6.8-2.8-.7-5.1.4-5.5 3.5-.7 4.5-3.9 7.7-5.9 11.5-.6 1.2-1.5 1.7-2.8 1.7-2.3-.1-4.2.9-5.8 2.5-1 1-2.2 1.6-3.5 1.6-7.4.2-14.4 2.2-21.6 3.6-5 1-11.6.4-17-1.3-3.2-1-6.4-.9-9.6-1.4-3.3-.6-6.6-.4-8.5-3.9-.5-.9-1.6-1.1-2.7-.9-9.5 1.8-15.4-2.7-19.3-11-3.3-6.9-10.2-8.5-16.6-4.3-2.1 1.4-4.3 2-6.6 1.8-2.8-.3-5.3 1.5-7.5 1.5-5 0-10.3 2.5-15.2-.9-2.4-1.6-4.8-3.4-8-3.6-3.2-.2-5.1-3.2-6.2-5.3-1.8-3.4-4.6-5.4-7.1-7.9-4.5-4.5-5.3-10.5-5.7-16.5-.2-3.1 3.8-4.9 7.3-3 3 1.7 4.9 1.1 7.5-.6 4.8-3.1 7.2-1.6 7.6 4.1.4 6.3.8 6.7 7 5.4 2.9-.6 3.5.5 3.5 3.1 0 3.5 1.8 5 5.2 3.8 4-1.4 9 .9 12.4-3.3.7-.8 2.9-.6 4.1.6 1 1 .9 2.1 0 3.1-1 1.1-2.3 2.3-.9 3.8 1.1 1.3 2.4 2.4 4.3 1.8 2-.6 4-1.8 4-4 0-5.2 2-9.6 4.6-13.9 1-1.6 1.5-3.2 3.5-3.9 1.4-.5 2.2-1.6 1.6-3.1-.5-1.5-1.6-1.9-3.2-1.5-3.2.8-4-1.7-5-3.7-.8-1.5-1.1-3.6.3-4.7 1.4-1.1 2.1 1.1 3.2 1.6 2 .9 4.5.9 6.4 3-.9-2.7.5-4 2.2-5.3 5.1-4 5.7-8.8 1.9-14.1-1.7-2.4-3.2-5.1-5.1-7.4-3.2-3.8-6.3-3.6-8.2.8-2.5 5.9-7.3 11.1-5.5 18.5.5 2.1-.5 4.2-3.5 3.2-1.7-.6-3.3.5-4.9.4-3.7-.2-7-.8-7.3-5.5-.2-3-1.9-3.8-4.5-2.7-3.3 1.5-4.3-.1-4.5-3-.2-2.8 0-5.6 1.1-8.3.9-2.3 2.1-3.7 4.9-3 3.4.9 5.4-1 6.6-3.8 2.2-4.9 4.1-9.8 6.5-14.6 2-3.9 4.1-7.9 6.8-11.3 2.1-2.6 4.9-3.1 7.5.3 2.5 3.3 5.8 5.9 5.8 10.6 0 .8.9 2.1 1.7 2.3 6.1 1.9 12 4.8 18.6 4.6 3.5-.1 4.5-2.2 2.1-4.9-2.9-3.2-4.9-7.5-9.9-8.6-3-.7-4.7-3.6-6.9-5.6-1-1-1.5-2.2-.9-3.6s1.8-1.8 3.2-1.9c4.5-.3 8.1 1.9 9.7 5.8 3.8 8.8 10.2 15.3 17 21.5.5.4 1.1.8 1.5 1.3 3.8 3.6 13.9 9.4 18.7 10.6 4.6 1.1 9.4-.7 14.2 1.1 2.5.9 4.7-2.3 6.4-4.2 2.6-3 6.2-3.2 8.6-2 6.3 3.2 13.6 4.5 19.8 10.9-1.4-4.3-.3-6.2 2.3-8.1 4.9-3.6 6.6-9.9 10.9-14.2 5.4-5.4 10-11.3 14.8-17.2 1.4-1.6 2.8-3.2 4.2-4.9 2.4-3.1 4.7-6.4 9.4-6.4 1.2 0 3.2-1.2 3.6-2.2 2.5-6.9 9.3-5.5 13.6-5.4 4.8 0 10.6 2.5 13.6 7.8.1.1 0 .3 0 .5-3.1.2-5.8-1.3-8.6-2.3-4.3-1.6-8.3-3.8-11.5 1.8-.6 1.1-2.1.7-3.2 1-1.9.5-4.4.5-5.6 1.7-5.7 5.4-11 11.2-16.7 16.7-3.4 3.2-3.8 9-9.4 10.4-2.7.7-3 3.5-2.7 5.8.3 2.2 1.1 4.3 1.9 7.6.9-4.3 5-4.4 5.6-7.7.5-2.9 2.7-2.7 5-2.3 2.1.3 3.5 1.8 5.3 2.7 3.1 1.6 5 .1 4.2-2.7-1-3.8.6-6.5 2.4-9 2.7-3.5 2.9-8.7 7-11.1 2.4-1.4 4.4-2.6 5-5.6.5-2.3 2.1-2.4 3.6-.6 1.1 1.3 1.9 2.7 2.8 4.1 2.2 3.5 4.3 6.4 9.5 5.2 2.5-.6 6.4 1.4 7 3.6 1.5 5.5 5.8 5.4 9.8 6.7 3 1 4.9.3 6.2-2.2 1.3-2.4 1.4-4.8-1.1-6.6-3.2-2.3-6.3-4.7-9.5-6.8-4-2.6-7.2-5.4-7.4-10.2zm-43.8 88.2c1.3-.3 2.6-.7 3.8-.7 5.8 0 9.7-4.7 15.2-5.6 5.6-.9 6-3.5 2-7.8-.9-.9-3.2-1.5-1.3-3.3 1.4-1.4 2.9-1.2 4.4.3 1.9 2 4.6 2.1 7 1.5 6.8-1.9 13.7-2.7 20.7-3.1 3.2-.2 5-2.3 5.7-5.3-2.9-.6-3.5-5.5-7.6-4.1-7.7 2.6-15.4 2.6-23-.6-1.2-.5-2.9-1.3-3.8-.9-7.6 3.9-15.5-3.2-23.1.6-.3.2-1-.1-1.4-.3-6-3-12.7-1.5-18.9-2.9-1.7-.4-5.3-1.4-5.1 3.1.1 2.1-2.1 2.4-3.3 1.6-3.3-2.2-5.4-.1-7.1 2-2.2 2.7-1.9 6.9.4 8.1 4 2.1 6.2 6.5 11.7 7.4 3.9.6 7.3 5.3 12.4 4.2.2 0 .5.4.7.7 1.8 5.2 6.8 3.7 10.6 5.1zm-109.7 4.4c-3.6.3-4.9-2.1-6.6-3.8-.7-.7-.3-1.7.5-2.1 8.5-3.9 9.9-13 14.6-19.6 1-1.5.8-3.7-.7-5.1-1.4-1.3-2.8-.2-4.2.4-4.6 2.2-7 6.8-8.6 10.9-2.4 6.2-7.8 9.1-12.3 12.8-3.5 2.9-6.6 11.3-3.1 14.3 4.6 3.8 8 11.7 16.4 6.7.4-.3 1.3.3 1.9.3 6.1.2 10.1 3.6 13.4 8.4.7 1.1 1.5 2.5 3.1 2.1 2-.5 1.3-2.4 1.4-3.8.1-.7-.1-1.3 0-2 .2-1.5-1.6-3.5.5-4.5 1.6-.8 3.1.8 4.6 1.3 2.6.9 3.2 6.1 7.1 3.8 2.9-1.7 1.6-5.5 2.6-8.3.1-.3.3-.6.3-.9.4-6.7-2.3-10.8-9.1-8.6-4.3 1.4-7.9-.5-11.5-.9-3.4-.6-6.8-3.7-10.3-1.4zm216.5-25.1c-4.1-1.4-7.2-3.1-11.3-3.2-3.5-.1-6.8 1.4-10 .9-4.9-.7-9.7-2-14.6-2.5-2.9-.3-7.9 2.9-6.8 5.3 1.6 3.5 7.4 4.5 6.3 10.1 0 .1 1.7.5 2.7.8 5.8 1.8 11.8 1.7 17.7 2.3 7.8.8 11.5-1.8 13.1-9.7.2-1.7 1.2-2.6 2.9-4zm-146.7-10.2c-1.8-3.4-3.8-7.5-6-11.5-1.3-2.4-3.2-4.4-6.3-4-3.3.4-3.3 3.3-3.7 5.7-.4 2.7-1.3 3.8-3.8 1.8-1-.8-2-1.4-3.1-.4-1.1 1-1.3 2.3-.7 3.6 1.4 3.4 2.8 6.7 4.3 10 1 2.1 2.8 3.3 5.3 2.9 1.5-.2 2.9-.1 4.4.3 3.4.9 9.7-4.1 9.6-8.4zm-25.8 47.4c-2.9.1-5 1.7-5.9 4.8-.7 2.2.1 4.1 1.8 5.3 2.5 1.8 4.9.5 6.7-1.2 2.7-2.6 5.7-4.5 9.5-5 2.2-.3 3-1.7 3-3.8.1-4.9-.7-9.7 2.6-14.3 1.8-2.5-.9-5.2-3.7-5.9-2.9-.7-2.5 2-2.5 3.6-.1 1.9-.8 2.3-2.7 2.5-4.8.5-5.9 3.1-4.3 7.7.8 2.4 5.2 3.7 3.2 6.5-1.9 2.8-4.9-.5-7.7-.2zm-12.7-29.2c1.9 0 2.9.1 3.9 0 4.3-.5 7.6-4.2 7.8-8.3.3-5.4-3.8-4.7-7.1-5.4-1.4-.3-2.6.1-3.9.2-4.5.5-8.7 5-8 9.1.7 4.7 4.9 3.9 7.3 4.4zM549 557.5c.7 0 1.3-.2 2-.1 1.9.2 3.9.4 4.1-2.2.2-2.2-1.4-2.7-3.3-2.8-2-.1-2.6-1.8-3.7-3-6.4-6.8-9.5-6.6-15.7.2-3 3.3-1.1 5.2 1.6 5.5 5 .7 9.8 3.1 15 2.4zm-121.6-.2c3.1 1.2 4 .2 4.7-1.3.4-.9 1-1.8.1-2.7-1.1-1.2-2.4-.8-3.6-.2-1.4.7-3 2-4.5.4-3-3.2-6.1-2.3-9.5-.8-1.9.8-4.8 2.5-6 .9-5.3-6.9-7.1-5-7.1 2.5 0 1.2-3.6.5-1.1 2.6 1.4 1.2 2.4 2.1 4.7 1.5 7.7-2.2 15.5-3.5 22.3-2.9zM247.4 616.2c-2.4-3.4-5.4-3.4-8.1-3-8.4 1.3-16.5-1.4-24.6-2.6-4.8-.7-9.6-3.4-11.9-8.7-1.2-2.9-2.9-5.5-5-8-3.2-3.7-1-8.3-1.3-12.4-.5-6.5 3.2-12 6.5-17.4 3.8-6.2 8.9-9.9 16.2-11.1 3.8-.6 8.2-1.4 10-6 .7-1.7 2.6-2.7 4.1-1.9 2.3 1.2 5.7 1.8 5.9 5.3.2 4.3 2.7 7.2 5.1 10.4 2.8 3.7 3.6 8.9 8.2 11.2.2.1.4.7.3.8-4.1 5.1 1.2 10.1.1 14.9-1.7 8 .4 16.8-4.8 24.2-.6.8-.4 2.2-.7 4.3zm-32.9-20.5c2.5-5.8 7.6-6.5 12-8 2.6-.9 5.3-1.1 4.4-5-.4-1.9 1.4-2.8 2.8-3.7 6.9-4.1 6.6-4 2.8-11.2-1.8-3.4-4.2-4.2-7.2-3.2-2.1.6-3.8.7-5.7-.3-3.4-1.9-5.6.4-6 3-.9 6.4-4.5 10.9-8.8 15.2-.7.7-.7 1.6-.4 2.3 1.9 3.6 6.2 6 6.1 10.9z"/><path d="M391.1 451.9c9.9-.5 20.1 1.4 30.5.7 5.6-.4 11.3 1.6 17.1-.2 2.7-.9 5.9 3.4 5.1 6.4-.4 1.7-.7 3.2 1.2 3.6 1.8.4 1.9-.9 2-2.5.1-4.2 3.3-3.7 5.6-2.7 1.7.7 3.2.2 4.7.5 9.1 1.5 18.9-.7 26.4 8.1 4 4.6 11.4 5.8 17.7 5.2 6.2-.6 12.4 1.7 18.3-.1 7.9-2.5 14.4 2.7 21.7 3.1 3.2.2 5.3 2 2.5 5.8-1.7 2.3-2.5 5.1-4.2 7.5-3.5 4.9-8.1 4.6-12.4 3.8-9.8-1.7-19.7-2.1-29.5-3.8-8.9-1.5-16.1-6.5-24.6-8.1-4.3-.8-7.6-2.5-10.4-6.2-1.6-2.2-4.2-5.2-8-3.6-4.8 2-6.2 6.5-7.5 11-2.8 10.3-12.9 18.3-23.3 11.9-4.4-2.7-7.9-7.3-7-13.3.5-3.3-.3-6.6 1-9.8.9-2.2-4.5-6.7-8.2-6.6-5.9.2-11.7-1.9-17.8-.2-3.4 1-7.6-.4-11.3-1.1-2.5-.5-3.7-2.9-3.8-5.3-.1-2.6 1.9-3.8 4.3-3.8 3.2-.4 6.4-.3 9.9-.3z"/></svg>