<svg xmlns="http://www.w3.org/2000/svg" xml:space="preserve" viewBox="0 0 800 800"><path fill="none" d="M0 0h800v800H0z"/><path fill="none" d="M99.9 100.2h600v200h-600z"/><path d="M166.4 136H226c33 0 45.5 17.2 45.5 34.9 0 15.4-8.2 25.4-17.4 29.6 9.2 3.5 21.3 13.2 21.3 31.1 0 23.4-18.3 40.9-47.4 40.9h-61.7V136zm56.2 53.8c14 0 19.8-6.3 19.8-15.9 0-10-7.6-15.2-19-15.2h-28.1v31h27.3zm-27.3 59.9H222c15.9 0 23.2-6.7 23.2-19 0-11-7.1-18-23.3-18h-26.5v37zM285.2 197.8c0-10.2 0-19.2-.2-27.8h27.8c.4 2.3.7 12.5.7 18 4.5-11.7 15.5-20.3 32.9-20.4v27.1c-20.6-.5-32.9 5-32.9 33.1v44.7h-28.4v-74.7zM446.9 221c0 31-18.6 53.8-51 53.8-31.8 0-50.3-22.7-50.3-53.3 0-31.6 19.1-54 51.7-54 30.1.1 49.6 21.4 49.6 53.5zm-72.6.2c0 19.7 8.5 31.4 22.2 31.4 13.9 0 21.6-11.7 21.6-31.2 0-21.4-7.9-31.6-22-31.6-13.2 0-21.8 9.8-21.8 31.4zM484.9 213.2c7.5-10.2 21.1-26.1 35.3-43.2h32.5L517 208.7l39.1 63.8H524l-26-45.6-13.1 12.7v32.9h-28.4V128h28.4v85.2z"/><path d="M576.9 227.3c0 12.8 6.4 25.3 20.6 25.3 11.8 0 15.2-4.7 17.9-10.9h28.4c-3.6 12.5-14.8 33.1-47 33.1-33.8 0-48.4-25.2-48.4-52.1 0-32.1 16.5-55.1 49.4-55.1 35.2 0 47.2 25.5 47.2 51 0 3.5 0 5.7-.4 8.6h-67.7zm39.5-17.4c-.2-11.9-5-22-18.8-22-13.6 0-19.1 9.4-20.2 22h39zM388.6 504.2c4.8.2 7.3 4.3 10.2 6.9 4.1 3.6 8.7 6.6 12.8 10.3 4.6 4.1 9.8 7.3 11.2 13.8 1.2 5.6 6.1 8.8 9.1 13.2 1.9 2.8 4.6 5.1 6.8 7.9 3.3 4.4 9.5 3.6 13.5 6.9.6.5 1.8.3 2.3.9 4.9 5.5 10.6 5.8 17.3 3.7 3.3-1 7.4 2 10.7-1.6.3-.3 1.8 0 2.3.4 3.3 2.9 5.5.6 7.5-1.7 1.5-1.8 3.5-3 5.4-4.3 4-2.9 3.8-7.4 3.7-11.7-.3-8.2 3.6-14.5 8.8-20.3.9-1 1.9-1.1 3.1-.8 3.9.8 9.7 6.4 10 10.3.8 10.2 2.2 20.3.4 30.6-.9 4.8 1.1 10.1 1.9 15.1.8 5-2 8.3-6.9 7.7-1-.1-2.1-.4-3-.1-5.9 2.3-11.3-.6-16.9-1.7-7.3-1.4-14.5-.9-21.8.8-12.4 2.9-23.4 10.2-35.9 12.4-5 .9-10.7 2.8-16-.1-.7-.4-1.8-.6-2.4-.3-6.2 3.5-13.1.7-19.6 1.9-4.5.9-9.2.4-13.3 3-2.3 1.5-5.5 1.3-7.6 1.1-5-.4-8 2.6-11.5 4.6-5.9 3.4-12.7 3.7-18.9 5.6-2.3.7-5.1-1.5-7.3 2-.9 1.5-2.9-.8-4.4-1.2-8.5-2.3-16.9-4.6-25.4-6.8-2.8-.7-5.1.4-5.5 3.5-.7 4.5-3.9 7.7-5.9 11.5-.6 1.2-1.5 1.7-2.8 1.7-2.3-.1-4.2.9-5.8 2.5-1 1-2.2 1.6-3.5 1.6-7.4.2-14.4 2.2-21.6 3.6-5 1-11.6.4-17-1.3-3.2-1-6.4-.9-9.6-1.4-3.3-.6-6.6-.4-8.5-3.9-.5-.9-1.6-1.1-2.7-.9-9.5 1.8-15.4-2.7-19.3-11-3.3-6.9-10.2-8.5-16.6-4.3-2.1 1.4-4.3 2-6.6 1.8-2.8-.3-5.3 1.5-7.5 1.5-5 0-10.3 2.5-15.2-.9-2.4-1.6-4.8-3.4-8-3.6-3.2-.2-5.1-3.2-6.2-5.3-1.8-3.4-4.6-5.4-7.1-7.9-4.5-4.5-5.3-10.5-5.7-16.5-.2-3.1 3.8-4.9 7.3-3 3 1.7 4.9 1.1 7.5-.6 4.8-3.1 7.2-1.6 7.6 4.1.4 6.3.8 6.7 7 5.4 2.9-.6 3.5.5 3.5 3.1 0 3.5 1.8 5 5.2 3.8 4-1.4 9 .9 12.4-3.3.7-.8 2.9-.6 4.1.6 1 1 .9 2.1 0 3.1-1 1.1-2.3 2.3-.9 3.8 1.1 1.3 2.4 2.4 4.3 1.8 2-.6 4-1.8 4-4 0-5.2 2-9.6 4.6-13.9 1-1.6 1.5-3.2 3.5-3.9 1.4-.5 2.2-1.6 1.6-3.1-.5-1.5-1.6-1.9-3.2-1.5-3.2.8-4-1.7-5-3.7-.8-1.5-1.1-3.6.3-4.7 1.4-1.1 2.1 1.1 3.2 1.6 2 .9 4.5.9 6.4 3-.9-2.7.5-4 2.2-5.3 5.1-4 5.7-8.8 1.9-14.1-1.7-2.4-3.2-5.1-5.1-7.4-3.2-3.8-6.3-3.6-8.2.8-2.5 5.9-7.3 11.1-5.5 18.5.5 2.1-.5 4.2-3.5 3.2-1.7-.6-3.3.5-4.9.4-3.7-.2-7-.8-7.3-5.5-.2-3-1.9-3.8-4.5-2.7-3.3 1.5-4.3-.1-4.5-3-.2-2.8 0-5.6 1.1-8.3.9-2.3 2.1-3.7 4.9-3 3.4.9 5.4-1 6.6-3.8 2.2-4.9 4.1-9.8 6.5-14.6 2-3.9 4.1-7.9 6.8-11.3 2.1-2.6 4.9-3.1 7.5.3 2.5 3.3 5.8 5.9 5.8 10.6 0 .8.9 2.1 1.7 2.3 6.1 1.9 12 4.8 18.6 4.6 3.5-.1 4.5-2.2 2.1-4.9-2.9-3.2-4.9-7.5-9.9-8.6-3-.7-4.7-3.6-6.9-5.6-1-1-1.5-2.2-.9-3.6s1.8-1.8 3.2-1.9c4.5-.3 8.1 1.9 9.7 5.8 3.8 8.8 10.2 15.3 17 21.5.5.4 1.1.8 1.5 1.3 3.8 3.6 13.9 9.4 18.7 10.6 4.6 1.1 9.4-.7 14.2 1.1 2.5.9 4.7-2.3 6.4-4.2 2.6-3 6.2-3.2 8.6-2 6.3 3.2 13.6 4.5 19.8 10.9-1.4-4.3-.3-6.2 2.3-8.1 4.9-3.6 6.6-9.9 10.9-14.2 5.4-5.4 10-11.3 14.8-17.2 1.4-1.6 2.8-3.2 4.2-4.9 2.4-3.1 4.7-6.4 9.4-6.4 1.2 0 3.2-1.2 3.6-2.2 2.5-6.9 9.3-5.5 13.6-5.4 4.8 0 10.6 2.5 13.6 7.8.1.1 0 .3 0 .5-3.1.2-5.8-1.3-8.6-2.3-4.3-1.6-8.3-3.8-11.5 1.8-.6 1.1-2.1.7-3.2 1-1.9.5-4.4.5-5.6 1.7-5.7 5.4-11 11.2-16.7 16.7-3.4 3.2-3.8 9-9.4 10.4-2.7.7-3 3.5-2.7 5.8.3 2.2 1.1 4.3 1.9 7.6.9-4.3 5-4.4 5.6-7.7.5-2.9 2.7-2.7 5-2.3 2.1.3 3.5 1.8 5.3 2.7 3.1 1.6 5 .1 4.2-2.7-1-3.8.6-6.5 2.4-9 2.7-3.5 2.9-8.7 7-11.1 2.4-1.4 4.4-2.6 5-5.6.5-2.3 2.1-2.4 3.6-.6 1.1 1.3 1.9 2.7 2.8 4.1 2.2 3.5 4.3 6.4 9.5 5.2 2.5-.6 6.4 1.4 7 3.6 1.5 5.5 5.8 5.4 9.8 6.7 3 1 4.9.3 6.2-2.2 1.3-2.4 1.4-4.8-1.1-6.6-3.2-2.3-6.3-4.7-9.5-6.8-4-2.6-7.2-5.4-7.4-10.2zm-43.8 88.2c1.3-.3 2.6-.7 3.8-.7 5.8 0 9.7-4.7 15.2-5.6 5.6-.9 6-3.5 2-7.8-.9-.9-3.2-1.5-1.3-3.3 1.4-1.4 2.9-1.2 4.4.3 1.9 2 4.6 2.1 7 1.5 6.8-1.9 13.7-2.7 20.7-3.1 3.2-.2 5-2.3 5.7-5.3-2.9-.6-3.5-5.5-7.6-4.1-7.7 2.6-15.4 2.6-23-.6-1.2-.5-2.9-1.3-3.8-.9-7.6 3.9-15.5-3.2-23.1.6-.3.2-1-.1-1.4-.3-6-3-12.7-1.5-18.9-2.9-1.7-.4-5.3-1.4-5.1 3.1.1 2.1-2.1 2.4-3.3 1.6-3.3-2.2-5.4-.1-7.1 2-2.2 2.7-1.9 6.9.4 8.1 4 2.1 6.2 6.5 11.7 7.4 3.9.6 7.3 5.3 12.4 4.2.2 0 .5.4.7.7 1.8 5.2 6.8 3.7 10.6 5.1zm-109.7 4.4c-3.6.3-4.9-2.1-6.6-3.8-.7-.7-.3-1.7.5-2.1 8.5-3.9 9.9-13 14.6-19.6 1-1.5.8-3.7-.7-5.1-1.4-1.3-2.8-.2-4.2.4-4.6 2.2-7 6.8-8.6 10.9-2.4 6.2-7.8 9.1-12.3 12.8-3.5 2.9-6.6 11.3-3.1 14.3 4.6 3.8 8 11.7 16.4 6.7.4-.3 1.3.3 1.9.3 6.1.2 10.1 3.6 13.4 8.4.7 1.1 1.5 2.5 3.1 2.1 2-.5 1.3-2.4 1.4-3.8.1-.7-.1-1.3 0-2 .2-1.5-1.6-3.5.5-4.5 1.6-.8 3.1.8 4.6 1.3 2.6.9 3.2 6.1 7.1 3.8 2.9-1.7 1.6-5.5 2.6-8.3.1-.3.3-.6.3-.9.4-6.7-2.3-10.8-9.1-8.6-4.3 1.4-7.9-.5-11.5-.9-3.4-.6-6.8-3.7-10.3-1.4zm216.5-25.1c-4.1-1.4-7.2-3.1-11.3-3.2-3.5-.1-6.8 1.4-10 .9-4.9-.7-9.7-2-14.6-2.5-2.9-.3-7.9 2.9-6.8 5.3 1.6 3.5 7.4 4.5 6.3 10.1 0 .1 1.7.5 2.7.8 5.8 1.8 11.8 1.7 17.7 2.3 7.8.8 11.5-1.8 13.1-9.7.2-1.7 1.2-2.6 2.9-4zm-146.7-10.2c-1.8-3.4-3.8-7.5-6-11.5-1.3-2.4-3.2-4.4-6.3-4-3.3.4-3.3 3.3-3.7 5.7-.4 2.7-1.3 3.8-3.8 1.8-1-.8-2-1.4-3.1-.4-1.1 1-1.3 2.3-.7 3.6 1.4 3.4 2.8 6.7 4.3 10 1 2.1 2.8 3.3 5.3 2.9 1.5-.2 2.9-.1 4.4.3 3.4.9 9.7-4.1 9.6-8.4zm-25.8 47.4c-2.9.1-5 1.7-5.9 4.8-.7 2.2.1 4.1 1.8 5.3 2.5 1.8 4.9.5 6.7-1.2 2.7-2.6 5.7-4.5 9.5-5 2.2-.3 3-1.7 3-3.8.1-4.9-.7-9.7 2.6-14.3 1.8-2.5-.9-5.2-3.7-5.9-2.9-.7-2.5 2-2.5 3.6-.1 1.9-.8 2.3-2.7 2.5-4.8.5-5.9 3.1-4.3 7.7.8 2.4 5.2 3.7 3.2 6.5-1.9 2.8-4.9-.5-7.7-.2zm-12.7-29.2c1.9 0 2.9.1 3.9 0 4.3-.5 7.6-4.2 7.8-8.3.3-5.4-3.8-4.7-7.1-5.4-1.4-.3-2.6.1-3.9.2-4.5.5-8.7 5-8 9.1.7 4.7 4.9 3.9 7.3 4.4zM391 560.5c.7 0 1.3-.2 2-.1 1.9.2 3.9.4 4.1-2.2.2-2.2-1.4-2.7-3.3-2.8-2-.1-2.6-1.8-3.7-3-6.4-6.8-9.5-6.6-15.7.2-3 3.3-1.1 5.2 1.6 5.5 5 .7 9.8 3.1 15 2.4zm-121.6-.2c3.1 1.2 4 .2 4.7-1.3.4-.9 1-1.8.1-2.7-1.1-1.2-2.4-.8-3.6-.2-1.4.7-3 2-4.5.4-3-3.2-6.1-2.3-9.5-.8-1.9.8-4.8 2.5-6 .9-5.3-6.9-7.1-5-7.1 2.5 0 1.2-3.6.5-1.1 2.6 1.4 1.2 2.4 2.1 4.7 1.5 7.7-2.2 15.5-3.5 22.3-2.9zM574.2 447.9c5.1-2.2 10.2-4.6 15.4-6.6 2.1-.9 4.5-1.1 6.9-.9 6.9.6 12.7-2.8 15.9-9.5.6-1.2 1.6-1.9 2.6-2.1 5.1-1.1 9.9-3.7 15.3-3.7 2.7 0 4.6-.8 5.1-3.6.5-3-.9-5.4-3.4-6.6-2-1-4.6-1.4-6 1.4-.5 1-1.4 2.3-2.5 2.2-5.4-.6-9.3 3.1-14.1 4.4-.3.1-.7.4-.9.3-5.7-2.9-10 2.1-15 2.8-5.7.8-11.8.6-17.2 2.4-6 2.1-12.1 3-18.1 4.9-.8.3-1.6.8-2.4.8-10.5-.6-19.4 5-29 7.6-5.7 1.5-12 1.9-18 2.5-4.6.5-8.7 2.9-13.5 3.3-4.6.3-8.5 6.3-7.2 10.8.9 3-.6 4-2.4 4.4-6.9 1.6-12.9 5.7-20.3 6.4-5.6.5-11.3 2.3-16.8 3.9-2.6.8-5.2 1-7.8.9-2.7-.1-5.6.2-6.5 3.3-1 3.4-.7 6.7 2.7 8.9 7.8 5.1 16.7 9.6 25.6 6.4 7-2.5 14.7-3.8 21.3-8.4 4-2.8 9.4-4.7 14.5-5.8 6.4-1.3 11.6-4.3 16.2-8.7 2.2-2.1 5-2.9 7.8-2.5 2.4.4 2 2.9 2.5 4.9.9 3.9 4.5 3.9 7.5 4.6 4 1 6-1.9 8-4.6.2-.3.2-.6.3-.9 3.1-8.5 3.1-8.5 12.9-7.7.6.1 1.7 0 1.9-.3 3.3-5.5 6.7-1.7 9.2.4 4.6 3.8 10.3 5.3 15.2 8.4 3.2 2 7.1.3 10.4-4.3 2.3-3.2 1.6-6.5-1.1-8.4-5.2-3.7-8.1-10.2-15-11.3zM372.1 416.1c-2.9 3-2.3 5.9-1.4 8.5 2.9 8 1.7 16.5 2.1 24.7.2 4.9-1.5 10.1-6.3 13.4-2.6 1.8-4.9 3.9-6.9 6.5-3 3.9-7.9 2.6-11.9 3.7-6.3 1.8-12.4-.9-18.4-3.1-6.8-2.5-11.4-6.8-14-13.8-1.3-3.7-2.9-7.8-7.8-8.7-1.8-.3-3.1-2.1-2.6-3.7.8-2.5.6-6 4.1-6.9 4.1-1 6.5-4 9.2-7 3.1-3.5 8-5.2 9.5-10.2.1-.2.6-.5.7-.4 5.8 3 9.7-3.1 14.6-3 8.2.1 16.5-3.6 24.7.1 1 .4 2.2 0 4.4-.1zm-13.9 36.2c-6.2-1.4-7.8-6.2-10.1-10.3-1.4-2.4-2.1-5-5.8-3.3-1.8.8-3.1-.8-4.2-2-5.4-6-5.2-5.7-11.5-.6-3 2.5-3.3 4.9-1.8 7.7 1 1.9 1.4 3.6.8 5.6-1.2 3.7 1.5 5.4 4 5.3 6.5-.3 11.6 2.4 16.6 5.7.8.6 1.7.4 2.3-.1 3.4-2.5 4.9-7.1 9.7-8z"/></svg>