<svg xmlns="http://www.w3.org/2000/svg" xml:space="preserve" viewBox="0 0 800 800"><path fill="none" d="M0 0h800v800H0z"/><path d="M624.1 613.5c-6.5-1.3-13.1-2.2-19.4-4.1-9.7-2.8-19.1-1.5-27.5 2.9-6.9 3.6-14.1 3.4-21.1 4.4-8 1.1-16.2-1.2-24.3-.1-2 .3-4.3-.6-6.3-1.1-4.6-1.3-9.1-1.9-13.8-.8-2.3.5-4.7.6-6.9-.2-5.8-2.2-11.9-1.8-17.8-1.2-5.3.5-10.6.6-15.9.8-1.6.1-3.4.2-4.9.7-15.1 4.8-30.3 8.1-46.3 6.5-5.4-.5-11-.3-16.3.5-7.9 1.2-15.5.3-23.2-.9-3.8-.6-5.6-4.3-9.5-5.1-7.3-1.5-14.5-1.7-21.8-1.8-12.1-.2-24.1.4-36.1 1-9.9.5-18.6-3.5-27-7.3-11.1-5-21.8-7.1-33.4-2.3-14.3 5.8-28.2 4.2-40-5.1-6.8-5.4-11.3-13.9-11.8-23-.3-5.5 2.3-11.1 5.8-15.6 2.5-3.3 8.5-1.1 10.4 3.5.7 1.6.4 4.2 2.6 4.5 3.5.4 6.6 2 10 2.6 1.5.3 2.1-1.9 3.1-3 1.2-1.2 2.5-2.3 4.4-1.8 2 .6 3.1 2.1 3.1 4.1 0 4.1 2.1 6.4 5.8 7.7 2.5.9 4 2.9 5.4 5 1.5 2.2 3.6 3.5 6.2 3.7 3 .2 6.1.6 8.3-2.2 2.2-2.8.3-5.4-.8-7.9-1.4-3.2-3.1-6.2-2.9-9.9.2-3.9-1.9-6.1-5.8-6.8-5.1-1-5.8-2.4-3.5-7.1.8-1.6.9-2.8-.4-4-.6-.6-1.3-1.2-2.2-.7-1.5.8-1.1 2.3-1.1 3.6 0 6.8-4.9 9.9-9.9 12.6-3.2 1.7-5.9-.4-7.8-2.8-1.9-2.4-4-4.4-6.7-5.9-3.4-1.9-4.2-5.1-3.2-8.6 1.7-5.5 3-10.8 2-16.6-.5-2.7 1-5.2 2.3-7.5 1.9-3.3 3.7-6.4 3.7-10.5.1-3.8 3.1-4.7 6.5-2.6.8.5 1.9 1.7 2.4 1.5 4.8-1.9 7.8 1.8 11.7 3 6.6 2.1 11.1 5.7 14.2 11.6 3.1 5.9 8.5 9.3 13.8 12.6 3.6 2.2 5.4 5.1 6 9.2.6 3.9 1.7 7.8 2.7 11.7.3 1.1.7 2.6 1.5 3.1 5.4 3.3 7.2 8.9 9.5 14.3 1.5 3.4 3.2 4.1 5.7.9 2.7-3.5 5.9-4 9.5-1.3 3.7 2.9 8.5 1 12.5 2.8.6.3 1.2-.4 1.3-1.2.1-1.4-.7-2.2-2.1-2.3-12.7-.8-19.1-10.8-26.7-18.8-5.5-5.9-10.1-12.5-15.3-18.7-1.8-2.2-4-4.1-4.6-7-1.2-5.2-3-9.8-7.9-12.8-2-1.2-2.5-3.6-1.4-5.8 1.3-2.5 3.8-4.1 6.2-3 6.1 2.7 10.7-.5 15.3-3.2 6-3.5 15.5-.6 17.8 5.9.9 2.6 2.3 4.8 4.3 6.6 1.6 1.5 3.1 2.3 3.8-.8.4-1.8.9-3.8 3.3-3.8 1.7 0 2.7 1.3 3.2 2.8.7 2 .6 4-1 5.6-.9 1-3.3.9-2.7 3 .6 2.1 2.6 2.4 4.5 2.4 2.8 0 4.8 1.2 5.9 3.8 2 4.4 2.6 9.3 5.3 13.4 1 1.5.3 3.4-1.1 4.6-3.8 3.4-1 6.4.7 9.3 1 1.7 2.5 1.7 3.5-.1 1.2-2.2 2.2-4.4 2.4-7 .2-5.1 2.3-6.9 6.9-5.3 4.5 1.6 8.9 2.5 13.6 1.4 1.8-.4 3.8-.1 5.3 1 4.6 3.3 9.7 3.1 14.9 2.9 8.7-.4 17.3.6 25.8 2 1.9.3 3.9.5 4 2.9.1 2.4-1.8 2.8-3.7 3.2-2.4.5-4.8 1.4-7.2 1.8-2.5.4-5.2.2-5.6 3.7-.5 3.9.6 7.3 3.4 10.1 1.6 1.6 2.5-.1 3.4-1.3 5.6-7.3 11.1-7.6 16.4-.1 3.2 4.5 6.5 6.3 12.2 5.2 5.5-1.1 11.2-1 16.9-1.3 3.7-.2 6.3.9 6 5.3-.1 1.9.6 3.3 2.7 3.5 1.9.2 3.2-.6 3.9-2.4.7-1.7 1.5-3.4 2-5.1 1.3-4.8 4.3-6.5 9.3-6.3 4.8.2 7.5 2.1 8.2 6.9.1.9.5 2.1 1.8 2.1 1.2-.1 1.3-1.3 1.7-2.2 2.2-4.7 5-5.6 8.9-2.1 3.7 3.3 7.1 6.5 12.7 4.5.8-.3 2.1.1 2.9.6 5.4 4.1 12.2 3.7 18.3 5.7 2 .7 4 .5 5.9-.2 3.2-1.1 6.3-1.8 9.4.6 2.1 1.6 3.8 0 5.2-1.4 1.9-2 4-2.9 6.7-1.7 1.6.7 2.7-.3 4.1-.7 6.5-1.7 10-6.3 13.5-11.6 2.6-4 6.5-2.4 10.3-.9 8.3 3.3 16.6 4.6 24.7-.9 2.4-1.6 4-3.8 5.2-6.5 3.2-7 5.6-14.1 7.1-21.7 1-5.5 5.1-8.7 10-9.2 5.3-.5 9.2 3.2 12 7.6.4.7.9 1.5 1 2.3 1.8 9.9 4.5 19.9-2.5 29.1-2.7 3.6-2.2 6.6.7 10.7 3.3 4.5 6.2 10.4 3.5 16.3-3.9 6.6-8.2 12.9-17.7 11.6zM360.7 557c-7.6.7-15 .2-16.7 9.7-.2 1.2-1.8 2.3-2.9 3.3-2.1 1.6-1.5 3.5-.6 5.4.9 1.9 2.3 1.9 4.2 1.3 3.4-1.1 6.6-.4 9.5 1.4 4.3 2.7 5.2 2.5 5.9-2.8.5-3.8 1.8-6.3 6.1-6.3 3.8 0 4.5-3 4.8-5.9.3-3-1.6-4.5-4.4-5-2.3-.5-4.4-.8-5.9-1.1z"/><path d="M441.2 550.4c2.3-1.2 4.6-2.3 6.8-3.5 3.6-1.9 7.1-3.7 11.4-2.5 2.3.7 3.5-1.1 4.7-2.9 3.6-5.3 6.7-11 14.1-12.3 3.1-.6 5.2-4 6.9-6.9 1-1.8 2.5-4.4 4.3-3.6 4.9 2.1 10.2.9 14.9 2.7 4.1 1.6 7.1 4.8 7.7 9.7.5 3.8 1.9 6.3 7.1 6.1 4.2-.1 8.5 2.1 13.2 2.1 2.9-.1 4.3 3.1 4.4 5.9.2 8 5.5 12.9 10.4 18 1.9 2 4.2 3.5 3.2 6.7-1 3.3-3.9 4-6.8 4-9.1-.2-18.4.5-26.6-4.8-1.3-.8-2.9-1.4-4.3-.7-6.8 3.5-11.8-.2-16.7-4-1.5-1.2-2.8-2.7-4.7-1-4.1 3.9-9.6 3.7-13.7 2-7.7-3.2-14.7-1.4-21.8.4-5.7 1.4-10.9 1.7-14.6-4-1.1-1.7-2.8-1.4-4.5-1.1-2.6.4-4.9 0-7.1-1.5-4-2.7-4.6-5.8-1.1-9 8.4-7.6 14.8-17 24.1-23.7 3-2.2 5.3-5.5 7.9-8.2 1-1.1 2.1-2.3 3.3-2.9 2.5-1.2 5.6-2.8 7.6.4 1.9 2.9-.8 4.7-2.8 6.5-4.4 4-7.1 9.9-12.7 12.4-7.1 3.2-7.6 12.4-16 13.9.5.7 1 1.2 1.4 1.8z"/><path fill="none" d="M100.5 100h600v200h-600z"/><path d="M167 135.8h59.6c33 0 45.5 17.2 45.5 34.9 0 15.4-8.2 25.4-17.4 29.6 9.2 3.5 21.3 13.2 21.3 31.1 0 23.4-18.3 40.9-47.4 40.9H167V135.8zm56.2 53.8c14 0 19.8-6.3 19.8-15.9 0-10-7.6-15.2-19-15.2h-28v31h27.2zM196 249.5h26.6c16 0 23.2-6.7 23.2-19 0-11-7.1-18-23.3-18H196v37zM285.8 197.6c0-10.2 0-19.2-.2-27.8h27.8c.4 2.3.7 12.5.7 18 4.5-11.7 15.5-20.3 32.9-20.4v27.1c-20.6-.5-32.9 5-32.9 33.1v44.7h-28.4v-74.7zM447.5 220.8c0 31-18.6 53.8-51 53.8-31.8 0-50.3-22.7-50.3-53.3 0-31.6 19.1-54 51.7-54 30.1.1 49.6 21.4 49.6 53.5zm-72.5.2c0 19.7 8.5 31.4 22.2 31.4 13.9 0 21.6-11.7 21.6-31.2 0-21.4-7.9-31.6-22-31.6-13.2 0-21.8 9.8-21.8 31.4zM485.5 213c7.5-10.2 21.1-26.1 35.3-43.2h32.5l-35.7 38.7 39.1 63.8h-32.1l-25.9-45.6-13.1 12.7v32.9h-28.4V127.7h28.4V213z"/><path d="M577.5 227.1c0 12.8 6.4 25.3 20.6 25.3 11.8 0 15.2-4.7 17.9-10.9h28.4c-3.6 12.5-14.8 33.1-47 33.1-33.8 0-48.4-25.2-48.4-52.1 0-32.1 16.5-55.1 49.4-55.1 35.2 0 47.2 25.5 47.2 51 0 3.5 0 5.7-.4 8.6h-67.7zm39.6-17.4c-.2-11.9-5-22-18.8-22-13.6 0-19.1 9.4-20.2 22h39z"/><path fill="none" d="M300.4 300.2h200v200h-200z"/><path d="M424.2 358.7c-2-8.2-6.8-16-21.2-16-22.2 0-28 20.9-29 43.2 7-8.5 18.7-15.4 37.6-15.4 30.4 0 51.9 22.4 51.9 55 0 35.4-22.7 61.7-60.9 61.7-48.1 0-64.1-37-64.1-83.9 0-43.2 15.3-88 66.1-88 36 0 52.8 22.6 54.5 43.4h-34.9zm3.2 69.8c0-15.8-5.8-29.9-25.8-29.9-16.1 0-25.6 9.4-25.6 28.6 0 13.4 6.4 31.3 25.6 31.3 17.7 0 25.8-13.2 25.8-30z"/></svg>