<svg xmlns="http://www.w3.org/2000/svg" xml:space="preserve" viewBox="0 0 800 800"><path d="M393.1 479c4.5-2.7 6.1-1.8 6.8 3.1.7 4.7 1.9 8.7-3.2 12.7-3.8 3-1.7 9.3-1.9 14.2 0 .8 1.4 2.4 2.3 2.4 5.8.5 8.1 5.6 12 8.5.9.7 1.7 1.9 3 1.3 1.4-.6 1.7-2 1.4-3.4-1-4.6-1.6-9.3-2.8-14-1.7-6.3-2.7-13.5 2.4-19.4 4-4.6.7-9.9 1-14.8.2-3.7-.9-7.5-1.3-11.3-.2-1.9.5-3.9 2.2-4.7 4.3-2.2 8.6-4.3 13-6.2 2.4-1 4 1 3.9 2.6-.5 7.9 5.7 8.4 10.1 7.7 6.1-1 9.3 2.6 13.1 5.2 4.3 3 9.8 3.8 13.4 8 .9 1 2.9 1.6 4.1.4 3-2.9 7.4-1.7 10.6-3.9 1-.7 2.4-.6 3 .7.7 1.4-.5 1.9-1.6 2.5-4.8 2.6-4.7 3.4-1.8 7.2 1.6 2.1 5.7 2.9 4.9 5.5-1.1 3.7-2 7.9-4.9 10.8-3.2 3.3-6 6.6-5.1 11.6.2 1.3-.8 2.8-2 3.2-2.4.9-2.9 3-3.6 5.1-.5 1.4-1.5 2.9 0 4.1 1.3 1 2.5-.1 3.6-.8 3.2-2 5-1.2 5.4 2.5.2 1.7.9 3.2 2 4.5 1 1.2 2.1 2.3 3.8 1.8 1.7-.4 2.4-1.7 2.5-3.3.3-5 3.5-9 4.9-13.6.8-2.5 1.7-4.9.6-7.2-2.2-4.5-.4-8.8.1-13.2.3-2.2 1.4-2.5 3-1.1 2.8 2.1 3.9 7.6 2.3 10.8-.4.7-1 1.5-1 2.2-.7 8.9-2.6 17.8-1.6 26.5.7 6.7-2.4 10.7-6.4 13.3-5.5 3.6-6.5 9.5-9.9 14.2-2.5 3.4.5 7.9 4.7 9.2 3.5 1.1 7 2.1 10 4.4 1.8 1.4 3.9 1.7 6.2 1.6 1.5-.1 3.1 0 4.2 1.2 3.4 4 5.2 9 9.2 12.9 2.2 2.1-.5 6.4-3.7 8.4-3.1 1.8-6.7 1.1-10.1 1.9-5.5 1.2-10.3-2.6-15.8-2-3.8.4-7.5-2.6-10.7-4.2-6.5-3.1-13-5.9-19.8-8.3-4-1.4-7.8-8.4-6.7-12.8.9-4 2.3-8 4.1-11.6 3.1-6.1 4.1-11.7 1.3-18.4-2.4-5.6-3.1-11.8-2.5-18.3.5-5.3 2.2-10.2 2.7-15.3.3-3.9-.8-5.9-4.7-8.4-6.3-4.1-14.1-1.9-19.9-6.5-1.4-1.1-4.6-.3-5.8 3-3.7 9.4-6.1 18.7-2.4 28.8 1.1 3.1-.2 6.2-3 8.4-1.6 1.2-3.6 2.6-2.5 4.9 1.3 2.8 3.7.9 5.2.2 3.7-1.8 7.8-1.7 11.6-2.4 3.6-.6 6.7 1.2 8.4 4.2 2.2 4 1.7 8.8-1.1 11.8-4.3 4.6-7 10.2-9.3 15.5-2.1 5-6.7 4.8-9.7 7.7-3.7 3.6-4.8 7.1-5 11.6-.2 8.4-9.9 16.3-17.5 13.8-6.6-2.2-10.8-8.5-8.8-16.3 2.7-10.8-.1-20.9-2.9-31.1-.5-1.9-1.6-3.8-2.8-5.3-8.1-9.6-8.9-20.4-6.3-32.2 1.2-5.1 1.4-10.4-.6-15.7-1.4-3.6-1.5-7.5 0-11.2 1.5-3.5.9-7-1.5-9.3-6.8-6.2-8-13.8-7.3-22.3.3-3.8 0-6.4-5.4-5.4-3.3.6-7.3.3-10.1-2.7-1.8-1.9-2.6-3.6 0-5.3 3.8-2.6 2.5-5.6.9-8.7-1.6-3.3-3.8-1.6-6.2-1.4-4 .4-8.5.9-12-.5-4.2-1.8-7 .1-9.9 1.8-3.1 1.9-1.3 5.1-.8 7.8.8 4 1.7 8 7.4 7 1.2-.2 2.9.5 2.7 2.2-.2 1.5-1.8 1.1-2.9 1.3-7.1.9-14.9-2.9-18.2-9-.9-1.7.1-2.8 1.3-3.8 3.6-3.2 7.3-6 9.4-10.7 1.7-3.8 6.6-4.6 11-2.4 5 2.5 10.1 3.3 15.3.6 4.6-2.3 5.1-5.5 1.8-9.5-4-4.8-7.2-10.3-9.9-15.9-1.4-2.9-3.3-5.3-5.2-7.8-1.1-1.4-2-2.7-4.3-1.1-2.3 1.5-4.4-.9-6.2-2.1-5.4-3.8-11.8-3.5-17.6-3.2-13.5.6-27.1-1.3-40.4 2.6-2.8.8-6 .5-8.9.2-2.6-.3-6-.3-5-4.8.3-1.4-.8-2.3-2.2-2.9-6-2.6-13.9-.2-17.1 5.3-1 1.7 0 2.6 1.4 2.9 1.4.3 3 0 4.5.1 2 .1 4.7-1.8 5.7 1.1.7 2 2.6 5 .7 6.5-2 1.5-4.4 3.9-7.4 2.9-4-1.3-7.8-1.1-11.8-.1-2.9.8-5.7.5-7.1-2.9-1.2-3.1-2.8-5.2.4-9 6.5-8 15-10.1 24.3-11.2 2.4-.3 4.1-1.4 5.5-3 1.6-1.8 3.6-2.8 6-3.3 6.7-1.4 6.7-1.5 8.8 4.9 1.2 3.5 10.9 6.1 13.4 3.5 1.7-1.8.4-3.8-.1-5.6-.5-1.9-3.2-4.3-.3-5.6 2.6-1.1 5.8.8 6.9 3.4 1.2 2.7 2.9 3.9 5.5 4.3 1.7.3 3.4.5 4.6-1.1 1.2-1.6 1.3-3.2.5-5.1-.6-1.3-3.4-3.6-.1-4.1 3-.5 7.4-3.9 9.2.8 2.1 5.3 4.4 8.8 10.8 6.9 1.1-.3 2.5-.1 3.1 1 2.2 3.6 5.8 3.3 9.3 3.8 3.1.5 5.7.5 7.9-2.5 1.6-2.2 3.9-2.8 6.5-.8 2.6 2 6 2.1 9 2.2 5.9.3 10.3 3.4 14.9 6.4 1.9 1.2 1.3 3.2 1.9 4.9.4 1.2 1 2.3 2.4 2.1 1.7-.2 2.1-1.6 1.7-3-1.5-5.1-.8-8 5.5-6.3 1.9.5 3.2-1 3.5-2.8.4-2.9 1.5-5.7.5-8.8-1.9-5.4 2.2-9.4 4.2-13.8.6-1.2 2.4-1.5 3-.4 4.3 8.8 14 7.4 20.7 11.4 5.7 3.4 13 3.7 17.5 9.5 2.8 3.6 4.3 7.3 5.3 11.9 2 8.9-.4 17.7.8 26.4 1.5 10.9 5.4 20.5 17.5 23.8 2 .6 3.7 1.7 4.1 3.9.3 1.6 1.6 3.5.2 4.7-1.7 1.7-2.9-.8-4.2-1.4-1.9-1-3.9-1.7-6.1-2.1-5-1.1-9.8-2.2-12.3-7.9-1.4-3.2-5.4-3.6-8.7-3.9-1.7-.1-1.3 1.4-1.1 2.6.8 4.3-.3 4.8-4.5 3.3-3.4-1.2-6.7-2.3-9.7-4.5-2-1.5-3.8-2.5-6.2 1-2 2.8-5.3 5.7-8.7 7.2-4.1 1.8-4.1 4.2-2.9 7.6 1.2 3.1 1.5 6.2-1.1 8.8-1.9 1.8-1.1 3.3.4 4.7 3.6 3.1 4.8 5.9.7 9.9-3.4 2.4-.1 6 .5 9.6zm-10.6-63.4c-4.9-1.1-8.5 3-13.3 3.3-2.5.1-2.8 3.9-2.1 6.4.8 2.5 2.8 1 4.2.6 3.3-1 6.5-1.1 9.9-.7 3.6.4 7 .1 9.2-3.3 1.4-2.1 3.3-2.7 5.8-3.1 2.7-.4 6.4.1 7.1-4 .6-3.4 1.9-4.3 5-2.4 1.7 1.1 3.2 0 4.3-1.5 3.9-5.5 8.9-10.5 8.7-18.1-.1-1.5.6-3 1.6-4.1 4.8-4.9 3.8-10.2.4-14.9-2.8-3.8-7.7-5-12.2-4.9-3.3.1-6 .2-9-1.4-4.9-2.6-6.8-1.5-8.2 3.7-.6 2.1-1.2 4.1-1.9 6.2-.6 1.8-2.1 3.8 1.3 4.5 3 .6 6.6.7 6.5-3-.1-6 2.1-6.1 6.9-4.7 6.7 1.9 7.1 2.2 2.6 7.8-4.1 5.1-7.9 10.2-7.4 17.3.1 1.8-.2 3.7-.2 5.5 0 3.5-2 5.6-4.5 7.8-4.5 4-9.3 4.4-14.7 3zm6-19.3c1.1-7.3-5-3.5-7.8-4.4-2.7-.9-4.8 2.5-4.1 4.3 1 2.8 2.4 6.4 6.3 6.7 4.4.3 5.8-2.5 5.6-6.6zM601.3 604.3c.6-2 .2-3.8.1-5.6-.2-5.5 2.1-8.8 7.3-10.6 4.6-1.6 7.4-4 7.9-9.5.5-4.9.7-9.8 4.7-14.3 2.6-3 1.8-8.6-.4-12.8-.6-1.2-1.7-2.6-3.1-1.3-7.6 7.2-17.1 5.3-26.2 6.3-7.1.8-13.7.7-20.3-2.6-3.5-1.8-6.7 1.4-5.2 5.5 3.3 8.9 6.1 18.1 11.4 26.3 2.3 3.5 3.1 7.9 4.2 12 1.3 4.6 2.2 8.9 7 11.9 6.6 4.2 6.2 8.9-.3 13.2-2.5 1.6-5.5 2.4-7.8 4.3-4.3 3.5-8.4 7.2-12.1 11.3-2.1 2.3-4.2 4.4-7.1 2.6-2.7-1.7-3-5.4-1.6-7.6 3.4-5.5 6.6-11 7.9-17.4.2-1.1 1.6-1.8 2.8-1.6 1.3.3 1.8 1.6 1.9 2.7.1 2.7.4 5.3 1.4 7.8.4.9.5 2.2 1.7 2.1.6-.1 1.4-.9 1.8-1.5 2.2-4.4 2.9-9.4 2.4-14-.4-4.1-4.6-3.2-7.3-2.4-7.5 2.2-8.1 2.6-10.5-4.3-1.9-5.5-5.7-9.9-7.4-15.4-1.8-6-3.5-12.1-6.2-17.8-2-4.4-5-7.9-9-10.6-2.6-1.8-4.1-4.6-4.8-7.4-1.6-6.9-4.7-13-8.4-19-4.5-7.1-1.8-18.6 6-24.5 4.6-3.5 9.9-5.9 14.9-8.9 7.8-4.8 16.5-2.4 24.8-3.3 3.9-.4 7.9-.9 11.9-1.1 1.8-.1 2.8-1.1 3.7-2.8 3-6.1 8.3-7.3 13.9-3.3 2.4 1.7 4.4 4 6.9 5.7 7 4.7 13.7 2.2 16.1-6.1 1.2-4.1 4.5-6.9 7.9-9.3 2.8-2.1 5.6-4 6.3-7.9.6-3.2 3.7-4.9 5.8-7.3 1.1-1.3 3.6-1.1 5 .5 5.8 6.5 13.3 10.5 20.7 14.8 5 3 6.3 8.4 7.1 13.6.4 2.3-.6 5.2-3.4 6.1-5.3 1.8-9.1.5-11.2-3.2-.8-1.5-.7-3.9-3.5-3.1-2.4.6-3.7 1.7-4.5 4.5-1.1 4.2-1.9 8.4-1.8 12.7.2 6.7-5.3 10.4-8.4 15.4-1.9 3.1-1.6 8.4.5 11.2 5.6 7.5 8.1 17 2.6 24.9-4.1 5.8-5 13.2-7.5 19.8-.6 1.6-8.7 5.7-10.2 5.2-2-.6-2-2.2-1.4-3.6.8-1.8.8-3.5-.2-5.2-.7-1.1-1.7-2.1-2.7-.8-4.3 5.8-11.1 8.9-15.7 14.5-1.8 2.2-2.7 4.2-1.4 6.7 1.3 2.5 4 3.5 6.2 4.4 1.8.8 2.2-1.8 2.9-3.3.6-1.3 1.2-3.2 3.1-2.4 1.6.7.7 2.4.2 3.5-3 6.6-8.1 11.4-14.1 14.8-3 1.7-5.1-1.6-5.5-4.7 0-2.6.2-5.3.2-7.8zm27.7-66.5c2.4-.2 3.9-1.3 2.9-4.2-.7-1.9-1.9-3.6-1.6-5.7.5-4.7-2.9-6.7-6.3-7.9-5.1-1.9-9.4-4.4-10.9-10-.9-3.4-3.4-4.6-6.4-4-5.2 1-9.9-.2-14.6-1.7-1.8-.6-3.8-2.4-5.3-.1-1.2 1.9.5 3.6 1.4 5.4 2.4 5.1 7.1 9 7.1 15.4 0 4.5 4.2 6.3 8.3 4.1 7.7-4.2 16.2-1.9 20.9 5.7 1 1.8 2.2 3 4.5 3zm-55.4-34.1c-.2-.8-1-1.1-1.8-.9-8.4 2.3-17.3 1.1-25.5 5-3.4 1.6-6.6 3.7-10 5.2-5.5 2.4-7.3 8.4-4.1 13.6 1.9 3.1 4.1 4.4 7 1.2 1.9-2.1 3.9-2.9 7-2.2 3.8.8 7.2-.6 9.1-4.4 4-8.1 11.6-12.3 18.3-17.5z"/><path d="M263.6 467.5c-3.1 5.3-6.3 4.2-9.5 1.1-.5-.4-1.4-1.1-1.7-.9-4.1 2.4-9.8.4-13.2 4.6-2.3 2.8-5 3.6-8.4 3.2-1.8-.2-3.2.6-4.8 1.2-3.2 1.1-5.6 0-7-3-1.6-3.4.8-5.2 3.4-6 4.8-1.5 8.6-5 13.8-5.6 2.5-.3 4.8-2.3 4.6-4.6-.5-3.7-3-7.1-6.7-7.9-6.7-1.5-12.4-5.3-18.9-7.3-.3-.1-.7-.2-.9-.4-1.8-1.5-5.3-1.5-5.1-4.8.1-2.2 2.4-3.3 4.2-3.8 2.6-.9 5.2-1.1 7.8 1.3 7.8 7.3 17 12 27.7 13.1 5.1.6 5.1.5 3.8 5.2 1.5.4 1.5-.8 1.7-1.7.3-1.4-.5-3.4 1.5-3.8 1.8-.4 2.2 1.6 3.3 2.6 4.1 3.6 9.2 5.2 14.1 7.1 2.6 1 5.1 2.4 7.7 3.2 9.2 2.6 17 8.2 25.6 12.1 9.3 4.3 19.4 6.3 28.7 10.9 5.5 2.7 12.2 6.3 19.5 4.5 2.3-.6 5.1 0 5.5 2.9.4 2.8-.1 5.8-3.1 7.3-5.4 2.7-11.4 3.7-17.3 4.5-3.2.4-5-2.6-5-5.2.1-5.9-4.8-7.3-8.3-8.2-4.6-1.2-9-3-13.5-4.2-6.9-1.8-14.1-2-21-4.2-3-.9-5.6.6-5.4 4.6.1 2.2-1.3 3.6-2.6 5.1-2.2 2.3-4.9 2.2-7.4 1.5-2.6-.7-2.7-3.5-2.5-5.4.2-3.6-1.1-6.2-4-8-4.4-2.2-8.6-4.4-6.6-11zM342.9 361.8c6.3 0 7.2-1.5 5.9-7-.9-3.5-2.8-6.3-4.7-9.2-6.4-9.9-4-26.4 4.3-31.8 5.7-3.7 10.8-3.5 15.5 1.1.7.7 1.5 1.3 2.3 1.8.9.6 2.6.6 2 2.2-.6 1.7-2.2 1.8-3.8 1.4-5.2-1.2-8 1.6-7.4 7.1.2 2 .4 4 .7 5.9.4 2 .3 3.4-2.1 4.2-3.4 1-3.7 4.5-3.4 7 .4 2.7 1.6 5.9 5.7 5.7 1.6-.1 7.7 7.9 7.6 9.4-.2 1.7-8 6.5-10.3 5.8-4-1.3-7.8-.5-11.7.2-1.6.3-4.4 1.1-4.7-1.2-.1-2.9 2.3-3.1 4.1-2.6z"/><path fill="none" d="M100.9 99.4h600v200h-600z"/><path d="M167.4 135.1H227c33 0 45.5 17.2 45.5 34.9 0 15.4-8.2 25.4-17.4 29.6 9.2 3.5 21.3 13.2 21.3 31.1 0 23.4-18.3 40.9-47.4 40.9h-61.7V135.1zm56.3 53.9c14 0 19.8-6.3 19.8-15.9 0-10-7.6-15.2-19-15.2h-28.1v31h27.3zm-27.3 59.8H223c16 0 23.2-6.7 23.2-19 0-11-7.1-18-23.3-18h-26.5v37zM286.3 197c0-10.2 0-19.2-.2-27.8h27.8c.4 2.3.7 12.5.7 18 4.5-11.7 15.5-20.3 32.9-20.4v27.1c-20.6-.5-32.9 5-32.9 33.1v44.7h-28.4V197zM448 220.2c0 31-18.6 53.8-51 53.8-31.8 0-50.3-22.7-50.3-53.3 0-31.6 19.1-54 51.7-54 30 .1 49.6 21.4 49.6 53.5zm-72.6.2c0 19.7 8.5 31.4 22.2 31.4 13.9 0 21.6-11.7 21.6-31.2 0-21.4-7.9-31.6-22-31.6-13.2 0-21.8 9.7-21.8 31.4zM485.9 212.4c7.5-10.2 21.1-26.1 35.3-43.2h32.5L518 207.9l39.1 63.8H525l-26-45.6-13.1 12.7v32.9h-28.4V127.1h28.4v85.3z"/><path d="M577.9 226.5c0 12.8 6.4 25.3 20.6 25.3 11.8 0 15.2-4.7 17.9-10.9h28.4c-3.6 12.5-14.8 33.1-47 33.1-33.8 0-48.4-25.2-48.4-52.1 0-32.1 16.5-55.1 49.4-55.1 35.2 0 47.2 25.5 47.2 51 0 3.5 0 5.7-.4 8.6h-67.7zm39.6-17.5c-.2-11.9-5-22-18.8-22-13.6 0-19.1 9.4-20.2 22h39z"/><path fill="none" d="M500.5 299.3h200v200h-200z"/><path d="M510.6 435.5c0-21.2 14.8-34.1 27.1-39.7-12.7-7.9-20.5-17.8-20.5-34.6 0-28.2 20.6-46.8 57.9-46.8 34.1 0 56.5 17.8 56.5 46.3 0 19.1-9.8 28.4-21.1 33.3 11.9 4.4 27 18.4 27 40.4 0 34.2-27.3 51.9-65.1 51.9-33.8-.1-61.8-18-61.8-50.8zm91.1-1.6c0-16.4-11.3-24-27.5-24-18 0-27.3 9.8-27.3 23.8 0 14.7 11 24.5 27.9 24.5 15.5 0 26.9-7.4 26.9-24.3zm-50.2-71.5c0 11.2 8 18.7 23.2 18.7 14.8 0 22.8-5.7 22.8-18.6 0-12.5-8.3-20.3-23.1-20.3-15.1 0-22.9 7.1-22.9 20.2z"/></svg>