<svg xmlns="http://www.w3.org/2000/svg" xml:space="preserve" viewBox="0 0 800 800"><g fill="none" stroke="#FFF" stroke-miterlimit="10" stroke-width="75"><path d="m99.2 699.8 600-600M99.2 99.8l600 600"/></g><path fill="none" d="M.7.8h800v800H.7z"/><path d="m186.1 427.5 54.6-13.7v23l-55 18 .4-27.3"/><ellipse cx="254.2" cy="609.8" rx="23.5" ry="9"/><circle cx="253.2" cy="573.3" r="9.5"/><path d="M249.2 427.8c-10.2 0-18.5-8.3-18.5-18.5s8.3-18.5 18.5-18.5 18.5 8.3 18.5 18.5-8.3 18.5-18.5 18.5zm0-27c-4.7 0-8.5 3.8-8.5 8.5s3.8 8.5 8.5 8.5 8.5-3.8 8.5-8.5-3.8-8.5-8.5-8.5zM249.2 467.8c-10.2 0-18.5-8.3-18.5-18.5s8.3-18.5 18.5-18.5 18.5 8.3 18.5 18.5-8.3 18.5-18.5 18.5zm0-27c-4.7 0-8.5 3.8-8.5 8.5s3.8 8.5 8.5 8.5 8.5-3.8 8.5-8.5-3.8-8.5-8.5-8.5z"/><circle cx="247.2" cy="167.3" r="13.5"/><path d="M228.7 373.3h40v11h-40z"/><path d="m231.74 504.883 9.998-126.008 10.966.87-9.998 126.008z"/><path d="m245.227 379.348 10.966-.87 10 126.007-10.966.87zM247.7 573.3h11v31h-11zM244.7 362.3h11v16h-11z"/><path d="M249.2 499.8c-10.2 0-18.5-8.3-18.5-18.5s8.3-18.5 18.5-18.5 18.5 8.3 18.5 18.5-8.3 18.5-18.5 18.5zm0-27c-4.7 0-8.5 3.8-8.5 8.5s3.8 8.5 8.5 8.5 8.5-3.8 8.5-8.5-3.8-8.5-8.5-8.5zM162.7 328.8h159v39h-159z"/><path d="M161.7 306.8h14v98h-14zM308.7 305.8h14v98h-14zM103.7 426.8h86v31h-86zM173.322 648.64l53.988-309.026 12.806 2.238-53.987 309.025zM261.282 339.787l12.806-2.237 53.988 309.026-12.806 2.237z"/><path d="m192.174 594.814.112-13 116 1-.112 13zM238.703 329.238l2-158.984 13 .164-2.001 158.984z"/><path fill="none" d="M301.2 100.5h400v600h-400z"/><path d="M575.7 317.7v44.7h-23.6V250.7h49.1c24.4 0 37.5 13.4 37.5 30.7 0 15-8.2 23.1-16.2 26.4 5.5 2 13.9 7.8 13.9 27.8v5.5c0 7.5.1 16.1 1.6 21.3h-23c-2-4.9-2.3-13.2-2.3-25.1v-1.6c0-12.2-3.1-18-21.1-18h-15.9zm0-19.2H596c13.2 0 18.3-5 18.3-14.4 0-9.1-5.9-14.2-17.7-14.2h-20.8v28.6zM664.3 362.4v-79.7c-4.9 2.3-14 4.2-19.3 4.6V270c10.1-1.9 20.3-7.6 26.4-14.3h16.4v106.7h-23.5zM589.4 556.8l-23.9-39.3h-.2l-24.4 39.3h-26l37.1-56.2-36.1-55.4h28l22.6 37h.2l23.4-37h25.6l-36 53.2 37.7 58.5h-28z"/><path d="M669.6 476.2c-1.3-5.3-4.3-10.3-13.6-10.3-14.3 0-18 13.4-18.6 27.7 4.5-5.5 12-9.9 24.1-9.9 19.5 0 33.4 14.4 33.4 35.4 0 22.8-14.6 39.7-39.1 39.7-30.9 0-41.2-23.8-41.2-53.9 0-27.7 9.8-56.6 42.5-56.6 23.2 0 34 14.5 35 27.9h-22.5zm2.1 44.8c0-10.1-3.8-19.2-16.6-19.2-10.4 0-16.4 6.1-16.4 18.4 0 8.6 4.1 20.1 16.5 20.1 11.3 0 16.5-8.5 16.5-19.3z"/></svg>