<svg xmlns="http://www.w3.org/2000/svg" xml:space="preserve" viewBox="0 0 800 800"><path fill="none" d="M499.4 99.8h199.8v599.7H499.4z"/><path d="m651.5 156.9-5.4 15.9h-14.7l23.4-68.9h18.7l24.4 68.9h-15.7l-5.7-15.9h-25zm22-12.3c-4.9-14.6-8-23.8-9.7-30h-.1c-1.7 6.8-5.1 17.6-9.1 30h18.9zM697.2 227v10.6c-10.4 14.8-20.6 36.1-23.2 55.2h-14.7c2.6-19.4 14.4-42.6 23.4-54h-31V227h45.5zM691.5 358.7h-26.4c-.4 3.5-1.6 9.8-2 12.5 2.5-2 6.2-3.5 11.8-3.5 13 0 20.3 9.4 20.3 21.9 0 12.7-7 24.4-24.7 24.4-13 0-22.6-6.7-24-18.4h14.3c1.3 4.5 4.4 7.5 10.1 7.5 6.8 0 10.1-5 10.1-12.3 0-6.9-2.5-11.7-10.1-11.7-6.1 0-8.6 2.7-10.1 6.6l-12.9-1.7c1.7-8.4 4.6-27.9 5.7-36.9h40.1l-2.2 11.6zM648 532.8v-.9c0-11.5 5.2-20.8 19.4-31.2 9.3-6.8 12.1-9.1 12.1-14.9 0-5.7-2.8-8.9-8.3-8.9-6.4 0-8.8 3.9-9.7 9.7h-13.8c.9-11.4 8.4-20.8 23.5-20.8 16.9 0 22.7 10.1 22.7 19.9 0 9.6-4.1 14.2-16.2 22.7-8.1 5.7-11.4 9.4-12.5 12.4h31.2l-1.8 11.9H648z"/><path fill="none" d="M199 100.2h400v599.7H199z"/><path d="M325 104.2h28.5c14.6 0 24.6 8.2 24.6 21.4 0 15-11.3 21.8-24.9 21.8H340v25.7h-15v-68.9zm15 31.3h11.4c6.9 0 11.8-2.7 11.8-9.7 0-7.1-5.1-9.8-11.5-9.8H340v19.5zM367 184.7c5.8-13.3 6.7-21.9 7.4-29.1H389c-1.1 9.9-4.3 20.9-10.9 29.1H367zM415.8 104.2h27.3c20.1 0 33.2 13.2 33.2 33.6 0 20.1-12.7 35.3-33.8 35.3h-26.7v-68.9zm14.9 56.9h11.2c13.2 0 19.1-9.8 19.1-23.3 0-11.3-5.5-21.6-19-21.6h-11.3v44.9zM373.8 274.2c0-8.4 5.9-13.6 10.8-15.8-5.1-3.1-8.1-7.1-8.1-13.7 0-11.2 8.2-18.6 23-18.6 13.5 0 22.4 7 22.4 18.4 0 7.6-3.9 11.3-8.4 13.2 4.7 1.8 10.7 7.3 10.7 16 0 13.6-10.8 20.6-25.9 20.6-13.3.1-24.5-7-24.5-20.1zm36.2-.6c0-6.5-4.5-9.5-10.9-9.5-7.2 0-10.8 3.9-10.8 9.4 0 5.8 4.4 9.7 11.1 9.7 6.1 0 10.6-2.9 10.6-9.6zm-19.9-28.4c0 4.5 3.2 7.4 9.2 7.4 5.9 0 9-2.2 9-7.4 0-5-3.3-8.1-9.2-8.1-6 .1-9 2.9-9 8.1zM408.5 363.4c-.8-3.2-2.7-6.4-8.4-6.4-8.8 0-11.1 8.3-11.5 17.1 2.8-3.4 7.4-6.1 14.9-6.1 12.1 0 20.6 8.9 20.6 21.8 0 14-9 24.5-24.2 24.5-19.1 0-25.4-14.7-25.4-33.3 0-17.1 6.1-34.9 26.2-34.9 14.3 0 21 9 21.6 17.2h-13.8zm1.3 27.7c0-6.3-2.3-11.9-10.2-11.9-6.4 0-10.2 3.7-10.2 11.4 0 5.3 2.5 12.4 10.2 12.4 6.9 0 10.2-5.3 10.2-11.9zM375.3 484.3c.9-8.1 6.6-18.1 23.1-18.1 15.2 0 22 8.6 22 17.9 0 7.9-4.5 11.7-8.1 13.4v.3c4.3 1.6 10.7 5.7 10.7 15.9 0 9.5-5.8 20.8-24.7 20.8-17.6 0-23.6-10.6-24.3-19.3h13.9c.9 4.5 4 8.4 10.8 8.4 6.6 0 9.9-4.3 9.9-10.1 0-6.1-3.1-9.8-10.8-9.8h-5.9v-11h5.2c6.6 0 9.2-2.2 9.2-7.7 0-4.5-2.7-7.6-8.4-7.6-6.7 0-8.3 3.7-9 7h-13.6z"/><path fill="none" d="M99.6 100.2h199.8v599.7H99.6z"/><path d="M122.3 145.6v27.6h-14.6v-68.9H138c15 0 23.1 8.3 23.1 18.9 0 9.3-5 14.3-10 16.3 3.4 1.3 8.6 4.8 8.6 17.2v3.4c0 4.6 0 9.9 1 13.1h-14.1c-1.2-3-1.4-8.2-1.4-15.5v-1c0-7.5-1.9-11.1-13-11.1h-9.9zm0-11.9h12.5c8.2 0 11.3-3.1 11.3-8.9 0-5.6-3.7-8.7-11-8.7h-12.9v17.6zM115.8 293.2V244c-3 1.4-8.6 2.6-11.9 2.9v-10.7c6.2-1.1 12.5-4.7 16.3-8.8h10.1v65.9h-14.5zM103.7 413.2v-.9c0-11.5 5.2-20.8 19.4-31.2 9.3-6.8 12.1-9.1 12.1-14.9 0-5.7-2.8-8.9-8.3-8.9-6.4 0-8.8 3.9-9.7 9.7h-13.8c.9-11.4 8.4-20.8 23.5-20.8 16.9 0 22.7 10.1 22.7 19.9 0 9.6-4.1 14.2-16.2 22.7-8.1 5.7-11.4 9.4-12.5 12.4h31.2l-1.8 11.9h-46.6zM103.8 484.3c.9-8.1 6.6-18.1 23.1-18.1 15.2 0 22 8.6 22 17.9 0 7.9-4.5 11.7-8.1 13.4v.3c4.3 1.6 10.7 5.7 10.7 15.9 0 9.5-5.8 20.8-24.7 20.8-17.6 0-23.6-10.6-24.3-19.3h13.9c.9 4.5 4 8.4 10.8 8.4 6.6 0 9.9-4.3 9.9-10.1 0-6.1-3.1-9.8-10.8-9.8h-5.9v-11h5.2c6.6 0 9.2-2.2 9.2-7.7 0-4.5-2.7-7.6-8.4-7.6-6.7 0-8.3 3.7-9 7h-13.6z"/></svg>