<svg xmlns="http://www.w3.org/2000/svg" xml:space="preserve" viewBox="0 0 800 800"><path fill="none" d="M99.9 199.7h600V600h-600z"/><path d="m311.2 362.3-29.2-48h-.2l-29.9 48.1h-31.8l45.4-68.7-44.1-67.8h34.3l27.6 45.3h.2l28.5-45.3h31.3L299.4 291l46 71.5h-34.2z"/><path d="M370.9 330.1c2.5 7.6 7.1 12.5 18 12.5 18.4 0 20.4-22.3 21.2-36.8-5.5 7.5-15.8 10.9-27.2 10.9-27 0-42.2-18.4-42.2-41.9 0-25.6 17.8-45 48-45 36.8 0 49.4 28.4 49.4 60.6 0 36.7-9.4 74.2-50.3 74.2-30.3 0-42.7-18.5-45.1-34.6h28.2zm-1.6-56.6c0 13.3 7.7 21.4 19.9 21.4 12.5 0 19.4-6.4 19.4-20.8 0-8.7-3.6-22.2-19.8-22.2-13.1 0-19.5 9.4-19.5 21.6zM519.4 250.6v43.7h42.8V318h-42.8v44.4h-23.8V318h-43.3v-23.7h43.3v-43.7h23.8zM373.6 568.4 363 600h-29l46.4-136.5h37.1L465.8 600h-31l-11.2-31.5h-50zm43.6-24.2c-9.7-28.8-15.9-47.2-19.2-59.5h-.2c-3.4 13.5-10.2 34.9-18 59.5h37.4z"/></svg>