<svg xmlns="http://www.w3.org/2000/svg" xml:space="preserve" viewBox="0 0 800 800"><path fill="none" d="M.5.3h800v800H.5z"/><path d="M186.5 550.6c3.3 1.1 5.3 1.5 7 2.4 4.2 2.2 5 6.5 1.3 8.9-3.5 2.2-1.9 3.1.4 4.2 1.5.7 3 1.1 3.4 3.4.7 3.8-2 5.7-3.6 8.3 4.3 1.6 3.4 3.9 1.7 7.3-1.8 3.4-.9 6.9 4.6 7-1.8 3.3-3.7 5.2-7.2 5.1-1.1 0-2.3.5-1.9 2 .3 1 1.3 1.2 2.1 1 8.1-1.4 8.8 5.2 11 10.2 2.1 4.8 2.1 10.7 7.3 14 1.5 1 1.7 3 1.1 4.8-.4 1.4-1.5 3.1.4 4.1 1.9 1 3.8-.2 4.6-1.5 2.2-3.2 3.7-3.1 6.7-.7 1.4 1.1 6.5 3.1 4.6-3-.4-1.3.5-1.9 1.1-2.8 5.4-7.7 3.6-12.1-5.1-15.3-6.7-2.4-2.9-8.4-1.5-11.5 1.7-3.7 0-6.6.4-9.9.5-3.5-1.4-7.1.9-10.5.4-.7 1.1-1.8.9-2.2-4-6.7 1.4-13.9-.9-20.7-.9-2.6.9-4 3.5-4.3 1.6-.2 3.5 1 5-.6-8.1-1.6-9.5-5.2-7.4-13.7 1.5-6 2.6-13 1-18.7-2.1-7.5.9-13.1 3-19.4.7-2.1 2.4-2.1 4.3-1.2 3.3 1.5 5.8.9 7.3-2.9 1.6-4.1 5.6-3.7 8.5-2.5 2.4 1 7.7-.4 6.3 5.8-.6 2.7 2.7 3.2 4.8 2.9 1.6-.2 4.3 2.1 4.6-2.3.3-4.4 3.8-6 8.2-5.3 1.9.3 4 .6 5.9.3 4.9-1 7.9.9 9.8 5.4 1.5 3.4 2.6 4.8 6.7 1.1 6.5-5.7 9-11.9 8.1-20.2-.2-1.4.7-3 .9-4.5.1-1.2.3-2.2 1.7-2.3 1.5-.1 2.6.9 2.8 2.3.4 3 1.8 6.8.5 8.8-4.6 7.3 3 11 4 16.5.4 2.3 3.4 1.4 5.2 1.8 5.2 1 7 2.2 7.3 9.1.3 7.5-2.9 15.1.4 23.2 1.7 4.1-.7 10.6-.6 16.1.1 11-1.1 22-1.5 33-.2 8.3-1.4 16.5.1 24.9.4 2.2-2.8 7.7-8.1 7.2-3.8-.3-6.4.5-8.8 4-3.2 4.6-15.6 4-19-.3-3.3-4.2-7.1-6.9-12.9-6-2.8.4-5.8.3-8.5-.4-15.8-4-24.1 3.2-28.9 17.6-2.3 7-16.5 10.1-25.1 7.8-6.6-1.8-8.7-7.2-12.1-11.6-6.6-8.5-10.7-18.5-13.7-28.7-1.3-4.5-.7-9.7-.7-14.6 0-3.1-.6-6.7-1.1-10-1.4-7.3 4.4-14.6-.8-22.9zM210.6 486.9c1 1.9 1.8 3.7 2.9 5.4 1.9 3.1-.7 5.4-2.1 6.8-2.2 2.2-5.7.8-8-.4-2-1.1-.3-3.4.3-5.3 2.2-6.9 3.3-14.3 6.6-20.6 1.6-3.1 1.4-8.5 6.9-9.3 3.3-.5 3.2-3.5.8-4.6-7.3-3.2-4.5-9.8-5.3-15-.5-3 .8-6.2.1-9.6-.9-4.6 3.7-5.3 6.4-5.7 6.4-.7 7.6-3.8 5.9-9.3-.5-1.7-2.6-3.8.9-5.1.9-.3-3.3-7.8-4.9-8.2-.4-.1-1 .1-1.3-.1-3.5-2-10.2 4.2-10.9-3.5-.4-4.3-3.5-8.7-.6-13.2.8-1.3.1-2.4-.6-3.7-2.6-5-.2-9.2 5.6-9.8 11.6-1.2 22.6 7.6 26.3 19.3 2.4 7.6 5.5 14.9 5.4 22.9-.1 8.4.2 16.7-4.1 24.6-3.8 7-8.8 11.8-15.8 15.2-2.5 1.2-2.3 4.5-2 6.9.6 5.1-.8 9.4-3.8 13.4-1 1.3-1.8 2.9-1.6 4.9.4 5.6-4.5 2.2-7.1 4zM310.6 440.2c-2.8-4.4-2.5-7.1-2.4-10.4.2-13.2 2.4-26.3 2-39.6-.3-7.9.4-16.2 1.6-24.4 1.6-10.9 1.5-22 1.1-33.1-.1-2.5.8-5-.2-7.6-.8-2.1.9-3.7 2.5-3.9 2.8-.2 1.7 1.7 1.6 3.5-.1 7.5 1 15.1.3 22.5-.6 6.2.8 12.3-1.1 18.7-1.5 5 .1 10.7-.1 16.1-.6 16.1-1.3 32.3-2.3 48.4-.2 3-1.7 5.8-3 9.8z"/><path d="M192.5 537.3c1.9 1.5 2.9 2.2 3.9 3.1 2.3 2 4.1 4.6 2.2 7.3-2 3-5.6 2-8.5 1.3-.8-.2-2.1-2.1-2-2.3 5.2-7.3 2.6-16.3 5.4-24.1 1.9-5.1 1.9-10.8 5.3-15.5 2.1-2.9 3.6-5.5 7.6-3.3 3.7 2.1 4.2 4.5 1.3 7.7-1.1 1.2-1.4 3.2-3.3 3.9-1.6.6-3 1.6-.3 2.9 2.1 1 1.7 2.4 0 3.3-3.5 1.9-4 4.6-3.2 8.2 1.2 6-3.9 5.8-8.4 7.5zM313 445.8c-.6 7.6-1.2 15.2-1.7 22.7-.2 2.5-1.5 3.6-3.7 3.6-3.7-.1-1.8-2.6-1.5-4.2 1.1-7.3 2-14.6 1.5-22-.1-2.4-.9-5.9 3.3-5.6 3.5.4 2.7 3.2 2.1 5.5zM318 225.9c.2 2.2.5 3.7.3 5.2-.1 1.3-.7 2.7-2.5 2.2-1-.3-2.6-1.2-1.9-2.2 1.8-2.8-.8-5.6.3-8.3.6-1.5.1-4.2 2.4-4 2.1.2 1.8 2.7 1.8 4.4-.1 1.2-.3 2.3-.4 2.7zM313.6 264.1c2-2.8-.3-5.2.1-7.7.2-1.1-.1-2.4 1.2-2.7 1.6-.3 2.5.9 2.6 2.3.2 4.4-1.7 8.8.1 13.1.1.2-.8 1.1-1.3 1.2-1.3.3-2.1-.6-2.5-1.6-.8-1.6 1.5-3.2-.2-4.6zM315.3 313.5c-.3-.6-.5-1.2-.9-1.7-2.4-2.9-1.8-6.1-1-9.3.2-.8 1.6-1 2.3-.3 2.5 2.3 1 5.4 1.2 8.1.1.8-.1 1.7-.2 2.6-.5.2-1 .4-1.4.6zM318.1 197.9c.4 2.2 1.5 4.9-1.7 5.3-1.1.1-3.2-3.1-2.1-4.4 1.6-1.8-2.2-5.4 1.9-5.5 4.4-.2 1.1 3.2 1.9 4.6zM316.7 216.1c-4-3-.7-6.8-1.1-10.2-.1-1.2 2.4-.9 2.3-.1-.1 3.4 3.7 7.5-1.2 10.3zM314.8 281.4c2.1 2.7 1.8 5.6 2.4 8.2.3 1.3.5 2.8-1.5 2.8-1.9 0-1.2-1.6-1.6-2.7-1.1-2.8-1.9-5.3.7-8.3z"/><path fill="none" d="M300.1 100.3h400v600h-400z"/><path d="M473.3 188.1h-42.7c-.7 5.7-2.5 15.9-3.2 20.3 4-3.3 10-5.7 19.2-5.7 21 0 32.9 15.2 32.9 35.5 0 20.6-11.3 39.6-40.1 39.6-21.1 0-36.6-10.8-38.9-29.9h23.1c2 7.3 7.2 12.1 16.3 12.1 11 0 16.3-8.1 16.3-19.9 0-11.1-4.1-19-16.3-19-9.9 0-13.9 4.3-16.3 10.6l-20.9-2.7c2.8-13.5 7.4-45.2 9.2-59.8h64.9l-3.5 18.9zM531.5 224v20.2h-45.1V224h45.1zM603.4 169.2v17.2c-16.9 23.9-33.4 58.5-37.6 89.4H542c4.2-31.4 23.3-68.9 37.8-87.5h-50.2v-19.1h73.8z"/><path stroke="#000" stroke-miterlimit="10" stroke-width="6" d="m440 448.6 60-104.1 60.1 104.1H440zm12-7h96.1L500 358.4l-48 83.2z"/><path d="M389.5 531.3h48.8c27 0 37.2 14.1 37.2 28.6 0 12.6-6.7 20.8-14.2 24.2 7.5 2.8 17.4 10.8 17.4 25.5 0 19.1-15 33.4-38.8 33.4h-50.4V531.3zm46 44.1c11.5 0 16.2-5.2 16.2-13 0-8.2-6.2-12.4-15.5-12.4h-23v25.4h22.3zm-22.3 48.9H435c13.1 0 19-5.5 19-15.6 0-9-5.8-14.7-19.1-14.7h-21.7v30.3zM503.7 643v-79.7c-4.9 2.3-14 4.2-19.3 4.6v-17.3c10.1-1.9 20.3-7.6 26.4-14.3h16.4V643h-23.5zM540.9 643v-1.5c0-18.6 8.3-33.7 31.4-50.5 15-11 19.6-14.8 19.6-24.1 0-9.2-4.5-14.4-13.5-14.4-10.4 0-14.2 6.4-15.7 15.7h-22.4c1.5-18.4 13.6-33.7 38.1-33.7 27.4 0 36.8 16.3 36.8 32.3 0 15.5-6.7 23-26.3 36.8-13.1 9.2-18.4 15.3-20.2 20.1h50.5l-2.9 19.3h-75.4z"/><path stroke="#000" stroke-miterlimit="10" stroke-width="5" d="M316.5 194.3v12l-1 15-1 34v68l-4 119-2 34"/></svg>