<svg xmlns="http://www.w3.org/2000/svg" xml:space="preserve" viewBox="0 0 800 800"><path fill="none" d="M0 0h800v800H0z"/><path d="M185.3 426.7 240 413v23l-55 18 .3-27.3"/><ellipse cx="253.5" cy="609" rx="23.5" ry="9"/><circle cx="252.5" cy="572.5" r="9.5"/><path d="M248.5 427c-10.2 0-18.5-8.3-18.5-18.5s8.3-18.5 18.5-18.5 18.5 8.3 18.5 18.5-8.3 18.5-18.5 18.5zm0-27c-4.7 0-8.5 3.8-8.5 8.5s3.8 8.5 8.5 8.5 8.5-3.8 8.5-8.5-3.8-8.5-8.5-8.5zM248.5 467c-10.2 0-18.5-8.3-18.5-18.5s8.3-18.5 18.5-18.5 18.5 8.3 18.5 18.5-8.3 18.5-18.5 18.5zm0-27c-4.7 0-8.5 3.8-8.5 8.5s3.8 8.5 8.5 8.5 8.5-3.8 8.5-8.5-3.8-8.5-8.5-8.5z"/><circle cx="246.5" cy="166.5" r="13.5"/><path d="M228 372.5h40v11h-40z"/><path d="m231.033 504.061 9.998-126.008 10.966.87-9.998 126.008z"/><path d="m244.527 378.546 10.966-.87 10 126.008-10.966.87zM247 572.5h11v31h-11zM244 361.5h11v16h-11z"/><path d="M248.5 499c-10.2 0-18.5-8.3-18.5-18.5s8.3-18.5 18.5-18.5 18.5 8.3 18.5 18.5-8.3 18.5-18.5 18.5zm0-27c-4.7 0-8.5 3.8-8.5 8.5s3.8 8.5 8.5 8.5 8.5-3.8 8.5-8.5-3.8-8.5-8.5-8.5zM162 328h159v39H162z"/><path d="M161 306h14v98h-14zM308 305h14v98h-14zM103 426h86v31h-86zM172.617 647.819l53.987-309.026 12.807 2.237-53.988 309.026zM260.583 338.985l12.806-2.238 53.988 309.026-12.806 2.237z"/><path d="m191.466 593.99.112-13 116 1-.112 13zM237.995 328.415l2-158.984 13 .164-2.001 158.984z"/><path fill="none" d="M300.4 99.7h400v600h-400z"/><path d="M414.7 222.5c0-19.1.3-40.4.8-53h-.8c-5.2 22.8-16.4 60-27.1 94.9H367c-8.1-30.6-19.7-72.9-24.6-95.2h-.8c1 13.1 1.4 36.1 1.4 55.2v40h-22V152.7h36c8.7 29.2 18.5 65.8 21.8 82.4h.2c2.7-14.7 15-53.8 24.3-82.4H438v111.7h-23.3v-41.9zM550.3 222.5c0-19.1.3-40.4.8-53h-.8c-5.2 22.8-16.4 60-27.1 94.9h-20.6c-8.1-30.6-19.7-72.9-24.6-95.2h-.8c1 13.1 1.4 36.1 1.4 55.2v40h-22V152.7h35.9c8.7 29.2 18.5 65.8 21.8 82.4h.2c2.7-14.7 15-53.8 24.3-82.4h34.6v111.7h-23.3v-41.9zM689.3 264.4h-17.7c-.9-3.4-1.5-7.3-1.8-11-6.2 8.3-17.1 12.9-32.6 12.9-32.4 0-50.5-24.5-50.5-56.3 0-33.6 19.5-58.9 54.7-58.9 28.7 0 45.7 16.2 48.4 35.3h-24.2c-2.3-7.5-8.2-16.3-24.5-16.3-22.9 0-29.5 19.2-29.5 38.9 0 19.2 7.5 38.1 29.6 38.1 20.6 0 24.5-14.3 24.5-24.3v-1h-24.5V202h48.2v62.4zM465 458.8v-24h-48.2v-20.2l44.5-62.4h25.3v63.9h12.8l-2.1 18.8h-10.7v24H465zm0-61.7c0-11.6 0-18 .5-24.7-4.2 8.9-18.1 29.2-28.1 43.7H465v-19zM551 407v20.2h-45.1V407H551zM574.9 458.8v-79.7c-4.9 2.3-14 4.2-19.3 4.6v-17.3c10.1-1.9 20.3-7.6 26.4-14.3h16.4v106.7h-23.5zM693.5 404.8c0 29.3-9.3 55.9-41 55.9-31.3 0-40.9-25.7-40.9-55.2 0-29.2 10.7-55.2 41.4-55.2 29.7 0 40.5 24.3 40.5 54.5zm-58 .5c0 19.6 2.2 37 17.3 37 14.7 0 16.7-16.3 16.7-37.3 0-20.7-2.5-36.2-16.4-36.2-13.7-.1-17.6 13.4-17.6 36.5zM388.5 541.5h48.8c27 0 37.2 14.1 37.2 28.6 0 12.6-6.7 20.8-14.2 24.2 7.5 2.8 17.4 10.8 17.4 25.5 0 19.1-15 33.4-38.8 33.4h-50.4V541.5zm46 44.1c11.5 0 16.2-5.2 16.2-13 0-8.2-6.2-12.4-15.5-12.4h-23v25.4h22.3zm-22.3 49H434c13.1 0 19-5.5 19-15.6 0-9-5.8-14.7-19.1-14.7h-21.7v30.3zM502.7 653.2v-79.7c-4.9 2.3-14 4.2-19.3 4.6v-17.3c10.1-1.9 20.3-7.6 26.4-14.3h16.4v106.7h-23.5zM555.3 653.2v-79.7c-4.9 2.3-14 4.2-19.3 4.6v-17.3c10.1-1.9 20.3-7.6 26.4-14.3h16.4v106.7h-23.5zM652.9 561.8v35.7h35v19.4h-35v36.3h-19.5v-36.3H598v-19.4h35.4v-35.7h19.5z"/></svg>