<svg xmlns="http://www.w3.org/2000/svg" xml:space="preserve" viewBox="0 0 800 800"><g fill="none" stroke="#FFF" stroke-miterlimit="10" stroke-width="75"><path d="m99.4 699.8 600-600M99.4 99.8l600 600"/></g><path fill="none" d="M0 0h800v800H0z"/><path d="M242.1 361.7c1.5 3.1-3.5 10 1.8 15.5.9.9-.6 1.9-.9 2.8-1.8 5-.2 8.5 4.3 11.4 11.7 7.6 16.2 24.1 8.1 35.1-2 2.7-3.7 5.9-6.7 7.9-3.9 2.6-6 4.9-4.9 10.9.9 5 1.3 11.4-.6 16.7-1.3 3.8 0 7.4-.1 10.9-.2 6.4-1.9 11.8-5.4 16.8-.3.5-1.1.8 0 .9 6.8 1 2.3 3.8 1.8 6.9-.8 4.8.6 10 1.1 15 .7 7.7 2.8 15.7 1.9 23.2-1.5 11.9 1.3 23.2 1.6 34.8.1 5.1-2.3 10.6-7.6 13.6-3.4 1.9-13.3-3.3-12-6.6 1.5-3.9-1.2-6.2-1.5-9.3-.8-10.2 1-20.3.8-30.5-.1-5.6.5-11.2-.6-16.7-.7-3.8 1.6-7.1 1.6-11.1 0-6.1 1.9-12.1 0-18.3-.4-1.1.8-2.8 1.4-4.2.3-.6 1.6-1.3 1.5-1.4-7.1-10.5-3.8-22.7-5.4-34.1-.2-1.5-.2-3 .9-4.3 1.9-2.3 1.1-5.5-.9-8-5.2-6.3-12.8-10.2-15.3-19.4-2.6-9.8 2.8-25.2 12.5-28.4 3.5-1.2 4-4 4.7-7.1 1.5-6.3-.1-12.6-.4-18.8-.2-4.4 0-9.1.4-13.1.4-3.8-.9-4-2.9-4.4-5.5-1.1-11-3-16.7-1.5-2.9.8-5.1-.9-7.5-1.6-4.6-1.4-9.2-2.3-14.1-2.4-3.8-.1-7-1.4-3.7-5.8 1.6-2.2-2.1-4.2.2-5.8 2.6-1.8 4.3-7.5 8.9-1.1 4.1 5.6 11.5 5.4 18 6.1 2.8.3 5.6.7 8.3 1.6 8.6 2.8 11.5.4 11.7-8.7.2-10.1 1-20.2 1.3-30.3.3-8.7 0-17.4-3.3-25.7-.8-2.1-.6-4.6-.7-6.8-.2-3.4-1.7-7.7 2.3-10.1 3.7-2.2 8.1-1.3 11.2.8 3.7 2.5 4 8 2.6 11.3-5.1 11.7-3.5 24-4.3 36.1-.5 7.2.1 14.5 3.1 21.5.8 1.7.2 4.4-.4 6.4-1.3 4.3 1.9 5.9 4.2 8 2.4 2.2 4.5 1.3 6.7-1 1.6-1.7 4.2-.6 6.3-1.1 5.8-1.5 11.6-2.5 16.9-6.2 6.7-4.7 10.9-1.9 11.6 6.1.4 4.9-2.5 5.1-6 5.6-10.2 1.5-20.2 3.6-30.4 4.7-7.3.8-6.9 5.3-5.4 13.2zm-12.2 197.6c.8 1.9.1 4.9 2.3 5.1 2.9.2 2.5-3 2.9-5 .5-2.4-.9-4.1-3.1-4-2.1.1-1.7 2.5-2.1 3.9zm2.7-25.6c2.8-2.2 1.7-5 2.2-7.4.4-1.9-.9-2.7-2.7-2.6-2.8.1-1.8 1.4-1.1 3 1 2-.4 4.5 1.6 7z"/><path fill="none" d="M299.6 100.5h400v600h-400z"/><path d="M574.2 317.7v44.7h-23.6V250.7h49.1c24.4 0 37.5 13.4 37.5 30.7 0 15-8.2 23.1-16.2 26.4 5.5 2 13.9 7.8 13.9 27.8v5.5c0 7.5.1 16.1 1.6 21.3h-22.9c-2-4.9-2.3-13.2-2.3-25.1v-1.6c0-12.2-3.1-18-21.1-18h-16zm0-19.2h20.2c13.2 0 18.3-5 18.3-14.4 0-9.1-5.9-14.2-17.7-14.2h-20.8v28.6zM662.7 362.4v-79.7c-4.9 2.3-14 4.2-19.3 4.6V270c10.1-1.9 20.3-7.6 26.4-14.3h16.4v106.7h-23.5zM587.9 556.8 564 517.5h-.2l-24.4 39.3h-26l37.1-56.2-36.1-55.4h28l22.6 37h.2l23.4-37h25.6l-36 53.2 37.7 58.5h-28z"/><path d="M668.1 476.2c-1.3-5.3-4.3-10.3-13.6-10.3-14.3 0-18 13.4-18.6 27.7 4.5-5.5 12-9.9 24.1-9.9 19.5 0 33.4 14.4 33.4 35.4 0 22.8-14.6 39.7-39.1 39.7-30.9 0-41.2-23.8-41.2-53.9 0-27.7 9.8-56.6 42.5-56.6 23.2 0 34 14.5 35 27.9h-22.5zm2.1 44.8c0-10.1-3.8-19.2-16.6-19.2-10.4 0-16.4 6.1-16.4 18.4 0 8.6 4.1 20.1 16.5 20.1 11.2 0 16.5-8.5 16.5-19.3z"/></svg>