<svg xmlns="http://www.w3.org/2000/svg" xml:space="preserve" viewBox="0 0 800 800"><g fill="none" stroke="#FFF" stroke-miterlimit="10" stroke-width="75"><path d="m100.2 699.8 600-600M100.2 99.8l600 600"/></g><path fill="none" d="M0 0h800v800H0z"/><path d="M339.5 528.3c-1.7.1-4-.6-4-1.7-.2-8-6.9-13.5-7.8-21.1-.8-6.7-4.6-10.5-11.6-11.1-2.9-.3-5.7-1-8.6-.8-4.4.2-8.4 1.1-7.1 7.4.7 3.2-.1 7-2.4 9.4-4.5 4.7-2.9 9.8-1.3 14.6.6 1.9 1.2 2.8-.1 4.5-1.2 1.5.2 5.3-3.3 4.6-2.8-.6-5.3-3.1-4.8-6.2.6-3.7-.9-5.8-4-6.4-3.9-.7-2.8 3.1-3.5 5.1-.9 2.4-2.3 4.4-4.9 5.1-2.9.8-5 .5-4.2-3.4.6-3.5.7-7.2 1.5-10.4 1-3.9-.5-6.5-2.6-7.9-2.9-2-2-3.9-1.4-6.1 2.2-8.1-.4-11.9-8.9-12.6-3.1-.2-6.3.3-8.8-2.2-.6-.6-1.8-1.3-2.3-.5-3.9 5.9-12.7 7.7-13 16.7-.2 5.1-4.9 2.8-10.6 3.3 9.5.9 7.7 3.6 5 8-6.6 11-12.9 22.3-15.1 35.1-1 5.6-6.3 7.5-7.6 12.8-1 4.4-3.2 9.2-7.7 12 2.3 3.1-1.4 7.9 0 9 5.8 4.6 2 10 1.5 14.4-.5 3.9-13.7 8.4-18 6.7-1.3-.5-7-.4-3.3-5.1-.6-.3-1.2-.5-1.7-.8-5.3-3.3-6.6-10.8-2.3-14.9 1.9-1.8 3-3.9 3.6-6.2.9-3.3 3.4-5.2 6.1-5.1 4.5.1 6.4-2.7 7.8-5.8 2.8-6.1 7.5-11.3 8-18.5.2-2.8 3.9-3.4 5-6.6 4.5-12.3 10-24.1 17.1-35.3 3.6-5.8 6.1-12.5 9.3-18.7 5.3-10.5 10.2-21.1 15.7-31.4 5-9.5 8.8-19.4 12.6-29.3 1.4-3.7-1.2-5.1-3.9-5.3-10.6-.7-21-4.9-31.6-3.8-6.7.7-13.2 2.5-20.2 2.4-7.5-.1-15-1.2-22.6-1.1-13.3.1-26.5-.5-39.8.7-3.2.3-8.5 1.5-9.8-3.3-1.7-6.3 2.8-9.4 9.8-11.1-9.3-.7-11-3.6-8.8-12.4 1-3.9 3-7.4-.6-11.6-2.3-2.7-.6-5.9 3.8-6.1 5.8-.3 11.6-1.5 17.3-.9 19.2 2.2 38.5-.9 57.7 1.3 3.3.4 6.4 1.6 8.9 4 3.9 3.8 8.4 5.7 13.9 3.7 1-.4 2.4-.6 3.2-.2 7.7 4.1 15.1-.5 22.7-.6 4.9 0 10.1-8 9-13-.7-3.4 2.5-4.2 3.2-6.7 1.7-6 1.6-11.8 1-17.7-.1-.7-.2-1.3-.4-2-1.2-4.5 4.7-7.6 2.1-12.6-2.2-4.2.1-8.9-.4-13.5-.4-3.6 4.9-5.5 9.4-5.3-4-1.1-12.7-9.7-11.8-13 .9-3.4 3.6-6.4 5.3-9.8 3.3-6.5 3.2-13.1 3-19.6-.5-12.9 1.9-25.6 1.7-38.4-.1-5.2 1.5-10.4-1.2-15.6-1.2-2.4.5-7.9 1.2-8.6 3.6-3.9.8-6.9 0-10.3-.6-2.3-1.2-5-.7-7.2 2.2-9.1 1.1-17.8-.5-26.9-.5-2.5-1-7.5 2.2-9 4-1.8 8.7-1.8 12.9.7.7.4 1.7.6 1.4 1.8-2.8 10.2.8 20.4-.2 30.6-.5 5.3-2.1 10.4-1.8 16.1.7 13 .3 26.1-.2 39.2-.4 7.8.4 15.6 0 23.4-.1 2.1-1.8 4.6-4.9 4.4-1.5-.1-3.1-.6-3.9 1.4 1.1 2.7 2.4.3 3.6.2 3.5-.1 6.6-.7 4.9 5.3-2.2 7.4 1.8 14.7 3.4 21.8 1.1 4.8-.1 8.8-2.6 12.1-1.8 2.4-1.7 4.2-.8 6.5 5.3 13.2 2.7 27.1 3.4 40.7.5 8.1-2.3 17.2 3.4 24.8 2 2.7.9 8.1.6 8.5-7.9 12.5-1.8 23.4 3.2 34.4 3.7 8.1 6.7 16.5 9.8 24.8 1.3 3.6 1.8 8.9 3.8 12.9 4.5 9 6.1 18.9 9.9 28 3.7 8.8 6.7 18 12.2 26 1.7 2.4 1.9 5.9.7 9-1.5 0-2.9.1-4.2.3zm-55.9-88.4c-5.2-1.6-8.9 1.9-7.9 7.3 1.3 7.3-.1 14.7 1.4 21.9 1.2 5.8 5.8 9 11.7 6.4 2.7-1.2 5.7-6.9 4.3-9.7-2.9-5.7 0-11.2-.7-16.8-1.1-8.8.3-9.3-8.8-9.1zm-.3-4.2c5.4-.1 9.2-.1 9.8-7.3.5-6.2-2.7-12.9 1.8-18.8.3-.4-.6-2.3-1.4-2.8-4.2-2.9-9.1-4-13.7-1.9-3.9 1.7-4.2 5.3-3.9 9.6.4 4.6 3.9 10.4-2.4 14.1-.8.5-.4 1.4.1 1.5 4 .8 4.6 7.6 9.7 5.6zm-23.4 43.2c3-.4 6 .9 7.9-2.5 5.4-9.5 2.8-19.5 2-29.3-.1-.8-1.4-1.6-2.3-2.1-.8-.5-1.5-.3-2 .8-4.6 9.3-9.3 18.7-13.9 28-1.5 3 0 4.1 2.6 4.6 2 .2 4 .3 5.7.5zm33.5-91.5c2.7-8.3-4.9-6.3-8.6-7.1-4.7-1-7.2 1.5-5.2 6.7.4.9 0 1.6-.8 2.3-6.4 5.4.2 6.2 3 6.8 10.7 2.3 10.7 2 11.6-8.7zm-.1 95.5c-3.6-.5-5.8-1-7.9-1-4.4.1-7.8 1.2-4.5 6.7.9 1.5 1.6 3.4-.1 4.9-2.3 2.1-2.3 4.9 0 6.1 1.9 1 4 4.2 6.2 2.6 1.2-.9.2-5 .7-6.4 1.5-4.1-1.9-10.2 5.6-12.9zm10.8-14.5c-1.7.6-5.3-1.7-5.5 2.2-.2 5.5 4.5 9 10.6 9.3 3.4.2 5.8-.9 5.7-4.6-.1-7.3-5.6-6.6-10.8-6.9zm-15.3-119.2c2.2 0 2.1-1.7 1.7-2.8-1.8-5 5-10.3-.7-15.2-.9-.7 1.9-3.2-.8-3.7-1.1-.2-2.4.8-3.5 1.6-1.8 1.2-1.3 2.8-.1 4 3.2 3.5 1.7 6.5-.7 9.5-.9 1.1-2.9 1.9-.9 3.7 1.4 1.3 2.8 2.8 5 2.9zm-7.1 13.2c-2 2.9.6 2.8 2 3.1 5.6 1 5-4.3 6.8-7.1.9-1.4-.6-3-1.8-2.6-3.2 1.1-6.9 2.1-7 6.6z"/><path d="M339.5 528.3c1.3-.1 2.7-.2 4-.4 1.9-.5 2.8.4 3.5 2.1 2.4 6.1 5.4 11.9 6.8 18.4 2.6 11.9 10 22.1 12.6 34.1.3 1.5 2.6 1.6 4.1 1.6 8.1-.3 10.2 6 11.7 11.6 1 3.6-3.4 3.4-7 3.7 2.2 2 5.7-.2 6.2 3.2.5 3.2-2.9 2.9-3.9 4.6-3 4.9-7.2 6.6-12.4 4.5-5.9-2.4-8.7-9.9-9.6-15.9-.7-4.7 4.9-7.4 2.2-12.1-.3-.5 2.2.6 3.8-.1-1.4-1.9-4-1.7-5.1-4.4-2.9-7.3-6.7-14.3-10-21.5-1.5-3.4-2.7-6.9 1.7-9.4-5.5-3.6-9.2-7.7-8.4-14.3.2-2-5.4-3.7-.2-5.7z"/><path fill="none" d="M300.4 99.7h400v600h-400z"/><path d="M575 316.9v44.7h-23.6V249.9h49.1c24.4 0 37.5 13.4 37.5 30.7 0 15-8.2 23.1-16.2 26.4 5.5 2 13.9 7.8 13.9 27.8v5.5c0 7.5.1 16.1 1.6 21.3h-22.9c-2-4.9-2.3-13.2-2.3-25.1v-1.6c0-12.2-3.1-18-21.1-18h-16zm0-19.2h20.2c13.2 0 18.3-5 18.3-14.4 0-9.1-5.9-14.2-17.7-14.2H575v28.6zM663.5 361.6v-79.7c-4.9 2.3-14 4.2-19.3 4.6v-17.3c10.1-1.9 20.3-7.6 26.4-14.3H687v106.7h-23.5zM588.7 556l-23.9-39.3h-.2L540.2 556h-26l37.2-56.2-36.1-55.4h28l22.6 37h.2l23.4-37h25.6l-36 53.2 37.7 58.5h-28.1z"/><path d="M668.9 475.4c-1.3-5.3-4.3-10.3-13.6-10.3-14.3 0-18 13.4-18.6 27.7 4.5-5.5 12-9.9 24.1-9.9 19.5 0 33.4 14.4 33.4 35.4 0 22.8-14.6 39.7-39.1 39.7-30.9 0-41.2-23.8-41.2-53.9 0-27.7 9.8-56.6 42.5-56.6 23.2 0 34 14.5 35 27.9h-22.5zm2.1 44.8c0-10.1-3.8-19.2-16.6-19.2-10.4 0-16.4 6.1-16.4 18.4 0 8.6 4.1 20.1 16.5 20.1 11.3 0 16.5-8.5 16.5-19.3z"/></svg>