<?xml version="1.0" encoding="utf-8"?>
<!-- Generator: Adobe Illustrator 26.5.0, SVG Export Plug-In . SVG Version: 6.00 Build 0)  -->
<svg version="1.2" baseProfile="tiny" xmlns="http://www.w3.org/2000/svg" xmlns:xlink="http://www.w3.org/1999/xlink" x="0px"
	 y="0px" viewBox="0 0 800 800" overflow="visible" xml:space="preserve">
<g id="bg" display="none">
</g>
<g id="scratch" display="none">
</g>
<g id="counters_00000155831629897369998050000010902328751353074356_">
	<g>
		<g>
			<line fill="none" stroke="#FFFFFF" stroke-width="75" stroke-miterlimit="10" x1="99.9" y1="699.1" x2="699.9" y2="99.1"/>
			<line fill="none" stroke="#FFFFFF" stroke-width="75" stroke-miterlimit="10" x1="99.9" y1="99.1" x2="699.9" y2="699.1"/>
		</g>
		<g>
			<g>
				<path d="M575.1,316.8v44.7h-23.6V249.9h49.1c24.4,0,37.5,13.4,37.5,30.7c0,15-8.2,23.1-16.2,26.4c5.5,2,13.9,7.8,13.9,27.8v5.5
					c0,7.5,0.1,16.1,1.6,21.3h-22.9c-2-4.9-2.3-13.2-2.3-25.1v-1.6c0-12.2-3.1-18-21.1-18H575.1z M575.1,297.6h20.2
					c13.2,0,18.3-5,18.3-14.4c0-9.1-5.9-14.2-17.7-14.2h-20.8V297.6z"/>
				<path d="M663.6,361.6v-79.7c-4.9,2.3-14,4.2-19.3,4.6v-17.3c10.1-1.9,20.3-7.6,26.4-14.3h16.4v106.7H663.6z"/>
				<path d="M588.8,556l-23.9-39.3h-0.2L540.2,556h-26l37.1-56.2l-36.1-55.4h28l22.6,37h0.2l23.4-37H615l-36,53.2l37.7,58.5H588.8z"
					/>
				<path d="M669,475.3c-1.3-5.3-4.3-10.3-13.6-10.3c-14.3,0-18,13.4-18.6,27.7c4.5-5.5,12-9.9,24.1-9.9c19.5,0,33.4,14.4,33.4,35.4
					c0,22.8-14.6,39.7-39.1,39.7c-30.9,0-41.2-23.8-41.2-53.9c0-27.7,9.8-56.6,42.5-56.6c23.2,0,34,14.5,35,27.9H669z M671.1,520.1
					c0-10.1-3.8-19.2-16.6-19.2c-10.4,0-16.4,6.1-16.4,18.4c0,8.6,4.1,20.1,16.5,20.1C665.8,539.4,671.1,530.9,671.1,520.1z"/>
			</g>
		</g>
		<g>
			<path d="M240.3,305.4c8.6,2.7,8.1,4.1,8.4,12.1c0.2,5,0,8.3-3.8,11.2c-0.7,0.6-0.7,1.1,0,1.4c7.1,2.3,3,9,5.1,13.3
				c1.5,3-1.7,4.6-3.1,6.6c-4.7,6.8-4.6,7.1,2.4,11.2c0.6,0.3,1.2,0.2,1.2,1.6c0.4,6.2,0.4,12.2,5.3,17.8c2.2,2.6,3.2,8.5,4.6,13
				c2.4,7.7,7.3,14.5,9,22.4c0.3,1.6,1.8,2.3,2.9,3.3c2.9,2.9,5.7,6,5.4,10.6c-0.1,2.6,0.8,4.8,3,6c2,1.1,3.7,2,0.7,3.9
				c-1.7,1.1-1.4,2.5,0.1,3.7c4.8,3.7,6,9.2,6.7,14.8c0.5,3.8,3.7,5.5,5.7,8c1.7,2.1,1.9,4.7,2.9,6.7c3.5,7.2,2.8,16.5,10.4,21.6
				c1.1,0.7,2.6,1.2,2,2.8c-1.9,4.7,1.4,7.8,3.3,11.3c3.8,6.8,4.5,15.4,11,20.8c-3,6.2,6.1,10.2,2.8,16.8c-1,2.1,2.8,2.7,4.7,3.4
				c10.9,3.8,15.2,9.2,14.4,20.6c-0.6,9-9.7,7-15,9.7c-3.4,1.7-8.2,1.6-10-3.1c-2.7-7-8.8-13.2-3.5-22.1c2-3.3-3.4-7.1-4.7-11.2
				c-2.1-6.7-7.3-12.5-8.7-19.2c-1.7-8-7.6-13.7-9.6-21.4c-0.7-2.6-1.7-5.9-4.3-7c-5.4-2.3-4.3-6.6-4.7-10.9
				c-0.5-5.3-5.5-6.3-9.4-6.7c-6.4-0.7-13-0.2-19.5,0c-4.4,0.1-7,1.3-6.5,6.9c0.7,7.3-0.7,14.7-1.2,22.1c-0.2,3.1-2.4,3.1-3.2,4.3
				c-4.3,6-2.2,12.9-3.5,19.2c-0.3,1.6,0.4,3.4-0.8,4.9c-5.5,6.9-18.4,7.8-24.7,1.8c-1.4-1.4-3.2-2.7-2.2-5c3.2-6.8-1.1-4.9-4.7-4.3
				c-2.1,0.3-4.3,0.3-6.4-0.1c-6.7-1.1-7-1.9-3.1-7.6c3.8-5.5,3.7-22.4-0.1-28.2c-2.3-3.5-2-7.2,0.5-10.2c2.7-3.2,1.2-4.1-1.7-4.7
				c-9.1-2-18.3-1.4-26.9,1.2c-2.6,0.8-4.3,6.7-5.2,10.6c-0.7,3.2-1.8,5.7-4.3,7.6c-1.2,0.9-2.4,1.8-2.9,3.3
				c-3.9,10.4-9.7,20-14.1,30.1c-1.7,4-4.1,7.5-5.9,11.5c-1.9,4.4-3.1,7.8,0.1,12.2c1.7,2.4,0.2,5.9-1.3,8.6
				c-2.2,4.2-4.7,8.3-6.9,12.4c-1.3,2.4-3.3,2.4-5.6,2.4c-6.9-0.1-12.1-4.4-17.8-7.3c-2.2-1.1-2.1-3.7-0.8-5.7
				c0.5-0.9,1.8-1.5,2.1-2.5c2.7-8.2,5.5-15.7,14.8-19.3c3.3-1.3,1.7-7.8,4.7-11.5c4.1-5.1,9.1-10.5,5.8-18.2c-0.1-0.2,0.3-1,0.5-1
				c9.2-0.3,5.8-9.8,9.3-14.4c4.7-6.2,6.5-15.8,10.5-22.8c4-7.2,5-16.4,11.6-21.7c4.8-3.8,1.2-9.9,5.4-13.6c4.6-4,3.6-10.8,7.4-15.4
				c4.2-5.1,4-5.3-0.6-10.2c8.8-0.1,8.5-8,11.8-12.8c1.1-1.6,1.1-3.7,2.8-5.1c1.1-0.9,3.2-1.3,2.5-3.3c-0.7-2.1-2.8-1.7-4.5-1.4
				c-4.8,0.9-9.9,0.5-14.1,4c-2.1,1.8-5.2,2.1-8.1,2.1c-15.8-0.1-31.6,0-47.4-0.3c-18-0.3-18.3-0.9-17.3-18.7c0.2-3.4,0.2-3.4-4.1-5
				c0.6-0.4,1.2-0.7,1.4-1.1c4.3-7.7,11.7-7.1,18.9-7.6c11.5-0.7,22.9-0.7,34.4,0.1c8.4,0.6,16.6,1.3,24.9,2.5
				c8.2,1.2,17-1.8,25.4-3.4c3-0.6,5.4-2.8,4.9-6.7c-0.1-1-0.1-2.7,0.4-3.1c6.6-3.8,1.7-8.8,0.7-12.6c-0.9-3.4-0.6-7.2-2.8-10.3
				c-0.2-0.3-0.3-0.8-0.4-1.2c8.8-2.9-0.3-9.5,2.8-13.7c0.3-0.4,0.9-1.7-0.9-2.8c-3.5-2.2-1.4-4.6,1-6.5c1.9-1.4,4.5-1.5,6.2-4.1
				c-3.7-0.8-7.2-1.3-10.6-2.4c-3.1-1.1-4.2-3.3-1.1-5.7c2.9-2.2,3.3-5,3.5-8.5c0.5-7.8,1.1-15.6-0.8-23.2
				c-1.4-5.5,3.9-9.5,1.9-15.1c-1.6-4.3,0.9-9.3-2-13.8c-1-1.5,1.6-3.8,1.4-6.3c-0.3-4.6,1.9-8.9,1.2-13.8c-0.7-5.2,1.5-10.4,6-14
				c1.1-0.8,1.3-1.9,0.8-2.9c-3.5-6.9,3.2-12.9,1.8-20c-0.8-4,4.6-5.7,8.8-5.7c4.6,0,8.8,1,10,6.3c0.4,1.7,0,4.5,0.8,4.9
				c7.5,3.7,3.1,8.7,1.8,13.4c-1.2,4-0.8,7.7,3.7,9c4.5,1.2,2.5,5.4,2.3,6.7c-0.5,5.5,2.6,10.1,2.2,16c-0.5,6.5-5.5,15.3,2.7,21.1
				c0.2,0.2,0.2,0.6,0.4,1c-8.1,1.1-0.8,6.1-1.8,7.4c-2.6,3.3-1.5,6.1-1.8,9.5c-0.6,7.5,1.4,14.9,0.2,22.3c-0.1,0.9-0.4,1.5,0,2.3
				c4.1,7.6,4.1,7.6-4.3,11.4C243.2,304,242.3,304.4,240.3,305.4z M193.5,464.6c0,0,0,0.1,0,0.1c2.4,0,4.8,0,7.1,0
				c4.1-0.1,7.8-0.3,4.3-6c-1.2-1.9-2.2-4.8,1.2-5.9c2.7-0.9,3.2-1.8,0.8-3.6c-1.6-1.2-1.3-2.5-0.2-3.9c1.3-1.7,1.8-3.8,0.6-5.5
				c-3.2-4.4,2.4-9.7-1.6-14.1c-0.3-0.3,2.4-3.3-0.1-4.8c-2.2-1.3-4.1,0-6,1.1c-2.7,1.7-4.5,4.2-5.6,7c-3.1,7.7-6.7,15.3-10.4,22.7
				c-0.8,1.5-2.1,2.8-2.8,4.4c-3.1,6.8-2.8,7.3,4.4,8.1C187.8,464.5,190.7,464.5,193.5,464.6z M265.6,465.7c0-0.1,0-0.2,0-0.3
				c2.6-0.1,5.2-0.2,7.8-0.4c1.1-0.1,2.7-1.3,2.2-1.6c-5.2-2.8-1-8.7-3.4-11.4c-3.8-4-4.6-9.1-7.1-13.5c-1.1-2-1.9-4.1-4.8-3.3
				c-8.1,2.3-11.7,10.3-18.1,14.9c-3.8,2.7,4.3,3.6,4,7c0,0.2,0.2,0.4,0.1,0.6c-0.9,7.2,3.9,7.2,8.9,7.2
				C258.8,465.1,262.2,465.5,265.6,465.7z M252.9,413c0.3-2.6-0.8-4.8-3.6-5.7c-2-0.7-4.6-1.1-6.1,0.7c-1.6,2,0.6,3,2,3.9
				c2.8,1.7,1,3.9,0,4.8c-3.5,3-2.3,5.9-1.3,9.5c0.7,2.6,4.2,5.5,0.1,8.8c-1.1,0.9,1.3,2.5,2.8,2c5.3-1.6,8.1-5.6,10.4-10.6
				c1.9-4.1-0.7-5.5-2.7-7.5C253,417.3,251.6,415.8,252.9,413z"/>
			<path d="M198.6,284.2c-4,4-2.8,8.5-2.1,12.7c0.4,2.3,0.9,12.6,0.2,15.1c-0.7,2.8,2.4,3.2,3.5,5.5c-5.4,0.9-5.8,3.6-4,8.4
				c4,10.9-0.2,16.5-12,16.5c-5.4,0-10.8-0.3-16.2-0.7c-1.9-0.1-4.7-0.3-5.4-1.5c-3.7-6.1-8.4-3.7-13.5-2.9
				c-6.8,1-13.8,0.8-20.7,1.1c-2.7,0.1-5.3-1.1-5.4-3.7c-0.1-4.5-2.1-9.3-1.3-13.2c1.6-7.1-1.2-13.7-0.6-20.4
				c0.9-9.6-1.1-19.1,0.2-28.7c0.7-5.3,3.8-7.6,8.7-7.8c6.1-0.2,12.1-0.2,18.2-0.1c3.4,0.1,6.3,1.2,7.2,5.2c0.6,2.9,2.1,4,4.1,0.9
				c1.8-2.7,4.6-3,7.4-3.1c5.8-0.2,11.7-0.1,17.5-0.4c6.4-0.4,9.7,2,9.9,8.8C194.5,279.2,194.5,283.5,198.6,284.2z"/>
			<path d="M179.8,627.7c-10.4,0-20.8-0.2-31.1,0.1c-8,0.2-14.6-3.3-21.2-7c-3.8-2.2-3-4.5,0.7-6.7c14.1-8.3,29.5-9.2,45.2-8.9
				c14.9,0.3,29.9,0.8,44.7-0.7c7.4-0.7,14.6,0.5,21.9,0.7c13.6,0.5,27.1-2.5,40.7-1c6.6,0.8,12.7,4.5,19.6,3.7
				c2.2-0.2,2.9,1.7,2.6,3.6c-0.6,3.6,1,8.4-4.2,9.8c-4.4,1.2-8.9,2.4-13.3,2.6c-14.5,0.5-29,1.1-43.4,1
				C221.1,624.9,200.5,628.2,179.8,627.7z"/>
		</g>
	</g>
</g>
<g id="text" display="none">
</g>
<g id="guides" display="none">
</g>
</svg>
