<svg xmlns="http://www.w3.org/2000/svg" xml:space="preserve" viewBox="0 0 800 800"><g fill="none" stroke="#FFF" stroke-miterlimit="10" stroke-width="75"><path d="m98.6 700.5 600-600M98.6 100.5l600 600"/></g><path fill="none" d="M-.2.5h800v800H-.2z"/><path d="M185.8 550.8c3.3 1.1 5.3 1.5 7 2.4 4.2 2.2 5 6.5 1.3 8.9-3.5 2.2-1.9 3.1.4 4.2 1.5.7 3 1.1 3.4 3.4.7 3.8-2 5.7-3.6 8.3 4.3 1.6 3.4 3.9 1.7 7.3-1.8 3.4-.9 6.9 4.6 7-1.8 3.3-3.7 5.2-7.2 5.1-1.1 0-2.3.5-1.9 2 .3 1 1.3 1.2 2.1 1 8.1-1.4 8.8 5.2 11 10.2 2.1 4.8 2.1 10.7 7.3 14 1.5 1 1.7 3 1.1 4.8-.4 1.4-1.5 3.1.4 4.1 1.9 1 3.8-.2 4.6-1.5 2.2-3.2 3.7-3.1 6.7-.7 1.4 1.1 6.5 3.1 4.6-3-.4-1.3.5-1.9 1.1-2.8 5.4-7.7 3.6-12.1-5.1-15.3-6.7-2.4-2.9-8.4-1.5-11.5 1.7-3.7 0-6.6.4-9.9.5-3.5-1.4-7.1.9-10.5.4-.7 1.1-1.8.9-2.2-4-6.7 1.4-13.9-.9-20.7-.9-2.6.9-4 3.5-4.3 1.6-.2 3.5 1 5-.6-8.1-1.6-9.5-5.2-7.4-13.7 1.5-6 2.6-13 1-18.7-2.1-7.5.9-13.1 3-19.4.7-2.1 2.4-2.1 4.3-1.2 3.3 1.5 5.8.9 7.3-2.9 1.6-4.1 5.6-3.7 8.5-2.5 2.4 1 7.7-.4 6.3 5.8-.6 2.7 2.7 3.2 4.8 2.9 1.6-.2 4.3 2.1 4.6-2.3.3-4.4 3.8-6 8.2-5.3 1.9.3 4 .6 5.9.3 4.9-1 7.9.9 9.8 5.4 1.5 3.4 2.6 4.8 6.7 1.1 6.5-5.7 9-11.9 8.1-20.2-.2-1.4.7-3 .9-4.5.1-1.2.3-2.2 1.7-2.3 1.5-.1 2.6.9 2.8 2.3.4 3 1.8 6.8.5 8.8-4.6 7.3 3 11 4 16.5.4 2.3 3.4 1.4 5.2 1.8 5.2 1 7 2.2 7.3 9.1.3 7.5-2.9 15.1.4 23.2 1.7 4.1-.7 10.6-.6 16.1.1 11-1.1 22-1.5 33-.2 8.3-1.4 16.5.1 24.9.4 2.2-2.8 7.7-8.1 7.2-3.8-.3-6.4.5-8.8 4-3.2 4.6-15.6 4-19-.3-3.3-4.2-7.1-6.9-12.9-6-2.8.4-5.8.3-8.5-.4-15.8-4-24.1 3.2-28.9 17.6-2.3 7-16.5 10.1-25.1 7.8-6.6-1.8-8.7-7.2-12.1-11.6-6.6-8.5-10.7-18.5-13.7-28.7-1.3-4.5-.7-9.7-.7-14.6 0-3.1-.6-6.7-1.1-10-1.4-7.3 4.5-14.7-.8-22.9zM209.9 487c1 1.9 1.8 3.7 2.9 5.4 1.9 3.1-.7 5.4-2.1 6.8-2.2 2.2-5.7.8-8-.4-2-1.1-.3-3.4.3-5.3 2.2-6.9 3.3-14.3 6.6-20.6 1.6-3.1 1.4-8.5 6.9-9.3 3.3-.5 3.2-3.5.8-4.6-7.3-3.2-4.5-9.8-5.3-15-.5-3 .8-6.2.1-9.6-.9-4.6 3.7-5.3 6.4-5.7 6.4-.7 7.6-3.8 5.9-9.3-.5-1.7-2.6-3.8.9-5.1.9-.3-3.3-7.8-4.9-8.2-.4-.1-1 .1-1.3-.1-3.5-2-10.2 4.2-10.9-3.5-.4-4.3-3.5-8.7-.6-13.2.8-1.3.1-2.4-.6-3.7-2.6-5-.2-9.2 5.6-9.8 11.6-1.2 22.6 7.6 26.3 19.3 2.4 7.6 5.5 14.9 5.4 22.9-.1 8.4.2 16.7-4.1 24.6-3.8 7-8.8 11.8-15.8 15.2-2.5 1.2-2.3 4.5-2 6.9.6 5.1-.8 9.4-3.8 13.4-1 1.3-1.8 2.9-1.6 4.9.4 5.7-4.5 2.3-7.1 4zM309.9 440.4c-2.8-4.4-2.5-7.1-2.4-10.4.2-13.2 2.4-26.3 2-39.6-.3-7.9.4-16.2 1.6-24.4 1.6-10.9 1.5-22 1.1-33.1-.1-2.5.8-5-.2-7.6-.8-2.1.9-3.7 2.5-3.9 2.8-.2 1.7 1.7 1.6 3.5-.1 7.5 1 15.1.3 22.5-.6 6.2.8 12.3-1.1 18.7-1.5 5 .1 10.7-.1 16.1-.6 16.1-1.3 32.3-2.3 48.4-.2 3-1.7 5.8-3 9.8z"/><path d="M191.8 537.5c1.9 1.5 2.9 2.2 3.9 3.1 2.3 2 4.1 4.6 2.2 7.3-2 3-5.6 2-8.5 1.3-.8-.2-2.1-2.1-2-2.3 5.2-7.3 2.6-16.3 5.4-24.1 1.9-5.1 1.9-10.8 5.3-15.5 2.1-2.9 3.6-5.5 7.6-3.3 3.7 2.1 4.2 4.5 1.3 7.7-1.1 1.2-1.4 3.2-3.3 3.9-1.6.6-3 1.6-.3 2.9 2.1 1 1.7 2.4 0 3.3-3.5 1.9-4 4.6-3.2 8.2 1.2 6-3.9 5.8-8.4 7.5zM312.3 446c-.6 7.6-1.2 15.2-1.7 22.7-.2 2.5-1.5 3.6-3.7 3.6-3.7-.1-1.8-2.6-1.5-4.2 1.1-7.3 2-14.6 1.5-22-.1-2.4-.9-5.9 3.3-5.6 3.5.4 2.7 3.2 2.1 5.5zM317.3 226.1c.2 2.2.5 3.7.3 5.2-.1 1.3-.7 2.7-2.5 2.2-1-.3-2.6-1.2-1.9-2.2 1.8-2.8-.8-5.6.3-8.3.6-1.5.1-4.2 2.4-4 2.1.2 1.8 2.7 1.8 4.4 0 1.2-.3 2.3-.4 2.7zM312.9 264.3c2-2.8-.3-5.2.1-7.7.2-1.1-.1-2.4 1.2-2.7 1.6-.3 2.5.9 2.6 2.3.2 4.4-1.7 8.8.1 13.1.1.2-.8 1.1-1.3 1.2-1.3.3-2.1-.6-2.5-1.6-.8-1.6 1.5-3.2-.2-4.6zM314.6 313.7c-.3-.6-.5-1.2-.9-1.7-2.4-2.9-1.8-6.1-1-9.3.2-.8 1.6-1 2.3-.3 2.5 2.3 1 5.4 1.2 8.1.1.8-.1 1.7-.2 2.6-.5.2-.9.4-1.4.6zM317.4 198.1c.4 2.2 1.5 4.9-1.7 5.3-1.1.1-3.2-3.1-2.1-4.4 1.6-1.8-2.2-5.4 1.9-5.5 4.4-.2 1.2 3.2 1.9 4.6zM316.1 216.3c-4-3-.7-6.8-1.1-10.2-.1-1.2 2.4-.9 2.3-.1-.2 3.4 3.6 7.5-1.2 10.3zM314.1 281.6c2.1 2.7 1.8 5.6 2.4 8.2.3 1.3.5 2.8-1.5 2.8-1.9 0-1.2-1.6-1.6-2.7-1.1-2.8-1.9-5.3.7-8.3z"/><path stroke="#000" stroke-miterlimit="10" stroke-width="5" d="M315.8 194.5v12l-1 15-1 34v68l-4 119-2 34"/><path fill="none" d="M300.3 200.2h400V800h-400z"/><path d="M428.8 320.2v44.7h-23.6V253.3h49.1c24.4 0 37.5 13.4 37.5 30.7 0 15-8.2 23.1-16.2 26.4 5.5 2 13.9 7.8 13.9 27.8v5.5c0 7.5.1 16.1 1.6 21.3h-22.9c-2-4.9-2.3-13.2-2.3-25.1v-1.6c0-12.2-3.1-18-21.1-18h-16zm0-19.2H449c13.2 0 18.3-5 18.3-14.4 0-9.1-5.9-14.2-17.7-14.2h-20.8V301zM517.3 364.9v-79.7c-4.9 2.3-14 4.2-19.3 4.6v-17.3c10.1-1.9 20.3-7.6 26.4-14.3h16.4v106.7h-23.5zM544.7 383.7c9.4-21.6 10.9-35.4 11.9-47.2h23.8c-1.7 16-7 33.9-17.7 47.2h-18zM617.4 364.9v-1.5c0-18.6 8.3-33.6 31.4-50.5 15-11 19.6-14.8 19.6-24.1 0-9.2-4.5-14.4-13.5-14.4-10.4 0-14.2 6.4-15.7 15.7h-22.4c1.5-18.4 13.6-33.7 38.1-33.7 27.4 0 36.8 16.3 36.8 32.3 0 15.5-6.7 23-26.3 36.8-13.1 9.2-18.4 15.3-20.2 20.1h50.5l-2.9 19.3h-75.4zM588.6 559.3 564.7 520h-.2l-24.4 39.3h-26l37.1-56.2-36.1-55.4h28l22.6 37h.2l23.4-37h25.6l-36 53.2 37.7 58.4h-28z"/><path d="M668.8 478.7c-1.3-5.3-4.3-10.3-13.6-10.3-14.3 0-18 13.4-18.6 27.7 4.5-5.5 12-9.9 24.1-9.9 19.5 0 33.4 14.4 33.4 35.3 0 22.8-14.6 39.6-39.1 39.6-30.9 0-41.2-23.8-41.2-53.9 0-27.7 9.8-56.5 42.5-56.5 23.2 0 34 14.5 35 27.9h-22.5zm2.1 44.8c0-10.1-3.8-19.2-16.6-19.2-10.4 0-16.4 6-16.4 18.4 0 8.6 4.1 20.1 16.5 20.1 11.3 0 16.5-8.5 16.5-19.3z"/></svg>