<svg xmlns="http://www.w3.org/2000/svg" xml:space="preserve" viewBox="0 0 800 800"><path d="M255.1 518.3c0-26.9 0-53.9.1-80.8 0-3.1-.1-5.3-4.2-4.4-2.4.6-3.4-.7-2.9-3 1.4-5.9.1-11.9.3-17.9.4-13.4.2-26.8.2-40.2 0-1.8-.9-3.7-1.1-5.3-.6-3.8.4-7.9.7-11.9 7.8-2.5 5.4-9.1 5.5-14.4.3-13.8.3-27.6.4-41.4 0-1 .9-2.2-1.1-2.3-.3 0-.9-.6-.9-.7 2.2-4.9-2.2-8.3-2.8-12.6-.7-4.7-2.8-9.1-4.1-13.7-2.2-7.4-4.1-15-6.6-22.4-1-3-2-5.5-1-9 .8-2.8.2-5.9 4.6-5.3 1.5.2 1.7-1 1.7-2.2-.1-9.6 6.9-16.1 10.5-24 .5-1.1 1.6-1.3 2.8-1.3 1.5 0 3.1.3 4.5-.1 9.2-2.3 14 2 17 10.3 1.9 5 6 9.2 5 15.2-.4 2.1 1.3 2.1 2.7 1.9 2.3-.2 3.1.6 3 3-.1 1.9-.8 4.1 1 5.8.3.2.2 1.1 0 1.5-6.5 14.3-9 29.9-14.3 44.5-4 10.8-2 21.5-2.4 32.2-.6 18.8-.7 37.7.1 56.5.3 8.1-.1 16.1 0 24.1.1 5.1.2 10.2.4 15.2 1.8 58.3.2 116.7 1.3 175 .1 3.4.2 6.8.4 10.2.2 2.1-.5 3-2.7 3-4.4 0-8.7.2-13.1.4-3.6.2-5-1.1-5-5 .1-26.8 0-53.8 0-80.9zm26.2-274.2h-33.1c-1.9 0-2.5.5-1.5 2.4 4.4 8.5 8.6 17 13.1 25.4 2 3.7 5.5 3.6 7.4-.1 4.8-9.1 9.3-18.2 14.1-27.7zm-16.6 137.5h-4.9c-1.2 0-2.2.1-2.1 1.7.1 1.2.4 2.2 1.8 2.2 3.4 0 6.8-.1 10.1-.2 1.4 0 1.7-1 1.7-2.2 0-1.3-.8-1.5-1.9-1.5h-4.7zm-10.3 26c1.5-13 .4-25.9 0-38.9v38.9zm10.2 17.3v-.3h5.3c.9 0 1.6-.3 1.5-1.4-.1-.8-.7-1.1-1.4-1.1-3.4 0-6.8.1-10.2.1-1 0-1.5.5-1.4 1.5.1.8.6 1.2 1.4 1.2h4.8zm-1.8-102.7c0 1.9-.1 3.8 0 5.7.2 2.1 1.8 1.3 2.7 1 2.1-.8-.5-.6-.4-1.3.2-.9-.1-1.9-.1-2.8 0-2.3.2-4.6.1-6.9 0-.9.3-2.5-1.4-2.4-1.3.1-.9 1.4-1 2.3 0 1.4.1 2.9.1 4.4zm1.1 11.8h5.7c.8 0 1.4-.3 1.3-1.1 0-.6-.5-1-1.1-1-3.8 0-7.6 0-11.4.1-.7 0-1.4.4-1.4 1.2 0 1 .9.8 1.5.9 1.8-.1 3.6-.1 5.4-.1zm16.7-91.4v-.2h-33.3v.2h33.3zm-15.8 144.2c-2 0-4.1.1-6.1 0-1.2 0-1.5.7-1.2 1.6.5 1.7 1 0 1.6 0 3.8-.5 7.6-.7 11.3-.2.5.1.9 1.3 1.4.1.4-.9-.2-1.5-1.2-1.5h-5.8zM242.2 239c-.8-1.1 1-3.7-1.3-3.8-2.6-.1-1.4 2.7-1.6 4.1-.2 1.2-1.1 3.5 1.1 3.6 2.7.1 1-2.5 1.8-3.9zm45.8 0c-.6-1.5 1-3.9-1.4-4.2-2.4-.3-1.4 2.2-1.3 3.4.1 1.5-1.2 4.2 1.3 4.4 3 .2.3-2.6 1.4-3.6zm-32.7 183.2v-8.5c-.6 2.9-1.2 5.7 0 8.5z"/><path fill="none" stroke="#000" stroke-miterlimit="10" stroke-width="10" d="M401 301h200v200H401z"/><path fill="none" d="M400 300h200v200H400z"/><path d="M461.6 379.9c1.5-13.1 10.8-29.3 37.4-29.3 24.7 0 35.7 14 35.7 29 0 12.8-7.4 18.9-13.2 21.6v.5c6.9 2.5 17.3 9.2 17.3 25.7 0 15.4-9.3 33.7-40 33.7-28.6 0-38.3-17.2-39.4-31.3H482c1.5 7.3 6.5 13.6 17.5 13.6 10.7 0 16-6.9 16-16.3 0-9.9-5-15.8-17.5-15.8h-9.6v-17.9h8.4c10.6 0 14.9-3.5 14.9-12.5 0-7.3-4.4-12.3-13.5-12.3-10.8 0-13.4 6-14.6 11.3h-22z"/></svg>