<svg xmlns="http://www.w3.org/2000/svg" xml:space="preserve" viewBox="0 0 800 800"><path fill="none" d="M0 0h800v800H0z"/><path d="M242.1 361.7c1.5 3.1-3.5 10 1.8 15.5.9.9-.6 1.9-.9 2.8-1.8 5-.2 8.5 4.3 11.4 11.7 7.6 16.2 24.1 8.1 35.1-2 2.7-3.7 5.9-6.7 7.9-3.9 2.6-6 4.9-4.9 10.9.9 5 1.3 11.4-.6 16.7-1.3 3.8 0 7.4-.1 10.9-.2 6.4-1.9 11.8-5.4 16.8-.3.5-1.1.8 0 .9 6.8 1 2.3 3.8 1.8 6.9-.8 4.8.6 10 1.1 15 .7 7.7 2.8 15.7 1.9 23.2-1.5 11.9 1.3 23.2 1.6 34.8.1 5.1-2.3 10.6-7.6 13.6-3.4 1.9-13.3-3.3-12-6.6 1.5-3.9-1.2-6.2-1.5-9.3-.8-10.2 1-20.3.8-30.5-.1-5.6.5-11.2-.6-16.7-.7-3.8 1.6-7.1 1.6-11.1 0-6.1 1.9-12.1 0-18.3-.4-1.1.8-2.8 1.4-4.2.3-.6 1.6-1.3 1.5-1.4-7.1-10.5-3.8-22.7-5.4-34.1-.2-1.5-.2-3 .9-4.3 1.9-2.3 1.1-5.5-.9-8-5.2-6.3-12.8-10.2-15.3-19.4-2.6-9.8 2.8-25.2 12.5-28.4 3.5-1.2 4-4 4.7-7.1 1.5-6.3-.1-12.6-.4-18.8-.2-4.4 0-9.1.4-13.1.4-3.8-.9-4-2.9-4.4-5.5-1.1-11-3-16.7-1.5-2.9.8-5.1-.9-7.5-1.6-4.6-1.4-9.2-2.3-14.1-2.4-3.8-.1-7-1.4-3.7-5.8 1.6-2.2-2.1-4.2.2-5.8 2.6-1.8 4.3-7.5 8.9-1.1 4.1 5.6 11.5 5.4 18 6.1 2.8.3 5.6.7 8.3 1.6 8.6 2.8 11.5.4 11.7-8.7.2-10.1 1-20.2 1.3-30.3.3-8.7 0-17.4-3.3-25.7-.8-2.1-.6-4.6-.7-6.8-.2-3.4-1.7-7.7 2.3-10.1 3.7-2.2 8.1-1.3 11.2.8 3.7 2.5 4 8 2.6 11.3-5.1 11.7-3.5 24-4.3 36.1-.5 7.2.1 14.5 3.1 21.5.8 1.7.2 4.4-.4 6.4-1.3 4.3 1.9 5.9 4.2 8 2.4 2.2 4.5 1.3 6.7-1 1.6-1.7 4.2-.6 6.3-1.1 5.8-1.5 11.6-2.5 16.9-6.2 6.7-4.7 10.9-1.9 11.6 6.1.4 4.9-2.5 5.1-6 5.6-10.2 1.5-20.2 3.6-30.4 4.7-7.3.8-6.9 5.3-5.4 13.2zm-12.2 197.6c.8 1.9.1 4.9 2.3 5.1 2.9.2 2.5-3 2.9-5 .5-2.4-.9-4.1-3.1-4-2.1.1-1.7 2.5-2.1 3.9zm2.7-25.6c2.8-2.2 1.7-5 2.2-7.4.4-1.9-.9-2.7-2.7-2.6-2.8.1-1.8 1.4-1.1 3 1 2-.4 4.5 1.6 7z"/><path fill="none" d="M299.6 100.5h400v600h-400z"/><path d="M370.1 153.5h24.2v91.9h55.6l-2.8 19.8h-77V153.5zM549.4 223.3c0-19.1.3-40.4.8-53h-.8c-5.2 22.8-16.4 60-27.1 94.9h-20.6c-8.1-30.6-19.7-72.9-24.6-95.2h-.8c1 13.1 1.4 36.1 1.4 55.2v40h-22V153.5h35.9c8.7 29.2 18.5 65.8 21.8 82.4h.2c2.7-14.7 15-53.8 24.3-82.4h34.6v111.7h-23.3v-41.9zM688.4 265.2h-17.7c-.9-3.4-1.5-7.3-1.8-11-6.2 8.3-17.1 12.9-32.6 12.9-32.4 0-50.5-24.5-50.5-56.3 0-33.6 19.5-58.9 54.7-58.9 28.7 0 45.7 16.2 48.4 35.3h-24.2c-2.3-7.5-8.2-16.3-24.5-16.3-22.9 0-29.5 19.2-29.5 38.9 0 19.2 7.5 38.1 29.6 38.1 20.6 0 24.5-14.3 24.5-24.3v-1h-24.5v-19.8h48.2v62.4zM479.9 459.6v-1.5c0-18.6 8.3-33.7 31.4-50.5 15-11 19.6-14.8 19.6-24.1 0-9.2-4.5-14.4-13.5-14.4-10.4 0-14.2 6.4-15.7 15.7h-22.4c1.5-18.4 13.6-33.7 38.1-33.7 27.4 0 36.8 16.3 36.8 32.3 0 15.5-6.7 23-26.3 36.8-13.1 9.2-18.4 15.3-20.2 20.1h50.5l-2.9 19.3h-75.4zM605.4 407.8V428h-45.1v-20.2h45.1zM668.1 379c-1.3-5.3-4.3-10.3-13.6-10.3-14.3 0-18 13.4-18.6 27.7 4.5-5.5 12-9.9 24.1-9.9 19.5 0 33.4 14.4 33.4 35.4 0 22.8-14.6 39.7-39.1 39.7-30.9 0-41.2-23.8-41.2-53.9 0-27.7 9.8-56.6 42.5-56.6 23.2 0 34 14.5 35 27.9h-22.5zm2.1 44.8c0-10.1-3.8-19.2-16.6-19.2-10.4 0-16.4 6.1-16.4 18.4 0 8.6 4.1 20.1 16.5 20.1 11.2 0 16.5-8.5 16.5-19.3zM352.9 542.3h48.8c27 0 37.2 14.1 37.2 28.6 0 12.6-6.7 20.8-14.2 24.2 7.5 2.8 17.4 10.8 17.4 25.5 0 19.1-15 33.4-38.8 33.4h-50.4V542.3zm46.1 44.1c11.5 0 16.2-5.2 16.2-13 0-8.2-6.2-12.4-15.5-12.4h-23v25.4H399zm-22.4 49h21.8c13.1 0 19-5.5 19-15.6 0-9-5.8-14.7-19.1-14.7h-21.7v30.3zM467.2 654v-79.7c-4.9 2.3-14 4.2-19.3 4.6v-17.3c10.1-1.9 20.3-7.6 26.4-14.3h16.4V654h-23.5zM585.7 600c0 29.3-9.3 55.9-41 55.9-31.3 0-40.9-25.7-40.9-55.2 0-29.2 10.7-55.2 41.4-55.2 29.8 0 40.5 24.3 40.5 54.5zm-58 .4c0 19.6 2.2 37 17.3 37 14.7 0 16.7-16.3 16.7-37.3 0-20.7-2.5-36.2-16.4-36.2-13.6 0-17.6 13.5-17.6 36.5zM652.1 562.6v35.7h35v19.4h-35V654h-19.5v-36.3h-35.4v-19.4h35.4v-35.7h19.5z"/></svg>