<svg xmlns="http://www.w3.org/2000/svg" xml:space="preserve" viewBox="0 0 800 800"><g fill="none" stroke="#FFF" stroke-miterlimit="10" stroke-width="75"><path d="m99.8 700.4 600-600M99.8 100.4l600 600"/></g><path fill="none" d="M.9.4h800v800H.9z"/><path d="M186.9 550.7c3.3 1.1 5.3 1.5 7 2.4 4.2 2.2 5 6.5 1.3 8.9-3.5 2.2-1.9 3.1.4 4.2 1.5.7 3 1.1 3.4 3.4.7 3.8-2 5.7-3.6 8.3 4.3 1.6 3.4 3.9 1.7 7.3-1.8 3.4-.9 6.9 4.6 7-1.8 3.3-3.7 5.2-7.2 5.1-1.1 0-2.3.5-1.9 2 .3 1 1.3 1.2 2.1 1 8.1-1.4 8.8 5.2 11 10.2 2.1 4.8 2.1 10.7 7.3 14 1.5 1 1.7 3 1.1 4.8-.4 1.4-1.5 3.1.4 4.1 1.9 1 3.8-.2 4.6-1.5 2.2-3.2 3.7-3.1 6.7-.7 1.4 1.1 6.5 3.1 4.6-3-.4-1.3.5-1.9 1.1-2.8 5.4-7.7 3.6-12.1-5.1-15.3-6.7-2.4-2.9-8.4-1.5-11.5 1.7-3.7 0-6.6.4-9.9.5-3.5-1.4-7.1.9-10.5.4-.7 1.1-1.8.9-2.2-4-6.7 1.4-13.9-.9-20.7-.9-2.6.9-4 3.5-4.3 1.6-.2 3.5 1 5-.6-8.1-1.6-9.5-5.2-7.4-13.7 1.5-6 2.6-13 1-18.7-2.1-7.5.9-13.1 3-19.4.7-2.1 2.4-2.1 4.3-1.2 3.3 1.5 5.8.9 7.3-2.9 1.6-4.1 5.6-3.7 8.5-2.5 2.4 1 7.7-.4 6.3 5.8-.6 2.7 2.7 3.2 4.8 2.9 1.6-.2 4.3 2.1 4.6-2.3.3-4.4 3.8-6 8.2-5.3 1.9.3 4 .6 5.9.3 4.9-1 7.9.9 9.8 5.4 1.5 3.4 2.6 4.8 6.7 1.1 6.5-5.7 9-11.9 8.1-20.2-.2-1.4.7-3 .9-4.5.1-1.2.3-2.2 1.7-2.3 1.5-.1 2.6.9 2.8 2.3.4 3 1.8 6.8.5 8.8-4.6 7.3 3 11 4 16.5.4 2.3 3.4 1.4 5.2 1.8 5.2 1 7 2.2 7.3 9.1.3 7.5-2.9 15.1.4 23.2 1.7 4.1-.7 10.6-.6 16.1.1 11-1.1 22-1.5 33-.2 8.3-1.4 16.5.1 24.9.4 2.2-2.8 7.7-8.1 7.2-3.8-.3-6.4.5-8.8 4-3.2 4.6-15.6 4-19-.3-3.3-4.2-7.1-6.9-12.9-6-2.8.4-5.8.3-8.5-.4-15.8-4-24.1 3.2-28.9 17.6-2.3 7-16.5 10.1-25.1 7.8-6.6-1.8-8.7-7.2-12.1-11.6-6.6-8.5-10.7-18.5-13.7-28.7-1.3-4.5-.7-9.7-.7-14.6 0-3.1-.6-6.7-1.1-10-1.3-7.3 4.5-14.7-.8-22.9zM211 486.9c1 1.9 1.8 3.7 2.9 5.4 1.9 3.1-.7 5.4-2.1 6.8-2.2 2.2-5.7.8-8-.4-2-1.1-.3-3.4.3-5.3 2.2-6.9 3.3-14.3 6.6-20.6 1.6-3.1 1.4-8.5 6.9-9.3 3.3-.5 3.2-3.5.8-4.6-7.3-3.2-4.5-9.8-5.3-15-.5-3 .8-6.2.1-9.6-.9-4.6 3.7-5.3 6.4-5.7 6.4-.7 7.6-3.8 5.9-9.3-.5-1.7-2.6-3.8.9-5.1.9-.3-3.3-7.8-4.9-8.2-.4-.1-1 .1-1.3-.1-3.5-2-10.2 4.2-10.9-3.5-.4-4.3-3.5-8.7-.6-13.2.8-1.3.1-2.4-.6-3.7-2.6-5-.2-9.2 5.6-9.8 11.6-1.2 22.6 7.6 26.3 19.3 2.4 7.6 5.5 14.9 5.4 22.9-.1 8.4.2 16.7-4.1 24.6-3.8 7-8.8 11.8-15.8 15.2-2.5 1.2-2.3 4.5-2 6.9.6 5.1-.8 9.4-3.8 13.4-1 1.3-1.8 2.9-1.6 4.9.5 5.7-4.5 2.2-7.1 4zM311 440.3c-2.8-4.4-2.5-7.1-2.4-10.4.2-13.2 2.4-26.3 2-39.6-.3-7.9.4-16.2 1.6-24.4 1.6-10.9 1.5-22 1.1-33.1-.1-2.5.8-5-.2-7.6-.8-2.1.9-3.7 2.5-3.9 2.8-.2 1.7 1.7 1.6 3.5-.1 7.5 1 15.1.3 22.5-.6 6.2.8 12.3-1.1 18.7-1.5 5 .1 10.7-.1 16.1-.6 16.1-1.3 32.3-2.3 48.4-.2 3-1.7 5.8-3 9.8z"/><path d="M193 537.4c1.9 1.5 2.9 2.2 3.9 3.1 2.3 2 4.1 4.6 2.2 7.3-2 3-5.6 2-8.5 1.3-.8-.2-2.1-2.1-2-2.3 5.2-7.3 2.6-16.3 5.4-24.1 1.9-5.1 1.9-10.8 5.3-15.5 2.1-2.9 3.6-5.5 7.6-3.3 3.7 2.1 4.2 4.5 1.3 7.7-1.1 1.2-1.4 3.2-3.3 3.9-1.6.6-3 1.6-.3 2.9 2.1 1 1.7 2.4 0 3.3-3.5 1.9-4 4.6-3.2 8.2 1.1 5.9-4 5.8-8.4 7.5zM313.4 445.9c-.6 7.6-1.2 15.2-1.7 22.7-.2 2.5-1.5 3.6-3.7 3.6-3.7-.1-1.8-2.6-1.5-4.2 1.1-7.3 2-14.6 1.5-22-.1-2.4-.9-5.9 3.3-5.6 3.6.4 2.7 3.1 2.1 5.5zM318.4 226c.2 2.2.5 3.7.3 5.2-.1 1.3-.7 2.7-2.5 2.2-1-.3-2.6-1.2-1.9-2.2 1.8-2.8-.8-5.6.3-8.3.6-1.5.1-4.2 2.4-4 2.1.2 1.8 2.7 1.8 4.4 0 1.2-.3 2.2-.4 2.7zM314 264.2c2-2.8-.3-5.2.1-7.7.2-1.1-.1-2.4 1.2-2.7 1.6-.3 2.5.9 2.6 2.3.2 4.4-1.7 8.8.1 13.1.1.2-.8 1.1-1.3 1.2-1.3.3-2.1-.6-2.5-1.6-.8-1.6 1.5-3.3-.2-4.6zM315.7 313.6c-.3-.6-.5-1.2-.9-1.7-2.4-2.9-1.8-6.1-1-9.3.2-.8 1.6-1 2.3-.3 2.5 2.3 1 5.4 1.2 8.1.1.8-.1 1.7-.2 2.6-.5.1-.9.4-1.4.6zM318.6 198c.4 2.2 1.5 4.9-1.7 5.3-1.1.1-3.2-3.1-2.1-4.4 1.6-1.8-2.2-5.4 1.9-5.5 4.4-.2 1.1 3.2 1.9 4.6zM317.2 216.2c-4-3-.7-6.8-1.1-10.2-.1-1.2 2.4-.9 2.3-.1-.2 3.4 3.6 7.4-1.2 10.3zM315.2 281.4c2.1 2.7 1.8 5.6 2.4 8.2.3 1.3.5 2.8-1.5 2.8-1.9 0-1.2-1.6-1.6-2.7-1-2.7-1.8-5.3.7-8.3z"/><path fill="none" d="M300.5 100.3h400V300h-400z"/><path d="M367.6 214.6v44.7H344V147.6h49c24.4 0 37.5 13.4 37.5 30.7 0 15-8.2 23.1-16.2 26.4 5.5 2 13.9 7.8 13.9 27.8v5.5c0 7.5.1 16.1 1.6 21.3h-22.9c-2-4.9-2.3-13.2-2.3-25.1v-1.6c0-12.2-3.1-18-21.1-18h-15.9zm0-19.2h20.2c13.2 0 18.3-5 18.3-14.4 0-9.1-5.9-14.2-17.7-14.2h-20.8v28.6zM456.1 259.3v-79.7c-4.9 2.3-14 4.2-19.3 4.6v-17.3c10.1-1.9 20.3-7.6 26.4-14.3h16.4v106.7h-23.5zM588.8 259.3 564.9 220h-.2l-24.4 39.3h-26l37.2-56.2-36.1-55.4h28l22.6 37h.2l23.4-37H615l-36 53.2 37.7 58.5h-27.9z"/><path d="M669 178.6c-1.3-5.3-4.3-10.3-13.6-10.3-14.3 0-18 13.4-18.6 27.7 4.5-5.5 12-9.9 24.1-9.9 19.5 0 33.4 14.4 33.4 35.4 0 22.8-14.6 39.7-39.1 39.7-30.9 0-41.2-23.8-41.2-53.9 0-27.7 9.8-56.6 42.5-56.6 23.2 0 34 14.5 35 27.9H669zm2.1 44.9c0-10.1-3.8-19.2-16.6-19.2-10.4 0-16.4 6.1-16.4 18.4 0 8.6 4.1 20.1 16.5 20.1 11.2 0 16.5-8.5 16.5-19.3z"/><path stroke="#000" stroke-miterlimit="10" stroke-width="5" d="M316.9 194.4v12l-1 15-1 34v68l-4 119-2 34"/><path fill="none" d="M500 300.7h199.8V800H500z"/><path d="M692.2 352.7h-26.4c-.4 3.5-1.6 9.8-2 12.5 2.5-2 6.2-3.5 11.8-3.5 13 0 20.3 9.4 20.3 21.9 0 12.7-7 24.4-24.7 24.4-13 0-22.6-6.7-24-18.4h14.3c1.3 4.5 4.4 7.5 10.1 7.5 6.8 0 10.1-5 10.1-12.3 0-6.9-2.5-11.7-10.1-11.7-6.1 0-8.6 2.7-10.1 6.6l-12.9-1.7c1.7-8.4 4.6-27.9 5.7-36.9h40.1l-2.2 11.6zM680.4 477c-.8-3.2-2.7-6.4-8.4-6.4-8.8 0-11.1 8.3-11.5 17.1 2.8-3.4 7.4-6.1 14.9-6.1 12.1 0 20.6 8.9 20.6 21.8 0 14-9 24.5-24.2 24.5-19.1 0-25.4-14.7-25.4-33.3 0-17.1 6.1-34.9 26.2-34.9 14.3 0 21 9 21.6 17.2h-13.8zm1.3 27.7c0-6.3-2.3-11.9-10.2-11.9-6.4 0-10.2 3.7-10.2 11.4 0 5.3 2.5 12.4 10.2 12.4 7 0 10.2-5.2 10.2-11.9zM697.9 581v10.6c-10.4 14.8-20.6 36.1-23.2 55.2H660c2.6-19.4 14.4-42.6 23.4-54h-31V581h45.5z"/><path fill="none" d="M394.4 300.2h199.8v499.3H394.4z"/><path d="M418.3 333.4c-2.8 9.7-4.6 21.6-4.8 29.7h-15c.8-9.6 4-21.6 8.3-29.7h11.5zM450.1 406.4v-14.8h-29.8v-12.5l27.5-38.5h15.6V380h7.9l-1.3 11.6h-6.6v14.8h-13.3zm0-38.1c0-7.1 0-11.1.3-15.2-2.6 5.5-11.2 18-17.4 27h17.1v-11.8zM483.5 406.4v-49.2c-3 1.4-8.6 2.6-11.9 2.9v-10.7c6.2-1.1 12.5-4.7 16.3-8.8H498v65.9h-14.5zM398.1 483c2.8-9.7 4.6-21.6 4.8-29.7h15c-.8 9.6-4 21.6-8.3 29.7h-11.5zM450.1 526.4v-14.8h-29.8v-12.5l27.5-38.5h15.6V500h7.9l-1.3 11.6h-6.6v14.8h-13.3zm0-38.1c0-7.1 0-11.1.3-15.2-2.6 5.5-11.2 18-17.4 27h17.1v-11.8zM472.5 526.4v-.9c0-11.5 5.2-20.8 19.4-31.2 9.3-6.8 12.1-9.1 12.1-14.9 0-5.7-2.8-8.9-8.3-8.9-6.4 0-8.8 3.9-9.7 9.7h-13.8c.9-11.4 8.4-20.8 23.5-20.8 16.9 0 22.7 10.1 22.7 19.9 0 9.6-4.1 14.2-16.2 22.7-8.1 5.7-11.4 9.4-12.5 12.4h31.2l-1.8 11.9h-46.6zM418.3 573.4c-2.8 9.7-4.6 21.6-4.8 29.7h-15c.8-9.6 4-21.6 8.3-29.7h11.5zM450.1 646.4v-14.8h-29.8v-12.5l27.5-38.5h15.6V620h7.9l-1.3 11.6h-6.6v14.8h-13.3zm0-38.1c0-7.1 0-11.1.3-15.2-2.6 5.5-11.2 18-17.4 27h17.1v-11.8zM475.2 597.5c.9-8.1 6.6-18.1 23.1-18.1 15.2 0 22 8.6 22 17.9 0 7.9-4.5 11.7-8.1 13.4v.3c4.3 1.6 10.7 5.7 10.7 15.9 0 9.5-5.8 20.8-24.7 20.8-17.6 0-23.6-10.6-24.3-19.4h13.9c.9 4.5 4 8.4 10.8 8.4 6.6 0 9.9-4.3 9.9-10.1 0-6.1-3.1-9.8-10.8-9.8h-5.9v-11h5.2c6.6 0 9.2-2.2 9.2-7.7 0-4.5-2.7-7.6-8.4-7.6-6.7 0-8.3 3.7-9 7h-13.6z"/></svg>