<svg xmlns="http://www.w3.org/2000/svg" xml:space="preserve" viewBox="0 0 800 800"><path fill="none" d="M100.4 100H700v300H100.4z"/><path d="M242.6 105.8h41.1c21.1 0 35.4 11.9 35.4 30.7 0 21.6-16.3 31.5-35.9 31.5h-19.1v37.1h-21.5v-99.3zm21.5 45.2h16.4c9.9 0 17-3.8 17-14s-7.4-14.1-16.5-14.1h-16.8V151zM324.9 205.1V100h20.6v105.1h-20.6zM418.1 185.9c0 7.1.6 17.5 1 19.3h-19.7c-.6-1.5-1-5.4-1-7.3-2.7 4.2-7.8 9-21 9-18 0-25.6-11.8-25.6-23.4 0-17 13.6-24.8 35.5-24.8h10.6v-4.6c0-5.3-1.9-10.5-11.5-10.5-8.7 0-10.6 3.7-11.6 9.1h-19.6c1.1-13.2 9.3-24 32-23.8 20 .1 30.8 7.9 30.8 25.7v31.3zM398 171.2h-8.4c-12.4 0-17 3.8-17 11 0 5.4 3.3 9.9 10.7 9.9 13.1 0 14.7-9.1 14.7-19v-1.9zM493.7 181c-2.6 12.4-11.3 25.8-33.5 25.8-23.2 0-35.1-16.1-35.1-38.5 0-22 13.4-39.5 36.1-39.5 25.1 0 32.1 18 32.5 26.5h-20.1c-1.3-6.1-4.7-10.3-12.8-10.3-9.4 0-14.8 8.3-14.8 22.7 0 15.9 5.7 23.1 14.7 23.1 7.1 0 10.9-4.2 12.7-9.8h20.3zM516.7 172.3c0 9.3 4.7 18.4 15 18.4 8.6 0 11-3.4 13-8h20.7c-2.6 9.1-10.8 24.1-34.2 24.1-24.5 0-35.2-18.4-35.2-37.9 0-23.4 12-40.1 35.9-40.1 25.6 0 34.3 18.5 34.3 37.1 0 2.5 0 4.2-.3 6.3h-49.2zm28.8-12.7c-.1-8.7-3.6-16-13.7-16-9.9 0-13.9 6.8-14.7 16h28.4zM265.2 340.7c0-16.9.3-35.9.7-47.1h-.7c-4.7 20.3-14.6 53.3-24.1 84.4h-18.3c-7.2-27.2-17.5-64.8-21.9-84.7h-.7c.8 11.6 1.3 32.1 1.3 49.1V378H182v-99.3h31.9c7.7 25.9 16.4 58.5 19.4 73.3h.2c2.4-13 13.3-47.8 21.6-73.3h30.8V378h-20.7v-37.3zM367.4 340.5c0 22.6-13.5 39.1-37.1 39.1-23.1 0-36.6-16.5-36.6-38.7 0-23 13.9-39.2 37.6-39.2 22 0 36.1 15.4 36.1 38.8zm-52.7.1c0 14.3 6.2 22.8 16.1 22.8 10.1 0 15.7-8.5 15.7-22.7 0-15.6-5.7-23-16-23-9.6.1-15.8 7.2-15.8 22.9zM387.4 303.4c7.1 25.2 13 47.3 14.5 56.3h.1c2.1-12.3 9.4-34.8 15.9-56.3h20.6l-26.3 74.5h-21.7l-25.3-74.5h22.2zM471.7 278.6h41.1c21.1 0 35.4 11.9 35.4 30.7 0 21.6-16.3 31.5-35.9 31.5h-19.1v37.1h-21.5v-99.3zm21.5 45.2h16.4c9.9 0 17-3.8 17-14s-7.4-14.1-16.5-14.1h-16.8v28.1zM574.6 272.8v39.4c3.3-4.8 9.3-10.5 21.4-10.5 13.9 0 25 8.2 25 28.4v47.8h-20.5v-44.7c0-9.7-3.4-14.8-12.1-14.8-11.5 0-13.7 8.5-13.7 20v39.5H554V272.8h20.6z"/><path fill="none" d="M100 399.3h599.6V700H100z"/><path d="M231.9 484.3h-47.5v25.2h52.4l-2.5 17.6h-70.7v-99.3H234v17.6h-49.6v21.3h47.5v17.6zM260.1 452.6c7.8 14 10.9 19.5 13.2 23.4h.1c2.6-4.5 7.1-12.7 13.2-23.4h22.9l-24.2 35.5 24.1 39.1h-23.3c-6.7-12.6-10.9-20.8-13.1-25.1h-.1c-2 3.9-7.1 13.6-13.2 25.1h-22.5l23.1-36.3-22.9-38.2h22.7zM331.6 520.6v35.1H311v-85.1c0-6 0-12-.1-18h20c.3 2 .7 6.5.7 9.3 3.2-5.5 9.8-11 21.7-11 16.7 0 29.7 14 29.7 37.1 0 26.3-14.5 40.9-32.5 40.9-10.6 0-16.1-4-18.9-8.3zm30.4-31.8c0-13.7-5.5-21.4-15.3-21.4-11.7 0-15.9 7.5-15.9 22.5 0 14.2 3.8 22.5 15 22.5 10.9.1 16.2-8.4 16.2-23.6zM390 527.2V422h20.6v105.1H390zM491.3 489.7c0 22.6-13.5 39.1-37.1 39.1-23.1 0-36.6-16.5-36.6-38.7 0-23 13.9-39.2 37.6-39.2 21.9 0 36.1 15.5 36.1 38.8zm-52.8.2c0 14.3 6.2 22.8 16.1 22.8 10.1 0 15.7-8.5 15.7-22.7 0-15.6-5.7-23-16-23-9.5 0-15.8 7.1-15.8 22.9zM567.5 422v84.6c0 6.8 0 13.7.1 20.5h-19.8c-.4-2.2-.8-6.1-.9-7.8-3.6 5.9-10 9.5-21.1 9.5-18.8 0-30.8-15.1-30.8-38.4 0-22.9 12.7-39.6 33.9-39.6 10.7 0 16.5 3.8 18.1 7.1v-36h20.5zm-51.4 68c0 14.5 5.7 22.4 15.8 22.4 14.2 0 15.8-11.8 15.8-22.5 0-12.7-1.8-22.4-15.3-22.4-10.9-.1-16.3 8.4-16.3 22.5zM595 494.3c0 9.3 4.7 18.4 15 18.4 8.6 0 11-3.4 13-8h20.7c-2.6 9.1-10.8 24.1-34.2 24.1-24.5 0-35.2-18.4-35.2-37.9 0-23.4 12-40.1 35.9-40.1 25.6 0 34.3 18.5 34.3 37.1 0 2.5 0 4.2-.3 6.3H595zm28.8-12.7c-.1-8.7-3.6-16-13.7-16-9.9 0-13.9 6.8-14.7 16h28.4zM192.5 677l-7.7 22.9h-21.1l33.7-99.3h27l35.2 99.3H237l-8.2-22.9h-36.3zm31.6-17.6c-7-21-11.5-34.3-13.9-43.3h-.2c-2.4 9.8-7.4 25.4-13.1 43.3h27.2zM331.1 594.8v84.6c0 6.8 0 13.7.1 20.5h-19.8c-.4-2.2-.8-6.1-.9-7.8-3.6 5.9-10 9.5-21.1 9.5-18.8 0-30.8-15.1-30.8-38.4 0-22.9 12.7-39.6 33.9-39.6 10.7 0 16.5 3.8 18.1 7.1v-36h20.5zm-51.4 68c0 14.5 5.7 22.4 15.8 22.4 14.2 0 15.8-11.8 15.8-22.5 0-12.7-1.8-22.4-15.3-22.4-10.8-.1-16.3 8.4-16.3 22.5zM356.5 625.4c7.1 25.2 13 47.3 14.5 56.3h.1c2.1-12.3 9.4-34.8 15.9-56.3h20.6L381.2 700h-21.7l-25.3-74.5h22.3zM413.2 600.7h69.3v17.6h-48.3v24.3h45.3v17.6h-45.3V700h-21v-99.3zM488.1 594.8h20.6v18.4h-20.6v-18.4zm0 30.6h20.6V700h-20.6v-74.6zM520.1 645.6c0-7.4 0-14-.1-20.2h20.2c.3 1.7.5 9.1.5 13.1 3.3-8.5 11.2-14.7 23.9-14.8v19.7c-15-.4-23.9 3.6-23.9 24.1V700h-20.6v-54.4zM584.7 667.1c0 9.3 4.7 18.4 15 18.4 8.6 0 11-3.4 13-8h20.7c-2.6 9.1-10.8 24.1-34.2 24.1-24.5 0-35.2-18.4-35.2-37.9 0-23.4 12-40.1 35.9-40.1 25.6 0 34.3 18.5 34.3 37.1 0 2.5 0 4.2-.3 6.3h-49.2zm28.8-12.7c-.1-8.7-3.6-16-13.7-16-9.9 0-13.9 6.8-14.7 16h28.4z"/><path fill="none" stroke="#000" stroke-miterlimit="10" stroke-width="10" d="M300 400h200"/><path fill="none" d="M479.1 69.4H500V100h-20.9z"/></svg>