<svg xmlns="http://www.w3.org/2000/svg" xml:space="preserve" viewBox="0 0 800 800"><path d="M252 188.1c1.2.4 2.4 1.3 3.5 1.1 5-.7 5.1 1.6 4.7 5.7-.5 5.7-.4 11.6.1 17.4 1.1 11.4 1.2 23.1.3 34.3-.5 6.2.6 12.4-.2 18.6-.8 6.4.4 13.3.3 20-.2 13.5.2 27.1-1.7 40.5-.3 1.9 1.1 3.2 1.4 4.8 1.2 6.3-2.3 12.7-.7 18 2.2 7.4-.2 14.4.9 21.6.7 4.8.6 11-1.3 15.3-1.8 4.1 1.8 5.6 1.3 8.9-2.2 14.9.3 29.9-.9 45-.7 9.1.4 18.3-.5 27.5-.5 5.1.2 11.2.8 16.8.6 5.5-1.5 7.6-7.3 7.9 12-.4 7.2 9.1 7 12.9-.2 7 1.5 14 .5 20.9-1.5 10.4-.5 21-.5 31.4 0 8.8-.7 17.7.1 26.5.5 4.9 2.9 8.7 6.3 12.3 3.9 4.2 3 7.1-2.7 8-10.8 1.8-21.6.8-32.4.2-4.4-.2-6.1-5.5-3.1-8.6 5.2-5.3 6.6-11.9 6.6-18.7.1-11.7 1.8-23.4 0-35.2-.3-2.1-.9-4.8 1.8-6.5.5-.3.7-1.6.5-2.3-1.9-6.6-2-15-1.3-21.9.4-4.4-1-8.9-.7-13.5.5-8.2-.5-16.3.5-24.6.8-6.4-1-13.2.5-19.6 2-8.2-3.7-16.2-.1-24.4.4-.9.2-2.2-.2-3.1-3.2-7.7.4-15.5-.4-23-.6-6.2 1.4-12.1.5-18.2-.4-2.6-1.9-3.7-3.7-4.9-5.2-3.4-5.8-8.8-1.9-12.1 5.6-4.6 5.2-10.6 5-15.7-.3-8.3 1.9-16.6-1.1-25.2-1.1-3.3.3-9.5 1.2-14.2.6-2.9 1.6-5.1-.7-7.6-.4-.5-.5-1.7-.2-2.4 2.6-7.5 1.9-9.4-5.7-15.9-3-2.6-.9-6.5-1.9-9.7-.7-2.3 1.6-2.5 2.8-2.6 8.4-.5 7.5-8.2 6.8-12-1.5-8.2-.1-16 .2-23.9.1-2.9-1.1-5.2-1.2-7.8-.3-7.3-.4-14.7 1.9-21.8.7-2.1-1.1-3.5-1.5-5-1.8-6 .4-11.1 1-16.7.6-5.4 1.3-13.3-6.7-16.4-1.7-.7-2.7-2.2-.9-3.4 3.2-2.1 5.3-4.6 6.2-8.5.5-2.3 3.5-2.3 5.6-2.4 4.8-.1 9.6 0 14.3 0 1.8 0 4.5.4 4.4 1.9-.2 5.6 3.9 6.2 7.5 7.9 3.1 1.5 3.3 3.5-.4 4.6-5.2 1.5-6.2 5-5.7 10 1 7.2-4.8 6-8.9 7.8zm-8.1 365.3c-.6 2.6-4.8 5.1-.5 7.8 1.3.8 3.7 1 4.8-.4 1-1.4 2-3.5 1.1-5.3-1.1-2.2-3.4-2.3-5.6-1.9 4.8-1.1 6.8-4.4 6.4-9-.7-10 1.4-20.3-2.2-30.2-2.1.8-6.5 1.4-5.8 2.7 2.9 5.2-3 8.4-2.2 13.1.5 2.5 2.9 4.4 1.8 7.5-1.9 5.4-.6 10.7 2.2 15.7zm.6-288.7c-.9 3.2-1.1 5.9 2.1 6.3 3.4.5 4-2.5 4.7-5 .2-.6 0-1.3.1-1.9 1.1-10.1-.8-20.2-.1-30.3.4-5.3 3.3-11.1-1.2-16.3-.5-.6-.3-2.6.4-4.2 2.7-6.2.6-12.5-.7-18.7-.5-2.1-3.1-2.5-5-1.7-2.2.8-1.5 3.2-1 4.5.6 1.5.8 2.7 1 4.3.5 5.9-.3 11.8-.3 17.6.1 6.8-.5 13.6-1.5 20.5-.6 3.9 3.2 8.2-1.1 11.9 5.9 3.7-1.2 9.7 2.6 13zm5.1 141c.3-3.7-2.1-7.4-4.6-7.1-4.2.6-3.1 3.5-3 6.4.3 5.2 1 10.5.1 15.5-.9 4.5-1 9-.5 13.1.5 4.6.2 9.1-.3 13.4-.3 2.6.2 4.2 1.5 5.5 1.4 1.4 3.2-.1 4.8-.6 2.4-.8 1.7-2.6 2.1-4.5 1.3-5.3-1.2-10.2-.8-15.6.7-8.6 1.2-17.4.7-26.1zm-6.3-36.2c-1 3.9-1.3 6.8 2.1 7.4 3.8.6 3.6-3 4.2-5.3.4-1.9.4-3.9.3-5.8-.3-8.4 0-16.8.9-25.2.3-3.2-.7-6.5-1.5-9.7-.4-1.5-1.7-2.5-3.5-2.3-1.5.2-2.4 1.1-2.5 2.5-.1 3.3-1.2 7.6-.7 9.6 2.6 10.2-2.9 20.2.7 28.8zm7.7-61.1c-.1-5.2.2-10.4-.8-15.6-.7-3.4-2.6-3.2-4.6-2.7-2.1.5-2.9 1.5-3.1 4.5-.3 6.1 3.4 12.6-1.5 18.3-1.5 1.8-.2 3.4.7 4.6 1.5 1.9 3.8 2 6 1.5 2.1-.5 3.5-1.8 3.5-4.1.1-2.2-.1-4.3-.2-6.5zm-1 156.8c-2.3-1.7 2.7-7.3-4.1-6.8-5.9.4-4.4 4.7-4.8 7.9-.3 1.9.6 3.8.4 5.7-.2 2.4-1.1 5 2.8 4.8 3.2-.2 6.3-.9 5.9-5.1-.4-2.1-1.1-4.2-.2-6.5z"/><path fill="none" stroke="#000" stroke-miterlimit="10" stroke-width="10" d="M400 300h200v200H400z"/><path fill="none" d="M300.4 100.2h400v600h-400z"/><path d="M515.7 184.3c-1.3-5.3-4.3-10.3-13.6-10.3-14.3 0-18 13.4-18.6 27.7 4.5-5.5 12-9.9 24.1-9.9 19.5 0 33.4 14.4 33.4 35.4 0 22.8-14.6 39.7-39.1 39.7-30.9 0-41.2-23.8-41.2-53.9 0-27.7 9.8-56.6 42.5-56.6 23.2 0 34 14.5 35 27.9h-22.5zm2.1 44.8c0-10.1-3.8-19.2-16.6-19.2-10.4 0-16.4 6.1-16.4 18.4 0 8.6 4.1 20.1 16.5 20.1 11.3 0 16.5-8.5 16.5-19.3zM509 459.3v-24h-48.2v-20.2l44.5-62.4h25.3v63.9h12.8l-2.1 18.8h-10.7v24H509zm0-61.7c0-11.6 0-18 .5-24.7-4.2 8.9-18.1 29.2-28.1 43.7H509v-19zM415.8 653.7l-23.9-39.3h-.2l-24.4 39.3h-26l37.1-56.2-36.2-55.5h28l22.6 37h.2l23.4-37H442l-36 53.2 37.7 58.5h-27.9z"/><path d="M460.1 653.7V574c-4.9 2.3-14 4.2-19.3 4.6v-17.3c10.1-1.9 20.3-7.6 26.4-14.3h16.4v106.7h-23.5zM512.8 653.7V574c-4.9 2.3-14 4.2-19.3 4.6v-17.3c10.1-1.9 20.3-7.6 26.4-14.3h16.4v106.7h-23.5zM610.4 562.3V598h35v19.4h-35v36.3h-19.5v-36.3h-35.4V598h35.4v-35.7h19.5z"/></svg>