<svg xmlns="http://www.w3.org/2000/svg" xml:space="preserve" viewBox="0 0 800 800"><path d="M239.5 345c8.6 2.7 8.1 4.1 8.4 12.1.2 5 0 8.3-3.8 11.2-.7.6-.7 1.1 0 1.4 7.1 2.3 3 9 5.1 13.3 1.5 3-1.7 4.6-3.1 6.6-4.7 6.8-4.6 7.1 2.4 11.2.6.3 1.2.2 1.2 1.6.4 6.2.4 12.2 5.3 17.8 2.2 2.6 3.2 8.5 4.6 13 2.4 7.7 7.3 14.5 9 22.4.3 1.6 1.8 2.3 2.9 3.3 2.9 2.9 5.7 6 5.4 10.6-.1 2.6.8 4.8 3 6 2 1.1 3.7 2 .7 3.9-1.7 1.1-1.4 2.5.1 3.7 4.8 3.7 6 9.2 6.7 14.8.5 3.8 3.7 5.5 5.7 8 1.7 2.1 1.9 4.7 2.9 6.7 3.5 7.2 2.8 16.5 10.4 21.6 1.1.7 2.6 1.2 2 2.8-1.9 4.7 1.4 7.8 3.3 11.3 3.8 6.8 4.5 15.4 11 20.8-3 6.2 6.1 10.2 2.8 16.8-1 2.1 2.8 2.7 4.7 3.4 10.9 3.8 15.2 9.2 14.4 20.6-.6 9-9.7 7-15 9.7-3.4 1.7-8.2 1.6-10-3.1-2.7-7-8.8-13.2-3.5-22.1 2-3.3-3.4-7.1-4.7-11.2-2.1-6.7-7.3-12.5-8.7-19.2-1.7-8-7.6-13.7-9.6-21.4-.7-2.6-1.7-5.9-4.3-7-5.4-2.3-4.3-6.6-4.7-10.9-.5-5.3-5.5-6.3-9.4-6.7-6.4-.7-13-.2-19.5 0-4.4.1-7 1.3-6.5 6.9.7 7.3-.7 14.7-1.2 22.1-.2 3.1-2.4 3.1-3.2 4.3-4.3 6-2.2 12.9-3.5 19.2-.3 1.6.4 3.4-.8 4.9-5.5 6.9-18.4 7.8-24.7 1.8-1.4-1.4-3.2-2.7-2.2-5 3.2-6.8-1.1-4.9-4.7-4.3-2.1.3-4.3.3-6.4-.1-6.7-1.1-7-1.9-3.1-7.6 3.8-5.5 3.7-22.4-.1-28.2-2.3-3.5-2-7.2.5-10.2 2.7-3.2 1.2-4.1-1.7-4.7-9.1-2-18.3-1.4-26.9 1.2-2.6.8-4.3 6.7-5.2 10.6-.7 3.2-1.8 5.7-4.3 7.6-1.2.9-2.4 1.8-2.9 3.3-3.9 10.4-9.7 20-14.1 30.1-1.7 4-4.1 7.5-5.9 11.5-1.9 4.4-3.1 7.8.1 12.2 1.7 2.4.2 5.9-1.3 8.6-2.2 4.2-4.7 8.3-6.9 12.4-1.3 2.4-3.3 2.4-5.6 2.4-6.9-.1-12.1-4.4-17.8-7.3-2.2-1.1-2.1-3.7-.8-5.7.5-.9 1.8-1.5 2.1-2.5 2.7-8.2 5.5-15.7 14.8-19.3 3.3-1.3 1.7-7.8 4.7-11.5 4.1-5.1 9.1-10.5 5.8-18.2-.1-.2.3-1 .5-1 9.2-.3 5.8-9.8 9.3-14.4 4.7-6.2 6.5-15.8 10.5-22.8 4-7.2 5-16.4 11.6-21.7 4.8-3.8 1.2-9.9 5.4-13.6 4.6-4 3.6-10.8 7.4-15.4 4.2-5.1 4-5.3-.6-10.2 8.8-.1 8.5-8 11.8-12.8 1.1-1.6 1.1-3.7 2.8-5.1 1.1-.9 3.2-1.3 2.5-3.3-.7-2.1-2.8-1.7-4.5-1.4-4.8.9-9.9.5-14.1 4-2.1 1.8-5.2 2.1-8.1 2.1-15.8-.1-31.6 0-47.4-.3-18-.3-18.3-.9-17.3-18.7.2-3.4.2-3.4-4.1-5 .6-.4 1.2-.7 1.4-1.1 4.3-7.7 11.7-7.1 18.9-7.6 11.5-.7 22.9-.7 34.4.1 8.4.6 16.6 1.3 24.9 2.5 8.2 1.2 17-1.8 25.4-3.4 3-.6 5.4-2.8 4.9-6.7-.1-1-.1-2.7.4-3.1 6.6-3.8 1.7-8.8.7-12.6-.9-3.4-.6-7.2-2.8-10.3-.2-.3-.3-.8-.4-1.2 8.8-2.9-.3-9.5 2.8-13.7.3-.4.9-1.7-.9-2.8-3.5-2.2-1.4-4.6 1-6.5 1.9-1.4 4.5-1.5 6.2-4.1-3.7-.8-7.2-1.3-10.6-2.4-3.1-1.1-4.2-3.3-1.1-5.7 2.9-2.2 3.3-5 3.5-8.5.5-7.8 1.1-15.6-.8-23.2-1.4-5.5 3.9-9.5 1.9-15.1-1.6-4.3.9-9.3-2-13.8-1-1.5 1.6-3.8 1.4-6.3-.3-4.6 1.9-8.9 1.2-13.8-.7-5.2 1.5-10.4 6-14 1.1-.8 1.3-1.9.8-2.9-3.5-6.9 3.2-12.9 1.8-20-.8-4 4.6-5.7 8.8-5.7 4.6 0 8.8 1 10 6.3.4 1.7 0 4.5.8 4.9 7.5 3.7 3.1 8.7 1.8 13.4-1.2 4-.8 7.7 3.7 9 4.5 1.2 2.5 5.4 2.3 6.7-.5 5.5 2.6 10.1 2.2 16-.5 6.5-5.5 15.3 2.7 21.1.2.2.2.6.4 1-8.1 1.1-.8 6.1-1.8 7.4-2.6 3.3-1.5 6.1-1.8 9.5-.6 7.5 1.4 14.9.2 22.3-.1.9-.4 1.5 0 2.3 4.1 7.6 4.1 7.6-4.3 11.4-.7 1.2-1.6 1.7-3.6 2.7zm-46.8 159.2v.1h7.1c4.1-.1 7.8-.3 4.3-6-1.2-1.9-2.2-4.8 1.2-5.9 2.7-.9 3.2-1.8.8-3.6-1.6-1.2-1.3-2.5-.2-3.9 1.3-1.7 1.8-3.8.6-5.5-3.2-4.4 2.4-9.7-1.6-14.1-.3-.3 2.4-3.3-.1-4.8-2.2-1.3-4.1 0-6 1.1-2.7 1.7-4.5 4.2-5.6 7-3.1 7.7-6.7 15.3-10.4 22.7-.8 1.5-2.1 2.8-2.8 4.4-3.1 6.8-2.8 7.3 4.4 8.1 2.7.3 5.5.3 8.3.4zm72.2 1v-.3c2.6-.1 5.2-.2 7.8-.4 1.1-.1 2.7-1.3 2.2-1.6-5.2-2.8-1-8.7-3.4-11.4-3.8-4-4.6-9.1-7.1-13.5-1.1-2-1.9-4.1-4.8-3.3-8.1 2.3-11.7 10.3-18.1 14.9-3.8 2.7 4.3 3.6 4 7 0 .2.2.4.1.6-.9 7.2 3.9 7.2 8.9 7.2 3.5.3 7 .6 10.4.8zm-12.7-52.6c.3-2.6-.8-4.8-3.6-5.7-2-.7-4.6-1.1-6.1.7-1.6 2 .6 3 2 3.9 2.8 1.7 1 3.9 0 4.8-3.5 3-2.3 5.9-1.3 9.5.7 2.6 4.2 5.5.1 8.8-1.1.9 1.3 2.5 2.8 2 5.3-1.6 8.1-5.6 10.4-10.6 1.9-4.1-.7-5.5-2.7-7.5-1.6-1.6-3-3.1-1.6-5.9z"/><path d="M197.8 323.8c-4 4-2.8 8.5-2.1 12.7.4 2.3.9 12.6.2 15.1-.7 2.8 2.4 3.2 3.5 5.5-5.4.9-5.8 3.6-4 8.4 4 10.9-.2 16.5-12 16.5-5.4 0-10.8-.3-16.2-.7-1.9-.1-4.7-.3-5.4-1.5-3.7-6.1-8.4-3.7-13.5-2.9-6.8 1-13.8.8-20.7 1.1-2.7.1-5.3-1.1-5.4-3.7-.1-4.5-2.1-9.3-1.3-13.2 1.6-7.1-1.2-13.7-.6-20.4.9-9.6-1.1-19.1.2-28.7.7-5.3 3.8-7.6 8.7-7.8 6.1-.2 12.1-.2 18.2-.1 3.4.1 6.3 1.2 7.2 5.2.6 2.9 2.1 4 4.1.9 1.8-2.7 4.6-3 7.4-3.1 5.8-.2 11.7-.1 17.5-.4 6.4-.4 9.7 2 9.9 8.8.3 3.3.3 7.5 4.3 8.3zM179 667.3c-10.4 0-20.8-.2-31.1.1-8 .2-14.6-3.3-21.2-7-3.8-2.2-3-4.5.7-6.7 14.1-8.3 29.5-9.2 45.2-8.9 14.9.3 29.9.8 44.7-.7 7.4-.7 14.6.5 21.9.7 13.6.5 27.1-2.5 40.7-1 6.6.8 12.7 4.5 19.6 3.7 2.2-.2 2.9 1.7 2.6 3.6-.6 3.6 1 8.4-4.2 9.8-4.4 1.2-8.9 2.4-13.3 2.6-14.5.5-29 1.1-43.4 1-20.8 0-41.4 3.3-62.2 2.8z"/><path fill="none" d="M300.4 99.9h400v600h-400z"/><path d="M344.7 152.9h24.2v43.6h44.9v-43.6H438v111.7h-24.2v-48.3h-44.9v48.3h-24.2V152.9zM550.3 222.7c0-19.1.3-40.4.8-53h-.8c-5.2 22.8-16.4 60-27.1 94.9h-20.6c-8.1-30.6-19.7-72.9-24.6-95.2h-.8c1 13.1 1.4 36.1 1.4 55.2v40h-22V152.9h35.9c8.7 29.2 18.5 65.8 21.8 82.4h.2c2.7-14.7 15-53.8 24.3-82.4h34.6v111.7h-23.3v-41.9zM689.3 264.6h-17.7c-.9-3.4-1.5-7.3-1.8-11-6.2 8.3-17.1 12.9-32.6 12.9-32.4 0-50.5-24.5-50.5-56.3 0-33.6 19.5-58.9 54.7-58.9 28.7 0 45.7 16.2 48.4 35.3h-24.2c-2.3-7.5-8.2-16.3-24.5-16.3-22.9 0-29.5 19.2-29.5 38.9 0 19.2 7.5 38.1 29.6 38.1 20.6 0 24.5-14.3 24.5-24.3v-1h-24.5v-19.8h48.2v62.4zM475.6 378.3c-1.3-5.3-4.3-10.3-13.6-10.3-14.3 0-18 13.4-18.6 27.7 4.5-5.5 12-9.9 24.1-9.9 19.5 0 33.4 14.4 33.4 35.4 0 22.8-14.6 39.7-39.1 39.7-30.9 0-41.2-23.8-41.2-53.9 0-27.7 9.8-56.6 42.5-56.6 23.2 0 34 14.5 35 27.9h-22.5zm2.1 44.9c0-10.1-3.8-19.2-16.6-19.2-10.4 0-16.4 6.1-16.4 18.4 0 8.6 4.1 20.1 16.5 20.1 11.3 0 16.5-8.5 16.5-19.3zM552.9 407.2v20.2h-45.1v-20.2h45.1zM576.9 459v-79.7c-4.9 2.3-14 4.2-19.3 4.6v-17.3c10.1-1.9 20.3-7.6 26.4-14.3h16.4V459h-23.5zM668.9 378.3c-1.3-5.3-4.3-10.3-13.6-10.3-14.3 0-18 13.4-18.6 27.7 4.5-5.5 12-9.9 24.1-9.9 19.5 0 33.4 14.4 33.4 35.4 0 22.8-14.6 39.7-39.1 39.7-30.9 0-41.2-23.8-41.2-53.9 0-27.7 9.8-56.6 42.5-56.6 23.2 0 34 14.5 35 27.9h-22.5zm2.1 44.9c0-10.1-3.8-19.2-16.6-19.2-10.4 0-16.4 6.1-16.4 18.4 0 8.6 4.1 20.1 16.5 20.1 11.3 0 16.5-8.5 16.5-19.3zM466.1 541.7h48.8c27 0 37.2 14.1 37.2 28.6 0 12.6-6.7 20.8-14.2 24.2 7.5 2.8 17.4 10.8 17.4 25.5 0 19.1-15 33.4-38.8 33.4h-50.4V541.7zm46 44c11.5 0 16.2-5.2 16.2-13 0-8.2-6.2-12.4-15.5-12.4h-23v25.4h22.3zm-22.3 49h21.8c13.1 0 19-5.5 19-15.6 0-9-5.8-14.7-19.1-14.7h-21.7v30.3zM580.3 653.4v-79.7c-4.9 2.3-14 4.2-19.3 4.6V561c10.1-1.9 20.3-7.6 26.4-14.3h16.4v106.7h-23.5zM617.5 653.4v-1.5c0-18.6 8.3-33.7 31.4-50.5 15-11 19.6-14.8 19.6-24.1 0-9.2-4.5-14.4-13.5-14.4-10.4 0-14.2 6.4-15.7 15.7H617c1.5-18.4 13.6-33.7 38.1-33.7 27.4 0 36.8 16.3 36.8 32.3 0 15.5-6.7 23-26.3 36.8-13.1 9.2-18.4 15.3-20.2 20.1h50.5l-2.9 19.3h-75.5z"/></svg>