<?xml version="1.0" encoding="utf-8"?>
<!-- Generator: Adobe Illustrator 26.5.0, SVG Export Plug-In . SVG Version: 6.00 Build 0)  -->
<svg version="1.2" baseProfile="tiny" xmlns="http://www.w3.org/2000/svg" xmlns:xlink="http://www.w3.org/1999/xlink" x="0px"
	 y="0px" viewBox="0 0 800 800" overflow="visible" xml:space="preserve">
<g id="bg" display="none">
</g>
<g id="scratch" display="none">
</g>
<g id="counters_00000155831629897369998050000010902328751353074356_">
	<g>
		<g>
			<line fill="none" stroke="#FFFFFF" stroke-width="75" stroke-miterlimit="10" x1="98.6" y1="700.5" x2="698.6" y2="100.5"/>
			<line fill="none" stroke="#FFFFFF" stroke-width="75" stroke-miterlimit="10" x1="98.6" y1="100.5" x2="698.6" y2="700.5"/>
		</g>
		<g>
			
				<rect id="_x31__x2F_2_x22__800x800_00000071538368313485517280000018056071997124389513_" x="-0.2" y="0.5" fill="none" width="800" height="800"/>
			<g>
				<path d="M185.8,550.8c3.3,1.1,5.3,1.5,7,2.4c4.2,2.2,5,6.5,1.3,8.9c-3.5,2.2-1.9,3.1,0.4,4.2c1.5,0.7,3,1.1,3.4,3.4
					c0.7,3.8-2,5.7-3.6,8.3c4.3,1.6,3.4,3.9,1.7,7.3c-1.8,3.4-0.9,6.9,4.6,7c-1.8,3.3-3.7,5.2-7.2,5.1c-1.1,0-2.3,0.5-1.9,2
					c0.3,1,1.3,1.2,2.1,1c8.1-1.4,8.8,5.2,11,10.2c2.1,4.8,2.1,10.7,7.3,14c1.5,1,1.7,3,1.1,4.8c-0.4,1.4-1.5,3.1,0.4,4.1
					c1.9,1,3.8-0.2,4.6-1.5c2.2-3.2,3.7-3.1,6.7-0.7c1.4,1.1,6.5,3.1,4.6-3c-0.4-1.3,0.5-1.9,1.1-2.8c5.4-7.7,3.6-12.1-5.1-15.3
					c-6.7-2.4-2.9-8.4-1.5-11.5c1.7-3.7,0-6.6,0.4-9.9c0.5-3.5-1.4-7.1,0.9-10.5c0.4-0.7,1.1-1.8,0.9-2.2c-4-6.7,1.4-13.9-0.9-20.7
					c-0.9-2.6,0.9-4,3.5-4.3c1.6-0.2,3.5,1,5-0.6c-8.1-1.6-9.5-5.2-7.4-13.7c1.5-6,2.6-13,1-18.7c-2.1-7.5,0.9-13.1,3-19.4
					c0.7-2.1,2.4-2.1,4.3-1.2c3.3,1.5,5.8,0.9,7.3-2.9c1.6-4.1,5.6-3.7,8.5-2.5c2.4,1,7.7-0.4,6.3,5.8c-0.6,2.7,2.7,3.2,4.8,2.9
					c1.6-0.2,4.3,2.1,4.6-2.3c0.3-4.4,3.8-6,8.2-5.3c1.9,0.3,4,0.6,5.9,0.3c4.9-1,7.9,0.9,9.8,5.4c1.5,3.4,2.6,4.8,6.7,1.1
					c6.5-5.7,9-11.9,8.1-20.2c-0.2-1.4,0.7-3,0.9-4.5c0.1-1.2,0.3-2.2,1.7-2.3c1.5-0.1,2.6,0.9,2.8,2.3c0.4,3,1.8,6.8,0.5,8.8
					c-4.6,7.3,3,11,4,16.5c0.4,2.3,3.4,1.4,5.2,1.8c5.2,1,7,2.2,7.3,9.1c0.3,7.5-2.9,15.1,0.4,23.2c1.7,4.1-0.7,10.6-0.6,16.1
					c0.1,11-1.1,22-1.5,33c-0.2,8.3-1.4,16.5,0.1,24.9c0.4,2.2-2.8,7.7-8.1,7.2c-3.8-0.3-6.4,0.5-8.8,4c-3.2,4.6-15.6,4-19-0.3
					c-3.3-4.2-7.1-6.9-12.9-6c-2.8,0.4-5.8,0.3-8.5-0.4c-15.8-4-24.1,3.2-28.9,17.6c-2.3,7-16.5,10.1-25.1,7.8
					c-6.6-1.8-8.7-7.2-12.1-11.6c-6.6-8.5-10.7-18.5-13.7-28.7c-1.3-4.5-0.7-9.7-0.7-14.6c0-3.1-0.6-6.7-1.1-10
					C185.2,566.4,191.1,559,185.8,550.8z"/>
				<path d="M209.9,487c1,1.9,1.8,3.7,2.9,5.4c1.9,3.1-0.7,5.4-2.1,6.8c-2.2,2.2-5.7,0.8-8-0.4c-2-1.1-0.3-3.4,0.3-5.3
					c2.2-6.9,3.3-14.3,6.6-20.6c1.6-3.1,1.4-8.5,6.9-9.3c3.3-0.5,3.2-3.5,0.8-4.6c-7.3-3.2-4.5-9.8-5.3-15c-0.5-3,0.8-6.2,0.1-9.6
					c-0.9-4.6,3.7-5.3,6.4-5.7c6.4-0.7,7.6-3.8,5.9-9.3c-0.5-1.7-2.6-3.8,0.9-5.1c0.9-0.3-3.3-7.8-4.9-8.2c-0.4-0.1-1,0.1-1.3-0.1
					c-3.5-2-10.2,4.2-10.9-3.5c-0.4-4.3-3.5-8.7-0.6-13.2c0.8-1.3,0.1-2.4-0.6-3.7c-2.6-5-0.2-9.2,5.6-9.8
					c11.6-1.2,22.6,7.6,26.3,19.3c2.4,7.6,5.5,14.9,5.4,22.9c-0.1,8.4,0.2,16.7-4.1,24.6c-3.8,7-8.8,11.8-15.8,15.2
					c-2.5,1.2-2.3,4.5-2,6.9c0.6,5.1-0.8,9.4-3.8,13.4c-1,1.3-1.8,2.9-1.6,4.9C217.4,488.7,212.5,485.3,209.9,487z"/>
				<path d="M309.9,440.4c-2.8-4.4-2.5-7.1-2.4-10.4c0.2-13.2,2.4-26.3,2-39.6c-0.3-7.9,0.4-16.2,1.6-24.4c1.6-10.9,1.5-22,1.1-33.1
					c-0.1-2.5,0.8-5-0.2-7.6c-0.8-2.1,0.9-3.7,2.5-3.9c2.8-0.2,1.7,1.7,1.6,3.5c-0.1,7.5,1,15.1,0.3,22.5
					c-0.6,6.2,0.8,12.3-1.1,18.7c-1.5,5,0.1,10.7-0.1,16.1c-0.6,16.1-1.3,32.3-2.3,48.4C312.7,433.6,311.2,436.4,309.9,440.4z"/>
				<path d="M191.8,537.5c1.9,1.5,2.9,2.2,3.9,3.1c2.3,2,4.1,4.6,2.2,7.3c-2,3-5.6,2-8.5,1.3c-0.8-0.2-2.1-2.1-2-2.3
					c5.2-7.3,2.6-16.3,5.4-24.1c1.9-5.1,1.9-10.8,5.3-15.5c2.1-2.9,3.6-5.5,7.6-3.3c3.7,2.1,4.2,4.5,1.3,7.7
					c-1.1,1.2-1.4,3.2-3.3,3.9c-1.6,0.6-3,1.6-0.3,2.9c2.1,1,1.7,2.4,0,3.3c-3.5,1.9-4,4.6-3.2,8.2
					C201.4,536,196.3,535.8,191.8,537.5z"/>
				<path d="M312.3,446c-0.6,7.6-1.2,15.2-1.7,22.7c-0.2,2.5-1.5,3.6-3.7,3.6c-3.7-0.1-1.8-2.6-1.5-4.2c1.1-7.3,2-14.6,1.5-22
					c-0.1-2.4-0.9-5.9,3.3-5.6C313.7,440.9,312.9,443.7,312.3,446z"/>
				<path d="M317.3,226.1c0.2,2.2,0.5,3.7,0.3,5.2c-0.1,1.3-0.7,2.7-2.5,2.2c-1-0.3-2.6-1.2-1.9-2.2c1.8-2.8-0.8-5.6,0.3-8.3
					c0.6-1.5,0.1-4.2,2.4-4c2.1,0.2,1.8,2.7,1.8,4.4C317.7,224.6,317.4,225.7,317.3,226.1z"/>
				<path d="M312.9,264.3c2-2.8-0.3-5.2,0.1-7.7c0.2-1.1-0.1-2.4,1.2-2.7c1.6-0.3,2.5,0.9,2.6,2.3c0.2,4.4-1.7,8.8,0.1,13.1
					c0.1,0.2-0.8,1.1-1.3,1.2c-1.3,0.3-2.1-0.6-2.5-1.6C312.3,267.3,314.6,265.7,312.9,264.3z"/>
				<path d="M314.6,313.7c-0.3-0.6-0.5-1.2-0.9-1.7c-2.4-2.9-1.8-6.1-1-9.3c0.2-0.8,1.6-1,2.3-0.3c2.5,2.3,1,5.4,1.2,8.1
					c0.1,0.8-0.1,1.7-0.2,2.6C315.5,313.3,315.1,313.5,314.6,313.7z"/>
				<path d="M317.4,198.1c0.4,2.2,1.5,4.9-1.7,5.3c-1.1,0.1-3.2-3.1-2.1-4.4c1.6-1.8-2.2-5.4,1.9-5.5
					C319.9,193.3,316.7,196.7,317.4,198.1z"/>
				<path d="M316.1,216.3c-4-3-0.7-6.8-1.1-10.2c-0.1-1.2,2.4-0.9,2.3-0.1C317.1,209.4,320.9,213.5,316.1,216.3z"/>
				<path d="M314.1,281.6c2.1,2.7,1.8,5.6,2.4,8.2c0.3,1.3,0.5,2.8-1.5,2.8c-1.9,0-1.2-1.6-1.6-2.7
					C312.3,287.1,311.5,284.6,314.1,281.6z"/>
			</g>
			<polyline stroke="#000000" stroke-width="5" stroke-miterlimit="10" points="315.8,194.5 315.8,206.5 314.8,221.5 313.8,255.5 
				313.8,285.5 313.8,305.5 313.8,323.5 309.8,442.5 307.8,476.5 			"/>
		</g>
	</g>
	<g id="text_00000160183660814622952060000016505312686418678689_">
		<g>
			<g>
				<path d="M574.9,320.2v44.7h-23.6V253.3h49.1c24.4,0,37.5,13.4,37.5,30.7c0,15-8.2,23.1-16.2,26.4c5.5,2,13.9,7.8,13.9,27.8v5.5
					c0,7.5,0.1,16.1,1.6,21.3h-22.9c-2-4.9-2.3-13.2-2.3-25.1v-1.6c0-12.2-3.1-18-21.1-18H574.9z M574.9,301h20.2
					c13.2,0,18.3-5,18.3-14.4c0-9.1-5.9-14.2-17.7-14.2h-20.8V301z"/>
				<path d="M663.4,364.9v-79.7c-4.9,2.3-14,4.2-19.3,4.6v-17.3c10.1-1.9,20.3-7.6,26.4-14.3H687v106.7H663.4z"/>
				<path d="M588.6,559.3L564.7,520h-0.2l-24.4,39.3h-26l37.1-56.2l-36.1-55.4h28l22.6,37h0.2l23.4-37h25.6l-36,53.2l37.7,58.4
					H588.6z"/>
				<path d="M668.8,478.7c-1.3-5.3-4.3-10.3-13.6-10.3c-14.3,0-18,13.4-18.6,27.7c4.5-5.5,12-9.9,24.1-9.9
					c19.5,0,33.4,14.4,33.4,35.3c0,22.8-14.6,39.6-39.1,39.6c-30.9,0-41.2-23.8-41.2-53.9c0-27.7,9.8-56.5,42.5-56.5
					c23.2,0,34,14.5,35,27.9H668.8z M670.9,523.5c0-10.1-3.8-19.2-16.6-19.2c-10.4,0-16.4,6-16.4,18.4c0,8.6,4.1,20.1,16.5,20.1
					C665.7,542.8,670.9,534.3,670.9,523.5z"/>
			</g>
		</g>
	</g>
</g>
<g id="text" display="none">
</g>
<g id="guides" display="none">
</g>
</svg>
