<svg xmlns="http://www.w3.org/2000/svg" xml:space="preserve" viewBox="0 0 800 800"><path fill="none" d="M0 0h800v800H0z"/><path d="M326 458.5c8-.2 11.6 3.9 11.6 13.2 0 7.7 1.9 14.9 3.4 22.3.8 3.9-1.1 7.8 0 12.1 3.4 13.7 2.6 27.8 1.9 41.8-.4 8.8-2 17.9-5.7 25.5-5.1 10.4-11.8 20.5-21.4 27.7-5 3.8-11.6 4.7-17.5 4.9-13.2.6-26.4 2.2-39.7 1.2-4.3-.3-9.6-.1-12.6 5.1-2.3 4-8 4.8-10.9 4.4-6.5-.7-13.8 1.2-19.2-6.5-4.3-6.1-13.2-5.8-20.4-5-9.1 1-12.1.1-15.2-8.6-1.5-4.3-5.8-6.8-8.4-8.3-5.5-3.1-6.6-7.6-7.1-12.2-1-9.7-4.1-19.6-.4-29.2 2.5-6.6 3.8-14.1 10.5-18.5 2.1-1.4 4.6-3.8 2.6-7.2-.3-.5-.7-1.3-.5-1.7 1.6-4.5 3.2-15.6 1.7-19.5-2.7-7.3-1.1-14.1.6-21.1 1.1-4.4 4.6-7.7 7.9-7.6 3.2.1 7.2 2.2 8.8 7.1 2.1 6.7 2.9 13.7 5.1 20.3 1.5 4.3 3.5 8.4 5.4 12.5.9 1.9 2.7 2.7 4.8 2.9 11.5 1.2 22.9 2.8 34.6 1 3.7-.6 6.3-2.2 7.8-5.2 3.5-7.4 8-14.7 7.9-23.1-.1-5.3 2.9-8.4 6.3-10.6 4.1-2.7 7.1 1.4 10.4 3.5 7.8 5.1 8 13 5 19.6-4 8.9-.9 18.3-4.2 27-1 2.8 2.2 2.9 3.6 3.8 3.2 2 7.5 3.1 5.5 8.5-.4 1 .4 2 1.2 2.9 4.9 5.6 4.3 10.1 4.7 18.2.2 4.9-2.2 9.9.5 15.4 1.4 2.8-1.1 8.6-4.3 12.3 13.2 3.6 27.4-3.7 31.9-17.9 4.3-13.3 7.7-26.7 6.6-41.3-.5-7.3-.9-15.1.1-22.6.5-3.7-2-6.7-2.5-10.3-1.5-9.8-2.9-19.7-6.3-29-3.3-9-11.9-13.9-23.6-13.5-6.6.2-13.1-.5-19.7-.5-10.6 0-14.4-8.4-20.1-14.4-1-1 .4-4.1-.3-5.6-2.2-4.3-1.7-9.3-8.6-11.8-8.8-3.2-9.4-18.4-1.4-24.2 6.1-4.4 6.5-10 6.5-16 .1-4.8 0-9.5 2.2-14 .3-.6.8-1.3.7-1.8-4.3-11.5.8-23.2-.6-34.8-1.4-11.9-.9-24-1.1-36 0-2.4.6-4.7-3.2-5.2-12.1-1.4-13.6-3.8-10.6-16.2.9-3.9 2.7-7.2 5.5-10.3 3.6-4.1 5.8-8.4 3.5-14.7-2.5-6.8-1.8-14.1 1.7-21.1 2.9-5.8-1.3-12.4.1-18.6 1.6-7 3.2-14 5.2-20.9.7-2.5 3.4-2.2 5.7-2.2 2.8 0 4.5 1.6 5.4 4 4.3 12.1 6.9 24.4 4.8 37.2-.5 3.2 1.4 5.4 2.7 7 3.3 4 3.4 8.7 2 12.6-2 5.2-.8 10-1.3 14.9-.6 5.4-.9 11-1.9 16.4-1.8 9.4-4.1 18.6-2.7 28.6 1.1 7.9.7 16.4-.8 24.2-1.1 5.7 3.2 10.9 0 16.4-.8 1.4-.2 3.5-2.4 4.3-.8.3-1.8.9-1.2 1.9 7.9 12.9 5.7 27.3 6.9 41.3.9 9.5.6 18.4-1.6 27.7s3.2 15.2 13.1 16c7.2.6 14.4.5 21.6.7 7.7.2 19.3 3.9 22.9 15.5.7 1.7.7 1.7-3.5 5.3zm-65.3 99c1.7.1 3-1.5 1.9-2.7-2.4-2.6-4.3-5.3-5.9-8.3-.6-1.1-2.3-.9-3.6-.5-.9.3-1.2 1-1.2 2-.1 2.1 6.2 9.3 8.8 9.5z"/><path fill="none" d="M400.1 100.2h400v600h-400z"/><path d="M451.3 265v-1.5c0-18.6 8.3-33.7 31.4-50.5 15-11 19.6-14.8 19.6-24.1 0-9.2-4.5-14.4-13.5-14.4-10.4 0-14.2 6.4-15.7 15.7h-22.4c1.5-18.4 13.6-33.7 38.1-33.7 27.4 0 36.8 16.3 36.8 32.3 0 15.5-6.7 23-26.3 36.8-13.1 9.2-18.4 15.3-20.2 20.1h50.5l-2.9 19.3h-75.4zM615.8 211c0 29.3-9.3 55.9-41 55.9-31.3 0-40.9-25.7-40.9-55.2 0-29.2 10.7-55.2 41.4-55.2 29.8-.1 40.5 24.2 40.5 54.5zm-58 .4c0 19.6 2.2 37 17.3 37 14.7 0 16.7-16.3 16.7-37.3 0-20.7-2.5-36.2-16.4-36.2-13.6 0-17.6 13.4-17.6 36.5z"/><path stroke="#000" stroke-miterlimit="10" stroke-width="6" d="m625.1 265 60-104.1L745.2 265H625.1zm12-7h96.1l-48.1-83.2-48 83.2z"/><path d="M444.6 285.2v-8.1h170.1v8.1H444.6zM596.6 407.6v20.2h-45.1v-20.2h45.1zM620.6 459.4v-79.7c-4.9 2.3-14 4.2-19.3 4.6V367c10.1-1.9 20.3-7.6 26.4-14.3h16.4v106.7h-23.5zM562 653.8v-1.5c0-18.6 8.3-33.7 31.4-50.5 15-11 19.6-14.8 19.6-24.1 0-9.2-4.5-14.4-13.5-14.4-10.4 0-14.2 6.4-15.7 15.7h-22.4c1.5-18.4 13.6-33.7 38.1-33.7 27.4 0 36.8 16.3 36.8 32.3 0 15.5-6.7 23-26.3 36.8-13.1 9.2-18.4 15.3-20.2 20.1h50.5l-2.9 19.3H562z"/><path fill="none" stroke="#000" stroke-miterlimit="10" stroke-width="10" d="M500 500h200v200H500z"/></svg>