<svg xmlns="http://www.w3.org/2000/svg" xml:space="preserve" viewBox="0 0 800 800"><path fill="none" d="M.7 0h800v800H.7z"/><path fill="none" d="M300.5 200.2h400V800h-400z"/><path d="M557.8 334.2c0-13.6 9.5-21.9 17.4-25.5-8.2-5.1-13.2-11.5-13.2-22.3 0-18.1 13.2-30.1 37.2-30.1 21.9 0 36.3 11.4 36.3 29.8 0 12.3-6.3 18.3-13.6 21.4 7.7 2.9 17.4 11.8 17.4 25.9 0 22-17.6 33.4-41.9 33.4-21.6 0-39.6-11.5-39.6-32.6zm58.5-1c0-10.6-7.3-15.4-17.7-15.4-11.6 0-17.5 6.3-17.5 15.3 0 9.5 7.1 15.8 18 15.8 9.9-.1 17.2-4.9 17.2-15.7zm-32.2-46c0 7.2 5.2 12 14.9 12 9.5 0 14.6-3.6 14.6-12 0-8.1-5.3-13.1-14.8-13.1-9.7.1-14.7 4.7-14.7 13.1zM663.6 364.9v-79.7c-4.9 2.3-14 4.2-19.3 4.6v-17.3c10.1-1.9 20.3-7.6 26.4-14.3h16.4v106.7h-23.5zM466.1 447.6h48.8c27 0 37.2 14.1 37.2 28.6 0 12.6-6.7 20.8-14.2 24.2 7.5 2.8 17.4 10.8 17.4 25.5 0 19.1-15 33.4-38.8 33.4h-50.4V447.6zm46 44c11.5 0 16.2-5.1 16.2-13 0-8.2-6.2-12.4-15.5-12.4h-23v25.4h22.3zm-22.3 49h21.8c13 0 19-5.5 19-15.6 0-9-5.8-14.7-19.1-14.7h-21.7v30.3zM580.3 559.2v-79.7c-4.9 2.3-14 4.2-19.3 4.6v-17.3c10.1-1.9 20.3-7.6 26.4-14.3h16.4v106.7h-23.5zM617.5 559.2v-1.5c0-18.6 8.3-33.6 31.4-50.5 15-11 19.6-14.8 19.6-24.1 0-9.2-4.5-14.4-13.5-14.4-10.4 0-14.2 6.4-15.7 15.7H617c1.5-18.4 13.6-33.7 38.1-33.7 27.4 0 36.8 16.3 36.8 32.3 0 15.5-6.7 23-26.3 36.8-13.1 9.2-18.4 15.3-20.2 20.1h50.5l-2.9 19.3h-75.5z"/><path fill="none" stroke="#000" stroke-miterlimit="10" stroke-width="10" d="M530.7 234h167"/><path d="M321.7 329.1c2.3.1 5.3-1 6.5 2.2 1.5 3.9-1 7.5-1.6 11.2-.3 1.7-4.2 1.1-6.7.5-2.8-.7-5.7-1.1-8.5-1.1-1.8 0-3.6 1.4-3.7 3.2-.2 2.5 2.3 2.4 3.9 2.6 2.4.3 4.9 0 7.3.3 5.4.6 8.1 4.3 5.3 8.5-1.8 2.7-1.4 4.4-.5 6.5 2.4 5.7-1.8 14-9.2 12.6-8.2-1.6-7.9 4.1-7.5 8.1 1.4 15.7.7 31.4.5 47.1-.1 5.7 0 11.6.5 17.3.6 8.2-.9 16.4.1 24.7.5 4.1 2.2 5.9 6.1 6.3.7.1 1.3.1 2 .3 17.6 3.9 16.7 6.4 16.2 22.7-.3 8.2-.5 16.5 0 24.7.2 3-2.4 6.1.5 9.4 1.3 1.5-1.5 3.2-3.2 4.2-6.3 3.8-13.5 4.1-20.1 3.2-16.2-2.3-32.7 1.5-48.7-3-9.6-2.7-11.9-5.4-11-14.7.6-6.2 2.2-13-.1-19.3-.6-1.7-.3-2.8.2-4.3 1.2-3.2 2-6.5 1.7-10.1-.8-7.1 3.5-13 10.4-14.3.9-.2 1.8 0 2.7-.2 4.3-1 10.6 1.9 12.5-1.8 2.3-4.4 1.8-10.5 1.7-15.9-.3-13-.2-26.1-.2-39.1 0-.9.1-1.9.5-2.6 3.4-6-.6-11.9 0-17.6.9-8.3-1.4-16.4 0-24.6.6-3.5 1.3-6.8-4.1-6.3-1.9.2-3.6-1.5-4.8-1.5-2.6.2-8.3-5.9-7.6 3.2.2 2.4-10.6 5-12.4 3.1-1.1-1.2-1-2.5 1-2.7 1.2-.1 2.5 0 4.3-1.9-4.7.7-8-.3-7.4-4.9.6-4.2 2.5-7.6 7.8-7.1 3.4.3 5.8.2 5.6-4.7-.1-4.2 2.6-6.6 7.4-5.7 1.7.3 3.5 0 5.3-.2 1.3-.2 2.7-.6 2.6-2.4-.1-1.9-1.4-1.9-2.8-1.9-2.7 0-5.5-.7-8-.1-5.2 1.3-5.8-3.1-7.7-5.7-1.6-2.1.3-3.8 1.9-5 2.9-2.3 5.4-4.1 9.2-.6 3 2.7 7.9.9 15.9-4.2-2-2.3-3.9-.8-6 0-4.5 1.9-8.2 2-10.7-3.5-1.4-2.9-4.4-5.2-7.1-7.4-9-7.5-17.7-15.4-27.4-21.9-7.1-4.8-14.8-8.6-21.7-13.8-2-1.5-4.1-.9-6.3-.6-5 .7-9.6-1.5-11.2-5.8-1.8-5-3.2-11.1 2.2-15.4 4-3.2 12-2 16.1 1.4 1.5 1.3 1.5 2.7 1.2 4.1-1.7 8.2 4.9 10.2 9.6 14.3 6.1 5.4 13.7 7.6 20.1 11.8 4.5 3 6.9 9.4 13.5 9.3 7-.1 14.1-.8 21.1-1.3 2.2-.2 4.4-.5 6.5-.9 2.1-.4 5.1.7 4-3.8-.6-2.5 2.7-3.7 5.2-3.6 1.9.1 2.9 1 3.7 3.5 1.5 4.9 3.8 8.8.2 14.1-1.7 2.6.2 6.9 4.9 7.4 8.6 1 16.1-.5 23.2-6.5 4.6-3.9 8.9-8.3 13.6-12 3.6-2.9 6.7-7.7 10.9-9.7 4.8-2.3 8.4-5.3 12.2-8.9 4.3-4 10.1-5.7 9.6-13.8-.3-4.7 7.7-8.8 12.6-8.1 5.3.8 12.7 7.5 12 11.8-1 6.7-7.5 9-12.3 8.8-14.6-.5-21.6 10.9-31.5 17.8-5.4 3.8-10.5 8.3-14.6 12.9-6.2 6.5-17.7 9.4-17.4 21.4zm-48.4-22.4c4.2 6.3 7.1 7.8 11.3 7.1 2.9-.5 3.7-2.4 3.7-4.7 0-2.4-2.2-2.4-4-2.4h-11zm37.9 25.6c1.4-.4 4.2 1.6 4.7-1 .6-2.9-2.5-2.9-4.6-3.4-1-.3-2-1.1-3-1.1-2-.1-4.9-2-5.5 1.1-.5 2.8 2.3 3.9 4.8 4.4 1.1.2 2.2 0 3.6 0z"/></svg>