<?xml version="1.0" encoding="utf-8"?>
<!-- Generator: Adobe Illustrator 26.5.0, SVG Export Plug-In . SVG Version: 6.00 Build 0)  -->
<svg version="1.2" baseProfile="tiny" xmlns="http://www.w3.org/2000/svg" xmlns:xlink="http://www.w3.org/1999/xlink" x="0px"
	 y="0px" viewBox="0 0 800 800" overflow="visible" xml:space="preserve">
<g id="bg" display="none">
</g>
<g id="scratch" display="none">
</g>
<g id="counters_00000155831629897369998050000010902328751353074356_">
	<g>
		<g>
			<line fill="none" stroke="#FFFFFF" stroke-width="75" stroke-miterlimit="10" x1="99.9" y1="699.1" x2="699.9" y2="99.1"/>
			<line fill="none" stroke="#FFFFFF" stroke-width="75" stroke-miterlimit="10" x1="99.9" y1="99.1" x2="699.9" y2="699.1"/>
		</g>
		<g>
			<g>
				<path d="M575.1,316.8v44.7h-23.6V249.9h49.1c24.4,0,37.5,13.4,37.5,30.7c0,15-8.2,23.1-16.2,26.4c5.5,2,13.9,7.8,13.9,27.8v5.5
					c0,7.5,0.1,16.1,1.6,21.3h-22.9c-2-4.9-2.3-13.2-2.3-25.1v-1.6c0-12.2-3.1-18-21.1-18H575.1z M575.1,297.6h20.2
					c13.2,0,18.3-5,18.3-14.4c0-9.1-5.9-14.2-17.7-14.2h-20.8V297.6z"/>
				<path d="M663.6,361.6v-79.7c-4.9,2.3-14,4.2-19.3,4.6v-17.3c10.1-1.9,20.3-7.6,26.4-14.3h16.4v106.7H663.6z"/>
				<path d="M588.8,556l-23.9-39.3h-0.2L540.2,556h-26l37.1-56.2l-36.1-55.4h28l22.6,37h0.2l23.4-37H615l-36,53.2l37.7,58.5H588.8z"
					/>
				<path d="M669,475.3c-1.3-5.3-4.3-10.3-13.6-10.3c-14.3,0-18,13.4-18.6,27.7c4.5-5.5,12-9.9,24.1-9.9c19.5,0,33.4,14.4,33.4,35.4
					c0,22.8-14.6,39.7-39.1,39.7c-30.9,0-41.2-23.8-41.2-53.9c0-27.7,9.8-56.6,42.5-56.6c23.2,0,34,14.5,35,27.9H669z M671.1,520.1
					c0-10.1-3.8-19.2-16.6-19.2c-10.4,0-16.4,6.1-16.4,18.4c0,8.6,4.1,20.1,16.5,20.1C665.8,539.4,671.1,530.9,671.1,520.1z"/>
			</g>
		</g>
		<g>
			<path d="M207.2,516.3c2.9-8.5,0.3-16.7,3.3-24.2c-7.2-0.9-9.4-3.8-8.6-13.6c0.3-3.2,0.1-6.5,0.9-9.8c1.3-5-1.2-8-6.5-8.3
				c-0.2,0-0.4,0-0.7,0c-9.9-1.2-17.8-0.7-21.8,11.4c-3.6,11.2-9.3,22-15.8,31.9c-3.6,5.5-3.7,12.3-9.1,17.4
				c-2.8,2.7-5.1,10-2.6,16.2c1.8,4.4-0.5,7.5-4.4,10.5c-3.8,3-6.9,2.2-10.4,0.9c-2.6-1-6.2-11.4-4.2-13c5.2-4,7-11.1,13.7-13.8
				c4-1.6,3.2-6.6,5.1-9.9c4.1-7.2,6.9-15.1,11.6-22c1.6-2.3,3.1-5.1,3.8-7.6c2.9-9.5,9.6-17.1,13.2-26
				c4.3-10.6,11.3-19.9,13.9-31.2c0.5-2.3,1.4-4.4,3.5-5.3c4.5-1.8,3-6.1,3.2-9c0.2-2.7-3.9-2.7-6.4-3.3c-8.2-1.9-16.1-1.5-24.6,0.4
				c-11,2.4-22.5,1-33.7-1.5c-6.3-1.4-12.9-1.2-19.4-1.3c-10.8-0.1-10.8,0-11.1-10.9c-0.3-10.3-0.3-10.5,10.2-11.1
				c14.5-0.9,29.1,1.4,43.7,0c3.1-0.3,6.5,0.8,9.5,2.5c10.2,5.7,21.4,3.3,32.2,3.4c2.5,0,6.4-1.9,7.5-7.3c0.8-4.1,4.4-9.7,9.7-12
				c-0.5-1.9-5-0.3-3.5-3.3c2.7-5.2-2.5-13.5,7.7-16.3c-6-1.1-7.1-4.4-6.7-8.6c1.2-14.3-1.1-28.6-0.2-42.8c0.7-12.7-2-25.5,0.9-38.4
				c0.6,0.4,1.2,0.6,1.5,1.1c1.1,1.5,0.1,5.3,3.6,4.1c2.8-0.9,2.4-4,2.3-6.4c0-3.1-2.4-2.8-4.3-2.3c-8.4,2.3-4.1-3.7-3.7-6.2
				c0.6-4.5,4.6-1.9,7-2.4c2.2-0.5,4.2,0.7,4.3,3c0.3,7.7,1.3,15.6,0.2,23.1c-1.1,8.1-0.1,15.9,0,23.9c0.1,3.9-0.2,8.2-1,12.3
				c-1.2,6.7-0.1,13.5-0.9,20.2c-0.6,5.6,3.4,11.4-0.6,17c-0.5,0.8,1.7,3,1.7,4.6c0.1,6.9-1.7,13.8,0.9,20.6c0.1,0.3-0.5,1-0.3,1.2
				c7.6,11.4-1,8.1-6.7,7.3c-0.2,0-0.4,0-0.7,0.1c-3.4,0.5-7.4-0.1-9.5,3.5c-0.8,1.4-0.3,3.1,1,4.2c3.3,2.7,7.7,2.8,10.7,0.9
				c7.5-4.7,6.9,0.5,6.8,5c-0.2,6.8,3.3,12.5,6.3,17.8c6.9,12.3,11.9,25.5,17,38.5c4,10.1,9.2,19.5,13.3,29.5
				c3.8,9,7.8,18,11.6,26.9c0.5,1.1,2.1,2.2,0.6,3.4c-1.3,1-3.1,2.1-4.8,0.6c-1-0.9-3.4-1.7-2-3.5c2.1-2.8-0.4-3.8-1.3-5.6
				c-5.7-11.4-12.2-22.4-16.8-34.3c-2.4-6.4-7.2-8.5-16.4-6.8c-4.9,0.9-6.1,4.1-7.4,9.1c-1.6,6.7,2.1,13.7-1.7,20.1
				c-0.7,1.1-0.9,3.2-2.1,3.7c-7.4,3.1-5.6,7.8-2.6,13c1.4,2.4-1.1,7.3-3.8,7.6C212,515.5,210.3,515.8,207.2,516.3z M213.3,395.4
				c-2.6,1-7.5,0.4-6.2,5.9c1.4,6,1.6,12.4,0.6,18c-1.4,7.9,0.7,15.7-1,23.5c-0.8,3.7,5.8,7,9.3,4.8c2.9-1.9,6-2.7,4-8.5
				c-3.6-10.8,2.4-22.8-2.7-33.8c-0.3-0.6,0.5-1.6,0.8-2.4C220.4,398.2,218.8,395.5,213.3,395.4z M202.2,433.2
				c-0.2-0.9,1.7-4.9-2.8-4.9c-4.1-0.1-7.7,2.7-8,6.9c-0.3,3.4-1.4,5.7-3.6,8c-2.3,2.5-5,5.9-4.2,8.9c0.7,2.4,5.1,1,7.8,1.6
				c1.7,0.4,3.5,0.4,5.2,0.2c3.8-0.5,5.9-2.1,6.6-6.6C204.1,442.7,201.8,439,202.2,433.2z M212.6,459.6c-2,0.3-4.4,0.5-4,3.2
				c0.4,2.5,2,4.4,4.9,4.2c2.2-0.2,5.4-0.5,5.3-2.8C218.6,461.2,215.5,460,212.6,459.6z M229.7,443.4c1.6-1.1,5.6,1.2,5.6-2.8
				c0-2.4-2.2-4.3-5.1-4c-2.3,0.3-5.2,0.1-5.4,3.5C224.7,443.1,226.9,443.4,229.7,443.4z"/>
			<path d="M285.9,536.5c1.9,3.1,6.6,0.8,6.1,4.1c-0.4,3.3-0.8,7.2-3.5,9.6c-2.2,2-5.1,2.9-7.3-0.5c-0.2-0.4-0.2-1.1-0.5-1.2
				c-8.3-3.3-5.4-11.1-6.3-17c-0.6-4-3.9-7.7-2-12c0.5-1.2-1.7-3.3,1-3.7c1.7-0.3,3.3,0.8,3.5,2.4c0.8,6.5,5.3,9.3,10.4,12.1
				C291,532.3,292.1,535.3,285.9,536.5z"/>
			<path d="M205.9,521c4.1-1.3,6.4,1.2,8.7-0.6c1.1-0.8,2.4-2.4,3.8-0.3c1,1.4-0.1,2.4-0.9,3.5c-1.7,2.4-2.1,6.2-6.3,5.6
				C206,528.4,209.7,523.1,205.9,521z"/>
		</g>
	</g>
</g>
<g id="text" display="none">
</g>
<g id="guides" display="none">
</g>
</svg>
