<svg xmlns="http://www.w3.org/2000/svg" xml:space="preserve" viewBox="0 0 800 800"><g fill="none" stroke="#FFF" stroke-miterlimit="10" stroke-width="75"><path d="m100 700 600-600M100 100l600 600"/></g><path fill="none" d="M-7.1.3h800v800h-800z"/><path fill="none" d="M292.7 200.5h400v599.8h-400z"/><path d="M567.3 320.5v44.7h-23.6V253.5h49.1c24.4 0 37.5 13.4 37.5 30.7 0 15-8.2 23.1-16.2 26.4 5.5 2 13.9 7.8 13.9 27.8v5.5c0 7.5.1 16.1 1.6 21.3h-22.9c-2-4.9-2.3-13.2-2.3-25.1v-1.6c0-12.2-3.1-18-21.1-18h-16zm0-19.3h20.2c13.2 0 18.3-5 18.3-14.4 0-9.1-5.9-14.2-17.7-14.2h-20.8v28.6zM655.8 365.1v-79.7c-4.9 2.3-14 4.2-19.3 4.6v-17.3c10.1-1.9 20.3-7.6 26.4-14.3h16.4v106.7h-23.5zM581 559.5l-24-39.3h-.2l-24.4 39.3h-26l37.1-56.2-36.1-55.4h28l22.6 37h.2l23.4-37h25.6l-36 53.2 37.7 58.4H581z"/><path d="M661.2 478.9c-1.3-5.3-4.3-10.3-13.6-10.3-14.3 0-18 13.4-18.6 27.7 4.5-5.5 12-9.9 24.1-9.9 19.5 0 33.4 14.4 33.4 35.3 0 22.8-14.6 39.6-39.1 39.6-30.9 0-41.2-23.8-41.2-53.9 0-27.7 9.8-56.5 42.5-56.5 23.2 0 34 14.5 35 27.9h-22.5zm2.1 44.8c0-10.1-3.8-19.2-16.6-19.2-10.4 0-16.4 6-16.4 18.4 0 8.6 4.1 20.1 16.5 20.1 11.2 0 16.5-8.5 16.5-19.3zM313.9 329.3c2.3.1 5.3-1 6.5 2.2 1.5 3.9-1 7.5-1.6 11.2-.3 1.7-4.2 1.1-6.7.5-2.8-.7-5.7-1.1-8.5-1.1-1.8 0-3.6 1.4-3.7 3.2-.2 2.5 2.3 2.4 3.9 2.6 2.4.3 4.9 0 7.3.3 5.4.6 8.1 4.3 5.3 8.5-1.8 2.7-1.4 4.4-.5 6.5 2.4 5.7-1.8 14-9.2 12.6-8.2-1.6-7.9 4.1-7.5 8.1 1.4 15.7.7 31.4.5 47.1-.1 5.7 0 11.6.5 17.3.6 8.2-.9 16.4.1 24.7.5 4.1 2.2 5.9 6.1 6.3.7.1 1.3.1 2 .3 17.6 3.9 16.7 6.4 16.2 22.7-.3 8.2-.5 16.5 0 24.7.2 3-2.4 6.1.5 9.4 1.3 1.5-1.5 3.2-3.2 4.2-6.3 3.8-13.5 4.1-20.1 3.2-16.2-2.3-32.7 1.5-48.7-3-9.6-2.7-11.9-5.4-11-14.7.6-6.2 2.2-13-.1-19.3-.6-1.7-.3-2.8.2-4.3 1.2-3.2 2-6.5 1.7-10.1-.8-7.1 3.5-13 10.4-14.3.9-.2 1.8 0 2.7-.2 4.3-1 10.6 1.9 12.5-1.8 2.3-4.4 1.8-10.5 1.7-15.9-.3-13-.2-26.1-.2-39.1 0-.9.1-1.9.5-2.6 3.4-6-.6-11.9 0-17.6.9-8.3-1.4-16.4 0-24.6.6-3.5 1.3-6.8-4.1-6.3-1.9.2-3.6-1.5-4.8-1.5-2.6.2-8.3-5.9-7.6 3.2.2 2.4-10.6 5-12.4 3.1-1.1-1.2-1-2.5 1-2.7 1.2-.1 2.5 0 4.3-1.9-4.7.7-8-.3-7.4-4.9.6-4.2 2.5-7.6 7.8-7.1 3.4.3 5.8.2 5.6-4.7-.1-4.2 2.6-6.6 7.4-5.7 1.7.3 3.5 0 5.3-.2 1.3-.2 2.7-.6 2.6-2.4-.1-1.9-1.4-1.9-2.8-1.9-2.7 0-5.5-.7-8-.1-5.2 1.3-5.8-3.1-7.7-5.7-1.6-2.1.3-3.8 1.9-5 2.9-2.3 5.4-4.1 9.2-.6 3 2.7 7.9.9 15.9-4.2-2-2.3-3.9-.8-6 0-4.5 1.9-8.2 2-10.7-3.5-1.4-2.9-4.4-5.2-7.1-7.4-9-7.5-17.7-15.4-27.4-21.9-7.1-4.8-14.8-8.6-21.7-13.8-2-1.5-4.1-.9-6.3-.6-5 .7-9.6-1.5-11.2-5.8-1.8-5-3.2-11.1 2.2-15.4 4-3.2 12-2 16.1 1.4 1.5 1.3 1.5 2.7 1.2 4.1-1.7 8.2 4.9 10.2 9.6 14.3 6.1 5.4 13.7 7.6 20.1 11.8 4.5 3 6.9 9.4 13.5 9.3 7-.1 14.1-.8 21.1-1.3 2.2-.2 4.4-.5 6.5-.9 2.1-.4 5.1.7 4-3.8-.6-2.5 2.7-3.7 5.2-3.6 1.9.1 2.9 1 3.7 3.5 1.5 4.9 3.8 8.8.2 14.1-1.7 2.6.2 6.9 4.9 7.4 8.6 1 16.1-.5 23.2-6.5 4.6-3.9 8.9-8.3 13.6-12 3.6-2.9 6.7-7.7 10.9-9.7 4.8-2.3 8.4-5.3 12.2-8.9 4.3-4 10.1-5.7 9.6-13.8-.3-4.7 7.7-8.8 12.6-8.1 5.3.8 12.7 7.5 12 11.8-1 6.7-7.5 9-12.3 8.8-14.6-.5-21.6 10.9-31.5 17.8-5.4 3.8-10.5 8.3-14.6 12.9-6.2 6.6-17.7 9.5-17.4 21.4zM265.6 307c4.2 6.3 7.1 7.8 11.3 7.1 2.9-.5 3.7-2.4 3.7-4.7 0-2.4-2.2-2.4-4-2.4h-11zm37.8 25.6c1.4-.4 4.2 1.6 4.7-1 .6-2.9-2.5-2.9-4.6-3.4-1-.3-2-1.1-3-1.1-2-.1-4.9-2-5.5 1.1-.5 2.8 2.3 3.9 4.8 4.4 1.1.2 2.2 0 3.6 0z"/></svg>