<svg xmlns="http://www.w3.org/2000/svg" xml:space="preserve" viewBox="0 0 800 800"><path fill="none" d="M0 0h800v800H0z"/><path d="M205.2 385.4c-1-1.8-3.9.6-4.2-2-.2-1.7 1.2-2.6 2.5-3.5 7.8-5.2 15.1-10.7 23.8-14.9 9.6-4.7 17.8-13.5 20-25.2 2-10.4-2.9-16.6-11.4-22.6-9.1-6.4-19.4-9.6-28.9-14.7-12.3-6.7-12.1-20.2-1.2-28.6 8.7-6.7 18.5-6.4 28-6.4 11.7.1 24-1.6 35.1 2.7 14.3 5.5 30.4 5.2 43.7 13.2 10.5 6.4 21.9 12.1 30.1 21.4 6.5 7.4 11.7 16 17 24.2 1.8 2.8 2.2 8.5 2.3 13.1.3 10.2-1.3 20.1-4.1 29.8-1.3 4.7-3.8 7.8-9.4 6.2-1.1-.3-2.5.1-3.8.9 2.8.7 5.7 1.3 9.8 2.3-4 2.1-3 7-7.4 7.5-.4 0-.8.3-1.2.4 5.8 6.4-3.1 10-3.2 15.8-.2 6.9-1.9 13.5-1.2 20.9.7 6.7 2.6 11.4 6.7 16 .9 1.1 1.9 2.9 1.6 4.2-1.7 7.3 1.4 15-1.7 22.2-1 2.4.5 4.6.4 7.1-.6 12-.6 23.9-2.2 36-1.3 10.1.6 21 .3 31.6-.3 10 1 20.1.5 30-.3 4.9-6.3 7.6-10.8 9.4-4.8 1.9-9.9 2-15.3 1.2-5.8-.8-12 .8-18 1.5-4.2.5-8.4.9-12.2-1-3.3-1.6-6.4-.2-9.6 0-9.4.6-18.8-.3-28.1-1.5-7.4-1-14.3-.1-21.4 1.1-5.1.9-11.5 1.5-14.6-1.2-5.4-4.6-11.6-8.7-15.7-14.8-7.4-11.1-4.9-23.4-4.4-35.6.5-11.7-.4-23.5-1-35.2-.1-2.6-.2-5.1-.1-7.7.4-11.6 1-23.2 1.2-34.7.1-12.9-1.4-25.9-4-38.9-1.7-8.5.9-19.4 5.8-28.2 1.5-3 4.2-1 6.3-2zm132.3 7.6c-9-1-10.7-3.4-5.3-10.6 3.5-4.7 7.5-9.6 9.3-14.5 3.6-10 4.7-20.7 2.3-31.7-2.4-11.2-10.7-17.4-18-24.9-4.1-4.2-11.1-3.6-14.3-8.5-2.3-3.5-5-5.1-8.6-6.3-4.3-1.5-8.4-3.5-12.7-5-19.2-6.8-38.4-13.4-59.2-7.2-1.7.5-3.5.7-3.8 2.9-.2 1.5.8 2.2 2.2 2.7 8.7 3 14.7 10 21.5 15.6 12.7 10.5 17.3 35 9.5 49.8-1.4 2.7 1.3 5.6-2 7.5-8.6 5.1-16 12.2-25.1 16.6-7.4 3.5-15.3 6.7-18.6 14.8-2.4 5.9-10.2 9.5-7.2 17.5-4.8 3.1 2.1 3.9 1.3 6.4-1.8 5.2 1.9 4.6 5 4.5 14.6-.1 29.2.3 43.9.1 19.9-.4 39.7-.9 59.6.7 4.3.3 8.3.5 6.9-7-3-16 .3-20.8 13.3-23.4zm5.2 59.2c-3.8-.8-6-.7-7.4-1.7-9.7-7.5-17.1-7.6-27.4-.1-1.9 1.4-4 2-5.5-.6-2-3.6-4.4-3.2-6.6-.4-1.6 2.1-3.7 1.7-5.8 2.1-5.4 1.1-8-3.1-12-5-10.4-5.2-21.9-2.4-32.9-1.6-3.7.3-9.2 1.2-8.4 8.2.2 1.8-2.7 5.5-5.7 6.5-3.1 1-3.5-2.4-5-4.1-.6-.6-2-.7-3-.8-.3 0-.9 1.2-.9 1.2 4.4 4.4 1.7 10.5 3.4 15.7 2.5 7.7-3.1 16.2 0 24.4.1.2-.5.7-.8.9-2.8 1.7-.8 3.5-.5 5.6.7 4.6 5.1 3.1 7.4 5.1 4 3.7 8.9 2.2 11.9-2.4 2.5-3.9.7-7.4.3-11.2-.4-4.1 1.3-8-2.3-12-2.1-2.3-2.1-7-2.2-10.6 0-1.6-.8-4.7 2.6-5.1 3.3-.4 3.2 2.3 3.8 4.2 2.4 7.3 3.3 7.7 9.9 4.7 1.9-.9 4.3-3.1 5.7-.5 1 1.9 1 5.2-1.3 7-1.8 1.4-3.3 3.5-6.1 3.5-3.8 0-5.2 3-4.9 5.7.7 6.4-.3 12.6-1.5 18.7-.3 1.8.7 2.9 1.2 4.2.7 1.8 1.7 3.3 3.8 2.8 2.2-.6.9-2.5.9-3.9-.3-4.6-.6-9.1-.8-13.7 0-1.5.3-3.2 1.9-3.9 1.6-.7 2 1.6 3.2 1.7 4.5.8 1.2 4.9 3.4 7.3 6.5 7.3 14.3 5.9 22.1 4.9 7.1-.9 13.9-.3 20.8 1.1 3.7.7 9.3 2.3 10.2-3.3.9-6 0-12.2 1.1-18.3.3-1.7-.3-3-1.6-4.1-3.4-2.9-3.3-6.9-3.5-10.8-.3-5.8-.2-11.6-.7-17.3-.1-1.9 0-3.2 1.8-3.4 1.8-.2 4 1 3.5 2.9-1.1 4 .8 7.7.1 11.6-1.5 7.7.5 9.4 8.1 7.4 1.3-.3 2.4-1.1 3.7-1.4 3.2-1 4.5-.6 4.4 3.6-.1 3.9-2 7.1-2.9 10.4-1.9 6.3 3.8 10.6 2.8 16.4-.4 2.1-1.4 4.7 2.5 5.4 3 .6 5.3.3 6.1-2.8 1.3-5.2 3.6-10.4 3-15.8-.6-5.5-3-10.5-1.3-16.7.9-3.5-2.1-8.3.6-12.6.2-.4-.5-1.9-1.1-2.1-5.9-2.5-3.7-4.6 1.9-7zm-30 80.6c2.3-6.1-1.3-7.4-7.1-7.9-4.3-.3-8.7-.5-13-1.1-9.3-1.2-18.1 2-27.2 1.4-6.2-.4-9 1.3-6.1 7.8.3.7.4 2.2.1 2.3-6.5 3.2-1.2 8.4-2 12.5-.7 3.5.8 7.2-.6 10.9-2.5 6.4-.3 10.3 6.5 11.9 13 3.1 26 2.4 39 0 5-.9 8.3-2.6 11.1-8.1 3.6-7-2.5-14 2.3-20.1-5.6-1.5-2.7-5.7-3-9.6zm-69.6-.1c-1.4-1.6 3.2-7.2-3-7.5-4.1-.2-8-.2-12-1.7-2.4-.9-9.1.2-7.8 3.1 2.6 5.8-2.3 11.4 1.9 17 3.2 4.2.8 10.4 1.8 15.7 1.9 9.5 3 11.6 12 12.1 4.3.3 8.7-3.6 8.6-7-.6-10.2-1-20.4-1.5-31.7zm89.1 38c2.7-.3 6.1.3 5.3-4.3-1.5-9 2.1-18.1-.3-27.3-.3-1.3-1.5-3-.5-4.8 2.5-4.5-1.9-6.7-3.8-9.5-1-1.4-3.8-.5-5.5.3-1.5.7-1.8 2.3-1.2 4 1.9 4.7-2.5 10.4 2.1 14.8.3.3-.1 1.9-.6 2.3-4 3.1-2 7.1-1.6 10.8.3 3 2 6.1 1.4 8.8-1.1 4.7 1 5.2 4.7 4.9zM229.3 433c1.9 3 4.3 2.8 6.4 2.5 8.4-.9 16.8-.1 25.2.9 10.1 1.2 20 2 29.7-1.8.9-.4 2.3 0 2.4-1.5.1-1.3-.7-2.1-1.9-2.3-1.7-.3-3.5-.5-5.2-.5-10.2-.1-20.4-.5-30.6-.1-8.6.3-17.3.8-26 2.8zm19 132.6c-.3 2.1-1 4.5 2.1 5.1 1.9.3 3.1-1 2.4-2.7-.8-2.1 1.3-5.9-2.7-6.3-2.5-.2-1.9 2.2-1.8 3.9zM316 437.1c1-.3 3.3.6 3.3-1.4 0-2.1-1.8-3.4-4.1-2.8-1.3.4-3.7-.5-3.7 1.5-.1 2.4 2 3 4.5 2.7z"/><path d="M286 561.7c-3.8.8-6.1-.4-7-4.2-.4-1.7-.8-3.7-1.9-4.8-6.7-6.5-.7-11.8 1.8-16.9 1.6-3.1 5-5.7 9.3-4.5 4 1.1 8.5.9 10.4 6.2 2.5 6.9 1.7 12.1-3.8 17.9-2.5 2.9-3.2 8.3-8.8 6.3z"/><path fill="none" stroke="#000" stroke-miterlimit="10" stroke-width="10" d="M500 118h200v200H500z"/><path fill="none" d="M400.9 99.9h400v600h-400z"/><path d="M518.4 196.3c1.5-13.1 10.8-29.3 37.4-29.3 24.7 0 35.7 14 35.7 29 0 12.8-7.4 18.9-13.2 21.6v.5c6.9 2.5 17.3 9.2 17.3 25.7 0 15.4-9.3 33.7-40 33.7-28.6 0-38.3-17.2-39.4-31.3h22.5c1.5 7.3 6.5 13.6 17.5 13.6 10.7 0 16-6.9 16-16.3 0-9.9-5-15.8-17.5-15.8h-9.6v-17.9h8.4c10.6 0 14.9-3.5 14.9-12.5 0-7.3-4.4-12.3-13.5-12.3-10.8 0-13.4 6-14.6 11.3h-21.9zM683.2 221.5c0 29.3-9.3 55.9-41 55.9-31.3 0-40.9-25.7-40.9-55.2 0-29.2 10.7-55.2 41.4-55.2 29.7-.1 40.5 24.2 40.5 54.5zm-58 .4c0 19.6 2.2 37 17.3 37 14.7 0 16.7-16.3 16.7-37.3 0-20.7-2.5-36.2-16.4-36.2-13.7 0-17.6 13.4-17.6 36.5z"/><path stroke="#000" stroke-miterlimit="10" stroke-width="6" d="m540.8 448.3 60-104.1L661 448.3H540.8zm12-7h96.1L600.8 358l-48 83.3z"/><path d="m579.4 616.9-8.7 25.8H547L584.9 531h30.3l39.6 111.7h-25.4l-9.2-25.8h-40.8zm35.6-19.8c-7.9-23.6-13-38.6-15.7-48.7h-.2c-2.8 11-8.3 28.5-14.7 48.7H615z"/></svg>