<svg xmlns="http://www.w3.org/2000/svg" xml:space="preserve" viewBox="0 0 800 800"><path d="M214.7 549.9c2.9-8.5.3-16.7 3.3-24.2-7.2-.9-9.4-3.8-8.6-13.6.3-3.2.1-6.5.9-9.8 1.3-5-1.2-8-6.5-8.3h-.7c-9.9-1.2-17.8-.7-21.8 11.4-3.6 11.2-9.3 22-15.8 31.9-3.6 5.5-3.7 12.3-9.1 17.4-2.8 2.7-5.1 10-2.6 16.2 1.8 4.4-.5 7.5-4.4 10.5-3.8 3-6.9 2.2-10.4.9-2.6-1-6.2-11.4-4.2-13 5.2-4 7-11.1 13.7-13.8 4-1.6 3.2-6.6 5.1-9.9 4.1-7.2 6.9-15.1 11.6-22 1.6-2.3 3.1-5.1 3.8-7.6 2.9-9.5 9.6-17.1 13.2-26 4.3-10.6 11.3-19.9 13.9-31.2.5-2.3 1.4-4.4 3.5-5.3 4.5-1.8 3-6.1 3.2-9 .2-2.7-3.9-2.7-6.4-3.3-8.2-1.9-16.1-1.5-24.6.4-11 2.4-22.5 1-33.7-1.5-6.3-1.4-12.9-1.2-19.4-1.3-10.8-.1-10.8 0-11.1-10.9-.3-10.3-.3-10.5 10.2-11.1 14.5-.9 29.1 1.4 43.7 0 3.1-.3 6.5.8 9.5 2.5 10.2 5.7 21.4 3.3 32.2 3.4 2.5 0 6.4-1.9 7.5-7.3.8-4.1 4.4-9.7 9.7-12-.5-1.9-5-.3-3.5-3.3 2.7-5.2-2.5-13.5 7.7-16.3-6-1.1-7.1-4.4-6.7-8.6 1.2-14.3-1.1-28.6-.2-42.8.7-12.7-2-25.5.9-38.4.6.4 1.2.6 1.5 1.1 1.1 1.5.1 5.3 3.6 4.1 2.8-.9 2.4-4 2.3-6.4 0-3.1-2.4-2.8-4.3-2.3-8.4 2.3-4.1-3.7-3.7-6.2.6-4.5 4.6-1.9 7-2.4 2.2-.5 4.2.7 4.3 3 .3 7.7 1.3 15.6.2 23.1-1.1 8.1-.1 15.9 0 23.9.1 3.9-.2 8.2-1 12.3-1.2 6.7-.1 13.5-.9 20.2-.6 5.6 3.4 11.4-.6 17-.5.8 1.7 3 1.7 4.6.1 6.9-1.7 13.8.9 20.6.1.3-.5 1-.3 1.2 7.6 11.4-1 8.1-6.7 7.3-.2 0-.4 0-.7.1-3.4.5-7.4-.1-9.5 3.5-.8 1.4-.3 3.1 1 4.2 3.3 2.7 7.7 2.8 10.7.9 7.5-4.7 6.9.5 6.8 5-.2 6.8 3.3 12.5 6.3 17.8 6.9 12.3 11.9 25.5 17 38.5 4 10.1 9.2 19.5 13.3 29.5 3.8 9 7.8 18 11.6 26.9.5 1.1 2.1 2.2.6 3.4-1.3 1-3.1 2.1-4.8.6-1-.9-3.4-1.7-2-3.5 2.1-2.8-.4-3.8-1.3-5.6-5.7-11.4-12.2-22.4-16.8-34.3-2.4-6.4-7.2-8.5-16.4-6.8-4.9.9-6.1 4.1-7.4 9.1-1.6 6.7 2.1 13.7-1.7 20.1-.7 1.1-.9 3.2-2.1 3.7-7.4 3.1-5.6 7.8-2.6 13 1.4 2.4-1.1 7.3-3.8 7.6-1.4.3-3.1.6-6.1 1.1zm6.1-120.9c-2.6 1-7.5.4-6.2 5.9 1.4 6 1.6 12.4.6 18-1.4 7.9.7 15.7-1 23.5-.8 3.7 5.8 7 9.3 4.8 2.9-1.9 6-2.7 4-8.5-3.6-10.8 2.4-22.8-2.7-33.8-.3-.6.5-1.6.8-2.4 2.3-4.7.7-7.4-4.8-7.5zm-11.1 37.8c-.2-.9 1.7-4.9-2.8-4.9-4.1-.1-7.7 2.7-8 6.9-.3 3.4-1.4 5.7-3.6 8-2.3 2.5-5 5.9-4.2 8.9.7 2.4 5.1 1 7.8 1.6 1.7.4 3.5.4 5.2.2 3.8-.5 5.9-2.1 6.6-6.6.8-4.6-1.4-8.3-1-14.1zm10.4 26.4c-2 .3-4.4.5-4 3.2.4 2.5 2 4.4 4.9 4.2 2.2-.2 5.4-.5 5.3-2.8-.2-3-3.3-4.2-6.2-4.6zm17-16.3c1.6-1.1 5.6 1.2 5.6-2.8 0-2.4-2.2-4.3-5.1-4-2.3.3-5.2.1-5.4 3.5-.1 3 2.1 3.4 4.9 3.3zM293.4 570.1c1.9 3.1 6.6.8 6.1 4.1-.4 3.3-.8 7.2-3.5 9.6-2.2 2-5.1 2.9-7.3-.5-.2-.4-.2-1.1-.5-1.2-8.3-3.3-5.4-11.1-6.3-17-.6-4-3.9-7.7-2-12 .5-1.2-1.7-3.3 1-3.7 1.7-.3 3.3.8 3.5 2.4.8 6.5 5.3 9.3 10.4 12.1 3.7 2 4.7 5-1.4 6.2z"/><path d="M213.3 554.6c4.1-1.3 6.4 1.2 8.7-.6 1.1-.8 2.4-2.4 3.8-.3 1 1.4-.1 2.4-.9 3.5-1.7 2.4-2.1 6.2-6.3 5.6-5.1-.8-1.5-6.1-5.3-8.2z"/><path fill="none" d="M300.4 99.9h400v600h-400z"/><path d="M414.7 222.7c0-19.1.3-40.4.8-53h-.8c-5.2 22.8-16.4 60-27.1 94.9H367c-8.1-30.6-19.7-72.9-24.6-95.2h-.8c1 13.1 1.4 36.1 1.4 55.2v40h-22V152.9h36c8.7 29.2 18.5 65.8 21.8 82.4h.2c2.7-14.7 15-53.8 24.3-82.4H438v111.7h-23.3v-41.9zM550.3 222.7c0-19.1.3-40.4.8-53h-.8c-5.2 22.8-16.4 60-27.1 94.9h-20.6c-8.1-30.6-19.7-72.9-24.6-95.2h-.8c1 13.1 1.4 36.1 1.4 55.2v40h-22V152.9h35.9c8.7 29.2 18.5 65.8 21.8 82.4h.2c2.7-14.7 15-53.8 24.3-82.4h34.6v111.7h-23.3v-41.9zM689.3 264.6h-17.7c-.9-3.4-1.5-7.3-1.8-11-6.2 8.3-17.1 12.9-32.6 12.9-32.4 0-50.5-24.5-50.5-56.3 0-33.6 19.5-58.9 54.7-58.9 28.7 0 45.7 16.2 48.4 35.3h-24.2c-2.3-7.5-8.2-16.3-24.5-16.3-22.9 0-29.5 19.2-29.5 38.9 0 19.2 7.5 38.1 29.6 38.1 20.6 0 24.5-14.3 24.5-24.3v-1h-24.5v-19.8h48.2v62.4zM470.3 459v-24h-48.2v-20.2l44.5-62.4h25.3v63.9h12.8l-2.1 18.8h-10.7v24h-21.6zm0-61.7c0-11.6 0-18 .5-24.7-4.2 8.9-18.1 29.2-28.1 43.7h27.7v-19zM556.3 407.2v20.2h-45.1v-20.2h45.1zM580.3 459v-79.7c-4.9 2.3-14 4.2-19.3 4.6v-17.3c10.1-1.9 20.3-7.6 26.4-14.3h16.4V459h-23.5zM617.5 459v-1.5c0-18.6 8.3-33.7 31.4-50.5 15-11 19.6-14.8 19.6-24.1 0-9.2-4.5-14.4-13.5-14.4-10.4 0-14.2 6.4-15.7 15.7H617c1.5-18.4 13.6-33.7 38.1-33.7 27.4 0 36.8 16.3 36.8 32.3 0 15.5-6.7 23-26.3 36.8-13.1 9.2-18.4 15.3-20.2 20.1h50.5L693 459h-75.5zM466.1 541.7h48.8c27 0 37.2 14.1 37.2 28.6 0 12.6-6.7 20.8-14.2 24.2 7.5 2.8 17.4 10.8 17.4 25.5 0 19.1-15 33.4-38.8 33.4h-50.4V541.7zm46 44c11.5 0 16.2-5.2 16.2-13 0-8.2-6.2-12.4-15.5-12.4h-23v25.4h22.3zm-22.3 49h21.8c13 0 19-5.5 19-15.6 0-9-5.8-14.7-19.1-14.7h-21.7v30.3zM580.3 653.4v-79.7c-4.9 2.3-14 4.2-19.3 4.6V561c10.1-1.9 20.3-7.6 26.4-14.3h16.4v106.7h-23.5zM617.5 653.4v-1.5c0-18.6 8.3-33.7 31.4-50.5 15-11 19.6-14.8 19.6-24.1 0-9.2-4.5-14.4-13.5-14.4-10.4 0-14.2 6.4-15.7 15.7H617c1.5-18.4 13.6-33.7 38.1-33.7 27.4 0 36.8 16.3 36.8 32.3 0 15.5-6.7 23-26.3 36.8-13.1 9.2-18.4 15.3-20.2 20.1h50.5l-2.9 19.3h-75.5z"/></svg>