<svg xmlns="http://www.w3.org/2000/svg" xml:space="preserve" viewBox="0 0 800 800"><g fill="none" stroke="#FFF" stroke-miterlimit="10" stroke-width="75"><path d="m99.9 699.1 600-600M99.9 99.1l600 600"/></g><path d="M257.1 461.3c-2.2-2.8-3.7-.1-5.1-1.6 1.9-5.7 6.8-9.9 8.5-16 1.5-5.3.3-6.6-4.8-7.4-11.3-1.8-22.3 1.6-33.5 1.4-17.2-.4-34.3-.6-51.5-1-2.6-.1-4.5-1.7-4.6-4.5-.2-5.1 1.7-10 1.3-15.2-.2-2.5 2.4-1.7 4-2 8.3-1.6 16.7 0 25-.1 8.4-.1 16.8.3 25.1.5 5.1.1 9.9.8 13.7 4.6 1.7 1.7 3.5 1.5 5.4 1.5 6.7.2 13.4-.3 20 .5 4.5.5 6.2-1.6 6-4.9-.3-4.1 1.5-6.3 4.4-8.4 3.7-2.7 3.7-6.9 3.1-10.6-1.3-7.5 2.2-14.6.9-22.4-1.1-6.5-.1-13.6-1-20.4-.6-4.6.2-9.4 1.4-13.3.9-2.8-.2-3.8-.9-5.5-.3-.8-1.3-1.7-1.1-2.2 3.8-8.8-.5-17.9.7-26.7.9-6.2-.7-12.2.3-18.3.8-4.4 3-7.6 6.9-8 3.9-.4 6.5 1.7 7.2 6.7 1.2 8.7.1 17.1-1.2 25.6-.3 1.6-1.6 3.2 1.1 4.1 1.1.4 1.4 2.4.4 2.5-5.5.7-1.8 4.1-1.4 5.7 2 7.8.9 15.6.6 23.4-.4 10.8-.1 21.5.1 32.2.1 7.8-1 15.7.7 23.3 2.5 10.6 1 21.5 2.6 32.1.3 1.9-.1 4.1 1.4 5.5 4.7 4.2 5.1 10.6 7.6 15.9 2.3 4.7 4.4 9.7 6.7 14.4 2.7 5.4 4.7 11.1 6.6 16.6 2.2 6.2 5.1 12.3 7.8 17.8 6 12.3 10.2 25.4 17.2 37.2 1.5 2.5 5.3 5.8.1 8.8 5.8 2.2 11.3 4.8 14.3 10.3 1.9 3.5 2.9 8-.8 11.4-2.5 2.3-5.5 5.2-9.1 3.3-4.3-2.3-9.3-5.8-8.4-11.1 1.7-9.9-5.1-17.2-6.5-25.6-1.7-10.3-9.2-17-11.9-26.2-2.7-9-7.1-17-13.3-24.1-1.5-1.8-3.1-3.8-5.2-2.3-2.4 1.7-7 1-6.7 6.2.3 4.7-.9 9.5-.2 14.1.8 5.3-.8 9.7-4.2 12.7-4.8 4.3-4.3 9.2-3.6 14.5.5 3.8 1.3 7.7 1.3 11.5 0 4.1-.2 8.7-5.9 9-4.4.2-9.1-5-7.8-9.7 1.5-5.3.6-10.8 2-15.6 1.9-6.4-.9-9.9-4.4-14.3-4.4-5.7-2.3-12.7-2-19.1.1-1.7.2-2.8-.6-4.3-3.2-6.1-9.2-5-14.3-5.3-4.2-.3-5.6 3.8-7.3 7.5-3.6 7.9-8.8 15.1-12.1 23.1-3.3 7.8-7.1 15.4-10.9 22.9-2.3 4.5-4.4 9.3-7 13.7-1.8 3.2-.8 6.3.2 9.3 1.4 4 .7 7.3-2.9 9.5-5 3-10.4 3.1-15.3.3-3.9-2.2-4.1-6.3-2.2-10.2 1.7-3.6 3.2-6.8 7.8-8.7 5.8-2.3 7-9.3 9.9-14.4 4.9-8.7 9-18 13.2-27.1 3.9-8.4 8.4-16.5 13.1-24.3 4.1-7 7.1-14.4 10.3-21.7 1.7-3.8 3.8-6.7 8.8-7.1zm12.7-23.9c2.2 2.1 6 2.2 5.2 6.5-1.8 9.8-1.7 19.8-.6 29.7.2 2-.3 5.3 3.1 5.6 3.5.3 4.5-3.3 4.6-5.1.3-5.8 2-11.4 1.6-17.4-.6-8.4-.1-16.9.3-25.4.1-2.5-.3-4.2-2.6-5.2-4.2-1.8-6.1-.2-6.2 5.5 0 3.5.5 7.4-5.4 5.8zm-2.1 27.6c0 .1 0-1.2-.3-2.4-.5-1.9 1.5-5-1.4-5.5-2.8-.6-4.5 2.3-5.4 4.6-2.3 5.6-4.1 11.4-6.3 17.1-.9 2.4.3 3.1 2.1 3.6 6 1.7 9.1-.5 10.4-6.7.7-3.1.6-6.2.9-10.7zm11.4-43.2c4.5.5 8.7-.4 7.2-6.2-1-3.6-5.4-2.2-8.1-2.2-2.2 0-6.3-.9-6 3.7.1 4.4 2.5 6 6.9 4.7zm-.3-133.3c.1 4.2-3.1 9 2.6 10.3 3.5.8 2.3-3.5 3-5.3 2.2-5.4-3.6-2.9-5.6-5zm-7 206.4c2.3 1.3 3.8-.2 5.5-.1 1.6.2 3.8 1 3.4-1.9-.3-1.8.9-4.4-.9-5.2-1.9-.8-4.2.2-4.5 3-.2 2.1-2.7 2.3-3.5 4.2zm3.2 52c.2 2.2-.4 5.2 2.6 5 3-.2 2.4-3.7 2.9-5.8.3-1.5.2-4.1-2.7-4.1-4.1-.1-1.6 3.5-2.8 4.9z"/><path fill="none" d="M300.5 99.6h400v600h-400z"/><path d="M425.7 316.8v44.7h-23.6V249.9h49.1c24.4 0 37.5 13.4 37.5 30.7 0 15-8.2 23.1-16.2 26.4 5.5 2 13.9 7.8 13.9 27.8v5.5c0 7.5.1 16.1 1.6 21.3h-23c-2-4.9-2.3-13.2-2.3-25.1v-1.6c0-12.2-3.1-18-21.1-18h-15.9zm0-19.2H446c13.2 0 18.3-5 18.3-14.4 0-9.1-5.9-14.2-17.7-14.2h-20.8v28.6zM514.2 361.6v-79.7c-4.9 2.3-14 4.2-19.3 4.6v-17.3c10.1-1.9 20.3-7.6 26.4-14.3h16.4v106.7h-23.5zM575.2 380.3c9.4-21.6 10.9-35.4 11.9-47.2h23.8c-1.7 16-7 33.9-17.7 47.2h-18zM617.5 361.6v-1.5c0-18.6 8.3-33.7 31.4-50.5 15-11 19.6-14.8 19.6-24.1 0-9.2-4.5-14.4-13.5-14.4-10.4 0-14.2 6.4-15.7 15.7H617c1.5-18.4 13.6-33.7 38.1-33.7 27.4 0 36.8 16.3 36.8 32.3 0 15.5-6.7 23-26.3 36.8-13.1 9.2-18.4 15.3-20.2 20.1h50.5l-2.9 19.3h-75.5zM588.8 556l-23.9-39.3h-.2L540.2 556h-26l37.1-56.2-36.1-55.4h28l22.6 37h.2l23.4-37H615l-36 53.2 37.7 58.5h-27.9z"/><path d="M669 475.3c-1.3-5.3-4.3-10.3-13.6-10.3-14.3 0-18 13.4-18.6 27.7 4.5-5.5 12-9.9 24.1-9.9 19.5 0 33.4 14.4 33.4 35.4 0 22.8-14.6 39.7-39.1 39.7-30.9 0-41.2-23.8-41.2-53.9 0-27.7 9.8-56.6 42.5-56.6 23.2 0 34 14.5 35 27.9H669zm2.1 44.8c0-10.1-3.8-19.2-16.6-19.2-10.4 0-16.4 6.1-16.4 18.4 0 8.6 4.1 20.1 16.5 20.1 11.2 0 16.5-8.5 16.5-19.3z"/></svg>