<svg xmlns="http://www.w3.org/2000/svg" xml:space="preserve" viewBox="0 0 800 800"><path d="M257.1 461.4c-2.2-2.8-3.7-.1-5.1-1.6 1.9-5.7 6.8-9.9 8.5-16 1.5-5.3.3-6.6-4.8-7.4-11.3-1.8-22.3 1.6-33.5 1.4-17.2-.4-34.3-.6-51.5-1-2.6-.1-4.5-1.7-4.6-4.5-.2-5.1 1.7-10 1.3-15.2-.2-2.5 2.4-1.7 4-2 8.3-1.6 16.7 0 25-.1 8.4-.1 16.8.3 25.1.5 5.1.1 9.9.8 13.7 4.6 1.7 1.7 3.5 1.5 5.4 1.5 6.7.2 13.4-.3 20 .5 4.5.5 6.2-1.6 6-4.9-.3-4.1 1.5-6.3 4.4-8.4 3.7-2.7 3.7-6.9 3.1-10.6-1.3-7.5 2.2-14.6.9-22.4-1.1-6.5-.1-13.6-1-20.4-.6-4.6.2-9.4 1.4-13.3.9-2.8-.2-3.8-.9-5.5-.3-.8-1.3-1.7-1.1-2.2 3.8-8.8-.5-17.9.7-26.7.9-6.2-.7-12.2.3-18.3.8-4.4 3-7.6 6.9-8 3.9-.4 6.5 1.7 7.2 6.7 1.2 8.7.1 17.1-1.2 25.6-.3 1.6-1.6 3.2 1.1 4.1 1.1.4 1.4 2.4.4 2.5-5.5.7-1.8 4.1-1.4 5.7 2 7.8.9 15.6.6 23.4-.4 10.8-.1 21.5.1 32.2.1 7.8-1 15.7.7 23.3 2.5 10.6 1 21.5 2.6 32.1.3 1.9-.1 4.1 1.4 5.5 4.7 4.2 5.1 10.6 7.6 15.9 2.3 4.7 4.4 9.7 6.7 14.4 2.7 5.4 4.7 11.1 6.6 16.6 2.2 6.2 5.1 12.3 7.8 17.8 6 12.3 10.2 25.4 17.2 37.2 1.5 2.5 5.3 5.8.1 8.8 5.8 2.2 11.3 4.8 14.3 10.3 1.9 3.5 2.9 8-.8 11.4-2.5 2.3-5.5 5.2-9.1 3.3-4.3-2.3-9.3-5.8-8.4-11.1 1.7-9.9-5.1-17.2-6.5-25.6-1.7-10.3-9.2-17-11.9-26.2-2.7-9-7.1-17-13.3-24.1-1.5-1.8-3.1-3.8-5.2-2.3-2.4 1.7-7 1-6.7 6.2.3 4.7-.9 9.5-.2 14.1.8 5.3-.8 9.7-4.2 12.7-4.8 4.3-4.3 9.2-3.6 14.5.5 3.8 1.3 7.7 1.3 11.5 0 4.1-.2 8.7-5.9 9-4.4.2-9.1-5-7.8-9.7 1.5-5.3.6-10.8 2-15.6 1.9-6.4-.9-9.9-4.4-14.3-4.4-5.7-2.3-12.7-2-19.1.1-1.7.2-2.8-.6-4.3-3.2-6.1-9.2-5-14.3-5.3-4.2-.3-5.6 3.8-7.3 7.5-3.6 7.9-8.8 15.1-12.1 23.1-3.3 7.8-7.1 15.4-10.9 22.9-2.3 4.5-4.4 9.3-7 13.7-1.8 3.2-.8 6.3.2 9.3 1.4 4 .7 7.3-2.9 9.5-5 3-10.4 3.1-15.3.3-3.9-2.2-4.1-6.3-2.2-10.2 1.7-3.6 3.2-6.8 7.8-8.7 5.8-2.3 7-9.3 9.9-14.4 4.9-8.7 9-18 13.2-27.1 3.9-8.4 8.4-16.5 13.1-24.3 4.1-7 7.1-14.4 10.3-21.7 1.6-3.9 3.7-6.7 8.8-7.1zm12.6-23.9c2.2 2.1 6 2.2 5.2 6.5-1.8 9.8-1.7 19.8-.6 29.7.2 2-.3 5.3 3.1 5.6 3.5.3 4.5-3.3 4.6-5.1.3-5.8 2-11.4 1.6-17.4-.6-8.4-.1-16.9.3-25.4.1-2.5-.3-4.2-2.6-5.2-4.2-1.9-6.1-.2-6.2 5.5 0 3.5.5 7.3-5.4 5.8zm-2.1 27.5c0 .1 0-1.2-.3-2.4-.5-1.9 1.5-5-1.4-5.5-2.8-.6-4.5 2.3-5.4 4.6-2.3 5.6-4.1 11.4-6.3 17.1-.9 2.4.3 3.1 2.1 3.6 6 1.7 9.1-.5 10.4-6.7.7-3.1.7-6.2.9-10.7zm11.4-43.1c4.5.5 8.7-.4 7.2-6.2-1-3.6-5.4-2.2-8.1-2.2-2.2 0-6.3-.9-6 3.7.1 4.3 2.6 6 6.9 4.7zm-.2-133.4c.1 4.2-3.1 9 2.6 10.3 3.5.8 2.3-3.5 3-5.3 2.1-5.3-3.7-2.8-5.6-5zm-7 206.4c2.3 1.3 3.8-.2 5.5-.1 1.6.2 3.8 1 3.4-1.9-.3-1.8.9-4.4-.9-5.2-1.9-.8-4.2.2-4.5 3-.2 2.1-2.7 2.3-3.5 4.2zM275 547c.2 2.2-.4 5.2 2.6 5 3-.2 2.4-3.7 2.9-5.8.3-1.5.2-4.1-2.7-4.1-4.2-.1-1.7 3.5-2.8 4.9z"/><path fill="none" d="M300.4 99.7h400v600h-400z"/><path d="M414.7 222.5c0-19.1.3-40.4.8-53h-.8c-5.2 22.8-16.4 60-27.1 94.9H367c-8.1-30.6-19.7-72.9-24.6-95.2h-.8c1 13.1 1.4 36.1 1.4 55.2v40h-22V152.7h36c8.7 29.2 18.5 65.8 21.8 82.4h.2c2.7-14.7 15-53.8 24.3-82.4H438v111.7h-23.3v-41.9zM550.3 222.5c0-19.1.3-40.4.8-53h-.8c-5.2 22.8-16.4 60-27.1 94.9h-20.6c-8.1-30.6-19.7-72.9-24.6-95.2h-.8c1 13.1 1.4 36.1 1.4 55.2v40h-22V152.7h35.9c8.7 29.2 18.5 65.8 21.8 82.4h.2c2.7-14.7 15-53.8 24.3-82.4h34.6v111.7h-23.3v-41.9zM689.3 264.4h-17.7c-.9-3.4-1.5-7.3-1.8-11-6.2 8.3-17.1 12.9-32.6 12.9-32.4 0-50.5-24.5-50.5-56.3 0-33.6 19.5-58.9 54.7-58.9 28.7 0 45.7 16.2 48.4 35.3h-24.2c-2.3-7.5-8.2-16.3-24.5-16.3-22.9 0-29.5 19.2-29.5 38.9 0 19.2 7.5 38.1 29.6 38.1 20.6 0 24.5-14.3 24.5-24.3v-1h-24.5V202h48.2v62.4zM470.3 458.8v-24h-48.2v-20.2l44.5-62.4h25.3v63.9h12.8l-2.1 18.8h-10.7v24h-21.6zm0-61.7c0-11.6 0-18 .5-24.7-4.2 8.9-18.1 29.2-28.1 43.7h27.7v-19zM556.3 407v20.2h-45.1V407h45.1zM580.3 458.8v-79.7c-4.9 2.3-14 4.2-19.3 4.6v-17.3c10.1-1.9 20.3-7.6 26.4-14.3h16.4v106.7h-23.5zM617.5 458.8v-1.5c0-18.6 8.3-33.7 31.4-50.5 15-11 19.6-14.8 19.6-24.1 0-9.2-4.5-14.4-13.5-14.4-10.4 0-14.2 6.4-15.7 15.7H617c1.5-18.4 13.6-33.7 38.1-33.7 27.4 0 36.8 16.3 36.8 32.3 0 15.5-6.7 23-26.3 36.8-13.1 9.2-18.4 15.3-20.2 20.1h50.5l-2.9 19.3h-75.5zM466.1 541.5h48.8c27 0 37.2 14.1 37.2 28.6 0 12.6-6.7 20.8-14.2 24.2 7.5 2.8 17.4 10.8 17.4 25.5 0 19.1-15 33.4-38.8 33.4h-50.4V541.5zm46 44.1c11.5 0 16.2-5.2 16.2-13 0-8.2-6.2-12.4-15.5-12.4h-23v25.4h22.3zm-22.3 49h21.8c13.1 0 19-5.5 19-15.6 0-9-5.8-14.7-19.1-14.7h-21.7v30.3zM580.3 653.2v-79.7c-4.9 2.3-14 4.2-19.3 4.6v-17.3c10.1-1.9 20.3-7.6 26.4-14.3h16.4v106.7h-23.5zM617.5 653.2v-1.5c0-18.6 8.3-33.7 31.4-50.5 15-11 19.6-14.8 19.6-24.1 0-9.2-4.5-14.4-13.5-14.4-10.4 0-14.2 6.4-15.7 15.7H617c1.5-18.4 13.6-33.7 38.1-33.7 27.4 0 36.8 16.3 36.8 32.3 0 15.5-6.7 23-26.3 36.8-13.1 9.2-18.4 15.3-20.2 20.1h50.5l-2.9 19.3h-75.5z"/></svg>