<svg xmlns="http://www.w3.org/2000/svg" xml:space="preserve" viewBox="0 0 800 800"><path fill="none" d="M0 0h800v800H0z"/><path d="M339.5 528.3c-1.7.1-4-.6-4-1.7-.2-8-6.9-13.5-7.8-21.1-.8-6.7-4.6-10.5-11.6-11.1-2.9-.3-5.7-1-8.6-.8-4.4.2-8.4 1.1-7.1 7.4.7 3.2-.1 7-2.4 9.4-4.5 4.7-2.9 9.8-1.3 14.6.6 1.9 1.2 2.8-.1 4.5-1.2 1.5.2 5.3-3.3 4.6-2.8-.6-5.3-3.1-4.8-6.2.6-3.7-.9-5.8-4-6.4-3.9-.7-2.8 3.1-3.5 5.1-.9 2.4-2.3 4.4-4.9 5.1-2.9.8-5 .5-4.2-3.4.6-3.5.7-7.2 1.5-10.4 1-3.9-.5-6.5-2.6-7.9-2.9-2-2-3.9-1.4-6.1 2.2-8.1-.4-11.9-8.9-12.6-3.1-.2-6.3.3-8.8-2.2-.6-.6-1.8-1.3-2.3-.5-3.9 5.9-12.7 7.7-13 16.7-.2 5.1-4.9 2.8-10.6 3.3 9.5.9 7.7 3.6 5 8-6.6 11-12.9 22.3-15.1 35.1-1 5.6-6.3 7.5-7.6 12.8-1 4.4-3.2 9.2-7.7 12 2.3 3.1-1.4 7.9 0 9 5.8 4.6 2 10 1.5 14.4-.5 3.9-13.7 8.4-18 6.7-1.3-.5-7-.4-3.3-5.1-.6-.3-1.2-.5-1.7-.8-5.3-3.3-6.6-10.8-2.3-14.9 1.9-1.8 3-3.9 3.6-6.2.9-3.3 3.4-5.2 6.1-5.1 4.5.1 6.4-2.7 7.8-5.8 2.8-6.1 7.5-11.3 8-18.5.2-2.8 3.9-3.4 5-6.6 4.5-12.3 10-24.1 17.1-35.3 3.6-5.8 6.1-12.5 9.3-18.7 5.3-10.5 10.2-21.1 15.7-31.4 5-9.5 8.8-19.4 12.6-29.3 1.4-3.7-1.2-5.1-3.9-5.3-10.6-.7-21-4.9-31.6-3.8-6.7.7-13.2 2.5-20.2 2.4-7.5-.1-15-1.2-22.6-1.1-13.3.1-26.5-.5-39.8.7-3.2.3-8.5 1.5-9.8-3.3-1.7-6.3 2.8-9.4 9.8-11.1-9.3-.7-11-3.6-8.8-12.4 1-3.9 3-7.4-.6-11.6-2.3-2.7-.6-5.9 3.8-6.1 5.8-.3 11.6-1.5 17.3-.9 19.2 2.2 38.5-.9 57.7 1.3 3.3.4 6.4 1.6 8.9 4 3.9 3.8 8.4 5.7 13.9 3.7 1-.4 2.4-.6 3.2-.2 7.7 4.1 15.1-.5 22.7-.6 4.9 0 10.1-8 9-13-.7-3.4 2.5-4.2 3.2-6.7 1.7-6 1.6-11.8 1-17.7-.1-.7-.2-1.3-.4-2-1.2-4.5 4.7-7.6 2.1-12.6-2.2-4.2.1-8.9-.4-13.5-.4-3.6 4.9-5.5 9.4-5.3-4-1.1-12.7-9.7-11.8-13 .9-3.4 3.6-6.4 5.3-9.8 3.3-6.5 3.2-13.1 3-19.6-.5-12.9 1.9-25.6 1.7-38.4-.1-5.2 1.5-10.4-1.2-15.6-1.2-2.4.5-7.9 1.2-8.6 3.6-3.9.8-6.9 0-10.3-.6-2.3-1.2-5-.7-7.2 2.2-9.1 1.1-17.8-.5-26.9-.5-2.5-1-7.5 2.2-9 4-1.8 8.7-1.8 12.9.7.7.4 1.7.6 1.4 1.8-2.8 10.2.8 20.4-.2 30.6-.5 5.3-2.1 10.4-1.8 16.1.7 13 .3 26.1-.2 39.2-.4 7.8.4 15.6 0 23.4-.1 2.1-1.8 4.6-4.9 4.4-1.5-.1-3.1-.6-3.9 1.4 1.1 2.7 2.4.3 3.6.2 3.5-.1 6.6-.7 4.9 5.3-2.2 7.4 1.8 14.7 3.4 21.8 1.1 4.8-.1 8.8-2.6 12.1-1.8 2.4-1.7 4.2-.8 6.5 5.3 13.2 2.7 27.1 3.4 40.7.5 8.1-2.3 17.2 3.4 24.8 2 2.7.9 8.1.6 8.5-7.9 12.5-1.8 23.4 3.2 34.4 3.7 8.1 6.7 16.5 9.8 24.8 1.3 3.6 1.8 8.9 3.8 12.9 4.5 9 6.1 18.9 9.9 28 3.7 8.8 6.7 18 12.2 26 1.7 2.4 1.9 5.9.7 9-1.5 0-2.9.1-4.2.3zm-55.9-88.4c-5.2-1.6-8.9 1.9-7.9 7.3 1.3 7.3-.1 14.7 1.4 21.9 1.2 5.8 5.8 9 11.7 6.4 2.7-1.2 5.7-6.9 4.3-9.7-2.9-5.7 0-11.2-.7-16.8-1.1-8.8.3-9.3-8.8-9.1zm-.3-4.2c5.4-.1 9.2-.1 9.8-7.3.5-6.2-2.7-12.9 1.8-18.8.3-.4-.6-2.3-1.4-2.8-4.2-2.9-9.1-4-13.7-1.9-3.9 1.7-4.2 5.3-3.9 9.6.4 4.6 3.9 10.4-2.4 14.1-.8.5-.4 1.4.1 1.5 4 .8 4.6 7.6 9.7 5.6zm-23.4 43.2c3-.4 6 .9 7.9-2.5 5.4-9.5 2.8-19.5 2-29.3-.1-.8-1.4-1.6-2.3-2.1-.8-.5-1.5-.3-2 .8-4.6 9.3-9.3 18.7-13.9 28-1.5 3 0 4.1 2.6 4.6 2 .2 4 .3 5.7.5zm33.5-91.5c2.7-8.3-4.9-6.3-8.6-7.1-4.7-1-7.2 1.5-5.2 6.7.4.9 0 1.6-.8 2.3-6.4 5.4.2 6.2 3 6.8 10.7 2.3 10.7 2 11.6-8.7zm-.1 95.5c-3.6-.5-5.8-1-7.9-1-4.4.1-7.8 1.2-4.5 6.7.9 1.5 1.6 3.4-.1 4.9-2.3 2.1-2.3 4.9 0 6.1 1.9 1 4 4.2 6.2 2.6 1.2-.9.2-5 .7-6.4 1.5-4.1-1.9-10.2 5.6-12.9zm10.8-14.5c-1.7.6-5.3-1.7-5.5 2.2-.2 5.5 4.5 9 10.6 9.3 3.4.2 5.8-.9 5.7-4.6-.1-7.3-5.6-6.6-10.8-6.9zm-15.3-119.2c2.2 0 2.1-1.7 1.7-2.8-1.8-5 5-10.3-.7-15.2-.9-.7 1.9-3.2-.8-3.7-1.1-.2-2.4.8-3.5 1.6-1.8 1.2-1.3 2.8-.1 4 3.2 3.5 1.7 6.5-.7 9.5-.9 1.1-2.9 1.9-.9 3.7 1.4 1.3 2.8 2.8 5 2.9zm-7.1 13.2c-2 2.9.6 2.8 2 3.1 5.6 1 5-4.3 6.8-7.1.9-1.4-.6-3-1.8-2.6-3.2 1.1-6.9 2.1-7 6.6z"/><path d="M339.5 528.3c1.3-.1 2.7-.2 4-.4 1.9-.5 2.8.4 3.5 2.1 2.4 6.1 5.4 11.9 6.8 18.4 2.6 11.9 10 22.1 12.6 34.1.3 1.5 2.6 1.6 4.1 1.6 8.1-.3 10.2 6 11.7 11.6 1 3.6-3.4 3.4-7 3.7 2.2 2 5.7-.2 6.2 3.2.5 3.2-2.9 2.9-3.9 4.6-3 4.9-7.2 6.6-12.4 4.5-5.9-2.4-8.7-9.9-9.6-15.9-.7-4.7 4.9-7.4 2.2-12.1-.3-.5 2.2.6 3.8-.1-1.4-1.9-4-1.7-5.1-4.4-2.9-7.3-6.7-14.3-10-21.5-1.5-3.4-2.7-6.9 1.7-9.4-5.5-3.6-9.2-7.7-8.4-14.3.2-2-5.4-3.7-.2-5.7z"/><path fill="none" d="M300.4 99.7h400v600h-400z"/><path d="M344.7 152.7h24.2v43.6h44.9v-43.6H438v111.7h-24.2v-48.3h-44.9v48.3h-24.2V152.7zM550.3 222.5c0-19.1.3-40.4.8-53h-.8c-5.2 22.8-16.4 60-27.1 94.9h-20.6c-8.1-30.6-19.7-72.9-24.6-95.2h-.8c1 13.1 1.4 36.1 1.4 55.2v40h-22V152.7h35.9c8.7 29.2 18.5 65.8 21.8 82.4h.2c2.7-14.7 15-53.8 24.3-82.4h34.6v111.7h-23.3v-41.9zM689.3 264.4h-17.7c-.9-3.4-1.5-7.3-1.8-11-6.2 8.3-17.1 12.9-32.6 12.9-32.4 0-50.5-24.5-50.5-56.3 0-33.6 19.5-58.9 54.7-58.9 28.7 0 45.7 16.2 48.4 35.3h-24.2c-2.3-7.5-8.2-16.3-24.5-16.3-22.9 0-29.5 19.2-29.5 38.9 0 19.2 7.5 38.1 29.6 38.1 20.6 0 24.5-14.3 24.5-24.3v-1h-24.5V202h48.2v62.4zM391.1 428.2c0-13.6 9.5-22 17.4-25.5-8.2-5.1-13.2-11.5-13.2-22.3 0-18.1 13.2-30.1 37.2-30.1 21.9 0 36.3 11.4 36.3 29.8 0 12.3-6.3 18.3-13.6 21.4 7.7 2.9 17.4 11.8 17.4 25.9 0 22-17.6 33.4-41.9 33.4-21.6 0-39.6-11.6-39.6-32.6zm58.5-1.1c0-10.6-7.3-15.4-17.7-15.4-11.6 0-17.5 6.3-17.5 15.3 0 9.5 7.1 15.8 18 15.8 9.9-.1 17.2-4.8 17.2-15.7zm-32.3-45.9c0 7.2 5.2 12 14.9 12 9.5 0 14.6-3.6 14.6-12 0-8.1-5.3-13.1-14.8-13.1-9.7.1-14.7 4.6-14.7 13.1zM524.9 407v20.2h-45.1V407h45.1zM529 458.8v-1.5c0-18.6 8.3-33.7 31.4-50.5 15-11 19.6-14.8 19.6-24.1 0-9.2-4.5-14.4-13.5-14.4-10.4 0-14.2 6.4-15.7 15.7h-22.4c1.5-18.4 13.6-33.7 38.1-33.7 27.4 0 36.8 16.3 36.8 32.3 0 15.5-6.7 23-26.3 36.8-13.1 9.2-18.4 15.3-20.2 20.1h50.5l-2.9 19.3H529zM693.5 404.8c0 29.3-9.3 55.9-41 55.9-31.3 0-40.9-25.7-40.9-55.2 0-29.2 10.7-55.2 41.4-55.2 29.7 0 40.5 24.3 40.5 54.5zm-58 .5c0 19.6 2.2 37 17.3 37 14.7 0 16.7-16.3 16.7-37.3 0-20.7-2.5-36.2-16.4-36.2-13.7-.1-17.6 13.4-17.6 36.5zM466.1 541.5h48.8c27 0 37.2 14.1 37.2 28.6 0 12.6-6.7 20.8-14.2 24.2 7.5 2.8 17.4 10.8 17.4 25.5 0 19.1-15 33.4-38.8 33.4h-50.4V541.5zm46 44.1c11.5 0 16.2-5.2 16.2-13 0-8.2-6.2-12.4-15.5-12.4h-23v25.4h22.3zm-22.3 49h21.8c13.1 0 19-5.5 19-15.6 0-9-5.8-14.7-19.1-14.7h-21.7v30.3zM580.3 653.2v-79.7c-4.9 2.3-14 4.2-19.3 4.6v-17.3c10.1-1.9 20.3-7.6 26.4-14.3h16.4v106.7h-23.5zM617.5 653.2v-1.5c0-18.6 8.3-33.7 31.4-50.5 15-11 19.6-14.8 19.6-24.1 0-9.2-4.5-14.4-13.5-14.4-10.4 0-14.2 6.4-15.7 15.7H617c1.5-18.4 13.6-33.7 38.1-33.7 27.4 0 36.8 16.3 36.8 32.3 0 15.5-6.7 23-26.3 36.8-13.1 9.2-18.4 15.3-20.2 20.1h50.5l-2.9 19.3h-75.5zM526.3 287.1h-19.8c-.4 3.8-1.6 11-2.1 13.5 2-2.2 5.1-3.8 9.9-3.8 8.7 0 14.3 6 14.3 15.7 0 9.2-4.9 17.3-16.3 17.3-8.5 0-14.6-4.7-15.8-12.7h6.4c1.1 4.3 4.2 7.5 9.6 7.5 6.4 0 9.6-4.6 9.6-11.6 0-6.1-2.5-10.8-9.1-10.8-5.7 0-8.1 2.4-9.8 6.2l-5.9-1.1c1.4-6.2 3.2-19.7 3.9-25.7h25.9l-.8 5.5zM568.9 305c0 11.7-3.3 24.9-16.6 24.9-13 0-16.5-12.3-16.5-24.6 0-12.2 3.9-24.6 16.7-24.6 12.8.1 16.4 12.2 16.4 24.3zm-26.4.3c0 9 1.6 19.2 9.9 19.2 8.4 0 9.9-9.7 9.9-19.5 0-9.1-1.6-18.9-9.7-18.9-8.3 0-10.1 8.8-10.1 19.2zM637 314.8c-2.2 8.5-8.6 14.8-19.9 14.8-15 0-22.5-11.4-22.5-25.5 0-13.6 7.6-25.9 22.8-25.9 11.8 0 18.2 6.7 19.7 15.1h-6.6c-1.8-5.5-5.4-9.6-13.3-9.6-11.1 0-15.6 10-15.6 20.2 0 9.8 4.3 20.2 15.9 20.2 7.7 0 11.1-4.4 13-9.3h6.5zM672.4 321c0 3.3.3 6.9.5 8h-6c-.3-.8-.5-2.6-.6-4.8-1.3 2.4-4.2 5.6-11.3 5.6-8.6 0-12.3-5.6-12.3-11.2 0-8.1 6.4-11.9 17.3-11.9h6.2v-3.1c0-3.2-1-7.1-7.9-7.1-6.1 0-7.1 3-7.8 5.9h-6.1c.5-5 3.6-10.8 14.1-10.8 8.9 0 13.9 3.7 13.9 12V321zm-6.1-9.8h-5.9c-7.3 0-11.2 2-11.2 7.2 0 3.8 2.6 6.6 7.1 6.6 8.8 0 10-5.9 10-12.6v-1.2zM683.3 329v-52.9h6.3V329h-6.3z"/></svg>