<svg xmlns="http://www.w3.org/2000/svg" xml:space="preserve" viewBox="0 0 800 800"><path d="M326 237.6c3.2 1.3 7.1 2.2 5.7 7.2-.6 2.1 1.6 2.3 3 2.8 2 .7 4.6-.2 5.8 2.5-1.3 1.8-3.4 2.2-5.2 2.7-7.5 2.1-9.9 5.9-8.4 13.6 1.2 6.3 2.2 12.7 3.5 19 .3 1.3 1.2 3.2-.7 3.2-7.7 0-3.4 4.7-3.2 7.7.1 1.9 3.4 4.2-1.2 5.3-1.6.4-1.2 2.1.1 3.1 1.7 1.3 2.2 5.3 5.5 3.3 4.4-2.6 4.9-.6 5.7 3.4 1.3 7.1 7.7 10.5 14.8 9 3.5-.7 7-1.2 10.6-1.5 8.3-.6 15.8-3.6 22.6-8 1.6-1 2.9-.8 4.4-.6 1.1.2 1.4 1.2 1.3 2-.1 2.2-2.2 2-3.5 2.3-8.7 2.5-16.1 7.2-23.4 12.3-1.1.8-2.2 1.4-3.5 1.7-1.7.4-4.4-.4-4.4 2.8 0 2.7 2 3.9 4.1 4.7 2 .8 4.4.9 5.6 4.2-4.3-.9-8.1-1.7-11.8-2.4-1.3-.2-3-.3-3.6 1-1 2 1.4 2.5 2.2 3.6 1.2 1.6 3.2 1.7 4.9 1.3 3.8-.8 6.8 1.2 10.1 2.3 6.2 2 5.1 6.8 4.4 11.1-.4 2.8-4.3 4.5-5.6 2.7-4-5.4-14-3.3-14.8-13.2-.3-3.9-6-3.7-8.4-.2-1.5 2.2-3.5 3-5 4.7-1.4-.7-.9-1.6-.7-2.4 3.2-10.7 3.1-10.2-7.7-10.9-9-.5-16.3 4.3-24.4 6.4-3.5.9-1.5 2.9-.1 4.4 2.8 3.1 5.5 6.1 7.4 10 1.1 2.2 2.5 4.1.4 5.9-2.4 2.2-3.3-.4-4.4-2-.8-1.2-2.8-.5-2.6-.1 3 4.2-2.3 6.6-2 10.1.2 2.1 1 4.1 3.2 4.6 2.5.6 4.7-.2 6.7-1.9 2.1-1.7 1.4-3 0-4.4-.8-.8-1.9-1.5-.7-2.6.5-.5 1.9-.9 2.4-.5 4.6 2.7 8.5.1 12.4-1.6 1.2 1.9-.4 2.1-1.1 2.7-5.3 4.3-6.6 9.7-2.5 15.1 3.5 4.5 2.8 9 2.2 13.8-.8 6.1-10.6 15.5-17 16.5 1.9 1.2 4.7.3 2.2 4.8-6.8 12.4-18.4 20.9-24.7 33.5-2.8 5.6-.5 13.9 7.1 19.1 2 1.4 4.9 2.2 4.9 4.9 0 2.9 4 6.5.4 8.5-4.6 2.7-11.2 4.7-15.2 2.1-8.4-5.6-18.1-6.9-26.9-10.7-7.3-3.2-8.9-8.8-4.2-15.4 6.9-9.6 12.3-20.3 19.8-29.5 2-2.4 3.9-5.6 2.1-9.4-1.1-2.2 1.1-1.9 2.1-2.1 8.9-2 16.7-7.2 26.2-7.6 3.7-.2 7.3-3.7 10.9-5.9.5-.3.9-1.5.8-2.3-.1-1.2-1.1-2-2.3-2-2.3 0-4.5.3-6.1 2.2-2.2 2.7-4.2 2.7-7.5 1.3-3.7-1.6-7.8-2.2-9.9 3.8-1.5 4.2-6.9 4.3-11 5-1.9.3-1.1-1.4-1-2.8.5-4.9 5.6-5.8 7.6-9.7 2.3-4.4 1.6-6.7-2.6-8.1-3.1-1-6.6-1.1-9.8-1.8-5.1-1.2-4.6 3.8-6.5 6-2.8 3.2-7.9 3.1-10 7.3-2.5 5.1-6.7 8.3-11.8 10.9-2.7 1.4-5.4 4.1-7.2 7.5-3.1 5.9-9.3 9.3-15.2 11-8.9 2.5-14.9 9.1-22.4 13.5-5.8 3.4-8.6 8.9-11 16-1.9 5.9-.6 6.5 2.8 9 3.3 2.5 3.3 5.9 2.1 9.7-1.4 4.2-4.5 3.5-7.7 3.3-6.1-.4-10.8-3.4-14-8.4-2.5-3.9-4.1-8.2 2.7-12.5-8.5-.2-9.5-4.6-11.3-10.3-1.5-4.8-4.2-8.8.1-12.6 4.5-4 9.6-7.5 14.8-10.3 8.9-4.9 15.9-11.6 22.4-19.2 2-2.3 4.9-1.4 7.5-.4 5.2 2.1 10.8 2.2 16 3.3 12.4 2.4 12.8-9.7 19.5-13.7 1.1-.6.2-2.2-1.2-2.3-2.4-.3-5.9-2-6.6 1.8-.4 1.9.1 3.5-2.4 3.3-2.6-.2-1.4-1.9-1.3-3.4.3-5.3-3.5-5.3-5.8-2.8-4 4.3-9.4 4.6-14.3 6.4-2.2.8-4.1 1.4-5.4 3.5-.7 1.1-1.4 3.5-3.3 1.5-1.3-1.3-.5-2.9.7-4.2 3.2-3.6 7.8-5.3 11.8-7.4 5-2.6 8.1-7.5 13.4-9.7 1.6-.7 2.5-2.9 2.2-4.6-.4-1.8-2.6-1.4-4.1-1.5-5.9-.4-11.4 1.6-16.6 4.1-5.1 2.5-8.1.9-7.2-4.6.8-4.5-.6-8.8.5-13.3 1.2-5 4.4-8.4 8.8-8.8 7.1-.7 13-4.8 19.8-5.9 2.6-.4 5-1.2 4-5.3-.9-3.7 2.6-6.4 4.5-9.3 4.6-7.1 4.4-8.4-3.4-14.2-4.8-3.5-7.2 1.4-10.5 3.4-5.1 3.2-4.5 9.7-8.6 13.5-2.2 2-4.8 3.8-5.2 7.4-.2 2.2-2.3 1.9-3.7 1.3-1.5-.7-1.7-2.1-.6-3.3 7-8 11-18.1 18.4-25.8 5.1-5.3 9.4-11.1 9-18.8-.2-3.8.8-6.1 3.7-8.5 2.1-1.8 2.9-5 4-7.4 4.4-9.4 5.3-20.3 13.9-28.1 3.8-3.5 7.9-6.7 11.7-10.1.6-.6 1.7-1.6 1.5-2-2.6-7.6 5.9-7.5 8.4-11.7 1.9-3.2 13.6 1.5 14.3 6.2.5 3.3 2.2 3.5 3.8 2.6 3.4-1.8 6.2-4.6 10.3-5.6 2.3-.6 0-2.7-1.2-3.1-5.1-1.8-3.9-4.1-1.3-7.4 2-2.6 3.1-5.9 6-7.8 1.6-1 1.6-2.5 1.1-4.2-2.1-6.9.3-13.8 6-17.7 5.3-3.6 15.2-3.4 20 .2 1.9 1.4 3.9 2.9 6.3 3.7 5.7 1.9 10.5 10 8.2 15.5-1.2 3.1-.4 4.3 1.1 6.3 4.7 5.9 4.2 7.2-2.7 9.1-4 1.1-7.5 1.4-11.6-.2-4.6-2.8-9.8-2.1-13.2 4.5zm-71.9 44.9c4 1.4 7.6 1.2 11-.1 5.4-2 10.5-4.9 16.5-4.7.8 0 2.2-.6 2.3-1.1.8-5.1 5.7-5 8.8-6 4.7-1.6 8-4.6 11.5-7.6 2.6-2.1 2-5.7 1.8-8.4-.1-2.1-3.4-1.4-5.3-1.5-3.1-.2-21.6 9.2-23.8 12-4.9 6.2-10.6 11.2-18.7 12.9-1.9.4-3.4 1.8-4.1 4.5zm23.6 31.5c-4.2-2.3-8.6-4.3-5.6-8.1 3.7-4.7.1-4.4-2.5-5.1-3-.7-7 1.3-8.2-4.1-.3-1.4-4.5-.8-6.8 0-1.3.5-.8 2.2-.2 2.9 2.9 3.6 4.3 8.1 7 11.6 3.8 4.9 9.2 4.8 16.3 2.8zm18.1 27.3c-1.9-.9-2.7-1.6-3.7-1.8-4.7-1.1-10.2-.3-11.9-7-.5-2-3.4-1.5-5.4-.7-1.3.5-2.4.8-2.4 2.6 0 4.2 8.9 11.5 13 9.9 3.1-1.2 6.3-1.7 10.4-3zm15.8 53.1c1.3-5.2 6.7-2.6 9.8-5 1.2-.9 1.3-2.3.2-3.5-2.2-2.4-4.7-4.6-8.1-3.4-2.9 1.1-5.1 3.8-5.7 6.7-.4 1.6.3 4.5 3.8 5.2zm-56.9-5.8c-3.2-1.3-6-2.5-8.9-3.4-1.6-.5-4.2-1.1-5 .4-1 2 1.2 4.1 1.3 6.5.1 1.8 2.7 1.8 4.5 1 2.5-1.2 5.8-1 8.1-4.5zm.7-15c-5.2-2.9-10.5-2-16.3-1.1 5.3 7.1 10.8 4 16.3 1.1zm71.3-128.7c.8-3.2-.6-5-4.1-5-2.3 0-4.2 1.2-3.8 3.6.4 2.7 2 4.9 5.4 4.8 2.5 0 3.3-.9 2.5-3.4zm-12.3 83.6c1.4-.9 4.5.6 4.4-2.3-.1-2.1-2.3-3.2-4.6-2.9-1.9.3-5.1-.8-4.8 2.9.3 3.2 3.2 1.2 5 2.3zm6.3-49.3c-.9-2.3-3-1.9-4.9-1.8-1.7.1-4 .2-3.2 2.8.4 1.2.4 4 3.1 2.6 1.8-.9 4.6-.5 5-3.6zM612.1 351.6c-6.6-3.6-9.5 3.5-14.2 5.3-.3-.8-.6-1.2-.5-1.5 3.1-9.8-.7-14.1-10.9-11.7-6.2 1.4-12.4 3.6-18.4 5.8-4.1 1.5-6.1 4.2-1.7 7.8 4.2 3.4 6 8.5 8.7 12.7 2.9 4.5 5.3 6 10.4 3.6.1 2.8 1 5.1-1.4 7-.9.7-1.4 1.9-.5 2.9 6 6.5 4.1 14.5 3.6 21.8-.3 3.8-4.1 8.3-6.9 9.9-5.4 3.2-5.2 9.2-9.2 13.1-5.7 5.6-12.1 10.8-16.1 18-1.6 2.9-3.9 5.4-3.8 9 0 .9-.7 2.5-1.4 2.8-4.2 1.4-5.1 3.4-3.9 8 1 3.8 2.1 6.4 5.6 8.2 5.4 2.7 9.6 5.9 10.7 13 .6 3.9-.7 3.9-2.7 3.9-8.1 0-16.5 1.7-24.2-3-2.8-1.7-6.2-2.8-9.5-3-5.9-.3-8.3-5.6-12.8-7.8-.4-.2-.9-1.4-.7-1.7 4.2-5.8 3.9-13.2 8.8-19.6 6.3-8.1 15.5-16.5 13.8-28.9-.5-3.6 1.1-7.2 3-8.4 4.3-2.8 4.3-8.2 8.3-11 2.5-1.7 1.9-4.1-.7-6-5.1-3.7-20.2-3.1-22.1 2.4-2.9 8.5-11.2 10.5-15.4 16.5-2.8 4.1-6.1 6.3-9.9 8.6-3.5 2.2-7.1 4-7.7 9.1-.3 2.3-3.2 4-6.1 4.5-8.4 1.5-16 4.1-21.2 12-1.7 2.7-6.1 3.5-8.9 5.6-5.4 4.1-8.6 13.7-5.1 17.2 2.6 2.6 3.6 5.5 5.2 8.4 2.6 4.7-.5 6.2-3.1 6.8-5.4 1.3-11.1.8-16.2-1.8s-4.4-8.7-5.1-12.8c-1.2-7.1-5.7-11.8-8.9-17.3-2.7-4.5-2.5-11.9 2.3-13.3 10.7-3.2 16.9-12.9 26.1-17.3 10.5-5 12.6-16.4 20.4-23.1 1.4-1.2 3-3.5 4.4-3.5 6-.4 8.8-6.3 14-7.7 2.9-.8 2.9-4.2 3-6.2.2-2.5-2.9-1.9-4.8-2.4-6-1.4-9.9 2.9-14.6 5.1-2.5 1.1-5.7 5.1-7.6 1-1.3-2.7-5.4-8.5 2.9-9.7-6.7-5.4-5.8-11.6 1.6-14.6 3.5-1.4 6.9-2.9 10.8-3.2 7.2-.5 14.3-5.5 17.2-9.6 3.2-4.4 7.3-11.7 6.3-18.3-.4-2.7-5.3-5.1-8.5-7-2.7-1.5-4.2 1-5.9 2.9-5.5 6.2-10.3 13-14.6 20.1-1.2 2-2.8 2.8-4.9 2.8-1.2 0-2-.9-2.2-2.1-.2-2.1 1.7-2.8 2.7-4.2 4.5-6.6 10.1-12.2 14.5-18.9 2.8-4.3 5.5-9.2 10-12.4.9-.6 2.3-1.5 2.3-2.2-.7-13.3 7.9-23.6 11.3-35.6 2.6-9.4 7.6-17.8 17.1-22.3 1.2-.6 2.9-1 2.8-2.6-.4-8.2 7-9.8 11.6-13.6 2.3-1.9 4.8-1.3 7.1 1.1 5.1 5.3 10.8 7.2 17.7 2.9 3.3-2.1 5-3.9 1.3-6.9-3.4-2.8-3-5 .9-6.9 3-1.5 5.4-3.4 4.6-7.4-1-5.3 2.4-10.2 1.2-15.7-.5-2.2 2.1-3.3 3.6-4.4 6.5-4.9 23.4-4.2 29.6 1.3 3.2 2.8 7 7.4 7.2 10.1.5 5.6 1.7 11.4 1.2 17.1-.1 1-.7 1.7-1.7 1.6-5.4-.3-4.8 2.5-2.9 5.7 1 1.7 1 2.9-.7 3.9-2.4 1.3-3.9 4.4-7.3 3.9-.5-.1-1.2-.8-1.5-1.3-.6-1.2.4-1.3 1.2-1.7 5.7-3 6-5.6-.5-8-1.2-.4-2.1-1.7-3.3-2.1-6-2.3-8.7-.6-8.5 5.8.1 3.4.3 5.6-4.3 4.5-1.9-.4-6.6-2.2-4.7 3.5-2.1.4-4.2.8-6.9 1.3 3.2 3.4 4.6 8.5 9.7 9.1 6 .7 6.2 4.5 5.3 8.9-1.4 6.6.9 12.8 2.8 18.7 1 3.1.8 3.7-1.7 4.7-1.3.5-3.8-.4-3.7 1.9.1 2.3 2.5 2 4.2 2.3 1.2.2 2.8-.1 3.3 1.7-7.8 1.8-8.6 3.1-7.2 11 .6 3.2 1.9 5.7 5.8 3.7 1.9-.9 3.5-1.3 4.1 1.3 1 4.4 5.1 6.3 7.6 9.3 2.1 2.5 5.1 3.1 8.5 1.7 7.7-3.3 16.2-2.4 24.2-4.5.7-.2 1.6.4 4 1-4.7 2.1-7.8 4.2-11.3 5-5.7 1.2-7 7.7-12.6 9.3-1.9.5.1 3.8 2.2 5 2.1 1.2 5.1.3 6.6 3.4-5.7 4.9-10-5.2-15.2-1.8-.7 3.7 5.6 4.6 3 8.8v-.3zM512.5 290c3 1.6 4.9 1.1 7.2.4 11.8-3.6 22.4-10.5 34.3-13.7 6.6-1.8 7.7-7.2 11.1-11.1 1.5-1.7 1.2-4.6-1.2-5.6-3.5-1.5-7.5-2.9-10.7.3-2.7 2.6-5.7 3.9-9.1 5.3-3.6 1.5-9.4 3.5-9.8 6-1 6.8-5.8 8.1-10.5 10.3-3.9 1.9-7.4 4.7-11.3 8.1zm-8.6 116.4c.2-1.3-.8-1.6-1.6-1.6-2.7 0-5.9-1.2-7.4 2.6-.5 1.2-.8 3-2.4 2.7-1.9-.3-2-2.2-1.8-3.7.2-1.5.9-3.2-1.5-3.5-1.9-.2-4.2-.1-4.3 2-.3 4.9-3.7 4.6-7 5.1-2.4.3-5 .7-7 1.9-1.9 1.1-5 2.1-4.5 5.1.4 2.5 3.1 1.9 4.9 2.5 1.2.4 2.9.8 3.5 1.7 2.4 3.6 4.8 3 7.9 1 1.2-.8 3-.8 4.5-.9 2.8-.3 16.2-11.6 16.7-14.2-.1-.3 0-.5 0-.7zm55.9 11.1c5.1 2.1 8.7-2.4 13.1-3.9 1.6-.5 4.1-1.1 3.4-3.3-.6-2.2-3.5-2.8-5.1-1.8-5 3.1-10.9 1.2-16 3.3-1.6.6-3.9.1-4.9 1.5-1.2 1.8-4.9 2.5-4 4.7 1 2.5 3.7.7 5.8.2 2.3-.6 4.8-.5 7.7-.7zM511.1 306c4.2 4.6 8.6 6.8 9.9 11.6.2.9 1.5 1.7 2.4 2.1 2.5 1.1 4.9 1.2 7.5-.7 3.8-2.8-1.7-2.8-1.1-4 3.8-8.3-2.8-5.7-6.4-6.2-.8-.1-2.2-.3-2.4-.8-2.1-4.8-5.5-1.8-9.9-2zm33.1 44.9c1.2-.2 3-.2 4.7-.7 1.8-.5 4.4-.2 4.4-3 0-2.4-2.3-2.2-4-2.6-3.3-.8-6.3-1.9-8.1-5.1-1.5-2.7-4-2.4-6.4-2.1-.8.1-1.9.8-2.1 1.4-.9 3.3 7.1 12.1 11.5 12.1zm36 48c1.4-.6 5.1 2.2 4.6-2.4-.3-3.1-.6-7.2-4.8-7.9-4.5-.8-12.3 4.4-11.5 7.9 1.9 8.2 7.7.2 11.7 2.4zm-19.8-21.3c.8 2.7 7.6.2 5 6.2-.6 1.5 2.7 1.4 4.3 1.6 2.6.3 3.9-1.5 5.1-3.3.9-1.3.1-2.2-.9-2.6-4.3-1.6-8.5-5.1-13.5-1.9zm-44.2 3.9c-4.6-3.5-8.3-4-12.3-2.6-1.3.4-2.5 1.1-2.4 2.8.2 1.4 1.5 1.3 2.5 1.7 4 1.4 7.3-.4 12.2-1.9zm-2.6 15.4c-2.5-2.2-4.8-3.8-7.6-4.4-1.8-.4-3.9-.3-4.6 1.5-.7 1.9 1.1 2.7 2.8 3.7 3.2 1.6 6.1 2 9.4-.8zm64.7-109.2c-.4-2.5-.6-5-2.8-4.2-1.6.6-2.9 3-3.4 4.9-.6 1.9 1.2 2.7 2.9 2.5 2.1-.3 3.7-1.3 3.3-3.2zm-3.8-7.4c3.3.5 4.2-1.3 4.5-3 .3-2-1.5-2.5-3.1-2.6-2.4-.1-3.8 2.1-4.1 3.7-.3 1.4 2.1 1.8 2.7 1.9zm-24 77.5c4.9 2.6 8.7 1.7 12.5.4-3.7-1.8-7.5-2.2-12.5-.4z"/><path d="M611.9 351.8c3.8.1 6.9-3.6 11.6-.4 4.9 3.2 5.2 7.4 5.7 11.9.3 2.7-4.9 4.1-8.1 2.3-5.3-3.1-8.2-7.9-9.1-13.9l-.1.1zM600.5 255c0 .5 0 .8-.1.9-3.5 2.9-8.3 2.3-12.2 4.2-2.9 1.4-3.8-1.6-4.8-3.3-2.2-3.8 2.3-4.6 3.5-6.9 1.2-2.4 3.3-1.6 5.1-.4 2.9 1.8 6.9 2.1 8.5 5.5zM347.3 238.5c-2.2 1.4-1.5 5.4-4.6 6.2-.9.2-2.7-1.3-1.8-2.7 1.3-2.1 1.4-5.4 4.7-5.9 1.2-.2 2.1.5 1.7 2.4z"/><path fill="none" d="M100 500h600v200H100z"/><path d="M154.6 657.7v-2c0-24.7 11.1-44.9 41.9-67.3 20.1-14.7 26.1-19.7 26.1-32.1 0-12.3-6-19.2-17.9-19.2-13.9 0-18.9 8.5-20.9 20.9H154c2-24.5 18.1-45 50.7-45 36.5 0 49 21.7 49 43 0 20.7-8.9 30.7-35.1 49.1-17.5 12.3-24.6 20.4-27 26.8h67.3l-3.8 25.8H154.6zM332.7 588.6v26.9h-60.1v-26.9h60.1zM418 657.7v-31.9h-64.3v-26.9l59.3-83.2h33.7v85.2h17.1l-2.8 25h-14.3v31.9H418zm0-82.3c0-15.4 0-24 .6-32.9-5.6 11.9-24.2 39-37.5 58.2H418v-25.3zM543.5 588.6v26.9h-60.1v-26.9h60.1zM650.1 515.5v22.9c-22.5 31.9-44.6 78-50.1 119.2h-31.8c5.6-41.8 31.1-91.9 50.4-116.7h-66.9v-25.4h98.4z"/></svg>