<svg xmlns="http://www.w3.org/2000/svg" xml:space="preserve" viewBox="0 0 800 800"><path d="M231.3 388.1c-1.6-3.6 1.7-6.4 1.7-10.1 0-3.8-1.2-4.6-3.9-3.7-6.9 2.1-5.9-2.5-5-6.1.7-2.8 1.3-6.2 4.9-7.5 3.2-1.2 2.1-4.6 3.4-6.8 6-10 1.2-17.8-5.1-25.2-2.3-2.7-4.3-1.1-4.9 1.3-1.4 5.3-4.8 9.7-6.2 15.3-1.6 6.6-6.5 12.4-10.1 18.4-.3.6-2.2.7-3 .4-1.8-.7-.6-2.2-.4-3.4 2-8.7 7-16.1 10.2-24.3 1.5-3.7 3.6-7 5-10.8 2.3-6.2 1.2-10.7-3.7-15.2-4.2-3.8-3.9-16.6.2-21.4 1.4-1.7 2.9-3.5 2.4-5.1-2.2-6.9.9-13.6.2-20.6-.9-9.3 1.3-19.5 6.2-28.2 1.4-2.5 2-4.5 1.9-7.3-.2-8.4 5.4-13.6 13.9-12.9 3.7.3 7.4.1 11.2 1.2 4.8 1.4 8.4-.8 10.4-5.7-7.8-1.9-8.3-3.9-4.4-11.4 1.7-3.3.1-7.3-.5-10.9-1.7-9.7 5.9-20.2 15.9-20.7 5.5-.3 11-.8 16.5.9 4.8 1.5 8 4.8 9.3 9.1 1.5 4.9 3.3 9.7 5.9 14 2 3.2 1.6 4.8-1.3 6.3-3.4 1.7-4.9 3.2-3.2 7.6 2.3 5.9-3.7 16-9.9 18.5-.6.2-1.6.3-1.8.7-4.8 10-14.2 4.5-21.4 6.4-4.6 1.2-6.8 5-8.6 8.5-1.7 3.2 7.1.9 2.4 7.4 4.7-2.5 6.3-8.1 9.4-6 3.6 2.4-1.7 4.9-2.2 7.7-.6 4.1-1.7 8.1-2.5 12.2-.2 1.1-1.2 2.8.9 3.2 1.5.3 3.3-.4 3 2.2-.3 2.4-2.7 1.7-4.7 2.5 4.8 3.5 4.7 10 10.2 12.7 1.1.5 2.5 4 1.2 6.7-2.2 4.9-.5 8.2 4.4 7 7.2-1.7 14.5-1 21.6-2.5 1.4-.3 3.4.2 3.8-1.9.4-1.9-1.3-2.8-2.5-3.6-2.3-1.6-4.9-2.8-7.4-4.2-1.2 6.8-1.1 6.6-7 4.3-2.1-.8-4.3 0-5.8 2.2-.6.9-1.5 1.8-2.8 1.2-1.6-.7-1.1-2-1.1-3.4.2-4.9 1.1-9.1 8.2-9.3-8.6.3-9.6-5.2-10.5-10.9-.1-.8-.8-1.8 0-2.4 8.6-6.9 5.8-16.5 5.8-25.4 0-1.5.3-3 .7-5.7 6.2 8.5 8 17.2 6.4 26.1-.7 4-.3 5 3.4 4.1 9-2.3 16.9-1.5 24.4 5 6.1 5.3 14.9 5.3 22.2 8.2 3.6 1.4 6.6 3.1 9.2 5.7 5.4 5.4 11 9.1 19.2 4.7 3.8-2 4.3 2.2 5.2 4.9 1.1 3.1.2 5-3.1 4.9-5.3 0-10.6 3-15.6-2.8-2.5-2.9-7.3-.5-9.8 3.6-2.9 4.5-3.2 9.9-3.4 14.4-.2 6.3-4.9 10.7-4.7 16.7 0 .9-.7 1.7-1.8 1.5-1.2-.3-1.8-1.3-1.4-2.5 2.4-8.1 1.7-16.9 5.9-24.5 1.5-2.6.1-5.2.4-7.8.1-1.3 0-3.7-2.4-2.8-1.3.5-3.4 1.9-1.8 4.1.8 1.1 2 1.9.4 3.2-6.3 5.5-5.9 13.8-8.5 20.9-.8 2.1-.2 5.1-2.8 6-.9.3-2.9-1.1-3.8-2.2-2.1-2.8 0-4.3 2.2-5.6-2.8-4.7 2.5-10.1-.3-13.7-2.1-2.7-7.5-3.9-11.3-2.9-5.7 1.5-11.2 2.1-17 1.9-3.3-.1-4.2.5-2.6 4.8 1.9 5.1 5 9.2 7.4 13.8 1.7 3.4 3.2 6.9 7.2 8.2 1.5.5 2.3 1.4 1.4 2.9-.9 1.6-2 1-3.3.4-2-.9-4.3-2.4-6.2-.4-2.1 2.1.9 3.9 1 5.6.3 3.5 1 6.6 2.5 9.6.5 1 1.1 2.2-.3 2.9-1.3.7-2.6.6-3.3-1-1.9-4.5-3.7-8.5-9.8-4.5-1.4.9-2.8-1.4-2.8-2.9-.2-3.5-2.2-5.7-5.2-5.7-3.1 0-6.3 1.7-7.1 5-.8 2.9-3.6 3.7-5.5 6.9 7.4-.5 11.4 3.2 13.8 9.2.3.7 1.1 1.6 1.9 1.8 6 1.6 9.7 5.3 11.2 11.3.4 1.6 1.4 3.7 3.5 3.3 1.9-.4 1.7-2.2 1-3.8-.2-.4-.2-1.2-.2-1.2 8.1-2 2.9-7.9 3.4-13.5 6.1 4.3 7.3 9.9 8.2 15.5.8 5.3-.4 10.8 1.9 16.1.8 1.7-.7 3-2.6 2.7-2.1-.4-5 .8-5.4-3.2-.2-2.5 3.8-6-1.2-7.5-3.2-1-5.8 1.4-8.7 2.1-5.1 1.3-7.2 2.5-3 7.2 1 1.1-.2 2.4-.7 3.6-3.7 8.4-.2 14.2 9.1 14.8 2.4.1 4.3.7 6 2.2 2.4 2.2 5 2.7 7.6.5 4.1-3.5 5-.3 5.3 2.8.2 2.5-.1 5.3-1 7.7-3.5 10.1-1.3 20.2-.9 30.4.1 3 2.2 5.2 4.3 7.8 4.7 5.6 11.2 6.4 16.5 9.9 2.1 1.4 5.3 2.9 3.8 6.7-1.2 3.1-3.2 5.1-6.8 5.2-12.8.6-25.5 1.4-38.3 1.9-4.9.2-7.6-1.5-6-7.2 3.7-13.2.8-26.4 0-39.6-.3-5.3-2.1-7.2-5.8-8.6-3.7-1.4-4.7-4.3-3.6-7.2 1.9-5.4.6-10.1-2.1-14.3-4.5-6.9-2.9-15-5.7-22.2-.1-.2 0-.5 0-.7-1.2-3.6-3-7.8-6.3-8.8-3.2-1-5.8 3.2-7.5 5.7-4.3 6.3-8.5 12.9-11.5 19.9-2.4 5.6-5.8 9.4-11 12-.2.1-.5.1-.6.3-3.3 8.1-12.1 6.4-17.5 10-9.6 6.4-19.8 13.7-20.5 27.2-.3 5.5 4.4 9.6 5.1 15 .6 4.8-.6 9.1-4.4 12.1-2.1 1.6-5 .8-6.6-1.2-5.4-6.6-13.7-11-15.1-20.6-.1-.6-.6-1.6-1-1.6-6.9-1.1-8-6.9-10.6-12-3.2-6.5-.6-15.2 6.4-16.6 6.3-1.2 11.7-3.2 14.6-9.6.7-1.5 2.2-2.9 3.7-3.7 8-4 11-12.3 15.7-19 2.5-3.6 5.6-6.7 7.6-10.7.9-1.8 2.9-3.9 5.4-2.4 2.6 1.6-.9 3.4-.2 5.4 4.1 2 10.3-3.5 13.2 3.4-1.9 3.8-5.4 3.1-8.7 3.1-1.1 0-2.3.1-2.8 1.3-.5 1.3.7 1.9 1.4 2.7 3.1 3.6 6.8 3.8 10.7 1.4 2-1.2 3.6-3 5.5-4.5-1.3-3.1-4-3.2-6-4.5zm50.5-64.3c2.2-.1 4.9-.2 5.5-2.6.7-2.6-2.4-3-4-3.3-4.5-1-9-6.5-13.9-.6-.3.4-1.4.4-1.9.2-6.4-2.5-10.8 1.7-15.6 4.5-1.3.8-2.9 1.8-2.2 3.6.6 1.5 2.3.5 3.5.6 9.8.5 18.9-4.8 28.6-2.4zm40.3-25.7c4.7.5 8.3-1.1 8.6-6 .3-3.8-2.9-4.1-6-4.2-5.1-.3-7.4 2.6-7.8 6.9-.2 3.3 2.9 3.4 5.2 3.3zm-28-88.4c.1-5-.9-8.3-4.9-8.7-2.1-.2-5.4.5-5.2 3.5.3 4 1.2 8.6 6.6 9 3.4.2 3.4-2.7 3.5-3.8zm-22.1 3.8c3 .9 3.7 6 7.2 4.3 1.7-.8 1.5-4.1.4-5.4-2.4-2.8-4.8.8-7.6 1.1zM552.7 297.3c1.5-3 7.4-5.1.4-9.2-1.4-.8-.3-5.4-1.1-8.1-.9-3.2-.1-5.1 2.9-6.2.7-.3 1.7-1.5 1.6-1.9-2.7-6.5 4.7-12.3 1.2-18.8-1-1.9-.4-3.7 1.6-4.2 2.5-.6 2.9 1.4 2.9 3.3.1 6 .2 12 0 18-.1 3.5.6 5.1 4.7 5 14.2-.4 26.4 5.8 39.1 11.3 9.6 4.2 18.7 9.6 28.5 13.2 2.2.8 4.3 1.1 5.9-1 1.1-1.4 2.7-3.3 4.2-1.3 2 2.7 1.9 6.2 1.8 9.5 0 2.5-2.2 3-3.8 2.4-4.2-1.4-9.3 1.6-12.9-3.2-.8-1-3.4-.6-5.1-1-4.5-1-7-.3-7.6 5.3-.8 7.3-1.1 14.7-3.6 21.8-.7 2.1-1 4.2-3.1 3.9-2.7-.3-2.3-2.8-1.5-4.7 3.3-7.5.3-16.3 4.8-23.8.8-1.2-3.6-3.4-6.1-4.6-.2 6.3 2.3 12.5-4.4 17.7-3.4 2.7-1.5 9.1-2.1 13.8-.3 2.1 1.1 4.6-1.9 5.6-1.6.6-3.1.3-4.3-1-1.7-1.9-3.3-4.9-1.8-6.6 3-3.5.2-7.3 1.5-10.8.6-1.7-.7-2.6-2.5-3.1-4.9-1.3-9.7-3-14.8-.6-3.1 1.5-6.5 1-9.7 0-1.6-.5-3.1-.6-4.3.7-1.7 1.8.2 2.6 1.1 3.7.6.8 1.2 2 1.2 3-.3 7.6 4.8 11.3 10.5 14.5 2.4 1.3.1 3 .9 4.6 1 2.1-1.1 2.4-2.7 2.5-5 .3-5.7 2.3-2.9 6.3 1.4 2.2 2.1 4.8 3.1 7.3.4 1.1 1.5 2.6-.2 3.4-1.3.6-2.9.2-3.5-1.1-2.4-5.9-10.4-5-13-10.9-.9-2-3.8-1.9-5.1 0-1.9 2.9-8.4.6-7.2 6.8.3 1.7 0 3.1 2.2 3.1 3.6-.1 5.1 2.7 7.4 4.8 5.1 4.5 9.1 9.6 11.2 16.2.5 1.7 2.3 2.3 3 1.6 2-2.3 6.5-2.1 6.5-6.3 0-1.5-1.4-2.9-.5-4.5.4-.8 1-1.4 1.5-2.1.7.5 1.6.8 1.9 1.5 3.5 8.3 5.2 17 5.6 26 .1 1.8.9 5.4-2.4 5.1-2.3-.2-4.1-2.3-4.4-5.6-.7-6.5-3.8-9-8.2-5.9-2.8 1.9-9.6 3.7-5.6 10.3.6 1 .6 2.7.3 3.9-2.6 8.6.7 13.5 9.8 14.5 5 .6 9.7 4.3 15.1.5 1.4-1 3 1.7 2.8 3.6-1 7.8-2 15.6-3.3 23.4-.2 1.3-.2 2 .1 3.3 1 3.9 2.4 7.6 2.2 11.9-.3 6.2 8.2 13.9 16.6 15 4.6.6 6 3.6 7.7 7 1.9 3.7-1.4 5.2-2.7 7.5-1.2 2.2-3.6 2.2-5.9 1.6-10.2-2.5-20.8-.5-31-2.1-4.6-.7-9.9-.8-11.7-6.7-.5-1.6-.8-2.9.1-4.4 3.4-6.1 1.8-12.4.6-18.6-.6-3-2.2-6.1 1.5-8.2.5-.3 1.4-.9.6-1.2-8-3.3-2.3-12.6-7.7-17.1-2.7-2.2-.2-5.8-.7-8.8-.9-6.8-5.1-12.3-7-18.6-1.3-4.3-1.4-9.1-1.8-13.7-.4-3.6-.5-8-4.4-8.7-4.6-.8-7.6 3.7-9.3 7-3.7 7.1-6.7 14.2-11.4 21-5.6 8-13.4 12.6-20.4 18.3-4 3.3-10.2 4.8-15.6 6.8-3.4 1.2-5.8 3.3-7.2 6.4-1.2 2.6-2.5 4.9-4.6 7.1-3.8 3.9-3.7 13.3.2 18.2 3 3.7 2 7.4 1.6 11.2-.3 2.5-.8 5.2-4 5.2-3.4 0-7.4 1.3-9.9-2.2-3.6-5.1-7.9-9.7-10.8-15.5-2.2-4.4-6.8-7.4-9.7-11.5-9.1-12.4-5.8-17.9 6.9-21.6 4.2-1.2 7-3 9-6.8 1.2-2.3 4.1-3.8 5.6-5.6 5.6-6.7 13.9-11.1 16.3-20.4 1.4-5.3 6.7-7.8 10.2-11.7.8-.8 3.5-.4 3 1-2.8 8.6 4.1 4.4 6.6 4.8 4.7.8 4.9-6.3 9.5-6.5-1.1-1.8-2-3.9-3.4-5.4-1.6-1.8-3 0-4.5.8-1.9 1.1-4.2 3.7-6.4 1.4-2.6-2.7 1.5-3.5 2.4-5.1 3-5.1 6.4-9.8 8.9-15.2 2.3-4.8.4-9.9 1.9-14.7.4-1.4-1.3-1.3-2.4-1.5-3.1-.3-2.4-1.1-.3-2.2.8-.4 1.6-1.3.2-1.8-3.5-1.1-2.9-3.8-3-6.5-.1-1.5-.8-3.1-2.9-3-1.6.1-1.9 1.1-2.6 2.4-4.5 9.7-7.6 20.2-14 29-.7.9-.4 2.6-.4 3.9 0 3-1.8 4.2-4.3 3.5-2.1-.6-3.3-3-1.8-4.8 6.6-7.4 4.5-18.4 11.6-25.9 2.3-2.4 3.4-7.6 4.6-11.8.7-2.3.9-3.7-1.3-6.1-9.5-10.7-9.3-17.7-.4-29.2 2.7-3.5.5-7.4.3-10.9-.5-9.2-.2-18.4-.4-27.6-.1-2.9 1.9-5 3.1-7.1 3-5.5 5.7-10.6 5.3-17.3-.2-4.2 6.8-8.8 11.7-8.5 3.3.2 6.9.1 9.7 1.5 4.9 2.5 8.4-.8 11.6-2.7 5.1-3.1.5-5.4-1.9-7-5.2-3.4-5.3-5.1-.6-9.6 2.9-2.8 2-7.2 1.2-10.2-2.5-9.4-1.1-13 8-16.8 3.6-1.5 7-3.1 11.1-3.7 11.8-1.7 18.2 6.7 20 15.8.6 3.1 1.4 5.5 3.8 7.1 3 2 .8 4.9 1.8 7.2-9.1 2.6-4 10.7-5.6 16-2.6 8.4-11 10.6-14.8 17.3-.7 1.3-2.9.8-4.4.4-4.9-1.5-9 0-13 2.8-5.6 4-6 5.5-1.5 10.1 1.1 1.2 2.3 1.2 3-.5.3-.8.2-1.8.5-2.6.8-2.3 2.9-3.3 4.8-2.4 2.4 1.2.3 3.5-.4 4.3-3.2 3.8-5.2 8.1-5.8 12.8-.5 4.4-1.9 9.3 2.7 12.7-3.7 8.6 5.7 10.1 8.3 15.3.2.2.7.4 1.5.8zM525.4 337c.5 1.9 1.7 1.9 2.7 2 10.9 1.7 21.3-2.7 32.1-2.4 1.2 0 2.1-.7 2-2-.1-1.5-1.1-2.2-2.4-2.8-2.3-1.2-5.5.3-7.3-2.4-2.2-3.1-4.2-2.6-6.1.3-.6.9-1.4 2.2-2.5 1.9-7.6-2.6-12.1 4.2-18.5 5.4zm35.7-40.8c-1.1 3.6-1.6 8.3-7 6.4-2.3-.8-4.4-1.2-6 .9-.5.6-.2 2.2.3 3.1 1.3 2.3 3.9 3.9 6.1 2.9 6.2-3 12.7-3.3 19.2-3.5 1.9-.1 3.1-1.7 2.8-3.1-.8-3.1-2.7-5.4-6-6.4-1.7-.5-3.2-.5-3.6 1.6-.4 2-.9 4.5-3.4 3.9-2.1-.7-.1-3.9-2.4-5.8zm25.8 7.4c3.1 1.7 3.7 3.8 4.8 5.1 2.9 3.1 6.6 2.9 10.2 1 2.4-1.2 2.9-2.9 1.7-5.4-1.8-3.9-4.6-3.3-7.8-2.3-2.2.6-4.7.8-8.9 1.6zM505 411.3c-.4 0 .5.1 1.4.1 3.5.1 4.4-2.5 4.8-5.2.2-1.5 1.1-3.9-1.2-4.5-2.8-.7-3.7 1.6-4.6 3.7-1.1 2.6-3.2 1.7-5.1 1.4-1.4-.2-3.4-1.5-4 .5-.6 2.3 1.8 3.3 3.6 3.9 1.1.5 2.5.1 5.1.1zM564.6 227c2.8-2 1.6-4.9 2.7-6.9 1-1.9.3-3-1.5-3.5-1.4-.3-3.2-1.2-4.4 0-1.3 1.3-.7 3.2.4 4.1 1.6 1.7 1 4.2 2.8 6.3zm-26.1 81.3c-2.3.1-3.5 1.7-3.7 3.3-.4 2.9 2 4.2 4.3 4.9 1.8.6 3.2-.8 3.1-2.5-.1-2.6-1.6-4.5-3.7-5.7zm18.3-80.1c-.9-2.3-1.6-5.2-4.9-5.3-2-.1-2.8 1.7-2.5 3.2.5 2.9 3.1 3.4 5.5 4 1.2.4 2.1-.2 1.9-1.9z"/><path d="M317.6 345c-.1 0-1.7.1-3-.6-1.4-.8-3.7-1.7-3.2-3.8.6-2.8 2.9-.9 4.4-.8 6.1.4 11.9.6 14.5-6.6.3-.9 1.4-1.1 2.2-.6 1 .5.7 1.2.3 2.1-2.3 6.4-7.1 10.1-15.2 10.3zM602.1 354.5c-10.9 7-10.9 7-16 0h16z"/><path fill="none" d="M100 500.2h600v200H100z"/><path d="M138.9 617c0-18.2 12.7-29.3 23.2-34-10.9-6.8-17.6-15.3-17.6-29.7 0-24.1 17.7-40.1 49.6-40.1 29.2 0 48.5 15.2 48.5 39.7 0 16.4-8.4 24.4-18.1 28.5 10.2 3.8 23.2 15.8 23.2 34.6 0 29.3-23.4 44.5-55.8 44.5-29 0-53-15.4-53-43.5zm78-1.4c0-14.1-9.7-20.6-23.6-20.6-15.5 0-23.4 8.4-23.4 20.4 0 12.6 9.5 21 23.9 21 13.4 0 23.1-6.3 23.1-20.8zM174 554.3c0 9.6 6.9 16.1 19.9 16.1 12.6 0 19.5-4.9 19.5-16 0-10.8-7.1-17.4-19.8-17.4-13 0-19.6 6.1-19.6 17.3zM328.2 588.8v26.9H268v-26.9h60.2zM348.8 552.3c2-17.5 14.3-39.1 49.9-39.1 32.9 0 47.5 18.6 47.5 38.7 0 17.1-9.8 25.3-17.6 28.9v.6c9.2 3.4 23.1 12.2 23.1 34.3 0 20.6-12.5 44.9-53.3 44.9-38.1 0-51-23-52.5-41.8H376c1.9 9.7 8.6 18.1 23.3 18.1 14.3 0 21.4-9.2 21.4-21.7 0-13.2-6.7-21.1-23.3-21.1h-12.8v-23.8h11.3c14.2 0 19.9-4.7 19.9-16.6 0-9.8-5.8-16.3-18.1-16.3-14.4 0-17.9 8-19.4 15.1h-29.5zM532.1 588.8v26.9H472v-26.9h60.1zM552.3 617c0-18.2 12.7-29.3 23.2-34-10.9-6.8-17.6-15.3-17.6-29.7 0-24.1 17.7-40.1 49.6-40.1 29.2 0 48.5 15.2 48.5 39.7 0 16.4-8.4 24.4-18.1 28.5 10.2 3.8 23.2 15.8 23.2 34.6 0 29.3-23.4 44.5-55.8 44.5-29 0-53-15.4-53-43.5zm78.1-1.4c0-14.1-9.7-20.6-23.6-20.6-15.5 0-23.4 8.4-23.4 20.4 0 12.6 9.5 21 23.9 21 13.4 0 23.1-6.3 23.1-20.8zm-43-61.3c0 9.6 6.9 16.1 19.9 16.1 12.6 0 19.5-4.9 19.5-16 0-10.8-7.1-17.4-19.8-17.4-13 0-19.6 6.1-19.6 17.3z"/></svg>