<svg xmlns="http://www.w3.org/2000/svg" xml:space="preserve" viewBox="0 0 800 800"><path fill="none" d="M0 0h800v800H0z"/><path d="M233.9 278.4c.1-.2.3-.4.2-.5-.2-.7-1.4-1.4 0-2.2.8-.4 1.3-1.3 2.3-1.3.5 0 1-.2 1.2-.8.2-.7-.3-.9-.7-1.2-.8-.8-1.9-1.3-1.7-2.6-1.7-.7-1.3-2.4-1.8-3.7-.6-1.5-.2-3-.4-4.4-.4-2.5 1-4.3 1.6-6.2.5-1.7 1.8-3.5 2.3-5.2.8-2.3 2.6-3.5 4.1-5 1.3-1.4 3.2-2.4 5.3-2.6.6-.1 1.2-.2 1.7-.6 2-1.6 4.3-2.1 6.7-2.2 1.2-.1 2.4-.2 3.5-.3 2.1-.2 2.6.1 3.1 2 .2.8.6 1.2 1.3 1.2.4 0 1.1.2 1.2-.4.2-.6-.5-.5-.8-.6-.4-.2-.5-.5-.2-.9s.8-.6 1.1-.2c1.5 1.8 3.9 1.4 5.7 2.7.8.5 1.9.5 2.8-.6.7-1 2-1.5 3-2.2 1.3-1 2.9-1.7 4.4-2.5 1.6-.9 3-2.2 4.2-3.5 1-1.1 1.2-3.1 1.7-4.7.3-1 .7-1.8 1.9-2 1.5-.2 2.4-2.3 1.9-3.7-.9-2.4-.9-2.4-3.5-2.4-2.3 0-4.6-.1-6.9.3-.6.1-1.3.3-1.7-.4-.4-.7.2-1.2.4-1.6 2-3 3.1-6.4 4-9.8.5-1.8-.7-3.6-.9-5.4-.1-.7-.3-1.4-.5-2.1-.3-.9-.2-1.4 1.1-1-1.6-.8-1.6-1.9-1.7-3.3-.2-2-.5-4-.4-6.1 0-1.2 1-2.2.4-3.4-.2-.4.4-.2.7-.4.3-.2.5-.7.2-.7-1.6-.1-.5-1-.4-1.4.4-1.4.6-2.9 1.1-4.3.7-2.3 2.3-3.9 3.9-5.6.7-.8 1.2-1.8 3-1.4-1.4-.9-1.1-1.5-.3-2 1.2-.8 2.6-1.4 3.1-2.9.2-.4.7-.6 1.2-.7.4 0 .8-.1 1.2-.3 4-1.8 8.1-2.1 12.5-1.9 2.3.1 4.6.1 6.9.1 4.7 0 9.3 1.1 13.6 3.3 2.2 1.2 4 2.8 6 4.2 1.1.8 2 2.1 2.8 3.3.5.7.9 1.6-.7 2.1 1.9 0 2.2 1.1 2.6 2.5.4 1.3.9 2.7 1.5 3.9 1.1 2.1.9 4.4 1.5 6.5.4 1.6.5 3.4 1.9 4.7 1 1 2.2 1.9 3.2 2.8.3.3.6.5 1 .7.9.6 1.5 1.5 1.3 2.4-.3 1.1-1.6.9-2.5 1-1.6.2-3.3.3-4.9.5-1.3.2-2 .6-2 2.3 0 1.2.5 2.7-.8 3.8-.2.2 0 1.3.5 1.9.4.4 1 1.1.5 1.3-.7.3-1.7.6-2.4-.2-1.3-1.6-1.2-1.5-2.9-.2-.9.6-1.7 1.7-3.1 1.5-.5-.1-.9.3-1.2.8-.2.3-.6 1-1 .7-.6-.4 0-.9.1-1.3.3-1.2.6-2.3 2.1-3-1.9-.4-2.4-.1-2.9 1.6-.4 1.3-.6 2.8-2.6 2.4-.2 0-.5.1-.5.2-.4 1.5-1.6 1.4-2.7 1.6-2.3.5-3.5 2.3-3.7 4.9-.2 2.7.7 4.9 2.7 6.7.4.3.9.5 1 1.1.4 1.5 3 4.8 4.7 5.1 2.5.4 5 2.1 7.6.3.4 1.5-.3 2.1-1.5 2.5-1.7.5-3.5.4-5.2.5-2.2.2-4.3.6-5.9 1.9-1.2 1-2.6 2.3-3 4-.1.5-.2 1.1.2 1.5 1.4 1.2 2.6 2.5 4.3 3.4.9.5 1.8 1 2.7 1.6.4.3 1.3.7.4 1.5-.2.2-.1.3.8.4.5.1 1.3-.1.6.8-.2.3 0 .3.2.4 1.2.1 1.6.8 2.1 1.8.6 1.1 1.6 2 2.5 2.8 1.9 1.7 3.5 3.7 5.1 5.6 1.5 1.7 2.9 3.7 4.3 5.6 1.3 1.8 2.8 3.5 4.3 5.1 1 1.1 1.6 2.6 3.2 3.2-.3 1.3.8 1.9 1.5 2.5 1.3 1 1.8 2.6 3.3 3.5 1.1.7 2 .6 3 .1 1.3-.6 2.6-.9 4-.7.9.1 1.5.6 1.8 1.5.5 2.1 2.3 3.3 3.5 4.9.7.9 5 .6 6.3-1 1.8-2.1 4-2 5.7.1.5.6 1.3 1 1.5 2.1-1.4-1-2.5-2.2-4.4-1.6-.7.2-1.2 1-2.1.8-.2 0-.7.2 0 .6 1 .6 1.5 1.5 1.1 2.8-.6 1.9-.1 2.7 1.5 3.2.9.3 2.6-.5 2.7-1.3.1-1.3 1.2-2.2 1-3.9 3.2 2.5 3.5 6.2 5.4 9-.8-.4-1.3-.9-2.3-.5-.7.3-.8-.6-.6-.9.7-1.6-.3-2.9-.7-4.2-.2-.5-.6-.8-1.1-.7-.5 0-.6.4-.7.8-.4 1.4-1.4 2.6-1.5 4.3-.1 1.9-.5 3.9-.8 5.8 0 .2.1.5 0 .8-.1.4-1 .6-.4 1.1.5.5 1.2.7 2 .5 1-.3 1.6-1 2.5-1.7 0 1-.4 1.5-.9 1.9-.7.7-1.2 1.6-.9 2.6.3 1.3 2.1 1.7 3.4.8.7-.5 1.3-1 2.1-1.6l-.2.4c-.2.5-.9 1-.1 1.6.6.5 1.3.5 1.9.1.6-.4 1.2-.9.8-1.8-.2-.5-.2-1.1-.2-1.7-.2-1.4-.7-1.7-2.1-1.1v-4.9c2.2 3 3 5.5 3 8.3 0 1.2-1 1.9-1.3 2.9-.6 2.1-1 4.2-2.3 6.1-.8 1.2-3.7 2.7-5.9 2.6-.1.3.1.4.3.4 1.6 0 1.2.9.4 1.4-.8.6-.7 1.1-.3 1.8.7 1.4.8 2.9.8 4.4 0 .3-.2.5-.4.8-1.6 2.3-3.8 3.7-6.1 5.2-.7.4-1.3.8-1.4 1.7-.2 1.5-1.3 2.5-1.9 3.8-.7 1.4-2.6 1.8-4.1 1.8-2.1.1-3.8 1.4-5.8 1.8-2.4.4-4.5 1.9-7.1 1.9-.9 0-1.9.4-2.3 1.4-.3.7-.9.6-1.4.9 1.3 1.1.9 2.7 1.4 4 .5 1.2.7 2.5 1.1 3.8.3 1.3.3 2.4-.2 3.7-.8 2-.2 4 .2 6 .5 2.3 1.3 4.6.9 7-.3 1.7-1.2 3.2-2 4.7-.5 1-1.1 1.8-.3 2.9.3.5.4 1.3.2 1.9-.5 2.3-1.1 4.6-1.7 6.9 0 .1-.2.3-.3.4-1.4.6-1.8 1.4-1 2.9.7 1.4 1.2 3.1 1.5 4.5.4 1.7 1 3.2 1.7 4.8.5 1-.9.8-.9 1.3 3.6 1.7 7.5.5 11.3 1.2 1.9.4 3.9-.2 5.8.2 3.2.7 6.4.1 9.7.6 1.2.2 2.6.2 3.6-.9.4-.5 1-.9.9-1.8-.4-2.2 1.6-3.9 3.8-3.1.4.1.8.3 1.3.3 2 .1 2.8 1 2.5 3-.1.3 0 .8-.1 1-.9 1.6-.2 2.3 1.1 3.2.7.4.8 1.7.5 2.8-.4 1.7-1.2 2.5-3.1 2.3-2.7-.3-5.4-.1-8.1-.3-2-.2-3.5 1.1-5.3 1.8-1.6.7-3.1 1.8-4.9 2-1.3.1-3.2-1.1-3.4-2.3-.1-.7-.4-.7-1-.8-3.9-.3-7.8-.4-11.7-.1 1.2 2.2 1.3 4.5.1 6.6-1.2 2.1-.3 3.9.4 5.6.6 1.4.6 3 1.4 4.4.4.7-.6.6-1 1.1 2.5.3 2.3 2.6 3.1 4.1.3.5 1.1 1.4.3 2.3.4.1-.1 1 .6.8.5-.1.6.2.5.5-.3 1.7 1.9 2.8 1 4.7 1.7.9 1.2 2.8 1.9 4.1 1.7 2.9 2.2 6.2 3.2 9.3.6 2.1.7 4.4 1.6 6.4 1 2 1.2 4.1 1.7 6.1 1 4 2 8 2.9 12 .4 1.5.6 3.1 1.7 4.4.3.4.6.8.1 1.4-1.5-1.2-1.7-3-2.2-4.6-.3-.8-.5-1.7-1-2.4-.9-1.1-.7-2.5-1.2-3.7-1.1-2.6-.4-5.8-2.6-8-.4-.4-.7-1-.7-1.7 0-1-.2-1.8-.8-2.7-.4-.5-.5-1.2-.3-2 .4-1.5-.2-3-1-4.2-1.2-2-2.3-3.9-2.7-6.3-.4-2.2-1.7-4.4-2.9-6.4-.6-1-.8-2-1-3-.3-1.9-1.5-2.6-3-1.5-1.1.8-2.8.9-3.4 2.5-.3.7-.9.5-.9-.3 0-1-.3-2 1-2.5.2-.1.5-.3.5-.5.1-2 2-3.3 2.4-5.2 0-.2.2-.6.1-.7-1.1-1-.8-2.7-1.8-3.7-.5-.5-1.1-.6-1.4 0-.5 1-1.7 1.3-2.2 2.2-.2.3-.5.4-.8.3-.4-.1-.3-.5-.3-.8.1-1.4-.6-2.7-.4-4.1.1-.5-.7-.9-1.3-.8-.6.1-.8.6-.7 1.2.1.8.3 1.8.7 2.4.8 1.5.8 2.8.3 4.4-.7 0-.5-.7-.8-1-.2-.3-.4-.4-.8-.4-.3 0-.4.3-.5.5-.1.5 1.3 3.5 1.7 3.6.4.1.8.1 1.1.1.1.5-.3.5-.5.7-1.1 1-1.2 2.1-.2 3.2.8.9.4 2.2 1.3 3.1 1.1 1.1 1.7 2.4.5 3.8-.1.1-.1.2-.3.7-.3-1.3-1.3-1.8-1.4-2.9 0-.5-.6-1.1-1.1-1.5-.7-.6-1.5-.6-1.7.6-.2.8-.2 1.6-1.3 1.9-.3.1-.5.5-.3.9.3.5.7.8 1.3.7 1.5-.4 2.2 0 2.1 1.7-.1.8 1 1 1.4 1.7.5 1.1 1.5 1.9.4 3.2-.5.6-.2 1.6 0 2.4.5 1.8.5 1.8-1.3 1.9 1.7 1.7 2.7 3.8 3.9 5.7.6 1 .5 2.3 1.2 3.3.4.5-.3.9-.8 1-.7.2-.9.5-1.2 1.3-.6 1.7-.7 3.6-1.8 5-.6.8-.1 1 .2 1.2.5.2.7 1.3 1.6.5.8-.7.9-1.8 1.2-2.7.5.3.4.6.3.9-.8 2.6.1 4.9 1.4 7 .3.5.6 1.1 1.4 1h.3c1.3 2 3.5 1.6 5.5 2.1.3.1.7.2.7.5 0 .4-.4.4-.6.6-1.7 1.6-3.1.2-4.5-.4-1.6-.6-3-1.2-4.5.3-.6.6-1.7.4-2.6.4-.4 0-.8-.2-1 .1-.4.5-1.4.8-1.2 1.5.2.8 1.1 1.1 1.9 1 2.3-.4 4.4.5 6.7.8.6.1 1.3.3 1.8 1 .6.9 1.7.4 2.6.3.8-.1 1.5.1 2.3.1.3 0 .9.2.8.6-.1 1-.6 2-1.3 2.5-.7.5-1.9.6-2.5-.6-.5-1-1.4-1-2.2-.8-1.4.2-2.5 0-3.7-1-2.7-2.2-5.9-2.1-8.1 0-.1.3.2.3.4.4 2 .9 2 1 .4 2.5-.5.4-.4.6.1.8.9.4 2.6-.2 3.2-1.2.7-1.3 1.6-1.6 2.9-.6.5.4.9.4 1.5.4 1.5-.1 2.9.6 4.3.8.3.1.8.3.7.7-.2.5-.7.5-1.2.3-2.2-.6-4.4-1-6.7-.8-.8.1-1.4.5-1.7 1.1-.2.5 0 1.4.4 1.5 1.1.2 2.1.8 3.3.6 2.1-.3 4.3-.6 6.3.4 1 .5 1.8.6 2.9 0 1.2-.7 2.7-.8 3.9-1.6.5-.3 1.5-.6 2.2.3.2.2.8.1 1.2.2.3 0 .6.1.9.2-.3 1.5 1.3.9 1.7 1.7.4.8.9 1.8.4 2.4-1.4 1.7-.9 4.1-2.1 5.8 0 0 .3.9.4 1.5.1.5.4.8-.3 1.1-.4.1-.1.2.1.4.8.6 1.1 1.4.5 2.2-.5.7-.7 1.2-.4 2 0 .1.1.4.1.4-1.4 1.5.3 3.9-1.5 5.4-.5.4.5.4.7.7.1.3.3.6.2.8-.2.4-.5.1-.8 0-1.2-.5-1.7-2.3-.9-3.4.3-.4.5-.8.7-1.2.4-.6-.2-1-.6-.9-1 .2-1.8.1-2.6 1.5-1.7 2.7-1.9 6.2-4.6 8.4-1.7 1.4-1.4 4-1.7 6.1 0 .3.3.4.6.3.4 0 .6-.2.5-.6-.1-.7-.2-1.8.6-1.7.8.1.5 1.3.4 2-.5 3.4-1.3 4.1-4.9 4.2-1.1 0-2 .4-2.9.9-.5.2-1.1.3-1.3-.1-.3-.5.2-1 .6-1.2 1.5-1 2.4-2.6 3.9-3.7.8-.6.6-1.9.5-2.9-.1-.4-.6-.5-1.1-.3-.6.3-1.1.5-1.6.9-.9.7-1.9 1.3-3.1 1.1-1.5-.2-2.3 1-3.1 1.8-.7.7-1.3 1-2.3.8-2.3-.5-5 1.1-5.9 3.8-.3.7 0 1 .3 1.4.4.5 1 .9 1.6.5 1.4-.8 2.9-1.2 4.5-1.3.5 0 1-.1 1-.9.1-.7.8-1.1 1.4-.6.4.3 1.4.6.4 1.5-.4.3-.3 1.1-.6 1.7-.6 1.1-1.3 1.6-2.5 1.8-2.1.3-2.7 3.2-1.7 4.6.5.7 1 1.2 1.5-.1.2-.6.4-1.3 1.4-.4.5.4 1.6.4 2.3 1 .4.4.9-.3 1.2-.9.5-1.2 3.2-2.5 4.3-2 .8.3.3 1 .2 1.5-.1.5-.5 1.1.3 1.2.6.1.7-.5.8-.9.1-1.2.7-2.1 1.6-2.9.2-.2.4-.4.4-.6-.1-1.4.9-1.3 1.8-1.4 1.1 0 1.5.4 1.6 1.5.1.7.4 1.5.5 2.2.1 1.6-1.3 2.2-2.2 3.1-1.6 1.6-3.4 3-5.6 3.8-.3.1-.5.4-.4.7.2.5.3 1.1.9 1.1.5 0 1.3.3 1.5-.5.4-1.7 1.4-2 2.8-1.3v.2c-.3.5-.8.9-.5 1.5.1.3.4.2.7.2.7-.1 1.7-.2 1.8-.9.2-2.2 2.2-1.9 3.4-2.4.7-.3 1.4-.2 1.5-1.3.1-1.2 1.4-1.1 2.2-1.6.2-.1.6.2.4.6-.1.4-.3.8-.5 1.1-.3.5-1.1.7-.8 1.5.3 1 1.1 1.7 1.8 2.4.8.7 2.3-.3 3-1.7 1.1-1.9 2-3.9 1.8-6.2-.1-1.3-1.4-2.2-2.5-1.4-.7.5-1.2.5-1.8.1-1.2-.7-2.5-.1-3.9-.3.3-1-.1-2.4 1.4-2.8.2 0 .3-.3.3-.5.7-2.7 2.6-4.5 4.9-5.7 1.5-.8 2-2.3 3.3-3.7-.5 2.3-1.1 4.3-.9 6.3.3 2.8-.5 5.7.1 8.5.2 1.2-.3 2.4-.5 3.5-.4 2.3-.3 4.5-.2 6.7.1 1.5-1.2-.1-1.4.7 2.5 1.2.1 2.5-.4 2.7-2.7 1.6-2.7 4.2-2.9 6.7-.1 1-.4 1.3-1.4 1.2 1.2.2 1.7.7 1.1 1.8-.5 1.2.3 2.4.1 3.6-.3 2.1-.5 4.3-.2 6.4.2 1.4.4 2.9.4 4.2-.1 3.3-.7 6.6-.9 10-.1 1.6-.2 3.2.2 4.9.4 1.8-.3 3.4-1.8 4 0 .5 1.3-.1.8 1-.3.6 1.5.7.8 1.7 1.7 1.7 2.3 4.2 4.2 5.7 1.4 1.1 3 2 4.6 3 .2.1.6.3.6.4.1 2.1 2.2 1.4 3.2 2.2 1.2.9 2.4 1.4 3.8 1.7 3.1.7 6.3 1 9.4 1.2 3.3.3 5.8 2.2 8.1 4.3.7.6 1.1 2.2.5 3.6-.2.6-.6 1.4.3 2.1.6.5-.3 2.8-1.4 3.2-2.4 1-4.8 2-7.5 2.1-2.3 0-4.3 1.1-6.5 1.7-3.1.7-6.1 1.2-9.2 1.4-3.3.2-6.4-.3-9.5-.6-2-.1-3.9-1.2-5.9-1.5-1.9-.3-3.8-.1-5.8-.4-.8-.1-1.8.5-2 1.6-.2 1-.7 1.4-1.8 1.5-5.4.8-10.6-.4-15.8-1.5-1.1-.2-2.2 0-3.3-.4-1.2-.5-2-1-2.1-2.6 0-1.6-.8-3.3 1.5-4-.7-.5-1-.1-1.4 0-.5.2-.7-.1-.7-.5.1-4 0-7.9-.4-11.9-.1-1.1.6-2.1 1.2-2.9.4-.5.5-.7.4-1.2-.3-2.3 1.2-4.2 1.4-6.4.1-1.8.6-3.6.2-5.4-.3-1.4-.1-2.9.1-4.4.1-.9.2-2 0-2.8-.3-1 .4-2-.4-3-.3-.3-.2-1.9 1.4-1.5-.3-.7-1.5-.8-1-1.8.4-.9.9.6 1.4-.1-.1-.6-.6-.4-1-.4-.5-.1-.8-.3-.7-.8.3-2.1-.7-4.1-.6-6.2.1-2.3.2-4.6 0-6.8-.3-3.2-.2-6.7-2-9.7-.3-.5-.6-.8-1.1-1-1.7-.8-2.8-2-3.1-4-.1-.5-.6-1.2.4-1.5.1 0 .2-.3.2-.4-.7-2.9-.1-5.8-.6-8.7-.5-2.9-.4-5.8-.7-8.7-.2-1.6-.5-3.4 0-5.1.4-1.4-.8-2.9.3-4.3-1.1-.9 0-2-.4-3-.4-1.1-.2-2.2-.3-3.4 0-1.1-1-1.8-1.3-2.7-.9-2.5-.2-4.9.8-7.2.6-1.4.7-2.5-.5-3.5-2.6-2.1-2.4-5.2-.2-7.7.5-.5.4-2.3-.2-2.6-1.4-.8-2.4-1.7-2.8-3.3-.3-1.3-1.6-2-2.3-3.2-.8-1.4-1.4-3-2.2-4.4-.3-.5-.4-1-.9-1.4-.2-.2-.5-.4-.1-.7.7-.6.7-.6-.1-1.1-.9-.6-1.5-1.1-1.6-2.5-.1-1.9-1.3-3.4-2.9-4.6-.6-.5-1.1-.2-1.4.4-.9 1.9-2.4 3.5-2.5 5.8 0 .1-.1.3-.2.4-1.4.9-1 2.6-1.6 3.9-1.3 2.8-1.5 5.8-1.7 8.8-.1 1.3-1.1 2.4-1.4 3.5-.4 1.3-.9 2.6-1.4 3.8-.7 1.8-1.3 3.8-2.8 5.1-.4.4-.7.8-.8 1.2-.2 1.7-1 3.1-1.5 4.7-.5 1.5-1.2 3-1.8 4.4-.8 2-2.5 3.5-3.4 5.2-.9 1.7-2.8 2.6-3.2 4.6 0 .2-.4.3-.6.5-2.2 1.5-3 3.8-3.3 6.3-.3 2.8-1.8 5.1-3.3 7.3-.4.6-1.4 1.2-2.1 1.4-2.2.6-2.3 2.6-3.3 4.1-.9 1.4-1.9 2.9-2.7 4.3-1.1 2-2.8 2.6-4.5 3.7-1.5.9-3 1.2-4.5 1.8-2.7 1-3.3 3.9-4.8 6-1.9 2.8-3.3 5.9-5.4 8.7-.5.6-.7 1.4-1.6 1.6-.1 0-.2.1-.2.1.3 2.4-1.5 4.1-2.1 6.3-.1.4-.4.8-.8.9-.6.2-.8.3-.3.8.2.2.1.5-.2.7-1.9 1.8-2.3 4.6-3.7 6.7-1.3 1.9-1.5 4.7-4.3 5.6-.9.3-.7 1.1-.4 1.7.4.8.5 1.7.6 2.5.1.9.2 1.8-1.1 2.2 1.3-.2 1.9.6 2.1 1.2.7 1.7 1.9 3.1 2.9 4.6.9 1.3-.8 1-.8 1.8 2.3-.6 1.4 1.8 2.4 2.5.9.7.6 1.9 1.1 2.8 1.3 2.3 3.4 3.6 5.5 4.9 2.6 1.6 5.5 2.6 7.6 5.2 1.5 1.8 3 3.4 3.2 5.7.1 1.2.4 2.4-.2 3.6-.4.8-.3 1.8-.5 2.8-.4 1.7-1.5 2-2.7 2.1-3.4.2-6.7.3-10.1.1-1.3-.1-2.7-.3-4 .2-.8.4-1.3-.4-2-.6-1.9-.6-3.9-.5-5.6-1.3-1.5-.7-3-1.5-4.1-2.7-.2-.3-.5-.6-.8-.7-3.1-.6-4.8-3.2-7-5.1-1.8-1.5-3.7-2.8-5.2-4.6-1.3-1.6-3.4-2.3-4.9-3.8-.7-.7-2-.2-3-.3-2.4-.2-4.4-.6-6.4-2.4-2-1.7-3.9-3.4-5.6-5.4-1.3-1.5-2.8-2.9-3.3-5-.1-.6-.2-1.2 0-1.6 1-1.8 1.5-3.9 2.2-5.8.4-1.2 1.4-2.3 2-3.5 1-2.2 2.8-3.7 3.9-5.7.6-1.1 1.7-2 3-2.5 1-.4 1.4-.9 1.7-2.2.3-1.6.6-3.5 2-4.8.4-.4.6-1 .7-1.5 1.3-4.3 2.6-8.6 4.2-12.8.6-1.5 1.2-3.1 1.6-4.8.4-1.7 1.2-3.3 2-4.9.7-1.4.9-3 1.8-4.3.9-1.3 1.4-2.9 2.8-3.9.8-.5.5-1.9 1.2-2.7.9-1.2 1.3-2.6 2.1-3.8.6-.8.5-1.7.6-2.6 0-.7.3-1.3-.5-2.2-1.2-1.4-1.3-3.7-1-5.8.2-1.7.9-3 2.4-4 .1-.1.2-.1.2-.2 1-3.1 3.9-5.5 3.9-9.1-.1-2.7 1.6-4.5 3-6.5.1-.1.4-.2.4-.3.2-1.9.8-3.4 1.9-4.9.1-.2.3-.4.3-.7.5-2.7 2.2-4.6 4.1-6.3.6-.5 1.1-1.1 1.3-1.8.4-1.6 2-2.5 2.3-4.1.1-.5.4-1 .3-1.6-.4-2.2.5-4.1 1.4-6 .7-1.5.3-2.6-1.3-3.2-2.3-.8-3.9-2.4-5.5-4.1-2.6-2.7-5.3-5.3-6.8-8.9-.3-.8-1.1-1.3-1.6-2-.4-.6-1.2-1.3.3-1.9-1.3 0-1.7-.7-2.1-1.5-1.4-2.8-2.8-5.7-4.2-8.5-.9-2-2.2-4-2.7-6-.8-3.1-2.6-5.7-3.3-8.8-.3-1.7-1.5-2.4-3.2-2.8-3.7-.9-6.5-4.4-6.1-7.8.1-1 .4-1.9 1-2.7.9-1.2 1.7-2.6 2.9-3.5 2.3-1.8 2.3-4.1 2.1-6.6-.2-2.5-.6-4.9-.8-7.4-.2-1.9.1-3.9-.3-5.9-.2-.7.6-1 1.3-1.2-.7-.4-1.4-.8-1.4-1.6 0-1.1-1.5-1.5-1.1-2.8.3-.9.6-1.4 1.6-.9 1.2.6 2.1.3 3-.6 1-.9 2.6-.9 3.4-2.3.3-.6.9-.9 1.1-1.7.2-1 1.4-1.3 2.4-1.7 1.1-.5 1.6-1 .4-1.9-1.8-1.4-3.2-3.2-4.2-5.3-.5-1.2-1.6-2.2-1.6-3.5 0-1.8-.9-3.7-.4-5.4.4-1.4.6-3.2 2.4-4 .5-.2 1.3-1.3 1.4-2.3 0-.5.2-1 .6-1.2 1.3-.8 1.7-2.4 2.4-3.6.4-.6.6-1.2 1.3-1.5.2-.1.4-.3.4-.4-.1-2.3 2.3-3.1 3-4.9.6-1.8 2.5-2.7 3.6-4.1 1-1.3.8-2.1.1-3-1.2-1.4-2.3-3-3.7-4.3-1.1-1.1-1.2-2.3-1.4-3.5-.3-2.3-1.3-4.3-2.6-6.3-.5-.8-.7-1.8-1.1-2.7-.9-2.1.3-4.2-.4-6.1-.8-1.9-.2-3.8-.3-5.6 0-.3 0-.6.1-.7.6-.5 1.4-.7.3-1.7-.5-.5 1.1-.2 1.2-1-2.6-.6-1.1-2.7-1.4-4.1-.5-1.8.4-3.9-.1-5.9-.4-1.4.5-2.7.5-4.2 0-2.3.5-4.6.3-6.9-.2-2.8-.6-5.6-.5-8.4.1-1.6.8-3.1 1.1-4.6.3-1.2.9-2.3 1.1-3.5.2-1.7.6-3.3 1.4-4.9.7-1.2 1.4-2.4 2.1-3.7.6-.3 1.3.3 1.8.8.4.4.7.9 1 1.3.2.3.6.4 1 .2.2-.1.4-.2.4-.4.1-.5-.4-.5-.7-.7-.5-.2-1-.6-1.7-.4zM289 379.8c-.8 0-1.6-.1-1.8 1.1-.1.8-.6 1.1-1.5.9-.2 0-.4 0-.5.2-.1.2-.1.4.1.5 1.1.4 1.6 1.6 2.6 2.1.7.3 1.4.9 2 0 .5-.8 1.2-1.8-.2-2.6-1-.5-1.2-1.3-.7-2.2.5-.4.7.2 1.1.4.5.3 1.2.3 1.2-.5 0-1.1-1.1-1-1.8-1.4-.5-.2-1.1-.4-1.3.2-.3.7.7.8.8 1.3zm-62.4 222.9c.9 1 2.1 1.1 3.3.7.8-.2 1.5-.2 2.2.1 1.2.5 2.4.4 3.8-.2-1.1-.4-.9-1.8-1.9-1.9-2.6-.3-5.1-.1-7.4 1.3.1-.4-.1-.7-.4-1-1.9-1.9-1.9-2.2-.3-4.5.2-.2.3-.4.1-.7-.6-.8-1.4-1.1-2.3-.9-.9.2-2.2.6-2 1.6.2 1.4-.4 3.1 1.3 4.3 1.2.8 2.1 1.8 3.6 1.2zm122.9-88.4c.5.3 1 .3 1.5.3.3 0 .7-.2 1 .2.2.4-.1.9-.3 1-1.3.6-2 1.8-3 2.6-1.1.8-1.9 1.8-2.6 3-.1.2 0 .7-.3.5-1.2-.5-1.3.8-1.9 1.1-1.3.8-1.4 2.7-3.2 3.2-.7.2-.7 1.2-.6 1.9 0 .4.2.8.6.8.7 0 .7-.8 1.1-1.2.1-.1.2 0 .4-.1.1.4.1.9.3 1.3.2.6.8.7 1.1.2.4-.8.7-2 .6-2.7-.1-.8.1-.8.6-.8s1-.1 1.5-.1c.7 0 1.9-.5 1.9-.6-.3-1.6.8-1.3 1.7-1.4.8-.1 1.3-.1 1.5-1.1.2-.9.8-1.8 2-2.1 1-.2 2.1-.9 2.2-2.1.2-1.3.9-2.1 1.9-2.8 1-.7 1.1-2.1.9-3-.2-.7-1.4.3-2.2.3 0 0-.1 0-.1.1-.7.3-1.3.5-.9-.7.3-.9-.3-1.5-1-1.2-2 .7-4.2 1-4.7 3.4-.7.2-.7.3-.9-.5-.1-.6-.3-.8-.6-.1-.2.4-.4.6-.8.3-.2-.2-.7-.5-.5-.7.8-.7.3-1.1 0-1.7-.5-1.1.1-3 1.2-3.5.8-.4 1.1-1.1.9-1.7-.1-.7-.9-.8-1.6-.9-1.7-.1-3.5.7-5-.8-.4-.4-1.1.2-1.3.7-.3.5.2.8.6.9 1.2.3 2.3 1.1 3.5 1.5.5.2 1.2.1 1.2.7s-.2 1.2-.8 1.5c-1.1.7-2.2 1.4-3.2 2.1-.9.6-1.2 1.1-.4 2.2.7 1.1 2.2 1.1 2.6 2.6.3 1.1.7 2.2.8 3.8 1.3-2.5 1.9-4.9 4.5-5.8.2-.1-.1-.4-.2-.6zM311.1 437v-.6c.6-1.6.9-3.2 1.1-4.9.2-1.3.1-2.7 2.1-2.7.6 0 .4-.7 0-.9-1.6-.8-3.3-1-5-.8-.8.1-1.5.9-1.3 1.5.3 1-.3 1.7-.5 2.6l-.9 3.3c-.5 2-.8 3.9-1.9 6.2 0 0 .1.1.1.2.4 1.4-.1 2.8-.5 3.9-.7 1.9-.9 4-1.4 5.9-.7 2.7-1 5.4-2.7 7.7-.2.2-.2.5 0 .7 1 .8.8 2 .6 2.8-.4 1.2-.5 2.6-1 3.8-.6 1.5.2 2.4 1.8 2.5 1.3 0 2.6-.3 4 0 .5.1 1.2-.2 1.5-1.1.5-1.1.6-2.2.8-3.3.5-2.6 1.4-5.1 1.9-7.7.5-2.8 1.3-5.4 2-8.1.5-1.9.8-3.8 1.4-5.7.3-1.1-.1-2.4 2-2-1.4-1-1.2-1-.8-3.8.2-1.5 1.3-.4 1.8-.9-1.5-.7-1.7-1.3-1-3.2.3-.7.9-1.7.5-2-.8-.7-1.4.5-2.1.8 1 .5 1 .5.5 1.3-.2.3-.5.6-.4.8.5 1.4-.6 2.3-1 3.5-.4.4-.9.4-1.6.2zm-12.8-120.1c-1.1.3-2.2-.3-1.9-.9.7-1.3-.3-2.7.7-3.9.8-1-.3-2.4.5-3.4-1.6-.7-.4-1.5-.2-2.4.6-1.9 1.3-3.9-.3-5.7-.2-.2.1-.5.1-.7.3-1.7.7-3.3.7-5 0-1.9-.1-3.7-.3-5.6-.3-2.2.3-4.6.1-6.9-.2-2.9-.4-5.9-1.1-8.8-.4-1.6-.4-3.6-2-4.8-.2-.2-.2-.4-.2-.7-.2-4.1-.4-4.7-3-7.6-.7-.7-1.6-1.4-2.7-1.4-1 0-2 .5-2.8 1-.5.3 0 1.5.3 2.2-.8.4-1.5.1-2-.4-2.7-2-6.1-1.9-9.2-2.8-1.3-.4-1.9-1.2-2.5-2-.6-.9.8-.8 1-1.4 0-.2.3-.3.4-.5.2-.4.8-.8.4-1.4-.4-.4-.8-.6-1.4-.6-2-.2-4 .1-5.9.3-2.1.2-3.4 1.7-4.9 2.8-.3.2-.5.6-.3 1 .3.4.7.3 1.1.1 1.5-.6 3.1-1 4.8-1 .7 0 1.5-1.1 1.8-.3.2.7-1.2.9-1.8 1.2-.1 0-.2 0-.3.1-.7.1-.7.6-.6 1.2.2.8.8.9 1.4.9 1.6 0 3.3 0 4.9.1.4 0 1.1 0 1 .6-.1.5-.7.4-1.1.3-.7-.1-1.4 0-2.1.1-1.9.2-3.1 1.8-4.9 2.1-2.3.4-4.2 1.4-5.6 3.3-.3.4-.7.3-1.1.4-.7.2-1.4.4-1.9 1-1.2 1.5-.5 3.8-2.3 5 0 0 .1.3.2.4.4.5.1 1-.1 1.5-1.2 2.7-2.9 5.1-5.1 6.9-1.5 1.2-2.3 2.9-3.7 4-.9.8-.9 2.1-1.8 2.8-.7.6-1.4 1.1-1.1 2.2.1.4-.2.7-.5.9-.5.3-.6.7-.2 1.1.5.5.8-.1 1-.3.8-.7 1.9-1 2.2-2.3.2-1 1.7-1.1 2.2-2 1.1-1.8 2.8-3.1 3.5-5.1.2-.5.6-.9 1.1-1.2 1.3-.9 1.9-2.3 3-3.3s1.3-2.5 2.5-3.3c.4-.3.9-.8 1.3-.4s-.1.8-.5 1.1c-.3.2-.1.6-.3.8-.5.8-.3 2.3-1.9 2.2-.4 0-.5.3-.3.7 1 2.2-.6 3.7-1.8 5-1.4 1.4-1.8 3.8-4.2 4.2-.1 0-.1.4-.3.5-.7.7-1.6 1.9-2.2 1.8-1.2-.1-1.5.5-1.9 1.3-.3.6-.6 1.2-1.4 1.3-.2 0-.6.1-.5.4.1.3.3.4.6.4 1.2-.1 1.7.9 2 1.6.3.5-.8 1-1.4 1.3-.3.2-.6.6-.9.8-1 .6-1.5 1.8-2.6 2.3-1.6.6-2.7 2-3.8 3.1-2.7 2.6-2.9 6.4-5 9.4-.8 1.2-1 2.8-1.6 4.2-.5 1.3-.6 2.3-.2 3.6.3 1.1.2 2.3-.3 3.5-.3.6-.6 1.1-.6 1.7-.1 1.4.5 1.9 1.9 1.5.7-.2 1.4-.5 2.1-.6.6-.2 1.3 0 1.6.6.3.6-.4.8-.8 1.1-.4.2-.8.5-1.1.7-1 .7-2 1.4-2.9 2.1-.7.6.8 1.1.5 1.7-.7 1.6.3 2.1 1.4 2.6.3.2.7.4.8.7.8 3.1 3.8 3 5.9 4.2 1.4.8 2.9.5 4.5.4 2.1-.1 4.2.1 6.3.2 1.3 0 2.7 0 3.8 1 .8.7.8.7 1.1-.3 0-.1.2-.3.3-.3.5 0 1.2-.4 1.6.1.5.6-.3.8-.5 1.2-.3.5-.9.7-1.4.9-1.9.6-3.8.8-5.7 1-1.5.1-3 .3-4.2 1.6-.7.7-1.8 1.4-2.6.3-2.3-2.8-5.8-2.3-8.4-1.2-.3.1-.5.4-.4.7.6 1.6.9 3.3 2.9 3.9 1.3.4 2.7.7 3.9 1.4 2.4 1.4 4.4-.6 6.6-.8.5-1.5 2.1-1.2 3.2-1.6.5-.2 1.3-.5 1.4.2.1.6-.3 1.2-1.1 1.4-1.3.3-2.4.7-3.3 2-1 1.5-2.3 3-4.4 3.3-.3 0-.5.3-.3.7.2.5.3 1 .3 1.5-.1.7.9.8.9.7 1-.9 2.2-.4 3.2-.5.4-.1.8-.2.8-.8 0-.4-.2-1.1.5-1 .7.1.3.7.4 1.1.1.5.2.9.8 1 1.3.3 3.8-1.2 4-2.6.1-.8.4-1.4 1.1-1.7.7-.3 1-.4.9-1.2-.1-.7.5-1 1.2-.8.8.2.2.8.1 1.1-.8 2.4-1.8 4.6-4.2 5.9-1 .6-1.8 1.5-2.6 2.3-1.3 1.5-1.3 1.9.2 3.2 1.3 1.2 4.2 1.1 4.9-.2 1.3-2.3 2.6-2.8 5.1-1.9.4.1.8.2 1.2 0 .2-.1.5-.2.7.1.2.2 0 .5-.1.7-.6 1-1.6 1-2.5 1.2-.9.3-2 .5-2.2 1.4-.4 1.8-1.1 3.5-1.6 5.3-.2.7-.1 1.8.8 2.5.8.6 1.4 0 2.1-.3 1-.5 1.8-1.3 2.7-2 .2-.2.5-.4.8-.2.3.2.4.5.3.8-.5 1.7.8 1.9 1.8 2.4.4.2 1 .2 1.5.3.4.1.8.2.8.7 0 .5.2 1-.3 1.2-1.3.6-1.7 2.2-3.1 2.7-.4.2-.4 2.7-.1 2.8.8.4 2.7-.8 2.7-1.7 0-.4-.1-.8-.1-1.2 0-.4-.1-.9.4-1 .6-.1.6.4.6.9.1.8.2 1.6.3 2.3.7-.1.8-.5.8-.8.1-1.3.5-1.9 1.9-1.5.7.2 1.4-.1 2.1-.3 3.3-1 6.2-3.1 9.9-2.9 1.2 0 1.3-.7.8-1.7-.4-.8-.9-1.5-1.2-2.3-.9-2.8-2.1-5.5-4.6-7.3-.2-.2-.5-.4-.6-.7-.7-1.8-1.6-3.4-2.9-4.8-.5-.6-1.2-1.5.5-2-1.2-.1-1.8-.4-2.2-1.5-.4-1-.3-2.3-1.3-3.2-.6-.5-.9-1.5-1.7-1.6-1.1-.1-1.8-.7-2.4-1.5-.5-.6-.7-.6-1.2-.2-.8.6-1.3.4-1.8-.5-.8-1.2.2-2.1.2-3.2 0-.3-.2-.8.4-.9.5-.1.9 0 1.3.3l.6.9c.4.5 1 .4 1.6.2.6-.2.3-.8.2-1.2-.4-1.8-2.3-3.5-4.2-3.6-.5 0-.8 0-.8-.7 0-1.5-.9-2-2.3-1.5-.3.1-.5.2-.6-.1-.4-1.7-1.5-1-2.4-.8-1.3.3-2.4-.1-3.7-.2.9-.4 1.2-.9 1.1-1.9-.2-1 .3-1.7 1.4-2.1 1.2-.4 2.3-1 3.6-1.5-.9-1.1-1.2-2.5-2.6-3.2-.5-.2-.4-.8-.1-1.4.4-.6.1-1.1-.4-1.5-1.7-1-3.5-1.3-5.3-.2-1.7 1.1-3.7 1.5-5.6 2-1.1.2-2.3-.2-2.7-1.2-.4-.8 0-1.9.7-2.6 2-2 4.3-3.4 7.2-4.1 1.9-.4 3.9-.7 5.7-1.5-.8-.6-1.5-.4-2.3-.4-2.1-.1-4.3.2-6.4-.5-.5-.2-.8-.5-.9-.9-.1-.6.5-.5.8-.7.4-.3 1.1-.4 1.3-.8.9-1.8 2.7-1.8 4.2-2.2 1.7-.4 2.4.1 3.5 1.9.1.1.3.1.4.1 1.4.1 2.7.8 4.1 1.2.7.2 1.3.5 1.7 1.3.4.7 1.6.5 2.4.3.9-.3.7-.9.5-1.5-.5-1.2-1-2.1-2.6-1.8-1.6.3-1.6-1.3-2.3-2.1-.3-.3-.3-.7.1-.9.8-.6 1.5-.1 2.3.2 1.5.5 2.6 1.7 4.3 1.8.9 0 2.5.9 1.8 2.7-.2.4 0 1 .7.9 1.3-.4 2.8-.7 3.4-2.1.8-1.7 1.4-3.4 2.7-4.9 1.4-1.7 2.5-3.8 3.9-5.6.4-.5.9-.9 1.1-1.7.4-1.4.1-2.8.4-4.1.2-.6 1.6-3 2-3.4 1.1-1.1 2.8-1.8 2.8-3.7 0-.5 0-.9.2-1.4 1.2-2.4 2.6-4.8 2.8-7.6.1-.7.3-1.1 1.1-1.3.5-.1 1-.2 1-.9 0-1.1-1-1.2-1.6-1.7-.4-.3-.8-.1-1.2.3-.6.5-.5 1.1-.8 1.7-.2.5-.7.9-.9 1.5-.4 1.4-.8 3.2-1.6 4.2-2.2 3-3.4 6.5-5.5 9.5-.9 1.2-2.2 2.4-1.8 4.3.1.4-.5.7-.9.7-1.8 0-2 1.4-1.6 2.4.5 1.2-.1 1.6-.7 2.1-.9.7-1.5 1.6-2.1 2.6-.5.8-1.7.9-2.1 2-.4 1.1-1.5 1.2-2.5.5-1.3-.9-2.4-2-4-2.4-.6-.1-1.5-.2-1.9-.6-2.1-2.4-4.5-1.5-6.9-.9-1.6.4-3.3.6-5 .5-1.2-.1-1.4-.8-1.2-1.8.2-1.1.7-1.9 1.9-2.5.8-.4 1.6-.9 2.1-1.7.9-1.7 2.1-3.1 4.1-3.7 1.1-.4 2.3-.1 3.4-.7.3-.2.6-.4 1-.1.3.4 0 .7-.1 1-.5 1.2-1.4 2.2-1.6 3.6-.1.5-.3.9.3 1.2.5.3 1.3.3 1.4 0 .6-1.4 1.8-.9 2.7-.9.3 0 .8-.6.6-.9-.2-.3 0-.5.2-.7.3-.5.4-.9-.2-1.2-.3-.2-.4-.5-.1-.6.8-.4 1.6-.7 2.4-.9.5-.1.5.3.3.7-.4.8-.2 1.5.2 2.3.2.6.5 1.1 1.1 1.1.8 0 .7-.7.7-1.3.1-1 .5-1.5 1.5-.9.8.4 1.7.7 2.2-.1.6-.9.8-2.3-.2-3-1.8-1.3 0-1.5.5-2.1.2-.3.8.1 1.1-.4-.6-.8-.6-.8 0-1.3 2.4-1.8 3.9-3.9 3.6-7.1-.1-1.3 1-1.9 2.1-1.3.9.5 2.9-.2 3-1.1.1-1.3 1.2-1.8 1.8-2.7 1-1.3 1.8-2.8 1.6-4.6-.3-2.2-.9-4.2-2.6-5.7-.4-.4-.4-.8 0-1.2.5-.4.8.1 1 .4.2.2.3.5.4.8.7 1.2 1.3 2.5 2.4 3.4.3.3.6.4.9.3.4-.2.3-.5.3-.8.2-1.3-.3-2.4-.9-3.4-.2-.4-.4-.7-.5-1.1 0-.3 0-.5.3-.6.3-.1.5.1.5.4.1.9.7.9 1.3.9 1.3 0 2.1 1 2.3 2 .5 2.2.6 4.5.4 6.7-.1 1.9-.6 3.8.6 5.5.4.6.4 1.4.2 2.2-.7-.6 0-1.5-.7-1.9-.5-.3-1-.3-1.5-.1-.8.2-.9.9-.9 1.6 0 2.1.5 4.1-.1 6.2-.2.5-.4 1.2-.1 1.8.7 1.1-.6 1.7-.7 2.4-.1.7.8 1.6.1 2.3-.8.8-.3 1.5-.2 2.3.2.8.8 1.2 1.6 1 .9-.2.7-.8.6-1.4-.1-.5-.1-1.1.2-1.6.1-.2.4-.2.5 0 .4.5.6 1.1.4 1.7-.1.2-.2.4-.2.6.3 1.7-1.5 3.1-.9 4.9.1.2 0 .5-.1.6-1.3.5-.6 1.3-.2 1.9.6 1 .8 2 0 3-.3.4-.3.9-.1 1.3.3.4.1.7 0 1.2-.5 1.8-2.5 2.8-2.7 4.6-.1 1.4-1.7 2.8 0 4.2.4.3 0 .5-.2.8-.5.8-1 1.7-1.8 2.3-.6.5-.9 1.3-.5 1.7.5.6.9-.2 1.4-.5 1.6-1 2.6-2.8 4.7-3.2.7-.1 1.5-.1 2.4-.5-.5-.2-.9-.2-1-.4-.2-.4.3-.6.6-.7 1-.5 1.8-1.6 1.9-2.2-.1-1.4.5-2 2-2.1zm-43.9 138.4c-1.5.1-1.6-.5-.9-1.3.6-.7.5-1.7.2-2.1-.5-.7-.2-1.3-.3-2-.3-2.3 1-4.6-.1-6.9-.5-1-.9-2.5-1.6-3-2.1-1.6-4.5-3.1-7-3.6-3.4-.7-4.4-3-5.4-5.7-.3-.9-.6-1.7-1.6-1.9-1.1-.2-1.6.6-2.1 1.2-1.7 2.4-3.5 4.7-6.1 6.2-.5.3-.6.8-.7 1.3-.7 2.6-1.5 5.2-4.3 6.4-1 .4-1.2 1-.7 2.1.8 2 1.4 4 2.2 6.4-1.2-.9-1.6-.4-1.8.4.5.2.9-.1 1.4-.2.4-.1.8 0 .8.5 0 1 1 1.6 1 2.5 0 1.2 1.9 1.9.9 3.3 1.8 1 2 2.8 2.6 4.5.8 2.4 2.9 4.3 3.4 6.9.1.4.4.5.6.8 1.3 1.6 2.6 3.1 3.6 4.9 1.1 2 2.5 3.6 3.9 5.3.8.9 1.9 1.5 2.8 2.2.8.7 1.5.5 2.4.2.9-.4 1.2-1.4 2-1.8 1.3-.9 1.8-2 1.6-3.6-.3-2 0-3.9 1.1-5.7.1-.2.3-.3.2-.5-.4-1.7.4-3.3.4-4.9 0-.8.6-1.1 1.1-1.6.6-.7-1-.6-.9-1.6.2-1.9-.3-3.9-.2-5.8-.1-.8-.1-2.2 1.5-2.9zm14.9 59.6c-1.8-.5-3.9-1.8-5-3-.3-.3-.5-.6-.5-1.1 0-1.3-.7-1.6-1.9-1.4-.9.1-1.7.2-2.2 1.1-.3.5-.8.6-1.2.2-.5-.4 0-.7.3-1 .4-.3.4-.7.2-1.1-.3-.4-.7-.4-1.1-.2-.8.4-1.6.7-1.9 1.7-.2.8-.7 1.1-1.5 1-.5-.1-1 0-1.5.2-1 .5-1.6.2-1.8-.8-.2-.8-.6-1.1-1.3-1.3-.8-.2-1.7-.5-2.5-.8-2-.7-3.6 0-5.2 1.3-.8.6-.7 1.4-1.3 2.1-1.1 1.3-2.5 2.4-3 4.2-.5 1.7-.7 3.3 0 5 .9 2.4 2.3 4.4 4.7 5.4.4.2.9.3.8.8-.1.5-.8.5-1 .3-1.3-1.2-3.1-.6-4.5-1.4-.4-.2-.8-.1-1.1.3-.3.4.2.5.3.7.7 1 1.4 1.9 2.1 2.9.3.4.8.9 1.3.7 1.2-.5 2.1.2 3.2.2 1.5 0 1.9.9 1.6 1.9-.5 1.7.6 1.3 1.3 1.2 1.4-.3 1.6.4 1.6 1.5 0 .5-.2.8-.5 1.1-.2.3-.8.5-.3 1 .4.4.8.6 1.3.2.3-.2.4-.6.9-.6.2 0 .4.1.5.2l-.1.4c-1.3 0-1.2 1.4-1.9 1.9-1.4 1-4.7.7-6.2-.7-.9-.9-1.9-1.8-3.3-.9-.3.2-.7.1-.8-.2-.4-.7-1.1-1.1-1.7-1.6-.2-.2-.5-.5-.3-.6 1.1-.9 0-.6-.4-.7-.2-.1-.4-.3-.6-.5-.6-.8-1.4-.9-2.2-.6-.4.2-.9.4-.7 1.2.2.9 0 1.8 1.3 2.1 1.1.2 2.5 2.8 2.6 3.8 0 1.1.4 2 1.7 2.4 1.6.5 3 1.5 4.7.8.1 0 .3.1.4.2 2.2 1.3 4.5 1.3 6.9.8.8-.2 1.6-.2 2.4-.3.5-.1.9 0 1 .5.5 2.1 1.9 2.8 4 2.6.8-.1 1.5-.1 1.5 1.1 0 .6.4.7 1.1.4 1-.5 1.8-1.4 2.7-1.8 1.3-.5 1.9-1.3 2.4-2.3.8-1.5.6-1.5-1-1.5-1.9 0-3.8.2-5.7.3-.2 0-.5 0-.7-.2-.1-.2 0-.4.2-.5 1.7-1.6 3.5-3.1 5.8-2.8 2.3.2 3.4-1.6 5.3-2.1-1.4-.6-2.8-.8-3.9-1.8-1.4-1.2-1.5-1.9-.2-3.2.2-.2.4-.6.6-.1.2.5.4.3.7 0 .4-.6 1.2-.6 1.7-.9 1.6-.9 3.2-.9 5-.8-.1-.6-1-.7-.5-1.4.7-1.1.4-1.5-.8-1.5-.7 0-1.1 0-1.6-.6-1-1.3-.9-2.6-.2-3.8.7-1.2 1.8-1.5 3.1-1.5 2.7.1 3.2-.3 3.6-2.9.1-.4.1-.9.6-.9.4 0 .5.4.7.7.2.5-.1 1.4.8 1.1.6-.2 1.6-.3 1.2-1.5-.2-.5 0-1 .6-1.5.8-.6.7-2.4-.3-2.6-2.7-.7-5.3-1.8-8.1-1.9-1.2 0-1.9 1-1.2 1.9.9 1.3 1.3 2.8 2.7 3.7.3.2.8.4.4.8-.3.3-.6.2-.9-.1-.6-.7-1.4-1.2-2.2-1.6-1.2-.8-1.7-2.5-1-3.3zm47.3-201.7c-.6-1.7-.1-3.4-.2-5.1-.1-1.4-.2-2.8.9-3.9.3-.3.3-.8.1-1.2-.3-.4-.7-.4-1.1-.4-1.6 0-2.4 1.3-3.2 2.3-.6.8-1.6 1.7-1.5 2.7.1 1.5-.9 2.9-.6 4.3.2 1.3-1.2 2.3-.4 3.6.1.1-.3.6-.6.6-1.3-.3-1.5.8-2 1.5-.2.3-.4.7-.8.8-1.5.6-1.7 1.3-1.1 2.8.3.6 1.3 1.3-.2 1.8-.4.1 0 .4.3.4.3.1.6.2.3.5-1.1.9-.7 2.1-.8 3.2-.1 2.7-.6 5.3-.8 7.9-.1 1.3 1.7 4 2.9 4.3.8.2 1.4-.2 1.2-1.1-.5-2.8.5-5.5.3-8.3 0-.5 0-1.1.5-1.1s.8.6.8 1.1c-.2 1.5-.3 3.1-.8 4.5-.4 1.3-.2 2.5.4 3.6.5.9 1.5 1.5 2.3.4.9-1.2 1.3-.7 1.9.2.1.2.4.3.6.4.5.5.8 1.1.3 1.9-1.3 1.8-1.1 2.9.9 4.1.9.5 1.6 1 1.7 2.1.1.9.4.7.9.2.9-.9 3-5.6 3.4-7 .6-2.6 1.1-5.3 1.5-7.9.1-.5.2-1.1-.3-1.4-.7-.3-1.1.2-1.2.8-.1.6-.9.9-.7 1.6.1.3-.2.5-.5.5-.4-.1-.1-.4-.2-.6-.5-1.2-.1-1.9 1.1-2.4-.7-.5-1.4 0-1.9-.3.6-2.1.7-2.1 1.9-3.5.1-.1.1-.4.1-.5-.3-.6.2-.8.6-1 .9-.5 1.6-1.3 2.3-2 .3-.3.5-1.1 1-.6.4.3.4.9-.1 1.5-1.1 1.5-.2 3.8 1.3 4.1-.8 2-2.7 3.4-2.7 5.9 0 .7.2 1.3.3 1.9.3 1 1.1 2.2-.3 3.1-.1 0-.1.4-.1.4 1.4.6.2 1.1-.1 1.7-.4 1-.6 1.9-.4 3 .3 1.6 1.5 2 2.7 1 1.7-1.4 2.2-3.6 1.6-5.8-.3-.9-.4-1.9.4-2.8 1.3-1.5 2-3.2 1.9-5.3-.1-1.2-.2-2.5-.1-3.6.4-2.2.5-4.4.7-6.7.1-1.5.3-3 .5-4.5.2-1.3-.3-2.9 1-4l-.1-.2c-1.2-.6-.5-1.6-.4-2.5 0-1.2.6-2.4.2-3.6-.8-2.2-1.5-4.3-1.4-6.7 0-1.7.4-3.3.2-5-.4-2.3-1.5-4.4-1.6-6.7 0-.4-.1-1.5-1.1-1.6-.6-.1-1.2 0-1.5.4-.9 1.2-1.7 2.3-2.4 3.6-.5.9-.7 1.7.8 2 1.6.4 1.8.9 1.2 2.3-1-1.3-2.1-1.7-3.3-1.3-1.3.4-2.9 2.6-2.6 4.3.2 1.1-.2 1.3-1.1 1.5.9.5 1.2 1.2 1.3 2 0 .2-.3.5.3.6 2 .5 4.9-1.5 5.1-3.6.1-.9.2-1.9.4-2.8.3.8.2 1.6.3 2.4.1 1.6.4 3.3 0 4.9-.2.9-.5 1.4-1.3.4-.2-.3-.5-.7-1-.7-1.4 0-2.8.2-4 .9-.4.2-1.1.5-.9 1.3.3 1.9-.6 3.8.1 5.7.1.3.1.7-.4.6-2-.1-2.3 1-2.7 2.1zm-49.8 177.1c-.6-1-.7-1.9.2-2.6 2.1-1.6 4.8-1.9 7.1-3.1 1.2-.6 2.7-1 4.1-1.5.7-.2 1-.8.9-1.5-.1-.7-.7-.7-1.2-.6-2 .4-4.1-.3-6.1 0-1.1.2-1.3-.5-.9-1.1.8-1 1.9-1.7 2.9-2.6.4.7-.4 1.7.7 1.8 1 .1.9-.9 1.1-1.6.1-.5.2-1 .4-1.5.2-.8.7-.8 1.3-.3 1.2 1.1 1.4 1.1 2-.4.3-.9.5-1.7 1.5-2.1.7-.3 1-4 .5-4.5-.1-.1-.3-.3-.5-.3-1.3.1-2-.9-3.1-1.2-.2-.1-.5-.2-.5-.5 0-.4.3-.5.6-.5 1 0 1.1-.6 1.4-1.4.5-1.1-.3-2.6.7-3.3 2.2-1.7 2.6-4 3.1-6.4.3-1.9.1-2.5-1.7-3.3-.6-.3-1.4-.4-1.3-1.1.1-2-1-1.8-2.2-1.4-.4.1-.8-.1-1.2 0-1.3.2-2.8-.7-3.8.8-.2.2-.3.2-.5-.1-.9-1.2-1.7-.7-2.6 0-.6.5-.9 0-1.3-.3-.4-.2-.5-.7-.2-.9.9-.7.4-1.5.4-2.5-.8.8-1.7-.3-2.4.6-.7.9-1.8 1.3-2.8 1.8-2.6 1.3-4.8 2.9-5.7 5.9-.2.6-.7.9-1.4 1-.4.1-1.2-.3-1.1.6.1.8.8.9 1.4.7 1-.2 1.5.2 1.4 1 0 .7.5.8.8 1.3.3.6.7.9.5 1.8-.2.8-.4 2.4 1.3 2.8.3.1.9 1-.1 1.4-.1.1-.5 0-.4.2.9 1.6-.6 1.3-1.3 1.6-.7.3-1.2.7-1.6 1.5-.9 1.7-1.9 3.4-3 4.9-.4.5-.9.6-.3 1.3.4.5 0 1.4.7 1.8 1.8 1.1 1.9 1.4.9 3.1.5.5 1 .4 1.6 0 .4-.3.9-.4 1.2.1.2.4.5.9 0 1.4-.7.7-1.3 1.6-2.2 2-1.2.5-1.2 1.6-1.2 2.5-.1.8.5 1.9 1.4 1.8.9 0 1.9 0 2.8-.5.3-.2.9-.6 1.2-.1.2.4.5 1 .2 1.6-.3.4-.5.9-.9 1.2-.5.4-.5.9-.2 1.5s.8.5 1.3.4c1.4-.2 2.4-1.1 3.3-2 .3-.3.7-.7 1-.2.1 1.1.8.8 1.8 1zm42-289.7c.1.9.3 1.6 1.5 1.5.7 0 1.1.6 1 1.1-.1.5-.3 1.1-1.2 1.3-2.9.5-5.4 2.3-8.3 2.9-.3.1-.7.3-.6.6.4 1.8-.9 1.7-2.1 2-.6.1-1.2.5-1.8.8-.9.5.3.9.1 1.5 0 .1.7.2.7 0 0-1.5 1.3-.8 1.9-1.2.2-.1.5-.1.7.1.2.3.2.6-.1.9-.2.2-.8.3-.5.8.3.4.7.3 1.1.3 1.2 0 2.4-.5 3.8-.2-.7.9-1.6.9-2.5 1-.8.1-2 .2-2 1 0 .9 1 .7 1.7.7.3 0 .7.1.7.4 0 .3-.3.6-.6.6-.6.1-1.2.1-1.8.1-.3 0-.7 0-.8.4-.1.4.2.6.6.8.6.4 1.1 0 1.7 0 1 0 2.4-.7 2.9 0 1.1 1.5 2.3 1.1 3.6.8 2.5-.5 5-1.3 7.5-1.9 1.3-.3 2.3-1.1 2.8-2.4.7-1.9 2.2-3.3 3.6-4.6 1.5-1.3.9-3.1 1.7-4.5.1-.1-.1-.4-.2-.6-1.1-1.8-2.1-2.1-4-1-.6.4-1 .5-1.5-.1s-1.2-.7-2-.5c-2.3.8-3.1.5-4.1-1.6-.3-.8-.4-1.3.8-1.5-.3-.1-.4-.2-.5-.3-.4-.2-.8-.4-.8-.8 0-.8.6-.3.9-.4.6-.2.6-.7.5-1.3-.5-1.8-.2-3.7-.9-5.5-.1-.4.1-.9.4-1.1.4-.2.6.3.8.5.5.6 1 1 1.4-.1.1-.3.5-.4.6-.7.7-1.4 2.8-1.1 3.2-2.8.1-.2.8-.2.8.1-.1.9.8 1.1.8 1.8 0 .5.1.8.6.6.5-.1.9-.4.7-1-1.3-2.7-1-6-2.8-8.6-.3-.5-.5-1.1-.1-1.7.8.4.2 1.5 1.2 1.7.8.1 1.6.4 1.9 1.4.1.4.5.4.8.3.4-.2.3-.7 0-.9-.8-.4-.6-1.2-1-1.8-.4-.6 0-1.4-.6-1.8-.7-.4-1-1-1.1-1.7-.1-.5-.4-.7-.8-.7-.5-.1-.9.1-1 .6-.2 1.2-.8 1.2-1.8.8-.5-.2-1.1-.2-1.7-.1-.8 0-1.4-.1-1.8-1-.5-1.1-1.6-1.5-2.7-1-1.7.7-3.6.8-4.8 2.4-.3.4-.9.5-1.4.5-2.1.1-4.1.4-5.9 1.3-.4.2-.7.1-1.1-.1-1.6-1-3.9-.9-5.3.2-.1.1-.3.3-.2.3.6 1.3-.3 2.4-.3 3.7 0 .6.1 1.2.5 1.5 1.2.8 1.4 1.1 1 2.5-.2.5-.3 1.6 0 1.6 1.9.1 2.6 1.3 3.2 2.9 1.8-.2 1.4 1 1.4 2.1 0 .9.7 1.5 1.4 1.9.3.2.7.3.8.6.3 1.2.8 1.1 1.8.5 1-.6 1.9 0 1.8 1.2-.1.9.4 1.6 1 2.2.3.3.6.3.6-.1 0-1.5 1.2-.9 1.8-.9.8 0 .6.9.6 1.5.3 3 .3 3 3 3.2-2-.7-1.1-2-1.2-3zm-36.6 199.8c.5 1.4.7 2.6 1.3 3.4.8 1 .9 2.1.7 3.1-.1 1.1.2 1.8 1.2 2 1 .2 2-.2 2.1-1.3.1-1 .7-.8 1.2-.8.7 0 .8.5.7 1.1 0 .3-.3.6 0 .9.9 1.3 3.7 1.3 4.3-.3.6-1.4 1.5-2.2 2.7-2.9.8-.5 1.2-1.2.6-2-.5-.6-.3-1.1 0-1.5.4-.6.6-1.3.6-2-.1-2.3 2.2-3.7 3.8-3.6.6.1.9.3 1.3.8.9 1.2 2.1 2.2 3.8 2.3.5 0 .8-.2 1-.6.2-.5 0-.9-.4-1-.7-.2-.9-.8-1.1-1.4-.7-1.4-1.9-2.1-3.4-2.2-.5 0-1.1-.1-1.2-.5-.1-1.1-1-1.3-1.7-1.5-2-.6-3.5-1.9-5-3.2-.4-.4-.9-1-.9-1.5 0-1.6-1.1-2-2.2-2.6-.5-.3-1-.4-.9-1.1.2-1.5-.7-1.2-1.7-1.1-1 .1-.5-1.7-1.7-1.5-.1 0-.2.1-.3.2-.5.7-1.4 1-1.5 1.9 0 .3 0 .6-.5.6-2.2-.2-4 .5-4.8 2.8 0 .1-.1.1-.2.2-1.6 1-1.6 2.9-2.1 4.4-.2.4 0 .9.5.9 1.1.1.9.7.7 1.4-.1.5-.3 1.1-.2 1.5.4 1.1 0 1.8-.7 2.6-.5.6-1.2 1.4-.6 2 1 1.2.6 1.9-.4 2.5-.3.2-.6.3-.5.7.1.4.4.4.7.4 1.5-.2 1.7.9 1.8 1.9.1.6-.1 1.2-.1 1.8 0 .7.3 1.2 1 1.4.5.1.9.7 1.4.3 1.2-.8 2-4 1.2-5.2-.6-.9-.6-1.9-.5-3.3zm38.7-27.5c.6 1.2.5 2.3 0 3.3-1.2 2.4-.1 5.2-1.3 7.5 0 .1 0 .2.1.3.9 2.2.6 4.4.3 6.7-.2 1-.7.9-1.4.7-.5-.2-.7-.7-1-1.1-.2-.2-.2-.6-.6-.5-.4.1-.6.3-.6.7.1.7-.3 1.1-.7 1.5-1.2.9-1.9 2.4-3.1 3.4-.4.3-.6.6-1.1.7-.6 0-1.6-.3-1.6.7 0 1.1-.1 2.6 1 3.2 1.5.8 3.3.9 5 .3 1.3-.4 1.7-1.2 1.3-2.5-.3-.9.9-2.1 2.2-2.1 1 0 1.2 1.1 1 1.9-.6 3-.5 3.5 3.3 3.2h.5c.8 0 1.4-.2 1.9-1.2 1.2-2.7 1.6-2.7 4-1.9.9.3.9.7.5 1.4-1 1.7-1 1.7 1 2 .3 0 .5.1.8.1 1.9 0 2.6-.8 2.5-2.6 0-.7-.4-1-.7-1.5-.3-.6-.9-1.3-.6-1.7.9-1 0-1.5-.3-2.3-.3-.6-.6-1.1-.6-1.7.1-1.9-.9-3.5-1.2-5.3.2-.2.8.3.9-.4-.3-.3-1.1.1-1-.6.1-.5.7-.3 1-.4.5-.1 1.3-.4.8-.9-.7-.8-.8-1.9-1.3-2.7-1.2-2-.8-3 1.4-3.4.2 0 .4-.1.4-.5-1.2.3-.9-.5-1-1.2-.1-.6.5-1.4-.2-1.7-1.5-.7-.9-1.9-.6-2.7.3-.9.3-1.8.7-2.7.4-.8.2-1.6-.9-1.9-.7-.1-1.3-.5-1.9-.9-.9-.6-2.1-.6-3 .2-.7.6-.9 1.4-.4 2.3.4.6.1 1.2-.1 1.8-.3.7-.8 1.5-.6 2.2.2 1.1-.5 1.7-.9 2.6-.5-.4-.3-.7-.2-1.1.1-.9-.1-1.8-.6-2.4-.3-.3-1.1-.9-1.2.1-.3 1.1-1 1.2-1.9 1.1zm17.4 25.2c1.3.7 1.9 1.1 2.4-.5.2-.8.4-2.3 1.4-2.3.8 0 .3 1.4.6 2.1.5 1.2.7 2.5-.6 3.4 1 1.1 2.2 1.3 3.4 1.4.6.1 1.1.3 1.4.8.3.7.7 1.8 1.6 1 .8-.8 1.7.3 2.4-.4.1-.1.2-.4.1-.5-.5-1.5.3-1.5 1.4-1.4 1.5.1 1.9-.3 1.6-1.8-.1-.2-.3-.5-.1-.7.8-1.7.1-3.4-.4-5-.6-1.8-1.2-2-2.9-1.1.2.2.6.3.6.5-.2 1.3-.4 2.6-.7 3.9-.1.4-.6.5-.9.2-.5-.7-1.3-.7-2-1-.5-.2-.8-.5-.6-1 .4-1-.1-1.9-.3-2.9-.4-1.8-.2-3.7-.3-5.5 0-.6.3-.8.7-.8.7 0 .6.4.4.9-.2.4-.1.6.1 1 .6 1.3 1 2.5.3 3.9-.2.5.2.9.6 1 .4.2 1 .3 1.2-.2.3-.9.3-1.8.4-2.7.2-1.8-.8-3.6.2-5.4.1-.2.1-.5-.1-.5-1.1-.5-1-1.5-1.2-2.3-.2-1.1-1-1.4-1.8-1.2-1.1.2-1.7.1-1.6-1.2 0-.3-.2-.7-.7-.7-.4 0-.8.3-.9.7-.1.4.3 1.2-.5 1.2-.7 0-.9-.6-1-1.2-.2-.6-.4-1.1-.5-1.7-.4-1.5-.2-3.1-1.1-4.4-.7-1.2.4-2.2.1-3.3-.1-.3.6.1.7-.3-1.1-.1-1.7-.8-2.1-1.7-.4-1-1-1.2-2-.9.7.5.7 1.1.4 1.7-1 1.8-.6 3.8-.8 5.7 0 .4-.1.8.4 1 .3.1.7.2.3.6-.2.2-.6.3-.8 0-.5-.5-1-.8-1.6-.2-.7.7.1 1.2.3 1.8.1.5.6.7 1.2.9 1 .3 1.1 1.6.2 2.1-1 .5-.8.9-.2 1.5 1 1.2.9 2-.5 2.8.8.7 1.3 1.5-.2 2.3 1.3.2 2.3.7 1.7 1.8-.6 1.2-.3 2.1 0 3.2.4 1.1.9 2.2 1.4 3.3.2.6.7 1.6-1.1 2.1zm-78.8 107.1c1.3.3 2.1 1.4 3.3 2 2.5 1.2 4.6 1.3 6.9-.2.3-.2.7-.3.8 0 .6 1.1 1.7 1 2.6 1.2 1.2.3 3.2-.4 3.7-1.5.7-1.4-.4-2-1.4-2.6-.3-.1-.4-.3-.4-.6.1-.4.4-.4.7-.4.4 0 .8.1 1.2.3 1.1.4 1.9.3 2.5-.7.2-.4.5-1 .9-.8 1.4.5 2.3-.5 3.4-.8.8-.2 1.3-.8.8-1.8s.2-1.1.9-1c.5.1 1.1.2 1.4.6.9 1.3 2 .9 3.2.5 1.1-.4 1.6-1.9.7-2.7-.6-.5-.8-1.2-1.3-1.7-.8-1-.1-1.2.6-1.4.3-.1.7 0 1.1-.1 1-.1 1.3-.6 1.3-1.6-.1-.8 0-1.6-1.2-1.5-.7 0-1.2-.2-1.5-1-.4-1.1-1.4-1.3-2.4-.9-1.4.5-2.5 1.6-3.4 2.7-.2.2-.3.4-.6.4-.2-.1-.3-.2-.3-.5.2-1.1-.5-1-1.2-.9-.7.1-1.3.3-1.9.6-1.9.9-4.1.9-5.9 2.4-1.3 1.1-3 1.1-4.7.7-2-.5-3.7.3-5.3 1.4-.5.4-.5.7-.3 1.1 1 1.7 2.1 3.2 4.4 2.6.5-.1 1-.1 1.5-.2s.9-.2.8.6c-.1.3.2.6.6.5.2-.1.5-.5.4-.5-.9-1.3.4-1.1.9-1.4 1.1-.6 2.4-.9 3.2-1.9.4-.5.9-.6 1.4 0 .4.5.6 1 0 1.6-.3.3-.6.5-.9.8-1 1-2.7 1.2-2.8 3 0 .2-.4.6-.6.7-2 .5-3.7 1.6-5.7 2.1-1.1.3-2.2.4-3.5 0-1.2-.6-2.2 1.6-3.9.9zm67.7-228.7c.4-.2.7-.5.3-.8-.9-.7-.7-1.7-.9-2.5-.2-1 .2-1.6 1.3-1.6.4 0 .8 0 1.2-.1 1.1-.2 1.4-1.1.6-1.9-2.4-2.4-3.7-5.7-6.4-7.9-1.1-.9-1.2-2.5-2.5-3.2-.5-.3-1.2-.6-1.3-1-.4-2.6-3.1-3.2-4.6-4.8-1.6-1.7-3.7-3.3-6.1-4.1-1.4-.5-2.6-1.4-4.1-1.6-.3-.1-.6-.3-1 0-.8.8-1.4 3.1-.8 4l1.2 2.1c.9 1.5 2.3 2.2 3.5 3.2 1.1.9 1.1 2.6 2.6 3.1.7.2.9 1 1.1 1.6 1.3 2.7 1.3 2.7 4.2 2.3.5-.1 1.1-.1 1.2.6.2 1.7 1.5 2.7 2.2 4.1.9 1.9 1.7 3.9 2.6 5.8.5 1.1 1 1.5 2.1 1.4 1.1 0 2.4-.6 3 1l.6.3zm21.3-.6c-.6.3-1.4-.8-1.9.3-.2.4.4 1.2-.3 1.3-.6.1-.6-.9-1.1-1.1-.4-.2-.2-.6-.3-.8-.2-.4-.7-.5-.9-.2-.3.6-1.3.1-1.3.9 0 .4.3 1.1.9.8.9-.4.7.1.7.6 0 1.5.9 2.2 2.1 1.5.8-.4 1-.1 1.1.6.1.6.3 1.3.1 1.8-.4 1.7-.8 3.3-.5 5.1.1.6 1 1.5-.1 2.2.4.2.3.9.9.9.3 0 .8-.2.7-.4-.3-1 .7-1.2.9-1.9.2-.7 1-1.5-.5-1.6-.5-.1-.6-.5-.4-.8.3-.6.1-1.1.1-1.6 0-.3-.1-.8.4-.9.4-.1.7.1.9.4.6.7.1 1.2-.4 1.7.5.2 1.1-.2 1.1.3-.1 1.2 1.3 1.9 1.1 3.1-.1.5.1 1 .2 1.5.5 2.4 1.5 4.7.2 7.2-.7 1.4.6 2.6 1.7 3.4 1.2 1 2.4.1 3-.8.5-.7 2-.6 1.8-1.8-.1-.8.3-1 .8-1.3.8-.5 1.7-1 2.5-1.4.5-.3 1-.8.9-1.3-.5-1.9-.4-4-1.6-5.6-1.3-1.9-2.4-3.8-3.6-5.7-1.8-2.9-4.3-5.1-6.4-7.6-.3-.4-.9-.6-1.2-1-1.3-2.4-3.4-4-5.3-5.9-.3-.3-.8-.6-1.2-.2-.4.3-.3.8-.1 1.1.7 1.2.7 2.7 1.8 3.7.6.5.2 1 0 1.5 1.6-.7 2.6 0 3.2 2zm-98.3 108.6c.7.8.4 1.2-.3 1.9-.9.8-2 1.6-2.4 2.9-.3.9-1.3 1.3-2.1 1.6-.6.2-.9-.5-1-.7-.2-1.1.4-2.1.9-2.8 1.2-1.6 2.3-3.4 3.4-5.1 1.5-2 3-4 4.4-6.1.5-.8 1.2-1.4 1.2-2.4 0-.4.7-.8.2-1.2-.5-.4-1-.5-1.6-.3-.9.4-1.8.8-2.2 1.8-.1.4-.4.8-.7 1-1.8 1.4-2.7 3.5-4.2 5.2-.5.6-1.7.8-1.1 2 0 .1-.2.3-.4.4-1.2.6-1.7 1.7-2.3 2.7-.5.9-1.3 1.4-2.1 1-.8-.4-.8-1.3-.3-2.2 1-1.7 1.8-3.5 3-5.2 1.5-2.2 3.3-4 4.7-6.2 1.3-2 2.9-3.8 3.7-6.1.2-.5.1-.8-.2-1.1-.4-.4-.9-.3-1.3-.1-.7.5-1.4 1-2 1.9-1.3 2-2.8 3.8-4.3 5.7-.5.7-1.7.9-1.2 2.1.1.3-.3.5-.6.6-1 .2-1.5 1-1.7 1.8-.3 1-1.1 1.7-1.7 2.5-.7.9-1.3 1.2-2.3.5-.9-.7-1.4-.3-1.3.7.3 2.5.9 4.9 3.2 6.4.5.3.9.5.8 1.1-.2.9-.3.9.8.9.3 0 .6.2.8.4 1.4 1 3 1.8 4.4 2.8 2.2 1.5 5.1 2.1 8 1.7.7-.1 1.2-.4 1.4-1.4.1-.8.4-1.8 1.9-1.5-1.3-1.3-1.6-1.3-2.5-.6-.6.4.3.7-.2 1.2-.8.7-1.6.9-2.5.5-.7-.3-.7-2-.1-2.8 1-1.3 2-2.6 3.1-3.8 1.2-1.4 2.2-2.9 2.8-4.6.5-1.2 1.7-2.1 1.3-3.6-.2-.5-.3-.9-.9-.5-2 1.4-3.3 3.4-4.7 5.3-.5 1-.8 1.6-1.8 1.7zm61.7-157.1c-.1-1 0-1.9-.8-2.1-1-.2-1 .9-1.2 1.5-.3 1-.9 1.2-1.7.9-.5-.2-.9-.2-1.3 0-1.2.5-2.5-.8-3.7.1 0 0-.2-.2-.2-.3-.1-1-.9-1-1.3-.5-.5.7-1.5 1.6-.8 2.4.9 1 2.1 1.7 3 2.6 1.1 1.1 2.5 1.6 3.8 2.2 2.2 1.1 3.9 3.1 6.3 3.8 1.6.4 2.5 1.8 4.1 2.3.9.3 2.1 0 2.4 1.4.1.4 1.2.2 1.3-.3.1-.7.6-1.4.4-2.2-.4-1.7-.9-3.3-.9-5 0-1-.3-1.7-1.6-1-.8.5-1.3-.2-1.3-.9 0-.2.4-.5.7-.7.6-.4.6-.9.2-1.4-.4-.6-.6 0-.9.1-.8.4-.8-.3-.6-.7.7-1.7-.6-1.7-1.5-1.7-1.5.1-2-.2-1.3-1.7.3-.7-.1-1.3-.8-1.6-.9-.4-.9.5-1.2.8-.4.6-.7 1.2-1.1 2zm-24 24.6c1.2 1 1.2 1.4.1 2.8-.5.6-1.6 1.1-1.4 1.8.2.9 1.5.7 2.3.9 1.7.4 3.1 1.6 4.9 1.6.7 0 1.6.1 2-.8 1.3-3.2 3.9-5.7 5.7-8.6.7-1.2 2.1-2.3 1.6-3.8-.6-1.6-2.3-2.6-4-2.8-1.8-.2-3.5.2-4.4 2.1 1 .6 1.7-.6 2.7-.2-1.2 0-1.7 1.9-3.4 1 1 .7 1 1.1.2 1.8-.9.7-1.7 1.5-2.6 2.3-1.2.8-1.3 3.5-3.7 1.9zm36.9 100.3c-1.4-.2-2.4-.8-2.9-2.1-.2-.5-4-.2-4.3.2-.1.1-.1.2-.1.3.1 3-2.8 5.1-2.5 8.2 0 .1 0 .3-.1.3-1.1.3-1.5.9-1.4 2.1.1 1.1-.4 2.1-.4 3.2 0 .9.3 1.9-.4 2.8-.8 1.1.6 1.3.9 2 .2.6.9.2 1.2 0 .7-.5.3-1-.1-1.6-.3-.4-.4-1 .3-1.3.7-.4 1.7-1.6 2.2-1 1.4 1.6 2.7.6 4.1.3.2 0 .6-.1.4-.3-.6-.8.4-1.4.3-1.7-.6-1.1 1.2-1.4.7-2.1-.9-1.2-.1-2.3.4-2.9.9-1 2.4-1.5.7-3 .9-1.3 0-2.1-1-2.8.5-.6 1.2-.8 2-.6zm.5-94.5c-.7-.3-1.7.1-2-1-.1-.4-.5-.9-1-.6-.8.5.1.7.2 1 1.1 1.9 2.6 3.4 4.2 4.9.2.2.6.4.9.5.3.1.8 0 .9-.4.2-.3-.2-.5-.4-.7-.8-.7-1.1-1.7-1.7-2.6.7 0 1 .4 1.3.7.4.6.9 1 1.5.6.7-.4.8-1 .4-1.7-.3-.5-.4-1.1.4-1.4.8-.3.8-.3.3-1-.1-.1-.1-.3-.1-.4.5-1.1-.2-1.8-.7-2.8-1.6-2.7-3.8-4.6-6.5-6-1-.5-1.8-.9-1.9-2.1-.1-1.1-1.1-1.3-1.8-1.2-.8.1-1.3.9-1.2 1.7.1.9.3 1.9 1.4 2.1.3.1.6.3.5.7-.1.4-.4.1-.6.1-2.4.2-4.3-.7-5.8-2.5-.5-.6-1.3-.7-1.9-1-.2-.1-.4 0-.5.2-.1.2 0 .5.2.5 1 .2 1.4 1.3 2.2 1.6 2.5 1 4.1 3.2 6.2 4.7 1 .7 1.4 2.2 2.4 2.7 1.4 1 2 2.3 3.1 3.4zm-1.9 157.7c-.3-.6-.6-.5-1-.6-.8-.1-1.6-.1-2.4-.3-.4-.1-1.1-.3-1.1-.9 0-.5.6-.6 1.1-.6 3 .1 6.1.1 9.1.2.9 0 1.5.9 1.1 1.4-.8.8-.6 1.7-1 2.5-.3.5-.4 1-1 .9-2.2-.1-4.4.2-6.6-.5-1.1-.3-2.4-.3-3.6-.3-1 0-.7.8-.8 1.4 0 .2-.1.4-.2.6 0 0 .2 0 .2.1 2 .9 2.5 2.5 1.6 4.5-.3.8-.5 2 .6 2.1 2.4.2 4.9.7 7.4.5.5 0 1.2-.2 1.2-.8.2-2.1 1.9-3.8 2-5.9.1-2.6 1.3-4.4 2.9-6.2 1-1.1 1-1.4-.5-1.6-4-.6-8.1-.4-12.1-.2-1 0-2.1.8-2.8 1.7-.4.5-.5 1 .4 1.5 1.6 1.1 3.4.8 5.5.5zm31 197c.4 1.9 1.7 2.4 3.1 2.8 1.6.4 2.8 2 4.7 1.7 2.4-.3 4.6-.7 6.4-2.7 1-1.1 2.8-1.7 2-3.8-2.9 2-6.1 3-9.6 3.3-.7 0-1.5.3-1.7-.4-.2-.8.8-1 1.4-1.4.4-.2.7-.2 1.1.1.3.2.8.4.9-.3.1-.6.6-.6 1-.8 2-1.3 4.4-2.1 5.9-4.2.2-.3.7-.4.5-.9-.2-.4-.5-.5-.9-.5-1.6.1-3.5-.1-4.7 1.1-1.7 1.6-3.8 2.3-5.7 3.4-.9.5-2.1 1-2.6 1.9-.4 1.1-.9 1.4-1.8.7zm12.8-37.6c.5.4 1.5-.2 1.3.9-.1 1-.3 2-.3 3-.1 1.9-.8 3.8-.3 5.9.4 1.4-.2 3.1-.3 4.6-.1 1.4 0 2.9-1.1 4-.1.1 0 .3.1.4 1.1 1 .2 1.8-.4 2.3-1 .9-1.2 2-1.5 3.2-.1.5-.5 1.2.1 1.5.6.3 1.3-.3 1.7-.8.3-.4.2-.9.9-1.1.9-.2 1.8-.6 1.7-1.9 0-.3.3-1.1.9-1.2.7-.1.3-.4.4-.8.2-1.6 0-3.1.1-4.7.2-1.8.3-3.6.4-5.4.2-2.7-.1-5.5-.3-8.2-.1-1.2-.1-2.4.3-3.6.2-.5.3-1.3-.5-1.6-.7-.2-.9.5-1.2 1-.2.2-.5.4-.4.8.3 1.4-.3 1.8-1.6 1.7zm-74.8-255.4c.4-.1.6 0 .8.2.5.7 1.2.9 1.9.3.8-.7 2.3-1.1 2.1-2.3-.3-1.3.4-1.7 1.1-2.4 1-.9 1.8-1.8.7-3.3-.4-.5-.4-1.1.2-1.7.6-.5 1-1.5.9-2.3-.1-.7-1.1-.1-1.6-.4-.3-.1-.7-.3-1-.4-.3-.1-.7-.1-.8.2-.6 1.4-1.8 2.6-1.5 4.3.1.5.1 1.1-.6 1.2-.3.1-.5.3-.6.6-.2 1.7-1.6 2.9-2.2 4.5-.3.7-.4 1.8-1.2 2.4-1.2.9-1.9 2-1.7 3.6.1.5 0 1 .6 1.2.6.2 1.1-.1 1.5-.5 1.2-1.4 2.4-2.9 1.3-4.9 0 .1.1-.2.1-.3zm25.4 59.2c-.3-.7-2.4.2-1.4-1.6 0 0-.3-.3-.5-.3-.7-.1-1.3-.2-2-.1-2 .3-3.1 0-4-1.8-.4-.7-.7-1.3-1.5-1.2-1 .2-.7 1.1-.8 1.8-.1.3.1.7 0 1.1-.1 1.5.5 3.2-.1 4.6-.6 1.4.4 1.6 1.1 2.1 1 .6 2.4.8 3 1.6.9 1.3 1.7.6 2.5.3s.7-.8 0-1.2c-1-.5-1.8-1.3-2.8-2 .7-.3 1.2-.3 1.9-.1 1.1.4 2.6 1.8 2.6-.9 0-.1.3-.2.5-.3.7-.4.6-.9 0-1.3-.1-.1 0-.3-.1-.5.8-.1 1.2.1 1.6-.2zm3.8-84.1c.3.5.4.7.5.9.1.2 0 .5.1.7.3.8 1.2 1 1.7.5.3-.3.8-4 .5-4.3-.7-.8-1.2-1.8-1.8-2.6-.6-.8-1.1-.9-1.7-.6-.6.3-1 .1-1.5-.1-1.6-.6-3 .6-3.1 2.3-.1 1 .6 2.1 0 3-.5.6.3 1.6-.7 2 .9.2 1.6.9 2.6.7.8-.1 1.4.4 2 .6.9.3 1.4.1 1.2-1 .1-.5 0-1.1.2-2.1zm-8.1-14.5c.8 1.1 1.4-.2 2.2.3.9.6 1.9.8 3.1.8.9 0 1.7.4 1.8 1.7.1 1.1.9 1.9 1.8 2.6.9.7 1.9.3 2.2-.8.2-.7.4-1.3.2-2.1-.4-1.5.6-2.5 2.1-2l1.8.6c.7.2 1-.2 1.1-.7.2-.6-.4-.6-.7-.8-.7-.4-1.6.1-2.4-.5-.9-.8-2-.8-3.2-.7-1.1.2-2.2.3-3.2-.7-.9-.9-3.5-.4-4.1.7-.7 1-1.5 1.5-2.7 1.6zm-76.9 287.4c-.5-.5-1.1-.8-.9-1.1 1-1.1 0-2.6 1-3.7.3-.3 0-.8-.3-1-.4-.3-.7 0-.9.3-.5.8-1.2 1.3-1.4 2.3-.4 1.5-1.1 3.1-1.9 4.5-1.3 2.3-2.9 4.4-3.4 7.1-.3 1.5-1.2 2.8-1.3 4.5-.1 1.4-1 2.5-.4 4.2.5 1.6.5 1.9 2.1 1-1.3-1.3-.3-2.9-.5-4.3-.4-2.1 1.4-3.6 2.4-5.1 1.7-2.5 2.5-5.5 4.1-8.1.4-.9.7-.6 1.4-.6zm55.7-141.1v-.5c-1.8-2.3-4.5-2.9-7.1-3.6-1-.3-2.3-.3-3.2-.8-2.5-1.4-5.1-1-7.7-.9-.5 0-1.2.4-.9 1 .3.7.5 1.4.9 2.1.6 1.1 1.6.2 2.1.7 1.4 1.2 2.8.7 4.3.2.7-.2 1.8-.8 2.2-.1.8 1.1 1.6.9 2.6.7 2.5-.7 4.5.4 6.8 1.2zm-2.2-76c-.5.1-.9 0-1.2.7-.3.8-.9 1.6-1.4 2.3-.2.4-.6.8-.4 1.3.1.3.5.4.8.3.6-.1 1-.4.9-1.1-.1-.7.2-.8.8-.8.9 0 2.8 1.8 2.8 2.7.1 1.4 1.2 2 2.4 1.3.7-.4 1.7-3.1 1.3-3.6-.7-.9-.4-1.4.3-1.9.5-.3.6-.8.1-1.1-1.8-.9-3.6-1.8-5.5-2.5-.6-.2-1.4 0-1.4.8-.1.6.5.9 1.2 1 .4 0 1.1 0 .9.6-.1.5-.7.3-1.1.2-.2-.2-.4-.2-.5-.2zm-1.4 94.1c1.1 1.5 3.1.4 4.3 1.4.1.1.6-.1.8-.3 1.3-1.1 2.7-1.6 4.4-1.7 1.4-.1 1.9-1.1 1.4-2.2-.2-.5-.5-.6-1-.6-1.8 0-2.8-1.7-4.5-2-.3 0-.1-.6.2-.7.7-.2.4-.6.1-.9-1-1.1-1.7-.4-2.7.3-1.1.9 0 1.4.2 2 .2.5 1 0 1.3.4-1.4 1.8-3.7 2.2-4.5 4.3zm4.7-11.4c-.9-1.5-3.8-2-4.7-.6-1.3 1.9-3.3 3-4.8 4.6-1.3 1.3-2.9 2.3-2.7 4.5.1 1.4.8 1.9 2 1.4.6-.2 1.1-.4 1.8-.2 1.2.4 1.2-1.1 1.8-1.7.4-.4 0-.6-.4-.8-1.3-.7-1.4-1.2-.2-2 .8-.5 1.9-.8 2.2-1.5 1.3-2.2 3.2-2.8 5-3.7zm47-84.1c.9.7 1.9 1.2 2.7 2 .8.8 3.6.7 3.8-.2.3-1.4 1.6-2.1 2.1-3.3.4-.8.9-1.8.1-2.7-1-1-4.4-1-5.3 0-.5.5-1.1.9-2 .6.9 1.2.7 1.8-1.4 3.6zM280 246.5c.7.1 1.3-.1 1.8-.7 1.5-1.6 2.3-3.8 3.9-5.4.4-.4 0-1-.5-1.1-.7-.1-1.9-.8-1.9.8 0 .5-.4.6-.8.7-.9.3-1.6 0-2.4-.3-.4-.2-1.1-.5-1.2 0-.4 1.2-1.4 1.5-2.2 2-1.1.8-1.4 2.6-3.2 2.5-.3 0-.5.3-.4.7.1.4.5.4.8.4 2-.2 4.1-.1 6.1.4zm70.5 75.3c0 .1.1-.2 0-.3-.9-.9-1.2-2.1-1.6-3.3-.1-.5-.7-.1-.8.2-.4.9-.9 1.8-.6 2.8.1.3 0 .8.5.9.4.1.6-.1.7-.4.1-.2.3-.5.6-.3.2.2.3.5.1.7-.1.3-.3.5-.5.8-.9 1-1.2 2.4-1.5 3.7-.2.9 1.1 1 1.3 1.7 0 .1.2.1.2.2.7 1.7 2.1 1.7 3.6 1.3 1.3-.4.6-2.3 2.1-2.6-.9-.6-.6-2.1-1.9-2.5-1.1-.4-2.4-.9-2.2-2.9zm-1.3 93.2c-.6-.9-1.5-.9-2.4-.8-.4.1-.8.1-1.2.1-3.2-.6-5.8 1.1-8.6 1.9-.4.1-.7.5-1.1.9-.6.5-.5.9.3 1 .9 0 1.2.4 1.2 1.2 0 .5 0 1 .5 1.1.5.1.7-.4.9-.7.8-.8 1.4-1.9 2.8-.8.3.2.7-.1.9-.4.3-.4.7-.5 1.2-.4 1.2.1 2.1-.5 2.5-1.6.3-.7.7-.9 1.4-1 .6 0 1.1-.1 1.6-.5zm-24.7-59.3c.9-.4-.1-1.8 1-2.2 1-.3 1 .7 1.3 1.3.1.1.2.3.3.3.8.2 1 1.8 2 1.1.5-.3-.2-1.3-.2-1.9.1-1.5-.8-1.9-2.1-1.9-2.4 0-4.8-.1-7.1.3-1.1.2-1.3.6-1.4 1.8-.2 1.8 2.6 1.2 2.1 3l.1.1c1-.4 1.7.3 2.5.8.4.2.8 0 1.1-.3.9-.6.9-1.4.4-2.4zm-86.8 6.4c0-.4-.1-.6-.3-.7-.7-.3-1.5 0-1.9.4-1.4 1.7-3 3.3-3.9 5.2-.9 2.1-2.4 3.8-3.7 5.6-1.1 1.5-1.8 3.3-3.3 4.6-.3.3-.3.7 0 1 .3.2.6.3.9.1.8-.5 2.2-1.2 2.4-1.6.6-1.9 1.8-3.3 2.9-4.8.7-1.1 1.4-2.1 2.4-2.9.3-.2.7-.2.7-.7 0-1.3.9-1.9 1.7-2.8 1-1 1.5-2.3 2.1-3.4zM254.9 246c.3.1.4.1.5.1 2.3.3 4-.3 4.7-2.8.3-.9.2-1.1-.5-1.2-.6-.1-1.5 0-1.7-.8-.3-1.2-1.2-1.1-2-1.1-1.6 0-3.2.3-4.6.9-.9.4-2.8 1-2.3 2.3.5 1.5 2.1.7 3.2.3 1-.3 1.9-.7 3-.7.8 0 1.3.3.6 1.1-.7.6-.7 1.2-.9 1.9zm37.3 155.9c.8 1 1.6 1.8 3 1.6.7-.1 1.5 0 1.9.7.3.5.8.5 1.2.5.7-.1 1.2.1 1.7.5.7.6 1.5.5 2.3.1 2-.9 3.9-2.1 6.2-1.5.2.1.5-.1.7-.2.3-.1.6-.3.5-.7-.1-.4-.4-.4-.7-.3-.6.1-1.1 0-1.7-.1-3.7-.6-7.5-.7-11.3-.7-1.1-.1-2.4.4-3.8.1zM274.7 507c1-.1 1.7-.2 2.2-.7.6-.7 1.3-1.1 2.3-1 .9.1 1.8-.1 2-1.1.2-.9-.3-1.7-1.2-1.9-1.7-.4-3.3-1.8-5.1.1-1 1-2.4 1.5-3.8 1.8-.4.1-1.2.6-.5 1 1.3.7 2.9 1.3 4.1 1.8zm.6-208.4c-.4.6-.1.9.3.9.6.1 1.2-.2 1.5-.8.5-.9.8-2 1.5-2.8 1.6-1.8 2.2-4.1 3.6-6 .3-.5.7-1.3-.2-1.7-.8-.4-1.3.1-1.6.7-.6 1-1.4 1.7-2.4 2.2-1.4.7-2.1 2.3-3.4 3.2-.2.2-.3.5-.1.7 1.3 1.1.6 2.5.8 3.6zm-4.4 135.7c0-.8-.3-1.2-1.2-.9-.8.2-1.5.6-2.1 1.2-1.1 1.4-2.2 2.8-4.1 3.1-.4.1-.7.3-.7.7-.2 1.2 2 3.7 3.3 3.7.3 0 .7-.1.8-.4.3-1.6.7-3 2.7-3.1.3-1.3 1-2.7 1.3-4.3zm-25.5 191.3c-1 .3-2.1.6-3.2.9-.5.1-.8.6-.8 1-.1.6.6.4.9.5 1.2.4 2.7.5 3.5 1.4 1.5 1.5 2.4.7 3.7-.1.7-.5 1.5-.7 1.7.6.3 1.3 1.6 2 2.7 1.7.6-.2 1-.8.6-1.1-1-.9-1.5-2.4-3.2-2.7-1.8-.4-3.7-.8-5.3-1.9-.1-.3-.3-.3-.6-.3zm89.3-218.8c-.3-.1-.8.6-1.1-.1-.2-.5-.1-1 .3-1.5.3-.3.8-.7.4-1.2-.5-.5-1.3-.4-1.7 0-.7.7-1.6 1.4-1.9 2.3-.7 2-.1 4 .8 5.9.3.6 1.1.8 1.4.4.7-.9 1.5-.4 2.2-.5.5 0 1.1.1 1.4-.4.1-.2.2-.5 0-.7-.5-.3-1.1-.3-1.5-.1-1.9 1.1-1.7-.3-1.8-1.4 0-.4-.3-1 .2-1.3.6-.4.8.2 1.1.5.7.5 1.1.1 1.7-.2.4-.2.7-.5.6-.9-.2-.7-.8-.6-1.4-.7-.2-.1-.4-.1-.7-.1zm-16.5-121.1c-.7 0-1.3-.1-1.8-.1-.9 0-1.5.5-1.7 1.2-.7 2.3 1 4.3 3.4 4.2 2.8-.1 3.8-2.1 2.6-4.6-.8-1.4-1.9-.3-2.5-.7zm-96 150.6c-.5-1.6-1.7-2-3-2-.7 0-1.4.2-2.1.1-1.3-.2-1.7.7-2.1 1.6-.1.2.1.6-.2.7-1.7.4-.4 1.5-.4 2.1 0 .9 1 .7 1.6.7 1.1.1 2.2-.1 3.2-.1.4 0 .9-.2.8-.5-.4-.7-.8-1.3.3-1.6-.6-1.3.5-.8 1-.9.2-.1.5-.1.9-.1zm119.9-100.2c-.4-1 0-2.6-1.5-2.7-1.2-.1-2 .4-2.4 1.9-.4 1.4-.1 2.5 0 3.8 0 .8.4 1.5 1.3 1.5s1.6-.2 2.1-1.1c.6-1.1-.4-2.4.5-3.4zm-95.4-82.9c.1 0 .4.1.6 0 .7-.1 1.8.1 1.8-1 0-1-1-1-1.9-1.1-2.1-.1-4-.1-5.4 2-1.1 1.6-1.7 3.4-2.7 5-.2.3 0 .6.2.8.2.1.4.3.5.1.7-1.5 2.9-1.9 3.2-3.8.3-2 1.9-2 3.7-2zm52 134.9c1.3-.4 2.3 0 3.3.6.5.3 1.1.7 1.5-.2.4-.9-.3-.9-.8-1.1-.9-.4-1.7-.8-2.5-1.4-1-.8-2.1-.8-3.3.3-1.3 1.2-.1 1.4.5 1.9.1.1 0 .2.1.3 1 1.1 1.4 2.9 3.4 2.9.7 0 1.7.6 2-.3.3-.8-.6-1.3-1.3-1.7-.4-.3-.9-.2-1.3-.2-.7-.2-1.3-.3-1.6-1.1zm-52.3-122.9c0-.4-.4-.6-.7-.8-.9-.9-1.9-1.5-2-3 0-1 .6-1.7.8-2.6.1-.5.1-.9-.3-1.2-.5-.3-.8 0-1.2.3-.4.4-.9.7-1.2 1.1-.6.6-1.2 1.3-.7 2.3.3.5.4 1.1.6 1.7.3 1.1.9 2.1 1.7 2.9 1.2 1.2 1.7-.7 2.6-.4.1.1.3 0 .4-.3zm75.4 17c1.1.3 1.8 1.5 2.6.5s1.4-2.3 1.7-3.5c.1-.7-.7-1.5-1.2-2.3-.8-1.4-2.3-2.2-2.8-3.7-.1-.4-.4-.6-.8-.5-.4.1-.5.5-.6.8-.4 1.8.6 3.9 2.4 4.7 1.2.6 1.3 1.7 1.3 2.7 0 .9-1 1-1.8 1-.1 0-.3.1-.8.3zm-26.3 44.9c0-.3.1-.6-.2-.8-.6-.5-3.4.2-3.3.9.2 1.8-1.8 1.8-2.4 2.9-.2.4-1.3.2-.7 1.1.6.8 1.1.6 1.6.1.7-.8 1.3-1.4 1.8.2.2.7 1 .9 1.7.7.5-.2.9-.5 1.3-.7-1.2-1.4-.2-2.9.2-4.4zm.2 21.7c1.6 1.5 3 3.2 5.8 2.5-1.4-.8-1.6-1.8-.6-2.9.4-.4.8-.9.1-1.3-1.3-.9-2.7-1.7-4.4-1.8-.3 0-.5.1-.6.3-.2.3.1.4.3.6.9.6 1.1 1.5 1.1 2.4-.5.3-1.1-.3-1.7.2zm6.3-83.4c.7 1 .3 2.2.9 3.3.7 1 1.8 1.6 2.3 2.7.1.2.6.4 1 .3.4-.2.3-.6.2-1-.1-.4-.2-.9-.3-1.3-.2-.9-1.1-1.6-1-2.6.8-.2 1.2 1.1 2 .1.4-.5.3-.9.1-1.3-.3-.8-1.1-.9-1.5-.6-1.2.8-2.3.4-3.4.1 0 .1-.1.2-.3.3zm29.8 45.4c2.2.5 2.8.1 3.7-1.5.7-1.2.2-2.4.5-3.5.3-1-.1-1.8-.5-2.6-.3-.7-1.1-1.1-1.6-.6-.6.7-1.4 1.6-.7 2.6.9 1.3.5 2.5.3 3.8 0 1.1-.3 2-1.7 1.8zM294.4 431c-1.2-.4-1.9.5-2.7 1.1-.5.4-.7 1.2-.2 1.8.9 1.1 4.6 1.7 5.9 1 .5-.2.7-.7 0-.8-1-.2-1.1-1.1-1.2-1.7-.1-1.3-.7-1.6-1.8-1.4zm14.7-143.7c.9.1 1.8-.2 2.7-.3.2 0 .5.1.1-.3-.8-1-1.4-2.1-2.2-3.1-.8-1-3.1-1.3-3.2-.5-.2 1.2-.6 2.4 0 3.6.7 1 1.7.5 2.6.6zm-81.9 136.1c.9-.4 1.4-.1 2-.1.3 0 .8.2.9-.3 0-.4-.4-.4-.7-.5-1.8-.7-3.2-.4-4.6 1-1 1.1-1.2.9-.1 1.7.1.1.2.1.2.2.6 2 2.3 1.1 3.5 1.3-.8-.4-1.6-.9-2.8-1.5 1.4 0 2.3-.2 3.3.3.6.3 1.2.5 1.5-.3.3-.7-.4-.8-.9-.9-.7-.3-1.3-.6-2.3-.9zM385.8 624h-1.1c-.4 0-.8 0-.8.5 0 .4.1.8.6 1 2.1.7 4.1 1.5 5.8 3 .5.5 1.1.4 1.7 0 .7-.5.2-1-.1-1.4-1.4-2.2-4-2.1-6.1-3.1zm-81-284.8c-1.5.4-2.4-.2-3.4-1.4-1.1-1.4-2.7-1.5-4-.8-.8.4-.9 1.1-.9 1.8s.6.9 1.1 1c2.6.8 4.8-.5 7.2-.6zM360 616.9c1.5.3 2.8-.3 4.2-.9.6-.3.8-.9.8-1.5-.1-.7-.7-1.2-1.3-1.5-.4-.2-.9-.3-1.2.2-.9 1.2-2.6 1.3-3.5 2.5-.3.4-1.1.4-.9 1 .2.7.9.3 1.3.3 0-.1.3-.1.6-.1zm-18.9-310.5c1.1.1 1.5.9 1.3 1.6-.4 1.6.3 1.5 1.4 1.3.5-.1 1.1-.1 1.7-.2.4 0 .9-.1.9-.6.1-.4 0-.8-.3-1.2-.6-1-1.6-1.7-1.9-2.9-.1-.4-.3-.7-.7-.6-.4.1-.9.2-.8.7.3 1.2-.5 1.6-1.6 1.9zm-46.5 120.1c.3.4.6.3.8.3 1.6-.4 3.1-.4 4.8.1 1.4.5 2.8 0 4-1 .2-.2.6-.3.4-.7-.1-.3-.2-.8-.6-.8-1.7.1-3.5 0-5.1.7-.9.4-1.6.7-2.4.2-.5-.4-.9-.4-1.1.4 0 .3-.5.5-.8.8zm44.2 186.9c-.8-1.4-1.9-.7-2.8-.7-1.5 0-2.9.4-4.1 1.5-.9.9-.3 1.4.3 2 .3.2.3.2.9-.6.2-.2.4-.3.7-.3 1.1 0 2.3-.4 3.4.7-.2-1.5.8-2 1.6-2.6zm-.8-258.7v.5c-.1 1 .2 2.1 1.1 2.1 1 .1 1.9-.8 1.7-2-.1-.5.2-.8.4-1.1.6-.7.4-1.5.4-2.3 0-.4-.3-.8-.6-.6-1 .6-1.9 1.2-2.8 1.9-.5.4-.1 1-.2 1.5zm-112.1 38c1.3 0 1.9-1.2 1.6-2.4-.5-1.7-2.1-2.2-3.3-3.1-.2-.2-.7-.1-1 .2-.3.2-.3.5-.2.8.5 1.2 1.3 2.2 1.6 3.5.2.4.7.9 1.3 1zm24.8-115.9c-1.5-.9-.3-1.1.3-1.6.4-.2 1.4-.1 1-.7-.3-.6-.3-.8 0-1.3.2-.3.4-.7-.1-1-.3-.2-.9-.2-1 0-.8 1.3-2.3 1.6-3.2 2.7-.5.7-.8 1.7-.5 2.3.4.8 1.4.2 2.1 0 .5 0 .9-.2 1.4-.4zm11.9 132.9c-1.8 0-3.4 1.1-4 2.7-.1.3-.4.7 0 1 .4.4.7.1.9-.1.3-.3.7-.6 1.1-.3 1.5 1 2.5.9 2.8-1.1l.1-.1c.4-.3.9-.5.5-1.2-.3-.8-.8-1-1.4-.9zm-10.8 19.1c-1.1.4-2.9.2-4.5.9-.4.2-.9.4-.8.9.1.4.5.7.9.7 1.8.1 3.6.3 5.3-.1.4-.1 1.3-.4.9-1.1-.3-.6-.1-1.6-1.8-1.3zm82.9-134c-.1-1.2.2-2.3-.6-3.1-.2-.2-.4-.5-.7-.3-.3.2-.8.3-.7.7.2.6 0 1.2.5 1.7.6.5.6 1.2.4 2-.4 1.8-.8 3.6-.5 5.5 0 .3 0 .6.4.7.2.1.5-.1.5-.3-.1-.8.6-1.3.7-2 .4-1.7-.5-3.4 0-4.9zm-84.3 115.3c-.7-.1-1 .3-1.4.7-.5.6-.2 1.6.3 1.4 1.2-.6 1.6.3 2.3.8.6.4 1.3.2 1.8-.4.3-.4.4-.9.7-1.2 1.2-.8.3-1.2-.2-1.7-.7-.6-1.5-.4-2.1 0-.6.4-.9.7-1.4.4zm35.1-39s.4-.6-.4-.7c-.5-.1-1.2-.3-1.6.2-.4.6-.6 1.4-.7 2.2 0 .2.4.7.8.1.2-.3.4-.3.6-.1 1.4 1.8 3.8 1.6 5.5 2.7.3.2.6.3 1 .4.4.1.9 0 1-.5.1-.5-.3-.5-.7-.6-1.3-.4-2.5-1-3.9-1.2-1.1-.2-1.7-.9-1.6-2.5zm40.8-98.1c0 .1 0 .4.2.6.3.4 0 1.3.8 1.3.9 0 .6-.8.8-1.3.6-1.5.2-3.1.4-4.6.1-.5-.9-1.4-1.7-1.4-.8 0-.6.8-.6 1.4-.2 1.3.7 2.5.1 4zm-71.9-16.8c-.3.7.3 1.1.7 1.5.3.3.6.1.8-.2.4-.4.8-.8.5-1.6-.6-1.6-2-2.7-2.8-4.1-.5-.8-1.1-.9-1.8-.8-.3 0-.5.2-.4.5.1.7.1 1.3 1 1.6 1.1.6 2.4 1.3 2 3.1zm-25.3 352.9c1.1-.2 2.2-.4 3.3-.8.5-.1 1.2-.3 1.1-.9-.1-.7-.9-.6-1.4-.5-1.7.4-3.3.7-4.9-.6-.3-.3-1.1-.1-1.3.6-.1.6-.1 1.3.6 1.5.9.3 1.7.5 2.6.7zm6.4-349.1c0 .1-.3.9.7 1 1.1.1.7-.8.8-1.3.3-1.8.4-3.7 1.6-5.2.4-.5-.1-.8-.5-.8-.7 0-1.4.1-1.7 1-.6 1.5-.9 3.2-.9 5.3zm-16 159c0 .9.6 1.4.4 2.1-.2.6 0 1.2.8 1.2.7 0 1.4-.4 1.5-1 .3-1.2 0-2.5-.5-3.6-.3-.7-.9-.7-1.4-.4-.2.1-.8-.4-.7.1.2.7-.1 1.3-.1 1.6zm120.3 129.5c-.4.1-.9.3-1.3.3-1 0-1.8-.1-1.7 1.3 0 .2-.3.5-.5.7-.3.4-.7.7-.3 1.2.4.4 1 .5 1.4.3 1.1-.6 2.1-1.4 3.1-2.1.4-.3.3-.6.2-.9-.2-.5-.4-.8-.9-.8zm-10.4 75c.1.3-.4.9.2 1.1.5.2.9-.1 1.2-.4.3-.5.7-.8.7-1.6.1-.9 0-1.8.2-2.6.1-.5.5-1-.2-1.2-.6-.2-1.2-.2-1.4.6-.3 1.3-1.2 2.6-.7 4.1zm-40.7-278.1c0-.1-.2-.4-.2-.7-.2-.9-.2-1.9-1.6-.9-.6.4-1.8-.2-2.3-1-.2-.3 0-1-.6-.8-.4.1-.7.6-.9.9-.2.5.4.6.6.9.5.6 1.6.5 1.9 1.2.5 1.3 1.7.9 2.6 1.2.3.4.6 0 .5-.8zm-2.1 66.2c-.1-.8 2.1-1.8-.2-2.4-.3-.1-.2-.5-.1-.8.1-.4.5-.8 0-1-.5-.2-.9.1-1.1.8-.3 1.5-1.6 2-2.6 2.8-.1.1-.6-.1-.7.3 0 .4.4.5.6.6.7.5 1.5.3 1.7-.3.9-2 1.5-.7 2.4 0zm3.4-109.3c.1-.6-.2-1.1-.6-1.3-.7-.3-.6.5-.8.8-.3.5-.6 1-1 1.4-1 1-.7 2.4.7 2.9.6.2 1.9-.7 1.7-1.2-.6-.9-.2-1.7 0-2.6zm55.7 82.3c.2.8-.7 1.3 0 1.8.5.3 1.2 0 1.6-.3.9-.7 1-1.8 1.3-2.8.1-.5-.4-1.4-.9-1.7-.8-.4-1 .6-1.5 1-.9.7-1 1.4-.5 2zm-35.1-16.3c.3-.8-.2-1.2-1-1.3-.8-.1-1.5.6-1.4 1.1.4 1.3-.5 1.2-1.1 1.4-.4.2-.9.4-.9 1 .1.5.6.6 1 .5.9-.2 2.7 1.2 2.5-1.3 0-.1.2-.2.4-.2.6-.1.7-.5.5-1.2zm33.1 12.3c.2.6.3 1.3.8 1.8.3.2.6 0 .8-.2 1.2-1.1 1.9-2.5 2.4-4 .1-.4-.1-.6-.4-.7-.3-.1-.6-.1-.7.1-.4 1-1.4 1.1-2.1 1.6-.3.4-.8.8-.8 1.4zm-98.4 43.9c.8.1 1.5-.2 1.3-1.2-.2-.9.3-2.3-1.3-2.3-1.1 0-2 .7-2.3 1.6-.2.9 1 1.9 2.3 1.9zm94 93.3c-.1.8.2 1.4 1 1.4 1.1-.1 2.3 0 3.3-.7v-.3c-.3-.6 0-1.7-1.1-1.8-1.1-.1-2.2 0-3.1.8-.1.1-.1.4-.1.6zm-82-181.1c1.4.3 2.7.4 4 .4.7 0 1.6.1 1.5-.8-.1-.7-.6-1.4-1.6-1.5-1.7-.2-2.8.4-3.9 1.9zm86.9 123.1c-.6-.3-1-.5-1.4-.6-.9-.3-1.9-.4-.9-1.7.3-.4 0-.7-.4-.7-1-.1-1.6.1-1.6 1.2 0 1.1-.1 2.1-.5 3.1-.2.5 0 .7.3.8.3.2.6.1.8-.2.2-.4.4-.7.4-1.1-.2-1.4.7-1.1 1.4-.7.4.2.9.3 1.9-.1zm-98.5-190.9c2.5 0 4.9-1.6 5.7-3.8.1-.3.4-.8-.2-1-.6-.2-.4.3-.6.6-.9 1.4-1.9 2.8-3.9 2.7-.4 0-.8 0-1.2.1-.4.1-.8.5-.7.9 0 .5.6.3.9.5zm3.6-14.7c-.8-.1-1.3.6-1.4 1.5-.1 1 .8.6 1.3.8.8.3 1.9.1 2.2 1.3 0 .1.5.5.9.4.2-.1.3-.2.3-.5.1-1.2-1.9-3.5-3.3-3.5zM234 398.9c-.5 1.2-.7 1.9 1 1.8 1.1-.1 2.2.2 3.3.4.9.1 2.3.6 2.6-.6.1-.5-1.6-.8-2.6-.9-1.5-.1-3.1.5-4.3-.7zm16.6-150.1c-1.1-1.3-2.1-1.2-3.4-.4-1.1.6-2.5 1.4-3.9.8-.3-.1-1-.2-.9.4 0 .4.4.7.9.6 2.4-.4 5 0 7.3-1.4zm98.5 179.5c-.1-.5-.6-1.1-1.1-1.4-.7-.4-1.4-.8-1.6.7-.1.9.3 1.8-.2 2.7-.2.5.6 1.3 1 .8.6-.9 1.7-1.5 1.9-2.8zm-22.9-66.9c-.2.6-.5 1.2.4 1.3.7.1 1.4.1 1.8-.8.4-.8.3-1.7.7-2.4.3-.4.7-.9-.1-1.1-.6-.2-1.1-.2-1.2.6-.1.6-.3 1.2-.9 1.3-.7.2-1 .4-.7 1.1zm-7.9 41.8c1-.1 1.7-.2 2.5-.2.3 0 .8 0 .8-.5s-.3-.8-.9-.8c-.9 0-1.9.2-2.7-.2-1-.5-1.6.2-2.2.5-.7.4.3.9.1 1.5 0 .1.4.3.5.2.4-1.1 1.4-.4 1.9-.5zm20.6-52.5c-.3.3-.4.7.1.8.6.1 3.1-1.7 3-2.3-.1-.8-.8-1.6-1.5-1.5-1.4.4-2.2 1.4-1.6 3zm-93.4 39.7c.8-.3 1.5-1 1.9-2 .5-1 1.1-1.8 2.2-1.8 1 0-.5-.9.4-1.1.4-.1-.3-.5-.5-.7-.3-.3-.5 0-.7.2-1.3 1.6-2.7 3.1-4.1 4.7-.1.1-.3.2-.2.5.2.3.4.3 1 .2zm93.5 17.4c.2.5-.1.7-.3 1-.6.8-1 1.6.1 2.4.3.2.4.8 1 .7.7-.1.3-.7.4-1.1.4-1.1-.6-2.3.2-3.4.2-.3.4-.7.1-1-.3-.3-.7.1-1 .2-.5.3-.9.6-.5 1.2zM208.1 600.6c1.9.1 1-1.7 1.8-2.3-.5-.3-.1-1.4-1.1-1.3-1.1.1-2 1.1-2 2.7 0 1.1.9.7 1.3.9zm6.4-4.1c-.3-.4 0-1.1-.3-1.6-.4-.8-1.2-1.7-2.1-1.4-1.1.4-.3 1.3-.1 2.1.2.6.5 1.1.9 1.6.3.3.7.4 1.1.2.3-.2.6-.3.5-.9zM254.1 397c1.1-.2 1.9-.8 2.6-1.6-.9-.1-.7-1.5-1.8-1.4-1 .1-2.2 1.3-2.1 2.2.1.7.7.8 1.3.8zm70.8 26.2c.6 0 .8-.4.9-.9.1-.6.2-1.2.6-1.7.3-.5.4-1.1 0-1.6-.4-.4-.8-.1-1.1 0-.6.3-1.1.7-.8 1.4.1.5.2.9-.3 1.2-.3.2-.6.6-.4.9.2.4.7.5 1.1.7zm19.1 43.1c-.5 0-.7.3-.8.9 0 .5.4.8.2 1.3-.2.6 1.5 2.2 2.1 2 .4-.2.4-.5.3-.9-.3-.9-.4-1.8-.7-2.7-.2-.6-.5-.6-1.1-.6zm-52.9-41.6c-1.1-.3-1.7.6-2.4 1.1-.3.2-.3.8-.1 1.1.2.3.6.3 1 .2.6-.2 1.2-.4 1.9-.6.7-.2 1.9.1 1.7-.9-.2-.9-1.5-.6-2.1-.9zm85.6-15.1c-.4-.8-1.1-.7-1.7-.6-1.2.3-2.3 0-3.4-.4-.7-.2-1.4 0-2.1-.1-.4-.1-.6.3-.7.7-.1.3.1.5.4.5 2.4-.1 4.9.3 7.5-.1zm-55-46.4c-.5-.6-.9-1-1.2-1.4-.3-.6-.4-1.4-1.3-1.3-1 .1-.8 1.1-1 1.7-.4 1 .1 1.4 1.1 1.4.8 0 1.5-.1 2.4-.4zm-7.8-166.4c0 1.4.7 2.9.6 4.4 0 .4.3 1 .9.8.5-.1.5-.5.5-1-.1-1.9-1.4-3.5-1.4-5.4 0-.1-.2-.3-.3-.2-.2.1-.4.2-.4.3-.1.4.3.6.1 1.1zm-53.7 238.4c-.1 0-.3 0-.4.2-.3.6.9 3.3 1.6 3.5.3.1.5 0 .7-.2.4-.9-.4-1.9.4-2.7-.7-.3-1.4-.7-2.3-.8zm-12.9-190.5c0-.4-.3-.5-.7-.6-.9-.4-2.9.7-3.2 1.6-.1.4.1.7.3.9.2.2.6.3.8 0 .6-.5 1.2-.7 1.9-.9.6 0 .6-.6.9-1zm97.3 124.5c1 .3 1.4-.7 1.9-1.4.2-.4.5-1.1-.2-1.3-.6-.2-1.4-.5-1.8.5-.1.4 0 .8-.5 1-.3.1-1 0-.7.7.2.4.6.6 1.3.5zM259 250.3c-.6-.5-1.2-1.1-1.8-1.5-.5-.4-1.3-.8-1.6 0-.1.4-1.1 1.1.4 1.7 1 .5 1.8.2 3-.2zm65.4-62.4c.2.8.4 1.8.6 2.9.1.3.3.6.7.4.2-.1.6-.3.6-.4-.3-.7.1-1.7-.2-2.2-.4-.7-.8-1.2-.7-2 0-.6-.3-.6-.7-.5-.4 0-.6.3-.3.6.2.3.1.6 0 1.2zm-41.3 157.9c-.8 0-1.3 0-1.3.5-.1.5.4.6.8.8 1.3.8 3.2.5 4.1 2.1.1.2.5.3.7 0 .2-.2.1-.4-.1-.6-1.2-1.4-2.8-2.1-4.2-2.8zm2.9 118.7c.4.3.8.4 1.3.5.7.1.3.8.6 1.1.1.1.4.2.6.1.9-.3 2.5 1.1 2.5-1.1 0-.2.4-.4.6-.6.5-.4.8-.9.9-1.5-.8.2-.8.2-1.2.9-.8 1.4-1.9 1.7-3.3 1-.6-.4-1.3-.9-2-.4zm40.5-288.1c-1.1.4-2 .3-2.7-.7-.2-.3-.7-.3-.8.3-.1.6 1.9 2.8 2.5 2.8.4 0 1.2-.6 1-.7-1.1-.4.1-1 0-1.7zM280.8 439c0-.5-.4-.8-1.1-.8-1.2 0-2 .9-2.1 2.1 0 .4.1.5.5.5 1.2 0 2.7-1 2.7-1.8zm3-80.1c-1.3-1.5-3-.7-4.5-.6-.3 0-.5.1-.6.4 0 .3.2.4.5.5 1.6.3 3.2.9 4.6-.3zm42 11.4c.8-.3 1.3-1 1.3-1.7 0-.6-.1-1.6-1-1.4-1 .2-1.4 1.3-1.6 2.1-.2.5.7.7 1.3 1zm7.6 221.9c.4.8 1.1.9 1.5 1.3 1.3 1.3 3.2-1.3 4.3.9.1.1.6 0 .7-.4.1-.3.3-.5.4-.7-1.5-1.3-3.2.2-4.8-.6-.5-.2-1.1-.6-2.1-.5zm-9.7-202.9c0 .3-.3.7.2 1.1.4.3.8 0 1.1-.2.4-.2.2-1 .1-1.1-.5-.9-.7-2-1.1-2.9-.2-.4-.6-.4-.9-.2-.4.2-.3.6 0 .9.6.6.7 1.4.6 2.4zm-2.1 19.3c-1.4-.4-2.6-.9-3.1.7-.2.6.2 1.3.8 1.5 2 .6 1-1.8 2.3-2.2zm-75.5-148.1c-.2.7.2 1.1.7 1.4.4.2.8.2 1.1-.1.5-.6-.1-.9-.3-1.3-.3-.5-.2-1 0-1.4.2-.3.4-.7-.1-.9-.4-.2-.8.1-1.1.4-.4.5-.1 1.3-.3 1.9zm-.1 289.7c1.3.1 1.5-.8 1.6-1.6.1-.9-.8-.9-1.3-.9-.9-.1-1.3.6-1.4 1.5 0 .6.5.9 1.1 1zm77.4-371c0 .9-.4 1.3.2 1.8.5.5.8 1.2.8 1.9.1.6.4 1.2 1.1.9.6-.2.6-.9.3-1.5-.5-1.1-1.4-1.9-2.4-3.1zm-94.6 242.5c.6-.5 1.8.8 2.2-.4.1-.4-1.4-1-2.1-1-.9.1-2.5.1-2.5.9 0 1.1 1.4 0 2.2.5h.2zM343.5 482c.3-.3 1.8.1.6-1.2-.2-.2-.2-.6 0-.8.7-.6-.1-.6-.4-.7-.8-.4-.9.5-1.3.7-.3.2-.7.7-.3 1.2.4.4.7.8 1.4.8zm9.2 25.5c.1-.7-.2-1-.6-1.1-.4-.2-.8-.3-1.1.1-.5.7-.2 1.8-.9 2.5-.1.2.2.4.5.4s2.1-1.8 2.1-1.9zm-99.1-225.6c-.6.3-1.6.3-1.3 1.5.1.6 0 1.3.9 1.2 1.2-.1 1-1.4 1.3-2.1.2-.4-.4-.5-.9-.6zm69.3 46.8c.8 0 1.2-.6 1.5-1.1.4-.6.4-1.4-.2-1.8-.8-.5-1 .2-1.2.9-.1.4-.5.8-.7 1.2-.4.6-.1.8.6.8zm-27.4 84.4c.8-.1 1.4-.4 2-.1.5.2 1.3-.2 1.3-.9 0-.4-.4-.9-1.2-.9-1.1.1-1.8.6-2.1 1.9zm-46.2 9.4c-.5.1-1.1 0-1 .6.2.5.2 1.6 1.1 1.4.8-.1 2.1-.1 2-1.2-.1-1.5-1.6.1-2.1-.8zm92.3 55.9c-.4-.5-.2-1.4-1-1.8-.6-.3-1.1 0-1.6.3-.1.1-.6.3-.2.5.8.3 1.1 1 1.6 1.5.2.2.5.4.8.2.3-.1.3-.4.4-.7zm-15.9-52c0-.6-1.2-2-1.7-2.1-.6 0-.5.7-.9.9-.1.1 1.9 1.8 2.1 1.8.4 0 .6-.2.5-.6zm-64.5 131c-1-.4-2-1-3.1-.9-.4.1-.8.2-.7.6.1.4.3.9.5 1.2.2.2.5.1.7-.1.6-.8 1.6-.7 2.6-.8zm35.3-205c.7.8.3 2.3 1.9 2.2.5 0 .9-.4.7-.9-.3-1.1-1.1-1.6-2.6-1.3zm52.5 24c.1.5-.4 1.1.3 1.2.6.1 1-.4 1.1-1.1 0-.2.1-.4.1-.6 0-.4.9 0 .5-.5s-.9-.7-1.5-.2c-.4.4-1 .6-.5 1.2zm-83.6-131.9c-.5.5-1.5.4-1.4 1.5 0 .5-.1 1 .7 1 .9 0 1.4-.5 1.4-1.3.1-.4-.1-1-.7-1.2zM325 358.6c.9-.1 1.5.4 1.9-.4.4-.7.3-1.4-.1-2-.2-.3-.5-.6-.9-.5-.4.1-.3.5-.2.8.2.7.2 1.4-.7 2.1zm-57.9 46c-.6.1-.8.6-.8 1.2 0 .8.4 1.1 1.2 1 .4-.1 1.1-.1.9-.7-.3-.5-.2-1.5-1.3-1.5zm66.6-74.4c0-.7 0-1.3-.7-1.4-.7-.1-.6.5-.6.9 0 .3-.3.6-.3 1-.1.4-.6.8 0 1.2.7.4.8-.3 1.1-.7.3-.3.6-.7.5-1zm17 41.9c.1-.5-.2-.6-.5-.5-.8.1-1.5.3-1.6 1.3 0 .6.4 1.2.7 1.1 1-.1 1.1-1.1 1.4-1.9zM262.9 422c-.1-.7-.5-1.1-1.2-1.1-.4 0-1-.1-.8.6.2.7.2 1.7 1.1 1.8.8.1.4-1 .9-1.3zm-26.8 125.1c.4.5.9.9 1.6 1.1.7.2 1.1-.1 1.3-.7.2-.8-.4-.7-.9-.8-.8-.2-1.5-.3-2 .4zm-10.2-135.8c-.1-.5-.3-1-.8-.9-.6.1-1.5 0-1.6 1-.1.6.4.8.9.8.6 0 1.3-.2 1.5-.9zM250 395c.2.3-.7 1.2.5 1.1.8-.1 1.2-.5 1.3-1.3.1-.9-.8-.7-1.2-.8-.8-.2-.7.4-.6 1zm70.3 10.2c.7.4 1 1.2 1.8 1.2.6 0 1-.1 1.1-.8.1-.7-.4-.7-.8-.9-.8-.2-1.4.2-2.1.5zm25-28.9c.1-.3.1-.6-.1-.6-.2-.1-.5 0-.7.1-.4.3-.8.7-1.1 1-.3.3-1 .3-.7.8.3.5.9.4 1.4.2.5-.4 1-.9 1.2-1.5zM329 418.2c.5.8.7 1.9 2.1 1.4.5-.2.5-.7.3-1-.6-1-1.4-1.1-2.4-.4zm15.4-12.7c.5-.3 1.4.1 1.6-.8.1-.5-.4-1-1-.9-.6.1-1.4.3-1.6 1-.2.7.5.6 1 .7zm-67.5 106.9c1.1 1.2 2 .4 3-.1.4-.2.6-.4.4-.8-.2-.4-.6-.3-.9-.1-.8.4-1.6 1-2.5 1zm-17.3-258.1c0-.6-.3-.8-.9-.8-.8-.1-.9.7-1 1.1-.1.6.4 1.2 1 1.1 1 0 .5-1 .9-1.4zm2.2 120.3c0-1-.2-1.6-1-1.7-.5-.1-.6.5-.5.7.3.6-.2 1.7.8 1.9.7.2.6-.7.7-.9zm24.8 87.3c-.3 0-.6 0-.5.4.1.2-.2.5.3.5.8 0 1.4.4 2.1.8.3.2.8.1 1.1-.3.2-.3-.1-.5-.3-.6-1 .1-1.9-.4-2.7-.8zm4.7-127.6c0-.6-.4-.7-.9-.7-.7.1-.9.5-1 1.1 0 .6.3.8.8.8.8 0 1-.5 1.1-1.2zm-3.5 87.6c0-1-.7-1.4-1.4-1.7-.3-.2-.8-.4-1.1.1-.2.4 0 .8.3 1.1.7.5 1.4.4 2.2.5zm-34.4-172c.4 0 1 .1 1-.5 0-.7-.6-.9-1.2-1-.5-.1-1.3.2-1.2.7 0 .7.9.5 1.4.8zM276 446.4c.7 0 1.4.1 1.5-.7.1-.7-.6-.7-1-.7-.6 0-1.4.3-1.5.8-.2.8.7.6 1 .6zm53.2-35.6c-.5-.3.1-1.2-.5-1.3-.6-.1-1.1.4-1.3 1-.1.5.3.8.8.9.5 0 .9.1 1-.6zm-49-92.4c.3-.3.9-.6 1-1 .1-.5-.5-.9-1-.8-.6.1-.8.6-.9 1.1-.1.4.3.7.9.7zm7 67.1c-.7-.8-1.4-1.1-2.3-.7-.3.2-.7.3-.7.7.1.5.6.3.9.3.7-.1 1.3-.2 2.1-.3zm53.3 95.4c-.8-.4-1.5-.5-2.1.2-.2.3-.1 1 .3 1.1 1 .4 1-1 1.8-1.3zM282 357c-.3-.6-.9-.6-1-1.1-.1-.4-.3-.7-.7-.6-.3.1-.6.4-.6.8s.2.6.6.8c.6.2 1.1.2 1.7.1zm10.7 7.2c-.4 0-.8.1-.7.4.3.7 1 .9 1.6 1.2.4.2.7-.3.6-.7-.1-.8-.9-.7-1.5-.9zm-17 146.4c.5-.3 1.6.1 1.4-1-.1-.3-.1-1-.6-.9-1 .2-.4 1.3-.8 1.9zm82.2 12.1c.9-.3.7-1.2 1.1-1.9.1-.2-.1-.5-.4-.5-.3-.1-.8 0-.8.2.3.8-.6 1.5.1 2.2zm-12.8-190.8c.1-.4.2-1-.6-.9-.5 0-.8.5-.7.8.1.5.3 1.2.9 1.2.6 0 .5-.5.4-1.1zm-62.9 129.8c.6-.7 1.7-.1 1.8-1.2.1-.4-.2-.4-.6-.4-.8.1-1.6.1-1.2 1.6zm25.1-73.2c.4-.3 1.2.2 1.3-.6 0-.4-.4-.8-.9-.8-.7 0-.8.6-1 1-.1.5.3.4.6.4zm28.8 248.1c-.5-1.6-2-.8-3-1.3.7 1.2 2.4 0 3 1.3zM229.9 394.8c-.4-.5-.7-.9-1-1.2-.3-.3-.7-.3-1-.1-.2.1-.3.3-.2.5.1.3.3.5.6.6.5 0 1 .1 1.6.2zm-4.3 35.4c.3-.2 1.2.3 1.1-.5 0-.7-.9-.6-1.4-.6-.4 0-1-.3-1 .4s.6.7 1.3.7zm67.1 9.4c.1.6.5.9.8 1.2.3.3.7.8 1.1.3.5-.7-.4-.6-.7-.8-.3-.4-.5-.8-1.2-.7zm-21.5 70.1c-.5.1-.8.5-.8.8 0 .6.6.7 1.1.8.3 0 .6-.2.6-.5-.1-.5-.4-1-.9-1.1zm26-148.6c-.2-.4-.6-.7-1.1-.5-.4.1-1 .2-.8.7.1.2.5.8 1.1.7.4-.2.8-.3.8-.9zm39 43c-.4.1-.8.2-.8.7 0 .6.5.6.9.6s.9.1.9-.5c0-.4-.5-.7-1-.8zm47.3.8c.3-.2.9 0 1-.5 0-.6-.5-.7-1-.7-.4 0-.9.2-.9.7 0 .4.4.5.9.5zm-81.9-92.6c-.3 0-.8-.1-.7.5.1.5.5.9 1 .9.4 0 .4-.4.4-.7.1-.6-.1-.8-.7-.7zm-17.7 139.1c.1-.3.9 0 .7-.6-.1-.4-.2-.9-.8-1-.5-.1-.5.4-.5.7 0 .3-.2.8.6.9zm89.2-148c1.1 0 1.5 1.5 2.6.4-.7-.4-1.2-1.4-2.6-.4zM360 559.5c-.2-.4-.2-1-.8-1-.5 0-.8.5-.8.9 0 .5.6.6 1.1.6.4.1.6-.2.5-.5zM236.2 281.1c1-.1 1.7-.2 2.2-1.2-1 .1-1.8.2-2.2 1.2zm58 69.5c.8 0 1.4.8 2.2.2.2-.1.2-.4 0-.5-.7-.4-1.4-.5-2.1 0 0-.1 0 0-.1.3zm-70.8 81c.3-.1.9-.2.9-.7.1-.4-.3-.5-.6-.5-.4 0-1 0-1 .6 0 .4.2.6.7.6zm84.4-120.5c.6 0 .5 1.4 1.4.7.3-.2.3-.7.1-1-.5-.5-1 .1-1.5.3zm-53.9-6.3c.4-.1.6-.6.7-1.1 0-.3-.3-.4-.6-.3-.5.1-.9.3-.9.9.1.4.2.6.8.5zm69.6-45.8c1-.1 1.9.2 2.7-.5v-.3c-.8-.3-1.6.1-2.4.2-.1.2-.2.3-.3.6zm-46.7 91.2c-1-.2-1.6-.7-2.1-.1-.2.3.1.6.3.8.8.6 1-.3 1.8-.7z"/><path d="M363.7 527.9c.5.6-.1 1.6.8 1.6.8 0 .7-.9 1-1.4.2-.4.1-.9.6-1.2.6 1.5 0 3.9-1.1 4.9-.9.9-2.1 1.7-2.7 2.9-.3.6-.6 1.4-1.5 1.3-.4 0-.5-.4-.5-.7 0-.9 0-1.9.9-2.2 1.2-.4 1.6-1.2 1.5-2.3.1-.9.8-1.7 1-2.9zM334.5 218.5c-.3 1.8-.1 2 1.5 1.7.4-.1 1-.3 1.3-.1 1.3.6 2.5.3 3.8-.5-.5 2.5-1.1 3-3.4 2.9-.9 0-1.5.2-1.7 1.4-.6-1-1-1.6-1.7-2.1-1.5-1-1.5-1.9.2-3.3zM372.9 512.5v6.9c0 1 .4 2 .2 3-.1.4-.2.9-.6 1-.6 0-.5-.6-.5-.9-.1-2.3-.2-4.5-.1-6.8 0-1 .3-2.1.5-3.1.2-.1.3-.1.5-.1zM373.8 508.1c-.8-2.7.4-5.2-.7-7.6-.2-.6.2-.8.7-.9.4-.1 1.1-.1.9.4-.8 2.6.5 5.4-.9 8.1zM372.7 490c.7 2.2 1.5 4.4 2.1 6.7.2.8-.9 1.4-.7 2.3 0 0-.4.1-.5.1-.3 0-.2-.3-.2-.5.2-2 0-3.9-.9-5.9-.3-.6-.2-1.7-.2-2.6.2-.1.3-.1.4-.1zM331.4 230.3c.8-1 3.3-1.6 4.2-1.1l.3.3-1.8 2.4-.4-.1c-.2-1.4-1.3-1.4-2.3-1.5zM336 224.9c-.2 1.3-.8 1.8-1.6 1.9-1.2.1-2.3 0-3.4.5-.3.1-.8-.1-.9-.4-.1-.5.4-.6.8-.7h2.4c1.1.2 1.9-.3 2.7-1.3zM358.9 497.6c.5-.6 1-1.2 1.4-1.7.3-.4.7-.3 1.1-.2.3.1.5.3.5.7 0 .5-.5.8-.8.8-.6.1-1.2.7-2.2.4zM372.7 527.4c.2 2 .5 4.1-.3 6.1-.1-2.1.2-4.1.3-6.1zM232.3 257.9c-.4-1 0-1.9.3-2.8.1-.3.4-.5.7-.3.3.1.2.4.1.6-.4.8.2 2-1.1 2.5zM348 458c-.5 0-.6-.3-.6-.7 0-.6.4-1 .9-1.1.4-.1.4.5.5.8 0 .6-.3.9-.8 1zM238.5 330.8c2.8.6 5.7.8 8.6.7 1.1 0 2.1-.4 3.1-.8.7-.3 1.3-.6 2-.8 1.6-.3 2.7.3 3.1 1.9 0 .2.1.5 0 .6-1.1 1.1-2 2.6-3.7 2.9-.6.1-.9.1-1.2.7-.6 1-1.8 1.2-2.8 1.4-1 .3-2.2.2-3.2.4-.9.2-1-.9-1.6-.8-2.2.2-3.5-1.7-5.3-2.3-.5-.2-1-.2-1.5-.4s-1.4-.2-1.4-.8c0-.7.3-1.5 1-1.9.9-.5 1.8-.9 2.9-.8zM240.6 317.5c2.5.1 4.1.7 5.7 1.1.4.1.7.5.7.9 0 .7-.5 1.3-1.2 1.5-1.6.6-3.3 1.2-4.9 1.6-2.1.5-4.2.8-6 2.1-.3.2-.6.2-.8 0-.3-.3-.2-.6.1-.8.4-.4.6-.9.4-1.5-.5-1.2.1-2 1.1-2.8 1.6-1.2 3.4-2.4 4.9-2.1zM241.3 309.8c-1.2.8-2 1.8-3.2 2.1-.4.1-.7.1-.9-.3-.1-.3 0-.6.2-.8.9-1.4 2.2-1.2 3.9-1zM255.3 518.7l.3-.6c.2-.5.8-.6 1.2-.2.8.6 1.5.2 1.8-.5.4-1.1 1.2-1.1 1.8-.7 2 1.6 4.5 1.5 6.7 2.5.4.2.9.2.7.8-.2.6-.7.4-1 .2-.5-.2-.9-.4-1.4-.6-1-.5-1.9-.5-2.9.1-1.5.9-3.1 1.3-4.7-.1-.7-.5-1.6-.7-2.5-.9zM248.8 528.4c-.5-.1-1.6.4-1.6-.6s1.1-.8 1.8-.8h.8c.5-.1.9-.6 1.4-.1.3.2.1.4-.1.6-.4.5-.7 1.2-1.5.9h-.8zM253.8 518.8c-.4 0-.8 0-1.2-.1-.5-.1-1-.4-1-1 0-.2-.1-.6.2-.6.5-.1.9.2 1.2.5.3.3.7.6 1.1.8-.1.2-.2.3-.3.4zM318.1 314.5c0 3.7-.7 7.2-1.7 10.8-1.1-1.2-1.5-2.4-.6-3.6.8-1.2.7-2.4.8-3.7 0-1.4.7-2.5 1.5-3.5zM324 317.8c1.7.1 1.8 1.2 1.8 2.2 0 .3-.1.9-.6.9s-.7-.5-.7-.9c-.1-.7 0-1.4-.5-2.2zM316.2 325.8c.5 1.1.6 2.1-.1 3-.2.2-.3.6-.7.4-.3-.2-.1-.4 0-.7.2-.8.5-1.8.8-2.7zM324.8 312.2c-.2-1 .6-1.7.5-2.6 0-.2.4-.3.6-.2.2.1.4.4.3.6-.3.8-.5 1.6-1.4 2.2zM266.1 452.3c1 .5 2.3.7 3.5.8.2 0 .6.2.4.5-.2.4.1 1-.5 1.2-.4.1-.9.2-1.2-.2-.9-1.4-1.9-1.8-3.4-.9-.4.2-.5-.3-.4-.6.3-.5.8-.8 1.6-.8zM263 483.8c.8-.5 1.7-.5 2.5-.7.3-.1.7-.1.8.2.1.4-.1.7-.5.8-1 .4-1.9.6-2.8-.3zM307.9 194.6c.2-.6-.3-1.4.7-1.5.9-.1 1.2.5 1.3 1.3 0 .5.1 1 .2 1.5.1.7-.1 1-.9 1.1-.7.1-1.1-.1-1.1-.8 0-.6-.1-1.1-.2-1.6zM314.7 179c.3 0 .6.2.7.5.1.3.1.7.1 1.1 0 .5 1.1.9.2 1.3-.5.2-.6-.8-.9-1.2-.2-.3-.3-.8-.4-1.2-.1-.3 0-.5.3-.5zM302.9 457.2c-.1-3.5 1.1-6.5 2-9.6.9-3 1.4-6.1 2.4-9.1.8-2.3 1.2-4.7 1.6-7.1.1-.5.9-.7.7-1.5-.1-.3.5-.7 1-.4.5.3.9 1 .6 1.2-1.3.8-.7 2.1-1.1 3.2-1.5 4.6-2.3 9.4-3.4 14.1-.7 3-1.3 6-2 9-.1.2-.2.5-.2.7-.1.7-.5 1.3-1.2 1.2-.7-.1-.2-1-.3-1.5-.2 0-.1-.2-.1-.2zM311.1 437c1.8.7 1.1 2.1.8 3.2-.6 2.4-1.8 4.8-2 7.2-.3 3.8-2 7.3-2.2 11.2-.1 1.8-1.2 3.5-1.3 5.4 0 .5-.4.7-.8.8-.4.1-.8 0-1-.3-.4-.6.4-.6.5-.9.1-.9.5-1.6.6-2.4.4-2.6 1.3-5 2-7.5.3-1.2.6-2.4.8-3.6.4-3.1 1.4-6.1 2.1-9.2.2-1.3 0-2.6.5-3.9.1 0 0 0 0 0zM301.7 463.4c.2-.8.2-1.8 1.4-1.8.6 0 .6.5.5.9-.3.8-.1 2-1.4 2.1-.6-.1-.6-.7-.5-1.2zM310.4 419.9c2.1-1.1 4.2-.7 6.3-.2.2.1.8.1.6.7-.1.4-.3 1-.8.8-2-.8-4.1-.6-6.1-1.3zM313.2 422.5c1.1-.2 2.2.2 3.3.3.3 0 .6.2.6.6 0 .4-.3.7-.7.6-1.6-.3-3.4.3-5-.4-.3-.1-.8-.1-.8-.6.1-.5.6-.6 1-.6.5 0 1 .1 1.6.1z"/><path fill="none" d="M400 0h100v800H400z"/><path d="m500 596-49.6 12.6v-11.4c22.8-4.7 32.9-6.8 38.4-7.4v-.1c-9.1-1.9-26.4-6.7-38.4-9.6v-9.6c9.5-2.6 28.8-7.6 37.9-9.2v-.1c-10.9-1.6-30.2-6.5-37.9-8.3v-10.4L500 556v11.1c-11 2.6-27 7-35.5 8.7v.1c8.8 1.8 25.5 6.3 35.5 8.9V596zM483.5 531.8c4.7 0 9.2-2.3 9.2-7.5 0-4.3-1.7-5.5-4-6.5v-10.3c4.6 1.3 12.1 5.4 12.1 17.1 0 12.3-9.2 17.6-19 17.6-11.7 0-20-6-20-18 0-12.8 9.3-17.2 18.6-17.2 1.3 0 2.1 0 3.1.1v24.7zm-6.3-14.4c-4.3.1-8 1.8-8 6.8 0 4.9 3.4 6.9 8 7.3v-14.1zM462.7 503.6v-5.7h-10.1v-10.3h10.1v-7.3h7.8v7.3h18.4c2.8 0 3.9-.9 3.9-3.9 0-.6 0-1.6-.1-2.3h7.1c.7 2 .7 4.9.7 6.9 0 7.3-3.9 9.7-10.4 9.7h-19.6v5.7h-7.8zM492.2 476l-21.4-18.4v17.5h-8.1v-29.2h8l21.1 18.1v-19.4l8.1 1.2V476h-7.7zM483.5 430.9c4.7 0 9.2-2.3 9.2-7.5 0-4.3-1.7-5.5-4-6.5v-10.3c4.6 1.3 12.1 5.4 12.1 17.1 0 12.3-9.2 17.6-19 17.6-11.7 0-20-6-20-18 0-12.8 9.3-17.2 18.6-17.2 1.3 0 2.1 0 3.1.1v24.7zm-6.3-14.4c-4.3.1-8 1.8-8 6.8 0 4.9 3.4 6.9 8 7.3v-14.1zM500 399.2h-52.6v-10.3H500v10.3zM447.4 379.6v-10.3h19.2c-2.4-1.5-4.8-4.6-4.8-10.7 0-10.1 8.4-15.2 18.8-15.2 10.7 0 20.2 5.5 20.2 16.2 0 5.5-1.7 8-4.4 9.8 1.2 0 2.6.2 3.5.4v9.9c-4-.1-8.1-.1-12.2-.1h-40.3zm33.4-25.7c-6.2 0-10.8 2.3-10.8 7.9 0 5.9 3.8 8 11.4 8 6.3 0 11.1-1.9 11.1-7.9.1-5.3-4.6-8-11.7-8zM483.5 327.7c4.7 0 9.2-2.3 9.2-7.5 0-4.3-1.7-5.5-4-6.5v-10.3c4.6 1.3 12.1 5.4 12.1 17.1 0 12.3-9.2 17.6-19 17.6-11.7 0-20-6-20-18 0-12.8 9.3-17.2 18.6-17.2 1.3 0 2.1 0 3.1.1v24.7zm-6.3-14.4c-4.3.1-8 1.8-8 6.8 0 4.9 3.4 6.9 8 7.3v-14.1zM472.8 295.7c-3.7 0-7 0-10.1.1v-10.1c.8-.1 4.5-.3 6.5-.3-4.3-1.6-7.4-5.6-7.4-12h9.8c-.2 7.5 1.8 12 12 12H500v10.3h-27.2zM495.4 234.2c12 0 19.5 4.4 19.5 18.5 0 13.6-7.6 16.3-11.8 16.6v-10.5c2.6-.7 4.3-2.6 4.3-6.6 0-6.7-4.1-8-11.4-8h-1.8c3.2 1.9 5.2 5 5.2 10.5 0 9.8-8 15.4-18.1 15.4-11.7 0-19.6-7-19.6-16.3 0-6.4 3-9.1 4.8-9.6-1-.1-3.3-.3-3.9-.4V234c3.3.1 7.1.1 10.7.1h22.1zM481 259.7c6.4 0 10.2-3.2 10.2-7.8 0-6.2-4.3-7.9-10.5-7.9-6.3 0-10.6 1.1-10.6 7.7 0 4.5 3.4 8 10.9 8zM483.5 216.6c4.7 0 9.2-2.3 9.2-7.5 0-4.3-1.7-5.5-4-6.5v-10.3c4.6 1.3 12.1 5.4 12.1 17.1 0 12.3-9.2 17.6-19 17.6-11.7 0-20-6-20-18 0-12.8 9.3-17.2 18.6-17.2 1.3 0 2.1 0 3.1.1v24.7zm-6.3-14.4c-4.3.1-8 1.8-8 6.8 0 4.9 3.4 6.9 8 7.3v-14.1z"/><path fill="none" d="M500.5 100.3h200v600h-200z"/><path d="M665.2 520.6c8.3-2.7 13.7-7.7 13.7-19.7 0-20.1-24.4-22.3-40.2-23.1 8.2 6 11.9 17.3 11.9 29.7 0 29.4-20.1 46.1-45.7 46.1-27.9 0-49.1-19.4-49.1-52.3 0-40.2 31-53.9 66.2-53.9 40 0 80.9 10.3 80.9 54.9 0 33.1-20.2 46.6-37.7 49.2v-30.9zm-61.7 1.8c14.5 0 23.3-8.4 23.3-21.8 0-13.7-7-21.1-22.7-21.1-9.5 0-24.2 3.9-24.2 21.6 0 14.3 10.3 21.3 23.6 21.3zM631.4 366h26.9v60.1h-26.9V366zM700.4 349.7h-2c-24.7 0-44.9-11.1-67.3-41.9-14.7-20.1-19.7-26.1-32.1-26.1-12.3 0-19.2 6-19.2 17.9 0 13.9 8.5 18.9 20.9 20.9v29.8c-24.5-2-45-18.1-45-50.7 0-36.5 21.7-49 43-49 20.7 0 30.7 8.9 49.1 35.1 12.3 17.5 20.4 24.6 26.8 27v-67.3l25.8 3.8v100.5z"/><path fill="none" d="M329.5 126.2h100v800h-100z"/><path d="M414.1 537.7c9.3 2 16 9 16 21.4 0 15.7-11.1 23.2-25.3 23.2-13.6 0-25.8-7.7-25.8-23.7 0-13.2 7.8-19.6 16.1-20.8v10.7c-3.8 1-7.6 3.7-7.6 10.4 0 8.9 8 12.3 17 12.3 8.4 0 17.2-3 17.2-12.6 0-7-4.7-9.2-7.6-10.2v-10.7zM426.1 520.7h17.6V531h-42.6c-3 0-6 0-9 .1v-10c1-.1 3.3-.3 4.6-.3-2.7-1.6-5.5-4.9-5.5-10.8 0-8.4 7-14.8 18.6-14.8 13.2 0 20.4 7.2 20.4 16.3.1 5-1.9 7.8-4.1 9.2zm-15.9-15.2c-6.8 0-10.7 2.8-10.7 7.7 0 5.9 3.8 7.9 11.3 7.9 7.1 0 11.3-1.9 11.3-7.5 0-5.5-4.3-8.1-11.9-8.1zM392.1 491.7V486H382v-10.3h10.1v-7.3h7.8v7.3h18.4c2.8 0 3.9-.9 3.9-3.9 0-.6 0-1.6-.1-2.3h7.1c.7 2 .7 4.9.7 6.9 0 7.3-3.9 9.7-10.4 9.7h-19.6v5.7h-7.8z"/></svg>