<svg xmlns="http://www.w3.org/2000/svg" xml:space="preserve" viewBox="0 0 800 800"><path d="M226.5 402.1c.3-7.7 6.9-9.6 12-12.7 4.2-2.6 6.6-6 6.7-11 .1-2 .7-4.2 1.6-6 3.2-6.8 6-13.8 8.5-21 2.9-8.5 2.4-18.2-3.8-25.3-5.3 12-10.9 23.7-14.9 36-.5 1.4-.7 3.2-2.8 2.4-1.6-.6-1.6-1.8-.8-3.6 4.1-10.1 6.7-20.7 11.3-30.6 1.4-3 1.2-5.7-2.7-7.8-6.8-3.6-7.2-13.2-1.5-18.2 4-3.5 10.3-6.6 5.1-13.8 4.6-8.5-6.8-18.6 2.7-26.6 1.4-14.3 10.5-23.3 21.1-31.5 2.5-1.9 5.4-.6 7.7-2.5-1.8-1.7-4.2 0-6-1.1-.7-4.9 1.3-7.8 6-8.7 5.4-1.1 11.2.4 13.5 4.8 2.9 5.6 6.5 3.8 10.1 2.9 3.2-.8 8-2.3 8.7-4.6.8-2.5-4.4-.9-6.6-2.9-2.7-2.4-3.3-4.2-.9-6.9 2.1-2.2 2.6-4.4 2.3-7.8-.4-5.3 1.5-10.7 2.6-16.1.2-.9 1.1-1.8 1.9-2.4 4.4-3.5 22.9-3.6 27.9-1.2 4.5 2.2 5.1 6.7 5.8 10.1 1.1 5.2 1.5 10.6 4.5 15.3.2.3.4 1.1.3 1.2-7 2.9-1.3 10.1-4.9 14.2-1 1.2-1.7 3.5-3.9 2.2-1.7-1.1-1.5-2.6-.4-4.4 1-1.6 3.1-4.5.6-5.4-2.9-1-6.4-3.2-9.6-1-2.4 1.7-2.4 4.8-1.3 7 1.3 2.4 2.2 5.8 6.1 5.8 1.3 0 3.3-.6 3.6 1.6.2 1.5-.6 2.9-2 3.8-1.9 1.3-3.6 2.8-6.3 2.7-6.2-.3-6.5 4.2-6.3 8.6.1 3.3 2.8 7.8-4 7.4-.5 0-1.3 1.1-1.6 1.8-.3.9.5 1.7 1.4 1.8 4.5.4 4.3 3.3 4.9 7 1.2 7.8 1 14.9-3.9 21.5-2.3 3 .8 10.6 5.2 12.5 5.9 2.5 11.4 5.4 16 10.1 2.3 2.3 5.6 2.8 8.9 2.7 11.6-.1 23.3 0 35.4 1.3-6.5 4.7-13.3 8.3-15.4 16.5-3.3-2.4-.6-3.8-.9-5.3-.3-1.4 0-3.4-1.9-3.7-3.2-.5-6.2 1.5-9.8-.3-2.7-1.4-5.9 0-6.8 4.2-.3 1.7-3 1.2-4.6 1.3-4.2.3-8.4.6-12.6.5-8-.3-13.6 4.8-18.5 9.7-2.4 2.4-3.1 7.9-1.5 11.9 2.4 6.3 2.2 13.3 6.8 19.2 2.3 3 4.7 4.1 7.6 4.5 11.6 1.5 24.5-7.5 29.6-18 3.6-7.2 6.4-14.9 11.3-21.6-1.1 11.7-4.9 22-12.7 31.4-8.4 10-19.1 12-30.9 12.3-4 .1-5.7 1-3.7 5.2.4.8-.1 2-.4 5-1.7-4.9-3-8.1-7.3-7.3-2.8.5-4.1 2.2-1.7 4.2 4.4 3.7 2.7 4.7-1.6 5.8-1.8.5-3.2 2.2-4.8 3.3 2 2.6 4.8-.8 6.9 1.8-5 3.8-3.1 5.7 2.1 6.9 1.7.4 3.9 1.5 3.6 3.9-.2 2.4-2.4 2.6-4.3 3-5.3 1-8.3 3.4-5.2 9.2.2.4.4.9.3 1.2-3.5 7.4-.2 10.4 6.8 13.2 3.8 1.5 6.6 2.2 9.9.4 2.2-1.3 3.7-.8 2.9 1.6-2.4 6.6 0 13.3-.2 19.9-.1 6.1 3.4 12.6 7.6 17.3 2.2 2.4 7 1.8 10.9 1.7 6.7-.3 11.2 3.1 12.3 8.7.3 1.5.8 3.4-1.2 3.8-8 1.7-14.4 9.8-23.8 5.6-2.1-1-4.5.3-6.5 1.8-4.2 3.1-9.3 3-14.1 2.9-5-.2-4.8-5.1-4.6-8.3.5-6.1.3-13-1.1-18-1.6-5.8-1.4-11.6-2.6-17.2-1.4-6.5-6.1-11.4-8-17.7-1.6-5.2-2.7-10.8-1.6-15.4 2.4-10.9-4.4-17.9-8.9-25.9-1.8-3.2-9.4-.5-12.2 3.5-7.5 10.7-16.7 20-25.3 29.7-5.1 5.7-11.3 9.8-17.6 13.8-.5.3-1.3.7-1.4 1.3-2.1 7.5-8.3 13.3-9.6 20.9-.5 2.6 1.5 6.4 4.8 8.7 5 3.5 10.5 7.3 9.1 15-.3 1.9-1 3.8-2.9 3.5-5.2-.9-10.5.8-15.5-3.7-4.8-4.3-10.1-7.4-14.1-13-2.6-3.6-9.4-4.4-13.1-9-3.4-4.3-3.8-7.5.3-11.4 10.5-9.9 19.5-21.2 29.2-31.9.7-.8 1.7-2.1 1.5-2.7-3.7-8 3.8-10.7 7-15.5 0 2.3 2.5 3.9 1.6 6.6-.6 1.9-1.7 4.3 1.2 5.4 2.8 1.2 4.7-.2 6.6-2.4 2.5-2.9 4.8-6.7 8.1-8.1 7.9-3.5 8.1-3 4.7-10 .9-1.9 4.6 0 4.5-3.3-10.6-.3-19.9 2.8-26.5 11.8zm67.2-138c-3.2-3.4-5.3-6.3.3-8.5.8-.3 1.6-1.5 1.8-2.4 1.5-8 7.9-9.5 14.3-10.7 3.4-.7 3.1-2.5 1.6-4.4-6.8-8.6-13.8-8.8-21.2-.1-3.1 3.6-5.6 7-10.3 8.4-2.6.8-4.8 2.9-4.7 5.7.1 3.4 3.1 3.3 5.7 3.5 1.6.1 3.9-.4 4.4 1.6.6 2.4-2.2 2.1-3.4 3-1.5 1.1-5.2 1.5-3 4.1 1.2 1.4 4.4 4.8 6.8 2.2 2.3-2.3 4.7-1.4 7.7-2.4zm5 114.4c-2.7 2.6-5.3 5.3-3.6 8.5 1.2 2.2 4.3.9 6.5.2 1.7-.6 1.8-2.6 2.5-4.1 1.6-3.6 3.4-7.4 8.2-7.5 1.7-.1 4.4 1.2 4.2-1.9-.2-2.5-2.8-2.2-4.7-2-5.3.6-6.2-1.9-4-6.1 1.8-3.3 1.4-5.6-2.4-6.8-2.4-.8-4.9-1.7-6.1-4.3-1.7-3.8-5.5-4.4-8.8-5.7-2-.8-4-.1-5.3 1.2-1.8 1.6.6 3 1 4.5.6 2.3 1.7 4 4.1 5.3 3.3 1.8 6.1 4.2-.1 6.4-2.8 1-3.3 5.7-2.7 5.7 5.9-1.1 6.1 6.4 11.2 6.6zm-24.8-92.4c1.6 1.7 3.5.7 4.8 3 3.8 6.7 8 13.3 15.6 16.8 2.1 1 3.9 1.6 6 .5.9-.5 1.6-1.3 2.3-2-4-2.1-1.3-7.3-4.5-9.8-4.7-3.7-7-9.4-11.5-13.4-2.9-2.6-5.8-3.4-7.4.4-1 2.4-2 4.2-5.3 4.5zm-1.4-20.5c1.2-3.2-1.2-3.8-3-4.5-2.3-.9-2.7.8-3.9 2.5-1.9 2.8-1.3 6.1-2.9 8.8-.7 1.2-.7 2 .5 2.5 3.5 1.3 7.1 2.5 10.7 3.6.8.2 2.2-.4 2.8-1.1 1-1.2-.1-2.8-1-3.1-4.8-1.8-3.6-5.4-3.2-8.7zM308 316c-1.5.6-4.1 1.5-4.1 1.7 1 3.9 2.3 7.8 3.5 11.7 3.1-1.1 7 .5 9.4-2.4 2.3-2.7.5-5.7-1.3-7.4-1.9-1.7-4.9-2.4-7.5-3.6zm-39.4-9c-5.3-2.1-10.8-.3-15.9-2-2.2-.7-4.5-.8-5.5 1.7-1.2 3.2-.4 6.6 1.7 8.9 1.7 1.8 3.9-.2 5.5-1.6 4.1-3.6 7.7-8 14.2-7zm28.4 34.7c-1.4.5-5.4-1-4 2.1 1.5 3.3 4.6 6.6 9 7.1 3.3.4 2.5-2.6 3.4-4.2 1.3-2.2.5-2.9-1.4-3.7-2.1-1-4.4-1.4-7-1.3zm34.2-35.2c-1.4-2.6-4.1-3.2-6.4-2.9-3.1.3-5.7-5.5-8.9-.6 3.7 2.1 5.2 7 9.9 7.9 3.3.6 4.5-1.7 5.4-4.4zm-10.4-36.3c-1.3-2.3-3.3-4.3-5.8-5.2-2.3-.9-2.5 1.4-2.8 3.1-.8 4.2 2.9 3.3 4.9 4.1 1.5.5 2.9.1 3.7-2zm-59 27.7c2.3 1.7 4.5 3.6 6.9 5 1.2.7 3 .5 3.9-1 .8-1.4-.6-2.1-1.3-3.1-2.6-3.6-6.2-.2-9.5-.9zm59.6-66.8c1.8-.2 3.1-.6 3.2-2.5.1-2.6-1.9-3-3.9-3.2-1.8-.1-4.7-.3-4.5 1.9.1 2.3 3.7 2.1 5.2 3.8zM485.3 412.8c-2.8 2.4-5.1 5-1.4 8.2 2.8 2.4 5.6 1.7 6.6-1.5 2.3-7 8.3-8.8 14.1-11.1 1.4-.6 4.1.6 4.1-1.8 0-1.4-1.8-2.7-2.8-4-.8-1.1-3-.8-3.1-3 .5-.3 1-.7 1.5-.9 1.9-.5 4.4 1.2 5.6-1.7.2-.4-.3-1.5-.6-1.6-2.3-.5-4.6-1.1-6.8.1-5.3 2.7-11.4 3.9-16.2 8.1 1.7-4.3 5.1-7.3 8.8-8.8 3.5-1.4 3.6-3.7 4.8-6.4 3.5-7.7 5.6-15.9 8.3-23.8 2-5.9 4.9-12.1 4.4-18-.4-4.5-1.3-9.6-2.9-14.1-1.2-3.4-3.4-2.1-4.8.4-4.8 8.6-6.9 18.1-10.1 27.3-1.3 3.8-2.8 7.4-5.5 12.1-2.2-6.4.8-10.8 2.6-14.7 3.1-6.7 2.8-14.2 6.8-20.8 2.4-4-3.6-6.9-5.5-10.5-3.2-6.1-3.7-12.9 1.8-16.1 4.3-2.5 4.8-7.5 8.7-9.8 1.2-.7.4-2.2-.7-2.3-5.8-.7-2-4.6-2.9-7.2 2.7.1 5.2 1.3 7.6-.5-10.4-4.4-10.9-4.5-8-17.1 2-8.9 6.6-16.8 12.1-24.2 3.9-5.3 7.9-10.7 8.9-17.7.5-3.8 4.5-4.7 7.6-5.7 3.7-1.1 7.6-.4 9.9 2.6 6.6 8.1 10.6 8.5 18.2 1 .4-.4.8-.7 1.6-1.4-2.2-.8-4-1.3-5.7-2.1-1.4-.7-2.9-2.2-1.4-3.5 6.3-5.4 3.5-13.2 5.4-19.8 2.9-9.8 6.3-13.7 16.3-12.4 4.9.6 9.5-.5 14.3 3.2 6.3 4.9 5.3 11.9 7.7 17.8.8 1.8.6 3.9 2.5 5.4 1.8 1.5 1.8 3.3-.8 4.4-.9.4-2.7.3-2.4 1.5 1.9 7.5-3.8 12.2-6.5 18-.8 1.7-.9 4.1-3.4 3.8-8.3-1-10.6 3.8-10.2 10.7.3 4.9-2.7 7.3-8.1 10.9 13.3-2.3 9.4 6.2 9.8 10.7.8 8.7-1.2 17.4-11.4 19.2 5 1.3 4.5 6.3 8.5 8 5.1 2.2 10.8 4.6 14.3 8.5 7.8 8.8 17.9 4.4 26.9 6.2 9.7 1.9 19.4 1 29.3-1.6-2.3 3.3-2.2 3.6-5.6 4.1-7.5 1.2-11.1 6.6-13.3 12.8-2.9 8-4.9 16.4-7.5 24.5-3.8 12-18.4 22.6-31.1 23.1-4.4.2-8.8.6-13.5-.8-.5 5.1 2.2 9.1 2.8 13.6-2.3-3-6.8-3.4-7.8-7.5-.3-1.2-1.2-1.1-2-.7-1.3.7-.5 1.7-.4 2.7.2 1.9 2.3 5.5 1.5 5.2-3.7-1.7-5.8 2.7-9.2 1.2 1.2 4.6 5.6 2.8 8.4 5.2-3.3.2-6.1.6-8.9 2.2 2.2 4.1 6.8 3.5 10.1 5.3 1.5.9 3.3 1.1 3 3.3-.3 2-1.4 2.8-3.6 2.6-5.1-.6-5.5 4.6-8.2 6.5.4 2.8 5.8 1.8 4 4.9-2.4 4.4-.9 11.9-9.2 12.5 7-.7 13.4.4 19.8 2.8 3.5 1.3 7.3-.4 6.2-5.8-.2-1.2-.6-2.6 1.3-3.6 1.9 1.8 2.1 3.7 1.3 6.5-1.4 5.1-1.9 10.2-.3 15.6 1.1 3.7.2 7.7-5.7 8.7 7 .9 7.8 5.5 8.5 10.7.5 3.7 4 5.3 7.6 5.7 4.6.6 9.3.8 13.9 1.4 3.2.4 5.9 2.7 6 5.5.1 3-1.2 5.8-4.9 7.8-6.2 3.5-12.4 3.8-19 3.7-5.4-.1-10 3.1-15.2 4.2-5.4 1.1-10.7-1-11.3-6.6-.4-3.3-2.6-7.3 1.4-10.5 1.6-1.3-1-3.7-1.4-4.3-4.6-6.5-1.9-14.1-3.9-20.9-1-3.6 3.8-2.1 4.3-5-4.4-.3-9.5-1.9-10.6-5.5-1.2-3.7-1.8-8.3-2.7-12-1.4-6.1.2-11.8-.5-17.5-.5-4.2-.3-8.4-4.7-11-1-.6-1.5-2.5-1.8-3.9-1.3-5.4-5.6-6.7-10.3-3.6-5.7 3.7-8.9 9.2-12.4 14.7-7.2 11.2-14.5 22.1-26 30-8.4 5.7-14.5 14.6-16.2 24.8-.7 4.3 3.2 8.9 7.2 12 1.2.9 2.5 1.6 3.7 2.4 4.3 3 2.5 7.4 1.3 10.7-1.1 3.2-4.4 1.4-7.2 1.1-8.8-1-15-6.2-21.3-11.6-5-4.3-11.3-7.1-15.6-12.4-5.1-6.4-5-10.6 1.9-14.8 7.7-4.6 14.4-10.9 18.8-17.8 3.6-5.7 10.7-10.7 9.2-19.7-1-5.8 5-8.8 11.3-6.5zm106.3-80.9c-7.3-1.1-14.3 3-21 8.2-2.3 1.8-4.8 2.9-5.3 6.6-1.2 10 1.8 18.9 5.7 27.7.6 1.4 2.2 2.7 3.6 3.4 8.2 4 26-.6 30.6-8.4 4.5-7.6 10.8-14.3 12.2-23.6.8-4.9 1.9-9.8 2.7-14.8.1-.6-16.7-3.4-17-2.7-2.1 4.6-6.1 3.8-11.5 3.6zm-72.5-70.3c2.4 1.4 5.4 2.3 8.9 2 2.7-.2 6.8-3.1 7.9.7 1.2 4.1-3.8 3.2-6.2 4.3-1 .4-1.9 1-2.2 2.1-.3 1 .3 1.5 1.1 2 4.3 2.6 12.4-.3 13.5-5.2 1.1-5 6.8-8.3 5.3-14.3 0-.2 1.1-1 1.5-.8 6 2.3 8.6-5.4 14.9-4-1.6-2.8-2.3-4.8-3.7-6.3-2.9-3.3-7.1-5.5-11.1-4-3.9 1.6-7.5 4.4-10.1 8.4-4.8 7.2-13.1 10-19.8 15.1zM568 381.1c-2.5-1.2-3.1-1.6-3.7-1.6-4.1-.6-9.3-.4-4.3-6.8 1-1.3.8-2.9-.8-3.9-6-3.5-10.9-8.7-17.2-11.8-2.9-1.5-4.5-.4-5.3 2.2-.6 1.9-3 3.5 1 5.6 3.8 2 7.7 5.4 6.6 11.4-.4 2.3.1 6.8 3.1 7 8.7.7 2.6 3.8 1.2 5.9-.8 1.2-3.7 1.3-2.3 3.7 1.4 2.6 3.3.5 5 .1 1.5-.3 3.2-1 3.5-2.5 1.7-5.8 6-8.2 13.2-9.3zm-39.6-90.3c.4 2.9 1.2 6.1 3.8 8.1 1.7 1.4 2.8 2.7 2.3 4.8-1 3.7 1.9 4.3 4.2 5.1 2.6.8 5 1.1 7 3.7 1.5 2 4.4 1.3 6.3-.3 1.9-1.7 1.8-3.8 0-5.6-4-3.9-6.2-9-9.1-13.7-1.8-2.9-4.5-4.6-7-6.4-3.6-2.5-7.5-.2-7.5 4.3zm40 38.1c1.1-2.8-1.2-3-3.3-4.6-4.5-3.6-10.6 1.1-14.3-4-.5-.7-2.2-.1-2.7.8-.6 1-1.1 2.3-1.1 3.5 0 1.2 1.5 1.9 2.4 1.5 5.3-2.3 5.8 1.7 7.1 5 2 5.1 6.5 2.7 9.9 2.8 2.8 0 3.4-2.1 2-5zm-48.9-60.7c-3.2-1-4 3.5-6.2 5.2-2.6 2 1.9 1.4 2.3 2.7.3 1.2.6 2.4.7 3.7.3 2.2.2 4.3 3.6 3.6 1.2-.2 3.3.6 3.9 1.6 1.4 2.3 2.9 2.4 4.3.5 1.3-1.7 1.8-3.2-1.1-4.8-2.5-1.4-5.9-3.3-3.1-7.8 1.5-2.3-.3-4.4-4.4-4.7zm-11.8 42.6c-3.5.9-6.8 2-9 4.9 4.4.4-.8 8 4.7 6.8 3.9-.9 9.7-.8 10.3-6.6.2-3-3.4-4.1-6-5.1zm81.7-82.7c-.1-4.1-3.1-4.4-5.8-4.7-3.5-.5-5.6 1.7-6.6 4.7-.5 1.4 6 9.8 6.8 9.2 3.4-2.1 4.1-6 5.6-9.2zm-44.2 120.3c-1.5-.1-3.2-.4-3.6 1.6-.3 1.5.4 2.9 1.9 3.6 3.5 1.8 7.2 3.2 10.2 6 1.1 1.1 4-.2 3.6-.8-1.7-2.9 1.1-7.9-4-9-2.7-.6-5.4-1-8.1-1.4zm21.3-37.3c4.3 1.4 7.9 2.1 10.5 4.8 1.3 1.4 2.3.5 3.1-.5.7-.8 1.2-1.7.3-2.8-2.1-2.7-9.9-4.1-13.9-1.5zm-6.5-33.8c2.1.9 4.7-.3 6.4 2 .9 1.3 2.9 1.3 4.1.3.8-.7 1.3-2.4 1.1-3.5-.4-1.9-2.3-2.4-4-2.5-3-.2-5 2.2-7.6 3.7zm16-43.7c0-1.6-.9-2.8-2.6-2.8-1.9 0-4.1.3-4.4 2.7-.3 1.9.9 3.1 3 3.3 2.3.2 3.5-.9 4-3.2z"/><path fill="none" d="M99.9 500.4h600v200h-600z"/><path d="M213.3 658v-31.9H149v-26.9l59.3-83.2H242v85.2h17.1l-2.8 25H242V658h-28.7zm0-82.2c0-15.4 0-24 .6-32.9-5.6 11.9-24.2 39-37.5 58.2h36.9v-25.3zM338.7 589v26.9h-60.1V589h60.1zM433.2 550.5c-1.7-7-5.8-13.7-18.2-13.7-19 0-24 17.9-24.8 37 6-7.3 16.1-13.2 32.2-13.2 26 0 44.5 19.2 44.5 47.1 0 30.3-19.4 52.9-52.2 52.9-41.2 0-55-31.8-55-71.9 0-37 13.1-75.4 56.7-75.4 30.9 0 45.3 19.3 46.7 37.2h-29.9zm2.8 59.8c0-13.5-5-25.6-22.1-25.6-13.8 0-21.9 8.1-21.9 24.5 0 11.5 5.5 26.8 22 26.8 15 0 22-11.3 22-25.7zM547 589v26.9h-60.1V589H547zM653.6 515.9v22.9c-22.5 31.9-44.6 78-50.1 119.2h-31.8c5.6-41.8 31.1-91.9 50.4-116.7h-66.9v-25.4h98.4z"/></svg>