<svg xmlns="http://www.w3.org/2000/svg" xml:space="preserve" viewBox="0 0 800 800"><path fill="none" d="M-.4-.7h800v800H-.4z"/><path d="M233.5 277.7c.1-.2.3-.4.2-.5-.2-.7-1.4-1.4 0-2.2.8-.4 1.3-1.3 2.3-1.3.5 0 1-.2 1.2-.8.2-.7-.3-.9-.7-1.2-.8-.8-1.9-1.3-1.7-2.6-1.7-.7-1.3-2.4-1.8-3.7-.6-1.5-.2-3-.4-4.4-.4-2.5 1-4.3 1.6-6.2.5-1.7 1.8-3.5 2.3-5.2.8-2.3 2.6-3.5 4.1-5 1.3-1.4 3.2-2.4 5.3-2.6.6-.1 1.2-.2 1.7-.6 2-1.6 4.3-2.1 6.7-2.2 1.2-.1 2.4-.2 3.5-.3 2.1-.2 2.6.1 3.1 2 .2.8.6 1.2 1.3 1.2.4 0 1.1.2 1.2-.4.2-.6-.5-.5-.8-.6-.4-.2-.5-.5-.2-.9s.8-.6 1.1-.2c1.5 1.8 3.9 1.4 5.7 2.7.8.5 1.9.5 2.8-.6.7-1 2-1.5 3-2.2 1.3-1 2.9-1.7 4.4-2.5 1.6-.9 3-2.2 4.2-3.5 1-1.1 1.2-3.1 1.7-4.7.3-1 .7-1.8 1.9-2 1.5-.2 2.4-2.3 1.9-3.7-.9-2.4-.9-2.4-3.5-2.4-2.3 0-4.6-.1-6.9.3-.6.1-1.3.3-1.7-.4-.4-.7.2-1.2.4-1.6 2-3 3.1-6.4 4-9.8.5-1.8-.7-3.6-.9-5.4-.1-.7-.3-1.4-.5-2.1-.3-.9-.2-1.4 1.1-1-1.6-.8-1.6-1.9-1.7-3.3-.2-2-.5-4-.4-6.1 0-1.2 1-2.2.4-3.4-.2-.4.4-.2.7-.4.3-.2.5-.7.2-.7-1.6-.1-.5-1-.4-1.4.4-1.4.6-2.9 1.1-4.3.7-2.3 2.3-3.9 3.9-5.6.7-.8 1.2-1.8 3-1.4-1.4-.9-1.1-1.5-.3-2 1.2-.8 2.6-1.4 3.1-2.9.2-.4.7-.6 1.2-.7.4 0 .8-.1 1.2-.3 4-1.8 8.1-2.1 12.5-1.9 2.3.1 4.6.1 6.9.1 4.7 0 9.3 1.1 13.6 3.3 2.2 1.2 4 2.8 6 4.2 1.1.8 2 2.1 2.8 3.3.5.7.9 1.6-.7 2.1 1.9 0 2.2 1.1 2.6 2.5.4 1.3.9 2.7 1.5 3.9 1.1 2.1.9 4.4 1.5 6.5.4 1.6.5 3.4 1.9 4.7 1 1 2.2 1.9 3.2 2.8.3.3.6.5 1 .7.9.6 1.5 1.5 1.3 2.4-.3 1.1-1.6.9-2.5 1-1.6.2-3.3.3-4.9.5-1.3.2-2 .6-2 2.3 0 1.2.5 2.7-.8 3.8-.2.2 0 1.3.5 1.9.4.4 1 1.1.5 1.3-.7.3-1.7.6-2.4-.2-1.3-1.6-1.2-1.5-2.9-.2-.9.6-1.7 1.7-3.1 1.5-.5-.1-.9.3-1.2.8-.2.3-.6 1-1 .7-.6-.4 0-.9.1-1.3.3-1.2.6-2.3 2.1-3-1.9-.4-2.4-.1-2.9 1.6-.4 1.3-.6 2.8-2.6 2.4-.2 0-.5.1-.5.2-.4 1.5-1.6 1.4-2.7 1.6-2.3.5-3.5 2.3-3.7 4.9-.2 2.7.7 4.9 2.7 6.7.4.3.9.5 1 1.1.4 1.5 3 4.8 4.7 5.1 2.5.4 5 2.1 7.6.3.4 1.5-.3 2.1-1.5 2.5-1.7.5-3.5.4-5.2.5-2.2.2-4.3.6-5.9 1.9-1.2 1-2.6 2.3-3 4-.1.5-.2 1.1.2 1.5 1.4 1.2 2.6 2.5 4.3 3.4.9.5 1.8 1 2.7 1.6.4.3 1.3.7.4 1.5-.2.2-.1.3.8.4.5.1 1.3-.1.6.8-.2.3 0 .3.2.4 1.2.1 1.6.8 2.1 1.8.6 1.1 1.6 2 2.5 2.8 1.9 1.7 3.5 3.7 5.1 5.6 1.5 1.7 2.9 3.7 4.3 5.6 1.3 1.8 2.8 3.5 4.3 5.1 1 1.1 1.6 2.6 3.2 3.2-.3 1.3.8 1.9 1.5 2.5 1.3 1 1.8 2.6 3.3 3.5 1.1.7 2 .6 3 .1 1.3-.6 2.6-.9 4-.7.9.1 1.5.6 1.8 1.5.5 2.1 2.3 3.3 3.5 4.9.7.9 5 .6 6.3-1 1.8-2.1 4-2 5.7.1.5.6 1.3 1 1.5 2.1-1.4-1-2.5-2.2-4.4-1.6-.7.2-1.2 1-2.1.8-.2 0-.7.2 0 .6 1 .6 1.5 1.5 1.1 2.8-.6 1.9-.1 2.7 1.5 3.2.9.3 2.6-.5 2.7-1.3.1-1.3 1.2-2.2 1-3.9 3.2 2.5 3.5 6.2 5.4 9-.8-.4-1.3-.9-2.3-.5-.7.3-.8-.6-.6-.9.7-1.6-.3-2.9-.7-4.2-.2-.5-.6-.8-1.1-.7-.5 0-.6.4-.7.8-.4 1.4-1.4 2.6-1.5 4.3-.1 1.9-.5 3.9-.8 5.8 0 .2.1.5 0 .8-.1.4-1 .6-.4 1.1.5.5 1.2.7 2 .5 1-.3 1.6-1 2.5-1.7 0 1-.4 1.5-.9 1.9-.7.7-1.2 1.6-.9 2.6.3 1.3 2.1 1.7 3.4.8.7-.5 1.3-1 2.1-1.6l-.2.4c-.2.5-.9 1-.1 1.6.6.5 1.3.5 1.9.1.6-.4 1.2-.9.8-1.8-.2-.5-.2-1.1-.2-1.7-.2-1.4-.7-1.7-2.1-1.1V303c2.2 3 3 5.5 3 8.3 0 1.2-1 1.9-1.3 2.9-.6 2.1-1 4.2-2.3 6.1-.8 1.2-3.7 2.7-5.9 2.6-.1.3.1.4.3.4 1.6 0 1.2.9.4 1.4-.8.6-.7 1.1-.3 1.8.7 1.4.8 2.9.8 4.4 0 .3-.2.5-.4.8-1.6 2.3-3.8 3.7-6.1 5.2-.7.4-1.3.8-1.4 1.7-.2 1.5-1.3 2.5-1.9 3.8-.7 1.4-2.6 1.8-4.1 1.8-2.1.1-3.8 1.4-5.8 1.8-2.4.4-4.5 1.9-7.1 1.9-.9 0-1.9.4-2.3 1.4-.3.7-.9.6-1.4.9 1.3 1.1.9 2.7 1.4 4 .5 1.2.7 2.5 1.1 3.8.3 1.3.3 2.4-.2 3.7-.8 2-.2 4 .2 6 .5 2.3 1.3 4.6.9 7-.3 1.7-1.2 3.2-2 4.7-.5 1-1.1 1.8-.3 2.9.3.5.4 1.3.2 1.9-.5 2.3-1.1 4.6-1.7 6.9 0 .1-.2.3-.3.4-1.4.6-1.8 1.4-1 2.9.7 1.4 1.2 3.1 1.5 4.5.4 1.7 1 3.2 1.7 4.8.5 1-.9.8-.9 1.3 3.6 1.7 7.5.5 11.3 1.2 1.9.4 3.9-.2 5.8.2 3.2.7 6.4.1 9.7.6 1.2.2 2.6.2 3.6-.9.4-.5 1-.9.9-1.8-.4-2.2 1.6-3.9 3.8-3.1.4.1.8.3 1.3.3 2 .1 2.8 1 2.5 3-.1.3 0 .8-.1 1-.9 1.6-.2 2.3 1.1 3.2.7.4.8 1.7.5 2.8-.4 1.7-1.2 2.5-3.1 2.3-2.7-.3-5.4-.1-8.1-.3-2-.2-3.5 1.1-5.3 1.8-1.6.7-3.1 1.8-4.9 2-1.3.1-3.2-1.1-3.4-2.3-.1-.7-.4-.7-1-.8-3.9-.3-7.8-.4-11.7-.1 1.2 2.2 1.3 4.5.1 6.6-1.2 2.1-.3 3.9.4 5.6.6 1.4.6 3 1.4 4.4.4.7-.6.6-1 1.1 2.5.3 2.3 2.6 3.1 4.1.3.5 1.1 1.4.3 2.3.4.1-.1 1 .6.8.5-.1.6.2.5.5-.3 1.7 1.9 2.8 1 4.7 1.7.9 1.2 2.8 1.9 4.1 1.7 2.9 2.2 6.2 3.2 9.3.6 2.1.7 4.4 1.6 6.4 1 2 1.2 4.1 1.7 6.1 1 4 2 8 2.9 12 .4 1.5.6 3.1 1.7 4.4.3.4.6.8.1 1.4-1.5-1.2-1.7-3-2.2-4.6-.3-.8-.5-1.7-1-2.4-.9-1.1-.7-2.5-1.2-3.7-1.1-2.6-.4-5.8-2.6-8-.4-.4-.7-1-.7-1.7 0-1-.2-1.8-.8-2.7-.4-.5-.5-1.2-.3-2 .4-1.5-.2-3-1-4.2-1.2-2-2.3-3.9-2.7-6.3-.4-2.2-1.7-4.4-2.9-6.4-.6-1-.8-2-1-3-.3-1.9-1.5-2.6-3-1.5-1.1.8-2.8.9-3.4 2.5-.3.7-.9.5-.9-.3 0-1-.3-2 1-2.5.2-.1.5-.3.5-.5.1-2 2-3.3 2.4-5.2 0-.2.2-.6.1-.7-1.1-1-.8-2.7-1.8-3.7-.5-.5-1.1-.6-1.4 0-.5 1-1.7 1.3-2.2 2.2-.2.3-.5.4-.8.3-.4-.1-.3-.5-.3-.8.1-1.4-.6-2.7-.4-4.1.1-.5-.7-.9-1.3-.8-.6.1-.8.6-.7 1.2.1.8.3 1.8.7 2.4.8 1.5.8 2.8.3 4.4-.7 0-.5-.7-.8-1-.2-.3-.4-.4-.8-.4-.3 0-.4.3-.5.5-.1.5 1.3 3.5 1.7 3.6.4.1.8.1 1.1.1.1.5-.3.5-.5.7-1.1 1-1.2 2.1-.2 3.2.8.9.4 2.2 1.3 3.1 1.1 1.1 1.7 2.4.5 3.8-.1.1-.1.2-.3.7-.3-1.3-1.3-1.8-1.4-2.9 0-.5-.6-1.1-1.1-1.5-.7-.6-1.5-.6-1.7.6-.2.8-.2 1.6-1.3 1.9-.3.1-.5.5-.3.9.3.5.7.8 1.3.7 1.5-.4 2.2 0 2.1 1.7-.1.8 1 1 1.4 1.7.5 1.1 1.5 1.9.4 3.2-.5.6-.2 1.6 0 2.4.5 1.8.5 1.8-1.3 1.9 1.7 1.7 2.7 3.8 3.9 5.7.6 1 .5 2.3 1.2 3.3.4.5-.3.9-.8 1-.7.2-.9.5-1.2 1.3-.6 1.7-.7 3.6-1.8 5-.6.8-.1 1 .2 1.2.5.2.7 1.3 1.6.5.8-.7.9-1.8 1.2-2.7.5.3.4.6.3.9-.8 2.6.1 4.9 1.4 7 .3.5.6 1.1 1.4 1h.3c1.3 2 3.5 1.6 5.5 2.1.3.1.7.2.7.5 0 .4-.4.4-.6.6-1.7 1.6-3.1.2-4.5-.4-1.6-.6-3-1.2-4.5.3-.6.6-1.7.4-2.6.4-.4 0-.8-.2-1 .1-.4.5-1.4.8-1.2 1.5.2.8 1.1 1.1 1.9 1 2.3-.4 4.4.5 6.7.8.6.1 1.3.3 1.8 1 .6.9 1.7.4 2.6.3.8-.1 1.5.1 2.3.1.3 0 .9.2.8.6-.1 1-.6 2-1.3 2.5-.7.5-1.9.6-2.5-.6-.5-1-1.4-1-2.2-.8-1.4.2-2.5 0-3.7-1-2.7-2.2-5.9-2.1-8.1 0-.1.3.2.3.4.4 2 .9 2 1 .4 2.5-.5.4-.4.6.1.8.9.4 2.6-.2 3.2-1.2.7-1.3 1.6-1.6 2.9-.6.5.4.9.4 1.5.4 1.5-.1 2.9.6 4.3.8.3.1.8.3.7.7-.2.5-.7.5-1.2.3-2.2-.6-4.4-1-6.7-.8-.8.1-1.4.5-1.7 1.1-.2.5 0 1.4.4 1.5 1.1.2 2.1.8 3.3.6 2.1-.3 4.3-.6 6.3.4 1 .5 1.8.6 2.9 0 1.2-.7 2.7-.8 3.9-1.6.5-.3 1.5-.6 2.2.3.2.2.8.1 1.2.2.3 0 .6.1.9.2-.3 1.5 1.3.9 1.7 1.7.4.8.9 1.8.4 2.4-1.4 1.7-.9 4.1-2.1 5.8 0 0 .3.9.4 1.5.1.5.4.8-.3 1.1-.4.1-.1.2.1.4.8.6 1.1 1.4.5 2.2-.5.7-.7 1.2-.4 2 0 .1.1.4.1.4-1.4 1.5.3 3.9-1.5 5.4-.5.4.5.4.7.7.1.3.3.6.2.8-.2.4-.5.1-.8 0-1.2-.5-1.7-2.3-.9-3.4.3-.4.5-.8.7-1.2.4-.6-.2-1-.6-.9-1 .2-1.8.1-2.6 1.5-1.7 2.7-1.9 6.2-4.6 8.4-1.7 1.4-1.4 4-1.7 6.1 0 .3.3.4.6.3.4 0 .6-.2.5-.6-.1-.7-.2-1.8.6-1.7.8.1.5 1.3.4 2-.5 3.4-1.3 4.1-4.9 4.2-1.1 0-2 .4-2.9.9-.5.2-1.1.3-1.3-.1-.3-.5.2-1 .6-1.2 1.5-1 2.4-2.6 3.9-3.7.8-.6.6-1.9.5-2.9-.1-.4-.6-.5-1.1-.3-.6.3-1.1.5-1.6.9-.9.7-1.9 1.3-3.1 1.1-1.5-.2-2.3 1-3.1 1.8-.7.7-1.3 1-2.3.8-2.3-.5-5 1.1-5.9 3.8-.3.7 0 1 .3 1.4.4.5 1 .9 1.6.5 1.4-.8 2.9-1.2 4.5-1.3.5 0 1-.1 1-.9.1-.7.8-1.1 1.4-.6.4.3 1.4.6.4 1.5-.4.3-.3 1.1-.6 1.7-.6 1.1-1.3 1.6-2.5 1.8-2.1.3-2.7 3.2-1.7 4.6.5.7 1 1.2 1.5-.1.2-.6.4-1.3 1.4-.4.5.4 1.6.4 2.3 1 .4.4.9-.3 1.2-.9.5-1.2 3.2-2.5 4.3-2 .8.3.3 1 .2 1.5-.1.5-.5 1.1.3 1.2.6.1.7-.5.8-.9.1-1.2.7-2.1 1.6-2.9.2-.2.4-.4.4-.6-.1-1.4.9-1.3 1.8-1.4 1.1 0 1.5.4 1.6 1.5.1.7.4 1.5.5 2.2.1 1.6-1.3 2.2-2.2 3.1-1.6 1.6-3.4 3-5.6 3.8-.3.1-.5.4-.4.7.2.5.3 1.1.9 1.1.5 0 1.3.3 1.5-.5.4-1.7 1.4-2 2.8-1.3v.2c-.3.5-.8.9-.5 1.5.1.3.4.2.7.2.7-.1 1.7-.2 1.8-.9.2-2.2 2.2-1.9 3.4-2.4.7-.3 1.4-.2 1.5-1.3.1-1.2 1.4-1.1 2.2-1.6.2-.1.6.2.4.6-.1.4-.3.8-.5 1.1-.3.5-1.1.7-.8 1.5.3 1 1.1 1.7 1.8 2.4.8.7 2.3-.3 3-1.7 1.1-1.9 2-3.9 1.8-6.2-.1-1.3-1.4-2.2-2.5-1.4-.7.5-1.2.5-1.8.1-1.2-.7-2.5-.1-3.9-.3.3-1-.1-2.4 1.4-2.8.2 0 .3-.3.3-.5.7-2.7 2.6-4.5 4.9-5.7 1.5-.8 2-2.3 3.3-3.7-.5 2.3-1.1 4.3-.9 6.3.3 2.8-.5 5.7.1 8.5.2 1.2-.3 2.4-.5 3.5-.4 2.3-.3 4.5-.2 6.7.1 1.5-1.2-.1-1.4.7 2.5 1.2.1 2.5-.4 2.7-2.7 1.6-2.7 4.2-2.9 6.7-.1 1-.4 1.3-1.4 1.2 1.2.2 1.7.7 1.1 1.8-.5 1.2.3 2.4.1 3.6-.3 2.1-.5 4.3-.2 6.4.2 1.4.4 2.9.4 4.2-.1 3.3-.7 6.6-.9 10-.1 1.6-.2 3.2.2 4.9.4 1.8-.3 3.4-1.8 4 0 .5 1.3-.1.8 1-.3.6 1.5.7.8 1.7 1.7 1.7 2.3 4.2 4.2 5.7 1.4 1.1 3 2 4.6 3 .2.1.6.3.6.4.1 2.1 2.2 1.4 3.2 2.2 1.2.9 2.4 1.4 3.8 1.7 3.1.7 6.3 1 9.4 1.2 3.3.3 5.8 2.2 8.1 4.3.7.6 1.1 2.2.5 3.6-.2.6-.6 1.4.3 2.1.6.5-.3 2.8-1.4 3.2-2.4 1-4.8 2-7.5 2.1-2.3 0-4.3 1.1-6.5 1.7-3.1.7-6.1 1.2-9.2 1.4-3.3.2-6.4-.3-9.5-.6-2-.1-3.9-1.2-5.9-1.5-1.9-.3-3.8-.1-5.8-.4-.8-.1-1.8.5-2 1.6-.2 1-.7 1.4-1.8 1.5-5.4.8-10.6-.4-15.8-1.5-1.1-.2-2.2 0-3.3-.4-1.2-.5-2-1-2.1-2.6 0-1.6-.8-3.3 1.5-4-.7-.5-1-.1-1.4 0-.5.2-.7-.1-.7-.5.1-4 0-7.9-.4-11.9-.1-1.1.6-2.1 1.2-2.9.4-.5.5-.7.4-1.2-.3-2.3 1.2-4.2 1.4-6.4.1-1.8.6-3.6.2-5.4-.3-1.4-.1-2.9.1-4.4.1-.9.2-2 0-2.8-.3-1 .4-2-.4-3-.3-.3-.2-1.9 1.4-1.5-.3-.7-1.5-.8-1-1.8.4-.9.9.6 1.4-.1-.1-.6-.6-.4-1-.4-.5-.1-.8-.3-.7-.8.3-2.1-.7-4.1-.6-6.2.1-2.3.2-4.6 0-6.8-.3-3.2-.2-6.7-2-9.7-.3-.5-.6-.8-1.1-1-1.7-.8-2.8-2-3.1-4-.1-.5-.6-1.2.4-1.5.1 0 .2-.3.2-.4-.7-2.9-.1-5.8-.6-8.7-.5-2.9-.4-5.8-.7-8.7-.2-1.6-.5-3.4 0-5.1.4-1.4-.8-2.9.3-4.3-1.1-.9 0-2-.4-3-.4-1.1-.2-2.2-.3-3.4 0-1.1-1-1.8-1.3-2.7-.9-2.5-.2-4.9.8-7.2.6-1.4.7-2.5-.5-3.5-2.6-2.1-2.4-5.2-.2-7.7.5-.5.4-2.3-.2-2.6-1.4-.8-2.4-1.7-2.8-3.3-.3-1.3-1.6-2-2.3-3.2-.8-1.4-1.4-3-2.2-4.4-.3-.5-.4-1-.9-1.4-.2-.2-.5-.4-.1-.7.7-.6.7-.6-.1-1.1-.9-.6-1.5-1.1-1.6-2.5-.1-1.9-1.3-3.4-2.9-4.6-.6-.5-1.1-.2-1.4.4-.9 1.9-2.4 3.5-2.5 5.8 0 .1-.1.3-.2.4-1.4.9-1 2.6-1.6 3.9-1.3 2.8-1.5 5.8-1.7 8.8-.1 1.3-1.1 2.4-1.4 3.5-.4 1.3-.9 2.6-1.4 3.8-.7 1.8-1.3 3.8-2.8 5.1-.4.4-.7.8-.8 1.2-.2 1.7-1 3.1-1.5 4.7-.5 1.5-1.2 3-1.8 4.4-.8 2-2.5 3.5-3.4 5.2-.9 1.7-2.8 2.6-3.2 4.6 0 .2-.4.3-.6.5-2.2 1.5-3 3.8-3.3 6.3-.3 2.8-1.8 5.1-3.3 7.3-.4.6-1.4 1.2-2.1 1.4-2.2.6-2.3 2.6-3.3 4.1-.9 1.4-1.9 2.9-2.7 4.3-1.1 2-2.8 2.6-4.5 3.7-1.5.9-3 1.2-4.5 1.8-2.7 1-3.3 3.9-4.8 6-1.9 2.8-3.3 5.9-5.4 8.7-.5.6-.7 1.4-1.6 1.6-.1 0-.2.1-.2.1.3 2.4-1.5 4.1-2.1 6.3-.1.4-.4.8-.8.9-.6.2-.8.3-.3.8.2.2.1.5-.2.7-1.9 1.8-2.3 4.6-3.7 6.7-1.3 1.9-1.5 4.7-4.3 5.6-.9.3-.7 1.1-.4 1.7.4.8.5 1.7.6 2.5.1.9.2 1.8-1.1 2.2 1.3-.2 1.9.6 2.1 1.2.7 1.7 1.9 3.1 2.9 4.6.9 1.3-.8 1-.8 1.8 2.3-.6 1.4 1.8 2.4 2.5.9.7.6 1.9 1.1 2.8 1.3 2.3 3.4 3.6 5.5 4.9 2.6 1.6 5.5 2.6 7.6 5.2 1.5 1.8 3 3.4 3.2 5.7.1 1.2.4 2.4-.2 3.6-.4.8-.3 1.8-.5 2.8-.4 1.7-1.5 2-2.7 2.1-3.4.2-6.7.3-10.1.1-1.3-.1-2.7-.3-4 .2-.8.4-1.3-.4-2-.6-1.9-.6-3.9-.5-5.6-1.3-1.5-.7-3-1.5-4.1-2.7-.2-.3-.5-.6-.8-.7-3.1-.6-4.8-3.2-7-5.1-1.8-1.5-3.7-2.8-5.2-4.6-1.3-1.6-3.4-2.3-4.9-3.8-.7-.7-2-.2-3-.3-2.4-.2-4.4-.6-6.4-2.4-2-1.7-3.9-3.4-5.6-5.4-1.3-1.5-2.8-2.9-3.3-5-.1-.6-.2-1.2 0-1.6 1-1.8 1.5-3.9 2.2-5.8.4-1.2 1.4-2.3 2-3.5 1-2.2 2.8-3.7 3.9-5.7.6-1.1 1.7-2 3-2.5 1-.4 1.4-.9 1.7-2.2.3-1.6.6-3.5 2-4.8.4-.4.6-1 .7-1.5 1.3-4.3 2.6-8.6 4.2-12.8.6-1.5 1.2-3.1 1.6-4.8.4-1.7 1.2-3.3 2-4.9.7-1.4.9-3 1.8-4.3.9-1.3 1.4-2.9 2.8-3.9.8-.5.5-1.9 1.2-2.7.9-1.2 1.3-2.6 2.1-3.8.6-.8.5-1.7.6-2.6 0-.7.3-1.3-.5-2.2-1.2-1.4-1.3-3.7-1-5.8.2-1.7.9-3 2.4-4 .1-.1.2-.1.2-.2 1-3.1 3.9-5.5 3.9-9.1-.1-2.7 1.6-4.5 3-6.5.1-.1.4-.2.4-.3.2-1.9.8-3.4 1.9-4.9.1-.2.3-.4.3-.7.5-2.7 2.2-4.6 4.1-6.3.6-.5 1.1-1.1 1.3-1.8.4-1.6 2-2.5 2.3-4.1.1-.5.4-1 .3-1.6-.4-2.2.5-4.1 1.4-6 .7-1.5.3-2.6-1.3-3.2-2.3-.8-3.9-2.4-5.5-4.1-2.6-2.7-5.3-5.3-6.8-8.9-.3-.8-1.1-1.3-1.6-2-.4-.6-1.2-1.3.3-1.9-1.3 0-1.7-.7-2.1-1.5-1.4-2.8-2.8-5.7-4.2-8.5-.9-2-2.2-4-2.7-6-.8-3.1-2.6-5.7-3.3-8.8-.3-1.7-1.5-2.4-3.2-2.8-3.7-.9-6.5-4.4-6.1-7.8.1-1 .4-1.9 1-2.7.9-1.2 1.7-2.6 2.9-3.5 2.3-1.8 2.3-4.1 2.1-6.6-.2-2.5-.6-4.9-.8-7.4-.2-1.9.1-3.9-.3-5.9-.2-.7.6-1 1.3-1.2-.7-.4-1.4-.8-1.4-1.6 0-1.1-1.5-1.5-1.1-2.8.3-.9.6-1.4 1.6-.9 1.2.6 2.1.3 3-.6 1-.9 2.6-.9 3.4-2.3.3-.6.9-.9 1.1-1.7.2-1 1.4-1.3 2.4-1.7 1.1-.5 1.6-1 .4-1.9-1.8-1.4-3.2-3.2-4.2-5.3-.5-1.2-1.6-2.2-1.6-3.5 0-1.8-.9-3.7-.4-5.4.4-1.4.6-3.2 2.4-4 .5-.2 1.3-1.3 1.4-2.3 0-.5.2-1 .6-1.2 1.3-.8 1.7-2.4 2.4-3.6.4-.6.6-1.2 1.3-1.5.2-.1.4-.3.4-.4-.1-2.3 2.3-3.1 3-4.9.6-1.8 2.5-2.7 3.6-4.1 1-1.3.8-2.1.1-3-1.2-1.4-2.3-3-3.7-4.3-1.1-1.1-1.2-2.3-1.4-3.5-.3-2.3-1.3-4.3-2.6-6.3-.5-.8-.7-1.8-1.1-2.7-.9-2.1.3-4.2-.4-6.1-.8-1.9-.2-3.8-.3-5.6 0-.3 0-.6.1-.7.6-.5 1.4-.7.3-1.7-.5-.5 1.1-.2 1.2-1-2.6-.6-1.1-2.7-1.4-4.1-.5-1.8.4-3.9-.1-5.9-.4-1.4.5-2.7.5-4.2 0-2.3.5-4.6.3-6.9-.2-2.8-.6-5.6-.5-8.4.1-1.6.8-3.1 1.1-4.6.3-1.2.9-2.3 1.1-3.5.2-1.7.6-3.3 1.4-4.9.7-1.2 1.4-2.4 2.1-3.7.5-.3 1.2.4 1.8.8.4.4.7.9 1 1.3.2.3.6.4 1 .2.2-.1.4-.2.4-.4.1-.5-.4-.5-.7-.7-.5-.2-1.1-.5-1.7-.4zm55.1 101.5c-.8 0-1.6-.1-1.8 1.1-.1.8-.6 1.1-1.5.9-.2 0-.4 0-.5.2-.1.2-.1.4.1.5 1.1.4 1.6 1.6 2.6 2.1.7.3 1.4.9 2 0 .5-.8 1.2-1.8-.2-2.6-1-.6-1.3-1.3-.7-2.2.5-.4.7.2 1.1.4.5.3 1.2.3 1.2-.5 0-1.1-1.1-1-1.8-1.4-.5-.2-1.1-.4-1.3.2-.3.7.7.7.8 1.3zm-62.4 222.9c.9 1 2.1 1.1 3.3.7.8-.2 1.5-.2 2.2.1 1.2.5 2.4.4 3.8-.2-1.1-.4-.9-1.8-1.9-1.9-2.6-.3-5.2-.2-7.4 1.3.1-.4-.1-.7-.4-1-1.9-1.9-1.9-2.2-.3-4.5.2-.2.3-.4.1-.7-.6-.8-1.4-1.1-2.3-.9-.9.2-2.2.6-2 1.6.2 1.4-.4 3.1 1.3 4.3 1.2.7 2 1.7 3.6 1.2zm122.9-88.5c.5.3 1 .3 1.5.3.3 0 .7-.2 1 .2.2.4-.1.9-.3 1-1.3.6-2 1.8-3 2.6-1.1.8-1.9 1.8-2.6 3-.1.2 0 .7-.3.5-1.2-.5-1.3.8-1.9 1.1-1.3.8-1.4 2.7-3.2 3.1-.7.2-.7 1.2-.6 1.9 0 .4.2.8.6.8.7 0 .7-.8 1.1-1.2.1-.1.2 0 .4-.1.1.4.1.9.3 1.3.2.6.8.7 1.1.2.4-.8.7-2 .6-2.7-.1-.8.1-.8.6-.8s1-.1 1.5-.1c.7 0 1.9-.5 1.9-.6-.3-1.6.8-1.3 1.7-1.4.8-.1 1.3-.1 1.5-1.1.2-.9.8-1.8 2-2.1 1-.2 2.1-.9 2.2-2.1.2-1.3.9-2.1 1.9-2.8 1-.7 1.1-2.1.9-3-.2-.7-1.4.3-2.2.3 0 0-.1 0-.1.1-.7.3-1.3.5-.9-.7.3-.9-.3-1.5-1-1.2-2 .9-4.2 1.1-4.7 3.5-.7.2-.7.3-.9-.5-.1-.6-.3-.8-.6-.1-.2.4-.4.6-.8.3-.2-.2-.7-.5-.5-.7.8-.7.3-1.1 0-1.7-.5-1.1.1-3 1.2-3.5.8-.4 1.1-1.1.9-1.7-.1-.7-.9-.8-1.6-.9-1.7-.1-3.5.7-5-.8-.4-.4-1.1.2-1.3.7-.3.5.2.8.6.9 1.2.3 2.3 1.1 3.5 1.5.5.2 1.2.1 1.2.7s-.2 1.2-.8 1.5c-1.1.7-2.2 1.4-3.2 2.1-.9.6-1.2 1.1-.4 2.2.7 1.1 2.2 1.1 2.6 2.6.3 1.1.7 2.2.8 3.8 1.3-2.5 1.9-4.9 4.5-5.8.1 0-.2-.4-.2-.6zm-38.4-77.2v-.6c.6-1.6.9-3.2 1.1-4.9.2-1.3.1-2.7 2.1-2.7.6 0 .4-.7 0-.9-1.6-.8-3.3-1-5-.8-.8.1-1.5.9-1.3 1.5.3 1-.3 1.7-.5 2.6l-.9 3.3c-.5 2-.8 3.9-1.9 6.2 0 0 .1.1.1.2.4 1.4-.1 2.8-.5 3.9-.7 1.9-.9 4-1.4 5.9-.7 2.7-1 5.4-2.7 7.7-.2.2-.2.5 0 .7 1 .8.8 2 .6 2.8-.4 1.2-.5 2.6-1 3.8-.6 1.5.2 2.4 1.8 2.5 1.3 0 2.6-.3 4 0 .5.1 1.2-.2 1.5-1.1.5-1.1.6-2.2.8-3.3.5-2.6 1.4-5.1 1.9-7.7.5-2.8 1.3-5.4 2-8.1.5-1.9.8-3.8 1.4-5.7.3-1.1-.1-2.4 2-2-1.4-1-1.2-1-.8-3.8.2-1.5 1.3-.4 1.8-.9-1.5-.7-1.7-1.3-1-3.2.3-.7.9-1.7.5-2-.8-.7-1.4.5-2.1.8 1 .5 1 .5.5 1.3-.2.3-.5.6-.4.8.5 1.4-.6 2.3-1 3.5-.4.3-1 .4-1.6.2zm-12.8-120.2c-1.1.3-2.2-.3-1.9-.9.7-1.3-.3-2.7.7-3.9.8-1-.3-2.4.5-3.4-1.6-.7-.4-1.5-.2-2.4.6-1.9 1.3-3.9-.3-5.7-.2-.2.1-.5.1-.7.3-1.7.7-3.3.7-5 0-1.9-.1-3.7-.3-5.6-.3-2.2.3-4.6.1-6.9-.2-2.9-.4-5.9-1.1-8.8-.4-1.6-.4-3.6-2-4.8-.2-.2-.2-.4-.2-.7-.2-4.1-.4-4.7-3-7.6-.7-.7-1.6-1.4-2.7-1.4-1 0-2 .5-2.8 1-.5.3 0 1.5.3 2.2-.8.4-1.5.1-2-.4-2.7-2-6.1-1.9-9.2-2.8-1.3-.4-1.9-1.2-2.5-2-.6-.9.8-.8 1-1.4 0-.2.3-.3.4-.5.2-.4.8-.8.4-1.4-.4-.4-.8-.6-1.4-.6-2-.2-4 .1-5.9.3-2.1.2-3.4 1.7-4.9 2.8-.3.2-.5.6-.3 1 .3.4.7.3 1.1.1 1.5-.6 3.1-1 4.8-1 .7 0 1.5-1.1 1.8-.3.2.7-1.2.9-1.8 1.2-.1 0-.2 0-.3.1-.7.1-.7.6-.6 1.2.2.8.8.9 1.4.9 1.6 0 3.3 0 4.9.1.4 0 1.1 0 1 .6-.1.5-.7.4-1.1.3-.7-.1-1.4 0-2.1.1-1.9.2-3.1 1.8-4.9 2.1-2.3.4-4.2 1.4-5.6 3.3-.3.4-.7.3-1.1.4-.7.2-1.4.4-1.9 1-1.2 1.5-.5 3.8-2.3 5 0 0 .1.3.2.4.4.5.1 1-.1 1.5-1.2 2.7-2.9 5.1-5.1 6.9-1.5 1.2-2.3 2.9-3.7 4-.9.8-.9 2.1-1.8 2.8-.7.6-1.4 1.1-1.1 2.2.1.4-.2.7-.5.9-.5.3-.6.7-.2 1.1.5.5.8-.1 1-.3.8-.7 1.9-1 2.2-2.3.2-1 1.7-1.1 2.2-2 1.1-1.8 2.8-3.1 3.5-5.1.2-.5.6-.9 1.1-1.2 1.3-.9 1.9-2.3 3-3.3s1.3-2.5 2.5-3.3c.4-.3.9-.8 1.3-.4s-.1.8-.5 1.1c-.3.2-.1.6-.3.8-.5.8-.3 2.3-1.9 2.2-.4 0-.5.3-.3.7 1 2.2-.6 3.7-1.8 5-1.4 1.4-1.8 3.8-4.2 4.2-.1 0-.1.4-.3.5-.7.7-1.6 1.9-2.2 1.8-1.2-.1-1.5.5-1.9 1.3-.3.6-.6 1.2-1.4 1.3-.2 0-.6.1-.5.4.1.3.3.4.6.4 1.2-.1 1.7.9 2 1.6.3.5-.8 1-1.4 1.3-.3.2-.6.6-.9.8-1 .6-1.5 1.8-2.6 2.3-1.6.6-2.7 2-3.8 3.1-2.7 2.6-2.9 6.4-5 9.4-.8 1.2-1 2.8-1.6 4.2-.5 1.3-.6 2.3-.2 3.6.3 1.1.2 2.3-.3 3.5-.3.6-.6 1.1-.6 1.7-.1 1.4.5 1.9 1.9 1.5.7-.2 1.4-.5 2.1-.6.6-.2 1.3 0 1.6.6.3.6-.4.8-.8 1.1-.4.2-.8.5-1.1.7-1 .7-2 1.4-2.9 2.1-.7.6.8 1.1.5 1.7-.7 1.6.3 2.1 1.4 2.6.3.2.7.4.8.7.8 3.1 3.8 3 5.9 4.2 1.4.8 2.9.5 4.5.4 2.1-.1 4.2.1 6.3.2 1.3 0 2.7 0 3.8 1 .8.7.8.7 1.1-.3 0-.1.2-.3.3-.3.5 0 1.2-.4 1.6.1.5.6-.3.8-.5 1.2-.3.5-.9.7-1.4.9-1.9.6-3.8.8-5.7 1-1.5.1-3 .3-4.2 1.6-.7.7-1.8 1.4-2.6.3-2.3-2.8-5.8-2.3-8.4-1.2-.3.1-.5.4-.4.7.6 1.6.9 3.3 2.9 3.9 1.3.4 2.7.7 3.9 1.4 2.4 1.4 4.4-.6 6.6-.8.5-1.5 2.1-1.2 3.2-1.6.5-.2 1.3-.5 1.4.2.1.6-.3 1.2-1.1 1.4-1.3.3-2.4.7-3.3 2-1 1.5-2.3 3-4.4 3.3-.3 0-.5.3-.3.7.2.5.3 1 .3 1.5-.1.7.9.8.9.7 1-.9 2.2-.4 3.2-.5.4-.1.8-.2.8-.8 0-.4-.2-1.1.5-1 .7.1.3.7.4 1.1.1.5.2.9.8 1 1.3.3 3.8-1.2 4-2.6.1-.8.4-1.4 1.1-1.7.7-.3 1-.4.9-1.2-.1-.7.5-1 1.2-.8.8.2.2.8.1 1.1-.8 2.4-1.8 4.6-4.2 5.9-1 .6-1.8 1.5-2.6 2.3-1.3 1.5-1.3 1.9.2 3.2 1.3 1.2 4.2 1.1 4.9-.2 1.3-2.3 2.6-2.8 5.1-1.9.4.1.8.2 1.2 0 .2-.1.5-.2.7.1.2.2 0 .5-.1.7-.6 1-1.6 1-2.5 1.2-.9.3-2 .5-2.2 1.4-.4 1.8-1.1 3.5-1.6 5.3-.2.7-.1 1.8.8 2.5.8.6 1.4 0 2.1-.3 1-.5 1.8-1.3 2.7-2 .2-.2.5-.4.8-.2.3.2.4.5.3.8-.5 1.7.8 1.9 1.8 2.4.4.2 1 .2 1.5.3.4.1.8.2.8.7 0 .5.2 1-.3 1.2-1.3.6-1.7 2.2-3.1 2.7-.4.2-.4 2.7-.1 2.8.8.4 2.7-.8 2.7-1.7 0-.4-.1-.8-.1-1.2 0-.4-.1-.9.4-1 .6-.1.6.4.6.9.1.8.2 1.6.3 2.3.7-.1.8-.5.8-.8.1-1.3.5-1.9 1.9-1.5.7.2 1.4-.1 2.1-.3 3.3-1 6.2-3.1 9.9-2.9 1.2 0 1.3-.7.8-1.7-.4-.8-.9-1.5-1.2-2.3-.9-2.8-2.1-5.5-4.6-7.3-.2-.2-.5-.4-.6-.7-.7-1.8-1.6-3.4-2.9-4.8-.5-.6-1.2-1.5.5-2-1.2-.1-1.8-.4-2.2-1.5-.4-1-.3-2.3-1.3-3.2-.6-.5-.9-1.5-1.7-1.6-1.1-.1-1.8-.7-2.4-1.5-.5-.6-.7-.6-1.2-.2-.8.6-1.3.4-1.8-.5-.8-1.2.2-2.1.2-3.2 0-.3-.2-.8.4-.9.5-.1.9 0 1.3.3l.6.9c.4.5 1 .4 1.6.2.6-.2.3-.8.2-1.2-.4-1.8-2.3-3.5-4.2-3.6-.5 0-.8 0-.8-.7 0-1.5-.9-2-2.3-1.5-.3.1-.5.2-.6-.1-.4-1.7-1.5-1-2.4-.8-1.3.3-2.4-.1-3.7-.2.9-.4 1.2-.9 1.1-1.9-.2-1 .3-1.7 1.4-2.1 1.2-.4 2.3-1 3.6-1.5-.9-1.1-1.2-2.5-2.6-3.2-.5-.2-.4-.8-.1-1.4.4-.6.1-1.1-.4-1.5-1.7-1-3.5-1.3-5.3-.2-1.7 1.1-3.7 1.5-5.6 2-1.1.2-2.3-.2-2.7-1.2-.4-.8 0-1.9.7-2.6 2-2 4.3-3.4 7.2-4.1 1.9-.4 3.9-.7 5.7-1.5-.8-.6-1.5-.4-2.3-.4-2.1-.1-4.3.2-6.4-.5-.5-.2-.8-.5-.9-.9-.1-.6.5-.5.8-.7.4-.3 1.1-.4 1.3-.8.9-1.8 2.7-1.8 4.2-2.2 1.7-.4 2.4.1 3.5 1.9.1.1.3.1.4.1 1.4.1 2.7.8 4.1 1.2.7.2 1.3.5 1.7 1.3.4.7 1.6.5 2.4.3.9-.3.7-.9.5-1.5-.5-1.2-1-2.1-2.6-1.8-1.6.3-1.6-1.3-2.3-2.1-.3-.3-.3-.7.1-.9.8-.6 1.5-.1 2.3.2 1.5.5 2.6 1.7 4.3 1.8.9 0 2.5.9 1.8 2.7-.2.4 0 1 .7.9 1.3-.4 2.8-.7 3.4-2.1.8-1.7 1.4-3.4 2.7-4.9 1.4-1.7 2.5-3.8 3.9-5.6.4-.5.9-.9 1.1-1.7.4-1.4.1-2.8.4-4.1.2-.6 1.6-3 2-3.4 1.1-1.1 2.8-1.8 2.8-3.7 0-.5 0-.9.2-1.4 1.2-2.4 2.6-4.8 2.8-7.6.1-.7.3-1.1 1.1-1.3.5-.1 1-.2 1-.9 0-1.1-1-1.2-1.6-1.7-.4-.3-.8-.1-1.2.3-.6.5-.5 1.1-.8 1.7-.2.5-.7.9-.9 1.5-.4 1.4-.8 3.2-1.6 4.2-2.2 3-3.4 6.5-5.5 9.5-.9 1.2-2.2 2.4-1.8 4.3.1.4-.5.7-.9.7-1.8 0-2 1.4-1.6 2.4.5 1.2-.1 1.6-.7 2.1-.9.7-1.5 1.6-2.1 2.6-.5.8-1.7.9-2.1 2-.4 1.1-1.5 1.2-2.5.5-1.3-.9-2.4-2-4-2.4-.6-.1-1.5-.2-1.9-.6-2.1-2.4-4.5-1.5-6.9-.9-1.6.4-3.3.6-5 .5-1.2-.1-1.4-.8-1.2-1.8.2-1.1.7-1.9 1.9-2.5.8-.4 1.6-.9 2.1-1.7.9-1.7 2.1-3.1 4.1-3.7 1.1-.4 2.3-.1 3.4-.7.3-.2.6-.4 1-.1.3.4 0 .7-.1 1-.5 1.2-1.4 2.2-1.6 3.6-.1.5-.3.9.3 1.2.5.3 1.3.3 1.4 0 .6-1.4 1.8-.9 2.7-.9.3 0 .8-.6.6-.9-.2-.3 0-.5.2-.7.3-.5.4-.9-.2-1.2-.3-.2-.4-.5-.1-.6.8-.4 1.6-.7 2.4-.9.5-.1.5.3.3.7-.4.8-.2 1.5.2 2.3.2.6.5 1.1 1.1 1.1.8 0 .7-.7.7-1.3.1-1 .5-1.5 1.5-.9.8.4 1.7.7 2.2-.1.6-.9.8-2.3-.2-3-1.8-1.3 0-1.5.5-2.1.2-.3.8.1 1.1-.4-.6-.8-.6-.8 0-1.3 2.4-1.8 3.9-3.9 3.6-7.1-.1-1.3 1-1.9 2.1-1.3.9.5 2.9-.2 3-1.1.1-1.3 1.2-1.8 1.8-2.7 1-1.3 1.8-2.8 1.6-4.6-.3-2.2-.9-4.2-2.6-5.7-.4-.4-.4-.8 0-1.2.5-.4.8.1 1 .4.2.2.3.5.4.8.7 1.2 1.3 2.5 2.4 3.4.3.3.6.4.9.3.4-.2.3-.5.3-.8.2-1.3-.3-2.4-.9-3.4-.2-.4-.4-.7-.5-1.1 0-.3 0-.5.3-.6.3-.1.5.1.5.4.1.9.7.9 1.3.9 1.3 0 2.1 1 2.3 2 .5 2.2.6 4.5.4 6.7-.1 1.9-.6 3.8.6 5.5.4.6.4 1.4.2 2.2-.7-.6 0-1.5-.7-1.9-.5-.3-1-.3-1.5-.1-.8.2-.9.9-.9 1.6 0 2.1.5 4.1-.1 6.2-.2.5-.4 1.2-.1 1.8.7 1.1-.6 1.7-.7 2.4-.1.7.8 1.6.1 2.3-.8.8-.3 1.5-.2 2.3.2.8.8 1.2 1.6 1 .9-.2.7-.8.6-1.4-.1-.5-.1-1.1.2-1.6.1-.2.4-.2.5 0 .4.5.6 1.1.4 1.7-.1.2-.2.4-.2.6.3 1.7-1.5 3.1-.9 4.9.1.2 0 .5-.1.6-1.3.5-.6 1.3-.2 1.9.6 1 .8 2 0 3-.3.4-.3.9-.1 1.3.3.4.1.7 0 1.2-.5 1.8-2.5 2.8-2.7 4.6-.1 1.4-1.7 2.8 0 4.2.4.3 0 .5-.2.8-.5.8-1 1.7-1.8 2.3-.6.5-.9 1.3-.5 1.7.5.6.9-.2 1.4-.5 1.6-1 2.6-2.8 4.7-3.2.7-.1 1.5-.1 2.4-.5-.5-.2-.9-.2-1-.4-.2-.4.3-.6.6-.7 1-.5 1.8-1.6 1.9-2.2-.2-1.3.4-2 2-2.1zm-44 138.5c-1.5.1-1.6-.5-.9-1.3.6-.7.5-1.7.2-2.1-.5-.7-.2-1.3-.3-2-.3-2.3 1-4.6-.1-6.9-.5-1-.9-2.5-1.6-3-2.1-1.6-4.5-3.1-7-3.6-3.4-.7-4.4-3-5.4-5.7-.3-.9-.6-1.7-1.6-1.9-1.1-.2-1.6.6-2.1 1.2-1.7 2.4-3.5 4.7-6.1 6.2-.5.3-.6.8-.7 1.3-.7 2.6-1.5 5.2-4.3 6.4-1 .4-1.2 1-.7 2.1.8 2 1.4 4 2.2 6.4-1.2-.9-1.6-.4-1.8.4.5.2.9-.1 1.4-.2.4-.1.8 0 .8.5 0 1 1 1.6 1 2.5 0 1.2 1.9 1.9.9 3.3 1.8 1 2 2.8 2.6 4.5.8 2.4 2.9 4.3 3.4 6.9.1.4.4.5.6.8 1.3 1.6 2.6 3.1 3.6 4.9 1.1 2 2.5 3.6 3.9 5.3.8.9 1.9 1.5 2.8 2.2.8.7 1.5.5 2.4.2.9-.4 1.2-1.4 2-1.8 1.3-.9 1.8-2 1.6-3.6-.3-2 0-3.9 1.1-5.7.1-.2.3-.3.2-.5-.4-1.7.4-3.3.4-4.9 0-.8.6-1.1 1.1-1.6.6-.7-1-.6-.9-1.6.2-1.9-.3-3.9-.2-5.8 0-.9-.1-2.3 1.5-2.9zm14.9 59.5c-1.8-.5-3.9-1.8-5-3-.3-.3-.5-.6-.5-1.1 0-1.3-.7-1.6-1.9-1.4-.9.1-1.7.2-2.2 1.1-.3.5-.8.6-1.2.2-.5-.4 0-.7.3-1 .4-.3.4-.7.2-1.1-.3-.4-.7-.4-1.1-.2-.8.4-1.6.7-1.9 1.7-.2.8-.7 1.1-1.5 1-.5-.1-1 0-1.5.2-1 .5-1.6.2-1.8-.8-.2-.8-.6-1.1-1.3-1.3-.8-.2-1.7-.5-2.5-.8-2-.7-3.6 0-5.2 1.3-.8.6-.7 1.4-1.3 2.1-1.1 1.3-2.5 2.4-3 4.2-.5 1.7-.7 3.3 0 5 .9 2.4 2.3 4.4 4.7 5.4.4.2.9.3.8.8-.1.5-.8.5-1 .3-1.3-1.2-3.1-.6-4.5-1.4-.4-.2-.8-.1-1.1.3-.3.4.2.5.3.7.7 1 1.4 1.9 2.1 2.9.3.4.8.9 1.3.7 1.2-.5 2.1.2 3.2.2 1.5 0 1.9.9 1.6 1.9-.5 1.7.6 1.3 1.3 1.2 1.4-.3 1.6.4 1.6 1.5 0 .5-.2.8-.5 1.1-.2.3-.8.5-.3 1 .4.4.8.6 1.3.2.3-.2.4-.6.9-.6.2 0 .4.1.5.2l-.1.4c-1.3 0-1.2 1.4-1.9 1.9-1.4 1-4.7.7-6.2-.7-.9-.9-1.9-1.8-3.3-.9-.3.2-.7.1-.8-.2-.4-.7-1.1-1.1-1.7-1.6-.2-.2-.5-.5-.3-.6 1.1-.9 0-.6-.4-.7-.2-.1-.4-.3-.6-.5-.6-.8-1.4-.9-2.2-.6-.4.2-.9.4-.7 1.2.2.9 0 1.8 1.3 2.1 1.1.2 2.5 2.8 2.6 3.8 0 1.1.4 2 1.7 2.4 1.6.5 3 1.5 4.7.8.1 0 .3.1.4.2 2.2 1.3 4.5 1.3 6.9.8.8-.2 1.6-.2 2.4-.3.5-.1.9 0 1 .5.5 2.1 1.9 2.8 4 2.6.8-.1 1.5-.1 1.5 1.1 0 .6.4.7 1.1.4 1-.5 1.8-1.4 2.7-1.8 1.3-.5 1.9-1.3 2.4-2.3.8-1.5.6-1.5-1-1.5-1.9 0-3.8.2-5.7.3-.2 0-.5 0-.7-.2-.1-.2 0-.4.2-.5 1.7-1.6 3.5-3.1 5.8-2.8 2.3.2 3.4-1.6 5.3-2.1-1.4-.6-2.8-.8-3.9-1.8-1.4-1.2-1.5-1.9-.2-3.2.2-.2.4-.6.6-.1.2.5.4.3.7 0 .4-.6 1.2-.6 1.7-.9 1.6-.9 3.2-.9 5-.8-.1-.6-1-.7-.5-1.4.7-1.1.4-1.5-.8-1.5-.7 0-1.1 0-1.6-.6-1-1.3-.9-2.6-.2-3.8.7-1.2 1.8-1.5 3.1-1.5 2.7.1 3.2-.3 3.6-2.9.1-.4.1-.9.6-.9.4 0 .5.4.7.7.2.5-.1 1.4.8 1.1.6-.2 1.6-.3 1.2-1.5-.2-.5 0-1 .6-1.5.8-.6.7-2.4-.3-2.6-2.7-.7-5.3-1.8-8.1-1.9-1.2 0-1.9 1-1.2 1.9.9 1.3 1.3 2.8 2.7 3.7.3.2.8.4.4.8-.3.3-.6.2-.9-.1-.6-.7-1.4-1.2-2.2-1.6-1.1-.8-1.6-2.4-1-3.3zm47.3-201.6c-.6-1.7-.1-3.4-.2-5.1-.1-1.4-.2-2.8.9-3.9.3-.3.3-.8.1-1.2-.3-.4-.7-.4-1.1-.4-1.6 0-2.4 1.3-3.2 2.3-.6.8-1.6 1.7-1.5 2.7.1 1.5-.9 2.9-.6 4.3.2 1.3-1.2 2.3-.4 3.6.1.1-.3.6-.6.6-1.3-.3-1.5.8-2 1.5-.2.3-.4.7-.8.8-1.5.6-1.7 1.3-1.1 2.8.3.6 1.3 1.3-.2 1.8-.4.1 0 .4.3.4.3.1.6.2.3.5-1.1.9-.7 2.1-.8 3.2-.1 2.7-.6 5.3-.8 7.9-.1 1.3 1.7 4 2.9 4.3.8.2 1.4-.2 1.2-1.1-.5-2.8.5-5.5.3-8.3 0-.5 0-1.1.5-1.1s.8.6.8 1.1c-.2 1.5-.3 3.1-.8 4.5-.4 1.3-.2 2.5.4 3.6.5.9 1.5 1.5 2.3.4.9-1.2 1.3-.7 1.9.2.1.2.4.3.6.4.5.5.8 1.1.3 1.9-1.3 1.8-1.1 2.9.9 4.1.9.5 1.6 1 1.7 2.1.1.9.4.7.9.2.9-.9 3-5.6 3.4-7 .6-2.6 1.1-5.3 1.5-7.9.1-.5.2-1.1-.3-1.4-.7-.3-1.1.2-1.2.8-.1.6-.9.9-.7 1.6.1.3-.2.5-.5.5-.4-.1-.1-.4-.2-.6-.5-1.2-.1-1.9 1.1-2.4-.7-.5-1.4 0-1.9-.3.6-2.1.7-2.1 1.9-3.5.1-.1.1-.4.1-.5-.3-.6.2-.8.6-1 .9-.5 1.6-1.3 2.3-2 .3-.3.5-1.1 1-.6.4.3.4.9-.1 1.5-1.1 1.5-.2 3.8 1.3 4.1-.8 2-2.7 3.4-2.7 5.9 0 .7.2 1.3.3 1.9.3 1 1.1 2.2-.3 3.1-.1 0-.1.4-.1.4 1.4.6.2 1.1-.1 1.7-.4 1-.6 1.9-.4 3 .3 1.6 1.5 2 2.7 1 1.7-1.4 2.2-3.6 1.6-5.8-.3-.9-.4-1.9.4-2.8 1.3-1.5 2-3.2 1.9-5.3-.1-1.2-.2-2.5-.1-3.6.4-2.2.5-4.4.7-6.7.1-1.5.3-3 .5-4.5.2-1.3-.3-2.9 1-4l-.1-.2c-1.2-.6-.5-1.6-.4-2.5 0-1.2.6-2.4.2-3.6-.8-2.2-1.5-4.3-1.4-6.7 0-1.7.4-3.3.2-5-.4-2.3-1.5-4.4-1.6-6.7 0-.4-.1-1.5-1.1-1.6-.6-.1-1.2 0-1.5.4-.9 1.2-1.7 2.3-2.4 3.6-.5.9-.7 1.7.8 2 1.6.4 1.8.9 1.2 2.3-1-1.3-2.1-1.7-3.3-1.3-1.3.4-2.9 2.6-2.6 4.3.2 1.1-.2 1.3-1.1 1.5.9.5 1.2 1.2 1.3 2 0 .2-.3.5.3.6 2 .5 4.9-1.5 5.1-3.6.1-.9.2-1.9.4-2.8.3.8.2 1.6.3 2.4.1 1.6.4 3.3 0 4.9-.2.9-.5 1.4-1.3.4-.2-.3-.5-.7-1-.7-1.4 0-2.8.2-4 .9-.4.2-1.1.5-.9 1.3.3 1.9-.6 3.8.1 5.7.1.3.1.7-.4.6-1.9-.2-2.3.9-2.7 2.1zm-49.8 177.1c-.6-1-.7-1.9.2-2.6 2.1-1.6 4.8-1.9 7.1-3.1 1.2-.6 2.7-1 4.1-1.5.7-.2 1-.8.9-1.5-.1-.7-.7-.7-1.2-.6-2 .4-4.1-.3-6.1 0-1.1.2-1.3-.5-.9-1.1.8-1 1.9-1.7 2.9-2.6.4.7-.4 1.7.7 1.8 1 .1.9-.9 1.1-1.6.1-.5.2-1 .4-1.5.2-.8.7-.8 1.3-.3 1.2 1.1 1.4 1.1 2-.4.3-.9.5-1.7 1.5-2.1.7-.3 1-4 .5-4.5-.1-.1-.3-.3-.5-.3-1.3.1-2-.9-3.1-1.2-.2-.1-.5-.2-.5-.5 0-.4.3-.5.6-.5 1 0 1.1-.6 1.4-1.4.5-1.1-.3-2.6.7-3.3 2.2-1.7 2.6-4 3.1-6.4.3-1.9.1-2.5-1.7-3.3-.6-.3-1.4-.4-1.3-1.1.1-2-1-1.8-2.2-1.4-.4.1-.8-.1-1.2 0-1.3.2-2.8-.7-3.8.8-.2.2-.3.2-.5-.1-.9-1.2-1.7-.7-2.6 0-.6.5-.9 0-1.3-.3-.4-.2-.5-.7-.2-.9.9-.7.4-1.5.4-2.5-.8.8-1.7-.3-2.4.6-.7.9-1.8 1.3-2.8 1.8-2.6 1.3-4.8 2.9-5.7 5.9-.2.6-.7.9-1.4 1-.4.1-1.2-.3-1.1.6.1.8.8.9 1.4.7 1-.2 1.5.2 1.4 1 0 .7.5.8.8 1.3.3.6.7.9.5 1.8-.2.8-.4 2.4 1.3 2.8.3.1.9 1-.1 1.4-.1.1-.5 0-.4.2.9 1.6-.6 1.3-1.3 1.6-.7.3-1.2.7-1.6 1.5-.9 1.7-1.9 3.4-3 4.9-.4.5-.9.6-.3 1.3.4.5 0 1.4.7 1.8 1.8 1.1 1.9 1.4.9 3.1.5.5 1 .4 1.6 0 .4-.3.9-.4 1.2.1.2.4.5.9 0 1.4-.7.7-1.3 1.6-2.2 2-1.2.5-1.2 1.6-1.2 2.5-.1.8.5 1.9 1.4 1.8.9 0 1.9 0 2.8-.5.3-.2.9-.6 1.2-.1.2.4.5 1 .2 1.6-.3.4-.5.9-.9 1.2-.5.4-.5.9-.2 1.5s.8.5 1.3.4c1.4-.2 2.4-1.1 3.3-2 .3-.3.7-.7 1-.2.1 1 .9.8 1.8 1zm42.1-289.8c.1.9.3 1.6 1.5 1.5.7 0 1.1.6 1 1.1-.1.5-.3 1.1-1.2 1.3-2.9.5-5.4 2.3-8.3 2.9-.3.1-.7.3-.6.6.4 1.8-.9 1.7-2.1 2-.6.1-1.2.5-1.8.8-.9.5.3.9.1 1.5 0 .1.7.2.7 0 0-1.5 1.3-.8 1.9-1.2.2-.1.5-.1.7.1.2.3.2.6-.1.9-.2.2-.8.3-.5.8.3.4.7.3 1.1.3 1.2 0 2.4-.5 3.8-.2-.7.9-1.6.9-2.5 1-.8.1-2 .2-2 1 0 .9 1 .7 1.7.7.3 0 .7.1.7.4 0 .3-.3.6-.6.6-.6.1-1.2.1-1.8.1-.3 0-.7 0-.8.4-.1.4.2.6.6.8.6.4 1.1 0 1.7 0 1 0 2.4-.7 2.9 0 1.1 1.5 2.3 1.1 3.6.8 2.5-.5 5-1.3 7.5-1.9 1.3-.3 2.3-1.1 2.8-2.4.7-1.9 2.2-3.3 3.6-4.6 1.5-1.3.9-3.1 1.7-4.5.1-.1-.1-.4-.2-.6-1.1-1.8-2.1-2.1-4-1-.6.4-1 .5-1.5-.1s-1.2-.7-2-.5c-2.3.8-3.1.5-4.1-1.6-.3-.8-.4-1.3.8-1.5-.3-.1-.4-.2-.5-.3-.4-.2-.8-.4-.8-.8 0-.8.6-.3.9-.4.6-.2.6-.7.5-1.3-.5-1.8-.2-3.7-.9-5.5-.1-.4.1-.9.4-1.1.4-.2.6.3.8.5.5.6 1 1 1.4-.1.1-.3.5-.4.6-.7.7-1.4 2.8-1.1 3.2-2.8.1-.2.8-.2.8.1-.1.9.8 1.1.8 1.8 0 .5.1.8.6.6.5-.1.9-.4.7-1-1.3-2.7-1-6-2.8-8.6-.3-.5-.5-1.1-.1-1.7.8.4.2 1.5 1.2 1.7.8.1 1.6.4 1.9 1.4.1.4.5.4.8.3.4-.2.3-.7 0-.9-.8-.4-.6-1.2-1-1.8-.4-.6 0-1.4-.6-1.8-.7-.4-1-1-1.1-1.7-.1-.5-.4-.7-.8-.7-.5-.1-.9.1-1 .6-.2 1.2-.8 1.2-1.8.8-.5-.2-1.1-.2-1.7-.1-.8 0-1.4-.1-1.8-1-.5-1.1-1.6-1.5-2.7-1-1.7.7-3.6.8-4.8 2.4-.3.4-.9.5-1.4.5-2.1.1-4.1.4-5.9 1.3-.4.2-.7.1-1.1-.1-1.6-1-3.9-.9-5.3.2-.1.1-.3.3-.2.3.6 1.3-.3 2.4-.3 3.7 0 .6.1 1.2.5 1.5 1.2.8 1.4 1.1 1 2.5-.2.5-.3 1.6 0 1.6 1.9.1 2.6 1.3 3.2 2.9 1.8-.2 1.4 1 1.4 2.1 0 .9.7 1.5 1.4 1.9.3.2.7.3.8.6.3 1.2.8 1.1 1.8.5 1-.6 1.9 0 1.8 1.2-.1.9.4 1.6 1 2.2.3.3.6.3.6-.1 0-1.5 1.2-.9 1.8-.9.8 0 .6.9.6 1.5.3 3 .3 3 3 3.2-2.1-.7-1.1-2-1.2-3zm-36.6 199.8c.5 1.4.7 2.6 1.3 3.4.8 1 .9 2.1.7 3.1-.1 1.1.2 1.8 1.2 2 1 .2 2-.2 2.1-1.3.1-1 .7-.8 1.2-.8.7 0 .8.5.7 1.1 0 .3-.3.6 0 .9.9 1.3 3.7 1.3 4.3-.3.6-1.4 1.5-2.2 2.7-2.9.8-.5 1.2-1.2.6-2-.5-.6-.3-1.1 0-1.5.4-.6.6-1.3.6-2-.1-2.3 2.2-3.7 3.8-3.6.6.1.9.3 1.3.8.9 1.2 2.1 2.2 3.8 2.3.5 0 .8-.2 1-.6.2-.5 0-.9-.4-1-.7-.2-.9-.8-1.1-1.4-.7-1.4-1.9-2.1-3.4-2.2-.5 0-1.1-.1-1.2-.5-.1-1.1-1-1.3-1.7-1.5-2-.6-3.5-1.9-5-3.2-.4-.4-.9-1-.9-1.5 0-1.6-1.1-2-2.2-2.6-.5-.3-1-.4-.9-1.1.2-1.5-.7-1.2-1.7-1.1-1 .1-.5-1.7-1.7-1.5-.1 0-.2.1-.3.2-.5.7-1.4 1-1.5 1.9 0 .3 0 .6-.5.6-2.2-.2-4 .5-4.8 2.8 0 .1-.1.1-.2.2-1.6 1-1.6 2.9-2.1 4.4-.2.4 0 .9.5.9 1.1.1.9.7.7 1.4-.1.5-.3 1.1-.2 1.5.4 1.1 0 1.8-.7 2.6-.5.6-1.2 1.4-.6 2 1 1.2.6 1.9-.4 2.5-.3.2-.6.3-.5.7.1.4.4.4.7.4 1.5-.2 1.7.9 1.8 1.9.1.6-.1 1.2-.1 1.8 0 .7.3 1.2 1 1.4.5.1.9.7 1.4.3 1.2-.8 2-4 1.2-5.2-.6-.9-.6-1.8-.5-3.3zm38.6-27.4c.6 1.2.5 2.3 0 3.3-1.2 2.4-.1 5.2-1.3 7.5 0 .1 0 .2.1.3.9 2.2.6 4.4.3 6.7-.2 1-.7.9-1.4.7-.5-.2-.7-.7-1-1.1-.2-.2-.2-.6-.6-.5-.4.1-.6.3-.6.7.1.7-.3 1.1-.7 1.5-1.2.9-1.9 2.4-3.1 3.4-.4.3-.6.6-1.1.7-.6 0-1.6-.3-1.6.7 0 1.1-.1 2.6 1 3.2 1.5.8 3.3.9 5 .3 1.3-.4 1.7-1.2 1.3-2.5-.3-.9.9-2.1 2.2-2.1 1 0 1.2 1.1 1 1.9-.6 3-.5 3.5 3.3 3.2h.5c.8 0 1.4-.2 1.9-1.2 1.2-2.7 1.6-2.7 4-1.9.9.3.9.7.5 1.4-1 1.7-1 1.7 1 2 .3 0 .5.1.8.1 1.9 0 2.6-.8 2.5-2.6 0-.7-.4-1-.7-1.5-.3-.6-.9-1.3-.6-1.7.9-1 0-1.5-.3-2.3-.3-.6-.6-1.1-.6-1.7.1-1.9-.9-3.5-1.2-5.3.2-.2.8.3.9-.4-.3-.3-1.1.1-1-.6.1-.5.7-.3 1-.4.5-.1 1.3-.4.8-.9-.7-.8-.8-1.9-1.3-2.7-1.2-2-.8-3 1.4-3.4.2 0 .4-.1.4-.5-1.2.3-.9-.5-1-1.2-.1-.6.5-1.4-.2-1.7-1.5-.7-.9-1.9-.6-2.7.3-.9.3-1.8.7-2.7.4-.8.2-1.6-.9-1.9-.7-.1-1.3-.5-1.9-.9-.9-.6-2.1-.6-3 .2-.7.6-.9 1.4-.4 2.3.4.6.1 1.2-.1 1.8-.3.7-.8 1.5-.6 2.2.2 1.1-.5 1.7-.9 2.6-.5-.4-.3-.7-.2-1.1.1-.9-.1-1.8-.6-2.4-.3-.3-1.1-.9-1.2.1-.2 1-.9 1.2-1.9 1.1zm17.5 25.1c1.3.7 1.9 1.1 2.4-.5.2-.8.4-2.3 1.4-2.3.8 0 .3 1.4.6 2.1.5 1.2.7 2.5-.6 3.4 1 1.1 2.2 1.3 3.4 1.4.6.1 1.1.3 1.4.8.3.7.7 1.8 1.6 1 .8-.8 1.7.3 2.4-.4.1-.1.2-.4.1-.5-.5-1.5.3-1.5 1.4-1.4 1.5.1 1.9-.3 1.6-1.8-.1-.2-.3-.5-.1-.7.8-1.7.1-3.4-.4-5-.6-1.8-1.2-2-2.9-1.1.2.2.6.3.6.5-.2 1.3-.4 2.6-.7 3.9-.1.4-.6.5-.9.2-.5-.7-1.3-.7-2-1-.5-.2-.8-.5-.6-1 .4-1-.1-1.9-.3-2.9-.4-1.8-.2-3.7-.3-5.5 0-.6.3-.8.7-.8.7 0 .6.4.4.9-.2.4-.1.6.1 1 .6 1.3 1 2.5.3 3.9-.2.5.2.9.6 1 .4.2 1 .3 1.2-.2.3-.9.3-1.8.4-2.7.2-1.8-.8-3.6.2-5.4.1-.2.1-.5-.1-.5-1.1-.5-1-1.5-1.2-2.3-.2-1.1-1-1.4-1.8-1.2-1.1.2-1.7.1-1.6-1.2 0-.3-.2-.7-.7-.7-.4 0-.8.3-.9.7-.1.4.3 1.2-.5 1.2-.7 0-.9-.6-1-1.2-.2-.6-.4-1.1-.5-1.7-.4-1.5-.2-3.1-1.1-4.4-.7-1.2.4-2.2.1-3.3-.1-.3.6.1.7-.3-1.1-.1-1.7-.8-2.1-1.7-.4-1-1-1.2-2-.9.7.5.7 1.1.4 1.7-1 1.8-.6 3.8-.8 5.7 0 .4-.1.8.4 1 .3.1.7.2.3.6-.2.2-.6.3-.8 0-.5-.5-1-.8-1.6-.2-.7.7.1 1.2.3 1.8.1.5.6.7 1.2.9 1 .3 1.1 1.6.2 2.1-1 .5-.8.9-.2 1.5 1 1.2.9 2-.5 2.8.8.7 1.3 1.5-.2 2.3 1.3.2 2.3.7 1.7 1.8-.6 1.2-.3 2.1 0 3.2.4 1.1.9 2.2 1.4 3.3.2.7.7 1.7-1.1 2.1zm-78.8 107.1c1.3.3 2.1 1.4 3.3 2 2.5 1.2 4.6 1.3 6.9-.2.3-.2.7-.3.8 0 .6 1.1 1.7 1 2.6 1.2 1.2.3 3.2-.4 3.7-1.5.7-1.4-.4-2-1.4-2.6-.3-.1-.4-.3-.4-.6.1-.4.4-.4.7-.4.4 0 .8.1 1.2.3 1.1.4 1.9.3 2.5-.7.2-.4.5-1 .9-.8 1.4.5 2.3-.5 3.4-.8.8-.2 1.3-.8.8-1.8s.2-1.1.9-1c.5.1 1.1.2 1.4.6.9 1.3 2 .9 3.2.5 1.1-.4 1.6-1.9.7-2.7-.6-.5-.8-1.2-1.3-1.7-.8-1-.1-1.2.6-1.4.3-.1.7 0 1.1-.1 1-.1 1.3-.6 1.3-1.6-.1-.8 0-1.6-1.2-1.5-.7 0-1.2-.2-1.5-1-.4-1.1-1.4-1.3-2.4-.9-1.4.5-2.5 1.6-3.4 2.7-.2.2-.3.4-.6.4-.2-.1-.3-.2-.3-.5.2-1.1-.5-1-1.2-.9-.7.1-1.3.3-1.9.6-1.9.9-4.1.9-5.9 2.4-1.3 1.1-3 1.1-4.7.7-2-.5-3.7.3-5.3 1.4-.5.4-.5.7-.3 1.1 1 1.7 2.1 3.2 4.4 2.6.5-.1 1-.1 1.5-.2s.9-.2.8.6c-.1.3.2.6.6.5.2-.1.5-.5.4-.5-.9-1.3.4-1.1.9-1.4 1.1-.6 2.4-.9 3.2-1.9.4-.5.9-.6 1.4 0 .4.5.6 1 0 1.6-.3.3-.6.5-.9.8-1 1-2.7 1.2-2.8 3 0 .2-.4.6-.6.7-2 .5-3.7 1.6-5.7 2.1-1.1.3-2.2.4-3.5 0-1.2-.5-2.2 1.7-3.9.9zm67.7-228.7c.4-.2.7-.5.3-.8-.9-.7-.7-1.7-.9-2.5-.2-1 .2-1.6 1.3-1.6.4 0 .8 0 1.2-.1 1.1-.2 1.4-1.1.6-1.9-2.4-2.4-3.7-5.7-6.4-7.9-1.1-.9-1.2-2.5-2.5-3.2-.5-.3-1.2-.6-1.3-1-.4-2.6-3.1-3.2-4.6-4.8-1.6-1.7-3.7-3.3-6.1-4.1-1.4-.5-2.6-1.4-4.1-1.6-.3-.1-.6-.3-1 0-.8.8-1.4 3.1-.8 4l1.2 2.1c.9 1.5 2.3 2.2 3.5 3.2 1.1.9 1.1 2.6 2.6 3.1.7.2.9 1 1.1 1.6 1.3 2.7 1.3 2.7 4.2 2.3.5-.1 1.1-.1 1.2.6.2 1.7 1.5 2.7 2.2 4.1.9 1.9 1.7 3.9 2.6 5.8.5 1.1 1 1.5 2.1 1.4 1.1 0 2.4-.6 3 1 .2.2.4.2.6.3zm21.3-.6c-.6.3-1.4-.8-1.9.3-.2.4.4 1.2-.3 1.3-.6.1-.6-.9-1.1-1.1-.4-.2-.2-.6-.3-.8-.2-.4-.7-.5-.9-.2-.3.6-1.3.1-1.3.9 0 .4.3 1.1.9.8.9-.4.7.1.7.6 0 1.5.9 2.2 2.1 1.5.8-.4 1-.1 1.1.6.1.6.3 1.3.1 1.8-.4 1.7-.8 3.3-.5 5.1.1.6 1 1.5-.1 2.2.4.2.3.9.9.9.3 0 .8-.2.7-.4-.3-1 .7-1.2.9-1.9.2-.7 1-1.5-.5-1.6-.5-.1-.6-.5-.4-.8.3-.6.1-1.1.1-1.6 0-.3-.1-.8.4-.9.4-.1.7.1.9.4.6.7.1 1.2-.4 1.7.5.2 1.1-.2 1.1.3-.1 1.2 1.3 1.9 1.1 3.1-.1.5.1 1 .2 1.5.5 2.4 1.5 4.7.2 7.2-.7 1.4.6 2.6 1.7 3.4 1.2 1 2.4.1 3-.8.5-.7 2-.6 1.8-1.8-.1-.8.3-1 .8-1.3.8-.5 1.7-1 2.5-1.4.5-.3 1-.8.9-1.3-.5-1.9-.4-4-1.6-5.6-1.3-1.9-2.4-3.8-3.6-5.7-1.8-2.9-4.3-5.1-6.4-7.6-.3-.4-.9-.6-1.2-1-1.3-2.4-3.4-4-5.3-5.9-.3-.3-.8-.6-1.2-.2-.4.3-.3.8-.1 1.1.7 1.2.7 2.7 1.8 3.7.6.5.2 1 0 1.5 1.5-.7 2.6.1 3.2 2zm-98.3 108.6c.7.8.4 1.2-.3 1.9-.9.8-2 1.6-2.4 2.9-.3.9-1.3 1.3-2.1 1.6-.6.2-.9-.5-1-.7-.2-1.1.4-2.1.9-2.8 1.2-1.6 2.3-3.4 3.4-5.1 1.5-2 3-4 4.4-6.1.5-.8 1.2-1.4 1.2-2.4 0-.4.7-.8.2-1.2-.5-.4-1-.5-1.6-.3-.9.4-1.8.8-2.2 1.8-.1.4-.4.8-.7 1-1.8 1.4-2.7 3.5-4.2 5.2-.5.6-1.7.8-1.1 2 0 .1-.2.3-.4.4-1.2.6-1.7 1.7-2.3 2.7-.5.9-1.3 1.4-2.1 1-.8-.4-.8-1.3-.3-2.2 1-1.7 1.8-3.5 3-5.2 1.5-2.2 3.3-4 4.7-6.2 1.3-2 2.9-3.8 3.7-6.1.2-.5.1-.8-.2-1.1-.4-.4-.9-.3-1.3-.1-.7.5-1.4 1-2 1.9-1.3 2-2.8 3.8-4.3 5.7-.5.7-1.7.9-1.2 2.1.1.3-.3.5-.6.6-1 .2-1.5 1-1.7 1.8-.3 1-1.1 1.7-1.7 2.5-.7.9-1.3 1.2-2.3.5-.9-.7-1.4-.3-1.3.7.3 2.5.9 4.9 3.2 6.4.5.3.9.5.8 1.1-.2.9-.3.9.8.9.3 0 .6.2.8.4 1.4 1 3 1.8 4.4 2.8 2.2 1.5 5.1 2.1 8 1.7.7-.1 1.2-.4 1.4-1.4.1-.8.4-1.8 1.9-1.5-1.3-1.3-1.6-1.3-2.5-.6-.6.4.3.7-.2 1.2-.8.7-1.6.9-2.5.5-.7-.3-.7-2-.1-2.8 1-1.3 2-2.6 3.1-3.8 1.2-1.4 2.2-2.9 2.8-4.6.5-1.2 1.7-2.1 1.3-3.6-.2-.5-.3-.9-.9-.5-2 1.4-3.3 3.4-4.7 5.3-.5 1.1-.8 1.6-1.8 1.7zm61.6-157c-.1-1 0-1.9-.8-2.1-1-.2-1 .9-1.2 1.5-.3 1-.9 1.2-1.7.9-.5-.2-.9-.2-1.3 0-1.2.5-2.5-.8-3.7.1 0 0-.2-.2-.2-.3-.1-1-.9-1-1.3-.5-.5.7-1.5 1.6-.8 2.4.9 1 2.1 1.7 3 2.6 1.1 1.1 2.5 1.6 3.8 2.2 2.2 1.1 3.9 3.1 6.3 3.8 1.6.4 2.5 1.8 4.1 2.3.9.3 2.1 0 2.4 1.4.1.4 1.2.2 1.3-.3.1-.7.6-1.4.4-2.2-.4-1.7-.9-3.3-.9-5 0-1-.3-1.7-1.6-1-.8.5-1.3-.2-1.3-.9 0-.2.4-.5.7-.7.6-.4.6-.9.2-1.4-.4-.6-.6 0-.9.1-.8.4-.8-.3-.6-.7.7-1.7-.6-1.7-1.5-1.7-1.5.1-2-.2-1.3-1.7.3-.7-.1-1.3-.8-1.6-.9-.4-.9.5-1.2.8-.4.5-.6 1.1-1.1 2zm-24 24.5c1.2 1 1.2 1.4.1 2.8-.5.6-1.6 1.1-1.4 1.8.2.9 1.5.7 2.3.9 1.7.4 3.1 1.6 4.9 1.6.7 0 1.6.1 2-.8 1.3-3.2 3.9-5.7 5.7-8.6.7-1.2 2.1-2.3 1.6-3.8-.6-1.6-2.3-2.6-4-2.8-1.8-.2-3.5.2-4.4 2.1 1 .6 1.7-.6 2.7-.2-1.2 0-1.7 1.9-3.4 1 1 .7 1 1.1.2 1.8-.9.7-1.7 1.5-2.6 2.3-1.1.9-1.2 3.5-3.7 1.9zm37 100.3c-1.4-.2-2.4-.8-2.9-2.1-.2-.5-4-.2-4.3.2-.1.1-.1.2-.1.3.1 3-2.8 5.1-2.5 8.2 0 .1 0 .3-.1.3-1.1.3-1.5.9-1.4 2.1.1 1.1-.4 2.1-.4 3.2 0 .9.3 1.9-.4 2.8-.8 1.1.6 1.3.9 2 .2.6.9.2 1.2 0 .7-.5.3-1-.1-1.6-.3-.4-.4-1 .3-1.3.7-.4 1.7-1.6 2.2-1 1.4 1.6 2.7.6 4.1.3.2 0 .6-.1.4-.3-.6-.8.4-1.4.3-1.7-.6-1.1 1.2-1.4.7-2.1-.9-1.2-.1-2.3.4-2.9.9-1 2.4-1.5.7-3 .9-1.3 0-2.1-1-2.8.5-.6 1.1-.7 2-.6zm.4-94.5c-.7-.3-1.7.1-2-1-.1-.4-.5-.9-1-.6-.8.5.1.7.2 1 1.1 1.9 2.6 3.4 4.2 4.9.2.2.6.4.9.5.3.1.8 0 .9-.4.2-.3-.2-.5-.4-.7-.8-.7-1.1-1.7-1.7-2.6.7 0 1 .4 1.3.7.4.6.9 1 1.5.6.7-.4.8-1 .4-1.7-.3-.5-.4-1.1.4-1.4.8-.3.8-.3.3-1-.1-.1-.1-.3-.1-.4.5-1.1-.2-1.8-.7-2.8-1.6-2.7-3.8-4.6-6.5-6-1-.5-1.8-.9-1.9-2.1-.1-1.1-1.1-1.3-1.8-1.2-.8.1-1.3.9-1.2 1.7.1.9.3 1.9 1.4 2.1.3.1.6.3.5.7-.1.4-.4.1-.6.1-2.4.2-4.3-.7-5.8-2.5-.5-.6-1.3-.7-1.9-1-.2-.1-.4 0-.5.2-.1.2 0 .5.2.5 1 .2 1.4 1.3 2.2 1.6 2.5 1 4.1 3.2 6.2 4.7 1 .7 1.4 2.2 2.4 2.7 1.5 1.1 2.1 2.4 3.1 3.4zm-1.9 157.7c-.3-.6-.6-.5-1-.6-.8-.1-1.6-.1-2.4-.3-.4-.1-1.1-.3-1.1-.9 0-.5.6-.6 1.1-.6 3 .1 6.1.1 9.1.2.9 0 1.5.9 1.1 1.4-.8.8-.6 1.7-1 2.5-.3.5-.4 1-1 .9-2.2-.1-4.4.2-6.6-.5-1.1-.3-2.4-.3-3.6-.3-1 0-.7.8-.8 1.4 0 .2-.1.4-.2.6 0 0 .2 0 .2.1 2 .9 2.5 2.5 1.6 4.5-.3.8-.5 2 .6 2.1 2.4.2 4.9.7 7.4.5.5 0 1.2-.2 1.2-.8.2-2.1 1.9-3.8 2-5.9.1-2.6 1.3-4.4 2.9-6.2 1-1.1 1-1.4-.5-1.6-4-.6-8.1-.4-12.1-.2-1 0-2.1.8-2.8 1.7-.4.5-.5 1 .4 1.5 1.6 1.1 3.5.8 5.5.5zm31.1 197c.4 1.9 1.7 2.4 3.1 2.8 1.6.4 2.8 2 4.7 1.7 2.4-.3 4.6-.7 6.4-2.7 1-1.1 2.8-1.7 2-3.8-2.9 2-6.1 3-9.6 3.3-.7 0-1.5.3-1.7-.4-.2-.8.8-1 1.4-1.4.4-.2.7-.2 1.1.1.3.2.8.4.9-.3.1-.6.6-.6 1-.8 2-1.3 4.4-2.1 5.9-4.2.2-.3.7-.4.5-.9-.2-.4-.5-.5-.9-.5-1.6.1-3.5-.1-4.7 1.1-1.7 1.6-3.8 2.3-5.7 3.4-.9.5-2.1 1-2.6 1.9-.5 1.2-.9 1.4-1.8.7zm12.7-37.6c.5.4 1.5-.2 1.3.9-.1 1-.3 2-.3 3-.1 1.9-.8 3.8-.3 5.9.4 1.4-.2 3.1-.3 4.6-.1 1.4 0 2.9-1.1 4-.1.1 0 .3.1.4 1.1 1 .2 1.8-.4 2.3-1 .9-1.2 2-1.5 3.2-.1.5-.5 1.2.1 1.5.6.3 1.3-.3 1.7-.8.3-.4.2-.9.9-1.1.9-.2 1.8-.6 1.7-1.9 0-.3.3-1.1.9-1.2.7-.1.3-.4.4-.8.2-1.6 0-3.1.1-4.7.2-1.8.3-3.6.4-5.4.2-2.7-.1-5.5-.3-8.2-.1-1.2-.1-2.4.3-3.6.2-.5.3-1.3-.5-1.6-.7-.2-.9.5-1.2 1-.2.2-.5.4-.4.8.3 1.4-.3 1.9-1.6 1.7zM282 318.8c.4-.1.6 0 .8.2.5.7 1.2.9 1.9.3.8-.7 2.3-1.1 2.1-2.3-.3-1.3.4-1.7 1.1-2.4 1-.9 1.8-1.8.7-3.3-.4-.5-.4-1.1.2-1.7.6-.5 1-1.5.9-2.3-.1-.7-1.1-.1-1.6-.4-.3-.1-.7-.3-1-.4-.3-.1-.7-.1-.8.2-.6 1.4-1.8 2.6-1.5 4.3.1.5.1 1.1-.6 1.2-.3.1-.5.3-.6.6-.2 1.7-1.6 2.9-2.2 4.5-.3.7-.4 1.8-1.2 2.4-1.2.9-1.9 2-1.7 3.6.1.5 0 1 .6 1.2.6.2 1.1-.1 1.5-.5 1.2-1.4 2.4-2.9 1.3-4.9-.1.1 0-.1.1-.3zm25.4 59.2c-.3-.7-2.4.2-1.4-1.6 0 0-.3-.3-.5-.3-.7-.1-1.3-.2-2-.1-2 .3-3.1 0-4-1.8-.4-.7-.7-1.3-1.5-1.2-1 .2-.7 1.1-.8 1.8-.1.3.1.7 0 1.1-.1 1.5.5 3.2-.1 4.6-.6 1.4.4 1.6 1.1 2.1 1 .6 2.4.8 3 1.6.9 1.3 1.7.6 2.5.3s.7-.8 0-1.2c-1-.5-1.8-1.3-2.8-2 .7-.3 1.2-.3 1.9-.1 1.1.4 2.6 1.8 2.6-.9 0-.1.3-.2.5-.3.7-.4.6-.9 0-1.3-.1-.1 0-.3-.1-.5.7 0 1.2.2 1.6-.2zm3.8-84.1c.3.5.4.7.5.9.1.2 0 .5.1.7.3.8 1.2 1 1.7.5.3-.3.8-4 .5-4.3-.7-.8-1.2-1.8-1.8-2.6-.6-.8-1.1-.9-1.7-.6-.6.3-1 .1-1.5-.1-1.6-.6-3 .6-3.1 2.3-.1 1 .6 2.1 0 3-.5.6.3 1.6-.7 2 .9.2 1.6.9 2.6.7.8-.1 1.4.4 2 .6.9.3 1.4.1 1.2-1 0-.5 0-1.1.2-2.1zm-8.2-14.5c.8 1.1 1.4-.2 2.2.3.9.6 1.9.8 3.1.8.9 0 1.7.4 1.8 1.7.1 1.1.9 1.9 1.8 2.6.9.7 1.9.3 2.2-.8.2-.7.4-1.3.2-2.1-.4-1.5.6-2.5 2.1-2l1.8.6c.7.2 1-.2 1.1-.7.2-.6-.4-.6-.7-.8-.7-.4-1.6.1-2.4-.5-.9-.8-2-.8-3.2-.7-1.1.2-2.2.3-3.2-.7-.9-.9-3.5-.4-4.1.7-.6 1.1-1.4 1.5-2.7 1.6zm-76.8 287.4c-.5-.5-1.1-.8-.9-1.1 1-1.1 0-2.6 1-3.7.3-.3 0-.8-.3-1-.4-.3-.7 0-.9.3-.5.8-1.2 1.3-1.4 2.3-.4 1.5-1.1 3.1-1.9 4.5-1.3 2.3-2.9 4.4-3.4 7.1-.3 1.5-1.2 2.8-1.3 4.5-.1 1.4-1 2.5-.4 4.2.5 1.6.5 1.9 2.1 1-1.3-1.3-.3-2.9-.5-4.3-.4-2.1 1.4-3.6 2.4-5.1 1.7-2.5 2.5-5.5 4.1-8.1.4-.9.6-.6 1.4-.6zm55.7-141.1v-.5c-1.8-2.3-4.5-2.9-7.1-3.6-1-.3-2.3-.3-3.2-.8-2.5-1.4-5.1-1-7.7-.9-.5 0-1.2.4-.9 1 .3.7.5 1.4.9 2.1.6 1.1 1.6.2 2.1.7 1.4 1.2 2.8.7 4.3.2.7-.2 1.8-.8 2.2-.1.8 1.1 1.6.9 2.6.7 2.4-.7 4.5.4 6.8 1.2zm-2.3-76c-.5.1-.9 0-1.2.7-.3.8-.9 1.6-1.4 2.3-.2.4-.6.8-.4 1.3.1.3.5.4.8.3.6-.1 1-.4.9-1.1-.1-.7.2-.8.8-.8.9 0 2.8 1.8 2.8 2.7.1 1.4 1.2 2 2.4 1.3.7-.4 1.7-3.1 1.3-3.6-.7-.9-.4-1.4.3-1.9.5-.3.6-.8.1-1.1-1.8-.9-3.6-1.8-5.5-2.5-.6-.2-1.4 0-1.4.8-.1.6.5.9 1.2 1 .4 0 1.1 0 .9.6-.1.5-.7.3-1.1.2-.1-.2-.3-.2-.5-.2zm-1.4 94.2c1.1 1.5 3.1.4 4.3 1.4.1.1.6-.1.8-.3 1.3-1.1 2.7-1.6 4.4-1.7 1.4-.1 1.9-1.1 1.4-2.2-.2-.5-.5-.6-1-.6-1.8 0-2.8-1.7-4.5-2-.3 0-.1-.6.2-.7.7-.2.4-.6.1-.9-1-1.1-1.7-.4-2.7.3-1.1.9 0 1.4.2 2 .2.5 1 0 1.3.4-1.3 1.7-3.7 2.1-4.5 4.3zm4.8-11.5c-.9-1.5-3.8-2-4.7-.6-1.3 1.9-3.3 3-4.8 4.6-1.3 1.3-2.9 2.3-2.7 4.5.1 1.4.8 1.9 2 1.4.6-.2 1.1-.4 1.8-.2 1.2.4 1.2-1.1 1.8-1.7.4-.4 0-.6-.4-.8-1.3-.7-1.4-1.2-.2-2 .8-.5 1.9-.8 2.2-1.5 1.3-2.1 3.2-2.8 5-3.7zm47-84.1c.9.7 1.9 1.2 2.7 2 .8.8 3.6.7 3.8-.2.3-1.4 1.6-2.1 2.1-3.3.4-.8.9-1.8.1-2.7-1-1-4.4-1-5.3 0-.5.5-1.1.9-2 .6.9 1.3.6 1.8-1.4 3.6zm-50.4-102.5c.7.1 1.3-.1 1.8-.7 1.5-1.6 2.3-3.8 3.9-5.4.4-.4 0-1-.5-1.1-.7-.1-1.9-.8-1.9.8 0 .5-.4.6-.8.7-.9.3-1.6 0-2.4-.3-.4-.2-1.1-.5-1.2 0-.4 1.2-1.4 1.5-2.2 2-1.1.8-1.4 2.6-3.2 2.5-.3 0-.5.3-.4.7.1.4.5.4.8.4 2-.2 4-.1 6.1.4zm70.5 75.4c0 .1.1-.2 0-.3-.9-.9-1.2-2.1-1.6-3.3-.1-.5-.7-.1-.8.2-.4.9-.9 1.8-.6 2.8.1.3 0 .8.5.9.4.1.6-.1.7-.4.1-.2.3-.5.6-.3.2.2.3.5.1.7-.1.3-.3.5-.5.8-.9 1-1.2 2.4-1.5 3.7-.2.9 1.1 1 1.3 1.7 0 .1.2.1.2.2.7 1.7 2.1 1.7 3.6 1.3 1.3-.4.6-2.3 2.1-2.6-.9-.6-.6-2.1-1.9-2.5-1.1-.5-2.5-.9-2.2-2.9zm-1.3 93.1c-.6-.9-1.5-.9-2.4-.8-.4.1-.8.1-1.2.1-3.2-.6-5.8 1.1-8.6 1.9-.4.1-.7.5-1.1.9-.6.5-.5.9.3 1 .9 0 1.2.4 1.2 1.2 0 .5 0 1 .5 1.1.5.1.7-.4.9-.7.8-.8 1.4-1.9 2.8-.8.3.2.7-.1.9-.4.3-.4.7-.5 1.2-.4 1.2.1 2.1-.5 2.5-1.6.3-.7.7-.9 1.4-1 .6 0 1.1 0 1.6-.5zM324.1 355c.9-.4-.1-1.8 1-2.2 1-.3 1 .7 1.3 1.3.1.1.2.3.3.3.8.2 1 1.8 2 1.1.5-.3-.2-1.3-.2-1.9.1-1.5-.8-1.9-2.1-1.9-2.4 0-4.8-.1-7.1.3-1.1.2-1.3.6-1.4 1.8-.2 1.8 2.6 1.2 2.1 3l.1.1c1-.4 1.7.3 2.5.8.4.2.8 0 1.1-.3.8-.6.9-1.3.4-2.4zm-86.8 6.5c0-.4-.1-.6-.3-.7-.7-.3-1.5 0-1.9.4-1.4 1.7-3 3.3-3.9 5.2-.9 2.1-2.4 3.8-3.7 5.6-1.1 1.5-1.8 3.3-3.3 4.6-.3.3-.3.7 0 1 .3.2.6.3.9.1.8-.5 2.2-1.2 2.4-1.6.6-1.9 1.8-3.3 2.9-4.8.7-1.1 1.4-2.1 2.4-2.9.3-.2.7-.2.7-.7 0-1.3.9-1.9 1.7-2.8.9-1.1 1.4-2.4 2.1-3.4zm17.1-116.2c.3.1.4.1.5.1 2.3.3 4-.3 4.7-2.8.3-.9.2-1.1-.5-1.2-.6-.1-1.5 0-1.7-.8-.3-1.2-1.2-1.1-2-1.1-1.6 0-3.2.3-4.6.9-.9.4-2.8 1-2.3 2.3.5 1.5 2.1.7 3.2.3 1-.3 1.9-.7 3-.7.8 0 1.3.3.6 1.1-.6.6-.7 1.3-.9 1.9zm37.4 155.9c.8 1 1.6 1.8 3 1.6.7-.1 1.5 0 1.9.7.3.5.8.5 1.2.5.7-.1 1.2.1 1.7.5.7.6 1.5.5 2.3.1 2-.9 3.9-2.1 6.2-1.5.2.1.5-.1.7-.2.3-.1.6-.3.5-.7-.1-.4-.4-.4-.7-.3-.6.1-1.1 0-1.7-.1-3.7-.6-7.5-.7-11.3-.7-1.1 0-2.4.4-3.8.1zm-17.5 105.2c1-.1 1.7-.2 2.2-.7.6-.7 1.3-1.1 2.3-1 .9.1 1.8-.1 2-1.1.2-.9-.3-1.7-1.2-1.9-1.7-.4-3.3-1.8-5.1.1-1 1-2.4 1.5-3.8 1.8-.4.1-1.2.6-.5 1 1.3.7 2.8 1.2 4.1 1.8zm.5-208.4c-.4.6-.1.9.3.9.6.1 1.2-.2 1.5-.8.5-.9.8-2 1.5-2.8 1.6-1.8 2.2-4.1 3.6-6 .3-.5.7-1.3-.2-1.7-.8-.4-1.3.1-1.6.7-.6 1-1.4 1.7-2.4 2.2-1.4.7-2.1 2.3-3.4 3.2-.2.2-.3.5-.1.7 1.4 1 .6 2.4.8 3.6zm-4.4 135.6c0-.8-.3-1.2-1.2-.9-.8.2-1.5.6-2.1 1.2-1.1 1.4-2.2 2.8-4.1 3.1-.4.1-.7.3-.7.7-.2 1.2 2 3.7 3.3 3.7.3 0 .7-.1.8-.4.3-1.6.7-3 2.7-3.1.4-1.3 1-2.7 1.3-4.3zM245 624.9c-1 .3-2.1.6-3.2.9-.5.1-.8.6-.8 1-.1.6.6.4.9.5 1.2.4 2.7.5 3.5 1.4 1.5 1.5 2.4.7 3.7-.1.7-.5 1.5-.7 1.7.6.3 1.3 1.6 2 2.7 1.7.6-.2 1-.8.6-1.1-1-.9-1.5-2.4-3.2-2.7-1.8-.4-3.7-.8-5.3-1.9-.1-.2-.4-.2-.6-.3zm89.3-218.8c-.3-.1-.8.6-1.1-.1-.2-.5-.1-1 .3-1.5.3-.3.8-.7.4-1.2-.5-.5-1.3-.4-1.7 0-.7.7-1.6 1.4-1.9 2.3-.7 2-.1 4 .8 5.9.3.6 1.1.8 1.4.4.7-.9 1.5-.4 2.2-.5.5 0 1.1.1 1.4-.4.1-.2.2-.5 0-.7-.5-.3-1.1-.3-1.5-.1-1.9 1.1-1.7-.3-1.8-1.4 0-.4-.3-1 .2-1.3.6-.4.8.2 1.1.5.7.5 1.1.1 1.7-.2.4-.2.7-.5.6-.9-.2-.7-.8-.6-1.4-.7-.2 0-.4-.1-.7-.1zM317.7 285c-.7 0-1.3-.1-1.8-.1-.9 0-1.5.5-1.7 1.2-.7 2.3 1 4.3 3.4 4.2 2.8-.1 3.8-2.1 2.6-4.6-.7-1.4-1.8-.3-2.5-.7zm-96 150.7c-.5-1.6-1.7-2-3-2-.7 0-1.4.2-2.1.1-1.3-.2-1.7.7-2.1 1.6-.1.2.1.6-.2.7-1.7.4-.4 1.5-.4 2.1 0 .9 1 .7 1.6.7 1.1.1 2.2-.1 3.2-.1.4 0 .9-.2.8-.5-.4-.7-.8-1.3.3-1.6-.6-1.3.5-.8 1-.9.3-.1.5-.1.9-.1zm119.9-100.3c-.4-1 0-2.6-1.5-2.7-1.2-.1-2 .4-2.4 1.9-.4 1.4-.1 2.5 0 3.8 0 .8.4 1.5 1.3 1.5s1.6-.2 2.1-1.1c.7-1.1-.4-2.4.5-3.4zm-95.4-82.8c.1 0 .4.1.6 0 .7-.1 1.8.1 1.8-1 0-1-1-1-1.9-1.1-2.1-.1-4-.1-5.4 2-1.1 1.6-1.7 3.4-2.7 5-.2.3 0 .6.2.8.2.1.4.3.5.1.7-1.5 2.9-1.9 3.2-3.8.4-2.1 1.9-2.1 3.7-2zm52 134.8c1.3-.4 2.3 0 3.3.6.5.3 1.1.7 1.5-.2.4-.9-.3-.9-.8-1.1-.9-.4-1.7-.8-2.5-1.4-1-.8-2.1-.8-3.3.3-1.3 1.2-.1 1.4.5 1.9.1.1 0 .2.1.3 1 1.1 1.4 2.9 3.4 2.9.7 0 1.7.6 2-.3.3-.8-.6-1.3-1.3-1.7-.4-.3-.9-.2-1.3-.2-.7-.2-1.2-.3-1.6-1.1zm-52.3-122.8c0-.4-.4-.6-.7-.8-.9-.9-1.9-1.5-2-3 0-1 .6-1.7.8-2.6.1-.5.1-.9-.3-1.2-.5-.3-.8 0-1.2.3-.4.4-.9.7-1.2 1.1-.6.6-1.2 1.3-.7 2.3.3.5.4 1.1.6 1.7.3 1.1.9 2.1 1.7 2.9 1.2 1.2 1.7-.7 2.6-.4.2 0 .4-.1.4-.3zm75.5 17c1.1.3 1.8 1.5 2.6.5s1.4-2.3 1.7-3.5c.1-.7-.7-1.5-1.2-2.3-.8-1.4-2.3-2.2-2.8-3.7-.1-.4-.4-.6-.8-.5-.4.1-.5.5-.6.8-.4 1.8.6 3.9 2.4 4.7 1.2.6 1.3 1.7 1.3 2.7 0 .9-1 1-1.8 1-.2 0-.3.1-.8.3zm-26.3 44.9c0-.3.1-.6-.2-.8-.6-.5-3.4.2-3.3.9.2 1.8-1.8 1.8-2.4 2.9-.2.4-1.3.2-.7 1.1.6.8 1.1.6 1.6.1.7-.8 1.3-1.4 1.8.2.2.7 1 .9 1.7.7.5-.2.9-.5 1.3-.7-1.2-1.5-.2-3 .2-4.4zm.1 21.7c1.6 1.5 3 3.2 5.8 2.5-1.4-.8-1.6-1.8-.6-2.9.4-.4.8-.9.1-1.3-1.3-.9-2.7-1.7-4.4-1.8-.3 0-.5.1-.6.3-.2.3.1.4.3.6.9.6 1.1 1.5 1.1 2.4-.5.3-1-.3-1.7.2zm6.3-83.5c.7 1 .3 2.2.9 3.3.7 1 1.8 1.6 2.3 2.7.1.2.6.4 1 .3.4-.2.3-.6.2-1-.1-.4-.2-.9-.3-1.3-.2-.9-1.1-1.6-1-2.6.8-.2 1.2 1.1 2 .1.4-.5.3-.9.1-1.3-.3-.8-1.1-.9-1.5-.6-1.2.8-2.3.4-3.4.1 0 .1-.1.2-.3.3zm29.9 45.5c2.2.5 2.8.1 3.7-1.5.7-1.2.2-2.4.5-3.5.3-1-.1-1.8-.5-2.6-.3-.7-1.1-1.1-1.6-.6-.6.7-1.4 1.6-.7 2.6.9 1.3.5 2.5.3 3.8-.1 1.1-.3 1.9-1.7 1.8zm-37.5 120.2c-1.2-.4-1.9.5-2.7 1.1-.5.4-.7 1.2-.2 1.8.9 1.1 4.6 1.7 5.9 1 .5-.2.7-.7 0-.8-1-.2-1.1-1.1-1.2-1.7 0-1.3-.6-1.6-1.8-1.4zm14.7-143.8c.9.1 1.8-.2 2.7-.3.2 0 .5.1.1-.3-.8-1-1.4-2.1-2.2-3.1-.8-1-3.1-1.3-3.2-.5-.2 1.2-.6 2.4 0 3.6.8 1 1.8.5 2.6.6zm-81.8 136.1c.9-.4 1.4-.1 2-.1.3 0 .8.2.9-.3 0-.4-.4-.4-.7-.5-1.8-.7-3.2-.4-4.6 1-1 1.1-1.2.9-.1 1.7.1.1.2.1.2.2.6 2 2.3 1.1 3.5 1.3-.8-.4-1.6-.9-2.8-1.5 1.4 0 2.3-.2 3.3.3.6.3 1.2.5 1.5-.3.3-.7-.4-.8-.9-.9-.7-.3-1.4-.5-2.3-.9zm158.6 200.6h-1.1c-.4 0-.8 0-.8.5 0 .4.1.8.6 1 2.1.7 4.1 1.5 5.8 3 .5.5 1.1.4 1.7 0 .7-.5.2-1-.1-1.4-1.4-2.1-4.1-2-6.1-3.1zm-81-284.8c-1.5.4-2.4-.2-3.4-1.4-1.1-1.4-2.7-1.5-4-.8-.8.4-.9 1.1-.9 1.8s.6.9 1.1 1c2.5.9 4.8-.4 7.2-.6zm55.1 277.7c1.5.3 2.8-.3 4.2-.9.6-.3.8-.9.8-1.5-.1-.7-.7-1.2-1.3-1.5-.4-.2-.9-.3-1.2.2-.9 1.2-2.6 1.3-3.5 2.5-.3.4-1.1.4-.9 1 .2.7.9.3 1.3.3.1 0 .3-.1.6-.1zm-18.8-310.4c1.1.1 1.5.9 1.3 1.6-.4 1.6.3 1.5 1.4 1.3.5-.1 1.1-.1 1.7-.2.4 0 .9-.1.9-.6.1-.4 0-.8-.3-1.2-.6-1-1.6-1.7-1.9-2.9-.1-.4-.3-.7-.7-.6-.4.1-.9.2-.8.7.3 1.1-.5 1.5-1.6 1.9zm-46.6 120.1c.3.4.6.3.8.3 1.6-.4 3.1-.4 4.8.1 1.4.5 2.8 0 4-1 .2-.2.6-.3.4-.7-.1-.3-.2-.8-.6-.8-1.7.1-3.5 0-5.1.7-.9.4-1.6.7-2.4.2-.5-.4-.9-.4-1.1.4 0 .2-.4.4-.8.8zm44.3 186.8c-.8-1.4-1.9-.7-2.8-.7-1.5 0-2.9.4-4.1 1.5-.9.9-.3 1.4.3 2 .3.2.3.2.9-.6.2-.2.4-.3.7-.3 1.1 0 2.3-.4 3.4.7-.2-1.5.7-2 1.6-2.6zm-.8-258.6v.5c-.1 1 .2 2.1 1.1 2.1 1 .1 1.9-.8 1.7-2-.1-.5.2-.8.4-1.1.6-.7.4-1.5.4-2.3 0-.4-.3-.8-.6-.6-1 .6-1.9 1.2-2.8 1.9-.5.3-.2.9-.2 1.5zM225.5 392c1.3 0 1.9-1.2 1.6-2.4-.5-1.7-2.1-2.2-3.3-3.1-.2-.2-.7-.1-1 .2-.3.2-.3.5-.2.8.5 1.2 1.3 2.2 1.6 3.5.1.4.7.9 1.3 1zm24.7-115.9c-1.5-.9-.3-1.1.3-1.6.4-.2 1.4-.1 1-.7-.3-.6-.3-.8 0-1.3.2-.3.4-.7-.1-1-.3-.2-.9-.2-1 0-.8 1.3-2.3 1.6-3.2 2.7-.5.7-.8 1.7-.5 2.3.4.8 1.4.2 2.1 0 .5 0 1-.2 1.4-.4zm12 132.9c-1.8 0-3.4 1.1-4 2.7-.1.3-.4.7 0 1 .4.4.7.1.9-.1.3-.3.7-.6 1.1-.3 1.5 1 2.5.9 2.8-1.1l.1-.1c.4-.3.9-.5.5-1.2-.3-.8-.8-1-1.4-.9zm-10.9 19.1c-1.1.4-2.9.2-4.5.9-.4.2-.9.4-.8.9.1.4.5.7.9.7 1.8.1 3.6.3 5.3-.1.4-.1 1.3-.4.9-1.1-.2-.5-.1-1.6-1.8-1.3zm83-134c-.1-1.2.2-2.3-.6-3.1-.2-.2-.4-.5-.7-.3-.3.2-.8.3-.7.7.2.6 0 1.2.5 1.7.6.5.6 1.2.4 2-.4 1.8-.8 3.6-.5 5.5 0 .3 0 .6.4.7.2.1.5-.1.5-.3-.1-.8.6-1.3.7-2 .4-1.6-.6-3.4 0-4.9zm-84.4 115.3c-.7-.1-1 .3-1.4.7-.5.6-.2 1.6.3 1.4 1.2-.6 1.6.3 2.3.8.6.4 1.3.2 1.8-.4.3-.4.4-.9.7-1.2 1.2-.8.3-1.2-.2-1.7-.7-.6-1.5-.4-2.1 0-.5.5-.8.8-1.4.4zm35.2-39s.4-.6-.4-.7c-.5-.1-1.2-.3-1.6.2-.4.6-.6 1.4-.7 2.2 0 .2.4.7.8.1.2-.3.4-.3.6-.1 1.4 1.8 3.8 1.6 5.5 2.7.3.2.6.3 1 .4.4.1.9 0 1-.5.1-.5-.3-.5-.7-.6-1.3-.4-2.5-1-3.9-1.2-1.2-.1-1.7-.9-1.6-2.5zm40.8-98.1c0 .1 0 .4.2.6.3.4 0 1.3.8 1.3.9 0 .6-.8.8-1.3.6-1.5.2-3.1.4-4.6.1-.5-.9-1.4-1.7-1.4-.8 0-.6.8-.6 1.4-.2 1.3.6 2.5.1 4zM254 255.5c-.3.7.3 1.1.7 1.5.3.3.6.1.8-.2.4-.4.8-.8.5-1.6-.6-1.6-2-2.7-2.8-4.1-.5-.8-1.1-.9-1.8-.8-.3 0-.5.2-.4.5.1.7.1 1.3 1 1.6 1 .7 2.3 1.3 2 3.1zm-25.4 352.9c1.1-.2 2.2-.4 3.3-.8.5-.1 1.2-.3 1.1-.9-.1-.7-.9-.6-1.4-.5-1.7.4-3.3.7-4.9-.6-.3-.3-1.1-.1-1.3.6-.1.6-.1 1.3.6 1.5.9.4 1.8.5 2.6.7zm6.5-349.1c0 .1-.3.9.7 1 1.1.1.7-.8.8-1.3.3-1.8.4-3.7 1.6-5.2.4-.5-.1-.8-.5-.8-.7 0-1.4.1-1.7 1-.6 1.5-1 3.2-.9 5.3zm-16 159c0 .9.6 1.4.4 2.1-.2.6 0 1.2.8 1.2.7 0 1.4-.4 1.5-1 .3-1.2 0-2.5-.5-3.6-.3-.7-.9-.7-1.4-.4-.2.1-.8-.4-.7.1.1.7-.1 1.3-.1 1.6zm120.2 129.5c-.4.1-.9.3-1.3.3-1 0-1.8-.1-1.7 1.3 0 .2-.3.5-.5.7-.3.4-.7.7-.3 1.2.4.4 1 .5 1.4.3 1.1-.6 2.1-1.4 3.1-2.1.4-.3.3-.6.2-.9-.1-.5-.3-.8-.9-.8zm-10.3 75c.1.3-.4.9.2 1.1.5.2.9-.1 1.2-.4.3-.5.7-.8.7-1.6.1-.9 0-1.8.2-2.6.1-.5.5-1-.2-1.2-.6-.2-1.2-.2-1.4.6-.4 1.3-1.2 2.6-.7 4.1zm-40.7-278c0-.1-.2-.4-.2-.7-.2-.9-.2-1.9-1.6-.9-.6.4-1.8-.2-2.3-1-.2-.3 0-1-.6-.8-.4.1-.7.6-.9.9-.2.5.4.6.6.9.5.6 1.6.5 1.9 1.2.5 1.3 1.7.9 2.6 1.2.3.3.6-.1.5-.8zm-2.2 66.2c-.1-.8 2.1-1.8-.2-2.4-.3-.1-.2-.5-.1-.8.1-.4.5-.8 0-1-.5-.2-.9.1-1.1.8-.3 1.5-1.6 2-2.6 2.8-.1.1-.6-.1-.7.3 0 .4.4.5.6.6.7.5 1.5.3 1.7-.3.9-2.1 1.6-.8 2.4 0zm3.4-109.4c.1-.6-.2-1.1-.6-1.3-.7-.3-.6.5-.8.8-.3.5-.6 1-1 1.4-1 1-.7 2.4.7 2.9.6.2 1.9-.7 1.7-1.2-.5-.9-.2-1.7 0-2.6zm55.8 82.4c.2.8-.7 1.3 0 1.8.5.3 1.2 0 1.6-.3.9-.7 1-1.8 1.3-2.8.1-.5-.4-1.4-.9-1.7-.8-.4-1 .6-1.5 1-.9.6-1.1 1.3-.5 2zm-35.1-16.3c.3-.8-.2-1.2-1-1.3-.8-.1-1.5.6-1.4 1.1.4 1.3-.5 1.2-1.1 1.4-.4.2-.9.4-.9 1 .1.5.6.6 1 .5.9-.2 2.7 1.2 2.5-1.3 0-.1.2-.2.4-.2.6-.2.7-.6.5-1.2zm33.1 12.3c.2.6.3 1.3.8 1.8.3.2.6 0 .8-.2 1.2-1.1 1.9-2.5 2.4-4 .1-.4-.1-.6-.4-.7-.3-.1-.6-.1-.7.1-.4 1-1.4 1.1-2.1 1.6-.4.4-.8.7-.8 1.4zm-98.4 43.9c.8.1 1.5-.2 1.3-1.2-.2-.9.3-2.3-1.3-2.3-1.1 0-2 .7-2.3 1.6-.3.9 1 1.9 2.3 1.9zm94 93.2c-.1.8.2 1.4 1 1.4 1.1-.1 2.3 0 3.3-.7v-.3c-.3-.6 0-1.7-1.1-1.8-1.1-.1-2.2 0-3.1.8-.2.1-.1.4-.1.6zm-82-181.1c1.4.3 2.7.4 4 .4.7 0 1.6.1 1.5-.8-.1-.7-.6-1.4-1.6-1.5-1.7-.2-2.9.5-3.9 1.9zm86.8 123.1c-.6-.3-1-.5-1.4-.6-.9-.3-1.9-.4-.9-1.7.3-.4 0-.7-.4-.7-1-.1-1.6.1-1.6 1.2 0 1.1-.1 2.1-.5 3.1-.2.5 0 .7.3.8.3.2.6.1.8-.2.2-.4.4-.7.4-1.1-.2-1.4.7-1.1 1.4-.7.5.3 1 .3 1.9-.1zm-98.5-190.9c2.5 0 4.9-1.6 5.7-3.8.1-.3.4-.8-.2-1-.6-.2-.4.3-.6.6-.9 1.4-1.9 2.8-3.9 2.7-.4 0-.8 0-1.2.1-.4.1-.8.5-.7.9.1.5.6.4.9.5zm3.6-14.7c-.8-.1-1.3.6-1.4 1.5-.1 1 .8.6 1.3.8.8.3 1.9.1 2.2 1.3 0 .1.5.5.9.4.2-.1.3-.2.3-.5.2-1.2-1.9-3.5-3.3-3.5zm-15.3 144.7c-.5 1.2-.7 1.9 1 1.8 1.1-.1 2.2.2 3.3.4.9.1 2.3.6 2.6-.6.1-.5-1.6-.8-2.6-.9-1.4-.1-3 .5-4.3-.7zm16.7-150.1c-1.1-1.3-2.1-1.2-3.4-.4-1.1.6-2.5 1.4-3.9.8-.3-.1-1-.2-.9.4 0 .4.4.7.9.6 2.3-.4 4.9 0 7.3-1.4zm98.5 179.5c-.1-.5-.6-1.1-1.1-1.4-.7-.4-1.4-.8-1.6.7-.1.9.3 1.8-.2 2.7-.2.5.6 1.3 1 .8.6-.9 1.7-1.4 1.9-2.8zm-22.9-66.9c-.2.6-.5 1.2.4 1.3.7.1 1.4.1 1.8-.8.4-.8.3-1.7.7-2.4.3-.4.7-.9-.1-1.1-.6-.2-1.1-.2-1.2.6-.1.6-.3 1.2-.9 1.3-.7.2-1 .5-.7 1.1zm-7.9 41.9c1-.1 1.7-.2 2.5-.2.3 0 .8 0 .8-.5s-.3-.8-.9-.8c-.9 0-1.9.2-2.7-.2-1-.5-1.6.2-2.2.5-.7.4.3.9.1 1.5 0 .1.4.3.5.2.4-1.2 1.4-.5 1.9-.5zm20.5-52.6c-.3.3-.4.7.1.8.6.1 3.1-1.7 3-2.3-.1-.8-.8-1.6-1.5-1.5-1.4.4-2.1 1.5-1.6 3zm-93.3 39.8c.8-.3 1.5-1 1.9-2 .5-1 1.1-1.8 2.2-1.8 1 0-.5-.9.4-1.1.4-.1-.3-.5-.5-.7-.3-.3-.5 0-.7.2-1.3 1.6-2.7 3.1-4.1 4.7-.1.1-.3.2-.2.5.2.2.4.3 1 .2zm93.4 17.3c.2.5-.1.7-.3 1-.6.8-1 1.6.1 2.4.3.2.4.8 1 .7.7-.1.3-.7.4-1.1.4-1.1-.6-2.3.2-3.4.2-.3.4-.7.1-1-.3-.3-.7.1-1 .2-.5.3-.8.6-.5 1.2zM207.7 599.9c1.9.1 1-1.7 1.8-2.3-.5-.3-.1-1.4-1.1-1.3-1.1.1-2 1.1-2 2.7 0 1.2.9.7 1.3.9zm6.4-4c-.3-.4 0-1.1-.3-1.6-.4-.8-1.2-1.7-2.1-1.4-1.1.4-.3 1.3-.1 2.1.2.6.5 1.1.9 1.6.3.3.7.4 1.1.2.3-.2.5-.4.5-.9zm39.6-199.5c1.1-.2 1.9-.8 2.6-1.6-.9-.1-.7-1.5-1.8-1.4-1 .1-2.2 1.3-2.1 2.2.1.6.7.7 1.3.8zm70.8 26.1c.6 0 .8-.4.9-.9.1-.6.2-1.2.6-1.7.3-.5.4-1.1 0-1.6-.4-.4-.8-.1-1.1 0-.6.3-1.1.7-.8 1.4.1.5.2.9-.3 1.2-.3.2-.6.6-.4.9.2.4.7.5 1.1.7zm19.1 43.1c-.5 0-.7.3-.8.9 0 .5.4.8.2 1.3-.2.6 1.5 2.2 2.1 2 .4-.2.4-.5.3-.9-.3-.9-.4-1.8-.7-2.7-.2-.5-.5-.6-1.1-.6zm-52.9-41.5c-1.1-.3-1.7.6-2.4 1.1-.3.2-.3.8-.1 1.1.2.3.6.3 1 .2.6-.2 1.2-.4 1.9-.6.7-.2 1.9.1 1.7-.9-.2-1-1.5-.7-2.1-.9zm85.5-15.2c-.4-.8-1.1-.7-1.7-.6-1.2.3-2.3 0-3.4-.4-.7-.2-1.4 0-2.1-.1-.4-.1-.6.3-.7.7-.1.3.1.5.4.5 2.5-.1 4.9.4 7.5-.1zm-55-46.4c-.5-.6-.9-1-1.2-1.4-.3-.6-.4-1.4-1.3-1.3-1 .1-.8 1.1-1 1.7-.4 1 .1 1.4 1.1 1.4.9.1 1.6-.1 2.4-.4zm-7.7-166.3c0 1.4.7 2.9.6 4.4 0 .4.3 1 .9.8.5-.1.5-.5.5-1-.1-1.9-1.4-3.5-1.4-5.4 0-.1-.2-.3-.3-.2-.2.1-.4.2-.4.3-.1.3.3.6.1 1.1zm-53.7 238.3c-.1 0-.3 0-.4.2-.3.6.9 3.3 1.6 3.5.3.1.5 0 .7-.2.4-.9-.4-1.9.4-2.7-.7-.3-1.4-.7-2.3-.8zm-12.9-190.4c0-.4-.3-.5-.7-.6-.9-.4-2.9.7-3.2 1.6-.1.4.1.7.3.9.2.2.6.3.8 0 .6-.5 1.2-.7 1.9-.9.6-.1.6-.6.9-1zm97.3 124.4c1 .3 1.4-.7 1.9-1.4.2-.4.5-1.1-.2-1.3-.6-.2-1.4-.5-1.8.5-.1.4 0 .8-.5 1-.3.1-1 0-.7.7.2.4.6.6 1.3.5zm-85.7-118.8c-.6-.5-1.2-1.1-1.8-1.5-.5-.4-1.3-.8-1.6 0-.1.4-1.1 1.1.4 1.7 1.1.5 1.8.2 3-.2zm65.5-62.5c.2.8.4 1.8.6 2.9.1.3.3.6.7.4.2-.1.6-.3.6-.4-.3-.7.1-1.7-.2-2.2-.4-.7-.8-1.2-.7-2 0-.6-.3-.6-.7-.5-.4 0-.6.3-.3.6.1.4.1.7 0 1.2zm-41.3 158c-.8 0-1.3 0-1.3.5-.1.5.4.6.8.8 1.3.8 3.2.5 4.1 2.1.1.2.5.3.7 0 .2-.2.1-.4-.1-.6-1.2-1.5-2.9-2.2-4.2-2.8zm2.8 118.7c.4.3.8.4 1.3.5.7.1.3.8.6 1.1.1.1.4.2.6.1.9-.3 2.5 1.1 2.5-1.1 0-.2.4-.4.6-.6.5-.4.8-.9.9-1.5-.8.2-.8.2-1.2.9-.8 1.4-1.9 1.7-3.3 1-.6-.5-1.2-.9-2-.4zm40.6-288.1c-1.1.4-2 .3-2.7-.7-.2-.3-.7-.3-.8.3-.1.6 1.9 2.8 2.5 2.8.4 0 1.2-.6 1-.7-1.2-.5 0-1.1 0-1.7zm-45.8 262.5c0-.5-.4-.8-1.1-.8-1.2 0-2 .9-2.1 2.1 0 .4.1.5.5.5 1.3.1 2.7-.9 2.7-1.8zm3.1-80c-1.3-1.5-3-.7-4.5-.6-.3 0-.5.1-.6.4 0 .3.2.4.5.5 1.6.2 3.2.8 4.6-.3zm41.9 11.3c.8-.3 1.3-1 1.3-1.7 0-.6-.1-1.6-1-1.4-1 .2-1.4 1.3-1.6 2.1-.2.5.8.7 1.3 1zm7.7 221.9c.4.8 1.1.9 1.5 1.3 1.3 1.3 3.2-1.3 4.3.9.1.1.6 0 .7-.4.1-.3.3-.5.4-.7-1.5-1.3-3.2.2-4.8-.6-.6-.2-1.2-.6-2.1-.5zm-9.7-202.9c0 .3-.3.7.2 1.1.4.3.8 0 1.1-.2.4-.2.2-1 .1-1.1-.5-.9-.7-2-1.1-2.9-.2-.4-.6-.4-.9-.2-.4.2-.3.6 0 .9.6.6.7 1.4.6 2.4zm-2.2 19.3c-1.4-.4-2.6-.9-3.1.7-.2.6.2 1.3.8 1.5 2.1.6 1.1-1.8 2.3-2.2zm-75.5-148c-.2.7.2 1.1.7 1.4.4.2.8.2 1.1-.1.5-.6-.1-.9-.3-1.3-.3-.5-.2-1 0-1.4.2-.3.4-.7-.1-.9-.4-.2-.8.1-1.1.4-.3.4-.1 1.2-.3 1.9zm0 289.6c1.3.1 1.5-.8 1.6-1.6.1-.9-.8-.9-1.3-.9-.9-.1-1.3.6-1.4 1.5 0 .6.5 1 1.1 1zm77.4-371c0 .9-.4 1.3.2 1.8.5.5.8 1.2.8 1.9.1.6.4 1.2 1.1.9.6-.2.6-.9.3-1.5-.5-1.1-1.4-1.9-2.4-3.1zm-94.7 242.6c.6-.5 1.8.8 2.2-.4.1-.4-1.4-1-2.1-1-.9.1-2.5.1-2.5.9 0 1.1 1.4 0 2.2.5-.1 0 0-.1.2 0zm114.8 60.2c.3-.3 1.8.1.6-1.2-.2-.2-.2-.6 0-.8.7-.6-.1-.6-.4-.7-.8-.4-.9.5-1.3.7-.3.2-.7.7-.3 1.2.3.5.7.8 1.4.8zm9.1 25.6c.1-.7-.2-1-.6-1.1-.4-.2-.8-.3-1.1.1-.5.7-.2 1.8-.9 2.5-.1.2.2.4.5.4s2.1-1.8 2.1-1.9zm-99-225.6c-.6.3-1.6.3-1.3 1.5.1.6 0 1.3.9 1.2 1.2-.1 1-1.4 1.3-2.1.1-.5-.4-.6-.9-.6zm69.3 46.7c.8 0 1.2-.6 1.5-1.1.4-.6.4-1.4-.2-1.8-.8-.5-1 .2-1.2.9-.1.4-.5.8-.7 1.2-.4.6-.1.8.6.8zm-27.4 84.5c.8-.1 1.4-.4 2-.1.5.2 1.3-.2 1.3-.9 0-.4-.4-.9-1.2-.9-1.1 0-1.8.5-2.1 1.9zm-46.2 9.3c-.5.1-1.1 0-1 .6.2.5.2 1.6 1.1 1.4.8-.1 2.1-.1 2-1.2-.1-1.4-1.6.2-2.1-.8zm92.2 55.9c-.4-.5-.2-1.4-1-1.8-.6-.3-1.1 0-1.6.3-.1.1-.6.3-.2.5.8.3 1.1 1 1.6 1.5.2.2.5.4.8.2.3-.1.4-.3.4-.7zm-15.8-52c0-.6-1.2-2-1.7-2.1-.6 0-.5.7-.9.9-.1.1 1.9 1.8 2.1 1.8.4 0 .5-.2.5-.6zm-64.5 131.1c-1-.4-2-1-3.1-.9-.4.1-.8.2-.7.6.1.4.3.9.5 1.2.2.2.5.1.7-.1.5-.9 1.6-.8 2.6-.8zm35.3-205.1c.7.8.3 2.3 1.9 2.2.5 0 .9-.4.7-.9-.3-1.1-1.1-1.6-2.6-1.3zm52.5 24c.1.5-.4 1.1.3 1.2.6.1 1-.4 1.1-1.1 0-.2.1-.4.1-.6 0-.4.9 0 .5-.5s-.9-.7-1.5-.2c-.4.4-1 .7-.5 1.2zm-83.7-131.9c-.5.5-1.5.4-1.4 1.5 0 .5-.1 1 .7 1 .9 0 1.4-.5 1.4-1.3.2-.4 0-.9-.7-1.2zm59.7 114.1c.9-.1 1.5.4 1.9-.4.4-.7.3-1.4-.1-2-.2-.3-.5-.6-.9-.5-.4.1-.3.5-.2.8.1.7.2 1.4-.7 2.1zm-58 46.1c-.6.1-.8.6-.8 1.2 0 .8.4 1.1 1.2 1 .4-.1 1.1-.1.9-.7-.2-.6-.2-1.5-1.3-1.5zm66.7-74.5c0-.7 0-1.3-.7-1.4-.7-.1-.6.5-.6.9 0 .3-.3.6-.3 1-.1.4-.6.8 0 1.2.7.4.8-.3 1.1-.7.2-.3.5-.7.5-1zm17 41.9c.1-.5-.2-.6-.5-.5-.8.1-1.5.3-1.6 1.3 0 .6.4 1.2.7 1.1 1-.1 1-1.1 1.4-1.9zm-87.9 49.9c-.1-.7-.5-1.1-1.2-1.1-.4 0-1-.1-.8.6.2.7.2 1.7 1.1 1.8.9.1.5-1 .9-1.3zm-26.8 125.2c.4.5.9.9 1.6 1.1.7.2 1.1-.1 1.3-.7.2-.8-.4-.7-.9-.8-.7-.2-1.4-.4-2 .4zm-10.1-135.9c-.1-.5-.3-1-.8-.9-.6.1-1.5 0-1.6 1-.1.6.4.8.9.8.6 0 1.2-.1 1.5-.9zm24.1-16.3c.2.3-.7 1.2.5 1.1.8-.1 1.2-.5 1.3-1.3.1-.9-.8-.7-1.2-.8-.8-.2-.7.5-.6 1zm70.2 10.2c.7.4 1 1.2 1.8 1.2.6 0 1-.1 1.1-.8.1-.7-.4-.7-.8-.9-.7-.1-1.3.2-2.1.5zm25.1-28.8c.1-.3.1-.6-.1-.6-.2-.1-.5 0-.7.1-.4.3-.8.7-1.1 1-.3.3-1 .3-.7.8.3.5.9.4 1.4.2.5-.4 1-.9 1.2-1.5zm-16.3 41.8c.5.8.7 1.9 2.1 1.4.5-.2.5-.7.3-1-.7-1-1.5-1.1-2.4-.4zm15.4-12.7c.5-.3 1.4.1 1.6-.8.1-.5-.4-1-1-.9-.6.1-1.4.3-1.6 1-.2.7.5.7 1 .7zm-67.6 106.9c1.1 1.2 2 .4 3-.1.4-.2.6-.4.4-.8-.2-.4-.6-.3-.9-.1-.8.4-1.5 1-2.5 1zm-17.2-258c0-.6-.3-.8-.9-.8-.8-.1-.9.7-1 1.1-.1.6.4 1.2 1 1.1 1 0 .5-1 .9-1.4zm2.1 120.2c0-1-.2-1.6-1-1.7-.5-.1-.6.5-.5.7.3.6-.2 1.7.8 1.9.7.2.7-.6.7-.9zm24.8 87.4c-.3 0-.6 0-.5.4.1.2-.2.5.3.5.8 0 1.4.4 2.1.8.3.2.8.1 1.1-.3.2-.3-.1-.5-.3-.6-1 0-1.8-.5-2.7-.8zm4.8-127.6c0-.6-.4-.7-.9-.7-.7.1-.9.5-1 1.1 0 .6.3.8.8.8.8 0 1-.6 1.1-1.2zm-3.5 87.6c0-1-.7-1.4-1.4-1.7-.3-.2-.8-.4-1.1.1-.2.4 0 .8.3 1.1.6.5 1.4.3 2.2.5zm-34.5-172.1c.4 0 1 .1 1-.5 0-.7-.6-.9-1.2-1-.5-.1-1.3.2-1.2.7 0 .7 1 .5 1.4.8zm22.6 196.6c.7 0 1.4.1 1.5-.7.1-.7-.6-.7-1-.7-.6 0-1.4.3-1.5.8-.1.7.7.5 1 .6zm53.3-35.6c-.5-.3.1-1.2-.5-1.3-.6-.1-1.1.4-1.3 1-.1.5.3.8.8.9.4 0 .9 0 1-.6zm-49.1-92.4c.3-.3.9-.6 1-1 .1-.5-.5-.9-1-.8-.6.1-.8.6-.9 1.1 0 .3.4.6.9.7zm7.1 67c-.7-.8-1.4-1.1-2.3-.7-.3.2-.7.3-.7.7.1.5.6.3.9.3.6 0 1.3-.1 2.1-.3zm53.2 95.5c-.8-.4-1.5-.5-2.1.2-.2.3-.1 1 .3 1.1 1.1.3 1.1-1 1.8-1.3zm-58.4-124c-.3-.6-.9-.6-1-1.1-.1-.4-.3-.7-.7-.6-.3.1-.6.4-.6.8s.2.6.6.8c.5.3 1.1.2 1.7.1zm10.7 7.3c-.4 0-.8.1-.7.4.3.7 1 .9 1.6 1.2.4.2.7-.3.6-.7-.2-.8-1-.7-1.5-.9zm-17 146.3c.5-.3 1.6.1 1.4-1-.1-.3-.1-1-.6-.9-1 .2-.4 1.3-.8 1.9zm82.2 12.2c.9-.3.7-1.2 1.1-1.9.1-.2-.1-.5-.4-.5-.3-.1-.8 0-.8.2.3.8-.7 1.5.1 2.2zm-12.9-190.8c.1-.4.2-1-.6-.9-.5 0-.8.5-.7.8.1.5.3 1.2.9 1.2.6 0 .5-.6.4-1.1zM281.7 461c.6-.7 1.7-.1 1.8-1.2.1-.4-.2-.4-.6-.4-.7.1-1.5.2-1.2 1.6zm25.2-73.1c.4-.3 1.2.2 1.3-.6 0-.4-.4-.8-.9-.8-.7 0-.8.6-1 1-.2.4.3.4.6.4zm28.8 248c-.5-1.6-2-.8-3-1.3.7 1.2 2.4.1 3 1.3zM229.4 394.1c-.4-.5-.7-.9-1-1.2-.3-.3-.7-.3-1-.1-.2.1-.3.3-.2.5.1.3.3.5.6.6.6.1 1.1.1 1.6.2zm-4.3 35.4c.3-.2 1.2.3 1.1-.5 0-.7-.9-.6-1.4-.6-.4 0-1-.3-1 .4.1.8.7.7 1.3.7zm67.2 9.4c.1.6.5.9.8 1.2.3.3.7.8 1.1.3.5-.7-.4-.6-.7-.8-.3-.3-.5-.8-1.2-.7zM270.8 509c-.5.1-.8.5-.8.8 0 .6.6.7 1.1.8.3 0 .6-.2.6-.5-.2-.5-.4-.9-.9-1.1zm26-148.6c-.2-.4-.6-.7-1.1-.5-.4.1-1 .2-.8.7.1.2.5.8 1.1.7.4-.1.7-.3.8-.9zm39 43.1c-.4.1-.8.2-.8.7 0 .6.5.6.9.6s.9.1.9-.5c0-.5-.5-.8-1-.8zm47.2.7c.3-.2.9 0 1-.5 0-.6-.5-.7-1-.7-.4 0-.9.2-.9.7 0 .4.5.5.9.5zm-81.8-92.6c-.3 0-.8-.1-.7.5.1.5.5.9 1 .9.4 0 .4-.4.4-.7.1-.5-.2-.8-.7-.7zm-17.8 139.1c.1-.3.9 0 .7-.6-.1-.4-.2-.9-.8-1-.5-.1-.5.4-.5.7 0 .4-.1.8.6.9zm89.3-147.9c1.1 0 1.5 1.5 2.6.4-.8-.4-1.2-1.4-2.6-.4zm-13.1 256c-.2-.4-.2-1-.8-1-.5 0-.8.5-.8.9 0 .5.6.6 1.1.6.4.1.5-.1.5-.5zM235.7 280.5c1-.1 1.7-.2 2.2-1.2-.9 0-1.7.1-2.2 1.2zm58.1 69.4c.8 0 1.4.8 2.2.2.2-.1.2-.4 0-.5-.7-.4-1.4-.5-2.1 0-.1-.1 0 0-.1.3zm-70.8 81c.3-.1.9-.2.9-.7.1-.4-.3-.5-.6-.5-.4 0-1 0-1 .6 0 .5.2.6.7.6zm84.4-120.4c.6 0 .5 1.4 1.4.7.3-.2.3-.7.1-1-.6-.6-1 .1-1.5.3zm-53.9-6.4c.4-.1.6-.6.7-1.1 0-.3-.3-.4-.6-.3-.5.1-.9.3-.9.9 0 .4.2.6.8.5zm69.5-45.7c1-.1 1.9.2 2.7-.5v-.3c-.8-.3-1.6.1-2.4.2-.1.1-.1.3-.3.6zm-46.7 91.1c-1-.2-1.6-.7-2.1-.1-.2.3.1.6.3.8.9.6 1-.3 1.8-.7z"/><path d="M363.3 527.3c.5.6-.1 1.6.8 1.6.8 0 .7-.9 1-1.4.2-.4.1-.9.6-1.2.6 1.5 0 3.9-1.1 4.9-.9.9-2.1 1.7-2.7 2.9-.3.6-.6 1.4-1.5 1.3-.4 0-.5-.4-.5-.7 0-.9 0-1.9.9-2.2 1.2-.4 1.6-1.2 1.5-2.3 0-1 .8-1.8 1-2.9zM334.1 217.9c-.3 1.8-.1 2 1.5 1.7.4-.1 1-.3 1.3-.1 1.3.6 2.5.3 3.8-.5-.5 2.5-1.1 3-3.4 2.9-.9 0-1.5.2-1.7 1.4-.6-1-1-1.6-1.7-2.1-1.6-1.1-1.5-2 .2-3.3zM372.5 511.8v6.9c0 1 .4 2 .2 3-.1.4-.2.9-.6 1-.6 0-.5-.6-.5-.9-.1-2.3-.2-4.5-.1-6.8 0-1 .3-2.1.5-3.1.1-.1.3-.1.5-.1zM373.4 507.5c-.8-2.7.4-5.2-.7-7.6-.2-.6.2-.8.7-.9.4-.1 1.1-.1.9.4-.8 2.5.4 5.3-.9 8.1zM372.3 489.3c.7 2.2 1.5 4.4 2.1 6.7.2.8-.9 1.4-.7 2.3 0 0-.4.1-.5.1-.3 0-.2-.3-.2-.5.2-2 0-3.9-.9-5.9-.3-.6-.2-1.7-.2-2.6.1-.1.2-.1.4-.1zM331 229.6c.8-1 3.3-1.6 4.2-1.1l.3.3-1.8 2.4-.4-.1c-.2-1.4-1.3-1.4-2.3-1.5zM335.6 224.3c-.2 1.3-.8 1.8-1.6 1.9-1.2.1-2.3 0-3.4.5-.3.1-.8-.1-.9-.4-.1-.5.4-.6.8-.7h2.4c1 .1 1.8-.3 2.7-1.3zM358.5 496.9c.5-.6 1-1.2 1.4-1.7.3-.4.7-.3 1.1-.2.3.1.5.3.5.7 0 .5-.5.8-.8.8-.6.1-1.2.7-2.2.4zM372.3 526.7c.2 2 .5 4.1-.3 6.1-.1-2.1.1-4.1.3-6.1zM231.8 257.3c-.4-1 0-1.9.3-2.8.1-.3.4-.5.7-.3.3.1.2.4.1.6-.4.7.3 1.9-1.1 2.5zM347.5 457.3c-.5 0-.6-.3-.6-.7 0-.6.4-1 .9-1.1.4-.1.4.5.5.8.1.6-.2.9-.8 1zM238.1 330.1c2.8.6 5.7.8 8.6.7 1.1 0 2.1-.4 3.1-.8.7-.3 1.3-.6 2-.8 1.6-.3 2.7.3 3.1 1.9 0 .2.1.5 0 .6-1.1 1.1-2 2.6-3.7 2.9-.6.1-.9.1-1.2.7-.6 1-1.8 1.2-2.8 1.4-1 .3-2.2.2-3.2.4-.9.2-1-.9-1.6-.8-2.2.2-3.5-1.7-5.3-2.3-.5-.2-1-.2-1.5-.4s-1.4-.2-1.4-.8c0-.7.3-1.5 1-1.9.8-.5 1.8-.8 2.9-.8zM240.2 316.9c2.5.1 4.1.7 5.7 1.1.4.1.7.5.7.9 0 .7-.5 1.3-1.2 1.5-1.6.6-3.3 1.2-4.9 1.6-2.1.5-4.2.8-6 2.1-.3.2-.6.2-.8 0-.3-.3-.2-.6.1-.8.4-.4.6-.9.4-1.5-.5-1.2.1-2 1.1-2.8 1.6-1.3 3.3-2.4 4.9-2.1zM240.9 309.2c-1.2.8-2 1.8-3.2 2.1-.4.1-.7.1-.9-.3-.1-.3 0-.6.2-.8.9-1.4 2.2-1.3 3.9-1zM254.8 518l.3-.6c.2-.5.8-.6 1.2-.2.8.6 1.5.2 1.8-.5.4-1.1 1.2-1.1 1.8-.7 2 1.6 4.5 1.5 6.7 2.5.4.2.9.2.7.8-.2.6-.7.4-1 .2-.5-.2-.9-.4-1.4-.6-1-.5-1.9-.5-2.9.1-1.5.9-3.1 1.3-4.7-.1-.6-.5-1.6-.6-2.5-.9zM248.3 527.7c-.5-.1-1.6.4-1.6-.6s1.1-.8 1.8-.8h.8c.5-.1.9-.6 1.4-.1.3.2.1.4-.1.6-.4.5-.7 1.2-1.5.9h-.8zM253.4 518.2c-.4 0-.8 0-1.2-.1-.5-.1-1-.4-1-1 0-.2-.1-.6.2-.6.5-.1.9.2 1.2.5.3.3.7.6 1.1.8-.2.1-.3.2-.3.4zM317.6 313.8c0 3.7-.7 7.2-1.7 10.8-1.1-1.2-1.5-2.4-.6-3.6.8-1.2.7-2.4.8-3.7 0-1.4.8-2.4 1.5-3.5zM323.6 317.1c1.7.1 1.8 1.2 1.8 2.2 0 .3-.1.9-.6.9s-.7-.5-.7-.9c-.2-.6 0-1.4-.5-2.2zM315.7 325.2c.5 1.1.6 2.1-.1 3-.2.2-.3.6-.7.4-.3-.2-.1-.4 0-.7.3-.9.6-1.8.8-2.7zM324.4 311.5c-.2-1 .6-1.7.5-2.6 0-.2.4-.3.6-.2.2.1.4.4.3.6-.3.8-.5 1.7-1.4 2.2zM265.7 451.6c1 .5 2.3.7 3.5.8.2 0 .6.2.4.5-.2.4.1 1-.5 1.2-.4.1-.9.2-1.2-.2-.9-1.4-1.9-1.8-3.4-.9-.4.2-.5-.3-.4-.6.3-.5.8-.7 1.6-.8zM262.6 483.1c.8-.5 1.7-.5 2.5-.7.3-.1.7-.1.8.2.1.4-.1.7-.5.8-1 .4-1.9.7-2.8-.3zM307.5 193.9c.2-.6-.3-1.4.7-1.5.9-.1 1.2.5 1.3 1.3 0 .5.1 1 .2 1.5.1.7-.1 1-.9 1.1-.7.1-1.1-.1-1.1-.8-.1-.5-.2-1.1-.2-1.6zM314.3 178.3c.3 0 .6.2.7.5.1.3.1.7.1 1.1 0 .5 1.1.9.2 1.3-.5.2-.6-.8-.9-1.2-.2-.3-.3-.8-.4-1.2-.2-.3 0-.4.3-.5zM302.4 456.5c-.1-3.5 1.1-6.5 2-9.6.9-3 1.4-6.1 2.4-9.1.8-2.3 1.2-4.7 1.6-7.1.1-.5.9-.7.7-1.5-.1-.3.5-.7 1-.4.5.3.9 1 .6 1.2-1.3.8-.7 2.1-1.1 3.2-1.5 4.6-2.3 9.4-3.4 14.1-.7 3-1.3 6-2 9-.1.2-.2.5-.2.7-.1.7-.5 1.3-1.2 1.2-.7-.1-.2-1-.3-1.5-.2 0-.1-.2-.1-.2zM310.7 436.4c1.8.7 1.1 2.1.8 3.2-.6 2.4-1.8 4.8-2 7.2-.3 3.8-2 7.3-2.2 11.2-.1 1.8-1.2 3.5-1.3 5.4 0 .5-.4.7-.8.8-.4.1-.8 0-1-.3-.4-.6.4-.6.5-.9.1-.9.5-1.6.6-2.4.4-2.6 1.3-5 2-7.5.3-1.2.6-2.4.8-3.6.4-3.1 1.4-6.1 2.1-9.2.1-1.3-.1-2.7.5-3.9zM301.2 462.7c.2-.8.2-1.8 1.4-1.8.6 0 .6.5.5.9-.3.8-.1 2-1.4 2.1-.5 0-.5-.6-.5-1.2zM309.9 419.2c2.1-1.1 4.2-.7 6.3-.2.2.1.8.1.6.7-.1.4-.3 1-.8.8-1.9-.7-4.1-.5-6.1-1.3zM312.7 421.8c1.1-.2 2.2.2 3.3.3.3 0 .6.2.6.6 0 .4-.3.7-.7.6-1.6-.3-3.4.3-5-.4-.3-.1-.8-.1-.8-.6.1-.5.6-.6 1-.6.5 0 1.1.1 1.6.1z"/><path fill="none" d="M399.6-.7h100v800h-100z"/><path d="M474.5 523c13.8 0 25.7 8.3 25.7 24.4 0 15.6-11.3 23.7-25.5 23.7-14.4 0-25.5-9-25.5-24.4 0-14.5 10.1-23.7 25.3-23.7zm0 37c9.7 0 17-4.3 17-13.1 0-9.5-8-12.9-16.8-12.9-9.4 0-16.8 3.8-16.8 13.1 0 9 6.9 12.9 16.6 12.9zM447 515.2v-10.3h19.2c-2.4-1.5-4.8-4.6-4.8-10.7 0-10.1 8.4-15.2 18.8-15.2 10.7 0 20.2 5.5 20.2 16.2 0 5.5-1.7 8-4.4 9.8 1.2 0 2.6.2 3.5.4v9.9c-4-.1-8.1-.1-12.2-.1H447zm33.4-25.8c-6.2 0-10.8 2.3-10.8 7.9 0 5.9 3.8 8 11.4 8 6.3 0 11.1-1.9 11.1-7.9.1-5.2-4.6-8-11.7-8zM472.4 471.9c-3.7 0-7 0-10.1.1v-10.1c.8-.1 4.5-.3 6.5-.3-4.3-1.6-7.4-5.6-7.4-12h9.8c-.2 7.5 1.8 12 12 12h16.2v10.3h-27zM499.5 381.6v7.9c-1.5.4-3.2.7-4.9.8 3.7 2.8 5.7 7.6 5.7 14.5 0 14.4-10.9 22.5-25 22.5-14.9 0-26.2-8.7-26.2-24.3 0-12.8 7.2-20.3 15.7-21.5v10.7c-3.3 1-7.3 3.6-7.3 10.9 0 10.2 8.5 13.1 17.3 13.1 8.5 0 17-3.3 17-13.2 0-9.2-6.4-10.9-10.8-10.9h-.4V403h-8.8v-21.4h27.7zM472.4 372.3c-3.7 0-7 0-10.1.1v-10.1c.8-.1 4.5-.3 6.5-.3-4.3-1.6-7.4-5.6-7.4-12h9.8c-.2 7.5 1.8 12 12 12h16.2v10.3h-27zM483.1 336.4c4.7 0 9.2-2.3 9.2-7.5 0-4.3-1.7-5.5-4-6.5v-10.3c4.6 1.3 12.1 5.4 12.1 17.1 0 12.3-9.2 17.6-19 17.6-11.7 0-20-6-20-18 0-12.8 9.3-17.2 18.6-17.2 1.3 0 2.1 0 3.1.1v24.7zm-6.4-14.4c-4.3.1-8 1.8-8 6.8 0 4.9 3.4 6.9 8 7.3V322zM488.7 271.8c3.6 0 7.5 0 10.8-.1v10.1c-1 .1-3 .2-4.3.3 3.7 2.2 5.2 5.5 5.2 10.3 0 7.6-4.6 12.4-13.9 12.4h-24.3v-10.3h22.2c4.1 0 7.5-1.3 7.5-5.7 0-4.7-2.5-6.7-9.9-6.7h-19.8v-10.3h26.5zM496.2 252.2h17.6v10.3h-42.6c-3 0-6 0-9 .1v-10c1-.1 3.3-.3 4.6-.3-2.7-1.6-5.5-4.9-5.5-10.8 0-8.4 7-14.8 18.6-14.8 13.2 0 20.4 7.2 20.4 16.3.1 5.1-1.9 7.8-4.1 9.2zM480.3 237c-6.8 0-10.7 2.8-10.7 7.7 0 5.9 3.8 7.9 11.3 7.9 7.1 0 11.3-1.9 11.3-7.5 0-5.4-4.3-8.1-11.9-8.1z"/><path fill="none" d="M500 99.7h200v600H500z"/><path d="M700 572.2H593.7c3.1 6.6 5.6 18.6 6.2 25.7h-23.1c-2.5-13.5-10.1-27.1-19.1-35.2v-21.8H700v31.3zM628 403.3c39.1 0 74.5 12.4 74.5 54.6 0 41.7-34.3 54.6-73.7 54.6-39 0-73.7-14.3-73.7-55.2.2-39.7 32.6-54 72.9-54zm.6 77.3c26.1 0 49.4-3 49.4-23.1 0-19.6-21.7-22.2-49.7-22.2-27.6 0-48.3 3.3-48.3 21.9-.1 18.2 17.8 23.4 48.6 23.4zM630.9 324.2h26.9v60.1h-26.9v-60.1zM594.4 303.6c-17.5-2-39.1-14.3-39.1-49.9 0-32.9 18.6-47.5 38.7-47.5 17.1 0 25.3 9.8 28.9 17.6h.6c3.4-9.2 12.2-23.1 34.3-23.1 20.6 0 44.9 12.5 44.9 53.3 0 38.1-23 51-41.8 52.5v-30.1c9.7-1.9 18.1-8.6 18.1-23.3 0-14.3-9.2-21.4-21.7-21.4-13.2 0-21.1 6.7-21.1 23.3v12.8h-23.8v-11.3c0-14.2-4.7-19.9-16.6-19.9-9.8 0-16.3 5.8-16.3 18.1 0 14.4 8 17.9 15.1 19.4v29.5z"/></svg>