<svg xmlns="http://www.w3.org/2000/svg" xml:space="preserve" baseProfile="tiny" overflow="visible" version="1.2" viewBox="0 0 1000 1000"><path fill="none" d="M0 0h1000v1000H0z"/><path fill="none" d="M200 405.8h600v200H200z"/><path fill="red" d="M347.7 436.3h78.9v27.3H381V495h42.8v27.1H381v60h-33.2V436.3zM462.4 436.3h78.9v27.3h-45.7V495h42.8v27.1h-42.8v60h-33.2V436.3zM654.1 520.4H610v34.8h50l-3.9 27.1h-78.9v-146h79v27.4H610V493h44.2v27.4z"/><path fill="#FF0" d="M665.6 160.1c-1.9-3.8 4.3-9.8 8.2-8-.3 1.8-.8 5.3-1 7-1.8.3-5.4.8-7.2 1zM474.3 153.9c4.8.1 9.5.2 14.3.4-.7 1-2 3-2.6 4-1.6 2.4-3.1 4.7-4.7 7.1-1.7.6-5.1 1.7-6.9 2.2 0-4.6-.1-9.1-.1-13.7zM448 175.3c-6.7 2.6-6.1-11.3.2-7.2.3 1.3.8 3.9 1.1 5.2l-1.3 2zM748.5 167.1c5.2-1.7 7 .1 5.4 5.2-5.2 1.6-7-.1-5.4-5.2zM268.3 172.8h7.1c-.4 1.8-1.3 5.4-1.7 7.2-1 3.8-1.7 7.6-2.3 11.4l-3.1.2v-18.8zM484.9 173.3l1.5.1.3 1.5c-.5-.4-1.4-1.2-1.8-1.6zM120.6 192.7c-4.8-2.5-5-5.2-.4-7.9 5.5 0 7.5 2.3 5.8 6.9-1.3.3-4 .8-5.4 1zM685.1 190.4c2.4-.6 7.3-1.7 9.7-2.2l-3.4 2.8c-.8.5-2.3 1.5-3 2-3.1 4.6-5.7 9.4-8.4 14.2 1.4.8 4.3 2.2 5.8 2.9-6.6 1.5-10.9-3.4-15.5-6.8 3.5-5.7 7.1-12.3 14.8-12.9zM313.4 196l6-5.6c.8 1.8 2.4 5.4 3.3 7.1-1.4.1-4.1.1-5.4.2-.2 4.6-.2 9.2.2 13.8l1.1 4.7c.7 3.2 1.3 6.5 1.9 9.7-1.5.1-4.4.2-5.9.3-4.5 11.2-8.8 22.7-8.2 34.9 1.3-.1 3.9-.3 5.2-.5l2.4-.2c-3 4-5.9 8-8.5 12.2 2 .2 5.9.6 7.9.8v5.8c-1.2.3-3.4 1-4.6 1.4-4.4 2.5-8.7 5.3-13 8l-6.4.8c-1.9.9-5.8 2.8-7.7 3.7-.6 3.2-1.3 6.4-2 9.7-.5 1.8-1.4 5.4-1.8 7.2-1.7-2.4-3.3-4.8-4.9-7.2l2.4-9.6c2.4-2.5 4.8-5 7.1-7.4h10.2c2.5-2.5 5.1-5.1 7.7-7.6.1-5.2.3-10.4.6-15.5 3.9-7 1.8-15.4 4.9-22.7.5-1.4 1.6-4.3 2.1-5.7 1.8-6.5 2.3-13.3 4.9-19.5.4-6.3.5-12.5.5-18.8zM583.9 191.6c4.6.1 9.3.1 13.9.2-2.5 5.8-5.6 11.4-8.5 17.1 0 .2-.1.7-.1.9 1 3.4-.5 5.7-4 5.9-1.7 2.9-3.3 5.7-4.7 8.7 0-2.4-.1-7.3-.1-9.7-10.5 4.5-15.7 16.1-9.5 26.2-4.3-5.4-8.3-11-12.7-16.3-.1-1.9-.2-5.8-.3-7.7 3.8-.1 7.7-.1 11.5-.2 2.4-6.6 7.4-11.5 14.2-13.9.2-3.7.2-7.5.3-11.2zM120.5 195.4l2.8 2c-.7-.6-2.1-1.5-2.8-2zM127.4 194.5c.2.7.5 2.1.7 2.8l-1.8-.6 1.1-2.2zM271.8 199.8l1.5-.8c-.4.2-1.1.6-1.5.8zM444.5 209.5c0-6.4 4-11.1 10.2-12.9.1 2 .4 6.1.5 8.1-1.9-.2-5.6-.7-7.5-1 2.7 4.5 5.3 8.9 8.2 13.3-3.9-2.4-7.7-5-11.4-7.5zM514.2 202c4.1-1.3 8.2-2.7 12.2-4.2-.3 2.2-.8 6.6-1.1 8.8l-12.3 4.8c-.1 2.4-.2 7.3-.2 9.8-1.6-2.8-8.1-5.2-5.4-8.9 2.1-3.5 4.5-6.8 6.8-10.3zM204.4 199.7c8.5 3.9 14.7 10.9 20.1 18.3-5.4-4.1-10.7-8.2-16.2-12.2-1 10.1-5.6 20.6-1.6 30.7-2.2-2-4.4-4-6.7-5.9.6-5.3.7-10.8 3.3-15.7.4-5.1.7-10.2 1.1-15.2zM614.7 210.4c4.8-3.2 9.6-6.6 14.3-10 0 5.6-.1 11.2-.1 16.9-2-.1-6-.4-7.9-.5-.9-.9-2.7-2.6-3.6-3.5-3 3.3-6 6.5-9 9.8-4.3 0-8.5.1-12.7.2 1.4 4.4 2.7 8.9 4.1 13.3-8.2-1.1-10.6-8.4-10.9-15.5 4-3.4 8.8-5.3 14.2-4.8.1-1.4.2-4.3.2-5.7 3.8-.1 7.6-.1 11.4-.2zM459.3 205.3c.1.2.4.5.5.7-.1-.2-.4-.5-.5-.7zM463.5 210.5h17.3v6.6c-4-.3-8-.4-11.9-.5-1.4-1.5-4.1-4.6-5.4-6.1z"/><path fill="#FF0" d="M646.3 215.3c4.8-1 9.7-1.6 14.7-2.2l1.1 3.8c-2.3 0-7-.1-9.3-.2-4.1 4.2-8.1 8.4-12.2 12.6 1.9 0 5.8.1 7.8.1l-.3 1.9c-6.4 2.5-12.7 5.6-17.7 10.3l-10.4.3c-1.5 4.4-3.1 8.7-4.6 13.1-1.4-1.2-4.4-3.6-5.8-4.9 0-5-.1-10 .2-15 3.5-5.8 8.1-10.9 13.9-14.6-1.2 2.3-3.7 7-4.9 9.4 4.1-.2 8.2-.5 12.3-1 4.3-5.3 7.4-12.6 15.2-13.6zM459.2 217.7l1.5.3.2 1.4c-.4-.5-1.2-1.3-1.7-1.7zM224.3 220.7c0 .4 0 1.2-.1 1.6l.1-1.6zM468.8 223l4.8.4c.3 1.1 1 3.4 1.4 4.6-4.9 1.5-6.9-.1-6.2-5zM812.7 231.6c.5.2 1.6.6 2.2.8l-2.2-.8zM479.2 237.2c.1.1.2.3.3.5-.1-.1-.3-.4-.3-.5zM485.2 236.9c3.5 1.5 4.1 7.9 4.6 11.5-5.8 1.2-10.9-5.9-5.9-10.2l1.3-1.3zM317.8 240.4l.3-.7c-.1.3-.2 1-.3 1.3v-.6zM809.8 238.7c1.3-.1 3.9-.2 5.2-.3l.2 2.6-2.6 1.5-2.7-1.3v-2.5zM429.2 245.6c5.3-2 10.8-5.1 15.9-.8l-.7 2c-1.1 3-2.1 6-3.1 9l-1 3.2c-2-3.5-4-7.2-5.9-10.8-1.3 0-3.9-.1-5.2-.1v-2.5z"/><path fill="#FF0" d="m489.7 248.4 4.4-1.9c-.2 1.9-.7 5.9-.9 7.8-.2 1.1-.5 3.3-.7 4.4-.9 4.7-1.8 9.4-2.6 14.1-5.2.3-10.4.4-15.6.6v-7.3c-5.2 1.2-12.2-.4-15.1 5.1-.9 5.5-.8 11.1-1.7 16.6-2.4 4-8 3.8-11.8 5.4-1.1 3.7-2.3 7.4-3.1 11.2l-3.6.2c.1-3.6.3-7.3.5-10.9 1-2 3-6 4-7.9 1.9 0 5.6-.1 7.5-.1.9-1.9 2.7-5.6 3.6-7.4-1.9-5.8-3.5-11.7-5.1-17.6l2.4-.3c6.1.1 12.4 0 18.1 2.4 5.2-2.7 11-2.1 16.7-2.4.5-4 1.3-8.2 3-12zM629 254.4h19.1c.1 1.5.2 4.5.2 6 2 .3 6.1.8 8.1 1.1l-3 1.4c-7 4.1-15.2 4.2-23.1 4.4-2.6 2.3-5.2 4.6-7.8 6.8 2.4 4.1 4.6 8.3 6.9 12.5-10.6-5.2-10.7-16.6-6.3-25.9 1.4 0 4.3-.1 5.7-.2.1-1.4.2-4.5.2-6.1zM661.4 275.2l3.2-2.2c-.1 2.1-.2 6.2-.3 8.3 2.5 2.4 4.9 4.9 7.4 7.3-5.8 1-11.4 2.4-17.1 3.7v13.4c-2.3 8.8 3.3 16.5 13 15.4v8.1c-4.1 0-14.5 8.3-12.9.1 1.3-.9 3.8-2.7 5.1-3.6v-1.2c-6.8-3.6-8-11.3-9.9-17.9-6 1.9-11.8 4.4-16.5 8.4-2.9 3.8-5.9 7.7-8.8 11.5 4.8 1.5 9.7 3 14.6 4.4-1.5 8.3-3.3 16.6-4.1 25l-.3 2h-6c-.3-7.8.4-15.6 3.1-23-3.2-4.9-7.9-8.6-12.2-12.5 1.3-3.3 2.6-6.7 3.9-10 2.2-4.8 4.4-9.5 6.5-14.3 5.9 2.2 12.1 3.5 18.4 3.9-1.2-5.7 2.5-14.2-4.1-17.6 5.9-2.4 11.6-5.6 17-9.2zM223.6 275.4c8.4 3.7 16.7 7.8 25.2 11.5l.5 1.8c-2.2.1-6.7.3-9 .4-1.5-1.9-4.6-5.7-6.1-7.7-8.4 3-16.3 7.3-23.8 11.9-.2 2.5-.6 7.5-.9 10-5-3.4-9.9-7-13.8-11.6 2.1 1 6.2 3 8.3 4-.1-2.2-.2-6.6-.3-8.8 2.1-1 6.2-2.9 8.2-3.9 3.6-.2 7.3-.3 10.9-.4.3-1.8.7-5.4.8-7.2zM171.8 277.7c1.5 1.7 4.6 5.1 6.2 6.8.1 6.1 0 12.2 0 18.2-3.3-1-6.5-2-9.7-3.2 2.4-3 4.7-6.1 7.1-9.1-1.1-4.3-2.3-8.5-3.6-12.7zM121.6 289.3c4.7-.1 6.1 2.1 4.4 6.6-1.6.5-4.9 1.5-6.5 2-5.4-.5-1.4-8 2.1-8.6zM152.4 288.9c4.2 1.9 8.6 3.2 13.1 4.1-.5 1.1-1.4 3.3-1.9 4.4l-1.2 2.8c-1.7 8.4.8 16.8 7.2 22.7-7.2-1.8-11.5-8.1-16.6-12.8l-.8 3.6-2.6-1.1c-5.4-2.3-10.9-4.3-16.5-6.2l.4 8.8c2.1 3.1 4.2 6.2 6.1 9.4-8.6-6.5-14.7-15.4-20-24.6 2.7 2.5 7 9.5 10.6 4.5 7.3-1.2 17.4 3.3 21.9-4.3.2-3.7.3-7.5.3-11.3zM790.4 290.1l6 6.8c.9 12.9-.5 26-7.3 37.4-9.8 6.9-12.6 18.8-12.8 30h-8c-.5-1.6-1.4-4.9-1.8-6.5 4.5-4.1 3.9-10 4.6-15.3l4.4-.4c2.3-3.8 4.8-7.5 7.6-11 .1-1.9.3-5.6.4-7.5 1.6-.1 4.8-.2 6.3-.3-.1-8.9-.8-18 1.9-26.7-.3-1.5-1-4.8-1.3-6.5zM395.5 304.6c3.5-3.4 6.9-7 11-9.7 2 1.2 6 3.5 8 4.7l-2.8 2c-3.8 2.6-7.3 5.6-10.6 8.8-2.8.3-5.6.7-8.5 1.1-8.8 6-18.3 10.7-27.8 15.6-.4 8.2 1.5 17.2-3.4 24.4-1.8.3-5.3.8-7.1 1 .7-2.2 2.2-6.5 2.9-8.7 1.1-3 2.3-6 3.4-8.9-2.6-5.5-2.4-11.7-2.6-17.6h11.9c5.7-3.6 11-7.7 15.8-12.4 3.4-.2 6.6-.2 9.8-.3zM127.8 298.2zM324.8 323.3c2.5-6.8 7.7-11.9 15-13.6-.4 1.9-1.1 5.6-1.4 7.5-1 .1-3 .2-3.9.2-2.6 3.8-5.2 7.5-7.8 11.2-.1 1.9-.4 5.9-.5 7.8l-2.3-.3c-1.5-4.1-3.2-8.2-4.7-12.2 1.3-.2 4.2-.5 5.6-.6zM203.9 317.2l2.1.1c3.1 7 6.5 13.9 10.5 20.4.2 3.7.3 7.4.5 11.1-5-.2-9.9-.5-14.8-.8l3.9-1.8c1.3-.3 3.9-.8 5.2-1-.7-9.7-4-18.9-7.4-28zM288.3 317.3l2 .9c2.3 4.4 1.2 7.1-3.3 8.1.4-2.3 1-6.7 1.3-9zM873 331.8c-7.3 2.9-7.4-13.1 0-10.4 1.9 3.5 1.9 7 0 10.4zM170.8 323.7c4.8 3 9.3 6.4 13.8 9.9.1 3.3.3 6.6.4 10 1.2 3.1 2.4 6.3 3.5 9.5-10.9 6.3-17.3 18.2-29.8 22.3 0 3.6 0 7.3-.1 10.9-1.6 0-4.8 0-6.4.1V374c1.3-.1 3.8-.3 5-.4 4.9-8.4 10.8-16.3 15.7-24.7l5.2-.4c.5-9.1 1.3-18.9-7.3-24.8zM281.8 326.5c.3-.4.9-1.2 1.2-1.5-.3.3-.9 1.1-1.2 1.5zM464.9 322.5c11.7 3.6 21.8 11.8 25.8 23.3-2.4 3.4-5.2 6.5-7.8 9.8-1.3-1.2-4-3.6-5.3-4.9V333c-4.3 0-8.6 0-12.9-.1 0-2.6.1-7.8.2-10.4zM282 328.9c1.3.3 4 .8 5.4 1 1.4 4-1.5 9-6.1 8.9.1-2.4.5-7.4.7-9.9zM810.8 329.2c1.9 2.5 3.7 5.1 5.6 7.7-1.7-.4-5.2-1.3-7-1.7-.1 4.5-.2 9-.2 13.5h-5.9c-.8-3.9-1.6-7.8-2.3-11.7 3-2.9 6.4-5.3 9.8-7.8zM334 335.1c.1-.2.3-.5.4-.6-.1.1-.3.5-.4.6zM745.9 336.9c4.3-1.3 8.7-2.6 13-3.8-.6 1.2-1.9 3.6-2.5 4.8-3.6 5.7-7.6 11.2-11.7 16.6 3.2 6.2 6.3 12.5 7.3 19.4l-3.2-.3c.8-7.1-3.7-12-10.4-14l.3-9.3c2.5-4.4 4.9-8.9 7.2-13.4zM198.6 337.5c.1.1.4.3.5.4-.1-.1-.4-.3-.5-.4zM381.9 336.2c6.4-1.4 17.1.3 15.3 8.9-1.7 10.2-15.1 5.8-22.5 6.8l-1.3-3.5c2.4.1 7.1.2 9.4.3 2.9-2.9 5.9-5.8 8.8-8.7-2.5-1-7.3-2.8-9.7-3.8zM433.7 338.8c4.9-3.3 10.9-2.5 16.5-2.6l-2.4 1.9c-1 .8-3 2.3-4 3-5.1 1.6-10.3 3-15.4 4.6-3.3-2.1-6.7-4.1-10-6.3 5.1-.2 10.2-.3 15.3-.6zM510.4 336.7c4.7-1.8 6.1-.4 4.2 4.1-4.6 1.8-6 .5-4.2-4.1zM310.7 341.9c6.1 3.9 12.1 7.7 18.4 11.2l1.1 4.1-13.8-9c-1.4 4.1-2.7 8.2-4 12.4-1.4.2-4.1.7-5.5.9v7c-1.6-1.3-4.9-3.9-6.5-5.2 0-2 .1-6.1.1-8.2 1.4-.1 4.3-.1 5.8-.2 1.5-4.3 3-8.6 4.4-13zM511.2 345.6c4.4-1.9 7.2 5.4 4.7 8.3-4 1.4-6.6-5.5-4.7-8.3zM596.3 366.1c-1.4-8.3 6.2-12.6 13.6-11.9.7 8-.7 17.3-11.1 17.5l1.2-5c11.4 4.6 5.4-12.6-1.3-2.9l-2.4 2.3zM787.2 366.6c-2.3-3.6-2-10.5 2.8-12 6.6 1.1 3.2 14.1-2.8 12zM411.3 359.4c1-.7 2.9-2.1 3.8-2.8.9 4.2 4.5 8.2 3.9 12.6-1.9 3.6-4.1 7.1-6.4 10.5-7.1-1-13.5 3.5-12.7 10.9 3.3 3.4 6.1 7.1 8.3 11.3 1.2 0 3.7.2 4.9.2l-.1 2.4c-4.3 1.5-8.6 3.1-12.8 4.7v11.7c-1.6 0-4.8.1-6.3.2-.1 1.5-.1 4.6-.2 6.1-1.6.1-4.8.2-6.4.2v14.3c4.3 4 8.5 7.9 12.8 11.9.1 1.6.4 4.8.5 6.4 2.8 3.5 5.3 7.2 7.6 11.1 2.3 0 6.8.1 9.1.2l-9 10.2c-3.4-1.2-6.7-2.3-10.1-3.5-6.4-.3-12.8-.5-19.3-.5-3.1-2.2-6.1-4.3-9.2-6.5 8.8.3 17.7.4 26.3 2.4 2 .4 6.1 1.2 8.1 1.5-2.9-7.2-5.9-14.3-8.3-21.6-4.9-5-9.9-9.8-15-14.6v-12.8c10-8.2 16.8-19.2 20.4-31.3-1.9-1.4-5.7-4.4-7.6-5.8v-13.7c3.9-1.6 7.9-3.2 11.8-4.8 2-3.9 3.8-7.5 5.9-10.9zM458.4 358c2.1 0 6.3 0 8.4.1 1.3 2.6 2.5 5.2 3.8 7.8-2.7 3.4-5.2 7-7.4 10.7-1.2.1-3.7.3-4.9.4v15.4c1.6 0 4.9.1 6.6.1l-.2 2.5c-3 1.2-6.1 2.3-9.1 3.4-4.8-3.8-3.5-10-4.1-15.3l-2.9-.1.4 10c-3.3-1.6-6.6-3.2-9.9-4.7 0-6.2 0-12.4.1-18.6 2.3.6 6.7 1.8 8.9 2.4 3.3 3.9 14.3 2.6 10-3.8-1.6-.3-4.7-.8-6.3-1v-2.8c1.6-.1 4.8-.1 6.5-.2-.1-1.6 0-4.7.1-6.3zM320.9 362.7c.2 0 .6.2.8.2-.2 0-.6-.1-.8-.2zM477.7 368.8c3.8-8.1 11.6-1.7 17.5-.1 4.3 1.2 8.8 1.9 13.3 2.5 1.6-2 4.7-5.9 6.3-7.9 6.6 6.2 3 14.9 1.1 22.2-5.9 2.4-11.6 5-17.4 7.6-1.8-5.5-5.4-9.7-11.1-11.3-.1-.9-.4-2.6-.5-3.5-3.5-2.6-11.4-3.7-9.2-9.5zm13 5.8c-2.1 4.3 4.1 10.2 8.5 8.4 1-3.9-4.5-9.2-8.5-8.4zM430.1 367.9c4 2.1 3.7 4.2-.7 6.4-4-2-3.8-4.2.7-6.4zM653.4 385.3c-5-1-6-12.2.4-10.5l1.6 8-.6 1.9-1.4.6zM679.8 381.4c1.5-1.3 4.6-3.7 6.2-5 .8 2.1 2.6 6.3 3.4 8.4-.5.8-1.6 2.6-2.1 3.4-.4 4.6-.4 9.3-.4 13.9l-3-.1c-.3-1.9-.7-5.6-1-7.4-2-4.2-2.5-8.8-3.1-13.2zM602.5 379.1c4.3 3 8.8 6.1 13.4 8.7.6 8.5-1.9 17.9 2.9 25.6 1.8 11.5-2.1 22.6-3.8 33.8-3.4 4.7-1.5 10.1-.4 15.1-2.6 1.4-5.3 2.3-8.2 2.6 3.6-6.7 3.2-14.4 3.6-21.8-1.7-.2-5.2-.4-7-.6 0-1.1.1-3.4.1-4.6 4.4-1.5 9.3-2.5 12.9-5.6.7-12.7-10.3-24.3-3.3-36.9-2.1.1-6.2.3-8.3.3-5.7 5.7-11.5 11.3-17.3 16.8 1.2-3.1 2.4-6.2 3.7-9.4 9.1-3.3 20.4-14.9 11.7-24zM725.7 385c5.9 2.3 10.9 6 13 12.1-1.9-1.5-5.7-4.5-7.6-5.9.8 6.1 1.8 12.3 3.6 18.2l-9.3-8.7.3-15.7zM168.3 392.5c4.6 3.2 8.9 6.9 13.3 10.5-.1 2.1-.2 6.3-.3 8.4-4.3 0-8.6 0-12.8.1 0 2.1-.1 6.2-.1 8.3 1.8 1.4 5.6 4.4 7.4 5.8-1.3 3.4-2.5 6.8-3.8 10.2-1.7.4-5 1.3-6.7 1.7-.1-6.5-.1-13.1-.1-19.6-1.6-.1-4.8-.3-6.5-.3v-8.5c4.6-1.6 9.2-3.3 13.8-5-1-4-2.5-7.8-4.2-11.6zM472.3 395.9c4.5-1.1 6.2.6 5.1 5-4.5 1-6.2-.7-5.1-5zM497.4 404.8c-.8-4.3 1-6.1 5.5-5.5.8 4.2-1.1 6.1-5.5 5.5zM346.7 402.1c4.6-1.2 6.8 3.9 9.9 6.1-2.3.1-6.7.2-8.9.3 1.2 5.6 2.4 11.2 3.8 16.7-3.4-3.9-6.6-8-9.9-12.1.6-4.1 1.4-8.4 5.1-11zM538.7 405l1.7.4c2.2 9.4 11 10.2 19.4 9.5 3.2 1.9 6.3 3.9 9.4 5.8 3.3 0 6.5.1 9.8.1 2.6-2.4 5.3-4.9 8-7.3-.2 1.4-.5 4.4-.7 5.8-2.1 2.4-4.3 4.7-6.4 6.9-4.3 1.3-8.7 2.7-13 4.1-2.4-2-4.7-4.1-7.1-6.2-3-.4-6.1-.9-9.1-1.4-5.3-1-10.6-1.8-15.9-2.5-3.7 6.1-9.4 10.5-15.3 14.4-3.8-3.6-7.5-7.2-11.2-10.8-5.1 0-10.1 0-15.1-.1-1.5-9.3 6.6-16 15.3-10.8 6.3 1.2 10.9 5.1 12.6 11.2 3.7-1.4 7.5-2.9 11.3-4.3 0-1.3 0-4 .1-5.3 1.6-.1 4.8-.2 6.4-.3-.2-2.1-.2-6.8-.2-9.2zM686.9 405c4.3 1 5.2 5.8 6.3 9.3-4.7 1.8-9.4-5.7-6.3-9.3zM622.7 423.1c-2.6-6.2 10.9-16.3 11.7-6.4-3.6 2.2-7 4.5-10.5 6.7l-1.2-.3zM478.7 423.7c-2.6-4.2 5.1-8.3 8.1-5.1 3.1 4.5-4.9 8.2-8.1 5.1zM654.7 417.7h19.2c0 1.5.1 4.6.2 6.2 1.6 0 4.8.2 6.4.2v9.3h-12.8c0-2.4-.1-7.1-.1-9.4h-12.8c-.1-1.6-.1-4.7-.1-6.3zM886.5 417.7h12.9v6.2c-1.6.1-4.7.2-6.3.2-.1 1.6-.2 4.7-.2 6.2h-6.3c-.1-4.2-.1-8.4-.1-12.6zM311.2 421.4c4.1-2.6 6.6-2 7.5 2-4.1 2.7-6.6 2-7.5-2zM687.7 430.7c3.3-2.2 9.6 1.7 8 5.5-3.3 2.2-9.6-1.7-8-5.5zM841.4 447.3c5.9-5.5 11.8-11.1 17.5-16.9 2.1 1 6.2 3.1 8.2 4.2v5.3l-8.4-.4c-3.5 4.9-7 9.8-10.6 14.6-.1 1.6-.4 4.8-.5 6.4 1.4 1 4.3 3 5.7 3.9l2.3 4.2c-4.7-2.8-9.3-5.8-14.1-8.4-.1-4.3-.1-8.6-.1-12.9zM259.9 447.8c3.4 2.1 7 4.1 9.4 7.4-2.6 4-7.4 10.3-11.7 4.2-4.7-2.4 2.5-8.1 2.3-11.6zM559.6 457.4l1.6 7.6c5.8-2.3 11.7-4.6 17.5-7.1-3.9 4.5-8 8.9-12.1 13.2-2.3 0-6.8-.1-9-.1.5-4.5 1.2-9.1 2-13.6zM863.6 461.7h17.5l-2.5 1.7c-11.1 3.6-9 15-4.2 22.9-1.8.2-5.3.4-7.1.6-.1-3.7-.1-7.4-.2-11.2-1.8-2.1-3.6-4.1-5.4-6.2.4-1.9 1.4-5.8 1.9-7.8zM683.6 468h29.2c-.2 1.7-.6 5.2-.8 7-6.8-.7-13.6-.7-20.4-.8 1.8 1.6 5.2 4.7 7 6.3-5.1-2.2-10-4.9-14.9-7.3 0-1.4-.1-3.9-.1-5.2zM428.9 474.8c4.4-4.1 9.2-4.2 13.6 0-.1 1.9-.3 5.7-.4 7.7-1.1 1.1-3.4 3.2-4.6 4.2-2-1-6.1-3.1-8.1-4.2-.1-1.9-.4-5.8-.5-7.7zM719.3 481.4c3.8-1.1 12.6.8 11.9 5.7-4.5 1-11.2-.4-11.9-5.7zM729.7 497.2l.7.1.6.3c-.4 0-1-.3-1.3-.4zM736.1 500.3l.7.4.4.7c-.3-.2-.9-.8-1.1-1.1zM695 504.5c2.2 3.4 4.8 6.8 4 11.1-1.2-.1-3.5-.3-4.7-.5.5 1.9 1.4 5.7 2 7.6-3.1-2.4-9.7-3.1-9.8-7.7 2.4-3.8 5.6-7.1 8.5-10.5zM739.8 505.5c2.3 3.7 5.3 7.5 5.1 12.2-6.1 1.6-9.4-8.6-5.1-12.2zM783.4 505.6h5.5c1 4.4 2.4 8.8 4.3 12.9-2.4-.1-7.3-.4-9.8-.5v-12.4zM881.2 509c4.5-1.1 6.2.6 5.1 5-4.5.9-6.2-.7-5.1-5zM151.9 545.3c-6.8 3.7-6.7-10.9 0-6.9v6.9zM669.9 547.8c5-6.1 11.2-3.5 17.3-.7l-1.4 3c-5.6-2-6 5.3-5 8.7-4.9-2.2-7.6-7-10.9-11zM709.7 563.8c4.3 4.3 7.5 9.4 9 15.3-1.4-1.5-4.4-4.4-5.8-5.9-.2 8-.2 16.1-.3 24.2l-2.6 4.2c-1-12.6-.7-25.3-.3-37.8zM774.7 573.9c-1.3-6.9 12.5-6.8 11.2.3-1.9 4.6-8.6 2.5-11.2-.3zM170.6 574c6.9-1.3 10.2 5.2 14.4 8.9l-1.5 3.3c-3.1 4.6.3 10 .9 14.9-4.5-5.3-7.2-11.6-5.9-18.7-2.7-2.7-5.3-5.5-7.9-8.4zM274.4 586.7c-5.3.5-5.3-11.8 0-11.5.9 3.8.9 7.7 0 11.5zM725.4 582c1.8-1.3 5.3-3.9 7.1-5.1-.3 2.1-.9 6.3-1.2 8.5l-1.2 3.7c-1.2 3.3-2.5 6.6-3.9 9.9-1.5-2.6-4.6-7.8-6.2-10.4l-.4-1.8c1.5 1.2 4.4 3.6 5.9 4.8 0-2.5 0-7.3-.1-9.6zM636.4 581.4c1.4.1 4.1.2 5.4.3v1.9c-1.4.1-4.1.2-5.4.3v-2.5zM332.9 592.2c5.2 1.7 9.2 4.8 10.1 10.3-1.8.2-5.3.5-7.1.7v15.5h-3.2c-.1-8.9-.1-17.7.2-26.5zM864.8 593.4c3.6.1 7.2.2 10.8.2 1.5 3 3.1 6 4.6 8.9-1.8 1-5.4 2.9-7.2 3.8.4-1.5 1.3-4.4 1.7-5.9-4.8-1.1-7.3.8-7.3 5.7-.1 1.6-.4 4.7-.5 6.3l-13.8-.3c2.8-6.8 6.5-13.3 11.7-18.7zM273.1 595.5c5.2 2.8 10.1 6.1 7.3 12.6-5.9 3.7-11.6 7.8-17.2 11.9-1.3 6.8-5.7 11.3-12.7 12.6-.8-1.7-2.3-5-3.1-6.7 2-.3 6-1 8-1.3v-12.2h12.7c.2-1.9.5-5.8.6-7.7l4.4-9.2zM379 599.9h11.8c-.1 1.9-.3 5.7-.5 7.6-3.2 3.8-6 7.9-8.1 12.3-4.7-2.5-8.9-6-7.9-11.8 1.2-2.1 3.5-6.1 4.7-8.1zM726.8 601.6c.3-.2.9-.4 1.2-.6-.3.1-.9.4-1.2.6zM136.5 601.3c3.1 4 6 8 8.9 12.2 1 5.3 2.1 10.6 3.4 16-3.3-3.8-6.2-7.8-8.9-11.9-.5-5.6-1.6-11-3.4-16.3zM717.5 604.8c.2.3.5.8.7 1-.1-.3-.5-.8-.7-1zM189.6 606.8l1.2 1.2c-.2-.4-.8-1-1.2-1.2zM356.3 606.2l2.1-.2c0 4.2 0 8.4-.1 12.6H353c-2 6.9-4.3 13.8-6.7 20.7-.4 1.5-1.1 4.4-1.5 5.9-2.5 3.5-5 7-7.4 10.5-6.1.9-13.5-.6-17.8 4.8.1 7.8 2.4 15.2 3.9 22.8-1.9 1.4-5.8 4.2-7.7 5.7.8 3.4 1.6 6.8 2.5 10.1.4 1.4 1.1 4.3 1.4 5.7-8.7-9.3-8.2-23.4-4.4-34.6-.8-2.9-1.7-5.8-2.6-8.7 3.3-3.5 6.2-7.2 8.4-11.5 3.7-.1 7.5-.1 11.2-.1.1-1.5.2-4.6.2-6.1 1.2-.1 3.6-.3 4.8-.3 2.3-3.9 4.9-7.5 7.7-11 .2-3.5.3-7.1.4-10.6-1.6-.1-4.9-.2-6.6-.3v-3h6.3c0-1.8.1-5.5.1-7.3 1.4 1.3 4.3 3.8 5.7 5.1 2.1-3.4 3.8-6.8 5.4-10.2zM627.7 618.7h13.8l.4 4.8c4 2 7.5 4.7 10.7 7.8-5-2.2-9.9-4.4-14.9-6.6 1.3 5.7 2.7 11.3 4.1 17-1.6-1.3-4.9-3.9-6.6-5.1v-10c-2.4-2.8-5-5.4-7.5-7.9zM661.2 618.7h6.3c0 4.1 0 8.1-.1 12.2-4.3.9-8.5 1.9-12.7 2.9l-.2-1.6-.4-7.2c1.7-.1 5.1-.2 6.8-.2.2-1.5.3-4.6.3-6.1zM745 617.4c3.3 1.8 6.5 3.6 9.8 5.4-1.2 2.1-3.6 6.2-4.8 8.3-1.3 0-3.9.1-5.2.2 0-4.7.1-9.3.2-13.9zM822.9 618.5c5.1.1 10.2.2 15.3.2 0 1.4-.1 4.3-.1 5.8-5.2.9-10.6 1.5-15.1 4.4-5.1 6.1-8.7 13.3-13.3 19.8-.3 1.5-.7 4.4-1 5.9-8.3 6.3-16.3 13-23.7 20.3-2 .1-6 .2-8 .2-.1-1.5-.2-4.6-.2-6.2 1.6-.1 4.8-.2 6.4-.2 0-1.5.1-4.6.2-6.2 1.6 0 4.7-.1 6.3-.1 0-1.5.1-4.6.1-6.2 1.6 0 4.7-.1 6.3-.1 0-1.5.1-4.6.2-6.2 1.6 0 4.7-.1 6.3-.2 0-1.9.1-5.9.1-7.8 6.2-1.8 9.7-6.7 11.8-12.3 2.7-3.7 5.5-7.4 8.4-11.1zM99.4 630.9c4.1 1.6 8.1 3.2 12.1 4.8l-1.1.8c-.7 1-2.1 3-2.7 4 1.3 0 3.9 0 5.2.1l2.3-.6c6.4 4.2 13.4 8.4 16 16-2.1.1-6.4.3-8.5.3l.7-3.1.4-1.5-1.5-.8c-9-5-19.7-9.6-22.9-20zM699.7 631.2c1.3 0 3.9.1 5.2.1 1.2 2.1 3.4 6.4 4.6 8.5l-1.4.9c-2.3 1.4-4.6 2.8-7 4.2-1.6 3.9-2.9 8.1-5.6 11.4-6.8 1.4-13-.4-15.7-7 1.4.9 4.2 2.8 5.5 3.7 2-1 5.9-3.1 7.8-4.1.1-1.3.2-3.8.3-5 1.6-.1 4.7-.2 6.3-.2v-12.5zM769.2 631.5c3.7-.1 7.4-.3 11.1-.3v5l-2.9.8c-5.8.9-11.6 4.4-9.9 10.9l1.2 3.3c.7 2.1 2.2 6.2 2.9 8.3l-3-.3c-4-6.6-8.1-13.2-11.7-20 4.5-2 8.5-4.7 12.3-7.7zM163.6 636.9c5.8 1.1 11.1 3.6 16.3 6.3 3.1.4 6.1.8 9.1 1.3 4.3 3.7 8.8-.2 13.4-.2 4.2 2.1 6.1 6.3 8.3 10.2l-5.6-4.8c-1.6 1.9-4.9 5.8-6.5 7.7-3.3-3.4-6.5-6.7-9.7-10.1-1.9-.1-5.8-.3-7.8-.4.2 9.2-.7 18.8 2.5 27.7l1.2 4-3.1-.2c-1.5-4.7-3.1-9.5-4.4-14.2-3.5-7.1-7.5-14.1-12.6-20.2l4.5.1c-1.3-1.9-4.2-5.5-5.6-7.2zM273.3 636.7c2 .3 5.9.8 7.9 1.1v31.7c-4.4-1.4-8.7-2.9-13.1-4.2l1.3-1.2c3.2-2.8 6.3-5.7 9.4-8.6-1.1-1.1-3.4-3.3-4.5-4.3.8-.5 2.4-1.5 3.3-2-1.6-4.2-2.9-8.4-4.3-12.5zM463 657.4c10-6.2 19.3-13.7 30.5-17.9 0 2.3.1 6.8.1 9-12.1 5.7-18.9 18.8-32.7 21.7l4.5 9.9c5.7 1.9 9.1 6.4 10.5 12 1 4.7 1.6 9.5 2.3 14.3h-3.8c.2-7.2-3.7-13.4-6.9-19.6-14-.3-26.3 6.7-40.1 7.9-5.2 4.5-10.4 9-15.7 13.4-2-4.8-4-9.5-5.9-14.2h-7.5c-4.1-4.2-8.1-8.4-12.1-12.7-4 8.3-11.8 13.3-19.5 18.1-3.7 1.3-7.4 2.5-11.1 3.9-1.1-5.1-2.4-10.2-3.5-15.3-4.3 1.4-8.6 2.6-12.8 3.9 0-2.3-.1-6.9-.2-9.2 4.5-4.1 9-8.3 13.5-12.4 1.1 1.5 3.3 4.4 4.3 5.9 1.8 5.6-2.7 12.2-2.6 18.2 4-1.6 8-3.3 12-4.8 3.8-.9 7.5-1.8 11.3-2.6.1-4.4.2-8.8.4-13.2 6.8 3 12 8.3 17 13.6 6.7-7 10.7.9 13.2 6.6 1.6-.1 4.8-.3 6.4-.3 3.2-1.7 6.4-3.3 9.7-4.9 3.2-2.2 6.3-4.4 9.5-6.6 4.6 3.5 9.8.4 14.6-.8-1.2-3.5-2.4-6.9-3.5-10.5 1.2-1.9 3.6-5.6 4.9-7.5 4.3-1.9 8.8-3.9 13.2-5.9zM828.5 639.7c1.6 1.3 4.9 3.8 6.5 5.1 0 5.3 0 10.6.1 16v1.9l-2.2-.2c-1-2-3.1-5.9-4.1-7.9-.2-5-.3-10-.3-14.9zM647.8 644.2l2 .4c2.9 2.1 5.9 4.2 8.8 6.4-.7 9.6-2.4 19.2-4.3 28.7 2.9 2.9 5.7 5.8 8.6 8.8-3.7-2.4-7.4-4.9-11-7.4-.7 2-2.1 6.1-2.8 8.2-.5-1.7-1.4-5.1-1.8-6.7-5-2.6-9.9-5.5-15.5-6.8-3.1 2.3-6.1 4.7-9.1 7.1-.1-5.4-.2-10.9-.2-16.3-2.2-.9-6.6-2.8-8.8-3.8 5.8-1.2 10 2.2 13.7 5.9 2 .1 5.8.2 7.8.3.1 1.6.2 4.7.3 6.2h12.6c.2-4.6.3-9.2.6-13.8 5.2-5.3.9-11.6-.9-17.2zM541.5 651.4c3.2-1.5 6.4-3 9.6-4.6 3 4 5.9 8.2 8.4 12.6h-6.1c5-9.5-10.8-5.7-2.5.7l2 2.2c-1.7.1-5.2.4-6.9.5-1.4-3.9-3-7.6-4.5-11.4z"/><path fill="#FF0" d="M775.4 648.8c.2-.1.5-.2.7-.3-.2.1-.5.2-.7.3zM146.2 679.1c4.1-1.5 8.2-3.1 12.4-4.6.1 1.7.3 5.2.4 6.9 1.6.1 4.8.2 6.3.2l-.3 2.9c-5.4.2-12.3-1.4-15.3 4.4-1 6.8-.6 13.6-.7 20.5-1.9.3-5.6.8-7.5 1.1-3.9 1.1-7.8 2.1-11.6 3.1-2.7 8.1-3.5 16.5-3.9 25-5-1.8-9.1-5-13.3-8 1.2-3.3 2.3-6.5 3.3-9.8-5.8-5.7 2.4-10.3 5.3-14.9 5.9.7 11.7 2.2 17.3 4.1 1-3.8 1.9-7.7 2.9-11.5 1.1-4.3 2.3-8.5 3.7-12.7.2-1.6.7-5 1-6.7zM835.1 675.2h12.8v8.4c-1.4 1.1-4.2 3.3-5.5 4.4-2-6.3-10.8-2.7-10.4 2.9 2.3-.2 6.8-.4 9.1-.6l.4 10c1.6.1 4.8.2 6.3.3v6c-1.6.1-4.8.2-6.4.2 0 1.5-.1 4.6-.2 6.2h-25.3c-.4 4.7-.7 9.4-1.2 14.1-4.1 3-12.1 5.5-7 11.3l1.4 3.1c-1.6-.1-4.8-.3-6.4-.3 0-4.7 0-9.5.1-14.2 2.9-2.7 5.9-5.3 8.5-8.4-.7-3.5-1.9-6.9-2.1-10.5 4-3.1 8.5-5.7 12.5-8.9.4-3.8.7-7.5.8-11.3 1.5 0 4.5-.1 6-.2 0-1.5.1-4.6.1-6.1 1.6-.1 4.7-.1 6.3-.2 0-1.6.1-4.7.2-6.2zM191 680.8c7.5 4.8 9.5 13.4 10.6 21.5-5.6 1.5-11.2 3-16.8 4.6-.1-1.1-.4-3.3-.5-4.5v-9.3c1.7 1.2 5.1 3.5 6.8 4.7-.1-5.6-.1-11.3-.1-17zM597.1 689.2c1.5 1.6 4.6 4.7 6.1 6.3-.1 5-.2 10-.3 15.1-7.6 7-14.2 15.1-18.7 24.3 2.2 6 5.6 11.5 8.7 17-1.2 2.4-2.3 4.8-3.4 7.3-3.6 1.5-7.2 3.1-10.9 4.7-1.9 3.6-3.8 7.2-6 10.7-.8.7-2.5 1.9-3.4 2.6-1.8-4.6-3.6-9.1-5.3-13.8 1.4-.1 4.3-.3 5.7-.4 2-6.5 7.1-10.6 14.3-10v-14.9c-1.6-.1-4.8-.2-6.4-.2 0-1.5-.1-4.6-.2-6.2H571v-2.4c4.3-1.6 8.6-3.2 12.8-4.7 0-3.4.1-6.8.2-10.3 4.5-2.4 8.8-5.4 12.8-8.5 0-5.5.1-11.1.3-16.6zM461.6 694h6.3v12.5c-2.1 0-6.4.1-8.5.1-1.3-1.6-4-4.8-5.3-6.4h7.2c.1-1.5.2-4.6.3-6.2zM344.3 707.7c1.9-.5 5.6-1.5 7.5-2 .1 2.4.2 7.1.2 9.4 4.7 1.8 9.4 3.6 14.2 5.4-4.3 8.8-17.6 16.9-11.4 27.4 2.5-.3 7.4-.8 9.9-1 3.1 6.3 5.8 12.7 8.1 19.3 4.1 0 8.2.1 12.3.2-1.1 3.9-2.2 7.8-3.4 11.6l2 3.6 1 5.1c-6.7-3.7-7.8-10.4-7.4-17.2H365c-.1 1.6-.2 4.7-.3 6.3H352v-6.1c1.3-.1 4-.2 5.3-.3 1-1.9 3-5.9 4-7.9.2-3.6.3-7.2.5-10.8-2.1 0-6.2-.1-8.2-.2-2.2-3.9-4.8-7.6-7.6-11.1-.3-3-.5-6-.8-9-2.6-3.5-5.2-7-7.5-10.6 2.2-.2 6.6-.7 8.8-.9-.3-4-1.7-7.5-4.3-10.5l2.1-.7zM635.2 712c1.6 1.3 5 3.8 6.6 5.1 0 5.1-.1 10.3-.2 15.4-5.7-.3-10.7-2.4-14.2-6.9 2 .8 6 2.4 8 3.3 0-5.7-.1-11.3-.2-16.9zM836.4 719.8c8.1-1.8 16.5-4.6 24.4-.2v5.6c-3.9.1-7.8.1-11.8.2-1.4 1.5-4.2 4.6-5.5 6.1-1.7.1-5.1.4-6.8.6-2.1 1-6.1 2.9-8.1 3.9V747.4h-6.3c-.1-1.5-.2-4.5-.3-6.1-2-.3-6-.8-8-1.1l2.9-2.1c.6-.4 1.8-1.3 2.4-1.7 6.2-4.8 13.9-8.8 17.1-16.6zM147.7 729.8c1.5-9 9.5-12 18-11.5-1.9 4.1-3.5 8.4-5.1 12.7 8.3 2.8 19.7 7.8 25-2.4-3.3-3.4-6.5-6.7-9.9-9.9 1.8.3 5.4 1.1 7.2 1.5 3.3 4.1 6.4 8.4 9.6 12.6 1.5-2 2.9-4 4.4-6 1.7-.6 5.1-1.7 6.8-2.3l.4 7.2c1.6.1 4.8.2 6.4.3-.1 1.9-.3 5.7-.3 7.5-2.9-2.9-5.9-5.8-8.8-8.6-2.4 5.6-4.8 11.2-7.2 16.7-3.7-1.5-7.3-3-11-4.6-6.9-3-14.2-4.9-21.7-6 3.1 10.6 5.2 21.8.9 32.4-2.5 0-7.4.1-9.9.1 0-4.1 0-8.3-.1-12.4 1.6-.1 4.9-.2 6.5-.3v-17.6c-3.8-3.3-7.5-6.4-11.2-9.4zM853.6 744.7c2-6 4.2-11.9 6.5-17.8.3 3 .7 9 1 12 4.1-1 8.2-2.3 12.1-4 2.6 3.5 5.2 7 7.6 10.7l-4.1-3-.4-.3c-7.5 1.3-15.1 2-22.7 2.4zM504.5 737.2c-2.8-6.6 11.9-5.3 10.6.1-3.6 1.8-7.1 1.7-10.6-.1zM522.5 737.6c2.4.1 7.3.3 9.8.5v12.3l6.8.4c-1.6-3.4-3.3-6.8-4.8-10.1 3.6 1.5 7.3 3 10.9 4.5 0 6.3 0 12.6-.1 18.9-1.4-.6-4-1.9-5.3-2.5-4.7-3.8-13.2-2-13.7 4.6 2.7-.1 8-.2 10.6-.3-2.9 2.7-6.5 4.1-10.8 4.3-.1 1.4-.2 4.1-.3 5.5h-12.7v-8.2c4.4-4 8.7-8.1 13.2-12 0-6.2-.2-12.5-3.6-17.9zM399.9 743.3c2.8 2.2 5.5 4.5 8.3 6.8 6.2-4.3 14.1-2.4 21.1-2.8v9c-5.1.4-10.3.6-14.9 3.1l-.4-.3c-6-4-11.5-8.9-14.1-15.8z"/><path fill="#FF0" d="M848.2 744.4c1.3.1 4 .2 5.4.3.2 1.3.7 3.9.9 5.2-5.6 1.9-7.7.1-6.3-5.5zM854.7 754.1c2.1-.1 6.3-.4 8.3-.6 2.2 5.2-9.5 6-8.3.6zM489 756.8c5.8-.8 15.8.3 14.3 8.2-3.5 5.5-10.3 4.2-15.9 4.8-.1-1.7-.3-5.1-.4-6.7-1.4 0-4.2 0-5.6.1 1.1 8.8-6.1 14.8-14.9 12.9 1.9-6.5 6.6-11.3 12.9-14 3.3-1.7 6.4-3.5 9.6-5.3zM552.2 760.5c5.3-1.6 7.1.2 5.3 5.3-5.3 1.5-7-.3-5.3-5.3zM804.5 775.8H817c2.4 1.2 7.1 3.5 9.5 4.6-2.2 3.7-5.1 6.9-9.6 8.2l6.4-6.8h-20.6v10.3c-1.6-1.3-4.9-3.9-6.5-5.1 0-1.8.1-5.4.2-7.2 2-.9 6.1-2.9 8.1-4zM712.6 794.5h5.7c1.5 4.2 3.2 8.3 4.7 12.5-2.6 0-7.8.1-10.4.1v-12.6zM679.8 824.9c5.4-5.1 10.7-10.4 16-15.6 1.1 1.9 3.2 5.7 4.3 7.5-3.2 4.5-7.3 8.2-11.1 12.1-2.4-1-6.9-3-9.2-4zM634.8 849.4c-1.1-11.7 11.2-12.1 20-11.1l-.3 3.3c-1.2 0-3.4 0-4.6.1-1.6 2.6-3.1 5.2-4.6 7.8 1.2 2.3 3.5 6.8 4.7 9-4.9-3.2-9.9-6.4-15.2-9.1z"/><path fill="red" d="M483.5 162.1c1.6-2.4 3.1-4.7 4.7-7.1 4.9 4.2 9.6 8.5 14.5 12.7-.4 5-1.1 10-2.2 14.9-3-3.7-6.8-6.4-11.2-8.1l-.5-2.9-.3-1.5-1.5-.1-4.7-.4c.3-1.8.9-5.6 1.2-7.5zM451.4 170c1 .8 2.8 2.3 3.8 3.1l-1.4 2.1c-.9-.8-2.8-2.4-3.7-3.2l1.3-2zM275.8 176.8l5.3-2.3c2.1 7.4 4.1 18.1-5.7 21.3l-1.5.8c-.1-2.1-.3-6.2-.5-8.3.7-3.9 1.4-7.7 2.4-11.5zM122.8 189.5c1.4-.3 4.1-.8 5.4-1l1.4 2.7-1 2.1-3 .7-2.8-2v-2.5zM690.5 189.7c.7-.5 2.3-1.5 3-2l4.8-.6c4.2 7.3-.7 14.2-3.6 20.8-1.7-.3-5.2-.8-6.9-1.1-1.4-.7-4.3-2.2-5.8-2.9 2.8-4.8 5.4-9.6 8.5-14.2zM319.4 194.5c1.4 0 4.1-.1 5.4-.2l2.2.7c.1 6.4-3.3 12.5-6.3 18l-1.1-4.7c-.4-4.6-.3-9.2-.2-13.8zM449.8 200.5c1.9.3 5.6.8 7.5 1l4.2.6c.1.2.4.5.5.7.9 1.1 2.7 3.4 3.6 4.5 1.3 1.5 4 4.6 5.4 6.1 4 .1 8 .3 11.9.5 5.7 2.6 2.3 9.2 2.3 13.8.5 1.5 1.6 4.5 2.1 6L486 235l-4.4-.6c-.1-.1-.3-.3-.3-.5-1.1-2.3-3.2-6.9-4.3-9.2-.4-1.2-1-3.4-1.4-4.6l-4.8-.4c-1.8 0-5.6.1-7.4.1l-.5-3.8-.2-1.4-1.5-.3-3.4-.7c-2.7-4.2-5.3-8.7-8-13.1zM210.4 202.5c5.5 4 10.8 8.1 16.2 12.2l-.1 2.7-.1 1.6c2.1 11-8.3 15.1-17.6 14.2-4.1-10.1.6-20.6 1.6-30.7zM515.1 208.2l12.3-4.8c1.1 5.1 2.2 10.1 3.4 15.2-1.4 1.9-4.3 5.6-5.7 7.4-3.4-2.3-6.9-4.6-10.3-7v-1c.2-2.5.3-7.4.3-9.8zM591.4 206.5c0-.2.1-.7.1-.9l-.1.9zM619.6 210c.9.9 2.7 2.6 3.6 3.5.6.9 1.9 2.8 2.5 3.7-5.8 3.8-10.4 8.9-13.9 14.6-2.5.4-7.4 1.1-9.9 1.4-1.4-4.4-2.7-8.9-4.1-13.3 4.3-.1 8.5-.1 12.7-.2 3-3.2 6-6.4 9.1-9.7zM573.1 237.6c-6.2-10.1-1-21.6 9.5-26.2 0 2.4 0 7.3.1 9.7-.7 6.7-5.1 11.9-9.6 16.5zM654.9 213.5c2.3 0 7 .1 9.3.2-1 4.8-3.6 8.9-6.8 12.6-1.7 0-5.2-.1-7-.1-2 0-5.8-.1-7.8-.1 4.2-4.3 8.2-8.4 12.3-12.6zM316.7 223c1.5-.1 4.4-.2 5.9-.3-.2 4.7-1 9.3-2.5 13.8l-.3.7-.1.6c-2 6.4 1.4 16.2-6.2 19.7-1.3.1-3.9.3-5.2.5-.3-12.3 3.9-23.8 8.4-35zM409.6 229.2h1.8l-1.8 1.8v-1.8zM810.7 232.9c1-1.1 3.1-3.4 4.1-4.6l2.2.8c0 1.5.1 4.5.1 6-1.3.1-3.9.2-5.2.3l-1.2-2.5zM168.5 241.3c-1.5-4.8-.9-8.8 2.1-11.8 3.2 3.4 6.1 6.9 9.1 10.3.3 5.9 2.6 11.4 6.3 16.1 1.4 9.8 4.4 19.3 9.1 28.1.7 1.1 2.1 3.4 2.8 4.5 4 4.6 8.8 8.2 13.8 11.6.2-2.5.6-7.5.9-10 7.6-4.6 15.4-8.9 23.8-11.9 1.5 1.9 4.6 5.7 6.1 7.7 2.3-.1 6.7-.3 9-.4 1.1 1.9 3.3 5.6 4.3 7.5-.4 1.6-1.1 4.7-1.4 6.3 2.3 3.4 4.2 7 5.6 10.8.9.9 2.8 2.8 3.8 3.7 1.3-.9 3.8-2.8 5-3.8-.1-6.8-.1-13.6.1-20.4 1.5 2.5 4.6 7.6 6.1 10.1 1.6 2.4 3.2 4.8 4.9 7.2.2 5.7 1.2 11.4 4 16.5l.2 2.4c-.2 2.5-.5 7.5-.7 10 4.5 0 7.5-5 6.1-8.9l-.2-3.6c4.4-1 5.5-3.7 3.3-8.1l-2-.9c-3-4.8-6-9.5-8.7-14.5.7-3.2 1.3-6.4 2-9.7 1.9-.9 5.7-2.8 7.7-3.7l6.4-.8c4.3-2.7 8.6-5.5 13-8 1.2-.3 3.4-1 4.6-1.4l5-1.4c4.5 2.7 9 5.6 12.5 9.7-8.1.2-12.3 6.2-15.6 12.5-.9 3.1-1.8 6.2-2.7 9.4-4.5 5.4-6.2 12.1-6 19-4.1 4.5-8 9.1-11.8 13.8-2.2 8.2-4.2 16.9-10.5 23.2-1.2-2.4-3.5-7.3-4.6-9.8-6.7-2.8-13.9-2.4-20.9-1.2-8.5 2.8-12.8-6.4-17.4-11.6-3-.9-6.1-1.8-9.1-2.7-3.3 11.3 6.6 21 4.1 32.5-4.7 2.9-9.4 5.9-14.1 8.6-5.1 7.3-5.9 17.7-13.9 22.6-.5 8.6 1.9 17 2.4 25.6 6.2 3.7 12.5 7.4 18.8 11.1.2 1.7.5 5 .6 6.7 2.7 3.3 4.8 8.8-.5 10.9-8.3-1.8-16.9-3-24.5-6.8-3.1-1.2-6.2-2.3-9.3-3.3-6.2-7.6-23.4-1.5-23.8-12.4 1.3-3.4 2.5-6.8 3.8-10.2-1.9-1.4-5.6-4.4-7.4-5.8 0-2.1.1-6.2.1-8.3 4.3 0 8.6-.1 12.8-.1.1-2.1.2-6.3.3-8.4-4.3-3.6-8.6-7.3-13.3-10.5-3.2-1.3-6.3-2.5-9.5-3.7V383c0-3.6 0-7.3.1-10.9 12.5-4.1 18.8-16 29.8-22.3-1.2-3.2-2.3-6.4-3.5-9.5-.1-3.3-.3-6.6-.4-10-4.5-3.5-9-6.8-13.8-9.9l-1.2-.8c-6.4-5.9-9-14.3-7.2-22.7l1.2-2.8 4.8 2.1c3.2 1.2 6.4 2.2 9.7 3.2 0-6.1.1-12.2 0-18.2-1.5-1.7-4.6-5.1-6.2-6.8-3.5-5.7-1.1-13.3-2.3-19.6l4.2 2.2c-.1-3.9-.1-7.7-.1-11.6l-5.3 1.7c.9-2 2.6-5.9 3.4-7.9l-5.8 2.1zm32.2 93c.1.1.4.3.5.4 1.7 2 5.2 6.2 6.9 8.2l-3.9 1.8c4.9.4 9.9.7 14.8.8-.1-3.7-.3-7.4-.5-11.1-4-6.6-7.4-13.4-10.5-20.4l-2.1-.1-1.4-4.1c-14.1 1.5-5.9 16.3-3.8 24.5zM443.5 252.6c1-3 2-6 3.1-9 2.8 3.8 6.7 7.2 8.2 11.7l-1 1.9-2.4.3c-2-1.2-5.9-3.7-7.9-4.9zM495.3 251.1l2.6.2c3.2 7.3 10.9 14.7 5.2 22.7-3.7-1.5-7.4-3-11.1-4.4.8-4.7 1.7-9.4 2.6-14.1.2-1.1.6-3.3.7-4.4zM632.4 264.1c7.9-.2 16.1-.3 23.1-4.4 2.7 4.1 5.3 8.2 8 12.2-5.4 3.6-11.1 6.8-17 9.4-4.8 1.7-9.9 1.4-14.9 2.1-2.3-4.2-4.6-8.3-6.9-12.5 2.5-2.2 5.1-4.5 7.7-6.8zM461.2 268.1c2.9-5.5 10-4 15.1-5.1v7.3c-1 11.2 1.6 22.8 9.9 31.1-5.8-1.7-11.5-8.1-17.9-4.6-5.8 4-10.6 9-15.1 14.3-2.4-1.2-7.2-3.5-9.6-4.6.2-1.3.7-3.8.9-5.1.8-3.8 2-7.5 3.1-11.2 3.9-1.7 9.5-1.4 11.8-5.4 1-5.7 1-11.3 1.8-16.7zM786.5 263.3c6.3 5.6 12.5 11.5 18.4 17.5-.4 12.4 1.6 25.1-2.3 37.2-1.9 5.1-.5 10.5.4 15.7.6 3.9 1.5 7.8 2.3 11.7h5.9c0-4.5.1-9 .2-13.5 1.8.4 5.3 1.3 7 1.7 3.8 2.8 5.7 7.2 8.4 10.8-3.2 3.5-6.5 6.8-9.9 10-4 .8-9.5-.8-11.8 3.5-.4 4.3-.5 8.5-.5 12.8 10.3 2.7 14.8 13 21.2 20.3 1.5-.1 4.6-.3 6.2-.4 3.8 3.1 7.8 6.1 11.4 9.5.3 5.9-4.3 10.8-6.4 16.1-2.7-.2-8.1-.6-10.9-.8-.2-1.9-.4-5.6-.5-7.4l-17.1.3c-2.3-3.8-4.4-7.6-6.2-11.6-1.7-2.1-3.4-4.2-5.2-6.3-5.5 1.3-12.4 10.3-17.2 4.3-.6-1.6-1.8-4.9-2.4-6.5-6.3 3.2-12.4 7.1-19.6 8.3.2-4.4.4-8.8.7-13.2l-3.9 2.4c0-5.1 0-10.1-.8-15.2-.9-6.9-4.1-13.2-7.3-19.4 4.1-5.4 8.1-10.9 11.7-16.6 1.4 1.4 4.2 4.1 5.6 5.5.8 5 2.6 9.8 4.5 14.4.5 1.6 1.4 4.9 1.8 6.5h8c.2-11.1 2.9-23.1 12.8-30 6.8-11.4 8.2-24.5 7.3-37.4l-6-6.8c-2.4-2.7-5-5.6-8.7-6.6-.1-2.4-.3-7.3-.5-9.7l4.6 2.1-1.2-9.2zm2.8 100.1c6 2.1 9.4-11 2.8-12-4.8 1.4-5 8.4-2.8 12zM656.7 289.1c5.7-1.4 11.4-2.7 17.1-3.7l2.3-.4v9.2c-6.4 3-12.7 6.4-19.4 8.4v-13.5zM121.6 294.6c1.6-.5 4.9-1.5 6.5-2l1.8 2.3c.4.9 1.2 2.6 1.6 3.4l.7 3c-3.7 5-8-2-10.6-4.5v-2.2zM403.3 307.1c3.3-3.1 6.8-6.2 10.6-8.8l4.8-1c-.1 2.2-.3 6.5-.4 8.6-5.5 5.5-6.9 12.7-6.4 20.1 2.9 3.3 5.6 6.8 8.7 10 3.3 2.2 6.6 4.3 10 6.3 5.2-1.6 10.3-3 15.4-4.6 1-.8 3-2.3 4-3 3.3 4 6.6 11.1-.7 13.3-12.2.8-24.4.3-36.6.8-1.8 1-5.3 3.1-7.1 4.1 2 .8 6 2.3 7.9 3.1-2.1 3.4-3.9 7-5.7 10.5-3.9 1.6-7.9 3.2-11.8 4.8V385c1.9 1.5 5.7 4.4 7.6 5.8-3.6 12.2-10.4 23.1-20.4 31.3v12.8c5.1 4.8 10.1 9.6 15 14.6 2.4 7.3 5.4 14.5 8.3 21.6-2.1-.4-6.1-1.2-8.1-1.5-8.6-2-17.5-2-26.3-2.4-5.1-.3-10.9-2.1-10.4-8.3-2.2.4-6.5 1.2-8.7 1.6.6-6.7-5.6-8.3-11.2-7l2.1-4.8c-1.6.7-5 2-6.6 2.7.5-5.6.7-11.3.9-16.9-4.2-5.3-8.2-10.8-12.8-15.7 0-2.5-.1-7.4-.2-9.9l5.2 1.6c.8-7.6 1.4-15.1 1.5-22.7 6.1-1.2 12.2-2.5 18.3-3.7-.9-7-5.2-15.2-.5-21.5 4.8-2.1 10.2-1.6 15.1-3.6 1.9-3.4 3.2-7 4.7-10.6-1.4-.1-4.3-.4-5.7-.5 5-7.3 3.1-16.3 3.4-24.4 9.4-4.9 19-9.6 27.8-15.6 2.7 0 5.5-.4 8.3-.8zm-27.8 38.1 1.3 3.5c7.5-.9 20.8 3.4 22.5-6.8 1.8-8.6-8.9-10.3-15.3-8.9-5.1 1.6-5.9 8.1-8.5 12.2zm-26.6 53.6c-3.7 2.7-4.5 6.9-5 11 3.3 4 6.5 8.1 9.9 12.1 1.7-.9 5.3-2.6 7.1-3.5l-.3-13.5-1.7.1c-3.2-2.3-5.4-7.4-10-6.2zM135.2 303.2c5.6 1.9 11.1 3.8 16.5 6.2-1 4.6-1.9 9.3-2.7 14h-6.1l-1.3-2c-2-3.1-4.1-6.3-6.1-9.4 0-2.2-.2-6.6-.3-8.8zM635.5 311.9c4.8-4.1 10.6-6.6 16.5-8.4 1.9 6.6 3.1 14.3 9.9 17.9v1.2c-1.3.9-3.8 2.7-5.1 3.6-1.5 1-4.6 3.1-6.2 4.2-.1 9-2.8 20.7-13.5 22.5.8-8.4 2.5-16.7 4.1-25-4.9-1.4-9.7-2.9-14.6-4.4 3-4 5.9-7.8 8.9-11.6zM336.6 314.1c1 0 2.9-.1 3.9-.2 5 5.7-1 12.4-3.9 17.3-.1.2-.3.5-.4.6-2 .3-6 1-8 1.3.1-1.9.4-5.9.5-7.8 2.7-3.7 5.3-7.4 7.9-11.2zM314.6 357.3c1.3-4.1 2.6-8.3 4-12.4l13.8 9c-2.2 2.6-3.9 8.9-8.6 5.7-.2 0-.6-.2-.8-.2-2.1-.5-6.3-1.5-8.4-2.1zM600.9 360.5c6.7-9.7 12.7 7.5 1.3 2.9l-1.3-2.9zM450.1 368.8c.9-1.2 2.8-3.6 3.7-4.8 1.6.3 4.7.8 6.3 1 4.3 6.4-6.7 7.8-10 3.8zM492.9 371.4c4-.8 9.5 4.4 8.5 8.4-4.5 1.8-10.6-4.1-8.5-8.4zM657.5 379.5c.3.6.9 1.8 1.3 2.4l-1.8-.5.5-1.9zM691.5 381.5l1.6-2.4c2.9 2.9 5.8 5.7 8.7 8.5 0 4.7.1 9.4.2 14.1 5.1 5.6 10.2 11.4 12.2 18.8-3.2.2-9.7.5-12.8.6-2.2-3.2-5.3-6-6-10-1-3.5-2-8.3-6.3-9.3v-2.9c0-4.6.1-9.3.4-13.9.5-1 1.5-2.7 2-3.5zM606.6 392.6c2.1-.1 6.2-.2 8.3-.3-7 12.6 4 24.2 3.3 36.9-3.6 3.1-8.5 4.1-12.9 5.6 0 1.1-.1 3.4-.1 4.6 1.7.2 5.2.4 7 .6-.4 7.3.1 15-3.6 21.8-1.4.1-4.3.3-5.7.4-6.8 5.3-12.8 11.5-16.4 19.4-2.8 4.1-8 1.1-11.7.6-7.1-2.7-14.2 1.6-21.2 2.2-3.6-5.1-7.1-10.4-9-16.4-5.1 3.4-10.2 6.7-15.3 9.9-1.7-1.2-5-3.4-6.6-4.6-2.2-4-5-7.7-8-11.2-4 1-7.5.3-10.8-2.1-6.6-12-8.2-25.8-8.7-39.2 5 0 10.1.1 15.1.1 3.7 3.6 7.4 7.3 11.2 10.8 5.9-3.9 11.6-8.3 15.3-14.4 5.3.8 10.7 1.5 15.9 2.5 3 .5 6.1.9 9.1 1.4 2.4 2 4.7 4.1 7.1 6.2 4.3-1.4 8.6-2.8 13-4.1 2.2-2.3 4.3-4.6 6.4-6.9.2-1.5.5-4.4.7-5.8l.1-.9c6.1-5.8 11.8-11.4 17.5-17.1zm-44.9 61.6c-.8 4.5-1.4 9.1-2 13.7 2.2 0 6.7.1 9 .1 4.1-4.4 8.2-8.7 12.1-13.2-3.5-7.3-15.6-7.4-19.1-.6zM733.3 387.9c1.9 1.5 5.7 4.5 7.6 5.9 3.5 4.3 6 9.3 8.8 14.1-4.1 5.7-10 3.3-12.8-1.8-1.8-5.9-2.8-12.1-3.6-18.2zM626.1 420.1c3.5-2.2 6.9-4.6 10.5-6.7 3.4 1.9 6.3 4.3 8.9 7.3-6.6.1-13 0-19.4-.6zM860.9 436.2l8.4.4 2 .1c-2.6 7-4.8 14.2-5.6 21.7-.5 2-1.4 5.9-1.9 7.8-2.1-1.3-6.3-3.8-8.4-5.1-1.4-1-4.3-3-5.7-3.9.1-1.6.4-4.8.5-6.4 3.7-4.7 7.2-9.7 10.7-14.6zM876.4 483.1c-4.8-7.9-6.9-19.3 4.2-22.9 6.3 1.4 8.6 7.4 8.2 13.1-2.7 3.3-5.1 6.9-6.5 11-1.4-.4-4.4-.9-5.9-1.2zM693.8 470.9c6.8.1 13.6.1 20.4.8 1.6.7 4.9 1.9 6.5 2.6l.8 3.9c.7 5.3 7.3 6.8 11.9 5.7l3.8-.4c5.7 6.3 12 12.2 19.1 17.1 5 7.7.9 20.3-9 21.9l-.4-8c.3-4.6-2.7-8.4-5.1-12.2l-2.5-4.1-.4-.7-.7-.4-5.1-2.7-.6-.3-.7-.1c-2.3-.3-6.9-1-9.2-1.4-8.4-3.4-15.2-9.4-21.8-15.3-1.8-1.7-5.3-4.8-7-6.4zM696.5 511.8c1.2.1 3.5.3 4.7.5 2.7 3.3 2.4 6.1-.9 8.2l-1.8-1c-.5-1.9-1.5-5.8-2-7.7zM683 555.6c-1-3.4-.6-10.7 5-8.7 5.4 3.9.5 17.2-5 8.7zM239.7 548.4c3.6 2.6 6.9 5.6 10 8.7.9 5.2 1.4 10.5 2 15.7 4.1 4.4 2.1 9.9.6 14.8-3.3.1-8.5-5.2-10.6-.6-2.1 11.6 2.4 22.9 6.8 33.4l1 2.1c.8 1.7 2.3 5.1 3.1 6.7 7-1.3 11.4-5.8 12.7-12.6 5.6-4.1 11.3-8.2 17.2-11.9 4 4.5 7.5 9.3 8.6 15.3-.4 2.3-1.2 6.8-1.6 9.1 6 7.7 12.7 15.4 14.2 25.3 3.9 9.9-1.7 21.1-3 31.3-7.4 2.5-15.6 2.2-23.2 4.2-4.2-1.4-7.5-4.4-11.2-6.6-8.6 1.2-19.7 3.8-23.3-6.6-2.2-.3-4.4-.7-6.6-1-.1 6.5-.9 12.9-2 19.3-3.8-2-7.5-4.2-11.2-6.3-.8.8-2.5 2.3-3.3 3.1.4 5.4 1.2 10.8 2.7 16.1 3.4 4.6 2.5 10.2 2.8 15.5-7.1-4.3-13.6-9.6-22-11.2-1.4 3.7-3 7.4-4.5 11.1-1.4 2-2.9 4-4.4 6-3.2-4.2-6.3-8.5-9.6-12.6-1.8-.4-5.4-1.1-7.2-1.5-3.3-.7-6.6-.7-9.9-.3-8.5-.5-16.5 2.5-18 11.5-.6 1.9-1.8 5.8-2.4 7.7-6.2 3.4-12.7 3.6-19.3 1.1.3-8.5 1.1-17 3.9-25 3.9-1 7.8-2 11.6-3.1 1.9-.3 5.6-.8 7.5-1.1.1-6.8-.3-13.7.7-20.5 3-5.7 9.9-4.2 15.3-4.4 1.3.4 3.9 1.3 5.2 1.7 7.5 2.6 9.6 10.6 14.1 16.3.1 1.1.3 3.4.5 4.5 5.6-1.6 11.2-3.1 16.8-4.6-1-8.1-3.1-16.7-10.6-21.5-2.5-2-4.9-4.1-7.3-6.3-3.2-8.9-2.3-18.5-2.5-27.7 2 .1 5.9.3 7.8.4 3.2 3.4 6.4 6.8 9.7 10.1 1.6-1.9 4.9-5.8 6.5-7.7l5.6 4.8 1.1.9c4.4 1.3 8 4.1 10.7 7.7l-1.6-6.4c2.1.6 6.2 1.8 8.3 2.4-.6-1.7-1.8-5.1-2.4-6.7 7.1.3 8.9-5.7 7.3-11.3l4.3 2.3c-.6-9.2-2.7-18.1-4.6-27-9.2-4.8-14.5-13.2-13-23.5 3.8-1.7 7.3-4.1 10.8-6.4-.4-4.8-.7-9.6-1.1-14.4l4.5 2.4c-.5-6-.9-11.9-1.4-17.9l4.9 2-1-6.8zm29.4 95.9c.2 2.6.3 5.1.4 7.8l2 8.8-1.3 1.2c4.4 1.4 8.7 2.8 13.1 4.2v-31.7c-2-.3-5.9-.8-7.9-1.1-2.1 3.5-4.2 7.2-6.3 10.8zM276.5 572c1.7-.2 5.1-.5 6.8-.7v12.9l-6.8-.8c.9-3.8.9-7.6 0-11.4zM715 569.9c1.4 1.5 4.4 4.4 5.8 5.9.3 1.9.7 5.7 1 7.5l.4 1.8c1.5 2.6 4.6 7.8 6.2 10.4 1.4-3.2 2.7-6.5 3.9-9.9l1.2-3.7c.3 3.3.8 10 1 13.4-1.1.6-3.3 1.7-4.4 2.3-.3.2-.9.4-1.2.6-2.1 1-6.4 3.2-8.6 4.2-.2-.3-.5-.8-.7-1-1.2-1.9-3.7-5.6-5-7.4.2-8 .2-16 .4-24.1zM644 578.4c4.4-1.5 8.8-1.4 13.2.4-1.5 4-9.6 2.6-13.2 1.5v-1.9zM140.5 581.5c1.5.4 4.5 1.1 6 1.5 4.8 4.7 9.8 9.2 14.8 13.6.5 7.9-1.8 15.4-5.8 22.2 3.5 4.9 6.6 10.1 10.3 14.9 1.4 1.7 4.3 5.2 5.7 7l-4.5-.1c-1.2 0-3.5-.1-4.7-.1-1.9-5.8-6.3-10-11.2-13.6l-.2-.7c-1.3-5.3-2.5-10.6-3.4-16-2.9-4.1-5.8-8.2-8.9-12.2-2.1-2.9-4.1-5.8-5.9-8.8 5.1-.3 7.7-2.9 7.8-7.7zM186.5 597.9c-.6-4.9-4-10.2-.9-14.9 8.9 2.6 10.3 14.6 7.4 21.7l-1.2-1.2c-1.3-1.4-4-4.2-5.3-5.6zM869.6 602.9c0-4.9 2.5-6.8 7.3-5.7-.5 1.5-1.3 4.5-1.7 5.9l-3.1 1.2-2.5-1.4zM338 599.9c1.8-.2 5.3-.5 7.1-.7-.5 5.4-.7 10.8-.8 16.2H338v-15.5zM355.3 615.4h8.8c.1 8.2-.5 16.4-3.3 24.1 1.1 1.1 3.3 3.3 4.4 4.3l7.8-3.7c-1.7 2.3-5 6.8-6.7 9l5.7-1.8c.3 1.9.8 5.7 1.1 7.7-4.5 6.1-9.1 12.1-14 18-1.1-1.5-3.3-4.4-4.3-5.9-4.5 4.1-9 8.3-13.5 12.4 0 2.3.1 6.9.2 9.2 4.3-1.3 8.6-2.6 12.8-3.9 1.2 5.1 2.4 10.2 3.5 15.3 3.7-1.4 7.4-2.6 11.1-3.9 7.6-4.7 15.5-9.8 19.5-18.1 4 4.3 8 8.5 12.1 12.7h7.5c1.9 4.7 3.9 9.5 5.9 14.2 5.3-4.4 10.5-8.9 15.7-13.4 13.7-1.2 26.1-8.2 40.1-7.9 3.2 6.2 7.1 12.4 6.9 19.6 0 1.1.1 3.3.1 4.4-3.9 4.1-6.2 9.1-7.7 14.5h-29.8c.3-1.4 1-4.2 1.3-5.6l-9 1.9c1.7-1.7 5.2-5.1 6.9-6.8-2.5-.6-7.4-1.7-9.9-2.2l-.4 2.9c-11.9-4.6-23.6 2.3-30.5 11.7-1.8 5.8 2.2 11 4.4 16 2.6 6.8 8.1 11.7 14.2 15.8-2.9 1.7-5.9 3.4-8.8 5.1-.6 3.6-1.3 7.2-1.9 10.9-6.4 2.3-12.3 8.1-19.5 6.5l-2-3.6c1.2-3.9 2.3-7.8 3.4-11.6-4.1-.1-8.2-.1-12.3-.2-2.3-6.6-5-13-8.1-19.3-2.5.3-7.4.8-9.9 1-6.3-10.6 7.1-18.7 11.4-27.4-4.7-1.8-9.4-3.6-14.2-5.4 0-2.4-.1-7.1-.2-9.4-1.9.5-5.7 1.5-7.5 2l-2.1.6c-5 1.5-10 3.1-14.9 4.7-2.3-2.8-6-4.6-7.3-8.1-.4-1.4-1.1-4.3-1.4-5.7-.9-3.4-1.7-6.8-2.5-10.1 1.9-1.4 5.8-4.2 7.7-5.7-1.5-7.6-3.8-15-3.9-22.8 4.3-5.4 11.7-4 17.8-4.8 2.4-3.5 4.9-7 7.4-10.5.4-1.5 1.1-4.4 1.5-5.9 2.1-6.9 4.3-13.8 6.4-20.8zm108.4 75.4c-.1 1.5-.2 4.7-.2 6.2h-7.2c1.3 1.6 4 4.8 5.3 6.4 2.1 0 6.4-.1 8.5-.1v-12.5h-6.4zM825.2 625.7c4.5-2.9 9.9-3.5 15.1-4.4l2.4-.4c.4 9.9 6.7 18.2 8.1 27.9-4.3 3.3-8.6 6.7-13.7 8.8 0-5.3 0-10.6-.1-16-1.6-1.3-4.9-3.8-6.5-5.1-4.8 2.8-10.7 4.4-14.3 8.7-3.4 8.1-4.6 17.3-10.8 24.1-.8 5.1-1.7 10.1-2.5 15.2-2.2 1.3-6.6 3.7-8.8 5-3.4-1.1-6.9-2.2-10.2-3.3-.9.4-2.6 1.3-3.5 1.8-8.6-4.7-17.3-9.4-26.8-11.9 2.8-4.2 5.6-8.4 9.3-12 5.4-.1 10.8 1.1 16.1 1.9.1 1.5.2 4.6.2 6.2 2 0 6-.1 8-.2 7.4-7.3 15.4-14 23.7-20.3.3-1.5.7-4.5 1-5.9 4.6-6.7 8.2-14 13.3-20.1zM640 621.3c4.9 2.2 9.9 4.4 14.9 6.6l2 1 .2 1.6c4.2-1 8.4-2 12.7-2.9l2.1-.5c3.1 6.1 6.2 12.1 9.5 18l.7.9c2.7 6.6 9 8.4 15.7 7 2.7-3.4 4-7.5 5.6-11.4 2.3-1.4 4.6-2.8 7-4.2 4.9 4.4 10 8.7 15.9 11.9 1.2 1.3 3.5 3.8 4.7 5.1 0 3.8 0 7.6.1 11.4-2-.2-5.9-.5-7.8-.6-5.8-5.4-14.4-2.4-18.4 3.5-5.5 7.6-15.3 9.2-23.5 12.6-1-.5-3.2-1.5-4.2-2-3.1 2.9-6.1 5.8-9.2 8.8l-2.8-2.8c-2.9-3-5.7-5.9-8.6-8.8 1.9-9.5 3.5-19.1 4.3-28.7-2.9-2.2-5.8-4.3-8.8-6.4l-2-.4c-1.4-.3-4.1-.8-5.5-1l-.4-1.6c-1.5-5.8-2.9-11.4-4.2-17.1zM109.8 637.3c.7-1 2.1-3 2.7-4l2.5 1.4v2.7c-1.3-.1-3.9-.1-5.2-.1zM769.6 644.6c-1.8-6.5 4-10 9.9-10.9l-1.2 11.6c-.2.1-.5.2-.7.3l-6.7 2.4-1.3-3.4zM124.3 647.7l1.5.8-.4 1.5c-.2-.6-.8-1.7-1.1-2.3zM553.1 656.8c-8.3-6.4 7.5-10.1 2.5-.7l-2.5.7zM583.3 654.5c3-.1 9-.2 12-.2l-2.4 4.4c3-.5 8.9-1.4 11.9-1.8l-2.2 5c4.4-.8 8.8-1.9 13.2-2.4 2.2.9 6.6 2.8 8.8 3.8 0 5.4.1 10.9.2 16.3 3-2.4 6-4.8 9.1-7.1 5.5 1.3 10.5 4.1 15.5 6.8.5 1.7 1.4 5 1.8 6.7 1.7 9.9 8 17.9 14.5 25.3-2.4 3.2-4.7 6.3-7.1 9.4-.3 6.6.6 13.6-3.4 19.4-3.8.6-7.5 1.1-11.3 1.3-2 1.7-4 3.5-6 5.2 2.1 3.9 4.1 7.8 6.2 11.7-2.7 2.6-5.4 5.1-8 7.8h-10.6c-2.3 4.2-4.5 8.5-6.8 12.7-15 .3-30.7.3-44-7.6 2.2-3.5 4.1-7.1 6-10.7 3.6-1.6 7.2-3.1 10.9-4.7 1.2-2.4 2.3-4.9 3.4-7.3-3.2-5.6-6.5-11.1-8.7-17 4.6-9.2 11.1-17.3 18.7-24.3.1-5 .2-10 .3-15.1-1.5-1.6-4.6-4.7-6.1-6.3-3-3.2-6-6.3-8.8-9.6l-2.7 1.2c-.8-7.6-3-15.2-4.4-22.9zm43.8 66.8 2.5 1c3.5 4.5 8.4 6.6 14.2 6.9.1-5.2.1-10.3.2-15.4-1.6-1.3-5-3.8-6.6-5.1l-.1-3.3c-8.3.7-9.3 9.5-10.2 15.9zM834.1 687.5c-.5-5.6 8.3-9.2 10.4-2.9l-1.3 2.3c-2.3.2-6.8.5-9.1.6zM851.2 722.2c3.9-.1 7.8-.2 11.8-.2l-.7 1.7c-2.4 5.9-4.5 11.8-6.5 17.8-1.4-.1-4.1-.2-5.4-.3l-4.4.2h-1.7c-4.6-.1-9.1-.3-13.6-.5v-8.2c2-1 6.1-2.9 8.1-3.9 1.7-.2 5.1-.4 6.8-.6 1.4-1.4 4.2-4.5 5.6-6zM809.9 735c-5.2-5.8 2.9-8.2 7-11.3 1.1 2.4 3.3 7.1 4.3 9.4-.6.4-1.8 1.3-2.4 1.7-2.1.1-6.6.2-8.9.2z"/><path fill="red" d="M196.2 744.2c2.4-5.6 4.7-11.2 7.2-16.7 2.9 2.9 5.9 5.7 8.8 8.6 2 1.9 3.9 3.9 5.8 5.9 1.5 5 3.9 9.6 7.4 13.5-.4 3.6.6 8.2-3.3 10.4-7.1-.2-18.1-4.7-21.1 4.7-4.8 6.1 2.2 11.5 5.6 16 1.8-.1 5.3-.1 7.1-.2 4.4 3.1 9 6.1 13.5 9.1 10 .5 19.5 4.6 29.7 3.4l-1.2 5.8c4.2-3.6 9.5-6.8 10.5-12.7 1.9.3 5.6.8 7.5 1-.1 2.3-.2 6.9-.2 9.2-2.1 2.6-4.1 5.1-6.2 7.7-9.1-.1-18.3-.2-27.3.7-14.1.7-26.9-5.6-40.6-7-7-.4-12.9-4.1-19-6.8-.5-3.6-.9-7.3-1.3-10.9l-3.5.8c1.2-8.4-7.1-13.2-11.5-19.1l.4-1.7c4.3-10.6 2.2-21.8-.9-32.4 7.5 1.1 14.8 3 21.7 6 3.6 1.7 7.3 3.2 10.9 4.7zM855.7 741.4c7.6-.4 15.3-1.1 22.8-2.4l.4.3c.2 1.9.5 5.7.7 7.6-4.7 1.3-9.3 4.2-14.4 3.3-2.1.2-6.2.5-8.3.6l-.2-4.2c-.3-1.3-.7-3.8-1-5.2zM528.2 762.9c.5-6.6 8.9-8.4 13.7-4.6-.8 1.1-2.3 3.2-3 4.3-2.7.1-8 .2-10.7.3zM804.9 778.7h20.6l-6.4 6.8-5.8 5.8h-8.5V789c.1-2.6.1-7.7.1-10.3zM652 838.4c1.2 0 3.4 0 4.6-.1 4.4-.3 5.6 5 7.7 7.9-3.7 3.4-7.4 7-12.1 9.1-1.2-2.3-3.5-6.8-4.7-9 1.4-2.7 3-5.4 4.5-7.9z"/></svg>