<?xml version="1.0" encoding="UTF-8" standalone="no"?>
<!-- Generator: Adobe Illustrator 26.5.0, SVG Export Plug-In . SVG Version: 6.00 Build 0)  -->

<svg
   version="1.2"
   x="0px"
   y="0px"
   viewBox="0 0 1000 1000"
   overflow="visible"
   xml:space="preserve"
   id="svg216009"
   sodipodi:docname="c_mkr_sr_r.svg"
   inkscape:version="1.2.1 (9c6d41e410, 2022-07-14)"
   xmlns:inkscape="http://www.inkscape.org/namespaces/inkscape"
   xmlns:sodipodi="http://sodipodi.sourceforge.net/DTD/sodipodi-0.dtd"
   xmlns="http://www.w3.org/2000/svg"
   xmlns:svg="http://www.w3.org/2000/svg"><defs
   id="defs216013" /><sodipodi:namedview
   id="namedview216011"
   pagecolor="#ffffff"
   bordercolor="#000000"
   borderopacity="0.25"
   inkscape:showpageshadow="2"
   inkscape:pageopacity="0.0"
   inkscape:pagecheckerboard="0"
   inkscape:deskcolor="#d1d1d1"
   showgrid="false"
   inkscape:zoom="1.027"
   inkscape:cx="499.51315"
   inkscape:cy="499.51315"
   inkscape:window-width="3440"
   inkscape:window-height="1369"
   inkscape:window-x="-8"
   inkscape:window-y="-8"
   inkscape:window-maximized="1"
   inkscape:current-layer="mkr_x5F_sr" />
<g
   id="bg"
   display="none">
</g>
<g
   id="scans"
   display="none">
</g>
<g
   id="counters">
	<g
   id="mkr_x5F_sr_00000159452200846886458760000012412655656111607687_">
		<rect
   fill="none"
   width="1000"
   height="1000"
   id="rect215873" />
		<g
   id="mkr_x5F_sr">
			<path
   fill="#FF0000"
   d="M382.6,506.3c-0.5-3.2-1.6-6.8,3.2-4.2c0.8,0.4,1.6,0.5,2.2-0.4c0.5-0.7-0.1-1.2-0.3-1.8     c-2-5-1.9-5.5,1.1-11c3,8.3,4.9,16,5.6,24.2c1.6-3.1,1.5-6.1,0.7-9.1c-0.9-3.3,0.4-4.2,3.6-3.1c7.1,2.2,13.5,8.8,9.4,17.5     c-1,2.1,0.7,3.8,0.2,7c0.4-1.7,0.4-2.3,0.7-2.7c0.9-1.2,0.4-3.8,2.9-3.3c2,0.4,1.4,2.4,1.5,3.8c0.1,3.5,2.1,6.1,3.9,8.8     c1.7,2.5,3.4,1.6,3.9-0.4c0.9-3.2,1.6-7-0.6-9.6c-2.8-3.4-3-6.9-3.1-11c-0.1-3.3,3-8.9-4.2-9.3c-0.1,0-0.3-0.2-0.3-0.4     c-0.4-6.1-0.7-12.2-1-18.3c0-0.4,0.6-1.1,0.9-1.1c4.4,0.1,4.9-3.7,6.7-6.3c0.9-1.4,1.7-3.3,3.7-2.8c1.5,0.4,1.9,2.4,1.9,3.7     c-0.2,5.3,2.2,6.1,6.8,5c3.7-0.9,5.2,1.9,5.3,4.9c0.1,4.7,1,9.4-2.7,13.7c-0.8,1-2.7,5.1,2,6.1c1.8,0.4,2.9,2.6,2.8,4.9     c-0.1,2.3-0.1,4.7,0,7c0.1,2.5,0.2,5,3.9,5.2c1.7,0.1,2.9,1.2,3.2,3.3c1.1,7.7,1.4,15.4,0.8,23c-2,0.5-2.2-1.1-3.1-1.8     c-2-1.6-3.6-1.3-3.7,1.4c0,4.3-1.9,8.5-0.8,13.4c1.9-3.3,7.5-1.1,7.3-6.8c1.8,1.1,1.9,2.6,2.4,3.9c0.4,1.2,1.3,2.4,2.5,1.9     c3.2-1.5,6.8-1.5,10.1-2.3c1.4-0.3,1.2-1.1,1.1-2.2c-0.5-2.8,0.6-6.1,3-6.5c3.5-0.5,8.4-1.7,9.3,4.9c0.8-3.5,3-6.5,0.8-10.1     c-1.9-3.3-2.5-6.4,0.2-10.1c2.4-3.2,0.6-7.7,1.6-11.5c0.4-1.6-1.4-1.7-2.4-0.9c-3.2,2.4-3.6,0.3-3.9-2.2     c-0.2-1.1-0.6-2.2-0.8-3.4c-0.4-1.5,0.4-3.8-1.9-4.1c-2.4-0.3-0.8,3-2.8,3.6c-2.8-1.7-0.8-4.9-2-7.2c-0.8-1.5-0.7-3.9-3.3-3.7     c-2.3,0.1-2.9,2.1-3.4,3.8c-1.7,6.5,2,12.3,8.4,13.8c3.5,0.8,4.9,3.7,5.4,7c0.5,3.5-0.5,6.9-1.6,10.5c-2.9-2.2-2.9-5.1-3-8     c0-1.5,0.2-3.5-2-3.3c-1.8,0.1-1.2,2.1-1.3,3.3c-0.1,1.5,0,3-0.2,4.5c-0.3,1.6,2.4,4.2-0.3,4.5c-2.5,0.3-5.6-1.2-6.9-3.9     c-3.6-7.6-6.9-15.3-7.6-24c-0.3-4.1-2-8.1,2.1-11.3c0.6-0.5,0.6-1.9-0.3-3c-1.5,2.1-2.9,4-4.3,6c-0.8,1.2-1.7,2.3-3.2,1.3     c-1.2-0.8-0.6-1.9,0.1-3c2.9-4.6,2.8-9-1.4-12.9c-0.8-0.8-1.4-1.9-1.2-3.2c1.7-11.1-1.8-21.9-2.4-32.9c-0.3-4.7-4.3-8.1-9.3-8.6     c-1.1-0.1-2-0.6-2.2-1.6c-0.3-1.6,0.8-2.4,2.3-2.6c3.5-0.4,3.8-1.3,0.5-2.8c-0.9-0.4-1.1-1.2-1.2-2c-0.9-5.3-3.4-9.7-7.8-12.8     c-1.1-0.8-1.5-1.9-0.4-2.9c1.1-0.9,2.2-0.4,3.1,0.5c1.1,1.1,1.6,3.5,3.8,2.2c2-1.2,1.1-3.1,0.8-5c-0.4-2.1-0.4-4.3-0.5-6.4     c0-1.1-0.4-2.6,1.1-3c1.2-0.3,1.4,1.6,2.5,2.2c1.3-6-0.3-10.1-5-13.6c-2.9-2.2-2.4-6.3-2.6-9.7c-0.4-5.9-0.6-11.6-5.8-15.7     c-0.5-0.4-1.1-1.2-1-1.6c1.7-5.1,1.4-10.4,2.2-15.6c0.1-0.8,2.1,0.1,2-1.7c-1.4,0.1-2.7,0.1-3.9,0.5c-2.8,0.7-3.7-0.7-3.6-3.1     c0.4-7-1.9-14.2,1.2-21.1c0.8-1.8-0.3-3.1-1.4-3.9c-5.2-3.5-3.1-9.3-4.5-14c-0.3-1.1,0.8-2.3,2.1-2.2c1.7,0.1,2.3,1.5,3.1,2.8     c5.4,8.5,4.8,18.2,6.2,27.6c0.1,1,0.1,2,1,2.7c6.9,5.3,4.8,13.2,5.3,20.1c0.2,3.5-0.2,6.9,1.2,10.2c0.4,0.9,0.6,2.5,2.3,2.1     c4.2-0.9,3.2,2.2,3.2,4.2c0,3.6-2.5,3.1-4.8,2.4c0.1,5.6,1.7,6.4,9.1,4.4c-0.3,4.7,1.9,9,1.9,13.7c0,1.1,0.5,2.6,2,2.4     c1.1-0.1,1.2-1.5,1.2-2.5c0-4-0.1-8-0.1-12c0-1-1.3-2.5,0.4-3c1.7-0.4,2.1,1.1,2.4,2.5c1.2,5.1,3.9,9.8,3.2,15.4     c-0.2,1.6,0.9,3.2,2.2,4.5c0.3-0.4,0.7-0.6,0.8-1c0.4-2.1,0.4-5.3,3.2-4.6c3.1,0.8,0.2,3.1,0,4.8c-0.4,2.7-0.5,5.5-0.7,8.1     c-2.7,0.6-1.7-2.2-3.7-2.8c0.2,8.9,0.3,17.6,3.1,26c0.4,1.1,0.9,2.1,0.6,3.3c-1.7,5.6-0.9,11.1,0.3,16.7c0.6,2.5,0.5,6,4.1,5.7     c3.9-0.3,8.6-0.8,9.8-5.3c0.9-3.5,1.5-7.7-1.2-11.1c-1.2-1.5-1.6-2.7,0.4-3.5c1.6-0.6,3.4,0.4,3.5,1.8c0.2,4.9,2.2,10-0.2,14.7     c-1.6,3.1-2.4,6-1.4,9.3c0.4,1.3-0.8,3.5,1.4,3.6c1.2,0,3-0.8,3.1-2.7c0.1-2.8,2.8-3,3.9-2.7c2.6,0.9,1.7,3.9,2.2,6     c0.5,2-1.7,2.1-3.1,2.5c-1.4,0.4-3.4-1.3-4.4,1c-1.5,3.2-4.9,5.5-4.7,9.5c0,0.2,0,0.3,0.1,0.5c0.4,8.6,0.4,8.6,9.4,10.1     c1.3,0.2,2.3,0.6,2.6,1.9c0.3,1.4-0.7,2.1-1.9,2.6c-0.9,0.3-2.2,0.5-1.8,1.9c0.6,2.1,1.8,0.6,2.7,0.2c2.1-0.8,2,0.8,2.4,2.1     c0.9,3,1.1,6.1,1.6,9.1c0.6,3.2,1.9,5.2,4.1,7.4c1.2-2.2-0.3-3.8-0.4-5.6c-0.1-2,0.2-3.6,2.2-4.6c2.1-1,3,0.6,4.3,1.5     c2.4,1.7,1.8,4.9,3.6,7c0.9,1,0.6,3.1,2.9,2.6c1.8-0.4,2.7-1.7,2.7-3.2c0.1-6.8,0.7-13.7-0.2-20.5c-0.8-5.8-3.7-11.3-1.8-17.5     c-1.5,1.3-0.9,2.8-1.1,4.3c-0.1,0.9,0.2,2.3-1,2.5c-0.6,0.1-1.5-0.6-2.1-1c-1.3-0.8-0.6-1.7,0-2.5c2.1-3,1.4-6.4,1.5-9.7     c0.1-3.2-0.2-6-3.9-7.1c-1.4-0.4-2-1.7-1.9-3.2c0.1-0.9,0.3-1.7,1.3-1.9c1.3-0.3,2.2,0.4,3,1.4c0.9,1.1,1.4,3.2,3.2,2.4     c1.4-0.6,1.4-2.5,1.4-4c0-0.9-0.2-2,0.7-2.7c3.6,2.3,0.1,6,1.7,8.7c0.6,1-0.2,2.9,1.8,3.1c1.7,0.2,2.9-0.8,3.4-2.4     c0.7-2.3,1.6-4.1,4.5-3.5c0.7,0.2,1.6,0,1.6-0.7c-0.3-4.6,2.7-8,4.2-11.9c0.7-1.8,0.9-3,2.9-4c3.9-2.2,3.8-2.4,6,2.1     c2.3-5.9,1.3-11.3-0.5-16.6c-2.7-7.8-1.3-15.2,1.7-22.5c0.4-0.9,0.9-1.8,1-2.8c0.5-4.6,3-7.6,7.4-8.8c2.2-0.6,3.2-2.7,4.8-3.8     c2,1.1,0.9,2.3,0.6,3.2c-1.5,5.1-1,10.1-0.5,15.3c0.4,3.5,2.9,8.8-4.6,9.5c-2.5,0.2-3.1,4-3,6.8c0.4,8.4-2.3,16.8-0.3,25.3     c0.3,1.4,0.1,2.6-1.3,4c1.6-0.6,2.8-1.3,3.9-1.3c1.4-0.1,3.1-1.8,4.1,0c0.8,1.5,1.3,3.6-1.3,4.5c-1.6,0.6-0.6,1.6-0.2,2.4     c0.8,1.7,1.2,3.5,1,5.3c-0.4,4,0.9,9-6,8.6c-2.3-0.1-3.3,5.5-6.7,1.7c-0.6,0.7-1.6,1.1-1.8,2.2c-0.9,5-0.2,9.8,1.5,14.6     c0.4,1,0.8,1.7,2,1.8c2.8,0.3,2,2,1.3,3.7c-4.1,10-5.6,20.6-6,31.3c-0.2,4.5,1.4,9.1,0,13.8c-0.7,2.2-0.5,4.6-3,5.9     c-1.1,0.6-0.9,1.6-0.3,2.6c0.4,0.7,1.3,1.7,0.6,2.2c-6.4,5.2-3.9,12.7-4.4,19.1c-0.8,10.1-0.2,20.2-0.7,30.4     c-0.4,8.1-0.5,16.6,1,24.7c1.1,5.7-1.8,8.5-5.3,11.9c1.5-9.6-0.1-19.1,0.1-28.7c-0.6,5-1.3,10.8-3.7,14.5     c-6.3,9.5-3.1,20-5.5,29.7c-0.4,1.4-0.7,2.9-1,4.4c-0.4,1.7-1.6,2.1-3,1.7c-1.8-0.5-0.7-1.7-0.6-2.8c1.4-10.3,2.1-20.6-0.2-30.9     c-0.9-3.8-1.5-7.7-1.7-11.6c-0.2-3.8,0-7.4-3.2-10.6c-1.2-1.2-3.3-5.4,2.4-4.6c1.4,0.2,2.5-1.4,2.9-3c1.3-4.9,0.8-9.7-0.1-14.6     c-1.7,4.6-6.4,8.3-3.7,14c0.2,0.4-0.1,1.5-0.6,1.7c-0.9,0.6-1.4-0.1-2-0.8c-1-1.3-2.1-2.5-3-3.6c-5.3,9.6-1.7,19.9-4,29.9     c-2.1-1.8-3-3.5-2.6-5c1.1-4.7-3.9-6.8-4.5-10.7c-0.2-1-1.4-0.9-2.1-0.3c-3,3-3.3,0.6-3.7-1.8c-0.4-2.1-0.7-3.9-2.8-5.7     c-2.4-2-1.3-6-0.7-9c0.6-3.3,0.5-6.1-2.2-8.5c-2-1.8-0.7-3.5,0.2-5.3c1.5-3.5,3.6-7.2-2.2-9.2c-1-0.3-1.9-1.4-2-2.7     c-0.1-1.8-0.4-2.1-2.6-2c-3.3,0.2-3.7-3.7-5.7-6.8c0,6.2-1.2,11.6,0.3,16.3c1.8,5.7-0.1,11.4,1.4,17c0.4,1.5-0.3,1.4,1.7,1.3     c4.4-0.2,9.7,8.9,8.8,13.4c-0.4,2.2-0.5,4.7,0,6.9c1,5.3,1.1,10.5,0,15.8c-0.3,1.3-0.9,3.4,0.4,3.7c5.5,1.4,3.8,5.3,3.4,8.8     c-0.7,6,3,11.5,2.1,17.7c-0.5,3.3-1.2,6.9,1.1,10.1c1,1.3-0.1,2.1-1.5,2.3c-1.9,0.2-3.3-0.3-3.4-2.6c0-3-0.1-5.9-0.1-8.9     c0-1-0.3-2.7-1-2.5c-4.8,1.3-3.6-2.4-4.3-4.7c-0.3-0.9-1-1.9-1.8-2.2c-6.1-2.7-6.7-8.4-7.6-13.9c-0.1-0.9,0.5-2.5-0.9-2.3     c-4.7,0.7-4.1-2.5-4.5-5.3c-0.2-1.6-0.4-3.5-2.8-3.5c-4.6,0-5-3.6-4.8-6.6c0.3-5.7-3.6-10.3-3.7-15.9c0-1-1.1-2.2-2.5-1.8     c-1.2,0.3-1.3,1.4-1.2,2.4c0.8,7.1,2.2,14,3.7,20.9c0.4,1.6,1.3,2.2,2.6,2.7c2.5,0.9,3.7,2.7,3.5,5.4c-0.1,1.9,0.3,3.6,2.5,4.4     c1.9,0.7,1.8,2.7,2.4,4.1c1.2,2.9,1.3,6.2,3.3,8.8c1.1,1.4,0.9,2.9-0.6,3.9c-1.8,1.2-3.1,0.2-4.3-1.1c-3.9-4.4-7.8-8.7-6.1-15.4     c0.3-1.1,0.1-3-0.9-3.1c-4.9-0.8-4-5.3-5.6-8.2c-1.5-2.7-2.5-5.2-5.5-7.1c-3.7-2.3-4.4-7.6-7.6-10.8c-0.3-0.3,0.1-1.8,0.6-2.2     c3.7-3.5-0.5-4.7-1.9-6.6c-0.7-0.9-1.8-0.6-2.6,0.2c-4.7,4.3-4.3,13.9,0.8,18.4c2.4,2.1,0.1,4.9,0.7,7.4c0.4,1.9-0.4,4.2,0,6.4     c1.2,0.5,1.4-0.6,2-1c1-0.7,1.2-2.9,2.9-2c1.3,0.7,0.6,2.3,0.4,3.7c-0.6,4.3-0.9,8.3,2.8,11.8c2.4,2.2,2.6,5.1-0.3,7.2     c-1.9,1.4-2.2,3-2.2,5.1c0.1,1.8,1.1,4.3-1.9,4.9c-2.4,0.4-2.9-1.6-3.6-3.3c-0.3-0.8-0.6-1.8-1.2-2.1c-1.7-0.8-3.8-2.2-5.4-1.8     c-1.9,0.4-0.4,2.9-0.7,4.4c-0.2,1.1,0,2.4-0.3,3.5c-0.5,1.9-2.6,2.1-4,2.6c-1.6,0.6-2-1.3-2.5-2.4c-1.3-2.8-1.6-5.2-0.6-8.8     c1.8-6.4,2-13.3,3.5-20c0.4-1.6,0.1-3.4-2-4c-0.2,0-0.4-0.1-0.4-0.3c-1.9-7.9-11.2-8.8-14.5-15.4c-0.6-1.3-0.9-2.4-0.9-3.8     c-0.1-2.8,2.2-6.2-2.6-7.9c-1.2-0.4,0-3.5,1.2-5.3c2.3-3.3,1.9-5.2-1.2-7.6c-2.1,1.5,3.2,4-0.6,5.2c-3.1,1-4.4-1.2-5.8-3.5     c-1.8-3-5-2.7-7.6-2.1c-2.9,0.7-0.6,3.8-1.6,5.6c-0.2,0.3,0.1,1,0.2,1.4c4.4-0.9,3.8,5.1,7.5,5.5c2,0.2,3.2,7.9,1.6,9.3     c-1,0.9-1.9,0.3-2.6-0.4c-1.4-1.2-3.3-2.3-3.8-3.9c-1.7-5.3-7.1-7.3-10-11.4c-0.9-1.3-2.1-1.4-3.5-0.7c-6.8,3.7-14.2,7.7-13.5,18     c0.1,1.3-0.4,2.9,0.9,3.7c1.8,1.1,2.1-1,2.9-1.8c2.9-2.5,5.7-0.5,5.6,1.8c-0.2,5.2,3.1,9.1,4.1,13.9c2-2.7,1.1-5.5,0.9-8.4     c-0.1-2-2.6-5,0.8-6.1c2.7-0.9,2.7,2.7,4.3,4.1c1.2-0.2,0.8-1.3,0.8-2c0.1-2.1,1-4.1,3-4c2.7,0.1,1.5,2.8,1.7,4.4     c0.2,2.1,0,4.3,0.1,6.5c0.1,3.2,0.5,6,4.5,6.6c1,0.2,1.9,1.2,2.8,2c1.1,1,1.5,3.5,3.7,1.7c1.6-1.3,2.1-3.1,1-4.9     c-2.2-3.7-3-7.8-4-12c9.4,1.7,10.4,8.6,10.9,15.8c0.1,1.6,0.4,2.8,2.1,3.6c2.1,0.9,2.5,3.2,2.6,5.1c0.2,2.6-0.8,5,3.4,5.7     c1.8,0.3,1.6,4.2,0.2,5.6c-1.8,1.8-4.5,1.5-6.8,0c-2.2-1.4-1.9-4.6-4.3-5.9c-0.9-0.5-0.9-2.8-2.9-1.3c-1.4,1.1-3.5,1.5-3,3.9     c0.1,0.5,0.5,1,0.5,1.4c-0.2,2.1,2.7,4.8-0.3,6.2c-2.8,1.3-3-2.4-4.6-3.5c-2.6-1.9-5.9-2.8-7.8-7.1c-0.5,2.5-1.6,3.2,0.5,4.9     c1.8,1.5,0.4,5.1,0.7,7.7c0.4,3.2-0.7,7.5,5.3,6.3c1.9-0.4,2.4,1.7,2.8,3.5c0.8,3.7,3.6,4.4,6.9,4.2c3.8-0.2,3.2-3.1,3.4-5.5     c0.1-1.9-0.6-4.7,2.2-4.8c2.2-0.1,2.2,2.4,2.6,4.2c0.7,3.5,4.1,6.5,2,10.6c5.6,0.6,1.8,6.7,5.2,8.8c1,0.6,1.5,2.6,1.6,4     c0.2,1.9,0.1,4.1-2.9,2.4c-3.4-1.9-4.8-0.7-5,3c-0.2,3.4-0.8,6.9-1.6,10.3c-0.6,2.6,2.2,2.9,2.8,5.8c0-3.1,1.9-3.8,3.2-5     c1.1-1,2.2-1.4,3.5-0.5c1.4,0.9,0.8,2,0.3,3.1c-1.2,2.8-0.9,5.4,1,7.9c0.6,0.8,0.8,2.2,0.8,3.3c-0.1,2.5,1.1,6.4-2.1,6.9     c-2.7,0.5-2.1-3.3-2.8-5.3c-0.9-2.8-2.9-4.8-5.2-6.5c-2.9,0.7-0.7,4.5-3.6,5.6c-1.6-3.2-0.7-6.5-0.9-9.6c-0.1-2.9-0.3-4.9-4.2-4     c-3.3,0.8-5-1.1-4.9-4.5c0.1-3.2,0-6.3,0-10.7c-1.8,3.2-0.8,7.2-5.6,7c-2.1-0.1,0.4,4.3-1.4,6.2c-1.6-0.8-0.4-3.2-2.3-3.6     c-1.4,4.1-0.6,5.6,3.1,7.2c6.2,2.7,10.2,7.4,11.5,14.1c0.2,1.1,1,1.3,1.6,1.5c0.9,0.4,0.8-0.6,1-1.2c0.4-2.2,2.2-1.8,2.6-0.5     c1.2,4.3,5.1,7.2,5.8,11.6c3.5-2.6,8.1-0.5,8.3,4.5c0.2,5.3,3.1,10.2,2.3,15.7c-0.5,3.7,3.1,5.2,4.9,7.5c2,2.6,1.8,4.3-0.1,6.5     c-1.6,1.8-3.3,3.6-4.6,5.7c-0.9,1.4-1.5,3.2-3.6,2.8c-2.3-0.5-3-2.6-3.3-4.5c-0.3-2.3-0.3-4.6-2.2-6.8c-2.3,3.1-4.8,3.7-7-0.1     c-5.7,3-2.8-3.6-6.6-5.2c3.3,4.8-3,7.1-0.6,11.5c0.7,1.3-1.1,1.1-1.9,1.5c-4,2.1-4.8,5.6-2.1,9.3c0.9,1.2,2,2.3,1.4,4     c-0.3,0.8-1,1.4-1.9,1.2c-1.8-0.4-2.8-1.7-3.2-3.5c-1-4.3-3.3-7-7.9-7.4c-1.3-0.1-2.3-1.4-2.8-2.6c-1.4-3.3-2.7-6.4-7-2.7     c-1.5,1.3-2.1-0.9-3.1-1.6c-0.9-0.6-1.8-1-2.7-0.1c-0.8,0.7-0.3,1.6,0.2,2.2c0.7,1,1.3,2.1,0.9,3.3c-0.6,1.8-0.2,4.8-2.1,5.1     c-2.9,0.4-1.8-2.8-2.7-4.4c-1.2-2,0.4-6.4-3-5.8c-2.2,0.4-0.9,4.3-0.5,6.6c0.5,3.4,1.8,6.8,1.4,10.3c-0.2,2.1-1.6,3.8-2.9,1.6     c-2.3-4-6-2.8-9.1-3.4c-3.1-0.7-4.9-1.2-4-5c0.4-2-0.4-4.2-0.7-6.4c-0.1-1.4-0.3-2.8-2.2-2.5c-2.4,0.3-3.1-1.4-3-3     c0.1-2.3,2.3-1.9,3.9-1.9c0.8,0,1.9-0.1,2.4,0.4c2.9,2.5,4.3-2,6.8-1.3c-0.2-2.7,1.1-5.6-0.8-8c-1.4-1.8-0.9-2.3,0.6-4.1     c3-3.5,6.8-6.9,6.3-12.4c-0.2-1.9-0.2-3-2.6-3.8c-3.1-1-7.1-2.2-6.5-7.2c0.2-2.1-2.1-2.8-3.3-4.1c-1.1-1.2-1.2-2.3-0.5-3.6     c0.8-1.5,1.7-1.7,3.2-0.8c2.4,1.4,3.3-0.1,3.6-2.3c0.6-4.2-1.4-7.1-5.8-8.3c-4.6-1.2-6.6-4.2-6.3-9.1c0.1-1.1-0.3-2.3-0.5-3.4     c-0.2-1.1-0.4-2.2-1.3-3.5c-0.7,6.3-5,11.5-4.6,18c0.1,2.4,1.3,4.5,3.9,4.2c3.5-0.5,3.8,1.8,4.2,4c0.5,2.3-0.2,4.7-2.6,5.3     c-2.3,0.6-3.8-1.4-5.4-2.9c-0.3-0.3-0.4-0.9-0.6-1.4c-0.5-1-0.6-2.6-2.2-1.8c-1,0.5-0.6,1.7-0.3,2.7c0.4,1.5,2.6,3.6-0.3,4.5     c-2,0.7-3.4-0.5-4.5-2.8c-1.4-2.9-2.8-5.7-2-9.5c-4.5,3.5-7.1,7.3-7.1,12.5c0,1.7-1,2.9-2.8,2.7c-1.8-0.2-1.5-1.9-1.7-3.1     c-0.4-2.6,0.8-4.9,0.9-7.4c0.1-1.9-0.5-4-2.4-4.6c-2.2-0.7-2.3,1.8-3.2,3.1c-1.1,1.5-1.2,4.5-3.7,4c-2.8-0.6-2.8-3.5-2.5-5.8     c0.5-4.1,1.5-8.1-0.8-12.1c-0.6-1.1-0.4-2.9,1.1-3.4c1.8-0.6,2.7,1,3.1,2.4c0.3,1.1,0.1,2.3,0.3,3.5c0.2,1.8-0.6,4.6,3,1.9     c1.9-1.5,2.3,3.5,5,2.4c-2.8-4.7-0.8-10,4.4-10c1.3,0,2.5,0.1,3.1,1.2c1.1,2.2,2.2,3.7,4.5,1.2c0.2-0.2,1,0,1.3,0.2     c0.7,0.8,0.1,1.5-0.3,2.2c-0.8,1.9-2.6,3.7-0.6,5.8c0.5,0.5,1.3,0.4,1.8-0.2c1.6-1.9,1.7-3.6,1.1-6.2c-1.3-5.6-1.6-11.4-1.6-17.2     c0-2.4,0.5-4.9,0.7-7.4c0.1-1.2-1.5-3.5,1.2-3.4c1.9,0.1,1,1.9,1.1,3.2c0.2,2.5-0.3,5.4,2.6,7.2c1.6-5.3,0.7-10.6,0.8-15.9     c0-0.8-0.5-1.8-0.2-2.4c0.8-1.8-0.1-5.2,2.9-5.1c2.8,0.1,4.2,2.3,4.5,5.5c0.3,3.2-2,6-0.5,9.5c1.5,3.5,2.7,7.2,5,10.4     c2.4,3.3,6.4,1.5,9.6,2.2c0.8,0.2,1.2-1.5,1.1-2.5c-0.3-3.1-0.6-6.3-1-9.4c-0.3-2.1-1.4-1.4-2.9-1.1c-6.8,1.4-9.4-1.4-7.7-7.9     c1-3.6,1-7.2-0.8-10.7c-0.5-1-1.1-2.1-1.4-3.2c-0.6-2.4,1.3-5.8-4.1-5.7c-5.2,0.1-7-4.6-7.3-9.3c-0.7,0-1-0.1-1.3,0     c-1.4,0.4-2.1,2.8-3.7,2c-1.5-0.8-0.8-2.7-0.8-4.1c0.1-1.8,0.6-3.6,0.8-5.4c0.1-1.4,0.7-3.1-0.9-4.1c-1.5-1-2.8,0-4,0.9     c-1.4,1-2.3,3.5-4.5,2.2c-2.4-1.4-0.8-3.5-0.3-5.3c0.7-2.2,0.3-4.4-1.3-6c-2.1-2-2-3.9-1-6.3c1.3-3.3,3.6-6.4,2.4-10.4     c-0.4-1.3,0.7-2.8,2.3-2.5c1.4,0.3,2.3,2,1.8,3.1c-1.1,2.6,0.5,4.9,0.2,7.3c-0.3,3.4,2.6,3,3.9,3.1c2.7,0.1,1.2-2.4,1.3-3.8     c0-0.6-0.5-1.2-0.6-1.9c-0.1-1.6-0.8-3.6,0.7-4.7c1.6-1.1,2.5,1.1,3.8,1.6c6.2,2.6,12,5.7,16,12.1c0.5-1.4,1.2-2.2,1.1-2.8     c-2.6-8.1-1.9-16.2-0.8-24.5c0.2-1.8,0.8-4.1-0.9-5.7c-0.6-0.5-1.5-0.4-1.7,0.3c-0.7,2.2-2,4.3-1.3,6.7c0.5,1.6,1.4,3,2,4.6     c0.9,2.4,0.5,5.3-1.8,5.8c-2.3,0.5-2.2-2.3-2.2-4.1c-0.1-1.9-0.4-2.9-2.9-2.7c-2.5,0.2-5.2-0.1-7.1-2.5c-1.5-1.9-4.2-2.9-0.3-5.5     c2.6-1.7,0.3-5.3,1-7.9c0.3-1.1-0.3-2.5,0.1-3.8c0.5-1.6,0.1-3.4-1.5-3.7c-2.2-0.4-1.3,1.7-1.5,2.8c-0.2,1.2-0.6,2.4-1.8,2.7     c-1.5,0.4-2.1-1-2.5-2c-1.6-3.8-6.3-4.2-8.1-7.9c-0.6-1.2-1.7-2.3-0.6-3.5c0.9-1.1,2.1-0.5,3.2,0.1c3.2,1.6,6,1.9,9-0.9     c3-2.7,6.3-0.8,6.6,4.2c0.2,3.4,1.2,5.2,4.7,5.4c-1.6-2.8-2.2-6.9,0.8-7.6c2.8-0.7,5.1,3.5,5.4,6.5c0.3,3.2,1.2,6.1,2.6,8.9     c1.3,2.6,3.6,4.2,6.5,3.4c3.3-0.9,5.6-0.7,5.6,4c0.5-4.5,2.4-8,1.3-12.2c-0.5-2.2-0.6-3.9-2.7-5.2c-2.7-1.7-3.2-4.5-2.6-7.5     c0.3-1.2,0.6-2.4-0.7-3.1c-1.3-0.7-2.5-0.2-3.7,0.6c-4,2.8-5.9,2.1-6.7-2.9c-0.4-2.6-1-3.9-3.8-4c-2.8-0.2-4.3-1.8-1.7-4.2     c2.5-2.3,0.7-4.4,0-6.4c-0.5-1.5-2.4-0.4-3.6-0.2c-3,0.3-2.1,2.8-2.3,4.7c-0.1,0.8,0,1.7-0.1,2.5c-0.1,0.8,0,1.8-1,2     c-1.1,0.3-1.3-0.7-1.6-1.4c-1.1-1.9-2.4-3.8-4-0.4c-2.8,5.9-3.1,5.9-9.2,2c-1.1-0.7-1.6-3-3.4-2.2c-2.2,1-2.7,3-2.8,5.4     c-0.2,5.5-1.3,10.9-1,16.4c0.1,2.4-1,3.7-3.5,4c-3,0.4-1.9-2-2.3-3.3c-0.5-1.6-0.7-3.2-0.8-4.9c-0.2-1.9-0.5-3.5-2.9-2.9     c-3.1,0.8-2.4-2.4-3.8-3.5c2.6-3,0.3-7.7,3.6-10.5c1.4-1.2,1.7-2.7,1.2-4.5c-0.2-0.8-0.4-1.8-0.1-2.5c3.7-6.7,0.9-13.3,0.1-20.1     c-0.4-3.4-4.8-5.1-2.8-9.3c-4.2,3.2-5.5,2.7-7.6-2.4c-2.3,2.6-5.1,0.9-7.2-3.3c-2.2-4.4-3-10.2-9.4-11.2     c-0.9-0.2-1.9-1.1-1.5-2.2c0.5-1.4,2.1-1.4,3-0.9c5.8,3,5.4-0.9,5.5-4.6c0.1-5.5,5.3-7.6,8.1-11.2c1.7-2.1,6.2,1.4,6.6,4.7     c0.3,2-1.6,5.7,1.5,5.7c2.7,0,0.2-3.4,0.7-5.2c1-4.1,2.3-8.1,0.4-12.4c-0.7-1.7,1-3.2,2.6-3.7c1.6-0.5,2.4,0.8,2.9,2.2     c0.4,1.2,0.7,2.5,1,3.8c0.6,2.7,1.8,4.3,4.9,2.8c1.2-0.6,2.6-1.3,3.5,0.3c0.7,1.2,0.8,2.8-0.1,3.8c-2.3,2.2-2.4,5-2.6,8.5     c-1.9-1.9-3.1-4.8-5.3-3.8c-2.2,1-2.1,3.9-2.5,6.2c-1,6.2,1.9,12,1.8,18.2c0,2.2-0.7,4.2-0.8,6.3c0,0.8-0.1,1.8,0.8,2.1     c1.3,0.4,1.9-0.7,2.1-1.6c0.5-1.8,0.5-3.7-0.1-5.4c-0.6-1.7-0.2-3.1,1-4.1c1.5-1.2,2.2,0.8,3.2,1.2c4.3,1.6,6.2,4.8,6.6,9     c0.3,3.2,2.7,2.8,4.7,3.3c3,0.7,2.6-1.8,3.4-3.2c1.6-3.2,1.2-6.4-0.2-9.5c-0.4-1-1.7-2-0.2-3c1.2-0.8,2.6-0.6,3.7,0.5     c0.5,0.5,0.8,1.1,1.3,1.5c0.9,0.7,1.9,1.7,3.1,0.9c1-0.6,0.9-1.8,0.6-2.7c-0.4-1.5,0.2-3.7-0.2-4.2c-4-4.5,2.2-7.9,0.9-12.1     c-1.4-4.3-2.1-8.7-1.1-13.3c0.1-0.6-0.2-1.8-0.3-1.8c-4.7,0.1-3.6-4.7-6.4-7.9c0.7,3.6,1.2,5.9,1.6,8.2c0.4,2,0,4.1-2.1,4.3     c-2.2,0.2-1.9-2.1-2.3-3.7c-1.4-5.8,0-11.5,0-17.3c0-1.8-0.3-4.3,2-4.5c2.3-0.2,4.4,1.4,5.4,3.7c0.5,1.2-0.1,2.9,0.6,3.9     c0.9,1.4-0.6,4.4,3,4.1c2.9-0.2,5.4-0.4,5.9-3.8c0.3-1.8,0.1-4.2,2.7-3.8c2.3,0.3,1.9,2.7,2,4.5c0.3,4.7,0.5,9.5,0.8,14.4     c0.5-2,1-4.1,1.7-6c0.7-2.2,2.5-3.3,4.6-3c2,0.3,2.1,2.4,1.9,4.1c-0.3,2.3,0.3,4.6,0.5,6.9c0.2,1.8,1.5,1.8,2.5,1.8     c1.6,0.1,1-1.1,0.8-2.1c-0.4-2.3,0.9-3.8,2.9-3.7c1.8,0.2,2.1,2,1.9,3.9c-0.3,2.6,0.3,4.7-3.8,5.5c-3.4,0.7-1.4,4.9-1.5,8.5     c3.1-2.7,3.3-6.7,6.5-8.3c1.6-0.8,2.9-2.8,4.7-2.2c2.1,0.7,1.3,3.1,1.4,4.9c0.1,2,0,4,0.2,6c0.1,0.7,0.7,1.7,1.3,1.9     c0.9,0.3,1.4-0.7,1.8-1.4c0.3-0.6,0.7-1.1,1-1.7c0.7-1.5,1.9-1.8,3.3-1c1.3,0.8,0.8,1.9,0.4,3.1c-3.1,11.2-3.9,22.6-2.1,34.2     c0.5,3.1,0.4,6.3,1,9.4c0.4,1.9,0.9,3.9,2.2,4.9c5.1,3.8,6.2,10,9.4,14.9c1.4,2.2,3.3,2.5,5,0.3c1.1-1.5,2.7-1.3,4-1.7     c2.7-0.8,5.7-0.6,6.8-4.4c0.6-2.1,2.8-2.2,3.7,0.5c0.4,1.4,1,2.9,1,4.3c0,2.6,0.8,4.1,3.7,4c4-0.2,4.9,2.4,4,5.6     c-0.7,2.3-0.6,4.2,1,6c0.6,0.7-0.3,2.9,1.9,1.8c1.2-0.6,2.7-0.9,2.6-2.6c-0.5-6.5,1.8-13.2-2-19.4c-2-3.3-2.6-7.4-5.9-10.1     c-3-2.5-5.1-6.2-9.5-6.6c-2.1-0.2-1.6-2-1.4-3.1c1-5.6-2.7-10.9-1.3-16.6c0.4-1.7-0.2-4.1-3.7-3.8c-3.6,0.3-6.1-1.9-6-5.7     c0.1-3.4-3.4-5.2-3.3-8.7c0-2.5-1.4-5.3,1.5-6.5C380.7,499.7,380.2,504,382.6,506.3z M344.5,526.3c-1.2,3.1-2,5.1-4.2,3.1     c-1.7-1.6-2.8-0.2-2.8,1c0,3.1-2.1,5.5-2.5,8.5c-0.3,2.7,0.9,5.6,2.7,5.6c6.8,0.3,5.9,4,4.7,8.4c-0.3,1,0.3,2.3,0.4,3.4     c0.5,3.9,3.3,7,4,10.6c0.7,3.5,1.3,6.4,5.2,7.5l6,3.7c4.6-0.7,4,1.9,3.5,5c-0.5,2.9-1.3,6,1.4,9.4c0.7-2.6,1-4.6,1.8-6.4     c1-2,2.2-4,4.6-0.9c1.9,2.5,4.2,1.8,5.4-1.3c1.4-3.9-2.8-13.3-6.6-12.9c-4.6,0.5-4.2-1.9-4.9-4.7c-0.5-1.9-1.2-4.7-3.7-4.6     c-3,0-3.1,0.5-3-2.6c0-3.2-0.3-5.6-4.7-4.9c-2.5,0.4-2.3-1.9-2.3-3.5c0-2.8,0.3-5.9-1.2-8.3C345.6,538,344.6,533.1,344.5,526.3z      M439,410.9c-0.9,2.8,1.6,4.9,0.8,7.3c-2.3,7.3-1.6,14.5,0.4,21.8c1.6,5.8,1.7,12,4,17.7c0.5,1.3,1,2.1,2.3,2     c2.4,0,0.9-1.7,1-2.5c0.2-6.2-2.6-12-1.8-18.4c0.7-5.2-1.9-10.2-1.6-15.6C444.5,418.8,443.3,414.2,439,410.9z M403.7,769.9     c-2.3-0.8-2.1-2.5-2-4.1c0.1-1.6,0.5-3.3,0.8-4.9c0.8-4.7-1.9-12.6-4.8-13.2c-5.6-1.2-9.2-4-9.6-10.1c0-0.5-0.5-1.3-1.7-0.8     c0.7,3-3.1,6.8,0.4,9.1c2.7,1.7,2.5,3.5,2.4,5.6c-0.1,2.1-0.5,4.1-0.7,6.3c6.3-1.8,6.6-1.6,9.9,4.2c1.2,2.2,2.4,4.3,2.9,6.8     C401.5,769.9,401.8,770.8,403.7,769.9z M329.3,497.5c0.8,3.4-0.9,4.7-3.7,5.4c-1.1,0.3-2.2,1.2-0.6,2.5c1,0.8,1.3,1.9,1.2,3.1     c-0.7,8.9,0.9,17.8,1.1,26.7c0,1.6-0.5,3.4,1.5,4.5c1.6-1.9,2-4.2,2.1-6.4c0.2-3.8,4.1-7.8-0.6-11.4c-0.7-0.6-0.1-1.5,0.3-2.3     c0.7-1.5,1.4-0.6,2.3-0.1c0.8,0.4,2,1,2.6-0.2c0.5-1.2-0.3-1.7-1.5-1.9c-1.8-0.4-2.2-1.8-2.3-3.4     C331.2,508.5,328.6,503.4,329.3,497.5z M454.2,635.8c1-2.7,5.8-4.1,2.7-8.1c-0.2-0.3,0.3-1.6,0.8-2.2c2.2-2.6,1.6-5.1-0.3-7.4     c-0.8-1-1.2-2.5-0.6-3.2c3.3-4.3,0.1-6.7-2.4-9.5C455.5,615.6,452.7,625.6,454.2,635.8z M513.1,470.3c-1.4,0.3-2.5,0.8-2.4,2.6     c0.3,3.4,0.4,6.9,0.7,10.3c0.1,1.5,1.1,2.4,2.6,2.4c1.6-0.1,2.3-1.1,2.5-2.6c0.2-1.5-0.2-3.1,1.8-4.3c2.2-1.3,2.1-1.8-0.4-2.9     c-1.5-0.6-1-1.9-1.5-2.8C515.6,471.8,514.9,470.5,513.1,470.3z M474.4,576.6c0,1.4,0,2.5,0,3.7c0.1,2.8,1.4,5.3,4,5.4     c3,0,2.1-3.1,2.3-5.1c0.1-1.1,0.1-2.3,0-3.5c-0.2-2.7-1.3-5-4.2-5C472.6,572,474.9,575.1,474.4,576.6z"
   id="path215875"
   style="fill:#00bfff" />
			<path
   fill="#FF0000"
   d="M714,728.2c1.8,2.8,2.3,5.1-2.1,5.3c-2.5,0.1-3.3,1.4-3.6,3.8c-0.3,2.3,0.8,6.8-4.5,4.1     c-0.3-0.1-2.4,0.8-2.5,2.6c-0.1,1.1-0.4,2.3-0.8,3.4c-0.6,1.8,0.8,5.1-1.4,5.1c-2.8,0-7,3.3-8.9-2.4c-0.6-1.8-3.1-4-6.5-1.4     c-1.5,1.1-5.8,0.7-7-1.3c-1.9-3.2-3.3-0.3-4.7-0.2c-1.8,0.1-1.6,2.1-1.2,3.6c0.6,2.4,1.2,4.8,1.5,7.2c0.3,2.1,0,4,3.3,3.4     c1.9-0.4,1.7,1.6,1.6,2.9c0,1.3-0.8,2.6-2.1,1.6c-2-1.5-3.2,0.7-4.8,1c-0.6-3.5-1-6.6-1.6-9.7c-0.2-1-0.6-2.6-1.1-2.6     c-5.5-0.7-4.7-5.4-5.6-8.9c-0.7-2.5-3-1.5-4.5-2.3c-1.1-0.6-1.5,1.3-2,2.3c-3.8,7.9-3.8,8-12.8,7.3c-2.6-0.2-3.2,1.2-3.2,3.2     c0,2.8,0,5.5,0,9.3c-3.5-2.9-3.1-5.8-3.2-8.4c0-0.9,0.7-2.5-0.1-2.7c-5.5-1.6-3.3-5.9-3.6-9.4c-0.2-2-0.3-4.4-3.6-3.5     c-2.7,0.8-4.3-1-5.5-3.3c0,2,0,3.7,0,5.3c0,2.1,0.1,5.2-2.3,5.3c-2.2,0.1-3-3-3.2-5c-0.7-7.3-1.3-14.6-3-21.7     c-0.2-0.7,0.2-1.6,0.4-2.4c1.8-6.8,2.8-13.6,2.4-20.7c-0.1-1.4-0.7-4,2-3.4c2.1,0.4,5.6-0.6,5.4,3.5c-0.1,2-0.7,3.9-0.8,5.9     c-0.3,7,1.8,13.9,1.2,21.1c2.8-3.3,3.6-7.3,3.7-12.2c2.9,3.1,2.3,6.1,1.7,8.5c-1.4,5.8,3.7,6.3,6.5,7.8c2.5,1.4,3.2-2.6,4.5-4.3     c1.1-1.5,1.4-3.7,2.1-5.5c0.4-1.1,1.1-2.2,2.6-1.9c1.5,0.3,1.5,1.6,1.5,2.8c0.4,5.1,0.7,10.2,1.1,15.3c0.1,1.5,0,3.4,2.3,2.9     c1.8-0.3,2.5-1.3,2.3-3.6c-0.5-5.1-1.6-10.2,1.3-15.4c1.3-2.4,1.5-6.5-1.8-9.6c-1.7-1.6-2-5.1-1-8c0.8-2.2,0.9-4.5-1.6-6     c-1.9,1.1-2.2,3.2-3.1,4.9c-1,1.9-2.2,2.9-4.3,2c-2.9-1.2-4.2-0.5-4.3,2.9c0,2.2-1,4.4-1.6,6.7c-3.8-3.2-7.1-6.3-10-9.7     c-0.8-0.9-0.9-1.7-0.8-2.7c0.2-5.9,5-9,9-11.2c5.9-3.2,9.6-7.4,8.8-13.4c-0.2-1.3-0.6-2.6-1.6-3.5c-1,1.7-3.5-1-4.3,1.5     c-0.2,0.5-0.9,1-1.5,1.2c-1.5,0.7-3.1,3.1-4.7,1.1c-1.7-2,0.6-3.1,2-4.2c4.1-3.2,1.6-8.1,2.9-12.1c0.3-0.8-0.9-1.3-2.2-0.7     c-2.7,1.4-6,2.2-6.8,5.8c-0.3,1.1-0.9,2.2-2,1.6c-5.4-3.3-4,1.8-4.9,3.9c-0.2,0.6-0.1,1.3-0.1,2c-0.1,2.3-1,4.3-2.7,5.7     c-0.8,0.6-2.1-0.6-2.3-1.4c-0.6-2.5-3.7-4.4-1.3-7.7c4-5.6,2.9-11.9,1.3-18c-0.3-1.1-1.5-2.1-2.7-1c-2.6,2.3-6.1,4-7.2,7.6     c-0.7,2.2-2,2.1-3.8,2.3c-6.5,0.6-11.8-2.2-17.2-5.2c-3.9-2.2-3.9-7-6.7-10.2c-3,2-2.3,5-2.5,7.7c-0.1,1.5,0.4,3.9-2,3.8     c-2.1-0.1-3-2.1-2.3-4.1c1-3.2,0.2-6.2-0.1-9.3c-0.4-4-2.7-8.2,0.2-12.3c0.9-1.3,0-2.5-0.9-3.5c-4.9,3.5-6.2,8.3-6,13.9     c0.1,1.8,0,4.3-2.2,4.2c-2-0.1-1.2-2.7-1.4-4.2c-1.4-7.9-0.2-15.3,3.2-22.5c1.1-2.2,1.4-4.8,4.8-5c1,0,2.3-0.6,1.1-2.3     c-3.8-5.7-3.2-11.3,0.8-16.8c2.7-3.7,4.5-7.5,4.2-12.4c-0.4-6.5,0.9-12.9,1.2-19.4c0.1-4.2,3.5-7.6,5.8-11.2     c0.5-0.8,1.4-1.5,2.6-1.1c1.1,0.5,0.9,1.6,1,2.6c0.5,4.2-1.2,8.1-0.8,12.4c0.6,6.5-1.1,13.2,1.6,19.6c0.4,1-0.1,2.9-0.9,3.7     c-3.6,3.7-1.2,7.1-0.1,10.9c5.7-3.6,6.4-9.2,7.5-14.6c0.2-1,0-2,0.3-3c0.4-1.4,0.8-3.1,2.5-3.5c1-0.2,1.6,0.9,2.1,1.8     c0.8,1.4,2.6,2.7,0.7,4.3c-1.8,1.5-1.8,3.4-2,5.4c-0.2,1.7-1.7,3.6,0.2,5.1c2.1,1.6,4.5,0.5,6.7,0.2c2.5-0.4,0.5-2.1,0.6-3.1     c0.2-3.2-1.7-7.6,4.9-7.4c-3.2-4.1-2-6.4,2.5-7.7c2.7-0.8,3.8-2.9,4.3-5.9c1-6,4.3-11.8,3.2-18c-0.8-4.3-1.9-8.8-0.8-12.9     c2.3-8.1,2.2-17.1,10.9-22.9c4.6-3.1,4.7-10.4,3.7-16.2c-0.5-2.7-0.7-4.3,2.1-5.6c3-1.5,1.6-4.7,2.3-7.2c1.5-5.3,0.4-10.6,1-15.9     c0.2-1.5-0.4-3-2.4-3.1c-2.7-0.1-1.1,1.7-1.2,2.7c-0.3,2.2-0.5,4.5-2.4,6.8c-2-3.2-1.2-6.4-1.1-9.3c0.1-2.8-1.6-6.6,3-7.9     c1-0.3,0.9-1.3,0.5-2.1c-1-2.4-0.6-4.9-0.6-7.4c0.1-3.3-1.7-4.9-4.6-5.6c-2.9-0.6-3.5,1.6-4.3,3.7c-0.4,1.1-0.2,2.8-2,3.1     c-2.2-5.6,1.9-13.9,7.4-14.9c1.6-0.3,1.9,1,2.4,2c3.5,6.7,8.3,13,5.8,21.3c-1.7,5.5,3.9,7.7,5.5,11.8c0.7,1.8,2.5,3.2,3,5.5     c2.9-2.2,3.5-4.9,3.8-7.7c0.2-1.9,0.5-3.6,1.5-5.2c1.1-1.6,2.6-3.2,4.5-2.1c2.1,1.2-0.2,2.5-0.6,3.7c-1.4,4.4-0.5,8.9-0.6,13.4     c0,0.8,0.3,1.7,1.4,1.7c1.7,0,2.9-1.1,3.6-2.4c2.8-5,6.6-9.6,5.2-16c-0.5-2.3-0.3-3.5,2.9-3c2.2,0.4,5.8,0,4.7-4.3     c-0.3-1.4,0.9-2.7,1.7-2.7c5.1,0.5,3.5-3.1,3.7-5.6c0.1-1.3-0.1-2.7,0.3-4c0.8-2.3,3-2.9,4.9-2.3c2.1,0.7,1.7,2.7,0.4,4.1     c-1.7,1.7-1.2,3.9-1.2,5.7c0.1,3.9-0.3,7.3-4.2,9.1c-1,0.5-1,1.4-0.6,2.1c2.1,3.9-0.9,9.1,3.6,12.6c1.7,1.3,0.1,4.2-0.9,6     c-0.7,1.2-1.7,0.8-2.1-0.4c-0.8-2.3-1.6-4.7-2.1-7.1c-0.6-2.6-1.6-4.8-3.9-6c-2.1-1-4.4-2.6-4.7,2.3c-0.2,4.3-1.9,8.7-3.6,12.7     c-1.4,3.4-1,6.9-1.5,10.3c-0.3,2.1,1.2,4.8,3.7,4.3c3.3-0.6,5.9-3,5.9-6.7c0-1-0.7-2-0.2-3.2c0.8-1.6,1.9-3.2,3.7-2.7     c1.9,0.5,1.1,2.4,0.6,3.7c-2.4,6.1-0.6,13.7-7,18.2c-0.9,0.6-0.5,1.5,0.2,2.1c0.6,0.4,1,0.8,0.9,1.6c-0.2,1.5-9.6,11.3-11.1,11.7     c-1,0.2-2.1,0.4-2.7-0.6c-0.7-1.3,0.1-2.1,1.2-2.9c2.4-1.7,5-2.7,3.7-7c-0.7-2,1.3-5,3.6-6.7c1-0.7,2.4-1.5,1.4-2.7     c-0.8-1.1-2.5-1.5-4-0.9c-5.2,2.3-6.8,1.6-8.3-4c-0.4-1.4-1-2.4-1.9-3.4c-1.9-2.1-2.8-2.1-3.9,0.9c-2.3,6.3-6.6,11.8-6.7,18.9     c-5,1.7-2.6,6.6-4,9.8c-1.8,3.9-1.6,8.4-2.4,12.6c-0.4,2.1-0.8,4.2-3.2,6.8c5.5-1.7,9.8-2.7,13.6-5.7c1.4,1.4,1.3,2.8,0.4,4.1     c-2,2.8-4.4,5.5-2.6,9.4c0.4,0.9-0.6,2.3-1.6,1.9c-5.7-2.4-4.6,3.8-4.4,4.7c1.2,4.4-1.4,6.8-4,9c-2.2,1.9-2.7,3.9-2.8,6.5     c-0.2,3.5,0.2,7.3-3.9,9.4c-1.4,0.7-2.2,3,0.6,3.5c2.3,0.5,3.3,1.8,2.8,3.8c-0.5,2.2-2.5,1.1-3.8,0.8c-5.1-1.2-2.8,3.4-3.7,5.2     c-1.1,2.2,2.1,7.2-4.2,5.3c-0.2-0.1-0.6,0.2-0.9,0.4c-7.1,5.3-8.8,4.9-11.5-2.9c-3.6,5.7-3.6,5.7-7,0.7c-2,1.3-1.4,3-1,4.8     c0.4,1.5,1.6,3.9-1.8,2.1c-0.7-0.4-0.9,0-0.6,0.4c1.9,2.4-0.3,5.9,2.1,8c4.2,3.7,1.3,7.6,1.4,11.4c-3.1,0.2-1.3-4.1-4-3.2     c-2.4,0.8-1.9,3-1.8,5.1c0.1,1.6-0.6,3.2-0.7,4.9c-0.2,1.9,0,3.8,2.4,4.3c1.9,0.4,3.9,0.2,4.7-1.8c1.7-4.2,5.3-7.3,6.3-11.8     c0.3-1.2,0.6-3,2.3-2.7c4.1,0.7,6.4-1.9,8.9-4.4c1.6-1.7,3.4-2.8,6.2-1.2c3.1,1.7,4.9,0.6,3.8-3.3c-0.2-0.8-0.2-1.7-0.1-2.5     c0.3-1.5,1.3-2.4,2.9-2.1c1.6,0.3,1.5,1.6,1.4,2.8c-0.3,2.3-0.4,4.7-1.2,6.8c-0.7,1.9-0.1,3.1,1.3,3.7c1.6,0.6,2.2-1,2.8-2.2     c0.1-0.3,0.4-0.6,0.4-0.9c0.2-5.6,2-5,5.5-1.9c1.8,1.6,3.4,2,0,3.2c-0.5,0.2-1.4,1-1.3,1.3c0.8,2,1.1,4.9,2,5.8     c4.2,4.4,4.5,4.1,3.2,11.7c-6.3-2.4-6.5-2-7.8,13.9c2.7-2.3,6.1-2.9,6.8-6.8c0.3-2,1.8-3,3.6-3.7c4.3-1.7,5.9-4.6,4.8-9.5     c-0.9-4,0-8.4-5-10.7c-1.3-0.6-2-3.5-1.4-5.5c0.8-2.6,0.5-5.3,0.8-7.9c0.3-2.6,0-6.3,4.7-4.6c1.1,0.4,1.8-0.4,1.8-1.1     c-0.2-2-0.5-3.9-1.2-5.8c-0.3-1-1.6-1.3-2.6-0.6c-1.1,0.6-2.1,1.5-3.4,2.5c-0.5-6-1-11.5-1.3-17.1c-0.1-2-1.1-5,1.2-5.9     c2.7-1,5.7,0.7,7.6,2.6c2.1,2.2,4,4.7,2.4,8.7c-1.4,3.5-1.8,8,2.9,10.4c0.9,0.5,1.6,1.5,1.3,2.5c-1,3.3,0.6,5.3,3.2,7     c1.3,0.8,1.8,2.1,1.4,3.9c-0.5,2.1-0.5,4.3-0.3,6.4c0.2,2.4,1.8,4.6-1.8,6.1c-1.5,0.6-1.8,15-0.8,16.5c0.6,1,1,1.1,2.2,0.1     c3.3-2.6,5.8-6.5,10.2-7.8c1.4-0.4,0.4-1.5,0.4-2.4c0.2-6-1.9-11.9-0.5-17.9c0.6-2.4-0.9-4.8-3.7-4.9c-3.7-0.2-3.7-2.3-3.6-5.1     c0.1-2.6,1-6-3.4-6.3c-1.3-0.1-1.2-1.2-1.2-2.3c-0.1-3.1-0.4-6.3-0.8-9.4c-0.3-2.9,0.4-6.8-4.9-5.4c-0.5,0.1-1.4-0.4-1.1-1.2     c0.2-0.5,0.7-1.1,1.3-1.3c3.1-1.2,6.8,0.4,10-1.8c0.4-0.3,1.8,2.7,1.6,4.6c-0.2,1.3-1.8,2-1.5,4.1c1.9-2.5,4.2-2.6,6.4-1.1     c1.8,1.3,2.2,3.2,1.2,5.3c-0.5,1-0.8,2.4,0.5,2.4c1.4,0.1,2.9-0.8,4.3-1.3c0.1,0-0.2-0.7,0-0.9c1.3-1.8,1.7-4.9,4.5-4.7     c3.3,0.2,1,3.7,2.4,5.1c0.2-0.2,0.6-0.3,0.7-0.5c1.1-2.4-3-6.4,3.1-7.4c2.6-0.4,4.2-4.2,4.8-7.7c0.6-3.5,1.7-7,6-8.4     c4.6-1.6,7.3,0,6.7,4.7c-0.5,3.5-0.3,5.3,4,3.8c3.7-1.3,3,1.9,3.2,3.9c0.4,5.6,0.6,5.9,5.5,3.5c3.6-1.7,4.1,0.2,4.8,3.1     c0.4,1.4-0.2,3.8,2.1,4.1c1.7,0.2,2.4-1.5,3.2-2.8c0.3-0.4,0.6-1,1-1c8.9-1.5,10.4-9,12.8-15.8c0.4-1.1,1.1-1.9,2.1-1.7     c5.7,1,8.3-4,12.3-6.2c0.8-0.5,1.9-1.4,1.9-2.2c0.3-4.6,3.1-5.3,6.8-4.7c1.9,0.3,2.6-0.6,2.8-2.5c0.2-2.1,0.7-4.2,1.2-6.3     c0.3-1.2,1.2-2,2.6-1.9c1.6,0.1,1.8,1.4,1.7,2.5c-0.1,4.3,0.5,8.6,1,12.9c0.3,2.7,0.1,5.3,1.8,7.6c0.6,0.9,1,1.9-0.1,2.6     c-1.6,0.9-1.9-0.4-2.4-1.5c-1.1-2.4-2.4-4.7-3.8-7.3c-0.8,1.4-2.6,1.5-3,3.5c-1.5,7.7-1.6,7.7-8.8,4.7c-1.1,2.9-0.8,5.9-0.5,8.7     c0.8,6.4-2.8,10.6-6.8,14.6c-1.2,1.3-1.8,5.9-5.2,1.8c-0.4-0.4-2.1,0.3-2.9,1.4c-3.2,4-4.1,3.8-6.2-0.9c-0.3-0.7-0.8-1.4-1.4-2.4     c-3.5,4-1.5,8-0.8,11.9c0.2,0.9,1,1.8,1.1,2.7c0.6,4,2.5,3.5,4.6,1.3c1.2-1.2,2.3-3.1,4-1.9c1.9,1.3-0.2,2.9-0.6,4.3     c-0.3,0.9-0.7,2.1-1.5,2.6c-4.4,2.6-2.6,5.7-0.8,8.8c1.1,1.8,2,2.8-0.5,4.8c-2.4,1.9-0.6,6-2,8.8c-0.4,0.8,0,2.1-1.8,2.4     c-0.3-2.5-0.7-4.9-0.9-7.4c-0.1-1.4-0.5-2.2-2.1-2.1c-1.4,0.1-2.2,0.7-2.1,2.2c0.1,5.2,0,10.4,3.1,15c-1-3.7,0.7-6.1,4.9-6     c2.3,0.1,3.4-0.1,3.3-2.8c-0.1-1.6,0.5-2.7,2.8-1.9c2.6,1,4.6-1.3,6.7-2.5c1.2-0.7,2.3-2.2,3.9-0.8c1.2,1,0.9,2.3,0.8,3.7     c-0.6,6.1-3.6,11.8-2.9,18.1c0.1,1.1,0,2.5-1.7,2.6c-1.3,0.1-1.6-0.9-1.9-1.8c-1-2.5-3.3-4.2-2.7-7.7c0.5-2.8-2.8-1.8-4.2-2.8     c-1.7,3.2,0.8,7.3-2.6,9.1c-1,0.5-5.3,2.3-4.4-2.7c-1.6,0.7-1.3,1.8-1.4,2.8c-0.2,1.6-0.7,3.6-2.5,2.9c-2-0.7,0-2.1,0.3-3.2     c0.4-1.1,0.8-2.2-1-3.4c-0.1,5.5-4,4.9-7.6,5c-1.2,0-2.4,0.2-2.7-1.4c-0.3-1.4-0.1-2.5,1.6-3.1c4.4-1.8,6.7-4.4,4.6-9.7     c-0.9-2.2,0.4-5.2,0.6-7.8c0.1-1.8,0-3.6,0-5.3c-2.3-0.4-2.8,2.8-4.7,1.6c-2.2-1.3-0.6-3.3-0.4-5c0.1-1,0.3-2.2-0.1-3     c-1.5-2.8-2-4.7,2.3-5.2c2.3-0.3,1.9-2.8,1.9-4.6c0-1.2-0.1-2.3,0-3.5c0.2-2.6,0-5.7-3-5.9c-2.9-0.2-2,3.1-2.5,5     c-0.2,0.6-0.3,1.3-1.6,1.3c-1.4-1.2-0.6-3.2-1-4.8c-0.3-1.3-0.4-2.8-2.2-2.9c-1.4,0-2.6,0.7-3,2.2c-0.8,2.7-1.1,5.5-2.1,8.1     c-1.5,3.7,1.5,4.4,3.3,6.1c1.6,1.5,0.8,3.6-0.5,5c-1.8,1.9-2.9-0.4-3.4-1.3c-0.9-1.4-0.6-2.5-2.6-0.7c-1.8,1.6-4.7,2.1-7.2,3     c-4.7,1.6-6.8,5-5.9,9.7c0.2,1.3,0.4,2.6,0.3,3.9c-0.2,4.5,2.1,6.8,6.5,5.8c3.8-0.9,4.2,0.5,2.9,3.5c-0.2,0.5-0.8,1-0.7,1.3     c2.3,4.1,4.1,8.8,7.3,12.1c2.1,2.1,2.8,3.8,0.8,5c-5,2.9-5.7,7.8-7.1,12.5c-0.3,0-0.7,0-0.9-0.1c-1.2-1.2-0.9-4.1-3.3-3.8     c-2,0.3-1.2,2.8-1.9,4.3c-0.7,1.5-1,3.2-1.3,4.8c-0.6,3.9,1.2,5.1,4.8,4c2.5-0.8,5.1-1,7.7-1.4c3.9-0.5,2.6,2.2,2,4.6     c2.7-0.6,4.9-2.6,7.7-0.7c1.3,0.9,1.7-1.4,1.7-2.5c0.4-5.5,2.3-10.6,4.1-15.7c0.6-1.8,0.9-4.3,3.9-2c1.8,1.4,3-1.3,4.9-0.8     c-0.5-2.5-3.6-3.5-2.4-6.1c0.2-0.5,1.2-1.2,1.5-1c2.2,1.1,3.1,3.3,3.9,5.5c1.8,5.1,2.3,10.2-0.5,15.1c-1.4,2.4-0.2,4.9-0.6,7.3     c-0.2,0.9,0,2.2-1.3,2.3c-1.4,0.2-2.1-1-2.2-2.2c-0.1-4.2-1.5-8.4-0.1-12.7c-9.2,7.1-7.9,17.3-8.5,26.8c0.6,0.4,0.9,0.7,1.1,0.7     c8.3-1.7,12.8,1.3,13.8,10.3c0.4,3.7,0.9,7.7-0.5,11.5c-1.5,4.1,1.4,7.7,2.4,11.4c0.7,2.4,0.7,3.9-0.4,5.9c-1.8,3-2.4,6.2,0,9.3     c1.7,2.2,1.6,4.4,0.9,7c-0.5,2.1-0.8,4.1-3.3,4.2c-2.7,0.1-2.8-2.6-3.2-4.4c-0.8-3.1,0.6-6.2,1-9.3c1-6.3-0.9-8.7-7-7.5     c-1.7,0.3-2-0.3-2.4-1.6c-0.9-3.2-0.6-5.7,1-6c2.9-0.6,3-2.3,2.4-5.6c-1.9,3-3,6.8-6.6,2.9c-0.6-0.7-1,0.3-1.2,0.9     c-0.2,0.4-0.5,0.9-0.7,1.3c-3.2-4.4-8.2,2.5-11.4-1.8c0.9-3.5,1.2-7.4,2.9-10.5c2.4-4.2,1-8,0.3-11.9c-0.4-2.6-3.8-3.8-5.5-2.9     c-4.7,2.3-5.1-0.4-5.3-3.8c-0.2-2.1-0.7-4.9-3.1-4.2c-6.4,1.8-5-1.2-4.1-5.1c1.3-5.4-0.3-8.6-4.1-8.6c-2.1,0-3-0.7-3-2.3     c0-1.7,1.8-2.9,3.1-2.5c2.8,1,3.5-1,3.7-2.6c0.5-4,1.9-7.9,1-12.2c-0.7-3.3-3-5.8-3.3-9.1c-0.3,2.7-1.6,5.3-0.6,8.2     c0.6,1.6-0.2,3.7-1.8,4.2c-1.8,0.6-1.7-1.6-2.3-2.6c-1.6-2.8-3.4-5.2-7.3-4.8c0.8,7.3,1.9,14.5-2.5,21.1c-1.7,2.6-3.8,5-4.3,8.3     c-0.1,0.4-1.2,1.2-1.5,1c-3.7-1.6-3.9,1.7-5,3.5c-0.6,1,0,3.1-2.1,2.5c-1.5-0.4-1.7-1.9-1.7-3.3c0-1.5-0.1-3,0.2-4.5     c1.4-8.1,2.1-16-1.5-23.8c-2,0.6-0.3,3.9-2.3,3.8c-7.5-0.4-6.1,5.3-7,9.5c-0.4,1.8-0.4,3.4,1.5,4.2c1.4,0.6,2.8,1.5,4.4-0.3     c2.1-2.3,3.1-0.9,3.2,1.6c0,1.1-0.2,2.4-0.6,3.4c-1.9,3.9-2.3,7.4,0.1,11.5c2.8,4.7-3.1,7.4-4.1,11.4c-0.5,1.9-2.5-1.4-4.9-1.3     c1.4,1.6-0.8,4.7,2,4.3c3.2-0.4,2.9,0.1,2.2,2.6c-0.5,1.8,0.3,3.9,0.7,6.7c2-5.5,6.9-9.1,11.7-9.2c1.2,0,1.9,0,1.8-1.5     c-0.2-5.3,1.6-9.4,6.7-11.7c0.8-0.4,1.3-1.5,1.8-2.3c0.5-0.9,0.7-2,2.1-1.5c1,0.4,1.8,1.2,1.5,2.3c-0.5,2.2,0,3.4,2.1,4.8     c0.8,0.6,6.7,5.1-0.7,6.6c-1.7,0.4-2.3,2.3-2.2,4.1c0,2.4,0,4.9,0,7.6c1-0.4,1.5-0.4,1.8-0.7c2.8-2.4,6.2-1.8,8.8-0.7     c2.6,1.1,1,4.4,1.1,6.8c0,0.5,0.1,1,0,1.5c0,1,0.2,2.2-1.3,2.2c-1.1,0-1.1-1.1-1.2-1.9c-0.2-0.9-0.2-1.9-1.3-2.1     c0,1.4-0.1,2.7,0,4c0.3,2.5-1.2,6.3,2.2,6.8c1.6,0.2,1.5-3.8,2-5.9c0.5-2,0.6-4.2,3.6-3.4c3.8,1,5.2-0.9,5.6-4.3     c0.2-1.3,0.7-2.5,1.3-3.7c0.5-1,0.9-2.2,2.4-2.3c1.6,0,2.4,0.9,3,2.2c0.9,1.9,1.2,3.4-0.4,5.4C713.2,723.8,710.3,726.4,714,728.2     z M698.7,577.7c0.5,3,1.2,6.1,1.5,9.1c0.2,1.7,0.8,4-1,5.1c-2.7,1.8-2.2-2.9-4.9-2.5c1.1,6.7-2.7,8.1-8.6,6.7     c1.4,4.6-0.3,8.9,1.6,13.2c0.7,1.5,0,3.2,2.5,3.5c2.4,0.3,3.8-0.7,4.4-3c0.6-2.1,1.1-4.2,1.8-6.2c0.3-0.8,0.6-2.1,1.9-1.9     c0.9,0.1,1.1,1.1,1.4,1.9c1.2,3.1,4.3,3.5,6.3,0.8c1.2-1.6,1.8-3.5,1.3-5.6c-0.2-1-0.3-2.1,0.9-2.5c1-0.4,2-0.2,2.3,1.1     c0.9,3.3,2.4,0.6,3.1,0.1c2.2-1.7,1.9-10-0.6-10.8c-5.3-1.6-5.6-5.9-6.6-10.1c0.8,2.6-1.1,3.1-2.6,3.6     C701.1,581,700,579.1,698.7,577.7z M683.3,654.3c1.3-2.4,1.5-4.8,1.9-7.3c0.3-2,0-5,4.1-4.7c2.3,0.2,0.8-2.9,1.3-4.5     c0.8-2.3-1.6-1.8-2.4-2.2c-2.2-1.1-1.8,1-2,2.2c-0.2,0.8-0.3,2.2-1.2,1.7c-4-2.1-3.3,1.3-3.9,3.1c-0.5,1.6-0.8,3.4-3.6,4.1     c1.5-4.7-1.9-8.8,0.6-13c-0.9,0.5-1.3,1.3-2,1.7c-0.8,0.5-1.8,0.7-2.7,1c-2.8,0.7-2.7,2.2-0.9,3.8c4.7,4.3,4.8,5.2-0.3,9.4     c-3.5,2.9-3,8.5,1.3,10.1c1.9,0.7,0.9,3.1,2.7,3.6c0.4-2.2,0.8-4.3,1.3-6.4c0.5-2.1,1.1-4.3,1.6-6.4     C681.5,651.2,681.5,653.2,683.3,654.3z M668.5,744.4c0.3-4.2,1.1-6.8,5.3-6.6c3.7,0.2,3.2-3.1,3.2-5c0-3.4-2-1.1-3.3-0.7     c-1,0.3-2-0.4-1.7-1.1c1.6-3.4-2.2-5.7-1.2-9C665.5,725.5,664.6,733.5,668.5,744.4z"
   id="path215877"
   style="fill:#00bfff" />
			<path
   fill="#FF0000"
   d="M554.6,581.8c-1.5-4.1-2.7-8-0.4-12.4c1.9-3.7,0.1-7.8,0.3-11.8c0.1-1.7-1.3-2.4-2.8-2     c-1.2,0.3-3-0.2-3.2,2.2c-0.2,4.2-1.1,8-4.1,11.5c-2.4,2.8-0.7,7,2.6,8.9c1.9,1.1,1.5,2.8,0.1,4.1c-1.1,1-2.3,2.5-3.5,2.6     c-3.6,0.2-3.2,2.6-3.3,4.9c0,2.6,0.6,5.4-3.3,6.1c-2.1,0.4-0.7,2.9-1.6,4.3c-0.4,0.7-0.4,1.7-1.5,1.7c-1.1-0.1-1-1.1-1.2-1.9     c-1.1-4.8-1-9.5,1.1-14c2.7-5.8-0.2-10.6-2.3-15.5c-1.2-2.8-2.6-5.6-6.1-6.8c-2.2-0.7-1-5.6,2.2-6.4c4.4-1.1,2-3.8,2-6     c0-0.6-0.7-1.1-0.8-1.7c-0.3-3,3.5-5.1,1.2-9.1c-1.7-3-0.6-7.3-0.5-11.1c0.2-6.8,3.2-12.8,4.5-19.3c0.5-2.7,3.7-3.7,6.1-4.7     c1.5-0.6,2.1,0.6,2.1,1.9c0.1,1.8,0.2,3.6-0.5,5.4c-0.6,1.5-0.5,3.2,1.3,3.7c2,0.5,2.7-1.2,3-2.6c0.5-1.9,0.5-3.9,0.6-5.9     c0-2,1-3.1,2.7-3.7c1.8-0.6,2.7,0.6,3.6,1.9c1.3,1.9,3,3.5,4,5.7c-0.8-4.3,0.1-8.7-0.6-13c-0.3-1.7-0.2-3.9,0.6-4.8     c3.8-3.9,2.5-8.7,2.6-13.2c0.2-4.9,0-9.8,2-14.4c0.6-1.4-0.2-1.7-1-2.3c-1.2-0.8-1.3-2.3-0.7-3.2c3.8-6,1.4-13.4,4.3-19.8     c1.4-3.1,1.4-7,3.6-10.1c1-1.3,0.7-2.9,0.8-4.3c0.1-1.3-0.3-2.8,0.8-3.8c6.8-5.8,5.6-13.4,4.9-20.9c-0.1-1.1-1.1-2.5-0.2-3.3     c5.9-5.6,3.8-13.4,5.5-20.1c0.8-3,1.3-6.1,2.1-9.2c0.4-1.6,1.3-3,3-2.8c1.6,0.2,1.6,1.9,1.6,3.3c-0.1,3.1,0.7,6.4-1,9.3     c-1,1.8-0.4,3.5,1.1,4.4c2.3,1.4,1.7-1.5,2.7-2.1c3.4-2.4,5.4-5.6,6.5-9.6c0.5-1.6,2.5-2.6,4-3.6c2.8-1.7,3.6,0.3,3.3,2.1     c-0.6,4.5-0.7,8.8,0.1,13.3c0.6,3.5-1.9,2.2-3.5,1.5c-1.4-0.6-2.6-1.4-3.9-2.1c-0.9,2.2-1.3,4.4-1.3,6.8c0,5.9-0.1,5.9-6,3     c1.5,7.1-1.6,12.8-5.2,17.7c-3.7,5-5.5,9.8-4,16c0.4,1.7,0.4,5.2-1.9,6.1c-1.9,0.8-1.7-3-4.3-3.4c1,7.5-7.5,13.2-3.6,21.4     c0.6,1.2,0.3,2.7,2.1,2.9c1.6,0.2,2.7-0.3,3.6-1.9c0.9-1.6,1.5-4,3.7-4.4c3.5-0.5,7.1-0.7,7.2,4.5c0,1.6,0.4,3.3,0.5,4.9     c0.1,2.5-0.9,5.6,0.2,7.4c3.5,5.6-1,10.2-1.1,15.2c-0.2,5.7-0.2,11.3-0.4,17c-0.1,1.3-0.7,2.5-1.3,3.8c-0.6,1.3-1.4,2.2-3.1,2     c-1.8-0.2-2-1.5-2-2.9c0-2.2-0.4-4.2-1.6-6.2c-8.1,6.5-3.3,18.6-11.7,24.8c-1.9-2.5-2.2-5.2-1.1-8.3c-1.2,3-2.3,5.8-6.2,6.1     c-1.7,0.1,0.1,1.5,0,2.3c-0.4,3.3,1.9,6.8-2.5,9.7c-1.9,1.3-1.5,5.8-1.3,9c0.2,3.1-0.7,6.4,3.6,7.7c1.4,0.4,2.1,1.9,2.4,3.6     c1.1,6.4,2.1,12.7-1.5,18.9c-1.5,2.6-1.5,6.1-0.9,9.2c0.7,3-0.4,4.8-2.5,6.4C555.2,582.3,554.9,582.1,554.6,581.8z"
   id="path215879"
   style="fill:#00bfff" />
			<path
   fill="#FF0000"
   d="M477.3,432.9c2.1-9.7,1.5-19,0.9-28.4c-0.3-5,0.3-10.1-0.7-15.2c-0.3-1.7,1.2-3.3,2.5-2.9     c2.6,0.8,4.7,2.7,4.2,5.8c-0.8,4.8-0.8,9.5-0.8,14.3c0,1,0.1,2.1,1.1,2.6c0.9,0.4,2-0.2,1.9-1c-0.1-5.5,5.6-8.8,5.2-14.3     c-0.2-2.5,0-4.9-3.4-5.7c-3.4-0.7-4.5-3.9-3.7-6.6c0.8-2.8,3.4-1.3,5.5-0.7c2.7,0.7,4.4-0.5,4.8-3.5c0.2-1.6,0.9-3.5,3.1-3.2     c1.8,0.2,2.8,1.6,3.3,3.3c0.8,2.7,1.5,5.5-0.5,8.1c-2.7,3.4,0,7.5-1.7,11.1c-0.2,0.3,1.1,1.8,1.9,2c1.2,0.3,1.6-1,1.6-1.9     c0.2-3.1,2.1-6.3,1-9.3c-2.2-6.1,2.9-7.7,6-10.4c1.9-1.6,3.1,0.1,2.6,1.7c-1.6,4.7-1.7,8.5,3.3,11.5c1.7,1,0.7,3-0.7,4.2     c-3.8,3.1-2,7.4-2.2,11.2c0,0.5,0.6,1.6,1,1.5c5.4-0.1,3.5,3.9,3.8,6.6c1.1,10-1.8,19.8-0.8,29.8c0.2,2.3-3.6,5.2-4.4,8.5     c-0.1,0.3-0.8,0.6-1.2,0.5c-1.1-0.4-1.4-1.4-1.3-2.4c0.4-4.6,0.8-9.2,1.4-13.8c0.2-1.3,1-2.5-1.2-4.1c1.1,3.4-0.5,5-2.9,6.1     c-2.4,1.1-2.6,3.6-3.6,5.7c-0.6,1.2-1.4,2.7-2.9,1.9c-1.1-0.6-1-2.1-0.5-3.2c3.4-6.8,1.5-12.7-2.7-18.5c-3-4.1-0.8-8.8-0.3-13     c0.5-4.3-0.8-8-0.8-12.4c-2.8,1.2-2.4,3.4-3,5.1c-1.8,5.1-0.4,10.9-5.8,15.4c-3.3,2.8-1.1,9.2-0.8,13.9c0.1,1.4,0.7,2.8,1.1,4.2     c1.9,0.3,1.9-3.3,4-2c2.1,1.3,0.5,3.3,0.4,5c-0.1,1.6-0.8,3.2-1.2,4.8c-1.7,0.5-1.8-2.4-3.8-1.7c0.6,1.2,0.9,3.1,1.7,3.3     c2.2,0.5,3.4,2.1,2.8,3.8c-1,3-2.1-0.7-3.3-0.3c-1.3,0.4-1.9,1.4-1.9,2.6c-0.1,1.7-0.2,3.4,0.1,5c0.3,1.5,1,3.1-0.9,3.9     c-2,0.8-3.5-0.5-4.6-2c-2.7-3.6-2.9-8-3.4-12.2c-0.8-6.5-6-10.9-8.2-16.7c-0.1-0.4-0.9-0.4-1.3-0.7c-1.3-0.9-4.2,0.6-4.2-2.3     c0-3.3,2.6-1.3,4.1-1.7c1.4-0.3,1.4-1.6,1.6-2.8c0.4-2,0.3-5.3,2.8-5c3.2,0.3,1.8,3.8,1.7,5.8     C474.2,427.4,473.2,430.6,477.3,432.9z"
   id="path215881"
   style="fill:#00bfff" />
			<path
   fill="#FF0000"
   d="M303.5,696.5c-1.5,0.7-1.3,2.1-1.7,3.1c-2,4.7-2.8,4.9-6,1c-1.8-2.2-3.5-0.1-4.8,0.5     c-6.1,2.7-6.7,2.4-6.9-4.2c0-1-0.6-2-0.4-2.9c1.4-5.9-1.7-7.9-6.9-8.4c-2.8-0.3-4.6,0.3-4.7,3.4c0,1,0.1,1.9,0.1,2.9     c0,2.1,1.1,5.4-1.5,5.6c-3.4,0.2-0.8-3-1.3-4.6c-1.8-5.8-5.4-10.9-6.5-17.2c-0.6-3.4-1.9-6.8-2.2-10.6c-1.3,4-2.2,8.1-4.9,11.4     c-0.7,0.9-1.3,1.9-2,2.8c-0.8,0.9-1.9,1.6-3.1,1.2c-1.5-0.4-1.1-1.9-1-3c0.2-6-3-11.6-1.9-17.6c0.5-2.5-1.7-1.8-2.8-2.5     c-1.6-1.2-5.1-1.3-4.6-3.6c0.5-2.2,3.7-2.3,5.9-2.8c0.8-0.2,1.8,0.3,2.9,0.5c-1.2-4.9-0.6-9,4.7-11c0.6-0.2,1.2-1.1,1.5-1.9     c0.5-1.5-0.2-3.9,2-4c2.1-0.1,1.7,2.5,2.8,3.7c1.6,1.7,3,3.5,4.4,5.3c1.1-0.1,1-1.2,1.5-1.8c0.7-0.9,1.1-2.3,2.6-1.4     c1.2,0.6,1.8,2,1.2,3c-5.3,9.3,2.3,16.8,3.4,25.1c0.4,2.7,4,2.2,5.2,1.1c3.6-3.3,3.6-0.7,3.9,1.9c0.1,1,0,2,0.3,2.9     c0.4,1.1,1.3,2.1,2.6,1.9c1.1-0.1,1.8-1.2,1.8-2.1c0.2-4.1,1.6-8.3-1.2-12c-1.3-1.6-1.4-2.9,0.2-4.3c1.8-1.6,2.8-0.5,4.1,0.8     c4.1,3.9,8.4,7.4,10.2,13.1c0.3,1,1.1,1.7,2.2,1.8c2.3,0.3,5.6,0.2,6.1,2.5c0.8,4.2,2.7,8.2,2.2,12.6c-0.2,1.5-0.5,2.9-0.7,4.4     c-0.3,1.9,0.9,4.5-1,5.5C307.1,699.9,305.2,697.7,303.5,696.5z"
   id="path215883"
   style="fill:#00bfff" />
			<path
   fill="#FF0000"
   d="M668.4,565.6c-2.8-6.1-0.3-12.1-0.6-18.1c-0.1-1.3,1-2.7,1.9-2.7c7.3-0.1,7.5-7.4,11.5-10.9     c-0.8-0.9-3.3,2-2.7-1.4c0.5-2.9,0-5.5-2.5-7.6c-1.5-1.3-1.4-3.3-0.2-5c0.5-0.7,1.3-1.7,1.9-1.1c1.2,1.4,4,1.3,3.7,4.1     c-0.2,2,0.5,3.8,1.9,5.8c1.7-2.3,0.5-4.3,0.2-6c-1-4.2-0.8-8.2,0.1-12.3c0.5-2.5,1.3-4.3,3.9-4.2c3.4,0.2,0.7,3.1,1.8,5     c1.5-3.1,0.1-6.5,2.4-8.9c0.9-1,1.4-2.5,3.1-1.3c2.8,2.1,3,0.2,3-1.9c0-1.7,0.1-3.3,1-4.8c0.6-1,1.1-2.2,2.6-1.4     c0.9,0.5,1.8,1.2,1.4,2.4c-2.3,6.8-1,13.8-1.3,20.7c-0.1,1.8-1.5,2.8-1.8,4.4c6.9,3.2,7.5,2.6,9.3-4.9c0.9-3.8,3-7.3,2.8-11.4     c0-0.5,0.5-1.3,1-1.5c1-0.4,1.4,0.5,1.6,1.3c1,4.1,2.6,7.9,0.1,12.4c-2.3,4.2-4.2,9-2.2,14.3c0.6,1.6,1.2,4.8-1,5.2     c-2.6,0.5-3-2.5-3.4-4.5c-0.6-3-2.3-4.7-5.4-4.7c-4,0-4.9,2.4-5,5.9c-0.1,6.9-2.5,10-9.3,11.9c-1.6,0.5-2,1.7-2.5,2.8     c-1.6,4-4.2,7.5-5.3,11.7c-0.9,3.4-4.8,3-6.8,5.1C672.3,565.1,670.1,565.1,668.4,565.6z"
   id="path215885"
   style="fill:#00bfff" />
			<path
   fill="#FF0000"
   d="M753,705.3c0.5-1.5-1.7-3.6,1.6-3.9c1.9-0.2,1.3-2,1.1-3.3c-0.3-2.3-0.8-4.6-1-6.9     c-0.1-1.4-0.6-3.2,1.2-3.9c1.9-0.7,1.8,1.6,2.6,2.1c3.4,1.8,7.1,2,10.3-0.4c3.5-2.6,6.4-2.3,9.2,0.9c0.7-1.3,0.2-2.3-0.4-3.4     c-1.9-3.6-1-8.3,1.7-9.7c2.1-1.1,7.3,2.1,8.6,5.3c2,4.9-0.8,9-2.6,13.1c-0.8,1.8-2.4,0.5-3.9,0c-4.4-1.7-6-0.7-5.8,3.9     c0.1,2.4-1.2,2.2-2.7,2.3c-1.3,0.1-1.4-3-3.1-1c-1.1,1.5-0.6,3-0.1,4.7c1.4,4.1,0.6,8-1.5,11.7c-0.4,0.7-0.8,1.4-1.9,1.2     c-6.1-1.2-6.7-0.6-5.7,6.1c0.3,1.6,0.1,2.9-1.1,4.1c-1.1,1-2.2,1.5-3.6,1c-1.8-0.6-1.3-1.9-1.1-3.3c0.9-6.7-0.2-8.1-6.9-8.5     c-2.5-0.1-3.4-1.2-3.4-3.8c0.1-4.2,1.4-8.4,0.2-12.7c-0.6-2.1-0.4-4.9,2-5.2c2.6-0.3,3.8,2.4,4,4.8     C751.3,702.3,749.9,704.4,753,705.3z"
   id="path215887"
   style="fill:#00bfff" />
			<path
   fill="#FF0000"
   d="M555.5,582.6c-1.5,9.4-2.1,19-0.8,28.3c1.2,8.8-1.5,17.1-0.7,25.6c0.1,1.3-0.6,1.9-1.7,2.1     c-3.6,0.7-6.1,3.1-8.5,5.7c0.7,0.9,5-1.5,2.3,2.9c-1.5,2.4-3.7,4.4-4.7,7.3c-0.4,1.3-2.5,2.2-4.3,1.6c-1.6-0.6-3.2-1.4-3.3-3.3     c-0.1-4.2-0.2-8.3-1.9-12.2c-0.4-0.9-0.1-2.1,1-2.5c1.2-0.5,1,0.9,1.5,1.4c3.2,3.1,6.2-0.3,9.5-0.3c-5.6-3.2-1.5-7.5-1.5-11.1     c0-0.9,1.2-1.9,1-2.7c-1.9-9.6,3.2-18,4.6-27.1c0.4-2.7-2.8-4.5-2.4-7.7c0.4-2.7-0.3-5.1,4-3.9c3.6,1,2.6-3.8,5-4.6     C554.9,582.1,555.2,582.3,555.5,582.6z"
   id="path215889"
   style="fill:#00bfff" />
			<path
   fill="#FF0000"
   d="M596.8,500.4c5.5-8.8,2.4-18.3,4.9-27c0.3-1.1,0.3-2.6,1.7-2.7c1.5-0.2,2.4,1.1,2.7,2.4     c0.3,0.9,0.3,2,0.3,3c0,9.1,1.2,18.2,0,27.2c-0.2,1.1,0.2,2.8-0.5,3.4c-6.5,5.3-2.6,12.6-3.7,18.9c-0.3,1.8-0.2,4.1-1.3,5.1     c-2.8,2.8-4.3,6.2-5.3,9.9c-0.8,3.2-3.8,2.7-5.7,2.5c-2.3-0.2-4.1-2.3-4.1-4.9c0-1.9,0.5-3.6,2.8-1.6c1.1,1,2.9,0.8,2.6-0.4     c-0.8-3.2,0.9-6.2,0.5-9.1c-1.1-7.6-3.1-15-0.3-22.6c0.6-1.8,0.3-3.9,0.3-5.9c0-1.6,0.4-3.5,1.8-3.7c1.8-0.2,2.7,1.6,2.8,3.4     C596.4,498.9,596.6,499.5,596.8,500.4z"
   id="path215891"
   style="fill:#00bfff" />
			<path
   fill="#FF0000"
   d="M361.5,448.5c-0.1,6.1-0.6,11.2,1.5,16.1c1.2,2.7,2.3,3.9,5.1,2.3c1-0.6,2.7-1.4,2.8,0.2     c0.4,5.2,5.9,9,3.7,14.9c-1.2,3.1,0.7,6.2,0.6,9.3c0,1.4,0.5,3.3-1.5,3.8c-2.1,0.5-3.2-1.2-3.5-2.8c-0.7-3.7-1.6-5.2-6.1-4.2     c-3.7,0.8-5.1-3.7-6.6-6.4c-1.7-3.3-2-7.4-3.9-10.5c-2.5-4.1-2.6-8.9-4.5-12.9c-0.9-1.9-4-3.8-5.4-6.4c-1.5-2.8-2.2-5.3,2.1-6.3     c1-0.2,1.9-1.3,2.6-2.2c1.3-1.9,2.5-3.2,4.7-1.2c2,1.9,2.6,3.8,0.5,6c-1.2,1.2-4.1,2.3,0.3,3.1c1.4,0.2,0.6,1.3,0.1,1.9     c-3.3,3.6,1.6,2.3,2.3,3.2c1.6,2,2-0.6,2.2-1.5C359,452.9,359.2,451,361.5,448.5z"
   id="path215893"
   style="fill:#00bfff" />
			<path
   fill="#FF0000"
   d="M211.8,701.5c4.8-1.9,2.2-7.7,6-9.7c3.7,3.2,3.7,3.2,5-2.3c0.3-1.3,0.7-3,2.2-2.9c1.9,0.1,1.3,2,1.4,3.2     c0.3,3.4,0.4,6.9,0.7,10.6c1.8-0.6,3.5-0.9,4.8-1.8c3.6-2.4,5.8-2.1,6.6,2.5c0.2,1.3,1.1,1.8,2.1,0.9c1.2-0.9,1.8-0.5,2.2,0.6     c1.3,3.2,4.1,3.3,6.5,0.2c0.7-0.9,0.1-3.2,2.2-2.6c1.2,0.3,0.7,2,0.9,3.1c0.6,2.9,4.1,4,4.2,7.5c0.1,2.1,0.5,4-1.2,5.4     c-2.2,1.8-2.5-1.2-3.9-1.8c-2.3-1-3.9-3.2-7.1-3c-2.5,0.2-2.5-3.9-5.1-4.7c-0.7-0.2-1.1-1.3-2.3-0.8c0.6,2.3,1.7,4.5,1.8,6.9     c0.2,2-0.8,4.2-3.3,4.2c-2.6,0.1-1.9-2.3-2-3.8c-0.1-1.5-0.1-3-0.1-4.5c0-3-1.7-4.2-4.1-2.7c-2.9,1.8-4.1,0.6-5.5-1.7     c-0.9-1.4-2.2-2.5-3.4-3.6c-0.8-0.7-1.9-1.2-2.2,0.3c-0.8,3.8-6.3,2.2-6.8,6.2c0,0.1-0.4,0.3-0.4,0.3c-2.3-2.5-6-1.2-8.4-2.8     c-2.3-1.5-1.4-8.4,0.7-10.6c0.9-1,2-1.7,2.9-2.7c0.9-1.1,1.6-2.9,3.4-2c1.7,0.9,2.8,2.7,2.3,4.6     C211.5,696.5,211.8,698.8,211.8,701.5z"
   id="path215895"
   style="fill:#00bfff" />
			<path
   fill="#FF0000"
   d="M224.4,621.3c-1.1,1.3-2.1,2.5-3.2,3.8c-2.6,3.1-6.6,3.5-9.8,0.9c-0.5-0.4-1-1.1-1.6-0.6     c-1,0.9-1.5,3.9-3.4,1.5c-1.5-1.9-1.7-5.3,0.2-6.9c5.2-4.4,2.5-8.8,0.8-13.4c-0.6-1.6-2.5-3.2-1.1-5c1.3-1.6,2.6,0.1,3.9,0.5     c1.1,0.3,2.9,0,3.4-1.3c1-2.2-2.2-2.1-2.5-3.6c5.4-2.7,5.7-2.3,6,8.6c0.7-4.1,2.2-5.2,4.9-5c2.4,0.3,1.9,2.2,2.4,3.7     c1.3,3.6,2.2,7.2,1.9,11.1c-0.2,2.5,3.9,3.3,3.1,6.6c-0.4,1.7,0.6,3.6-1,5.1c-0.8,0.7-1.5,0.6-2.2-0.1c-1.5-1.6-1.8-3.4-0.9-5.5     C225.1,621.6,224.8,621.5,224.4,621.3z"
   id="path215897"
   style="fill:#00bfff" />
			<path
   fill="#FF0000"
   d="M776.4,626.4c-1.2-2.9-1-4.8,2.4-5.7c2.4-0.6,4.4-1.8,5.9-4.1c1.3-1.9,3.2-0.8,2.8,0.8     c-1.5,6.2,2,11.7,1.7,17.6c-0.1,2.4,0.3,4.8-3.6,3.8c-1.7-0.4-3.4,0.9-4.5,2.7c-0.7,1.2-1.7,2.2-3.3,1.6     c-1.6-0.6-1.3-2.2-1.3-3.4c0.1-1.6,0.4-3.3,0.8-4.9c0.7-2.7-1.6-3.7-3.2-4.3c-1.4-0.5-3.3,0.4-4.9,0.7c3.7,3.8-2.8,4.6-2.3,7.7     c0.3,1.6-1.5,2.4-2.9,3c-1,0.5-2,0.4-2.6-0.6c-0.6-0.9,0.2-1.4,0.5-2.2c1.3-2.6,4.4-4.9,1.2-8.2c-0.9-0.9-0.2-2.2,0.6-2.5     c3.8-1.5,3.8-4.5,3.7-7.8c-0.1-1.8,0.5-3.5,2.7-3.5c2.2,0,1.9,2,2,3.4C772.5,623.4,774.8,624.7,776.4,626.4z"
   id="path215899"
   style="fill:#00bfff" />
			<path
   fill="#FF0000"
   d="M320.8,413.7c2.9-0.4,4.2-2,4-4.9c-0.1-1.1-0.3-2.3-0.4-3.4c-0.2-2.1,0.6-4.5,2.5-4.8     c1.9-0.3,2,2.4,2.3,3.8c0.6,3.1,0.9,6.2,1.1,9.4c0.1,1.9,0.4,4.2-2.7,4.3c-1.3,0.1-2.1,1.4-2,2.5c0.1,3-1.6,4.9-3.6,6.8     c-2,1.9-4.4,8.3-5.6-0.5c-0.2-1.6-2.4-1-3.3-2.5c4.9-2.4,4.4-6.8,3-10.8c-1.7-5.2-0.4-11.3-4.7-15.9c-1.2-1.3,0.5-3.6,2-4.6     c2.1-1.5,2.4-6.1,5.1-5.1c2.2,0.8,0.7,4.8,1,7.4c0,0.2,0,0.3,0,0.5c-0.7,3.5,2.6,5.9,2.6,8.8     C321.9,407.6,319.3,410.3,320.8,413.7z"
   id="path215901"
   style="fill:#00bfff" />
			<path
   fill="#FF0000"
   d="M498,783.8c2.1-2.1,0.7-4.2,0.2-6.1c-0.4-1.8-0.7-3.6-0.3-5.4c0.2-1.2,0.7-2.8,2.3-2.9     c1.4-0.1,2.1,1.1,2.1,2.3c-0.1,3.7,1.9,4.4,5,4.2c1.4-0.1,2.8,0.7,2.5,2.4c-0.3,1.5-2,1.3-2.9,1c-4.1-1.6-4.6,0.7-4.4,3.8     c0.1,1.8-0.1,3.8,0.5,5.4c0.8,2.3,1.9,3.9-1.9,2.7c-1.3-0.4-1.6,1.5-2.3,2.3c-4.7,5.5-10.7,4.8-14.2-1.5c-1.1-1.9-1-3.2,0.1-4.9     c0.9-1.3,1.6-2.9,2-4.5c1.3-4.8,3.4-5.9,8.1-4.9C498.4,778.6,497.9,781.1,498,783.8z"
   id="path215903"
   style="fill:#00bfff" />
			<path
   fill="#FF0000"
   d="M371.4,530c2.2-1.4,1.6-3.9,4.1-4.7c2.1,7.4,0.4,14.5-0.6,21.7c0.3-1.1,0.5-2.2,0.8-3.2     c0.2-1,0.6-2.1,1.8-2c1.5,0.1,1.8,1.4,1.8,2.5c-0.1,3,0.3,5.4,3.6,6.7c2.1,0.9,1.6,2.7-0.2,3.7c-2.5,1.4-3.4,3.5-3.3,6.2     c0,1.2,0.3,3.2-1.6,3.1c-1.7-0.1-3.3-1.7-2.8-3.5c1.2-4.8-2.3-8.3-3-12.4c-1-5.6-3.5-9.5-7.7-12.8c-1.9-1.5-1.5-3.5-0.5-5.4     c1-2,1.7-4-0.5-5.8c-1.2-0.9-1.7-2.2-0.3-3.3c1.5-1.2,2.9-1.1,4.4,0.2C369.9,523.3,370.2,526.7,371.4,530z"
   id="path215905"
   style="fill:#00bfff" />
			<path
   fill="#FF0000"
   d="M759.9,735.8c-0.8,2.9-1.1,4.7-1.8,6.4c-1.3,3.1-2.6,5.6-7.2,4.8c-3.8-0.7-3.5-2.1-2.4-4.5     c1.3-2.7,1.5-4.6-1-7.1c-2.9-2.9-2.8-7.2-1.5-11.2c0.4,0.1,0.9,0.2,0.9,0.3c2.4,6.8,6.8,8.7,13.3,5.8c2.7-1.2,5.5,0.1,8.2-1     c0.7-0.3,1.6,0.6,1.6,1.5c0.1,4,0.2,7.9,0.1,11.9c0,1.2-1.2,2.9-1.9,2.2c-2-2.3-5.3,2.8-6.8-1.5C760.8,741.1,761,739,759.9,735.8     z"
   id="path215907"
   style="fill:#00bfff" />
			<path
   fill="#FF0000"
   d="M585.7,312.9c-0.1-1.3,0.2-2.9-0.5-3.9c-3.5-5.7-1-11.1,0.4-16.5c0.3-1.2,0.4-2.4,2-2.2     c1.6,0.2,1.6,1.6,1.5,2.7c-0.2,1.8-0.8,3.6-0.8,5.4c0,5.8,4.7,12,10.4,13.5c2.2,0.6,2.4,1.8,2.5,3.6c0,1.9-0.6,2.4-2.6,2.4     c-3.6,0.2-6.2,1.7-5.5,6.2c0.3,2-1,3.7-3,4c-2.2,0.2-2.5-1.7-2.6-3.5c-0.1-2.5-1.1-2.2-2.9-1.3c-2.7,1.4-4.4-0.8-5.6-2.5     c-1-1.4-0.6-3.7,1.9-3.1C586.1,319.1,585.9,316.2,585.7,312.9z"
   id="path215909"
   style="fill:#00bfff" />
			<path
   fill="#FF0000"
   d="M312,766.4c0.2,1.9-0.1,3.9-1.5,3.2c-1.8-0.8-5.2-0.6-4.7-4c0.8-5.6-2.5-6.9-6.9-7     c-3.7-0.1-2.9-2.9-3.4-4.9c-0.5-2.1,1-2.8,2.5-3c2.6-0.4,3.3,1.3,3.6,3.6c0.2,2,1.3,3,3.4,2c3.7-1.8,8.4,0.3,11.7-3.4     c1.1-1.2,2.8,0.4,3.1,1.5c0.9,3.3,3.4,4.3,6.3,4.7c2.9,0.4,3.3,2.9,2.7,4.3c-0.9,2.3-2.3-0.1-3.5-0.5c-1.3-0.4-3.3-2-3.9-0.2     c-0.8,2.4-3.9,4.4-1.7,7.4c0.7,1,1.7,1.8,0.3,2.9c-1.2,0.9-2.2,0.1-3-0.8C315.4,770.4,313.9,768.6,312,766.4z"
   id="path215911"
   style="fill:#00bfff" />
			<path
   fill="#FF0000"
   d="M310.3,374.7c2.6-0.6,1.9-5.9,5.9-4.6c4,1.2,1.3,4.9,2.4,7.3c0.4,0.9,0.7,1.8,1.1,2.7     c3-3.8,8.8-3.1,11.4-7.5c1.7,3.7-1.1,10.4-4.8,12.2c-4.2,2-8.2,0.6-10.5-3.9c-0.6-1.2-1.1-2.7-2.6-2.6c-1.8,0.1-1.7,1.8-1.6,3.1     c0.1,2.9-1.5,4.8-4,4.7c-2.5-0.1-2-2.5-2.3-4.5c-0.3-2.1-1-4.6-3.3-5.8c-1.5-0.7-3.7-1.4-2.2-3.4c1.7-2.2,3.1-5.5,6.7-5.3     c2.3,0.1,3.7,1.5,4,3.8C310.4,372,310.3,373.4,310.3,374.7z"
   id="path215913"
   style="fill:#00bfff" />
			<path
   fill="#FF0000"
   d="M312.2,422.8c-0.9,2.8-1.2,6.2-0.1,9.6c0.3,0.9,0.2,2.1-0.9,2.6c-1.2,0.6-2.4,0.2-3-0.9     c-1.4-2.7-3.4-4.4-6.5-4.7c-2.4-0.3-2.3-2.3-2.1-3.8c1.2-8.3-2.4-14.3-9.1-18.9c-1.6-1.1-2.6-2.9-1.5-4.7c1.2-2,3-0.5,4.4,0.2     c3.5,1.9,6.2,4.6,8.9,7.7c2.4,2.8,2.1,8.3,8,8.1C311.8,417.9,312.4,420.4,312.2,422.8z"
   id="path215915"
   style="fill:#00bfff" />
			<path
   fill="#FF0000"
   d="M437.5,700.7c0.1-0.8,0.3-1.6,0.3-2.4c0.1-1.5-1-3.7,1.5-4c2.3-0.3,1.7,1.9,2.1,3.2     c0.2,0.6,0.5,1.4,1,1.7c3.6,2.4,5.3,4.2-0.9,5c-2.4,0.3-2.1,2.6-2.3,4.4c-0.4,2.8,0.3,7.4-3.2,7.3c-4.1-0.2-1.8-4.8-2.4-7.4     c-0.4-1.8,0.8-4.3-1.6-5.3c-2-0.8-3.2,1.3-4.6,2.3c-1.1,0.8-2,3-3.4,0.8c-1-1.6-0.6-3.5,1.1-4.9c8-5.9,9.1-9.3,6.4-19     c-0.5-1.8-0.7-3.5,1.3-4.1c2.3-0.6,3.5,1.1,3.3,3.2c-0.3,5.2,2.8,10.4-0.5,15.6C434.9,698.4,436.4,699.6,437.5,700.7z"
   id="path215917"
   style="fill:#00bfff" />
			<path
   fill="#FF0000"
   d="M469.8,365.1c2.9-8-4-12.3-7.8-17.5c-2.4-3.3-5.7-2-8.8,2.3c-0.6,0.9-0.9,2.6-2.4,2     c-1.6-0.7-1-2.4-0.2-3.4c2.9-3.5,1.6-6.7-0.3-10c-0.6-1-1.2-2.1-1.3-3.2c-0.2-1.5-0.8-3.6,1.5-4.1c2.4-0.6,3.3,1.2,3.7,3     c0.5,2-0.1,4.4,1.9,6c0.5,0.4,0.9,1.3,1.4,1.3c8.7,0.1,12.3,9.4,20.2,11c1.1,0.2,1.6,1.2,1.6,2.3c0,1,0,2.4-1.2,2.4     c-6.2,0.2-4.5,4.7-4.7,8.3c-0.1,1.3,0.7,3.5-1.6,3.5C469.9,368.9,469.7,367,469.8,365.1z"
   id="path215919"
   style="fill:#00bfff" />
			<path
   fill="#FF0000"
   d="M229.6,491.6c-2.3,5-0.5,8.3,4.8,10c1.7,0.5,2.2,1.9,1.4,3.6c-0.6,1.2-1.2,2.6-2.9,1.9     c-2.5-1-4,0.5-5.7,1.9c-2.8,2.4-4.4,1.1-4.4-2c-0.1-3.4-0.4-6.5-2.4-9.4c-0.8-1.2-0.4-2.3,0.3-3.7c3.2-5.5,3.4-11.5,1.8-17.4     c-0.4-1.4-0.5-2.2,0.7-2.9c1.6-0.8,2.5,0.7,2.5,1.5C225.3,480.9,228.9,485.7,229.6,491.6z"
   id="path215921"
   style="fill:#00bfff" />
			<path
   fill="#FF0000"
   d="M631.9,790.6c-1.7,0.1-2.3-0.9-2.6-1.8c-2.1-6.1-7.7-8.3-12.6-11.3c-0.6-0.4-1.8-0.2-1.8-1.4     c0-1.2,1-1.4,1.9-2c4.9-3.2,6.8-0.9,7.4,4.3c1.2-2.8-0.2-5.3-1.4-6.3c-4-3.3-2.1-7.2-2.1-11c0-0.8,0.2-1.7,1.3-1.8     c1-0.1,1.6,0.6,1.8,1.4c0.3,0.8,0.5,1.7,0.4,2.4c-0.9,5.5,1.7,8.1,6.9,8.5c2.6,0.2,3.1,1.8,3.2,4.1     C634.6,781,633.2,785.8,631.9,790.6z"
   id="path215923"
   style="fill:#00bfff" />
			<path
   fill="#FF0000"
   d="M591.7,764.6c-2.8-6.3,3.9-9.2,7.3-13.6c0.9-1.1,3.2-1.5,3.1,1c-0.1,5.1,2,10,0.8,15.3     c-0.9,3.8-1.6,6.3-6.3,7.6c-4.7,1.4-4.8-0.5-5-3.6C591.6,769.5,591.7,767.7,591.7,764.6z"
   id="path215925"
   style="fill:#00bfff" />
			<path
   fill="#FF0000"
   d="M194.3,512.2c-0.1,0.4-0.4,1.4-0.8,2.5c-0.3,1-0.9,2-2,2c-1.4-0.1-1.8-1.3-1.8-2.5     c-0.1-1.8,0.1-3.7-1.6-5c-0.2-0.2-1.3,0.2-1.3,0.3c0.2,2-0.1,4.2,1.4,5.9c2,2.3,1,5.6-0.6,6.1c-2.6,0.8-6.3,2.1-8.4-1.5     c-0.8-1.4-0.9-3.1-2.8-3.8c-1.3-0.5-1.8-1.9-1.5-3.4c0.4-2.2,1.7-1.2,3-1c2.2,0.3,1.6-1.5,1.8-2.7c0.3-2.4-0.9-6.2,2.7-6.5     C188.6,502,194.4,506.7,194.3,512.2z"
   id="path215927"
   style="fill:#00bfff" />
			<path
   fill="#FF0000"
   d="M283.4,433.5c-3.8,3.1-6.3,4-6.6-1.1c0-0.7-0.2-1.5-1-1.2c-0.5,0.1-1.2,0.8-1.2,1.3c-0.1,1,0.5,2,0.4,2.9     c-0.2,1.4-1.2,2.5-2.6,2.6c-1.7,0.2-1.6-1.4-1.6-2.5c-0.2-2.8,0.2-6-4.3-5.2c-0.3,0.1-1-0.4-1.1-0.8c-0.2-0.7,0.3-1.1,0.8-1.6     c2-1.6,3.8-0.8,5.5,0.3c1.4,0.8,2.8,1.6,3.7-0.3c0.7-1.5,0.1-3-1.5-3.7c-0.9-0.4-1.8-0.7-2.7-1.1c-1.2-0.6-1.7-1.6-1.1-2.9     c0.6-1.3,1.6-0.6,2.5-0.3c2.8,1.1,5.9,1.7,7.5,4.8c1.1,2.1,1.7,4.9,5.3,3.1c1.1-0.5,1.8,1.2,1.8,2.4c0.1,1.7,0.1,3.3,0.1,5     c0,2.9,0.9,3.9,3.4,1.7c0.8-0.8,1.6-2.1,2.8-1.1c1.3,1.1,0.4,2.4-0.5,3.5c-0.6,0.6-1.2,1.2-1.7,1.8c-1.6,1.8-3.5,3.4-6.1,2.3     c-2.4-1-1.8-3.6-2.4-5.6C282.6,436.8,283.1,435.8,283.4,433.5z"
   id="path215929"
   style="fill:#00bfff" />
			<path
   fill="#FF0000"
   d="M491.8,486.9c0.5,6-3.1,7.5-6,8.9c-2.8,1.4-4.2-2.1-5.9-3.6c-1.9-1.7-2.7-4.1-2.1-7.4     c1-5.2,5.6-6.6,8.5-9.8c1-1.2,2.2-0.5,2.7,0.8C490.6,479.9,489.5,484.7,491.8,486.9z"
   id="path215931"
   style="fill:#00bfff" />
			<path
   fill="#FF0000"
   d="M271,728.1c0.3,4.3,1.8,8.5-2.3,12c-1.5,1.3-1.3,3.7-1.5,5.6c-0.1,1.1,0.2,1.6,1.3,1.4     c5.9-1.1,3.4,1.7,2,4.2c-0.2,0.3-0.1,0.7-0.3,0.9c-1.8,1.8-1.1,5.9-4.5,5.8c-2.9-0.1-2.5-3.3-3.3-5.3c-0.4-1.2-1.4-2.4-2.5-3     c-1.5-0.8-5.1,0.2-3.8-2.8c1.1-2.6,0-6.3,4.7-7.8c3.8-1.2,9.5-2.7,8.2-9.3c-0.1-0.3,0.5-0.8,0.8-1.2     C270,728.4,270.4,728.3,271,728.1z"
   id="path215933"
   style="fill:#00bfff" />
			<path
   fill="#FF0000"
   d="M409.4,271.5c3.2,8.2,0.4,15.5-1.3,22.8c-1,4.5-1.2,8.9-0.4,13.3c0.3,1.5,0.3,2.6-0.9,3.6     c-0.5,0.4-1.1,1-1.7,0.4c-1-1-1.6-2.1-1.3-3.6c2.3-9.2-1.8-17.8-2.9-26.7c-0.5-4.2,0.1-6.7,4.2-7.2     C407.2,273.8,407.8,272.3,409.4,271.5z"
   id="path215935"
   style="fill:#00bfff" />
			<path
   fill="#FF0000"
   d="M532.1,793.8c-1.6,0.1-2.4,1.8-4.1,1.6c-1.6-0.2-2.3-1.1-2.8-2.4c-0.6-1.6,0.6-2.1,1.6-2.6     c6.5-3.7,8.1-7.8,6-15c-0.2-0.6-0.3-1.3-0.5-1.9c-0.7-1.9-1-4.2,1.1-4.7c2.3-0.5,1.9,2,2,3.6c0.1,1.9,0.7,2.8,3,3     c2,0.2,3.7,1.9,3.7,4c0,2.1-1,3.7-3.7,4.4c-3.4,0.9-3.1,4.6-3.8,7.2c-0.5,2.2,1.8,4,3.4,5.1c1.7,1.2,2.7-1,3.7-2.3     c0.8-1.1,1.6-3,3.4-2c2,1,0.9,2.8,0.4,4.4c-1.7,4.8-5.8,4.1-9.5,4.2C531.1,800.6,533.4,796.4,532.1,793.8z"
   id="path215937"
   style="fill:#00bfff" />
			<path
   fill="#FF0000"
   d="M374.3,415.9c-3.8-6.8-4.4-13.4-0.7-20.4c2-3.9,3.1-8.1,1-12.4c-0.7-1.5-1.7-3.4,0.1-4.3     c1.6-0.7,3,0.9,3.8,2.5c0.9,1.9,2.1,3.4,4.6,2.9c1.2-0.2,1.9,0.3,2,1.5c0.1,1.3-0.2,2.4-1.7,2.6c-4.4,0.4-4,3.6-4.2,6.6     c-0.2,4,1.3,8.4-2.7,11.6c-0.5,0.4-0.6,2.3-0.1,2.8C379.9,413,376.2,413.9,374.3,415.9z"
   id="path215939"
   style="fill:#00bfff" />
			<path
   fill="#FF0000"
   d="M767.1,501.2c0.1,1.6-0.8,2.1-1.6,2.7c-1.2,0.9-2,2.3-0.6,3.3c5.1,3.7,1.1,9.4,3.2,13.7     c0.2,0.4-0.6,1.8-1.2,1.9c-3.3,0.7-5.4,2.8-7.5,5.3c-0.6,0.7-2.1,1.7-3,0.5c-1.1-1.4-1.3-3.5,0.3-4.4c3.1-1.8,3-4.5,2.9-7.3     c-0.3-5.6,2.7-10.9,1.2-16.6c-0.4-1.4,0.3-3.2,2.5-2.7C765.3,498.1,766.8,499.4,767.1,501.2z"
   id="path215941"
   style="fill:#00bfff" />
			<path
   fill="#FF0000"
   d="M246.1,566.2c3.5,3.5,7.4,6.5,3.2,11.8c-0.5,0.6-0.9,1.6-1.5,1.8c-2.3,0.7-10.5-3.9-10.9-6.3     c-0.3-2-1.3-4.4,2.6-5c2.7-0.4,2-3.6,2.2-5.8c0.1-1.4-0.3-3.6,1.8-3.5c1.8,0.1,4.4-0.7,5.4,1.4c0.9,1.9,1.2,4.3-0.3,6.1     C247.7,567.8,246.9,566.6,246.1,566.2z"
   id="path215943"
   style="fill:#00bfff" />
			<path
   fill="#FF0000"
   d="M255.7,403.7c-0.2,1.6-1.7,2.3-2.8,2.5c-3.8,0.7-4.4,7.5-9.7,4.8c-0.4-0.2-1-0.7-1-1     c-0.3-3.2-1.2-5-5-3.8c-1.5,0.4-1.7-1.9-1.4-3.1c1-3.7,3.9-5.6,7.4-6.6c0.7-0.2,2,0.4,2.3,0c4.5-5,4.3,0.9,4.3,2.3     c0.2,2.9,1.2,4,4,3.7C254.9,402.3,255.4,402.7,255.7,403.7z"
   id="path215945"
   style="fill:#00bfff" />
			<path
   fill="#FF0000"
   d="M578.4,750.1c2-1.9,4-1.1,5.2,0.4c1.8,2.5-0.6,5.3-1.9,6c-7.6,4.4-3.9,10.8-3.5,16.7c0.1,1,1.5,2.2,0.2,3     c-2,1.2-1.5-1.4-2.5-1.9c-5.1-2.9-4.9-7.3-3.3-12c2.1-6.2,2.9-12.6,2.1-19.2c-0.2-1.7,0.1-3.7,2.3-3.7c2.2,0,2.3,2,2.2,3.7     C579.1,745.3,578.7,747.4,578.4,750.1z"
   id="path215947"
   style="fill:#00bfff" />
			<path
   fill="#FF0000"
   d="M283.6,592.9c2.2,0.4,4.1,2,6.6,1.9c2.5-0.1,4.9,0.1,7.1-1.6c1.3-1,3.3-2.4,4.8-0.3     c1.2,1.5,2.3,3,1.1,5.4c-1.6,3-2.8,6.4,0.3,9.4c1,1,0.8,2.2-0.3,3c-1.4,1-1.7-0.4-2.5-1.2c-3.4-3.3-5.4-8.1-10-9.8     c-2.8-1.1-5.6-2.1-8.3-3.5c-0.9-0.5-2.5-0.9-1.9-2.4C281,592.5,282.4,593,283.6,592.9z"
   id="path215949"
   style="fill:#00bfff" />
			<path
   fill="#FF0000"
   d="M788.4,646.3c2.6,2.1,2.6,4.6,3.4,6.7c1.3,3.5,3.2,4,5.6,1.2c0.8-0.9,1.1-2,1.8-2.9     c1.2-1.5,3.1-1,4.1-0.4c1.6,0.9,0.2,2.6-0.5,3.3c-2.4,2.3-3.5,6.7-8.5,5.1c-1.8-0.5-2.8,1.5-2.9,3.3c-0.1,2.5-0.8,4.9-1.9,7.4     c-4.7-3.7-2.5-7.5-1-11.4c-1.2,1.1-2.3,2.7-3.9,3.6c-1.5,0.9-3.5,0.8-4.3-1.1c-0.8-2.1,1.2-1.9,2.3-2.2c3.4-0.8,3-4,3.9-6.3     C787.4,650.6,787.7,648.6,788.4,646.3z"
   id="path215951"
   style="fill:#00bfff" />
			<path
   fill="#FF0000"
   d="M308.1,452.4c0.5,3.7-1.4,6.4-2.8,9c-1.2,2.3-3.5,3.3-4.9-0.5c-0.6-1.6-0.7-3.2-0.8-4.8     c-0.3-3.9,0.6-7.9-3.9-10.5c-2.3-1.3-1.7-4-0.2-6.1c0.8-1.1,2.1-1.1,2.2-0.1c0.6,5.3,6.7,5.2,8.9,9.1     C307.5,450.1,308.3,451.1,308.1,452.4z"
   id="path215953"
   style="fill:#00bfff" />
			<path
   fill="#FF0000"
   d="M185,737.7c-2.6-0.3-4.6-0.2-3.9,3.6c0.4,2-0.2,5-2.4,5.4c-2.3,0.4-2.3-2.5-3.3-4.1     c-2.3-3.6-1.6-6.2,1.9-8.2c2.8-1.6,0.7-3.2,0-4.5c-1-2-2.8-4.1,0.2-5.3c2.5-1,2.6,1.6,3,3.3c0.6,2.3,2.1,3.4,4.4,2.8     c3.5-0.8,4.1,1.9,4.2,4C189.2,737,188,739,185,737.7z"
   id="path215955"
   style="fill:#00bfff" />
			<path
   fill="#FF0000"
   d="M267.1,573c-0.6,1.3,1.9,5.5-2,5.5c-3.8,0-2.1-4.1-2.4-6.5c-0.3-3.3,0.3-8.5-2.5-9     c-4.9-0.9-4.8-5.1-7.2-7.4c-1.6-1.6-2-3.5-0.2-4.6c1.8-1.2,4.2-0.3,4.7,1.9c0.8,3.7,2.7,5.3,6.4,5.4c1.4,0,2.1,1.8,2.2,3     C266.3,564.9,267.9,568.4,267.1,573z"
   id="path215957"
   style="fill:#00bfff" />
			<path
   fill="#FF0000"
   d="M422.4,743.6c-0.1,0.8,0,1.9-0.3,2.8c-0.5,1.5-0.9,3.6-2.9,3.7c-2.1,0.1-2.4-2.1-2.8-3.6     c-0.4-1.5,0.5-3.3-2.7-2.7c-2.7,0.5-3.6-2.7-2.1-5.2c1.5-2.6,1.1-6.3,5-7.5c0.6-0.2,0.7-2.3,2.3-1.6c1.2,0.6,2.2,1.6,2.3,3     C421.6,736.2,422,739.8,422.4,743.6z"
   id="path215959"
   style="fill:#00bfff" />
			<path
   fill="#FF0000"
   d="M408.5,445.8c3.7,2,5.3,6.8,4.1,12c-0.3,1.4-0.8,2.8-1.1,4.2c0.4,0.2,0.9,0.5,0.9,0.4     c1.1-1.6,2.5-2.6,4.5-2.3c1.2,0.2,1.4,1.4,1.3,2.3c-0.2,2.1-1.1,3.7-3.5,4.1c-3.1,0.5-3.6,4.6-6.9,5.3c0-8.4-2.5-16.7,0-25     C408,446.6,408.2,446.2,408.5,445.8z"
   id="path215961"
   style="fill:#00bfff" />
			<path
   fill="#FF0000"
   d="M209.8,459.5c1.6-2.9,0.1-6.6,1.6-9.8c0.8-1.6,1.7-3,3.7-2.5c1.7,0.4,2.2,1.9,2.2,3.5     c-0.1,4.3,0.3,8.5,1.7,12.7c0.9,2.8-1,4.6-3.1,5.5c-2.6,1.1-3.9-1.4-4.8-3.2C210.3,463.9,210.2,461.8,209.8,459.5z"
   id="path215963"
   style="fill:#00bfff" />
			<path
   fill="#FF0000"
   d="M382.7,476.9c-1.3-0.9-0.4-2.2-1-2.9c-5.2-7.2,0.3-11.6,4.3-16.4c0.4-0.4,1.2-0.9,1.6-0.8     c1.1,0.2,1.5,1.2,1.6,2.2c0.4,4.3-1.7,8.7,0.6,13.1c0.6,1.1-1.2,2-2.2,2.2C385.7,474.6,384.3,476.1,382.7,476.9z"
   id="path215965"
   style="fill:#00bfff" />
			<path
   fill="#FF0000"
   d="M295.3,749.6c-1.8,1.4,1,4.8-2.6,6.3c-1.7,0.7,0.2,2.3,1.2,2.7c2.2,0.7,2.2,1.9,1.5,3.8     c-0.7,2.2-6.5,0.1-6.4-1.7c0-1,0.4-1.9,0.5-2.9c0.1-1.4-0.3-2.8-1.5-3.5c-1.5-0.8-1.9,0.8-2.6,1.6c-0.5,0.6-1,1.5-2,1     c-0.8-0.4-0.8-1.4-0.8-2.2c0-2.7,6.3-9.5,8.9-9.6C294.5,744.8,295.4,746.6,295.3,749.6z"
   id="path215967"
   style="fill:#00bfff" />
			<path
   fill="#FF0000"
   d="M407.8,447c-0.7,1.9-1.5,3.6-1.5,5.7c0,1.2,0.5,3-1.3,3.2c-1.5,0.1-2.1-1.6-2.7-2.6     c-2.7-4.8-1.7-10.4-3-15.6c-0.2-0.9,0.5-2.3,1.9-2.5c1.2-0.2,2.1-0.1,3.1,1c2.6,2.8,4.2,5.9,4.2,9.8     C408.2,446.2,408,446.6,407.8,447z"
   id="path215969"
   style="fill:#00bfff" />
			<path
   fill="#FF0000"
   d="M806.2,753.9c-1.5-1.9-7.3,1.3-6.5-4.8c0.3-1.9-0.1-4.4,3.3-3.1c1.9,0.7,2.2-1,2.7-2.1     c0.8-1.8,1.3-3.7,1.8-5.6c0.3-1.1,0.6-2.5,1.9-2.7c1.2-0.2,2.1,0.9,2.7,2c0.6,1.2,1,2.2-0.1,3.6c-4,5.2-3.9,5.3,1.5,9.5     c0.7,0.5,0.7,1,0.6,1.7c-0.1,0.8-0.8,1-1.5,1.1c-0.3,0-0.7,0-1,0C809.9,753.5,808.3,753.7,806.2,753.9z"
   id="path215971"
   style="fill:#00bfff" />
			<path
   fill="#FF0000"
   d="M712.8,551c1.7-2.3,1.9-5,2.8-7.4c1.2-3.4,1.1-8.3,7.2-6.9c0.9,0.2,2.2-1.8,3.5-2.5     c0.9-0.5,2-1.6,3.2-0.7c1.3,1,0.1,2.2-0.3,3.1C726,543.9,719.3,547.3,712.8,551z"
   id="path215973"
   style="fill:#00bfff" />
			<path
   fill="#FF0000"
   d="M717.2,414.6c-0.4,2.1-1.7,4.6-1.4,7.5c0.2,1.6-2,1.6-3.1,1c-4.8-2.5-5.7-13.2-1.4-16.8     c2-1.6,4-1.9,4.8,1.3C716.7,409.7,716.8,411.9,717.2,414.6z"
   id="path215975"
   style="fill:#00bfff" />
			<path
   fill="#FF0000"
   d="M798.4,698.1c0.4-1.4,0.4-3.1,0.9-3.2c6.3-2.1,4.5-8.8,7.4-12.8c0.7-1,0.9-3,2.5-2.6     c1.7,0.4,1.6,2.1,1.3,3.7c-1.1,5.2-4.1,10.2-2.3,15.9c0.3,1-0.4,2-1.8,1.5c-1.7-0.6-3-0.5-4.9,0.5     C798.4,702.7,799.6,698.9,798.4,698.1z"
   id="path215977"
   style="fill:#00bfff" />
			<path
   fill="#FF0000"
   d="M614.2,417.3c0.6-1.7,1.6-3.1,3.6-2.1c2.3,1,0.2,2.4,0,3.6c-0.3,2.3-0.4,4.6-0.5,6.9     c-0.1,1.7-0.4,4-2.1,3.8c-2-0.3-5.1-0.6-5.3-3.5c-0.4-3.7-0.2-7.5-0.8-11.3c-0.1-1,0.4-3.8,2.1-3.2     C613.2,412.3,614.9,414.4,614.2,417.3z"
   id="path215979"
   style="fill:#00bfff" />
			<path
   fill="#FF0000"
   d="M515.7,773.6c1.2,3.2,2.3,6.1,3.5,8.9c2.4,5.7-2.2,9.2-4.5,13.2c-0.9,1.5-3.4,1-5.1,0.4     c-1.2-0.4-1.9-1.4-1.7-2.7c0.3-2.2,2-2,3.7-2.4c5-1.3,2.9-7.2,2.3-7.9C510.3,778.9,513.6,776.6,515.7,773.6z"
   id="path215981"
   style="fill:#00bfff" />
			<path
   fill="#FF0000"
   d="M600.7,575.3c-0.3-3.8-0.4-7.5,3.8-10.2c1.5-0.9,1.6-3.8,2.5-5.7c0.3-0.7,1.1-1.5,1.7-1.6     c0.8-0.1,1.4,0.8,1.4,1.7c0.3,4.7-0.8,9.5-3.3,13c-1.7,2.4-2.4,4.3-2.6,6.9c-0.1,1.5,0.6,3.8-2,3.6c-2.1-0.2-1.4-2.2-1.5-3.6     C600.7,578.1,600.7,576.8,600.7,575.3z"
   id="path215983"
   style="fill:#00bfff" />
			<path
   fill="#FF0000"
   d="M575.4,688.1c2.3,2.3,4,5.8,4.1,9.1c0.2,3.1-1.4,6.3-2.4,9.4c-0.2,0.6-1.2,1.3-1.9,1.4     c-1,0.2-1.3-0.7-1.5-1.6c-0.7-4.9-2.3-9.6-2.1-14.6C571.8,689.7,572.4,688.2,575.4,688.1z"
   id="path215985"
   style="fill:#00bfff" />
			<path
   fill="#FF0000"
   d="M377.9,358.1c-1.8-4.3-2.3-7.6-4.7-10.1c-0.9-0.9-2.1-2.6-0.5-3.9c1.8-1.5,2.7,0.5,3.6,1.4     c5.4,5.1,7.2,5.1,12.2-0.8c0.8-1,1.6-1.9,2.8-0.8c1.3,1.1,1.6,3.5,0.4,3.9c-3.1,1-4,3.8-5.9,5.7c-0.6,0.6-1.5,1.3-2.2,0.8     C380,351.3,379.1,354.2,377.9,358.1z"
   id="path215987"
   style="fill:#00bfff" />
			<path
   fill="#FF0000"
   d="M746.4,787.8c-0.4,1.7,0.6,4-2,4.6c-1.5,0.3-3.7,0.4-3.9-1.2c-0.2-2-2.9-4.6,0.5-6.3c1.5-0.7,1.9-1.5,0-2     c-1.1-0.3-1.3-1-1.3-1.8c0.1-2.4-0.8-5,0.9-7.2c0.7-0.9,1.8-1.1,2.7-0.6c2.9,1.5,1.7,4.3,2,6.7     C745.7,782.6,746,785.2,746.4,787.8z"
   id="path215989"
   style="fill:#00bfff" />
			<path
   fill="#FF0000"
   d="M669.3,438c0,0.9,0,1.4,0,1.9c-0.3,3-0.5,7.1-3.8,7c-3.4-0.1-1.5-4.3-1.8-6.6c-0.4-3.4,0.4-6.9-0.7-10.4     c-0.6-1.9-0.1-4.1,2-4.3c2.2-0.3,2.6,2.1,2.2,3.6C666.4,432.7,671.4,434.7,669.3,438z"
   id="path215991"
   style="fill:#00bfff" />
			<path
   fill="#FF0000"
   d="M543.7,658.1c-1.1-4.2,3.7-5.2,4.7-8.5c0-0.1,1.1-0.1,1.2,0.1c0.9,1.3,1.1,3.1,0,4.1     c-1.4,1.2-1.7,1,0.4,1.7c4.5,1.5,0.8,5.4,1.9,8.1c0.8,1.8-2.2,2.7-3.6,3.2c-1.9,0.7-2.5-1.7-3.3-3     C543.9,662.2,543.4,660.3,543.7,658.1z"
   id="path215993"
   style="fill:#00bfff" />
		</g>
		<g
   id="SR">
			<rect
   x="200.3"
   y="100.2"
   fill="none"
   width="600"
   height="200"
   id="rect215996" />
			<path
   fill="#FF0000"
   d="M414.4,204.7c3.1,13.7,12.9,19.7,28.7,19.7c15.8,0,22.5-6.2,22.5-16.2c0-11.1-6.6-15.9-29.9-21.4     c-37.1-8.7-46.3-22.2-46.3-40.7c0-23.8,17.8-40,50.1-40c36.2,0,50.7,19.5,52.6,39.5h-29.7c-1.4-8.4-6.1-17.5-23.7-17.5     c-12,0-19.2,4.9-19.2,14.6c0,9.5,5.8,13.3,27.9,18.5c39.7,9.4,48.4,24.1,48.4,43.4c0,24.9-18.9,42-54.9,42     c-34.6,0-52.9-17.1-56.2-41.9H414.4z"
   id="path215998"
   style="fill:#00bfff" />
			<path
   fill="#FF0000"
   d="M536.5,190.1v54.6h-28.8V108.2h60c29.8,0,45.8,16.4,45.8,37.5c0,18.3-10,28.2-19.8,32.3     c6.8,2.5,17,9.5,17,34v6.7c0,9.2,0.1,19.6,2,26h-28c-2.4-5.9-2.9-16.2-2.9-30.7v-2c0-14.9-3.8-22-25.8-22H536.5z M536.5,166.6     h24.7c16.2,0,22.4-6.1,22.4-17.6c0-11.1-7.3-17.3-21.7-17.3h-25.5V166.6z"
   id="path216000"
   style="fill:#00bfff" />
		</g>
	</g>
</g>
<g
   id="scratch"
   display="none">
</g>
<g
   id="smoke_00000160174021868582459990000000792620422660026007_">
</g>
<g
   id="text">
</g>
<g
   id="guides"
   display="none">
</g>
</svg>
