<svg xmlns="http://www.w3.org/2000/svg" xml:space="preserve" baseProfile="tiny" overflow="visible" version="1.2" viewBox="0 0 1000 1000"><path fill="none" d="M0 0h1000v1000H0z"/><path d="M659 528.9c-3.7-5.4-6.8-2.7-9.6.5-2.3 2.6-4.6 2.8-7.2.9-2-1.5-2.4-3.2.3-4.6-6.5.9-10.9 5.5-11.2 11.7-.2 4.2 3.8 4.4 6.1 5.1 16.6 4.4 33.1 10 50 12 10 1.2 19.6 3.9 29.6 4.9 1.3.1 2.8.5 3.8 1.3 7.2 5.2 14.7 4.8 22.6 1.9 3.2-1.2 6.6-1.8 10-2.1 3.8-.3 7.3 0 7.2-5.7 0-3.5 3.2-3 5.2-2 3.8 2 7 .8 10.2-1.1-4.3-8.2-4.3-8.2-11.7-1.6-1.4 1.2-2.4.8-3.6-.2-1.1-.9-2.6-2.4-1.3-3.3 7.8-5.7 3.3-15 6.9-22.6 1.9 2.8 1.4 7.2 6.1 7 4-.1 5.4-3.1 7.5-5.3 1.7-1.8 3.5-2.6 6.8-3.3-3.7 9.3 2.4 8.1 7.2 7.8 4.1-.3 8.1-1.3 12.2-1.9 4-.6 7.2 1.1 7.6 5 .7 5.9 5 8.9 8.8 12.3 1.7 1.5 3.6 2.2 1.2 4.6-3.8 3.8-1.4 6.3 1.9 8.7 1.8 1.3 3.6 2.8 5.2 4.4 1 1 3.4 1.8 1.5 3.7-1.2 1.2-3 .5-4.5-.3-10.9-6-10.9-6-16 5.5-1.4 3.2-3.4 4.8-7.2 5-6.6.4-13.1 1.4-19.6 3.4-5.9 1.8-13.3-.4-20.1.5-6.7.9-7.8 2.5-4.4 8.5 1.7 3 .2 3.4-2 4.1-3.5 1.1-7.1.8-10.8.1 2.4 2.3 6 5.7 4.9 7.4-2.1 3.2-5.8 6.4-10.7 4.3-4.7-2-10.4 1.2-14.6-3.1-.2-.2-1.1-.3-1.3-.1-4.5 5.5-9.1 1.4-13.5 0-4.1-1.2-6.9.7-9.5 2.9-2.7 2.3-4.7 3.4-5.8-1-.8-3-3.4-3.4-5.6-4.4-15.5-7-32-7.7-48.7-7.7-3.6 0-6.9.9-9.7-2.9-1.3-1.8-4.8-2.1-7.5-2.8-14.3-3.4-28.6-7.1-42.3-12.8-7-2.9-9.7 3.6-13 7.3-2.7 3-5.1 4.5-9.1 4.9-4.3.4-8.1 1.6-12.2 4.4-4.7 3.2-12 1.2-17.9-.1-9.3-2-17.7-9.4-28.9-3.8 5.5-4.5 2.5-7.8-.2-10.7-2.5-2.8-6.4-2-8.9-.6-8.2 4.3-17.4 4.8-26 8-9 3.3-14.9.4-18-8.4-2.1-5.7-6.6-8.6-10.9-11.6-3.1-2.1-2.8-4.5-2.7-7 .1-2.8 2.6-3.5 5-3.7 2.8-.2 6-.9 6.4-3.8.2-1.6-.3-5.6-3.9-5.3-2.9.2-7.4-2.6-7.9 3.3-.1 1.4-1.4 2.4-2.3 1.6-1.5-1.2-2.8-2.9-3.7-4.6-.9-1.6.5-2.5 1.9-2.9 8.5-2.3 3.6-5.7.6-8.5-5.2-5-10.6-5.9-14.5-2.6-4.4 3.8-4.9 9.5-1.1 14.4 1.1 1.4 2.9 2.5 2 4.6-.6 1.2-2 .6-3.1.8-2.8.4-4.5-2.2-4.1-3.5 1-3.9-2.4-4.4-3.7-6.5-1.6-2.5-6.2-5.7.1-9.7 3-1.9 3.3-8.1 4.4-12.5.8-3.1 2.1-5.5 4.6-7.6 3.1-2.6 3.8-5.5-.7-7.6-.6-.3-1.3-.5-1.9-.8-7.7-4.7-7.8-4.7-8.7 4-.2 2.3-1.6 3.2-3.7 3-3.6-.4-8.3-2.5-7.4-5.6 1.7-6.1-2.9-4.9-5.3-6.5-1.8-1.2-5.2-.7-5.4-3.5-.3-3.7 3.8-.8 5.2-2.7.6-.8 1.8-1.1 3-2.2-4.6.9-5.8-1.2-6.8-5.1-2.2-8.4-10.4-12.1-18.9-10-3.9 1-8-.3-12-.8-9.4-1.4-18.7-1.4-27-7.9-2.9-2.3-9.2-.4-14.2-.4.1-4.2 2.7-4.4 5.1-4.9 3.5-.7 3.8-3.3 3.5-6.1-.4-3.2-3-1.8-4.8-2-10.1-1-17.8 5.7-28.5 7.4 7.1 4.9 13.3 2.3 19.3 3.1-12.2 4.6-16.7 16.5-24.9 24.7-1.2 1.2-2.5 1.9-4 2.3-7.6 2.3-14.6 6.3-22.7 7.1-2 .2-3.8 1.4-4.4 2.9-1.7 4.9-6 7.2-9.5 10.3-1.8 1.6-3.4 3.4-3.7 5.6-.3 2.9-.4 7 2.9 7.6 2.9.5 6-2.3 6-5.7 0-7.8 5.3-11.2 11.2-12.7 7.2-1.8 13.7-5 20.5-7.5 3-1.1 6.1-2 7.7 1.5 1.4 3.1-1.9 4.4-3.9 5.3-3.9 1.8-6.2 4.3-8.3 8.3-2.4 4.8-5.7 9.4-9.6 13.7 6.3-3.2 14-2.6 18.8-9.1 1.9-2.5 5.2-4.2 8.2-5.7 1.8-.9 4.8-.3 4.9 1.9.1 1.7.7 4.7-2.4 5.7-14.3 4.5-24.1 14.1-30.9 27.1-.5 1 .1 2.5.1 3.7.2 6.1-1.7 7.6-7.3 4.9-2.8-1.3-5-1.7-7.6-.2-2.9 1.6-5.8 1.1-8.6-.2-3.9-1.8-7.6-3.4-11.1.5-.9 1-2 1.1-2.9 0-1.9-2.4.2-4 1.6-5.2 2.1-1.8 3.6-3.6 2.1-6.4-1.3-2.5-3-4.6-6.4-4-2.2.4-4.4-.5-6.7.5-4.5 1.9-8.9-.4-13.3-.8-1.6-.2-2.4-.5-1.4-3.1 1.6-4.6-3.4-10.3-9.7-11.2-3.9-.5-8.2.9-8.9 5.6-.5 3.3-6.1 6.4-.5 10.4 1.5 1.1-.7 3.1-2.4 3.9-3.5 1.7-7.1 3.3-5.2 8.4.4 1-.1 1.9-1 2.2-1.4.5-1.9-.8-2.6-1.7-5.7-7.8-4.4-14.7 4.2-20.8 11.3-8 16.5-25.4 11.4-38.7-.4-1.1-1-2.3.1-3.1 6-4.7 8.6-13.1 16.6-15.5 7.4-2.2 12.7-8.4 20.6-9.9 3.6-.7 5.9-4.8 4.7-9.4-.5-2-.3-3.7 2.4-3.7 3.2 0 6.5-.4 9.6.1 7.9 1.3 12.8-.7 16.7-7.5.9-1.6 1.5-3.4 2.6-4.8 1.7-2.2 3.6-4.3 5 .3.4 1.4 1.5 2.1 3 2.4 3.1.5 3.3 2.5 2.2 5.1-3.6 8.9-1 12.3 8.2 11.3 1.8-.2 3.6 0 5.8 0 1.3-2.7-3-5.7.5-8.6 2.8-2.3 6-1.7 8.8-2.7 9.4-3.2 18.5-3.4 27.8 0 3 1.1 5.7-1.9 8-2.5 8.3-2 13-8.7 19.9-12.4 1.8-.9 4.4-1.4 3.9-4-.7-3.5-3.8-1.2-5.7-1.8-.8-.2-1.8 0-2.7.1-2.6.2-5.9 0-6.4-2.6-.6-2.8 1.6-5.8 1.6-9 0-.6 2.6-.6 3.8.1 1.8 1 3.4 2.1 5.7 1.7 4-.7 6 .9 5.7 5.3-.3 4.1 1.2 4.9 5.7 4.5 9.5-.8 18.3-5.4 28.3-4 9.3 1.3 18.5 2.3 27.1 6.5 1.5.7 2.7 1.7 3.7 3 6.4 8.1 14.9 12.8 26.3 14.8-4.9 2.5-9.7 3.4-9.7 9.5 0 1.8-2.5.7-2.8-1.3-1.2-7.4-6-5.5-10.3-3.8-8.3 3.3-14 9.8-19.1 17-1.1 1.5-3.6 2-5.1 3.3-2.4 2.1-6.4 2.8-5.1 7.9 1.1 4.6 3.7 7.3 7.5 9.3 2.4 1.2 5 1.8 7.4 3.3 9.4 6.1 18.1 2.4 21.3-8.5.5-1.7 1-3.6 2-5.1 2.7-4.3.1-5.1-3.3-5.7-1.5-.2-4.8 1.1-3.8-1.6.5-1.4.2-6.4 4.6-5.1 2.8.8 4.2-.9 5.7-2.7 1-1.3 1.8-3.8 4.2-2 1.9 1.4 3.7 2.5 3.5 5.9-.3 3.8-3 5.9-4.5 8.4-3.2 5.1-2.9 11.7-7.8 16.1-3.5 3.1-1.1 8.1 4.6 9.3 7.3 1.6 14.7 3.5 22.1 3.6 12.2.2 23.5 4.5 35.3 6.7 1.7.3 3.3 1 5.2 1 5.8.1 8.7-.6 3.4-6.3-2.8-3-.5-6.5-.2-9.6.9-8.8.2-10.5-8.5-11.3-3-.3-3-2.5-3.9-4-1.5-2.4.7-3.1 2.4-3.8.6-.3 1.7-.2 1.9-.7 2.8-5.4 5.4-8.4 8.9-.2.7 1.6 3.9.9 5.8.2 8.3-2.9 11.8-10.1 15.1-17.4.7-1.5-.2-2.7-1.4-3.5-6.8-4.8-27.4-4.3-34.1.8.1 1.6 1.6 1.3 2.4 1.8 1.5 1 3.8 2.4 2.8 4.1-1.6 2.6-3.9.2-5.2-.8-3.2-2.4-6.1-4.7-10.4-2.8-2.2 1-3.7 2.7-3.2 4.7 1.4 5.7-1 6.5-6.1 7.4-3.4.6-7.9 3.5-7.5 9.2.2 2.8-1.1 5.7-1.7 8.6.8 1 1.9 1 3.1.8 2.5-.3 5.1 1.7 4.8 2.9-.7 2.7-2.4 5.5-4.5 7.3-1.9 1.5-3.5.1-4.1-2.6-.5-2.3-2-.8-3.1-.1-1.8 1.1-3.9 2.3-5.7.7-2.2-2 1-3.5 1.1-5.5 0-1 .6-2.7 1.3-3 6.7-2.7 3.5-10.6 7.8-14.4.4-.4.8-1.6.5-1.9-7.3-9.5 4.7-8.8 7-13.2.7-1.3 4-.8 3.6-3.3-.3-2.2-2.1-3.3-4.3-3.9-6-1.6-12-3.4-18-5.2.6-2 2.1-2 2.9-1.6 7.7 3.7 16.9.6 24.1 5.5 1.6 1.1 2.4-.2 3.6-.4 9.9-1.9 19.9-3.7 29.8-5.5 2.9-.5 5.1.2 7.5 2 6 4.5 13.2 2.9 18.7-2.4 5.9-5.6 12.2-10.9 21.5-9.9 5.5.6 11.1-3.2 16.9 1.6 1.1.9 7.5-3 11.5-4.5 6.1-2.3 12.1-4.7 17.9-7.7 1.6-.8 3.9-.9 4.9-4.3 1.2-4 6.3-1.7 8.4.5 5.3 5.6 12.4 6.1 18.9 8.2 3.1 1 6.5 2.1 8.5 4.2 9.1 9.4 19.7 8.6 30.9 5.9 2.4-.6 4.9-1.2 7.4-1.3 3.2-.1 5.4-.7 4.9-4.6-.1-.5.5-1.3 1-1.7 7.4-5.7 8.5-15.9 15.8-21.7 3.1-2.5 1.6-7 4.9-10 4.4-3.8 9.4-4 14.4-4.8 4.3-.8 8.2-2 11.2-5.4 1.9-2.3 13.4-2.5 15.5-.4 3.7 3.7 3.7 7.1.4 11.9-6.9 10-11.2 21.8-20.7 30-.3.3-.9.6-.9.9-.1 2.1 1.2 4.4-1.6 5.9-2.3 1.3-4.4-1.6-7 .3 2 2.1 5.2 3.1 5.5 6.7.1 1.4 3.4 2.6 4.8 1.6 5.8-4.3 13.2-.4 19-4.4 1.8-1.2 4.6-1.1 6.3.9 2.5 2.8 1.4 7.2.2 8.8-2.6 3.8-1.2 7.2-1 10.7.2 3.1-.1 5.6-2.7 7.9-4 3.6-4 9.4-6.2 14.1-1.6 3.3 2.4 3.5 4.5 4.6 9.3 4.8 19.2 5.6 29.4 5.1.9 0 2 .8 2.9 1.5 5.6 4.2 6.7 3.5 9.6-2.4 2.2-4.6 7.6-2.1 11.6-2.8 1.5-.3 3.4-.1 3 2.4-.4 3.3-.9 6.4-5.3 6.6-1.6.1-3.1.7-4.7 1-1.8.3-3.1 1.3-3.2 3.1-.1 1.9 1.9 1.5 3.1 1.8 6 1.7 11.5 5.7 18.3 2.1 2.2-1.2 4.7.4 6.2 3 1.6 2.8 4.1 4.6 7.4 3.5 2.8-.9 4.9-2.2 2.3-5.8-.6-.9 2-1.9 3.1-1.8 9.1.4 16.3-3.1 22.4-9.6 1.5-1.6 4.3-3.6 5.8-1.4 1.5 2.1-.5 4.7-2.8 6.1-4.5 2.7-11.8 4.3-13.1 8-2.4 6.9-7.9 5.9-12 8.1-3.8 2.1-8.1.4-12.2 1.3-10.7 2.3-20.8-1-31.1-3-3.1-.6-4.9-2.1-4.4-4.9.7-3.7-1.6-4.4-4.1-4.9-5.6-1-11.3-1.9-17-.2-4.6 1.4-7.9.2-9.9-4.6-1.9-4.7-4.4-7.4-10.9-6.4-5.2.8-11.3-.3-16-4.5-3.9-3.6-7.2.3-10.7 1.3-15.9 4.6-16.2 5.4-14.7 22 .5 5.1 5.7 9.5 2.2 15.2-.7 1.1-.4 2.8-1.8 3.5-2.9 1.5-3 8-7.2 5.7-3.2-1.8 1.7-4.7 1.8-7.5.1-3.2 2.3-6.9-3-8-1.5-.3-2.9-2-1.4-2.9 6.9-3.8.3-12 5.5-16.4 1.4-1.2-1-2.5-2.6-2.8-3.3-.5-7.9 3.7-7.9 7.1 0 4.9-5.6 8.7-10.3 6.9-1.9-.7-2.8-.6-3.5 1.5-1.5 4.3-5.2 7.2-6.6 12.2-1 3.4-8.5 5.3-13.3 7.1-1.7.6-2.5-1.6-.7-3.1 1.6-.1 3.3-.9 4.9-2zm-93.5-68.1c-3.6-7-2.7-12.5 3.8-16.6 2.9-1.8 2.1-3.2-.2-4.3-4.9-2.3-25.3 2.5-29.5 6.2-5.9 5.1-7.4 14.1-15.5 17.2-1.6.6-.9 2.6-1.7 3.4-3.8 4 1.1 8.2-.5 12.2-2.4 6.1-5.6 11.7-3 19.2 1.5 4.4 4.1 7.3 6.6 10.4 2.1 2.5.3 3.2-.8 4.3-1.5 1.5-2.9.8-3.8-1-.7-1.4-1.3-3-2.3-4.2-2.6-3.5-7-3.4-9 .2-1.9 3.5 2.4 10.1 6.9 9.8 7.1-.6 15.2 1.5 20.5-5.8 1.2-1.7 3.3-1.3 5-1.8 7.6-2.1 15.2-4.3 21.7-9.1-2.1-2.9-5-2.9-7.7-2.9-2.3 0-4.9.6-5.4-2.6-.4-2.7 1.4-4.1 3.9-4.7 4.3-1 4.2-3.5 2-6.5-3.2-4.4-6.5-8.2-12.8-7.3-2.8.4-5.4-1.7-2.5-3.7 4.3-3 1.1-3.9-.4-5.9-.9-1.2-2.4-2.6-1.2-4.2 1.3-1.7 2.9-.1 4.4.2 1.5.2 2.1 1.7 3.1 2.3 5.8 3.7 7.1 10.6 11 15.4 3.5 4.2 7.2 8.4 8.1 13.5 1.3 7.4 6.5 6.4 9.8 4.3 3.7-2.4 7.5-2.2 11.8-2.9-8.8-7-17-13.6-25.3-20.2 2.5-2.2 3.4-5.4 1.8-9.3-.5-1.2-1.5-2.8.1-3.6 1.5-.7 3.5-.1 4.3 1.3 1.7 3.1 7.4 5.4 6 7.8-3 5.1.4 8.5 2.4 10.8 7.2 8.3 20.8 10.1 31.7 6.1 6.2-2.3 9.5-6.5 9.9-12.5.4-6.3-3.7-9.7-9.6-11.1-2.5-.6-3.9-2.6-1.4-4.4 3.8-2.6 1.6-3.4-.8-4.6-1.2-.6-2.4-1.5-.8-3.5 4.1 2.2 7.7 5.5 12.2 7 1.1.4 2.7 2.2 2.5 2.9-1.5 4.5 7 8.1 1.2 13-.1.1.5 1.2 1 1.6 3.2 3.1 15.4 1.3 16.4-2.9 1.6-7.2 6.5-12.3 9.7-18.5 1.2-2.4 7.5-7.6-1.4-9.3-.6-.1-1.6-1.4-1.4-2 1.1-4.2-1.9-3.7-4.5-4.8-5.1-2.2-10.1-3.6-15.7-2.6-2.1.4-4.1-.6-1.9-3 4.3-4.8 1.1-5.6-2.8-5.3-9.5.7-19 1.9-28.6 2.9-3.1.3-4.1 2.5-4.7 5.2-.8 3.5 2 3.4 4 4.3 3.7 1.7 8.1 1.9 10.9 5.3.8 1 2.4 1.9 1.2 3.4-1.3 1.7-2.3.2-3.2-.7-2.6-2.4-5.3-2.1-8.7-1.8-10.6.6-18.3 7.5-26.8 13.4zm-201.9 9.7c1.2-2.7-1.7-4.4.6-5.8 1-.6 2.4-1 3.1.1 4.1 6 11.4 4.8 16.8 7.7 3.8 2 4.6 1.3 5.2-2.4.9-4.7 2.9-8.4 8.8-7.9 1.2.1 2.3-1.3 3.6-1.7 8.9-2.6 13.4-12.5 23-14 .5-.1 2.1-1 1.4-2.4-2.1-1.1-5.9 1.2-6-3.6-.1-8.5-3.9-10.2-12.4-10-6.8.2-14.4 2.7-20.8-3-1.8-1.6-4.9-2.5-7.6-.1-2.7 2.4-4.5 8.9-9.7 2.7-.5-.6-1.1.3-1.7 1.2-1.8 2.9-4.5 5.3-2.5 9.3-2.9-.1-4.1-2.2-4.5-3.3-1.4-3.7-4.5-4.3-7.1-3.1-3.1 1.4-8 2.7-7.5 7 .5 4.2-1.6 5.9-4.3 7.5-4.1 2.5-3.4 6.3-2.7 9.6.5 2.8 1.5 5.1 5.5 6.8 6.2 2.5 13.3 0 18.8 5.4zm-138.3 7.8c-2.6-2.8-5.9-1.5-8.7-2.4-10.6-3.2-16 1-15.2 11.8.2 2.2-1.2 3.3-2.4 4.6-2.5 2.8-4.2 6.3-6.4 8.9-3.2 3.9-.1 5.4 1.2 7.4 1.6 2.5 3.6 1.6 5.5-.5 1.5-1.6 3.5-1.4 5.7-.5 9.3 4.2 18.8-1.1 28.2 0 1.5.2 3.7-3.1 2.2-3.4-5.9-1.1-4.9-7.2-8.4-9.9-6.4-5-6.6-8.8-1.7-16zM517 580.2c3.4 2.2 6.8 4.1 9.9 1.9 3.6-2.6 7.2-2.4 10.3-.6 12.3 7 21.2-1.1 30.8-6.4 2.6-1.5 2.6-3.6.1-4.5-11.4-4.3-22.7-8.1-35.3-8.2-7.6-.1-11.8 6.3-19.3 6.3 4.7 3 11.5 5.2 3.5 11.5zm183.3-125.4c-3-2.4-8.4-2.2-7.6-6.3.6-3.4 4.2-5.5 8.5-5 1.3.1 4-1 3.5-2.4-.8-2.1-1.9-4.9-4.6-5.2-1.9-.3-4.3-.1-6 .7-5.9 3.2-10.1 8.4-14.6 13.2-1.6 1.7-1.5 4.9-5 3.5-3.7-1.4-1.3-3.5-.4-5.4 1.2-2.8.6-4.5-2.9-4.1-1.7.2-3.9-.4-4.8 1.7-1.5 3.4 1.5 5.4 2.5 8 .7 1.8 4.2 2.6 2.1 5.6-1.5 2.2-4 2.7-6.1 2.3-2.3-.4-4.5-1.6-4.5-5 0-3.9-2.4-3.4-4.9-1.9-5.8 3.4-4.5 10.4-7.9 15.2-1.2 1.6 1.7 3.5 3.4 2.7 5.6-2.7 12.6-1.2 17.6-5.1 4.8-3.7 10-4.7 15.6-5.8 5.4-1.2 11.3-1.9 16.1-6.7zm-455.4 91.5c3.1 1.3 4.6-.2 6.2-.8 8.5-3.5 10.1-7.5 6.3-15.5-.7-1.5-.1-2.7.6-3.9 2.6-4.7 5.1-9.5 7.8-14.1 1.2-2 1.5-3.8-1.3-3.8-4.2 0-8.5.6-9.9 5.5-2 7-5.6 11.3-13.5 12.4-9 1.3-11.6 6.7-7.6 14.4 2.5 4.6 8 4.8 11.4 5.8zm543.3-9.3c-2.1-.1-4 .1-6 1-2.7 1.3-6.8 1.3-5.8 5.8.9 4.1 4 7.4 8 7.3 7.5-.2 14.8-3.1 22.6-2.1 2.7.3 6.8-2.5 6.7-6.2 0-3.1-3.3-5.4-6.5-4.8-6.5 1.5-12.7-.6-19-1zm3.7 33.7c4.8-1 9.8-1.7 14.5-3 3.9-1.1 7-3.5 5.4-8.4-.9-2.8-10.5-5.6-12.7-3.5-3.6 3.5-7.9 4.9-12.7 5.7-1.6.3-3.2.9-3.3 2.9-.1 1.5.6 2.5 1.9 3.4 2.2 1.4 4.1 3.1 6.9 2.9zM230 522.5c-5.5-5.4-13.7 1.1-18.4-5.5-.5-.7-1.5.4-2.3.9-6.9 5.1-7 5.2.8 9.1 1.9.9 3.3 1.9 4.6 3.6 2.8 3.5 7.2 2.7 10.8 2.4 3.6-.3.9-3.7 1.2-5.6.5-2.3 2.4-3.2 3.3-4.9zm530.9 44.9c6.2 3 13.4 1.7 17.2 8.3 1 1.7 4.4 1.8 5.7-.8 1.3-2.5-.2-4.5-2.5-5.3-2.1-.7-4.4-1-6.6-1.2-1.7-.1-3 .6-4.3-1.7-2.7-4.9-6-3.4-9.5.7zm-247.5-76.8c.7-4.3 1.1-8.3-3.1-9.1-4-.8-3.2 5.2-6.4 6.4 1.7 3 2 7.6 6.1 8.1 4.3.5 3.7-3.3 3.4-5.4zm116.5 32.8c.4-1.8.6-4.2-1.6-3.6-3.2.9-9.4 1.4-9.1 3.1.6 3.7 3.9 9.5 6.5 9.7 6.4.5 1.4-6.7 4.2-9.2zM614 536.8c.3-3.5-2.2-5-3.2-7.2-1.2-2.5-4-1.1-6.1-.8-1.3.2-2.3 1.9-2 3.2.5 2 2.6 2.8 4.2 2.5 2.8-.6 4.1 2.4 7.1 2.3zm-360.4-81.9c2.9-1 4.2 2 6.8 1.5 2-.5 3.8-1.9 3.5-3.7-.5-3-3.6-2.2-5.7-2.5-2.6-.2-3.4 2-4.6 4.7zm456-8.6c-1 1.6-4.3-1.6-4.5 1.9-.1 2.2 1.8 4 4.5 4.2 2.8.2 4.4-1.3 4.5-3.9.1-3.4-2.7-1.4-4.5-2.2zm-136.4-2.1c3.2 1.7 5.6 5.2 9.2 1.7 1-1 1.6-2.5.3-3.5-3.2-2.6-6.1-1.2-9.5 1.8zm92.7 67.3c-1.7 1-3.1 7.9-1.4 7.3 2-.6 4.3-1.7 4.5-4.4.2-1.8-.7-2.9-3.1-2.9zm-331-55.1c-3.4-1.7-6.4-1.7-9.2.7-1.1.9-1 2.2-.2 3 3.5 3.1 5.3-1.7 8.2-1.9.3 0 .6-.9 1.2-1.8z"/><path d="M219.7 568.7c6.5 2.1 7.2-3.9 9.7-6.2 4.5-4.1 8.5-6.1 14.2-3.2 3.9 2 7.8 3.5 12.5 2.6 3-.6 5.6 2.1 6.9 4.8 1.8 3.6-2.5 4.7-4.3 7.5 3.9.7 6.4.3 9-2.1 5.1-4.9 10.1-10.6 15.8-14 11.9-7.2 17.3-19.8 27.3-28.3 2.8-2.4 5.2-5.2 7.7-7.8 1.2-1.3 2.8-1.9 4.3-1 2 1.2.1 2.7.1 4-.3 7.7-5.7 9.5-11.7 10.9-5.2 1.2-9 4.9-11 9.1-4.1 8.6-7.6 17-17.3 21.3-3.9 1.7-5.7 6.5-7.9 10.2-4 7-10.4 10.7-17.6 13.2-1.7.6-5.4 1.2-6.7-1.6-1.4-2.8 2.2-3.2 3.4-4.5-1.1-2.1-2.2-1.7-3.5-.9-5.6 3.5-12 5.2-18.3 6.9-2.7.8-7.1 2.6-6.7-3.5.2-2.6-1.9-2.2-3.3-1.9-2.1.5-3.7 1.7-3.5 4.2.5 5.4 4.7 8.9 10.4 9.5 7.6.8 15.4-1.2 22.8 1.3 3.3 1.1 8.4 2.3 7.5 5.9-.6 2.5-6 0-8.3-1.2-7.7-3.9-15.6-.6-23.3-1.8-7-1.1-13.9-9.3-12.2-16.2 1.1-4.2-1.6-7.6-2-11.4-.5-4.2 4.4-17 8.1-18.7 2.3-1 2.8-.1 2.6 2.1-.4 3.9-3 6.9-4.7 10.8zM305.7 401.5c-2.1 1.4-4 2-4.1 4.2 0 3.4-2.4 3.4-4.8 3.2-10.4-1-18.3 3.7-23.9 11.8-1.3 2-6.4 2.7-4.2 7.2.1.2-5 1.8-5 .4.1-3.6-3.5-6.7 1.2-11.4 5.3-5.3 12.3-7.4 17.3-13 6.1-6.6 14.7-4.6 23.5-2.4zM335.7 543c1.9 2.9.4 4.3-.9 6.1-3.4 4.5-2.5 6.8 3.2 8.4 3.5 1 7.2 1.1 10.5 3 1.2.7 2.4 1.6 2.3 3.2-.2 2.1-2 1.3-3.2 1.5-4.2.6-8.3.4-11.2-3.1-4-4.9-7.8-4.8-13.1-1.6-4 2.4-8.9 3.2-13.5 4.5-1.3.4-2.9 0-3.7-1.3-1-1.7 1.4-1.4 1.6-2.1 2.1-6.6 7.9-7.1 13.3-8.6 5.8-1.7 12-3 14.7-10zM777.9 482.2c.1-6.7 13-17.2 20.2-15.6 5 1.1 11.9-2.2 14.9 5.1.7 1.8 2.8 4 .6 5.5-2.2 1.5-3.1-1-4.3-2.7-3.9-5.7-9.4-2.2-14.4-2-4.6.2-2.1 4-3.2 5.5-3 4-6.7 8.6-11.2 10.2-4 1.3-.5-4.5-2.6-6zM167.9 564.3c2.4-4 4.1-9 9.2-9.7 4.6-.7 8.3 2.1 9 6.7 1.1 7.4 5.7 10.9 12 13.1 1.8.6 4 1.1 2.9 3.4-.9 1.8-3.8 1.5-4.9.6-2.8-2.4-6.4-3.4-9-5.6-4.5-3.8-9.5-5.8-15.2-5.8-2.4-.1-3.5-.7-4-2.7zM347.3 579c-2 2.4-5.4-.8-6.9 2.2-.5 1.1 0 2.4 1.1 3 2.4 1.3 4.8 2.5 7.1-.6 1.3-1.7 2.1-.3 2.7 1.2.7 1.7 1.5 3.3 2.5 4.8 1.4 2 4.9 4.3 3 5.9-2.3 1.9-6.5 2.1-9.4-.6-1.7-1.6-3.3-2.6-5.8-2.8-5.3-.5-7.2-6.3-4.1-13.4.9-2.1 1-5.7 4.9-5.7 4.3.2 3.9 3.7 4.9 6zM309.6 584.9c-6.2-.9-10.9 4-16.7 3.2-3.2-.4-2 2.4-2 3.9 0 2.6-.8 4.6-3.7 4.7-3.7.1-7.6-.9-9.9-3.4-1.2-1.3 1.7-4.5 3.9-5.6 6.4-3.2 12.9-6.5 19.6-9 4.8-1.8 5.6 4.1 8.8 6.2zM395.3 528.4c-.2 1.4-.3 2.7-.5 4.1-.3 1.7.1 4.1-2.3 4.4-2.5.3-2.3-2.4-3.1-3.9-2-3.7-5.3-6.8-2.6-12.1.5-1-5.1-5.1-8-7.7-1.2-1-2.8-1.5-3.9-2.6-1-.9-1.6-2.4-.7-3.7.8-1.1 2.1-.7 3.1-.2 4.7 2.6 9.9 3.3 12.5 10 1.4 3.6 6 6.5 5.5 11.7z"/><path d="M316.5 507.9c-3.4 6.7-6.4 13.6-14.7 15.6-3.3.8-4.2 7.3-6 7.9-5.3 1.9-7.8 6.6-12 9.3-.8.5-1.3 1.4-2.1 1.8-1.4.7-2 4.1-4.2 2.2-2.4-2.1-.3-4 1.4-5.6 8.4-7.4 15.2-16.6 26-21.3 4.5-2 7.8-6.6 11.6-9.9zM360.5 487.9c-6.5-3.5-13.3 3.3-20.7-.3-3.8-1.8-3.8-5.1-6-7.3-1-.9 1.6-2.1 2.7-1.4 7.8 5.3 15.7 3.1 23.8.9 3.1-.8 7 0 7.2 4.2.1 4.2-3.8 3.6-7 3.9zM373.3 559.9c.6-3.9-2.5-5.8-5.4-7.2-3.5-1.6-5.9-2.4-3.3-7.3 1.5-2.8.8-7.6-5.1-7-1.5.2-3.2.1-4.5-1-1-.8-1.6-2.5-.8-2.9 3.8-1.9 7.8.5 11.7.2 1.4-.1 3.3 1.1 2.6 3.1-1.9 6.4 2.3 10.5 6 14.2 2.9 2.8 3.1 5.7 2.9 9-.1 2.1-1.6 3.4-3.8 2.9-2.6-.7-1.6-2.2-.3-4zM337.9 413c-6.6-2.5-12.1-3.2-17.8-2.3-3.2.5-4.9-1.5-5.4-4.8s1.6-4 3.8-4.5c7.2-1.7 16 3.2 19.4 11.6zM365.4 585.3c5.1.1 9.5 3.2 14.7 1.8 2-.5 3.9 1.8 4.4 4.3.3 1.6.6 3.3-1 4.3-2.1 1.3-3.2-.8-4.7-1.6-1.4-.7-3.4-2.1-4.2-1.7-8.5 4.8-8.3-1.4-9.2-7.1zM437 584.4c-5.1 12.7-15.1 16.5-28 15.8 2.1-3.6 5.3-3.9 8.6-3.7 6.1.3 8.1-3.9 10.2-8.6 1.8-3.8 5.4-4.4 9.2-3.5zM304.2 492.1c-1.3-.2-3.6-1.5-2.9-1.9 3.9-2.7.9-9.6 6.6-10.6 1.8-.3 4.8.3 5.3 3 .6 3.1-5.7 9.4-9 9.5zM679.4 542.6c.8-3.3-.1-7.7 5.1-7.9 2.1-.1 4.9 0 5.8 2.5.8 2.1-1.4 3-2.7 4.2-1 .9-2.3 1.7-2.8 2.8-.8 1.7-2 2.5-3.7 2.2-2.2-.4-1.2-2.5-1.7-3.8zM403.9 579.7c-5.7-2.3-3.1-10.2-8.7-12-.4-.1 1.1-2.3 2.5-2.4 2.1-.2 5.3-1.7 5.5 1.6.3 4.1 2.1 8.2.7 12.8zM683.2 523c-6.5.9-3.3 7.5-6.9 10.2-1.1.8-2.5 1-3.8.2-1.1-.7-1.9-2.4-1.3-2.8 3.6-2.2 2.7-7 5.7-9.4 1.2-.9 2.5-2.3 4.2-.8.6.6 1.1 1.4 2.1 2.6zM431.7 566.6c5.1 2.1 7 6.3 7.7 11.1.2 1.4-.1 3.3-2.2 3.5-1.6.2-2-.9-2.7-2.2-2.3-3.9-.7-8.5-2.8-12.4zM340.2 526.6c-.2 4.8-3.3 7.2-7.9 8-1.4.2-2.1-1.4-1.4-2.3 2.4-3.1 3.3-7.7 7.8-8.6 1.8-.4 2.1 1.1 1.5 2.9zM368.1 493.1c-5.7 4.8-11.5 3.4-16.1 6.1-1.8 1.1-2.3-.8-2.9-1.9-.6-1.1-.1-2.8 1-2.7 5.6.8 11-2 18-1.5zM376.3 612.2c6.3-2.3 12.3-2.7 16.6-6.9.7-.7 1.8-.1 2.1.9.4 1.2 0 2.6-1.1 3-5.2 2-10.1 6.4-17.6 3zM736.1 502.8c-5 1.5-9.1-1.4-13.6-2.4-2.2-.5-1.8-3.3-.9-4.6 1.4-2.3 2.5-.3 3.5.9 2.8 3.5 7.5 3.4 11 6.1zM766.8 521.9c-1.2-.3-1.5-.3-1.6-.4-2-3.7-7.5-5.8-5.1-11.4.3-.6-.1-2.6 1.2-1.3 3.5 3.4 4.2 8.2 5.5 13.1zM287.1 611.6c-5.5 1.7-10.9 4.4-17.2 0h17.2zM373.1 534.3c5.8-1.4 7.8 2.6 10.5 5.2.3.3 0 1.9-.4 2.3-.7.7-1.6-.1-2.2-.7-2.3-2.1-4.7-4.1-7.9-6.8z"/><path fill="none" d="M99.8 101h800v268.1h-800z"/><path d="M137.8 249.5v50.9h-24.7V177.2h50.2c23.3 0 39.9 11.5 39.9 33.4 0 16.8-8.9 24.9-19.2 28.8 12.2 4.7 16.6 14.4 16.6 29.7v3.2c0 10.9.6 21.3 1.6 28.2H178c-1.8-5.2-2.3-13.5-2.3-28.6v-3.2c0-14.1-5.1-19.1-21.2-19.1h-16.7zm0-19.9h18.8c11.9 0 21.8-3.2 21.8-16.8 0-11.4-8.3-15.6-18.3-15.6h-22.2v32.4zM296.1 252.6c0 27.2-13 49.6-44.7 49.6-32.5 0-43.8-23.9-43.8-49.1 0-23.2 13.1-47.6 45.1-47.6 30 0 43.4 21.8 43.4 47.1zm-63.6-.1c0 19.9 6.9 30.6 19.9 30.6 12.3 0 19-10.6 19-30.3 0-18.5-6.4-28.1-19.7-28.1-12.4 0-19.2 10.8-19.2 27.8zM377.3 276.4c0 6.3.4 17.5 1.3 24.1h-21.4c-.7-2.8-1.3-8.4-1.4-11.3-3.9 7.6-12.6 12.9-26.1 12.9-23 0-31.2-14.4-31.2-28.4 0-16.8 11.6-30.6 43.9-30.6h10.9v-6.8c0-7.6-2.4-13.5-13.3-13.5-10.8 0-13.4 5.5-14.3 12.4H302c1-14.7 9.8-29.6 38.4-29.6 22 0 36.9 7.6 36.9 30.6v40.2zm-23.1-17.7h-11.3c-16.7 0-19.8 6.8-19.8 13 0 6.3 3.8 11.8 13.1 11.8 14.6 0 18.1-9.7 18.1-22.9v-1.9zM471.8 169.6v104.9c0 10.9.2 20.5.4 26h-23.8c-.3-2.5-.8-8-.8-11-4.4 8.1-11.4 12.8-26.2 12.8-23.7 0-36-19.4-36-48.2 0-28.1 15-48.6 40.1-48.6 13.9 0 19.8 4.8 21.9 8.5v-44.4h24.4zm-61.4 83.6c0 17.5 5.9 29.2 19.1 29.2 16 0 19.1-10.8 19.1-29 0-19.9-4-27.9-18.3-27.9-12.1 0-19.9 9.2-19.9 27.7zM486.6 169.6H511v47.9c4-5.9 11.2-11.9 25.7-11.9 24 0 36 20.7 36 45.4 0 29.9-13.3 51.2-39.4 51.2-13.4 0-19.5-5.7-22.6-10.7-.1 3-.3 6-.7 9h-23.8c.2-6.2.4-19 .4-28.4V169.6zm61.5 82.3c0-15.3-5.7-26.4-19.1-26.4-14.6 0-19.2 9.8-19.2 27.7 0 19.2 4.9 29.2 19.1 29.2 13.1 0 19.2-11.7 19.2-30.5zM581.5 300.5V169.6H606v130.9h-24.5zM702.9 252.6c0 27.2-13 49.6-44.7 49.6-32.5 0-43.8-23.9-43.8-49.1 0-23.2 13.1-47.6 45.1-47.6 30 0 43.4 21.8 43.4 47.1zm-63.6-.1c0 19.9 6.9 30.6 19.9 30.6 12.3 0 19-10.6 19-30.3 0-18.5-6.4-28.1-19.7-28.1-12.4 0-19.2 10.8-19.2 27.8zM789.1 268c-2.7 18.7-14.5 34.2-40.7 34.2-28.5 0-41.9-17.7-41.9-48.1 0-29.5 16.4-48.5 43.4-48.5 30.5 0 38.6 21.9 39.2 34.8h-24.3c-.9-8.4-4.8-16.1-15.3-16.1-12.9 0-18.1 11.8-18.1 28.9 0 21.8 6.6 30.5 17.6 30.5 10.6 0 13.9-6.9 16-15.6h24.1zM820.8 246.2c6.7-8.5 18.9-24.4 29.7-38.8h27.7c-9.1 10.9-20.9 24.4-30.8 36.2 10.4 16.9 22.8 38.4 33.5 57h-28.1c-6.2-11.6-15-28.4-21.5-40.7-.5.5-10 10.9-10.5 11.4v29.3h-24.5v-131h24.5v76.6zM350 749l150 100 150-100zM400 699h200v50H400z"/></svg>