<svg xmlns="http://www.w3.org/2000/svg" xml:space="preserve" viewBox="0 0 800 800"><path fill="none" d="M0 0h800v800H0z"/><path fill="none" d="M99.6 399.8h600v200h-600z"/><path d="M251.8 487.4h-41.5v-24.2h112.3v24.2h-41.3v112.3h-29.5V487.4z"/><path d="M404.1 569.9c0 9.9 0 20.6.2 29.8h-27.8c-.4-2.7-.6-8.2-.8-11.8-6.1 10.3-15.1 14.2-28.2 14.2-20.9 0-34.2-12.7-34.2-38.1v-66.8h28.4v61.1c0 11.3 3.5 20.7 15.8 20.7 12.9 0 18.3-6.9 18.3-27.2v-54.5h28.4v72.6zM419.8 525c0-10.2 0-19.2-.2-27.8h27.8c.4 2.3.7 12.5.7 18 4.5-11.7 15.5-20.3 32.9-20.4v27.1c-20.6-.5-32.9 5-32.9 33.1v44.7h-28.4V525zM486.5 523c0-8.7 0-18.2-.2-25.8h27.5c.6 2.6.9 9.8 1.1 13.1 3.5-6.4 11.8-15.4 29.7-15.4 20.6 0 34 13.9 34 39.7v65.2h-28.4v-62c0-11.5-3.8-19.9-16.4-19.9-12.1 0-19 6.7-19 24.8v57.1h-28.4V523z"/><path fill="red" d="m249.7 209.4 23.6 72.6h76.4l-61.8 44.9 23.6 72.7-61.8-44.9-61.8 44.9 23.6-72.7-61.8-44.9h76.4z"/><path fill="#231F20" d="m612.2 399.6-61.8-44.9-61.8 44.9 23.6-72.6-61.8-44.9h76.3l23.6-72.6 23.6 72.6h76.3L588.6 327l23.6 72.6zm-61.8-55.5 45.3 32.9-17.3-53.2 45.3-32.9h-56l-17.3-53.2-17.3 53.2h-56l45.3 32.9-17.3 53.2 45.3-32.9z"/></svg>