<svg xmlns="http://www.w3.org/2000/svg" xml:space="preserve" viewBox="0 0 800 800"><path fill="none" d="M0 0h800v800H0z"/><g fill="red"><path d="M294.2 184.1c1.6-3.3 3.3-6.6 5.8-9.4 2-2.2 2.7-4.9 2.5-7.6-.2-4.2-4.2-3.4-6.7-4.3-2.4-.9-2.1 1.5-2.5 3.1-1.4-6.1-2.3-6.6-8-4.8-1.7.5-3.5.7-5.2 1.1-.1-1.3 2.5-1 1.5-2.4-.4-.6-1.8-.5-2.7-.7 3.6-2.1 7.7-2.6 11.6-3.7.3-.1.7-.2 1-.1 4 2.6 9.8 1.6 12.9 7.2 2-3.6 5.9-5.1 7.1-9.2.6-1.9 1.6-4 4.3-4 .1 1.9.3 3.8.1 5.7-.3 2.9 1.7 1.1 2.6 1.4-.8 3 2.6 6.5-1.4 9-1.4.1-.1-3.1-2.1-2.2-2.1 1-1.9 3.2-1.2 4.8.6 1.4.7 3.7 3.5 3.4 1.7-.2 2.2-2 3.8-2.1.5 1.4-.5 3.4 1.7 3.9-.3 1-.7 2-1 3-.3-.4-.5-.9-.9-1-1.5-.7-.8.7-.9 1.1-.1 2.3-.2 4.6-.2 6.9-2-1.5-3.9-3.3-6-4.4-6.3-3.3-9.2-1.7-10.2 5.5-.2 1.8-.3 3.5-.8 5.3-1.8 6.7-1.6 6.7-7.7 3.4 3.3-3.5 1.2-6.2-.9-8.9zM322 260.2c-2.4 2-5.5 2.9-7.7 5.3-.9 1-2.8 3.9-5.4.9-.8-1-3.2-.6-4.7.1-3.5 1.6-6.9 2.6-11 1.7-3.2-.7-4.5.5-3.5 4.5 1.2 5.1.7 10.6 3.7 15.3 1.1 1.7-.5 3.2-1.8 4.2-1.7 1.2-3.3.5-4.5-1 .4-.2.9-.8 1.2-.7 2.1.4 2.7-.6 2.8-2.6.2-3-2.6-1.4-3.8-2.4-1.3-1.1-.8 1.6-1.4 2.5-1.3-2.7-2.5-5.5-3.9-8.1-2.3-4.8-3.5-5.2-6.9-1.3-3.6 4.3-7.6 5.2-12.6 4.1 2.4-5 8.9-4.7 11.6-9.2.5-.8 1.4-.4 2.1.2 3 2.3 3.9-.3 4.6-2.3 1.4-4.6-2.7-9.8-7.3-9.1-1.2.2-2.3-.4-2.1-.6 1.5-1.8-1.8-2.1-.9-3.6 1.1-1.6 2 .4 3 0 2.8-1.3 5.9 3 8.6-.6 2.1-2.9 6.7-2.4 8.3-6.2.4-.9 1.7-1.5 2.5-2.3 0 1.4.1 2.8.1 4.3 0 1.4-.1 1.4 1.9.7.2 3.5-2.8 4.7-5.1 4.8-3.3.2-2.8 1.9-2.8 3.9 0 .9-.4 2.1.8 2.6 1.2.5 1.9-.6 2.4-1.2 2.3-3 4.5-4.7 7.8-1 .8.9 2.3.9 4 .7 5.8-.9 11-3.8 16.8-4.6.7 1.3 2.2.6 3.2 1zM523.1 248c1.2 2.2 3.5 2.6 5.5 2.9 2.6.3 4.6 1.5 6.6 3.1 1.1-1.6.8-3.8 2.5-5 .1.5.3.9.4 1.4 2.7-1.4 2.6-4.4 3.4-6.7.6-1.9-.8-2.6-2.5-2.6 4.1-3.8 8.2-7.5 10-13 1.7 1 3.3 1.9 5 0 1.8-.3 2.6 1.2 3.6 2.3 1.2 1.4 2.6 2.2 4.3 1.6 1.9-.7.5-2.7 1.1-3.9.6.1 1.2 1 1.9 0l-.1-.1c-.3 2.3.7 4.8-2.4 6.6-1.6.9 1 1.2 1.7 1.7.1 1.4-.9 2.1-1.8 1.6-3.1-1.9-4.3-1.2-4 2.4.1.7-.5 1.1-1.3 1.2-.6 0-.8-.3-.8-.9.2-2.7-2.8-3.4-3.5-2.8-1.7 1.5-4 2.4-4.9 4.8-1.2 3.1-.8 6.8-3.2 9.5-.3.3-.2 1.3-.1 1.4 6.1 1.7-2 4.7.6 6.7-.3.4-.7 1.1-1 1-7-1.3-6 5.7-8.7 8.7-.4.5-.7 1-1.4 1.1-.4-.8.3-1.9-.8-2.6-.6 1.8-2.6 2.8-2.4 5.1.3 4.8-2 2.7-3.9 1.2-2.1-3.4 2-4.5 2.8-6.9.6-1.9 2.2-3.4 2.3-5.7 0-2.6.2-4.6-3.7-4.4-3.4.1-5.5-3.1-8.2-4.8 1.4-.2 3.9.6 2-2.4-.5-.9.7-1.6 1-2.5zM618.9 171.2c-3.2 3.5-1.5 7.9-2.2 11.8-2-2.1.1-5.2-1.6-8-1.7 2.8-2.8 5.1-2.4 8-7-2.4-10-.9-12.7 6.4-.2.6-.8 1-1.3 1.5-1.7-1.5 1.7-3.3-.1-4.1-2-.9-3.7.5-5.1 2-2.7 2.9-7 4.1-8.7 8.1l.1-.1c-1.3 0-2.5.1-3.8.1 0-1.6-2.4-3.2.6-4.7.8-.4-.9-1.2-1.8-1.4 3.5-1 5.9-3 8-6.2 1.7-2.6 5.5-3.3 8.6-4.1 4.6-1.1 5.3-5.9 8.3-8.5.7-.6-5.2-7.6-6.9-8-5.7-1.1-11.3-2.2-17-3.2 2.1-2.1 4.9-.1 7.3-1.4 2.9-1.5-.6-1.5-.3-2.3 4.3-.8 8.5.5 12.5 1.2 1.9.4 4.2 3.1 6.3 4.7 3.2 2.5 6.1 4 10 2.9 1.9 1.4-1.4 4.8 2.2 5.3zM543.8 179.1l-12-21.6c-.8-1.4-2.1-2.6-1.6-4.4 3 .5 1.9-1.1 1.1-2.3-1.9-2.6-1.2-4.7.9-6.7 2.2 1.9 4.5 3.5 5.2 6.7.6 2.6 2.6 3.2 4.8 1.5.9-.7 1.9-1.5 2.5-2.4 3.7-6.7 9.8-5.2 15.4-4.1 1.9.4 4.3-.9 5.7 1.3-.7.3-2.8-1-1.8 1.5.8 2.1 1.3 4.2 2 6.3-4.1.7-6.4-3.1-10-4.2-4-1.1-6.5.7-8.6 2.7-2.9 2.9-5.2 7.3-3.1 11.1 2.3 4 2.9 9 6 12 3.8 3.5 3.8 8 5.3 12.1.7 1.8-.4 3-2.4 2.4-1.4-.4-3-.3-3.8-1.8.9-1.1 3.3-2.7 2.3-3.2-3-1.7-3.4-4.5-4.6-7-.7-1.4-2.3-1.4-3.3.1zM316 234.9c.1-.5 0-1.3.2-1.4 3.3-1.8 5.1-4.2 2.8-7.8-2.2-3.5-4.5-7-9.7-5.2-.9.3-2.2 1.8-3.1.4-2.1-3.1-8 1.2-8.7-4.7-.1-1.1-.8-2.1 0-3.2.9-1.1 1.8-1.3 2.9-.1.4.5.8.8 1.6.6 8.4-1.5 16.9.5 25.3-1.4 3.7-.9 7.4 1.1 11.4.6 1.6-.2 3.5-.1 4.9-.9 2.1-1.3 3.7-.6 5.5.3 1 .5 2.3 1.1 1.6 2.5-.5 1-1.2 1.4-2.8 1-4.1-1-8.6 1.6-10 5 0-.6.3-1.4.1-1.8-1.3-1.6-9-2.2-10.5-.8-1.1 1-2.8 2.3-1.6 3.7 3.7 4.7-.1 8.8-1.2 12.8-.6 2.1-1 3.4.1 5.5-1.9-1.2-3.7-2.2-5.8-2.1-.5-1.5-.8-3.1-3-3zM583.1 247c3.2 3.8 6.5 7.5 9.6 11.5.6.8 1.8 2 1.1 3.5-.6-.1-1.3-1.1-1.6-.3-1.1 2.7 2.9 8.5 6.3 9.4l5.4 5.4c.2 2.9-.8 6.5 4.1 6.3 1.1.4 1.1 1.2.8 2.2-1.3.6-1.9 1.6-2 3-7.6-1.4-9.2-9.9-15.4-13.3-1.5-.8-.2-3.8-1.7-5.8-1.3-1.7-3-2.7-4.5-4.2-1.5-1.4-2.8-.4-3 .8-.4 2.9-2.4 4.9-3.4 7.5-.3 0-.6.1-.8.2-2.8-.7-4.9-1.6-8.3.6-2.6 1.7-7.9 2.7-12.1 0-2.3-1.5-5.7-.9-7.6-3.6 2.3 0 1.9-1.8 2.2-3.2 3.4 1.1 6.7 3.1 10.6 1.1 1-.5 2.4-.3 3.7.6 1.6 1.1 3 1.3 3.9-1.3.4-1.2 1.4-2.8 4.2-1.9 3.3 1.1 7.2-4.3 7.5-9.4.5-.4 3 1.6 1.5-1-1.6-2.7-1-5.3-.5-8.1zM208.2 172.1c2 .2 4.7-2.4 5.7 2.1.4 1.8 2.9 1.1 4-.4 2.5-3.3 6.9-3.4 9.9-6 1.8-1.6 2.9.7 4.6.5.7-.1 1.9.9 1.6 2.1-.2 1.1-1.3.7-2.1.7-3.7.4-6.6 1.9-8 5.6-1.1 2.9.1 4.9 2.9 5.3 2.5.4 3.2 2 4.5 3.7 2.7 3.5 6.4 6.9 10.5 7.9 3.3.9 4.7 3.4 7.4 4.5.3.1.5.3.7.5-2.6 3.3 3.8 5.9.3 9.2-1.3-3.3-4.2-4.8-7.1-6.8-4.5-3.2-9.8-5.1-14-8.9-2.8-2.4-7.2-2.8-9.8-6.3-.9-1.1-2.2 2.1-3.9 2.2-.4-.5-.2-2.2-.9-1.4-1.6 1.6-2.8.4-4.2.3 5.1-5.9 4.4-8.2-4-12-.2-1.4 3.7 0 1.9-2.8zM504.1 209.3c.3 1.7 1.9 3.7-2.2 2.6-2.3-.6-5.7 2.3-5.8-2.8 0-.1-.9-.2-1.3-.2-5.2.4-7.3-.2-13.4-2.7-2.4-1-5.2.2-7.7-1.2-1.3-.7-4.2.8-3.6-2.4.6-3.1 4-2.5 5.4-2.3 8.5 1.5 17 2 25.6 2.8-.1 5.8-.1 5.8 3 6.2zM264.2 226c-1.1-1.6-2.6-3-3-5 2.5.5 3-1 3-3 .1.1.4.1.4.2.8 2 2.1 3.8 4.2 2.4 2-1.3-.3-3.1-.6-4.6 1-.3 3.6.3 2.4-1.4-1.2-1.6 1.9-5.4-2.6-4.8 2-1.9 4.1-3.8 7.1-1.5 3.3 2.5 2.4 6.1 2.2 9.3-.1 1.6-2.3.6-3.5.9-1 .2-2.5-.5-3 1-.4 1.3.7 1.5 1.4 2.1 1.8 1.6 2.1 3.3-.1 4.9-2 1.5-2.2 3.2-.1 5.2-1.9-1.5-2.8-4.4-5.8-2.8-1-.6 1.5-3.7-2-2.9z"/><path d="M210 186.9c1.4.2 2.7 1.3 4.2-.3.8-.8.5 1 .9 1.4-.1.3-.2.7-.3 1-4.4 2.9-4.4 9.2 0 12 1.6 6.4 4.2 12.3 9.4 16.8 1.4 1.2 1.1 2.7-.3 3.8-1.8 1.4-1.5-.9-2.2-1.3-6.2-3.1-7.6-10.1-11.1-15.1-3.3-4.9-4.5-12.1-.6-18.3zM501 188.4c1.2-5.6 2.7-11.9 7.4-18.2 3.2-4.4 8.5-5.8 10.9-10.6.7-1.4 3.1-.4 4.7-.5 1.2-.1 1.2 1 1 1.8-.3 1.6-1.6 3.1-2.9 3-5.5-.3-7.9 4-10.5 7.3-2.1 2.7-4.2 5.8-5.7 8.8-1.4 2.8-.9 6.7-1.2 10.1 0 .3.3.6.3.9.2 1.8-.1 4-1.7 4.5-.9.3-2.6-1.7-2.3-3.7.1-.7 0-1.4 0-3.4zM510.8 205c1.7-4.3 1.7-9.5 6.6-12.1 1.3-.7 2.2-1.1 3.8-.4-4 5.7-7.8 11.2-7.4 18.6.1 2.6.7 4.5 2.7 5.9 2.9 2.1 3.1 6.4 6.8 8 1.3.5 1 2.5.1 3.9-6.8-3.1-10.7-8.6-13.5-15.1.3-2.9 3.9-5.5.9-8.8zM264.2 226c3.5-.9 1 2.2 2 3-2 6.8-3.2 13.8-6.7 20.2-2.4 4.6-3.8 9.7-5.8 14.8-2.2-1.5-1.6-3.1-1.2-5.1.9-5.1 3.7-9.6 3.7-14.9 3.6-1.1 1.3-4 1.9-6l-.1.1c5.1.4 3.9-3.2 3.8-6.1l2.4-6zM605.8 230c3.2 7-.8 12.9-2.3 19.3-1 4.6-5.4 4.4-7.1 7.5-.2.3-1.8.2-2.2-.2-.7-.7.3-1.3.7-2 2.1-3.7 4-7.6 6.3-11.1 2-3 1.8-6.1 1.6-9.4 1.5-1-2.4-6.1 3-4.1zM249.6 168.5c-1.9-1.3-3-2.2-3.7-4.1-2.3-6.6-4-13.5-8.2-19.2-.7-1-2.6-2.5-.2-3.8 2-1.1 3.7.6 4 1.8 1.3 5.9 5.7 10.3 7.6 15.9.8 2.8 1.3 5.6.5 9.4zM228.6 262.2c-4.5 5.4-10.8 8.6-15.8 13.4-.9.9-2.2.5-4.4.1 7.3-7.1 14.6-13.3 20.7-20.6 4.3 2.7.2 4.7-.5 7.1zM329.9 234.5c1.4-3.5 2.6-3.8 6.6-2.3 4 1.5 8.5 2.8 12.9 3.8.9.2 2 .2 2.8.7 1.1.6 3.5-.2 2.8 2.3-.6 2.1-1.9 1.3-3.7 1.2-7.4-.2-13.8-4.2-21.4-5.7zM271.7 175.6c-2 1.9-2 4.2-5.6 1.9-4.3-2.7-9 .6-13.2 2.6-1.3.6-2.9 2.6-4 1-.9-1.4 0-3.7 1.7-4.9 3.8-2.8 7.2-4.8 12.6-3 2.5.7 5 2.1 8.5 2.4zM319.9 183.1c.1-2.3.1-4.6.2-6.9 0-.4-.6-1.8.9-1.1.4.2.6.7.9 1 .7 6.6 3.8 12.3 6.7 18.2 1.7 3.5-.9 7-.9 10.5 0 .3-1 1.1-1.4 1-.5-.2-1-.9-1.2-1.4-.6-2-.4-4.3-.5-6.3-.1-5.7-2.4-10.3-4.7-15zM496.1 247c-2.4-6.9-1.6-13.5 1.8-20 .7-1.3 1.5-1.1 2.4-.8.7.2 1.8.8 1.3 1.6-5 7.4-.8 14.3 1.2 21.3-.9-.1-2.5.4-2.6-.7-.3-4.2-2.7-1-4.1-1.4zM508 256.2c4.2.1 6.3 4 9.8 5.6 1.9.9-.2 4.5-.7 7-.8 3.7-2.9 4.4-6 4.2.8-1.5.4-2.5-1.2-3.2 2.1-2.7.5-5-.8-7.3l.9-.6c.5-.1 1.5.4 1.4-.6-.1-.7-.7-1.3-1.5-.4l.1.1c1.6-2.5-2.5-2.7-2-4.8z"/><path d="M605.8 230c-5.4-2-1.5 3.1-3 4-1.3-3.7-4.5-4.8-7.8-5.8 1.4-.2 2.8-.3 4.2-.5.5-.1 1-.7 1.5-1-.4-.4-1.1-1.3-1.2-1.2-2.6 1.6-4-1.8-6.3-1.4.2-.4.3-1 .6-1.2 4.6-3.6 6.7-7.6 2.4-12.8 3-.5 4.3.5 3.9 3.7-.2 1.9 0 3.8 0 6.9 1.1-2.1 1.7-2.8 2.8-2.6-1 4.1-3.6 8.7 3.1 10.6-.1 0-.2.9-.2 1.3zM212.2 248c-4-5.4-2.3-11.2-1.1-16.9.4-2.2 2.2-2.5 3.9-2 2.1.6 1.4 2.8.6 3.6-3.2 3.7-1.4 7 .6 10.3.1 2.9-.6 5-4 5zM532.1 144.1c-2.1 2-2.8 4.1-.9 6.7.8 1.1 1.9 2.8-1.1 2.3-4.4-6-4.1-13.9-8.1-20.1-.5-.8-.1-1.7 1.3-2 2.3-.4 3.2 1.3 3.4 2.6.6 4.2 3.7 7 5.4 10.5zM564.1 216.4c1.1 1.4-.5 2.4-.6 3.7 0 1 0 1.9.9 2.7 1.4 1.1 1.8-.3 2.2-.9 1.5-1.9 3.8 1.5 5.1-.8.2.8-.4 1.6-.4 2.3-.3 3.4 1.5 1 2.4.7.3 2.3-1.5 4.8.7 7.2-1.2-2.7-2.7-4.1-5.6-4.3-2.7-.2-1.3 2.6-2.8 3.1-.3-.8 0-1.8-1.2-2.1l.1.1c.3-2.1-1.2-2-2.6-2.1.5-2.1-.5-3.6-2.1-4.8l3.9-4.8zM638.8 207c-5.9 1.4-11.5 3.9-17.7 4-3.4.1-3.1-3.2-5-4.8 6.2-.1 11.7-3.3 17.7-2.2-.5 1.7-1.9.8-2.9 1-1 .1-2.1.2-1.9 1.6.2 2 1.3.9 2.4.7 2.4-.3 4.9-.2 7.4-.3zM318.6 156.2c-.9-.3-2.9 1.5-2.6-1.4.2-1.9-.1-3.8-.1-5.7 2.2-5.1 5.8-9.6 6.5-15.4.2-1.5 2.2-3.5 4.1-2.3 1.3.9.5 2.7-.4 4.3-2.6 4.6-4.6 9.6-7.4 14-1.7 2.5 1 4.4-.1 6.5zM322 260.2c-1-.4-2.5.3-3.2-1.2 5-3.4 7.4-8.5 9-14 .5-1.6.9-2.4 2.4-1.9 1.4.5 2 1.7 1.7 3.2-1.5 5.9-4 11.1-9.9 13.9zM560.7 202.6c-1.1 1-1.5 3.2-4.4 1.6-3.6-2-6.5-1.6-6.5 3.7 0 1-.5 2.6-1.9 3.1-1 .4-2-.1-2.5-1.1-.7-1.4-.6-2.7.3-4.1 2.4-4 5.7-6.2 10.4-6.8 2.8-.3 3.7 1.3 4.6 3.6zM618.9 171.2c-3.6-.5-.4-3.9-2.2-5.2 4.6-2.2 9.7-3.5 12.8-8.1.6-.9 1.5-1.3 2.5-.3.8.8 1.2 1.4.4 2.5-1.8 2.6-3.1 5.8-7.1 5.9-3.4.2-3.6 4.2-6.4 5.2z"/><path d="M602.8 218c-1.2-.2-1.7.5-2.8 2.6 0-3.1-.2-5 0-6.9.4-3.2-.9-4.3-3.9-3.7-.5-1-1.1-2-1.6-3-.7-1.3-1.2-3.4.2-3.7 1.6-.4 4-1.6 5.5 1.2 2.4 4.3 3.2 8.7 2.6 13.5zM612.8 183.1c-.4-2.8.7-5.2 2.4-8 1.7 2.8-.4 5.8 1.6 8 .2 4.1 1.1 8.3-2.7 11.3-.6.5-.9 1.9-2.2 1-1.1-.8-1.4-2.2-.6-3 2.9-2.8 1.3-6.2 1.5-9.3zM253.9 237c-1.9 3.6-4.1 6.7-8.5 7.2-.8-4.4-3.6-.1-5.2-1.2 1.8-3.4 4.9-5.5 7.7-8 .6 2.4.9 2.7 1.4 2.1 1.5-2 3.1.1 4.6-.1zM523.1 248c-.3.9-1.6 1.5-1 2.6 1.9 3.1-.6 2.2-2 2.4-1.9-2.3-3.6-4.6-3.2-7.9.2-1.6-.2-3.5 1.9-4.1 2.5-.7 3 1.5 3.7 3.1.5 1.2.5 2.6.6 3.9zM294.9 254c-2 .7-1.9.7-1.9-.7s-.1-2.8-.1-4.3c.5-3 .9-6 1.7-8.9.4-1.4.2-3.9 3.1-3.1 2.5.7 1 2.6 1.2 4-4.9 1.8-2.4 5.1-1.7 8 .2 2.1-3.3 2.6-2.3 5zM228.6 262.2c.7-2.3 4.8-4.4.6-7.2 1.9-1.3 3.8-2.7 5.7-4 1.1 3.3 3.5-.2 5 1-1 2.9-4.3 2.3-6.2 4-2.1 1.8-2.3 4-1.9 6.2.4 1.9 1.9 1.2 3.2.7l.1.1c-.6 2.4-3.1 2.7-4.9 4.7 1-2.7 2.6-5.1-1.6-5.5zM606.8 288c.1-1.4.7-2.4 2-3 2 2.8 4.3 5.3 5.5 8.6.7 1.9.9 3.4-.8 4.2-1.5.7-2-.9-2.6-2.1-1.2-2.7-2.7-5.1-4.1-7.7zM588 157.2c-.3.8 3.2.7.3 2.3-2.4 1.3-5.2-.7-7.3 1.4-2 1.9-4.1 3-6.9 1.7 2.2-3.9 10.1-6.9 13.9-5.4zM534.9 188.1c2.7 0 4.8 1.4 5.9 3.6.9 1.7 2.7 3.9 1.2 5.5-2 2.3-2.7-1.2-4.1-1.7-2-.7-4.6-.3-4.8-3.5 1.1-.6 1.9 1.5 3 .2 1.3-1.5-.6-1.8-1-2.6-.3-.5-1-.9-.2-1.5zM527 274.9c1.9 1.4 4.2 3.6 3.9-1.2-.1-2.4 1.8-3.3 2.4-5.1 1.1.6.4 1.8.8 2.6-.9 2.3-2 4.6-2.6 7-.6 2.2-1.6 4.3-3.9 3.8-2.5-.5-1.6-3.1-1.7-5 0-1 .1-1.8 1.1-2.1z"/><path d="M239.9 252c-1.5-1.2-3.9 2.3-5-1 1.8-2.7 3.6-5.3 5.3-8 1.6 1.1 4.4-3.2 5.2 1.2l-.2-.1c-2.1-.2-3.3.6-3 2.9-.8 1.7-1.6 3.4-2.3 5zM573.8 224c-1 .2-2.7 2.7-2.4-.7.1-.7.7-1.4.4-2.3 1.5-2.5 2.3-5.2 2.2-8.2 0-1.1-.7-2.9 1.6-2.7 2.2.2 1.4 2 1.3 3-.6 3.8-.6 7.7-3.1 10.9zM496.1 247c1.3.4 3.8-2.8 4.1 1.3.1 1 1.7.5 2.6.7.6 1.6 2.7 2.1 3 4-1.8-.3-3 .2-3.2 2.2-3.4-1.7-6-4.1-6.5-8.2zM578 273.2c.3-.1.5-.1.8-.2 1.4 4.2 3.5 8.2 3.1 13-4.8-2.6-6.1-7.3-3.9-12.8zM574 244.2c-1.6-.5-.7-2-1.2-2.9-1.3-2.1-.2-4.1 1.3-5.1 2-1.3 2.9.9 3.9 2.3.7.9 1.5 1.7 2.2 2.6-2.1 1-4.2 2-6.2 3.1zM288 209.9c.7-2.8-1.9-6.1 1-8.7-.9 3.9 3.3 4.9 4.5 8.4.3-1.8.5-2.7.6-3.6 2 3 .3 5.4-1 8-.6-2.6-2.9-3.3-5.1-4.1zM583.1 247c-.5 2.7-1.1 5.4.4 8.2 1.4 2.7-1 .7-1.5 1-1.7-3.1-3.4-6.1-5.2-9.2.2-.9.3-1.7.5-2.4 1.6.7 1 3.1 3 3.4 1.1-.8.1-3.3 2.5-2.9.1.6.2 1.3.3 1.9zM322.9 173.1c-2.2-.6-1.3-2.6-1.7-3.9h-.1c1.3.9 1.5-.2 1.8-1.1.6-1.7 1-3.4 1.7-5 .3-.7.2-2 1.7-2.1 1.3-.1 1.5.7 2 1.6.8 1.2.9 2-.3 2.9-2.6 1.9-3.5 5-5.1 7.6zM558 218.9c-3.8-1.3-3.9-4.8-2.6-7.2 1.5-2.9 4.8-2.1 7.4-.6-2-.2-3.9 0-5.4 1.6 1.5.7 4.2-.3 4.4 2.3.2 2.9-2.6.6-3.4 1.6-.5.4-.3 1.5-.4 2.3z"/><path d="M288 209.9c2.2.8 4.5 1.5 5.2 4.2-.8 1-1.6 2-2.3 3-1.4-1.5-4.2 3.4-5-1 .7-2.1 1.4-4.2 2.1-6.2zM243.2 275c-1.4-1.4-2.9-2.8-4.2-4.4-.9-1-1.8-2.4-.4-3.4 1.2-.9 2.8-.1 3.3 1.2 1.1 3.1 3.7 3.3 6.2 3.7-.6 3-2.8 2.8-4.9 2.9zM278.9 197c1 .8 1.9 1.6 2.9 2.2 2.1 1.3.8 3 .1 4.1-1.2 1.6-2.6.6-3.6-.6-.8-.9-1.5-1.9-2.3-2.9.6-1.6-1.6-2.2-1.5-3.4 1.9-1.2 2.8 1.1 4.4.6zM543.8 179.1c1-1.4 2.6-1.5 3.2-.2 1.3 2.5 1.7 5.3 4.6 7 .9.5-1.4 2.1-2.3 3.2-2.4-3-4.1-6.4-5.5-10zM521 182.2c-2.1-1.3-3.5-3.3-1.8-5.4 1.9-2.3 3.6.4 5.2 1.2 1 .5 1.7 1.4 2.6 2.2-1.8 1.5-3.5 3-6 2zM534.9 188.1c-.8.6 0 1 .2 1.6.4.9 2.4 1.1 1 2.6-1.1 1.2-1.9-.9-3-.2-1.1-1.5-2.1-3.1-4.2-3.2 1.2-2.3-2.5-4.5-.2-6.8l4.2 4.2c.1 1.2.2 2.5 2 1.8zM558 218.9c.1-.8-.1-1.8.4-2.4.9-1 3.6 1.3 3.4-1.6-.2-2.5-2.9-1.5-4.4-2.3 1.5-1.6 3.4-1.8 5.4-1.6.3 1.8 1.6 3.4 1.3 5.3-1.3 1.6-2.5 3.2-3.8 4.8-1.7.2-1-2.1-2.3-2.2zM506.8 200c2.1-3.8.4-8.5 3.3-12.5 1.5 5.2-2 8.6-3.3 12.5z"/><path d="M528.8 182.1c-2.3 2.3 1.4 4.5.2 6.8-3.3-1.5-6.4-3.1-8-6.7 2.6 1 4.3-.5 6-2 1.1.1 1.7.7 1.8 1.9zM264.2 218c0 2-.5 3.5-3 3-1.7-1.8-1.1-4-1.2-6-.1-1.4-.3-3.5 1.4-3.5 1.4 0 2.7 1.6 2.6 3.6 0 1 .1 2 .2 2.9zM285.9 216c.8 4.4 3.6-.5 5 1-2.1 5-6.4 2.5-9.8 2.9-1.1.1-1-1-1-1.8 0-1-.1-2 1.4-2.1 1.4.1 2.9 0 4.4 0zM580 190.9c.9.2 2.6 1 1.8 1.4-2.9 1.5-.6 3.2-.6 4.7-1.1 1.2-1.8 3.8-3.9 2.5-2.4-1.4-1.1-3.7-.2-5.6.5-1.3 1.6-2.2 2.9-3zM294.2 184.1c2.1 2.7 4.2 5.4.9 8.7-4.1-2.8-4.4-5.7-.9-8.7zM214.9 201c-4.4-2.8-4.4-9.1 0-12v12zM638.8 207c-2.5.1-4.9 0-7.4.3-1.1.2-2.2 1.3-2.4-.7-.2-1.4.8-1.5 1.9-1.6 1-.1 2.4.7 2.9-1 3.4-1.9 5.4-1.4 5 3zM510 269.9c1.6.6 1.9 1.7 1.2 3.2-2.1 2.2-.2 7-5.1 7.6-.2-4.2 1.5-7.6 3.9-10.8zM582.8 245c-2.4-.4-1.4 2.1-2.5 2.9-2.1-.2-1.5-2.6-3-3.4-.1.7-.3 1.6-.5 2.4l-2.8-2.8c2.1-1.1 4.1-2.1 6.2-3.2.8 1.5 1.7 2.8 2.6 4.1zM502.6 255.2c.2-1.9 1.4-2.5 3.2-2.2.7 1.1 1.4 2.1 2.2 3.2-.5 2.1 3.6 2.3 2.1 4.9-.6 0-1.3 0-1.9-.1-1.7-1-3.8-1.7-4.3-4 .1-.9.4-1.9-1-1.9l-.3.1zM212.2 248c3.3-.1 4.1-2.2 4-5 1.8 2.2.9 6.2 4.8 6.8-1.5.7-.8 2.1-1.2 3.2-1.6-3-6-1.9-7.6-5zM243.2 275c2.1-.2 4.3 0 4.8-2.8 2.3.7 4.8 1.3 3 4.7-.1.3-.3.6-.4.9-1.8-2.8-6.4 2.3-7.4-2.8zM510.8 205c3 3.3-.6 5.9-.8 8.8-3-2.9-2.6-7 .8-8.8zM296 292.7c.1 4.5-2 5.7-5.7 4.7 1.1-2.6 4.8-2 5.7-4.7zM278.9 197c-1.5.4-2.5-1.8-4.4-.6-.1 1.2 2.1 1.8 1.5 3.4-2.2-1-4.4-2-6.5-3 2.3-3 6.2-2.9 9.4.2zM552.5 155c-.9 2.9-4 4.1-5 6.8 1.4-2.5 1.7-5.7 5-6.8zM285.9 288c.6-.9.1-3.6 1.4-2.5 1.2 1 4-.6 3.8 2.4-.1 2-.7 3-2.8 2.6-.4-.1-.8.5-1.2.7-1.7-.6-.7-2.2-1.2-3.2zM539.1 241c1.7.1 3.2.8 2.5 2.6-.8 2.4-.7 5.3-3.4 6.7-.1-.5-.3-.9-.4-1.4.4-2.5.9-5.2 1.3-7.9zM316 234.9c2.2-.1 2.5 1.5 2.9 3.1h.1c-1.2-.9-1.5.3-2 .9-1.3.9-2 3.8-4.3 1.4-2.4-2.6 1.3-2 1.8-3.1.4-.8.3-2.1 1.5-2.3zM584.9 197c1.8 2.2 3-.7 4.6-.6-1.1 3-4.1 3.8-6 5.7-1.1-2.1 3.7-2.6 1.4-5.1zM566 154.9c-.7-2.1-1.2-4.2-2-6.3-.9-2.5 1.1-1.2 1.8-1.5-.3 2.2 1.1 3.5 2.5 4.9 1.1 1 1 2.6.4 3.6-1 1.4-1.8-.6-2.7-.7zM598.5 271.1c-3.4-.9-7.4-6.7-6.3-9.4.3-.7 1.1.2 1.6.3 1.5 3.1 3.1 6.1 4.7 9.1zM208.2 172.1c1.7 2.8-2.1 1.4-2.2 2.8-3.1-.9-2.2-4.4-4.1-6.2 2.5.7 5 .9 6.3 3.4zM552.1 267c-.2 1.4.1 3.2-2.2 3.2-2.9-.2-3.9-2.6-2.8-4.3 1.7-2.4 3.5.2 5 1.1zM605.1 257.1c-1 2.3-1.7 4.8-5.5 4.2 1.1-2.5 3.1-3.6 5.5-4.2zM279 158.9c.9.2 2.3.1 2.7.7 1 1.5-1.7 1.2-1.5 2.4-1.2 1-2.8 3-4 1.2-1.4-2.3 1.1-3.4 2.8-4.3zM294.2 206c-.2.9-.3 1.8-.6 3.6-1.2-3.6-5.4-4.5-4.5-8.4 3.6-.4 2.9 3.7 5.1 4.8zM554.1 228c-1.7 1.9-3.3 1-5 0 .4-1.6.8-3.3 1.2-5.2 2.7 1 2.3 3.8 3.8 5.2zM593.1 224c2.3-.4 3.7 3 6.3 1.4.1-.1.8.8 1.2 1.2-.5.4-.9.9-1.5 1-1.4.3-2.8.4-4.2.5-1.8-.7-2.3-2.2-1.8-4.1zM268 209.9c4.5-.6 1.4 3.2 2.6 4.8 1.2 1.6-1.4 1-2.4 1.4 0-2.1-2.9-4.1-.2-6.2z"/><path d="M219.9 253c.4-1-.3-2.5 1.2-3.2 1.8.2 3.1.9 3 3-.1 1.3-.9 2-2.2 2.2-1.7.3-1.9-.8-2-2zM504.1 209.3c-3-.4-3-.4-3.1-6.1 4.7.2 2.3 4 3.1 6.1zM253.9 237c-1.5.2-3-2-4.6.1-.4.6-.8.3-1.4-2.1 4.7-1.8 5.6-1.5 6 2zM297.2 249c-.7-2.9-3.2-6.2 1.7-8 .5 2.9-.2 5.6-1.7 8zM621.3 174.7c.5-3.6 2.4-3.3 4.6-3-1.5 1-2.8 1.8-4.6 3zM261.9 232c.1 2.9 1.3 6.4-3.8 6.1.4-2.5 2.8-3.9 3.8-6.1zM564.9 228c1.2.2.9 1.3 1.2 2.1-.1 1.7-.2 3.3-.3 5-.8.1-1.8-.2-1.7 1.2l.1.1c-.7-.6-3.3-.8-1.7-1.7 3.1-1.9 2.1-4.4 2.4-6.7zM608 282.9c-4.9.1-3.9-3.5-4.1-6.3 1.3 2 2.7 4.1 4.1 6.3zM242.2 247c-.3-2.3.9-3.1 3-2.9 0 2.1-1.2 2.8-3 2.9z"/><path d="M258.1 238c-.6 2 1.7 4.9-1.9 6 1.7-1.6-.4-4.5 1.9-6zM562.4 225.9c1.4.1 2.9 0 2.6 2.1-.6 1-1.3 0-1.9 0 0-.8-1.5-1-.7-2.1zM605 257.1c.4-.6.8-1.3 1.2-1.9l.3.3c0 1-.8 1.2-1.5 1.6.1 0 0 0 0 0zM535 188.1c-1.9.6-1.9-.6-2-1.9 1.2.1 1.7.9 2 1.9zM234.9 262.9c.2-.2.3-.4.5-.7-.1.3-.3.5-.5.7.1 0 0 0 0 0zM508.1 261c.6 0 1.3 0 1.9.1l-.1-.1c0 .3 0 .6.1.9l-.9.6c-.3-.4-1.2-.5-1-1.5zM564 236.2c-.1-1.3.9-1.1 1.7-1.2-.1 1-.4 1.8-1.7 1.2zM571 231.1c-.1.2-.2.5-.3.7.1-.2.2-.5.3-.7zM322.9 168.1c-.3.9-.5 1.9-1.8 1.1 0-1.4 1-1.1 1.8-1.1zM317 238.9c.5-.6.8-1.8 2-.9-.2 1.3-1.1 1-2 .9zM502.8 255.1c1.4.1 1.1 1 1 1.9-.7-.4-1.7-.7-1-1.9zM571 231.1l.2-.1-.2.1zM510.1 262c-.1-.3-.1-.6-.1-.9.8-.9 1.4-.3 1.5.4 0 .8-.9.3-1.4.5z"/></g><path fill="none" d="M99.6 199.7h600V600h-600z"/><path d="M198.4 296.7h51.1c24.7 0 45.7 12.9 45.7 38.7 0 26.6-19.6 40.1-47.7 40.1h-15.6V420h-33.5V296.7zm33.5 54.4h12.2c11.2 0 17-4.9 17-15.6 0-10-6.3-14.5-16.6-14.5h-12.7v30.1zM335.9 372.6V420h-33.1V296.7H359c27.1 0 41.8 14.2 41.8 33.8 0 16.6-8.4 24.8-19 29.1 12.8 4.9 16.6 15.3 16.6 29.5v3.8c0 10.3.4 21.1 1.4 27.1h-32.6c-1.8-5.1-2.4-13-2.4-27.1v-3.5c0-12.9-4.2-16.7-17.3-16.7h-11.6zm0-24.2h14.3c10.1 0 17.2-3.8 17.2-14.3 0-9.7-6.5-13.4-15.1-13.4h-16.4v27.7zM495.4 369.3h-51.6v25.2h57.5l-3.8 25.5H411V296.7h86.5v25.7h-53.7v21.3h51.6v25.6zM508.2 296.7h51.1c24.7 0 45.7 12.9 45.7 38.7 0 26.6-19.6 40.1-47.7 40.1h-15.6V420h-33.5V296.7zm33.5 54.4h12.2c11.2 0 17-4.9 17-15.6 0-10-6.3-14.5-16.6-14.5h-12.7v30.1zM233.2 476.7h85.2v25.6h-51.9v24.3h48.6v25.5h-48.6V600h-33.3V476.7zM359.4 476.7V600h-34V476.7h34zM407.7 552.6V600h-33.1V476.7h56.2c27.1 0 41.8 14.2 41.8 33.8 0 16.6-8.4 24.8-19 29.1 12.8 4.9 16.6 15.3 16.6 29.5v3.8c0 10.3.4 21.1 1.4 27.1H439c-1.8-5.1-2.4-13-2.4-27.1v-3.5c0-12.9-4.2-16.7-17.3-16.7h-11.6zm0-24.2H422c10.1 0 17.2-3.8 17.2-14.3 0-9.7-6.5-13.4-15.1-13.4h-16.4v27.7zM567.1 549.3h-51.6v25.2H573l-3.8 25.5h-86.5V476.7h86.5v25.7h-53.7v21.3h51.6v25.6z"/></svg>