<svg xmlns="http://www.w3.org/2000/svg" xml:space="preserve" baseProfile="tiny" overflow="visible" version="1.2" viewBox="0 0 1000 1000"><path fill="none" d="M0 0h1000v1000H0z"/><path d="M775 225v550H225V225h550m25-25H200v600h600V200z"/><path fill="none" d="M307.9 373.9c5.6 5.1 10.1 11.5 17.2 15.1 9.8 4.9 18.9 11.1 27.9 17.1 7.4 4.9 16.1 8.8 21.6 16.7 1.4 2.1 4.3 4.3 7 1.5 2.3-2.4 2.3-5.4.4-8.2-1.3-2-3.4-3.1-5.3-4.5-10.4-7.6-20.8-15.4-31.1-23.1-12.2-9.2-22.4-21-36-28.9-1.3 2.8-.4 7.5-5.9 5.9-1.3-.4-1.4 1.3-1.5 2.3-.1 1.2-.3 2.8 1.3 3.2 1.8.4 2.9 1.6 4.4 2.9zM282.3 400.4c-1.9 2-2.7 4.6-1.4 7 1.4 2.7 2.5 5.6 6.2 6.7 8.3 2.5 15 8.3 22.6 12.2 7.3 3.8 14.8 7.6 22.2 11.2 13.3 6.4 27.3 11.4 40.6 17.8 10 4.7 20.5 8.2 30.2 13.7 4.6 2.6 9.9 3.9 15.1 5.3 4.9 1.4 10.8-3 15.3 2.2.3.3 1.2 0 1.8 0 1.5-.5 3.7.4 4.4-1.8.5-1.6-.4-3.2-1.8-3.8-6.2-2.6-11.5-8.1-17.1-9.6-8.3-2.1-14-8.5-22.5-10.2-7.8-1.6-14.8-7.3-22.6-10.7-9.2-4.1-18.5-8.2-27.7-12.3-5.6-2.5-11.2-5.3-16.8-7.9-9.3-4.3-18.5-8.9-28-12.8-5.2-2.1-10.1-5.3-16-5.5-1.5-.1-2.1-4-4.5-1.5zM345.5 665.7c-1.4-.8-2 1.1-3 1.6-2.6 1.3-3.7 5.8-7.3 4.5-1.7-.6-1.4-1.7-2.4.7-2.6 6.2-1.8 14.5-10.5 17.4-2.7.9-2.3 5.2-3.1 8-.5 1.6.2 3 3 2.1 4.9 1.2 5.9-3.1 7.4-6.6 2.2-5.1 5-10.1 9.1-13.6 3.4-2.9 5-6.6 7.2-10.1.8-1.2 1.3-3-.4-4zM278.5 468c3.1.5 6.3.9 9.4 1.5 11.3 2.2 22.6 4 33.9 5.7 10.4 1.5 20.6 3.5 31.2 4.4 5.4.4 10.9-1.3 16.5.7 3.1 1.1 6.7-5.4 4.3-7.6-2.2-2.1-4.5-5.2-8.1-5.1-8.3.1-16.6-.5-24.9-.1-7.7.3-14.9-1.8-22.3-2.4-7-.6-14-1.7-20.8-3.5-5.3-1.4-11.3.5-16-3.4-.8-.7-.9-.1-1.4.2-4.1 2.6-8.1 2.8-12-.5 1.2 7.9 3 8.9 10.2 10.1zM350.1 290c1.4 1.2 2.7 3 3.1 4.7 2.3 10.8 10.9 17.8 16.2 26.8 8.7 14.9 19.6 28.5 28.9 43.1 4 6.2 9.6 10.8 13.7 16.7 2.1 3.1 7.7 2.1 9.4-1.3 1.1-2.2 1.8-4.6 2.7-7-3 2-4.8 4.8-6.9-.9-2.3-6.1-5.6-12.1-9.3-17.1-6.9-9.6-13.2-19.6-19.7-29.4-9.5-14.5-19-28.9-30-42.4-2.2-2.7-6.4-4-8.4-2.5-2.6 2.1-3.4 6.1.3 9.3zM370.9 581.9c7.8-5.5 15.7-10.5 23.8-15.3 6.7-4 13.1-9 17.4-15.2 2.7-3.9 4.9-6.9 9.2-8.4 3.6-1.2 6.7-3 9.8-5.5 5.3-4.3 11.6-8 17.5-10.5 4.7-1.9 6.6-4.2 8.5-7.8.9-1.7 1.3-3.9-.5-5.3-1.7-1.3-3.8-2.1-5.9-.9-3.7 2.1-7.1 4.6-10.9 6.5-8.2 4-12.3 12.5-20.3 17.2-9.3 5.5-20 8.7-28.1 16-2.5 2.2-4.4-1.3-4.4-.2.1 6.1-5.4 4.9-8.3 7-13.9 9.8-28.4 18.8-42.3 28.4-11.2 7.7-23.5 13.5-34.5 21.4-10.1 7.3-23.2 10.3-31 21-1 1.4-4.3 2.6-2.6 4.1 2 1.8 7.5 3.3 7.9 2.7 2.2-3.5 4-4.6 7.3-1.2 2.2-2 3.5-4.8 6.4-5.9 5.8-2.3 12.2-4.3 16.8-7.7 9.5-7 21-9.7 30.7-16.4 11.2-7.9 22.3-16.1 33.5-24zM304.1 569.4c6.9-2.8 14.5-4.2 20.7-8.7.9-.6 2-1.3 2.8-.5 3.1 2.9 4.9 0 7-1.4.8-.5.8-1.8 2.3-1.7 5.2.3 10.9-4.7 11.2-9.6.1-1.2.3-2.7-1-3.4-1.5-.8-2.9-.6-3.8 1-1.6 2.9-3.9 2.3-6.6 1.8-2.3-.4-4.6-.1-7 .3-8.1 1.4-15.1 6.6-23.7 6.4-2.4-.1-5.6 1.7-6.1 5.2-5.6-1.8-3.5 2.7-4.1 4.9-.2 5.9 2.7 8 8.3 5.7zM312.8 519.5c21-.2 41.9-3 62.9-3.1 3.7 0 5.5.5 7.5 4.4.8-4.6 2.4-6.4 6.2-4.7 1.2.5 3 .3 4.4.1 17.1-2.5 34.3-3.9 51.6-5 3.7-.2 7.7-.7 9.9-4.4 3.6-6.2-.3-11.9-8.9-12-9.6-.1-19.2 1.9-28.8 2.7-17.5 1.5-34.9 4.1-52.4 4.7-7.5.2-15.3-.6-22.6.4-12.8 1.8-25.6 1.5-38.4 2-9.5.4-18.9.4-28.4 1.7-12.6 1.8-25.4 1.5-38.1 2-4.4.2-9.6 1.2-10.3 6.1-.7 4.6 3.7 5.9 8.1 7 13.1 3.2 26.3 1.5 39.2.4 12.7-1.1 25.5-2.2 38.1-2.3zM301.4 320.9c5 4.8 10.4 9.6 15.8 14 6.1 5 10.3 11.6 16.1 16.6 12.1 10.2 24.1 20.5 34.7 32.1 12.1 13.2 24.6 26.1 36.1 40 3.1 3.8 6.5 8 11 11 9.5 6.1 15.9 15.9 25.2 22.4 6.6 4.6 12 10.9 19.7 13.8 6.5 2.5 11.7-.8 11.6-8.2-1.4-3.6-1.3-8-6.4-10.8-6.6-3.7-12.2-9.2-18.5-13.5-10.3-7.1-18-17.2-28-24.9-7.3-5.6-14.3-13-19.7-20.9-5.4-7.9-13-13.6-19.2-20.6-10.9-12.4-23.4-23.5-35.8-34.5-3.5-3.1-5.3-8.4-8.9-10-7.4-3.2-12.3-9.4-17.7-14.3-11.7-10.7-23.5-21.3-35.2-32-2.4-2.2-5-.6-5.7 2.6-.5 2.5-.4 5 .7 7.5 5.6 11.7 15 20.8 24.2 29.7zM527.2 369.7c2.2.4 2.8-2.2 3.3-3.9 1.7-6.7 4.7-13.5 4.5-20.2-.3-10.3 2.5-20 4.1-29.8 2.5-15.7 1.3-31.5 4.6-46.6.1-3.2-.8-5.8-2.2-8.2-.8-1.3-2.3-3.3-3.2-1.8-1.7 2.6-7.7 1-6.2 4.6 2.3 5.4-.4 9.8-.8 14.6-1.6 16.4-3.3 32.7-4.9 49.1-1.2 12.4-3.3 24.9-1.3 37.4.3 1.7 0 4.4 2.1 4.8zM620.7 406.8c-2.9 1.5-5.4 3.4-5.3 6.3-.2 5.2 3.6 10 6.8 8.6 4.6-2 10.6-2.3 12.7-8.2.9-2.5 3.4-3.5 5.3-4.1 6-1.7 10.9-5.3 16.1-8.5 9-5.6 17.9-11.5 25.6-18.9 1.5-1.4 2-3 1-4.4-.8-1.1-2.6-1.6-3.9-2.3-2.7 5.3-8.5.7-13 4.7-6.6 5.9-16.5 7.7-23.6 14.1-6.3 5.6-14.3 8.8-21.7 12.7zM582.9 355.5c-.4 2.5-.8 2.5-3.5 2.5-.5 0-1.4.4-1.6.8-1.2 2.8-3.7 4.4-5.1 7.1-3.7 7.6-3.8 16.2-7.6 23.7-1.2-.5-.4-3-2.4-2.7-1.1.2-1.4 1.2-1.2 1.9 1.4 3.7 2.7 7.4 4.6 10.8 1.2 2.2 3.7.4 4.2-.6 3.3-7.8 12.5-11.4 14.1-20.3.4-2.5 1.3-4.5 2.8-6.7 6.8-10 13.8-19.7 18.1-31.4 4.1-11 7.9-22.7 17.3-31.1 3.3-3 1.8-8.6-2.3-10.5-1.5-.7-2.6-1.1-2.7-1.5-5.6 5.2-5.6 14.3-12.5 19.4-4.6 3.4-5.2 9.2-8.2 13.7-5.2 8-12.4 14.9-14 24.9z"/><path fill="none" d="M524.2 465.2c3.6-.8 4.6 1.3 5.5 3.7.8 2.2.8 4.6 1.6 6.8s1.4 5 4.7 4.9c14.5-.4 27.4-6.5 40.2-12 3-1.3 4.5.8 7.3-.3 10-3.8 19.8-8.5 30.4-10.9 7.1-1.6 13.9-4.5 20.9-6.7 11.2-3.5 21.6-9.3 33.2-11.8 7.4-1.6 14.1-5.7 21.2-7.3 17-3.9 32.7-11.4 49.3-16.2 8.5-2.5 16.7-6 25.6-7.4 3.8-.6 7.3-2.4 9-6.3 1.4-3.2 0-6.5-3-6.1-5.2.7-10.5-1.1-15.8 2.2-5 3.2-11.6 4.4-17.2 5.4-7.1 1.2-14.1 3.2-20.8 5.2-11.2 3.3-22.1 8.2-33.5 10.5-12.5 2.5-22.8 11.5-36.1 10.8-3.2 5.4-9.4 4.5-14.1 6.5-7 3-14 6.3-21.4 7.8-19.1 3.8-37 11-55.5 16.6-.9.3-1.6 1.6-2.7.7-1.1-.9-1.3-2.9-.5-3.4 4.3-3.2 5.1-9.6 9.6-11.8 4.9-2.4 8.7-6.7 11.4-10 9-11.2 21.2-18.5 31.2-28.4 6.3-6.3 12-13.1 19.6-18.5 6.6-4.7 9.6-14.4 17.7-19.2 2.1-1.2 2.2-5.8.4-8.2-1.8-2.5-3.1.6-4.4 1.7-2.5 2-3.6 0-5.3-2.3-2 8.5-2.1 8.3-9.3 12.4-3.2 1.8-6.6 3.4-8.4 7.3-1.1 2.5-3.6 4.9-6.1 6-6.2 2.8-9.3 9.2-15 12.5-5 2.9-7.9 8.7-12.5 11-9.5 4.7-13.7 14.2-21.3 20.4-4 3.2-6 8.4-11.2 10.7-2.4 1-5.4 2.5-6.8 5.4-1.8 3.7-5.8 7-8.7 5.3-3.1-1.8-.2-6.6.6-10 .1-.6.7-1 1-1.6 2.7-6.1 5.8-12.1 7-18.8 2.6-15 9.6-28.7 13.9-43.2 1.8-6 5.9-11.6 7.6-17.4 3.6-12.3 9.7-24.2 9.1-37.6 0-.9.9-1.9 1.3-2.9 3.4-8 9.5-14.9 10.1-24.2 0-.6.6-1.1.8-1.7 4-10.1 10.8-18.8 14.1-29.2 1.2-3.8 1.1-7.1-1.5-10-1.2-1.3-2.2-3.4-4.7-2.2-3.5 1.7-4.9 4.4-6.1 8.2-2.1 6.5-3.5 13.6-8.1 18.9-1.6 1.9-2.5 3.6-3.1 5.8-3.2 10.4-4.8 21.2-9 31.5-2 4.8-5.1 9.3-6.1 14.8-1.7 9.5-4.6 18.8-7.7 28-3.9 11.5-8.5 22.8-12.7 34.2-5 13.6-9.3 27.5-16.1 40.4-3.8 7.3-7.3 14.7-7.2 23.1.1 4.8 2.5 8 7.6 6.9zM448 265.4c.2.1.3 1 .1 1.1-4.9 4.3-.5 8.7-.1 12.9 1.3 12.3 3.4 24.4 6.2 36.5 1 4.5 4.5 8 4.5 12.2 0 16.8 9.6 30.4 14.8 45.4.6 1.7 1.7 3 3.7 2.8 2.1-.2 3.6-1.6 4.2-3.4.6-1.8.3-3.7.5-5.9-.3-2.7-.5-5.7-1-8.6-1.8-10.1-7.4-18.9-9.4-29.2-2.1-10.9-4.8-21.7-8.1-32.4-3.8-12.1-5.3-24.9-7.9-37.4-.6-2.7-1.3-5.5-2.8-7.7-1.5-2.3-4-3.9-5.2.5-1.4 4.4-7.2 9.1.5 13.2zM383 254.2c1.8.7 2.1 1.9 1.4 2.7-4.9 5.6 2.7 8.2 2.9 12.6.1 1.4 2.1 1.4 3.2.7 4-2.3 3.4.6 2.6 2.5-1 2.2-.1 4.1 0 6.1.5 8 6.2 14.2 7.6 21.9 1.6 8.9 7.4 16.2 10.7 24.5 2.9 7.2 7.8 14.2 10.1 21 5.2 14.9 17 26.1 20.8 41.2 1.8 6.8 8.1 10.2 10.2 16.4 5.3 16.5 14.7 31.2 20.4 47.5.6 1.9 1.2 3.7 4.2 3.9 6.3.3 8.1-1.3 8.2-9.6.2-1.7-.7-4-1.5-6.5-4-12.2-11.8-22.6-16.1-34.7-2.1-5.8-4.8-11.6-8.2-16.8-6.1-9-10.9-18.6-16.2-28-3.3-5.8-4.1-12.7-8.2-18.2-5-6.6-5.4-15.8-12.3-21.3-.7-.6-.5-2.4-.7-3.7-.2-1.5-.7-3-2-3.8-5-3.3-6.2-8.9-8.3-13.8-2.1-5.1-2.7-11.1-5.9-15.3-4.7-6.2-5.5-14-9.7-20.1-3.4-4.9-3.5-11.4-8.6-15.6-2.4-1.9-4.3-1.4-5.3.1-1 1.9-3 4.9.7 6.3zM703.8 458.7c-3.7-1.1-10.7 2.1-12.1 6.2-2-5-5.5-5.2-9.7-4-4.4 1.2-9.1 1.3-13.6 1.9-9.6 1.2-19 3.9-28.6 5.2-9.6 1.3-19.3 2.5-29 4.2-3.5.6-5.6.3-5.6 4.2 0 3.5-.9 7 4.8 7.6 4.6.5 8.6 1.3 13.6.7 18-2.2 35.3-7.5 53.2-9.9 9.1-1.2 17.6-6.2 26.4-9.4 1.9-.7 2.7-1.9 2.4-3.9 0-1.3-.2-2.3-1.8-2.8zM244.1 462.4c6.2-.8 11.8 2.7 17.9 2.2 1.6-.1 3.8 3.5 4.9-.3.6-2.4-.2-5.4-2.9-6.3-5.6-1.8-11.4-3-17.9-4.6-2 .5-5.5.5-5.7 4.2-.1 1.8.7 5.2 3.7 4.8zM599.8 621.1c-2.7-6.1-8.3-9.9-11.8-15.3-2.4-3.8-5.6-7-10.1-6.4-2.9.4-2.5 8.9.5 13.9.2.4.5.7.8 1 5.1 4.7 10.1 9.5 15.2 14.2.6.6 1.5.8 2.2 1.2 3.3 1.6 4.7.3 4.6-3.3.2-1.9-.6-3.5-1.4-5.3zM766.6 517.2c-8.2-.8-16.4-2.9-24.6-3.9-9.5-1.2-19.1-1.5-28.6-3-5.9-1-11.9-1.2-17.8-2.9-2.7-.8-5.8-1.7-8.6-1.5-16.8 1.4-33.2-2.9-49.9-2.9-9.3 0-18.4-3.4-27.8-3.2-7.9.2-15.7-2.2-23.5-3.1-16.2-1.9-32.6-2.3-48.9-3.4-2.9-.2-3.4 2.1-4.4 3.8-1.1 2-1.3 5.1.6 5.8 4.3 1.6 7.5 5.4 12.6 5.4 5.6 0 11.1 1.3 16.6 2.6 7.3 1.7 14.7 2.7 22.4 2.6 9.1-.1 18.3 1.9 27.5 2.6 9.4.7 18.9 1 28.4 1.6 14.2.8 28.2 2.8 42.5 3.2 3.6.1 10.9-1.4 10 7.9.7-6.2 4.3-5.9 8.1-5.4 3.7.5 8 .1 11 1.1 3.7 1.3 7.9-1.1 10.8 2 1.7 1.9 2.4 10.1 4.7.2.5-2.2 2.9-1.6 4.9-1.4 12.7 1.4 25.7.3 38.3 2.3 5.2.9 5.1-2.5 4.7-5.7-.9-5.7-5.1-4.3-9-4.7zM726.4 581.1c-5.6-3.7-11.6-6-18.1-7.9-9.5-2.7-18.3-7.7-27.9-10.4-2.4-.7-4.8-1.1-7.2-1.8-10.3-3.1-20.1-7.8-30.1-11.6-7.5-2.8-15.7-3.5-22.9-7.8-2.6-1.5-5.5-5-10-3.3-1.9.7-3.7-2.9-6.5-3.3-2.4-.4-4.8-1.4-6.1 1.2-1.3 2.7 1.1 4.1 2.9 5.6 9.5 7.6 21.8 8.7 32.3 14.1 9.7 5 21.3 6.7 31.9 9.8 7 2 12.4 7.2 20.3 7.5 6.8.3 11.9 7.2 19.5 7.6 5.5.3 10.7 2.8 15.3 5.2 2.4-.5 4.3-.8 6.1-1.3 1.2-.3 3.3 1.7 3.5-1 .1-1.7-1.8-1.8-3-2.6zM711 682.8c-6.8-9.3-15.3-17.5-23.1-26.1-9.4-10.4-21.5-17.9-30.8-28.5-2.2-2.5-5.9-2.5-8-5.5-6.1-8.6-14.1-15.3-22.5-21.5-2.8-2.1-5.9-4-8.6-6.3-6.1-5.4-11.9-11.3-18.5-16-9.6-6.8-16.8-16.4-26.8-22.7-.9-.5-1.5-1.5-2.2-2.3-5.3-5.8-10.5-11.8-15.9-17.5-4.7-4.9-10.4-8.6-15.5-13.2-2.5-2.2-6-5.1-9.8-4.7-2.9.3-5.4 9.8-3.9 12.8 4 7.9 11.2 12.8 17.5 18.6 6 5.5 13.2 9.7 18 16.4 2.7 3.8 5.7 7.2 9.3 10.4 13 11.6 27.5 21.4 39 34.7.4.5 1 .8 1.5 1.1 12.2 8.1 24 16.8 33.7 27.8 7.4 8.3 18.4 12.3 24.4 21.9.4.7 1.3 1.2 2.1 1.4 7 2.4 9.6 7.7 9.1 15.2 3.4-5.5 3.5-5.6 8.2-1.1 5.3 5.2 12.1 8.9 15.9 15.7.5.8 1.2 1 2.1.5 3.4-1.7 6.3-.7 7.4 3.2.7 2.7 2.7 4.4 4.3 6.1 1.8 2 5 1.2 7.5 1.1.6 0 .6-2.3-.4-3.4-5-5.7-9.5-11.9-14-18.1zM584.2 535.7c1.3-.1 2.9 1.6 3.8-.2.9-1.7 1.1-4.1-.6-5.3-6.1-4.3-12.1-9-19.4-9.6-2.2.3-4.2-.6-4.9 1.7-.6 2 .2 3.6 1.8 5 5.8 4.4 11.3 9 19.3 8.4zM396.7 612c3.8-5.5 7.6-11.9 12.1-16.1 8.6-8 12.8-19.1 21.1-27.1 2.4-2.3 1.9-5.9.5-9.8-1.6 3.2-4.7 1.3-6.9 3.2-10 8.9-15.9 21-23.7 31.6-4.2 5.7-4.7 13.9-12.7 17-2.3.9-1.2 5.8-4.1 6.8-9.7 3.4-8.9 17-19.3 19.6-.2.1-.4.7-.5 1.1-1.4 5.1-4.3 9.2-7.6 13.3-3.1 3.8-4 1.8-5.6-1 .3 2.9-.8 5.5-1.5 8.1-.4 1.4-1.5 3.1 0 4.1 1.5 1 3.6 0 4.6-1.1 3.6-3.8 7.5-7.3 10.9-11.3 5.9-6.9 11.1-14.4 18.1-20.4 6-5 10.4-11.9 14.6-18zM794.1 526.4c-3.5.9-2.9 4.7-5.3 5.6-1.8.7-3.3 1.4-2.4 3.5.3.8 1.5 1.8 2.3 1.8 1.6 0 3.3-.2 4.3-2 1.7-2.8 1.6-5.7 1.1-8.9zM627.6 575.7c4 3.2 7.1 7.1 12.9 8.3 3.2.7 10-.3 9.8 6.9 0 .9 2 1.6 3.3 1 1.4-.6 2.5-.4 3.1 1 2.2 5.2 5 2.9 7.9.3 2.4 1.3.8 5.6 4.7 4.6 1.6-.4 2.8-1.2 2.7-3-.1-2.4-.7-5.1-3.2-5.7-7-1.6-11.6-7.4-18.9-9.4-6.3-1.7-12.4-6.2-19.2-8.1-1.4-.4-2.3-2.6-3.7-.1-.9 1.6-1.4 2.6.6 4.2zM467.3 563.5c5.7-9.2 7.7-19.5 10.2-29.7.9-3.5-.3-6.6-2.5-9.4-.8-1-1.4-2.5-2.9-1-3.9 3.9-9.6 6.4-9.8 13.2-.1 2-.4 4.1-1.4 6.1-10.8 21.8-17.3 45.5-28.2 67.2-4.6 9.2-4.3 19.5-10.3 28.5-6.1 9.2-8 21.1-13 31.4-4.5 9.1-7.5 19-13 27.7-1.7 2.7-2.7 5.5-3.8 8.5-4.5 12-7.9 24.3-9.3 37.5 2.7-.4 2.9-.2 7.5-6.4 3.7-5 7-10.1 9.1-16.2 3.3-9.7 7.7-19 11.9-28.5 5.9-13.4 12.5-26.5 17.8-40.1 5.2-13.4 12.4-25.8 16.3-39.8 2.9-10.4 10.9-18.7 13.7-29.5 1.8-6.8 4.1-13.7 7.7-19.5zM502.5 461.1c1.1-.2 1.8-1 2.2-2 2.1-4.6 4.4-9.1 4.6-14.3.3-8.2 1-16.4 1.9-24.5 1.5-13.1.2-26.2.1-39.3-.2-28.2-.8-56.3.2-84.5.5-13.3-3-26.5-1.7-39.3-.4-10.5.5-20.5-3.8-30-1.3-2.9-2-5.4-5.9-5-4.2.4-4.3 3.8-4.4 6.6-.5 8-.9 16.1-.7 24.1.3 12 1.5 24.1 1.5 36.1.2 29.2-.6 58.4.4 87.6.1 4 2.1 7.8 1.1 11.9-2.5 11.3-4.2 22.8-4.9 34.4-.5 9.3-1.2 18.6-1.5 27.9-.2 4 7.1 10.8 10.9 10.3zM478.9 558.9c-2.5 4.5-3.5 9.5-3.5 14.6-.2 21-3.3 41.8-4 62.7 0 1.4-.7 2.5-1.7 3.2-2 1.4-2 3.6-2.2 5.7-1 7.7-1.9 15.4-2.9 23-1 7.5-2.3 15-3.2 22.6-.1 1.2-1.7 4.6 2.4 3 1.8-.7 1.6 1.1 1.5 1.8-.6 4.1-.5 8.2.6 12.3-2.9.4-2.6-2.8-5.7-3.4.4 8.9-7 17.6 1.4 26.3 1.3 1.4.7 3.4-1 4.4-5.1 2.9-3.1 6.2-1.2 9.7 4.2-4.1 7.5-8.3 8.9-13.8 2.6-10.2 4.6-20.4 5.8-30.9 1.7-14.9 3.5-29.7 4.8-44.6 1.2-14.9 5.7-29.2 6.8-44.1.9-12.2 1.2-24.4 3.7-36.5 1.1-5.3 1.7-11.3-2.1-16.5-3.1-3.8-5.9-3.9-8.4.5zM572.2 641c-9.4-14.9-13.7-32.4-21.8-48.1-7.6-14.7-12.5-30.6-21.1-44.9-2-3.3-4.7-3.5-7.4-3.4-3.4.1-3.2 3.4-3.5 5.8-.5 5.7 2.3 10.6 4.4 15.5 3.3 7.8 8.1 14.9 10.8 23.2 2.6 7.9 8.9 14.2 10.5 22.7.1.4.4.7.7 1 4.9 5.5 7.7 12.4 11 18.9 3 5.9 4.8 12.4 7.3 18.6.9 2.3 2.2 5.4 4.6 5.5 3 .2 2.9 2.1 3.3 3.7 1.7 6.6 6.2 11.7 8.6 18 4.6-3.3 8-7.1 4.4-11.9-5.5-7.4-6.8-16.7-11.8-24.6zM496.1 643.6c-2.8 0-2.8 2-3 3.9-.2 2.1-.3 4.2-.6 7.8.1 1.6.4 4.8.6 7.9.3 3.6 4.2 3.6 5.9 5.8.3.3 1.6-1.1 1.9-2.2 1.5-6.9 1.4-13.8-.4-20.7-.5-2.1-2.4-2.5-4.4-2.5zM547.3 729c.8-8-4.2-15.1-3.4-23 .5-5-1-9.7-3.1-14.1-3.6-7.6-4.5-15.8-6-23.8-2.8-14.4-5.9-28.7-8.8-43.1-.6-3-3.2-5.1-3.2-8.7-.2-14.4-2.4-28.5-6.1-42.5-2.3-8.9-5.5-17.6-6.5-26.9-.9-8-8.1-11.7-13-7.5-3.9 3.4-2.2 7.9-.8 11.2 3.6 8.5 4 17.6 6.5 26.3 4.2 15.1 5.9 30.9 9.5 46.3 4.4 18.5 8 37.1 10.5 55.9.4 2.8.6 5.7 3.8 6.7 4.6 1.3 4.9 4.2 3.9 8.3-1.5 6.4-1.7 12.7 3.8 17.9.7.6 4.3 4.4 1 5.2-4 1-2.3 2.6-1.5 4 1.2 2.1 2.2 4 1.9 6.5-.1 1 .2 2.3 1.4 2.5 1.3.2 1.8-.7 2-1.9.1-1 0-2.4 1.6-2 1.5.3 1.8 1.7 1.7 3-.1 1.7-.6 3.1-1.9 4.5-2.1 2.3.8 3.2 2 4.4 1.5 1.5 3.8 2.6 5.6 1.6 1.8-1 1.6-3.5.2-5-1.7-1.9-1.7-3.8-1.1-5.8zM443.2 652.7c-1.7.1-3.6.6-4.1 2.5-2.6 10.4-5.1 20.7-7.6 31.1.2 0 .4.1.5.1 0 .6-.1 1.3-.1 1.9-.1 2.3-.5 5.1 2.1 6.1 3 1.2 3.8-2 5.1-3.7 4.8-6.1 6-13.5 6.3-20.9.1-4.6 2.8-9 1-13.7-.6-1.5-1-3.5-3.2-3.4z"/><path d="M779 207c-2.4-.1-3.5 2.5-6.4 1.4-9.2-3.7-18.9-.6-28.2-.3-5 .2-7.1-.4-9.1-5.6-1 3.6-1.7 7.8-4.7 6.6-4.6-1.8-9 .7-13.3-.6-6.2-1.9-12.6-1.2-18.9-2-10.9-1.4-21.7 2.6-33.2 0-11-2.6-23.1-1-34.7-1.1-2.3 0-5.3 1.5-6.7.4-6.3-4.6-7.2 0-8.9 5.7-1.2-6.1-5.2-5.7-8.5-5.7-6.5-.2-13.2 2.2-19.3 1.4-10.3-1.3-20.5.8-30.8-.6-9.2-1.2-18.8 1.3-28.2 1.2-17.7-.3-35.3 1.1-52.9.6-10.3-.3-20.4 1.2-30.7.7-3-.1-7.1 2.7-7.8 2-3.9-4.2-8.1-1.8-12.4-1.9-3.4-.1-7 1.3-9.7.6-6.5-1.8-12.7-.9-19-1.2-7.2-.4-14.1 3.8-21.5.5-3.8-1.7-8.9-1-13.3-1.2-10-.5-20 2.4-30 1.1-14.1-1.9-28.2.8-42.4-.5-18.4-1.8-37 3-55.4-1.5-2.1-.5-4.2.7-4.6 2.6-1.5 6.1-4.7 12.5-3.5 18.5 1.9 9.6.5 18.9.6 28.4.2 12-.9 24-.1 35.9.7 11.2.6 22.4.4 33.6-.3 20.1-2.7 40.2-1.6 60.2 1.2 20.8.1 41.4.3 62.1.3 25.6-.9 51.2-.4 76.7.2 10.5.6 21.2-.3 31.6-1.4 17.3.8 34.6-.8 51.8-.8 8.8.6 17.8-.5 26.5-1.3 10.5-.8 21-1.1 31.5-.3 10.8-1.2 21.8-.6 32.8.2 4.6 2.1 9.2 1.1 13.8-2.5 11.3-.7 22.7-1.3 34.1-.5 8.9 1.8 17.7.1 26.6-.7 4 1 6.7 4.7 9.3 6.1 4.4 12.3 1.7 18.3 2.1 8 .6 16.1 1 24 .1 6-.7 13.6 3.1 18.4-6.4 0 5.1 2.3 6 5.4 5.7 16.5-1.7 33 0 49.6-.8 3.6-.2 7.6-1.9 10.3-1.2 11 2.8 21.9-.1 32.9.6 7.7.5 15.6-1.8 23.3-1.4 12.1.6 24.2 2.2 36.4.6 4.1-.6 9.1-1.6 12.4-.5 7.1 2.3 13.9 1.4 20.6.7 4.3-.4 8.1-1.1 12.2.8.8.4 2-.3 3.1-.4 7.8-1 15.6-.2 23.5-1.3 6.5-.9 13.7-.2 20.5-.1 4.3 0 9.3-1.2 12.6-.3 9.3 2.6 18.5.7 27.6.6 7.6-.1 15.4.2 23.1-.4 6.7-.6 14.5-4.1 21 1.5.2.1 1.2-.4 1.5-.9 1.7-2.9 5.1-2.3 6.8-1.7 4 1.4 7.8.7 11.7.7 9.9-.1 19.9.1 29.8-.3 7.1-.3 14.1 1.1 21.1 1 13.6-.1 27.3-.5 40.9-1.2 4.4-.2 8.4 1.5 13 1.1 7-.6 14.3.2 21.5 1.9 8.2 1.9 17 2 25.6 1.2 2.5-.2 4.8-.9 7.1-1.8V207.8c-6.6-1.2-13.6-.5-20.6-.8zM666 380c4.5-4 10.3.6 13-4.7 1.3.8 3.1 1.2 3.9 2.3 1 1.4.5 3-1 4.4-7.7 7.4-16.6 13.3-25.6 18.9-5.1 3.2-10 6.7-16.1 8.5-1.9.5-4.4 1.5-5.3 4.1-2.1 5.9-8.1 6.2-12.7 8.2-3.2 1.4-7-3.3-6.8-8.6-.1-3 2.4-4.8 5.3-6.3 7.4-3.9 15.4-7.2 21.6-12.7 7.2-6.3 17.1-8.1 23.7-14.1zm-60.9-62.9c6.9-5.1 6.9-14.2 12.5-19.4.1.3 1.2.8 2.7 1.5 4.2 1.8 5.7 7.5 2.3 10.5-9.4 8.4-13.1 20.1-17.3 31.1-4.4 11.6-11.3 21.4-18.1 31.4-1.5 2.2-2.4 4.2-2.8 6.7-1.6 8.9-10.8 12.5-14.1 20.3-.4 1.1-2.9 2.8-4.2.6-1.9-3.4-3.2-7.2-4.6-10.8-.3-.7 0-1.7 1.2-1.9 2.1-.3 1.2 2.2 2.4 2.7 3.8-7.6 3.9-16.2 7.6-23.7 1.3-2.8 3.9-4.4 5.1-7.1.2-.4 1-.8 1.6-.8 2.7 0 3.1-.1 3.5-2.5 1.5-10.1 8.7-16.9 14-24.8 3.1-4.6 3.6-10.4 8.2-13.8zm-78.7 10.3c1.6-16.4 3.3-32.7 4.9-49.1.5-4.8 3.2-9.1.8-14.6-1.6-3.6 4.5-2 6.2-4.6.9-1.4 2.4.5 3.2 1.8 1.4 2.4 2.3 5 2.2 8.2-3.2 15.1-2.1 31-4.6 46.6-1.5 9.8-4.4 19.5-4.1 29.8.2 6.7-2.8 13.5-4.5 20.2-.4 1.7-1.1 4.3-3.3 3.9-2.1-.4-1.8-3.1-2.1-4.9-1.9-12.4.1-24.9 1.3-37.3zm-2.5 107.8c6.8-12.9 11.1-26.8 16.1-40.4 4.2-11.4 8.8-22.7 12.7-34.2 3.1-9.2 6-18.5 7.7-28 1-5.5 4.2-10 6.1-14.8 4.2-10.3 5.8-21.1 9-31.5.7-2.3 1.5-4 3.1-5.8 4.7-5.3 6-12.4 8.1-18.9 1.2-3.8 2.6-6.5 6.1-8.2 2.4-1.2 3.5.9 4.7 2.2 2.6 3 2.7 6.2 1.5 10-3.3 10.4-10.1 19.1-14.1 29.2-.2.6-.8 1.1-.8 1.7-.6 9.2-6.7 16.1-10.1 24.2-.4 1-1.3 1.9-1.3 2.9.5 13.4-5.5 25.3-9.1 37.6-1.7 5.8-5.8 11.4-7.6 17.4-4.2 14.6-11.3 28.2-13.9 43.2-1.2 6.8-4.3 12.7-7 18.8-.3.6-.9 1-1 1.6-.8 3.4-3.7 8.2-.6 10 2.9 1.7 6.9-1.7 8.7-5.3 1.4-2.9 4.4-4.4 6.8-5.4 5.3-2.3 7.3-7.4 11.2-10.7 7.6-6.2 11.8-15.7 21.3-20.4 4.6-2.3 7.5-8.2 12.5-11 5.7-3.3 8.7-9.7 15-12.5 2.5-1.1 4.9-3.6 6.1-6 1.8-3.9 5.3-5.5 8.4-7.3 7.2-4.1 7.3-3.9 9.3-12.4 1.6 2.3 2.8 4.3 5.3 2.3 1.3-1 2.6-4.1 4.4-1.7 1.7 2.4 1.6 7-.4 8.2-8 4.8-11 14.4-17.7 19.2-7.6 5.4-13.3 12.2-19.6 18.5-10 9.9-22.2 17.2-31.2 28.4-2.7 3.4-6.6 7.6-11.4 10-4.5 2.3-5.3 8.6-9.6 11.8-.8.6-.7 2.5.5 3.4 1.1.9 1.8-.5 2.7-.7 18.5-5.6 36.5-12.8 55.5-16.6 7.4-1.5 14.5-4.7 21.4-7.8 4.7-2.1 10.9-1.1 14.1-6.5 13.3.7 23.6-8.3 36.1-10.8 11.4-2.2 22.3-7.1 33.5-10.5 6.7-2 13.7-4 20.8-5.2 5.6-.9 12.2-2.2 17.2-5.4 5.2-3.3 10.6-1.5 15.8-2.2 3-.4 4.4 3 3 6.1-1.7 3.9-5.1 5.7-9 6.3-8.9 1.4-17.1 4.9-25.6 7.4-16.6 4.8-32.3 12.3-49.3 16.2-7.1 1.6-13.8 5.7-21.2 7.3-11.6 2.5-22 8.3-33.2 11.8-7 2.2-13.8 5.1-20.9 6.7-10.6 2.4-20.3 7.1-30.4 10.9-2.8 1.1-4.3-1-7.3.3-12.9 5.5-25.8 11.7-40.2 12-3.2.1-3.9-2.7-4.7-4.9-.8-2.2-.8-4.6-1.6-6.8-.9-2.4-1.9-4.5-5.5-3.7-5.1 1.1-7.5-2-7.5-6.8-.3-8.5 3.2-15.9 7.1-23.2zm179.4 30.1c-8.8 3.2-17.4 8.2-26.4 9.4-17.9 2.4-35.3 7.8-53.2 9.9-5 .6-9-.2-13.6-.7-5.8-.6-4.9-4.1-4.8-7.6 0-3.9 2.2-3.6 5.6-4.2 9.6-1.7 19.3-2.9 29-4.2 9.6-1.3 18.9-4 28.6-5.2 4.5-.6 9.2-.6 13.6-1.9 4.2-1.2 7.7-1 9.7 4 1.4-4.1 8.3-7.2 12.1-6.2 1.6.5 1.8 1.5 2 2.8.1 2-.7 3.3-2.6 3.9zM447.4 252.2c1.3-4.4 3.7-2.8 5.2-.5 1.4 2.2 2.2 5 2.8 7.7 2.6 12.5 4.2 25.3 7.9 37.4 3.3 10.7 6.1 21.5 8.1 32.4 1.9 10.2 7.6 19 9.4 29.2.5 2.9.7 5.9 1 8.6-.1 2.1.1 4.1-.5 5.9-.6 1.8-2.1 3.2-4.2 3.4-2 .2-3.1-1.1-3.7-2.8-5.3-15-14.8-28.5-14.8-45.4 0-4.2-3.5-7.7-4.5-12.2-2.7-12.1-4.9-24.2-6.2-36.5-.4-4.2-4.9-8.7.1-12.9.2-.2.1-1-.1-1.1-7.6-4.1-1.8-8.8-.5-13.2zm-65-4c1-1.6 3-2.1 5.3-.1 5 4.1 5.2 10.6 8.6 15.6 4.2 6.1 4.9 13.9 9.7 20.1 3.2 4.2 3.8 10.2 5.9 15.3 2.1 5 3.3 10.5 8.3 13.8 1.3.9 1.8 2.3 2 3.8.2 1.3 0 3.1.7 3.7 6.9 5.6 7.3 14.8 12.3 21.3 4.1 5.4 4.9 12.3 8.2 18.2 5.3 9.4 10.1 19 16.2 28 3.5 5.1 6.2 10.9 8.2 16.8 4.3 12.1 12 22.5 16.1 34.7.8 2.5 1.7 4.8 1.5 6.5-.1 8.4-1.9 10-8.2 9.6-3-.2-3.5-2-4.2-3.9-5.7-16.3-15-31.1-20.4-47.5-2-6.3-8.4-9.6-10.2-16.4-3.9-15.1-15.7-26.3-20.8-41.2-2.4-6.8-7.2-13.8-10.1-21-3.3-8.3-9.1-15.6-10.7-24.5-1.4-7.7-7.1-13.9-7.6-21.9-.1-2.1-1-3.9 0-6.1.8-2 1.5-4.8-2.6-2.5-1.1.6-3.2.6-3.2-.7-.3-4.4-7.8-7-2.9-12.6.7-.8.4-2.1-1.4-2.7-3.8-1.7-1.8-4.7-.7-6.3zm-32.5 32.5c2-1.5 6.2-.2 8.4 2.5 10.9 13.5 20.4 27.9 30 42.4 6.5 9.8 12.7 19.9 19.7 29.4 3.7 5.1 7 11.1 9.3 17.1 2.2 5.7 3.9 2.9 6.9.9-.9 2.3-1.7 4.7-2.7 7-1.7 3.5-7.2 4.5-9.4 1.3-4.1-6-9.7-10.6-13.7-16.7-9.4-14.5-20.2-28.2-28.9-43.1-5.3-9-13.8-16-16.2-26.8-.4-1.7-1.7-3.5-3.1-4.7-3.8-3.2-3-7.2-.3-9.3zm-73.2 2.7c.7-3.2 3.4-4.7 5.7-2.6 11.7 10.7 23.5 21.3 35.2 32 5.4 5 10.3 11.1 17.7 14.3 3.6 1.5 5.4 6.8 8.9 10 12.4 11 24.9 22.1 35.8 34.5 6.2 7.1 13.7 12.7 19.2 20.6 5.4 7.9 12.4 15.3 19.7 20.9 10 7.7 17.6 17.8 28 24.9 6.3 4.3 11.9 9.8 18.5 13.5 5.1 2.8 5 7.3 6.4 10.8.1 7.5-5 10.7-11.6 8.2-7.8-3-13.2-9.2-19.7-13.8-9.3-6.6-15.7-16.3-25.2-22.4-4.5-2.9-7.9-7.2-11-11-11.4-13.9-24-26.7-36.1-40-10.6-11.6-22.7-21.9-34.7-32.1-5.9-5-10-11.6-16.1-16.6-5.5-4.4-10.9-9.2-15.8-14-9.1-8.9-18.5-18-24-30-1.4-2.2-1.5-4.7-.9-7.2zm26.1 124c9.5 3.9 18.7 8.4 28 12.8 5.6 2.6 11.1 5.4 16.8 7.9 9.2 4.1 18.5 8.2 27.7 12.3 7.7 3.4 14.7 9.1 22.6 10.7 8.5 1.8 14.2 8.1 22.5 10.2 5.6 1.4 10.9 7 17.1 9.6 1.3.6 2.2 2.2 1.8 3.8-.6 2.3-2.8 1.3-4.4 1.8-.6 0-1.5.3-1.8 0-4.5-5.2-10.3-.8-15.3-2.2-5.1-1.4-10.5-2.8-15.1-5.3-9.7-5.4-20.2-8.9-30.2-13.7-13.3-6.3-27.3-11.3-40.6-17.8-7.4-3.6-14.9-7.4-22.2-11.2-7.6-3.9-14.3-9.7-22.6-12.2-3.6-1.1-4.8-4-6.2-6.7-1.3-2.4-.5-5 1.4-7 2.4-2.5 2.9 1.4 4.4 1.4 6 .3 10.9 3.4 16.1 5.6zm-.7-39.7c0-1 .2-2.7 1.5-2.3 5.5 1.6 4.6-3.2 5.9-5.9 13.6 7.9 23.8 19.7 36 28.9 10.3 7.8 20.7 15.5 31.1 23.1 1.9 1.4 4 2.5 5.3 4.5 1.8 2.8 1.8 5.8-.4 8.2-2.7 2.8-5.6.6-7-1.5-5.4-7.9-14.2-11.8-21.6-16.7-9-6-18.1-12.2-27.9-17.1-7-3.6-11.5-9.9-17.2-15.1-1.4-1.3-2.6-2.5-4.5-3-1.5-.4-1.3-1.9-1.2-3.1zm-21.7 90.7c.5-.3.6-.9 1.4-.2 4.7 3.9 10.7 2 16 3.4 6.8 1.8 13.8 2.9 20.8 3.5 7.4.6 14.6 2.7 22.3 2.4 8.2-.3 16.6.2 24.9.1 3.6-.1 5.8 3 8.1 5.1 2.4 2.2-1.3 8.7-4.3 7.6-5.6-2-11.1-.3-16.5-.7-10.5-.9-20.8-2.9-31.2-4.4-11.4-1.7-22.7-3.5-33.9-5.7-3.1-.6-6.4-1-9.4-1.5-7.3-1.3-9.1-2.3-10.2-10.1 3.9 3.3 7.9 3.2 12 .5zm-40-.9c.2-3.7 3.7-3.7 5.7-4.2 6.5 1.6 12.3 2.8 17.9 4.6 2.7.8 3.5 3.9 2.9 6.3-1 3.9-3.2.2-4.9.3-6.1.6-11.7-2.9-17.9-2.2-3 .5-3.8-2.9-3.7-4.8zm-4.9 63.7c-4.4-1.1-8.7-2.4-8.1-7 .7-4.9 5.9-5.9 10.3-6.1 12.7-.5 25.5-.2 38.1-2 9.4-1.3 18.9-1.4 28.4-1.7 12.7-.5 25.6-.1 38.4-2 7.2-1 15.1-.2 22.6-.4 17.5-.5 35-3.2 52.4-4.7 9.6-.8 19.2-2.8 28.8-2.7 8.6.1 12.4 5.7 8.9 12-2.2 3.8-6.2 4.2-9.9 4.4-17.2 1.2-34.5 2.6-51.6 5-1.4.2-3.2.5-4.4-.1-3.8-1.6-5.4.1-6.2 4.7-2-3.9-3.8-4.5-7.5-4.4-21 .2-41.9 3-62.9 3.1-12.6.1-25.4 1.2-38.1 2.2-12.9 1.2-26.1 2.9-39.2-.3zm64.3 37.5c.6-3.5 3.7-5.2 6.1-5.2 8.6.2 15.6-4.9 23.7-6.4 2.5-.4 4.8-.8 7-.3 2.6.5 5 1.1 6.6-1.8.9-1.6 2.3-1.8 3.8-1 1.3.7 1.1 2.2 1 3.4-.3 5-6 10-11.2 9.6-1.5-.1-1.5 1.2-2.3 1.7-2.1 1.4-3.9 4.3-7 1.4-.9-.8-2-.1-2.8.5-6.2 4.5-13.7 5.9-20.7 8.7-5.6 2.3-8.5.2-8.3-5.8.7-2.1-1.4-6.6 4.1-4.8zm6.8 63.5c-4.6 3.4-11 5.4-16.8 7.7-2.9 1.2-4.1 3.9-6.4 5.9-3.3-3.4-5.1-2.3-7.3 1.2-.4.6-5.9-.9-7.9-2.7-1.7-1.5 1.6-2.7 2.6-4.1 7.8-10.7 20.9-13.7 31-21 11-7.9 23.3-13.6 34.5-21.4 14-9.6 28.5-18.6 42.3-28.4 2.9-2.1 8.4-.9 8.3-7 0-1 2 2.4 4.4.2 8.1-7.3 18.8-10.4 28.1-16 8-4.7 12.1-13.2 20.3-17.2 3.8-1.9 7.2-4.4 10.9-6.5 2.1-1.2 4.3-.4 5.9.9 1.7 1.4 1.4 3.5.5 5.3-1.9 3.5-3.8 5.9-8.5 7.8-5.9 2.4-12.2 6.1-17.5 10.5-3 2.5-6.2 4.2-9.8 5.5-4.3 1.5-6.6 4.6-9.2 8.4-4.3 6.2-10.8 11.2-17.4 15.2-8.1 4.9-16.1 9.8-23.8 15.3-11.2 8-22.3 16.2-33.6 24-9.6 6.7-21.1 9.4-30.6 16.4zm39.3 47.5c-2.2 3.5-3.8 7.2-7.2 10.1-4.1 3.5-6.9 8.4-9.1 13.6-1.5 3.6-2.5 7.9-7.4 6.6-2.8.9-3.4-.5-3-2.1.8-2.8.4-7 3.1-8 8.7-2.9 7.9-11.2 10.5-17.4 1-2.4.7-1.3 2.4-.7 3.6 1.3 4.7-3.1 7.3-4.5 1-.5 1.5-2.4 3-1.6 1.7 1 1.2 2.8.4 4zm18-19.2c-3.4 4-7.3 7.5-10.9 11.3-1 1.1-3.1 2-4.6 1.1-1.5-1-.4-2.7 0-4.1.7-2.7 1.8-5.2 1.5-8.1 1.6 2.8 2.6 4.9 5.6 1 3.3-4.1 6.3-8.2 7.6-13.3.1-.4.3-1.1.5-1.1 10.4-2.6 9.6-16.2 19.3-19.6 2.9-1 1.8-5.9 4.1-6.8 8.1-3.1 8.5-11.3 12.7-17 7.8-10.6 13.6-22.6 23.7-31.6 2.2-2 5.3 0 6.9-3.2 1.4 3.9 1.9 7.4-.5 9.8-8.3 8-12.4 19.1-21.1 27.1-4.6 4.2-8.3 10.6-12.1 16.1-4.2 6.1-8.6 13-14.6 18.1-6.9 5.9-12.1 13.4-18.1 20.3zm81.4 19.4c-.2 7.4-1.5 14.8-6.3 20.9-1.3 1.7-2.1 4.9-5.1 3.7-2.6-1-2.2-3.8-2.1-6.1 0-.6.1-1.3.1-1.9-.2 0-.4-.1-.5-.1 2.5-10.4 5-20.8 7.6-31.1.5-1.9 2.4-2.4 4.1-2.5 2.2-.2 2.6 1.9 3.1 3.4 1.9 4.6-.7 9.1-.9 13.7zm.6-57.6c-3.8 14-11.1 26.4-16.3 39.8-5.3 13.6-11.9 26.7-17.8 40.1-4.1 9.4-8.5 18.8-11.9 28.5-2.1 6.1-5.5 11.2-9.1 16.2-4.5 6.1-4.8 6-7.5 6.4 1.4-13.2 4.8-25.5 9.3-37.5 1.1-3 2-5.7 3.8-8.5 5.5-8.6 8.5-18.5 13-27.7 5.1-10.3 6.9-22.1 13-31.4 6-9 5.7-19.3 10.3-28.5 10.8-21.7 17.4-45.3 28.2-67.2 1-2 1.3-4.1 1.4-6.1.2-6.8 5.9-9.3 9.8-13.2 1.4-1.4 2 0 2.9 1 2.3 2.8 3.4 5.9 2.5 9.4-2.5 10.2-4.4 20.4-10.2 29.7-3.6 5.8-5.9 12.7-7.7 19.4-2.8 10.9-10.8 19.2-13.7 29.6zm43.3-37.2c-2.5 12.1-2.8 24.4-3.7 36.5-1.1 14.9-5.6 29.2-6.8 44.1-1.2 14.9-3.1 29.7-4.8 44.6-1.2 10.4-3.2 20.7-5.8 30.9-1.4 5.5-4.8 9.7-8.9 13.8-1.8-3.5-3.9-6.8 1.2-9.7 1.7-.9 2.3-3 1-4.4-8.4-8.7-1-17.4-1.4-26.3 3.2.5 2.8 3.7 5.7 3.4-1.1-4.1-1.2-8.2-.6-12.3.1-.7.3-2.5-1.5-1.8-4.1 1.5-2.5-1.9-2.4-3 .9-7.5 2.2-15 3.2-22.6 1-7.7 1.9-15.4 2.9-23 .3-2.1.3-4.3 2.2-5.7 1.1-.8 1.7-1.9 1.7-3.2.8-20.9 3.8-41.7 4-62.7 0-5.1 1-10.1 3.5-14.6 2.4-4.4 5.3-4.3 8.2-.3 4.1 5 3.4 11 2.3 16.3zm2.3-124.5c.3-9.3 1-18.6 1.5-27.9.7-11.6 2.4-23 4.9-34.4.9-4.2-1-7.9-1.1-11.9-1-29.2-.2-58.4-.4-87.6-.1-12-1.3-24.1-1.5-36.1-.2-8 .2-16.1.7-24.1.2-2.8.2-6.2 4.4-6.6 3.9-.4 4.5 2.1 5.9 5 4.3 9.5 3.4 19.5 3.8 30-1.2 12.8 2.2 26 1.7 39.3-1 28.2-.5 56.3-.2 84.5.1 13.1 1.4 26.3-.1 39.3-.9 8.2-1.5 16.3-1.9 24.5-.2 5.2-2.5 9.7-4.6 14.3-.5 1-1.1 1.9-2.2 2-3.7.7-11-6.1-10.9-10.3zm9.4 216.3c-.2 1.1-1.6 2.5-1.9 2.2-1.7-2.2-5.6-2.2-5.9-5.8-.2-3.1-.5-6.3-.6-7.9.3-3.6.4-5.7.6-7.8.2-1.9.2-3.9 3-3.9 2.1 0 3.9.3 4.4 2.6 1.7 6.8 1.9 13.7.4 20.6zm47.3 72.9c-1.8 1-4-.2-5.6-1.6-1.2-1.2-4-2.1-2-4.4 1.3-1.4 1.8-2.8 1.9-4.5.1-1.3-.3-2.7-1.7-3-1.6-.4-1.5 1.1-1.6 2-.2 1.2-.7 2.1-2 1.9-1.2-.2-1.6-1.6-1.4-2.5.4-2.5-.7-4.4-1.9-6.5-.8-1.4-2.6-3.1 1.5-4 3.3-.8-.3-4.6-1-5.2-5.5-5.2-5.3-11.5-3.8-17.9 1-4.2.7-7-3.9-8.3-3.2-.9-3.5-3.9-3.8-6.7-2.5-18.8-6.1-37.4-10.5-55.9-3.6-15.3-5.3-31.1-9.5-46.3-2.4-8.7-2.8-17.8-6.5-26.3-1.4-3.2-3-7.8.8-11.2 4.8-4.2 12.1-.6 13 7.5 1 9.3 4.2 18 6.5 26.9 3.7 14 5.9 28.1 6.1 42.5 0 3.6 2.6 5.6 3.2 8.7 3 14.4 6 28.7 8.8 43.1 1.6 8.1 2.5 16.3 6 23.8 2.1 4.4 3.6 9.1 3.1 14.1-.8 8 4.2 15 3.4 23-.6 2-.6 3.9 1.1 5.8 1.4 1.5 1.6 4-.2 5zm31.7-62.2c-2.4-6.3-7-11.4-8.6-18-.4-1.6-.3-3.5-3.3-3.7-2.4-.2-3.7-3.3-4.6-5.5-2.6-6.2-4.3-12.7-7.3-18.6-3.3-6.5-6.1-13.3-11-18.9-.3-.3-.6-.7-.7-1-1.6-8.5-8-14.8-10.5-22.7-2.7-8.3-7.5-15.4-10.8-23.2-2.1-4.9-4.9-9.8-4.4-15.5.2-2.5.1-5.7 3.5-5.8 2.7-.1 5.4.1 7.4 3.4 8.6 14.3 13.5 30.3 21.1 44.9 8.1 15.7 12.4 33.2 21.8 48.1 5 7.9 6.3 17.2 12 24.7 3.4 4.7-.1 8.5-4.6 11.8zm16.8-48c-.8-.4-1.6-.6-2.2-1.2-5.1-4.7-10.2-9.5-15.2-14.2-.3-.3-.6-.6-.8-1-3-5-3.5-13.5-.5-13.9 4.5-.6 7.7 2.6 10.1 6.4 3.5 5.4 9.1 9.2 11.8 15.3.8 1.8 1.6 3.4 1.5 5.2 0 3.7-1.4 5-4.7 3.4zm128.5 74.9c-2.5.1-5.8.9-7.5-1.1-1.6-1.8-3.6-3.5-4.3-6.1-1.1-3.9-3.9-5-7.4-3.2-1 .5-1.7.3-2.1-.5-3.7-6.8-10.5-10.5-15.9-15.7-4.6-4.5-4.8-4.4-8.2 1.1.6-7.5-2-12.8-9.1-15.2-.8-.3-1.6-.8-2.1-1.4-6-9.6-17-13.6-24.4-21.9-9.7-10.9-21.5-19.7-33.7-27.8-.5-.3-1.1-.7-1.5-1.1-11.5-13.3-26-23.2-39-34.7-3.6-3.2-6.5-6.6-9.3-10.4-4.8-6.7-12-11-18-16.4-6.3-5.7-13.5-10.6-17.5-18.6-1.5-3 1-12.5 3.9-12.8 3.8-.4 7.4 2.5 9.8 4.7 5 4.6 10.8 8.3 15.5 13.2 5.5 5.7 10.6 11.7 15.9 17.5.7.8 1.3 1.7 2.2 2.3 10 6.3 17.2 15.9 26.8 22.7 6.6 4.7 12.4 10.6 18.5 16 2.7 2.4 5.7 4.2 8.6 6.3 8.4 6.2 16.4 13 22.5 21.5 2.1 3 5.8 3 8 5.5 9.3 10.5 21.3 18.1 30.8 28.5 7.8 8.6 16.3 16.7 23.1 26.1 4.5 6.2 9 12.4 13.9 18.3 1.1.9 1.2 3.1.5 3.2zM563.1 522.3c.7-2.2 2.8-1.4 4.9-1.7 7.3.6 13.3 5.3 19.4 9.6 1.7 1.2 1.5 3.6.6 5.3-.9 1.9-2.5.2-3.8.2-8 .5-13.6-4-19.3-8.5-1.7-1.3-2.5-2.9-1.8-4.9zm63.9 49.2c1.5-2.5 2.3-.3 3.7.1 6.8 2 12.9 6.5 19.2 8.1 7.3 1.9 11.9 7.7 18.9 9.4 2.5.6 3.1 3.2 3.2 5.7.1 1.8-1.1 2.6-2.7 3-3.9 1-2.4-3.3-4.7-4.6-2.9 2.6-5.7 4.9-7.9-.3-.6-1.4-1.7-1.6-3.1-1-1.3.6-3.3-.2-3.3-1 .2-7.2-6.6-6.2-9.8-6.9-5.8-1.2-8.9-5.1-12.9-8.3-2-1.6-1.5-2.6-.6-4.2zm98.9 13.2c-1.8.5-3.7.8-6.1 1.3-4.6-2.4-9.8-4.9-15.3-5.2-7.6-.4-12.7-7.3-19.5-7.6-7.8-.3-13.3-5.5-20.3-7.5-10.7-3.1-22.2-4.7-31.9-9.8-10.5-5.4-22.9-6.5-32.3-14.1-1.8-1.5-4.2-2.8-2.9-5.6 1.3-2.7 3.7-1.6 6.1-1.2 2.7.5 4.6 4 6.5 3.3 4.5-1.6 7.4 1.8 10 3.3 7.2 4.3 15.4 4.9 22.9 7.8 10.1 3.8 19.8 8.4 30.1 11.6 2.4.7 4.8 1.2 7.2 1.8 9.6 2.7 18.4 7.7 27.9 10.4 6.5 1.8 12.5 4.2 18.1 7.9 1.2.8 3.1 1 3 2.6-.2 2.6-2.3.6-3.5 1zm44.8-57.1c-12.7-2.1-25.6-.9-38.3-2.3-2-.2-4.4-.8-4.9 1.4-2.3 9.8-3 1.6-4.7-.2-2.9-3.1-7.1-.7-10.8-2-2.9-1-7.3-.6-11-1.1-3.8-.5-7.4-.8-8.1 5.4.8-9.4-6.4-7.8-10-7.9-14.2-.4-28.3-2.4-42.5-3.2-9.5-.5-18.9-.8-28.4-1.6-9.2-.7-18.3-2.7-27.5-2.6-7.7.1-15.1-1-22.4-2.6-5.5-1.3-11-2.6-16.6-2.6-5.1 0-8.3-3.8-12.6-5.4-1.8-.7-1.7-3.8-.6-5.8 1-1.7 1.5-4 4.4-3.8 16.3 1.1 32.7 1.5 48.9 3.4 7.8.9 15.5 3.3 23.5 3.1 9.5-.2 18.5 3.2 27.8 3.2 16.7 0 33.1 4.3 49.9 2.9 2.8-.2 5.9.7 8.6 1.5 5.9 1.7 11.9 2 17.8 2.9 9.4 1.5 19.1 1.8 28.6 3 8.2 1.1 16.4 3.1 24.6 3.9 3.9.4 8.2-1 8.8 4.7.6 3.2.7 6.6-4.5 5.7zm18.1 9.6c-.8 0-2-.9-2.3-1.8-.9-2.1.6-2.8 2.4-3.5 2.4-1 1.8-4.7 5.3-5.6.5 3.3.5 6.1-1 8.8-1.1 1.9-2.8 2.1-4.4 2.1z"/></svg>