<svg xmlns="http://www.w3.org/2000/svg" xml:space="preserve" viewBox="0 0 800 800"><path fill="none" d="M0 0h800v800H0z"/><path fill="none" d="M100 500h300v200H100z"/><path d="M210.5 700h-17.7c-.9-3.4-1.5-7.3-1.8-11-6.2 8.3-17.1 12.9-32.6 12.9-32.4 0-50.5-24.5-50.5-56.3 0-33.6 19.5-58.9 54.7-58.9 28.7 0 45.7 16.2 48.4 35.3h-24.2c-2.3-7.5-8.2-16.3-24.5-16.3-22.9 0-29.5 19.2-29.5 38.9 0 19.2 7.5 38.1 29.6 38.1 20.6 0 24.5-14.3 24.5-24.3v-1h-24.5v-19.8h48.2V700zM297.2 675.6c0 8.1 0 16.9.2 24.4h-22.8c-.3-2.2-.5-6.7-.6-9.7-5 8.4-12.4 11.6-23.1 11.6-17.1 0-28-10.4-28-31.2v-54.6h23.2v50c0 9.3 2.9 16.9 12.9 16.9 10.6 0 15-5.6 15-22.2v-44.6h23.2v59.4zM310.2 637.2c0-7.1 0-14.9-.2-21.1h22.5c.5 2.2.8 8 .9 10.7 2.9-5.3 9.6-12.6 24.3-12.6 16.8 0 27.8 11.4 27.8 32.5V700h-23.2v-50.8c0-9.4-3.1-16.3-13.4-16.3-9.9 0-15.5 5.5-15.5 20.3V700h-23.2v-62.8z"/><path fill="none" d="M0 350.1h800v100H0z"/><path d="M186.3 354.5h29.5c21.7 0 35.9 14.3 35.9 36.3 0 21.7-13.8 38.2-36.5 38.2h-28.8v-74.5zm16.1 61.4h12.1c14.3 0 20.6-10.6 20.6-25.1 0-12.2-5.9-23.3-20.5-23.3h-12.2v48.4zM264 350.1h15.5v13.8H264v-13.8zm0 22.9h15.5v55.9H264V373zM304.2 412.1c1.2 4.5 4.8 7 10.6 7 5.7 0 7.8-2.1 7.8-5.4 0-3.6-2.4-5-10.4-7-18.2-4.5-21.2-10.1-21.2-18 0-8.2 5.8-16.9 22.7-16.9 17 0 22.7 9.3 23.2 16.8h-14.7c-.5-2.1-1.9-6-9.2-6-5.1 0-6.8 2.3-6.8 4.8 0 2.8 1.7 4.1 10.8 6.2 18.7 4.3 21.3 10.7 21.3 18.9 0 9.3-7 17.7-24.1 17.7-17 0-24-8.2-25.2-18.1h15.2zM395.3 414.5c0 5.3.4 13.1.8 14.4h-14.8c-.4-1.1-.8-4.1-.8-5.5-2 3.1-5.8 6.8-15.7 6.8-13.5 0-19.2-8.9-19.2-17.5 0-12.7 10.2-18.6 26.6-18.6h8v-3.4c0-4-1.4-7.9-8.6-7.9-6.5 0-8 2.8-8.7 6.8h-14.7c.8-9.9 7-18 24-17.9 15 .1 23.1 5.9 23.1 19.2v23.6zm-15.1-11h-6.3c-9.3 0-12.8 2.8-12.8 8.2 0 4 2.5 7.5 8 7.5 9.8 0 11-6.8 11-14.2v-1.5zM409.3 350.1h15.5V379c2.3-3.6 6.9-7.2 16-7.2 15.2 0 22.8 12.6 22.8 28.2 0 16-8.2 30.2-24.3 30.2-8.3 0-12-2.5-14.7-6.6 0 1.8-.3 3.9-.6 5.3h-14.8c.1-6.1.1-12.2.1-18.3v-60.5zm38.6 50.2c0-9.3-3.5-16.2-11.8-16.2-8.8 0-12 5.8-12 17.1 0 9.4 2.8 16.6 11.8 16.6 7.9.1 12-7 12-17.5zM474.2 428.9v-78.8h15.5v78.8h-15.5zM515.9 404.3c0 7 3.5 13.8 11.2 13.8 6.4 0 8.3-2.6 9.8-6h15.5c-2 6.8-8.1 18.1-25.7 18.1-18.4 0-26.4-13.8-26.4-28.4 0-17.5 9-30.1 27-30.1 19.2 0 25.7 13.9 25.7 27.8 0 1.9 0 3.1-.2 4.7h-36.9zm21.6-9.5c-.1-6.5-2.7-12-10.2-12-7.4 0-10.4 5.1-11 12h21.2zM615.8 350.1v63.5c0 5.1 0 10.2.1 15.4H601c-.3-1.7-.6-4.6-.7-5.8-2.7 4.4-7.5 7.1-15.9 7.1-14.1 0-23.1-11.4-23.1-28.8 0-17.2 9.6-29.7 25.4-29.7 8 0 12.4 2.8 13.6 5.3v-27h15.5zM577.2 401c0 10.9 4.2 16.8 11.8 16.8 10.6 0 11.9-8.9 11.9-16.9 0-9.6-1.4-16.8-11.5-16.8-8.1 0-12.2 6.4-12.2 16.9z"/><path fill="none" d="M400 99.6h300v200H400z"/><path d="M514.8 217.9h-17.7c-.9-3.4-1.5-7.3-1.8-11-6.2 8.3-17.1 12.9-32.6 12.9-32.4 0-50.5-24.5-50.5-56.3 0-33.6 19.5-58.9 54.7-58.9 28.7 0 45.7 16.2 48.4 35.3H491c-2.3-7.5-8.2-16.3-24.5-16.3-22.9 0-29.5 19.2-29.5 38.9 0 19.2 7.5 38.1 29.6 38.1 20.6 0 24.5-14.3 24.5-24.3v-1h-24.5v-19.8h48.2v62.4zM601.5 193.5c0 8.1 0 16.9.2 24.4h-22.8c-.3-2.2-.5-6.7-.6-9.7-5 8.4-12.4 11.6-23.1 11.6-17.1 0-28-10.4-28-31.2V134h23.2v50c0 9.3 2.9 16.9 12.9 16.9 10.6 0 15-5.6 15-22.2V134h23.2v59.5zM614.5 155.2c0-7.1 0-14.9-.2-21.1h22.5c.5 2.2.8 8 .9 10.7 2.8-5.3 9.6-12.6 24.3-12.6 16.8 0 27.8 11.4 27.8 32.5V218h-23.2v-50.8c0-9.4-3.1-16.3-13.4-16.3-9.9 0-15.5 5.5-15.5 20.3v46.7h-23.2v-62.7z"/></svg>