<svg xmlns="http://www.w3.org/2000/svg" xml:space="preserve" viewBox="0 0 800 800"><path fill="none" d="M.2-.6h800v800H.2z"/><path fill="none" d="M399.8 200.2H600v200H399.8z"/><path d="M518.6 273.9c-1.6-6.4-5.3-12.6-16.7-12.6-17.5 0-22 16.4-22.8 33.9 5.5-6.7 14.7-12.1 29.5-12.1 23.9 0 40.8 17.6 40.8 43.2 0 27.8-17.8 48.5-47.8 48.5-37.8 0-50.4-29.1-50.4-65.9 0-33.9 12-69.1 51.9-69.1 28.3 0 41.5 17.7 42.8 34.1h-27.3zm2.6 54.8c0-12.4-4.6-23.5-20.2-23.5-12.7 0-20.1 7.4-20.1 22.5 0 10.5 5 24.6 20.2 24.6 13.7 0 20.1-10.4 20.1-23.6z"/><path fill="#231F20" d="m361.3 390.1-61.8-44.9-61.8 44.9 23.6-72.6-61.8-44.9H276l23.6-72.6 23.6 72.6h76.3l-61.8 44.9 23.6 72.6zm-61.7-55.6 45.3 32.9-17.3-53.2 45.3-32.9h-56L299.6 228l-17.3 53.2h-56l45.3 32.9-17.3 53.2 45.3-32.8z"/><path fill="red" d="m400.2 399.4 23.6 72.6h76.4l-61.8 44.9 23.6 72.7-61.8-44.9-61.8 44.9 23.6-72.7-61.8-44.9h76.4z"/><path fill="none" d="M500.1 400.5h200.2v200H500.1z"/><path d="M645.1 442.5v21c-20.6 29.2-40.9 71.5-46 109.3H570c5.1-38.3 28.5-84.3 46.2-107h-61.3v-23.3h90.2zM170.1 599.8h-6.7v-63.2h-63.2v-6.7h69.9zM236.6 599.8h-6.7v-69.9h69.9v6.7h-63.2zM170.1 470.1h-69.9v-6.7h63.2v-63.2h6.7zM299.8 470.1h-69.9v-69.9h6.7v63.2h63.2zM100.2 476.7h199.6v46.6H100.2z"/><path d="M175 400.2h49.9v199.6H175z"/></svg>