<svg xmlns="http://www.w3.org/2000/svg" xml:space="preserve" baseProfile="tiny" overflow="visible" version="1.2" viewBox="0 0 1000 1000"><path fill="none" d="M.2.2h1000v1000H.2z"/><path fill="none" d="M100.2 200.2h300v100h-300z"/><path d="M121.2 219.7h-19.1v-15.4h58.5v15.4h-19v58.6h-20.4v-58.6zM182.2 221.6c4.4 18.3 7.5 33 8.3 40.5h.4c1.4-7.9 5.2-26.3 8.3-40.5h19.6l-17 54.6c-6.3 20.5-12.3 23.6-25.7 23.6-2.1 0-5.6-.3-8.1-.6v-14.4c1.7.2 3.8.3 4.9.3 4 0 6.3-1.9 7.2-5l-19-58.4h21.1zM244.2 274.3v24.6h-19.7v-61c0-7.6.1-12.6-.1-16.4h19.3c.2 1.7.3 4.2.4 6.4 1.8-3.1 6-7.6 15.3-7.6 11.5 0 21 8.7 21 28.7 0 20.1-11.2 30.3-23.7 30.3-6.3 0-10.4-1.8-12.5-5zm16.2-24.6c0-10-3-14.9-8.4-14.9-6.5 0-8.4 3.3-8.4 15.2 0 10.8 1.9 15.3 8 15.3 5.9 0 8.8-4.8 8.8-15.6zM307.3 254c0 6.4 2 11.9 8.3 11.9 5 0 6.5-3 7.3-5.5h19c-2.3 8.6-8.5 19-26.7 19-20.3 0-27.7-13.3-27.7-29.4 0-14.3 7.2-29.6 28.3-29.6 20.6 0 26.8 14.1 26.8 28.9 0 .6-.1 4.1-.1 4.7h-35.2zm15.6-11c-.1-5.4-1.7-9.7-7.6-9.7-6.1 0-7.7 4.7-7.9 9.7h15.5z"/><path fill="none" d="M601.1 199.4h299.1v200H601.1z"/><path d="M743.4 253.5c0-11.5.2-27.2.5-35.9h-.7c-2.8 16-8 40.7-12.8 59.9H714c-3.7-18.3-8.8-43.6-11.3-59.9h-.7c.6 8.6.9 23.8.9 36.5v23.4h-18.2v-73.9H714c3.3 13.4 7.7 36.2 9.2 47h.4c1.7-11.6 6.8-31.8 10.8-47h28.5v73.9h-19.5v-24zM829.6 248.4c0 16-7.8 30.3-29 30.3-21.3 0-28.4-14.7-28.4-29.9 0-12.5 6.7-29.1 29.2-29.1 21.6-.1 28.2 15.2 28.2 28.7zm-37.2.1c0 11.7 2.8 16.5 8.7 16.5 5.5 0 8.3-5 8.3-16.5 0-10.9-2.5-15.4-8.6-15.4-5.5.1-8.4 4.8-8.4 15.4zM892 199.4v61.3c0 7.6.1 13.6.2 16.7H873c-.2-1.3-.5-4-.6-5.7-2.9 4.3-6.9 6.9-15.3 6.9-14.7 0-21.1-13.1-21.1-29.3 0-17.5 8.9-29.8 24-29.8 6.9 0 10.8 2.2 12.2 4.4v-24.6H892zm-35.8 49.1c0 10.5 2.4 15.9 8.4 15.9 7.1 0 8.4-4.9 8.4-15.8s-1.3-14.8-8-14.8c-5.4 0-8.8 4.4-8.8 14.7z"/><path fill="none" d="M100.1 300.4H600v399.8H100.1z"/><path d="M107.2 335.8h51.1v15.4h-31.1v14.6h29.2V381h-29.2v28.7h-20v-73.9zM184.5 351.2h-19.1v-15.4h58.5v15.4h-19v58.6h-20.4v-58.6zM127.6 465.4v73.9h-20.4v-73.9h20.4zM142.1 465.4h51.1v15.4h-31.1v14.6h29.2v15.3h-29.2v28.7h-20v-74zM196.6 539.3v-19.7h17.8v19.7h-17.8zM248.4 465.4h20.4V493h20.5v-27.6h20.5v73.9h-20.5v-30.5h-20.5v30.5h-20.4v-73.9zM374.9 508.9h-31V524h34.5l-2.3 15.3h-51.9v-73.9h51.9v15.4h-32.2v12.8h31v15.3zM124.2 654l-3.7 15h-20l20.7-73.9h27.4l21.7 73.9H149l-4.1-15h-20.7zm17.4-15.9c-3-11.1-5.6-21.8-7.1-29.4h-.3c-1.5 8.1-4 18.9-6.8 29.4h14.2zM177.1 631.5c0-9.6 0-15.9-.2-19.2h19.3c.2 2.2.4 7 .4 10.1 1.9-5.5 6.8-11.2 16.5-11.2v18.7c-11.9-.2-16.2 3.2-16.2 15.1v23.9h-19.8v-37.4zM218.4 612.3h7.4v-14.6h19.6v14.6h9.1v13.9h-9.1V651c0 3.5.9 4.9 5.2 4.9 1.1 0 1.4 0 2.8-.2v12.6c-3.4 1.1-8.5 1.3-11.1 1.3-12.9 0-16.5-4.8-16.5-15.9v-27.6h-7.4v-13.8zM262.8 668.9v-19.7h17.8v19.7h-17.8zM381.3 631.6c0 21.6-10.2 38.8-35.5 38.8-24 0-34.2-17.3-34.2-38.8 0-19.3 10.4-37.8 35.3-37.8 24-.1 34.4 17.8 34.4 37.8zm-48.4-.2c0 14.2 4.2 24 13.8 24 10.4 0 13.6-9 13.6-24.1 0-13-3.1-22.8-13.9-22.8-9.9.1-13.5 9.2-13.5 22.9zM407.4 612.3c3.5 14.1 6.6 28.8 8 38.9h.4c1.4-10.1 4.2-21.6 8.3-38.9h19.5L425.8 669h-22.2l-17.4-56.7h21.2zM449.4 631.5c0-9.6 0-15.9-.2-19.2h19.3c.2 2.2.4 7 .4 10.1 1.9-5.5 6.8-11.2 16.5-11.2v18.7c-11.9-.2-16.2 3.2-16.2 15.1v23.9h-19.8v-37.4z"/><path fill="none" stroke="#000" stroke-miterlimit="10" stroke-width="5" d="M100.2 300.2h799.5"/><path fill="none" d="M700.2 300.1H900v400.1H700.2z"/><path d="M895.9 372.3c0 22.1-7.2 38.5-27.9 38.5-20.2 0-27.8-15.8-27.8-37.9 0-21.5 8.6-36.3 28.1-36.3 19 0 27.6 13.5 27.6 35.7zm-36 .7c0 17.1 1.8 24.5 8.1 24.5 6.7 0 8-7.7 8-24.7 0-16.3-1.8-22.9-7.9-22.9-5.8.1-8.2 5.8-8.2 23.1zM817.4 484.6v20h19.4v13.9h-19.4v20.2h-14.1v-20.2h-19.7v-13.9h19.7v-20h14.1zM844.6 539.2v-.8c0-13.5 5.2-23.8 20.5-35.6 8.4-6.5 11.7-9.5 11.7-15.3 0-4.8-2.1-7.8-6.7-7.8-5.2 0-7.3 3.8-7.7 11h-18.1c.4-10.9 5.6-24.5 26.8-24.5 16.8 0 25.5 9.4 25.5 21.6 0 8.9-3 14.5-16 23.6-6.3 4.5-10.8 8.7-12.5 12.7h30.2L896 539h-51.4zM814.1 614.2v20h19.4v13.9h-19.4v20.2H800v-20.2h-19.7v-13.9H800v-20h14.1zM873 668.8v-15.4h-31v-14.7l24.2-41.8H891v41.8h7.4l-1.6 14.6H891v15.4h-18zm0-40.8c0-7.2.1-12.3.4-17.3-3.1 6.9-10.3 20.1-14.3 28.1H873V628z"/></svg>