<svg xmlns="http://www.w3.org/2000/svg" xml:space="preserve" baseProfile="tiny" overflow="visible" version="1.2" viewBox="0 0 1000 1000"><path fill="none" d="M0 0h1000v1000H0z"/><path fill="none" d="M0 0h1000v1000H0z"/><path fill="none" d="M100 200h300v100H100z"/><path d="M107.1 204h20.4v27.6H148V204h20.5v74H148v-30.5h-20.5V278h-20.4v-74zM197.6 253.7c0 6.4 2 11.9 8.3 11.9 5 0 6.5-3 7.3-5.5h19c-2.3 8.6-8.5 19-26.7 19-20.3 0-27.7-13.3-27.7-29.4 0-14.3 7.2-29.6 28.3-29.6 20.6 0 26.8 14.1 26.8 28.9 0 .6-.1 4.1-.1 4.7h-35.2zm15.6-10.9c-.1-5.4-1.7-9.7-7.6-9.7-6.1 0-7.7 4.7-7.9 9.7h15.5zM255.9 221.3c3.5 7.3 5.6 13.7 6.7 17h.4c1.6-4.1 4.2-10.7 7.2-17H291L274.7 248l16.2 30h-21.6c-3.3-8-5.6-14-6.9-17.5h-.3c-.9 2.3-4.1 11.1-6.9 17.5h-21.1l15.6-27.7-15.6-28.9h21.8z"/><path fill="none" d="M600.9 199.2H900v200H600.9z"/><path d="M678.5 203.2h28.6c24 0 35.6 14 35.6 35.7 0 23.7-12.8 38.3-36 38.3h-28.2v-74zm20.5 59.3h6.8c10.7 0 15.8-7.2 15.8-23.3 0-13.9-4.2-21.2-15.5-21.2h-7v44.5zM752.8 199.2h19.8v14.3h-19.8v-14.3zm0 21.3h19.8v56.7h-19.8v-56.7zM835.3 256.5c-1.5 12.4-8.9 21.8-26.5 21.8-19.7 0-27.1-11.9-27.1-29.2 0-19.2 10.9-29.8 28-29.8 20.6 0 25.4 13.8 25.6 22.1h-19.2c-.2-4.9-1.7-8.8-6.5-8.8-5.5 0-7.7 5-7.7 16 0 12.4 2.6 16.6 7.4 16.6 4.9 0 6.1-3.7 6.9-8.6h19.1zM861.7 252.9c0 6.4 2 11.9 8.3 11.9 5 0 6.5-3 7.3-5.5h19c-2.3 8.6-8.5 19-26.7 19-20.3 0-27.7-13.3-27.7-29.4 0-14.3 7.2-29.6 28.3-29.6 20.6 0 26.8 14.1 26.8 28.9 0 .6-.1 4.1-.1 4.7h-35.2zm15.6-10.9c-.1-5.4-1.7-9.7-7.6-9.7-6.1 0-7.7 4.7-7.9 9.7h15.5z"/><path fill="none" d="M99.9 300.2h300V700h-300z"/><path d="M117.1 409.5 101 335.6h21.5c2.1 14.5 5.3 36.5 6.6 51.9h.4c2.8-15.4 7-34.6 10.4-51.9H158c2.9 14.4 7.3 35.3 9.7 51.1h.4c1.7-15.2 6.2-40.2 7.7-51.1h19.6l-17.3 73.9h-20.9c-2.9-15-6.8-31.9-9.2-46.4h-.3c-2.5 14.2-6.8 32.5-9.7 46.4h-20.9zM203.3 335.6h28.6c24 0 35.6 14 35.6 35.7 0 23.7-12.8 38.3-36 38.3h-28.2v-74zm20.5 59.2h6.8c10.7 0 15.8-7.2 15.8-23.3 0-13.9-4.2-21.2-15.5-21.2h-7v44.5zM278.9 409.5v-73.9h24.7c15.6 37.4 18.8 45.9 19.7 49.1h.4c-.8-8.6-1-21.3-1-32.8v-16.3h18.7v73.9h-23.8c-17-41.8-19.5-48.5-20.4-51.3h-.2c.7 9.3.7 22 .7 34.7v16.5h-18.8zM122.3 516.5c.8 6 4.3 9.7 11 9.7 6.8 0 9-2.8 9-6.9 0-5.3-3.5-7.8-13.6-10.5-18.4-5-23.9-12-23.9-22.3 0-14.9 12.1-22.6 27.6-22.6 18.3 0 27.8 8.8 28.6 22.5h-19.3c-.6-4.6-2.7-8.4-9.3-8.4-5 0-7.7 2.3-7.7 6.3 0 4.6 3.3 5.9 13.2 8.7 19.5 5.5 24.9 12.9 24.9 24.2 0 14.1-10.5 23.4-30.1 23.4-18.3 0-29-9.2-29.9-23.9h19.5zM167.2 482.4h7.4v-14.6h19.6v14.6h9.1v13.9h-9.1v24.9c0 3.5.9 4.9 5.2 4.9 1.1 0 1.4 0 2.8-.2v12.6c-3.4 1.1-8.5 1.3-11.1 1.3-12.9 0-16.5-4.8-16.5-15.9v-27.6h-7.4v-13.9zM210.4 500.2c0-11.7-.1-15.2-.2-17.7h19.3c.2 1 .5 4.2.5 6.3 2.5-3.9 7.6-7.5 15.4-7.5 11.7 0 17.5 7.9 17.5 20.2v37.7h-19.8v-34.4c0-5.4-1.2-8.6-6.1-8.6-4.5 0-6.9 2.4-6.9 10.3v32.6h-19.8v-38.9zM107 594.8h28.6c24 0 35.6 14 35.6 35.7 0 23.7-12.8 38.3-36 38.3H107v-74zm20.4 59.2h6.8c10.7 0 15.8-7.2 15.8-23.3 0-13.9-4.2-21.2-15.5-21.2h-7V654zM181.2 590.7H201V605h-19.8v-14.3zm0 21.3H201v56.7h-19.8V612zM215 668.7V626h-7v-14h7v-3.4c0-12.3 6-18.6 18.9-18.6 3.7 0 6.5.5 8 .9v13.2c-.9-.2-2.2-.3-3.1-.3-3.2 0-4.1 2-4.1 4.9v3.3h8.2v14h-8.2v42.7H215z"/><path fill="none" stroke="#000" stroke-miterlimit="10" stroke-width="5" d="M100 300h799.5"/><path fill="none" d="M680 299.9h199.8V700H680z"/><path d="M683.8 388.3c0-8.9 5.5-14.3 10.9-16.8-5.7-2.9-8.5-8.6-8.5-15.1 0-10.6 7.3-20 25.6-20 17 0 25.5 8.6 25.5 19.8 0 7.5-3.7 12.2-8.9 14.5 5.5 2.2 11.1 8 11.1 17.3 0 12.9-7.9 22.7-28.8 22.7-19-.1-26.9-10.9-26.9-22.4zm36-.3c0-6.4-2.7-10-8.2-10-5.9 0-8.1 4-8.1 10.1 0 6.2 3 9.8 8.4 9.8s7.9-3.6 7.9-9.9zm-15.2-31c0 5.2 2.3 8.3 7.1 8.3 4.9 0 7.1-3 7.1-8.1 0-5.2-2.1-8.2-7.1-8.2-4.6 0-7.1 2.6-7.1 8zM776.7 373.5v15.3h-29.5v-15.3h29.5zM703.8 521.2c.7 3.4 2.5 5.8 6.8 5.8 6.7 0 7.8-9.4 8.1-17.7-2.8 3.4-8.1 4.5-12.7 4.5-12.9 0-22.6-8.5-22.6-22.3 0-15.5 10.8-25.5 26.9-25.5 20.7 0 28.1 14.4 28.1 34.4 0 23.2-7.1 39.7-28.6 39.7-18.4 0-24-9.9-25.1-18.9h19.1zm-.6-31.6c0 7.4 3.1 10.7 7.7 10.7 4.4 0 7.5-2.2 7.5-9.6 0-7.2-2-11.7-7.7-11.7-4.8.1-7.5 3.6-7.5 10.6zM781.3 484.4v20h19.4v13.9h-19.4v20.2h-14.2v-20.2h-19.7v-13.9h19.7v-20h14.2zM690.6 668.5v-51.8c-2.4-.1-6.7-.4-8.1-.7v-12.8c5.7-.4 10.9-3.1 13.9-6.4h13.9v71.6h-19.7zM777.3 631.3c0 22.1-7.2 38.5-27.9 38.5-20.2 0-27.8-15.8-27.8-37.9 0-21.5 8.6-36.3 28.1-36.3 19 0 27.6 13.5 27.6 35.7zm-35.9.7c0 17.1 1.8 24.5 8.1 24.5 6.7 0 8-7.7 8-24.7 0-16.3-1.8-22.9-7.9-22.9-5.8 0-8.2 5.8-8.2 23.1zM820.2 614v20h19.4v13.9h-19.4v20.2h-14.1v-20.2h-19.7V634h19.7v-20h14.1z"/></svg>