<svg xmlns="http://www.w3.org/2000/svg" xml:space="preserve" viewBox="0 0 800 800"><path fill="none" d="M99.5 99.9h600.3v599.8H99.5z"/><path fill="#FFF" d="M146.3 283h98.4c72.3 0 119.5 47.6 119.5 121 0 72.4-45.8 127.2-121.8 127.2h-96.2V283zM200 487.9h40.2c47.6 0 68.6-35.4 68.6-83.7 0-40.5-19.7-77.8-68.3-77.8H200v161.5zM601.3 438.1c0-42.3.7-89.8 1.8-117.9h-1.7c-11.7 50.6-36.5 133.3-60.3 211h-45.7c-18.1-67.9-43.8-162.1-54.7-211.7H439c2.1 29.1 3.2 80.2 3.2 122.8v88.9h-48.9V283h79.9c19.3 64.8 41 146.2 48.5 183.2h.4c6.1-32.6 33.3-119.6 54-183.2h77v248.2h-51.8v-93.1z"/></svg>