<svg xmlns="http://www.w3.org/2000/svg" xml:space="preserve" viewBox="0 0 800 800"><path fill="none" d="M99.5 100.6h600.3v599.8H99.5z"/><path d="M280.2 338.1c4.7-40.8 33.4-91.3 116.3-91.3 76.8 0 110.9 43.5 110.9 90.3 0 39.9-22.9 58.9-41 67.3v1.5c21.5 7.9 53.9 28.5 53.9 80 0 48-29.1 104.7-124.4 104.7-88.8 0-119.1-53.6-122.4-97.5h70.1c4.5 22.7 20.1 42.3 54.3 42.3 33.4 0 49.8-21.4 49.8-50.7 0-30.7-15.7-49.2-54.4-49.2h-29.9v-55.6h26.3c33.1 0 46.5-11 46.5-38.7 0-22.8-13.5-38.1-42.1-38.1-33.6 0-41.7 18.7-45.3 35.2h-68.6z"/></svg>