<svg xmlns="http://www.w3.org/2000/svg" xml:space="preserve" viewBox="0 0 800 800"><path fill="none" d="M0 0h800v800H0z"/><path fill="none" d="M299.9 100.4h400v600h-400z"/><path d="M574.5 174v44.7h-23.6V107H600c24.4 0 37.5 13.4 37.5 30.7 0 15-8.2 23.1-16.2 26.4 5.5 2 13.9 7.8 13.9 27.8v5.5c0 7.5.1 16.1 1.6 21.3h-22.9c-2-4.9-2.3-13.2-2.3-25.1V192c0-12.2-3.1-18-21.1-18h-16zm0-19.2h20.2c13.2 0 18.3-5 18.3-14.4 0-9.1-5.9-14.2-17.7-14.2h-20.8v28.6zM663 218.7V139c-4.9 2.3-14 4.2-19.3 4.6v-17.3c10.1-1.9 20.3-7.6 26.4-14.3h16.4v106.7H663zM588.2 413.1l-23.9-39.3h-.2l-24.4 39.3h-26l37.1-56.2-36.1-55.4h28l22.6 37h.2l23.4-37h25.6l-36 53.2 37.7 58.5h-28z"/><path d="M668.4 332.4c-1.3-5.3-4.3-10.3-13.6-10.3-14.3 0-18 13.4-18.6 27.7 4.5-5.5 12-9.9 24.1-9.9 19.5 0 33.4 14.4 33.4 35.4 0 22.8-14.6 39.7-39.1 39.7-30.9 0-41.2-23.8-41.2-53.9 0-27.7 9.8-56.6 42.5-56.6 23.2 0 34 14.5 35 27.9h-22.5zm2.1 44.9c0-10.1-3.8-19.2-16.6-19.2-10.4 0-16.4 6.1-16.4 18.4 0 8.6 4.1 20.1 16.5 20.1 11.2 0 16.5-8.5 16.5-19.3z"/><path fill="none" d="M100 500h300v200H100z"/><path d="M206.9 658.1c0-19.1.3-40.4.8-53h-.8c-5.2 22.8-16.4 60-27.1 94.9h-20.6c-8.1-30.6-19.7-72.9-24.6-95.2h-.8c1 13.1 1.4 36.1 1.4 55.2v40h-22V588.3h35.9c8.7 29.2 18.5 65.8 21.8 82.4h.2c2.7-14.7 15-53.8 24.3-82.4H230V700h-23.3v-41.9zM345.9 700h-17.7c-.9-3.4-1.5-7.3-1.8-11-6.2 8.3-17.1 12.9-32.6 12.9-32.4 0-50.5-24.5-50.5-56.3 0-33.6 19.5-58.9 54.7-58.9 28.7 0 45.7 16.2 48.4 35.3h-24.2c-2.3-7.5-8.2-16.3-24.5-16.3-22.9 0-29.5 19.2-29.5 38.9 0 19.2 7.5 38.1 29.6 38.1 20.6 0 24.5-14.3 24.5-24.3v-1h-24.5v-19.8H346V700z"/><path fill="none" d="m64.54 135.442 70.71-70.71 599.973 599.974-70.71 70.71z"/><path d="M237.7 239.1c9-9 19.2-18.9 25.4-24.6l-.4-.4c-13.2 8.3-36 20.5-57.5 32l-9.7-9.7c10.6-18.2 25.1-43.7 33.3-56.5l-.4-.4c-5.7 6.6-16.3 17.7-25.4 26.7l-18.9 18.9-10.4-10.4 52.7-52.7 16.9 16.9c-9.7 17.9-22.3 39.7-28.6 49.2l.1.1c8.2-5.6 32.4-18.3 50.3-27.4l16.3 16.3-52.7 52.7-11-11 20-19.7zM281.7 302.2c-3.8 3.8-9 9.6-9.7 10.7l-10.5-10.5c.5-1.1 2.3-3.4 3.3-4.4-3.7.8-8.9.7-15.9-6.3-9.5-9.5-7.3-19.8-1.2-25.9 9-9 20.4-5.9 32 5.7l5.6 5.6 2.4-2.4c2.8-2.8 4.6-6.6-.5-11.7-4.6-4.6-7.6-3.7-11-1.3l-10.4-10.4c7.6-6.4 17.6-7.8 29.6 4.3 10.5 10.7 12.1 20.6 2.7 30l-16.4 16.6zm-2.9-18.5-4.5-4.5c-6.6-6.6-11.1-7-14.9-3.2-2.9 2.9-3.5 7 .4 11 7 7 12.6 3 17.9-2.2l1.1-1.1zM281.4 322.3l55.7-55.7 10.9 10.9-55.7 55.7-10.9-10.9zM304.2 345.1l31.3-31.3-5.8-5.8 8.2-8.2 5.8 5.8 3.5-3.5c8.2-8.2 17.6-9.5 26.1-.9 1.8 1.8 3.9 4.3 4.6 5.6l-8.6 8.6c-.5-.7-1.2-1.6-2.1-2.5-3.2-3.2-5.6-3.2-9.9 1l-2.6 2.6 6.9 6.9-8.2 8.2-6.9-6.9-31.3 31.3-11-10.9zM373.6 391.6c-3.8 3.8-7.9 8-11.4 11.6l-10.7-10.7c.9-1.2 2.9-3.4 4.3-4.9-6.3 1.6-11.3-.4-16.4-5.4-8.1-8.1-8.3-18.1 1.5-27.9l25.7-25.7 10.9 10.9L354 363c-4.4 4.4-6.6 9.3-1.9 14.1 5 5 9.7 4.4 17.5-3.4l21-21 10.9 10.9-27.9 28zM401.6 383.4c3.4-3.4 7-7 9.9-10l10.6 10.6c-.8 1.2-3.4 4.1-4.6 5.5 3.8-1.1 10.5-1.4 17.4 5.5 7.9 7.9 7.7 18.5-2.2 28.4l-25.1 25.1-10.9-10.9 23.9-23.9c4.4-4.4 6.2-9.1 1.4-14-4.7-4.7-9.9-4.7-16.9 2.3l-22 22-11-11 29.5-29.6zM464.3 479.7c-7.9 5.2-19.7 7.7-31.5-4.1-12.3-12.3-10.1-27.1 1.8-39 11.7-11.7 28.1-13.8 40.1-1.8 13.3 13.3 7.5 26.6 3.2 31.3l-10.7-10.7c2.5-3.9 3-8-1.3-12.2-5-5-12.2-3.5-19.9 4.2-8.4 8.4-9.3 15.2-4.5 20 3.8 3.8 8 3.6 11.9 1.6l10.9 10.7zM494.7 456.6l6.1 6.1 10.7-10.7 10.9 10.9-10.7 10.7 7.7 7.7-8.2 8.2-7.7-7.7-19.5 19.6c-3 3-3.2 5.1 0 8.3.6.6 1.7 1.7 2.6 2.4l-7.5 7.5c-2.9-1.4-5.9-4.4-8.1-6.6-7.7-7.7-6.1-14.4.8-21.3l20.8-20.8-6.1-6.1 8.2-8.2zM525.6 487.5l10.9 10.9L497 538l-10.9-11 39.5-39.5zm16.2-16.2 10.9 10.9-9.7 9.8-10.9-11 9.7-9.7zM563.5 564.7c-12 12-27.9 13.6-40.4 1.1-12.3-12.3-10.7-28.2 1.1-40 12.2-12.2 28.2-13.4 40.7-.9 11.7 11.7 11 27.4-1.4 39.8zm-28.1-27.9c-7.6 7.6-8.8 15.4-3.6 20.7 5.4 5.4 12.8 3.8 20.4-3.7 8.3-8.3 9.1-15.2 3.7-20.7-5-5.1-12.1-4.6-20.5 3.7zM580.8 562.6c3.4-3.4 7-7 9.9-10l10.6 10.6c-.8 1.2-3.4 4.1-4.6 5.5 3.8-1.1 10.5-1.4 17.4 5.5 7.9 7.9 7.7 18.5-2.2 28.4l-25.1 25.1-10.9-10.9 23.9-23.9c4.4-4.4 6.2-9.1 1.4-14-4.7-4.7-9.9-4.7-16.9 2.3l-22 22-10.9-10.9 29.4-29.7z"/></svg>