<svg xmlns="http://www.w3.org/2000/svg" xml:space="preserve" baseProfile="tiny" overflow="visible" version="1.2" viewBox="0 0 1000 1000"><path fill="none" d="M0 0h1000v1000H0z"/><path d="M242.6 330.9c-.8-2.5-.7-4.8 1.4-6.9 3.7-3.7 1.2-9.2-3.7-11.1-4-1.5-8.3-2.7-11.6-5.8-1.4-1.3-3.1-1-4.6-1.1-8.1-.5-14.9-5.5-22.8-6.4-2.4-.3-3.4-1.3-4-3.6-1.5-5.5-1-6.3 4.2-8.9 6-2.9 11.6-2.5 18-.7 4.5 1.3 8.7 3.1 12.5 5.2 7.2 4 14.4 7.4 22.6 8.6 3.5.5 6.7 2.7 10.2 3.7 4.6 1.4 6.1.5 7.3-4.1.9-3.5-.9-6.8-4.6-7.5-5-1-7.9-5-11.7-7.8-.8-.6-1.3-1.5-2.5-1.2-1 .3-2.4 2-2.9-.3-.4-1.7-.4-4 1.7-4.4 2.1-.4 3.4-1.4 4.6-2.9 1.1-1.3 2.4-1.1 3.7-.5 3 1.3 5.9 2.2 9.3 1.9 2.7-.2 5.9 1.2 8.4 2.7 4.4 2.7 10.2 1.9 14.1 5.7.7.7 1.7.2 2.2-.7.8-1.3 2-2.7.7-4.1-4.3-4.8-5.8-12-13.1-14.3-2.3-.7-1.7-3 .1-4.1 3.2-1.9 3.8-4.1 2-7.4-1.1-2.1-.1-3.6 2.4-2.6 2.3.9 4 .6 5.9-.8 1-.8 2.7-1.4 3.9-1.1 4.2 1.2 7.9-2.2 12-1.3.6.1 1.4-.4 2-.8 3.4-2.5 7-2.5 10.6-1 3.2 1.3 6.3.2 9.1-.6 2.5-.7 2.5-3.4 2.1-5.8-.9-5.8-.8-5.5 5.2-5.5 3.6 0 7 1.8 10.6.8 5.8-1.6 12.4-1.4 15.7-8.4 1.5-3.2 5.6-4.5 9.1-5.2 4.7-1 9.6-1.3 14.5-1.8 2.7-.3 4.3-1.3 3.8-4.3-.3-1.5-1.5-2.6-3-1.6-5 3.4-11 1.6-16.3 3.2-.6.2-1.2.1-1.8.2-1 .1-2.1 2.4-2.9.3-.6-1.5.3-3.9 1.9-4 4.7-.2 6.4-5.1 10.5-6.1.5-.1 1.1-.8 1.2-1.3.6-4.4 3.7-4.3 7-4.3 5.1.1 10.3 0 15.4 0 1.2 0 2.7-.2 3 1.4.3 1.4-1.1 1.7-2 2.3-2 1.5-4 2.2-6.6 1.6-2.1-.5-4.2.3-5.1 2.2-.9 1.8.5 3.2 1.8 4.5 2.5 2.5 3.3 5.7 3.6 9.2.3 4.3.7 4 4.9 3.3 5.7-1 11.5-1.7 17.3-2.6 3.1-.5 6.4.1 8.9-2.5.8-.9 1.7-.6 2.7.1 3.4 2.3 6.7 4.6 9.5 7.6 1.8 2 4 2.4 6.5 1.4 1-.4 1.9-1.4 1.4-2.3-1.2-2.1-3.1-4.3-5.4-4.1-4.5.3-6.7-3.5-10.3-4.9-2-.8-.6-2.6.9-3.2 2.3-1 4.5-1.8 3.7-5-.2-.7.4-1.3 1.1-1 .9.3 1.7 1.2 1.4 2-1.3 3.7 0 5.3 3.6 6.5 2.5.9 4 3.9 7.5 3.4 1.7-.2 3.7.7 5.2 1.6 4.5 2.9 9.1 2.2 13.7 1 2.4-.6 4.4-.9 5.9 1.6.6 1 2 .9 2.9 1.3 6.1 3.1 12.3 6.1 18.6 8.7 1.6.6 1 2.7 1 4.1 0 1.7.2 3.4 2.3 3.7 2.1.3 1.8-1.6 2.2-2.8.3-.8.6-2 1.2-2.2 3.2-1.1 3.7-3.3 2.9-6.2-.2-.8 0-1.6.9-1.7.8-.1 1.6.3 1.8 1 .4 1 .5 2.2.6 3.3.2 1.3.6 2.6 2.3 2.3 1.5-.3 2.1-1.5 2-3.1-.1-1.1-1.4-1.9-.5-3.4 1.8.9 2.9 2.1 2.9 4.2.1 4.2 2.5 6.7 6.5 6.2 3.2-.4 4.6.9 5.5 3.6 2 6 5.3 8.1 12 7.7 1-.1 1.7.2 2.2 1 2.4 4 6.4 4.6 10.5 5.3 4.5.8 9.2 1.2 12.7 4.7 1.5 1.5 3.7 1.8 5.5 2 8.2.9 14.9 5.8 22.6 8 .7.2 1.5.8 2.1.6 4.7-1.4 8 .4 10.9 4.1 1.7 2.1 4.3 3.2 7.3 3.2 3.6 0 5.6 3.4 8.9 4.6 2.7.9 5.3 1.8 8.1 2.5 6.4 1.7 12.6 3.9 19.2 5.4 7.9 1.8 12.5 7.2 13.6 15.4 1.5 11 4 21.8 6.3 32.7 1.5 7.1 3.9 13.9 4.4 21.2 0 .6.2 1.3.6 1.7 4 3.9 4.1 9.2 4.3 14 .2 5.6 2.1 10.2 4 15.2 2.1 5.6 3.1 11.5 4.6 17.3.6 2.3 1 4.6 1.5 7 .2.8.3 1.7 1.1 1.8 3.5.4 3.3 3.3 3.8 5.6 1.3 6.3 4.3 12.2 5.3 18.6.3 2.2 2.2 4 3.8 5.5 2.6 2.4 4.4 1.6 6.3-1.4 6.7-10.3 6.8-22.2 8.2-33.8.7-5.4 4.6-8.6 7.8-12.3.3-.4.9-.6 1.3-.2.6.5.5 1.2.2 1.7-2.6 5.1-1.7 10.4-1.1 15.8.6 5.3-1.1 10.5-2.8 15.4-3.2 9.5-4.6 19.2-5.3 29.1-.2 3.1.6 5.6 3.8 7 2.8 1.2 4.2 4.1 6.7 5.9 2.6 1.8 5.3 2.7 8.2 3.5 3.4.9 5.3-.8 5-4.4-.3-3.5-2.4-6-5-8-3.2-2.3-5-5.1-4.8-9.2.1-2.2.8-3.7 3.2-3.6 2.6 0 3.6-1.5 4.4-3.7.8-2.2 2-4.3 3.3-6.3 3.5-5.1 1.1-10.4-5.2-10.9-2.2-.2-4.3 0-3.8-3 .5-3.3 3.1-2.8 5.3-2.2 5.1 1.3 5 1.4 4-3.9-.5-2.4-.6-5-3-6.6-.5-.4-.9-1.2-.4-1.6 1.9-1.9 2.1-4.1 1.7-6.6-.1-.3.4-.9.8-1.1.7-.3 1.3.1 1.5.7.4 1.3 1 2.7.8 4-.7 4.2.8 8.1 1.2 12.2.5 4.2 4.5 6.3 7.9 3.8 2.8-2.1 6.7-2.9 8-6.9.5-1.7 2.2-1.3 3.6-.8 2.1.7 3.9.9 5.1-1.4.5-.9 1.4-1.5 2.5-.9s2 1.6 2.2 2.9c.2 1.2-.6 2.1-1.5 2.4-2.4.7-3.8 1.7-3.6 4.6.1 1.3-1.5 2.2-2.8 2.6-4.4 1.5-4.4 1.5-2.6 6.1.1.3 0 .7-.1 2.1-2.8-3.6-5.5-2-8.4-1.1-2.8.9-5-.7-6.4-3.3-.4-.8-.4-2.3-1.8-1.8-1.3.5-2.1 1.9-1.5 3.1 1.4 3.1.3 5.4-1.3 8-1.7 2.8-.3 5.7 1.3 8.1 1.9 3.1 2.6 5.7-.4 8.7-1.9 1.9-1.1 4.7-.1 7.1 2 4.6 3.9 9.2 4.6 14.2.1.7.2 1.7.7 2 4.9 3.1 5.3 8.5 6.4 13.4 1.2 5.2 5.2 7.8 8.7 10.7 2.6 2.2 4.6 1 5.2-2.5.8-4.5 1.1-8.9-.2-13.4-.8-2.9-1.4-5.8-1.4-8.9 0-1.8-.3-3.9-2.5-4-2.6-.1-2.2 2.5-2.3 4-.2 3.1 1.2 6.1 1.9 9.1.3 1.2.8 2.4 1 3.6.4 2 .6 4.6-1.3 5.4-1.5.7-2.1-2-3-3.2-1.6-2.1-2.5-4.4-2.9-7.2-.5-3.3-2.4-6.4-4.4-9.1-2.9-3.8-4-8.2-3.5-13 .1-.6.4-1.4 1.2-1.2 1.8.5 2.7 2.4 5.2 2.2 2.6-.1 1.3 2.9 1.7 4.5.3 1.3.6 2.7.9 4 .2.9 0 2.3 1.5 2.1 1.2-.2 1.2-1.4 1.3-2.4.3-2.1.6-4.2 1.6-6.1.5-1 .5-1.9-.4-2.7-2.1-2.1-2.5-4.8-2.8-7.5-.1-1.1.1-2.5-.5-3.3-3-4.3-3-8.4 0-12.8.9-1.3 1.2-2.3 3.2-2.2 3.4.1 3-3.3 3.4-5.1.7-2.8 2.4-4.8 4.1-7 .6-.8 1.7-1.8 2.9-1s1.4 2.4.7 3.3c-3.1 4.1 1 6.9 1.7 10.3.2.9 1.1 1.4 2.1 1.3 1.5-.2 3-.5 2.4 1.8-.4 1.5-.8 3.6-3 2.8-1.9-.6-2.8-.1-3.4 1.6-.2.6-.6 1.3-1.3 1-.8-.4-.7-1.3-.4-2 .7-1.6 1.5-3.1 1-5-.4-1.8-.9-3.9-3.1-3.5-2.2.4-4.7 2.4-4 4.6 1.1 3.6.9 7.4 2.4 10.9.6 1.4 1.1 3 2.9 3.1 2.1.2 2.3-1.6 2.7-3 .5-1.5 1.3-2.2 3-2.2 3.3.1 5.4-1.3 6.6-4.7 2.3-6.4 5.9-12.3 9.9-17.9.7-1 1.7-2.3 3-1.3 1.2.8.2 2 0 3.1-.4 1.3-3.6 2.6-.2 4.1.1 0 0 .7-.2 1-4.2 6.4-5.7 13.5-6 21-.2 4-3 7.3-5 10.6-3.5 5.8-3.7 13.8.2 19.3 1.8 2.5 1.3 5.3.7 7.9-.6 2.5-.9 4.8 1.1 7 1.6 1.8.8 4.3.9 6.5.1 2.5-.1 5 .1 7.5.2 2.7 2.2 3.7 4 1.8 2.6-2.7 5.5-5 7.4-8.6 2.9-5.6 6.5-10.8 8.4-17 .5-1.5 1.9-2.1 3.4-1.5 1.7.6 1.4 2.1 1 3.5-.7 2.9-3.1 4.8-4.4 7.4-2.5 5-3.5 10.7-7.5 15-1.1 1.2-1.5 3.2-1.7 4.9-.6 3.5-2.5 6.2-5.1 8.5-2.1 1.9-3.6 9.5-2.4 11.9.4.9 1.2 1.2 1.7.5 2.1-2.4 5.3-3.3 7.2-6.3 2.4-3.8 6.1-6.9 9.3-10.2 1.1-1.1 1.9-2 .3-3.3-.7-.6-1.9-1.4-.6-2.3.9-.6 2.4-.2 3 .8 1 1.7 1.9 3.6 2.3 5.5 1 5.3 7.3 6.6 11.5 2.9 1.5-1.3 1.4-3.2-.6-4.4-.9-.6-2.4-1-1.2-2.4 1-1.2 2.3-.7 3.3.2 3.3 2.7 4.3 9 2 12.4-.4.6-.8 1.6-1.7.9-3.8-2.9-7.9-1.7-11.6-.2-3.3 1.4-6.2 1.4-9.7-.8.2 6.2-5.1 8.9-7.6 13.4-.5.9-1.4 1.3-2.4 1.6-3.9 1.1-8.9 7.2-9.2 11-.2 1.8.6 3.2 2.2 4 2.5 1.3 4.8 3.1 7.9 3.2 2.6.1 3.7 2 3.3 4.5-.4 2.2-1.8 2.9-4.1 2.6-5.4-.7-9.2 3-10.2 8.4-1.2 5.9 1.4 11.7.1 17.4-1.4 6.2-1.3 12.3-.9 18.6.4 5.8-.8 11.7-1.3 17.5-.6 8.2-1.2 16.8 5 23.7 1.4 1.6 2.5 3.4 3.7 5.2.7 1 1.5 1.5 2.7 1.8 1.5.4 3.6-1.2 4.5 1.3 1 2.9 1.8 5.8 0 8.6l-.9 1.2c-.3.6-.4 1.2.2 1.7.6.4 1.1.2 1.7 0 7.3-2.1 11.5-7.8 15.9-13.4.7-.9 1.4-1.7 2.1-2.7 1.6-2.5 3.1-3.1 4.6.1.6 1.3 2.6 2 1.8 3.8-.9 2-2.6.6-4 .7-1.5.1-2.3 1.4-3.1 2.4-2.6 3.5-3.5 8.2-7.9 10.6-1.7.9-1.5 9.7-.4 11.2.8 1 1.6.4 2.3 0 2.4-1.4 3.9-.3 3.8 2-.4 6.6 2.5 11.8 6.6 16.6.4.5.7 1.1.8 1.7.3 6.2 5 8.7 9.5 11.5 3.4 2.1 4.1 5.6 1.5 8.4-1.7 1.8-2.8 4.1-4.3 6.1-1.8 2.5.8 4.9 2.7 6.1 4.9 3.1 4.6 8 4.8 12.6.2 3-4.7 6.4-8 5.9-2.8-.4-4.6.4-5.7 2.9-.3.7-.6 1.6-1.6 1.2-.9-.3-.8-1.2-.5-1.9.7-1.7.2-3-1.7-2.5-3.1.9-5.9.1-8.9-.1-1.2-.1-2.6-.2-3.7.3-2.4 1.1-4.2.9-5.9-1.3-.5-.7-1.8-1.2-2.6-1.1-5 .5-7.1-2.9-9-6.4-1.7-3-3.8-4.6-7.3-3.6-2 .5-4-.7-5.9-.5-5.6.7-11.3.9-16.5 3.8-4.5 2.5-9.4 2.6-14.4.8-4.3-1.6-8.7-3-13.2-3.9-2.2-.5-4.7.7-6 2.6-1.2 1.8.5 3.2 1.8 4.5.6.6 1.2 1.3 1.7 2 .5.8.6 1.8-.4 2.3-1 .6-1.6-.2-2-1.1-.9-2.3-2.9-4-3.5-6.6-.6-2.6-2.9-2.7-4.7-.5-1.2 1.5-2.4 2.8-3.7 4.2-.9 1-2.2 1.8-3.3.9-2.7-2.2-6.6-2.1-9.2-4.5-1.3-1.1-3-2.1-4.8-1.2-1.7.8-1.8 2.6-1.7 4.3.2 5.4-3.2 5.6-8.2 6.8-1.6.4-3.4.1-5.2.6-1.4.4-2.4-.4-2.8-1.8-.4-1.2.2-2.2 1.3-2.8 1.5-.8 3.1-1.7 4.6-2.6 1.7-1 2.3-2.6 1.8-4.5-.5-2-1.9-2.6-3.9-2.8-8.7-1.1-17.4-.6-26.1.1-5.3.4-9.6 3.4-14 5.9-2.4 1.4-3.7 1-4.7-1.3-1.5-3.4-3.8-4.4-7.7-4.2-7.3.5-14.6.2-21.6-2.8-1.9-.8-2.7-3.2-5.3-3.1-3.2.1-5.6.9-6.8 4.1-.6 1.7-1.5 3.3-3.6 3.4-4.8.4-7.3 4.1-10.4 6.9-1.8 1.6-3.6 3-6 2.2-4.8-1.8-10.1-1.9-14.5-4.8-.7-.5-1.8-1.3-2.3-.6-1.8 2.6-4.6 1.3-6.8 2.1-8.3 3.1-16.7 1.8-25 .5-6.2-1-11.2.4-14.1 5.7-1.5 2.8-3.6 2.3-5.7 2-2.4-.4-3.5-2.2-3.6-4.6 0-1 .3-2 .5-3 .1-.9 0-1.8-.9-2.2-.7-.4-1.7-.3-2.1.3-3 3.9-6.9 2.5-10.7 2-3-.3-5.4.7-7.3 3-2.7 3.3-5.9 4.3-9.9 2.6-4.5-1.9-8.6-4.7-13.7-4.9-.7 0-1.4-1-2-1.5-1.9-1.6-3.8-1.6-5.8-.1-6.7 5.1-14 4.4-21.3 1.7-2.6-1-5-1.5-7.6-.5-5 2-10.8 2.2-15 6.2-1 .9-2.6.7-3.4-.4-2.3-2.8-5.7-3.5-8.8-4.6-3.5-1.2-6.1-3.8-8.9-6.1-.9-.7-1.6-1.6-2.4-2.3-4.9-4.5-7-4.2-8.3 2.1-1.1 5.3-4.8 7.3-9 9-2.6 1-4.8 2.1-6.3 4.8-1.9 3.4-7.4 4.1-10.3 1.6-2.1-1.9-3.8-2.3-6 .1-2.8 3.2-7 2.5-10.5 2.3-2.2-.1-4.4-1.2-6.9-1.2-1.9 0-2.7-1.7-2.7-3.5 0-1.9.5-3.7 2.7-3.9 4.8-.5 9.5-1.7 14.3-2.6 2.1-.4 4.2-.9 3.9-3.6-.4-2.9-2.8-2.6-4.7-2.1-3.4.7-5.4-.8-6.2-3.8-1-3.4.8-7.4 3.6-8.4 2-.7 3.8-1.6 6.1-1.2 2.5.4 4.4-1.4 4.6-3.9.2-2.7-2-3-4.1-3.2-6.3-.4-12 1.5-17.5 4.2-1.9.9-1.8 2.8-1.9 4.6-.3 9.4-.3 9.4-9.7 10.1-3 .2-6 .7-8.9-.3-1.1-.4-2.2-.9-2.1-2.3.1-1.3 1.3-1.4 2.3-1.5.1 0 .3 0 .4-.1 1.8-1 5.2-.5 5-3.5-.2-3-3.2-3.7-5.6-4.1-3.3-.5-6.6-2.2-10.1.1-2.9 2-3.5 5.2-.7 7.3 3.2 2.4 5.9 5.4 9.6 7.2 4.2 2.1 4.8 6.8 7.6 10 4.3 4.9 3.1 6.7-3 9-7.7 2.9-15.9 3.2-23.7 4.6-6.7 1.2-14.5.1-21-4.2-1.2-.8-2.6-1.4-4-2-4.4-1.8-6.3-5.2-4.3-9.5 2.5-5.4 4.4-11.1 6.7-16.6 1.3-3.2 7.3-4.7 10.3-2.6.9.6 1.5 1.9 2.9 1 .7-.4.9-1.2 1-1.9.1-1.6-1.1-2-2.3-2.5-5.4-2.4-11-3.6-16.9-2.1-.5.1-1.2.1-1.4.4-3 4.7-9.2 4-12.9 7.8-1.9 1.9-4 .9-3.8-1.9.3-3.9-1.1-5.7-4.9-6.5-2-.4-4.1-1.5-5.7-2.8-6.5-5.4-13.2-2.2-19.8-.5-1.2.3-2.3.9-3.5 1.2-1.4.4-2.9.3-3.3-1.5-.4-1.5.5-2.6 1.9-3.3.2-.1.5-.2.7-.2 2-.8 4.9.1 5.8-2.7.9-3-.5-5.9-1.1-8.8-.3-1.5-1.7-1.7-3-1.6-5.5.4-11.1-.9-16.6-.1-2.5.3-4.6.9-6 3.1-1.3 2-3.2 3.4-5.5 3.5-4 .3-7.7 1.7-11.8 1.9-9 .4-12.5-3.7-9.8-12.4.7-2.1 1.1-4.1 1-6.2-.1-2.1-.2-4.2 2.1-5.6.6-.4.9-1.5 1.1-2.3.4-2.8 1.2-4.8 4.7-4.1 1.4.3 2.5-1.1 3-2.4.5-1.4-.1-2.4-1.2-3.2-1.7-1.4-2.7-3.1-.3-4.5 7-4 11.7-10.1 15.1-17.1 2.3-4.7 6.7-6.4 10.4-9.2 1.1-.9 2.4 0 3.5.5 1.1.6 2.3 1.2 3.4 0 1.1-1.1 1.1-2.5.5-3.8-1.4-2.9-1.7-4.6 2.7-4.2 3.6.4 6.5-2.5 6.7-6.7.4-7 2.4-13.8 3.3-20.7.2-1.8 1-3.4 2.7-4.3 4.6-2.3 6.2-6 6.2-10.9-.1-10.9-.5-21.8.1-32.6.7-12-.8-24 .9-35.8.9-6.7.7-13.1-.2-19.6-.5-3.3.1-6.7.3-10.1.4-7.5-.2-14.9-.9-22.4-.3-2.6-.9-4.7-5-4-7.1 1.1-9.9-1.6-10.3-8.6-.1-2.1-1.2-3.8-1.8-5.7-1.5-4.7 0-7.7 4.8-9.1-2 3.9-2.3 7.9.3 11.6.7 1 2.1 2.5 2.8 1 1.5-3.3 4.5-4.8 7-6.9 2.3-2 2.2-4.7.6-7.1-1.7-2.6-3.6-.6-5.1.3-1.8 1.1-3.7 1.3-5.7 1.2.5-4 2.9-7.1 5.6-9.5 6.1-5.6 11.7-11.5 17-17.8.5-.7 1.6-1.2 1-2.2-.7-1.2-1.7-.1-2.6-.1-5.2 0-9 4.3-14.2 4.6-2.4.1-5 1.9-6.8 3.6-2.3 2.1-4.7 2.6-7.5 2.8-1.7.1-3.4.3-5.2.7-2.4.7-4.5.1-5.4-2.6-.4-1.3-1.1-2.8.2-3.8 1.1-.9 2 .5 2.9 1 2 1.1 4.1 1 5.5-.7 1.6-1.9 3.1-4.2 2.4-6.7-.5-1.8-2.4-2.6-4.3-1.8-1.8.8-3.7 1.5-5.1 3.1-1.9 2.2-3.2 1.3-3.9-1.1-.7-2.8 0-5.3 3-5.9 3.9-.8 7.6-2.1 11.6-2.4 2.7-.2 6.4-1.1 8.5-4 .9-1.2 2.1-1.9 3.5-2 8.4-.3 14.8-5.9 22.1-9 1.8-.8 3.2-2.5 2-4.5-1.2-2-2.9-3.3-5.6-2.5-8.3 2.5-17 3.8-25.3 6.4-2.8.9-6.1.6-9.1.7-1 0-2.1-.2-2.9.5-2.8 2.2-4.9 1.1-6.7-1.2-1.8-2.3-3.9-4.6-1.7-8 2.1-3.3 3.2-6.8 0-10.2-.6-.6-.8-1.5-1.2-2.3-.5-1-1.4-1.9-.7-3.1.2-.3.9-.7 1.2-.6 1.5.4 1.6 1.7 1.9 2.9.4 1.2 1 2.3 1.3 3.5 1 3.2 2.3 3.9 5.8 2.4 8-3.4 16.3-6 25.1-6.1 1.6 0 3.3-.2 4.8-.6 2.3-.6 2.8-2.4 2-4.4-.8-2.1-2.3-2.3-4.3-1.4-5.4 2.6-11.2 2.7-17 2.8-.6 0-1.3-.4-1.8-.2-5.1 2.2-5.6-2.2-7.8-4.9-4.5-5.5-2.3-10.6-.7-16.2.8-2.7 2-4.6 4.5-5.9 2.5-1.4 4.1-.6 5 1.8.7 2 1.5 4 3 5.5 1.1 1.1 2.3 1.3 3.8.7 1.3-.6 2.3-1.3 2.3-3 .2-5.1 2.3-7.1 7.5-7.3 2.7-.1 5.5-.2 8.2-.2 2.8 0 4.4-1 3.5-4.1-.4-1.4-.3-2.7.6-3.9.9-1.4 2.1-2 3.4-.7 1.6 1.7 3.4 1.9 5.5 1.3 4.6-1.4 8 2.1 12.1 3.1.9.2 1 1 .7 1.8-.5 1-1.4 1.8-2.4.9-4.5-3.9-10-1.5-14.9-2.5-1.6-.3-2.5 1.2-2.5 2.7-.1 1.6 1.3 1.6 2.4 1.5 6.2-.7 12.3.4 18.5.9 1.6.1 2.5-.2 2.4-1.9 0-1.2-.1-2.3 1.2-2.8.7-.3 1.5-.7 2.1 0 .5.5.2 1.2-.1 1.7-.5 1-1.4 2-.1 3 1.1.8 2.3 1 3.5.2 1.4-.9 2.7-1 4.3-.6 1.3.3 2.6.2 3.1-1.3.5-1.4-.4-2.4-1.4-3.1-.9-.6-1.8-1.7-2.8-1.8-6.4-.6-12.2-3.5-18.4-4.7-2.5-.5-5-.9-7.8-.2-3.5.9-5.8-1.7-7.8-4.1-1.1-1.3-2-2.5-4-1.8-.5.2-1.4.2-1.8-.1-5.5-3.9-12.2-4-18.3-5.9-3-.9-4-3.2-4.1-6-.1-3 1.9-5.4 3-7.9.9-1.9 4.2-.4 6.2.1 1.9.6 1.7 2.6 1.3 4.2-.4 1.7-1.7 1.5-3 1.4-1.2 0-2.4.1-2.5 1.6-.1 1.2 1.1 1.5 2 1.9 4.7 2.2 10 3 14.6 5.5 1.2.7 3.2 1.5 3.8-.5.5-1.6-1.1-2.3-2.5-2.6-1.3-.2-2.4-.7-3.2-1.8-1.6-2.1-.8-3.9 1.7-4.2 1.1-.2 3-.1 4.9 0 2.5 4.3 7.5 5 11.1 7.8.7.6 1.7 0 2.3-.8 1.1-1.5 2.7-2.8 1.8-4.9-.8-1.9-2.3-2.7-4.3-3-3.8-.5-7.2 1.9-10.9.9zm230.6 263c-1.7-.2-2.5-.2-2.6-.3-.8-4.4-5.5-5.3-7.7-8.5-.5-.7-.5-1.9-.6-2.9-.1-1.2-.1-2.5-.1-3.7.3-5.8-3.8-8.8-8-11-2.4-1.2-3.7-2.3-4.2-5-.7-3.5-1.2-7.4-5.4-8.7-3.2-1-4.1-3.3-4-6.3 0-1.1 0-2.3-.2-3.4-.8-4-7.6-8.4-11-7-3.3 1.4-6.5.3-9.5-1-1.5-.7-2.5-2.3-1.9-4.1.9-2.4 2.5-.7 3.8-.3 2.1.7 4.2.6 4.1-2-.3-3.9-.7-8.1-3.3-11.3-1.4-1.7-1.6-3.3-1.2-5.2 1-4.7.2-5.6-4.6-5.7-3-.1-6 0-7.7-3.3-.9-1.7-2.7-2.3-4.8-2.2-3.5.1-6.7-1.4-8.5-4.5-1.3-2.2-2.6-3.5-5.3-3-3 .6-3.3 3-3.4 5.1-.2 4-.6 7.1-5.9 5.6-.9-.3-2.1.2-2.3 1.5-.1.9.5 1.5 1.3 1.6 3.2.5 5.1 3.5 8.3 4.1 1.1.2 2.3.8 1.9 2.3-.3 1.4-1.7 1.3-2.8 1.4-4.2.2-7.7-2.3-11.5-3.7-1.7-.6-2.5-1.3-3.4.7-.4.9-1 2.2-2.1 1.5-1.5-.9-.1-1.9.4-2.8 1.4-2.3 4.3-3.4 1.1-7.5-3.4-4.4-2.3-4.9-8.3-5-1.9 0-3.7 3.8-5.1.5-.8-1.7 0-4.2 0-6.3 0-.4.1-.7.2-1.1.7-7-.5-14.1-3.8-20-3.1-5.6-5.4-11.1-6-17.4-.3-2.9-1.6-4.3-4.7-3.6-3.1.7-4.2-.9-3.7-3.8 1.2-7-2.6-12.2-6.5-17.3-.7-.9-1.6-1.5-2.6-1-3 1.4-4.1.2-4.5-2.7-.1-.9-.8-1.8-1.5-2.5-2.4-2.4-4.9-4.6-7.5-6.8-2.4-2-5.8-2.7-8.8-1.3-2.7 1.3-2.6 4-2.2 6.6 1.6 12.7-.2 25.5.8 38.3.4 5.8-1.4 11.6-2.8 17.3-.5 2-.6 3.9-.2 5.9.9 5.5 3.3 10.7 2.4 16.5-.6 3.8-.6 7.7-.8 11.5-.1 2.7-.1 5.4 4.4 5.1-4.4 2.7-4.6 3.9-2.3 8.1.6 1.1 1.4 2.2 1 3.5-2.2 7.2-1.3 14.5-1 21.9.3 6.1 4.8 8.6 8.4 11.9 1.4 1.3 3.9 1.5 3.2 4.1-.7 2.6-2.9 2.2-5 2.1-2.7-.1-4.4 1.9-4 4.5.3 1.5.9 2.9 2 4 2 2.1 2.3 4.7 1.2 6.9-1.7 3.2-2.2 6.9-4.5 9.8-1.4 1.7-1.8 3.8-1.7 6 .3 6.7 1.6 13.4 0 20.1-.6 2.6-.7 5.5-.7 8.2.1 8.4.3 16.7.4 25.1.1 9.5-2.2 18.9-1.3 28.4.5 5.6-.6 11.2.3 16.8.6 3.6 1.4 7.1 1.3 10.8-.1 3.1 1.3 4.5 4.8 4.6 6.7.2 13.1-1.7 19.8-1.7 2.6 0 4.5.8 5.1 3.4.8 3.4 3.3 6.1 4.3 9.5.5 1.9 2.4 3 4.5 2.3 3.8-1.3 7.6-1.2 11.4-1.1 3.8.1 7.1-3.9 6.3-7.6-2.2-10.5 2.7-17.4 13.3-18.5 2.8-.3 3.8-1.6 3.7-4-.1-4.1.9-8.6.1-12.2-1.4-6.6 1.7-6.2 6.2-7.8 6.8-2.3 13.2-3.5 20.2-2.4 3.5.5 7.8.2 9.4-3.1 1.6-3.3-1-6.6-3.6-9.1-1.4-1.3-2.9-2.8-2.3-4.8.8-3.1 1.5-6.6 3.6-9 6.6-7.1 14.3-11.6 24.6-8.4 4.6 1.5 7.5.3 10.4-3.8 2-3 5.9-4.9 8.2-4.4 4.7 1.1 10.5-1.4 14.2 3.6.2.2.7.4 1 .3 4.5-.8 6.4 2 8.2 5.5 2.1 4 6 4.6 9.6 1.9.9-.7 2-1.5 3-1.4 6 .6 7.8-3.8 9.8-8 2.2-4.6 4.7-5.4 9.8-6.1 6.9-.8 13.6.8 20.4.3 3.8-.2 5.8-2.1 5.9-5.5.2-7.8 1.3-15.7-1.1-23.5-.5-1.7-1.1-3.1-3.1-3.2-1.9-.1-2.1 1.5-2.6 2.7-.8 2-1.5 4-4 4.6-4.1.9-8.2 2.2-12.4 2.9-4.6.8-9 .3-12.3-3.6-1.6-1.9-3.2-3.8-4.9-5.7-1.2-1.3-2.3-1.4-3.1.5-.3.8-.9 1.5-1.3 2.2-.4.5-.9.9-1.6.6-.8-.4-1.2-1.3-.7-1.8 3.4-4.1.1-8.2-.2-12.2-.1-1.7-1.2-4.4-3.4-3.6-5.3 1.8-11.4 1.5-15.8 6-1.5 2.2-3.6 3-.4 6.1zm162 78.7c1.7 1.4 2.3 3.3 4.3 3.9.7.2 1.5.3 2.1-.3.5-.5.5-1.3 0-1.7-2.8-2.2-2.1-5.4-2.3-8.3-.1-1.1.1-2.3-1.1-3-2.1-1.1-7.6 1.8-7.6 4.3.1 6-1.2 12-.6 17.9.5 4.7 2.7 9.3-.1 14-.1.2-.1.5 0 .7 1.9 4.9.5 10.4 2.4 15.4 2.3 6.2 3.4 12.4-.3 18.6-.5.9-.7 1.9.2 2.8.8.8 1.8.5 2.8.2 3.3-.9 4.5-3.5 5.5-6.5.7-2.3 2-5 5-3.1 5.1 3.3 10.3 4 16 2.2 2-.6 3.9-.4 5.9.3 5.7 2.2 8 1.2 11.6-3.8 3.1-4.3 6.5-8.4 11.4-11.1 2.4-1.3 3.8-3.3 2.8-6.2-.3-.8-.6-1.8-1.5-2.1-1.1-.3-1.4.8-1.8 1.5-.5.7-.8 1.7-1.9 1.5-1.1-.3-1.5-1.3-1.6-2.3-.1-1.1-.4-2.3.8-3.1 4.3-2.8 7.5-1.2 7.8 3.9.1.9.1 1.8 1.1 2.1.7.3 1.3-.1 1.6-.6 3.7-5.6 8.6-10.5 10.5-17.1.2-.7.5-1.9 0-2.1-3.5-.8-3.6-5.8-7.5-6-.7 0-1.3-.4-1.1-1.1.1-.4.5-.9.9-1.1 1.5-.6 3.5-.8 4 .8 1.1 3.8 5.4 3.8 7.5 7 1.6 2.4 4.5 5 7.3 7 2.1 1.5 2.9 3.4 3.3 6 .7 4.4.5 9.2 5.3 12.2 1.9 1.2 2.5 1.8 3.4-.6.7-1.8 1.6-3.6 3.2-4.5 6.1-3.5 11.3-8.2 16.7-12.6.6-.5 1.2-.9 1.8-1.3 1.1-.6 2.2-.5 3.1.4.9 1 .4 1.8-.3 2.6-1.6 2-3.3 4.1-4.8 6.2-2 2.7-1.8 4.9.9 7.5 3.2 3.1 7.3 4 11 5.8 3.2 1.5 7.5.2 8.7-2.4 2.7-5.8 4-12.3 4.3-18.8.4-9-3.3-18 .7-26.9 1.9-4.1 1.2-8.8 3.1-13 .9-2 1.1-4.7-1.7-6.2-1.2-.6-1.4-2-1.7-3.2-2.9-10.3-4.4-20.7-2.9-31.5.4-3.1.3-6.2-.5-9.3-.4-1.6-1.1-2.8-2.8-3.2-3.2-.7-6.4-1.2-8.3-4.6-.5-1-2.2-1.9-3.7-1-1.5.9-.9 2.4-.4 3.7.5 1.3.2 2.4-.5 3.6-1.2 1.9-1.3 4-1 6.2.6 4.1 1.3 8.1 1.9 12.2.3 2.2-.5 3.4-2.9 4.4-4.8 2.1-9.5 2.7-14.7 1.7-6-1.1-12-1.7-18.2-1.8-3.1 0-5.3.1-7.7 1.8-3.8 2.7-6.4 1.5-7.6-2.9-.5-2.1-.6-4.2-.5-6.3.1-4.2 0-8.4-1-12.7-.8-3.5-.2-7 .9-10.6 1.9-6.9-1-13.6-2.5-20.3 0-.1-.1-.2-.2-.3-3-1.9-3.4-4.9-2.9-7.9.8-5.2-.6-9.7-3-14.3-1.1-2-2-2.4-4.1-1.4-3.9 1.9-7.4 4.6-12.3 4.9-5.6.3-6.3 1.7-6.9 7.3-.1.9-.1 1.7-.1 2.6.1 2.5-1 4.7-1.8 7-1.2 3.6-4.3 7.6 0 11.5 1.5 1.4-.1 2.1-1.5 2.2-6.2.3-7.8 1.7-8.7 7.9-.3 2.6-1.8 4.1-4 5-1.1.4-2.5 1.3-3.5.1-1.1-1.3.5-2.2 1.2-3.1 3.3-4.5 6.4-9 4.9-15-.2-.9.1-2 .3-3 .1-.7.3-1.6 1.1-1.8 1-.2 1 .9 1.4 1.4.9 1.3 1 4.1 3.2 3.2 2.4-1 .5-3.2.1-4.9-.1-.5-.3-1-.4-1.4-.6-2.3-2.5-2.6-4.4-2.8-2.2-.3-2.6 1.3-3.1 2.9-1.4 4.3-4.7 7.5-8.3 9.6-2.5 1.4-5.5 1.9-7.5 4.3-.4.5-.9.9-1.6.7-.8-.2-.7-1-.6-1.6.3-2.9.4-5.7.8-8.6.3-2.1 1.3-5-1.2-5.3-1.9-.3-2.1 3-2.3 4.9-.3 2.9-1 5.7-3.1 7.9-1.5 1.5-1.6 2.4 0 3.9 1.9 1.7 2 3.8 0 5.8-2 2.1-4 5.4-3.2 7.5 1.7 4.3 1.6 8.1.5 12.3-.5 2 1 3.6 2.4 4.3 1.9 1 1.4-1.9 2.5-2.4.2-.1.5-.1 1.2-.2-.7 2.5-.8 5.1-2 7-2.5 4-4.3 8.2-4.4 13 0 3.1-.1 6.2-1.1 9.2-1.1 3.3.6 5.2 4.1 5.1 2.8 0 5.6 1.3 8.3-.6 1-.7 1.6.6 2.1 1.6 1.3 2.7.6 5.3-.4 8-1.8 4.7-.1 8.2 4.5 9.5-1.1 1.8-3.5 1.1-4.8 2.6-1.6 2-3.6 3.8-5.4 5.7-.8.8-1.7 1.7-2.9 1.3-1.4-.4-1.1-1.7-1.1-2.9-.5-2.5-.5-5.2-.5-7.9zM270.7 445.3c-7.9.7-8.7-.1-9.3 8.6-.1 1.2 0 2.6-.3 3.7-2.1 6.8-.6 14.2-3.3 21-.7 1.8.7 3.8 0 5.9-.9 2.7-3.3 3.6-5.4 4.9-.6.4-1.3-.3-1.3-1 0-2.5.5-4.7 3.3-5.7 1-.4 1.6-1.2 1.3-2.4-.4-1.3-1.5-1.6-2.7-1.6-1.6.1-3.2.3-4.8.4-2.7.1-5.5 2.5-5.2 5.2.5 4.9.1 9.7.5 14.6.2 2.7 1 5 4.5 5.4 2.5.3 2.4 2.1 1.2 3.9-.6.8-1.4 1.4-2.4 1.7-3.1.9-3.6 3.1-2.9 5.9.7 2.6 1.4 5.3 2.2 7.9.8 2.7 1.9 4.4 5.4 2.7 3.6-1.8 6.9-.2 7.7 3.1.3 1.2-.4 2.6-1.2 1.8-2.2-2.4-4.4-.6-6.6-.8-5.6-.5-6.7-.1-7.4 5.5-1 8.2.6 16.4.4 24.6-.1 2 1.4 3 3.6 3.6 4.8 1.3 9.9.3 14.6 2.7 1.6.8 3.8.3 5.2-1.1 2-1.9 3.9-3.9 5.6-6 2.3-3.1 1.5-7.7-1.4-9.1-1.8-.9-4.3-.6-5.4-2.4-1.4-2.3 1.6-3.6 1.9-5.7.3-2.3.2-4.9 2.1-6.6 6.4-5.7 10.5-13.3 16.2-19.5 2.2-2.4 1.6-6.1-1.3-7.6-4.6-2.5-5.1-4-2.7-8.8.7-1.4 2-2.8 1.3-4.5-1.4-3.4-2.1-6.9-2-10.6 0-1.3-.8-2.4-1.7-3.2-3.5-3-6.1-7-10.4-9.1-2-1-3.2-2.9-2.5-5.3.6-2.3 2.5-2 4.2-2.2 3.2-.4 4.3-2.1 3-4.9-1-2.1-1.1-4.6-2.7-6.5-1.3-1.5 0-2.9.6-4.1.8-1.7 1.8-.4 2.7.1 1.1.6 2.4.5 2.8-.8.6-1.8 1.7-2 3.2-1.5.9.3 1.8.6 1.9 1.6.2 1.6-1.2 2.1-2.2 2.7-3.2 1.9-4.8 4.5-3.3 8.1 1.3 3.1 1.6 6.2 1.6 9.5 0 2 .5 4 .8 5.9.1.4.5.9.9 1 .5.1.9-.4 1-.9 1-3.9 3-7.8 2.7-11.6-.3-4.2 1.9-7.4 2.4-11.2.2-1.5 1.3-2.7 2.9-3.2 2.9-.8 2.7-2.8 1.7-4.7-1.1-1.9-3.1-3.3-5.3-2-1.7 1-3 1-4.9.6-2.1-.5-4.5-.3-6.5 1-1.2.9-2.6 1.4-4.3 1zm344.8 16.3c.3 4.4-1.4 6.5-3.4 4.8-3.4-3-6.4-.8-9.5-.1-1.6.4-2.3 1.9-2.2 3.5.1 1.2.5 2.5 1.8 2.5 3.4-.1 3.9 2.6 4.8 4.8 1.6 3.9 2.9 7.9 5.6 11.3 1 1.3 2.1 1.8 3.5 1.1 1.6-.8.6-1.9.1-2.8-.7-1.3-1.2-2.7.3-3.7 1.3-.9 2.7-.7 3.8.4 2.5 2.4 3.8 1.6 4.6-1.4.3-1.2.9-2.5 2.4-2.6 1.7-.1 2 1.4 2.2 2.5.5 2.1 1.9 3.2 3.7 3.9 3.2 1.1 6.3 2.2 9.8.9 2-.8 4.2-.6 6.2.4 1 .5 2 1.2 3 0 .9-1 1.2-2.1.8-3.5-.4-1.3-.6-2.7-1.1-3.9-.8-1.8-1.8-4.3-3.8-4.2-2.6 0-4.8-1.1-7.3-1.2-3.3-.2-6-2.2-8.9-3.4-1.6-.7-.5-3.7-.9-5.6-.1-.6-.4-1.2-.7-1.7-2.9-6.1-4.1-12.7-6.3-19-1.6-4.5-3.6-9-4.6-13.7-.3-1.4-1.3-2.4-2.5-3.2-5.5-4-8-9.5-8.4-16.1-.1-1.4-.2-2.8-.8-4-1.4-3-2.1-6.1-2.3-9.4-.1-2.1-.1-4.6-2.1-5.8-2.8-1.6-3.1-4.3-4.2-6.8-.8-1.8-1.3-3.8-1.8-5.7-2.3-7.8-4.7-15.6-6.9-23.4-.7-2.4-3-3.3-4.9-1.7-2.3 2.1-2.9 4.6-1.3 7.4 1 1.8 2.5 3.4 2.8 5.7 1.1 7.4 3.7 14.4 4.9 21.9 1.6 9.9 5.4 19.4 8.3 29.1.2.7.5 1.5 1.1 2 3.9 2.9 4.6 7.2 5.2 11.6.3 1.9 1 3.6 2.6 4.3 3.5 1.5 4.3 4.4 4.6 7.5.3 3 1.4 5.5 3.3 7.8 1.5 1.8 2 3.7-.2 5.5-1.6.8-1.3 2.7-1.3 4zM648.3 360c.7 2 .3 3.7-.6 5.1-1.1 1.6-1.3 2.7-.1 4.3 1.1 1.5 1.1 3.4.8 5.1-.9 5.8 2.2 10.7 3.7 15.7 2.4 8.1 5.9 15.8 7.1 24.2.6 4.3.6 8.8 4.3 12 .7.7 1 2 1.2 3.1 1 6 3.2 11.8 5 17.6 1.1 3.6 4.3 5.7 7.3 5 2.4-.6 3.5-3.6 3.2-7.5-.4-4.9-2.1-9.5-1.9-14.4 0-1.2-.2-2.3-1.3-3-1.7-1-1.8-2.6-1.7-4.3.1-2.4-.7-4.3-1.9-6.3-1.7-2.8-4.1-5.6-3.8-8.8.8-10-3.4-19-5-28.5-.5-3.3-3.7-4.6-4.4-7.6-2.4-11.3-5.5-22.4-10-33.1-1.1-2.5-2.9-4.6-3-7.5 0-.7-.8-1.3-1.6-1.4-2-.3-3.7-1.5-5.4-2.4-3.8-1.9-5.5-.6-5.1 3.5.1.7.5 1.5.4 2.2-.5 3.5 3.1 5.5 3.3 8.8.4 7.5 3.5 14.4 4.6 21.8.1.7.5 1.5 1.4 1.5.7 0 .9-.8 1.3-1.2.8-1.1.4-3 2.2-3.9zm3 88.2c.6-4.9-.8-9.8-5.7-13.3-1.4-1-1.7-2.7-1.8-4.4-.4-5.6-1.9-11-3.9-16.3-1.1-2.9-2.9-5.7-3.3-8.5-.6-4.5-1.2-9.1-1.7-13.6-.3-3.2-1.1-5.8-3.3-8.1-2.2-2.4-3.6-5.3-3.5-8.5.1-4.3-.5-8.6-2-12.5-3.2-8.6-5.2-17.9-12.8-24.3-2.9-2.5-4.5-2.4-6.6.7-1.7 2.5-1.8 5.2-.4 7.8 1 1.8 1.6 3.6 1.5 5.7 0 1.3.1 2.6 1.2 3.4 1.7 1.3 1.6 3.2 1.8 5.1.5 4.7-.5 9.9 2 13.9 3.8 6.2 5.6 13 8.3 19.5 2 4.9 4.5 9.6 5.8 14.8.5 1.9 1 4 2.1 5.6 1.7 2.4 1.1 5.8 3.5 7.7 1.7 1.4 2.3 3.2 2.7 5.2 1.1 6.1 2.5 12.3 1.7 18.5-.5 4.2 1.7 6.6 4.4 9.2 2.6 2.5 5.5 1.3 8.1.6 2.4-.6 1.4-3.1 1.6-4.9.4-.8.3-1.7.3-3.3zm-170.2 11.7c4.5-3.4 4.5-4.8.1-7.7-.9-.5-1.3-1.2-1-2.1.3-1 .9-1.8 2.1-1.7.6 0 1.3.2 1.8.6 2.6 1.9 4.6 1.3 6.5-1.3 1.8-2.6 4-4.7 7.8-3.2 1.4.6 2.8-.7 3.2-2 .9-3 1.2-6.1-.6-9-1.3-2-2.7-3-5.3-2.2-2.8.9-5.9 1-8.8 1.3-4.7.6-9.4 1.7-14.1 2.8-2.3.6-3.3 2.4-3.5 4.8-.3 3.5 1.9 5.9 3.6 8.4 1.1 1.7 1.4 2.8.3 4.7-1.4 2.6-2 5.4 1.1 7.6 4.8 3.4 5 4.6 1.8 9.4-2 3-1.9 5.9.6 8.5 2.7 2.8 4.2 5.8 3.1 9.8-.6 2.2.2 3.5 2.7 4.4 2.6.9 4.9 0 7.2.2 3.4.3 3.6-1.5 3.2-3.9-.2-1.1-.9-2.1-1.1-3.2-.4-1.7-1.3-3.6.6-4.8 1.8-1.2 3.9-.9 5.6.4 1.6 1.2 2.9 2.8 4.3 4.1 3.2 3 5.3 3 8.4.1l.9-.6c3.4-2.1 4.1-6.2 1.5-9.4-.5-.6-1.5-1.3-1.4-1.6 1.3-3.6-1.6-5.8-2.7-8.5-.6-1.4-1.3-3-3.2-2.4-1.6.5-3.7.6-4.2 2.7s1.4 2.6 2.8 3.4c3.2 1.8 4.3 5.2 2.7 8.2-.6 1-.4 1.9-.1 2.8.2.8.1 1.6-.8 1.9-1 .3-2.1-.4-2-1.1.2-3.7-2.5-3-4.5-3.1-2.6-.1-3.3-1-3-3.7.4-3.3 2.2-6.6 0-10-.5-.8.3-2.2 1.1-3 .8-.9 1.7-1.8 2.7-2.6 1.3-1.1 2.1-2.4 1.1-3.9s-2.6-1.2-4-.6c-1.8.8-3.3 1.9-4.4 3.8-2.9 4.9-5.7 5.4-10.3 2.4-.6-.2-1.2-.4-1.8-.7zm80-81.8c1.5 4.6 5.3 8.1 5.9 13.3.2 2.5 1.6 5 2.4 7.5.8 2.7 2.4 5.4 4.2 7.9 1.6 2.2 2 4.9.8 7.5-.8 1.7-.1 3 0 4.6.2 3.3 4.2 2.6 4.7 5.5.4 2 1.1 4.5 4.2 4.5 1 0 1.1 1.2.9 2.1-.6 3.1.2 6 1.3 8.8.5 1.2.4 2.4 0 3.6-.7 2-1.5 2.7-3.3.9-1.9-1.9-2.6-4.2-2.6-6.8 0-1.9-.2-3.8-1.1-5.5-.6-1.2-1.5-2.1-3-1.3-1.3.7-1.8 1.7-.9 3 1.4 2 1.4 4.3 1.2 6.5-.3 4 .4 7.4 4.1 9.7 1.3.9 2.3 2.2 3 3.8.5 1.2.9 2.9 2.7 2.4 1.7-.4 2.9-1.6 3.2-3.3.4-1.9.6-3.9.9-5.9.8-6.5.6-13.2-2.6-19-3.4-6.2-6-12.8-8.5-19.3-1.5-3.9-3.5-7.6-3.9-12-.4-3.5-2.1-7.2-4.1-10.2-1.4-2-3.1-3.8-3.2-6.1-.1-4.6-3.3-7.7-4.7-11.6-.7-2-2.2-2.5-4.2-1.4-3.8 2-5.4 7.4-3 11.4 2.2 3.6 3.4 7.3 4.2 11.4.8 3.6.9 7.4 2.2 10.9 2.4 7.3 3 15 5.8 22.2.5 1.2.1 2.7.2 4.1 0 1.2.3 2.3 1.1 3.1 1.3 1.2 2.5 1.9 3.2-.6.7-2.6 1.1-5.4-.8-7.5-2.1-2.3-2.3-4.4-.7-7 .9-1.6.8-3.4-2-2.7-.8.2-1.5.4-2-.4-.6-.9-.1-1.7.6-2.3.9-.9 2.2-2.1 1.2-3.2-1.5-1.7-.9-3.7-1.4-5.5-1.2-4.5-2.6-8.8-3.4-13.4-.9-3.1-2.3-6.3-2.6-9.7zm-180.8-64.4c-.1 2.2 0 4.3 2.8 5.2.8.3 1.8.8 1.3 1.9-.5 1.2-1.7 1.2-2.5.4-1.2-1.1-2.4-.8-3.8-.6-1.7.2-3.5-.2-5.2-.4-.9-.1-1.7-.7-1.5-1.8.2-1 .9-1 1.7-.8.7.1 1.5.2 2.2-.1 2.3-.8 3.7-2.6 3.2-4.8-.5-2.3-2.4-2.5-4.8-2.1-2.5.5-5 1.2-7.6 1.6-2.4.4-3.9 2.8-6.5 2.6-1.3-.1-2.6-.2-2.8 1.6-.2 1.6.9 2.1 2.2 2.5 3.2 1 6.7 1.5 9.5 3.7.9.7 2.5 1.5 3.4 1.2 3.8-1.4 6.9 1.6 10.3 1.6 1.4 0 1.9.8 2.5 1.8 1.9 2.8 7.4 4.3 10.3 2.8 1.7-.9 2.7-.8 2.9 1.1.4 4.3 2.4 6.5 6.6 8.2 5.2 2.2 10.4 4 15.9 3.9 3 0 6-1.6 8.4-3.8 1.5-1.4 1.7-3.6.3-4.7-2.2-1.9-4.5-4.4-7.5-4.4-4.8.1-8.3-3-12-5-5.3-2.7-10.5-6.1-16.1-7.3-4.4-1.1-8.2-4.1-13.2-4.3zM502.2 728c-4.2-.1-8.5-.1-11.9 3.1-1 .9-1.4 1.7-.7 2.9.8 1.2 1.6 1.7 3.1.9 1.4-.7 3-1.3 4.6-1.7 2.7-.7 4.3.2 3.5 3.2-.5 2.1-.7 3.9 1.1 5.8 1.6 1.7.9 4.3.6 6.5-.1.9-1.3 1.4-1.6.6-.9-2.1-3.4-3.6-2.8-6.3.3-1.4.7-2.7-1.1-3.5-.8-.4-1.7-.6-2.5.1-1.1 1-1.4 2.2-1.1 3.7 1.3 7.9 3.6 9.8 11.7 9 .7-.1 1.5-.2 2.2-.2 4.2-.2 8.2.7 11.2 3.6 5.7 5.5 12.6 5.6 18-.1.4-.4 1-.8 1.4-1.3 2.4-2.4 2.1-4.5-1-6.1-3.1-1.6-7-2.5-9.1-4.9-3.5-4.2-6.6-3.5-10.6-1.4-2.2 1.2-4.1.6-5.2-1.9-.9-1.8-1.8-3.5-1.3-5.7.5-2.1-.5-3.5-2-4.9-1.8-1.7-4.1-1.5-6.5-1.4zm96.3-217.5c-2.3-.7-4.1-2-5.3-3.8-2.7-4.2-6.6-7.9-6.6-13.5 0-1.3-.6-2.6-.3-4 .6-2.9 1.7-5.8.2-8.8-.3-.6-.2-1.6.7-1.9.9-.3 1.5.3 1.8 1 .9 2.2 2.4 4 3.8 6 .5.7.9 1.6.5 2.5-1.3 2.7-.8 3.4 2.1 2.3 1.4-.5 2.6.4 2.8 1.8.3 2.1-1.4 1.1-2.3 1.2-.9.1-2 .2-1.3 1.5 1.3 2.2 7.4 4.6 9.9 4.1 2.3-.4 2.6-2.1 2.5-3.9 0-1.7.2-3.8-2.2-4-4.1-.4-6.5-2.9-7.9-6.3-1.8-4.5-4.8-8.1-8.3-11.3-2.1-1.9-5-3.4-7.5-1.9-2.3 1.4.2 3.8.4 5.8.1.5.2 1 .4 1.4 1.5 3 1.6 5.7-1 8.2-.9.8-1.3 2.4-.6 3.1 3.3 3.2 2.8 7.2 3 11.1 0 .8.7 1.6 1.2 2.2 5.3 5.6 10.8 10.9 17.7 14.5 2 1 4.2 1.5 4.8-1.8.4-2.6 2.1-2.4 3.9-1.5.9.4 1.5 1.3 2.4 1.8 1.9 1.2 3.4 0 4.6-1.3 1-.9 1.4-2.6 0-3.2-3.1-1.5-4.3-4.4-5.9-7-1.3-2.1-2.5-1.6-3.9-.3-1.2 1.2-2.1 2.8-3.8 3.5-2.5 1-4.7.6-5.3-2.2-.9-3.6-3.7-5.5-5.8-8.1-.5-.6-1-1.3-1.8-.7-.7.5-.4 1.4-.1 2.1.8 1.8 1.3 3.7 2.7 5.3 1.7 1.6 3 3.9 4.5 6.1zm-332.7 75.9c0-2.4-.1-4.4-2-6.2-4.1-3.9-7.6-8.7-14.1-8.8-.2 0-.4-.2-.7-.3-2.3-1.4-3.6-.4-3.9 2-.5 3.1-1.5 6-2.3 9-.7 2.4-.4 5-.1 7.6.7 5.8 2.6 11.7.4 17.7-.8 2.3.6 5 2.5 6.1 1.6.9 2.8-1.6 3.8-2.9.8-1 1.2-2.2 1.8-3.3 1.1-2.1 2.4-4 4.6-5.3 5.9-3.7 10.3-8.2 10-15.6zm280.6-151.5c-1.3-6.2-1-13.4-6.9-18.4-.8-.7-1.2-2.2-1.4-3.4-1.6-9.3-5.8-17.8-7.7-27-.5-2.3-2.7-2.9-4.6-3.3-2.1-.4-2.5 1.4-3.4 2.8-3.5 5.4-.7 11.2 2.1 14.4 4.4 5.1 5 10.5 5.4 16.2.5 8.2 2.6 15.6 8.8 21.4 1.9 1.8 4.4 2.3 6.5 2 2.1-.3.7-2.8 1.2-4.7zm-46.2-133.4c-2.2-.6-3.2.3-4.1 1.4-.6.7-1 2-2.2 1.6-2.3-.7-3.3.4-3.6 2.5-.3 2.2 1 3.3 2.9 4.2 6.4 3.3 13.4 5.3 19.9 8.4 1.2.6 2.6 1 3.7 1.7 5.7 3.7 11.6 6.5 18.7 5 2-.4 3.9-1.2 6.1-1.4 2.7-.2 2.2-3.2 2.4-5.1.2-1.9-.9-3.1-3-2.6-1.5.3-2.8 0-3.7-1.2-2.4-3.6-6.8-4.2-10.2-5.5-4.8-1.9-9.6-4.4-14.7-5.4-4.5-.9-7.9-4.8-12.2-3.6zm-32.5 13.9c-2.2 1-5-.4-7.1 1.3-2.6 2-1.9 4.3-.2 6.5.9 1.1 1.6 3.1 3.4 1.4 2.7-2.4 4.7-5 9.4-3.8 3.2.8 4.3.6 3.1 3.9-.4 1.2-.8 2.4-1.4 3.5-.7 1.3-.3 3.7-2.5 3.6-2-.1-2.8-1.8-3.3-3.6-.3-1.1-.5-2.4-2-2.1-1.4.2-2.2 1.1-2.4 2.5-.2 1.7-.1 3.2 1.5 4.3 6.3 4 13.8 5.3 20.6 8.1 1.9.8 2.5-.9 2.2-2.7-.4-2.6.6-5 3.1-5.1 2.8-.1 5.1-1.9 8-1.4 1.5.3 3-.7 2-2.5-1.2-2.1-3.9-4.8-5.4-3.9-4.6 2.7-5.4-.8-8.2-3-5.8-4.5-13.4-5.7-20.8-7zm-98.2 401.1c0 4.8 1.5 7.2 5.2 8.5 3.2 1.1 6.1-.1 8.6-3.6.9-1.3 1.5-3.1 3.6-2.6 1.9.4 2.4 2.1 2.7 3.7.5 2.3 1.7 4 4.3 3.7 2.7-.3 4.2-2 4.5-4.7.5-4.5-.9-8.5-3.5-11.9-2.8-3.7-7.2-4.2-11.2-1.8-2 1.2-4.2 1.7-6.5.7-2.4-1.1-4.5-.4-6.2 1.3-1.7 1.9-1 4.7-1.5 6.7zm173.7-438.7c-1.1.2-1.8.3-2.6.5-1.2.3-3.1-.1-2.9 2 .3 2 2 1.2 3.3 1.3 5.2.6 10.1-.9 15.1-2 2-.4 3.7-.1 5.3.9 2.9 1.7 5.4 3.6 7 6.9 1.3 2.7 3.6 5 5.8 7.3 2.1 2.2 4.7 1.9 6.3-.6 1.1-1.7 2-2.9 4.4-2.5 2.6.4 3-2.2 3.9-3.9.8-1.6-.2-2.8-1.5-3.8-1.6-1.2-4-.7-5.2-1.6-5.1-3.9-11.9-2.5-17-6.1-.6-.4-1.4-.5-2.1-.5-4 0-7.6 2.1-11.9 1.6-2.3-.3-5.3 2-7.9.5zM252.5 724c-6 1-11.3 4-16.9 6.4-1 .4-.8 1.4-.2 2.2 1.9 2.4 3.7 4.4 7.4 2.7 4.2-1.9 5-1.2 6.3 3.2.6 1.9 1 3.9 1.6 5.8.4 1.3 1 2.6 2.7 2.6 3.3.1 6.9-3 7-6.3.1-3.2.6-6.2 1.7-9.1 1.2-3-.3-5.2-3.1-6.2-2-.8-4.3-.9-6.5-1.3zm439.4-218.4c-1.1-5.5-.6-11.2-3.2-15.9-2-3.6-4.2-7.7-9.1-8.6-1.7-.3-3.5-.1-5.2-.2-3.1-.2-4.2 1.1-2.9 3.9.4 1 1.1 2.1 2 2.7 3.1 2.1 3.8 5 3.5 8.5-.1 1.6 0 3 1.2 4.5 2.9 3.6 6.4 6.9 7.1 11.8.2 1 .6 1.9 1.8 2.2 1.3.3 2-.6 2.7-1.6 1.6-2.3 1.2-5.2 2.1-7.3zM473.1 753.5v4.6c.2 4.6 2.2 6.6 7.2 7.5 2.6.5 6.2-2.1 7.3-5.3.5-1.4.8-2.9 1.5-4.2 3.5-6.8.6-13.8-6.7-15.8-4.2-1.2-8.2.3-8.5 3.2-.3 3.6-1.3 7-.8 10zM359.6 404.6c-2.5.6-3.8 2.6-4.2 5.1-.4 2.4.8 4 3.5 4.4 6.5.8 12.9.9 18.8-2.4 1.2-.7 2.1-.2 2.8.9.5.8.7 2.3 2 1.4 1.2-.8.6-2 0-3-1.6-2.5-3.5-5.1-4.5-7.6-1.4-3.6-3.1-3.5-5.9-2.9-1.5.3-2.7.9-4.1 1.6-2.4 1.4-4.6 4-8.4 2.5zm414.5 349.1c2.7.3 4.4.1 6-.7 1.5-.7 3.1-1.6 3-3.4-.1-2.4-.7-4.9-2.6-6.4-2.5-1.9-11.2-.5-13.5 2.1-3.1 3.5-6.8 5.2-11.4 4.9-2-.1-3.6.8-4.8 2.4-.7.9-1 2.1.2 2.5 2.8 1 6 2.7 8.6 1.3 5-2.7 10.5-.6 14.5-2.7zm-481.5 30.1c4.6-2 10.1-2.6 14.9-5.4.7-.4 1.4-.8 1.2-1.7-.2-1.1-1.1-1.7-2.2-1.7-3.7 0-6.9-2-10.4-2.9-1.1-.3-2.1-.7-3.3-.5-4.3.7-8.6 1.3-12.9 1.8-2.3.2-3.4 1.6-4 3.4-.6 1.9 1.1 2.6 2.4 3.2 4.4 2.4 9.1 3.2 14.3 3.8zm153.3-65.3c0 3.2-.2 5.4 0 7.4.4 3.1 3.5 5.1 5.8 3.8 4.3-2.4 7.7-5.6 9.1-10.6.4-1.4.5-2.7-.4-3.9-1.3-1.8-2.5-3.7-3.8-5.5-3.1-3.9-6-3.8-9.1.1-2.3 3.1-1.3 6.6-1.6 8.7zM442 430.6c.4-2.6-.8-5-1.8-7.4-1.9-4.7-4.9-4.9-8.4-1.3-3.2 3.3-5.6 7.6-10.1 9.7-1 .5-2.1 1.3-1.5 2.6.5 1.1 1.7 1.1 2.6.8 2.3-.7 4.2-.1 5.6 1.8 2.9 4 6.4 2 9.7.9 3.2-1.1 4.1-3.8 3.9-7.1zm33.5-75.6c-4.9-1.7-6.4 3.6-10.1 4.1-1.1.2-.1 1.8.9 2.6 2.6 2.1 5.3 3.7 8.5 5.1 5.4 2.3 9.6 2.3 13.7-2.2 3.2-3.5 3-5.8-1.2-8.1-3.9-2.2-7.9-2.7-11.8-1.5zM210.2 708.1c4.8.1 6.2-1.4 5.3-6-.5-2.5-8.4-9.1-11-9.3-1.3-.1-2.2.6-2.7 1.6-1.5 3.5-4.5 4.8-8 5.3-1.2.2-2.5.4-3.7.7-1.2.4-1.8 1.4-1.7 2.6 0 1.2.8 1.6 1.9 1.9 6.4 1.8 13 2.1 19.9 3.2zM449 472.9c-4.5-.2-7.8 2-8 4.6-.3 2.8 1.7 4.2 5.7 5 3.4.6 7 .3 10.3 1.8 1.5.7 3.2.5 4.4-1 2.9-3.6 1.1-14.2-2.8-16.5-1.5-.9-3.1-1.3-3.6 1.2-.8 4-3.9 4.6-6 4.9zm-91.9-81.3c-.5-2.6-2-4.2-4.9-4.6-6.7-1-12.9.6-18.6 3.8-1.7.9-4.7-1.1-5 1.9-.2 2.6 3 1.4 4.3 2.7 2.4 2.6 5 3.7 9.1 3.1 4.5-.7 8.5-2.6 12.9-3.6 1.4-.3 2.2-1.5 2.2-3.3zm30.3 48.2v1.9c-.1 5 1.3 7.6 4.6 8.2 3 .5 6.9-2.7 7.9-6.7 1.1-4.7 2.9-9.3 2.4-14.3-.1-1.5-.2-3-.7-4.4-.9-2.4-2.5-2.6-4.1-.6-1.5 1.9-2.5 4.4-4.4 5.5-4.3 2.7-6.3 6.2-5.7 10.4zm202.1-43.4c-2-4.7-1.3-10.7-4.7-15-3.2-4-3.4-8.2-3.9-12.8-.5-4.8-1.5-9.6-3.8-13.9-.7-1.3-1.9-2.7-3.5-2.1-1.9.7-1.2 2.6-.8 3.9 1.4 3.9 2.7 7.7 2.6 11.9 0 .8.5 1.7 1 2.4 2.4 3.4 3.3 7.2 4 11.1 1.1 5.5 1.3 11.5 5.5 15.9.7.7 1 1.9 2.3 1.4 1.1-.3 1.2-1.4 1.3-2.8zm-124.4-6.6c.8-.2 2.1-.4 3.1-1 5.8-3.3 11.3-7.2 18.2-8.2 1.7-.3 3.1-1.5 4.4-2.7.8-.8 1.6-1.7 2.7-1.9 4.8-.6 8.3-3.7 12.3-5.9 1.5-.8 2.5-2.1 2.6-3.9.1-1.2-.8-1.9-1.9-2-1.8-.2-3.5.2-4.7 1.7-.8 1.1-1.4 2.6-2.8 2.8-5 .8-8.3 4.7-12.8 6.6-7.7 3.3-13.9 9.5-22.2 11.5-.9.2-2.1.8-1.6 2.1.3.8 1.3.9 2.7.9zm99 96.4c-.3-1.5-.9-3.2-1.8-4.9-2.7-4.6-6.3-8.5-9.6-12.7-.7-.8-.9-2.3-2.2-2.2-1.5.1-2.4 1.2-3 2.5-.9 2-1.6 4.1-.6 6.1 1.1 2.2.4 5.7 4.2 6.3.8.1 1.4 1.3 2 2.1 1.8 2.3 4.1 4 6.5 5.6 1 .7 2 1 3.1.3 1.1-.6 1.5-1.6 1.4-3.1zm-307.2-71.5c-.2 1.9.1 3.6 1.9 4.6 2.1 1.1 2.3-1.1 3.3-2 .8-.7 1.7-1.4 2.7-1.9 5.3-2.5 10-5.9 14.1-10 1-1 1.9-2.4 1.3-3.6-.8-1.7-2.1-.1-3.2.1-3.8.6-7.3 3.2-11.4 2.1-1.3-.3-2.4.4-3.5 1-3.9 2-4.7 5.8-5.2 9.7zm30.7-69c-.9-.2-1.3.2-1.5.6-1.5 2.8-2.7 3.2-5.7 1-2.2-1.6-3.5-4.7-6.7-4.9-1.8-.1-2.8-1.4-3.6-2.9-.3-.6-.1-1.3.5-1.6 1.6-.7 3.2-.4 4.5.7.2.2.4.3.6.5 1 .7 1.9.4 2.7-.4.8-.8 1.4-1.8 1-3-.4-1.1-1.3-1.5-2.4-1.3-1.4.3-2.8.3-3.8-.9-1.9-2.2-4.2-2.1-6.4-.9-2.5 1.3-3.4 3.7-3.1 6.3.3 2.7.9 6 4 6.5 3.6.6 6 3 8.7 4.8 6.4 4.1 9.2 3.1 11.2-4.5zm257 348.2c4.2 0 9-2.7 9.3-5.8.4-3.6-2.7-5.2-5.5-6.7-4.4-2.4-6.3-1.8-8.7 2.4-.4.8-.9 1.5-1.6 2.1-2.9 2.4-2.4 5.6-2 8.6.3 2.3 1.8 2.7 3.3 1.1 1.6-1.6 3.4-1.9 5.2-1.7zm273.7 68.9c1.6.1 3.4 0 5.3-.6 1.1-.3 2-.8 2.4-2.1 1.1-3.6-3.7-10.7-7.4-10-4 .8-6.5-.3-8.6-3.5-.5-.8-1.5-1-2.3-.4-.9.6-.9 1.6-.2 2.3 1.5 1.6 1.4 3.6 1.7 5.6.8 6.9 2.7 8.7 9.1 8.7zM640.1 516.7c2.1-.4 4.1-.4 4.3-2.7.1-1.5-1-2.2-2.4-2.2-5.2.2-8.8-2-10.7-7-.3-.9-2-1.4-2.3-2.4-.8-2.3-4.3-4.3-2-6.8s5-.3 7.2 1.1c.8.5 1.6 1.6 2.6.9 1.2-.8.4-2.1.2-3.1-.4-1.8-1.9-2.4-3.5-2.1-4.5.9-8.7.2-12.5-2.4-.5-.3-1.2-.7-1.7 0-.2.3-.1.9 0 1.4 1.4 7.8 6 13.9 10.6 19.9 2.6 3 7 3.6 10.2 5.4zM587.9 586c.4 0 .8.1 1.1-.1 5.8-2.8 10.6-2.7 13.4 4.3.6 1.5 3 1.2 4.4.2 1.7-1.2 1.4-3.3.7-4.8-.8-1.9-2.1-.3-3.1.1-2.4.8-3.4-.3-3.2-2.5.2-1.8 1-3.6 1.2-5.5.4-3.4-1.8-4.7-5-4-4.1.9-7 4.2-11 5.4-2.4.8-1.9 3.2-1.7 5.2.3 2 1.7 2 3.2 1.7zm-314.8 51.7c.5-.1 1-.1 1.5-.1 5.2.2 6.7-2.1 4.5-6.8-.7-1.6-1.6-3.2-3-4.2-2.7-1.9-5.8-3.6-9.1-2.9-2.7.5-4.4 7.5-3.3 11.5 1 3.7 3.9 2.7 6.4 2.5 1-.1 2 0 3 0zm152.3-281.1c.2 3.1 4.2 8.5 7.6 8.3 4.4-.3 7.6 5 12.2 2.2.1-.1.7.3.8.6 1.9 4.1 6.7 2.7 9.6 4.9.8.6 2.2.1 2.7-1.2.3-.9.1-1.8-.7-2.3-4.9-3.2-9.9-6.5-16.2-5.6-1 .1-1.8-.2-2.2-1.1-2-4.9-7.7-4.2-11-7.4-1-1.1-3-.8-2.8 1.6zm85.8-16.9c-1.4-.4-2.7-.5-3.7.9s-.1 2.5.3 3.8c1.3 3.5 5.3 3.9 7.4 6.4.2.3 1.3.1 1.7-.1 3-1.9 6.2-3.2 9.4-4.5 1.4-.6 1.9-2 1.7-3.4-.2-1.3-.4-3.2-2-3.2-3.9.1-7.7-2.5-11.6 0-.9.4-2.1.3-3.2.1zm-73.7-51.2c2.4-.8 3.5-2.6 4.9-4 1.5-1.4 3.6-3 2.4-5.3-1.2-2.2-3.7-4.1-5.9-4.1-4.2.1-8.7.1-12.3 3.1-1.2 1-1.7 2.1-1.5 3.6.2 1.5 1.2 1.8 2.5 1.6 1.2-.2 1.9.4 2.4 1.3 1.7 3.1 6.1.4 7.5 3.8zm175.3 8.9c-6.1-1.7-8.3 4.3-12.6 6.1-.3.1-.4 1.2-.3 1.7.3 2.1 4.8 5.4 6.9 4.8 3.5-.9 7.1-2 10.4-3.4 2.8-1.2 3.2-3.6 1.4-6.2-1.4-2-3.5-2.9-5.8-3zM509.3 659.9c-.1 0 .5.1 1.1 0 2.2-.3 4.3-1.3 5.3-3 1.2-2-1.1-2.9-2.2-4.1-2.6-3-1.8-7.3 1.6-9.5 1.5-.9 3-1.9 4.2-3.1 1.9-2 1.2-4.7-1.2-5.3-3.2-.8-6.2 1.4-6.4 4.6-.1 1.4-.1 2.9-1 3.9-3.1 3.3-4 7.6-5.8 11.6-1.9 4.3-1.2 5.2 4.4 4.9zm-6.2 23.4c-2.9-.1-3.6.4-2.8 1.8 1.9 3.4.4 5.3-2.3 7.1-1 .6-1.8 1.5-1.4 2.8.4 1.3 1.5 1.9 2.8 2.1 1.5.3 2.4-.5 2.8-1.8 1.5-4.7 4.6-8.1 8.9-10.5.9-.5 1.7-1.5 2.5-.3.6 1-.2 1.6-1.1 2-2.9 1.4-1.7 2.9.1 4 1.2.8 2.8 1.5 4.3.6 1.7-.9 1.6-2.7 1.4-4.3-.1-1.2-.7-2.4-1.1-3.5-1.5-4.9-5.2-5.9-8.9-2.1-1.4 1.4-3.1 2.1-5.2 2.1zm237.8 47.8c1.2.2 2.2.2 3.1-.3 1.4-.7 2.1-1.8 1.7-3.4-.4-1.7-1.6-2-3.2-1.7-2.2.4-4.4.8-5.6 3.1-.7 1.2-2 1.9-3.2 2.5-5.2 2.5-10.3 2.3-15.4-.4-2.1-1.1-4-1-5 1.3-.8 2-.2 4.3 2 4.9 7.4 2 14.4 1.3 20.6-3.6 1.6-1.2 2.9-2.9 5-2.4zm-341.6-36.5c2.5.1 3.8-.7 4.5-2.4.7-1.9 1.7-3.6 3.6-4.6 1.5-.8 1.9-2.3 1.6-3.9-.4-1.7-1.7-2-3.1-1.9-1.1.1-1.7-.9-2.6-1.2-2.7-.9-4.9-.3-6.1 2.6-1 2.3-.2 3.6 2.3 3.8.7.1 1.3.3 1.1 1.1-.2 1-1.1 1.3-2 1.2-1.7-.2-2.7-1.6-4.1-2.5-2.2-1.3-3.3-.5-3.7 1.7-.5 2.4.5 4.2 2.9 4.9 1.8.6 4 .9 5.6 1.2zm-114-352.1c2-.7 3.5.4 5 1.5 1 .7 3.3-.4 3.1 1.7-.2 1.3-1.4 2.6-2.4 3.7-.3.5-1.1.6-1.6.9-1.1.6-1.8 1.4-1.6 2.7.2 1.4 1.2 2.1 2.5 2.5 1.2.4 2.3.1 3-.9.6-.9 1.1-2 1.6-3 .8-1.6 1.9-2.6 3.8-2.5 1.4.1 3.4.7 3.5-1.5.1-1.8-1.1-3.3-2.9-3.9-1.8-.6-3.5-1.2-4.7-2.8-2.6-3.4-7.4-2.6-10.5-5.2-.2-.1-.9 0-1 .2-.9 1.8-1.8 3.8-1.4 5.6.2 1.9 2.2 1 3.6 1zm36 392.8c.5-2.6-2-3.7-3.3-5.4-4.3-5.7-5-4-8.2.2-2.2 3-3.9 5.5-8 5.1-1-.1-2.4.6-2.4 2 0 1.8 1.7 1.7 2.9 1.5 5.4-.9 10.7.7 16.2-.1 2.5-.3 2.9-1.2 2.8-3.3zm162.9-307.8c3.9.3 6.5-.9 8.7-3.1 1.2-1.1 1.7-2.6.1-3.4-3.6-1.6-5.6-4.3-7.1-7.7-.5-1.2-1.4-1.2-2.3-.1-2.3 2.8-4.4 5.7-5.2 9.3-.9 4.2.4 5.5 4.6 5 .6-.1 1.2 0 1.2 0zM298.8 265.7c-.7-.1-1.5-.1-2.2-.2-1.3-.3-2.7-.7-2.8 1.3-.1 1.9 1.1 2.2 2.7 2.1 2-.1 4.2-.7 5.9 0 7.1 3 12.5-1.6 18.4-3.7 1.3-.5 2-1.9 1.6-3.5-.3-1.2-1.3-2-2.5-1.9-3.6.3-7.4.2-10.4 2.4-3.2 2.4-6.6 3.8-10.7 3.5zm247.8 37c-1.2-.3-2.3-.1-2.8 1.2-.5 1.4-.6 3.5.8 3.6 3.8.5 6.2 4 10.3 3.9 3-.1 6 .7 8.3 3.1 2.3 2.4 5.2.4 7.8.3.9 0 1-1.7.3-2.2-2.2-1.6-4.3-3.9-7.2-3.7-1.8.2-3.1-.4-4.6-1-4.4-1.3-8.3-4.2-12.9-5.2zm-198.7 9c2 .4 3.2-1.1 4.8-1.7 1.3-.4 2.4-.9 2-2.6-.3-1.4-1.4-1.8-2.7-2.1-4.1-1-8.2-2-12.1-3.3-2.5-.8-4.4-.1-5.3 1.9-1 2.2-.3 4.1 2.2 5.6 3.5 2.3 7.4 1.4 11.1 2.2zm-15.6 69c.1 0 1.2-.3 1.9-1.3s.3-1.9-.4-2.7c-.9-1.1-1.5-2.5-2.7-3.1-4.4-2.1-8.9-4-13.8-5-.8-.2-1.5-.1-2 .6-.4.6-.3 1.3.2 1.7 2.5 1.7 2 4.3 2 6.8 0 2 .8 3 2.8 1.7 2.1-1.4 3.9-1.6 6.2-.2 1.4.8 3.2.8 5.8 1.5zm119.1-36.9c-.2-.2-.5-.6-.9-.8-2-.8-3.9-1.7-5.9-2.2-2.2-.6-4.4-.2-5.8 1.7-1.2 1.7-2.3 2.7-4.6 2.3-1.5-.2-2.7.9-2.9 2.4-.2 1.6 1 2.7 2.5 2.8 1.7.1 3.1.6 4.3 1.9 1.1 1.3 2.6 1 3.7 0 2.6-2.3 5.2-4.6 8.5-6.1.6-.3 1.1-.9 1.1-2zm196.5 149.9c-1.3.8-3.7.4-3.4 3 .2 1.9 1.1 3 3.3 2 .9-.4 1.6.3 2.4.7 3 1.5 6.4 2.3 7.8 5.9.1.3.9.7 1.2.6 4-.7 4.4 2.2 4.6 4.9.1 1.4.4 2.2 1.8 2.2 1.5.1 2.6-.5 3-2.1.5-2.3-2.3-7.6-4.5-7.9-2-.2-3-1.4-4.2-2.7-3.3-3.5-7.4-5.3-12-6.6zM471.2 648.4c0-.3-.3-1.6-1.4-2.4l-7.5-5.4c-2.4-1.7-5.2 0-5.2 3 .1 3.9 1.6 7.3 4.9 9.5 3.6 2.3 9-.2 9.2-4.7zm-201.4 37.9c2.4-.3 4.9-1 6.4-3.6 1.3-2.4.6-5.1-1.7-5.6-3.3-.7-5.7-3-8.9-3.7-1.1-.2-2-1.2-3 .1-.9 1.1-1.4 2.4-.7 3.8 1.4 2.6 2.8 5.3 4.7 7.6.8.9 1.7 1.5 3.2 1.4zM316 357.1c2.2 5.9 2.6 6 6.6 1.6l.3-.3c1.7-1.2 2.7-2.9 1.4-4.8-1.5-2.2-5.8-3.3-6.2-3-3.1 2.3-6.9 2.1-10.1 3.6-1.8.9-2.1 2.5-1.1 4 2.4 3.5 7.2 3 9.1-1.1zM197.6 723.8c1.6 0 4-.5 6-2 2.1-1.6 2.3-3.1.5-5.3-2.2-2.6-4.8-3-7.9-2.6-4.3.5-7.1 2.4-7.1 5.2 0 2.3 3.7 4.6 8.5 4.7zm233.1-76.7c-3-1-5.5.6-8 2-1.3.7-2.1 1.8-1.8 3.4.3 1.6 1.4 2.3 2.9 2.3 1.4 0 2.6.7 3.8 1.4 1.8 1.2 3.6 2.5 5.6.5 2-2 4.4-3.8 3.1-7.3-1.1-2.7-3.2-2.8-5.6-2.3zm186.9-115.4c-2-.1-3.9 0-4.3 2.5-.4 3 .2 6.1 3.1 7.3 2.2.9 3.9 1.7 5.1 3.8.7 1.3 2.2 1.8 3.5.6 1-.9 2.9-2.1 1.6-3.6-2.2-2.5-2.9-5.7-4.7-8.4-1-1.7-2.3-2.7-4.3-2.2zm-80.1-53.4c-.2 3.7 1.4 6.4 4 6.1 3.5-.5 4.8 1.7 5.1 4.1.5 4.3 3.7 6 6.4 8.3 1.7 1.5 2.8.6 3-1.3.2-1.4-.4-2.6-1.4-3.7-2.3-2.6-4.8-5.1-6.2-8.4-.3-.7-.8-1.4-1.7-1.2-2.9.6-4.4-.3-4.5-3.5-.1-1.6-1.6-3.1-3.3-3.1-1.6-.2-1.2 1.6-1.4 2.7zm175.1 233.5c-.1 2.4 0 2.4 3.2 5.2.8.8 1.5 1.8 2.8 1.1 1.1-.6 1.3-1.7 1.3-2.9 0-6.8-3.3-10.1-10.1-9.6-2.5.2-5.5 4.5-4.5 6.8.6 1.5 2.1 2.2 3.6 2.2 2 0 1.5-1.5 1.3-2.7-.2-1.2 0-2.5 1.5-2.5 1.4.1 1.1 1.4.9 2.4zM240 682.6c-.1 1.8-.9 4 1.2 4.7 1.9.6 4-.1 5.6-1.3 1.4-1 1.9-2.6 1.5-4.3-.8-2.9-1.6-5.8-2.4-8.6-.6-2-1.8-2.5-3.7-1.4-1.8 1.1-3.2 2.2-2.7 4.7.5 2.1.4 4.2.5 6.2zm505.9-157.8c0-2.2-3.5-6.9-5.2-7-3.2-.2-7.2 2.5-7.3 5-.1 3.5 3.4 7.1 7.1 7.3 2.3.1 5.4-2.9 5.4-5.3zm-286.6-95.7c0-3-1.5-9.2-2.8-12-.3-.6-.5-1.6-1.5-1.3-.9.3-.8 1.2-.8 1.9-.1 3.1.7 6.2.1 9.3-.4 1.9-.9 3.3-3.1 3.5-1.8.2-3.3.7-2.9 3 .4 2 1.7 2.9 3.7 3 4.5.2 7.3-2.7 7.3-7.4zm330.9 278.6c.2 3.1.2 6 2.9 6.3 2.3.3 2.8-2.4 3-4.4.4-3 2.5-4.5 5.2-5.2 2-.5 2.8-1.6 2-3.6-.5-1.4-6.3-3.4-7.3-2.3-2.8 2.8-4.6 6.3-5.8 9.2zm-560.4-12.4c-.1-1.6.3-3.7-2.5-3.9-4.5-.3-7 1.6-7.2 5.6-.2 4 2.2 8.3 4.8 8.4 2.6 0 4.6-3.8 4.9-10.1zm378.6-41.2c.4-3.4-.1-5.2-3-5.4-1.2-.1-1.8-1.2-2.4-2.1-1-1.4-1.9-3-3.1-4.2-1.8-1.7-3.9-.9-5.3.5-1.6 1.5-.5 3 .9 4.1 2.9 2.2 5.5 4.5 7.4 7.7 1 1.6 2.9 2.3 4.6 1.9 1.7-.3.9-2.2.9-2.5zm-371.6 59.3c-3-.2-5.3 1.2-7.2 3.7-2.3 3.1-1.9 4.8 1.7 6.2 2.6 1 8.5-1.6 9.5-4.2 1.8-4.2.9-5.6-4-5.7zm29-10.2c-.1-2.1-.7-4.1-2.9-5.5-2-1.2-3.6.4-5.3.4-2.5 0-4.6.2-4.4 3.4.2 3 1.7 4.6 4.8 4.3.9-.1 1.7.2 2.4.7 3.2 2 5.3.7 5.4-3.3zm414.7-298.1v-2.6c-.1-1.5-.1-3.1-1.9-3.6-1-.3-2.1.1-2.6 1-.8 1.5-1.1 3.6.3 4.5 2.5 1.8 2.8 4.4 3 6.9.5 5.9 3 11.3 3.4 17.2.1 1 .5 2.1 1.7 2.1 1.1 0 1.1-1.2 1.3-2 .6-2.2-.2-4.1-1-6.1-2.4-5.6-3.3-11.5-4.2-17.4zM408.3 762.2c4.1 0 5.4-1.3 5.4-4.8 0-3.8-2.3-4.1-5.3-3.7-2.1.2-4.2.7-6.5 0s-2.8 1.8-1.8 3.1c2 2.6 4 5.8 8.2 5.4zm-33.4 2.4c-.2-1.3-1.2-1.8-2.1-1.6-5.3 1.6-11 2.2-14.9 6.6-1.5 1.7-.5 3.2.8 4.6 1.4 1.5 2.4.9 3.8-.2 3.1-2.4 5.7-5.5 9.7-6.6 1.2-.3 2.3-1.3 2.7-2.8zm-99.4 5c.4 0 1 0 1.6-.2 2.7-.8 4.9-2.4 7.1-4 1.6-1.2 5.3-.1 4.9-2.7-.3-1.8-3.8-1.1-5.9-1.7-4.9-1.4-8.3.3-10.5 4.4-1.4 2.8-.6 4.2 2.8 4.2zm-41.1-106.9c-.1 2.4.5 4 2.9 4.3 2.7.3 7.8-2.5 8.2-4.6.3-1.8.6-3.8-1.7-4.8-1.5-.7-2.8-2.6-4.7-1.1-2.2 1.7-5.3 2.8-4.7 6.2zM438 305.1c.1-1.4-.8-2.3-3.4-1.7-4.9 1-6.5 5.7-9.3 8.9-.7.8-.4 2.5.9 3.3 1.3.8 2.5.3 3.3-.8 1.1-1.4 2.2-3.3 3.9-3.1 4.5.4 4.1-2.8 4.6-6.6zm83.4 110c-.9-5.7-1.9-11.4-5.1-16.4-.6-.9-.7-2.4-2.2-2-1.4.4-1.7 1.9-1.4 3.1 1.5 5.4 3.1 10.7 4.8 16 .3 1.1 1.2 2 2.6 1.6 1.2-.3 1.4-1.3 1.3-2.3zM279.2 705.2c0-2.4-.6-3.6-2.7-3.2-2.4.5-6-.4-5.2 3.9.4 2.4.6 4.6-.1 6.9-.4 1.3-.4 2.9 1.4 3.4 1.6.4 3.5-.2 3.8-1.7.7-3.4 1.4-6.8 2.8-9.3zM670.3 527c.1 1.6.4 3.3 2.5 3.8 1.8.4 3.2-.3 3.9-2.1.4-1 1.1-1.5 1.9-2.1 1.8-1.5 2.2-3.6 1.7-5.8-.4-2.2-2.6-1.7-4-2-2.3-.5-6 4.5-6 8.2zm-154.8 55.3c-4.2 0-7 1.9-7.2 4.8-.1 2.3 3 4.5 6.7 4.6 2 .1 5.3-3.2 5.2-5.5-.1-3-2.5-3.7-4.7-3.9zm-4-313.2c2.9-.9 6.8.4 8.7-3.9 1.1-2.5 1.1-3.4-1.8-4.1-3.3-.7-6.2-.3-8.9 2-1.2 1.1-2.4 1.8-2 3.5.5 2 1.9 2.6 4 2.5zM397.8 398c2.1-.7 4.7-1.5 7.2-2.4.9-.3 1.1-1.4.8-2.3-.3-1-1.1-1.7-1.9-1.3-1.8 1.2-2.9.3-4.5-.7s-3.6-.8-5.1.8c-1 1.1-2.3 1.9-3.4 2.9-.9.8-2.7 1.2-1.9 2.7.7 1.2 2.3 1.3 3.7 1.2 1.6-.1 2.8-1.7 5.1-.9zM580 591.9c0-4.6-2.8-7-7.9-6.9-1.5 0-1.5.9-1.5 1.9 0 5.1 2.6 8.6 6.5 8.6 2.6 0 2.8-1.9 2.9-3.6zm6-75.8c1.6-.1 2.8-.1 3.4-1.3.4-.9.1-1.8-.7-2.3-3.6-2.3-6-5.8-8.8-9-.8-.9-1.8-2.1-3.2-.9-1 .8-.7 2-.2 3.1 1.7 3.9 4.8 6.7 7.5 9.7.5.6 1.6.6 2 .7zm120 231.5c-.1-2.6-1.2-5.1-3.6-6.4-2.4-1.2-2.7 1.9-4.1 2.9-.8.6-1.4 1.4-2.2 2-.9.7-2 1.3-1.5 2.7.4 1.2 1.7 1.3 2.7 1.8 2 .9 3.8-1 5.8-.3 2.5 1 2.8-.7 2.9-2.7zm-44.4-229.9c-.1-3.3-1.4-4.5-3.9-3.7-1.6.5-2.6 0-3.8-.8-1.2-.8-2.4-.8-3.2.5-.8 1.4.5 2 1.4 2.6 1.6 1.2 3.4 2.1 3.7 4.4.3 1.7-.7 4.5 1.9 4.6 2.3.1 2.5-2.7 3-4.6.5-1.1.8-2.3.9-3zm-286.4-29.2c-1.2 0-3.1-.6-3.9 1.3-.7 1.5 0 3.1 1.3 3.9 1.8 1.1 3.8 1.9 5.8 2.4 1.9.5 2.9-1.2 3.6-2.7.8-1.6 2-3.3 1-5.3-.6-1.1-1.7-.7-2.7-.3-1.5.8-3.1 1.1-5.1.7zm76.3-222.8c-3.5 0-6.6 1.9-6.6 4.2-.1 2.4 2.8 4.8 5.8 4.5 2.6-.2 4.9-1.4 5.4-4.2.4-1.9-2.5-4.5-4.6-4.5zm-21.7-7.2c-.6.1-2.1.4-3.5.8-1 .3-1.8.9-1.9 2.1 0 1.1.6 2.1 1.5 2.3 2.9.9 5.9 2.1 9 1.4 1.5-.3 3.1-.9 3.1-2.7 0-2-1.5-3-3.4-3.4-1.2-.2-2.6-.3-4.8-.5zm32.5 440.1c0-5.1 0-5.1-5.5-7.1-1.7-.6-3.2-.8-4.2 1.1-1 1.8 0 3.1 1.4 4.1 1.3.9 2.8 1.6 3.6 3.1.8 1.3 1.5 3.4 3.5 2.6 1.9-.6 1-2.6 1.2-3.8zm-285.4 24.7c-1.7.3-3.7.5-4.3 2.3-.6 2 1.4 2.6 2.8 3.3 1.4.6 2.5 1.6 3.7 2.4 2.2 1.3 4.2 0 5.6-1.4 1.2-1.2.9-2.9-.6-3.8-2.1-1.6-4.5-2.5-7.2-2.8zm202.8-465.9c-1-1.7-1.9-3.3-3.9-2.1-1.4.8-3.5 1.5-3.1 3.7.4 2.2 2.5 2.3 4.1 2.3 2.5.1 5 .2 7.3-.8 1.2-.6 3.2-.9 2.8-2.9-.4-2-2.5-2.3-4-2.8-1.6-.5-1.9 1.5-3.2 2.6zm37.7 214.5c0 4.7 1.6 7.5 4.3 7.2 3.3-.3 3.5-3.1 3.7-5.5.2-3.4-1.4-4.6-5-4.9-2.7-.2-3.1 1.3-3 3.2zm176.2-44.4c1.1 2.8 2.5 6.6 4.2 10.3.6 1.3 1.7.7 2.4-.2 1-1.4.9-3 .3-4.6-.9-2.4-2.1-4.7-2.6-7.4-.2-1.3-.9-3-2.5-2.8-1.9.2-1.6 2.2-1.8 4.7zm-158.4 29.6c-.9 1.6-.6 3.1-.6 4.6 0 1.3-.2 2.9 2 2.9 1.9 0 4.2.9 5-1.8.7-2.3 1-4.7.6-7-.3-1.3-.8-3.1-2.5-2.8-1.6.3-2.5 2-2.5 3.7 0 .6.4 1.2.6 1.7.3.7.5 1.6-.4 1.9-1 .3-1-.8-1.2-1.5-.2-.4-.1-1.1-1-1.7zm-25.9 273.5c-3-.9-4 2.3-5.6 4.6-.6.9-.8 2.1.1 2.8 2.4 1.9 4.5-.2 6.7-.7.4-.1.7-.2 1-.4 1.7-.8 2.8-2.3 2.5-4.2-.2-2.2-2.2-1.8-4.7-2.1zm61-492.5c-.1-1.1-.8-1.8-1.7-2.3-.8-.5-1.7-1-2.3.1-1.1 2.2-2.1 1.5-3.3.1-.7-.8-1.6-1.2-2.7-.7-1 .5-1.5 1.3-1.4 2.4.4 2.7 2.1 4.5 4.3 5.7 2.2 1.2 2.2-1.4 3.3-2 .8-.4 1.5-.9 2.2-1.3 1-.4 1.6-1 1.6-2zm6.4 23c-1.6.1-3.2 0-4.1 1.5-.7 1.1-.4 2.2.4 3.1 1.8 2.2 7.2 2.8 9.5 1 .9-.7 1.5-1.7 1.3-2.9-.2-1.3-1.2-1.7-2.4-1.9-1.6-.2-3.2-.6-4.7-.8zm73.6 250.5c0 1-.1 2 0 3 .1.8.3 1.5 1.2 1.7.7.1 1.3-.3 1.5-.9 1.1-2.4 3.1-3.3 5.5-4 1.9-.6 1.9-2.6.3-3.5-2-1.1-4.5-2.2-6.7-1.5-2.2.7-1.8 3.2-1.8 5.2zM326 722.5c-2.9 0-4.4 1.3-4.3 3.4.1 1.9 3.4 5.5 5.1 5.3 2.6-.2 3.6-1.8 3.6-4.3 0-3.2-1.7-4.6-4.4-4.4zm137.6-276.1c-1.6-1.7-.9-5.2-3.3-6-2.1-.7-4.5.7-6.2 2.5-.6.7-2 1-1.4 2.3.5 1.1 1.6 1.7 2.8 1.4 2.1-.4 3.6.3 5 1.8.5.6 1.3.9 2 .5.8-.5 1.1-1.3 1.1-2.5zm-10.3-194.3c-.1-1-.1-2.6-1.8-2.6-2.2.1-4.5-.1-6.5 1-1.6.9-2.7 2.4-1.6 4.3 1 1.7 2.5 2.4 4.4 1.3.9-.5 1.7-1 2.8-.9 2.4.4 2.8-1.1 2.7-3.1zM219.4 386c2 .4 4.2-.3 6-2.1.9-1 1.3-2.2-.3-2.6-3-.7-6.1-1.7-9.1-.1-.9.5-2.4.7-2.1 2.2.2 1.3 1.3 2.2 2.5 2.5.7.3 1.6.1 3 .1zm315 269.5c0 .3-.3 1.5.8 2.3.6.4 1.2.2 1.7-.1 2.6-1.6 4.4-8.1 3-10.8-.4-.7-.8-1.3-1.6-1.4-1-.1-1.7.5-2 1.4-.6 2.6-2.1 5-1.9 8.6zM254 387.7c3.3.1 6.3-1 8.9-3.1.6-.5 1.8-.8 1.4-1.9-.4-1-1.5-.7-2.3-.7-3.7.2-7 2.3-10.8 2.3-.9 0-1.4 1-1.4 1.9 0 1.1.8 1.5 1.7 1.5h2.5zm292.2-52.8c1.7-.4 3.5-1.1 4.3-2.6 1.1-2.2-.8-3.7-1.9-5.2-1.4-1.8-1.9.4-2.9.8-.6.3-1.4.4-2.1.4-2.8.1-2.6 2-1.9 3.6.8 1.7 2.7 2.4 4.5 3zm184.5 260.5c0-.7-.1-1.4-.9-1.5-1.1-.2-1.7.6-1.9 1.4-.8 2.8-3 4.2-5.2 5.6-1.8 1.2-2.9 2.7-2.9 4.9 0 .9.2 1.8 1.2 2.1.9.2 1.4-.4 1.8-1.1.9-1.5 2.4-2.5 3.5-3.8 1.8-2.3 3.8-4.6 4.4-7.6zm-197 132.3c-.3-2.5-.4-5.4-3.9-5.6-2.3-.1-3.2 1.8-3.4 3.7-.2 2.7 2.5 5.6 5 5.5 2.4-.1 2.2-1.9 2.3-3.6zm58-259c.2-.1.7-.1 1.2-.3 1.3-.6 1.7-1.8 1.5-3.1-.5-3.1-2.9-4-5.5-4.8-1.1-.3-2.2-.5-2.9.7-.2.3-.3.7-.3 1.1-.3 1.7 3.8 6.3 6 6.4zm-208.3-40.1c.6 0 10.2-6.7 10.3-7.3.2-1.4-.1-2.8-1.8-2.1-3.4 1.5-6.8 3-9.5 5.7-.7.7-1 1.4-.7 2.3.3.9.9 1.3 1.7 1.4zm58 273.6c.2.9.3 2.3.7 3.6.2.8 1 1.5 1.6.8 1.7-2 4.1-3.7 4.1-6.7 0-1.6-1-2.9-2.6-3.1-1.8-.2-3.1.6-3.6 2.5-.1.7-.1 1.6-.2 2.9zm-160.9-313c1.9.1 3.7.2 5-1.3 1.1-1.2 1.1-2.5-.8-2.6-4-.1-7.8 1.4-11.3 3.2-1.4.7-1.4 2.3 0 3.4 1.3 1.1 2.3.6 3-.7 1-1.5 2.2-2.7 4.1-2zm166.4 368.5c-1.6.1-3.4 1.3-5 2.9-.9.9-1.1 1.9-.2 2.9.9 1 1.9 1.6 3.2.6 1-.7 1.9-1.8 3.3-1.4 1.9.5 2.8 0 2.8-2.1.1-2.2-1.3-2.8-4.1-2.9zm202.1-226c-.7.9-2.6-1.2-3.2 1-.2.8.5 1.6 1.2 1.7 3.2.5 5.5 2.6 8.2 4.1 2 1.1 2.4 0 2.2-1.7-.2-3.4-3.7-5.5-8.4-5.1zM689.9 740c1.2-.2 2.2-.9 2.3-2.5.1-2.2-3.4-5.3-5.6-5.1-1.8.2-2.9 1.3-2.7 3.3.2 2.2 3.1 4.4 6 4.3z"/><path d="M542.9 252.6c.4-1.4.5-1.8.7-2.2.7-1.2 1.2-2.4 0-3.4-1.4-1.2-2.3.2-3.2 1-1.2 1.1-2.6 2.6-4.1.7-1-1.4-3.7-1.9-2.8-4.3.4-1.3 7.5-3.5 8.4-2.7 1.7 1.5 1.9.5 2.4-1 1.1-3.3 2.5-2.6 5.5-1.4 5.8 2.4 8.7 7.7 13.4 11.1 2.6 1.9 5.7 2.4 8.5 3.6 2.2.9 3.8-.9 4.7-2.8 2.2-5 3.3-5.6 8.5-.8 3.6 3.3 8.6 4.8 11.6 9.1 1.1 1.6 2.7-.3 3.6-1.5 1-1.3 2.1-2.6 3.6-.9 1.2 1.4 4.4 1.9 2.4 4.9-1.7 2.5.5 4.5.7 6.8.2 2.3.4 4-2.7 2.7-1-.4-2-.2-2.9.1-.6.2-1.5.7-1.8.4-3.2-2.3-7.7-.7-10.5-3.3-3.2-3-7.4-2.7-10.7-4.5-3.6-2.1-7.7-3.7-10.9-6.2-2.6-2-4.1-4.7-7-.8-.6.8-10.1-1.9-10.2-2.8-.1-1.1.1-2.2.2-3.3.2-1.4.6-2.7.5-4.1-.2-1.5-.3-3.8-2.3-3.6-1.6.2-1.2 2.3-1 3.5.4 3.3-2.4 3.6-4.6 5.7zM230.8 356.7c.2-4.6 4.3-6 6.1-9 .3-.6 1.2-.4 1.6.2 1.5 2.3 1.2 4.8.8 7.3-.4 2-2.3 1.3-3.6 1.8-5.1 2.1-11.4.9-15.6 5.3-.4.5-1 1-1.6.4-.4-.4-.5-1.1-.5-1.7.1-1.2.6-2.4-.2-3.6-.5-.7-1.8-1.6-.5-2.5 1-.7 2.1 0 3.2.5 1 .4 1.6 2.9 2.8 1.2 1.1-1.5-.4-2.7-1.9-3.4-.8-.4-1.5-.9-2.1-1.5-3.2-3-7.5-2.4-11.4-3.3-1.8-.4-2.2 1.5-2 3.2.1 1.1 0 2.4-1.5 1.5-3.6-2.2-4.5.6-5.2 2.9-1.9 5.7-6.7 7.3-11.4 3.6-2.3-1.8-2-4.6-1.8-6.5.5-3.5-.5-6.6-.8-9.9-.2-2.5.5-3.3 2.6-3.3 2.9 0 4.7-.7 3.2-4.2-.6-1.5.2-2.7 1.9-2 2.8 1 5.9.9 8.6 2.6 1.3.8 2.7 1.3 4.2.2 2.2-1.6 3.4-.4 3.5 1.7.2 3.3 2.1 4.1 5 4.1 3.8 0 6.9 1.7 10 3.6 1.8 1.1 1.7 3 2 4.6.7 2.7 1.7 4.8 4.6 6.2zM218.8 624c2.6-1.2 3.7-2.3 2.5-4.4-1.5-2.9-1.6-5.7.1-8.6.4-.6.5-1.4.6-2.1.2-1.1.5-2.5-.9-2.9-1.2-.3-2.1.5-2.5 1.7-.4 1.1-.5 2.9-2.2 2.3-1.6-.5-1.5-2.1-1.3-3.5.5-3-1.8-5-2.7-7.6-.3-.9-1.5-1.4-2.6-1.1-1.3.3-1 1.6-1.1 2.5-.1.9.4 2.4-.8 2.6-1.5.3-1.5-1.4-1.8-2.4-1.9-5.5-1.9-5.6 3.9-6.4 2.1-.3 2.9-2 4.3-3.2.3.5.7.9.6 1.1-1 3-1.3 5.1 3.2 3.9 1.7-.5 2.7 1 1.9 2.9-.3.8-1 1.8.2 2.3 1.2.5 1.7-.7 2.2-1.5.8-1.1.5-3.9 2.3-3.1 2.1 1-.1 2.7-.7 4-.5 1.2-1.3 2.4-.6 3.5 3.3 5.6.5 11.5.7 17.1.2 4.4-5.3 6.3-7.4 9.9-.1.2-.8.2-1 .1-.7-.4-.5-1-.3-1.6 1.3-4.2 1.3-4.2-3.1-3.9-1 .1-2 0-3-.1-.9-.1-1.8-.3-2.1-1.3-.4-1.2.8-1.4 1.5-1.7 1-.5 1.4-1.4 1.9-2.3 1.2-1.9 2.7-2.5 4.7-1.2.4.3.9.9 1.2.8 4-1.1 3.1 1.4 2.3 4.2zM488.7 218.5c0 .9.1 1.8-.2 2.6-.7 2.1-.7 6.1-2.6 5.9-2.5-.3-6.5-.1-7.5-4.2-.3-1.4-1.5-1.3-2.3-.5-2 1.7-4 1-5.9 0-1.3-.7-2.4-.8-3.9-.3-2.8.9-4.1-.4-3.7-3.3.1-.7.5-1.5-.4-1.9-.8-.3-1.5.3-1.9.9-.7 1-1.2 2.2-2 3.1-.9 1-2.2 1.3-3.3.2-1-1-.8-2.2.2-2.9 1.9-1.4 2.6-3.2 3-5.3.3-1.7 2.3-2.4 2.9-.7 1.5 4.2 6.6 3.2 8.5 6.8.6 1.2 2.1-.2 2.2-1.4.3-2.4 1.5-2.4 3.4-1.7 1.8.6 3.6.3 4.8-1.2 2.2-3 4.6-1.3 7-.6 2.6.7 1.7 2.8 1.7 4.5zM698.1 400.1c0 3.7-.1 6.8 0 9.8 0 1.1.4 2.4 1.8 2.6 1.2.1 1-1.2 1.3-2 .9-2.4 3.2-3 5.3-3.6 1.3-.3 2.4.5 3 1.8.5 1 .4 2-.3 2.8-.8 1-2 1.2-3 .5-1-.6-1.7-1.6-2.6.2-.7 1.6-.8 3.1 1 3.7 3.3 1.1 5.3 3.5 7.6 5.8 2 2.1 2.4 3.8.7 6.5-2.7 4.2-2.6 9.6-4.4 14.2-.3.8-.2 1.8-1 2.3-3.4-4.8-3.2-7.3.9-11.6 2.4-2.6 1.7-5.9 1.7-8.8 0-2.3-2.6-3.8-5.4-3.4-.8.1-1.4-.4-1.8-1.1-1.3-2.1-2.7-3.9-5.6-3.4-.5.1-1.3-.4-1.5-.9-1.5-2.7-2.9-5.5-4.2-8.3-.4-.9-.4-2.2.5-2.7 1.2-.7 1.3.7 1.7 1.3.4.5.7 1.1 1.5.9.9-.2 1-.9 1.2-1.7.2-1.4-.5-3.1 1.6-4.9zM501.4 776.7c-1.7 1.5-2.9 2.8-5.1 2.5-1.8-.3-1.6 1.9-2.2 3-.5.8-.8 2.1-2 1.9-1.1-.2-.9-1.3-1.1-2.1-.2-.9.1-2.3-1.3-2.3-1.4 0-1.6 1.4-1.8 2.5-.4 2.8.6 5.8-1.5 8.3-.8 1-1.3 3.1-2.9 1.8-1.3-1-3.1-2.4-1.8-4.7.8-1.3 1.5-2.6 2.2-3.9.4-.8.9-1.7-.1-2.3-.9-.5-1.9-.1-2.3.6-2.2 3.3-3.6 2.3-5.1-.6-1-1.8-5.2-2.6-2.7-5.4 2-2.2 3.8 1.1 5.6 2 3 1.4 6.6 1.1 8.5-1.6 1-1.4 1.6-2 2.6-.1.4.7.9 1.4 1.7 1 1-.4 1.1-1.3 1.1-2.2 0-2.8.5-4.4 3.4-1.8 1.6 1.4 3.5 1 5.1-.4 1.4-1.2 2.4-1.6 2.4 1-.1 2.1 1.5 1.4 2.7 1.4 1.2 0 2 .6 1.9 1.8-.1 1.4-1.1 1-1.9.7-.9-.3-1.8-.2-2.4.5-2.3 2.4-2.8.7-3-1.6zM624.2 270.4c-.1-.4-.3-1-.6-1.5-.3-.8-.7-1.7.1-2.4.7-.8 1.6-.6 2.4-.3 2.6 1.1 5.2 2.2 7.1 4.6 2 2.6 1 3.9-1.4 4.7-4 1.4-8 2.7-12 3.9-2.1.6-10.6-4.2-11.1-6-.3-1.4 1.1-1.8 1.8-2.6 1-1.1 2.2-1.8 3.6-.7 1.5 1.1 2.8 2.5 4.2 3.7 1.1 1 2.3 1.6 3.7.8 1.6-.8 2.5-2.1 2.2-4.2zM333.2 228.6c.1-4.3 3.5-5.9 8.6-3.9 1.7.7 3 2.9 4.5-.9.5-1.3 5.6-1.4 8.5.2 2.1 1.2 2.9 2.9 2 5.4-.6 1.6-1.6 2.5-3 1.1-1.8-1.7-2.6-.6-3.9.6-1.4 1.2-3.2 3.1-4.6-.2-.2-.5-.8-.9-1.2-.6-2.3 2-4.7 1.3-7.4 1.2-3-.3-3.6-.1-3.5-2.9zM677.3 771c-.9-.1-1.5.3-1.7.9-1.1 3.2-4.3 4.4-6.2 6.9-1.7 2.2-4.1 2.8-6.4 1.9-2.5-1-4.5-3.1-5.1-5.6-.6-2.3 1.7-2.8 3.2-2 4.5 2.4 7.9.5 11.2-2.3.6-.5 1.6-.6 1.5-1.5-.1-.9-1-1-1.7-1.1-1.3-.3-2.8-.6-1.8-2.4.7-1.3 2-1.3 3.2-.5 2.2 1.5 3.4 4.9 7.1 3.6.6 1.9 1.2 3.9 1.8 5.8 0 .1-.5.6-.8.7-1 .2-1.6-.5-2-1.3-.6-1.3-.9-2.7-2.3-3.1zM217.5 315.3c-2.1-2.5-4.5-1.7-6.3-2.9-1.7-1.1-4.1-1.4-4.4-3.9-.5.1-.9.1-.9.2-2.5 4.1-2.5 4.1-6.5 1.5-1.7-1.1-4.1-1.4-5-3.7-.5-1.2-1-2.4.1-3.5 1-.9 2.1-.5 3.1 0 2.7 1.3 5.4 2.4 8.5 1.9.9-.2 1.8.1 2.3 1 .8 1.4 2.3 2.1 3.7 2.2 3.9.3 4.9 2.8 5.4 7.2zM759.4 464.2c.1 2.2-.3 3.6-2.1 4.1-1.9.6-3.7.7-5.3-.7-1.4-1.2-1-2.6-.4-4.1.7-1.7 1.2-3.5 1.7-5.3.4-1.4 0-2.9-1.4-3.6-2.6-1.3-2.8-4-3.8-6.2-.4-.8-.5-1.8.6-2.2 1-.4 1.7.3 2.1 1.1.4.8.5 1.7.7 2.5.3 1 .7 2.2 2 1.7 3.5-1.3 3.3.6 3.4 3.1-.2 3.7 2.1 6.7 2.5 9.6zM802.1 497.7c-5.1-2.2-3.5.2-2 2.7.6 1.1.2 1.9-.7 2.6-.9.8-1.8 1.9-3.2 1.4-1.1-.4-1.3-1.5-1.3-2.5-.1-4.4.1-8.6-3.2-12.3-1.1-1.3.2-2.6 2-2.1.9.2 1.9.7 2.7 1.3 2.8 2.4 5.6 3.9 8.7.5.4-.5 1.2-.5 1.6.2.5.8.1 1.5-.5 1.9-2 1.3-4.8 2.1-2.9 5.5.2.5-.7.9-1.2.8zM214.1 642.4c-2.4 3.4-.4 8.5-2.4 12.9-.6 1.3-1.1 3.2-2.3 3.1-1.7-.1-3.4-1.3-5-2.2-.2-.1-.3-.9-.1-1.3.2-.5.8-.5 1.3-.3 3.8 1.5 3.3-.1 1.9-2.6-.2-.4-.4-1.2-.1-1.4 3-2.5 1.6-5.3 1-8.2-.3-1.5-.4-3.2 1.7-4.1 3.3-1.4 4-.9 4 4.1zM723.8 461.8c-.1-2.1.6-3.6 1.8-4.7 1-1 2.5-1.6 3.8-.9 1.5.8.4 2.2 0 3.3-1.6 4.4-.4 8.3 3.4 11.5.9.7 1.8 1.3 2.6 2.1.6.6 1 1.6.4 2.4-.7.9-1.5.4-2.3 0-3.3-1.5-5.8-4.2-8.5-6.4-2-1.7-.3-5.2-1.2-7.3zM163.9 695.3c-.7-1.6-.8-2.9 1-3.3 2-.5 3 .6 3.6 2.4.6 2.1.8 4.3 2 6.3 1.1 1.8-.8 3-2.3 3.4-1.9.5-3-.6-3.3-2.5-.1-1 .8-2.7-1-2.5-1.7.2-2.7 1.8-2.3 3.6.3 1.4.9 2.6-.3 3.8-.5.5-1.3.6-1.6-.1-.6-1.4-1.8-2.7-1-4.5.3-.8.6-1.7.7-2.5.1-1.9.6-3.2 3-2.4 1.3.3 2-.3 1.5-1.7z"/><path d="M654.5 769.7c1.2-2.9 3.5-3.9 5.8-5 2.7-1.2 5.7.5 5.7 3.6 0 1-.2 1.9-1.5 1.2-4.4-2.4-7.5.4-10.5 2.9-1.5 1.3-2.7 2.3-4.5.9-1.1-.8-2.5-1.7-2.1-3.2.5-1.9 2.3-3 4.1-3.5 2.1-.7 1.6 1.6 3 3.1zM554.4 775.7c0 .8-.4 1.5-1.2 1.8-1.1.4-2 .2-2.6-.8-1.3-2-2.6-1.6-3.9-.2-2.2 2.2-5.3.9-7.8 2.2-.7.3-1.2-.3-1.3-.9-.3-2.2-1.9-3.4-3.3-4.9-.4-.5-.9-1-.4-1.6.5-.6 1.1-.1 1.7.1 4.6 1.6 9.2 3.5 14.3 1.2 1.7-.9 4.6 1.3 4.5 3.1zM230.6 330.9c-.4-1.5.1-2.8-.6-3.9-2-3.3 0-5.4 2.8-5.8 4.9-.7 3.8-2.5 1.1-5.4 2.5 0 4.2.9 5.8 1.8.8.4 1.5 1.5.8 2.2-3.3 3.5-4.6 9-9.9 11.1zM610.1 759.4c1.4.7 3.6 1.5 5.4 2.8 2.1 1.5 1.4 4.8-1.1 5.8-1.5.6-2.2-.2-2.2-1.5 0-1.6-.2-2.9-2.2-2.5-1.8.3-1.6 1.5-1.1 2.9.3.8.2 1.5-.7 1.9-.7.3-1.6.3-2.1-.3-1.3-1.5-2.6-3.5-1.8-5.3.8-2.2 2.3-4.2 5.8-3.8zM656.7 287.6c-.1-2 1.2-2.5 2.9-2.1 3 .6 6.8 6.7 6.1 9.6-.7 2.8-2.2 3-4.4 1.5-3.2-2.1-4.2-5.4-4.6-9zM808.5 462.7c2.9 5.6-.6 9.6-3 13.8-.6 1-1.2 2.1-2.6 1.7-1.3-.4-1.6-1.6-1.5-2.7.6-5.3 2.3-9.9 7.1-12.8zM564.7 769.8c2.6.6 5 1.7 7.4 3 1.3.7 1.5 2.3.6 3.6-1.1 1.6-2.4 3.3-4.8 2.6-2.8-.8-5.6-4.6-5.7-7.6 0-1.7 1.2-1.5 2.5-1.6zM378.6 775.9c3.1-3.6 8.2-5.4 8.7-11.2 1.1 1.4 4 .6 4 2.9 0 2-1.3 3.9-3.7 4.7-1.6.5-2.5 1.8-1.9 3.5.7 2.1-1 2.9-2.1 4-.9.9-2 1-2.1-.5-.1-2.2-1.7-2.7-2.9-3.4zM795.5 473.1c1.3.7 1.3 1.3 1.4 1.9.7 6.1.7 6.1 6.6 7.4.8.2 2 .1 1.8 1.4-.2 1.2-1.5 1.6-2.4 1.2-3.3-1.6-6.5-1.4-9.8-.3-1.3.4-2.2-.5-2.5-1.7-.5-2 .1-4.7 1.7-4.8 3.6-.4 3.2-2.6 3.2-5.1zM215.6 426.6c-1.3-.9-.7-3.1-2.6-3.1-1.6.1-1.6 1.7-2.1 2.7-1.3 2.7-5.3 3.2-7.3.9-.5-.6-.6-1.1-.1-1.7.5-.6 1.1-.5 1.7-.1.8.6 1.4 2 2.8 1 1.2-.9 1.1-2.1.7-3.4-.6-2-.1-2.8 2.1-2.5 2.7.3 5.5.2 8.2.4.7 0 1.6.1 1.8 1 .2.8-.3 1.5-1 1.8-1.5 1-3 1.7-4.2 3zM672.7 332c-.5-3.6.5-6.7 1.8-9.6 1.2-2.8 4.4-1.9 6.7-2 1.6-.1 1.3 2.6 2 4 .5 1-.3 1.8-1.3 1.7-4.5-.4-6.6 2.8-9.2 5.9zM502.9 231.6c0-1.4 0-2.7-1-3.6-1.9-1.7-1-3 .3-4.4.7-.8.9-2.3 2.4-1.8 1.3.5 1.9 1.8 1.7 3-.6 4-1.1 8.1-3.1 11.8-.3.6-.7 1.4-1.3 1-1.6-.9-3.2-2-3.9-3.8-.2-.6-.3-1.3.2-1.7.8-.7 1.3-.1 1.8.5s.8 1.9 1.8 1.5c1.3-.4 1-1.6 1.1-2.5zM719.4 769.7c1.5.2 3.5-.3 4.2 1.5.8 2.2-1.3 2.5-2.6 3.4-.7.4-1.2 1.2-1.8 1.8-1.1 1.1-2.3 1.5-2.9-.2-.7-2.2-2.2-2.8-4.3-2.8-.8 0-2 .1-1.9-1.2 0-1 1-1.4 1.9-1.6 2.3-.3 4.8-.6 7.4-.9zM640 778.9c-.1.3-.2.9-.5 1.2-1.7 2-1.2 3.6.7 5 1 .8 1.6 1.7.6 2.8-1.1 1.2-2 .2-2.8-.6-.9-1-1.8-1.6-3.1-1.9-2.9-.7-2.5-2.7-1.6-4.7.6-1.3 1.7-2.5 2.6-3.6.7-.9 1.5-1.3 2.6-.8.9.5 1.4 1.3 1.5 2.6zM645.9 775.1c-.1 1.4-.6 2-1.7 1.5-.6-.2-1.2-.6-1.5-1.1-2.3-4.1-5.8-6.9-9.7-9.3-.8-.5-1.9-1.2-1.2-2.4.7-1.1 1.8-.2 2.7 0 3.9 1 6.6 3.4 8.2 7 .8 1.8 2.6 2.8 3.2 4.3zM214.3 586.1c0-2.5 1-4.9 2.2-7.1 1.3-2.3 6.2-2.9 8.2-1.2.9.8.6 2.4-.1 2.5-4.1.8-5.6 6-10.3 5.8zM454.2 776.7c.3-1.8 1.2-4 3.5-3.5 2.6.5 4.7 2.5 6.6 4.4.4.4-5.4 3.6-6.6 3.5-2-.1-3.5-1.8-3.5-4.4zM608.4 772.8c2.2.9 4.5 1.7 6.7 2.8.8.4 1.2 1.6.5 2.2-1.4 1.3-3.7 2.4-4.9 1.8-2.1-1-5.4-.7-6.1-3.3-.8-2.6 1.6-3.2 3.8-3.5zM188.8 420.7c-.1-2.5 1.4-3.4 3.8-2.2.9.4 1.8.7 2.8 1 2 .5 2.9 1.9 2.8 3.9-.1 1.4-.9 2.3-2.3 2.5-2.1.3-2.4-1-2.6-2.7-.2-1.7-1.5-.7-2.3-.5-1.5.2-2.2-.3-2.2-2zM416 559.1c-.5 8.9 0 17.9-1 26.8-.1 1.2.2 2.2.5 3.3.8 2.8.7 5.7-.3 8.5-.8 2.2-1.5 4.5-1.5 6.9-.2 5.5-3.1 8-8.7 7.3-1.1-.1-2.2-.3-3.3-.3-2.7 0-4.8.4-2.5 3.8 1 1.5.3 2.8-1.1 3.4-1.9.8-1.4-1.1-1.8-2-2-3.4-3.6-6.6-9-5.6-7.3 1.3-14.6-1.3-22-1.5-2.6-.1-4.9.6-7.3 1.1-1.1.2-2.2.7-3-.5-.7-1-.7-2.3 0-3.2 4.5-5.4 4-11.3 2.7-17.7-1.2-6.1.5-12.4-.3-18.6-.3-2.6-.4-5.2-.9-7.8-1.8-8.7.3-17.1 2.4-25.5.7-2.9 3.5-3 5.8-2.9 4 .2 8 .6 11.9-.5 1.4-.4 2.7 0 3.9.7 4.3 2.5 9.3 2.5 13.7 2.1 4.3-.4 8.7.2 13-.4 3.1-.4 5.3.6 6.5 4.1 1.9 6.1 2.4 12.3 2.3 18.5z"/><path d="M447.8 565.6c1 7.1-1 9-6.3 7.8-1.9-.5-3.9-.7-5.9-.9-1-.1-2.2-.2-2.6.9-.4 1.2.7 1.7 1.5 2.2 1.3.9 4.3 1.1 2.9 3.3-1.4 2.1-3.9.9-5.5-.7-1.3-1.3-2.5-2.8-3.8-4.1-.5-.6-1.3-.9-2-.5-.9.5-.7 1.3-.3 1.9 2.5 3.8-.5 5.5-2.9 7.2-1.3.9-2.7 1.5-2.2 3.4.4 1.9 1.7 2.3 3.5 2.6 2.6.4 5.1 1.7 7.6 2.6-.7 1.9-2.1 1.3-3 1.7-.4.2-1.1.3-1.3.7-1.7 2.9-2.9 6.1-6.3 7.7-1.1.5-.4 2.5.6 3.7 1 1.1 2 1.2 3.4.6 1.9-.8 2.9-2.2 3.8-3.9.5-1 1.5-1.7 2.8-1.5.8.2 1.3.8 1.4 1.6.2 1.2-.3 2.4-1.4 2.8-5 1.6-6.2 5.2-5.4 9.9.1.8.1 1.6-.6 2-.8.5-1.4-.1-2-.6-.7-.5-1.3-1.2-2.1-1.6-1.1-.5-2.2-.3-2 1.2.4 4.2.2 8.3-.3 12.5-.2 1.7.7 2.5 2.3 2.9 1.8.4 3.6.7 5.6.4 1.8-.2 2.9.9 2.9 2.6 0 1.6-1.2 1.9-2.6 1.9-2.9.1-5.6 1.3-8.5 1.2-2.4 0-2.9 2.5-4.3 3.8-.9.9-1.7 2.8-3.2 1.8-1.3-.9.2-2.2.6-3.3.5-1.4 1.3-2.7 1.6-4.2.3-1.5.7-3.5-.6-4.6-1.4-1.3-2.4.6-3.6 1.1-3.1 1.2-7.8-3.3-7.2-7.1.4-2.2.4-4.1-.1-6.2-.5-2.1.5-3.1 2.4-2.1 2.5 1.3 4.2.4 6.1-1.1 1.6-1.3 3.5-2.3 3.3 1.4-.1 1.1.7 2.1 1.9 1.8 1.5-.3 1.6-1.7.8-2.6-1.5-1.8-.4-3.2.1-5.1 1.3-4.4 2-9 2.9-13.5.2-.9 0-2.1 1.3-2.4 3.5-.8 2.3-2 .4-3.5-2.2-1.7-3.3-7-2.1-9.6.3-.6.7-1 1.3-1.2.8-.2 2 .4 2.3-.7.3-1.3-1.1-1.5-1.9-1.9-3.1-1.7-2.9-3.3-.2-5.2 1.1-.7 2.1-1.8.9-3.1-2.5-2.8-.6-5.7-.4-8.5.1-1.4 1-1.8 2-.6 1.4 1.7 3.1 1.5 4.7.7 2.1-1 .6-2.6.3-3.9-.2-.9-.5-1.8.2-2.5.9-1 1.5 0 2.2.4 2 1.1 2.9.4 2.7-1.7-.2-2.5-.6-5-.8-7.4-.1-1.1-.3-2.5 1.2-2.8 1.3-.3 1.5 1.1 1.9 1.9 1.6 3.6 2.1 7.6 4.7 10.9 1.2 1.5 2.7 2.1 3.9 3.4.9.9 1.9 2.1.8 3.3-1.1 1.3-2-.1-2.7-.8-1.4-1.5-2.9-1.2-4.4-.2-.5.4-1.1.7-1.4 1.2-.8 1.4-3.8 1.5-3.1 3.6.6 1.7 3 1.4 4.7 1.6.9.1 1.8.2 2.5.6 2.8 1.9 5.3 2.1 7-3.2zM463.3 611.2c7.8 2.4 9.5 4.3 10.4 12.3.1.9.2 1.7.5 2.5s1 1.5 2 1.2c.9-.3 1.2-1.2.8-1.8-1.3-2.4.2-5.1-1.2-7.5-.4-.7 0-1.9.2-2.9.1-.9.5-1.7 1.6-1.7 1.2 0 1.8.9 1.9 1.9.5 4.2 3.2 5 6.7 4.3 6.5-1.4 10.4 2.6 14.2 6.8.6.7.5 1.4 0 2-.5.7-1.2 1.3-2.2 1.1-1.3-.2-2.3-.8-3.1-1.9-.7-.9-.6-3.2-2.1-2.6-1.7.6-3.3 2.2-4.5 3.7-.9 1.2.4 2.1 1.5 2.4 1.7.4 3.4.6 5.1.8 1.3.2 2.6.5 2.8 2 .3 1.5-.8 2.1-1.8 2.9-2.7 2.2-6.7.5-9.3 3.2-.4.5-1.1-.2-1.4-.8-2.7-5.4-7.7-7.6-12.9-9.5-2.3-.8-4.8 0-7.2-.5-1.5-.3-2.7-.4-3.1-2-.4-1.8-2.1-2-3.3-2.8-1.2-.8-1.6-2.2-.9-3.3.9-1.6 1.5 0 2.2.4.4.2 1.2.6 1.3.4 2.3-2.4 4.1 0 6.1.5 1.1.2 2.6 1.6 3.1-.3.5-1.6-.5-2.8-2.4-3.1-5.9-1.1-5.9-1.1-5-7.7zM416.6 517.7c0 1.6 0 3.5-2.2 4.6-1.4.7-1.4 1.9-.6 3.2.4.6 1 1.4.9 2-.5 2 1.1 4-.2 5.8-.7.9-8-.4-9.2-1.5-1.1-1-1-1.9 0-2.9 2.2-2 1.6-3.5-.6-5-4.2-2.9-6.4-11.1-4.2-15.8.9-2 2.2-1.5 3 0 .9 1.8 1.6 2.4 3.1.7.4-.4 1.1-.6 1.7-.6 2.5.1 8.3 6.4 8.3 9.5zM338.2 582.7c-1.5-2-1.5-3.7-1.6-5.2-.2-3.1-.7-5.7-4.2-7.1-2.1-.9-1.6-3.6.6-4.7 2.1-1 4.5-1.5 6.2-3.3.6-.6 1.4-.7 1.9 0 2.5 3.9 6.3 2.6 9.7 2.4 1.3-.1 2.7-.1 2.2 1.3-.8 2.3-.1 4.5-.4 6.6-.3 1.9-1.3 3.7-3.2 3.6-4.8-.1-8.9 1-11.2 6.4zM319.4 499.9c2.2 1 5 .5 7.6 1.8 3.4 1.8 6.7 2.3 9.7-1.2 1.7-2 4-3.5 5.6.5.5 1.3 2 1.4 3.2 1.5 1.6.1 2.6.9 2.9 2.5.4 2 1.7 3.4-2.4 3.5-4.2.1-8.7-1-12.9.6-1.4.5-3.1.8-4.2-.5-3.4-3.9-7.8-3.8-12.3-3.4-1.9.2-3.6.5-4-2-.4-2.5 1.4-2.8 3.3-2.9 1 0 2.1-.2 3.5-.4zM380.7 619.6c-.9.8-1.1.9-1.2 1.1-.5 1.6 0 4.3-2.2 4.2-1.9-.1-2.9-2.5-3.3-4.4-.4-1.9-.7-3.7-2.6-4.7-.6-.3-1-1.3-.2-1.4 1.9-.3 4-.5 5.9-.2 1.7.3.1 2.2.5 3.3 4-1.5 7.7-3.3 11.9-1.7 2 .7 3.4 1 1.2 3.7-2.3 2.9-5.2 6.2-2.5 10.8 1.2 2-.8 3.8-2.5 4.2-2.3.6-1.8-1.7-2.1-3-.9-3.7-1.8-7.5-2.9-11.9zM535.9 615.7c-.5 2.3 1.2 5-.6 7.7-1 1.5-1.8 2.2-3.6 1.2-2.6-1.4-5.4-2.1-8.3-1.4-1.9.4-2.1-2.6-4.2-1.4-1.9 1-4.9 0-6 2.9-.2.6-1 .8-1.6.4-1.3-1-1.5-2.5-2-3.9-.3-.9.6-1.2 1.4-1.3.9-.1 1.7-.1 2.6-.1 2.3 0 4.2-.4 5-3 .6-2.1 1.8-2.3 3.1-.5 2.4 3.3 6.3 3.8 9.7 5.3 2.1.9 3.2-.5 2.6-2.5-.7-2.3.8-5.7-3.6-6.2-1.1-.1-2-3.1-1.3-4.6.8-1.9 3.3-1.5 5.1-1.6 1.8-.1 1.5 2 1.6 3.2.2 1.6.1 3.5.1 5.8z"/><path d="M457.8 581.5c-.9 2.1.6 3.5 1.3 5.2.4.9.4 2.2-.6 2.7-1.3.6-1.1-.9-1.7-1.4-2.3-2.1-4.7-3.7-8.2-2.6-2.1.7-4.2-.5-6.2-.8-1.2-.2-1.2-2.3-.6-3.6.7-1.3 1.6-1.2 2.8-.5.7.4 1.6.7 2.4.9 4.5.8 5.1 0 3.7-4.4-.3-.8-.5-1.7-.7-2.5-.3-1.2.1-2.2 1.2-2.9 1.2-.7 2.1-.1 2.9.9 2.1 2.6 3.8 5.5 3.7 9zM313.6 597.9c1.1 1.8 2 3.8 4.1 4.6.4.2 1 .8.9 1.1-1.3 5.3 2.4 9.8 2.6 14.8.1 1.8-.8 3.1-2.3 4-1.7 1.1-2.4-.4-3.1-1.6-.2-.3-.6-.7-.8-.7-5.5.5-2.2-2.6-1.5-4.1 1-2.1.9-4 .5-6.1-.7-3.9-1.1-7.9-1.6-11.8.4 0 .8-.1 1.2-.2zM337.7 654.8c3.4-4.7.1-9.3-.4-13.8-.3-2.3-1.4-4.5-2.1-6.7-.5-1.8-.5-3.7 1.6-4.3 1.9-.5 3.6.9 3.5 2.5-.3 5.7 4.4 10.6 1.9 17-2 4.8-1.1 5.2-4.5 5.3zM418.6 545c.3-4.6.5-4.8 5.1-3.9 1.5.3 2.6-.5 3.9-.7 1.5-.3 3.8-.1 2.6 2-2.1 3.8-3.3 7.9-5.4 11.7-.5.9-1.2 3.4-2.7 2.1-1.6-1.3-2.3-3.6-.9-5.7.5-.7 1.4-1.1 2-1.7.7-.8 2.2-1.4 1.4-2.7-.8-1.1-2-.3-3.1 0-1.3.4-3.2 2.3-2.9-1.1zM461.1 608.3c-3.1.1-10.2-6.2-10.5-9.3-.1-1.2 0-2.3 1.1-2.9 1.4-.7 2.9-.4 3.8.7 1.7 2.1 3.8 3.4 6.3 4.3 2 .8 2.9 2.7 2.6 4.9-.3 1.8-1.7 2.3-3.3 2.3zM491.2 596.4c-1 3-1.9 5.8-3 8.6-.2.7-.8 1.5-1.7 1.2-1-.4-.5-1.2-.3-1.9.3-1 .6-1.9.8-2.9.2-2-.3-3.6-2.8-3.3-3 .3-3.1-1.8-3.4-3.8-.4-2.5.3-5 2.4-6.3 1.9-1.2 3.6 1.5 4 2.3 1 1.8 1.7 3.7 3.6 4.8.3.2.3.9.4 1.3zM317.8 576.5c.2-1.9 1-3.4 2.4-4.3 1.2-.8 2.9-2 3.9-.2s-1.2 1.7-2.2 2.2c-1.1.5-2.1 1.1-1.7 2.5.4 1.5 1.6 1.3 2.7 1.1 1.2-.2 2.4-.6 3.7-.7.9-.1 2.2-.2 2.3.7.3 3.7 3.4 6.1 4 9.5.1.7.4 1.6-.3 2.1-1 .6-1.5-.4-2.1-1-1.9-2.3-3.9-4.5-5.8-6.9-.8-1-1.6-1.7-2.8-1.3-4 1.4-3.4-2-4.1-3.7zM402 669.8c.8-5.2 1.5-10.4 3.1-15.5.3-.9.8-2 2.1-1.7 1.2.3 1.4 1.6 1 2.5-1.3 2.9-.8 5.3 1.2 7.9 1.2 1.4.1 3.4-.4 5-.8 2.4-2.4 1.5-3.9.7-1.4-.7-1.4 1.8-3.1 1.1zM312.5 436.6c.7-3.8.1-6.4-.5-9-.4-1.7-.3-3.4.3-5.1.5-1.5 1.4-2.1 2.7-.8 1.1 1.2 3.6 1.3 3.6 2.9-.1 2.9.9 5.6.9 8.4 0 1.2-1.3 2.1-2.4 1.5-2-1.1-3 .1-4.6 2.1zM448.5 630.5c0 .7-.5 1.5-1.1 1.2-2.1-.8-6.1-1.2-5.9-2.9.4-5.8-4.6-5.3-7.2-7.5-.8-.6-2.7-.5-2-2 .8-1.8 2-3.7 3.6-4.9.8-.6 2.8 1.2 2.9 2.4.2 4.4 4.9 6.2 5.4 10.4.2 1.2 1.7 1.3 2.7 1.6.8.2 1.5.7 1.6 1.7zM367.7 622.5c2.1-.4 3 .5 3.1 2.3.4 4-3.9 8.7-7.8 8.6-.6 0-1.1-.1-1.2-.7-.2-1.6-.4-3.1-.9-4.7-.6-2.2 1.6-2 2.7-2.9 1.4-1 1.7-3.7 4.1-2.6zM333.8 615.4c-1.2 1.4.7 2.4-1 4-1-3.6-2.1-6.8-2.6-10.1-.2-1.3 1.3-2.3 2.9-2.2.8.1 1.7.8 1 1.4-3.6 3.2.2 2.4 1.5 3.2 2.2 1.2 4 2.8 6.4 3.7 1.5.6 1.5 2.3.7 3.6-1 1.7-2.2 1.1-3.4.2-1.7-1.4-3.4-2.9-5.5-3.8zM324.4 454.7c1-3.5 2-7.1 3.1-10.7.3-.9 1.2-1.3 2.1-1.1 1.2.2 1.9 1.1 2.4 2.2.4.9.2 1.9-.6 2.3-2.6 1.2-2.6 3.1-2.1 5.6.6 2.4-1.1 4.5-1.6 6.8-.3 1.1-1.3 1.2-1.8 0-.5-1.7-.9-3.4-1.5-5.1zM520.1 612.7c-2.4-1-4.8 1.5-7.6.8-.4-.1-.8-.1-1.1-.2-1.4-.6-3.9-.5-3.7-2.4.2-1.7 2.5-.9 3.9-1 3.3-.3 6.8.6 10-.9 1.2-.5 2.2-.3 3 .7.6.7.9 1.5.5 2.4-.7 1.5-1.9.6-3 .6h-2zM312.5 637.3v-13.1c1.5.4 3 1.3 4.8 1.6 1.3.2 2.5 1.3 2.7 2.8.1 1.4-1 1.9-2.1 2.3-2.9 1.2-3.5 4-4.4 6.6-.3-.1-.6-.1-1-.2zM390.6 504.9c.5-1.1 0-3.1 2.1-3.3 2.2-.2 5.8 3.3 5.7 5.5-.1 2-1 3.6-3.2 4-1.5.2-4.7-4-4.6-6.2zM351.7 481.6c.9.1 1.4.7 1.6 1.4.6 3.2.9 6.4 2.3 9.3.2.4 0 1.1-.2 1.4-2 2-1.7 4.2-.9 6.6.2.6.4 1.3-.2 1.7-.8.5-1.4-.1-1.9-.6-.9-1-1.4-2.1-1-3.4 1.5-4.8 1.3-9.5-.2-14.3-.4-.7-.7-1.7.5-2.1zM356.2 667.2c1.9-3 9-4.5 11.1-2.8.9.7.8 1.4.1 2.2-.6.6-1.3 1.2-1.6 2-1.2 3.1-2 4.5-3.9.2-.7-1.9-3.1-2.3-5.7-1.6zM504.5 609.2c-.5 2.2-2.2 2.9-3.7 3.6-1.4.7-2.9 3.2-4.4 1.6-1.6-1.8.6-3.5 1.7-5.1.4-.6.9-1.2 1.3-1.8.7-1 .1-3.5 2-3 2.1.6 1.6 3.5 3.1 4.7zM635.3 705.8c-.7-3-.4-6.1-.9-9.1-.3-2.2.3-3.6 2-4.7 1.6-1 3-2.2 4.6-3.3 1.3-.9 2.1-2 1.9-3.8-.2-1.8 1-3.1 2.6-2.9 2 .3.9 1.9.5 2.9-.7 1.8.7 2.5 1.6 3.4 1.6 1.4 2.5 2.9 1.8 5.2-.9 2.9 0 3.6 2.9 2.7 1.4-.4 3.1-1.6 3.9.3.8 2-1.3 2.2-2.5 3-2.3 1.5-4.5 2-6.8 0-1.4-1.1-3.1-1-3.7.8-1 2.8-3.3 5-3.6 8.1-.1 1.3-.2 3.2-1.9 3.2-2 0-1.7-2.1-2-3.4-.3-.7-.3-1.6-.4-2.4zM680.1 580.9c-2-.9-2.4.8-3.3 1.7-.5.5-1.1 1.2-1.9 1-1.1-.3-.9-1.4-.9-2.2 0-.4 0-.8.1-1.1 2.7-5.2 5.5-10.3 5.6-16.3 0-1.4 2.1-2.1 3.5-2.4 2-.5 4-.7 5.6-2.5 1.4-1.6 3 .2 4.4.8 1.2.5 1.6 1.6 1 2.8-1.1 2-.5 3.8.5 5.6.5.8.7 1.9.8 2.8.1 1.1.4 2.5-1 2.9-1.6.5-2.1-.9-2.6-2.1-.5-1.3-.9-2.6-1.6-3.8-.6-1.2-1.7-1.9-3.1-1-1.2.8-1.2 1.8-.5 2.9.3.4.6.8.7 1.3.2 1.2-.2 2.3-1.4 2.7-1.4.5-1.6-.8-1.7-1.8-.2-1.1-.1-2.6-1.7-2.3-1.6.3-1.4 1.9-1.3 3.1.2 1.7.6 3.4 1 5.1.6 2 .1 3.3-2.2 2.8zM701.1 585c-2.3 3 1.4 6.9-1.4 10.3-.9 1.1.4 2.6.8 3.9.3 1 .3 2.1-.8 2.6-1.6.8-2.8-.5-4.1-1.2-1.1-.5-.7-1.4 0-2.1 1.8-1.9.9-2.6-1.2-2.5-2.3.1-3.1-1.4-3.2-3.3-.1-2.9-1.5-5.2-2.8-7.6-.4-.7-.8-1.9-1.8-.5-.8 1-1.4.9-1.9-.2-.3-.9-.2-1.8.9-2.2 2.3-.8 4.5 1 6.4.6 3.6-.7 3 2 3.9 3.7.4.8 0 2.3 1.6 1.8 1.2-.4 1.8-1.4 1.5-2.6-.3-1.2-1-2.3-1.4-3.5-.3-1-.9-2.5.4-3 1.5-.6 1.7 1 2.1 2 .4 1 .6 2.3 1 3.8zM678.8 716.8c-1.5 4.1-3.7 6.7-7.2 8.2-.9.4-1.7.6-2.2-.4-.6-1 .1-1.6.9-2.1.4-.2 1-.4 1.3-.7 1.1-1.3.8-2.6-.2-3.7s-2.1-.5-2.9.3c-2.2 2.4-4.4 4.6-7.1 6.4-2.5 1.6-4.4 1.5-6.2-.6-1.3-1.5-2.7-2.9-4.8-3.3-1.2-.2-2.8-.5-2.1-2.3.5-1.4 2-1 2.9-.4 3.3 1.9 6.8 2 10.5 1.5 4.1-.6 6.4-2.4 7.2-6.7.2-.9.5-1.4 1.4-1.2 1.6.4 1.9-.6 2.1-1.9.2-1.3.6-2.7 2.3-2.1 1.4.5 1.4 1.9 1.3 3.2-.1 1.1-.8 1.8-1.7 2.3-1.5.9-2.3 2.1-1.2 3.7 1.1 1.5 2.5 1.5 3.9.3.3-.2.7-.2 1.8-.5zM764.3 699.2c-1.9.8-2.4-.4-3-1.5-1.2-2.1-1.7-4.2-.5-6.4.7-1.3 2.3-1.3 3.7-1.5.5-.1 1 .2 1.1.7.2.7-.1 1.3-.6 1.6-4.9 3.4-.1 3.6 1.6 4.7 1.5 1 4.6 1 3.8 3.7-1 2.9-.4 7-4.5 8.3-.6.2-1.2.7-1.7.2-.8-.7-.1-1.4.3-2 .9-1.6 2.3-3 2.4-5 .1-1.7 0-3.6-2.6-2.8zM641.6 620.9c.8 3.9 2 6.7 4.1 8.9.2.2.3.9.2 1-2.1 2.3-3.9 4.5-2.8 8.2.3.9-2.4.2-3.6.3-1 .1-2.1.3-2.6-.9s.4-1.7 1.2-2.4c3.4-3.2 2-7.7 2.7-11.6.1-.7-.5-1.6.8-3.5zM699.3 618.3c.9.3 1.3 1.2 1.4 2 .3 2.9.4 5.9 1.6 8.7.2.6.2 1.4-.5 1.7-1 .4-1.3-.4-1.5-1.2-.5-2.8-2.2-2-3.9-1.4-1.1.4-2.4 1.3-3.3-.2-.7-1.3 0-2.5 1.1-3.2 1.9-1.3 3.3-2.9 3.8-5.3.2-.5.5-1.1 1.3-1.1zM637.8 611.2c-3.4-4.6-3-6.1 2.1-7.4 1.9-.5 1.9-1.7 1.9-3.1 0-.8.4-1.5 1.3-1.6.7-.1 1.2.3 1.4 1 1 2.4-1 7-3.7 7.7-1.7.5-1.5 2.5-3 3.4zM260.9 556.9c0-3.2 2.8-3.4 4.5-4.4 1.5-.8 2 1 2.6 2 1.2 1.9.7 3.6-1.1 4.8-.1.1-.2.2-.3.2-1.6.6-3.2 2.3-4.7 1.6-1.6-.6.3-3-1-4.2zM622.9 458.7c1.5 2.5 2.9 4.4 3.2 6.8.9 7.1 2.4 9 9.2 10.9 3.3.9 6.2 3.2 9.9 3.3 1.4.1 2.5 1.5 1.9 3-.7 1.5-2 1-3.2.4-3.2-1.7-7.3-.1-10.2-2.9-1-.9-2.3-1.5-3.4-2.3-3.1-2.3-6.2-2.3-9.2.2-1.2 1-2.4 1.7-3.9 2.2-2 .6-3.4-.4-4.6-1.7-1.2-1.4-.8-2.9 0-4.5 2.7-5.4 8-9 10.3-15.4zM669.8 426c-5-4.5-5.7-10.3-7-16-1.3-5.5-2.9-11-3.6-16.5-.6-5.4-4-9.2-5.4-14-.4-1.4-.9-2.6.1-3.9.4-.5 1-.6 1.2 0 .4 1.5 3.8.2 2.7 3-.3.9.1 1.8.9 2.3 3.1 2 2.9 5.4 3.1 8.4.1 1.6 0 3.3.8 4.7 3.3 5.7 2 12.4 3.7 18.4.6 2.2.9 4.3 2.4 6.1 1.6 2.2 1.9 4.6 1.1 7.5zM647.7 357.1c-1.9-.9-1.4-2.3-1.5-3.5-.3-3.1-.5-6.2-2.6-8.8-.7-.9-1.1-2-.8-3.2.6-2.5.2-4.6-2-6.3-.7-.5-1.5-1.4-.4-2.1.7-.5 1.4.3 1.9.8 1.8 2.4 3.8 4.6 4.3 7.7.6 3.4.2 6.9 2.2 10.1.7 1.5-.3 3.6-1.1 5.3zM612.9 343.8c1.6 4.7 5.5 7.6 4.3 12.6-.2.8.1 1.5.7 2.1 5 4.7 5.9 10.9 5.8 17.3 0 1.3.5 3.4-2 3.2-1.8-.1-3.4-.8-3.9-2.9-.7-3-1.8-6-1.9-9.1-.2-6.6-2-12.7-4-18.8-.3-1.2-.4-2.4 1-4.4zM632.5 410.4c-1.9-3.7-4-6.6-2.5-10.3.5-1.3-.1-2.2-1.3-3.1-3.8-2.8-4.9-6.9-4.9-11.4 0-.8 0-2 1.1-2s1.3 1 1.5 1.9c.4 1.4.4 3 2.8 2.4 1.3-.3 1.7 1.1 1.6 2-.7 6.4 2.2 12.4 2.3 18.7 0 .3-.2.6-.6 1.8zM477 439.6c.5.2 1.4.5 1.4-.7-.1-3.2 1.9-2.8 3.7-2 3.8 1.5 7.3-.7 11-.6 1.4.1 3-.6 3.3 1.3.3 1.8-1.3 2.4-2.6 2.6-2.4.4-4.1 1.5-5.4 3.6-1 1.6-2.3 2.2-4.2 1.4-.6-.2-1.5-.6-1.7-.4-3.2 3.6-4.8-.5-7-1.4-1.2-.5-1.8-1.4-1.4-2.7.5-1.4 1.4-1.8 2.9-1.1zM485.5 466.2c2.2 1.2 5.3-1 7.2 1.7.4.5 1.5.6 1.2 1.6-.2.8-.9 1.2-1.7 1.3-1 .2-2 .2-3 .4-4.4.7-6 4.1-3.4 7.8 1.4 2.1 1.6 4.1 1.1 6.4-.2.8-.6 1.5-1.5 1.4-.7-.1-1-.7-1.1-1.3-.7-3.5-1.8-6.8-3.7-10-1.9-2.9 2.1-9.6 4.9-9.3zM413.6 334.3c-1.4 1.4 3 2.9.2 4.1-1.7.7-2.3-2.1-4-2.2-4.5-.3-6.8-2.9-8-7-.7-2.5-3.5-2.1-5.4-2.6-1.2-.3-2.5-.3-3.7-.6-1.2-.3-1.9-1.2-1.5-2.5.5-1.6 1.7-1.1 2.8-.7 4.4 1.9 8.7 3.9 12.8 6.5 1.7 1.1 3.3 2.2 5.4 2.4 1.4 0 2.2.8 1.4 2.6zM531.2 754c-.3 1.7-1.4 2.2-3.2 1.7-3-.8-5.1-3.5-8.6-3.5-1.2 0-2.8-2.7-1.7-4.7 1-1.9 2.5-2.2 4.9-1.5 3.4 1 5.4 3.1 7.4 5.5.6.7 1.2 1.4 1.2 2.5zM261 586.9c-.5 3.6-1 6.2-3.4 7.8-.7.5-1.7 1-2.3.1-.7-1 .1-1.5.9-2 1.1-.6 3.3-.7 1.8-2.6-1.3-1.7-3-1.5-4.4.3-.8 1-1.5 2.1-3 1.6-.8-.3-1.1-1-1.1-1.8.1-1.6 1.1-2.5 2.5-2.8 2.3-.6 4.6-1.1 6.8-1.7 2-.4 2.3.7 2.2 1.1zM499.6 305c2.4 1.6 5.7 1.1 8 2.5 3.1 1.9 6.7 3.4 9.9 4 4 .8 7 3.5 11.2 4.2 2.8.4 5.3 3.6 8.5 4.6.4.1.6.8.3 1.3-.5.8-1.3 1-1.9.5-1.6-1-3.2-1.3-5-1-6.1.9-10.6-2.5-15.7-5-3.5-1.7-6.4-5.4-11.1-4.8-1.7.2-3.7-.6-5.4-1.3-1-.4-1.9-1.4-1.2-2.7.4-1.2.9-2.2 2.4-2.3zM486.5 326.6c0 2.3-3.6 8.1-5 8.2-1.4.1-4.2-4.6-4.2-7 0-2.7 2.9-5.2 6.2-5.1 2.5.3 2.7 2.4 3 3.9zM686.6 499.5c0 .8.3 1.9-.7 2.3-.9.3-1.3-.6-1.8-1.1-1.1-1.2-3-2.1-2.5-3.9 1.2-4.3-1.6-6.9-3.8-9.8-.4-.5-1-.9-.7-1.6.4-.8 1.2-.8 1.9-.8 1.5.2 2.5 1.1 3.3 2.3 2.5 3.8 4.3 7.9 4.3 12.6zM481.2 760.2c-2.7-.1-5.3-4.8-3.5-7 1.7-2 1.7-3.8 1.6-6.1-.1-1.2.2-2.8 1.6-3.1 1.7-.3 1.4 1.2 1.5 2.3 0 1.1 1 .9 1.6 1.2 2.7 1.3 3.2 4.1.8 5.8-1.4 1-1.3 1.9-.7 3.1 1.7 3.6-1 3.4-2.9 3.8zM395.7 431.5c1 0 2.1.5 1.6 1.5-1.3 3-.4 6.5-2.2 9.4-.5.8-.9 2-2.1 1.8-1.2-.3-1.1-1.5-1.2-2.5-.2-2.9 1.5-5.4 1.3-8.4 0-1.1 1.4-1.7 2.6-1.8z"/></svg>