<svg xmlns="http://www.w3.org/2000/svg" xml:space="preserve" viewBox="0 0 800 800"><path fill="none" d="M0 0h800v800H0z"/><path fill="none" d="M299.9 100.4h400v600h-400z"/><path d="M556 176.8c0-19.1.3-40.4.8-53h-.8c-5.2 22.8-16.4 60-27.1 94.9h-20.6c-8.1-30.6-19.7-72.9-24.6-95.2h-.7c1 13.1 1.4 36.1 1.4 55.2v40h-22V107h35.9c8.7 29.2 18.5 65.8 21.8 82.4h.2c2.7-14.7 15-53.8 24.3-82.4h34.6v111.7H556v-41.9zM692.7 184.3c-4.5 20.8-20.2 36-48.2 36-35.4 0-52.2-25.1-52.2-56.8 0-30.6 17.3-58.1 53.3-58.1 29.7 0 44.2 17.5 46.9 36.1h-24.2c-2.3-8.6-8.3-17.2-23.5-17.2-19.9 0-27.6 17.9-27.6 38.2 0 18.9 6.7 38.8 28.3 38.8 15.8 0 20.7-10.6 22.8-17.1h24.4z"/><path fill="none" d="M100 500h300v200H100z"/><path d="M206.9 658.1c0-19.1.3-40.4.8-53h-.8c-5.2 22.8-16.4 60-27.1 94.9h-20.6c-8.1-30.6-19.7-72.9-24.6-95.2h-.8c1 13.1 1.4 36.1 1.4 55.2v40h-22V588.3h35.9c8.7 29.2 18.5 65.8 21.8 82.4h.2c2.7-14.7 15-53.8 24.3-82.4H230V700h-23.3v-41.9zM343.5 665.5c-4.5 20.8-20.2 36-48.2 36-35.4 0-52.2-25.1-52.2-56.8 0-30.6 17.3-58.1 53.3-58.1 29.7 0 44.2 17.5 46.9 36.1h-24.2c-2.3-8.6-8.3-17.2-23.5-17.2-19.9 0-27.6 17.9-27.6 38.2 0 18.9 6.7 38.8 28.3 38.8 15.8 0 20.7-10.6 22.8-17.1h24.4z"/><path fill="none" d="m64.54 135.442 70.71-70.71 599.973 599.974-70.71 70.71z"/><path d="m256.6 192.2-52.7 52.7-11.4-11.4 52.7-52.7 11.4 11.4zM243.3 225.5c3.4-3.4 6.8-6.8 10.1-10.3l10.5 10.5c-.8 1.1-2.8 3.5-4.3 5.1 5-.9 10.8-.4 16.6 5.4 5.7 5.7 5.9 11.7 4.2 16.2 5.5-.9 11.7-.3 18.2 6.2 6.9 6.9 8.3 16.8-2 27l-25.9 25.9-10.7-10.7 24.6-24.6c3.6-3.6 5.8-8.4 1.3-12.8-4.7-4.7-9.5-3.5-15.5 2.6l-22.6 22.6-10.8-10.7 24.2-24.2c4.1-4.1 6.4-8.4 1.7-13.1-4.5-4.5-9.3-3.8-16.1 3l-22.1 22.1-10.8-10.8 29.4-29.4zM309.8 292c3.4-3.4 6.8-6.8 10.1-10.3l10.5 10.5c-.8 1.1-2.8 3.5-4.3 5.1 5-.9 10.8-.4 16.6 5.4 5.7 5.7 5.9 11.7 4.2 16.2 5.5-.9 11.7-.3 18.2 6.2 6.9 6.9 8.3 16.8-2 27L337.2 378l-10.7-10.7 24.6-24.6c3.6-3.6 5.8-8.4 1.3-12.8-4.7-4.7-9.5-3.5-15.5 2.6l-22.6 22.6-10.7-10.7 24.2-24.2c4.1-4.1 6.4-8.4 1.7-13.1-4.4-4.4-9.3-3.8-16.1 3l-22.1 22.1-10.8-10.8 29.3-29.4zM403.6 404.8c-12 12-27.9 13.6-40.4 1.1-12.3-12.3-10.7-28.2 1.1-40 12.2-12.2 28.2-13.4 40.7-.9 11.7 11.7 11 27.4-1.4 39.8zm-28.1-27.9c-7.6 7.6-8.8 15.4-3.6 20.7 5.4 5.4 12.8 3.8 20.4-3.7 8.3-8.3 9.1-15.2 3.7-20.7-5.1-5.1-12.1-4.6-20.5 3.7zM447 376.4l10.9 10.9-20.4 20.4c4.2-.9 10-.2 16.4 6.2 10.8 10.8 7.2 25-3.8 36.1-11.3 11.3-27.2 15.6-38.6 4.2-5.9-5.9-6.7-10.3-5.7-15-1.3 1.3-3 2.5-4.2 3.3L391.1 432c4.4-4.2 8.7-8.6 13-12.8l42.9-42.8zm-8.2 62.8c6.6-6.6 9-13.9 3.1-19.8-6.3-6.3-12.5-4.4-20.6 3.7-6.7 6.7-9.8 13.7-3.4 20.1 5.5 5.6 13.4 3.5 20.9-4zM476.7 438.5l10.9 10.9-39.5 39.6-10.9-10.9 39.5-39.6zm16.2-16.2 10.9 10.9-9.8 9.8-10.9-10.9 9.8-9.8zM457.9 498.9l55.7-55.7 10.9 10.9-55.7 55.7-10.9-10.9zM518.2 480.1l10.9 10.9-39.5 39.5-10.9-10.9 39.5-39.5zm16.2-16.2 10.9 10.9-9.8 9.8-10.9-10.9 9.8-9.8zM505.1 529.6l42.2-3.1-18.6-18.6 8.6-8.6 31 31-8.5 8.5-41.6 3.2 20.6 20.6-10 7.3-32-32 8.3-8.3zM562.2 568.3c-4.9 5-7.3 12.3-1.8 17.7 4.6 4.6 7.7 4 11.1 2.7l11 11c-6.2 3.4-18.5 7.1-30.9-5.4-13-13-8.9-28.4 1.4-38.8 12.4-12.4 27.6-14.9 40.3-2.2 13.6 13.6 8.4 28-1.5 37.9-1.3 1.3-2.2 2.2-3.5 3.2l-26.1-26.1zm22 8.5c4.5-4.7 6.6-10.4 1.2-15.7-5.2-5.2-11-3.7-16.3.7l15.1 15z"/></svg>