<svg xmlns="http://www.w3.org/2000/svg" xml:space="preserve" baseProfile="tiny" overflow="visible" version="1.2" viewBox="0 0 1000 1000"><path fill="#B3B3B3" d="m350 191-32-11-54 17-26 25-4 57v46l-31 68-14 35 4 44-9 70-14 28-14 40 12 88 4 34 15 45 29 22 21 13 28-4 31 2 38 17 35-19 107 10 46 16 25-1 51-31-15-10 64 49 17-16 14-12 16.1-13.1L723 756l45-63-1-38 9-40 45-77 3-33 11-58-20-69v-77l-37-49-60-59-53-22-45 13-50-27-91 7"/><path fill="none" d="M0 0h1000v1000H0z"/><path d="M333.7 197c4.8-2.1 9.8 0 14.3-2.7-1.8-3.4-5.2-6-8.2-5.5-11.6 1.8-23.4-4.3-34.8 1-11.6 5.4-24.9 5.4-36.3 11.4-6.6 3.5-8.8 11.3-15.1 14.7-7.4 4-10.4 11.7-10.8 18.1-.7 12.3-5.8 24.2-2.1 37.2 2 7.1 2.4 14.6 5.9 21.7 2 4.1-1.2 10.1-3.1 14.9-.6 1.4-1.5 2.5-1.1 4.2 2.2 10.2-3.8 17.6-8.8 25.3-.3.4-1.3.8-1.3.9 5.3 8.9-4.5 14.1-5.7 21.6-1.1 6.9-3.7 14-4.7 21.1-1.7 11.6-5.3 22.9-5.2 34.7.1 10.8-.9 22.1 8.7 30.3 1.1.9.5 1.9.1 2.9-.9 2.3-.1 4.1 2.4 4.4 2.1.3 4.1-.3 4.4-2.9.1-1.4.4-2.9 1.6-3.5 8.1-4.2 5.1-9.6 3.2-16.3-1.9-6.9.3-14.8-1-22-.8-4.5.3-8.2.8-12.2.1-.6-.3-1.5-.1-1.7 8.1-5.6 6.6-15.1 7.4-22.6.9-9.1 4.7-17.2 6.4-25.9.9-4.6 4.8-8 5.3-12.9.2-1.5 1.3-2.4 2.7-2.4 1.8 0 1.9 1.5 2.1 2.8.4 2.9.9 5.9 1.3 8.8.1 1 .5 1.8 1.5 1.8 1 .1 1.7-.6 1.9-1.6.8-6.6 6-11.5 6.8-18.1.4-3.1 2.7-5.7 5-6.6 5.1-1.9 8.2-6.8 12.2-8.9 7.3-3.9 7.9-11.3 12.6-16.1 7-7.3 4.7-17.3 8.7-25.3 5.9-11.8 12.5-22.4 25.7-28.2 6.4-2.8 11.8-7.4 19.3-7.5 3.8 0 5.1 1.8 6.9 4.7 2.2 3.6-.7 3.8-2 5.2-6.1 6.4-14.3 9.8-21.5 14.7-3.2 2.2-7 3.4-6.7 8.4.3 3.6-3.3 3.6-5.3 5.2-3.2 2.5-9.4 5.6-6.8 9.1 3 4 6.3-2.4 9.1-4.4 2.2-1.6 4.2-2.7 6.9-3.3 4-.9 8.3-1.5 10.2-6.3.8-1.9 3.2-3.2 5.5-3.2 12.7.2 20.4-8.3 29.3-15.6 7.7-6.3 10.9-16.3 19.8-21.2 1.6-.9 3.4-3.6 4.4-1.6 1.2 2.2 6.5 3.4 3.1 7.4-2.7 3.1.9 7.5-2.7 10.7-1.1 1.1 3.3.5 4.2 2.7 2 5.2 5.7 5.8 9 .8 3.5-5.1 9.2-6.6 13.8-9.9 1.5-1 4.1-1.6 5.4.4 1.4 2.1.2 3.9-1.2 5.9-4.9 7-13 10-19.5 14.7-3.4 2.4-6 5.6-7.4 8.4-2.2 4.5-6.9 4.4-9.5 7.6-.9 1.1-3 1.1-4.2-.4-1.1-1.4.1-2.1 1.2-3.1 1.3-1.1 1.8-3 3-4.2 3-3 .8-5.2-1.4-6.4-3.6-2-7.2-.6-10.8 1-3.5 1.6-.7 4-1.2 5.8-1.6 5.9 1.6 12.7-3.4 18-1 1.1-1.2 2.9-3.1 2.6-2.9-.4-.7-2.3-1-3.4-.5-1.9-1.3-3.7-.6-5.8 1.7-4.8-.5-6.8-5.1-7.1-2.1-.1-4-.1-2.9-3.4.6-1.9-1.2-3.1-3.3-3.3-1.8-.1-4.1-.6-4.6 1.5-1.8 7.3-9.5 7.4-13.6 11.9-2.5 2.8-6.9 3.5-8.1 8.1-.8 3-4.4 2.4-7 2.7-7.8.9-13.5 4.7-16.5 11.9-1.7 4.2-5.1.8-7.6 2.3 2.6 2.5 5.3 4.2 8.2 5.7 12 5.9 17.6 17.3 14.7 30.5-.7 3.3.5 7.1-2.5 10-1.3 1.3-2 4-4.5 2.7-1.8-1-3.8-2-3.4-5 1-6.4-.1-12.8-.2-19.2-.1-4.2-2.3-5.3-5.7-5.6-7.4-.7-15.3 3.8-17.8 11.5-1.9 5.7-3 10.6-10.3 5.7-.7-.5-2.7-.4-3.2.2-5 6.2-16.1 7.3-16.6 16.6-.3 6.8-6.8 11.4-4.5 18.9.7 2.4-4.2 3.8-6.9 3.6 3.4 2.3 6.5 3.3 5.1 10.4-2.3 11.3-8.1 21.9-7.5 33.9.1 1.6-1.3 4.2-2.8 6.3-2.5 3.4-3.1 7.4.7 11.2 3.4 3.4 2.5 7.4 1.3 12.1-1.2 4.8-7.2 7.4-5.2 13.2.5 1.5-1.6 1.7-2.8 2.1-2.1.6-3.7-.3-4.1-2.3-.5-2.7-1.4-4.6-4.6-4.4-3.4.2-2.7 1.9-2.4 4.5.3 2.4-3.7.7-4.5 2.9 3.3 5 5 11.2 6 16.6.5 3.1.1 10.5-5.1 13.9-2.2 1.4-3.7 4.3-1.6 6 1.9 1.6 4.9 0 6-2.4 2.1-4.6 5.3-6.1 10.1-5.5 1.9.2 4.3-.1 3.7-3.2-1.1-5.4.8-10.6 1.4-15.9.4-3.3 1.9-5.9 4.4-8.4 5.1-5 10.3-10.6 11.5-17.7 1.7-10.1 5.9-19.9 4.9-30.5-1.9-19.9 7.4-35.4 19.9-49.6 3-3.4 7.3-.7 11.1-3-2.7-3.5-6.3-7-2.4-11.8.6-.8-1.2-2.8 1.1-3.1 1.7-.3 2.8.5 3.7 2.1 4.1 6.8 17 7.3 22.4 1 4-4.7 9.1-5.6 12.4-2.3 3.1 3.1 3.2 5.6-1 7.7-4.7 2.3-9.3 5.4-14.3 6.7-5.2 1.3-7 6.3-11.5 8.3-2 .9-1.9 3.4 1 4.3 4.2 1.3 8.4 2.8 12.7 3.7 4.2.8 5.7 3.4 5.1 7.1-.7 4.3-4.4 2.9-7 2.8-7.3-.4-14.3-3-21.8-2.7-5.5.2-8.6 2.4-9 8.2-.7 11.4-.2 22.8 1.3 34 .8 6 4.4 7.2 9.4 3.3 4.1-3.2 7.1-7.4 11.7-10.1 1.6-.9 2.9-2.3 4.7-1.2 2 1.3-.1 2.7-.1 4-.5 10.9-7.8 16.8-16.1 21.8-2.3 1.4-4.4 3.7-3.7 5.6 1.1 2.9 4.6 3.1 7.5 2.2 2-.6 4.5-3.2 5.7-.4 1 2.3 1.7 6.4-.6 8.1-6.5 4.7-7.5 13.6-13.6 17.9-6 4.2-8.5 10.7-13.4 15.5-4 3.9-8 4.5-12.4 1-2.3-1.8-4.5-3.5-7.6-3.7-3.9-.3-6.7.6-6.1 5.2.2 1.7-.1 3.3-1 4.4-3.1 3.8-2.7 7.7-.5 11.5 3.6 6.1-1.9 8.9-4.3 12.8-.7 1.1-2.6 2.1-2.5 2.9 1.1 7.5-5.8 12-6.7 18.9-.4 3.1-4 5.8-6 8.7-2.8 4.1-5.2 8.2-2.4 13.4 1.5 2.9 0 6-.5 8.9-.5 2.9-3.4 2.8-6 2.5-3.3-.3-4-2.6-4-5.1 0-5.3 1.4-11-4-14.9-.3-.2-.7-.9-.5-1.1 2.2-3.7.9-6.4-3.1-5.9s-7.7 2.4-8.4 7.8c-1.6 13.4-1.6 27.1-7.7 39.7-.9 1.9-1.4 5-.2 7.6 1.6 3.5 2.6 6.8.5 11.1-1.3 2.6 2.1 6.5 3.3 9.5 2.3 6.1 1.3 12.5 3.5 18.4 1 2.6 1 5.5 3.3 7.5 1 .8 2.5 1.5 1.8 3.1-.7 1.7-2.4 1.8-4 1.7-.9 0-1.8-.2-2.6-.3-3.6-.3-8.2-2.6-9.9 2.3-1.4 4.2-1.1 8.3 1.9 13 4 6.4 7.6 12.4 14.3 16.3 3 1.8 6.8 1.7 9.4 4.7 2.1 2.5 6 2.6 8.5 5 2.9 2.7-2.8 5.3.7 8.5 2.1 1.9-1.5 3.6-3.7 3.6-4.9-.2-9.7-.7-14.6-1.2-.6-.1-1.7-.4-1.7-.8-1.4-8.6-10.7-10.6-14.5-17.2-.7-1.3-2.1-2.3-3.3-3.1-8.3-5.8-9.9-9.6-5.4-18.5 1.6-3.2-1.1-7.9 3.6-10 .6-.3-.7-2.7-2.7-2.7h-6.2c.7-8.4 1.3-16 1.4-23.8.1-7.1-1.9-15 3-21.5 1.7-2.3 2.5-4.8 2.3-7.4-.8-8.7 3.6-16.2 6.4-23.8 1.4-3.8-2.8-7.6 1.4-10.5 3.3-2.4 3.1-6 3.8-9.8 1.1-6.7-2.6-5-6-4.8-2.2.1-3.2 2.4-4.9 3.1-3.2 1.2-6.8 6.5-9.8-.7-1-2.3-7.2.8-8.8 3.9-3.6 6.9-5.8 14.3-7.6 21.8-.1.4-.6.9-.5 1.2 1.9 6.3-.9 12.6-.3 18.8 1.1 10-.3 20.4 1.6 29.9 1.5 7.8 1.8 15.9 4.6 23.7 2.3 6.3.9 13.8 1.4 20.8.5 5.3-2.4 10.6.2 15.9.5 1 1 3.9-1.4 4.4-2.7.6-2.6-1.9-2.9-3.4-1.6-9.9-1.4-19.9-5.4-29.7-2.1-5.1 0-12.2-1.1-18.4-1.5-8.1-1.7-16.3-2.6-24.4-.9-7.9-.3-15.7-.9-23.5-.6-9 2.1-17.1 3-25.6.8-7.8 4.4-15.8 10-21.4 7-7 9.9-15 9.7-24-.1-6.7 2.6-12.5 3.4-18.9.9-7.3 6.1-13.6 6.1-21.3 0-5.1 2-9.9.1-15.3-2.2-6.3-.3-13.2-.9-19.8-.4-4.9-3.9-11.2-9-11.2h-4c-2.4.1-3.9-1.4-4.4-3.3-.3-1.3.1-3.2 1.5-4.1 1.6-1 3.4-.8 5.1 0 2 .9 3.3 5.2 5.6 2.5 1.5-1.7 1.5-5.6.9-8.3-2-8.2-1.5-16.2 1.3-24.1.7-1.9 1.6-3.7 3.5-4.7 5.1-2.6 8.2-5.8 7.3-12.5-.4-3.4 2.2-8.3 4.4-10.3 7.1-6.7 8.6-17.2 16.9-22.8 3-2 .3-5.5 1.7-8.1 6-11.5 6.9-25.1 13.8-36.2 1.5-2.4.1-3.2-1.5-4-.7-.4-1.8-.8-2.6-.6-9.4 2.2-19.7 2.6-27.4 9.2-7.8 6.7-11.4 15.5-11.3 26.2.1 8.6-2.5 17.2-.8 25.9.4 1.9-1.7 2-2.8 1.7-2-.5-4-1.7-3.2-4.1 2.3-6.4.3-13.1.3-19.4 0-7.7 1.4-14.6 3.7-21.6 2.6-7.8 8.2-12.8 14.2-18 7.2-6.2 15.4-9 24.3-10.5 3.8-.7 5-3.5 4.5-6.3-2.1-10.6-2.4-21.3-3.1-32-.6-9.4-1.1-18.5 2.6-28.1 2.2-5.8 4.6-12.3 6.7-18.4 2.9-8.4 7.6-17.3 16.8-21.5 3.7-1.7 4.3-6 8.4-8 6-2.9 12.3-4.6 18.5-6.9 2.5-.9 5.6-1.4 7.1-3.3 4.6-5.7 11.1-5.7 17-5.7 12.1 0 24.7-.7 36.3 2 8.8 2.1 18.3 5.1 25.7 11.9 2.9 2.6 7.1 4.8 10.9 5.8 2.9.8 6.8-1.5 9.5-3.9 3.8-3.5 8.3-4.6 13.5-5.4 14.1-2.1 27.7-6.4 41-12.1 11.1-4.7 23.3-7.9 35.4-7.6 10.6.2 21.1 3.3 31.6 5.2 1.5.3 3.5.6 3.3 2.5-.2 2.1-2.4 1.6-3.8 1.6-12.6 0-25.2 1.2-37.7 2.7-8.7 1-16.1 6.6-25 7.5-8.4.9-15.3 6.8-23.7 7.8-2.2.3-3.3 2.1-4.8 3.2-2.8 2.1-5.5 3.5-9.2 4.2-6.9 1.4-13.2 5-17.7 10.9-1.7 2.2-3.7 3.9-6.5 4.4-2.8.4-5.3 1-5.9 4.2-.4 1.8-1.7 2-3 1.7-2-.4-1.8-2.2-2.2-3.7-.5-2.1 3.8-3.7 1-5.8-3.1-2.3-6.1-4.8-10.4-5.6-9.7-1.8-19-5.9-29.2-5.2-.8.5-1.4-.4-2.5-1.3zM214.5 460.9c-1.8-6.3-1.5-13-2.9-19.4-.6-2.4-2.9-2.9-5.4-2-3.2 1.1-1.5 2.7-1 4.6.9 3.7 1.7 7.3.2 11.3-1.4 3.7-3.3 9.8-1.6 11.6 7.4 7.7-.7 5.4-3.5 6.2-1.7.5-2 1.6-2.4 2.8-.6 1.5.7 2 1.7 2.1 6.3.5 2.5 4.3 2.6 7.1 0 1.6-2.3.7-1.8 3 2.1 10.2 2.5 20.4 2.6 30.9.1 11.1-4.6 19.1-10.6 27.2-.9 1.2-1.7 9-.6 9.1 4.8.6 9.6 1.1 14.1 3.1 1.7.7 2.4-1.1 3.4-2.3 7.9-9.1 5.2-20.4 3.7-29.9-1.6-9.9-.1-17.7 5.5-24.8 6.2-7.9 2.4-15.7 1.1-23.4-1.1-5.9-3.4-11.5-5.1-17.2zm68.1 33.7c1.2-.2 3.3.7 3.6-1.5 1.3-7.5 7.5-12.3 10.3-19 .8-1.8 3.7-2.9 1.2-5.5-2.3-2.3-3.7-5.9-7.9-4.6-3 .9-5.9 2-8.9 2.8-7.6 2.1-9.6 9.1-12 15.1-1.4 3.5 3.2 5.3 6.3 6.8.5.2.8 1.1.9 1.7.3 4.1 3.2 4.3 6.5 4.2zm-34 36.8c.8-2.6-.8-4.3-2.7-5.3-3.6-1.9-8-.8-9.6 2-4.3 7.2-11.3 13-11.7 22.4-.2 4.3 2.1 6.5 4.9 7.6 3.1 1.1 7.8-2.3 7.7-3.6-.6-5.4 3.8-7.2 6.2-9.6 4.1-3.9 4.4-8.6 5.2-13.5zm32.2-82.6c4.3 0 6.1-3.4 7.3-6.7.6-1.7-1.2-2.6-3-2.4-4.2.4-5.4 3.7-6.4 6.9-.4 1.3-.1 2.7 2.1 2.2zm-29.7-54.5c-2.2-.9-3.9-1-5.6-.4-2.5.9-3.5 3.3-3.3 5.6.1 1.2 1.6 3.6 3.6 3.1 2.3-.6 2.2-2.4 1.7-4.6-.5-2.3 2.3-2.1 3.6-3.7zM439.9 743.2c5.1 6.5 12.5 8.6 19 12.2 6.2 3.5 13.8 4.1 19.1 9.6 1.2 1.2 3.7 1.3 5.6 1.9 2.4.6 5.3 1.5 6.9-.7 1.6-2.3-.5-4.4-2.3-6.2-1.1-1.2-2.9-2.7-1.4-4.6 1.5-1.8 3.3-.1 4.9.2 2 .3 3.2 1.5 3.7 3.4 2.4 8 8.5 9.5 16 9.9 7.8.4 14.9 3.1 21.2 8.3 7.3 6.1 16.4 3.8 24.9 3.6 1.5 0 2.9-.9 4.6-.3.2 3.9-1.7 5.8-5.5 6.7-14.5 3.5-28.1 2.7-41.6-4.6-9.1-4.9-18.9-5.7-28.2 1-6.2 4.5-12.5.2-18.5-.9-5.2-.9-10.3-2.2-15.5-2.8-1.5-.2-3.7.2-3.7-1.8 0-2.1 2.3-2.3 4-2.6h.7c2.4-.3 6.6 1.7 6.8-1.7.2-4.8-4.6-2.5-7.3-3-4.3-.8-8.7-1.3-13.1-1.8-1.2-.1-2.9-.4-3.2 1.4-.2 1.2 1 1.8 2 2.4 1.4.8 4.2.2 3.5 3-.7 2.8-3.2 2.7-5.4 2.5-10.3-.9-20.7-1.9-31-2.9-7.7-.7-15.5-.6-23-2.3-12.3-2.8-25.5-4.4-35.1-17.4 15.2 3.5 26.5 14.7 41.7 11.9-2-6.7-9.4-8.9-12.2-15.2-3.3-7.4-11.8-12.3-10.3-22.1.3-1.9-2-2-3.4-2.5-7.6-2.7-14.8-5.7-19.6-13.2-1.8-2.9-6.6-3-9.9-1.7-9.4 3.5-15.3.2-21.6-7.2-4.5-5.3-11.4-8.7-13.7-16.1-2.5-7.8-9.1-14.5-6.6-23.6.6-2.3-1.7-2.8-2.3-4.4-.9-2.7-2.1-4.2.8-6.8 3.2-2.9.5-7.7 1.3-11.6.7-3.6-.6-7.4 1.1-11 .6-1.3.9-2.7 2.6-2.5 2 .3 2.2 1.8 2 3.5-.4 3.3-1 6.6.1 9.9.5 1.4.9 3.3 2.9 3 1.6-.2 2.6-1.2 2.7-3.2.3-7 5.8-12.2 6.5-19.3.3-2.8 17.2-6.7 20.7-4.7-11.7 6.3-15.5 16.8-16.6 28.9-.5 5.4-1.8 10.7-3.8 15.9-1.1 2.9-3.6 7.8.6 10.1 3.6 1.9 8.5 2.1 12.2-.2 7.5-4.6 15.7-6.4 24.3-6.2 10.8.1 21.5 2.4 32.4 1.4 3.2-.3 5.9-1.7 9-2 1.4-.1 3.2-.5 4.1 1.3.7 1.5-.7 2.3-1.4 3.4-1 1.9-4.9 3.2-2.5 5.8 2.1 2.2 5.4 1.3 8.2.4 6-1.9 7.7-8.2 12.3-11.8 4.5-3.5 9.3-4.7 14.2-5.7 10.1-2.1 20.8-.2 30.8-3.9 2.1-.8 4.9-.8 5.4 2.1.5 2.8-2.8 2.7-4.2 3-7.5 1.5-15.1 2.5-22.7 3.6-4.6.7-9.3.8-13.8 1.9-6.4 1.6-10.5 6.4-11.4 12.6-.4 2.8-1.8 2.5-3 3.1-7.6 3.8-10.2 10.7-11.5 18.3-.3 1.6-.9 2.8-1.5 4.2-3.3 6.9-3 13.5 2.5 19.2.6.6 2.1.9 3 .7 7.6-1.3 12.8 2.1 17.4 7.9 2.6 3.4 6.4 3.4 8.5-.8 2.6-5.3 7.4-9.7 6.8-16.5-.2-2.8 3.4-4.2 5-6.1 3.2-3.9 4.1-10.1 9.6-11.8 4.8-1.4 3.8-6.2 6.2-9 8.6-10.4 17.4-20.3 30.7-25 3.8-1.3 8-2.6 10.5-6.5.6-1 2.4-1.6 3.5-.5 1.5 1.6 0 2.5-1 3.7-4.3 5.5-10.5 7.8-16.7 9.9-2 .7-4.2 1.6-4.1 3.7.1 3 3 2 4.7 2 4.3 0 7.2 3.3 11 4.2 10.5 2.6 21 1.8 31.6.7 10.1-1.1 13.5-9.1 18.1-16 1-1.5-.5-3.3-1.4-4.8-4.9-7.7-3.4-15.8 4.4-20.7 4.7-3 9.2-6.3 14.9-7.7 5.7-1.4 6-3.7 2-8-.9-1-2-2.1-1.3-3.5.8-1.5 2.3-.9 3.5-.6 11.1 2.8 11.2 2.7 14.6-8.3.4-1.2 1.1-1.9 2.3-2.1 1.2-.2 2.2.2 2.9 1.2 1 1.4 1.3 2.8-.1 4.2-4.1 3.9-1.2 4.9 2.3 5.8 9.3 2.4 17.5 7.3 25.5 12.3 1.8 1.2 3.6 2.3 5.4 1 2.1-1.5 1.1-3.7.6-5.8-3.9-15.1-5.5-30.3-1.6-45.6.3-1.1.8-2.1 1.3-3 .2-.3.7-.3 1.4-.6 3.1 6.3-1.4 12.1-1.2 18.1 0 1.4-1 3.2.2 4.2 6.9 5.7 3.7 14 4.6 20.9 1.1 8.8 3.7 17.4 3.6 26.4 0 4.3 1 8.7 1.1 13 0 2.2 0 3.8 2.3 4.8 2.8 1.2 3.5-1.4 4.7-2.6 4.1-4.3 4.6-10.8 4.9-15.7.4-7.5 3.1-14.3 4.7-21.2 2.2-9.3-.4-17.8-1.4-26.5-.4-3.8-4.6-2.4-7.3-3-2.8-.7-7.5 1.5-7.9-2.3-.5-4.1 3.5-6 7.7-6.6 3.1-.4 6.4-6.7 5.7-10.7-.2-1.2-1.5-2.4-.2-3.6 5.7-5.6 4.1-13.7 7.3-20.3 3.9-8.1 9.9-14.7 14.7-22.2.7-1.1 2.3-1.4 3.5-.3 1.1 1 .4 1.7-.4 2.7-9.6 12.3-16.1 25.9-16.7 41.8-.1 1.8.4 2.3 1.7 2.8 4.3 1.8 8.7 3.7 13.5 2.5 8.2-2 16.8-1 24.7-4 1.2-.5 2.1-.2 2.9.7 1 1.2.5 2.1.1 3.5-1.9 6.3-7 8.6-12.6 8.7-7.4.2-14.1 3-21.3 3.6-6.6.5-6.9 4.1-8.5 10.5-1.7 6.8 3.7 13.2-.8 19.7-1.4 2 3.3 5.3 0 8.4-.4.4 1.3 2.6 3.2 2.6 2.5 0 3.7-1.4 3.8-3.7.8-9.9 2.3-11.5 12.4-13.2 1.8-.3 4.2-.3 4.6-2 1.1-4.1 4.7-4 7.5-5 .8-1.5-.6-2.1-1-2.9-.9-1.6-4.1-2.3-2.8-4.6 1.2-2.1 3.9-1.8 6.1-1.5 5.7.7 9.2 3.7 8.3 9.7-.7 4.8 2.2 9 .4 14.4-2.4 7-7.4 9-12.9 11.3-2 .8-4.4.9-6.1 3.2 2.5 2.5 4.9 1.2 7.5.2 2.1-.8 4.4-1.9 6.3 1.2 1.7 2.8 1.5 4.8-.6 7.1-1.4 1.6-2.6 3-3 5.5-.6 3.7-4 2.5-6.4 1.5-2.5-1.1-4.1-.7-5.4 1.9-1.7 3.4 1.4 4 2.9 4.8 2.2 1 4.4 1.8 5.8 4-7.4 3.4-11 8.7-10.4 16.5.5 6.4-1.9 12.9.3 19.2 4.3 12.1-6.5 16.8-11.3 24.5-7.2 11.5-18.9 17.2-30.6 22-6.5 2.7-14.3 3.2-21.6.8-2.3-.8-3.7-.5-5.9.8-4.3 2.4-9.1 4.4-12.5-1.8-1.6-2.9-4.4-2.5-6.3-1-3.4 2.6-7.6 3-9.1 9.5-2.6 10.8-18.8 12-25.2 2.8-1.3-1.9 0-2.4 1.3-3.6 5.9-5.6 5.4-7.8-2.3-10.7-1.9-.7-3.8-1.2-5.5-2.2-4.1-2.3-6.9-1.5-10 2.4-5 6.4-11.5 10.8-20.2 10.5-2.4-.1-4.7-.7-5-3.4-.2-2.5 2.5-2.5 3.8-3.6 8.3-7.4 18.9-10.9 28-17 2.7-1.8 5.5-2.1 5.7.7.6 7.6 7.2 6.9 11.4 8.9 4.4 2.1 7.8-2.2 6.2-7.3-1.5-5-1.4-9.9-.6-14.9.2-1.2-.6-2.9 1.2-3.3 1.8-.4 2.3 1.2 2.5 2.4 1 5.8 4.6 11.2 2.4 17.4-.6 1.7.7 2.4 1.9 2.9 1.3.5 2.7.5 3.8-.5 1.4-1.2.8-2.4-.5-3.2-2.5-1.5-.8-1.9.1-3.6 2-3.8 1.9-8.5.9-12.6-.5-2.2.3-3.7.4-5.5.2-3.1 2.1-3.1 4.1-2.6 2.1.5 2.8 2 2 4.1-1.1 2.8-3.1 5.7.8 8.1.7.4.9 1.8 0 2.3-4.9 2.6-.5 7.5-2.6 11.1-1 1.8 3 4.1 5.8 3.8 2.9-.4 6.3.5 7.9-4 2.5-7.1-2.4-12.9-1.9-19.4.3-4.4-1.3-8.8.9-13.1 1.3-2.5 3.5-3.1 4.2-.7 1.3 4.1 4.8 7.4 3.9 12.4-.7 3.9-1 8.2 3.1 11.2 1.8 1.3 1.3 3.5 1 5.6-.5 4.1 1.7 6.2 5.6 6.6 7.3.8 13-3.1 14-10.4 1.4-9.5 4-19 1.4-28.6-.9-3.3 3.1-5.1 1.4-8.4-.4-.7 2.2-1.9 3.8-1.1 1.2.5 2.5 1.2 1.9 2.9-3.5 9.9-.5 20.3-2.2 30.5-1.2 7.1 3.8 9 11.2 6.9 11.5-3.3 16.7-11.5 19.1-22.3 2-8.9 1.9-10-2.9-16.3-1.7-2.2-3.4-3.8-2-7 1.5-3.4 4.1-1.5 6.3-1.9 1.5-.2 3.5.3 4.2-1.4.9-2.1-.5-4.1-1.9-5.2-5.6-4.5-8.8-9.3-5.3-16.9 1.5-3.2-4.8-7.5.8-10.7-1.4-1.8-3-3.2-5.4-3.5-2.9-.4-4.6 1.4-4.5 3.7.3 7.5-6 12.4-7.1 19.4-.3 1.8-3.7 2.7-4.3 2.1-3.8-3.5-7.7-1.9-11.8-1.4-3.2.4-5.2-1.5-5.6-5.2-.8-6.5-4.3-12.6-5.3-18.8-1.8-11.7-11.2-12.2-18.8-15.5-8.8-3.8-17.4-2-25.4 2.3-8.4 4.6-17.9 7.2-24.5 14.9-1.6 1.8-3.8 2.8-2.2 6 1.7 3.2 3.9 3.2 6.6 2.2 1.9-.7 3.6-1.6 5.5-2.3 3.9-1.4 6 .7 5 4.1-1.1 3.8 1 4.5 3.1 6.7 5 5 6.8 12.1 9.4 18.5.1.4-.2.9-.2 1.3.1 2.4 4.9 5.9-1 7-4.3.8-4.8-1.8-4.3-5.8.1-1.1-2.4-6.3-6.5-5.8-4.7.5-3 4.7-2.7 6.8.5 3.9-.9 6.9-2.4 10.1-.9 2.1-2.9 1.8-4.6 1.3-2.2-.7-2.8-2.8-1.6-4.2 3.4-3.9.7-9.3 3.7-13.1.7-.9.4-1.7-.6-2.1-2.2-.8-4.2-1-6.2.8-2.9 2.7-6.6 4.9-9.1 7.4-5 5.2-11 5-16.9 6.1-2.2.4-4.4.8-6.5 1.2-2.4.4-2.8 1.3-1.8 3.6 3.3 7.7 8.2 14.3 13.4 20.7 1 1.3 3.5 2.1 1.5 4.1-1.8 1.9-4.1 1.7-5.7-.5-3.7-5.1-8.5-9.8-10.6-15.5-4.5-11.9-14.5-19.1-27.7-18-1.5.1-3.1.4-4.6.4-7.8-.4-10.3 2.3-9.9 9.8.5 11.2 3.7 21.2 8.3 31.6 3.1 6.9 7.1 12 11.8 17.2 1.4 1.6 1.7 3.3.4 4.8-1.5 1.7-3.5.8-4.7-.5-3.7-4-7-8.4-10.7-12.3-3.5-3.7-6.1-7.9-7.9-12.6-1-2.7-2.7-3.4-5.1-2.9-2.7.6-2.2 2.8-2.1 4.8 0 3.6 1.7 8.3-4.9 7.8-.9 4.4-5.4 5.3-9.2 7.4zm-83.6-64.7c-10.9 1.3-21.4 1.6-31.5 4.4-2.9.8-7.7 1.5-7.3 5.3.4 3.8 4.9 3.9 8.2 3.7 6.6-.5 13.2-1.2 19.7-2 2.6-.3 5.1-.9 6-4.2 1.2-4.8 3-3 5-.3 3.1 4.1 2 8.7 1.9 13.2-.2 5.5-.5 11.1 6.3 13.3 2.4.8 3.5 3.1 5 5.1 2.6 3.5 7.1 4.3 9.8 1.5 2.5-2.7 4.9-7.6 4.2-10.9-1.5-7.2 2.5-11.6 5.9-16.4 1.7-2.4.5-5.3 2.4-7.3-5.1-.2-9.2-4.6-13.7-4.5-7.6.1-15 1-21.9-.9zm37.3 78.9c-1.7-15.8-6.9-20.3-18.7-16.8 7.2 4.3 9.3 14.5 18.7 16.8zm22.4-14.9c5.6 1 9.2 7.1 16.7 5.6-5.6-3.5-9.5-8.7-16.7-5.6zm-11.3 9.3c3 2.2 5.2 4 7.6 5.5.8.5 2.2.9 3-.2.3-.4.4-1.6.2-1.8-2.9-1.9-4.9-6.6-10.8-3.5z"/><path d="M235 799.7c-1.6-6.2-6.9-9.8-10.6-14.5-1.3-1.7-3.5-3.3-4.7-5.3-7.1-11.3-15-22.4-20.9-34.3-4.3-8.7-6.1-18.7-8.9-28.1-.5-1.8.3-3.3 1.8-3.8 2.4-.7 1.9 1.2 2.3 2.8 1.4 5.7 7.4 8.7 8.8 14.7.8 3.2 1.7 7 6 8.2 1.1.3 3.2 1.7 1.6 4.1-.7 1-1 2.7.9 3.1 6.2 1.4 7.5 7.6 10.4 11.7 5 7.1 8.8 14.9 15 21.3 2.4 2.4 3.4 6.4 4.3 9.9.9 3.5 2.8 5.3 6 4.7 8.8-1.5 17.6 0 26.3.1 2.9 0 4.3-.8 5.2-4.3 1.9-6.7 4.7-13.2 8.5-19.4 3-4.8 4.6-10.5 6.3-16 .8-2.5-1.7-4.1-3.5-5.8-6.9-6.3-13.9-12.6-19.1-20.6-3.6-5.7-7.4-11.7-16.1-10.1-4.8.9-5.3-3-5.8-6.7-.5-3.5-.3-6.4 3.9-7 5.3-.8 2.9-3.7 1.6-5.9-5.2-8.3-9.1-17.2-11.3-26.8-1-4.5-4.2-8-7-10.9-5.5-5.7-8.6-12.3-10.6-19.4-1.2-4.3-1.8-9.1-2.3-13.7-.5-3.8.4-7.7-2.3-11.3-.8-1.1-1.5-3.6.7-4.6 2.1-.9 2.8 1 4 2.2 5 4.8 6.6 11.8 11.2 16.8 2.6 2.8.1 4.5-2.6 4.6-4.3.2-4.1 2.5-3 5.4 2.3 6 5.9 10.5 13.2 9.6 4.3-.5 6.8 1.3 7.8 5.4.3 1.3.6 2.6 1.9 3.3 4.7 2.7 3.1 9.1 7.2 12.3 2.1 1.6 0 2.9-1.6 3.9-1.6.9-6-.2-4.1 3.2 1.9 3.6-1.3 9.8 5.8 11 7.3 1.2 14.6 2.8 21 6.7 1.1.7 2.4 1.3 3.3 2.2 3.5 3.1 3.1 7.8-.7 10.3-.7.5-1.3 1.1-2.1 1.6-12.5 6.7-12.7 7.8-3.6 19 5.8 7.2 12.7 12.1 22.1 14.5 5.1 1.3 2.3 8.1 4.5 12 .5.9-.5 3.1.7 4.8 2.3 3.3-.3 3.2-2.4 3-5.7-.8-13.3 3.8-13.4 9.7-.2 7.3-3.9 13.4-5.9 20-1 3.3-.8 5 1.8 7.2 4.8 4.1 10.3 6.7 15.6 9.8 7.6 4.5 16.3 5.8 24 10.4 7.6 4.5 15.5 1.3 22.8-3.5 10-6.7 19.6-13.6 31.3-18 8.3-3.1 15.6-5.1 24.5-3.8 8 1.2 16.4.1 24.6.4 5.3.2 8.5-4.3 13.6-4.9 3.6-.4 6.6-1.4 9.5 2.1 2.7 3.3 7.4 2.9 11.2 3.4 11.9 1.8 22.2 8.2 33.8 11.2 13.1 3.5 26 3.4 38.7 0 5.2-1.4 8.7-7.1 14.3-8.5 8.4-2.1 14.3-9 22.4-11.7 3.9-1.3 1.9-3.7.4-5.7-4.2-5.5-3.6-7.7 3.1-9.3 3.6-.9 6.5-2.5 9.7-4.5 6.8-4.2 14.6-6.7 22.1-9.6 1.9-.7 4.1-.4 5 1.9.9 2.3 1.9 4.7-1 6.4-.9.5-2.2 1.1-1.8 2.4.5 1.4 2 1.9 3.3 1.7 7.6-1.1 15.5-1.1 22.8-3.6 2.7-.9 3.8-2.1 1.4-5.2-1.3-1.7-2.8-6.1 1.6-7.4 7.6-2.3 12.3-8.4 18.2-12.8 1.9-1.4 4-1.8 6-2.5 3.2-1.1 6.3-1.9 4.5-6.8-1.3-3.7 2.3-6.3 3.8-9.4 2-4.3 6.2-8.6-.4-12.6 2.7-2.4-1.5-5 .2-7.1 2.8-3.7 3.1-8.4 5.1-12.5 2.2-4.4 3.8-4 5.8-1 2.4 3.6 5 6.6 4 12.4-1.6 9.7-5.3 18.4-8.3 27.4-.4 1.3.1 3 .4 4.5.3 1.4 1.5 2.9-.2 4.2-4.5 3.4-4.2 9.3-7.4 13.5-2.5 3.3-3.5 7.6-8.7 7.8-.7 0-1.8 1-1.9 1.6-1.4 6.5-7.1 7.1-12 8.8-4.4 1.6-8.6 3.5-11.4 7.5-1.5 2.2-3.6 3-6.1 3.6-3.8.9-7.6.7-11.2-.4-13.2-3.8-21.3 2.2-27.1 13.8 6.7 1.8 13 4.7 20.3 4.3-.4 1.2-.4 1.9-.6 1.9-12.4 2.2-20.8 12-32 16.7-3.7 1.6-6.8 7-10.8 10.3-13.5 11.2-29.1 15-45.5 11.3-8-1.8-15.3-7.3-23.5-9.8-7-2.2-14-3.8-21.3-4.3-9.4-.7-19-1.3-28-5-.4-.2-.9-.5-1.2-.4-17.1 2.5-32-7.6-48.4-8.5-14.1-.8-29-2.3-41.4 7-3.7 2.8-7 6.2-10.7 9.1-5.6 4.3-11.6 6-18.7 4.5-10.2-2.2-20.6-4.6-29.2-10.2-5.7-3.7-10.8-7.9-17.4-10-5.3-1.7-10.2-2-14.3 1.9-5.3 5-11.5 4.9-17.8 4-5.8-.8-10.8-.7-13.4 5.7-2.1 5.2-7.6 6-11.5 9-3.6 2.7-5.8-1.9-8.6-3-1.4-.6-2.2-2.5-1.4-4 1.4-2.9 4.3-3.2 6.9-2.4 5.5 1.6 7-3.2 9.2-6 1-1.2 1.3-5-2.3-6.3-10.4-3.5-19.6-9.9-27.4-16.9-6.8-6.1-17.1-9.5-19.4-20.3-.8-3.5-5.2-4.7-6.4-8.6-4.3-13.8-10.9-27.1-6.5-42.2.5-1.6-.1-4 2.7-3.7 2.8.2 2.1 2.8 2 4.1-.7 6.8 4.1 11.8 5.6 17.8 2.2 8.6 7.7 16.2 12.9 22.2 5.4 6.2 7.7 16.9 18.6 17.8 1.5.1 2.2 1.8 3 3.3 2.4 4.5 14.6 14 19.1 15.1-2.6 1.3-2.2 3-.6 4.7 4.6 5 19.5 7.6 26.5 4.1-8.6.5-14.8-4.8-21.9-8.1-1.4.1-2.8-.9-4.4.1zm347.4 11c-2.9-2-5-1.9-6.9-1.7-10.4 1.4-19.6 6.8-28 12.1-5.7 3.6-11.1 5.4-17.2 6.6-1 .2-2.4-.2-2.6 1.3-.2 1.7 1.3 2.4 2.5 2.5 1.9.3 4 .3 5.9 0 11.2-1.9 22.8-2 31.3-11.8 3.5-4.2 9-6.5 15-9zm-153.2-2c6.6 2.1 14 2.2 20.4.7-8.2-1.9-12.5-2.2-20.4-.7zM495.6 220.6c-9.2-3.1-14.9 2.8-21 6-5.8 3.1-12 6.1-15.3 12.9-1.6 3.3-6.3 1.3-8.3 0-3.5-2.3 1.2-3.2 2-4.7 2.5-4.7 7.5-7.3 11.2-11.1 5.1-5.4 2.1-8.7-.2-12.9-.9-1.7-3.1-2.9-2.5-5.1.4-1.3 2-1.6 3.4-1.5 2.8.2 2.4 2.4 3.1 4.2 2.1 5.9 5.3 6.4 11.4 5.4 9.9-1.6 19.9-3.7 30.1-1.5 3.5.8 7 .2 10.6 0 5.5-.3 4.7-5.1 4.9-7.7.2-2.7-3.4-1.4-5.4-1.3-11.6.5-22.9-1.5-34.1-3.7-1.3-.2-3.4-.1-3.7-2.2-.3-2.1 1-3 2.7-4.1 7.5-5 16-4.9 24.4-4.4 3.8.2 7.5.4 11.3-.1 4.7-.5 8.3 1.3 10.6 5.8 1.4 2.7 4.2 4.3 2.7 8.6-.9 2.6 4 2.9 6.3 3.2 2.8.4 8.1 1.6 8.3-1.2.3-5.1 3.5-4.6 6.1-4.5 7.2.3 12.6-1.6 18.2-7 4-3.9 11.3-1.1 16.9.9 1.5.5 2.7 1.3 4.4 1.1 2-.2 2.7-1.8 3-3.1.5-2.1-1.4-2.5-3-2.5-4.4-.3-8.9-.7-13.3-.6-6.3.2-11.8-1.4-16.3-6.5 2.2-2.6 5.4-2.4 8.3-2.6 9.1-.6 18.1-.4 26.7 3.6 2.2 1 4.7 1.2 7.1 1.6 1.7.3 4.1 1 4.7-1 .9-2.9-2-2.8-3.8-3.2-3.9-.9-5.4-4.9-8.9-6.8-11.4-6.3-23.6-10.3-35.9-13.9-1-.3-2.7-.2-3.1.3-4.3 5.8-12.9 5.9-16.4 12.7-1.6 3.1-4.2 2.9-6.6.9-2.7-2.2-.4-3.7.8-5.5 5.9-8.3 13.4-13.9 23.7-14.6 7.4-.6 14.5 1.7 21.2 4.2 12.9 4.8 24.6 11.7 34.5 21.6 2.9 2.9 7.9 2.8 11.2-1 1.7-1.9 3.1-4.7 5.7-2.5 2.5 2.2-.1 3.8-2 4.9-1 .6-1.7 1.4-1.2 2.7.5 1.2 1.8 1.2 2.8 1.3 3.8.1 7.5 0 11.3 0 3.6 0 7.2 1.1 7.3 5 .1 3.7-3.7 2.9-6.2 3.1-1.8.2-3.9.4-3.9 2.7 0 2.4 2.5 2.9 3.9 2.5 12.4-3.6 18.8 5 26 12.3 3.4 3.3 7.8 5.6 10.8 9.4-.5.6-.9 1.2-1 1.1-10.4-3.8-20.8-.3-31.3-.2-1.7 0-3.9-.1-5.1.8-5.1 4-11.3 4.9-17.2 6.8-3.2 1-6.2 1.3-4.7 7 1.2 4.3.5 11.2 3.1 13.1 5.5 3.9 11 9.2 18.4 9.5 6.1.3 10.2 5.1 15.9 6.3 2.1.5 3.7 4.4 1.6 7.3-2.1 2.8-4.2 5.8-7.1 7.6-3.9 2.5-7.4 4.4-8.4 9.8-.6 3.5-4.7 3.5-7.1 1.8-3.1-2.1-6.3-3-9.8-3.4-1.6-.2-4-.2-3.7-2.7.2-2 1.3-4.1 3.8-3.8 7.9 1 11.9-7.2 19.4-8 4.4-.5 2.3-4.4-.4-6.1-6-3.8-12.6-5.2-19.7-4.6-2.6.2-4.5.6-6.4-2.7-2.4-4.3-15.9-3.4-16 .5-.1 4.7-1.9 8.9-2.2 13.3-.4 4.7-3 5.4-6.9 3.8-3.3-1.3-3.9-3.3-.7-5 5.3-2.9 5.3-9.1 3.6-11.7-2.7-4.3-4-12-12.8-10.2-4.5.9-9.5 2.2-14.2.1-.5-.2-1.7-.2-1.9.1-4.1 6.5-12.1 5.9-19.1 10.2 14.3 3.5 27.1 7 39.4 11.8 0 1.6-.9 2.2-1.6 2.1-10.1-1.2-20.4.6-30.5-1.5-11.4-2.3-23.2-2.3-34.6-5.7-4.4-1.3-10.7 1.8-15.7 3.5-8.5 2.8-17.5 4.2-25.8 7.9-3.9 1.7-6.6 5.8-11.4 5.9-1.7 0-3.8.8-4.6-1.3-.6-1.7.3-3.3 1.8-4.6 2.1-1.8 5-2.7 6.4-5.3-.5-.5-.8-1.2-1-1.1-9.1 1.4-17.9-2-26.9-1.3-2.6.2-4.4 1.8-3.3 3.6 2.2 3.6.4 8 2.4 11.2 3.5 5.5 1.1 10.1-2.2 13.7-2.9 3.2-5.8 6.4-8.5 9.9-8.7 11-20.1 14.8-33.8 12.4-6.1-1.1-13.8-1.5-16.3 4.2-3.1 7.1-9.7 10.5-13.4 16.7-2.6 4.5-6.9 8.4-14.6 4.9 4.1-1.5 5.6-3.8 7.3-6.6 2.6-4.2 6.8-7.3 10.5-10.7 1.5-1.4 2.7-2.8 3.3-4.8 3.2-9.3 10.5-15.5 17.5-21.7 2.6-2.3 5.7-4 7.4-7.2 1.9-3.6 5-5.7 8.1-8.2 7.8-6.3 15.3-13 22.3-20.2 3.2-3.3 6.4-5.9 10.7-7.3 6.1-2 12.3-4.1 16.6-9.3 2.2-2.7 5.4-1.1 8.1-1.8 7.1-1.8 14.2-4 21.4-4.8 14-1.5 27.5-1.1 37.7 11.2 4 4.8 16.2 2.5 19.4-3 1.8-3.1 4.9-2.4 7.4-3.2 8.9-2.9 18.3-2.8 27.5-3.8 5.5-.6 9.6-5.1 15.3-4.5-4.6-1-11.2-8.1-11.9-12.8-1.5-10.1-10.1-16.7-21.4-15.4 3.8 3.9 5.6 8.2 7.5 12.6 2 4.5.6 7.9.3 11.9-.1 1.2-.5 2.4-1.9 2.2-1.6-.2-2.6-1.5-2-2.8 2.8-6.3-2.1-10.9-3.7-16.1-.8-2.9-5.6-3.9-9-4.9-9-2.6-17.7-.1-25.8 3.4-3.7 1.6-3 5.4 0 8 2.1 1.8 4.9 3.8 2.5 6.2-2.9 3-5.1-.4-6.8-2.6-6.5-8.3-10.9-9.3-20.2-4.4-8.1 4.2-16.9 6-26 6.5-1.5.1-3.5.8-4-1.1-.5-1.8 1.4-2.6 2.8-3.1 5.9-2.4 11.2-5.2 16.7-9.5zm95.5-14.3c15.9 10.1 26 10 34 0-11.1-4.8-22.4-5.9-34 0zm-175.7 109c6.3.1 11.2-5 13.2-13.4.4-1.7 1.8-4-1.1-5-2.2-.7-3.5.5-4.8 2.4-2 2.7-3.4 6.4-7.9 6.2-2.8-.1-6.4-.4-5.8 4.1.5 3.7 3.4 5.5 6.4 5.7zm198.8-75c-2.3 1.1-7.4.3-7.1 4.5.2 4.2 5.1 4 8.5 4.4 3.3.4 5.1-1.9 5-4.7-.1-3.4-3-4-6.4-4.2zm3.8-21c-4.6-.4-4.6-.4-17.5 10.6 8.1-.6 13.3-4.5 17.5-10.6z"/><path d="M756.3 332.6c1.4 7.9.3 15.3-1 22.9-1.1 5.8-3.9 11.8-4.1 16.7-.3 11.4-1.2 23.2 2.7 34.6 2.1 6.1 3.8 12.3 6.9 18.2 1.3 2.5-1.8 5.4-.9 8.7 2.6 8.6 4.5 17.3 7.2 25.9 2 6.6-.4 13.1.3 19.6.1.7-1.6 1.5-.3 2.7 3.5 3.3 2 5.5-1.5 7.6-2.3 1.4-3.3 3.5-2 6.2.9 1.9 2.9 2.1 4.6 2 2-.1 1.5-1.8 1.2-3.1-.5-2.3.4-2.8 2.5-2.3 2.2.5 1.4 1.5.9 2.8-3.5 9.8-5.7 19.9-11.6 29.1-3.4 5.3-10.3 8.3-10.7 15.6 0 .9-2.2 2-3.6 2.5-6.3 2.3-9.3 7.4-11.3 13.2-.5 1.3-1.1 1.9-2.3 1.7-1.3-.2-2.1-1.2-1.7-2.3.7-1.8-.3-3.8 1.1-5.7 2.9-3.6 5.3-7.6 6-12.4.1-.6.5-1.3 1-1.7 9.9-7.1 7.6-18.8 9.1-28.2 1.1-6.7 2.7-14.2 2.2-21.6-.3-4.2-4.1-7.3-2.1-12.2 4.1-10.6.4-20.6-4.7-30-1-1.8-3-3.3.4-4.4 1.9-.6 1.4-1.8 1.1-3.1-.6-2.5-1.7-5 1.3-7.1 1.5-1.1.1-2.9-.5-4.2-.5-1.2-2-2.4-1.8-3.4 1.9-7.9-2.3-15.6-1.1-23.3 1-5.8 2.5-11.7 1-17.3-1-3.5-.4-8.1-4.3-10.6-1.2-.8-1.5-1.6-1.1-3.3.7-3.5-3.8-7.4-7.1-6.3-2 .7-3.6 2.1-1.8 4.5 1.1 1.4 1.1 4.1 1.4 4.4 4.3 6.2-.2 12.5.7 18.6.6 4.3 3.3 8.2.6 12.8-1 1.8-2.4 3.9-3.8 3.9-2.2 0-4.1-2.1-4-4.5.5-9.4-4.2-16.4-10.2-22.8-1.3-1.4-.4-2.7-.3-4.2.3-3.2.8-6.4-2.4-9.4-3.4-3.3-3.9-9.1-7.9-12.2-6.1-4.7-7.1-13.2-13.7-17.6-1.6-1.1-2.5-3.4-.6-5.2 2.4-2.3 3.3.3 4.6 1.7 1.8 1.9 4 3.6 5.7 5.6 6.4 7.8 7.7 7.9 17.2 3.4 2.5-1.2 3.3-1.2.9-3.3-1.2-1.1-1-2.9-.6-4.9 2.9-13.2-.2-25.5-9.3-34.9-7.7-8-18.3-11.9-29.5-13.3-2-.3-3.7 0-2.4 2.9.6 1.3.6 3 .8 4.5.2 1.4 0 2.7-1.6 3.2-1.9.5-2.9-.3-3.4-2.1-1.4-4.8-2.9-9.5-4.3-14.2-.3-1.2-.9-1.9-1.9-2.5-2.8-1.5-2.6-3.1-.3-5 2.4-2 3.2-5.1 5.4-7.3 3.3-3.2.6-9.2-3.8-10.4-3.3-.9-8.6.7-9.6-2.6s3.2-6.3 6.2-8.4c2.2-1.5 1.3-5.9 4.4-5.7 3.9.3 8.1 1 11.5 2.9 6.1 3.5 12.8 4.8 19.4 6.5 2.9.8 6.9 2.6 8.2-3.4.6-2.8 3.6-2.6 5.2.2 1.2 2 1.8 4.3 2.9 6.4.8 1.6 2.3 2.4 3.9 1.6 2.8-1.5.2-2-.6-3-.7-.8-.4-1.7.4-2.3 1.5-1.4 3.7-1.6 5-.6 4.4 3.6 9 5.4 14.9 5.5 5.2.1 6.5 6.2 7.5 9.9.9 3.3 2.6 4.1 4.7 5.2 11.1 5.9 14.6 14.1 12.2 26.5-.5 2.8-2.2 6.2.1 9.3 1.3 1.7 1 3.2-1 4.3-1.3.7-1.2 3.2-3.3 2.7-2.1-.6-1.3-2.6-1.3-4-.3-6-3.5-10.4-7.4-14.7-1.9-2.1-2.7-5.2-4.1-7.7-1.8-3.5-4.4-5.8-8.4-3.8-5.2 2.6 1.4 4.8.5 7.6-.5 1.7 1.7 2.3 2.7 3.4 1.3 1.5 4.6 1.8 2.9 4.9-1.4 2.7-3.4.7-5.2.4-1.6-.3-15.4 14.3-14.8 15.8 3 7.4 4.2 15.4 6.8 22.9 1 2.8.5 7.4-.2 11.1-.7 3.6 1.2 4.8 4 5.7 5.7 1.7 10.6-.9 14.3-6.1 2.1-3.2 5.4-5.7 6.9-9.7zM722.1 292c3.2-.5 9.1 1.6 5.7-5.8-.2-.5.5-1.7 1-2.2 3-2.8 1-5.5.1-8.4-.9-2.8-3.6-4.3-4.4-7.3-1.5-5.2-7.9-8-12.6-5.7-3.5 1.8-6.8 4.7-4.1-2.7.5-1.3-1.5-1.9-2.3-2.8-4.7-5.3-11.6-3-17.3-5.1-3.2-1.2-6.8-1.6-9.5.9-3.3 3.1-2.2 8.1-2.1 11.6.2 5.8 19.6 11.6 24.5 8 1.1-.8 2.2-1.5 2.4-3 .4-2.7 1.8-5.3 4.6-3.9 2.9 1.4-.2 3.7-.3 5.7-.1 1.8-1.4 2.7-2.5 3.7-2 1.7-2.3 4.4-1 6 4.4 5.9 8.9 12.1 17.8 11zm32 227.1c4.3-2 6.4-6.4 9.6-9.6 1.3-1.4 2-4-.4-5.1-1.8-.8-4.5-1.3-5.9 1.1-1.7 2.7-3 5.6-5.4 8-1.4 1.5-1.8 4.8 2.1 5.6z"/><path d="M820.3 306.7c-.2 4.4 3.7 7.9 2.9 12.5-1 5.2.6 10.9-2.8 15.8 5.3 3.6-.6 7.5.2 11.3.5 2.5-1.2 4.3-4 4-3.3-.3-1.6-2.5-1.6-4.4.2-10.2-1.5-19.6-5.7-29.5-4.4-10.5-11-20.7-11.4-33-.1-2.9-2.5-6.1-4.5-8.6-4.7-5.6-8.8-11.5-15.6-15.2-3.8-2.1-6.8-6.4-9.8-9.7-6.3-6.9-15.2-8.6-22.1-13.8-6.2-4.7-14.2-6.6-19.6-12.5-2.1-2.3-5.3-2.1-7.9-3.4-13.4-6.7-26.1-14.8-40.3-20.1-1.1-.4-2.3-.8-2.3-2.1-.2-4.2-2-6.5-6.4-7.7-3-.8-3.4-4.1-.1-6 2.3-1.3 5.4-2.3 6.2-4.7 1.5-4.8 1.9-9.5 9.1-7.2 4.2 1.4 8.7-1.5 13.2 2.1 8.5 6.8 19.2 11.3 26.4 19.1 3.6 3.9 8.5 7.3 11.4 12.3 2.3 4.1 6.6 6.6 11 9 5.6 3 13.3 4.3 15.1 12.2.3 1.3 1.3 1.7 2.3 2.1 8.9 3.5 14.7 11.5 22.7 16.3 3.9 2.4 7.5 5.3 8.5 10.3.2.8.4 2.2.9 2.4 10.8 3.6 10.1 15.3 15.3 22.8 5 7.3 10.1 15.9 8.9 25.7zm-92.8-104.3c-3 .7-4.9-.5-7.1-2.3-5.6-4.4-10.6-9.3-16.6-13.4-8.3-5.7-15.6-1.8-23.2-1.2-3 .3-4.3 2.2-.7 5.8 10 10 23 9.2 35.2 11.6 3.8.8 8.1 2.1 12.4-.5zM727.7 681.4c-1.9-5 .1-7.1 1.5-9.5.7-1.1 1-2.5 1.8-3.5 1.8-2.1.5-5.1-.7-4.9-7.5 1.3-.9-19-14-8.9-2.8 2.2.1 4.9-2.9 6.9-5.1 3.4 1.3 4.1 2.2 6.3 1.8 4.2.2 8.6-2 11.8-5 7.4-5.8 7.9-8.8 18.4-.5 1.9-2.2 1.9-3.7 2.2-1.7.4-2.7-.6-2.9-2-1.1-9.2-7.5-16.7-8.5-26-1-8.7-.5-17.2 5.9-23.8 1.8-1.8 2.4-3.5 2.6-5.6.3-3.6.9-6.7 3.8-9.8 3.3-3.5.6-9.7 3.5-13.9 3.3-4.7-.9-8.6-1-12.8-.2-8-.3-16 0-24 .1-2.6-2.3-4.9-.7-7.7.8-1.3.7-3.1 2.6-3.4 1.8-.3 2.8.9 3.7 2.3.7 1.2-.1 3.8 2.2 3.3 1.8-.4 3.3-2 3.7-4.2.5-2.8 1.8-4.2 4.8-3.2 2.9 1 2.9 2.9 1.9 5.3-2.3 5.3-2.7 11.2-5.9 16.2-.3.5-1.2 1.4-1.1 1.5 6.8 7.7-2.5 16.2 1.2 24.3.9 2 1 4.8 3.2 5.6 4.1 1.5 4.2-3.7 6.8-4.9 3.6-1.6.1-2.9-.4-3.9-2.1-4 1.2-6.9 2.4-9.5 2.8-5.9 1.8-12.7 5.2-18.2.4-.6-.4-2 0-2.5 7.4-7.5 7.2-19.6 16.1-26.3 1.7-1.2 1.8-4.4 3-6.4 1.1-1.8 3.3-2.1 4.6-.7 1.4 1.4-.8 1.9-1.5 2.8-3.6 5-4 11.1-5 16.9-1.4 8.7-4.4 17.2-3.5 26.1.6 5.5-4.6 7.6-6.4 11.9-1.3 3.2-1.1 5.7-1.7 8.5-1.4 6.9 3.5 16-6 20.7-2.2 1.1-4.1 14.4-2.9 16.4 1.3 2.2 3.6 2.3 5.8 2.7 3.5.7 5.4 3.7 3.6 6.3-3.9 5.9-8.4 11.6-12.5 19.2zm-26.1-31c-.9.4-3.4 0-3.1 2.5.2 2.3 2.4 3.1 4.4 3.1 1.6 0 3-1.1 3-2.9 0-2.2-1.5-2.9-4.3-2.7zM270.3 630.1c-4.7-1-10.5 1.4-12.2-5.5-.4-1.4-.9-2.4.2-3.6.4-.4 8.4-21.3 8.5-21.8 1.2-5.7-4.6-7.8-6.5-12-1-2.4-1.7-4.8-2.6-7.2-.7-1.7-1.2-3.7 1.5-4.1 2-.4 3.4.6 3.6 2.9.1 1.3.5 2.6.8 3.9.4 1.4 1.5 2.2 3 2.1 1.8-.1 1.5-1.4 1.8-2.8 1.9-8.1 4.2-9.8 12.7-9.9 7.3-.1 12.4-7.5 9.2-13.9-1.7-3.4 3.6-6.5-.3-9.5 4.6-6.6-1.2-5.7-4.6-6.6-.8-.2-1.6-.7-4.1-1.8 7.2-1.5 9.7-6.9 14.5-9.6 7.6-4.3 11.2-12.7 17.4-18.6 9.9-9.5 27.7-11.1 38.5-2.8 1.3 1 3 2.5 1.8 4.3-1.3 1.9-3.5 1.7-5.4.6-7.6-4.3-15.6-3.7-23.9-2.2-4.2.8-6.9 3.1-9.5 5.6-6.3 6-12.2 12.5-18 18.9-1.2 1.3-3 3.4-1.9 5.3 1.3 2.3 4 1.3 6.1.9 8.6-1.4 15.1-6.9 22-11.7 3.6-2.5 7-5.3 10.6-7.7 1.2-.8 3.3-1.4 4.2.1 1 1.5-.4 2.7-1.7 3.8-10.2 8.7-20.4 17.5-33.2 22.1-4 1.4-3.1 4.9-4.5 7.2-1.2 2 2.5 2.9 4.4 3.7 5.2 2.2 3.5 6.8 2.9 10.2-.2 1.3-.4 3.2-.9 4.3-4.7 9.5-1.3 20-4.3 29.7-.7 2.1-1.4 4.1-4 3.4-2.4-.6-2.7-3-2.2-4.9.8-3.2 2.9-6.1 2.6-9.4-.1-1.6 1.2-3.8-1-4.8-2-.9-4.4-.7-5.5 1.2-4.7 8-11.9 14-15 23.4-3.3 9.9-1.7 19.4-.7 28.8.6 5.1 3.3 10.4 3.7 15.9.1 1.7 2.1 4.8-2 4.9-2.9.1-2.5-2.2-3-4.2-1.5-6.2-4-12.2-5.1-18.4-.3-3.2 1.3-6.6 2.1-10.2zM376.1 378.5c11.6 1.3 19.4-3.7 25.2-11.4 3.5-4.7 7.8-9.6 6.8-16.6-.1-1 2.1-2.7 3.5-3.6 1.3-.7 2.5-1.2 1.8-2.8-2.4-5.1 3-6.2 4.7-9.2 1.5-2.6 3.8-1.5 5.6-.1 2.1 1.7 2 3.3-.6 4.4-3.5 1.6-.2 4.8-1.7 6.9-5.4 7.4-7.8 16.6-14.2 23.5-2.9 3.1-3.2 7.9-7.4 10.6-1.7 1.1-2.7 2.9-5.2 3.1-1.7.1-4.2.7-3.1 3.8.5 1.3-.7 2.1-1.8 2.3-10 2.1-18.4 9.7-29 9.1-7-.4-5.8 5.7-7.7 8.9-1.8 3 2.5 3.9 4.5 5.3 5.7 3.9 11.5 8.3 14.9 14 3 5.1 6.9 6.6 11.8 7.9 1.3.4 4.1.5 3.5 2.9-.5 2.4-2.9 3-4.9 2.2-5.9-2.4-13.7-.5-16.5-9.6-1.4-4.4-7.6-3.9-12-3.4-3 .4-6.2 1.2-5.1 5.8.3 1.4-1.5 2.4-2.6 2.6-6.5 1-6.6 6.5-8.1 11-.8 2.4-1.7 5.3-4.7 4.2-3.9-1.4-.2-3.4.3-5.1 1-3.4 3.7-6.3 2.1-10.3-.5-1.2-.6-2.7.6-3.7 6-5.5 3.8-14.5 8.9-20.5 1.5-1.8 2-4.9 2.2-7.4.8-11 7.2-19.4 12-28.7 2.1-4 5.5-7.4 6.5-12.3 1.3-6.6 7.5-2.9 11-3.3 3.1-.3 5.8 3.6 2.9 7.5-2.7 3.7.7 8.6-4.2 12zM809.1 414.9c-3.1-5.5-.7-11.5-5-15.5-6.6-6.2-8.2-13.1-2.8-21 .4-.6-.6-2.2-.4-3.1 1.1-3.8-.7-9.6 7.1-8.9 4.9.4 7.4-3.3 6.1-8.4-.3-1.2-1.7-2.6.6-2.9 2.4-.3 1.8 1.6 2 3.1 1.6 10.2 1.3 20.5 3.5 30.7 1.2 5.8 5.5 9 8.3 13 3 4.2 6.9 7.2 4.8 13-.6 1.6.9.8 1.3 1.1 5.2 2.7 6.5 7.6 5.4 12.4-1.9 8.3 0 16.8-1.7 24.9-1.1 5.3 1.2 11.2-3 16.3-.7.9 1.9 6.2.3 9.6-.8 1.7-.4 4.8-2.8 4.6-2.6-.2-2.9-3.6-2.7-5.3.8-7-2.5-7.2-7.8-5.7-2 .6-3.9.5-3-3 1.1-4.5 1.4-9.1.2-14-.7-2.9 1.1-6.9 2.6-9.9 1.5-2.8 1-5-.1-7.5-2.2-5.3-2.8-10.2-.7-16.2 1.2-3.3-1-8.4-1.6-12.8-.1-.8-.9-3.6-3.1-3.7-2.2-.1-2.6 2-3.6 3.5-.8 1.8-2.2 3.4-3.9 5.7zM366.1 229.5c-5 0-8.7-3.2-12.9-5-4.4-1.9-6.4-5.1-12.4 1.1-8.1 8.3-18.4 15.5-28.9 21.5-1.9 1.1-3.2 2.5-4.7 4.2-5.6 6.1-8.3 14.5-15.9 19.2-3.5 2.1-5.5 7.7-5.7 10.9-.3 5.7-4.2 10.2-3.3 16.2.4 2.7-3.3 6-6.8 5.2-3-.7-3.6-3-.8-5.9 1.7-1.8-1.4-2.6-2.9-3.1-2.5-.8-3.4-2.4-2-4.5 3.4-5.2 5-11.7 9.8-15.9 6-5.3 8.9-12.2 10.9-19.6.6-2.2 1.8-3.5 3.9-4.8 5.4-3.6 10.4-7.7 15.5-11.8 1.2-1 3.4-2.3 1.9-4.3-1.3-1.7-3.3-.5-4.9.1-3.1 1.1-4.9 3.8-6 6.6-.7 1.8-1.1 3.3-3.3 3.3-1.5 0-3.1 1.5-4.4.1-1.5-1.6.5-2.7 1-4 2.5-6.3 7.2-10.2 13.7-11.9 1.6-.4 2.7-1.2 3.9-2.3 8-7.1 17.7-9.4 28.1-9.1.9 0 1.9.3 2.6 0 12.4-6.2 21.5 4.4 32.3 6.3 1.2.2 2 1.1 2 2.3.1 1.7-.6 3.3-2.2 3.7-2.8.6-5.7.9-8.5 1.5zM525.6 317.9c5.6.2 9.7 5.4 14.8 4.5 13-2.3 21.6 6.9 32.2 11 1.5.6 4.3 1.5 2.9 4.3-1.4 2.9-3.6 1.8-5.6.6-3.4-2-6.6-4.3-10.2-6-7.8-3.8-13.1-.6-13.5 8-.4 7.1-6 12.8-5.6 20.2.1 1.1-1.5 2.2-3.1 1.6-1.2-.5-1.6-1.6-1.3-2.8 1.6-5.4 3.1-10.8 5.2-16 1.1-2.7 1.4-5.2 1.8-8 1.2-7.9-4.6-9-9.2-9.8-12.7-2-23.6-7.9-34.4-14.2-5.1-3-10.1-4.2-15.6-2.1-.8.3-2.2.4-2.4.9-2.7 8.6-11.1 10.1-17.6 13.3-5.7 2.7-6.1 7.3-5.3 11.6.5 2.6-.2 3.6-1.5 4.9-1.2 1.1-2.7 1.5-4.2.3-1.9-1.5-2.6-2.8-.2-4.7 1.1-.9.1-1.8-.9-2.5-2-1.3-3.6-3.2-6.1-3.7-2.5-.5-5.1-1.4-5.3-4.2-.2-2.9 2.8-4.7 4.6-5.3 4.2-1.5 5.6-4.2 6.8-8 1.3-4.1 8.8-6 11.7-3 2.9 2.9 4.8.4 7-.5 2.4-.9 3.1-2.4 1.4-4.5-1.3-1.6-.5-2.6.9-2.9 5-.8 8.1-5.3 12.9-6.3 3.3-.7 7.6-3.9 7.4 3.4 0 .7 1.8 2 3 2.2 6.4 1.5 11.7 6.1 18.6 6.2 5.1.1 9.1 4.5 14.4 4.5 1.2 0 1.9.9 1.8 2.3-.4 3.2-3.5 3-5.4 4.7zM569.4 289.2c13.3-1.3 26.3 1.7 38.5 5.8 7.2 2.5 13.6 7.4 21.6 8.4 2.4.3 4.8 1.1 7.2.6 9.7-2 18.1 2.1 26.3 6.2 3.6 1.8 4.9 6.2 6.2 9.6 2.2 5.5 5.3 10.4 7.7 15.7.5 1.1 2 2.2.2 3.2-1.2.6-2.8.1-3.2-1.5-2.2-7.5-9.5-11.2-14.3-16.2-4.1-4.3-10.8-9.1-18.3-9.4-12.7-.5-25.5-2.2-38.1 1-2.1.5-4.4.3-6.5.1-1.7-.2-4.1-.3-4.3-2.3-.2-1.8 1.7-2.8 3.4-3.4 1.2-.3 3.1 0 2.8-1.9-.3-2.2-2.2-2.3-4.1-2.5-8.1-.7-16.3-1.4-24.4-2.2-2.4-.2-4.3-.3-5.1-3.8-.8-3.3-5-2.8-8-3.1-1.5-.2-3.6.1-3.6-2-.1-2.7 2.4-2.2 3.9-2.2 4.1-.2 8.1-.1 12.1-.1zM783.7 538.1c-.4-5-4.7-4.4-7.9-4.8-5.2-.6-4.2 0-3.1-4.5 1.9-7.8 8.1-13.4 9.8-21.1.4-2 1.5-3.2 3.7-2.7 2.4.6 2 2.4 1.9 4.2-.1 1.4-.7 2.3-1.8 3.3-3.4 3-5 6.6-4.5 11.4.5 5 3.1 7.3 7.8 5.1 1.8-.9 3.5-2.1 5.5-1.9 2.4.2 5.7.7 2.3 4.1-1.1 1.1-1.6 2.4-1.4 3.5 1.2 6.9-1.8 11.7-7.1 15.7-3.8 2.9-1.4 6.9-.1 9.7 3.4 7.2 2.2 14.2.7 21.4-.5 2.5-1.7 5.1.4 8 1.7 2.3-2.1 4.4-2.4 7.6-1 10.2-4 20.2-9.6 29.1-1.3 2.1-2.5 5.1-5.3 3.5-2.3-1.3-1.2-3.9 0-5.9.3-.6 1.2-1.2 1.1-1.6-2.5-9.1 1.5-17.7 2.8-26.4 1-7.1-.6-14.6 3.2-21.8 2.2-4.1-.9-10.1 1-15.2 2.4-6.5.6-13.8 3-20.7zM659.3 827.7c-3.7-2.8-5.8-3.3-7.9-1.9-5.5 3.4-11.7 2.2-17.5 2.1-5-.1-10.4-.7-10.9-7.9-.1-1.5-1.8-2.8-3.1-4.7 5.9-2.7 11.6-5.4 16.9-9.3 4.6-3.4 12.2-2.9 18.6-3.6 3.1-.4 6.1-.6 8.8-2.4 1.3-.9 3.2-2.2 4.8-.4 1.8 1.9-1.3 2.3-1.4 3.8-.1.9-.1 2-.6 2.5-2.6 2.3-4.6 5.1-.7 7.2 3.2 1.7 7-.4 8.4-3.5 1.7-3.8 5.1-6 7.2-9.3.9-1.4 2.5-2.2 4-1.4 2.6 1.3 0 2.5-.4 3.7-1.7 6.4-7.1 10.7-10 16-4.9 9-15.3 11.8-19.8 20.8-1.8 3.7-6.8 4.5-10.6 6.1-1.8.8-3.1-.5-3.5-2.1-.4-1.5-.2-3.8 1.2-4 7.4-1.4 8.2-10.5 16.5-11.7zm-26.9-14.9c8.4 5.4 14.5 3.2 21.2-2.4-7.6-.8-13.8.3-21.2 2.4zM704.8 497.8c2.9-.2 4.6 1.1 6.2 2.9.6.6 1.1 1.3 1.7 1.9 3.6 3.4 12.1 3.2 8.5 11.7 1.8.7 3.7 1.4 5.5 2 .5-2.7 1.5-5.3.3-8.2-2.7-6.6-7.4-11.8-11.8-17.2-4.3-5.2-3.6-6.8 2.2-10.5 3-1.9 5-5.2 8.4-6.9 1.6-.8 1-2.9.1-4.2-2.4-3.4-.8-7.4-1.3-11-.5-3.7 3.6-2.9 6-2.8 1.4.1 3.2-.7 2.9 3.1-.4 6 2.5 12 2.1 18.3-.4 6.3-1.3 13-.8 18.7.6 7.1-.7 13.5-2.6 19.5-2.2 6.7-.4 15.1-7.6 19.9-1.5 1-.6 2.3 0 3.5 1 2.3 0 3.3-2.3 3.3-2.2 0-3.4-.7-2.9-3.2.2-.9.1-1.8.4-2.6 3.8-10.5-2.3-17.6-8.3-24.7-3.6-3.6-6.4-7.8-6.7-13.5zM270.8 232.3c-5.1-.7-7.5.4-9.4 4-1.6 2.9-4.8 5-7.5 7.3-1.2 1-3.1 1-4.4 0-1.7-1.3-.8-2.7.2-4 8.7-11.1 17-22.2 29-30.6 8.1-5.7 16.6-7 25.5-8.8 1.6-.3 3.9-1 4.9.8 1.2 2.1-1.5 2.8-2.4 4.2-2.3 3.5-6.1 4.8-9.4 6.8-6.7 4.1-13.8 8.1-17.8 15.2-2.5 4.2-5.5 5.7-8.7 5.1zM743.2 724.4c-2.5-.3-2.3-2.2-1.7-3.4 4.2-8.6 8.7-17.2 17.8-21.6 2.9-1.4 1.7-4.8 4.3-6.2 2.7-1.5 1.7-6.6 6.2-6.5-4.1-4.2 2.1-8.7-.6-13-4.3-7 1.1-14.3-.4-21.4-.2-.9.7-1.7 1.7-1.6 1.6.1 2.2 1.4 2.4 2.7.8 3.8 1.3 7.6 2.1 11.4 1.2 5.7 2.7 11.3 2.7 17.3 0 7.5-3.4 12.9-7.3 19.1-6 9.6-18.3 11.1-23.5 20.8-.5 1.1-2.4 1.6-3.7 2.4zM572.7 317c7.3 4.9 14.4 7.3 21.7 8.5 12.1 2 24.2 4.5 36.4 5.2 15.9.9 27.9 8.2 38.1 19.5 1.2 1.3 2.6 3.1 1.5 4.6-1.3 1.7-3.4.8-4.6-.6-3.6-4.1-9.3-5.4-12.4-10.3-1.4-2.2-4.6-3.6-8.3-4-9.1-.9-17.6-5.1-27-5.5-10.3-.4-20.6-2.3-30.9-3.3-3.4-.4-6.6-.6-7.6-4.8-.9-3.5-6.4-3.1-6.9-9.3zM690.4 377.9c-4.2 6-3.2 13.2-7.4 19.9-6.2 9.8-13.5 20-15.3 32-1.5 10.4.9 20.8 3.9 30.9 1.7 5.5 6.1 9.9 5.9 16.2-.1 1.9.5 3.7-2.2 3.7-2.1 0-1.6-1.8-2.2-2.9-5.3-9.1-7.1-19.3-10.1-29.2-2.6-8.4-1.4-16.1.4-24 2.9-12.1 10.6-21.7 17.3-31.9 1.6-2.5 3.7-6 3.4-10.1-.2-3 3.1-4 6.3-4.6zM730.4 748c-.9 6.8-.9 14-3.2 20.4-1.5 4.3-6.3 7.5-9.5 11.2-3.8 4.4-10.2 6.4-13.5 11.9-.7 1.1-2.4 2.4-4 1.1-1.5-1.2-.6-3.1.1-4.3 3.5-6.3 5.2-13.2 12.3-18 7.2-4.8 10.6-14 13.9-22.3.6-1.5 1-3.1 3.1-2.5 1.3.2 1.5 1.3.8 2.5zM176.6 617.4c-1.1-1.1-6.4.5-2.3-4 2-2.2.1-4.2-.4-6.2-.8-3.4-1.2-6.5 1.4-9.3.6-.6 1.6-1.6 1.4-2.1-2.1-8.5 7-13.4 6.7-21.2-.1-1.4.9-2.6 2.5-2.5 1.9.1 1.8 2.2 1.7 3-.3 4.7-.7 9.3-1.6 13.9-1.3 6.5-3 12.8-5.9 18.8-.8 1.6-.6 4-.2 5.8.6 3-.8 3.6-3.3 3.8z"/><path d="M697.3 426.6c2.2.7 1.9 1.7 1.4 3.2-2.5 6.9-5.2 13.8-7.1 20.9-1.3 4.8.7 10.2-3.6 14.8-1.9 2.1-3.4 4.5-6 3.6-3.3-1 .7-3.1 0-4.8-3.8-9.2 1.3-16.3 6.3-22.9 3.1-4.1 2-10.5 7.6-13.1.6-.4 1-1.3 1.4-1.7zM439.1 341.2c-.2 14.2-.8 28.2-7.4 41.2-1.7 3.2-1.1 6.9-1.4 10.4-.2 1.7 0 4.1-2.4 4-2.9-.1-2.7-3-2.3-4.6 1.3-5.8 2.7-11.8 4.8-17.3 3.2-8.2 4.3-16.2 3.8-25.1-.3-5.6.7-11.3-1.2-16.9-.4-1.3.9-1.9 2-2 1.6-.2 3.7 0 3.4 2-.4 2.9.8 5.6.7 8.3zM813.4 561.6c4-13 5.5-25.8 3.4-38.7-.4-2.7-.1-4 1.9-4.4 2.9-.6 2.2 2.7 2.3 3.8.9 10.6 3.7 21.1-.6 31.9-2.8 7.1-1.8 7.5-7 7.4zM799.8 445.2c-1.5.1-3.4-1.2-3-1.8 4-5.2-4.7-10.9.8-15.9.6-.5 1-1.3.4-2.3-.6-1.1-3.2-2.2-.8-3.5 2.4-1.3 3.4 1 4.2 2.9.4 1 .8 2.4 1.5 2.8 10.1 5 1.8 10.6.6 15.9-.4 1.8-2.2 1.7-3.7 1.9zM719.8 435.5c-1.8 6.7-1.7 14.2-5.6 20.8-1.2 2-2.5 4.1-5 2.6-2.5-1.5-.3-3.2.8-4.2 1.8-1.5.2-2.6.1-3.9-.2-2.6-1.3-5.4 2.3-7.2 3.4-1.7 1.2-6.2 2.8-9 .9-1.5.1-4.6 3.1-3.9 2.3.4.8 2.9 1.5 4.8zM547.3 318.8c-2-9.7-7.4-17.1-14.6-23.5-1-.9-2.4-1.6-1.4-3.1 1.1-1.6 2.9-1.3 4.1-.3 5.8 4.5 11.9 9.1 13.2 16.9.5 3.2 4.3 7.3-1.3 10zM418.7 678.4c4.9.8 10.1 1.4 15.2 2.4 2.2.4 4.3 1.5 3.4 4.5-.8 2.9-2.9 2.2-4.8 1.6-5-1.6-10.7-.3-15.3-3.5-1.7-1.2-5.4-.6-4.8-3.4.6-2.6 3.9-1.1 6.3-1.6zM773.9 372.3c-1.5-3 1.5-5.3 2.2-8.2.6-2.5 1.9-3.6 4.2-2.2 1.7 1 4.2 1.1 3.1 5.1-.8 3-3.4 5.8-2.5 9.5.4 1.6-2.2 2.6-4.1 2.4-4-.4-3-3.5-2.9-6.6zM818.3 481.2c1.1 1.9.8 3.1.1 3.8-3.6 3.2-1.1 12-6.5 11.1-3.9-.6-3.4-9.1-6.2-13.5-.9-1.4-.6-3.6 1.5-4.3.9-.3 2.5.1 2.6 1.4.5 10.6 4.6 5.7 8.5 1.5zM616.9 561.2c.5-7.1-2.9-12-8.9-15.4-1.3-.7-3.2-1.5-2.4-3.3.8-1.8 2.7-.8 4.1-.5 5.5 1.3 8.6 4.8 10 10.3.7 3-.3 6.1 1.4 9 1 1.7-.8 3.6-2.7 3.6-2.2 0-1.7-2.1-1.5-3.7zM667.1 171c-7.9-2.7-15.8-.5-23.5 3-1.7.7-3.9.7-4.4-1.5-.4-1.7 1.6-1.7 2.8-2 8.7-2 17.1-6 26.4-3.5 1.4.4 3.4.8 2.7 2.9-.4 1.5-2 1.2-4 1.1zM617.9 279c-.4-.2-1.5-.3-1.8-.9-.3-.6.1-2 .6-2.3 3-1.9 5.2-3.8 3.6-8-.5-1.3 1-2.4 2.4-2.5 1.4-.1 3 .3 3.4 1.5 1.3 3.7-2.9 6-2.7 9.7.1 1.3-2.9 2.4-5.5 2.5zM804.3 469.3c-1.9-.4-1.1-1.8-1-3.4.3-4.4 5.4-6.9 4.4-11.9-.3-1.5 2.3-1.3 3.8-1 1.1.3 2.5 1.2 1.7 2.1-3.1 3.7-4.5 8.1-6 12.5-.3 1-1.2 1.9-2.9 1.7zM784.7 284c-.4 1.2-.6 2.8-1.4 4-.5.8-2.2 1.8-2.6 1.6-3.9-2.6 1-8.5-3.9-11.1-.6-.3 1-2.5 2.3-2.4 3.3.3 5 2.3 4.9 5.8 0 .5.4 1.1.7 2.1zM820.8 514.7c5.2-4.4 2-13.8 9.9-16.6 0 5.9-3.3 11.9-9.9 16.6zM782 312.7c-1.3 2.1 1.3 6.6-1.9 6.7-3.5.1-1-4.4-2.1-6.6-.4-.8-.5-1.7-.6-2.6-.3-2.3-.4-5 2.6-5.1 3.1-.1 1.7 2.9 2.1 4.7.1 1-.1 1.9-.1 2.9zM434.9 216.1c-6.2 2.8-10.5.3-14.9-.4-1-.1-2.2-.8-1.9-2.2.2-1.4 1.5-1.3 2.6-1.5 4.9-.6 8.7 2.1 14.2 4.1zM666.9 504c-.2 1.9 1.3 5.5-2.2 4.7-2.9-.6-2.5-4.7-2.9-7.2-.4-2.2 1.8-2.8 3.7-2.5 3.8.7 2 3.1 1.4 5zM692.4 370.3c-.1 2.8 0 5.4-2.7 5.3-3.4-.1-1.6-2.8-1.6-4.6 0-.9.3-1.8.2-2.6-.1-1.1-3.1-2.3.1-3.3 1.9-.6 2.8.3 3.2 2.2.1 1.3.7 2.5.8 3zM667.2 522.4c-1.2 2.3-.9 6-4.6 6.8-1.3.3-2.4-1.2-1.8-1.9 1.8-2.4-.5-7.2 4.4-7.7 1.6-.2 2.3.9 2 2.8zM778.5 270.9c.1 1.4-.1 2.9-2 2.6-1.7-.3-4.4.1-4.1-2.9.1-1.3.1-3.4 2.2-3.5 2.5 0 3.4 1.7 3.9 3.8zM297.8 620.3c-.2 1.8-.1 3.9-2.8 4.2-1.8.2-2.5-.9-2.1-2.3.5-1.8.8-4 3-4.5 1.9-.5 1.9 1 1.9 2.6zM393.1 621c6.5 4.1 12.6 2.6 18.7-3.5s6.3-11.1 2.4-14.9c-4.3-4.3-8.7-3.6-19.8 3.3-17.7 11-26.4 9.3-33.6 2.2-9.2-9.2-8.5-22.3 3.9-34.7 14-14 27.1-12 35.5-5.1l-11.5 11.5c-3.8-2.7-9.1-4.4-15.9 2.4-4.6 4.6-5.5 9.3-1.8 13.1 3.7 3.7 7.4 2.9 17.9-3.6 18.9-11.7 28-9.4 35.4-1.9 9.6 9.6 8.9 23.5-5 37.4-13.4 13.4-27 13.8-37.8 5.5l11.6-11.7zM469.3 536.2c-9-9-18.9-19.2-24.6-25.4l-.4.4c8.3 13.2 20.5 36 32 57.5l-9.7 9.7c-18.2-10.6-43.7-25.1-56.5-33.3l-.4.4c6.6 5.7 17.7 16.3 26.7 25.4l18.9 18.9-10.4 10.4-52.7-52.7 16.9-16.9c17.9 9.7 39.7 22.3 49.2 28.6l.1-.1c-5.6-8.2-18.3-32.4-27.4-50.3l16.3-16.3L500 545l-11 11-19.7-19.8zM530.7 461.3c14.7 14.7 18.5 36.1 1.4 53.2-16.5 16.5-37.2 13.2-52.3-1.9-15.3-15.3-17.5-36.6-1.2-53 15.4-15.5 36-14.4 52.1 1.7zm-39.3 39.2c10.3 10.3 22.6 13.5 31.9 4.2 10.1-10.1 5.2-22.2-4.2-31.6-10-10-21.9-13.7-31.7-3.9-9.5 9.6-6.3 21.1 4 31.3zM510.7 429l11.3-11.3 23.5 23.5c-.6-7.5-1.6-30.2-2.5-44.5l13.6-13.6.7 43L610 435l-13.7 13.7-39.5-7.2-.2 10.9 18.1 18.1-11.3 11.3-52.7-52.8zM625.2 374.4 600 399.6l13.4 13.4 27.8-27.8 8 10.7-37.5 37.5-52.7-52.7 37.3-37.3 9.3 9.3-26.3 26.3 11.3 11.3 25.2-25.2 9.4 9.3z"/></svg>