<svg xmlns="http://www.w3.org/2000/svg" xml:space="preserve" viewBox="0 0 800 800"><path fill="none" d="M0 0h800v800H0z"/><path fill="none" d="M99.7 399.6h600v200h-600z"/><path d="M251.9 487.2h-41.5V463h112.3v24.2h-41.3v112.3h-29.5V487.2z"/><path d="M404.2 569.7c0 9.9 0 20.6.2 29.8h-27.8c-.4-2.7-.6-8.2-.8-11.8-6.1 10.3-15.1 14.2-28.2 14.2-20.9 0-34.2-12.7-34.2-38.1V497h28.4v61.1c0 11.3 3.5 20.7 15.8 20.7 12.9 0 18.3-6.9 18.3-27.2V497h28.4v72.7zM419.9 524.8c0-10.2 0-19.2-.2-27.8h27.8c.4 2.3.7 12.5.7 18 4.5-11.7 15.5-20.3 32.9-20.4v27.1c-20.6-.5-32.9 5-32.9 33.1v44.7h-28.4v-74.7zM486.6 522.8c0-8.7 0-18.2-.2-25.8h27.5c.6 2.6.9 9.8 1.1 13.1 3.5-6.4 11.8-15.4 29.7-15.4 20.6 0 34 13.9 34 39.7v65.2h-28.4v-62c0-11.5-3.8-19.9-16.4-19.9-12.1 0-19 6.7-19 24.8v57.1h-28.4v-76.8zM369.9 399.3h-6.7v-63.2H300v-6.6h69.9zM436.4 399.3h-6.6v-69.8h69.8v6.6h-63.2zM369.9 269.6H300v-6.7h63.2v-63.2h6.7zM499.6 269.6h-69.8v-69.9h6.6v63.2h63.2zM300 276.2h199.6v46.6H300z"/><path d="M374.9 199.7h49.9v199.6h-49.9z"/></svg>