<svg xmlns="http://www.w3.org/2000/svg" xml:space="preserve" viewBox="0 0 800 800"><path fill="none" d="M0 0h800v800H0z"/><path fill="none" d="M100.1 499.9h600v200h-600z"/><path d="M212.2 657.5v-31.9h-64.3v-26.9l59.3-83.2h33.7v85.2H258l-2.8 25h-14.3v31.9h-28.7zm0-82.2c0-15.4 0-24 .6-32.9-5.6 11.9-24.2 39-37.5 58.2h36.9v-25.3zM337.7 588.5v26.9h-60.1v-26.9h60.1zM423 657.5v-31.9h-64.3v-26.9l59.3-83.2h33.7v85.2h17.1l-2.8 25h-14.3v31.9H423zm0-82.2c0-15.4 0-24 .6-32.9-5.6 11.9-24.2 39-37.5 58.2H423v-25.3zM548.5 588.5v26.9h-60.1v-26.9h60.1zM655.1 515.4v22.9c-22.5 31.9-44.6 78-50.1 119.2h-31.8c5.6-41.8 31.1-91.9 50.4-116.7h-66.9v-25.4h98.4zM638.3 224.5c-2.8 1.6-4-4.7-6.1-.5-1.5 3.1-2.4 9.4-.6 9.6 7 1 1.1 3.1.9 4.6-.6 5.7-1.7 11.4-3.2 17-3.7 13.3-7.5 26.6-12.5 39.6-1.3 3.3-3.3 6.6-1.7 10.2 1.8 3.9-3.1 4-3.6 7.1-1.7 10-7.2 18.6-13.3 26.6-4.5 5.9-11.7 5.9-18.3 6.7-6.5.8-9.2 3.6-8.4 10.1.8 6.5 1.5 13.1 5.6 18.7.6.8 1.4 2.2 1.1 3-2.5 6.5 3.3 10.9 4 16.5.3 2.4 2.9 6.1-2.1 7.3-1.7.4-1 1.2.1 1.1 4-.4 3.5 3.2 3 4.4-2.5 5.4-1 11.5-4.2 16.9-2.2 3.8-3 9.9-1.6 14 2.4 7.5.3 14.4-.4 21.5-.6 6.4 2.4 11 8.8 11.6 4.5.4 7.7 3.7 12.2 4.5 3.2.5 3.6 4.9 3.2 8-.4 3.3-1.1 6.9-5 7.9-13.6 3.5-27.4 2.6-41.1 1.1-4-.4-6.7-7.4-5.1-12.2.5-1.7.6-3.5 1.2-5.1 4.3-11.7 0-23.6.2-35.3.3-15.3-4.1-30.7-6.5-46-.6-3.7-2.8-6.2-5.6-7.9-3.9-2.4-7.5-3-10.8 1.9-3.6 5.3-5.9 11.2-8.8 16.8-3.5 6.6-9.1 12.5-14.6 17.7-3.8 3.6-7.7 6.6-10.1 11.7-2.3 4.9-6.6 8.9-9.9 13.3-4.3 5.6-1.6 18.2 3.9 22.9 1.7 1.5 7.7 1.7 4.1 7.1-.9 1.3 1.5.8 2.4 1.1 2.3.8 4 2.1 3.4 4.8-.7 2.8-2.1 5.3-5.4 4.9-5.4-.6-10.7-.2-16-.4-4.5-.1-6.3-5.4-8.4-8.6-2.7-4.2-6-5.7-10.3-7.1-9.7-3.1-12.5-7.1-11.7-15.6.1-1.1.3-2.4 1-3.1 8.2-8.4 12.1-19.7 19.2-28.6 4.4-5.5 5.2-12.8 10.7-17.3.4-.4.8-1.3.7-1.8-2.7-9.5 3.7-15.7 8.8-21.7 5.2-6.1 3.9-14.2 8.3-20.3.7-1-.2-2.1-1.5-2.4-1.6-.4-3.4-.4-4 1.4-1.2 3.3-5.3 4.9-5.2 9 0 1.8-1.1 3.6-3.4 3-2.3-.6-1.6-2.4-1-3.8 3.1-7.2 6.4-14.3 9.3-21.5 3.2-7.8 9.4-15.3 2.7-24.2-.3-.4-.5-.7-.8-1.1-2.6-3 3.5-6.9-1.6-10.6-2.7-2-.9-8 .2-12.1 1.1-3.9 3-7.5 6.8-9.5 1.5-.8 4.9-.8 4.1-2.3-1.6-2.8.9-6.5-1.2-8-8-5.4-6.8-13.9-7.5-21.5-.4-4.4-4.7-9.6 1.4-13.5-3.5-4-1-7.6 1.1-10.8 5.4-8.4 9.5-18 19.5-22.4.8-.4 1.7-.6 2.5-.9 1.6-.6 4.3.4 4.7-1.7.5-2.8-2.4-2.6-4.1-3.2-2.6-1-2.9-3-2.9-5.4 0-2.8 1.2-4.1 4.1-3.8 1.4.1 1.8-.6 1.6-1.9-.1-.6.1-1.6-.6-1.5-8.3.8-5.2-6.9-5.2-9.2 0-5.9-.2-12.5 5.3-17.4 6.3-5.7 13.6-5.5 20.4-3.6 5.3 1.5 12.4 2.3 13 11.1.2 2.9 5 5.3 8.8 6.4 3.5 1.1 4.5 4.7 2.4 6-7.9 5.1-3.3 13.7-6.4 20.1-.9 1.8-.9 4.5-1.5 6.8-.8 3-2.3 6.6 1.3 9.7 3.7 3.2 1.8 8.5 4.1 12.7 2.8 5.3 5.2 11.1 2.7 18.1-.9 2.5 2.1 7.5 6.5 8.9 4 1.2 6-.6 7.6-4.3 2-4.4 6.7-7.4 10.4-9 6.1-2.4 8.8-8.8 15.4-10.4 6.1-1.5 10.2-7 14.6-11.3 8.4-8.2 19-13.7 26.7-22.6 1.7-2 3.9-2.5 6-1.1 2.6 1.7-.3 3.5-.4 5.2-.3 6.6-5.4 8.8-10.3 9.6-4.1.8-7.9-.9-3.1 4.3zm-25.1 30.9c.1 5.1-11.6 26.1-17.1 30.8-.8.7-2.4 1.6-2.3 2 1.9 7.3-5 8.1-8.3 8.8-12.4 2.6-15.1 13.5-20.7 22-.5.8-.3 2.1-.3 3.2.2 9 7.4 11 13.9 12.8 7.2 2 13.9-1.3 18.8-6.4 8.2-8.6 12.3-19.6 15.5-30.9 4.2-15.1 9-30.1 13.2-45.2.4-1.6 2.2-4.4-1.2-5.7-4.7-1.7-11.6 3.5-11.5 8.6zM531 231.5c-2.6-.4-3.9.7-5.5 1.5-4.4 2.2-1.6 8.5-6.3 10.4.4.8.7 1.8 1.3 2.3 3.2 2.3 5.1 5.1 5.3 9.2.1 2 1.8 3 3.8 3 1.6 0 4.1-.3 4-1.7-.2-4.6 3.3-8.8 1.9-13.3-.8-2.6-1-4.2 1.8-5.3 1.3-.5 2.5-1.2 2.1-2.9-.3-1.3-1.5-1.4-2.6-1.7-2.1-.5-4.2-1.1-5.8-1.5zm15.1 58.6c-3.6-.7-6.7 2.5-10.7 2-1.7-.2-4.8-.6-4.9 2.1-.1 2.9 2.9 3 5 3.1 7.2.2 14-2 21-2.9 2.3-.3 4.3-1.2 4.9-3.8.3-1.4-.1-2.8-1.3-3.5-2.4-1.5-4.8-.9-6.8.8-1.9 1.9-3.9 3.8-7.2 2.2zm-10.2-13.5c-.3-.9-.9-2.4-1.2-3.9-.6-2.9-1.1-5.8-5-5.9-4.1-.1-4.2 1.9-2.8 5 .1.1-1.4.9-1.3 1.2.9 3.8 2 7.5 3.2 11.2 0 .2 1.7.1 2.4-.3 2.7-1.5 4.6-3.5 4.7-7.3zm19.5-71.3c-.4-3.5.3-7-4-6.2-2.2.4-6.4-.7-5.7 3.4.4 2.5-.6 7 3.8 7.1 3.1.2 6.4-.8 5.9-4.3zm14.2 82.4c3.5-1 6.2.6 9.2 1.2 3.2.7 5.3-1.5 5.8-4.2.6-3.3-2.4-3-4.6-3.3-4.7-.5-8.3.9-10.4 6.3zm39.1-31.1c.1-2.2-1.7-3-3.4-2.6-6 1.2-2.9 7.5-5.6 10.7-.6.7 1.2 2.1 2.7 1.9 5.7-.9 4.5-6.2 6.3-10zm-82.6 81c-1.4-2.3-2.9-4-5.9-3.4-2.2.5-3.7 1.4-3.3 3.9.4 3 2.8 3.2 5 2.8 1.9-.2 3.9-.9 4.2-3.3zM270.6 206.3c1.2 4.4 3.6 8.9-1.4 12.7-1.5 1.1-.8 2.6.2 4.1 6.7 9.5 8.2 20.5 9.1 31.7.2 2.8-.7 6.4 2.8 7.6 3.6 1.2 7.8 1.4 10.4-2.3 6-8.7 15.3-12.5 24.4-16.3 5.1-2.1 5.9-8.4 10.8-10.2 9.6-3.4 15.8-12.3 25.4-16 2.9-1.1 6.3-3.3 6.5-7.8.1-3.1 2.7-3.3 5-2.6 2.3.7 4.3 3.4 3.2 5-1.6 2.5-2.1 5.8-5 7.7-6.4 4.3-10.4 10.2-12.3 18-2.2 9.5-7.5 17.9-10.2 27.3-4.6 15.9-10 31.4-16 46.9-2.6 6.9-4.8 13.6-9 19.9-6.2 9.2-14.8 13.1-25.3 13.6-4.9.2-7.3 2.3-7.6 7.1-.3 3.6-1.6 6.6-6 8 4.7 0 7.7 1.9 7.1 6.1-.6 4.2-4.9 1-8.7 3.7 11.5-3.4 13.1 4.5 13.9 10.6.6 4.2 2.2 7.5 3.2 11.2 1.5 5.3 1 11.6-.3 17.2-1.7 7.3-1.7 15.1-5.6 22-1.3 2.3-.2 5.9-.1 8.9 0 .8.6 2.3.5 2.4-5.6 2.6-.8 6.4-.6 9.2.3 4.4-2.6 8.6-.1 13.4 2.5 4.8 5 8.5 10.8 8.9 5.7.4 10.3 2.5 12.4 8.4 1 2.8.6 5.1-2.2 6.1-8.1 2.9-16.1 5.1-25.3 3.1-6.5-1.5-13.6-.7-20.4-1.8-4.6-.7-5.2-2-4.5-7 1.1-8.1 7.9-15.9 2-24.8-1.4-2.1.9-4.5 3.7-5.3-2.9-1-4.7-3.2-4-6 2.4-9.2 0-17.9-1.1-26.9-.5-4-3.5-7.8-1.9-11.9 2.1-5.6-2.1-11-.4-16.9.3-1-4.3-8-9.5-8.7-4.7-.6-7.6 2.2-9.3 5.9-3.8 8.5-8.1 16.7-14.4 23.4-3.6 3.9-7 7.9-12 10.9-4.6 2.7-7.5 8.5-10.6 13.3-4.3 6.6-6 14.6-11.1 20.7-.2.2-.3 1-.2 1 7.5 3.4 6.1 13.8 13.7 17.4 2.3 1.1 5.1 3.2 3.6 6.9-1.5 3.6-3.6 5.5-8 5.6-10.6.1-18.6-3.8-23.6-13.4-2.9-5.5-9.7-5-14-9.1-6.9-6.6-7.8-12.7-.2-18.2 2.1-1.5 5.5-1.3 2.7-6.1-1.3-2.2 3.4-6.7 5.9-9.8 4.5-5.6 9-11.2 11.2-18.3.5-1.4 1.1-3.3 2.2-4 5.4-3.1 8.6-6.2 5.2-13.2-1.7-3.4 3.2-6.1 5.2-8.4 5.1-5.7 7.6-12.8 11.8-18.9 1.2-1.8 1.5-4.6-1.1-5.8-2.9-1.3-4.4.4-5.2 3.3-.8 2.8-2 5.5-5.2 6.3-.5.1-1.9-.7-2-1.3-.5-3.3-1.1-7.1 1.6-9.5 4.1-3.8 6.1-8.3 7.4-13.5.7-2.9 2.3-5.8 4.1-8.3 3.3-4.6 5-8.4 1.2-14.2-2.1-3.1-3-8-2-12.5.3-1.7.8-3.7.2-5.2-3.6-9.2.2-14.9 7.9-19.6 3.6-2.2 3-7.1-.8-9.2-4.2-2.3-5.1-6.5-4.6-10.3 1-7.2-.2-14.4-1.1-21.3-.6-5.3 2.5-8.5 3.6-12.7 2.2-8.3 10.3-11.5 16-16.5 3-2.6 5.3-6 9-7.8 1.9-.9 2-2.6.7-3.8-4.9-4.4-4.6-9.6-3-15.3.4-1.5-.3-3.4-.5-5.5 10 1.1 17.4 6.8 24.6 12.7 1.4 1.7 2.8 3.4 4.3 5.2-.1 2.5 1.2 3.9 3.3 5.2 1.8 1.1 1.6 1.5-.4 3.7-.7.8-.3 1.7.2 2.4 2.3 2.7 5.3 1.7 7.7.8 3-1 .5-3.1-.2-4.1-2.1-3.2.2-4.1 2.4-5.2h-.1zm2.8 109.9c4 1.8 5.1 3.9 2.9 7.4-.5.8 0 2.7.7 3.7 6.3 9.2 16.8 13 26.2 6 6.7-5 11-11.1 14.8-19 5.6-11.3 6.9-23.8 12.9-35 4.4-8.2 4.4-18.6 8-27.7.9-2.3.8-5.7-2.6-5.3-4.1.5-9.3 4.1-9 7.2.6 6.4-4.9 10.4-4.3 16.3.1 1-.5 2.8-2 3.2-4.5 1.3-6.6 5.2-8.2 8.9-2.4 5.5-6 9.5-10.9 12.9-7.4 5.1-16 8.7-20.9 16.8-1.6 2.9-4 3.8-7.6 4.6zM250.9 260c-2-1.4-2.7-3.3-3.8-5.3-2.5-4.7 3.1-7.1 2-10.8-1-3.3-1-6 2.7-7.5 1.5-.6 2.2-2.1.5-2.9-5.2-2.4-10.5-2.8-16.1-.9-5.8 1.9 0 4.9-1.1 7.2-.3.6-.2 1.3-.3 2-1.3 8.7 6.4 17.9 16.1 18.2zm28.8 27.7c-6.7-.6-12-3.6-16.2 2.6-.6.8-2.2 1.9-2.6 1.7-5.1-3.3-9.8 2.4-14.9.5-1.4-.5-4.1.1-4.3 2.1-.2 2.1 2.3 2.3 3.9 2.9 4.4 1.8 7.6-3.3 11.3-2.4 8.4 2 14.9-1.4 22.8-7.4zm-32.3-15.5c.2-3.2-1.7-5.4-5.6-5.6-2.2-.1-5.9-.6-5.4 2.8.6 4.4 3.2 8.9 7.8 9.7 3.5.7 2.3-3.7 3.2-6.9zm49.2 12.3c.1-2.2-1.2-3.8-3.1-3.2-3.1 1-6.9.3-9.4 3.1 2.5 2.1 2.4 6.8 6.7 6.9 4.6.1 4.7-3.8 5.8-6.8zm-64.7 50.2c-1.4.2-3.5.2-3.1 1.7.8 3.2 3.8 3.8 6.7 4 1.2.1 3.3-.1 2.6-1.8-1.1-2.6-3.5-3.7-6.2-3.9zm85.8-69.8c1.8-.5 1.9-2.7 2.2-4.6.3-2.2-1.5-2.3-3.1-2.2-2.6.2-2.3 2.1-2.3 3.9-.1 1.9.4 3.1 3.2 2.9z"/><path d="M257.9 203.7c-1.4-1.7-2.8-3.5-4.3-5.2-.6-1.6-1.1-3.3-1.7-4.9v.2c1.2-2.5.5-4.1-2.2-5.1-3.3-1.2-6.4-2.9-9.7-4.1-12.3-4.5-13.2-5.9-7.1-16.8 2.2-4 7.2-6 12.4-6.3 11.4-.7 18.3 5.9 24.3 14.3.8 1.1 1.5 2.3 2.6 3.1 5.8 4.4 10.7 8.8 1.5 14.7-2.1 1.4-1 3.1-.2 4.7 1.7 3.6 1.1 6.5-2.8 8.1l.2.1c-2.5-1.2.6-7.9-5.4-5.6-2.6.8-5.1 1.8-7.6 2.8z"/></svg>