<?xml version="1.0" encoding="utf-8"?>
<!-- Generator: Adobe Illustrator 27.0.1, SVG Export Plug-In . SVG Version: 6.00 Build 0)  -->
<svg version="1.2" baseProfile="tiny" xmlns="http://www.w3.org/2000/svg" xmlns:xlink="http://www.w3.org/1999/xlink" x="0px"
	 y="0px" viewBox="0 0 800 800" overflow="visible" xml:space="preserve">
<g id="bg" display="none">
</g>
<g id="scratch" display="none">
</g>
<g id="counters_00000155831629897369998050000010902328751353074356_">
	<g id="berki_00000048470822394981968930000018392999697862192513_">
		<rect id="_x31__x2F_2_x22__800x800_00000170243093756513691340000002599287308509963432_" fill="none" width="800" height="800"/>
		<g id="su_ldr_sm_00000128452010854805253590000002742118310202996622_">
			<path d="M296.3,513.9c-1.5,0.7-1.7-0.1-1.8-1.1c-0.2-1.2-0.4-2.4-0.7-3.6c-0.4-1.2-0.7-2.3,1.5-2.3c-1.3-0.4-1.4-1.2-1.3-2
				c0.1-1.3,0-2.7,0.5-4c0.4-1.1-0.7-2.3-0.4-3.5c0.3-0.9-1.1-2.2,0.6-2.8c0.3-0.1,0-0.2-0.1-0.3c-1.1-0.7-0.9-2.1-0.7-2.9
				c0.6-2.9-1.1-4.7-2.6-6.7c-0.7-0.9-1.3-1.7-1.5-2.9c0-0.1-0.1-0.3-0.2-0.4c-1-0.6-1.1-1.7-1.6-2.6c-1.4-2.4-2.9-4.6-4.2-7.1
				c-0.2-0.5-0.7-1-1.2-0.8c-0.6,0.1-1,0.6-1.1,1.3c-0.2,0.6-0.1,1.4-1,1.4c-0.1,0-0.2,0.2-0.2,0.3c0.6,2.9-0.9,5.5-1.6,8.1
				c0,0.1-0.1,0.1-0.1,0.1c-0.2,3.3-2.4,3.6-5,3.4c-0.1,0-0.3,0.1-0.5,0.2c1,0.5,1.8,0.1,2.6,0.1c1.7,0,2.2,0.6,1.5,2.2
				c-1,2.4-1.1,4.9-1.6,7.4c-0.6,2.9-0.6,5.9-2,8.6c-1.1,2.2-2.6,4.1-3.9,6.2c-0.4,0.6-1.2-0.3-1.6,0.6c1.4,0.1,1.2,0.7,0.9,1.8
				c-0.4,1.3,0.6,2.9-0.1,4.2c-1.2,2.1-0.7,5-3.1,6.5c0.5,1.7-1.4,2.1-1.8,3.2c-0.2,0.6-1.8,0.8-0.7,1.9c-0.1,0.1-0.3,0.3-0.4,0.4
				c-2.2,1.1-2.3,3.7-3.6,5.4c0,0.1,0,0.2,0,0.3c-0.1,1-1.8,1.1-1.6,1.2c1.2,0.7,0.3,1.2-0.1,1.7c-0.4,0.6,0.1,1.8-0.8,2.1
				c-0.9,0.3-0.2,1.6-1.2,1.6c0.2,1.8-1.1,3-1.7,4.5c-0.3,0.8-0.9,1.3-1.7,1.7c-1.7,0.8-3.2,1.8-4.6,3.1c-0.4,0.4-0.8,0.8-1.3,0.9
				c-3.3,0.6-3.6,3.6-4.7,5.8c-0.5,0.9-0.1,2.3-0.4,3.4c-0.3,1.1-0.7,2.1-1.4,3.1c-0.3,0.4-0.1,1.4-0.4,2.3
				c-0.5,1.1-1.1,2.2-1.6,3.4c-1.7,3.6-2.9,7.3-4.5,10.9c-1,2.1-2,4.2-2.5,6.4c-0.4,1.6-1.6,2.9-1.7,4.6c-0.1,1.4-1.3,1.3-2.6,1.2
				c1.8,0.4,1.4,1.4,1,2.5c-1.1,3.1-2.6,6-5.1,8.2c-0.5,0.4-0.2,0.7-0.2,1.2c0.2,2.3,2.4,3.4,2.6,5.7c0.1,1.3,0.6,2.7,1.4,3.7
				c1.3,1.6,0.6,3.6,1.8,5.2c0.8,0.9-0.9,0.3-1,1c2.8-0.2,2.3,2.9,3.8,4.2c0.2,0.1,0.3,0.7,0.6,1c0.7,0.8-0.3,0.6-0.6,1
				c2-0.5,2.4,1.4,3.5,2.2c2.1,1.4,4,3,5.9,4.6c1.8,1.5,3.8,3,5,5.4c1.3,2.6,1.5,5.2,1.6,7.9c0,0.3,0.2,0.6-0.1,0.7
				c-1.5,0.6-2.7,1.9-4.2,2.3c-2.4,0.6-4.9,0.6-7.3,0.7c-1,0-2,0-2.7-1c-0.4-0.5-0.9-0.4-1.2,0.1c-0.5,0.8-1.2,0.9-1.9,0.9
				c-2.8,0.1-5.4-0.2-7.9-1.7c-0.4-0.2-0.9-0.3-1.4-0.2c-2.4,0.4-4-1-5.8-2.1c-1-0.7-2.3-0.7-3.3-1.5c-0.9-0.7-2.1-1-2.3-2.4
				c-0.1-0.4-0.5-1-0.9-1.1c-1.8-0.3-2.9-1.6-4.1-2.7c-1.4-1.3-2.9-2.5-3.9-4.1c-1.4-2.3-2.9-4.1-6.2-3.7c-2,0.3-4.3-0.2-5.7-2.3
				c-0.7-1.2-2.2-1.6-3.2-2.7c-1.7-2-3-4.4-5-6.2c-0.8-0.7-0.9-2.3-0.6-3.5c0.7-3.1,1.3-6.4,2.8-9.2c1.3-2.4,1.8-5.2,3.8-7.2
				c0.2-0.2-0.1-0.9,0.2-1.6c0.5-1.2,1.2-2.4,1.9-3.2c1.6-1.6,3-3.6,5.5-4.4c-1.7-0.6-1.1-2.2-1.4-3.4c-0.3-1.2-0.3-2.8,0.8-3.9
				c0.1-0.1,0.4-0.1,0.3-0.4c-0.4-3,1.4-5.6,1.4-8.5c0-0.9,0.8-1.6,1.2-2.4c1.1-2,0.7-4.4,1.6-6.4c1.3-2.9,1.9-6.1,3-9.2
				c1.5-4.2,3.7-8,4.9-12.3c0.4-1.3,1.1-2.6,1.9-3.8c1-1.5,1.6-3.1,2.4-4.7c0.2-0.3,0.4-0.8,0.3-1c-1.6-2.6,0.4-5,0.3-7.5
				c0-0.1,0.1-0.2,0.1-0.3c0.5-0.7-0.4-1.4,0-2.2c0.4-0.8,1.5,0.3,1.9-0.7c-2.1-0.5-2.1-0.5-0.8-2.3c0.1-0.1,0.1-0.3,0.1-0.4
				c-0.3-1.8,0.6-3.2,1.3-4.8c0.6-1.4,0.7-3,1.1-4.5c0.2-0.6,0.1-1.1,0.7-1.5c0.6-0.4,0.8-1.2,0.8-1.7c-0.1-1.9,1.2-3.4,1.4-5.2
				c0.1-0.7-0.5-0.8-0.4-1.6c0.2-1.7,0.7-3.6,0.3-5.2c-0.6-2.3-0.5-4.5-0.6-6.8c-0.1-2.1,0.1-4.2,1.3-5.9c0.3-0.5,0.3-0.7,0.1-1.1
				c-0.1-0.3-0.5-0.7-0.3-0.8c1.2-0.8,0.4-2.1,0.8-3.1c0.5-1.1,1.4-2,1.9-3.1c0.6-1.5,0.9-3.2,0.4-4.8c-0.3-1-1-2,0.2-2.9
				c-0.4-0.5-0.7-1,0.1-1.4c-0.9-1.3,0.4-1,1.1-1.2c-2-0.2-1.3-1.9-1.4-2.6c-0.1-3.3-0.3-6.7,0.2-10c0.1-0.7,0.5-1.5-0.2-2.2
				c-0.2-0.2,0-0.5,0.1-0.7c0.5-0.8,0.2-1.9-0.8-2.2c-1.8-0.6-3.2-1.9-4.9-2.6c-1.6-0.6-3.1-3.4-2.8-5c0.1-0.8-0.6-2,0.9-2.4
				c-1.1-1.1,0.1-2.2,0.1-3.3c0-1.6,0.6-3,1-4.5c0.5-1.8,0.1-3.7,0.8-5.4c0.3-0.8,0.3-1.9,0.3-2.8c0-1.2,0.9-2.1,0.7-3.3
				c-0.1-0.4,0.2-0.7,0.7-0.7c0.3,0,0.7-0.2,0.4-0.4c-1.3-1.1,0-2.4-0.3-3.6c-0.2-0.6-0.7-2,0.8-2.4c0.4-0.1,0.1-0.4-0.1-0.6
				c-0.5-0.6-0.3-0.9,0.1-1.5c0.6-0.7-0.2-1.7,0.4-2.6c0.4-0.6,0.2-1.5,0.7-2.2c0.5-0.7,0-1.2-0.9-1.4c-2.1-0.3-4.2,0.2-6.3,0
				c0-0.8,0.8-0.4,1.3-0.9c-3.2,0.5-5.3-1.2-7.3-3.2c-1.3-1.4-2.1-3.1-2.9-4.7c-0.9-1.7-1.6-3.4-1.9-5.3c-0.4-1.9-0.5-3.8-0.6-5.7
				c0-0.8-0.4-1.7,0.1-2.6c0.5-1.1-1-2.4-2.4-2c-2.8,0.8-5.7,0.6-8.5,1.2c-2.9,0.7-5.9,0.8-8.7,1.9c-1.7,0.7-3.7-1.2-3.6-3.3
				c0-0.6,0.1-1.2-0.2-1.7c-0.4-1.1,0.9-1,0.9-1.5c0.1-0.6-1.5,0-1.2-1.1c0.2-0.6-0.2-1.3,0.2-1.9c0.1-0.2,0.1-0.7,0-0.9
				c-1-1.7-0.4-3.5-0.2-5.1c0.2-1.8,0.4-3.6,0.7-5.4c0.2-1.6,0.3-3.3,0.4-4.9c0-0.4-0.1-0.9,0.5-0.9c0.6,0,1.1-0.5,1.7-0.1
				c0.3,0.2,0.3,0.4,0.1,0.6c-0.3,0.3-0.6,0.6-0.8,1c-0.3,0.5-0.8,1-0.5,1.6c0.3,0.6,0.9,0,1.3,0c0.4,0,0.8-0.1,0.9,0.5
				c0,0.4-0.4,0.5-0.7,0.5c-0.4,0.1-0.9,0.1-1.1,0.5c-0.2,0.3-0.4,0.7-0.3,1c0.1,0.5,0.6,0.3,1,0.2c2.1-0.4,4.3-0.3,6.2-1.6
				c0.8-0.5,1.9,0.6,2.7-0.3c0.6-0.7,1.5-0.7,2.3-0.9c2-0.4,4-0.7,6-0.8c1.3-0.1,1.2-1.1,1.3-1.8c0-0.9-0.8-0.5-1.4-0.5
				c-2.4-0.3-4.8-0.7-7.2-0.1c-0.4,0.1-0.9-0.2-1-0.7c0-0.5,0.5-0.5,0.8-0.6c1.5-0.2,2.2-1.8,3.7-2c0.3,0,0.5-0.4,0.4-0.7
				c-0.1-0.3-0.4-0.3-0.7-0.3c-0.8,0-1.6,0-2.4,0c-0.7,0-1.4,0.2-1.6-0.9c-0.1-0.6-0.8-0.6-1.2-0.6c-2.4,0.2-4.9,0.4-7.3,0.8
				c-1.9,0.3-0.9,2.1-1.1,3.2c-0.1,0.5,0,1.1-0.5,1.3c-0.3,0.1-0.8,0.3-1.1,0.2c-0.5-0.2-0.2-0.6-0.1-1c0.7-3.4,2.2-6.4,5.4-7.8
				c2.2-1,4.9-1.7,7.3-0.1c0.2,0.1,0.5,0.2,0.6,0c1.1-2.2,3-0.6,4.5-1.1c0.4-0.1,0.8,0.1,1.3,0.1c0.4,0,0.9-0.2,0.8-0.6
				c-0.3-1.4,1-2.5,1-3.7c0-3.2,1.5-6.4-0.1-9.6c-0.3-0.6-0.3-1.4,0.2-2c1.4-1.5,1.6-3.3,1.3-5.2c-0.1-0.5-0.1-1.1,0.2-1.4
				c1.5-2.1,0.9-4.7,1.9-6.9c0.4-0.9,1.3-1.6,1.4-2.7c0.1-2.2,0.2-4.5,0.4-6.7c0.2-2.5,0.9-4.8,2.5-6.7c0.3-0.3,0.5-0.5,0.4-1
				c-0.2-2.4,1.1-4.3,2.4-6.1c0.7-0.9,0.8-1.9,0.6-2.8c-0.4-1.9-1.1-3.6-2.2-5.2c-0.9-1.3-1.8-2.8-1.7-4.5c0.1-2.7,0.1-5.3,0.5-8
				c0.3-1.7,0.5-2.9,2.8-2.3c-0.6-0.9-1.7-0.3-2.1-1.1c-0.4-0.8,0.1-1.6,0.2-2.3c0.4-2.3,0.9-4.6,1.4-6.9c0.2-1.1,1.5-2,0.9-3.3
				c0,0,0.3-0.3,0.5-0.3c3-0.9,3.6-3.5,4.3-6.1c1-3.7,2.3-7.3,5.8-9.5c0.5-0.3,1-0.8,1.6-0.4c0.5,0.3,0.6,0.1,0.7-0.4
				c0.1-0.2,0.4-0.5,0.4-0.4c1.6,1.2,2-1,3.2-1.1c1.4-0.1,2.7-0.5,4.1-0.7c1.7-0.3,3.3-1.1,5.1-1c1.7,0.1,3.3-0.2,4.9,0.6
				c0.9,0.5,2,0.3,3.1-0.2c2.5-1.1,3.9-3.5,6.2-4.7c0.7-2.9,3.3-2.5,5.3-3.1c0.9-0.3,1.3-0.6,1.6-1.6c0.1-0.5-0.2-1.6,0.9-1.5
				c0.1,0,0.2-0.1,0.2-0.2c0.1-2.1,0.2-2,1.5-3.5c0.8-0.8,0.8-2,0.8-3.1c0-1.2-0.1-2.3,1.7-2c0.9,0.2,0.5-0.6,0.5-0.9
				c-0.1-1,0.2-1.5,1.4-1.1c0.6,0.3,1.1,0.3,1.5-0.5c-0.9,0-1.6-0.6-2.5-0.4c-0.4,0.1-0.5-0.1-0.6-0.5c-0.5-1.8-1.6-3.3-1.7-5.2
				c0-0.7-0.5-0.7-1-0.8c-1.4-0.3-2.8-0.2-4.2-0.1c-1.1,0-1.8-0.4-2.6-1.1c-0.4-0.3-0.9-0.9-0.6-1.2c1.3-1.1-0.3-2.6,0.6-3.9
				c0.7,0.4,1,1.9,2,1.1c0.7-0.6,1.7-0.3,2.5-1.2c-1.5-0.2-2.8-0.4-3.9-1.1c-0.3-0.2-0.6-0.3-0.5-0.7c1.2-3.5,0.5-7.2,1-10.8
				c0.4-2.7-0.1-5.4,0.3-8c0.4-2.5,0.9-5,2.2-7.3c0.8-1.5,1.5-3,2.3-4.5c0.5-1,1.4-1.4,2.1-2.1c2.7-2.7,5.9-4.8,9.3-6.7
				c1.5-0.8,3.3-1.3,4.8-2.4c0.9-0.7,1.8,0.3,2.9,0.1c-0.5-0.6-0.7-1.2,0.4-1.3c4.1-0.3,8.2-0.6,12.3-0.4c1.9,0.1,3.6,1,5.4,1.4
				c3.8,0.8,6.8,3.4,9.9,5.4c1.8,1.1,3.2,3.1,4.5,4.8c1.1,1.5,1.7,3.3,2.7,4.9c0.5,0.9,1,2.1,1.3,3.3c0.2,0.9,0.8,1.7,1.1,2.6
				c0,0,0.1,0.1,0.1,0.1c0,2,1.5,3.6,1.8,5.5c0.3,1.8,0.7,3.5,1.3,5.1c0.7,1.7,1.2,3.6,2.6,4.9c0.7,0.6,0.1,1-0.5,1.4
				c1.6,0.9,3,2,4.2,3.2c0.9,1,0.8,1.6-0.4,2.2c-0.4,0.2-0.8,0.3-1.2,0.4c-1.1,0.2-1.9,0.5-2.9,1.1c-1.2,0.8-2.8,0.9-4.2,1.3
				c-0.7,0.2-1.4,0.3-2,0.4c-1.7,0.4-2.2,1.2-1.6,2.8c0.3,0.8,0.1,1.7,0.5,2.5c0.3,0.6-1.4,2-2.6,2c-0.9,0-2,0.2-1.8-1.3
				c0.1-0.5,0-1-0.7-1.1c-0.6-0.1-0.9,0.3-1.1,0.7c-0.2,0.3-0.3,0.7-0.5,1c-0.1,0.2-0.2,0.4-0.3,0.6c-1.1-0.6-2.3,0.3-3.5-0.2
				c-0.8-0.3-1-1-0.9-1.9c0.1-0.4,0-0.8-0.4-1c-0.4-0.2-0.7,0-1,0.3c-0.3,0.5-0.9,1-1.3,0.5c-1.1-1.4-1.1-0.6-1.2,0.4
				c-0.2,1.9-1.7,2.2-3.3,2.6c0.2-0.8,0.4-1.5,0.6-2.1c0.2-0.3,0.8-0.6,0.3-1c-0.4-0.4-1.1-0.1-1.4,0.4c-1.1,1.7-2.7,3.1-3,5.3
				c-0.2,1.6-1,3.1-1.8,4.5c-0.6,1,0.3,1.8,0.2,2.6c-0.1,1.1,0.2,1.6,1.3,1.8c0.5,0.1,0.8,0.4,1,1c0.5,2.1,1.5,4,2.2,6
				c0.1,0.3,0.1,0.6,0.5,0.7c1.1,0.3,2.5,0.3,2.1,2.2c0,0.1,0.6,0.6,0.9,0.5c1.4-0.2,1.7,0.7,2.2,1.8c0.6,1.4,2.2,1.5,3.3,1.2
				c1.3-0.4,2.7-0.8,4-1.5c0.7-0.4,1.1-1,0.9-1.7c-0.6-1.5-0.4-3.4-2.1-4.4c-0.4-0.2-0.7-0.6-1-1c-0.6-0.6-0.5-1.1,0.2-1.4
				c1-0.4,2.2-0.3,3.1,0.1c0.7,0.3,0.2,1.4-0.1,2.2c-0.3,0.6-0.4,1,0,1.7c1.6,2.8,0.5,5.7-2.4,7.1c-1.4,0.7-2.9,1-4.4,1.4
				c-0.7,0.2-1.6-0.3-2.4-0.4c-0.7-0.1-1.4-0.1-2,0.3c-1.1,0.8-1,1.5,0.2,2c1,0.4,1.8,1.2,2.9,1.2c0.2,0,0.5,0.2,0.5,0.3
				c0.3,1.6,1.7,1.7,2.8,2.2c3.9,1.9,6.4,5,8.2,8.8c0.1,0.1,0.2,0.3,0.3,0.4c2.9,1.7,4.2,4.6,5.7,7.4c1,1.9,2.1,3.8,2.3,5.8
				c0.1,1.6,1.8,2.8,1.1,4.6c2.3,1.6,1.8,4.3,2.5,6.5c0.3,0.9,1,1.9,0.3,2.9c-0.1,0.1,0.1,0.6,0.1,0.6c1.7-0.2,2.1,2.1,3.6,2
				c1,0,1.9,0.7,2.1,1.3c0.4,1.3,1.4,1.7,2.3,2.3c2,1.1,3.3,3.1,5.4,4.1c2.6,1.2,5.1,2.8,7.9,3.8c0.5,0.2,1.1,0.1,1.6,0.2
				c0.7,0,0.8-0.5,1-1c0.3-0.7-0.2-0.8-0.6-1c-1.9-1.1-2-2.2-0.5-3.8c0.8-0.8,0.9-2.1,2.3-2.3c0.2,0,0.3-0.4,0.2-0.7
				c-0.8-2,0.8-2.9,1.9-3.9c0.8-0.8,1.7-1.4,2.4-2.4c0.8-1.1,2.3-1.8,3.7-1.6c1.5,0.1,2,1.3,2.3,2.7c0.2,1,0.3,1.9,0.4,2.9
				c0.2,2.2,1.8,2.9,3.7,1.7c0.4-0.3,0.9-0.5,1.4-0.8c2.3-1.7,4.3-1.1,5.5,1.6c0.1,0.1,0.2,0.3,0.2,0.4c0.1,0.6-1,1.2,0.4,1.7
				c0.7,0.2,1.1,1.2,1.9,1.6c0.5,0.2,0.8,0.5,1,1.1c0.3,1.3,0.8,2.6,2.4,2.8c0.1,0,0.2,0.1,0.2,0.2c0.4,0.7,1.7,0.9,1.5,1.7
				c-0.2,0.8-1.3,0.4-2,0.5c-0.9,0.2-1.4,0.3-1.4,1.4c0,0.7-0.3,1.6-0.7,2.3c-0.3,0.5-0.4,0.9,0.2,1.1c0.6,0.3,0.8,1.5,1.4,1.1
				c0.6-0.5,1.4-1,1.8-1.9c0.2-0.4,0.1-0.7-0.2-1c-0.7-0.6-0.9-1.5-0.5-2.1c0.5-0.7,1.5-0.6,2.2-0.1c0.2,0.7-1.1,0.7-0.6,0.9
				c0.7,0.3,0.1,1.3,1.3,1.4c1.8,0.1,3.4,2.5,3,4.3c-0.4,2,0.7,3.5,1.6,5.1c0.8,1.3,0.7,2.4-0.4,3.4c-0.2,0.2-0.5,0.3-0.4,0.6
				c0.6,1.4-0.5,1.9-1.4,2.1c-1.6,0.5-2,1.6-1.8,2.9c0.2,1.9-0.5,3.1-1.7,4.5c-0.8,1-1.4,2.3-2.6,3.1c-1,0.8-2.1,1.6-3,2.5
				c-1.5,1.5-3.9,1.7-5.9,2.5c-0.9,0.4-2.5-0.8-3.4-1.8c-0.4-0.4-0.2-1.5-1.2-1.1c-0.7,0.3-1,1.2-0.8,1.9c0.2,0.8,0.1,1.4-0.4,2
				c-0.8-0.2-0.7-1-1.3-1.6c-0.3,1.8-0.1,3.4-0.4,5c-0.3,1.2,0.4,1.4,1.8,0.4c-1,2.5-0.8,5-3.1,6.3c0.8,1.6,2.5,1.8,4.2,1.9
				c5.6,0.4,11.2,0.5,16.7,1.4c4,0.7,8.1,0.9,12.1,1.2c5,0.5,9.9,1.5,14.9,1.3c0.5,0,1.2,0,1.6,0.3c1.5,1.2,3.2,1,4.9,0.9
				c2.8-0.1,4.6-1.6,5.3-4.2c0.6-2.3,3.9-3.3,5.7-1.8c0.6,0.5,0.3,1.2,0.3,1.8c0.2,3.7,1.8,5.5,5.4,5.8c3.8,0.3,7.4,1.1,11.2,1.2
				c2,0,2.8,2.1,1.5,3.8c-1.6,2-2.6,4.2-3.6,6.5c-0.3,0.6-1,0.8-1.8,0.8c-3.6-0.1-7.2-0.4-10.8-1.2c-2.1-0.5-4.3-0.1-6.5-0.3
				c-4.3-0.5-8.6-0.7-12.9-1.3c-0.9-0.1-1.8,0-2.7-0.1c-7.2-1.2-14.4-1.7-21.7-2.1c-2.2-0.1-4.4-0.1-6.5-0.4
				c-0.8-0.1-1.4-0.6-2.3-0.7c-2.1-0.2-3.6,1.1-5.3,1.8c-2.2,1-4.3,0.3-6.4,0.2c-1.9-0.1-3.7-0.3-5.6-0.2c-0.7,0-1,0.3-1.2,1
				c-0.7,2.5-1.2,5.1-2.8,7.3c-0.4,0.6,0.4,1.2,0.3,1.6c-0.8,4-0.5,8.1-1.1,12.2c-0.1,1-0.3,1.5-1.7,1.6c0.8,0.4,1.4,0.1,1.1,1.1
				c-0.3,1.3-0.6,2.7-0.3,4.1c0.2,0.7-0.2,1.5-0.4,2.1c-0.8,3.2-1.2,6.5-2.4,9.6c-0.2,0.7-0.4,1.6-1.3,0.5c-0.3-0.4-0.8-0.3-1.1,0
				c-0.2,0.2-0.4,0.4-0.2,0.7c0.3,0.5,0.6,0.2,1,0.1c1.1-0.3,1.4,0.2,1.1,1.2c-0.3,1-0.6,1.9-0.8,2.9c-0.3,1.4-1.2,2.1-2.8,1.9
				c-2.4-0.3-4.9-0.4-7.4-0.5c-0.7,0-1.4,0-2.1,0.2c-0.5,0.1-0.9,0.2-0.4,1.2c0.7,1.6,1.2,3.4,1.6,5.1c0.4,1.9,1.2,3.5,1.7,5.3
				c0.2,0.9,0.7,1.7,0.4,2.7c0,0.1-0.1,0.2-0.1,0.3c1.4,2.3,1.8,3.7,2.1,5.9c0.3,2.1,1.6,3.9,1.8,6.1c0.2,2.2,0.9,4.4,0.9,6.7
				c0,1.5-1.3,1.8-1.8,2.8c-0.4,1-1,1.7-0.3,2.9c0.3,0.6,0.3,1.7,0.4,2.6c0.2,1.2,0.5,2.4,0.7,3.7c0.1,0.6-0.2,1.1,0.4,1.8
				c1.1,1.3,0.1,3.2,0.3,4.8c0.1,0.5-0.9,0-0.9,0.8c1.2,0,2.2,0.2,1.4,1.8c-0.2,0.4,0.3,0.3,0.5,0.4c1.6,0.6,2.7,2.5,2.1,4.2
				c-0.4,1.1,0.1,1.9,0.2,2.7c0.4,1.7,0,3.5,0.8,5.1c1.1,2,1.2,4.3,1.7,6.5c0.3,1.3,0.6,2.7-0.2,4.1c-0.1,0.2,0.8,0,0.7,0.7
				c-0.1,0.9,0.7,1.7,0,2.6c0.9,0.6-0.4,1.8,0.7,2.5c0.4,0.2,0.5,1.8,0.2,2c-1.1,0.8-0.4,1.1,0.2,1.5c0.9,0.7,0.4,1.6,0.2,2.2
				c-0.8,2.6-1.1,5-0.1,7.7c0.4,1,1.3,2,1.1,3.4c-0.3,1.4-0.3,2.9-0.2,4.3c0.2,2.7-0.3,5.3-0.3,8c0,2.7,0.3,5.4-0.6,7.9
				c-0.4,1,0.7,3-1.5,3.3c1.4,0.3,1.4,1,1.3,2.1c-0.1,1.1-0.1,2-0.7,3.1c-0.6,1.2-1.2,0.6-1.8,0.7c-0.7,0.2-1-0.4-0.8-1.2
				c0.1-0.3-0.1-0.5-0.4-0.6c-0.3-0.1-0.7,0.1-0.8,0.4c-0.7,1-0.6,2.3-1,3.4c-0.2,0.5,1,0.8,1.1,0.3c0.4-1.3,2.1-0.5,2.6-1.6
				c0.1-0.2,0.7-0.2,1,0.1c0.4,0.3,0,0.5,0,0.8c-0.3,1-0.4,1.9-0.3,3c0.1,0.8,0.2,1.7-0.3,2.5c-0.7,1.2-0.7,2.6-0.7,4
				c0,1.4-0.4,2.7-0.9,4c-0.5,1.3-1.1,2.5,0,3.8c0.5,0.5,0,1.1-0.2,1.5c-0.5,1.4,0.7,2.8-0.1,4.2c-0.8,1.5,0.1,3,0,4.6
				c-0.1,1.6-0.3,2.5-2.1,2.1c0,0.6,0.3,0.6,0.7,0.6c1.4-0.2,1.8,0.9,1.5,1.6c-0.3,0.9,0,2.1-0.9,2.8c-0.1,0.1-0.2,0.2-0.1,0.4
				c1,2.9,0,5.7-0.2,8.6c-0.2,2.8-0.8,5.6-0.5,8.4c0.1,0.8-0.2,1.5-0.2,2.2c0,0.8-0.2,1.6-1.6,1.2c1.4,0.5,1.3,1.5,1.2,2.4
				c-0.2,1.8,0.3,3.7-0.2,5.5c-0.3,1.2-0.4,2.4-0.1,3.6c0.2,1-0.7,0.9-1.2,1.2c0.1,0.7,1.3,0.4,1.1,1.3c-0.2,0.7-0.6,1.1-1.2,1.4
				c-0.8,0.4-0.9,1.8-2.2,1.6c0.7,0.8,1.5,1,2.5,1.1c0.5,0.1,1.1,0,1.3,0.5c0.3,0.9-1,0.2-0.9,1c0.8,0.1,2.2-0.4,1.3,1.4
				c-0.2,0.4,0.4,0.6,0.8,0.9c2.4,1.8,4.8,3.4,6.7,5.8c0.4,0.5,1,0.7,1.5,1.1c1.3,1.2,2.6,2.7,4.2,3.1c1.7,0.5,3.1,1.5,5,1.6
				c1.9,0.2,4,0.6,5.9,1.1c3,0.8,5.5,2.7,8,4.6c0.8,0.7,1.3,1.4-0.5,1.7c2.1,0.4,2.7,1.2,2.9,3.5c0.2,1.6-0.5,3.3,0.3,4.9
				c0.2,0.4-0.3,0.8-0.7,0.9c-3.2,1.5-6.6,2.9-10.1,3.3c-4.1,0.4-8.2,0.7-12.3,0.4c-2.1-0.2-4.1,0.4-6.1,0.8c-1,0.2-1.9,0.2-2.9-0.3
				c-1.4-0.7-3-0.8-4.6-0.7c-1.6,0.1-3,0.1-4.3-1.4c-1.1-1.3-3.1-0.6-4.7-0.9c-0.5-0.1-1,0.1-1.6-0.1c-1.7-0.7-3.5-0.3-5,0.5
				c-4.7,2.7-9.8,2.9-15,2.3c-0.8-0.1-1.9,0.6-2.4-0.7c-0.1-0.2-0.2-0.1-0.4,0c-1.8,1.2-3.4,0.5-3.7-1.5c-0.1-1.1-0.7-2.2,0.1-3.3
				c0,0,0-0.1,0-0.2c-1.7-1.5-0.2-2.1,1.2-2.8c-2.6-0.1-1.6-2.1-1.9-3.1c-0.3-1.1,0.3-2.5,0.3-3.7c0-0.9,0.5-0.9,1.4-0.9
				c-0.8-0.2-1.9-0.1-0.9-1.1c0.6-0.6,0.8-1.7,0.7-2.2c-0.6-2.9,1.7-4.6,2.9-6.7c0.6-1.1,0.7-3.7-0.2-4.7c-0.6-0.7-0.9-1.4-1-2.3
				c0-0.7-0.2-1.5,1.2-1.5c-1.2-0.2-1.2-0.8-1.2-1.7c-0.1-1.9-0.4-3.9-0.7-5.8c-0.3-2.5,0.5-4.9,0.4-7.4c-0.1-1.8-0.1-3.6-0.2-5.4
				c-0.1-1.2,0.1-2.5-0.3-3.7c-0.1-0.4-0.2-1.3,0.7-0.5c0.1,0.1,0.3,0,0.4-0.2c0.1-0.3-0.1-0.5-0.4-0.6c-1.2-0.5-0.6-1.6-0.8-2.4
				c-0.2-0.7,0.8-0.3,1.1-0.9c-1-0.1-1.1-0.7-1.1-1.6c0-3.7,0.4-7.3,0.4-10.9c0-4.6-0.3-9.3,0.1-13.9c0.1-1.1,0-2.3,0.2-3.5
				c0.2-1-0.7-1.4-1-2.1c-0.2-0.4-0.5-0.7-0.1-1.2c0.4-0.4,0.7-0.2,1.1,0c0.7,0.5,1.7,0.7,2.2,1.5c0.1,0.2,0.5,0.3,0.7,0
				c0.1-0.1,0-0.4-0.1-0.6c-1.2-1.2-2.3-2.6-4.3-1.7c-0.6,0.3-0.9-0.3-0.9-0.8c0-1.1-0.3-2.3-0.4-3.3c-0.1-1.5-0.6-2.9-0.5-4.5
				c0.1-1.8,1.1,0,1.5-0.4c0-0.1,0.1-0.2,0.1-0.3c-3-1.9-2.8-5.3-3.6-8.2c-0.7-2.5-1.9-5-1.9-7.7c0-1.7-1-3.1-1-4.9
				c0-1-0.7-2.1-1.2-3.2C295.3,515.8,294.7,514.8,296.3,513.9z M333.9,472.9c-1.5-0.7-2.6,0.6-4,0.7c-0.7,0.1-0.3,1.1-0.6,1.7
				c-0.2,0.4,0.4,0.5,0.8,0.6c0.5,0.1,1-0.1,1-0.8c0-0.4,0.3-0.8,0.5-0.7C333.2,475,333.3,473.6,333.9,472.9
				c0.4-0.3,0.9-0.5,1.4-0.7c1.2-0.7,0.6-1.7,0.3-2.5c-0.4-1.1-1.1-0.3-1.7,0C332.4,470.7,333.6,471.8,333.9,472.9z M240.3,504.2
				c0,0.2-0.1,0.3-0.1,0.5c0.1,0.6,0.3,1.2,1,1.3c0.6,0.1,1-0.5,1.2-0.9c0.2-0.6,0.1-1.4-0.4-1.8c-0.6-0.4-0.7,0.6-1.2,0.8
				C240.6,504.2,240.4,504.2,240.3,504.2c-0.4-1-1.2-1.6-2.1-2.2c-0.6-0.3-1.3-0.1-2-0.5c-0.9-0.6-2-0.4-2.8,0.3
				c-0.2,0.2-0.9,0.2-0.7,0.7c0.2,0.6,0.7,0.3,1.1,0.2c1.4-0.6,1.2,0.2,0.9,1c-0.1,0.3-0.4,0.6-0.1,0.9c0.3,0.4,0.7,0.1,1,0
				c0.5-0.1,0.9-0.4,1-1c0.1-0.5,0.1-1.1,0.8-0.9c0.6,0.2,1.6,0.2,1.7,1.2c0,0.4-0.4,0.9,0.2,1.1
				C239.8,505.3,239.9,504.5,240.3,504.2z M236.7,309.6c-0.3,0.4,0,0.8,0,1.2c0.3,1.6,1.3,3.2-0.3,4.7c-0.4,0.3,0.2,0.8,0.4,1.1
				c0.2,0.3,0.7,0.2,0.8,0c0.5-0.7,1.2-1.1,1.2-2.2c0-0.9-0.8-1.6-0.5-2.4C238.7,310.4,237.9,309.9,236.7,309.6
				c0.6-0.7,0.5-1.7,1.1-2.5c0.3-0.4,0.3-1.3-0.4-1.5c-1.1-0.2-1.7-1-2.4-1.7c-1-0.9-1.4-0.7-1.7,0.7c-0.3,1.4-1.7,2-2.9,1.2
				c-0.6-0.4-1.3-0.6-1.6-0.2c-1.2,1.5-3.3,1.2-4.7,2.4c-0.6,0.5-1.6,1-2.1-0.3c-0.5-1.5-1.2-1.7-2.5-1c-0.6,0.4-1.1,1.4-1.8,1.1
				c-2.2-0.9-3.4,0.8-4.9,1.7c-1.1,0.6-1,1.9-0.8,2.8c0.2,0.8,1.3,0.4,2,0.2c1.9-0.5,3.9-0.4,5.9-0.8c0.6-0.1,1.9-0.1,2.7,0.4
				c0.3,0.1,0.6,0.4,0.7,0.6c0.1,0.4-0.3,0.6-0.5,0.7c-1.5,0.4-2,1.6-2.8,2.8c1.5-0.2,3.5,0.6,4.4-0.7c1-1.4,2.2-1.7,3.5-1.9
				c1.5-0.1,2.8-0.6,4.1-1.2c0.4-0.2,1-0.3,1-1.1c-0.1-1.6,0.8-2,2.2-1.9C235.8,309.6,236.2,309.6,236.7,309.6z M267.4,431.3
				c1.3-0.1,2.5-0.6,3.7-0.9c0.9-0.2,1.7-0.3,2.1,1c0.3,0.9,0.4,1.8,0.6,2.6c0.2,0.7,0.6,1.3,1.4,1c0.9-0.3,0.3-0.9,0.1-1.4
				c-0.4-0.8-0.3-1.6,0.7-1.6c0.9-0.1,1.9,0.7,2.2,1.2c0.7,1.3,1,2.9,1.3,4.3c0.1,0.4-0.2,1,0.5,1.2c0.5,0.1,0.9-0.1,1.1-0.6
				c0.3-0.6,1.1-0.6,1.1-0.1c-0.1,1.7,1.1,1.4,2.1,1.5c0.5,0.1,0.8,0.2,0.9,0.7c0.2,0.8,0.5,0.7,1.1,0.2c1.2-1,2.6-1.6,4.3-1.3
				c1.3,0.2,1.6-0.5,1.4-1.6c-0.2-0.8-0.4-1.5-0.6-2.2c-0.1-0.4-0.1-0.8,0.3-1c0.5-0.2,0.9,0.1,1,0.5c0.2,0.8,0.5,1.6,0.1,2.3
				c-0.3,0.6-0.1,1,0.3,1.4c0.8,0.6,1.7,0.3,2.5,0.1c0.7-0.2,0.5-0.8,0.4-1.4c-0.4-2.4-0.9-4.8-0.5-7.2c0-0.2,0-0.4-0.1-0.6
				c-0.3-1.9-1-3.9-0.6-5.9c0.2-0.9-1.1-1.6-0.6-2.6c-1-0.4-2-1.1-2.7,0.7c-0.1-1.1-0.3-1.9,0.4-2.9c-0.7,0.1-1.7,0.5-1.8-0.5
				c-0.1-1.2-0.9-1.9-1.3-2.9c-0.3-0.6-0.5-1.2-0.2-1.9c0.5-1.2,0-1.9-1.3-2.1c-2-0.2-2.7-1.3-2.5-3.3c0.1-0.9,0.1-1.9,0.1-2.8
				c0-0.9-1-1.2-1.5-1.4c-0.7-0.3-0.6,0.8-0.9,1.2c-0.2,0.4,0.1,1.1-0.7,1.3c-0.4-1-0.8-2.1-1.3-3.1c-0.2-0.6-0.7-0.8-1.3-0.7
				c-0.6,0.1-1.3,0.6-1.2,0.9c0.2,1.4-0.5,2.7-0.6,4c-0.1,1.3,0.4,2.5,0.2,3.8c-0.2,1-0.4,1.5-1.5,1.3c-0.4-0.1-0.8-0.2-1.1,0.1
				c-1.2,0.8-1.2-0.1-1.3-0.9c0-0.5,0.2-1,0.3-1.6c-1.7,0.6-3.3,1.1-4.1-1.1c-0.1-0.1-0.5-0.2-0.7-0.2c-1.2-0.1-1.5-0.8-1.3-1.9
				c0.1-0.6,0-1.1-0.6-1c-0.9,0.2-1.9,0.4-2.5,1c-1.1,1.1-2.4,2.4-1.8,4.3c0,0.1-0.2,0.2-0.3,0.3c-0.1-0.1-0.2-0.2-0.3-0.2
				c-0.1-0.4-0.2-0.7-0.3-1.1c-0.5-2.8-0.6-2.6-3.3-3.4c-0.9-0.2-2,0.2-2.8-0.8c-0.2-0.3-1.1-0.1-1.3,0.5c-0.6,1.2-1.7,1.1-2.6,0.7
				c-1.1-0.5-1.1,0.1-1.2,0.8c-0.1,0.4,0.1,1.1-0.8,0.7c-1.3-0.6-2.2-1.5-1.9-3.1c0.1-0.4,0.2-0.9-0.1-1.2c-0.2-0.3-0.2-0.9-0.9-0.7
				c-0.4,0.2-1.1,0.6-0.8,1c0.5,0.9-0.8,1.6,0.1,2.6c0.5,0.5-1.1,2.2-1.9,2.1c-1-0.1-1.4,0.2-1.3,1.2c0,1.5,0.4,3,0.3,4.6
				c-0.1,1.3-0.6,3.1-1.8,3.5c-0.7,0.2-1.3,0.1-1.4,1.2c-0.1,0.7-0.1,1.6,0.2,1.9c0.8,0.8,0.5,1.5,0.4,2.4c-0.1,1-0.8,2-0.1,3.1
				c0.1,0.2,0,0.4-0.3,0.5c-0.2,0.1-0.5,0-0.4-0.3c0.1-1-1.2-1.7-0.7-2.9c0.2-0.5-0.2-0.8-1-1c0.3,1.9-1.6,3.6,0.1,5.4
				c0.1,0.1,0,0.3,0,0.5c0.1,2-0.9,3.9-0.4,6c0.1,0.4-0.2,1-0.6,1.5c-1.3,1.4-1.4,3.9-0.2,5.3c0.3,0.4,0.6,0.4,1,0.3
				c0.3-0.1,0.8,0,0.7-0.4c-0.3-0.8,0.4-1.3,0.5-1.9c0.1-0.4-0.1-1,0.5-1c0.6,0,0.4,0.6,0.5,1c0.1,0.4,0.2,0.9,0.7,0.9
				c0.5,0,0.8-0.3,0.9-0.8c0.1-0.8,0.6-1.3,1-2.1c0.4,0.8,0.5,1.6,0.1,2c-0.9,0.9,0.4,1.6,0.1,2.4c0.9,0.2,1.2-0.3,1.5-1
				c0.1-0.3,0.4-0.3,0.7-0.3c0.7,0,0.8-0.4,0.8-1.1c0-1.1,0.1-2.2,0.2-3.3c0.1-0.7,0.2-1.2,1.3-0.8c0.9,0.4,2.1,0.9,3.1,0.5
				c1.2-0.5,1.9-0.5,2.4,0.8c0.1,0.3,0.3,0.5,0.6,0.4c0.1,0,0.3-0.2,0.3-0.3c-0.3-1.6,0.7-3.2,0.4-4.8c-0.1-0.6-0.1-1.3,0.8-2
				c-0.1,1.2,0.3,2.1-0.2,3c-0.2,0.5,0.1,1,0.5,1.4c0.2,0.2,0.5,0.1,0.7-0.1c0.5-0.4,0.3-0.9,0.2-1.3c-0.1-0.4-0.4-0.8-0.4-1
				c0.6-2,0.1-3.9,0-5.9c-0.1-1.4,1.2-2.1,2-3c0.3-0.3,0.8-0.3,1,0.3c0.5,1.8,1.3,3.6,0.9,5.6c0,0.3-0.1,0.5,0.1,0.7
				c0.8,1.4,0.8,1.4,0.2,2.7c-0.1,0.3,0,0.3,0.2,0.4c0.5,0.2,0.8,1,1.6,0.6c0.3-0.2,0.3-0.3,0.2-0.6c-1-2.1-0.5-4.4-1.2-6.6
				c-0.4-1.2,0.1-2.4,1.2-3.2c0.8-0.6,1.4-0.6,1.5,0.5c0.2,1.8,0.8,3.6,0.7,5.5c0,0.8,0,1.8,0.5,2.2
				C266.3,432.6,266.8,431.5,267.4,431.3L267.4,431.3z M229.6,327.4c-0.2-0.3-0.7-0.5-0.8-0.9c-0.4-1.2-1.1-1.1-2.1-0.9
				c-1,0.1-1.4,1-2.4,1.1c-4.4,0.4-7.7,2.7-10.3,6.2c-0.4,0.6-1.1,1.2-1.9,0.6c-0.8-0.6-0.1-1.1,0.2-1.6c0.2-0.3,0.3-0.6,0.3-1
				c0.2-1,0.7-1.6,1.5-2.3c0.8-0.7,2.2-0.8,2.6-1.7c0.7-1.5,2.1-2,3.4-2.6c1.2-0.5,2.3-0.9,2.9-2.3c0.2-0.5,0.8-1,0.2-1.5
				c-0.5-0.4-1.2-0.6-1.8-0.1c-0.7,0.5-1.5,0.8-2.4,0.8c-1.5,0-1.7-0.3-1.2-1.7c0.1-0.3,0.1-0.7,0.2-1.1c0.4-1.3-0.1-1.2-1.1-0.9
				c-1.5,0.4-2.6,1.5-3.8,2.3c-2.2,1.4-5.2,1.4-7.1,3.7c-1.3,1.6-3.5,2.2-4.6,4.3c-0.7,1.3-0.7,2.5-0.3,3.7c0.2,0.8,1.1,1,1.8,0.3
				c1-1,2.2-1.8,2.9-3.2c0.5-0.9,1.8-1.4,1.8-2.8c0-0.1,0.6-0.2,0.9-0.3c0.9-0.3,2,0.2,2.9-0.7c0.2-0.2,1.4-0.1,1.7,0.5
				c0.2,0.6,0,1.3-0.4,1.8c-0.3,0.4-0.8,0.7-1,1.2c-1.1,1.9-2.1,3.9-3.6,5.4c-1.5,1.4-2.1,3.1-3.1,4.7c-0.4,0.7-0.2,1.2,0.4,1.8
				c0.7,0.7,1,0.2,1.4-0.2c1.1-1.4,2.7-2.4,4.2-3.3c2.1-1.3,4.4-2.4,6.3-4c0.5-0.5,1.3-0.9,1.8-0.1c0.5,0.8-0.3,1.2-1,1.5
				c-1.3,0.5-2.1,1.5-2.1,2.8c0.1,1-0.3,1.9-0.8,2.3c-1.8,1.1-2.1,3.2-3.4,4.6c-0.5,0.5-0.6,1.3-0.1,1.7c0.6,0.5,1.2,1.2,2.1,0.8
				c0.5-0.2,0.8-0.6,0.2-1.2c-0.8-0.8-0.8-1.9,0-2.6c1-0.7,2.4-0.5,3.5-0.8c0.7-0.1,0.7,0.5,1,0.8c0.3,0.4,0.8,0.6,1.1,0.3
				c1.1-1.1,2.4-0.9,3.7-0.9c1,0,1.2-0.5,0.8-1.3c-0.3-0.4,0.1-0.5,0.2-0.8c1.1-1.4,2.2-1.3,3.7-0.5c1.2,0.6,1,1.2,0.3,1.7
				c-1,0.8-1.8,1.6-2.1,2.9c-0.2,0.6-0.7,0.4-1.2,0.4c-2.2,0-3.4,1.1-3.5,3.2c0,0.2-0.2,0.4-0.3,0.5c-0.1,0.3-0.8,0.4-0.4,0.8
				c0.3,0.3,0.7,0.2,1.1,0.1c0.3-0.1,0.7-0.4,1.1-0.1c-0.2,0.3-0.4,0.5-0.5,0.8c-0.2,0.4-1,0.7-0.3,1.3c0.6,0.6,1,0.4,1.4-0.2
				c0.2-0.2,0.5-0.5,0.7-0.3c0.8,1,1.5,0.6,2.3-0.1c0.2-0.2,0.6-0.2,0.9,0.1c1.8,1.2,2.9,1.1,4.4-0.2c0.6-0.6,1.5-0.7,2.4-0.6
				c0.3,0,0.5,0.3,0.4,0.6c-0.1,0.7,0,1.5,0,2.2c-0.2,1.7-0.2,1.8,1.6,1.5c0.4-0.1,0.9-0.3,0.9,0.4c0,0.6,0.3,0.9,0.9,0.9
				c0.9-0.1,0.3-0.7,0.3-1.1c0.1-2.1,0.6-2.5,2.6-2.1c0.2,0,0.5,0.2,0.6,0.1c1.1-1.3,1.3,0.1,1.7,0.6c0.3,0.3,0.6,0.6,0.8,1
				c0.4,0.7,0.9,1.3,0,2.1c-1,1,0.3,2.2,0,3.4c-0.1,0.3,0.6,0.2,1,0.1c1-0.3,2-0.7,3.1-1c0.5-0.2,1.2,0,1.4-0.8
				c0.2-1.3,1.4-1.9,2.4-2.1c1.2-0.3,1.6-0.9,1.6-2c1.2,0.6,1.3,0.6,1.8-0.4c0.4-0.8,1.1-1.1,1.9-1.3c0.3-0.1,0.8-0.3,0.9,0.3
				c0.4,1.9,0.1,3.6-0.7,5.4c-0.5,1-1.2,0.4-1.8,0.6c-0.5,0.2-0.9,0.5-1.1,0.9c-0.9,1.4-1.9,2.6-3.2,3.8c1,0.3,1.7,0.4,2.6,0.3
				c2.6-0.3,4.7-1.5,6.5-3.3c0.4-0.4,1-1.4,1.6-0.3c0.4,0.8-0.2,1.7-0.8,1.9c-2.3,0.7-3.5,2.4-4.4,4.6c2.6-0.2,5.2,1,7.7,0
				c0.2-0.1,0.6,0,0.9,0.2c0.8,0.4,1.6,0.6,2.3-0.2c0.5-0.5,1.1-0.3,1.7-0.3c0.4,0,0.9-0.3,1.1,0.2c0.2,0.4-0.2,0.8-0.6,1
				c-0.8,0.6-0.1,1.3,0.2,1.7c0.4,0.6,0.8,0.1,1.3-0.2c1.5-1.3,3.1-2.6,4.9-3.5c0.4-0.2,0.8-0.4,0.9,0.1c0.4,1.4,1.2,0.6,1.7,0.2
				c0.6-0.5,1.2-1.1,1.6-1.9c0.3-0.5,0.4-1.4,1.5-1.4c-0.9,0.6-0.6,1.4-0.6,2.2c0.1,0.5-0.3,1.1,0.6,1.2c0.7,0,1.5,0,1.6-0.9
				c0.1-1.1,0.3-1.9,1.6-1.6c0.4,0.1,0.7-0.2,0.8-0.6c0.8-2.2,1.5-4.5,2.3-6.7c0.4-1-0.3-2.4,1.3-3.2c-2.7-0.5-3-2.7-3.7-4.4
				c-0.3-0.8-0.6-1.4-1.6-1c-0.7,0.2-1.1-0.1-1.3-0.8c-0.2-0.6-0.7-0.9-1.4-0.9c-0.5,0-0.9-0.1-1.3-0.5c-1.4-1.8-4-1.8-5.6-3.3
				c-0.1-0.1-0.4,0-0.6-0.1c-1.6-0.4-2.9,0.3-4.3,0.8c-0.7,0.3-1.1,0.6-1,1.5c0.1,1.7-0.8,2.7-2.4,3c-0.2,0-0.4,0.1-0.6,0.2
				c-2.8,1.4-4.3,0.9-6-2.1c1.1-0.2,1.6,0.8,2.4,1c0.5,0.1,1.1,0.5,1.5-0.1c0.4-0.6-0.2-0.9-0.6-1.2c-0.3-0.2-0.8-0.3-0.7-0.8
				c0.1-0.5,0.6-0.3,1-0.4c0.4-0.1,1.1,0.3,1.2-0.4c0.1-0.5,0-1.1-0.6-1.4c-0.6-0.3-0.5-0.8-0.6-1.3c-0.2-1.3-0.2-2.8-1.7-3.2
				c-0.9-0.3-1.9-0.7-2.6-1.2c-1.4-1-2.3-0.3-3.2,0.4c-0.6,0.4-1,1.1-1.7,1.3c-0.3,0.1-0.5,0.3-0.3,0.6c0.9,2-0.7,2.8-1.6,4
				c-0.6-0.9-0.1-2-0.6-2.5c-0.7-0.8-0.4-0.8,0.2-1.2c0.5-0.3,0.9-1.1,0.7-1.3c-1.2-0.7-0.9-2.4-2.1-3c-0.4-0.2-0.9,0.3-1.2,0.7
				c-0.4,0.4-0.6,1-1.2,1.8c0.1-1.6-0.3-2.6-1.7-2.5c-1.2,0-2.4,0.7-2.5,1.8c-0.6,3.2-2.2,6.2-2.6,9.4c-0.1,0.6-0.4,0.8-0.9,1
				c-0.5,0.2-0.9,0-1.2-0.5c-0.2-0.4-0.5-0.8-0.8-1.2c-0.6-0.7-0.6-1.3,0.3-1.8c0.8-0.5,1.8-3.5,1.4-4.3c-0.1-0.3-0.4-0.6-0.9-0.5
				c-1.5,0.3-2.6-0.5-2.2-1.9c0.4-1.5,0.6-3.1,1.9-4.2c0.5-0.4,0.8-1,0.5-1.4c-0.3-0.4-1-0.5-1.6-0.1c-0.3,0.2-0.6,0.4-0.9,0.6
				c-1.4,1.4-2.4,3.2-4.3,4.1c-0.4,0.2-0.8,0.7-1.1,1.2c-0.6,1.4-1.7,1.6-3.1,1.4c0.2-1.6,1.7-2.4,2.4-3.7c0.2-0.5,0.5-0.8,0.2-1.3
				c-0.3-0.5-0.9-0.2-1.1,0.1c-0.8,0.9-1.8,1.1-2.9,1.3c-0.8,0.1-1.5,0.7-2.2,1.2c-0.8,0.5-0.5,1.7-1.5,1.9
				c-1.2,0.2-2.3,0.4-3.6,0.7c0.8-1.8,2.4-2.6,3.8-3.6c0.5-0.3,0.7-0.4,0.2-1c-1-1.3-0.7-2.2,0.8-2.9c0.5-0.2,1.2-0.2,1.3-0.8
				C226.9,327.7,228.4,327.9,229.6,327.4z M236.3,250.2c1.8,0.6,0.9,1.8,0.9,2.8c0,0.5-0.3,0.7-0.7,0.6c-0.6-0.1-0.5-0.5-0.3-0.9
				c0.6-1.4-0.3-2-1.3-2.4c-1.1-0.4-2-0.5-3,0.7c-0.9,1.1-1.3,3-3.1,3.2c-0.3,0-0.1,0.2-0.1,0.3c-0.3,1-0.5,2.3-1.2,2.8
				c-1.5,1.1-2.7,2.5-4.1,3.5c-1,0.7-0.3,1.5-0.1,1.8c0.5,0.6,1.1,0.1,1.4-0.4c0.4-0.6,0.8-1,1.5-1.1c0.6-0.1,1,0.2,0.8,0.8
				c-0.3,0.8-0.6,1.6-1,2.4c-0.1,0.3-0.7,0.4-0.3,0.9c0.3,0.4,0.7,0.1,1,0c2-0.5,2.5-0.1,2.6,1.9c0,0.4-0.3,0.9,0.3,1.1
				c0.5,0.2,0.9-0.1,1.2-0.5c0.2-0.3,0.2-0.8,0.7-0.6c0.1,0.1,0.3,0.3,0.3,0.5c0.1,0.4-0.1,0.7-0.5,0.8c-0.8,0.2-1.4,0.8-2.3,0.9
				c-0.8,0-1.9,0.4-1.7,1.8c0.1,1.3-0.9,2.5-2.4,2.9c0.2-1,1.2-1.4,1.5-2.2c0.1-0.4,0.5-0.9-0.1-1.2c-0.5-0.2-0.7,0.2-0.9,0.6
				c-1.3,2.1-2.6,4-1.2,6.7c0.4,0.8,0.4,1.8,1.6,2c0.5,0.1,0.9,0.5,0.5,0.9c-0.9,1.1-1.1,2.5-2.4,3.3c-2,1.3-4,2.5-5.7,4.2
				c-0.5,0.5-1.4,0.6-1.1,1.7c0.1,0.4-0.5,0.6-0.9,0.7c-0.8,0.2-1.7,0.3-2.5,0.6c-0.7,0.2-1,0.7-0.9,1.5c0.1,0.6,0.6,0.9,1.3,1.1
				c0.6,0.2,1.3-0.3,2,0.1c-0.3,0.5-0.7,0.5-1.1,0.7c-0.9,0.5-1.2,1.4-1.3,2.3c-0.1,0.9,0.2,1.5,1.3,1.5c0.7,0,0.5,0.6,0.2,1
				c-0.4,0.5-0.9,0.9-1.3,1.4c-0.6,0.7-0.2,1.7,0.6,1.9c1.7,0.4,3.2-1,2.9-2.7c0-0.1,0.1-0.2,0.2-0.4c0.9,1.6,0.9,1.6,2.6,1.2
				c0.5-0.1,0.8,0,1.2,0.2c1.5,0.7,1.9,0.4,2.6-1.1c0.3-0.7,0.6-2.2,1.8-0.7c0.4,0.5,0.6,0,0.9-0.4c0.6-0.6,1.5-0.8,2.2-0.5
				c0.6,0.3,0.1,1.1-0.1,1.7c-0.2,0.4-0.4,0.9-0.4,1.3c0,0.6-1.2,0.7-0.5,1.4c0.5,0.6,1.2,0.2,1.8,0.2c0.5,0,0.8-0.3,1.2-0.7
				c0.5-0.4,0.6-1.4,1.3-1.4c1.7,0.1,2.2-1.2,3-2.2c0.6-0.6,0.8-1.1,0.3-1.9c-0.2-0.3-0.7-1-0.1-1.3c1.8-0.7,2.2-2.1,2.2-3.8
				c0.1-1.1,0.9-1.2,1.6-0.7c1,0.6,1.6,0.2,2-0.7c0.2-0.3,0.5-1,0.6-0.8c0.9,0.9,1.8,0,2.7,0.1c0.6,0.1,1.3,0.5,1.6-0.5
				c0.3-0.8,0.6-1.8-0.2-2.2c-1.5-0.8-1.5-2.2-2.1-3.4c-0.1-0.3-0.3-0.7-0.5-0.8c-1.9-0.4-1.4-2.3-2-3.4c-0.8-1.3-0.3-3.3-0.3-5.1
				c0-0.2,0-0.5,0.3-0.5c0.1,0,0.4,0.2,0.4,0.2c-0.4,0.8,0.6,1.5,0.3,2.3c-0.1,0.5-0.8,1.1-0.1,1.4c1,0.3,2.2,1.3,3,0.6
				c1.8-1.9,3.2-0.7,4.8,0c0.8,0.3,1.7,0.8,2.2,0c0.5-0.7,1-1.7-0.2-2.5c-0.5-0.3-0.9-1-1.3-1.6c-0.6-1-0.1-1.9,1-2.1
				c0.7-0.1,1.1-0.2,0.7-1.1c-0.4-0.9-0.8-1.7-1.5-2.4c-0.3-0.3-0.5-0.5-0.2-1c0.8,0.2,1.4,0.8,2,1.4c0.5,0.6,1.3,0.6,1.9,0.3
				c0.5-0.3,0.4-0.9,0.1-1.4c-2-3.3-3.5-6.9-6.2-9.8c-0.3-0.3-0.5-0.8-0.1-1.1c0.3-0.3,0.8,0,1,0.2c0.6,0.8,1.8,1,2.4,1.9
				c0.5,0.7,1.2,0.6,1.5,0c0.3-0.5,0.9-0.6,1.3-1c-2-1-2-1-0.1-2.3c0.2-0.1,0.4-0.2,0.5-0.3c0.4-0.2,0.9-0.5,0.7-1
				c-0.2-0.5-0.8-0.6-1.3-0.3c-1.4,0.6-2.3-0.1-2.7-1.3c-0.7-2.2-2.3-3.2-4.4-3.7c-0.3-0.1-1.2,0.3-1-0.6c0.2-0.6,0.8-0.5,1.3-0.4
				c0.4,0.1,0.8,0.3,1.2,0.5c0.9,0.6,1.9,0.7,2.9,0.9c0.3,0.1,0.8,0,1-0.2c0.3-0.4-0.1-0.7-0.4-0.9c-1.2-1.1-2.3-2.2-3.6-3.1
				c-1-0.7-2.6-0.3-3.3,0.8c-0.3,0.5-0.6,0.8-1.1,0.8c-1.8,0.1-3.4,0.9-5.1,1.1c-0.4,0-0.8,0.1-0.6,0.6
				C238.3,250.3,237.4,250.2,236.3,250.2z M323.4,411.2c-0.7,0-1.2-0.9-1.9-0.3c-1.5,1.3-1.9,0.1-2.2-1c-0.6-2.1-2-3.7-2.8-5.7
				c-0.2-0.5-0.7-1.1-1.2-1.2c-1.6-0.3-2.1-1.4-2.7-2.6c-0.2-0.3-0.4-0.6-0.7-0.9c-0.2-0.2-0.5-0.4-0.9-0.2
				c-0.3,0.3,0.1,0.4,0.1,0.6c0.2,2.2,0.3,4.3,0.4,6.5c0,0.3-0.1,0.4-0.3,0.5c-0.3,0.1-0.4-0.2-0.4-0.4c-0.1-0.5-0.2-0.9-0.3-1.4
				c-0.2-1.8-0.5-3.5-0.7-5.3c-0.1-0.4,0-1-0.6-1c-0.5,0-0.4,0.5-0.5,0.9c-0.9,2.5,0.6,4.9,0.7,7.4c0.1,1.6,1.4,3,1.1,4.8
				c-0.1,0.8,0.3,1.6,0.3,2.5c0,1.6,0.2,3.2,0.1,4.8c-0.2,1.5,1.2,3.1-0.4,4.4c0,0,0.1,0.3,0.2,0.3c0.9,0.2,0.5,0.8,0.5,1.3
				c0.1,1.7-0.2,3.5,1.2,4.9c0.3,0.3,0.2,0.7,0.1,1.1c-0.5,1.2-0.7,2.4,1.1,2.8c-1.2,0.9-1.2,0.9-1.1,1.8c0.1,0.8-0.5,1.4-0.3,2.2
				c0.1,0.5,0.8,0.5,0.9,0.2c0.1-0.5,1.1,0.2,0.9-0.7c-0.1-0.5,0-1.1-0.1-1.7c0-0.3,0-0.6,0.3-0.7c0.3-0.1,0.5,0.1,0.7,0.3
				c0.5,0.6,1,0.9,1.8,0.8c2.1-0.1,4.1,0.1,6.2-0.3c1.4-0.3,3-0.7,4.2-0.3c1.9,0.6,2.9-0.6,4.2-1.3c1.1-0.6,2.3-1.5,0.9-3.1
				c-0.2-0.2-0.2-0.7-0.2-1.1c-0.1-1.2-1.5-2.1-0.7-3.4c-1.2-0.5-0.9-2.8-2.8-2.5c-0.6,0.1-0.5-0.6-0.5-1c-0.3-1.5,0.1-3.1-0.2-4.6
				c-0.4-2.5-1.5-4.9-1.8-7.4c-0.3-2-1.6-3.6-2.1-5.5c-0.2-0.8-0.6-1.1-1.3-1c-1.1,0.1-0.8,0.9-0.6,1.4
				C322.4,407.9,323,409.4,323.4,411.2z M299.4,310.4c-0.5-0.5,0-1,0-1.4c0.1-2.4-0.5-3.7-2.9-3.3c-0.7,0.1-0.8-0.3-0.9-0.8
				c-0.3-1.6,0-3.3-0.2-4.9c-0.1-0.4,0.1-1.1-0.7-1.1c-0.5,0-0.6,0.5-0.8,1c-0.5,1.1,0.3,2.1-0.1,3.1c-0.6,1.5-1.5,3-2.4,4.4
				c-0.4,0.6-0.9,0.9-0.6,1.8c0.2,0.5-1.5,3-1.8,2.8c-0.7-0.4-0.5-1.4-0.8-2c-0.1-0.2,0-0.5-0.5-0.5c-0.1,0.2-0.1,0.5-0.3,0.7
				c-0.2,0.4,0.4,0.9-0.2,1.1c-0.5,0.1-0.5-0.4-0.7-0.7c-0.3-0.6-0.6-0.2-0.8,0c-1,1-2.6,1.5-2.6,3.3c0,0.3-0.4,0.7-0.7,0.9
				c-1.8,0.8-0.9,1.9-0.2,2.8c0.5,0.7,0.9,1.3,0.6,2.2c-0.1,0.2-0.3,0.3-0.1,0.7c0.6,1,0,2.2-1.1,2.6c-0.7,0.2-1.1,0.1-0.9-0.7
				c0.3-1.1,0.1-2.2,0.2-3.3c0-0.4,0.4-1.1-0.4-1.1c-0.7,0-1,0.6-0.9,1.3c0.5,1.8-0.4,3.6,0,5.4c0.1,0.4-0.2,0.6-0.5,0.7
				c-1.2,0.3-2.1,1.3-3.3,1.6c-0.7,0.2-1.3,0.6-1.5,1.5c-0.1,0.7-0.6,1.2-0.9,1.8c-0.4-0.2-0.3-0.4-0.2-0.7c0.2-0.4,0.6-0.8-0.1-1
				c-0.4-0.1-0.9,0-1.1,0.7c-0.3,1.3-0.1,2.7-0.8,4c-0.2,0.3,0.1,0.5,0.3,0.6c1.3,0.6,3.9-0.2,4.7-1.5c0.6-1,2.8-1.7,3.7-1
				c1.1,0.9,1.7,0.4,2.3-0.6c0.2-0.3,0.1-1,0.8-0.8c0.5,0.1,0.6,0.6,0.7,1c0.1,0.4-0.1,1.2,0.8,1.2c0.9,0,1.8,0.3,2.7,0.4
				c1,0,2.2,0.7,3-0.7c0.3-0.5,0.8,0,0.8,0.2c0.2,1.3,1.2,1.3,2.1,1.5c1,0.1,2,0.1,3,0.3c2.1,0.3,4.2-1.4,4-3.5
				c-0.1-1.3,0.2-2,1.8-2.5c-1.9-0.2-1.4-1.2-1.4-2c0-2,0.8-3.9,0.9-5.9c0-1.3-0.4-2.7-0.4-4c0-1.9,0.4-3.8,0.5-5.7
				c0-0.7-0.6-1.7,0.3-2.3c-0.7-0.4,0.1-1.7-1-1.8c-1.1-0.1-0.6,0.9-0.8,1.5C299.6,308.3,300.1,309.4,299.4,310.4z M302.5,365.8
				c-0.4,0.4-0.9,0.7-1.3,1.1c-0.3,0.2-1,0.1-0.8,0.7c0.2,0.6,0.7,0.6,1.2,0.6c2.1,0,4.2,0.3,5.9-1.3c0.9-0.8,1.1-0.3,1.5,0.5
				c0.6,1.2,2.8,1.5,3.8,0.7c0.3-0.3,0.2-0.5-0.1-0.8c-0.9-1-1.5-2.2-2.6-3c-0.9-0.6-0.6-1.7,0-2.3c0.6-0.5,1.6-0.5,2.1,0.4
				c0.5,0.8,1.1,0.9,1.9,1c2,0.4,4.6-0.5,5.5,2.5c0.2,0.7,1.6,1,2.4,0c0.5-0.7,1.1-0.9,1.9-1c1.5-0.2,3-0.3,4.4-0.6
				c0.4-0.1,1.1-0.1,1.1-0.7c0-0.7-0.8-0.6-1.1-1c-0.3-0.3-0.6-0.1-0.9,0.1c-0.9,0.6-1.9,0.2-2.3-0.4c-0.8-1.2-2.2-1.5-3.2-2.5
				c-2.2-2.1-5.2-3.4-7.4-5.6c-1.3-1.3-2.3-2.3-3.1-4.1c-1.1-2.7,0.9-4.7,0.5-7c0-0.1,0.2-0.2,0.3-0.3c2.5-1.7,2.4-5.8,0.7-7.7
				c-0.4-0.4-0.9-0.6-1.5-0.4c-0.5,0.2-0.9,0.6-0.8,1.1c0.4,1.4-0.3,2.2-1.5,2.7c-0.4,0.2-0.4,0.6-0.5,1c-0.5,1.7-0.3,3.7-2.5,4.3
				c0,0-0.1,0.1-0.1,0.1c-0.6,1.9-2,3-3.8,3.7c-0.5,0.2-0.1,0.2,0,0.3c0.5,1.5,0,2.1-1.6,1.7c-0.6-0.1-1.2-0.4-1.8,0.2
				c-1.2,1.1-2.6,1.8-4.2,1.7c-2.5-0.1-4,1-4.6,3.4c0,0.1-0.1,0.2-0.2,0.3c-0.7,0.7-0.3,1.3,0.1,1.8c0.5,0.7,1.2,0.9,2.1,0.9
				c1.6-0.1,3,0.9,2.8,1.8c-0.3,1,0,1.2,0.9,1.4c0.6,0.2,1.4,0.3,1.4,1.3c-0.1,2.3,1.2,3.4,3.4,3.1
				C301.3,365.5,301.9,365.1,302.5,365.8z M284.5,182.7c-0.6,0.3-0.9,0.5-1.2,0.6c-0.3,0.2-0.8,0.2-0.7,0.7c0.1,0.4,0.5,0.4,0.8,0.4
				c0.8-0.1,1.6,0.1,1.6,1.1c0.1,1.1-0.9,0.8-1.5,1.1c-0.1,0.1-0.2,0-0.3,0.1c-0.4,0.3-1.2,0.1-1.1,0.7c0.1,0.6,0.8,0.6,1.3,0.5
				c1.3-0.2,2.6-0.3,4-0.4c1-0.1,2.7,0.1,2.6-1.9c0-0.4,0.5-0.5,0.8-0.6c1.2-0.2,2.4-0.4,3.6-0.7c1.1-0.3,2.5-0.6,3-1.6
				c0.5-1,0.9-2.2,0.5-3.5c-0.3-0.9,0-1.2,0.9-1c0.7,0.2,1.4-0.2,1.1-0.8c-0.3-0.6,0.1-1.9-1.3-1.9c-0.3,0-0.5-0.3-0.5-0.8
				c0.1-0.9,0.1-1.9,0.4-2.8c0.4-1.3,0.1-1.8-1.3-1.9c-1.4-0.1-2.1-1.3-1.5-2.3c0.7-1,0.4-2-0.7-2c-1.6,0-2.2-1.6-2.1-2.1
				c0.3-0.9,0.1-2.6,1.8-2.8c0.3,0,0.9-0.5,0.3-0.7c-1.2-0.4-2.1-1.4-3.2-1.9c-0.5-0.2-1,0.1-1.1,0.6c-0.1,0.4-0.5,1-0.8,0.8
				c-0.9-0.6-1.6-0.2-2.4,0.2c-0.2,0.1-0.5-0.1-0.7-0.3c-0.8-1-0.8-1-1.8-0.3c-0.4,0.3-0.8,0.8-1.4,0.1c-0.3-0.3-0.7-0.4-1-0.1
				c-0.4,0.3-0.5,0.7-0.3,1.1c0.1,0.3,0.3,0.7-0.2,1c-0.1-0.1-0.3-0.1-0.3-0.3c-0.3-1-1.1-0.8-1.7-0.6c-0.8,0.4-0.1,0.8,0.1,1.3
				c0.4,0.9,0.1,1.5-0.9,1.7c-1.3,0.2-1.1,1.1-0.7,1.7c1,1.2,0.4,2.1-0.3,3.1c-0.4,0.6-0.7,1-0.1,1.8c0.3,0.3,1.6,2.1-0.7,2.1
				c-0.7,0-0.6,1-1.1,1.4c-0.2,0.1,0.2,0.6,0.4,0.6c1.3-0.2,2.6,0.8,3.9,0.2c0.5-0.2,0.8-0.3,1,0.2c0.3,0.7-0.1,0.8-0.6,1
				c-0.9,0.3-1.9,0.3-2.6,1.2c0.6,0.6,1.3,0.4,2,0.3c0.7-0.1,1.7-0.2,1.7,0.6c0,1.1,1.1,2.1,0.4,3.3c-0.3,0.4-1.4,0.4-0.9,1.2
				c0.3,0.6,1.1,0.1,1.6,0.1C283.7,182.5,283.9,182.6,284.5,182.7z M273.7,271.7c0.6,0.3,1.5,0.1,1.7,0.7c1,3.2,1.1,0,1.5-0.2
				c0.2-0.1,0.2-0.5,0.6-0.4c-0.2,1.9-0.5,3.9-1.4,5.6c-0.6,1.1-0.1,1.4,0.7,1.5c1,0.1,1.3,0.8,1.5,1.4c0.3,1.1,0.6,1.5,1.6,0.6
				c0.3-0.3,0.8-0.1,0.8,0.1c0.1,1.1,1.3,1.9,1,3.2c-0.3,1.8,0.7,3.1,1.8,4.4c0.7,0.7,1.6,0.6,1.7-0.3c0.2-0.9,1.1-1.4,0.9-2.4
				c-0.1-0.3-0.3-1.5,0.7-1.5c0.8,0,0.9,0.7,1.1,1.3c0.1,0.2,0.4,0.4,0.4,0.7c0.3,1,0.6,0.7,1.3,0.1c1.7-1.5,2.1-3.6,2.8-5.6
				c0.2-0.7,0.1-1-0.3-1.4c-0.3-0.3-0.7-0.5-1-0.1c-0.4,0.4-0.2,0.8,0.1,1.3c0.7,1.1-0.2,1.1-0.8,1c-1.5-0.1-1.3-1.4-1.1-2.2
				c0.3-1.3,0-2.5-0.4-3.8c-0.1-0.3-0.2-0.8-0.6-0.9c-0.5-0.1-0.5,0.4-0.6,0.8c-0.1,0.3-0.2,0.5-0.5,0.5c-0.5-0.1-0.3-0.5-0.3-0.8
				c-0.1-0.5,0-1.4-0.2-1.5c-1.6-0.6-1.5-2.7-3.3-3.4c-1-0.4-1.1,0.2-1.6,0.4c-0.2-0.6-0.6-1.1-0.4-1.8c0.2-0.7,0.9-0.8,1.1-1.9
				c-1.7,1.3-1.7,0.2-1.9-0.8c0-0.4-0.2-0.7-0.2-1.1c-0.1-0.6-0.3-1.3-0.9-1.3c-0.8,0-0.2,0.9-0.5,1.3c-0.1,0.1-0.2,0.1-0.3,0.1
				c-0.5-0.6-0.6-1.4-0.8-2.2c-0.1-0.4-0.3-0.6-0.7-0.5c-0.4,0-0.8,0.2-0.8,0.6c0.1,1.3-0.9,2-1.6,3.1c2.9,0.4,1,2.4,1.1,3.6
				C276,271.1,275.2,272,273.7,271.7z M204.4,367.3c0.6-1.9,1.5-3.2,3.5-3.1c0.5,0,0.9-0.2,1.4-0.3c0.5-0.1,1-0.2,1.1-0.8
				c0-0.3-0.2-0.8-0.5-1c-0.4-0.3-1-0.3-1.3,0.1c-0.5,0.6-1.1,0.5-1.7,0.6c-1.2,0.2-2.5,0.5-3.7,0.7c-2.5,0.4-5,0.9-7.6,1.3
				c-0.3,0-0.6,0-0.7-0.3c-0.1-0.3,0.1-0.5,0.3-0.6c0.4-0.2,0.7-0.6,1.1-0.6c2.2-0.2,4-1.5,6-2.4c0.3-0.1,0.7-0.2,0.6-0.6
				c-0.1-0.5-0.5-0.3-0.9-0.3c-1.6,0.1-3.1,0.2-4.6,0.6c-0.6,0.2-1.1,0.2-1.7-0.4c-1.5-1.5-3.6-1.3-5.2-0.8c-2.4,0.7-5,1-7.4,1.6
				c-1.6,0.4-3.3,0.8-5.1,0.8c-0.5,0-1.5,0.4-1.1,1c0.6,0.9,1.4,2.3,2.4,2.2c2.6-0.2,5.3-0.1,7.8-1.2c1.5-0.7,3.2-1.2,4.9-1.2
				c0.6,0,1,0.2,1.1,0.9c0.1,0.9-0.6,0.7-1.1,0.7c-2.6,0.3-5.2,0.7-7.7,1.5c-0.9,0.3-1.9,0.3-2.8,0.6c-0.3,0.1-1.1,0.3-0.8,0.9
				c0.2,0.5,0.9,0.6,1.4,0.3c0.9-0.5,1.8-0.7,2.7-0.9c1.1-0.2,1.7,0.7,2.7,0.7c1.9,0,3.8-0.5,5.5-0.2c3,0.6,5.9,0.1,8.7-0.6
				c0.6-0.1,1.1,0,1.4,0.6c-0.7,0.6-1.5,1.1-2.2,1c-1.2-0.2-2.3,0.3-3.4,0.5c-0.8,0.2-1.3,0.3-1.2,1.3c0.1,0.9,0.5,1.3,1.5,1.3
				c1.9,0,3.7-0.3,5.6-0.5c1.2-0.1,2.1,0,2.3-1.5c0.1-0.6,0.7-0.6,1.1-0.7c3-0.5,6.1-1.3,9.2-1.4c1,0,2-0.2,2.9-1
				c-0.8-0.6-1.5-0.8-2.4-0.5c-1.2,0.3-2.5,0.8-3.7,0.5c-1.7-0.3-3.3,0-4.8,0.5C206.9,367.3,205.8,367.1,204.4,367.3z M262.5,225.9
				c0,1.6,2.3,4.5,4.2,5c0.6,0.1,1.1,0.4,1.6,0.7c1.6,0.9,2.5,2.6,4,3.7c0.6,0.5,1,1.9,1.3,2c2.4,1.3,3.5,3.7,5.4,5.4
				c1.9,1.6,3.9,3.1,5.1,5.2c0.7,1.3,2.4,1.8,2.6,3.4c0.1,0.8,0.9,0.8,1.4,0.6c0.7-0.2,0.1-0.7,0.1-1.2c-0.1-1.3-1.1-2.1-1.6-3.2
				c-0.8-1.9-2.5-2.8-3.8-4.1c-0.4-0.4-1.3-0.3-1.3-1c0-0.7,0.9-0.5,1.4-0.9c1.1-0.8,1.3-0.1,1.3,0.8c0,0.8,0.4,1.4,0.8,1.8
				c0.9,1,1.9,2,2.4,3.3c0.2,0.5,0.8,0.7,1.4,0.5c0.6-0.2,0.6-0.7,0.5-1.2c-0.2-1-0.5-1.8-1.5-2.3c-0.6-0.3-1.4-0.9-1-1.4
				c1.1-1.4,0-1.3-0.9-1.5c-0.4-0.1-0.8-0.3-0.8-0.7c-0.1-1.6-1.5-2-2.5-2.7c-0.4-0.3-1-0.4-1.4-0.8c-3-2.4-5.8-5.1-9.2-7
				c-0.3-0.2-0.6-0.4-0.7-0.8c-0.3-1.1-1.1-1.7-1.9-2.2c-0.5-0.3-0.7-0.6-0.9-1.2c-0.4-1.2-3.2-2.7-4.4-2.5
				C263,223.9,262.3,224.5,262.5,225.9z M338.1,319.4c-0.5,1.6-0.6,1.7-1,1.4c-1.2-0.9-1.6,0.7-2.5,0.7c-0.3,0,0.9,0.3,0.7,0.9
				c0,0.1,0,0.2,0,0.3c-0.1,0.3-0.2,0.7,0.3,0.8c0.4,0.1,0.6-0.2,0.8-0.4c0.3-0.3,0.2-0.9,0.7-1c0.9,1.1,1.3,1.1,1.8-0.1
				c0.3-0.7,0.6-1.4,0.8-2.1c0.2-0.8,0.7-1.2,1.3-1.6c0.4-0.3,1-0.2,0.9,0.3c-0.2,0.9,0.6,1.5,0.2,2.3c-0.2,0.4,0.3,1.2-0.8,1
				c-0.5-0.1-0.6,0.8-0.6,1.3c0,0.4,0.4,0.5,0.7,0.3c1.4-0.7,1.3,0.5,1.3,1.1c-0.1,1.4,0.3,2.7,1,3.9c0.2,0.3-0.1,1.1,0.6,0.9
				c0.5-0.2,0.8-0.9,0.6-1.4c-0.6-1.2-0.2-1.9,1.1-2.3c-0.6-0.3-1.3,0.2-1.4-0.7c-0.2-1.5-0.4-3.1-0.5-4.6c-0.1-0.7,0.7-1.5,0.8-1.3
				c0.8,1,2.1,0.3,3,0.8c-0.4,1-2,0.2-2,1.6c0,0.9,1,0.5,1.2,1.1c-0.3,0.2-0.6,0.4-0.9,0.6c-0.3,0.2-0.5,0.4-0.3,0.8
				c0.2,0.3,0.5,0.4,0.8,0.3c1.5-0.7,3.3-0.8,4.3-2.5c0.3-0.5,0.7-0.8,1.1,0.1c0.5,1.1,2,1.3,3.2,0.3c0.8-0.7,0.7-1.6,0-2.3
				c-1.6-1.5-2.2-3.6-3.3-5.4c-0.6-1-1.6-1.5-2-2.6c-0.8-1.9-1.8,0.1-2.7,0.1c-0.2,0-0.4-0.2-0.6,0.1c0.9,0.6,1.6,1.7,1.5,2.6
				c-0.1,0.9-1.4,0.2-2.1,0.6c-0.6,0.3-0.9-0.1-1.1-0.6c-0.2-0.8-0.8-1-1.4-1c-1.4,0-2.8,0.1-3.6,1.6c-0.2,0.4-0.5,0.6-0.9,0.5
				c-1.5-0.3-1.8,1.1-2.4,1.9c-0.3,0.4-0.4,1.1,0,1.7C337.1,319.9,337.6,319.3,338.1,319.4z M276.5,226.3c-0.4-0.2-0.3-0.5-0.4-0.8
				c-0.1-0.7,0.3-1.8-0.4-2c-0.9-0.2-1.4-1.6-2.7-1c-0.4,0.2-0.6-0.3-0.8-0.7c-1-2-3.2-2.9-5.3-2.1c-0.7,0.2-1,0.9-1.4,1.4
				c1.2,0.2,1,1.7,1.7,2.2c1.7,1.1,2.5,3,4.2,4.1c1.7,1.1,2.7,3,4.7,4c2,1,3.3,3.3,5.6,4.1c0.6,0.2,1.1,0.8,1.6,1.2
				c0.8,0.7,1.7,1.5,2.9,1.6c1.2,0.2,2-0.5,2.3-1.5c0.2-0.8-0.1-1.7-1.3-1.7c-0.3,0-0.6-0.2-0.7-0.5c-0.3-1.1-0.5-2.2-1.9-2.4
				c-0.3-0.1-0.1-0.6-0.1-0.8c-0.2-1-0.3-2.6-0.9-3c-1.4-0.7-2.2-2.1-3.5-2.8c-0.5-0.3-1.2,0.1-1.4-0.5c-0.2-0.6-0.4-1.4-1.2-1.1
				c-0.8,0.3-0.6,1.1-0.6,1.8C276.8,226,276.6,226.1,276.5,226.3z M348.6,353.1c0.3,0.6-0.2,1.1,0,1.3c1.3,1.1,0.5,2.3,0.3,3.5
				c-0.1,0.7-0.1,1.5,0.4,1.9c0.5,0.5,1.3,0.4,2,0c0.6-0.4,0.9-0.9,0.7-1.7c-0.1-0.5-0.1-1,0.5-1.2c1.2-0.3,0.4-0.8,0.3-1.3
				c-0.3-1-2.1-2.1,0-3.1c0.5-0.2,1.3-0.5,1-1.2c-0.2-0.5-1.1-0.5-1.6-0.4c-2.3,0.6-4.7,0-6.5-0.9c-2.2-1.1-4.3-1.3-6.5-1.6
				c-2-0.4-4-0.6-6-0.8c-1.3-0.1-3,1.1-2.5,1.5c1.2,1.2-1.1,2.3,0.1,3.4c-0.5,0.4-0.5,1-0.7,1.6c-0.2,0.6-0.2,1.3,0.4,1.7
				c0.9,0.5,1.8,0.5,2.8,0.1c0.7-0.3,1.1-1,0.8-1.6c-0.8-1.9,0.6-1.8,1.7-1.9c0.9-0.1,1.9-0.1,2.9,0.2
				C341.8,353.5,345.2,353.8,348.6,353.1z M241.9,242.1c0.8,0.1,1.5,0.3,2.2,0.4c2.4,0.2,4.9-0.1,7.1,1.3c0.9,0.5,1.6,0.9,0.7,1.9
				c-0.4,0.5-0.2,0.8,0.1,1.2c1.2,1.9,2.4,3.9,3.6,5.7c0.4,0.6,1.1,1.5,1.9,0.9c0.9-0.7,1-0.2,1.3,0.5c0.4,0.8,1.1,1.5,1.1,2.6
				c0,0.5,0.5,1,1,1.1c0.5,0.2,0.9,0.4,1.1,0.9c0.4,1.6,1.8,2.7,1.9,4.3c0.1,1.1,1.3,1,1.6,1.9c0,0.1,0.8,0.3,0.8-0.6
				c-0.1-1.4-0.3-2.9-1-4c-0.4-0.6,0.1-1.6-0.8-1.9c-0.9-0.4-0.9-1.2-1.3-2.1c0.7,0,1.3,0.2,1.8-0.2c0.4-0.3,0.7-0.5,0.2-1
				c-2-2-3.2-4.7-6-5.8c-0.4-0.2-0.7-0.5-1-0.8c-0.3-0.2-0.4-0.6-0.1-0.8c1-0.8-0.1-1-0.4-1.5c-0.6-0.9-2.1-0.7-2.6-1.5
				c-0.8-1.3-2-1.8-3.4-2c-0.6-0.1-1-0.2-1.5-0.7c-1-1.1-2.5-1.6-3.9-1.4c-1.3,0.1-3.2-1-3.8,1.3C242.5,241.7,242,241.5,241.9,242.1
				z M310.8,326.3c0-0.8,0.1-1.5,0-2.1c-0.1-0.6,0.2-1.9-1.3-1c-0.5,0.3-1.5-0.2-1.6-1.2c-0.1-1.5-0.2-3.1,0.1-4.6
				c-0.2,0-0.3,0-0.4,0c-0.6,0.3-1,1.3-1.7,0.8c-0.6-0.4,0-1.3,0.2-1.9c0.1-0.5,0.3-1-0.4-1.2c-0.6-0.1-0.5,0.5-0.7,0.8
				c-1.1,1.3-1.1,2.9-1.3,4.4c-0.4,2.4-0.2,4.7-0.4,7.1c-0.2,2.2,0,4.4-0.6,6.5c2.3,0.8,1.5-1.9,2.7-2.4c-0.3,0.6,0,1.2,0.1,1.7
				c0.1,0.4-0.3,1,0.4,1.3c1.7,0.7,3.9-0.5,4.2-2.3c0.1-0.5,0.1-1,0.1-1.6c-0.1-1.3,0.1-2.5,1.2-3.7c0,1.4,0.5,2.5,0.1,3.7
				c-0.2,0.6,0,1.2,0.5,1.4c0.8,0.3,0.4-0.5,0.6-0.8c0.6-0.6,0.4-2,1.8-2.1c-1.4-0.3-1.2-1.5-1.5-2.4
				C312.4,325.3,311.8,325.4,310.8,326.3z M221.3,381.3c-0.7-0.4-1.6-0.3-1.6-1.4c0-1,0.7-1.3,1.4-1.7c0.5-0.3,0.9-0.5,0.6-1.1
				c-0.8-1.2,0.2-1.8,0.9-2.4c0.3-0.3,1-0.4,0.7-1c-0.3-0.6-0.8-0.4-1.3-0.3c-1.7,0.4-3.3,1.2-5.3,0.9c-1-0.1-2.6,0.4-2.4,2.6
				c0.1,1.3-0.1,3.1-1.2,4.3c-0.6,0.6-0.8,1.2-0.8,2c-0.1,1-0.3,2.1-1,2.8c-1.3,1.4-0.8,2.9-0.4,4.4c0.3,1,2.2,1.8,2.3,1.3
				c0.2-1.5,1.8-2.3,1.9-3.9c0.1-1.4,0.5-2.8,0.8-4.2c0.1-0.3,0.3-0.7,0.7-0.5c0.2,0.1,0.4,0.5,0.2,0.6c-1.2,0.7-0.2,1.6-0.3,2.4
				c-0.2,2.1,1.3-0.2,1.8,0.6c0.2,0.3,0.6,0.4,0.9,0.6c1.2,0.6,2.3,1.2,3.9,0.9c-1.1-1.1-2.8-0.6-3.7-1.7c0.6-0.4,1.2-0.8,2-1.3
				c-0.5-0.1-0.7-0.2-0.9-0.2c-0.6,0.1-1.2,0.2-1.4-0.4c-0.3-0.6,0.1-1.1,0.5-1.6C219.9,382.5,220.6,382,221.3,381.3z M339.7,309
				c1.9-0.1,3.7-0.6,5.4-1.4c1.1-0.5,1.4-2,1.4-3c0-0.7-1.4-0.8-2.2-1c-2.2-0.5-4.4-0.6-6.6-1.6c-1.4-0.7-3.1-0.7-4.7-0.8
				c-0.8-0.1-1.4,0.2-0.7,1.2c0.3,0.5,1,1,0.8,1.8c-0.3,1.5,1.7,4.4,3.2,4.4C337.5,308.6,338.6,309,339.7,309z M359.6,345.7
				c-2.4-0.1-4.4-0.3-6.5-0.3c-1,0-1.2-1.2-2.3-0.9c-3.1,0.8-6.1-0.1-9.2-0.1c-0.6,0-1.5,0-1.1-1.1c0.1-0.4-0.2-0.5-0.5-0.6
				c-2-0.3-4-0.7-6-0.7c-1.2,0-2.9-1.1-3.8,0.9c-0.1,0.2-0.4,0.2-0.5,0c-0.5-0.6-1.2-0.7-1.3,0.1c-0.1,0.6,0.4,1.6,1.2,1.4
				c1-0.2,1.8,0.3,2.7,0.4c2,0.1,4,0.5,6.1,0.4c3.4-0.1,6.8,0.8,10.3,1.1c2.9,0.2,5.7,1.1,8.6,1.2c2.1,0.1,4.3,0.3,6.4,0
				c0.4-0.1,0.9-0.1,1-0.6c0.1-0.5-0.5-0.4-0.7-0.7c-0.5-0.6-1.4-0.3-1.9-0.8c-0.9-0.9-2.9-1.1-4.1-0.4
				C358.3,345.6,359,345.2,359.6,345.7z M323,384.7c1.8,0.1,1.6,1.4,1.8,2.4c0.4,2,0.9,4,1.9,5.8c0.2,0.4,0.9,1,1,0.5
				c0.1-0.8,1.3-1.1,0.8-2.4c-0.4-0.9-0.5-2.4-0.4-3.6c0.2-2.6,0.8-5.2,1-7.8c0.1-2.2,0.9-4.4,0.6-6.7c0-0.4,0.3-1-0.3-1.1
				c-0.6-0.2-1,0.4-1.1,0.9c-0.2,0.7-0.3,1.4-0.9,1.9c-0.5,0.5-0.6,1.1-0.8,1.8c-0.3,1.2,0,2.6-1.4,3.5c-0.6,0.4-1.6,1.4-1.1,2.6
				C324.4,383.7,324.1,384.2,323,384.7z M312.6,263.4c-0.3,2.3,1.2,4.2,0.9,6.4c0,0.4,0.4,0.9,0.7,1.2c1.2,1.4,3.2,2.2,3.7,4.3
				c0.2,0.7,0.9,0.6,1.2-0.1c0.4-0.8,0.3-1.7-0.3-2.3c-0.3-0.3-0.8-0.6-0.6-1c0.6-1.1-0.3-1.6-0.9-2.1c-0.4-0.4-0.7-0.8-0.5-1.2
				c0.8-2-2.4-2.8-1.4-4.8c-1.2-0.6-1.1-1.9-1.5-2.9c-0.2-0.6-0.6-1.2-1.1-1.5c-1.1-0.6-2-1.3-2.4-2.5c-0.2-0.4-0.4-0.9-1-0.7
				c-0.6,0.2-0.3,0.7-0.3,1.1c0.2,1.7,1.2,3.1,1.3,4.8C310.3,263.4,310.8,264.4,312.6,263.4z M321.9,303.2c0.7,0.2,1.2,0.7,1.6,0.6
				c1.8-0.4,1.6,1,1.8,1.9c0.1,0.4-0.3,0.9,0.3,1c0.4,0.1,0.8-0.2,1.2-0.4c1-0.7,0.8-2,1.6-2.9c0.3-0.4,0.4-0.7-0.2-0.8
				c-0.4-0.1-0.9-0.1-1,0.5c-0.1,0.4-0.1,0.7-0.2,1.1c-0.1,0.3-0.4,0.4-0.7,0.2c-0.3-0.1-0.4-0.5-0.2-0.7c1-0.5,0.5-1.6,1.1-2.4
				c0.8-1-0.2-3.2-1.3-3.8c-0.8-0.4-1.5-0.9-1.9-1.8c-0.5-1.1-1.5-0.4-2.2-0.4c-0.6,0-0.7,0.3-0.8,1c-0.5,2.1,1.1,3.4,1.8,5
				c0.1,0.2,0.1,0.3,0.1,0.4c-0.3,0.3-0.9-0.3-1.2,0.4C321.8,302.4,323.6,302.2,321.9,303.2z M336,375.3c0.6,0.1,1,0.3,1.3,0.5
				c0.9,0.7,2,0.5,2.9,0.1c0.8-0.3,0.2-1.3,0.4-1.6c0.8-1.1-0.1-2.7,1.1-3.7c0.3-0.2,0.2-0.5,0.2-0.8c-0.3-1-0.1-2.1-0.2-3.2
				c-0.1-0.8,0.9-0.6,0.7-0.9c-0.3-0.5-0.9-0.9-1.4-1.1c-0.5-0.2-1.4-0.2-1.6,0.4c-0.4,1.4-1.5,2.3-2,3.5c-0.5,1.5-1.4,3.2-0.6,4.6
				C337.6,374.4,337.2,374.8,336,375.3z M256.5,231.4c0.1-0.2,0.1-0.3,0.2-0.4c0.7-0.3,1.5-0.6,1.2-1.6c-0.2-0.7-1-1.1-1.7-0.8
				c-0.8,0.2-1.5,0.6-1,1.7c0.3,0.7-0.4,0.8-0.8,0.7c-1-0.2-2-0.1-2.9,0.5c-0.3,0.2-1.1-0.1-0.9,0.9c0.2,1,0.7,0.6,1.3,0.6
				c1.4,0.2,3.1-0.9,4.2,0.9c0.2,0.3,0.7,0.1,1,0c0.6-0.3,1.3-0.6,2-0.9c-0.1,1.8,1.6,3.1,3.3,2.6c0.8-0.2,3,0.7,3.2,1.4
				c0.4,2.1,2.2,2.3,3.7,3c0.3,0.1,0.6,0.2,0.8-0.2c0.2-0.5-0.1-0.6-0.4-0.9c-0.6-0.5-1.4-0.7-1.9-1.4c-1.1-1.8-2.9-2.7-4.6-3.7
				c-0.9-0.6-1.9-1.7-3-1.4C258.4,233,257.6,231.9,256.5,231.4z M374.2,317.8c-0.4-0.3-0.9-0.5-1-0.9c-1.2-2.2-3.1-3.8-4.3-5.9
				c-0.5-0.8-0.8-1.8-1.6-2.6c-0.8-0.8-2-1.5-2.4-2.6c-0.6-2-2.3-3.1-3.2-4.9c-0.1-0.3-0.5-0.4-0.9-0.2c-0.2,0.1-0.4,0.4-0.3,0.5
				c0.5,0.6,0.5,1.6,1,2.1c1.9,2,3.2,4.2,4.1,6.8c1.1,3.3,3.2,6.1,6.3,8C372.6,318.5,373.4,318.5,374.2,317.8z M324.7,286.7
				c-0.2-0.5-0.7-0.2-0.7-0.3c-0.9-1.9-3.1-2.5-4.2-4.2c-0.3-0.5-0.9-0.8-1.5-0.6c-0.7,0.2-0.6,0.9-0.5,1.3c0.2,0.7,0,1.2-0.2,1.8
				c-0.3,0.9-0.6,2.4,0.1,2.7c2,0.7,2.8,2.9,4.8,3.5c0.6,0.1,1.2,0.7,1.6,0.2c0.4-0.5,0.7-1.4,0.2-2
				C323.6,288,324,287.3,324.7,286.7z M344.4,488.3c0.1-1,0.2-2.3-0.4-3.5c-0.2-0.3,0.3-1-0.5-0.9c-0.5,0-0.5,0.5-0.7,0.9
				c-0.7,1.6,0.6,3,0.3,4.6c-0.3,1.6,0.3,3.3-1.4,4.6c-0.5,0.4-1.5,1.3-1.2,2.2c0.2,0.8,0.4,1.4-0.1,2.1c-0.3,0.4,0,0.8,0.4,1.1
				c0.5,0.3,0.8,0.1,1-0.4c0.2-0.5,0.4-0.9,1.1-1c2-0.2,3.8-3.4,2.6-4.9C344.4,491.7,344.5,490.2,344.4,488.3z M275.1,292
				c2.7-0.1,3.3-1.4,3.4-3.2c0-1.1-1.4-2.4,0.2-3.4c0,0,0-0.2-0.1-0.2c-0.8-0.2-0.8-1-1.1-1.6c-0.3-0.7-1-0.3-1,0.2
				c-0.2,1.4-1,2-2.3,2.2c-0.3,0-0.3,0.4-0.4,0.6c-1.1,1.5-2.1,3,0,4.4c0.1,0.1,0.1,0.3,0.2,0.4C274.1,292,274.6,292,275.1,292z
				 M286.2,208.1c-1-0.5-1.8-0.2-2.5-0.1c-1.5,0.4-3.1,0.4-4.3-0.6c-1-0.7-1.9-0.8-3-0.8c-0.4,0-0.9,0.1-1.3,0c-3-1-6-2.1-9-3.1
				c-1.5-0.5-3-0.9-4.8-0.9c1,1,7.7,3.7,8.7,3.8c2.6,0.1,4.9,1.4,7.4,2C280.3,209.3,283.2,209.6,286.2,208.1z M291.8,454.9
				c0.8-0.8,2.5-0.8,3-2.2c0.6-1.5,1.4-2.5,3.1-2.8c0.6-0.1,1-0.4,0.6-1.1c-0.5-0.9,0.3-2.4-1.3-2.7c-0.6-0.1-1,0.4-0.9,0.9
				c0.2,1.5-0.8,1.7-1.9,1.9c-0.5,0.1-0.9,0.4-1.2,0.7c-0.3,0.3-0.5,1-1.1,0.8c-0.6-0.2-0.3-0.8-0.4-1.3c-0.1-0.4-0.2-0.9-0.8-0.7
				c-0.5,0.2-0.9,0.6-0.6,1.1c0.8,1.5,0.8,3,0.5,4.6C290.8,454.7,291.1,454.9,291.8,454.9z M299.8,437.2c0.1,0.1,0.1,0.3,0.2,0.4
				c0.7-0.3,1.3-0.5,2-0.8c0.9-0.3-0.6-1.7,0.8-1.9l-1-4.4c-0.1-0.3,0-0.5,0.1-0.8c0.9-1.6-0.1-2.9-0.7-4.3
				c-0.2-0.4-0.5-0.5-0.9-0.1c-0.3,0.3-0.7,0.5-1.1,0.6c-0.7,0.2-1.3,0.7-1.2,1.3c0.3,1.1-0.2,2.5,0.8,3.5c0.1,0.1,0.2,0.1,0.3,0.1
				c2-1,1,0.7,1,1.2c0,1-0.1,2,0.4,2.8C301.1,435.9,300.7,436.6,299.8,437.2z M219.8,634c0.6,2.1,2.7,2.8,3.8,4.6
				c1.1,1.9,4,2.5,6.5,2.4c0.4,0,0.9-0.2,1.2-0.4c0.4-0.3,0.7-0.7,0-1.1c-1.6-1-3.2-2.1-5.1-2.8c-1-0.3-2-0.9-3-1.3
				C222.1,634.9,221.4,633.3,219.8,634z M349.3,373.5c-0.5-0.7-1.4,0.1-1.4-0.8c0-1,0.1-1.9,0.4-2.8c0.2-0.5,1.5,0.1,1.3-1.1
				c-0.2-1-1-0.6-1.6-0.8c-0.2-0.1-0.3-0.3-0.4-0.5c-0.7-0.8-1.3-0.7-1.6,0.3c-0.9,2.4-1.4,5-1.7,7.5c0,0.4,0.2,0.8,0.5,0.9
				c0.5,0.2,2.9-1,2.8-1.4C347.5,373.5,348.4,373.6,349.3,373.5z M287.3,406.9c0.5,0.6,0.1,1.9,1.3,1.7c0.9-0.2,0.6-1.1,0.8-1.8
				c0.2-1.2-0.4-2.5,0.1-3.7c0.2-0.4,0.3-1.5-0.4-1.7c-0.9-0.4-1.1-1-1.3-1.8c-0.2-0.7-0.8-0.9-1.4-0.3c-0.7,0.8,0.2,2.1-0.7,2.9
				c1.5,1.4,0.5,3,0.5,4.5c0,0.4-0.7,0.9-0.1,1.3C286.7,408.2,286.8,407.2,287.3,406.9z M302.5,278c-0.5,0.1-1.2-0.2-1.5,0.3
				c-0.4,0.6,0,1.1,0.4,1.6c0.3,0.4,0.5,0.8,0.8,1.1c0.8,1.2,2.4,1.9,2.7,3.4c0.2,0.9,0.4,1.5,1.3,1.2c0.7-0.3,1.7-0.7,0.9-2
				c-0.7-1.1-0.2-2.9-1.9-3.5c-0.1,0-0.1-0.3-0.1-0.4C304.8,278.3,303.8,278,302.5,278z M334.7,368.2c-0.1-0.7,0.5-1.6-0.5-1.9
				c-1.1-0.3-1.8,0.6-2,1.5c-0.4,1.8-0.6,3.7-0.8,5.6c-0.1,0.7-0.1,1.4,0.2,2c0.1,0.3,0.2,0.8,0.6,0.8c0.5,0,0.8-0.3,0.9-0.7
				C333.6,372.9,335.1,370.8,334.7,368.2z M345.8,388c0-0.3,0-0.5,0-0.8c0-0.8,0.1-1.9-1-2c-1-0.1-1.4,0.8-1.5,1.7
				c0,0.4,0,0.7-0.1,1.1c-0.3,1.9,0.7,3.9-0.5,5.7c-0.2,0.4-0.3,1.6,0.5,2c0.9,0.4,1-0.6,1.5-1c1-0.8-0.1-1.8,0.4-2.5
				C345.9,390.9,345.7,389.4,345.8,388z M337.5,295.8c-0.1-0.6-0.6-0.8-1-0.9c-1.6-0.5-2.9-1.3-4.2-2.3c-1.1-0.9-2.4-1.5-3.7-2.1
				c-0.4-0.2-1-0.3-1.3,0.3c-0.2,0.5-0.1,0.9,0.3,1.4c1.4,1.9,3.7,2.1,5.4,3.4c0.3,0.2,0.8,0.3,1.2,0.3c0.7,0,1.4-0.1,2.1,0.5
				C336.8,296.8,337.3,296.4,337.5,295.8z M431.5,354.1c-1.3,0-3,1.1-3.1,2.3c0,1.1,1.1,1.6,1.9,2.1c1.5,0.8,3.3,0.5,3.8-0.5
				C434.9,356.6,433.3,354.2,431.5,354.1z M367.4,296.2c1.2,0.6,2.2,1,3.1,1.7c1.2,0.9,1.7,0.3,1.8-0.8c0.1-1.6,0.5-3.3-1-4.6
				c-0.5-0.4-0.2-1.5-1.3-1.3c-1,0.2-0.5,1.2-0.9,1.7C368.3,293.9,369.1,295.6,367.4,296.2z M287.7,257.3c-1.6,0.2-2.6-0.4-3.6-1.3
				c-0.7-0.7,0-1.4-0.5-2.1c-1.2-1.7-2.7-3.1-3.7-4.9c-0.4-0.8-1.5-1.1-2.1-0.5c-0.6,0.6,0.4,1.1,0.9,1.5c1.6,1.5,2.2,2.6,2.3,4.7
				c0,0.3,0.3,0.4,0.6,0.5c0.5,0.1,1.1,0.2,1.3,0.6c0.5,1.2,1.9,1.5,2.3,2.8c0.3,0.9,1,0.9,1.7,0.1
				C287,258.3,287.3,257.9,287.7,257.3z M312.3,347.6c1-0.3,1.9,0.3,2,0.9c0.4,1.6,1.7,1.4,2.6,1.5c1,0.2,2.1,0.2,3.1,0.5
				c0.6,0.2,1.7,0.5,1.8-0.3c0.1-0.8-1-0.5-1.5-0.6c-0.1,0-0.2,0-0.3,0c-0.4-0.1-0.8-0.3-0.8-0.7c0-0.5,0.5-0.5,0.9-0.5
				c0.5,0,1,0.2,1.3-0.5C318.3,346.8,315.4,346.2,312.3,347.6z M207.2,376.2c-0.6,0.2-1.4,0-2.1,0.4c-0.6,0.3-1.3,0.6-1.1,1.4
				c0.5,1.5-1.2,2.9-0.2,4.4c0.2,0.2-1.1,0.7,0.1,1c0.8,0.2,1.4,0.1,1.8-0.7c0.3-0.7,0.6-1.5,0.5-2.1c-0.3-1.4,0.7-1.9,1.5-2.5
				c0.6-0.4,1.5-0.5,1.2-1.4C208.7,375.9,207.9,376.3,207.2,376.2z M365.2,289.8c0.1,0.3,0.1,0.5,0.2,0.8c0.3,0.6,0,1.6,1.3,1.6
				c1.4,0,1.4-1.2,1.8-1.9c0.3-0.6-0.2-1.4-1.1-1.6c-0.6-0.1-0.9-0.6-1-1.1c-0.6-1.9-0.9-2-2.9-1.4c0.4,0.6,0.9,1.3,0.7,2
				c-0.2,0.9-1.4,0-1.8,0.7c0.1,0.6,0.9,0.2,1,0.7C363.6,292.5,364.5,289.9,365.2,289.8z M367.1,634.6c0.7-1.8,0.6-1.8-1.2-2.6
				c-2.3-1-4.1,0.7-6.2,1c1.2-0.1,1.2,0.8,1.4,1.5c0.1,0.5-0.4,1.2,0.4,1.3c0.7,0.1,1.4,0.2,2-0.5
				C364.4,634.3,365.7,633.9,367.1,634.6z M245.8,499.5c1.4,0.7,0.8,2,0.7,3c-0.1,0.6-0.8,1.3-0.3,1.9c0.5,0.5,1.3,0.1,2.3,0.1
				c-1.2-0.9-1.7-1.7-0.4-2.4c0.5-0.3,0.3-0.6,0.3-0.9c-0.2-1.3,0.2-2.3,1.7-2.7c-1-0.2-0.8-1-1.1-1.5c-0.3-0.7-1.4-0.1-2-0.6
				c-0.1-0.1-0.1-0.2-0.2-0.3c-0.2-1-1.5-0.9-1.8-1.8c-0.1-0.2-0.4-0.3-0.5-0.1c-0.1,0.1-0.2,0.5-0.2,0.6c0.5,0.8,0.9,1.8,1.7,2.3
				c0.6,0.4,1,0.7,1.1,1.4C247.1,499.5,246.1,498.9,245.8,499.5z M287.4,206.2c2.1,0.9,3.4-0.3,4.8-0.7c2.9-1,5.3-2.9,8.3-3.8
				c0.9-0.3,1.8-0.5,2.8-1.3C297.1,200.2,292.9,204.3,287.4,206.2z M312.3,604.7c-1-0.5-1.9,0.2-2.9,0.4c-1.2,0.4-1.1,1.5-1,2.4
				c0,0.7,0.8,1,1.4,0.7c1.7-0.8,3.6-0.8,5.2-2c0.2-0.2,0.7-0.2,0.5-0.6c-0.1-0.3-0.3-0.6-0.6-0.7
				C314,604.9,313.2,604.5,312.3,604.7z M415.3,352.1c-1.8-1.5-3.9-1.3-5.8-1.4c-0.3,0-0.7,0-0.7,0.4c0,0.4,0.2,0.9,0.5,0.9
				c1.6,0.2,1.3,1.2,1,2.3c-0.1,0.6,0.3,0.9,0.6,1.2c0.4,0.4,1,0.5,1.5,0.2c0.7-0.4,0.2-0.7-0.1-1.1c-0.5-0.6,0-0.9,0.4-1.1
				C413.7,353.3,414.3,352.6,415.3,352.1z M178.9,377.6c0.2,0,0.5,0,0.7-0.1c1.2-0.7,2-1.8,3.4-2.1c0.3-0.1,0.4-0.6,0.4-1
				c-0.1-0.5-0.6-0.3-0.9-0.4c-0.7-0.2-1.5,0.2-2.1-0.1c-1.1-0.6-2.4-0.5-3,0.5c-0.7,1.1,0.5,1.8,0.5,2.8
				C177.9,377.6,178.5,377.6,178.9,377.6z M323.7,614.8c0.6,0.2,1,0.3,1.4,0.4c2.5,0.8,4,0.2,5.2-2.1c0.1-0.3,0.5-0.4,0.7-0.6
				c0.2-0.2,0.8-0.2,0.6-0.7c-0.2-0.4-0.6-0.4-1-0.4c-0.7,0.1-1.4,0.1-1.8,0.8c-0.2,0.4-0.5,0.7-1,0.7
				C326.1,612.7,325.1,613.9,323.7,614.8z M270.4,314.3c2.1,0.5,2.1,0.5,2-1.3c0-0.5,0.3-0.7,0.7-0.9c1.4-0.6,1.2-1.9,1.3-3.1
				c0-0.5-0.3-0.7-0.8-0.7c-1.2,0.2-3.5,2-3.8,3.2c-0.1,0.4,0,0.7,0.4,0.7c0.6,0,1.2,0,1.3,0.8C271.7,313.9,270.6,313.5,270.4,314.3
				z M296.7,257.9c0.2-0.6,0.3-1.2-0.4-1.7c-0.7-0.4-1.1,0.4-1.8,0.5c-1,0.1,0-1.3-0.9-1.2c-0.6,0.1-1.3-0.2-1.8,0.4
				c-0.5,0.7,0.1,1.1,0.5,1.5c0.2,0.3,0,0.5,0.1,0.7c0.1,0.8,0.5,1.4,1.1,1.8c0.5,0.3,1.6,1.1,1.3-0.6c-0.1-0.4,0.2-0.7,0.6-0.4
				C297,260.3,296.9,259.2,296.7,257.9z M380,303.9c-0.3-0.7-0.5-1.4-0.8-2c-0.2-0.5-0.6-0.9-1.2-0.8c-0.5,0.1-0.8,0.4-1.1,1
				c-0.7,1.5,0.1,2.9,0.2,4.3c0,0.6,0.8,1,1.5,1.1c0.4,0,0.9-0.2,0.9-0.5C379.3,305.8,379,304.7,380,303.9z M341.3,488.5
				c-1.1,0.3,0,1.8-1.2,2c-1.8,0.4-1.9,2.6-3.5,3.2c-0.2,0.1-0.3,0.6-0.1,0.9c0.2,0.3,0.6,0.3,0.8,0c0.5-0.9,1.3-0.7,2.1-0.8
				c1.9-0.2,2.9-1.5,2.4-3.2C341.6,489.9,341.6,489.1,341.3,488.5z M218.5,241.8c-0.4,0-0.9-0.1-1.1,0.4c-0.8,1.7-2.3,3.1-2.5,5
				c0,0.3-0.3,0.6,0,0.8c0.3,0.2,0.6,0.2,0.9,0.1c0.5-0.2,0.9-0.5,1.1-1.1c0.5-1.4,1.1-2.7,2.3-3.6c0.4-0.3,0.8-0.6,0.7-1.2
				C219.7,241.4,218.9,242.1,218.5,241.8z M198,595.5c0,1.1,2,3.9,3.1,4.2c0.5,0.1,0.9,0.1,1.3-0.3c0.5-0.4,0-0.8-0.1-1.1
				c-0.6-1-1.2-2-2-3c-0.4-0.5-0.7-1.3-1.6-1C198.2,594.5,198,595,198,595.5z M281.6,292.5c-0.8,0.4-1.6,0.7-1.5,1.9
				c0.1,0.7,0.5,1.4-0.3,2c-0.5,0.4,0.4,0.8,0,1.4c-0.3,0.5,0.7,0.8,1,0.5c0.8-0.6,2-1.1,1.6-2.6c-0.1-0.6-0.3-1.2,0.1-1.9
				C283.1,292.8,282.3,292.8,281.6,292.5z M303.7,271.5c0,0.2-0.1,0.4,0,0.5c0.4,0.5-0.1,1.8,1.1,1.6c1-0.1,0.8-1.1,0.8-1.7
				c0-1.7,0.2-3.4-0.2-5c-0.1-0.5-0.4-0.6-0.8-0.6c-0.2,0-0.5-0.1-0.6,0.3C303.8,268.2,303.6,269.8,303.7,271.5z M211.9,554.6
				c-1.1-0.4-2.1-1.7-2.9,0.7c-0.6,1.7-1.7,3.3-1.8,5.3c0,0.4-0.2,0.8,0.2,1c0.4,0.1,0.7-0.2,0.8-0.5c0.6-1.7,1.5-3.2,2-4.9
				C210.7,555.1,211,554.7,211.9,554.6z M256.7,264.4c-1.3-0.9-0.8-2.1-0.8-3.3c0-0.6-0.2-1.6-1-1.3c-0.8,0.2-2.3,0.4-1.9,1.5
				c0.3,0.9,0.6,2,1.2,2.8C254.9,265.1,255.6,265.5,256.7,264.4z M208.9,608.1c1.3,0.5,2.3,0.6,2.7-1c0.1-0.5,0.3-0.8,1-0.3
				c0.3,0.3,1.1,0.3,1.4-0.3c0.2-0.3,0.4-0.8,0.2-1c-0.7-1-1.9-0.8-2.9-0.9c-0.9-0.1-1.4,0.4-1.5,1
				C209.7,606.5,209.2,607.2,208.9,608.1z M213,256c-0.2,2.8-2.7,5.1-0.1,7.5C214.5,261.9,214.6,259,213,256z M292.1,358.9
				c-1,0.2-1,0.2-2,2.5c-0.2,0.5-0.9,1.1,0,1.6c0.8,0.5,1.7,1.4,2.7,0.4c0.6-0.5,1.1-1.2,1.5-1.8C292.2,361,290.9,360.6,292.1,358.9
				z M296.5,414.3c1-1.2,1.3-2,1.1-3.4c-0.2-1.3,0-2.6-0.6-3.9c-0.2-0.5-0.3-1-0.9-0.8c-0.6,0.2-0.7,0.8-0.1,1.2
				c0.2,0.2,0.1,0.4,0,0.6C295.4,410.1,296.2,412,296.5,414.3z M245.1,398c0,0.3-0.1,0.7,0.1,1c0.2,0.6,0.3,1.4,1.1,1.4
				c0.8,0.1,0.9-0.7,1.2-1.3c0.5-1.4-0.5-2.6-0.1-4c0.1-0.5-1-0.6-1-0.3C246.3,396,244.9,396.6,245.1,398z M351.6,627.3
				c-0.2-0.4,0.2-1-0.4-1.3c-1.7-0.8-3.2-2-5.2-2.1c-0.3,0-0.6,0-0.7,0.3c-0.2,0.5,0.3,0.6,0.5,0.6c1.4,0.2,2,1.3,2.9,2.1
				c0.6,0.5,1.1,1.1,1.9,1.2C351.2,628.2,351.8,628.2,351.6,627.3z M209.1,272.3C209,272.3,209,272.3,209.1,272.3
				c-0.1,0.3-0.1,0.6-0.1,1c0,0.5,0,1.1,0.6,1.4c0.7,0.3,0.9-0.3,1.3-0.6c1-0.7,0.7-1.9,1-2.9c0.1-0.3-0.9-1.3-1.5-1.3
				c-0.7,0-1.5,0.4-1.4,1.4C208.9,271.6,209,272,209.1,272.3z M195.9,597.1c-1.1-0.2-1.7-0.5-1.7-1.7c0-0.7-0.8-1.4-1.6-1.9
				c-0.7-0.5-1.4-0.1-1.8,0.4c-0.6,0.7,0.1,1.2,0.6,1.3c1.1,0.4,1.2,1.8,2.3,2.3c-0.6,0.1-0.9,0.2-1.2,0.2
				C193.6,597.7,194.8,598.4,195.9,597.1z M313.3,620c-0.4,0.2-1.3,0.2-1.6,0.6c-0.6,1-1.6,1.2-2.6,1.5c-0.5,0.1-1.1,0.3-0.8,0.9
				c0.2,0.6,0.8,0.3,1.3,0.2c1.5-0.5,2.9-0.9,4.4-1.4c0.4-0.1,1.1,0,1-0.7C314.7,620.4,314.3,619.9,313.3,620z M435.4,355.4
				c-0.4,0.7-0.3,1.3,0.6,1.3c1.4,0,3.6-1.1,3.5-1.8c-0.3-1.8-1.8-1.1-2.8-1.3C435.3,353.4,434.8,354.2,435.4,355.4z M426.5,356.3
				c1,0,2.4-1.3,2.1-2.3c-0.2-0.8-1.4-1-2.2-1c-0.7,0-1.7-0.1-2,0.9C424.3,354.5,425.9,356.3,426.5,356.3z M229.2,377
				c0,0-0.1-0.1-0.2-0.1c-0.9-0.4-1.1-1.1-1.1-2.1c0-0.5-0.5-0.5-0.9-0.5c-0.5-0.1-0.6,0.2-0.8,0.6c-0.4,1,0,2.1-0.9,2.9
				c-0.2,0.2,0,0.5,0.3,0.6c0.5,0.2,1.1,0.6,1.7,0.2C228,378.3,228.5,377.6,229.2,377z M339.1,499.6c-0.4-0.5-0.9-0.7-1.4-0.2
				c-0.6,0.5-0.9,1.2-1.7,1.7c-0.4,0.2-0.3,0.7,0,1c0.5,0.6,0.9,1.1,0.7,2c-0.1,0.6,0.4,1,1,1.1c0.8,0,0.6-0.7,0.8-1.2
				c0.1-0.2-0.1-0.5-0.2-0.7c-0.3-1-1-2,0.5-2.7C338.9,500.3,338.9,499.9,339.1,499.6z M238.6,523c-1.6,1.1-1.6-0.5-2.3-0.7
				c-0.5,0.5-0.3,1.3-0.9,1.5c-1.3,0.5,0.3,1.6-0.5,2.2c0.4,0.5,1,0.8,1.5,0.5c0.6-0.3,1.7-0.3,1.3-1.6
				C237.5,524.5,238,524,238.6,523z M330.1,547.2c0.3-0.4,1-0.8,1-1.3c0-0.8,0.7-1.7,0.1-2.4c-0.6-0.6-1,0-1.3,0.6
				c-0.2,0.4-0.7,0-1,0.2c-0.6,0.4-1.7,0.8-1.2,1.7C328.1,546.6,329.2,546.8,330.1,547.2z M336.1,476.3c0-0.6,0-1.3-0.4-1.9
				c-0.2-0.4-0.5-0.5-0.9-0.4c-0.4,0.1-0.5,0.4-0.4,0.7c0.2,0.9-0.4,0.9-1,0.9c-0.4,0-0.7,0.2-0.8,0.6c-0.1,0.4,0.3,0.5,0.5,0.7
				c0.3,0.2,0.6,0.4,0.9,0.7c0.5,0.6,1.1,0.5,1.7,0.2C336.2,477.6,336.3,477.1,336.1,476.3z M341.6,520c2-0.5,1.9-2.2,2.7-3.3
				c0.3-0.4,0.8-1.1,0.2-1.6c-0.6-0.5-1.3-0.1-1.9,0.3c-0.5,0.4-0.6,0.8-0.7,1.4C341.8,517.8,342.1,518.9,341.6,520z M334.5,480.7
				c-0.8-0.7-3.3-1.7-4.1-1.6c-0.5,0.1-1.2,0.3-1.2,0.7c0,0.6-0.3,1.4,0.3,1.9c0.5,0.4,1,0.1,1.3-0.4c0.4-0.5,1-0.3,1.5-0.2
				C333,481.2,333.7,481.4,334.5,480.7z M331.4,539.9c0.4,0.5,0.9,0.9,1.3,1.5c0.2,0.4,0.7,1,1.3,0.7c0.7-0.3,1.1-1,1.2-1.8
				c0.1-0.7-0.3-1.4-0.9-1.8c-0.6-0.4-1.3-0.2-1.6,0.4C332.4,539.5,331.8,539.4,331.4,539.9z M274.9,404.9c-0.2,0.1-0.5,0-0.8,0.6
				c-0.4,0.8,0.1,1.1,0.1,1.6c0,0.6-0.2,1.1-0.5,1.6c0.5,0.2,1,0.5,1.5,0.5c0.5,0,0.4-0.6,0.5-0.9c0.3-0.7,0.3-1.5,0.5-2.3
				C276.4,405.1,276.1,404.6,274.9,404.9z M325.8,349.5c0.9,1.1,0.8,2.3,0.9,3.4c0,0.4-0.5,1,0.3,1.1c0.8,0.1,0.6-0.6,0.8-1.1
				c0.2-0.6,0-1.3,0.5-1.8c0.2-0.2,0.3-1,0.1-1.5c-0.2-0.7-0.8-0.6-1.1-0.4C326.8,349.5,326.4,349.3,325.8,349.5z M290.8,305.7
				c-0.7-0.3-1.5-0.1-1.7-1.1c-0.1-0.4-0.7-0.5-0.9-0.2c-0.5,0.6-1,1.3-1.1,2c-0.1,0.5,0,1.5,1.1,1.2c0.6-0.2,1.1,0.1,1.9,0.1
				C289.1,306.7,289.5,306,290.8,305.7z M253.6,528.4c0.1-0.4,0-0.5-0.2-0.6c-0.8-0.3-4,0.9-4.5,1.7c-0.2,0.3-0.6,0.6-0.2,1
				c0.3,0.4,0.7,0.4,1.2,0.2c1-0.4,1.9-1.4,3.1-1.4C253.2,529.2,253.4,528.6,253.6,528.4z M325.9,545.9c0.1-0.3-0.3-0.4-0.4-0.6
				c-0.5-0.5-1.2-0.6-1.6-0.3c-0.8,0.5-1.4,1.3-2,2c-0.2,0.3,0.2,0.4,0.4,0.4c0.4,0,0.8,0.1,1.2,0.3
				C324.2,548,325.9,546.7,325.9,545.9z M264.7,316.7c-0.5-0.4,0.2-1.7-1.1-1.6c-1.1,0.1-1,1-1,1.7c0,0.4,0.1,0.7-0.2,1.1
				c-0.7,0.8,0.2,1.3,0.6,1.6c0.6,0.4,0.7-0.4,0.9-0.7C264.4,318.2,264.4,317.5,264.7,316.7z M309.8,200.2c1.1-0.5,2.1-0.6,3.1-0.4
				c0.8,0.2,1.5-0.2,2.1-0.5c0.3-0.1,0.5-0.3,0.4-0.6c-0.1-0.3-0.3-0.4-0.6-0.4c-1.5,0-3-0.2-4.4,0.4
				C309.6,199,309.6,199.4,309.8,200.2z M248.8,520.7c0.7-0.2,0.8-1.1,1.5-1.3c0.1,0,0.9-1,0.2-1.6c-0.7-0.6-0.9,0.4-1.2,0.6
				c-0.7,0.6-1.2,1.4-2.3,0.5c-0.2-0.1-1,0.1-1,0.6c0,0.5,0.2,1,0.8,1C247.4,520.4,248.1,520.3,248.8,520.7z M298.1,259.1
				c0,0.8,0.1,1.3,0.1,1.8c0,0.4,0.1,0.6,0.5,0.6c0.4,0,0.6-0.2,0.6-0.6c0.2-1.2,0.3-2.3,0.4-3.5c0.1-0.5-0.1-0.9-0.5-1.3
				c-0.3-0.2-0.6-0.3-0.9-0.1c-0.2,0.1-0.4,0.3-0.3,0.5C298.7,257.6,298.3,258.5,298.1,259.1z M216.5,613.3c0-1-1-2.1-1.9-2
				c-0.5,0-0.9,0.2-0.9,0.7c-0.1,1.5,0.5,2.4,1.7,2.4C216,614.4,216.7,614.3,216.5,613.3z M294,346.6c-0.6-1.8-1.7-2.6-3.3-2.6
				c-0.4,0-0.8-0.1-0.9,0.4c-0.1,0.4,0.2,0.6,0.3,0.8C290.9,346.9,292.5,346.3,294,346.6z M339.8,465.4c0.8,0.2,0.9-0.2,0.7-0.7
				c-0.3-0.7-0.7-1.4-1-2.1c-0.2-0.4-0.4-0.8-0.9-0.7c-0.4,0.1-0.7,0.5-0.8,0.9C337.3,464.4,338,465.2,339.8,465.4z M319.4,294.6
				c0.2-0.4,0-0.5-0.2-0.6c-0.3-0.1-0.6-0.2-0.9,0.1c-0.8,0.7-1.6,1.4-1.8,2.5c-0.1,0.4-0.7,0.8,0.1,1.2c0.6,0.3,1.4,0.3,1.7-0.4
				C318.6,296.4,318.8,295.3,319.4,294.6z M237.5,430.9c0.6-0.8-0.1-1.1-0.6-1.3c-0.3-0.2-0.7,0-0.7,0.4c-0.1,1.1-0.4,2.3-0.1,3.4
				c0.1,0.5,0.4,0.8,0.9,0.7c0.4-0.1,0.5-0.4,0.5-0.8C237.7,432.4,237.7,431.7,237.5,430.9z M328.5,473.9c0-0.2,0.4-0.8-0.5-0.8
				c-1.2,0-1.6,0.9-1.7,1.9c0,0.8,0.1,1.8,1.2,1.7C329.4,476.5,328.3,475.1,328.5,473.9z M239.3,247.3c0.8,0.1,2-0.7,3.2-0.8
				c0.2,0,0.3-0.2,0.3-0.4c-0.1-0.7-1.3-1.5-2-1.1c-0.8,0.4-1.4,1.1-2.3,1.3c-0.3,0.1-0.5,0.4-0.4,0.8
				C238.3,247.4,238.6,247.3,239.3,247.3z M313.7,611.1c-0.5,0-0.7-0.1-0.9,0c-0.6,0.2-1.6,0.4-1.5,1.2c0,0.7,0.9,0.4,1.5,0.5
				c0.5,0.1,0.9,0.2,1.4,0.2c0.5,0,1.3,0.4,1.5-0.4c0.2-0.8-0.6-1-1.1-1.3C314.2,611.1,313.8,611.1,313.7,611.1z M252.7,370.9
				c-0.1-1-0.9-1.1-1.4-1c-0.8,0.1-2.1-0.1-2.2,1c-0.1,0.9,0.9,1.4,1.8,1.5C251.7,372.4,252.3,371.7,252.7,370.9z M331.2,536.5
				c-0.1,0.4-0.1,0.8,0.3,1c0.5,0.3,0.8-0.1,1.1-0.4c0.9-0.6,0.1-1.6,0.5-2.4c0.4-0.7-0.1-1.2-0.9-1.4c-0.8-0.1-1,0.5-1.1,1.1
				C331.2,535.2,331.6,535.8,331.2,536.5z M327.5,533.8c-0.4-0.7-0.2-2-1.6-2.2c-0.4,0-0.9,0-0.9,0.6c-0.1,1.2,0.9,2.9,1.7,2.9
				C327.4,535.1,327.5,534.6,327.5,533.8z M292,404.7c0.1,0.6-0.4,1.5,0.6,1.4c0.8-0.1,1.4-0.7,1.7-1.5c-1-0.3,0.4-2.1-1.2-2
				C291.4,402.7,292.4,404.1,292,404.7z M331.2,523.6c1.1-0.1,2.2-0.1,2.3-1.1c0.1-0.9,0.4-1.6,0.8-2.3c0.2-0.3,0.5-0.7,0.1-1
				c-0.2-0.2-0.6-0.1-0.9-0.1c-0.5,0-0.4,0.3-0.5,0.7C332.6,521.1,332.3,522.5,331.2,523.6z M250.1,476c0.2,0.8,0.3,1.9,1.3,1.9
				c1.2-0.1,0.6-1.6,1.1-2.4c0.3-0.4-0.7-0.9-1.2-0.8C250.6,474.7,249.9,475,250.1,476z M243.7,537.8c-0.7-0.4-1.3-0.2-1.9-0.3
				c-1.3-0.2-2.3,1.3-1.9,2.4c0.1,0.3,0.3,0.5,0.7,0.5c0.3,0,0.8-0.1,0.8-0.3C241.2,538.2,242.5,538.1,243.7,537.8z M349.3,336.4
				c-1.1-0.3-1.3-0.5-1.9-2.2c-0.2-0.5-0.4-0.8-0.9-0.5c-0.5,0.2-0.7,0.8-0.3,1.2c0.3,0.4,0.6,0.7,0.7,1.1
				C347.6,337.9,347.7,337.9,349.3,336.4z M232.8,521.4c0.2-0.9-0.5-1.2-1.1-1.3c-0.9-0.1-1.3,0.6-1.2,1.3c0.1,0.7,0,1.7,1,1.8
				C232.6,523.2,232.8,522.3,232.8,521.4z M320.6,504.2c0.9,0.2,1.4,0.9,2.4,0.8c1.1-0.1,0.8-1.3,1.6-1.6c0.2-0.1-0.2-0.4-0.4-0.5
				c-0.9-0.4-1.9-0.6-2.2,0.5C321.6,504.1,321,503.8,320.6,504.2z M334.9,457.6c-1-0.8-2-1.2-3-0.4c-0.2,0.2-0.2,1.6,0.6,2.2
				c0.2,0.1,0.4,0.3,0.7,0.3c0.3,0,0.4-0.3,0.3-0.6C333.3,458.1,334.1,458,334.9,457.6z M331.7,462.6c1.5,0.1,1.2,2.4,2.9,2.2
				c-0.7-0.9,0.9-1.8-0.1-2.7C333.5,461.3,332.7,462.6,331.7,462.6z M229.2,511.7c-0.9-0.1-1.7,0.1-1.6-1.1c0-0.5-0.8-0.4-0.8-0.1
				c-0.2,1.2-1.5,2.1-0.6,3.8C226.6,512.7,227.5,511.8,229.2,511.7z M395.4,349.4c-0.5,0-0.9-0.1-1.2,0.4c1.1,0.2,0.4,1.8,1.3,1.9
				c0.9,0.1,2.1-0.7,2.1-1.4C397.5,349,396.1,349.8,395.4,349.4z M329.2,524c-0.5,0.4-1.4,0.3-1.3,1.3c0.1,0.7,0.2,1.3,1.3,1.3
				c1.1-0.1,1.3-0.9,1.4-1.6C330.6,524.3,329.8,524.2,329.2,524z M352.4,341.9c-0.4-1.6-1.1-3-1.4-4.6c0-0.3-0.4-0.3-0.7-0.1
				c-0.2,0.2-0.2,0.4-0.2,0.7c0.2,1.3,1.2,2.4,0.9,3.8c-0.1,0.4,0.6,0.5,1,0.6C352.3,342.3,352.4,342,352.4,341.9z M242.4,450.9
				c1.2,0.9,2.4,0.7,3.4,1.4c1.8,1.4,1.9,1.3,2.9,0.6C246.8,451.9,245,450.6,242.4,450.9z M342.9,512.5c0,0.3-0.3,0.8,0.4,0.8
				c0.6,0,1.1-0.3,1.1-1.1c0-0.6-0.4-1.1-0.2-1.7c0.1-0.5-0.1-1.1-0.6-1c-0.6,0.1-1.1,0.7-0.8,1.3
				C343,511.4,343.1,511.9,342.9,512.5z M224.2,383.9c0-0.6,0-1.3-0.8-1.3c-1.5,0-1.1,1.4-1.5,2.2c-0.2,0.4,0.1,0.8,0.5,0.8
				C223.3,385.5,224.1,385.1,224.2,383.9z M343.2,375.4c0-0.2,0-0.7-0.6-0.8c-0.5-0.1-0.6,0.3-0.8,0.6c-0.4,0.8,0,1.7-0.2,2.6
				c-0.1,0.3,0.4,0.6,0.8,0.6c0.4,0,0.8-0.2,0.7-0.7C342.9,377.1,343.2,376.4,343.2,375.4z M382.1,348.6c-1.2-1.5-2.8-0.7-4.1-1.2
				c-0.3-0.1-0.4,0.2-0.3,0.6c0.1,0.3-0.1,0.5,0.4,0.7C379.4,349.1,380.7,348.9,382.1,348.6z M270.2,294.6c0.5,0.1,2.9-2.7,2.7-3.2
				c-0.1-0.3-0.4-0.6-0.7-0.3c-0.7,0.9-1.9,1.3-2.4,2.4C269.6,294.1,269.6,294.4,270.2,294.6z M255.3,500.2
				c-1.3,0.2-2.1,0.9-2.9,1.6c-0.3,0.2-0.9,0.3-0.7,0.9c0.1,0.4,0.6,0.4,0.9,0.5c0.5,0.1,1,0.1,1.1-0.4
				C253.8,501.7,254.7,501.2,255.3,500.2z M226.9,506.9c-1.2,0.3-2.5,0.4-2.1,2.3c0.1,0.3-0.8,0.7,0,0.9c0.6,0.2,0.8-0.2,1.1-0.7
				C226.3,508.6,226.2,507.6,226.9,506.9z M342.2,471.9c-0.6-1.1-0.6-2.2-0.6-3.3c0-0.6-0.6-0.8-0.8-0.4c-0.3,0.6-1.1,0.4-1.4,1.3
				c1.7-0.6,1.3,0.6,1.3,1.3C340.6,471.8,341.1,472,342.2,471.9z M291.3,347.5c0.7,1.4,2,1.5,3.3,1.4c0.7,0,1-0.4,1-1.2
				C294.1,347.6,292.7,347.5,291.3,347.5z M331.9,502c1.1,0.6,1.1,1.4,1.3,2.1c0.1,0.5,0.2,1,0.9,0.5c0.7-0.6,0.5-1.5,0.6-2.3
				c0.1-0.5-0.9-0.6-1.6-0.5C332.8,501.9,332.6,501.9,331.9,502z M203.6,572.2c-0.9,0.1-2.2,2.7-1.8,3.5c0.1,0.2,0.3,0.3,0.5,0.2
				c0.5-0.1,1.9-2.9,1.7-3.4C204,572.3,203.8,572.2,203.6,572.2z M342.1,544.2c-0.9-2.3-0.9-2.3-3.4-1
				C339.4,544.9,340.8,544,342.1,544.2z M356.2,354c-0.3,0.9-0.6,1.6,0.4,1.6c0.7,0,1.3-0.6,1.2-1.2c-0.2-0.9-0.6-2.3-1.5-2.1
				C355,352.5,356.4,353.7,356.2,354z M286,215.2c2.1,0.4,1.5-0.9,1.8-1.7c0.2-0.7,0.3-1.3-0.2-1.9c-0.1-0.1-0.5-0.1-0.6,0
				c-0.5,0.5-0.4,1.2-0.4,1.9C286.7,214,287.3,214.8,286,215.2z M249.4,538.5c-1.1-0.6-1.8-1.1-2.8-0.6c-0.2,0.1-1.1,0.1-0.2,0.6
				c0.2,0.1,0.2,0.7,0.3,1c0,0.4,0.1,0.8,0.6,0.8c0.5,0,0.9-0.2,0.8-0.7C248,538.9,248.6,538.8,249.4,538.5z M321.3,341.7
				c-1.5-0.4-2.8-0.4-3.8-1.4c-0.5-0.5-0.8,0-1.1,0.1c-0.3,0.1-0.4,0.5-0.4,0.8c0.1,0.5,0.5,0.7,1,0.7
				C318.3,341.7,319.7,342.1,321.3,341.7z M296.4,436.2c0.5,0.4-0.1,1.6,1.1,1.7c0.6,0,1-0.6,0.9-1.1c-0.2-0.7,0-1.8-1-2
				C296.7,434.8,296.5,435.5,296.4,436.2z M335.2,547.9c-0.7,0.1-1.8-0.1-1.8,1c0,0.9,1.1,0.5,1.7,0.6c0.6,0.1,1.6-0.3,1.7-0.9
				C336.9,547.7,335.9,548.1,335.2,547.9z M326.1,491.6c0.4,0.2,0.8,0.4,1.2,0.7c0.6,0.4,1.3,0.4,1.4-0.3c0.1-0.4,0.9-1,0.1-1.5
				c-0.6-0.4-1.2-0.6-1.6,0.3C327,491.2,326.3,491,326.1,491.6z M343.9,372.8c-0.6-0.4,0.5-1.7-0.7-1.8c-1-0.1-0.9,1.1-1.1,1.9
				c-0.1,0.6,0,1.2,0.9,1.2C343.7,374,343.9,373.6,343.9,372.8z M297.9,405.2c-1.4-0.4-1.3-1.2-1-2.2c0.1-0.3,0.1-0.7-0.2-0.8
				c-0.1-0.1-0.5,0-0.5,0.1c-0.2,0.9-0.7,2-0.5,2.8C295.9,406.1,296.9,405.4,297.9,405.2z M233,531.3c0.2,0.4,1.5,0.4,0.6,1.3
				c0.7,0,0,1.1,0.7,0.9c0.7-0.2,1.4-0.7,1.4-1.5c0-0.8-0.7-0.9-1.2-0.9C234.1,531,233.5,530.7,233,531.3z M259.2,500.3
				c0-0.2,0-0.3-0.1-0.4c-0.8-0.8-1.4,0-2,0.3c-0.6,0.3-1,1-1.3,1.7c0,0,0.1,0.1,0.1,0.1c0.7,0.4,1.1-0.1,1.6-0.4
				C258.2,501.2,258.9,500.9,259.2,500.3z M303.8,502.2c-0.1-0.7-0.2-1.4-1-1.6c-0.8-0.2-1.5,0.1-2.1,0.6c-0.2,0.2-0.4,0.4-0.3,0.7
				c0.1,0.3,0.4,0.5,0.8,0.4C302.1,501.8,302.9,502.2,303.8,502.2z M224.8,517.9c0-0.6-0.1-1.1-0.8-1c-0.8,0.1-1.3,0.6-1.2,1.5
				c0,0.6,0,1,0.8,1C224.6,519.4,224.8,518.8,224.8,517.9z M254.6,440.7c-0.2-0.6-0.1-1.4-0.7-2c-0.4-0.4-0.9-0.6-0.9,0.1
				c-0.1,0.8-0.5,1.7,0.2,2.4c0.3,0.3,0.4,1,1,0.9C254.8,441.8,254.3,441.1,254.6,440.7z M328.8,537.9c1.6,0.1,1.3-1.4,1.7-2.1
				c0.3-0.5-0.4-0.5-0.7-0.4c-1.2,0.1-1.4,1.1-1.7,2C327.9,537.8,328.4,537.9,328.8,537.9z M229.1,240.2c1.2,1.1,2.6,1,3.9,0.9
				c0.4,0,0.7-0.4,0.6-0.8c-0.1-0.4-0.4-0.4-0.8-0.4C231.6,240,230.4,240.1,229.1,240.2z M296.2,394c0.1,0.6,0.3,1.2,1.2,1.2
				c0.5,0,1,0,0.8-0.8c-0.2-0.7-0.1-1.7-1.1-1.8C296.4,392.5,296.3,393.3,296.2,394z M366.4,293.4c-0.7,0.1-1.8,0-1.9,0.8
				c-0.1,0.6,0.9,1.1,1.6,1.1c0.6,0,1.4-0.5,1.4-1.2C367.6,293.4,366.9,293.4,366.4,293.4z M319.5,309.2c1.4-0.4,2.8-0.7,3.6-2.1
				C321,306.3,320.5,308.3,319.5,309.2z M347.5,327.4c-0.3,0.3-1.3-0.1-1.2,0.9c0.1,0.5,0,1.3,0.9,1.2c1,0,1-1,1.3-1.6
				C348.7,327.4,348,327.5,347.5,327.4z M183.7,369c-0.7-0.2-1.3,0-1.5,0.8c-0.1,0.5,0.4,0.8,0.8,0.7c0.9-0.2,2.2,0.1,2.4-1
				C185.5,368.8,184.4,369,183.7,369z M246.6,475.6c-1.4,0.6-1,1.6-0.6,2.6c0.2,0.5,0.7,0.4,1,0
				C248.1,477.1,247.1,476.4,246.6,475.6z M341.4,525.8c1.1-0.3,1.1-1.3,1.3-2.1c0.1-0.5-0.2-0.6-0.5-0.5c-1,0.2-1.3,1-1.6,1.8
				C340.5,525.4,340.9,525.7,341.4,525.8z M233.9,318.3c0.9-0.1,0.9-0.9,1.3-1.3c0.3-0.3,0.8-0.5,0.3-0.9c-0.3-0.3-0.8-0.4-1.2-0.2
				c-0.6,0.4-1,1-1,1.8C233.3,318,233.6,318.3,233.9,318.3z M313.1,278c0,0.3-0.5,1.1,0.3,0.9c0.7-0.2,1.3-1.1,1.7-1.8
				c0.2-0.5-0.4-1.1-1-0.8C313.6,276.6,312.8,276.9,313.1,278z M295.2,247.8c0.6-0.2,1.4,0,1.4-0.8c0-0.7-0.1-1.4-0.7-1.9
				c-0.4-0.4-0.9-0.4-1.3,0c-0.5,0.5,0,0.7,0.3,1C295.7,246.5,295.6,247,295.2,247.8z M370.6,354.1c-0.7,0.1-1.5,0-1.6,0.9
				c0,0.6,0.7,0.8,1.2,0.8c0.6,0,1.4-0.2,1.4-1C371.7,354.2,371.2,354.1,370.6,354.1z M342.8,502.5c0.2-0.5,0-1-0.5-1
				c-1,0.1-1,0.9-1,1.7c0,0.5-0.5,1.3,0.4,1.3C343,504.4,342.6,503.2,342.8,502.5z M235.2,640.4c0.3-1.2,0.3-2.1-0.5-2.6
				c-0.4-0.2-0.9,0-1.1,0.7C233,640.4,234.9,639.3,235.2,640.4z M376.4,350.9c-1.7,0-3.2,0-4.7,0C373.3,351.9,375,351.9,376.4,350.9
				z M344.5,519.6c0.1,0.5-0.4,1.5,0.7,1.4c0.8-0.1,0.8-0.8,0.8-1.5c0-0.5,0.3-1.2-0.6-1.1C344.9,518.5,344.3,518.8,344.5,519.6z
				 M232.5,371.8c-0.1-0.9-0.9-0.9-1.3-0.8c-0.9,0.1-0.5,1.1-0.9,1.7c-0.3,0.5,0.5,0.6,0.7,0.6C232,373.3,232,372.3,232.5,371.8z
				 M344,506.6c0.1,0.4,0,1.2,0.8,1.1c0.8,0,0.4-0.7,0.4-1.1c0-0.4,0-0.9,0.1-1.2c0.1-0.3,0.3-0.6-0.2-0.7c-0.3,0-0.9-0.3-0.9,0.4
				C344.1,505.6,344,506.1,344,506.6z M256.1,515.2c-0.3-0.5-0.4-1.3-0.9-1c-0.6,0.2-1.5,0.3-1.6,1c-0.1,0.5,0.8,0.7,1.1,1.2
				C255.2,515.9,255.7,515.6,256.1,515.2z M339.5,482.3c-0.1-0.6-1-0.8-0.7-1.5c0.2-0.4-0.1-0.8-0.5-0.8c-0.4,0-0.9-0.1-1,0.5
				c-0.1,0.4-0.3,0.8,0.2,1.1C338,481.9,338.6,482.4,339.5,482.3z M207.2,272.8c0-0.6,0.2-1.5-0.8-1.5c-0.8,0-0.6,0.7-0.6,1.2
				c0,0.6-0.1,1.3,0.7,1.3C207.2,273.8,207.4,273.4,207.2,272.8z M290.3,388.9c-0.1,0.7-0.1,1.3-0.2,1.9c-0.1,0.5,0,0.8,0.5,1
				c0.3,0.1,0.5,0.1,0.7-0.2c0.3-0.3,0.5-0.7,0.3-1.1C291.3,389.9,290.9,389.4,290.3,388.9z M336.8,528.3c1.3,1.1,1.9,1.1,2.7-0.1
				c0.2-0.3,0.4-0.6,0.2-0.9c-0.3-0.4-0.7-0.3-1-0.1C338.1,527.5,337.5,527.9,336.8,528.3z M268.7,298.4c0.3,0.6-0.2,1.6,0.9,1.4
				c0.4-0.1,1.3,0.2,1-0.7c-0.2-0.5,0.1-1.6-1.1-1.4C269.2,297.7,268.6,297.8,268.7,298.4z M335.4,362.8c-0.2-0.5-0.7-0.6-1.1-0.7
				c-1-0.1-1,0.8-1.2,1.4c-0.2,0.5,0.4,0.5,0.8,0.5C334.7,364.1,335,363.5,335.4,362.8z M323.3,538.9c0-0.6-0.1-1.2-0.7-1.1
				c-1.1,0.1-0.6,1.4-1.2,2c-0.2,0.2,0.4,0.5,0.7,0.4C322.7,540,323.4,539.7,323.3,538.9z M335.9,532.1c-0.1-1.1-1-0.9-1.7-1.1
				c-0.4-0.1-0.9,0.1-0.7,0.5c0.3,0.7,0.8,1.4,1.7,1.4C335.8,533,335.9,532.6,335.9,532.1z M232.4,317.7c-0.2-0.5-0.5-0.6-0.9-0.6
				c-1,0.1-1.2,0.9-1.3,1.7c-0.1,0.5,0.5,0.4,0.8,0.5C232.2,319.3,231.7,318,232.4,317.7z M332.1,376.9c-0.5,0.1-0.9,0.4-0.9,1
				c0,0.6,0.2,1.2,0.9,1.3c0.6,0.1,0.9-0.2,1-0.8C333.2,377.6,332.8,377.1,332.1,376.9z M338.6,377.1c-0.6,0-1.3-0.4-1.3,0.6
				c0,0.8,0.6,0.6,1,0.7c0.7,0.1,1.5-0.1,1.6-0.7C340,376.8,339.1,377.3,338.6,377.1z M242,450.8c-1.1-0.8-1.7-1.4-1.6-2.4
				c0.1-0.4-0.2-0.7-0.7-0.7c-0.3,0-0.4,0.2-0.5,0.5C239.2,449.1,240.6,450.6,242,450.8z M302.3,252.1c0.5,0.2,0.8,0.7,1.1,1.1
				c0.3,0.3,0.8,0.5,0.9,0.1c0.2-0.4,0.2-1.1-0.1-1.5C303.7,251,303,251.7,302.3,252.1z M333.5,490.3c-0.3-0.6,0-1.7-1.1-1.9
				c-0.4-0.1-0.7,0.4-0.5,0.8c0.2,0.7,0,1.6,1,1.8C333.4,491.1,333.6,490.8,333.5,490.3z M261.6,222.1c-0.7,0.1-0.8,0.6-0.8,1.1
				c0,0.4-0.3,1.2,0.4,1.2c0.6,0,1.1-0.6,1.2-1.3C262.4,222.6,262.1,222.3,261.6,222.1z M354.6,293.3c-0.7-0.2-1.3,0.2-1.9,0
				c-0.3-0.1-0.7,0-0.8,0.4c-0.1,0.4,0.2,0.7,0.4,1c0.2,0.3,0.6,0.3,0.8,0.1C353.7,294.3,354.2,294,354.6,293.3z M339.3,362.9
				c0.7,1,1.4,1.1,2.2,1.1c0.5,0,0.9-0.3,0.8-0.8c0-0.5-0.5-0.5-0.9-0.5C340.8,362.8,340.2,362.8,339.3,362.9z M232.6,517
				c-0.3,0.2-1.1,0.7-1,0.8c0.2,0.6,0.8,1.1,1.4,1.2c0.6,0.1,0.8-0.5,0.8-1C233.8,517.5,233.5,517.1,232.6,517z M229.4,545.3
				c-0.2,0.5-0.4,1,0.2,0.9c1-0.1,0.9-1.3,1.3-1.9c0.2-0.4-0.1-0.7-0.4-0.6C229.6,543.9,228.6,544.2,229.4,545.3z M242.2,543.5
				c0.1-0.7,1.1-1.3,0.1-2c-0.5-0.4-1.4,0.2-2.6,1.7C241,542.1,241.6,542.7,242.2,543.5z M237.2,443.7c0.7,1,0.7,2.1,1.1,3.1
				c0.1,0.3,0.2,0.4,0.6,0.4c0.2,0,0.5-0.2,0.4-0.4C238.7,445.7,238.6,444.2,237.2,443.7z M246.8,290.9c0-0.3-0.1-0.5-0.6-0.6
				c-1-0.1-1.3,0.7-1.5,1.3c-0.1,0.4,0.3,0.7,0.7,0.7C246.3,292.3,246.5,291.5,246.8,290.9z M300,403.1c-0.7-0.1,0.4-1.3-0.6-1.1
				c-1,0.2-0.5,1.3-0.8,1.9c-0.2,0.4,0.1,0.4,0.3,0.4C299.7,404.4,299.9,403.8,300,403.1z M249.6,504c1.1,0,1.3-0.1,1.4-0.5
				c0-0.4,0.3-1.1-0.3-1.3c-0.9-0.4-0.2,0.8-0.7,0.8c-0.2,0-0.3,0-0.5,0.1c-0.4,0.1-0.8,0.1-0.8,0.6
				C248.8,504.3,249.3,504,249.6,504z M353.3,298.3c-0.9-1.1-1.7-1.1-2.4-0.1c-0.2,0.4-0.2,0.6,0.1,0.8c0.3,0.2,0.7,0.3,0.8,0
				C352,298.1,352.7,298.5,353.3,298.3z M337.6,323.1c-0.1,0.1-0.3,0.2-0.5,0.3c0.6,0.7-0.3,1.4,0,2.2c0.1,0.2,0.2,0.4,0.5,0.3
				c0.5-0.2,1-0.6,0.8-1C338,324.3,338.7,323.4,337.6,323.1z M306.5,312.4c-0.2-0.4,0-1.3-0.7-1.2c-0.7,0.1-0.7,1-0.8,1.6
				c-0.1,0.4,0.1,0.8,0.5,0.8C306.2,313.5,306.5,313.1,306.5,312.4z M332.9,449.5c0,0.4-0.1,1.1,0.6,1.1c0.7,0,0.6-0.6,0.7-1.1
				c0.1-0.5,0-1-0.6-1C332.7,448.4,333,449.1,332.9,449.5z M330.1,606.9c-0.6-0.1-1,0-1.1,0.6c-0.1,0.6,0.4,0.7,0.8,0.7
				c0.6-0.1,1.3-0.1,1.3-0.9C331.1,606.5,330.3,607.2,330.1,606.9z M322.4,618.4c-1.1-0.3-2-0.6-2.9-0.9c-0.3-0.1-0.6,0-0.7,0.2
				c-0.1,0.3,0.1,0.7,0.5,0.7C320.2,618.6,321.2,619,322.4,618.4z M317.1,618.1c-0.1-0.5-0.6-0.5-1-0.5c-0.5,0.1-1.3-0.2-1.4,0.6
				c0,0.5,0.6,0.6,1.1,0.6C316.4,618.9,316.9,618.7,317.1,618.1z M218.1,522.5c0.1-0.4,0.1-0.8-0.4-0.9c-0.6-0.1-0.7,0.4-0.6,0.8
				c0,0.3,0.1,0.6-0.1,0.9c-0.2,0.2-0.6,0.4-0.1,0.7c0.4,0.2,0.9,0.1,1-0.4C218,523.3,218,522.9,218.1,522.5z M177.4,371.1
				c0.6-0.8,1.3-0.6,2-0.7c0.2,0,0.5,0,0.5-0.3c0-0.1-0.1-0.3-0.2-0.4c-0.6-0.4-1.3-0.2-1.9-0.1
				C177.1,369.8,177.3,370.4,177.4,371.1z M246.1,481.6c1,0,0.7-0.8,0.8-1.3c0.2-0.5-0.4-0.5-0.7-0.5c-0.7,0-0.8,0.6-0.9,1.1
				C245.2,481.5,245.7,481.6,246.1,481.6z M333.7,466.3c0.9,0.3,1.9,0.4,2.8,0.9c0.2,0.1,0.5,0.1,0.7-0.2c0.2-0.4-0.1-0.5-0.5-0.6
				C335.7,466,334.8,466.1,333.7,466.3z M239.6,517.9c0.1-0.6-0.2-0.7-0.7-0.7c-0.5,0-1.1,0.1-1.1,0.8c0,0.6,0.5,0.9,1.1,0.9
				C239.6,518.8,239.5,518.3,239.6,517.9z M337,513.7c-0.1-0.7-0.4-1.1-1-1.1c-0.3,0-0.9-0.1-0.7,0.5c0.2,0.5,0.2,1.3,0.8,1.4
				C336.6,514.6,336.9,514.1,337,513.7z M274.4,336.4c-1.2-0.6-2.3-0.5-3.3-0.3c-0.1,0-0.3,0.2-0.3,0.3c0,0.2,0.2,0.5,0.4,0.4
				C272.2,336.5,273.3,337.1,274.4,336.4z M282.4,388.6c-0.3-0.4,0-1.3-0.8-1.3c-0.6,0-0.7,0.6-0.7,1c-0.1,0.8,0.7,0.6,1.1,0.9
				C282.4,389.4,282.5,389,282.4,388.6z M370.2,300.7c-0.4-0.5-0.9-0.8-1.6-0.7c-0.4,0.1-0.8,0.2-0.7,0.6c0.2,0.7,0.9,0.8,1.5,0.9
				C369.9,301.5,370.2,301.3,370.2,300.7z M242.8,492.1c-0.7,0.5-1,1.1-0.8,1.7c0.1,0.3,0.9,0.4,1.2,0.1
				C244,493.3,242.7,492.8,242.8,492.1z M228.1,517c0.6-0.2,1.3,0.9,1.7-0.3c0.1-0.4,0.3-1.1-0.1-1.1
				C228.7,515.4,228.6,516.3,228.1,517z M329.8,313c-1.1,0-1.6,0.6-1.9,1.3c-0.1,0.3,0.3,0.6,0.6,0.6
				C329.5,314.8,329.6,313.9,329.8,313z M419.1,356.5c1,0.2,2,0.3,3,0.5c0.3,0,0.7,0,0.8-0.4c0.1-0.4-0.3-0.5-0.6-0.5
				C421.1,355.8,420.2,356.2,419.1,356.5z M396.5,353.4c-0.2-0.5-0.5-0.8-1.1-0.7c-0.5,0.1-1,0.3-0.9,0.9c0,0.5,0.5,0.6,1,0.6
				C395.9,354.1,396.4,354.1,396.5,353.4z M393.3,357.5c0.3,0,0.4,0,0.6,0.1c1.5,0.7,1-1,1.5-1.4c0.2-0.1,0.2-0.4-0.1-0.5
				c-1-0.4-1,0.7-1.6,1C393.5,356.8,393.5,357.1,393.3,357.5z M250.7,390.8c-0.4-0.2-0.7-0.4-1-0.6c-0.4-0.4-0.9-0.4-1.3-0.3
				c-0.1,0-0.2,0.3-0.2,0.4c0.2,0.5,0.7,0.3,1.1,0.5C249.7,391,250.1,391.2,250.7,390.8z M298.9,253.1c-0.4,0.2-0.8,0.5-0.7,1
				c0.1,0.5,0,1.2,0.8,1.1c0.4,0,0.7-0.4,0.5-0.8C299.4,254,299.6,253.3,298.9,253.1z M345.1,527.4c0-0.4-0.1-0.7-0.5-0.7
				c-0.7,0.1-1,0.6-1,1.2c0,0.4,0,1.2,0.7,1C345,528.8,344.8,527.9,345.1,527.4z M259.6,479.1c1.3,0.3,2.4-0.1,3.6-0.6
				C261.9,477.9,260.8,478.7,259.6,479.1z M178.9,367.8c-0.1-0.5-0.4-0.9-0.9-0.8c-0.7,0.1-0.9,0.6-1,1.2c0,0.4,0.4,0.4,0.7,0.4
				C178.2,368.5,178.8,368.4,178.9,367.8z M286.2,395.2c0.7-0.5,0.6-1.2,0.4-1.9c-0.1-0.3-0.4-0.4-0.7-0.2c-0.7,0.5,0.2,1,0,1.6
				C285.8,394.8,285.9,395,286.2,395.2z M262.7,483.5c0.1,0.7,1.4,0.7,0.6,1.6c-0.2,0.2,0,0.4,0.2,0.4c0.2,0,0.4,0,0.6-0.1
				c0.2-0.2,0.6-0.4,0.4-0.8C264,484,263.7,483.3,262.7,483.5z M224.9,488.7c-0.4-0.6-1.1-0.5-1.7-0.8c-0.2-0.1-0.7,0-0.8,0.4
				c-0.1,0.2-0.1,0.4,0,0.6c0.2,0.3,0.5,0.2,0.7,0.1C223.8,488.6,224.4,489.3,224.9,488.7z M326.9,530.9c0.4-0.2,0.9-0.2,0.9-0.9
				c0-0.5-0.3-0.7-0.8-0.8c-0.6-0.1-0.8,0.4-0.9,0.9C326,530.6,326.4,530.9,326.9,530.9z M299.5,294.2c0-0.4-0.3-0.5-0.7-0.4
				c-0.5,0.1-1,0.2-0.9,0.8c0.1,0.5,0.7,0.6,1.1,0.8C299.2,295,299.3,294.6,299.5,294.2z M307.6,286.8c-0.6,0.2-1,0.6-1,1.2
				c0,0.4,0.3,0.5,0.7,0.5c0.6,0,1-0.3,1-1C308.2,287.1,308.1,286.8,307.6,286.8z M274.6,282.8c0.9,0.5,1.5,0.7,2-0.1
				c0.2-0.3,0.5-0.7,0-1C275.6,281.4,275.4,282.6,274.6,282.8z M277.4,247.4c0.6,0,0.7-0.4,0.8-0.7c0.1-0.6-0.4-0.8-0.9-0.9
				c-0.4,0-0.9-0.1-0.9,0.4C276.4,246.7,277,247,277.4,247.4z M227,249.8c-0.1-0.4-0.2-0.9-0.8-0.8c-0.5,0.1-0.8,0.6-0.9,1
				c-0.1,0.6,0.5,0.5,0.9,0.5C226.7,250.5,227.1,250.4,227,249.8z M218.9,356c0.1-0.5-0.2-1-0.3-1.2c-0.9-1.4-1.1-0.1-1.1,0.4
				C217.4,356.2,218.3,355.9,218.9,356z M227.1,534c-0.8-0.3-1.5-0.8-2.1,0.1c-0.3,0.4,0.3,0.5,0.5,0.6
				C226.4,535.5,226.5,534.5,227.1,534z M231.1,435.6c1,0.2,1.3,1.2,2.3,1.2C233.3,435.4,232.6,435.1,231.1,435.6z M352.4,304.8
				c0.4-0.1,1,0.1,1-0.5c0-0.6-0.6-0.4-1-0.4c-0.4,0-0.9,0.1-0.9,0.5C351.4,305,352,304.7,352.4,304.8z M339.3,557.7
				c0.4,0.4,0.7,0.3,0.9,0.2c0.6-0.3,0.9-0.8,1.3-1.3c0,0-0.1-0.2-0.2-0.2c-0.8-0.3-0.9,0.6-1.4,0.8
				C339.7,557.2,339.5,557.5,339.3,557.7z M249.7,439c-0.3-0.6-1.1-0.7-1.1-1.3c0-0.3-0.3-0.4-0.6-0.3c-0.4,0.1-0.3,0.4-0.3,0.6
				C247.7,439.7,248.9,438.8,249.7,439z"/>
			<path d="M300.5,225.5c0.5-1.6,1.5-2,2.9-1.8c1.3,0.2,2.4-0.5,3.4-1.1c0.7-0.5,0.5-1.2,0.4-1.7c-0.1-0.7-0.7-0.6-1.3-0.5
				c-0.5,0.2-1,0-1.4-0.2c-0.9-0.5-1.7-0.2-2.4,0.3c-0.4,0.3-0.8,0.8-1.4,0.3c-0.6-0.6,0.1-0.8,0.4-1.1c0.2-0.3,0.4-0.6,0.1-0.8
				c-0.9-1,0-1.5,0.6-1.8c1.7-0.7,2.9-1.5,2.4-3.6c-0.1-0.6,0.2-0.7,0.8-0.5c1,0.5,1.3,1.2,0.7,2.1c-0.3,0.5-0.3,0.8-0.1,1.2
				c0.3,0.5,0.7,0.3,1.1,0.2c0.5-0.1,1.1-0.2,1.6-0.1c1.9,0.6,3.4,0.3,4.4-1.7c0.6,1.4-0.2,3.1-1.6,3.4c-2.3,0.5-3.2,1.8-3.3,4.1
				c0,2.5-0.3,2.5-2.7,2.6C303.6,225,302.2,226,300.5,225.5z"/>
			<path d="M267.5,431.3c-0.8-0.5-1.5-2.8-1-3.5c0.2-0.3,0.6-0.4,0.7,0.1C267.4,429,268.2,430.1,267.5,431.3
				C267.4,431.3,267.5,431.3,267.5,431.3z"/>
			<path d="M284.1,433.8c0.1,0.4,0,0.5-0.2,0.6c-0.3,0.1-0.6,0-0.7-0.2c-0.2-0.9-0.3-1.8-0.3-2.6c0-0.1,0.3-0.3,0.5-0.4
				c0.2-0.1,0.5,0.1,0.4,0.3C283.4,432.4,284.1,433.1,284.1,433.8z"/>
			<path d="M279.5,407.8c-0.6-0.1-0.6-0.6-0.6-1.1c0-0.3,0.1-0.8,0.4-0.7c0.6,0.1,0.9,0.6,0.7,1.2
				C280,407.5,280.1,407.8,279.5,407.8z"/>
			<path d="M283.2,408.1c0.6-0.1,0.6,0.3,0.6,0.7c0,0.4,0.1,1.1-0.5,1.1c-0.7,0.1-0.7-0.6-0.8-1
				C282.3,408.4,282.9,408.3,283.2,408.1z"/>
			<path d="M256.9,249.7c-1.8-0.9-2.1-2.9-3.9-3.5C254.7,246.8,256.3,247.4,256.9,249.7z"/>
			<path d="M219.2,376.3c-0.4,1.7-0.9,3.1-0.9,4.6c0,0.3-0.4,0.5-0.8,0.4c-0.4-0.1-0.2-0.4-0.2-0.7c0.2-1.4,1.1-2.6,1-4.1
				c0-0.3,0.3-0.4,0.6-0.4C219.1,376.2,219.2,376.4,219.2,376.3z"/>
		</g>
		<g>
			<rect x="398.7" y="74.7" fill="none" width="100" height="497"/>
			<path d="M483.4,523.6c9.3,2,16,9,16,21.4c0,15.7-11.1,23.2-25.3,23.2c-13.6,0-25.8-7.7-25.8-23.7c0-13.2,7.8-19.6,16.1-20.8v10.7
				c-3.8,1-7.6,3.7-7.6,10.4c0,8.9,8,12.3,17,12.3c8.4,0,17.2-3,17.2-12.6c0-7-4.7-9.2-7.6-10.2V523.6z"/>
			<path d="M480,481.5c11.3,0,19.6,6.7,19.6,18.6c0,11.6-8.2,18.3-19.4,18.3c-11.5,0-19.6-7-19.6-18.8
				C460.5,488.6,468.3,481.5,480,481.5z M480,507.9c7.2,0,11.4-3.1,11.4-8.1c0-5.1-4.3-7.9-11.4-7.9c-7.8,0-11.5,2.9-11.5,8
				C468.6,504.7,472.2,507.9,480,507.9z"/>
			<path d="M446.1,464.1h19.7c-2.4-1.6-5.3-4.7-5.3-10.7c0-7,4.1-12.5,14.2-12.5h23.9v10.3h-22.4c-4.8,0-7.4,1.7-7.4,6
				c0,5.7,4.3,6.9,10,6.9h19.8v10.3h-52.6V464.1z"/>
			<path d="M482.2,423.4c4.7,0,9.2-2.3,9.2-7.5c0-4.3-1.7-5.5-4-6.5v-10.3c4.6,1.3,12.1,5.4,12.1,17.1c0,12.3-9.2,17.6-19,17.6
				c-11.7,0-20-6-20-18c0-12.8,9.3-17.2,18.6-17.2c1.3,0,2.1,0,3.1,0.1V423.4z M475.9,409c-4.3,0.1-8,1.8-8,6.8c0,4.9,3.4,6.9,8,7.3
				V409z"/>
			<path d="M470.8,391.4c-3.2,0-6.6,0-9.4,0.1v-10c1-0.2,3.6-0.3,4.7-0.4c-2.3-1.3-5.6-4.3-5.6-10.8c0-7.5,5.1-12.4,14.4-12.4h23.7
				v10.3h-22.6c-4.2,0-7.2,1.4-7.2,5.9c0,4.4,2.4,6.9,9,6.9h20.8v10.3H470.8z"/>
			<path d="M480,314.1c11.3,0,19.6,6.7,19.6,18.6c0,11.6-8.2,18.3-19.4,18.3c-11.5,0-19.6-7-19.6-18.8
				C460.5,321.2,468.3,314.1,480,314.1z M480,340.5c7.2,0,11.4-3.1,11.4-8.1c0-5.1-4.3-7.9-11.4-7.9c-7.8,0-11.5,2.9-11.5,8
				C468.6,337.3,472.2,340.5,480,340.5z"/>
			<path d="M461.4,300.5c12.6-3.6,23.7-6.5,28.1-7.2v-0.1c-6.2-1-17.4-4.7-28.1-7.9V275l37.3,13.2V299l-37.3,12.6V300.5z"/>
		</g>
		<g>
			<rect x="499.9" y="99.7" fill="none" width="200" height="600"/>
			<path d="M658.9,558.6c-18.2,0-29.3-12.7-34-23.2c-6.8,10.9-15.3,17.6-29.7,17.6c-24.1,0-40.1-17.7-40.1-49.6
				c0-29.2,15.2-48.5,39.7-48.5c16.4,0,24.4,8.4,28.5,18.1c3.8-10.2,15.8-23.2,34.6-23.2c29.3,0,44.5,23.4,44.5,55.8
				C702.4,534.6,687.1,558.6,658.9,558.6z M596.3,523.6c9.6,0,16.1-6.9,16.1-19.9c0-12.6-4.9-19.5-16-19.5
				c-10.8,0-17.4,7.1-17.4,19.8C578.9,517,585,523.6,596.3,523.6z M657.5,480.6c-14.1,0-20.6,9.7-20.6,23.6
				c0,15.5,8.4,23.4,20.4,23.4c12.6,0,21-9.5,21-23.9C678.4,490.3,672,480.6,657.5,480.6z"/>
			<path d="M630.8,369.4h26.9v60.1h-26.9V369.4z"/>
			<path d="M627.9,241.3c39.1,0,74.5,12.4,74.5,54.6c0,41.7-34.3,54.6-73.7,54.6c-39,0-73.7-14.3-73.7-55.2
				C555.1,255.7,587.5,241.3,627.9,241.3z M628.4,318.7c26.1,0,49.4-3,49.4-23.1c0-19.6-21.7-22.2-49.7-22.2
				c-27.6,0-48.3,3.3-48.3,21.9C579.7,313.4,597.6,318.7,628.4,318.7z"/>
		</g>
		<g>
			<rect x="320" y="3" fill="none" width="100" height="600"/>
			<path d="M404.6,555c9.3,2,16,9,16,21.4c0,15.7-11.1,23.2-25.3,23.2c-13.6,0-25.8-7.7-25.8-23.7c0-13.2,7.8-19.6,16.1-20.8v10.7
				c-3.8,1-7.6,3.7-7.6,10.4c0,8.9,8,12.3,17,12.3c8.4,0,17.2-3,17.2-12.6c0-7-4.7-9.2-7.6-10.2V555z"/>
			<path d="M401.2,512.8c11.3,0,19.6,6.7,19.6,18.6c0,11.6-8.2,18.3-19.4,18.3c-11.5,0-19.6-7-19.6-18.8
				C381.8,519.9,389.5,512.8,401.2,512.8z M401.3,539.2c7.2,0,11.4-3.1,11.4-8.1c0-5.1-4.3-7.9-11.4-7.9c-7.8,0-11.5,2.9-11.5,8
				C389.9,536.1,393.4,539.2,401.3,539.2z"/>
			<path d="M392.3,505.7c-3.2,0-6.4,0-9.6,0.1v-9.9c0.9-0.1,3-0.3,4.4-0.4c-2.8-1.9-5.3-4.9-5.3-10.4c0-5.4,2.8-8.3,5.7-9.6
				c-3-2.2-5.7-5.4-5.7-11.5c0-6.5,4-11.8,13.7-11.8h24.5v10.1h-23.2c-3.4,0-6.7,1.2-6.7,5.4c0,4.4,2.8,6.1,8.5,6.1h21.3V484h-22.8
				c-3.9,0-7,1-7,5.4c0,4.2,2.6,6.2,9,6.2h20.8v10.2H392.3z"/>
		</g>
	</g>
</g>
<g id="text" display="none">
</g>
<g id="guides" display="none">
</g>
</svg>
