<svg xmlns="http://www.w3.org/2000/svg" xml:space="preserve" viewBox="0 0 800 800"><path fill="none" d="M0 0h800v800H0z"/><path d="M622.8 498.6c.2-2.2 4.4-2 6.6-2.7 5-1.4 7.7-4.8 7.7-9.3 0-4.5-4.6-5-8-5.5-7.7-1.1-13.9-5.2-20-9.6-1.2-.9-3-1.6-2.7-3.5 1.5-9.7-.6-19.2-1.1-28.7-.1-3-1.9-7.1-.5-8.8 3.7-4.4 1.5-5.6-3.2-6.9 7.3 1.2 7.5-3.4 8.9-7.8 1.1-3.5-4.5-2.3-2.7-4.6 5.3-7.1.3-9.8-5.9-12.4 3-1.3 6.7-.8 6.1-4.7-.8-5.2-.8-10.8-3.8-15.1-3.3-4.8-3.3-10.5-5.8-15.6-2.4-5-7.8-11.4-2.7-18.4.3-.4-.9-1.9-1.3-2.9-.6-1.5-.7-3.3.6-4.3 6.7-5.5 5.3-15.8 14.4-21.1 5.1-2.9 7.2-4 11.9-1.3 5.9 3.4 12.4 1.9 17.9-.7 1.1-.5 6.4-5.8 3.8-12.2-2.1-5.2-.3-11.6-5.3-16.8-4.6-4.8 1.9-19.9 9.3-23.5 6.1-2.9 10.5-7.5 13.6-13.5.8-1.6 1.2-3.5-.3-4.9-1.2-1.2-2.8-1.6-4.3-.9-3.6 1.8-7.5 3.2-10.5 6.4 1.7 0 2.8.1 4 0 1.7-.2 3.6.3 3.8 1.8.3 2.4-2.2 2.2-3.7 2.7-1.7.5-3.6 1-5-.6-1.3-1.5-1.9-1.1-3 .2-6.5 7.8-16.9 9.9-23.8 17.8-8.8 10.1-20.8 10.9-33.4 5.7-4.5-1.9-6.3-3.6-6-8.9.3-4.6 1-9.3.2-14.3s-6.1-6.2-5.7-10.8c.7-6.9-5.6-9.7-8.5-14.5 5.6-2.3 9.1-16.3 5.3-21.3 8.7-1.7 9.1-2.7 3.5-9.8-.7-.8-1.3-1.9-1.4-2.9-.8-7.2-9-9.5-10.7-16.2-.1-.6-1.9-1-3-1.1-4-.5-7.9-1.1-11.9-1.1-3.2 0-7.6-.5-9.2 2.5-3.9 7.3-11.9 13.4-8.5 23.4.3.9.6 1.9 0 3.1-2.1 4.3-1.3 7.6 3.8 9 1.3.3 2.9.5 3 2.1.1 1.8-1.4 3-2.9 3.2-7.4 1.3-13.1 4.9-18.2 10.5-2.8 3.1-5.5 5.9-6.2 9.8-1.2 6.2-3.9 12.3-1.5 19 1.8 5.1-.6 11.2 1 15.9 2.6 8 2.2 18.1 12.7 22.3-6.2-.1-8.4 2.3-10.4 7.6-1.8 4.8-3.5 8.6-.9 13.5 1.1 2 .7 4.7.4 7.2-.9 7 .9 13.1 7.6 16.6 3.8 1.9 4.1 5.5 3.3 8.5-.9 3.4-1.7 6.1.8 9.1.9 1 0 2.6-.7 3.7-4.4 6.7-2.7 14.5-4.2 21.8-.3 1.6.2 2.7 1.9 2.8 1.5.1 2.9-.6 2.4-2.2-1.8-5.5 1.8-10.5 1.4-16-.3-3.7 3.7-6.9 7.5-6.9 3 0 5.9 3.7 4.6 6.5-2.4 5 .7 9.5.1 14.4-.6 5.5-.2 10.2-4.7 14.4-1.8 1.7-3.8 4.8-3.4 6.9.9 5.4-3.2 7.8-5.5 11.2-4.7 6.9-11.1 13.2-14.2 20.3-3.4 7.7-8 13.9-13.4 19.3-12.7 12.5-7.3 18.3 3.1 25.2 8.5 5.7 16.4 12.8 26.5 16.4 4.8 1.7 9.3 1.3 11.2-1.8 2.1-3.4 1.3-8.4-4.2-10.4-1.6-.6-4.6-1.7-4.6-1.8-.3-4.7-2.5-8-6.8-9.9-.1 0-.1-.9.2-1.2 3.3-4.5 3.1-10.1 4.9-15.1 1.4-4 3.7-8.1 6.7-11 7.4-7.2 15.1-14.2 23.4-20.3 5.6-4.2 7.1-11.1 12.2-15.4 4.5-3.7 8.5-2.8 10 2.7 2.5 9.1 2 18.8 5.5 27.7 2.8 7.2 2.1 14.8 3.3 22.1 1.3 8 .3 15.3-1.5 22.6-2.1 8.6-.3 12 8.3 14 1.3.3 3.2.1 3.5 1.7 9.7.3 19-1 28.3-2.4zm-64-247.3c-3.5 2.6-1 7.7 0 7.9 7 1.2 4 7.3 3.5 9.5-1.4 6.7-4.4 13.1-7.4 19.3-1.3 2.8-4 2.9-6.8 1-3.3-2.2-5-4.9-3.2-8.8.5-1.1 1.8-1.9 2.7-2.9 5.1-4.9 4-9.1-2.9-11.2-1-.3-2-.8-3.1-1.2-.2-.1-.2-.3-.6-1 5.2.7 8.2.3 6.4-6.5-1.5-5.5 3.5-12.5 7.7-13 2.3-.3 4.4.2 5.6 2.5 1.1 2.4-.4 3.2-1.9 4.4zm-8.1-12.1c.3-2.7 2.8-3.1 5.1-3.2 2 0 4.5.1 4.6 2.6 0 3.4-3.3 2.6-5 3.4-2.4-.3-5.1.2-4.7-2.8zm-9.1-19.3c.2-1.3 1.5-1.4 2.5-1.6 5.7-1.5 11.2-1.3 16.6 2.4-5.7 5.5-11.4 3.4-17.1 1.5-1-.5-2.2-1-2-2.3zm-6.5 13.7c.7-2.8 3.2-3.3 5.5-3.8 1.4-.3 3.2.1 3 1.6-.6 3.8-5 1.8-6.4 4-1.8.2-2.4-.5-2.1-1.8zm-3 73.5c0-4.1 3.5-2 5.3-2.2 3.5-.4 4.7 1.6 3.3 5.1.5 3.3-.2 6.8-4.3 6-4.2-.9-4.3-5.4-4.3-8.9zm.8 36.6c-1.3-.5-3.7-.8-2.9-2.5.5-1.2.8-3.6 3.2-3.7 5.6-.2 11.3-.5 17.6 3-6.7 2.3-11.9 5.3-17.9 3.2zm20.2-41.4c-2.4.2-4-.9-4.1-3.2 0-2.9 2.4-3.4 4.6-3.6 1.9-.2 3.6.5 3.7 2.7.1 2.8-1.7 3.9-4.2 4.1zm23.7 1.9c-3.3 1.7-6.8 1.6-9.4 1.4-2.6.2-4.1.4-5.7.4-1.4 0-2.8-.2-2.9-2-.1-1.5 1.4-1.3 2.1-2 3.7-3.5 9.2-2.5 13.2-5.3 1-.7 3.6-.1 3 .9-1.4 2.4 3.2 4.8-.3 6.6zm26.8-6c1.5.4 3.1 1 3.4 2.7.3 1.7-1.8 1.5-2.6 2.4-3 2.9-6.7 2.2-11.1 2.5 3.2-4 4.1-9.4 10.3-7.6zM205.4 236.3c-5.6-2-4-4.4-1.5-6.9 6.8-6.6 13.4-13.5 23.9-13.7 1 0 1.9-.9 3.4-1.7-2.6-1.5-4.8-2.8-7-3.9-2.4-1.3-3.4-4.1-1.8-5.5 3.4-2.9 2.6-5.6.4-8.1-3.3-3.7.6-6.6 1.3-9.3 1.6-5.7 6.1-12.4 10.9-13.5 7.7-1.7 16.4-3.2 24 4.7 5.6 5.9 6.5 14 12.7 19.4 2.5 2.1-1.3 6.7-3.2 9.5-3.5 5.1-4.4 11.1-6.4 16.8-2.6 7.3 1.9 11.6 6 16.7 3.4 4.3 3.9 10.1 4.3 15.5.3 3.1-3.3 1-4.6 2.7 5.3.9 4.8 5.1 3.8 8.1-1.4 3.8 0 5.5 3 6.7 5.1 2 10.3 3.8 15.5 5.4 2.6.8 5.3.5 7.7-.9 6.8-4 13.8-7.3 18.7-14.3 3.7-5.3 11.7-5.6 16.9-9.9 3.1-2.5 6.7-4.3 8.9-7.7 1.9-2.9 5.2-3.3 8.1-3.9 2.9-.6 4.3 1.2 3.4 3.9-1.5 4.2-2.4 8.5-7.5 10.9-7.5 3.4-12.5 10.2-17.5 16.5-3 3.8-1.9 7.9 1.8 11.3 4.9 4.5 5.6 24 1.1 28.4-6.1 6-13.4 3.6-19.9 1.6-8-2.4-15.1.2-18.1 8.6-2.2 6.1-5.8 10.9-12 14 2.7 1.9 4.7 3.5 3.7 7.8-1.3 5.6 1.8 11.1 3.1 16.6 3.1 12.4 7.1 24.3 7.6 37.6.5 12.7-1 24.4-4.2 36.4-1 3.8.6 8.2.8 12.4.3 6.1-.2 12.3.9 18.3 1 5.6 7 7.3 11.1 10.3 2.6 1.9 6.1 2.6 9.3 3.4 4.9 1.3 7 5.2 7.3 9.3.3 3.9-4.3 4.5-7.3 5.6-4.2 1.6-8.7 1.2-13.2 1.2-5.9.1-11.6.1-17.3 3.1-4.5 2.4-9.9.9-13.8-3.3-3.7-3.9-4.2-8.4-1.9-12.9 2.2-4.4 3.3-8.5 2.1-13.5-1-4.2 3.2-2.3 5.2-3.5-3.1-.9-4.8-.9-4.9-6-.1-7.5 1.5-15.9-3-23.2-2.4-3.9 4-2.1 3.7-5.5-7.9 2.8-5.7-2.5-6.1-7-.5-5.8-.8-11.7-3.2-17.1-1.6-3.6-5.3-2.2-6.7-1-3 2.6-7.1 4.8-7.7 9.5-.5 3.4-2.6 5.5-5.4 7.1-9.7 5.6-19.1 12.2-26.3 20.6-5.1 6-10.2 13.7-8.9 22.5.9 6 5 11.4 8.7 16.3 1.1 1.4 2.7 2.8 3.5 4.4 2.7 5.9.1 9.7-6.3 9.6-8.5-.1-14.4-5.2-19.5-10.9-3.9-4.4-7.6-8.6-12.8-11.7-10.6-6.4-9.9-12-2.4-21.5 5.3-6.8 11.9-12.9 15.5-21.6 2.2-5.3 7-10.5 11.3-15 4.4-4.6 7.7-9 9.5-15.5 1.5-5.7 7.5-10 8.5-16.7.3-2.1 4.6-3.9-.1-6.2-.6-.3.2-4.1.9-6.2 1.2-3.9-.1-7-2.3-9.9-2.1-2.8-8.1-1.8-8.6 1.6-.8 6.1-5.1 11.6-3.3 18.2.7 2.6-1.5 2.2-2.9 2.3-1.4.1-2.7-.4-2-2.3 2.1-5.9 1.5-12.3 4-18.4 2.3-5.5 1.6-12.2 2.6-18.4.6-3.8-1.5-7.3-6-8.3-3.4-.7-4.3-3-4.5-6.3-.6-7.8.5-15.6-1.3-23.3-.9-4 1.1-8.6 3.2-10.3 6.5-5 3.2-10.5.8-14.6-1.9-3.2-3.1-6.5-3.1-9.7-.1-10.1-1.9-20.1-.7-30.3.2-4.2 1.2-6.3 6.1-5.4zm43.5 6.7c-2.1.1-3.2 1.2-4.5 1.9-5.1 2.6-2 8.3-4.8 11.9-1.9 2.4-1.3 5.2 1.7 7.4 3.4 2.5 3.3 5.8-.2 8.2-2.2 1.5-3 3.8-4.1 5.8-1.4 2.6.2 5.1 1.8 7.3 1 1.5 2.6 1.4 4.2 1.2 3-.3 1.8-3.7 3.7-5 9.7-6.3 8.5-15.1 5.2-24.1-1.4-3.6-2.7-6.9-1-10.7 1-2.4.2-3.9-2-3.9zm25.9 55c-2.1-1.6-4.3-.7-5.5-2.2-2.9-3.6-5.6-2.3-8.2.4-1.7 1.8-3.8 2.9-6.2 3.5-2.4.7-2.7 2.7-.4 3.5 3.6 1.3 7.6 2.9 11.2-.2 2.5-2.1 5.4-3.5 9.1-5zm-48.6 44.3c2.6-1.4 7.9 1.2 8.3-3.7.3-4.3-4-4.3-7.4-4.5-3.4-.2-6.6.8-6.9 4.4-.3 3.7 3.2 3.4 6 3.8zm20-119.5c3 .2 6.7.3 7.2-2.4.6-3-3.1-3.7-5.5-4.4-3.7-1.1-7.4-.5-10.9 1.2-.2.1-.2 1.3 0 1.7 2.3 3.4 6 3.5 9.2 3.9zM227 302.6c-.9 2.2-5.6-1.2-5.3 3.2.2 3.2 0 7.7 5.3 7.5 4.3-.2 3.8-5.2 6.6-7.1-1.7-1.9-3.3-3.6-6.6-3.6zm18.9-7.7c.7-2.8-.3-4.7-3.6-4.3-1.8.2-3.7.3-3.3 3.5.4 3.1 1.1 5.2 4.5 5.2 2.7-.1 3.1-2 2.4-4.4zm45.7 3.2c-2.1.3-5 .4-5 3.1 0 2.5 2.3 3.6 4.8 3.2 2-.4 4.7-.6 4.6-3.6-.1-2.9-2.5-2.6-4.4-2.7zm-43.1-58.6c2 0 3.5-1.1 3.8-3.3.3-2.2-1.4-2.5-2.9-2.3-1.8.3-4.3.3-4.6 2.7-.4 2.3 1.7 2.6 3.7 2.9zm-8.9-11.3c-3.9-3.5-7.1-1.5-10.2-.4-.9.3-1.3 1.5-.5 2.1 2.6 1.9 5.1-.1 7.6-.4.7 0 1.2-.4 3.1-1.3z"/><path fill="none" d="M100.5 499.9h600v200h-600z"/><path d="M218.9 550c-1.7-7-5.8-13.7-18.2-13.7-19 0-24 17.9-24.8 37 6-7.3 16.1-13.2 32.2-13.2 26 0 44.5 19.2 44.5 47.1 0 30.3-19.4 52.9-52.2 52.9-41.2 0-55-31.8-55-71.9 0-37 13.1-75.4 56.7-75.4 30.9 0 45.3 19.3 46.7 37.2h-29.9zm2.8 59.8c0-13.5-5-25.6-22.1-25.6-13.8 0-21.9 8.1-21.9 24.5 0 11.5 5.5 26.8 22 26.8 15.1 0 22-11.3 22-25.7zM332.7 588.5v26.9h-60.1v-26.9h60.1zM349 657.5v-2c0-24.7 11.1-44.9 41.9-67.3 20.1-14.7 26.1-19.7 26.1-32.1 0-12.3-6-19.2-17.9-19.2-13.9 0-18.9 8.5-20.9 20.9h-29.8c2-24.5 18.1-45 50.7-45 36.5 0 49 21.7 49 43 0 20.7-8.9 30.7-35.1 49.1-17.5 12.3-24.6 20.4-27 26.8h67.3l-3.8 25.8H349zM527.1 588.5v26.9H467v-26.9h60.1zM547.4 616.7c0-18.2 12.7-29.3 23.2-34-10.9-6.8-17.6-15.3-17.6-29.7 0-24.1 17.7-40.1 49.6-40.1 29.2 0 48.5 15.2 48.5 39.7 0 16.4-8.4 24.4-18.1 28.5 10.2 3.8 23.2 15.8 23.2 34.6 0 29.3-23.4 44.5-55.8 44.5-29-.1-53-15.4-53-43.5zm78-1.4c0-14.1-9.7-20.6-23.6-20.6-15.5 0-23.4 8.4-23.4 20.4 0 12.6 9.5 21 23.9 21 13.4 0 23.1-6.3 23.1-20.8zM582.5 554c0 9.6 6.9 16.1 19.9 16.1 12.6 0 19.5-4.9 19.5-16 0-10.8-7.1-17.4-19.8-17.4-13 0-19.6 6.1-19.6 17.3z"/></svg>