<svg xmlns="http://www.w3.org/2000/svg" xml:space="preserve" viewBox="0 0 800 800"><path fill="none" d="M.6-2h800v800H.6z"/><path d="M296.9 511.9c-1.5.7-1.7-.1-1.8-1.1-.2-1.2-.4-2.4-.7-3.6-.4-1.2-.7-2.3 1.5-2.3-1.3-.4-1.4-1.2-1.3-2 .1-1.3 0-2.7.5-4 .4-1.1-.7-2.3-.4-3.5.3-.9-1.1-2.2.6-2.8.3-.1 0-.2-.1-.3-1.1-.7-.9-2.1-.7-2.9.6-2.9-1.1-4.7-2.6-6.7-.7-.9-1.3-1.7-1.5-2.9 0-.1-.1-.3-.2-.4-1-.6-1.1-1.7-1.6-2.6-1.4-2.4-2.9-4.6-4.2-7.1-.2-.5-.7-1-1.2-.8-.6.1-1 .6-1.1 1.3-.2.6-.1 1.4-1 1.4-.1 0-.2.2-.2.3.6 2.9-.9 5.5-1.6 8.1 0 .1-.1.1-.1.1-.2 3.3-2.4 3.6-5 3.4-.1 0-.3.1-.5.2 1 .5 1.8.1 2.6.1 1.7 0 2.2.6 1.5 2.2-1 2.4-1.1 4.9-1.6 7.4-.6 2.9-.6 5.9-2 8.6-1.1 2.2-2.6 4.1-3.9 6.2-.4.6-1.2-.3-1.6.6 1.4.1 1.2.7.9 1.8-.4 1.3.6 2.9-.1 4.2-1.2 2.1-.7 5-3.1 6.5.5 1.7-1.4 2.1-1.8 3.2-.2.6-1.8.8-.7 1.9l-.4.4c-2.2 1.1-2.3 3.7-3.6 5.4v.3c-.1 1-1.8 1.1-1.6 1.2 1.2.7.3 1.2-.1 1.7-.4.6.1 1.8-.8 2.1-.9.3-.2 1.6-1.2 1.6.2 1.8-1.1 3-1.7 4.5-.3.8-.9 1.3-1.7 1.7-1.7.8-3.2 1.8-4.6 3.1-.4.4-.8.8-1.3.9-3.3.6-3.6 3.6-4.7 5.8-.5.9-.1 2.3-.4 3.4-.3 1.1-.7 2.1-1.4 3.1-.3.4-.1 1.4-.4 2.3-.5 1.1-1.1 2.2-1.6 3.4-1.7 3.6-2.9 7.3-4.5 10.9-1 2.1-2 4.2-2.5 6.4-.4 1.6-1.6 2.9-1.7 4.6-.1 1.4-1.3 1.3-2.6 1.2 1.8.4 1.4 1.4 1 2.5-1.1 3.1-2.6 6-5.1 8.2-.5.4-.2.7-.2 1.2.2 2.3 2.4 3.4 2.6 5.7.1 1.3.6 2.7 1.4 3.7 1.3 1.6.6 3.6 1.8 5.2.8.9-.9.3-1 1 2.8-.2 2.3 2.9 3.8 4.2.2.1.3.7.6 1 .7.8-.3.6-.6 1 2-.5 2.4 1.4 3.5 2.2 2.1 1.4 4 3 5.9 4.6 1.8 1.5 3.8 3 5 5.4 1.3 2.6 1.5 5.2 1.6 7.9 0 .3.2.6-.1.7-1.5.6-2.7 1.9-4.2 2.3-2.4.6-4.9.6-7.3.7-1 0-2 0-2.7-1-.4-.5-.9-.4-1.2.1-.5.8-1.2.9-1.9.9-2.8.1-5.4-.2-7.9-1.7-.4-.2-.9-.3-1.4-.2-2.4.4-4-1-5.8-2.1-1-.7-2.3-.7-3.3-1.5-.9-.7-2.1-1-2.3-2.4-.1-.4-.5-1-.9-1.1-1.8-.3-2.9-1.6-4.1-2.7-1.4-1.3-2.9-2.5-3.9-4.1-1.4-2.3-2.9-4.1-6.2-3.7-2 .3-4.3-.2-5.7-2.3-.7-1.2-2.2-1.6-3.2-2.7-1.7-2-3-4.4-5-6.2-.8-.7-.9-2.3-.6-3.5.7-3.1 1.3-6.4 2.8-9.2 1.3-2.4 1.8-5.2 3.8-7.2.2-.2-.1-.9.2-1.6.5-1.2 1.2-2.4 1.9-3.2 1.6-1.6 3-3.6 5.5-4.4-1.7-.6-1.1-2.2-1.4-3.4-.3-1.2-.3-2.8.8-3.9.1-.1.4-.1.3-.4-.4-3 1.4-5.6 1.4-8.5 0-.9.8-1.6 1.2-2.4 1.1-2 .7-4.4 1.6-6.4 1.3-2.9 1.9-6.1 3-9.2 1.5-4.2 3.7-8 4.9-12.3.4-1.3 1.1-2.6 1.9-3.8 1-1.5 1.6-3.1 2.4-4.7.2-.3.4-.8.3-1-1.6-2.6.4-5 .3-7.5 0-.1.1-.2.1-.3.5-.7-.4-1.4 0-2.2.4-.8 1.5.3 1.9-.7-2.1-.5-2.1-.5-.8-2.3.1-.1.1-.3.1-.4-.3-1.8.6-3.2 1.3-4.8.6-1.4.7-3 1.1-4.5.2-.6.1-1.1.7-1.5.6-.4.8-1.2.8-1.7-.1-1.9 1.2-3.4 1.4-5.2.1-.7-.5-.8-.4-1.6.2-1.7.7-3.6.3-5.2-.6-2.3-.5-4.5-.6-6.8-.1-2.1.1-4.2 1.3-5.9.3-.5.3-.7.1-1.1-.1-.3-.5-.7-.3-.8 1.2-.8.4-2.1.8-3.1.5-1.1 1.4-2 1.9-3.1.6-1.5.9-3.2.4-4.8-.3-1-1-2 .2-2.9-.4-.5-.7-1 .1-1.4-.9-1.3.4-1 1.1-1.2-2-.2-1.3-1.9-1.4-2.6-.1-3.3-.3-6.7.2-10 .1-.7.5-1.5-.2-2.2-.2-.2 0-.5.1-.7.5-.8.2-1.9-.8-2.2-1.8-.6-3.2-1.9-4.9-2.6-1.6-.6-3.1-3.4-2.8-5 .1-.8-.6-2 .9-2.4-1.1-1.1.1-2.2.1-3.3 0-1.6.6-3 1-4.5.5-1.8.1-3.7.8-5.4.3-.8.3-1.9.3-2.8 0-1.2.9-2.1.7-3.3-.1-.4.2-.7.7-.7.3 0 .7-.2.4-.4-1.3-1.1 0-2.4-.3-3.6-.2-.6-.7-2 .8-2.4.4-.1.1-.4-.1-.6-.5-.6-.3-.9.1-1.5.6-.7-.2-1.7.4-2.6.4-.6.2-1.5.7-2.2.5-.7 0-1.2-.9-1.4-2.1-.3-4.2.2-6.3 0 0-.8.8-.4 1.3-.9-3.2.5-5.3-1.2-7.3-3.2-1.3-1.4-2.1-3.1-2.9-4.7-.9-1.7-1.6-3.4-1.9-5.3-.4-1.9-.5-3.8-.6-5.7 0-.8-.4-1.7.1-2.6.5-1.1-1-2.4-2.4-2-2.8.8-5.7.6-8.5 1.2-2.9.7-5.9.8-8.7 1.9-1.7.7-3.7-1.2-3.6-3.3 0-.6.1-1.2-.2-1.7-.4-1.1.9-1 .9-1.5.1-.6-1.5 0-1.2-1.1.2-.6-.2-1.3.2-1.9.1-.2.1-.7 0-.9-1-1.7-.4-3.5-.2-5.1.2-1.8.4-3.6.7-5.4.2-1.6.3-3.3.4-4.9 0-.4-.1-.9.5-.9s1.1-.5 1.7-.1c.3.2.3.4.1.6-.3.3-.6.6-.8 1-.3.5-.8 1-.5 1.6.3.6.9 0 1.3 0s.8-.1.9.5c0 .4-.4.5-.7.5-.4.1-.9.1-1.1.5-.2.3-.4.7-.3 1 .1.5.6.3 1 .2 2.1-.4 4.3-.3 6.2-1.6.8-.5 1.9.6 2.7-.3.6-.7 1.5-.7 2.3-.9 2-.4 4-.7 6-.8 1.3-.1 1.2-1.1 1.3-1.8 0-.9-.8-.5-1.4-.5-2.4-.3-4.8-.7-7.2-.1-.4.1-.9-.2-1-.7 0-.5.5-.5.8-.6 1.5-.2 2.2-1.8 3.7-2 .3 0 .5-.4.4-.7-.1-.3-.4-.3-.7-.3h-2.4c-.7 0-1.4.2-1.6-.9-.1-.6-.8-.6-1.2-.6-2.4.2-4.9.4-7.3.8-1.9.3-.9 2.1-1.1 3.2-.1.5 0 1.1-.5 1.3-.3.1-.8.3-1.1.2-.5-.2-.2-.6-.1-1 .7-3.4 2.2-6.4 5.4-7.8 2.2-1 4.9-1.7 7.3-.1.2.1.5.2.6 0 1.1-2.2 3-.6 4.5-1.1.4-.1.8.1 1.3.1.4 0 .9-.2.8-.6-.3-1.4 1-2.5 1-3.7 0-3.2 1.5-6.4-.1-9.6-.3-.6-.3-1.4.2-2 1.4-1.5 1.6-3.3 1.3-5.2-.1-.5-.1-1.1.2-1.4 1.5-2.1.9-4.7 1.9-6.9.4-.9 1.3-1.6 1.4-2.7.1-2.2.2-4.5.4-6.7.2-2.5.9-4.8 2.5-6.7.3-.3.5-.5.4-1-.2-2.4 1.1-4.3 2.4-6.1.7-.9.8-1.9.6-2.8-.4-1.9-1.1-3.6-2.2-5.2-.9-1.3-1.8-2.8-1.7-4.5.1-2.7.1-5.3.5-8 .3-1.7.5-2.9 2.8-2.3-.6-.9-1.7-.3-2.1-1.1-.4-.8.1-1.6.2-2.3.4-2.3.9-4.6 1.4-6.9.2-1.1 1.5-2 .9-3.3 0 0 .3-.3.5-.3 3-.9 3.6-3.5 4.3-6.1 1-3.7 2.3-7.3 5.8-9.5.5-.3 1-.8 1.6-.4.5.3.6.1.7-.4.1-.2.4-.5.4-.4 1.6 1.2 2-1 3.2-1.1 1.4-.1 2.7-.5 4.1-.7 1.7-.3 3.3-1.1 5.1-1 1.7.1 3.3-.2 4.9.6.9.5 2 .3 3.1-.2 2.5-1.1 3.9-3.5 6.2-4.7.7-2.9 3.3-2.5 5.3-3.1.9-.3 1.3-.6 1.6-1.6.1-.5-.2-1.6.9-1.5.1 0 .2-.1.2-.2.1-2.1.2-2 1.5-3.5.8-.8.8-2 .8-3.1 0-1.2-.1-2.3 1.7-2 .9.2.5-.6.5-.9-.1-1 .2-1.5 1.4-1.1.6.3 1.1.3 1.5-.5-.9 0-1.6-.6-2.5-.4-.4.1-.5-.1-.6-.5-.5-1.8-1.6-3.3-1.7-5.2 0-.7-.5-.7-1-.8-1.4-.3-2.8-.2-4.2-.1-1.1 0-1.8-.4-2.6-1.1-.4-.3-.9-.9-.6-1.2 1.3-1.1-.3-2.6.6-3.9.7.4 1 1.9 2 1.1.7-.6 1.7-.3 2.5-1.2-1.5-.2-2.8-.4-3.9-1.1-.3-.2-.6-.3-.5-.7 1.2-3.5.5-7.2 1-10.8.4-2.7-.1-5.4.3-8 .4-2.5.9-5 2.2-7.3.8-1.5 1.5-3 2.3-4.5.5-1 1.4-1.4 2.1-2.1 2.7-2.7 5.9-4.8 9.3-6.7 1.5-.8 3.3-1.3 4.8-2.4.9-.7 1.8.3 2.9.1-.5-.6-.7-1.2.4-1.3 4.1-.3 8.2-.6 12.3-.4 1.9.1 3.6 1 5.4 1.4 3.8.8 6.8 3.4 9.9 5.4 1.8 1.1 3.2 3.1 4.5 4.8 1.1 1.5 1.7 3.3 2.7 4.9.5.9 1 2.1 1.3 3.3.2.9.8 1.7 1.1 2.6l.1.1c0 2 1.5 3.6 1.8 5.5.3 1.8.7 3.5 1.3 5.1.7 1.7 1.2 3.6 2.6 4.9.7.6.1 1-.5 1.4 1.6.9 3 2 4.2 3.2.9 1 .8 1.6-.4 2.2-.4.2-.8.3-1.2.4-1.1.2-1.9.5-2.9 1.1-1.2.8-2.8.9-4.2 1.3-.7.2-1.4.3-2 .4-1.7.4-2.2 1.2-1.6 2.8.3.8.1 1.7.5 2.5.3.6-1.4 2-2.6 2-.9 0-2 .2-1.8-1.3.1-.5 0-1-.7-1.1-.6-.1-.9.3-1.1.7-.2.3-.3.7-.5 1l-.3.6c-1.1-.6-2.3.3-3.5-.2-.8-.3-1-1-.9-1.9.1-.4 0-.8-.4-1-.4-.2-.7 0-1 .3-.3.5-.9 1-1.3.5-1.1-1.4-1.1-.6-1.2.4-.2 1.9-1.7 2.2-3.3 2.6.2-.8.4-1.5.6-2.1.2-.3.8-.6.3-1-.4-.4-1.1-.1-1.4.4-1.1 1.7-2.7 3.1-3 5.3-.2 1.6-1 3.1-1.8 4.5-.6 1 .3 1.8.2 2.6-.1 1.1.2 1.6 1.3 1.8.5.1.8.4 1 1 .5 2.1 1.5 4 2.2 6 .1.3.1.6.5.7 1.1.3 2.5.3 2.1 2.2 0 .1.6.6.9.5 1.4-.2 1.7.7 2.2 1.8.6 1.4 2.2 1.5 3.3 1.2 1.3-.4 2.7-.8 4-1.5.7-.4 1.1-1 .9-1.7-.6-1.5-.4-3.4-2.1-4.4-.4-.2-.7-.6-1-1-.6-.6-.5-1.1.2-1.4 1-.4 2.2-.3 3.1.1.7.3.2 1.4-.1 2.2-.3.6-.4 1 0 1.7 1.6 2.8.5 5.7-2.4 7.1-1.4.7-2.9 1-4.4 1.4-.7.2-1.6-.3-2.4-.4-.7-.1-1.4-.1-2 .3-1.1.8-1 1.5.2 2 1 .4 1.8 1.2 2.9 1.2.2 0 .5.2.5.3.3 1.6 1.7 1.7 2.8 2.2 3.9 1.9 6.4 5 8.2 8.8.1.1.2.3.3.4 2.9 1.7 4.2 4.6 5.7 7.4 1 1.9 2.1 3.8 2.3 5.8.1 1.6 1.8 2.8 1.1 4.6 2.3 1.6 1.8 4.3 2.5 6.5.3.9 1 1.9.3 2.9-.1.1.1.6.1.6 1.7-.2 2.1 2.1 3.6 2 1 0 1.9.7 2.1 1.3.4 1.3 1.4 1.7 2.3 2.3 2 1.1 3.3 3.1 5.4 4.1 2.6 1.2 5.1 2.8 7.9 3.8.5.2 1.1.1 1.6.2.7 0 .8-.5 1-1 .3-.7-.2-.8-.6-1-1.9-1.1-2-2.2-.5-3.8.8-.8.9-2.1 2.3-2.3.2 0 .3-.4.2-.7-.8-2 .8-2.9 1.9-3.9.8-.8 1.7-1.4 2.4-2.4.8-1.1 2.3-1.8 3.7-1.6 1.5.1 2 1.3 2.3 2.7.2 1 .3 1.9.4 2.9.2 2.2 1.8 2.9 3.7 1.7.4-.3.9-.5 1.4-.8 2.3-1.7 4.3-1.1 5.5 1.6.1.1.2.3.2.4.1.6-1 1.2.4 1.7.7.2 1.1 1.2 1.9 1.6.5.2.8.5 1 1.1.3 1.3.8 2.6 2.4 2.8.1 0 .2.1.2.2.4.7 1.7.9 1.5 1.7-.2.8-1.3.4-2 .5-.9.2-1.4.3-1.4 1.4 0 .7-.3 1.6-.7 2.3-.3.5-.4.9.2 1.1.6.3.8 1.5 1.4 1.1.6-.5 1.4-1 1.8-1.9.2-.4.1-.7-.2-1-.7-.6-.9-1.5-.5-2.1.5-.7 1.5-.6 2.2-.1.2.7-1.1.7-.6.9.7.3.1 1.3 1.3 1.4 1.8.1 3.4 2.5 3 4.3-.4 2 .7 3.5 1.6 5.1.8 1.3.7 2.4-.4 3.4-.2.2-.5.3-.4.6.6 1.4-.5 1.9-1.4 2.1-1.6.5-2 1.6-1.8 2.9.2 1.9-.5 3.1-1.7 4.5-.8 1-1.4 2.3-2.6 3.1-1 .8-2.1 1.6-3 2.5-1.5 1.5-3.9 1.7-5.9 2.5-.9.4-2.5-.8-3.4-1.8-.4-.4-.2-1.5-1.2-1.1-.7.3-1 1.2-.8 1.9.2.8.1 1.4-.4 2-.8-.2-.7-1-1.3-1.6-.3 1.8-.1 3.4-.4 5-.3 1.2.4 1.4 1.8.4-1 2.5-.8 5-3.1 6.3.8 1.6 2.5 1.8 4.2 1.9 5.6.4 11.2.5 16.7 1.4 4 .7 8.1.9 12.1 1.2 5 .5 9.9 1.5 14.9 1.3.5 0 1.2 0 1.6.3 1.5 1.2 3.2 1 4.9.9 2.8-.1 4.6-1.6 5.3-4.2.6-2.3 3.9-3.3 5.7-1.8.6.5.3 1.2.3 1.8.2 3.7 1.8 5.5 5.4 5.8 3.8.3 7.4 1.1 11.2 1.2 2 0 2.8 2.1 1.5 3.8-1.6 2-2.6 4.2-3.6 6.5-.3.6-1 .8-1.8.8-3.6-.1-7.2-.4-10.8-1.2-2.1-.5-4.3-.1-6.5-.3-4.3-.5-8.6-.7-12.9-1.3-.9-.1-1.8 0-2.7-.1-7.2-1.2-14.4-1.7-21.7-2.1-2.2-.1-4.4-.1-6.5-.4-.8-.1-1.4-.6-2.3-.7-2.1-.2-3.6 1.1-5.3 1.8-2.2 1-4.3.3-6.4.2-1.9-.1-3.7-.3-5.6-.2-.7 0-1 .3-1.2 1-.7 2.5-1.2 5.1-2.8 7.3-.4.6.4 1.2.3 1.6-.8 4-.5 8.1-1.1 12.2-.1 1-.3 1.5-1.7 1.6.8.4 1.4.1 1.1 1.1-.3 1.3-.6 2.7-.3 4.1.2.7-.2 1.5-.4 2.1-.8 3.2-1.2 6.5-2.4 9.6-.2.7-.4 1.6-1.3.5-.3-.4-.8-.3-1.1 0-.2.2-.4.4-.2.7.3.5.6.2 1 .1 1.1-.3 1.4.2 1.1 1.2-.3 1-.6 1.9-.8 2.9-.3 1.4-1.2 2.1-2.8 1.9-2.4-.3-4.9-.4-7.4-.5-.7 0-1.4 0-2.1.2-.5.1-.9.2-.4 1.2.7 1.6 1.2 3.4 1.6 5.1.4 1.9 1.2 3.5 1.7 5.3.2.9.7 1.7.4 2.7 0 .1-.1.2-.1.3 1.4 2.3 1.8 3.7 2.1 5.9.3 2.1 1.6 3.9 1.8 6.1.2 2.2.9 4.4.9 6.7 0 1.5-1.3 1.8-1.8 2.8-.4 1-1 1.7-.3 2.9.3.6.3 1.7.4 2.6.2 1.2.5 2.4.7 3.7.1.6-.2 1.1.4 1.8 1.1 1.3.1 3.2.3 4.8.1.5-.9 0-.9.8 1.2 0 2.2.2 1.4 1.8-.2.4.3.3.5.4 1.6.6 2.7 2.5 2.1 4.2-.4 1.1.1 1.9.2 2.7.4 1.7 0 3.5.8 5.1 1.1 2 1.2 4.3 1.7 6.5.3 1.3.6 2.7-.2 4.1-.1.2.8 0 .7.7-.1.9.7 1.7 0 2.6.9.6-.4 1.8.7 2.5.4.2.5 1.8.2 2-1.1.8-.4 1.1.2 1.5.9.7.4 1.6.2 2.2-.8 2.6-1.1 5-.1 7.7.4 1 1.3 2 1.1 3.4-.3 1.4-.3 2.9-.2 4.3.2 2.7-.3 5.3-.3 8s.3 5.4-.6 7.9c-.4 1 .7 3-1.5 3.3 1.4.3 1.4 1 1.3 2.1-.1 1.1-.1 2-.7 3.1-.6 1.2-1.2.6-1.8.7-.7.2-1-.4-.8-1.2.1-.3-.1-.5-.4-.6-.3-.1-.7.1-.8.4-.7 1-.6 2.3-1 3.4-.2.5 1 .8 1.1.3.4-1.3 2.1-.5 2.6-1.6.1-.2.7-.2 1 .1.4.3 0 .5 0 .8-.3 1-.4 1.9-.3 3 .1.8.2 1.7-.3 2.5-.7 1.2-.7 2.6-.7 4s-.4 2.7-.9 4c-.5 1.3-1.1 2.5 0 3.8.5.5 0 1.1-.2 1.5-.5 1.4.7 2.8-.1 4.2-.8 1.5.1 3 0 4.6-.1 1.6-.3 2.5-2.1 2.1 0 .6.3.6.7.6 1.4-.2 1.8.9 1.5 1.6-.3.9 0 2.1-.9 2.8-.1.1-.2.2-.1.4 1 2.9 0 5.7-.2 8.6-.2 2.8-.8 5.6-.5 8.4.1.8-.2 1.5-.2 2.2 0 .8-.2 1.6-1.6 1.2 1.4.5 1.3 1.5 1.2 2.4-.2 1.8.3 3.7-.2 5.5-.3 1.2-.4 2.4-.1 3.6.2 1-.7.9-1.2 1.2.1.7 1.3.4 1.1 1.3-.2.7-.6 1.1-1.2 1.4-.8.4-.9 1.8-2.2 1.6.7.8 1.5 1 2.5 1.1.5.1 1.1 0 1.3.5.3.9-1 .2-.9 1 .8.1 2.2-.4 1.3 1.4-.2.4.4.6.8.9 2.4 1.8 4.8 3.4 6.7 5.8.4.5 1 .7 1.5 1.1 1.3 1.2 2.6 2.7 4.2 3.1 1.7.5 3.1 1.5 5 1.6 1.9.2 4 .6 5.9 1.1 3 .8 5.5 2.7 8 4.6.8.7 1.3 1.4-.5 1.7 2.1.4 2.7 1.2 2.9 3.5.2 1.6-.5 3.3.3 4.9.2.4-.3.8-.7.9-3.2 1.5-6.6 2.9-10.1 3.3-4.1.4-8.2.7-12.3.4-2.1-.2-4.1.4-6.1.8-1 .2-1.9.2-2.9-.3-1.4-.7-3-.8-4.6-.7-1.6.1-3 .1-4.3-1.4-1.1-1.3-3.1-.6-4.7-.9-.5-.1-1 .1-1.6-.1-1.7-.7-3.5-.3-5 .5-4.7 2.7-9.8 2.9-15 2.3-.8-.1-1.9.6-2.4-.7-.1-.2-.2-.1-.4 0-1.8 1.2-3.4.5-3.7-1.5-.1-1.1-.7-2.2.1-3.3v-.2c-1.7-1.5-.2-2.1 1.2-2.8-2.6-.1-1.6-2.1-1.9-3.1-.3-1.1.3-2.5.3-3.7 0-.9.5-.9 1.4-.9-.8-.2-1.9-.1-.9-1.1.6-.6.8-1.7.7-2.2-.6-2.9 1.7-4.6 2.9-6.7.6-1.1.7-3.7-.2-4.7-.6-.7-.9-1.4-1-2.3 0-.7-.2-1.5 1.2-1.5-1.2-.2-1.2-.8-1.2-1.7-.1-1.9-.4-3.9-.7-5.8-.3-2.5.5-4.9.4-7.4-.1-1.8-.1-3.6-.2-5.4-.1-1.2.1-2.5-.3-3.7-.1-.4-.2-1.3.7-.5.1.1.3 0 .4-.2.1-.3-.1-.5-.4-.6-1.2-.5-.6-1.6-.8-2.4-.2-.7.8-.3 1.1-.9-1-.1-1.1-.7-1.1-1.6 0-3.7.4-7.3.4-10.9 0-4.6-.3-9.3.1-13.9.1-1.1 0-2.3.2-3.5.2-1-.7-1.4-1-2.1-.2-.4-.5-.7-.1-1.2.4-.4.7-.2 1.1 0 .7.5 1.7.7 2.2 1.5.1.2.5.3.7 0 .1-.1 0-.4-.1-.6-1.2-1.2-2.3-2.6-4.3-1.7-.6.3-.9-.3-.9-.8 0-1.1-.3-2.3-.4-3.3-.1-1.5-.6-2.9-.5-4.5.1-1.8 1.1 0 1.5-.4 0-.1.1-.2.1-.3-3-1.9-2.8-5.3-3.6-8.2-.7-2.5-1.9-5-1.9-7.7 0-1.7-1-3.1-1-4.9 0-1-.7-2.1-1.2-3.2-.9.2-1.5-.8.1-1.7zm37.7-41c-1.5-.7-2.6.6-4 .7-.7.1-.3 1.1-.6 1.7-.2.4.4.5.8.6.5.1 1-.1 1-.8 0-.4.3-.8.5-.7 1.6.6 1.7-.8 2.3-1.5.4-.3.9-.5 1.4-.7 1.2-.7.6-1.7.3-2.5-.4-1.1-1.1-.3-1.7 0-1.5 1-.4 2.1 0 3.2zm-93.7 31.3c0 .2-.1.3-.1.5.1.6.3 1.2 1 1.3.6.1 1-.5 1.2-.9.2-.6.1-1.4-.4-1.8-.6-.4-.7.6-1.2.8-.1.1-.4.1-.5.1-.4-1-1.2-1.6-2.1-2.2-.6-.3-1.3-.1-2-.5-.9-.6-2-.4-2.8.3-.2.2-.9.2-.7.7.2.6.7.3 1.1.2 1.4-.6 1.2.2.9 1-.1.3-.4.6-.1.9.3.4.7.1 1 0 .5-.1.9-.4 1-1 .1-.5.1-1.1.8-.9.6.2 1.6.2 1.7 1.2 0 .4-.4.9.2 1.1.6.3.6-.5 1-.8zm-3.6-194.6c-.3.4 0 .8 0 1.2.3 1.6 1.3 3.2-.3 4.7-.4.3.2.8.4 1.1.2.3.7.2.8 0 .5-.7 1.2-1.1 1.2-2.2 0-.9-.8-1.6-.5-2.4.5-1.6-.3-2.1-1.6-2.4.6-.7.5-1.7 1.1-2.5.3-.4.3-1.3-.4-1.5-1.1-.2-1.7-1-2.4-1.7-1-.9-1.4-.7-1.7.7-.3 1.4-1.7 2-2.9 1.2-.6-.4-1.3-.6-1.6-.2-1.2 1.5-3.3 1.2-4.7 2.4-.6.5-1.6 1-2.1-.3-.5-1.5-1.2-1.7-2.5-1-.6.4-1.1 1.4-1.8 1.1-2.2-.9-3.4.8-4.9 1.7-1.1.6-1 1.9-.8 2.8.2.8 1.3.4 2 .2 1.9-.5 3.9-.4 5.9-.8.6-.1 1.9-.1 2.7.4.3.1.6.4.7.6.1.4-.3.6-.5.7-1.5.4-2 1.6-2.8 2.8 1.5-.2 3.5.6 4.4-.7 1-1.4 2.2-1.7 3.5-1.9 1.5-.1 2.8-.6 4.1-1.2.4-.2 1-.3 1-1.1-.1-1.6.8-2 2.2-1.9.6.2 1.1.2 1.5.2zm30.8 121.7c1.3-.1 2.5-.6 3.7-.9.9-.2 1.7-.3 2.1 1 .3.9.4 1.8.6 2.6.2.7.6 1.3 1.4 1 .9-.3.3-.9.1-1.4-.4-.8-.3-1.6.7-1.6.9-.1 1.9.7 2.2 1.2.7 1.3 1 2.9 1.3 4.3.1.4-.2 1 .5 1.2.5.1.9-.1 1.1-.6.3-.6 1.1-.6 1.1-.1-.1 1.7 1.1 1.4 2.1 1.5.5.1.8.2.9.7.2.8.5.7 1.1.2 1.2-1 2.6-1.6 4.3-1.3 1.3.2 1.6-.5 1.4-1.6-.2-.8-.4-1.5-.6-2.2-.1-.4-.1-.8.3-1 .5-.2.9.1 1 .5.2.8.5 1.6.1 2.3-.3.6-.1 1 .3 1.4.8.6 1.7.3 2.5.1.7-.2.5-.8.4-1.4-.4-2.4-.9-4.8-.5-7.2 0-.2 0-.4-.1-.6-.3-1.9-1-3.9-.6-5.9.2-.9-1.1-1.6-.6-2.6-1-.4-2-1.1-2.7.7-.1-1.1-.3-1.9.4-2.9-.7.1-1.7.5-1.8-.5-.1-1.2-.9-1.9-1.3-2.9-.3-.6-.5-1.2-.2-1.9.5-1.2 0-1.9-1.3-2.1-2-.2-2.7-1.3-2.5-3.3.1-.9.1-1.9.1-2.8 0-.9-1-1.2-1.5-1.4-.7-.3-.6.8-.9 1.2-.2.4.1 1.1-.7 1.3-.4-1-.8-2.1-1.3-3.1-.2-.6-.7-.8-1.3-.7-.6.1-1.3.6-1.2.9.2 1.4-.5 2.7-.6 4-.1 1.3.4 2.5.2 3.8-.2 1-.4 1.5-1.5 1.3-.4-.1-.8-.2-1.1.1-1.2.8-1.2-.1-1.3-.9 0-.5.2-1 .3-1.6-1.7.6-3.3 1.1-4.1-1.1-.1-.1-.5-.2-.7-.2-1.2-.1-1.5-.8-1.3-1.9.1-.6 0-1.1-.6-1-.9.2-1.9.4-2.5 1-1.1 1.1-2.4 2.4-1.8 4.3 0 .1-.2.2-.3.3-.1-.1-.2-.2-.3-.2-.1-.4-.2-.7-.3-1.1-.5-2.8-.6-2.6-3.3-3.4-.9-.2-2 .2-2.8-.8-.2-.3-1.1-.1-1.3.5-.6 1.2-1.7 1.1-2.6.7-1.1-.5-1.1.1-1.2.8-.1.4.1 1.1-.8.7-1.3-.6-2.2-1.5-1.9-3.1.1-.4.2-.9-.1-1.2-.2-.3-.2-.9-.9-.7-.4.2-1.1.6-.8 1 .5.9-.8 1.6.1 2.6.5.5-1.1 2.2-1.9 2.1-1-.1-1.4.2-1.3 1.2 0 1.5.4 3 .3 4.6-.1 1.3-.6 3.1-1.8 3.5-.7.2-1.3.1-1.4 1.2-.1.7-.1 1.6.2 1.9.8.8.5 1.5.4 2.4-.1 1-.8 2-.1 3.1.1.2 0 .4-.3.5-.2.1-.5 0-.4-.3.1-1-1.2-1.7-.7-2.9.2-.5-.2-.8-1-1 .3 1.9-1.6 3.6.1 5.4.1.1 0 .3 0 .5.1 2-.9 3.9-.4 6 .1.4-.2 1-.6 1.5-1.3 1.4-1.4 3.9-.2 5.3.3.4.6.4 1 .3.3-.1.8 0 .7-.4-.3-.8.4-1.3.5-1.9.1-.4-.1-1 .5-1s.4.6.5 1c.1.4.2.9.7.9.5 0 .8-.3.9-.8.1-.8.6-1.3 1-2.1.4.8.5 1.6.1 2-.9.9.4 1.6.1 2.4.9.2 1.2-.3 1.5-1 .1-.3.4-.3.7-.3.7 0 .8-.4.8-1.1 0-1.1.1-2.2.2-3.3.1-.7.2-1.2 1.3-.8.9.4 2.1.9 3.1.5 1.2-.5 1.9-.5 2.4.8.1.3.3.5.6.4.1 0 .3-.2.3-.3-.3-1.6.7-3.2.4-4.8-.1-.6-.1-1.3.8-2-.1 1.2.3 2.1-.2 3-.2.5.1 1 .5 1.4.2.2.5.1.7-.1.5-.4.3-.9.2-1.3-.1-.4-.4-.8-.4-1 .6-2 .1-3.9 0-5.9-.1-1.4 1.2-2.1 2-3 .3-.3.8-.3 1 .3.5 1.8 1.3 3.6.9 5.6 0 .3-.1.5.1.7.8 1.4.8 1.4.2 2.7-.1.3 0 .3.2.4.5.2.8 1 1.6.6.3-.2.3-.3.2-.6-1-2.1-.5-4.4-1.2-6.6-.4-1.2.1-2.4 1.2-3.2.8-.6 1.4-.6 1.5.5.2 1.8.8 3.6.7 5.5 0 .8 0 1.8.5 2.2 1 .6 1.5-.5 2.2-.7zm-37.9-103.9c-.2-.3-.7-.5-.8-.9-.4-1.2-1.1-1.1-2.1-.9-1 .1-1.4 1-2.4 1.1-4.4.4-7.7 2.7-10.3 6.2-.4.6-1.1 1.2-1.9.6-.8-.6-.1-1.1.2-1.6.2-.3.3-.6.3-1 .2-1 .7-1.6 1.5-2.3.8-.7 2.2-.8 2.6-1.7.7-1.5 2.1-2 3.4-2.6 1.2-.5 2.3-.9 2.9-2.3.2-.5.8-1 .2-1.5-.5-.4-1.2-.6-1.8-.1-.7.5-1.5.8-2.4.8-1.5 0-1.7-.3-1.2-1.7.1-.3.1-.7.2-1.1.4-1.3-.1-1.2-1.1-.9-1.5.4-2.6 1.5-3.8 2.3-2.2 1.4-5.2 1.4-7.1 3.7-1.3 1.6-3.5 2.2-4.6 4.3-.7 1.3-.7 2.5-.3 3.7.2.8 1.1 1 1.8.3 1-1 2.2-1.8 2.9-3.2.5-.9 1.8-1.4 1.8-2.8 0-.1.6-.2.9-.3.9-.3 2 .2 2.9-.7.2-.2 1.4-.1 1.7.5.2.6 0 1.3-.4 1.8-.3.4-.8.7-1 1.2-1.1 1.9-2.1 3.9-3.6 5.4-1.5 1.4-2.1 3.1-3.1 4.7-.4.7-.2 1.2.4 1.8.7.7 1 .2 1.4-.2 1.1-1.4 2.7-2.4 4.2-3.3 2.1-1.3 4.4-2.4 6.3-4 .5-.5 1.3-.9 1.8-.1s-.3 1.2-1 1.5c-1.3.5-2.1 1.5-2.1 2.8.1 1-.3 1.9-.8 2.3-1.8 1.1-2.1 3.2-3.4 4.6-.5.5-.6 1.3-.1 1.7.6.5 1.2 1.2 2.1.8.5-.2.8-.6.2-1.2-.8-.8-.8-1.9 0-2.6 1-.7 2.4-.5 3.5-.8.7-.1.7.5 1 .8.3.4.8.6 1.1.3 1.1-1.1 2.4-.9 3.7-.9 1 0 1.2-.5.8-1.3-.3-.4.1-.5.2-.8 1.1-1.4 2.2-1.3 3.7-.5 1.2.6 1 1.2.3 1.7-1 .8-1.8 1.6-2.1 2.9-.2.6-.7.4-1.2.4-2.2 0-3.4 1.1-3.5 3.2 0 .2-.2.4-.3.5-.1.3-.8.4-.4.8.3.3.7.2 1.1.1.3-.1.7-.4 1.1-.1-.2.3-.4.5-.5.8-.2.4-1 .7-.3 1.3.6.6 1 .4 1.4-.2.2-.2.5-.5.7-.3.8 1 1.5.6 2.3-.1.2-.2.6-.2.9.1 1.8 1.2 2.9 1.1 4.4-.2.6-.6 1.5-.7 2.4-.6.3 0 .5.3.4.6-.1.7 0 1.5 0 2.2-.2 1.7-.2 1.8 1.6 1.5.4-.1.9-.3.9.4 0 .6.3.9.9.9.9-.1.3-.7.3-1.1.1-2.1.6-2.5 2.6-2.1.2 0 .5.2.6.1 1.1-1.3 1.3.1 1.7.6.3.3.6.6.8 1 .4.7.9 1.3 0 2.1-1 1 .3 2.2 0 3.4-.1.3.6.2 1 .1 1-.3 2-.7 3.1-1 .5-.2 1.2 0 1.4-.8.2-1.3 1.4-1.9 2.4-2.1 1.2-.3 1.6-.9 1.6-2 1.2.6 1.3.6 1.8-.4.4-.8 1.1-1.1 1.9-1.3.3-.1.8-.3.9.3.4 1.9.1 3.6-.7 5.4-.5 1-1.2.4-1.8.6-.5.2-.9.5-1.1.9-.9 1.4-1.9 2.6-3.2 3.8 1 .3 1.7.4 2.6.3 2.6-.3 4.7-1.5 6.5-3.3.4-.4 1-1.4 1.6-.3.4.8-.2 1.7-.8 1.9-2.3.7-3.5 2.4-4.4 4.6 2.6-.2 5.2 1 7.7 0 .2-.1.6 0 .9.2.8.4 1.6.6 2.3-.2.5-.5 1.1-.3 1.7-.3.4 0 .9-.3 1.1.2.2.4-.2.8-.6 1-.8.6-.1 1.3.2 1.7.4.6.8.1 1.3-.2 1.5-1.3 3.1-2.6 4.9-3.5.4-.2.8-.4.9.1.4 1.4 1.2.6 1.7.2.6-.5 1.2-1.1 1.6-1.9.3-.5.4-1.4 1.5-1.4-.9.6-.6 1.4-.6 2.2.1.5-.3 1.1.6 1.2.7 0 1.5 0 1.6-.9.1-1.1.3-1.9 1.6-1.6.4.1.7-.2.8-.6.8-2.2 1.5-4.5 2.3-6.7.4-1-.3-2.4 1.3-3.2-2.7-.5-3-2.7-3.7-4.4-.3-.8-.6-1.4-1.6-1-.7.2-1.1-.1-1.3-.8-.2-.6-.7-.9-1.4-.9-.5 0-.9-.1-1.3-.5-1.4-1.8-4-1.8-5.6-3.3-.1-.1-.4 0-.6-.1-1.6-.4-2.9.3-4.3.8-.7.3-1.1.6-1 1.5.1 1.7-.8 2.7-2.4 3-.2 0-.4.1-.6.2-2.8 1.4-4.3.9-6-2.1 1.1-.2 1.6.8 2.4 1 .5.1 1.1.5 1.5-.1.4-.6-.2-.9-.6-1.2-.3-.2-.8-.3-.7-.8.1-.5.6-.3 1-.4.4-.1 1.1.3 1.2-.4.1-.5 0-1.1-.6-1.4-.6-.3-.5-.8-.6-1.3-.2-1.3-.2-2.8-1.7-3.2-.9-.3-1.9-.7-2.6-1.2-1.4-1-2.3-.3-3.2.4-.6.4-1 1.1-1.7 1.3-.3.1-.5.3-.3.6.9 2-.7 2.8-1.6 4-.6-.9-.1-2-.6-2.5-.7-.8-.4-.8.2-1.2.5-.3.9-1.1.7-1.3-1.2-.7-.9-2.4-2.1-3-.4-.2-.9.3-1.2.7-.4.4-.6 1-1.2 1.8.1-1.6-.3-2.6-1.7-2.5-1.2 0-2.4.7-2.5 1.8-.6 3.2-2.2 6.2-2.6 9.4-.1.6-.4.8-.9 1-.5.2-.9 0-1.2-.5-.2-.4-.5-.8-.8-1.2-.6-.7-.6-1.3.3-1.8.8-.5 1.8-3.5 1.4-4.3-.1-.3-.4-.6-.9-.5-1.5.3-2.6-.5-2.2-1.9.4-1.5.6-3.1 1.9-4.2.5-.4.8-1 .5-1.4-.3-.4-1-.5-1.6-.1l-.9.6c-1.4 1.4-2.4 3.2-4.3 4.1-.4.2-.8.7-1.1 1.2-.6 1.4-1.7 1.6-3.1 1.4.2-1.6 1.7-2.4 2.4-3.7.2-.5.5-.8.2-1.3s-.9-.2-1.1.1c-.8.9-1.8 1.1-2.9 1.3-.8.1-1.5.7-2.2 1.2-.8.5-.5 1.7-1.5 1.9-1.2.2-2.3.4-3.6.7.8-1.8 2.4-2.6 3.8-3.6.5-.3.7-.4.2-1-1-1.3-.7-2.2.8-2.9.5-.2 1.2-.2 1.3-.8 1-1.7 2.5-1.5 3.7-2zm6.7-77.2c1.8.6.9 1.8.9 2.8 0 .5-.3.7-.7.6-.6-.1-.5-.5-.3-.9.6-1.4-.3-2-1.3-2.4-1.1-.4-2-.5-3 .7-.9 1.1-1.3 3-3.1 3.2-.3 0-.1.2-.1.3-.3 1-.5 2.3-1.2 2.8-1.5 1.1-2.7 2.5-4.1 3.5-1 .7-.3 1.5-.1 1.8.5.6 1.1.1 1.4-.4.4-.6.8-1 1.5-1.1.6-.1 1 .2.8.8-.3.8-.6 1.6-1 2.4-.1.3-.7.4-.3.9.3.4.7.1 1 0 2-.5 2.5-.1 2.6 1.9 0 .4-.3.9.3 1.1.5.2.9-.1 1.2-.5.2-.3.2-.8.7-.6.1.1.3.3.3.5.1.4-.1.7-.5.8-.8.2-1.4.8-2.3.9-.8 0-1.9.4-1.7 1.8.1 1.3-.9 2.5-2.4 2.9.2-1 1.2-1.4 1.5-2.2.1-.4.5-.9-.1-1.2-.5-.2-.7.2-.9.6-1.3 2.1-2.6 4-1.2 6.7.4.8.4 1.8 1.6 2 .5.1.9.5.5.9-.9 1.1-1.1 2.5-2.4 3.3-2 1.3-4 2.5-5.7 4.2-.5.5-1.4.6-1.1 1.7.1.4-.5.6-.9.7-.8.2-1.7.3-2.5.6-.7.2-1 .7-.9 1.5.1.6.6.9 1.3 1.1.6.2 1.3-.3 2 .1-.3.5-.7.5-1.1.7-.9.5-1.2 1.4-1.3 2.3-.1.9.2 1.5 1.3 1.5.7 0 .5.6.2 1-.4.5-.9.9-1.3 1.4-.6.7-.2 1.7.6 1.9 1.7.4 3.2-1 2.9-2.7 0-.1.1-.2.2-.4.9 1.6.9 1.6 2.6 1.2.5-.1.8 0 1.2.2 1.5.7 1.9.4 2.6-1.1.3-.7.6-2.2 1.8-.7.4.5.6 0 .9-.4.6-.6 1.5-.8 2.2-.5.6.3.1 1.1-.1 1.7-.2.4-.4.9-.4 1.3 0 .6-1.2.7-.5 1.4.5.6 1.2.2 1.8.2.5 0 .8-.3 1.2-.7.5-.4.6-1.4 1.3-1.4 1.7.1 2.2-1.2 3-2.2.6-.6.8-1.1.3-1.9-.2-.3-.7-1-.1-1.3 1.8-.7 2.2-2.1 2.2-3.8.1-1.1.9-1.2 1.6-.7 1 .6 1.6.2 2-.7.2-.3.5-1 .6-.8.9.9 1.8 0 2.7.1.6.1 1.3.5 1.6-.5.3-.8.6-1.8-.2-2.2-1.5-.8-1.5-2.2-2.1-3.4-.1-.3-.3-.7-.5-.8-1.9-.4-1.4-2.3-2-3.4-.8-1.3-.3-3.3-.3-5.1 0-.2 0-.5.3-.5.1 0 .4.2.4.2-.4.8.6 1.5.3 2.3-.1.5-.8 1.1-.1 1.4 1 .3 2.2 1.3 3 .6 1.8-1.9 3.2-.7 4.8 0 .8.3 1.7.8 2.2 0 .5-.7 1-1.7-.2-2.5-.5-.3-.9-1-1.3-1.6-.6-1-.1-1.9 1-2.1.7-.1 1.1-.2.7-1.1-.4-.9-.8-1.7-1.5-2.4-.3-.3-.5-.5-.2-1 .8.2 1.4.8 2 1.4.5.6 1.3.6 1.9.3.5-.3.4-.9.1-1.4-2-3.3-3.5-6.9-6.2-9.8-.3-.3-.5-.8-.1-1.1.3-.3.8 0 1 .2.6.8 1.8 1 2.4 1.9.5.7 1.2.6 1.5 0 .3-.5.9-.6 1.3-1-2-1-2-1-.1-2.3.2-.1.4-.2.5-.3.4-.2.9-.5.7-1-.2-.5-.8-.6-1.3-.3-1.4.6-2.3-.1-2.7-1.3-.7-2.2-2.3-3.2-4.4-3.7-.3-.1-1.2.3-1-.6.2-.6.8-.5 1.3-.4.4.1.8.3 1.2.5.9.6 1.9.7 2.9.9.3.1.8 0 1-.2.3-.4-.1-.7-.4-.9-1.2-1.1-2.3-2.2-3.6-3.1-1-.7-2.6-.3-3.3.8-.3.5-.6.8-1.1.8-1.8.1-3.4.9-5.1 1.1-.4 0-.8.1-.6.6 0 1.7-.9 1.6-2 1.6zm87.1 161c-.7 0-1.2-.9-1.9-.3-1.5 1.3-1.9.1-2.2-1-.6-2.1-2-3.7-2.8-5.7-.2-.5-.7-1.1-1.2-1.2-1.6-.3-2.1-1.4-2.7-2.6-.2-.3-.4-.6-.7-.9-.2-.2-.5-.4-.9-.2-.3.3.1.4.1.6.2 2.2.3 4.3.4 6.5 0 .3-.1.4-.3.5-.3.1-.4-.2-.4-.4-.1-.5-.2-.9-.3-1.4-.2-1.8-.5-3.5-.7-5.3-.1-.4 0-1-.6-1-.5 0-.4.5-.5.9-.9 2.5.6 4.9.7 7.4.1 1.6 1.4 3 1.1 4.8-.1.8.3 1.6.3 2.5 0 1.6.2 3.2.1 4.8-.2 1.5 1.2 3.1-.4 4.4 0 0 .1.3.2.3.9.2.5.8.5 1.3.1 1.7-.2 3.5 1.2 4.9.3.3.2.7.1 1.1-.5 1.2-.7 2.4 1.1 2.8-1.2.9-1.2.9-1.1 1.8.1.8-.5 1.4-.3 2.2.1.5.8.5.9.2.1-.5 1.1.2.9-.7-.1-.5 0-1.1-.1-1.7 0-.3 0-.6.3-.7.3-.1.5.1.7.3.5.6 1 .9 1.8.8 2.1-.1 4.1.1 6.2-.3 1.4-.3 3-.7 4.2-.3 1.9.6 2.9-.6 4.2-1.3 1.1-.6 2.3-1.5.9-3.1-.2-.2-.2-.7-.2-1.1-.1-1.2-1.5-2.1-.7-3.4-1.2-.5-.9-2.8-2.8-2.5-.6.1-.5-.6-.5-1-.3-1.5.1-3.1-.2-4.6-.4-2.5-1.5-4.9-1.8-7.4-.3-2-1.6-3.6-2.1-5.5-.2-.8-.6-1.1-1.3-1-1.1.1-.8.9-.6 1.4.5 1.8 1 3.3 1.4 5.1zm-24-100.8c-.5-.5 0-1 0-1.4.1-2.4-.5-3.7-2.9-3.3-.7.1-.8-.3-.9-.8-.3-1.6 0-3.3-.2-4.9-.1-.4.1-1.1-.7-1.1-.5 0-.6.5-.8 1-.5 1.1.3 2.1-.1 3.1-.6 1.5-1.5 3-2.4 4.4-.4.6-.9.9-.6 1.8.2.5-1.5 3-1.8 2.8-.7-.4-.5-1.4-.8-2-.1-.2 0-.5-.5-.5-.1.2-.1.5-.3.7-.2.4.4.9-.2 1.1-.5.1-.5-.4-.7-.7-.3-.6-.6-.2-.8 0-1 1-2.6 1.5-2.6 3.3 0 .3-.4.7-.7.9-1.8.8-.9 1.9-.2 2.8.5.7.9 1.3.6 2.2-.1.2-.3.3-.1.7.6 1 0 2.2-1.1 2.6-.7.2-1.1.1-.9-.7.3-1.1.1-2.2.2-3.3 0-.4.4-1.1-.4-1.1-.7 0-1 .6-.9 1.3.5 1.8-.4 3.6 0 5.4.1.4-.2.6-.5.7-1.2.3-2.1 1.3-3.3 1.6-.7.2-1.3.6-1.5 1.5-.1.7-.6 1.2-.9 1.8-.4-.2-.3-.4-.2-.7.2-.4.6-.8-.1-1-.4-.1-.9 0-1.1.7-.3 1.3-.1 2.7-.8 4-.2.3.1.5.3.6 1.3.6 3.9-.2 4.7-1.5.6-1 2.8-1.7 3.7-1 1.1.9 1.7.4 2.3-.6.2-.3.1-1 .8-.8.5.1.6.6.7 1 .1.4-.1 1.2.8 1.2s1.8.3 2.7.4c1 0 2.2.7 3-.7.3-.5.8 0 .8.2.2 1.3 1.2 1.3 2.1 1.5 1 .1 2 .1 3 .3 2.1.3 4.2-1.4 4-3.5-.1-1.3.2-2 1.8-2.5-1.9-.2-1.4-1.2-1.4-2 0-2 .8-3.9.9-5.9 0-1.3-.4-2.7-.4-4 0-1.9.4-3.8.5-5.7 0-.7-.6-1.7.3-2.3-.7-.4.1-1.7-1-1.8-1.1-.1-.6.9-.8 1.5-.4.6.2 1.7-.6 2.7zm3.2 55.4c-.4.4-.9.7-1.3 1.1-.3.2-1 .1-.8.7.2.6.7.6 1.2.6 2.1 0 4.2.3 5.9-1.3.9-.8 1.1-.3 1.5.5.6 1.2 2.8 1.5 3.8.7.3-.3.2-.5-.1-.8-.9-1-1.5-2.2-2.6-3-.9-.6-.6-1.7 0-2.3.6-.5 1.6-.5 2.1.4.5.8 1.1.9 1.9 1 2 .4 4.6-.5 5.5 2.5.2.7 1.6 1 2.4 0 .5-.7 1.1-.9 1.9-1 1.5-.2 3-.3 4.4-.6.4-.1 1.1-.1 1.1-.7 0-.7-.8-.6-1.1-1-.3-.3-.6-.1-.9.1-.9.6-1.9.2-2.3-.4-.8-1.2-2.2-1.5-3.2-2.5-2.2-2.1-5.2-3.4-7.4-5.6-1.3-1.3-2.3-2.3-3.1-4.1-1.1-2.7.9-4.7.5-7 0-.1.2-.2.3-.3 2.5-1.7 2.4-5.8.7-7.7-.4-.4-.9-.6-1.5-.4-.5.2-.9.6-.8 1.1.4 1.4-.3 2.2-1.5 2.7-.4.2-.4.6-.5 1-.5 1.7-.3 3.7-2.5 4.3l-.1.1c-.6 1.9-2 3-3.8 3.7-.5.2-.1.2 0 .3.5 1.5 0 2.1-1.6 1.7-.6-.1-1.2-.4-1.8.2-1.2 1.1-2.6 1.8-4.2 1.7-2.5-.1-4 1-4.6 3.4 0 .1-.1.2-.2.3-.7.7-.3 1.3.1 1.8.5.7 1.2.9 2.1.9 1.6-.1 3 .9 2.8 1.8-.3 1 0 1.2.9 1.4.6.2 1.4.3 1.4 1.3-.1 2.3 1.2 3.4 3.4 3.1.7 0 1.4-.4 2 .3zm-18-183.1c-.6.3-.9.5-1.2.6-.3.2-.8.2-.7.7.1.4.5.4.8.4.8-.1 1.6.1 1.6 1.1.1 1.1-.9.8-1.5 1.1-.1.1-.2 0-.3.1-.4.3-1.2.1-1.1.7.1.6.8.6 1.3.5 1.3-.2 2.6-.3 4-.4 1-.1 2.7.1 2.6-1.9 0-.4.5-.5.8-.6 1.2-.2 2.4-.4 3.6-.7 1.1-.3 2.5-.6 3-1.6s.9-2.2.5-3.5c-.3-.9 0-1.2.9-1 .7.2 1.4-.2 1.1-.8-.3-.6.1-1.9-1.3-1.9-.3 0-.5-.3-.5-.8.1-.9.1-1.9.4-2.8.4-1.3.1-1.8-1.3-1.9-1.4-.1-2.1-1.3-1.5-2.3.7-1 .4-2-.7-2-1.6 0-2.2-1.6-2.1-2.1.3-.9.1-2.6 1.8-2.8.3 0 .9-.5.3-.7-1.2-.4-2.1-1.4-3.2-1.9a.8.8 0 0 0-1.1.6c-.1.4-.5 1-.8.8-.9-.6-1.6-.2-2.4.2-.2.1-.5-.1-.7-.3-.8-1-.8-1-1.8-.3-.4.3-.8.8-1.4.1-.3-.3-.7-.4-1-.1-.4.3-.5.7-.3 1.1.1.3.3.7-.2 1-.1-.1-.3-.1-.3-.3-.3-1-1.1-.8-1.7-.6-.8.4-.1.8.1 1.3.4.9.1 1.5-.9 1.7-1.3.2-1.1 1.1-.7 1.7 1 1.2.4 2.1-.3 3.1-.4.6-.7 1-.1 1.8.3.3 1.6 2.1-.7 2.1-.7 0-.6 1-1.1 1.4-.2.1.2.6.4.6 1.3-.2 2.6.8 3.9.2.5-.2.8-.3 1 .2.3.7-.1.8-.6 1-.9.3-1.9.3-2.6 1.2.6.6 1.3.4 2 .3.7-.1 1.7-.2 1.7.6 0 1.1 1.1 2.1.4 3.3-.3.4-1.4.4-.9 1.2.3.6 1.1.1 1.6.1.3.3.5.4 1.2.5zm-10.8 89c.6.3 1.5.1 1.7.7 1 3.2 1.1 0 1.5-.2.2-.1.2-.5.6-.4-.2 1.9-.5 3.9-1.4 5.6-.6 1.1-.1 1.4.7 1.5 1 .1 1.3.8 1.5 1.4.3 1.1.6 1.5 1.6.6.3-.3.8-.1.8.1.1 1.1 1.3 1.9 1 3.2-.3 1.8.7 3.1 1.8 4.4.7.7 1.6.6 1.7-.3.2-.9 1.1-1.4.9-2.4-.1-.3-.3-1.5.7-1.5.8 0 .9.7 1.1 1.3.1.2.4.4.4.7.3 1 .6.7 1.3.1 1.7-1.5 2.1-3.6 2.8-5.6.2-.7.1-1-.3-1.4-.3-.3-.7-.5-1-.1-.4.4-.2.8.1 1.3.7 1.1-.2 1.1-.8 1-1.5-.1-1.3-1.4-1.1-2.2.3-1.3 0-2.5-.4-3.8-.1-.3-.2-.8-.6-.9-.5-.1-.5.4-.6.8-.1.3-.2.5-.5.5-.5-.1-.3-.5-.3-.8-.1-.5 0-1.4-.2-1.5-1.6-.6-1.5-2.7-3.3-3.4-1-.4-1.1.2-1.6.4-.2-.6-.6-1.1-.4-1.8.2-.7.9-.8 1.1-1.9-1.7 1.3-1.7.2-1.9-.8 0-.4-.2-.7-.2-1.1-.1-.6-.3-1.3-.9-1.3-.8 0-.2.9-.5 1.3-.1.1-.2.1-.3.1-.5-.6-.6-1.4-.8-2.2-.1-.4-.3-.6-.7-.5-.4 0-.8.2-.8.6.1 1.3-.9 2-1.6 3.1 2.9.4 1 2.4 1.1 3.6 0 1.2-.8 2.1-2.2 1.8zm-69.3 95.6c.6-1.9 1.5-3.2 3.5-3.1.5 0 .9-.2 1.4-.3.5-.1 1-.2 1.1-.8 0-.3-.2-.8-.5-1-.4-.3-1-.3-1.3.1-.5.6-1.1.5-1.7.6-1.2.2-2.5.5-3.7.7-2.5.4-5 .9-7.6 1.3-.3 0-.6 0-.7-.3-.1-.3.1-.5.3-.6.4-.2.7-.6 1.1-.6 2.2-.2 4-1.5 6-2.4.3-.1.7-.2.6-.6-.1-.5-.5-.3-.9-.3-1.6.1-3.1.2-4.6.6-.6.2-1.1.2-1.7-.4-1.5-1.5-3.6-1.3-5.2-.8-2.4.7-5 1-7.4 1.6-1.6.4-3.3.8-5.1.8-.5 0-1.5.4-1.1 1 .6.9 1.4 2.3 2.4 2.2 2.6-.2 5.3-.1 7.8-1.2 1.5-.7 3.2-1.2 4.9-1.2.6 0 1 .2 1.1.9.1.9-.6.7-1.1.7-2.6.3-5.2.7-7.7 1.5-.9.3-1.9.3-2.8.6-.3.1-1.1.3-.8.9.2.5.9.6 1.4.3.9-.5 1.8-.7 2.7-.9 1.1-.2 1.7.7 2.7.7 1.9 0 3.8-.5 5.5-.2 3 .6 5.9.1 8.7-.6.6-.1 1.1 0 1.4.6-.7.6-1.5 1.1-2.2 1-1.2-.2-2.3.3-3.4.5-.8.2-1.3.3-1.2 1.3.1.9.5 1.3 1.5 1.3 1.9 0 3.7-.3 5.6-.5 1.2-.1 2.1 0 2.3-1.5.1-.6.7-.6 1.1-.7 3-.5 6.1-1.3 9.2-1.4 1 0 2-.2 2.9-1-.8-.6-1.5-.8-2.4-.5-1.2.3-2.5.8-3.7.5-1.7-.3-3.3 0-4.8.5-1.2.7-2.3.5-3.6.7zm58-141.4c0 1.6 2.3 4.5 4.2 5 .6.1 1.1.4 1.6.7 1.6.9 2.5 2.6 4 3.7.6.5 1 1.9 1.3 2 2.4 1.3 3.5 3.7 5.4 5.4 1.9 1.6 3.9 3.1 5.1 5.2.7 1.3 2.4 1.8 2.6 3.4.1.8.9.8 1.4.6.7-.2.1-.7.1-1.2-.1-1.3-1.1-2.1-1.6-3.2-.8-1.9-2.5-2.8-3.8-4.1-.4-.4-1.3-.3-1.3-1s.9-.5 1.4-.9c1.1-.8 1.3-.1 1.3.8 0 .8.4 1.4.8 1.8.9 1 1.9 2 2.4 3.3.2.5.8.7 1.4.5.6-.2.6-.7.5-1.2-.2-1-.5-1.8-1.5-2.3-.6-.3-1.4-.9-1-1.4 1.1-1.4 0-1.3-.9-1.5-.4-.1-.8-.3-.8-.7-.1-1.6-1.5-2-2.5-2.7-.4-.3-1-.4-1.4-.8-3-2.4-5.8-5.1-9.2-7-.3-.2-.6-.4-.7-.8-.3-1.1-1.1-1.7-1.9-2.2-.5-.3-.7-.6-.9-1.2-.4-1.2-3.2-2.7-4.4-2.5-1.1.3-1.7.9-1.6 2.3zm75.7 93.5c-.5 1.6-.6 1.7-1 1.4-1.2-.9-1.6.7-2.5.7-.3 0 .9.3.7.9v.3c-.1.3-.2.7.3.8.4.1.6-.2.8-.4.3-.3.2-.9.7-1 .9 1.1 1.3 1.1 1.8-.1.3-.7.6-1.4.8-2.1.2-.8.7-1.2 1.3-1.6.4-.3 1-.2.9.3-.2.9.6 1.5.2 2.3-.2.4.3 1.2-.8 1-.5-.1-.6.8-.6 1.3 0 .4.4.5.7.3 1.4-.7 1.3.5 1.3 1.1-.1 1.4.3 2.7 1 3.9.2.3-.1 1.1.6.9.5-.2.8-.9.6-1.4-.6-1.2-.2-1.9 1.1-2.3-.6-.3-1.3.2-1.4-.7-.2-1.5-.4-3.1-.5-4.6-.1-.7.7-1.5.8-1.3.8 1 2.1.3 3 .8-.4 1-2 .2-2 1.6 0 .9 1 .5 1.2 1.1l-.9.6c-.3.2-.5.4-.3.8.2.3.5.4.8.3 1.5-.7 3.3-.8 4.3-2.5.3-.5.7-.8 1.1.1.5 1.1 2 1.3 3.2.3.8-.7.7-1.6 0-2.3-1.6-1.5-2.2-3.6-3.3-5.4-.6-1-1.6-1.5-2-2.6-.8-1.9-1.8.1-2.7.1-.2 0-.4-.2-.6.1.9.6 1.6 1.7 1.5 2.6-.1.9-1.4.2-2.1.6-.6.3-.9-.1-1.1-.6-.2-.8-.8-1-1.4-1-1.4 0-2.8.1-3.6 1.6-.2.4-.5.6-.9.5-1.5-.3-1.8 1.1-2.4 1.9-.3.4-.4 1.1 0 1.7.3.5.9-.1 1.4 0zm-61.7-93.1c-.4-.2-.3-.5-.4-.8-.1-.7.3-1.8-.4-2-.9-.2-1.4-1.6-2.7-1-.4.2-.6-.3-.8-.7-1-2-3.2-2.9-5.3-2.1-.7.2-1 .9-1.4 1.4 1.2.2 1 1.7 1.7 2.2 1.7 1.1 2.5 3 4.2 4.1 1.7 1.1 2.7 3 4.7 4s3.3 3.3 5.6 4.1c.6.2 1.1.8 1.6 1.2.8.7 1.7 1.5 2.9 1.6 1.2.2 2-.5 2.3-1.5.2-.8-.1-1.7-1.3-1.7-.3 0-.6-.2-.7-.5-.3-1.1-.5-2.2-1.9-2.4-.3-.1-.1-.6-.1-.8-.2-1-.3-2.6-.9-3-1.4-.7-2.2-2.1-3.5-2.8-.5-.3-1.2.1-1.4-.5-.2-.6-.4-1.4-1.2-1.1-.8.3-.6 1.1-.6 1.8-.1.2-.2.3-.4.5zm72.1 126.8c.3.6-.2 1.1 0 1.3 1.3 1.1.5 2.3.3 3.5-.1.7-.1 1.5.4 1.9.5.5 1.3.4 2 0 .6-.4.9-.9.7-1.7-.1-.5-.1-1 .5-1.2 1.2-.3.4-.8.3-1.3-.3-1-2.1-2.1 0-3.1.5-.2 1.3-.5 1-1.2-.2-.5-1.1-.5-1.6-.4-2.3.6-4.7 0-6.5-.9-2.2-1.1-4.3-1.3-6.5-1.6-2-.4-4-.6-6-.8-1.3-.1-3 1.1-2.5 1.5 1.2 1.2-1.1 2.3.1 3.4-.5.4-.5 1-.7 1.6-.2.6-.2 1.3.4 1.7.9.5 1.8.5 2.8.1.7-.3 1.1-1 .8-1.6-.8-1.9.6-1.8 1.7-1.9.9-.1 1.9-.1 2.9.2 3.1.9 6.5 1.2 9.9.5zm-106.6-111c.8.1 1.5.3 2.2.4 2.4.2 4.9-.1 7.1 1.3.9.5 1.6.9.7 1.9-.4.5-.2.8.1 1.2 1.2 1.9 2.4 3.9 3.6 5.7.4.6 1.1 1.5 1.9.9.9-.7 1-.2 1.3.5.4.8 1.1 1.5 1.1 2.6 0 .5.5 1 1 1.1.5.2.9.4 1.1.9.4 1.6 1.8 2.7 1.9 4.3.1 1.1 1.3 1 1.6 1.9 0 .1.8.3.8-.6-.1-1.4-.3-2.9-1-4-.4-.6.1-1.6-.8-1.9-.9-.4-.9-1.2-1.3-2.1.7 0 1.3.2 1.8-.2.4-.3.7-.5.2-1-2-2-3.2-4.7-6-5.8-.4-.2-.7-.5-1-.8-.3-.2-.4-.6-.1-.8 1-.8-.1-1-.4-1.5-.6-.9-2.1-.7-2.6-1.5-.8-1.3-2-1.8-3.4-2-.6-.1-1-.2-1.5-.7-1-1.1-2.5-1.6-3.9-1.4-1.3.1-3.2-1-3.8 1.3 0-.1-.5-.3-.6.3zm68.9 84.2c0-.8.1-1.5 0-2.1-.1-.6.2-1.9-1.3-1-.5.3-1.5-.2-1.6-1.2-.1-1.5-.2-3.1.1-4.6h-.4c-.6.3-1 1.3-1.7.8-.6-.4 0-1.3.2-1.9.1-.5.3-1-.4-1.2-.6-.1-.5.5-.7.8-1.1 1.3-1.1 2.9-1.3 4.4-.4 2.4-.2 4.7-.4 7.1-.2 2.2 0 4.4-.6 6.5 2.3.8 1.5-1.9 2.7-2.4-.3.6 0 1.2.1 1.7.1.4-.3 1 .4 1.3 1.7.7 3.9-.5 4.2-2.3.1-.5.1-1 .1-1.6-.1-1.3.1-2.5 1.2-3.7 0 1.4.5 2.5.1 3.7-.2.6 0 1.2.5 1.4.8.3.4-.5.6-.8.6-.6.4-2 1.8-2.1-1.4-.3-1.2-1.5-1.5-2.4-.6-1.4-1.1-1.3-2.1-.4zm-89.5 55c-.7-.4-1.6-.3-1.6-1.4 0-1 .7-1.3 1.4-1.7.5-.3.9-.5.6-1.1-.8-1.2.2-1.8.9-2.4.3-.3 1-.4.7-1-.3-.6-.8-.4-1.3-.3-1.7.4-3.3 1.2-5.3.9-1-.1-2.6.4-2.4 2.6.1 1.3-.1 3.1-1.2 4.3-.6.6-.8 1.2-.8 2-.1 1-.3 2.1-1 2.8-1.3 1.4-.8 2.9-.4 4.4.3 1 2.2 1.8 2.3 1.3.2-1.5 1.8-2.3 1.9-3.9.1-1.4.5-2.8.8-4.2.1-.3.3-.7.7-.5.2.1.4.5.2.6-1.2.7-.2 1.6-.3 2.4-.2 2.1 1.3-.2 1.8.6.2.3.6.4.9.6 1.2.6 2.3 1.2 3.9.9-1.1-1.1-2.8-.6-3.7-1.7.6-.4 1.2-.8 2-1.3-.5-.1-.7-.2-.9-.2-.6.1-1.2.2-1.4-.4-.3-.6.1-1.1.5-1.6.2-.5.9-1 1.7-1.7zM340.4 307c1.9-.1 3.7-.6 5.4-1.4 1.1-.5 1.4-2 1.4-3 0-.7-1.4-.8-2.2-1-2.2-.5-4.4-.6-6.6-1.6-1.4-.7-3.1-.7-4.7-.8-.8-.1-1.4.2-.7 1.2.3.5 1 1 .8 1.8-.3 1.5 1.7 4.4 3.2 4.4 1.2 0 2.2.4 3.4.4zm19.9 36.7c-2.4-.1-4.4-.3-6.5-.3-1 0-1.2-1.2-2.3-.9-3.1.8-6.1-.1-9.2-.1-.6 0-1.5 0-1.1-1.1.1-.4-.2-.5-.5-.6-2-.3-4-.7-6-.7-1.2 0-2.9-1.1-3.8.9-.1.2-.4.2-.5 0-.5-.6-1.2-.7-1.3.1-.1.6.4 1.6 1.2 1.4 1-.2 1.8.3 2.7.4 2 .1 4 .5 6.1.4 3.4-.1 6.8.8 10.3 1.1 2.9.2 5.7 1.1 8.6 1.2 2.1.1 4.3.3 6.4 0 .4-.1.9-.1 1-.6.1-.5-.5-.4-.7-.7-.5-.6-1.4-.3-1.9-.8-.9-.9-2.9-1.1-4.1-.4.3.6 1 .2 1.6.7zm-36.7 39c1.8.1 1.6 1.4 1.8 2.4.4 2 .9 4 1.9 5.8.2.4.9 1 1 .5.1-.8 1.3-1.1.8-2.4-.4-.9-.5-2.4-.4-3.6.2-2.6.8-5.2 1-7.8.1-2.2.9-4.4.6-6.7 0-.4.3-1-.3-1.1-.6-.2-1 .4-1.1.9-.2.7-.3 1.4-.9 1.9-.5.5-.6 1.1-.8 1.8-.3 1.2 0 2.6-1.4 3.5-.6.4-1.6 1.4-1.1 2.6.3 1.2 0 1.7-1.1 2.2zm-10.4-121.3c-.3 2.3 1.2 4.2.9 6.4 0 .4.4.9.7 1.2 1.2 1.4 3.2 2.2 3.7 4.3.2.7.9.6 1.2-.1.4-.8.3-1.7-.3-2.3-.3-.3-.8-.6-.6-1 .6-1.1-.3-1.6-.9-2.1-.4-.4-.7-.8-.5-1.2.8-2-2.4-2.8-1.4-4.8-1.2-.6-1.1-1.9-1.5-2.9-.2-.6-.6-1.2-1.1-1.5-1.1-.6-2-1.3-2.4-2.5-.2-.4-.4-.9-1-.7-.6.2-.3.7-.3 1.1.2 1.7 1.2 3.1 1.3 4.8-.1 1.3.4 2.3 2.2 1.3zm9.3 39.8c.7.2 1.2.7 1.6.6 1.8-.4 1.6 1 1.8 1.9.1.4-.3.9.3 1 .4.1.8-.2 1.2-.4 1-.7.8-2 1.6-2.9.3-.4.4-.7-.2-.8-.4-.1-.9-.1-1 .5-.1.4-.1.7-.2 1.1-.1.3-.4.4-.7.2-.3-.1-.4-.5-.2-.7 1-.5.5-1.6 1.1-2.4.8-1-.2-3.2-1.3-3.8-.8-.4-1.5-.9-1.9-1.8-.5-1.1-1.5-.4-2.2-.4-.6 0-.7.3-.8 1-.5 2.1 1.1 3.4 1.8 5 .1.2.1.3.1.4-.3.3-.9-.3-1.2.4.1.3 1.9.1.2 1.1zm14.1 72.1c.6.1 1 .3 1.3.5.9.7 2 .5 2.9.1.8-.3.2-1.3.4-1.6.8-1.1-.1-2.7 1.1-3.7.3-.2.2-.5.2-.8-.3-1-.1-2.1-.2-3.2-.1-.8.9-.6.7-.9-.3-.5-.9-.9-1.4-1.1-.5-.2-1.4-.2-1.6.4-.4 1.4-1.5 2.3-2 3.5-.5 1.5-1.4 3.2-.6 4.6.8 1.3.4 1.7-.8 2.2zm-79.4-143.9c.1-.2.1-.3.2-.4.7-.3 1.5-.6 1.2-1.6-.2-.7-1-1.1-1.7-.8-.8.2-1.5.6-1 1.7.3.7-.4.8-.8.7-1-.2-2-.1-2.9.5-.3.2-1.1-.1-.9.9.2 1 .7.6 1.3.6 1.4.2 3.1-.9 4.2.9.2.3.7.1 1 0 .6-.3 1.3-.6 2-.9-.1 1.8 1.6 3.1 3.3 2.6.8-.2 3 .7 3.2 1.4.4 2.1 2.2 2.3 3.7 3 .3.1.6.2.8-.2.2-.5-.1-.6-.4-.9-.6-.5-1.4-.7-1.9-1.4-1.1-1.8-2.9-2.7-4.6-3.7-.9-.6-1.9-1.7-3-1.4-1.9.6-2.6-.5-3.7-1zm117.7 86.4c-.4-.3-.9-.5-1-.9-1.2-2.2-3.1-3.8-4.3-5.9-.5-.8-.8-1.8-1.6-2.6s-2-1.5-2.4-2.6c-.6-2-2.3-3.1-3.2-4.9-.1-.3-.5-.4-.9-.2-.2.1-.4.4-.3.5.5.6.5 1.6 1 2.1 1.9 2 3.2 4.2 4.1 6.8 1.1 3.3 3.2 6.1 6.3 8 .6.4 1.4.4 2.3-.3zm-49.5-31.1c-.2-.5-.7-.2-.7-.3-.9-1.9-3.1-2.5-4.2-4.2-.3-.5-.9-.8-1.5-.6-.7.2-.6.9-.5 1.3.2.7 0 1.2-.2 1.8-.3.9-.6 2.4.1 2.7 2 .7 2.8 2.9 4.8 3.5.6.1 1.2.7 1.6.2.4-.5.7-1.4.2-2-.8-1.1-.4-1.8.4-2.4zm19.7 201.6c.1-1 .2-2.3-.4-3.5-.2-.3.3-1-.5-.9-.5 0-.5.5-.7.9-.7 1.6.6 3 .3 4.6-.3 1.6.3 3.3-1.4 4.6-.5.4-1.5 1.3-1.2 2.2.2.8.4 1.4-.1 2.1-.3.4 0 .8.4 1.1.5.3.8.1 1-.4.2-.5.4-.9 1.1-1 2-.2 3.8-3.4 2.6-4.9-1.1-1.4-1-2.9-1.1-4.8zM275.7 290c2.7-.1 3.3-1.4 3.4-3.2 0-1.1-1.4-2.4.2-3.4 0 0 0-.2-.1-.2-.8-.2-.8-1-1.1-1.6-.3-.7-1-.3-1 .2-.2 1.4-1 2-2.3 2.2-.3 0-.3.4-.4.6-1.1 1.5-2.1 3 0 4.4.1.1.1.3.2.4.2.6.6.6 1.1.6zm11.1-83.9c-1-.5-1.8-.2-2.5-.1-1.5.4-3.1.4-4.3-.6-1-.7-1.9-.8-3-.8-.4 0-.9.1-1.3 0-3-1-6-2.1-9-3.1-1.5-.5-3-.9-4.8-.9 1 1 7.7 3.7 8.7 3.8 2.6.1 4.9 1.4 7.4 2 2.9.9 5.8 1.2 8.8-.3zm5.6 246.8c.8-.8 2.5-.8 3-2.2.6-1.5 1.4-2.5 3.1-2.8.6-.1 1-.4.6-1.1-.5-.9.3-2.4-1.3-2.7-.6-.1-1 .4-.9.9.2 1.5-.8 1.7-1.9 1.9-.5.1-.9.4-1.2.7-.3.3-.5 1-1.1.8-.6-.2-.3-.8-.4-1.3-.1-.4-.2-.9-.8-.7-.5.2-.9.6-.6 1.1.8 1.5.8 3 .5 4.6 0 .6.4.8 1 .8zm8.1-17.7c.1.1.1.3.2.4.7-.3 1.3-.5 2-.8.9-.3-.6-1.7.8-1.9l-1-4.4c-.1-.3 0-.5.1-.8.9-1.6-.1-2.9-.7-4.3-.2-.4-.5-.5-.9-.1-.3.3-.7.5-1.1.6-.7.2-1.3.7-1.2 1.3.3 1.1-.2 2.5.8 3.5.1.1.2.1.3.1 2-1 1 .7 1 1.2 0 1-.1 2 .4 2.8.5 1.1.2 1.8-.7 2.4zM220.4 632c.6 2.1 2.7 2.8 3.8 4.6 1.1 1.9 4 2.5 6.5 2.4.4 0 .9-.2 1.2-.4.4-.3.7-.7 0-1.1-1.6-1-3.2-2.1-5.1-2.8-1-.3-2-.9-3-1.3-1.1-.5-1.8-2.1-3.4-1.4zM350 371.5c-.5-.7-1.4.1-1.4-.8 0-1 .1-1.9.4-2.8.2-.5 1.5.1 1.3-1.1-.2-1-1-.6-1.6-.8-.2-.1-.3-.3-.4-.5-.7-.8-1.3-.7-1.6.3-.9 2.4-1.4 5-1.7 7.5 0 .4.2.8.5.9.5.2 2.9-1 2.8-1.4-.2-1.3.8-1.2 1.7-1.3zm-62 33.4c.5.6.1 1.9 1.3 1.7.9-.2.6-1.1.8-1.8.2-1.2-.4-2.5.1-3.7.2-.4.3-1.5-.4-1.7-.9-.4-1.1-1-1.3-1.8-.2-.7-.8-.9-1.4-.3-.7.8.2 2.1-.7 2.9 1.5 1.4.5 3 .5 4.5 0 .4-.7.9-.1 1.3.5.2.6-.8 1.2-1.1zM303.1 276c-.5.1-1.2-.2-1.5.3-.4.6 0 1.1.4 1.6.3.4.5.8.8 1.1.8 1.2 2.4 1.9 2.7 3.4.2.9.4 1.5 1.3 1.2.7-.3 1.7-.7.9-2-.7-1.1-.2-2.9-1.9-3.5-.1 0-.1-.3-.1-.4-.3-1.4-1.3-1.7-2.6-1.7zm32.3 90.2c-.1-.7.5-1.6-.5-1.9-1.1-.3-1.8.6-2 1.5-.4 1.8-.6 3.7-.8 5.6-.1.7-.1 1.4.2 2 .1.3.2.8.6.8.5 0 .8-.3.9-.7.4-2.6 1.9-4.7 1.6-7.3zm11 19.8v-.8c0-.8.1-1.9-1-2-1-.1-1.4.8-1.5 1.7 0 .4 0 .7-.1 1.1-.3 1.9.7 3.9-.5 5.7-.2.4-.3 1.6.5 2 .9.4 1-.6 1.5-1 1-.8-.1-1.8.4-2.5.8-1.3.6-2.8.7-4.2zm-8.3-92.2c-.1-.6-.6-.8-1-.9-1.6-.5-2.9-1.3-4.2-2.3-1.1-.9-2.4-1.5-3.7-2.1-.4-.2-1-.3-1.3.3-.2.5-.1.9.3 1.4 1.4 1.9 3.7 2.1 5.4 3.4.3.2.8.3 1.2.3.7 0 1.4-.1 2.1.5.5.4 1 0 1.2-.6zm94.1 58.3c-1.3 0-3 1.1-3.1 2.3 0 1.1 1.1 1.6 1.9 2.1 1.5.8 3.3.5 3.8-.5.7-1.4-.9-3.8-2.6-3.9zM368 294.2c1.2.6 2.2 1 3.1 1.7 1.2.9 1.7.3 1.8-.8.1-1.6.5-3.3-1-4.6-.5-.4-.2-1.5-1.3-1.3-1 .2-.5 1.2-.9 1.7-.8 1 0 2.7-1.7 3.3zm-79.6-38.9c-1.6.2-2.6-.4-3.6-1.3-.7-.7 0-1.4-.5-2.1-1.2-1.7-2.7-3.1-3.7-4.9-.4-.8-1.5-1.1-2.1-.5-.6.6.4 1.1.9 1.5 1.6 1.5 2.2 2.6 2.3 4.7 0 .3.3.4.6.5.5.1 1.1.2 1.3.6.5 1.2 1.9 1.5 2.3 2.8.3.9 1 .9 1.7.1.1-.4.3-.8.8-1.4zm24.5 90.3c1-.3 1.9.3 2 .9.4 1.6 1.7 1.4 2.6 1.5 1 .2 2.1.2 3.1.5.6.2 1.7.5 1.8-.3.1-.8-1-.5-1.5-.6h-.3c-.4-.1-.8-.3-.8-.7 0-.5.5-.5.9-.5.5 0 1 .2 1.3-.5-3-1.1-6-1.7-9.1-.3zm-105.1 28.6c-.6.2-1.4 0-2.1.4-.6.3-1.3.6-1.1 1.4.5 1.5-1.2 2.9-.2 4.4.2.2-1.1.7.1 1 .8.2 1.4.1 1.8-.7.3-.7.6-1.5.5-2.1-.3-1.4.7-1.9 1.5-2.5.6-.4 1.5-.5 1.2-1.4-.1-.8-1-.4-1.7-.5zm158.1-86.4c.1.3.1.5.2.8.3.6 0 1.6 1.3 1.6 1.4 0 1.4-1.2 1.8-1.9.3-.6-.2-1.4-1.1-1.6-.6-.1-.9-.6-1-1.1-.6-1.9-.9-2-2.9-1.4.4.6.9 1.3.7 2-.2.9-1.4 0-1.8.7.1.6.9.2 1 .7.1 2.9 1 .3 1.8.2zm1.8 344.8c.7-1.8.6-1.8-1.2-2.6-2.3-1-4.1.7-6.2 1 1.2-.1 1.2.8 1.4 1.5.1.5-.4 1.2.4 1.3.7.1 1.4.2 2-.5.9-1 2.2-1.4 3.6-.7zM246.4 497.5c1.4.7.8 2 .7 3-.1.6-.8 1.3-.3 1.9.5.5 1.3.1 2.3.1-1.2-.9-1.7-1.7-.4-2.4.5-.3.3-.6.3-.9-.2-1.3.2-2.3 1.7-2.7-1-.2-.8-1-1.1-1.5-.3-.7-1.4-.1-2-.6-.1-.1-.1-.2-.2-.3-.2-1-1.5-.9-1.8-1.8-.1-.2-.4-.3-.5-.1-.1.1-.2.5-.2.6.5.8.9 1.8 1.7 2.3.6.4 1 .7 1.1 1.4.1 1-1 .4-1.3 1zM288 204.2c2.1.9 3.4-.3 4.8-.7 2.9-1 5.3-2.9 8.3-3.8.9-.3 1.8-.5 2.8-1.3-6.2-.2-10.4 3.9-15.9 5.8zm24.9 398.5c-1-.5-1.9.2-2.9.4-1.2.4-1.1 1.5-1 2.4 0 .7.8 1 1.4.7 1.7-.8 3.6-.8 5.2-2 .2-.2.7-.2.5-.6-.1-.3-.3-.6-.6-.7-.8 0-1.6-.4-2.6-.2zM416 350.1c-1.8-1.5-3.9-1.3-5.8-1.4-.3 0-.7 0-.7.4s.2.9.5.9c1.6.2 1.3 1.2 1 2.3-.1.6.3.9.6 1.2.4.4 1 .5 1.5.2.7-.4.2-.7-.1-1.1-.5-.6 0-.9.4-1.1.9-.2 1.5-.9 2.6-1.4zm-236.4 25.5c.2 0 .5 0 .7-.1 1.2-.7 2-1.8 3.4-2.1.3-.1.4-.6.4-1-.1-.5-.6-.3-.9-.4-.7-.2-1.5.2-2.1-.1-1.1-.6-2.4-.5-3 .5-.7 1.1.5 1.8.5 2.8-.1.4.5.4 1 .4zm144.7 237.2c.6.2 1 .3 1.4.4 2.5.8 4 .2 5.2-2.1.1-.3.5-.4.7-.6.2-.2.8-.2.6-.7-.2-.4-.6-.4-1-.4-.7.1-1.4.1-1.8.8-.2.4-.5.7-1 .7-1.6-.2-2.7 1-4.1 1.9zm-53.2-300.5c2.1.5 2.1.5 2-1.3 0-.5.3-.7.7-.9 1.4-.6 1.2-1.9 1.3-3.1 0-.5-.3-.7-.8-.7-1.2.2-3.5 2-3.8 3.2-.1.4 0 .7.4.7.6 0 1.2 0 1.3.8.2.9-.9.5-1.1 1.3zm26.2-56.4c.2-.6.3-1.2-.4-1.7-.7-.4-1.1.4-1.8.5-1 .1 0-1.3-.9-1.2-.6.1-1.3-.2-1.8.4-.5.7.1 1.1.5 1.5.2.3 0 .5.1.7.1.8.5 1.4 1.1 1.8.5.3 1.6 1.1 1.3-.6-.1-.4.2-.7.6-.4 1.7 1.4 1.5.3 1.3-1zm83.4 46c-.3-.7-.5-1.4-.8-2-.2-.5-.6-.9-1.2-.8-.5.1-.8.4-1.1 1-.7 1.5.1 2.9.2 4.3 0 .6.8 1 1.5 1.1.4 0 .9-.2.9-.5-.3-1.2-.6-2.3.5-3.1zm-38.8 184.6c-1.1.3 0 1.8-1.2 2-1.8.4-1.9 2.6-3.5 3.2-.2.1-.3.6-.1.9.2.3.6.3.8 0 .5-.9 1.3-.7 2.1-.8 1.9-.2 2.9-1.5 2.4-3.2-.1-.7-.2-1.5-.5-2.1zM219.1 239.8c-.4 0-.9-.1-1.1.4-.8 1.7-2.3 3.1-2.5 5 0 .3-.3.6 0 .8.3.2.6.2.9.1.5-.2.9-.5 1.1-1.1.5-1.4 1.1-2.7 2.3-3.6.4-.3.8-.6.7-1.2-.2-.8-1-.1-1.4-.4zm-20.5 353.7c0 1.1 2 3.9 3.1 4.2.5.1.9.1 1.3-.3.5-.4 0-.8-.1-1.1-.6-1-1.2-2-2-3-.4-.5-.7-1.3-1.6-1-.5.2-.7.7-.7 1.2zm83.6-303c-.8.4-1.6.7-1.5 1.9.1.7.5 1.4-.3 2-.5.4.4.8 0 1.4-.3.5.7.8 1 .5.8-.6 2-1.1 1.6-2.6-.1-.6-.3-1.2.1-1.9.7-1-.2-1-.9-1.3zm22.1-21c0 .2-.1.4 0 .5.4.5-.1 1.8 1.1 1.6 1-.1.8-1.1.8-1.7 0-1.7.2-3.4-.2-5-.1-.5-.4-.6-.8-.6-.2 0-.5-.1-.6.3-.2 1.6-.4 3.2-.3 4.9zm-91.8 283.1c-1.1-.4-2.1-1.7-2.9.7-.6 1.7-1.7 3.3-1.8 5.3 0 .4-.2.8.2 1 .4.1.7-.2.8-.5.6-1.7 1.5-3.2 2-4.9.5-1.1.8-1.5 1.7-1.6zm44.8-290.2c-1.3-.9-.8-2.1-.8-3.3 0-.6-.2-1.6-1-1.3-.8.2-2.3.4-1.9 1.5.3.9.6 2 1.2 2.8.7 1 1.4 1.4 2.5.3zm-47.7 343.7c1.3.5 2.3.6 2.7-1 .1-.5.3-.8 1-.3.3.3 1.1.3 1.4-.3.2-.3.4-.8.2-1-.7-1-1.9-.8-2.9-.9-.9-.1-1.4.4-1.5 1-.1.9-.7 1.6-.9 2.5zm4-352.1c-.2 2.8-2.7 5.1-.1 7.5 1.6-1.6 1.7-4.5.1-7.5zm79.1 102.9c-1 .2-1 .2-2 2.5-.2.5-.9 1.1 0 1.6.8.5 1.7 1.4 2.7.4.6-.5 1.1-1.2 1.5-1.8-2.1-.6-3.4-1-2.2-2.7zm4.5 55.4c1-1.2 1.3-2 1.1-3.4-.2-1.3 0-2.6-.6-3.9-.2-.5-.3-1-.9-.8-.6.2-.7.8-.1 1.2.2.2.1.4 0 .6-.7 2.1.1 4 .5 6.3zM245.8 396c0 .3-.1.7.1 1 .2.6.3 1.4 1.1 1.4.8.1.9-.7 1.2-1.3.5-1.4-.5-2.6-.1-4 .1-.5-1-.6-1-.3-.2 1.2-1.5 1.8-1.3 3.2zm106.4 229.3c-.2-.4.2-1-.4-1.3-1.7-.8-3.2-2-5.2-2.1-.3 0-.6 0-.7.3-.2.5.3.6.5.6 1.4.2 2 1.3 2.9 2.1.6.5 1.1 1.1 1.9 1.2.7.1 1.2.1 1-.8zm-142.5-355s-.1 0 0 0c-.1.3-.1.6-.1 1 0 .5 0 1.1.6 1.4.7.3.9-.3 1.3-.6 1-.7.7-1.9 1-2.9.1-.3-.9-1.3-1.5-1.3-.7 0-1.5.4-1.4 1.4 0 .3 0 .7.1 1zm-13.2 324.8c-1.1-.2-1.7-.5-1.7-1.7 0-.7-.8-1.4-1.6-1.9-.7-.5-1.4-.1-1.8.4-.6.7.1 1.2.6 1.3 1.1.4 1.2 1.8 2.3 2.3-.6.1-.9.2-1.2.2 1.1 0 2.3.7 3.4-.6zM313.9 618c-.4.2-1.3.2-1.6.6-.6 1-1.6 1.2-2.6 1.5-.5.1-1.1.3-.8.9.2.6.8.3 1.3.2 1.5-.5 2.9-.9 4.4-1.4.4-.1 1.1 0 1-.7-.3-.7-.7-1.2-1.7-1.1zM436 353.4c-.4.7-.3 1.3.6 1.3 1.4 0 3.6-1.1 3.5-1.8-.3-1.8-1.8-1.1-2.8-1.3-1.3-.2-1.9.6-1.3 1.8zm-8.9.9c1 0 2.4-1.3 2.1-2.3-.2-.8-1.4-1-2.2-1-.7 0-1.7-.1-2 .9-.1.6 1.6 2.4 2.1 2.4zM229.8 375s-.1-.1-.2-.1c-.9-.4-1.1-1.1-1.1-2.1 0-.5-.5-.5-.9-.5-.5-.1-.6.2-.8.6-.4 1 0 2.1-.9 2.9-.2.2 0 .5.3.6.5.2 1.1.6 1.7.2.7-.3 1.3-1 1.9-1.6zm109.9 122.6c-.4-.5-.9-.7-1.4-.2-.6.5-.9 1.2-1.7 1.7-.4.2-.3.7 0 1 .5.6.9 1.1.7 2-.1.6.4 1 1 1.1.8 0 .6-.7.8-1.2.1-.2-.1-.5-.2-.7-.3-1-1-2 .5-2.7.1-.3.2-.7.3-1zM239.2 521c-1.6 1.1-1.6-.5-2.3-.7-.5.5-.3 1.3-.9 1.5-1.3.5.3 1.6-.5 2.2.4.5 1 .8 1.5.5.6-.3 1.7-.3 1.3-1.6-.2-.4.3-.9.9-1.9zm91.5 24.2c.3-.4 1-.8 1-1.3 0-.8.7-1.7.1-2.4-.6-.6-1 0-1.3.6-.2.4-.7 0-1 .2-.6.4-1.7.8-1.2 1.7.4.6 1.5.8 2.4 1.2zm6-70.9c0-.6 0-1.3-.4-1.9-.2-.4-.5-.5-.9-.4-.4.1-.5.4-.4.7.2.9-.4.9-1 .9-.4 0-.7.2-.8.6-.1.4.3.5.5.7.3.2.6.4.9.7.5.6 1.1.5 1.7.2.5-.2.7-.7.4-1.5zm5.6 43.7c2-.5 1.9-2.2 2.7-3.3.3-.4.8-1.1.2-1.6-.6-.5-1.3-.1-1.9.3-.5.4-.6.8-.7 1.4-.1 1 .2 2.1-.3 3.2zm-7.2-39.3c-.8-.7-3.3-1.7-4.1-1.6-.5.1-1.2.3-1.2.7 0 .6-.3 1.4.3 1.9.5.4 1 .1 1.3-.4.4-.5 1-.3 1.5-.2.7.1 1.4.3 2.2-.4zm-3 59.2c.4.5.9.9 1.3 1.5.2.4.7 1 1.3.7.7-.3 1.1-1 1.2-1.8.1-.7-.3-1.4-.9-1.8-.6-.4-1.3-.2-1.6.4-.4.6-1 .5-1.3 1zm-56.6-135c-.2.1-.5 0-.8.6-.4.8.1 1.1.1 1.6 0 .6-.2 1.1-.5 1.6.5.2 1 .5 1.5.5s.4-.6.5-.9c.3-.7.3-1.5.5-2.3.2-.9-.1-1.4-1.3-1.1zm51-55.4c.9 1.1.8 2.3.9 3.4 0 .4-.5 1 .3 1.1.8.1.6-.6.8-1.1.2-.6 0-1.3.5-1.8.2-.2.3-1 .1-1.5-.2-.7-.8-.6-1.1-.4-.6.3-1 .1-1.5.3zm-35.1-43.8c-.7-.3-1.5-.1-1.7-1.1-.1-.4-.7-.5-.9-.2-.5.6-1 1.3-1.1 2-.1.5 0 1.5 1.1 1.2.6-.2 1.1.1 1.9.1-1-1-.6-1.7.7-2zm-37.2 222.7c.1-.4 0-.5-.2-.6-.8-.3-4 .9-4.5 1.7-.2.3-.6.6-.2 1 .3.4.7.4 1.2.2 1-.4 1.9-1.4 3.1-1.4.2-.1.5-.7.6-.9zm72.3 17.5c.1-.3-.3-.4-.4-.6-.5-.5-1.2-.6-1.6-.3-.8.5-1.4 1.3-2 2-.2.3.2.4.4.4.4 0 .8.1 1.2.3.7.3 2.4-1 2.4-1.8zm-61.2-229.2c-.5-.4.2-1.7-1.1-1.6-1.1.1-1 1-1 1.7 0 .4.1.7-.2 1.1-.7.8.2 1.3.6 1.6.6.4.7-.4.9-.7.6-.6.5-1.3.8-2.1zm45.1-116.5c1.1-.5 2.1-.6 3.1-.4.8.2 1.5-.2 2.1-.5.3-.1.5-.3.4-.6-.1-.3-.3-.4-.6-.4-1.5 0-3-.2-4.4.4-.7.3-.8.7-.6 1.5zm-61 320.5c.7-.2.8-1.1 1.5-1.3.1 0 .9-1 .2-1.6-.7-.6-.9.4-1.2.6-.7.6-1.2 1.4-2.3.5-.2-.1-1 .1-1 .6s.2 1 .8 1c.6-.1 1.3-.2 2 .2zm49.3-261.6c0 .8.1 1.3.1 1.8 0 .4.1.6.5.6s.6-.2.6-.6c.2-1.2.3-2.3.4-3.5.1-.5-.1-.9-.5-1.3-.3-.2-.6-.3-.9-.1-.2.1-.4.3-.3.5.7 1.1.3 2 .1 2.6zm-81.6 354.2c0-1-1-2.1-1.9-2-.5 0-.9.2-.9.7-.1 1.5.5 2.4 1.7 2.4.6 0 1.3-.1 1.1-1.1zm77.5-266.7c-.6-1.8-1.7-2.6-3.3-2.6-.4 0-.8-.1-.9.4-.1.4.2.6.3.8.8 1.7 2.5 1.1 3.9 1.4zm45.8 118.8c.8.2.9-.2.7-.7-.3-.7-.7-1.4-1-2.1-.2-.4-.4-.8-.9-.7-.4.1-.7.5-.8.9-.5 1.6.2 2.4 2 2.6zm-20.3-170.8c.2-.4 0-.5-.2-.6-.3-.1-.6-.2-.9.1-.8.7-1.6 1.4-1.8 2.5-.1.4-.7.8.1 1.2.6.3 1.4.3 1.7-.4.2-1 .4-2.1 1.1-2.8zm-82 136.3c.6-.8-.1-1.1-.6-1.3-.3-.2-.7 0-.7.4-.1 1.1-.4 2.3-.1 3.4.1.5.4.8.9.7.4-.1.5-.4.5-.8.2-.9.3-1.6 0-2.4zm91 43c0-.2.4-.8-.5-.8-1.2 0-1.6.9-1.7 1.9 0 .8.1 1.8 1.2 1.7 1.9-.2.8-1.6 1-2.8zm-89.2-226.6c.8.1 2-.7 3.2-.8.2 0 .3-.2.3-.4-.1-.7-1.3-1.5-2-1.1-.8.4-1.4 1.1-2.3 1.3-.3.1-.5.4-.4.8.2.3.5.2 1.2.2zm74.4 363.8c-.5 0-.7-.1-.9 0-.6.2-1.6.4-1.5 1.2 0 .7.9.4 1.5.5.5.1.9.2 1.4.2.5 0 1.3.4 1.5-.4.2-.8-.6-1-1.1-1.3-.4-.2-.8-.2-.9-.2zm-60.9-240.2c-.1-1-.9-1.1-1.4-1-.8.1-2.1-.1-2.2 1-.1.9.9 1.4 1.8 1.5.7 0 1.4-.7 1.8-1.5zm78.4 165.6c-.1.4-.1.8.3 1 .5.3.8-.1 1.1-.4.9-.6.1-1.6.5-2.4.4-.7-.1-1.2-.9-1.4-.8-.1-1 .5-1.1 1.1.1.8.5 1.4.1 2.1zm-3.6-2.7c-.4-.7-.2-2-1.6-2.2-.4 0-.9 0-.9.6-.1 1.2.9 2.9 1.7 2.9.6 0 .8-.5.8-1.3zm-35.6-129.1c.1.6-.4 1.5.6 1.4.8-.1 1.4-.7 1.7-1.5-1-.3.4-2.1-1.2-2-1.7.1-.7 1.5-1.1 2.1zm39.2 118.9c1.1-.1 2.2-.1 2.3-1.1.1-.9.4-1.6.8-2.3.2-.3.5-.7.1-1-.2-.2-.6-.1-.9-.1-.5 0-.4.3-.5.7-.4 1.3-.7 2.7-1.8 3.8zM250.7 474c.2.8.3 1.9 1.3 1.9 1.2-.1.6-1.6 1.1-2.4.3-.4-.7-.9-1.2-.8-.7 0-1.3.3-1.2 1.3zm-6.3 61.8c-.7-.4-1.3-.2-1.9-.3-1.3-.2-2.3 1.3-1.9 2.4.1.3.3.5.7.5.3 0 .8-.1.8-.3-.3-1.9 1-2 2.3-2.3zm105.5-201.4c-1.1-.3-1.3-.5-1.9-2.2-.2-.5-.4-.8-.9-.5-.5.2-.7.8-.3 1.2.3.4.6.7.7 1.1.8 1.9.8 1.9 2.4.4zm-116.4 185c.2-.9-.5-1.2-1.1-1.3-.9-.1-1.3.6-1.2 1.3.1.7 0 1.7 1 1.8 1.1 0 1.2-.9 1.3-1.8zm87.7-17.2c.9.2 1.4.9 2.4.8 1.1-.1.8-1.3 1.6-1.6.2-.1-.2-.4-.4-.5-.9-.4-1.9-.6-2.2.5-.4.7-1 .4-1.4.8zm14.4-46.6c-1-.8-2-1.2-3-.4-.2.2-.2 1.6.6 2.2.2.1.4.3.7.3.3 0 .4-.3.3-.6-.3-1 .6-1.1 1.4-1.5zm-3.3 5c1.5.1 1.2 2.4 2.9 2.2-.7-.9.9-1.8-.1-2.7-1-.8-1.8.5-2.8.5zm-102.5 49.1c-.9-.1-1.7.1-1.6-1.1 0-.5-.8-.4-.8-.1-.2 1.2-1.5 2.1-.6 3.8.5-1.6 1.4-2.5 3-2.6zM396 347.4c-.5 0-.9-.1-1.2.4 1.1.2.4 1.8 1.3 1.9.9.1 2.1-.7 2.1-1.4 0-1.3-1.5-.5-2.2-.9zM329.8 522c-.5.4-1.4.3-1.3 1.3.1.7.2 1.3 1.3 1.3 1.1-.1 1.3-.9 1.4-1.6 0-.7-.8-.8-1.4-1zM353 339.9c-.4-1.6-1.1-3-1.4-4.6 0-.3-.4-.3-.7-.1-.2.2-.2.4-.2.7.2 1.3 1.2 2.4.9 3.8-.1.4.6.5 1 .6.3 0 .4-.3.4-.4zm-109.9 109c1.2.9 2.4.7 3.4 1.4 1.8 1.4 1.9 1.3 2.9.6-1.9-1-3.7-2.3-6.3-2zm100.4 61.6c0 .3-.3.8.4.8.6 0 1.1-.3 1.1-1.1 0-.6-.4-1.1-.2-1.7.1-.5-.1-1.1-.6-1-.6.1-1.1.7-.8 1.3.2.6.3 1.1.1 1.7zM224.8 381.9c0-.6 0-1.3-.8-1.3-1.5 0-1.1 1.4-1.5 2.2-.2.4.1.8.5.8.9-.1 1.8-.5 1.8-1.7zm119.1-8.5c0-.2 0-.7-.6-.8-.5-.1-.6.3-.8.6-.4.8 0 1.7-.2 2.6-.1.3.4.6.8.6s.8-.2.7-.7c-.2-.6 0-1.3.1-2.3zm38.9-26.8c-1.2-1.5-2.8-.7-4.1-1.2-.3-.1-.4.2-.3.6.1.3-.1.5.4.7 1.3.4 2.5.2 4-.1zm-111.9-54c.5.1 2.9-2.7 2.7-3.2-.1-.3-.4-.6-.7-.3-.7.9-1.9 1.3-2.4 2.4-.3.6-.3.9.4 1.1zm-15 205.6c-1.3.2-2.1.9-2.9 1.6-.3.2-.9.3-.7.9.1.4.6.4.9.5.5.1 1 .1 1.1-.4.2-1.1 1.1-1.6 1.6-2.6zm-28.4 6.7c-1.2.3-2.5.4-2.1 2.3.1.3-.8.7 0 .9.6.2.8-.2 1.1-.7.5-.8.3-1.8 1-2.5zm115.3-35c-.6-1.1-.6-2.2-.6-3.3 0-.6-.6-.8-.8-.4-.3.6-1.1.4-1.4 1.3 1.7-.6 1.3.6 1.3 1.3 0 1 .5 1.2 1.5 1.1zm-50.9-124.4c.7 1.4 2 1.5 3.3 1.4.7 0 1-.4 1-1.2-1.4-.1-2.8-.2-4.3-.2zM332.5 500c1.1.6 1.1 1.4 1.3 2.1.1.5.2 1 .9.5.7-.6.5-1.5.6-2.3.1-.5-.9-.6-1.6-.5-.2.1-.5.1-1.2.2zm-128.3 70.2c-.9.1-2.2 2.7-1.8 3.5.1.2.3.3.5.2.5-.1 1.9-2.9 1.7-3.4 0-.2-.1-.3-.4-.3zm138.6-28c-.9-2.3-.9-2.3-3.4-1 .6 1.7 2.1.8 3.4 1zm14-190.2c-.3.9-.6 1.6.4 1.6.7 0 1.3-.6 1.2-1.2-.2-.9-.6-2.3-1.5-2.1-1.3.2.2 1.4-.1 1.7zm-70.1-138.8c2.1.4 1.5-.9 1.8-1.7.2-.7.3-1.3-.2-1.9-.1-.1-.5-.1-.6 0-.5.5-.4 1.2-.4 1.9 0 .5.6 1.3-.6 1.7zM250 536.5c-1.1-.6-1.8-1.1-2.8-.6-.2.1-1.1.1-.2.6.2.1.2.7.3 1 0 .4.1.8.6.8s.9-.2.8-.7c0-.7.5-.8 1.3-1.1zm71.9-196.8c-1.5-.4-2.8-.4-3.8-1.4-.5-.5-.8 0-1.1.1-.3.1-.4.5-.4.8.1.5.5.7 1 .7 1.4-.2 2.7.2 4.3-.2zM297 434.2c.5.4-.1 1.6 1.1 1.7.6 0 1-.6.9-1.1-.2-.7 0-1.8-1-2-.6 0-.9.7-1 1.4zm38.9 111.7c-.7.1-1.8-.1-1.8 1 0 .9 1.1.5 1.7.6.6.1 1.6-.3 1.7-.9 0-.9-1-.5-1.6-.7zm-9.2-56.3c.4.2.8.4 1.2.7.6.4 1.3.4 1.4-.3.1-.4.9-1 .1-1.5-.6-.4-1.2-.6-1.6.3-.2.4-.9.2-1.1.8zm17.8-118.8c-.6-.4.5-1.7-.7-1.8-1-.1-.9 1.1-1.1 1.9-.1.6 0 1.2.9 1.2.7-.1.9-.5.9-1.3zm-46 32.4c-1.4-.4-1.3-1.2-1-2.2.1-.3.1-.7-.2-.8-.1-.1-.5 0-.5.1-.2.9-.7 2-.5 2.8.2 1 1.3.3 2.2.1zm-64.9 126.1c.2.4 1.5.4.6 1.3.7 0 0 1.1.7.9.7-.2 1.4-.7 1.4-1.5s-.7-.9-1.2-.9c-.4-.1-.9-.4-1.5.2zm26.2-31c0-.2 0-.3-.1-.4-.8-.8-1.4 0-2 .3-.6.3-1 1-1.3 1.7l.1.1c.7.4 1.1-.1 1.6-.4.7-.4 1.4-.7 1.7-1.3zm44.7 1.9c-.1-.7-.2-1.4-1-1.6-.8-.2-1.5.1-2.1.6-.2.2-.4.4-.3.7.1.3.4.5.8.4.8-.5 1.7-.1 2.6-.1zm-79.1 15.7c0-.6-.1-1.1-.8-1-.8.1-1.3.6-1.2 1.5 0 .6 0 1 .8 1 1 0 1.2-.6 1.2-1.5zm29.8-77.2c-.2-.6-.1-1.4-.7-2-.4-.4-.9-.6-.9.1-.1.8-.5 1.7.2 2.4.3.3.4 1 1 .9.6-.3.1-1 .4-1.4zm74.2 97.2c1.6.1 1.3-1.4 1.7-2.1.3-.5-.4-.5-.7-.4-1.2.1-1.4 1.1-1.7 2-.1.4.3.5.7.5zm-99.7-297.7c1.2 1.1 2.6 1 3.9.9.4 0 .7-.4.6-.8-.1-.4-.4-.4-.8-.4-1.2.1-2.4.2-3.7.3zM296.9 392c.1.6.3 1.2 1.2 1.2.5 0 1 0 .8-.8-.2-.7-.1-1.7-1.1-1.8-.8-.1-.8.7-.9 1.4zm70.2-100.6c-.7.1-1.8 0-1.9.8-.1.6.9 1.1 1.6 1.1.6 0 1.4-.5 1.4-1.2s-.6-.7-1.1-.7zm-47 15.8c1.4-.4 2.8-.7 3.6-2.1-2-.8-2.5 1.2-3.6 2.1zm28 18.2c-.3.3-1.3-.1-1.2.9.1.5 0 1.3.9 1.2 1 0 1-1 1.3-1.6.3-.5-.4-.4-1-.5zM184.3 367c-.7-.2-1.3 0-1.5.8-.1.5.4.8.8.7.9-.2 2.2.1 2.4-1 .1-.7-1-.5-1.7-.5zm63 106.6c-1.4.6-1 1.6-.6 2.6.2.5.7.4 1 0 1.1-1.1 0-1.8-.4-2.6zm94.7 50.2c1.1-.3 1.1-1.3 1.3-2.1.1-.5-.2-.6-.5-.5-1 .2-1.3 1-1.6 1.8 0 .4.3.7.8.8zM234.6 316.3c.9-.1.9-.9 1.3-1.3.3-.3.8-.5.3-.9-.3-.3-.8-.4-1.2-.2-.6.4-1 1-1 1.8 0 .3.3.6.6.6zm79.1-40.3c0 .3-.5 1.1.3.9.7-.2 1.3-1.1 1.7-1.8.2-.5-.4-1.1-1-.8-.5.3-1.3.6-1 1.7zm-17.9-30.2c.6-.2 1.4 0 1.4-.8 0-.7-.1-1.4-.7-1.9-.4-.4-.9-.4-1.3 0-.5.5 0 .7.3 1 .8.4.8.9.3 1.7zm75.5 106.3c-.7.1-1.5 0-1.6.9 0 .6.7.8 1.2.8.6 0 1.4-.2 1.4-1 0-.6-.5-.7-1-.7zm-27.9 148.4c.2-.5 0-1-.5-1-1 .1-1 .9-1 1.7 0 .5-.5 1.3.4 1.3 1.4-.1.9-1.3 1.1-2zM235.9 638.4c.3-1.2.3-2.1-.5-2.6-.4-.2-.9 0-1.1.7-.7 1.9 1.3.8 1.6 1.9zM377 348.9h-4.7c1.6 1 3.4 1 4.7 0zm-31.9 168.7c.1.5-.4 1.5.7 1.4.8-.1.8-.8.8-1.5 0-.5.3-1.2-.6-1.1-.4.1-1.1.4-.9 1.2zM233.2 369.8c-.1-.9-.9-.9-1.3-.8-.9.1-.5 1.1-.9 1.7-.3.5.5.6.7.6.9 0 .9-1 1.5-1.5zm111.4 134.8c.1.4 0 1.2.8 1.1.8 0 .4-.7.4-1.1 0-.4 0-.9.1-1.2.1-.3.3-.6-.2-.7-.3 0-.9-.3-.9.4 0 .5-.1 1-.2 1.5zm-87.9 8.6c-.3-.5-.4-1.3-.9-1-.6.2-1.5.3-1.6 1-.1.5.8.7 1.1 1.2.5-.5 1-.8 1.4-1.2zm83.4-32.9c-.1-.6-1-.8-.7-1.5.2-.4-.1-.8-.5-.8s-.9-.1-1 .5c-.1.4-.3.8.2 1.1.6.3 1.1.8 2 .7zM207.8 270.8c0-.6.2-1.5-.8-1.5-.8 0-.6.7-.6 1.2 0 .6-.1 1.3.7 1.3.7 0 .9-.4.7-1zm83.1 116.1c-.1.7-.1 1.3-.2 1.9-.1.5 0 .8.5 1 .3.1.5.1.7-.2.3-.3.5-.7.3-1.1-.3-.6-.7-1.1-1.3-1.6zm46.5 139.4c1.3 1.1 1.9 1.1 2.7-.1.2-.3.4-.6.2-.9-.3-.4-.7-.3-1-.1-.6.3-1.2.7-1.9 1.1zm-68-229.9c.3.6-.2 1.6.9 1.4.4-.1 1.3.2 1-.7-.2-.5.1-1.6-1.1-1.4-.4 0-1 .1-.8.7zm66.6 64.4c-.2-.5-.7-.6-1.1-.7-1-.1-1 .8-1.2 1.4-.2.5.4.5.8.5.8.1 1.2-.5 1.5-1.2zm-12.1 176.1c0-.6-.1-1.2-.7-1.1-1.1.1-.6 1.4-1.2 2-.2.2.4.5.7.4.7-.2 1.3-.5 1.2-1.3zm12.6-6.8c-.1-1.1-1-.9-1.7-1.1-.4-.1-.9.1-.7.5.3.7.8 1.4 1.7 1.4.6.1.8-.3.7-.8zM233.1 315.7c-.2-.5-.5-.6-.9-.6-1 .1-1.2.9-1.3 1.7-.1.5.5.4.8.5 1.2 0 .7-1.3 1.4-1.6zm99.7 59.2c-.5.1-.9.4-.9 1s.2 1.2.9 1.3c.6.1.9-.2 1-.8 0-.8-.3-1.3-1-1.5zm6.5.2c-.6 0-1.3-.4-1.3.6 0 .8.6.6 1 .7.7.1 1.5-.1 1.6-.7 0-.9-.9-.4-1.3-.6zm-96.6 73.7c-1.1-.8-1.7-1.4-1.6-2.4.1-.4-.2-.7-.7-.7-.3 0-.4.2-.5.5 0 .9 1.3 2.4 2.8 2.6zm60.2-198.7c.5.2.8.7 1.1 1.1.3.3.8.5.9.1.2-.4.2-1.1-.1-1.5-.5-.8-1.2-.1-1.9.3zm31.3 238.2c-.3-.6 0-1.7-1.1-1.9-.4-.1-.7.4-.5.8.2.7 0 1.6 1 1.8.4.1.6-.2.6-.7zm-72-268.2c-.7.1-.8.6-.8 1.1 0 .4-.3 1.2.4 1.2.6 0 1.1-.6 1.2-1.3.1-.5-.3-.8-.8-1zm93 71.2c-.7-.2-1.3.2-1.9 0-.3-.1-.7 0-.8.4-.1.4.2.7.4 1 .2.3.6.3.8.1.6-.5 1.2-.8 1.5-1.5zm-15.3 69.6c.7 1 1.4 1.1 2.2 1.1.5 0 .9-.3.8-.8 0-.5-.5-.5-.9-.5-.6.1-1.2.1-2.1.2zM233.3 515c-.3.2-1.1.7-1 .8.2.6.8 1.1 1.4 1.2.6.1.8-.5.8-1-.1-.5-.4-.9-1.2-1zm-3.3 28.3c-.2.5-.4 1 .2.9 1-.1.9-1.3 1.3-1.9.2-.4-.1-.7-.4-.6-.9.2-1.8.5-1.1 1.6zm12.9-1.8c.1-.7 1.1-1.3.1-2-.5-.4-1.4.2-2.6 1.7 1.3-1.1 1.8-.5 2.5.3zm-5-99.8c.7 1 .7 2.1 1.1 3.1.1.3.2.4.6.4.2 0 .5-.2.4-.4-.7-1.1-.7-2.6-2.1-3.1zm9.5-152.8c0-.3-.1-.5-.6-.6-1-.1-1.3.7-1.5 1.3-.1.4.3.7.7.7.9 0 1.1-.8 1.4-1.4zm53.2 112.2c-.7-.1.4-1.3-.6-1.1-1 .2-.5 1.3-.8 1.9-.2.4.1.4.3.4.8.1 1-.5 1.1-1.2zM250.3 502c1.1 0 1.3-.1 1.4-.5 0-.4.3-1.1-.3-1.3-.9-.4-.2.8-.7.8-.2 0-.3 0-.5.1-.4.1-.8.1-.8.6.1.6.6.3.9.3zM354 296.3c-.9-1.1-1.7-1.1-2.4-.1-.2.4-.2.6.1.8.3.2.7.3.8 0 .1-.9.8-.5 1.5-.7zm-15.8 24.8c-.1.1-.3.2-.5.3.6.7-.3 1.4 0 2.2.1.2.2.4.5.3.5-.2 1-.6.8-1-.3-.6.3-1.5-.8-1.8zm-31-10.7c-.2-.4 0-1.3-.7-1.2-.7.1-.7 1-.8 1.6-.1.4.1.8.5.8.6-.1 1-.5 1-1.2zm26.3 137.1c0 .4-.1 1.1.6 1.1s.6-.6.7-1.1c.1-.5 0-1-.6-1-.9-.1-.5.6-.7 1zm-2.8 157.4c-.6-.1-1 0-1.1.6-.1.6.4.7.8.7.6-.1 1.3-.1 1.3-.9.1-.8-.7-.1-1-.4zm-7.7 11.5c-1.1-.3-2-.6-2.9-.9-.3-.1-.6 0-.7.2-.1.3.1.7.5.7.9.2 1.9.6 3.1 0zm-5.3-.3c-.1-.5-.6-.5-1-.5-.5.1-1.3-.2-1.4.6 0 .5.6.6 1.1.6.6.1 1.1-.1 1.3-.7zm-99-95.6c.1-.4.1-.8-.4-.9-.6-.1-.7.4-.6.8 0 .3.1.6-.1.9-.2.2-.6.4-.1.7.4.2.9.1 1-.4.1-.3.1-.7.2-1.1zM178 369.1c.6-.8 1.3-.6 2-.7.2 0 .5 0 .5-.3 0-.1-.1-.3-.2-.4-.6-.4-1.3-.2-1.9-.1-.7.2-.5.8-.4 1.5zm68.8 110.5c1 0 .7-.8.8-1.3.2-.5-.4-.5-.7-.5-.7 0-.8.6-.9 1.1-.1.6.3.7.8.7zm87.6-15.3c.9.3 1.9.4 2.8.9.2.1.5.1.7-.2.2-.4-.1-.5-.5-.6-1-.4-2-.3-3-.1zm-94.2 51.6c.1-.6-.2-.7-.7-.7-.5 0-1.1.1-1.1.8 0 .6.5.9 1.1.9.7-.1.6-.6.7-1zm97.4-4.2c-.1-.7-.4-1.1-1-1.1-.3 0-.9-.1-.7.5.2.5.2 1.3.8 1.4.5.1.8-.4.9-.8zm-62.5-177.3c-1.2-.6-2.3-.5-3.3-.3-.1 0-.3.2-.3.3 0 .2.2.5.4.4.9-.3 2 .3 3.2-.4zm8 52.2c-.3-.4 0-1.3-.8-1.3-.6 0-.7.6-.7 1-.1.8.7.6 1.1.9.3.2.5-.2.4-.6zm87.8-87.9c-.4-.5-.9-.8-1.6-.7-.4.1-.8.2-.7.6.2.7.9.8 1.5.9.4 0 .7-.2.8-.8zM243.5 490.1c-.7.5-1 1.1-.8 1.7.1.3.9.4 1.2.1.8-.6-.6-1.1-.4-1.8zM228.7 515c.6-.2 1.3.9 1.7-.3.1-.4.3-1.1-.1-1.1-.9-.2-1.1.7-1.6 1.4zm101.7-204c-1.1 0-1.6.6-1.9 1.3-.1.3.3.6.6.6 1.1-.1 1.2-1 1.3-1.9zm89.3 43.5c1 .2 2 .3 3 .5.3 0 .7 0 .8-.4.1-.4-.3-.5-.6-.5-1.1-.3-2.1.1-3.2.4zm-22.6-3.1c-.2-.5-.5-.8-1.1-.7-.5.1-1 .3-.9.9 0 .5.5.6 1 .6.4-.1 1-.1 1-.8zm-3.2 4.1c.3 0 .4 0 .6.1 1.5.7 1-1 1.5-1.4.2-.1.2-.4-.1-.5-1-.4-1 .7-1.6 1-.1.1-.2.4-.4.8zm-142.6 33.3c-.4-.2-.7-.4-1-.6-.4-.4-.9-.4-1.3-.3-.1 0-.2.3-.2.4.2.5.7.3 1.1.5.4.2.8.4 1.4 0zm48.3-137.7c-.4.2-.8.5-.7 1 .1.5 0 1.2.8 1.1.4 0 .7-.4.5-.8-.2-.4 0-1.1-.6-1.3zm46.1 274.3c0-.4-.1-.7-.5-.7-.7.1-1 .6-1 1.2 0 .4 0 1.2.7 1 .8-.1.5-1 .8-1.5zm-85.4-48.3c1.3.3 2.4-.1 3.6-.6-1.4-.6-2.5.2-3.6.6zm-80.8-111.3c-.1-.5-.4-.9-.9-.8-.7.1-.9.6-1 1.2 0 .4.4.4.7.4.6-.1 1.1-.2 1.2-.8zm107.3 27.4c.7-.5.6-1.2.4-1.9-.1-.3-.4-.4-.7-.2-.7.5.2 1 0 1.6 0 .1 0 .3.3.5zm-23.5 88.3c.1.7 1.4.7.6 1.6-.2.2 0 .4.2.4s.4 0 .6-.1c.2-.2.6-.4.4-.8-.4-.6-.8-1.3-1.8-1.1zm-37.7 5.2c-.4-.6-1.1-.5-1.7-.8-.2-.1-.7 0-.8.4-.1.2-.1.4 0 .6.2.3.5.2.7.1.6-.4 1.2.3 1.8-.3zm101.9 42.2c.4-.2.9-.2.9-.9 0-.5-.3-.7-.8-.8-.6-.1-.8.4-.9.9 0 .5.3.8.8.8zm-27.4-236.7c0-.4-.3-.5-.7-.4-.5.1-1 .2-.9.8.1.5.7.6 1.1.8.2-.4.4-.8.5-1.2zm8.1-7.4c-.6.2-1 .6-1 1.2 0 .4.3.5.7.5.6 0 1-.3 1-1 0-.4-.2-.7-.7-.7zm-33-4c.9.5 1.5.7 2-.1.2-.3.5-.7 0-1-1-.3-1.1.9-2 1.1zm2.8-35.4c.6 0 .7-.4.8-.7.1-.6-.4-.8-.9-.9-.4 0-.9-.1-.9.4s.6.8 1 1.2zm-50.4 2.4c-.1-.4-.2-.9-.8-.8-.5.1-.8.6-.9 1-.1.6.5.5.9.5.5 0 .9-.1.8-.7zM219.5 354c.1-.5-.2-1-.3-1.2-.9-1.4-1.1-.1-1.1.4 0 1 .8.7 1.4.8zm8.3 178c-.8-.3-1.5-.8-2.1.1-.3.4.3.5.5.6.8.8 1-.2 1.6-.7zm3.9-98.4c1 .2 1.3 1.2 2.3 1.2-.1-1.4-.8-1.7-2.3-1.2zM353 302.8c.4-.1 1 .1 1-.5s-.6-.4-1-.4-.9.1-.9.5c-.1.6.6.3.9.4zm-13.1 252.9c.4.4.7.3.9.2.6-.3.9-.8 1.3-1.3 0 0-.1-.2-.2-.2-.8-.3-.9.6-1.4.8-.2 0-.4.3-.6.5zM250.4 437c-.3-.6-1.1-.7-1.1-1.3 0-.3-.3-.4-.6-.3-.4.1-.3.4-.3.6-.1 1.7 1.1.8 2 1z"/><path d="M301.1 223.5c.5-1.6 1.5-2 2.9-1.8 1.3.2 2.4-.5 3.4-1.1.7-.5.5-1.2.4-1.7-.1-.7-.7-.6-1.3-.5-.5.2-1 0-1.4-.2-.9-.5-1.7-.2-2.4.3-.4.3-.8.8-1.4.3-.6-.6.1-.8.4-1.1.2-.3.4-.6.1-.8-.9-1 0-1.5.6-1.8 1.7-.7 2.9-1.5 2.4-3.6-.1-.6.2-.7.8-.5 1 .5 1.3 1.2.7 2.1-.3.5-.3.8-.1 1.2.3.5.7.3 1.1.2.5-.1 1.1-.2 1.6-.1 1.9.6 3.4.3 4.4-1.7.6 1.4-.2 3.1-1.6 3.4-2.3.5-3.2 1.8-3.3 4.1 0 2.5-.3 2.5-2.7 2.6-1.5.2-2.9 1.2-4.6.7zM268.1 429.3c-.8-.5-1.5-2.8-1-3.5.2-.3.6-.4.7.1.2 1.1 1 2.2.3 3.4zM284.8 431.8c.1.4 0 .5-.2.6-.3.1-.6 0-.7-.2-.2-.9-.3-1.8-.3-2.6 0-.1.3-.3.5-.4.2-.1.5.1.4.3-.5.9.2 1.6.3 2.3zM280.2 405.8c-.6-.1-.6-.6-.6-1.1 0-.3.1-.8.4-.7.6.1.9.6.7 1.2 0 .3 0 .6-.5.6zM283.8 406.1c.6-.1.6.3.6.7 0 .4.1 1.1-.5 1.1-.7.1-.7-.6-.8-1-.2-.5.4-.6.7-.8zM257.5 247.7c-1.8-.9-2.1-2.9-3.9-3.5 1.7.6 3.4 1.2 3.9 3.5zM219.9 374.3c-.4 1.7-.9 3.1-.9 4.6 0 .3-.4.5-.8.4-.4-.1-.2-.4-.2-.7.2-1.4 1.1-2.6 1-4.1 0-.3.3-.4.6-.4.2.1.3.3.3.2z"/><path fill="none" d="M402.4-2.3h100v800h-100z"/><path d="M487 584.6c9.3 2 16 9 16 21.4 0 15.7-11.1 23.2-25.3 23.2-13.6 0-25.8-7.7-25.8-23.7 0-13.2 7.8-19.6 16.1-20.8v10.7c-3.8 1-7.6 3.7-7.6 10.4 0 8.9 8 12.3 17 12.3 8.4 0 17.2-3 17.2-12.6 0-7-4.7-9.2-7.6-10.2v-10.7zM483.6 542.5c11.3 0 19.6 6.7 19.6 18.6 0 11.6-8.2 18.3-19.4 18.3-11.5 0-19.6-7-19.6-18.8 0-11 7.7-18.1 19.4-18.1zm.1 26.4c7.2 0 11.4-3.1 11.4-8.1 0-5.1-4.3-7.9-11.4-7.9-7.8 0-11.5 2.9-11.5 8 0 4.8 3.6 8 11.5 8zM474.6 535.4c-3.2 0-6.4 0-9.6.1v-9.9c.9-.1 3-.3 4.4-.4-2.8-1.9-5.3-4.9-5.3-10.4 0-5.4 2.8-8.3 5.7-9.6-3-2.2-5.7-5.4-5.7-11.5 0-6.5 4-11.8 13.7-11.8h24.5V492h-23.2c-3.4 0-6.7 1.2-6.7 5.4 0 4.4 2.8 6.1 8.5 6.1h21.3v10.1h-22.8c-3.9 0-7 1-7 5.4 0 4.2 2.6 6.2 9 6.2h20.8v10.2h-27.6zM487 411.8c9.3 2 16 9 16 21.4 0 15.7-11.1 23.2-25.3 23.2-13.6 0-25.8-7.7-25.8-23.7 0-13.2 7.8-19.6 16.1-20.8v10.7c-3.8 1-7.6 3.7-7.6 10.4 0 8.9 8 12.3 17 12.3 8.4 0 17.2-3 17.2-12.6 0-7-4.7-9.2-7.6-10.2v-10.7zM483.6 369.7c11.3 0 19.6 6.7 19.6 18.6 0 11.6-8.2 18.3-19.4 18.3-11.5 0-19.6-7-19.6-18.8 0-11 7.7-18.1 19.4-18.1zm.1 26.4c7.2 0 11.4-3.1 11.4-8.1 0-5.1-4.3-7.9-11.4-7.9-7.8 0-11.5 2.9-11.5 8 0 4.8 3.6 8 11.5 8zM449.7 352.3h19.7c-2.4-1.6-5.3-4.7-5.3-10.7 0-7 4.1-12.5 14.2-12.5h23.9v10.3h-22.4c-4.8 0-7.4 1.7-7.4 6 0 5.7 4.3 6.9 10 6.9h19.8v10.3h-52.6v-10.3zM485.9 311.6c4.7 0 9.2-2.3 9.2-7.5 0-4.3-1.7-5.5-4-6.5v-10.3c4.6 1.3 12.1 5.4 12.1 17.1 0 12.3-9.2 17.6-19 17.6-11.7 0-20-6-20-18 0-12.8 9.3-17.2 18.6-17.2 1.3 0 2.1 0 3.1.1v24.7zm-6.4-14.4c-4.3.1-8 1.8-8 6.8 0 4.9 3.4 6.9 8 7.3v-14.1zM474.4 279.6c-3.2 0-6.6 0-9.4.1v-10c1-.2 3.6-.3 4.7-.4-2.3-1.3-5.6-4.3-5.6-10.8 0-7.5 5.1-12.4 14.4-12.4h23.7v10.3h-22.6c-4.2 0-7.2 1.4-7.2 5.9 0 4.4 2.4 6.9 9 6.9h20.8v10.3h-27.8zM483.6 202.3c11.3 0 19.6 6.7 19.6 18.6 0 11.6-8.2 18.3-19.4 18.3-11.5 0-19.6-7-19.6-18.8 0-11 7.7-18.1 19.4-18.1zm.1 26.4c7.2 0 11.4-3.1 11.4-8.1 0-5.1-4.3-7.9-11.4-7.9-7.8 0-11.5 2.9-11.5 8 0 4.8 3.6 8 11.5 8zM465 188.7c12.6-3.6 23.7-6.5 28.1-7.2v-.1c-6.2-1-17.4-4.7-28.1-7.9v-10.3l37.3 13.2v10.8L465 199.8v-11.1z"/><path fill="none" d="M500.5 97.7h200v600h-200z"/><path d="M659.6 556.6c-18.2 0-29.3-12.7-34-23.2-6.8 10.9-15.3 17.6-29.7 17.6-24.1 0-40.1-17.7-40.1-49.6 0-29.2 15.2-48.5 39.7-48.5 16.4 0 24.4 8.4 28.5 18.1 3.8-10.2 15.8-23.2 34.6-23.2 29.3 0 44.5 23.4 44.5 55.8-.1 29-15.4 53-43.5 53zm-62.7-35c9.6 0 16.1-6.9 16.1-19.9 0-12.6-4.9-19.5-16-19.5-10.8 0-17.4 7.1-17.4 19.8 0 13 6.1 19.6 17.3 19.6zm61.3-43c-14.1 0-20.6 9.7-20.6 23.6 0 15.5 8.4 23.4 20.4 23.4 12.6 0 21-9.5 21-23.9 0-13.4-6.3-23.1-20.8-23.1zM631.4 367.4h26.9v60.1h-26.9v-60.1zM628.5 239.3c39.1 0 74.5 12.4 74.5 54.6 0 41.7-34.3 54.6-73.7 54.6-39 0-73.7-14.3-73.7-55.2.1-39.6 32.5-54 72.9-54zm.5 77.4c26.1 0 49.4-3 49.4-23.1 0-19.6-21.7-22.2-49.7-22.2-27.6 0-48.3 3.3-48.3 21.9 0 18.1 17.8 23.4 48.6 23.4z"/></svg>