<svg xmlns="http://www.w3.org/2000/svg" xml:space="preserve" viewBox="0 0 800 800"><path fill="none" d="M0 0h800v800H0z"/><path d="M461.1 393.8c0-4.6.5-7.5 5.3-8.5 3.3-.7 4.9-5 7-7.6 3.3-4.2-1.5-5.7-4.3-7.5-3.5-2.2-4.4.5-5.3 2.9-.9 2.1-.5 4.7-2.9 6.4-2.9-2.1-.9-4.5-.5-6.8.4-2.6 1.8-5.7-1.3-7.5-2.5-1.5-4.4-.6-6.7 1.5-1.9 1.8-5.5 1.7-8.4 2.4-2 .5-3.4-.4-3.9-2.3-1.3-5.5-2.1-11.2-.1-16.4 1.3-3.4 5.7-5 9.5-5 4.2 0 8.1 0 11.7-2.5 1-.7 2.2-1.4 3.4-1.6 11.4-2.3 16.4-7.4 18.8-18.7 1.9-8.9 7-16.7 8.4-26 .9-6.2-.7-12.3.5-18.4.6-3.1 1-5.9 3.9-8.1 4.8-3.7 6.9-9.4 9.6-14.7.5-.9.5-2.7 1.1-2.9 6.8-2.1 6.1-9.3 9.6-13.5 2.3-2.8 4.7-5.4 8.9-4.5 5.5 1.3 10.3-1.7 15.4-3 2-.5 3.4-3.2 3.4-5.7.1-5 2.1-9.5 3.7-14.1 2.5-7.2 6.7-13.3 14.1-16.3 9.1-3.6 21.6-.1 27.4 7.4 1.2 1.5 1.1 3.1 1.2 4.8.2 3.8.4 7.7.8 11.5.5 4.2.8 7.1-3.2 11.3-3.8 3.9-6.1 11.2-7.2 17.6-.2 1.1.3 2.6.9 3.7 6.3 10.4 4.6 20.4-.3 31-3.2 7-5.3 14.6-5.2 22.8.2 7.1 5.2 9.5 9.6 9.3 4.4-.2 9.2.3 13.8-2 4.5-2.3 10.2-.2 15.4-1.6 4.6-1.3 9.5-1.9 14.2-2.9 2.2-.5 3.9-.6 5-2.9 1.6-3.2 4.3-1.6 6.7-.9 1.6.5 2.8 1.2 2.5 3.1-.5 2.8-2.7 3.1-5.1 3.7-12.2 3.4-25.2 3-37.1 7.8-1.6.6-3.1 1.1-4 2.8-2.6 5.3-4 1.7-6-.9 1 5.8-1.3 11.2-.6 16.9.2 1.8.6 4 2.3 4.3 5.6 1 5.3 5.4 5.7 9.3.3 3.1-1.4 3.9-4.2 5.9-7.4 5.2-12.7.2-18.5-1.6-4.8-1.5-6.1.4-6.3 4.1-.2 3.5-.1 7.1 1.6 10.6 4.1 8.5 1.8 17.8-5.6 23.6-5.4 4.2-4.7 11.7-9 16.5-.6.7-.7 2.8-1.1 2.8-10.2.4-9 10.7-13.8 15.8-1.4 1.5-1.8 4.2-4.5 1.8-.6-.5-1.4-.4-1.4.3-.2 9.3-8.1 17.7-3.1 27.7.7 1.5 1.2 2.6 3 2.5 5.1-.2 6.8 4.1 8.4 7.5 2.6 5.3-1.5 10.5-7.8 8.8-5-1.3-11.1.7-15.2-3.9-.3-.4-1.6-.2-1.7-.5-2.6-7.7-8.5-6.7-14.9-6.4-6.6.3-9.9-6.4-6.5-12 3.6-5.9 7.7-11.6 6.9-19.6 4 1.6 2.4 4.9 4.7 6.6 1-15 12.7-27 10.5-42.7-.3-1.9-.1-4.4 2.7-5.1 4.1-1 3.2-4.4 3.4-7.3.1-1.7-.9-2.9-2.7-2.8-3.5.3-8-2.4-10 2.2-1.4 3.3-3.5 5-6.7 6-1.3.4-2 1.5-2.4 2.8-4.5 15.2-16.1 22.8-30.1 27.4-5.6 1.8-7.7 6.9-11.7 10.2-5.4 4.5-9.7 10.4-15 15.2-5.3 4.8-4 16.9 2.2 20.5 3.4 2 5.2 4.3 3.7 7.6-1.7 3.8-5.3 2-8.4 1.4-5.4-.9-11-.1-15.9-3.7-6.9-5.1-12.6-11.4-17.6-18.2-2.1-2.9 4.2-15.1 8.2-16 3-.6 4.3-2.4 5.6-4.5 4.9-7.4 11.1-13.6 17.3-19.8 2-2 3-4.9 4.7-6.3 5.4-4.4 7-10.3 9.2-16.2 1.5-4.1 2.7-.5 4.3 1.1zm51.5-131v1.9c.3 6.9 1.8 7.8 7.3 4.4 1-.6 2-.7 2.9 0 1.4.9 1.4 1.8.2 3-1.1 1.1-2 2.9 0 3.5 1.8.6 3.3-.8 3.1-2.9-.3-3.7 2-6.2 3.5-9.2 2.2-4.3 7.1-7 11.2-5.2 1.9.8 3.7 3.2 5.5.9 1.7-2.2 1.1-4.7-.9-6.9-1.6-1.7-2.6-3.9-4.2-5.6-3.8-4.4-10.3-4.2-13.5.6-2.6 3.9-6.8 6.8-10.5 8.1-4.3 1.6-4.6 3.9-4.6 7.4zm58.2 83c.2-3.9-.9-7.3-4.2-9.4-1.9-1.2-3.3-2.4-4.1-4.4-.5-1.4-.8-3-2.9-2.3-1.6.5-2.6 1.8-2.4 3.4.5 5.2-.2 10.7 2.7 15.4 1.5 2.5 2 6.7 6.5 5.5 3.9-1.2 4.3-4.7 4.4-8.2zm-38.5-14.5c-1.2-3.7-1.1-7.8-3.7-11.6-1.8-2.6-2.5-2.4-4.5-.8-4.9 3.8-4.4 9.2 1.4 15.2 1.4 1.5 2.2 3.9 4.9 2.5 1.8-.9 1.7-3.1 1.9-5.3zm16.8-65.5c-3.4 2.4-.5 6.5-2.4 7.8-6.7 4.5-1.4 10.3-2.1 15.4-.3 2 1.4 3 3.3 3.1 2.1.1 2.3-1.8 2.5-3.1 1-7.5 3-15.3-1.3-23.2zm-66 96.5c-.3-1.7.4-6.3-3.8-5.8-2.8.3-6.8 2.7-6.4 7.2.2 3.1 0 6.9 4.7 6.6 4.1-.2 6-2.6 5.5-8zm21.1-71.7c1.3-2 .4-4.1.1-6.2-.8-5.7-2.9-11.6 3.6-15.7 1.1-.7.3-2-.4-2.8-1.2-1.3-2.2-.5-3.3.4-5 3.8-7.3 17.2-3.8 22.4 1 1.3 2.1 2.2 3.8 1.9zm70.9-45.5c2.5-3.3 3.1-6.6 3.5-9.9.4-2.8-1.5-4.5-4-4.8-3-.4-3.3 2.3-3.4 4.4-.2 3.6 1.6 6.7 3.9 10.3zm-4.4-42.9c.6 1.9 0 5.5 3.6 5.9 2.7.4 3.9-1.9 4-4.6.2-3.2-1.3-5.6-4.2-6.2-2.7-.5-3.4 1.9-3.4 4.9zm-10.8 59.7c.6 2.1-.8 6.7 3.2 7.1 3.5.4 3.1-3.9 3.4-6.3.3-2.6-.5-5.2-3.8-5.3-2.6-.1-3.2 1.6-2.8 4.5zm-53.7 33.8c3.1 1.7 1.7 8.2 6.6 6.8 3-.8 3.7-5.4 1.9-7.7-2.2-2.7-5.3 1-8.5.9zm-4.2 70.4c-.8-1.9.5-5.2-3-5.5-1.9-.2-3.1 1.4-3 3.4 0 2.6 1.3 4.5 4 5.1 2.7.5 1.6-1.8 2-3zM198.9 415.5c.1-8 3.1-14.6 8-20.7 2.8-3.5 3.7-8.5 8.2-10.8.9-.5 1.5-2 2.2-2 6.5-.3 5.9-4.8 5.6-9.1-.2-2.7-.3-4.9 3.6-3.2 3 1.3 4.4-.5 4.6-3.3.2-2.1.5-4.3.1-6.4-.3-1.8 1.1-5.1-2.2-5-2.3.1-5.8 1.1-5.6 4.2.6 9.8-10.6 11.6-11.6 20.1-3.8-2.3-3-4.6-2.3-6.8.7-2.8.9-5.5-1.1-7.9-.8-.9-2.6-2.5-3-1.5-1.4 4.4-6.7.5-8.9 4.9-1.6 3.3-8.6-.1-8.9-4.5-.2-3.6-.1-7.2-.2-10.9 0-1.3-.3-2.5 1.4-3 5.2-1.7 10.3-3.5 15.4-5.2 3.9-1.4 4.3 1.9 5 4.1.9 2.8-.1 6 2.4 9.3 1.4-3.4.8-6-.7-8.6-1-1.8-2.5-5.1-.3-5.6 3-.7 7.8-3.9 8.9-1.9 3.8 6.7 1.8-2.5 3.3-.9 4.2-8.4 7.6-17 9.8-26.4 1.6-6.8 5.9-13.2 7.5-20.5.5-2.1.9-4.1.3-6.3-2.5-8.5-.3-16.8 4.9-22.9 6.7-7.9 10.5-16.8 13.6-26.3.2-.7 1.1-1.9 1.5-1.8 6.5.8 11.6-4.8 18.2-3.9 6.2.8 10.4-4.2 12.4-10.2 2.9-9.1 5-19.1 11.5-26.2 3.6-3.9 10.3-4 16.5-2.9-3 4.6-4.6 9.1.7 12.8 1.1.8 2.3 2.5 3.9 1.5 1.5-1.1 2.9-2.6 2.5-4.8-.3-1.4-.8-2.9-1.1-4.3-.4-1.4-1-3 .9-3.8 1.6-.7 2.7.3 3.9 1.3 8.1 7.2 7.8 17.5 9.7 26.9.3 1.5-.6 3.6-3.1 2.5-4.1-1.8-4.2.9-4.3 3.7 0 .2 0 .5-.1.6-8.3 11.2-1.5 22.9-1.1 34.3.3 10.7-3 20.5-5.8 30.4-1.8 6.4.6 11.7 2.3 17.3.4 1.2 1.3.8 2.1.6 5.8-1.1 11.9.1 17.5-2.1 4.4-1.7 9.1-.4 13.7-1.5 5.5-1.4 11.2-1.7 16.5-5.5.8 5.8-2.7 6.7-6.3 7.4-7.3 1.4-14.7 2.1-21.7 5.6-8.4 4.2-11.8 15-6.5 22.9 1.5 2.3 3 4.5 3.2 7.5.4 8.7-4.8 12.5-12.9 9.2-2.2-.9-4.4-1.6-6.5-2.6-5.1-2.6-7.3-1.4-7.7 4.5-.4 5.7 1.7 10.9 4 15.9 1.4 3.1.9 4.6-1.1 7.6-4.8 6.9-8.3 14.7-12.2 22.2-.7 1.3-.9 3.2-2 3.9-11.3 7.3-13.9 20.3-20.7 30.5-5.4 8.2-3.8 14.3.8 21.3 1.1 1.7 2.3 2.8 4.3 3.5 4.2 1.4 6.7 6.7 5.3 10.6-.7 1.9-1.9 3-3.9 2-1.8-1-3.9-.3-5.2-.7-7.3-2.5-16.3 0-21.9-7.6-1.9-2.6-5.4-2.5-8.3-2.5-2 0-3.8.1-5.6-.8-6.7-3.4-7.3-6.2-2.5-12.1 3.6-4.5 6.6-9 7.2-15 .5-4.5 3-8.3 6.3-12 3.6-4.1 7.7-9 7.2-15.5-.7-8.2.5-16.1 5.1-23.1 1.4-2.1.8-4-.7-5.1-2.5-1.7-5.4-.4-7.8.7-8.1 3.7-10.2 12.6-15.6 18.7-4.8 5.3-9.3 12.9-14.8 15-6.1 2.4-10.1 7.2-15.9 9.1-4.3 1.4-6.8 4.8-9.5 8-1.6 1.9-2.1 7.1-6.9 3.7-.2-.2-1.1.2-1.1.2.8 8.1-10.3 10.8-8.6 19.5.6 2.9.3 5.9 3.2 7.8.5.4 1 .9 1.3 1.4 2.4 3.6 4.7 8.1 2.4 11.7-1.9 3.2-6.5.1-10 .3-9.8.8-15.9-5.5-20.8-13.3-8.5-13.4-8.3-13 2-25.1 4.7-5.5 10.2-10.3 14-16.7 1.8-3 6.8-3.5 8.1-8.2.8-1.6 2.2 2.4 4 1.8zm70.5-142.6c-1.1-5.6 4.3-6.5 5.8-10.2 2-4.6 8.5-7.4 13.2-5.4 4.9 2.1 6.2.1 6.3-4.3.1-4.9-4.6-10.2-11.4-11.7-5.1-1.2-8.5 2.2-11.8 5.8-2.3 2.6-1.9 10.6-9 5.5-.3-.2-1.3.1-1.6.5-3.3 4.1-2.4 8.8-1.9 13.4.4 4 3 3.2 5.6 2.7 2.5-.3 2.1 2.6 4.8 3.7zm50.1 71.6c.1-6.9-2.8-11.6-7.3-15.5-1.6-1.4-3.4-2.3-5-.3-1.2 1.5-3.4 2.8-1.2 5.4 2.5 3 2.9 6.8 3.3 10.6.3 2.8 1.2 6.9 5.3 6.7 4.5-.2 4.7-4.1 4.9-6.9zm-18.8-66.8c-.1-5.4-.5-9.4-2.5-13.1-.6-1.1-.5-2.8-2.2-2.6-1.8.2-1.1 1.9-1.3 3.1-.4 2.6 1 5.6-1.1 7.9-4.4 4.8-4.1 13.1.9 17.2 2.4 2 4.6 2.4 4.9-1.9.4-3.9 1-7.9 1.3-10.6zm-29.9 47c.1 1.2.2 2.1.2 2.9.2 3 1.4 5.5 4.5 6.1 1.7.3 3.8 1.5 5.4-.3 2.2-2.4 1.6-5.2.6-7.8-.8-2.1-2.2-4.1-3.3-6.1-.9-1.7-1.7-3.8-4-3.4-2.1.4-2.4 2.8-3 4.5-.4 1.5-.3 3-.4 4.1zm-19.7-51.2c-.5-1.5 1.2-3.7-1.4-3.7-2.4 0-4.6.8-5.6 3.4-1.5 3.9.4 7.4 1.1 11.1.6 3.5 2.9 5 5.8 4.1 3.4-1.1 1.9-5.5 1.1-6.2-3.2-3.1-2.8-5.8-1-8.7zm66.9-40.8c.3 2.6-.4 6.6 3.2 7 3.5.4 4.7-3.1 4.7-6.2 0-2.9.3-6.4-3.8-6.8-4.2-.4-3.6 3.1-4.1 6zm-74.1 125.2c-1.1 3.7-1.8 7.2.8 10.4 1.2 1.5 2.3 3.1 4.7 2.2 2.3-.8 2.6-2.7 2.6-4.7 0-1.8.3-4.3-2.5-4.2-2.8.3-3.5-2.5-5.6-3.7zm66.1-90.5c5-1.5 4.7-5.4 4.3-9.2-.2-1.7-1.5-2.6-3.1-2.6-1.9 0-2.4 1.4-2.4 3 .1 2.9-.3 5.9 1.2 8.8zm-49.5 29.4c.1-1.9 0-4.1-1.7-3.8-3.1.6-2.9 3.7-3.1 6.2-.2 1.7.3 4.5 1.8 4.2 3.3-.8 1.8-4.7 3-6.6zm50.4-61.4c-.5-1.3-1.3-3.1-2.9-2.6-1.9.6-3.3 2.4-3.4 4.6-.1 1.1.4 2.5 1.7 1.7 1.5-1.1 4.3-.8 4.6-3.7zM382.7 308.4c-.8-3.1-1.7-6.3 1.3-7.6.6-.3 5.5-.4 5.9 2 .8 5.2-6.1 1.7-7.2 5.6z"/><path d="m204.4 344.3 6.4-.8L215 355l-2 5zM318.2 193.5l9.3 1-1.5 1.5-10-1zM375.7 305.1l8.3-4.3 3 2.2-3.7 3.8-8.6 2.6z"/><path fill="none" d="M100 499.9h600v200H100z"/><path d="M158 657.5v-2c0-24.7 11.1-44.9 41.9-67.3 20.1-14.7 26.1-19.7 26.1-32.1 0-12.3-6-19.2-17.9-19.2-13.9 0-18.9 8.5-20.9 20.9h-29.8c2-24.5 18.1-45 50.7-45 36.5 0 49 21.7 49 43 0 20.7-8.9 30.7-35.1 49.1-17.5 12.3-24.6 20.4-27 26.8h67.3l-3.8 25.8H158zM336.1 588.5v26.9H276v-26.9h60.1zM356.7 552c2-17.5 14.3-39.1 49.9-39.1 32.9 0 47.5 18.6 47.5 38.7 0 17.1-9.8 25.3-17.6 28.9v.6c9.2 3.4 23.1 12.2 23.1 34.3 0 20.6-12.5 44.9-53.3 44.9-38.1 0-51-23-52.5-41.8h30.1c1.9 9.7 8.6 18.1 23.3 18.1 14.3 0 21.4-9.2 21.4-21.7 0-13.2-6.7-21.1-23.3-21.1h-12.8V570h11.3c14.2 0 19.9-4.7 19.9-16.6 0-9.8-5.8-16.3-18.1-16.3-14.4 0-17.9 8-19.4 15.1h-29.5zM540 588.5v26.9h-60.1v-26.9H540zM646.6 515.4v22.9c-22.5 31.9-44.6 78-50.1 119.2h-31.8c5.6-41.8 31.1-91.9 50.4-116.7h-66.9v-25.4h98.4z"/></svg>