<svg xmlns="http://www.w3.org/2000/svg" xml:space="preserve" viewBox="0 0 800 800"><path fill="none" d="M0 0h800v800H0z"/><path d="M397.4 314.1c1.2 1.3 2.1 2.8 3.6 3.8 1.8 1.2 1.7 3 .9 4.8-1.4 3.1-3.1 6.1-5.6 8.6-1.5 1.5-2.3 2.9-.5 4.7.9.9 1.2 2.3.7 3.5-2 4.7-4 9.3-8.3 12.6-2.5 1.8-4.4 1.6-6.7-.3-4.3-3.6-8.7-7.1-13.1-10.6-2.9-2.3-4.5-1.8-5.5 1.8-1 3.4-1.3 6.9-1.8 10.5v-6.8c0-1.5.1-3.1-1.9-3.3-1.8-.2-3.2.5-3.9 2.4-1.4 4.2-2.2 8.4-2.6 12.8-.3 4-.8 8-1.4 11.9-.5-6.9-.1-13.6 1.6-20.4 1.3-5.1.6-5.6-4.4-4.2-4.1 1.2-8.2 2.2-12.6 1.1-.9-.2-1.9-.4-2.5.6-.6 1 .4 1.4.8 2.1 1 2.2 1.6 4.8 1.9 7.1.8 6 3.7 11.4 4.5 17.5.6 4.8 1.5 9.5-2.1 13.7-.8.9-.6 2.1-.6 3.3.1 2.4 0 4.8 0 7.5-2.5-2.4-3.1-1.3-3.3 1.3-.2 2.6-1.5 5.6 2.3 6.2 2.3.4 5.3 1.6 7.3-1.4.3-.4.7-.9 1.2-1 5.9-1.6 5.6-6.2 5.5-10.9-.2-5.4 0-10.8.3-16.2 1.1 1.1.9 2.6.8 3.9-.2 5.1.5 10.1.9 15.2.1 1 .1 2.4 1.2 2.6 1.5.3 1.7-1.3 2.1-2.3 2.4-5.6 3.1-11.6 3.9-17.6.9-6.9.1-13.9 1.5-20.7.2 14.6 0 29.2-5.4 43-1.8 4.6-4.3 8.8-9.7 10.2-.6.2-1.3.6-1.8.4-3-1.2-4.2.2-4.5 3.2-1.6-.6-1.8-1.9-2.4-2.9-.8-1.4-1.6-2.8-3-3.4-1.5-.7-3.1-2.4-4.6-.3-1.8 2.4-1.2 4.9 1 6.4 1.1.8 2.9.9 3.3 2.6.3 1.3 1.6 2.1 2.6 4.1-1.8-1.4-2.9-2.2-4.1-3-.4-.3-1-.6-1.4-.2-.5.4-.2 1 0 1.4 1 2 2.4 3.7 4.2 5 .3.2 1 .5 1.1.4 2.2-3.5 4.2 1.7 6.4.2.1-.1.8.4.9.7.2 3.6 3.2 5.4 5.5 8.6-4.1-2.2-7.7-3.7-10-7.1-.4-.6-1.1-1-1.9-.7-.3.1-.7.6-.7.9-.1 1 .7 1.1 1.4 1.2.8.2 1.4.6 1.6 1.3 1.6 6.1 7 9.1 11 13.2 1.5 1.6 3.1 3.1 4.6 4.6.8.8 1.6 2 2.8.8 1-1 .5-2.1-.2-3.1-.8-1.1-1.7-2.1-2.5-3.2-1.7-2.2-3.3-4.4-5.3-6.9 4 2.3 10 9 11.4 12.9.9 2.4 3 3.4 4.6 5 10.2 9.6 20.5 19.1 30.7 28.7 1.1 1 2 1.6 3.6.9 2.3-1 3.8.2 3.6 2.7 0 .7-.4 1.4-.3 2.2.1 1.9.5 4.1-1.7 4.9-2.2.8-3.2-1.4-4.5-2.6-9.2-9.1-19.3-17.3-28.7-26.2-1.1-1.1-2.5-1.7-4-1.2-3.1 1.1-5.7.4-8-1.9-.4-.4-.9-.5-1.3-.8-2-1.3-4.1-2.8-5.1 2.1-1.5-5.1-4-3.8-6.5-2.5-5.1 2.5-6.2 6-3.5 12.2-3-.3-5.5 1.7-8.4 1.8-2.8.1-3.8 2.7-5.1 4.6-.6.8-.4 1.7.9 1.6 1.6-.1 3.4.2 4.6-1.3.5-.6.9-1.5 1.6-.5.6.8-.1 1.3-.8 1.6-2.5 1.2-4.9 2.7-7.1 4.4-1.1.9-2.1 2-1.8 3.4.3 1.6 1.9 1.2 3 1.6 2 .8 3.8 1.4 5.9.7 1.1-.4 1.7.5 1.6 1.7-.1 2.3-.5 4.4-2.8 5.9-2.7 1.8-5.5 3.3-8.4 4.8-4 2.1-4.2 2.6-2.6 6.3-4.5-.1-6.3 4-3.9 9.4 1.5-1.1 1.8-2.7 1.9-4.5 1.6 1.8 3 1.9 3.2-.7.2-2 1.7-3.3 2.2-5 0-.1.1-.3.1-.3 2.6.3 4.2-2 6.3-2.5 1.3-.3 1.3 1.8.8 3-.6 1.5-1.7 2.8-3.2 3.3-3.6 1.1-3.9 4.7-5.6 7.1-4.2 5.9-9.4 11.1-13.4 17.1-2 3-4.8 5.8-4.1 10.1.5 3 1.3 3.3 3.9 1.8 1-.6 2.1-1.4 3.4-1.3 1.6.1 2.4-.6 2.8-2.2.3-1.5 1.1-2.8 3.1-1.9 1.9.8 2.4-.2 2.7-1.8.1-.6.1-1.3.3-1.8.4-.9.8-2.3 2-2 1.1.3.2 1.4.1 2.2-.1.6-.2 1.3.5 1.6.7.3 1.1-.3 1.5-.7.6-.7 1-1.6 2.3-1.7-.5 4-3.4 6.3-5.7 8.9-2.9 3.4-5.7 6.8-8.6 10.2-.4.5-.8 1.1-.4 1.7.4.7 1.1.3 1.7.1.4-.1 1-.2 1.2 0 2.7 3.4 3 .3 4-1.4.3-.5.6-1.1 1.1-1.5 4.1-3.3 6.4-8.1 8.5-12.5 2.2-4.6 7.1-6.5 8.8-11.2.2-.7 1.2-1.4 2.3-1.4.8 2 .3 3.7-1.4 5-1.8 1.5-2.9 3.2-2.2 5.7.2.8.2 1.8-.7 2.2-3.7 1.8-5.8 5.1-7.9 8.4-.5.9-1.4.8-2.1 1.1-1.6.5-2 1.8-2 3.2 0 .9.5 1.7 1.5 1.7 1.5.1 1.9-1.1 2.4-2.1.2-.5.6-1.3.8-1.2 3.4.4 5.7-2 8.5-3.3 1.2-.5 2.2-1 3.1-1.8.8-.7 1.9-1.9 2.9-1.1 1.1.9.8 2.5.4 3.8-.2.8-1.4 1-1.2 2 2.9.1 2.9.1 9.3-8.9.6 3.3-.1 6.1-1 8.9-.3 1-1.1 1.9-2.2 2.1-3.5.4-4.6 2.7-4.6 5.6 0 2.4-1.1 3.5-3.1 4-1.9.5-3.2 2.8-5.8 1.8.9-1.3 3-2.1 1.5-3.9-.8-1-5.7-1.1-6.7.2-2.2 2.8-4.7 4.9-8.4 5.3-.5.1-1.1.6-1.5 1-.7.6-1.6 1.4-1 2.3.7 1.1 1.8.7 2.8.2 1.2-.6 2.5-1.1 3.7-1.5.5-.2 1.3-.3 1.6.4.2.6-.4.9-.7 1.2-2.4 2.3-5 4.4-8.2 5.5-1.1.4-2.5.8-2 2.5.4 1.3 1 2.3 2.6 2.2 2.3-.1 3.7 1.7 5.6 2.5 1.2.5.9 1.4.2 2.3-1.3 1.6-2.8 3-4.9 3.6-1.2.3-2.3.7-2.3 2.2 0 1.4.7 2.6 2 3.2 4.1 1.8 7.9 4.9 12.8 4 .8-.1 1.1.4 1.3 1 .3 1 1 1.6 2.1 1.5 1.3-.1 1.6-1.2 1.9-2.2.9-4.2 3.7-6.5 7.4-8.1 1-.5 2.9-.7 2.1-2.3-.6-1.3-2.3-1.4-3.6-.7-1.4.7-2.5 1.8-3.8 2.7-.5.3-1 1-1.6.5-.6-.4-.4-1.1-.2-1.7.7-2.8 1.3-5.7 4-7.6 1.2-.8 2-2.1 2.4-3.6.9-3.1-.8-5.1-4.1-4.9-2.4.1-5-.6-7.3 1.3.4-1.4 1.3-2 4.8-4.9 1.9-1.5 4.8-1.1 6.2-3.9 1.3 3 .7 5.7.9 8.3.6 7.1 4.4 12.5 9.7 16.7 5.9 4.6 12.5 6.9 20.3 6.4 6.3-.4 12.1 6.8 11.4 13-.1.9-.6 1.2-1.3 1.6-2.1 1.2-4.1 2.3-6.6 2.7-4.7.8-9.4 1.9-14.1 2.6-5.6.8-11.1 0-16.6-1.5-4.6-1.3-9.2-2.4-12.8 2.3-.3.4-1.1.8-1.6.8-6.3.1-12.6 1.3-18.9-.5-1.5-.4-2.1-1.2-2.5-2.7-1.8-6.8-1.8-13.2 1.3-19.7 2.1-4.3 2.2-9 1.4-14-.9-5.2-1.3-10.6-1.9-15.9-.3-2.5-.8-4.4-3.5-5.2-2.4-.7-3.5-2.7-4.6-4.8-2.2-4.4-2.2-9.1-2-13.7.1-2.6 2.7-4.3 3.5-6.8 1.1-3.6 1.8-7.1 1-10.7-1-4.4-.4-8.5 1.8-12.3 5.8-9.6 2.2-18.2-2.5-26.6-1-1.7-3.1-3.1-5.6-2.7-1.3.2-2.7.2-4 .2-7.1 0-8.2.4-9.9 7.1-1.2 4.9-4.1 8.3-7.4 11.6-4.1 4-7 8.6-9.6 13.7-3.2 6.4-6.4 13.1-11.8 18.2-2.7 2.5-3.4 6.4-6.8 8.4-2.4 1.5-4.9 2.3-7.6 2.1-3.1-.3-6.2-.2-9.2-1.2-1.3-.4-2.4-.3-3.4.7-5.5 5.5-7.9 12.2-7.8 20 .2 8.6 2.6 16.8 3.6 25.2.2 2 1.5 3.3 3 4.6 3.8 3.4 7 7.1 7.6 12.4.4 3.7-.7 6.8-3.9 8.9-2.9 1.9-5.7 1.1-8.5-.3-7.4-3.7-14.2-8.1-20.2-13.8-4.6-4.4-6.7-9.9-9-15.5-1.9-4.5-4.9-7.2-9.9-7.6-4-.4-5.6-4-7.8-6.7-1.4-1.7-2.3-3.7-3.4-5.6-1.3-2.4-.9-4.7.7-6.7 3.7-4.5 7.4-8.9 12.6-12 6.4-3.8 10.9-9.5 14.1-16.1.2-.5.5-1 .8-1.3 4.4-4.2 5.1-9.6 5-15.4-.2-6 4.6-9.5 8-13.5.3-.3.7-.4 1 .1 1.5 2.1 4.1 2.7 6 4.2.4.3.6.8.3 1-.9.6-2.2 1.7-3 .5-1-1.6-1.9-1.2-3-.5-.8.5-1.6 1.1-2.1-.4-.3-.8-1-.5-1.5 0-3 2.2-3.7 5.8-1.8 9.1.8 1.3 1.7 2.2-.6 3.1-1.8.7-2.2 2.5-.9 4.2 1.1 1.5 1.8 3.2 2.6 4.9.6 1.4 1.7 3.7 3.8 1 .7-.9 2-.4 3-.5 2.2-.2 3.1-1 1.7-3.2-.5-.8-1.6-1.8-.7-2.8.8-.8 1.7.3 2.5.6 2.9 1.2 5.8 2.2 9 1.8 2.7-.3 4.5 1.2 5.6 3.3 1.2 2.3 2.4 2 3.8.6 3.1-3.3 7.4-5.1 10.7-8.1.1-.1.5-.3.5-.2 4.2 3.2 3.2-3.2 5.8-3.1.2 0 .4-.9 0-1.4-.3-.4-.7-.2-1.1 0-3.4 1.4-6.9 1.8-10.5 1.9-2.2 0-3.8-.7-4.7-2.4-.9-1.8.4-3 1.9-4.1 1-.7 1.9-1.6 2.6-2.6 3.4-4.9 8.6-5.8 13.9-6.6-.1 1.7.9 2.4 2.3 1.8 1.1-.4 2.4-1.7 1.7-2.8-.8-1.5-1.9.1-2.8.5-.5.2-.9.5-1.3.7.7-2.4 2.9-3.2 4.9-3.9 2-.7 3.4-2.2 5.1-3.3.7-.4 1.5-1.5.6-2.4-.7-.8-1.5 0-2.2.4-1.5.8-2.6 2-3.2 3.6-.3-.1-.6-.1-.7-.2-1.7-3.7-2.3-3.8-5.2-.9-2.6 2.5-5.4 3.2-8.9 2-1.7-.6-3.6-.3-5.8-.4 1.2-2.5 2.6-3.9 5.4-2.8 1.2.5 2.2 2.2 3.9 1 1.9-1.3 4.3-2.1 4.9-4.9.3-1.3.1-3 1.9-3.6.5-.2.5-.8.2-1.3-.3-.7-2.4-.6-1.1-1.9.8-.8 1.8-1.8 3.3-1.3.2.1.4.2.6.1 1.2-.3 3 .3 3.2-1.1.3-1.8-1.7-1.7-2.9-2.1-4.3-1.4-7.3-4.5-9.9-8.1-2.3-3.3-5.6-5.5-8.6-8-1.7-1.4-3.3-.7-5.3 1 4-7.1.6-12.6-2.3-18.3-7.5-14.5-15.9-28.5-22.1-43.6-6.8-16.7-15.1-32.8-23.1-48.9-3-6-6.6-11.7-7.4-18.7-.2-2.1-3.1-2.3-4-4.5-1.4-3.2-2.4-6.9-6.6-8-.8-.2-.7-1.2-.6-1.9.3-3.2.3-6.5 3.4-8.6.8-.6.8-1.6 1-2.5.4-2.3 1.9-3.9 3.4-5.4.8-.8 2.3-1.3 3-.2.6 1 .5 2.5-1 3.1-1.5.6-2.8 1.5-2.5 3.2.3 1.9 2 2.7 3.7 2.9 3.7.4 6.2 3.2 8.5 5.3 1.1 1 2.8 2.5 3.6 4.2.2.3.6.9.9.8 2.8-.6 4.9 1.7 7.8 1.7-1.2-2.6-4-3.5-4.7-6.3 2.4.1 3.7 1.9 5.4 2.9.6.3 1.1 1.1 1.9.4.5-.6 0-1.2-.3-1.7-1.3-2.6-1.8-5.2-1.6-8.3.4-4.2-3.2-6.8-5.9-9.4-.8-.8-2-1.3-2.6-2.3-2-3.1-4.8-3.7-8.1-3.1-.6.1-1.3.4-1.7-.3-.5-.9.3-1.3.9-1.7 2.1-1.6 4.2-1.9 6 .4 1.5 1.9 3.1 3.6 5.1 5 .8.5 1.5 1.4 2.5.9 1-.6.6-1.7.4-2.6-.7-2.8-.2-5.3 2.3-7.1v-.1c0 1.7 1.2 3.2.6 5.1-.4 1.4.8 1.8 2 .9.6-.4.9-1.1 1.4-1.6.6-.6 1.4-1.2 2.2-.5.7.7 0 1.3-.4 1.9-.8 1.1-1.7 2.1-2.5 3.2-.6.9-1.2 1.9-.3 2.8 1 .9 1.9.1 2.6-.7.3-.4.7-.8 1.1-1.1.6-.4 1.2-.3 1.7.1.5.5.2.9 0 1.4-.8 1.7-2.2 2.8-3.5 3.9-2.3 1.8-1.3 3.5.2 5 1.3 1.2 2.5 3.7 4.8.9 1.2-1.4 3.5-1.3 4.6-3.1.3-.6 1.2-.5 1.7 0 .4.4.2 1-.2 1.4-2.3 2.2-1.4 5.7-3.7 8.1-.8.8-.4 2.9.7 4 .8.7 2 1 3.2.5 1.1-.4 2.4-2.2 3.2-1 1 1.4 2.2 3.1 1.7 5.1-.1.4-.2.8-.1 1.2.1.7-.1 1.7.8 1.8 1 .2.8-.9 1.1-1.6.3-.8-.2-2 1.5-1.6 1.4.3 2.6 2.7 4.4.7 1.1-1.2 2.2-2.3 2.7-4.4 1 1.7.8 3 .2 4-2.2 4-1.7 7.6 1 11.7 1 1.6 1.2 3.1 3.7 2.3 1.1-.4 1.3.9.7 2-.5.8-.6 1.6.3 2.2.9.6 1.6-.1 2.2-.6 3.2-2.8 5.8-6.1 9.6-8.2 2.5-1.4.3-3.2-1-3.5-3.9-.9-4.1-3.6-3.1-6.3 1.5-4.1-1.2-6.9-2.6-10-.5-1-1.4-1.8-2-2.8-2.3-4.7-9.6-5.1-13.8-3.4-.6.2-1.1.6-1.7.8-.5.2-1.1.3-1.4-.3-.3-.6.2-1 .7-1.2 1.8-.9 3.5-2 5.5-1.9 1.6.1 2.7-.7 3.2-2 .6-1.7-1.1-1.9-2.1-2.6-3.4-2.4-7.2-1.4-10.9-1.2-.6 0-1.2.1-1.9.2-2.1.3-4.4.2-5.4-1.9-.8-1.7 1.8-4.6 4.3-5.3 1.4-.4 3.9.4 3.8-1.5-.1-2.2-2.8-1.6-4.4-1.9-2.1-.3-4.3-.6-6.8.4 2-4.3 5.8-6.1 9.2-8.4 1.1-.7 2.6-.8 3.7-1.5 1.8-1.1 3-1 4.2.8.6 1 1.6 1.7 2.6.9 1.1-.9.6-2.3-.4-3-3.5-2.5-5.2-6.9-9.8-8 2.1-2.7 3.4-2.9 5.9-1.3 1.7 1.1 3.7 1.8 5.5 2.7.6.3 1.3.7 1.8 1.2.7.7 1.1 2 2.4 1.5 1.4-.6 1.2-1.9 1-3.3-.1-.7-.1-1.5.2-2.1.9-1.7 3-3.3-.2-4.9-.2-.1 0-1.2.1-1.8.4-1.5.9-2.8-.2-4.4-.8-1.2 1.7-6.3 2.9-6.9.2-.1.7-.2.8-.1 2.1 2.2 5.5 3.7 5.1 7.6-.1.8-.6 1.8.4 2.2 1.1.4 1.7-.6 2.3-1.3 1.1-1.4 2.2-2.8 3.2-4.2.4-.6.9-1.4.1-1.9-1.6-1.1-.9-1.7.2-2.6.4-.3.8-1.1.6-1.3-2.1-2.5.8-3.8 1.4-5.7.2-.6.5-1.3 1.2-1.2.8.1.8.9.9 1.4.4 3.8 3.4 7.3.9 11.4-.3.5 0 1.4.1 2.1.2 1-.6 2.9.8 2.9 1.6 0 1.8-2.1 1.5-3.2-.7-3.3 1.5-5.5 2.2-8.9.5.8.7 1 .8 1.3.4 1.4 1 2.9 2.4 2.9s1.4-1.8 1.7-3c1-3.3 2.2-6.5 1.8-10-.2-1.6-.3-3.1-1.9-4-.8-.5-1.2-1.4-.9-2.2.8-3-1.2-5.1-2.1-7.6-.7-2.1-1.9-3.4-4.4-2.6-.7.2-1.5.1-1.9-.6-2.3-3.9-7-3.2-10.4-5.1-.9-.5-1.8.2-2.2 1.2-.4.7-.8 1.4-1.3 2.1-2.3 3.2-2.1 3.5 1.7 4.9 1.4.5 3.4.6 1.5 2.9-1.1 1.3.2 2.3 1 3.2 2.8 3.3 3 5.6.9 9.1-1.4 2.3-3.3 4.3-6.2 3.9-2.8-.3-6-4.2-6-7s-1.1-3.4-3.7-2.7c-5.7 1.5-11.8 8-12.7 13.6-.1.4-.1.9.1 1.2 1.3 1.8 1.4 1.8-.4 3.4-2.6 2.3-4.6 5.1-6.6 7.9-.4.6-.8 1.2-.7 2 .1 2.1.3 4.1-2.7 4.4-.7.1-1.3 1.5-2.2 2.7 0-1.9-.3-3.5 0-5 1.2-6.3.1-12.4-.9-18.6-.4-2.7.1-4.7 2.7-5.9 1.1-.5 1.8-1.4 2.4-2.4.9-1.6 1.1-4.8 4.1-1.7.8.8 7.7-3.8 7.9-5.2 0-.2.1-.5 0-.6-3.7-3 .6-3 1.6-3.8 1.5-1.1 3.8-1.2 3.9-3.8 0-.5.7-.7 1.2-.8 2.3-.5 4.1-1.3 4.8-4 .6-2.5 3.1-1.4 4.5-.9 2.7.9 4.6.2 6.7-1.6 3.4-2.9 7.5-4.7 11.4-6.9 2.7-1.6 5.2-3.4 6.7-6.2 1.4-2.5 4.1-3.4 6.3-4.9 1.4-1 3.1-1.7 4.3-3 2.1-2.2 1.1-5.8-1.9-6.7-6.9-2-6.9-2-6.7-9.2.1-4.9-.4-9.8-.1-14.7 1.2-17.5 12.2-25.8 29.1-27.1 7.9-.6 15.3 1.3 21.4 6.1 4.7 3.7 7.4 9.2 9.1 14.9.9 3.1 1.5 6.3 2.3 9.4.7 2.7 1.9 5.3 3.6 7.5 1.4 1.9.9 3-1.2 3.7-.3.1-.6.3-.9.3-4.7 0-7.7 1.8-7.9 6.9 0 .9-.8 1-1.5 1.4-1.3.8-2.7 1.6-3.8 2.7-1.9 1.8-1.5 3.2 1.1 4 .6.2 1.2.4 1.7.7.6.3.4.9.2 1.4-.2.5-.5.7-1.2.5-3.2-.9-4.8-3.1-4.7-6.5 0-1.3-.2-2.7-.4-4-.1-.5-.6-1.3-.8-1.1-2.3 2.3-3.5-.8-5.4-1-5.9-.5-11.6-.1-17.4.7-3 .4-3.8 3.1-2 5.7.7 1.1 1.3 2.2 2.1 3.6-2 0-3.3-.4-4.7-.8-2.4-.8-4.3.1-5.7 2-1.5 2.1.3 3.6 1.4 4.5 5.2 4.1 9.5 9.4 16.3 11.1 1.7.4 1.9 1.6 2.2 3 .2 1.2.6 2.6 2.1 2.8 1.6.2 1.7-1.2 1.9-2.3.3-1.1 1.2-1.7 2-2.4 1.8-1.4 2.9-1 3.2 1.2.1.8.7 1.3 1.2 1.8 2.8 2.6 3.8 6.3 6.6 9.1 3.6 3.8 4.4 9.7 7.4 14.2.4.6.5 1.5-.1 2-1.4 1.3-.6 3-.6 4.4 0 .8-.1 2.2 1.2 2.2s.6-1.5 1.2-2.5c.9 2.9 3 4.7 5.2 6.3 1.8 1.3 3 2.9 1.7 5.2-.2.4-.6 1-.5 1.4 1.2 5.7-.3 11.4.6 17 .3 1.6-1 2.6-.9 3.7.4 5-.7 10.1.9 15 .6 1.8 1.7 1.3 2.4.3 1.1-1.7 1.6-1.1 2.3.3 2 4 4.3 7.5 9.7 7.7 2.9.2 5.8 1.5 8.3 3.3.7.5 1.5 1.1 2.2.3.9-1-.4-1.3-.9-1.9-1.8-1.7-1.2-3.6-.4-5.4 1-2.2 2.2-4.3 4.8-4.9.9-.2 2.1.3 2.5 1.1 1.8 4.3 4.6 3.7 8 2.2 1.2-.5 2.7-.3 3.9.5 4.7 3.3 9.5 6.3 14.6 8.9 1.4 1.1 1.9 3.1 2.5 4.6-.8-.8-1.6-1.7-2.5-2.5-.7-.6-1.7-1-1.8.3-.2 1.3.1 2.7 1.5 3.4 1.2.6 2.3.4 2.8-1.2zM215.1 550.2c2.2-3.3 1.4-5.5-2.3-5.9-1-.1-1.8.2-2.3 1.2-.5 1-.2 1.9.7 2.4 1.3.8 2.7 1.5 3.9 2.3-.5 1.1-1.3 1.4-2.5 1.1-1.3-.4-3-1.7-3.9-.2-.8 1.3 1 2.5 1.7 3.7.1.1 0 .4 0 .6-1.3.7-2.6.5-3.9.4-1.3-.1-3.2-.7-3.6.8-.4 1.6-1.5 3.6-.3 5.3 1.1 1.4 1.2 2.7.6 4.3-.6 1.6.1 2.4 1.8 3.1 2.9 1.3 5.1-.1 7.6-.9 1.4-.4 1.5-1 .5-2.2-1.3-1.7-3.6-2.1-4.9-3.7-.5-.6-1.6-1-.9-2 .5-.7 1.3-.2 2 0 2.5.9 5.1 1.8 7.7 2.5.9.3 2 .2 2.4-.9.3-.9-.4-1.6-1.1-2-.8-.5-1.6-.9-2.5-1.2-1.5-.5-2.7-1.4-3.7-3.1.7 0 1.1.1 1.5 0 1.8-.5 5.7 3.3 4.8-2.4 0-.1.4-.4.7-.5 1.9-1.1.6-1.7-.4-2.3-1.1-.9-2.4-.6-3.6-.4zm98.3-244.5c.1 3.3 1.8 4.7 3.1 6.6 1.3 1.9 3 2.5 4.4 2.3 1.8-.2 3.5-2 4.2-3.8.6-1.8 1.1-4.5-.8-5.4-2.5-1.1-2.6-2.6-2.5-4.8.1-1.5-.6-3.1-.6-4.6-.1-3.8-2.4-7-2.5-10.7 0-.5-.2-1.1-.8-1.1-.7 0-1.1.5-1.3 1.1-1.2 2.7-1.9 5.5-1.9 8.5 0 .8.5 2-.6 2.2-1.2.2-.9-1.1-1.2-1.8-.4-.9-.3-2-1.2-2.4-3-1.6-1.6-4.1-1.9-6.4 1.6.2.8 2.3 2.6 2 .7-3 1.5-6.1 2.1-9.2.6-2.9 0-5.7-1.4-8.4-3.1-5.8-5-12.1-9.3-17.5-3.6-4.5-7.5-8.7-11.1-13.1-.7-.9-2-2.3-3.5-1.6-2.1 1-2.8 0-3.4-1.6-.4-1-1.1-2.1-2.3-1.6-1.5.6-.8 2-.4 3 1.6 3.8 4.1 7.3 2.7 11.7-.1.3.3.8.4 1.1.8 2.7.5 5.8 3.5 7.6.4.2.2 1.2.4 1.8 1.2 3-.9 5.7-.7 8.5.3 3.6-.8 7-1.4 10.4-.4 2.4.6 3.9 3 3.7 1.4-.1 2.6-.7 3.8-1.3 1.8-.9 3.6-1.9 5.4-2.8-2.8 3.4-6 5.8-10.8 5.1-2.6-.3-4 1-4.1 3.8-.2 5.3-.6 10.6-.9 15.9-.2 2.6 1 3.5 3.5 3.3 3.8-.4 5.2-1.5 4.9-4-.3-1.7.2-3 1.9-4.7-.2 2-.5 3.2-.5 4.4.1 2.8.9 5.3-.3 8.3-.7 1.9-1.8 4.3-.9 6.6.7 2 .6 3.8-.1 5.8-.8 2.2.1 2.6 2.3 2.5 2.8-.1 5.4-1.1 8.3-.7 2.2.3 4.3-2.1 7-1.3.6.2 1.2-1.2 1.5-2.1.4-1.1.1-2.3 0-3.4-.6-4-1.1-7.6 1.4-11.9zm-31.2 130.9c1.3-2.3 6-5.7 8.3-6.3 1.2-.3 2.1-1 2.2-2.3.1-.8-.4-1.5-1.3-1.4-3 .2-6.1 0-8.9.9-4.8 1.5-4.7 1.8-8.3-1.8l-1.8-1.8c-4-3.8-4-5 .2-8.5 4.3-3.7 4.6-5.9 2-10.7-1.5-2.8-2.8-2.4-4.8-.8-2.3 1.9-4.5 3.7-7.4 4.8-1.9.6-4.1 1.6-5.2 3.6-1.8 3.4-4.5 6.3-4.7 10.5-.1 1.6-.8 2.6 1.4 2.6 3.6.1 2.5 3.1 3.2 5 .7 2-.8 3.3-1.7 3.6-3.7 1.1-4.8 4.3-6.4 7-1.7 2.8-1.2 8.4 1.6 9.9 3.4 1.8 2.1 3.7.9 5.8-.7 1.1-1.5 2-.9 3.4 2.7 5.6 6.8 9.6 12.5 12 2.5 1.1 7.6-.8 9.2-3.1 2.1-3.3-1.6-3.5-2.8-5.1-.5-.6-1-1.1-.6-1.9.5-.9 1.4-.9 2.2-.4 2.5 1.6 5.1 1.4 7.8.9 1.2-.2 2.8.2 3.2-1.3.4-1.4-.2-2.8-1.2-4-.4-.5-1.7-.9-1.1-1.6 2.4-2.9 2.2-7.8 6.7-9-.1 1.7-.2 3.5-.3 6 3.1-3.9 5.1-7.5 5.3-11.9 0-.8-.1-2.1.8-2.2 1.5-.2 1.8-.6.9-1.9-.8-1.1-1.7-2.2-3-1.2-2.5 1.9-5.4-.3-8 1.2zm-62.7-61.1c3.1 1.2 3.2 1.2 3.1 4.2 0 1.4 1.2 2 1.5 1.2.6-1.7 5.2-1.1 2.7-4.5-.2-.2.4-1.1.8-1.6 1.5-1.8 1.6-3.4.2-5.6-1-1.6-3-4.2.8-5.7 1.4-.6.7-2.2.3-3.4-.4-1.3-1.1-2.4-2.6-2.3-1.5 0-1.5 1.5-2 2.5-1.4 2.9-2.3 5.9-4.3 8.5-.8 1-1.3 1.4-2.1-.2-2.5-4.9-3.1-10-1.5-15.1 1.2-3.7-.3-5.4-3-7.1-7.4-4.6-14.4-9.9-22.1-13.9-1-.5-2.1-1.6-3.1-.8-1.3 1.1-.1 2.3.4 3.4 4.3 9 8.8 17.8 12.9 26.9 6 13.3 13 26.2 18.9 39.6 4.3 9.9 8.3 20.1 14 29.5 1.8 3 3.2 6.3 4.8 9.4.4.8 1 2.1 2.3 1.6 1.1-.4.7-1.6.6-2.5-.5-4.2-2.4-8.5.3-12.6.2-.3.1-.8 0-1.2-1.4-4.6.7-9.5-1.5-14.3-1.5-3.2-1.2-7.1-1.8-10.7-.3-1.8-1-3.3-3-3.5-3-.3-4.2-2.2-4.3-4.8-.1-2.9-1.4-3.9-4.2-4.3-2.9-.4-6.2-.8-7.3-4.3-.7-2.8-1.4-5.4-.8-8.4zM294 369c.5-2.1-.1-3.9 1.5-5.2.6-.5.6-2 .1-2.3-1.6-.9-1.6-2.3-2-3.8-.1-.7-.6-1.8-1.6-1.5-.8.2-.6 1.2-.8 1.9-.1.8.8 2.4-.5 2.4-2.9.1-4.2 2.7-5.9 4.1-2.1 1.7-3.5.7-5.3.8-2.1.1-3.6 0-5-2-1.6-2.2-3.4-4.9-6.5-4.9-5.5-.1-11.4 5.7-10.4 11.7.4 2.3 1.6 4.2 1.2 6.8-.3 1.8.7 4.7 4.1 3 1.3-.6 1.3.7 1.6 1.3.9 1.6 2.3 3.5 4 2.8 3.3-1.4 4.4.9 5.3 2.9.9 2.1 3.6 3.4 3.3 5.8-.3 2 .6 3.1 1.6 4.4.7 1 1.7 1.7 2.9 1.1 1.3-.7.9-1.9.3-3-3.4-5.9-3.1-12.8-5.1-19.1-.5-1.5.2-2.5 1.5-3.7 1.7-1.5 4.2-1.4 5.5-2.7 1.3-1.3 1.7-.7 2.9-.3 3.1 1 2.5 3.5 2.4 5.6-.1 2.4.2 4.7 2.6 5.4 2.2.7 3.7 3.1 6.5 2.2.9-.3 1.4.8 1.6 1.6 1.3 3.5 4.5 3.3 7 3.2 2.6-.1.7-3 1.4-4.4 0-.1 0-.2.1-.3 1.6-4.4 1.4-9.2 2.3-13.8.9-4.9-.8-10.2-1.4-15.4-.1-.7-.8-1.4-1.2-.9-1.8 2.3-5.2 1.7-6.9 4.1-.8 1.1-1.5 2.6-3.7 1.9-1.1-.4-1.4 1.1-.9 2.3 1.3 2.9.4 6-2.5 8zm25.6-202c.5-3.1 1.3-6.1-2.4-7.9-1-.5-1.5-2-.5-3.3 1.1-1.4.7-2.7-.1-4-.8-1.2-2.3-2.8-2-3.6 1.8-4.3-1.5-4.5-3.9-4.8-2.2-.3-5.4-.8-6.6.4-2.8 2.9-4.9 6.2-9.3 7-.3.1-.5.6-.8.9-2.2 2.1-.6 5.4-2.3 7.7-.1.2 0 .8.2.9 3.2 1.6 5.2 5.3 9.2 5.8 1.4.2 2.2.6 2 2.1-.3 2.5 1.4 2.1 2.8 1.8 2.3-.5 4.5-1.6 7.3-1.8-.6 1.5-1.4 3 .4 3.9.8.4 1.6.6 2.4.2 1.8-1 .3-2.4.4-3.7 0-.9-.4-1.8.5-2.5 1.2-1 1.5 1 2.7.9zm-24 56.2c1.4-3.3.4-5.5-2.3-6.1-1.9-.5-3-1.6-3.8-2.9-.8-1.4-1.9-2.5-3.3-3.2-1.9-1.1-3.5-2.3-4.5-4.5-1.2-2.8-3.7-1.7-5.7-1.1-2.2.7-1.4 2.5-1.1 3.9.7 3.2 3.2 5.6 4.4 8.5 2.5 6.1 7.3 7.7 13.2 7.6 1.9 0 2.2.6 1.7 2.2-.3 1-.4 2-1 2.9-1.8 3-1.3 3.4 1.9 4.9 6 2.7 12.5 4.6 17.3 9.5.7.7 1.5 1.3 2.4.8 1.1-.7.4-1.6.1-2.5-1.7-6.1-5.5-11.1-8.7-16.5-2.3-4.1-6.5-5.5-10.6-3.5zm33.6 141.7c-1 0-1.3-1.7-2.3-1.2-2.2 1-2.3-.6-2.9-1.9-1.1-2.4-1.1-5-1.8-7.5-.3-1-.7-2.5-2-2.5-1 0-1 1.4-1.4 2.2-.3.7-.4 1.4-1.1 1.8-.6-.2-.6-.8-.8-1.3-.3-.6.3-1.7-.7-1.8-1.1-.1-1.6 1.1-1.7 1.9-.3 2-.3 4.1-.4 6.2-.1 1.5.4 2.5 1.9 3.1 1.8.7 3.4 2 4.8 3.4.9 1 .7 3.2.6 3.2-3.1-1.1-2 2-2.8 3-1.3 1.6 1.2 6.3 2.9 6.2 4.3-.2 8.7-.9 12.8 1.3.9.5 2.1.3 2.8-.7 1-1.4.3-6.3-1-7.7-.8-.9-3.3-1-1.9-3.1.8-1.2.1-2.8 1.5-4 1.3-1.1.7-5.2-.9-6.8-2.2-2.2-4.4-.7-6.2.4-2.4 1.4-.3 3 .3 4.5.1.4.1.9.3 1.3zM296.4 332c-3.6-2-4.1.1-4.2 2.5-.1 2-.4 4-.2 5.9.2 2-.3 4.9 3.5 3.6.3-.1.7.3 1 .5 2.3 1.5 7.3 1.2 9-1 1.4-1.8 2.1-2.1 3 .2.3.8.9 1.6 1.9 1.2.8-.2 1-1.1 1-1.8-.4-4 1.3-7.9.1-12-.6-1.9-1.2-2.9-3.3-3-3.6-.1-7.2-.4-10.9-.6-1.4-.1-3.4-.5-3.9 1.1-.7 2 1.9 1.6 3 3.4zm47.7 121.3c.2-1.9-.2-2.5-.9-3.1-4.1-3.4-7.2-7.7-11.5-10.8-1.2-.9-2.3-2.2-3.8-1.2-1.5 1-2.8 2.9-2.2 4.5 1.4 3.8.3 7-1.3 10.3-.6 1.2-.4 1.8 1 2.2 1.9.6 4.9 1.2 5.5 2.1 2.7 4.5 5.2 2.4 7.9.5.3-.2.8-.2 1.1-.5 1.7-1.4 3.9-2.4 4.2-4zm-59.9-96.2c1.1.2 1.9-.2 2.8-1 2.6-2.2 1.5-5.1.8-7.5-.5-1.7-.2-2.3.7-3.4 1.2-1.4 2.4-3.2.8-5-2.1-2.5-8.6-1.6-9.6 1.4-.8 2.2-1.6 2.3-3.4 1.4-2-1-3 .1-2.7 2.1.4 3.1 1.1 6.1 1.7 9.2.1.7.7 1.1 1.3 1.2 2.6.1 5 1.2 7.6 1.6zm23.1 52.8c.4 1.5 1 2.4 2.1 2.5 2.7.4 3.1 2.5 2.8 4.4-.3 1.9.3 3 1.8 3.4 2.7.7 4 3.1 5.7 4.7 4.5 4.3 8.8 8.8 14.7 11.3 1.4.6 3.1 2.1 4.1.6.9-1.4-1.3-2.5-2.1-3.8-.1-.2-.3-.3-.5-.4-4.8-4.3-9.6-8.6-14.4-12.8-4.3-3.7-8.1-8.1-14.2-9.9zm16.3-163.8c-1.1 6.9-3 13.6-4.3 20.3-.2 1.1.1 3.3.2 3.3 2.7.1 1.2 1.8 1.1 2.8 0 1.4-1.2 2.8-.7 4.2.5 1.5.3 4 2.2 4 1.8 0 1.7-2.3 1.7-3.8 0-1.9.6-1.7 2-.9 2.3 1.3 3.8.2 3.6-2.5-.1-1.3-.5-2.7-.5-4 0-3.4-.3-3.8-3.7-3.1-.5.1-1 .4-1.4-.3.2-1.2 1.9-2.1 1.4-3.5-1.1-3.2-.2-6.3-.2-9.4 0-2.4-.9-4.7-1.4-7.1zM235.4 365c-1.5 0-4.3-.8-4 3.2 0 .3-.4.7-.6 1-.5.9.8 8 1.6 8.6.3.2.8.3 1.1.4 2.1.2 4.1.2 6.2.5 2.2.3 3.2-.6 3-2.7-.2-2-.1-3.9.1-5.9.4-3-1.1-4.5-3.9-4.8-.8-.1-1.7-.2-3.5-.3zm47.5 19.9c.6 1 1.5 1.8 1.7 2.9 1.3 7.7 7.2 12.5 11.4 18.4 1.1 1.5 2.6 1.6 4.1.5.9-.7 1.1-6.1.6-7.2-1.3-2.7-4.1-3.8-6.1-5.7-3.6-3.3-7-6.8-11.7-8.9zM245 353.8c-.1 1.1.4 1.5 1.1 1.9 4.2 2.2 7.4-.5 10.7-2.3 3-1.6 2.1-6.1 5.1-8 .5-.3 0-1.2-.4-1.7-1.4-1.6-3-2.2-4.9-.9-1.8 1.2-3.7 2.3-5.7 3.2-3.3 1.6-4 5.3-5.9 7.8zm12.2-25.5c-.2 1.7 1.7 3.9 2.1 6.6.1.8 6 .6 6.5-.1s.1-1.1-.4-1.6c-.8-.7-1.6-1.4-2.2-2.2-.7-1-1.5-2.5-.4-3.3 1.1-.9 2.6-.1 3.5 1 .5.5.8 1.2 1 1.9.2.6-1 1.7.6 1.7.9 0 1.2-.8 1.4-1.8.6-3 0-5.7-1.3-8.3-1.2-2.6-2.5-3.1-4.6-1.3-1.5 1.2-1.8 1-2.6-.6-.5-1-2.4-1.2-2.3 0 .4 2.5-1.2 4.5-1.3 8zm31.5.4c0-.4-.1-.8-.1-1.2 0-1.7 0-3.4-1.2-4.7-1.4-1.4-2.1.9-3.2.8-.5 0-1-.1-1.5-.1-5.3-.4-7.2.8-8.6 5.8-.4 1.6-.4 3.8.8 4.6 1.5 1 2.4-.9 3.2-2.1.3-.4.7-.8 1.1-1.1 2.5-1.8 4.8-1.1 5.1 1.5.1.9-1 2.3.4 2.7 1.2.4 1.9-1 2.8-1.7 1.6-1.1 1.3-2.8 1.2-4.5zm7.3 152.8c1.6-.3 3.3-.4 4.9-.8 2.3-.6 3.3-2.2 2.4-4.5-1.2-3.1-1.9-6.4-3.8-9.2-.7-1-.8-2.8-2.2-2.7-1.7.1-1.5 2-1.7 3.3-.7 3.6-.9 7.3-1.9 10.7-.8 2.7-.4 3.5 2.3 3.2zm-20.4-177.9c.1-.7.2-1.6-.5-1.9-.9-.4-1.4.2-1.6 1-.3 1.1-1 .5-1.7.5-2.6.3-3.4 2.7-4.6 4.5-.9 1.3.3 2.2.9 3.2 1.2 1.9 2.3 3.9 2.9 6 .4 1.5.9 3.1 2.2 3.3 1.3.1 1.4-1.8 1.9-2.9 1.7-4.5.5-9.1.5-13.7zm48.4 43c-.3 2 1.4 3.7.8 5.8-.2.5.4.9 1 .9 2.8-.2 5.4-4.9 4.3-7.5-2.2-4.9-3.8-9.8-1.2-15.1.6-1.2.1-2.3-1-3-1.1-.7-1.7.3-2.4.9-1.3 1.1-2 2.6-1.7 4.2.8 4.5 1.7 9.1.2 13.8zM246.3 388c0 .6.1 1.6 1.1 2 1 .4 2.2.8 3.2-.2 1.8-2.1 2.6-1.4 2.7 1 .1 1.5.6 2.2 2.1 1.7 1.4-.4 1.8-1.5 1.1-2.7-.8-1.3-.9-2.5-.7-3.9.2-1.8-.7-3.3-1.7-4.6-1-1.3-3.8-2-4.2-1.2-1.1 2.5-3.3 4.6-3.6 7.9zm99.5-72.7c1.4.1 2.9-.3 3.8.6 1 1 1.5 2.6 3.3 2.3 1.9-.4 1.2-2.4 1.9-3.5.3-.4.6-.9.8-1.3 1-1.6.9-3.1-1-3.8-1.8-.6-3.6-.7-3.9 1.9-.1.8-.1 1.7-1.1 1.1-1.9-1.1-4.2 0-6-1.3-.6-.4-1.4-.5-2 .2-.8 1-.7 2.1-.4 3.2.2.8.9 1 1.7 1 1.1-.1 2.1-.3 2.9-.4zm-17.7-28.6c-.2-1.9-.4-4.5-.7-7.1-.1-.9-.3-1.7-1.4-1.8-.9-.1-1.3.5-1.6 1.2-2.1 4.5-2 9 .1 13.4.3.7.6 1.4 1.6 1.3.9-.1 1.1-.9 1.3-1.5.6-1.5.5-3.2.7-5.5zm-16.3-34.5c-1.2-2.2.4-6.1-3.6-7.4-.4-.1-.6-.8-.9-1.3-1.1-2.3-3.8-1.3-5.4-2.6-.4-.3-1 .4-1 .9.1 2 .7 4.4 2.4 4.7 3.8.8 4.5 4 6.2 6.5.4.6.5 1.5 1.4 1.3 1.1-.2.9-1.1.9-2.1zm-27.8 60c.3 1.7.6 3.5.9 5.2.3 1.3.9 1.4 2 .7 2.2-1.6 4.2-7 3.5-9.7-.2-.9-.8-1.3-1.8-1.3-3.5.1-4.6 1.3-4.6 5.1zm-33.6 98.5c1.6 2.6 2.7 1.7 4.3 0 1.1-1.3 1.5-2.7 2-4.1.3-.9.1-1.7-.6-2.2-.8-.6-1.6-.3-2.3.1-2.4 1.3-4.1 3.4-5.9 5.3-1.2 1.2-.7 2.9.4 4.2.4.5 1 .9 1.6.6 1.7-1-.4-2.3.5-3.9zm66.4-165.2c.2 1 .3 1.8.4 2.6.1.5.5 1 1.1 1 .6 0 1.1-.5 1.1-1-.1-2.8 1.7-5 2.1-7.6.4-2.1-.3-4.1-2.1-5.5-.6-.5-1.2-1.3-2.1-.8-.9.5-1.3 1.5-.9 2.4 1.1 3 1.5 6 .4 8.9zm35.9 204.3c-.1-.3-.1-.7-.3-.9-3.2-3.1-6.4-6.2-9.7-9.2-.6-.5-1.4-.3-2 .3-.7.7-.7 1.6 0 2.2 3 2.9 5.9 5.8 9 8.5 1.2 1 2.4.7 3-.9zm-128.8 85.7c.1.2.2.5.4.7.5.6 6.5 1 7.1.4 1.6-1.3 3.1-2.7 4.6-4.1.5-.4.9-.9.5-1.6-.4-.6-1.1-.5-1.7-.2-2.8 1.6-6 2.3-9.1 3.1-.7.3-1.5.7-1.8 1.7zm-24 22.9c-.5-1.2-.9-2.8-1.8-3.9-1-1-2.6-2.1-4.2-1.1s-.4 2.4 0 3.6c.4 1.1 1 2 1.5 3s1 2.3 2.4 1.8c1.5-.4 1.8-1.8 2.1-3.4zm15.2-18.7c1.4 2.1 2.9 3.9 4 5.9 1.2 2.1 3.2 2.6 5.2 2.9.7.1 1.5.3 1.9-.5.5-1-.3-1.6-1-2-3.2-2.1-5.5-5.6-10.1-6.3zm164.7-227c1-.4 2.2-1.2 2.2-2.3 0-1.8-.2-3.7-.8-5.3-.5-1.4-1.8-2.7-3.7-1.9-1.2.5-.8 1.7-.5 2.7.7 2.3.3 5 2.4 6.8h.4zm-85 105.8c-3.2.3-6.2 1-7.9 4.1-.4.7-1 1.5-.2 2.3.8.7 1.6.3 2.2-.4 1.1-1.2 2.5-1.7 4.1-2 1.1-.2 2.2-.6 3-1.6.4-.5.6-1.1.4-1.7-.4-.7-1-.9-1.6-.7zm23.8-79.1c.1.5-.4 1.7.8 2.3 1.1.6 2.1 0 2.8-.7 1-.8.7-1.9.1-2.8-.9-1.2 0-2.1.3-3.2.5-1.6-.5-2.2-1.8-2.6-1.6-.4-1.7.8-1.8 1.8-.2 1.7-.3 3.2-.4 5.2zm8.4 129c2.3.2 4.2-1.2 5.4-3.5.4-.8.4-1.9-.9-1.5-1.5.5-3.1.3-4.6.5-1.6.3-2.5 1.5-2.5 3.1-.1 1.6 1.1 1.5 2.6 1.4zm-129.6 80.3c.4.7.7 1.6 1.2 2.4.8 1.4 1.8 2.6 3.6 2.6 1 0 1.5-.7 1.5-1.6.2-1.9-.8-3.1-2.5-3.9-.7-.3-1.2-.8-1.9-1-1.3-.7-1.8.1-1.9 1.5zm75.1-262.3c.9-2.4-.4-3.9-1.8-5.3-.9-.9-1.9-.8-2.7.1-1 1.1-1.9 2.4-1.2 3.9.5 1.1 1.7 1.5 2.6.7 1.4-1.1 2.2.3 3.1.6zm-41.2 315.4c-.4-1.2-1.1-2.2-2-1.4-.7.6-2.1.7-2.1 2s-.3 1.7-1.3.4c-.3-.5-.9-.5-1.4-.2-.4.3-.5.8-.2 1.1 1.1 1 2.2 2.2 3.5 2.9 1.3.6 3 .1 3-1.5.1-1.2-2.1-2.5.5-3.3zM387 311c-.4-1.4-.6-2.7-1.1-4-.4-1-1.1-1.9-2.4-1.2-1 .6-.8 1.6-.2 2.4.7.8 1.1 1.5 1.1 2.7 0 1.4-.5 3.7 1.4 3.7 1.4 0 .4-2.5 1.2-3.6zm-46.6-7.5c1.3 0 2.9.2 2.9-1.5-.1-2.1-2.1-2.4-3.7-2.6-1.4-.2-2.6.8-2.6 2.1-.1 2.4 2.1 1.5 3.4 2zm-62.9-9.8v-1.2c-.1-1 .3-2.6-1.3-2.7-1.2 0-1.2 1.4-1.4 2.4-.1.3-.2.6-.1.9.2 1.6-.4 4.4 1.4 4.4 1.9.2.9-2.6 1.4-3.8zm-7.4 206.5c1.4-.2 4.9-6.5 4.2-7.5-.7-1-1.2-.4-1.6.3-1.1 1.9-2.1 3.8-3 5.7-.4.6-.7 1.4.4 1.5zm120.1-190.3c-1.4.1-1.4 1.3-1.4 2.1-.1 1.5.3 3 2 3.4.9.2 1.8-.3 1.6-1.3-.2-1.7-.7-3.3-2.2-4.2zm-126.6-87.4c-.7-1.9-2.5-2.1-4.2-2.5-.7-.2-1.9 0-1.6.8.7 1.8 2.6 2.5 4.3 3.1.8.2 1.4-.5 1.5-1.4zM220.1 353c.7 1.5 1.2 2.7 1.7 3.9.3.5.6 1.2 1.3 1 .7-.1.9-.7 1.2-1.3.9-2-.3-3.2-4.2-3.6zm-19.2 188.7c.5 2.4 2.3 3.1 3.5 4.2.5.5 1.1.5 1.7 0 .7-.7.3-1.3-.2-1.9-1.3-1.2-2.8-1.9-5-2.3zm13.4-202.8c-1 0-1.9.2-1.6 1.1.5 1.9 2.4 1.5 3.8 1.9.5.2 1.6.2 1.5-.5-.4-1.9-2.5-1.8-3.7-2.5zm40.3-72.5c0-.8-.3-1.6-1.2-1.3-1.5.4-2 1.6-2.1 3.1 0 .7.3 1.4 1 1.1 1.4-.4 2.3-1.4 2.3-2.9zm59 58.2c1.4-1.9 1.9-3.6 2.1-5.4.1-.5 0-1.1-.6-1.3-.6-.2-1 .2-1.2.7-.4 1.8-1 3.6-.3 6zm-42.2 152.3c.9-.1 2.1.1 2.2-1.4 0-.9-.6-1.6-1.5-1.4-1 .2-2.6 0-2.7 1.4-.3 1.1 1 1.1 2 1.4zm-7.7-259.5c-.6.2-1.9-.2-1.6 1.1.3 1.2 1.4 1.8 2.6 1.9.9 0 1.8-.6 1.7-1.4-.1-1.6-1.6-1.3-2.7-1.6zm6.2 269c-.3-.9-.9-1.2-1.9-1-.9.2-2.1.2-2.2 1.3-.1 1.3 1.1 1.3 2 1.3 1 0 1.9-.3 2.1-1.6zm55-169.5c-.1-.9-.6-1.7-1.6-1.5-1.1.2-1.3 1.2-1.4 2.1-.1.9.4 1.8 1.3 1.7 1.2-.1 1.5-1.3 1.7-2.3zm55.5 16.9c1.1 2.8 3 4.3 5.5 3.9-2.2-1.1-3.3-3.2-5.5-3.9zM206 539c-.7-.1-1.1.2-1 .8.2 1.3 1.2 1.9 2.2 2.3.9.3 1.4-.6 1.3-1.3-.2-1.3-1.7-1.3-2.5-1.8zm80.3-279.1c-1.1.4-2 .9-2.1 2.2 0 .7.3 1.3 1.1 1.2 1.4-.1 1.6-1.3 1.9-2.4.1-.6-.3-1-.9-1z"/><path d="M228.7 490.1c-1.4-5.2 2.7-7.9 4.9-11.6.8-1.4 1.6-2 3.1-.9 1.3.9 3 .6 4.6 1-.5 1.4-1.8 1.9-2.5 2.5-1.9 1.5-3.2 2.3-.2 4 .8.4.5 1.6-.2 2.2-.9.8-1.5.2-1.9-.6-.3-.7-.5-1.8-1.6-1.5-1.1.3-.5 1.4-.5 2.1-.1.9-.1 1.9-.4 2.7-.4 1.4-1.1 2.9-2.5.6-.9-1.8-2.1-1-2.8-.5zM352.2 476.2c.9.9.6 2 1 2.7 1 1.8 1.1 2.8-1.5 2.8-1.9-.1-2.7 1.3-3 3-.3 1.4-.8 2.6-2.2 3.2-.6.3-.9.6-1.5-.2-2.3-3.6-5.1-4.2-8.7-2.2-.8.5-1.5 1.1-3.1.7 1.6-2 2.9-4 5.4-4.1 2.4-.2 4.4-.9 6.4-2.1 1.1-.6 2.1-1.2 3.7-.6 2.7 1.1 1.9-2.3 3.5-3.2zM220 236.1c-1.5-4.2.4-7 2.9-9.7 2.8-3 6.1-4.9 10.3-5 .6 0 1.4-.4 1.7.3.4.8-.3 1.5-1 1.7-4.1 1.3-5.9 4.8-8.2 7.9-1.4 2-3.4 3.4-5.7 4.8zM351.7 529.9c-.1-.1-.4-.3-.4-.4-.3-2.9-.6-5.6-1.5-8.5-1.1-3.6-2.7-8.2.9-12 .8-.9.1-1.5-1-1.6-1.7-.3-2.3-1.5-1.2-2.6 1.7-1.8 1.7-3.9 2-6 .2-1.1.2-2.6 1.8-2.3 1.2.2.7 1.5.5 2.4-1.9 9.9-1.4 19.8-.9 29.7.1.4.3.9-.2 1.3zM205.9 292.4c-.4-3.3-.7-6.6.7-9.8.3-.7.2-1.9 1.5-1.6 2.5.6 4.4-.2 6.4-1.8 1.2-.9 3.2-1.6 4.8.1 1 1 2.5-.1 4.1 1.2-3.6.6-6.6 1.7-9.6 2.5-1.6.4-2.9 1-4.2 1.9-.7.5-1.4 1.1-1.1 2 .3 1.1 1.3.7 2.1.7h2.4c-2.5 2.4-6.1 1.7-7.1 4.8-.1 0 0 0 0 0zM335.1 581.7c-3.3-.3-6.5.8-10 .1 2-2.4 4.8-2.3 7.1-3.1 1.7-.6 3.9 0 5.9.2 1 .1 1.7.6 2.1 1.6.4 1.1-.2 1.8-.8 2.5-2.4 2.4-5.7 2.8-8.7 4-.5.2-1.2-.1-1.1-.7.1-1.2.6-2.2 1.9-2.6 1.2-.4 2.6-.2 3.6-2zM246.5 483c2.6-1.4 4.9-1.1 7.1 0 1.8.9 1.6 2.8 1 4.4-.3.8-1.2 1.1-2.1 1.1-1-.1-1-.8-.9-1.6.2-1.3-.5-1.9-1.7-2.1-1.1-.3-2.2-.8-3.4-1.8zM241 497.1c.3 1.3-.5 2-1.5 2.6-1.3.9-1.9.2-1.6-.9.5-2.3.2-4.2-1.8-5.7-.7-.5-.7-1.5.1-2.1.7-.6 1.4-.2 1.8.5.9 1.9 3.1 3.1 3 5.6zM218.6 499.8c.7-3.9 3.3-6.6 5.6-9.4.4-.5 1-.8 1.6-.4.5.3.7 1 .2 1.3-3.1 2.3-4.8 5.8-7.4 8.5zM331.5 526.9c1 2.3.3 4.8.3 7.1 0 1.1-1.6 1.4-2.8 1.7-.4.1-.8-.2-.9-.7-.2-1 .2-1.6 1.1-2.3 1.9-1.5 2.1-3.6 2.3-5.8zM341 493.3c-1.4 2.9-2.8 5.9-4.2 8.8-.3-.1-.5-.2-.8-.3 2.2-2.7.6-6.9 4.1-9 .3.2.6.4.9.5zM326.5 593c2.8-1 5.7-1.9 8.8-2.2-1.7 1.7-1.7 1.7-8.8 2.2zM298.1 305.1c3.3-.4 4.5-2.6 6.3-4.1 1 3.9-.7 5.2-6.3 4.1zM305.5 288.6c-.5 1.9 3.5 1.9 1.8 4.2-.3.4-1.4.7-1.6.4-1.5-1.3-.4-3-.2-4.6zM303 263.9c1.4.9 1.8 2 1.4 3.3-.2.6-1 .3-1.3.1-1.3-1.1-.3-2.1-.1-3.4z"/><path fill="none" d="M399.8.2h100v800h-100z"/><path d="M450.1 630.6v-10.7h40.8v-24.7l8.8 1.2v34.2h-49.6zM462.5 595.1v-5.7h-10.1v-10.3h10.1v-7.3h7.8v7.3h18.4c2.8 0 3.9-.9 3.9-3.9 0-.6 0-1.6-.1-2.3h7.1c.7 2 .7 4.9.7 6.9 0 7.3-3.9 9.7-10.4 9.7h-19.6v5.7h-7.8zM499.7 503.5v7.9c-1.5.4-3.2.7-4.9.8 3.7 2.8 5.7 7.6 5.7 14.5 0 14.4-10.9 22.5-25 22.5-14.9 0-26.2-8.7-26.2-24.3 0-12.8 7.2-20.3 15.7-21.5V514c-3.3 1-7.3 3.6-7.3 10.9 0 10.2 8.5 13.1 17.3 13.1 8.5 0 17-3.3 17-13.2 0-9.2-6.4-10.9-10.8-10.9h-.4v10.9H472v-21.4h27.7zM472.6 494.2c-3.7 0-7 0-10.1.1v-10.1c.8-.1 4.5-.3 6.5-.3-4.3-1.6-7.4-5.6-7.4-12h9.8c-.2 7.5 1.8 12 12 12h16.2v10.3h-27zM483.3 458.2c4.7 0 9.2-2.3 9.2-7.5 0-4.3-1.7-5.5-4-6.5v-10.3c4.6 1.3 12.1 5.4 12.1 17.1 0 12.3-9.2 17.6-19 17.6-11.7 0-20-6-20-18 0-12.8 9.3-17.2 18.6-17.2 1.3 0 2.1 0 3.1.1v24.7zm-6.3-14.3c-4.3.1-8 1.8-8 6.8 0 4.9 3.4 6.9 8 7.3v-14.1zM483.3 417.6c4.7 0 9.2-2.3 9.2-7.5 0-4.3-1.7-5.5-4-6.5v-10.3c4.6 1.3 12.1 5.4 12.1 17.1 0 12.3-9.2 17.6-19 17.6-11.7 0-20-6-20-18 0-12.8 9.3-17.2 18.6-17.2 1.3 0 2.1 0 3.1.1v24.7zm-6.3-14.4c-4.3.1-8 1.8-8 6.8 0 4.9 3.4 6.9 8 7.3v-14.1zM471.9 385.6c-3.2 0-6.6 0-9.4.1v-10c1-.2 3.6-.3 4.7-.4-2.3-1.3-5.6-4.3-5.6-10.8 0-7.5 5.1-12.4 14.4-12.4h23.7v10.3h-22.6c-4.2 0-7.2 1.4-7.2 5.9 0 4.4 2.4 6.9 9 6.9h20.8v10.3h-27.8zM462.5 336.4c15-3.4 23.5-5.2 28.1-5.9v-.1c-4.1-.8-10-1.8-28.1-6.4v-9.6c18.3-4.2 23.7-5.5 27.7-6v-.1c-3.8-.8-9.4-1.9-27.7-6.2v-10.2l37.3 11.1v11.1c-14.1 3.1-21.6 4.8-26.5 5.7v.1c4.7.6 13.1 2.6 26.5 5.9v11.1l-37.3 10.6v-11.1zM481 252.2c11.3 0 19.6 6.7 19.6 18.6 0 11.6-8.2 18.3-19.4 18.3-11.5 0-19.6-7-19.6-18.8 0-11 7.8-18.1 19.4-18.1zm.1 26.4c7.2 0 11.4-3.1 11.4-8.1 0-5.1-4.3-7.9-11.4-7.9-7.8 0-11.5 2.9-11.5 8 .1 4.9 3.6 8 11.5 8zM481 210c11.3 0 19.6 6.7 19.6 18.6 0 11.6-8.2 18.3-19.4 18.3-11.5 0-19.6-7-19.6-18.8 0-11 7.8-18.1 19.4-18.1zm.1 26.4c7.2 0 11.4-3.1 11.4-8.1 0-5.1-4.3-7.9-11.4-7.9-7.8 0-11.5 2.9-11.5 8 .1 4.9 3.6 8 11.5 8zM447.2 168.3h42.3c3.4 0 6.8 0 10.2-.1v9.9c-1.1.2-3 .4-3.9.5 2.9 1.8 4.8 5 4.8 10.6 0 9.4-7.6 15.4-19.2 15.4-11.5 0-19.8-6.4-19.8-16.9 0-5.4 1.9-8.2 3.6-9.1h-18v-10.3zm33.9 25.7c7.3 0 11.2-2.8 11.2-7.9 0-7.1-5.9-7.9-11.3-7.9-6.4 0-11.2.9-11.2 7.6.1 5.5 4.3 8.2 11.3 8.2z"/><path fill="none" d="M499.9 100.2h200v600h-200z"/><path d="M664.7 503c8.3-2.7 13.7-7.7 13.7-19.7 0-20.1-24.4-22.3-40.2-23.1 8.2 6 11.9 17.3 11.9 29.7 0 29.4-20.1 46.1-45.7 46.1-27.9 0-49.1-19.4-49.1-52.3 0-40.2 31-53.9 66.2-53.9 40 0 80.9 10.3 80.9 54.9 0 33.1-20.2 46.6-37.7 49.2V503zm-61.8 1.8c14.5 0 23.3-8.4 23.3-21.8 0-13.7-7-21.1-22.7-21.1-9.5 0-24.2 3.9-24.2 21.6.1 14.2 10.4 21.3 23.6 21.3zM630.8 348.4h26.9v60.1h-26.9v-60.1zM699.9 305.6H593.6c3.1 6.6 5.6 18.6 6.2 25.7h-23.1c-2.5-13.5-10.1-27.1-19.1-35.2v-21.8h142.3v31.3z"/></svg>