<svg xmlns="http://www.w3.org/2000/svg" xml:space="preserve" viewBox="0 0 800 800"><path d="M261.8 215.7c3.3.8 5.7 2.2 7.9 3.9 1.5 1.2 3.1 2.3.2 4.3-2.4 1.7 1.3 3.1 1.2 5.4-1 12.4 2.6 24 7.8 35.1 4.9 10.4 6 10.9 16 6.3 1-.4 2.2-.3 3.1-.8 9.8-6.7 21.8-8.7 31.9-14.5 9.6-5.5 20.3-7.7 29.9-12.7 3-1.5 6.7-2.1 7.1-6.5.1-1.2 1.2-1.7 2.4-1.7 3.7.1 7.2-.6 10.5-2.5 1-.6 2.7-.7 3.2 1 .4 1.3-.5 2.1-1.5 2.5-4.1 1.7-6.7 5.4-11.3 7.1-5.6 2-7.1 8.3-7.6 14-.1 1.7-2 5.6 3 6 1.3.1 2.6 3.2 3.5 5.1 3.5 7.7 8.4 14.6 13.5 21.4 1.1 1.4 4 2.4 1.2 4.3-1.6 1-3.6 1.1-5.2-1.7-4.7-8.3-8.8-17.1-16.4-23.5-1.8-1.5-2.7-4.2-5.5-3.9-3.3.4-2.4 3.5-3.1 5.6-2.8 7.8-4.1 15.9-4.4 24.1-.1 2.9-1.7 3.8-3.6 4.6-1.7.8-3.4.3-4.4-1.5-1.2-2.1-.5-4 1.2-5.1 2.9-1.9 2.7-4.6 2.6-7.3-.3-7.1 4.8-12.5 5.3-19.5.3-3.7-.7-4.2-3.4-4.2-4.9 0-9.5 1.2-11.8 6.1-1.5 3.2-4.6 3.6-6.9 5.5-6.1 5-10.9 11.2-16.1 17.1-2.1 2.4.4 4.8.1 7.3-.3 3.4-6.7 13.2-9.9 14.2-2.2.7-3.3-.3-3.5-2.4-.5-3.9-2.3-7.6-6.3-7.8-3.9-.2-7.4.7-10.6 4.9-3.6 4.6-7.5 10.4-14.3 11.9-2 .4-2.4 1.5-1.6 4.2 1.6 5.7 4 10.9 7.4 15.6 1.1 1.6.9 3.3 1.3 4.9.4 1.6.3 3.2-1.8 3.4-1.9.2-2.2-1.3-2.7-2.9-1-3.2 0-9.1-6.7-5.8-1 .5-2.2 1.2-1.5 2.4 4.3 7.4 4.5 15.8 5.6 23.9.6 4 4.7 3.4 5.8 6.3 1.9 5.3 4 2.1 6.5.3 1.8-1.3 2.5 0 2.6 1.9.9 11.6 2 23.1 2.8 34.7.2 2.5 1.8 4.3 2.7 6.3 2.6 6.1-1.6 10.4-3.1 15.2-2 6.4 2.1 8.4 6.1 10.7 5.7 3.3 12.1 4.3 18.4 5.5 5.5 1 8.3 5.3 5.4 9.9-3 4.8-6.5 9.8-13.1 9.9-10.6.1-20.6 4-31.1 4-4.1 0-8.2 1.4-8.1-7.2.1-8.3 2-17-.3-25.4-.8-2.7-2.1-5.6-4.2-6.5-7.4-3.1-6-8.4-5.2-14.4.6-4.4-.7-9-2.1-13.3-2.4-7.3-1.3-15.1-2.8-22.6-1.3-6.3-5.3-11-6.6-17.1-.9-4-8.8-3.6-10.8.9-5 11.6-13.6 20.5-21.3 30-1.6 2-2.9 4.3-3.8 6.7-3.5 9.2-8.1 17.3-17.4 22.1-5.9 3-9.3 13.3-8.7 19.9.5 5.4 5.3 5.5 8.2 7.7 2.8 2.2 5.1 4.6 6.5 7.6 2.6 5.7-1.1 10.4-7.3 10.8-10.2.7-19.2-.4-24.7-10.8-1.1-2.1-4.5-1.3-6.5-2.3-5.2-2.9-11.9-3.9-13.8-11.4-.5-2.2-.3-3.2.5-5 3.3-7.2 10.1-11.5 14.3-18 3.7-5.8 6-11.5 4.7-18.6-.8-4.3 1.2-9.1 4.2-11.6 5.4-4.5 7.6-11 10.3-16.5 4-8 10.4-13.3 15.7-19.7 3.3-4 4.7-8.4 6.3-13.4 2.1-6.7-2-13.3 1.9-19.6 2.4-4-4.2-5.6-4.5-9.6-.1-1.4-2.3-2.9-1.4-4.6 3.4-6.2 1.2-12.6.7-18.8-.5-6.7 1.5-11.5 6.8-14.7 4.8-2.9 5.1-8.3 5.3-12.1.1-3-4.3-7.4-7.8-9-2-.9-5.5 3-7.4 6-5.7 9.3-11.6 18.6-17.6 27.8-.7 1.1-1.1 3.3-3.1 2.6-2.3-.8-1.4-2.8-.9-4.4.5-1.6.6-3.6 1.6-4.8 8.7-11.1 15.1-23.7 22.9-35.4 1.6-2.4 2.4-4.6 2.8-7.5 1.2-8.6 4.9-16 9.5-23.7 7.6-12.6 18.3-13.1 30.3-12.8 2.8.1 6.7 1.6 8.1-1.9 1.2-3-1.7-4.8-4.3-6.2-1.7-.9-2.3-3.4-1.2-4.5 2.5-2.6 1.3-5.7.9-8-1.4-7.3 2.6-12.9 5.1-18.8 1.5-3.7 15.7-6.8 21-5.8 10.7 1.9 16.3 9.2 19.4 18.7.6 1.8 1.2 3.4 2.3 5.1 1 1.6 2.3 4.5 1 5.4-6.8 5.1-2.7 14-7.7 20-2.8 3.4-4.2 7.5-8.2 10.7-4.5 3.2-7.8-2-11.4 1.5zm-94.6 182.5c.2 1.7-.6 3.7 1.6 4.5 3.9 1.6 8 2.3 11.8.1 2-1.2 3-2.7 4.9.2 1.2 1.8 3.5 1.5 5.2.3.8-.5 1.1-1.7 1.6-2.6-4.4-2.2-6.5-5.8-6.9-10.6 0-.3-1.9-.7-3-.7-3-.2-3.4-1.6-1.7-3.7 4.1-5 5.9-12.9 15.1-11.9 1.8.2 3.8-1.8 5.7-2.8 1.4-.7 2.7-1.7 2.2-3.5-.6-1.9-2.7-3.3-4-2.3-5.4 4-16.7-2-17.2 10.3-.1 1.6-2 3.4-3.5 4.5-5.4 4-6.9 10.7-11.2 15.4-.7.7-.9 1.7-.6 2.8zm50.5-154.1c1.3 1.9 4 1.2 5.7 2.6 5.7 4.7 5 4.1 8.4-1.7 4.7-8.1 7.7-17.7 16.7-22.7 1.8-1 5-1.4 3.9-3.9-1-2.2-3-4.5-6.3-4.7-3.4-.2-6.1.1-8.6 2.9-3.7 4.2-6.8 9.1-12.1 11.8-.7.3-1.8.9-1.2 1.9 4.3 7.7-3.6 9.5-6.5 13.8zm3.4 64.2c1.7 1.9 2.9 4.3 4.9 5.2 1.8.8 5.1 1.9 6.4-.7 2.5-4.9 5.8-3.7 9.5-2.3 1.1.4 2.5 2.8 3.7.5.7-1.4-.2-2.9-2-3.3-1-.3-2.6-.6-2.8-1.3-1.5-4.3-4.1-4-8-3.2-3.3.7-6.7.8-9.6 3-.8.4-1.2 1.1-2.1 2.1zm45.1-10.6c-2.8-1.3-5-.4-6.5 2.2-1.2 2.2.4 3.8 1.6 5.1 2.2 2.4 5.8 2.7 7.5.8 2-2.2 6.5-3.8 5.5-7.2-.8-2.6-4.4-1.7-6.9-.7-.2.2-.7-.1-1.2-.2zm-31.8-28.9c-1.5 1.6-3.5 2.4-5 3.8-1.8 1.7 1.3 2.6 1.7 4.1 1.1 3.7 6.3 1.2 7.5 5 .7 2.4 2.6 3.2 4.4 1.9 1.9-1.3.3-3-.5-4.5-1.1-1.9-1.9-3.9-3.2-5.5-1.2-1.8-3.1-3.1-4.9-4.8zm41-77.6c-2.3.5-6.1-1.2-6.1 3.3 0 2.8 1.3 6 4.6 5.8 3.3-.2 5.8-2.7 6.2-6.3.4-3.4-2.7-2.3-4.7-2.8zm-52 73.2c-3-4.4-4.9-8.3-9.4-7-3.3.9-3.2 5.6-2.2 7.1 3.3 4.8 6.7-1.2 11.6-.1zm30.9-64.9c3.1 2.1 5.5 3.8 8 5.4 1.8 1.1 3.8 1.3 5-.8 1.2-2.2-.2-4-1.9-4.8-3.3-1.6-6.8-2.5-11.1.2zm24 214.1c-1.4-3.2-3.5-5.3-6.5-5.2-2.5.1-4.3 1.7-3.7 4.8.5 2.4.8 5 4.2 4.2 2.5-.7 4.7-1.8 6-3.8zm-73.9-51.2c2.3-.6 2.6-2.9 2.9-4.8.3-1.6-1-2.9-2.8-2.6-2 .4-3.6 2-3.4 3.9.1 1.3.8 3.4 3.3 3.5zM589 277.7c-5.1-7.6-6.5-7.3-15.3-1.3-7.1 4.9-13.3 10.6-18.7 17-3.3 4-7.5 8-5.7 14.7 1.1 4.2-5.3 12-9.7 12.7-3 .5-4.7-1.5-6.2-4.1-4.5-8.3-4.1-7.5-11.6-2.1-5 3.7-9.2 8.4-14.5 11.6-4.1 2.4-3.8 5.7-2.8 10 1.4 6.4 6.7 11.6 5.4 19.1-1.9-2.3-3.5-4.3-4.2-6.8-.8-2.7-2.9-2.9-5.2-1.9-2.8 1.3-1.5 2.5-.4 4.7 1.4 2.8 3.7 6.4.4 9.8-.2.2-.4 1-.3 1.1 4.1 4 5.7 8.6 3.3 14.2 3.3 1 5.2 3.3 7.6 5.8 3.6 3.7 4.3-2.4 6.6-4.7 3.5 7.1.7 14.1 3 20.5 2.9 8.2-2.7 17.5 3.6 25.6 2.3 3 2.1 6.7-1.7 11-4.8 5.5 3.4 17.8 11.4 18.7 3.6.4 7.3.5 10.8 1.3 2.5.6 6.2-.4 6.9 3.3.7 3.9 1.9 7.4-2.3 11.3-4.4 4-8.6 7-14.5 6.9-8.5-.2-16.6 1.9-24.7 3.8-3.6.9-6.4-1-9.3-2.1-4-1.5-1.2-4.9-1.1-7.7.1-7.1 0-14.1.4-21.2.2-2.8-1-9-6.2-10.8-4.4-1.5-5.3-5.2-5.2-9.2.1-17.1-1.6-34-8-50-.6-1.6-1.4-3.2-2.3-4.6-5.2-7.6-4.7-7.1-10.4-.1-6.2 7.7-9.3 17.2-17.7 23.9-4.2 3.3-7.2 10.5-9.5 16.8-2.8 7.4-9.2 12.9-15.9 17.2-3.3 2.1-6.1 3.8-6.1 8 0 .6.1 1.4-.1 1.9-4.3 8.4-2.9 13.1 5.9 19.4 4.1 2.9 8.2 5.3 7.2 12-.5 3.7-1.8 4.9-4.6 4.9-5.6-.1-11.2-.6-16.7-1.2-2.3-.3-5.5-1.2-6.1-3.2-2-6.9-8.2-6.9-13.2-8.9-4-1.7-7.9-3.3-10.2-7.2-2.5-4.3-.9-13.3 4.6-18.2 7.1-6.2 9.5-15.6 16.1-22 .2-.2.3-.9.1-1.1-6.8-6.7-.6-11.9 2.2-17.2 2.1-4.1 6.4-7.3 7.6-11.5 2-7.3 8.1-11.4 11.5-17.4.8-1.3 1.3-2.8 2.7-3.4 5.9-2.7 7.2-8.4 8-13.9.7-4.7 3.3-10.3 2.5-13.6-1.3-5.2 4.6-11-2.3-15.6-5.9-3.9-.7-10.6-1.9-15.9-.9-3.9.4-8.3-.2-12.6-1-7.6 5.9-11.4 9.4-16.6 2.8-4 2.8-7.3 1.7-11.3-1.2-4.4-6-3.5-8.9-5.5-1.3-.9-3.5 1.4-4.5 3-2.6 4-5.8 7.8-7 12.2-2 7.1-7.7 11.7-10.7 18-.7 1.5-2.3 3.1-4.1 2.3-2.3-1.1-1.5-3.4-.4-5 4.9-7 10.3-14.2 13.7-21.7 4.6-10.3 13.8-18.4 13.7-31.4 0-7.1 6.5-13.5 11.1-19.5 7.1-9.2 16.9-9.7 27.3-7.9 3.7.6 6.5-1.1 8.2-4.1 1.9-3.4-1.5-3.7-3.4-4.8-1.2-.6-1.3-2-1-2.8 2.5-7.4-.1-15 .9-22.4.1-.6.2-1.3.5-1.9 4.3-10.3 22.1-16 31.2-9.8 4.4 3 8.1 6.9 10.2 12 1.8 4.4 3.5 8.8 5.2 13.2.7 1.6 1.4 3.4.1 4.9-5.5 6.5-6.1 14.8-8.9 22.4-1.3 3.6-6.7 3-8 7.2-.3 1-2 1.9-1.7 3.2 2.7 11.8-.4 24.3 4.4 35.9 2.1 5.1 3.9 10.5 6.6 15.3 2.4 4.4 6 5.7 11.4 3.1 9.6-4.6 18.5-11 29.4-12.5 2.8-.4 4.7-2.4 6.5-3.8 9-6.5 20.8-6.2 29.7-12.5 3.5-2.5 9.1-2.9 10.2-8.5.3-1.3 14-2.6 14.7-1.4 1.7 2.8-1.3 2.8-2.5 3.2-7 2-11.5 6-15.2 12.5-3.2 5.6-1.4 9.8 1.3 13.5 5.3 7.2 8.9 15.4 13.6 22.9.7 1.1 1.4 2.2 2.3 3.1 1.3 1.1 3.2 1.8 2.3 4-.5 1.3-1.7 1.9-3.1 2-2.6.2-2.2-1.9-2.8-3.4-4-8.9-10.1-16.4-16.1-24-2.6-3.3-6.5-5-10.1-.7l-.2-.1zM419.5 388.2c-6.5 5.3-9.9 13.2-15.7 19.1-.8.8-.9 1.9-.3 2.9 2.7 4.6 9 6.1 13.5 3.3 3.7-2.3 4.2-2.2 7.1 1.6.7 1 2 1.4 2.7.5 1.2-1.5 2.5-3.2 2.8-4.9.4-2.1-1.9-1.7-3.2-2.1-1-.3-2.7-.9-2.2-1.9 2.7-5.1-2-4.8-4.3-6.1-1.8-.9-4.3-2.2-2.2-3.9 3.7-2.8 1.2-5.9 1.6-8.8 3.1 1.9 6.9.1 8.3-1.3 4.6-4.9 10.4-4.2 16-4.9.8-.1 1.8-.1 2-1.8-10-1.1-3.5-5.6-1.7-9.2.6-1.2 2.7-2.3.9-3.7-1.7-1.3-3.8-2-6-1.1-1.5.6-2.2 1.8-1.6 3.7 2.1 6.5-3.9 9.3-7 8.8-8.7-1.3-9.6 3.8-10.7 9.8zm36.3-124.4c4.4.4 6.3 0 8.5-1.4 6.5-4 5.3-12 10-17.1 3.5-3.8 5.5-9 11.2-10.5 1.7-.4 3.7-1 3.9-2.8.2-1.9-.9-3.7-2.8-4.7-1.7-.9-3.2-2.3-4.8-3.2-2.6-1.5-4.4-1.8-5.8 1.9-1.2 3.4-3.6 5.7-7.7 7.1-7.2 2.4-7.8 4.8-5.4 11.9.3.9.8 2.7-.3 2.9-5.1.9-4.6 6-8 8.8 2.7 1 4.6 1.8 6.8 2.6-1.7 1.2-3 2.3-5.6 4.5zm14.8 16.7c-3.5-.8-4.2 2.6-5.9 4.6-1.6 1.8 1 2.3 1.5 2.5 3.8 1.5 7.1 3.7 10.1 6.5 1.3 1.2 3.2.9 3.9-.5.6-1.2 1.8-2.9-.6-4.2-2.7-1.5-4.3-4.2-5.5-7-.6-1.7-1.3-2.8-3.5-1.9zm40.9 28.4c-3.4-2.4-7.2-1.5-11-1.2-2.6.2-3.4 1.7-3.4 3.8-.1 2.6-.3 5.3 2.7 6.7 1.8.8 3.7 1.1 5.4-.6 2.6-2.5 4.7-5.4 6.3-8.7zm-35 9.2c-.5-1.2-.3-2.8-1.6-2.8-4.6.2-9.5-.9-13.7 2.2-.7.5-1.6 1.1-1.2 2 1.2 2.7 4.1 4.1 6.3 3.4 3.5-1 8.4-.1 10.2-4.8zM459 272.8c-1.3-3-4.2-5.7-6.7-5.7-3.8-.1-3.4 4.7-4.5 7.4-1.3 3.1 2 3.6 3.7 3.7 3.5.2 5.8-2 7.5-5.4zm53.8-70c-2.3 1.5-6.9 0-6.6 5.1.2 2.9 1.9 4.1 4.7 4.1 3.7 0 5.7-2.6 6.3-5.5.5-2.5-1.9-3.5-4.4-3.7zm-15.3 6c-2.5-.4-3.4 1-3.3 2.6.4 3.9 3.8 4.7 6.8 5.6 1.9.6 3.7-.3 3.4-2.6-.4-4.3-5-3.6-6.9-5.6zM513 422.6c-.4-1.6-.9-3.5-3.1-3.3-2.6.3-3.9 2-4 4.9-.1 2.6 1.5 2.1 2.9 2.2 2.5.2 3.8-1.2 4.2-3.8zm-112.6 29.2c2.4-.7 5.2-.8 5.6-3.7.3-2.1-2.1-2.4-3.5-2.8-2.2-.7-4 .8-3.8 2.7.1 1-.8 3.7 1.7 3.8z"/><path d="M588.9 277.8c1.8 9.7-4 18.5-3.6 28.2.1 2.7-3.7 2.2-5.9 1.4-2.8-1.1-1.3-2.8-.5-4.6 2.2-5.5 5.5-10.7 4.8-16.9-.5-4.4 3.9-5.2 5.4-8.1-.1-.1-.2 0-.2 0z"/><path fill="none" d="M99.6 500.1h600v200h-600z"/><path d="M211.8 550.3c-1.7-7-5.8-13.7-18.2-13.7-19 0-24 17.9-24.8 37 6-7.3 16.1-13.2 32.2-13.2 26 0 44.5 19.2 44.5 47.1 0 30.3-19.4 52.9-52.2 52.9-41.2 0-55-31.8-55-71.9 0-37 13.1-75.4 56.7-75.4 30.9 0 45.3 19.3 46.7 37.2h-29.9zm2.8 59.8c0-13.5-5-25.6-22.1-25.6-13.8 0-21.9 8.1-21.9 24.5 0 11.5 5.5 26.8 22 26.8 15.1 0 22-11.4 22-25.7zM325.6 588.7v26.9h-60.1v-26.9h60.1zM420 550.3c-1.7-7-5.8-13.7-18.2-13.7-19 0-24 17.9-24.8 37 6-7.3 16.1-13.2 32.2-13.2 26 0 44.5 19.2 44.5 47.1 0 30.3-19.4 52.9-52.2 52.9-41.2 0-55-31.8-55-71.9 0-37 13.1-75.4 56.7-75.4 30.9 0 45.3 19.3 46.7 37.2H420zm2.8 59.8c0-13.5-5-25.6-22.1-25.6-13.8 0-21.9 8.1-21.9 24.5 0 11.5 5.5 26.8 22 26.8 15.1 0 22-11.4 22-25.7zM533.8 588.7v26.9h-60.1v-26.9h60.1zM628.2 550.3c-1.7-7-5.8-13.7-18.2-13.7-19 0-24 17.9-24.8 37 6-7.3 16.1-13.2 32.2-13.2 26 0 44.5 19.2 44.5 47.1 0 30.3-19.4 52.9-52.2 52.9-41.2 0-55-31.8-55-71.9 0-37 13.1-75.4 56.7-75.4 30.9 0 45.3 19.3 46.7 37.2h-29.9zm2.8 59.8c0-13.5-5-25.6-22.1-25.6-13.8 0-21.9 8.1-21.9 24.5 0 11.5 5.5 26.8 22 26.8 15.1 0 22-11.4 22-25.7z"/></svg>