<?xml version="1.0" encoding="utf-8"?>
<!-- Generator: Adobe Illustrator 27.0.1, SVG Export Plug-In . SVG Version: 6.00 Build 0)  -->
<svg version="1.2" baseProfile="tiny" xmlns="http://www.w3.org/2000/svg" xmlns:xlink="http://www.w3.org/1999/xlink" x="0px"
	 y="0px" viewBox="0 0 800 800" overflow="visible" xml:space="preserve">
<g id="bg" display="none">
</g>
<g id="scratch" display="none">
	<g id="su_hmg_00000024695766778161015500000017056984567207902397_" display="inline">
		
			<rect id="_x31__x2F_2_x22__800x800_00000139269929353846673670000017015522079764352385_" x="200.1" y="-200.4" fill="none" width="800" height="800"/>
		<g>
			<path d="M539.6,327.8c-1.7,0.1-4-0.6-4-1.7c-0.2-8-6.9-13.5-7.8-21.1c-0.8-6.7-4.6-10.5-11.6-11.1c-2.9-0.3-5.7-1-8.6-0.8
				c-4.4,0.2-8.4,1.1-7.1,7.4c0.7,3.2-0.1,7-2.4,9.4c-4.5,4.7-2.9,9.8-1.3,14.6c0.6,1.9,1.2,2.8-0.1,4.5c-1.2,1.5,0.2,5.3-3.3,4.6
				c-2.8-0.6-5.3-3.1-4.8-6.2c0.6-3.7-0.9-5.8-4-6.4c-3.9-0.7-2.8,3.1-3.5,5.1c-0.9,2.4-2.3,4.4-4.9,5.1c-2.9,0.8-5,0.5-4.2-3.4
				c0.6-3.5,0.7-7.2,1.5-10.4c1-3.9-0.5-6.5-2.6-7.9c-2.9-2-2-3.9-1.4-6.1c2.2-8.1-0.4-11.9-8.9-12.6c-3.1-0.2-6.3,0.3-8.8-2.2
				c-0.6-0.6-1.8-1.3-2.3-0.5c-3.9,5.9-12.7,7.7-13,16.7c-0.2,5.1-4.9,2.8-10.6,3.3c9.5,0.9,7.7,3.6,5,8
				c-6.6,11-12.9,22.3-15.1,35.1c-1,5.6-6.3,7.5-7.6,12.8c-1,4.4-3.2,9.2-7.7,12c2.3,3.1-1.4,7.9,0,9c5.8,4.6,2,10,1.5,14.4
				c-0.5,3.9-13.7,8.4-18,6.7c-1.3-0.5-7-0.4-3.3-5.1c-0.6-0.3-1.2-0.5-1.7-0.8c-5.3-3.3-6.6-10.8-2.3-14.9c1.9-1.8,3-3.9,3.6-6.2
				c0.9-3.3,3.4-5.2,6.1-5.1c4.5,0.1,6.4-2.7,7.8-5.8c2.8-6.1,7.5-11.3,8-18.5c0.2-2.8,3.9-3.4,5-6.6c4.5-12.3,10-24.1,17.1-35.3
				c3.6-5.8,6.1-12.5,9.3-18.7c5.3-10.5,10.2-21.1,15.7-31.4c5-9.5,8.8-19.4,12.6-29.3c1.4-3.7-1.2-5.1-3.9-5.3
				c-10.6-0.7-21-4.9-31.6-3.8c-6.7,0.7-13.2,2.5-20.2,2.4c-7.5-0.1-15-1.2-22.6-1.1c-13.3,0.1-26.5-0.5-39.8,0.7
				c-3.2,0.3-8.5,1.5-9.8-3.3c-1.7-6.3,2.8-9.4,9.8-11.1c-9.3-0.7-11-3.6-8.8-12.4c1-3.9,3-7.4-0.6-11.6c-2.3-2.7-0.6-5.9,3.8-6.1
				c5.8-0.3,11.6-1.5,17.3-0.9c19.2,2.2,38.5-0.9,57.7,1.3c3.3,0.4,6.4,1.6,8.9,4c3.9,3.8,8.4,5.7,13.9,3.7c1-0.4,2.4-0.6,3.2-0.2
				c7.7,4.1,15.1-0.5,22.7-0.6c4.9,0,10.1-8,9-13c-0.7-3.4,2.5-4.2,3.2-6.7c1.7-6,1.6-11.8,1-17.7c-0.1-0.7-0.2-1.3-0.4-2
				c-1.2-4.5,4.7-7.6,2.1-12.6c-2.2-4.2,0.1-8.9-0.4-13.5c-0.4-3.6,4.9-5.5,9.4-5.3c-4-1.1-12.7-9.7-11.8-13
				c0.9-3.4,3.6-6.4,5.3-9.8c3.3-6.5,3.2-13.1,3-19.6c-0.5-12.9,1.9-25.6,1.7-38.4c-0.1-5.2,1.5-10.4-1.2-15.6
				c-1.2-2.4,0.5-7.9,1.2-8.6c3.6-3.9,0.8-6.9,0-10.3c-0.6-2.3-1.2-5-0.7-7.2c2.2-9.1,1.1-17.8-0.5-26.9c-0.5-2.5-1-7.5,2.2-9
				c4-1.8,8.7-1.8,12.9,0.7c0.7,0.4,1.7,0.6,1.4,1.8c-2.8,10.2,0.8,20.4-0.2,30.6c-0.5,5.3-2.1,10.4-1.8,16.1
				c0.7,13,0.3,26.1-0.2,39.2c-0.4,7.8,0.4,15.6,0,23.4c-0.1,2.1-1.8,4.6-4.9,4.4c-1.5-0.1-3.1-0.6-3.9,1.4c1.1,2.7,2.4,0.3,3.6,0.2
				c3.5-0.1,6.6-0.7,4.9,5.3c-2.2,7.4,1.8,14.7,3.4,21.8c1.1,4.8-0.1,8.8-2.6,12.1c-1.8,2.4-1.7,4.2-0.8,6.5
				c5.3,13.2,2.7,27.1,3.4,40.7c0.5,8.1-2.3,17.2,3.4,24.8c2,2.7,0.9,8.1,0.6,8.5c-7.9,12.5-1.8,23.4,3.2,34.4
				c3.7,8.1,6.7,16.5,9.8,24.8c1.3,3.6,1.8,8.9,3.8,12.9c4.5,9,6.1,18.9,9.9,28c3.7,8.8,6.7,18,12.2,26c1.7,2.4,1.9,5.9,0.7,9
				C542.3,327.6,540.9,327.7,539.6,327.8z M483.7,239.5c-5.2-1.6-8.9,1.9-7.9,7.3c1.3,7.3-0.1,14.7,1.4,21.9c1.2,5.8,5.8,9,11.7,6.4
				c2.7-1.2,5.7-6.9,4.3-9.7c-2.9-5.7,0-11.2-0.7-16.8C491.4,239.8,492.8,239.3,483.7,239.5z M483.4,235.3c5.4-0.1,9.2-0.1,9.8-7.3
				c0.5-6.2-2.7-12.9,1.8-18.8c0.3-0.4-0.6-2.3-1.4-2.8c-4.2-2.9-9.1-4-13.7-1.9c-3.9,1.7-4.2,5.3-3.9,9.6
				c0.4,4.6,3.9,10.4-2.4,14.1c-0.8,0.5-0.4,1.4,0.1,1.5C477.7,230.5,478.3,237.3,483.4,235.3z M460,278.5c3-0.4,6,0.9,7.9-2.5
				c5.4-9.5,2.8-19.5,2-29.3c-0.1-0.8-1.4-1.6-2.3-2.1c-0.8-0.5-1.5-0.3-2,0.8c-4.6,9.3-9.3,18.7-13.9,28c-1.5,3,0,4.1,2.6,4.6
				C456.3,278.2,458.3,278.3,460,278.5z M493.5,187c2.7-8.3-4.9-6.3-8.6-7.1c-4.7-1-7.2,1.5-5.2,6.7c0.4,0.9,0,1.6-0.8,2.3
				c-6.4,5.4,0.2,6.2,3,6.8C492.6,197.9,492.6,197.7,493.5,187z M493.4,282.5c-3.6-0.5-5.8-1-7.9-1c-4.4,0.1-7.8,1.2-4.5,6.7
				c0.9,1.5,1.6,3.4-0.1,4.9c-2.3,2.1-2.3,4.9,0,6.1c1.9,1,4,4.2,6.2,2.6c1.2-0.9,0.2-5,0.7-6.4
				C489.3,291.3,485.9,285.2,493.4,282.5z M504.2,268c-1.7,0.6-5.3-1.7-5.5,2.2c-0.2,5.5,4.5,9,10.6,9.3c3.4,0.2,5.8-0.9,5.7-4.6
				C514.9,267.6,509.4,268.3,504.2,268z M488.9,148.8c2.2,0,2.1-1.7,1.7-2.8c-1.8-5,5-10.3-0.7-15.2c-0.9-0.7,1.9-3.2-0.8-3.7
				c-1.1-0.2-2.4,0.8-3.5,1.6c-1.8,1.2-1.3,2.8-0.1,4c3.2,3.5,1.7,6.5-0.7,9.5c-0.9,1.1-2.9,1.9-0.9,3.7
				C485.3,147.2,486.7,148.6,488.9,148.8z M481.8,162c-2,2.9,0.6,2.8,2,3.1c5.6,1,5-4.3,6.8-7.1c0.9-1.4-0.6-3-1.8-2.6
				C485.6,156.5,481.9,157.5,481.8,162z"/>
			<path d="M539.6,327.8c1.3-0.1,2.7-0.2,4-0.4c1.9-0.5,2.8,0.4,3.5,2.1c2.4,6.1,5.4,11.9,6.8,18.4c2.6,11.9,10,22.1,12.6,34.1
				c0.3,1.5,2.6,1.6,4.1,1.6c8.1-0.3,10.2,6,11.7,11.6c1,3.6-3.4,3.4-7,3.7c2.2,2,5.7-0.2,6.2,3.2c0.5,3.2-2.9,2.9-3.9,4.6
				c-3,4.9-7.2,6.6-12.4,4.5c-5.9-2.4-8.7-9.9-9.6-15.9c-0.7-4.7,4.9-7.4,2.2-12.1c-0.3-0.5,2.2,0.6,3.8-0.1c-1.4-1.9-4-1.7-5.1-4.4
				c-2.9-7.3-6.7-14.3-10-21.5c-1.5-3.4-2.7-6.9,1.7-9.4c-5.5-3.6-9.2-7.7-8.4-14.3C540,331.6,534.4,329.9,539.6,327.8z"/>
		</g>
		<g>
			<rect x="500.5" y="-100.7" fill="none" width="400" height="600"/>
			<path d="M544.8-47.7H569v43.6h44.9v-43.6h24.2V64h-24.2V15.7H569V64h-24.2V-47.7z"/>
			<path d="M750.4,22.1c0-19.1,0.3-40.4,0.8-53h-0.8C745.1-8.2,734,29,723.3,64h-20.6c-8.1-30.6-19.7-72.9-24.6-95.2h-0.8
				c1,13.1,1.4,36.1,1.4,55.2v40h-22V-47.7h35.9c8.7,29.2,18.5,65.8,21.8,82.4h0.2c2.7-14.7,15-53.8,24.3-82.4h34.6V64h-23.3V22.1z"
				/>
			<path d="M889.4,64h-17.7c-0.9-3.4-1.5-7.3-1.8-11c-6.2,8.3-17.1,12.9-32.6,12.9c-32.4,0-50.5-24.5-50.5-56.3
				c0-33.6,19.5-58.9,54.7-58.9c28.7,0,45.7,16.2,48.4,35.3h-24.2c-2.3-7.5-8.2-16.3-24.5-16.3c-22.9,0-29.5,19.2-29.5,38.9
				c0,19.2,7.5,38.1,29.6,38.1c20.6,0,24.5-14.3,24.5-24.3v-1h-24.5V1.5h48.2V64z"/>
			<path d="M591.2,227.7c0-13.6,9.5-22,17.4-25.5c-8.2-5.1-13.2-11.5-13.2-22.3c0-18.1,13.2-30.1,37.2-30.1
				c21.9,0,36.3,11.4,36.3,29.8c0,12.3-6.3,18.3-13.6,21.4c7.7,2.9,17.4,11.8,17.4,25.9c0,22-17.6,33.4-41.9,33.4
				C609.2,260.3,591.2,248.8,591.2,227.7z M649.7,226.7c0-10.6-7.3-15.4-17.7-15.4c-11.6,0-17.5,6.3-17.5,15.3
				c0,9.5,7.1,15.8,18,15.8C642.4,242.3,649.7,237.6,649.7,226.7z M617.4,180.7c0,7.2,5.2,12,14.9,12c9.5,0,14.6-3.6,14.6-12
				c0-8.1-5.3-13.1-14.8-13.1C622.4,167.7,617.4,172.3,617.4,180.7z"/>
			<path d="M725,206.6v20.2h-45.1v-20.2H725z"/>
			<path d="M729.1,258.4v-1.5c0-18.6,8.3-33.7,31.4-50.5c15-11,19.6-14.8,19.6-24.1c0-9.2-4.5-14.4-13.5-14.4
				c-10.4,0-14.2,6.4-15.7,15.7h-22.4c1.5-18.4,13.6-33.7,38.1-33.7c27.4,0,36.8,16.3,36.8,32.3c0,15.5-6.7,23-26.3,36.8
				c-13.1,9.2-18.4,15.3-20.2,20.1h50.5l-2.9,19.3H729.1z"/>
			<path d="M666.2,341.1H715c27,0,37.2,14.1,37.2,28.6c0,12.6-6.7,20.8-14.2,24.2c7.5,2.8,17.4,10.8,17.4,25.5
				c0,19.1-15,33.4-38.8,33.4h-50.4V341.1z M712.2,385.2c11.5,0,16.2-5.2,16.2-13c0-8.2-6.2-12.4-15.5-12.4h-23v25.4H712.2z
				 M689.9,434.1h21.8c13,0,19-5.5,19-15.6c0-9-5.8-14.7-19.1-14.7h-21.7V434.1z"/>
			<path d="M780.4,452.8v-79.7c-4.9,2.3-14,4.2-19.3,4.6v-17.3c10.1-1.9,20.3-7.6,26.4-14.3h16.4v106.7H780.4z"/>
		</g>
		<g>
			<path d="M726.4,86.7h-19.8c-0.4,3.8-1.6,11-2.1,13.5c2-2.2,5.1-3.8,9.9-3.8c8.7,0,14.3,6,14.3,15.7c0,9.2-4.9,17.3-16.3,17.3
				c-8.5,0-14.6-4.7-15.8-12.7h6.4c1.1,4.3,4.2,7.5,9.6,7.5c6.4,0,9.6-4.6,9.6-11.6c0-6.1-2.5-10.8-9.1-10.8c-5.7,0-8.1,2.4-9.8,6.2
				l-5.9-1.1c1.4-6.2,3.2-19.7,3.9-25.7h25.9L726.4,86.7z"/>
			<path d="M769.1,104.6c0,11.7-3.3,24.9-16.6,24.9c-13,0-16.5-12.3-16.5-24.6c0-12.2,3.9-24.6,16.7-24.6
				C765.4,80.3,769.1,92.4,769.1,104.6z M742.6,104.9c0,9,1.6,19.2,9.9,19.2c8.4,0,9.9-9.7,9.9-19.5c0-9.1-1.6-18.9-9.7-18.9
				C744.4,85.7,742.6,94.5,742.6,104.9z"/>
			<path d="M837.1,114.4c-2.2,8.5-8.6,14.8-19.9,14.8c-15,0-22.5-11.4-22.5-25.5c0-13.6,7.6-25.9,22.8-25.9
				c11.8,0,18.2,6.7,19.7,15.1h-6.6c-1.8-5.5-5.4-9.6-13.3-9.6c-11.1,0-15.6,10-15.6,20.2c0,9.8,4.3,20.2,15.9,20.2
				c7.7,0,11.1-4.4,13-9.3H837.1z"/>
		</g>
	</g>
</g>
<g id="counters_00000155831629897369998050000010902328751353074356_">
	<g id="greenwood_00000065765171380808450290000012592530953065297332_">
		<rect id="_x31__x2F_2_x22__800x800_00000082369909320932966810000000146185693451516802_" fill="none" width="800" height="800"/>
		<g id="us_ldr_00000063621326441076883050000009178349672882505360_">
			<path d="M397.4,314.1c1.2,1.3,2.1,2.8,3.6,3.8c1.8,1.2,1.7,3,0.9,4.8c-1.4,3.1-3.1,6.1-5.6,8.6c-1.5,1.5-2.3,2.9-0.5,4.7
				c0.9,0.9,1.2,2.3,0.7,3.5c-2,4.7-4,9.3-8.3,12.6c-2.5,1.8-4.4,1.6-6.7-0.3c-4.3-3.6-8.7-7.1-13.1-10.6c-2.9-2.3-4.5-1.8-5.5,1.8
				c-1,3.4-1.3,6.9-1.8,10.5c0-2.3,0-4.5,0-6.8c0-1.5,0.1-3.1-1.9-3.3c-1.8-0.2-3.2,0.5-3.9,2.4c-1.4,4.2-2.2,8.4-2.6,12.8
				c-0.3,4-0.8,8-1.4,11.9c-0.5-6.9-0.1-13.6,1.6-20.4c1.3-5.1,0.6-5.6-4.4-4.2c-4.1,1.2-8.2,2.2-12.6,1.1c-0.9-0.2-1.9-0.4-2.5,0.6
				c-0.6,1,0.4,1.4,0.8,2.1c1,2.2,1.6,4.8,1.9,7.1c0.8,6,3.7,11.4,4.5,17.5c0.6,4.8,1.5,9.5-2.1,13.7c-0.8,0.9-0.6,2.1-0.6,3.3
				c0.1,2.4,0,4.8,0,7.5c-2.5-2.4-3.1-1.3-3.3,1.3c-0.2,2.6-1.5,5.6,2.3,6.2c2.3,0.4,5.3,1.6,7.3-1.4c0.3-0.4,0.7-0.9,1.2-1
				c5.9-1.6,5.6-6.2,5.5-10.9c-0.2-5.4,0-10.8,0.3-16.2c1.1,1.1,0.9,2.6,0.8,3.9c-0.2,5.1,0.5,10.1,0.9,15.2c0.1,1,0.1,2.4,1.2,2.6
				c1.5,0.3,1.7-1.3,2.1-2.3c2.4-5.6,3.1-11.6,3.9-17.6c0.9-6.9,0.1-13.9,1.5-20.7c0.2,14.6,0,29.2-5.4,43
				c-1.8,4.6-4.3,8.8-9.7,10.2c-0.6,0.2-1.3,0.6-1.8,0.4c-3-1.2-4.2,0.2-4.5,3.2c-1.6-0.6-1.8-1.9-2.4-2.9c-0.8-1.4-1.6-2.8-3-3.4
				c-1.5-0.7-3.1-2.4-4.6-0.3c-1.8,2.4-1.2,4.9,1,6.4c1.1,0.8,2.9,0.9,3.3,2.6c0.3,1.3,1.6,2.1,2.6,4.1c-1.8-1.4-2.9-2.2-4.1-3
				c-0.4-0.3-1-0.6-1.4-0.2c-0.5,0.4-0.2,1,0,1.4c1,2,2.4,3.7,4.2,5c0.3,0.2,1,0.5,1.1,0.4c2.2-3.5,4.2,1.7,6.4,0.2
				c0.1-0.1,0.8,0.4,0.9,0.7c0.2,3.6,3.2,5.4,5.5,8.6c-4.1-2.2-7.7-3.7-10-7.1c-0.4-0.6-1.1-1-1.9-0.7c-0.3,0.1-0.7,0.6-0.7,0.9
				c-0.1,1,0.7,1.1,1.4,1.2c0.8,0.2,1.4,0.6,1.6,1.3c1.6,6.1,7,9.1,11,13.2c1.5,1.6,3.1,3.1,4.6,4.6c0.8,0.8,1.6,2,2.8,0.8
				c1-1,0.5-2.1-0.2-3.1c-0.8-1.1-1.7-2.1-2.5-3.2c-1.7-2.2-3.3-4.4-5.3-6.9c4,2.3,10,9,11.4,12.9c0.9,2.4,3,3.4,4.6,5
				c10.2,9.6,20.5,19.1,30.7,28.7c1.1,1,2,1.6,3.6,0.9c2.3-1,3.8,0.2,3.6,2.7c0,0.7-0.4,1.4-0.3,2.2c0.1,1.9,0.5,4.1-1.7,4.9
				c-2.2,0.8-3.2-1.4-4.5-2.6c-9.2-9.1-19.3-17.3-28.7-26.2c-1.1-1.1-2.5-1.7-4-1.2c-3.1,1.1-5.7,0.4-8-1.9
				c-0.4-0.4-0.9-0.5-1.3-0.8c-2-1.3-4.1-2.8-5.1,2.1c-1.5-5.1-4-3.8-6.5-2.5c-5.1,2.5-6.2,6-3.5,12.2c-3-0.3-5.5,1.7-8.4,1.8
				c-2.8,0.1-3.8,2.7-5.1,4.6c-0.6,0.8-0.4,1.7,0.9,1.6c1.6-0.1,3.4,0.2,4.6-1.3c0.5-0.6,0.9-1.5,1.6-0.5c0.6,0.8-0.1,1.3-0.8,1.6
				c-2.5,1.2-4.9,2.7-7.1,4.4c-1.1,0.9-2.1,2-1.8,3.4c0.3,1.6,1.9,1.2,3,1.6c2,0.8,3.8,1.4,5.9,0.7c1.1-0.4,1.7,0.5,1.6,1.7
				c-0.1,2.3-0.5,4.4-2.8,5.9c-2.7,1.8-5.5,3.3-8.4,4.8c-4,2.1-4.2,2.6-2.6,6.3c-4.5-0.1-6.3,4-3.9,9.4c1.5-1.1,1.8-2.7,1.9-4.5
				c1.6,1.8,3,1.9,3.2-0.7c0.2-2,1.7-3.3,2.2-5c0-0.1,0.1-0.3,0.1-0.3c2.6,0.3,4.2-2,6.3-2.5c1.3-0.3,1.3,1.8,0.8,3
				c-0.6,1.5-1.7,2.8-3.2,3.3c-3.6,1.1-3.9,4.7-5.6,7.1c-4.2,5.9-9.4,11.1-13.4,17.1c-2,3-4.8,5.8-4.1,10.1c0.5,3,1.3,3.3,3.9,1.8
				c1-0.6,2.1-1.4,3.4-1.3c1.6,0.1,2.4-0.6,2.8-2.2c0.3-1.5,1.1-2.8,3.1-1.9c1.9,0.8,2.4-0.2,2.7-1.8c0.1-0.6,0.1-1.3,0.3-1.8
				c0.4-0.9,0.8-2.3,2-2c1.1,0.3,0.2,1.4,0.1,2.2c-0.1,0.6-0.2,1.3,0.5,1.6c0.7,0.3,1.1-0.3,1.5-0.7c0.6-0.7,1-1.6,2.3-1.7
				c-0.5,4-3.4,6.3-5.7,8.9c-2.9,3.4-5.7,6.8-8.6,10.2c-0.4,0.5-0.8,1.1-0.4,1.7c0.4,0.7,1.1,0.3,1.7,0.1c0.4-0.1,1-0.2,1.2,0
				c2.7,3.4,3,0.3,4-1.4c0.3-0.5,0.6-1.1,1.1-1.5c4.1-3.3,6.4-8.1,8.5-12.5c2.2-4.6,7.1-6.5,8.8-11.2c0.2-0.7,1.2-1.4,2.3-1.4
				c0.8,2,0.3,3.7-1.4,5c-1.8,1.5-2.9,3.2-2.2,5.7c0.2,0.8,0.2,1.8-0.7,2.2c-3.7,1.8-5.8,5.1-7.9,8.4c-0.5,0.9-1.4,0.8-2.1,1.1
				c-1.6,0.5-2,1.8-2,3.2c0,0.9,0.5,1.7,1.5,1.7c1.5,0.1,1.9-1.1,2.4-2.1c0.2-0.5,0.6-1.3,0.8-1.2c3.4,0.4,5.7-2,8.5-3.3
				c1.2-0.5,2.2-1,3.1-1.8c0.8-0.7,1.9-1.9,2.9-1.1c1.1,0.9,0.8,2.5,0.4,3.8c-0.2,0.8-1.4,1-1.2,2c2.9,0.1,2.9,0.1,9.3-8.9
				c0.6,3.3-0.1,6.1-1,8.9c-0.3,1-1.1,1.9-2.2,2.1c-3.5,0.4-4.6,2.7-4.6,5.6c0,2.4-1.1,3.5-3.1,4c-1.9,0.5-3.2,2.8-5.8,1.8
				c0.9-1.3,3-2.1,1.5-3.9c-0.8-1-5.7-1.1-6.7,0.2c-2.2,2.8-4.7,4.9-8.4,5.3c-0.5,0.1-1.1,0.6-1.5,1c-0.7,0.6-1.6,1.4-1,2.3
				c0.7,1.1,1.8,0.7,2.8,0.2c1.2-0.6,2.5-1.1,3.7-1.5c0.5-0.2,1.3-0.3,1.6,0.4c0.2,0.6-0.4,0.9-0.7,1.2c-2.4,2.3-5,4.4-8.2,5.5
				c-1.1,0.4-2.5,0.8-2,2.5c0.4,1.3,1,2.3,2.6,2.2c2.3-0.1,3.7,1.7,5.6,2.5c1.2,0.5,0.9,1.4,0.2,2.3c-1.3,1.6-2.8,3-4.9,3.6
				c-1.2,0.3-2.3,0.7-2.3,2.2c0,1.4,0.7,2.6,2,3.2c4.1,1.8,7.9,4.9,12.8,4c0.8-0.1,1.1,0.4,1.3,1c0.3,1,1,1.6,2.1,1.5
				c1.3-0.1,1.6-1.2,1.9-2.2c0.9-4.2,3.7-6.5,7.4-8.1c1-0.5,2.9-0.7,2.1-2.3c-0.6-1.3-2.3-1.4-3.6-0.7c-1.4,0.7-2.5,1.8-3.8,2.7
				c-0.5,0.3-1,1-1.6,0.5c-0.6-0.4-0.4-1.1-0.2-1.7c0.7-2.8,1.3-5.7,4-7.6c1.2-0.8,2-2.1,2.4-3.6c0.9-3.1-0.8-5.1-4.1-4.9
				c-2.4,0.1-5-0.6-7.3,1.3c0.4-1.4,1.3-2,4.8-4.9c1.9-1.5,4.8-1.1,6.2-3.9c1.3,3,0.7,5.7,0.9,8.3c0.6,7.1,4.4,12.5,9.7,16.7
				c5.9,4.6,12.5,6.9,20.3,6.4c6.3-0.4,12.1,6.8,11.4,13c-0.1,0.9-0.6,1.2-1.3,1.6c-2.1,1.2-4.1,2.3-6.6,2.7
				c-4.7,0.8-9.4,1.9-14.1,2.6c-5.6,0.8-11.1,0-16.6-1.5c-4.6-1.3-9.2-2.4-12.8,2.3c-0.3,0.4-1.1,0.8-1.6,0.8
				c-6.3,0.1-12.6,1.3-18.9-0.5c-1.5-0.4-2.1-1.2-2.5-2.7c-1.8-6.8-1.8-13.2,1.3-19.7c2.1-4.3,2.2-9,1.4-14
				c-0.9-5.2-1.3-10.6-1.9-15.9c-0.3-2.5-0.8-4.4-3.5-5.2c-2.4-0.7-3.5-2.7-4.6-4.8c-2.2-4.4-2.2-9.1-2-13.7
				c0.1-2.6,2.7-4.3,3.5-6.8c1.1-3.6,1.8-7.1,1-10.7c-1-4.4-0.4-8.5,1.8-12.3c5.8-9.6,2.2-18.2-2.5-26.6c-1-1.7-3.1-3.1-5.6-2.7
				c-1.3,0.2-2.7,0.2-4,0.2c-7.1,0-8.2,0.4-9.9,7.1c-1.2,4.9-4.1,8.3-7.4,11.6c-4.1,4-7,8.6-9.6,13.7c-3.2,6.4-6.4,13.1-11.8,18.2
				c-2.7,2.5-3.4,6.4-6.8,8.4c-2.4,1.5-4.9,2.3-7.6,2.1c-3.1-0.3-6.2-0.2-9.2-1.2c-1.3-0.4-2.4-0.3-3.4,0.7
				c-5.5,5.5-7.9,12.2-7.8,20c0.2,8.6,2.6,16.8,3.6,25.2c0.2,2,1.5,3.3,3,4.6c3.8,3.4,7,7.1,7.6,12.4c0.4,3.7-0.7,6.8-3.9,8.9
				c-2.9,1.9-5.7,1.1-8.5-0.3c-7.4-3.7-14.2-8.1-20.2-13.8c-4.6-4.4-6.7-9.9-9-15.5c-1.9-4.5-4.9-7.2-9.9-7.6c-4-0.4-5.6-4-7.8-6.7
				c-1.4-1.7-2.3-3.7-3.4-5.6c-1.3-2.4-0.9-4.7,0.7-6.7c3.7-4.5,7.4-8.9,12.6-12c6.4-3.8,10.9-9.5,14.1-16.1c0.2-0.5,0.5-1,0.8-1.3
				c4.4-4.2,5.1-9.6,5-15.4c-0.2-6,4.6-9.5,8-13.5c0.3-0.3,0.7-0.4,1,0.1c1.5,2.1,4.1,2.7,6,4.2c0.4,0.3,0.6,0.8,0.3,1
				c-0.9,0.6-2.2,1.7-3,0.5c-1-1.6-1.9-1.2-3-0.5c-0.8,0.5-1.6,1.1-2.1-0.4c-0.3-0.8-1-0.5-1.5,0c-3,2.2-3.7,5.8-1.8,9.1
				c0.8,1.3,1.7,2.2-0.6,3.1c-1.8,0.7-2.2,2.5-0.9,4.2c1.1,1.5,1.8,3.2,2.6,4.9c0.6,1.4,1.7,3.7,3.8,1c0.7-0.9,2-0.4,3-0.5
				c2.2-0.2,3.1-1,1.7-3.2c-0.5-0.8-1.6-1.8-0.7-2.8c0.8-0.8,1.7,0.3,2.5,0.6c2.9,1.2,5.8,2.2,9,1.8c2.7-0.3,4.5,1.2,5.6,3.3
				c1.2,2.3,2.4,2,3.8,0.6c3.1-3.3,7.4-5.1,10.7-8.1c0.1-0.1,0.5-0.3,0.5-0.2c4.2,3.2,3.2-3.2,5.8-3.1c0.2,0,0.4-0.9,0-1.4
				c-0.3-0.4-0.7-0.2-1.1,0c-3.4,1.4-6.9,1.8-10.5,1.9c-2.2,0-3.8-0.7-4.7-2.4c-0.9-1.8,0.4-3,1.9-4.1c1-0.7,1.9-1.6,2.6-2.6
				c3.4-4.9,8.6-5.8,13.9-6.6c-0.1,1.7,0.9,2.4,2.3,1.8c1.1-0.4,2.4-1.7,1.7-2.8c-0.8-1.5-1.9,0.1-2.8,0.5c-0.5,0.2-0.9,0.5-1.3,0.7
				c0.7-2.4,2.9-3.2,4.9-3.9c2-0.7,3.4-2.2,5.1-3.3c0.7-0.4,1.5-1.5,0.6-2.4c-0.7-0.8-1.5,0-2.2,0.4c-1.5,0.8-2.6,2-3.2,3.6
				c-0.3-0.1-0.6-0.1-0.7-0.2c-1.7-3.7-2.3-3.8-5.2-0.9c-2.6,2.5-5.4,3.2-8.9,2c-1.7-0.6-3.6-0.3-5.8-0.4c1.2-2.5,2.6-3.9,5.4-2.8
				c1.2,0.5,2.2,2.2,3.9,1c1.9-1.3,4.3-2.1,4.9-4.9c0.3-1.3,0.1-3,1.9-3.6c0.5-0.2,0.5-0.8,0.2-1.3c-0.3-0.7-2.4-0.6-1.1-1.9
				c0.8-0.8,1.8-1.8,3.3-1.3c0.2,0.1,0.4,0.2,0.6,0.1c1.2-0.3,3,0.3,3.2-1.1c0.3-1.8-1.7-1.7-2.9-2.1c-4.3-1.4-7.3-4.5-9.9-8.1
				c-2.3-3.3-5.6-5.5-8.6-8c-1.7-1.4-3.3-0.7-5.3,1c4-7.1,0.6-12.6-2.3-18.3c-7.5-14.5-15.9-28.5-22.1-43.6
				c-6.8-16.7-15.1-32.8-23.1-48.9c-3-6-6.6-11.7-7.4-18.7c-0.2-2.1-3.1-2.3-4-4.5c-1.4-3.2-2.4-6.9-6.6-8c-0.8-0.2-0.7-1.2-0.6-1.9
				c0.3-3.2,0.3-6.5,3.4-8.6c0.8-0.6,0.8-1.6,1-2.5c0.4-2.3,1.9-3.9,3.4-5.4c0.8-0.8,2.3-1.3,3-0.2c0.6,1,0.5,2.5-1,3.1
				c-1.5,0.6-2.8,1.5-2.5,3.2c0.3,1.9,2,2.7,3.7,2.9c3.7,0.4,6.2,3.2,8.5,5.3c1.1,1,2.8,2.5,3.6,4.2c0.2,0.3,0.6,0.9,0.9,0.8
				c2.8-0.6,4.9,1.7,7.8,1.7c-1.2-2.6-4-3.5-4.7-6.3c2.4,0.1,3.7,1.9,5.4,2.9c0.6,0.3,1.1,1.1,1.9,0.4c0.5-0.6,0-1.2-0.3-1.7
				c-1.3-2.6-1.8-5.2-1.6-8.3c0.4-4.2-3.2-6.8-5.9-9.4c-0.8-0.8-2-1.3-2.6-2.3c-2-3.1-4.8-3.7-8.1-3.1c-0.6,0.1-1.3,0.4-1.7-0.3
				c-0.5-0.9,0.3-1.3,0.9-1.7c2.1-1.6,4.2-1.9,6,0.4c1.5,1.9,3.1,3.6,5.1,5c0.8,0.5,1.5,1.4,2.5,0.9c1-0.6,0.6-1.7,0.4-2.6
				c-0.7-2.8-0.2-5.3,2.3-7.1l0-0.1c0,1.7,1.2,3.2,0.6,5.1c-0.4,1.4,0.8,1.8,2,0.9c0.6-0.4,0.9-1.1,1.4-1.6c0.6-0.6,1.4-1.2,2.2-0.5
				c0.7,0.7,0,1.3-0.4,1.9c-0.8,1.1-1.7,2.1-2.5,3.2c-0.6,0.9-1.2,1.9-0.3,2.8c1,0.9,1.9,0.1,2.6-0.7c0.3-0.4,0.7-0.8,1.1-1.1
				c0.6-0.4,1.2-0.3,1.7,0.1c0.5,0.5,0.2,0.9,0,1.4c-0.8,1.7-2.2,2.8-3.5,3.9c-2.3,1.8-1.3,3.5,0.2,5c1.3,1.2,2.5,3.7,4.8,0.9
				c1.2-1.4,3.5-1.3,4.6-3.1c0.3-0.6,1.2-0.5,1.7,0c0.4,0.4,0.2,1-0.2,1.4c-2.3,2.2-1.4,5.7-3.7,8.1c-0.8,0.8-0.4,2.9,0.7,4
				c0.8,0.7,2,1,3.2,0.5c1.1-0.4,2.4-2.2,3.2-1c1,1.4,2.2,3.1,1.7,5.1c-0.1,0.4-0.2,0.8-0.1,1.2c0.1,0.7-0.1,1.7,0.8,1.8
				c1,0.2,0.8-0.9,1.1-1.6c0.3-0.8-0.2-2,1.5-1.6c1.4,0.3,2.6,2.7,4.4,0.7c1.1-1.2,2.2-2.3,2.7-4.4c1,1.7,0.8,3,0.2,4
				c-2.2,4-1.7,7.6,1,11.7c1,1.6,1.2,3.1,3.7,2.3c1.1-0.4,1.3,0.9,0.7,2c-0.5,0.8-0.6,1.6,0.3,2.2c0.9,0.6,1.6-0.1,2.2-0.6
				c3.2-2.8,5.8-6.1,9.6-8.2c2.5-1.4,0.3-3.2-1-3.5c-3.9-0.9-4.1-3.6-3.1-6.3c1.5-4.1-1.2-6.9-2.6-10c-0.5-1-1.4-1.8-2-2.8
				c-2.3-4.7-9.6-5.1-13.8-3.4c-0.6,0.2-1.1,0.6-1.7,0.8c-0.5,0.2-1.1,0.3-1.4-0.3c-0.3-0.6,0.2-1,0.7-1.2c1.8-0.9,3.5-2,5.5-1.9
				c1.6,0.1,2.7-0.7,3.2-2c0.6-1.7-1.1-1.9-2.1-2.6c-3.4-2.4-7.2-1.4-10.9-1.2c-0.6,0-1.2,0.1-1.9,0.2c-2.1,0.3-4.4,0.2-5.4-1.9
				c-0.8-1.7,1.8-4.6,4.3-5.3c1.4-0.4,3.9,0.4,3.8-1.5c-0.1-2.2-2.8-1.6-4.4-1.9c-2.1-0.3-4.3-0.6-6.8,0.4c2-4.3,5.8-6.1,9.2-8.4
				c1.1-0.7,2.6-0.8,3.7-1.5c1.8-1.1,3-1,4.2,0.8c0.6,1,1.6,1.7,2.6,0.9c1.1-0.9,0.6-2.3-0.4-3c-3.5-2.5-5.2-6.9-9.8-8
				c2.1-2.7,3.4-2.9,5.9-1.3c1.7,1.1,3.7,1.8,5.5,2.7c0.6,0.3,1.3,0.7,1.8,1.2c0.7,0.7,1.1,2,2.4,1.5c1.4-0.6,1.2-1.9,1-3.3
				c-0.1-0.7-0.1-1.5,0.2-2.1c0.9-1.7,3-3.3-0.2-4.9c-0.2-0.1,0-1.2,0.1-1.8c0.4-1.5,0.9-2.8-0.2-4.4c-0.8-1.2,1.7-6.3,2.9-6.9
				c0.2-0.1,0.7-0.2,0.8-0.1c2.1,2.2,5.5,3.7,5.1,7.6c-0.1,0.8-0.6,1.8,0.4,2.2c1.1,0.4,1.7-0.6,2.3-1.3c1.1-1.4,2.2-2.8,3.2-4.2
				c0.4-0.6,0.9-1.4,0.1-1.9c-1.6-1.1-0.9-1.7,0.2-2.6c0.4-0.3,0.8-1.1,0.6-1.3c-2.1-2.5,0.8-3.8,1.4-5.7c0.2-0.6,0.5-1.3,1.2-1.2
				c0.8,0.1,0.8,0.9,0.9,1.4c0.4,3.8,3.4,7.3,0.9,11.4c-0.3,0.5,0,1.4,0.1,2.1c0.2,1-0.6,2.9,0.8,2.9c1.6,0,1.8-2.1,1.5-3.2
				c-0.7-3.3,1.5-5.5,2.2-8.9c0.5,0.8,0.7,1,0.8,1.3c0.4,1.4,1,2.9,2.4,2.9c1.4,0,1.4-1.8,1.7-3c1-3.3,2.2-6.5,1.8-10
				c-0.2-1.6-0.3-3.1-1.9-4c-0.8-0.5-1.2-1.4-0.9-2.2c0.8-3-1.2-5.1-2.1-7.6c-0.7-2.1-1.9-3.4-4.4-2.6c-0.7,0.2-1.5,0.1-1.9-0.6
				c-2.3-3.9-7-3.2-10.4-5.1c-0.9-0.5-1.8,0.2-2.2,1.2c-0.4,0.7-0.8,1.4-1.3,2.1c-2.3,3.2-2.1,3.5,1.7,4.9c1.4,0.5,3.4,0.6,1.5,2.9
				c-1.1,1.3,0.2,2.3,1,3.2c2.8,3.3,3,5.6,0.9,9.1c-1.4,2.3-3.3,4.3-6.2,3.9c-2.8-0.3-6-4.2-6-7c0-2.8-1.1-3.4-3.7-2.7
				c-5.7,1.5-11.8,8-12.7,13.6c-0.1,0.4-0.1,0.9,0.1,1.2c1.3,1.8,1.4,1.8-0.4,3.4c-2.6,2.3-4.6,5.1-6.6,7.9c-0.4,0.6-0.8,1.2-0.7,2
				c0.1,2.1,0.3,4.1-2.7,4.4c-0.7,0.1-1.3,1.5-2.2,2.7c0-1.9-0.3-3.5,0-5c1.2-6.3,0.1-12.4-0.9-18.6c-0.4-2.7,0.1-4.7,2.7-5.9
				c1.1-0.5,1.8-1.4,2.4-2.4c0.9-1.6,1.1-4.8,4.1-1.7c0.8,0.8,7.7-3.8,7.9-5.2c0-0.2,0.1-0.5,0-0.6c-3.7-3,0.6-3,1.6-3.8
				c1.5-1.1,3.8-1.2,3.9-3.8c0-0.5,0.7-0.7,1.2-0.8c2.3-0.5,4.1-1.3,4.8-4c0.6-2.5,3.1-1.4,4.5-0.9c2.7,0.9,4.6,0.2,6.7-1.6
				c3.4-2.9,7.5-4.7,11.4-6.9c2.7-1.6,5.2-3.4,6.7-6.2c1.4-2.5,4.1-3.4,6.3-4.9c1.4-1,3.1-1.7,4.3-3c2.1-2.2,1.1-5.8-1.9-6.7
				c-6.9-2-6.9-2-6.7-9.2c0.1-4.9-0.4-9.8-0.1-14.7c1.2-17.5,12.2-25.8,29.1-27.1c7.9-0.6,15.3,1.3,21.4,6.1
				c4.7,3.7,7.4,9.2,9.1,14.9c0.9,3.1,1.5,6.3,2.3,9.4c0.7,2.7,1.9,5.3,3.6,7.5c1.4,1.9,0.9,3-1.2,3.7c-0.3,0.1-0.6,0.3-0.9,0.3
				c-4.7,0-7.7,1.8-7.9,6.9c0,0.9-0.8,1-1.5,1.4c-1.3,0.8-2.7,1.6-3.8,2.7c-1.9,1.8-1.5,3.2,1.1,4c0.6,0.2,1.2,0.4,1.7,0.7
				c0.6,0.3,0.4,0.9,0.2,1.4c-0.2,0.5-0.5,0.7-1.2,0.5c-3.2-0.9-4.8-3.1-4.7-6.5c0-1.3-0.2-2.7-0.4-4c-0.1-0.5-0.6-1.3-0.8-1.1
				c-2.3,2.3-3.5-0.8-5.4-1c-5.9-0.5-11.6-0.1-17.4,0.7c-3,0.4-3.8,3.1-2,5.7c0.7,1.1,1.3,2.2,2.1,3.6c-2,0-3.3-0.4-4.7-0.8
				c-2.4-0.8-4.3,0.1-5.7,2c-1.5,2.1,0.3,3.6,1.4,4.5c5.2,4.1,9.5,9.4,16.3,11.1c1.7,0.4,1.9,1.6,2.2,3c0.2,1.2,0.6,2.6,2.1,2.8
				c1.6,0.2,1.7-1.2,1.9-2.3c0.3-1.1,1.2-1.7,2-2.4c1.8-1.4,2.9-1,3.2,1.2c0.1,0.8,0.7,1.3,1.2,1.8c2.8,2.6,3.8,6.3,6.6,9.1
				c3.6,3.8,4.4,9.7,7.4,14.2c0.4,0.6,0.5,1.5-0.1,2c-1.4,1.3-0.6,3-0.6,4.4c0,0.8-0.1,2.2,1.2,2.2c1.3,0,0.6-1.5,1.2-2.5
				c0.9,2.9,3,4.7,5.2,6.3c1.8,1.3,3,2.9,1.7,5.2c-0.2,0.4-0.6,1-0.5,1.4c1.2,5.7-0.3,11.4,0.6,17c0.3,1.6-1,2.6-0.9,3.7
				c0.4,5-0.7,10.1,0.9,15c0.6,1.8,1.7,1.3,2.4,0.3c1.1-1.7,1.6-1.1,2.3,0.3c2,4,4.3,7.5,9.7,7.7c2.9,0.2,5.8,1.5,8.3,3.3
				c0.7,0.5,1.5,1.1,2.2,0.3c0.9-1-0.4-1.3-0.9-1.9c-1.8-1.7-1.2-3.6-0.4-5.4c1-2.2,2.2-4.3,4.8-4.9c0.9-0.2,2.1,0.3,2.5,1.1
				c1.8,4.3,4.6,3.7,8,2.2c1.2-0.5,2.7-0.3,3.9,0.5c4.7,3.3,9.5,6.3,14.6,8.9C396.3,310.6,396.8,312.6,397.4,314.1
				c-0.8-0.8-1.6-1.7-2.5-2.5c-0.7-0.6-1.7-1-1.8,0.3c-0.2,1.3,0.1,2.7,1.5,3.4C395.8,315.9,396.9,315.7,397.4,314.1z M215.1,550.2
				c2.2-3.3,1.4-5.5-2.3-5.9c-1-0.1-1.8,0.2-2.3,1.2c-0.5,1-0.2,1.9,0.7,2.4C212.5,548.7,213.9,549.4,215.1,550.2
				c-0.5,1.1-1.3,1.4-2.5,1.1c-1.3-0.4-3-1.7-3.9-0.2c-0.8,1.3,1,2.5,1.7,3.7c0.1,0.1,0,0.4,0,0.6c-1.3,0.7-2.6,0.5-3.9,0.4
				c-1.3-0.1-3.2-0.7-3.6,0.8c-0.4,1.6-1.5,3.6-0.3,5.3c1.1,1.4,1.2,2.7,0.6,4.3c-0.6,1.6,0.1,2.4,1.8,3.1c2.9,1.3,5.1-0.1,7.6-0.9
				c1.4-0.4,1.5-1,0.5-2.2c-1.3-1.7-3.6-2.1-4.9-3.7c-0.5-0.6-1.6-1-0.9-2c0.5-0.7,1.3-0.2,2,0c2.5,0.9,5.1,1.8,7.7,2.5
				c0.9,0.3,2,0.2,2.4-0.9c0.3-0.9-0.4-1.6-1.1-2c-0.8-0.5-1.6-0.9-2.5-1.2c-1.5-0.5-2.7-1.4-3.7-3.1c0.7,0,1.1,0.1,1.5,0
				c1.8-0.5,5.7,3.3,4.8-2.4c0-0.1,0.4-0.4,0.7-0.5c1.9-1.1,0.6-1.7-0.4-2.3C217.6,549.7,216.3,550,215.1,550.2z M313.4,305.7
				c0.1,3.3,1.8,4.7,3.1,6.6c1.3,1.9,3,2.5,4.4,2.3c1.8-0.2,3.5-2,4.2-3.8c0.6-1.8,1.1-4.5-0.8-5.4c-2.5-1.1-2.6-2.6-2.5-4.8
				c0.1-1.5-0.6-3.1-0.6-4.6c-0.1-3.8-2.4-7-2.5-10.7c0-0.5-0.2-1.1-0.8-1.1c-0.7,0-1.1,0.5-1.3,1.1c-1.2,2.7-1.9,5.5-1.9,8.5
				c0,0.8,0.5,2-0.6,2.2c-1.2,0.2-0.9-1.1-1.2-1.8c-0.4-0.9-0.3-2-1.2-2.4c-3-1.6-1.6-4.1-1.9-6.4c1.6,0.2,0.8,2.3,2.6,2
				c0.7-3,1.5-6.1,2.1-9.2c0.6-2.9,0-5.7-1.4-8.4c-3.1-5.8-5-12.1-9.3-17.5c-3.6-4.5-7.5-8.7-11.1-13.1c-0.7-0.9-2-2.3-3.5-1.6
				c-2.1,1-2.8,0-3.4-1.6c-0.4-1-1.1-2.1-2.3-1.6c-1.5,0.6-0.8,2-0.4,3c1.6,3.8,4.1,7.3,2.7,11.7c-0.1,0.3,0.3,0.8,0.4,1.1
				c0.8,2.7,0.5,5.8,3.5,7.6c0.4,0.2,0.2,1.2,0.4,1.8c1.2,3-0.9,5.7-0.7,8.5c0.3,3.6-0.8,7-1.4,10.4c-0.4,2.4,0.6,3.9,3,3.7
				c1.4-0.1,2.6-0.7,3.8-1.3c1.8-0.9,3.6-1.9,5.4-2.8c-2.8,3.4-6,5.8-10.8,5.1c-2.6-0.3-4,1-4.1,3.8c-0.2,5.3-0.6,10.6-0.9,15.9
				c-0.2,2.6,1,3.5,3.5,3.3c3.8-0.4,5.2-1.5,4.9-4c-0.3-1.7,0.2-3,1.9-4.7c-0.2,2-0.5,3.2-0.5,4.4c0.1,2.8,0.9,5.3-0.3,8.3
				c-0.7,1.9-1.8,4.3-0.9,6.6c0.7,2,0.6,3.8-0.1,5.8c-0.8,2.2,0.1,2.6,2.3,2.5c2.8-0.1,5.4-1.1,8.3-0.7c2.2,0.3,4.3-2.1,7-1.3
				c0.6,0.2,1.2-1.2,1.5-2.1c0.4-1.1,0.1-2.3,0-3.4C311.4,313.6,310.9,310,313.4,305.7z M282.2,436.6c1.3-2.3,6-5.7,8.3-6.3
				c1.2-0.3,2.1-1,2.2-2.3c0.1-0.8-0.4-1.5-1.3-1.4c-3,0.2-6.1,0-8.9,0.9c-4.8,1.5-4.7,1.8-8.3-1.8c-0.6-0.6-1.2-1.2-1.8-1.8
				c-4-3.8-4-5,0.2-8.5c4.3-3.7,4.6-5.9,2-10.7c-1.5-2.8-2.8-2.4-4.8-0.8c-2.3,1.9-4.5,3.7-7.4,4.8c-1.9,0.6-4.1,1.6-5.2,3.6
				c-1.8,3.4-4.5,6.3-4.7,10.5c-0.1,1.6-0.8,2.6,1.4,2.6c3.6,0.1,2.5,3.1,3.2,5c0.7,2-0.8,3.3-1.7,3.6c-3.7,1.1-4.8,4.3-6.4,7
				c-1.7,2.8-1.2,8.4,1.6,9.9c3.4,1.8,2.1,3.7,0.9,5.8c-0.7,1.1-1.5,2-0.9,3.4c2.7,5.6,6.8,9.6,12.5,12c2.5,1.1,7.6-0.8,9.2-3.1
				c2.1-3.3-1.6-3.5-2.8-5.1c-0.5-0.6-1-1.1-0.6-1.9c0.5-0.9,1.4-0.9,2.2-0.4c2.5,1.6,5.1,1.4,7.8,0.9c1.2-0.2,2.8,0.2,3.2-1.3
				c0.4-1.4-0.2-2.8-1.2-4c-0.4-0.5-1.7-0.9-1.1-1.6c2.4-2.9,2.2-7.8,6.7-9c-0.1,1.7-0.2,3.5-0.3,6c3.1-3.9,5.1-7.5,5.3-11.9
				c0-0.8-0.1-2.1,0.8-2.2c1.5-0.2,1.8-0.6,0.9-1.9c-0.8-1.1-1.7-2.2-3-1.2C287.7,437.3,284.8,435.1,282.2,436.6z M219.5,375.5
				c3.1,1.2,3.2,1.2,3.1,4.2c0,1.4,1.2,2,1.5,1.2c0.6-1.7,5.2-1.1,2.7-4.5c-0.2-0.2,0.4-1.1,0.8-1.6c1.5-1.8,1.6-3.4,0.2-5.6
				c-1-1.6-3-4.2,0.8-5.7c1.4-0.6,0.7-2.2,0.3-3.4c-0.4-1.3-1.1-2.4-2.6-2.3c-1.5,0-1.5,1.5-2,2.5c-1.4,2.9-2.3,5.9-4.3,8.5
				c-0.8,1-1.3,1.4-2.1-0.2c-2.5-4.9-3.1-10-1.5-15.1c1.2-3.7-0.3-5.4-3-7.1c-7.4-4.6-14.4-9.9-22.1-13.9c-1-0.5-2.1-1.6-3.1-0.8
				c-1.3,1.1-0.1,2.3,0.4,3.4c4.3,9,8.8,17.8,12.9,26.9c6,13.3,13,26.2,18.9,39.6c4.3,9.9,8.3,20.1,14,29.5c1.8,3,3.2,6.3,4.8,9.4
				c0.4,0.8,1,2.1,2.3,1.6c1.1-0.4,0.7-1.6,0.6-2.5c-0.5-4.2-2.4-8.5,0.3-12.6c0.2-0.3,0.1-0.8,0-1.2c-1.4-4.6,0.7-9.5-1.5-14.3
				c-1.5-3.2-1.2-7.1-1.8-10.7c-0.3-1.8-1-3.3-3-3.5c-3-0.3-4.2-2.2-4.3-4.8c-0.1-2.9-1.4-3.9-4.2-4.3c-2.9-0.4-6.2-0.8-7.3-4.3
				C219.6,381.1,218.9,378.5,219.5,375.5z M294,369c0.5-2.1-0.1-3.9,1.5-5.2c0.6-0.5,0.6-2,0.1-2.3c-1.6-0.9-1.6-2.3-2-3.8
				c-0.1-0.7-0.6-1.8-1.6-1.5c-0.8,0.2-0.6,1.2-0.8,1.9c-0.1,0.8,0.8,2.4-0.5,2.4c-2.9,0.1-4.2,2.7-5.9,4.1
				c-2.1,1.7-3.5,0.7-5.3,0.8c-2.1,0.1-3.6,0-5-2c-1.6-2.2-3.4-4.9-6.5-4.9c-5.5-0.1-11.4,5.7-10.4,11.7c0.4,2.3,1.6,4.2,1.2,6.8
				c-0.3,1.8,0.7,4.7,4.1,3c1.3-0.6,1.3,0.7,1.6,1.3c0.9,1.6,2.3,3.5,4,2.8c3.3-1.4,4.4,0.9,5.3,2.9c0.9,2.1,3.6,3.4,3.3,5.8
				c-0.3,2,0.6,3.1,1.6,4.4c0.7,1,1.7,1.7,2.9,1.1c1.3-0.7,0.9-1.9,0.3-3c-3.4-5.9-3.1-12.8-5.1-19.1c-0.5-1.5,0.2-2.5,1.5-3.7
				c1.7-1.5,4.2-1.4,5.5-2.7c1.3-1.3,1.7-0.7,2.9-0.3c3.1,1,2.5,3.5,2.4,5.6c-0.1,2.4,0.2,4.7,2.6,5.4c2.2,0.7,3.7,3.1,6.5,2.2
				c0.9-0.3,1.4,0.8,1.6,1.6c1.3,3.5,4.5,3.3,7,3.2c2.6-0.1,0.7-3,1.4-4.4c0-0.1,0-0.2,0.1-0.3c1.6-4.4,1.4-9.2,2.3-13.8
				c0.9-4.9-0.8-10.2-1.4-15.4c-0.1-0.7-0.8-1.4-1.2-0.9c-1.8,2.3-5.2,1.7-6.9,4.1c-0.8,1.1-1.5,2.6-3.7,1.9
				c-1.1-0.4-1.4,1.1-0.9,2.3C297.8,363.9,296.9,367,294,369z M319.6,167c0.5-3.1,1.3-6.1-2.4-7.9c-1-0.5-1.5-2-0.5-3.3
				c1.1-1.4,0.7-2.7-0.1-4c-0.8-1.2-2.3-2.8-2-3.6c1.8-4.3-1.5-4.5-3.9-4.8c-2.2-0.3-5.4-0.8-6.6,0.4c-2.8,2.9-4.9,6.2-9.3,7
				c-0.3,0.1-0.5,0.6-0.8,0.9c-2.2,2.1-0.6,5.4-2.3,7.7c-0.1,0.2,0,0.8,0.2,0.9c3.2,1.6,5.2,5.3,9.2,5.8c1.4,0.2,2.2,0.6,2,2.1
				c-0.3,2.5,1.4,2.1,2.8,1.8c2.3-0.5,4.5-1.6,7.3-1.8c-0.6,1.5-1.4,3,0.4,3.9c0.8,0.4,1.6,0.6,2.4,0.2c1.8-1,0.3-2.4,0.4-3.7
				c0-0.9-0.4-1.8,0.5-2.5C318.1,165.1,318.4,167.1,319.6,167z M295.6,223.2c1.4-3.3,0.4-5.5-2.3-6.1c-1.9-0.5-3-1.6-3.8-2.9
				c-0.8-1.4-1.9-2.5-3.3-3.2c-1.9-1.1-3.5-2.3-4.5-4.5c-1.2-2.8-3.7-1.7-5.7-1.1c-2.2,0.7-1.4,2.5-1.1,3.9c0.7,3.2,3.2,5.6,4.4,8.5
				c2.5,6.1,7.3,7.7,13.2,7.6c1.9,0,2.2,0.6,1.7,2.2c-0.3,1-0.4,2-1,2.9c-1.8,3-1.3,3.4,1.9,4.9c6,2.7,12.5,4.6,17.3,9.5
				c0.7,0.7,1.5,1.3,2.4,0.8c1.1-0.7,0.4-1.6,0.1-2.5c-1.7-6.1-5.5-11.1-8.7-16.5C303.9,222.6,299.7,221.2,295.6,223.2z
				 M329.2,364.9c-1,0-1.3-1.7-2.3-1.2c-2.2,1-2.3-0.6-2.9-1.9c-1.1-2.4-1.1-5-1.8-7.5c-0.3-1-0.7-2.5-2-2.5c-1,0-1,1.4-1.4,2.2
				c-0.3,0.7-0.4,1.4-1.1,1.8c-0.6-0.2-0.6-0.8-0.8-1.3c-0.3-0.6,0.3-1.7-0.7-1.8c-1.1-0.1-1.6,1.1-1.7,1.9c-0.3,2-0.3,4.1-0.4,6.2
				c-0.1,1.5,0.4,2.5,1.9,3.1c1.8,0.7,3.4,2,4.8,3.4c0.9,1,0.7,3.2,0.6,3.2c-3.1-1.1-2,2-2.8,3c-1.3,1.6,1.2,6.3,2.9,6.2
				c4.3-0.2,8.7-0.9,12.8,1.3c0.9,0.5,2.1,0.3,2.8-0.7c1-1.4,0.3-6.3-1-7.7c-0.8-0.9-3.3-1-1.9-3.1c0.8-1.2,0.1-2.8,1.5-4
				c1.3-1.1,0.7-5.2-0.9-6.8c-2.2-2.2-4.4-0.7-6.2,0.4c-2.4,1.4-0.3,3,0.3,4.5C329,364,329,364.5,329.2,364.9z M296.4,332
				c-3.6-2-4.1,0.1-4.2,2.5c-0.1,2-0.4,4-0.2,5.9c0.2,2-0.3,4.9,3.5,3.6c0.3-0.1,0.7,0.3,1,0.5c2.3,1.5,7.3,1.2,9-1
				c1.4-1.8,2.1-2.1,3,0.2c0.3,0.8,0.9,1.6,1.9,1.2c0.8-0.2,1-1.1,1-1.8c-0.4-4,1.3-7.9,0.1-12c-0.6-1.9-1.2-2.9-3.3-3
				c-3.6-0.1-7.2-0.4-10.9-0.6c-1.4-0.1-3.4-0.5-3.9,1.1C292.7,330.6,295.3,330.2,296.4,332z M344.1,453.3c0.2-1.9-0.2-2.5-0.9-3.1
				c-4.1-3.4-7.2-7.7-11.5-10.8c-1.2-0.9-2.3-2.2-3.8-1.2c-1.5,1-2.8,2.9-2.2,4.5c1.4,3.8,0.3,7-1.3,10.3c-0.6,1.2-0.4,1.8,1,2.2
				c1.9,0.6,4.9,1.2,5.5,2.1c2.7,4.5,5.2,2.4,7.9,0.5c0.3-0.2,0.8-0.2,1.1-0.5C341.6,455.9,343.8,454.9,344.1,453.3z M284.2,357.1
				c1.1,0.2,1.9-0.2,2.8-1c2.6-2.2,1.5-5.1,0.8-7.5c-0.5-1.7-0.2-2.3,0.7-3.4c1.2-1.4,2.4-3.2,0.8-5c-2.1-2.5-8.6-1.6-9.6,1.4
				c-0.8,2.2-1.6,2.3-3.4,1.4c-2-1-3,0.1-2.7,2.1c0.4,3.1,1.1,6.1,1.7,9.2c0.1,0.7,0.7,1.1,1.3,1.2
				C279.2,355.6,281.6,356.7,284.2,357.1z M307.3,409.9c0.4,1.5,1,2.4,2.1,2.5c2.7,0.4,3.1,2.5,2.8,4.4c-0.3,1.9,0.3,3,1.8,3.4
				c2.7,0.7,4,3.1,5.7,4.7c4.5,4.3,8.8,8.8,14.7,11.3c1.4,0.6,3.1,2.1,4.1,0.6c0.9-1.4-1.3-2.5-2.1-3.8c-0.1-0.2-0.3-0.3-0.5-0.4
				c-4.8-4.3-9.6-8.6-14.4-12.8C317.2,416.1,313.4,411.7,307.3,409.9z M323.6,246.1c-1.1,6.9-3,13.6-4.3,20.3
				c-0.2,1.1,0.1,3.3,0.2,3.3c2.7,0.1,1.2,1.8,1.1,2.8c0,1.4-1.2,2.8-0.7,4.2c0.5,1.5,0.3,4,2.2,4c1.8,0,1.7-2.3,1.7-3.8
				c0-1.9,0.6-1.7,2-0.9c2.3,1.3,3.8,0.2,3.6-2.5c-0.1-1.3-0.5-2.7-0.5-4c0-3.4-0.3-3.8-3.7-3.1c-0.5,0.1-1,0.4-1.4-0.3
				c0.2-1.2,1.9-2.1,1.4-3.5c-1.1-3.2-0.2-6.3-0.2-9.4C325,250.8,324.1,248.5,323.6,246.1z M235.4,365c-1.5,0-4.3-0.8-4,3.2
				c0,0.3-0.4,0.7-0.6,1c-0.5,0.9,0.8,8,1.6,8.6c0.3,0.2,0.8,0.3,1.1,0.4c2.1,0.2,4.1,0.2,6.2,0.5c2.2,0.3,3.2-0.6,3-2.7
				c-0.2-2-0.1-3.9,0.1-5.9c0.4-3-1.1-4.5-3.9-4.8C238.1,365.2,237.2,365.1,235.4,365z M282.9,384.9c0.6,1,1.5,1.8,1.7,2.9
				c1.3,7.7,7.2,12.5,11.4,18.4c1.1,1.5,2.6,1.6,4.1,0.5c0.9-0.7,1.1-6.1,0.6-7.2c-1.3-2.7-4.1-3.8-6.1-5.7
				C291,390.5,287.6,387,282.9,384.9z M245,353.8c-0.1,1.1,0.4,1.5,1.1,1.9c4.2,2.2,7.4-0.5,10.7-2.3c3-1.6,2.1-6.1,5.1-8
				c0.5-0.3,0-1.2-0.4-1.7c-1.4-1.6-3-2.2-4.9-0.9c-1.8,1.2-3.7,2.3-5.7,3.2C247.6,347.6,246.9,351.3,245,353.8z M257.2,328.3
				c-0.2,1.7,1.7,3.9,2.1,6.6c0.1,0.8,6,0.6,6.5-0.1c0.5-0.7,0.1-1.1-0.4-1.6c-0.8-0.7-1.6-1.4-2.2-2.2c-0.7-1-1.5-2.5-0.4-3.3
				c1.1-0.9,2.6-0.1,3.5,1c0.5,0.5,0.8,1.2,1,1.9c0.2,0.6-1,1.7,0.6,1.7c0.9,0,1.2-0.8,1.4-1.8c0.6-3,0-5.7-1.3-8.3
				c-1.2-2.6-2.5-3.1-4.6-1.3c-1.5,1.2-1.8,1-2.6-0.6c-0.5-1-2.4-1.2-2.3,0C258.9,322.8,257.3,324.8,257.2,328.3z M288.7,328.7
				c0-0.4-0.1-0.8-0.1-1.2c0-1.7,0-3.4-1.2-4.7c-1.4-1.4-2.1,0.9-3.2,0.8c-0.5,0-1-0.1-1.5-0.1c-5.3-0.4-7.2,0.8-8.6,5.8
				c-0.4,1.6-0.4,3.8,0.8,4.6c1.5,1,2.4-0.9,3.2-2.1c0.3-0.4,0.7-0.8,1.1-1.1c2.5-1.8,4.8-1.1,5.1,1.5c0.1,0.9-1,2.3,0.4,2.7
				c1.2,0.4,1.9-1,2.8-1.7C289.1,332.1,288.8,330.4,288.7,328.7z M296,481.5c1.6-0.3,3.3-0.4,4.9-0.8c2.3-0.6,3.3-2.2,2.4-4.5
				c-1.2-3.1-1.9-6.4-3.8-9.2c-0.7-1-0.8-2.8-2.2-2.7c-1.7,0.1-1.5,2-1.7,3.3c-0.7,3.6-0.9,7.3-1.9,10.7
				C292.9,481,293.3,481.8,296,481.5z M275.6,303.6c0.1-0.7,0.2-1.6-0.5-1.9c-0.9-0.4-1.4,0.2-1.6,1c-0.3,1.1-1,0.5-1.7,0.5
				c-2.6,0.3-3.4,2.7-4.6,4.5c-0.9,1.3,0.3,2.2,0.9,3.2c1.2,1.9,2.3,3.9,2.9,6c0.4,1.5,0.9,3.1,2.2,3.3c1.3,0.1,1.4-1.8,1.9-2.9
				C276.8,312.8,275.6,308.2,275.6,303.6z M324,346.6c-0.3,2,1.4,3.7,0.8,5.8c-0.2,0.5,0.4,0.9,1,0.9c2.8-0.2,5.4-4.9,4.3-7.5
				c-2.2-4.9-3.8-9.8-1.2-15.1c0.6-1.2,0.1-2.3-1-3c-1.1-0.7-1.7,0.3-2.4,0.9c-1.3,1.1-2,2.6-1.7,4.2
				C324.6,337.3,325.5,341.9,324,346.6z M246.3,388c0,0.6,0.1,1.6,1.1,2c1,0.4,2.2,0.8,3.2-0.2c1.8-2.1,2.6-1.4,2.7,1
				c0.1,1.5,0.6,2.2,2.1,1.7c1.4-0.4,1.8-1.5,1.1-2.7c-0.8-1.3-0.9-2.5-0.7-3.9c0.2-1.8-0.7-3.3-1.7-4.6c-1-1.3-3.8-2-4.2-1.2
				C248.8,382.6,246.6,384.7,246.3,388z M345.8,315.3c1.4,0.1,2.9-0.3,3.8,0.6c1,1,1.5,2.6,3.3,2.3c1.9-0.4,1.2-2.4,1.9-3.5
				c0.3-0.4,0.6-0.9,0.8-1.3c1-1.6,0.9-3.1-1-3.8c-1.8-0.6-3.6-0.7-3.9,1.9c-0.1,0.8-0.1,1.7-1.1,1.1c-1.9-1.1-4.2,0-6-1.3
				c-0.6-0.4-1.4-0.5-2,0.2c-0.8,1-0.7,2.1-0.4,3.2c0.2,0.8,0.9,1,1.7,1C344,315.6,345,315.4,345.8,315.3z M328.1,286.7
				c-0.2-1.9-0.4-4.5-0.7-7.1c-0.1-0.9-0.3-1.7-1.4-1.8c-0.9-0.1-1.3,0.5-1.6,1.2c-2.1,4.5-2,9,0.1,13.4c0.3,0.7,0.6,1.4,1.6,1.3
				c0.9-0.1,1.1-0.9,1.3-1.5C328,290.7,327.9,289,328.1,286.7z M311.8,252.2c-1.2-2.2,0.4-6.1-3.6-7.4c-0.4-0.1-0.6-0.8-0.9-1.3
				c-1.1-2.3-3.8-1.3-5.4-2.6c-0.4-0.3-1,0.4-1,0.9c0.1,2,0.7,4.4,2.4,4.7c3.8,0.8,4.5,4,6.2,6.5c0.4,0.6,0.5,1.5,1.4,1.3
				C312,254.1,311.8,253.2,311.8,252.2z M284,312.2c0.3,1.7,0.6,3.5,0.9,5.2c0.3,1.3,0.9,1.4,2,0.7c2.2-1.6,4.2-7,3.5-9.7
				c-0.2-0.9-0.8-1.3-1.8-1.3C285.1,307.2,284,308.4,284,312.2z M250.4,410.7c1.6,2.6,2.7,1.7,4.3,0c1.1-1.3,1.5-2.7,2-4.1
				c0.3-0.9,0.1-1.7-0.6-2.2c-0.8-0.6-1.6-0.3-2.3,0.1c-2.4,1.3-4.1,3.4-5.9,5.3c-1.2,1.2-0.7,2.9,0.4,4.2c0.4,0.5,1,0.9,1.6,0.6
				C251.6,413.6,249.5,412.3,250.4,410.7z M316.8,245.5c0.2,1,0.3,1.8,0.4,2.6c0.1,0.5,0.5,1,1.1,1c0.6,0,1.1-0.5,1.1-1
				c-0.1-2.8,1.7-5,2.1-7.6c0.4-2.1-0.3-4.1-2.1-5.5c-0.6-0.5-1.2-1.3-2.1-0.8c-0.9,0.5-1.3,1.5-0.9,2.4
				C317.5,239.6,317.9,242.6,316.8,245.5z M352.7,449.8c-0.1-0.3-0.1-0.7-0.3-0.9c-3.2-3.1-6.4-6.2-9.7-9.2c-0.6-0.5-1.4-0.3-2,0.3
				c-0.7,0.7-0.7,1.6,0,2.2c3,2.9,5.9,5.8,9,8.5C350.9,451.7,352.1,451.4,352.7,449.8z M223.9,535.5c0.1,0.2,0.2,0.5,0.4,0.7
				c0.5,0.6,6.5,1,7.1,0.4c1.6-1.3,3.1-2.7,4.6-4.1c0.5-0.4,0.9-0.9,0.5-1.6c-0.4-0.6-1.1-0.5-1.7-0.2c-2.8,1.6-6,2.3-9.1,3.1
				C225,534.1,224.2,534.5,223.9,535.5z M199.9,558.4c-0.5-1.2-0.9-2.8-1.8-3.9c-1-1-2.6-2.1-4.2-1.1c-1.6,1-0.4,2.4,0,3.6
				c0.4,1.1,1,2,1.5,3c0.5,1,1,2.3,2.4,1.8C199.3,561.4,199.6,560,199.9,558.4z M215.1,539.7c1.4,2.1,2.9,3.9,4,5.9
				c1.2,2.1,3.2,2.6,5.2,2.9c0.7,0.1,1.5,0.3,1.9-0.5c0.5-1-0.3-1.6-1-2C222,543.9,219.7,540.4,215.1,539.7z M379.8,312.7
				c1-0.4,2.2-1.2,2.2-2.3c0-1.8-0.2-3.7-0.8-5.3c-0.5-1.4-1.8-2.7-3.7-1.9c-1.2,0.5-0.8,1.7-0.5,2.7c0.7,2.3,0.3,5,2.4,6.8
				C379.5,312.7,379.6,312.7,379.8,312.7z M294.8,418.5c-3.2,0.3-6.2,1-7.9,4.1c-0.4,0.7-1,1.5-0.2,2.3c0.8,0.7,1.6,0.3,2.2-0.4
				c1.1-1.2,2.5-1.7,4.1-2c1.1-0.2,2.2-0.6,3-1.6c0.4-0.5,0.6-1.1,0.4-1.7C296,418.5,295.4,418.3,294.8,418.5z M318.6,339.4
				c0.1,0.5-0.4,1.7,0.8,2.3c1.1,0.6,2.1,0,2.8-0.7c1-0.8,0.7-1.9,0.1-2.8c-0.9-1.2,0-2.1,0.3-3.2c0.5-1.6-0.5-2.2-1.8-2.6
				c-1.6-0.4-1.7,0.8-1.8,1.8C318.8,335.9,318.7,337.4,318.6,339.4z M327,468.4c2.3,0.2,4.2-1.2,5.4-3.5c0.4-0.8,0.4-1.9-0.9-1.5
				c-1.5,0.5-3.1,0.3-4.6,0.5c-1.6,0.3-2.5,1.5-2.5,3.1C324.3,468.6,325.5,468.5,327,468.4z M197.4,548.7c0.4,0.7,0.7,1.6,1.2,2.4
				c0.8,1.4,1.8,2.6,3.6,2.6c1,0,1.5-0.7,1.5-1.6c0.2-1.9-0.8-3.1-2.5-3.9c-0.7-0.3-1.2-0.8-1.9-1
				C198,546.5,197.5,547.3,197.4,548.7z M272.5,286.4c0.9-2.4-0.4-3.9-1.8-5.3c-0.9-0.9-1.9-0.8-2.7,0.1c-1,1.1-1.9,2.4-1.2,3.9
				c0.5,1.1,1.7,1.5,2.6,0.7C270.8,284.7,271.6,286.1,272.5,286.4z M231.3,601.8c-0.4-1.2-1.1-2.2-2-1.4c-0.7,0.6-2.1,0.7-2.1,2
				c0,1.3-0.3,1.7-1.3,0.4c-0.3-0.5-0.9-0.5-1.4-0.2c-0.4,0.3-0.5,0.8-0.2,1.1c1.1,1,2.2,2.2,3.5,2.9c1.3,0.6,3,0.1,3-1.5
				C230.9,603.9,228.7,602.6,231.3,601.8z M387,311c-0.4-1.4-0.6-2.7-1.1-4c-0.4-1-1.1-1.9-2.4-1.2c-1,0.6-0.8,1.6-0.2,2.4
				c0.7,0.8,1.1,1.5,1.1,2.7c0,1.4-0.5,3.7,1.4,3.7C387.2,314.6,386.2,312.1,387,311z M340.4,303.5c1.3,0,2.9,0.2,2.9-1.5
				c-0.1-2.1-2.1-2.4-3.7-2.6c-1.4-0.2-2.6,0.8-2.6,2.1C336.9,303.9,339.1,303,340.4,303.5z M277.5,293.7c0-0.5,0-0.9,0-1.2
				c-0.1-1,0.3-2.6-1.3-2.7c-1.2,0-1.2,1.4-1.4,2.4c-0.1,0.3-0.2,0.6-0.1,0.9c0.2,1.6-0.4,4.4,1.4,4.4
				C278,297.7,277,294.9,277.5,293.7z M270.1,500.2c1.4-0.2,4.9-6.5,4.2-7.5c-0.7-1-1.2-0.4-1.6,0.3c-1.1,1.9-2.1,3.8-3,5.7
				C269.3,499.3,269,500.1,270.1,500.2z M390.2,309.9c-1.4,0.1-1.4,1.3-1.4,2.1c-0.1,1.5,0.3,3,2,3.4c0.9,0.2,1.8-0.3,1.6-1.3
				C392.2,312.4,391.7,310.8,390.2,309.9z M263.6,222.5c-0.7-1.9-2.5-2.1-4.2-2.5c-0.7-0.2-1.9,0-1.6,0.8c0.7,1.8,2.6,2.5,4.3,3.1
				C262.9,224.1,263.5,223.4,263.6,222.5z M220.1,353c0.7,1.5,1.2,2.7,1.7,3.9c0.3,0.5,0.6,1.2,1.3,1c0.7-0.1,0.9-0.7,1.2-1.3
				C225.2,354.6,224,353.4,220.1,353z M200.9,541.7c0.5,2.4,2.3,3.1,3.5,4.2c0.5,0.5,1.1,0.5,1.7,0c0.7-0.7,0.3-1.3-0.2-1.9
				C204.6,542.8,203.1,542.1,200.9,541.7z M214.3,338.9c-1,0-1.9,0.2-1.6,1.1c0.5,1.9,2.4,1.5,3.8,1.9c0.5,0.2,1.6,0.2,1.5-0.5
				C217.6,339.5,215.5,339.6,214.3,338.9z M254.6,266.4c0-0.8-0.3-1.6-1.2-1.3c-1.5,0.4-2,1.6-2.1,3.1c0,0.7,0.3,1.4,1,1.1
				C253.7,268.9,254.6,267.9,254.6,266.4z M313.6,324.6c1.4-1.9,1.9-3.6,2.1-5.4c0.1-0.5,0-1.1-0.6-1.3c-0.6-0.2-1,0.2-1.2,0.7
				C313.5,320.4,312.9,322.2,313.6,324.6z M271.4,476.9c0.9-0.1,2.1,0.1,2.2-1.4c0-0.9-0.6-1.6-1.5-1.4c-1,0.2-2.6,0-2.7,1.4
				C269.1,476.6,270.4,476.6,271.4,476.9z M263.7,217.4c-0.6,0.2-1.9-0.2-1.6,1.1c0.3,1.2,1.4,1.8,2.6,1.9c0.9,0,1.8-0.6,1.7-1.4
				C266.3,217.4,264.8,217.7,263.7,217.4z M269.9,486.4c-0.3-0.9-0.9-1.2-1.9-1c-0.9,0.2-2.1,0.2-2.2,1.3c-0.1,1.3,1.1,1.3,2,1.3
				C268.8,488,269.7,487.7,269.9,486.4z M324.9,316.9c-0.1-0.9-0.6-1.7-1.6-1.5c-1.1,0.2-1.3,1.2-1.4,2.1c-0.1,0.9,0.4,1.8,1.3,1.7
				C324.4,319.1,324.7,317.9,324.9,316.9z M380.4,333.8c1.1,2.8,3,4.3,5.5,3.9C383.7,336.6,382.6,334.5,380.4,333.8z M206,539
				c-0.7-0.1-1.1,0.2-1,0.8c0.2,1.3,1.2,1.9,2.2,2.3c0.9,0.3,1.4-0.6,1.3-1.3C208.3,539.5,206.8,539.5,206,539z M286.3,259.9
				c-1.1,0.4-2,0.9-2.1,2.2c0,0.7,0.3,1.3,1.1,1.2c1.4-0.1,1.6-1.3,1.9-2.4C287.3,260.3,286.9,259.9,286.3,259.9z"/>
			<path d="M228.7,490.1c-1.4-5.2,2.7-7.9,4.9-11.6c0.8-1.4,1.6-2,3.1-0.9c1.3,0.9,3,0.6,4.6,1c-0.5,1.4-1.8,1.9-2.5,2.5
				c-1.9,1.5-3.2,2.3-0.2,4c0.8,0.4,0.5,1.6-0.2,2.2c-0.9,0.8-1.5,0.2-1.9-0.6c-0.3-0.7-0.5-1.8-1.6-1.5c-1.1,0.3-0.5,1.4-0.5,2.1
				c-0.1,0.9-0.1,1.9-0.4,2.7c-0.4,1.4-1.1,2.9-2.5,0.6C230.6,488.8,229.4,489.6,228.7,490.1z"/>
			<path d="M352.2,476.2c0.9,0.9,0.6,2,1,2.7c1,1.8,1.1,2.8-1.5,2.8c-1.9-0.1-2.7,1.3-3,3c-0.3,1.4-0.8,2.6-2.2,3.2
				c-0.6,0.3-0.9,0.6-1.5-0.2c-2.3-3.6-5.1-4.2-8.7-2.2c-0.8,0.5-1.5,1.1-3.1,0.7c1.6-2,2.9-4,5.4-4.1c2.4-0.2,4.4-0.9,6.4-2.1
				c1.1-0.6,2.1-1.2,3.7-0.6C351.4,480.5,350.6,477.1,352.2,476.2z"/>
			<path d="M220,236.1c-1.5-4.2,0.4-7,2.9-9.7c2.8-3,6.1-4.9,10.3-5c0.6,0,1.4-0.4,1.7,0.3c0.4,0.8-0.3,1.5-1,1.7
				c-4.1,1.3-5.9,4.8-8.2,7.9C224.3,233.3,222.3,234.7,220,236.1z"/>
			<path d="M351.7,529.9c-0.1-0.1-0.4-0.3-0.4-0.4c-0.3-2.9-0.6-5.6-1.5-8.5c-1.1-3.6-2.7-8.2,0.9-12c0.8-0.9,0.1-1.5-1-1.6
				c-1.7-0.3-2.3-1.5-1.2-2.6c1.7-1.8,1.7-3.9,2-6c0.2-1.1,0.2-2.6,1.8-2.3c1.2,0.2,0.7,1.5,0.5,2.4c-1.9,9.9-1.4,19.8-0.9,29.7
				C352,529,352.2,529.5,351.7,529.9z"/>
			<path d="M205.9,292.4c-0.4-3.3-0.7-6.6,0.7-9.8c0.3-0.7,0.2-1.9,1.5-1.6c2.5,0.6,4.4-0.2,6.4-1.8c1.2-0.9,3.2-1.6,4.8,0.1
				c1,1,2.5-0.1,4.1,1.2c-3.6,0.6-6.6,1.7-9.6,2.5c-1.6,0.4-2.9,1-4.2,1.9c-0.7,0.5-1.4,1.1-1.1,2c0.3,1.1,1.3,0.7,2.1,0.7
				c0.6,0,1.2,0,2.4,0C210.5,290,206.9,289.3,205.9,292.4C205.8,292.4,205.9,292.4,205.9,292.4z"/>
			<path d="M335.1,581.7c-3.3-0.3-6.5,0.8-10,0.1c2-2.4,4.8-2.3,7.1-3.1c1.7-0.6,3.9,0,5.9,0.2c1,0.1,1.7,0.6,2.1,1.6
				c0.4,1.1-0.2,1.8-0.8,2.5c-2.4,2.4-5.7,2.8-8.7,4c-0.5,0.2-1.2-0.1-1.1-0.7c0.1-1.2,0.6-2.2,1.9-2.6
				C332.7,583.3,334.1,583.5,335.1,581.7z"/>
			<path d="M246.5,483c2.6-1.4,4.9-1.1,7.1,0c1.8,0.9,1.6,2.8,1,4.4c-0.3,0.8-1.2,1.1-2.1,1.1c-1-0.1-1-0.8-0.9-1.6
				c0.2-1.3-0.5-1.9-1.7-2.1C248.8,484.5,247.7,484,246.5,483z"/>
			<path d="M241,497.1c0.3,1.3-0.5,2-1.5,2.6c-1.3,0.9-1.9,0.2-1.6-0.9c0.5-2.3,0.2-4.2-1.8-5.7c-0.7-0.5-0.7-1.5,0.1-2.1
				c0.7-0.6,1.4-0.2,1.8,0.5C238.9,493.4,241.1,494.6,241,497.1z"/>
			<path d="M218.6,499.8c0.7-3.9,3.3-6.6,5.6-9.4c0.4-0.5,1-0.8,1.6-0.4c0.5,0.3,0.7,1,0.2,1.3C222.9,493.6,221.2,497.1,218.6,499.8
				z"/>
			<path d="M331.5,526.9c1,2.3,0.3,4.8,0.3,7.1c0,1.1-1.6,1.4-2.8,1.7c-0.4,0.1-0.8-0.2-0.9-0.7c-0.2-1,0.2-1.6,1.1-2.3
				C331.1,531.2,331.3,529.1,331.5,526.9z"/>
			<path d="M341,493.3c-1.4,2.9-2.8,5.9-4.2,8.8c-0.3-0.1-0.5-0.2-0.8-0.3c2.2-2.7,0.6-6.9,4.1-9C340.4,493,340.7,493.2,341,493.3z"
				/>
			<path d="M326.5,593c2.8-1,5.7-1.9,8.8-2.2C333.6,592.5,333.6,592.5,326.5,593z"/>
			<path d="M298.1,305.1c3.3-0.4,4.5-2.6,6.3-4.1C305.4,304.9,303.7,306.2,298.1,305.1z"/>
			<path d="M305.5,288.6c-0.5,1.9,3.5,1.9,1.8,4.2c-0.3,0.4-1.4,0.7-1.6,0.4C304.2,291.9,305.3,290.2,305.5,288.6z"/>
			<path d="M303,263.9c1.4,0.9,1.8,2,1.4,3.3c-0.2,0.6-1,0.3-1.3,0.1C301.8,266.2,302.8,265.2,303,263.9z"/>
		</g>
		<g>
			<rect x="399.8" y="0.2" fill="none" width="100" height="800"/>
			<path d="M485.2,574.9c5-1.1,7.2-4.7,7.2-10.5c0-5.7-2.3-8.2-5.9-8.2c-4,0-5.8,2.4-7.8,10.9c-3.2,13.5-8.1,16.9-14.8,16.9
				c-8.7,0-14.5-6.5-14.5-18.2c0-13.2,7.1-18.4,14.3-19.1v10.8c-3.1,0.5-6.4,2.2-6.4,8.6c0,4.4,1.8,7,5.3,7c3.5,0,4.9-2.1,6.7-10.1
				c3.4-14.4,8.8-17.6,15.8-17.6c9.1,0,15.3,6.9,15.3,20c0,12.6-6.2,19.2-15.3,20.4V574.9z"/>
			<path d="M495.2,504.2c12,0,19.5,4.4,19.5,18.5c0,13.6-7.6,16.3-11.8,16.6v-10.5c2.6-0.7,4.3-2.6,4.3-6.6c0-6.7-4.1-8-11.4-8h-1.8
				c3.2,1.9,5.2,5,5.2,10.5c0,9.8-8,15.4-18.1,15.4c-11.7,0-19.6-7-19.6-16.3c0-6.4,3-9.1,4.8-9.6c-1-0.1-3.3-0.3-3.9-0.4v-9.8
				c3.3,0.1,7.1,0.1,10.7,0.1H495.2z M480.8,529.6c6.4,0,10.2-3.2,10.2-7.8c0-6.2-4.3-7.9-10.5-7.9c-6.3,0-10.6,1.1-10.6,7.7
				C469.9,526.1,473.3,529.6,480.8,529.6z"/>
			<path d="M462.5,499.1v-5.7h-10.1V483h10.1v-7.3h7.8v7.3h18.4c2.8,0,3.9-0.9,3.9-3.9c0-0.6,0-1.6-0.1-2.3h7.1
				c0.7,2,0.7,4.9,0.7,6.9c0,7.3-3.9,9.7-10.4,9.7h-19.6v5.7H462.5z"/>
			<path d="M499.7,407.4v7.9c-1.5,0.4-3.2,0.7-4.9,0.8c3.7,2.8,5.7,7.6,5.7,14.5c0,14.4-10.9,22.5-25,22.5
				c-14.9,0-26.2-8.7-26.2-24.3c0-12.8,7.2-20.3,15.7-21.5V418c-3.3,1-7.3,3.6-7.3,10.9c0,10.2,8.5,13.1,17.3,13.1
				c8.5,0,17-3.3,17-13.2c0-9.2-6.4-10.9-10.8-10.9h-0.4v10.9H472v-21.4H499.7z"/>
			<path d="M472.6,398.1c-3.7,0-7,0-10.1,0.1V388c0.8-0.1,4.5-0.3,6.5-0.3c-4.3-1.6-7.4-5.6-7.4-12h9.8c-0.2,7.5,1.8,12,12,12h16.2
				v10.3H472.6z"/>
			<path d="M483.3,362.2c4.7,0,9.2-2.3,9.2-7.5c0-4.3-1.7-5.5-4-6.5v-10.3c4.6,1.3,12.1,5.4,12.1,17.1c0,12.3-9.2,17.6-19,17.6
				c-11.7,0-20-6-20-18c0-12.8,9.3-17.2,18.6-17.2c1.3,0,2.1,0,3.1,0.1V362.2z M477,347.8c-4.3,0.1-8,1.8-8,6.8c0,4.9,3.4,6.9,8,7.3
				V347.8z"/>
			<path d="M483.3,321.6c4.7,0,9.2-2.3,9.2-7.5c0-4.3-1.7-5.5-4-6.5v-10.3c4.6,1.3,12.1,5.4,12.1,17.1c0,12.3-9.2,17.6-19,17.6
				c-11.7,0-20-6-20-18c0-12.8,9.3-17.2,18.6-17.2c1.3,0,2.1,0,3.1,0.1V321.6z M477,307.2c-4.3,0.1-8,1.8-8,6.8c0,4.9,3.4,6.9,8,7.3
				V307.2z"/>
			<path d="M471.9,289.5c-3.2,0-6.6,0-9.4,0.1v-10c1-0.2,3.6-0.3,4.7-0.4c-2.3-1.3-5.6-4.3-5.6-10.8c0-7.5,5.1-12.4,14.4-12.4h23.7
				v10.3h-22.6c-4.2,0-7.2,1.4-7.2,5.9c0,4.4,2.4,6.9,9,6.9h20.8v10.3H471.9z"/>
			<path d="M483.3,238.7c4.7,0,9.2-2.3,9.2-7.5c0-4.3-1.7-5.5-4-6.5v-10.3c4.6,1.3,12.1,5.4,12.1,17.1c0,12.3-9.2,17.6-19,17.6
				c-11.7,0-20-6-20-18c0-12.8,9.3-17.2,18.6-17.2c1.3,0,2.1,0,3.1,0.1V238.7z M477,224.3c-4.3,0.1-8,1.8-8,6.8c0,4.9,3.4,6.9,8,7.3
				V224.3z"/>
		</g>
		<g>
			<rect x="499.9" y="100.2" fill="none" width="200" height="600"/>
			<path d="M664.7,503c8.3-2.7,13.7-7.7,13.7-19.7c0-20.1-24.4-22.3-40.2-23.1c8.2,6,11.9,17.3,11.9,29.7
				c0,29.4-20.1,46.1-45.7,46.1c-27.9,0-49.1-19.4-49.1-52.3c0-40.2,31-53.9,66.2-53.9c40,0,80.9,10.3,80.9,54.9
				c0,33.1-20.2,46.6-37.7,49.2V503z M602.9,504.8c14.5,0,23.3-8.4,23.3-21.8c0-13.7-7-21.1-22.7-21.1c-9.5,0-24.2,3.9-24.2,21.6
				C579.4,497.7,589.7,504.8,602.9,504.8z"/>
			<path d="M630.8,348.4h26.9v60.1h-26.9V348.4z"/>
			<path d="M699.9,305.6H593.6c3.1,6.6,5.6,18.6,6.2,25.7h-23.1c-2.5-13.5-10.1-27.1-19.1-35.2v-21.8h142.3V305.6z"/>
		</g>
	</g>
</g>
<g id="text" display="none">
</g>
<g id="guides" display="none">
</g>
</svg>
