<svg xmlns="http://www.w3.org/2000/svg" xml:space="preserve" viewBox="0 0 800 800"><path d="M516 276.8c-7.4-3.5-10.8-3-12.9 3.3-2.3 7-8.6 12.3-8 20.6.1 1.6-2.2 3.8-3.9 5.1-1.9 1.5-3.6.7-3.2-2 .4-2.6-.1-5.3 1.7-7.8 7.3-9.9 9.3-22.3 15.3-32.8 1.3-2.2-.2-4.4-1.3-5.5-4-4-1.7-7.1 0-11 1.9-4.1 3.6-8.7 3.7-13.2.2-6.4 4.9-10.6 6.5-16.4 1.1-4.1 7-6 12.1-5.6 3.7.3 6.5-.1 9.4-3.5 2-2.3 5.3-4.4 8.9-5.5 6.3-1.9 7.6-8.2 2.3-11.9-3.5-2.4-4.1-3.9-1.6-7.2.8-1.1 1.4-3.4.8-4.5-3-5.8-.6-10.1 3.1-14.5 2-2.3 2.9-6.3 4.8-7.9 3.1-2.8 8-3.8 12.7-3.4 4.6.3 8.4 2.6 12.6 3.9 8.5 2.7 8.4 10.6 11.3 16.3 1.3 2.7 1 6.1 3.9 8.6 2.2 1.9-.5 3.4-1.9 4.7-5 4.7-11.5 4.7-17.7 5.1-2.2.1-4.4 0-6.7 0 .5 1.8.9 3.5 1.4 5.1 1.3 4.2.5 5.2-3.6 2.8-2.4-1.5-5.3-.5-8-.3-1.6.1-3.2.6-3.4 2.6-.1 1.5.5 2.6 1.9 3.2 2.3.8 3.4 2.7 4.5 4.8 1.7 3 4.6 2.8 7.1 1.9 2.2-.7 5.1-1.7 2.9-5.2-.8-1.3.2-2.5 1.3-2.2 6.5 1.5 8.4-3.4 11.1-7.4.8-1.2 2-3.9 3.9-2.7 2 1.3 1.3 3.6-.4 5.2-4.3 3.9-2.9 11.4-9.4 14-1.3.5-1.3 2.9-.1 4.3 5.9 7 6.8 15.7 8.2 24.4-2 1.7-5-1.6-6.8 1.8 4 0 7.5-.5 7 6-.4 5.2 4.2 3.1 8.3 2.8 9.8-.9 19.5-2.8 29.3-3.7 7.9-.7 15.6-2.3 23.6-1.2 2.4.3 4.7-1.1 6.8-2.5 5-3.2 8.8 1.4 13 2.6 2.1.6.6 3.2-1.5 3.7-4.5 1.2-8.6 3.7-13.7 3.2-2.2-.2-7.6-2.8-4.8 4.5 1.1 3-3.6 6.5-5 10.4-2.2 6.3-6.1 12-8.4 18.4-.6 1.7-1.2 3.4-3.2 4.1-1.1.4-2.3.9-3.2 0-.8-.9-.4-1.9.6-2.9 4.4-4.1 4.7-10.3 7.8-15.1.6-.9 2.2-2.1.1-3.2-1.3-.7-2.5-.7-3.8.1-8.3 5.5-15.5 12.2-22.2 19.6-3.9 4.3-.9 9.2-.4 13.4.7 6.8-3.5 6.1-7.1 7-4.3 1.1-6.5-.7-6.1-5.1.3-3.1 0-5.9-3.1-7.5-2-1-4.2-.6-5.6 1-2.1 2.5-3.8 4.7-2.6 8.9 1.7 5.8 4.4 11.8.7 18.1-1.4 2.4.9 3.2 2.9 2.8 4.2-.8 8.5-1.3 11.7-5.1.2 8.7-6.8 14.8-21.7 18.3 9.5.4 5.8 6.9 7.3 10.7.2.4-1.1 1.9-1.5 1.9-2.4-.5-5.3-.7-5.2 2.2.1 3.1 1.9 6.2 2.1 9.5 0 .4 2.1 1.1 2.9.8 1.1-.4 2.6-1.6 1.3-3-2.2-2.4-1.6-5.5.4-6.1 3.5-1 2.8 3.2 3.6 5.1 5.1 11.2 5.1 23 4.1 34.9-.3 4.3-3.6 7.1-3.1 12.3.9 8.5.4 17.3 2.6 25.7.8 3.3-.7 5.9-2.1 8.3-3.4 5.7-3.6 11.7-3 17.9.7 6.5 5.9 10.7 14.5 11.2 4.9.3 8.2 2.8 11.9 5.5 3.2 2.4 2.1 6 .7 6.9-3.5 2.1-6.2 6-10.7 6.2-7.4.3-14.6 2.2-22.1.7-4.1-.8-8.6-.7-12.7.2-5.5 1.1-9.7-2.5-11.1-5.6-1.5-3.6-2.9-9.7 0-13 4.7-5.4 3.9-11.2 3.9-17.2 0-1.1-.6-2.4-.3-3.3 1.7-4.4.8-6.8-4.3-7.8-1.8-.4-6.1-1.9-2.1-5.5 1.2-1.1.2-1.8-.7-2.6-1.6-1.3-2.3-3.1-1.3-4.8 5.3-8.6 2.4-18.3 4.3-27.4.6-3 .6-6.3 3.9-8 .3-.1 2.5-.1.5-1-8.3-3.9-2.9-14.4-11.5-18.9-5.3.9-7 7.4-8 12.8-1.4 7.5-5.8 13.4-8 20.5-1.3 4.1-7.7 3.9-11.2 6.7-8.1 6.4-17.6 11.3-22.9 20.7-1.9 3.3-5 4.2-8.5 4.1-14.7-.3-18.5 4.4-16.5 18.5.5 3.8.9 7.7 1.4 11.6.2 1.5.2 2.5 1.6 3 3 1.1 2.9 2.1 1.1 4.8-2 3.2-1.9 8.3-7.4 7.5-5.6-.8-10.5-4.3-12.7-8.8-1.5-3.1-2.3-5.8-5.8-7-.5-.2-1.2-1-1.2-1.4 1.9-10.3-6.6-16.7-9.3-25.2-1.3-4 .7-8.8 3.3-11 3.2-2.6 6.2-5.9 10.8-7.3 6.2-1.8 9.6-7.6 12.7-12.8 2.6-4.4 4.7-8.9 9.2-12.1 8-5.7 14-13.6 21.4-20.1 4.2-3.7 8.8-9.6 7.8-17.1-.4-2.9.1-6.1 1.5-9.1 1.7-3.7 2.7-7.6 1.2-11.7-.6-1.8-1-3.7 1.4-4.4 2.8-.8 2.1-2.5.9-4-2.5-3.3-3.1-7.2-4-11-.4-1.6-1-2.5-2.2-3-8.9-3.9-10-10.8-7.6-19.1 1.6-5.4.2-12.4 8.3-14.1 1.8-.4 2.1-2.8 2.4-4.6 1.2-3.1 2.9-5.6 6.1-8zm9.7 66.3c-3.2 2.6-2.3 7.4-6.8 9-4.1 1.5-3.8 4.5-.3 6.2 3 1.6 3.1 3.4 2.2 6-4 12.3-4.1 12 8.4 10.6 4.3-.5 8.6-2.5 8.3-5.9-.3-4.2 1.6-9.6-1.8-12.6-3.6-3.1-2.5-6.2-2-9.4.6-3.8 3.9-2.9 6.5-2.9 1.3 0 3 .2 2.9-1.8-.1-1.6-1.6-2.6-2.9-2-5.1 2.7-7.1 1.2-8.7-4.2-.7-2.4-5.4-4.4-8.1-.6-1.1 1.6-3.7 2-3.7 4.3 1.3 2.1 4 1.1 6 3.3zm-4.1-80.9c5.1.1 17.8-11.1 18.3-16.1.1-.6-.1-1.2-.3-1.8-2.5-7.9-2.5-8 5.4-9 3.5-.4 6.1-2.7 3.9-5.2-2-2.3-1.3-3.2-.2-4.9 1.9-2.8 0-4.6-1.9-6.3-2-1.9-4.3-3.9-7.1-2.3-2.2 1.2-3.3 3.4-2.8 6.2.7 4.2-.2 7.4-5.3 8.4-2 .4-3.7 2.5-5.6 3.5-2.6 1.3-2 2.2-.3 3.8 5.6 5.2 5.8 6.8-.5 11.2-3.9 2.7-2.3 8.1-6.7 10.4-1.1.7 1.5 2.1 3.1 2.1zm43.1 142.6c6.2 3.6 6.8 4.5 5.3 7.7-4.7 9.9-4.1 11.5 5.1 18.4 2.9 2.1 5.6 4.4 9 2.5 3.4-1.9-.4-4.7-.2-7.2.1-2.3 1.8-6.4-.2-6.9-7.8-2.1-4.1-7.1-2.3-10.1 2.6-4.1.8-5.4-2-7.7-6.6-5.1-9.9 1.9-14.7 3.3zm-48.8 3.9c-4.4-.6-7.7-1.1-10.9.1-1.3.5-3.3 1.4-3.7.4-3.5-8.8-5.3-3.8-8.3.4-1.3 1.8-4.8 2-7.3 3-2.1.8-4.3 1.4-6.4 2.2-1.3.6-2.5 2.1-1.1 3.1 3.2 2.4 6.2 7 10.9 3.4 5-3.8 11.1-4.2 16.7-6.3 3.4-1.2 6.6-2.5 10.1-6.3zm19.6-14.2c-1-3.5-2.9-6.5-7-7-4.6-.5-3.5 3.2-3.2 5.6.6 5-3 3-5.2 3.5-2 .4-5.3-1.2-5.6 1.7-.3 2.5 1.3 5.1 4.8 5.2 2.1.1 4.2.7 3.8 3.5-.3 1.6-3.7 3.2-.3 4.7 2.7 1.2 5.2-.2 7-2.5 3.2-4.3 3.8-9.7 5.7-14.7zm8.4-119.3c-.8.1-3.6-1.2-4.2 2.7-.6 3.3 1.8 3.4 3.6 4.5 4.3 2.7 9.9 1.6 14.1 5.6 2.1 2 5.7-1.6 7.2-4.4 2.1-3.9-2.1-2.8-3.5-3.8-4.8-3-10.1-4.5-17.2-4.6zm-83.8 173.2c1.3-.3 4.4-.4 3.1-1.9-3-3.6-.1-3.9 1.9-5 1.9-1.1 3.8-2.2 5.9-3.1 3.2-1.5 3.2-3.3.9-5.6-3-3.1-6.9-3.6-9.5-.8-3.1 3.3-5.3 7.6-6.8 11.9-.7 1.8 1.5 4.4 4.5 4.5zm128-69.9c-.2-3 .4-5.7-3.4-6-3.7-.3-3.7 4-3.4 4.4 2.7 3.8-5.3 10.1 2.9 12.5.5.2 1 2.1.8 3-.7 2.8.4 3.8 3 3.7 2.3-.1 2.2-1.9 2.8-3.7 1.9-5.5-7.9-8.7-2.7-13.9zm-33-55.9c4.1.7 7.4-.8 10.8-2 3-1 2.8-3.3 2.8-5.4-.1-2.5-2.3-2.3-4.1-2.3-3.9 0-7.7.1-10.9 2.7-1.8 1.5-5.1 2.5-4.6 5.1.6 3.3 4.2 1 6 1.9zm16.2-14.4c3.4 1.5 4.7 3.2 1.4 5.9-1.5 1.2-1.3 2.6-.1 4.1 2 2.6 4.9 1.8 7.5 1.8 1.5 0 2.1-.7 2.4-2.4 1.2-6.3-1-8.4-11.2-9.4zm8.5 83.9c-1-3.3-3.7-4.4-6.7-4.6-3.2-.2-5.4 2.2-5 4.9.4 2.8 3.4 4 6.3 3.5 2.3-.3 5.1-.5 5.4-3.8zm-52.6-111.2c2.2-.3 5.3.7 5.1-2.2-.2-3.2-2.7-5-6.2-4.7-3 .2-7.9-.3-7.6 3.4.4 4.5 6 1.9 8.7 3.5zm31.6-13.1c0-2.2-1.2-3.4-3.3-2.8-2 .5-4.7.8-4.5 3.9.2 2.1 1 4 3.6 4 3.2-.1 3.7-2.6 4.2-5.1zM365.8 283.2c2.1-4.1 4.1-7.8 6.1-11.5 1.1-2.1 2.4-4.6-.1-5.9-2.3-1.2-5.7.4-6.5 2.2-2.9 6.6-9.8 8.4-14.6 12.3-3.8 3-4.6 5.4-4.1 9.2.5 3.7-.2 7.4.4 11.3.7 4.3-3.6 4.3-6.7 4.1-3.1-.2-7.7.7-6.5-4.8.6-2.9.4-4.9-2.1-6.3-2.6-1.5-5.2-.8-7.7.5-3 1.5-2.4 4-2 6.5.8 5 3.6 9.6 2.7 14.9-.1.6.7 1.2.7 1.9.3 7.3.4 7.4 8 4.5 5.4-2 5.4-2 9.5-1.3.2 2.4-1.6 3.1-3.3 3.5-6.7 1.8-9.6 9.1-16.2 11.3-.9.3-1.8 3.2-1.1 6.1 3.4 14.4 12 27.5 10.5 43-.5 5.5-1.8 10.8-3.8 16.1-1.8 4.7-.8 10.4.1 14.9 1.5 7.4 1.6 14.8 3.1 22.1.5 2.2-.9 3.9-2.2 5.5-6.9 8.7-2.4 23.3 10.7 24.7 5.5.6 9.1 4.7 13.5 7.3 1.2.7 2 2.7.9 3.4-4.3 2.7-5.7 8.3-12.3 9.1-13.3 1.7-26.3-.3-39.4-.3-5.5 0-7.1-3.5-5.3-8.8.2-.5 2.4-.4.6-1.4-6.1-3.7-1-8.9.4-10.6 5.6-6.7 1.3-13.7 2.3-20.5.2-1.3-1.2-2.9-2.8-3.6-6.8-3.1-6.4-8.3-5.2-14.6 1.1-5.5 2.5-11.1 2.4-16.9-.1-3.2-.6-8 6.2-7.3-5-2.4-5.9-7.9-3-13.8.3-.6 2.8-.9.5-1.9-5.2-2.1-5.6-6.7-6.8-11.2-.5-1.8.2-4.7-3.3-5-3.3-.3-4.6 2-5.4 4.1-1.9 4.9-3.9 10-4.7 15.1-2.1 13.2-10.1 21.1-21.9 25.6-6.6 2.5-8.2 9.6-13.6 13.3-5.9 4-10 10.5-18.8 9.2-4.6-.7-7.5 4.4-9.1 7.8-2.2 4.8-2.5 10.6-.6 15.8.9 2.6 4 4.7.2 7.4-.2.2-.3.5-.5.8.4.1.9.1 1.3.2 4 1.3 4.2 5.2 3.2 7.5-1.3 2.9-2.4 7.1-6.8 7.4-1.5.1-4.8 1.6-3.3-2.6.6-1.8-.8-2.7-2-2.9-8.5-1.8-11.2-9.3-13.8-15.7-2.7-6.4-8.2-10.3-10.8-16.4-1.6-3.7-3.7-7-3.4-11.3.6-7 6.7-7.6 11.2-10.1 8.3-4.6 16.6-8.9 19.6-19.2 1.3-4.5 5.4-7.6 9-10.4 3-2.4 7.2-3.5 7.9-8.2.1-.7 1.2-1.2 1.9-1.7 1.4-.9 3.3-2.4 4.1-2.8 7-3.6 7.5-12 12.8-16.5 1.4-1.2 1.1-2.8 1.4-4.4 2-10.9 2-22.2 4.8-33 .1-.4.5-1.2.5-1.2-6.1-3.1-2.6-12.9-10.4-14.7-2.7-.7-3.5-3.4-5.3-5-.5-.4-.4-1.3-.8-1.8-2.9-3.2 7.9.2 2.2-4.8-2.6-2.3.8-5.7.4-8.8-.2-1.6 1.5-2 2.9-2.1-7-3.6-9.8-1.8-9.4 6.5.1 1.7-.6 2.5-1.9 3.1-1.2.6-3.1 1.1-3.7-.2-.8-1.6-2.2-3.8-.7-5.6 6.9-8.1 7.1-19.3 12.9-28.1 2-3 1.2-8 5.2-10.7.4-.3 2.7-4.7-1.8-6.1-3.4-1-3.5-5.3-.5-7.8 1.6-1.3.2-4.9 3.7-4.6-8.2-2 .6-7.4-2-10.5-.3-.4 0-1.4-.2-2-2-6.6 9.2-4.6 7.6-13-.8-4.3 8.3-6.8 14.7-7.8 7-1.1 13-5.7 19.5-8.4 4.9-2.1 4.3-8.7-.9-11.3-4.2-2.1-4-3.7-.8-6.1 1.4-1 2.4-1.8 1.6-3.8-5.8-14.1-2.2-21.7 13.1-26.7 2.5-.8 4.4-4.6 7.1-2.7 5.2 3.6 13.2 3.7 16.1 9 3 5.3 5.3 11.3 7.8 17.1 2.3 5.5 4.3 9.5-3.4 11.4-1.3.3-1.8 1.6-1.8 3.2-.2 7.6-1.5 14.8-8.7 19.4-2.3 1.5-1.8 3.9-.3 5.2 2.4 2.2 2.1 6.1 5 7.8.4.2.7.6 1 .9-7.7 5.3 6.3 9.1.9 14.2 3.7 3.2-.6 6.7-.1 10.4.9 6.8 4.9 3.7 6.7 3.4 10.3-1.3 20.3-4.6 30.8-5.3 7-.5 13.9-1.1 20.9-.9 3.9.1 7.5.3 11.3-2.6 3.2-2.4 8.7-1 12.4 1.4 3.5 2.3 0 3.8-1.8 4.5-16.2 6.9-16.5 6.7-25 20.8-2.4 4.1-2.4 9.5-5.9 13.3-1.2 1.8-1.6 4.2-5.2 3.3zM258 336.3c7.8 1.9 5.9 3.8 1 6.9-5.1 3.1-4.7 8.6.4 10.8 2.9 1.2 1.2 2.1.5 3.8-1.7 3.9-5.2 8.5-2.4 12.4 2.7 3.6 7.4 1 11.2-.3.4-.1.9-.1 1.3-.2 5.9-1.2 9.4-12.2 4.9-16.2-2.5-2.2-2.5-4.4-2.8-7.1-.5-5.2-1-10.5-1.6-15.7-.4-3.9-3.5-3.5-6.1-3.6-1.7-.1-4.8.8-4.1 1.8 2.8 3.7-1.3 4.5-2.3 7.4zm26.9-118.7c-.1-4.6-.5-5.5-3.9-5.2-3.2.2-7.3-.8-7.6 5-.3 5.1-2.3 10.1-7.7 12.4-2.8 1.2-2.2 2.8-.8 4.7 2.2 3.2 3.3 6-1.1 8.8-3.4 2.2-4.8 6.4-6.5 9.9-1.6 3.1.1 5.1 4.1 4.2 3.3-.7 14.6-12.9 14.9-16.3 0-.4.1-1-.1-1.3-4.7-8.9.4-9.7 7.4-9.1 1.8.2 4.6-.7 2.8-2.7-3.3-3.3-1.2-6.5-1.5-10.4zm42.2 209.8c-.5-2-2.6-1.7-2.7-2.3-1.1-5.7-3.6-10.6-7.1-15.3-1.5-2.1.6-5.9 3.2-8.2 1-.9 2.9-3.4.1-4.3-4.2-1.3-8.6-2.9-13.1-.5-1.5.8-3.2 1.9-1 3.3 5.1 3.2 2 7.1 1 10.7-.6 2.1-2.4 3.9-1.8 6.2 2.3 9.2 11.9 13.9 21.4 10.4zm-111-13.9c.7 2.2 2.9 2.7 5.2 2.7 11 .1 20.7-4.6 30.4-9.1 2.4-1.1 2.8-3.6-.9-4.5-2.9-.7-6.9.4-6-5.4.4-2.6-7.1-3.5-8.2-.6-3.6 9.8-13.9 10.3-20.5 16.9zM325 359c-2.1-1.4.9-4.3-2.3-5.1-1.2-.3-2.2-.2-3.1.7-1.5 1.6-2.1 3.4-1.3 5.5.2.6.6 1.2.8 1.8 1.7 5.1 1.3 10.9.7 15.5-.6 5.2 1.6 7.7 3.8 11 1 1.5 2.5 2.9 4.3 1.1 2-2 2.1-6.8 1.6-6.9-8.1-1.7-4.5-5.7-2.3-9.6 1.1-1.9-.3-3.5-.9-5.1-1-2.8-4.1-5.3-1.3-8.9zm-28.5-77.9c2-.3 4.9.4 6.3-2.1.7-1.3-.6-2.6-1.9-3.1-5.2-2.3-10.4-4.6-15.8-6.6-2.2-.8-4.3.7-6.4 1.3-2 .6-1.6 2.4-2 3.7-.7 2.4 1.3 2.3 2.6 2.9 5.4 2.5 11.1 3.2 17.2 3.9zm-37 123.6c5 2.3 8.9-.2 10.7-3.4 2.1-3.8 5.4-8.2 3.1-13-.9-1.9-2.7-4.1-5.8-3.7-3.1.5-3.3 3.1-3.1 5.1.6 5.7-1.9 10.3-4.9 15zm-7.8-131.5c-.1-1.6-1.4-2.2-2.6-2.8-2.3-1.2-4.8-.7-6.1 1.2-2.4 3.7-4.5 7.6-5.9 11.7-.6 1.9 0 5.2 3.4 5.1 2.2 0 11.2-12.8 11.2-15.2zm56.5-68.7c-2-4.8-3.7-8.9-5.6-12.9-.1-.3-2.2-.3-2.4 0-2.1 3.8-8.4 3.4-9 5.9-1 4.3 5.3 4.2 7.6 7.1.6.7 1.2 1.6 2 1.8 3.3.9 5.8-.7 7.4-1.9zM194.9 439.4c-1.1 2.9.7 4.3 3.1 4.9 3 .9 3.2-1.3 3.4-3.5.4-4.3 2.5-7 7.2-7.4 1.7-.1 4.3 0 4.3-2.1 0-2.4-2.2-3.7-4.6-4.3-5.6-1.3-12.6 5.2-13.4 12.4zm118.6-252.5c-3.2.2-8.5-.1-7.6 3.1.9 3.2.3 9.7 6.9 9.8 3.8 0 8.5-5.4 7.7-10-.6-4.1-4.5-2.6-7-2.9zm-13.4 121.8c-3.6.8-8.2 1-12 4.3-1.2 1-2.9 1.6-2.2 3.5.7 2.1 2.7 2.4 4.5 2 4.1-.9 8.2-2.1 12.2-3.3 2.1-.7 4.5-2 3.7-4.6-.7-2.5-3.4-1.7-6.2-1.9zm-44.9-34c3.2.6 5.7 1.2 8.3 1.6 2.1.3 5.1 1.1 5.9-1.3.6-1.7-.5-4.4-1.7-6.1-1.5-2.2-3.9-1.1-6-.2-2.4 1.1-4.4 2.7-6.5 6zm59.9 29.7c-2.7-.2-4 1.7-4.2 5-.3 3.9 2.5 4.7 5.1 4.8 2.3.1 5.7-.5 5.1-3.6-.4-2.6-.4-6.9-6-6.2zm-63.4 91c.7 2.9 3.2 1.9 4.9 2.2 3.3.6 4.6-2.2 4.8-4.3.2-2.9-2.8-2.7-4.9-3-4.4-.7-2.9 3.7-4.8 5.1zm46.9-176.8c3.7 1.3-.6 7.2 4 7.8 3.4.5 2.7-3.6 3.3-5.5 1-3.1-1.4-4.2-4.3-4.2-1.2 0-2.7-.6-3 1.9zm16.2-52.3c-3.2.6-6.8.6-7.8 4.5-.4 1.4 1.2 1.8 2.3 1.3 3.1-1.6 7.9-.3 9.4-3.9.9-2.3-2.5-1.3-3.9-1.9zm3.2 220.4c-1.1-2.8-4-2.2-6.1-2.7-1.8-.4-3.8.4-3.3 2.8.5 2.5 2.5 3.6 5 3.2 1.7-.3 3.9-.6 4.4-3.3zm-3.2-207.9c5.7 2.3 9-2.2 13-.8-4-3.4-7.7-1.7-13 .8z"/><path d="M610.2 321.5c-4.4.1-3.9-2.4-2.7-4.4 1.4-2.4 3.4-4.6 5.4-6.6 3.9-4.1 8-8 9.5-13.8.3-1.1 2.3-2.6 3.9-1.4 1.5 1.1-.2 2.3-.4 3.5-1.8 8.2-8.5 13.5-11.9 20.8-.6 1.2-2.8 1.4-3.8 1.9zM367.2 288.7c-4.2 5.2-7.3 12.4-11.4 18.9-1.6 2.5-3 5.4-6.5 6.2-1.6.3-3.2 1.3-4.1-.5-.9-1.6.1-3.1 1.4-4 8.1-5.8 12.2-14.8 17.7-22.6.6-.8 1-1.5 2.1-1.2 1.1.3 1.2 1.1.8 3.2z"/><path fill="none" d="M99.8 500.3h600v200h-600z"/><path d="M148.7 617.1c0-18.2 12.7-29.3 23.2-34-10.9-6.8-17.6-15.3-17.6-29.7 0-24.1 17.7-40.1 49.6-40.1 29.2 0 48.5 15.2 48.5 39.7 0 16.4-8.4 24.4-18.1 28.5 10.2 3.8 23.2 15.8 23.2 34.6 0 29.3-23.4 44.5-55.8 44.5-29 0-53-15.4-53-43.5zm78-1.4c0-14.1-9.7-20.6-23.6-20.6-15.5 0-23.4 8.4-23.4 20.4 0 12.6 9.5 21 23.9 21 13.4 0 23.1-6.3 23.1-20.8zm-43-61.3c0 9.6 6.9 16.1 19.9 16.1 12.6 0 19.5-4.9 19.5-16 0-10.8-7.1-17.4-19.8-17.4-12.9 0-19.6 6.1-19.6 17.3zM337.9 588.9v26.9h-60.1v-26.9h60.1zM423.2 658v-32h-64.3v-26.9l59.3-83.2h33.7V601H469l-2.8 25h-14.3v32h-28.7zm0-82.3c0-15.4 0-24 .6-32.9-5.6 11.9-24.2 39-37.5 58.2h36.9v-25.3zM548.7 588.9v26.9h-60.1v-26.9h60.1zM655.4 515.8v22.9c-22.5 31.9-44.6 78-50.1 119.2h-31.8c5.6-41.8 31.1-91.9 50.4-116.7H557v-25.4h98.4z"/></svg>