<svg xmlns="http://www.w3.org/2000/svg" xml:space="preserve" baseProfile="tiny" overflow="visible" version="1.2" viewBox="0 0 1000 1000"><path fill="none" d="M0 0h1000v1000H0z"/><path fill="none" d="M100 99.9h800.1v300H100z"/><path d="m162 257.6-37.9-148.9h34.3c14 68.4 20.3 98.8 22.1 115.2h.2c5.7-27.4 20-79.2 28.7-115.2h28.9c7.7 28.6 22.7 86.4 27.6 113.6h.2c4.9-32.8 19.6-90.5 24.8-113.6h31.3l-40.3 148.9h-33.4c-7.8-33-20.9-81.1-26.2-106.6h-.2c-5.4 26.5-18.8 76.6-26.8 106.6H162zM372.9 198v59.6h-31.5v-149h65.4c32.5 0 50 17.9 50 40.9 0 20-10.9 30.8-21.6 35.2 7.4 2.7 18.5 10.4 18.5 37.1v7.4c0 10 .1 21.4 2.1 28.4h-30.5c-2.6-6.5-3.1-17.6-3.1-33.4V222c0-16.3-4.1-24-28.1-24h-21.2zm0-25.7h27c17.6 0 24.4-6.7 24.4-19.2 0-12.1-7.9-18.9-23.7-18.9h-27.8v38.1zM587.9 193.3h-71.2v37.8h78.6l-3.8 26.4h-106V108.6h105.6V135h-74.3v31.9H588v26.4zM747.1 211.7c-6 27.8-26.9 48-64.2 48-47.2 0-69.5-33.4-69.5-75.8 0-40.8 23-77.4 71.1-77.4 39.7 0 58.9 23.3 62.5 48.2h-32.2c-3.1-11.5-11.1-22.9-31.3-22.9-26.6 0-36.8 23.9-36.8 51 0 25.2 8.9 51.7 37.7 51.7 21 0 27.6-14.1 30.5-22.8h32.2zM771.9 108.6h31.8v66.5c9.8-11.5 40.5-45 59.3-66.5h38.6l-59.8 61.9 62 87h-38.6l-45.7-66.2-15.7 15v51.1H772V108.6zM508.9 789.1c-4 0-8-1-11.9-3.1-2.5-1.3-4.7-3-6.8-4.5-.6-.4-1.2-.9-1.8-1.3-1.2-.9-2-2-2.8-3-.4-.6-.8-1.1-1.2-1.5-3.6-3.6-6-7.8-6.9-12.6-.3-1.6-.3-3.2-.1-4.6-.2 0-.3.1-.5.1-1.6.2-3.2.5-5 .5-7.4-.1-12.7-2.7-16.2-7.8-1-1.5-1.4-3.2-1.1-5.4l.1-.5c.1-1.5.3-3.1.9-4.7.2-.7.9-2.8 3-3.6-.8-.7-1.6-1.4-2.4-2.2-1.8-1.8-3.4-3.7-4.9-5.6-.1.3-.2.6-.2.8-.4.9-1.4 2.5-4.2 3.1-6 1.2-11.3-.5-14.8-1.9-4.5-1.8-8.2-4.7-11.2-8.6-3.8-4.9-4.5-10.3-2.1-15.5l.6-1.5c0-.1.1-.1.1-.2h-1.2c-1.5 0-3 0-4.6-.4-6.3-1.4-11.6-3.6-16-6.8-.7-.5-1.5-1-2.2-1.6-4-2.8-8.2-5.7-11.6-9.5-4.1-4.7-5.1-9.8-2.9-15.1.9-2.2 2.4-4.3 4.7-6.4 3.5-3.2 7-4.9 11-5.3 5.2-.5 9.3 1.3 12.4 3 .6.3 1.3.9 2 1.7.4-.7 1-1.4 1.6-2 1.6-1.6 3.3-3.4 5.2-4.9-.9-.1-1.9-.6-2.8-1.6-1.6-1.9-1.7-4.2-.3-6.5.3-.5.6-.9.8-1.4 1.7-2.8 3.5-5.7 5.8-8.4-2.2-1.2-3.7-2.9-5.1-4.4-3.8-4.2-5.7-9.2-7-13-.9-2.7-.5-5.5-.2-7.7v-.9l.1-.5c1.1-3.7 2.4-6.7 4-9.4 3.3-5.3 9.6-9.7 16.2-7.8 1.3.4 2.6 1 3.8 1.8l.3-2.4 3.2 1.5c1.5.7 2.6 2.3 2.9 4.4.2 1.1.1 2.1-.3 3 2.1-.8 4.5-.5 7.1.7 2.8 1.4 5.6 3.2 8.2 5.5 4.6 3.9 5.1 9.1 5.1 14.1 0 1.3-.3 2.6-.5 3.7 3.3.1 6.3 1.4 9 4 .7.6 1.3 1.3 2 1.9 1.5 1.4 3.1 2.8 4.5 4.4.6.7 1.1 1.5 1.5 2.3 1.1 2.3.4 3.9-.5 4.9-.5.6-1.1 1-1.8 1.1 3.5 1.9 5.9 4.7 7.6 6.9 2.9 3.7 4.2 8.1 3.9 12.7-.2 3-1.4 5.8-2.5 8.2 2.6-.5 5.2-.2 7.5.3 3.4.7 5.9 2.5 8.3 4.2.6.4 1.1.8 1.7 1.2 3.9 2.5 7.9 5.7 12.2 9.5 1.1 1 1.8 2.2 2.3 3.2.2.4.4.9.7 1.2 1.1 1.6.7 3.7-1 5.1-.4.3-.8.5-1.3.7l.1.1c1.8 2.1 4 4.9 5.2 8.4.2-.3.4-.6.6-.8.6-.7 1.8-1.5 4-1.4 1.7.1 3.4.6 4.7 1.4 4.9 2.9 8.6 6.5 11.3 11.2 3.1 5.3 2.9 10.8-.5 16.6-2 3.4-4.8 6.2-7.9 8.1-1.4.8-2.9 1-4.3.4.5.9.9 1.8 1.3 2.8.2-.4.4-.7.7-1.1 1.8-2.1 4.8-2 6.9-1.7.5.1.9.2 1.1.3h.1c5 .4 7.8 3.7 9.9 6.9 1.6 2.5 2.5 5.4 2.6 8.4.1 3.1-.1 5.8-.5 8.2l.3-.3c.4-.5.8-.9 1.2-1.4l.2-.2c1.5-1.8 3.1-2.4 5-1.6l2.8 1.2-1.6 2.6c-4.7 7.8-10.1 12.5-16.8 14.8-3.7 1.2-7.5.8-10.6-1.3-.4-.2-.7-.4-.9-.5-.2-.2-.5-.3-.7-.4-.2.2-.4.4-.5.6-2 2.4-4.4 3.8-6.1 4.6-4.3 1.6-8.1 2.5-12 2.5zM479.2 753c.8 0 1.8.2 2.6 1 1.2 1.2 1 2.7.9 3.4l-.1.7c-.1 1.4-.3 2.7-.1 3.9.8 3.8 2.5 7.1 5.5 9.9.7.7 1.3 1.5 1.8 2.1.6.8 1 1.4 1.6 1.8.6.4 1.2.9 1.9 1.4 2.1 1.5 4 3 6.2 4.1 6.1 3.3 12.3 3.4 18.8.2 2-1 3.4-2 4.4-3.2 2.8-3.5 4.5-3.4 7.9-1.3h.2l.6.4c1.8 1.3 4.1 1.6 6.3.8.8-.3 1.6-.6 2.3-.9l.7-1.6c.1-.1.1-.4.2-.6.1-.4.2-1 .5-1.6 1.7-3.7 2.4-7.9 2.2-13.5-.1-2.1-.7-4.1-1.7-5.7-1.8-2.7-3.4-4.4-6.1-4.6-.6 0-1-.2-1.4-.3h-.1c-1.1-.2-1.7-.1-2-.1 0 .2.1.5.2.9.7 2.1.4 4.2-.7 6.2-1.1 1.9-2.7 3.1-4.2 4.4-.5.4-.9.8-1.4 1.2l-4.6 4 .3-6.1c.1-1.4.5-2.4.8-3.1 0-.1.1-.2.1-.3.9-2 .9-4.2.1-6.8-1.3-4.1-4.2-7.5-9.7-11.1-2.5-1.7-5.3-2.9-8.6-4.3l-6.6-2.8 6.4-2.2c2.7-.9 5.1-1.2 7.2-1.4 3.4-.4 6.3.9 8.2 3.6 1.6 2.4 3.8 4.3 6.2 6.3l1.8 1.5c2.4-1.5 4.4-3.6 6-6.2 2.5-4.1 2.6-7.7.5-11.3-2.3-3.9-5.4-7-9.5-9.4-.5-.3-1.1-.5-1.8-.6.2 1 .4 2.3.1 3.7v.2c-.2.8-.6 3.1-3.1 3.5-.9.2-3.2.2-4.3-3-.3-.9-.7-1.7-1.1-2.6-.4-1-.9-2-1.3-3-.9-2.7-2.7-5-4.3-6.8-2.7-3.2-6.3-5.4-10.2-7.6-.4-.2-.7-.4-1.1-.6-.6-.3-1.3-.7-2-1.1l-5.7-3.3 6.5-1.4c2-.5 3.6-.1 4.8.2 1.8.5 3.6 1.3 5.3 2.2-3.3-2.8-6.3-5.1-9.3-7.1-.6-.4-1.2-.8-1.8-1.3-2.1-1.5-4.1-2.8-6.5-3.3-4.2-.9-6.6-.5-8.7 1.5l-.2.2.7 4c-.2 0-.3.1-.5.1-.3.1-.6.2-.9.2-.9.3-1.7.8-2.5 1.6-1.4 1.2-2.5 2.7-3.6 4.6l-.1.1c-.7 1.2-1.6 2.8-3.6 4.2l-4.9 3.2.9-5.8c.6-4 1.7-6.8 3.7-9.3.4-.5.7-1 1.1-1.4.4-.5.8-1 1.2-1.6-2.7-4.1-5.2-7.3-8.6-9.6-1.9-1.3-1.9-2.9-1.7-3.8l.4-1.8 1.8-.2c1.5-.2 3.1.1 4.6.8.8.4 1.7.7 2.6 1.1 2.5 1 5 2 7.4 3.7h.1c.9-1.9 1.7-3.9 1.8-5.8.2-3.3-.7-6.4-2.8-9.2-3.1-4.1-6.2-6.2-10-7-1.7-.3-3.3-.6-4.9-1.2l-2.3-.9.8-2.4c.4-1.3 1.3-1.9 1.6-2.1 2.4-1.7 4.9-2.5 7.4-2.3-1-1.1-2.1-2.1-3.3-3.2-.7-.6-1.4-1.3-2.1-2-2.1-2-4.3-2.8-6.7-2.5-1.8.2-2.8-.5-3.4-1.1-1.2-1.3-.9-3-.7-3.6.1-.5.2-.9.3-1.4.3-1.1.5-2.1.5-3 .1-4.4-.4-7.7-3.2-10.1-2.3-2-4.7-3.6-7.1-4.8-2.1-1-3.1-.7-3.9 0-1.7 1.4-3.5.8-4.4.5h-.1c-2.2-.7-4.1-.5-6 .5-.2.1-.3.2-.5.3-1 .5-2.2 1.2-3.8 1.3l-2.4.2-.3-2.4c-.3-2 .8-3.3 1.4-4l.1-.1c1-1.2 2.2-2.1 3.4-2.8-1.6-.7-3.1-.3-5.2.5l-.6 1-1.9-.3c-.1 0-.2-.1-.3-.1-.7.8-1.4 1.6-1.9 2.5-1.3 2.1-2.4 4.6-3.3 7.6v1.1c-.3 2.1-.5 3.9 0 5.3 1.1 3.4 2.8 7.7 5.9 11.2 1.4 1.6 2.8 3.1 4.7 3.8 1.9.7 2.6 1.9 2.8 2.7.2.9.1 2.2-1.3 3.7-2.5 2.5-4.4 5.5-6.3 8.7-.3.5-.6.9-.9 1.4v.1c.1 0 .2-.1.3-.1h.1c.4-.1.9-.3 1.4-.5 1-.4 2.3-1 3.8-1.1 5-.3 8.8 1.8 12.6 3.7l8.8 4.5-9.6.5c-.8 0-1.5-.1-2-.2-.1 0-.2-.1-.4-.1-4.3-.8-7.6-.5-10.5 1-2.8 1.4-5 3.8-7.2 6.1-1.3 1.4-1.9 2.9-1.9 5.1 0 .8.4 1.5 1.1 2.7.3.5.6 1 .9 1.6l-4.6 2.5c-1.7-2.9-3.3-5.8-4.3-9.1-.2-.8-.6-1.3-1-1.5-3.6-2-6.4-2.7-9.4-2.4-2.9.3-5.3 1.5-8 4-1.7 1.6-2.8 3-3.4 4.5-1.4 3.5-.8 6.6 2 9.8 2.9 3.4 6.7 6 10.6 8.7.8.5 1.5 1.1 2.3 1.6 3.9 2.7 8.5 4.7 14.2 6 1.1.2 2.3.3 3.5.3.9 0 1.7 0 2.7.1.8.1 2.8.3 3.7 1.9 1 1.6.2 3.4 0 4.1-.2.4-.3.8-.4 1.1-.2.6-.5 1.3-.8 1.9-1.6 3.5-1.1 6.7 1.5 10.1 2.4 3.1 5.5 5.5 9.1 7 4.6 1.9 8.2 2.4 11.8 1.7h.1v-.1c-3.3-5-4.7-10.5-3.9-16.2.1-.7.3-2.5 2.2-3.5l2.9-1.6.8 3.2c.2.7.3 1.4.5 2.1.3 1.3.6 2.5 1 3.6 2.3 5.9 5.7 11 10.4 15.7 1.8 1.8 4 3.5 6.8 5.1 1.5.9 3.3 1.2 5.2 1.7l4.3.9-2 3.2c-1 1.7-2.6 1.9-3.3 1.9h-.2c-3.4.5-6.7-.1-9.9-1.8-.1-.1-.2-.1-.2-.1 0 .1 0 .1-.1.2-.4 1.1-.5 2.3-.6 3.5l-.1.6c-.1.9 0 1.6.3 2 2.5 3.7 6.3 5.4 12 5.5 1.3 0 2.7-.2 4.1-.4.7-.1 1.5-.2 2.2-.3-.2-.1.1-.1.5-.1zm55.1-3.5zm-2.4 0zm.3-.3zm-9.3-38.4zM473 675.2c1 1.3 1.8 2.5 2.7 3.8.3-.3.5-.5.7-.6l.3-.3c.3-.2.5-.5.8-.7-.9-.1-1.7-.5-2.4-1l-2.1-1.2zm-44.7-71.1z"/><path d="M541.1 781.8h-.4c-.9-.1-1.6-.5-2.2-1.3-.5-.6-1.8-2.7 1.1-5.2.1-.1.3-.3.4-.8.3-1.2.7-2.3 1-3.3.7-2.1 1.4-4.2 1.5-6.2v-.1c.1-3.4.2-6.5-1.2-9.1-1.4-2.6-2.6-4.2-4.8-4.6-.6-.1-1.1-.3-1.7-.4-.5-.1-.9-.3-1.3-.3h-.3c.8 2.5.4 4.9-1.3 7.3-1.5 2.1-3.4 3.5-5.2 4.9-.5.3-.9.7-1.4 1.1-1.6 1.2-3.6 1.1-5-.2-.6-.7-1.9-2.5.1-5 2.1-2.6 2.4-5.4 1-8.9-2.6-6.4-8.3-9.9-14.1-12.7-1.2-.6-2.7-1.2-4.3-1.5h-.1c-2.9-.3-3.1-2.7-3.1-3.2 0-.7.2-2.5 2.6-3.3 2.2-.7 4.5-1.1 6.7-1.5l.6-.1c5-.9 9 1 11.9 5.6.9 1.3 2.2 2.4 3.7 3.6.8.6 1.5 1.2 2.3 1.9.1-.1.2-.1.3-.2.9-.7 1.8-1.3 2.1-2 .5-1.1 1.3-1.9 2-2.5.5-.5.9-.9 1.1-1.3 2-3.9 2-7 .1-10.2-2.4-4-5.4-6.9-9.1-8.6.1 1.7-.3 3.5-1.2 5.3l-.1.2c-.3.6-1.1 2.3-3.4 2.4-2.4.1-3.4-1.8-3.7-2.4-.8-1.6-1.5-3.3-2.2-4.9-.5-1.2-.9-2.3-1.4-3.3-1.9-4-3.9-6.7-6.4-8.6-3.8-3-7.5-5.2-11.1-6.8 0 0-.1 0-.1-.1-3.3-1.2-2.6-3.8-2.5-4.4.3-.9 1.2-2.4 3.7-2.3h.1c1.8-.2 3.4 0 4.9.3-2.3-1.7-4.6-3.3-6.9-4.9-3.1-2.1-5.6-3.1-8.4-3.2-.7 0-1.4 0-2.1.2l3 .7-1.3 2.9c-.3.8-1.2 2-3.2 2-3.4.2-5.7 2-7.9 5.9-.5 1-1.1 1.8-1.7 2.6-.6.8-1.1 1.6-1.6 2.4-.8 1.6-2.6 2.4-4.3 1.8-.8-.3-2.6-1.2-2.3-4 .5-4.5 1.9-8.1 4.3-11l.1-.1c.7-.8 1.3-1.6 1.6-2-.2-.4-.8-1.3-1.4-2.1-2.3-3.2-4.9-6.4-8.9-8.2-2.4-1.1-2-3.2-1.9-3.6.1-.5.7-2.1 2.8-2.4 1.9-.3 4.8-.6 7.4.7.9.4 1.9.8 3 1.2 2.1.9 4.3 1.7 6.4 3.1 1-2.6 1.5-4.8 1.2-6.9-.6-3.5-2.4-6.6-5.4-9.3-2.7-2.4-5.8-3.7-9.6-4.2-.3 0-.7 0-1.2.2h-.1c-2.4.9-3.6-.5-4.1-1.1-.5-.7-1.3-2.4.6-4.5 2.1-2.2 5.1-4.1 8.2-4.6-1.8-1.8-3.5-3.5-5.4-4.8-1.2-.8-2.4-1.2-3.6-1.2l-2.2 2 1-1.8c-.4.1-.7.2-1.1.4-2.4 1.1-3.7-.5-3.9-.8-.8-1.1-.7-2.5-.3-3.3.9-2.2 1.4-4.3 1.5-6.4.3-5.4-1-8.3-4.5-10.4-.8-.5-1.6-1-2.3-1.5-1.4-1-2.5-1.8-3.9-2.2-.3-.1-.9-.2-1.2-.3v.1c-.4.9-1.1 1.5-2 1.8-1.4.5-2.7-.1-3.1-.3-3-1.5-5.8-.9-9.7 1.9l-.1.1c-1.2 1-2.4 1.3-3.6.9-.3-.1-2.9-1.2-1.9-4.3v-.1c.4-2.6 1.7-4.7 3.6-6.2-1 .2-2.2.6-3.6 1.3-.1 0-.1.1-.2.2-.2.2-.5.4-.8.6-2.4 1.4-3.9-.1-4.2-.5-.4-.4-1.5-2-.1-4.1 1.7-2.5 4.7-4.2 8.4-4.7 3.3-.4 6.4.2 8.7 1.8.2-2.5 1.9-4.9 3-6.2 2.7-3.2 6.1-5.2 9.1-5.4l2.2-.1.3 1.2c7.9-.4 14.5 1.6 20 6 2 1.6 3.3 3.9 3.5 6.4.2 2.3-.6 3.5-1.3 4.2 1.2.9 2.3 1.8 3.3 2.6l.5.4c1.3 1 2.7 2.2 3.8 3.8.7 1 1 2 1 3.1l.5-.5c4.2-4.2 9.7-4.6 14.2-1.1 2.4 1.9 4.7 3.9 7 5.9 1.1 1 2.3 2 3.4 3 3.1 2.6 5.4 5.8 7.1 9.8 1.3 3 2.1 6 2.3 8.9 1-.5 2.3-.7 4.1 0 2 .8 3.7 2 5.5 4 3.9 4.2 6.2 9.1 6.7 14.4.1 1.3-.2 2.4-.9 3.3 1.5 2.1 3.3 3.9 5 5.7 1.7 1.7 2.9 3.6 4.1 5.4.8 1.2 1.5 2.4 2.4 3.5l.2.3.1.4c.7 1.7 1.2 3.1 1.5 4.4.6 2.3-.3 3.7-.9 4.3-.3.3-.8.7-1.6 1 1.8 1 3.4 2.2 4.7 3.6.6-1.2 1.8-2.1 3.1-2.9 5-3 10.4-3.1 16-.2 8.1 4.2 13.1 12.9 12.3 21.5-.6 6.8-4.3 12.6-10.9 17.2-.9.6-1.8 1.2-2.8 1.8.6.2 1.2.5 1.8.8 4.9 2.5 11.5 6.8 12.7 15.7l.3.3.2.7c.5 2.4-.5 4.4-1.2 5.9l-.1.2c-2.8 5.7-6.7 8.9-11.9 9.9-.2.1-.5.2-.9.2-2.2.2-3.4 1.2-4.1 3.2-.4 1.1-1 1.9-1.5 2.6-.2.3-.4.5-.5.8l-.2.3-.2.2c-1.2 1.1-2.3 2.5-3.4 3.9l-.3.4c-2.3 3-5.3 5.2-8.1 7.3l-.1.1c-.2 0-1.1.7-2.4.7zm-8.5-36.8c.6 0 1.3.1 2 .2.6.1 1.2.3 1.8.5.4.1.9.3 1.2.3 4.4.9 6.6 4 8.3 7.2 2.1 3.8 1.9 8 1.8 11.7v.1c-.1 2.5-.7 4.7-1.4 6.8.5-.5 1-1.1 1.5-1.7l.3-.4c1.1-1.5 2.3-2.9 3.7-4.3.2-.2.3-.5.5-.7.3-.5.7-1 .8-1.3 1.4-3.8 4.2-6.1 8.1-6.6.2-.1.4-.1.6-.2 3.7-.7 6.3-2.9 8.4-7.2l.1-.2c.4-.7.7-1.5.8-2-.3-.5-.4-1-.5-1.5-.6-5.2-3.7-8.9-10-12.1-1.5-.8-3.3-1.1-5.2-1.5l-1.5-.3-3.8-.9 2.3-3.2c.9-1.3 2.1-1.9 2.9-2.2 2.3-1.1 4.2-2.2 5.8-3.3 5.4-3.8 8.2-8.1 8.7-13.4.6-6.6-3.2-13.2-9.5-16.4-4.1-2.1-7.5-2.1-10.9 0-.3.2-.6.4-.8.5.1.1.2.3.4.6 3 4 3.8 8.4 2.5 12.8l-5-1.3c.2-1.2.1-2.1-.5-3.2-1-1.9-2.5-3.5-4.1-5.2-.6-.7-1.2-1.3-1.8-2-1.9-2.1-4.4-3.5-7.8-4.3-2-.4-4-.4-6.2-.4H523.7c-3.2.2-3.8-2.1-3.9-2.7-.2-1.2.1-2.8 2.5-3.8h.1c2.9-1.3 6.2-2.6 10.2-1.9l1.8.3c.5.1 1.1.1 1.6.2-.2-.7-.5-1.4-.8-2.1-.9-1.2-1.7-2.4-2.5-3.7-1.1-1.7-2.1-3.2-3.3-4.5-2.1-2.1-4.3-4.3-6.1-7.1-.6-.9-1.7-1.4-3.1-2-.6-.3-1.1-.5-1.7-.9l-.1-.1c-.1-.1-.2-.1-.3-.2-.4-.1-.9-.4-1.5-.6-1.3-.4-2-.5-2.3-.5l-.4-5.2c1.3-.1 2.7.2 4.1.6.7.2 1.4.5 2.1.7.5.2.9.3 1.3.5.7.3 1.4.5 2.2.9-.7-3.6-2.4-6.9-5.1-9.9-1.2-1.4-2.4-2.2-3.6-2.7-1.2 2.2-2.7 3.9-4.1 5.3l-8.3 8.7 3.9-11.4c1.6-4.6 1.3-9.3-1-14.4-1.4-3.2-3.3-5.8-5.8-7.9-1.2-1-2.3-2-3.5-3.1-2.2-1.9-4.4-3.9-6.7-5.7-2.3-1.8-4.8-1.7-7 .3.9.7 1.9 1.3 2.9 1.9.5.3 1.1.7 1.6 1l.3.2c.3.2.6.5.8.7 1.3 1 3 2.3 3.7 4.6l2.7 8.4-6.8-5.6c-.3-.2-.8-.5-1.3-.7-1-.5-2.4-1.2-3.3-2.5-2.4-1.2-5.1-1.7-8.4-1.6-3 .1-5.6 1.2-7.8 3.2l-4 3.6c.6.3 1.3.6 1.9 1.1 2.7 1.9 4.9 4.1 7 6.3.6.6 1.2 1.3 1.8 1.9.6.6.9 1.2 1.1 1.6 0 .1.1.2.1.3 1.1 1.9.4 3.3-.1 3.9-.3.3-1.8 1.9-4.2.6-.9-.5-2.1-.5-3.3-.2 3.6.9 6.7 2.5 9.5 4.9 3.9 3.5 6.3 7.6 7.1 12.3.6 3.9-.5 7.3-1.7 10.2-.7 1.7-1.7 2.8-3.1 3.1-.9.2-2.3.3-3.9-.9s-3.6-2-5.6-2.9c1.3 1.4 2.4 2.9 3.4 4.3 1.2 1.6 1.9 2.9 2.2 4 .2-.4.5-.9.9-1.4 2.4-2.7 5.7-4.1 9.6-4 3.8.1 7.2 1.4 11.1 4.1 4.7 3.2 9.9 6.8 14.5 11.1l.2.2c.5.5 1.4 1.3 1.7 2.6l.1.1c.5.5 1.4 1.5 1.3 3 0 .5-.3 1.6-1.4 2.4-.8.6-1.6.8-2.4.7 2.8 2.8 4.6 6.1 5.9 8.8.6 1.2 1.1 2.4 1.5 3.6.2.4.3.8.5 1.1 0-.1 0-.1-.1-.2 0 0 0-.1-.1-.2-1.1-2.7.2-4.1 1.1-4.8 1.8-1.3 3.8-.5 4.7-.1l.2.1c5.4 2.1 9.6 5.9 12.9 11.4 2.9 4.8 2.9 9.8.1 15.3-.6 1.1-1.4 1.9-2 2.6-.4.4-.8.8-1 1.2-.9 1.8-2.4 2.9-3.7 3.8-.3.2-.6.4-.8.6-1.7 1.3-4 1.2-5.4-.3-.7-.7-1.6-1.4-2.5-2.1-1.7-1.3-3.6-2.8-4.9-4.9-1.8-2.9-3.7-3.8-6.6-3.3l-.4.1c6.2 3.1 12.8 7.3 16 15.1 1.1 2.6 1.5 5.1 1.2 7.5l.3-.3c.8-1.2.8-1.9.5-2.8-.8-2.2-.6-4 .5-5.3 1.2-.9 2.5-1.4 4.1-1.4zm-.3 5.2zm.8-.9zM513.5 694zm-17.5-5.5zm-18.7-16.8zm1.3-.2zm-16-20.8zm-4.1-21.4c.5 0 .9 0 1.4.1l3.1-5.8c.8-1.5 1.7-2.9 2.6-4.1l.4-.5c1.6-2 3.4-4.2 6.3-5.5-.6-.7-1.4-1.3-2.2-2l-.5-.4c-3.4-2.8-6.3-5-10.4-5.6l-10.6-1.7 10.2-3.3c1.9-.6 4.2-1.4 6.7-.6-.3-.9-.9-1.5-1.3-1.8-5.3-4.2-11.9-5.7-20.1-4.5l-.2-1.1c-1.3.6-2.8 1.7-4 3.2-1.3 1.5-1.7 2.7-1.8 3.3.3.9.4 1.8.4 2.5 0 .3 0 .6.1.9.3 1.6-.4 3.1-1.8 3.7-.1 0-.2.1-.3.1.4.1.8.3 1.2.4 2-2.3 4.9-1.5 6.3-1.1 2.3.6 4 1.9 5.6 3 .7.5 1.3.9 2 1.3 6.7 3.9 7.2 10.1 7 15.1-.1 1.5-.3 3.1-.7 4.6.1-.2.3-.2.6-.2zm18.3-12.3c-.5.5-1.1.8-1.8 1.1-.3.1-.5.2-.8.3H476.9c-.1-.3-.1-.5-.1-.8v-.6zm-55.8-6.8zm11.2-5.4c-.1.3-.3.7-.5.9.5-.1 1.1-.1 1.6-.1-.1-.1-.3-.2-.4-.3l-.7-.5zm1.1-1.6zm33.6-2.8zm-24-11.7c-.3.4-.6 1-.5 1.4l.7-.2-.2-1.2z"/><path d="M501.5 797.9c-1.5 0-3-.2-4.5-.5-2.5-.6-4.5-1.7-6.5-2.9-.4-.2-.7-.4-1.1-.6-3.2-1.8-5.3-4.2-7.4-6.7-.3-.4-.6-.7-.9-1.1-.5-.6-1.1-1.2-1.6-1.7-2-2.1-4-4.3-5.4-7.1-.5-.9-1-1.9-1.4-3-5.2 3.7-11.4 4.7-18.9 3.3-4.4-.9-8.8-2.5-13.6-5-2-1.1-3.7-2.4-5.3-3.7-.3-.3-.6-.5-.9-.7-5.7-4.4-9.1-9-10.9-14.2-2.1-6.2-1.5-11.3 1.7-15.6l1.2-1.8c.5-.7 1-1.5 1.5-2.2-3.3-1-6.4-2.4-9.2-3.7-3.8-1.7-6.9-4-9.3-6.7-2.1-2.4-3.2-5.6-2.9-8.8.2-2.5 1-4.7 2.5-6.5l-1.8-.6c-3-.9-6.1-1.9-9-3.3-3.8-1.8-8.3-4-12.4-6.9-4.9-3.5-8.1-8.1-10.5-12.1-1.7-2.8-2.4-5.8-3.1-8.5-.7-2.8-1.1-5.7-1.4-8.4l-.1-.8c-1-8.1 1.8-14.2 8.5-18.3 4.8-2.9 9.7-3 14.1-.3.5.3 1 .6 1.6.9-.5-1.8.1-3.3.4-4 .9-2.5 2.3-4.9 4.1-7.1 2.3-3 6.7-4.5 10.8-4.1-.3-.8-.5-1.7-.8-2.4-1.7-6.1-1.7-12.6 0-19.1l2-7.8 2.9 7.5c.6 1.5.6 2.9.6 4.2 0 .9 0 1.6.2 2.2 2.2 7.2 4.9 11.6 9.2 14.9.3.2.9.4 1.5.6.5.1 1 .3 1.5.5 1.9.8 2.4 2 2.5 2.9.1.9-.1 2.2-1.6 3.4-2.7 2.2-4.6 5.2-6.5 8.3-.1.1-.2.3-.2.4.8-.4 1.9-.8 3.2-.8 5.6 0 10.9 1.9 16 5.8 1.6 1.2 1.5 2.8 1 3.8-.8 1.6-2.7 2.2-4.4 1.4-.9-.4-2-.6-2.9-.8-5.8-1.1-9.9-.1-13.4 3.1-.5.5-1 .9-1.5 1.3-1 .9-2 1.8-2.7 2.7-1.4 1.8-1.6 4.1-.6 5.9.2.4.5.8.7 1.2.4.7.7 1.4 1.2 1.8 1.3 1.4 1.2 3.4-.1 4.7-.3.3-2 1.8-4.2.2-1.8-1.1-2.7-2.7-3.4-3.9l-.1-.1c-1.4-2.5-2.8-5-3.6-8-.2-.6-.7-1-2.2-1.7l-.6-.3c-4.9-2.4-9.2-.6-11.3.7-3.6 2.2-6.2 6-6.3 9.3-.1 2.2 1.1 3.8 2.7 6 2.1 2.7 4.9 4.7 8 6.8l1.8 1.3c2.8 2 5.5 3.9 8.6 5.1 5.3 2.2 10.2 3.2 14.9 2.9 1.3-.1 3.1-.2 4.2 1.3s.4 3.1 0 4.2c-.3.8-.6 1.6-1 2.4l-1.2 3c-.7 2.1-.7 3.8.1 5.6 2.3 5.4 6.9 8.9 14.4 11 2.3.7 4.3.8 6.1.5-2.3-3.6-3.5-7.9-3.6-12.6-.1-2.6.4-4.9 1.5-7.1l.1-.1c1.1-2.3 2.8-2.6 3.9-2.3.5.1 2.7.6 2.5 3.6.4 2.9 1.2 5.9 2.8 9.4 2.2 5.1 5.8 9.8 11.3 14.7 3.3 3 6.7 4.3 10.2 4.1h.1c2.7-.3 3.5 1.4 3.8 2.1.2.6.7 2.8-2 4.2l-.1.1c-4.3 2.3-8.8 2.3-13.8 0-.2 1.1-.4 2.3-.4 3.5 0 .5 0 1.9 2.7 3.6 3.7 2.3 7.7 3 12 2.1.6-.1 1.3-.2 1.8-.3 1.1-.1 1.8-.2 2.3-.6 1.3-1 3.1-1 4.3.1 1.2 1.1 1.5 2.7.7 4.2-2 3.7-1.5 7.1 1.7 12 3 4.4 6.1 7.6 9.9 10.1 3.1 2 6.4 4 10.2 4.8 3.8.7 7.6 0 12-2.2 2.8-1.4 4.6-2.7 5.9-4.3 1-1.2 2-1.5 2.8-1.5.7 0 1.8.1 2.8 1.1.4.4.9.8 1.3 1.1l.6.5 8.9 7.8-11.3-3.3c-.6-.2-1.3-.4-1.7-.5-.3.3-.8 1-1.3 1.6-2.9 3.7-6.3 6.9-10.3 9.7-5 3.4-9.8 5.1-14.6 5.1zm-27.9-30c.4 0 .7.1 1 .2 1.2.4 2 1.5 2.4 3.1.3 1.3.9 2.5 1.5 3.7 1.1 2.2 2.8 4 4.6 5.9.6.6 1.1 1.2 1.7 1.8.3.4.6.7 1 1.1 1.9 2.2 3.7 4.2 6 5.5.4.2.8.4 1.1.6 1.7 1 3.4 1.9 5.1 2.3 4.9 1.1 9.7-.1 14.8-3.7.5-.3.9-.7 1.4-1-3.1.8-6.1.9-9.1.3-4.7-.9-8.5-3.2-12-5.5-4.3-2.8-8-6.6-11.3-11.5-2.2-3.3-4.7-8-3.5-13.5-.3 0-.5.1-.7.1-.5.1-.9.1-1.3.2-5.6 1.2-10.9.2-15.8-2.7-4.3-2.7-5.2-5.9-5.2-8.1 0-2 .4-4.1.8-5.6.2-.7.6-2.5 2.3-3.3.7-.3 1.4-.4 2-.3-.3-.3-.6-.5-1-.8-6-5.3-10.1-10.7-12.6-16.4.5 1.7 1.3 3.3 2.4 4.8.4.6 1.6 2.3.9 4.2-.7 2-2.8 2.5-3.5 2.7-2.9.8-6.1.6-9.7-.4-9-2.5-14.8-7.1-17.7-13.9-1.3-2.9-1.4-6.1-.2-9.4.4-1.1.9-2.2 1.3-3.3l.3-.6h-.2c-5 0-10.1-1.1-15.5-3.3-3.6-1.5-6.6-3.6-9.5-5.7l-1.8-1.3c-3.3-2.3-6.6-4.6-9.2-7.9-1.7-2.2-3.9-5.1-3.8-9.3.2-5.1 3.6-10.5 8.9-13.6 5.2-3.1 11.1-3.4 16.3-.9l.6.3c1.5.7 3.4 1.7 4.5 3.7.4-.9.9-1.7 1.5-2.5 1-1.3 2.2-2.3 3.3-3.3.5-.4.9-.8 1.3-1.2 2.3-2.2 5-3.7 8-4.4h-.6c-.4 0-.8.2-1.5.6-.7.4-1.6.8-2.7 1-.1 0-.2 0-.3.1-.7.2-2.7.8-4.3-1-1.4-1.6-1.5-3.7-.3-5.6.5-.8 1-1.7 1.6-2.5 1.7-2.7 3.4-5.5 5.7-7.9-.6-.2-1.3-.6-2-1.1-2.9-2.3-5.1-4.9-6.7-7.7 0 .1 0 .2.1.2.5 1.9 1 3.3 1.9 4.5 1.7 2.2.6 4 .2 4.5-.5.6-1.8 1.9-4.1.9h-.1c-.3-.1-.6-.2-.8-.3-.1 0-.1-.1-.2-.1-2.6-1-6.4-.2-7.9 1.7s-2.6 3.8-3.3 5.8c-.3.7-.2.9-.2.9s0 .1.1.2c.8.9 1.2 1.9 1.5 2.7.1.2.2.4.2.6v.1c1.1 2.5-.3 3.8-.9 4.3-1.1.9-2.5.9-4 .1l-1.8-.9c-1.5-.7-3-1.5-4.5-2.4-2.7-1.7-5.6-1.6-8.7.3-4.9 2.9-6.8 7.1-6.1 13.1l.1.8c.3 2.7.7 5.3 1.3 7.8.6 2.5 1.3 5 2.5 7.1 2.2 3.8 4.9 7.6 9 10.5 3.7 2.6 7.8 4.6 11.6 6.4 2.6 1.2 5.4 2.1 8.4 3 1.1.4 2.3.7 3.4 1.1 1.9.6 3 1.7 3.2 3.1.3 1.4-.3 2.7-1.8 4-1.2 1-1.9 2.5-2 4.2-.1 1.8.5 3.7 1.6 5 2 2.2 4.4 4 7.6 5.4 3.3 1.5 6.8 3.1 10.4 4 2.2.5 2.9 1.9 3.1 2.7.2.7.3 2.2-1.2 3.6-.9.9-1.7 2-2.5 3.2-.4.7-.9 1.4-1.4 2-2.2 2.9-2.4 6.3-.9 10.9 1.4 4.2 4.3 8 9.1 11.8.3.3.6.5 1 .8 1.5 1.2 3 2.4 4.5 3.2 4.4 2.3 8.3 3.8 12.2 4.5 6.7 1.3 11.8.3 16.1-3.3 1.1-.6 2.1-1 3-1zM573 749.3c-.4 0-.7-.1-.9-.1-.5-.1-2-.8-2.1-3.1-.2-5.1-4-8.3-7.9-10.9-3-2-5.8-2.7-8.6-2.2-2.6.5-3.7-1.2-3.9-2.3-.3-1.4.3-2.9 1.6-3.9 1.9-1.4 3.9-2.5 5.4-3.2 6.2-3 10.1-7.1 11.8-12.6 2-6.3-1.9-14.7-8.4-18-2.5-1.3-4.5-1.7-6.6-1.5-1.3.1-2.4.7-3.6 1.4 2.9 3.8 3.8 8.1 2.7 12.7 0 .2-.1.4-.2.6l-.1.3c-.4 1.2-1.7 4.9-5.1 4-1-.3-1.8-.9-2.2-1.8-.7-1.5-.1-3 .4-4 .1-.2.2-.4.2-.5.2-.7.2-1.3-.6-2.6-1.7-2.9-4-5.6-7.3-8.3-3.3-2.8-7.6-3.2-13.3-2.9-1.1.1-2.2 0-3.1 0h-.1c-2.3 0-3.2-1.3-3.5-2.3-.3-1-.4-2.5 1.5-4 3.8-3 7.9-4.4 12.1-4.1h.5c.9.1 1.8.1 2.7.2 0-.1-.1-.2-.1-.4-1.9-4.6-5.2-8.4-8.4-12-2.4-2.6-4.8-5.1-7.9-6.5-1.1-.4-1.7-1-2-1.5-.4-.7-.5-1.6-.3-2.4.4-1.4 1.8-2.6 3.9-2l.2.1 1.6.6c.2.1.5.2.7.3-1.2-4.4-3.6-7.8-7.1-10.2-1.3 2.5-3.5 4.7-6.5 6.7l-2.2 1.5-1.4-2.3c-.8-1.2-.8-2.6 0-4 1.9-3.3 1.7-6.8.7-11-.6-2.8-2-5.6-4.1-8.3-1.6-2.1-3.8-3.9-6.2-5.8l-.1-.1c-.9-.8-1.8-1.6-2.7-2.3-1.7-1.5-3.2-2.9-5-3.9-1.1-.6-2.6-.5-3.8.1l4.1 2.7.4.3c1.5 1.3 3.2 2.8 4.2 5.1v.1c1.1 2.4-.4 3.8-.9 4.1-.5.3-2.2 1.4-4.1-.3l-.7-.5c-1.2-.9-2.4-1.7-3.6-2.3h-.1c-3.6-1.7-6.9-2.1-10.2-1.5-2.5.5-4.4 1.5-6 3.2l-.1.1-.8.8c-2 1.9-3.8.7-4.2.5-.5-.4-2-1.7-.8-4.3 1-2.2 2.3-4.3 3.9-6.4 1.5-1.9 3.1-3.5 4.9-4.8l.2-.2c.1-.1.2-.2.3-.2-2.5-2.4-5.2-4.3-7.9-5.8-1.9-1-3.5-1.3-5.2-1l-7.1 1.2 4.7-5.5c2.1-2.4 5.2-3.7 8.2-3.7-.1-.1-.2-.2-.3-.2-4.6-3.5-10.2-4.9-17-4.3-.4 0-.8.1-1.2.1-1.2.1-2.4.2-3.5.4l-7.1 1.5 4.6-5.7c1-1.3 2.3-1.9 3.3-2.3.5-.2.9-.4 1.2-.6l.3-.3.4-.1c8.2-2.9 15.8-2.5 22.7 1.1 5.5 2.9 8.1 7.2 8.1 13.1 4.6-1.6 9.4-1.4 14.7.6 5.3 2 10.3 5.1 15.4 9.5 5.2 4.5 9.4 9.6 12.5 15.1.7 1.3 1.6 3.1 1.6 5.2.2 2-.2 3.9-.7 5.6v.2s.1.1.2.1l.4.3c2.7 2.2 5.5 4.4 7.9 7.2 2.9 3.4 5.5 7.3 5.9 12.4.1 1.6-.1 3.2-.5 5 2.7.4 5.1.8 7.3 1.3 8.5 2.1 15.8 5.7 21.8 10.9 8.3 7.1 13.5 16.5 16.4 29.6.2.8.2 1.7.3 2.4 0 .3 0 .5.1.8.5 3.5-.2 7.1-1.9 10.8-1.6 3.4-4.4 6.3-8.1 8.5 5.2 4.2 8 9.8 8.5 16.8v.2l-.2 3.5-.5.6c-.7 1.4-1.7 1.6-2.5 1.6zm-13.7-21.1c1.7.5 3.3 1.2 5 2.2-.1-.1-.2-.1-.3-.2-1.3-.9-2.4-1.8-2.7-3-.7.3-1.3.7-2 1zm-4.8-41.9c3.3 0 6 1.1 8 2.2 2.5 1.3 4.7 3.1 6.5 5.2-2.7-6.1-6.3-10.9-11-15-5.5-4.7-11.9-7.9-19.7-9.8-1.7-.4-3.6-.8-5.7-1.1 2.5 3 5 6.4 6.6 10.4v.1c.1.4.3.7.4 1.1.3.8.5 1.5.8 2.2.8 2.1.1 3.3-.5 3.9-.4.5-1.7 1.4-3.9.6-1.4-.5-3-.6-4.6-.7h-1.5c3.8.3 7.7 1.3 11.1 4.1 1.1.9 2.1 1.9 3 2.8v-.3c.1-.8.6-1.8 1.9-2.7 1.9-1.2 4.1-2.6 7-2.9.6-.1 1.1-.1 1.6-.1zm-68.4-74.9c1.4 0 2.9.3 4.1 1 2.4 1.3 4.3 3 6.1 4.6.8.8 1.6 1.5 2.4 2.1l.1.1c2.5 2 5 4 7 6.7 2.5 3.3 4.2 6.8 5 10.4.4 1.9.8 3.9.8 6 .5-.5 1.1-1 1.9-1.3.2-.1.5-.1.7-.1-.9-1-1.6-2.4-1-4.6l.1-.2c.3-1.4.7-2.7.5-3.9v-.4c0-.8-.3-1.6-.9-2.8-2.8-5-6.5-9.5-11.4-13.7-4.6-4-9.2-6.8-13.8-8.6-4.8-1.8-8.9-1.8-12.8.1 0 0-.1 0-.1.1-1 .8-1.9 1-2.7.9 1 .9 2.1 1.8 3.1 2.9.9 1 2.1 2.1 1.8 3.9-.4 1.7-1.8 2.3-3.3 2.9-.1 0-.3.2-.4.3l-.3.2c-.8.5-1.5 1.2-2.2 1.9.4-.1.9-.2 1.3-.3 2.1-.4 4.2-.5 6.3-.2-.3-.4-.6-.9-.7-1.6-.1-.7-.1-1.8.8-2.9 1.9-2.2 4.8-3.5 7.6-3.5zm-18.2-6.8c.5.4 1.1.7 1.6 1.1-.2-.6-.3-1.4 0-2.4v-.1c-.3.5-.6.8-1 1-.1.2-.4.3-.6.4zm-5.4-12.7c1.3.7 2.6 1.5 3.7 2.4 1.6 1.2 2.7 2.8 3.3 4.6-.5-2.6-2.2-4.5-5.1-6.1-.6-.3-1.2-.6-1.9-.9z"/><path d="m555.5 671.4-16.9-2.4c-.9-.1-1.7-.2-2.6-.4-2.1-.3-4.3-.6-6.4-.9-1.5-.2-2.3-1-2.7-1.7-.9-1.4-.4-2.9-.2-3.7v-.1c.9-3.1.7-5.8-.5-8.3-1.8-3.7-4.8-6.7-7.9-9.4-.9-.8-1.8-1.5-2.8-2.2l-.8-.6c-1.5-1.1-2.1-2.8-1.8-4.5.3-1.3.5-2.7.7-4l1.9-10.4 3.4 8.2c1 2.3.3 4.5-.1 6.1-.1.3-.1.4-.1.4s.1.1.4.3c3.3 2.5 7 5.7 9.9 9.7 2.4 3.3 5.2 8.4 3.6 14.9.3 0 .5.1.8.1 2.1.3 4.4.6 6.6 1.6l15.5 7.3zM575.8 753.1l-4.2-8.2c-.6-1.2-.7-2.4-.8-3.3-.1-.5-.1-1-.2-1.3-1.4-4.6-3.9-8-7.5-10.4-.7-.4-2.4-1.6-2.3-3.7.1-2 2.1-3 2.8-3.3 6.1-3 9.1-7.5 9.1-14 0-.5.1-1 .2-1.3v-.2l2.1-11.5 2.9 11.4c1.4 5.6-.9 10.3-2.8 13.3-1.7 2.8-4.3 4.8-6.7 6.3 4.7 4 7.5 9.1 8.2 15.3.1.6 0 1.2-.1 1.6v.3l-.7 9z"/><path d="m541.4 687.1-6.3-6c-1.1-1-1.7-2.3-2.2-3.3-.2-.4-.4-.8-.6-1.1-2.7-4.4-6.3-8.5-11.4-13.1-.2-.2-.6-.4-1.1-.6-.9-.4-2-1-2.9-2.1l-3.9-4.7 6.1.5c2.3.2 3.9 1.4 5.2 2.6 1 .9 2 1.8 3.1 2.7l2.1 1.8c1 .9 1.8 2 2.4 2.9l.9 1.2c.3.4.7.9 1 1.3 2.2 2.7 4.5 5.5 5.4 9.4l2.2 8.5z"/><path d="m525.5 663.3-7-1.4c-.6-.1-1.1-.3-1.7-.4-1.8-.5-3-.7-4.2-.3-1 .4-2.1.3-2.9-.2-.8-.5-1.3-1.3-1.4-2.2-.1-1.2.4-2.8 2.4-3.5 2.7-1 5.2-.6 7.2-.2.7.2 1.3.4 1.8.7.2.1.3.1.5.2l4.9 2.1-2.6 1.4 3 3.8zM494.4 633.3l-3.6-2.5c-.9.2-2.1 0-3.3-1.4l-.1-.1c-.4-.4-1-.8-1.8-1.3-1-.6-2.1-1.3-3.1-2.4l-3.3-3.8 3.7-.3-5.7-7.4 10.4 5.4c2.4 1.3 4.2 3.2 5.4 5.9.7 1.5.6 2.6.2 3.4l1.2 4.5zM188.7 521.3c11.2-23.9 30.2-51.8 56-59.5 13.9-21.6 37.1-39.4 57.3-47 32.4-17 42.5 9.2 54.8-3.8 65.8-44.4 11.4 35.4 54.3-4.7 16.5-14.8 68.7-42.6 59.5-6.4 11.4-7.9 32.3-18.8 43.8-21.4 21.8-9.4 55-9.8 30.6 20.7-18.6 33.5-67.1 31.4-53 57.9-25 34.4 17.5 4.4 18.9 33.2-4.5 24.5-33.1 57.1-56.6 56.4-1.6-6.2-41.7 26.3-44.1.9 2.9-10.7-40.9 18.2-35.6-2.3 2.6-5.4-36.2 6-20.3-23.2-9.1 11.3-80.8 38.5-64.7 12.9-11.2-1.4-11.3-2.6-20.3 6.3-47.2 27.8-49-16.3-14.8-38.6-11.4 6-49.6 39.4-48.3 3.1-3.4 7.6-9.6 13-17.5 15.5zm63.8-10.8c-28.9 27.5 1.1 41.4 14.2 20.9-.8-2.7 8.3-14.7 14.4-11.1 13.5 18.1 74.7-21.4 43 4-50.6 23.9 38.2 2.3 31.5-17.7 7.6-3.2 29.9-52.2 27.6-30.4-19.5 46.2 12.6 8.2 13.7 26.1-9.1 12-35.1 9.4-35.5 25.7 6.9 17.5 31.4-2.3 42.9-6.7 1.4 10.4-26.5 24.2-10.4 20.4 8 3.4 24.3-16.7 27.2-7.3-5.8 49.1 78-46.6 62.4-14.5-13.9 19.2 18.6-10.9 17.2-23 1.7-17.8-21.9-10.1-31.2-9.3-.1-7.3 13-21.9 12.9-27.2-8.7 10.1-24.8 19-35.2 22.3-53.6 22.9 63.4-38 36-53.2 14.7-19.1 32.3 12.6 59.7-39.6-7.3-26.2-63.2 14.6-82 21.4 2.4-21.7 1-23.6-23.5-14.8-25.5 13.3-20.8 7-12.3 27.8-9.9 30.5-17.3-21.6-72 15.7 3.2-17.1 27.4-18 30-30.3-2.6-7.5-14.4.7-25.4 7.5-33.6 29-9.8-.5-35.2 1.4-43.2-1.8-63 44.3-97.7 60.9-12.1 9.7-12.7 45 10.1 29.9 1.8-1.6 8.1-3.4 6.3-5.1-4.7-10.8 13.2-23.7 17.8-33 2.9 6.5-4 15.8.8 20.6 11.5 7.5 38.6-8.1 52.3-13.3-16.9 18.1-35 32.5-59.6 31.9zm-10.6-5.2zm125 2.6c-3.7 5.1-2.7 3.6 1.9 2 6.3-1.6 2-1.3-1.9-2zm108.4 20.6zm-61.8-117.7zm53.9-8.5zm2.4.6z"/><path d="M170.1 617.2c-13.7-10.6 19.7-43.5 16.2-46.2-10.7 4.4-23.4 7.2-28.8-.4-4.2-19.3 22.3-32.8 30.5-47.9 9.3-15.4 17.4-36.6 34.6-44.5 3.4 6.7-18.2 45 13.8 29.1 3.2-7.8 11.1-30.8 25-34.2 7.1-.4-7.2 16.3 1 17.4 4.9 10.9 60-24.7 41.2-2.4-14.8 16.5-32 23.2-51 23.9-15.6 16.4-12.9 34.8 12.4 23.5-2.3-11.8 14-23.8 23.7-13.3 12.3 9.2 36.7-12.7 43.4-4.9-31 26.6 2.6 9.2 18.7-.5l-5.9 3.3 1.9-5.1c11.1-12.4 56.9-79.6 29.7-17.9 23 .3 43.1-8.2 7.3 15.2-39.8 10.9-9.5 33.4 14.5 10.3 6.3-5.7 12.9-7.4 7.9 1.6-29.6 32.9 7 7.1 16.3 2.6-3.7 46.3 44.8-3.3 61-17.5 8.7-3.7 3.3 9.6-1.1 14.5 3.7-2.5 13.2-15.2 16.8-14 5.5 16.8-33.6 26.5-35.8 42.6-14 19.8-49.6 46.9-69.9 39 3.1-12-6.2-2.3-14.5-3.9-15 9.9-55.3 41-75.3 15.6-6.7 9.9-40.4 14.3-34.8-3.6-8.3-.8-35.7 4.5-29.4-10.3-5.3-8.6-47.8 50.1-69.4 28zm40.8-66.1c-10.5 17.3-62.5 69.3-11.3 58.2 34.2-18.3 14.3-10.1 14.1-28.1 4.5-1.7 8.9-7.5 11.6-2.4 18.7 7.3 39-17.4 54-19.3 1.3 11.6-28.6 22.8-28.3 29.7 15.1 2.2 32 2.6 44.9-6.6 5.8 9.6-11.4 11.2-17.3 15.5 19 18 30.6-19.6 40.5-30.7-22.6 44.1 25.2 42.3 48 20.8-9.6 3.4-19.9 7-27.1-2.7 25.3-2.7 49.1-16.6 62.2-39.3-7.8 3.2-15.5 3.4-22.9 4.2-13.1-2.6 5.7-11.8 10.9-15.9-7.1 3.9-13.6 6.4-19.4 7.4-34 3.6-11.9-34.1 9.1-35-21.1-3.8-30.1 27.5-54.5 29.6-69 17.2-13.9-.1-50-8.1 4.6 18.7-57.6 32.5-41.3 1.3 12.5-33 29.9-22.4 53.8-35.1-14.5 5.1-35 13.6-38.2-2.3 1.3 11.7-4.6 18.6-17.5 24-28.4 17.6-21.7-20.8-25.7-12.7-15.7 29.7-80.9 90.7 4.4 47.5zm-31.4-17.9zm3.5 4zm57.1-30.8zm137.7 72.8c.6 2.6 3.3-2.9 5.2-3.9-1.6 1.4-4.2 2.6-5.2 3.9zm8.6-1.1zm22-35.1c-5.7 13.2-10.1 24-20.6 35.2 15.5-.5 34.8-13.2 48.3-21.5-8 6.9-23 23.1-32.1 27.9 19.5-1.3 53.9-22.6 54.6-46.7-6.8 7.9-44.5 29.9-46.4 8.4-.1-4.9 1.4-7.4-3.8-3.3zm-5.1 40.3zm-40.4-62.7zm2.4-2.1zm84.1 46.8c1 2.2 1.7-.6 1.4-1.2l-1.4 1.2zm16.3-28.8zm2.6-5.2c-.6.7-4.3 2.7-2.2 2.1 1.5.1 1.6-.9 2.2-2.1zm19.7-19.8z"/><path d="M217.9 475.1c35.5-11.3 48.6-58.6 81.8-73.5 16.3-8.3 35.7-13.3 52.3-7.1 14.9-18.6 39.6-34 63.5-42.8 26.4-11.3 55.4-4 33.2 26.2 22.5-8.7 48.9-27 45.8 1.8 30.9-23.6 113.4-31.8 67 28.2-17.1 18.5-30.5 16.4-36.8 39.8-18.9 19.6-16.2 15.1-13.9 43.1l-2.2 11.7c-4.4-2.4-9.6-5.6-10.2-10.8-6.8-14.4-41.3 8.7-30.4-7.6 25.4-36.1-8.9 1.4-27.2 1.5-10.2-1.7 7.2-12.4 11.4-13.9 12.1-7.3 45.1-33.3 28.1-40.9-9.3-8.1 17.8-17.4 23.5-7.4 9.8-.4 24.2-13.3 27.8-18 35.6-45.2-50.5-9.1-64.6 5-19.6 13.9-1.5-10.2-7.9-15.8-6-5.2-32.4 6.3-42.2 14.9 18 1.1 7.8 35.2-4.5 27.3-12.2-21.1-45.6-2.7-61.4 4.1-2.1-14.3 29.2-20.5 30.2-31.5-12.2-10.2-44.1 36.2-48.3 22.3-1.6-30.6-58.1 1.3-70.8 18.1-11.5 18.3-23.6 24.1-44.2 25.3zm126-71.1c-28.8-10.5-57.7 8.7-75.7 32.7 22.9-22.2 63.6-33.6 80.2-17.9 14.7-17.5 63-31.6 35.2 1.1 10.5-4.4 39.2 2.3 24.4-1.2-9.4-18.9 80.4-57.3 60.2-15.8 21.2-15.2 48.6-27 74.3-29 31 8.9-28.3 61.8-46.9 59-1.7 8.5-28.4 37.1-21 29 24.4-24.4 15.4 3.2 4 17.9 29.1-6.7 8.7.2 12.6-9.6 8.6-8.9 28.4-16.6 30.1-31.6-11.3-5.7-.9-13 8-16.2 21.5-3.7 52.8-37.9 23.9-51.8C538 357.8 472 407 481.3 385c11.8-27.9-35.1 5.3-44.9 4 30.3-48.8-22.4-33.2-49.3-17-19.6 6.2-26.7 32.7-43.2 32zm99.6 79.2zM165 621.4c-10.4-12.9 1.7-28.5 12.3-41.1-10.9 2.3-17.7-.2-20.2-7.5-2.2-6.5 7.9-16.7 12-11.9 5.2 9.7 27.5-1.3 35-7.7 32-14.1-67.1 70.4-4.1 54.8 22.2-9.4 15-8.8 12-25.6 21.2-38.6-.6 26.4 64.1-25.1 7.3-4.9 10.8-3.2 5.4 4.3-8.6 15.6-46.8 30.4-9.9 28 8.1-.1 34.3-10.2 15 5.6-12.2 10.5 16.1 6 21.9-12.2 15.7-15.1 2 10 9 14.2 11.7 8.3 35.7 1.9 46.8-6.8-5.1 1.3-13.7 5-18.6 2.6-1.6-15.4 29.7-13.5 38.1-26.4 7.8-5 13.4-19 20.6-20.5 8.7 3.3-8.5 22.6-12.2 28.9-.6 3 11.5-1.9 15.6-3 7.7-2.3 17.5-12.4 23.8-17.2-6.1 9.9-12.8 21.8-23.1 28.3 17.1-3.1 41.7-23.7 57-37.1-12.2 23.2-59.4 70.7-79.9 49.9-16.2 15.7-38.7 26-60.7 30-53.2 7.9-13.3-17.2-49.7-8.7-9.1.5-16.4-3-14.2-12.5-28.9 16.4-70.6 41.8-96 16.7zm66.1-34.5c-6.8 16.4-30.1 31.5-48.4 32.6 24.4 9.8 52-6.6 76.1-20.4-27.5-.1-20.1-13.7-.6-22.5-.5 1.1-18.9 10.8-27.1 10.3zm-37.2-20.3c-2.4 1.5-9.3 4.1-9.5 4.2 5.6-1.3 6.4.2 9.5-4.2zm108.7 39.1c4.7 33 73.2-3.4 86.4-21-11.6 3.6-13.5-2.2-4.3-9.9 6.8-15.6-23.5 37.1-44.5 32.5-26.3 11.4-41.3-13.6-37.6-1.6zm-6-4.6zm99.7-9.8c1.5 3.5 10.5.6 15.2-1.7-4.5 1.5-11.6 4.5-15.2 1.7zm-1.3-7.7c.4.4.6 1.5.3 2.8 1.9-3.2 3.8-4.8-.3-2.8zm1.2-31.3z"/><path d="M213.6 626.5c10.7-2.9 54.1-41.5 58-29.3.5 30 42.9-17.8 30.2 30.2-23.5-13.5 6.2-12.9-31.5-9.9-5.3-.6-12-2.4-10.3-12.1-9.2 7-35.5 16.5-46.4 21.1zM162 616.4c-6-11.1 7-26.6 14.3-35.5-18 4.1-20.7-7.1-20-20 3.2 1.5 12.3 3.1 12.9 7.5 4.2 7.7 32.7-6.2 17.4 10.3-24 15.2-7.3 61.5-24.6 37.7z"/><path d="M243.5 596.1c-.1-.1-5.9-6.9-5.9-7 4.4-.3 16.2-3.4 20-.7 10 3.6 29.2-3.5 41.7-2.9-15 11.9-38.6 19.4-55.8 10.6z"/><path d="M275.7 599.9c5-5.3 6-5.5-2.1-5.4 9.7-5.2 22.7-13.2 31.2-19.1 11.8 6.7-22.3 21.9-29.1 24.5zM343.9 592.7c-.4-2-1.2-5.1-3.3-6.7 10.2-2.9 20.5-8.7 31.9-7.6l-7.1 5.5 12.6.7c-7.5 1.7-27.1 13.6-34.1 8.1z"/><path d="M622.4 280.1c16-15-13.6-24.6-20.5-37-51.1 22.3-94.7 94.8-142.9 133.8-30.3 26.6-56.2 64.6-88.9 85.3-6.5 3.1-17.1 11.4-17.7 19.3.9 3.9-2.6 5.7-4.7 7.8-35.1 44.2-103.1 84.5-121.7 131.6 40.3 44.2 26.3 26.1 63.9 1.2 2.6 5.6-9.8 12.5-4.9 18.6 14.9 24.9 42.5 36.8 59.1 61 12.9 29.7 16.1 8.4 32.6.7-7 12.8 6.9 18.8 15.7 28.3 16 22.8-54.4 19 4.3 62.1 6.9 6.9 7.7 6.8 14.4 0 67.8-69.1 137-136.3 203.1-206.9 52.5-52.9 105-105.8 157.4-158.9 6.6-6.7 6.8-7.6.1-13.9-9.8-5.5-21.4-28.8-32.8-21.8-2.8 4.1-6.3-.9-3.2-3.7 5.2-6.2-.9-8.3-5-11.1-3.4-8.9-13.8 8.2-20.1-4.5-19.4-26.8-59.3-48.1-69.4-77.1 4.7-4.7-.3-8.8-2.7-13.2-1.5-8.4-10.1-.1-16.1-1.6zm-233 221.1c-3.7 17.2-22.4-1.5-12.6-7.2 54.3-50.6 111.6-127.9 182.9-143.4 14 20.8 81.3 61.1 19.8 53.8-11.2-.2 4.6-10-2.8-15.1-12.1-7.7-21.9-31.6-36.5-29.5-36.5 26.6-35 24.2-4.2 53.8-28.2-5.1-62.4 1.5-88.4 12-18.8 25.2-58.3 42.9-58.2 75.6zm129.7 94.4c1.7 2.3-1.9 6-3.3 2.9-.3-2.5 2.3-1.8 3.3-2.9zm-20-1.9c6 3.7-5.2 8.8 5.9 16.1 17.6 5.1 37.3-19.2 51.6-25.4-6 15-38.6 28.2-54.5 35.5-5-4.4-13.7-11.9-6.5-16.1-.9-5.2-.3-7.1 3.5-10.1-9.3 1.6-16.1 12.2-25 1.2 51.9-18.2 15.6-95.6-29-65.7-7.2 5.2-14 11.7-16.1 22.1-5.1-10.6-2.1-24 5.6-28.9 12.5-3.3 8.4-18.9 19.6-22.4-.9-6.4 2.5-13.3 3.8-18.7 21.9 17.7 44.2 42.9 63.1 64.5-18.4 3.4-23.5 24.7.1 28.3-7.8 7.6-19.8 6.4-22.1 19.6zm80.8-62.5c-13.9-3.1-25 38.3-40.5 28.2-25.7-25.6-50.6-52-75.5-78.4-1.5-17.6 31-31.4 41.3-47.1 4.2-12.1 94.8 79.3 83.4 84.1-11.9 11.1-2.7 9 3.7-.5 25.8-11.1-24.4 84.2-39.1 58.4-16.2-17.1 18.4-30.7 26.7-44.7zm-278.4 8.5c20.3-16.1 41.6-51.5 61.7-51.7 3.1-6.6-10.7-2.7-1.5-9.6 12.6-18.8 12.6 3.7 19.5-9.1.3-1.5-.5-2.9-1.8-2.9-10.2-3 24.3-26.1 28.4-33.6 49.9-50.6 99.5-101.4 150.1-151.2 5.8-10.3 34.4 22.4 29.9 27.9-32.5 35.2-73 57-113.3 83.8-3.2 4.6-14.5-5.7-11.8 4.5-20.4 37.8-67.2 67-96 102.2-16.9 12.5-29.6 39.8-49.6 44-5.9-1.5-12.6-9.6-15.6-4.3zM474.9 724c9-14.2-6.9-14.4 3-29.8C532.2 638.3 590 580.9 644 529.8c4.2-4.2 13.3-15.6 11.1-21.7-6.2-3.4-1.5-5.8.2-8.6 13.8-23.2 21.9-46.6 45.3-63.5 6.6-6.4 7.3 12 15.3 5.8 51.8 9.5-24.9 57.5-38.8 77.7-29.3 21.2-108.6 130.3-129.4 117.9-14.1 7.1 5.8 7.3.1 13-8 6.6-11.8 19.1-17.6 5.3-3.9-.2-8.3 6.9-2.7 7.9 6.3 12.7-42.7 44.5-52.6 60.4zm30.8-83.2c-22.9 4.5-17.2 27.9-39.5-3.3-2.4-2.7-1.7-4.8.4-7.3 8.2-12.5 18.7-13 31.9-6.6 21.8 1 40.7-30.7 61.5-28.4 2.4 2.4 4.6 1.8 4.3-1.9 5.4-19.3 26.6-32.5 32.3-52-20.6 71.7 31.5-31.6 13.4-50.4-7.5-15.9-24.7-36.7.1-46-27.6 19.7 6.5 31.6 18.1 48.8 9.4 11.8 24.3-17.5 29.5-25.8 3.8-8.5-30.4-45.4-37.9-36.4-18.9 13.5-6.8-.8-2.3-12.3 13.6-11.8 33.9 34.4 49.5 40.7 1.4 22.2-26.6 45.8-35.7 67.9-22.9 37.6-59.7 64.6-89.1 97.1-5.8 9.1-4.6.4-11.5-.1-11.8 4.2-72.7 3.5-53.4 23 9.4 4.2 8.6-9.6 16.5-9.5 6.8 1.2 12.6-7.4 18.9-5.6 14.2 4.9 28.1-5.9 10.1 11.4-13.6 4.8-1-9.6-16.7 10-25.9 25.7-44.1 42.8-67.4 67.8-49.1 26.2 56.7-76.2 67-81.1zm121-251.5c-8.4-4.4-51.6-38.9-25.2-40.4 15.3-5.6 51.5-34.4 29.4-50.9-11.8-17.5-59.6 28.2-42.1 40 7.4 3.9-2.9 14.6-8.2 7.7-3.1-5.5-16.1-10.5-9-17.3 55.9-67.3 51.1-37.4 103.5 11.1 10.1 15.4 63.4 50.1 50.9 64.5-32.8 33.5-37.4 63.9-73.3 12.7-6.8-8.3-22.1-15.2-5.8-18.4 10.5-12.3 20.7-25.3 34.4-34.1 7.4-13-27.7-41.8-38.6-44-25.6 26.3-59.4 37.6-16 69.1zM399.9 620c-10-11.2-27.8-40.9-9.4-54.3 6.7-5.1 11.4-4.4 13.4 4.2 14.7 13.9 30.7 28.2 43.6 44.9 42.1 34.2-29.6 33.2-47.6 5.2zm232.7-287.4c16.7-22.4 29.8 9 43.8 19 6.9 16.2-23.9 32-33.7 44.2-13.4-.3-23.4-21.7-35-29.7-4-13.4 20.2-22.2 24.9-33.5zm-150 325.9c-11.7-3.2-7.7 8.7-13.6 13-16.6 13.8-29.4 36.9-48.1 42.9-18.8-.4-37.5-33.4-53.8-46.7-2.6-3.5-1.1-5.7 2.4-5.6 10.6.3 5.2-15.9 16-18.4 5.7-1.8 9.4 7 13.8 9.9 9.4 11.1 15.9-14 24.7-12.1-18.8 26.5-28.8 22.4 4.8 47.6 25.7 1.7 39.1-34.4 53.8-30.6zm-144.2-88.6c-11.9 11.3 11.4 21.5 17.2 30.7 8.6 12.1 24.7-25.9 24.8-5.5-4.7 7.3-12.6 9.4-10.9 19.4-30.4 38.1-37.3 19.4-64.1-8.2-3.3-2.1-1.7-6.4 2.2-5 9.5 1.8 5.7-6.5 8.2-11.7 7.6-5.5 13.3-19.7 22.6-19.7zm-97.2 61.6c-3.4-5.8-17.8-11.8-12.3-18.9 9.9-7.2 17.1-24.1 30.2-23.8 9.6 4.8 28.7 19.6 25.5 30.4-15.1 12.6-27.6 38.1-43.4 12.3zm148 117.1c5.3-3.2 10.6-14.5 16.3-13.8 8.2 9.1 26.6 18 26.3 31.2-8.3 7.4-20.1 30.7-31.2 25.2-13.7-15.1-36.8-26.5-11.4-42.6zM350 528.7c26.1-38 46.6-12.4 20.8-3.6-10.8 7.7-14.9 30.2-32.7 32.1C331 568 323.7 581 312 588.9c-4.9.1-10.1.3-8.9 7.2.5 3.6-1.4 4.7-4.7 2.8-16.1-11.7 16.6-36.9 27-41.1 4.7-9.2 14.9-20.4 24.6-29.1zm125.3 88.5c-23.2 22.4-5.7-5.9-18.4-4.8-17.4-.8-14-19.8-22.2-22.5-16.8 0-20.1-29.2-29-28.8-14.5-.8 5.1-14.6 8.7-19.1 6.6-4.5 8.9 13.6 11.6 18.3-3.2 38.9 74.1 36 49.3 56.9zM369 619c3.8-2.8 12.4-18.5 17.3-12.3 1.6 7.6 15 13.2 10.6 20.7-7.7 7.8-14.8 20.5-25.3 23.5-5.2-1.1-7.7.9-6.7 6.4 1 4.4-3.6 6.7-5.9 2.7-2.6-3.2-21-17.1-10.8-15.9 13.6-.9 1.3-11.5 20.8-25.1zm214.9-364.6c1.4 11.7 18.9 6 19.5 18 10.3 15.8 5.6 16.2-8.6 29.8-10.3.7-19.2-16.6-27.2-23.6-3.9-8.5 10.8-17.2 16.3-24.2zm148.8 148.8c-.9 13.5 15.9 7.6 17.9 19.1 12.2 14.6 5.9 15.9-7.7 29.2-11.1 1.9-19.2-17.7-28.5-23.7-4.5-9.1 13.1-15.9 18.3-24.6zm-323.6 72.7c38.8-40.8 14.2 9.7.2 27.2-13.2 13.9-4.3 27.4-3 41.5-26.6-4.4-14-57.9 2.8-68.7zM325.5 678c-8.3-14.4-46.4-29.8-24.2-45.1 16.9-2.3 30.5 28.2 45.2 37.8 6.1 6.2-6.3 13.6-11.5 16.7 14.9-11.7-8.9-32.8-9.5-9.4zm146.1-214.1c-13.8 13.4-12.7 12.9-26.4.3-5-22.2 38.6-33.9 55.4-43.3 19.9 6.7-23.2 32.2-29 43zm142.6 13c-35.2-20.6 24.9-50.9 9.3-32.9-5.4 12.8 9.3-4.7 12.5 4.2 18.5 11.1-2.8 22.1 9.4 19.5 11.9-8.8 3.8 5.7-1.7 9.2-4.5 9.1-13.5-10.3-14.5 2.2-1.2 5.8 5.6 3.3 6.4 6.6-6.2 12.4-15.6-4.2-21.4-8.8zm-81.7-71.2c-3-5.7-18.8-12.6-10.7-19.7 4.2-3.5 3.7 8.7 11.3 2.4 2.5-1.8.6-4-.9-5.4-10.4-7.3 20.2-24.9 9.2-10.4-5.2 14.5 10-4.9 13.6 5 11.2 10.8 9.2 7.8 5.1 19.8 3.7 3.6 5.8-6.3 9.6-2.7 2 2.1.3 4-1.3 5.5-12.3 14.6-22.6 26.1-35.9 5.5zm63.5-66.8c-25.4-10.1 10.9-31.2 19.7-41.5 21 33.7 23.3 13.4-9.7 48.3-3 2.3-6.3-1.2-2.7-3.3 28.3-31.8-26.4-26.5-7.3-3.5zM476.4 549.4c-3.7 8.6 11.1.5 8.5 10.5 2.8 11.4-9 4.3-12.5 13.5-.6 6.8 5.1-1 6.6 1.2-2.3 5.5-7.4.6-10.5 2.5-3.5 8-8.7 3.2-13.3 1.7-9.5-7.9 16.3-20.5 21.2-29.4zm-14.5 8.6c-6 7.1-19.3 22.4-19.2 3.3 0-2.4-1.9-5.7 3.2-6.9 11.2-.8 6.2-16.7 14.5-16.5 21.3-2 12.8 11.4 1.5 20.1zm-179.6 2.5c-11.9 7.8 1 14.8-.9 25-3.4 10.1 5.9 17.7 11.2 26.5-23.6-14.4-43-32.3-10.3-51.5zm144.5-31.3c-2.5-7.1-6.6-4.1-8.3-1.6-4 5.6-17.3-7.1-12.2-12 11.9-10.9 21.8-62.8 39-47.5-10 2.4-37 34.3-27.2 48.9 6.7 6.6 16.9.1 8.7 12.2zm332.3-123c29 22.7-2.4 24-13.5 4.2-1.1-6-7.5-6.8-9.4-11 5.9-13.3 17.2.6 22.9 6.8zM386.6 695.3c-27.6-14.6-47.6-47.2-69.8-69-71.8-66 43.8 37.6 69.8 69zm73.8 42.9c-8.4 7.2-17.4 24.4-27.3 19.2-4.5-7.3-19.7-13.2-16.2-22.6 6.8 5.1 12 7.3 20.4 4.2 12.4 6.2 12 6.7 23.1-.8zm152.3-479.8c6.3 6.1 18.1 15.1 4.8 20.7-3.5-.5-2.8-8.9-8.4-8.8-22.2-9.8-21.3-42.7 3.6-11.9zM365 689.2c13.8 8.2-5.6 27.5-13.9 14.8-16.4-9.3 5.8-29.5 13.9-14.8zm119.9-263.8c-18 4.4-29.5 16.6-42.2 26.9-25.9 7.4 22.1-36.4 42.2-26.9zm73.7 10c5.3-9.2 13.2-3.6 17.1 3.9-1.6 3.8-7.2 8.2-9.4 12.3-6.9 8.3-20.1-9.9-7.7-16.2zm22.2 4.5c-6-4-19.6-21.7-3.6-17 17.4 10 33.4 46 3.6 17zm4.7 22.6c-5.2 11.7-23.7-.6-15.7-5.3 7.8-17.1 28.1-11.9 15.7 5.3zm-18.7-48.6c6.6-11 36.1-2.5 18.7 7.8-6.4 1.7-11.9-9.6-18 .3-8.9 13.1-7.6-3.2-.7-8.1zm20.6-43.1c3.1.4 4.4-5.6 7.9-2.2 38.3 34.1 17.6 33.9-7.9 2.2zm18.8 140.3c-4.6-12.7-25.9-20.6-20.2-34.9 1.5-2.6-4.5-6.8-.7-8.4 8.6 10.8 17 29.2 20.9 43.3zm-236.3-9.5c-6.9 16-31.8 32.3-44.7 48.3 8.1-16.5 30.9-32.8 44.7-48.3zm71.8 161.8c-4.2-5.8-14.5-11.7-14.4-18.4 13.1-2 47.8 52.5 14.4 18.4zm115.7-206.7c-4.3-4.3-31.4-28.9-13.9-22.9 9 17.4 25.1 30.3 38 41.2-8.4 4.6-16.7-14-24.1-18.3zM435.3 665.2c4.8 3.3 21.5 23.2 5.7 14-13.1-10.6-38.2-44.7-5.7-14zm-42.8 49.6c-5.6-2.7-14.8-18.5-2.5-13.1 13 8 25.5 35.4 2.5 13.1zm261.8-276.6c10-6.9 13.6 7.2 21.5 10.7 5.7 17.7-18-4.6-21.5-10.7zM516.2 650.7c-15.1 15.2-30.2 30.5-46.2 46.6 2.1-5.5 39.4-43.6 46.2-46.6zM425 671.4c3.7 3 18.4 17.5 5.5 12.9-11.4-8.3-32.3-38.9-5.5-12.9zm-74.8-103.6c-8.6-13 27.7 14.7 22.9 20-8.8-1.1-15.3-14.5-22.9-20zm49.3 77.2c-7.4-6.5 1.8-8.8 3.6-12.6 2.2-4.5 5.5-.5 7.1 1.2 4.8 5.7-5.9 19.3-10.7 11.4zm-9.1 72.3c20.7 21-4.6 7.7-11.4-3.5-5.1-11.2 9.1-.9 11.4 3.5zm2.1-179.7c29.1 31-17.1-1.9-14.9-10.4 5.5-1.4 10.1 7.7 14.9 10.4zm-35.3 47.5c26.9 27.1-19.4-3.7-16.3-13.4 6.1-1.1 11 10 16.3 13.4zM320.8 552c-3.2 8.4-26.8 31-31.4 30.4 10.4-9.7 19.2-20.6 31.4-30.4zm-24.4 63.7c27.1 25.4 58.3 56.9 83.4 84.3l-83.4-84.3zM590.8 431c-7.6-3.2.6-16 6.2-9.8 8.9 4.1.4 18.5-6.2 9.8zM376.3 554.8c2.6 2.1 14.9 14.6 4.9 11.2-11.1-6.2-27.4-32.3-4.9-11.2zm65.8 92.4c10.5-3.2 12.5 9.6 20.6 13.5 5.5 15-16.1-8.7-20.6-13.5zm-13-141.9c-.9 1.5-2.3.2-1.9-.8 1.1-.9 1.8-.5 1.9.8z"/><path d="M500.7 526.2c5-5 21.1-23.2 4-20-14.4 4.9-25.4 39.9-4 20z"/><path d="M491.1 528.2c12.1 12.3 29.2-7.5 17.9-18.7-12.1-11.3-29.6 6.8-17.9 18.7zm3.1-2.1c-9.8-9.3 3.1-22.4 12.4-15.7 9.5 8.9-2.4 24.5-12.4 15.7z"/><path d="M496.2 513.8c-4.8 2.4-22.6 24.5-6.5 21.5 21.9-7 44.1-55.1 6.5-21.5z"/><path d="M510.8 531.4c27.4-12.4 11.6-56.6-13.8-32.9-6.5 10.4-32.5 21.6-20.9 34.9 11.9 18.6 23.2 13.1 34.7-2zm-4.8-37.6c-2.5 13.7 15.4 16.7 17.4 21-14.6 14.1-30.1 44.2-46.1 15.7-4.1-13.8 20.9-24.3 28.7-36.7z"/><path d="M488.2 522.7c-6 27.8 45.1-20.7 16.4-14-5 4.6-10.3 8.9-16.4 14z"/><path d="M507.8 522.5c10.7-9.5-8.7-22.2-14.2-9.7-9.2 16.9 1.5 21.7 14.2 9.7zm-2.1-.7c-7.8 6.3-15.4-2.9-8.6-9.9 6.3-5.8 15.2 4 8.6 9.9z"/><path d="M492.1 528.6c23.6 5.9 23.4-34.7 1.9-15.7-.7 6-8.4 10.8-1.9 15.7zm3.5-4.4c.4-5.6-2.8-12.7 6.2-13.7 13.4 1.7 4.2 17-6.2 13.7z"/><path d="M494.2 525.3c17 16.3 25.1-37.7-2.3-9.4-6.2 5.6.2 6.7 2.3 9.4z"/></svg>