<?xml version="1.0" encoding="utf-8"?>
<!-- Generator: Adobe Illustrator 27.0.0, SVG Export Plug-In . SVG Version: 6.00 Build 0)  -->
<svg version="1.2" baseProfile="tiny" xmlns="http://www.w3.org/2000/svg" xmlns:xlink="http://www.w3.org/1999/xlink" x="0px"
	 y="0px" viewBox="0 0 1000 1000" overflow="visible" xml:space="preserve">
<g id="bg" display="none">
</g>
<g id="scans">
</g>
<g id="counters">
	<g>
		<g>
			<g id="veh_x5F_m3_00000104677200137547928800000005247063594350723513_">
				
					<rect id="_x35__x2F_8_x22__1000x1000_00000033329280290930710220000002057027376398284965_" fill="none" width="1000" height="1000"/>
				<g>
					<rect x="100" y="99.9" fill="none" width="800.1" height="300"/>
					<path d="M162,257.6l-37.9-148.9h34.3c14,68.4,20.3,98.8,22.1,115.2h0.2c5.7-27.4,20-79.2,28.7-115.2h28.9
						c7.7,28.6,22.7,86.4,27.6,113.6h0.2c4.9-32.8,19.6-90.5,24.8-113.6h31.3l-40.3,148.9h-33.4c-7.8-33-20.9-81.1-26.2-106.6h-0.2
						c-5.4,26.5-18.8,76.6-26.8,106.6H162z"/>
					<path d="M372.9,198v59.6h-31.5V108.6h65.4c32.5,0,50,17.9,50,40.9c0,20-10.9,30.8-21.6,35.2c7.4,2.7,18.5,10.4,18.5,37.1v7.4
						c0,10,0.1,21.4,2.1,28.4h-30.5c-2.6-6.5-3.1-17.6-3.1-33.4v-2.2c0-16.3-4.1-24-28.1-24H372.9z M372.9,172.3h27
						c17.6,0,24.4-6.7,24.4-19.2c0-12.1-7.9-18.9-23.7-18.9h-27.8V172.3z"/>
					<path d="M587.9,193.3h-71.2v37.8h78.6l-3.8,26.4h-106V108.6h105.6V135h-74.3v31.9h71.2V193.3z"/>
					<path d="M747.1,211.7c-6,27.8-26.9,48-64.2,48c-47.2,0-69.5-33.4-69.5-75.8c0-40.8,23-77.4,71.1-77.4
						c39.7,0,58.9,23.3,62.5,48.2h-32.2c-3.1-11.5-11.1-22.9-31.3-22.9c-26.6,0-36.8,23.9-36.8,51c0,25.2,8.9,51.7,37.7,51.7
						c21,0,27.6-14.1,30.5-22.8H747.1z"/>
					<path d="M771.9,108.6h31.8v66.5c9.8-11.5,40.5-45,59.3-66.5h38.6l-59.8,61.9l62,87h-38.6l-45.7-66.2l-15.7,15v51.1h-31.8V108.6
						z"/>
				</g>
			</g>
		</g>
		<g>
			<path d="M328.7,721.3c-5.4,5.4-10.7,10.7-16.1,16.1c-4.4,4.4-3.8,9.7,1.3,13.2c6.4,4.4,12.3,9.4,16.2,16.4c2,3.6,7.7,4,10.8,1
				c5.2-5,10.3-10.2,15.4-15.3c0.9-0.9,2-2.4,3.3-1.4c1.4,1,0.3,2.5-0.3,3.6c-3,5.1-6,10.2-9.3,15.1c-2.1,3.2-2,5.6,0.8,8.5
				c8.4,8.8,8.3,8.9,18.6,2.2c1.9-1.2,3.9-2.4,5.7-3.8c4-3.2,7.5-4.8,11.6,0.2c2.6,3.2,5.3,0.6,7.3-1.3c7-6.6,13.7-13.7,20.4-20.6
				c10-10.4,21.1-19.8,31-30.3c12.7-13.4,26.1-26.1,39.1-39.2c17.4-17.6,34.9-35,52.4-52.5c56.9-56.9,113.9-113.8,170.8-170.6
				c7.3-7.3,8.6-15.1,3.5-23.9c-1.9-3.4-4.8-5.7-8.9-6.5c-4.7-1-11.4-0.5-9-9c0.2-0.8-1.2-2.2-2-3.3c-1.1-1.4-2.4-2.8-0.6-4.4
				c1.7-1.6,3.2-0.4,4.5,0.9c5,5,10,10,14.9,15c1.3,1.4,2.8,2.6,4,4.1c3.2,4,6.2,3.3,9.5,0c5.6-5.7,11.3-11.3,17-16.9
				c2.4-2.3,3.4-4.9,3.3-8.2c-0.2-7.6-0.3-15.2-0.3-22.9c0-5.9-2.2-10.7-6.3-14.8c-21.7-21.7-43.4-43.4-65-65
				c-3.8-3.8-8.3-5.9-13.8-5.8c-1.7,0-3.5,0.3-5.1-0.1c-21.8-6.1-32.8,9.4-45.1,22.5c-2.5,2.6-0.6,4.5,1.1,6.3
				c5.8,5.8,11.6,11.6,17.3,17.4c1.1,1.1,2.1,2.2,3.2,3.3c1.1,1.3,1.6,2.7,0.1,4c-1.2,1.1-2.5,0.7-3.6-0.2c-2.2-1.8-3.5-4-7.6-2
				c-2.4,1.1-4.8-4.2-5.6-7.4c-2.6-10-3.8-9.9-12.8-12.9c-8.6-2.9-13,0.7-18.3,6c-48.9,48.9-98.6,96.9-147.1,146.2
				c-17,17.3-34.4,34.3-51.6,51.5c-18.2,18.1-35.9,36.7-54.6,54.2c-12.6,11.8-23.5,25.3-36.5,36.7c-8.3,7.3-15.8,15.2-23.2,23.3
				c-1.8,2-3.5,3.6-3,6.9c0.7,4-3.4,5.6-5.6,8c-6.5,6.9-6.1,10.6,2.2,15.7c1.6,1,2.9,2.4,4.3,3.8c11.8,11.6,24,22.9,35.2,35
				c3,3.3,5.3,7.1,9.4,9.5c3,1.8,5.2,1.7,7.5-0.8c2.7-2.9,5.5-5.6,8.3-8.3C327.8,720.3,328.3,720.8,328.7,721.3z M672.7,493.7
				C672.7,493.7,672.7,493.7,672.7,493.7c-3,2.9-5.9,5.9-8.9,8.9c-9.4,9.4-18.8,18.9-28.3,28.2c-1.2,1.1-2.7,4.4-4.7,1.1
				c-3-4.9-6.6-8.6-12-10.8c-1.6-0.6-5.3-3.3-2.4-4.8c5.5-3.1,3.9-10.7,9.7-13.2c0.9-0.4,1.5-2.3,1.4-3.6c-0.1-3.3,1.7-5.8,3.3-8.3
				c3-4.9,5.7-9.9,9-14.5c5.7-8.1,9.1-17.8,17.4-24.5c3.7-3,4.1-9.4,8.2-12.9c0.5-0.4,0.2-1.8,0.2-2.7c0-4.4,3.4-6.6,6.2-9
				c0.8-0.7,1.8-0.5,2.7,0.1c1,0.7,0.8,1.5,0.3,2.5c-1,1.9-3.5,4.4-1.5,6c2.1,1.5,4.3-1.3,6.5-2.5c1.3-0.7,3-1,4.1-1.9
				c5.8-5.2,9.6-1.2,13.5,2.6c3.7,3.6,7.3,7.2,10.9,10.9c5.2,5.3,5.2,7.7,0,12.9C696.4,470,684.6,481.9,672.7,493.7z M558.7,364.4
				c2.3,1.4,0.8,3.8,2.4,4.8c4.7,3.1,8.6,7.1,12,11.6c1.4,1.8,2.6,1.1,3.9,0.4c1.6-0.9,3-3.3,1.7-4.2c-5.3-3.9-8.6-9.9-13.9-13.5
				c-2.8-1.9-2.7-2.5-0.8-4.4c7.9-8,15.8-16,23.9-23.7c3.5-3.4,7.3-3.5,11,0.4c4.5,4.9,9.4,9.5,14,14.3c2.6,2.7,3.8,5.3,1.3,9
				c-2,2.9-2.4,6.7-4.9,9.5c-0.6,0.7-1.5,2-0.6,3.1c1,1.1,2.1,0.1,3.1-0.3c0.7-0.3,1.4-0.6,2-1.1c1.4-1.2,2.5-1.4,3.8,0.2
				c1.8,1.9,0.4,3-0.8,4.3c-1.9,2-4.2,3.8-6.8,4c-7.1,0.4-10.9,7.1-17.4,8.6c-0.8,0.2-1.4,1.2-2,2c-2,2.9-4.8,4.8-7.8,6.6
				c-9.8,5.9-19.5,11.9-29.3,17.8c-2.1,1.3-4.1,3.2-6.6,3.2c-7.1,0.1-10.8,6.6-16.8,9c-4.7,1.9-6.3,3.1-8.4-2.1
				c-1.6-4-4.2-7-7.4-9.2c-3.6-2.5-2.7-3.8-0.2-6.3c11.6-11.3,23-22.8,34.4-34.3C552.1,370.9,555.5,367.6,558.7,364.4z M560.3,463.3
				c-9.6-9.6-18.3-18.6-27.4-27.2c-3.5-3.3-3.2-5.1,0.8-7.5c17.8-10.7,35.3-21.9,53.2-32.3c6.4-3.7,11.6-10.7,20.5-9.4
				c0.2,0,0.5-0.8,0.7-1.3l6.7-5.4c0.5,0.2,1.1,0.3,1.5,0.7c4.6,4.2,9.2,8.3,13.6,14.1c-4.8-0.1-8.4,2-8.9,5.1
				c-0.7,5.3-4.4,7.9-7.7,10.7c-5.4,4.7-8.6,12.1-16.9,13.5c-1.9,0.3-4,2.7-4,5.1c0,2.7-1.6,4.1-3.2,5.7
				c-5.6,5.7-11.2,11.4-16.8,17.1c-0.9,0.9-1.7,2.3-3.2,2.1C563.7,453.7,561.8,457.3,560.3,463.3z M561.7,483
				c14.3,14.3,28.4,28.6,42.8,42.7c3.6,3.5,4,6.2,0.3,10c-4.5,4.6-8.7,9.6-12.6,14.7c-2.4,3.1-4.9,2.9-6-0.1
				c-1.9-5.4-6.6-7.3-10.2-10.7c-11.5-10.8-24.7-20.2-32.4-34.7c-1.2-2.3-3.1-4.5-6-4.8c-2.1-0.2-3.4-1.6-4.8-2.9
				c-8.9-8.9-17.8-17.7-26.6-26.6c-1.2-1.2-2.6-2.3-2.9-4.1c-0.9-4.4-3.6-6.6-7.9-7.8c-3.6-1-4.4-3.2-1-6c4.9-4,9.7-8,14.2-12.3
				c4-3.8,6.9-3.9,10.9,0.3C533.4,454.9,547.6,468.9,561.7,483z M582.1,485.1c5.1-1.1,8.8-2.6,9.3-7c0.3-3,1.8-5,3.8-6.7
				c7.8-6.3,12.5-16.3,23.5-18.9c3.7-0.9,2.5-6.5,4.6-8.5c7.1-6.7,11.7-16.6,22.5-19c1.3-0.3,3.1-1.6,3.4-2.8
				c2.5-8.7,5.5-3.2,8.3-0.4c1.5,1.5,3,2.9,4.4,4.5c3.6,3.8,3.5,6.3,0.7,5.7c-6.5-1.4,2.1,5.6-2.8,4.5c-0.4-0.1-0.8-0.2-1.1-0.1
				c-1.2,0.3-1.8,1.4-1,2.1c2.9,2.7,0,4.5-1,6.3c-4,6.7-8.2,13.3-12.3,19.9c-9.6,15.5-19.1,31.1-28.7,46.6c-1.1,1.9-2.2,5.3-5.4,2.1
				C601.2,504.2,592.1,495.1,582.1,485.1z M631.7,395.9c5.4,5.4,9.7,9.6,13.9,13.9c1.9,1.9,4.6,3.9-1,4.8c-2.6,0.4-4.9,2.7-4.9,5.6
				c-0.1,3.3-2,5.2-4,7.2c-4.1,4-7.5,9.2-12.3,11.8c-6.8,3.7-11.4,8.4-15.3,15.2c-3.6,6.2-10.1,10.7-15.4,15.9
				c-1.2,1.2-2.3,2.8-4.1,2.8c-5.7,0-7.8,3.5-8.6,9c-5.7-5.7-10.9-10.9-16.7-16.7c4.8-0.1,8.8-1.4,9-5.4c0.2-4.8,3.1-7.1,5.8-9.8
				c4-4.1,8.1-8.1,12.1-12.1c2-2,3.9-3.6,7.3-3.5c3.4,0.1,5.9-2.4,6.1-6.2c0-1.3-0.5-2.7,0.5-3.8c5.7-5.8,11.5-11.6,17.3-17.3
				c0.6-0.6,1.8-0.8,2.6-0.8C630.1,406.8,631.9,403.3,631.7,395.9z M332.2,712c-8.2-8.2-16.4-16.5-24.7-24.6
				c-2.6-2.5-2.8-4.5-0.1-7.1c4.4-4.2,8.7-8.6,13-12.9c1.7-1.7,3.2-1.8,4.9-0.1c4.6,4.8,9.7,8.9,12.9,15.1
				c4.5,8.8,11.7,15.8,19.9,20.8c6.5,3.9,11.9,8.7,17.2,13.8c3,2.8,3.4,5,0.1,7.9c-3.8,3.4-7.5,7.1-10.9,10.9c-3,3.3-5.3,3.3-8.4,0
				C348.2,727.8,340.1,720,332.2,712z M516.3,640.4c-0.2-6-2-10-7.8-10.3c-4.1-0.2-7,2.4-7.7,6.2c-1.2,6.9,3.9,8.7,9.8,9.8
				c-7.7,7.7-14.7,14.8-21.9,21.9c-9,8.9-6.8,9.1-16.5-0.1c-3.4-3.3-3.3-5.5,0.1-8.8c12.2-11.7,24.3-23.5,36.3-35.5
				c5.1-5.1,9.6-10.8,15.2-15.4c8.9-7.2,8.8-7.2,16.4,1.7c2.2,2.6,2.2,4.5-0.2,6.8C532.3,624.4,524.6,632.1,516.3,640.4z
				 M263.4,666.1c6.2-6.2,6.2-6.2,12.3,0c5,5,9.8,10.1,15,14.9c3.4,3.2,3.7,5.7,0.1,8.8c-1.6,1.3-4.3,3.1-1.8,5.6
				c2.6,2.5,4-0.7,5.4-2.1c2.4-2.2,4.4-4.2,7.5-0.9c7,7.2,14.2,14.3,21.3,21.4c1.2,1.2,2.8,2.6,1.6,4.4c-2.3,3.5-5.4,6.3-8.7,8.9
				c-1.2,1-2.5,0.4-3.6-0.7c-1-1-1.5-2.2-0.7-3.6c0.6-1,1.5-1.8,2.1-2.7c0.8-1.2,2.1-2.7,0.9-4.1c-1.4-1.6-3-0.1-3.9,0.9
				c-3.4,3.6-5.9,2.3-8.9-0.8c-11.4-11.7-23-23.2-34.7-34.7c-2.9-2.8-3.6-5.1-0.2-7.9c1.1-0.9,2.7-2.4,1.5-3.8
				c-1.4-1.6-2.6,0.2-3.8,0.9c-1.6,1-3,4.3-5,2.2c-2.3-2.4,1.3-3.7,2.4-5.4C262.5,666.8,263,666.5,263.4,666.1z M505.1,565
				c9.7-7,16.8-15.3,23.8-23.8c2.3-2.8,2.8-5.2,0-7.9c-5.7-5.6-11.4-11.2-17-16.9c-2.7-2.7-5.3-2.7-8-0.4
				c-7.7,6.4-16.1,12.2-21.6,20.9c-0.6,1-1,3-2.8,1.6c-1.4-1-0.5-2.4,0.4-3.5c0.9-1,1.8-1.9,2.7-2.9c10.2-10.5,20.9-20.5,30.7-31.4
				c2-2.2,2.2-3.4-0.1-5.5c-5.6-5.2-10.9-10.6-16.2-16.1c-1.1-1.2-3-2.5-1.5-4.3c1.6-1.9,3.2-0.2,4.3,0.9
				c16.4,16.4,32.9,32.8,49.3,49.2c1.2,1.2,2.7,2.5,0.7,4.3c-2.7,2.5-2.6,5.8-2.5,9.5c-7.1-6.6-7.1-6.6-13.5-0.3
				c-7.7,7.7-15.3,15.4-23,23C509.5,563.1,508.4,565.1,505.1,565z M441.9,531.6c3.9,3.9,7.8,7.8,11.7,11.7c10,10.1,9.8,7.3-0.4,18
				c-3.1,3.2-5.3,3.2-8.4,0c-9-9.3-18.3-18.3-27.3-27.5c-10.6-10.8-10.9-7.4,0.4-19.2c2.6-2.6,4.6-2.6,7.1,0
				C430.6,520.4,436.3,526,441.9,531.6z M416.4,740.2c0.4-3.7-2.1-5.4-3.9-7.5c-3.3-4.1-6.6-4.6-10.3-0.4c-2.9,3.3-6.1,6.3-9.3,9.3
				c-3.3,3.1-3.7,5.9-0.1,9c2.3,2,4.3,4.2,6.4,6.3c-5.2-4.1-9.8-8.7-14.5-13.4c-2-2-1.1-3.8,0.6-5.4c10.3-10.1,20-20.8,31.1-30.1
				c1.9-1.6,3.2-1.5,4.8,0.1c2.9,3,5.9,5.9,8.9,8.8c1.6,1.6,3.2,2.5,5.5,1.1c7.7-4.6,8.4-8.6,2.2-14.8c-1.2-1.2-2.4-2.4-3.6-3.6
				c-2.1-2.1-3.4-4.1-0.7-6.7c2.5-2.4,5-2.8,7.5-0.4c2.6,2.5,5.1,5.1,7.8,7.6c2.9,2.6,2.9,4.7,0.1,7.5
				C438.1,718.3,427.4,729.1,416.4,740.2z M288.5,647.3c9.9,7.5,9.9,7.5,18.9-1.5c0.7-0.7,1.3-1.3,2-2c6.6-6.7,6.7-6.7,0.4-13.6
				c-2-2.2-3.4-4.1-0.8-6.8c9.6-9.5,19.1-19.1,28.7-28.7c1.3-1.3,2.9-2.4,4.5-1c3.9,3.3,7.9,6.6,10.6,11.1c1.4,2.5,0.3,4.7-1.8,6.6
				c-2.4,2.2-4.1,0.7-5.8-1c-1.2-1.2-2.4-2.4-3.6-3.6c-6.8-6.8-8-6.6-14.2,0.8c-2.1,2.6-2.1,4.6,0.3,6.8c2.8,2.6,5.3,5.4,8.1,8.1
				c2,2,2.1,3.8,0.1,5.9c-10.1,10.1-20.1,20.2-30.1,30.4c-2,2.1-3.9,1.8-5.9-0.2C296.1,654.8,292.3,651.1,288.5,647.3z M349.6,693
				c-2.6-2.8-5.4-5.4-7.6-8.5c-4.5-6.1-6.7-12.9-4.5-20.4c0.8-2.9,1.9-6.5,5.3-6.8c3.2-0.3,5.6,2.8,6.7,5.5
				c6.3,14.5,16.2,25.1,31.4,30.4c2.7,0.9,3.7,3.5,4.2,5.7c0.5,2.6-2,4-3.9,5c-5.2,2.8-10.6,2.4-16.1,0.5
				C358.7,702.2,354.2,697.6,349.6,693z M337,768.2c-0.2-3.2,1.3-3.8,2-4.9c0.9-1.4,2.8-2.8,1.3-4.4c-1.6-1.7-3.2,0.2-4.3,1.3
				c-3.4,3.1-5.9,2-8.6-1c-2.4-2.7-5-5.2-7.6-7.7c-1.9-1.9-2.2-3.7-0.3-5.9c1.3-1.4,3.9-3.1,2.1-5.1c-1.6-1.7-3.2,1.1-4.9,1.7
				c-0.3,0.1-0.6,0.4-1,0.6c-1,0.6-2.1,1.6-3,0.4c-0.9-1.1,0.1-2.1,0.9-2.9c4.8-4.9,9.6-9.7,14.3-14.7c2.7-2.9,5-2.6,7.6,0.2
				c4.4,4.7,8.9,9.4,13.7,13.6c4.5,3.9,5.7,7.3,0.4,11.3c-0.7,0.5-1.5,1.5-1.5,2.3C347.7,760.1,341.5,762.7,337,768.2z M627.2,336.5
				c-2.4-2.4-4.8-4.9-7.3-7.3c-2.4-2.3-2.6-4.4-0.1-6.8c4.4-4.2,8.6-8.6,13-12.9c2.5-2.5,5-2.4,7.5,0c2.9,2.8,5.7,5.6,8.5,8.5
				c10.3,10.6,10.7,7.8,0.2,18.5C638.2,347.5,638.1,347.5,627.2,336.5z M382.2,659.3c4-4.3,1.5-7.1-1.2-9.7
				c-2.1-2.1-3.5-4.1-0.8-6.7c4.2-4.1,8.4-8.3,12.5-12.5c2-2,3.9-2.1,5.9-0.1c5.1,5.1,10.2,10.2,15.4,15.3c2.2,2.2,2.2,4.2-0.1,6.3
				c-3.5,3.4-7.7,6.5-10.3,10.6c-4.1,6.3-9.2-1.1-13.2,1.8c-0.3,0.2-0.6,0.2-1,0.4c-0.1-0.4-0.2-0.7-0.2-1.1
				C389.4,659.1,386.2,659.1,382.2,659.3z M708.5,396.7c9.5-9.5,9.5-9.5,18.9-0.1c0.8,0.8,1.6,1.6,2.4,2.4c9.2,9.3,9.3,9.4-0.1,18.6
				c-12.5,12.3-9.1,12.3-21.4,0.1C696.4,405.7,696.5,409,708.5,396.7z M474.4,547.2c0.3,0.2,0.5,0.4,0.8,0.5c-4.7,4.7-9.2,9.4-14,14
				c-3.7,3.5-3.6,6.4,0.1,10c12.1,11.8,24,23.8,35.9,35.9c9.9,10.1,11.1,7-0.8,18.8c-0.1,0.1-0.3,0.3-0.4,0.4c-1,0.8-2.1,2-3.5,0.8
				c-1.4-1.1-1.6-2.9-0.4-4.1c4.1-4.2,1.5-6.9-1.6-10c-12.6-12.4-25-25-37.5-37.5c-1.8-1.8-4.4-3.3-1.2-6.4
				C459.5,562.3,466.9,554.7,474.4,547.2z M398.5,533.9c0.8,5.8,2.5,9.4,7.2,10.1c3.8,0.5,6.6-1.2,8.3-4.6c0.5-1,0.4-2.9,2.4-2.5
				c0.4,0.1,0.9,0.7,1.1,1.2c0.7,1.5-0.3,2.5-1.3,3.4c-9.3,9.1-19.1,17.8-28.2,27.1c-8.2,8.4-8.5,8-16.4-1.3c-2-2.3-2.2-4.2,0-6.4
				C380.2,552.2,388.9,543.5,398.5,533.9z M458.5,585.3C458.5,585.3,458.5,585.3,458.5,585.3c4.9,4.8,9.7,9.6,14.5,14.5
				c1.4,1.5,4.2,3,1.8,5.6c-1.9,2.1-4.1,0.6-5.5-0.8c-3.9-3.7-6.9-3.1-9.7,1.2c-2.2,3.4-4.6,3.3-7.4,0.5
				c-5.2-5.3-10.6-10.4-15.9-15.5c-2.2-2.1-2.2-3.8,0.4-5.4c5.1-3.2,6.8-6.9,2-11.9c-1.3-1.3-2.1-3.4,0-5c1.9-1.4,3.2,0.2,4.4,1.3
				C448.3,575.1,453.4,580.2,458.5,585.3z M530.4,565.8c-3.2-3-1.9-5.3,0.8-7.1c4.5-2.9,8.2-6.7,11.2-11.1c2.3-3.4,5.1-3.6,7.2-0.3
				c3.5,5.3,7.9,9.6,13.2,13.1c2.8,1.9,3.5,4.4,0.1,6.8c-4.8,3.4-9.1,7.4-12.3,12.5c-1.7,2.7-4.3,2.8-6.1,0.2
				C540.8,574.1,536.1,569.3,530.4,565.8z M490.7,490.2c2.5,1.8,5,3.5,7.4,5.4c3.1,2.4,3.5,5.1,0.1,7.4c-4.7,3.1-8.5,6.9-11.6,11.6
				c-2.2,3.4-5,3.3-7.3-0.1c-3.4-5.1-7.6-9.4-12.8-12.8c-3.2-2.1-3.8-4.8-0.1-7.1c4.8-3,8.6-6.8,11.6-11.5c2.4-3.7,4.8-3.1,7.2-0.1
				C487.2,485.2,488.9,487.7,490.7,490.2z M460.3,640.2c-2.4-4.5-6.9-8.3-11.6-11.9c-2.9-2.2-3-4.9,0.2-6.9
				c5.2-3.4,9.3-7.8,12.8-12.8c2.1-3.1,4.9-3,7,0.1c3.2,4.6,7.1,8.4,11.7,11.6c3.2,2.2,3.5,5,0.1,7.3c-5.1,3.5-9.4,7.7-12.8,12.8
				C465.6,643,463.3,643.7,460.3,640.2z M404.9,584.5c-4.6-4.2-4.6-6.2-0.2-9.1c4.5-3,8.2-6.7,11.2-11.2c2.7-4.1,5.1-4.2,7.9-0.2
				c3,4.2,6.5,7.9,10.8,10.8c3.9,2.6,3.8,5.6,0,8.1c-4.9,3.2-8.8,7.1-12,12c-2.3,3.5-5.2,3.7-7.7,0
				C412.1,590.5,409,586.4,404.9,584.5z M513.8,550.6c-3.6,4.8-6.4,4.8-8.8,0.9c-3-4.8-6.8-8.5-11.5-11.6c-3.8-2.5-4.2-5.4-0.3-8
				c4.4-2.9,7.9-6.4,10.8-10.7c2.7-4.1,5.2-4,8-0.1c3.3,4.7,7.2,8.8,12,12c3.9,2.6,3.8,5.5,0,8C519.5,543.9,515.4,547,513.8,550.6z
				 M627.4,536.5c0.3,0.3,0.7,0.6,1,1c-21.8,21.8-43.7,43.7-65.5,65.5c3.1-6,6.6-11.8,10.2-17.5c7.9-12.3,14.5-25.4,23.8-36.8
				c3.9-4.8,6.1-4.3,9.5-0.2c2.9,3.5,5.8,3.6,9.1,0.1C619.2,544.4,623.4,540.5,627.4,536.5z M430.6,613.5
				C430.6,613.5,430.6,613.5,430.6,613.5c-2.7-2.7-5.4-5.4-8-8.1c-1.2-1.2-2.6-2.4-0.8-4.3c2.5-2.8,5-5.7,7.4-8.6
				c1.9-2.2,3.8-2.1,5.8-0.1c5.5,5.5,11,11,16.5,16.5c2.1,2.1,1.8,3.8-0.2,5.8c-9,9.7-9.6,9.8-18.7,0.7
				C432,614.8,431.3,614.2,430.6,613.5z M391.8,537.1C391.8,537.1,391.8,537.1,391.8,537.1c-12.3,12.2-24.6,24.5-36.8,36.7
				c-1.2,1.2-2.5,2.4-3.8,3.5c-0.8,0.6-1.8,0.9-2.6,0.1c-1.1-0.9-0.8-2.1-0.1-3c0.7-0.9,1.5-1.7,2.3-2.6c25.1-25,50.2-50,75.3-75
				c0.7-0.7,1.3-1.4,2.1-2c1-0.9,2.2-1.9,3.5-0.5c1.2,1.3,0.2,2.5-0.7,3.5c-1,1.2-2.1,2.2-3.2,3.3
				C415.8,513.2,403.8,525.1,391.8,537.1z M510.2,656.2C510.2,656.2,510.1,656.2,510.2,656.2c-12.3,12.2-24.5,24.5-36.9,36.7
				c-1.6,1.6-3.5,5.3-5.7,3.2c-2.7-2.6,1.3-4.5,2.9-6.1c24.8-25,49.8-49.9,74.7-74.7c0.8-0.8,1.7-1.6,2.6-2.2
				c0.8-0.6,1.8-0.7,2.6,0.1c0.8,0.8,0.6,1.8,0,2.6c-1,1.2-2,2.3-3.1,3.4C535,631.4,522.6,643.8,510.2,656.2z M520.2,437.5
				c2.3-1.9,4.4-4.2,5.5-3c3.2,3.4,8.8,4,10.7,8.5c2.8,6.9,12.1,7.9,13.6,15.7c8.2,1.8,10.1,10.7,16.7,14.7
				c6,3.7,10.1,10.1,14.9,15.3c4,4.3,9.8,7,12.4,12.1c3.4,6.6,11.6,8.2,14.1,15.9c1.3,3.9,2.9,3.9-1.7,7c0.2-3.5-1.3-5.9-3.5-8.1
				c-24.9-24.8-49.8-49.7-74.7-74.7C526.2,439.1,524.2,437.5,520.2,437.5z M363,679.9c-4.2-5.5-8.6-10.8-10.8-17.4
				c-1.3-3.6,0.2-6.4,3.6-7c6-1.1,14.1,8,12.9,14c-1.3,6.4,3.6,11,9.9,9.7c2.6-0.5,6.5-0.1,7.3,2.2c0.8,2.1,3.4,4.9,0.7,7.9
				c-2.5,2.6-5,1.8-7.8,0.7C372.8,687.7,368,683.7,363,679.9z M371.7,762c1.5,1.5,2.9,3,4.5,4.4c3.1,2.8,3.6,5.1-0.6,7.4
				c-3.8,2.2-7.4,4.7-11,7.1c-1.5,1-2.7,1.8-4.7,0.9c-6.9-3.5-8.6-9.1-4.6-15.9c0.4-0.7,0.7-1.3,1.1-2
				C364.6,750.6,362.6,753.5,371.7,762z M556.4,582.6C556.4,582.6,556.4,582.6,556.4,582.6c-3.9,3.9-7.8,7.8-11.7,11.7
				c-3.4,3.4-6.8,3.5-10.4-0.1c-6.6-6.8-13.5-13.5-20.2-20.2c-4.3-4.3-4.3-7,0.2-11.6c6.8-7,13.7-13.8,20.5-20.7
				c1.3-1.3,2.6-2.9,4.6-3.1c1.5-0.1,3.2-0.4,4,1.3c0.7,1.6-0.7,2.4-1.7,3.2c-7,5.4-12.8,12-18.9,18.2c-7.8,7.9-7.7,12.3,0,20.2
				c3.2,3.3,6.5,6.4,9.9,9.5c3.5,3.2,6.5,3.9,10.9,0.5c4.3-3.5,8.5-7,12.4-10.9c3.5-3.5,7.1-6.9,9.8-11.1c0.9-1.3,2.3-3.8,3.8-2.5
				c2.1,1.9-0.8,3.2-1.9,4.4C564.1,575.1,560.2,578.8,556.4,582.6z M492.2,430.8c-0.4,5.1,3.5,6.9,6.1,9.5c2.3,2.4,3,3.8-0.2,6.1
				c-6.2,4.7-12.5,9.1-19.1,13.2c-3.7,2.3-5.9,0.8-8.3-1.8c-2.6-2.8-0.9-4.7,1.1-6.7C478.3,444.6,484.9,438.1,492.2,430.8z
				 M305.2,623.7C305.2,623.7,305.1,623.6,305.2,623.7c-10.3,10.1-20.6,20.4-30.8,30.6c-1.1,1.1-2.4,3.1-4.2,1.5
				c-1.8-1.6,0.1-3,1.1-4.3c0.5-0.6,1-1.1,1.6-1.6c19.4-19.4,38.8-38.8,58.2-58.2c0.7-0.7,1.3-1.4,2.1-2c1.2-1,2.4-2.3,3.9-0.7
				c1.2,1.3,0.1,2.5-0.8,3.5c-1,1.1-2.1,2.2-3.2,3.3C323.8,605.1,314.5,614.4,305.2,623.7z M423.9,742.4
				c-10.1,10.1-20.2,20.2-30.3,30.3c-1.2,1.2-2.6,3.7-4.6,1.9c-2-1.8,0.2-3.4,1.5-4.7c20.1-20.1,40.1-40.1,60.3-60.1
				c1.3-1.3,3-4.2,5-1.8c1.9,2.2-1.1,3.6-2.4,5C443.6,722.8,433.7,732.6,423.9,742.4z M666.1,379.8c-6.5-6.5-12.9-12.9-19.3-19.4
				c-1.4-1.5-3.4-3-1.2-5.3c2.2-2.4,3.6-0.2,5.2,1.1c13.6,11.8,25.3,25.6,38.5,37.8c1.7,1.5,2.5,3.3,0.5,5.4
				c-2.4,2.5-3.7,0.2-5.1-1.2C678.4,392.2,672.3,386,666.1,379.8z M545.3,609.2c-0.3,0.2-0.5,0.5-0.8,0.7
				c-36.6-36.6-73.2-73.2-109.8-109.8c0.2-0.2,0.5-0.5,0.7-0.7C472,536,508.6,572.6,545.3,609.2z M425.4,675.6
				c0.1,0.1,0.2,0.2,0.3,0.3c5.5-5.5,11-11,16.5-16.5c1.2-1.1,2.7-1.8,4-0.3c1.2,1.3,0.4,2.5-0.6,3.5c-10,10.5-20,21.1-30.1,31.6
				c-1.4,1.4-3,2.6-4.9,0.8c-2.2-2.1-0.9-3.7,0.7-5.3C416,684.9,420.7,680.3,425.4,675.6z M512.6,584c0.4,0.3,0.7,0.7,1.1,1
				c-4.4,4.4-8.6,8.9-13.2,13.1c-4.7,4.3-1.3,6.8,1.6,9.8c2.9,3,5.4,5.3,9.3,1.1c4-4.3,8-8.9,13.3-11.9c-4.6,5.4-9.6,10.5-14.6,15.5
				c-1.8,1.8-3.5,0.7-5-0.7c-14-14-28-28-42.1-42c-2.2-2.2-2.3-4.1,0-6.3c4.5-4.4,8.9-8.9,13.4-13.3c-3.7,4.7-7.9,8.8-12,13
				c-1.3,1.4-2.6,2.7-1.5,5c3.4,7.4,9.2,8.6,14.7,3.1c3.7-3.7,7.4-7.4,11.2-11.2c0.4,0.5,0.9,0.9,1.3,1.4
				c-4.1,4.1-8.1,8.4-12.4,12.3c-4,3.6-3.6,6.3,0.1,9.9c3.5,3.4,6.3,6,10.7,1.1c3.9-4.4,8.3-8.4,12.5-12.6c-3.4,5.1-7.6,9.5-12,13.6
				c-4.7,4.3-1.8,7,1.3,10.3c3.2,3.4,5.7,4.4,9.4,0.5C503.6,592.1,507.6,587.5,512.6,584z M412.1,598.8c5,5,10,9.9,14.9,15
				c1.4,1.4,2.9,2.9,0.8,4.8c-1.7,1.5-3.2,0.4-4.5-0.8c-9.9-9.8-19.7-19.6-29.5-29.4c-1.4-1.4-2.7-3.2-0.7-4.9
				c2-1.8,3.5-0.1,4.8,1.3C402.7,589.3,407.4,594,412.1,598.8z M380.5,591.8C380.5,591.8,380.5,591.8,380.5,591.8
				c-4.8,4.9-9.6,9.7-14.5,14.5c-1.4,1.4-3,3.7-5.2,1.6c-2.2-2.1,0-3.8,1.4-5.2c9.5-9.5,19.1-18.9,28.7-28.4
				c1.3-1.3,2.8-3.3,4.7-1.4c2.3,2.2-0.1,3.7-1.5,5.1C389.6,582.7,385,587.2,380.5,591.8z M700.8,383.3
				C700.8,383.3,700.8,383.3,700.8,383.3c-1.9,1.8-3.8,3.7-5.6,5.6c-2.6,2.6-4.7,1.2-6.8-0.8c-2.2-2.2-3.9-4.3-1-7.2
				c3.2-3.2,6.5-6.3,9.6-9.7c2.8-3.1,5.2-3.6,8.5-0.3c3.4,3.4,2.4,5.8-0.6,8.4C703.4,380.5,702.1,382,700.8,383.3z M369.3,617.7
				c-4.7,4.7-9.3,9.4-14.1,14c-1.5,1.5-3.2,4.3-5.6,1.9c-2.5-2.4,0.3-4,1.8-5.6c9.2-10.1,19.8-18.6,29.6-28.2c1.2-1.1,2.6-3,4.3-1.4
				c2,2-0.3,3.4-1.5,4.6C379,608.1,374.2,612.9,369.3,617.7z M483.3,464.6c-2.5,1.5-5.1,3-7.7,4.6c-12,7.4-24,14.8-36,22.1
				c-1.7,1-4,3.1-5.4,0.5c-1.4-2.6,1.9-3.2,3.4-4.2c5.1-3.3,10.3-6.4,15.5-9.6c8.9-5.5,17.8-10.9,26.8-16.3c1.2-0.7,2.6-2,4.1-0.6
				C485.5,462.4,484.4,463.5,483.3,464.6z M465.7,676.6C465.7,676.6,465.7,676.6,465.7,676.6c1.3,1.4,2.6,2.8,4,4
				c3.1,2.8,1.6,5.1-0.9,7c-2.4,1.9-4.1,6.5-8.2,2.6c-2.6-2.5-5.3-4.9-7.2-8c-2.9-4.6-0.1-7.5,2.9-10.2c3.3-3,5,0.5,7,2.2
				C464.2,674.9,464.9,675.8,465.7,676.6z M367.9,578.8c0.8,0.8,1.6,1.6,2.4,2.4c4.6,4.6,3.6,8.6-2.6,10.6
				c-3.9,1.3-14.9-6.8-14.8-10.8c0-0.4,0.1-0.7,0.3-1.1c2.1-6.3,8.1-7.8,12.8-3.1C366.6,577.4,367.2,578.1,367.9,578.8z M555.9,609
				c-0.8,1-1.4,2.7-3,1.5c-1.8-1.4-0.9-3,0-4.6c5.7-9.4,11.5-18.9,17.2-28.3c3.3-5.4,6.6-10.7,9.9-16c0.7-1.1,1.7-2.3,3.3-1.4
				c1.5,0.9,0.9,2.3,0.2,3.5c-1.6,2.6-3.2,5.2-4.8,7.8C571.1,584,563.5,596.5,555.9,609z M452.3,664.6
				C452.3,664.6,452.3,664.6,452.3,664.6c5.1-5.1,10.2-10.2,15.4-15.3c1.1-1.1,2.6-1.9,4-0.4c1.4,1.4,0.1,2.4-0.8,3.3
				c-10.1,9.8-18.6,21-29.2,30.4c-1.4,1.2-2.8,3.3-4.8,1.4c-2.3-2.1-0.1-3.8,1.3-5.2C442.8,674,447.5,669.3,452.3,664.6z
				 M645.6,399.8c-5.4-5.4-10.8-10.7-16.1-16.2c-1.1-1.1-3-2.6-1.1-4.2c1.5-1.3,2.8,0.4,3.8,1.4c10.8,10.7,21.5,21.5,32.3,32.3
				c1.1,1.2,2.9,2.7,1.1,4.3c-1.5,1.4-2.8-0.4-3.8-1.4C656.4,410.6,651,405.2,645.6,399.8z M723.6,370.5c-2.7,0.9-3.7-1.4-5.1-2.7
				c-14.1-13.9-28-28-42-42c-0.5-0.5-1.1-1.1-1.6-1.6c-0.7-0.8-1.9-1.8-0.9-2.9c1-1.2,2-0.2,2.9,0.6c0.6,0.5,1.1,1,1.6,1.6
				c14.1,14.1,28.3,28.3,42.4,42.4C722.1,367.1,724.1,368.1,723.6,370.5z M700.8,352C700.8,352,700.7,352,700.8,352
				c5.2,5.3,10.5,10.5,15.7,15.8c1.1,1.1,2,2.6,0.6,4c-1.4,1.4-2.5,0.1-3.3-0.8c-10.5-10.5-21-21-31.5-31.5
				c-1.3-1.3-2.4-2.9-0.6-4.4c1.7-1.3,2.7,0.6,3.7,1.5C690.6,341.7,695.7,346.9,700.8,352z M413.2,630.6
				C413.2,630.6,413.1,630.6,413.2,630.6c3.1,3.1,6.1,6.2,9.3,9.3c1.7,1.6,1.8,3.2,0.1,4.9c-1.6,1.6-2.9,1.3-4.4-0.2
				c-6.2-6.2-12.4-12.4-18.5-18.6c-1.5-1.5-2.4-3.1-0.7-4.9c2-2.2,3.7-0.9,5.3,0.7C407.2,624.7,410.2,627.6,413.2,630.6z
				 M677.1,365.4C677.1,365.4,677.2,365.4,677.1,365.4c-2-2-4-4.1-6-6.1c-2.3-2.3-1.5-4.3,0.6-6.3c2.1-2,3.9-1.8,5.9,0.1
				c3.7,3.8,7.5,7.5,11.3,11.3c2.1,2.1,2.5,4,0.2,6.3c-2.4,2.5-4.5,2.3-6.8-0.1C680.7,368.8,678.9,367.1,677.1,365.4z M428.4,515.6
				c-1-2.3-5.8-3.2-3.7-7.4c3-6,7-6.6,11.8-1.9c1.5,1.5,2.9,3,4.4,4.4c1.9,1.9,2.1,3.6,0.3,5.9C436.5,522.3,435.1,522.3,428.4,515.6
				z M568.5,574c0.2,0.3,0.5,0.5,0.7,0.8c-5.8,9.5-11.7,19.1-17.6,28.6c-1.3,2-2.2,5.6-5.8,2.3c-2.6-2.4-4.6-4.6-1.1-8
				C552.8,589.8,560.6,581.9,568.5,574z M642.6,362.5c2.3-0.7,3.4,1.2,4.7,2.5c11.6,11.6,23.3,23.1,34.7,34.8c2.3,2.4,4.4,4.7,8,5.2
				c-4.4,2.8-7.2-0.4-9.6-2.8c-12.3-12-24.3-24.2-36.4-36.3C643.1,365.1,641.8,364.2,642.6,362.5z M453.2,540.4
				C453.2,540.4,453.2,540.4,453.2,540.4c-2.7-2.7-5.4-5.4-8.1-8.1c-1.6-1.6-2.8-3.3-0.6-5.3c1.9-1.8,3.5-0.6,4.9,0.8
				c5.5,5.5,11,11,16.6,16.6c1.5,1.5,2.5,3,0.6,4.9c-1.8,1.8-3.4,1.1-4.9-0.4C458.8,546,456,543.2,453.2,540.4z M675.2,367.1
				c2,2,4,4,6,6c1.8,1.8,1.9,3.6,0,5.4c-1.8,1.8-3.7,1.8-5.4,0c-4-4-8.1-8-12.1-12.1c-1.8-1.8-1.8-3.6,0-5.4c1.9-1.9,3.6-1.8,5.4,0
				C671.2,363,673.2,365.1,675.2,367.1z M440.9,482.8c-0.1-0.1-0.2-0.3-0.3-0.4c7.5-7.5,15-14.9,22.4-22.5c2.7-2.7,4.6-1.5,6.6,0.8
				c1.9,2.1,1.5,3.7-0.8,5.1C459.5,471.5,450.2,477.1,440.9,482.8z M651.5,393.3C651.6,393.2,651.6,393.2,651.5,393.3
				c5.7,5.6,11.3,11.3,16.9,16.9c0.9,0.9,2.5,2.1,1.4,3.3c-1.5,1.8-2.7-0.3-3.6-1.2c-8.8-8.7-17.5-17.5-26.2-26.2
				c-2.4-2.4-4.9-4.8-7.2-7.3c-0.9-0.9-2.1-2.2-0.6-3.3c1.2-0.9,2,0.6,2.7,1.3C640.5,382.2,646,387.7,651.5,393.3z M467.2,513
				c2.4,2.4,4.9,4.8,7.2,7.2c1.1,1.2,3,2.3,1.2,4.2c-1.6,1.8-3.7,2.1-5.5,0.3c-5-4.9-10-9.8-14.8-14.9c-1.4-1.5-1.7-3.5,0.2-5
				c1.8-1.5,3.2-0.4,4.4,0.9C462.4,508.2,464.8,510.6,467.2,513z M532.3,578.1C532.3,578.2,532.3,578.2,532.3,578.1
				c2.4,2.4,4.8,4.8,7.2,7.3c1.2,1.2,2.5,2.6,1,4.4c-1.5,1.9-3.4,1.7-5,0.3c-5.3-4.6-10.4-9.4-14.8-14.9c-1.3-1.6-1.6-3.5,0.3-5
				c1.8-1.4,3.2-0.2,4.5,1C527.8,573.6,530.1,575.9,532.3,578.1z M356.2,741.6c-18-18-36-36-54-54
				C321.8,704.1,339.1,722.7,356.2,741.6z M638.7,367.7c6.6,2.1,38.4,34.5,38.7,38.7C664.7,393.7,652.2,381.1,638.7,367.7z
				 M636.1,372c1.3-0.7,2.2,0,3,0.8c11.1,11,22.1,22.1,33.1,33.1c0.9,0.9,2.4,2.2,1.2,3.3c-1.5,1.4-2.7-0.4-3.7-1.4
				c-10.7-10.6-21.3-21.3-31.9-32C636.8,374.9,635.3,373.9,636.1,372z M383.1,636.2C383.1,636.2,383.1,636.2,383.1,636.2
				c-1.8,1.7-3.5,3.4-5.3,5.1c-1.7,1.6-3.3,1.5-5-0.1c-1.8-1.7-2.1-3.5-0.3-5.4c3.6-3.6,7.2-7.2,10.8-10.8c1.6-1.6,3.3-1.4,5,0.2
				c1.8,1.7,2.2,3.5,0.3,5.4C386.9,632.5,385,634.4,383.1,636.2z M463.8,485C463.8,485,463.8,485,463.8,485c3.5-3.5,7-7,10.5-10.5
				c1.2-1.2,2.7-1.7,4-0.3c1.4,1.5,0.7,2.8-0.6,3.9c-1,0.9-2.1,1.7-3.1,2.5c-6.6,5.2-12.2,11.4-18,17.5c-1,1-1,4-3.5,1.8
				c-1.9-1.7-1-3.4,0.5-4.9C457,491.7,460.4,488.4,463.8,485z M441.6,525.6c6.6-7.5,6.6-7.5,13.5-0.7c5.4,5.4,10.8,10.7,16.1,16.1
				c1.2,1.2,3.5,2.7,1.3,4.6c-1.9,1.6-3.1-0.6-4.2-1.7c-5.9-5.9-11.8-11.8-17.7-17.8C447.8,523.3,445,521.2,441.6,525.6z
				 M298.5,637.6C298.5,637.6,298.5,637.6,298.5,637.6c1-1.1,2.2-2.1,3.2-3.2c2.1-2.2,4-3.2,6.7-0.6c2.6,2.7,1.4,4.7-0.7,6.7
				c-2.4,2.4-4.8,4.8-7.3,7.2c-2.2,2.2-4,1.1-5.8-0.7c-1.8-1.8-2-3.5-0.1-5.4C295.8,640.3,297.2,638.9,298.5,637.6z M736.7,375.5
				c-0.3,0.3-0.5,0.5-0.8,0.8c-17.5-17.5-34.9-34.9-52.4-52.4c0.3-0.3,0.5-0.5,0.8-0.8C701.8,340.6,719.3,358.1,736.7,375.5z
				 M689.4,352.2C689.4,352.2,689.4,352.2,689.4,352.2c1.9,1.8,3.8,3.7,5.7,5.6c1.6,1.7,3.5,3.4,1,5.7c-2.4,2.2-4.2,0.4-5.8-1.2
				c-3.8-3.7-7.5-7.5-11.3-11.2c-1.5-1.5-2.5-2.9-0.5-4.8c1.6-1.6,3.3-1.9,5-0.2C685.3,348.2,687.3,350.2,689.4,352.2z M401,695.9
				c-3.7,5.6-8.7,10.2-12.6,15.6c-4.4,6.1-5.9,5.8-11.3,0.1c-2-2.1-2-2.6,1-4.1C385.6,703.7,394.9,703,401,695.9z M392.6,567.6
				c5-5,9.8-9.8,14.6-14.6c1.6-1.5,3.3-2.8,5.3-0.7c2,2.2,0.5,3.8-1,5.3c-2.8,2.8-5.8,5.5-8.4,8.5
				C400.2,569.8,397,570.8,392.6,567.6z M360.4,641c0.4-1.5,0.3-2.4,0.8-2.9c10.1-10.2,20.3-20.4,30.5-30.6c0.7-0.7,1.7-1.4,2.5-0.6
				c1.4,1.5-0.3,2.4-1.1,3.2c-8.6,8.6-17.1,17.2-25.8,25.7C365.4,637.6,364,640,360.4,641z M642.6,307.6c6.8,0.3,11.9,0.4,16.9,0.8
				c1.2,0.1,3.7,0.5,2.7,1.7c-3.3,3.9-1.7,9-3.8,13.4C653.3,318.3,648.6,313.6,642.6,307.6z M489.9,577.7
				C489.9,577.7,489.9,577.8,489.9,577.7c-1,1.2-2.1,2.2-3.1,3.3c-2.2,2.5-4.4,2.3-6.9,0.2c-2.8-2.4-1.3-4.3,0.6-6.1
				c2.6-2.5,5.3-4.9,7.8-7.4c1.7-1.7,3.3-1.5,4.8,0.2c1.5,1.6,3,3.2,1.1,5.4C492.9,574.8,491.4,576.2,489.9,577.7z M485.5,642.4
				c0,0-0.1-0.1-0.1-0.1c-1.9,1.9-3.7,3.8-5.7,5.6c-1.2,1.1-2.4,2.8-4.3,0.8c-1.4-1.6-2.2-3.2-0.4-5c4-4.1,8-8.1,12.1-12.1
				c1.2-1.2,2.6-1.7,4-0.5c1.5,1.3,1.7,3,0.5,4.5C489.7,637.9,487.5,640.1,485.5,642.4z M737.4,402.1c-6.2-4.6-9.8-9-13.8-12.9
				c-1.5-1.5-2-2.8,0.9-3.3c3.5-0.7,7.2-0.3,10.3-2.5c1.4-1,2,0.5,2.1,1.6C737.1,390.1,737.2,395.3,737.4,402.1z M336.3,617.7
				C336.3,617.7,336.2,617.7,336.3,617.7c-1.5-1.4-3-2.9-4.4-4.4c-2-1.9-2.2-3.8-0.1-5.8c2-1.9,3.7-1.4,5.4,0.3
				c2.9,3,5.9,5.9,8.8,8.9c1.8,1.8,1.4,3.2-0.5,4.7c-1.5,1.3-2.9,2.6-4.8,0.7C339.2,620.6,337.7,619.2,336.3,617.7z M287.1,662.1
				c-1.2-1.2-2.4-2.5-3.6-3.6c-2.4-2.2-2-4,0.1-6.2c2.4-2.5,3.9-0.9,5.6,0.8c2.5,2.6,5,5.3,7.6,7.6c2.4,2.1,1.7,3.7-0.1,5.7
				c-1.9,2.1-3.4,2-5.2,0.1C290.1,665,288.6,663.6,287.1,662.1z M502.5,588.5c-2.3,2.3-3.7,3.4-4.7,4.8c-1.7,2.3-3.3,2.7-5.6,0.6
				c-2-2-2.3-3.8-0.3-5.8c2.6-2.5,5.1-5.1,7.6-7.7c2.2-2.3,4.2-1.9,6.3,0.3c2.3,2.3,1.4,4-0.7,5.6
				C503.9,587.3,502.6,588.4,502.5,588.5z M458,517.8C458,517.8,458.1,517.8,458,517.8c-4.7-4.7-9.4-9.4-14.1-14.1
				c-1.1-1.1-2-2.4-0.9-4c0.8-1.2,2.1-2.4,3.3-1.6c2.7,1.8,6.4,3.4,5.6,7.6c-0.5,2.4,0.4,4,1.7,5.7c4.2,5.7,9.3,10.5,14.7,15.1
				c2,1.7,4.2,3.4,7.2,2.1c0.9-0.4,1.9-0.2,2.5,0.7c0.7,1.3-0.2,2.1-1,3c-2.1,2.3-3.7,0.8-5.2-0.7
				C467.2,526.9,462.6,522.4,458,517.8z M452.3,698.2c-1.3-1.3-2.7-2.7-4-4c-2-1.9-2.2-3.8-0.1-5.9c2-1.9,3.7-1.5,5.4,0.2
				c2.8,2.8,5.6,5.7,8.5,8.4c2.2,2.1,1.1,3.5-0.6,5.2c-1.6,1.6-3,2.3-4.8,0.4C455.3,701.2,453.8,699.7,452.3,698.2z M381.9,756.9
				C381.9,756.9,381.9,756.9,381.9,756.9c-1.3-1.4-2.7-2.7-4-4c-1.7-1.7-2.3-3.4-0.4-5.4c1.7-1.8,3.5-2.2,5.4-0.4
				c2.8,2.6,5.5,5.2,8.2,7.9c1.9,1.9,1.9,3.9-0.2,5.9c-2.3,2.2-4.1,1.1-5.8-0.7C384.1,759,383,758,381.9,756.9z M405.6,745
				C405.6,745,405.6,745,405.6,745c-1,1.1-2.1,2.2-3.2,3.3c-1.6,1.7-3,3.5-5.6,1.1c-2.5-2.4-2.4-4.4,0.1-6.6
				c2.5-2.3,4.9-4.8,7.3-7.2c1.7-1.7,3.4-2.3,5.4-0.4c2.1,2,1.9,3.9,0,5.9C408.3,742.3,406.9,743.7,405.6,745z M427.3,708.6
				C427.2,708.6,427.2,708.6,427.3,708.6c-1.5-1.4-3-2.8-4.5-4.3c-1.8-1.9-1.6-3.6,0.2-5.4c1.6-1.6,3.3-1.8,4.9-0.1
				c2.9,2.9,5.9,5.8,8.8,8.8c1.4,1.5,1.2,3-0.2,4.5c-1.4,1.5-3,2.5-4.9,0.9C430.1,711.6,428.7,710,427.3,708.6z M346.3,592.3
				C346.3,592.3,346.3,592.3,346.3,592.3c-1.4-1.3-2.7-2.7-4-4c-1.9-1.9-2.3-3.8-0.2-5.9c1.9-1.9,3.7-1.5,5.4,0.2
				c2.7,2.7,5.4,5.4,8,8c1.8,1.8,1.7,3.6-0.1,5.4c-1.9,1.8-3.7,1.6-5.4-0.2C348.7,594.7,347.5,593.5,346.3,592.3z M512.9,602
				C512.9,602,512.9,602,512.9,602c-1,1.1-2.1,2.2-3.2,3.3c-1.9,2.1-3.7,2.2-5.8,0.2c-2.2-2.1-1.7-3.9,0.2-5.8
				c2.6-2.5,5.1-5.1,7.7-7.6c1.8-1.8,3.6-1.8,5.4,0c1.8,1.8,1.7,3.7,0,5.5C515.8,599.1,514.3,600.5,512.9,602z M477.9,565.7
				C477.9,565.7,477.9,565.7,477.9,565.7c-1.3,1.4-2.6,2.8-3.9,4.1c-1.5,1.5-3,2.4-4.9,0.6c-1.9-1.8-2.7-3.8-0.7-5.9
				c2.6-2.8,5.3-5.4,8-8.1c1.9-1.8,3.7-1.6,5.4,0.2c1.6,1.7,1.6,3.3,0,5C480.6,563,479.2,564.4,477.9,565.7z M662.3,341.2
				c2.2-1.8,4-4,5.6-6.4c1.4-2,2.9-1.2,4.2,0.2c1.3,1.4,1.1,2.7-0.4,3.8c-5.9,4.2-10.9,9.4-15.3,15.2c-1.3,1.7-2.5,2.3-4.2,0.7
				c-1.8-1.7-1.6-3.3,0.5-4.6C656.5,347.8,659,344.1,662.3,341.2z M436.6,651.1c-10.1,11.8-20.6,23.1-33.2,32.3
				C412.6,670.8,424.9,661.3,436.6,651.1z M645.1,353.4c-1.5-1.5-1.3-2.6-0.8-3.3c7.8-9,16.6-17.1,25.1-25.5
				c0.7-0.7,1.7-1.1,2.5-0.1c0.7,1,0,1.8-0.7,2.5c-3.7,3.8-7.4,7.6-11.2,11.3C655.1,343.4,650,348.4,645.1,353.4z M400.3,684.6
				c-0.3,0.2-0.5,0.4-0.8,0.6c-13.7-13.7-27.3-27.3-41-41c0.2-0.2,0.5-0.5,0.7-0.7C372.9,657.2,386.6,670.9,400.3,684.6z
				 M660.8,328.3c0.4,0.3,0.7,0.6,1.1,0.9c-12.3,12.3-24.7,24.7-37,37c-0.3-0.3-0.7-0.7-1-1C636.1,352.9,648.5,340.6,660.8,328.3z
				 M334.1,667.6c-6.5-5-6.9-5.8-1.8-11.1c4-4.1,9.4-6.8,13.3-11.3c0.9-1,1.8-2.5,4.3-1.9C342.4,650.4,336.6,657.9,334.1,667.6z
				 M411.9,664C411.9,664,411.8,664,411.9,664c-1.9,1.8-3.8,3.7-5.7,5.6c-1.2,1.1-2.5,1.9-4,0.6c-1.5-1.3-0.9-2.8,0.2-4
				c3.7-3.8,7.5-7.6,11.3-11.3c1.3-1.2,2.6-1.6,3.9-0.1c1.3,1.5,0.7,2.8-0.5,4C415.4,660.5,413.6,662.3,411.9,664z M715.4,383.8
				c0.4,0.4,0.9,0.9,1.3,1.3c-11.9,12.1-23.8,24.2-37.3,34.7C691.4,407.8,703.4,395.8,715.4,383.8z M504.5,501.6
				c1.4,2.2,1.1,3.9-0.1,5.2c-6.6,6.8-13.4,13.5-20.1,20.2c-0.8,0.8-2.1,1.6-3,0.6c-1.4-1.6,0.5-2.3,1.4-3
				C490.4,517.5,497.3,509.8,504.5,501.6z M451.9,646.7c0.1-0.1,0.2-0.2,0.2-0.3c-1.5-1.5-3-2.9-4.4-4.4c-1.3-1.4-2.1-2.9-0.4-4.5
				c1.4-1.3,2.9-0.8,4,0.4c3.1,3,6.2,6.1,9.3,9.3c1.3,1.3,2.1,2.8,0.4,4.4c-1.4,1.3-2.8,0.7-4.1-0.4
				C455.3,649.8,453.6,648.2,451.9,646.7z"/>
			<path d="M692.3,435.8c-10.4,1.2-48.5,37.2-54.2,51.9c9.4-10.3,17.6-19.5,26.1-28.5C672.7,450.4,681.8,442.2,692.3,435.8z"/>
			<path d="M559.7,406c18.2-13.8,35.8-28.1,47.9-47.9c-6,9.7-15.3,16.5-22.9,24.8C577,391.4,567.1,397.4,559.7,406z"/>
			<path d="M514,472.7c0.8,0.8,1.6,1.6,2.4,2.4c6.7,6.6,7.2,6.6,14-0.3c5.8-5.9,5.8-6.4-0.1-12.3c-2.7-2.7-5.4-5.4-8.1-8.1
				c-0.9-0.9-1.9-2.3-3-2.5c-6.2-1.2-7.6,5.1-11.5,7.7c-2.4,1.6-2.2,4.3-0.1,6.5C509.7,468.4,511.9,470.5,514,472.7
				C514.1,472.7,514,472.7,514,472.7z"/>
			<path d="M584.2,516.4c-0.3-0.3-0.5-0.5-0.8-0.8c-8.6-8.6-8.5-8.5-17,0.3c-3.2,3.3-3.4,6-0.1,9.1c3.6,3.4,7,7,10.5,10.5
				c2.6,2.6,5,2.5,7.9,0.1C594.6,527,594.6,526.8,584.2,516.4z"/>
		</g>
		<g>
			<path d="M301.5,533.6L297,530c-13.5-10.8-20.4-21.3-21.5-33.1c-0.6-6.4,2.3-12.4,8.1-16.6c0.6-0.6,1.1-1,1.5-1.2
				c0.4-0.3,0.9-0.7,1.3-1c-0.3-0.4-0.7-0.8-0.9-1c-4-4.2-5.5-8.7-6.3-11.8c-3.8-14.5,0.5-27.1,12.8-37.7c4-3.5,8.5-6.4,12.8-9.2
				c1.2-0.8,2.4-1.6,3.6-2.4c2.4-1.6,5.1-2.5,7.5-3.2c1.4-0.4,2.7-0.9,3.7-1.4c9.2-4.4,19-6.4,29.4-6c3.5,0.1,6.6,0.9,9.4,1.7
				c0-0.3,0.1-0.6,0.1-0.9c0.3-2.7,0.7-5.4,1.7-8.3c4.2-11.9,12.1-19.4,24.3-22.8c3.5-1,7.3-0.9,11.7,0.4l1.1,0.3
				c3,0.9,6.1,1.7,9.2,3.3c1.3,0.7,5.2,2.6,5.8,6.2c1.9-1.1,3.8-2.1,5.7-2.9c4.6-2.1,9.3-4,14-5.6c-0.6-0.2-1.2-0.5-1.6-0.7
				c-1.6-1-4.4-3.3-4.1-7.9c0.6-10.1,6.9-18,11.7-23c6.1-6.4,13.9-11.4,23.4-14.6c12-4.1,23.3-3.1,32.7,2.8c0.8,0.5,1.8,1,2.8,1.6
				c0.1,0.1,0.3,0.1,0.4,0.2c0.2-0.6,0.4-1.3,0.7-1.9c0.8-2.4,1.7-4.8,3.2-7.2c6.2-9.6,13.5-17.2,22.2-23.1c1.5-1,2.9-2,4.3-3
				c7.8-5.4,15.8-10.9,25.5-14.8c11.7-4.7,22.6-4.2,32.5,1.4c4.1,2.3,7.5,5.5,10.6,10.1c4.8,6.9,6.5,13.2,5.2,19.8
				c-1.6,8.6-7.6,14.5-12.6,18.7c-1,0.8-2.4,1.8-4.5,2.5c1.2,1,2.3,2.1,3.3,3.4c2.5,3.2,5.2,6.6,7.3,10.4c0.8-1.4,2.2-2.8,4.7-3.8
				c4.6-1.8,9.5-1,13.4,2.1c0.8,0.6,1.6,1.3,2.4,1.9c4.9,3.9,9.9,7.9,14.1,12.7c3.6-3,8-4.8,11.6-6.4c10.5-4.4,21.7-5.5,30.3-5.9
				c6-0.3,11.5,1.4,15.8,2.8c0.1,0,0.6,0.1,0.9,0.1l1.1,0.1l0.9,0.4c7,3.2,12.5,6.6,17.1,10.3c9.1,7.5,15,19.4,7.6,29.2
				c-1.5,2-3.3,3.7-5.6,5.4l4.8,1.5l-4.7,4.6c-2.2,2.1-6.1,3.2-10.4,2.8c-2.4-0.2-4.4-0.8-6-1.7c0.5,3.7-1.3,7.4-5.2,11.1
				c-4.2,3.9-9.4,7.7-15.5,11c-10.4,5.8-21.3,4.6-31.5,2.4c-2.7-0.6-5.1-1.5-7.2-2.4c-1.9,5.3-6.2,9.6-13,12.9
				c-1.6,0.8-3.3,1.6-4.9,2.5c-3.6,1.9-7.4,3.8-11.4,5.4c-1.7,0.7-3.5,1.2-5.5,1.5c-5.4,0.9-8.2-1-9.7-2.8c-0.9-1.1-1.4-2.2-1.4-3.4
				c-5.8,4.9-12.7,7.7-18.1,9.5c-9.1,3.1-18.8,3.5-28,1.2c-6.1-1.6-11-4.6-15.4-7.4c-0.2,4.5-2.3,8.5-4.4,11.9
				c-3.2,5.2-8.3,8.7-12.8,11.7c-1.1,0.8-2.2,1.5-3.3,2.3c-7.2,5.3-15.7,10.4-25.8,15.7c-2.7,1.4-5.5,1.9-7.7,2.4
				c-1,0.2-2,0.4-2.8,0.6c-3.8,1.1-8-0.4-9.9-3.6c-0.4-0.8-0.7-1.5-0.8-2.3c-0.1,0-0.1,0.1-0.2,0.1c-5.2,2-12.2,4.4-19.8,5
				c0.6,0.4,1,0.8,1.4,1.2c1.1,1.3,2.2,3.6,0.8,7c-1.1,2.7-3,5.2-5.4,7c-8.4,6.7-17.8,11.1-28.8,13.6c-12.4,2.8-23.7,0.3-33.7-7.6
				c-5.9-4.7-10.2-10.2-12.4-15.9c-1-2.5-0.5-5,1.3-7.1c-2.1,0.4-4.2,0.8-6.4,1c0.7,0.4,1.3,0.9,1.8,1.5c3.4,3.7,1.5,8.5-0.2,11.8
				c-0.4,0.7-0.9,1.3-1.2,1.7c0,0-0.1,0.1-0.1,0.1c-3.5,7.8-11.7,11.1-19.2,13.2c-5.9,1.6-12.3,1.9-18.6,0.8
				c-6.3-1.1-11.7-2.4-16.6-4.1c0.2,0.2,0.4,0.4,0.5,0.6c0.8,0.8,1.5,1.6,2.3,2.5c0.1,0.1,0.2,0.2,0.3,0.4c3,3.1,3.2,6,0.7,8.7
				L301.5,533.6z M371.2,496.2c1.8,4.4,5.1,8.6,9.6,12.2c7.1,5.6,14.3,7.3,22.8,5.4c9.1-2.1,17-5.8,24.1-11.4
				c0.9-0.7,1.7-1.6,2.3-2.6c-2.2-0.1-4.9-0.2-7.6-1.3l-0.4-0.1c-1.5-0.6-5.9-2.3-5.5-6.4c0.2-1.6,1.3-5.2,8.4-5.8
				c1.9-0.1,3.8-0.4,5.8-0.7c2.2-0.3,4.5-0.6,6.9-0.8c6-0.4,11.5-2.3,16.2-4.1c7.8-3,14.3-8,20.8-13.3c0.6-0.5,1.2-1,1.8-1.5
				c1-0.8,2-1.7,3.3-2.8l9.8-7.9l-0.4,11c-0.1,3.5-1.6,5.8-2.9,7.7c-2,2.7-4.4,5.3-7.2,7.6c7.4-4.1,13.8-8.1,19.4-12.2
				c1.2-0.8,2.3-1.6,3.5-2.5c4.1-2.8,7.9-5.5,10.2-9.1c4-6.4,4.4-10.5,1.4-14.7c-0.1-0.1-0.2-0.3-0.3-0.4l-8.5-0.5
				c0-0.3,0-0.5,0-0.8c0-0.6,0-1.1,0-1.6c-0.2-1.5-0.8-3-1.9-4.7c-1.7-2.7-4.1-5.1-7.6-7.6l-0.2-0.2c-2.1-1.5-5-3.7-6.7-7.5
				l-4.1-9.1l11.4,3.7c7.8,2.6,13.1,5.6,17.1,9.8c0.8,0.8,1.6,1.6,2.4,2.3c0.8,0.8,1.7,1.6,2.6,2.5c9.7-2.7,17.6-5.4,24.2-10
				c3.6-2.6,6.9-1.8,8.6-1.2l3.5,1.4l-0.5,3c-0.4,2.5-1.8,4.9-4,7.2c-1.2,1.2-2.4,2.5-3.6,3.8c-3.3,3.6-6.7,7.3-11.4,10.3
				c0,0-0.1,0.1-0.1,0.1c3.4,2.2,7,4.3,10.8,5.3c6.7,1.7,13.5,1.4,20.2-0.9c10-3.4,16-7.5,19.4-13.3c1.5-2.5,3-5,5-7.3l3-3.4
				l4.5,2.2c2.5,1.2,3.3,2.9,3.5,3.4c2.3,4.7,2.6,9,0.8,12.9c2.7-1.2,5.4-2.6,8.1-4c1.7-0.9,3.4-1.7,5.1-2.6c5.1-2.5,8-5.7,8.7-9.8
				c0.5-3,2.4-4.4,4-5c3.4-1.4,6.7-0.1,7.8,0.3c0.9,0.3,1.7,0.7,2.6,1c2,0.8,3.9,1.6,5.8,2c9,1.9,15.9,2.4,22.3-1.1
				c5.3-2.9,9.8-6.1,13.4-9.5c3.1-3,3.1-4.7,2.1-6.3c-2-3.2,0.2-6,1.2-7.3l0.1-0.1c2.5-3.2,3.2-6.4,2.2-9.9
				c-0.1-0.3-0.2-0.6-0.3-0.9c-0.6-1.8-1.3-4-0.7-6.6l0.9-4l5.1,0.4c4.3,0.4,6.4,2.7,7.4,3.8l0.2,0.2c1.9,2.1,3.3,4.3,4,6.7
				c2.2-2.2,2.2-4.9,1.7-8.6l-1.8-1.4l1.7-2.9c0.1-0.2,0.2-0.3,0.3-0.5c-1.2-1.5-2.6-2.9-4.1-4.1c-3.6-3-8.2-5.7-13.8-8.4
				c-0.7-0.1-1.5-0.3-2.3-0.5c-4.2-1.3-7.7-2.3-10.9-2.2c-7.5,0.4-17.2,1.3-25.9,4.9c-4,1.7-7.8,3.3-10.2,6.1
				c-2.3,2.8-5.1,3.4-7,3.3c-1.9,0-4.7-0.7-6.9-3.6c-3.8-5.1-9.1-9.3-14.6-13.7c-0.8-0.7-1.6-1.3-2.5-2c-0.1,0-0.1-0.1-0.1-0.1
				c0,0.2,0,0.4,0,0.5l0,0.2c0,0.7,0.2,1.6,0.4,2.5c0.4,1.8,0.8,4.1,0.2,6.5c-2.1,8.1-8.2,13.5-14.1,18.7l-13.8,12.2l3.9-15.6
				c0.3-1.3,1-2.4,1.5-3.2c0.1-0.2,0.2-0.4,0.4-0.6c3.9-6.6,5-12.1,3.5-17.3c-1.5-5-5.1-9.6-8.6-14.1c-2.1-2.7-5-4.3-9.5-5.2
				c-1.6-0.3-3.3,0-6.2,0.6c-1.2,0.3-2.4,0.5-3.7,0.7l-2.7-8.3c6.8-1.5,13.6-2.9,20.8-3.2c1.7-0.1,2.9-0.4,3.6-1
				c5.9-4.9,8.8-9.2,9.7-14.1c0.9-4.7-0.3-9.2-4-14.5c-2.4-3.4-4.7-5.7-7.5-7.3c-6.4-3.7-13.1-3.9-21-0.7
				c-8.5,3.4-15.7,8.3-23.3,13.6c-1.5,1-2.9,2-4.4,3c-7.6,5.1-14,11.8-19.6,20.4c-1.1,1.7-1.7,3.6-2.4,5.6c-0.5,1.4-1,2.8-1.6,4.2
				c-0.6,1.3-1.9,4.3-5.8,5.2c-3.8,0.9-7.1-1-8.3-1.7c-0.7-0.4-1.4-0.8-2.1-1.2c-1.1-0.6-2.3-1.2-3.5-2c-6.3-4-13.1-4.5-21.4-1.6
				c-7.7,2.6-14.1,6.6-19,11.8c-6.2,6.6-9.2,12.3-9.5,18.3c0,0.1,0,0.2,0,0.3c0.1,0,0.1,0,0.2,0c12-3.3,23.8-3.2,35.1,0.3
				c1.4,0.4,4.9,1.5,6,4.9l1.8,5.3l-7.1,0c-1.5,0-3,0-4.5-0.1c-2.8-0.1-5.4-0.1-7.8,0.1c-13.2,1.4-25.4,4.8-37.4,10.3
				c-4.7,2.2-9.2,5-14,8.8c-2.5,2-4.2,4.8-6.1,7.7l-4.1,6.6l-5.4-4.4c-2.9-2.4-2.4-5-2.2-6.1c0-0.1,0-0.2,0-0.3
				c0.7-5.7,3.6-10.8,8.7-15.2c0.2-0.1,0.3-0.2,0.4-0.4c-0.1-0.1-0.2-0.1-0.3-0.2c-2-1-4.4-1.7-6.9-2.4l-1.1-0.3
				c-1.8-0.5-3.2-0.7-4.2-0.4c-8.8,2.5-14.3,7.9-17.5,17c-0.7,2.1-1,4.4-1.3,6.8c-0.2,1.3-0.3,2.5-0.5,3.7c-0.2,1-0.6,3.7-3.7,5.1
				c-3,1.4-6.1,0.5-7.4,0.2l-1.4-0.4c-2.8-0.8-5.4-1.6-8-1.7c-8.2-0.3-15.8,1.2-23.1,4.8c-1.8,0.9-3.7,1.5-5.3,2
				c-1.9,0.6-3.5,1.1-4.5,1.8c-1.2,0.8-2.5,1.6-3.7,2.5c-4.2,2.7-8.2,5.3-11.7,8.3c-9.9,8.5-13.2,18.4-10.1,30.1
				c1,3.6,2.3,6.2,4.3,8.4c5.7,6,4.6,8.6-1.5,13.2c0,0,0,0,0,0l-0.1,0.3l-1.2,0.8c-3.5,2.3-5.4,5.9-5,9.8c0.1,1.4,0.4,2.7,0.7,4.1
				l2.9,1.7c0.2,0.1,0.7,0.3,1.2,0.5c0.9,0.4,1.9,0.8,3,1.4c6.7,4.2,14.8,7,26.4,9c4.3,0.8,8.6,0.6,12.5-0.5
				c6.4-1.8,10.8-3.8,12.6-8c0.4-0.9,1-1.6,1.4-2c0-0.1,0.1-0.1,0.1-0.2c0.9-1.7,1.1-2.7,1.2-3.2c-0.4,0-1-0.1-2,0
				c-4.7,0.2-8.9-1-12.2-3.7c-3.3-2.6-5-5.6-6.7-8.5c-0.5-0.9-1-1.8-1.6-2.7l-5.8-9l12.3,3c2.9,0.7,4.7,1.9,5.9,2.6
				c0.2,0.1,0.4,0.2,0.6,0.4c3.6,2.2,8.1,3.1,13.8,2.9c9.1-0.4,17.4-3.7,27.8-11.1c4.7-3.4,8.7-7.4,13.3-12.1l9.2-9.4l1.1,11.2
				c0.5,4.7-0.3,8.7-0.9,12.2c-1,5.7-5.2,9.8-11.6,11.7c-5.7,1.7-10.7,4.5-16,7.4C374,494.7,372.7,495.4,371.2,496.2
				C371.3,496.2,371.3,496.2,371.2,496.2z M348.9,499.3L348.9,499.3L348.9,499.3z M521.7,436.8c0.4,0.5,0.7,1,1,1.3
				c0.1,0.2,0.3,0.4,0.4,0.6c0.4,0.5,0.7,1,1,1.5c0.7-1.4,1.9-2.6,3.3-3.5c1.3-0.8,2.4-1.8,3.5-2.7
				C527.8,435,524.7,435.9,521.7,436.8z M699.4,390.8L699.4,390.8L699.4,390.8z M436.3,369.2L436.3,369.2L436.3,369.2z M496.2,337.9
				L496.2,337.9L496.2,337.9z M500.2,337L500.2,337L500.2,337z"/>
			<path d="M422.8,586.3c-4.9,0-9.7-0.6-14.4-1.9c-13.6-3.8-23.5-12-29.5-24.5c-0.8-1.7-1.5-3.4-2.2-5.2c-0.8,0.9-1.6,1.7-2.5,2.6
				c-7.6,6.8-19.9,15.7-38.8,14.1l-0.7,0.3l-1.6,0c-5.2-0.1-8.8-2.5-11.4-4.3l-0.3-0.2c-10.2-6.8-14.8-14.4-14.1-23.2
				c-0.1-0.4-0.1-0.9,0-1.5c0.7-3.6-0.6-5.9-4.5-7.9c-2-1-3.4-2.4-4.6-3.5c-0.4-0.4-0.8-0.8-1.3-1.2l-0.5-0.4L296,529
				c-1.7-2.4-3.9-4.7-6.2-7.1l-0.7-0.7c-4.9-5-8-10.6-10.6-16l-0.1-0.2c-0.6-0.9-1.7-2.9-0.7-5.1c0.6-1.3,2-2.4,3.7-3
				c1.5-0.5,6.5-1.7,10.1,3.8c0.2,0.3,0.4,0.5,1.5,1c2.2,1,4.3,2,6.3,3c4,2,7.8,4,12,4.9l0.2,0c6.8,1.5,13.2,2.9,19.3,1.7
				c6-1.2,9.9-2.6,12-5.9c0.6-0.9,1.2-1.7,1.8-2.5c0.5-0.7,1-1.3,1.4-1.9c0.1-0.1,0.2-0.3,0.2-0.4c-5.5,0.3-10.3-1.4-14.3-5
				c-3.5-3.2-5.5-6.8-7.3-10.3c-0.5-0.9-0.9-1.8-1.4-2.6c-1.7-3-0.4-6.3,3.1-7.9c1.7-0.8,6.1-2.1,10.2,2.2c4.2,4.5,9.7,6.1,17.8,5.2
				c14.4-1.6,24.4-9.3,33.2-17.5c1.9-1.7,3.9-3.9,5.2-6.4l0.1-0.1c2.2-4.6,7.1-3.9,8.1-3.7c1.5,0.3,5,1.4,5.4,5.6
				c0.3,3.9,0,7.7-0.4,11.4l-0.1,1c-0.8,8.4-6.7,14.1-17.7,16.9c-3.2,0.8-6.1,2.6-9.3,4.5c-1.6,1-3.3,2-5,2.9
				c0.1,0.2,0.2,0.3,0.3,0.5c0.9,1.8,1.7,3.3,3,4.2c1.9,1.3,3.1,2.9,4.1,4.2c0.7,0.9,1.3,1.7,2,2.2c6.9,4.8,13.2,6.1,20.9,4.2
				c9.5-2.2,16.8-5.9,22.4-11.1c-3.6-0.5-7-1.9-10.2-4.1l-0.3-0.2c-1-0.7-4.2-2.8-3.2-6.4c1.1-3.9,5.4-4.7,6.8-5
				c3.7-0.7,7.5-1.1,11.1-1.5c2.6-0.3,5.1-0.6,7.6-0.9c9.3-1.4,15.7-3.5,21-6.7c8.1-5,14.5-9.9,19.7-15.2c0.1-0.1,0.1-0.1,0.2-0.2
				c4.2-4.8,9.2-2.7,10.2-2.2c1.7,0.8,4.4,2.9,2.7,6.9c0,0.1-0.1,0.1-0.1,0.2c-0.6,2.9-1.7,5.5-3.2,7.8c4.6-3,9.1-6.1,13.5-9.1
				c6-4.1,9.2-7.8,10.8-12.2c0.4-1.2,0.7-2.3,0.7-3.4l-2.9,4.5l-5.3-3.2c-1.4-0.8-3.5-2.7-2.5-6c1.3-5.5-1.1-10-7.9-15.1
				c-1.7-1.3-3.1-2.6-4.5-3.8c-1.4-1.3-2.7-2.5-4.1-3.5c-2.9-2-3.4-5.2-1.4-7.7c1-1.2,3.8-3.7,9.4-2.1c9,2.6,15.6,6.3,20.3,11.4
				l0.1,0.1c1.3,1.4,2.5,2.8,3.3,3.4c1-0.2,3.1-0.8,5-1.4c7.7-2.4,15.6-5.3,21.3-11c3.5-3.4,7.6-2,8.4-1.7c0.9,0.4,4,1.9,3.5,5.5
				c-0.4,3.2-1.4,7.9-5.2,11.7c-1.4,1.3-2.7,2.8-4.1,4.3c-2.9,3.1-5.8,6.3-9.7,9c4.9,2.7,8.9,4.4,13.5,4.7c7.5,0.5,14.7-1.1,21.7-5
				c6.2-3.4,10.6-7.9,13.5-13.7c0.2-0.5,0.3-1.1,0.3-2l0-0.1c-0.6-4.2,2.8-5.6,4.3-6.1c1.6-0.5,5.6-1.1,8.8,2.8
				c3.4,4.3,5.7,9.8,5.1,15c4.6-2.1,8.9-4.2,12.7-6.8c2.3-1.6,3.7-3.4,4.3-5.4l-2.9-4.4l3.2,2.3c0-0.6-0.1-1.2-0.2-1.9
				c-1-4.2,2.9-5.7,3.7-5.9c2.6-0.8,5.4-0.1,7,0.8c4.1,2.3,8.1,3.9,12.4,5c10.9,2.6,17.5,1.8,23.5-3c1.4-1.1,2.9-2.1,4.4-3.1
				c2.7-1.8,5-3.4,6.5-5.4c0.4-0.5,0.9-1.3,1.2-1.8c0,0-0.1,0-0.1-0.1c-1.5-1-2.5-2.4-2.6-3.9c-0.3-2.5,1.7-4.2,2.3-4.8
				c4.6-4.2,4.9-8.9,1.2-16.4l-0.1-0.2c-1.5-2.3-1.4-4.3,0.1-6.1c0.4-0.4,3.8-4.1,9.7-1.3l0.1,0c5,1.7,8.7,4.6,10.8,8.3
				c0.2-1.7-0.2-3.8-0.8-6.3c0-0.1-0.1-0.3-0.2-0.4c-0.2-0.4-0.5-0.9-0.7-1.5c-1.6-4.4,2.3-6.3,3.2-6.6c1.1-0.4,4.9-1.6,8.4,1.5
				c4.3,3.8,6.2,9.3,5.2,15.4c-0.8,5.4-3.8,10.2-8.1,13.2c5.1,1.4,9.1,5,11.2,7.3c5.2,5.6,7.5,11.9,6.3,16.9l-0.9,3.5l-2.5,0
				c-3.2,12.9-10.7,22.7-22.7,29.8c-4.4,2.6-9.7,3.7-15,3c-4.7-0.6-6.9-2.4-7.8-3.8c-2.4,1.6-4.8,3-7,4.3l-1.1,0.7
				c-2.7,1.6-5.9,3.4-9.6,4.6c-2.4,0.7-4.7,0.8-6.7,0.3c0.3,0.3,0.5,0.6,0.8,0.9c6.4,8.4,4.3,17.5-5.2,23.3
				c-5.1,3.1-10.5,6-15.7,8.8c-2.7,1.4-5.3,2.9-7.9,4.3c-7,3.9-14.7,6.4-23.7,7.5c-6.8,0.9-13.3,0.9-19.3,0.1c0.5,1.8,0.1,4-2.2,6.6
				c-2.6,2.8-6.1,5.1-11,7.3c-10.7,4.6-21.8,6.2-32.9,4.9c-2.7-0.3-4.9-1.3-6.4-2.7c-5,1.5-9.8,3.7-14.2,5.8
				c-4.4,2.1-8.9,3.2-13.2,4.4c-2.9,0.8-5.7,1.5-8.3,2.4l-0.8,0.3l-0.8,0.1c-3.8,0.4-7,0.6-9.9,0.6c0,0,0,0-0.1,0
				c-5,0-7.3-2-8.2-3.2c-0.5-0.6-1.1-1.6-1.2-2.9c-2.9,2.5-6.1,4.5-9.8,6.1c2.2,1.5,3.4,3.8,4.3,6.1c3.6,9.2,0.9,17.9-8,25.8
				C449.4,581.7,436,586.3,422.8,586.3z M377,535.7l5.4,5c2.2,2.1,2.8,4.1,3.1,5.5c1.1,4.2,2.2,7.6,3.7,10.7
				c4.9,10.2,12.4,16.5,22.9,19.4c13.1,3.6,28.6,0.2,38.5-8.6c6.5-5.7,8.2-11.2,5.7-17.6c-0.2-0.6-0.5-1.1-0.6-1.4
				c-0.3,0.1-0.8,0.2-1.4,0.4c-9.8,3.1-19,2.7-27.5-1.2l5.2-7.6c2.3,0.9,4.2,1,6.7,0.6c4.4-0.9,8.5-2.7,12.8-4.5
				c1.7-0.7,3.4-1.5,5.1-2.2c5.3-2.1,9.5-5.7,12.8-10.8c1.9-3,2.9-6.3,4-9.8c0.4-1.2,0.7-2.4,1.1-3.5c0-0.1,0-0.2,0.1-0.3
				c1.2-5.2,6.2-5.2,7.6-5.1c2.5,0.2,5.6,1.3,6.5,5.5l0,0.2c1.2,5.1,2.1,11.1-1.4,17.1c-0.5,0.9-1,1.9-1.5,2.8
				c-0.4,0.8-0.9,1.7-1.3,2.5c1.4-0.1,3-0.2,4.8-0.4c2.9-1,5.9-1.8,8.8-2.5c4-1,7.7-2,11-3.6c5.3-2.5,11.1-5.1,17.6-6.9
				c2.1-0.6,3.8-2.2,5.8-4.1c0.8-0.8,1.7-1.6,2.6-2.4l0.2-0.2c0.2-0.1,0.3-0.2,0.5-0.4c0.5-0.5,1.2-1.3,1.9-2.2
				c1.5-1.9,2.1-3,2.2-3.5l10.8,1.4c-0.4,2.1-1.8,4.3-3.5,6.4c-0.8,1-1.7,2-2.6,3c-0.6,0.7-1.2,1.3-1.7,1.9c-0.9,1-1.8,2.1-2.9,3.1
				c7.7,0.4,15.4-1,22.9-4.2c3.4-1.5,5.7-2.9,7.3-4.6c-3.8-2.8-6.5-5.9-8.8-8.7L547.9,488l21.2,11c8.5,4.4,18.3,5.8,29.8,4.3
				c7.2-1,13.5-2.9,19.1-6.1c2.7-1.5,5.4-2.9,8.1-4.4c5.1-2.7,10.3-5.6,15.2-8.5c4.8-2.9,5.9-7,3.1-11.3c-1.8,1.2-3.6,2.5-5.5,3.9
				c-1,0.7-2,1.5-3,2.2l-0.5,0.3c-0.6,0.3-1.2,0.7-1.8,1.1c-2.8,1.7-6.3,3.8-11.3,4.1l-18.6,0.9l15-8.7c0.7-0.4,1.4-1,2.1-1.7
				c1.6-1.4,3.7-3.3,6.9-4.4c3.7-3.3,6.2-7.6,7.6-12.8c1.3-4.8,0.5-9.5-2.4-13.9l-5.2-7.9c-0.9,0.9-2,1.8-3.1,2.6
				c-5.2,3.6-11,6.3-16.6,8.8c-1.6,0.7-3.2,1.5-4.8,2.2c-1.4,0.7-2.9,1-3.9,1.1c-0.2,0-0.4,0.1-0.6,0.1c-4.5,1-6.9-0.7-7.9-1.8
				c-0.5-0.6-3.1-3.6,1-6.9c1.6-1.3,2.2-3.2,2-5.3c-3.6,5.4-8.6,9.8-14.9,13.2c-9.1,4.9-18.9,7.1-28.9,6.5c-8.3-0.5-14.7-3.8-20-6.9
				c-3.1-1.8-4.8-3.9-4.8-6.2c0-1.5,0.6-3.8,3.9-5.9c3.3-2.1,6-4.9,8.8-7.9c-3.6,1.5-7.2,2.7-10.6,3.8c-3.9,1.2-6.8,1.9-9.3,2
				c0.8,0.5,1.6,1.1,2.4,2c4.3,5,5.4,10.9,3.1,17.1c-2.2,6-6.6,11-14.1,16.2c-8.9,6.2-19.1,13.2-30.2,18.9l-0.4,0.2
				c-1.3,0.7-3.3,1.7-6.1,1.8c-0.1,0-0.2,0.1-0.2,0.1c-1.3,0.6-3.8,1.7-6.8,0.9c-1.1-0.3-3.1-1.1-4.2-3.2c-0.9-1.6-0.8-2.9-0.2-4.1
				c-7.3,3.4-14.9,4.9-21,5.9c-2.7,0.4-5.5,0.7-8.1,1c-0.9,0.1-1.7,0.2-2.5,0.3c0.2,0,0.3,0,0.5,0c0.1,0,0.2,0,0.4,0
				c6.1-0.7,8.4,2,9.2,3.6c1.7,3.5-0.9,6.3-2.1,7.6l-0.3,0.3c-7.2,7.8-17,13.1-30,16.2c-11.3,2.7-21.6,0.7-31.3-6
				c-2-1.4-3.2-3-4.2-4.3c-0.7-0.9-1.3-1.7-1.9-2.1c-3.2-2.2-4.7-5-5.9-7.5c-0.3-0.5-0.5-1.1-0.8-1.6c-1.8-3.2-0.4-6.9,3.4-8.6
				c1.9-0.9,3.7-2,5.7-3.2c3.5-2.2,7.6-4.6,12.6-5.9c6.8-1.8,9.7-4.4,10.1-9.3l0.1-0.7c-9.5,8.8-21.6,17.7-39.1,19.6
				c-5.9,0.6-11.3,0.3-15.9-1.2c0.2,0.2,0.4,0.4,0.6,0.6c2,1.8,3.5,2.1,5.4,2c5-0.4,8.5,0.7,10.6,3c2.2,2.4,2.1,5.7-0.3,9.7
				c-0.6,1-1.2,1.8-1.9,2.6c-0.5,0.7-1,1.3-1.3,1.9c-4.1,6.7-11.6,9-19.1,10.5c-8.9,1.8-17.4-0.1-25-1.8l-0.2,0
				c-5-1.1-9.2-3.1-13.2-5c0.8,1.1,1.7,2.1,2.7,3.1l0.7,0.7c2.4,2.4,4.8,4.9,6.9,7.8c0.4,0.4,0.8,0.7,1.2,1.1
				c0.8,0.8,1.6,1.5,2.3,1.9c7.1,3.7,10.3,9.2,9.3,15.8c0,0.3,0.1,0.6,0,1.1c-0.5,6.2,2.6,11.2,10.3,16.4l0.3,0.2
				c1.3,0.9,2.6,1.8,3.7,2.1c1.1-0.2,2.2-0.3,3.3-0.2c10.9,1.1,20.2-2.4,30-11.2c2.3-2.1,4-4.8,5.8-7.7c0.5-0.8,1-1.6,1.5-2.3
				L377,535.7z M307.3,543.6C307.3,543.7,307.3,543.7,307.3,543.6C307.3,543.7,307.3,543.7,307.3,543.6z M318.1,543.6
				C318.1,543.6,318.1,543.6,318.1,543.6C318.1,543.6,318.1,543.6,318.1,543.6z M348.2,500.7L348.2,500.7L348.2,500.7z M645.2,463.4
				c0.5,0,0.9,0,1.4,0.1c0.4,0.1,0.8,0.1,1.1,0.2c-0.7-1-1.1-2.1-1.2-3.4c0-0.5-0.1-0.9-0.2-1.4c-0.1,0.2-0.1,0.4-0.2,0.6
				c-0.4,1.3-0.8,2.6-1.2,3.8C645,463.4,645.1,463.4,645.2,463.4z M655.1,458.5L655.1,458.5L655.1,458.5z M631.2,431.4l10.3,7.4
				c2.7,2,5.1,3.9,6.9,5.9l0.7,0.8c3.2,3.4,6.8,7.2,8,12.3c1.7-0.7,3.4-1.7,5.2-2.8l1.2-0.7c7.4-4.3,13.4-8.1,16.9-14.5l9.1-16.4
				l1.5,17.8c0.3,4,0.4,7.6-2.2,11.1c1.9-0.2,3.4-0.8,4.5-1.4c11.4-6.8,17.9-16.8,19.7-30.6l2.3,0.1c-0.5-2.3-2-5.2-4.4-7.7
				c-2.5-2.7-4.7-3.9-5.8-4.2c-2,0.1-3.8-0.1-5.3-0.4c-0.7-0.1-1.3-0.2-1.8-0.2c-3.4-0.2-6-1.9-6.7-4.4c0-0.2-0.1-0.3-0.1-0.5
				c-0.5,0.6-1,1.2-1.5,1.8c3.6,4.2,0.5,8.6-0.9,10.6c-2.4,3.4-5.9,5.7-8.9,7.8c-1.3,0.9-2.6,1.7-3.7,2.6
				c-11.5,9.1-24.5,7.6-34.5,5.2c-3.1-0.7-6.1-1.7-9.1-3C632.2,429.1,631.8,430.3,631.2,431.4z M685.9,452.2L685.9,452.2
				L685.9,452.2z M535.6,444.5L535.6,444.5L535.6,444.5z M535.7,442.3C535.7,442.3,535.7,442.3,535.7,442.3S535.7,442.3,535.7,442.3
				z M720.7,420.6l2.7,0.1c-0.6-0.7-1.7-1.3-2.7-1.3L720.7,420.6z M698.7,399.3C698.7,399.3,698.7,399.3,698.7,399.3
				C698.7,399.3,698.7,399.3,698.7,399.3z M694.4,395.6c-0.1,0.9-0.4,1.7-0.7,2.6c0.3-0.2,0.5-0.4,0.9-0.5l1.5-0.8
				C695.4,396.5,694.8,396.1,694.4,395.6z M690.7,376.6C690.7,376.6,690.7,376.6,690.7,376.6C690.7,376.6,690.7,376.6,690.7,376.6z"
				/>
			<path d="M270.4,497.9l12.7-16.9c0.7-1,1.5-2,1.8-2.6c-0.5-0.6-1.6-1.7-2.5-2.7c-6-6.1-10.9-13-14.4-20.4
				c-5.7-11.9-5.4-22.7,0.7-32.3c2.4-3.8,5.9-6.6,9.3-9.4c0.6-0.5,1.2-1,1.8-1.5c5.2-4.4,11.5-6.9,17.5-9.3c0.9-0.4,1.8-0.7,2.7-1.1
				c1.5-0.6,2.9-1.2,4.4-1.9c5.4-2.3,10.9-4.7,17.4-5.8c2.1-0.4,4.4-0.8,6.8-1c-4.8-9.8-3.8-20.2,3.1-31.7c4-6.7,9.7-13.2,17.4-19.9
				c3.2-2.8,6.9-5,10.4-7.1c0.7-0.4,1.3-0.8,2-1.2c12-7.3,23-11,34.7-11.7c13.7-0.8,23.9,2.1,31,9c0.9,0.9,1.9,1.8,3,2.7
				c1.2,1.1,2.5,2.1,3.7,3.3c3.8-4.9,8.3-9.3,12.3-13.2c5.5-5.4,11.7-9.5,18.5-12.3c5.9-2.4,13.1-2.8,19.6-1.2c5,1.3,9.1,3.6,12,6.7
				c0.7-0.9,1.4-1.7,2.1-2.6c3.5-4.4,7.1-9,11.4-13.2c5.7-5.5,12.4-11.7,20.4-17.2c9.6-6.5,20.7-9.7,30.2-11.9
				c6.5-1.5,13.2-1.6,19-1.6c6.1,0,12.1,0.6,18,1.1l1.7,0.2c17.1,1.6,28.1,8.7,32.9,21.2c3.4,8.9,1.1,16.8-6.8,22.7
				c-0.9,0.7-1.8,1.4-2.7,2.2c0,0,0,0,0.1,0c3.8,0,6.7,1.6,8,2.3c4.5,2.5,8.7,5.7,12.5,9.5c4.9,4.9,5.7,12.6,2.7,19
				c1.9-0.2,3.7-0.2,5.3-0.2c13.4-0.2,26.5,2.4,39,7.7l14.9,6.4l-16.9,1.7c-3.4,0.3-6.3-0.2-8.8-0.7c-1.8-0.3-3.3-0.6-4.6-0.6
				c-15.8,0.6-26.3,3.2-35.3,8.7c-0.7,0.4-1.3,1.2-2.1,2.2c-0.5,0.7-1.2,1.5-1.9,2.3c-2.6,2.7-5.4,3.1-7.2,2.9c-1.9-0.2-4.4-1-6.2-4
				c-3.1-5.3-8.2-9.5-13.7-13.8c-0.2-0.2-0.4-0.3-0.6-0.5c0.4,1.5,0.7,3.4,0,5.6c-2.8,9.1-9.4,16.8-20.2,23.3
				c-3.3,2.1-6.6,1.3-8.4,0c-2.8-2-3-5.2-0.6-7.7c1.3-1.3,2.3-2.9,3.2-4.4c5.3-8.9,5.5-15.9,0.5-22.8c-0.7-1-1.3-1.9-2-2.9
				c-1.3-2-2.6-3.9-4.1-5.5c-2.8-3-7.4-4.3-11.7-3.3c-0.9,0.2-1.9,0.4-2.8,0.6c-1.7,0.3-3.2,0.6-4.4,1.1c-3.6,1.4-7.6,0.6-9.6-2
				c-0.5-0.6-2.6-3.9,1.8-6.9c3.1-2.5,7-3.3,9.8-3.9l0.3-0.1c5.7-1.2,11.7-2.5,18.1-2.5c1.4,0,2.3-0.7,4.7-2.9
				c0.3-0.3,0.6-0.6,1-0.9c7.5-6.8,6-14.5,4.5-18.5c-2.6-6.7-9-12.5-15.7-14c-4.4-1-8.4,0.2-13.6,2c-6.5,2.2-12.1,6.1-18.1,10.1
				l-3.6,2.4c-5.5,3.8-10.7,7.3-14.9,11.7c-7.2,7.6-11.7,15.1-13.7,22.9c-0.5,2.2-1.3,5.1-4.9,6.2c-3.6,1.1-6.6-0.5-8.6-1.6
				c-1.5-0.8-2.9-1.7-4.3-2.5c-1.9-1.1-3.6-2.2-5.4-3.1c-3.8-2-7.5-2.6-11.5-2.1c-12.2,1.6-21.8,7.5-30,18.7
				c-2.6,3.5-3.9,6.5-4.2,9.5c8.6-2.2,17.9-2.5,27.7-0.7c5.4,0.9,9.9,2.7,13.6,5.3l0.2,0.1c4.1,2.8,3.8,5.5,2.7,7.3
				c-0.4,0.7-2.7,4.1-8.6,2.6l0,0c-6.1-0.6-12.7-0.4-20.7,0.6c-11.6,1.5-23,5.4-35.9,12.3c-7.8,4.2-12.3,9-13.7,14.8l0,0.2
				c-0.7,4.4-4.6,5.1-6.3,5.2c-1.4,0.1-6.1,0-7.6-4.9l-0.1-0.2c-2.5-7.9-0.2-15.2,7.2-22.3c-2.1-0.8-4.5-1.6-7-2.1
				c-1-0.2-4-0.8-8.8,2.9c-6.6,5-10.1,11.2-10.5,18.5c-0.1,1.1-0.3,2.1-0.4,3c-0.3,1.9-0.5,3,0,4c1.4,2.4,0.4,5.4-2.5,6.9
				c-2.8,1.5-6.4,1.3-8.9-0.6c-6.4-4.8-13.8-5.4-25.3-2.1c-10.6,3-18.7,6.7-25.7,11.8c-5.7,4.1-11.5,8.6-15,14.4
				c-3.4,5.8-4,12.2-1.8,20.2c1.4,5,3.1,8.4,5.6,11.2c1.9,2,1.9,3.9,1.6,5.1c-0.3,1.2-1.2,2.8-3.7,4.1c-1,0.5-2,1.1-3,1.6l-1.5,0.8
				L270.4,497.9z M332,401.7c-2.6,0-5.2,0.5-8,0.9c-5,0.9-9.6,2.9-14.5,5c-1.5,0.7-3.1,1.3-4.6,2c-0.9,0.4-1.8,0.7-2.7,1.1
				c-5.4,2.2-10.5,4.2-14.4,7.5c-0.6,0.5-1.3,1-1.9,1.6c-2.9,2.4-5.7,4.7-7.4,7.3c-4.8,7.4-4.8,15.7-0.2,25.4
				c0.4,0.9,0.9,1.8,1.3,2.6c0-5.3,1.4-10.2,4.1-14.8c4.3-7.2,11-12.4,17.5-17.1c8-5.8,17.6-10.2,29.5-13.5
				c7.9-2.2,18.8-4.3,29.3-0.1c0.1-0.4,0.1-0.8,0.2-1.2c0.1-0.8,0.3-1.5,0.3-2.2c0.5-9.5,5.2-17.7,13.8-24.2c7.7-5.9,14.8-6,19.3-5
				c4.2,0.9,8.1,2.3,11,3.5c1.3,0.5,4.9,2,5.6,5c0.3,1.2,0.1,2.3-0.4,3.3c0.7-0.4,1.4-0.8,2.2-1.2c13.9-7.5,27-11.9,40-13.6
				c-3.8,0.2-7.5,0.8-11,1.8c-1.4,0.4-5.6,1.7-9.1-0.3c-3.6-1.9-3.7-5.6-3.7-6.8c-0.1-5,1.8-10,5.8-15.4
				c9.9-13.4,22.2-20.9,37.7-22.9c6.7-0.9,13.1,0.3,19.3,3.4c2.1,1.1,4.1,2.3,6.1,3.4c0.4,0.2,0.8,0.5,1.2,0.7
				c2.6-8.2,7.5-16,15-23.9c4.9-5.2,10.8-9.2,16.5-13.1l3.5-2.4c6.3-4.3,12.8-8.8,20.9-11.6c5.3-1.8,12.6-4.3,21-2.3
				c10.4,2.3,19.5,10.1,23.2,19.8c3.7,9.6,1.2,19.3-6.7,26.5c-0.3,0.3-0.6,0.5-0.9,0.8c-2.2,2.1-5.2,4.9-10,5.7c1.6,1,3,2.1,4.2,3.4
				c2,2.2,3.6,4.4,5,6.6c0.6,0.9,1.2,1.8,1.8,2.7c3.3,4.7,5,9.5,5,14.6c0.1-0.3,0.2-0.6,0.3-0.9c0.2-0.6,0-1.4-0.4-2.6
				c-0.4-1.3-0.8-2.9-0.6-4.7c0-0.2,0-0.3,0-0.5c0-1.2-0.2-4.7,4.3-6.5c4-1.6,8.3-0.9,11.6,1.8c1.4,1.2,2.8,2.3,4.3,3.5
				c4.7,3.8,9.5,7.6,13.2,12.4c0.8-0.9,1.9-1.9,3.2-2.8c6.2-3.8,12.7-6.2,19.1-7.7c-0.2,0-0.4,0-0.5,0c-3.4,0.1-7,0.2-10.2,1.3
				c-5.4,1.8-8.4-0.7-9.2-1.5c-1-1-2.9-3.6,0.3-6.9l0.1-0.1c0.3-0.5,0.8-0.9,1.1-1.2c0.1-0.1,0.2-0.2,0.3-0.3
				c3.5-3.7,3.8-10.3,0.7-13.4c-3.1-3.1-6.5-5.7-10.1-7.7c-1.3-0.7-1.6-0.7-1.7-0.7c0,0-0.2,0-0.5,0.1c-2.2,0.9-4.5,1.1-6.4,1.3
				c-0.5,0-0.9,0.1-1.4,0.1l-0.2,0c-5.6,0.8-7.7-2-8.3-3.2c-1.2-2.2-0.5-4.4,1.8-6.5c0.9-0.9,1.8-1.7,2.7-2.5
				c2.3-2.1,4.6-4.3,7.2-6.3c4.8-3.7,6.1-8.3,3.9-14.1c-3.5-9.1-11-13.9-23.7-15.1l-1.7-0.2c-5.7-0.5-11-1-16.4-1
				c-0.1,0-0.1,0-0.2,0c-5.4,0-10.9,0-15.9,1.2c-8.8,2.1-18.1,4.8-26.2,10.2c-7.3,5-13.5,10.7-19.1,16.1c-3.9,3.7-7.1,7.9-10.6,12.3
				c-1.3,1.7-2.6,3.4-4,5c-2.3,2.8-4.9,4.1-8,4c-3-0.1-5.4-1.6-7.2-4.4c-1.5-2.3-4.2-4.1-7.6-5c-3.7-0.9-7.9-0.7-11.1,0.6
				c-5.5,2.3-10.5,5.5-15.1,10c-4.8,4.7-9.9,9.6-13.6,15.1c-2.3,3.4-5.4,3.9-7,3.9c0,0-0.1,0-0.1,0c-1.6,0-4.5-0.5-6.6-3.4
				c-1.3-1.9-3.3-3.5-5.3-5.3c-1.1-1-2.3-2-3.5-3.1c-4.9-4.7-11.5-6.5-21.7-5.8c-9.4,0.6-18.5,3.7-28.8,9.9
				c-0.7,0.4-1.4,0.8-2.1,1.3c-3.3,2-6.4,3.8-8.9,6c-7,6.1-12,11.8-15.6,17.8c-6.2,10.3-6.7,18.9-1.6,27.2c1.6,2.6,1.7,4.9,0.1,6.7
				c-1.5,1.8-4.1,2.7-7.6,2.6C332.3,401.7,332.1,401.7,332,401.7z M587.3,386.6C587.3,386.6,587.3,386.6,587.3,386.6
				C587.3,386.6,587.3,386.6,587.3,386.6z"/>
			<path d="M422.3,590.8c-1.8,0-3.6,0-5.4-0.1c-1.8,0-3.5-0.3-5-0.5c-0.6-0.1-1.1-0.2-1.7-0.2c-7.3-0.6-14.4-3.1-21-7.5
				c-6.2-4-10.5-9.6-13.1-16.5c-11.2,6.6-24.2,8.9-38.7,6.9l-0.8-0.1l-6.6-1.7l-1-1c-3.1-3.2-1.5-5.7-0.9-6.4
				c0.5-0.7,2.7-2.9,7.3-2.1c10.6,1.7,19-3,26.5-8.4c5.6-4,8.5-8.2,9-12.9c0.3-4.4,4.3-5.4,6.6-5.3c3.1,0.1,5.7,1.6,7.1,4.1
				c1.9,3.6,3,7.2,3.7,10.1c3,11.2,9.4,19.1,19.6,24.1c11.8,5.8,31.1,2.9,41.2-6.2c4-3.6,5.9-6.5,6.6-9.9c0.4-2.1-0.2-4.2-1.1-6.4
				c-9.3,3.1-18.5,2.8-27.3-0.8c-0.4-0.2-0.8-0.3-1.2-0.5l-0.6-0.3c-2.3-1.2-9.2-4.8-5.5-9.8c1.1-1.5,2.8-2.5,4.8-2.8
				c3.5-0.5,6.2,1.1,7.9,2.2c0.3,0.2,0.8,0.5,0.9,0.5c1.3,0.6,2.5,0.8,5.5,0.1c6.7-1.5,13.5-4.3,20.7-8.3
				c7.5-4.2,10.4-10.9,12.8-20.3c0.5-1.8,1.1-3.6,1.6-5l0.1-0.1c1.3-3.7,4.3-4.6,6.5-4.8c2.3-0.1,5.4,0.4,7.4,4
				c4.2,7.4,4.9,14.5,2.1,21.2l-0.4,0.8c-0.6,1.4-1.2,2.9-1.9,4.3c0.3,0,0.5,0,0.8-0.1c10.4-1.2,19.9-4.9,28.8-8.6
				c6.7-2.8,13-5.7,17.4-10.1c1.3-1.7,3-2.3,4.2-2.6c1.7-0.4,3.5-0.2,5.1,0.5c2.7,1.2,4.3,4,2.2,7.1l-0.2,0.3l-1.8,2.2
				c-0.4,0.4-0.7,0.9-1.1,1.3c9.7-0.2,17.8-2.6,24.5-7.3c-4.4-3.2-7.8-7.5-10.3-13.1l-1.9-4.2l5.4-1.4c3-0.8,5.7-0.2,8.3,1.7
				c5.9,4.4,13,5.4,22,5.6c6.1,0.2,12.5-0.9,19.1-3.2c5.2-1.8,10-4.6,15-7.6l0.2-0.1c2-1.2,4.2-2.3,6.2-3.4c3.9-2,7.6-4,10.6-6.5
				c1.8-1.5,2.4-4,1.8-6.2l-7.6,5.5l-0.9,0.5c-3.4,1.9-7.3,4.1-12.5,4.7l-0.1,0c-5.5,0.9-7.5-2.2-8-3.1c-0.5-0.9-1.7-4.1,2.8-6.5
				l1.4-0.9c2.5-1.6,4.8-3.1,6.5-4.9l0.1-0.1c5.2-5,8-10.2,8.4-15.9c0.3-4.2-0.8-7.8-3.4-10.9l-0.2-0.2c-0.3-0.4-0.8-0.9-1.2-1.6
				l0-0.1c-2.9-4,0.5-6.5,1.2-6.9c1-0.6,4.6-2.5,9.3,0.5c3.9,2.5,7.7,5.5,11.1,8.9c3.2,3.2,5.6,6.5,7.3,9.9l0.2,0.4
				c0.1,0.2,0.2,0.4,0.3,0.6c6.2-3.1,11.6-6.6,15.9-10.4c3-2.6,4.4-5,4.7-7.9l1.2-11.9l8.8,9.8c3.9,4.3,4.9,9.9,3.2,14.7
				c0.2-0.1,0.4-0.2,0.6-0.3c9.6-6,15.4-14.3,17.7-25.5c0.1-0.7,0.3-1.3,0.4-2c0.4-2,0.9-3.9,1-5.9l0.7-12l9.2,9.6
				c2,2.1,2.6,4.4,3.1,6.2c0.2,0.8,0.4,1.6,0.7,2.2l0.4,0.6l0.1,0.7c1.6,14.3-3.1,26.5-14.1,36.1c-8.7,7.7-18.9,10.2-31,7.7
				c0.9,8-2,15.7-8.8,23.5c-6.7,7.7-15.7,14.5-27.4,21c-11.9,6.6-24.5,11.3-37.4,14c-3,0.6-7.1,1.3-11.5,0.4c-4.3-0.5-7.9-2-11-3.3
				l-0.4-0.2c-0.1,0.1-0.2,0.1-0.3,0.2l-0.9,0.5c-5.9,3.5-11.9,7.1-18.9,9.8c-8.5,3.2-17.8,6-28.4,4.4c-3.3-0.5-6.5-1.4-9.9-2.8
				c-2.1,4.2-4.3,7.8-6.5,11.2c-8.6,12.8-19.9,23.1-33.6,30.7C468.2,586.2,447.9,590.8,422.3,590.8z M458.9,541.6
				c0.2,0.1,0.4,0.1,0.7,0.2c1.5,0.5,3.5,1.6,4.5,4.2c1.5,3.6,3.2,7.6,2.3,12.4c-1,5.1-3.8,9.5-9.1,14.3c-3.9,3.5-8.7,6.3-14,8.3
				c13.8-1.8,25.6-5.6,36.3-11.6c12.4-6.9,22.3-16,30.3-27.7c1.7-2.6,3.5-5.5,5.2-8.7c-7.5,2.8-15.8,5.4-24.7,6.4l-0.2,0
				c-0.8,0.1-1.6,0.1-2.4,0.2c-1.7,0.1-3.4,0.2-5,0.4c-4.7,0.5-6.8-1.3-7.7-2.4c-0.7-0.9-2.1-3.3,0.7-6.5c1.8-2,2.8-4.5,3.9-7.2
				l0.4-0.9c0.2-0.5,0.4-1,0.5-1.5c-2.5,6.1-6.6,11.9-14.2,16.2C463.7,539.2,461.3,540.4,458.9,541.6z M377.6,551.4
				c-1.8,2.5-4.1,4.9-7,7.1c0.2-0.1,0.4-0.2,0.6-0.4c2.6-1.7,4.8-3.2,7.6-3.1C378.3,553.8,377.9,552.6,377.6,551.4z M584.2,513.6
				c1.6,0,3.3,0.3,5.3,1.1l0.4,0.2c2.7,1.1,5.2,2.2,7.6,2.4l0.8,0.1c1.6,0.4,3.5,0.3,6.2-0.3c11.8-2.5,22.9-6.7,33.9-12.7
				c10.7-5.8,18.7-12,24.7-18.8c6.2-7,8.2-13.6,6.4-20.6c0-0.1-0.1-0.1-0.1-0.2c-1-2-1-3.5-0.4-4.7c-2.4,1.3-4.8,2.6-7.4,3.8
				c-2.4,1.1-5.5,2.5-8.8,1.3c-3.3-1.3-3.8-3.9-4.3-6.5c0-0.1-0.2-0.5-0.4-0.8l-0.3-0.5c-0.7-1.5-1.6-2.9-2.8-4.3
				c0,0.7,0,1.5-0.1,2.2c-0.3,3.6-1.2,7-2.9,10.3c1-0.4,2.2-0.6,3.6-0.5c1.5,0.1,3.6,0.6,5.5,2.5c5.6,5.6,5.2,14.5-0.8,19.8
				c-3.9,3.4-8.3,5.7-12.7,8c-2,1-3.9,2-5.6,3.1l-0.2,0.1c-5.3,3.2-10.8,6.4-17.3,8.6c-8.1,2.8-16.2,4.1-23.8,3.9
				c-4-0.1-8.3-0.4-12.6-1.1c0.8,0.9,1.5,2.2,1.6,3.6c0,0.4,0,0.8-0.1,1.2C580.9,514,582.4,513.6,584.2,513.6z M569.1,514.6
				L569.1,514.6L569.1,514.6z M688.7,459.3c5.7,0.2,10.4-1.6,15.1-5.7c1-0.9,2-1.8,2.8-2.7c-2.1,1.8-4.4,3.5-6.8,5.1
				C696.4,458,692.6,459.1,688.7,459.3z M675.2,456.5c1.3,0,2.8,0.3,4.5,1c0.1,0,0.1,0.1,0.2,0.1c-0.8-0.6-1.3-1.3-1.6-2
				c-0.2-0.4-0.4-0.9-0.4-1.3c-1,0.7-2,1.5-3.1,2.2C674.9,456.5,675,456.5,675.2,456.5z M629.1,441.8
				C629.1,441.8,629.1,441.8,629.1,441.8C629.1,441.8,629.1,441.8,629.1,441.8z"/>
			<path d="M495.7,568.3l13.8-26.3c0.7-1.4,1.4-2.7,2.1-4.1c1.7-3.2,3.4-6.6,5.2-9.9c1.3-2.4,3.3-3.3,4.8-3.7
				c3.3-0.9,6.1,0.5,7.6,1.2l0.3,0.1c5.9,2.7,11.6,3.6,17.3,2.6c8.4-1.4,16.2-5.1,23.3-8.9c2-1.1,4-2.3,6-3.6l1.7-1
				c3.1-1.9,6.7-2.3,10.2-1c2.6,1,5.2,1.9,7.8,2.8l20.3,7.2l-18.6,2.1c-5.2,0.6-9.4-1.3-12.4-2.7c-0.5-0.2-0.7-0.3-0.8-0.3
				c0,0-0.3,0.1-0.9,0.5c-6.9,4.3-15.3,9-25,12c-8,2.5-19.9,5-32.3-0.2c-0.2,0.4-0.4,0.8-0.6,1.3c-1.6,3.2-3.5,6.9-6.8,10
				L495.7,568.3z"/>
			<path d="M410.7,590c-12,0-20.4-5.7-25.6-10c-4.8-3.9-7.5-8.8-9.3-13.3c-10.7,6-22.6,8.3-35.5,6.9c-1.3-0.1-2.4-0.5-3.2-0.7
				c-0.2-0.1-0.4-0.1-0.6-0.2l-18.3-4.9l18.9-3.4c2.8-0.5,5.2-0.2,7.3,0c1,0.1,2,0.2,2.8,0.2c10.1-0.5,18.4-3,25.2-7.9
				c1.3-0.9,4.6-3.3,8.7-2.2c4.1,1,5,4.5,5.3,5.8c2.9,11.1,10.7,17.7,24,20.4c1.1,0.2,1.9,0.6,2.5,0.8c0.1,0.1,0.3,0.1,0.4,0.2
				l22.5,8.1l-24.8,0.1C410.8,590,410.8,590,410.7,590z"/>
			<path d="M489.7,539.4c-0.1,0-0.2,0-0.3,0l-18.4-0.1l15.5-7.8c2.7-1.4,5.5-1.8,7.8-2.2c0.9-0.2,1.8-0.3,2.6-0.5
				c10.3-2.5,20.7-6.6,32.7-13c0.5-0.3,1.2-0.9,1.9-1.5c1.4-1.2,3-2.8,5.7-3.8l11.7-4.3l-4.2,9.6c-1.6,3.6-5,5.8-8.1,7.4
				c-2.4,1.2-4.8,2.6-7.1,3.8c-1.6,0.9-3.1,1.7-4.7,2.6c-2.4,1.3-5,2.1-7.3,2.7c-1,0.3-2,0.6-2.9,0.9c-1.1,0.4-2.1,0.8-3.2,1.2
				C504.7,536.9,497.9,539.4,489.7,539.4z"/>
			<path d="M539,524.7l-1.6-4.8l-9.5,3.4l6.6-10.7c0.5-0.9,1.1-1.7,1.7-2.6c1.9-2.7,3.1-4.5,2.8-6.6c-0.3-1.8,0.4-3.5,1.9-4.6
				c1.4-1.1,3.3-1.6,5.3-1.4c2.5,0.2,5.6,1.8,6,5.2c0.6,4.7-1.5,8.7-3.4,11.6c-0.7,1.1-1.6,2-2.3,2.6c-0.2,0.2-0.5,0.4-0.7,0.6
				L539,524.7z"/>
			<path d="M620,486.7c-2.1,0-3.7-0.5-4.7-1.2l-9.8-0.1l7.1-4.8c0.1-1.5,1.1-3.4,4.7-4.8l0.2-0.1c1.1-0.5,2.2-1.3,3.5-2.3
				c1.7-1.4,3.7-2.9,6.4-4l9.5-3.7l-1.2,6.1l18.1-6.1l-16.5,14.5c-3.8,3.3-8.7,5.4-14.9,6.4C621.5,486.6,620.7,486.7,620,486.7z"/>
		</g>
		<g>
			<path d="M409.8,796.9l-4.4,0.1c-13.1,0.2-22.2-2.6-28.7-8.9c-3.5-3.5-4.7-8.4-3.3-13.6c0-0.6,0.2-1.1,0.3-1.4
				c0.1-0.4,0.2-0.8,0.3-1.2c-0.4-0.1-0.8-0.1-1-0.1c-4.3-0.5-7.4-2.4-9.4-3.8c-9.3-6.6-12.9-16.1-10.9-28.3c0.7-4,1.9-7.8,3-11.6
				c0.3-1.1,0.6-2.1,1-3.2c0.6-2.1,1.8-3.9,2.8-5.5c0.6-0.9,1.1-1.8,1.5-2.6c3.2-7,8-13,14.2-17.8c2.1-1.6,4.3-2.7,6.3-3.6
				c-0.1-0.2-0.2-0.4-0.4-0.6c-1.1-1.7-2.2-3.5-3-5.6c-3.4-9-2.3-17.2,3.1-25.2c1.6-2.3,3.8-4.1,7-5.4l0.8-0.3c2.2-1,4.4-2,7-2.5
				c1.1-0.2,4.3-1,6.4,0.9c0.6-1.5,1.2-3,1.9-4.5c1.6-3.5,3.5-6.8,5.5-10.1c-0.5,0.2-0.9,0.3-1.3,0.3c-1.4,0.2-4.1,0.2-6.2-2.7
				c-4.6-6.2-4.7-13.9-4.4-19.1c0.4-6.7,2.6-13.4,6.5-19.9c5-8.2,12.1-13.1,20.5-14.2c0.7-0.1,1.5-0.3,2.4-0.4c0.1,0,0.2,0,0.3-0.1
				c-0.2-0.5-0.3-1-0.5-1.4c-0.7-1.8-1.4-3.6-1.6-5.8c-1-8.7-0.5-16.6,1.7-24.2c0.4-1.3,0.7-2.6,1.1-3.8c1.9-6.9,3.9-14.1,7.7-21.1
				c4.6-8.4,11.2-13.4,19.6-14.9c3.5-0.6,7-0.4,11.1,0.8c6.2,1.7,10.2,4.6,12.7,9.1c3.2,5.8,2.6,12.2,1.8,17c-0.2,1-0.6,2.2-1.4,3.6
				c1.2,0,2.4,0.1,3.6,0.4c3,0.6,6.3,1.3,9.3,2.6c-0.3-1.2-0.1-2.7,0.9-4.5c1.8-3.3,5.1-5.2,8.8-5.3c0.8,0,1.6,0,2.3,0
				c4.7-0.1,9.6-0.2,14.4,0.6c0.6-3.5,2.3-6.7,3.7-9.4c4-7.6,10-13.7,14.8-18.1c3.4-3.1,7.4-4.7,10.6-6c0.1,0,0.4-0.2,0.6-0.4
				l0.7-0.4l0.7-0.2c5.6-1.5,10.5-2.2,15-2.2c8.9,0,18.2,4.1,18.6,13.4c0.1,1.9-0.1,3.8-0.6,5.9l3.5-1.5l-0.5,4.9
				c-0.2,2.3-2,4.8-4.7,6.7c-1.5,1-3,1.7-4.3,1.9c2.1,1.9,2.9,5,2.4,9c-0.5,4.4-1.8,9-3.7,14c-3.3,8.4-10.2,13-17.2,16.7
				c-1.9,1-3.7,1.6-5.4,2.1c1.5,4,1,8.7-1.3,13.8c-0.6,1.3-1.1,2.5-1.6,3.8c-1.2,2.8-2.5,5.8-4,8.7c-0.7,1.2-1.5,2.4-2.5,3.6
				c-2.7,3.1-5.3,3.4-7,3.1c-1.1-0.2-1.9-0.6-2.5-1.3c-1,5.6-3.7,10.6-5.9,14.3c-3.8,6.2-9.3,11.1-15.8,14.2
				c-4.3,2.1-8.7,2.6-12.6,3.1c2,2.7,2.8,6.1,3.2,9.1c0.6,4.6-0.7,9.1-1.8,13.1c-0.3,1-0.6,2-0.8,2.9c-1.7,6.6-4.1,13.7-7.4,21.7
				c-0.9,2.1-2.2,3.8-3.3,5.1c-0.5,0.6-1,1.2-1.3,1.7c-1.7,2.5-4.9,3.6-7.5,2.7c-0.6-0.2-1.2-0.6-1.6-1c0,0.1-0.1,0.1-0.1,0.2
				c-2.1,3.7-5,8.5-9.2,12.5c0.5,0,1,0,1.4,0.1c1.3,0.2,3,1.1,3.8,3.7c0.6,2.1,0.7,4.5,0.3,6.7c-1.7,8-5,15.1-10.2,21.9
				c-5.8,7.7-13.7,11.6-23.3,11.9c-5.7,0.1-10.9-1-15-3.3c-1.8-1-2.7-2.7-2.7-4.8c-1,1.3-2.1,2.5-3.3,3.7c0.6-0.1,1.2-0.1,1.8,0
				c3.8,0.5,5,4.3,5.6,7c0.1,0.6,0.1,1.2,0.1,1.5c0,0,0,0.1,0,0.1c1.8,6.3-1.4,12.1-4.8,17c-2.6,3.8-6.3,7.1-10.5,9.5
				c-4.2,2.4-8,4.3-11.6,5.6c0.2,0,0.4,0.1,0.6,0.1c0.8,0.1,1.7,0.2,2.5,0.4c0.1,0,0.2,0,0.4,0c3.2,0.4,4.8,2,4.6,4.8L409.8,796.9z
				 M432.3,741.2c3.2,1.7,7.1,2.6,11.6,2.5c6.9-0.2,11.9-2.7,15.9-7.9c4.3-5.7,7.1-11.7,8.5-18.4c0.2-0.8,0.2-1.8,0-2.6
				c-1.3,1-3,2.2-5.1,2.9l-0.3,0.1c-1.1,0.4-4.6,1.5-6.4-1.1c-0.7-1-1.8-3.7,2.1-7.4c1-1,2-2.1,3.1-3.2c1.1-1.2,2.3-2.5,3.6-3.8
				c3.3-3.1,5.6-7,7.5-10.3c3.1-5.6,4.4-11.6,5.6-17.9c0.1-0.6,0.2-1.2,0.3-1.8c0.2-1,0.3-2,0.6-3.2l1.9-9.4l5.1,6.6
				c1.6,2.1,1.9,4.2,2,5.9c0.1,2.6,0,5.2-0.5,8c2.3-6,4.1-11.4,5.4-16.5c0.3-1,0.6-2.1,0.9-3.1c1-3.6,2-7,1.6-10.3
				c-0.8-5.7-2.5-8.3-6.3-9.3c-0.1,0-0.3-0.1-0.4-0.1l-5.2,3.8c-0.1-0.2-0.3-0.3-0.4-0.5c-0.3-0.3-0.5-0.6-0.8-0.9
				c-0.9-0.8-1.9-1.4-3.4-1.8c-2.3-0.7-4.9-1-8.2-0.8l-0.2,0c-2,0.1-4.7,0.3-7.6-1.1l-6.8-3.4l8.5-3.3c5.8-2.3,10.3-3.1,14.8-2.6
				c0.8,0.1,1.7,0.2,2.5,0.2c0.9,0.1,1.8,0.1,2.7,0.2c4.4-6.3,7.6-11.7,9.2-17.6c0.8-3.2,3.1-4.4,4.5-4.9l2.7-0.9l1.2,2
				c1,1.7,1.4,3.7,1.1,6.1c-0.1,1.3-0.2,2.6-0.3,4c-0.2,3.7-0.4,7.5-1.6,11.6c0,0,0,0.1,0,0.1c3.1-0.4,6.2-0.9,8.9-2.2
				c4.7-2.2,8.6-5.7,11.4-10.3c4.2-6.8,5.7-12.1,4.9-17.2c-0.4-2.2-0.7-4.4-0.6-6.7l0.1-3.4l3.7-0.9c2-0.5,3.3,0.1,3.7,0.3
				c3.6,1.6,5.9,4,6.8,7.1c1-2,1.9-4.1,2.8-6.3c0.6-1.3,1.1-2.7,1.7-4c1.8-4,1.9-7.2,0.3-10c-1.2-2-0.7-3.8-0.1-4.9
				c1.3-2.4,3.8-3.3,4.7-3.6c0.7-0.2,1.4-0.4,2-0.7c1.6-0.5,3.1-1,4.4-1.6c6.2-3.2,10.4-6.3,12.4-11.5c1.7-4.3,2.7-8.3,3.2-12.1
				c0.4-3.3-0.4-4.2-1.8-4.7c-2.7-1-2.8-3.6-2.9-4.9l0-0.1c-0.1-3.1-1.2-5.3-3.6-6.8c-0.2-0.1-0.4-0.3-0.6-0.4
				c-1.2-0.8-2.7-1.7-3.6-3.5l-1.4-2.7l3.2-2.2c2.7-1.9,5-1.5,6.1-1.3l0.2,0c2.2,0.3,4,1,5.6,2c0.2-2.4-1.1-4-3.1-5.9l-1.7,0.1
				l-0.4-2.5c0-0.2,0-0.3,0-0.5c-1.4-0.3-2.9-0.4-4.3-0.4c-3.6,0-7.6,0.6-12.2,1.8c-0.4,0.3-1,0.6-1.6,0.8c-3.1,1.3-5.6,2.4-7.4,4
				c-4.2,3.9-9.4,9.1-12.7,15.4c-1.5,2.9-3,5.7-3,8.5c0,2.8-1.3,4.4-2.5,5.4c-1.1,0.9-3.1,1.8-5.8,1.2c-4.7-1.1-9.8-1-15.2-0.9
				c-0.8,0-1.6,0-2.4,0c0,0-0.1,0-0.1,0c0.1,0.1,0.2,0.2,0.3,0.3l0.1,0.1c0.4,0.4,0.9,0.8,1.4,1.3c1.1,0.9,2.4,2,3.3,3.8
				c2.7,5.7,1.8,11.9,0.9,17.8l-2.1,13.9l-5.3-11c-0.5-1-0.6-1.9-0.7-2.6c0-0.2,0-0.3-0.1-0.5c-1-5.7-3-9.5-6.4-11.8
				c-3.3-2.2-7.7-3.2-11.9-4.1c-2.5-0.5-5-0.1-8.1,1.6c-1.1,0.6-1.9,1.6-3.3,3.4c-0.6,0.7-1.1,1.4-1.8,2.2l-5.6-3.6
				c3.2-4.2,6.5-8.3,10.6-12c1-0.9,1.5-1.7,1.7-2.3c1-5.7,0.7-9.6-1.2-13c-1.8-3.2-4.7-5.2-9.3-6.5c-3-0.8-5.5-1.1-7.9-0.6
				c-5.5,1-9.5,4.1-12.6,9.8c-3.3,6.1-5.1,12.5-7,19.2c-0.4,1.3-0.7,2.6-1.1,3.9c-1.9,6.7-2.4,13.7-1.5,21.5
				c0.2,1.5,0.7,2.9,1.3,4.5c0.4,1,0.8,2.1,1.1,3.3c0.3,1,1,3.5-0.8,5.9c-1.8,2.4-4.6,2.8-5.7,3c-0.6,0.1-1.2,0.2-1.8,0.3
				c-1,0.2-2,0.4-3,0.5c-5.6,0.7-9.8,3.7-13.3,9.4c-3.2,5.3-5,10.7-5.3,16.1c-0.4,6.9,0.6,11.7,3.3,15.4c0,0.1,0.1,0.1,0.1,0.2
				c0,0,0-0.1,0.1-0.1c5.4-7.8,12.3-13.5,20.6-16.9c1-0.4,3.6-1.5,5.9,0l3.6,2.3l-4.1,3.4c-0.9,0.7-1.8,1.5-2.7,2.2
				c-1.7,1.3-3.2,2.6-4.5,3.9c-7,7.2-12.5,15.1-16.8,24.2c-1.7,3.6-2.9,7.4-3.9,12c-0.5,2.4-0.2,4.8,0.2,7.4l0.8,5.8l-5.3,0
				c-2.8,0-3.8-1.7-4.3-2.5c0-0.1-0.1-0.1-0.1-0.2c-2.4-3.7-3.1-8.1-2.3-13.1c0-0.1,0-0.3,0.1-0.4c-0.1,0-0.2,0-0.3,0.1
				c-1.6,0.4-3.4,1.1-5.2,1.9l-0.8,0.4c-1.3,0.6-2.2,1.2-2.6,1.8c-3.9,5.7-4.5,11.6-1.9,18.5c0.6,1.6,1.5,3.1,2.5,4.6
				c0.5,0.8,1,1.6,1.5,2.5c0.4,0.7,1.4,2.5,0.3,4.8c-1.1,2.3-3.3,3.3-4.3,3.7l-1,0.4c-2,0.9-3.9,1.7-5.5,2.9c-5,3.8-8.6,8.4-11.2,14
				c-0.6,1.4-1.4,2.6-2.1,3.7c-0.8,1.2-1.5,2.3-1.8,3.3c-0.3,1.1-0.7,2.2-1,3.2c-1.1,3.6-2.2,7.1-2.8,10.5
				c-1.6,9.8,1.2,17.2,8.7,22.6c2.3,1.7,4.4,2.5,6.6,2.8c6.2,0.8,6.9,2.8,5.5,8.5c0,0,0,0,0,0l0.1,0.3l-0.3,1
				c-0.9,3.1-0.3,6,1.9,8.1c0.8,0.7,1.6,1.4,2.4,2.1l2.5-0.4c0.2,0,0.6-0.1,1-0.3c0.7-0.2,1.5-0.5,2.4-0.6c6-0.8,12.1-3.1,19.8-7.5
				c2.9-1.6,5.3-3.8,7.1-6.4c2.9-4.2,4.5-7.4,3.5-10.8c-0.2-0.7-0.2-1.4-0.2-1.9c0-0.1,0-0.1,0-0.2c-0.3-1.4-0.7-2.1-0.9-2.5
				c-0.3,0.2-0.6,0.5-1.2,0.9c-2.6,2.4-5.7,3.7-8.9,3.8c-3.2,0.1-5.7-0.8-8.1-1.7c-0.7-0.3-1.5-0.6-2.3-0.8l-7.8-2.5l8.6-4.2
				c2-1,3.6-1.2,4.7-1.3c0.2,0,0.3,0,0.5-0.1c3.2-0.5,6.3-2.1,9.4-5c5.1-4.7,8.4-10.6,10.8-20c1.1-4.3,1.5-8.6,1.9-13.5l0.8-10
				l6.1,6c2.6,2.6,4.1,5.2,5.4,7.6c2.2,3.8,1.8,8.3-1.1,12.5c-2.5,3.7-4.1,7.8-5.7,12.1C433.2,738.9,432.8,740,432.3,741.2
				C432.3,741.2,432.3,741.2,432.3,741.2z M420.8,753.8L420.8,753.8L420.8,753.8z M491.2,633.5c0.5,0.1,0.9,0.2,1.2,0.3
				c0.2,0.1,0.4,0.1,0.5,0.2c0.5,0.1,0.9,0.3,1.3,0.4c-0.2-1.1-0.2-2.4,0.2-3.7c0.3-1.1,0.6-2.2,0.7-3.3
				C493.9,629.5,492.5,631.5,491.2,633.5z M572.5,520.4L572.5,520.4L572.5,520.4z M408.5,635.3L408.5,635.3L408.5,635.3z
				 M428.2,587.9L428.2,587.9L428.2,587.9z M430.1,585.4L430.1,585.4L430.1,585.4z"/>
			<path d="M506.2,769c-2.8,2.4-6,4.4-9.3,5.9c-9.8,4.4-19.6,4.4-29.2,0c-1.3-0.6-2.5-1.2-3.8-2c0,0.9-0.1,1.8-0.2,2.7
				c-1.1,7.7-4,18.8-15.8,27.1l-0.2,0.5l-0.9,0.8c-3.1,2.5-6.4,2.8-8.8,3l-0.3,0c-9.3,0.9-15.6-1.3-19.5-6.7
				c-0.2-0.2-0.5-0.5-0.8-0.9c-1.4-2.4-3.2-3.1-6.4-2.4c-1.6,0.3-3.1,0.3-4.4,0.2c-0.4,0-0.9-0.1-1.3-0.1l-0.5,0l-0.4-0.1
				c-2.2-0.6-4.6-0.9-7.1-1.1l-0.7-0.1c-5.2-0.5-9.8-2.3-14-4.2l-0.2-0.1c-0.8-0.3-2.4-0.9-2.9-2.7c-0.3-1.1,0-2.4,0.7-3.6
				c0.6-1,3-4.2,7.7-2.6c0.2,0.1,0.5,0.1,1.3-0.1c1.8-0.5,3.5-0.9,5.2-1.3c3.3-0.8,6.5-1.5,9.4-2.9l0.1-0.1
				c4.7-2.4,9.2-4.7,12.1-8.3c2.9-3.6,4.5-6.3,4.1-9.3c-0.1-0.8-0.2-1.6-0.2-2.3c0-0.6-0.1-1.3-0.1-1.8c0-0.1,0-0.2-0.1-0.3
				c-3.1,2.8-6.7,4.2-10.7,4c-3.6-0.2-6.5-1.4-9.3-2.5c-0.7-0.3-1.4-0.6-2.1-0.8c-2.5-0.9-3.3-3.5-2.1-6.1c0.6-1.3,2.5-4.2,7-3.7
				c4.6,0.6,8.6-1.2,12.9-5.6c7.6-7.9,9.7-17.3,10.8-26.3c0.2-1.9,0.4-4.2,0-6.3l0-0.1c-0.9-3.7,2.3-5.7,2.9-6.1
				c1-0.6,3.6-1.6,5.9,0.7c2.1,2.1,3.7,4.5,5.3,6.9l0.4,0.6c3.6,5.3,2.9,11.5-2.1,18.5c-1.5,2-2.3,4.5-3.2,7.1
				c-0.5,1.4-0.9,2.7-1.5,4.2c0.1,0.1,0.3,0.1,0.4,0.2c1.4,0.6,2.6,1.1,3.8,1c1.8-0.2,3.2,0.2,4.4,0.5c0.9,0.2,1.6,0.4,2.3,0.3
				c6.4-0.6,10.6-2.8,14.3-7.6c4.4-5.9,7-11.6,7.7-17.3c-2.4,1.4-5,2.3-8,2.5l-0.2,0c-0.9,0.1-3.8,0.4-5-2.2
				c-1.3-2.8,0.9-5.4,1.6-6.2c1.8-2.2,3.8-4.3,5.7-6.2c1.4-1.4,2.7-2.8,4-4.2c4.7-5.3,7.5-9.7,9-14.1c2.3-6.8,3.6-12.8,4.1-18.4
				c0-0.1,0-0.1,0-0.2c0.1-4.9,4.1-6.1,4.9-6.2c1.4-0.3,4-0.4,5,2.7c0,0.1,0,0.1,0.1,0.2c1.1,2,1.7,4,1.9,6.1c1.2-4,2.4-8,3.4-11.9
				c1.5-5.3,1.6-9,0.4-12.4c-0.3-0.9-0.7-1.7-1.2-2.3l0.5,4.1l-4.6,0.6c-1.2,0.2-3.4,0.1-4.4-2.3c-1.9-3.9-5.5-5.3-11.9-5
				c-1.6,0.1-3.1,0-4.5-0.1c-1.4-0.1-2.8-0.1-4.1,0c-2.7,0.2-4.5-1.4-4.6-3.8c0-1.1,0.4-4,4.5-5.8c6.5-2.9,12.2-3.9,17.4-3.2l0.1,0
				c1.4,0.2,2.8,0.4,3.6,0.4c0.5-0.6,1.4-2,2.2-3.2c3.3-5.1,6.5-10.7,7.1-16.8c0.3-3.7,3.5-4.9,4.1-5c0.7-0.2,3.2-0.8,4.8,1.5
				c1.3,2.1,3.1,5.3,2.6,9.4c-0.2,1.5-0.2,2.9-0.3,4.5c-0.2,3.2-0.3,6.5-1.3,10c4.1-0.8,7.3-1.7,10.2-3.8c4.6-3.4,8-7.8,10.3-13.4
				c2-5,2.4-9.7,1.2-14.6c-0.1-0.4-0.4-0.8-0.8-1.3l-0.1,0c-2.4-2.1-1.1-4.7-0.4-5.7c0.7-1,2.8-3.4,6.5-2.6c4.1,0.8,8.1,3,10.3,6.3
				c1.6-3.4,3.2-6.7,4.1-10.1c0.6-2.1,0.5-3.8-0.1-5.2l-3.8-1.2l3-0.2c-0.3-0.4-0.6-0.7-1-1c-2.7-2-1.1-4.7-0.7-5.3
				c1.1-1.8,3.1-2.7,4.5-2.9c3.5-0.6,6.6-1.6,9.7-3.1c7.6-3.8,11.1-7.4,12.3-13.1c0.3-1.4,0.7-2.7,1-3.9c0.7-2.4,1.3-4.4,1.1-6.3
				c0-0.5-0.1-1.2-0.2-1.6c0,0-0.1,0-0.1,0c-1.4,0.1-2.6-0.2-3.4-1c-1.4-1.3-1.1-3.3-1-3.9c0.6-4.7-1.5-7.6-7.3-10.2l-0.1,0
				c-2-0.6-3-1.8-2.9-3.6c0-0.4,0.2-4.3,5-5.5l0.1,0c3.8-1.4,7.3-1.5,10.4-0.4c-0.7-1.1-1.9-2.1-3.5-3.3c-0.1,0-0.2-0.1-0.3-0.1
				c-0.3-0.1-0.7-0.3-1.2-0.5c-3.1-1.8-1.7-4.8-1.4-5.4c0.4-0.8,2-3.3,5.6-3.2c4.3,0.1,8.1,2.5,10.6,6.5c2.1,3.6,2.8,7.8,1.7,11.7
				c3.6-1.6,7.7-1.4,10.1-1.1c5.8,0.8,10.2,3.3,11.9,6.8l1.2,2.5l-1.5,1.2c4.4,9.1,4.8,18.5,1.3,28.4c-1.3,3.6-3.9,6.8-7.3,9
				c-3,1.9-5.2,1.9-6.4,1.6c-0.6,2.1-1.3,4.1-2,5.9l-0.3,0.9c-0.8,2.3-1.7,4.8-3.4,7.3c-1,1.6-2.4,2.8-3.8,3.5
				c0.3,0.1,0.6,0.1,0.9,0.2c7.8,1.8,11.1,8.2,8.3,16.2c-1.5,4.3-3.2,8.6-4.9,12.8c-0.9,2.1-1.7,4.2-2.5,6.4
				c-2.2,5.7-5.5,10.9-10.1,15.9c-3.5,3.8-7.3,7-11.2,9.4c1.1,0.8,2,2.3,1.9,5c-0.1,2.9-1,6-2.9,9.6c-4,7.9-9.7,14.2-16.8,18.8
				c-1.7,1.1-3.5,1.6-5,1.5c-2.2,3.3-3.9,6.9-5.5,10.3c-1.5,3.3-3.6,6.2-5.6,9c-1.3,1.9-2.6,3.6-3.7,5.5l-0.3,0.5l-0.4,0.5
				c-2,2.1-3.8,3.7-5.5,5.2c0,0,0,0,0,0c-2.9,2.4-5.2,2.4-6.3,2.1c-0.6-0.1-1.4-0.4-2.1-1.1c-0.5,2.9-1.4,5.6-2.8,8.3
				c2-0.2,3.8,0.6,5.5,1.5c6.6,3.7,9.3,10.1,7.9,19C519.5,753.4,514,762.6,506.2,769z M454.9,761.6l5.5,0.3c2.3,0.1,3.6,1.1,4.5,1.7
				c2.7,2,5,3.4,7.4,4.5c7.8,3.6,15.3,3.7,22.8,0.3c9.4-4.2,16.8-13.8,18.3-23.7c1-6.5-0.6-10.5-5.2-13.1c-0.5-0.3-0.8-0.4-1.1-0.5
				c-0.2,0.2-0.4,0.5-0.6,0.9c-4.2,6.6-9.8,10.8-16.6,12.6l-0.6-7c1.8-0.6,3-1.4,4.2-2.9c2.1-2.7,3.7-5.7,5.3-8.9
				c0.6-1.3,1.3-2.5,1.9-3.7c2.1-3.8,2.8-7.9,2.2-12.5c-0.3-2.7-1.4-5.1-2.5-7.7c-0.4-0.9-0.7-1.7-1.1-2.6c0-0.1-0.1-0.1-0.1-0.2
				c-1.8-3.6,1-6.1,2-6.7c1.5-1.1,3.9-2,6.5,0.1l0.1,0.1c3.2,2.4,6.6,5.5,7.5,10.7c0.1,0.8,0.3,1.6,0.5,2.4c0.2,0.7,0.3,1.4,0.4,2.1
				c0.8-0.7,1.7-1.6,2.6-2.5c1.2-2,2.6-3.9,3.9-5.7c1.8-2.5,3.5-4.9,4.7-7.4c1.9-4.1,4-8.4,6.9-12.6c0.9-1.3,1.1-3.1,1.4-5.2
				c0.1-0.9,0.2-1.8,0.4-2.7l0-0.2c0-0.1,0.1-0.3,0.1-0.4c0-0.5,0.1-1.4,0-2.2c0-1.9-0.3-2.7-0.5-3.1l7-4.4c0.8,1.4,1,3.4,1.1,5.4
				c0,1,0,2,0,3c0,0.7-0.1,1.3-0.1,1.9c0,1-0.1,2.1-0.2,3.2c4.7-3.5,8.5-8,11.3-13.6c1.3-2.5,1.9-4.5,2-6.2
				c-3.6,0.2-6.7-0.3-9.4-0.9l-16.1-3.3l17.7-3.9c7.1-1.5,13.5-5.5,19.5-12c3.8-4.1,6.4-8.3,8.2-12.8c0.8-2.2,1.7-4.3,2.6-6.5
				c1.6-4.1,3.3-8.2,4.7-12.4c1.4-4,0-7-3.7-8.1c-0.5,1.6-0.9,3.2-1.3,4.9c-0.2,0.9-0.4,1.8-0.7,2.7l-0.1,0.5
				c-0.2,0.5-0.4,1-0.5,1.5c-0.8,2.4-1.8,5.3-4.6,7.9l-10.4,9.6l4.5-12.3c0.2-0.5,0.3-1.3,0.4-2.1c0.2-1.6,0.5-3.7,1.9-5.9
				c0.5-3.8-0.1-7.4-1.8-11.2c-1.6-3.5-4.3-5.8-8.2-7l-6.9-2.1c-0.1,1-0.3,2-0.6,3c-1.3,4.6-3.4,9-5.4,13.2
				c-0.6,1.2-1.2,2.4-1.7,3.6c-0.5,1.1-1.2,2-1.7,2.6c-0.1,0.1-0.2,0.2-0.3,0.4c-2.2,2.8-4.4,2.9-5.5,2.8c-0.6-0.1-3.6-0.7-2.8-4.5
				c0.3-1.5-0.3-2.9-1.4-4.1c0.5,4.9-0.2,9.9-2.3,15c-2.9,7.3-7.6,13.3-13.7,17.8c-5.1,3.7-10.4,4.9-15,5.7c-2.7,0.5-4.7,0-5.8-1.3
				c-0.8-0.9-1.5-2.5-0.6-5.3c0.9-2.9,1.1-5.8,1.3-8.9c-1.3,2.6-2.9,5.1-4.4,7.4c-1.7,2.6-3.1,4.4-4.4,5.6c0.7-0.1,1.5-0.1,2.4,0
				c5,0.8,8.5,3.7,10.2,8.5c1.6,4.6,1.5,9.6-0.3,16.3c-2.2,8-4.7,17-8.4,25.7l-0.1,0.3c-0.4,1-1.1,2.6-2.7,4c0,0.1-0.1,0.1-0.1,0.2
				c-0.5,1-1.4,2.9-3.5,3.9c-0.8,0.4-2.3,0.9-4,0.2c-1.3-0.5-1.9-1.3-2.1-2.3c-2.6,5.5-6.3,10.1-9.4,13.6c-1.4,1.6-2.9,3.1-4.3,4.5
				c-0.5,0.5-0.9,0.9-1.3,1.4c0.1-0.1,0.2-0.2,0.3-0.2c0,0,0.1-0.1,0.2-0.2c3.2-3.4,5.8-2.9,7.1-2.3c2.7,1.2,2.5,4.1,2.4,5.5l0,0.3
				c-0.4,8.1-3.5,15.9-9.6,24c-5.3,7.1-12.3,10.9-21.2,11.7c-1.8,0.2-3.3-0.2-4.5-0.5c-0.8-0.2-1.5-0.4-2.1-0.3
				c-3,0.3-5.1-0.7-7.1-1.5c-0.4-0.2-0.8-0.4-1.3-0.5c-2.6-1-3.6-3.8-2.2-6.7c0.7-1.4,1.2-3,1.8-4.6c1-3,2.2-6.4,4.5-9.6
				c3.1-4.3,3.5-7.3,1.4-10.4l-0.3-0.5c-1.3,9.7-4,20.8-13.3,30.4c-3.2,3.3-6.5,5.6-9.9,7c0.2,0,0.4,0,0.6,0
				c2.1,0.1,3.1-0.5,4.1-1.4c2.7-2.6,5.3-3.7,7.6-3.4c2.5,0.4,4,2.3,4.5,5.8c0.1,0.9,0.2,1.7,0.2,2.4c0,0.6,0.1,1.2,0.1,1.7
				c0.8,5.9-2.4,10.9-6,15.4c-4.3,5.3-10.2,8.4-15.4,11l-0.1,0.1c-3.5,1.8-6.9,2.7-10.1,3.4c1,0.2,2,0.4,3.1,0.5l0.7,0.1
				c2.6,0.3,5.2,0.5,7.8,1.2c0.4,0,0.8,0,1.2,0.1c0.8,0.1,1.7,0.1,2.3,0c6-1.3,10.5,0.4,13.1,4.7c0.2,0.1,0.4,0.3,0.5,0.6
				c2.7,3.9,7,5.3,14,4.6l0.3,0c1.2-0.1,2.4-0.2,3.2-0.6c0.5-0.7,1.1-1.2,1.9-1.7c6.9-4.7,10.6-11.2,12.1-21.1
				c0.3-2.4,0-4.8-0.4-7.4c-0.1-0.7-0.2-1.4-0.3-2.1L454.9,761.6z M418.1,800C418.1,800,418.1,800,418.1,800
				C418.1,800,418.1,800,418.1,800z M424.4,794.7C424.4,794.7,424.4,794.7,424.4,794.7C424.4,794.7,424.4,794.7,424.4,794.7z
				 M421,755L421,755L421,755z M576.2,589.2c0.3-0.2,0.6-0.4,0.9-0.6c0.3-0.2,0.5-0.3,0.8-0.4c-0.9-0.2-1.7-0.7-2.4-1.4
				c-0.3-0.3-0.5-0.5-0.8-0.7c0.1,0.2,0.1,0.3,0.2,0.5c0.4,0.9,0.8,1.9,1.1,2.8C576.1,589.3,576.1,589.2,576.2,589.2z M579.6,581.5
				L579.6,581.5L579.6,581.5z M552.5,577.2l9.6-0.7c2.5-0.2,4.9-0.1,6.9,0.1l0.8,0.1c3.5,0.4,7.5,0.9,10.6,3.3
				c0.6-1.3,1.2-2.7,1.7-4.1l0.4-1c2.2-6.1,3.9-11.2,2.8-16.7l-2.7-14l9.5,9.7c2.1,2.2,3.9,4.3,4.1,7.6c1-1,1.6-2.1,1.9-3
				c3.4-9.5,2.2-18.5-3.4-27.4l1.4-1.1c-1.4-1.1-3.7-2.1-6.3-2.4c-2.7-0.4-4.6,0-5.4,0.4c-1.1,1.1-2.3,1.8-3.3,2.4
				c-0.4,0.3-0.9,0.5-1.2,0.7c-2.1,1.5-4.5,1.8-6,0.6c-0.1-0.1-0.2-0.2-0.3-0.3c0,0.6,0,1.2,0,1.8c4.2,0.7,4.5,4.8,4.6,6.7
				c0.2,3.2-0.7,6.2-1.4,8.9c-0.3,1.2-0.7,2.3-0.9,3.3c-2.3,10.9-10.6,16.3-17.6,19.7c-2.2,1.1-4.4,2-6.7,2.7
				C551.9,575.4,552.3,576.3,552.5,577.2z M594.5,562.9L594.5,562.9L594.5,562.9z M503,631.2L503,631.2L503,631.2z M502,629.9
				C502,629.9,502,629.9,502,629.9S502,629.9,502,629.9z M599.4,527.5l1.6-1.3c-0.7-0.1-1.6,0.1-2.2,0.5L599.4,527.5z M576.2,525.7
				C576.2,525.7,576.2,525.7,576.2,525.7C576.2,525.7,576.2,525.7,576.2,525.7z M571.9,525.7c0.3,0.6,0.6,1.2,0.9,1.8
				c0.1-0.2,0.1-0.5,0.2-0.7l0.5-1.2C572.9,525.7,572.4,525.8,571.9,525.7z M560.5,516.3C560.5,516.3,560.5,516.3,560.5,516.3
				C560.5,516.3,560.5,516.3,560.5,516.3z"/>
			<path d="M374.3,791l-0.8-16c0-0.9-0.1-1.9-0.2-2.4c-0.6-0.1-1.8-0.2-2.8-0.4c-6.5-0.7-12.7-2.3-18.4-5
				c-9.1-4.2-14.2-10.7-15.3-19.2c-0.4-3.4,0.2-6.7,0.8-10c0.1-0.6,0.2-1.2,0.3-1.7c0.9-5.1,3.3-9.6,5.7-13.9c0.3-0.6,0.7-1.3,1-1.9
				c0.6-1.1,1.1-2.1,1.6-3.2c2-4,4.1-8,7.3-11.9c1.1-1.2,2.2-2.6,3.5-3.9c-7.6-3.4-12-10-13.6-20.1c-0.9-5.9-0.8-12.5,0.4-20.1
				c0.5-3.2,1.6-6.2,2.6-9.2c0.2-0.6,0.4-1.1,0.6-1.7c3.5-10.1,8.1-17.6,14.5-23.7c7.6-7.1,15-10.3,22.5-9.8c1,0.1,2,0.1,3.1,0.1
				c1.2,0,2.5,0,3.8,0.1c-0.2-4.7,0.3-9.5,0.8-13.7c0.6-5.8,2.2-11.2,4.9-16.2c2.3-4.3,6.2-8,10.9-10.2c3.5-1.7,7.1-2.3,10.3-1.9
				c0-0.8,0-1.7-0.1-2.5c-0.1-4.3-0.3-8.7,0.2-13.3c0.7-6,1.5-12.9,3.6-20c2.5-8.5,7.3-15.7,11.8-21.6c3.1-4.1,6.9-7.3,10.3-10.1
				c3.6-2.9,7.3-5.6,11-8l1.1-0.7c10.7-7.3,20.6-8.5,29.5-3.5c6.3,3.6,8.8,9.3,7.1,16.6c-0.2,0.9-0.4,1.7-0.5,2.6c0,0,0,0,0,0
				c2.2-1.9,4.7-2.3,5.8-2.5c3.9-0.7,7.9-0.9,11.9-0.5c5.2,0.5,9.5,4.6,10.8,9.8c1-1,2-1.9,3-2.7c7.7-6.6,16.6-11.5,26.5-14.4
				l11.8-3.5l-9,9.2c-1.8,1.8-3.8,2.9-5.5,3.9c-1.2,0.6-2.2,1.2-3,1.9c-8.9,8-13.8,14.7-16.3,22.2c-0.2,0.6-0.2,1.4-0.1,2.3
				c0,0.7,0,1.4,0,2.2c-0.2,2.8-1.6,4.4-2.8,5.2c-1.2,0.8-3.1,1.6-5.6,0.7c-4.4-1.6-9.4-1.5-14.7-1.5c-0.2,0-0.4,0-0.6,0
				c1,0.7,2.1,1.7,2.7,3.2c2.8,6.7,2.6,14.4-0.4,23.5c-0.9,2.9-3.2,4-4.9,4.1c-2.6,0.2-4.3-1.6-4.1-4.2c0.1-1.4-0.1-2.8-0.3-4.1
				c-1.2-7.8-4.6-12-10.8-13.6c-0.9-0.2-1.7-0.5-2.6-0.7c-1.7-0.5-3.4-1-5.1-1.2c-3.1-0.4-6.4,1.1-8.4,3.7c-0.4,0.6-0.9,1.1-1.3,1.7
				c-0.8,1-1.5,1.9-2,2.8c-1.4,2.6-4.2,4.1-6.6,3.5c-0.6-0.1-3.4-1-2.3-4.9c0.6-3,2.5-5.3,3.8-7l0.1-0.2c2.8-3.5,5.6-7.1,9.3-10.2
				c0.8-0.7,1-1.5,1.3-4c0-0.3,0.1-0.7,0.1-1c1-7.6-3.5-11.4-6.3-13c-4.8-2.7-11.3-2.9-16-0.6c-3,1.5-4.8,4.2-7,7.8
				c-2.7,4.5-4.1,9.4-5.6,14.7l-0.9,3.2c-1.4,4.9-2.7,9.5-3,14.1c-0.5,8,0.5,14.5,3.1,20c0.7,1.5,1.7,3.6,0.2,6
				c-1.5,2.4-4.1,2.9-5.8,3.2c-1.3,0.2-2.5,0.4-3.8,0.6c-1.6,0.3-3.2,0.5-4.7,0.8c-3.2,0.7-5.7,2.1-7.7,4.3c-6.4,6.9-9,15-8.4,25.5
				c0.2,3.3,0.9,5.7,2.2,7.6c4-5.5,9.3-10.1,15.8-13.9c3.6-2.1,7.1-3.2,10.5-3.5l0.2,0c3.8-0.4,4.9,1.4,5.2,2.9
				c0.1,0.6,0.4,3.7-3.7,5.7l0,0c-3.8,2.6-7.6,5.9-11.8,10.4c-6.1,6.5-10.8,14.3-15,24.6c-2.5,6.2-2.8,11.2-0.8,15.3l0.1,0.1
				c1.7,2.9-0.2,5.2-1.1,6.1c-0.8,0.7-3.6,3-6.8,0.8l-0.1-0.1c-5.3-3.4-7.5-8.8-6.6-16.5c-1.6,0.6-3.4,1.2-5.1,2.1
				c-0.7,0.4-2.7,1.4-3.7,6c-1.4,6.1-0.4,11.5,2.9,15.9c0.5,0.7,0.9,1.4,1.2,2c0.7,1.3,1.2,2,1.9,2.3c2,0.7,2.8,3,1.9,5.3
				c-0.9,2.2-3.1,3.8-5.5,4c-6.1,0.3-10.7,3.5-15.8,11c-4.7,6.9-7.7,13-9.3,19.4c-1.3,5.2-2.5,10.6-1.7,15.7c0.8,5,3.6,9.1,8.7,12.7
				c3.2,2.3,5.9,3.4,8.7,3.8c2.1,0.3,3,1.3,3.4,2.2c0.4,0.8,0.7,2.2-0.2,4.2c-0.3,0.8-0.7,1.6-1,2.4l-0.5,1.2L374.3,791z
				 M363.4,704.8c-1.5,1.3-2.8,2.8-4.2,4.4c-2.5,2.9-4.2,6.3-6,9.9c-0.6,1.1-1.1,2.3-1.7,3.4c-0.4,0.7-0.7,1.3-1.1,2
				c-2.1,3.9-4.1,7.5-4.8,11.4c-0.1,0.6-0.2,1.2-0.3,1.8c-0.5,2.8-1.1,5.5-0.8,7.9c0.8,6.6,4.8,11.5,12.2,15c0.7,0.3,1.4,0.6,2,0.9
				c-2.6-3.1-4.1-6.7-4.8-10.7c-1-6.3,0.4-12.6,1.9-18.5c1.9-7.3,5.3-14.5,10.6-22.2c3.5-5.1,8.9-11.6,17.1-14.3
				c-0.2-0.3-0.3-0.5-0.5-0.8c-0.3-0.5-0.6-1-0.9-1.4c-4.3-5.8-5.6-12.8-3.8-20.9c1.6-7.2,5.7-10.7,8.8-12.3
				c2.9-1.5,5.9-2.5,8.1-3.3c1-0.3,3.8-1.2,5.7,0.2c0.8,0.6,1.2,1.3,1.4,2.2c0.2-0.6,0.4-1.2,0.7-1.8c4.5-11.1,10-20.1,16.7-27.4
				c-2.1,2-4,4.1-5.5,6.4c-0.6,0.9-2.4,3.7-5.5,4.3c-3.1,0.6-4.9-1.5-5.5-2.2c-2.5-2.9-3.8-6.8-4.1-11.8c-0.8-12.6,2.8-23,10.9-31.7
				c3.5-3.7,7.8-6.2,12.9-7.3c1.8-0.4,3.5-0.7,5.2-0.9c0.3-0.1,0.7-0.1,1-0.2c-2.5-6-3.4-13-2.9-21.3c0.3-5.4,1.8-10.6,3.3-15.7
				l0.9-3.1c1.6-5.6,3.2-11.4,6.6-16.9c2.2-3.6,5.3-8.6,11.1-11.6c7.2-3.7,16.3-3.5,23.1,0.3c6.8,3.8,10.1,10.7,9,18.8
				c0,0.3-0.1,0.6-0.1,0.9c-0.3,2.3-0.6,5.4-3,8.2c1.4-0.2,2.8-0.2,4.1,0c2.2,0.3,4.2,0.9,6.1,1.4c0.8,0.2,1.6,0.5,2.4,0.7
				c4.2,1.1,7.5,3.1,10,6.2c-0.1-0.2-0.2-0.5-0.3-0.7c-0.2-0.5-0.7-0.8-1.5-1.4c-0.8-0.6-1.9-1.3-2.7-2.5c-0.1-0.1-0.2-0.2-0.2-0.3
				c-0.6-0.7-2.4-2.7-0.6-5.9c1.5-2.9,4.4-4.6,7.6-4.5c1.4,0,2.8,0,4.2,0c4.6-0.1,9.2-0.1,13.7,0.9c0-1,0.2-2,0.6-3.2
				c1.8-5.2,4.4-9.8,7.4-13.8c-0.1,0.1-0.2,0.2-0.3,0.3c-2,1.7-4,3.5-5.3,5.7c-2.3,3.7-5.3,3.7-6.1,3.6c-1-0.1-3.4-0.7-3.2-4.2
				l0-0.1c0-0.4,0-0.9,0.1-1.2c0-0.1,0-0.2,0-0.3c0.2-3.9-2.8-7.9-6.1-8.2c-3.3-0.3-6.5-0.2-9.7,0.4c-1.1,0.2-1.3,0.4-1.3,0.4
				c0,0-0.1,0.1-0.2,0.3c-0.9,1.6-2.1,2.8-3.1,3.8c-0.2,0.2-0.5,0.5-0.7,0.7l-0.1,0.1c-2.9,3.2-5.5,2.6-6.4,2.2
				c-1.7-0.7-2.4-2.3-2.1-4.7c0.1-1,0.2-1.8,0.3-2.7c0.3-2.3,0.6-4.8,1.1-7.2c1-4.5-0.5-7.8-4.6-10.2c-6.5-3.6-13.2-2.8-21.1,2.6
				l-1.1,0.7c-3.6,2.4-6.9,4.7-10.1,7.3c0,0-0.1,0.1-0.1,0.1c-3.1,2.6-6.3,5.3-8.7,8.4c-4.1,5.5-8.2,11.6-10.3,18.7
				c-1.9,6.5-2.7,12.8-3.3,18.7c-0.5,4.1-0.3,8.1-0.2,12.3c0,1.6,0.1,3.3,0.1,4.9c0,2.7-0.9,4.8-2.7,6.2c-1.8,1.4-4,1.7-6.4,0.9
				c-2-0.6-4.4-0.4-6.9,0.8c-2.6,1.2-4.9,3.4-6.2,5.8c-2.1,4-3.4,8.3-3.9,13.2c-0.5,5.1-1.1,10.4-0.6,15.5c0.3,3.1-1.3,4.9-2.2,5.7
				c0,0,0,0,0,0c-0.9,0.8-2.9,1.9-5.5,1.2c-1.7-0.4-3.6-0.5-5.7-0.5c-1.1,0-2.3,0-3.5-0.1c-5.1-0.4-9.9,1.8-15.5,7.1
				c-5.2,4.9-9,11.2-11.9,19.8c-0.2,0.6-0.4,1.2-0.6,1.7c-1,2.7-1.9,5.3-2.3,7.8c-1.1,7-1.3,12.7-0.4,18c1.4,9,5.3,14.3,12.3,16.7
				c2.2,0.8,3.3,2.1,3.3,3.9c0,1.8-1,3.6-3.2,5.2C363.6,704.7,363.5,704.8,363.4,704.8z M505.1,572.3
				C505.1,572.3,505.1,572.3,505.1,572.3C505.1,572.3,505.1,572.3,505.1,572.3z"/>
			<path d="M508.1,771.9c-1,0.9-2.1,1.7-3.2,2.6c-1.1,0.9-2.2,1.5-3.2,2.1c-0.4,0.2-0.7,0.4-1.1,0.7c-4.6,3.2-9.9,5.1-15.9,5.8
				c-5.5,0.6-10.8-0.5-15.7-3.3c-3.3,9.3-9.8,17-19.2,22.8l-0.5,0.3l-4.7,2.2l-1.1-0.1c-3.3-0.3-3.7-2.6-3.7-3.3
				c0-0.7,0.2-3,3.2-4.8c7-4.2,9.6-11,11.4-17.7c1.3-5,1-8.9-1.1-11.9c-1.9-2.7-0.1-5.3,1.3-6.3c1.8-1.4,4.1-1.8,6.1-1
				c2.8,1.2,5.3,2.8,7.1,4.1c7.2,5.1,14.7,6.6,23.1,4.6c9.7-2.3,19.5-13.4,21-23.6c0.6-4,0.3-6.7-1-9c-0.8-1.4-2.1-2.4-3.7-3.2
				c-4,6.3-9.5,10.6-16.3,12.8c-0.3,0.1-0.6,0.2-0.9,0.3l-0.5,0.1c-1.9,0.4-7.7,1.7-8-3.1c-0.1-1.4,0.4-2.8,1.4-4
				c1.8-2,4.1-2.3,5.7-2.6c0.3,0,0.7-0.1,0.8-0.1c1.1-0.3,1.8-0.8,3.3-2.6c3.2-4.1,5.8-9,8-14.9c2.3-6.1,0.8-11.5-2.4-18.1
				c-0.6-1.3-1.1-2.6-1.5-3.7l0-0.1c-1-2.8,0.2-4.8,1.5-5.9c1.3-1.2,3.4-2.4,6.2-1.3c6.1,2.3,9.9,6.1,11.5,11.4l0.2,0.7
				c0.3,1.1,0.7,2.2,1,3.4c0.1-0.1,0.3-0.3,0.4-0.4c5.5-5.7,9.2-12.5,12.6-19c2.5-4.9,4.8-9.6,5.2-14.4c0-1.6,0.6-2.8,1.2-3.5
				c0.8-1,1.9-1.8,3.2-2.2c2.2-0.6,4.5,0.3,4.7,3.1l0,0.3l0,2.2c0,0.4,0,0.9,0,1.3c5.6-4.8,9.1-10.1,10.8-16.1
				c-4.1,0.3-8.2-0.6-12.4-2.7l-3.1-1.5l2.5-3.4c1.4-1.9,3.3-2.9,5.6-3c5.5-0.3,10.2-3.2,15.6-7.4c3.6-2.9,6.8-6.6,9.6-11.1
				c2.2-3.6,3.6-7.5,5.1-11.7l0-0.1c0.6-1.7,1.3-3.4,2-5c1.3-3.1,2.5-6,3-9c0.3-1.7-0.6-3.5-1.9-4.5l-1.8,6.9l-0.3,0.7
				c-1.1,2.8-2.3,5.9-5,8.8l-0.1,0.1c-2.8,3.2-5.4,2.4-6.2,2c-0.7-0.3-2.9-1.6-1.5-5.1l0.4-1.2c0.7-2.1,1.3-4.1,1.4-6l0-0.1
				c0.6-5.5-0.3-9.9-2.8-13.4c-1.8-2.6-4.2-4.2-7.3-4.7l-0.2,0c-0.4-0.1-0.9-0.2-1.5-0.4l-0.1,0c-3.6-0.9-2.9-4-2.7-4.7
				c0.3-0.9,1.5-3.7,5.6-4.2c3.5-0.4,7.2-0.5,10.8-0.1c3.4,0.3,6.4,1.1,9.1,2.2l0.3,0.1c0.2,0.1,0.3,0.1,0.5,0.2
				c2.1-4.8,3.6-9.5,4.2-13.8c0.5-3,0.1-5.1-1.1-6.9l-5.1-7.6l9.9,1.5c4.4,0.7,7.7,3.4,9,7.1c0.1-0.2,0.1-0.3,0.2-0.5
				c2.7-8.2,2-15.8-2.1-23.5c-0.2-0.4-0.5-0.9-0.7-1.3c-0.7-1.4-1.4-2.7-2.3-3.9l-5.5-7.4l10.1,1.2c2.2,0.3,3.7,1.3,4.8,2.2
				c0.5,0.4,1,0.8,1.5,0.9l0.5,0.2l0.4,0.4c7.9,7.6,11.1,17,9.3,28c-1.4,8.7-6.1,15.1-14.4,19.5c4.4,4.2,6.5,10.1,6.3,18
				c-0.2,7.8-2.1,16.1-5.8,25.6c-3.8,9.6-8.8,18.5-15,26.3c-1.5,1.8-3.5,4.2-6.5,5.8c-2.7,1.8-5.6,2.7-8.1,3.4l-0.3,0.1
				c0,0.1-0.1,0.2-0.1,0.3l-0.3,0.7c-1.7,4.9-3.5,10-6.3,14.9c-3.4,6-7.5,12.1-14.4,16.3c-2.1,1.3-4.4,2.3-7.1,3.1
				c0.8,3.5,1.3,6.7,1.6,9.7c1.2,11.7-0.4,23.2-4.7,34.3C532.7,746.9,523,759.5,508.1,771.9z M505.5,725.3c0.2-0.1,0.3-0.1,0.5-0.2
				c1.1-0.4,2.8-0.7,4.7,0.2c2.6,1.4,5.6,2.9,7.4,6.1c1.9,3.4,2.4,7.4,1.6,12.8c-0.6,3.9-2,7.9-4.1,11.6
				c7.1-7.8,12.2-15.7,15.5-24.4c3.9-10.1,5.3-20.2,4.2-30.9c-0.3-2.4-0.7-4.9-1.2-7.6c-3,5.3-6.6,10.8-11.3,15.7l-0.1,0.1
				c-0.4,0.4-0.9,0.8-1.3,1.3c-1,0.9-1.9,1.8-2.7,2.7c-2.5,2.6-4.6,2.6-5.6,2.4c-0.8-0.2-2.8-0.9-2.7-4.1c0-2-0.6-4-1.2-6.1
				l-0.2-0.7c-0.1-0.4-0.3-0.8-0.4-1.1c1.5,4.8,2,10.2-0.4,16.4C507.2,721.6,506.4,723.5,505.5,725.3z M462.9,770.4
				c0.2,2.3,0,4.8-0.7,7.6c0.1-0.2,0.1-0.3,0.2-0.5c0.7-2.2,1.3-4.2,2.9-5.5C464.5,771.5,463.7,771,462.9,770.4z M565,648.2
				c0.9-0.8,2.1-1.4,3.6-1.9l0.3-0.1c2.1-0.6,4.1-1.2,5.6-2.3l0.5-0.3c1.1-0.6,2.2-1.5,3.5-3.2c5.7-7.2,10.1-15,13.6-23.9
				c3.4-8.6,5.1-16.1,5.3-23c0.2-7.1-1.8-11.9-6.3-15.2c0,0-0.1,0-0.1-0.1c-1.6-0.6-2.3-1.6-2.5-2.5c-0.7,1.9-1.6,3.9-2.5,5.8
				c-0.9,1.8-2,4.1-4.5,5c-2.6,0.9-4.1-0.4-5.7-1.7c-0.1-0.1-0.4-0.2-0.6-0.3l-0.4-0.2c-1.1-0.5-2.4-0.9-3.7-1.2
				c0.4,0.4,0.7,0.9,1,1.3c1.6,2.2,2.7,4.7,3.3,7.4c0.4-0.7,1-1.4,1.9-2.1c0.9-0.7,2.4-1.4,4.4-1.2c6,0.6,10.1,6,9.1,12
				c-0.6,3.9-2.1,7.4-3.5,10.8c-0.7,1.6-1.3,3-1.8,4.5l0,0.1c-1.6,4.4-3.2,9-5.9,13.4c-3.4,5.6-7.4,10.2-12,13.8
				c-2.4,1.9-5,3.8-7.9,5.4c0.9,0.2,1.9,0.5,2.7,1.4c0.2,0.2,0.4,0.5,0.5,0.8C563.3,650,564,649,565,648.2z M556.7,656.1
				L556.7,656.1L556.7,656.1z M599.6,565.8c3.4-2.6,5.3-6,6-10.7c0.2-1,0.3-2,0.3-3c-0.3,2.1-0.8,4.2-1.5,6.3
				C603.4,561.2,601.8,563.7,599.6,565.8z M590.4,570.6c0.7-0.6,1.8-1.2,3.1-1.6c0.1,0,0.1,0,0.2,0c-0.8,0-1.4-0.1-1.9-0.4
				c-0.3-0.2-0.6-0.3-0.9-0.6c-0.2,0.9-0.5,1.8-0.8,2.8C590.2,570.8,590.3,570.7,590.4,570.6z M556.3,584.4
				C556.3,584.4,556.3,584.4,556.3,584.4C556.3,584.4,556.3,584.4,556.3,584.4z"/>
			<path d="M540,723.1l-4.7-22.1c-0.2-1.1-0.5-2.3-0.7-3.4c-0.6-2.7-1.2-5.5-1.7-8.3c-0.4-2,0.3-3.5,1-4.5c1.5-2.1,3.8-2.7,5-3
				l0.2-0.1c4.8-1.3,8.5-3.5,11.4-6.9c4.2-4.9,6.9-10.8,9.2-16.5c0.7-1.6,1.2-3.3,1.8-5l0.5-1.4c0.9-2.6,2.8-4.6,5.4-5.5
				c2-0.7,4-1.4,5.9-2.2l15.3-5.6l-9.8,10.2c-2.8,2.9-6.1,3.8-8.6,4.4c-0.4,0.1-0.5,0.2-0.6,0.2c0,0-0.1,0.2-0.3,0.7
				c-1.9,5.8-4.5,12.7-8.8,19.2c-3.5,5.3-9.2,12.6-18.9,15.5c0.1,0.3,0.2,0.7,0.2,1c0.6,2.7,1.3,5.7,0.9,9.1L540,723.1z"/>
			<path d="M501,777c-7,5.8-14.7,6.6-19.8,6.6c-4.7,0-8.7-1.5-11.9-3.3c-3.3,8.7-9.1,15.8-17.3,21.2c-0.8,0.5-1.6,0.9-2.2,1.1
				c-0.2,0.1-0.3,0.1-0.5,0.2l-13.1,6l9.4-11.1c1.4-1.6,3-2.7,4.2-3.5c0.7-0.4,1.3-0.8,1.7-1.2c5.7-5.2,9.2-10.7,10.9-16.8
				c0.3-1.1,1.1-4.1,4-5.5c2.9-1.4,5.1,0.2,5.9,0.8c7,5.1,14.9,5.2,23.9,0.3c0.7-0.4,1.4-0.6,1.9-0.8c0.1,0,0.2-0.1,0.3-0.1
				l17.1-6.2L501,777C501.1,777,501,777,501,777z"/>
			<path d="M522.4,709.1c-0.1,0-0.1,0.1-0.1,0.1l-10.8,8.8l5.2-12.1c0.9-2.1,2.3-3.8,3.5-5.1c0.5-0.5,0.9-1.1,1.3-1.5
				c4.8-6.5,8.8-13.9,12.8-23.4c0.2-0.4,0.3-1.1,0.4-1.8c0.2-1.4,0.4-3.1,1.5-5l4.7-8.2l2.2,7.7c0.8,2.9-0.1,5.8-1.1,8.2
				c-0.8,1.9-1.5,3.8-2.3,5.7c-0.5,1.3-1,2.5-1.5,3.8c-0.8,1.9-1.9,3.6-2.9,5.1c-0.5,0.7-0.9,1.3-1.3,2c-0.4,0.7-0.9,1.5-1.3,2.2
				C530,700.3,527.2,705.1,522.4,709.1z"/>
			<path d="M544.1,676.6l-3.2-2l-3.9,6.6l-1.4-9.5c-0.1-0.8-0.2-1.6-0.2-2.4c-0.2-2.5-0.4-4.1-1.6-5.2c-1-0.9-1.4-2.2-1.1-3.6
				c0.3-1.3,1.2-2.5,2.4-3.4c1.6-1.1,4.1-1.7,6,0.2c2.6,2.5,3.3,5.8,3.7,8.5c0.1,1,0,1.9-0.1,2.7c0,0.2-0.1,0.5-0.1,0.7L544.1,676.6
				z"/>
			<path d="M572.8,615.1c-1.2,1-2.4,1.5-3.4,1.6l-5.8,4.7l1.8-6.2c-0.7-1-1-2.6,0.4-5.1l0.1-0.1c0.4-0.8,0.6-1.8,0.9-3
				c0.3-1.6,0.7-3.5,1.8-5.5l3.7-6.8l2.3,4.2l7.6-12.4l-2.6,16.5c-0.6,3.8-2.4,7.4-5.6,10.9C573.7,614.3,573.2,614.7,572.8,615.1z"
				/>
		</g>
		<g>
			<path d="M733,863.6c2.8,12.5,11.8,17.9,26.1,17.9c14.3,0,20.5-5.7,20.5-14.7c0-10.1-6-14.5-27.2-19.4
				c-33.8-7.9-42.1-20.2-42.1-37c0-21.6,16.2-36.3,45.6-36.3c32.9,0,46.1,17.7,47.9,35.9h-27c-1.3-7.6-5.5-15.9-21.5-15.9
				c-10.9,0-17.5,4.5-17.5,13.3c0,8.6,5.3,12.1,25.3,16.8c36.1,8.5,44,21.9,44,39.4c0,22.7-17.1,38.2-49.9,38.2
				c-31.5,0-48.1-15.5-51.1-38.1H733z"/>
			<path d="M821.8,812c1.7-14.6,11.9-32.6,41.6-32.6c27.4,0,39.6,15.5,39.6,32.2c0,14.3-8.2,21.1-14.7,24v0.5
				c7.7,2.8,19.3,10.2,19.3,28.6c0,17.1-10.4,37.4-44.4,37.4c-31.7,0-42.5-19.1-43.7-34.8h25c1.6,8.1,7.2,15.1,19.4,15.1
				c11.9,0,17.8-7.7,17.8-18.1c0-11-5.6-17.6-19.4-17.6h-10.7v-19.8h9.4c11.8,0,16.6-3.9,16.6-13.8c0-8.1-4.8-13.6-15-13.6
				c-12,0-14.9,6.7-16.2,12.6H821.8z"/>
		</g>
	</g>
</g>
<g id="scratch" display="none">
</g>
<g id="smoke_00000160174021868582459990000000792620422660026007_">
</g>
</svg>
