<svg xmlns="http://www.w3.org/2000/svg" xml:space="preserve" baseProfile="tiny" overflow="visible" version="1.2" viewBox="0 0 1000 1000"><path fill="none" d="M0 0h1000v1000H0z"/><path d="M415.9 517.9c.5.2 1 .5 1.6.2 3-1.5 6-2.9 9-4.4 1.1-.5 1.5-1.6 2.2-2.7-.7 2.3 1.5 2.2 2.4 3.1l8.7 8.7c.7.7 1.5 1.4 2.9 2.6-2-2.8-4-4.5-5.9-6.4-1.1-1.1-1.4-1.8-.2-3 2.7-2.6 5.3-5.2 7.9-7.9 1.1-1.2 1.8-.9 2.8.2 1.7 1.9 3.6 3.6 5.5 5.3-2.6-2.6-4.3-5.9-7.7-7.8-.7-.4-.6-3 .6-4.3.7-.8 1.4-1.5 2-2.4-1.8.8-3 2.2-3.5 4.1-.2.6-.3 1.3-1.2 1.3-.2 0-.5-.3-.6-.5-.4-.7.2-1 .6-1.4 4.9-4.6 9.4-9.6 15-13.5 3.2-2.2 5.2-5.5 7.7-8.4 5.2-6.1 10.5-12.1 16.9-16.9 1.8-1.4 3.1-3.3 4.5-5.2 3.2-4.4 7.2-8.1 11.4-12 2.8 4.9 5.5 9.8 8.4 14.6.5.9 0 1.3-.5 1.6-2.3 1.9-3.9 4.4-5 7.2-1.2 3.1-3.1.2-4.7.7.5.3.9.7 1.4 1 .6.4 1.6.5 1.2 1.6-.1.4-.6.8-1 .9-.9.2-1.2-.7-1.6-1.3-.5-.7-.4-1.4.1-2.1-1.4 1-1.5 1.2-.5 2.7.9 1.4 1.5 2.6.4 4.3 1.2-1.1 2-1.3 3.1 0 1.6 1.7 3.6 3 6.2 3.5-.3-3.4-2.4-5.4-4.6-7.4 1.3 2 3.2 3.7 3.7 6.4-2.5-.7-4.1-2.5-5.9-3.9-.4-.3-.6-.8-.2-1.2 3.2-3.5 4-8.6 7.7-11.8.4-.3.7-.6 1.2-1 3.4 5.6 6.9 11.2 10.1 16.8 1.3 2.3 2.5 4.5 5.1 5.5h-.1c-.4-1 .4-2.3-1.7-2.6-1-.1-.6-2.7-1.6-4.1-1.6-2.2-3.7-4.3-4.1-7.3 0-.2-.4-.6-.5-.6-2.7 1.4-2.6-1.4-3.3-2.5-3.5-5.6-7-11.2-10.2-17.9 12.6 12.5 23.8 25.2 36.3 37-.2-1.2-1-1.7-1.6-2.2-10.7-11-21.3-22-32-32.9-1.8-1.8-1.9-2.9-.1-4.6 3.1-2.9 6-5.9 8.9-8.9-1.8-2.7-2.8 3.1-4.5 0-.1 1.1 1.2 1.3.6 2.4-.9.4-1.1-1.1-1.9-1-.9 1.2 1.1 1.6.7 2.8-1.1.2-1.4-1.1-2.3-1.4-.9 1.4 1 1.7.9 2.7-.7.9-1.1-.2-1.8-.2-.7.7 1.4 1.1.2 1.7-2.5-1.1-2.5-1.1-4.5 3.5-.8-4.4-3.2-7.2-5.1-10.2-1.8-2.9-3.1-6.2-6.1-8.4 1.4-.9 1.3.7 2.1.7.2-1.2-.5-1.9-1.3-1.9-3.2.2-1.9-3-3.1-4.3-.7-.8 1.2 0 1.8-.5-1.2-2.2-4.4-1.3-5.6-3.5.8-.4 1.1 1 1.8.2-1-2-2-4.1-4.6-4.6 1.1-1.5 1.6.5 2.4-.7-1-1.5-2.8-1.1-4.1-1.7-1.1-.5-1.9-.9-1.2-2.2-.5-.5-1-1.1-1.8-1.3-.4-.1-1-.4-.8-1 .3-.8.9.5 1.5-.1-.3-.9-1.1-2.1-1.5-2.4-1.3-1-.5-3.5-2-3.5-2 .1-1.9-1.4-2.7-2.3-1 .4-1.6.1-2.3-.9-1.9-2.8-2.5-6.2-4.3-9.2 3.4 1 3.4 1 4.9 4 .3.7.5 1.7 1.2 1.8 2.5.4 3.4 2.4 4.4 4.4 1.2.4 2.5.3 3.5 1.6 2.8 3.7 6.9 6.3 8.6 10.8 1.2 1.2 2.1 2.8 4.5 1.8-2.3-2.5-4.4-5-6.7-7.3-4.4-4.4-8.8-8.7-13-13.3-1.6-1.7-3.4-3.3-4.9-5.1-.5-.6-1.2-1.3-1.9-.4-1.2 1.6-3 2.2-4.5 3.3-.2.2-.5.5-.6.5-3.9-1.3-3.5 2.3-4.4 4.1-.9 1.9-2.7 2.8-4 4.3-2.4 2.8-5.1 5.4-7.6 8.2-.9 1-1.6 1-2.5 0-1.6-1.8-3.6-3.2-4.8-5.5-2.3 2.3-4.9 4.9-7.5 7.4-.6.6-.8 1.2-.1 1.7 1.9 1.4 2.4 4.1 4.8 5.1.7.3.7.7.2 1.3-1.4 1.6-2.8 3.1-4.2 4.7-.9 1-1.4-.9-2.5 0-.5.5 1.2.8.4 1.7-1.9-2.2-3.3-4.9-5.6-6.5-.2 2.2-1.3 3.7-4.6 3.5 2.4 1.5 3 3.7 5 4.5-2.2-.4-3.7-2.1-5.6-3.3-.1.2-.3.5-.4.7 2 1.3 3.9 2.6 5.9 3.9 1.4.9 1.6 1.6.3 2.8-1.1.9-2 2.1-3.1 3-1.6 1.5-2.9 4.4-4.7 4.2-1.7-.2-3-2.9-4.7-4.4-1.3-1.1-.9-1.8.1-2.8 1.7-1.6 3.4-3.4 5-5.2-2.5 1.6-4.4 3.9-6.5 5.9-1 .9-.7 1.5.2 2.3 1.8 1.7 3.6 3.5 5.1 5.5-2.2-1-3.4-3-5.1-4.6-.5-.5-.9-1-1.4-1.4-.3-.2-.6.2-.9.5-.5.7.2.5.4.7 1.6 1.5 3.1 3.1 4.7 4.6.7.7 1.4 1.2.3 2.3-1.1 1.2-1.6.4-2.3-.2l-4.3-4.3c-.3-.3-.4-1.1-1-.5-.5.5-.2.9.3 1.4 7.7 6.4 6.3 4.1.9 10.4-1.6 1.9-3.5 3.5-5.1 5.4-1.2 1.4-2.7 2.5-4.6 2.3-2.3-.2-1.1 2.7-2.8 2.8 1.9.7 2.2-1.9 3.9-2-2.7 5.1-2.7 5.2-5.6 5.5 1.5-.6 1-1.7.8-2.6-.4-1.4.6-.7 1.1-.8-1.5-.9-2.4-1.8-2 1.2.2 1.9.4 4.6-1.9 6.3-1.9 1.4-1.5 2.9.2 4.4 4.5 4.4 8.9 8.9 13.4 13.3.4.4.6 1.3 2 .8-1.8-1.2-1.4-4-4.2-4.1-.2 0-2.5-.7-1-2.2-4.5-2.5-7.2-6.7-10.8-10.1.9 0 1.6 1.1 2.4 0 .9-1 .1-2.1-.2-3.2 2 0 1.2 1.5 1.7 2.2 1.4 1.9.5-1.7 1.5-.7.1.1.2.1.2.2.1 1.6 2.1 1.5 2.4 2.9.9-.1 2.1.3 2.3.8 1.1 3.8 4.1 5.7 7 7.9 1.7 1.2 4.4 1 5.1 3.6 1.5-1.3 2 .1 2.4 1 .3.6.6 1.2 1.2 1.5 1.5.6 3.9 3.4 4.2 4.8.1.6 3.2 2.3 3.6 1.9.3-.3-.8-.8 0-1 .6-.2.9.5 1.2 1 .3.5.9 1.2 1.4 1.4 3.1.9 4.6 3.6 6.9 5.4 4.7 2.4 6.7 4.5 7.1 7.7-.7-.7-.9-1.9-2.1-1.5-.3.9 1.4 1.2.5 1.9-1 .8-1.4-.4-1.8-1.1-.1-.2-.4-.4-.6-.6-.8 2.9-1.6-1-2.1-.3-.7.9-.4 1.2 0 1.5.9.8.9 2.6.4 2.6-1.6 0-3.3 2.9-4.4.6-1.3-2.5-4.4-2.9-5.6-5.7-.9-2-3.2-3.7-5.3-4.9-1.7-1-2-3.3-3.4-3.9-3-1.1-3.8-4.4-6.5-5.6.1-.1.2-.3.3-.4-.9-1.2-2.6-1.1-3.8-2l13.8 13.8c2.7 2.7 5.3 5.4 8.1 8 1.7 1.7 1.9 2.9-.5 4.1-1.7.8-3.3 1.8-4.9 2.6-1.1-.9.5-1.9-.3-2.8-2.5.6-3.9 3.1-6.2 4.1 2.1.2 3.2-1.8 5.2-2.3-.6 2.1-2.7 2.1-3.6 3.3zm17.7-5.5c-.4 1.6.5 2.5 2 3-1.7 1.1-2.4.1-2.9-.9-.3-.6-.5-1.2-1.1-1.5-2.6-1.3-.8-1.7.5-2.2.9-.9 1.8-2 2.6.1.5 1.3 1.5.5 2.2.2-1.1-.1-2.2-.8-1.8-1.6.4-1 1.4-2.3 3-1.9.7-1.9 2-.5 3-.5.4 0 .6.9 1.1.4 1.2-1.1 1.1-1.1 2.1-.9-1.1 1.1-2.3 2.1-3.2 3.2-1 1.3-1.5.3-2.2-.3-.8.8 1.2 1.4.3 2.1-1 .8-1.3-1-2.2-.7-.1 0-.1.1-.2.2.3.9 1.9 1.7.2 2.9-1 .7-1.7.5-2.4-.1-.5-.2-.7-.9-1-1.5zm12-105.3 10.5-10.5c2-2 4.8-2.3 6.3-.6 3.5 4.2 7.1 8.4 10.3 12.9 8 11.2 15.7 22.6 23.7 33.9 1.2 1.8 1.1 2.7-.3 4-12.9 13.1-25.7 26.3-38.6 39.5l-15.6 16.2c-.6.6-1.1 1.7-2.3.7-3.2-2.5-6.6-4.8-9.7-7.4-6.3-5.2-12.9-10.1-19.1-15.5-5.1-4.4-10.5-8.6-15.7-12.8-1-.9-1.2-1.8-1.2-3.4 0-3.3 2-5.3 3.9-7.3 16-16.7 32.1-33.4 47.8-49.7zm-8.1.7c.7.8 1.1 1.2 1.4 1.7.7.9 2.3 1.4.6 3-1.7 1.6-2.3.1-3.2-.7-1.2-1.1-2.2-2.3-3.1-3.6-1-1.3.1-1.6.6-2.3.8-.9 1.4-.6 2 .2.6.8 1.3 1.4 1.7 1.7zm-16.6 15.1c.6-.4 1.1-1.9 2.1-.6 1 1.4-.9 1.8-1.3 2.7-.3.7-1.1 1.3-1.8.5-1-1.2.2-1.8 1-2.6zm13.9-9.3c-.1-.8-2.1-.7-.9-2.1.8-.9 1.2.1 1.5.5.5.9 2.8 1.3 1.6 2.7-1 1.2-1.1-1.1-2.2-1.1z"/><path d="m451.1 534.8-9.4-8.4c-.5-.4-.9-.8-1.2-1.1-.7-.6-1.2-1.1-1.7-1.6-2.4-2.4-5.6-5.5-8.7-8.7-.1-.1-.4-.2-.6-.3-.3-.1-.7-.3-1.1-.6-.3.3-.7.6-1.2.8-3 1.4-6 2.9-8.9 4.4-1.1.5-2 .2-2.5 0-.1 0-.2-.1-.2-.1l-1.9-.6.2-.4-5.4-.6 5-2.3c.8-.4 1.5-1 2.3-1.7 1.1-1 2.4-2.1 4.2-2.5l.9-.2.6.7c.4.4.6.9.6 1.3.9-.5 1.8-1 2.8-1.5.6-.3.9-.5.9-.6 0-.1-.2-.4-.8-1-2-1.9-4-3.9-6-5.9l-2.2-2.2-11-11-2.8-2.8.9-1.1c-1.9.5-2.8-.7-3.1-1.1l-.1-.1-4.4-4.4c-2.9-2.9-5.9-6-9-8.9-1.3-1.2-1.9-2.4-1.9-3.5l-1.2-1.2 1.4-.1c.3-.7.8-1.4 1.6-2 .4-.3.7-.7.9-1v-.1l-7.9.8 8.4-3.5c0-.3-.1-.7-.1-1.1 0-.4-.1-.7-.1-1.1l-3.3-1.3 3.6-.3c.1-.4.4-.7.7-.9.8-.5 1.6-.3 2.2.1.3-.9.9-2.5 3.2-2.3 1.1.1 2.1-.5 3.3-1.8.8-1 1.7-1.9 2.6-2.7.9-.9 1.7-1.7 2.5-2.7 1.2-1.4 2.2-2.3 2.9-3.1.4-.4.9-.9 1.1-1.2-.4-.5-1.5-1.4-2.7-2.3-.6-.5-1.3-1.1-2.1-1.7-.5-.4-1.1-1-1.1-1.9 0-.4.1-1.1.7-1.7.6-.6 1.1-.7 1.5-.6-.2-.6-.1-1.2.4-1.8.5-.6.9-.9 1.3-1 .2-.5.5-1 1-1.4.7-.6 1.3-1.3 2-2 1.4-1.4 2.9-2.9 4.7-4.1l1-1.7-3.6-2.3 5.6.2c2.7.1 2.9-.9 3-2.2l.2-2.6 2.1 1.5c1.8 1.2 3 2.9 4.2 4.5.8-.3 1.5 0 2 .2l.4-.4c.9-1.1 1.9-2.2 2.8-3.2-1.2-.8-1.9-1.9-2.6-2.9-.5-.8-1-1.5-1.6-2-.6-.4-1-1.1-1-1.7 0-.5.1-1.4 1-2.2l5.6-5.6 3.3-3.3.9 1.8c.7 1.3 1.7 2.3 2.8 3.3l1.8 1.8.1.1.2-.2c1-1.1 2-2.1 3-3.1 1.6-1.6 3.2-3.3 4.6-5 .6-.7 1.2-1.2 1.8-1.7.9-.7 1.6-1.3 2-2.3.1-.3.2-.7.4-1.2.3-1.3.7-2.8 2.2-3.6.8-.4 1.7-.5 2.9-.3h.1c.6-.4 1.2-.8 1.7-1.1.3-.2.5-.3.8-.5l-.8-1.4 1.9.6.6-.6c.6-.8 1.3-1 1.8-1 1.2-.1 2 .9 2.4 1.3.8.9 1.7 1.8 2.6 2.7.8.8 1.6 1.6 2.3 2.4 2.9 3.2 6 6.3 9 9.3l4 4c1.6 1.6 3.1 3.4 4.6 5 .7.8 1.4 1.6 2.1 2.3l1.4 1.5-1.9.8c-3 1.3-4.6-.5-5.6-1.6-.2-.2-.3-.4-.5-.5l-.2-.2-.1-.3c-1-2.6-2.9-4.6-5-6.7-1.2-1.2-2.4-2.4-3.4-3.8-.4-.5-.8-.6-1.6-.8.4.6.5 1.3.6 1.7.1.4.2.9.4 1.1.8.6 1.7 2.1 2 3.2l.3.8-.2.3c.2.2.5.4.6.6l.9.9-.5 1c.1.1.3.1.5.2.3.1.7.2 1.1.3 1.1.2 2.7.4 3.7 2l.5.8-.5.8-.1.1c1 1 1.7 2.3 2.3 3.5l.6 1.1c1.2.4 2.6.9 3.4 2.4l.6 1.1-.9.8c-.2.2-.5.3-.7.4 0 .2.1.5.1.7.1.3.2.9.3 1.1 0 0 .1.1.6.1.9 0 1.6.3 2.2.9.6.7.9 1.7.7 2.7l-.1.4c1.1 1.4 1.9 2.9 2.8 4.4.4.7.7 1.3 1.1 2 .4.7.8 1.3 1.3 2 1 1.5 2 3 2.8 4.9.4-.7.9-1.1 1.5-1.3.3-.1.6-.2.9-.2.1-.3.3-.5.5-.7l.3-.3c-.1-.5-.1-1.2.4-2l.6-1 .7.2c.1-.3.2-.6.5-.8l.4-.5h.6v-.1l.5-4.6 2.2 3.8c.5-.6 1.3-1.4 2.5-1.3.8.1 1.5.6 2 1.4l.7 1-.9 1c-.9.9-1.7 1.8-2.6 2.6l-6.3 6.3c-.8.7-.8 1-.8 1.1 0 .1.1.5 1 1.4 8.9 9 17.9 18.2 26.5 27.2l5.5 5.7.3.3c.6.5 1.4 1.3 1.7 2.8l.7 4.3-3.2-3c-7.3-6.9-14.4-14.3-21.2-21.5-2.6-2.7-5.2-5.5-7.9-8.2 1.8 3.1 3.6 5.9 5.3 8.6.3.4.4.9.6 1.4.1.2.2.6.3.8.1 0 .3-.1.5-.2l.7-.3.7.4c.4.2 1.1.9 1.2 1.7.2 2 1.5 3.7 2.9 5.4l.9 1.2c.7 1 .9 2.1 1.1 3.1 0 .2.1.4.1.6 2 .5 2.2 2.1 2.2 2.8l8.4 3.2-10.8-.7-.2-.3c-2.6-1.3-3.9-3.5-5.2-5.7l-.1-.1c-2.3-4-4.8-8-7.2-11.9-.7-1.1-1.4-2.2-2.1-3.4-1.8 1.5-2.8 3.6-3.9 5.9-.4.7-.8 1.5-1.2 2.2 2.3 2.1 4.8 4.4 5.1 8.3l.2 1.9-1.9-.3c-2.8-.5-5.1-1.8-7-4l-.4-.4c-.1.1-.3.2-.6.5l-8.1 7.6 5.8-9.5c.5-.9.5-1.4-.4-2.7-.9-1.5-1.1-2.4-.6-3.2l-1.2-.8 3-.9.4-.3-2.3-3.7 3.2 3 5.1-3.7c.8-1 1.7-2 2.7-2.8-1.7-2.9-3.4-5.8-5-8.7l-.3.8-.4-2-.3-.6-1.3-2.2c-3.9 3.6-7.1 6.7-9.8 10.5l-.5.6c-1.2 1.7-2.5 3.5-4.3 4.9-6.5 5-12 11.2-16.7 16.7-.7.8-1.3 1.6-1.9 2.4-1.7 2.3-3.6 4.6-6 6.3-3.1 2.1-5.9 4.6-8.5 7.2l-1.3 2.2c-.5.8-1 1.4-1.6 2l-.6.6c-.5.6-.7 1.7-.6 2.2 2.3 1.4 3.9 3.3 5.4 5.2.8 1 1.5 1.9 2.3 2.7l-2 2.2c-1.9-1.6-3.9-3.5-5.7-5.4-.2-.2-.3-.3-.4-.3-.1 0-.1.1-.2.2-2.2 2.4-4.7 4.8-8 7.9l-.3.3c.1.1.2.3.5.5.4.4.8.7 1.1 1.1 1.6 1.5 3.3 3.1 5 5.5l7.6 10.3zm-13.7-25.6c-.2 0-.4.1-.6.4h.5c0-.2.1-.3.1-.4zm2.7-.5c.1 0 .2-.1.2-.1-.1 0-.2 0-.2-.1v.2zM409.6 489c.9.7 1.5 1.5 2.1 2.2.9 1.1 1.6 2 2.8 2.4 1.2.4 1.8 1.5 2.4 2.4.4.7.8 1.3 1.3 1.6 2.4 1.5 4.9 3.2 5.9 5.6.5 1.1 1.3 1.7 2.4 2.4.8.6 1.7 1.2 2.5 2.1l1.6-2.7c.1-.4.3-.8.7-1.2.1-.1.1-.2.2-.2l1.4-2.4c-.6-.4-1.4-.8-2.2-1.2l-.3-.2c-.8-.7-1.5-1.4-2.2-2.1-1.3-1.3-2.5-2.6-4.2-3-.6-.2-1.2-.6-1.8-1.3-.7.2-1.4 0-1.7-.1 0 0-3.5-1.3-3.8-3-.1-.8-2.2-3.2-3.3-3.6-1.1-.5-1.6-1.4-1.9-2.1l-.2-.3c0-.1-.1-.1-.1-.2l-1.6 1.5-.7-2.3c-.3-.9-.8-1.2-2.2-1.7-.7-.3-1.6-.6-2.3-1.1l-.8-.6c-2.7-2-5.5-4.1-6.7-7.8-.2-.1-.5-.1-.8-.1l-1.3.1-.3-1.3c0-.1-.3-.2-.5-.3-.2-.1-.5-.3-.8-.5-.1.1-.2.1-.4.1-.5.1-1 0-1.3-.2l-.1.1-.3.3c.4.4.7.8 1.1 1.2 2.2 2.5 4.3 4.8 7.1 6.4l1.7 1-1.1 1.1c2.4.2 3.2 1.9 3.7 3 .3.6.5 1.1.9 1.3l2.6 1.7-1.2.4c.1 0 .1 0 .2.1.9.3 2 .7 2.8 1.7l.7.8zm21.7 18.4-.1.3c.1 0 .2-.1.2-.1s0-.1-.1-.2c0 .1 0 .1 0 0zm9.9-1.7c.3 0 .5.1.7.2l.1-.1c-.4-.2-.6-.4-.9-.7-.6.2-1.1.1-1.6-.1 0 .1.1.2.1.3.4.1.7.2 1 .3.2 0 .4.1.6.1-.1 0-.1 0 0 0zm-7.6-3.5 1.5 1.5.5-.2c-.6-.7-1.4-1.4-2.5-2.1l-.5 1.8c.3 0 .5.1.7.2l.3-1.2zm7.1 0zm-26.9-60-15 15.6-.1.1c-1.7 1.8-3.3 3.5-3.3 6.1 0 1.4.2 1.8.7 2.2 1.8 1.5 3.7 3 5.5 4.5 3.4 2.7 6.8 5.5 10.2 8.4 3.7 3.2 7.6 6.3 11.4 9.3 2.5 2 5.1 4.1 7.7 6.1 1.9 1.5 3.8 3 5.8 4.4 1.3 1 2.6 1.9 3.8 2.9l.1-.1c.1-.2.3-.3.4-.4 2.3-2.4 4.7-4.8 7-7.3 2.9-3 5.7-6 8.6-8.9 12.6-13 25.6-26.3 38.6-39.5.8-.8.9-1 .1-2.1-4-5.7-8.1-11.5-12-17.1-3.8-5.5-7.8-11.2-11.7-16.8-2.8-3.9-6-7.7-9.1-11.4l-1.2-1.4c-.3-.4-.7-.6-1.3-.6-.9 0-2 .4-2.8 1.3-2.4 2.3-4.7 4.7-7.1 7.1l-3.4 3.4-10.9 11.3c-2.8 2.9-5.6 5.8-8.5 8.8l8.1 3.2-9.6-1.7c-3.5 3.7-7.1 7.4-10.7 11.1l2.4 3.1-3.7-1.6zm5.6 47.2c.1.1.4.3.6.4-.2-.1-.4-.3-.6-.4zm.1.4zm-.2-.5zm81-13.8c.1.1.3.2.4.4-.1-.2-.2-.3-.3-.5 0 0-.1 0-.1.1zm15.3-4.2zm-16.3-1.4h.1c.1-.1.1-.2.2-.5l-.3.5zm-106.2-2.5zm-1.7-2.7c.5.2.8.5 1 .8-.1-.5-.1-.9-.1-1.3v-.1c-.3.1-.6.1-.9.2.1.1.1.2 0 .4zM510 437.6zM409.7 433c0 .1.1.1.2.2.7.6 1.3 1.3 1.8 2 .6.8 1.5 1.9 2 1.9.4 0 1.4-1.3 1.8-1.9.5-.7 1.1-1.4 1.7-1.9.5-.4.9-.9 1.3-1.3l1.8-1.8.2-.2c-.1-.1-.2-.1-.3-.2l-4.2-2.7c-.2-.1-.4-.2-.5-.3l-.4.5c-1.6 1.8-3.3 3.6-5.1 5.2-.2.3-.3.4-.3.5zm-.2-.2zm13.1-6.5 1.8.7.6-.6c-.4-.5-.8-1-1.1-1.5-.1.1-.3.2-.4.4-.1.1-.3.3-.4.3-.2.3-.4.5-.5.7zm62.1-2.8c.1.2.3.4.4.6 0-.2.1-.3.1-.4-.1-.1-.3-.2-.5-.2zm-3.9-5.7c.3.5.7 1 1 1.5l.3-.2c-.3-.5-.7-1-1.3-1.3zm-51.8-5.6c.8.7 1.4 1.6 1.9 2.3.6 1 1.2 1.8 2.1 2.2.3.1.6.3.8.5l1.3-1.3c-.2-.2-.4-.5-.5-.7l-.1-.1h-1l-.1-.9c-.4-.2-1.2-.7-1.3-1.7-.1-.7.1-1.4.7-2l.1-.1c-.3-.4-.6-.8-.9-1.1-1 .9-2 1.9-3 2.9zm-.3.3zm9.3-.7zm-3.6-4.4c.9 1.2 1.8 2.3 2.9 3.3.2.2.4.4.5.6l.3.3c.1 0 .2-.1.3-.2.1-.1.1-.1.1-.2l-.1-.1c-.2-.2-.5-.4-.7-.7l-1.4-1.6-.2-.2c-.4-.3-.9-.9-1.4-1.5-.1.2-.2.3-.3.3zm4.4 3.7zm32.5-6.6c.3.4.7.9 1 1.3-.1-.3-.1-.6-.2-.9 0-.1 0-.2-.1-.3-.2 0-.5 0-.7-.1zm-1.1-5.4.7.7c.4.4.6.8.8 1.2.3.6.3.6.8.6l-.1-.2c-1-2-1.6-3.1-3.2-3.4-.6-.1-1-.4-1.3-.7.3.6.6 1.2 1 1.8.2.2.3.4.3.4s.1 0 .2-.1l.8-.3zm-9.9-5.7c1.3.1 2.4.7 3.2 1.6-.4-1-.8-1.9-1.2-2.8-.3.2-.5.3-.8.5-.4.2-.8.4-1.2.7zm-3.2.7c-.1 0-.2 0-.2.1-.1 0-.1.1-.2.2.1-.2.3-.3.4-.3z"/><path d="M311.7 314c2.5-.5 3.2-3.1 5-4.4 3.2-2.3 4.9-6.3 8.3-8.2 3.1-1.7 5.1-4.6 7.3-6.9 4.1-4.3 8.2-8.7 12.6-12.9 5-4.7 9.3-10.2 14.5-14.6.7-.6.9-2.3 2.6-1.3.4.2.6-.7-.2-1.4-1-.8-2.6-1.2-2.7-3.4l21.4 21.4c-2.5-.9-3-3.2-4.8-4l-.6.6 23.4 23.4c-4.3-5.6-9.6-9.5-13.7-14.5.2-.2.4-.3.6-.5l24.8 24.8c-2.8-.1-3.3-2.7-5.7-3.6 4.5 4.5 8.5 8.7 12.7 12.6 6.3 5.9 12.3 12.2 18 18.8 1.3 1.4 2.5 3 4 4.1 2.3 1.7 1.5 3 0 4.5-4.2 4.1-8.3 8.3-12.4 12.4-.9.9-1.8 1.9-2.3 3.1 5-5 10.2-10 15.1-15.2 1.9-2.1 2.9-1.7 4.6.1 4.8 5 9.8 10 14.8 14.8 2.4 2.3 5.5 3.9 6.8 7.2-.2 0-.4.2-.5.1-1.4-.9-2.5-3.5-3.8-2.9-2 .9-3.6 3.1-5.1 4.9-.9 1.1.4 1.8 1 2.2 2.4 1.7 1.7 3 0 4.7-13.5 13.4-27.1 26.6-40.2 40.5-9.3 9.9-19.2 19.2-28.4 29.1-4.6 4.9-9.1 9.8-13.8 14.5-.6.6-1.6 1.3-.4 2.3h-.1c.7-2 2.2-3.3 3.7-4.7 12.1-12.1 23.8-24.5 35.7-36.7 7.8-8 15.3-16.5 23.7-23.9 7.1-6.2 13.3-13.4 20.2-19.7 3.5-3.2 6-7.4 10-10.2 1.3-.9 1-2.1 0-2.9-7.1-6-13.1-13.3-19.9-19.7-6.6-6.2-12.4-13.1-19.3-19-.2-.2-.4-.3-1.1 0l35.1 35.1c-.2.2-.4.4-.5.6-1.9-1.6-4.2-2.8-5.6-4.7-3-4.2-7.3-6.9-10.7-10.5-5.8-6.1-11.7-12.2-17.4-18.3-.8-.9-2.8-1.6-1.5-3.6.1-.1-.7-1.1-.8-1-1.9.8-1.4-2.8-3.3-1.8-.8-4-4.5-5.9-6.9-8.5-6-6.4-12.2-12.4-18.4-18.6-4.3-4.3-8.5-8.8-13.1-12.7-2.4-2.1-4.2-4.7-6.5-6.9-2.6-2.4-4.9-5.1-7.3-7.6-2.4-2.4-4.9-4.7-7.4-7.1-2.5-2.4-4.9-4.9-7.4-7.4-.4.7-.2 2.6-1.7.8-1.2-1.4-2.3-2.9-4.3-4 1.6 2.9 4.3 4.4 6.1 6.6l4.3 4.6c.2 1.1-.8 1.5-1.3 2-15 15.1-30 30.1-44.9 45.1-1 .7-2 1.3-2.3 2.4zm149.5 54.9c.3.1.5.3.8.4-1.2.7-2 2-1 2.8 1.2 1 1.2-.8 1.8-1.4.3-.3.7-.2 1.1.1-1.2 1.5-2.3 3-3.5 4.4-.6.7-1.5.9-2.2.1-.4-.4-1.4-.8-.9-1.5 1.2-1.7 2.6-3.3 3.9-4.9zm-40.1-45.7c-3.6-1.9-7.8-6-8.6-8.6 3.1 3 5.8 5.8 8.6 8.6z"/><path d="m379.4 468.3-7.1-.6.4-1.1c-.2-.3-.3-.7-.3-1.1-.1-1.1.8-1.9 1.2-2.3l.2-.2c3.5-3.5 7-7.2 10.3-10.8 1.2-1.2 2.3-2.5 3.5-3.7 4.8-5.1 9.8-10.1 14.7-15 4.6-4.6 9.3-9.3 13.8-14.1 9.8-10.3 20.1-20.5 30-30.4 3.4-3.4 6.8-6.7 10.2-10.1 1.1-1.1 1.2-1.4 1.1-1.5 0 0-.1-.3-.9-.9l-.2-.1c-.6-.4-1.7-1.1-1.8-2.3-.1-.5 0-1.3.7-2 .3-.3.5-.6.8-.9 1.3-1.6 2.7-3.2 4.4-4.1-.1 0-.1-.1-.2-.1-.8-.6-1.6-1.3-2.3-2-5-4.8-10-9.8-14.8-14.9-.9-1-1.2-1-1.3-1 0 0-.3 0-1.2.9-3.5 3.7-7.2 7.4-10.8 10.9-1.5 1.4-2.9 2.9-4.3 4.3l-6.2 6.2 3.8-7.9c.7-1.5 1.8-2.7 2.6-3.5l.5-.5c3.9-3.9 7.9-8 11.9-11.9 1-1 1-1.3 1-1.4 0 0 0-.3-.8-.9-1.4-1-2.5-2.4-3.6-3.6l-.7-.7c-6.1-7-12-13.1-17.9-18.7-2.9-2.7-5.7-5.5-8.6-8.5l-4.1-4.1-5-5 3.3 1.3-3.4-3.4-1 .9-24.4-24.5 1-1-11-11c-.5.3-1.2.3-1.7 0 0 0 0 .1-.1.1-.2.3-.4.7-.8 1-3 2.6-5.8 5.6-8.5 8.4-1.9 2-3.9 4.1-5.9 6.1-3.5 3.3-6.9 6.9-10.2 10.3l-2.4 2.5c-.5.5-1 1.1-1.6 1.7-1.7 1.9-3.5 4-6.1 5.4-1.6.9-2.8 2.4-4 3.9-1.2 1.5-2.5 3-4.1 4.2-.5.4-1 1-1.4 1.6-.7 1-1.6 2.2-3.1 2.8l-1.2 4.6-2-6.9.8-.2c.4-.8 1.1-1.4 1.6-1.9l.5-.5 14.8-14.9c10-10.1 20.1-20.2 30.1-30.2.2-.2.4-.3.6-.5 0 0 .1 0 .1-.1l-3.7-4c-.7-.7-1.4-1.4-2.2-2.1-1.4-1.3-3-2.7-4.2-4.8l-2.5-4.6 4.6 2.6c1.9 1 3 2.4 4 3.6l.8-1.5 3.7 3.7 5.1 5.1c1 1 2.1 2 3.1 3 1.4 1.3 2.9 2.7 4.3 4.1 1 1 2 2.1 3 3.1 1.4 1.5 2.8 3.1 4.3 4.4 1.2 1.1 2.2 2.2 3.2 3.4 1.1 1.3 2.1 2.4 3.3 3.5 3.5 3 6.8 6.4 10 9.6l3.2 3.2 4.3 4.3c4.7 4.7 9.5 9.5 14.2 14.4.6.7 1.4 1.3 2.2 2 1.8 1.5 3.8 3.3 4.8 5.9.7.2 1.4.7 1.9 1.8 0 0 .1.1.1.2.9-.1 1.5.6 1.8.9.2.3.7.8.8 1.5.5 0 .9.2 1.2.5 4.1 3.5 7.9 7.4 11.5 11.2 2.5 2.6 5.1 5.3 7.8 7.9 2.8 2.7 5.6 5.6 8.2 8.3 3.7 3.8 7.5 7.8 11.6 11.3.9.8 1.4 1.8 1.4 2.8 0 1-.6 1.8-1.5 2.5-2.2 1.5-4 3.6-5.9 5.7-1.3 1.5-2.6 3-4 4.3-3.1 2.9-6.1 5.9-9 8.9-3.6 3.6-7.3 7.4-11.2 10.9-5.8 5.1-11.2 10.8-16.5 16.4-2.3 2.4-4.7 5-7.1 7.4-4.8 4.9-9.7 10-14.4 14.9-6.9 7.2-14.1 14.6-21.3 21.8l-.5.5c-.9.9-1.7 1.7-2.3 2.7l3 2.6zm79.6-94.2c.1.1.2.1.2.2.3-.3.6-.7.8-1h-.1c-.1-.1-.2-.1-.2-.2-.2.2-.5.6-.7 1zm7.4-5c.1.2.3.5.4.8.2-.1.2-.2.2-.2l-.3-.3-.3-.3zM531.8 502.1c2.8 5.6 6.8 10.3 11 14.8 2.7 2.9 5.2 5.9 8 8.5 1.2 1.1-.1 1.6-.1 1.5.5 1.7 2-1.9 1.6 1.2-.1 1 .7 1.3 1.2 1.8.5.4.8.9.2 1.4-.5.5-1 .1-1.5-.2-1-.6-1.2-2-2.5-2.3 0 1.5 1.4 2 2.1 2.9.9 1.1 0 1.5-.6 2.1-7 7.1-14.1 14.1-21.1 21.2-1.4 1.4-2 .5-3-.3-1.2-1.1-.8-1.7.2-2.7 6.6-6.5 13.1-13.1 19.7-19.7.5-.5 1.1-.8 1.1-1.8-4.6 4.6-9 9-13.5 13.4-3.4 3.4-7 6.8-10.3 10.4-1.6 1.7-2.5 1.3-3.9-.1-2.1-2-3.8-4.6-6.9-5.8.1 2 .8 3.1 2.6 3.5.7.2 1.4.3 2 .8 1.9 1.6 2.8 2.8.4 4.9-3.1 2.7-5.9 5.8-8.7 8.7-.7.7-1.3 1.1-2.1.2-1.1-1.2.5-1.2.8-1.4 1.5-.9.7-2.8 2.2-3.9 1.1-.8 1.4-2.4 3.3-2.7 1.4-.2 1.3-2.2 1.7-3.3.4-1.1-.9-1.2-1.6-1.5-1.7-.7-2.8-2.6-4.9-2.4.5.4 1.1.8 1.6 1.1 2 1.1 3.4 2.1.7 4.1-1.4 1-2.5 2.4-3.7 3.6-.8.9-1.1.7-1.8-.3-1.5-2-2-4.5-3-6.7-.3 2.3.5 4.3 1.8 6.1 1.1 1.5 2.3 3.1.4 5-1.5-.6-2.2-2.3-3.8-2.9 1.7 1.7 3.5 3.5 5.2 5.3.5.5 1.6 1 .7 2.1-1.9 2.3-4.8 3.7-5.7 6.9-.2.5-1.4.8-2.2 1.2 2.7.2 4.1-.8 10.5-7.5-1.8.3-2.5 1.6-3.5 2.5-1 .9-1.9 1.9-2.9 2.9l-.5-.5 18-18c.2.2.4.4.6.5l-11.1 11.1c4.4-2.9 7.7-7 11.7-10.5.7 3.4.1 6-2.6 8.3-4.1 3.6-7.8 7.7-11.7 11.5-1.3 1.2-1.2 1.9 0 3.2 4.9 5 4.9 5.1 9.9.1 20.3-20.3 40.6-40.6 61-60.9 2-2 2-3.1 0-5-4.2-4-4.1-4.1-8.3.1-2.7 2.7-5.6 5.3-8.1 8.2-2.5 2.9-5.3 4.7-10.1 3.5l12.2-12.2c2.7-2.7 5.3-5.5 7.8-8.4 2.3-2.8 2.5-5.4.1-8.1-.6-.7-1.3-1.3-2.2-2.3-.2 1.4.5 1.7 1.1 2.3 2.7 2.3 2.8 5.3.3 7.8-.9 1-1.9 1.9-2.8 2.9-.6.6-1 1.6-2.3.6-1-.7-1.6.7-2.2 1.3-1.1 1.3-1.9 1.2-3 0-1.7-1.8-3.5-3.5-5.6-4.8 1.7 1.7 3.4 3.6 5.3 5.2 1.2 1.1 1.1 1.9-.1 3-2.3 2.2-4.6 4.5-6.4 7.2 3.2-3.2 6.4-6.5 9.7-9.7.6-.6 1.2-2.1 2.1-1.2.9.8-.3 1.7-.9 2.3-4.4 4.5-8.9 8.9-13.5 13.5-.9-2.2 2.1-2.5 1.9-4.2-1 0-1.2.9-1.7 1.3-1.8 1.8-2.7 1.8-3.4-.6-.7-2.1-1.2-4.1-4.1-3.6-.2 0-.6-.4-.8-.7-3.5-4.1-7.2-8.1-10.2-12.7-.6-.9-.1-2.2-1.1-2.8 0-.4-.4-.4-.7-.3zm-6.6 58.7c0-.3-.1-.5-.1-.8-.5-.4-1-.8-.4-1.4 1.4-1.2 2-2.1-.2-2.9-.5-.2-.3-.4-.2-.6.3-.3.8-1 1-.9 1.2.4 2.8 2.1 2.5 2.3-1.8 1.9.4 2.4 1 3.3 1.6 2.3 1.1 4-1.3 4.3.6.4 1.1.9 2 .3 1.7-1.2 1.9-2.9.1-4.5-1.6-1.4-1.6-2.3-.1-3.8 7.8-7.6 15.5-15.4 23.2-23.1 1.4-1.4 2.1-1.5 3.5 0 2.1 2.2 3.9 1.8 5.3-.9 1.2-2.3.7-4.3-1.8-6l11.4-11.4c3.4-3.4 3.3-3.3 6.8-.1 2.2 2 1.7 3-.1 4.9-20.2 20.1-40.4 40.3-60.6 60.5-4.2 4.2-4.1 4.1-8.3-.2-1.1-1.2-1.2-1.8 0-3 4.1-4 8.1-8.1 12.2-12.2.7-.7 1.3-2.1 2.3.1.5 1.2 1.9 1.1 2.6-.4-.5-1.1-1.3-2.1-.8-3.5zm29.9-32.5c1.2 2.4 3.4 3.1 5.6 4-.4.6-.5 1.2-1.7 1-1.8-.3-2.8-1.5-4.1-2.5-1.4-1.1-.6-2.7-.3-3.2.9-1.3 2.7-.7 4-.5 1.1.2.5 1.4.6 2.3-1.5-.2-2.3-1.5-4.1-1.1zm-46.7 33.5-.6-.6c2.4-2.2 4.2-5 7.4-6.3-2.2 2.3-4.5 4.6-6.8 6.9z"/><path d="M513.2 585.2s-.1 0 0 0c-1.9 0-3.2-1.4-5.9-4.1l-.1-.1c-.7-.7-1.4-1.6-1.4-2.7s.8-2 1.4-2.6c1.5-1.5 3.1-3 4.5-4.5 2.3-2.3 4.7-4.8 7.2-7 1.4-1.2 2.1-2.4 2.3-3.9-.5.5-1.1 1-1.6 1.6-1.7 1.7-3.5 3.5-5.5 5.1h.1l-3 3.2c-6.4 6.8-8.2 8.3-11.7 8l-5.3-.5 4.8-2.4c.3-.1.7-.3 1-.4.2-.1.4-.1.5-.2.8-2.4 2.5-3.9 4-5.2.6-.5 1.1-1 1.6-1.6l-.4-.4c-1.2-1.3-2.5-2.5-3.7-3.8l-1.5-1.5-4.6-4.6 6.2 2.1c1.2.4 2 1.3 2.7 1.9l.2.2c-.1-.5-.4-1-1.1-1.9-1.7-2.4-2.4-4.7-2.1-7.2l.6-5.4 2.2 4.9c.4.8.7 1.6.9 2.4.5 1.4.9 2.7 1.7 3.8l.4-.4c1-1 2-2.1 3.2-3 .4-.3.7-.6.8-.7-.2-.2-.5-.4-1.3-.8-.5-.3-.9-.6-1.3-.9-.2-.1-.3-.2-.5-.3l-3.5-2.4 4.3-.3c1.4-.1 2.4.4 3.3 1-.3-.6-.4-1.4-.4-2.2l-.1-2.3 2.1.9c2.6 1 4.3 2.9 5.9 4.6l1.2-.5-.8.8 1.2 1.2c.7.7.9.8 1 .8 0 0 .2-.1.7-.6 2.3-2.5 4.8-5 7.2-7.3l3.1-3.1 9.4-9.4 5.1-5.1v-1.3l.9.2V526c-1.9-1.8-3.6-3.7-5.4-5.6-.7-.8-1.5-1.6-2.2-2.4-4.1-4.4-8.3-9.3-11.2-15.1l-1.1-2.2h4l.4.2c1.3.8 1.4 2 1.5 2.7 0 .2.1.5.1.6 2.4 3.6 5.4 7 8.2 10.3.6.7 1.3 1.5 1.9 2.2l.1.2c1.8-.1 2.9.6 3.6 1.5v-1.9l1.6 5.6c0 .1 0 .1.1.2.2-.1.4-.3.7-.6.1-.1.1-.2.2-.3.3-.5.9-1.4 2.1-1.5l-.2-.1c1.7-2.4 3.8-4.8 6.6-7.4l.4-.4-.3-.3c-1.3-1.2-2.6-2.5-3.8-3.7-.5-.5-1-1-1.5-1.6l-9.2-9.2 11.1 6.9c2 1.2 3.9 2.9 5.9 5.1l.4.4.3-.3c.1-.1.2-.2.2-.3.4-.6 1-1.5 2.1-1.7.4-.1 1.1 0 1.7.4.1-.1.2-.3.4-.4l1.5-1.5c.4-.5.9-.9 1.3-1.4.9-.9 1.4-2 1.3-2.9 0-.9-.6-1.9-1.6-2.7l-.2-.2c-.6-.5-1.8-1.4-1.4-3.5l.5-2.9 2.1 2.1c.3.3.6.6.9.8l1.5 1.5c2.8 3.2 2.8 6.6-.1 10-2.6 3-5.2 5.9-7.8 8.5l-8.2 8.2-1.7 1.7c2.4-.2 4.1-1.4 5.7-3.3 1.7-2 3.6-3.8 5.4-5.6l2.7-2.7c4.6-4.7 5.6-4.7 10.1-.4l.3.3c1 .9 1.9 2 2 3.5 0 1.5-1 2.7-1.9 3.6-15.9 15.8-32.1 32-47.7 47.6l-13.3 13.3c-2.8 2.5-4.2 3.9-6 3.9zm-3.5-6.9c.1.1.2.2.4.5l.1.1c1.2 1.2 2.6 2.6 3 2.6.4 0 1.8-1.4 3-2.6l12.6-12.6c-.7 0-1.4-.4-1.7-.6-.6.9-1.5 1.5-2.5 1.5-.9 0-1.8-.5-2.2-1.4l-4.3 4.3c-2.6 2.6-5.2 5.2-7.9 7.8-.3.2-.4.3-.5.4zm-1.9-14.9c0 .1-.1.2-.1.3.1 0 .2-.1.3-.1h.1l-.3-.2zm.2.3zm18.6-3.8.2 1.1-.1.4c-.2.4-.1.8.3 1.4l.5-.1c.6-.1.9-.3.9-.3 0-.1 0-.6-.7-1.6-.1-.1-.3-.2-.4-.3-.2-.2-.5-.4-.7-.6zm3.4-1.8s.1.2.7.7c1.6 1.4 1.8 2.7 1.8 3.6v.2c8.8-8.8 17.7-17.8 26.7-26.7-1.3.1-2.7-.5-4-1.9-.3-.4-.5-.5-.6-.6-.1.1-.3.2-.7.6-8.3 8.5-15.9 16-23.2 23.2-.6.6-.7.9-.7.9zm-16.1 1.9c-.2.1-.5.4-.7.7.3-.2.5-.4.7-.7zm10.7-2.5zm-7-2.8c0 .3-.1.6-.2.9-.1.2-.2.6-.2.9 0 .2-.1.3-.1.5.2-.2.4-.4.7-.6.9-.8.9-1.2.9-1.2 0-.1-.1-.4-.7-.9l-.4.4zm10.5-1.4.1.1.3.3c.1.1.3.2.4.3.1 0 .1-.1.2-.2 4.6-4.6 9.2-9.3 13.8-13.8l7.3-7.3.3-.3c-.1-.1-.3-.2-.4-.3-.2-.1-.4-.3-.6-.5-.3.8-.8 1.2-1.1 1.5l-.2.2-3.1 3.1c-5.4 5.4-11 11.1-16.6 16.6-.2.1-.3.2-.4.3zm22.7-20.6zM562 526c1.6 1.7 2.1 3.7 1.4 5.8 4.5-4.5 8.9-8.9 13.4-13.3 1-1 1.2-1.4 1.2-1.5 0 0 0-.3-1-1.2l-.4-.4c-.9-.8-1.8-1.6-2.1-1.7-.3.1-1.3 1.1-2.2 2.1L562 526zm-1.3 3.3.1.7c0-.2 0-.5-.1-.7zm7.2-21.8zM199.5 300.8c.3-.2.6-.4.8-.7 1-1.3 1.8-2 2.5.3.5 1.5 1.5 2.9 3 3.7.3-.9-.5-1.1-.8-1.6-2.7-3.9-2.6-4.8.7-8.2 9.8-9.8 19.5-19.6 29.3-29.3 10.9-10.9 21.8-21.7 32.7-32.6 9.4-9.4 18.7-18.8 28.1-28.2 2.6-2.7 3.2-2.4 5.7.2 2.3 2.3 5.2 3.9 7.4 6.4.8 1 2 1.7 2.9 3.7l-6.9-6.9-.6.6 9.7 9.7c1.5 1.5 2.8 3.1 4.4 4.4 1.4 1.2 1.2 1.9 0 3.1-6.7 6.7-13.4 13.5-20.1 20.3l-2.8 2.8c1.7.3 2.5-.9 3.2-1.7 6.5-6.8 12.9-13.7 19.6-20.4 1.5-1.5 2.7-3.1 4.8-.7l-7-7 .5-.5 5 5c0-2-1.4-2.3-2.2-3.1-5.9-5.9-12-11.8-17.9-17.8-1.7-1.7-2.9-2.1-4.5-.1-.8 1-1.6 1.7-3.4 1.6-2-.1-3.8 2.4-4.8 4.4-.5 1-1.2 1.9-2 2.7-5.7 5.8-11.5 11.5-17.2 17.3-1.4 1.5-3.4 2.1-4.7 3.7-8.3 10.2-18.3 18.9-27.4 28.3-1 1-2.2 1.7-3.3 2.5-1.9 1.3-3.9 2.6-3.9 5.9 0 1.7-2.7 3.9-4.9 4.7-.9.3-1.6.7-2.2 1.3-4.2 4.1-8.3 8.2-12.4 12.3-1.1 1.1-2.4 1.9-3.5 2.9-1.6 1.5-4.4 2.4-3.7 5.6.1.6-1.4 1.4-2 2.3-.8 1.1-2.4 1.4-2.1 3.1zm88.9-90.5.2.2-20.3 20.3-.2-.2c6.7-6.8 13.5-13.5 20.3-20.3zm-64.7 65-9.9 9.9c2.9-3.7 6.3-6.8 9.9-9.9zm38.9-39.2.2.2-9.2 9.2-.2-.2 9.2-9.2z"/><path d="m206.7 306.3-1.6-.9c-1.7-1-3-2.5-3.6-4.4l-.8.8-.2.2-.9-1-1.5.4-.3-1 .2-.2c.1-1.4 1.1-2.2 1.7-2.7.2-.2.5-.4.6-.5.4-.5.8-.9 1.3-1.3.1-.1.3-.2.4-.4-.4-3.1 1.7-4.6 3.2-5.7.4-.3.8-.6 1.1-.8.5-.4 1-.9 1.6-1.3.7-.5 1.3-1 1.8-1.6l3.2-3.2 9.2-9.2c.7-.7 1.6-1.2 2.7-1.7 2-.7 3.9-2.6 3.9-3.2 0-3.9 2.4-5.6 4.3-7l.2-.2c.3-.2.7-.5 1-.7.8-.5 1.5-1 2.1-1.6 3.2-3.3 6.5-6.5 9.7-9.7 6-5.9 12.2-12 17.6-18.6.8-1 1.9-1.7 2.8-2.3.7-.5 1.4-.9 1.9-1.5 4-4.2 8.2-8.4 12.3-12.4l4.9-4.9c.7-.7 1.2-1.4 1.7-2.3 1.3-2.4 3.4-5.3 6.2-5.2 1.2 0 1.6-.3 2.2-1.1.6-.8 1.7-1.9 3.1-1.9 1.5-.1 2.7.9 3.6 1.9 3.5 3.6 7.2 7.2 10.8 10.7 2.4 2.3 4.8 4.7 7.1 7 .1.1.3.3.5.4.8.6 2.2 1.6 2.1 3.8v.3l.5.5.7.7-1.2 1.1v.9l-.5-.5-.5.5-.5-.5c-.2-.2-.4-.3-.4-.2-.2 0-1 .7-1.3 1.1l-.4.4c-4.4 4.3-8.6 8.8-12.8 13.2-2.3 2.4-4.5 4.8-6.8 7.1l-.3.3c-.7.8-1.9 2.2-4.2 1.8l-2.9-.5 3.1-3.1 1.8-1.8 5.2-5.3c4.9-4.9 9.9-10 14.9-15 .3-.3.4-.4.5-.6l-.4-.4c-1.1-.9-2.1-2-3.1-3-.5-.5-1-1-1.4-1.5l-6.9-6.9-3.8-3.8.7-.7c-.8-.6-1.6-1.3-2.3-2-.5-.5-1.5-1.5-1.9-1.6-.1 0-.5.2-1.7 1.4-4.2 4.2-8.3 8.4-12.5 12.6l-15.6 15.6c-6.1 6.1-12.3 12.2-18.4 18.3l-14.3 14.3c-9.8 9.8-19.6 19.5-29.3 29.3-2.8 2.8-2.8 2.9-.6 6.3 0 0 .1 0 .1.1.4.3 1.4 1.3.9 2.8l-.5 2.1zm-4.6-10.5zM374.5 466.3c-.5-.2-1.2-.7-1.6-.1-1.4 1.9-2.7 2.1-4.3.1-.6-.7-.9 0-1.3.4-1.1 1 1 .9.5 1.9-1-.6-2.8-.6-1.3-2.5.3-.4.4-.8-.1-1.2-4.7-4.7-8.7-10.2-14-14.6 1.2 3 3.3 5.1 5.6 6.9 2.3 1.9 3.7 4.8 6.3 6.3.6.3 1.3 1.2.6 1.9-.8.7-1.3-.3-1.8-.8-1.7-1.7-3.5-3.5-5.7-4.8 3.8 3.8 7.5 7.6 11.4 11.3 1.3 1.2 2.9 1.7 4.4-.3.9-1.3 2.9-1.8 2.9-3.8 0-.1.2-.3.4-.4 4.8-2.3 6.2-3.4 10.7-8.8 1-1.2 2-2.3 3-3.4.7-.8 1.8-1.4.6-2.6-.7-.7 0-1.2.4-1.6 1-1 2-2 2.8-3.2-6.1 6-12.6 11.7-18.1 18.2-.4.5-.6 1.3-1.4 1.2-.1-.1 0-.1 0-.1zm9.7-6.8c-1.7 1.9-3.5 3.8-5.2 5.7-.5.6-.9 1.3-1.8.6-1.1-.8 0-1.4.4-1.8 3.6-3.8 7.3-7.5 10.9-11.3.4-.4.8-1.3 1.6-.6.8.8.1 1.4-.5 1.9-1.7 1.9-3.5 3.7-5.4 5.5z"/><path d="M370.9 473.7c-1.1 0-2.2-.5-3.2-1.5-2.8-2.7-5.6-5.4-8.2-8.1l-3.2-3.2-8.3-8.3 7.6 4.5c-1.8-1.6-3.4-3.6-4.5-6.2l-2.3-5.5 4.6 3.8c3.4 2.8 6.2 6 8.9 9 1.7 1.9 3.4 3.8 5.2 5.6.2.2.4.4.5.7h.2c.4 0 1 .2 1.6.9.6.8.9.8.9.8l.4-.2-2.9-1.9 4.4.6c.5-.2 1-.1 1.7.1.1-.2.2-.3.3-.5 4-4.7 8.6-9.1 12.9-13.2 1.8-1.7 3.5-3.4 5.3-5.1l9.3-9.2-7 11.1c-.8 1.2-1.7 2.2-2.6 3.1l-.3.3c.4.5.6 1 .6 1.6 0 1.1-.7 1.8-1.2 2.3l-.3.3c-.3.4-.6.7-1 1.1-.7.8-1.4 1.5-2.1 2.3-3.6 4.4-5.3 6.1-8.2 7.7l8.8 2.7-11.5-1c-.4 1.4-1.4 2.2-2.2 2.8-.4.3-.7.6-.9.8-1.1 1.5-2.2 1.9-3 1.9 0-.1-.1-.1-.3-.1zm-1.8-4.3.7.7c.5.4.9.7 1.2.6.4 0 .7-.5.9-.7.4-.6 1-1.1 1.5-1.4.4-.3.6-.5.8-.7-.1 0-.3-.1-.5-.2-.9 1-1.9 1.5-2.9 1.5-.5 0-1-.1-1.5-.4-.1.2-.1.4-.2.6zM535.7 461l33.9 33.9c.1-.1.2-.1.3-.2-1.9-1.9-3.6-3.8-5.6-5.6-3.6-3.2-6.3-6.9-8.1-11.3-.2-.5-.7-.7-.3-1.4 1.4-2.4.6-4.7-1.6-6.2-2-1.4-3.9-2.1-6-.4-2.4-2.1-6-2.2-8.1-4.8-1.3-1.5-2.8-2.8-4.2-4.2-.1.1-.2.2-.3.2zm13 11.1c.4-.9.5-2.4 1.9-1.1 1.4 1.3 2.7 2.6 4 4.1 1.1 1.2.7 1.8-.9 1.7-.1 0-.2-.1-.2-.2v.3c.5 1.2 2.3 1.5 2.3 3.3l-10.9-10.9c2.3-.1 2.1 2.5 3.8 2.8z"/><path d="m569.5 497-36-36 2.7-2.1.9.9c.4.4.9.8 1.3 1.3 1 1 2.1 2 3 3.1 1 1.2 2.4 1.8 3.9 2.4 1 .4 2.1.9 3.1 1.5 3-1.7 5.7.2 6.8 1 2.8 2 3.7 5.1 2.2 7.9.1.1.1.2.2.4 1.7 4.2 4.2 7.7 7.7 10.8 1.4 1.2 2.7 2.6 4 3.9.6.6 1.1 1.2 1.7 1.7l1.1 1.1-2.6 2.1zm-15.1-21.5zm-.1-.2zm-1.8-4.5c.8.8 1.7 1.6 2.5 2.6-.2-.9-.9-1.5-1.5-2-.4-.3-.7-.5-1-.6zM302.9 399.8l5.8 5.8c-3.1-2.7-.3-4.2 1.3-5.7 20.9-21.6 42.1-42.9 63.3-64.1.5-.5.9-1 1-1.8l-11.7 11.7c-18.3 18.3-36.6 36.7-54.8 55.1-1.3 1.3-2 1.3-3 0-.4-.5-.9-.9-1.4-1.4-.3 0-.4.2-.5.4z"/><path d="m307.7 406.6-.8-.8-6-6 2.1-3 1.3 1.3.4.4 1.1 1.1c.1.2.2.3.3.4.1-.1.3-.2.5-.4 15-15.1 30.3-30.4 45-45.2l9.8-9.8 8.5-8.5 6.3-6.3-.6 4.4c-.2 1.3-.8 2.1-1.4 2.6-19 19-41.4 41.4-63.3 64.1l-.9.9c-.5.5-1.3 1.2-1.3 1.5 0 .1.1.3.3.6l.6.6-1.9 2.1zM213.9 310.8c.3 1.5-1.1 3 .4 4.1-1 .6-1.2-.5-2-.6l27.2 27.2.5-.5c-8.2-7.3-15.3-15.7-23.8-23.5 1.6-.1 2.8-.2 4.1-.3-2.2-2.1-4.3-4.2-6.4-6.4z"/><path d="m239.5 343.8-30.9-30.9 3.5.1c0-.3.1-.5.2-.8.1-.4.2-.8.1-1l-1-4.9 12.4 12.4-4 .3c3.2 3 6.2 6.1 9.1 9.2 4.1 4.2 7.9 8.2 12.2 12l1.2 1.1-2.8 2.5zm-23.7-28 .3.3.8-.1-.6-.6-.5.4zM476.7 508.5c-.6-2-1.8-3.5-3.3-4.8-1.1-1-.9-1.6.1-2.5 1.5-1.5 3.6-2.2 4.9-4.4-1 .6-1.7.9-2.3 1.4-2.6 2.1-4.9 5.4-9.2 1.5 2.3 3.7.8 5.4-2 6.9-1.4.7-2.7 2-3.4 3.4-1.6 2.9-3.3 4-6 1.3-.2-.2-.9-.4-1.3.5 3.8 2.2 7.6 4.4 11.8 6.8-1-1.9-2.6-2.3-3.9-3-1.7-1-2.3-1.7-1-3.8 1.8-2.8 4.1-4.7 6.8-6.4.9-.6 1.5-.5 2.3.5 1.5 1.8 3.3 3.3 5.8 3.4-1.6-1-3.3-1.9-4.6-3.4-.5-.6-1.6-1-.6-2.1.9-.9 1.5-.3 2.2.3 1.5 1.2 2 3.3 3.7 4.4z"/><path d="m469.9 522.5-17.7-10.2.7-1.3c.4-.8 1.1-1.2 1.8-1.4.7-.1 1.4.1 1.9.5.8.7 1.4 1.1 1.9 1.1.3 0 .9-.4 1.8-2.1.9-1.6 2.4-3.1 4-4 1.4-.7 2.1-1.4 2.3-2 .2-.6-.1-1.6-.8-2.7l-5.6-8.9 7.8 7c2.7 2.4 3.9 1.3 6.1-.6.4-.3.7-.6 1.1-.9.5-.4 1-.7 1.5-1 .3-.2.6-.3.9-.5l5.2-3.3-3.1 5.3c-1 1.7-2.4 2.6-3.5 3.5-.6.4-1.2.8-1.6 1.3-.1.1-.2.2-.2.3l.1.1c2 1.8 3.2 3.5 3.7 5.5l.3 1 3.1 1.9-2.5-.1.3 1-1.6-1-1.7-.1c-3.3-.1-5.4-2.2-6.9-3.9-.1-.1-.2-.2-.2-.3 0 0-.1 0-.1.1-2.9 1.9-4.9 3.7-6.3 5.9-.4.7-.4 1-.4 1s.2.2 1 .7c.3.2.5.3.8.4 1.1.5 2.5 1.3 3.6 3.1l2.3 4.6zm-15.4-10.2zm15.1-9.5v.2l.2-.2h-.2zM266.9 362.8c-.3-1.5.3-2.4 1.3-3.2 3.4-2.9 6.5-6.1 8.9-10.2-3.7 2.8-6.3 6.3-9.2 9.6-1.6 1.8-2.7 2-4.1 0-1.1-1.7-1.1 0-1.4.5-1-.1-.4-1.1-.8-1.6-.5-.5-.1-1.8-1.1-1.7-1.5.2-.4.8-.1 1.3-1.3-.4-2.7 1.1-4-.3-3.2-3.3-6.4-6.5-10-9.4l18.2 18.2c-.3-1.6-1.8-1.9-2.3-3-.3-.7-2-1.1-.6-2.2.9-.7 1.9-1.7 3.1-.1.5.7 1.3 1.4 2.1 2.1z"/><path d="m267 370.5-21.7-21.7 2-2.2c3.2 2.7 6.5 5.7 10.1 9.5.2.2.2.2.7.1 0-.1 0-.2.1-.2.4-1.1 1.6-1.3 2-1.3.7-.1 2.1.1 2.5 2.1 1.2-.2 2 .9 2.3 1.3.5.7.7.8.7.8s.3-.1 1-.9c.6-.6 1.1-1.3 1.7-1.9 2.3-2.7 4.7-5.5 7.8-7.8l5.8-4.5-3.6 6.4c-2.7 4.8-6.4 8.2-9.2 10.6-.9.7-.9 1.1-.8 1.8l1.1 5-3.6-3.6c-.2-.2-.4-.4-.7-.6-.6-.5-1.1-1.1-1.6-1.7-.1-.1-.1-.1-.1-.2-.1.1-.2.1-.3.2.2.2.4.4.5.7l.5.5c.6.5 1.5 1.3 1.8 2.7l1 4.9zm-7.4-11.6.7.7c-.1-.2-.1-.4-.2-.6l-.3-.1h-.2zM287.9 256.7c-12.3 12.2-24.3 24.7-36.4 37.1 12.5-12 24.9-24.1 36.4-37.1z"/><path d="m252.5 294.9-2.1-2.1c2.6-2.6 5.1-5.3 7.7-7.9 9.3-9.7 19-19.6 28.7-29.3l2.2 2.1c-11.4 12.9-23.8 25-36.5 37.2zM240.2 337.4c.7-1.3-.7-1.7-1.2-2.2-4-4.1-8-8.2-12.1-12.2-1.7-1.6-1.7-2.7.1-4.4 5.4-5.2 10.5-10.7 16-15.8 2.5-2.3 4.4-5.1 6.7-7.6l-8.9 8.9c-5.1 5.1-10.1 10.1-15.3 15.1-1.3 1.2-1.5 2-.1 3.3 3.4 3.1 6.8 6.2 9.9 9.6 1.1 1.2 2.7 2.1 2.5 4.4-.2 1.5 1.8-.3 2.4.9z"/><path d="m243.4 340.6-4.3-2.1c-.5.1-1.5.3-2.2-.4-.3-.3-.7-.9-.6-1.8.1-1-.4-1.6-1.4-2.5-.3-.2-.5-.5-.7-.7-3.1-3.3-6.5-6.4-9.8-9.5-.7-.6-1.5-1.5-1.5-2.7 0-1.2.8-2.1 1.5-2.9 3.9-3.8 7.8-7.7 11.6-11.5l3.6-3.6 5.9-5.9 3-3 2.2 2.1c-.8.9-1.6 1.9-2.4 2.8-1.3 1.6-2.7 3.3-4.3 4.8-3 2.8-6 5.8-8.8 8.7-2.3 2.3-4.7 4.8-7.2 7.1-.8.8-.8 1.1-.8 1.1s0 .3.8 1.1c3.6 3.5 7.5 7.4 12.1 12.2.1.1.2.1.3.2.5.3 1.8 1.3 1.5 2.9l1.5 3.6zM366.9 422.9c-6.7 5.6-12.1 12.6-18.3 18.7-1.5 1.5-2.3 1.6-3.8 0-3.7-3.9-7.6-7.7-11.9-11l17 17c0-.5.1-.7 0-.8-2.7-3-2.7-3 .2-6 4.5-4.6 9.1-9.1 13.7-13.6 1.2-1.2 1.6-3.1 3.1-4.3z"/><path d="m351.3 451.2-19.5-19.5 2-2.2c4 3.1 7.9 6.8 12.1 11.2.5.6.8.7.8.7s.2-.1.9-.7c2.4-2.4 4.8-5 7.1-7.4 3.4-3.7 6.9-7.6 10.9-11 .2-.1.3-.3.5-.4l1.9 2.4c-.1.1-.2.2-.4.3-.4.4-.8 1-1.1 1.7-.4.7-.8 1.5-1.5 2.2-2.4 2.5-4.9 4.9-7.3 7.3-2.1 2.1-4.2 4.2-6.4 6.3-.7.7-1.6 1.6-1.8 2 .1.3.9 1.2 1.6 2 .5.5.4 1.2.4 1.5v.4l-.2 3.2zM470.4 554.4c-.2 3.1 3.4 2.2 3.8 4.6-2.8-.5-4-2.8-5.8-4.3-.4-.3-.2-1.6-1.2-1-.6.3-.9 1-.9 1.7 0 1.7 3.9 6 5.5 5.5 2.3-.7 4.1.6 6.4.6-2.2-2.9-4.9-4.8-7.8-7.1z"/><path d="M478.2 562.9c-1.1 0-2-.2-2.9-.5-1.1-.3-2-.5-3-.2-.9.3-2 0-3.3-.9-1.7-1.3-4.2-4-4.2-6 0-1.3.6-2.4 1.7-3 .7-.4 1.3-.4 1.9-.2.3.1.5.3.6.4l.1-1.2 3.3 2.6c2.5 2 4.9 3.8 7 6.4l1.9 2.4-3.1.2zM478.6 489.9c-1.2.8-2.4 1.5-3.4 2.4-.9.8-.4 1.8.1 2.6s1.3 1.2 2.2.5c5.4-3.9 10.4-8.3 14.2-13.8 1.1-1.6.3-2.5-.8-3.3-1.3-.9-1.7.3-2.4 1.1-3 3.7-6 7.6-9.9 10.5 1.2 0 2-.9 2.8-1.7 2.8-2.4 4.9-5.5 7.4-8.3.4-.5.9-1.4 1.8-.6.9.8.5 1.3-.1 2.1-3.4 5.2-7.9 9.2-12.8 12.8-.6.4-1.2.9-1.7.3-.5-.6-.5-1.3.1-2 .9-.8 2.2-1.2 2.5-2.6z"/><path d="M476.6 497.2h-.5c-.8-.2-1.5-.7-2.1-1.5-1.5-2.3-.8-3.8.2-4.5.8-.7 1.7-1.2 2.5-1.8l.9-.6c3.4-2.6 6-5.8 8.7-9.2l.9-1.1c.1-.1.2-.2.3-.4.3-.5.7-1 1.4-1.3.5-.3 1.5-.6 2.8.3 2.9 2 2 4.3 1.2 5.4-3.4 5-8.1 9.5-14.6 14.2-.6.4-1.2.5-1.7.5zM470.8 521.7c9.3 5.8 18.3 12 28.4 16.2-9.4-5.4-18.7-11.2-28.4-16.2z"/><path d="M498.6 539.4c-8.6-3.6-16.6-8.7-24.2-13.6-1.5-.9-2.9-1.9-4.4-2.8l1.5-2.6c7.3 3.7 14.4 7.9 21.3 12l7.2 4.2-1.4 2.8zM324.8 227.3c5.1 6.2 10.8 11.8 16.7 17.3.4.4.8 1.3 1.6.8.2-.1.4-.5.4-.7-.4-.6-.7-1.4-1.6-1.2-.5.2-1.1.3-.9-.4.7-2.2-1.7-2.1-2.2-3.5-.4.7.8.9 0 1.8-3.7-6.7-9.7-11.2-15.1-16.2l12 12-.5.5c-3.4-3.5-6.9-6.9-10.4-10.4z"/><path d="M342.7 247.1c-.6 0-1.4-.3-2.1-1.2 0-.1-.1-.1-.1-.2-.6-.6-1.2-1.2-1.8-1.7l-.1.2-.3-.6c-5.1-4.9-10.1-9.8-14.5-15.3l.5-.4-1.5-1.5 2.1-2.1 3.6 3.3c3.5 3.1 7 6.3 9.8 10.2l.9-1.7 1.1 3.2c.1.1.4.3.6.4.6.4 1.6 1.1 1.8 2.4 1.3.1 2 1.3 2.2 1.8l.1.2c.2.4.3.9.1 1.3-.1.5-.5 1.1-1.1 1.4-.5.1-.9.3-1.3.3zm-.5-1.6zM500.8 565c-1.7-.9-2.3.3-2.6 1.5-.8 3.2 1.7 3.8 3.8 4.6 2.1.9 2.6-1.2 3.4-2.2 1-1.2-1.8-3.9-4-4 2.5 2.7-1.5 2.7-1.5 4.8-1.9-2.4-.8-3.6.9-4.7z"/><path d="m501.3 574.3-1.9-2.5c-1.7-.8-3.5-2.3-2.7-5.6.2-.8.6-1.8 1.4-2.4l-.4-.4h1c.7-.3 1.5-.2 2.3.1h.4c2.2.1 4.5 2 5.3 3.6.5 1 .4 2.1-.2 2.8-.1.2-.2.4-.4.6-.6 1-1.9 3.2-4.7 2l-.1 1.8zm.4-4.9s.1 0 .2.1c.2.1.5.2.7.3.3.1.4.1.4.1.1-.1.5-.6.6-.9.1-.2.3-.5.4-.7-.1-.2-.3-.4-.5-.7-.3.7-.9 1.2-1.4 1.5-.2.1-.3.2-.4.3zM292.2 375.9c-.2-.3-.4-.7-.7-.8-1-.4-5.3 2.6-6 4.5-.6 1.7.8 2.8 1.9 4 .5.5 1.1.4 1.5-.1 1.6-1.6 3.2-3.2 4.7-4.9.6-.7-.1-1.2-.5-1.7-1.1 2.3-2.5 4.5-4.5 5.8-1.7 1.1-1.8-.9-2.1-2.1 1.2 1.1 2 .2 3.1-.1 1.4-.5.1-1 .3-1.5.4-1.4-1.7.5-1.5-.9.2-1.1 1.3-.1 1.8-.8.6-.8-.5-.6-.4-.7.5-2 1.5-.6 2.4-.7z"/><path d="M288.2 385.4c-.6 0-1.2-.3-1.8-.8l-.2-.2c-1.2-1.1-2.9-2.8-2.1-5.3.1-.2.1-.3.2-.5l-.9-2.8 1.7 1.6c1.2-1.4 3.1-2.8 4.4-3.4 1-.5 1.8-.6 2.4-.3.3.1.5.3.7.5l.1-.2 1.5 2 .2.2c1.4 1.6.9 2.7.2 3.4-1.6 1.7-3.3 3.5-4.8 5-.3.5-.9.8-1.6.8zM380.3 292c3.1-3.1 3-3 .8-5.2-.8-.8-1.5-.9-2.2-.1-1.5 1.6-3.1 3-4.4 4.8-1 1.3.9 1.8 1.5 2.6s1.3 1 2.1.2c.7-.9 1.5-1.6 2.2-2.3zm1.3-3c-1.1 1.2-2.1 2.5-3.2 3.7-.5.6-.8 1.8-1.9 1-.6-.5-1.5-.9-1.5-1.9 1.6.6.8-2.4 2.6-1.7 1.6.6 2.8-.3 4-1.1z"/><path d="M377.1 296.3h-.2c-.6 0-1.4-.3-2.1-1.4 0-.1-.3-.2-.4-.3-1.7-1.2-2-2.6-1-4 .1-.1.2-.2.3-.4v-.6l.4.1c.9-1.1 2-2.2 3-3.2.3-.3.6-.6.9-1 .5-.5 2.2-1.9 4.3.1l.1.1.7.7 6.1-3.7-4.9 5.6c0 .2.1.4.1.5 0 1.3-.9 2.2-2.8 4.1l-.7-.7.7.7-.7.7-1.5 1.5c-.9 1-1.7 1.2-2.3 1.2zm2.9-8.5-.9.9-.1.1c.3-.1.7-.3 1.3-.6l-.1-.1-.1-.1-.1-.2zM246.8 336.2l-1.2 1.2c-1.3 1.2-2.2 2.2-.3 3.8 1.6 1.4 2.7 2.4 4.3.3.6-.7 1.3-1.3 2-2 2.3-2.5 2.1-3.9-.9-5.8-.8-.5-1.2-.3-1.7.3-.7.7-1.4 1.5-2.2 2.2zm1.9 2.1c-1.2-.2-2 .4-2.5 1.2-.3.5-.6.8-1.1.4-.2-.2-.2-.8 0-1 1.3-1.4 2.5-2.8 3.9-4.1 1.4-1.3 2.2.1 2.5 1 .8 2.5-2.1 5.8-4.8 5.7.8-1 1.8-1.9 2-3.2z"/><path d="M247.8 344.2c-1.1 0-1.9-.6-2.7-1.2h-.7l.2-.4-.1-.1-.1-.1c-1.1-.9-1.6-1.9-1.6-2.9 0-1.5 1.2-2.5 1.9-3.2l.7-.7.4-.4.4-.4 1.8-1.8c1.1-1.1 2.3-1.3 3.6-.5 1.3.8 2.9 2 3.1 3.7.2 1.7-.9 3.2-1.9 4.3l-.9.9c-.4.4-.7.7-1 1.1-.8 1.1-1.7 1.7-2.7 1.8-.2-.1-.3-.1-.4-.1zm1.4-7.4 1.1.2v-.8c0-.1-.1-.2-.1-.3-.4.3-.7.6-1 .9zM417.1 328.7c-.1.2-.2.2-.2.3-2.6 2.9-2.4 3.5 1 5.4.7.4 1 .2 1.5-.2.8-.8 1.6-1.7 2.4-2.4 1.7-1.4 2.6-2.7.4-4.5-2.1-1.7-3.3-1-4.6.9-.1.2-.3.3-.5.5zm5.9-.1c-1 1.4-1.8 2.7-2.7 3.8-.6.7-1.2 1.6-2.4 1-1.2-.6-1.1-2.1-.9-2.8.4-1.4 1.6-2.4 2.9-3.2.2-.1.6 0 .8.1.3.3.3.8-.1.9-.7.2-1.2.5-.8 1.1.5.7 1 0 1.4-.4.4-.1.6-.8 1.8-.5z"/><path d="M418.6 336.1c-.4 0-.9-.1-1.4-.4-1.9-1.1-3.3-2-3.5-3.5-.2-1.5.8-2.8 2.1-4.3l.3-.4.2-.2.1-.1c.6-.9 1.7-2.3 3.2-2.5 1.2-.2 2.3.3 3.5 1.3.6.5 1 .9 1.3 1.4l.9.3-.5.7c.1.3.1.5.1.8 0 1.5-1.1 2.6-2.2 3.6-.5.4-1 .9-1.5 1.4l-.9.9c-.4.7-1.1 1-1.7 1zm0-5.5c-.1.1-.1.3-.2.4-.1.2-.1.9.1 1l.4-.4.2-.2c.1-.1.1-.2.2-.3-.2 0-.4-.2-.7-.5zM296.5 206.5c-.5.6-.9 1.4-1.5 1.9-1.2 1-1.4 1.7-.1 3 1.2 1.3 2.2 1.3 3.3.2.6-.5 1.1-1.1 1.6-1.6 1.8-1.4 1.6-2.6.1-4.2-1.8-2.1-2.3.2-3.4.7zm3-.5c-1.1 1.4-3.4 1.6-2.5 3.1 1.2 2 1.5-1.6 2.9-.8-1 1-1.6 2.4-3.4 2.1.3.7.6 1.6-.7 1.1-.6-.2-1.6-1.2-1.1-1.7 1.5-1.3 2.1-3.5 4.8-3.8z"/><path d="M296.5 213.8c-.9 0-1.8-.4-2.8-1.4-.6-.6-1.3-1.5-1.2-2.6 0-1.1.8-1.9 1.5-2.5.3-.3.6-.7.9-1.1.2-.2.3-.4.5-.6l.2-.3.4-.1.4-.4c.5-.5 1.2-1.3 2.3-1.3.7 0 1.3.3 2 .9l2.4-.3-1.3 1.6c.5.7.9 1.6.8 2.6-.1 1-.7 2-1.8 2.9-.3.2-.6.5-.9.9l-.6.6c-.8.5-1.7 1.1-2.8 1.1zM328.5 430.4c.4-1.2-1.5-1.7-.3-2.5 1.7-1.1 1.8 1.6 3.5 1.4-2.4-2.4-4.6-4.6-6.9-6.8-.2-.2-.4-.5-.7-.5-3.1-.2-3.1-.2-5.6-1.9l6.4 6.4c-.4-1-1-2-1.1-3.4 3 1.6 1.6 5.8 4.7 7.3z"/><path d="m329 432.6-.6-.6-.5-.3c-1.4-.7-2.2-1.8-2.6-2.9l-7.7-7.7 1.9-2.3c2.1 1.4 2.1 1.4 4.8 1.6.8.1 1.4.6 1.6.9l.1.1 5 5 4 4-3.1.4c-.8.1-1.4-.1-1.8-.4 0 .2-.1.3-.1.5l-.5 1.6-.5-.3v.4zM311.7 314.1c-3.6 2.8-6.5 6.3-9.7 9.5-2.1 2.1-4.1 4.1-6 6.5 3.6-2.3 6.5-5.4 9.2-8.6 2.2-2.4 5.6-3.9 6.5-7.4 0-.1 0 0 0 0z"/><path d="m289.7 335.8 5.1-6.6c1.9-2.5 4.1-4.7 6.1-6.6 1-1 1.9-2 2.9-3 1.9-2 3.9-4.1 6.1-6l-.1-.5.6-.2 1.1-4.9 1.2 4.1 1-.3-.5 2.1.2.6-.4.5c-.8 2.6-2.7 4.2-4.4 5.6-.8.7-1.6 1.3-2.2 2-3 3.5-5.9 6.5-9.6 8.8l-7.1 4.4zM288.8 385.5c-1.3.1-1.3-.9-1.8-1.5-3.7-4.1-6.7-8.8-10.7-12.5-1.1-1-2.1-2.1-3.4-3 2.6 2.9 5.2 5.8 7.6 8.9 1.2 1.5 3 2.5 3 5.1 0 1.1 2.3 2.7 3.4 4.2.4.6 1.2-.7 1.9-1.2z"/><path d="M287.2 388.3h-.1c-.6 0-1.1-.3-1.5-.9-.4-.5-.9-1.1-1.5-1.6-1.2-1.2-2.2-2.2-2.2-3.4 0-1.3-.7-2-1.6-3-.4-.4-.7-.7-1.1-1.2-2.1-2.7-4.4-5.4-7.6-8.8l2-2.2c1 .7 1.9 1.6 2.7 2.4l.8.8c2.5 2.3 4.5 4.9 6.5 7.5 1.4 1.7 2.8 3.5 4.3 5.1.3.3.5.7.6 1v.1l5.5-.5-4.6 3.3-.4.4c-.2.3-.9 1-1.8 1zM240.2 337.4c.7 1.6 4.1 2.8.4 4.8 1 .5 1.2-.6 2.1-.7-.6 1-1.7 2.1 0 3 .4-.7-1-1.6.3-2.1.2-.1.5-.2.7-.2-.3.9 1.1 1.4.3 2.6-.8 1.1.9 2 1.2 1.7 2-2.5 3.2-.2 4.6.7-3.2-3.4-6.4-6.6-9.6-9.8z"/><path d="m260.3 355.4-11.3-7.1c-.4-.3-.8-.6-1.1-.9-.3-.2-.7-.6-.9-.7 0 0-.2.1-.6.6-.7.8-1.9.8-3 0-.5-.4-.8-.8-1-1.3l-.4-.2c-.9-.4-1.5-1-1.7-1.8 0-.1-.1-.3-.1-.4-.1 0-.2-.1-.4-.2l-2.6-1.3 2.5-1.4c.5-.3.7-.4.8-.6-.1-.2-.4-.5-.6-.6-.3-.3-.7-.7-1-1.2l-.8-.4 1-2.6 2 .8.1.3 3.3 3.3.6-.1-.1.2 1-.3-.5 1.2 5.1 5.1 9.7 9.6zm-16.2-9.9zm-3.3-5.3zM491.6 416.3c1.8 7.4 10.2 8.6 13.3 14.8-.3-1.9-3.7-5.8-6.5-8-2.5-2-4.8-4.2-6.8-6.8z"/><path d="m507.8 440.1-4.2-8.3c-1.2-2.4-3.5-4-5.8-5.8-3.2-2.3-6.5-4.7-7.6-9.4l-1.7-6.7 4.3 5.4c1.9 2.4 4.1 4.6 6.6 6.5 2.7 2.1 6.7 6.4 7.1 9l1.3 9.3zM332.8 250.9c1.8.1 2.3 2.7 3.7 1.7 1.9-1.2 3.5-3 4.8-4.8.6-.8-1-1.9-1.6-2.7-.6-.8-1.3.2-1.8.7l-5.1 5.1zm7.8-3.6c-1.2 1.4-1.9 3-3.5 3.9-.5.3-.9 1.1-1.6.5-.7-.5-.3-1.3 0-1.8 1.2-1.8 3.2-2 5.1-2.6z"/><path d="M336 254.4c-1.1 0-1.9-.9-2.4-1.3-.3-.3-.6-.7-.9-.7l-3.3-.2 3.8-3.8c1.3-1.3 2.5-2.5 3.7-3.6l.2-.2c.4-.5 1.2-1.3 2.3-1.2.4 0 1.1.2 1.6.9.1.2.3.4.5.6l.5.5 2.8-.8-1.9 2.3c.2.6.1 1.2-.3 1.9-1.1 1.5-2.8 3.7-5.2 5.2-.5.2-1 .4-1.4.4zM316.3 413.1c-5.8-.7-9.1-4.8-13-8.3l13.2 13.2c-.8-1.6-2.7-2.7-2.2-4.7.3-1 1.2 0 2-.2z"/><path d="m322.3 425.9-20-20 2.1-2.2c.7.6 1.3 1.2 2 1.9 2.6 2.5 5.1 4.9 8.6 5.8.4 0 .7.1.9.2.2 0 .4.1.6.1l9 1-8.8 1.9c-.2 0-.4.1-.6.1.2.3.4.6.8 1.1.4.5.8 1 1.1 1.7l4.3 8.4zM331.2 416.8c-1.2 1.2-2.1 2.2-3.1 3.1-1.9 1.5-1.8 2.8 0 4.3 1.1.9 1.8 1.7 2.9 0 .3-.5.9-.9 1.5-1.4 1.7-1.3 2.2-2.6.1-4-.8-.4-1-1.1-1.4-2zm-2.9 4.1c1-.9 1.2-2.9 3.1-2.5.8.2 2.2 1.4 1.6 2.4-.7 1.4-1.9 2.9-3.4 3.2-1.1.3-1.9-1-2-2.6.7 2.4 1.6 1.5 2.4.5.4-.5 1.6-.9.7-1.8-1.2-1-1.2 1.1-2.4.8z"/><path d="M329.7 426.6c-1 0-1.8-.7-2.4-1.2l-.2-.1c-.8-.7-2-1.8-1.9-3.4 0-.7.2-1.3.7-2l-1.3-12.7 3.4 10.7c.3-.3.6-.7 1-1 .3-.4.7-.8 1.1-1.2l1.6-1.6 1 2.3c.3.6.4 1 .7 1.1 1.3.8 2 1.8 2.1 3 .1 1.8-1.5 3-2.1 3.4l-.3.2c-.4.3-.7.5-.9.8-.2.4-.9 1.5-2.1 1.6-.2.1-.3.1-.4.1zM465.5 547c-.8.4-1.4 1.1-.9 1.8.7.9.4-.7 1-.7s.8.4 1.1.7l13.8 13.8c.3.3.6.5.9.3-5.4-5.2-10.7-10.5-15.9-15.9z"/><path d="M481.1 564.5c-.5 0-1.1-.2-1.7-.8-4.5-4.5-9-9-13.5-13.4l-.6.3c-.5.1-1.2.1-1.8-.8-.5-.6-.6-1.3-.5-1.9.1-.3.2-.6.3-.8l-.8-.8 15.9-3.8-10.4 5.1 15.7 15.7-1.6 1c-.1 0-.5.2-1 .2zM386.2 322.8l6.3-6.3c2.8-2.8 5.7-5.6 8.5-8.5.9-.9 1.7-1.8 2.7.1-1.1-3-1-3-3-1-4.3 4.4-8.7 8.7-13 13-.7.7-1.3 1.5-2 2.2.1.2.3.3.5.5z"/><path d="m386.2 324.8-2.6-2.4 1-1.1c.2-.2.4-.5.6-.7.4-.5.9-1.1 1.4-1.6l5.6-5.6 7.4-7.4.1-.1c1.2-1.2 2-2 3.1-1.7 1.2.3 1.6 1.3 2.3 3.3l-2.7 1.3v-.1l-.3.3c-2 2.1-4.1 4.1-6.1 6.1l-9.8 9.7zM555.9 512.1c-2 1.2-3.1 3.2-4.7 4.7-.9.9-1.3 1.5-2.4-.1-1.2-1.7-1.6-3.8-2.7-5.4-.4 3.4 2.4 5.5 3.5 8.4.4 1 1.9.1 2.6-.7 1-1.2 1.8-2.5 2.5-4l-4 4c1-2.9 4.4-3.9 5.2-6.9z"/><path d="m546.9 524.9 1.5-4.2-.3-.6c-.3-.9-.8-1.7-1.4-2.6-1.2-1.8-2.5-3.8-2.1-6.5l.5-3.8 2.2 3.2c.7 1 1.1 2 1.5 3 .4.9.7 1.7 1.2 2.4l.1-.1c.5-.5 1-1.1 1.5-1.7 1-1.2 2-2.4 3.4-3.2l3.3-2-.1.5 1.2-1.2-3.5 7.6c-.8 1.8-1.7 3.2-2.8 4.4-.1.1-1.5 1.6-3 1.6l-3.2 3.2zM281.8 345.6l13.1-13.1-.5-.5-13.1 13.1.5.5z"/><path d="m281.8 347.7-2.6-2.7 15.2-15.2 2.6 2.6zM349.2 251.9l-4-4c3.3 2 5.6 5.2 8.9 7.3l-9.4-9.4c-.4-.4-.9-.2-1.2.2-.5.5-.1.9.2 1.2l5.2 5.2c.1-.2.2-.4.3-.5z"/><path d="m364.1 263.1-10.8-6.6c-1.3-.8-2.4-1.7-3.4-2.7l-.6 1.1-2.8-2.8-3.9-3.9c-.3-.3-.8-.8-.9-1.6l-6.4-6.4 7.4 4.5c1.2-1 2.4-.6 3 .1 2.4 2.4 4.8 4.8 7.2 7.1l11.2 11.2zM479.7 495.7c5.4-2.3 10.1-5.2 13-9.4-3.8 3.4-7.8 6.8-13 9.4z"/><path d="m480.3 497-1.3-2.7c5.2-2.6 9.2-6.1 12.6-9.2l8.9-8.1-6.7 10c-2.5 4-6.8 7.2-13.5 10zM550 507.9c1.7.9 3.3 1.9 5 2.7.7.4.9.9.9 1.6.2.4 1.5-.3.9.7-.5.8-.9 1.5.2 1.7 1.1.2 1.7-1.1 2.2-1.9.4-.7.1-2.3-.5-2.1-3 1.2-4.2-2-6.6-2.4-.7-.1-1.4-.4-2.1-.3z"/><path d="M557.2 516.1h-.5c-1.1-.2-1.5-.7-1.8-1.2-.3-.5-.2-1.1-.1-1.5-.1-.1-.2-.3-.3-.4l-.2-.3V512.1l-.1-.1c-1.2-.6-2.4-1.3-3.6-2l-5.6-3.1 4.7-.5c.8-.1 1.4.1 2 .2.2 0 .4.1.6.1 1.3.2 2.3.9 3.1 1.6 1.2.9 1.8 1.2 2.7.9.7-.3 1.5-.1 2 .6.7.8.9 2.6.2 3.7l-.2.3c-.3.8-1.2 2.3-2.9 2.3zM206.8 300.4c1-.7 3-1 1.4-3-.5-.6-.4-1.2.6-1.3.3 0 .8-.2.5-.7-.2-.3-.6-.6-.8-.6-1.4.1-3.8 3.7-3.5 5.2.5.2 1.1.3 1.8.4z"/><path d="m207.1 302-3.4-.6-.2-1c-.4-1.8 1.2-4 1.7-4.7.8-1 1.9-2.2 3.2-2.3.9-.1 1.8.6 2.2 1.3.6.9.3 1.7.2 1.9-.2.3-.4.6-.8.8.3.5.5 1.1.3 1.8-.3 1.2-1.3 1.8-2.1 2.1-.2.1-.4.2-.5.3l-.6.4zm-.2-3.6c-.1.1-.1.2-.2.4h.1c.1 0 .2-.1.3-.1 0-.2-.1-.2-.2-.3.1 0 0 0 0 0zM522.9 484.5c-1.3.3-1.4 1-.7 2 1.1 1.7 2.1 3.4 3.1 5.1.4.8.9 1.7 1.9.8 1.2-1.1-.8-.5-.7-1.2.5-2.2-3-2.9-2.1-5.5.3-.9-1.4-.3-1.5-1.3-.1.1 0 .1 0 .1z"/><path d="M526.4 494.3h-.3c-1.1-.2-1.7-1.1-2-1.7l-.1-.1c-.9-1.6-2-3.3-3.1-5-.2-.4-1-1.5-.5-2.8.2-.4.4-.7.8-1v-.6h1.8l11.1.5-8.3 1.8c0 .2 0 .5-.1.9s-.1.6.7 1.5c.6.6 1.3 1.4 1.5 2.6.4.2.8.5 1 1.1.3 1.1-.5 1.8-.8 2.1-.5.5-1.1.7-1.7.7zm1.5-2.7zM206.8 300.4c-.6-.1-1.2-.2-1.9-.3 1.5 3.2 1.7 3.2 3.9 1l1.8-1.8c.7-.7 1.9-1.8 1.8-2-.7-1.2-1.8-2.1-2.1-3.5-.1-.3-.5-.2-.6 0-.2.3-.8.5-.1 1.1.6.4.7 1.1.8 1.9 0 .4 1.4 1.1.5 1.2-1.9.2-1.3 4.2-4.1 2.4z"/><path d="M206.7 304.1h-.4c-1.3-.2-1.9-1.5-2.8-3.4l-1.2-2.6 5 .9.2.2c.1.1.2.1.3.2.1-.1.2-.3.2-.5.2-.4.5-1 .9-1.5-.1-.1-.1-.3-.1-.5-.1-.7-.2-.9-.2-.9-.6-.4-.9-1-.9-1.6 0-.9.5-1.4.7-1.6.5-.6 1.2-.9 1.9-.8.7.1 1.2.6 1.4 1.3.2.7.6 1.3 1.1 1.9.3.4.6.8.8 1.2.7 1.2-.2 2.1-1.4 3.2l-.6.6c-.4.4-.7.8-1.1 1.1l-.7.7c-1 1.2-1.9 2.1-3.1 2.1zM465.4 547c-4.5-4.6-8.7-9.4-14-13.2 3.5 3 6.6 6.5 9.9 9.7 1.4 1.3 1.8 3.6 4.1 3.5.1 0 0 0 0 0z"/><path d="m465 548.7-.2-.2c-2-.3-2.9-1.8-3.6-2.8-.3-.4-.5-.8-.8-1.1-1.3-1.2-2.6-2.5-3.8-3.8-1.9-2-3.9-4-6-5.8l1.9-2.4c4.5 3.2 8.3 7.2 12 11.1.6.6 1.1 1.2 1.7 1.7l.7-.1.5 2.8-2.4.6zM199.5 300.8c1.7 3.2 4.4 5.5 6.9 8.1 1.5 1.6 3.1 3.1 4.8 4.4-4.1-4-7-9.1-11.7-12.5z"/><path d="M210.3 314.5c-1.6-1.2-3.2-2.6-5-4.6-.5-.6-1.1-1.1-1.6-1.6-2-2-4.1-4.1-5.5-6.8l-.1-.2-.4-1.1 1.9-1.2.8.6c2.9 2.1 5.1 4.8 7.2 7.4 1.5 1.9 3 3.6 4.7 5.2l-2 2.3zM262.4 240.6c-4.4 3.1-7.4 7.6-11 11.6 4.5-3.2 7-8.1 11-11.6z"/><path d="m240.7 261.8 9.6-10.6c1-1.1 2-2.3 3-3.5 2.4-2.9 4.9-6 8.2-8.3l1.9 2.4c-1.7 1.5-3.1 3.2-4.6 5-1.9 2.4-3.9 4.8-6.5 6.7l-11.6 8.3zM553.9 502.2l-13-13c3.8 4.8 8.2 9.2 13 13z"/><path d="M553 503.4c-4.7-3.8-9.2-8.2-13.3-13.3l2.2-2 13 13-1.9 2.3zM382.1 407.4l-13.2 13.2.2.2 13.2-13.2c-.1 0-.2-.1-.2-.2z"/><path d="m369.1 423-2.4-2.3 15.4-15.4 2.3 2.4zM370.8 273.8l-6.9-6.9c1.7 2.9 4.1 5.2 6.9 6.9z"/><path d="m380.9 281.7-10.8-6.6c-3.2-2-5.7-4.5-7.4-7.4l-5.6-9.7 23.8 23.7zM269 369.8l12.8 12.8.2-.2-12.8-12.8-.2.2z"/><path d="M281.8 384.7 267 369.9l2.1-2.6 15.1 15zM531.8 502.1h1.1c.3-.5.8-1-.1-1.3-.4-.2-1.3.5-1.1-.5.5-2.3-2-2.7-2.6-4.4-.1-.4-.6-.8-1.1-.4-.5.4-.1.8.2 1.2 1.2 1.7 2.4 3.5 3.6 5.4z"/><path d="m530.9 503.6-1.4-2.2c-.8-1.3-1.7-2.6-2.5-3.9l-.1-.1c-1.2-1.6-.3-2.7.2-3 .6-.5 1.3-.7 2-.5.7.2 1.3.8 1.6 1.5.1.3.5.6.8.9.7.6 1.7 1.5 1.9 3 .1 0 .1 0 .2.1.8.4 1.2 1 1.3 1.4.3.9-.2 1.6-.5 2l-.5.8h-3zM288.6 255.8c3.1-1 4.2-4.4 7.3-5.4-4-.3-4.8 3.6-7.3 5.4z"/><path d="m280.1 260.1 7.6-5.5c.6-.5 1.2-1.2 1.8-2 1.3-1.8 3-3.9 6.5-3.7l7.9.6-7.6 2.4c-1.2.4-2 1.3-3 2.3-1.1 1.2-2.4 2.5-4.3 3.1l-8.9 2.8zM294.5 207.1c-3.6 2.3-5.9 5.8-8.6 9 3.4-2.5 5.9-5.8 8.6-9z"/><path d="m276.3 225.4 8.5-10.2c.6-.7 1.1-1.4 1.7-2.1 2.1-2.6 4.2-5.3 7.2-7.2l8.2-5.2-7.3 8.7c-2.3 2.8-4.7 5.7-7.8 8l-10.5 8zM466.3 526.4l-9.8-9.8c2.8 3.8 5.9 7.1 9.8 9.8z"/><path d="M465.4 527.6c-3.7-2.5-7-5.8-10.1-10.1l2.3-2 9.8 9.8-2 2.3zM375.4 461.8c-.9 1-2.3 1.5-2.6 2.9-1.2.2-.2-3.3-2.2-1.1-.5.6-1.2 1.1-.8 1.9.5.9 2 .5 2.2.4 1.3-1.1 2.9-2.2 3.4-4.1z"/><path d="M371 467.6c-.3 0-.5 0-.7-.1-.8-.2-1.5-.6-1.8-1.3-.9-1.7.3-3 .9-3.5l.1-.2c.4-.4 1.4-1.4 2.6-1.1.4.1.7.3.9.5.2-.1.4-.3.5-.4.3-.2.6-.5.8-.7l3.9-4.5-1.3 5.8c-.5 2.2-2.1 3.5-3.5 4.5-.2.1-.4.3-.5.4-.4.4-1.2.6-1.9.6zM294.5 390.8c1.5 3.3 4.3 5.3 7.2 7.2l-7.2-7.2z"/><path d="m313.3 407.5-12.4-8.2c-3.1-2.1-6-4.2-7.7-7.8l-3.6-7.7 23.7 23.7zM521.9 447.1l10.2 10.2.2-.2-10.2-10.2c0 .2-.1.2-.2.2z"/><path d="m532.1 459.5-12.8-12.9 2-.9.6 1.4-.5-1.4 1.1-.4 12 11.9zM295.8 222.7c2.8-2.7 5.6-5.3 7.2-9-2.2 3.3-5.4 5.5-7.2 9z"/><path d="m290.3 230 4.1-8c1.1-2.1 2.6-3.8 4.2-5.4 1.2-1.2 2.2-2.4 3.1-3.7l2.6 1.4c-1.7 3.8-4.5 6.6-7.3 9.2l-6.7 6.5zM374.2 460.7c-1.9-1.6-4.9.3-6.8 4.3 2.8-.6 2.9-5.4 6.8-4.3z"/><path d="m364.8 467.1 1.3-2.7c1.4-3.1 3.6-5.2 5.8-5.7 1.2-.3 2.5 0 3.4.8l5.1 4.4-6.5-1.9c-1.1-.3-1.5 0-2.6 1.5-.8 1.1-1.8 2.5-3.5 2.8l-3 .8zM400.3 440.6c-2.1 1.3-3.9 2.8-5.1 5.1l5.1-5.1z"/><path d="m389.7 453.4 4.2-8.4c1.4-2.7 3.6-4.4 5.6-5.7l11.6-7.4-21.4 21.5zM258 354.2l-6.4-6.4-.3.3 6.4 6.4.3-.3z"/><path d="m257.8 356.6-8.5-8.4 2.3-2.6 8.5 8.5zM455.4 366.3c-3-.1-2.9 2.9-4.5 4.3 1.9-1 2.7-3.2 4.5-4.3z"/><path d="m439.5 378.1 10.4-8.7c.3-.3.6-.8.9-1.4.7-1.3 1.8-3.3 4.6-3.3l5.1.1-4.3 2.7c-.6.4-1.2 1-1.7 1.7-.7.9-1.6 1.9-2.9 2.6l-12.1 6.3zM338.7 258.5c-2.1 1.9-4.6 3.4-7.3 5.3 3.4-.8 5.5-2.8 7.3-5.3z"/><path d="m324.4 266.9 6.2-4.4c.9-.6 1.7-1.2 2.6-1.8 1.7-1.1 3.2-2.2 4.6-3.4l10.9-10-8.7 11.9c-1.6 2.2-4 4.9-8.1 5.8l-7.5 1.9zM408.8 380.3c-3.3 2.2-5 4.9-7.2 7.2l7.2-7.2z"/><path d="m402.6 388.6-2.2-2.1c.6-.6 1.1-1.3 1.7-1.9 1.6-1.9 3.3-3.8 5.8-5.5l12.4-8.2-17.7 17.7zM506.3 542c2.1 2.1 4.6 3.6 6.7 5.7-1.8-2.3-3.7-4.6-6.7-5.7z"/><path d="M512 548.8c-1-1-2.1-1.9-3.3-2.8-1.2-.9-2.3-1.8-3.4-2.9l-5-5 6.6 2.5c3.2 1.2 5.2 3.5 7.4 6.2l-2.3 2zM296.9 383.9c2.6-1.8 5-2.9 5.8-5.8-1.1 2.4-4 3.1-5.8 5.8z"/><path d="m291.5 389.5 4.2-6.4c1-1.6 2.3-2.5 3.4-3.4 1-.8 1.8-1.4 2.3-2.3l2.8 1.1c-.8 3-3 4.4-5.2 5.8-.4.3-.8.5-1.2.8l-6.3 4.4zM527.5 564.1c-1.2-.8-1.8-2-2.3-3.4-.6 1.4.3 2.5.9 3.6.5 0 .9-.1 1.4-.2z"/><path d="m525.2 566.1-.5-1c-.1-.2-.2-.4-.3-.5-.6-1.1-1.3-2.5-.6-4.3l1.6-3.9 1.3 4c.4 1.2.9 2 1.7 2.6l2.9 2.1-6.1 1z"/><path fill="none" d="M100.1 599.9h300v300h-300z"/><path fill="#FFF" d="M117.9 750.9h61.6c31.6 0 53.1 17.8 53.1 46.1 0 32.4-24.5 47.2-53.9 47.2h-28.6v55.6h-32.2V750.9zm32.2 67.7h24.6c14.9 0 25.4-5.7 25.4-20.9 0-15.4-11.1-21.1-24.8-21.1h-25.2v42zM343.6 757.7v22.9c-22.5 31.9-44.6 78-50.1 119.2h-31.8c5.6-41.8 31.1-91.9 50.4-116.7h-66.9v-25.4h98.4z"/><path fill="none" d="M600.1 99.9h300v300h-300z"/><path d="M671.3 257.6v-2c0-24.7 11.1-44.9 41.9-67.3 20.1-14.7 26.1-19.7 26.1-32.1 0-12.3-6-19.2-17.9-19.2-13.9 0-18.9 8.5-20.9 20.9h-29.8c2-24.5 18.1-45 50.7-45 36.5 0 49 21.7 49 43 0 20.7-8.9 30.7-35.1 49.1-17.5 12.3-24.6 20.4-27 26.8h67.3l-3.8 25.8H671.3zM851.6 257.6v-31.9h-64.3v-26.9l59.3-83.2h33.7v85.2h17.1l-2.8 25h-14.3v31.9h-28.7zm0-82.3c0-15.4 0-24 .6-32.9-5.6 11.9-24.2 39-37.5 58.2h36.9v-25.3z"/><path fill="none" d="m241.51 112.226 70.71-70.71 424.26 424.26-70.71 70.71z"/><path d="m418.6 176.2-15-15 11.4-11.4 45.4 45.4-11.4 11.4-15-14.9-41.2 41.2-15.4-15.4 41.2-41.3zM438.4 221.3c3.8-3.8 7.9-8 11.4-11.6l14.6 14.6c-1.1 1.4-4.4 5.1-6.1 6.9 5.4-2.3 12.9-2 19.8 4.8l-13.6 13.6c-8.1-8.8-13.8-10.7-23.2-1.3l-16.4 16.4-14.9-14.9 28.4-28.5zM494.5 308.9c-3.5 3.5-9 9-12.7 12.9l-14.6-14.6c.8-1.1 2.9-3.4 3.9-4.5-6.4 1.2-11.2-.8-16.3-5.8-8.6-8.6-7.9-18.4 1.6-27.9l26.3-26.3 14.9 14.9-23.8 23.8c-3.6 3.6-5.2 7.2-1.8 10.6 3.5 3.5 6.9 2.9 12.8-3l22.1-22.1 14.9 14.9-27.3 27.1zM542.5 354.7c-8.4 6-20.7 9-34.5-4.8-14.1-14.1-11-29.5.3-40.9 12-12 28.8-13.9 42.2-.5 15.1 15.1 8.7 29.1 4.1 34.1l-14.2-14.2c2.4-3.2 3.4-6.7.1-9.9-3.8-3.8-9.2-2.1-16.5 5.2-8.2 8.2-9.2 13.4-5.7 16.9 3 3 6.7 2.1 10 0l14.2 14.1zM574.1 364.6c6.2-1.5 15.5-3.1 25.7-4.9l16.7 16.7-27.7 2.3c-1.6 4.3-9.8 34.5-11.3 38.7l-16.7-16.7c.7-1.4 7.8-22 8.3-23l-8.4.1-11.4 11.4-14.9-14.9 55.3-55.3 14.9 14.9-30.5 30.7zM611.5 582l35.5 66-66-35.5s16.3-6.1 20.3-10.1 10.2-20.4 10.2-20.4z"/></svg>