<svg xmlns="http://www.w3.org/2000/svg" xml:space="preserve" baseProfile="tiny" overflow="visible" version="1.2" viewBox="0 0 1000 1000"><path d="M372.3 701.1c5 15.1 17 22.9 28.2 31.7-8.9 8.9-18.3 18.5-28 27.8-3.9 3.8-4.1 6.6-.1 10.4 8.1 7.8 16 15.9 24 23.9 5.5 5.5 6.5 5.4 12.3-.4l73.2-73.2 69.9-69.9c3.9-3.9 7.3-7.4 12.5-1.6 2.3 2.5 5.1.9 7-1.1 17.4-17.3 34.8-34.7 52.1-52 2.7-2.7 3.4-5.8.3-8.7-4.5-4.1-1.6-6.8 1.4-9.8 27.5-27.5 55.1-55 82.6-82.6 22.7-22.7 45.4-45.3 68-68 6.8-6.8 6.8-7.2-.2-14.2-6.9-6.9-13.9-13.6-20.6-20.7-4.2-4.5-7.9-5.3-12-.2-.3.3-.6.7-.9.9-2.1 1.3-3.6 5.6-5.9 3.9-2.7-2.1-1.6-6.4.2-9.2 1.7-2.7 5.6-5.2 2.8-8.4-3.4-4-6.9-8.7-13.1-9.1-4.7-.3-8.1-2.4-11.8-5.9-3.8-3.5-6.3-8.3-11-11.3-3.4-2.2-5.1-7-9.8-9-1.8-.8-2.2-5.1.5-7.6 9.6-9.1 17.3-20.2 30.1-25.7 4.2-1.8 6.7-5.3 5.9-10.1-.8-4.8-4-8-8.7-8.9-5-1-9 1.5-10.5 6.1-4.8 13.8-17 21-26.5 30.7-2.3 2.4-5.4 3.9-6.2-1.7-.3-2-2.3-2.8-4-3.1-2.5-.5-4-1.6-4.1-4.3-.2-4.4-5.9-6.8-6.9-7.1-6.3-1.7-5.4-10.3-12.4-11.3-2.2-.3-3.9-5.7-4.2-9.4-.5-6-5.2-9.5-8.7-13.6-1.3-1.5-4.5-1.3-6.5.9-3.2 3.6-7.2 3.5-13 2 3.4-3.4 6.1-6.2 8.8-8.8 2.7-2.6 3.2-5 .3-7.9-8.7-8.5-17.3-17.1-25.8-25.8-4.1-4.2-6.6-1-9.3 1.7-23.9 23.9-47.9 47.8-71.8 71.7C422 411 323.5 509.5 224.9 608c-7.7 7.7-7.7 7.7 0 15.4 7.3 7.4 14.7 14.7 22 22.1 6.2 6.2 6.6 6.2 12.7.2 8.3-8.3 16.6-16.6 24.9-24.8 1.5-1.5 3.3-4.1 5.5-2.3 2.6 2.2-.5 3.8-1.6 5.3-5.5 7.4-4.8 10.2-.5 17.8 4.7 8.5 12.2 13.4 19.2 19.3 11.2 9.6 21.2 20.7 31.5 31.3 2.2 2.3 3.3 5.7 5.4 8.2 8.8 10.3 16.1 10.8 26.3 1.9.9-.5 1.6-1.4 2-1.3zm209.6-368.6c.1 3.6 3 5.3 5.1 7.4 2.8 2.8 2.9 5.1.1 7.8-2.1 2-3.1 4.3-7.1 1.2-3.6-2.8-7.2-5.6-10.7-8.6-3.9-3.4-3.9-6.1-.1-9.8 14.4-14 28.6-28.2 42.6-42.6 3.7-3.8 6.2-3.4 9.7.2 15.6 15.9 31.4 31.6 47.2 47.4 1.1 1.1 2.2 2.2 3 3.5.6 1 .4 2.2-.7 2.9-1 .7-2 .5-3-.4-5.7-5.2-9.5-12.3-16.6-16.1-.7-.4-1.2-1.8-1.3-2.8-.2-1.3-.7-2.2-2.1-1.7-4.3 1.3-10.5-1.4-12.3 5.8-.3 1.4-2.6 2.3-3.8 3.5-3.8 3.6-7.9 7-11.3 10.8-4.1 4.5-8.7 8.6-12.8 13-2.1 2.3-3.9 3.7-3.4 6.8 5.5 1.4 4.5-4.1 6.6-6.2 8.9-9 17.6-18.2 27-26.8 6-5.5 11.9-3.5 15 4.3.5 1.2.2 2.8 2 2.8 4.8 0 6.2 4.4 9.2 6.8 3.2 2.5 2.6 5-.1 7.7-10.7 10.5-20.7 21.7-33.5 29.8-3.8 2.4-7 3.2-9.7-.7-4.5-6.6-11.5-10.5-16.4-16.6-1.1 2.8-.4 4.9 2 6.9 4.3 3.7 8.3 7.8 12.3 11.8 1.5 1.5 2.5 3.4.7 5.3-1.9 2-3.7.6-5.1-.9-8-9-17.6-16.4-24.8-26.5-3.3-4.6-1-5.4.9-8 2.5-3.4 5.5-1.5 8.3-1.3-2.8-3.7-2.9-6.9 2-8.7 3-1.1 4.2-3.7 6-5.9 2.7-3.5 4.4-7.1.5-10.5-5.4-4.7-9.1-.2-13.1 2.9-4 3-3.2 5.6-.1 8.7 1.1 1.1 3.2 2.4 1 4.3-1.8 1.5-3.6 1.2-5.3-.4-2.7-2.3-5.3-4.7-7.9-7.1zm-1.6 73.1c-.5-.4-1.1-1-1.7-1.1-5.7-.6-7.3-2.2-2.5-6.9 3.9-3.9 3.4-7.9-.9-11.9-8.4-7.9-16.4-16.1-24.4-24.4-3.5-3.6-6.5-4-11.1-1.8-9.3 4.5-15.5 12.3-22.8 19-3.5 3.3-5.1 5.8-1.2 10.4 2.4 2.7 4.2 6.1 7 8.7 9.1 8.5 16.7 18.4 27.2 25.5-1.2.1-2.3-.1-3.1-.5-8.8-4.8-18.3-7.4-28-9.4-2.5-.5-4.7-.4-7.1.5-15.7 5.7-32.2 6.7-48.6 7.8-6.6.4-13.3-.3-18.6 4.9-18 18-36 36-54 53.9-2.3 2.3-3.1 4.6-3.1 8.2 0 6.3-1.3 12.7-2.3 19-.2 1.6-1.1 4.4-3.2 3.1-4.3-2.7-8.3-6.2-10.6-10.7-1.9-3.8 2.5-5.7 4.7-7.8 30.8-30.9 61.6-61.6 92.5-92.4 1.9-1.9 3.7-3.9 5.9-5.3 24.7-15.5 49.5-30.9 74.3-46.3 2.8-1.7 5.2-2 7.7.6 15.6 15.7 31.3 31.3 46.9 46.9 3.3 3.3 2.3 4.4-1.9 5.2-5.8 1.1-12.1.1-17.2 4 .7.5 1.4 1.2 2.3 1.3 3.2.6 7.2.3 8.4 4.1 1.2 4.3-3.4 5.7-5.3 8.4-.5.7-1.2 1.3-1.9 1.8-2.4 2.1-4.1 1.6-5.7-1.2-3-5.2-5.9-5.6-10.3-1.6-2.8 2.5-5.3 5.3-8.1 7.9-1.4 1.4-3.1 3.4-5 1.6-2.2-2.1.5-3.5 1.7-4.7 5.9-6.4 11.7-13 20-16.8zm-33.1 70.5c12.5 12.5 24.9 25.1 37.5 37.5 3.9 3.8 4.7 6.7.3 10.9-12.7 12.3-25.2 24.8-37.5 37.5-3.8 3.9-6.5 4-10.4.1-25.2-25.4-50.5-50.8-75.9-76-4-3.9-3.7-6.6.2-10.3 12.4-12 24.6-24.1 36.5-36.6 4.5-4.7 7.5-5.1 12.3-.2 12.1 12.6 24.7 24.8 37 37.1zM537 631.9c-.6-7-4.3-7-9-6.1-12.1 2.4-24.4 4.5-36.5 6.7-1.7.3-4.4.3-4.7 1.9-.7 4.1-2.8 3.3-5.7 2.8-4-.6-7.6.9-8.6 5.4-.9 4.2.8 7.6 5 8.9 4.6 1.5 8.5-.8 9.2-5.1.8-4.8 3.5-5.5 7.1-6.1 1.9-.3 3.7-1.3 5.7-1.7 10.1-2.4 20.1-4.8 30.2-7.2 1.5-.3 3.2-.5 4 1.4.7 1.6-.7 2.4-1.7 3.3-2.6 2.4-5.1 4.9-7.7 7.3-2 1.9-4 2.2-6.4.4-7.2-5.2-15.8-4.1-22.8 2.5-13.2 12.4-13 12.2-26.4-.5-5.2-5-6.8-8.8-2.7-15.5 5.1-8.5 9.8-11.2 19.1-8.3 3.6 1.1 7.3 1.8 10.8 3.2 4.6 1.8 8.3.9 12.4-1.7 15.3-9.7 30.8-19.1 46.3-28.5 2.4-1.5 5.1-4.1 7.5-3.9 5.3.4 9.7 1.4 6.8-6.5-.3-.8 1.6-2.5 2.6-3.6 10.3-10.5 18.8-22.2 22.8-36.7 0-.2.7-.2 1.5-.3-1.5 6.4-3 12.5-4.4 18.8-.7 2.9-1.1 6.4 2.7 6.9 3.9.6 4.6-3.2 4.7-5.9.4-13 4.2-25.3 9.3-36.9 5.6-13 3.9-24.6-1.4-36.7-3.1-7.1-6.1-14.2-9.1-21.3-.9-2-2.2-4.1-1.3-7 1.4 2.2 2.2 4 3.6 5.4 10 10.2 20.2 20.4 30.3 30.6 1.4 1.4 2.8 1.4 4 0 8.2-8.9 18.4-15.9 24.2-27.1 2.2-4.3 2.1-7.6-1.7-11.1-6.2-5.7-12.5-11.4-17.8-17.9-7-8.5-14.1-12.9-24.2-5.1-.1.1-.4-.1-1.3-.3 2.3-4.6 4.8-9 6.7-13.6 2.3-5.3 4.6-6.1 9-1.6 12.8 13.2 25.8 26.1 38.9 39 3.4 3.3 4 6 1.3 10.3-9.9 15.4-19.1 31.4-29.3 46.6-8.9 13.4-15.7 28.2-27.5 39.6-11.9 11.5-23.6 23.4-35.3 35.1-13.1 13-26.2 26.1-40.2 40.1zM288.4 609l-24.9-24.9c-1.5-1.5-3.7-3.4-1.7-5.6 4.2-4.5 6.1-10.4 10.6-14.9 62.6-62.2 124.9-124.7 187.4-187.1l47.4-47.4c1.3-1.3 2.6-4.6 5.2-2.2 2.2 2.1.6 4.5-1.2 6.4-1.7 1.7-3.1 3.8-6.1 3-1.8-.5-2.9.6-3.6 2.1-4.8 9.6-13 16.5-19.7 24.5-2.5 2.9-5.6 5-9.3 6.1-5.4 1.6-6.8 4.3-3 9.1 3.2 4.1 2 7.6-2.7 9.5-3.3 1.3-5.5 3.6-7.8 5.9-40.1 40-80.2 80-120.2 120-3.4 3.4-7.9 6.4-3.7 12.2.4.5.2 1.9-.3 2.5-3.8 4.9-7.8 10.2-13.2 12.8-3.9 1.9-8.5-1.9-12.6-3.6-1.8-.7-3.5-2.7-5.2-.6-4.7 5.7-12.1 7.9-16.9 13.4-2.7 3.1-3.9 7.3-7.4 10-3.3 2.5-3.9 5.3-1.7 9.7 1.8 3.7 6 8.4 2.8 12.6-3.3 4.4-2.3 7.5-.1 11.4 2.5 4.8 5 9.7 7.9 15.1zm163.5 31.1c-4 7.6-11.6 8.5-20.6 5.9-26.4-7.5-44-24.3-52.9-50.2-3.4-9.8-3.1-18.6 6.5-25.1 1.8-1.2 3.1-3.1 4.7-4.6 4.3-4 9.6-3.6 10.1 1.7.6 6.7 2.4 7.5 8.7 9 5.5 1.3 13.3 8.6 13.4 13.3.2 9.7 5.7 9.3 11.7 11.4 3.4 1.2 6 5.1 8.7 7.9 2.7 2.7 6.3 4.9 3.6 10-1.2 2.3 1.1 4.6 3.7 3.1 6.2-3.5 7.9 2.2 10.3 5 3 3.4-1.2 5.3-3 7.5-1.1 1.6-2.5 2.7-4.9 5.1zm217.5-110.3c-.2-.2-.5-.3-.7-.5 1.7-1.7 3.5-3.4 5.1-5.1 1.2-1.3 2.4-3 .6-4.6-1.7-1.6-3.3-.3-4.7.9-.7.6-1.3 1.2-1.9 1.8-17.1 16.9-34.1 33.9-51.1 50.8-1.6 1.6-3.2 3.7-5.6 1.8-2.2-1.7-5.1-3.2-4.6-6.7.7-5.2 14.9-17.8 20.2-18.2 7.3-.5 11-4.2 12.1-11.6.2-1.5-.9-3.6 2.2-3.7 3.4-.2 5-2.7 6.6-5.7 2.3-4.5 5-8.8 8-12.8 2.1-2.9 2.6-4.9-.8-7-1.3-.8-3.7-1-1.2-4.2 6-7.5 13.7-14.5 13.6-25.4 0-.7.9-2 1.5-2 7.3-.6 6.9-5.7 6.7-10.9 0-1 .6-2.2 1.3-3 9.2-9.3 18.5-18.5 27.7-27.8-1.4 4.2 4.5 9.2 0 11.5-7 3.6-10.3 10.8-16.5 14.8-3 1.9-4.9 4.4-6.1 7.5-1 2.5-3.8 4.9-1.1 7.8 3 3.2 6.2.9 8.3-.8 8.2-6.4 15.4-13.8 22.1-22.2 1 2.1 3 4.2 2.7 5.9-.5 3.3-6.2 6-.7 10 .1.1-1.5 2.6-3.2 2.9-1.7.3-3.5.4-5.2.7-6.6 1-11.3 7.8-9.5 13.4 1.1 3.5 3.8 4.8 7.1 4.8 2.2 0 4.8-.4 5.6-2.8 1.4-3.8-4-1.9-4.3-5.1 2.7 1 4.3-.3 6.1-2.2 1.5-1.6 4.2-2.6 5.9-.7 1.4 1.7-1 3-2.2 4.2-14.6 14.8-29.3 29.5-44 44.2zm38.9-102.5L690 445.6c-7.7 7.7-7.5 7.5-15.4.1-11.7-10.9-17.7-26.7-30.9-36.4-2.3-1.7-3.9-4.3-6.9-4.9-1.6-.3-4.2.2-3.1-2.8.8-2.2 2.4-1.5 4.3-.6 4 1.9 9.7 2.2 11.5-1.3 2.8-5.4 10.2-5.9 11.4-12.4.6-2.9 5.4-.8 6.1-4 1.5-6.8 8-9.8 12.3-13.5 3.8-3.2 5-5.7 4.3-9.6-.4-2.1 2.8-5.4-1.8-6.6-.7-.2.9-1.7 1.9-1.7 2-.1 3.1 1.6 4.3 2.8 13.9 13.9 27.8 27.9 41.8 41.6 3.5 3.4 3.7 5.9.1 9.3-7.4 7.2-14.4 14.6-21.6 21.7zM426 553.2c-5.6-12.9-5.6-12.9 1.6-21.9.4-.5.7-1.1 1.1-1.7 8.6-12.3 17.8-24.2 23.6-38.2 2-4.8 4.4-6.4 9-1.7 19 19.4 38.4 38.5 57.6 57.8.7.7 1.9 1.3 1.5 2.6-11.4.7-16.3 3.9-16.9 11.8-.3 3.7-.4 7.5 1.6 10.9 2.5 4.4 7.7 2.1 12.4 4.5-3.7 1.8-3.4 6.4-7.8 7.1-6.6 1-11.8 4.7-16 9.7-7.6 8.9-9.9 9.4-21.3 3.7 1.9-1 3.7-1.8 5.4-2.7 16.5-8.3 24-26.7 18.4-44.3-1.7-5.2-6.3-9.2-6-15.2 0-1.1-1.3-2-2.4-1.8-3.8.7-6.2-2-9.1-3.5-9.6-4.9-19.4-5.5-29.5-1.9-11.7 4.2-18.9 12.3-23.2 24.8zM582.5 313l-27.3 27.3c-1.3 1.2-2.8 2.3-4.6 2.3-3.8.1-6.4 1-10 3.7-8.9 6.6-18.8 11.4-27 19.8-7.5 7.7-18.4 12-27.8 17.8-1.7 1-3.6 2.1-5.4.1-1.8-2.1-.1-3.5 1-5.2 4.9-8 12.3-13.9 18.6-20.6 3.2-3.4 6.1-3.9 9.5-.3 1.1 1.2 2.6 3.1 4.4 1.2 1.7-1.9-.3-3.2-1.4-4.4-2.7-2.9-4.6-5.3 1.6-5.9 1.7-.2 1.4-2.4 1.8-3.8 1.5-5.1 2.3-11.5 10.5-8.6.7.2 1.9-.1 2.4-.6 1.1-1 0-2-.6-2.8-1-1.2-2.1-2.3-3.2-3.4-9.9-10.2-10.7-7.6.2-18.5.3-.3.9-.4 2.1-1l-5.7 5.7c-1.6 1.7-3.1 3.5-1.1 5.7 2.1 2.3 4.2 1.1 5.7-.6 4.1-4.6 10.5-6.5 13.3-12.9 3.3-7.6 11.8-10.6 17.1-16.6 1.6-1.8 4-3.6 5.9.7 1.7 3.8 4.9 4.9 8.4 1.3 1.3-1.4 2.9-2.2 4.6-.6 1.9 1.8.3 3-.6 4.5-5.5 8.4-3.1 13.8 7.6 15.7zm-216 351.2c4.9.8 13.3-4 12.3-7.1-2.4-7.3 3.3-9.7 6.7-13.6 2.2-2.5 4.3-2.4 6.7.2 3 3.2 6.4 6.1 9.5 9.2 2.4 2.4 4.4 2.4 6.7-.1 1.9-2.1 4.1-4.1 6.1-6.1 1.5-1.4 3.3-3 5.1-1 1.8 1.9-.5 3.1-1.6 4.3-3.3 3.5-6.7 7.1-10.3 10.3-4.4 3.8-4.1 7.6-.5 11.4 5.5 5.8 11.1 11.4 16.8 17 3.1 3.1 6.8 3.4 11.1 2.2 9.9-3 18.9-7.1 25.7-15.4 2.5-3 4.9-6.6 9.9-6.7-16.2 17.1-31 35.8-52 47.7-16.6-16.7-34.2-34.3-52.2-52.3zm-25.2-24.7-36-36c-1.2-1.2-2.8-2.5-2-4.5.6-1.6 1.9-2 3.7-1.9 6.6.2 10.3-3.4 10.1-9.9-.1-2 .6-3.4 1.9-4.7l10.8-10.8c.9-.9 1.9-2.1 3.3-1.8 2.2.5 1.4 2.4 1.4 3.8 0 3.2 1.8 5.3 3.9 7.4 4.8 4.9 9.6 9.7 14.5 14.5 6.9 6.8 8.7 6.8 15.9.5 1.6-1.4 3.2-5.2 5.5-2.9 2.2 2.1 3.1 6 .7 9.1-1.7 2.3-3.9 4.1-6 6.2-1.2 1.2-3.3 2.3-2.7 4.2 1.2 3.6-1.2 5.2-3.2 7.2-3.4 3.5-6.8 6.9-10.3 10.3-1.2 1.2-2.2 2.5-4.5 2-5.5-1.1-6.9 2.4-7 7.3zm-71.3-8.4c-4.2 4.2-8.5 8.3-12.7 12.6-2.7 2.8-5.1 2.8-7.9 0-8.2-8.3-16.5-16.6-24.8-24.8-2.5-2.5-2.9-4.7-.2-7.3 8.2-8 16.1-16.3 24.5-24.2 3-2.8 6.3-3.1 10.7-1 7.5 3.6 12.6 9.4 18.1 15.1 9.2 9.5 9 12.9-.3 22.1-2.4 2.5-4.9 5-7.4 7.5zm116.8 150c-4.1-4.1-8.1-8.1-12.2-12.1-2.3-2.2-2.7-4.4-.2-6.8 9.2-8.8 18.4-17.7 27.6-26.5 2.7-2.5 4.7-2.7 4.4 2-.1 2.2 1.5 4.3 3.4 4.3 8-.3 11.3 6.4 15.5 11 2.9 3.2 6.2 8.3 4.2 12.6-5.5 11.2-15 19.3-23.7 27.8-2.4 2.4-4.6 2.1-6.8-.1-4.1-4.1-8.1-8.2-12.2-12.2zm88.7-57.4c-.4-.3-.8-.5-1.2-.8.8-1 1.4-2.1 2.3-2.9 4-3.5 6.2-6.1 2.4-12.4-5.6-9.3-4.6-9.9 3.8-18.2 10.9-10.9 21.9-21.8 32.8-32.8 3.8-3.8 6.7-4.1 8.8 1.3.6 1.6 1.2 3.2 3.2 2.4 1.9-.7 3.6-2.1 3.8-4.2.2-2.4-1.8-1.8-3.3-2.1-3.8-.8-4.3-2.6-1.5-5.4 4.3-4.2 8.7-8.2 12.7-12.6 6.3-7.2 7.3 6.9 12.9 3 .5-.3 3 1.9 3.1 3.8.1 1.9-1.8 3-3 4.2-9.2 9.2-18.4 18.5-27.6 27.7-16.4 16.2-32.8 32.6-49.2 49zM290.1 588.3c2.2-.4 4.9.5 4.2-2.9-.5-2.6 1.1-4.1 2.7-5.7 7.5-7.5 14.5-15.6 22.7-22.2 4.4-3.6 7.9-7.3 11.6-11.5 11.5-13 24.4-24.9 36.7-37.2 1.9-1.9 4.1-4.1 6.8-1.5 2.7 2.7 7.1 4.4 6.6 9.2-.4 3.6-9.2 10.1-13.2 10.1-6 .1-9.4 2.9-8.8 8.9.3 3.6-1.1 5.3-3.1 7.3-2.9 3-5.9 5.9-8.9 8.9-2.5 2.5-4.6 4.7-9 3.7-3.5-.8-7.9 1.6-7.5 5.6.9 10.4-7.9 13.9-12.9 20-1.5 1.8-3.4 2.1-5.9 2-6.9-.4-9.6 2.5-9 9.5.1 1.7.4 3.1-1.1 4.1-2 1.3-3.3 0-4.6-1.2-2.4-2.1-4.5-4.3-7.3-7.1zm183.5 30.1c-1.9 1.9-3.6 3.9-5.7 5.6-1.7 1.4-2.8 4.7-5.9 2.4-2.2-1.6-4.2-3.4-2.4-6.6 1.2-2.2.5-4.5-2.1-4.3-10.2.9-14.1-7.7-20.2-13-3.3-2.8 2.3-7.5-1.6-9.6-3-1.6-7.2.2-10.4-2.7-5.7-5.2-11.5-10.3-16.2-16.6-1.7-2.3-3.7-4.4-2.4-8.3 1.1-3.2-1.7-4-4.5-2.7-1.7.8-3.4 1.4-4.7-.4-1.6-2.1-.3-3.8 1.1-5.2 4.2-4.3 8.4-8.5 12.6-12.7 2.6-2.6 4.3-1.5 5.3 1.4 2.9 8.3 7.1 16.2 9.2 24.9 3.6 14.7 12.9 23.9 27.5 27.5 6 1.5 11.8 3.5 17.6 5.8 12.5 4.8 12.5 4.8 2.8 14.5zm-12.4 64.2-.1-.1c11.1-11.1 22.4-22 33.2-33.4 4.2-4.4 9.4-5.6 14.8-6.8 2.2-.5 4 .3 5 2.3 1 2-.4 3.4-1.7 4.6-13.6 13.6-26.9 27.5-41 40.6-3.1 2.9-6.2 5-9 8.7-7.2 9.4-16.2 17.5-25.1 25.4-2.2 1.9-6.2 4.4-10 1.6-4.1-3.1-3.2-5.9.1-9.2 11.4-11.1 22.6-22.4 33.8-33.7zm141-232.4c-7.2 7.2-14.4 14.5-21.7 21.6-1.3 1.3-2.9.3-4.2-.6-9.7-6.3-18-14.1-24.3-23.9-1.5-2.4-1.6-4.5.5-6.5 5.8-5.8 11.5-11.6 17.3-17.3 1.7-1.7 3.8-2.9 5.8-1 5.1 4.9 10.1 9.9 14.9 15 .6.6.6 2.1.5 3.1-.9 8 1.8 10.3 11.2 9.6zm-69.8-45.5s0-.1 0 0c-3.4-3.5-6.7-7.1-10.3-10.3-4-3.7-3.7-7.2-.1-10.8 5-5 10-10.1 15-15 1.7-1.6 3.9-4.1 6.2-1.9 2.5 2.4-.5 4.2-1.9 6.1-1.1 1.5-3.6 3-1.4 4.9 2.1 1.8 3.7-.4 4.9-1.8 3.2-3.7 6.1-2.5 9 .3 2.1 2 4 4.1 6.1 6.1 3.1 2.9 4 5.7.6 9-1.5 1.5-3.7 3.6-1.4 5.6 2.2 2 3.9-.5 5.6-1.8 1.7-1.3 3.5-3.6 5.6-1.2 1.8 2.1 0 4.2-1.6 5.8-5.3 5.4-10.6 10.7-15.9 16-3.3 3.3-6.5 3.2-9.8-.1-3.4-3.8-7.1-7.3-10.6-10.9zM363.2 661.4c-6.4-6.4-11.6-11.5-16.7-16.7-.9-.9-1.9-2.1-1-3.5.8-1.2 1.9-.1 2.9 0 4.6.5 9.2-3.8 8.1-8.2-.7-2.6.2-3.7 1.6-5.1 5.8-5.8 11.6-11.5 17.3-17.3 2.5-2.5 4.4-3.2 6.6.6 3 5.4 6.3 10.6 10.7 15.1 1.3 1.4 2.3 3.2.9 4.7-6.1 6.6-11.2 15-19.7 18.1-6 2.2-10.3 4-10.7 12.3zm250.4-183.1c-3.7-3.7-7.5-7.5-11.2-11.3-1.8-1.8-3.5-4.1-1.4-6.3 6.5-6.9 13.3-13.5 20.1-20.2.8-.8 2-1.1 3-.2 1.3 1.1.8 2.4 0 3.5s-1.7 2-2.5 3.1c-1 1.3-1.9 2.7-.7 4.2 1.6 1.8 3.3.7 4.6-.6 6.8-6.9 9.9.3 13.8 3.7 4.1 3.5 7.7 7.2 1.6 12.3-1.2 1-2.1 2.6-.8 4 1.3 1.5 2.9.5 4.2-.2.8-.4 1.4-1.1 2.1-1.6 1.6-1.1 3.3-3 5.1-.8 1.4 1.7-.3 3.4-1.5 4.6-5.7 5.8-11.5 11.6-17.3 17.3-2.7 2.7-5.4 2.4-8-.3-3.6-3.8-7.4-7.5-11.1-11.2zm-204.5-4.4 16.6-16.6c1.5-1.5 3.1-2.8 5.1-1 1.8 1.5 2 3.3.7 5.3-.8 1.3-1.5 2.7-2.3 4-10 16.4-19.9 32.9-30 49.2-2.3 3.7-3 7-1.1 11.1 2.4 5.2 4.2 10.7 6.2 16.1.5 1.4 1.3 3.1-.5 4.1-1.4.8-2.5-.4-3.5-1.3-7.9-6.7-15.3-13.5-10.1-25.6 1.2-2.8 1.3-6.1 1.5-9.1.9-15.5 5.2-29.4 17.4-36.2zM611 284.6c-5.1 5.1-9.9 9.6-14.4 14.5-3.9 4.4-6.8 3.6-10.9-.1-7.7-6.8-11-17.3-20.1-22.9-2.7-1.7-1.3-4.2.7-6.1 3.8-3.7 7.6-7.4 11.2-11.3 2.4-2.5 3.6-2.3 5 1 .9 2.1 2.7 3.9 5.6 4.1 5.4.3 14.2 8.2 14.7 13.6.4 5 3.1 6.9 8.2 7.2zm121.3 122.9c.8 4.4 1.7 8.2 6.9 8.1 4.6 0 14.8 7.8 14.4 12-.6 6.1 2.5 8.3 8.2 9.7-5 5-9.4 9.6-14 13.9-2 1.9-3.6 5.8-7.5 3.4-3.2-1.9-3.9-4.8-3.1-8.5 1.1-5-1.6-9.4-6.4-8.3-7.3 1.6-10.4-2.8-14.4-6.7-2.9-2.8-2.6-5.2.1-7.8 5.3-5.1 10.4-10.3 15.8-15.8zM475.6 459c-2.8 2.8-5.6 5.7-8.4 8.4-14.1 13.5-9.5 14.2-24.4 0-4.5-4.3-3.8-7.8-.4-11.9 14.4-17.6 35-24.7 55.2-32.5 2.1-.8 3.5-.1 3.7 2.3.1 1.5 1.2 3-1.9 3.7-3.8.9-8.8 5.2-7.6 7.8 2.9 5.9-1.7 7.3-4 9.9-4 4.3-8.2 8.2-12.2 12.3zm168-72.4c-3.3 3.3-6.6 6.5-9.8 9.8-2.4 2.5-4.5 1.9-6.8-.4-2.2-2.3-2.8-4.4-.4-6.8l4.2-4.2c22.4-22.2 44.7-44.5 67.9-65.9 1.7-1.5 3.2-5.4 6.3-2.1 2.5 2.7 0 4.8-1.7 6.8-19.1 21.6-40.8 40.9-59.7 62.8zm-91 190.6c-8.2-8.2-8.2-8.2 0-16.4 7.8-7.8 15.6-15.6 23.5-23.4 2.6-2.6 5.1-4.8 9.4-5.3 4-.4 7.7-3.7 7.6-8.5 0-3.5 1.8-2.4 3.3-1.8 3.5 1.3 2.3 3.9 1.4 6.1-7.2 16.9-11.6 35.1-26 48.5-8.5 7.8-10.9 9-19.2.8zm59.5-324.6 7.9 7.9c7.6 7.6 7.5 7.5-.2 15.3-3.2 3.3-5.8 5.5-9.3.4-.7-1-2-1.7-3.1-2.4-7.7-4.8-13.1-11.6-17.8-19.2-2.8-4.5-.5-9.2 5.5-13.7 4.2-3.2 5.9.6 8.1 2.6 3.1 3.1 5.9 6.2 8.9 9.1zM326.6 675.9c-11.8-11.8-23.8-23.5-35.4-35.5-5.8-6 1.6-8.2 4.3-11.3 2.9-3.4 6.5-3 8.7 1 2.5 4.5 6.1 8 9.7 11.6 5.1 5.1 10.6 9.7 14.9 15.5 1.5 2 3.5 4.1 1.2 6.4-3.6 3.5-4.3 7.5-3.4 12.3zm424.1-257.3c-4.9-3.2-6.9-9.4-11.7-13.1-1.9-1.5-1.4-3 0-4.5 1.7-1.8 3.5-3.4 5.1-5.2 3.4-4.1 6.3-3.6 9.8.1 5.9 6.3 12.1 12.2 18.2 18.3 6.5 6.5 6.4 7.4-.4 13.4-3.3 2.9-6.4 2.5-9.6.4-4.1-2.6-8.2-5.4-11.4-9.4zM460 561.2c-2.5 2.5-4.9 5.2-7.5 7.5-2.5 2.2-4.6 7.1-8.1 5.6-4.2-1.9-4.5-7.2-4.5-11.6.1-4.3.7-8.3 5.1-10.7 1.9-1 3.8-2.7 4.7-4.6 2.8-5.8 8.3-6.1 13.4-6.9 4.1-.7 7.3 2.1 9.4 5 2 2.8-1.5 4.6-3.2 6.4-2.9 3.2-6.1 6.2-9.3 9.3zm9.6 21c-5.2 3-10.9 2.7-16.7.3-3.9-1.6-4.7-3.7-1.5-6.9 5.8-5.7 11.5-11.6 17.4-17.2 3.9-3.8 8.6-3.2 12.9-.8 2.6 1.5 1.5 11.8-1.4 14.1-3.9 2.9-7.7 6-10.7 10.5zm-56.1 150.6c3.8 1.9 7.2 3.4 10.4 5.2 3.9 2.2 7.5 3.7 11.1-.7 1.5-1.9 3.3-1 5.3.1 10.6 6.4 10.7 6.3 20.7-1.6.2-.2.7 0 2.2 0l-20.3 20.3c-1 1-2.7 1.9-3.5 1-4.2-4.3-11-3.4-15.3-8.1-4.4-4.6-8.6-9.2-10.6-16.2zM520.9 590c4.6-2.9 9.3-5.8 13.9-8.8 3.2-2.2 5.2-1.7 7.7 1.4 7.3 9.1 7.4 9-2.6 15.1-1.3.8-2.6 1.7-4 2.4-8.1 3.9-10.9 3-15.2-4.7-1.1-1.9-1.9-3.6.2-5.4zm-99.5-91.7-2.7-2.7c4.5-1.9 1.4-7.8 5-9.7 2.9-1.6 3.5-3.6 4.3-6.5.5-1.8 1.3-5.7 5-4.4 9.2 3.3 11.1 9.1 6.1 17.5l-2.4 3.9c-5.9 9.1-6.9 9.2-15.3 1.9zm236.9-121.8c5.7-5.8 11.5-11.6 17.3-17.4 1.3-1.3 2.9-2.2 4.6-.6.9.8 1.4 1.9.5 2.9-3.3 3.7-4.4 8.8-8.6 12.1-3.3 2.5-8.2 4.3-9.8 7-4.3 7.2-8.9 13.2-17 16.2-1.5.6-1.4 5.1-4.5 1.9-2.5-2.6-.2-4.4 1.5-6.1l16-16zM554.7 461l-2.3-2.3c-6.2-6.3-12.5-12.5-18.7-18.8-1.8-1.8-2.3-3.7-.2-5.7 1.8-1.8 4-1.8 5 .3 2.1 4.3 6.5 6.4 8.8 10.5 7.8 13.2 18.6 23.4 31.7 31.2 1.7 1 3.8 1.6 3.8 4.1 0 1.4-1.1 2.4-2.3 3-2.6 1.4-4.1-.5-5.7-2-6.7-6.8-13.4-13.6-20.1-20.3zm67.2-48.8c-1.7 1.7-3.4 3.5-5.1 5.1-1.6 1.5-3.2 1.9-5.3.7-7.8-4.6-8.5-8.9-2.2-15.3 1.4-1.4 2.9-2.7 4.2-4.2 3.2-3.8 6.1-4 9.8-.3 6.1 6.2 6.2 6.5-1.4 14zM407.6 518.3c-2.9-7 2.7-10.7 5.1-15 2.5-4.5 7.2-3.7 13.6 1.3 3.7 2.9 2.4 9-5 16.6-5.8 5.9-8.4-3.5-13.7-2.9zm72-91.9c-15.2 4.7-27 14.6-38.2 25.4-2 1.9-4.2 3.8-6.8 1.1-2.5-2.7 0-4.3 1.5-6.1 9.5-11.9 20.9-19.9 37-19.5 2.2 0 4.4-.6 6.5-.9zm-81.7 280.1c3.1 3.1 6.2 6.3 9.4 9.4 2 2 2.6 4 .3 6.3-2.1 2.1-4.2 2.4-6.3.3-6.3-6.2-12.5-12.4-18.8-18.7-2.1-2.1-1.9-4.2.2-6.3 2.2-2.3 4.2-1.8 6.2.2 3.1 2.9 6 5.8 9 8.8zm117.4-94c-2.3 1.5-6.4 5.4-7.8 3-2-3.7-6.5-6-6.6-10.6-.1-5 4.8-5 7.4-7.3 1.1-1 2.5-1.7 3.8-2.5 2.5-1.5 4.4-.9 6.3 1.3 6 6.7 5.8 8.8-1.6 13.6-.6.4-.9 1.4-1.5 2.5zm209.9-303.9c-3.6 1.8-7.7 4.7-12.3 5.9-3.3.9-6.1-2-4.9-5.7 1.3-3.9 3.3-7.7 5.5-11.2 2.6-4.1 7.5-4.4 11.6-1.1 3.8 2.9 4.1 8.1.1 12.1zM348 697.6c0-.1 0-.1 0 0-1.4-1.5-2.8-2.8-4.2-4.3-1.5-1.6-3.7-3.6-1.3-5.6 2.5-2.1 4.5-6.6 8.6-4.7 4.8 2.2 8.9 5.7 10.9 11 1.8 4.8-2.2 6.8-4.9 9.1-2.8 2.5-4.2-.8-5.8-2.3-1.2-1-2.2-2.1-3.3-3.2zm243.3-181.8c-29.3-26.4-57.1-54.3-83.5-83.5 27.8 27.8 55.6 55.7 83.5 83.5zm1.4-96.3c3.5-5 6.9-5.6 11.7-.9 4.8 4.8 3.6 7.6-.5 11.9-4.4 4.5-7.2 4.7-11.8.1-4.4-4.4-4.5-7.6.6-11.1zm-164.5 310c-.2.1-.4.1-.5.2L289.6 591.6l.3-.3c46.1 46 92.2 92.1 138.3 138.2zM324.9 546.7c2.4-8 39.3-43.9 44.5-44.5-15.1 15.2-29.8 29.9-44.5 44.5zm142.5-151.5c0 .2 0 .3.1.5L339.9 523.3l-.3-.3 127.8-127.8zm261.2 60.5c-3.6 3.1-6.9 6.1-11.3 2.4-3.4-2.9-2.6-7.5 2-11.3 2.4-2 5-3.6 7.6-5.2 1.9-1.2 4.2-2 6.1-.1 1.8 1.8 1.5 4.2.5 6.2-1.4 2.8-3.3 5.6-4.9 8zM609 396.4l-.6.6-51.4-51.4.6-.6 51.4 51.4zm-24.9 77.3c.6-.1 1.1-.3 1.7-.4 5.7 13 11.3 25.9 17 38.9-.6.4-1.2.7-1.8 1.1-2.7-8.6-8.6-14.7-14.6-20.8-2-2-3.1-5.3-1.7-7.3 2.8-4.2 1.4-7.7-.6-11.5zm138.7 2.7c.8-2.2 2-4.4 1.2-6.1-2.6-5.7.5-8.3 4.8-10.7 1.1-.6 1.9-1.8 2.6-2.9 1.6-2.2 2.9-4.7 6.1-2 2.9 2.6 2.2 4.8-.3 7.2-4.8 4.8-9.6 9.7-14.4 14.5zm-49.2-15.5-.8.8-46.7-46.7.8-.8c15.6 15.6 31.1 31.2 46.7 46.7zM472.3 695l-.9-.9 45.8-45.8.9.9c-15.3 15.2-30.5 30.5-45.8 45.8zm-169-130.5c4.4-4.4 8.7-8.8 13.1-13.1.9-.9 2.1-2.1 3.3-.5.8 1.1-.2 2.1-.9 2.9L293.6 579c-.8.7-1.8 1.7-2.9.9-1.5-1.2-.4-2.4.5-3.3 4-4 8.1-8 12.1-12.1zm145.8 116.2c-2.4.4-3 .7-3.3.5-9.5-7.3-17.1-16.4-25.6-24.7-.6-.6-1.1-1.5-.4-2.4.9-1.1 2-.6 2.8.2 8.5 8.5 17 17 26.5 26.4zm63.7-120.8c2.4-2 5-1.9 7.4.5 2.5 2.5 1.4 4.7-.7 6.8-2.4 2.3-4.7 2-6.9-.2-2.2-2.3-2.5-4.6.2-7.1z"/><path d="M721.4 403.8c-.1-1.1-.3-2.2-.1-3.2 1.4-7.4-1-12.3-7.2-16.3-4.3-2.8-7.2 2.7-11.1 1.1v1.3c1.5 2.5-2.4 5.2.2 7.4 5 4.4 8.5 11.5 17 9.7.3.1.7 0 1.2 0z"/><path d="M702.9 385.4c-2.9-.1-4.9 1.6-6.8 3.5-7.8 7.8-15.7 15.5-23.3 23.4-5.2 5.4-5.1 8 .1 13.4 3.1 3.2 6.3 6.2 9.3 9.3 3.6 3.6 7.3 4 11 .4 8.6-8.5 17.2-17.1 25.7-25.7 1.6-1.6 2.6-3.5 2.5-5.9h-1.2c-6.9 7.1-13.6 14.4-20.7 21.3-14 13.8-10 14.4-25.8-1.3-3-2.9-2.9-5.6 0-8.5 9.8-9.5 19.5-19.1 29.2-28.6v-1.3zM581.9 332.5c9.5-12.3 21.4-22.2 32.6-32.9-.5 7.7 9 17.5 19 16.5-12.3 12-22.2 23.9-34.7 33.3 3.3 1.8 5.5-.2 7.6-2.2 8.2-8 16.4-16 24.3-24.3 5.6-6 5.4-16.8.1-22.2-5.3-5.3-15.2-5.7-20.8-.3-8.7 8.4-17.2 17.1-25.7 25.7-1.9 1.7-3.4 3.6-2.4 6.4zM457.3 450.8c-1.2 1.2-2.6 2.4-3.7 3.7-2.4 2.7-6.2 4.8-3.1 9.4 3 4.5 6.7 3.8 11 2 6.6-2.8 9.9-8.1 12.5-14.3 1.6-3.8-.1-6.4-3-8.5-3-2.2-5.4-.6-7.5 1.6-2.1 2.1-4.2 4.1-6.2 6.1 0 .1 0 0 0 0zm2.1 1.1 5.1-5.1c1.6-1.5 3.3-2.4 5.2-.7 2.1 1.8 2 3.9.2 5.8-3.7 3.8-7.4 7.5-11.3 11.2-1.7 1.6-3.6 1.5-5.3-.2-1.8-1.9-1.2-3.6.4-5.2 1.9-2.1 3.8-3.9 5.7-5.8zM570 568.1c2-1.7 4-3.4 5.9-5.2 2.7-2.5 6.5-4.7 3.9-9.1-2.5-4.3-6.4-5.7-11.2-3.1-5.8 3.1-10.8 6.6-12.7 13.7-1.2 4.3-.5 7.3 3.1 9.6 3.9 2.5 6-.6 8.3-2.9l2.8-2.8c0-.1 0-.2-.1-.2zm.9-3.7c-2.2 2.1-4.3 4.4-6.6 6.5-1.6 1.4-3.2 1.2-4.7-.3s-1.8-3.2-.3-4.7c4.1-4.3 8.3-8.5 12.6-12.6 1.7-1.7 3.6-1.4 5.2.4 1.4 1.6 1.3 3.2-.1 4.7-2 2-4.1 4-6.1 6z"/><path d="M683.8 425.6c2 2.4 5 3.6 8.7-.6 4.7-5.2 5.8-10.1 2.3-13.3-3.4-3.2-8.7-1.7-13.8 3.4-4.1 4.2-.8 6.6 2.8 10.5z"/><path fill="none" d="M0 0h1000v1000H0z"/><path fill="none" d="M100 99.9h800.1v300H100z"/><path d="m162 257.6-37.9-148.9h34.3c14 68.4 20.3 98.8 22.1 115.2h.2c5.7-27.4 20-79.2 28.7-115.2h28.9c7.7 28.6 22.7 86.4 27.6 113.6h.2c4.9-32.8 19.6-90.5 24.8-113.6h31.3l-40.3 148.9h-33.4c-7.8-33-20.9-81.1-26.2-106.6h-.2c-5.4 26.5-18.8 76.6-26.8 106.6H162zM372.9 198v59.6h-31.5v-149h65.4c32.5 0 50 17.9 50 40.9 0 20-10.9 30.8-21.6 35.2 7.4 2.7 18.5 10.4 18.5 37.1v7.4c0 10 .1 21.4 2.1 28.4h-30.5c-2.6-6.5-3.1-17.6-3.1-33.4V222c0-16.3-4.1-24-28.1-24h-21.2zm0-25.7h27c17.6 0 24.4-6.7 24.4-19.2 0-12.1-7.9-18.9-23.7-18.9h-27.8v38.1zM587.9 193.3h-71.2v37.8h78.6l-3.8 26.4h-106V108.6h105.6V135h-74.3v31.9H588v26.4zM747.1 211.7c-6 27.8-26.9 48-64.2 48-47.2 0-69.5-33.4-69.5-75.8 0-40.8 23-77.4 71.1-77.4 39.7 0 58.9 23.3 62.5 48.2h-32.2c-3.1-11.5-11.1-22.9-31.3-22.9-26.6 0-36.8 23.9-36.8 51 0 25.2 8.9 51.7 37.7 51.7 21 0 27.6-14.1 30.5-22.8h32.2zM771.9 108.6h31.8v66.5c9.8-11.5 40.5-45 59.3-66.5h38.6l-59.8 61.9 62 87h-38.6l-45.7-66.2-15.7 15v51.1H772V108.6z"/><path fill="none" d="M600 600h300v300H600z"/><path d="M714.6 863.6c2.8 12.5 11.8 17.9 26.1 17.9s20.5-5.7 20.5-14.7c0-10.1-6-14.5-27.2-19.4-33.8-7.9-42.1-20.2-42.1-37 0-21.6 16.2-36.3 45.6-36.3 32.9 0 46.1 17.7 47.9 35.9h-27c-1.3-7.6-5.5-15.9-21.5-15.9-10.9 0-17.5 4.5-17.5 13.3 0 8.6 5.3 12.1 25.3 16.8 36.1 8.5 44 21.9 44 39.4 0 22.7-17.1 38.2-49.9 38.2-31.5 0-48.1-15.5-51.1-38.1h26.9zM865 810.3c-1.5-5.8-4.8-11.4-15.1-11.4-15.9 0-20 14.9-20.7 30.8 5-6.1 13.4-11 26.8-11 21.7 0 37.1 16 37.1 39.3 0 25.3-16.2 44.1-43.5 44.1-34.4 0-45.8-26.5-45.8-59.9 0-30.8 10.9-62.8 47.2-62.8 25.7 0 37.7 16.1 38.9 31H865zm2.3 49.9c0-11.3-4.2-21.4-18.4-21.4-11.5 0-18.3 6.7-18.3 20.5 0 9.6 4.6 22.3 18.3 22.3 12.6 0 18.4-9.4 18.4-21.4zM232.6 585.8c-7.9-25.4-12.7-59.2 1.1-82.7-4.4-25.6.7-54.7 10.4-74.3 12.4-34.9 37.4-22.3 37.7-40.4 18.5-78.1 32.1 18.5 36.7-40.8 2.2-22.3 21.8-78.8 39.3-45.6 3.1-13.7 11-36.1 17.7-46 9.7-22 33.7-45 36.4-5.6 8.9 37.6-28.1 69.4 0 79.4 4.8 42.7 15.8-8.8 36.1 11.7 13.2 21.3 14.1 65.2-3.6 80.7-5.3-3.6-13 48.1-31.7 30.9-5.1-9.9-17.8 41.6-27.7 22.7-1.7-5.8-22.5 29.3-30.4-3.4.9 14.6-33.4 84-38.8 53.9-9.2 6.7-10.1 5.8-10.6 18.6-16 53-46.9 21.4-36.8-18.6-4.3 12.2-9.9 63.3-33.3 35.4 2.5 8.5 1.6 16.8-2.5 24.1zm39.5-51.8c-2.7 40.3 28.6 30.1 24.5 5.8-2.4-1.4-3.8-16.6 3.1-18.1 22 4.2 40.4-67.1 34.3-26.5-21.1 52.5 29.6-24.5 11.2-34.8 3.4-7.6-13.1-59.3-.2-41.5 16.7 47.7 14.8-2.5 27.6 10 1.3 15.2-19.4 31.1-8.8 43.5 16.9 8.3 21.4-23.2 26.9-34.4 8 6.7-3.2 36.2 6 22.3 8.2-3 6.6-29.1 15-24.1 28.7 40.5 25.9-88.1 36-53.6 2.7 23.8 6.3-20.8-2.8-28.9-10.7-14.4-22.8 7.5-29.1 14.4-5-5.4-5.1-25.2-8.8-29.1.4 13.4-5.4 31.1-10.9 40.7-24 53.8 21-71.7-9.3-64.2-2-24.3 32.2-12.7 17.2-70.4-23-14.5-36.6 54.2-45.8 72.1-12.8-17.8-15.1-18.2-27.2 5.1-9.8 27.4-10.6 19.5 9.6 29.1 13.2 29.5-27.2-4.2-42.2 61.1-9.1-14.9 8-32.1 1.7-43.1-6.9-3.8-10.1 10.4-13.6 23-5.1 44.6-7.5 6.4-24.9 25.1-32.9 28.3-16.4 76.1-30.7 112.3-2.4 15.5 20.9 42.2 27.5 15.3.3-2.4 3.7-8.1 1.2-8.1-10.7-4.8-6.2-26.7-9.1-36.8 6.4 2.9 7.7 14.5 14.4 14.8 13.4-2.3 22.9-32.5 29.4-45.8-.1 25.2-3.7 48.4-22.2 64.8zm-11.2 3.4zm93.3-83.8c.7 6.3.4 4.6 2.8.2 3.5-5.5.6-2.4-2.8-.2zm93.3-59zm-124.3-45.2zm33.8-43.2zm2.1-1.2z"/><path d="M283.3 669.9c-17.2 1.6-14.8-45.8-19.1-45.5-4.9 10.7-12.3 21.4-21.4 19.4-16.1-11.5-5.7-39.7-9.8-56.6-3.5-17.8-11.8-39.2-4.5-56.8 7 2.7 16.9 45.9 29.6 12.2-2.9-8-12.5-30.5-4.6-42.6 5-5.2 5.7 17 12.4 12.3 10.9 4.7 27.4-59.6 28.6-30.1.3 22.4-7.9 39.2-21.4 52.7-.5 22.9 13.9 34.7 24.9 8.9-9.6-7.2-5.7-27.3 8.5-26.2 15.1-1.6 18.4-34.6 28.5-33.4-4.9 41.1 8.1 5 13.4-13.2l-2.1 6.5-2.1-5.1c-.2-16.8-11.8-98.2 9.8-33.7 17-15.5 26.1-35.7 15.5 6.3-21.9 35.4 15.5 31.3 17.5-2.3.8-8.6 4.4-14.4 6.9-4.3.4 44.8 9.9.5 13.7-9.2 28.3 37 30.6-33.2 33-54.8 3.9-8.7 8.9 4.9 8.9 11.5 1.1-4.4-.5-20.4 2.9-21.9 15.3 8.7-6.9 42.7 2.3 56.3 3 24.3-4.8 68.9-25 76.9-5.8-11-6.1 2.6-13.3 7-4.3 17.7-13 68.4-44.7 63.2 1.7 12-20 38.3-27.9 21.2-6.6 5.1-23.1 27.8-28.5 12.5-9.5-2.5-1.3 70.4-32 68.8zm-14.4-77.2c3.9 20 .7 94.4 30.8 51 12.7-37.1 3.7-17.4-8.5-30.6 2.2-4.3 1.5-11.6 6.9-9.8 18.6-7.4 16.9-39.7 26.7-51.4 8.8 7.7-5.7 36.6-.8 41.5 12.6-8.7 25.2-20.1 28.5-35.7 10.7 3.2-.8 16.1-2.3 23.4 26 .4 9.3-35.6 9.1-50.5 13 48.2 46.9 14.2 49.1-17.5-4.8 9.1-9.9 18.8-21.7 16.5 16.8-19.3 24.8-46 19.2-71.8-3.6 7.7-9 13.2-14 18.8-11.3 7.1-3.7-12.6-2.6-19.3-2.6 7.8-5.7 14.1-9.3 18.8-22.5 26-31.6-17.2-16.8-32.3-18 11.6-3.6 41-20.1 59.4-39 60.1-10.3 9.5-42.1 28.3 15.9 10.8-20.4 63.7-29.4 29.3-13-33.1 6.9-37.2 15.9-63-7.2 13.8-16.5 34.1-29.5 24.5 8.8 7.8 9.1 17 3.3 29.8-9 32.6-29.9-.5-27.4 8.2 8.3 33 1.4 123 35 32.4zm-35.1 8.2c0 .1 0 .1 0 0 0 .1 0 .1 0 0zm5.3.6zm21.2-62.1zm149.8-40.2c2.2 1.5.5-4.4 1.2-6.5-.3 2.1-1.3 4.8-1.2 6.5zm5.5-6.8zm-7.4-41.2c4.7 13.7 8.7 24.7 8.5 40.3 11-11 16.7-33.7 21-49.1-1.2 10.7-1.3 33-4.8 42.7 13.5-14.3 24.3-53.8 8.7-72.2.3 10.6-12.5 52.7-28.3 38.1-3.4-3.5-4.1-6.4-5.1.2zm23.3 33.5zm-71.7-18.9zm.4-3.3zm93-22.8c2.2 1 .8-1.6.2-1.8l-.2 1.8zm-7.4-32.6zm-1.5-5.6c0 .9-1.3 5-.2 3.1 1.1-1 .5-1.8.2-3.1zm1.1-28.3z"/><path d="M223 531.4c18.5-32.8-3.7-76.9 10.6-110.7 6.4-17.4 17.3-34.4 33.6-41.2-1.6-24.1 6.2-52.4 17.9-75.4 11.8-26.5 37.9-41 41.9-3.2 10.6-21.9 17.7-53.6 34.8-30.1 6.8-38.7 61.8-101.4 68.1-25-.1 25.5-11.3 33.2-.3 54.9-.7 27.6-1.7 22.3 18.8 41.5l6.3 10.2c-4.9 1.3-10.8 2.4-14.8-1-14.7-6-24.4 34.7-27.4 15.2-5.6-44.3-5.6 7.2-19 19.8-8.6 5.7-3-14.1-1-18.1 4-13.7 10.7-55.7-6.8-49.7-12.3.3 1.3-25.2 12.2-21.6 6.9-7.1 8.8-26.5 8.3-32.5-4.2-58-43.1 27.9-44 48-5.1 23.7-7.9-6.6-16.4-6.4-7.9.3-19.5 26.8-20.9 40.1 13.9-11.6 29.3 20.8 15.1 23.4-23.2-7.3-35.3 29.3-42.3 45.1-11.1-9.3 7.6-35.2 1-44.1-15.8.8-8 57.1-20.4 49.7-21.7-21.6-41.7 40.9-39.7 62 3.6 21.5-1.3 34.1-15.6 49.1zm44.6-139.2c-28.1 11.9-36.4 46-33.6 76.2 1.9-32.2 24.1-68.6 46.8-68.3-.9-23.1 25-66.7 26.6-23.3 4.8-10.4 30.2-25.2 17.1-17.7-19.6-7.6 20.5-97.7 33.5-53.1 5.4-25.9 17.5-53.4 35-72.5 28.7-14.6 20.7 65.3 5.2 76 4.4 7.5 4.1 47.1 4.1 36 1.5-34.8 13.4-8.1 14.9 10.6 16.8-25 6.5-5.8 2.8-15.7.4-12.5 9.7-31.8.8-44.2-12.1 3.5-9.4-9-5-17.5 13.3-17.4 13.3-64.4-17.2-54.9-19.7.9-35.1 82.8-43 60-10.1-28.8-22.2 28-30.2 33.8-10.6-57.1-38.7-9.4-47.5 21.1-10.3 18.1 2.3 42.6-10.3 53.5zm126.2-9.5zM282.4 676.5c-16.2-2.4-17.9-22.4-18.6-39-6.4 9.2-13.1 12-19.9 8.3-6-3.3-5.4-17.9.8-17 10.4 3.7 19.2-19.8 20.4-29.7 13.9-32.4-1.9 98.3 33.8 43.5 10-22.2 5.1-16.8-8.4-27.3-10.4-43.2 17.3 20.1 30.1-62.6 2.1-8.7 5.8-9.8 6.9-.5 4.2 17.5-13.9 54.7 11.6 27.6 5.9-5.6 18.3-31.1 14.7-6.2-1.9 16.2 15.9-6.6 7.9-24.1 1.4-22 8.2 6.1 16.1 4.4 14.1-1.8 27.5-23 29.8-37.2-2.9 4.5-6.7 13.2-11.9 14.7-11.5-10.4 12.8-30.4 10.2-45.8 2.4-9.1-2.9-23.3 1.3-29.4 8.6-3.5 9 22.6 10.4 29.9 1.5 2.6 7.2-9.3 9.4-13 4.1-7 4.5-21.3 5.9-29.1 2.2 11.6 5.3 25 2 36.9 10.5-14 14.7-46.2 16.9-66.6 6.6 25.6 3.9 93.4-25.1 91.9-1.3 22.8-11 45.9-24.4 63.9-33.7 42.4-21.3-3.7-42.3 27.6-6.4 6.6-14 9.1-18.8.5-9.8 32-23.3 79.5-58.8 78.3zm25.3-71c6 16.9-.9 44.1-13.6 57.4 24.4-9.4 33.7-40.6 42.1-67.4-20.2 18.8-23.9 3.6-15.5-16.3.3 1.2-6.7 21-13 26.3zm-40.9 10.4c-.7 2.7-4.1 9.4-4.2 9.6 3.3-4.8 4.9-4.2 4.2-9.6zm106-45.5c25.6 21.3 51.4-52.7 49.3-74.9-6.1 10.6-11.4 7.7-9.8-4.4-5.5-16.3 7.7 43.7-10.8 54.7-11.8 26.5-39.5 18.2-28.7 24.6zm-7.5.7zm66.5-75.7c3.4 1.6 8.1-6.8 10-11.6-2.3 4.1-5.5 11.2-10 11.6zm-6.1-4.8c.6 0 1.5.7 2.1 1.9-.8-3.7-.4-6.2-2.1-1.9zm-20.2-24.1z"/><path d="M321.5 646.9c5.9-9.5 11.8-68 22.9-61.6 20.5 21.9 19.5-42.7 42.4 1.7-26.3 6.1-4.1-13.9-29.7 14.3-4.3 3.2-10.4 6.4-15.6-1.9-2.2 11.5-15.1 36.6-20 47.5zM276.9 674.8c-11.8-4.1-12.7-24.6-13.4-36.2-10.4 15.4-19.9 8.9-28.1-1.2 3.4-1.1 11.1-6.1 14.5-3.3 8.3 2.9 19.8-27 19.7-4.3-7.4 27.8 35.9 50.9 7.3 45z"/><path d="M323 603.8c-.1 0-8.9-1.1-9-1.1 3-3.3 9.6-13.6 14.2-14.2 9.8-4.1 19-22.6 28.7-30.7-3.1 19-15.4 40.7-33.9 46z"/><path d="M349.2 584.5c0-7.4.7-8.2-5.1-2.6 3.6-10.5 7.8-25.4 10.1-35.5 13-3.2-1.8 31.5-5 38.1zM394.3 532.4c-1.6-1.2-4.3-3-6.9-2.7 5.6-9.1 9.2-20.6 18.2-27.5l-1.5 8.9 9.7-8.1c-4.3 6.4-10.7 28.7-19.5 29.4z"/></svg>