<svg xmlns="http://www.w3.org/2000/svg" xml:space="preserve" baseProfile="tiny" overflow="visible" version="1.2" viewBox="0 0 1000 1000"><path d="M425.5 533.8h-.2c-5.5.6-9.5.2-12.7-1.4-3-1.5-4.5-3.9-4.3-7 .1-1.1-.2-2.2-.5-3.3-.1-.2-.1-.5-.2-.7-1.1-4.3-1-8.4.4-12.7 1.1-3.5 3.7-6.6 6.3-9.4 6.3-6.9 14.7-10.1 22.7-12.8.9-.3 1.7-.6 2.6-.9 4.7-1.6 9.2-3 13.6-5.5 9.1-5.1 14.3-10.3 16.3-16.3 1.7-5.1 1.4-9.8.8-13.7-1-6.7-1.6-14.5 4-23.3 3-4.8 6.5-9.8 11.8-14.3.2-.1.3-.3.5-.4.2-.2.4-.3.5-.4 2.5-3.4 6.2-5.1 9.8-6.7.8-.4 1.6-.7 2.4-1.1 4.4-2.1 7.1-.4 8.1.5 1.8 1.6.5 3.4-.5 4.8l-.3.4c-4.5 6.3-6.9 12.3-7.2 17.9.3-.9.6-1.9 1-2.9 3.1-8 8.4-16 16.4-25.2 3.7-4.2 8.1-8.1 11.9-11.5l.3-.2.1-.1c-6.5 1.7-11.6 4.1-16.2 7.3-.2.1-.3.2-.5.3-1.3.9-3.5 2.5-6.1 1.4-2.5-1.1-1.5-3.2-.9-4.5l.1-.2c4.4-9.1 9.1-16.9 14.5-23.9s12.2-12.3 20.3-15.8c3.5-1.5 7-2.5 10.2-2.8 1.6-.2 3.9-.3 5.3.8 1.6 1.2 1 3.2.3 4.9-.3.6-.5 1.3-.8 1.9.1-.2.3-.3.4-.5 8.1-10 19-17 32.5-20.6.2-.1.5-.1.7-.2-1.6.1-3.2.2-4.9.4-3.5.4-7.2.9-10.9 2.3-1.6.6-2.9.7-4.1.4-.7-.2-1.5-.6-2-1.6-.8-1.7.6-3.1 1.9-4.2 2.9-2.4 5-5.3 7.1-8l2.1-2.7c2.2-2.7 4.6-5.4 6.9-8 .7-.8 1.5-1.6 2.2-2.4 1-1.1 1.9-2.2 2.8-3.3 2.1-2.6 4.4-5.3 7.3-7.8l1-.9c1.9-1.6 3.9-3.2 6.1-4.7 2.2-1.5 4.2-2.1 5.9-1.6 1.1.3 2.5 1.1 2.7 3.3.1 1.3-.2 2.7-.5 4.1 3.1-4 7.3-7.5 13-10.6 4.5-2.5 9.1-4.2 13.6-5.8l.7-.3c4.5-1.7 9.3-2.6 13.4-3.3.8-.1 1.6-.3 2.5-.4 2.6-.5 5.3-1 8-1.1h.5l.1-.1s0-.1.1-.1l-.2-.2-.1-.1c-.6-.8-1.3-1.3-2.2-1.5-7.3-1.5-14.6-2.6-23.6.6-3.1 1.1-4.6.1-5.3-.5-1.1-1.1-.4-2.4.2-3.3l.1-.1c.7-1.3 1.5-2.6 2.3-3.8 1.6-2.7 3.2-5.4 4.5-8.1 2.2-4.6 2-8.4 1.4-12.9-.1-.6-.2-1.2-.2-1.8-.4-2.6-.8-5.4-.3-8.4 1-6.7 9.2-18.4 22.2-23 .7-.2 1.4-.5 2.1-.8 4-1.5 8.1-3 12.4-3.4 7.3-.7 11.9.7 14.3 4.4 3 2.3 3.8 5.5 4.6 8.7.1.4.2.8.3 1.3v.1c.2-.1.4-.3.7-.5 1.3-.9 2.6-1.7 3.8-2.6 9.9-6.7 20.1-13.6 31.2-18.8 2.8-1.3 5.8-2.6 8.9-3.5 8.9-2.6 14.6.5 18.1 3.1l.4.3c1.4 1 3.2 2.3 3.6 4.5v.2c-.1.6-.5 1.2-1.2 1.6l-.2.1c-1.1.4-2 .5-2.9.3-1.3-.3-1.9-1.1-2.3-1.6-.1-.1-.1-.2-.2-.3-.3-.3-.5-.6-.8-.9 1 1.5 1.7 3.2 2.3 4.9 1.1 2.9.4 6-.2 9-.1.4-.2.8-.2 1.2-1.2 6.3-5.2 12.5-9.3 18.3-.8 1.1-2.1 3.1-5.1 3.4-1.1.1-2 0-2.8-.4-1.3-.6-1.5-1.7-1.7-2.6v-.1c-.4-1.9-1.5-3.3-3.6-4.3-.2-.1-.3-.1-.4-.2l-.1.1s.1.2.1.3c.1.2.2.5.2.7.2 1.3.4 2.6.7 3.8.6 3.1 1.3 6.4.8 10.1-.4 3.2-1.6 6.4-2.7 9.5-.4 1.2-.8 2.3-1.2 3.5-.5 1.6-2.2 2.9-4.6 3.5-1.5.4-2.6.2-3.3 0-.7-.2-1.6-.7-2.1-1.7-.3-.6-.5-1.2-.7-1.8-.2-.6-.4-1.2-.7-1.7-1.5-2.7-3.9-4.6-7.4-5.8l.3.6.1.2c4.2 7.7-.6 20.8-10.4 28.6-.6.5-1.1 1-1.6 1.6-.2.2-.3.4-.5.5-3.2 3.4-6.3 5.2-9.5 5.4-2.3.2-4.6-.4-6.6-1.8-1.4-.9-2.5-1.5-4-1.6-.3 0-.5-.1-.8-.1-.1 0-.3 0-.4-.1 0 0-.1.1-.2.1-.3.3-.3.3.1.9.1.1.1.2.2.4.4.7.8 1.4 1.3 2 1 1.4 2.2 3 2.4 5.2.3 3.2-1.1 6.4-4.2 9.5-2.5 2.5-5 5.1-7.4 7.6l-.2.2c-1.8 1.8-3.9 3.7-6.5 3.5-2.5-.2-3.6-2.1-4-2.7-1.6-2.8-4.4-3.7-9.1-2.7-1.1.2-1.4.4-1.4.4s0 .2.3.8c.3.6.8 1.1 1.3 1.6s1 1.1 1.4 1.8c2.8 4.2 2.9 9.2 2.6 14-.2 4.1-3.1 8.3-5.6 11.5-3 3.9-6.9 8.4-12.3 12.2-2.2 1.6-4.6 2.9-6.9 4.2-1.1.6-2.2 1.2-3.3 1.9-.3.2-.7.4-1.1.6-.3.2-.7.3-1 .5-.4.2-.7.5-.9.7 1.5.3 3.5 0 6.1-.9 3-1 6.2-2.5 9.9-4.7.3-.2.5-.3.8-.5 2-1.2 5.4-3.2 8.2-1.4 2.2 1.4 2.6 3.8 1.1 7.2-1.9 4.4-5.8 8.1-9.6 11.7-2.2 2.1-4.7 4.1-7 6-1.7 1.4-3.6 2.9-5.2 4.5-3.9 3.5-6.2 7.4-8.6 11.6l-.2.3c-4.8 8.2-12.7 14.2-23.5 17.9-1.8.6-3.3.7-4.5.2-1.2-.5-1.9-1.4-2-2.8-.3-3.4.7-7.1 3.1-12.1 2.2-4.5 3.8-9.2 5.3-13.5.2-.5.3-.9.3-1.4-1.1 3.7-2.4 7.4-4.3 11.2-3.5 7-7.8 14.2-15.8 19.9-5 3.6-10.3 5.5-15 5.5-3.2 0-6.1-1-8.3-2.8-2.2-1.7-2-4.3-1.6-6.8.8-4.8 2.7-9.6 4.7-14.4-3.2 5.8-8.1 11.4-15.2 17.4-.6.5-1.2 1-1.9 1.5-.9.7-1.7 1.3-2.4 2-2.6 2.4-5.7 3.3-8.7 4.3l-.3.1c-2.6.8-3 1.2-2.9 3.2 0 .9.1 2-.7 3.2-1.2 1.8-2.1 3.7-3 5.5-.8 1.6-1.6 3.2-2.6 4.8-3.7 6.1-9.5 10.5-14.6 14-2.4 1.6-4.9 3.1-7.4 4.5-2.6 1.5-5.3 3.1-7.8 4.8-.3.2-.6.4-.8.6-.3.2-.6.4-.8.5l-.6.4c-2.8 2-4.5 3.3-3.6 5.1l.7 1.3-2 .3c-.2 0-.4.1-.6.1-.5.1-1.1.2-1.7.2-8.5.7-14 5.9-13 12.5.1.4 0 .8 0 1.2v.1c5.2 6.5 4.8 9.4-2.2 18.7-5.2 6.9-11.9 12.9-19.9 17.8-6.6 4.1-13.3 6.9-19.8 8.3-.6.1-1.2.3-1.8.4-.3.1-.6.2-.9.2v.5zm77.1-128.3c-.3.1-.7.2-1.2.5-.8.4-1.7.8-2.5 1.1-3.3 1.5-6.4 2.9-8.5 5.7-.3.4-.8.7-1.1 1-.1.1-.2.2-.4.3-5 4.2-8.4 9.1-11.3 13.7-5.2 8.3-4.6 15.7-3.7 22.1.6 3.8 1 9-.9 14.5-2.2 6.6-7.8 12.2-17.6 17.7-4.8 2.7-9.6 4.3-14.4 5.8-.8.3-1.7.6-2.5.8-7.8 2.6-15.3 5.5-21.2 11.9-2.8 3.1-4.9 5.7-5.8 8.6-1.3 4-1.4 7.8-.3 11.8.1.2.1.4.2.7.3 1.2.7 2.4.6 3.8-.1 2.3.7 3.9 2.8 4.9 2.4 1.2 5.5 1.5 9.8 1 .2-.1.5-.1.7-.2.7-.2 1.3-.3 2-.5 6-1.3 12.2-3.9 18.4-7.7 1.8-1.1 3.6-2.3 5.2-3.5l-1.9-.9c2.7-3.1 6.4-7.3 8.5-11.9 1.1-2.3 1.9-4.7 2.7-7 .7-2.2 1.5-4.4 2.5-6.6.7-1.6 1.6-3.5 3.9-5v-.7c-1.2-8 5.6-14.4 16.2-15.2h.2c-.3-2.7 2.5-4.7 4.8-6.3l.6-.4.9-.6c.2-.2.5-.3.7-.5 2.6-1.8 5.4-3.4 8-5 2.4-1.4 4.8-2.8 7.1-4.3 4.9-3.3 10.4-7.5 13.8-13.2.9-1.5 1.7-3.1 2.5-4.6.9-1.9 1.9-3.8 3.1-5.7.4-.7.4-1.4.4-2.2-.1-2.9 1.2-4.2 5-5.5l.3-.1c2.7-.9 5.3-1.7 7.3-3.5.8-.8 1.7-1.5 2.6-2.1l1.8-1.5c7.7-6.6 12.7-12.6 15.7-19 2-4.3 2.9-7.7 2.8-10.7-.1-1.6.7-2.7 2.3-3.2 1-.3 1.9-.2 2.4-.1 1.2.4 1.6 1.3 1.8 1.8v.1c.3.8.4 1.7.2 2.9-.3 3.1-1 5.9-2.1 8.7-.5 1.4-1.1 2.8-1.7 4.2-1.9 4.6-3.8 9.4-4.5 14-.3 2-.5 3.9.7 4.9 1.6 1.2 3.5 1.9 5.7 1.9 3.7 0 8-1.6 12.2-4.7 7-5.1 11.1-11.3 15-19 2.3-4.5 3.6-8.9 4.9-13.4v-.2c.1-.6.4-1.6 1.9-2.1.9-.3 1.7-.2 2.2-.1 1.1.3 1.5 1.1 1.7 1.5.9 1.8 1 3.7.3 5.8-1.5 4.4-3.1 9.1-5.4 13.7-2.3 4.7-3.2 8.1-2.9 11.2 0 .4.1.6.2.7.2 0 .5-.1 1-.2 10-3.4 17.3-9 21.7-16.6l.2-.3c2.4-4.1 4.9-8.4 9.1-12.2 1.7-1.6 3.6-3.1 5.3-4.5 2.3-1.9 4.7-3.9 6.8-5.9 3.8-3.6 7.4-7 9.1-11 1-2.3.9-3.9-.1-4.6-.1 0-.1-.1-.1-.1-.5-.1-2.5 1.1-3.2 1.5-.3.2-.6.4-.9.5-3.9 2.3-7.3 3.9-10.6 5-2.2.8-5.6 1.7-8.8 1h-.1c-1.9-.4-2.7-1.1-2.6-2.3.2-1.3 1.5-2.1 2.2-2.6.4-.3.9-.5 1.3-.7.3-.1.6-.3.8-.5 1.1-.7 2.3-1.3 3.4-1.9 2.3-1.3 4.5-2.5 6.6-4 5.1-3.6 8.8-7.9 11.7-11.7 2.3-3 5-6.8 5.2-10.4.2-4.5.1-9.1-2.3-12.9-.3-.5-.8-1-1.2-1.5-.6-.6-1.1-1.2-1.6-2-.4-.7-.9-1.8-.2-2.8.7-1 2.3-1.5 3.6-1.7 8.2-1.6 11.9 1.4 13.5 4.2.5.8.8 1.1 1 1.2.2-.1 1.2-.4 3.1-2.4l.2-.2c2.4-2.5 4.9-5.1 7.4-7.6 2.6-2.7 3.9-5.4 3.6-8-.2-1.7-1.1-2.9-2-4.3-.5-.7-1.1-1.5-1.5-2.3 0-.1-.1-.2-.2-.3-.4-.7-1.1-1.9.3-3.3 1.6-1.6 3.6-1.2 4.4-1.1.1 0 .3 0 .4.1 2.7.2 4.5 1.2 6.1 2.3 1.3.8 2.4 1.2 3.6 1.1 2-.2 4.4-1.6 6.9-4.3l.5-.5c.6-.6 1.2-1.3 1.9-1.9 8.9-7.1 13.5-19.3 9.8-26.1l-.1-.2c-.4-.8-1-1.9-.4-3.7l.5-1.4 2 .5c5.8 1.5 9.7 4.1 12 8 .4.6.6 1.3.8 2l.6 1.5c.1.2.2.2.2.2s.2 0 .4-.1c.9-.2 2-.8 2.3-1.8.4-1.2.8-2.3 1.2-3.5 1.1-3 2.2-6.1 2.6-9.1.4-3.4-.2-6.4-.8-9.5-.3-1.3-.5-2.6-.7-3.9 0-.1-.1-.2-.1-.3-.2-.6-.7-1.8 1-2.9.8-.5 2.6-1.3 5.1 0 2.8 1.5 4.5 3.5 5 6v.1c0 .3.1.6.2.9.9-.1 1.5-.9 2.4-2 3.9-5.6 7.8-11.6 8.9-17.6.1-.4.2-.8.2-1.2.6-2.9 1.1-5.6.2-8-1.6-4.5-3.4-7.4-7.6-8.3-.8-.2-1.6-.7-1.6-2v-.8c-.8.1-1.6.3-2.4.6-2.8.8-5.6 2.1-8.2 3.3-10.9 5.1-20.9 11.9-30.7 18.5-1.3.9-2.6 1.7-3.8 2.6-1.6 1.1-3 1.9-4.6 1.6-1.7-.4-2-1.7-2.3-2.6-.1-.4-.2-.9-.3-1.3-.7-3-1.5-5.8-3.9-7.5l-.2-.2-.1-.2c-1.6-2.7-4.8-3.6-10.5-3.1-3.6.4-7.3 1.7-11.2 3.1-.7.3-1.4.5-2.1.8-11.7 4.1-19.4 15.1-20.3 21.1-.4 2.8-.1 5.3.3 7.9.1.6.2 1.2.2 1.8.5 3.8 1 8.5-1.6 13.9-1.4 2.8-3 5.6-4.6 8.3-.8 1.3-1.5 2.5-2.2 3.8l-.1.1c-.1.3-.4.6-.5.9.1 0 .3-.1.5-.2 10.3-3.6 18.6-2.4 26.4-.8 1.9.4 3.3 1.3 4.4 2.8v.1c.3.5 1 1.4 0 2.6-1.1 1.3-2.8 1.3-3.5 1.4-2.3.1-4.7.5-7.2 1-.8.2-1.7.3-2.5.5-4.1.7-8.4 1.5-12.5 3l-.7.3c-4.3 1.6-8.8 3.3-13 5.6-6.7 3.7-11.2 7.8-14.1 12.9-1 1.7-1.1 3.3-1.3 5.1-.1.7-.1 1.4-.3 2.1l-.9 5.7-2.7-5.4c-1.2-2.4-1.5-4.7-.9-7.7.2-1.1.5-2.1.8-3.2.5-1.7 1-3.3.9-4.7-.1-.6-.2-.9-.3-1.1-.2.1-.9.3-2 1-2 1.4-4 3-5.9 4.6l-1 .9c-2.8 2.2-4.8 4.7-6.9 7.4-.9 1.1-1.9 2.3-2.9 3.4-.7.8-1.5 1.6-2.2 2.4-2.3 2.6-4.7 5.2-6.8 7.9-.7.9-1.4 1.8-2 2.6-2.2 2.8-4.4 5.8-7.5 8.4-1 .9-1.4 1.5-1.2 1.9.2 0 .5-.1.9-.3 4.2-1.5 8.2-2.1 11.9-2.5 4-.5 8.7-.9 13.6.1l4.9 1.1-4.7 1.3c-1.2.3-2.3.6-3.3.9-1.5.4-2.8.8-4.2 1.1-12.8 3.4-22.8 9.8-30.6 19.5-.6.7-1.1 1.4-1.6 2.2-1.3 1.8-2.6 3.6-4.6 5.3l-1.8 1.6-1.3-1.8c-1-1.4-.3-2.6 0-3.4.7-1.5 1.3-2.9 1.8-4.4.3-.9.7-1.9 1.1-2.8.9-2.1.5-2.5.5-2.6 0 0-.4-.2-2 0-2.7.3-5.8 1.1-8.9 2.4-7.5 3.2-13.9 8.2-19 14.8-5.3 6.9-9.9 14.6-14.2 23.5l-.1.2c-.2.5-.6 1.2-.6 1.6.4-.2 1-.6 1.4-.9.2-.1.3-.2.5-.4 5.1-3.6 10.9-6.1 18.1-8 .7-.2 2.2-.6 3.5-.1.5.2 1.2.6 1.5 1.3.5 1.3-.7 2.2-1.5 2.9l-.3.2c-3.7 3.3-8 7.1-11.6 11.2-7.9 9-13 16.8-16 24.6-.5 1.3-.9 2.6-1.3 3.9-.5 1.8-1 3.6-1.9 5.5l-1.2 2.7-2.1-2.5c-1.2-1.4-1.5-2.9-1.6-4.3-.6-6.8 2-14.3 7.6-22.1l.3-.5c.6-.8 1.3-1.8.9-2.1-.5-.2-1-.6-2-.3zm-36.2 87.7-.3.6c-1 2.1-1.7 4.3-2.4 6.5-.8 2.3-1.6 4.6-2.7 7 2-2.5 3.7-5.1 5.2-7.4 1.8-2.8 1.3-5 .2-6.7zm104-156.5zm-.2-.1zm110.1-45.1zm62.1-48.9zm7-40c.9.2 1.7.4 2.5.6-.8-.3-1.7-.5-2.5-.6z"/><path d="M540.8 558h-.5c-1.1 0-2.1.1-3.1.4-4.3 1.2-7.8 1.7-10.5.8-2.7-.9-4.1-2.9-5.3-5.7l-.1-.2v-.3c.3-1.8.7-3.7 1.2-6 0-.1.1-.3.1-.4h-.5l-1.6-.1-.1-1.1c-.1-1.8.8-3.6 1.7-5.4.3-.6.6-1.2.8-1.8l.1-.1 1.3-2.1c3.7-6.1 7.5-12.4 13-18.2 3-3.2 6.7-6.3 11-9.3 2.2-1.5 2.2-1.5 1.3-2.7-.3-.4-.6-.9-.9-1.3-2.3-3.1-4.7-6.4-4.6-11 .1-3.7 2.1-7.3 6.6-11.5 3.9-3.7 8.5-6.5 13-9.3 2-1.2 4-2.5 5.9-3.8.8-.6 1.7-1.1 2.6-1.7 3.4-2.2 6.6-4.3 9-7-6.7-2.9-10.6-6.7-12-11.8-.9-3.3-1-6.9-.3-10.9.1-.3.2-1 .2-1.6-.7.2-1.5.5-1.9.6-6.4 2.3-13.2 4.5-20.2 4.8-5.6.2-9.8-1.6-12-5.2-.2.2-.4.3-.5.5l-.1.1c-3.2 2.8-6 5.9-8.7 8.8-2.3 2.4-4.6 5-7.1 7.4-5.8 5.5-12.5 10.6-21.8 16.6-.4.2-.7.5-1.1.7-3.1 2.1-6.3 4.2-10.5 4.1h-.4l-.3-.1c-.2-.1-.3-.1-.5-.2-.1 0-.3-.1-.3-.1-1.3-.2-3.4-.4-4-1.7-.6-1.3.9-2.5 2.9-4 6.2-4.6 11.6-8.1 17-11 11.3-6.3 18.3-13.4 21.5-21.7.4-1.1 1.1-2.2 1.9-3.5.7-1 .7-1.8.4-2.5-.4-1.3.2-3.2 1.5-4.6 1-1.1 2.3-1.8 3.7-2 6.1-.9 10.4-4.9 14.6-8.8.6-.6 1.2-1.2 1.9-1.7 6.5-5.8 10.9-12.4 13.4-19.5.5-1.4.5-2.6.5-3.9 0-1.2 0-2.4.4-3.7.1-.2.1-.5.1-.7.1-1 .3-2.3 2.1-3.2 2.4-1.2 4.3 0 5 .5.1.1.3.2.4.2 2.7 1.5 2.4 4.1 2.2 6.2-.5 5.3-2.9 10.8-4.9 15.3-1.6 3.8-2.8 7.9-3.7 12.7-.2 1.3.4 2.6 1.6 3.4 1.2.8 2.8 1.1 4.5.9 6.2-.8 12.8-4.9 17.3-10.8 6.8-8.9 10.9-17.8 12.4-27.2v-.2c.1-.6.2-1.6 1.7-2.3 1.5-.7 3.1-.6 4.4.2 3.2 1.9 4.1 5 2.8 9.2-1.6 5.2-3.8 10.5-6.6 16.5-1.2 2.5-1.8 5.1-1.8 8 9.9-3.7 16.6-9 20.3-16.1 3.1-5.9 8-11.4 15.2-17.4l1.1-.9c5.4-4.4 11-8.9 13.7-14.6.3-.7.6-1.3.6-1.9 0-.8 0-1.3-.1-1.6-.4.2-1.1.5-2.2 1.1-4.6 2.8-10.2 5.7-16.2 6.7-2.4.4-6.9 1.2-9.3-1.4-.8-.9-1.7-2.6 1.5-4.4 1.2-.7 2.4-1.3 3.5-2 1.7-1 3.5-2 5.2-2.9 10.6-5.9 17.9-13.8 21.1-22.8 1.9-5.5.9-10.7-2.8-15.2-.2-.3-.4-.5-.6-.8-.7-1-1.5-1.9-2.5-2.4-1.3-.6-1.5-1.4-1.4-1.9.1-.6.5-1.5 2.5-2.2 5.5-2.1 10.2-2.7 13.8-1.7 2.8.7 4.9 2.2 6.2 4.6.1.3.3.5.4.6.3-.3.8-.7 1.4-1.3.7-.7 1.3-1.4 2-2.1 1.8-1.9 3.6-3.9 5.7-5.8 3.1-2.9 3.7-7.3 2.2-9.4-.2-.3-.5-.6-.7-.9-1.4-1.8-2.9-3.6-3.1-6.3-.1-1.8.8-2.7 1.6-3.2.7-.4 1.8-.8 3.5-.5.3 0 .7.1 1 .1 3 .4 6.4.8 8.8 2.7 1.4 1.1 2.4 1.1 2.7 1 1.1-.1 3-.8 5.7-3.8 1-1.1 2.1-2.1 3.1-3.1 2-1.9 3.8-3.7 5.2-5.7 5.1-7.7 5.8-14.4 2.3-20.6l-.2-.2c-.1 0-.2-.1-.3-.2-1.9-.8-2.3-1.9-1.2-3.2 1.7-2 4.3-1.3 5.3-1.1.2 0 .4.1.5.1 4.7.7 8 2.7 10.3 4.4 2.8 2 3.8 4.6 4.7 7.2.2-.2.3-.3.4-.6.4-1.6 1-3.2 1.6-4.8 1-2.7 2-5.4 2.1-8 .3-5.5-1.1-10.3-2.3-13.9 0-.1-.1-.3-.2-.4-.3-.7-.9-1.8.4-3 1.6-1.6 3.7-1.3 4.6-1.1.2 0 .3.1.5.1 5.1.4 8.2 2.6 9.4 6.8 6.7-9.1 9.7-16.4 9.6-22.7-.1-6.4-2.1-9.5-6.6-10.5-1.2-.3-2-.8-2.6-1.2-.6-.4-1-.7-1.5-.7-.6 0-1.2-.3-1.6-.6-.5-.4-.7-1-.5-1.5.4-1.3 2-1.7 2.7-1.9 3.8-1 6.6-.2 9 .5l.6.2c4.1 1.2 7.4 3.5 10 7.1 3 4 1.8 9.3.9 13.9-1.3 6.2-4.8 12.3-8.3 18.3l-.1.2c-.9 1.7-2.4 3.1-3.8 4.5-.8.8-1.6 1.6-2.3 2.4-1.4 1.6-2.2 3.7-.3 4.6 1.3.6 2.5 1.2 3.8 1.3 2.1.3 3.7 1.1 4.4 2.5l.1.2c.3.3 1.2 1.4-.6 2.7l-.3.2-.4.1c-3.2.7-3.2.7-4.3 3.4l-1.7 4.4c-1.8 4.5-3.6 9.2-5.4 13.8-2.4 5.8-5.8 12.5-13.3 18.6-5.3 4.2-14.6 6.8-20.8 5.9-1.3-.2-2.1-.7-2.4-1.2-.9-1.1-.6-2.5-.1-3.6 1.1-2.7 1.6-5 1.6-7-4.5 7-10.1 13.6-16.6 19.5 1.2-.5 2.3-.7 3.4-.6 1.8.2 2.8 1.4 3.6 2.5 3.1 4.3 4 9.7 2.7 16.3-1.1 6-3.8 10.9-8.4 15.3-2.8 2.7-5.5 4.6-8.3 5.9-3 1.4-5.2 1.2-6.4.8-1.2-.4-2.6-1.2-3-3.4-.6-3.6-1.1-7.4-1.5-11.4 0-.5-.1-1.1-.2-1.6-1.1 2.1-2.1 4.3-3.1 6.4-1.8 3.9-3.7 7.8-5.8 11.7.8-.3 1.7-.5 2.7-.3 1.9.3 2.7 1.7 3.1 2.8 2.3 5.7.9 12.4-.8 18.1-2.2 7.5-6.7 14.7-13.3 21.4-4.4 4.4-9.1 7.2-14.6 8.6-.9.2-3.6.9-5.4-.1-1.7-1-1.4-2.8-1.1-4.1.7-2.3 1.1-4.3 1.2-6.1-4.6 6.8-11.1 12.7-17.9 18.7-2.4 2.1-5 4.3-7.5 6.3-3.2 2.7-6.6 5.5-9.7 8.4-5.5 5-7 9.4-4.7 13.5.9 1.6 2 3.2 3 4.7 1.3 2 2.6 4 3.7 6.1 2.8 5.3 1.9 10.3-2.9 15.7-4.1 4.7-2.2 6.4.1 7.4.3.2.7.3 1 .5.8.4 1.5.7 2.2.9 3.9.9 7.9 3.6 5.2 10.8-3.2 8.6-8.3 12.8-17.5 14.5-3.5.7-6.8.3-9.6-.1l-.7-.1c-2.8-.4-5.7-.7-8.6-.9h-1.1c0 .2-.1.5 0 1.2 0 .4 0 .8.1 1.2.1 2.3.2 4.7-.5 7.4-1.1 3.9-3.8 7.4-8 10.4 1-.2 2.1-.2 3.3 0 3.1.4 5.3 1.6 6.5 3.5 1.9 3 .6 7.4-3.3 11.5-8.9 9.3-18.6 15.9-29.6 20.2l-.6.6zm-4.6-2.1c1.2-.3 2.4-.4 3.7-.4 10.3-4 19.4-10.3 27.9-19.2 3.2-3.4 4.4-7 3-9.2-.7-1.1-2-1.8-3.8-2-1.4-.2-2.5-.2-4.2 1.5-1.5 1.6-3.4 3-6 4.7-2.5 1.5-5 2.3-7.6 2.3-3.1-.1-3.6-1.4-3.6-2.2 0-1.3 1.3-2.2 2-2.7 1.8-1.2 3.4-2.1 5-2.8 3-1.3 5.5-2.6 7.7-4 4.5-2.9 7.3-6.2 8.4-10.1.7-2.4.6-4.5.5-6.8 0-.4 0-.8-.1-1.3-.1-1.3 0-2.4 1.1-3.2 1.1-.7 2.6-.7 4-.6 3.1.2 6.1.5 9 .9l.7.1c2.7.3 5.2.7 8 .1 7.9-1.5 12.1-5 15-12.7 2.2-5.9-.6-7.3-2.9-7.8-1.2-.3-2.2-.8-3.1-1.2-.3-.1-.6-.3-.9-.4-5.1-2.3-5.5-5.9-1.2-10.8 4.2-4.8 5-9 2.6-13.6-1.1-2-2.4-4-3.6-5.9-1-1.6-2.1-3.2-3-4.8-2.8-4.9-1.1-10.2 5.2-15.9 3.2-2.9 6.6-5.7 9.8-8.5 2.4-2 5-4.2 7.4-6.3 6.7-5.9 13.1-11.7 17.6-18.3l.2-.2c.6-.9 1.5-2.3 3.8-2.4 1 0 1.6.3 2 .5 1 .6 1 1.6 1 2.3v.2c0 2.3-.5 4.6-1.3 7.4-.3 1-.2 1.5-.1 1.6.2 0 .8 0 1.8-.3 4.7-1.2 9-3.7 12.9-7.7 6.3-6.4 10.6-13.3 12.7-20.5 1.6-5.4 3-11.7.8-16.9-.2-.5-.4-.8-.5-.9-.3.1-.8.4-1.7 1.1-.1.1-.1.3-.2.5-.2.7-.6 1.9-2.7 2.5h-1l-1.5.1-.4-1c-.6-1.2.1-2.3.7-3.3.1-.2.3-.5.4-.7 2.6-4.7 4.9-9.4 7.1-14 1.4-3 2.9-6.1 4.5-9.1 0-.1.1-.2.1-.3l-.1-.5 1.1-.4c.4-.2.8-.2 1-.2l1.1-.1.7.7c1.6 1.6 1.9 3.8 2.1 5.8.3 3.9.8 7.7 1.4 11.2.1.7.5 1.3.9 1.4.4.1 1.4 0 2.8-.6 2.4-1.1 4.7-2.7 7.3-5.2 4.2-4.1 6.7-8.6 7.8-14.2 1.2-6.2.4-11-2.4-14.9-.7-1-1-1.2-1.1-1.2-.1 0-.8.2-3 1.5l-.3.2c-.5.3-1.1.7-1.7.9-2 .8-3.5.8-4.4-.2-1.3-1.3.2-2.5.9-3.1l.1-.1c7.6-6.5 14-13.8 19.1-21.7.1-.1.2-.3.2-.4.4-.8 1.2-2.2 3.4-2.4.8-.1 1.5.1 2 .4 1.1.6 1.1 1.6 1.2 2.3v.1c.2 2.5-.3 5.3-1.7 8.8-.5 1.2-.3 1.5-.3 1.6h.1c4.8.8 12.9-1.6 17.2-5.1 7.1-5.6 10.3-12.1 12.6-17.6 1.9-4.6 3.7-9.3 5.4-13.8l1.7-4.4c1.3-3.4 2-4.1 5.7-4.9 0-.1-.1-.2-.1-.3-.3-.5-.7-.7-1.6-.8-2.1-.3-3.7-1-5.1-1.7-3.3-1.6-3.6-4.6-.9-7.9.8-.9 1.6-1.8 2.4-2.6 1.3-1.4 2.6-2.6 3.4-4l.1-.2c3.3-5.8 6.8-11.9 8.1-17.8.9-4.3 1.9-9.1-.5-12.4-2.2-3.1-4.8-4.9-8.1-5.9l-.6-.2c-1.9-.5-3.5-1-5.5-.6.5.2.9.5 1.3.8.5.3.8.6 1.2.6 7.9 1.7 9 7.8 9.1 12.8.1 6.8-3.1 14.5-10.1 24.1l-.1.2c-.6.8-1.5 2.1-3.6 2.1-1.2 0-2.6-.3-2.7-2.2v-.3c-.9-4.6-3.9-5.4-6.3-5.5-.4 0-.7-.1-1-.1-.1 0-.3-.1-.5-.1l-.2.2c-.2.2-.2.2.1.8.1.2.2.4.3.7 1.3 3.8 2.7 8.8 2.4 14.6-.1 2.8-1.2 5.7-2.2 8.5-.6 1.5-1.1 3.1-1.5 4.6-.3 1.3-1.5 2.3-3.2 2.7-1.1.3-2 .1-2.5-.1-1.2-.4-1.6-1.3-1.8-1.9-.9-2.3-1.7-4.6-3.9-6.1-2.9-2.1-5.5-3.2-8.4-3.6-.4-.1-.8-.2-1.1-.2-.2 0-.4-.1-.6-.1.5.2 1.1.5 1.5 1l.4.4c4 6.9 3.2 14.3-2.3 22.6-1.5 2.3-3.6 4.2-5.5 6.1-1 1-2.1 2-3 3-2.9 3.2-5.6 4.8-8.5 4.9-2 .1-4-.5-5.7-1.9-1.7-1.3-4-1.6-6.8-2-.3 0-.7-.1-1-.1h-.4c-.1.1-.4.4-.3 1.2.1 2.1 1.3 3.6 2.6 5.2.3.3.5.7.8 1 2.4 3.1 1.2 8.6-2.5 12-2 1.8-3.8 3.7-5.5 5.6-.7.7-1.3 1.4-2 2.1-1.7 1.8-3 3-4.9 2.9-1.9-.1-2.7-1.6-3.3-2.6-.9-1.6-2.2-2.7-4-3.1-2.6-.7-6.3-.1-10.8 1.6-.1 0-.2.1-.3.1 1.5.8 2.3 2 3.1 3 .2.3.4.5.6.8 4.2 5 5.3 10.9 3.1 17-3.4 9.6-11.1 17.9-22.3 24.2-1.7 1-3.5 1.9-5.2 2.9-1.2.7-2.4 1.3-3.6 2-1.1.6-.9.8-.7 1.1.8.8 2.1.9 5.4.4 5.3-.9 10.4-3.6 14.7-6.2 2.5-1.5 4.5-2.3 6.3-1.7 1.9.6 2.1 2.4 2 4.1-.1.9-.4 1.8-.8 2.6-2.9 6.1-8.7 10.8-14.3 15.4l-1.1.9c-7 5.7-11.6 11-14.6 16.6-4.1 7.8-11.3 13.5-22 17.5-.6.2-2.4.9-3.9.2-1.5-.6-1.5-2-1.5-2.4 0-3.1.7-6 2-8.8 2.8-5.9 4.9-11.2 6.5-16.2 1-3.2.5-5.5-1.6-6.8-.1.1-.1.3-.1.5v.2c-1.6 9.7-5.8 18.9-12.8 28.1-5.1 6.7-12.5 11.2-19.9 12.1-2.8.4-5.6-.2-7.7-1.5-2.1-1.4-3.1-3.4-2.8-5.5.9-5 2.2-9.2 3.9-13.1 1.9-4.4 4.2-9.8 4.7-14.8.2-1.6.3-3.5-.8-4.1-.2-.1-.4-.2-.6-.4-.1-.1-.3-.2-.4-.3-.3.2-.4.6-.5 1.3 0 .3-.1.6-.2.9-.3 1.1-.3 2.2-.3 3.3 0 1.4-.1 2.9-.6 4.5-2.5 7.4-7.2 14.3-14 20.4-.6.6-1.2 1.1-1.8 1.7-4.6 4.2-9.3 8.6-16.8 9.7-.3 0-.9.3-1.4.9-.8.9-1.3 2-1 2.7.5 1.4.2 2.7-.7 4.1-.7 1.1-1.4 2.1-1.7 3.1-3.4 8.8-10.8 16.4-22.7 23-5.2 2.9-10.5 6.3-16.6 10.8-.9.6-1.4 1.1-1.7 1.3.2 0 .5.1.8.1.6.1 1 .2 1.3.3 2.5-.1 4.9-1.7 7.5-3.4.4-.3.8-.5 1.1-.7 9.1-5.9 15.7-10.9 21.3-16.3 2.5-2.3 4.8-4.8 7-7.2 2.8-3 5.6-6.1 8.9-9l.1-.1c1.7-1.5 2.6-2.3 4.1-2.1 1.5.1 2 1 2.7 2.2 1.6 2.7 4.3 3.8 8.4 3.7 6.2-.2 12.6-2.3 18.7-4.5 2.5-.9 4.4-1.6 6-.9 1.5.7 1.4 2.1 1 4.4-.7 3.7-.6 7.1.3 10.1 1.4 4.8 5 8.1 11.8 10.8l1.5.6-.8 1.1c-2.8 3.6-6.7 6.2-10.5 8.7-.8.6-1.7 1.1-2.5 1.7l-6 3.9c-4.5 2.8-8.8 5.5-12.5 9-4.1 3.8-5.9 6.9-5.9 10.1-.1 4 2 6.9 4.2 9.9.3.4.6.9 1 1.3 1.7 2.4 1.1 3.4-2 5.5-4.1 2.8-7.6 5.8-10.5 8.8-5.3 5.6-9.1 11.8-12.7 17.8l-1.3 2.1-.9 1.8c-.1.3-.3.6-.4.8l2.3.4c-.4 1.1-.6 2.3-.9 3.6-.1.6-.3 1.1-.4 1.7-.5 2.1-.9 3.9-1.1 5.6 1.1 2.4 2.1 3.6 3.3 4 1.3.4 3.6.2 7.6-.9-1.1-.1-1-.1-.9-.2zm-14.1-11.7zm27.2-13.2c1.6 0 3.2-.6 4.9-1.6 2-1.3 3.5-2.4 4.8-3.6-1.4.7-2.9 1.4-4.6 2.1-1.3.6-2.8 1.4-4.4 2.4-.1.3-.5.5-.7.7zM600 382.3zM757.2 257zm-49.1 1zm-.1-.1z"/><path d="M424.6 534c-5.6 1.4-10.5.4-15-3-7.6-5.8-9.5-13.8-5.7-24 1.2-3.2 2.9-5.9 5.2-8.3 1.5-1.5 2.7-3.1 3.9-4.7l.7-.9c2.2-2.9 5.3-5.5 9.1-7.9l3.3-2.1c4.1-2.6 8.3-5.4 13.3-7.2 6.5-2.4 12.1-2.4 17-2.4 2.7 0 4.6-.6 5.4-3.8 1.3-5 1.1-9.8.8-14.3-.2-3.2-.6-6.4-.9-9.5-.5-4-.9-8.1-1.1-12.3-.3-8.5 1.6-15.2 6.1-21.7 3.9-5.6 9.8-10.5 18.7-15.4 2.5-1.4 5.1-2.7 7.5-3.9 2-1 1.6-1.7 1.5-2-2-4.1-1.7-9.3.8-15.8 2.9-7.7 8.3-14.9 16-21.4 9.4-8 19.6-11.5 33.2-11.6.7 0 1.2 0 1.5-.1.1-.3.2-1.1.3-1.7.7-4.8 2-10.1 7-15.8 5.8-6.5 13-11.8 19.9-17l.4-.3c3.5-2.6 7.2-5.2 10.7-7.7 5.9-4.2 12-8.5 17.5-13.1 4.6-3.9 7.6-8.4 10.5-12.8 4.4-6.7 7.9-13.8 10.5-21.1 2.9-8.1 6.1-14.5 10.2-20.1 4.9-6.7 12.6-12.2 23.3-16.8 4.9-2.1 10.7-4.3 16.7-5h.1c.3-.1.7-.1 1.3-.1 6 .4 12.3 1.2 16.6 4.7.9.7 1.1 1.5.8 2.5l-1.1 3.2-2.3-2.9c-3.2-3.9-8.5-3.2-17.9-.3-3.2 1-6.5 2.4-10 4.1-8.5 4.3-15.6 14.3-14.9 20.9.1 1.4.4 2.7.6 4 .6 3.5 1.2 7.1.5 11.2-.7 4.3-3.3 8.7-5.9 12.8-.3.5-.6 1.1-.9 1.7-.4.7-.7 1.4-1.2 2.1 1-.3 2-.5 3-.6.6-.1 1.2-.2 1.9-.4 8.1-1.8 14.3-.3 20.4 1.1l.7.2c2.8.7 4 2.5 5.1 4 .2.3.4.6.7.9.6.8.6 1.8-.1 2.6s-2 1.2-3.4 1.2c-6.9 0-14.6 1.3-23.4 4-9.2 2.8-18.8 6.3-25.9 14.3-3.6 4.1-4.7 7.8-3.4 11l.1.2c.3.6.8 1.8-.7 3-1.1.8-2.2.9-2.9.9-1-.1-2-.5-2.6-1.2-2.3-2.6-3.1-5.8-2.3-9.6.2-1 .5-2 .7-3.1.4-1.6.8-3.3 1.1-4.9 0 0-.1 0-.1.1-4.8 3.6-9.8 7.4-13.2 12.2-1.4 2-3.2 3.9-5 5.8l-.9 1c-2.5 2.7-4.8 5.5-6.9 8.3-1.7 2.1-3.5 4.4-5.3 6.5-.9 1-1.9 2-2.8 2.9 2.7-.8 5.3-1.2 7.9-1.7l1.1-.2c6.1-1.1 11.4-.7 17.5.2 1 .1 1.7.5 2.1.9.3.3.6.9.2 1.7-.7 1.5-2.5 1.8-3.3 1.9h-.2c-5.6.9-10.7 2.3-15.6 4.2-9.3 3.6-16.8 8.9-22.4 15.8l-1.5 1.8c-2.1 2.5-4.2 5.1-5.4 7.7-.6 1.2-1.8 2.1-3.3 2.3-.8.1-1.5 0-2.1-.3-1-.5-1.1-1.3-1.1-1.9-.1-1.8-.2-3.6.9-5.8 1.1-2.1 1.9-4.3 2.7-6.4l.5-1.3c.1-.2.1-.3.1-.4-4.9.4-9.7 2.1-14.4 4.9-10.5 6.4-15.9 15-21 23.9-.5 1-1.1 1.9-1.7 2.9-1.2 2.1-2.5 4.2-3.5 6.3 5.6-3.7 11.9-6.2 19.6-7.8 1.6-.3 2.8-.3 3.8.1.6.2 1.3.6 1.7 1.4.7 1.6-1 3-2.1 4-2.6 2.2-4.9 4.3-7.2 6.4-5.3 4.9-9.9 10.4-15 17.7-5.2 7.6-8.3 15.1-9.4 23.1v.3c0 .6 0 1.9-2.1 2.5-1 .3-1.8.2-2.3 0-1.2-.3-1.6-1.1-1.9-1.7l-.1-.2c-2-3.5-2.5-7.9-1.3-13.8 1-5.5 4.3-10.7 7.3-15.1.1-.2.3-.4.5-.7.2-.2.5-.6.6-.8-.1 0-.6 0-1.8.5-8.7 3.4-14 9.8-18.6 15.5-6.7 8.2-8.9 16.6-7.1 26.4 1 5.3.8 10-.5 14.4-1.7 5.5-5.9 10.8-12.3 15.4-6.7 4.7-14.3 8.2-23.4 10.8-4.2 1.2-8.6 3-13 5.4-7.2 4-14.5 12.2-14.2 19.2.1 2.4.5 4.7 1 6.9.5 2.5 1 5.1 1 7.9 0 1 .6 1.6 4 1.9 1.6.2 3.2.2 4.9.3.8 0 1.5.1 2.3.1l7.4.4-6.9 2c-.4.2-.8.3-1.2.4zm20.3-57.1c-1.2.3-2.4.7-3.7 1.1-4.6 1.7-8.4 4.2-12.5 6.8-1.1.7-2.2 1.4-3.4 2.1-3.5 2.2-6.3 4.6-8.3 7.3l-.7.9c-1.3 1.7-2.6 3.4-4.2 5-2.1 2.1-3.6 4.5-4.7 7.5-3.1 8.2-2.1 14.9 2.9 19.9-.1-2.1-.5-4.1-.9-6.2-.4-2.3-.9-4.7-1-7.2-.3-8 7.8-16.9 15.6-21.2 4.6-2.6 9.3-4.5 13.9-5.8 8.7-2.4 15.7-5.6 22.1-10.2 5.9-4.2 9.8-9.1 11.3-14.1 1.2-4.1 1.4-8.6.5-13.6-1.9-10.3.5-19.2 7.6-27.9 4.9-6 10.4-12.8 20-16.5 1.2-.4 4.2-1.6 6.4.1 1.7 1.3.4 2.8-.2 3.6-.1.2-.3.3-.4.5-2.9 4.2-6 9.2-7 14.3-.9 4.9-.8 8.7.6 11.6 1.2-8 4.4-15.7 9.7-23.3 5.2-7.5 9.9-13.1 15.4-18.1 2.3-2.2 4.7-4.3 7.3-6.5.4-.4 1.5-1.2 1.4-1.6-.2 0-.4 0-.9.1-7.8 1.6-14.1 4.3-19.6 8.2-.1.1-.3.3-.5.4-.6.6-1.4 1.3-2.6 1.4-.7.1-1.4-.1-2-.4-1.7-.9-.8-2.3-.4-3 .1-.2.3-.4.3-.6 1-2.7 2.6-5.3 4.1-7.9.6-.9 1.1-1.9 1.7-2.8 5.3-9.3 10.9-18.1 22-24.9 5.3-3.2 10.8-5.1 16.5-5.5 1.8-.1 2.7.3 3.2.7 1.2 1 .7 2.4.5 2.8l-.5 1.3c-.8 2.2-1.7 4.4-2.8 6.6-.5 1.1-.7 2-.8 3 1.4-2.5 3.3-4.9 5.2-7.1l1.5-1.8c5.9-7.3 13.9-13 23.8-16.8 5.1-2 10.3-3.4 16-4.3-4.9-.6-9.2-.8-14.1.1l-1.1.2c-3.2.5-6.2 1.1-9.3 2.2-.7.3-2 .7-3.2.3-.4-.1-1.1-.4-1.4-1.2-.4-1.1.5-1.9 1.1-2.4l.3-.3c.3-.3.6-.6.9-.8 1-.9 1.9-1.8 2.7-2.7 1.8-2.1 3.6-4.3 5.3-6.4 2.2-2.8 4.5-5.7 7.1-8.4l.9-1c1.7-1.8 3.4-3.6 4.8-5.5 3.6-5.1 9-9.2 13.8-12.8.7-.5 2.7-2.1 4.8-1.4 1.3.4 1.9 1.4 1.7 3.1-.3 1.7-.7 3.5-1.1 5.2-.2 1-.5 2-.7 3-.6 3-.1 5.5 1.5 7.6 0-.1-.1-.2-.1-.3l-.1-.2c-1.6-3.9-.3-8.2 3.8-12.9 7.6-8.6 18.2-12.4 27.5-15.2 9.3-2.8 17.4-4.2 24.9-4.3h.3v-.1c-.3-.3-.5-.7-.7-1-.8-1.2-1.6-2.4-3-2.7l-.7-.2c-5.7-1.4-11.1-2.7-18.1-1.1-.7.1-1.3.3-2 .4-1.6.3-3.2.6-4.8 1.2-2.1.8-3.3.4-3.8 0-1.3-.9-.2-2.2.2-2.7.9-1 1.5-2.1 2.1-3.3.3-.6.6-1.2 1-1.8 2.5-4 4.9-8.1 5.6-12.2.6-3.7.1-7.1-.5-10.6-.2-1.3-.4-2.7-.6-4.1-.8-7.4 6.9-18.2 16.4-23 3.7-1.9 7.3-3.4 10.7-4.4 2.3-.7 5.3-1.6 8.3-2.1-1.1-.1-2.1-.2-3.2-.3h-.1c-.2 0-.4.1-.5.1-5.4.6-10.8 2.7-15.3 4.6-10.2 4.3-17.4 9.5-22 15.8-4 5.4-7.1 11.6-9.9 19.6-2.6 7.4-6.2 14.7-10.7 21.6-3 4.6-6.1 9.3-11 13.4-5.6 4.7-11.8 9.1-17.7 13.3-3.5 2.5-7.2 5.1-10.6 7.7l-.4.3c-7.1 5.3-13.9 10.4-19.5 16.7-4.4 4.9-5.8 9.4-6.5 14.7-.4 2.9-.7 4-5.4 4.1-8.3.1-19.3 1.3-30.4 10.7-7.4 6.2-12.5 13.1-15.3 20.5-2.3 6.1-2.6 10.8-.8 14.4.5 1 .8 3.1-2.8 4.8-2.4 1.2-4.9 2.4-7.4 3.8-8.5 4.7-14 9.2-17.7 14.5-4.3 6.2-6.1 12.5-5.8 20.6.1 4.1.6 8.2 1.1 12.1.4 3.1.7 6.3.9 9.5.3 4.6.5 9.6-.9 14.9-1 4-4 5.9-9.1 5.9-3.9-.4-7.6-.4-11.8.6zm107-123.8z"/><path fill="#B3B3B3" d="M676.3 332.7c1.6 1.4 1.9 3.4 2.2 5.5.5 3.7.9 7.4 1.4 11.1.4 3.1 2.9 3.4 6.9.7 6.2-4.1 10.2-9 11.8-14.4 1.8-6.6 2.2-12.8-1.2-17.7-1.9-2.7-2-2.8-6.2-.2-.7.5-1.6.9-2.4 1.2-1.7.6-3.6 1.1-4.3 0-.8-1.3 1.1-2.5 2.5-3.6 9.4-7.5 16.1-15.9 21.3-24.9.5-.8.5-1.8 1.9-2.1 1.2-.2 1.4.6 1.8 1.3 1.8 3.2 1.1 7.2-.6 11.3-.9 2.3-.2 2.7 2.3 2.8 10.8.2 19.4-7.1 23.9-14.8 4.2-7.2 6.3-14.3 9.1-21.4 1-2.6 2.1-5.2 3.3-7.8.4-.9.7-2 2-2.5 1.4-.6 1.8.3 2.5.8.3.2.6.4.9.7 3.4 3.5 4.2 8.1 2.8 13.5-1.9 7.4-6.7 14.2-13.8 20.8-10.2 9.5-21.8 16.6-34.9 21.8-.7.3-1.5.5-1.8 1.2-.3.8.3 1.1.9 1.3 2.1 1 4.5 1.7 5.5 3.7 6.7 7.9 7 17.9 1.9 29.6-2.6 5.9-6.8 11.3-13.3 15.9-4.5 3.2-9.1 4.5-13.8 4.9-3.6.1-7.1-.1-9.9-1.3-1.4-.6-1.9 0-2.2 1.2-1 3.6-1.1 7-1.6 10.5-.7 4.4-1.1 8.8-4.2 13.4-7.4 10.9-17.3 18.2-31.5 19.6-4.9.5-9.6.5-14.7 1.4-5.2.9-9.3 3.9-13 7.3-1.8 1.6-3.5 3.4-5.1 5.3-3.7 4.5-3.4 8-1.9 11.4.6 1.4 1.8 2.5 2.7 3.8 3.7 3.5 8.3 6.4 11 10.7 2.4 3.9 1 8.3-4 12.9-2.8 2.5-2.8 2.8-.2 4.1 9.6 2.3 10.1 9.6 3.5 18.3-7.1 9.3-16.7 16.3-27.8 22.1-3.4 1.8-6.9 2.9-10.4 4.1-2.8 1-2.9 1-1.5 2.6 1.9 2.2 3.2 4.6 3.8 7.5 1 4.4-1.2 9.1-4.4 13.7-6.9 9.9-16.9 17.1-29.2 21.9-3.5 1.4-7 2-10.5 2.6-3.9.7-7.8 1.5-11.7 2.8-1.1.4-2.3.7-3.3 1.6-3.4 1.7-6.5 3.7-9.1 6.3-.6.6-1.3 1.2-2.2 1.3-1.1-.2-1-.8-.3-1.6.6-.7 1.3-1.4 1.5-2.1 4.5-7.4 7.3-14.8 8.3-22 .9-2 .8-4 2-6 1.3-2.3 1.4-4.7 4.3-7.5.3 5.2-2.2 10.5-2.7 15.3-.4 4.4 2.1 6.2 7.8 5.4 2.6-.4 5.3-1 7.9-2 11.1-4.7 20.5-11.2 28.2-19.8 5.1-5.8 3.8-10.4-3-11-2-.2-3 1.2-4.3 2.4-4.1 3.9-8.6 6.7-14 6.4-1.3-.1-3.2.2-3.2-1.3.1-1.4 1.7-2.3 3.1-3.3 3.1-2.1 6.5-3.5 9.8-5.1 7.2-3.5 11.6-8.1 12.3-14 .4-2.8.5-5.7-.8-7.9-.9-1.6.1-2.2 2.1-2.3 4.8-.3 9 .6 13.4 1.1 2.8.3 5.5.7 8.6.1 8.2-1.6 11.7-5.3 14.4-12.4 1.5-4 .9-6.9-3.5-8-1.6-.4-2.9-1.2-4.3-1.8-4.4-1.9-4.9-5.3-.8-10 5.2-5.8 5.3-10.3 2.5-14.5-2.2-3.3-4.2-6.6-6.3-10-3-4.8-1.2-10.7 5.2-16.3 6.8-5.9 13.7-11.6 20.4-17.5 6.2-5.4 12-11 15.6-17.5.5-.9 1-2 2.4-2.3 1.5-.4 2 .5 2.3 1.3 1 2.5.5 5.5-.5 8.5-1.3 4.1-.9 4.5 4.2 2.7 7.1-2.4 11.6-7.3 15.5-12.4 6.6-8.6 9.2-17.2 9.7-25.6.2-2.4-.7-4.5-1.4-6.6-.3-.9-1-1.9-2.6 0-1.3 1.4-2.3 3-4.3 4-1.3.2-1.8 0-1-1.3.8-1.5 1.8-2.9 2.3-4.4 4.4-7.2 7.5-14.5 10.2-21.8.3-.7.1-1.3.4-2 1.6-2.2 2.5-1.7 3.4-.7z"/><path d="M512.4 577.4c-.1 0-.2.1-.4.1l-.4.1-.4-.1c-1.3-.2-1.8-.7-2-1.1-.6-1 .2-2 .5-2.4.1-.2.3-.3.4-.5.4-.5.8-.9.9-1.3l.1-.2c4.5-7.4 7.2-14.7 8.2-21.7l.1-.2c.3-.8.5-1.6.7-2.4.3-1.2.6-2.4 1.3-3.7.4-.7.7-1.4 1-2.2.6-1.6 1.4-3.5 3.5-5.6l3.1-3 .2 3.7c.2 3.2-.6 6.4-1.4 9.5-.5 2.1-1 4.1-1.2 6-.2 1.9.2 3.2 1.2 3.8.8.5 2.3.6 4.3.3 2.4-.4 4.9-1 7.4-1.8 11-4.7 20.3-11.2 27.5-19.4 2.6-3 3.5-5.7 2.4-7.4-.7-.9-2-1.5-4-1.7-.6-.1-1.1.4-2.1 1.3l-.5.5c-3.3 3.1-8.6 7.3-15.6 6.9h-.6c-1.1 0-4.4-.1-4.3-2.6.1-1.8 1.9-3 3.3-3.9l.3-.2c2.6-1.7 5.3-3 7.9-4.2.7-.3 1.4-.7 2.1-1 7-3.4 10.9-7.8 11.6-13.1.3-2.6.5-5.3-.7-7.4-.6-1.1-.6-2 0-2.7 1-1.1 3-1.2 3.6-1.3 3.8-.2 7.1.2 10.3.7 1.1.2 2.3.3 3.5.4.4 0 .7.1 1.1.1 2.3.3 4.4.5 6.7.1 7.1-1.4 10.4-4.3 13.2-11.6 2.1-5.4-1.1-6.2-2.3-6.5-1.4-.3-2.5-.9-3.5-1.4-.4-.2-.8-.4-1.1-.5-2.6-1.1-7.8-4.5-1.3-11.7 4.5-4.9 5.2-9 2.4-13.3-1.5-2.3-3-4.6-4.4-6.9-.6-1-1.3-2.1-1.9-3.1-3.3-5.2-1.3-11.6 5.5-17.5 3-2.6 6-5.2 9-7.7 3.8-3.2 7.7-6.5 11.4-9.9 5.8-5.2 11.8-10.8 15.4-17.2l.1-.2c.6-1 1.3-2.3 3.4-2.8 1.2-.3 2.1-.1 2.7.1 1.4.5 1.8 1.6 2 2.1.9 2.4.7 5.3-.5 9.1-.3.9-.5 1.6-.6 2 .5-.1 1.1-.3 2.1-.7 6.7-2.3 11-7.1 14.7-11.9 5.8-7.6 8.9-15.9 9.5-25.1.1-1.8-.4-3.4-1-5.1 0-.1-.1-.2-.1-.3-.2.2-.4.5-.6.7-1 1.1-2 2.3-3.7 3.2l-3.4 1.7.3-1.7-.6-.3c-1.1-.8-.4-2-.1-2.5.2-.3.3-.5.5-.8.7-1.2 1.4-2.3 1.7-3.4l.1-.2c4.8-7.8 7.9-15.6 10.1-21.6.1-.2.1-.5.1-.8 0-.3.1-.7.2-1.1l.4-1.3.4.1c.6-.6 1.4-1.2 2.5-1.3 1.7-.1 2.6.9 3 1.4 1.9 1.6 2.2 3.8 2.5 5.9v.1c.3 2.1.6 4.3.8 6.5.2 1.6.4 3.1.6 4.6.2 1.2.6 1.4.6 1.4s.9 0 3.3-1.5c5.9-3.9 9.8-8.7 11.2-13.7 2.1-7.5 1.8-12.8-1.1-16.9-.3-.4-.6-.9-.9-1.2-.7.3-1.8 1-2.4 1.4-1 .7-1.9 1.1-2.7 1.4-1.5.6-3.3 1.1-4.9.7-.6-.1-1.4-.5-1.9-1.3-1.1-1.9.9-3.5 2.3-4.5.2-.1.3-.2.5-.4 8.6-6.8 15.5-14.9 21-24.5.1-.2.2-.3.2-.5.3-.7.9-2 3-2.4 1.8-.3 3 .3 3.8 1.8 0 .1.1.2.1.3 1.7 3.1 1.6 6.9-.5 12-.3.6-.3 1-.3 1.1.2 0 .4 0 .9.1 10.2.2 18.1-7.1 22.2-14 3-5.1 5-10.4 6.9-15.5.7-1.9 1.4-3.9 2.2-5.8 1-2.6 2.1-5.2 3.4-7.9.1-.1.1-.3.2-.4.4-.9.9-2.1 2.6-2.8 1.7-.7 3.2-.4 4.5.8.1.1.2.2.3.2.2.1.4.3.6.4l.5.4c3.6 3.7 4.6 8.5 3 14.4-1.9 7.3-6.5 14.3-14.1 21.3-10.1 9.4-21.7 16.7-35.4 22.2l-.3.1c-.4.2-.5.2-.6.3l.1.1c.4.2.7.3 1.1.5 1.9.8 4 1.7 5 3.7 6.7 7.9 7.4 18.1 2 30.5-2.8 6.4-7.4 12-13.7 16.4-4.4 3.1-9.4 4.9-15 5.2h-.1c-2.8.1-6.8 0-10.3-1.3v.2c-.6 2.3-.9 4.7-1.1 6.9-.1 1.1-.3 2.3-.4 3.5l-.2 1.1c-.6 4.1-1.2 8.3-4.2 12.7-8.3 12.2-19 18.9-32.9 20.4-1.8.2-3.7.3-5.4.4-3.1.2-6 .4-9.1 1-5 .9-8.9 3.9-12 6.8-1.8 1.6-3.5 3.4-4.9 5.1-3.7 4.4-2.9 7.7-1.7 10.4.3.7.9 1.4 1.4 2.1.4.4.7.9 1.1 1.4 1.1 1 2.3 2.1 3.5 3 2.8 2.3 5.6 4.7 7.6 7.8 2.7 4.3 1.2 9.2-4.2 14.2-.5.4-1.4 1.3-1.7 1.7.1.1.4.2.9.5 3.8 1 6.5 2.7 7.9 5.1 2.2 3.8.9 9-3.6 14.9-6.6 8.6-15.6 15.8-28.3 22.5-3.2 1.7-6.4 2.8-9.6 3.9l-1.1.4c-.4.1-.8.3-1.1.4.1.1.3.3.3.4 2.1 2.3 3.4 4.9 4.1 8 .9 4.1-.5 8.7-4.5 14.4-6.9 9.9-17 17.4-30 22.4-3.4 1.3-6.8 2-10 2.6l-.9.2c-3.5.7-7.5 1.4-11.4 2.7l-.3.1c-.9.3-1.7.6-2.3 1.1l-.1.1-.2.1c-3.9 2-6.6 3.9-8.7 6-1.1.8-2 1.6-3.3 1.9zm10.5-26.7c-.9 6.8-3.5 13.8-7.6 20.9 1.7-1.3 3.8-2.6 6.3-3.9 1.1-.9 2.4-1.3 3.5-1.7l.3-.1c4.2-1.4 8.4-2.2 12-2.9l.9-.2c3.2-.6 6.2-1.2 9.2-2.3 12.3-4.8 21.9-12 28.5-21.4 3.6-5.1 5-9.4 4.2-13-.6-2.7-1.8-5-3.6-7-.7-.8-1.4-1.5-1-2.4.4-.9 1.5-1.3 3.3-1.9l1.1-.4c3.1-1.1 6.1-2.1 9-3.6 12.3-6.5 20.9-13.4 27.3-21.7 4-5.2 5.2-9.8 3.5-12.8-1-1.7-3-3-5.9-3.7l-.2-.1-.2-.1c-1.1-.5-2.4-1.1-2.7-2.2-.3-1.1.7-2.1 2.4-3.7 4.7-4.3 6-8.2 3.8-11.7-1.7-2.8-4.3-4.9-7-7.2-1.3-1-2.6-2.1-3.8-3.3l-.2-.2c-.3-.5-.6-.9-1-1.3-.6-.8-1.3-1.6-1.7-2.5-1.4-3-2.4-7.1 2-12.4 1.5-1.8 3.3-3.7 5.2-5.4 3.3-3 7.9-6.6 14-7.7 3.3-.6 6.5-.8 9.6-1 1.7-.1 3.5-.2 5.2-.4 12.6-1.3 22.4-7.5 30.1-18.9 2.7-4 3.3-7.9 3.9-11.9l.2-1.1c.2-1.1.3-2.3.4-3.4.3-2.3.5-4.7 1.2-7.2.2-.6.5-1.8 2-2.3.9-.3 1.9-.2 3 .2 2.2.9 4.9 1.2 8.8 1.1 4.7-.3 8.9-1.8 12.7-4.5 5.9-4.2 10.2-9.3 12.9-15.4 5.1-11.7 4.5-21.3-1.7-28.6l-.1-.2c-.6-1.2-1.9-1.8-3.6-2.5-.4-.2-.8-.4-1.2-.5h-.1c-.6-.3-2.2-1-1.5-2.7.5-1.1 1.7-1.6 2.4-1.9l.3-.1c13.3-5.4 24.5-12.4 34.4-21.5 7.2-6.7 11.6-13.4 13.4-20.3 1.4-5.2.5-9.4-2.4-12.5l-.2-.1c-.2-.2-.5-.3-.7-.5-.2-.1-.3-.3-.5-.4-.3.3-.5.7-.7 1.2-.1.2-.1.3-.2.5-1.3 2.6-2.3 5.2-3.3 7.8-.8 1.9-1.5 3.9-2.2 5.8-1.9 5.2-3.9 10.5-7 15.8-4.5 7.7-13.6 15.9-25.7 15.6-1.4 0-2.9-.2-3.8-1-1-.9-.7-2.1-.2-3.3 1.9-4.5 2.1-7.8.7-10.4v.1c-.1.2-.2.4-.3.7-5.7 9.9-12.7 18.2-21.6 25.2-.2.1-.3.3-.5.4-.7.5-1.7 1.3-1.7 1.8.3 0 .8-.1 1.8-.5.5-.2 1.2-.5 2-1 2.4-1.5 3.9-2.4 5.7-2.2 1.7.2 2.4 1.3 3.4 2.8 3.2 4.6 3.6 10.5 1.3 18.5-1.6 5.6-5.8 10.8-12.3 15.1-2.8 1.9-5.1 2.5-7.1 2-1.7-.4-2.7-1.6-2.9-3.5-.2-1.6-.4-3.1-.6-4.7-.2-2.1-.5-4.3-.8-6.4v-.1c-.2-1.7-.5-3.5-1.6-4.5 0 0 0 .1-.1.1-.1.2-.1.4-.1.6 0 .4-.1.8-.2 1.2-2.2 6-5.4 13.9-10.2 21.8-.1.2-.2.4-.2.6.5-.5 1.7-1.9 3.5-1.7 1.2.1 2 .8 2.4 2 .1.4.2.8.4 1.1.6 1.8 1.2 3.6 1.1 5.8-.6 9.6-3.9 18.2-9.9 26.1-3.9 5.2-8.6 10.3-16.3 13-2.8.9-4.8 1.6-6.4.7-1.6-.8-1.2-2.4-.4-4.8 1.1-3.4 1.3-5.9.5-7.9-.1-.1-.1-.3-.1-.3-.4.3-.7.8-1 1.3l-.1.2c-3.8 6.7-9.9 12.5-15.9 17.8-3.8 3.3-7.7 6.7-11.5 9.9-2.9 2.5-6 5.1-8.9 7.7-5.9 5.2-7.7 10.6-5 15 .7 1 1.3 2.1 1.9 3.1 1.4 2.3 2.9 4.6 4.4 6.9 3.3 5 2.4 10-2.6 15.6-3.5 3.9-3.4 6.7.2 8.3.4.2.9.4 1.3.6.9.4 1.8.9 2.7 1.1 3.4.9 7 3.2 4.6 9.5-2.6 6.9-6.1 11.5-15.7 13.3-3.1.6-5.8.3-8.3 0-.4 0-.7-.1-1.1-.1-1.2-.1-2.5-.3-3.6-.4-3.1-.4-6.1-.8-9.3-.6-.4 0-.7.1-.8.1 0 .1.1.2.2.5 1.5 2.5 1.3 5.6.9 8.5-.8 6.1-5.2 11.1-13.1 14.9-.7.3-1.4.7-2.2 1-2.6 1.2-5.1 2.4-7.4 3.9l-.3.2c-1.1.7-2.2 1.4-2.2 2.2h1.5c3.9.2 7.9-1.6 12.3-5.9l.5-.5c1.1-1.1 2.7-2.6 5.5-2.4 3.2.3 5.6 1.4 6.8 3.1 1.8 2.5.9 6-2.5 9.8-7.6 8.5-17.2 15.3-28.7 20.2l-.1.1c-2.8 1-5.6 1.7-8.4 2.1-3.2.5-5.8.2-7.5-.8-1.9-1.1-2.7-3.1-2.5-5.9.1-1 .3-1.9.5-2.9-.8.1-.9.6-1.1 1.1zM413.7 586h-.5c-3.2 0-5.2-1.4-6.8-2.5l-.9-.6-.4-.3-.1-.4c-.2-.7-.6-1.4-1-2.1-.2-.3-.4-.7-.5-1-2.4-4.7-1.9-10.6 1.7-18.1 3.2-6.6 9.2-11.5 17.4-14.1 2.6-.8 5.3-1.7 8-2.6 8.9-3 13.4.1 15.2 2.2v.1l2.5 3.2v.3c0 .5-.2.9-.6 1.4l-.2.2-.3.1c-.5.2-.6.5-.9 1.3l-.1.2c-2.4 6.8-6.6 13.3-12.4 19.3-5.6 5.8-11.3 9.3-17.5 10.8-.1 0-.2.1-.4.1s-.2.1-.2.1-.1.3-.1.5l-.2.5c-.3.5-.8.9-1.5 1.2l-.2.2zm-5.1-4.6c.2.1.4.3.5.4 1.2.8 2.1 1.4 3.1 1.6.2-.7.8-1.7 2.7-2.1 5.5-1.2 10.7-4.5 15.9-9.9 5.6-5.8 9.6-12 11.9-18.5l.1-.2c.3-.7.6-1.6 1.7-2.4l-1.9-2.4c-1.4-1.6-4-3.4-10.5-1.3-2.7.9-5.4 1.8-8.1 2.6-7.3 2.3-12.6 6.6-15.5 12.6-3.3 6.9-3.9 12.3-1.7 16.5.2.3.3.6.5.9.6.7 1 1.4 1.3 2.2z"/><path d="m409.8 586.7-4.3-3.9c-6-5.4-7.7-12.6-5.1-21.5.2-.7.3-1.4.5-2.1.3-1.9.7-3.9 2.5-6.1 5.4-6.6 15.8-13.1 25-12.8 7.5.3 13.3 2.4 17.5 6.3l-3 1.5c-2.3-2.2-5.7-2-12.6.5-1.3.5-2.6.8-3.8 1.2-2.1.6-4.2 1.2-6.1 2.3-7.2 4-11 9.1-12.4 16.7-.9 4.8-.2 9 .8 13.2l1 4.7zm13.9-43.4c-6.4 1.5-13.2 6.3-17.1 11-1.5 1.8-1.8 3.5-2.1 5.2-.1.7-.3 1.5-.5 2.3-1.5 5-1.5 9.5 0 13.2-.1-2.1-.1-4.3.4-6.7 1.6-8.2 5.8-13.9 13.7-18.3 2.3-1.3 4.7-2 7-2.6 1.2-.3 2.4-.7 3.5-1.1 1.9-.7 4.8-1.8 7.9-2.2-2.4-.8-5.1-1.3-8.2-1.4-1.6 0-3.1.2-4.6.6zM365 585.6c-.9.2-1.8.4-2.7.4-2.7.2-5.2-.4-7.3-1.7-4.8-2.9-6.1-6.9-4.1-12.2 1.1-3 3.8-5.3 5.7-6.8l.4-.3c2.7-2.2 5.6-4.5 9.1-5.9 3.6-1.5 7.3-1.7 10.1-.7 2.7 1 4.3 2.9 4.5 5.4v.5c.1 1.5.2 2.8.4 4.2.4 2.6-2 7.8-4.4 10.4l-.1.1c-2.3 2-6.6 5.4-11.6 6.6zm5-25.1c-.7.2-1.3.4-2 .7-3 1.2-5.6 3.4-8.2 5.4l-.4.3c-2.7 2.1-4.2 3.9-4.9 5.8-1.7 4.4-.8 7.4 3 9.7 1.4.8 2.8 1.2 4.5 1 3.5-.2 7.7-2.4 11.8-6 2.2-2.4 4.1-6.9 3.8-8.7-.2-1.4-.3-2.9-.4-4.3v-.5c-.1-1.6-1-2.8-2.5-3.3-1.4-.5-3-.5-4.7-.1zM523.8 569.7c-.4.1-.9.1-1.5 0-.4-.1-1.1-.3-1.4-1l-.4-.8.9-.5c3.6-2.2 7.2-2.9 10.7-3.6.7-.2 1.5-.3 2.2-.5 1.2-.3 2.4-.5 3.6-.8 2.9-.6 5.7-1.1 8.5-2.1C559 556.1 575 544 578.9 532c1.4-4.3.8-8-2-11.5l-.3-.4c-1.2-1.5-1.9-2.4-1.4-3.5s2-1.6 4.9-2.6l1-.4c9.8-3.5 18.8-9 27.4-16.9 6-5.4 9.5-10.3 11-15.1 1.4-4.4-1.2-6.4-4.3-8.3-.3-.2-.8-.4-1.2-.6-.3-.1-.5-.2-.8-.3l-6.5-3 7.8.7c3.8.4 6.8 1.8 8.5 4.1 2.9 3.9 1.9 9.8-2.8 15.7-9.9 12.5-22.5 21.5-37.6 26.8-.9.3-2 .7-2.5.9.2.3.6.7.9 1.2 5.1 6.1 4.4 13.6-1.9 22.2-6.7 9.1-16.2 16.3-28.2 21.5-3.9 1.7-7.8 2.4-11.6 3.1-.8.2-1.6.3-2.5.5l-.4.1c-4 .8-7.7 1.5-11.5 3.1l-.2.1s-.1 0-.1.1c-.2 0-.4.1-.8.2zM609.2 446.8l-3-2.2c-4.3-3.2-5.7-7.3-4.1-12.3 1.4-4.2 5.2-7.6 9-10.9l.7-.6c7.5-6.7 15.5-7.1 22.6-7.4 8.8-.4 16.1-1.8 23.4-7.3 7.3-5.5 11.8-11 13.6-17 1.2-4 1.6-7.9 2-11.7l.3-2.4v-.4c0-.3 0-.6.1-.9.1-.3.1-.7.2-1.1.1-1.2.3-2.8 2.1-3.9 2.3-1.4 4.7-.4 5.8.1l.6.3c.7.3 1.8.3 2.9.4 1.4.1 3 .1 4.4.7l3.8 1.5-4.2.8c-3.8.7-7.2.5-10.3-.7-.1.1-.1.3-.2.6-.7 2.8-1.1 5.5-1.4 8.1-.2 2-.5 4.1-.9 6.3-1.7 8.4-7.7 16.1-17.8 23.1-7.5 5.2-15.6 6.3-23.2 6.8-2.9.2-6 .5-9.4 1-3.8.5-7 2-9.9 4.4-2.6 2.2-5.3 4.5-7.5 7.2-3.3 3.9-3.7 7.3-1.3 11 .1.2.3.4.5.7.6.7 1.3 1.6 1.2 3v2.8zM526.3 539.1l-3.4-.9c2.5-5 5.6-10.1 9.2-15 4.2-5.8 10.1-10.5 15.8-15l.3-.2c1.3-1.1 1.1-1.4.9-1.7-.6-.8-1.1-1.6-1.7-2.4-.6-.9-1.2-1.8-1.8-2.6-1.8-2.4-2.5-5.6-1.9-9.6.5-3.8 3.8-7.3 6.6-9.8 4-3.6 8.7-6.6 13.2-9.4 1.1-.7 2.3-1.4 3.4-2.2l.3-.2c5.2-3.4 10.5-6.8 14.9-11l5-4.8-1.7 5.7c-.6 1.9-2.3 3.3-3.9 4.6l-.3.3c-4 3.2-8.5 6-12.8 8.7-2.8 1.7-5.7 3.5-8.4 5.4-14.1 9.8-13.6 16.2-8.7 22.7l.5.7c3.5 4.6 3 5.2-3.7 10.4-7.4 5.8-13.2 12.7-18.2 21.7-.5 1-1.3 1.8-2 2.6-.6.6-1.2 1.3-1.6 2zM716.5 324.8l-3.8-3.2c-1.4-1.2-3.3-2.1-5.3-3l-.4-.2c-.8-.4-2.8-1.2-2-3.2.6-1.4 2.1-1.8 3-2.1.2-.1.4-.1.6-.2 15.5-6.1 28.4-14.7 38.1-25.5 9.7-10.7 12.1-20 7.3-27.8-.2-.3-.3-.6-.3-.8 0-.1 0-.1-.1-.2v-.3l-.1-5.7 3.5 3.7c5 5.2 5.6 12 2 20.7-3.4 8.2-10.4 14.9-16.1 19.8-8.9 7.6-19.2 13.9-31.5 19-.1.1-.2.1-.3.1.4.2.7.4 1.1.6 1.6.8 3.7 1.8 4 4.1l.3 4.2z"/><path d="M497.9 592.2c-.8.2-1.6.2-2.5-.3-1.6-.9-.6-2.3-.2-2.9.1-.1.2-.2.2-.3 1.3-2.1 3.1-3.9 4.6-5.2 10.3-9.2 16.2-19.2 18.1-30.6 0-.2.1-.4.1-.5.1-1 .3-2.1 1-3.3l.4-.7 1-.1c1-.1 1.7.2 2 .4.8.5.7 1.2.6 1.6v.2c-.8 6.5-3.1 13.2-6.9 20 1.6-1.1 3.3-2.2 5.1-3l.4-.2 8.4-.6-5.3 2.7c-5.5 2.8-10.3 6.8-15.2 12.6-2.7 3.2-5.8 6.2-9.3 8.9l-.2.1c-.3.2-1.2.9-2.3 1.2zM757.4 259.6l-3-1.4c-1.3-.6-2.7-1.1-4.6-1.5-3-.7-4.9-1.9-5.7-3.4-1.1-2.2-.1-4.9 3.3-8.6 8.7-9.5 13-19.8 12.9-31.3 0-.4-.2-.8-.4-1.3-.4-.7-.8-1.6-.6-2.7v-.3l2.2-2.4 1.5 1.7c2.3 2.5 2.3 5.8 2 9-.6 7-3.9 13.9-7 19.9-2.3 4.4-5.6 8.2-8.5 11.4-2.5 2.7-.9 3.5-.4 3.8 1.2.6 2.5 1.3 4 1.5 2.4.4 3.8 1.5 3.9 3.2l.4 2.4zM423.6 586.2c-1.8.4-3.6.7-5.4.7-2.3 0-4.2-.3-6-1.1l-1.5-.7 1.5-1.6c1.5-1.2 3.2-1.1 4-1.1 11.3.8 19.7-9.1 22-12.1.2-.2.3-.4.5-.7 1-1.4 2.2-3 4.7-3.9l.4-.1h3.3l-.7 1.6c-3.4 8-12.5 16.6-22.8 19zM448.1 559.3h-.3c-1.2.2-2-.1-2.5-.3-.5-.2-1.1-.7-1.3-1.5-.3-1.4-.7-3.1-.9-4.9-.1-1 .5-2 1.7-2.7l2.2-2.4 1.3 2.3c1.4 2.5 2.6 5 1.3 8.4l-.2.5-1.3.6z"/><path d="m446 567.9-.9.2c-1.1.2-2.2 0-2.9-.5-.7-.5-.9-1.3-.6-2.1.4-1 .8-1.9 1.1-2.9.4-1.3.9-2.6 1.6-3.9.5-.9 1.4-1.5 2.7-2h.1l2.2-.7.4 1.6c.7 3.4-1.3 6.8-3.4 9.7l-.3.6zM521.9 554.2l-2.7-4.7.1-.3c.1-.4.2-.7.2-1.1.2-1 .4-2.1 1-3.2l.2-.2 4.5-4.9-.3 4.6c-.1 2.1-.8 4.2-1.6 6.1l-1.4 3.7zM446.9 524.4c-.3.1-.6.1-.9.1-.5 0-1.3-.1-2-.8-1.4-1.3.4-2.5 1.1-3 .2-.2.5-.4.6-.5 6.7-7 10.5-12.8 12.1-18.6 1.4-4.9 3.4-9.7 6-14.1.2-.4.8-1.4 2.3-1.6.5 0 1.5 0 2.4.8.3.2.5.5.8.7l.6.5.3.5-.1.3c-.2.6 0 .9.5 1.5l.1.1c2.7 3.8 2.2 8.1-1.7 13.5-5.4 7.6-11.7 13.7-19.4 18.6-.1.1-.4.3-.6.5-.4.7-1.1 1.3-2.1 1.5zm19.7-34.5c-2.2 3.9-3.8 8.1-5 12.3-1.2 4.4-3.6 8.8-7.5 13.7 4.4-3.7 8.3-8 11.8-12.9 3.3-4.7 3.9-8.3 1.7-11.4l-.1-.1c-.4-.5-.8-1-.9-1.6zM660.3 359.9l-.1-2c0-1.4.8-2.7 1.5-3.8l.3-.4c3.2-5.2 5.3-10.5 7.4-15.7.7-1.7 1.3-3.3 2-5l2.4-5.7 1.2 5.9c.4 1.9-.4 3.8-1.2 5.7-.3.7-.5 1.3-.7 1.9-2 6-4.8 11.4-8.3 16.5-.2.7-.8 1.3-1.8 1.7l-2.7.9zM536.1 558.8c-2.9.7-6 .8-8.5.2-2.7-.7-4.5-2.1-5-3.9-.3-1-.4-2 .4-3.3l2.4-3.7 1 4c.5 1.9 1 3.6 1.9 4 1 .4 3.9-.1 6.7-.6.4-.1.9-.2 1.4-.4 1.2-.4 2.8-.8 4.4-.6l3.5.6-2.8 1.6c-1.6.9-3.5 1.7-5.4 2.1z"/><path d="M660.4 365c-.2 0-.3.1-.5.1-.5 0-1.2 0-2-.4-1.3-.7-1.3-1.7-.1-3.2.4-.5.7-1.1 1-1.7.4-.8.8-1.8 1.7-2.7l4.2-4.5.1 4.2c0 1.2-.7 2.3-1.3 3.3l-.3.4c-.2.4-.6 1-.6 1.2l1.3.7-1.1 1-.3.3c-.5.5-1.1 1.1-2.1 1.3z"/><path d="m656.6 365.5 3.3-3.5c.3-.3.5-.6.8-.9 1.1-1.2 2.2-2.4 3.8-3.4l4.7-2.8-1.7 4.1c-.7 1.7-2 3.8-5.3 4.8l-5.6 1.7zM678.6 334.8l-3.1-1.1h-.2s-.2 0-.7.4l-2.7 2.2-.5-2.8c-.4-2.3 1.4-3.1 2.6-3.3 1.2-.3 2-.1 2.5.1 1.2.5 1.4 1.5 1.6 2.2l.5 2.3zM499.2 590.8l-3.4-1.6 19.9-21.8-.4 4.9c-.1.8-.6 1.5-1.1 2.1-.3.4-.8 1-.7 1.2l.3.6-3.1 3.3-8.7 9.3c-.4.4-.9.8-1.4 1-.2.1-.3.2-.5.3l-.9.7zM423.4 585.5c-1.6.4-3.1.6-4.8.7-2.2.1-4.1-.1-5.7-.8h-.2c-.2 0-.5-.1-.8-.1-1-.1-2.3-.3-3.1-1.1-.5-.5-.6-1.1-.3-1.9.7-1.8 3.2-1.8 4.3-1.8h.9c6.1-1.2 11.6-4.6 17.4-10.8 3.8-4.1 6.9-8.8 9.8-15 .3-.7.5-1.3.6-2.1.1-.3.1-.5.2-.8v-.4c0-.5 0-1.5 1.4-2.3.8-.4 2.4-1 4 .3 0 0 .1 0 .1.1l.8.2.2.7c.3 1 .4 2 .5 2.9.2 1.5.4 2.9 1 4.1l.2.3-3.4 9.6-.1.2c-.7.9-1.4 1.7-2.1 2.6-1.5 1.9-3.1 3.9-4.9 5.8-5.1 5.1-10.3 8.2-16 9.6zm-9.4-2.4.4.1.3.1c.9.4 2.1.6 3.6.5 6.5-.4 12.3-3.4 17.8-9.2 1.7-1.8 3.3-3.7 4.8-5.6.7-.8 1.3-1.7 2-2.5l3-8.5c-.6-1.4-.8-2.9-1-4.3v-.1c-.1.6-.3 1.3-.6 1.9-3 6.4-6.2 11.3-10.2 15.6-4 4.2-10.3 10.1-19.4 11.9-.3.1-.6.1-.9.1.1-.1.1 0 .2 0zM364.7 584.7c-3.3.8-5.9.4-8.4-2.2-2-2.2-1.1-7.9 1.1-10.7.5-.6 1.1-1.3 1.7-1.8.2-.3.5-.5.7-.8 4.5-5 7-6.8 13.8-4.8 2.7.8 7.8 2.2 6.1 7.6-1.5 4.6-6.6 9.7-11.6 11.6-1.2.5-2.3.9-3.4 1.1zm3.6-18.5c-1.4.3-2.8 1.5-5.4 4.4-.2.3-.5.5-.8.8-.6.6-1.1 1.1-1.5 1.7-1.9 2.3-2.2 7.1-1.2 8.1 1.5 1.6 2.3 2.1 6.8.3 4.2-1.6 8.6-6.1 9.9-10 1-3.1-.8-3.9-3.9-4.8-1.6-.5-2.7-.8-3.9-.5z"/><path fill="none" d="M0 0h1000v1000H0z"/><path fill="none" d="M100 99.9h800.1v300H100z"/><path d="m162 257.6-37.9-148.9h34.3c14 68.4 20.3 98.8 22.1 115.2h.2c5.7-27.4 20-79.2 28.7-115.2h28.9c7.7 28.6 22.7 86.4 27.6 113.6h.2c4.9-32.8 19.6-90.5 24.8-113.6h31.3l-40.3 148.9h-33.4c-7.8-33-20.9-81.1-26.2-106.6h-.2c-5.4 26.5-18.8 76.6-26.8 106.6H162zM372.9 198v59.6h-31.5v-149h65.4c32.5 0 50 17.9 50 40.9 0 20-10.9 30.8-21.6 35.2 7.4 2.7 18.5 10.4 18.5 37.1v7.4c0 10 .1 21.4 2.1 28.4h-30.5c-2.6-6.5-3.1-17.6-3.1-33.4V222c0-16.3-4.1-24-28.1-24h-21.2zm0-25.7h27c17.6 0 24.4-6.7 24.4-19.2 0-12.1-7.9-18.9-23.7-18.9h-27.8v38.1zM587.9 193.3h-71.2v37.8h78.6l-3.8 26.4h-106V108.6h105.6V135h-74.3v31.9H588v26.4zM747.1 211.7c-6 27.8-26.9 48-64.2 48-47.2 0-69.5-33.4-69.5-75.8 0-40.8 23-77.4 71.1-77.4 39.7 0 58.9 23.3 62.5 48.2h-32.2c-3.1-11.5-11.1-22.9-31.3-22.9-26.6 0-36.8 23.9-36.8 51 0 25.2 8.9 51.7 37.7 51.7 21 0 27.6-14.1 30.5-22.8h32.2zM771.9 108.6h31.8v66.5c9.8-11.5 40.5-45 59.3-66.5h38.6l-59.8 61.9 62 87h-38.6l-45.7-66.2-15.7 15v51.1H772V108.6z"/><path fill="none" d="M600 600h300v300H600z"/><path d="M714.6 863.6c2.8 12.5 11.8 17.9 26.1 17.9s20.5-5.7 20.5-14.7c0-10.1-6-14.5-27.2-19.4-33.8-7.9-42.1-20.2-42.1-37 0-21.6 16.2-36.3 45.6-36.3 32.9 0 46.1 17.7 47.9 35.9h-27c-1.3-7.6-5.5-15.9-21.5-15.9-10.9 0-17.5 4.5-17.5 13.3 0 8.6 5.3 12.1 25.3 16.8 36.1 8.5 44 21.9 44 39.4 0 22.7-17.1 38.2-49.9 38.2-31.5 0-48.1-15.5-51.1-38.1h26.9zM884.7 802.5h-47.5c-.8 6.3-2.8 17.7-3.6 22.5 4.4-3.7 11.2-6.3 21.3-6.3 23.4 0 36.5 16.9 36.5 39.4 0 22.9-12.5 43.9-44.5 43.9-23.4 0-40.6-12-43.3-33.2h25.7c2.3 8.2 8 13.4 18.1 13.4 12.2 0 18.1-9 18.1-22.1 0-12.4-4.5-21.1-18.2-21.1-11 0-15.5 4.8-18.2 11.8l-23.3-3c3.1-15 8.2-50.2 10.2-66.5h72.1l-3.4 21.2zM354.6 473.4c-3.3-.9-6.8-.3-10.2-.7-2.2-.1-4.3-.1-6.5-.3-3.7-.4-7.5-.3-11.3-.5-10.9-.4-21.9-.9-32.8-1.2-5.4-.2-10.9-.2-16.3-.5-1.4-.3-2.4.8-3.7.8-5.6 1.3-3.5-4.7-3.7-8.6.1-1.7.5-2.1 2.2-2 20.3 1.2 40.6.7 60.9.9 2.6 0 5.2.3 7.8-.3 1-.1 2.2.5 3.3.5 6.5-.6 12.9.2 19.4.1 2.1 0 3.6-.6 5-2.1l85.8-85.8c12-12 24-23.9 36-35.9 4.7-4.7 9.6-9.3 14.4-14 1.7-1.6 3.3-3.3 4.9-4.9l73.1-73.1c1.7-1.7 3.5-3 5.7-3.8 1.4-.6 2.8-.6 4.2.1 1.8.8 3.6 1.8 5 3.2l23.7 23.7.3.3c3.8 4.6 4.1 7.1-.1 11.9-1.5 1.7-3.2 3.2-4.7 4.8-2 4.3 7.2 8.5 9.5 12.3l78 78 7.5 7.5c2.1 2.1 2.2 2.1 4.2.1l4.4-4.4c.5-.5.9-.9 1.4-1.3 3.1-2.6 5.5-3.7 9.4.1 7.8 7.7 15.5 15.5 23.3 23.2 1.7 1.7 2.9 3.8 3.8 6.1.8 2.1.5 4.1-.5 6-1.6 3.4-3.7 6.6-6.3 9.2-28.4 28.4-56.8 56.8-85.2 85.1-6 6-12.1 12.1-18.2 18.1-1.8 1.8-3.7 3.4-5.6 5.2-6.2 6.1-12.4 12.2-18.5 18.4l-69 69c-25.6 25.5-51.1 51.1-76.7 76.6-2.7 2.7-5.4 5.5-8.2 8.1-18.9 17.8-36.8 36.6-55.3 54.8-12.8-.1-24.9-23.9-37-32.2-.9-.9-1.8-1.8-1.4-3.3-3-5.2-9.1-9.2-13.2-14-1.3-1.5-3.6-2.7-1.3-4.5.3-.3.5-.6.8-.9 1.4-3.4-5.5-6.7-7.4-9.6-2.7-2.3-4.9-5.2-7.5-7.7-9.4-9.4-18.8-18.9-28.2-28.3-5.9-6.1-11.9-12.2-18-18.2l-.3-.3c-2.7-2.4-2.3-1.9-4.3.1-1.8 1.7-2 1.7-3.8-.1-5.4-4.7-9.8-11.1-15.8-14.9-.8-.2-1.3-.9-1.9-1.4-11.1-11.1-22.2-22.2-33.2-33.3-2-2-2-2.5 0-4.5 9.6-9.6 19.2-19.2 28.9-28.8 4.2-4.2 8.4-8.2 12.6-12.4l21.6-21.3c16.3-16.3 33-32.4 49-49.1zm59.8-23.3c-3.1-.8-6.2-.2-9.4-.3 1.4.3 2.8.4 4.1.4 1.8 0 3.6.2 5.3-.1 3.6.9 7.6.3 11.4.5 1.7 0 3.4-.2 4.7-.3-.6-.2-1.8-.2-2.9-.2-4.5.1-8.8-.5-13.2 0zm5.8 242.6c-.2-1.5-.9-2.6-2.4-3.1-2.1-.4-3.1.1-3.6 1.7-.7 2 .3 3.9 2.2 4.3 1.8.4 3.3-.7 3.8-2.9zM310.3 582.8h-.8c-2.2.4-3.4 1.9-2.9 3.7.5 1.8 2.2 2.8 4.1 2.3 1.4-.3 2.3-1.5 2.3-3 .1-1.6-.7-2.4-2.7-3zM431 440.9c-.1-2.1.6-4.2 1-6.8-2.9 2.7-4.6 5.6-6.7 8.1-1.2 1.2 1 3 1.8 1.5.7-.7 1.4-1.3 2.1-2 .5-.5 1-.9 1.8-.8-.3.6-.6 1.3-1 1.8-1.4 2-1.4 2 .9 3.6.3-1.8.2-3.6.1-5.4zm-50.2 217.8c-2 1.2-3.4 3-5.1 4.7.4.3.6.5.9.6.7.3 1.2 1.3 2.1.6.9-.7 1.5-1.4 1-2.6-.6-1.4 0-2.5 1.1-3.3 1.5-.1 2.9.1 3.3 1.9.2.6.6.9 1.2 1 1.8.1 3.3.9 5 1.5.7-1.9.7-1.9 2.6-3.2-3.9-3.5-8.3-3.9-12.1-1.2zm67-140.1h-.4c-.6-.7-1.3-.9-2-.2l-1.2 1.2c-15.3 15.3-30.7 30.6-46 45.9-.6.6-1.5 1.3-.8 2.2.6.9 1.3 2 2.6 1.6.9-.3 1.5.1 2.1.7 1.3 1.8 4.5 3 4.3 5.4-.5 1.1.2 1.8.9 2.5 1.8 1.9 3.8 3.6 5.6 5.5 4.2 2.7 7.3 9.7 11.9 10.3.6-.3 1.1 0 1.5.4 1.5 1.9 5 3.4 4.5 6.2-.5 1.3.7 1.8 1.5 2.4 3.2.3 5.3-4.8 8-6.5l29.8-29.8c3.6-3.6 7.2-7.2 10.9-10.8.6-.6 1.1-1.4 2.2-1.5-.2 1.4-.4 2.7 1.6 2 .7-.2.7.6.7 1.2-.7 2.8 2.6.5 2.8 2.4-.1.7-.2 1.3.4 2 .6.8 1.5.1 2.1.4-.3 1-.6 1.7-1.3 2.2-2.1 1.4-3.5 3.5-5.2 5.3-2.4 2.4-5.1 4.4-7.3 6.9-5.5 5.9-11.4 11.3-17.1 17-4.2 4.1-8.4 8.4-12.6 12.5-5.1 6.1-8.5-8.4-12.6-2.4-.8.6-.5 1.2.1 1.8 2.7 2.8 5.4 5.7 8.4 8.2.7.6 1.3 1.4 2.5.8.5-.3 1 .3 1.4.7 1.4 1.3 2.7 2.7 4.1 4.1.4.4.5.9.7 1.4.1-.1.2-.1.2-.1 8-7.8 15.8-15.8 23.9-23.5 5.1-4.9 9.9-9.9 15-14.8 1-1 2.1-1.9 2.6-3.4.1-.5.5-.9 1-1 1.6-.4 2.5-1.7 3.6-2.7.9-.9 1.8-1.8 2.8-2.7.7-.6 1.3-.4 1.9.2.8.8.8 1.4-.2 2.5-1.9 2.1-4.2 3.8-5.6 6.2-.1.2-.3.4-.5.5-1.5.7-2.5 2-3.7 3.1-3.5 3.3-6.9 6.9-10.5 10.1-3 2.7-5.6 5.9-8.5 8.7-2.2 2.1-4.5 4.1-6.6 6.3-2.1 2.2-4.2 4.4-6.4 6.4s-3.2 5-6.2 6.2l-.3.3c-.7.7-.8 1.4-.1 2.1 1.4 1.4 2.8 2.8 4.2 4.3.8.8 1.6.7 2.4.1 4.9-4.6 9.5-9.5 14.3-14.2 2.6-2.7 3.1-2.4.1-5.3-1.6-1.6-1.5-2.6.1-4.3 1.6-1.7 3.2-3.3 4.9-4.9 1.7-1.6 2.5-1.6 4.3 0 .4.3.7.7 1.1 1 1.6 1.4 1.7 1.5 3.3-.1 12-12 24.1-23.9 35.9-36 5.3-3 .1-7.2-3.6-6.6-3.7 1.3-7.4 2.5-11.1 3.7-3.1 1-6.3 1.8-9.6 2.1-.4 0-1 .3-1.2-.6 3.5-1.8 7.5-1.9 11.1-3.3 3.7-1.4 7.4-2.5 11.1-3.7 3.7-1.2 7.4-2.5 11.1-3.7 3.7-1.2 7.3-2.5 11.1-3.8-.7-.7-1.3-.5-1.8-.5-5.4.1-10.7-.8-15.9-2.1-11.7-3.1-23.3-6.2-35-9.2-10.3-2.7-20.6-5.4-30.8-8.1-3.9-1-6.9-3.2-8.2-7.3-.7-1.7-.4-4.1-2.6-4.3-.9-.8-1.3-.4-1.7.4zm199.3-120.7c.1-.5-.2-.8-.5-1-2-1.7-4.4-1.9-6.9-.5-3.4 1.9-5.9 4.8-8.2 7.9-3.7 4.9-6.9 10.2-8.7 16.1-.1.4-.1 1-.9 1-.4-.9.1-1.7.4-2.4 2-5.6 5.1-10.7 8.5-15.5 2.2-3.1 4.7-5.8 8.1-7.6 3.3-1.9 6.2-1.9 9.1.6 1.3 1.1 2.7 2 4.3 2.5 1.1.4 2.2 1 3.2 1.5 1.7.9 1.7.8 3.1-.4 1.2-1.1 2.2-2.8 3.7-3.4 2.5-1 3.9-2.9 5.4-4.9.7-.9.7-1.6 0-2.5-1.1-1.6-.9-3.5.5-4.9.6-.7 1-1.3.8-2.3-.2-.9 0-1.8.7-2.4 2-2 4-4.1 6.1-6.1 1.2-1.1 2.2-1.1 3.5-.2.8.5 1.5 1 2.6.8 1-.2 2 .8 1.7 1.7-.4 1.3.2 1.9.8 2.8 1 1.2 1.1 2.3 0 3.4-2.4 2.4-4.6 5.1-7.5 7.1-3.6 2.5-6.6 5.7-9.7 8.8-.3.3-.7.7-.8 1.2-.3 1.4-1.3 2.3-2.3 3.3-.7.7-1.3 1.4-2 2-.7.7-.9 1.5-.2 2.4 2.3 3.1 2.8 7.1 4.8 10.4 1 1.7 1.1 3.7 0 5.5-1 1.7-2.2 3.3-3.8 4.6-7.4 5.8-15.6 11.2-24.8 13.4-3.9.8-7.8 1-11.4-1-2-1.1-2.3-1-3.2 1.1-.3.6-.4 1.2-.4 1.9.6 4.1-1.4 9.1 1.4 12.5 3.7 3.6 7.3 7.2 10.8 10.9 1.2 1.2 2.3 1.4 3.8.8 4.1-1.4 8.2-2.7 12.3-4.1 10.8-3.6 21.5-7.2 32.3-10.8 5.1-1.7 10.1-3.5 15.2-5.1 1.4-.5 1.7-.9.5-2.1-3.2-3.1-6.3-6.3-9.5-9.5-2.9-2.9-5.8-5.7-8.7-8.6-2.7-2.1-.6-6.9 1.3-8.9 1.8-1.6 3.3-3.5 5-5.1 3.1-3.1 6.2-6.2 9.4-9.2 3.2-3.3 6.4-6.6 9.9-9.6.2-.1.3-.4.5-.5.5-.6.6-1.1-.1-1.8-2.4-2.3-4.6-4.6-6.9-7-6.3-6.3-12.6-12.5-18.9-18.7-5-5-10-10.1-15-15.1-6.5-6.6-13.1-13.1-19.6-19.7-3.8-3.8-7.7-7.6-11.5-11.5-3.9-3.9-7.7-7.8-11.6-11.7-3.8-3.8-7.6-7.5-11.2-11.5-2.2-2.4-2.6-2.5-4.9-.2-7.9 7.9-15.7 15.7-23.6 23.5-3 2.9-6.1 2.9-8.9.1-5.5-5.5-11-11-16.5-16.4-1.9-1.9-2-1.8-2.9.6-2.5 7.1-5 14.1-7.5 21.2-4.4 12.4-8.8 24.9-13.3 37.2-.6 1.8-.3 2.9 1 4.2 4.2 4.1 8.4 8.3 12.6 12.5 2.5 4 4.2-.9 6.8 1 .6.9 0 1.5-.6 2.1-1.8 1.8-3.6 3.7-5.4 5.4-1.1 1.1-1.8 2.4-2.5 3.8-.4.8-.1 1.2.7 1.4.5.1.9.2 1.4.2 4.8.5 9.2 2.1 13.4 4.3 14.3 7.4 28.7 14.8 43 22.2 2.5 1.3 5 2.6 7.4 4 4.6 2.8 9 5.9 10.6 11.5 0 .1.2.2.4.2 1.3-2.2 1.3-2.2.7-4.4-.2-.9-.5-1.7-.7-2.5-.3-1.1-.5-2.2-.9-3.2-.6-1.5.9-2.1 1.2-3.2 1.5-4.6 3.6-8.9 6.3-12.9 1.4-2 3-3.7 4.4-5.6 1.4-1.8 3.2-3.1 5-4.4 2.1-2.4 5-.8 7.4-1.2zm-72.4 140c-1.6.6-2.8 1-3.6 1.8-2.7 2.7-6.1 4-9.5 5.4-2.8 1.2-4.6 3.6-6.7 5.6l-72.6 72.6-37.8 37.8c-1.4 1.4-2.5 3-3.6 4.7-1.1 1.6-3.5 2-4.9 3.7-1.7 2-3.7 3.7-5.5 5.6-2 2.1-2 3.9.1 6l16.6 16.6c2.2 2.2 2.2 2.2 4.5-.1 11.7-11.6 23.3-23.3 35-34.9 6.8-6.7 13.7-13.3 20.5-20 6.7-6.6 13.2-13.2 19.8-19.8l72.6-72.6c18.7-18.7 37.5-37.4 56.2-56.1l3.9-3.9c1.4-1.4 1.3-1.4.3-3.2-.9-1.5-1.9-2.8-3-4.1-.8-.9-1.4-1.9-1.8-3.1-1.2-3.3 1.9-6.7 5.3-5.9.9.2 1.9.4 2.7 1 2.1 1.3 4.4 2.1 6.7 3.2.7.3 1.3.6 2 0 1-.8 2-1.6 2.9-2.5 2.8-2.9 5.7-5.8 8.6-8.6 3.5-3.5 7.1-6.8 10.6-10.3 3.3-3.4 6.8-6.6 10.3-10.5-2.8 1-5.2 1.8-7.5 2.6-7.5 2.5-15.1 4.8-22.5 7.4-10.9 3.8-21.8 7.2-32.7 10.9-2.3.8-4.3 1.6-6 3.6-4.1 6.4-15.6 10.4-12.8 19.3 4.1-5.4 12.5-9.7 14.1-15.9-.6-1.5.2-2.4 1.7-1.8 1.2.4 1.8 0 2.5-.7.9-.8 1.7-1.7 2.6-2.5 1.1-1 1.8-.9 2.7 0 .8.9.8 1.4-.1 2.5-2.6 2.7-4.9 5.6-7.8 8-5.1 4.7-9.9 9.8-14.8 14.7-1 1-1.4 2.1-1.5 3.6-.2 4 0 8-.5 12-.1 1.3-.5 2.4-1.3 3.3-2.2 2.5-4.5 4.9-7.5 6.6-7.4 4-15.1 7.3-22.6 10.9-2.7 1.3-5.4 2.5-7.7 4.8l-31.2 31.2c-.5.5-1 .9-1.3 1.4-1.5 2.7-4.4 3.8-6.3 6.1-.7.8-1.6.6-2.3-.2-.7-.8-.8-1.6-.1-2.3.6-.7 1.2-1.3 1.8-1.9.8-.8 1.5-1.5.8-2.9-.6-1.2.7-2.5 1.7-1.9 1.6.9 2.3 0 3.3-.9l15.3-15.3c3-3.6 6.5-7.1 10.4-11zm46.1-69.6c.5-5.8.3-11.4.5-17.2.1-4.4.2-8.8.2-13.2 0-3.3-1-6.2-3.4-8.4-2.4-2.1-4.9-4-7.8-5.5-5.2-2.7-10.3-5.5-15.5-8.2-10.4-5.4-20.9-10.7-31.2-16.3-8.8-4.8-18.1-5.8-27.9-4.9-14.4 2.2-28.6 6-43 8.7-9.1 1.9-18.1 3.8-27.2 5.7-2.5.5-4.9 1.6-7.1 2.9-2.3 1.4-3.7 6.6-3.4 8.9.1.7.5.9 1.2 1 3.1 0 6.3.1 9.2 1.5.7.3 1.7.6 1.7 1.5.1 1.6 1.2 2.5 2.2 3.6 3.4 3.5 5.2 7.5 5.1 12.5-.2 5.4-.2 10.7-.3 16.1-.3 11.9-.5 23.8-.7 35.7-.1 2.7-.1 5.4-.1 8.2-.1 5.8-2.9 10-7.5 13.2-1 .7-2 1.2-2 2.7 0 1.1-.9 1.4-1.8 1.6-2.2.7-4.5.8-6.9.7-.6 0-1.3-.3-1.8.2.2 3.2 1.2 5.1 3.7 6.8 1.9 1.3 3.9 2.1 6.1 2.7 11.6 3 23.2 6.1 34.8 9 11.5 2.9 22.9 6.6 34.6 8.6 9.1 1.6 18 1 26.5-2.9 5.4-2.5 10.8-5.1 16.3-7.6 5.8-2.7 11.6-5.3 17.4-8.1 6.5-3.2 13.3-6 19.6-9.5 4.9-2.8 7.7-6.6 7.8-12.5 0-8.4.4-16.8.6-25.2 0-1 .1-2-.1-3.1-2.4 1.1-3.2.7-4.1-1.7-.6-1.6-.5-3.1-.1-4.7.6-2.6 1.6-3.2 4.4-2.8zm23.7 59.5c23.1-23 46.2-46.1 69.2-69.2l1.5-1.5c1.4-1.5 1.4-1.7.1-3.1l-.5-.5c-1.4-1.3-1.6-1.3-2.9-.1-.5.4-.9.9-1.4 1.3-1.4 1.2-1.9 1.3-3 .2-1.2-1.2-1.2-1.6 0-3 1.2-1.5 3.7-2.6 1.3-4.5-1.4-1.4-1.7-1.4-2.9-.2-2.8 2.7-5.6 5.4-8.4 8.2-3.7 3.7-7.2 7.6-11.1 11.1-4.6 4.1-8.8 8.6-13.2 12.9-1 .9-1.2 1.8-1 3.2.6 5-3 8.5-8.1 7.6-1-.2-1.7-.1-2.4.7l-1.2 1.2c-26.1 26.1-52.2 52.1-78.2 78.2l-74.8 74.8c-2.3 2.3-4.8 4.4-7 6.8-2.7 3.1-6 5.4-8.9 8.4-19.8 20-39.8 39.8-59.7 59.7-2.3 2.3-4.7 4.6-6.9 7-2.6 2.5 8.1 13.9 10.6 9.2l.8-.8c17.5-17.5 35-35.1 52.6-52.6 30.9-30.7 61.5-61.7 92.6-92.1 21.2-20.9 42-42 62.9-62.9zm-51.1-282.9c-2.7-.5-4.9-1.3-7 .4-.6.5-1.1.9-1.6 1.4-3 3-6 6-9 8.9-2.1 2-4.4 3.7-6.2 5.9-1.8 2.1-3.8 3.9-5.7 5.7-5.2 5-10.4 10.2-15.5 15.3-1.6 1.6-1.6 1.8 0 3.5l31.5 31.5c1.7 1.7 1.9 1.7 3.5.1l36.8-36.8c.9-.9 1.4-1.9 2.1-2.9.6-.8.3-1.9.5-2.8.1-.5-.8-.4-1.2-.6-.5-.3-.1-1.5-1.3-1.3-.4.1.8-.6.2-1-.5-.3-1.1 0-1.6-.3-.4-.3-.6-.6-.5-1.2.3-1.9.3-2-1.6-2.4-1.9-.4-2.9-1.6-3.2-3.4-.1-.9-.6-1.4-1.2-1.9-1.5 5.7-.7-4.1-4.5-1.7-1.3.4-1.8.3-2.1-1.3-.2-.9-.5-1.1-1.3-.9-.2 0-.3-.1-.1-.4.2-.1.4-.3.7-.5.3-.2.7-.2.6-.8-.4.2-.8.3-1.2.5-.6.3-1 .5-1.6-.2-.6-.7-.4-.8 0-1.4.6-1 .1-2.3-1.1-2.6-2.8-.7-3.9-3.4-6.2-4.7-.4-.2-.4-.9.3-1 2.4.3-1-2.8-1.9-.7-3.4 3.9-7.3 7.3-10.9 11.1-.6.7-1.2 1.4-2.7 2 1.1-1.4 1.7-2.5 2.6-3.3 2.8-2.6 5.2-5.6 8.2-8 .6-.5 1.1-1.2 1.1-2-.2-.1-.3-.2-.5-.3l-12.9 12.9-.3-.3c.6-.6 1.2-1.2 1.8-1.9 1.6-1.7 3.1-3.4 4.8-5 2.6-2.6 4.4-5.8 8.2-7.6zm151.8 151.7c-.8-.2-1.1.3-1.4.6-.8.9-2-.7-.7-1.1.7-.2 1-.6.8-1.2-.3-.8-1-.5-1.6-.4-.7.2-.7-.3-1.6-.7-1.3-.7-.9-3.1-3.1-2.7 0 0-.2-.3-.2-.4.6-1.2-.8-1.8-.9-2.8 0-.3-1.9-1.6-2-1.4-1.4 1.7-1.9-2.1-2.2-2.9-.2-1-.7-1.6-1.7-1.7-1-.1-1.4-.6-1.5-1.5-.1-1.1-.8-1.4-1.9-1.6-2.1-.3-3.6.4-5 1.9-11.3 11.6-23.1 22.7-34.6 34.1-1.2 1.2-2.4 2.5-3.7 3.7-.7.7-.8 1.3-.1 2.1.4.5.9.9 1.3 1.4 8 8 16.1 16 24 24.1 1.6 1.7 3.2 2.3 5.2.9-.3 1.8-.3 1.8 1.1 1.9-1.2 2.5-1.1 2.6.9 4.5l.3.3c.7.7 1.4.7 2.1 0 8-7.9 16-15.9 23.9-23.9 3.7-3.8 7.9-7.3 10.9-11.7 1.7-2.4 3-4.9 3.3-8-.5.2-1 .5-1.2.4-.5-.2.2-.8-.2-1.2-1.4 1.8-13.1 12.8-14.4 13.2l12.9-12.9c-3.1.4-4.2 3.5-6.7 4.8 0-.6.2-.8.4-1 1.6-1.7 3.1-3.4 4.8-5 .6-.6 1.5-2 .5-2.6-1.1-.5-2.2-1.6-2.5-2.6-.3-1-.9-1.6-1.6-2.4-.9-1.1-1.9-.7-2.7-.7-.4-.9 1.1-1.5.1-2-.7-.4-.9.7-1.4 1.1-.1.1-.3-.1-.4-.1-.5-1.3.4-1.7.8-2.5zm-415 178.6c.6 1.4 1.4 2.7-.2 3.7-1.6 1-3.8-1-3.5-2.9 0-.3 0-.7-.4-.7-2.3-.1-.5 1.8.4 2.6l13.6 13.6c.5.5 1 1 1.5 1.6.9 1.1.9 1.6 0 2.7-7 4.8.2 5.6 3 10.3 2.5 4 2.8 8.1.3 12.2-1.9 3.1-4.3 5.7-6.9 8.2-3.2 3.1-6.3 6.3-9.5 9.4-3.6 4.4-6.9-6.7-11.5-1.2-2 1.5-3.8 5.4-6.7 3.8-1-.6-1.8-1.2-2.3-2.3-.7-1.5-.6-2.3.5-3.4 1.2-1.2 2.4-2.4 3.5-3.6.3-.3.7-.7.9-1.1-.2-6.8-8.1 5.4-10.7 7 15.9 20.6 43.9 49.8 64.8 64.4l9.3-9.3c.3-.3.8-.6.5-1.2-1.6-.5-3.7-1.7-5 0-1 1.1-2 2.1-3.1 3.1-1.7 1.6-3.4 1.7-5 .1-1.6-1.6-1.7-3.2 0-5 1-1.1 2.1-2.2 3.2-3.2.4-.5 1-1 .7-1.7-.8-2.1-.9-4.4-3-6.1-1.9-1.5-1.8-1.9 0-3.6 4-4 8-8 12-12.1 1.5-1.5 3-2.9 4.8-4 4.4-2.6 9-3.1 13.5 0 2.6 1.8 4.4 4.1 5.7 6.9.6 1.3.9 1.3 1.9.3 1.1-1 2.1-2.2 3.2-3.2 1.7-1.6 2.1-1.6 3.8-.1 4.2 3 7.8 10.2 12.5 11.1 1.4-1.4 2.7-.7 4 .3-2.1-1.9-3.7-5.1-6.7-5.5-2.6-.1-5.4-2.4-6.5-5.2 1.8 1 3 2.7 4.6 3.6l-16.5-16.5c3.6 4.2 7.8 7.8 11.5 12.1-.7.4-.9.1-1.1-.1-3.6-3.5-7.2-7.1-10.7-10.6-.7-.6-1.2-1.5-.8-2.4-1-5.8-8.5-9.2-12-14-2-2-3.9-4.3-6-6.2-5.3-4.8-10.1-10-15.1-15-3.5-3.5-7.1-6.8-10.4-10.6-.2-.2-.5-.4-.7-.6-.6-.5-1.2-.8-2-.5-3.6.9-5.5-3-7.8-5-3.8-3.9-7.7-7.6-11.3-11.7-.6-.6-1.1-1.3-.7-2.1 1.4-3.1-1.9-4.1-3.6-6.3zm-18.9 5.9-13.7-13.7c-1.2-1.2-2.5-2.4-3.8-3.7-.9-.9-1.6-.9-2.4 0-.2.2-.5.4-.7.6-3.4 3.7-7.5 6.7-10.7 10.6-1.8 1.3-3.3 3-4.8 4.6-3.1 3.3-6.6 6.3-9.7 9.6-22.6 11.5 20.9 38.8 31 49.1 2.2-2.2 4.5-4.3 6.6-6.5 3.3-3.4 6.6-6.9 10.1-10.2 6-5.7 11.8-11.7 17.7-17.5 1.3-6.7-12.1-13-16-19.2-.1-.1-.3-.1-.4-.2-.3 7.4-8.6 7-9 1.1-.1-2.6 1.8-4.2 5.8-4.6zm107.3 106.7-17.5-17.5c-.8-.8-1.6-.9-2.5 0-.3.3-.6.6-.9.8L365 703.8c-.3.3-.6.6-.8.9-1.4 1.2 0 2.4 1 3.3 11.9 11.9 23.8 23.8 35.7 35.8 1.9 1.9 2 1.9 4-.1l12.9-12.9c6.7-6.7 13.5-13.4 20.2-20.2 1.7-1.7 1.6-1.8 0-3.4-3.1-3.1-6.2-6.2-9.3-9.4-2.3-2.3-4.5-4.6-7.1-7.1.1 3.7-1.5 5.9-4.2 6.1-2.2.2-4.5-1.8-4.7-3.9-.3-2.9 1.5-4.5 5.9-5.1zm-53.4-171.4-1.3 1.3c-2 3.3-8.2-1.4-4.3-2.7.4 0 .8.2 1.1.5.9.9 1.6.7 2.4-.1.8-.8 1.3-1.6.4-2.7-.2-.2-.4-.5-.5-.8-.2-.4-.2-.8.1-1.1.4-.4.8-.5 1.3-.2.9.6 1.6 1.3 2.2 2.2.8 1.3 1.1 1.4 2.1.5 1.7-1.5 3.5-3 5.2-4.6 3.6-3.4 6.9-7.1 10.4-10.5 5.5-5.2 10.7-10.7 16.1-16 1.1-1.1 1.6-2.2 1.6-3.8 0-3.9 0-3.9-3.8-3.9-4.9-.1-9.8 0-14.7-.4-2.1-.2-3.6.4-5.1 1.9-19.2 19.3-38.5 38.6-57.8 57.8-3.3 3.3-6.5 6.5-9.9 9.8-2 3.1-10.5 7.1-7.8 10.7 2.8 2.8 5.6 5.7 8.5 8.5l2.9 2.9c2 1.6 4.1-2.2 5.3-3.5.8-1.8 2.9-2.1 4-3.7 10.6-10.6 21.2-21.1 31.7-31.7 3.4-3.4 6.9-6.6 9.9-10.4zm12.9-41.8c-.5-.7-1-.7-1.5-.7-6-.2-12-.3-18-.5-.9 0-1.6.4-2.4.9-1.6 1.2-2.7 2.8-4.3 4-1.4 1.1-2.2 2.7-3.5 3.8-2.4 2.1-4.7 4.2-7 6.5l-45.6 45.6-31.4 31.4c-3.5 2.7 8.2 14.2 10.9 11.2 3.2-3 6.2-6.2 9.4-9.2 4.1-3.9 7.8-8.1 12-12 6.1-5.7 11.8-11.7 17.7-17.5 17.3-17.2 34.5-34.5 51.7-51.7 4.1-3.9 8-7.8 12-11.8zm-8.7-13.3c.6.2.7.3.9.3 6.3.1 12.6.2 18.9.4 1.4 0 2.2-.7 3.1-1.5 4.9-4.8 9.7-9.7 14.5-14.5 16.9-16.8 33.7-33.7 50.5-50.5.5-.5.9-.9 1.3-1.4.4-.4.7-.9.4-1.5-.3-.6-.8-1.1-1.5-.9-1.6.4-2.5-.6-3.5-1.6s-2-2-3-3.1c-.9-.9-1.8-1.7-1.4-3.3.3-1-.8-1.5-1.7-.8-.6.4-1.1 1-1.6 1.5-24.1 24.1-48.2 48.1-72.2 72.2l-4.7 4.7zm-40.2 111c1.9 1.9 3.4 3.3 4.9 4.9 1 1 1.9 1.7 3.3.8.9-.5 1.7-.2 2.4.5.7.6 1.3 1.2 1.9 1.8 2.6 2.5 4.9 5.2 7.5 7.7 2 1.8 3.8 3.8 5.7 5.8.9 1 1.8 2 1.1 3.6-.4 1 .1 2 .9 2.8 5.4 5.3 10.7 10.7 16.1 16.1.8.8 1.6 1 2.4.1 1-1.1 2.3-1.7 3.6-2.3 2.3-1 4.4-.8 6.2.9 1.7 1.6 2.1 3.9 1.1 6.4-.6 1.3-1.3 2.6-2.3 3.6-.9.9-.7 1.6.1 2.4 5.3 5.2 10.5 10.5 15.7 15.8.9.9 1.7 1.4 2.9.7s2.1-.3 3 .6c5.1 5.2 10.3 10.3 15.4 15.4.9.9 1.3 1.9 1 3.2-.2.7-.3 1.7.2 2.3 1.5 1.9 3.2 3.6 5.4 5.3.1-2 .2-3.6.2-5.2-.1-1.8.5-3.4 1.4-4.7 1-1.5 2.1-3 3.4-4.3 2.4-2.2 4.9-4.4 7.1-6.7 1.6-1.7 3.6-3.2 5.1-5 1.9-2.1 3.8-4 5.9-5.9 2.3-2.1 4.4-4.4 6.7-6.6.9-.8.9-1.6.1-2.5l-4.2-4.2c-.6-.6-1.2-.9-1.9-.3-.8.6-.7 1.2-.1 2.1 1.1 1.6 1 2.2-.2 3.6-.3.4-.7.7-1 1l-20.7 20.7c-28.3-11.3-54.3-53.9-81.6-75.5-1.4-1.4-3.3-3-1.2-4.6 1.6-1.6 3.4-3.1 5-4.7l18-18c1.6-1.6 1.7-1.6 3.6-.5.8.5 1.3.4 1.9-.3 1-1.9-2.2-3.9-3.3-5.3-2.8-2.2-2.4-2.1-4.6.1l-22.6 22.6c-2 2-4.3 3.5-7.2 4-2.4.5-5.1 1.1-8.3 1.8zM462.6 388c1.2-2 1.2-2 3.4-2 1.5-.1 2.1-1.5 3.2-2.4l31.7-31.7 9.2-9.2c1.5-1.5 3.1-3 4.6-4.6l4.4-4.4c1.5-1.6 3-3.2 4.7-4.4 1.7-1.2 1.4-4 3.9-4.3.1 0 .2-.3.2-.4-.1-.8.4-.7 1-.9 2.3-.7 2.7-2.8 1.1-4.5-3-1.7-6.6-10-10.1-6.9-1.7 2.4-5.8 3.9-5.2 7.2.1.2-.1.4-.3.6-.2.2-.6.5-.6 0-.2-1-.6-1.1-1.2-.5-.5.5-1.8 1.1-.2 1.9.3.1.3.4.1.6-.1.2-.5.4-.6.3-1.8-.9-2.6.4-3.6 1.4-14.5 14.5-28.9 29-43.4 43.4-1 1-1.8 1.9-1.2 3.4-.8-.2-1.2-.8-2-.3-1.2.8-.1 1.8-.2 2.7-4.1-.7-6 4.4-8.9 6.5-1.8 1.8-1.8 2.4-.1 4.2 2.4 2.5 4.9 4.8 7.3 7.2 2.2 2 3.1-2.5 5-3.1.3-.1.6-.6.2-1.1-1.2 0-1.5 1.4-2.4 1.3zm54.3-49.4c-2.1.6-2.7 2.5-4 3.7-3.1 2.8-6.1 5.8-9 8.8-3.1 3.2-6.5 6.1-9.6 9.3-7.2 7.4-14.6 14.4-21.8 21.8-6.8 7-13.9 13.8-20.9 20.8-9.7 9.6-19.3 19.3-29 29L408 446.6c-1.6.9-.9 2.4.9 1.9 2.4.1 4.8.2 7.2.1 3.7-.1 7.4.6 11.4 0-1.6-1.6-3.1-3.2-4.7-4.7-1.5-1.4-1.7-1.6-.4-3.2l9.9-12.6c2.8-3.6 5.6-7.1 8.5-10.7 3.2-4 5.9-8.3 10.1-11.4 3.3-2.4 6.2-5.2 9.5-7.6 3.6-2.6 7.1-5.4 10.5-8.3 3.2-2.7 6.5-5.1 9.7-7.7 3.3-1.4 5 4.5 7.2 6.3 1 1 .9 1.6.1 2.5-1 1.1-1.7 1.1-2.9.2-1.9-1.4-1.9-1.4-3.5.1l-14.4 14.4c-.4.4-.9.6-.9 1.4 3.1-.6 6.2-1.4 9.3-1.9 1.7-.3 2.9-1.1 4.1-2.2 13.3-13.4 26.7-26.7 40-40 .6-.6 1.2-1.1 1.5-1.8.4-1 1.2-1.5 2.1-2.1 2.2-1.4 4.1-3.1 3.1-6.2-.2-.7-.2-1.4-.3-2.1-.2-2-.2-1.9-2.2-2.2-4.9-.6-8.2-5.4-6.9-10.2zm-125.1 214c.2-1.1 1-1.6 1.6-2.3l37.3-37.3c6.7-4.5-2-6.6-.9-12.3.2-2.5.1-5.1.1-7.6-.4-3.4-5.5-1-7.8-1.8-1 0-1.6.3-2.3 1-6.4 6.4-12.7 12.8-19.1 19.2-2 2-2 2.3 0 4.2 1.7 1.6 1.6 2.9.1 4.6-1.1 1.2-2.3 2.4-3.5 3.6-3.6 5.5-5.5-1.4-9.3.3-3.3 3.1-6.4 6.4-9.8 9.5-2.1 1.8-3.9 3.7-5.8 5.7-1.2 1.3-1.2 1.8 0 3.1 2.1 1.6 4.6 6.8 7 3 .7-.8.9-1.9 1.9-2.4 1.1-.5 1.9-1.4 2.8-2.3 7.5-7.4 15-14.9 22.5-22.3 1.2-1.2 2.7-2.3 3.9-3.6 1.7-1.9 3.5-3.7 5.4-5.4 1.5-1.4 3.2-2.6 4-4.7.2-.5.6-.8 1-1 1.4-.5 2.3-1.7 3.3-2.7 1.4-.9 2.8-4.5 4.7-3 .7.7.6 1.5-.1 2.1-.7.8-1.5 1.5-2.2 2.2-1.2 1.3-2.9 2.3-3.3 4.3-.1.4-.4.7-.8.8-1.6.2-2.4 1.5-3.4 2.5-4.3 4.2-8.5 8.5-12.7 12.7-4.2 4.2-8.3 8.4-12.6 12.5-4.3 4.2-8.2 8.6-12.6 12.7-.3.3-.6.6-.8.9-.3.3-.4.7-.1 1.1.2.3.6.4.8.3 1.2-.6 2 .2 2.7.9 1.2 1.6 4.3 2.8 3.5 5.2-.3.6.2 1 .5 1.5 1.9 3 5.3 4.6 7.2 7.6.3.5 1 .5 1.5 0l1-1c2.6-2.3-2-4.2-3.1-6-2.4-2.5-2.4-4.8.2-7 3.5-3 6.6-6.4 9.9-9.7 9.5-9.3 18.9-18.8 28.4-28.3.5-.5.9-.9 1.3-1.4.3-.3.8-.7-.1-1.4-4.8 4.5-9.3 9.3-14 13.9-4.8 4.7-9.5 9.5-14.3 14.2-4.5 4.7-9.1 9.5-14 13.9zm18.8-87.1c-.9-1-1.7-1.2-2.6-1.4-1.5-.3-3 .1-4.5.1-5.9-.2-11.8-.4-17.7-.3-3.7.1-7.5-.1-11.2-.2-12.6-.4-25.2-.3-37.8-.4-9.7-.1-19.5-.2-29.2-.2l-29-.3c-2.6 0-2.6 0-2.9 2.6-.2 2.4-.4 3.5 2.4 3.4 3.1.1 6.2.1 9.3.2 7.8.3 15.6.6 23.5.8 5.6.2 11.2.3 16.8.5 13.2.5 26.5 1 39.8 1.3l40.2 1.5c2 .1 3.5-1 4-2.8.5-1.9-.1-3.6-1.1-4.8zm61.2 27.6c.6-.7.4-1.5.5-2.2l.3-15.1.6-29.5c0-1.7 0-1.8-1.7-1.8-4.6-.1-9.3 0-13.9-.3-4.2 1.1-1.1 10.6-2.2 14.6-.1 3.5-.1 7-.2 10.5-.2 7.3-.3 14.5-.5 21.8 0 1.2.3 1.7 1.6 1.7l14.4.3c.4.2.8.1 1.1 0zm168.9-93.3c-.8 0-1.1.3-1.4.6-6.5 5.6-11 12.5-14 20.5-.7 1.9-1.1 3.9-.3 6 .7 1.8.9 3.9.6 5.9-1.1 3.1 1.9 4.7 5.1 4.9 3.3.2 6.4-.6 9.3-1.8 6.4-2.5 12.3-5.7 17.5-10.1 1.5-1.2 2.8-2.7 4.3-4.3-2.9-.1-5-1.1-7-2.4-3.7-2.4-6.8-5.6-9.6-8.9-2.4-3-4.8-6.1-4.5-10.4zM386.5 614s-.1 0 0 0c12.6 12.7 25.3 25.4 37.9 38 2 2 2.2 2 4.2 0 4-3.9 7.9-7.9 11.9-11.9l9.5-9.5c1.3-1.3 1.2-1.6 0-3l-1.2-1.2-23.7-23.7-50.7-50.7c-1.4-1.2-2.5-3.3-4.1-1.2-1.3 1.4-2.8 2.6-4.1 4-5.8 5.7-11.5 11.5-17.3 17.3l-1 1c-1.2 1.2.1 2.3 1 3.2 12.5 12.6 25 25.2 37.6 37.7zm273.3-272.3c15.4 15.4 30.7 30.8 46.1 46.2.6.6 1.3 1.2 1.9 1.9.7.8 1.5.8 2.3.2 1-.7 3-1.9 1.7-3.3-1.4-1.5-2.7-3.2-4.2-4.6-2.2-2.1-4.4-4.4-6.6-6.5-4.4-4.1-8.7-8.5-12.9-12.8-1.5-1.6-3-3-4.5-4.6-3.6-3.7-7.3-7.3-10.9-11-2.2-2.3-4.4-4.6-6.7-6.9-3.6-3.6-7.3-7.1-10.9-10.7-2.4-2.5-5.1-4.8-7.5-7.4-1.4-1.5-3.2-2.9-4.6-4.5-2.3-2.6-4.9-4.9-7.3-7.5-4.1-4.4-8.4-8.7-12.8-12.8-2.5-2.3-4.7-5-7.3-7.2-.5-.4-.9-1.2-1.6-.7-1 .7-2 1.6-2.7 2.7-.3.5-.1.9.3 1.3l1.2 1.2c15.7 15.7 31.3 31.4 47 47zM401.6 486.4c-1.1.6-1.8 1.5-2.7 2.4-1.5 1.5-3 3.1-4.6 4.5-2.5 2.2-4.8 4.6-7.2 6.9l-4.2 4.2c-2 2-4.2 3.9-6.1 6.1-1.6 1.8-3.2 3.5-5 5.1-.7.6-1.1 1.2-.4 2 1.4 1.3-.6 3.3-2 2.2-.7-.5-1.3-.3-1.9.3-.7.7-1.5 1.2-2.2 1.9-2.5 2.5-4.9 5-7.4 7.5-8.2 8.2-16.4 16.3-24.7 24.5l-7.5 7.5c-2.1 1.1 1.3 6-2.9 4.4-1.2-.5-4.7 2.4-4.5 3.6 0 .2.1.3.2.4.7 1.5 2.3 2.3 3.9 2.1 1.3-.1 2.4-.7 3.3-1.6 2.9-3.5 7.1-6 9.2-10 .2-1 .9-1.8 1.9-2 1.2-.3 2-1 2.7-1.8 21.4-21.4 42.9-42.8 64.3-64.2.4-.4 1-.6.8-1.3-2-.6-2-.6-3-4.7zm6.3.5c.4.1.7.2.9.3 7 .2 14 .4 21.1.7 1 0 1.7-.4 2-1.3.3-.8.7-1.6 1.1-2.4 2.1-3.7 4.2-7.5 5.9-11.5 1.8-4.2 1.4-8.1-1-11.8-1.3-2-2.7-4-3.8-6.1-.8-1.5-1.9-2-3.5-2-6.9.4-14.6-1.3-21.1.2 2.4 2.8 4.7 5.6 7 8.5 2.7 3.4 3.8 7 1.5 11.1-.4.7-.7 1.4-1.2 2.1-1.9 2.6-3.8 5.1-5.6 7.7-1.2 1.3-2.7 2.5-3.3 4.5zm46.4-40.4c-.3-.3-.7-.3-1.1-.3-1.3-.1-2.6-.1-3.8-.1-3 .6-9.9-1.8-10.7 1.4.2 1.3-.2 2.8-1.3 3.9-.4.4-.4.9-.4 1.5.3 2.6 1.3 4.9 2.6 7.1 2.5 4.2 3 8.5 1 13-1.3 2.8-2.5 5.7-3.9 8.4-.6 1.3 0 2.3 0 3.5 1.7.4 1 1.7 1.1 2.7.2 1.9.6 2.6 2.6 2.7 3.9.3 7.8.3 11.7.5 1 0 1.5-.3 1.5-1.4 0-1.4.2-2.9.2-4.3.2-7.4.3-14.8.5-22.3l.3-15.1c-.1-.3 0-.8-.3-1.2zm100.9-146c-.1-.1-.2-.1-.3-.2l-8.3 8.3-19.7 19.7c-2.4 2.4-2.4 2.4-.1 4.7l6.8 6.8c3.8 3.3-1.3 6.1-4.2 7.5-.7.3-1.4.7-1.3 1.6.4 2.5-.1 5.1 1.5 7.4.5.7.5 1.2.1 2-1 1.9-.4 3.6.8 5.1 1.2 1.5 1.9 1.6 2.6-.4l4.5-12.6c1.8-5.1 3.5-10.3 5.3-15.4 4.1-11.7 8.2-23.1 12.3-34.5zm-92.5 209.6c1.7-2.2 3.3-4.6 3.6-7.6.2-2.1.2-4.3.4-6.5.1-1.2-.4-1.7-1.6-1.7-2.8 0-5.6-.1-8.4-.2-1.2 0-2.6.3-3.3-1.2-4.6-1.2-10.1-.1-15-.5-.5 0-1.2-.1-1.3.4-.5 1.4-1.6 2.4-1.4 4.2.2 2.2 1.1 4.5-.4 6.7-.5 1.3.9 2.6.5 4 .6 2.5 3.8 3.9 6 5 4.3 1.6 8.8 1.5 13.3 1.1 2.7-.3 5.3-1.7 7.6-3.7zM420.4 688c6.1 6.3 12.3 12.5 18.6 18.6 1.3 1.3 1.6 1.3 3 0 1.6-1.5 3.1-3 4.6-4.6 1-1.1 1-1.5-.1-2.4-3.8-2.9-6.7-6.6-10-9.9-3.5-3.6-7.3-6.9-10.6-10.6-2-2.2-4.4-3.9-6.3-6.2-3.1-3.8-6.9-6.8-10.1-10.5-1.2-1.3-1.6-1.2-3 0l-3.9 3.9c-1.8 1.8-1.8 1.9 0 3.6 5.9 6.1 11.9 12.1 17.8 18.1zm-107-106.5 17.4 17.4 1.2 1.2c1.2 1.1 1.4 1.1 2.6 0 1.4-1.3 2.7-2.7 4.1-4.1 1.5-1.5 1.5-1.7 0-3.3-2.4-2.5-4.9-5-7.4-7.5l-9.6-9.6-9.6-9.6c-3.4-3.4-6.8-6.9-10.3-10.3-2.8-1.9-5.1 3.7-7.3 5.1 2.8 7.7 13.3 13.8 18.9 20.7zm149.9-152.3c-2.7-3-7.6-3.5-12-3.6-4.5-.6-8.6.6-12.3 3-3 2.2.8 6.4-2.1 9.1-.5.6-.8 1.3.3 1.7.3.1.5.3.4.5-.9 1.1.5 1.6.6 2.3.2 1.5 1.2 1.7 2.3 1.8 4.1.2 8.1.3 12.2.5.6 0 1.3.1 1.6-.3.8-1.3 2.1-1 3.2-1 2.9 0 5.7.1 8.6.2.9 0 1.6-.1 1.6-1.2.4-4.7-.4-9-4.4-13zm63.8-48.3c1.5-.1 2.7 1.2 4 .4 1.3 1.6 2 .2 2.9-.5 1.1-.8 2.3-1.5 3.7-1.9 2.4-.6 4.8-1.3 7.8-.7-2-2.5-4.3-4.1-6-6.2-1.8-2.1-3.9-4-5.8-5.9-.7.3-.8 1.2-1.5 1.2-1.1 0-1.7.8-2.3 1.5l-30.3 30.3c-.3.3-1 .6-.7 1.4 2.4-.5 4.9-.7 7-2.1 2.7-1.7 5.4-3.4 8.1-5 .5-.3 1-.5 1.1-1.1-2.3-1.8-2.4-2.5-.6-4.8.3.6.7 1.1 1.4 1.4.9.5.4 1.3.1 2.4 5.6-1.7 9.7-5.2 14.3-7.9-.8-1.5-2.3-1.4-3.2-2.5zM379.2 724.5c0 .1-.1.1-.1.2l12.9 12.9c6.4 6.4 12.8 12.9 19.3 19.3 1.4 1.4 1.5 1.4 3 .1 4.7-4.1 9.1-8.7 13.6-13.1 1-1 .8-1.9.4-3 1.6.4 2.6.4 3.4-1 0-3.8-5.9-6.5-8.1-9.7-1.2-1.2-1.6-1.1-2.8 0-.8.7-.4 1.9-1 2.2-.8.3-1.7.4-2.3 1.1l-1.2 1.2-10.8 10.8c-8.8 3.7-18.1-16.1-26.3-21zM250.7 579.4c-2.2 2.2-4.5 4.4-6.6 6.6-2.2 2.8 8.6 13.8 11.4 11.2l12.9-12.9c2.9-3.9-6.1-7.9-8.1-11.3-3.3-3.1-6.7 4.7-9.6 6.4zm134.7 101 5.6-5.6c.8-.8 1.4-1.7 1.6-2.9.6-3-.8-6.2-3.5-7.8-2.8-1.8-6-1.8-8.4.5-3.8 3.6-7.5 7.4-11.2 11.2-1.4 1.4-1.6 3.2-.7 5.1 1 2.3 2.7 4.1 4.7 5.3 2.3 1.5 4.6 1.9 7.1-.8 1.5-1.8 3.2-3.4 4.8-5zm99-277.1c4.4-1 8.9-.6 12.3-3.2l14.2-14.2 17.5-17.5c.5-.5.9-.9 1.3-1.4.4-.5.5-1 .1-1.5-1-1.2-2.1-2.4-2.5-4-.1-.2-.4-.3-.6-.2-.6.4-.3 1 0 1.4.3.5.7.9.3 1.5-.5.5-1.1 1.2-1.8.8-1.6-.9-2.5.1-3.5 1.1-11.1 11.1-22.2 22.1-33.2 33.2-1.3 1.2-2.5 2.4-4.1 4zm-153.8 222 5.6-5.6c1.2-1.1 1.6-2.5 1.7-4.1 0-3.7-3.2-7.3-6.9-7.6-1.3-.1-2.5.2-3.5 1.2-3.7 5.6-14.5 9.9-13.3 17.1 1 2.3 2.9 4 5 5.3 2.3 1.3 4.2.9 6.1-.9 1.7-1.8 3.5-3.6 5.3-5.4zm104.8-195.8c2.3-2.5 5.1-4.4 8.4-4.9 3.9-.4 6-3.4 8.6-5.9.4-.5.9-.9 1.1-1.6 1.3-6.1 7-7.6 11.3-10.8l17.6-17.6 1.2-1.2c.4-.5.4-1 0-1.5-.9-1-1.9-.1-2.6.6-2.7 2.1-5.3 4.3-8 6.4-3.8 3-7.5 5.9-11.3 8.8-2.6 2-5.1 4.1-7.7 6.1-2.6 1.9-4.9 4.1-6.8 6.6-4 4.8-7.9 9.9-11.8 15zm-23.1 158.7 33.7 33.7c.6.6 1.1 1.1 1.8 1.6.4.3.9.2 1.3-.1 1.1-.7.4-1.9-.4-2.6l-4.7-4.7-26.6-26.6-29.8-29.8c-2.4-2.4-4.8-4.9-7.2-7.4-.4-.4-.8-.7-1.3-1-.7-.4-1.2-.1-1.7.4-.4.5-.5 1 0 1.5l1.2 1.2c11.2 11.3 22.4 22.6 33.7 33.8zM510.4 398c11.2-1.8 21.8-5.2 33-5.7-.9-2.4-.8-2.7.4-4.6.9-1.4 1.9-2.6 3-3.7 2.1-2 2-2.6-.7-3.7-1.4-.6-2.9-.8-4.5-.6-2.1.3-4 1.1-5.8 2.1-8 4.9-16 9.9-24 14.8-.5.3-1 .6-1.4 1.4zM330.7 570c.1.1.1.3.2.4 1.9-.3 3.7-.6 5.6-.9 11.3-3.5 17.7-15.6 26.7-22.9.8-.8 1.7-1.7 2.5-2.6.7-.8.5-1.3-.4-1.6-.8-.3-1.8-.4-2.5-.8-2.1-1.3-3.4-.4-4.9 1.1-6.2 6.3-12.5 12.6-18.8 18.8-2.8 2.9-5.6 5.7-8.4 8.5zm124 66.5c-.6 1.6-1.9 1.9-2.5 2.9-2.2 3-5.2 5.1-7.7 7.8-3.3 3.4-6.9 6.6-10.2 10-3 3-5.2 6.2-4.7 10.7-.6 2.5 1.1 3.5 2.5 1.2 6.7-6.6 13.3-13.3 20-20l3.7-3.7c.4-.5 1-.9.9-1.6-.5-2.3-.8-4.6-2-7.3zm167.8-155c.4.1.5-.1.7-.2 3.8-3.8 7.7-7.6 11.5-11.5 1.2-1.2 1.2-1.5 0-2.7-2.2-2.3-4.5-4.5-6.8-6.7l-4.2-4.2c.2 1.9-1.3 14.3-1.8 15.5-.3 0-.6-.1-.8-.4-1.3-1.2-1.9-1.1-2.3.6-.2.6 0 1.6-.3 1.8-1.8.9-.5 1.8-.3 2.8.7-.5 0-1.7.5-1.4 1.5 1.1 2-.4 2.9-.7h.4c.7.4.1 1.3.7 1.7.5-.4.8-1 1.6-.7.1.5-.4.7-.4 1.1 0 .3 0 .5.2.6.3.1.5 0 .6-.3.2-.3.1-1 .7-.6.4.2.2.7 0 1.1-.3.7-.9.8-1.6.7-.3 0-.7-.2-.5.4.3.9.1 1.4-.7 1.9-.5.2-.5.8-.1 1.2zm-90.2-140.7c-1.7-1.6-2.9-3.1-4.1-4.5-1.3-1.4-2.8-2.6-4.1-4-.8-.9-1.5-.5-2 .2-1.6 1.9-3 3.9-3.8 6.3-.3 1-.4 2-.2 3.1.4 3.3 4.6 6.1 7.7 5 1.3-.4 2.5-1.1 3.6-1.8 2.1-1.3 2.2-2.6.6-4.5-.5-.5-1.2-.9-1.1-1.9 1.5 0 1.9 1.5 3.4 2.1zm8.4-50.5c.7.3 1.2.1 1.6-.4.8-.7 1.5-.8 2.3-.1.7.7 1.4 1.4.5 2.5-.7.8-.6 1.5.2 2.1 1.4 1 2 3.2 4.2 3.1.1 0 .3-.1.4-.2 1-.7 1.8-.2 2.5.6s.2 1.5-.2 2.4c-.7 1.5-2.3 2.2-3.4 3.3-4.1 4.2-8.6 8.1-12.3 12.7-1.2.9-2.8 3-4.4 1.4-.3-.3-.7-.5-1 0-.2.4-.2.7 0 1.1.8 1.3 2 1.4 3.3 0l20.7-20.7c1.4-1.4 1.4-1.7 0-3.1-1.9-2-3.9-3.8-5.6-5.9-.9-1.1-2.1-1.9-3.2-2.9-.7-.6-1.3-.5-1.9.1-1.2 1.3-2.6 2.6-3.7 4zm114 111.3c-.9-.8-5-2.4-6.2-2.4-1.5 0-2 .7-1.5 2.1.1.4.3.7.5 1.1 2.9 5.4 7.2 9.5 12.5 12.5 1.3.8 3.5 1.2 3.2-1-.1-2.6-1.3-4.7-2.8-6.7-.2-.3-.7-.7-1-.4-1.3 1-2 .1-2.8-.7-.9-.8-1.8-1.6-1.2-3.1.2-.6-.2-1.1-.7-1.4zm31.9 24-4.3-4.3c-1.5 2.8-1.5 3.4.6 5.3.4.4.9.7 1.2 1.1 5.4 5.4 10.8 10.8 16.2 16.3 2 2 2.4 1.9 4.8.1l-16.3-16.3c-.1.9-.3 1.5-1.2 1.4-.9-.2-1.6-.8-2-1.6-.4-1.2.5-1.5 1-2zm-61 11.9c1.1 1.4 2.6 2 4.3 2.3 3.2.7 6.4.3 9.5-.6 6.8-2.1 12.8-5.5 18.6-9.6 2.4-1.7 4.5-3.8 6.5-5.9 1-1.1 1.5-2.4 1.6-3.9.1-1.6-.6-2.8-2-3.5-.3.5-.2 1.1-.1 1.6.4 2.6-.9 4.6-2.6 6.2-1.4 1.3-2.8 2.6-4.3 3.8-6.4 4.8-13.4 8.6-21.3 10.6-3.4.8-6.9 1-10.2-1zM339.1 558.8l.4.4 68.1-68.1c-23.3 22.2-45.7 45.2-68.5 67.7zm28-41.1c-.7-.2-1 .4-1.4.7-3.5 2.7-6.4 6-9.5 9.1-7.9 7.7-15.6 15.6-23.4 23.3-2.8 2.8-5.7 5.6-8.5 8.5-.5.5-1.3.9-1.1 1.8.7.3 1-.2 1.3-.5 5.1-4.3 41.7-41.3 42.6-42.9zM480.4 404c1.7.1 2.3-.8 3.1-1.6 5.5-5.5 11-10.9 16.5-16.4l21.4-21.4c.5-.5 1.3-.9 1.2-1.8-.5-.2-.9 0-1.2.3-13.6 13.6-27.2 27.1-41 40.9zm77 142.4c-.4-.3-.7-.1-1 0-3.1.6-5.8 2.2-8.7 3.2-1.7.6-3.4 1.3-5.2 1.8-.9.3-1.1.8-.8 1.6.6 1.6 1.1 3.3 1.8 4.9.5 1.3.9 1.4 1.9.4 4.1-3.9 8-7.9 12-11.9zm-81.5 62.1c1.4.9 2.9 4.4 4.8 2.9l5.9-5.9c1.1-1.8-2-3.5-3.2-4.6-.3-.2-.8-.1-.9.4-.3 1-.4 1-.5.9-1.3-1.4-2-.3-2.8.5-.7.7-1.3 1.4-2 2-1.5 1.1.1 3-1.3 3.8zm-18.6 9.3c.6.3.9-.1 1.2-.4 1-.9 1.9-1.9 2.9-2.8l31.5-31.5c.5-.5.9-.9 1.3-1.4.2-.2.3-.6 0-.8-.2-.1-.5-.1-.6.1l-2.2 2.2c-11 11.6-24 22.5-34.1 34.6zm-64.7-100.9-1.2 1.2c-2.6 2.6-2.6 2.6.1 5.1.4.4.9.7 1.3 1.1.8.8 1.3-1.8 2.2-.2 0 0 .3-.1.4-.2 1.7-1.9 3.9-3.2 4.7-5.9.4-1.3-2.3-4.7-3.7-4.5-.5.1-.8.5-1.2.8l-2.6 2.6zm31-75.4c.1.1.2.2.3.2 2.1-2.7 4.3-5.3 6.4-8l8.7-11.1c2.1-2.7 4.4-5.3 6.4-8.1 2.1-3 4.6-5.5 7.4-7.7 4.1-3.1 8.1-6.4 12.2-9.6 2.8-2.2 5.6-4.4 8.5-6.6 2.3-1.8 4.6-3.6 6.9-5.5.4-.3.9-.6.8-1.3-2.2.6-3.3 2.4-4.9 3.5-2.6 1.8-5.1 3.9-7.5 5.9-4.1 3.2-8.2 6.4-12.1 9.7-3.4 2.9-7.4 5.2-10.1 9-3.5 4.7-7.3 9.2-10.9 13.9-3 3.8-5.8 7.8-8.9 11.5-1.3 1.5-2.2 2.9-3.2 4.2zm-45 180.5 2.7 2.4c.6.5 1.2.6 1.7-.1.9-1.4 2.2-2.6 2.6-4.2.5-1.7.2-3.2-1.2-4.3-1.3-1.1-2.8-1.5-4.5-.8-1.3.6-2.4 1.5-3.6 2.3-.8.6-.8 1.3-.2 2 .8 1 1.6 1.9 2.5 2.7zm201.7-86.6c-2.4.4-3.7 2.3-5.2 3.9-8.5 8.5-17.1 17-25.6 25.5-.6.6-1.9 1.4-1.3 2 .9.8 1.5-.6 2.1-1.2 9.7-9.6 19.3-19.3 28.9-28.9.5-.4 1-.7 1.1-1.3zm-174.7-83.1c.1.3.1.5.2.6 2.8 3.2 5.5 6.4 8.3 9.6 2.2 2.5 3.1 6.4 1.3 9.3-.8 1.2-1.5 2.4-2.4 3.6-2.6 3.4-5.2 6.7-7.8 10-.4.5-.8 1-.5 1.7.8.1 1.2-.3 1.6-.9 1.1-1.5 2.3-3 3.5-4.6 2.1-2.7 4.2-5.4 6.1-8.2 4.1-5.2.5-10.7-3.5-14.7-1.6-1.8-3.4-3.3-4.8-5.4-.3-.7-.8-1.4-2-1zm134.5 110.1c-2.4-2.4-4.5-4.4-6.5-6.5-.5-.5-1.1-.9-1.9-.7-2 .7-4.1 1.3-6.1 2-.8.3-1 .8-.3 1.4 1.6 1.3 2.8 3.9 5.2 2.9 2-.7 4.1-.6 6.1-.1.9.3 2 .6 3.5 1zM392.7 462h8.5c.5 0 1-.2 1.1-.7.4-2.9.4-5.8.4-9.2-3.5 3.4-6.6 6.5-10 9.9zm-9.4 81.3c3-1.9 35.9-35 36.8-36.8-12.5 12.5-24.6 24.7-36.8 36.8zm136.2 40.6c8.1-7.2 18.9-18.3 19.6-20-1.8-1-3.7-1.5-5.7-1.6-2-.1-4 .4-5.5 1.8-2 1.9-3.8 3.8-5.8 5.7 1.7-1.4 3.3-3 4.9-4.5 2.1-2.1 3.2-2.1 5.6-.3.3.2.6.5.9.8 1.5 1.5 1.5 2.5 0 4.1-1.6 1.6-3.2 3.1-4.7 4.7l-9.3 9.3zM401.7 483.1c-2.1 1.3-31.1 30.4-31.7 32 10.6-10.3 21.1-20.7 31.6-31.1.2-.2.3-.5.1-.9zm84 134.1-45 45c15.1-15 30.6-29.4 45-45zm-142.8.8c2-3.4.3-8.4-2.3-10.5-.5 1.5-1.5 2.5-3.2 2.6.5 1 1 1.8 1.3 2.6.3.9.4 1.9.5 2.8.1.5 0 1 .7 1 1.3-.1 2.1.8 3 1.5zm-74.2-42.8c-1.2-1.2-2-2.3-3.2-2.9-.2.2-.4.3-.4.4-.3.8-.8 1.3-1.8 1.2-1.7-.1-2.5-2.7-.8-3.5 1.3-.3 0-1.9-.9-1.5-4.4 2.3 2.4 6.1 3.9 8.3 1.7 1.1 3.2 4.7 5.4 4 .6-.5 1.4-.9 1.4-1.8-.9-3.5-2.2-.5-4-.5-2.5-.5-2.5-3.8.4-3.7zm255.8-264.5c.2-.9-1-1.3-.5-2.2.8-1.5 1-3.4 3.2-3.7.5-.1 1-.7 1.5-1.1 1.2-1.2 2.4-2.4 3.6-3.5 2-2 4.1-4 6.1-6.1.5-.5 1.2-1 .6-2-.4.3-.6.5-.9.7-5.3 5.3-10.6 10.5-15.8 15.9-.3.3-.4.8 0 1.1.6.3 1.1 1.2 2.2.9zm97.7 182.8c1-.4 1.5-1.2 2.1-1.8 4.7-4.8 9.4-9.5 14.2-14.3 0 0 .1-.1.1-.2v-.2c0-.1-.1-.1-.1-.2-.7-.2-1 .3-1.4.7L623 491.6c-.5.4-1.2.8-.8 1.9zm39.4-90.7 2.2-2.2c.6-.6.9-1.3.2-2-.8-.8-1.5-.8-2.3-.1-1.5 1.5-3 3-4.5 4.6-.7.7-.5 1.4.2 2.1.6.6 1.3.6 1.9 0 .7-.8 1.5-1.6 2.3-2.4zM392.2 665.1c1.5 2 1.8 4.1 2.1 6.3 4.6-2.1 5.1-5 1.2-8.9-.5 1.4-1.4 2.5-3.3 2.6zm266.5-182.2c.6-1.2.9-2.1 1.4-2.9.5-.9 1.4-1.5 2.3-2.1 1.7-1.6-2-2.5-3.2-2.4-1.8.1-3 1.3-2.8 3.1.1 1.6.9 3 2.3 4.3zm22.8-107.1c-3.9 2-9.6 7.8-10.1 10.4 2.9-.8 9-7.1 10.1-10.4zm-148.4-71c-3.3 2.6-3.3 2.7-.7 5.4l.3.3c2 2 2.2 2 4.1 0 .3-.3.6-.5.6-1.2-1.8-.9-3.4-2.3-4.3-4.5zm-87.9 296s.1 0 0 0c.9-1.3 4-2.6 2.7-4.4-.6-.7-1.3-.5-1.9.1l-5.1 5.1c-.6.6-.6 1.3 0 1.9.6.5 1.2.4 1.7-.1 1-.9 1.8-1.8 2.6-2.6zm3.8 2.5c0-.1 0-.1 0 0 .6-.7 1.3-1.4 2-2.1 1.2-1-.5-2.9-1.6-1.9-1.9 1.7-3.5 3.6-5.6 5.1-.3.2-.4.7-.3 1.1.2.5.6.7 1.1.7.7 0 1.4-.3 2-.7.8-.7 1.6-1.5 2.4-2.2zm14.5-14.6c.8-1.2 3.9-2.6 2.3-4.2-.7-.6-1.3-.4-1.9.2l-4.5 4.5c-1.4 1.1.6 3.3 1.8 1.9.7-.9 1.5-1.6 2.3-2.4zm5.7-9.4-2.4 2.4c-1.5 1.1.7 3.2 1.8 1.8 1.6-1.6 3.2-3.2 4.7-4.8.5-.6.5-1.1-.1-1.7-.5-.5-1.1-.6-1.7-.1-.7.8-1.5 1.7-2.3 2.4zm-8.9 6.4 2.7-2.7c.4-.5.4-1-.1-1.5-.4-.5-.9-.6-1.5-.2-2 1.5-3.6 3.3-5.3 5.1-.5.6-.3 1.2.3 1.7.5.4 1 .4 1.5-.1.8-.7 1.6-1.5 2.4-2.3zm-7.5 7.5s.1 0 0 0c.9-.8 1.7-1.7 2.6-2.5.4-.5.5-1 .1-1.5-.5-.6-1.1-.8-1.7-.3-1.7 1.6-3.4 3.3-5.1 5.1-.4.4-.4 1 0 1.5.5.6 1.1.6 1.7.1.9-.8 1.7-1.6 2.4-2.4zM569.1 309s-.1 0 0 0c-1.3-1.2-2.5-2.5-3.7-3.7-.5-.5-1.1-.8-1.7-.2-.6.6 0 1 .4 1.4 2.2 2.7 4.8 4.9 7.3 7.2.5.4.9 1 1.6.2.5-.6.1-1-.3-1.4-1.3-1.2-2.5-2.3-3.6-3.5zm-85 255.5c-.8.8-1.6 1.5-2.4 2.3-.5.5-.6 1.1-.1 1.7.5.5 1.1.7 1.7.2 1.6-1.5 3.2-3.1 4.7-4.7.5-.5.3-1-.1-1.5-1.4-1.5-2.7 1.2-3.8 2zm-16.4 13.8 2.7-2.7c.4-.4.4-.8.1-1.3-.4-.5-.9-.7-1.4-.5-.4.1-.7.4-1 .6-1.3 1.2-2.5 2.4-3.7 3.7-.3.3-.6.8-.8 1.2-.2 3.6 3.1.3 4.1-1zm11.9-9.3-5 5c-.6.6-.8 1.4-.2 2.1.8.8 1.4.2 2-.4l2.7-2.7c1.2-1.1 2.1-1.4.5-4zm-4.3 1.7 2.4-2.4c.6-.6.7-1.2.1-1.9-.6-.6-1-.1-1.6.2-2 1.1-3 3.3-4.7 4.7-2 3.8 2.9 1.4 3.8-.6zM460 514c1.5-.1 2.3-.7 3.2-1.1 3.4-1.7 5.1-4.7 6.3-8 .2-.5.5-1.1-.3-1.4-.6-.2-1.1 0-1.4.6-1.3 4.2-3.9 7.3-7.8 9.9zm-8.8 83.6c1.4-.2 2.4.8 3.4-.1 1.3-1.2 2.5-2.4 3.7-3.7.6-.6.5-1.3-.1-1.9-.6-.5-1.2-.3-1.7.2-1.7 1.6-3.5 3.2-5.3 5.5zm9.1 42.8c2.4-1.9 2.4-1.9.6-3.9l-.5-.5c-1.7-1.9-.3-4.1 1.4-5.5 3.1-3.2 6.3-6.3 9.4-9.5-2.6 2-4.9 4.3-7.2 6.6-1.5 1.5-3 3-4.6 4.5-.7.6-1 1.3-.8 2.1.6 2 .7 4.1 1.7 6.2zM400 555.1l2.5-2.5c1.1-.9-.5-2.5-1.5-1.4-1.7 1.7-3.4 3.3-5.1 5-.5.5-.7 1.1 0 1.7.5.4 1.1.2 1.5-.2l2.6-2.6zm82.6 8.4c.7-.7 1.5-1.4 2.2-2.2 1.5-1.1-.5-3-1.6-1.7-1.6 1.4-3.1 2.9-4.4 4.7-.9 1.1.7 2.4 1.6 1.4.7-.7 1.4-1.5 2.2-2.2zm-57.5-28c.9-.9 2-1.6 2.7-2.7.3-.5.2-.9-.1-1.3-.4-.4-.9-.4-1.3-.1-1.8 1.7-3.5 3.4-5.2 5.2-.9.9.6 2.3 1.5 1.4.8-.8 1.6-1.7 2.4-2.5zm-8.7 5.8c-.9.8-1.7 1.7-2.5 2.5-1.2 1 .5 2.7 1.5 1.5l4.9-4.9c.4-.5.5-1 0-1.5s-1-.4-1.5 0c-.9.8-1.6 1.6-2.4 2.4zm-1.4-1.2 2.5-2.5c.4-.5.4-1-.1-1.5-.4-.4-.9-.3-1.3 0-1.7 1.7-3.4 3.3-5.1 5-1.1.9.5 2.5 1.4 1.5.9-.8 1.8-1.6 2.6-2.5zm7.4-7.3c.8-1.2 3.6-2.4 2.6-4-.6-.6-1.2-.4-1.7.1-1.4 1.2-8.4 7.6-3.2 6.1.8-.7 1.5-1.5 2.3-2.2zm-12.2 17.6c.8-.9 1.8-1.8 2.6-2.7.8-.8-.6-2.2-1.4-1.4-1.8 1.7-3.5 3.4-5.2 5.2-1 1 .8 2.4 1.6 1.3.9-.8 1.6-1.6 2.4-2.4zm-2.7-2.7c-.1 0-.1 0 0 0l2.5-2.5c.4-.5.5-1 .1-1.5-.5-.5-1-.5-1.5 0-1.7 1.7-3.4 3.3-5 5.1-.4.5-.4 1 .1 1.5.5.4 1 .3 1.5-.1.7-.9 1.5-1.7 2.3-2.5zm-1.2 7c-.7-.4-1.5.2-1.8-.7-.2-.6-.6-.3-.9 0-1.5 1.2-8.3 7.8-3 6l1.2-1.2c1.4-1.2 2.6-2.8 4.5-4.1zm-68.2 50.2c-3.5-2.4-5.3-1.9-7 1.9 1.6.3 3.1.6 4.4 1.7.5-2.2.5-2.2 2.6-3.6zm66.7 40c-.1.1-.3.2-.4.4l16.3 16.3c-4.9-6-10.6-11.2-15.9-16.7zm23.9-121.3c-.1 0-.1 0 0 0-.8.8-1.6 1.5-2.4 2.3-.4.4-.9.8-.4 1.4.5.6 1.1.7 1.7.2 1.7-1.6 3.3-3.2 4.9-4.9.9-3.4-3-.3-3.8 1zm11.2-2.6c.8-.8 1.6-1.7 2.4-2.6.4-.5.4-1-.1-1.5-2.4-.7-4.2 3.6-6.2 4.8-.8.9.8 2.3 1.5 1.3.9-.6 1.6-1.3 2.4-2zm-4.1-4.5c0-.1 0-.1 0 0-1.6.8-4.4 5.3-.8 3.7 1.5-1.4 2.9-2.9 4.4-4.4 1.3-.9-.4-2.7-1.4-1.5-.8.7-1.5 1.4-2.2 2.2zm-162-47.4c0-.2.2-.4.2-.6v-5c.2-1.6-2.5-1.6-2.4 0-.1 1.7-.1 3.4-.1 5 0 .5.3.9.9 1 .5-.1 1 0 1.4-.4zm160.1 54.7-4.9 4.9c-.4.5-1 .9-.4 1.6.6.7 1.3.5 1.9-.1.9-.9 1.8-1.8 2.8-2.6 1.2-1.1 1.6-2.2.6-3.8zM553.8 381l-.4-.4c-2.9 1.1-5 3.3-7 5.5-.3.4-.6.8-.2 1.3 2.9.1 5.1-4.7 7.6-6.4zM412.1 537.6c.7-.7 1.5-1.4 2.2-2.2.4-.4 1.1-.9.6-1.6-.6-.7-1.1 0-1.6.4s-.9.9-1.4 1.3l-2.7 2.7c-.5.5-1.3 1.1-.7 1.8 1.5.9 2.6-1.8 3.6-2.4zm-7.4 7.4c.7-.7 1.4-1.3 2-2 .4-.5 1.3-1 .6-1.7-.6-.6-1.1.2-1.6.6-1 1-2 2-3.1 3l-1 1c-2.2 3.5 2.3.7 3.1-.9zm15-15c.9-.9 1.8-1.8 2.6-2.7.3-.3.3-.7-.1-1-.3-.2-.6-.2-.9 0-1.9 1.7-3.7 3.4-5.3 5.4-.3.3-.3.8.1 1.1.4.3.8.1 1.1-.2.8-.9 1.6-1.8 2.5-2.6zm29.4-13.9c2.9 1.3 6.1 1.8 9.3 1.5 1.3-.1.8-2-.3-1.8l-9 .3zm15.3-88.2c2.9 2.9 4.9 6.1 4.9 10.3 0 .2.1.5.2.7.2.4.6.5 1 .4.3-.1.6-.3.6-.7 0-.4-.1-.8-.1-1.2-.5-3.3-2.3-5.9-4.5-8.3-.5-.5-1.1-1-2.1-1.2zm-64.7 238.6c.8-4.4-6.3-11.2-10.9-10.5 5.1 1.9 9.1 4.9 10.9 10.5zm4.3-177.3c3.6.6 22.1.8 24.2.4-3.2-.5-22.3-.8-24.2-.4zM331.4 631c1.3-1 2.4-2 3.2-3.2-2.7-2-2.7-2-4.1-.6-1.1 1.1-1.1 1.1.9 3.8zm48.5-101.2-.1-.1c-3.3 3.3-6.6 6.7-10 10-2 1.9-3 2-5.2.3-.5-.4-.9-.9-1.5-1.2-.7-.4-1.3-.1-1.6.5-.3.6.3.8.8 1 1.3.4 2.6.8 3.9 1.3 1 .4 1.8.2 2.6-.6 3.7-3.7 7.4-7.4 11.1-11.2zm91.8-35c-.6 1.2-.5 2.6-.5 3.9.2 5.2-1 9.9-5.3 13.4 6.5-4.2 6.3-10.8 5.8-17.3zM645 403c1.3 3.1 1.8 8.3 6 6.2-2.4-1.5-2.9-4.7-6-6.2zM341.4 621.1c-1.2.1-2 0-2.7-.6-.7-.6-1.1-.3-1.6.2-1.9 1.1-.7 3.2.8 4 1-1.1 2.1-2.2 3.5-3.6zm3.6-9.1c-.3-5.1-5-10.5-9.1-10.4 4.4 2.4 7.7 5.6 9.1 10.4zm183.5-298c.5.6 1 1.2 1.6 1.7.4.4.9.3 1.3 0 .3-.3.5-.7.3-1.1-1.1-1.6-2.4-2.9-4-4-.7-.4-1.7.6-1.2 1.3.5 1 1.3 1.5 2 2.1zm-48.6 246.6s.1 0 0 0c.8-.7 1.5-1.4 2.3-2.1.3-.4.6-.8.3-1.3-.4-.5-.9-.3-1.3 0-1.6 1.6-3.2 3.1-4.7 4.7-.3.3-.4.8 0 1.1.4.3.8.1 1.1-.1.8-.7 1.5-1.6 2.3-2.3zm-27.5-137.2c0 .2 0 .4-.1.6 3.1.3 6.2.5 9.4.8h.2c.2-.1.4-.3.5-.4 0-.2-.1-.5-.2-.6-.3-.2-.7-.4-1.1-.4-2.9-.6-5.8-.7-8.7 0zm-81.2 244.4-.3.3c-2 1.1 1 4.3 2.2 2.2l.8-.8c1.4-1.4-1.3-3.9-2.2-2.2-.2.2-.3.4-.5.5zm286.7-251c.2-.8-.1-1.4-.6-1.8-1.5-.7-3.1-3.6-4.8-2.7-.5.6-.4 1.2.1 1.7 1.5 1.3 3.1 2.5 5.3 2.8zM425.6 521.9c-.8.7-3.7 3.5-1.2 3.2 1.5-1.4 2.9-2.9 4.4-4.3.6-2.8-2.5.2-3.2 1.1zM394 555.4c2-1.4 3.3-3 4.8-4.5.1-.1.1-.1.1-.2.6-.7-.3-1.6-1-1-1.1 1.1-2.3 2.2-3.4 3.4-.4.4-.8 1.1-.5 2.3zm147.8 2.9c.1-.1.2-.2.4-.2-.4-1.3-.8-2.5-1.2-3.8-.1-.4-.3-.9-.6-1.3-.4-.6-1.9-.4-2.5.3-.6.6 0 1 .3 1.4l3.6 3.6zm-99.5 39.4c.9-1 1.9-1.9 2.8-2.9.5-.5-.3-1.2-.8-.7-2 1.8-3.9 3.7-5.7 5.7-.1.2-.2.4-.1.7.2.3.6.3.8.1 1.1-1 2-2 3-2.9zm15.4 37.5c-.3-.3-.5-.3-.7-.1-.4.3-.7.7-.6 1.2.4 1.9.8 3.9 1.2 5.8.2.9 1 .5 1.3-.1.3-.3.1-.8.1-1.2-.3-1.6-.6-3.3-1-4.9-.1-.2-.3-.5-.3-.7zM540 310.7c.7-1.1 3.2-2.1 2.7-3.5-.4-.3-.8 0-1 .3-1.7 1.7-3.4 3.3-5 5-.3.3-.5.7-.1 1 1.2.2 2.2-2 3.4-2.8zm-5-10.8c-1.7.5-5.6 4.3-6.2 6.1 1.8-.4 5.6-4.3 6.2-6.1zM434.2 515.5c.7-.6 1.4-1.3 2.1-2 .3-.3.8-.8.4-1.2-.5-.6-1.1-.2-1.5.2-1.1 1.7-4 3.3-4 5.3.3.2.6.2.8-.1l2.2-2.2zm22.4 66.3c-.6.8-4.4 3.6-2 3.5 1.9-1.7 3.7-3.5 5.3-5.4.6-.6-.4-1.3-.9-.6-.7.8-1.5 1.6-2.4 2.5zm188.3-174.4c-1.2-5-1.2-5-.2-7.5-2.2-.5-3.1.2-2.6 2.2s1.2 3.8 2.8 5.3zm8 8.6c1.7 1.9 4 2.7 6.3 3.7.7.3 1.6.2 2.4.2.5 0 .9-.3 1-.8.1-.5.2-1-.2-1.4-.5-.4-.9.1-1.2.3-1 .7-2.1.6-3.2.3-1.9-.5-3.5-1.4-5.1-2.3zM461.5 577.8c.2.2.5.2.7 0 1.9-1.6 3.5-3.4 5.3-5.2.2-.2.4-.5.2-.8-.3-.4-.7-.2-1 .1-1.7 1.7-3.4 3.4-5 5.1-.4.2-.4.5-.2.8zm37.7 15.1c.1 0 .1.1.2.1l17.3-17.3-.1-.1c-5.9 5.7-11.6 11.5-17.4 17.3zm42.2-300.6c1.3 2.6 6.9 8 8.5 8.5l-8.5-8.5zm169.7 160.2c.6-.6 1.2-1.3 1.7-1.9.2-.3.2-.6 0-.9-.3-.4-.7-.4-1.1-.2-1.3 1-2.4 2.1-3.4 3.4-.3.4-.2.8.2 1.1.3.2.6.2.9 0 .6-.5 1.1-1 1.7-1.5zM327.3 570.7c3.4-2.2 8-7.1 8.2-8.2-2.7 2.8-5.4 5.5-8.2 8.2zm119.5 22.5 5.4-5.4c.3-.3.8-.7.3-1.2-.4-.3-.8 0-1 .3l-3.9 3.9c-.6.6-.8 1.3-.8 2.4zm-118.3 40.6c-1-.3-2.1-2.5-3.2-1.4-2 .7-.6 2.3.7 3.1.7.5 1.2.1 1.7-.4.2-.4.6-.7.8-1.3zm142.4-66.4c-.6.9-2.2 1.6-2.1 2.7.3.5.8.3 1.2 0 1.6-1.1 2.7-2.9 4.2-4.2.3-.5-.3-1.2-.8-.8-.9.8-1.7 1.5-2.5 2.3zm-116.5 28.1.1-.1-15.8-15.8-.1.1 15.8 15.8zm-3.5 3.2s0-.1.1-.1l-15.3-15.3-.1.1 15.3 15.3zm150.8-25.6c-2.2 1.2-3.3 3.4-5.1 4.9-.2.1-.1.5.2.6.2.1.5 0 .7-.1 1.5-1.5 3.2-2.8 4.4-4.6 0-.2-.1-.4-.2-.8zm-29.1-129.9c1.3-3.9.1-9.2-2.5-11.4 2.6 3.4 2.3 7.4 2.5 11.4zM560 299.9c-.6-.6-.8-.9-1.1-1.1-.8-1.3-2.3-.1-1.4 1.1.6.8 1.2 1.7 2 2.3.7.8 1.9-.2 1.4-1.1-.3-.6-.8-1.1-.9-1.2zm19.6 19.9c-.7-1.2-1.7-2.1-2.8-2.9-.6-.5-1.8-.1-1.6.6.2 1 1 1.6 1.8 2.1.8.6 1.6 1.2 2.6.2zm-209.5 369 1-1c1-.7-.1-1.8-.9-1.1-.9.7-1.7 1.4-2.5 2.2-.8.8.5 1.9 1.2 1.1.5-.4.8-.8 1.2-1.2zm-2.8-15.5c-2.5-2.3-2.7 4.1.3 2.8.9-.7.8-1.6-.3-2.8zM340.4 584c0-.1 0-.1 0 0-.7-.6-1.4-2.3-2.5-1.8-.3 1.3 2.9 4.8 4.2 4.3.5-1.1-1.2-1.8-1.7-2.5zM328 573c-.3-.4-.8-.5-1.3-.4l-3 .6c-.4.1-.9.1-.9.6 0 .6.5.9 1 .8 1.3-.1 2.7-.4 4-.6.4-.2.4-.6.2-1zm-7.4-9.1c-1.8.8-3 2.1-4.1 3.6-.1.1 0 .3 0 .4.1.2.4.3.6.1 1.4-1.2 2.9-2.3 3.5-4.1zm359.5-183c.8 3.3.5 3.6-2.7 3.3-.1.9.7 1.6.2 2.7l4.5-4.5c.1-.1.1-.3.2-.4-.8-.4-1.5-.8-2.2-1.1zM641 474.3c1.9-.8 3.5-2.5 3.9-4.1-1.9.8-3.5 2.5-3.9 4.1zM315.2 634.1c.5-.6 1-1.1 1.4-1.7.1-.1 0-.4-.1-.6 0-.1-.3-.2-.4-.1-1.1.8-2.2 1.6-3.2 2.4-.7.5.2 1.7.9 1.2.5-.4.9-.9 1.4-1.2zm141.2-243.4c-1-2.2-4.1-5.2-6-6l6 6zm78.2-87.9c-.4 2 .4 3.1 1.5 4.1 1.1.9 2 1 3.6.4-2.7-.2-3.7-2.3-5.1-4.5zM313 632c0 .1 0 .1 0 0 .6-.6 1.1-1.1 1.6-1.7.5-.6-.5-1.4-1-.8-.9 1-1.7 2-2.6 3-.5.5.4 1.4.9.8.3-.4.7-.8 1.1-1.3zm357.9-240.3c1.5-1.1 2.6-1.8 3.6-2.6.3-.3.2-.7-.1-1.1-.3-.3-.8-.6-1-.3-.9 1.1-2 1.9-2.5 4zm-146-31.3c1.4-.5 2.4-1.6 3.4-2.8.2-.2.1-.5-.1-.6-1.6.1-2.8 1.9-3.3 3.4zm-97.3 139.2c-.1-.1-.2-.2-.4-.3-1.5 1.5-3.2 2.9-4.2 4.9l4.6-4.6zm116.7 72.1c.3-.7 1.9-1.2 1.1-2.1-.6-.6-1.4.7-1.9 1.2s-1.7 1-.9 1.8c.5.7 1-.5 1.7-.9zm-17.4-264.6c2.4 2.9 4.9 5.6 7.9 7.9-2.6-2.7-5.2-5.3-7.9-7.9zm-76.3 317.2c1.6-1.2 3.5-2 4.4-4.6-2 1.5-3.4 2.9-4.4 4.6zm-74.1-74.2c2.8-1.9 3.4-2.6 4-4l-4 4zm76.6-130.3c-1.2 1.3-2.6 2.1-3.2 3.7 1.2-1 4.4-1.6 3.2-3.7zM386 555.4c-1-1.7-2.3-3.1-4-4 .9 1.7 2.3 3 4 4zM369.4 684c-1.7.8-2.7 2-3.6 3.3-.1.2-.1.5.1.6.2.1.5.2.6 0 1.1-1.1 2.3-2.1 2.9-3.9zm-17.8-88.5c-.5-.5-.7-2-1.6-1-.8.8 1.6 3 2.5 2.5.4-.3.2-.7-.1-1-.3-.3-.6-.4-.8-.5zM665 397.4c1.2-.2 1.8-1.2 2.6-1.9.2-.2.4-.6.1-.8-1.3-.6-1.9 1.9-2.7 2.7zM540.3 303c1 .6 1.3 1.4 2.3 1.4.4-.7.7-1.4.2-2.3-.8 0-1.5.5-2.5.9zM436.9 666.2s-.1-.1 0 0c-2.2 2-4.2 4.1-6.3 6.1l.1.1c2-2.1 4.1-4.1 6.2-6.2z"/><path d="M309.5 582.7h.8c1.6 1.1 3.1 3.3 1.3 4.9-3.8 2.9-6.4-3.5-2.1-4.9zm-.7 2c-.4.7-.4 1.4.2 1.9.6.6 1.3.6 1.9 0 1.2-1.2-1-3-2.1-1.9zM417.8 689.6c1.4.5 2.2 1.6 2.4 3.1l-1.2 1.5c-.8 1-1.8 1.2-3 .8-1-.4-1.4-1.2-1.5-2.2 0-1.2.4-2.2 1.6-2.6.6-.3 1.2-.5 1.7-.6zm-1.6 1.9c-.6.7-.5 1.8.1 2.1.7.4 1.4.4 2-.1 1.1-1.1-.9-3.5-2.1-2zM583.6 358.9c1 .3 1.7.5 2.5.8.1 0 .1.3.2.5-1.1.4-2.2-.4-3.2.3-.9.7-1.5 1.7-2.2 2.5-.6.7-1.9.9-1.8 2.1.1 1.1 1.1 1.7 1.9 2.4 2.4 2.4 4.9 4.8 7.3 7.3.5.5 1.3 1 1.4 1.8-.4.2-.6.1-.8 0-2.8-2.8-5.7-5.6-8.3-8.5-2.7-5.4-12.6.6-4.3.2 1.8-.5 3.4-.2 4.8 1.2 2.2 2.4 4.6 4.7 6.9 7 .3.3.7.7.7 1.2-.8.6-1.2-.1-1.6-.5-2.3-2.2-4.5-4.5-6.8-6.8-1.4-1.3-2.9-1.5-4.4-.7-2.7 1.5 1.4 2.9.4 5-.3 1.2.7 2 1.8 1.5s1.8-.2 2.5.5 1.4 1.4 1.1 2.7c-.5 2.1.2 2.6 2.4 2 .1 0 .3 0 .5.1-.6 2.4-1.9 2.9-3.5 1.3-1.5-1.4-3-2.9-4.3-4.5-1.3-1.5-2.8-2.3-4.7-2.6-.8-.1-1.7-.2-2.5-.9.8-.6 1.5-.2 2.2-.1.6 0 1.1.2 1.7.2.7 0 1.2-.4 1.4-1.1.2-.6-.2-1-.6-1.4-.5-.5-1.2-.8-1.7-.2-2.1 2.9-3.4-1.8-5.5-.1-.7.6-1.2 1.5-2.3 1.4-.2-.8.4-1.1.7-1.4 9.5-9.6 19.1-19.1 28.7-28.7 1.4-1.4 3-2.1 4.9-2.1.6 0 1.3.2 2-.2-2-2 1.1-5.6 3.3-3.2l1.2 1.2 29 29c.2.2.4.3.5.5.7.9 2.1 1.5 1.2 3-.9 1.5-1.9 1.8-3.8 1.2-.4.5-.2 1.1-.2 1.6 0 2.2-.8 4.1-2.3 5.6l-28.2 28.2c-.3.3-.6.6-.9.8-.2.1-.5.2-.6.1-.4-.2-.2-.5-.1-.8.1-.1.2-.3.3-.4.5-.7 1.5-1.1 1.6-2 .1-1-.9-1.4-1.4-2.1-.7-.9-.2-1.5.4-2.1.7-.6.9-1.3.2-2.1-.4-.4-.8-1.2-1.5-.9-.7.3-1.3.9-1.2 1.9.1 1 .7 2.1.1 3.5-.8-1.2-.9-2.3-1.1-3.4-.2-1.2-.8-2.2-1.7-3.1-2-1.9-4-3.9-6-5.9-1.3-.8-1.3-2.2.1-2.4.3-1.4 1.8-1.8 2.4-2.9.1-.3.5-.4.8-.2.3.2.3.6.1.9-.7.9-1.1 2-1.4 3-.4 1.3.5 2.3 1.8 1.8 2.1-.8 4.5 1.5 3.4 3.4-.5 1.1.6 2.5 1.6 2.2 2.2-1.2 3.8 3.3 5.1.2.7-1.6.6-3.1-.7-4.4-2.4-2.3-4.8-4.7-7.1-7.1-.5-.5-1.3-1-1.1-2 1.1-.1 1.5.7 2 1.2 2.3 2.3 4.6 4.7 7 6.9 1.7 1.6 2.2 3.3 1.3 5.4-.6 1.4 0 2.1.9 2.9.7.5 1.3.4 1.4-.4.5-2.5.9-4.9-1.5-6.8-1.5-1.2-2.9-2.5-4.1-4.2.9-.1 1.3.5 1.7.9 1.3 1.2 2.5 2.5 3.7 3.7.8.9 1.6.8 2.5 0 .8-.9 1.7-1.7 2.6-2.5 1.2-1.2 1.3-2.2.6-3.6-.3-.6-1.1-1-.9-1.8 1.9.8 2 .9 2.7 4.4.9.2 1.2-.6 1.7-1.1 3.6-3.6 7.2-7.2 10.8-10.9 2.1-2.1 2-5-.2-7.2l-15.6-15.6c-2.8-2.8-5.6-5.7-8.5-8.5-2.6-2.6-5-2.6-7.7 0l-10 10c-.7.4-1.3.9-1.7 1.9zm-8.8 5.5c1.5-.1 2.7.2 3.7-.7 1.4-1.3 3-2.5 3.3-4.5.1-.6.5-1.2 1-1.6 4.1-4.1 8.2-8.3 12.4-12.4 2.2-2.2 5.3-2.2 7.6-.1 2.6 2.3 5.1 4.8 7.6 7.3s4.8 5.3 7.4 7.7c3.5 3.3 6.8 6.7 10.2 10.1 3.3 3.3 2.3 6.5 0 8.9-3.4 3.6-7.1 7.1-10.7 10.6-.8.8-1.7 1.6-2.7 2-1.9.7-3.1 2.2-4.5 3.5-1 1-1.2 2.1-.8 3.4.7-.1.9-.6 1.3-.9l17.6-17.6c.5-.5 1-1 1.4-1.6 3.1-13.6-19.2-22.5-26-33.5-2.6-2.7-7-2.5-9.3.1-3.2 3.6-6.7 6.8-10.1 10.2-3 2.8-6 5.8-9.4 9.1zm59.6 6.2.4-.4c-10.2-10-20.5-19.9-30.3-30.4-.4-.4-.9-.9-1.8-1 10.6 10.8 21.2 21.3 31.7 31.8zm-30.1 32.6c3.1-3.6-4.2-2.7-2.2.3.7.7 1.3.6 2.2-.3zm-32.2-32.4c.9-.9.9-1.6.2-2.2-1-.8-1.6 0-2.2.6-.7.6-.9 1.3-.2 2 1 1 1.6.3 2.2-.4zm42.1-18.5c2.5 2.7 5.2 5.3 7.8 7.9l.1-.1c-2.6-2.6-5.2-5.2-7.9-7.8zM625.1 330c-.9.9-1.9 1.7-2.7 2.7-.8.9-1.6 1.3-2.7.9-.7-.2-1.5-.4-2 .3-1 1.5-2.6.9-3.9 1.4-.6.2-1.1-.2-1.5-.6-1.5-1.3-1.7-4.2-.4-5.7.5-.5 1.1-1 1-1.8-.3-1.5.6-2.5 1.6-3.5 1.8-1.7 3.5-3.5 5.3-5.3 1.2-1.2 2.3-1.4 3.6-.3.8.7 1.5.9 2.6.8 1.2-.1 1.9.8 1.6 2 0 2.5 3.3 3.6.5 6-1 1-2.1 2-3 3.1zm.8-9.3c-3.8 2.2-6.6 5.3-9.5 8.4-.4.5-1.3 1.4-.6 2 .2.1.5.1.7 0 .3-.1.5-.4.8-.5 3.8-2.4 6.1-6.3 8.6-9.9zM692.2 396.6c1.1.9 1.6 2 1.7 3.4.2 2.4-1.2 3.8-3.5 3.5-2.5-.3-4.6-2.4-4.9-4.9-.7-4.2 4.6-4.7 6.7-2zm-.9 1.4c-.9-.9-1.9-1.3-2.2-.8-.5.8.2 1.3.6 1.9.6 1 2.6 1 2-.5-.1-.3-.3-.5-.4-.6zm-4.1-1.3c-1 2.8 1.6 5.6 4.5 5.3-3.8-1.9-3.7-2.3-4.5-5.3zM605.2 308.3c1.9 1.8 2.2 4.2 1.1 5.7-1.5 2-4.9 1.8-6.6-.5-.6-.8-1-1.6-1.1-2.6-.4-2.7 1.4-4.5 4.1-4 .9.3 1.9.7 2.5 1.4zm-.7 1.6c-1.5-1.8-3.5.1-1.6 1.6.2.2.5.4.7.6.4.3.9.3 1.3-.1s.3-.9 0-1.3c0-.4-.2-.6-.4-.8zm-3.8-1.4c-1.3.8-1 1.9-.6 2.9.7 1.6 1.9 2.6 3.9 2.5-3.1-1.7-3.4-2.2-3.3-5.4z"/><path d="M622.4 374.3c1.1-1.2 2.1-2.1 3.5-.6 1.3 1.3 1.4 1.7.4 3-.5.6-1 1.1-1.5 1.5-1.4 1.3-2.1 1.3-3.2.2-1.2-1.2-1.2-2 .1-3.5.2-.2.4-.4.7-.6zm2.1 2.5c.7-.7 1.8-1.5.9-2.5-.5-.5-1-.3-1.5.1-.2.2-.5.4-.7.7-.5.7-1.8 1.3-.9 2.3 1.1 1.1 1.7-.2 2.2-.6zM596 348.4c1.4-1.5 2.7-2.5 4.1-.4.6.7.7 1.4 0 2.1-.7.7-1.3 1.4-2 2-1.1 1-1.8 1-2.9 0-1.1-1-1.1-1.6-.1-2.8.3-.4.6-.7.9-.9zm2.4 2.3c.4-.4.8-.8 1-1.1.5-.7 0-1.6-.8-1.8-1.9-.2-4.7 4.2-1.2 3.8.3-.3.7-.7 1-.9zM608.6 382.7c-1.7-1.2-3.1-2.6-4.5-4.4 2 .5 4 2.5 4.5 4.4zM596.6 383.6c1.8 1.4 3.5 2.8 4.6 4.7-1.9-1.2-3.4-2.9-4.6-4.7zM454.7 662.4 443 674.1c-1.1 1.1-2.4 2.1-2.8 3.8-1.6 1.6-4 2.5-5.5 4.4-1 .9-1.7.9-2.5.1-1.8-1.5.4-3.1 1.5-4.3.8-.9 1.7-1.5.9-3-.6-1.1.7-2.4 1.8-1.9 1.6.8 2.4-.1 3.3-1l12.7-12.7c9.3-9.2 18.6-18.5 27.9-27.7.8-.8 1.3-1.5.9-2.7-.5-1.7.2-2.6 1.8-1.9 1.1.4 1.7.1 2.3-.5 5-5.1 10.2-9.9 15.2-15 2.6-2.7 5.5-5 8-7.9 1.8-2.1 4-3.9 5.9-5.8 4.3-4.3 8.6-8.6 12.9-12.8.7-.7.9-1.5.4-2.3-.9-1.1.9-2.8 2-1.9 3.1 1.9 4.8-6.4 7.8-3.2.8.8.8 1.5.1 2.3l-2.7 2.7c-.6.6-1.3 1.2-1.6 2.1-.1.4-.3.7-.7.9-3.6 2.1-6.1 5.4-9 8.2-8.8 8.7-17.5 17.6-26.3 26.2-3 2.9-5.7 6.1-9 8.6-.3.2-.6.6-.7.9-.9 1.5-1.9 2.7-3.6 3.6-1.4.8-2.7 2.3-3.7 3.6-1.3 1.7-3.1 2.9-4.6 4.5-1.9 2-3.8 4.1-5.8 6-2 1.9-4.1 3.8-6 5.8-3 3.2-6 6.2-9.2 9.2.1.1 0 0 0 0zm-15.3 12.8c.1 0 .2.1.2.1.2 0 .3 0 .4-.1.4-.3.7-.6 1.1-.9 14-14 28-28.1 42-42.1l.1-.2c0-.3-.3.1-.3-.3-2.5 2.7-5.5 4.8-8.1 7.3l-33.9 33.9c-.5.5-1 1-1.5 1.6-.2.1-.3.4 0 .7zm46.2-46.4.5.5c14.3-14.6 29.3-28.6 43.7-43.1.2-.2.4-.5.2-.9-.3-.2-.6-.2-.8 0-14.6 14.5-29.1 29-43.6 43.5zm50.7-50c-1.8.7-2.9 2.1-4.1 3.5-.1.2-.1.5.1.6 1.7-.3 3.3-2.4 4-4.1zM433.1 681.7c1.7-.9 2.6-2.1 3.6-3.2.1-.2.1-.5-.1-.6-.1-.1-.4-.1-.4 0-1.2.9-2.6 1.7-3.1 3.8zM593.4 541.3c.3-.5.9-.9 1.5-1.3 1.8-1.2 3.8-.7 4.8 1.2.3.5.5 1.1.1 1.6-.5.6-1.1.4-1.7.1-1.8-.9-1.8-.9-3 .3-.8.8-1 1.5-.1 2.4.5.5.9 1.3.1 1.9-.6.5-1.2.1-1.7-.3-2.3-1.6-2.5-3.3-.5-5.2.1-.3.2-.5.5-.7zM628.5 511.1l.2.2c.4.7 1.6 1.2.8 2.2-.7.9-1.6.3-2.2-.3-1.1-1-1.8-.2-2.6.5-.8.8-1.1 1.5-.2 2.4.2.2.4.5.5.8.3.9-.3 1.6-1.3 1.4-2.2-.4-3.3-3.1-1.9-4.8.7-.9 1.5-1.6 2.3-2.4 1.7-1.8 2.6-1.8 4.4 0zM608.3 526.7c.3-.3.5-.6.8-.9 1.9-2 4.6-1.3 5.5 1.2.4.9-.5 1.8-1.4 1.4-.2-.1-.4-.2-.6-.4-1.5-.8-3-.2-3.5 1.3.3 1.5 2.3 5.1-1 3.1-2.3-1.8-2.3-3-.3-5.1 0-.1.2-.4.5-.6zM447.8 518.6c.5 1.3-.6 1.9-1.3 2.6-5.1 5.2-10.3 10.3-15.4 15.4-7.5 7.5-15.1 15-22.6 22.5-2.1 2.1-1.4 6.8 1.3 8.2.6.3 1 0 1.5-.3 2-1.3 2.2-1.3 3.8.4l1.2 1.2c3.1 2.1-1.6 3.9.6 6 2.9 2.9 5.8 5.7 8.6 8.7.8.9 1.5 1.1 2.7.3 1.6-1.1 2-1 3.3.3 1.5 1.5 3.9 2.9 1.8 5-.8 1-.6 1.7.3 2.4 3.1 2.5 6.1 1.7 8.2-.4 6.7-6.8 13.4-13.5 20.2-20.2 6.4-5.9 12.1-12.9 18.8-18.3.6.6.2.9-.1 1.3l-1.2 1.2-36.1 36.1c-1.5 1.5-3.1 2.7-5.3 2.9-1.9.2-3.7-.3-5.1-1.7-.9-.9-1.7-1.2-2.9-.2-1.6 1.7-2.9.1-4.1-1.2-2-2-2-2-.6-4.6.4-.7.3-1.2-.2-1.7-.7-.8-1.4-1.5-2.2-2.2l-6.8-6.8c-.9-.9-1.6-1.1-2.7-.2-1.5 1.2-2 1.1-3.5-.3-.3-.3-.6-.6-.9-.8-2-2-2-2-.5-4.5.5-.8.2-1.4-.3-1.9-1-1-1.7-2.1-2.1-3.4-.8-2.6.3-4.9 2.2-6.6l39-39c.2-.2.3-.2.4-.2zm-33 50.2c-.2-.3-.4-.5-.6-.7-.8-1.2-2.3-.6-1.9.8 0 2.8-.1 2.8 2.8 2.3 1.9-.1.6-1.7-.3-2.4zm17 17-.6-.6c-.5-.5-1-1.2-1.8-.9-1 .4-.3 1.2-.3 1.9 0 .4-.2.8-.2 1.2 0 .3.1.8.4.8 1.1-.1 2.2-.2 3.2-.4.4-.1.3-.7.1-1-.4-.6-.7-.9-.8-1zm-21.4-16c-.8.5-1.7 1-1.4 2 .4 1.2 1.4 2.2 2.6 2.6 1.2.5 1.7-.8 2.5-1.6-3 .4-3.5-.4-3.7-3zm16.7 16.6c-3.6 1.8 1.3 7.1 3.2 3.3-2.5 0-3.1-.6-3.2-3.3zM492.3 563.6l-44.9 44.9-.4-.4c14.9-15.1 29.9-29.9 44.8-44.9.2.1.3.3.5.4zM600.3 506c-2.3 2.2-4.6 3.4-7 4.6-4.4 2.3-9 4.2-13.4 6.3-7.9 3.7-15.8 7.3-23.6 11.1-4.8 2.3-10.1 3-15.4 2.7-6.5-.3-12.6-2-18.7-3.9-8.9-2.7-17.9-5.3-26.9-8-3.8-1.1-7.5-2.1-11.3-3.3-5.5-1.7-7.8-5-7.6-10.7.2-4.2.2-8.5.3-12.7.2-10.9.5-21.7.7-32.6.2-8.6.4-17.3.5-25.9.1-5.5 2.8-9 8.2-10.3 12.2-3 24.3-6.1 36.5-9 4.5-1.1 8.9-2.4 13.5-3 8.5-1.1 16.6-.3 24.4 3.9 10.9 6 22 11.6 33.1 17.3 2.1 1.1 4.2 2.4 6 3.9 3.1 2.4 4.6 5.6 4.5 9.6l-.3 13.4c-.2 12.6-.4 25.2-.7 37.8 0 3.5-.5 6.7-2.8 8.8zm-.9-66.8c-.8-.9-1.7-1.6-2.6-2.2-4.2-2.8-8.8-4.9-13.2-7.3-7.7-4.1-15.5-7.9-23.1-12.2-7.5-4.3-15.6-5.5-24.1-4.1-5.8.9-11.4 2.5-17 3.9-11 2.8-22 5.4-33 8.1-4.5 1.1-6.4 3.2-6.5 7.9-.3 10.2-.5 20.4-.7 30.7-.1 7.4-.2 14.9-.4 22.3l-.3 9.3c-.1 3.6-.2 7.2-.1 10.8.1 3.7 1.6 5.6 4.9 6.9 1.3.5 2.6.9 3.9 1.2 11.3 3.3 22.7 6.7 34 10 6.4 1.9 12.6 4 19.4 4.3 4.9.2 9.7-.3 14.3-2.3 3.4-1.5 6.8-3.2 10.2-4.8 11.3-7.6 33.1-8.7 36-23.9-.1-5.1.2-10.2.3-15.3.1-6.5.3-13.1.4-19.6.1-5.4.3-10.9.3-16.3.1-2.9-.4-5.5-2.7-7.4zM557.5 409.8c-.2.3-.5.9-.9 1.4-.5.6-1.1.9-1.9.5-.8-.5-.7-1.2-.3-1.9.1-.2.3-.4.4-.6 2.6-3-3.3-2.7-2.1-5.5.4-.8 1-1.1 1.8-.8 1.3.6 2.6 1.1 4.1 1 .5 0 1 .3 1.1.8.5 1.3 1.8 1.8 2.9 2.4l35.4 19.2c1.2.6 2.3 1.5 3.6 0 .6-.7 2 .1 1.8 1.1-.3 1.4.5 2 1.5 2.6 1.1.6 1.5 1.8.7 2.8-.6 1-1.8.4-2.6-.1-1.1-.8-2-.7-2.6.7-.3.8-1 1.2-2 .7-.9-.5-.6-1.2-.4-1.9.7-1.9.7-1.9-1.1-2.8-9.8-5.3-19.5-10.5-29.3-15.8l-7.8-4.2c-.9-.5-1.6-.7-2.3.4zm1.8-2.4c13.1 7.4 26.4 14.6 39.8 21.4-2-1.8-38.1-21.2-39.8-21.4zM551.4 536.3c.3-.2.7-.4 1-.6 1-.5 1.5-1.2.8-2.3-.2-.3-.2-.6-.3-.9-.2-.8 0-1.5.8-1.8 2.1-.7 1.6 2.7 3.4 2.6.8-.1 1.6-.7 2.4-1.1 8-3.8 16-7.7 24-11.5 4.3-2.1 8.7-4.1 13-6.1 1.6-.7 1.6-.9 1.1-2.5-.1-.4-.3-.7-.4-1.1-.3-1.4 1.9-2.3 2.5-.9l.3.6c.8 1.6.8 1.6 2.6.9 1.5-.6 2.3-.4 2.8.7.3.6.3 1.3-.4 1.7-1.2.7-2.5 1.3-2.8 2.9-.8 2-3.1-.9-4.4.6-5 2.4-9.9 4.8-14.9 7.2-5.5 2.7-11.1 5.3-16.6 7.9-2 1-4 1.9-6 2.9-1 .5-2 .8-2 2.3 0 .9-1.2 1.4-1.8 1-1.4-.9-2.4-.3-3.6.2-.8.3-1.4.1-1.8-.7-.6-.8-.5-1.5.3-2zm47.1-21.5c-13.1 6.3-26.1 12.5-39.2 18.8-.6.3-1.4.5-1.8 1.1 0 .1-.1.1-.1.2v.2c1.9-.4 40.1-18.8 41.1-20.3zM610.9 497.1c-.9.8-2.6.4-2.7-.7.5-2.8-2.7-1.4-3.1-3.3 0-.7.3-1.4 1.1-1.3 1.9.1 1.9-1.1 2-2.4.1-6.1.3-12.1.4-18.2l.3-14.6c0-1.3.2-2.5-1.6-2.9-1.1-.2-1.1-2 .1-2.3 1.3-.4 1.8-1.1 1.9-2.3.2-1.6 3.1-1.4 3.1.2.1.9.1 1.7.8 2.4.6.6.6 1.6-.2 2.1-.9.7-.8 1.5-.8 2.4-.2 8.6-.3 17.2-.5 25.9 0 2.5-.1 4.9-.2 7.4 0 .6-.2 1.4.1 1.9 1.1 1.9-.6 3.5-.4 5.3 0 0-.2.3-.3.4zm-1.5-5.8h.7c.3-10.3.5-20.7.8-31 0-2-.1-4-.1-6 0-.1-.1-.1-.2-.2-.3-.1-.1.3-.5-.5-.2 13-.5 25.3-.7 37.7zM523.6 406c1.3-1.4 3.3-1.1 5-2-.6-.9-1.6-.4-2.2-.8.6-.6 1.3-.6 2-.5 3.4 1.1-1 3.2-2.7 3.2-.7.1-1.4.4-2.1.1zM519.6 533.4c-1.1.2-1.8-.2-2.6-.2-.7-.1-1.4-.2-.9.9.1.2-.1.4-.4.4-.1 0-.3-.1-.4-.2-.3-.5-.5-1-.2-1.6.3-.6.9-.8 1.4-.6.9.5 2 .3 3.1 1.3zM462.6 696.2c.6.5.5 1.1.2 1.7-1.3 2.2-2.5 4.4-3.8 6.6-.9 1.5-3.7-.1-3-1.6 1-2.2 2.3-4.2 3.4-6.3.8-1.4 2-1.5 3.2-.4zm-5.1 7.2c1.9-1.5 2.9-3.5 3.9-5.5.3-.7-.8-.9-1-.4-1.3 1.7-2.4 3.6-2.9 5.9zM551.5 286.9c1.2.3 1.8-.4 2.5-1.1 1.5-1.5 3-2.9 4.6-4.4.1.1.2.2.3.4-1.7 1.7-3.4 3.5-5.2 5.2-.8.9-.9.8-2.2-.1zM340.5 665.2c-1.7-2.1-6.2-4.4-3.6-7.4.3-.4.6-.7.9-1.1.8-1.1.9-2.2.3-3.5-1.8-4.3-2.1-8.8-.8-13.3 2.2-7.3 8.4-11.3 15.3-11.6 7-.3 12.9 2.5 17.7 7.5 4.6 4.8 7.2 10.5 7 17.3-.2 4.2-1.7 8-4.6 11-2.1 2.3-5 3.6-8.1 4.4-4.3 1.1-8.4.6-12.4-1.1-1.6-.7-2.7-.6-3.8.7-.2.3-.6.6-.9.8-2.8 2.5-5-2.1-7-3.7zm16.6 2.1c-.9-1.1-1.4-2.2-.6-3.2.6-.8 1.5-.6 2.2-.2 1.5.8 1.8 2.1.9 3.8 3.7.3 6.7-.7 9.6-2.4 1.8-.5-1-2.3.7-2.4 1.5.1.8-1.8-.3-1.9-.7-.1-.7.4-.8.9 0 .3-.1.7-.7.5-.5-.8-.4-1.6.4-2.2.7-.5 1.9-.2 2.6.5.6.5.4 1.5 1.2 1.9 2.5-3.4 3.9-7 3.5-11.3-2.1 1.1-3.6.7-4.1-.9-.5-1.4.4-2.5 1.8-2.2.6.1 1.3.4 2 .7-.6-4.3-2.6-7.7-5.1-10.8-3.6 3.7-6.7-.2-2.7-2.8-3.3-2.6-6.8-4.7-11.1-5.3 1 2.3 1.1 3.3.1 3.7-2.4.9-4.5-1.8-2.1-4.1-4.3-.2-8.2.7-11.7 3.6 1.6.5 2.8 2.4 1.9 3.6-.6.9-1.5.8-2.9-.1-1.3-.9-1.8-.8-2.6.7-1.3 2.8-2.1 5.6-1.8 8.8 2.7-1.5 5 .4 4 2.7-.4.7-1.2.8-1.9.6-.5-.1-1.1-.5-1.6-.7.1 1.7.6 6.2 2.8 4.9 2.1-1.3 2.3-1.2 3.9.4 2 3.3 10 6.4 7 10.6-.5.8-.3 1.2.4 1.5 1.7.5 3.1 1.1 5 1.1zm-14-4.7c-1.7-1-3.3-5-5.4-3.7.6 2.8 6.3 9.2 9.3 8.9.7-2.1-2.9-3.5-3.9-5.2zm2.9-2.9c1.2 1.2 2.3 2.4 3.5 3.6 1.1 1.4 2.8-.3 1.5-1.5-2.3-2.4-4.7-4.8-7.1-7.1-.5-.5-1.2-1-1.9-.2-.6 2.1 3 3.5 4 5.2zm-4.5-2.5c-.5-.4-1-1.8-1.9-.8-.7.8 2.1 3.7 3 2.7.7-.9-.5-1.3-1.1-1.9zM363.3 692.7c.9.9 1 2.2.3 3-1.6 1.9-5.3-1.5-3.5-3.3.7-.9 2.2-.7 3.2.3zM326.8 656.3c1 1 1.2 2.4.4 3.2-4.1 2.7-5.3-6.7-.4-3.2zM336.2 665.6c2.2 2.3-1 4.9-2.9 2.6-2.1-2.3.9-4.9 2.9-2.6zM317.7 647.2c1 1 1 2.5.2 3.2-1.8 1.4-4.9-1.9-3.1-3.6.7-.8 2-.6 2.9.4zM353.8 683.2c1 .9 1.1 2.2.4 3-1.7 2-5.1-1.2-3.4-3 .7-.9 2.1-.9 3 0zM305.7 640.8c-1-.9-1.2-2.2-.5-2.9 2-1.8 5.1 1.4 3.4 3.3-.6.7-1.9.5-2.9-.4zM344.6 674c3.8 4.8-5.9 4.1-2.8-.2.7-.7 1.9-.6 2.8.2zM264.3 597c1.2 1.4 1.1 3.5-.2 4.8-3.2 3.3-8.5-2-4.8-5 1.6-1.3 3.8-1.2 5 .2zm-3.8 1.6c-2.1 1.8.4 3.6 2 1.8 1.5-1.3-.6-3.4-2-1.8zM297.8 635.3c-3.1 3.1-8.2-1.7-4.9-4.9 3.3-3.3 8.3 1.5 4.9 4.9zm-.9-4c-1-1-2.1-1.1-3.1 0-2.1 2.2 1.1 5.1 3.2 3.2 1-1 .9-2.2-.1-3.2zM400.1 742c-1.2-1.3-1.2-3.8.1-5 3.5-3.2 7.9 1.7 5.2 5.1-1.3 1.2-4 1.2-5.3-.1zm4.3-3.9c-5.4-3.7-4.8 6.5.2 3 .7-.8.7-2.1-.2-3zM371.4 708.4c-3.5 3.6-7.9-1.6-5-4.9 3.1-3 8.5 1.7 5 4.9zm-.8-4c-.8-.9-2.3-.9-3.2-.1-2.2 2 1.3 5.3 3.3 3.5.8-.7.8-2.5-.1-3.4zM335.3 546.2c-.4.4-.8.8-1.3 1.1-2 1.8-6.1-.3-5-2.9.3-.3.7-.3 1.1-.2.2.1.5.2.6.4.8 1 1.5.9 2.4 0 1.9-1.4.6-2.2.1-3.9-.1-1 .6-1.5 1.5-1.1 2.3.9 3 3.3 1.6 5.3-.2.5-.6.9-1 1.3zM501 364.2l-2.7-2.7c-1.3-.8-.4-2.8 1-2.7 2.9.5 4.8-1.2 6.6-3.1.6-.6 1.2-1.2 1.8-1.9 1.5-1.5 1.5-1.5.5-3.3-.6-1.1-.4-1.8.7-2.3.9-.4 1.9-.8 2.9-1.2 2-.6 3.6.1 5 1.5 1.3 1.4 2 3.1 1.1 4.8-2 2.4 3.6 4.7 1.3 6.3-1.3 1-2.1-.2-2.8-1-3.4-3.4-2.9-2.5-5.7.1-1.7 2.1-5.1 3.7-4.4 6.9.2.7-.3 1.2-.8 1.6-.7.4-1.2.1-1.7-.4-1-.8-1.9-1.7-2.8-2.6zm8.6-6.2 2.2-2.2c.6-.7.3-1.3-.2-1.9-.6-.6-1.2-.8-1.9-.2l-4.2 4.2c-.7.8-.4 1.4.3 2.1 1.4 1.5 2.6-1.1 3.8-2zm5.9-8.9c-.7-.8-1.8-1.1-3-.9-1.2.2-1.6.8-.7 1.7 1.1 1.2 2.2 2.3 3.4 3.4.7.7 1.1.2 1.4-.5.5-1.2.2-2.5-1.1-3.7zm-13.7 11.1c.8.9 1.5 1.6 2.1 2.3l.2.2c2.6.8-.3-3.2-2.3-2.5zm15.8-2s0-.1 0 0c-2.5-2.7-5.1-5.3-7.8-7.9l-.1.1c2.7 2.6 5.3 5.2 7.9 7.8zM389.7 592.6l9-9c1.7-1.7 2.4-1.7 4.2 0l12.9 12.9c1.9 2 1.9 2.5-.1 4.5-7 4.2-14.4 20.5-22.2 17.6-3-5.3-16.9-11.3-12.6-17.3 2.9-2.8 5.8-5.8 8.8-8.7z"/><path d="m407.7 610.6 9-9c1.7-1.6 2.4-1.7 4 0 4.1 4.1 8.2 8.1 12.2 12.2 1.9 1.9 1.8 2.7-.1 4.6-5.8 5.8-11.6 11.6-17.5 17.4-5.9 4.1-11.6-9-16.7-11.9-1.9-1.9-1.9-2.4 0-4.3 3.1-3.1 6.1-6.1 9.1-9 0-.1 0 0 0 0zM388.7 592l-8.8 8.8c-1.8 1.8-2.4 1.8-4.2.1l-12-12c-1.8-1.8-1.7-2.4 0-4.2 6-6 12-12 18-17.9 1.7-1.7 2.4-1.7 4.2 0 4 3.9 7.9 7.9 11.9 11.9 1.8 1.8 1.7 2.6-.1 4.4-3 2.9-6 5.9-9 8.9zM372.1 575.3l-8.8 8.8c-1.8 1.8-2.6 1.8-4.4 0-2.8-2.7-5.6-5.5-8.3-8.3-1.8-1.8-1.8-2.6.1-4.4 5.7-5.8 11.5-11.5 17.3-17.3 1.1-1.2 2.9-2.5 4.3-1 3.1 3.1 6.3 6.2 9.3 9.3 1.2 1.3 1.1 2.2-.2 3.5-1.8 1.9-3.7 3.8-5.6 5.6-1.2 1.3-2.5 2.6-3.7 3.8zM437 640.1c-4 2.3-8.5 12.9-13.1 9l-8.1-8.1c-1.9-2-1.9-2.5.1-4.5 5.9-5.9 11.8-11.7 17.6-17.6 1.9-1.9 2.5-1.9 4.4-.1 2.1 3.6 11.7 7.8 8.5 12.1-3.2 3-6.3 6.1-9.4 9.2zM418.3 478.1c.7-.8 2.7-.9 3.6-.2 3.4 3.7-5.8 4.2-3.6.2zM432.7 477.9c.6.7.5 1.8-.2 2.3-1.7 1.4-5.4-.3-3.5-2.5.8-.9 2.9-.7 3.7.2zM432 458.8c.7.8.6 1.8-.2 2.5-.9.8-2.8.7-3.5-.2-.6-.8-.5-1.6.2-2.3 1-.9 2.7-.9 3.5 0zM421.5 458.4c2.9 3.9-6.5 3.7-3.7-.1.9-.9 2.8-.8 3.7.1zM518.3 384.9c.7-.9 1.5-1.3 2.3-1.5.6-.1 1.3.1 1.6.7.3.6-.5.6-.8 1-1 1.6-1.2 1.6-2.6.3l-.5-.5zM421.7 733c.1-.2.2-.5.4-.8.6-.9 1.4-.9 2.3-.6.9.3 1.2 1.1 1.2 1.9 0 1-.7 1.3-1.6 1.5-1.2.9-5-1.2-2.3-2zM429.2 739.7c-2.6.5-3.7-.2-5.9-3.5 1.7-.4 2 1.6 3.4 1.8.6-1.9 3.7-2.5 3.5.5-.9.1-1.2-1.8-2.1-.8-.6.8.9 1.2 1.1 2zM699.9 438.9c.2.3.5.6.6.9.2.4.2.8-.2 1.1-.6.5-1.4 0-1.9-.4-.6-.5-1.3-1.2-.6-2 .8-.9 1.4-.2 2.1.4zM555.9 516.4c-10.3 10.5-26.9 10.2-36.5-1.4-.9-1-1.6-2.2-2.2-3.4-.7-1.3-1.6-1.8-3-1.9-4.2-.2-4.4-.4-4.4-4.6 1.3-4.6-2.8-15.4 3.7-16 2.1.1 3.5-.5 4.7-2.4 3.2-5 7.8-8.5 13.6-10 8.7-2.3 16.5-.5 23.1 5.7 6.2 5.8 8.6 13 7.3 21.3-.8 5-2.7 9.5-6.3 12.7zm-12.6-38.5c.4.2.9.4 1.3.6 3 1 5.6 2.5 8.2 4.4 1.7 1.3 2.5 3.2 4.7 4.7-2.2-3.5-4.9-5.7-7.9-7.5-2-1.2-4-2.2-6.3-2.2-1.4-.7-2.9-.8-4.4-.8-5.8-.1-11 1.7-15.5 5.4-2.2 1.8-3.9 4-4.4 5.8.5-.2.7-.6 1-1 3.7-5.2 8.6-8.3 15-9.3 2.8-.6 5.5-.2 8.3-.1zm15.8 24.8c-1.7.1-3.3.2-5 0-2.2-.3-2.5-.8-2.3-3.2.2-1.7.8-2.1 2.8-2 1.1.1 2.2.1 3.3.1 1.2.1 1.4-.5 1.2-1.5-.1-.3-.2-.6-.2-.9-2.4-9.9-12-17.1-21.9-16.4-7 .5-12.2 3.8-16.4 9.2-.2.2-.2.6-.1.9.3.3.7.3 1.1.3 2.9.3 3.6.9 3.6 3.9l-.3 13.4c-.1 2-1 3.1-3 3.4-.6.1-1.3-.2-1.7.5 3.4 7.4 13.4 12 22 10.3 9.4-1.7 16.5-9.5 16.9-18zm-43.6-12.1c-.9-.5-1.9-.3-2.9-.2-1 .1-1.1 1-1.2 1.8-.1 4.6-.3 9.2-.3 13.8 0 2.2 1.5 3.2 3.6 2.5.2-.1.4-.2.4-.5 0-.8-1-.6-1.5-.8-.7-.2-1.3-.6-1.3-1.5 0-1 1-.6 1.4-1 .1-.1.3-.1.4-.2 1.1-.1 1.1-.9 1.2-1.7.1-1-.5-1.1-1.3-1.2-1.3-.2-1.7-.9-1.4-1.9.3-1 1.1-.7 1.8-.8 1.9-.3 1.6-2.9-.2-2.8-1.3-.2-1.2-1-1-1.9.2-.9.9-1 1.6-1.2 1-.5 1.4-1.7.7-2.4zm8.2 14.4c0-.3.1-.7.1-1.1l.3-11.3c.4-2.4-4.4-3.6-4.2-.8 0 .6.3.6.8.5 1.3-.2 1.5.6 1.3 1.6-.1.6 0 1.3-.6 1.7.9 1.1.1 1.1-.7 1.3-1.1.3-1.2 1.4-.4 2.3.1.1.6 0 .5.3-.5 1.4.9 2.8 0 4.2-.3.5-.5 1.2.2 1.4.8.3 1.7.7 2.7-.1zm10.3 17.2c8.4 1.9 15.4-1 21.5-6.7 3.5-3.3 6.2-11.2 5.2-14.3-.5 12.2-12.1 23.2-26.7 21zm-14.4-15.9c0 1-.6 1.9.4 2.3.9.4 2 .3 3-.2.5-.2.6-.7.6-1.2 0-.6-.5-.7-1-.8-.9.1-1.9 0-3-.1zm-1.3 4.4c2.3 4.2 5.2 7.7 9.8 9.5-4-2.4-7.2-5.6-9.8-9.5zm-.4-4.3c-.3-.2-.6-.3-.9-.1-.5.4-.6 1.9 0 2.4.2.2.6.3.9.1.5-.4.5-1.9 0-2.4zM522.4 458.4c-1.6-1.6-2.9-3.3-3.8-5.1-.8-1.7-2-2.4-3.8-2.3h-.7c-2.4-.1-3.2-.8-3.2-3.2 0-4.8.2-9.6.3-14.4.1-5.4 7-1.5 8.8-6.3 6-8.4 14.4-11.5 24.5-9.6 11.5 2.2 19.4 12.8 19.1 23.9-.1 6.2-2.4 11.3-6.1 16-1.5 1.8-3.5 3.2-5.6 4.5-8.7 5.2-18.8 4.7-26.9-1.4-.9-.6-1.9-1.3-2.6-2.1zm-8.6-14.8c.7 1 .4 2.7 2 2.2.7.1.7-.5.7-1 0-.6.2-1.3-.2-1.9-.8.2-1.7-.4-2.5.1-.2-2.4-.2-2.7 1.7-2.8 1.9.3 2-3 .1-2.8-.8 0-1.4-.2-1.4-1.2.1-.8.1-1.6 1.1-1.8 1.4.2 2.4-2 1.3-2.8-1-.4-2-.3-3.1-.1-.9.2-.9 1-.9 1.7-.1 4.5-.3 9.1-.3 13.6 0 2.5.9 3.2 3.4 3.1.4 0 .8-.1.9-.6 0-.5-.4-.6-.8-.6-2-.1-2.2-.7-2.2-2.6-.1-.8-.1-1.7.2-2.5zm46.8-4.9c0-.2-.1-.4-.1-.6-1.7-11.4-11.9-19-22.8-18-6.3.6-11.2 3.5-15.1 8.3-1.1 1-.8 2.5.9 2.1 2.3.2 3 .9 3 3.4 0 4.7-.1 9.4-.2 14.1 0 .3 0 .6-.1 1-.3 1.4-1 2.1-2.4 2.3-.8.1-1.6-.2-2.3.4 2 6.4 12.1 12.1 21.3 10.6 10.5-1.7 17.5-10.5 17.4-17.9-1.6-.1-3.2-.1-4.8-.2-1.9-.1-2.4-.7-2.5-2.5 0-1.9.6-2.6 2.6-2.7 1.7-.1 3.3-.2 5.1-.3zm-40.9 13.6c5.3 10.1 17.7 14.3 28 10.6 11.5-4.2 16.2-16.7 14.4-23.8.4 14.3-8.1 21.4-16.3 23.8-8.1 2.2-19.1.3-26.1-10.6zm1.3-11.7c1-.2 1.9-.4 2.7-.3 1 .1 1.5-.4 1.4-1.4 0-1.5 0-3 .1-4.5.1-2.5-.7-3.2-3.1-2.8-.7.1-1 .4-1 1.1 0 .6.2.8.9.8 1-.1 1.4.6 1.4 1.5v2.1c0 .7-.3 1.3-1.1 1.2-1.7-.1-1.5 1-1.3 2.3zm20.8-22c8.9 1.4 15.2 6.1 19 14.4-1.5-6.1-10.5-14.7-19-14.4zm-21.7 10.8c6.5-7.3 5.2-6.3 14.3-10.5-6.3 1.5-11.3 4.7-14.3 10.5zm4.7 12.7c-2.7-1.7-2.5 1.7-2.4 3.4 0 .3.3.6.5.7 1 .7 2.1.1 2.1-1.1 0-1 .3-2.1-.2-3zm-.2 5.6c-.8-.9-5.8.7-3 2.4.8.1 1.6.2 2.3-.1.9-.4 1.3-1.8.7-2.3zm-5-16.2c-.3-.2-.7-.3-1.1 0-.5.4-.4 1.8 0 2.2.3.3.8.3 1.1 0 .5-.4.5-1.8 0-2.2zm-.1 8.3c-.4-.3-.8-.3-1.1 0-.5.4-.5 2 0 2.4.3.2.6.2.9 0 .5-.4.6-2 .2-2.4zm-.2 8.3c-.3-.3-.8-.5-1.1-.2-1 .7-.3 3.1 1 2.1.6-.6.4-1.3.1-1.9zM589.4 452.7c.7.5.8 1.2.4 1.8-1.1 2.8 3.3 4.5 4.6 6.6.8.8 1.5 1.5 2.9.9 1.1-.5 1.5.6 1.8 1.4 1.3 3.3 2 6.7 1.7 10.3-.2 2.5-.8 4.9-1.9 7.1-.5 1.1-1 2.1-2.5 1.5-.8-.3-1.3.2-1.9.7-1.4 1.2-2.6 2.6-4.1 3.6-.9.6-1.6 1.4-1.2 2.6.2 1-.4 1.4-1.2 1.8-5.9 2.6-11.9 2.9-17.9.3-1-.4-1.9-1-1.4-2.3.3-.7 0-1.2-.4-1.8-1.3-2-3.1-3.6-4.8-5.3-1.2-1.1-3.1.2-3.5-2-2.4-5.7-2.6-11.3 0-16.9.3-.7.6-1.3 1.1-1.8.7-.7 1.3-.1 2 0 .6.1 1.1-.3 1.4-.7 1.5-1.5 3-3.1 4.6-4.6.6-.6.9-1.3.7-2.1-.3-.9.2-1.5 1-1.9 6.1-2.5 12.1-2.4 18.1.4.2.2.4.4.5.4zm-20.6 31.6c1.1.4 1.9 1.3 3.4 1.6 1.5.3 3.1 1.4 4.6 2.1.5.2.8.6 1-.2.1-.4.5-.3.7 0 .2.3.4.7.9.5 2.1-.8 5 1 6.5-1.9 1.6.2 2.2-1.4 3.6-1.9 1.6-.6 3-1.9 3.5-3.8.2-.8.7-1.5 1.3-2 1.1-1 1.4-2.1 1.2-3.6-.2-1.3-.6-2.8-.1-3.9.5-1.3.1-2.3-.1-3.4s-1.3-1.9-.5-3.2c.3-.4-.4-.8-.7-1.2-1.7-2.6-4.4-4.3-6.5-6.7-.6-.7-1.6-1-2.6-1.1-.5-.1-1 0-1.2-.9-.1-.7-1-.6-1.2-.1-.5 1.7-1.1 1.5-2 .4-1.3-2-2.6.3-3.8.1-.7-1.7-1.4-.3-2.2-.1-1.3.2-2.3.7-3 1.9-.1.1-.3.1-.4.2-1.6 1-2.9 2.4-4.3 3.6-1.2.9-2.3 2.4-2.6 3.9-.5 2-1.6 4-.7 6.3.5 1.5-.5 3.1-.1 4.8.4 1.4 1 2.4 1.8 3.5.4.6 2.2.5 1.1 2 0 0 .2.3.3.3 1-.1 1.2.6 1.2 1.4.1.7.5.9.9 1.4zM501.7 502.8c-8.5 9.4-23.7-5.4-13.9-14.3 4.1-4 10.4-4 14.3.2 4.2 4.5 3.4 10.4-.4 14.1zm-10.7-11c-2.2 2.2-2.2 5.5.1 7.7 2.1 2.1 5.4 2 7.5-.1 2-2 2-5.6 0-7.6s-5.7-2-7.6 0zm1.5-4.6c-.1.2-.1.3-.1.4.2.6.4 1.3 1.1 1.4 1.1.2 2.2.3 3.3.1.5-.1.7-.8.8-1.3 0-.6-.5-.7-1-.8-1.4-.4-2.8-.3-4.1.2zm4.6 15.4c-.5-.5-3.8-.6-4.4-.1-.9.7-.8 2 .5 1.9 1.1.2 2.2.1 3.3 0 .4 0 .9-.1 1-.5.2-.5-.2-.9-.4-1.3zm-9.6-12c-.3.3-.6.8-.8 1.4-.2.5-.4 1 .1 1.3.4.2.9.3 1.4.3 1-.2 1.7-2 1.2-2.9-.6-1-1.1-1-1.9-.1zm-.3 9.6c.5.5.9 1 1.5.7.4-.2.8-.5.7-.9-.2-.9-.4-1.9-1.4-2.4-.4-.2-1-.2-1.4.1-.7.7.3 1.9.6 2.5zm15.7-2.3c-.7-.1-1.4-.7-2 .1-.7.9-.8 1.9-.2 2.5.7.7 1.3.4 1.7-.3.3-.7 1-1.4.5-2.3zm-.1-4.5c.3-.2.3-.5.2-.9-.2-.5-.3-.9-.5-1.3s-.4-1-.9-1c-.6 0-.9.6-1.1 1.1-.6 1.4 1 3 2.3 2.1zM485.3 483.2c1.6-3.3 10.6.5 5.2 2.4-.6.3-1.3 1.4-1.6-.3-.1-.3-.7-.1-1 .3-.4.7-.9.5-1.4.1-.8-.5-2.3-1.4-1.2-2.5zM588.9 444.6c-.6-.4-.5-1-.1-1.4.4-.5.9-.9 1.3-1.3.5-.4 1-.6 1.4.1.2.4.5.6.9.6s.4-.3.5-.6c.1-.5.6-.2.7 0 .7.8 2.2.5 2.3 1.8-1 2.2-5.2 3.2-7 .8zM594.3 503c-1 .5-1.9 1.5-3.2.5-1.4 1.4-4.8-1.3-3-2.5.8-.3 2.4-2.2 2.8-.8.1.4.4.7.6.5 1-1 1.7-.1 2.4.3 1.3.5 1.4 1.2.4 2zM487 455c1.9-.4 4.5-.7 6-.7.2.4-.1.8-.5 1-.7.3-1.5.6-2.2 1-1.6.9-2.2.7-3.3-1.3zM362 643.3c-.7-.7-1.4-1.3-2-2-1.1-1.4-.8-3.5.6-4.4.2-.1.5-.2.7-.1.4.1.3.5.2.8-.1.2-.2.3-.3.5.3 0 .8-.9 1 0 .1.3-.3.7-.3 1.1.2 1.8 2.5 2.7 3.6 4 .5.4 1 .5 1.5.3.9-.4 2.6.9 1.7 1.7-.9 1.2-2.8 1.5-4 .6-1.1-.7-1.9-1.6-2.7-2.5-.1.1-.1.1 0 0z"/></svg>