<svg xmlns="http://www.w3.org/2000/svg" xml:space="preserve" baseProfile="tiny" overflow="visible" version="1.2" viewBox="0 0 1000 1000"><path d="M478.7 295.9c-19.9-19.9-39.7-39.8-59.6-59.6l-87.6-87c-2.6-2.6-5.4-5-7.9-7.7-1.6-1.7-2.7-1.4-4.2.1-5.9 6.1-11.8 12.1-17.8 18.1-1.6 1.6-3.3 3.2-4.9 4.9-1.9 2.1-4 3.8-7.1 2.7-.3-.1-.8-.1-1 0-2.3 2.4-3.4.1-4.8-1.1l-2.7-2.4c-2.7-2.5-2.7-2.5-5.4.2-15.7 15.7-31.3 31.5-47 47.2-21.8 21.9-43.5 43.9-65.4 65.8-1.6 1.7-1.8 2.7 0 4.3 1.6 1.4 3 3 4.6 4.5 1 .9 1.6 1.7.2 2.9-1.1.9-1.2 2.1-.6 3.2.8 1.6.1 2.6-1 3.7-7.6 7.6-15.2 15.3-22.9 22.8-1.8 1.7-2 2.8-.1 4.7 35.4 34.9 70.7 70 106 105 27 26.8 54 53.5 81 80.3 30.5 30.2 60.9 60.4 91.4 90.6 10.5 10.4 21 20.8 31.5 31.1 2.4 2.4 2.5 2.4 4.9-.1 9.1-9.2 18.2-18.5 27.3-27.7 2.4-2.4 2.2-3.3 5.1-.2.6.6 1.2 1.7 2.3.6 1.1-1.1.2-1.8-.5-2.5-3.4-3.6-3.3-3.6.1-7l48.6-48.9c1.1-1.1 2.1-2 4-1.4 1.7.5 3.6.2 4.9-1.4.9-1.1 1.7-1.1 2.7-.1 7.5 7.4 15.7 14.1 22.7 22.1 3.4 3.9 7 7.6 9.3 12.4.1.2.3.3.3.4 1.3 6.3 7.6 8 11.2 12.3 2 2.4 5.4 1.7 7.9-.9l6-6.3c2.7-2.9 2.7-5.4-.1-8.3-1.8-1.9-4-3.4-5.3-5.5-1.6-2.7-3.8-4-6.5-5.1-4.2-1.7-7.4-4.9-11-7.8-9.9-8-17.8-17.8-26.7-26.7-1.3-1.3-1-2.1.1-3.3 13.1-13.2 26.1-26.3 39-39.6 1.5-1.5 2.5-1.7 3.9 0 .8 1 1.8 1.8 2.7 2.7.6.6 1.2.5 1.8-.1.6-.6.8-1.1.2-1.8-.1-.1-.2-.3-.3-.4-2.5-3.2-2.5-3.2.5-6.2l25-25c2.6-2.6 2.6-2.7 0-5.3l-56.7-56.4c-22.7-22.5-45.4-44.9-68.1-67.4-10-9.9-19.9-19.9-29.9-29.9.2.2 0 .4-.1.5zm-71.6-20.3c1.4 2 .4 3.3-1.2 4.3-1.9 1.2-3.6.5-4.9-1.8-.8-2.4-.2-4 1.9-4.7 2-.5 3.6 0 4.2 2.2zM256.1 417l3.9 3.9c-2.1.1-3.8-1.8-3.9-3.9-.2.4-.5 1-1.1.4-2.8-2.7-5.6-5.4-8.3-8.1-.4-.4-.7-.9-.1-1.3.7-.5.8.3 1.1.6l8.4 8.4zm13.6-19.8c1.2-1.5 2.8-.6 4.3-.8.6-.1 1.1-.6 1.5.1.3.6-.2.9-.5 1.3-.6.7-1.2 1.4-1.9 2-1 .9-2 1.5-1.9-.7 0-1.1-.9-1.4-1.5-1.9-.7.6-.9 1.3-.4 2.2.3.6.2 1.4-.7 1.1-1.4-.4-4.6 1-3.2-2.7 0-.1-.2-.3-.2-.5-.2-1 .1-1.3 1.1-.9.4.1.8.4 1.2.3.4-.1.8-.4.3-.9.2-.5-.1-1-.4-1-1.6-.1-2.6-.6-2.5-2.4 0-.4-.7-1-1.4-.8-.7.3-.7.9-.4 1.5.3.5.8 1 .2 1.6-.3.3-.8.2-1.1-.1-.6-.6-1.2-.4-1.8-.1-1.4.6-1.8.1-1.1-1.2.3-.6.2-1 0-1.6-.5-1.2 0-1.6 1.2-1.1.7.3 1.4.7 1.5-.4.2-.9-.3-1.5-1.3-1.5-.7 0-1.5.3-1.8-.5-.3-1 .5-1.6 1-2.2.8-.9 1.8-1.7 3-1.7.5 0 .8.7.4 1.2-1 1.3.9 2.8-.4 4.2-.1.2.8 1.8 1.7 1.1 1.4-1.2 2.9 1.1 4.1-.5 0 0 .8.4.7.5-.8 1.7 1.1 4.3-1.7 5.3 1.1-.4 2-.2 2 1.1zm119.7-135.7c.7.4 1.5.8 1.4 1.8 1.4-1.7 3.4.4 4.9-.8l.3.3c-1.3 1.5 1 3.4-.5 4.8 1.2 1.2 2.9.7 4.3 1.3.6.3 1.5-1.2 1.9-.2.5 1-.7 1.6-1.4 2.2-.7.7-1.3 1.8-2.6 1.8 0-.4-.1-.6-.1-.8.1-.7.9-1.4-.1-2-.4-.3-.9-.5-1.4-.1-.7.6-.8 1.2-.2 2 .5.6.3 1.2-.5 1.3-1.6.3-4.2-2.3-4-3.9.1-.7.6-.9 1.1-.6 1.5 1.1 2.1-.2 3-.9-1-1.2-2.3-.5-3.5-.8-1.6-.3 1.1-2.4-.7-3.2-.2-.1-.4-.3-.6-.4-1 .6-2 1.2-.9 2.5.3.4.3.8 0 1.1-.4.4-.8.3-1.1 0-.5-.4-1.1-.3-1.7-.4-1.7-.4-1.1-2.1-1.4-3.1-.2-1 .9-.6 1.6-.3 1.3.2 1.7-.9 2.2-1.6-.7-.5-1.5-1.4-2.6-.6-.4.2-.8.1-1.1-.3-.3-.4-.2-.8.1-1.1 1-1 1.9-1.9 2.9-2.8.4-.4 1.3 0 1.2.2-.8 1.4.9 3.2-.5 4.6zm67.2 138.9.2-.4c.3 0 .3.2.2.4.8.5.4.9 0 1.4-.8 1-1.6 2-2.4 2.9-1 1.1-1.6 2.8-3.6 1.7-.5-.2-1.2.1-1 1-.8.6-.1 1.8-1 2.5-4.2 3.5-7.1 8.3-11.5 11.5-1.4 1.1-2.1 2.7-3.2 4.1-1.3 1.5-3.7 2-4.2 4.4-.1.5-.9.2-1.4.2-.5 0 .1-1.7-.8-.6-.5.5-1.9.7-1.2 1.9.4.7.5 1.3-.1 1.8-2.6 1.8-4 4.8-6.5 6.6-.7.5-1.2 1.9-2.3.5-.8-.9-1.7-1.8-.2-3 2.7-2.1 4.9-4.7 7.3-7.2 6.6-7 13.5-13.7 20.4-20.6 1.3-1.3 2.7-2.7 4.9-2.1-.3-.4-.7-.9-.5-1.4 1.3-2.7 3.4-4.6 5.8-6.1.2-.3.8 0 1.1.5zm29.8-74.2c1.1 1.9.1 3.2-1.5 4.2-.5.3-1 .2-1.4-.2-.5-.4-.4-.9-.1-1.4.7-1.2 1.9-1.8 3-2.6 3-3.6 5.7-7.4 10.4-9.7-.7 2.4-5.9 8.9-7.8 9.7-.8.3-1.7.6-2.6 0zm-221.7 95.6c1.1-.9.1-2.7 1.4-3.5 1.1-.7 1.5-2.5 3.2-2.1.5.1 1.3.9 1.3 1.4 0 1.5-1.6 2.8-2.4 2.9-1.3.2-1.7 3.1-3.5 1.3 0 .7 1 1.4.2 2.3-1.8 1.8-3.5 3.7-5.3 5.5-1 1-1.9-.1-2.7-.5-.7-.3-.3-.9.1-1.2 2.1-2.1 4.2-4.2 6.3-6.4.6-.7 1.1-.5 1.4.3zm122.9 116.3c.3-.4.6-.5 1.1-.3 2 .8 3.3 2.5 4.8 3.9.6.5 1.1 1.1.2 1.9-.8.7-1.5.7-2.2 0-1.6-1.7-3.7-3-3.9-5.5-.9.7-1.5.1-2.1-.5-4.1-4-8.1-8-12.2-12-.6-.6-1.4-1.1-.4-2.1.9-.9 1.5-.7 2.3.1 4 4 7.9 8 12 11.9.9.8 1.1 1.6.4 2.6zm-64.5-63.8c.1-.1.3-.3.4-.3 3.5.7 5.3 3.6 7.6 5.9.5.5 0 1.1-.5 1.5-.5.5-1.1.7-1.6.2-2.1-2.4-5.2-4-5.9-7.3-1.1.7-1.7-.2-2.3-.8-4-4-8-8.1-12.1-12-1.1-1.1-1.4-2.4-1.6-4 1.3.4 2.3.8 3.1 1.6 4.1 4.1 8.3 8.3 12.5 12.4.9.9 1 1.7.4 2.8zM342 177.6c.8-.9 1.4-2.1 2.7-2 1.5 0 3.2 2.2 4.3-.5.1-.2.7.1 1 .5.4.6.9 1.3 1.5 1.6 2.3 1.1 1.5 2.1 0 3.2-.4.2-.6 1.1-1.2.6-.6-.5-.2-1 .4-1.4.4-.3 1.2-.8.4-1.4-.6-.4-.9.5-1.4.7-.9.4-1.2 1.3-1 1.8 1 2.7-1 3.7-2.6 5.1.1-1.8 0-2.1-.7-1.7-1.6.8-1.9 0-1.9-1.3 0-1 .3-2.1-.1-3.1-1 .7-.6 1.8-1.3 2.6-1.5-1.6-.6-3.2-.3-4.7-1.3.4-3.1 3-3.7-.7h-.7c-2.1 0-2.8-2-3.7-3.2-.7-.9 1.3-1.8 2.3-2.5 1.1-.9 3-1.1 2.6-3.2 0-.2.7-1 1.2-.8 1 1.1-1.1 1.3-.3 2.3.7-.1 1.3-.2 1.6-1 .3-.7.8-.7 1.2-.3.9.9 2 1.8 2.3 2.9.3 1.1 1.5 3-1.3 3.4-.4.1-3.1 1-1.3 3.1zM206.5 361.3c.7 2 2.2 3.6 4 4.4 1.9.9 3.2 2.5 4.7 3.8 1 .8 1 1.6 0 2.5-1 1-1.7.7-2.5-.2-1.4-1.5-2.8-3.1-4.7-3.8-1.9-.7-2.5-1.3-.5-2.6.4-.3 1-.6.5-1.1-.6-.7-.9 0-1.3.4-2.1 2.3-4.2 4.5-6.3 6.7-.5.5-.9 1.5-2.5.7 2.4-2.4 4.6-4.9 7.1-6.9 1.2-1.1 1.7-2.2 1.5-3.9-1.2 2.7-3.6 4.5-5.5 6.6-3.1 3.2-3.4 3.1-4.8-1.2-1.1-3.4.1-6 3.2-7.6 3-1.5 4.7-1 7.1 2.2zm128.8-178.5c3 .9 4.9 3.2 6.9 5.3 2 2.2-1.3 2.2-1.5 3.6 0 .2-.2.2-1.1-.6-.5-.4-1-.3-1.1.4-.1.5 0 1-.1 1.5-.5 2.9-1.8 3.3-4.1 1.6-2.6-2-1.9-4.8-2.1-7.4-.2-2.4.8-3.8 3.1-4.4-1.7-.7-2.8 0-3.8 1.4-1.2 1.7-.1 3.3-.4 4.9-.1.6 0 1.8-.9 1.1-1.6-1.2-3.5-2.6-4-4.6-.6-3.1.5-5.7 3-7.8 1.1-.9 1.9-.8 2.9.1 1.4 1.3 2.4 3.1 3.2 4.9zm20.9 325.4c-.5-1.5-2.2-1.3-3.1-2.4-2.6-3-5.6-5.7-8.4-8.6-1.8-1.9-3.6-3.8-5.2-5.8-1.3-1.6-3.6-2.9-5.2-4.6-.7-.7-2-1.4-.8-2.7 1.2-1.3 1.9 0 2.8.6 2.9 1.7 4 4.9 6.7 7 4.8 3.7 8.9 8.4 13.1 12.9.8.9 2.3 2.4.1 3.6 1.2-.1 2.1-1.7 3.6-.1 3.8 4 7.8 7.9 11.7 11.8.7.7 1.2 1.4.2 2.3-.9.9-1.5.3-2.1-.4-4.5-4.4-9.2-8.8-13.4-13.6zm134.7-194.5c-.5 2.3-2 3.9-3.7 5.4-3.5 3.1-7.1 1.5-9.5-1.9-.2-.3-.4-.6-.1-.9.3-.4.7-.5 1.1-.3.5.2.9.5 1.4.6 1.4.5 2.9.8 3.9-.6 1.1-1.5.9-3.1-.5-4.4-.8-.8-1.7-1.7-2.7-2.4-1-.7-1.6-1.6-.4-2.4 1.2-.8 1.8-3.7 3.9-1.8 2.7 2.4 5.7 4.6 6.7 8.5.6-1.3-.7-2.5-.2-4.1 1.5 1.5 2.8 2.9 4.2 4.2 1.1 1 .8 1.8-.2 2.7l-6.3 6.3c-3.8 3.8-3.8 3.8-7.4-.3-.1-.2-.2-.4-.2-.7 6.4-.2 10.4-3.3 10-7.9zM274.4 426.5c1.4-.9 2.4-.7 3.7.6 5.5 5.6 11.1 11.1 16.6 16.7l11.4 11.4c.7.7 1.8 1.3.5 2.5-1.2 1.2-1.8.1-2.5-.6-4-3.9-8-7.9-12-11.9-.5-.5-1.5-1-1.1-2.1.3-.6-.3-.8-.6-.7-1.5.1-2.1-1-2.9-1.8-4-3.9-8-7.9-12.1-11.8-.6-.6-1.2-1.2-1-2.2-1.2-1.2-2.5-2.3-3.7-3.6-.9-1-1.7-1-2.6 0-1.1 1.2-2.3 2.3-3.5 3.5l-.5-.5c1.6-1.6 3.3-3.2 4.8-4.9 1-1 1.8-1.1 2.8 0 1.1 1.2 2.3 2.2 3 3.8.6.7.3 1.1-.3 1.6zm81-247.6-8.5-8.5c-.6-.6-1.6-1.2-.5-2.3 1-1 1.7-.1 2.3.5 3.4 3.4 6.7 6.9 10.2 10 2.8 2.5 1.4 5.8 2.3 8.7 0 0-.3.1-.4.2-.5-.5-1-.9-1.5-1.4-.5-.5-.8-1.2-1.6-.9-.8.3-.7 1-.7 1.7.1 1-.5 1.6-1.5 1.7-.8 0-1.7-.2-1.9.8-.2.9.8 1.3 1.2 1.8.5.6 2 1.4.6 2.1-2.5 1.3-3.4 3.8-5.3 5.6-4 3.8-8.5 7.3-11.7 11.8-1.1 1.6-3.3 1.3-4.4 2.9-1.1 1.7-2.3.8-2.9-.5-1-2-2.4-3.4-4.4-4.4-2.8-1.5-2.9-2.6-.7-5 .5-.6 1.1-1.1 1.6-1.7.6-.7 1.9-1.6.6-2.5-2-1.4-2.7-4.4-5.7-4.4-.1 0-.3.2-.4.3-1.1 1.2-1.9.5-2.7-.4-3.3-3.7-7.6-6.6-10.1-11.1-.4-.7-1.1-1.4-1.9-1.7-1.7-.8-3.5-1.4-1.7-3.7.1-.1 0-.6-.1-.7-1.5-1.4-.3-2.3.5-3.3-.9 1.4-3.3 1.6-2.9 4.1-.6-.8-2.4-1.2-1.4-2.2 1.8-1.7 2.6-4.4 5.3-5.4 1.1-.4 2-1.6 2.5-2.8.5-1.1 1.4-2 2.4-2.6 1.7-.9 2.9-2.3 3.9-3.9.6-1 1.5-1.9 2.6-2.4 1.3-.7 2.3-1.7 3-3 .7-1.3 1.7-2.4 3-3.1 1.2-.6 2.1-1.5 2.8-2.5.4-.5.5-1.4 1.4-1.1.7.2.7.9.5 1.5-.2.7-.1 1.1.7.8 1.5-.6 2.6.6 3.3 1.3 4 3.7 7.8 7.6 11.7 11.5.6.6.9 1.2.1 2-.7.7-1.4.4-2-.2-.4-.4-.8-.7-1.1-1.1-.7-1-1.2-1.1-2.1 0-2 2.2-4.2 4.2-6.3 6.3-.5.5-1.1 1.1-1.7.5-.7-.7 0-1.2.5-1.7 2.1-2.1 4.2-4.3 6.3-6.4.5-.5 1.4-.9.4-1.8-.6-.5-1.3-1.4-2.2-.5-3.4 3.2-6.6 6.5-10.5 9.2-2.6 1.8-4.5 4.6-6.8 6.9-1.3 1.3-1.6 2.5-.2 3.9 5.5 5.4 11 11 16.6 16.3 1.2 1.1 2.1 3.4 3.7 3.1 1.4-.3 2.5-2.1 3.7-3.3 2.1-2.1 4.8-3.8 6.4-6 1.9-2.6 4-5 6.3-7.3 2.8-2.9 2.8-3.5-.8-5.8.4.4.6 1 .3 1.4l-7.2 7.5c-.3.3-.8.4-1.1 0-.4-.4-.5-1 0-1.4 2.8-2.4 4.9-5.6 8.2-7.4zM154.1 329.8c-.6 1.6-1.2.3-1.6-.1-.5-.4-1.4-.6-.8-1.8 1-1.8 2.4-3.3 4.3-4.1.5-.2 1-.5 1.4.1.4.5 0 1-.4 1.3-1 1-1.9 2-3 2.8-1.3.9-.3 1.3.1 1.8.3-.2.6-.6.7-.9.5-2.4 1.8-4 4.3-4.2 1.4-.1 2-1.2 2.7-2 1-1.3 1.6-2.9 3.7-1.7.6.3 1-.5 1.4-.9 1.7-1.6 2.5-3.7 3.5-5.8 1.2-2.6 3.4-5.2 5.4-7.6 1-1.2 2.1-2.1.9-3.8 1.1-.1 1.4.6 1.9 1.1l24.8 24.5c2.8 2.8 2.8 2.8.7 6.1-.1.1 0 .3 0 .6 1.3-.1 1.9-.8 2.2-1.9.4-1.1 1-.7 1.5-.2.5.4.9.9.3 1.5-3 2.9-5.9 6.1-8.9 9L188.1 355c-.5.5-1.3.9-1.2 1.8.5.3 1 .2 1.3-.2 6.7-8.3 15-15 22.1-22.9.7-.8 1.4-1.1 2.4-.1.8.9.5 1.4-.2 2.2-1.3 1.4-2.6 2.7-4 4-6.3 6.2-12.1 12.9-18.9 18.6-.5.4-.8.9-.1 1.6.4-.3.8-.7 1.1-1l4.9-4.9c.8-.8 1.5-1 2.4-.2 1.1 1 0 1.5-.5 2-1.4 1.5-2.8 3-4.3 4.4-1.3 1.3-2.4 2.8-4.4 3.4-.5.2-.9.5-1.3 0-.4-.6.1-.9.4-1.3.3-.3.9-.3.6-.9-4.3 1-4.4.9-3.6-3.6-1.1-.4-1 1.9-2.1 1-1.3-1 1.2-1.5.3-2.8-2.8 3.2-4.1.2-5.8-1.4-3.8-3.7-7.5-7.5-11.3-11.2-3.3-3.3-6.5-6.6-9.8-9.8-1-1.2-1.8-2.4-2-3.9zm270.8 23.7c1.9.8 3.9.1 5.8-.1 3.7-.3 7.4-.7 11-1.1l.3.6c-2.6 2.6-5.1 5.2-7.8 7.7-6.1 5.8-11.9 11.8-17.7 17.7-9.1 9.2-18.2 18.3-27.3 27.5-2.4 2.5-2.1 3.1-5.1 0-1.8-1.9-3.1-1.9-5-.1-1.8 1.9-3.9 3.6-5.3 5.8-.8-.6-.5-1.3-.5-2-.5-6-2.2-11.6-5.6-16.5-1.5-2.2-1.1-3.2.5-4.9 10.1-10 20.2-20.2 30.2-30.3 1-1.1 2.2-1.4 3.6-1.6 6.1-.6 12.2-1.4 18.3-2-3.2-.9-6.4.2-9.6.4-3 .1-6 .9-9.5.7.8-.9 1.3-1.5 1.8-2 10.4-10.6 20.9-21.1 31.3-31.7 3.2-3.3 3.3-4.1.2-7.4-1.3-1.3-1.1-2.2.1-3.4 1.3-1.3 1.1-4.4 0-5.6-1.4-1.4-4.5-1.5-5.9 0-1.1 1.2-2 1.3-3.1.1-3.3-3.4-6.6-6.7-10-10-1.3-1.3-1.5-2.1-.1-3.5 1.7-1.5 1.2-3.6.4-5.2-.9-1.8-2.9-1.7-4.6-1.5-1 .1-2 1-3.2 1.6.5-3.4 3.3-4.8 5.2-6.8 1.9-2.1 3.3-.8 4.7.6 10.5 10.3 21.1 20.5 31.4 31 5.6 5.7 11.2 11.4 16.9 17 9.3 9.1 18.4 18.2 27.7 27.3 2.7 2.6 2.5 4.5-.5 6.6-2.9 2-5.7 4.2-8.5 6.4-2.7 2.2-5.3 4.6-8.1 6.9-2.7 2.3-2.7 1.7-5.8 1.4-2-.2-2.8-1.4-3.9-2.4-7.6-7.4-15.1-14.9-22.5-22.4-.9-.9-1.7-1.5-3.1-1.3-5.3 1.1-11 1.8-16.7 2.5zm-178.3-81.2c-.8 1.6-1.7 3.1-3 4.3-1.1 1-1.9 1.9-3.3.4-1.3-1.3-1.5-2.3 0-3.5 1-.8 1.8-1.8 2.4-2.9.4-.7 0-2.1 1.1-2 1 0 1.6 1.2 2 2.1.3.6.5 1.2.8 1.8.5-1.8-.4-3.1-1.5-4.3-6.1-6-12.2-11.9-18.3-17.9-3.1-3.1-5.6-3.1-8.8 0-5.1 5.1-10.1 10.2-15.2 15.3-1.3 1.3-2.7 2.1-4.5 2.6-8.2 2.3-13.4 7.7-15.8 15.9-1.3 4.5-1.2 9.1-.1 13.7-2.3-2-4.4-4.1-6.5-6.2-3.9-3.8-3.9-3.9-.1-7.8 15.1-15.3 30.3-30.6 45.4-45.9l46.2-46.5c5.7-5.7 11.3-11.4 17-17.1 1-1 2.5-2.5 3.8-1.4 3.1 2.6 5.8 5.6 8.6 8.5-1.7-.6-3.3-.2-4.9-.3-12.2-1.1-22.9 6.9-25 18.9-.3 1.5-1 2.5-1.9 3.5-5.2 5.2-10.4 10.4-15.5 15.6-2.5 2.6-2.6 5-.1 7.6 5.9 5.9 11.9 11.8 17.8 17.7 4 4 5.8 4.1 9.8 0 1.5-1.5 2.6-1.8 3.9 0 1.1 1.5 2.1 1.3 3.2 0 1.1-1.2 2.2-2.4 3.5-3.4 1.6-1.3 1.9-2.5 0-3.8-1.3-.9-1.5-1.9-.2-3.1 2.3-2.3 4.3-5 6.9-6.8 2.4-1.7 5-4.1 8.6-2.7 1.3.5 7.3-6 6.6-7.1-.8-1.3-.2-2.1.3-3 1.4-2.2 2-4.7 2.3-7.2.4-3.5.3-7-.3-11.1l10 10c4.1 4.1 4.1 4.1.2 8.4-.5.5-1.3.9-.9 1.9 1 2.4 3.3 2.9 5.2 1.1.6-.6 1.1-1.4 1.9-1.7.7-.3 1.5-1.5 2.1-1 1.4 1 3 2.2 3.8 3.7.6 1.1-.7 2.4-1.7 3.4-.2.2-.3.4-.5.6-14.5 14.6-29 29.2-43.6 43.8-1 1-2.6 4.5-3.9 0 0-.1-.1-.2-.2-.2-3.2-.8-5-3.5-7-5.7-3.9-4.2-8.6-7.6-11.8-12.6-2.2-3.3-6.3-5-9-8-.9-1-1.6-.4-2.3.4l-5.4 5.4c-.8.8-1.3 1.5-2.4-.1-1.6-2.2-3.8-3.9-5.7-5.9-.7-.8-1.5-.9-2.2-.1-.8.8-.2 1.3.4 1.9 1.5 1.4 2.9 2.9 4.3 4.4.5.5 1.3 1 .9 1.7-1.1 2-.8 4.7-3.2 6.1-1.1.7-1.9 2-3 2.8-1.7 1.3-1.6 2.3 0 3.8 8.8 8.6 17.5 17.3 26.3 25.8 1.7 1.7 1.6 2.6 0 4.2-6.7 6.5-13.2 13.1-19.8 19.7-7.3 7.3-14.6 14.7-21.8 22-1 1-2.5 2.2-3.4 1.8-1.5-.7-2.7-2.3-3.9-3.6-.6-.6 0-.8.4-1.1 1.6-1.6 3.1-3.4 4.8-4.9 1.3-1.1 1.4-2 .1-3.1-1.2-1-2.1-2.7-3.9-.7-1.6 1.6-3.2 3.2-5 4.7-1.1.9-1.3.4-1.8-.1-1.9-1.8-3.8-3.7-5.7-5.5l-6.5-6.5c.1-.2.3-.4.4-.5 1.8 1.5 3.9.4 5.8.7 5.3 1 9.6-2.6 14.6-3.2 1.9-2.7 5.2-3.9 5.9-8 1.1-6.1 5.1-11 10-15 .7-.6 1.2-.4 1.8 0 .9.7 1.4 2.3 2.7 2.1 1.3-.2 1.9-1.7 2.8-2.5.8-.7 1.5-1.6 2.4-2.3 1.4-1.1 1.4-2.3 0-3.3-1.9-1.5-1.4-2.7.2-4.1 1.5-1.2 3-2.4 2.4-4.6zm30.5 119.1c-.2-1 .5-1.2.8-1.7.6-.8 1.9-1.6.6-2.7-1.2-1.1-1.8.3-2.4 1-1 1-1.8 1.1-2.8.1-2.1-2.1-4.3-4.2-6.4-6.3-.7-.7-1.3-1.5-.3-2.4.7-.7.5-1.3 0-2-.7-.8-1.5-.9-2.2-.2-1 .9-1.6.3-2.4-.4-5.2-5.1-10.3-10.2-15.5-15.3-.8-.8-1.4-1.5-.3-2.5.7-.7.4-1.4-.2-2-.6-.6-1.3-1-2-.2-1.1 1.2-1.9.4-2.7-.4L225.9 341c-.8-.8-1.5-1.5-.4-2.5.7-.7.3-1.4-.3-2-.6-.6-1.2-1.3-2.2-.5-.6.5-1.3 1.1-1.9.2-.6-.9.3-1.4.8-1.9 3.4-3.4 6.7-6.8 10.1-10.2 11-11.1 22-22.2 33.1-33.3.6-.6 1.4-2.2 2.4-1.1 2.2 2.5 3.3.5 4.8-.8 2.3-2 3.6-5.2 7.3-5.5.6-.1 1.6-1.1 1.5-1.6-.3-2.2 1.4-3 2.5-4.2 1.3-1.4 2.8-2.8 4.2-4.2.7-.7 1.3-1.5.3-2.4-1.7-1.4-.8-2.4.3-3.5 10.2-10.1 20.3-20.3 30.4-30.5 5.1-5.2 10.2-10.4 15.3-15.5.6-.6 1.1-1.8 2.3-.9 1.2.9.3 1.6-.3 2.3-.6.6-.6 1.2.1 1.8.6.6 1.3 1.4 2.1.5 1.3-1.3 2.1-.4 3 .5 5 5 10.1 10 15.1 15 .9.9 1.9 1.8.5 3.1-.5.5-.2 1.1.3 1.6s1.1 1.1 1.8.4c1.4-1.5 2.2-.3 3.1.6 5 5 10 10 15.1 15 .9.8 1.6 1.6.4 2.8-.7.6-.4 1.2.2 1.7.5.5 1.2 1 1.8.4 1.5-1.5 2.4-.2 3.3.7l15.4 15.4c4 4 4.1 4-.4 7.7-1.6 1.4-3.4 1.1-3.6-.8-.3-2.7-2.3-2.6-3.9-3.2-2.1-.7-2.9.6-2.2 2.2 1.1 2.3-.4 3.3-1.6 4.5-6.7 6.7-13.4 13.4-20.1 20.2-3.1 3.1-3.1 3.1-6.3 0-.4-.4-.8-.9-1.3-1.2-1.9-1.4-2.2-2.7-.2-4.3 1.6-1.3 2.4-2.9.1-4.5-1.1-.8-1-1.6-.1-2.5 2.3-2.2 4.5-4.5 6.7-6.7.6-.6 1.2-1 2.2-.3 3 2.2 3.1 2.2 5.8-.6.8-.8 1.6-1.6 2.4-2.3 1.2-1.1 1.3-2.2 0-3.2-1.8-1.3-1.8-2.4-.1-4 3.4-3.2 3.3-7.3 0-10.6-12-11.9-24-23.9-36-35.7-4-3.9-7.4-3.9-11.3 0-11.5 11.5-23 23.1-34.5 34.7-4 4.1-3.9 7.9.2 11.9 3.9 3.8 7.8 7.6 11.6 11.5 8 7.9 16 15.9 24.1 23.7 3.4 3.4 7.2 3.3 10.6 0 2.9-2.8 5.7-5.7 8.5-8.5.9-.9 1.6-1.5 2.7-.3s.6 1.9-.3 2.8c-1.9 1.9-3.7 3.8-5.6 5.6-1.2 1.1-1.5 2.3-.6 3.6 1 1.3.5 2.1-.4 3.1-4.3 4.4-8.7 8.7-12.9 13.1-1.6 1.7-4.4.3-5.9 2.3 0 0-.5-.2-.6-.3-.8-.7-1.5-1.5-2.5-.2-.9 1.2.2 1.7.8 2.3 1.8 1.6 1.7 2.7-.1 4.5-10.3 10.2-20.6 20.5-30.7 30.9-4.9 4.6-9.9 9.4-15.7 13.6zM451.8 565l.1-.1c6.6 6.6 13.1 13.2 19.8 19.7 1.2 1.2 1.2 1.9 0 3.1-5.3 5.3-10.6 10.7-15.8 16-3.9 4-7.8 7.9-11.7 11.9-.5.5-1.5 1.6-1.7 1.1-.8-2.1-3.2-1.8-4.5-3.3-1.1-1.2-1.3-3.2-2.7-3.8-1.3-.6-2.2-1.4-3.2-2.3-4.8-4.3-8.8-9.3-13.6-13.6-3.8-3.3-7.1-7.2-10.8-10.6-1-.9-.6-2.8-2.2-3-1-.1-1.5-.8-2.1-1.4-3.3-3.2-6.5-6.5-9.8-9.7-1.2-1.2-1.7-2.1-.1-3.3.7-.5 1.1-1.2.1-1.8-1.3-.7-.8.5-1.1 1-.3.6-.8.9-1.4.5-.6-.5-.3-.9.1-1.5 3.6-4.5 8.2-8.2 12.1-12.5 4.1-4.5 9-8.2 12.9-13.1.7-.8 1.5-1.4 2.6-.3 1.7 1.8 3.4 3.5 5.3 5.1 1 .9 2.2 2.2 3.8 1.4 2.1-1 3.5-.2 4.9 1.3 6.2 6.4 12.6 12.7 19 19.2zm94.6-148.5c-1.6-1.6-3-2.6-3.9-3.9-1.7-2.6 1.8-1.7 2.3-3.1 1.3-3.4 5-5 7-8 1.8-2.8 5-4.4 7.1-7 2.2-2.8 4.7-5.7 8-7.5.5-.3 1-.7 1.6-.1 1.4 1.4 3.2 2.4 4.6 3.8 4.3 4.4 8.7 8.7 13.1 13.1 3.7 3.7 7.5 7.5 11.3 11.2 1 .9 1.4 2.2 2.6 3.1 5 3.8 9 8.5 13.4 13 .9.9 1.5 2 2.8 2.8 3.4 2.1 3.6 4.8.7 7.7-1.3 1.3-2.5 2.6-4 3.6-.9.6-1.5 1.4-2.2 2.2-3.8 4.2-7.9 8.1-11.9 12.1-.3.3-.9.2-1.1.5-.3.5-1 .5-1.2 1.2-.8 2.7-3.4 3.8-5.2 5.6-.3.3-.6.3-.9 0-.8-1.4-2.4-1.8-3.5-2.9-11.1-11.1-22.2-22.2-33.4-33.2-1.5-1.5-2.5-3-2.6-5.1-.3-4-1.7-7.3-4.6-9.1zm-146.7 89.3-.1.1c-6.2-6.2-12.3-12.4-18.5-18.4-1.8-1.7-2-2.8-.1-4.6 9.5-9.4 18.9-19 28.2-28.6 1.8-1.8 2.7-1.8 4.4 0 7.3 7.9 15.5 14.8 24.8 20.4 6.2 3.6 11.9 7.9 18 11.7 2.1 1.3 2 2.1.4 3.7-11.5 11.5-23 23.1-34.4 34.7-1.5 1.5-2.3 1.5-3.7 0-6.3-6.4-12.7-12.7-19-19zm16.8-126-.2-.2c8.6-8.6 17.2-17.1 25.7-25.7 1.4-1.4 2.1-1 3.3.1 7.6 7.6 15.3 15.1 23 22.6 2.9 2.9 2.8 4.9 0 7.7-1.6 1.6-3.3 3.2-4.9 4.9-1.3 1.4-2.9 2.4-4.2 3.9-3.6 4.2-7.7 7.9-11.6 11.8-3.7 3.7-7.4 7.5-11.1 11.2-1.8 1.8-3.3 4.1-5.5 5.3-2.3 1.2-2.9 3.5-4.6 5-1.8 1.6-3.4 3.4-5.1 5-.8.7-1.6 2.9-3 .4-.2-.4-.8-.2-1.1.1-1 1.2-1.7.5-2.5-.2-7.8-7.7-15.6-15.3-23.4-22.9-1.5-1.4-1.4-2.3 0-3.7 8.3-8.4 16.8-16.8 25.2-25.3zm-47.6 75.8c4.2 4.2 8.4 8.4 12.7 12.6 1.2 1.1 1.3 2.1.2 3.4-6.1 7.4-12.1 14.8-18.1 22.2-.8 1-1.4 1.3-1.8-.4-.2-.9-1.5-.9-1.9-1.4-2.7-3-7-4.7-7.9-9.2-.1-.6-.5-1-1.1-.9-1.7.3-2.4-1-3.4-1.8-3.3-2.7-5.4-6.5-8.9-9-4.2-3-6.9-7.5-10.9-10.8-7.3-6-13.2-13.6-20.2-19.9-4.3-3.9-7.8-8.5-12.3-12.1-1.9-1.5-2.8-4-4.6-5.2-2.6-1.8-4.6-4-6.7-6.2-2.4-2.3-2.3-3.7-.1-6.2 3.3-3.8 7.3-6.7 10.6-10.5 3.5-4 7.7-7.3 11.2-11.3.9-1 1.8-2.6 3.4-.8 1.2 1.4 3.1 2.1 1.4 4.7-7.8 11.5-7.6 26.7.3 38.3 9.2 13.6 27.5 18.8 42.4 12 2-.9 3.1-.7 4.6.8 3.4 4.1 7.3 7.9 11.1 11.7zm192.2-72.8c.3-.2.7-.2.7-.4.3-.7.6-1.4 1.5-.8.9.6.3 1.1-.2 1.8-.8 1.1-1.4 2.3-2.4 3.2-3.7 3.6-7.5 7.2-11.1 11-2.9 3.1-6.1 6.1-9.4 8.9-1.4 1.2-1.9 2.7-3.1.1-.3-.5-.9-.6-1.3-.3-.4.4 0 .8.3 1 1.7 1.3.4 2.1-.5 3.1-1.2 1.3-1.9.3-2.7-.5-1.2-1.2-2.4-2.4-3.7-3.6-1-.9-1.7-2.1-2.7-3-10.6-10-20.8-20.4-31.2-30.6-1.2-1.2-1.2-2-.1-3.2 2.2-2.1 4.4-4.3 6.5-6.5 1.1-1.2 2-1.1 3.2-.1 13.7 10.6 28.1 20.4 41.5 31.5.4.3.7 1.3 1.8.4-1-1-1.8-2-2.8-2.8-1.5-1.2-1.9-2.3-.2-3.6 1-.8 1-1.5.3-2.6-1.3-2.3-3.6-3.4-5.4-5.1-5.1-5-10.2-10.1-15.2-15.2-10.9-10.8-21.8-21.7-32.7-32.5-1.7-1.6-2-2.8-.1-4.5 2.6-2.4 5-4.9 7.4-7.4 1.3-1.3 2.2-1.4 3.5 0 4.6 4.7 9.3 9.3 14 14 6.7 6.6 13.3 13.3 20.1 19.8 2.3 2.2 4.1 4.9 6.5 7 4.5 4.1 9.6 7.6 12.6 13.2.1.2.6.9 1.5 1 1.8.2 2.8 2 4 3.3 1.1 1.4-1.1 2-.6 3.4zM356.9 255.2c0-.1 0-.1 0 0 1 .8 1.9 1.7 2.8 2.6 5.1 5.1 10.3 10.2 15.4 15.4 3.3 3.3 2.6 8.1-1.3 10.5-.8.5-1.3.3-1.8-.3-1.9-2.6-3.4-1.6-4.9.4-.7.9-1.6 1.8-2.5 2.5-1.5 1.3-2.1 2.5-.2 3.8 1.4 1 1.3 1.9.1 3.1-2.1 2-4.1 4.1-6.2 6.1-.5.5-1.2 1.3-1.7 1-1.6-1.3-3.7-2-4.7-3.8-.7-1.1-1.3-2.1-2.3-3.1-3.3-3.3-6.7-6.6-10-9.9-7.2-7.2-14.4-14.4-21.6-21.5-2.9-2.9-5.3-2.9-8.1-.1-4 4-8 8-11.9 12-2.4 2.4-2.4 4.9 0 7.3 2 2 3.9 4 6 6 .9.9.9 1.6 0 2.6-1 1.1-1.7.7-2.5-.1-2.4-2.4-4.9-4.8-7.2-7.3-3.5-3.6-3.5-6.6 0-10.2 11.4-11.5 22.8-23 34.3-34.5 3.7-3.8 6.8-3.8 10.6-.2 5.9 5.8 11.8 11.8 17.7 17.7zm11.7 72c.6 1.2-.2 2.3-.2 3.4.1 1.4-.2 3.2 1.4 3.9 1.6.7 3.4 1.4 5-.2.9-.9 1.6-.5 2.4.2 3.5 3.6 7.1 7.1 10.7 10.7.8.8 1.1 1.4.2 2.5-1.3 1.7-.9 4 .3 5.2 1.3 1.2 3.5 2.1 5.3.6 2.5-2.1 3 .8 4.2 1.7 1.4 1 .5 2-.4 2.9-10 10-19.9 20.1-29.9 30.2-1.4 1.4-2.3 1.5-3.7 0-6.2-6.8-14.1-9.9-23.1-10.8-1-.1-2-.2-2.8-1-2.3-2.4-4.7-4.6-7-7-2.1-2.2-1.9-4 0-6.1 3-3.4 6.8-6 9.7-9.6 1.9-2.3 4.7-4 6.6-6.2 2.3-2.6 4.6-5.1 7.1-7.6 2.9-2.8 5.7-5.7 8.4-8.6 1.6-1.7 3-3.9 5.8-4.2zM475.9 510c-1-2.6-2.8-4.1-4.6-5.7-1.3-1.2-2.1-1-3.1.1-.5.5-1.2 1.4-1.8.5-.8-1.2-2-2.5-.3-4.2 6-5.9 11.9-12 17.8-18 1.3-1.3 2.1-1.4 3.5 0 9.5 9.6 19.2 19 28.7 28.5 1.8 1.8 3.5 3.1 6.2 2.9 1.1-.1 2.3.2 2.7 1.4.4 1.2-.7 1.7-1.3 2.3-7.4 7.4-14.8 14.7-22.2 22.2-11.3 11.4-22.7 22.8-34 34.3-1.5 1.5-2.6 1.6-4.2.1-8.6-8.6-17.2-17-25.8-25.6-1.4-1.4-3.1-2.5-4-4.3l.5-.5 17.6 17.6c.3-.5.3-.7.2-.8-4.6-4.6-9.2-9.3-13.9-13.8-1.5-1.4-2.7-3.4-4.7-3.8-2-.4-3-1.8-4.4-2.9-.6-.5-.8-1.2-.2-1.8 1.7-1.8 3.3-3.7 5.2-5.3 1.3-1.1 2.5.4 3.7 1 .6.3.1.9-.2 1.2-1.6 1.4-3.1 2.8-.9 4.9-1.3 4.1 2.6 2.2 3.9 3.3 1.2 1 1.9-.7 2.6-1.4 4.7-4.6 9.1-9.4 12.6-12.6-3.5 2-.3 6.9-1.4 10.9-.1.2.4.5.6.8l3.1 3.1c.5.5 1.1 1 1.8.6 1.3-.9 2.1.1 2.9.8 1.1 1 2.2 2.2 3.2 3.3.6.6 1 1.1.4 2-.6.8-.1 1.5.5 2 1.9 1.4 2.8 4.8 6.3 3.1.2-.1.6.2 1 .3 2.8 1.1 5.2.3 7.2-1.7 7.7-7.7 15.4-15.5 23.2-23.2 2.2-2.1 3-4.5 1.8-7.4-.2-.6-.4-1.1-.3-1.7.3-1.7-2.9-6.4-4.4-6.1-2.9.6-3.6-1.8-5.1-3-.9-.7-2.3-1.4-1.9-2.8.3-1.3-.3-1.9-1-2.7-1.8-1.9-3.5-3.2-6.5-3.3-3.1-.1-5.7-.1-7.9 2.3l-3.1 3.1zm35-116c.1-.1.1-.1 0 0 5.8 5.6 11.5 11.4 17.3 17.1 3.5 3.5 3.5 3.4 0 7-.1.1-.2.3-.3.4-6.2 6.3-12.5 12.6-18.6 19-1.6 1.7-2.5 1.3-3.7-.4-3.6-5.5-7.3-10.9-11-16.3-4-5.7-7.3-11.9-12.3-16.9-3.2-3.2-6.4-6.4-9.7-9.5-1.5-1.4-1.5-2.3 0-3.7 5.2-5.1 10.3-10.2 15.3-15.5 1.6-1.7 2.6-1.8 4.3-.1 6.1 6.4 12.5 12.6 18.7 18.9zM459 439.8s0-.1 0 0c4.3-4.4 8.6-8.8 12.9-13.1 1.1-1.1 1.9-1.7 3.3 0 1.5 1.9 3.6 3.4 5.4 5.1 6.7 6.6 13.2 13.3 19.9 19.8 1.3 1.3 1.2 2.1 0 3.3-1.6 1.5-3.1 3.1-4.7 4.7-7 7-14 14-21 21.1-1.4 1.4-2.3 1.4-3.5 0-.4-.5-.9-.8-1.3-1.2-8-8-15.9-16-23.9-23.8-1.3-1.3-1.1-1.9 0-3 4.4-4.3 8.6-8.6 12.9-12.9zm64.8 3.6-.1-.1c6-6 12-11.9 17.9-18 1.8-1.8 2.7-1.8 4.6-.1 2.2 2 3.2 4.7 5.2 6.7 9 9.1 18.1 18.1 27.3 27 1.3 1.3 1.4 2.2 0 3.5l-23.1 23.1c-5.5 5.5-11 11.1-16.6 16.6-.6.6-1.1 1.7-2.2 1-1.3-.9-.6-2.1-.2-3 .4-.9 1.3-1.6 2-2.3 7.6-7.6 15.2-15.3 22.7-22.9 2.2-2.2 3.6-4.6 1.4-7.7-.2-.3-.3-.9-.2-1.2 1-1.4 0-2.4-.9-3-1.6-1.2-2.4-3.9-5.3-2.8-.6.2-5.4-4.4-5.5-5.2-.1-.3 0-.7.1-1 .7-1.1 0-1.8-.7-2.4-1.9-1.6-3.5-3-6.3-3.6-3.4-.7-5.4-.4-7.7 1.9-7.2 7.3-14.5 14.5-21.6 21.8-1.3 1.3-2.2 1.5-3.5 0-1.7-1.9-3.6-3.6-5.5-5.4-2.5-2.4-2.5-2.4-.1-4.8 6.1-5.9 12.2-12 18.3-18.1zm-160.3 73.5c9.1 8.9 18.1 17.9 27 26.9 1.5 1.5 2.4 2 4.2.1 5-5.3 10.2-10.3 15.3-15.4 2.7-2.7 2.7-2.7 5.5-.1.7.6 1.8.9.8 1.7-1.7 1.5-2.3 3.9-4.2 5.1-2.8 1.7-4.6 4.4-6.7 6.7-4.8 5.2-10.3 9.8-14.8 15.2-.8.9-1.9 1.6-2.9.7-1.1-.9-1.9-.4-2.6.3-1 1.1-1.9.9-2.7-.1-2.3-2.9-5.2-5.1-7.8-7.7-7.7-7.7-15.5-15.4-23.4-23-.9-.8 0-2.4-1.6-2.6-1.5-.3-2.5-1.4-3.4-2.5-3.7-4.2-7.8-8.1-11.6-12.1-3.1-3.2-6.5-6.4-9.9-9.3-1.4-1.2-1.6-2.1-.1-3.5 2.3-2.1 4.5-4.5 6.7-6.7 2.8-2.8 2.8-2.8 5.6-.1.1.1.3.2.4.4 8.8 8.6 17.5 17.3 26.2 26zm137.6 33.9-.1-.1c9.5-9.5 19-18.8 28.3-28.4 2.1-2.2 2.7.2 3.8.8 1.5.8 1.2 1.8.1 2.8-2 1.9-2.1 4.1-1.4 6.6.8 2.8 3 4.1 5.1 5.5 1.7 1.1 1.5 1.9.2 3.1-2.3 2.2-4.6 4.4-6.8 6.8-5.4 5.9-11.3 11.3-17 17-9.3 9.3-18.5 18.6-27.7 28-1.3 1.3-2.1 1.2-3.3 0-3.2-3.2-6.3-6.5-9.6-9.5-1.6-1.5-1.6-2.4-.1-3.9 9.5-9.6 19-19.2 28.5-28.7zM315 296.7l-.2.2-15.9-15.9c-2.4-2.4-2.7-4-.3-6.6 4.1-4.5 8.4-8.7 12.9-12.8 2-1.8 3.4-1.6 5.3.3 2 2 4 4 6 5.9 8.9 8.8 17.9 17.6 26.7 26.5 2.3 2.3 2.3 4.1 0 6.4-3.9 4-7.9 8-11.9 12-2.5 2.5-4.2 2.4-6.7-.2-5.3-5.1-10.6-10.5-15.9-15.8zm249.3 190.4-.1-.1c6.7-6.7 13.5-13.5 20.2-20.3 1.2-1.2 1.9-1.5 3.2-.1 3.3 3.5 6.7 6.8 10.2 10.1 1.2 1.2 1.2 2 .1 3.1-6.3 6.3-12.7 12.7-19 19.1-4.6 4.6-9.2 9.3-13.9 13.8-2.7 2.6-4.9 5.6-7.8 7.9-1.3 1-2.1 1.2-3.4-.1-3.1-3.3-6.2-6.5-9.5-9.7-1.5-1.5-1.3-2.5.1-3.9 6.7-6.6 13.3-13.2 19.9-19.8zM252.9 273.7l-.2.2c-4.5-4.5-9.1-9-13.6-13.6-1.1-1.1-2-2-.4-3.5 5.2-5.1 10.4-10.4 15.5-15.6.9-.9 1.6-1 2.6 0 1.6 1.7 3.3 3.4 5 5.1 7.7 7.6 15.4 15.2 23.1 22.9 1.1 1.1 1.7 1.9.3 3.3-5.3 5.1-10.4 10.3-15.6 15.5-.9.9-1.5 1-2.5 0-4.7-4.8-9.5-9.6-14.2-14.3zm150.6 47.4-11.4-11.4c-3.9-3.9-3.9-3.9-.1-7.8 4.3-4.4 8.6-8.7 13-13.1.5-.5 1.1-1.3 1.9-.8 1 .6.2 1.2-.1 1.9-.7 1.6-1 3.5.2 4.8 1.4 1.5 3.5 1.6 5.2.8 1.1-.5 1.7-.7 2.6.2 3.4 3.5 6.9 6.9 10.4 10.3.9.8 1.2 1.5.5 2.8-.9 1.6-.7 3.6.6 5 1.3 1.3 3.4 1.6 4.8.7 2.8-1.7 3.4 1 4.6 2.1 1.3 1.2.4 2.6-.8 3.7-4.7 4.6-9.4 9.2-13.9 14-1.8 1.9-2.9 1.6-4.5-.1-4.2-4.4-8.6-8.7-13-13.1zm-.7.5.2-.2 13.8 13.8c.7.7 1.9 1.5.7 2.7-5.5 5.6-11 11.2-16.6 16.7-1.8 1.8-2.5-.3-3.5-1.1s-2-1.6-.6-3.1c1.5-1.6 1.5-4.6.3-5.8-1.3-1.3-4.5-1.4-6 0-1.1 1-1.8.9-2.8-.1-3.3-3.3-6.6-6.7-10-9.9-1.3-1.3-1.7-2.1-.3-3.7 2.1-2.3.6-5.7-2.5-6.2-1.5-.2-2.7 0-3.7 1.2-.5.6-1.2 1-2 .2-.9-.9-.4-1.5.2-2.1 5.3-5.4 10.7-10.8 16-16.2 1.1-1.1 1.8-1.1 2.9 0 4.7 4.7 9.3 9.2 13.9 13.8zm-8.9 184.9.2-.2c5.6 5.6 11.2 11.2 16.8 16.9.7.7 1.8 1.3.6 2.5-4.9 4.9-9.7 9.8-14.7 14.7-.8.8-1.5 1-2.4-.4-1.7-2.6-3.7-5-5.6-7.5-7.6-10-14.9-20.2-22.3-30.3-1.4-1.9-1.8-3.5.4-5.3 2.5-2 4.6-4.4 6.7-6.7 1.3-1.4 2.2-1.7 3.7-.2 5.6 5.6 11.2 11 16.6 16.5zm-165.5-289-.2-.2 34.2-34.2c5.3-5.3 10.6-10.6 15.7-16.1 1.7-1.8 2.7-1.6 4.3 0 2.4 2.5 2.4 2.4-.1 4.9-1.8 1.7-3.5 3.5-5.3 5.2-15.9 16-31.7 32-47.6 48-.8.8-1.5 1.4-2.9.8-1.3-.6-4.2 2-3.6 3 1.4 2.3-.4 3-1.5 4.1-10.1 10.2-20.4 20.2-30.3 30.5-6.5 6.8-13.3 13.3-19.7 20.1-2.1 2.2-2.9.3-4.2-.8-1.4-1.2-1.8-2.1-.2-3.6 3.9-3.8 7.6-7.8 11.4-11.7l50-50zm289.5 263.2c5.3 5.2 10.6 10.4 15.8 15.7 1.7 1.7 1.9 3.8.5 5.2-3 3-5.8 6-9.2 8.5-1.1.8-2.3.5-3.4 1.1-.5.3-.9-.1-.7-.6.7-2.3-1.3-3.1-2.3-4.5-.7-1-1.9-1.2-2.7-1.8-4.1-2.9-6.2-7.5-10.1-10.6-2.4-1.9-5.4-4-6.2-7.5-.1-.2-.5-.5-.8-.6-1-.1-1.5-.2-2.4-1.2-1.8-2-3.8-3.9-5.8-5.7-2.1-1.8-1.6-3.3-.1-5 2.5-3 5.3-5.8 8-8.6 1.4-1.5 2.4-1.6 3.9-.1 5.1 5.4 10.3 10.5 15.5 15.7zm-155.3-45.3c-13.1 13.1-33.8 13.6-47.4-.2-12.7-12.8-13.4-32.9-.3-46.5 13.2-13.7 34.5-13.9 47.9-.4 13.1 13.2 12.8 33.4-.2 47.1zm212.9 121.1c-1.3-.1-1.8 2.2-3.4.6-5.8-5.7-11.7-11.2-17.6-16.8-7.5-7.2-15-14.4-22.4-21.6-1.6-1.6-3.2-3.2-4.8-4.9-.8-.9-1-1.7.1-2.8 1.8-2 3.7-3.8 5.4-5.8 1.6-2 2.6-1.5 4.2.1 9.3 9.8 18.8 19.3 28 29.2 5.2 5.6 11 10.8 15.7 16.8.4.5 1.2.9.5 1.6-1.9 2.3-4.1 4.3-6.9 5.6.4-.6.8-1.2 1.2-2zm-99.3-261.8c-.1.2-.2.4-.3.5-3.2-1.7-6.1-1.3-8.7 1-2.6 2.3-3.7 5.1-2.8 9.1-3.2-2.6-5.4-5.1-7.8-7.5-9.1-9.1-18.3-18.1-27.4-27.2-1-1-1-1.8-.1-2.8 3-3.1 6-6.1 8.9-9.2.6-.6 1.3-.9 1.6-.1.7 1.9 2.6 2.5 3.9 3.8l14.7 14.4c4.9 4.8 9.8 9.7 14.7 14.6 1.1 1.2 2.2 2.3 3.3 3.4zM304.3 479.1l-.8.8c-3.3-3.3-6.6-6.5-9.8-9.9-1.2-1.3-3.5-2-2.5-4.6.1-.3-.5-.8-.9-.6-1.7.9-2.2-.6-3.1-1.4-4.7-4.1-8.7-8.9-13.4-13.1-3-2.8-5.8-5.8-8.7-8.7-.6-.6-1.2-1.3-.3-2.1.4-.4.5-.9.1-1.4-.4-.5-1-.5-1.4-.2-.6.5-1.1 1.2-1.8.1-.6-.9.2-1.4.7-1.9 2.3-2.5 4.7-5 7.1-7.4 2.6-2.6 2.6-2.5 5.2 0 8.8 8.7 17.5 17.5 26.3 26.2l6.3 6.3c-.4.9-.9.7-1.3.7-3.8.4-6.2 2.8-7.6 6.1-1.4 3.2.5 5.7 2.7 7.9 1.2 1.1 2.2 2.2 3.2 3.2zM480.9 530c-1.8-1.7-3.6-3.4-5.3-5.2-1.7-1.8-3.4-3.6-5.2-5.3-1.2-1.1-1.1-1.9 0-2.9 3.3-3.2 6.6-6.5 9.8-9.7 1.6-1.6 3.5-2 5.6-1.6.5.1 1.2.1 1.2 1 .2 3.6 2.6 5.7 6 5.6.4 0 1 .3 1.3.6 1.4 1.3 2.7 2.6 4 4 .4.4.7.9.5 1.6-.4 1.8 3.1 6.5 4.7 6 2.5-.9 2.1.9 2.2 2.1.2 1.7-.5 3.1-1.7 4.4-3.3 3.2-6.6 6.5-9.8 9.8-1.2 1.2-1.9 1.3-3.1 0-3.2-3.6-6.7-7-10.2-10.4zm73.2-48.9c-1.6 1.6-2.8 2.7-3.9 4-.9 1-1.7.8-2.6-.1-7-7-14-14-21-20.9-1-1-1.1-1.9 0-3 3.8-3.7 7.5-7.5 11.2-11.3.9-.9 2.1-1.6 3.4-1.4 1.3.2 2.9.3 2.2 2.4-.3.9 4.1 5.6 5 5.3 2.3-.9 3.1.9 4.2 2 1.3 1.4 2.8 2.3 2.9 5 0 1.8 2.5 3.9 4.6 4.7 2.9 1 4 2.1 2.5 4.6-1.9 3.1-5 5.1-7.7 8.1-.3-4.4-3.1-6-6-7.3-.6-.3-1.4-.5-1.9.1s-.3 1.4 0 1.9c1.4 2.7 3 5.3 7.1 5.9zM480 530.5c.1 0 .1 0 0 0 3.5 3.4 7 7 10.6 10.4 1 1 1.5 1.7.2 2.9-3.3 3.3-6.5 6.7-9.8 10-1.6 1.6-3.5 2.4-5.8 2-.7-.1-1.4-.2-1.5-1.3-.2-2.9-2.8-5.2-4.6-5.4-3.2-.3-4.4-2.6-6.3-4.1-.6-.4-1.1-1-1-1.9.1-1.7-3.3-6.1-4.9-5.9-2 .3-1.9-.9-2-2-.3-2 .6-3.6 2-5 3.2-3.3 6.6-6.5 9.7-9.8 1.4-1.5 2.2-1.2 3.5.1 3.3 3.4 6.6 6.7 9.9 10zM259.4 234.7c-1.1-1.1-2.2-2.2-3.3-3.2-1.1-1.1-2.3-2.1-3.3-3.2-2.4-2.5-2.4-4.6.1-7.1 3.6-3.7 7.3-7.4 11-11.1 2.8-2.8 2.8-2.8 3.9.9.2.7.5 1.5.8 2.1 3.1 6.6 8.2 10.9 15.3 12.8 1.1.3 2.4.4.9 2-4.4 4.4-8.7 8.9-13.2 13.2-1.9 1.9-3.7 1.8-5.7 0-2.2-2-4.3-4.2-6.5-6.4zm143.5 186.8c4.2 4 8.2 8.2 12.4 12.2 1.6 1.5 1.5 2.6 0 4-2.4 2.3-4.7 4.7-7.1 7-2.8 2.8-5.6 5.5-8.4 8.2-.7.7-1.4 1.4-2.3.4-2-2.3-4.5-3.8-4.4-8 .2-10.1-.7-20.3-1.2-30.4-.1-1.8.6-4.1-2.6-4-.7 0-1.3-1.1-1.3-2 0-.3.3-.7.6-.8.9-.4 1.4.4 1.9.9 4 4.2 8.2 8.4 12.4 12.5zM207.6 267.3c.1-.4.1-.7.3-.8 4.6-4.7 9.1-9.5 13.8-14.1 1.8-1.7 4-1.6 5.9.3 4.4 4.3 8.7 8.6 13 13 2.2 2.3 2.2 4.1 0 6.4-3.9 4-7.9 7.8-11.8 11.7-1.5 1.6-2 1-2.6-.7-2.2-6.7-6.6-11.4-13.1-14.2-1.7-.7-3.6-1.1-5.5-1.6zm375.1 289.3c.5-1.1-1.6-1.9 0-2.8 1.1-.6 1.6.3 2.3.9 3.5 2.5 6.2 6 10.3 7.8 4 1.7 7.5 4 10.1 7.7 1.1 1.6 2.7 2.8 4.1 4.2 2.1 2.1 2.2 4 .1 6.2-2 2.1-4.1 4.1-6.2 6.1-1.8 1.6-3.7 1.9-5.8.5-3.2-2.3-5.4-5.8-8.9-7.9-.2-.1-.3-.6-.4-.9-2.5-4.6-4.8-9.3-8.7-13-1.1-1-2.1-2.2-3.1-3.4-.2-.3-.4-.9-.2-1.2.3-.7.8-.2 1.3 0 .3.2.7.5 1.3-.2-1.5-1.1-1.4-2.3 0-3.5 1.1-.7 2-2.6 3.8-.5zm-119.6 49.7c4.5-4.5 9.1-9 13.5-13.6 1.3-1.3 2-1.3 3.2 0 1.7 1.9 3.5 3.7 5.5 5.4 1.4 1.2 1 1.9-.1 3-3.2 3-6.3 6.3-9.4 9.4-6.1 6.1-12.1 12.2-18.2 18.3-1.2 1.2-2.1 1.4-3.3.1-1.6-1.8-3.3-3.6-5.2-5.2-1.6-1.4-1.1-2.3.1-3.5 4.6-4.6 9.3-9.2 13.9-13.9zm73.6-107.9c-.6-2-2-3.1-3.3-4.4-6.1-6-12.1-12-18.2-18-1.3-1.2-1.6-2.2-.2-3.6 2.7-2.6 5.3-5.3 7.9-8 1-1.1 1.8-1 2.7 0 1.8 1.8 3.6 3.6 5.5 5.4 5.1 5.1 10.3 10.2 15.4 15.4.7.7 1.8 1.5.6 2.7-3.3 3.5-6.8 6.9-10.4 10.5zm82.7-31.9c-4.4 4.4-8.8 8.8-13.1 13.2-1.1 1.1-1.8 1.2-2.9.1-1.8-1.9-3.5-4-5.6-5.6-1.7-1.4-1.3-2.2 0-3.6 8.8-8.7 17.5-17.5 26.1-26.3 1.1-1.1 1.7-1 2.7 0 2 2 4 4 6 5.9 1.1 1 1.3 1.8.1 2.9-4.5 4.4-8.9 8.9-13.3 13.4zm-373.8-47.9c-2.4.7-3.6-.1-4.8-1.2-5.3-4.9-10-10.5-15.4-15.4-3.3-3-6.3-6.2-9.5-9.3-.5-.5-1.5-1.1-1.3-1.8.7-1.9.1-2.1-1.6-1.7-.8.2-1.2-.5-1.7-1-2.4-2.3-4.7-4.7-7.1-7-.4-.4-1.5-.8-.8-1.6.6-.7 1.3.1 1.7.6 1.4 1.8 2.5 1.1 3.7-.3.4-.5.8-.9 1.2-1.3 1.2-1.5 2.2-1.6 3.7-.1 8.5 8.6 17.2 17.1 25.8 25.6 1.1 1.1 2.6 2 2.2 4-.1.9 1 1.9 1.9 1.7 1.5-.4 2 .5 2.8 1.2 2.8 2.7 5.5 5.4 8.2 8.1.5.5 1.3 1.1.6 1.9-1.6 1.8-3 4.1-5.2 4.7-1.5.4-2.5-2-3.8-3.1l-.9-.9c-1.3-.6-1.3-1.6.3-3.1zm32.5-225.4c5.9-6.4 15.5-6.7 22-.8 6.2 5.7 6.6 15.6.9 21.9-5.8 6.4-15.7 7.1-21.8 1.6-7-6.4-7.5-15.7-1.1-22.7zm174.5 241.6c-2.4 2.9-5.9 6-9.3 9.3-.9.8-1.5 1.2-2.5.1-1.8-1.9-3.7-3.7-5.7-5.5-1.3-1.2-1.3-2.1.1-3.3 3.4-3 6.5-6.2 9.6-9.4 3.2-3.3 6.5-6.5 9.6-9.9.9-1 1.6-.9 2.5 0 1.8 1.8 3.6 3.6 5.5 5.4 1.4 1.3 1.4 2.2 0 3.6-3 2.8-6.1 6-9.8 9.7zm-38.8-171.1 7.3-7.3c.8-.8 1.3-1.7 2.7-1.5.9.2 1.5-.8 1.9-1.5.5-.9-.3-1.4-.8-1.9-1.8-1.8-3.7-3.6-5.4-5.4-1.5-1.5-2.9-.7-3.1.7-.4 2.3-1.8 3.8-2.8 5.6-2 3.5-2.1 3.5-5.1.6-.8-.8-1.6-1.5-2.4-2.3-.6-.6-1.2-1.3-.5-2.2.7-.9.1-1.6-.6-2.2-1.5-1.2-1-2.2.1-3.4 2.2-2.2 4.4-4.5 6.7-6.7.6-.6 1.3-1.2.5-2.2-.6-.7-1.2-1.2-2.2-.8-.3.1-.6.3-1 .4-2.3.5-3.1-.1-2.9-2.4.1-1.4-1.5-2.6-3-2.3-.4.1-.7.9-1.2 0 .4-1.3.8-2.7 1.3-4.1.2-.5.3-1.3 1.2-.9.5.2.6.7.3 1.3-.1.2-1 .7 0 .8 3.2.2 4.7 2.8 6.6 4.7 3.1 3.2 6.2 6.5 9.4 9.7 2.9 3 6 5.9 9.2 8.7.9.8 1.2 1.3.1 2.4-4.1 4-8.1 8-12.1 12.2-1.3 1.4-2.5 1.9-4.2 0zm61.9 57.2c2-.8 3.1.1 4.2 1.3 1 1.1 2.1 2 3.1 3.1.8.8 1.4 1.5.3 2.5-1 1-1.8 1.2-3 0-2.9-3-5.9-5.9-8.9-8.9l-29.3-29c-6.6-6.5-13.2-13.1-19.8-19.7-.9-.9-2.2-1.8-.7-3.4 1.6-1.6 2.5-.1 3.3.9 1.9 2.3 4.2 4.3 6.5 6.3 5.6 5.1 10.7 10.6 16 15.9 5.5 5.4 11 10.9 16.4 16.3 3.8 3.8 7.6 7.6 11.5 11.3 1.1 1.2 1.5 2 .4 3.4zm-73.6-75.4c-.7.4-1 .1-1.3-.2-5.6-5.5-11.1-11.1-16.7-16.6-.6-.6-.8-1.1-.4-2 .5-1.2-1.3-3.9-2.2-3.4-2.8 1.5-3.5-1-4.9-2.1-.7-.5-1.3-1.5-2.1-.6-1.7 1.9-2.8.6-4-.6-1.8-1.8-3.8-3.5-5.3-5.5-1.2-1.7-2.6-3.1-4.1-4.5-1-1-2.7-1.8-3.6-1.1-1.7 1.4-2.5.4-3.3-.7-1.7-2-3.1-1.6-4.5.2-.8 1-1.2 2.4-2.6 3-1.3.6-2 1.7-2.9 2.8-1.5 2.1-3.5 3.7-5.3 5.5-.3.3-.8.3-1.1-.1-.3-.3-.1-.7.2-.9 1.6-1.1 1.9-3.3 3.3-4.5 4.7-3.8 8.7-8.4 12.7-12.8 1.3-1.5 3.5-2 4.3-4.1.3-.8 1-1.8 2-1.7 1.1.1 1.7 1.1 2.3 2 .7 1.1-.5 1.6-1 2.3-.7.9-1.4 1.5-2.8 1.3-.9-.1-2.3.2-2.8 1.3s.8 1.6 1.4 2.2c2.1 2.2 4.3 4.4 6.5 6.6.7.7 1.3 1.4 2.6 1.2 1.3-.2 2.2.9 2.2 2.2-.1 3.5 2.3 5.3 5 3.6 1.7-1.1 2.4-.4 3.4.6 1.8 1.7 4.3 2 6.4 3 2 1 4.6-.1 6.4 2.3 2 2.7 4.7 4.9 7.2 7.2 1.4 1.3 1.8 2.3.2 3.7-1 .8-1.5 1.7-.3 3 1.4 1.5 2.3 1.3 3.4-.2.4-.6 1.1-1.4 1.9-.9.8.5-.2 1.3-.1 1.8.3 2.2-2.9 4.5-.1 6.7zm-25.4 191.8 4.8 4.8c1.4 1.4 2.8 1.4 4.2 0 1-1.1 2.1-2.1 3.6-3.6 0 6.8 1.4 12.7 1.4 18.8 0 2.3-.5 4-2.2 5.4-.8.6-1.5 1.4-2.2 2.2-1.4 1.7-2.6 1.5-4-.1-1.4-1.5-2.9-2.9-4.4-4.3-.6-.6-1.2-1.2-1.3-2.1-.2-7-.6-13.9.1-21.1zm-183-135.9c-6.2-6.2-6.5-16-.5-22.1 6.3-6.4 16.4-6.5 22.7-.1 5.8 5.8 5.7 16-.2 21.8-6.5 6.5-15.8 6.6-22 .4zM497.3 548l-.1-.1 28.4-28.4c.9-.9 1.7-2.3 3.3-.7 1.8 1.7 0 2.4-.8 3.2-2.7 2.8-5.6 5.5-8.3 8.3-16 16.1-32 32.3-48 48.4-1 1-1.7 2.1-3.3.6-1.6-1.5-.2-2.2.6-3 9.4-9.4 18.8-18.8 28.2-28.3zM491 372.1c1.4-.3 1.7.2 2.1.6 5.2 5.1 10.3 10.2 15.5 15.3l28.8 28.5c1.1 1.1 1.4 1.9.1 3.1-1.2 1-2.3 2.3-3.5 3.4-7.6 7.7-15.2 15.4-22.8 23.2-1 1-1.9 1.5-2.9.1-.8-1.2-2.8-2.2-1.1-4 1.8-2 3.7-3.9 5.7-5.9 6.5-6.6 13.1-13.3 19.7-19.9 1.3-1.3 1.2-2.2 0-3.3-1.7-1.6-3.4-3.3-5.1-5l-26.7-26.4c-3.3-3.1-6.4-6.3-9.8-9.7zm13.2-21.1-.3.3c-5.9-5.9-11.8-11.8-17.8-17.7-.9-.9-1.3-1.6-.2-2.8 1.1-1.1 1.7-.8 2.7.1 2.6 2.1 4.6 4.9 7.1 7.2 6.5 6 12.4 12.5 18.9 18.5 5 4.7 9.4 9.9 14.5 14.5 5.3 4.7 10 9.9 15.1 14.9.9.9 1 1.6 0 2.5-1.1 1-1.7.9-2.7-.1-12.5-12.6-24.9-25-37.3-37.4zm-134.5-30.6-.4-.4 42.6-42.6c.6-.6 1.2-1.8 2.3-.8 1 1.1-.2 1.7-.8 2.3-6.1 6.3-12.3 12.6-18.5 18.8-21.1 21.3-42.3 42.5-63.4 63.8-1.1 1.2-2.3 2.3-3.4 3.4-.6.6-1.1.4-1.5-.1-.4-.5-.3-.9.1-1.3l1.3-1.3c13.8-13.9 27.7-27.8 41.7-41.8zm3.3 136.8-.9.3-14.6-14.6c-1-1-.9-1.5.3-2.3 5.6-3.7 9.9-8.5 12.6-14.7.2-.5.4-1.2 1.7-.9.5 10.6.1 21.5.9 32.2zm10.9-218 .2-.2 8 8 22.8 22.5c1.5 1.5 1 3.3-1 4.1-.3.1-.7.1-.9 0-.4-.2-.6-.8-.2-1.1 2-2 .1-3-1-4.1-9.7-9.6-19.4-19.2-29.1-28.9-9.3-9.3-18.7-18.5-27.9-27.8-1.4-1.4-2.4-1.5-3.8 0-2.8 3-5.7 5.9-8.7 8.7-1.2 1.2-1.4 2 0 3.3 5.1 5 10.2 10.1 15.3 15.2 11.9 11.8 23.8 23.5 35.7 35.3.7.7 2.2 1.5 1.4 2.3-.9 1-1.6-.7-2.2-1.3-4.5-4.3-8.9-8.8-13.3-13.2-12.9-12.9-25.9-25.8-38.9-38.6-1.5-1.5-1.6-2.4-.1-3.9 3.5-3.3 6.8-6.7 10.1-10.2 1.4-1.5 2.3-1.7 3.8-.1 9.8 10.1 19.8 20 29.8 30zm-235.6 86.4c-.9-.9-1.9-2-3.1-3.1-1.2-1.1-1.3-1.9-.1-3.1 7-6.9 13.9-13.9 20.9-20.9 3.3-3.3 3.3-3.2 6.6.1 1 .9 1 1.5 0 2.4-5.4 5.3-10.7 10.7-16 16.1-2.6 2.9-5.4 5.6-8.3 8.5zm159.8-170.2-.1-.1c3.7-3.7 7.3-7.4 11-11 2.6-2.6 2.6-2.5 5.2-.1 1.5 1.3 1.5 2.2 0 3.7-7.5 7.3-14.8 14.8-22.3 22.1-3.4 3.4-2.2 3.4-6 .1-1.1-.9-1.2-1.5 0-2.6 4.1-4 8.1-8.1 12.2-12.1zm67.6 278.4c-.7-5.5-.3-10.3-.9-15-.7-5.2.7-9.3 5.1-12.4.2-.1.4-.4.5-.5.8-.8 1.7-.7 2.5-.1 4 3.2 6.9 7 6.1 12.6-.1 1.1-.4 1.6-1.3.7-1.2-1.1-1.9-.5-2.7.3-1.4 1.5-2.9 2.9-4.4 4.3-.9.8-1.3 1.6-.2 2.5.8.7 1.1 1.5.3 2.4-1.4 1.7-3 3.2-5 5.2zm-57.6-127.9-.1.1c-4-4-8-8-12-11.9-.9-.9-2-1.7-.6-3.1 1.5-1.5 2.2-.2 3.1.7 7.3 7.2 14.5 14.4 21.8 21.7 2.8 2.7 5.2 2.8 8 .1 2.4-2.3 4.8-4.7 7-7.1 1.2-1.2 1.9-.8 2.9.1 1.1 1 1.2 1.8.1 2.9-2.9 2.8-5.6 5.7-8.5 8.5-3.3 3.3-6.1 3.4-9.6.1-4.1-3.9-8.1-8-12.1-12.1zm242.9 178-.2-.2 20.4-20.4c.9-1 1.7-1.6 3-.4 1.2 1.2.7 2-.3 3-13.5 13.5-27 27.1-40.5 40.6-.8.8-1.5 2-2.9.6-1.4-1.3-.6-2.2.4-3.1 6.7-6.8 13.4-13.4 20.1-20.1zM314.5 368.8l-.2-.2 18.3-18.3c.8-.8 1.5-1.5 2.7-.3 1.2 1.2.9 1.9-.1 2.9-12.8 12.9-25.6 25.8-38.3 38.8-1 1-1.7 1.5-3 .4-1.4-1.3-.5-2 .4-2.9 6.6-6.9 13.4-13.6 20.2-20.4zm18 3.3 3.6 3.6c.4.4 1.1.7.8 1.4-.2.3-.9.5-1.3.5-8.8.9-16.1 4.8-22 11.2-1.2 1.3-2.1.9-2.9-.2-.8-1-2.9-1.6-1.2-3.7 1.1-1.3 2.9-1.6 3.7-2.9 2.4-3.9 6.1-6.6 9.1-9.9.7-.7 1.6-1 2.4-1.1.4-.1-.2 1 .5.8.5-.1.4-.7.2-1.1-.9-1.7.5-2.3 1.4-3.1 1.1-.8 1.7.4 2.3 1 1.2 1.2 2.3 2.4 3.4 3.5zM384 210.4c-2.2-2.1-4-5-6.6-6.3-2.8-1.3-4.4-3.6-6.6-5.4-.7-.5-1.2-1.3-.5-2.2.9-1.2 2.2-2 2.9-3.4 1.2.7 2.3 1.4 2.2 3 0 .1.4.2.7.3 2.6 1.2 4.5 3.4 6.4 5.5 2.9 3.1 5.8 6.2 8.8 9.1 2.9 2.9 5.9 5.8 9.1 8.5 1.4 1.2 1.1 2.1-.2 3.1-1.1.8-2 3.3-3.8.9-1.9-2.4-4.8-3.6-6.3-6.7-1.1-2.5-4-4.3-6.1-6.4zM239.1 393.5c.1 0 .1-.1 0 0 6.9 6.7 13.7 13.6 20.5 20.4.8.8 1.2 1.5.2 2.5-1.1 1.1-1.7.6-2.5-.2-2.7-2.7-5.5-5.3-8.2-8-.7-.7-1.5-1.2-.9-2.6.6-1.5-.8-2.8-1.9-2.4-2 .8-2.6-.4-3.6-1.4l-3.3-3.3c-7.7-7.6-15.4-15.3-23.1-22.9-1.4-1.4-1.3-2.8.2-3.4 1.4-.6 2 .7 2.7 1.4 6.7 6.6 13.3 13.2 19.9 19.9zm159.5 115.2-.3.3c-6.6-6.6-13.2-13.1-19.7-19.8-1-1-2.8-1.5-2.5-3.5 1.6.3 2.4 1.6 3.3 2.6 12.9 12.8 25.7 25.6 38.5 38.4 2.6 2.5 2.5 2.5 5.2-.1 12.6-12.7 25.2-25.3 37.8-37.9.7-.8 1.6-2.1 2.7-.9 1 1.1-.6 1.7-1.2 2.3-7.2 7.3-14.4 14.5-21.7 21.8-5.8 5.8-11.5 11.7-17.2 17.6-1.3 1.3-2.3 2.1-4.1.3-6.7-7.2-13.8-14.2-20.8-21.1zm82.9-94c-1.7.4-3.5.4-4.9 1.9-13.4 13.7-26.9 27.3-40.4 41-1.6 1.6-3.5 3-3.5 5.7-2.8-2-2.9-3.5-.7-5.7 7.2-7.3 14.5-14.6 21.8-22 7-7.1 14.1-14.1 21.2-21.2 2.5-2.5 4.3-2.4 6.5.3zm-44.2 124.2c1.2-.3 2.5-.1 3.3-1 .6-.7.9-1.8 1.8-.7.8.9-.5 1.4-.9 2.1-.3.5-1.7.5-.7 1.4.8.8 1.1-.4 1.5-.7l8.1-8.1 6-6c.4-.4 1.1-.9.4-1.4-.5-.4-.8.3-1.2.6-.3.3-.7.4-.8.9-.6 2.6-2.5 4-4.8 5.1-.8.4-1.6.8-1.7 1.7-.4 2.2-2.4 2.9-3.6 4.5-.4.5-1 .6-1.6.1-.5-.5-1-1-.6-1.8.3-.6.8-1.1 1.2-1.7 1.2-1.8 3.8-2.1 4.7-4 2.3-4.6 7.4-6.5 9.9-10.8.2-.4.8-.8 1.2-.9 1.4-.2 2.1-1.3 2.5-2.2.8-1.8 2.1-3 3.5-4 2.3-1.5 4.2-2.9 4.6-5.8.1-.6.6-.6 1.1-.3 2.9 1.5 3.2 3.5.9 5.8-9.3 9.5-18.7 19-28 28.4-3.1 3-4 2.8-6.8-1.2zm19.9-222.6.4-.4 37.9 37.9c1.1 1.1 2.2 2.2 3.2 3.3.4.4.7.9.3 1.3-.4.4-1 .1-1.4-.3l-.9-.9c-11.3-11.2-22.6-22.3-33.8-33.5l-35.1-34.8-12.5-12.5c-.4-.4-1.3-.9-.5-1.6.6-.5 1.1.1 1.5.5l.9.9c13.3 13.4 26.6 26.7 40 40.1zM238.5 384c7.6 7.4 15.1 14.9 22.6 22.4.8.8 1.3 1.6.4 2.6-1.1 1.3-1.6-.2-2.2-.7-14.7-14.9-30.2-29.1-44.4-44.5-.6-.7-2-1.3-.8-2.4 1.2-1.2 1.8.1 2.5.8 7.3 7.2 14.6 14.5 21.9 21.8zm235.3 203.5c3.9 2.2 3.9 2.4 1 5.3-4.8 4.7-9.5 9.5-14.2 14.3-4.2 4.3-8.5 8.6-12.7 12.9-.6.7-1.2 1.3-2 .3-.8-.9-.5-1 .5-1.5.7-.3.5-1.6-.2-2.2-.4-.3-.9-.3-.5-1.1.9-1.9 4.4-3.9 6.5-3.4-.9-.4-1.4-.6-.9-1.5 1.3-2.3 3.2-3.9 5.1-5.7 1.1-1.1 2 1.5 3.1.1 1-1.2-1.2-2.2-.1-3.3 1.5-1.5 2.9-4.1 4.5-4.3 2.4-.3 3.6.2 3.1-3.1-.2-1.3 2.6-3.1 4.1-4.6.2-.2.9-.3.9-.2.6 1.1 1.4 1.1 2.3.4 1.2-.8-.7-1.4-.5-2.4zM358 322.6c-1.3 1.3-2.7 2.6-4 4-1 1.1-2.1 1-3.1 0-1.6-1.5-3.2-3.1-4.7-4.6-1.1-1.1-1-2.3 0-3.4l7.2-7.2c1.3-1.3 2.6-1.5 4 0 1.4 1.4 2.8 2.7 4.2 4.1 1.2 1.2 1.2 2.3 0 3.5l-3.6 3.6zm-38.3 131.5.2-.2 1.8 1.8 38.9 38.6c.5.5 1.6 1.1.9 1.8-.7.7-1.3-.4-1.8-.8-.3-.2-.6-.6-.9-.9-13.1-13.1-26.2-26.1-39.4-39.2-13.6-13.5-27.2-26.9-40.8-40.3-.5-.5-1.5-1.1-.8-1.8.6-.7 1.2.2 1.6.6 13.4 13.5 26.8 27 40.3 40.4zm286 1.2c.4-.8.5-1.7 1.1-2.1 2.2-1.7 3.1-5.3 6.9-4.7.9.2 1-.7.9-1.4-.1-.5-.5-.9-.3-1.4.7-2 6.3-5.6 8.3-5.2.8.2 1.8.8 1.1 2.1-.3.5-.8.9-1.2 1.3-8.4 8.4-16.8 16.9-25.2 25.3-.7.7-1.1 1.9-2.4 1.6-1.4-.4-.2-1.8-.7-2.3-1.7-1.8-.2-2.8.9-3.7 1-.8 1.5-2.9 3.6-1.7.8.4 2-.4 1.4-1.5-.7-1.2 0-1.7.6-2.3l2.5-2.5c.7-.7 1.2-1.4 2.5-.5 1.1.8 1.7-.2 1.7-1.5-.8-.1-.8 1.1-1.7.5zM360.8 327c0-1.9-2.5-2.7-.3-4.9 9.7-9.6 19.2-19.4 28.8-29.1.9-1 1.7-1.9 3.1-.5 1.4 1.4.5 2.2-.4 3.1-6.8 6.8-13.6 13.7-20.4 20.5-3.5 3.6-7 7.1-10.8 10.9zm130.1 143.8c0 .1.1.1 0 0-4.9 5-9.8 10-14.8 14.9-.9.9-1.8 2.2-3.3.6-1.7-1.7.1-2.3.8-3.2 1.1-1.2 2.3-2.3 3.4-3.4 8.5-8.6 17-17.2 25.6-25.8.8-.8 1.6-2.4 3.3-.8 1.8 1.8.2 2.4-.8 3.4-4.7 4.8-9.4 9.6-14.2 14.3zm-37.7 50.1c0 .1.1.1 0 0-3.7 3.9-7.5 7.7-11.3 11.5-.5.5-.9 1.8-2 .6-1.4-1.6-1.3-3.9.3-5.4 6.3-6.4 12.6-12.7 19-19.1.4-.4.8-.9 1.3-1.3.9-.8 4.4-.5 4.9.4.8 1.4-.8 1.9-1.5 2.6-3.5 3.7-7.1 7.2-10.7 10.7zM302.7 387.4l21-21c.6-.6 1.2-1.8 2.3-.7.8.9-.2 1.5-.7 2.1-14.4 14.6-28.9 29.2-43.3 43.8-.6.6-1.3 2-2.4.8-1-1 .3-1.7.9-2.3 6.9-7.8 14.9-15 22.2-22.7zm212.5 180.9.1.1-25.5 25.5c-.6.6-1.2 1.7-2 .7-.7-.7.2-1.4.7-1.9 1.6-1.6 3.4-3.1 5-4.8 14.7-15.6 30.2-30.3 45.1-45.6.7-.7 1.5-2.4 2.6-1.2 1.1 1.1-.7 1.9-1.4 2.5-8.1 8.3-16.4 16.5-24.6 24.7zm-95.6-109.2-8.7-8.7c-.6-.6-1.4-1.3-.5-2.1.8-.8 1.4 0 1.9.5 1.8 1.7 3.5 3.5 5.3 5.2 4 3.7 7.4 8 12 11l30 19.8c.7.4 2 .9 1.1 2.1-.9 1.2-1.6.1-2.3-.4-6.3-4-12.7-8-18.9-12.1-7.4-5-15.4-9.2-19.9-15.3zm-134.2-288 .3.3-114.4 114.4-.3-.3c38.1-38.1 76.3-76.2 114.4-114.4zm192.2 229.4c2 2.3 5.6 4.8 8.1 8.5 6.8 10 13.5 20.1 20.4 30.1.5.7 1.1 1.3.1 2.1-1.3 1-1.6-.2-2.1-.9-3.9-5.8-7.7-11.6-11.7-17.4-4.7-6.9-8.9-14.2-15.3-19.7-3.5-3-6.6-6.5-9.8-9.7-.6-.6-1.4-1.2-.5-2.1.9-1 1.5-.2 2.1.4l8.7 8.7zm31.4 54.3c1.1-3.3.9-6.3 3.4-8.7 6.3-6 12.4-12.3 18.5-18.5 1.3-1.3 2.7-1.5 3.7-.4 1.1 1.1.1 2.3-.9 3.3-6.6 6.7-13.1 13.4-19.7 20-1.3 1.4-2.5 3.2-5 4.3zm-65.5 55.9-.1-.1 20.1-20.1c.4-.4.8-.9 1.3-1.2.5-.4 1-.1 1.3.3.3.4.4.8 0 1.2-.6.6-1.2 1.2-1.8 1.9-7.5 7.6-15 15.1-22.5 22.7-5.5 5.5-10.9 11.1-16.4 16.6-.8.8-1.8 2.5-3.1 1.1-1-1.1.6-1.9 1.3-2.6 6.8-6.7 13.4-13.3 19.9-19.8zM238.7 389.4l.1-.1c8.3 8.3 16.7 16.6 25 25 .5.5 1.7 1.1.8 2-.7.7-1.4-.2-1.9-.7-5.7-5.4-11.1-11.1-16.8-16.5-8-7.6-15.8-15.5-23.6-23.4-3.3-3.3-6.6-6.7-9.9-10-.5-.5-1.4-1-.7-1.9.9-1 1.5.1 2.1.6l.4.4c8.1 8.2 16.3 16.4 24.5 24.6zm11.2-23.2.2-.2 20.4 20.4c2.2 2.2 4.5 4.4 6.7 6.7.4.4 1.2.9.7 1.4-.7.8-1.1-.3-1.6-.6-.1-.1-.3-.2-.4-.4-10.7-10.6-21.3-21.2-32-31.8-6.5-6.5-13.1-13-19.6-19.5-.9-.9-1.7-2-3.1-.5-3.2 3.3-6.4 6.6-9.7 9.8-.9.9-.8 1.5 0 2.4.6.6 2.1 1.4 1.3 2.1-1 .9-1.5-.8-2.3-1.3-.2-.1-.3-.4-.6-.5-2.1-1.3-1.6-2.5 0-4 3.4-3.2 6.8-6.5 9.9-10 1.6-1.8 2.7-1.7 4.2-.1 8.6 8.9 17.2 17.5 25.9 26.1zm297.4 169.9 2.7 2.7c.5.4.8.9.4 1.5-1 1.9-4.4 2.8-6.1 1.4-3-2.5-6.2-4.6-9.4-6.9-2.8-2-3.1-5.6-.8-8.2 1.1-1.3 2.1-.8 3 .1 3.2 3.4 6.8 6.3 10.2 9.4zm-146.4 11.8 12.5-12.5c.6-.6 1.2-1.5 2.3-.5 1.1 1 .7 1.8-.2 2.5-1.5 1.1-2.5 2.7-3.8 4-4.2 4.3-8.7 8.5-12.8 12.9-2.4 2.6-5.6 4.3-7.1 7.7-.4.9-1.6 1.5-2.8 1.4-.8-.1-1.3-.6-1.4-1.3 0-1.3.6-2.3 1.6-3 .7-.5 1.8-.5 2.2-1.1 2.7-4.1 6.9-6.8 9.5-10.1zM235.1 370.6c2.1-3.3 6.6-5.5 9.5-4.8.6.2.9.7.6 1.2-1.1 1.4.7 2.9-.3 4.4-.3.5.8 1.4 1.8.7 1.3-.9 2.7.9 4-.3.2-.1.9.6.7.8-1.3 1.3.5 2.8-.4 4.2-.7 1.1.7 1.9 1.5 1.4 1.4-.9 2.9.9 4.3-.4.3-.3.9.4.7 1-.1.5-.6 1-.5 1.4 1.1 3.4-.9 5.3-3.1 7.2-.8-.5 0-1-.3-1.4-1.1-1.9-1.1-2.8 1.3-1.5.6.3 1-.1 1.1-.7.1-.8-.5-1.4-1.2-1.3-1.6.3-2.2-.2-1.9-1.9.1-.5-.5-1.3-1.3-1.3-.5 0-.9.5-.7.9 1.4 2.9 0 2.5-1.9 1.7-.1-.1-.4.2-.7.3-1.6.7-2 .1-1.4-1.3.3-.6.3-1 0-1.6-.5-1 0-1.5 1.1-1.1.7.3 1.5.5 1.6-.5.2-1-.7-1.3-1.5-1.2-1.3.1-1.6-.4-1.4-1.6.1-.8-.3-1.6-1.3-1.4-1 .2-.8.9-.5 1.6.5 1.2.1 1.5-1.1 1.2-.6-.1-2.5-2-2.7-2.6 0-.1-.1-.1-.2-.2-.5-1.3-.3-1.9 1.2-1.1.7.3 1.3.6 1.6-.4.2-.9-.6-1.5-1.1-1.4-2 .4-2.2-.8-2.2-2.3 0-.6-.5-.9-1.1-.7-.6.2-.8.7-.6 1.2 1.2 2.3.3 2.1-1.5 1.4-.3-.3-1.1.2-2.1.4zm2.1-7.1c-.4.3-1 1.1-1.9 1-1-.2-.5-1.1-.6-1.7-.2-.8-.5-1.6-1.5-1.3-.9.3-.6 1-.2 1.7.6.8.1 1.6-.6 1.3-1.1-.4-1.8-.4-2.8.1-.6.3-1.2-.4-.8-1.1.4-.8.6-1.4.1-2.3-.5-.9.1-1.5 1.1-1 .8.4 1.6.7 1.7-.4.1-.9-.7-1.5-1.5-1.3-1.8.3-1.8-.6-1.7-1.9.1-.7-.4-1.2-1.1-1.1-.7.1-1.1.6-.8 1.3.8 1.7.4 1.4-1.3 1.4-2.2 0-3.4.2-2.4-2.4.1-.1-.2-.4-.4-.6-.3-.4-.4-.8 0-1.1.4-.3.8-.2 1.2.1.6.4 1.4.9 1.6-.1.2-.7-.3-1.8-1.4-1.6-1.2.2-1.6-.2-1.4-1.3.1-1.1-.5-1.7-1.5-1.5-.9.2-.6 1-.2 1.7.5.8.1 1.6-.7 1.2-1.1-.5-1.9-.3-2.9 0-.7.2-1.3-.6-.9-1.1.6-.9.5-1.7.1-2.6-.3-.6.4-1 .9-.8 2 1 2.4.4 1.6-1.5-.2-.7.2-1.2.7-1.5.2-.1.5-.1.7 0 .7.4.3.9.1 1.5-.4 1.4.1 2.4 1.8 1.7 1.5-.6 2.9.7 4.4.1-.7 1.4.6 2.8.1 4.2-.1.2-.3.4-.4.7 0 .8.8 1.7 1.1 1.4 1.4-1 2.8.2 4.2-.4 1.2-.6 1.7.1 1.2 1.2-.7 1.4.9 2.9-.2 4.3-.1.1.6 1.2.9 1 1.4-1.1 2.9.6 4.2-.2.5-.3 1-.4 1.3.1.4.6-.1.9-.4 1.3-.4.2-.8.7-1.4 1.5zm143.2-103.3c-.4-1-.3-1.6-.6-2.3-.7-1.3-.2-1.8 1.1-1.2.7.3 1.3.5 1.8-.3.3-.5.3-1 0-1.4-.4-.7-1-.7-1.8-.3-1.1.6-1.8.1-1.2-1.1.5-1 0-1.6-.5-2.2-.5-.5-1 0-1.3.3-.8.6-.6 1.3 0 2 .3.3.4.8.1 1.2-.3.4-.8.4-1.1.1-.6-.4-1.3-.3-1.9-.5-1.5-.5-1.2-2.2-1.4-3.3-.1-1 1-.5 1.7-.2.9.4 1.6-.2 1.6-1.1 0-.9-.9-1.5-1.5-1.3-2.2.9-2.2.2-1.5-1.6.2-.6-.3-1.4-1.1-1.4s-1.5.6-1.2 1.3c1.7 3.8-1.3 1.6-2.2 1.7-2.1.3-.7-1.9-1.6-2.6-.4-.3-.4-.9.1-1.3.3-.3.8-.3 1.2 0 .6.6 1.2.5 1.7-.1.3-.4.6-.9.2-1.4-.5-.6-1.1-.9-2-.4-1 .5-1.9.2-1.2-1.1.5-.9.3-1.4-.3-2-.5-.4-1-.2-1.4.2-.6.6-.5 1.2 0 1.8.4.4.5.9.1 1.4-.4.4-1 .4-1.3-.1-.4-.5-1.4-.1-1.5-1.1 1.3-1.4 2.5-3 4.6-3.4 1-.2 1.6 1.2 2.8.3 1.2-.9 1.5-.2 1.2 1.2-.8 3.4 1.5 5.6 4.9 4.7 1.4-.3 1.4 0 1.2 1.4-.2 1.6-.7 3.9 1.4 4.5 1 .3 2.4 1.3 3.8.1.6-.5 1.3.2 1 1.1-.1.5-.7.8-.5 1.4 1.2 3.1-.9 5-3.4 7zm12.9-34c-.5 0-.9-.4-1.4-.8-8-7.9-15.9-15.8-23.9-23.8-.8-.8-1.3-1.6-.3-2.6 1-.9 1.7-.4 2.4.3 3.2 3.2 6.5 6.2 9.6 9.6 4.9 5.5 11.9 9.3 13.6 17.3zm-90.7 250.1c-4.6-4-5.1-7.5-.6-11.6 3-2.7 7.6-2.1 9.5 1.6.2.4.5.8.1 1.1-.2.2-.7.2-1 .1-.6-.2-1.1-.5-1.7-.7-1.4-.4-2.8-.4-3.7.9-.9 1.3-.7 2.5.1 3.8.6 1 1.6 1.5 2.4 2.3.8.8 2.4 1.4 1 3-1.8 2.1-3.1 2.4-4.7 1-.6-.6-1.1-1.2-1.4-1.5zm146.6 40.8c-3.1 3.2-6.2 6.3-9.4 9.5-.6.6-1.2 1.4-1.9 1.7-1.2.5-2.6.2-3-1.1-.4-1.3 1-1 1.7-1.2 1.4-.3 2.5-1.1 2.8-2.4.9-4.1 3.6-6.2 7.2-7.7 1.2-.5 1.9-1.6 2.4-2.8 1.3-3 3.2-5.5 6.7-6.2 1.5-.3 2.2-1.4 2.6-2.8.1-.6-.2-1.6.8-1.5 1 .1 1.3 1 1.3 2 0 1.1-.6 1.9-1.3 2.7-3.3 3.1-6.6 6.5-9.9 9.8zM243.9 387.8l-.3.3-19.5-19.5c-2.4-2.4-4.8-4.8-7.2-7.3-.5-.5-1.5-1-.7-1.8.7-.7 1.1.4 1.6.8.2.1.4.4.5.5l49.2 48.9c1.1 1.1 2 2.4 3.3 3.2 2.1 1.4 2.5-1.3 3.9-1.9.7-.3 1.5-.2 1.3.5-.6 1.7-2 2.7-3.4 3.7-1.1.9-1.6-.4-2.2-1-8.9-8.8-17.7-17.6-26.5-26.4zm334.3 114.7-.2-.2c6.3-6.3 12.6-12.7 19-18.9.7-.7 1.5-2.6 2.7-1.3 1.1 1.1-.7 1.8-1.4 2.5l-32.4 32.7c-2.3 2.3-4.6 4.5-6.9 6.8-.3.3-.7.9-1.3.4-.6-.5-.3-1.1.1-1.5.4-.4.8-.9 1.2-1.3 6.5-6.4 12.9-12.8 19.2-19.2zm-122.1-93.6c-.2 2.1-.5 4.1-2 5.6-7.2 7.2-14.3 14.4-21.5 21.5-1.4 1.4-3.4 2-5.6 2 9.7-9.8 19.4-19.4 29.1-29.1zm-56.6 45.7c-.1 0-.1 0 0 0l8.7-8.7c1.8-1.8 3.5-3.5 5.2-5.3.6-.6 1.2-1.1 2-.3.7.7.1 1.2-.3 1.7-.3.4-.7.7-1.1 1.1-7.9 8-15.9 16-23.8 24-1 1-1.9 2-2.9 2.9-.6.6-1.3 1-2 .3s-.2-1.3.3-1.8c.4-.5.9-1 1.4-1.5 4.1-4.1 8.3-8.2 12.5-12.4zm153-58.9c3.9-3.9 7.3-7.3 10.8-10.7.7-.6 1.3-1.9 2.5-.8 1.3 1.2 0 1.8-.6 2.5-2.7 2.8-5.4 5.5-8.1 8.2l-15.7 15.7c-.6.6-1.1 1.1-1.9.3-.7-.8-.4-1.4.2-2 .5-.5 1.4-.7 1.8-1.3 3.2-4.7 7.8-8 11-11.9zm-240.6 89.9-2-2c-.5-.5-.7-1.1-.2-1.8 1.7-2.7 3.1-2.9 5.2-.6.3.4.7.7 1.1 1.1 1.1 1 2.3 1.4 3.7.6 1.5-.8 1.9-2.1 1.6-3.7-.1-.6-.4-1.1-.5-1.7-.1-.4-.2-.9.2-1.2.4-.3.8.1 1.1.3 2.4 1.5 3.3 5.4 1.7 7.7-3.6 5-7.7 6.1-11.9 1.3zm52.7-250c-1 .2-1.6 1.7-2.7 1.3-1.2-.4-.1-1.4-.2-2.2-.1-.7-.6-1.4-1.4-1.1-.7.2-1.3.8-.8 1.8.4.7.8 1.6-.4 1.7-.9.1-1.9-.2-2.6-.7-1-.8-1.2-2.3-1.1-3.4.1-1.1 1.2-.1 1.9 0 .9.2 1.4-.5 1.4-1.1 0-.8-.6-1.7-1.4-1.4-2 .7-2.7.5-1.7-1.7.2-.5-.1-1-.6-1.3-.4-.2-.8-.3-1.2 0-.4.3-.8.7-.6 1.3.3.6 1.2 1.6.1 1.9-1.1.3-2.7 0-3.4-.9-.6-.8-1-2.2-.7-3.2.3-1.1 1.2-.1 1.9 0 .8.1 1.4-.4 1.3-1.1-.1-.9-.7-1.6-1.8-1.1-1.6.7-2.1.3-1.2-1.3.2-.4.3-.8 0-1.2-.4-.5-1.4-.7-.6-1.5.7-.7 1.3-.3 2 .3.5.4.9 0 1.4-.2 1.2-.5 1.5-.3 1.1 1.1-.9 3.5 1.3 5.8 4.7 4.9 1.5-.4 1.8-.4 1.5 1.3-.3 1.5-.4 3.9 1.3 4.4 1 .3 2.5 1.4 4 .2.7-.5 1.5.2 1 1.3-.4.6-.8 1.2-1.2 1.9zM477.5 298c.5.5.9 1 1.5 1.4 1.4 1.1 1.1 2 0 3.3-1.7 2-2.9 1.9-4.3-.1-.3-.5-.8-.9-1.3-1.2-1.2-.9-2.5-1.4-4-.4-1.4 1-1.6 2.3-1.2 3.8.1.4.3.8.4 1.2.1.4.2.9-.2 1.2-.5.5-.9 0-1.3-.3-2.6-1.9-3.2-5.6-1.1-8.1 3.3-4.2 7.2-5.8 11.5-.8zm-128.2-97c0-.1-.1-.1 0 0 2.2-2.3 4.5-4.6 6.8-6.9.7-.8 1.5-1.6 2.5-.4 1 1 .2 1.7-.5 2.3-5.7 5.8-11.4 11.6-17.2 17.3-.7.7-1.5 1.9-2.7.6-1.2-1.3.1-2 .8-2.7 3.4-3.4 6.9-6.8 10.3-10.2zm55.6 81c-2.4 2.9-2.4 2.9-4.8.4-1.1-1.1-2.1-2.2-3.3-3.2-1.5-1.2-1.2-2.1.1-3.3 1.4-1.2 2.7-2.6 4-4 4.4-4.3 4.4-4.3 8.9-.1 3.1 2.9 3 3.4-.6 5.6-1.3-4-2.7-5.3-5.3-5.1-2.3.2-3.8 1.5-4.1 3.9-.4 2.9.7 4.1 5.1 5.8zM280.1 408.2c-2.6 3-2.6 3-5.1.5l-1.8-1.8c-2.8-2.7-2.8-2.8-.2-5.5.9-1 1.9-2 2.8-2.9 4.6-4.6 4.6-4.6 9.2.1 2.7 2.7 2.7 2.9-.8 5.2-1.1-3.9-2.7-5.3-5.5-5-2.2.3-3.8 2-4 4.3-.2 2.7 1.2 4.1 5.4 5.1zM408.6 260c2.2-2.4 4-4.5 5.5-6.9 3.4-5.3 2.3-5.2 7.3-.4.9.9.8 1.5 0 2.3-2.1 2-4.1 4.1-6.1 6.1-.5.4-1.1 1.2-1.7.5-1.3-1.5-3-1.3-5-1.6zm-41.8 235c-.3.3-.5.7-.8 1-.5.5-.9 1.4-1.8.5-.8-.8-.2-1.4.3-2 6-7.5 12.1-15 18.1-22.4.5-.6.9-1.7 2-.9 1.1.9.1 1.6-.4 2.3-5.5 7.4-11.5 14.4-17.4 21.5zm107.7-115.5c4.3-3.5 8.5-7 12.8-10.5 3.2-2.6 6.4-5.1 9.6-7.6.7-.5 1.3-1.3 2.1-.4.9 1.1-.4 1.5-.9 2-1.4 1.3-3 2.6-4.5 3.8-6 4.8-11.9 9.6-17.9 14.4-.7.5-1.4.9-2 0-.3-.8.2-1.3.8-1.7zm-208.3-176c.6 2 .4 3.2-.8 4.3-4 4-7.9 8-11.9 12-1.7 1.7-3.4 3.3-3.3 6.1-2.2-2.2-2.5-3.7-.7-5.6 5.3-5.6 10.9-11 16.7-16.8zM202.7 267c6.1-6.1 11.8-11.9 17.7-17.5 1.3-1.2 3.2-1.4 4.8.6-1.4.7-2.9.9-4 2-4.5 4.5-9.1 9-13.6 13.6-1.3 1.1-2.5 1.9-4.9 1.3zm2.7 101c.3 2.3 1.7 3.9 3.2 5.5 2.8 2.9 2.8 3.4-.5 6-.6.4-1.2 1.1-2 .4-2-2.1-4.9-3.9-5.6-6.4-.6-2 2.7-3.7 4.5-5.3-.1-.1.1-.1.4-.2zm-39.7-50.9c-1.8 1.8-3.5 3.5-5.2 5.3-.9.9-1.6 1.5-2.8.3-1.1-1.1-.7-1.9.2-2.8l10.5-10.5c.8-.8 1.5-1.2 2.6-.2 1 1 1 1.8 0 2.8-1.8 1.6-3.5 3.3-5.3 5.1zm260.2-60.4c1.7-.9 2.3-3.3 4.6-3.3.7 0 1.4-.3 1.8.5.3.7-.4 1-.6 1.5-2.7 4.7-7.8 7.1-10.9 11.5-.7 1-2 3.6-4 1.5-1.8-1.9.7-2.7 1.6-3.8 1.1-1.3 2.1-2.9 4.2-3-.1-2.6 2.4-3.1 3.3-4.9zM297.6 374.6l.5-.5 11.8-11.8c.5-.5 1.1-1 1.7-.6.7.4.2 1-.2 1.5-3.6 3.6-7.2 7.3-10.9 10.8-2.5 2.4-5.1 4.6-7.4 7.1-2.1 2.3-4.3 4.5-6.3 6.9-.4.5-1.3.9-1.8.3-.6-.6.2-1.2.6-1.6 4-4.2 8-8.2 12-12.1zm160.2 94.5.1-.1 12.8 12.8c.5.5 1.7 1.1.7 2-.8.7-1.4-.3-1.9-.8-8.5-8.4-17-16.8-25.4-25.3-.5-.5-1.7-1.1-.8-2 .9-.9 1.5.4 2 .9 4.2 4.1 8.4 8.3 12.5 12.5zm30.9-30.9-.1.1c-4.3-4.3-8.6-8.5-12.8-12.8-.4-.4-1.8-.7-.7-1.7.9-.8 1.4.3 1.8.7 8.6 8.5 17.2 17 25.8 25.6.4.4 1.3.9.7 1.6-.7.9-1.2.1-1.8-.5-4.2-4.4-8.6-8.7-12.9-13zm-143.1-95.8s0 .1 0 0c-2.2 2.3-4.4 4.6-6.7 6.7-.6.6-1.3 1.9-2.5.8-1.2-1.1-.2-1.8.5-2.5 4.4-4.5 8.9-8.9 13.4-13.4.7-.7 1.4-1.3 2.3-.3.9.9.2 1.5-.4 2.1l-6.6 6.6zm203.9 84.2c-3-3-5.9-6-9-8.9-1.4-1.3-1.6-2.2-.1-3.7 1.6-1.7 2.2 0 3 .7 1.1.9 2 2.2 3.1 3 3 2.2 3.5 5.2 3 8.9zM313.2 160.1l-.1-.1 10.1-10.1c.7-.7 1.5-1.4 2.3-2 .4-.3.8-.2 1.1.2.2.4.1.5-.3.7-1.7.7-2.7 1.9-3.1 3.8-.2 1-1.2 2.1-2.7 2.3-1.7.2-2.9 1.5-3.2 3-.3 1.8-1.3 2.7-2.8 3.1-1.7.4-2.6 1.5-3.1 3-.6 1.7-1.4 3-3.4 3.2-1.4.1-2.4 1.3-2.6 2.2-.5 2.2-1.5 3.5-3.8 3.8-.4.1.3 1-.5.6-.3-.2-.4-.5-.1-.9.7-.9 1.4-1.8 2.1-2.6 3.4-3.4 6.8-6.8 10.1-10.2zM178.8 297.9l.5-.5 36 36-.5.5-36-36zm281.8 200.3c.8-1.2 1.4-2.3 3-.7.8.9 2.2.4 3.2-.6 1.1-1 1.6-2.5.7-3.4-2.2-2.3.1-2.3 1.2-3 2.2-1.2 4.8-.7 7.4-1.8-2.8 3.6-6 6.4-9 9.4-1.5 1.5-2.8 3.7-5 .7-.2-.4-1-.4-1.5-.6zm-135-18.1c3.8 2.5 3.7 2.5.9 5.4-2.3 2.4-4.6 4.8-7 7.2-.6.6-1.2 1.6-2.1.7-3-2.9-6-5.9-8.9-8.9.1-.2.3-.3.4-.5 3.1 2.3 5.3 6.3 10 5.3 3.4-.6 6.2-4.4 6.7-9.2zM385.5 236c2.4 2.3 4.7 4.6 7.1 7 .5.6 1.6 1.2.7 2-.7.7-1.3-.2-1.9-.7-4.6-4.6-9.2-9.1-13.8-13.7-.6-.6-1.6-1.2-.6-2.1.8-.7 1.3.2 1.9.7 2.1 2.3 4.3 4.6 6.6 6.8zm-19.1-27.7s0 .1 0 0c-.8-.7-1.4-1.5-2.2-2.1-1.4-1.2-1.4-2.2-.1-3.6 1.3-1.3 2.2-1.7 3.5-.2.9 1.1 2 2.1 3 3.1 1.7 1.7 1.9 3.6-.1 5.3-1.6 1.4-2-1.1-3.1-1.5-.3-.1-.6-.6-1-1zM210.6 347.6c0 .1 0 .1 0 0-1.5 1.7-3.2 3.3-4.8 5-.7.7-1.4 1.4-2.3.5-1-.9-.3-1.6.4-2.3 3.2-3.3 6.5-6.5 9.7-9.8.6-.6 1.2-1.2 2.1-.3.8.9.5 1.5-.2 2.1-1.7 1.6-3.3 3.2-4.9 4.8zm33.2 57c-1.6.7-1.9-.1-2.4-.6-6.3-6.2-12.7-12.4-19-18.5-.6-.6-1.2-1.2-1.6-1.9-.2-.4-.8-.9-.2-1.3.6-.5.8.1 1.2.5 1.8 1.8 3.7 3.5 5.4 5.3 5.4 5.3 10.9 10.8 16.6 16.5zm-69.9-112.8c.9 1 1.9 2 2.8 2.9 1.3 1.2 0 1.9-.6 2.7-.7 1-1.3 1-2.3.1-1.6-1.5-3.1-3.1-4.8-4.5-1.1-.8-1.3-2.6 0-3.9 1.3-1.3 2.1-.2 2.9.6.7.8 1.3 1.5 2 2.1zm215.4 144.6c-.2.1-.4.1-.6.2-2-2-3.8-4.1-6-5.9-1.8-1.5-.7-2.5.4-2.5 2.4.1 3.7-1.7 5.8-3 .1 4.1.2 7.6.4 11.2zm2.2 12.6c2.4 1.6 3.9 3.6 5.7 5.4.5.5.4 1.1-.1 1.6-1.8 1.7-3.4 3.7-5.7 5.2.6-4.2-.3-8 .1-12.2zm73.8-60.5c2-2.1 4-4.2 6-6.2.5-.5 1.1-1.3 1.9-.4.6.6.3 1.3-.2 1.8l-13 13c-.5.5-1.1.9-1.8.3-.7-.7-.1-1.2.4-1.7 2.3-2.3 4.5-4.5 6.7-6.8zM293.1 227.1l-6.7 6.7c-1.2 1.2-1.9.3-2.7-.5-.8-.7-1.5-1.3-.6-2.5 2.5-3.3 5.4-5 10-3.7zm27.7-28.7c2.1-2.2 3.6-2.1 5.4.4.7 1 1.8 2 .3 3.5-1.6 1.6-1.6 1.7-2.7 1.2-.1-.1-.4.3-.6.4-.6.3-1.1.1-1.7-.2-1.2-.7-1.2-2.3-2.4-3.1-.4-.4 1.2-1.5 1.7-2.2zm111.5 65.2c-1.3 1-2.2 2.8-4.3 3.2-.6.1-1 .6-1.6 0-.4-.5-.2-.9.1-1.4 1.7-3.8 5-6 8.2-8.3.4-.3.8-.2 1.1.2.4.4.2.9.1 1.4-.4 2.1-2.1 3.3-3.6 4.9zm-46.1-28.8c-1.2-1.3-2.4-2.6-3.7-3.7-.7-.6-1.3-1-.6-1.8.6-.6 1.1 0 1.6.6 5.1 5.2 10.3 10.3 15.5 15.4.6.6 1.7 1.2 1.1 2-.9 1-1.6-.2-2.2-.8-3.9-4-7.8-7.8-11.7-11.7zm-183.8 112c3.5-2.4 6.1-5.8 9.2-8.6.3-.3.5-.7 1-.4.4.3.8.7 1 1.1.2.6-.2 1-.8 1-.6 0-1 .4-1.2.8-1.7 3.3-5.2 5.1-7.4 8.1-.7.9-1.7 3.2-3.3 1.7-1.8-1.7 1.1-2.3 1.5-3.7zm198.3-117.6c-1.4 1.5-2.2 1.8-3.2.6-1.6-2-3-4.1-4.4-6.2-.2-.3-.4-.8-.1-1.2.5-.5.9 0 1.3.3 1.1 1 2 2.4 3.2 2.8 1.7.5 2.2-1.7 3.5-2.4.5-.3.9-.6 1.4-.3.4.2.6.7.4 1.1-.6 1.8-.8 3.7-2.1 5.3zm-132.9 14.2c2.8-.1 4.4-1.6 5.9-3.2.6-.7 1.4-1.4 2.4-.4.7.8 2.4 1.3 1.6 2.5-1.2 1.8-2.6 3.6-5 4.1-2.2.4-3.4-.9-4.9-3zm-73.5 116.9s0-.1 0 0c1.3-1.5 2.7-2.9 4.1-4.2.5-.5 1-1.3 1.9-.9.5.3 1.1.6 1 1.3-.1.9-.9 1.2-1.6 1.5-1.8.9-3.6 1.8-4.2 3.8-.7 2.1-2.2 3.4-3.7 4.8-.7.6-1.4 1.1-2.2.2-.7-.8-.4-1.5.3-2.2 1.6-1.4 3-2.9 4.4-4.3zm72.2 70.6-2.9 2.9c-.5.5-1.1 1.2-1.7.3-.5-.7-1.7-1.4-.7-2.4 2.4-2.5 4.4-5.6 7.8-7.2.4-.2.8-.3 1.2 0 .5.4.2.8.1 1.3-.7 2.2-2.4 3.5-3.8 5.1zm-35.2-142-1.1 1.1c-.7.6-1.3 2.1-2.3 1.8-1.1-.3-.3-1.8-.5-2.7-.6-2.2.9-3.4 2.2-4.8 1.2-1.4 2.2-1.7 3.7-.3 1.6 1.6.6 2.5-.5 3.5-.6.4-1 .9-1.5 1.4zm85.5 68.7-2.9 2.9c-.3.3-.8.6-1.1.3-.4-.4-.4-1-.1-1.4.4-.5.9-.8 1.3-1.2 4.1-4.4 8.8-8.2 12.6-12.9.5-.6.9-1.4 1.8-.5.7.8 0 1.4-.5 1.9-4 3.5-7.9 7.3-11.1 10.9zM211.7 231.8c-.1-.1-.2-.3-.3-.4l34-34 .4.4c-11.4 11.3-22.7 22.6-34.1 34zm-5.2 137.1c1.3-.5 2.1.4 2.9 1.1 3.1 3 6.2 6.1 9.3 9.1.5.5 1.3 1.2.6 2-.8.9-1.6.2-2.2-.4-2.3-2.2-4.5-4.4-6.7-6.7-1.5-1.4-3.2-2.8-3.9-5.1zm201-129.4c-1.1 1.3-2.3 2.5-3.5 3.7-.5.5-1 1.1-1.7.6-.8-.5-.4-1.2-.1-1.8 2-3.1 4.6-5.6 7.6-7.8.5-.4 1.3-.7 1.8.2.4.6 0 1.1-.4 1.6-1.3 1.1-2.5 2.3-3.7 3.5zm-96.7 236.4c1.1-1.1 2.1-2.2 3.2-3.3.6-.6 1.2-1 2-.3s.4 1.4-.2 2l-6.5 6.5c-.6.6-1.3.9-2 .1-.7-.7-.3-1.4.3-2 1.1-1 2.2-2 3.2-3zm-25.2-233.8c-1.5.5-2.7 2.8-3.9 1.3-.9-1.2-.5-3.6-.6-5.4 0-.1.1-.1.2-.2 1.7-.9 3.6 1 5.2-.3.1.1.1.3.3.4 1.7 2.1-1.4 2.7-1.2 4.2zm55.3 91.9c-.8.8-1.6 1.6-2.4 2.3-.6.7-1.3 1.2-2.2.3-.9-.8-.9-1.6-.1-2.4l4.7-4.7c.9-.9 1.6-.6 2.4.1.9.9.3 1.5-.3 2.1-.6.8-1.3 1.6-2.1 2.3zm28-111.9c-1.7-1.7-3.4-3.3-5.1-5-.4-.5-1.2-.9-.4-1.7.6-.6 1.1 0 1.5.4 3.5 3.4 7 6.9 10.5 10.4.4.4 1.2 1 .4 1.7-.7.6-1.3-.1-1.7-.6l-5.2-5.2zM357 307.6c-.9 1-1.5 1.2-2.1 1.5-.8.3-1.4 1.1-2.3.3-.9-.8 0-1.3.2-2 .2-.6.2-1.2-.3-1.6-.7-.6-.4-1.2.1-1.7.5-.6 1.1-.9 1.8-.3.7.5 1.4.7 2.1.1.4-.3.7-1.2 1.3-.2.3.6 1.3 1.1.7 2-.7.7-1.2 1.5-1.5 1.9zm-114-26.1c.2.6 1.4.8.7 1.6-1.3 1.4-2.2 3.3-4.2 4-.6.2-1.4.6-1.5 0-.4-1.8-.5-3.6-.6-5.4 0-.5.7-.9 1.4-.8.2 0 .3.1.5.2.8.8 1.5 1 2.4 0 .6-.7 1-.2 1.3.4zm72.1-88.5 3.6 3.6c.3.3.9.8.4 1.3-.3.4-1 .4-1.4.1-.6-.4-1.2-1-1.7-1.5-2.4-2.5-4.6-5-7.1-7.4-.7-.6-.9-1-.4-1.6.7-.8 1.1-.1 1.6.4 1.7 1.8 3.4 3.5 5 5.1zm-36.2 42.1c.2-.1.8-.3 1.2-.7 1.9-1.9 3.1.1 4.4.8.6.3.6 1 .1 1.5-.4.4-.9.5-1.3.1-.5-.5-1.2-1.7-1.7-.6-.5 1.2-3.2 1.6-1.4 3.7.5.6.4 1.1-.2 1.5-.6.4-1.1.1-1.6-.3-1.8-1.7-1.7-3.8.5-6zm94.3 56.5c-.7.8-1.4 1.1-2 1.5-.7.5-1.7.8-1.9 0-.4-1.6-.5-3.4-.4-5.1 0-.7 1.1-1.3 1.9-.7.9.6 1.6.7 2.5-.1.5-.5.8-.1 1.2.4 1.5 2-1 2.8-1.3 4zm-170.3 64.7c-1.2-1.3-2.5-2.6-3.7-3.9-.5-.5-1.2-1-.4-1.7.6-.5 1.1 0 1.5.4l8.1 7.8c.5.5.9 1.2.3 1.8-.7.6-1.3 0-1.8-.5-1.4-1.2-2.7-2.6-4-3.9zm116.9 138.6c1.5-4.2 5.1-6.2 7.7-9.1.4-.4.9-.2 1.4.2.6.5.4 1 0 1.5-1.2 1.4-2.5 2.8-3.8 4.1-1.4 1.5-2.5 3.3-5.3 3.3zm-38.9-105.2c.5-.2.8-1.7 1.9-1.1 1.5.8 2.7 2 2.4 4.1-.2 1.1-.6 2.6-1.5 2.3-1.7-.5-3.3-1.8-4.8-2.8-.1 0 .1-.6.3-.9.5-.4 1-.9 1.7-1.6zm9.2-217.2c-.6-.6-1.1-1-1.5-1.5-.4-.5-1.3-.8-.8-1.7.4-.7 1.1-1.4 2.1-1.2.8.1 1.6.2 2.2.5 2.9 1.4 3.5 3.8 1.5 5.3-2.1 1.8-2.4-1.1-3.5-1.4zm76.4 112.6c2-1.9 4.1-2 5.8-.3.4.4.8.9.3 1.5-.5.5-.9.7-1.5.2-.5-.4-.9-1.7-1.7-.5-.6 1-2.6 1.5-1.5 3.2.4.6.7 1.3-.1 1.8-.9.6-1.4-.2-1.8-.8-1.6-1.7-1.4-3.2.5-5.1zm-131.2-6.4c2-1.9 3.7-1.9 5.5-.1.5.5 1 1 .3 1.7-.5.5-1.1.4-1.5-.1-.5-.6-1.3-1.5-1.6-.2-.3 1.3-3.4 1.2-1.5 3.2.6.6.7 1.2 0 1.8-.8.6-1.2 0-1.7-.5-1.9-1.9-1.8-3.6.5-5.8zm115.1 22.4c.1-.1.7-.4 1.1-.8 1.9-1.8 3.1-.2 4.4.9.4.3.6.9.1 1.4-.4.4-.9.5-1.3.1-.6-.5-1.2-1.6-1.9-.3-.5 1-2.7 1.4-1.2 3.2.4.5.5 1.1-.1 1.6-.7.5-1.3.1-1.8-.4-1.9-1.9-1.8-3.1.7-5.7zm-25-89c1-.5 1.3-2.1 2.7-1.5.7.3 1.5.8 1.5 1.6.1 1.4-1.1 1.9-2.2 2.5-.9.4-1.3 1.2-1.7 2.1-.8 1.5-1.8 1.5-2.4-.2-.7-2.1 1.1-3.1 2.1-4.5zm25.9 117.4c.1.1.2.1.3.2l-33.7 33.7-.2-.2c11.2-11.3 22.4-22.5 33.6-33.7zm-137.1 8.4c-1.2-1.1-1.1-1.8.1-2.5 1.8-1.1 5.5.5 5.9 2.6.2 1-.8 1.4-1.3 2-.4.5-1.1.6-1.6.1-1-1-2.1-1.7-3.1-2.2zM476.8 306c1.1-1.2 2.3-2.3 3.4-3.4.6-.6 1.1-.7 1.7 0 .5.6.3 1.1-.2 1.5-2.3 2.3-4.5 4.6-6.8 6.8-.4.4-1 .8-1.6.3-.6-.5-.6-1.2 0-1.8 1.2-1.1 2.4-2.3 3.5-3.4zM253.7 424.1c-.1 0-.1-.1 0 0 .5-.6 1-1.1 1.6-1.7.8-.9 1.6-1.2 2.5-.1.9 1 .5 1.6-.3 2.3-1.1 1.1-2.3 2.2-3.4 3.4-.9.9-1.4.4-2.1-.2-.7-.7-.8-1.2-.1-1.9l1.8-1.8zm-70.2-116.8c-1.2-1.1-2.3-2.2-3.5-3.4-.4-.4-.8-1-.1-1.5.5-.4 1.1-.5 1.6 0 2.3 2.3 4.6 4.6 6.8 6.9.4.5.6 1 .1 1.6-.6.6-1.1.3-1.5-.2-1.1-1.2-2.2-2.3-3.4-3.4zm20.6 20.4s-.1.1 0 0c-1.2-1.1-2.3-2.2-3.5-3.4-.4-.4-1-.8-.4-1.5.5-.6 1.2-.7 1.8-.1l7 7c.6.6.4 1 0 1.6-.6.7-1 .3-1.5-.2-1.2-1.1-2.3-2.2-3.4-3.4zm-10.4-10.3c-1.1-1-2.2-2.1-3.3-3.2-.5-.5-.8-.9-.2-1.5.5-.5 1.1-.5 1.6 0 2.2 2.2 4.5 4.4 6.7 6.7.5.5.6 1 .1 1.6-.5.6-1.1.3-1.5-.1-1.1-1.2-2.3-2.4-3.4-3.5zm305.7 1.3c-1.7 4.6-5.3 6.6-7.9 9.5-.4.4-1 .4-1.4-.1-.4-.4-.4-1 0-1.4 2.9-2.5 5-5.9 9.3-8zm-302.5 54.6c-1.5-.5-2.3-2-3.6-2.9-2.2-1.7-1.4-3 .2-4.4 1.1-1 1.6-.7 1.9.6.5 2.2 2 4.2 1.5 6.7zm186.5 64c-1 1.5-2 2-3.6.5-1.5-1.5-1.3-2.4.1-3.7 1.2-1.2 2-2 3.7-.3 1.3 1.4 1.5 2.4-.2 3.5zm-85.1-258.7c0 .1 0 .1 0 0-1-.8-1.9-1.7-2.8-2.6-.5-.5-.8-.9-.3-1.5.6-.6 1.1-.1 1.5.3l7.8 7.8c.5.5.3.9-.1 1.2-.5.4-.7.4-1.2-.1-1.4-1.8-3.2-3.4-4.9-5.1zM286.9 272c.1.1.2.2.3.4L270 289.6c-.1-.1-.2-.2-.3-.4 5.7-5.7 11.4-11.5 17.2-17.2zm-51.3 94.1c1.4-1.5 2.9-2.9 4.3-4.3.3-.3.7-.9 1.3-.5.7.5.2 1.1-.2 1.5-2.9 3-5.9 5.9-8.8 8.9-.4.4-.8.8-1.3.3-.5-.4-.1-1 .2-1.3 1.5-1.6 3-3.1 4.5-4.6zm13.8-172.2c-.1-.1-.2-.2-.4-.3l15.2-15.2.3.3c-5 5-10.1 10.1-15.1 15.2zm12.4 187.7c0 .2.2.4.1.5-2.8 3.5-6.2 6.5-9.3 9.7-.3.3-.8.5-1.1.2-.5-.6.1-1.1.5-1.5 2.6-2.6 5.1-5.2 7.7-7.7.6-.6 1-1.6 2.1-1.2zm214.8-68.5c.5-.9 1-1.7 1.4-2.7.7-1.6 1.5-1.6 2.6-.5.4.4.9.8 1.3 1.2.8.8 1.7 1.5.6 2.7-1 1-2 1.7-3.1.2-.6-.9-1.5-1.1-2.8-.9zm-5.8-5.1c.8-1.5.4-2.4-.5-3.1-1.2-1-.7-1.8.2-2.7.9-.9 1.6-.9 2.6-.1 3 2.4 3 3.3-.4 5.1-.4.2-.9.4-1.9.8zm-185.1 89.7c-.2-.4-2.2-1.1-.4-2.6 1.5-1.3 3-1.1 4.5.2s.9 2-.1 3.3c-1.5 1.7-2.5 1.1-4-.9zm81.5-202.1c.8-.9 1.6-1.7 2.5-2.5.5-.5 1.1-.6 1.6 0 .5.5.4 1.1 0 1.6-1.6 1.6-3.3 3.2-4.9 4.8-.5.5-1.2.8-1.8.1-.6-.7 0-1.2.5-1.7.7-.9 1.4-1.6 2.1-2.3zm-48.7 279.7c-1.2 2.1 0 2.7.8 3.6.6.7.7 1.3 0 2-.7.6-1.2 1.7-2.3 1-1.2-.7-2.5-1.7-2.8-3.1-.3-1.5 1.4-1.7 2.3-2.3.3-.4.8-.5 2-1.2zm231.8 3.5c-1.4-1.4-2.2-2.7-2.7-4-.4-.9.1-1.4 1-1 1.9.8 3.7 1.8 4.8 3.6.4.7.7 1.5.1 2.1-.6.6-1.4.4-2.1 0-.6-.3-1.1-.7-1.1-.7zM361.4 195c-.5-.5-1-1-1.5-1.4-.8-.7-1.1-1.5-.2-2.4.9-.9 1.6-.6 2.4.2.9 1 1.9 1.9 2.9 2.9.8.8.6 1.5-.2 2.2-.7.6-1.3.7-2 0-.4-.6-.9-1-1.4-1.5zM179 265.1c-.2-.2-.4-.4-.5-.6l15.8-15.8c-4.7 6.1-10.2 11.1-15.3 16.4zm157.1 77.1c-.2-.1-.3-.3-.5-.4l13.7-13.7.4.4c-4.6 4.6-9.1 9.1-13.6 13.7zm-9.6 149.4-.1-.1c1.1-1.1 2.1-2.2 3.2-3.2.5-.4 1.1-.5 1.6 0 .4.4.3.8 0 1.1-2.1 2.3-4.3 4.6-6.5 6.8-.4.4-1.1.5-1.6 0-.5-.6-.1-1.1.3-1.6 1.1-1 2.1-2 3.1-3zM313 470.1c-1.1 1.8-1.4 3.6-2.9 3.9-1.3.2-2.3-1.2-3.2-2.2-1-1-.4-1.8.4-2.6.8-.9 1.7-.8 2.4 0 .7 1.1 1.5 1.6 3.3.9zm150.3 31.1c.6 1.1 1.4 2.4 2.2 3.9.2.3.4.9.2 1.2-.3.5-.9.2-1.4.2-2.7 0-3-2-3.6-4-.3-.9-.8-1.5.2-2.2.9-.8 1.4.2 2.4.9zm-90.1-292.3c.2 0 .5-.1.6 0 3.9 3.8 7.9 7.6 11.8 11.4.3.3.6.8.2 1.1-.7.6-1.1-.1-1.4-.5-3.5-3.5-7.1-7-10.6-10.5-.3-.4-1-.7-.6-1.5zm-33-15.6 2.9-2.9c.5-.5 1-.7 1.6-.2.6.6.1 1.1-.3 1.5-1.9 1.9-3.8 3.9-5.8 5.8-.5.5-1.1 1.1-1.7.4-.6-.6.1-1.3.4-1.8.9-.9 2.2-1.4 2.9-2.8zm58.1 55.4 2.7 2.7c.4.4.8 1 .3 1.5-.5.6-1.1.2-1.5-.2-1.8-1.8-3.6-3.6-5.5-5.4-.5-.5-.7-1-.1-1.5.6-.6 1.1-.1 1.5.4.9.8 1.7 1.7 2.6 2.5zm-191 108.1c-.3-.2-.5-.4-.8-.7-.7-.7-1.7-1.4-.7-2.5s1.8-.4 2.6.4c.7.7 1.4 1.5 2.1 2.2.6.6 1.4 1.2.4 2.1-.8.7-1.7.6-2.5-.1-.4-.5-.7-.9-1.1-1.4zm117.3-178.4s-.1 0 0 0c1-1.1 2-2.1 3-3.1.5-.5 1-1.1 1.7-.4.6.6.1 1.1-.3 1.5l-6.5 6.5c-.4.4-.9.6-1.4.2-.4-.4-.2-1 .2-1.4l3.3-3.3zm21.7 39.2c.6-.3 1.1-.3 1.2.2.5 2.2-.8 4.4.2 6.6 0 .1-.1.4-.2.4-1.3.3-2.3-.7-3.5-1-.4-.1-.4-1.9-.6-3 2 0 4-.3 2.9-3.2zm8.3 110.5c.1 0 .1 0 0 0l2.7-2.7c.4-.4.9-.8 1.5-.2.5.5.4 1.1-.1 1.6-1.6 1.6-3.2 3.3-4.8 4.9-.6.6-1.2.7-1.8.2-.9-.7-.1-1.2.3-1.6l2.2-2.2zM329.8 344l-1.8-1.8c-.5-.5-.9-1-.2-1.7s1.3-.6 2 0l3.6 3.6c.6.6.6 1.2 0 1.8-.6.6-1.2.5-1.8-.1l-1.8-1.8zm30-123.9c-.3 1.7-.7 3.1-.3 4.6-1.4 0-3.3.4-4.1-.3-.8-.6.2-2.6-.2-3.9 1.4.1 2.9.1 4.6-.4zm37.8 46.8c.1-1.4.6-2.8.1-4.2 1.4 0 3.3-.6 4.2.1.8.6-.4 2.6.2 4-1.4 0-2.8 0-4.5.1zm-6.2-10.3c1.6-.1 3.6-.7 4.2 0 .7.7.3 2.7.4 4.1-1.4 0-3.3.6-4.2 0-.7-.7.6-2.7-.4-4.1zM222.9 364.4c-.1-1.6-.1-2.9-.2-4.2 1.4 0 3.2-.5 4.2.1.7.5.5 3 0 3.8-.6 1.1-2.5-.5-4 .3zm143-137.8c-.4 1.4-.6 2.8-.3 4.2-1.4-.7-3.2.8-4-.2-.6-.8.4-2.6-.2-4h4.5zM240.8 378.1c1.6 0 3.5-.5 4.2.2.7.7.2 2.6.2 4l-4.2-.3c.2-1.3.1-2.6-.2-3.9zm132.5-139.7c1.5 0 3.3-.4 4.3.3.6.5.1 2.6 0 4-1.3-.1-2.6-.2-3.9.2-.1-1.5-.2-2.9-.4-4.5zm65.4 295c-2.5-.5-4.3-1.7-5.7-3.4-.3-.4-.6-.9-.2-1.4.2-.4.6-.6 1.1-.5 2.6.2 4.4 2 4.8 5.3zm-132-162.2c-1.4 3.1-7.2 8.6-9.5 9 3.2-3.2 6-6.5 9.5-9zm57.8-54.6-.3-.3 21.9-21.9.3.3-21.9 21.9zm15-71.9c1.1-.8 1.8.7 2.7.1 1.8-1.2 2.4-.7 1.3 1.2-.7 1.1 1.2 1.8.4 2.8-1 1.1-1.6-1.1-2.7-.4-.5.3-1.6 1-1.7.2-.1-1.4.5-2.7 0-3.9zM234.9 376.5c.1-1.7-.3-3.5.4-4.2.7-.7 2.5-.2 3.8-.2 0 1.4.4 3.1-.3 4.2-.4.6-2.4-.6-3.9.2zm-18.5-22.4c.3-.2.5-.4.5-.4 1.2.5 2.4.8 3.7.2.1.3.4.7.3.9-.5.9-.6 1.6 0 2.5.5.7-.1 1.3-1 1.1-.6-.1-.9-.8-1.6-.5-.5.2-1.6.4-1.5-.1.4-1.3-.3-2.5-.4-3.7zm-4 7.7-1.1 1.1c-.6.5-1.1 1.5-2.1.6-1.1-1-.3-1.7.4-2.3 1-1 2.1-2 3.1-3 .5-.5 1-.6 1.5-.1.4.4.8.8.2 1.5-.8.7-1.5 1.6-2 2.2zm38.7 22.3c.1 1.6.2 3 .3 4.3-1.4-.1-3.1.3-4.1-.4-.6-.5-.1-2.5-.2-3.8 1.4.3 2.7.2 4-.1zm98.2-169.6c1.5.7 3.4-.8 3.9.1s-.1 2.6.2 4c-1.4-.1-2.8-.6-4.1 0-.4-1.4.7-2.7 0-4.1zM541 420.4c1 .8 1.7 1.6.4 2.7-.9.7-2 1.9-3 .8-.4-.5-2.5-1.6-.5-3 1-.9 1.9-2.3 3.1-.5zM278.7 164.2c-3.4 3.8-6.8 7.7-10.9 10.7 3.4-3.8 6.8-7.6 10.9-10.7zm84.1 22.2c1-.8 1.9-1.9 3.3-.6 1.2 1.2.5 2.2-.4 3.1-.9 1-2.2 1.7-3.4.6-1.1-1-.2-2.1.5-3.1zm14.7 140c.1.1.3.4.3.7.1.9-3.8 4.1-4.7 3.7-.9-.4-.7-1.1-.3-1.7.5-.7 1.1-1.3 1.4-2.1.6-1 2.3-1.5 3.3-.6zm-118.6 70c1.6 0 3.4-.5 4.2.1.7.5-.2 2.5.3 3.8-1.3 0-3 .6-3.8-.1-.9-.7.4-2.6-.7-3.8zm-94.4-116.9-.5-.5c3.6-3.4 6.8-7.2 11-10l-10.5 10.5zm209.7 180c2-.1 2.5.9 3.3 1.6 2.2 1.9 3.9 4.4 6.5 6 .4.2 1.1-.3 1.2.5 0 .3-.3.6-.5.8-.5.5-1.1.4-1.6-.1-2.9-2.8-5.7-5.6-8.9-8.8zm46.5-208.6-2.7-2.7c-.4-.4-.9-1-.4-1.5.7-.7 1.2-.1 1.7.4 1.6 1.6 3.3 3.2 4.9 4.8.5.5 1.2 1 .6 1.7s-1.2.1-1.7-.4c-.9-.8-1.6-1.6-2.4-2.3zM265 406.9c.9-2 .2-3.3.3-4.6 1.3.2 2.6.3 3.9-.1.1 1.4-.4 2.8.3 4.1-1.3.4-2.6-.8-4.5.6zm96.7-165.7-.5-.5c3.3-3.7 6.7-7.3 10.4-10.5l.6.6c-3.5 3.4-7 6.9-10.5 10.4zm45.7 50c2.2 1.1 2.8-1 4.1-1.5.3-.1.8.3 1 .6.3.4.2.8-.1 1.1-.6.7-1.8 1.3-1.6 2.2.4 2.1-1.2.6-1.7 1.1-.6.6-1.3.1-1.6-.6-.2-.9.8-1.8-.1-2.9zM505.5 446c1.7 1.7 3.9 3.3 2.5 6.2-3.8-2.7-4.1-3.4-2.5-6.2zM392 250.6c-.8 2.6-8.6 10.2-10.4 10.4 3.5-3.6 6.9-7 10.4-10.4zM231.9 368.8c-.7.6-1.3 1.9-2.6 1.5-1.3-.4.2-1.4-.1-2.2-.2-.4-.5-.7-.6-1.1-.2-.6.4-1.2.7-1 1.1.7 2.1.4 3.3.1.5-.2 1 .6.5 1.3-.3.4-.7.8-1.2 1.4zm147.7-143.1c.8-.6 1.3-2.1 2.8-.8 1.1 1 .6 1.8-.3 2.5-.9.7-1.6 2.3-3.1 1.1-1.3-1.2-.2-2 .6-2.8zm-14.3-32.4c-.6-.7-1.3-1-1.1-1.8.2-.7.9-1 1.4-.9 1.4.3 2.8.6 4-.6.4-.4.9.2 1.2.6.5.8-.4.6-.7.9-.7.6-1.5 1.1-2.1 1.8-1 1.1-1.9 1.2-2.7 0zm-65 187.4 15.8-15.8c-5.2 5.4-10 11.1-15.8 15.8zm59.6-167c-.7-.8-2.3-1.5-.9-2.9 1.5-1.4 2 .4 2.8 1.1.8.6 2.1 1.4.9 2.6-1.3 1.5-1.9-.1-2.8-.8zM254.1 391.4c.5-.3 1.3-.8 2-1.2.7-.5 1.5 0 1.3.5-.4 1.2 0 2.4-.2 3.5-.2 1.2-1.3-.4-2.1-.1-.7.2-1.5.9-2-.1-.3-.9.5-1.6 1-2.6zm131.1 31.7c-.9.8-1.7 1.7-2.5 2.5-.4.4-.9.6-1.3.2-.5-.5-.2-1 .1-1.3 1.5-1.5 2.9-3.1 4.4-4.6.4-.4.9-.6 1.3-.1.4.4.3 1-.1 1.4l-1.9 1.9zm18.2-192.7c1.5 2.4-.3 3.6-1.7 4.9-.6.6-1.2.4-1.7-.2-.5-.5-.5-1 0-1.5 1-1.2 2-2.4 3.4-3.2zm-68.1-13.6c-.9-.8-1.7-1.5-.5-2.7 1.2-1.2 1.9-.2 2.7.6.8.8 1.7 1.4.5 2.7-1.3 1.2-1.9 0-2.7-.6zm-4.9 130.3c-1 2.7-5.1 6.8-7.7 8 2.3-3.5 5.1-5.7 7.7-8zm100.9-40.6-1.9 1.9c-.4.4-.9.6-1.3.2-.5-.5.1-.9.4-1.3 1.2-1.8 3-1.5 4.8-1.6.7 0 1.7.3 1.3 1-.4.7.3 1.8-.7 2-.6.1-1.6.1-1.9-.8-.2-.5.1-1.1-.7-1.4zm-214.5 15.7c-.4 1.6-1.3 2.6-.3 3.8.5.6-.4 1.4-1.1 1.7-.9.4-1.4-.3-2-.8-.6-.5-.8-1.1-.2-1.7 1.1-.9 1.9-2.1 3.6-3zm178.6 25.6c-.8.7-1.5 1.3-2.3 1.8-.7.5-1.7.1-1.4-.6.5-1.5 1.9-2.5 2.4-4 .8.3 1.9-.8 2.5.5.6 1.3-.8 1.6-1.2 2.3zm34.5-35.8c-.3.3-.6.5-.9.7-.6.5-1.1 1.2-1.9.7-1-.5-.3-1.3-.3-2-.1-2.1 2-.5 2.6-1.6.3-.6 1.2-1.9 2.2-.8.8.9-.5 1.4-.9 2.1-.3.4-.6.7-.8.9zm-44.1 127.8c-.9.2-1.3 2.3-2.8.9-1.2-1.1.1-1.9.8-2.4.8-.6 1.3-2.5 2.8-1.3 1.5 1.2-.3 1.8-.8 2.8zM340 183.4l.5-.5c2.8 2.8 5.8 5.5 8 9-2.9-2.8-5.7-5.6-8.5-8.5zm77.3 351c-.9-1-2.1-1.6-.8-2.9.9-.9 1.7-1.1 2.5 0 .6.8 2.3 1.3.9 2.8-1.1 1.1-2 1-2.6.1zm-46.8-203.9c.5.2.7.2 1 .3.8.3 1.4.8.8 1.7-.4.5-.7 1.5-1.7 1.3-.9-.2-.9-.9-.9-1.8 0-1-.1-2.1.3-2.9.4-.8 1.1-1.5 2-1.8.2-.1.5.1.6.3.2 1-.8 1.4-1.2 2-.3.2-.5.4-.9.9zm-6.6-108.4c.3 1 2.4 1.4 1.2 2.5-.7.6-3 .5-3.7-.1-.6-.6-.7-2.9-.1-3.6 1.2-1.2 1.7.9 2.6 1.2zm12.4 12.4c.2.7 1.9.9 1.4 2.1-.6 1.2-1.4-.5-2.1-.3-.4.1-.8.5-1.1.5-2.9-.3 1.1-2.8-1.1-3.4-.2-.1.1-.8.6-.8.3 0 .6.3.9.5l1.4 1.4zm30.2 29.8c.4.7 2 1.2 1.5 2.2-.5 1.2-1.4-.5-2.1-.2-.2.1-.5.1-.7.2-1.4.4-1.9.1-1.1-1.3.2-.4.3-.8.1-1.2-.2-.5-1-1-.1-1.4.7-.3 1 .4 1.4.8.2.3.6.6 1 .9zm-161.3-18.4c-2.4-1.4-4.5-3.2-5.9-5.7 2.6 1.3 4.4 3.4 5.9 5.7zM429.8 543c-2.2.1-3.8.7-5.1-.4-1-.8-1.3-1.4.2-2.1 2.5-1.2 3 1 4.9 2.5zm-74.9-328.5c.5 0 .8-.2 1-.1 1.3.9 2.5 2 3.4 3.3.4.7-.1 1.1-.9.9-.5-.1-.8-.6-1.4-.4-.6.1-1.6 1-1.7.2-.1-1.3.4-2.6-.4-3.9zM546.5 453c-.7-.4-1.7-.6-1.2-1.6.3-.6.9-1.3 1.4-1.3 1.3 0 1.5 1.8 2.7 2.2.4.2.2 1.3-.2 1.6-1.2.7-2.2.5-2.7-.9zm-149-196c.5-.6.9-.5 1.3-.2.6.5 1.1 1 1.6 1.6.6.6 1.8 1.2 1.4 2.2-.5 1-1.3-.3-2-.1-.7.1-1.7 1.2-1.9.1-.3-1.2.5-2.6-.4-3.6zm-18.2-18.3c1.4-.4 1.9.6 2.4 1.2.7.8 2.2 1.4 1.9 2.5-.4 1.3-1.5-.4-2.4.1-.5.3-1.6.9-1.7.1-.1-1.3.4-2.6-.2-3.9zm8.7 7.4c.5.9 2.3 1.7 1.6 2.4-.6.7-3.2.7-3.6.1-.7-.9-.9-3-.3-3.9.6-.9 1.4 1 2.3 1.4zM559.8 463c.9.5 2.2.9.9 2.3-2.1 2.2-2-1.5-3.5-1.5-.8 0 0-1.2.5-1.7 1.2-1.2 1.7-.2 2.1.9zM305.9 184.6c.6-.4 1.1-1.5 2.2-.6 1.2 1.2.2 1.9-.6 2.7-.7.7-1.3 1.4-2.3.5-1.1-1.1-.1-1.8.7-2.6zm29.7-6.3-.4.4-7.3-7.3.4-.4c2.4 2.5 4.9 4.9 7.3 7.3zm264.9 301.6c2.8 2 5.3 4.3 7.2 7.2-2.9-1.9-5.3-4.3-7.2-7.2zm-141.4 60.7c1.4.4 1.4 1.2.6 2.1-2 2.1-1.8-1.6-3.3-1.3-.7.1-.1-1 .3-1.5 1.4-1.6 1.9-.3 2.4.7zm30.9-31.3c-1.6-.4-1.9-1.4-.8-2.6 1.9-1.8 1.7 1.2 2.9 1.4 1.1.2.6 1.1 0 1.7-1 1.2-1.7.9-2.1-.5zM344.1 326.4c.7-1 1.5-.9 2.3-.1.9.9.5 1.6-.2 2.4-.8.8-1.5 1-2.4.1-.8-.9-.5-1.6.3-2.4zm192.8 87.2c-.7-.7-1.6-1.4-.6-2.5 1-1 1.7-.2 2.3.5.7.7 1.6 1.4.6 2.5-1 1-1.6 0-2.3-.5zm-163.4.4c1.3 4.8.9 7.2-1.6 8.4.3-2.9 1.5-5.5 1.6-8.4zm30.1-162.9c2.9.8 3.8 3 5.4 4.2.5.3.9 1 .2 1.5-.5.4-1.1.1-1.5-.5-1.1-1.6-2.4-3.1-4.1-5.2zm-2-3.3c.7-.4 1.8-1.8 2.6-1 1 .9-.4 2-1 2.9-.5.7-1.2 1.2-2.1.4-1-.9-.2-1.5.5-2.3zm-32-20c.2.6 1.6 1 .7 2-.6.6-1.7 1.4-2.4 1.2-1.3-.3-.3-1.3-.1-2.1v-.5c-.2-.6-1.2-1.2-.4-1.7.9-.7 1.4.6 2.2 1.1zm-192.8 76.4c-.7 2.4-2.2 3.3-3.4 4.3-.6.5-1.2.6-1.7-.1s0-1.2.5-1.5c1.2-.8 2.6-1.5 4.6-2.7zm208.9-49.8c.8-1.2-.3-2.4-.1-3.3.5-1.9 2.2.8 3.2-.6.1-.2.6-.4.9.3-1 1.5-2.3 2.7-4 3.6zm5.1 168.4c-.3-3.4-.9-6.8-.3-10.3.7 3.5.7 6.9.3 10.3zm4.1-170c.4.6 1.2.9 1.1 1.8 0 .2-.5.4-.6.4-1-.8-2-.4-3-.2-.7.1-1-.5-.8-1.2.5-1.6 2-2 3.3-.8zm43.6 268.1-.3-.3 5.5-5.5.3.3c-1.8 1.9-3.7 3.7-5.5 5.5zm-64.4-86.4c-.3 0-.5 0-.8.1-.1-3.5-.3-7-.4-10.5h.7c.2 3.4.4 6.9.5 10.4zm-44.6 50.9c.1-1.5.7-2.5 1.7-3.4.7-.6 1.2-.9 1.9-.2.8.8.1 1.3-.4 1.9-.8 1.2-1.9 1.4-3.2 1.7zm-85.1-79.6c.9-.3 1.4-2.3 2.5-1.3 1.1 1.1-.9 1.6-1.4 2.4 0 .1-.1.1-.2.2-.8.4-1.3 2.2-2.3 1.2-.8-.9.9-1.6 1.4-2.5zm240.1 74.5c-1.4 2.2-3.1 4.1-5.5 5.4 1.5-2.3 3.2-4.1 5.5-5.4zm-95.7-130.6c1-.1 1.8-.1 2.4.6.5.6 1.3 1.8.6 2.1-.7.4-2.1.9-3-.1-.7-.8.4-1.7 0-2.6zm-66.4 6c-2.4 1.6-3.3 4.9-6.4 5.7 2.1-2 3.6-4.7 6.4-5.7zm54.5-132.2c-.2.7 2.1.9.9 1.9-1.2 1.1-1.7-1-2.7-1.5-.6-.3-1.3-1.2-.6-1.8 1.1-.6 1.7.5 2.4 1.4zM271.4 411.9c-.2-1 .5-1.9-.3-2.9-.5-.7.3-1.3 1.1-.8.6.4 2 .4 1.7 1.5-.3 1.1-1.1 2-2.5 2.2zm163.3-157.7c.1.1.2.2.2.3l-6.5 6.5-.3-.3c2.2-2.1 4.4-4.3 6.6-6.5zm-267.1 53.7c-.1-.1-.1-.2-.2-.3.9-.9 1.7-1.8 2.6-2.6.4-.4.8-1.1 1.4-.3.5.6.5 1.4-.2 1.7-1.2.6-2.4 1-3.6 1.5zM448.1 511c1-2 2.8-3.4 4.5-4.8-.9 2.1-2.6 3.6-4.5 4.8zm58.1-52.5c-.5 1.9-1.7 3-2.8 4.1-.4.4-.9.6-1.3.1-.5-.5 0-.9.3-1.3 1-1.1 2-2.2 3.8-2.9zm-283.6-116c1.6 1 2.4 1.8 3.1 3-1.2-.1-2.1 1.3-2.9.6-1.1-1 .7-2-.2-3.6zm2.2-115.3c.6-.5 1.2-1.2 1.9-.5.8.9 0 1.6-.6 2.2-.6.6-1.3 1.2-2 .4-.8-.9.2-1.5.7-2.1zM413.6 287c.4-.5 1.1-.5 1.6 0 .9.9.3 1.9 0 2.8-.1.3-1.4 0-2-.5-.9-.8-.1-1.5.4-2.3zm-207.5-13.8c-2.9.5-5.8.3-8.6 1.5 2.6-1.8 5.6-1.9 8.6-1.5zM151.8 323c.7 0 .8-1.7 1.7-.6.6.7.5 1.6-.4 2.1-.7.5-1.3 2-2.1 1.3-1.2-1 .4-1.8.8-2.8zm257.8-60c-.2-.5-1.2-.9-.3-1.6.8-.6 1.8-.6 2.6.1.9.8-.1 1.3-.5 1.9-.8 1.2-1.1-.1-1.8-.4zm-105.3-50.8c-2 3.2-4.4 6.1-8.2 7.4 3.4-1.8 6.1-4.3 8.2-7.4zm-72.4 139.4c-3.1.5-3.1.5-2.8-2.8 1.1.7 2 1.5 2.8 2.8zm142.1 102c.5-.5 1.1-.6 1.4-.2.6.9.7 2.1.2 3.1-.4.7-1.1.3-1.5-.2-.7-.8-.6-1.8-.1-2.7zm-117.8-78c-3.3.7-3.3.7-2.6-2.6l2.6 2.6zm115-142.2c-.7 1.3 1.2 2.4.5 3.2-1 1.3-1.9-1-3.2-.6.9-.9 1.8-1.8 2.7-2.6zm31 20.2c.7-.7 1.3-.4 1.9.2.5.5.9 1 .3 1.7-.6.8-1.3.6-1.9 0-.6-.5-.9-1.1-.3-1.9zM264.1 409.8c0 .4 1.3.7.4 1.5-.5.4-1.2 1.2-1.9.3-.5-.6-.6-1.4-.2-2.1.6-.9 1.1-.2 1.7.3zM392 442.1c.5.9.6 1.9.1 2.8-.2.5-.9.6-1.3.2-.7-.9-.5-1.9-.2-2.9.2-.5.8-.5 1.4-.1zm-156.7-87c1.2.8 2.1 1.4 2.6 2.8-1.2-.6-1.9 1.2-2.8.2-.9-.9.5-1.7.2-3zm154.9 79.5c.1-.8-.5-1.8.2-2.7.4-.5 1-.3 1.3.1.6.9.6 1.9 0 2.8-.4.4-1 .4-1.5-.2zM165.9 319.9c-.2-.2-.5-.3-.7-.5.7-1.5 2-2.5 3.4-3.5.1-.1.6.1.6.2 0 .3.1.7-.1.9-1.2 1-2.2 1.9-3.2 2.9zm109 74.4c-1.7-.8-2.7.9-3.6-.1-.9-.9.6-1.7.5-3 1 1 1.8 1.7 3.1 3.1zm-9.2-9 2.4 2.4c-1.2-.5-2 1.6-2.9.4-.6-.9.8-1.7.5-2.8zm107.8 52.9c.5-.3 1.1-.7 1.3-.1.4.9.7 2 .2 3-.3.7-1.2.5-1.5 0-.6-.9-.5-1.9 0-2.9zM372 333.9c.9-.9 1.3-1.4 1.8-1.8.6-.5 1-1.5 2-1.3.1 0 .4.4.3.6-.2 1-1 1.6-1.7 2.1-.4.3-1.2.2-2.4.4zm37.7-65c.8-.6 1.3-.2 1.7.3.5.7 1.6 1.2.7 2.3-.4.4-1 .6-1.3.1-.5-.9-.8-1.8-1.1-2.7zm-34.4 182.5c-.6.4-1.1.3-1.4-.1-.6-.9-.7-1.9 0-2.8.3-.4 1-.6 1.3-.1.6.9.4 2 .1 3zm-41-111.7c-.6.4-1.1 1.7-1.7 1.1-1-1.1.7-1.8 1.1-2.7.2-.5.9-1 1.4-.3.9 1.1-.3 1.4-.8 1.9zm-117.5-61.2c-1.9-2.1-4.7-3-7.1-4.5 2.9.7 5.2 2.2 7.1 4.5zm33.1 91c-1 .2-1.9 1.4-2.6.7-1-.9.7-2-.1-3.5 1.2 1 2.1 1.6 2.7 2.8zm87.8-187.2c-.6-.6-.5-1.3 0-1.8.6-.6 1.3-.5 1.8.1.6.5.5 1.2 0 1.8-.7.6-1.3.5-1.8-.1zm36 263.9c-.5-.9-.6-1.8 0-2.7.3-.4 1-.7 1.3-.1.5.9.5 2 0 2.9-.2.5-.8.3-1.3-.1zm14.7-153.7-.2-.2 4-4 .2.2c-1.3 1.4-2.7 2.7-4 4zm18.3-35.5c.4.5 1.3 1.1.4 1.9-.7.6-1.3-.1-1.7-.6-.5-.5-1.4-1.2-.5-1.9.7-.6 1.2.2 1.8.6zm-15.2 169.9c.4.9.4 1.8-.1 2.6-.2.4-.9.7-1.3.1-.5-.8-.5-1.8 0-2.7.3-.6.9-.4 1.4 0zm108.9 93.4c-.5-.6-.4-1.3 0-1.8.5-.7 1.4-.7 2-.2.6.4.4 1.1 0 1.6-.5.5-1.1 1-2 .4zM282.2 219.4c-2.9-.8-4.6-3-6.4-5.2 1.9 2.1 4.1 3.7 6.4 5.2zm-20.1 200.5c-.7.5-1.2-.3-1.7-.7-.5-.5-.9-1.1-.1-1.7.8-.6 1.5-.2 2 .4.5.5.6 1.2-.2 2zm208 132.8c.5-.3 1.1-.5 1.7.1.7.7.3 1.2-.2 1.7-.5.4-1.1 1-1.7.3-.7-.7-.6-1.4.2-2.1zM390.5 437c.6-.4 1.1-.3 1.4.2.4.8.6 1.8-.1 2.6-.3.4-.9.7-1.3.1-.5-.9-.4-2 0-2.9zm-90.7-246.6c2.3 1.8 4.4 3.8 5.1 6.7-1-2.8-3.2-4.6-5.1-6.7zM155.4 320c1.2-1.3 2-3.1 3.9-3.7-.8 1.7-2.1 2.9-3.9 3.7zm346.8 202.1c-.5-.8-.1-1.5.4-2 .6-.6 1.2-.6 1.7 0 .6.7.1 1.2-.4 1.7s-1 .8-1.7.3zM280.3 402.4c.1.5.4 1.2-.3 1.7-.6.4-1.3.4-1.7-.3-.4-.5-.3-1.2.2-1.6.5-.5 1.1-.4 1.8.2zm98.8-185.1-.1.1-5.6-5.6.1-.1 5.6 5.6zM363 203c-.6.6-1.2.7-1.7.1-.6-.7-.1-1.2.3-1.7s1-.7 1.5-.1c.5.5.4 1.1-.1 1.7zM220 322.2c.6.6.2 1.1-.3 1.5-.4.3-1.1 1-1.1 0 0-.9-2.1-1-.8-2.1.9-.8 1.3.7 2.2.6zm209.6-39.6c-2.2-.9-4-2.3-5.4-4.3 1.1 2.3 3.9 2.5 5.4 4.3zm2.2 244.6c-1.8 3.4-1.8 3.4-3 3 .8-1 1.5-2 3-3z"/><path d="m254.4 357.8 17 17c4.7 4.7 7.7 4.8 12.6.2 1.2-1.1 2.1-1 2.9.2 1.5 2 2.8 1.7 4.2-.1.6-.7 1.3-1.4 2-2 2.7-2.6 2.7-2.6.5-5.4-.8-1-.5-1.6.3-2.4 2.2-2.2 4.4-4.3 6.4-6.6 1.1-1.2 2-1.3 3.1 0 1.5 1.8 2.9 1.6 4.3-.2.9-1.1 1.9-2.2 3.1-3.1 1.7-1.3 1.5-2.5-.1-3.7-1.7-1.2-1.4-2.2 0-3.4 2.5-2.3 4.8-4.8 7.2-7.3 3.6-3.6 3.6-7.4.1-11-7.7-7.7-15.4-15.3-23.1-22.9-1.2-1.2-3.7-2.3-1.1-4.5.3-.3.1-.8-.2-1.1-.5-.4-1-.3-1.4.1-1.3 1.5-2.2.7-3.3-.4-2.3-2.4-4.7-4.7-7.1-7.1-3.6-3.4-7-3.5-10.5 0-11.7 11.7-23.4 23.4-35.1 35.2-3.4 3.4-3.4 7.1 0 10.5 6.1 6 12.1 12.1 18.2 18 0 .1 0 .1 0 0zm.2-38.3c1.5.2 2.9.6 4.1 1.8 10.7 10.8 21.5 21.5 32.2 32.2 2.3 2.3 2.3 4.1.1 6.4-3.8 3.9-7.7 7.8-11.5 11.6-3 3-4.7 3-7.7 0-6.9-6.8-13.7-13.6-20.6-20.4l-11.4-11.4c-1.5-1.5-2.1-3.3-.5-5 4.9-5.3 9.6-10.9 15.5-15.2-1.7-.5-2.6.8-3.6 1.8l-9.8 9.8c-.5.5-1 1.5-2.1.8-1.3-.8-1.5.1-1.4 1 .1.7.4 1.3.1 2-1.1 2.8.2 4.8 2.2 6.7 2.1 1.9 4.3 3.7 5.8 6.3-2.7-2.4-5.1-5.2-7.9-7.4-4.2-3.4-4.7-7.2-.9-11.1 4.5-4.7 9.1-9.4 13.7-14.1 7.1-7.2 14.1-14.3 21.3-21.4 2.8-2.8 7.1-2.2 8.9 1.2-4.2-.1-4.2-.1-7.3 3.1l-.7.7c-3.4 3.4-6.8 6.7-10.1 10.1-1.1 1.2-2.1 2.4-1.4 4.3.5-1.9 1.5-3.3 2.9-4.6 3.6-3.5 7.1-7.1 10.7-10.7 3.1-3.1 4.6-3.2 7.7-.2 10.6 10.5 21.2 21.1 31.8 31.6 2.6 2.6 2.6 4.5-.1 7.2-4 4-8 7.9-12 11.9-1.8 1.8-3.7 2.1-5.7.5-1-.8-1.9-1.7-2.9-2.6-7.9-7.8-15.8-15.6-23.6-23.5-3.1-3.1-6.8-5.8-8.9-9.8-.6 2.1 1 3.1 2.1 4.2 7.6 7.5 15 15.1 22.8 22.4 4 3.7 7.1 8.4 12 11.1.3.2.7.5.5.8-1.3 1.7.2 2.5 1.1 3.3 1.2 1.1 1 2 0 3-2.3 2.2-4.5 4.5-6.7 6.7-.8.8-1.6.8-2.4.1-1.4-1.2-1.4-2.2 0-3.5 3.6-3.6 3.5-5.6-.1-9.2-3.3-3.3-6.7-6.6-10-9.9-7.4-7.2-14.4-14.8-22.1-21.7-1.3-1-2.4-2.1-4.1-.9zm62.1 10.9c3.7 2.3 4.2 6.3 1.3 9.3-2.7 2.8-5.6 5.5-8.3 8.3-1.2 1.2-1.9.5-2.8-.2-1.2-1-.7-1.7.2-2.5l7.8-7.8c1.7-1.9 3-3.9 1.8-7.1zm-49.8 38.4c.1-.1.2-.1.3-.2.8.7 1.5 1.4 2.3 2.1.7.7 1.4 1.5 2.2 2.2 2.6 2.4 5 2.4 7.7 0 .6-.5 1.1-1.1 1.6-1.7.9-1 1.6-.7 2.3.1.7.7 1.6 1.3.8 2.6-2.4 4-7.4 4.7-10.7 1.3-2.2-2-4.3-4.2-6.5-6.4zm25.1 4.5c-.5.3-.8.7-1.2.8-.9.1-1.4 1.5-2.5.7-1-.7-.2-1.5-.1-2.3.1-.5.1-1-.3-1.5-.6-.7-.6-1.4.1-2 .6-.6 1.2-.6 1.8-.1.7.5 1.4.5 2.1-.1.7-.7 1-.1 1.4.3 2 2.2-1.6 2.6-1.3 4.2zm-4.5-4.9c-1.1.8-1.7 1.6-.6 2.9.5.6 0 1.3-.9 1.4-.9 0-2.9-3-2.4-3.8 1-1.7 2.2-3.2 4.1-4 1-.5 3.9 1.3 3.9 2.3 0 1-.9 1.6-1.5.8-1.3-1.6-2-1.2-2.6.4zm22.3-15.9c.7.4.9 1 .3 1.7-1.2 1.3-1.9 3-3.7 3.7-.6.2-1.4.9-1.7.1-.5-1.6.1-3.4-.5-5.1-.1-.4.7-1.1 1.6-.9.2 0 .3.2.4.3.8.6 1.6.8 2.3 0 .6-.8.9-.2 1.3.2zm-8.3-2c.7-.4 1.5-.9 2.3-1.4 1-.7 3.6 0 4.2 1.1.2.5.2.9-.1 1.2-.4.4-.9.4-1.4.1-.5-.3-1.1-2.1-1.7-.6-.5 1.2-3.8 1.3-1.5 3.6.6.6.4 1.1-.2 1.5-.5.4-1 .1-1.4-.3-1.8-1.7-1.9-3.5-.2-5.2zm-36.6 15.9-.2.2-10.2-10.2.2-.2 10.2 10.2zM230.8 296.9c-1.3 1-2.8 2.2-.3 4.1 1.1.9 1.9.9 2.8-.1.5-.6 1.1-1.1 1.6-1.6 1.1-1 2.1-2 .6-3.6-1.5-1.5-2.5-1.3-3.7.3-.3.2-.6.4-1 .9zm1 .1c.8-.6 1.3-2 2.5-1.1 1 .7.4 1.7-.4 2.3-1 .7-1.7 2.8-3.2 1.4-1.1-1 .8-1.7 1.1-2.6zM295.3 231.7c-.8 1-2.9 1.9-.7 3.9 1.3 1.2 2.2 1.3 3.3-.1.4-.5.8-.9 1.2-1.3 1.1-1 2.2-1.9.6-3.5-1.5-1.5-2.6-1.2-3.7.2-.1.3-.3.4-.7.8zm.9.3c.9-.4 1.3-2.3 2.6-.9 1.1 1.2-.3 1.9-1 2.7-.7.7-1.5 2.1-2.6.9-1.3-1.4.6-1.8 1-2.7zM421.7 567.7c-.4 1.1-1.1 2.1-.1 3 .6.6 1.6.6 2.4.3 1.2-.5.9-1.5 1-2.6-1.3.1-.7 2-2.1 1.7-1.4-.2.1-1.6-1.2-2.4zM567.2 413.5c.8 1.2 2.2-.3 2.6 1.1.4 1.5-1.4 1-1.8 2.1 1 .2 2 .3 2.6-.7.5-.8.3-1.8-.2-2.5-.9-1.1-2-.3-3.2 0zM445.6 385.1c2.5 2 6.3 1.8 9.6-.7 3.1-2.3 4.5-5.5 3.7-9.4-.7-3.8-3-6.4-6.7-7.7-.6-.2-1.3-.5-1.9 0v-.1c2 .9 3.8 1.8 5.4 3.6 2.9 3.2 3.4 8.2.5 11.5-3 3.4-6.6 3.8-10.6 2.8z"/><path d="M450.3 367.4c-3.5-1.3-6.1.5-8.3 2.8-2.5 2.6-3.2 5.9-1.9 9.2 1 2.6 2.2 5.3 5.5 5.7v.1c-1.3-.6-.9-2.5-2.5-2.9-1.7-.5-2.3-1.9-2.6-3.5-1.2-5.5 2.3-10.3 7.9-11 .6-.1 1.4.1 1.9-.4zM548.8 379.9c1.1-.2 1.7-.7 1.6-1.5-.1-.8-.8-1.4-1.5-1.5-1-.3-1.4.5-1.8 1.4 2.3-.4 2.3-.4 1.7 1.6zM177.5 321.9c-.3-1-2.5.7-2.1-1.6.3-1.8.3-3.3 2.5-3.6 1.3-.2 2.5-.6 3.8-.8 1.6-.3 3.4 1.9 3.3 3.5-.1 1.3-1.6.4-1.8 1.4.5.8 1.3.2 1.9.3.5.1 1 .5.8.7-2 1.7.5 2.7.5 4.1 0 1.7.8 3.3 1.4 5 .6 1.6.8 3.4 1.8 5l-2.4-11.7c-.4-1.8-.7-3.7-1.1-5.5-.7-2.9-3.3-4.8-3.6-8-.1-.9-1.3-.5-2-.4-1.7.2-3.2 1.1-5 .7-.6-.1-1.2.2-1 1.1.6 2.3 1.2 4.5-.2 6.8-.3.5.1 1.3.2 2 .4 2.6.4 2.6 3 1zm-1.4-6.8c-.6-.6-.7-2.5-.2-3 .7-.6 5.4-1.4 5.8-.9.7.9 1 2 .4 3-.5.8-5.5 1.4-6 .9zM179 342.5c2 1.6 2.2 4 2.8 6.3.3 1.1.8 1.5 2 1.2 1.8-.4 3.7-.5 5.4-.8 1.9-.3 4.2-1.6 4.8-4.3-.4.3-.7.5-1.1.7-.9.4-1.3 2.2-2.3 1.4-1-.9-1.4-2.5-.8-4 .4-1.1 1.2-2.1.6-3.4-3.6 1.4-7.4 1.6-11.4 2.9zm3.8 6.4c-.7-1 .1-2.1-.6-3.2-.3-.5 1.1-.7 1.8-.9 1.2-.3 2.3-.5 3.5-.6.5-.1 1-.2 1.3.4 1.2 2.1.7 3.4-1.8 3.9-.9.2-1.8.5-2.7.7-.6 0-1.1 0-1.5-.3zm5.7-7c-2.2 1.6-5.4 2.1-7 1.1 2.4-.7 4.7-1 7-1.1z"/><path d="M177.6 324.8c-1.9-.6-2.6-.3-2.2 1.5 1 4.4 1.9 8.8 2.9 13.2.1.5.1 1.1.7 1.2.2 0 .5-.2.6-.4.6-.7-.4-.7-.5-1.1-1.1-3.5-1.6-7-2-10.6-.1-1.2-1.3-2.6.5-3.8zM182.4 317.4c-2-.5-3.6.3-5.4 1 .8.9 2.5-.2 2.5 1.6 0 .5 1 .1.9-.1-.6-1.6 1.4-1.4 2-2.5zM386.1 309.4c-.8.8-.8 1.8-.2 2.5.8.8 1.9 1.1 3 .4 1.1-.8.4-1.9-.1-2.7-.7-.9-1.7-.8-2.7-.2zM318.5 391.6c-10.4 10.6-11.9 27.7-.4 40.1 10.9 11.8 28.7 12.2 40.8 1 11.5-10.6 12-29.1 1.1-40.7-10.4-11-29-12.7-41.5-.4zm40.2 39.9c-10.9 10.7-27.9 11.4-39.3.1-11.1-11.1-11.1-28.2 0-39.4 10.9-10.9 28.2-10.8 39.3.2 11 10.6 10.5 28.9 0 39.1zM536.3 459.2c-1-.9-1.6-1.6-2.6-1.8-1.1-.3-2.3 0-2.5 1-.2 1.1-1 2.4.5 3.5s3.1 1.9 4.7 2.7c.6.3 1.5.7 2.1 0 .6-.7.3-1.5-.1-2.2-.7-1.1-1.5-2.3-2.1-3.2zm-3 2.9c-.3-1.2-2.6-2.2-1-3.6 1.4-1.2 2.7.3 3.7 1.5.9 1.2 2.8 2.7 1.5 3.9-1.1 1-2.8-.9-4.2-1.8zM467.8 526.3c-1-1.3-2.3-2-4-1.6-.9.2-1.1.8-1 1.5.3 1.7.3 3.6 2.3 4.4.9.3 1.7.7 2.5 1.2.8.4 1.7.7 2.4.2.8-.6.3-1.6.1-2.3-.5-1.5-1.5-2.4-2.3-3.4zm-2.8 2.8c-.4-.5-.8-.8-1-1.3-.4-.8-.8-1.6 0-2.3.7-.6 1.4-.2 2.1.2.4.2.8.4 1.1.7 1.1 1.4 3.4 3.6 2.4 4.6-1.5 1.4-3.2-1.1-4.6-1.9zM481.1 546c.8.8 1.5 1.3 2.4 1.6.9.2 1.7.4 2.3-.4.7-.7.6-1.6.2-2.4-1.3-2.6-3.6-4-6.2-4.8-1.2-.4-1.5.4-1.3 1.5.4 1.9 1.7 3.3 2.6 4.5zm.5-.2c-.7-1-1.5-2.3-2.3-3.6-.2-.4-.3-.8 0-1.2.3-.3.8-.2 1.2 0 1.4.7 2.7 1.4 3.8 2.5.8.9 1.8 2 .7 3.1-1.1 1.2-2.2.1-3.4-.8zM288.9 211.9c.9 0 1.9.1 2.8-.1.8-.2 2-.1 1.1-1.8-.9-1.6.9-2.6 2.1-3.1 1.1-.5 1.1.9 1.1 1.7h-.1c1.5-1.2 1.8-2.9 1.6-4.7-.5.8-1.3 1.1-2 .5-1-.8-.7-2.2-.8-3.3 0-.3.3-.9.7-1 .5-.2.6.4.8.8.4 1 .9 2 1.3 3 .4-1.2 1.1-.3 1.6-.2 1.1.1 2 0 2.6-1.1.4-.8.6-1.5-.2-2.3-.8-.8-1.9-1.3-2.7-.6-1.6 1.2-2.4.6-3-.9-.3-.6-.7-1.1-1.4-1.3-.9-.3-1.2-.9-.5-1.7.8-1 .9-2 0-3-.6-.7-1.5-.9-2.3-.5-1.3.5-1.5 1.6-1.3 2.7.1.6 0 1.2-.5 1.6 1.3-.3 2.3.5 3.4.9.4.2.8.4.6.9-.2.5-.6.9-1.2.8-1-.2-2-.4-2.9-.9-.9-.5-1.2-1.2.1-1.7-1.1-.2-2.1-.4-3.2-.6h.1c-1.1.8-2 1.9-3.1-.2-.6-1.2-2.1-1.2-3.1-.2s-1.2 2.4.2 3c1.8.8 1.4 1.7.9 3-.4 1.1-.3 2.2.1 3.2.7-1.4 1.7-.9 2 0 .4 1 1.5 2.4.2 3.2-1.1.7-1.4-.8-1.7-1.6-.2-.5-.3-1.1-.4-1.7-.4.9-1.1.6-1.7.5-1.1-.2-2 .4-2.5 1.4-.4.9-.1 1.7.6 2.3.9.8 1.9.7 2.8-.1.6-.6 1.1-.8 1.7-.1.3.4 1.2 1.2-.3 1.3-1.2.1-2 .7-1.8 1.9.1.8.7 1.5 1.5 1.5 1.1.1 1.7-.6 1.9-1.7.3-2.1 1.5-.2 2.2-.5v.1c-.5-.7-1.1-1.8.2-1.9 1.3-.1 3-.4 3.8 1 .5.9-.5 1.3-1.3 1.5zm3.6-11.3c1.9 1.8 1.9 4.8 0 6.6-1.6 1.6-4.5 1.6-6.2-.1-1.9-1.9-2-4.4-.2-6.4 1.8-1.7 4.6-1.8 6.4-.1zm-7-.7c-.9 1.3-1.7 2.5-2.7 1.6-.7-.6.2-1.8.9-2.4.9-.7 1.8-2.6 3-1.4 1.1 1.1-.9 1.8-1.2 2.2z"/><path d="M286.1 211.1c0 .8-.5 1.2-1 1.7-1 1-.7 2 0 3 .5.7 1 1.2 1.9.8 1.1-.5 2-1.3 1.8-2.7-.1-.7-.8-1.5.3-2-1.1 0-1.9-1.1-3-.8zM295.9 208.6c-1.1.6-1.5 1.4-1.3 2.7.2 1.4 1 2.1 2.3 2.2.9 0 1.7-.5 1.9-1.4.2-1.2-.1-2.4-1.4-2.9-.5-.2-1.1-.4-1.6-.6h.1zM287.4 190.7c-5.6 0-10.8 4.9-11.3 10.5 1.9-5.6 5.2-9.5 11.3-10.5zM295.8 195.5c-.6.9-.6 1.7.3 2.5.8.8 1.7.7 2.4-.1.8-.8.7-1.8-.1-2.5-.8-.6-1.8-.7-2.6.1zM277.7 200.7c-.5.4-.7 1.1 0 2 .7.8 1.6 1.1 2.5.4.9-.7.9-1.6.2-2.5-.8-.9-1.6-1-2.7.1zM286.6 195.9c.8-.2 1.4-.7 1.8-1.4.6-1-.1-1.6-.7-2.2-.6-.6-1.2-.4-1.8 0-.7.6-1.2 1.3-.6 2.2.3.5 1 .9 1.5 1.3-.1.1-.2.1-.2.1zM298.5 205.7c-.8.9-.7 1.6 0 2.3.8.8 1.7.7 2.4-.2.7-.8.6-1.6-.1-2.3-.9-.9-1.7-.4-2.3.2zM293.6 212.9c-.9-.7-1.6-.4-2.3.2-.7.6-1 1.4-.2 2.2.7.7 1.6.6 2.3-.1.7-.7.6-1.5.2-2.3zM203.9 303.9c6.3.6 12.3-3.6 13.6-9.4-1.1 1.3-1.4 3.3-3.2 4.3-.2-1.3-.1-2.7-1.6-3.3-.6-.2-1.9.1-1.1-1.3.8-1.4 1.3-.3 1.9.2.7.5 1.5.9 2.3.1.7-.7.7-1.6.3-2.4-.5-.9-1.4-1.2-2.4-.6-.6.4-1 0-1-.6s0-1.5.8-1.1c1.8.8 2.6-.5 3.7-1.6 1 2.2-.1 4.2.2 6.2 1.8-3.7 1-7.1-1.1-10.5.3.8.5 1.7.9 3.1-1.9-1.5-3.3-1.8-4.8-.3-.7.7-.9-.3-1.3-.7.1.7.3 1.4.4 2 .1.9.9 1.9-.1 2.8-.2.1-.8 0-.9-.2-.5-1.1-1.2-2.3-.6-3.6.2-.5.9-.7 1.3-1 .1-.5-1.4-1.6.6-1.2 1.3.2 1.9-.4 2.1-1.7.1-.9-.3-1.5-1.2-1.7-1.2-.2-2 .2-2.3 1.4-.1.6-.3 1.3-1.1.9-.6-.3-1.2-.8-.7-1.6.2-.4.4-.7.6-1.1.4-1.2.1-2.3-1.3-2.6-1.4-.4-2.7.4-2.6 1.7.1 2.3-1.1 2.2-2.7 2.1h.1c-1.5.6-2.9 2.2-4.3-.5-.6-1.1-2.2-.7-3.1.4-.8 1-1 2.3.4 2.8 1.8.6 1.3 1.8 1.4 3 1.1-1.4 1.7-3.1 3.5-3.9.3-.2.7-.6 1.1-.2.2.2.2.6.2.9-.3 1.5-3.2 3.3-4.8 3.1-.4.4-.7.8-1.1 1.3v-.1c.3 1.3 1 2.8-1.5 2.5-.9-.1-1.8.5-2 1.6-.2.9-.1 1.7.7 2.3.9.6 1.7.5 2.6-.1.4-.3.7-.9 1.3-.6.3.1.5.5.6.7.3.7-.3.6-.7.7-1.2.2-1.7 1-1.6 2.2.1.6.3 1.3 1.2 1.4 1.3.2 2.2-.5 2.4-1.7.2-1 .7-.8 1.3-.6.4.2.9.6.5.9-1.7 1.3-1 2.9-.9 4.5 0 .1-.3.2-.4.2v-.1c.9.9 1.8 1.4 3 .8.9-1.7 1.5-3.5 1.8-5.4-.9-.3-1.9-.6-2.8-1-.6-.2-1.1-.9-.5-1.4 1.2-1.1 2.6-.1 3.7.3 1.1.3 1 1.4 0 2.1.6.2 1.5.2 1.1 1.3-.2.5-.2 1-.1 1.5.2.8.9 1 1.6 1.1.7.1 1.4-.2 1.7-.9.4-.9.4-1.9-.6-2.4-.6-.4-1-.7-.2-1.3.5-.3 1.3-.9 1.4 0 .3 2.1 1.8 2.2 3.6 2.6-2.7 2.8-6.1 2.9-9.3 3.7zm3.8-10.6c-1.6 1.7-4.4 1.8-6.2.3-2.1-1.9-2.2-4.3-.4-6.3 1.8-2 4.4-2.2 6.3-.4 2 1.8 2.1 4.4.3 6.4zm-3.1-10.4c1.5-.4 2.7.4 3.9 1.1.4.2.4.8-.1 1-1.4.6-2.6-.3-3.8-.7-.3-.2-.5-.9 0-1.4zm-6.7 10.9c-.4-1-1.1-2.1-.4-3.3.3-.5 1.1-.2 1.2.2.3 1 1.5 2 .6 3.2-.4.6-1 .3-1.4-.1zm10.5.6c.6-.5 1.2-1.6 2.1-.7.7.7-.2 1.4-.7 1.8-.5.4-1.1 1.5-1.9.7-.9-.7-.1-1.3.5-1.8z"/><path d="M196.2 288.9c-.1-.3-.1-.7-.2-1-.2-1.3-.9-2.1-2.2-1.7-1.1.3-1.7 1.3-1.1 2.4.6 1.2 1.6 1.5 2.7.8.3-.2.5-.4.8-.6v.1zM202.7 282.2c.5-.4.8-.9.8-1.5 0-1.1-.3-2.1-1.5-2.3-1-.2-1.6.6-1.8 1.4-.3 1.1.5 1.7 1.4 2 .4.1.8.2 1.2.4h-.1zM192.3 284.4c1.8-2.4 3.4-4.6 6.2-6-2.7.1-5.5 2.8-6.2 6zM199.5 302.9c-2.5-1.6-4.8-3.4-6.7-5.7 1.3 3 3.4 5 6.7 5.7 0-.1 0 0 0 0zM407.2 275.6c-1-1.3-2.1-2.2-3.8-1.6-2.2.6-2.2 2.5-2.4 4.2 1.2 1.3 2.6 2.2 4.4 1.4 1.9-.7 1.5-2.5 1.8-4zm-4.1.3c.6-.5 1.2-.6 1.8-.1.6.5.6 1.2.1 1.8-.5.5-1.2.6-1.8.1-.5-.5-.6-1.1-.1-1.8zM323.5 427.7c9.8 9.8 24 7.2 31.2-.3 8.5-8.8 8.4-22.8-.3-31.3-8.5-8.3-23.9-8.4-31.7-.3-8 8.4-7.6 23.8.8 31.9zm14.7 5.1c-12.3.8-24.4-13.1-19.3-28 .5-1.4.8-3.2 3-1.4.7.6 1.8 0 2.7-.2.7-.2 1.4-.4 2.2.1 1.3.8 4.9.8 6.1.3 1.3-.6 1-1.3.2-1.8-2.3-1.6-2.8-3.7-2.1-6.3.1-.5.1-1-.3-1.4-1.2-1.3-.1-1.7.9-2.1 4.7-1.8 9.5-1.8 14.2-.1 8.3 2.9 14.2 10.9 14 18.8-3.3-1.2-3.8-1-4.5 2.4-.2.7-.5.9-1 .7-2.5-1-5.5.5-7.7-1.9-.7-.8-1.6-.3-2.2.3-1.7 1.7-3.4 3.4-5 5.1-.5.6-1.2 1.3-.4 2 2.8 2.6 1.1 6.3 2.7 9.4-1.7-.2-3-.9-4 .5-.9 1.3-.3 2.5.5 3.6zm3.8-10.3c2 2.8 3.3 1.3 4.7-.2 1.2-1.3 2.5-2.6 3.8-3.8.8-.8 1.6-1.7.3-2.8-.3-.3-.7-.6-.5-1.1.3-.6.9-.4 1.4-.3l6.3 1.2c1.2.2 1.7.8 1.4 2.1-1.1 6.1-8 13.2-14.2 14.4-.6.1-1.4.3-1.5-.4-.8-2.8-1.9-5.6-1.7-9.1zm-17-24.9c.5-.5.9-1 1.5-1.4 1.1-1 2.7-1.4 2.8-.9.4 1.5 1.7 3.3-.6 4.4-.8.4-1 1-1.5 1.6-1.2 1.7-3.1 1.2-4.2.4-1-.7.1-2 .8-2.8.3-.5.8-.9 1.2-1.3z"/><path fill="none" d="m269.537 88.108 70.71-70.71 424.26 424.26-70.71 70.71z"/><path d="M413.1 169c-3.7 5.5-2.4 10.6 2.6 15.6 4.7 4.7 8.4 5.2 11.5 2.1 3.5-3.5 2.4-7.1-3.9-17.4-11.8-19.3-9.2-28-2.1-35.1 8.8-8.8 22.7-9.7 37.3 4.9 15.2 15.2 13.7 29.2 6.2 38.2l-14.9-14.9c2.4-3.2 3.8-7.5-1.6-13-3.5-3.5-7-4.4-9.9-1.5-2.9 2.9-2 5.9 4.1 16 12.2 20.3 9.5 29.3 2.1 36.8-9.9 9.9-24.4 9.1-39.8-6.3-14.5-14.5-15.5-29-6.5-40.3l14.9 14.9zM487.6 193.1l-15-15 11.4-11.4 45.4 45.4-11.4 11.4-14.9-14.9-41.2 41.2-15.4-15.4 41.1-41.3zM530.3 318.1l-10.4-10.4c1-1.8 2.8-4.4 3.8-5.8-6.9.9-13.9-2.2-21.3-9.5-16.1-16.1-12.1-36.4 2.5-51 16.1-16.1 37.3-18.5 54.8-1 15.9 15.9 14.1 32.3 7 41.3l-15.3-15.3c2-3.5 3.6-9-2.6-15.2-8.8-8.8-19-2.9-27.5 5.5-8.3 8.3-13.8 18.9-5.3 27.4 7.8 7.8 14.8 3.4 18.3 0l.4-.3-9.6-9.6 10.8-10.8 24.5 24.5-30.1 30.2zM608.3 291l-52.6 52.6-15.5-15.5 52.6-52.6 15.5 15.5zM634.7 317.4 582.1 370l-15.5-15.5 52.6-52.6 15.5 15.5zM661 343.7l-52.6 52.6-15.4-15.5 52.6-52.6 15.4 15.5z"/><path fill="none" d="M.9-.1h1000v1000H.9z"/><path fill="none" d="M100.7 599.4h400.2v300H100.7z"/><path d="M287.6 757.3v22.9c-22.5 31.9-44.6 78-50.1 119.2h-31.8c5.6-41.8 31.1-91.9 50.4-116.7h-66.9v-25.4h98.4zM399.9 782.5H343c-.9 7.6-3.4 21.2-4.3 27.1 5.3-4.4 13.4-7.6 25.6-7.6 28 0 43.8 20.2 43.8 47.3 0 27.5-15 52.7-53.4 52.7-28.1 0-48.8-14.4-51.9-39.8h30.8c2.7 9.8 9.6 16.1 21.7 16.1 14.7 0 21.7-10.8 21.7-26.5 0-14.8-5.5-25.4-21.8-25.4-13.2 0-18.6 5.7-21.8 14.2l-27.9-3.6c3.8-18.1 9.9-60.2 12.2-79.8h86.6l-4.4 25.3z"/><path fill="none" d="M601.1 99.8h300v300h-300z"/><path d="M730.1 257.5V151.2c-6.6 3.1-18.6 5.6-25.7 6.2v-23.1c13.5-2.5 27.1-10.1 35.2-19.1h21.8v142.3h-31.3zM790.4 257.5v-2c0-24.7 11.1-44.9 41.9-67.3 20.1-14.7 26.1-19.7 26.1-32.1 0-12.3-6-19.2-17.9-19.2-13.9 0-18.9 8.5-20.9 20.9h-29.8c2-24.5 18.1-45 50.7-45 36.5 0 49 21.7 49 43 0 20.7-8.9 30.7-35.1 49.1-17.5 12.3-24.6 20.4-27 26.8h67.3l-3.8 25.8H790.4z"/><path fill="none" d="M600.5 600h300v300h-300z"/><path d="M712.1 810.4c-1.5-5.8-4.8-11.4-15.1-11.4-15.9 0-20 14.9-20.7 30.8 5-6.1 13.4-11 26.8-11 21.7 0 37.1 16 37.1 39.3 0 25.3-16.2 44.1-43.5 44.1-34.4 0-45.8-26.5-45.8-59.9 0-30.8 10.9-62.8 47.2-62.8 25.7 0 37.7 16.1 38.9 31h-24.9zm2.3 49.8c0-11.3-4.2-21.4-18.4-21.4-11.5 0-18.3 6.7-18.3 20.5 0 9.6 4.6 22.3 18.3 22.3 12.6.1 18.4-9.4 18.4-21.4zM753.5 909.2l49.8-135.1h21.4L775 909.2h-21.5zM890.8 842.5v22.4h-50.1v-22.4h50.1z"/></svg>