<?xml version="1.0" encoding="utf-8"?>
<!-- Generator: Adobe Illustrator 27.0.0, SVG Export Plug-In . SVG Version: 6.00 Build 0)  -->
<svg version="1.2" baseProfile="tiny" xmlns="http://www.w3.org/2000/svg" xmlns:xlink="http://www.w3.org/1999/xlink" x="0px"
	 y="0px" viewBox="0 0 1000 1000" overflow="visible" xml:space="preserve">
<g id="bg" display="none">
</g>
<g id="scans">
</g>
<g id="counters">
	<path fill="none" d="M500,725c-60.1,0-116.6-23.4-159.1-65.9c-42.5-42.5-65.9-99-65.9-159.1s23.4-116.6,65.9-159.1
		c42.5-42.5,99-65.9,159.1-65.9s116.6,23.4,159.1,65.9c42.5,42.5,65.9,99,65.9,159.1s-23.4,116.6-65.9,159.1
		C616.6,701.6,560.1,725,500,725z M500,325c-96.5,0-175,78.5-175,175s78.5,175,175,175s175-78.5,175-175S596.5,325,500,325z"/>
	<g id="m10">
		<polygon fill="none" stroke="#FFFFFF" stroke-width="20" stroke-miterlimit="10" points="166.2,355.3 343.5,176.3 690.4,518.5 
			697.4,540 666.5,576.9 663,573.6 563.9,663.3 570.2,675.8 538.6,707.6 519.9,704.5 		"/>
		<g>
			<g>
				<path d="M324.7,199.3c-6.7,6.3-13,13.1-19.4,19.7c-5.3,5.5-10.9,10.9-16.3,16.4c-3.8,3.8-7.6,7.5-11.4,11.2
					c-3,3-5.9,6.2-8.8,9.3c-2,2.1-4.5,3.7-6.9,5.3c-1.1,0.8-2.1,1.5-2.1,3.1c0,0.9-0.8,1.3-1.3,1.8c-9.1,9.1-18.2,18.2-27.2,27.4
					c-6,6.1-12,12.1-17.9,18.3c-8.8,9.1-18,17.9-26.9,26.9c-6.1,6.2-12.3,12.5-18.6,18.5c-2.1,2-2.1,2.5-0.1,4.5
					c17.9,17.7,35.9,35.4,53.8,53.1c8.9,8.8,17.8,17.8,26.7,26.6c4.2,4.2,8.6,8.2,12.8,12.4c5.6,5.5,11.2,11.1,16.9,16.7
					c9.6,9.5,19.3,18.8,28.8,28.4c8.2,8.3,16.4,16.6,24.7,24.8c8.1,8.1,16.4,16,24.5,24c5.9,5.8,11.7,11.7,17.6,17.6
					c11.7,11.6,23.3,23.2,35.1,34.7c6.7,6.6,13.5,13.2,20.3,19.7c10.9,10.5,21.4,21.3,32.1,31.9c7.5,7.4,15,14.8,22.5,22.3
					c9,9,17.9,18.1,27,26.9c4.8,4.6,10.5,8.2,17,10.1c4.8,1.4,9.6,1.5,14.5,0c4-1.2,6.4-4.3,9.2-7.1c5.3-5.4,10.7-10.8,16-16.2
					c2.8-2.9,5.7-5.7,8.6-8.6c1.8-1.9,1.8-2.5-0.1-4.2c-1.3-1.3-2.6-2.7-4-3.9c-1.1-0.9-0.9-1.7-0.1-2.6c2.4-2.9,5.1-5.5,7.8-8.1
					c1.2-1.1,1.9-2.2,2.2-4c0.6-4.6,2.1-9.1,3.1-13.7c0.4-2.3,1.6-3.8,3.2-5.3c0.3-0.2,0.7-0.6,0.6-0.8c-0.6-2.4,1.4-3.2,2.6-4.4
					c3-3.2,6.1-6.2,9.3-9.3c2.3-2.2,2.5-2.2,4.6-0.1c9.8,9.8,20.1,19,30,28.7c8.4,8.2,17.2,16,25.4,24.3c2.9,2.9,6,5.6,8.7,8.7
					c0.9,1,1.7,0.8,2.5,0c2.2-2.2,4.3-4.4,6.4-6.6c1-0.9,0.4-1.4-0.3-2.2c-8.5-8.7-16.9-17.4-25.3-26.1
					c-9.2-9.6-18.5-19.2-27.6-28.9c-2.9-3-5.8-6-8.7-9c-2.2-2.3-2.1-2.4-0.1-4.7c2.5-2.8,5.2-5.4,7.8-8.1c1.8-1.8,2.9-1.7,4.3,0.4
					c1.2,1.8,3.1,2.5,5.2,1.8c2.2-0.7,3.9-2.8,3.6-5c-0.2-1.1,0.2-1.7,0.9-2.3c1-0.9,1.9-1.9,1.7-3.4c-0.1-0.9,0.5-0.9,1.2-1.1
					c2.1-0.6,4.2-0.8,6.3-1c2.6-0.2,4.7-1.2,6.4-3.2c2.5-2.9,5.4-5.6,8.3-8.1c1-0.8,1.6-0.7,2.4,0.1c1.5,1.6,3.2,3.1,4.7,4.7
					c0.9,0.9,1.5,1.2,2.5,0c8.8-9.5,18.3-18.3,27.1-27.7c2.3-2.4,3.1-5.9,3.3-9.1c0.7-11.2-3-20.7-11-28.6
					c-8.1-8.1-16-16.3-24.2-24.4c-7.5-7.4-15.1-14.6-22.6-22c-4.7-4.6-9.3-9.3-14-14c-11.5-11.3-22.8-22.6-34.5-33.7
					c-4.8-4.6-9.4-9.5-14.2-14.1c-11.5-11-22.6-22.5-33.9-33.7c-14-13.9-28-27.8-42-41.7c-14.9-14.8-29.8-29.6-44.7-44.4
					c-5.3-5.3-10.4-10.7-15.9-15.8c-11.4-10.5-22.2-21.7-33.4-32.4c-5.8-5.5-11.4-11.3-17.1-17c-5.3-5.2-10.6-10.4-15.9-15.6
					c-10.1-9.9-20.3-19.8-30.4-29.7c-1-1-1.6-0.8-2.5,0.1c-4.6,4.7-9.3,9.3-13.8,14.2C329.6,194.7,327.1,197,324.7,199.3z
					 M306.2,442.4c0.6,0.5,1,1.4,1.9,1.5c0.9,0.2,1.8,0.2,2.6,0.4c0.5,0.1,1.3,0,1.3,0.7c-0.1,0.9-1,0.6-1.5,0.6
					c-0.9,0-1.9-0.5-2.8-0.6C305.8,444.9,305.5,444,306.2,442.4c0.1-3.4,1.1-6.7,2.1-9.9c0.1,0.9,0,1.8-0.3,2.6
					C307.4,437.5,307.6,440.2,306.2,442.4z M394.4,280c1.1-0.8,2.1-1.4,2.4,0.7c0,0.1,0.1,0.3,0.2,0.4c2.4,1.9,2.4,1.9,2.1,4.4
					c-1.2-2.1-2.6-3.9-4.5-5.2c-1.7-0.6-1.9-1-2.3-4.9C393.2,276.9,394.3,278.2,394.4,280z M476.6,637.9L476.6,637.9
					c-0.4,0.3-0.1,0.7,0,1.1c1.2,4.7,2.7,9.3,3.9,13.9c1.6,6.1,3,12.3,4.9,18.4c0.1,0.4,0.5,1,0,1.3c-0.5,0.3-0.9-0.2-1.2-0.5
					c-1.7-1.7-3.3-3.3-5-5c-8.7-8.5-17.3-17-26-25.6c-17.8-17.7-35.6-35.4-53.5-53c-12.9-12.8-25.8-25.5-38.7-38.2
					c-5.6-5.6-11-11.4-16.7-16.9c-7.2-6.9-14.1-14-21.3-20.8c-7.3-6.9-14.2-14.1-21.4-21.1c-6.6-6.4-12.9-13-19.4-19.5
					c-7.2-7.2-14.5-14.3-21.8-21.5c-13.2-12.9-26-26.2-39.5-38.8c-5.9-5.5-11.4-11.3-17-17c-0.6-0.6-1.2-1.1-1.3-2
					c1.2-0.1,2.1,0.4,3.1,0.6c1.4,0.4,2.6,0,3.6-1.1c0.9-1,1.1-2.3,0.4-3.5c-0.9-1.7-2.1-3.1-3.9-4c-1.4-0.7-3-0.8-4.3,0.3
					c-1.2,1-0.9,2.4-0.5,3.7c0.3,1,0.5,2.1,0.7,3.2c-10.2-9-19.9-18.5-29.3-28.4c0.9-0.8,1.7-0.9,2.5-1c6.6-0.9,13.3-1.8,19.9-2.6
					c5.8-0.7,11.5-1.3,17.3-2.2c1.3-0.2,2.2,0,3.1,0.9c7.2,7.1,14.3,14.1,21.5,21.1c6.4,6.1,12.5,12.4,19,18.4
					c5.2,4.8,9.9,10.1,15.1,14.9c6.6,6.2,13.1,12.6,19.6,19.1c5.7,5.8,11.3,11.7,17,17.5c6.8,6.8,13.6,13.5,20.5,20.2
					c0.7,0.7,1,1.4,0.6,2.2c-0.6,1.6,0,2.6,1.1,3.7c4.2,4.1,8.4,8.1,12.5,12.3c5.9,5.9,12,11.6,18.4,16.9c0.6,0.5,1.1,0.8,1.9,0.8
					c1.2,0,2,0.7,2.8,1.5c6.3,6.2,12.5,12.5,18.9,18.6c9,8.6,17.9,17.4,26.7,26.2c2.6,2.6,5.2,5.2,7.8,7.8c0.2-0.2,0.3-0.3,0.5-0.5
					c-9.3-9.3-18.6-18.6-27.9-27.9c0.1-0.2,0.3-0.3,0.4-0.5c5.3,4.7,9.9,10.1,15.3,14.7c-2.5-3.3-5.8-5.8-8.5-9.4
					c2.8,0.6,4.5,2.2,6.7,3c5.2,1.9,10.4,4,15.7,5.4c3.8,1,7.4,2.5,11.4,2.8c2.1,0.2,4.4-0.4,6.3,0.2c8.3,2.4,16.6,5.2,24.8,7.9
					c0.6,0.2,0.9,0.6,1.2,1.3c0.7,1.6,2.7,2.2,4.3,1.4c0.8-0.4,1.8-0.4,2.5,0.3c0.9,0.8-0.2,1.4-0.6,1.8c-1.1,1.3-2.4,2.5-3.5,3.8
					c-1.3,1.4-1.3,2.9-0.4,4.6c1.2,2.1,2.7,3.9,4.2,5.7c1.3,1.6,3.4,2.6,3.7,4.6c0.3,1.8,1.2,2.9,2.3,4c2.4,2.3,4.7,4.8,7.2,7
					c2,1.8,4.3,2.8,7,1.2c0.9-0.6,1.8-0.7,2.7,0.1c-0.5,0.7-1,1.3-1.6,2c1.8-0.4,2.5-2.1,4.2-2.5c-1.2,1.2-2.4,2.4-3.5,3.5
					c0.1,0.1,0.3,0.3,0.4,0.4c8.7-11.9,20-21.3,30.1-31.8c0.1,0.1,0.3,0.2,0.4,0.4c-0.9,0.9-1.7,1.7-2.9,2.9c2.9-1.3,3.6-4.4,6-5.8
					c1.9-1.1,3.5-3,5-4.7c1.1-1.1,1.8-1.1,2.9-0.1c9.1,8.6,18.2,17.3,27.3,25.8c1.3,1.2,1.9,2,0.3,3.5c-1.8,1.7-1.4,5,0.5,5.5
					c2.1,0.6,4.5,2.3,6.3-0.6c0.2-0.3,0.5-0.6,1-0.2c0.7,0.5,0.2,0.8,0,1.2c-0.4,0.6-0.8,1.1-1.3,1.6c-1.6,1.8-3.3,3.6-4.9,5.4
					c0.1,0.1,0.3,0.3,0.4,0.4c1.8-1.8,3.6-3.6,5.4-5.4c-1.6,2.9-4.4,4.7-6.1,7.8c0.9-1,1.4-1.2,2,0.1c1,2.2,2.7,2.3,4.4,0.6
					c1-1,2.1-2.1,3.1-3.1c2.8-2.6,2.8-2.6,5.9-0.4c0.4,0.3,0.8,0.6,1.1,0.9c6.8,6.1,13,12.8,19.8,19c1.5,1.4,1.3,2.4,0,3.7
					c-4.4,4.3-8.7,8.7-13.1,13.1c-1,1.1-1.9,2.2-2.2,3.7c-1.2,5.1-2.4,10.2-3.5,15.3c-0.4,1.8-0.7,3.7-2.1,5.1
					c-2.8,2.7-5.6,5.5-8.3,8.3c-1.3,1.3-2.1,1.1-3.3-0.2c-4.1-4.2-8.3-8.3-12.6-12.4c-1.3-1.2-1.4-2.1,0-3.4
					c2.5-2.3,4.8-4.8,7.2-7.2c0.8-0.8,1.3-1.9,0.2-2.4c-3-1.5-4.9-4.4-8-5.9c-2.9-1.4-5.2-1.4-7.5,0.5c-2.1,1.8-2.5,4.2-1.4,7.2
					c0.2,0.4,0.4,0.9-0.3,1.5c-1.9-1.9-3.8-3.8-5.7-5.7c-2.9-2.9-2.9-2.9-0.7-6.3c0.1-0.2,0.3-0.5,0.4-0.7c0.1-0.1,0-0.3,0.1-0.5
					c-1.7,0.8-1.2-1.4-2.2-1.7c-1.3-0.4-0.9-1.3-0.1-2c0.6-0.6,1.2-1.2,1.7-1.8c0.3-0.3,0.9-0.3,0.9-0.2c-0.3,1.9,2.9,1.6,1.9,4.2
					c1.1-1.1,1.8-1.7,2.4-2.4c1.2-1.3,1-3.4-0.6-4c-1.7-0.6-1-1.4-0.3-2.5c-2.7,2-4.5,4.5-7.3,5.9c1.8-1.8,3.5-3.5,5.3-5.3
					c-2.5,1.9-4.9,3.9-7.1,6.1c-3.8,3.8-3.8,3.8,0,7.6c0,0,0.1,0.1,0.2,0.1c1,0.7,1,1.4,0.1,2.3c-3.2,3.3-6.2,6.8-9.3,10
					c-7.5,7.8-15.4,15.2-22.7,23.2c-2.7,3-5.7,5.7-8.7,8.8c-0.6-1-1-1.5-1.1-2.1c-0.9-3-1.7-6.1-2.5-9.2c-2.3-8.7-4.6-17.5-7.1-26.2
					c-2.5-9.1-5.2-18.2-7.9-27.3c-0.2-0.8,0-1.4,0.6-2c0.8-0.8,1.9-1.5,2.1-3c-1.4,0.3-1.7,2.2-3.3,2.1c2.4-2,3.6-3.5,3.9-4.8
					c-4.3,3.7-4.3,3.7-8.3-0.6c-1-1.1-2.4-2-2.8-3.7c5,1.8,10.7,0.4,13.2-3.1c2.6-3.7,2.7-10-0.2-13.3c-2.7-3-7.5-4.8-12.8-2.4
					c-2.6,1.2-4.2,3.3-5.2,5.9c-1,2.6-0.7,5.2,0.1,8.2c-4.5-3.4-8-7.3-12.1-10.5c7.2,7.9,15.3,14.9,22.4,22.9
					c-5.7-4.4-10.4-10-15.8-14.7c1.7,2.1,3.8,3.9,5.6,6c2,2.3,4.9,3.8,5.8,6.9c1,3.5,2,7,3,10.4c0.3,0.9,0.4,2,1.8,2.1
					c0.1-0.7,0.1-1.3-0.2-2c-0.9-2.6-1.7-5.3-1.7-8.3c2,1.2,2.9,2.7,3.4,4.7c1.7,6.4,3.4,12.8,5.2,19.1c2.7,9.9,5.4,19.8,8.1,29.7
					c1.2,4.3,2.3,8.7,3.5,13.4c-1.5-0.9-2.8-1.5-3.2-3.1c-1.4-4.9-2.7-9.8-4-14.7c-1.6-5.6-3.1-11.2-4.8-16.7
					C478.2,641.7,478.4,639.4,476.6,637.9z M499.8,578.1c4.3,0.2,7.5-2.2,9.4-7c0.3-0.9,0.4-1.9,1.9-1.7c0.8,0.1,1.6,0,1.9,0.8
					c0.4,1.2-0.5,1.8-1.2,2.4c-1.9,2-3.9,3.9-5.9,5.9c-3.4,3.4-6.7,6.8-10.1,10.2c-0.8,0.8-1.3,1-2.2-0.3c-0.9-1.4-0.2-2.5-0.1-3.8
					c-0.9,0.8-1.8,1.3-2.9,0.2c-1.2-1.3-2.3-2.6-3.5-3.8c-0.3-0.3-0.7-0.7-0.2-1.1c0.8-0.7,0.6-1.9,1.2-3c1,1.1,1.9,2.1,2.8,3.1
					c1.2,1.4,2.8,2.5,2.6,4.7c0.8-1.1,0.7-2.3-0.2-3.2c-2.8-2.9-5.6-5.7-8.4-8.6c-1.2-1.2-2.3-1.1-3.7-0.2c-1.1,0.7-1.9,2.3-3.2,2.1
					c-1.3-0.2-2-1.9-2.9-2.8c-0.1-0.1-0.3-0.3-0.4-0.4c-3.9-4.8-2.8-8,1.4-11.3c0.3-0.3,0.6-0.5,1.1-0.3c2,1.1,4.4,1.2,6.3,2.5
					c2.7,1.9,5.1,3.9,5.6,7.7c0.5,3.9,3,6.5,7,7.4c-1.9-1-3.4-2.4-4.6-4.3c1.6,1.6,3.3,3,5.8,1.7c0.2-0.1,0.6,0,0.8,0.2
					c0.8,0.9,1.3,0.3,1.9-0.3c0.6-0.6,0.9-0.8,1.4,0.1c0.4,0.8,1.3,0.5,1.8,0.1c0.7-0.5,0.3-1.1-0.1-1.6c-0.4-0.4-1.1-0.7-0.4-1.5
					c0.5-0.5,0.9-0.3,1.4,0.1c0.6,0.5,1.4,0.4,1.9-0.2c0.4-0.5,0.7-1.1,0.2-1.7c-0.8-0.9-0.1-1,0.5-1.1c1.2,0,2.1,0.2,1.7,1.8
					c-0.3,1.2-0.9,2.3-1.7,3.3C504.8,576.6,502.3,577.4,499.8,578.1z M538.2,529.6c0.5,0.3,1.1,0.7,1.6,0.9c1.6,0.6,1.8,1.2,0.6,2.6
					c-1.9,2.2-4.1,4.2-6.1,6.3c-2.8,2.9-5.7,5.7-8.5,8.6c-1,1-1.6,0.9-2.1-0.4c-0.5-1.2-1-2.4-1.5-3.6c0.2,3.2,1.1,6.2,3.7,8.4
					c2.2,1.9,2.2,2.4,0.3,4.3c-2.7,2.7-5.6,5.3-8.1,8.2c-2.5,2.9-5.3,3.7-8.9,2.7c3.4-2.4,4.7-5.5,3.5-9.6c-0.2-0.5-0.1-1.1-0.7-0.9
					c-2,0.4-2.4-0.8-2.9-2.3c-0.6-1.9-1.2-2-2.5-0.4c-1.7,2.2-4.1,3.6-5.4,6.3c-1.2,2.4-1.6,3.3,0.2,5.5c0.3,0.4,1,0.6,0.8,1.4
					c-2.8,0.3-5.7,0.2-8.6-0.1c-1.2-0.1-2.6,0.4-3.7-0.8c-3.6-3.7-7.2-7.3-10.9-10.9c-0.5-0.5-0.7-0.9-0.2-1.4
					c0.9-1,1.9-1.8,2.8-2.8c0.6-0.6,1.1-0.5,1.8,0c2.9,2.6,5.1,6.1,9.1,7.3c0.6,0.2,0.8,1.5,1.8,0.6c0.9-0.8,2.2-1.9,1.8-2.8
					c-0.6-1.7-1-3.7-2.7-4.9c-1.9-1.4-3.5-3.3-5.4-4.8c-0.8-0.7-0.9-1.2-0.2-2c4.9-5,9.7-10.1,14.6-15.1c3.9-4,7.8-7.9,11.7-11.8
					c7.4-7.5,14.7-15.1,22.1-22.6c1.1-1.1,1.9-1,3,0c2.5,2.5,4.7,5.4,8,7c0.9,0.4,1.6,1,2.6,0.3c1-0.7,1.2-1.5,0.9-2.5
					c-0.7-2.3-1-4.7-3.4-6.1c-1.3-0.8-2.3-2-3.4-3.1c-1-0.9-2-1.7-0.3-2.9c1.2-0.9,1.9-2.7,3.8-0.7c3.5,3.7,7.2,7.2,10.8,10.7
					c0.5,0.5,0.7,1,0.6,1.6c0,1.6,0,3.2,0.1,4.7c0.1,2.9-0.1,5.9-0.5,8.9c-1-0.7-1.7-1.3-2.5-1.8c-0.6-0.4-1.3-0.5-1.6,0.2
					c-0.4,0.8,0.3,1.3,0.9,1.3c2,0.3,2.7,1.6,2.8,3.3c0.1,1.9-0.5,3.5-2.1,4.7c-1.6,1.2-3.2,1.6-5.5,0.5c0.6,1.1,0.9,1.3,1.4,1.5
					c2.1,0.6,3.8-0.2,5.3-1.7c0.3-0.3,0.6-0.7,1-0.5c0.4,0.2,0.3,0.7,0.3,1.1c0.2,0.9,0.1,1.6-0.5,2.3c-3,3.2-6,6.4-9.1,9.4
					c-1,1-1.7,0.9-2.7,0C543.9,531.6,541.5,529.8,538.2,529.6z M601.5,561.6c0.7-0.3,1.3-0.6,2.2-1.1c-0.3,1.6,0.6,2.4,1.8,2.7
					c1.2,0.3,0.8,0.9,0.4,1.4c-0.4,0.5-0.9,1-1.4,1.4c-1,1-2.1,2.2-2.2-0.5c0-0.7-0.8-0.7-1.2-0.9c-1-0.4-1.2-0.8-0.4-1.6
					C601,562.7,601.4,562.3,601.5,561.6c-0.6,0.9-1.6,1.3-2.4,1.7c-2.1,0.9-3.6,2.1-3.8,4.6c0.8-0.5,1.5-0.7,2.1,0.2
					c0.5,0.6,1,1.2,1.8,1.3c1.3,0.1,1,0.9,0.4,1.3c-1.3,1.2-2.3,2.7-4.1,3.5c0.2-1.2,0.4-2.5-0.8-3c-1.4-0.7-1-1.5-0.5-2.4
					c-1.8,1-3.8,1.6-5.1,3.3c-1.3,1.6-2.7,3-4.4,4.1c-0.5,0.3-0.8,1.1-1.6,0.6c-0.6-0.4-0.9-1.1-0.6-1.8c0.6-1.5,0.1-2.9-0.1-4.3
					c-0.4-2.4-1.8-3.1-3.8-1.7c-1.8,1.3-2.7,0.7-4-0.6c-5.4-5.7-11-11.4-16.5-17.1c-3.2-3.3-6.4-6.5-9.7-9.7c-0.9-0.9-1-1.6,0-2.6
					c2.3-2.1,4.1-4.6,6.4-6.7c6.5-6,12-12.9,18.6-18.7c0.8-0.7,1.5-1.6,2.2-2.5c0.3-0.4-0.5-0.9,0.3-1.6c2.7-2.5,5.2-5.1,7.8-7.7
					c-0.1-0.2-0.1-0.4-0.2-0.6c-0.9,0.7-1.7,1.1-1.4-0.5c0.2-1.2,0.3-2.2,1-3.3c1.6-2.2,1.2-4.6-0.7-6.5c-2.6-2.6-5.2-5.2-7.9-7.7
					c-0.7-0.7-1.4-1.7-2.6-1.6c-2,0.2-3-1-4.2-2.2c-1.4-1.4-2.8-2.9-4.3-4.2c-2.9-2.6-5.7-2.6-8.6,0.1c-1.2,1.1-2.3,2.2-3.5,3.3
					c-0.3,0.3-0.6,0.8-1.2,0.4c-1.2-1-1.3-3,0-4c0.5-0.4,1.4-0.7,0.9-1.6c-0.5-0.8-0.9-2.3-1.8-2c-2.3,0.8-2.2-1.1-2.8-2.2
					c-1.4-2.3-2-4.9-2.9-7.3c-2.8-7.7-5.3-15.5-6.4-23.7c-0.7-5.9-2.7-11.5-5-17c-0.8-1.8-1.4-3.7-2.1-5.5c2.5,2,4.7,4.2,6.8,6.4
					c0.4,0.4,1.1,0.9,0.2,1.4c-1.3,0.8-0.9,2-1,3.2c-0.1,1.3,0.7,1.9,1.7,1.9c1.1,0,1.9-0.7,2-2c0-0.7-0.3-1.5,0-2.2
					c0.6,0,1.1,0.4,1.5,0.7c3.6,2.7,7.2,5.2,10.7,8c6.4,5.1,11.8,11.1,16.4,17.8c4.9,7.1,9.1,14.5,13.3,22
					c3.1,5.5,6.1,11.2,8.4,17.1c0.8,2,0.9,3.6-0.9,5.3c-1.6,1.6-3.4,3.1-4.9,5.6c1.8-1.8,3-3.1,4.4-4.4c0.6-0.6,1.2-1.8,2-1.5
					c0.9,0.4,1.4,1.5,1.5,2.6c0,0.3,0.2,0.5,0.2,0.8c0.8,5.6,2.3,10.9,4.8,15.9c2.2,4.6,4.2,9.3,7.1,13.5c3.2,4.9,6.5,9.7,9.7,14.5
					c1.8,2.7,1.7,2.7-0.3,5.3c-2.1,2.6-5.2,4.5-6,8c0.9,0,1.2-1.1,2.2-1.3c0.2,1.7,1.2,2.6,3.1,2.8c-1.3,1.6-2.5,3.1-4.3,4.4
					c0-2-0.7-3.3-2.8-3.4c0.3-0.4,0.6-0.6,0.6-0.8c0.1-0.3,1-0.5,0.1-0.8c-0.5-0.2-0.1-0.9-0.7-0.8c-0.3,0.1-0.9,0.4-0.3,1
					c0.2,0.2-0.4,0.8-0.7,0.8c-2-0.4-2,1.3-2.7,2.4C602,560.3,602.2,561.2,601.5,561.6z M206.4,354.9c1.4,0.6,3-0.4,4.5,0.4
					c-3.2,1.4-39,5.7-41.1,4.9c2.1-0.8,4.4-0.3,6.3-1.5c-2.1-0.4-4.2,0.8-6.5-0.1c7.7-8.7,16.1-16.5,24.5-24.7
					c-0.6,2.1,1.2,2.2,2.1,3.1c3.7,3.6,7.4,7.2,11.1,10.7c0.6,0.6,1.2,1.2,1.9,0.5c0.7-0.7,0.7-1.4-0.2-2c-2.8-3.3-6.6-5.7-8.9-9.5
					c1.7,1.2,3.2,2.6,5.4,2.6c0.5,0,1,0.5,0.6,1c-1,1.7,0.4,2.5,1.3,3.4c0.8,0.7,1.7,1.3,1.5,2.5c0.9-0.9,2,0.8,3-0.4
					c1.1-1.3,2.5-2.4,3.8-3.5c0.9-0.7,1-1.6,0.3-2.4c-1.2-1.4-2.5-2.6-3.8-3.8c-0.4-0.4-1-0.6-1.5-0.2c-1.2,0.8-1.8,0.1-1.7-1
					c0.1-1.7-0.8-3.1-1.5-4.5c0.3,0.1,0.5,0.2,0.7,0.4c2.5,2.5,4.9,5.1,7.5,7.6c0.6,0.6,1.3,1.4,2.3,0.4c1.1-1.1-0.1-1.4-0.6-1.9
					c-3.8-4.2-8.2-7.7-11.9-12c-1.1-1.3-1-2,0.1-3.1c2.1-2,4-4.1,6-6.1c2.7-2.8,5.4-5.6,8.1-8.3c0.4-0.4,1.1-1.6,1.7-0.4
					c0.7,1.4,1.6,1.5,2.9,1.1c0.6-0.2,1.2-0.2,1.6,0.5c-0.5,0.5-0.8,1.1-1.1,1.7c-1.6,3-2.1,6.7-4,9.2c-1.7,2.3-2.9,3.9-2.2,6.9
					c0.3,1.4,0.6,2.5,1.6,3c2.1,1,2.5,3.6,4.5,4.6c0.4,0.2,0.1,0.6,0,0.9c-0.1,0.9,0.4,1.6,1.2,1.6c0.9,0.1,1.6-0.7,1.5-1.6
					c-0.1-1,0.2-1.7,0.9-2.4c0.7-0.7,1.2-1.7,2-2.5c0.7-0.7,1.1-2,0.2-2.8c-1.2-1-0.3-1.4,0.3-2.1c0.9-1.1,2.6-1,3.2-2.2
					c1.9-3.4,5-5.7,7.6-8.5c3-3.1,6-6.2,9.1-9.2c1-1,2-2.7,3.9-1c0.4,0.3,2.1,0.2,1.7-1c-0.8-2.2,0.7-2.1,1.9-2.4
					c1.3-0.3,2.1-1.1,1.2-2.1c-1.2-1.5-0.3-2.2,0.6-3c0.9-0.9,1.8-1.9,2.7-2.8c2.7-2.8,5.4-5.5,8.2-8.2c0.5-0.4,0.8-1.2,1.9-0.7
					c1.6,0.7,2.5-0.3,2-2c-0.1-0.5-0.1-0.9,0.2-1.1c1.5-1.2,2.3-3.4,4.8-3.1c0.3,0.1,0.8-0.2,1.1-0.5c0.8-0.8,1.5-1.2,2.7-0.7
					c0.6,0.3,1.4,0.1,1.7-0.8c0.2-0.6,0.4-1.2-0.3-1.7c-2-1.3-3.2-3.4-5-4.9c-1.9-1.5-2.7-4.2-5.5-4.8c4-4.5,8.9-8,13-12.2
					c-3.8,2.3-6.8,5.5-10.3,8.2c-7,5.6-13.8,11.6-20.3,17.7c-5.5,5.2-11.5,9.8-16.9,15c-0.4,0.4-1.2,1.2-1.7,0.6
					c-0.7-0.8,0.4-1.3,0.8-1.7c2.8-2.6,5.7-5.2,8.6-7.8c5.5-4.7,10.8-9.8,16.4-14.5c4-3.3,7.8-6.8,11.7-10.2
					c4.6-4.1,8.9-8.4,13.9-12.2c0.5-0.4,1.1-1.2,1.7-0.4c0.7,0.8-0.3,1.2-0.7,1.7c-0.7,0.9-1.9,1.5-2.3,2.8c0.8,0.1,1-0.4,1.4-0.7
					c1.4-1,2.6-2.3,4.7-2.2c1.8,0.1,2.8-1.1,2.7-3c0-0.7,0.4-1.1,0.8-1.5c2.9-3.2,6.5-5.5,9.6-8.4c1.5-1.4,2.4-1.2,3.3,0.4
					c0.8,1.4,1.8,1.4,3.1,0.8c0.5-0.3,0.7-1.6,1.5-0.8c0.4,0.4,0.6,1.5,0.3,2.1c-0.9,1.7,0.3,2.7,1.3,3.2c1.2,0.5,1.9-0.7,2.8-1.5
					c1.4-1.3,2.1-3.5,4.7-3c0.7,0.1,1.1-0.8,1-1.6c-0.1-0.9-0.7-0.8-1.3-0.9c-1.8-0.2-3.4-1.2-5.3-1.1c-0.5,0-0.8-0.7-1.1-1.2
					c0.4-0.5,2,0.1,1.4-1.4c-0.4-1.1-1.3-2.6-2.2-2.3c-1.6,0.4-2.8,0-4.1-0.7c-1.1-0.6-2.5-1-3.2,0.3c-0.8,1.5-2.2,2-3.3,3.1
					c-0.8,0.8-1.7,1.1-2.9,0.8c0.3-1,1.1-1.5,1.8-2.1c2.9-2.3,5.7-4.8,8.5-7.3c1.1-1,2-2.2,3.7-0.9c0.2,0.1,0.8,0,1-0.2
					c1-1,1.7-0.3,2.5,0.4c1.3,1.2,2.6,2.5,3.9,3.8c0.5,0.4,0.9,0.8,1.5,1c0.5,0.1,0.9,0.4,1.3-0.1c0.3-0.5,0.1-0.9-0.3-1.3
					c-0.3-0.3-0.7-0.5-0.9-0.8c-2.2-2.4-4.8-4.3-6.8-7.2c1.9,0.3,3.4,0.6,5,0.9c0.8,0.2,1.2,0.7,0.9,1.7c-0.6,2.1,0.5,3.6,3.4,5.5
					c1.8,1.2,2.4-0.5,3.5-1.1c0.4-0.2,0.6-0.6,0.9-0.9c2.9-2.8,3-2.8-0.1-5.4c-1.2-1-2-2.5-4.1-2.2c-0.6,0.1-1.9-1.1-1.8-2.2
					c0.1-1.4-0.5-2.5-1.2-3.8c1.6,0.8,2.7,1.8,3.8,2.9c1.7,1.6,3.4,3.2,5.1,4.7c0.6,0.5,1.3,0.7,1.8,0c0.5-0.6,0-1.2-0.5-1.6
					c-4.3-3.6-8.4-7.4-12.4-11.4c-1.3-1.3-1.2-1.7-0.1-2.8c3.9-3.7,7.7-7.5,11.6-11.2c3-3,6-6,9-9.1c0.4-0.4,1-1.2,1.4-0.3
					c0.5,1.4-0.1,2.9-0.3,4.3c-0.1,1-1.3,0.7-2.1,0.9c-4.5,1.3-6.5,4-6.8,8.2c-0.1,0.8,0.1,1.5,0.8,2.1c2,1.9,2.5,6.1,0.9,8.4
					c-1.1,1.6-1.3,3,0.1,4.5c0.7,0.8,1,1.8,1.3,2.8c0.6,1.9,1.2,3.8,1.8,5.7c0.1,0.3,0.5,0.5,0.3,0.9c-0.3,0.6-0.7,0.1-1.1,0.1
					c-0.8-0.2-1.6-0.1-1.9,0.8c-0.2,0.8,0.4,1.3,1.1,1.6c0.4,0.2,0.7,0.4,1.3,0.6c-4.8,6-10.7,10.8-15.7,16.5
					c0.6,0.5,0.7-0.6,1.1-0.2c0.3,0.3,0.1,0.6-0.2,0.9c-2,2-4.1,4.1-6.1,6.1c2.2-1.9,4.7-3.5,6.7-5.6c1-1,1.7-0.9,2.6,0
					c2.9,2.8,5.8,5.6,8.7,8.4c3.8,3.7,7.6,7.3,11.4,11c5.7,5.5,11.5,11,17.2,16.5c0.7,0.7,0.8,1.2,0,2c-5,5.6-10.3,10.9-15.6,16.2
					c-3.9,3.9-7.8,7.8-11.7,11.7c-9.2,9.3-18.4,18.6-27.6,27.9c-10.7,10.7-21.4,21.3-32.2,32c-3.4,3.4-6.8,6.8-10.3,10.2
					c-2,2-2.2,1.9-4.2,0c-1.4-1.2-2.7-2.5-4-3.8c-3.7-3.5-7.5-7-11.2-10.5c-0.5-0.5-1.7-1.1-0.5-2.1c0.7-0.5,1.1-1.1,0.9-1.9
					c-0.1-0.4-0.5-0.7-0.9-0.7c-0.9,0.1-1.5,0.6-1.8,1.5c-0.1,0.2-0.2,0.3-0.4,0.5c-1.9-1.4-3.4-3-5-4.7c-3.6-3.6-7.3-7-10.8-10.6
					c-0.7-0.7-3.2-1.9,0.2-2.7c0.8-0.2,1-1.2,0.5-1.9c-0.5-0.8-1.3-0.7-1.9,0c-0.4,0.5-0.9,1-1.3,1.5c-0.2-0.2-0.4-0.3-0.5-0.5
					c7.5-9.2,16.1-17.3,24.1-26c-4.5,4.2-8.5,8.9-13.2,12.9c-0.1-0.2-0.3-0.3-0.4-0.5c1.7-1.7,3.4-3.4,5.4-5.4
					c-1.6,0.5-2.2,1.7-3,2.4c-4.8,4.5-9.6,9-14.1,13.8c-3.3,3.6-6.6,7.3-10,10.7c-2.9,2.9-5.3,6.8-10.2,6.8
					C206.9,354.4,206.6,354.7,206.4,354.9z M649.1,488.7c-1-1.3-2.4-1-3.7-1c-0.3,0-0.6,0.4-0.9,0.1c-1.2-1.1-2.9-1.4-4.4-1.8
					c-3.1-1-6.3-1.8-9.5-2.7c-8-2.2-16.2-3.9-24.3-6c-2.7-0.7-5.4-1.3-7.5-3.6c-3.5-3.7-7.3-7.1-10.9-10.8c-3.9-4-8.1-7.7-12-11.7
					c-5.3-5.4-10.8-10.6-16.2-15.8c-8.1-7.8-15.9-15.9-24-23.6c-3.3-3.1-6.5-6.5-9.5-9.9c-0.4-0.4-0.7-0.9-1-1.3
					c-2.4-4-4.5-8.2-7.8-11.7c-4.6-4.9-10-8.6-15.9-11.7c-2.2-1.2-4.6-2.2-5.5-5c-0.7-2.2-0.5-4.9-3.4-5.8c-0.1,0-0.2-0.4-0.3-0.5
					c-0.6-1.2-1.4-2.2-2.4-3.1c-8.6-8.4-16.6-17.4-24.9-26c-0.5-0.5-1-0.9-1.6-0.6c-1.8,0.6-2.9-0.4-3.9-1.6
					c-1.2-1.2-2.3-2.5-3.6-3.7c-9.4-8.9-18.7-17.9-27.8-27c-9.6-9.6-19-19.3-28.8-28.6c-5.8-5.5-11.2-11.3-17.1-16.6
					c-6-5.4-11.6-11.1-17.3-16.9c-5.7-5.7-11.5-11.4-17.3-17.1c-1-1-1.5-1.9-1.1-3.4c0.5-2.6,0.5-5.3,0.8-8c1-7.9,1.6-15.8,2.4-23.7
					c0.2-2.3,0.7-4.5,1.1-7.3c3.2,3.2,6,6,8.8,8.8c5.7,5.6,11.3,11.1,17,16.7c0.5,0.5,1.4,1,1.1,1.8c-0.2,0.7-1.2,0.5-1.9,0.6
					c-2.6,0.5-3.5,2.3-2.4,4.8c0.6,1.3,1.8,2.1,2.7,3.1c1.2,1.3,2.7,1.7,4.1,0.9c1.3-0.8,2.3-2,1.8-3.8c-0.2-0.9-0.1-1.5,1-1
					c0.4,0.2,0.8,0.5,1.1,0.9c7.5,7.3,15.1,14.5,22.5,21.8c5.8,5.7,11.5,11.5,17.3,17.2c2.2,2.2,4.3,4.3,6.4,6.5
					c0.3,0.3,0.7,0.6,0.5,1c-0.2,0.5-0.8,0.3-1.1,0.2c-0.4-0.1-0.8-0.3-1.1-0.4c-1.2-0.3-2.1,0.4-3,1.1c-0.8,0.6-0.4,1.4-0.2,2.3
					c0.5,2.1,2,3.4,3.7,4.6c1.1,0.8,2.5,0.9,3.5,0.1c0.9-0.7,1.8-1.8,1.1-3.2c-0.3-0.6-0.2-1.2,0.2-1.7c0.5,0,0.8,0.4,1,0.7
					c10.6,10.1,20.8,20.6,31.2,30.9c0.7,0.7,2.1,1.4,1.8,2.3c-0.3,0.8-1.8,0.6-2.8,0.7c-2.2,0.3-3.2,2.2-2.1,4.1
					c0.9,1.5,2.1,2.8,3.8,3.5c1,0.5,2.1,0.8,3.1-0.1c0.9-0.8,1.6-1.7,1.2-3.1c-0.2-0.7-0.4-1.5,0.5-2.3c1.2,1.2,2.5,2.5,3.7,3.7
					c14.7,14.7,29.4,29.4,44.2,44.1c0.5,0.5,1.4,1,1.1,1.8c-0.3,0.8-1.2,0.4-1.9,0.4c-2.4,0-3.5,1.8-2.4,3.9
					c0.7,1.3,1.6,2.4,2.7,3.3c2.1,1.8,4.5,1,5.1-1.8c0.1-0.4,0-0.8,0.1-1.2c0.1-0.5,0-1.1,0.5-1.3c0.4-0.2,0.7,0.3,1,0.6
					c1,0.9,2,1.7,2.9,2.7c9.3,9.3,18.7,18.5,28,27.8c0.6,0.6,1.7,1.2,1.4,2c-0.3,0.7-1.4,0.8-2.4,1c-2.3,0.4-2.6,1-2,3.4
					c0.4,1.8,1.8,2.9,3.1,4.1c1.3,1.2,2.6,1.1,4,0.5c1.4-0.6,1-1.9,0.8-2.9c-0.1-0.6-0.1-1.1,0.4-1.5c0.6-0.4,1.1,0.2,1.5,0.4
					c0.5,0.3,0.9,0.8,1.4,1.2c4.2,4.1,8.4,8.3,12.6,12.4c9.9,9.6,19.9,19.2,29.7,28.9c1.7,1.7,3.8,3,4.9,5.5c-1.3,0-2.4,0.5-3.6,0.4
					c-1.5,0-2.5,1.6-2.3,3c0.4,2.2,1.9,3.7,3.7,4.8c2.5,1.5,5.2-0.1,5.1-3c0-0.8-0.3-1.7,0.4-2c0.7-0.3,1.1,0.6,1.6,1.1
					c9.8,9.8,19.6,19.5,29.4,29.3c5.3,5.3,10.6,10.7,15.8,16c0.4,0.4,1.2,0.9,0.8,1.5c-0.4,0.8-1.1,0.1-1.6,0
					c-3.8-0.7-7.4-2-11.2-2.4c0.4,1.7,1.9,1.9,3.3,2.3c3.4,0.9,6.9,1.8,10.2,2.9c1.8,0.6,4.2,0.1,4.9,3c-2.5,0-4.7-1.2-7.2-1.5
					c0.4,0.8,1,0.8,1.6,1c1.7,0.6,3.5,0.6,5.1,1.4c2.1,1.1,2.2,1.2,0.6,2.9c-0.1,0.1-0.2,0.2-0.3,0.3c-7.8,8-15.4,16.1-23.5,23.9
					c-1.1,1.1-2,2.4-3.6,3.4c0.8-1.6,0-2.3-0.8-3.1c-4.6-4.5-9.1-9.1-13.7-13.6c-1.3-1.3-1.2-3.5-3-4.7c-1.4-0.9-2-0.5-3,0.4
					c-1,1-1.1,1.7-0.1,2.8c1.2,1.3,3.1,1.7,4.2,2.7c4.3,3.8,8.3,8.1,12.5,12.3c-3.1,0.9-3.7,0.9-4.2-0.6c-0.8-2.7-3-3.6-5.3-4.4
					c-2.3-0.8-4,0.4-5.2,2.5c-1.2,2.3-0.4,4.3,0.6,6.6c-2.8-1.7-4.7-4.1-6.7-6.3c-0.5-0.5-1.3-0.8-1.3-1.6c-0.1-2-2-2.5-3-3.7
					c-0.5-0.6-1.1-0.3-1.6,0.2c-1.5,1.4-1.4,2.8,0.3,4.5c0.4,0.4,1.5,0.7,1.1,1.3c-1.4,2.4,0.7,3.4,1.9,4.6c2.4,2.5,2.3,2.4,0,5
					c-1,1.2-1.5,0.7-2.2-0.1c-1.3-1.4-2.1-3.2-3.1-4.8c-2.7-4.5-5.4-9-7.2-13.9c-1.5-4-2.9-8-4.1-12.4c1.5,0.8,2.8,0.3,4,0.6
					c1.5,0.3,3.3,0,3.5-1.4c0.3-1.7,1.6-3.6,0.2-5.5c-1.4-1.9-3-1.8-5.7-0.3c-1.1,0.6-1.7,2.7-2.7,2.3c-1.3-0.5-0.3-2.5-1.1-3.8
					c-0.6-1-0.3-2,0.6-2.8c2.3-2.3,4.7-4.4,6.6-6.9c2.3-3.1,5-2.8,8-1.8c0.1,0,0.3,0.1,0.4,0.1c2.2,0.2,4.1,1.5,6.3,1.4
					c0-0.8-0.5-0.8-1-0.9c-3.1-0.8-6.3-1.6-9.4-2.4c-1-0.3-1.9-0.6-2.2-1.8c7.3,1.8,14.5,3.4,21.7,5.2c4.6,1.2,9.2,2.6,13.9,3.9
					c2.6,0.7,5.3,1.4,7.9,2.1C649.4,490,649.6,489.6,649.1,488.7z M446.9,522.3c1.5,0,2.4-0.2,3.3,0.2c3.3,1.7,6.5,3.5,9.8,5.3
					c2.5,1.4,5.1,2.8,7.6,4.3c0.6,0.3,1,0.3,1.5-0.1c0.5-0.5,0.3-1-0.1-1.5c-0.3-0.5-0.8-0.8-1.3-1c-4.8-2.6-9.7-5.2-14.5-7.9
					c-1.2-0.7-2.5-1.2-3.5-2.4c-1.2-1.4-2-3.9-4.9-3.1c-1,0.3-0.8-0.8-0.2-1.4c1.2-1.3,2.3-2.6,3.5-3.8c6.1-6.2,12.1-12.4,18.2-18.6
					c2.1-2.2,4.3-4.4,6.5-6.5c0.8-0.8,1.8-1.5,2,0.5c0.1,0.8,0.6,1.3,1.3,1.4c2,0.3,3.6,1.6,4.9,2.8c3.6,3.4,7.3,6.8,10.5,10.5
					c0.9,1.1,2.1,2,3.3,2.8c0.7,0.5,1.5,0.5,2.1-0.2c0.7-0.7,0.2-1.4-0.4-2c-0.7-0.7-1.5-1.5-2.2-2.2c-5-5.6-11.9-9.5-14.7-17
					c-0.1-0.2-0.4-0.5-0.6-0.5c-3.2-0.1-1.1-1.4-0.4-2.1c6-6.2,12.1-12.4,18.2-18.6c3-3,5.9-6.1,8.9-9c0.4-0.4,0.9-1.2,1.7-0.8
					c0.8,0.4,0.6,1.1,0.5,1.8c-0.1,0.7-0.1,1.4,0.6,1.8c2.5,1.4,4.4,3.2,5.7,5.8c2.4,4.7,5,9.3,7.4,13.9c0.6,1.2,1.4,1.8,2.9,1.3
					c-1.9-4.4-4.8-8.2-6.4-12.7c3.4,2.8,6.9,5.5,9.9,8.7c-0.3-0.6-0.8-1.1-1.2-1.5c-2.3-2.3-4.6-4.5-6.8-6.8
					c-0.7-0.7-1.8-1.3-0.4-2.8c1.8-1.9-0.2-7.2-2.8-7.9c-0.9-0.2-1.7-1.4-2.7-0.7c-1.1,0.8-1.3,0-1.8-0.7c-1.4-2.3-2.9-4.7-4-7.1
					c-1.1-2.5-4.6-4.6-2-8.3c1.1-1.6-0.8-5.6-2.6-6.7c-1.2-0.7-2.5-1.7-3.1,0.9c-1.9-2.3-3-4.7-4.3-6.9c-3.3-5.8-6.5-11.6-9.7-17.4
					c-3-5.4-6.1-10.7-9-16.1c-3.1-5.6-5.8-11.3-9.1-16.8c-3.7-6.1-7.1-12.4-10.7-18.5c-2.3-4-4.6-8.1-6.8-12.2
					c-0.5-0.8-1-1.8,0.6-2.2c3.5-1,7-2.2,10.6-2.7c0.5-0.1,0.9-0.2,1.5,0.4c4.7,4.9,9.4,9.8,14.1,14.6c0.6,0.6,1.2,1.2,0.7,2.3
					c-0.4,1,0.2,2,1.2,2.4c1.3,0.6,1.7,1.5,1.6,2.9c-0.1,0.9,0.5,1.8,1.4,2.1c1,0.5,1.2-0.5,1.6-1.1c0.3-0.5,0.8-0.9,1.3-0.3
					c1.1,1.1,2.1,2.2,3.1,3.4c0.4,0.4,0.4,1.1-0.2,1.5c-1.7,1-1.6,2.5-1.2,4.2c0.8,3.8,3.4,5.6,7.2,4.7c0.8-0.2,0.9,0.4,1.2,0.8
					c1.9,3.2,3.8,6.4,5.7,9.5c3.5,5.8,7,11.5,10.4,17.4c2.8,4.8,5.4,9.8,8.1,14.7c0.4,0.8,0.6,1.3,0,2c-0.9,1-0.6,2.1,0.4,2.9
					c1,0.8,1.6,1.7,1.7,3.1c0.2,1.2,0.4,3.4,2.7,1.7c0.5-0.4,0.6,0.2,0.7,0.4c0.5,0.7,0.9,1.5,1.4,2.2c1.1,1.7,0.1,1.9-1.1,2
					c-1.8,0.1-2,1.5-1.8,2.6c0.2,1.4,0.7,2.8,1.3,4c1,2,3.6,3,5.3,2.2c0.7-0.3,1.2-1.7,2.1-0.4c0.5,0.7,0.9,1.5,1.3,2.3
					c0.1,0.3,0.1,0.5-0.3,0.8c-1.6,1.1-1.7,1.9-0.2,3.1c1.4,1.1,2.2,2.3,2.2,4.2c0,0.6,0.2,1.7,1.2,1.3c2.1-0.8,2.1,0.9,2.5,1.9
					c1.6,4.1,3.2,8.1,4.5,12.3c0.8,2.5,2.9,5.1,0,7.6c-0.1,0.1-0.1,0.3-0.1,0.4c-0.3,1.2-1.2,1.6-2.3,1.7c-1.8,0.1-3.1,1.3-4,2.5
					c-0.9,1.1,0.6,2.2,1.2,3.2c0.1,0.1,0,0.2,0.2,0.7c-2.3-2-4.2-3.8-6.2-5.5c0.3,0.7,0.8,1.2,1.3,1.7c2.3,2.5,4.7,5,7,7.5
					c0.9,1,1.2,1.8,0,3c-6,6-11.8,12.2-17.7,18.2c-10.1,10.4-20.2,20.7-30.4,31c-4,4-8,8-12,12c-1,1-1.7,1.3-3.1,0.1
					c-5.3-4.8-10.3-10-15.5-14.9c-4.1-3.9-7.5-8.5-12.7-11C449.1,523.7,448.3,523.2,446.9,522.3z M454.8,491.3
					c-5.9,6.6-10.6,11-15,15.6c-0.9,0.9-1.6,1.3-2.9,0.5c-4.8-2.8-9.7-5.5-14.6-8.2c-10.3-5.8-20.6-11.6-30.9-17.4
					c-5.6-3.1-5.6-3.3-0.9-7.6c3.6-3.2,3.6-3.2,6.9,0.8c0.6,0.8,1,1.1,1.7,0.1c0.3-0.4,0.8-0.8,1.1-1.2c2.7-2.9,2.7-3-0.1-5.8
					c-1.3-1.3-1.5-2.3,0-3.8c4.8-4.6,9.5-9.4,14.2-14.1c2.5-2.5,2.5-2.4,5,0c2.1,2.1,2.1,2.1,4.1,0.1c0.5-0.5,0.9-1.1,1.5-1.5
					c1.5-1,1.4-1.7,0-2.8c-3.6-2.9-3.5-3.2-0.1-6.3c0.1-0.1,0.2-0.2,0.3-0.3c1-1.1,1.7-1.1,2.9,0c6.8,6.5,13.7,12.8,20.5,19.3
					c6.1,5.8,12,11.8,18,17.6c1.1,1.1,1.5,1.8,0.2,3.2C462,484,457.6,488.6,454.8,491.3z M482.5,463.3c0.1,0.1,0.2,0.2,0.2,0.2
					c-3.7,3.7-7.4,7.4-11,11.1c-0.9,0.9-1.5,1.2-2.5,0.1c-12.5-12.3-25.6-23.8-38-36.2c-2.6-2.6-2.5-2.5-0.2-5
					c2.8-2.9,2.1-3.4,5.5,0.2c1.4,1.4,2.4,1.1,3.5,0.1c3.4-3.3,3.3-3.3,0-6.7c0,0-0.1-0.1-0.1-0.1c-1.2-1-1.1-1.8,0-2.9
					c5.1-5,10.2-10,15.1-15.2c1.3-1.4,2.3-1.2,3.4,0c0.3,0.3,0.5,0.6,0.8,0.9c2.2,2.1,2.8,2.1,4.8-0.2c2-2.3,2-2.3-0.1-4.6
					c-0.4-0.5-0.8-0.9-1.2-1.4c-0.8-0.9-0.8-1.6,0.1-2.5c1.2-1.1,2.4-2.3,3.6-3.5c2.1-2.2,2.3-2.2,4,0.4c3.3,5.3,6.2,10.9,9.3,16.3
					c6,10.6,11.6,21.4,18,31.8c0.6,0.9,0.4,1.6-0.3,2.4C492.3,453.4,487.4,458.4,482.5,463.3z M413.8,422.1
					c-6.1-5.3-10.2-9.7-14.6-14c-2.4-2.3-2.5-3.8-0.4-5.9c5.3-5.4,10.7-10.7,16.1-16.1c4.6-4.6,9.1-9.3,13.7-13.9
					c5.2-5.2,10.3-10.4,15.5-15.6c0.9-0.9,1.5-1.4,2.4,0.2c2.3,4.3,4.8,8.5,7.3,12.8c4.2,7.2,8.4,14.4,12.6,21.7
					c0.9,1.6,1.5,3.2-0.5,4.6c-0.9,0.7-1.6,1.7-2.5,2.5c-3.7,3.8-3,3-6.1-0.1c-1.9-1.9-2.2-1.9-4.1,0c-3.4,3.3-3.1,2.7,0.1,5.6
					c2.3,2,2.3,2.7,0.3,4.8c-4.9,5-9.9,9.9-14.7,15c-0.9,0.9-1.6,0.9-2.4,0c-1-1-2-2-2.9-3c-0.7-0.7-1.2-0.8-2.1,0
					c-1,0.8-1.5,2-2.6,2.7c-1.4,0.9-1.3,1.6,0,2.7c4,3.5,3.9,3.6,0.5,7.4c-0.1,0.2-0.3,0.3-0.4,0.4c-1.1,1.3-2,1.5-3.4,0.1
					C421.2,429.4,416.8,425.1,413.8,422.1z M371.1,431c-0.1-0.1-0.3-0.3-0.4-0.4c6.9-6.9,13.8-13.8,20.7-20.7c4.3-4.3,3.5-4.3,8.1,0
					c8.1,7.7,15.8,15.7,23.7,23.6c3,3,3.8,2.4,0,6.2c-2.6,2.6-2.1,2.8-4.8,0.1c-0.5-0.5-1.2-1-1.6-1.6c-1.1-1.7-2-1.1-3.1,0.1
					c-3,3.2-3.1,3.2,0.1,6.4c2,2,2.1,2.3,0.1,4.4c-4.8,4.9-9.7,9.8-14.4,14.8c-1.4,1.5-2.3,1.4-3.7-0.1c-3.7-3.9-3.8-3.8-7.3,0.3
					c-0.8,0.9-0.5,1.3,0.2,2c1.1,1,2.1,2.1,3.2,3.2c0.7,0.7,0.7,1.2,0,1.9c-1.7,1.7-3.4,3.4-5,5.3c-1.2,1.4-2.3,1.2-3.6,0.4
					c-5.2-2.9-10.3-5.9-15.5-8.9c-6.2-3.5-12.4-7.1-18.6-10.6c-2.1-1.2-2.4-1.9-0.6-3.7C356,446.1,363.6,438.6,371.1,431z
					 M418,535.1c0.6-0.7,2-0.5,1.8-1.6c-0.2-0.9-1.2-1.6-2.1-1.4c-2.2,0.6-3.2-0.4-3.8-2.4c-0.2-0.7-0.9-1-1.7-0.9
					c-0.7,0.1-0.7,0.7-0.8,1.3c0,0.5,0.1,1-0.6,1.3c-7.7-4.4-15.4-8.9-23.2-13.3c-2.6-1.5-5.2-2.9-7.7-4.4c-4-2.3-8.1-4.6-12-6.9
					c-0.5-0.3-1.9-0.6-1-1.8c0.7-0.9,1.2-1.1,2.3-0.2c1.9,1.4,3.8,3,6.5,2.6c0.7-0.1,1.5-0.2,1.5-1.1c0-0.8-0.8-1.5-1.3-1.5
					c-2.7,0.1-4.4-1.4-5.9-3.4c-0.2-0.2-0.5-0.5-0.7-0.4c-1.5,0.5-1.9-0.8-2.7-1.5c-2.7-2.3-6.7-3.1-8.4,0.3c-0.7,1.4-1.3,0.9-2,0.4
					c-1.4-1.1-2.6-2.4-3.9-3.6c-0.4-0.3-0.8-0.7-0.6-1.2c0.2-0.4,0.8-0.4,1.3-0.4c0.6,0.1,1.3,0.2,1.4-0.8c0.1-0.8-0.1-1.4-0.8-1.8
					c-0.4-0.2-0.8-0.4-1.4-0.3c-1.8,0.1-3-0.6-3.8-2.2c-0.5-1.1-1.4-2-2.8-1.2c-0.7,0.4-1.1,0.1-1.6-0.3c-4.6-4.6-9.4-9-13.8-13.8
					c-0.6-0.7-0.8-1.4-0.7-2.5c0.4-3.8,1.6-7.4,2.4-11.1c0.3-1.5,1.1-0.9,1.8-0.4c5.4,3.3,11,6.2,16.6,9.3
					c6.9,3.8,13.7,7.8,20.6,11.6c4.1,2.3,8.3,4.4,12.4,6.7c6.4,3.6,12.7,7.6,19.2,11.1c5.7,3,11.1,6.6,16.9,9.3
					c0.5,0.2,1.3,0.5,1.4,1.2c0.4,3.2,2.9,4.3,5.3,5.7c1.3,0.8,2.5,0.8,3.7,0.1c1-0.6,1.8-0.4,2.5,0.1c3.9,2.6,8.1,4.4,12.2,6.5
					c0.7,0.3,1,0.6,0.9,1.6c-0.2,2.4,3.9,6,6.2,5.3c2-0.5,3.6-0.3,4.9,1.5c0.5,0.6,1.1,1,1.7,1.6c3.9,3.7,7.8,7.5,11.7,11.2
					c0.8,0.8,1.1,1.3,0,2.3c-1.4,1.3-2.9,2.8-1.9,5.4c-1.7-1-1.9-0.1-2.4,1.1c-0.9,2.5-1.4,2.6-3.9,1.7c-2.1-0.7-4.2-1.3-6.3-2
					c-3.5-1.1-6.9-2.3-10.3-3.5c-0.6-0.2-1.4-0.4-1.1-1.2c0.5-1.3-0.4-1.7-1.3-1.8c-2-0.3-3.7-0.7-4.7-2.8c-0.3-0.7-1.2-1-2-0.5
					c-0.8,0.5-0.8,1.2-0.2,1.9c0.3,0.3,0.3,0.8,0,1.3c-1.4-0.7-2.7-1.5-4.1-2.1c-1.6-0.6-1.6-1.4-0.3-2.3c1.5-1.1,1.7-2.5,1.2-4.1
					c-0.6-1.9-4.1-3.9-6.4-3.6c-2.3,0.3-3.2,2-3.3,4.1c0,0.2-0.2,0.4-0.3,0.6C421.2,537,419.5,536.4,418,535.1z M589.6,605.1
					c-0.2,0.2-0.4,0.4-0.7,0.7c-6.1-6.1-12.1-12.2-18.2-18.2c-11.6-11.3-23.3-22.6-35-33.8c-1-1-0.9-1.7,0-2.6c3-3,6-6,8.9-9
					c0.9-0.9,1.5-0.7,2.2,0.1c2.4,2.3,4.9,4.6,7.2,7c12.2,12.6,24.4,25.2,36.6,37.8c12.3,12.6,24.6,25.3,36.9,37.9
					c4.3,4.5,8.7,9,13,13.5c5.8,6.1,11.6,12.1,17.4,18.2c5.7,6,11.5,12,17.2,18.1c2,2.1,1.9,3.1-0.2,5.1c-0.7,0.7-1.4,1.3-2.1,1.9
					c-2,1.6-2.4,1.6-4.3-0.2c-7.7-7.3-15.3-14.6-23-22c-12.6-12.1-25.3-24.2-37.9-36.3C601.6,617.2,595.6,611.1,589.6,605.1z
					 M234.7,374.3c-0.1,0.1-0.1,0.1-0.2,0.2c-5.6-5.6-11.1-11.1-16.7-16.7c-1-1-1.1-1.7-0.1-2.8c3.6-3.8,7.1-7.7,11-11.2
					c0.9-0.7,1.4-0.7,2.3,0c1.7,1.2,2.4,3.3,4,4.4c4.1,2.8,7.2,6.6,10.8,9.9c7.9,7.1,15.1,15.1,22.9,22.4c8.6,8,16.6,16.6,24.9,25
					c1.5,1.5,1.9,4.8,0.4,6.1c-1.8,1.5-3,3.6-5.1,4.8c-1.5,0.9-1.6,4-0.2,4.4c1.2,0.4,1.1,1.1,1.3,1.9c1.1,4.7,3,6.5,7.7,7
					c0.7,0.1,1.1,0.1,1.6,0.8c1,1.4,2.3,1,3.4,0.1c0.6-0.5,1.1-1,1.5-1.6c0.8-1.1,2-2,3.1-1.3c0.9,0.6,0.9,2-0.3,3
					c-0.1,0.1,0,0.3,0,0.4c-0.6,3.4-1.3,6.8-1.9,10.2c-0.1,0.5-0.1,1.2-0.7,1.4c-0.6,0.2-1-0.5-1.3-0.8c-3.4-3.4-6.7-6.9-10.2-10.1
					c-8.8-8.2-17-17-25.8-25.2c-5.3-4.9-10.2-10.1-15.3-15.2C246.1,385.7,240.4,380,234.7,374.3z M521.7,690.2
					c-1.3,1.1-2.4,0.9-3.3-0.3c-0.4-0.5-0.8-0.4-1.3,0c-2.3,1.4-3.9,3.5-5.6,5.4c-0.6,0.7-0.7,1.6,0.3,2.3c0.4,0.3,1.1,0.8,0.5,1.4
					c-0.7,0.8-1.1-0.2-1.5-0.5c-4.9-4.7-9.8-9.6-14.8-14.3c-1.2-1.2-1.3-2-0.1-3.2c4.7-4.8,9.5-9.6,14.1-14.4
					c8.3-8.8,16.7-17.6,25.4-26c1.8-1.8,1.9-1.8,3.8,0.1c3.2,3.2,6.3,6.3,9.5,9.4c3.8,3.7,3.8,3.7,0.2,7.4c-0.4,0.4-0.7,0.8-1.2,1.2
					c-1,0.8-1.3,1.8-0.8,2.8c0.8,1.5,0.1,2.5-0.9,3.5c-0.5,0.5-1,1.1-1.5,1.7c1.2-0.6,2.2-1.3,3.1-2.2c0.7-0.7,1.3-0.7,1.9,0
					c1.5,1.7,2.6,0.9,3.7-0.6c0.5-0.7,1.1-1.4,1.8-2c3.5-3,2.3-3.2,5.5-0.1c0.3,0.3,0.6,0.6,0.9,0.9c1.1,0.9,0.9,1.6,0,2.6
					c-2.6,2.8-5.2,5.7-8.1,8.3c-3.1,2.8-5.8,6.1-8.8,9c-2.8,2.6-5.4,5.4-7.9,8.3c-4.6,5.3-9.7,10.1-14.6,15.1
					c-0.6,0.6-1.2,0.7-2,0.2c-2.2-1.4-4.4-2.6-6-4.7c-0.3-0.4-1.3-0.5-0.6-1.2c0.5-0.5,0.9,0.1,1.2,0.4c0.9,1,1.7,0.9,2.6-0.1
					c1.2-1.5,2.5-2.8,4-4.1c0.8-0.7,1.6-2,0.6-2.9C520.5,692.2,521.1,691.4,521.7,690.2z M312.5,440.9c-1.9-3.8-2.5-7.8-3.5-11.6
					c-2.4-9.6-5.8-18.9-9.1-28.2c-2.6-7.2-5.4-14.3-8.3-21.4c-0.9-2.3-2-4.8-0.4-7.3c1.2-1.9,2.3-3.8,3.3-5.8
					c4.6-8.1,10.7-15,16.7-22c2.2-2.6,4.8-5,7.2-7.5c1.1-1.1,2.1-1.1,3.2,0c2.1,2.1,4.2,4,6.3,6.1c0.7,0.7,1.2,1.4,0,2.4
					c-1.5,1.2-2.8,2.7-4,4.2c-1.2,1.5-1,3,0.5,4.1c0.7,0.5,1.5,1.1,2.3,1.4c1.3,0.5,1.3,1.3,0.6,2.2c-0.7,1-1.5,1.8-2.2,2.8
					c-4.3,5.4-7.2,11.6-9.5,18.1c-0.6,1.5-1,3.3-3.4,2.2c-0.4-0.2-1.6-0.6-1.8,0.6c-0.2,1.1-0.1,1.9,1.3,2.1c0.9,0.1,1.2,0.7,1,1.6
					c-0.7,3.4-0.9,6.8-1,10.3c0,0.6,0.1,1.5-0.2,1.8c-2,2.1-1.6,4.8-2.3,7.3c-0.5,2,0.2,3.2,1.8,4.1c0.8,0.5,1.1,1.2,0.8,2.2
					c-0.5,1.9-0.5,3.8-0.1,5.7c0.3,1.3,1,2.4,1.3,3.7c1.5,6.1,2.8,12.2,4.2,18.3c0.2,1,0.2,1.5-1,1.3
					C314.9,439.5,313.7,439.8,312.5,440.9z M429.3,327.4c-1.8,0.3-3.2-0.4-4.7-0.7c-5.7-1.3-11.3-2.8-17-4.1
					c-3.1-0.7-6.1-2.5-9.4-0.6c-0.6,0.3-0.7-0.2-0.8-0.6c-0.3-1.7-1.6-1.9-2.8-1.5c-2.6,0.8-5.6-0.1-8.1,1.8
					c-0.3,0.2-0.9,0.2-1.2,0.1c-2.1-0.7-4.1-0.2-6.1,0.1c-1.8,0.2-3.7,0.7-5.5,1c-0.7,0.1-1.5,0.5-2-0.4c-0.3-0.6-0.4-1.4-1.4-1
					c-0.8,0.4-1.2,1.1-1,1.8c0.4,1.2-0.3,1.5-1.1,1.8c-0.6,0.3-1.3,0.4-1.9,0.7c-6.4,3.3-12.7,6.8-18.5,11.1c-3,2.3-3.2,2.3-5.2-0.9
					c-1.1-1.8-2.3-1.7-3.8-0.9c-1.7,0.9-2.8,2.5-4.1,3.8c-0.9,1-1.5,0.8-2.4,0c-2.4-2.3-4.7-4.6-7.1-6.7c-0.8-0.7-0.5-1.2-0.1-1.8
					c1.1-1.9,2.7-3.3,4.3-4.7c9.2-8.5,19.4-15.7,29.8-22.6c2.4-1.6,4.9-2.2,7.7-1c1.6,0.7,3.3,1.1,4.8,1.7c9.2,3.7,18.5,7.1,28,10.1
					c6.9,2.2,13.9,4.2,21.1,5.6c2.3,0.4,4.6,1,6.8,1.7c0.5,0.2,2,0,1.4,1.2C428.2,324.1,428.9,325.7,429.3,327.4z M369.9,429.6
					c0.1,0.1,0.2,0.2,0.3,0.3c-2.7,2.7-5.4,5.4-8.2,8.2c-4.9,4.9-9.8,9.8-14.7,14.7c-0.3,0.3-0.6,0.9-1.2,0.7
					c-0.5-0.3-0.3-0.8-0.2-1.3c1.1-4.3,2.2-8.6,3.3-12.9c2.1-8.2,4.2-16.3,6.3-24.5c3-11.7,5.9-23.5,8.9-35.2
					c0.6-2.3,0.9-2.4,2.6-0.8c8.6,8.1,17.1,16.4,25.5,24.8c1.5,1.5,1.3,2.3-0.1,3.7C384.8,414.6,377.4,422.1,369.9,429.6z
					 M443.7,354.4c-0.6,1.5-1.3,2.2-2.1,2.9c-4.5,4.4-8.9,8.9-13.3,13.5c-10.3,10.6-20.8,20.8-31.1,31.4c-0.9,1-1.7,1.2-2.8,0.2
					c-2.2-2.1-4.5-4.2-6.7-6.3c-6.3-6.1-12.6-12.3-19-18.4c-1.6-1.6-1.6-2,0.6-2.7c0.7-0.2,1.4-0.6,2.1-0.8c7.4-1.9,14.8-3.9,22.2-6
					c10.4-2.9,20.7-5.8,31.1-8.7C431,357.7,437.1,356.1,443.7,354.4z M695,546.1c2-0.6,3.2-2.2,4.7-3.3c0.3-0.2,0.5-0.6,0.9-0.4
					c0.3,0.2,0.4,0.5,0.4,0.9c-0.4,4.1-1.2,8-4.4,11.1c-3,2.9-5.9,6-8.9,9c-5.2,5.3-10.4,10.5-15.7,15.7c-0.5,0.5-1,1.5-1.8,1.2
					c-1.7-0.5-2.7-1.9-3.5-3.3c-0.6-1,0.4-1.6,1-2.2c2.8-2.8,5.6-5.6,8.4-8.5c-2.6,1.4-4.4,3.7-6.5,5.6c-4.5,4.2-4.4,4.2-8.8-0.3
					c-3.5-3.5-3.4-2.5,0.1-6.2c6.4-6.9,13.1-13.6,20-20.1c2.4-2.3,4.7-4.7,7-7c-0.1-0.1-0.3-0.3-0.4-0.4c-4.3,4.3-8.6,8.6-12.9,12.9
					c-4.8,4.7-9.7,9.4-14.5,14c-3.8,3.7-2.8,2.9-6.2-0.2c-0.8-0.8-1-1.5-0.1-2.4c1.2-1.1,2.1-2.4,3.3-3.5c1.2-1.1,1.5-2.2,0.1-3.3
					c-1.1-0.9-0.9-1.7,0-2.6c2.6-2.7,5.3-5.3,7.9-8c0.9-0.9,1.6-1.3,2.8-0.2c0.8,0.7,1.9,1.4,3.1,0.3c1.8-1.8,3.6-3.6,5.3-5.3
					c-0.2-0.9-1.7-0.8-1.3-1c1.5-0.8,0.2-1.4-0.1-1.7c-0.9-1-0.7-1.6,0.2-2.5c2.5-2.4,5-4.9,7.4-7.4c1.1-1.1,2-1.3,3,0
					c0.9,1.1,1.9,1.2,3,0c0.8-0.9,1.7-1.8,2.6-2.7c1-1,2.5-2.9,3-2.6c1.2,0.9,1.8,2.5,2.6,3.9c0.7,1.1,0.5,2-0.5,2.9
					c-1.1,1.1-2,2.2-3,3.4c1.7-1,2.8-2.8,4.7-3.6c1.7,3.4,2.3,7.1,3,10.6c0.2,0.8,0,1.3-0.6,1.8C698.5,542.6,696.7,544.3,695,546.1z
					 M670.1,504.2c0.1-0.8,0.8-1.2,1.2-1.7c1.1-1.3,2.1-1.7,3.5-0.1c3.8,4,7.8,7.9,11.8,11.8c1,0.9,1.3,1.6,0.1,2.7
					c-1.5,1.4-2.8,3-4.2,4.5c-0.8,0.8-1.3,1.8-0.4,2.8c0.9,1,0.4,1.6-0.3,2.3c-2.6,2.7-5.1,5.3-7.7,8c-0.5,0.6-1.3,0.6-1.7,0.2
					c-1.5-1.6-2.5-0.5-3.5,0.6c-1.4,1.4-2.7,2.8-4.1,4.1c-1,0.9-1.4,1.8-0.1,2.7c0.7,0.5,0.7,1.1,0.1,1.7c-2.9,2.9-5.7,5.9-8.6,8.7
					c-0.4,0.4-1,0.9-1.5,0.4c-1.8-1.9-2.9-0.5-4.1,0.7c-0.8,0.8-1.6,1.5-2.3,2.3c-1.2,1.4-2.2,1.2-3.4-0.1c-3.8-4-7.7-8-11.6-11.9
					c-0.8-0.8-0.9-1.5-0.1-2.3c1.9-1.6,3.3-3.7,5.1-5.5c7.3-7.4,14.6-14.8,21.9-22.2c2.9-3,5.7-6.2,9-8.8c0.6,0.9,0.7,2.3,2.1,1.9
					c0.6-0.1,0.9-0.6,0.9-1.3C672.5,504.2,671,504.7,670.1,504.2z M396.6,284.6c2.9,2.9,5.8,5.8,8.7,8.7c1,0.9,1.1,1.5,0,2.5
					c-1.7,1.4-3.5,2.8-3.9,5.2c-0.1,0.4-0.4,0.8-0.8,0.8c-2.7-0.3-5.3,0.7-7.9-1.9c-8.5-8.4-17-16.9-25.5-25.4
					c-6.3-6.2-12.6-12.4-18.9-18.6c-1.8-1.7-3.5-3.6-5.4-5.2c-3.9-3.3-7.3-7.1-11-10.7c-0.9-0.9-0.7-1.6,0-2.5
					c0.7-0.8,2.1-1.3,1.5-2.9c0-0.1,0.4-0.6,0.5-0.6c1.4,0.4,1.8-0.9,2.4-1.5c1-1,2-2.2,2.8-3.5c0.7-1,2.7-1.3,3.7-2.6
					c1.3-1.6,2.4-1.4,3.7,0c1.8,1.9,3.6,3.6,5.5,5.4c1.1,1,1,1.4-0.5,1.8c-2.6,0.7-4.8,3.5-3.9,5.3c1.3,2.9,3.7,5.5,6.7,6.4
					c1.9,0.6,3.1,1.7,4.6,2.6c1.6,1,1.8,2.2,0.3,3.7c-1.4,1.5-0.7,3.3,1.1,3.9c1.2,0.4,1.9-0.5,2.6-1.3c0.4-0.4,0.6-1.4,1.6-0.6
					c1,0.9,2.3,1.6,3.3,2.6c4.8,4.6,9.5,9.3,14.6,13.7C387.5,274.7,391.7,279.9,396.6,284.6z M604.5,567.7c-0.1-0.1-0.2-0.2-0.3-0.3
					c2.2-2.2,4.5-4.5,6.7-6.7c2.5-2.6,5-5.2,7.6-7.7c0.4-0.4,1-1.4,1.9-0.5c0.7,0.7,1,1.5,0.2,2.4c-0.2,0.3-0.4,0.5-0.7,0.8
					c-2.4,2.5-4.7,5-7.1,7.5c-1,1.1-1.1,2.4,0.4,2.5c1.7,0.2,2.6,1.2,3.5,2.2c1.3,1.5,2.1,1.2,3.2-0.1c1.5-1.7,3.1-3.3,4.8-4.8
					c0.9-0.8,1.8-0.8,2.2,0.5c1,3.4,2.2,6.7,2.8,10.1c0.9,4.7,1.4,9.5,2,14.3c0.1,1.1,0,2-0.9,2.8c-1.4,1.2-2.7,2.4-4,3.6
					c-3.9,3.9-7.9,7.8-11.8,11.8c-1.2,1.2-2.2,1.8-3.7,0.2c-6.8-7.3-13.6-14.5-20.5-21.6c-1.4-1.4-1.2-2.2,0.1-3.5
					C595.5,576.7,600,572.2,604.5,567.7z M624.1,546.4c2-1.2,3.1-2.1,4.1-3.2c0.9-0.9,1.5-0.8,2.4,0c3.6,3.4,7,6.9,10.5,10.4
					c6.3,6.4,12.7,12.8,19.2,19.1c1.1,1.1,1.3,1.8,0,3c-3.3,3.2-6.4,6.5-9.6,9.7c-0.6,0.6-1.2,1.1-2.1,1.3
					c-3.6,0.6-7.1,1.8-10.8,1.8c-1.2,0-1.5-0.4-1.8-1.4c-1.1-3.7-1.5-7.5-1.9-11.3c-1-8.2-4.2-15.5-8.3-22.6c-1-1.8-3-3.4-2.3-5.9
					c0-0.1,0.3-0.5-0.2-0.3c-2,0.5-2-1.4-2.8-2.3c-0.8-0.8-0.1-1.4,0.5-1.9c0.7-0.7,1.2-0.4,1.7,0.2c0.4,0.4,0.8,1,1.3,1
					C625.6,544.1,625.6,544.7,624.1,546.4z M334.9,457.1c0.3-2.5,1.2-4.8,0.3-7.4c-0.6-1.9,0.4-4.1,0.9-6.1
					c1.7-6.9,3.5-13.8,5.3-20.6c0.6-2.1,0.6-4.6,2.1-6c1.5-1.4,1.7-3,2-4.7c0.3-1.6,1.9-3.4-0.1-5c-0.1-0.1-0.1-0.5,0-0.8
					c1-3.3,1.5-6.7,2.7-10c0.3-0.7,0.6-1.3,1.4-1.2c1.2,0.1,1.6-0.5,1.9-1.5c0.6-1.8,1.7-3.7-0.6-5.1c-0.1-0.1-0.2-0.4-0.2-0.6
					c0.6-2.1,0.8-4.6,2-6.3c2.2-3.1,3.5-7.6,2.4-10.9c-0.3-0.9,0-1.9,0.5-2.5c0.6-0.6,1.2,0.4,1.7,0.8c0.9,0.7,1.6,1.5,2.4,2.2
					c2.8,2.5,5,5.2,2.8,9.3c-0.1,0.1,0,0.3-0.1,0.4c-2.1,8.6-4.2,17.1-6.3,25.7c-2.3,9.3-4.7,18.6-7.1,27.9
					c-1.6,6.3-3.3,12.6-5,18.9c-0.3,1-0.5,2-1.7,2.4C339.8,456.6,337.5,457.3,334.9,457.1z M448.2,343.2c-0.7,2.5-1.5,4.8-2.1,7.1
					c-0.3,1.2-1,1.8-2.2,2.2c-8,2.2-15.9,4.4-23.9,6.7c-7.6,2.1-15.3,4.3-22.9,6.4c-9.6,2.7-19.1,5.4-28.7,8.1
					c-1,0.3-2.1,0.8-3.1-0.2c-2.1-2.1-4.2-4-6.3-6.1c-0.7-0.7-0.5-1.2,0.4-1.5c0.7-0.3,1.6-0.5,2.2,0.1c1.4,1.4,2.8,1.1,4.3,0.4
					c2.3-1.1,5.2-0.6,6.9-3.5c0.7-1.3,3.3-1.3,5.2-1.7c1.2-0.3,0.9,1.1,1.6,1.4c1.9,1,3.3-0.3,4.9-0.7c0.8-0.2,1.5-0.6,1.2-1.8
					c-0.3-1.1,0.3-1.8,1.4-2.1c3.3-0.9,6.5-1.8,9.8-2.7c0.5-0.1,1.1-0.1,1.6,0.1c1.4,0.7,6.6-0.1,7.1-1.4c0.6-1.7,2-2,3.3-2.4
					c9.8-2.7,19.6-5.4,29.4-8.2c1.1-0.3,1.9-0.4,2.4,0.8c0.2,0.5,0.5,1.1,1.2,0.9C443.8,344.6,445.8,344,448.2,343.2z M313.8,409.2
					c0.9-0.5,1.8-1.2,3.1-0.8c2,0.6,4,1.1,6,1.6c5.3,1.3,10.6,2.5,15.8,4.4c1.7,0.6,1.9,1.4,1.6,3.1c-0.7,3.5-1.7,6.8-2.6,10.2
					c-1.6,6.3-3.2,12.6-4.8,18.9c-0.7,2.5-1,2.6-3.1,1.4c-2.4-1.3-4.8-2.8-7.3-3.9c-2.3-0.9-3.6-2.4-4.1-4.7
					c-0.9-3.8-2-7.6-2.7-11.4c-0.8-4.1-2.1-8.2-2.7-12.3C312.6,413.6,312.1,411.3,313.8,409.2z M432.7,330.4
					c1.9,3.2,3.9,6.5,5.8,9.8c0.5,0.9-0.1,1.4-1.1,1.7c-6.6,1.8-13.2,3.7-19.7,5.5c-3.7,1-7.5,2-11.2,3c-1,0.3-1.5,0.1-1.8-1
					c-0.8-3-1.8-6.1-2.7-9.1c-1.2-4-2.5-7.9-3.6-11.9c-0.3-1.2-1.2-2.5-0.4-3.9c1.2-2.2,2.8-2.6,5.6-2c7.6,1.7,15,3.9,22.6,5.4
					C428.3,328.3,430.7,328.6,432.7,330.4z M404.4,313c-0.1,0.1-0.1,0.2-0.2,0.4c-2.6-0.8-5.2-1.6-7.8-2.5c-4-1.3-7.9-3-11.9-4.3
					c-4.5-1.4-8.8-3.2-13.3-4.5c-3.4-1-6.8-2.4-10.4-0.9c-2.4,1-4.9,1.9-6.9-0.7c-0.5-0.6-1-0.5-1.7-0.2c-1.7,0.7-2.2-0.9-3.2-1.7
					c-0.4-0.3-0.6-0.7-0.2-1.2c2.9-3.2,5.9-6.4,9.1-9.4c0.5-0.5,0.9-0.8,1.3,0.2c0.4,1,1.1,1.2,2,0.4c0.8-0.7,0.4-2,0-2.1
					c-1.8-0.5-0.5-1.1-0.2-1.6c1.6-2.5,4.2-4,6.1-6.2c0.9-1,2-1.2,3.1-0.1c3.9,3.9,7.7,7.8,11.6,11.6c3.3,3.3,6.7,6.6,10,10
					c0.3,0.4,1.3,0.7,0.4,1.4c-0.5,0.3-1.5,0.1-1,1.3c0.4,1,1.1,1.3,2.1,1.2c1-0.1,2.1-0.2,2.8,0.4
					C398.8,307.3,401.6,310.2,404.4,313z M348.2,338.1c1.4-1,3.7-2.8,6.2-4.3c4.6-2.9,9.3-5.9,14.6-7.4c1.1-0.3,1.5-0.2,1.9,1
					c1,3.7,2.2,7.2,3.4,10.9c1.9,6,4.3,11.9,4.7,18.3c0.1,1.1-0.1,1.7-1.2,2c-2.5,0.8-5,1.6-7.5,2.4c-1.2,0.4-1.9-0.4-2.7-1
					c-6.8-5.7-13.5-11.5-20.3-17.2C345,340.8,345,340.8,348.2,338.1z M342.9,370.7c1.9,1.6,3.8,4.2,5.9,6.6c0.7,0.8,1.5,1.6,1,2.9
					c-0.7,2.2-1.2,4.4-1.7,6.6c-0.2,0.8-0.8,1.3-1.6,1.4c-1.9,0.2-3.8,0.3-5.7-0.3c-4.9-1.3-9.9-2.4-14.8-3.8
					c-2.8-0.8-5.6-1.5-8.3-2.2c-1.5-0.4-2.2-1.3-1.6-2.9c2.5-7.5,6.1-14.4,11.4-20.3c2.1-2.4,2.7-2.4,4.9,0.1
					C335.7,362.6,339,366.4,342.9,370.7z M293.9,404c-0.8-0.8-1.5-1.6-2.3-2.3c-0.9-0.8-1.6-1.5-0.2-2.6c0.8-0.5,0.7-1.4,0-1.9
					c-0.8-0.5-2-0.5-2.3,0.3c-0.7,1.7-1.2,0.5-1.7,0.1c-2-1.9-3.9-3.9-5.9-5.8c-4.1-4.1-8.2-8.2-12.3-12.3c-0.9-0.9-0.9-1.5,0-2.4
					c2.7-2.7,5.4-5.4,8.1-8.1c3.3-3.3,6.6-6.6,9.9-9.9c1.2-1.3,2.2-1.1,3.3,0.1c0.8,1,1.7,1.8,0.9,3.3c-0.3,0.5-0.1,1.1,0.4,1.5
					c2,1.4,1.4,2.9,0.3,4.6c-0.6,0.9-0.9,2.1-1.6,2.9c-2.1,2.4-1.4,5-0.5,7.4c3,8,6.3,16,9.3,24.1c1.1,3,2.3,5.9,2.9,9.3
					c-2.9-2.4-5.8-4.5-5.2-8.8c0.1-1.1,0.1-3-1.8-2.9C293.4,400.6,294.5,402.5,293.9,404z M549.5,678.8c-0.1-0.1-0.2-0.2-0.3-0.3
					c1.3-1.3,2.7-2.7,4-4c3-3,5.9-6.1,9.1-8.9c0.6-0.5,1.2-1.3,2.1-0.3c1.7,1.8,3.5,3.6,5.2,5.4c0.7,0.7,0.7,1.3,0.2,2
					c-0.5,0.7-0.9,1.6-1.6,2.1c-3.9,2.8-6.7,6.6-10,10c-8,8.2-16.2,16.3-24.2,24.5c-0.7,0.8-1.5,1-2.6,0.9c-2.8-0.1-5.3-1.4-7.9-2.4
					c-1.3-0.5-0.8-1.3-0.1-2.1c3.5-3.7,6.9-7.6,10.5-11.3C539,689.2,544.3,684,549.5,678.8z M387.7,324c0.6,1,1.7,2.3,2.1,3.7
					c2.6,7.7,5,15.4,7.1,23.3c0.4,1.7-0.3,2.2-1.5,2.5c-3.5,1-6.9,1.9-10.4,2.9c-0.6,0.1-1.5,0.4-1.6-0.3c-0.3-1.4-1.4-2.3-1.9-3.6
					c-1.6-5.1-3.5-10.1-5.1-15.2c-1.2-3.8-2.3-7.6-3.5-11.5c-0.3-1-0.2-1.5,1-1.6c2.6-0.4,5.1-1.2,7.7-1.4
					C383.5,322.5,385.7,322.2,387.7,324z M314.5,398.4c-0.7-0.5-0.9-1.2-1-2c-0.4-3.8,0.2-7.6,1.2-11.3c0.2-0.7,0.6-1.1,1.3-0.9
					c2.6,0.6,5.2,1.1,7.8,1.9c3.9,1.2,7.8,2.3,11.7,3.5c2.5,0.8,5.2,0.9,7.4,2.5c1.4,0.9,3.6,1.3,2.9,3.8c-1,3.4-1.9,6.8-2.8,10.2
					c-0.3,1.1-1.2,0.9-2,0.7c-6.2-1.7-12.4-3.4-18.7-5C319.4,401.1,316.9,399.8,314.5,398.4z M498.8,444.6c-0.2-0.3-0.5-0.7-0.7-1
					c-3.9-6.7-7.8-13.4-11.6-20.1c-5.1-8.9-10-17.8-15.2-26.6c-1.4-2.3-1.5-4.1-0.1-6.2c0.2-0.2,0.2-0.5,0.3-0.8
					c0.7-1.1,0.9-3.2,2.2-3.2c1.2,0,1.7,1.9,2.4,3.1c3.7,6.4,7.3,12.7,11,19.1c3.1,5.5,6.1,11,9.2,16.4c3.5,6,7.1,12,10.6,18
					c0.6,1,0.3,1.5-0.8,1.6c-1.9,0.1-3.7,0.2-5.6,0.3C499.9,445.3,499.2,445.2,498.8,444.6z M571,507c0.1-0.3,0.1-0.6,0.2-1
					c0.4-6.3-5.2-10.5-10.7-10.3c-2.5,0.1-4.6-0.9-5.3-2.9c-1-2.5-1.9-5-2.8-7.6c-0.2-0.7-0.5-1.5,0.1-2.1c1.5-1.5,2.9-3.2,4.8-4.2
					c1.4-0.7,2.7-0.7,4,0c1.4,0.7,2.8,1.6,4,2.6c3.1,2.6,3.1,2.7,0,5.3c-1.5,1.2-1.5,2.4-0.2,3.6c2.8,2.7,5.7,5.4,8.6,8.1
					c1.1,1,2.3,1.1,3.6,0.6c1.4-0.5,2.9-0.7,3.8,0.3c1,1.1-0.2,2.3-0.8,3.3c-0.1,0.1-0.1,0.3-0.2,0.4c-5.2,6.1-10.8,11.7-16.5,17.2
					c-0.8,0.8-1.6,2.6-2.8,2c-1.1-0.6-0.4-2.4-0.6-3.7c-0.3-1.6,0.1-2.3,2-2.4c3.2-0.2,5.7-1.8,7.2-4.6c-0.7,0.4-1.3,1-1.8,1.6
					c-1.7,1.7-3.8,2.4-6.1,2.3c-0.7,0-1.1-0.1-1.1-1c-0.1-1.5,0.3-2.3,1.9-1.5c0.8,0.4,1.5,0.4,2-0.3c0.5-0.7,0.2-1.1-0.5-1.5
					c-0.7-0.4-0.3-1,0.1-1.4c0.5-0.4,1-1.4,1.8-0.2c0.4,0.7,1.1,0.5,1.6,0c0.6-0.5,0.6-1,0.3-1.7c-0.2-0.4-1-0.8-0.6-1.2
					c1.5-1.1,1-2.7,1.3-4.1c0.3-1.2,0.1-2-0.7-2.8c-0.5-0.5-1.1-1-1.4-2.2C569.7,500.1,570.5,503.3,571,507z M441,515.5
					c-0.6-1.5-0.4-3-0.7-4.5c-0.2-1.1,0-1.7,0.8-2.5c6.4-6.8,13-13.2,19.5-19.8c12.4-12.7,24.9-25.3,37.2-38.1
					c1.6-1.7,3.4-2.3,5.5-2c1,0.1,2.6-0.7,3,0.6c0.4,1.3-0.8,2.5-1.8,3.3c-8,6.8-14.9,14.7-22.5,22c-5.1,4.9-9.9,10.1-14.8,15.2
					c-8,8.3-16.2,16.4-24.3,24.6C442.4,514.7,441.9,515.3,441,515.5z M436.4,516c-1-0.2-1.8-0.5-2.7-1c-5.9-3.6-12-6.7-17.9-10.1
					c-5.1-2.9-10.2-5.8-15.4-8.5c-4.2-2.2-8.3-4.4-12.4-6.7c-3.3-1.8-6.5-3.7-9.8-5.5c-1.2-0.7-1.2-1.2,0.1-1.7
					c1.7-0.7,3.4-1.5,5.1-2.3c0.9-0.4,1.6-0.3,2.3,0.1c7.8,4.3,15.6,8.6,23.4,13c7.6,4.3,15.2,8.8,22.8,13.1
					C436,508.8,437.2,511.2,436.4,516z M560.8,683.5c-0.1-0.1-0.3-0.3-0.4-0.4c3-3,6.1-6.1,9.1-9.1c0.5-0.5,1.1-1.4,1.9-1
					c1.6,0.7,2.9,2,3.7,3.5c0.7,1.2-0.7,2-1.4,2.7c-9.2,9.8-18.7,19.2-28.4,28.5c-2.6,2.5-5.8,3.1-9.2,2.9c-0.5,0-1.4,0.5-1.6-0.4
					c-0.2-0.6,0.6-1.1,1-1.5C544,700.2,552.4,691.8,560.8,683.5z M448,326.3c0.1-0.1,0.2-0.2,0.3-0.3c3.1,3.1,6.2,6.2,9.3,9.3
					c0.5,0.5,1.5,0.9,0.7,1.8c-0.6,0.6-1.3,0.3-2-0.3c-5.1-4.8-10.3-9.4-15.3-14.3c-5.9-5.7-11.7-11.6-17.5-17.4
					c-7.5-7.5-14.9-14.9-22.4-22.4c-6.2-6.2-12.4-12.5-18.7-18.6c-4.3-4.2-8.7-8.2-13.1-12.3c-0.6-0.6-1.5-1.2-0.6-2.1
					c0.8-0.8,1.4,0.3,1.8,0.7c6.3,6.5,13.3,12.4,19.7,18.8c12.4,12.3,24.8,24.7,37.5,36.8C434.6,312.6,441.3,319.5,448,326.3z
					 M467.9,390.1c-1.3-1.5-2.1-2.9-2.9-4.4c-3.5-6.2-6.9-12.4-10.4-18.6c-1.8-3.2-3.6-6.4-5.4-9.5c-0.4-0.6-0.8-1.4-0.4-1.9
					c0.9-1.4,2-3,3.6-3.3c1.3-0.2,1.9,1.6,2.5,2.7c4.7,8.5,9.5,17,14.1,25.5c0.8,1.4,2.4,2.8,1.6,4.7
					C469.9,386.9,468.9,388.4,467.9,390.1z M377.6,513.9c3.2,1.3,5.4,3,7.2,5.4c1.2,1.5,2.7,2.9,4.3,4.1c4.5,3.4,9.2,6.7,14.1,9.4
					c4.2,2.4,8.6,4.5,13.2,5.8c6.3,1.6,12.5,3.3,17.9,7.1c0.4,0.3,1.3,0.2,1.2,1.2c-1.2,0-2.3,0-3.5-0.2c-6.1-1-11.9-3-17.8-4.8
					c-6.6-2.1-13-4.8-18.7-8.8c-5.3-3.6-9.4-8.5-13.9-13C380,518.4,378.6,516.5,377.6,513.9z M576.4,454.7c2.9,2.5,5.6,5,8.3,7.7
					c5.6,5.6,11.4,10.9,16.6,16.9c0.7,0.8,1.3,1.5,0.5,2.3c-2.3,2.4-4.6,4.7-6.9,7.1c-0.6,0.6-1,0.4-1.2-0.3
					c-1.5-4.6-3.6-8.9-5.7-13.2C584.5,468.1,580.8,461.2,576.4,454.7z M380.9,478.3c-3.1,1.7-5.3,2.6-8.7,0.6
					c-9.4-5.4-18.8-10.6-28.2-16c-0.6-0.3-1.4-0.6-1.5-1.3c-0.1-1.2,3.4-3.3,4.5-2.9c3.2,1.2,5.9,3.2,8.9,4.8c5.4,3,10.7,6.1,16,9.2
					C374.9,474.5,377.7,476.3,380.9,478.3z M353.9,367.8c-6.5-6.5-13-13-19.4-19.4c-4.3-4.3-8.6-8.8-13-13c-1-0.9-1.1-1.4-0.2-2.3
					c1-1,1.9-2.3,3-0.1c0.1,0.2,0.4,0.3,0.6,0.5c9.8,9.7,19.7,19.4,29.5,29c1.1,1.1,2.7,2.2,0.3,3.7
					C354.2,366.6,354.1,367.3,353.9,367.8z M351,353.6c0,0-0.1,0.1-0.1,0.1c-3.9-3.9-7.7-7.7-11.6-11.6c-0.5-0.5-1.1-1-0.4-1.7
					c0.6-0.7,1.2-1.6,2.4-1c0.6,0.3,1.3,0.6,1.8,1c2.6,2.2,5.1,4.6,7.8,6.8c5.4,4.5,10.9,9,16.2,13.6c1,0.9,3,1.9,2.6,2.9
					c-0.4,1.3-2.5,1.3-4,1.6c-1.2,0.2-2.2,0.9-3.4-0.4C358.6,361.1,354.8,357.4,351,353.6z M349.6,376.4
					C349.5,376.4,349.5,376.4,349.6,376.4c-7.1-7.8-14.2-15.8-21.2-23.7c-0.8-0.9-0.7-1.6,0.1-2.5c0.9-0.9,1.7-1.4,2.8-0.4
					c4.1,3.5,7.6,7.6,11.5,11.4c3.1,3,6,6.4,9.2,9.3c1.6,1.5,1.9,3.1,1.8,4.9c-0.1,1.2-0.2,2.9-1.2,3.3c-0.9,0.4-1.7-1.2-2.5-1.9
					C349.9,376.7,349.7,376.5,349.6,376.4z M238,298.8c1.1-1.5,1.2-3.4,2.8-4.7c4.8-4.1,9.5-8.3,14.2-12.5c2.1-1.9,4.2-3.9,6.4-5.8
					c0.5-0.5,1.2-1.5,2.1-0.4c0.7,0.8,1.5,0.7,2.2,0.2c0.8-0.6,0.5-1.4,0.3-2.1c-0.2-0.5-0.6-0.9,0-1.5c1.9-1.9,4-3.5,6.3-4.9
					c-1.4,2.1-1.7,4.9-3.5,6.7c-4.5,4.4-9.1,8.7-13.5,13.2c-2.9,2.9-6.3,5.2-8.8,8.4C244.3,298,240.5,296.7,238,298.8z M537.1,442.3
					c-1-0.8-1.5-1.5-2-2.2c-1.2-1.8-1.2-3.9-1.7-5.8c-1-3.5-2.2-6.9-3.4-10.4c-1.7-5.1-3.7-10-6.4-14.6c-1.9-3.2-4-6.3-6.1-9.4
					c-3-4.5-6.4-8.6-10.6-11.9c-1.7-1.3-3.7-2.5-4-5.4c2.2,1.2,4.2,2.2,5.8,3.8c4.5,4.4,9,8.8,12.3,14.3c3.2,5.2,5.8,10.7,8.6,16.2
					c2.2,4.3,3.7,8.9,5.3,13.4C536,434.1,536.4,438,537.1,442.3z M553.1,648.7c-1.1,0.5-2.2,0.2-2.4-0.9c-0.2-0.9-0.7-0.9-1.3-1.3
					c-1.8-1.1-3.8-6.5-3.2-8.6c0.8-2.8,4.4-3.6,7.5-1.8c2.1,1.2,3.3,3.4,5.4,4.6c0.5,0.3,0.4,0.9,0.5,1.4c0.7-0.1,1.3-1.1,2.1-0.4
					c0.6,0.5,0.1,0.9-0.3,1.2c-2.3,2.3-4.6,4.6-7,6.9c-0.4,0.4-0.9,1.1-1.6,0.7C552.1,650,553.4,649.6,553.1,648.7z M532.8,542.2
					c2.5-2.9,5.3-5.6,8.1-8.3c0.9-0.8,1.8-1.9,3.1-0.3c1.1,1.3,2.2,2.3,0.5,4c-5,5.1-9.9,10.3-14.8,15.5c-1,1-2.1,0.8-2.6-0.1
					c-0.6-1.1-3.2-1.8-1.3-3.8C528.1,546.8,530.5,544.5,532.8,542.2z M306.2,425.8c-1.3,0.2-1.9-0.7-2.6-1.2
					c-0.4-0.3-0.8-1.1-1.3-0.7c-0.6,0.5-0.1,1.1,0.4,1.5c0.7,0.6,0.3,1.2-0.1,1.6c-0.6,0.7-0.9,0-1.3-0.3c-0.5-0.3-0.7-1.2-1.7-0.9
					c0.1,1.4,1.2,2.1,2.2,2.9c0.3,0.3,0.5,0.7,0.2,1.1c-0.5,0.5-0.7-0.1-1-0.3c-0.2-0.1-0.3-0.5-0.5-0.6c-1-0.6-1.8-2.8-3.4-0.6
					c-0.2,0.4-0.9,0.3-1.4,0c-1.5-0.9-2.8-2-3.7-3.5c-0.2-0.3-0.5-0.9,0-1.1c1.4-0.7,0.4-1.5,0-2.2c-0.5-1-1.5-1.6-2.3-2.3
					c-0.2-0.2-0.6-0.5-0.2-0.9c0.3-0.4,0.6-0.2,0.9,0.1c0.6,0.5,1.1,1,1.7,1.6c0.4,0.3,0.8,0.8,1.3,0.4c0.5-0.5-0.1-0.9-0.4-1.2
					c-0.5-0.5-0.8-0.9-0.2-1.6c0.6-0.6,1.1-0.4,1.6,0.1c0.3,0.2,0.6,0.7,1.2,0.4c-0.1-1.1-0.9-1.7-1.6-2.4c-0.5-0.4-1.1-0.9-0.4-1.5
					c0.5-0.5,1,0.3,1.3,0.6c1.1,1.2,2.4,1.9,3.8,2.4c0.4-0.8-0.8-1-0.4-1.7c2.8,0,6.1,2.8,6.3,5.3c0,0.4-0.1,0.5-0.3,0.6
					c-1.6,0.6-0.7,1.3-0.1,2C304.6,424.2,305.4,425,306.2,425.8z M269.3,262C269.3,262,269.3,262,269.3,262c0.5-0.6,1-1.2,1.6-1.7
					c0.4-0.3,0.7-1.3,1.4-0.5c0.8,0.7,0.1,1.3-0.4,1.7c-3,2.7-6,5.5-9,8.2c-0.6,0.6-1.4,1.3-2-0.2c-0.2-0.6-1-1.2-1.7-0.8
					c-0.6,0.4-1.1,1.5-0.5,2c2.1,1.8,0,2.6-0.8,3.4c-2.5,2.4-5.3,4.6-7.9,7c-4,3.5-7.9,7.1-11.9,10.6c-0.5,0.4-1.1,1.6-2,0.6
					c-1-1,0.2-1.4,0.7-1.9c2-2.2,4.1-4.3,6.1-6.4c5.5-5.6,10.8-11.3,16.5-16.7c0.8-0.8,1.4-1,2.2-0.1c0.7,0.9,1.3,0.6,2.1-0.1
					C265.6,265.2,267.5,263.6,269.3,262z M397.9,331.7c0.2,0.6,0.4,1.1,0.5,1.5c1.4,3.9,2.3,8,3.6,11.9c0.8,2.3,1.8,4.6,2.1,7.1
					c0.1,1.1,0,1.6-1.1,1.7c-0.7,0.1-1.5,0.4-2.2,0.5c-0.9,0.2-1.6,0.1-1.9-1.2c-0.6-2.4-1.6-4.7-2.2-7.1c-1-4.1-2.5-8-3.5-12.1
					c-0.4-1.5,0.8-1.7,1.4-1.9C395.6,331.9,396.8,331.9,397.9,331.7z M279.7,247.4c-0.2-0.2-0.4-0.4-0.5-0.6
					c1.9-1.9,3.7-3.9,5.7-5.6c4.8-4.2,8.8-9.2,13.5-13.6c4.3-4,8.3-8.4,12.3-12.6c1.3-1.4,2.2-0.8,3.4,0.3c1.3,1.2,0.6,2.1-0.3,2.9
					c-1.6,1.5-3.4,2.9-5,4.4c-4.3,4-8.7,7.8-13.4,11.4c-2.1,1.6-3.8,3.6-6.4,4.5c-0.8,0.3-1.3,1.2-1.8,1.9
					C285.4,243.3,282.5,245.3,279.7,247.4z M529.9,429.2c-2.8-3-21.6-35.7-21.5-37.2C519.5,401.5,527.7,418.4,529.9,429.2z
					 M413.1,309.3c0.2,1.4,1.6,1.9,2.3,2.8c0.4,0.5,0.6,1,0,1.4c-0.5,0.4-0.9-0.1-1.1-0.6c-0.1-0.3-0.4-0.6-0.6-0.8
					c-1-0.7-1.5-3.2-3.4-0.9c-0.2,0.2-1.1,0-1.6-0.2c-1.2-0.5-2.2-1.4-3.1-2.4c-0.4-0.5-1.4-1.4,0.2-2c0.3-0.1,0.2-0.7-0.1-1.1
					c-0.7-0.9-1.2-2-2.2-2.7c-0.4-0.3-1.4-0.7-0.7-1.4c0.6-0.7,1.3-0.3,2,0.3c0.6,0.5,0.9,1.6,2.2,1.2c-0.3-0.5-0.6-0.9-0.9-1.3
					c-0.3-0.4-0.4-0.8,0-1.1c0.2-0.2,0.7-0.1,1,0c0.6,0.2,1,1.7,1.7,0.8c0.5-0.7-0.8-1.2-1.3-1.9c-0.2-0.2-0.4-0.4-0.6-0.6
					c-0.4-0.3-0.7-0.6-0.3-1c0.3-0.3,0.8-0.5,1.1-0.2c1.6,1.5,3.8,2,5.5,3.5c2.4,2.1,3.2,5.4,5.7,7.3c0.3,0.2,1.1,0.7,0.4,1.3
					c-0.6,0.5-1.1,0.2-1.6-0.3c-0.7-0.6-1.1-1.7-2.4-1.8c0.1,0.8,1.5,1,0.6,2C414.8,311,414.2,309,413.1,309.3z M431.9,320.1
					c-1.4-0.3-2.2-0.3-3.1-0.5c-5.9-1.2-11.6-3.1-17.5-4.1c-1.3-0.2-2.8-0.3-3.9-1.3c-3.1-2.9-6.1-5.9-9.1-8.9
					c-0.3-0.3-0.6-0.6-0.1-1c1-0.7,4,0.2,4.5,1.4c0.8,2,2.2,3.5,3.7,5.1c2.3,2.3,6.1,1.2,8.2,3.9c0.1,0.1,0.5-0.1,0.8,0
					c2.9,0.4,4.5-1.8,5.7-3.7c0.9-1.3,1.2-0.8,1.8-0.2C425.8,313.7,428.9,316.6,431.9,320.1z M338.4,314.2
					c-3.7,3.7-7.5,7.5-11.2,11.2c-0.3,0.3-0.6,0.9-1.1,0.4c-0.4-0.3-0.3-0.8-0.1-1.2c1.2-2.8,2.1-5.9,4.2-8.2
					c5.2-5.5,10.5-10.9,15.8-16.3c1-1,1.9-1.5,3.1-0.1c1.1,1.1,1.5,1.8,0.2,3.2C345.9,307.1,342.1,310.7,338.4,314.2z M303.2,349.8
					c-3.1,3.3-6.1,6.4-9.3,9.4c-1.4,1.3-2.1-0.1-2.9-0.8c-0.8-0.7-1.5-1.5-0.3-2.6c2.1-2,4.2-4,6.2-6.2c5.3-5.9,11.2-11.1,18.8-14
					c0.6-0.2,1.1-0.9,2.1-0.3c-3.1,3.7-6.6,6.8-10.2,9.9c0.2-0.5,0.4-0.9,0.7-1.2c0.6-0.7,1-1.4,0.1-2.1c-0.8-0.6-1.4,0-2,0.5
					c-1.2,1.2-2.4,2.3-3.5,3.5c-0.9,0.9-1.7,1.8-2.5,2.8c-0.6,0.7-0.8,1.5,0,2.2c0.9,0.8,1.2-0.3,1.6-0.7
					C302.3,349.9,302.5,349.7,303.2,349.8z M422.2,539.1c-7-1.3-13.5-3.8-19.6-7.4c-6.1-3.6-12-7.4-16.7-12.9
					C398.3,525.1,410.4,531.9,422.2,539.1z M326.4,404.7c0.4-0.4,1-0.3,1.4-0.2c4.8,1.3,9.6,2.7,14.3,4.1c1.6,0.5,2.2,2,1.7,4
					c-0.4,1.8-1.9,1.6-3,1.3c-5-1.3-10-2.7-15-4.1c-1.3-0.4-2-2.1-1.1-3C325.4,406.1,326.1,405.6,326.4,404.7z M649.6,523.7
					c0,0,0.1,0.1,0.1,0.1c-3,3-6,6.1-9.1,9.1c-2.8,2.7-5.2,5.8-8.3,8.2c-0.4,0.3-0.6,0.9-1.1,0.3c-0.4-0.5-0.2-0.9,0.1-1.3
					c0.3-0.4,0.7-0.7,1-1.1c3.1-3.6,6.7-6.7,10-10.1c4.1-4.3,8.1-8.7,12.1-12.9c5.1-5.3,10.2-10.5,15.4-15.7c0.4-0.4,1-1.3,1.7-0.7
					c0.8,0.7,0.1,1.4-0.4,2c-1.8,2-3.5,4-5.3,5.8C660.4,512.9,655,518.3,649.6,523.7z M441.4,343.6c0-0.1,0-0.2-0.1-0.2
					c-3.2-5.6-6.4-11.3-9.6-16.9c-0.2-0.3-0.4-0.5,0-0.9c0.8-0.7,4.5-0.1,4.9,0.9c0.7,1.7,1.7,3.3,2.7,4.8c2.1,3.2,4.1,6.4,5.7,9.9
					c0.2,0.5,1.1,1.2,0.1,1.7C444,343.5,442.8,344.2,441.4,343.6z M275.6,274.9c-3.5,4.5-7.1,8.1-10.6,11.7c-3,3-5.8,6.1-9,8.9
					c-0.9,0.8-1.6,0.6-2.3-0.2c-0.6-0.8-1.3-1.4-0.3-2.5c4.2-4.5,8.9-8.4,13.2-12.7c0.6-0.6,1.1-0.8,2-0.4c1.3,0.7,2.3,0.2,2-1.3
					c-0.3-1.6,0.5-2,1.6-2.4C273.2,275.7,274.1,275.4,275.6,274.9z M317,447c-0.6-0.8-0.6-2-0.9-3.1c-0.2-0.9,0.1-1.4,1.2-1
					c1.9,0.6,3.5,1.7,5.2,2.6c3.7,1.9,7.4,3.7,10.8,6c1.6,1.1,1,2.4,0.3,3.4c-0.7,1.1-1.7,0.1-2.4-0.3c-1.8-1-3.6-1.9-5.5-2.8
					C322.8,450.4,320,448.7,317,447z M494.1,681.2c4.2-6.4,39.6-42.3,42.3-42.9C522.5,652.8,508.7,667.4,494.1,681.2z M331.1,460.1
					c-0.1,1.8-0.6,3.4-1,5c-0.6,2.3-0.8,2.4-2.5,0.7c-6.1-5.9-12.1-11.8-18.1-17.7c-0.5-0.4-0.9-0.9-0.9-1.7
					c2.6,0.4,5.4,0.1,6.1,3.6c0,0.2,0.3,0.4,0.5,0.6c3.6,3.6,7.2,7.2,10.8,10.7c1.2,1.2,2.4,1.2,3.7,0.1
					C330,461.2,330.2,460.4,331.1,460.1z M241.9,309.5c0,0,0.1,0.1,0.1,0.1c-0.4,0.4-0.8,0.9-1.3,1.3c-0.3,0.3-0.7,0.6-1.1,0.2
					c-0.4-0.3-0.4-0.8,0-1.1c1.7-1.5,1.1-3,0.1-4.6c-0.8-1.3-0.3-2,1-2.4c2.8-0.9,5.1-2.7,7.3-4.6c1.2-1,1.9-0.8,2.9,0.2
					c1.1,1.1,0.1,1.7-0.5,2.3C247.7,303.8,244.8,306.6,241.9,309.5z M326.6,320.7c-0.5,1.5-1,2.9-1.6,4.4c-0.5,1.1,0.6,2.3-0.3,3.2
					c-1.4,1.6-2.9,3.2-4.5,4.6c-0.8,0.7-2.1,0.3-3.2,1.1c-2.3,1.6-5,2.7-7.8,3.5C314.8,331.7,320.3,325.8,326.6,320.7z M288.5,242.4
					c-0.9,2.2-2.4,3.1-3.7,4.3c-5.2,4.7-10.9,9-15.9,13.9c-1.5,1.5-3.2,2.8-4.8,4.2c-0.4,0.4-0.9,1-1.4,0.6c-0.5-0.3-0.8-1-0.9-1.6
					c-0.1-0.7,0.5-1,1-1.4c5.7-4.4,11.3-8.8,16.9-13.3C282.5,246.8,285.2,244.5,288.5,242.4z M552.5,489.8c-0.2,0.1-0.3,0.2-0.5,0.4
					c-1.4-1.4-2.9-2.9-4.4-4.3c-1-1-2.1-1.7-3.4-0.3c-0.6,0.7-1.1,0.5-1.7-0.1c-2.1-2.1-3.3-2.2,0.4-4c0.3-0.2,0.8-0.4,0.8-0.6
					c0.2-2.2,1.8-1.7,3.3-2.1c1.2-0.3,1.8,0,2.1,0.9C550.3,483,551.7,486.3,552.5,489.8z M343.6,220.3c0.4-13.6,2.2-27.1,3.5-40.7
					c0.7,0.2,1.1,0.6,1.1,1.1C347.1,194,346.4,207.2,343.6,220.3z M295.2,235.4c5-4.4,9.7-8.5,14.4-12.6c1.9-1.6,3.9-3.1,5.8-4.7
					c0.4-0.3,0.8-0.6,1.3-0.2c0.4,0.3,0.2,0.7,0.1,0.9c-0.6,0.9-1.3,1.8-2.1,2.5c-5,4.2-10,8.3-15,12.4c-2,1.6-4.1,3.3-5.9,5.1
					c-0.3,0.3-1,0.8-1.5,0.1c-0.4-0.5,0.1-0.9,0.5-1.2C293.8,236.8,294.6,236,295.2,235.4z M478.1,586.7c3.2,2.8,3.7,6.2,2.9,9.8
					c-0.2,0.7-0.7,1.7-1.5,0.6c-1.1-1.5-0.5-3.8-2.3-5.1c0.3-0.3,0.5-0.7,0.8-1c0.4-0.5,0.3-0.9-0.1-1.2c-0.4-0.4-0.9-0.5-1.3,0
					c-0.6,1-1.1,1-1.9,0.1c-0.7-0.7-1.4-1.2-0.2-2c0.3-0.2,0.6-0.8,0.1-1.3c-0.4-0.4-1.2-0.9-1.4-0.5c-1.4,2-2,0.2-2.8-0.5
					c-0.3-0.3-1-0.5-0.7-1.1c0.2-0.5,0.9-0.5,1.3-0.5C473.9,583.8,476.3,584.9,478.1,586.7z M565.1,478
					C565.2,478,565.2,477.9,565.1,478c1.2,1,2.3,2.2,3.5,3.3c0.3,0.4,1,0.8,0.4,1.3c-0.5,0.4-1.1,0.1-1.5-0.2
					c-1.4-1.1-2.8-2.3-4.2-3.4c-2.7-2.2-5.1-2.2-7.8,0c-1,0.8-1.8,1.7-2.8,2.4c-0.3,0.3-0.8,0.8-1.3,0.3c-0.6-0.5-0.2-1,0.1-1.5
					c1.7-2,3.4-4,5.6-5.4c1.9-1.2,3.7-1,5.3,0.5C563.4,476.2,564.2,477.1,565.1,478z M504.1,557.8c0.8-0.8,4.3-1.7,4.8-1.2
					c1.2,1,1.4,6.2,0.3,7.3c-1.4,1.4-3.3,1.2-5-0.4C501.9,561.3,501.8,560.1,504.1,557.8z M222.6,320.2c0.4-3.3,1.5-6.1,3.1-8.8
					c0.7-1.1,1.2-0.8,1.9-0.3c1.2,0.9,2.2,2,3.4,2.6c1.6,0.8,1.1,1.5,0.2,2.2C228.7,317.9,225.8,319.1,222.6,320.2z M219.5,346.7
					c0,0-0.1-0.1-0.1-0.1c1.8-1.8,3.6-3.6,5.4-5.4c0.7-0.6,1.3-1.6,2.4-0.4c1,1.1,0.1,1.6-0.5,2.2c-1.5,1.5-2.9,3-4.4,4.4
					c-2.1,2.1-4.1,4.3-6.5,6.1c-0.7,0.5-1.3,0.9-2,0.2c-0.8-0.8,0-1.2,0.5-1.7C216,350.2,217.8,348.5,219.5,346.7z M474.4,602.7
					c-2.3,0.9-4.2,0.7-6-0.1c-0.5-0.2-1.3-0.4-0.5-1.3c0.4-0.4,0.6-1.2-0.2-1.6c-0.6-0.2-1.1,0-1.4,0.5c-0.2,0.3-0.1,1.2-0.9,0.7
					c-0.6-0.4-1-0.9-0.3-1.5c0.5-0.4,0.4-0.9,0.1-1.3c-0.3-0.4-0.7-0.6-1.1-0.3c-1.3,1-1.4-0.2-1.7-1c-0.3-0.8-0.5-1.7-0.3-2.7
					c0.6,0.1,1.3,1.3,1.8,0.1c0.6-1.3,1.2-0.6,1.7-0.1c1.6,1.5,3.2,3.1,4.7,4.7c0.6,0.6,1.4,1.1,0.1,1.9c-0.5,0.3-0.4,0.8,0,1.3
					c0.4,0.4,1,0.6,1.3,0.2C473.1,600.2,473.4,602.1,474.4,602.7z M469.7,594.8C469.7,594.8,469.7,594.8,469.7,594.8
					c-1.4-1.3-2.9-2.6-4.1-4.1c-0.6-0.7-0.9-1.7,0-2.6c0.9-0.9,1.5-0.1,2.1,0.4c2.5,2.4,5,4.9,7.6,7.3c1,1,0.9,1.7,0,2.6
					c-1.1,1-1.6,0.2-2.3-0.5C471.9,596.9,470.8,595.9,469.7,594.8z M470.7,561.7C470.7,561.7,470.7,561.8,470.7,561.7
					c0.7-0.6,1.3-1.2,2-1.9c0.6-0.6,1.6-1.2,2.1-0.5c0.6,0.7-0.6,1-1,1.5c-3,3.2-4.2,7.6-0.1,11.5c0.9,0.9,1.7,1.8,2.4,2.8
					c0.4,0.5,0.8,1.4,0,1.8c-0.6,0.3-1-0.4-1.4-0.8c-1.9-2.3-3.7-4.6-5.6-6.9c-1.8-2.1-1.9-3.3-0.2-5.4
					C469.5,563.1,470.1,562.4,470.7,561.7z M477.4,486.5c-0.3-0.3-0.5-0.5-0.6-0.6c-0.5-0.9-2.4-1.5-1-2.7c1.2-1.1,1.7,0.8,2.5,1.2
					c2.4,1.2,2.7,4,4.8,5.6c4.5,3.4,8.2,7.7,12.3,11.7c0.5,0.5,1.2,1.1,0.5,1.7c-0.7,0.6-1-0.3-1.5-0.7
					C488.4,497.5,483.6,491.1,477.4,486.5z M480.5,559.5c-2.1-0.6-4.1-1.3-6-1.8c-2.4-0.5-3.5-1.6-2.5-3.7c0.8-1.7,2.5-3.1,3.7-4.6
					c0,0,0.2,0,0.4,0.1c1.6,0.4,2.3,2.6,1.4,4c-0.8,1.2-1.2,2.3,0.3,3.4C478.7,557.6,479.6,558.6,480.5,559.5z M629.7,539.2
					c-0.1,0.1-0.2,0.3-0.3,0.4c-0.6-0.6-1.1-1.1-1.7-1.7c-2-2.1-2.9-2.2-4.9-0.2c-0.7,0.7-1.4,1.5-2.1,2.3c-2,2.1-2.5,2.1-3.6-0.7
					c-0.1-0.2-0.2-0.5-0.2-0.7c2.3,0.1,4.1-1,3.6-2.2c-0.6-1.4-0.3-2.9-0.4-4.3c-0.1-0.6-0.5-1.4,0.3-1.7c0.7-0.3,1,0.5,1.5,0.9
					C624.6,533.8,626.7,537,629.7,539.2z M289.5,244.4c0,1.1-0.3,1.7-0.8,2.3c-3.7,3.9-8.1,7.1-12,10.8c-0.4,0.3-0.8,0.6-1.2,0.1
					c-0.4-0.4-0.8-0.9-0.3-1.4c0.3-0.3,0.5-0.6,0.8-0.9c2-1.8,4-3.6,6.1-5.3C284.4,248.1,286.7,246.2,289.5,244.4z M574.4,484.2
					c3,2.4,5.5,5.1,7.9,7.9c1.3,1.5,1.2,3.1,0.3,4.8c-0.2,0.4-0.4,0.8-0.9,0.8c-0.5-0.1-0.5-0.6-0.5-1c0.1-1.6-0.7-2.7-1.8-3.8
					c-1.3-1.2-2.4-2.5-3.7-3.6C574.2,487.9,573.7,486.4,574.4,484.2z M547,537.7c-0.6,0.8-1,1.6-1.6,2.3c-4.3,5-9.1,9.4-13.8,14
					c-0.4,0.4-0.8,0.7-1.2,0.3c-0.6-0.6,0.2-1,0.5-1.3c4.5-5.2,9.6-9.7,14.3-14.7C545.7,537.8,546,537.2,547,537.7z M485.6,574.5
					c1.3,0.7,1.5,2,1.3,3.5c-0.1,1.3-0.9,1.7-1.9,0.9c-1-0.8-1.9-1-3.1-0.7c-1.1,0.2-1.6-0.8-2.3-1.5c-0.5-0.6-0.3-1,0-1.5
					C481.2,572.7,483.4,572.4,485.6,574.5z M631.5,537.9c0.4-0.9,0.6-1.7,0.5-2.7c-0.5-4,2.6-6.8,6.6-6.2c1.4,0.2,1.3,0.7,0.5,1.5
					C636.7,533.1,634.3,535.7,631.5,537.9z M252.7,301.2c-5.6,7-12.1,13.1-18.8,19C239.8,313.5,245.8,306.9,252.7,301.2z
					 M390.9,467.1c-2.2-2.2-2.2-2.1-0.5-4c1.4-1.6,2.5-1.4,3.6,0.2c0.4,0.6,1,1,1.5,1.5c0.5,0.4,0.6,0.9,0.3,1.5
					C394.5,468.8,392.9,469.1,390.9,467.1z M478.8,582.5c1.6-0.9,2.5-0.7,3.4,0.3c1.8,2,3.8,3.9,5.6,5.9c0.5,0.6,1,0.5,1.5,0.6
					c1.3,0.2,2-1,3.2-1.5c-1.6,3.4-4.3,4.1-6.7,1.8C483.5,587.2,481.2,584.9,478.8,582.5z M431,426.6c-1.1-1.2-2.8-1.9-0.7-3.7
					c2.3-1.9,2.1-2.1,4.4,0.2c1.9,1.9,1.8,2,0,4.1C432.8,429.4,432,427.4,431,426.6z M566.9,486.5c1.1-0.8,1.6-2.1,2.6-1.1
					c0.7,0.7,2,1.4,0.9,2.9c-0.6,0.8-0.1,1.7,0.2,2.6c0.2,0.5,0.9,0.8,0.2,1.4c-0.5,0.5-1.2,0.4-1.8,0.3
					C565.5,491.5,564.8,488.6,566.9,486.5z M351.2,242.1C351.2,242.1,351.2,242.1,351.2,242.1c-0.7-0.5-1.3-1-1.8-1.7
					c-1.2-1.4-1.1-3.3,0.4-4.5c1.3-1.1,2.8-1.3,4.1,0c1.5,1.4,3.1,2.6,4,4.7c0.5,1.3,0.9,2.1-0.3,3.2c-1.4,1.1-2.7,1.8-4.2,0.5
					C352.6,243.6,351.9,242.8,351.2,242.1z M413.9,443.7c-0.4-0.9-2.2-1.2-1.6-2.7c1-2.5,3.1-2.8,4.9-0.8c0.5,0.5,1,1,1.4,1.5
					c0.3,0.3,0.4,0.7,0.2,1.1C417.9,445.3,415.9,445.7,413.9,443.7z M454,402.9c-1.9-2-1.9-2-1.6-2.6c1-2.3,3-2.7,4.7-1
					c0.4,0.4,0.9,0.9,1.3,1.3c0.7,0.7,0.6,1.2,0,1.9C456.6,405.1,456.1,405.1,454,402.9z M229.5,311.2c-0.7-0.8-1.4-1.4-1.7-2.3
					c-0.4-1,0.2-1.6,0.8-2.1c0.8-0.7,1.3-0.1,1.7,0.4c1.1,1.3,2.8,2.1,3.9,3.4c0.4,0.4,1.5,0.6,0.8,1.5c-0.5,0.7-1.1,1.3-2.2,1.1
					C231.4,312.8,230.3,312.1,229.5,311.2z M466.6,586.3c0.3-0.4,0.7-0.2,0.9,0c3.5,3.4,7,6.8,10.5,10.3c0.7,0.7,0.7,1.6,0,2.4
					c-0.6,0.7-1.2,1.3-1.9,2c-0.9,1-1.7,0.9-2.6-0.1c-2.8-2.8-5.8-5.6-8.6-8.4c-0.7-0.7-1.2-1.5-1.7-2.3c-0.2-0.3,0-0.7,0.4-0.8
					c0.5-0.2,0.7,0.3,0.6,0.6c-0.3,1.2,0.5,1.8,1.2,2.4c1.7,1.7,3.5,3.4,5.3,5c1,0.9,1.9,1.9,3,2.6c1.8,1.2,2.3-0.7,3.3-1.5
					c1-0.8,0.6-1.5-0.2-2.2c-1-0.9-2-2-3-2.9C471.2,591,469.4,588.2,466.6,586.3z M317.9,407.6c-0.7-0.6-0.2-4,0.9-4.9
					c1.4-1.1,2.9,0.2,4.4,0.6c0.8,0.2-0.2,3.4-1.7,4.7C320.2,409.2,319.1,407.3,317.9,407.6z M256.7,297.6c-0.2-0.2-0.4-0.4-0.5-0.5
					c6.8-6.8,13.7-13.7,20.5-20.5c0.2,0.2,0.3,0.3,0.5,0.5C270.6,284.2,263.7,290.9,256.7,297.6z M203.4,332.9
					c0.9-0.3,1.2-1.9,2.5-1.5c1.5,0.5,2.4,4.2,1.1,5.2c-1.6,1.3-3.1,1.3-4.5,0C200.5,334.7,203,334.1,203.4,332.9z M224.1,321.2
					c3-2,6.4-2.9,9-5.2c0.3-0.3,0.6-0.1,0.9,0.2c0.4,0.3,0.4,0.7,0.1,1.1c-0.5,0.5-1.1,1.3-1.7,1.4c-1.5,0.3-2,1.2-2.5,2.6
					c-0.9,2.3-2.1,2.5-4,1C225.4,321.9,224.8,321.7,224.1,321.2z M440.1,428.3c2,2,1.9,2.1-0.1,4.3c-2,2.2-2.9-0.1-3.9-0.9
					c-1.9-1.7,0.5-2.3,1.1-3.4C438.2,426.6,439.3,427.4,440.1,428.3z M396.8,469.2c1.1-2,2.3-1.1,3.5,0.3c1.4,1.7,1.4,2-0.6,3.9
					c-1.9,1.8-2.6-0.4-3.6-1.2C394.5,471,395.6,470.1,396.8,469.2z M593.8,576.2c-1.1,1.8-2.6,2.9-3.9,4.1c-0.2,0.2-0.7,0.6-0.8,0.3
					c-0.4-1.3-2-2.2-2.1-3.2c-0.2-1.4,1.5-2.3,2.6-3.2c1.1-0.8,1.1,0.6,1.6,1C591.8,575.7,592.6,576.1,593.8,576.2z M316,232.3
					C316.1,232.3,316.1,232.3,316,232.3c1.2,1.1,2.3,2.2,3.5,3.3c0.4,0.4,0.6,0.8,0.2,1.4c-0.4,0.6-0.8,0.5-1.2,0.1
					c-2.5-2.3-5-4.6-7.5-6.9c-0.5-0.4-0.6-1.1,0-1.7c0.6-0.5,1.1-0.2,1.6,0.3C313.8,230.1,314.9,231.2,316,232.3z M463.2,405.2
					c1.9,1.9,1.8,2-0.1,4.1c-1.7,1.9-2.6,0-3.6-0.8c-2.3-1.8,0-2.7,0.9-3.8C461.8,402.9,462.5,404.7,463.2,405.2z M328.8,237
					c4.3-5.1,9-9.9,14.1-14.1C338.7,228.1,334.3,233.1,328.8,237z M560.5,507.5c-1-3.3-0.5-5.4,1.5-6.9c1.1-0.8,1.8-0.5,2.7,0.4
					c0.8,0.8,0.9,1.4,0.1,2.3C563.4,504.6,562.1,506,560.5,507.5z M491.1,553.2c0,0,0.1-0.1,0.1-0.1c1.1,1.1,2.3,2.3,3.5,3.4
					c0.5,0.5,0.5,0.8-0.1,1.1c-0.4,0.2-0.5,1.1-1.1,0.5c-2.5-2.4-5.3-4.4-7.3-7.3c-0.3-0.4-0.6-0.9,0-1.2c0.6-0.4,1-0.2,1.5,0.3
					C488.9,551,490,552.1,491.1,553.2z M447.7,354.2c0.6-3.7,2-6.7,2.9-9.9c2.9,3,2.9,4,0.5,6.7C450.2,352.1,449.1,353,447.7,354.2z
					 M423,445.9c0.7,0.8,2.5,1.5,0.7,2.9c-0.9,0.7-1.6,3-3.3,1c-0.8-1-2.8-1.8-0.8-3.4C420.5,445.7,421.3,443.3,423,445.9z
					 M297,240.8c1.3-1,2.6-2.1,3.8-3.1c0.7-0.6,1.6-1.4,2.3-0.4c0.7,0.9-0.2,2-1,2.3c-1.4,0.8-2.5,2-3.8,2.9c-0.9,0.6-2,2.2-2.8,1.3
					C294.4,242.5,296.5,241.9,297,240.8z M576.4,495.2C576.4,495.2,576.3,495.3,576.4,495.2c-0.6-0.5-1.1-1-1.7-1.5
					c-0.4-0.3-1.1-0.6-0.4-1.2c0.6-0.5,1.3-1.9,2.1-1.3c1.6,1.2,3.3,2.5,4,4.5c0.3,0.8-0.2,1.4-0.7,1.8c-0.6,0.5-1.1,0-1.5-0.5
					C577.6,496.3,577,495.8,576.4,495.2z M268.1,276.4c-5,6-10.9,11.1-16.7,16.3C256.6,286.9,262,281.3,268.1,276.4z M570.3,600.1
					c0.1-1.8-0.7-2.9-2.2-3.8c0.9-0.9,1.6-1.6,2.4-2.4c0.4-0.4,1-0.7,1.4,0c0.6,1.2,1.8,1,2.9,1.4
					C573.5,597.1,572.2,598.7,570.3,600.1z M320.3,453.3c3.2,1,5.5,3,8.3,4.2c1.1,0.5,0.5,1.7,0.1,2.6c-0.5,0.9-1.2,0.6-1.7,0.1
					C324.8,458,322.5,455.9,320.3,453.3z M619.9,562C619.9,562,619.9,562,619.9,562c-0.8,0.9-1.7,1.7-2.5,2.5
					c-0.4,0.4-0.9,0.7-1.4,0.2c-0.5-0.4-0.6-0.9-0.1-1.4c1.7-1.8,3.5-3.6,5.2-5.4c0.4-0.4,1-0.6,1.5-0.1c0.5,0.5,0.2,1.1-0.1,1.5
					C621.7,560.2,620.8,561.1,619.9,562z M570.9,495c-0.4-0.5-1-0.8-0.8-1.4c0.2-0.5,0.8-0.5,1.2-0.6c0.8-0.3,1.3-0.1,1.9,0.5
					c1,1,2.1,2,3.1,3c0.4,0.4,1.4,0.8,0.8,1.6c-0.5,0.7-1.5,0.3-2.1,0.1C573.3,497.6,572.4,495.9,570.9,495z M343.5,458
					c-2.8,4.4-4.5,5.4-7.8,1.5C338.2,458.6,340.6,458.2,343.5,458z M322.1,213.7c0.5-0.3,1.1-0.8,1.7-1.2c0.6-0.4,0.9-1.4,1.8-0.7
					c0.8,0.6,0.9,1.5,0.6,2.5c-0.5,1.6-1.8,2.3-3.3,2.3c-0.7,0-1.6,0-2-0.8C320.6,214.7,321.6,214.4,322.1,213.7z M612.7,551
					c0.9-1.2,1.8-2.1,3-2.8c0.4,1,0.8,1.9,1.7,2.1c1.7,0.4,1.3,1.1,0.5,2c-0.7,0.8-1.3,1.7-2.7,2.2C615.4,552.6,614.1,552,612.7,551
					z M351.1,303.1c0.8-0.3,1.1-1.9,2.5-1.2c1.9,1,1.9,2.5,0,3.4c-0.9,0.4-1.7,1.6-2.8,1.1C349.2,305.6,349.3,304.9,351.1,303.1z
					 M545.1,497.8C545.1,497.8,545.1,497.8,545.1,497.8c-1-1-2-1.9-3-2.9c-0.4-0.4-1.2-0.8-0.5-1.5c0.6-0.6,1.2-0.1,1.6,0.3
					c2,2.1,3.9,4.2,5.9,6.4c0.3,0.3,0.7,0.7,0.3,1.1c-0.5,0.4-0.9,0.1-1.2-0.3C547.2,499.8,546.2,498.8,545.1,497.8z M298.2,410.1
					c2.3,2.5,4.7,4.3,6,7.1c-2-2.3-4.4-3.7-7.7-3.1C297.2,412.8,297.9,411.8,298.2,410.1z M300.8,234.6c-0.3,0.7,0.3,1.6-0.4,2.2
					c-1.9,1.5-3.7,3-5.6,4.5c-0.4,0.3-0.8,0.4-1.1,0c-0.3-0.4,0-0.8,0.3-1.1C296.2,238.3,298,235.9,300.8,234.6z M404.4,287.6
					c1,1.6,3,2.4,3.2,4.5c0,0.3,0.3,0.8,0.6,0.6c0.4-0.3,0.5-0.9,1-0.1c0.2,0.4,0.4,1.1-0.1,1.3c-1,0.4-0.4,0.8,0,1.1
					c0.4,0.3,1,0.5,0.5,1.2c-1.7-1.1-2.7-2.8-4.1-4.2C404.6,291,402.6,289.7,404.4,287.6z M234.9,307.4c-0.3-0.5-1-0.8-0.6-1.5
					c0.6-0.8,3.3-1,4-0.2c0.7,0.9,1.9,1.9,0.6,3C236.9,310.5,236.2,307.6,234.9,307.4z M487,586.4c-0.3-0.3-0.5-0.4-0.7-0.7
					c-0.4-0.6-1.7-1-0.6-2.1c1-1,1.7-0.5,2.5,0.4c0.6,0.7,1.3,1.4,2,2.1c0.4,0.4,0.7,0.9,0.4,1.5c-0.4,0.5-1,0.4-1.5,0.3
					C488,587.7,487.6,586.8,487,586.4z M549.6,472.9c-2.2,3-5.4,4.5-8.4,6.3c-0.2,0.1-0.6,0-0.7-0.3c-0.1-0.4,0.1-0.7,0.4-0.9
					C543.7,476.2,546.4,474.1,549.6,472.9z M318.8,208.8c0.9-0.8,1.7-1.4,2.4-2.2c0.4-0.4,0.6-1.1,1.3-0.5c0.5,0.5,0.1,1-0.3,1.4
					c-1.6,1.9-3.5,3.5-5.3,5.2c-0.4,0.4-0.7,0.5-1,0.2c-0.4-0.3-0.2-0.7,0.1-1.1C317,210.9,317.9,209.8,318.8,208.8z M468.2,555.6
					c-0.5,0.8-0.8,1.1-1.2,0.9c-0.8-0.4,0-0.8,0.1-1.2c1.1-2.1,2.2-4.2,3.7-6.2c0.3-0.4,0.5-1.2,1.2-0.8c0.7,0.4,0.3,1.1,0,1.6
					C470.8,552.1,469.6,554.2,468.2,555.6z M392.5,327.9c0.6-0.8,1.6-0.6,2.5-0.8c1.9-0.5,1.8,1.1,2,2c0.2,1.4-0.9,0.3-1.3,0.4
					c-0.5,0.1-0.7,0.6-1,0.7c-0.9,0.1-2,0.3-2.6-0.5C391.6,329.3,391.6,328.5,392.5,327.9z M234.6,297.1c-2.3,3.5-5.7,5.6-8.9,8
					C228,301.7,231.1,299.2,234.6,297.1z M477.2,578.1c1.3-1.8,2.2-0.9,3-0.3c0.8,0.7,1.6,1.7,0.7,2.6c-1,1-2.4,0.8-3.4-0.1
					C476.4,579.5,476.9,578.5,477.2,578.1z M510.5,450.7c0.7,1.3,1.6,3,2.5,4.7c0.2,0.4,0.2,1-0.3,1.2c-0.6,0.3-1,0-1.3-0.6
					c-0.8-1.6-1.7-3.1-2.6-4.7c-0.3-0.5-0.3-0.9,0.2-1.2C509.4,449.9,509.9,449.8,510.5,450.7z M468.4,530.9
					c-0.2,0.2-0.3,0.5-0.5,0.7c-4.5-2.6-9-5.2-13.5-7.8c0.1-0.2,0.2-0.4,0.4-0.6C459.3,525.8,464,528.1,468.4,530.9z M538.5,416.6
					c-2.2,0.3-4.3-1.8-7.5-7.5C533.8,411.8,536.1,414.1,538.5,416.6z M430.6,540.5c-1-2.7-2.7-3.8-5.2-3.5c-0.5,0.1-0.8-0.6-0.8-1.1
					c0-0.4,0.4-0.8,0.8-0.9c1.6-0.3,3.1,0.2,4.2,1.3C430.7,537.2,431.4,538.4,430.6,540.5z M498.7,569.1c-1.3,1.4-1.8,2.6-3,3.3
					c-0.7,0.5-1.3,0.4-1.8-0.3c-0.5-0.6-0.9-1-0.3-2C494.9,568.2,496.6,569.3,498.7,569.1z M242.2,298.5c0.8,2.2-0.7,2.7-1.7,3.3
					c-1.2,0.6-2.6,0.7-3.6,1.8c-0.2,0.2-0.8,0.4-1.1,0.1c-0.3-0.3-0.2-0.7,0.1-0.9c0.4-0.4,0.4-1,0.9-1.5c1-1,3.1,0.8,3.5-1.5
					c0.1,0.1,0.3,0.1,0.4,0.2C242,300.9,241.8,299.6,242.2,298.5z M615.9,529c-0.1-0.7-1.9-0.7-0.8-2.1c1.1-1.4,1.9-0.6,2.6,0.3
					c0.7,0.9,2.4,1.8,1.2,3C617.9,531.3,616.9,529.8,615.9,529z M380.8,354.2c1.7,1.6,1.6,3.8,2.3,5.6c0.2,0.5-0.1,1-0.7,1.1
					c-0.4,0.1-0.9,0.1-1-0.4C380.9,358.5,379.3,356.6,380.8,354.2z M362.8,249.7c0.2-0.2,0.4-0.3,0.5-0.4c0.6-0.9,1.1-1.1,2-0.1
					c0.9,1,0.5,1.5-0.4,2c-0.6,0.3-1.1,0.9-1.6,1.3c-0.4,0.3-0.9,0.4-1.3,0c-0.4-0.4-0.4-0.8-0.3-1.3
					C361.8,250.4,362.5,250.2,362.8,249.7z M315.2,405.5c-0.2,0.8-0.8,0.6-1.3,0.4c-1.7-0.8-0.5-2.2-0.5-3.3c0-0.9,1.1-1.1,1.9-1.1
					c0.2,0,0.5,0.3,0.4,0.3C315.2,403,316.8,404.5,315.2,405.5z M600.6,497.4c0.6-0.5,1.2-1.2,2.1-1.3c0.8-0.1,1,0.1,1.2,1
					c0.1,0.8,0.1,1.1-0.8,1.1c-1.5,0-2.2,1-2.6,2.2c-0.1,0.4-0.2,0.9-0.7,0.8c-0.7-0.1-0.6-0.7-0.6-1.2
					C599.2,499,599.8,498.1,600.6,497.4z M448.2,519.2c0.4,0.5,1,0.9,0.6,1.5c-0.3,0.4-0.9,0.4-1.5,0.1c-1.4-0.8-2.5-2-4-2.5
					c-0.4-0.1-0.6-0.6-0.5-1c0.2-0.6,0.7-0.3,1-0.2C445.4,517.7,446.8,518.5,448.2,519.2z M570.9,485.3c-0.2-0.5-1.5-0.8-0.9-2
					c0.3-0.5,0.6-1,1.3-0.9c0.9,0,1.2,0.8,1.6,1.4c0.5,0.9,1.1,2.1,0.3,2.8C572.3,487.3,571.7,486.1,570.9,485.3z M243.7,385.1
					c0,0.1-0.1,0.2-0.1,0.3c-5.3-5.3-10.5-10.5-15.8-15.8c0.1-0.1,0.1-0.1,0.2-0.2C233.2,374.7,238.5,379.9,243.7,385.1z
					 M320.8,211.6c0.8-0.8,1.3-1.2,1.7-1.7c0.4-0.4,0.9-1.1,1.5-0.5c0.8,0.7,0,1.2-0.5,1.7c-0.5,0.5-1.1,0.8-1.6,1.3
					c-0.9,0.7-1.6,1.8-2.9,2C319.1,212.8,320.4,212.2,320.8,211.6z M359.9,240.6c2,1.2,3.3,2.9,4.8,4.4c0.3,0.3,0.3,0.7,0.1,0.9
					c-0.4,0.5-0.8,0.1-1-0.2c-0.9-0.8-1.6-1.9-2.6-2.3C360,242.9,359.7,242.1,359.9,240.6z M224.7,303.1c2.2-3.1,5.1-5.6,8.1-8
					C230.8,298.4,227.5,300.5,224.7,303.1z M506.7,566.5c2-0.3,3.3-1.5,4.3-3.3c1-1.7,0-3.6,0.6-5.7c1.3,2.4,1.2,4.5,0,6.3
					C510.5,565.5,508.9,566.7,506.7,566.5z M206,388.8c0.4,0.8,1.5,1.2,1.6,2.3c0.1,0.7-0.3,1.2-1,1.3c-0.4,0.1-0.6-0.4-0.5-0.7
					c0.4-2.5-0.9-3.5-3.2-3.5c-0.7,0-1.1-0.2-0.9-0.9c0.2-0.7,0.7-0.5,1.2-0.4C204.3,387.1,205.2,387.9,206,388.8z M315.4,456.1
					c-3.4-3.1-6.8-6.2-9.6-9.7C309.2,449.4,312.5,452.6,315.4,456.1z M360.3,246.1c0.7-0.9,1.3-0.9,2.1-0.2c0.8,0.8,0.8,1.5,0,2.3
					c-0.7,0.7-1.2,1-2,0.1C359.5,247.5,359.4,246.8,360.3,246.1z M608.8,442.1c1.2,2.4,1.3,2.5,4,3.4c0.4,0.1,0.9,0.1,0.7,0.7
					c-0.1,0.4-0.5,0.7-0.9,0.7c-0.5-0.1-1.1-0.2-1.6-0.4C609.2,445.6,608.1,443.5,608.8,442.1z M477.6,594.6
					c-2.9-2.5-5.8-5.1-8.1-8.2C472.4,588.9,475.3,591.4,477.6,594.6z M294.3,361c0.5-0.4,1.1-1.3,1.6-0.3c0.7,1.4-0.8,2.3-1.2,3.4
					c-0.3,0.7-0.8,0.5-1.1,0C292.7,362.8,293.6,362,294.3,361z M272.8,414.2c3.9,2.9,7.2,6.3,10.6,9.7c-0.5,0.3-0.7,0.1-0.9-0.1
					C279.2,420.6,276,417.4,272.8,414.2z M308.5,233.9c-0.5,0.3-1.2,0.7-1.9,1c-0.1,0-0.5-0.6-0.7-0.9c-0.2-0.6,2.2-3.1,2.8-2.8
					c0.5,0.2,0.9,0.7,0.7,1.3C309.2,232.9,308.9,233.3,308.5,233.9z M502.9,569.6c-0.7,1.8-2.2,3.1-3.6,4.3c-0.3,0.2-0.7,0.3-0.9,0
					c-0.3-0.3,0-0.6,0.2-0.9C499.9,571.7,501,570.2,502.9,569.6z M623.4,529.8c0.1-0.2,0.3-0.4,0.4-0.5c0.7,0.8,1.5,1.3,2.5,1.3
					c1,0,1.3,0.7,1.8,1.2c0.5,0.5,0.5,1.2,0,1.7c-0.5,0.5-1-0.1-1.4-0.4C625.6,532,624.5,530.9,623.4,529.8z M443.9,332.2
					c0.1-0.1,0.3-0.2,0.4-0.3c1.1,1.1,2.3,2.2,3.4,3.4c0.6,0.6,0.3,1.3-0.2,1.8c-0.4,0.4-0.8,0.2-1-0.2
					C445.8,335.3,444.8,333.8,443.9,332.2z M271.8,271.7c-0.2,2,1.1,1.5,2.1,1.3c0.2,0.7-0.2,0.7-0.5,0.9c-1.1,0.7-2.4,1.8-3.6,0.9
					C269.4,274.6,270.6,272.7,271.8,271.7z M555.8,389.5c0.6,1.5,1.1,3,2.7,3.5c0.6,0.2,1.4-0.2,1.7,0.7c0.1,0.3-0.1,0.5-0.4,0.6
					c-0.9,0.4-1.5-0.1-2.1-0.6c-0.8-0.6-1.6-1.2-2.1-2.2C555.3,390.9,554.8,390.3,555.8,389.5z M296.3,358.7
					c2.1-2.1,4.1-4.1,6.2-6.2C301.2,355.4,299,357.3,296.3,358.7z M366.7,501.7c-1.9-1.6-3.8-2.8-6.7-2.2
					C362.5,497.7,365,498.6,366.7,501.7z M204.2,329.6c-1.4,2.6-2.9,4.2-4.6,5.1C200.1,332.7,201.2,331.4,204.2,329.6z M303.8,444.2
					c-2.7-2.1-5.3-4.2-7.1-7.1C299.1,439.4,301.5,441.8,303.8,444.2z M340.4,194.7c0.8-0.5,1.8-1.1,2.3-0.6c0.6,0.6-0.1,1.7-0.5,2.3
					c-0.4,0.5-1.5,1-1.9,0.6C339.3,196.2,340.9,195.5,340.4,194.7z M331.1,221.4c-1.5,2.2-2.8,2.2-3.9,0c-0.2-0.3-0.3-0.7,0-0.9
					c0.3-0.2,0.6-0.1,0.9,0.2C328.9,221.5,329.8,222.2,331.1,221.4z M203.2,327.1c-1.4,2.6-4.7,5.9-6.2,6.2
					C199.2,331.1,201.2,329.1,203.2,327.1z M375.5,338.9c0.2,0,0.4-0.1,0.6-0.1c0.8,2.6,1.6,5.3,2.5,7.9
					C376.8,344.3,376.3,341.6,375.5,338.9z M309.4,436.4c0.1,2.1,0,4.1-1.1,6C307.9,440.2,308.8,438.3,309.4,436.4z M395.2,324.1
					c0.1,0.3,0.4,0.9,0,0.8c-1.3,0-2.5,1.2-3.8,0.2c-0.3-0.2-0.6-0.4-0.4-0.8C391.1,323.9,394.9,323.7,395.2,324.1z M572.9,489.6
					c0.3-0.6,0.7-1.2,1.5-0.4c0.6,0.6,0.7,1.4,0.1,2c-0.7,0.7-1.6,0.4-2.2-0.1C571.6,490.5,572.2,490.1,572.9,489.6z M483.6,582.5
					c-0.4-0.5-1.1-0.9-0.2-1.6c0.7-0.5,1.2-0.9,1.9,0c0.6,0.7,0.7,1.4,0.1,2C484.8,583.5,484.1,583.2,483.6,582.5z M515.1,455.4
					c0.5-0.1,0.9-0.2,1-0.1c1,0.7,1.6,1.7,1.9,2.8c0,0.2-0.3,0.6-0.6,0.8c-0.6,0.2-0.6-0.3-0.8-0.7
					C516.1,457.3,515.6,456.4,515.1,455.4z M629.7,527.7c0.2-0.2,0.4-0.4,0.5-0.5c0.7-0.4,1.2-1.9,1.8-1.2c0.9,1-1,0.9-1.2,1.6
					c0,0.2-0.3,0.3-0.4,0.4c-0.8,0.5-0.8,2.6-2,1.6C627.6,528.9,629.6,528.5,629.7,527.7z M560.6,511.3c4-5.1,4.3-5.4,6-5.8
					C564.6,507.5,562.8,509.7,560.6,511.3z M501.5,431.1c1.3,0.9,3.3,1.5,2.4,3.8C502.9,433.8,501.9,432.7,501.5,431.1z
					 M360.1,501.5c1.1-1.4,2.3-1.1,3.7-0.3c1.2,0.7,2.3,1.4,1.9,3.2C363.2,500.8,363.1,500.7,360.1,501.5z M224.7,327.3
					c1.4,0,2,1.1,2.9,1.5c0.3,0.1,0.9,0.2,0.6,0.8c-0.2,0.3-0.5,0.6-0.9,0.8c-0.4,0.2-0.7,0-0.9-0.5
					C225.9,329.1,225.4,328.4,224.7,327.3z M583.6,460.2c-1.6-1.2-3.3-2.3-4-4.2C581.2,457.1,582.8,458.3,583.6,460.2z M600,476.3
					c-2.1-1-3.7-2.7-4.8-4.7C597.2,472.8,598.5,474.6,600,476.3z M629.8,597.6c1.8,2.1,3.5,1.3,5.2,0.3
					C632.2,600.4,630.4,600.4,629.8,597.6z M331.2,217.6c2.4,1.2,2.6,2,0.5,3.5C331.8,219.8,331.4,218.7,331.2,217.6z M374.7,214.6
					c1.5,0.8,2.4,2.3,3.8,3.2C376.4,217.8,375.8,215.9,374.7,214.6z M472.1,386.2c-0.9,1.9-1.8,3.7-2.8,5.6
					C469.4,389.5,470.5,387.8,472.1,386.2z M686.2,524.4C686.2,524.4,686.2,524.4,686.2,524.4c0.2-0.3,0.5-0.7,0.8-0.9
					c0.6-0.4,0.8,0.1,1.1,0.5c0.2,0.4,0.9,0.7,0.5,1.2c-0.4,0.5-0.6-0.2-0.9-0.3c-0.8-0.4-1.5-0.5-1.5,0.8c0,0.3-0.2,0.5-0.5,0.3
					c-0.2-0.1-0.5-0.4-0.3-0.7C685.6,525,685.9,524.7,686.2,524.4z M212.3,339.4c-0.1-0.6-1.6-0.8-0.8-1.5c0.8-0.7,1.1,0.6,1.7,0.9
					c0.4,0.3,1,0.7,0.4,1.3C212.7,340.9,212.8,339.5,212.3,339.4z M341.3,211.3c-0.2-0.8-0.3-1.4-0.5-1.9c-0.2-0.6-0.3-1.1,0.3-1.5
					c0.3-0.2,0.5-0.2,0.8,0c0.5,0.4,0.4,0.9,0.2,1.5C341.9,210,342,210.6,341.3,211.3z M518.5,352.7c0.3,2.3,1.6,3.7,4,4.1
					C519.9,356.8,518,354.9,518.5,352.7z M292.6,245.7c0.9,0.1,1.6,2.1,2.2,0c0,0,0.6,0,0.9,0.2c0.4,0.2,0.4,0.6,0,0.8
					c-0.5,0.3-0.5,1.1-1.4,1C293.3,247.4,293.1,246.6,292.6,245.7z M225.7,367.3c0,0-0.1,0.1-0.1,0.1c-1.9-1.9-3.9-3.9-5.8-5.8
					c0,0,0.1-0.1,0.1-0.1C221.8,363.4,223.7,365.3,225.7,367.3z M268.3,409.2c-2.3-1.5-4-3.5-5.7-5.7
					C264.6,405.4,266.5,407.3,268.3,409.2z M625.8,523.2c-0.4,0.4-0.7,0.8-1.3,0c-0.4-0.5-0.8-1.1-0.4-1.6c0.5-0.6,1.2,0,1.6,0.2
					C626.5,522.3,626.2,522.8,625.8,523.2z M248.1,296c-1,1.7-1.7,2.7-3.8,3C245.3,297.4,246.5,296.8,248.1,296z M403.4,287.3
					c-0.3,0.4-0.6,0.2-0.8,0.3c-1.7,0.2-1.2-1.4-1.8-2c-0.2-0.2-0.2-0.6,0.2-0.6c0.9,0,0.7,0.9,0.9,1.4c0,0.1,0.2,0.2,0.3,0.2
					C403.6,285.4,402.9,287.1,403.4,287.3z M310.6,440.1c0.7,1.1,1,1.9,0.5,2.9c-0.1,0.2-0.8,0.2-0.9,0
					C309.4,442,310.3,441.3,310.6,440.1z M422,305.5c1.1,1.1,1.6,2.5,1.5,4.4C422.3,308.4,422.2,306.9,422,305.5z M210.4,343.4
					c-1.4,0-2.1-0.6-2.7-1.5c-0.2-0.3,0-0.5,0.3-0.6c1.1-0.1,1.5,0.8,2.1,1.4C210.3,342.8,210.3,343,210.4,343.4z M426.8,310.1
					c1.3,1,1.3,2.1,1.6,3c0.1,0.4,0.4,0.9-0.1,1.1c-0.5,0.2-0.7-0.3-0.8-0.7C427.2,312.5,427.1,311.5,426.8,310.1z M448.7,339.6
					c0.9-0.8,0.5-2,1.8-2c0.5,0,1,0.6,0.9,0.9C451.1,339.6,450,339.3,448.7,339.6z M690.7,521.9c0.6,0.2,1,0.5,0.4,1
					c-0.3,0.3-0.8,0.9-1.1,0.2c-0.3-0.6-1.3-1-0.7-1.7C690.1,520.3,690.2,522,690.7,521.9z"/>
				<path d="M476.6,637.9c0.6-1.6-0.5-5.3-1.8-6.5c0,0,0.1,0,0.1,0c-0.2,0.1-0.5,0.2-0.5,0.3C475,633.8,475.2,636.1,476.6,637.9
					C476.7,637.9,476.6,637.9,476.6,637.9z"/>
				<path d="M528.8,636.3c-2.7,0.6-3.8,0-4.2-2.3c-0.4-2.1-2.9-2.3-4.4-3.3c-2-1.3-4.3-0.8-5.7,1.1c-1.2,1.7-1.5,3.7-0.7,5.7
					c0.2,0.6,0.5,1.1,0.3,1.9c-2.3-2.3-5.1-4.3-6.8-7c-1.4-2.2-3.1-4.1-4.4-6.3c-0.1-0.2-0.1-0.7-0.4-0.6c-1.1,0.4-1.7,1.4-2.3,2.3
					c-0.5,0.7-0.6,1.3-0.1,1.8c1.2,1.2,1.9,3,4,3.3c1.4,0.2,2.2,1.7,3.2,2.6c4,3.8,7.8,7.7,11.6,11.6c0.8,0.8,1.6,1.7,2.6,1.2
					c1.1-0.6,2.3-1.4,2.1-3c-0.1-1.1,0-2.1,0.4-3.1c0.9-2.3,2.1-3.1,4.6-3c0.5,0,1,0.2,1.4,0.1c1-0.1,1.7-0.7,2.2-1.5
					c0.6-1-0.2-1.4-0.7-1.9c-1.5-1.6-3.2-3.2-4.7-4.8c-0.4-0.4-1.2-0.9-0.8-1.7c0.4-0.6,1.1-0.5,1.7-0.5c3.2,0,4.3-1.6,3.6-4.8
					c-0.1-0.4,0-0.8,0-1.2c0-2.4-1.7-3.5-3.9-2.5c-0.8,0.4-1.6,0.8-2.2,1.5c-1.3,1.4-2.3,1.1-3.4-0.2c-0.6-0.8-1.4-1.4-2.1-2
					c-0.4-0.3-1-0.8-1.2-0.7c-2.4,1.1-3.5-0.9-4.8-2.1c-1.1-1-1.9-0.9-2.8,0c-1,1-1,1.9-0.1,3c2,2.6,5.4,3.5,7.6,5.9
					C521.7,629.5,525.2,632.7,528.8,636.3z M515.2,639.9c1,1,2,1.4,3.5,1c0.7-0.2,1.3,0.5,1.3,1.3c0,0.7,0.4,1.6-0.2,2
					c-0.8,0.5-1.2-0.4-1.6-0.9C517.1,642.3,516.2,641.1,515.2,639.9z M520.1,624.5c-0.5-0.5-1.5-0.9-0.4-1.9c0.8-0.7,1.4-0.5,2,0.2
					c0.6,0.7,1.3,1.6,0.5,2.3C521.5,626,520.7,625.4,520.1,624.5z M524.2,625.4c0.6-2.2,2.4-3.2,4.2-4.1c0.7-0.3,1.2-0.1,1.4,0.9
					C527.4,622.2,526.1,624.1,524.2,625.4z M523.7,636.3c0.1,0.1,0.3,0.3,0.4,0.4c-1.4,0.8-2.3,1.9-3.2,3.2
					c-0.2,0.3-0.6,0.4-0.9,0.1c-0.4-0.4-0.1-0.8,0.2-1C521.4,638.1,522.5,637.2,523.7,636.3z M517.8,632.1c0.5,0.6,0,0.9-0.3,1.2
					c-0.4,0.4-0.8,1.2-1.4,0.8c-0.7-0.5-0.3-1.3,0.1-1.8C516.6,631.6,517.2,632.1,517.8,632.1z M520.9,635.8
					c0.3,0.3,0.3,0.8-0.1,1.2c-0.6,0.5-1.1,0.3-1.6-0.2c-0.5-0.5-0.3-0.8,0.2-1.2C519.9,635.2,520.4,635.2,520.9,635.8z
					 M527.6,624.4c-0.6,1.3-1,2.2-1.4,3.1c-0.2,0.4-0.4,0.8-0.9,0.5c-0.5-0.3-0.2-0.7-0.1-1.1C525.7,626,526.5,625.3,527.6,624.4z"
					/>
				<path d="M490.1,638c1.2,1,2,2.2,2.3,3.8c0.4,2.2,2.2,3.4,4,3.1c1.8-0.2,3.2-1.6,3.3-3.2c0.1-1.8-1.7-3.9-3.4-4.5
					c-2.4-0.8-4-2.6-5-4.8c-0.7-1.5-1.3-2.8-3-3c-1.8-0.2-2.9,0.8-3.6,2.3c-0.8,1.6,0.4,2.8,1.2,4c0.1,0.2,0.5,0.4,0.6,0.4
					C488.5,635.4,489,637.3,490.1,638z M493.4,636.6C493.4,636.6,493.4,636.6,493.4,636.6c1.1,1.1,2.2,2.2,3.2,3.2
					c0.6,0.6,1.4,1.1,0.5,2c-0.9,0.9-1.7,0.4-2.6-0.2c-0.9-0.6-1-1.6-1.9-2.2c-1.9-1.4-3.4-3.2-5.1-4.9c-0.7-0.8-0.3-1.7,0.2-2.3
					c0.5-0.5,1.2-0.2,1.8,0.4C490.8,634.1,492.1,635.4,493.4,636.6z"/>
				<path d="M388.1,565c-1.2-1.1-2.3-2-3.9-2.2c-2.6-0.3-4,1.7-3.1,4.2c0.6,1.8,1.3,3.4,3.1,4.3c1.9,0.9,3.9,0.8,5-0.8
					c1-1.5,1-3.1-0.4-4.5C388.5,565.7,388.3,565.3,388.1,565z M386.6,567.2c0.9,0.8,0.8,1.9,0.9,2.9c0,0.4-0.4,0.6-0.7,0.6
					c-0.6,0.1-0.5-0.4-0.4-0.7C386.7,569.1,386,568.1,386.6,567.2z"/>
				<path d="M440.6,616.2c-0.7-0.6-2-1.1-3.4-1.1c-1.8-0.1-2.9,1.3-2.6,3.1c0.3,2.7,2.5,5.2,5,5.7c1.6,0.4,3.7-1.8,3.4-3.6
					C442.8,619.3,441.7,617.3,440.6,616.2z"/>
				<path d="M313.4,459.1c-2.3-2.1-4.9-2.3-6.2-0.7c-0.6,0.7-0.8,1.4-0.5,2.5c0.7,2.4,1.4,4.3,4.5,4.7c1.6,0.2,2.5-0.4,3.4-1.1
					c1-0.8,0.6-1.9,0.3-2.9C314.7,460.4,313.9,459.7,313.4,459.1z"/>
				<path d="M254,437.4c-0.5,0.7-0.9,1.5-0.7,2.6c0.5,2,0.9,3.9,3.2,4.6c3.7,1.1,5.7,0.1,5.7-2.7c0-2.4-2.5-4.8-5.3-5.3
					C255.7,436.3,254.9,436.8,254,437.4z M254.6,439.2c1.6-1.2,2.5-0.1,3.4,0.5c1.3,0.8,1.9,2,1.8,3.5c0,0.7-0.7,0.7-1.3,0.6
					C259.6,441.4,257.5,439.5,254.6,439.2z"/>
				<path d="M297.6,475.7c-2.1-2.1-4.8-2.8-6-1.4c-1.1,1.2-0.6,5.1,0.8,6.4c1.3,1.2,4.9,1.3,6.1,0.1
					C299.8,479.5,299.5,477.5,297.6,475.7z"/>
				<path d="M399,554c0.9,0.4,2.1,1.2,3.5,1.5c1.3,0.3,2.9-1.6,2.8-3c-0.2-2.2-3.5-5.5-5.7-5.6c-2.1-0.1-2.9,0.7-2.8,2.8
					C396.9,550.4,398.1,553.2,399,554z"/>
				<path d="M224,370.9c-0.5-0.4-0.9-0.7-1.3-1c-1.2-0.9-2.6-1.4-4.1-0.6c-1,0.6-1.6,1.6-1.5,2.8c0.2,1.6,0.4,3.4,2.3,4.1
					c0.6,0.3,1.3,0.6,1.9,0.6c1.5,0,3.2,0.3,4-1.5C226.3,373.4,224.7,372.2,224,370.9z"/>
				<path d="M275.6,422c-0.6-0.3-1.4-0.9-2.3-1.2c-1.5-0.4-2.9-0.2-3.2,1.8c-0.3,1.8-0.4,3.6,1.1,4.7c1.6,1.2,3.5,2.2,5.7,1.2
					c1-0.5,1.3-1.3,1.2-2.4C277.8,424.5,276.8,423.4,275.6,422z"/>
				<path d="M350,527.5c-1.5-1.2-3-1.9-4.8-1.1c-1.4,0.7-1.9,1.6-1.4,3.3c0.7,2.3,1.7,3.8,4.1,4.3c1.3,0.3,2.4,0.1,3.3-0.8
					c0.9-0.9,0.8-2,0.3-3.1C351,529.2,350.4,528.3,350,527.5z"/>
				<path d="M360.2,510.5c-1.2,1.2-0.7,4.8,0.8,6.4c1.2,1.2,5.1,1.3,6.3,0.1c1.3-1.2,0.9-3.9-0.7-5.6
					C364.8,509.7,361.5,509.2,360.2,510.5z M365,516.8c-0.3-2.2-1.4-3.6-3.7-3.6c-0.4,0-0.7-0.2-0.6-0.6c0.1-0.2,0.4-0.5,0.6-0.5
					c1.2,0,2.3,0.3,3.1,1.3C365.1,514.4,365.9,515.5,365,516.8z"/>
				<path d="M526.8,569.8c-0.5,0.7-1.3,1.6-1.7,2.7c-0.3,1.1-0.5,2.5,0.7,3c2,1,4.2,0.4,6.2-0.3c1.5-0.5,1.5-2.1,1.3-3.4
					c-0.1-1,0.8-2.1-0.2-3.1C531.3,566.9,529.3,567.2,526.8,569.8z M532.8,570.3c-3.7,0.6-3.7,0.6-4.3,4c-0.1,0.5-0.3,0.8-0.8,0.7
					c-0.6-0.2-0.9-0.9-0.7-1.3c0.3-1,0.8-2.1,1.6-2.8C529.7,569.8,530.9,569.1,532.8,570.3z"/>
				<path d="M488.7,608.4c-1.6,1.6-2,3.5-1,4.8c0.8,1,4.6,1.7,6,1c1.5-0.8,2-2,1.8-3.8c-0.1-1.6,0.6-3.5-1.5-4.1
					C491.8,605.6,490.2,607.1,488.7,608.4z M490.5,609.8c1.1-0.6,1.8-1.9,3.2-1.7c0.3,0,0.8,0,0.9,0.4c0.1,0.5-0.3,0.7-0.7,0.8
					c-1.9,0.2-3.1,1.3-3.7,3.1c-0.1,0.4-0.3,0.8-0.9,0.5c-0.5-0.3-0.4-0.6-0.2-1C489.6,611.1,490.1,610.4,490.5,609.8z"/>
				<path d="M457,601.2c-1.4-1.4-2.7-2.4-4.7-2.1c-0.9,0.2-1.5,0.6-1.8,1.3c-1.2,2.6,1.7,7,4.6,7.2c1.6,0.1,2.6-0.6,3.3-1.9
					c0.8-1.3,0.1-2.4-0.6-3.4C457.6,601.8,457.2,601.4,457,601.2z M451.9,602.2c1.8-0.6,4.6,1.2,4.7,2.9c0,0.5-0.1,1-0.6,1.2
					c-0.4,0.1-0.6-0.2-0.6-0.6C455.4,603.4,453.7,602.8,451.9,602.2z M451.7,600.5c2.4-0.9,4.6,0.2,5.2,2.9
					C455.6,601.3,453.9,600.8,451.7,600.5z"/>
				<path d="M544.6,619.3c0.9-0.6,1.4-0.4,1.7,0.7c0.3,1.2,1.4,2,2.4,2c1.3,0,2.3-1.3,2.7-2.3c0.2-0.6-0.6-1.7-1.3-2.4
					c-1.7-1.8-2.1-1.7-3.8,0.2C545.7,618,545.2,618.6,544.6,619.3z"/>
				<path d="M551.3,612.6c1-0.1,1.3,0.4,1.5,1.1c0.3,1.3,1.6,1.6,2.5,1.7c1,0.1,1.9-1,2.2-2c0.3-1.1-0.1-2-1-2.9
					c-1.5-1.3-2.6-1.3-3.7,0.3C552.3,611.5,551.9,612,551.3,612.6z"/>
				<path d="M562.4,601.3c-1.1,1.1-2.1,2.1-3.2,3.2c-1.3,1.3,0.4,2.2,0.3,3.4c1.2-0.1,2.1,1.7,3.5,0.3c1-1,1.1-3.4-0.2-4.1
					C560.8,603.1,561.9,602.4,562.4,601.3z"/>
				<path d="M474.9,631.4C474.9,631.4,474.8,631.4,474.9,631.4c0.7-2.4-0.7-4.5-1.4-6.6c-0.4-1.1-0.1-2.4-1.1-3.3
					c-0.7,0.5-0.8,1.4-0.5,2C473.1,626.1,472.9,629.2,474.9,631.4z"/>
				<path d="M408.6,547.5c5.1,5.1,10.3,10.3,15.4,15.4c0.1-0.1,0.1-0.1,0.2-0.2c-5.1-5.1-10.3-10.3-15.4-15.4
					C408.8,547.4,408.7,547.4,408.6,547.5z"/>
				<path d="M488.3,597.2c-2.9,2.9-5.8,5.8-8.7,8.7c0.1,0.1,0.2,0.2,0.2,0.2c2.9-2.9,5.8-5.8,8.7-8.7
					C488.4,597.3,488.4,597.3,488.3,597.2z"/>
				<path d="M434.8,573.5c-0.7-1.5-1.8-2.8-3.5-3.5C432.5,571.2,433.7,572.3,434.8,573.5z"/>
				<path d="M584.2,433.9c-1.6,1.9-3.3,3.7-4.9,5.6c-2.5,3-2.2,7.5,0.3,11.2c1.6,2.4,6.9,3.7,10.2,2.6c3.8-1.3,6.3-4.1,8.7-6.9
					c3.2-3.7,4.1-3.1-0.4-6.9c-3-2.6-5.8-5.6-8.6-8.4c-0.8-0.8-1.4-1.4-2.3,0c-0.7,1.1-1.9,2-2.9,3C584.3,434,584.3,434,584.2,433.9
					z M594.3,436.7C594.3,436.7,594.3,436.7,594.3,436.7c1.7,1.5,3.2,3.1,4.8,4.6c0.7,0.7,1,1.3,0.2,2.1c-2.1,2-4.1,4.1-6.3,6
					c-2.5,2.2-7.8,3-11.3-0.5c-2.4-2.3-2.5-6.9-0.2-10.3c1.7-2.5,3.9-4.5,6-6.6c0.8-0.8,1.4-0.9,2.2,0
					C591.1,433.7,592.7,435.2,594.3,436.7z"/>
				<path d="M410.8,283.9c1,1.4,2.6,1.7,4,2.2c1.2,0.5,3.5-1,3.4-2.3c-0.1-1.7-0.3-3.4-1-4.9c-0.2-0.4-0.5-1-1.2-1
					c-1.3,0-2.4-0.5-3.6-0.9c-1.8-0.6-3.9,1.5-3.5,3.5C409.2,281.8,409.7,283.1,410.8,283.9z"/>
				<path d="M597.4,457.4c-1.3-1.3-5.3-1.3-6.6,0c-0.5,0.5-0.5,1.1-0.6,1.7c-0.1,3.2,3,6.2,6.2,6c0.5,0,1-0.2,1.3-0.5
					C599,463.4,598.7,458.7,597.4,457.4z"/>
				<path d="M359.1,232.4c0.9,0.3,1.4,1.7,2.9,1.8c2.3,0.2,4.1-1.4,3.9-3.6c0-0.8,0-1.7-0.2-2.5c-0.6-2-1.8-2.5-4.9-1.8
					c-1.3,0.3-2.9,0.4-3.4,1.9C356.8,229.9,357.9,231.1,359.1,232.4z"/>
				<path d="M448.2,321.1c1.8,1.8,4.8,2.3,6,1c0.9-1,1.1-6.1-0.2-7.1c-1.1-0.8-6-1-6.9-0.2C445.8,316.2,446.3,319.3,448.2,321.1z
					 M453.2,320.3c-1.6,0-4.6-2.3-4.8-3.6c-0.1-0.6,0-1.2,0.6-1.4c0.5-0.2,0.6,0.3,0.6,0.6C449.4,318.5,451,319.6,453.2,320.3z"/>
				<path d="M501.7,373.5c0.7,0.5,1.1,1,1.7,1.3c2,1.2,4.1,0.3,4.5-2c0.2-1.3,0.4-2.6,0-3.9c-0.7-1.7-5.5-2.6-6.9-1.4
					c-1.5,1.3-1.6,2.6-0.5,4.4C500.8,372.5,501.4,373.1,501.7,373.5z M504.7,372c-1.6-0.6-2.5-1.5-2.9-2.8c-0.1-0.5-0.4-1,0.3-1.2
					c0.6-0.2,0.9,0.3,0.9,0.8C503.2,370,503.7,370.9,504.7,372z"/>
				<path d="M539.2,410.7c1.9,1.9,4.3,2.2,5.4,0.9c1.3-1.5,1.2-4.8-0.4-6.4c-1.1-1.1-5-1.4-6-0.5C536.8,406,537.2,408.6,539.2,410.7
					z M539.8,404.9c0.6,2.3,1.5,3.9,3.8,4.2c0.3,0,0.5,0.2,0.4,0.6c-0.1,0.3-0.3,0.5-0.6,0.5C541.8,410.3,539.3,407.1,539.8,404.9z"
					/>
				<path d="M280.4,294.8c-1.2,0.4-2,0.5-2.8-0.7c-0.7-1.1-0.4-1.7,0.5-2.5c1.2-1.1,2.2-2.3,3.3-3.4c0.7-0.7,1.3-1.4,2.4-0.4
					c1.1,1,0.7,1.8,0,2.6c-0.2,0.3-0.4,0.5-0.9,1.1c1.3-0.3,1.9-1.1,2.5-1.7c2-2.3,4.2-4.4,6.5-6.5c0.9-0.9,1.3-1.9,0.3-2.6
					c-1.1-0.7-1.9-3-3.8-1.2c-1.9,1.8-3.7,3.6-5.5,5.5c-4.3,4.6-8.7,9-13.4,13.2c-1.8,1.6-0.8,2.4,0.3,3.7c1.2,1.5,2.1,1.5,3.4,0.2
					C275.6,299.7,278,297.3,280.4,294.8z M285.9,283.8c0,0,0.5-0.4,1-0.8c0.5-0.5,1-1.3,1.9-0.4c0.7,0.8,1.2,1.4,0.3,2.4
					c-0.8,1-1.7,1.9-2.7,2.7c-1.1,0.9-1.6-0.2-2.2-0.7c-0.8-0.6-0.4-1.1,0.2-1.7C284.8,285,285.1,284.6,285.9,283.8z M273.9,295.9
					C274,295.9,274,295.9,273.9,295.9c0.5-0.3,0.9-0.7,1.2-1.1c0.7-1,1.3-0.5,1.9,0c0.6,0.6,1.1,1.2,0.4,2c-1,1.1-2.1,2.1-3.2,3.1
					c-0.6,0.6-1.2,0.5-1.8-0.2c-0.5-0.6-0.9-1.1-0.3-1.8C272.7,297.2,273.3,296.6,273.9,295.9z M270.5,301.2
					c-0.2-0.4-1.1-0.7-0.5-1.3c0.8-0.9,1.3,0.2,1.9,0.5c0.6,0.3,0.6,1,0.1,1.4C271.1,302.4,271,301.3,270.5,301.2z"/>
				<path d="M289.7,276.4c-3.4,0.6-5.3,2.5-6.8,5.3c-0.6,1.1-2.2,1.9-3.3,2.8c-4.3,3.5-7.9,7.7-12,11.4c-2.3,2.1-4.5,4.5-6.3,7.1
					c1.8-1.8,3.6-3.6,5.7-5.7c0.1,1.6-1.2,2-1.3,3.1C274.2,292.9,281.7,284.6,289.7,276.4z M270,295.3c0.6-1.9,2-2.9,3.6-3.6
					C272.5,292.9,271.2,294.1,270,295.3z"/>
				<path d="M294.8,302.6c-0.8-0.6-1.7-0.9-2.5-0.2c-0.6,0.6-0.6,1.4,0.1,2c0.8,0.7,1.6,0.8,2.4,0
					C295.5,303.9,295.3,303.2,294.8,302.6z"/>
				<path d="M303,315c0.7,0.6,1.2,0.5,1.8-0.1c0.7-0.7,0.8-1.6,0.2-2.2c-0.5-0.5-1.3-0.4-1.9,0.1C302.4,313.5,302.6,314.2,303,315z"
					/>
				<path d="M315.7,325c-0.6,0.5-1.2,1.1-0.4,1.8c0.7,0.6,1.5,0.3,2-0.2c0.6-0.5,0.9-1.3,0.3-2C316.8,323.8,316.3,324.5,315.7,325z"
					/>
				<path d="M293,347.2c-0.5,0.6-1.2,1.1-0.4,1.8c0.7,0.6,1.4,0.4,2.1-0.2c0.7-0.6,0.7-1.4,0.2-2C294.1,345.8,293.6,346.8,293,347.2
					z"/>
				<path d="M245.8,314c0.7,0.4,1.5,0.6,2.2-0.1c0.5-0.5,0.3-1.3-0.1-1.7c-0.7-0.6-1.5-0.6-2.2,0.1
					C245.2,312.8,245.3,313.4,245.8,314z"/>
				<path d="M197.5,356.2c3-0.3,6.1-0.3,9-1.3C203.4,354.6,200.4,355,197.5,356.2z"/>
				<path d="M298.7,308.3c-0.4,0.7-0.6,1.3,0.1,1.9c0.8,0.7,1.5,0,1.9-0.4c0.4-0.4,0.7-1.1,0-1.6
					C300.1,307.7,299.3,307.6,298.7,308.3z"/>
				<path d="M302.5,254.9c-0.8,0.6-0.5,1.4-0.2,2c0.3,0.5,1.1,0.6,1.6,0c0.5-0.6,1.2-1.4,0.4-2.2C303.9,254.4,303,254.3,302.5,254.9
					z"/>
				<path d="M345.3,258.9c-0.3,0.6-0.5,1.2,0,1.7c0.6,0.6,1.3,0.6,1.8,0.1c0.6-0.5,0.5-1.3,0.1-1.9
					C346.7,258.4,345.9,258.6,345.3,258.9z"/>
				<path d="M336.1,304c-0.6,0.6-0.9,1.3-0.2,1.8c0.6,0.5,1.4,0.2,1.8-0.3c0.5-0.5,0.9-1.2,0.2-1.8
					C337.3,303.1,336.7,303.6,336.1,304z"/>
				<path d="M275.8,365.6c-0.7-0.6-1.4-0.3-1.9,0.2c-0.5,0.4-0.9,1-0.3,1.6c0.5,0.6,1.3,0.6,1.8,0.1
					C275.9,367,276.1,366.3,275.8,365.6z"/>
				<path d="M328.3,241.4c-0.4-0.4-1-0.3-1.5,0.2c-0.5,0.5-0.7,1.2-0.1,1.8c0.6,0.6,1.2,0.6,1.8,0
					C329.1,242.8,329.1,242.1,328.3,241.4z"/>
				<path d="M264,293.5c-0.5,0.6-0.9,1.1-0.1,1.7c0.7,0.6,1.3,0.4,1.8-0.1c0.5-0.5,0.7-1,0.1-1.6C265.2,293.1,264.6,292.7,264,293.5
					z"/>
				<path d="M356,285.4c0.6,0.5,1.2,0.5,1.6,0c0.4-0.6,1-1.4,0.4-2c-0.4-0.4-1.3-0.7-1.9-0.1C355.6,283.9,355.5,284.7,356,285.4z"/>
				<path d="M265.9,373.7c-0.4,0.7-0.2,1.1,0.3,1.6c0.6,0.6,1.1,0.7,1.6,0.1c0.5-0.6,0.5-1.4-0.2-1.8
					C267.1,373.3,266.5,373.3,265.9,373.7z"/>
				<path d="M363.6,276c-0.5,0.6-0.2,1.3,0.1,1.7c0.4,0.6,1.2,0.7,1.8,0.1c0.6-0.5,0.2-1.2-0.2-1.7C365,275.7,364.3,275.7,363.6,276
					z"/>
				<path d="M209.2,352.4c0.5,0.3,1,0.5,1.4-0.1c0.4-0.6,0.7-1.3,0-1.9c-0.5-0.5-1-0.4-1.4,0.2C208.8,351.1,208.5,351.8,209.2,352.4
					z"/>
				<path d="M308.2,257.8c-2.2,1.3-3.6,3.3-5.2,5.2C304.7,261.3,306.4,259.5,308.2,257.8z"/>
				<path d="M511.3,438.6c-1.8,1.6-1.3,4.9,1,7.2c1.1,1.1,2.4,2,4.1,1.4c1.7-0.6,1.8-2.1,1.9-3.6c0.1-1.6,0.2-3.3-1.6-4.1
					c-0.2-0.1-0.7-0.3-0.7-0.3c0.4-2-0.3-4.1-0.1-6.1c0-0.2,0.4-0.4,0.6-0.6c2.8-1.5,3.1-2.7,1.4-5.4c-0.7-1.1-1.1-2.5-2.7-3
					c-1.1-0.4-1.8-1-3.1-0.1c-0.9,0.6-2,0.2-2.7-1.1c-3.4-6.1-6.7-12.3-9.9-18.4c-3.9-7.4-8-14.7-11.7-22.2
					c-1.1-2.2-2.3-4.1-4.9-4.4c-0.7-0.1-0.9-0.8-1.2-1.3c-0.7-1.5-2.1-2.2-3.4-2.8c-0.9-0.4-2.2-0.4-3.1,0.6c-1,1.1-1.1,2.5-0.7,3.9
					c1,3.3,2.7,4.4,6.2,4.2c1.8-0.1,4.6,2.5,4.5,4.4c0,1.2,0.2,2.1,1.4,2.4c0.6,0.2,0.9,0.7,1.2,1.1c2.4,4.2,5.3,8.2,6.9,12.7
					c0.9,2.5,3.2,4,3.8,6.6c0.2,0.7,0.6,1.4,0.6,2.2c0.1,0.9,0.1,1.8,1.3,2c0.4,0.1,0.8,0.6,1,1c3.2,7.2,7.2,13.8,10.8,20.8
					C512.7,436.8,512.4,437.8,511.3,438.6z M512.5,432.9c-9.3-16-17.9-32.3-25.9-49c2.4,3.8,4.8,7.5,6.8,11.5
					c2.6,5.5,5.6,10.9,8.5,16.3c3.6,6.7,7.1,13.4,10.7,20.1C512.8,432.3,512.8,432.6,512.5,432.9c2.6,2,3,3.4,1.1,5.9
					C514.4,436.2,513.1,434.7,512.5,432.9z M516.5,445.6c-2.5-0.6-3-2.2-3.4-3.9C513.9,443,515,444.1,516.5,445.6z"/>
				<path d="M529,447.9c-1.2-1.2-4-1.4-5.3-0.4c-0.9,0.8-0.4,2.7,1,3.2c1.7,0.5,2.2,1.4,1.7,3.1c-0.3,1.1,0.3,2.9,1.1,2.7
					c1.2-0.3,3.1,0.3,3.7-1.6C531.9,452.9,531,449.9,529,447.9z"/>
				<path d="M473.7,359.2c-0.7-0.4-1.5-1-2.3-1.2c-1-0.2-1.3,0.6-1,1.5c0.2,0.5,0.6,0.9,1.1,1.2c1.3,1,2.5,1.8,1.7,3.9
					c-0.3,0.8,0.3,1.8,1.4,2c1,0.1,1-0.7,1.3-1.4C477.1,362.3,474.6,361.1,473.7,359.2z"/>
				<path d="M506.4,403.2c0.5,0.9,1.5,1.8,1,3.3c-0.2,0.8,0.3,1.6,1,1.8c0.9,0.3,1-0.7,1.2-1.3c0.6-1.7-0.1-4.6-1.9-5.8
					c-0.9-0.6-2-2.6-3.2-1.2C503.3,401.4,505.4,402.1,506.4,403.2z"/>
				<path d="M492.9,379.4c1.2,0.8,2.5,1.6,1.8,3.7c-0.2,0.5,0.5,1.4,1.1,1.8c0.4,0.2,0.6-0.1,0.8-0.4c0.7-0.9,1.3-2.1,0.8-3.1
					c-0.8-1.9-2-3.6-3.8-4.7c-0.4-0.3-1.1-0.5-1.5,0.1C491.6,377.8,492.2,378.6,492.9,379.4z"/>
				<path d="M561.3,534c-0.9,1.1-2.1,2.4-1.2,4.2c0.8,1.7,2.7,2.4,5.1,1.8c1.7-0.5,2.9-1.6,2.3-3.5c-0.3-1.2,1.1-2.3-0.2-3.5
					C565.7,531.6,563.5,531.7,561.3,534z"/>
				<path d="M431.3,520.3c-1.5,1.8-2.7,2-5.5,0.6c-6.3-3.2-12.4-6.7-18.4-10.3c-0.7-0.4-1.4-0.9-1.7-1.7c-0.4-0.9-1.3-1.3-2.2-1.2
					c-0.9,0.1-1.7-0.2-2.3-0.7c-5.4-3.9-11.7-6.2-17.1-10c-2.1-1.5-4.5-2.3-6.6-3.6c-1.3-0.8-2.7-1.8-2.4-4c0.2-1.6-0.9-3.3-2.4-4.1
					c-1.8-0.9-3.7-1.8-5.7-0.7c-0.9,0.5-1.5,1.3-1.2,2.4c0.5,1.8,0.7,3.8,2.9,4.4c0.2,0.1,0.4,0.2,0.5,0.3c2.4,4.5,7.4,5.4,11.3,7.8
					c5.5,3.5,11.3,6.6,17,9.8c5.8,3.3,11.7,6.6,17.5,9.9c1,0.6,2.7,1,0.8,2.7c-0.9,0.7,0.2,1.6,0.6,2.4c1,1.9,5.7,3.9,7.7,3.2
					c0.3-0.1,0.8-0.3,0.8-0.5c0.1-2.4,1.5-1.1,2.3-0.8c1.5,0.6,2.9,1.3,4.4,0c0.5-0.4,1,0.1,1.5,0.3c1.9,0.6,3.8,1.1,5.8,0.2
					c2.2-1.1,2.7-2.9,1.2-4.7c-1.6-2.1-3.7-3.3-6.5-3C432.5,518.9,431.9,519.6,431.3,520.3z M430.9,523.3c-0.6,2.2-1.7,2.6-3.2,1.4
					c-2.4-1.9-5.3-2.9-7.9-4.3c-6-3.1-11.7-6.6-17.6-9.8c-6.5-3.5-12.8-7.3-19.2-11c-3-1.8-6.1-3.6-9.1-5.4c2.4,0.1,4.3,1.4,6.3,2.5
					c6.3,3.5,12.5,7,18.7,10.6c5.1,2.9,10.3,5.7,15.3,8.6c4,2.3,8,4.8,12,7.1C427.4,523.7,428.9,524.8,430.9,523.3z M433.3,521.8
					c1.9-0.7,4.9,0.8,5.2,2.7c0.1,0.6,0,1.4-0.7,1.6c-0.9,0.2-0.7-0.7-0.7-1.1c-0.2-1-0.9-1.5-1.7-1.9
					C434.7,522.5,433.7,522.6,433.3,521.8z"/>
				<path d="M440.3,537.5c1.9,2.2,4.5,2.4,7.1,2.8c0.2,0,0.5-0.1,0.7-0.2c-0.6-1.4,0.7-1.9,1.2-2.9c0.6-1.2-0.6-1.7-1.5-1.7
					c-2.1-0.1-3.6-0.7-4.7-2.7c-0.8-1.3-2.3-1-2.8,0.5c-0.1,0.2,0,0.6-0.1,0.8C439,535.9,439,536.3,440.3,537.5z"/>
				<path d="M352,482.5c1.7,1,3.2,2.7,5.3,2.8c1,0,2.7,0,2.6-1.3c-0.1-1.1-1.5-2-2.7-1.7c-1.6,0.4-2.4-0.5-3-1.5
					c-0.5-0.9-1.1-1.4-2-1.5c-0.5-0.1-0.8,0.2-1,0.6C350.8,481,351.7,481.7,352,482.5z"/>
				<path d="M392.3,516.7c2.1,1.6,4.1,3.1,6.9,2.9c0.4,0,0.8-0.1,1.1-0.4c0.3-0.5,0.1-0.9-0.3-1.3c-0.6-0.6-1.2-1.1-2.2-1
					c-1.6,0.2-2.7-0.6-3.6-1.9c-0.2-0.4-0.6-0.8-1-1.1c-0.6-0.4-1.1-0.8-1.8-0.1c-0.7,0.6-0.5,1.2,0,1.8
					C391.8,515.9,392.1,516.4,392.3,516.7z"/>
				<path d="M522.2,544.1c0.3-2.2-0.2-4.4,0.7-6.6c1.4-3.4,3.3-6.1,7.1-6.9c0.8-0.2,1.6-0.4,2.4-0.6c-4.5-0.3-9,3-10.1,7.4
					c-0.4,1.7-0.9,3.4-0.7,5.3C521.6,543.3,521.8,543.7,522.2,544.1z"/>
				<path d="M636,503.5c1.5-0.8,0.9-2.3,0.6-3.6c-0.3-1.2-1.4-1.4-2.5-1.3c-0.7,0.1-1.2-0.1-1.6-0.6c-1.5-1.8-3.9-2.7-4.2-5.5
					c-0.2-1.4-3.1-2.8-4.4-2.5c-1.9,0.5-2.7,1.9-2.5,4c0.3,2.3,1,3,3.5,3.1c0.6,0,0.9,0.3,1.2,0.6c1.5,1.7,3.8,2.8,4.4,5.5
					C631,505.5,633.9,505.6,636,503.5z M628.4,498.1c-0.1,0.1-0.1,0.1-0.2,0.2c-1.2-1.2-2.4-2.4-3.5-3.5c-0.5-0.5-0.8-1-0.2-1.6
					c0.6-0.6,1-0.5,1.6,0c2.5,2.4,5.4,4.5,7.5,7.3c0.4,0.5,1.3,1,0.5,1.7c-0.6,0.6-1.3,0.1-1.8-0.4
					C630.9,500.7,629.7,499.4,628.4,498.1z"/>
				<path d="M614.6,512.5c-0.9,0.1-2,1.5-2.2-0.4c0-0.5-0.9-0.6-1.5-0.5c-0.5,0.1-0.9,0.5-0.7,1.1c0.1,0.5,0.2,1-0.5,1.1
					c-0.9,0.1-1.7-0.2-2.3-0.8c-0.5-0.5-0.1-0.8,0.3-1.1c0.5-0.4,0.6-1,0.2-1.5c-0.4-0.5-1-0.6-1.5-0.4c-0.6,0.2-1.1,0.5-1.2-0.4
					c-0.1-0.6-0.2-1.1,0.8-1.2c1.3-0.1,1.6-1,0.6-2c-0.5-0.6-0.4-1,0-1.4c0.4-0.5,0.9-0.6,1.4-0.1c0.6,0.6,1.4,0.8,2.1,0.3
					c0.6-0.4,0.2-1-0.1-1.5c-0.5-1-1.3-0.6-2-0.3c-2.6,0.9-3.8,2.5-3.9,5.2c-0.1,2.5,1.4,4.7,3.5,5.5
					C610.3,515.1,612.6,514.6,614.6,512.5z"/>
				<path d="M638,488.8c-4.9-1.7-9.9-2.8-14.9-3.8C628,486.9,633,488.1,638,488.8z"/>
				<path d="M616,506.2c-0.2,0.4-0.7,0.5-0.6,1c0.2,1.2,0.8,2.5-1.4,1.6c-0.4-0.2-0.7,0.3-0.9,0.7c-0.1,0.5,0,0.8,0.4,1.1
					c0.6,0.4,1.1,0.7,1.8,1C616.4,510,616.5,508.1,616,506.2L616,506.2z"/>
				<path d="M616,506.2c-0.8-1.5-1.8-2.8-3.9-2.8c0.2,0.7,0.2,1.3-0.1,2c-0.2,0.4,0.1,1,0.6,1.2c0.3,0.1,1,0.1,1,0
					C614.1,504.2,615.3,506.6,616,506.2C616,506.2,616,506.2,616,506.2z"/>
				<path d="M539.7,671.8c-0.8,0.2-0.9,0.8-1.3,1.1c-0.8,0.7-1.7,1.3-2.6,0c-0.9-1.3-1.6-0.8-2.5,0.1c-1.4,1.5-2.9,3-4.4,4.4
					c-0.7,0.7-1,1.3-0.3,2.1c1,1.1,0.5,2-0.3,2.9c-1.7,1.9-3.4,3.9-4.9,6.1c1.8-1.8,3.6-3.6,5.4-5.4c1-1.1,2-1.4,3.1-0.2
					c0.9,0.9,1.4,0.9,2.3-0.2c1-1.4,2.5-2.4,3.6-3.8c0.7-1,1.5-2.2,0.4-3.5c-0.6-0.7-0.5-1.2,0.1-1.8
					C538.9,673.3,539.4,672.7,539.7,671.8z"/>
				<path d="M535.4,643.3c-0.5-0.5-1.1-0.4-1.5,0c-0.5,0.5-1,1.1-0.4,1.8c0.5,0.7,1.2,0.7,1.8,0.2
					C536.1,644.8,535.5,644,535.4,643.3z"/>
				<path d="M510.4,667.1c-0.3,0.8-0.3,1.5,0.3,2c0.5,0.5,1.1,0.3,1.4-0.1c0.5-0.5,0.6-1.3,0-1.8C511.6,666.7,511,667,510.4,667.1z"
					/>
				<path d="M499.2,679.5c-0.4,0.7-0.1,1.3,0.3,1.7c0.4,0.5,1,0.4,1.4-0.2c0.4-0.5,0.5-1,0-1.5C500.4,679.2,499.8,679.2,499.2,679.5
					z"/>
				<path d="M522.3,656.1c-0.4,0.5-0.4,1,0,1.5c0.4,0.5,1,0.6,1.4,0.1c0.5-0.5,0.4-1.1-0.2-1.6C523.2,655.7,522.8,655.7,522.3,656.1
					z"/>
				<path d="M688.9,552.5c-2.3,2.3-4.5,4.5-7.2,7.2C684.8,557.5,686.9,555.1,688.9,552.5z"/>
				<path d="M636,540c-0.2,0.7-0.5,1.5,0.2,2.1c0.4,0.4,1,0.5,1.4-0.1c0.4-0.6,0.7-1.2,0.1-1.9C637.1,539.5,636.6,539.7,636,540z"/>
				<path d="M658.7,517.2c-0.6,0.4-0.2,1,0.1,1.4c0.4,0.7,1,0.6,1.6,0.1c0.5-0.4,0.6-0.9,0.1-1.4
					C659.9,516.7,659.3,516.8,658.7,517.2z"/>
				<path d="M349.5,405c-0.5,0.3-0.6,0.9-0.8,1.4c-1.5,4.3-2.4,8.8-3.4,13.3c-0.3,1.1,0.3,1.7,1.3,2c1,0.4,1.5-0.2,1.8-1.1
					c1.3-3.4,1.7-6.9,2.7-10.4c0.4-1.4,0.9-2.9,0.8-4.4c0-0.7-0.3-1.1-0.9-1.5C350.3,404,349.9,404.6,349.5,405z"/>
				<path d="M396.5,358.9c-0.5,0.5-0.5,1-0.2,1.5c0.3,0.6,0.7,1.2,1.6,1c4.9-1.2,9.8-2.3,14.7-3.5c0.8-0.2,1.4-0.9,1.2-1.9
					c-0.2-1.1-1.1-1.3-1.9-1.1c-5,1.2-10.1,2.6-15.1,3.9C396.8,358.8,396.7,358.8,396.5,358.9z"/>
				<path d="M367.1,279.6c-0.3,0.5-0.6,1,0,1.6c0.4,0.4,0.9,0.7,1.4,0.2c0.5-0.5,1-1.1,0.4-1.8C368.4,279.2,367.7,279.2,367.1,279.6
					z"/>
				<path d="M386.7,298.3c-0.4,0.4-0.5,0.9,0,1.4c0.6,0.6,1.3,0.4,1.8-0.1c0.5-0.5,0.3-1.2-0.2-1.7
					C387.7,297.4,387.2,297.7,386.7,298.3z"/>
				<path d="M273.2,378.4c-0.7-0.4-1.5-0.2-2.1,0.2c-0.7,0.4-0.6,1.3-0.1,1.8c0.6,0.7,1.4,0.3,2-0.1
					C273.7,379.8,273.5,379.1,273.2,378.4z"/>
				<path d="M278.2,372.3c0.4,0.5,1.1,0.4,1.6,0.1c0.6-0.4,0.2-1-0.1-1.4c-0.5-0.7-1.1-0.3-1.6,0.1
					C277.5,371.4,277.7,371.9,278.2,372.3z"/>
				<path d="M491.5,427.8c0.7,0.8,1.5,0.8,2.2,0.3c0.7-0.5,0.9-1.3,0.3-2.2c-1.9-3.2-3.7-6.4-5.6-9.7c-0.6-1-1.2-1.9-1.7-2.8
					c-0.5-0.9-1-1.8-2.2-1.1c-1.1,0.7-0.9,1.7-0.4,2.7c0.8,1.5,1.6,3,2.5,4.5C488.2,422.4,489.9,425.1,491.5,427.8z"/>
				<path d="M447.7,503.9c-1.6,1.6-3.2,3.1-4.7,4.7c-0.6,0.6-1.3,1.2-0.4,2.1c0.8,0.9,1.7,0.6,2.4-0.1c3.2-3.2,6.5-6.5,9.6-9.7
					c0.6-0.6,1.4-1.5,0.3-2.3c-1-0.8-1.8-0.2-2.5,0.5C450.8,500.7,449.2,502.3,447.7,503.9C447.7,503.9,447.7,503.9,447.7,503.9z"/>
				<path d="M496.9,457.7c1.5-1.8,3.4-3.2,4.8-5.2c0.5-0.7,1.1-1.4,0.1-2.1c-0.8-0.6-1.6-0.4-2.2,0.2c-0.4,0.4-0.7,0.8-1.1,1.2
					c-2.4,2.8-4.9,5.5-7.8,8c-0.5,0.4-0.9,0.9-1.2,1.4c-0.3,0.6-0.4,1.2,0.2,1.7c0.5,0.4,1,0.2,1.5,0c1.2-0.5,1.9-1.5,2.8-2.4
					C495,459.5,496,458.6,496.9,457.7z"/>
				<path d="M403.8,496.7c2.4,1.4,4.8,2.9,7.4,4.2c1.2,0.6,2.4,1.4,3.5,2.1c0.6,0.4,1.2,0.7,1.9,0.8c0.9,0.2,1.8,0.4,2.2-0.8
					c0.4-1.1-0.1-1.8-1-2.2c-4.3-1.9-8.3-4.4-12.4-6.6c-0.6-0.3-1.5-1.2-2.2-0.2C402.5,494.9,402.8,495.8,403.8,496.7z"/>
				<path d="M334.3,313.9c-1.2,1.2-2.4,2.4-3.6,3.6c-0.7,0.7-1.2,1.5-0.3,2.3c0.9,0.8,1.4-0.1,1.9-0.6c2.1-2,4.1-4.1,6.2-6.2
					c0.2-0.2,0.5-0.5,0.6-0.8c0.3-0.7,1.2-1.5,0.3-2.2c-0.9-0.7-1.5,0.2-2.1,0.7C336.3,311.7,335.3,312.8,334.3,313.9
					C334.2,313.8,334.3,313.9,334.3,313.9z"/>
				<path d="M317.9,330.1c-0.3,0.6-0.3,1.3,0.1,1.7c0.4,0.4,1.1,0.1,1.5-0.3c0.4-0.5,0.6-1.2,0-1.7
					C319,329.5,318.4,329.8,317.9,330.1z"/>
				<path d="M321,326.9c-0.3,0.5-0.4,1.1,0,1.5c0.4,0.5,1,0.5,1.5,0.1c0.6-0.4,0.5-1.1,0.1-1.6C322.1,326.5,321.5,326.7,321,326.9z"
					/>
				<path d="M355.3,238.4c-0.8-0.7-1.5-1.4-2.4-2c-0.9-0.6-1.7-0.3-2.4,0.4c-0.7,0.7-1,1.6-0.3,2.4c1,1.3,2.1,2.5,3.3,3.7
					c1,1,2.4,1.3,3.3,0.1c0.9-1.1,0.9-2.6-0.3-3.7C356,239,355.6,238.7,355.3,238.4C355.3,238.4,355.3,238.4,355.3,238.4z
					 M354.4,239.2c0.4,0.9,2.5,1.7,1.2,2.9c-1.2,1.1-2-0.8-2.7-1.7c-0.7-0.8-2.1-2-1.4-2.7C352.5,236.8,353.4,238.5,354.4,239.2z"/>
				<path d="M593.6,437.2c-0.8-0.7-1.7-1.2-2.3-2.1c-1.3-2.2-2.5-1.5-3.9-0.1c-1.5,1.5-3.1,3-4.6,4.6c-2.3,2.5-2.8,6.4,0.8,9.5
					c2.3,1.9,6.7,1.4,8.8-1.1c1.4-1.7,2.9-3.4,4.5-4.9c1-1,1-1.7,0-2.6C595.8,439.5,594.8,438.3,593.6,437.2
					C593.6,437.2,593.6,437.2,593.6,437.2z M587,444.6c2.1,1.1,4.7,0.5,5.5-1.2c0.9-1.9-0.6-3.9-3.8-5.1c1.6-0.7,3.6-0.1,4.5,1.5
					c1.3,2.1,1,3.7-1,5.3C590.2,446.7,588.8,446.6,587,444.6z M585,447.2c-0.5-0.4-0.7-0.9-0.7-1.4c0-0.4-0.8-0.9-0.1-1.3
					c0.6-0.4,0.8,0.3,1.1,0.6c0.6,0.5,1.1,1,1.7,1.5c0.4,0.3,1,0.4,0.7,1c-0.3,0.6-0.8,0.3-1.3,0.3
					C585.8,447.9,585.4,447.6,585,447.2z"/>
			</g>
			<g>
				
					<rect x="430.9" y="67.9" transform="matrix(0.7071 -0.7071 0.7071 0.7071 -104.6458 483.1862)" fill="none" width="200" height="600"/>
				<path d="M524.8,296.7c8.2-8.2,19-18.6,25.5-24.6l-0.4-0.4c-13.5,9.1-32.6,21.2-51.8,32.6l-12.3-12.3c11.8-17.9,24-37,33.7-50.7
					l-0.5-0.5c-5.8,6.6-15.7,17.2-24.8,26.2l-16.7,16.7l-13.7-13.7l52.6-52.6l22.2,22.2c-8,13.2-20.4,31.7-27,40.6l0.3,0.3
					c9.8-7.1,27.3-17.6,41.8-25.9l21.6,21.6l-52.6,52.6l-14.8-14.8L524.8,296.7z"/>
				<path d="M578.6,333.6L567,345.2l-22.5-22.5l11.6-11.6L578.6,333.6z"/>
				<path d="M565.7,371.9l35.3-35.3c-2.8-1.7-6.4-4.8-8.3-6.7l9.7-9.7c5.9,4.5,12.7,6.1,18.3,5.9l10.5,10.5L580.8,387L565.7,371.9z"
					/>
				<path d="M657,412.3c-14.3,14.3-31.6,21.3-47.5,5.3c-15.7-15.7-9.1-33,5.1-47.1c13.8-13.8,31.7-20.7,47.4-5
					C676.9,380.5,671.6,397.6,657,412.3z M629.9,385.5c-10.5,10.5-15.1,16.8-10,21.9c5,5,11,0.4,21.6-10.2
					c10.9-10.9,14.8-16.5,10-21.3C647,371.3,641.4,374,629.9,385.5z"/>
			</g>
		</g>
		
			<rect id="_x35__x2F_8_x22__1000x1000_00000041267157045818894280000012992695835220978827_" x="-0.2" y="0.2" fill="none" width="1000" height="1000"/>
		<g>
			<rect x="99.6" y="599.8" fill="none" width="400.2" height="300"/>
			<path d="M202,757.6v22.9c-22.5,31.9-44.6,78-50.1,119.2h-31.8c5.6-41.8,31.1-91.9,50.4-116.7h-66.9v-25.4H202z"/>
			<path d="M314.3,782.8h-56.9c-0.9,7.6-3.4,21.2-4.3,27.1c5.3-4.4,13.4-7.6,25.6-7.6c28,0,43.8,20.2,43.8,47.3
				c0,27.5-15,52.7-53.4,52.7c-28.1,0-48.8-14.4-51.9-39.8H248c2.7,9.8,9.6,16.1,21.7,16.1c14.7,0,21.7-10.8,21.7-26.5
				c0-14.8-5.5-25.4-21.8-25.4c-13.2,0-18.6,5.7-21.8,14.2l-27.9-3.6c3.8-18.1,9.9-60.2,12.2-79.8h86.6L314.3,782.8z"/>
		</g>
		<g>
			<rect x="600" y="100.1" fill="none" width="300" height="300"/>
			<path d="M725.3,257.8V151.5c-6.6,3.1-18.6,5.6-25.7,6.2v-23.1c13.5-2.5,27.1-10.1,35.2-19.1h21.8v142.3H725.3z"/>
			<path d="M782.5,216.9c0-18.2,12.7-29.3,23.2-34c-10.9-6.8-17.6-15.3-17.6-29.7c0-24.1,17.7-40.1,49.7-40.1
				c29.2,0,48.5,15.2,48.5,39.7c0,16.4-8.4,24.4-18.1,28.5c10.2,3.8,23.2,15.8,23.2,34.6c0,29.3-23.4,44.5-55.8,44.5
				C806.5,260.4,782.5,245,782.5,216.9z M860.5,215.5c0-14.1-9.7-20.6-23.6-20.6c-15.5,0-23.4,8.4-23.4,20.4c0,12.6,9.5,21,23.9,21
				C850.8,236.4,860.5,230,860.5,215.5z M817.6,154.3c0,9.6,6.9,16.1,19.9,16.1c12.6,0,19.5-4.9,19.5-16c0-10.8-7.1-17.4-19.8-17.4
				C824.2,136.9,817.6,143,817.6,154.3z"/>
		</g>
		<g>
			<rect x="599.4" y="600.4" fill="none" width="300" height="300"/>
			<path d="M705.1,842.8v22.4h-50.1v-22.4H705.1z"/>
			<path d="M721.1,909.5l49.8-135.1h21.4l-49.6,135.1H721.1z"/>
			<path d="M864.4,810.7c-1.5-5.8-4.8-11.4-15.1-11.4c-15.9,0-20,14.9-20.7,30.8c5-6.1,13.4-11,26.8-11c21.7,0,37.1,16,37.1,39.3
				c0,25.3-16.2,44.1-43.5,44.1c-34.4,0-45.8-26.5-45.8-59.9c0-30.8,10.9-62.8,47.2-62.8c25.7,0,37.7,16.1,38.9,31H864.4z
				 M866.7,860.5c0-11.3-4.2-21.4-18.4-21.4c-11.5,0-18.3,6.7-18.3,20.5c0,9.6,4.6,22.3,18.3,22.3
				C860.9,882,866.7,872.5,866.7,860.5z"/>
		</g>
		<g>
			<rect x="99.6" y="500" fill="none" width="200.4" height="200.3"/>
			<path d="M157.5,665.8v-1.6c0-20.6,9.3-37.4,34.9-56.1c16.7-12.2,21.8-16.4,21.8-26.8c0-10.3-5-16-15-16
				c-11.6,0-15.8,7.1-17.4,17.4h-24.9c1.7-20.4,15.1-37.5,42.3-37.5c30.4,0,40.9,18.1,40.9,35.9c0,17.2-7.4,25.6-29.2,40.9
				c-14.6,10.3-20.5,17-22.5,22.3h56.1l-3.2,21.5H157.5z"/>
		</g>
		<path d="M200,705c-57.9,0-105-47.1-105-105s47.1-105,105-105s105,47.1,105,105S257.9,705,200,705z M200,505c-52.4,0-95,42.6-95,95
			s42.6,95,95,95s95-42.6,95-95S252.4,505,200,505z"/>
	</g>
</g>
<g id="scratch" display="none">
</g>
<g id="smoke_00000160174021868582459990000000792620422660026007_">
</g>
</svg>
