<svg xmlns="http://www.w3.org/2000/svg" xml:space="preserve" baseProfile="tiny" overflow="visible" version="1.2" viewBox="0 0 1000 1000"><path fill="none" d="M0 0h1000v1000H0z"/><path fill="none" d="M100 99.9h800.1v300H100z"/><path d="m162 257.6-37.9-148.9h34.3c14 68.4 20.3 98.8 22.1 115.2h.2c5.7-27.4 20-79.2 28.7-115.2h28.9c7.7 28.6 22.7 86.4 27.6 113.6h.2c4.9-32.8 19.6-90.5 24.8-113.6h31.3l-40.3 148.9h-33.4c-7.8-33-20.9-81.1-26.2-106.6h-.2c-5.4 26.5-18.8 76.6-26.8 106.6H162zM372.9 198v59.6h-31.5v-149h65.4c32.5 0 50 17.9 50 40.9 0 20-10.9 30.8-21.6 35.2 7.4 2.7 18.5 10.4 18.5 37.1v7.4c0 10 .1 21.4 2.1 28.4h-30.5c-2.6-6.5-3.1-17.6-3.1-33.4V222c0-16.3-4.1-24-28.1-24h-21.2zm0-25.7h27c17.6 0 24.4-6.7 24.4-19.2 0-12.1-7.9-18.9-23.7-18.9h-27.8v38.1zM587.9 193.3h-71.2v37.8h78.6l-3.8 26.4h-106V108.6h105.6V135h-74.3v31.9H588v26.4zM747.1 211.7c-6 27.8-26.9 48-64.2 48-47.2 0-69.5-33.4-69.5-75.8 0-40.8 23-77.4 71.1-77.4 39.7 0 58.9 23.3 62.5 48.2h-32.2c-3.1-11.5-11.1-22.9-31.3-22.9-26.6 0-36.8 23.9-36.8 51 0 25.2 8.9 51.7 37.7 51.7 21 0 27.6-14.1 30.5-22.8h32.2zM771.9 108.6h31.8v66.5c9.8-11.5 40.5-45 59.3-66.5h38.6l-59.8 61.9 62 87h-38.6l-45.7-66.2-15.7 15v51.1H772V108.6zM451.6 752.7c3.8-36 170.8-147.3 159-181.1-4-3 4-11.1 7.3-8.1 41.9 7.7-150.8 166.5-166.3 189.2zM373.3 729.8c-25-21.8-48.7-47.2-71.5-71.9 8-11.8 51.6 51.3 67.3 60.4 5.5 9.1 11.6-4.7 16.6-8.7 14.5-3-7.7 18.2-12.4 20.2zM432 594.9c-21.4-14.1-37.7-37.4-57.5-54.7-11-11.3 33-51.8 7.4-11.4-8 14 21 26.2 28.6 38.8 11.6 9.8 19.6 29.2 34.3 13.2 23.1-11.3-4.3 14.2-12.8 14.1zM424.7 726.3c-.4-21.1 41-43.7 55.2-64 78.8-73.8-32.6 45-55.2 64zM475.7 510.5c-14.3-13.8.9-49.6-18.8-57.1 3.2-5.6 20.6-1.1 19.2 5.9-2.2 14.9 13 42.9-.4 51.2zM347.9 473.2c-6.5-3.1-12.4-9.9-6.1-15.4 2.3 0 50.3-55.6 53.1-48.8 6.7 2.9-46.7 48.6-46.7 50.9 5.8 3.7 8.2 11.5-.3 13.3zM347.9 644.8c-15-14.7-51.3-40.7-53.5-58.4 16.9 11.8 31.8 31.3 47.6 46.1 17.7 12.4 36.8-42.2 57.4-42.7-10.2 19.2-34.9 38.4-51.5 55z"/><path d="M488.6 627.6c-34.8-24.3-25.7-52.4-66.5-16.2-.1-10.8 24.6-34 36.1-21.4-.2 3.1 43.4 35.6 30.4 37.6zM432.4 727.6c-3.8-14.8 35.5-36.8 48.4-55.3 11.8-6.3 24.1-36.1 36.9-29.4-25.2 26-59.5 62.4-85.3 84.7zM411.2 708.6c-21.9-20.4-48.6-43.2-66-66.8 16.8.6 39.1 38.2 56.5 50.2 1.3 2.7 19.6 14.6 9.5 16.6z"/><path d="M428.1 606.2c-3.2-2.8-80.1-73.1-75.8-78.7 4.8-2.8 86.5 76.8 75.8 78.7zM411 384.8c-9.4-4.9 6.4-13.5 9.2-18 18.7-13.6 36-46.3 56.2-50.1-17 23.7-45.8 45.8-65.4 68.1zm63.9-64.2zM492.3 455.9c-8.8-10.5-6.4-33.6-11.5-46.7 7.8-5.2 17.2-26.3 26.8-15.2 5.1 6-28.1 7.5-17.7 25.3-2.6 11 13.4 36 2.4 36.6zM650.1 547.9c-7.7-10.2 5.1-30.8 5.1-44.2-3.5-2.8-14.7-4.4-12.3-10.5 7.5-11.8 6.4 5.1 17 6.2 1.4 13.4-3.4 37.1-9.8 48.5z"/><path d="M292 595.2c-5.7-12.7 26.9-29.4 34.6-42.3 64.2-61.8-13.9 28.5-34.6 42.3zM254.8 623.4c-10.6-7.3-24.4-24.2-34.1-32.8-15.2-8.1 37.4-44.4 21.1-23.7-31.6 22.1-4 28.7 12.9 49.3 28-30.8 20.3-4.8.1 7.2zM683 429c-28.4-16.3-33.8-46 0-6 8.9-8.3 18.1-17.6 26.6-26.5-1.4-2-4.9-4.5-2.2-7 24.2 2.3-16.1 35.3-24.4 39.5zM459 549.5c-5.6-2.2-53.4-47.9-33-39.5 7.4 11.9 38.7 28.3 33 39.5zM268.5 539.5c-8.9-3.5 5.4-11.9 7.9-15.7 12.3-7.3 26.5-37.9 39.1-32.8-13 16.6-31.5 33.8-47 48.5zM509.4 640.6c-1.7-1.4-44.6-38.4-39.6-42.6 3.8-3.1 54.9 40.6 39.6 42.6z"/><path d="M501.1 591.7c-14.5-11.9-30.4-26.7-41.3-41.8-.7-11.3 54.1 43.3 41.3 41.8zm-.2-6zM610.5 268.7c-9-3.4 5.1-8.5 7.2-12.9l-32.5-32.5c-5 2.2-6.1 10.1-11.1 9.8-6.4-4.8 8.5-18.8 13.2-16.2 7.5 12.6 59 41.1 23.2 51.8zM539.8 659.3c-2.7-17.2 35.9-36.9 46.7-54 11.2-9.6 20.2-23.7 33-30.9-10.2 27.7-56.3 58.4-79.7 84.9zM713.1 368.7C697.9 357.9 600.4 256 650.6 298c16.3 22.7 59.9 48.2 62.5 70.7zM416.3 506.8c-13.3-10.2-24.2-17.2-35.1-30.7-7.8-17.3 8.7-4 12.5 1.5 4.5 8.4 30.6 21.6 22.6 29.2zM307.5 492.5c18.2-37.1 79.1-79.1 112-117.7.8-7.2 9.9-1 4.6 4-39.5 36.6-77.2 80.2-116.6 113.7z"/><path d="M383 473.5c-5.4-13.8 26.1-32.2 34.2-46.3 45.6-44.6-19.7 35.5-34.2 46.3zM414.7 783.9c-13.1-15.2-55-35.4-25.6-53.5 2.1-4.4 11.3-6.7 7.9.6-4.7 4.8-9.6 9.5-14.2 14.3 14 7.7 28.2 43.3 41.6 22.6 13.2-2.5-4.3 14.9-9.7 16zM285.1 547.8c-15.3 1.6 46.6-59.2 51.8-55.5-8.8 17.6-36.6 38.5-51.8 55.5zM661.4 323.3c-6.7-10.6-36.9-23.8-29.5-38 2.2-4.7 1.5-5.3 1.4-10.8 7-.6 7.3 11.9 2.7 15.2 2.7 10.5 35.1 23.3 25.4 33.6zM420.5 739.5c-2-22.1-33.6-41.5-50.2-62.1-6.2-19.1 77 59.3 50.2 62.1zM595.3 466.6c-29-.3-57.3-54.5-15.3-55.2 23.9 3.5 53.1 49.8 15.3 55.2zm-17.9-49.4c-52.6 18 60.1 76 22.3 15.1-6.5-6-12.5-15.3-22.3-15.1zM485.4 308.8c-10.3-3.5 25.4-32 30.1-36 6.6 8.6-23.4 28.6-30.1 36zM595.2 338.7c-12-2.2 22.3-23.5 26.2-30.7 2.9-1.6-4.8-4.8-1.2-7.8 23 3.5-15.6 34.2-25 38.5zM512.2 377.9c-3.9 1.5-15.4-11-4.4-9 4.4 3.6 4.3 3.7 8.2-.3 5.3-4.6 18.4-16.6 2.6-12.9-4.1 2.3-9-1.7-9.5-4.7-1.1-5.2 5.7-4.8 6.4-.6 31.8-7.2 11.6 23.3-3.3 27.5zM663.8 549c-11.6-9 45.4-48.2 52.2-60.2 12.6-9.1 19.4-25.1 33.1-33.2 8.9 1.9-1.7 7.4-4 11-25 29.5-55.5 55.3-81.3 82.4zm16.5-22.8zM429.5 371.6c-7.3-9 21.1-23.4 26.6-33.4 14.4 1.7-20.2 28-26.6 33.4z"/><path d="M599.1 479.1c-29.2-1.2-59.7-30.2-50.6-56.7 9 21.2 14.9 47.2 47.2 50.4 15.2 3.1 28.1-12.9 19.2-25 22.6-2.9 1.7 36.6-15.8 31.3zM468 462.4c-15-5.4-39.5-.9-50.5-10.8 1.2-5.1 66.3 3.4 50.5 10.8zM342 620.5c-10.8.2-43.2-41-17.5-30 .6 3-3.5 2.6-4 3.7 6.6 6.5 12.9 13.6 19.9 19.6 3-10.4 12.4 6.5 1.6 6.7zm-.9-4.4zM491.7 310.4c-2.5-17.8 35.9-37.6 47.4-55.1-9.1-11 17-19.6 12.8-4.3-20.1 19.3-39.7 41.1-60.2 59.4zm54-61.8c-1.5 1.1-2.3 1.7-2.5 2.5l2.5-2.5z"/><path d="M351.5 606.4c-9.3-4-15.2-18.9-25.1-20.8.9 3.9-2.7 10.4-5.9 4.3-4.5-28.4 41.6 11.1 31 16.5zM677.5 423.9c-10.9-5.2 12.1-11.4 8.3-18.3-7-9.5-12.4 12.3-19.6 8.3 6.5-32.4 46.7-7.7 11.3 10zm8.3-18.4zM434.7 592.8c-3.8-3.2-37.9-31.1-22.8-29.6 5.1 5.9 31.7 23.7 22.8 29.6zM437.1 533.4c-14-12.7-29-28.4-41.3-42.8-.9-13.6 54.4 43.8 41.3 42.8zM265.3 536.8c-3.9-18 36.7-34.5 42.2-55.9 40.1-45.6-26.9 52.2-42.2 55.9zM435.5 675.4c-4.2-3.5-35-26-22.4-28.1 4.3 5.5 32.2 23.4 22.4 28.1zM607 526c-7.8-3.9-106.3-97.9-81.5-88.2 27.1 26.4 52.9 54.5 80 81 7.6.6 17.8-14.1 16.5-22.8 16.8-9.5-3.5 31.3-15 30zM584.4 295.9c-1.8-1.5-43.2-37-38.3-41.3 2.8-6 36 33.6 38.3 34 36-38.9 30.3-14.3 0 7.3zM622.4 582c-6.3-1.3-.9-6.4 1.7-8.8 48.7-51.6 35.6-18.9-1.7 8.8z"/><path d="M512.3 610.2c-21.5-22.1-51.2-58.3-74.3-71.8 12.3-12.7 23.1 13.9 33.2 19.9 10 15.7 47.4 36.3 41.1 51.9zM660.1 407.1c-7.8.5-7.4-11.9-.1-6.1 2.2-2.2 4.4-5.1 7.5-7.5 10-5.8 12.9-19.8 19.2-26.2-10.3-11-23.1-24.5-34.5-34.2-9.8 7.8-22.2 21.6-33 32.4 1.7 2.4 11.3 11.3 13.4 13.7 3.3 15.3-31.1-15.8-14.6-21 17.6-15.5 32.2-46.2 50.7-17.8 6.9 10.8 35.2 22.7 18.1 36-1 11.9-16.4 24-26.7 30.7zm20.3-26.7c0 .1 0 .1 0 0 0 .1 0 .1 0 0zM527.9 559.8c-4.7-4.8-31.3-23-21.7-27.4 4.7 3.7 31.3 23.5 21.7 27.4z"/><path d="M543.7 577.7c-13.8-4.9-28.7-36.8-5.3-12.2 6.7 16 21-20.1 29-14.5 4.3 4-21.3 25.2-23.7 26.7zM279.6 571.1c-4.6-11.8 36.7-39.5 46.1-54 11.8-14.7 33.7-21.5 18.7-37.5 5.1-3.8 19 9 13.2 15.2-28.2 23.1-50 54.5-78 76.3zM730.5 394.1c-30.4-25.4-60.1-58.1-86-87.4 14.5-1.4 30.2 28.6 44.9 37.6 7.4 11 52 40.6 41.1 49.8z"/><path d="M519 601.9c-14.1-5.5-15.8-24.4 0-7 35.9-39.3 31.1-14.5 0 7zM357.1 438.1c-9-8 15.7-20.5 20.1-28.4 11-7.8 23.3-29.4 36-28.6-13.4 19.9-39.3 38.1-56.1 57zM422.6 503.6c-22.2-12.6 5.4-56.9 23.8-40.4-11.6 3.8-32.6 11.8-24.6 30.1 1.8 2.5 6.9 9.3.8 10.3zM553.5 538.9c-4.4-8.7-13.1-19-22.5-27.1-16.4-20.9 42 20.8 22.5 27.1zM451.9 747.6c-8.9-7.2-24.7-18.3-27.1-28.7 6.9-3.1 12.8 9.6 18.1 13 6.8 10.3 9.2 5.2 17.4 3.7 3.8 4.5-5.5 10.1-8.4 12zM569.8 348.9c-5.1-7-26.6-18.6-18.7-28.1 2.7-1.1 12.5-15.7 16.1-11.3 4.3 3.7-10.7 13.1-12 15.6.6 6.1 25.1 17.3 14.6 23.8zM459.3 342.3c-11.3-.5 20.8-30.2 22.7-25.7 4.2 4.1-20.3 24.3-22.7 25.7zM696.4 502.6c-35.4-24.3-15.1-39.3-53.7-12.5-2.3-21.4 1.1-18.7-15.6-3.5-2.9 1.8 7.2 11.9-3.2 8.4-12.6-9.8 10.1-24 18.2-28.6 8.1 1.7 7.4 8.4 5.4 14.8 5.5-4.7 10.3-10 16-14.6 19.1 4.4 29.6 45.8 47.8 14.3 41.3-33.9 19.7-30.1-7.9-62.6 4.6-13.9 28.4 25.2 38.4 30.4 8.9 12.8-35.6 43.5-45.4 53.9zM426.1 745.4c-12.3-10.1-23.6-22-35-32.4-5.1-7.9 6.7-6.1 7.8.7 6.7 4.6 35.4 25 27.2 31.7zM457 648.6c-5.8-1.4-36.3-34.4-17.2-24.6 3.2 7.2 26.2 18.4 17.2 24.6z"/><path d="M447.1 674.3c-9.7-8.6 16-19.6 18.6-28.6.5-2.4 4.2-2.1 2.8-3.7-2.9-7.8 8.4-4.5 6.8 1.8-7.8 10.9-19.1 21.3-28.2 30.5zM459.8 549.8c-7-10.3 21.8-25.5 28.4-36 28.5-21.8-21.2 33.6-28.4 36zM503.3 304.1c-2.3-18.2 36.6-37.9 48.1-56 53.5-46.5-32.6 45-48.1 56zM324.7 644.8c-28.2-15.5-43.7-47.8-71-61.9-.3-18.4 48 32.1 51.2 39.3 2.8 8.9 29.6 14.5 19.8 22.6zM499 484.6c-5.2 1.3-6.2-6.5-.8-6l-1.2-7.4c-3.1-17.9-10-35.5 8.7-46.9 1.4-4 7.6-8.2 7.6-1.2-32.2 27.3 4.3 54-14.3 61.5zM768.3 430.8c-10.5-3.5 9.9-10.7 6.5-14.5-23.2-23.6 30.1 0-6.5 14.5zm10.1-8.1zM370.8 616.5c-18.7-11.5-8.8-19.6 4.1-30.9 7.2-5 14.3 5.6 16.2 11-4.9 7-13.4 15.4-20.3 19.9zm-4.9-13.3c7.3 11.9 9.2-2.7 16.9-5.7 3.9-.8 0-2.6-1-4.5-5.3-7-10.5 7.5-15.9 10.2zM369.8 666.1c-9.3-3.3 24.5-34.6 30.1-33.1-2.5 12.1-20.7 23.9-30.1 33.1zM366.9 592c-9.5-3.2-21.5-31.8-27.9-16.8-7.9.3-2.5-10.9 1.1-11 8.2-2.3 34.5 21.8 26.8 27.8zM450.8 455.8c-12-3.2-25.3-2.6-33.8-2.7-9.7-15.1 48.7-3.7 33.8 2.7zM610 512c-2.2-1.4-33.2-27.8-28.8-31.8 1.1-5 40.9 31.7 28.8 31.8zM551.7 451.3c-7.9-5.7-23.9-16.7-23.4-26.4 3.8-1.9 33.8 25.7 23.4 26.4z"/><path d="M527.9 480.1c-13.1-10.5-1-47.4-15.9-50.5.4-16.2 15.1-2 12.4 9-.7 12.5 9.9 32.5 3.5 41.5zM515.7 645.8c-6-1.1-.9-5.6-.3-9.2 14.2-20.8-1.3-27.2-11.9-42.7 5.8-8.6 16.1 13.9 23.4 16.8 4.6 10.1-4.3 27.9-11.2 35.1zM356 484.2c-11.4-8.2 18.5-12.8 24.5-15.8 12.8 6.9-20.2 10.9-24.5 15.8zM672 451.6c-12.9-2.5-9.4-22.2 2.3-10.8 17.9-12 36.7-34.6 53.6-51.2 19.9-1.5-49.6 56-55.9 62zM443.4 766.7c-6.7-12.9 27-27 33.7-40.2 59.3-56.8-12.6 27.4-33.7 40.2zM644.8 398c-8.2-2.9 3.9-14.6 6.3-17.7-4.7-14.9-23.6 14.9-22.8-1.5 8.6-1.7 12.6-15.3 21.1-9 15.1 9.5 2.8 19.9-4.6 28.2zM315.4 478.3c-9.3-5.3 11.7-14.8 14.1-21.3 14.7-2.4-8.9 19.4-14.1 21.3zM356.1 678.3c-6.2-1.2-9.5-13-15.2-11.1-5.4 3-22.5 21.7-16.2 2 12.3-15.9 18.4-14.5 30.4 1 13.8-8.1 13.2 2 1 8.1z"/><path d="M344.7 696.6c-5.6-1.1-30.8-26.2-15.7-23 4.4 6.1 10.5 11.2 15.7 16.8 8.6-8.9 8.3 6.7 0 6.2zM338.4 644.8c-24.5-17.6-42.8-53.6-68.9-65.3-3 1.2-2.8 11.5-7.7 4.2 6.5-31.1 35.8 13.2 46.4 22.5 6.6 11.7 37 26.9 30.2 38.6zM529.7 559c-7.7-5.2-15-17.6-23-21.7-2.8 2.3-6.5-2-4-4.5 3.9-10.6 37.5 23.4 27 26.2zm-26.6-26.5zM525.5 481.9c-7.6 3.9-13.6-39.1-8.7-39.4 5.9-2.2 6.9 31.3 8.5 33.4 28.4-31.7 25.2-7 .2 6zM659.6 498.3c-7.3-5.1 3.7-20.4 2.3-28.7 10.7-10.6 3.7 26.6-2.3 28.7zM471.5 382.9c-5.5 1.3-11.4-4.6-6.5-9.6 10.5-10 20 8.9 6.5 9.6zm-1.5-6.1c.6 0 1.4.1 1.9.1-.9-.3-1.5-.3-1.9-.1zM511 340.2c-13.8-9.7 25-5.9 12.1-13.8-21-34-34.6-2.8-31.4-18.4 13.6-20.2 24 4.6 35.7 14.3 18.3 14-5.4 14.5-16.4 17.9zm18-7.7zm-27.3-28.3zM417.3 741.1c-7.2-4-16.6-11.9-19.4-18.6 3.3-7.2 29.2 17.7 19.4 18.6zM526.6 618.1c-5.2-12 26.2-24.1 35.5-37.4 22.3-17 39.1-34.7 44.9-59.6 9.6 41.9-54.5 70.1-80.4 97zM440.3 664.8c-2.5-1.5-25.8-21.2-21.6-25.2 1.9-4.5 32.7 24.8 21.6 25.2zM440.8 769.3c-15.2-2.8 2-14.6 5.9-19.2-2.8-5.2-10.2-5.9-11-10.6 4.1-7.7 20.4 7.7 17.7 12.4-15.1 10.8-1.7 14.4-12.6 17.4zM607.8 438.7c-7.4-9 22.4-23.1 26.9-33.3-22-35.5-35.5 25.2-47.7 11.6 17.4-18.3 31-46.6 51.7-16.1 6.7 12.5-21.8 29.3-30.9 37.8zM358.2 675.1c-12.2-8.7-22.1-22.2-33.3-32.6-7.1-19.1 46.2 33 33.3 32.6z"/><path d="M488 406.5c-1.6.9-13.9-13.2-15.2-13.9.9-12.1 18.2-25 31.4-23.8 4.8-2.8 18.3-25.9 21.9-15-10.7 21.7-34.1 18.1-47.1 36.5 1.4 2.6 18.8 14.1 9 16.2zm17.6-37.4zM430.9 677.9c-7.5-.6-40-32.1-19.6-29.8-.5 9.2 11.8 15.8 18.4 23.4 4.8-8.5 10.5 7.9 1.2 6.4zM440.5 511.4c-4.7 1.2-22.6-5.6-11-8.7 13.4 7.1 29.1-.8 30-16.3 16.3-7.1-5 31-19 25zM770.1 410.4c-6.2.7-27.3-36.7-32.6-21.6-16.9 15.6-2.6-15.8 7.5-10.9l27.3 27.3c1.9 1.9.4 5.3-2.2 5.2zM688.8 514.5c-6.2-4.7-54.7-21.2-42.9-27.2 14.7 5 28.6 13.4 42.8 21.2 12.7-12.1 9.5 5.9.1 6z"/><path d="M433.7 416.5c-9-5.4 11.4-16.8 14.3-23.2 6.8-2.1 23.9-9.5 29.3-3.2-23.7 11.8-20.3.2-43.6 26.4zm17.7-19.2zM370.6 620.5c-4.6-.9-28.7-20.5-15.8-19.7 3.1.8 25.5 18.5 15.8 19.7zM577.4 395.8c-6.2-.8.4-6.1-3.9-8.5-3.4-3.5-9.2-7.2-9.2-12.3 9-24.6 42.1 19.7 13.1 20.8zm-7.1-20.2c3.4 2.8 7.6 11.5 11.1 5.6-3.7-2.2-7.1-11.3-11.1-5.6zM260.6 534.2c-12.1 2.2 38.5-49.5 40.9-45.5-5.6 16.8-26.5 33.4-40.9 45.5zM607.6 525c-20.1-17.9 70.7-75.9 24.3-32.5-11.8 9.1-19.4 20.9-24.3 32.5zM504.1 706c-9.3-2.5 12.7-23.8 16.9-16.3-2.5 5.7-11.5 12.1-16.9 16.3zM502.5 356.6c-4.6-9.8-6.6-30.5-12.3-43.9 1.8 3.3-2.2 6.3-4.5 8.8-4.7 3.2-15.6 21.9-19.8 12.1 7.8-4.9 22.2-34.3 28.7-26.2 1.1 13.6 20.7 40.8 7.9 49.2zm-31.2-21.4zM345.3 616.8c-8.3-8.1-24.4-19.6-26.8-30 3.9-4.5 37.3 28.9 26.8 30z"/><path d="M605 383.1c-7.8.2-40.5-28.8-26.3-28.8 9.5 6.4 16.1 21.6 27.9 22.7 5.7.1 3.4 7.5-1.6 6.1zM273.5 577.7c-4.4-4.8-15.3-11.3-15.4-17.6 4.9-4.8 24.5 14.6 15.4 17.6zM437.9 740.6c-11.6-7.1-68.8-66.8-23.8-30.4 5.1 9.4 33.1 21.5 23.8 30.4zM393.6 551.1c-1.2 1.1-17.2-16.3-18.2-17-5.7-16.2 30.2 16 18.2 17zM451.4 396.7c-6.4.7-.4-23.2-1.4-25.9 8.8-13.6 6.6 27 1.4 25.9z"/><path d="M586.8 400.9c-12.2-5.2 10-9.9 13.9-13.7 23.6-9.4-35.2-34.9-27.9-46 14.8 3.5 22.1 22 35 30.6 19.4 13.6-9.8 23.9-21 29.1zM361.6 602.5c-4.9-5.6-36.2-28-21.5-30.8 3.1 9.5 30.1 22.3 21.5 30.8zM334.3 496.7c-17.1-8.5 21.8-8 2-25.9-.4-11.2 28.7 9.8-2 25.9zm-2.8-1.2zM459 740.6c-8.2-7.9 17.3-21.1 21.9-29.6 18.5-16.9 36.1-39 54.8-53.5-10.6 29-54 56.9-76.7 83.1zM272.4 555.6c-8-7 13.1-22.1 16.5-30.7 31.1-38.9-3.1 22.3-16.5 30.7zM337.3 457.4c-8.9-2.6 9.7-20.8 14.2-16.7 1.1 6-9.8 12.7-14.2 16.7zM462.4 335c-11.1-3.3 21.9-29 26.2-33.5 13.8-10.3 4.2 7.5-2.5 10.9C476 316.6 473 330 462.4 335zm9.2-15.8zm9.8-4.5zM501.2 360.5c-4.2-3.9-6.9-3.1-10.5-8.1-1.2-3.3-3.8-14.4 3.2-13.4 4.4 1.9-1.2 9.2 3.3 11.3 10.1-2.3 14.7 6.8 4 10.2zm-4.7-9.7zM495.7 414.7c-17.1-2 8.9-28.1 7.3-13.5-9.6 5-1 10.8-7.3 13.5zM646.9 476.1c-9.4-5.1 13.1-15.3 14.9-21.6 15.2-2.3-8.9 19.9-14.9 21.6z"/><path d="M549.5 426.8c-16-41.1 69.1-22.7 45-14.1-19.2-13.7-39.1-5.7-45 14.1zM463.2 594.4c-5.7-1.8-30.3-28.8-15.5-25.9 3.7 2 4.5 5.1 5.4 8.9 3 4.2 19.1 13.2 10.1 17zM557.7 370.1c-8.1-4.1 8.7-31.8 17.8-27.4-4 7.9-12.5 19.7-17.8 27.4zM496.5 485.1c-5-2.1-9.9-32.8 1.9-24.6-3.6 6.7 5.7 20.2-1.9 24.6zM524.7 540.8c-20.8-5.4 10.1-23.3 14-9.6-.5 8.9-6.8-2.5-13.2 3.7 3.3.8 2.6 6-.8 5.9zM335.5 458.2c-9.5-4.4 6.9-8 8.9-12.7 4-2.2 2.1-9.2 7.3-9.1 8.7 6.2-8.9 21.5-16.2 21.8zm12.9-19.2zM364 522.1c-8-2.8 3.4-7.2.9-13.8 1.1-10-13.5-11.7-4.7-20.7 4.5-4.2 7.2 3 3.3 5.8 9.3 6.7 11.7 23.4.5 28.7zM431.3 555c-9.2-4.1 6.5-14.1 9.5-18.1 10.9 3.5-7 15-9.5 18.1z"/><path d="M485.7 614.2c-9.2-3.2-33.8-38.3-10.7-18.5 2.7 4.7 19.8 14.1 10.7 18.5zM494.8 513.6c-13 0 28.8-35.9 32.9-36.6-.3 13.7-22.8 27-32.9 36.6zM513.4 354.8c-8.4-4 14.1-23.6 19.3-23.3 1.8 8.5-13.3 17.8-19.3 23.3zM665.1 444.7c-10.7-9.1-29.4-23-32.2-35.8 4.9-1.6 41.6 33.9 32.2 35.8zM311.2 543.7c-8.3-7.8 16.9-20.8 21.8-28.9 9.5-5.6 17.7-25.3 28.7-22.8-10.8 18-34.4 35.9-50.5 51.7zM501.4 474.9c-14.2.6 18.5-23.3 20.5-16.7-2.2 7-13.5 12.7-20.5 16.7z"/><path d="M406.2 534.7c-7.5-7.9-85.7-74-63.1-67.1 17.8 19.7 59.2 44.6 63.1 67.1zM431.9 388.9c-3.8-3.2-13.4-9.1-11.6-14.2 2.7-1.1 2.3-7.9 7.1-4.4 4.8 4.5 18.3 15.6 4.5 18.6zM300.9 515.5c-9.9-7.1 16-16.3 20.7-22.2 7.2-3.2 14.8-15 22.1-12.9-4.8 14.7-31.1 23.6-42.8 35.1zM420.7 751.4c-9.2-8.5-22.4-16-26.6-29.5-1.5-5.2 5.4-10.1 6.7-3.8-5.3 14.1 30.5 22.5 19.9 33.3zM394.8 718zM474 644.8c-9-5 11.9-15.2 14.2-21.2 11.7 3.6-9.2 18.2-14.2 21.2zm12.9-19.2s0 .1 0 0c0 .1 0 0 0 0zM505.2 587.2c-13.9-6.9-72.2-75.5-24.7-32 .1 3 37.2 30 24.7 32zM473 555.8zM619.2 332.3c-11.4-6.7 18-19.4 13.5-3.8-6.2.1-7.6-1.1-13.5 3.8zM553.4 293.9c-8.3.9-13.2-16.7-3.2-15 3.3 2.9-1.6 4.5 2 8.2 6.8-.5 11.4 5.6 1.2 6.8zM462.4 488.5c-6-3.1-1.9-14.8-9.7-17.3-20.7-25.1 26.7 6.5 9.7 17.3zM620.8 453.2c-6.1-2-.2-10.9-4.6-16.2-10.5-27.4 19.5 9.4 4.6 16.2zM365.3 535.5c-22.2-9.1 19.3-28.1 0-8.3.5 2.7 6.4 7.2 0 8.3zM350.5 441.6c-8-1.7 2.9-11.6 7.4-8.9 5.5-2.7 7.8-14.8 13.6-12.1 4.7 9.7-13.5 19.3-21 21zm9.7-7.3c0 .1 0 .1 0 0 0 .1 0 .1 0 0zm7.6-9.1zM491.3 419.5c-2.7-.9-10.2-6.8-7.1-10.1 2.2-1.8 20.8-24 17.6-9.1l-11.2 11.2c9.7-5.5 29.6-20.4 27.5 3.7-16.4-1.6 5.4-19.8-26.8 4.3zM589.1 334.4c-7.7-9.1-12.7-18.4 2.8-26.1 21.4-3.5 8.8 22.3-2.8 26.1zm-2-13.8c3.4 8.1 14.5-2.1 9.4-6.8-4-.7-7.8 4.5-9.4 6.8z"/><path d="M510.2 400.6c-14.2-1.7 5.1-21 8.2-7.7-.4 3.8-3.8 7.1-8.2 7.7zM685.3 519.1c-5.5-3.9-38.4-14.3-25.2-19.2 10.9 2.8 20.1 15 29.5 10 5.2 2.5-1.4 9.3-4.3 9.2zM237.1 559.8c-9.8-6.4 15.4-20.4 18.8-28 17.1-4.7-14.6 25-18.8 28zM448.4 575.4c-9-4.9 10-15.4 13.7-20.4 13.7-.9-9.5 17.6-13.7 20.4zM414.9 390.9c-8.7-1.7 7.8-17.2 11.6-14.1 2.6 5.4-7.2 11.8-11.6 14.1zM502.9 447.5c-3.3-.8-11.7-6.2-8.9-10.4 5.3-4.2 8.1 8.7 12.4.6 17.4-17.2 9.2 7.1-3.5 9.8zM444.9 558.3c-6.7 1-9-9.1-4-12 6-1.4 14.5 12.3 4 12z"/><path d="M238.7 562.4c-9.3-1.7 11.4-21.9 14.5-13.6-2.3 4.9-9.1 10.7-14.5 13.6zM275.9 578.5c-3.5-.1-4-4.8-.9-6.2 2.2-4.6-11.9-11.2-13.9-17.2-4.6-16.2 36.1 21.3 14.8 23.4zm1.9-.8zM404.9 634.2c-11.4-2 16.1-24.1 11.1-9.9-1.4 1-9.2 10.4-11.1 9.9z"/><path d="M243.7 564.8c-8.5-2.9 3.6-11.3 6.1-14.4 12.5-4-2.2 13.1-6.1 14.4zM554.3 544.5c-7.4-11.9-27.2-24.5-33.2-37.7 2.1-7.9 48.6 38.1 33.2 37.7zM562.7 286.9c-4.3.7-2.2-7.4-3.1-7.7-24.9-6.5 20-11.2 3.1 7.7zM495.4 440.8c-10.1-2.6-6.8-41.5-.5-19.4-.9 5.7 7.1 17.1.5 19.4z"/><path d="M255.8 569.6c-8.7-3.8 7.6-8.9-4.1-14.5-6.8-4.7-7.2-21.3 3.1-12-2.2 9.6 18.4 18.9 1 26.5zM453.5 367.2c-5.3-1.8-3.3-17.4-.1-20.2 6.7.3 4.7 18.7.1 20.2zM515.2 278c-8.2-1.9 5.2-15.6 8.9-15 5.3 4.5-5.4 12.8-8.9 15zM545 505.2c-9.2-2.2 17-20.9-7.4-24-11.2-19.6 38.3 9.9 7.4 24zM679.4 421.5c-3.3-2.3-14.1-9.9-9.4-14.6 3.9-1.3 17.8 12.6 9.4 14.6zM665.9 470.9c-6.6.1.3-14.7 0-17.6 8.9-10.9 5.4 17.7 0 17.6zM465.3 593.7c-7-1-2.5-6.1 1.5-7.4 5.2-2.2 6.7-9.7 11.6-9.9 6.5 6.1-7.7 15.4-13.1 17.3zM715.2 376.1c-11-6.7 14.3-17.5 12-3.9-6.6 3.2-4-3.8-12 3.9zM742.2 456.9c-9.9-7.9 23.6-20.1 19.6-30.9-3.4-8.7 10-3.5 7.8 2.8-7.3 9.9-16.2 22.2-27.4 28.1zM412.3 651.6c-7.6-3.3-.1-14.2 7.7-12.6 3.9-.1 3.9 6.1 0 6-7.3-1.1-2.2 6-7.7 6.6zM499.1 355.3c-4.2-2.2-22-54.2-7.6-39.1.9 12.3 15.5 30.4 7.6 39.1zm-9-40.9zM532.1 665.9c-2.1.6-10.1-10.3-11.5-11.3-4.2-14.6 22.6 9.7 11.5 11.3z"/><path d="M503.9 337.9c-4.5-1-12.7-21.6-2.5-15.5 1.8 4.1 9.5 13.6 2.5 15.5zM572.7 304.9c-9.5-8.8-20.4-13.1-28.1-24.1-3.1-8.8 14.6-13.3 12.4-3.3-21 2.8 29 17.4 15.7 27.4zM525.2 539.2c-10.7-3.6 12.5-12.9 15.1-8.8.8 6.3-10 7.6-15.1 8.8zM532.9 334.7c-12-5.4 15.1-9.9 17.6-8.1 2.7 8.2-12.8 7-17.6 8.1zM522.3 271.4c-10.7-2 16.9-22.9 19.7-21.2 5.2 7.1-14.4 16.3-19.7 21.2zM487.8 303.3c-9.2-1.6 7.9-18.3 10.8-10.6-.7 4.1-7.1 8.5-10.8 10.6zM599.3 257.7c-6.5-3.3-14.8-12-17.1-19.1-3.7 1.2-9.1-4.7-2.7-6.2 5.5-.6 8.3 2.3 9.6 7.8 2.5 5.4 21.3 14.1 10.2 17.5zM387.6 575.2c-4.5.9-8.3-5-2.7-6.4-6.9-5.8-16.5-24.1-22.9-16.2-16.1-27.5 43.7 12.8 25.6 22.6zM532.9 663c-7.8-7.2-23.9-17-25-27.6 2.8-4.2 36 26.8 25 27.6zM344.2 693.9c-13.6-5.7 22.9-21.2 13.4-7.3-5.6-.3-8.6 4.9-13.4 7.3zm11-12.7z"/><path d="M534.7 662.2c-6.3-1.3-12.6-17.3-1.2-12-.3 3.3 8.8 10 1.2 12zM470.9 602c-7.9-5-12.7-13-18.2-20.7-1.1-13.8 28.6 21.2 18.2 20.7zM307 508.9c-8.7-4.1 6.6-14.7 9-19.9 5.8-4.8 9.8-18.7 17.7-17.7-1 12.4-18.7 27.4-26.7 37.6zM620.7 309.5c-17.3-4.7-3.2-18.8-9.1-15.4-3.9 6.2-9.9-1.4-3.4-5 10-8.7 25.1 14.6 12.5 20.4zm-3.5-9.8c1.2 2 2.2 2.4 2.9 0-.5-1.6-1.9-1.4-2.9 0zm-.7-1.1zm-9.5-8zM520.8 690.9c-9.4-3.8 10.2-17.4 14.2-18.1 5.7 6.9-10.2 13.7-14.2 18.1zM300.9 590.6c-10-1.3-1.6-13.3 3.4-11.5 5.5 2.6 2.1 11.8-3.4 11.5zm-.5-5.9zM359.5 432.6c-8.1-1.6 3.8-14.4 7.7-13.1 5 4-4.6 11.4-7.7 13.1zM339.7 451.9c-11.4-2.5 14.5-20.8 9.2-7.4-1.4.9-7.3 7.7-9.2 7.4zM561.7 293.3c-6-2 1.7-6.8-8.7-15.1.4-13.5 22.1 12.2 8.7 15.1zM409.4 711.5c-8.5-2.2 6.4-15.7 9.9-15.5 5.6 5-6.2 13.2-9.9 15.5zM576.4 395.7c-7.9-6.4-26.7-18.1-21.6-29.2 1.8-3.5 7.2-.6 5.3 2.8-2.6 8.5 26.6 19.7 16.3 26.4zM731.6 474.3c-9.2-3.5 17.3-31.1 21-17.4 4.3 7-7-.3-21 17.4zm20.9-17.4zM535.8 634c-18.8-2.9 11.6-24.1 8.4-6.1-1.6 3-4 5.7-8.4 6.1zm.1-4.6zm8.4-5.8zm0 0zm0 0zM293 561.9c-9.4-5.8 12.3-15.4 14.8-22.1 15-2.2-10 19.9-14.8 22.1zM371.8 468.4c-11.2-1.9-.7-18.4 6.6-13.9 5.7 4.3-.2 13.8-6.6 13.9zm8.5-8.2zm-9.5-3.9zM512.3 351.6c-9.6-8.5 8.2-10.4-14.4-14 3.7-15.4 28.8 5.7 14.4 14zM710.8 371.6c-11.1-4.3 13.7-17.9 13.2-4.9.8 4.2-5.8 4.9-6 .6-2.2 0-4.5 4.1-7.2 4.3zM478 391.7c-10.5-6.2 7.6-5.9 10.2-7.9 5.2-2.2 10.6-15.6 17.7-13.7-.2 11.2-16.7 22.6-27.9 21.6zM705.7 397.6c-9.9-3.4-22.3-19.4-5.1-22.2 8.7 3 19.1 19.3 5.1 22.2zm-7.9-14.2c2.4 2.1 11.3 12.8 8.1 4.1-4.6-.3-4.2-8.4-8.1-4.1zM516.8 427.8c-9.2-7.3-3.5-29 8.2-9.2-.6 2.8-3.9 2.8-5.8 1.4.3 2.6 1.8 7.8-2.4 7.8zM630.3 276.4c-4.7-5-10.3-1.8-17.6-2.8-8.6-11.6 32.5-7.1 17.6 2.8zM304.4 658.2c-8.7-3.4 6.4-14.8 9.6-17.6 8.8 4-5.9 14.5-9.6 17.6zM406.5 623.1c-8.6-2.1 7-16.7 10.9-15.3 4.2 5.4-7.2 12.7-10.9 15.3zM330.7 584.9c-14.7-16 20.9-14.3 3-6.7-.2.9.8 7.2-3 6.7zM254.2 538.4c-8.2-1.8 4-12.6 7.4-12.1 5.9 3.9-4.1 10.8-7.4 12.1zM376.7 584c-6-5-31.8-22.4-22.2-29.1 5.5 2.6 25.6 32.9 24.5 17.2l-19-19c-3.2-17.6 45.1 29.5 16.7 30.9zM388.4 709.6c-7.5-11.3-11.2-4.2-13.1-10.9 4.1-9.3 24 6.7 13.1 10.9z"/><path d="M417 618.9c-7.5-1.8 2.7-11.2 4.7-13.9 9.9.8.1 12.4-4.7 13.9zm8.3-11.5zm0 0zM345.5 568c-5.8-.6-1.8-9.6.9-10.9 3.8-4.6 14.8 3.9 5.1 5-3.7-1.9-1.8 6.2-6 5.9zM444.8 539.5c-3-2-10.4-6.8-8.8-11 3.9-5.2 17.3 9.5 8.8 11zM494.1 719.2c-11.3-2.6 13.9-20.1 8.6-6.9-1.3.9-6.8 7.2-8.6 6.9zM457.7 351.6c-15.1-2.2 8.1-12.1 10.9-5.5.1 4.9-7.2 4.7-10.9 5.5zM369.8 591.7c-7.7-1.5 3.7-11.8 6.2-12.8 6.6 2.8-.9 12.2-6.2 12.8zM521.3 500.9c-3.6-.6-3.7-5.3-7.6-6.9-5.9-13.5 19.2 3.3 7.6 6.9zM420.5 642.9c-13.1-6.1 14.7-20.2 6-6.7-5.6 1.9-.8 6-6 6.7zM429.5 749.6c-3.5.3-11.1-4-7.3-8 5.8-.4 9.5 4.5 13.6-3.6 11.6-4 .2 13.3-6.3 11.6z"/><path d="M448.2 655.9c-2.5-1.5-25.2-20.6-21.1-24.7 2-4.5 32.1 24.2 21.1 24.7zM255.8 580.6c-5.6-4-7.4-12.4-14.5-15.9-3.6-16 26.8 12.5 14.5 15.9zm-6-11.2zM354 559.5c-14.1-7.9 18.1-18.1 5.8-5.8-3.5-1.2-1.9 6.2-5.8 5.8zM280.6 574.3c-9.2-4.1 7.9-12 10.2-17.4 13.5-3-5 16.2-10.2 17.4zM447.4 344.2c-8.5-1.3 5.2-15.8 8.7-9.9 1 3.9-5.3 8.3-8.7 9.9zM728.4 389.3c-4.6-.8-3.4-9.8-1.6-14 2.3-3.1 7.2.5 4.8 3.6-.6 2.6 2.8 9.5-3.2 10.4zM476.4 564.5c-7.9-.2-11.8-15.8-2-14.2 3.8 2.8-2.4 5.4 2 7.8 7.3-6.3 7.1 7 0 6.4zM435.3 673.5c-8.4-2.7 2.6-6.1 2.3-9.2 0-1.7 1.3-3 2.9-3.1 6.3 1.4 2.7 11.3-5.2 12.3zM444.5 572.5c-3.6-2.5-9.7-1.6-10.1-7.7 2.3-10.8 19.2 5.7 10.1 7.7zM620.8 281.2c-6-1.4-8.8-8.7-14.4-10.3-.1-10.2 11.7-1.3 14.4 4.2 12.9-9.9 12.1 5.1 0 6.1zM324.4 641.3c-8-1 3.8-14 7.6-10.7 2.9 4-3.7 9.6-7.6 10.7zM435.3 759c-4.2-3.8-6.7-8.8-14.2-10-8.2-14.3 29.1 3.7 14.2 10zM506.8 407.3c-1.4 1-16.1-15.8-17.2-16.5-5.3-16.1 29 15.5 17.2 16.5zM402.7 593.2c-13.5-.6 7-22.6 6.2-9.3-4.2 2.9-1.7 8.1-6.2 9.3zM582.5 245.5c-12.1.2-4.1-21.6-.4-8.8-1.6 2.7 8.5 6.7.4 8.8zM541.1 662.2c-3.2-2.6-12.4-8.3-10.8-13.3 4.4-4.5 19.5 11.5 10.8 13.3zM484.1 729.2c-8.2-1.2 4.1-14 7.8-10 2.4 4.1-4.3 8.8-7.8 10zM460.9 752.4c-8.5-1.2 5.6-16 9.2-10.6 1.1 4.2-5.4 9.1-9.2 10.6zM615 394.1c-1.9.3-6.1-5.2-7.4-6.2-4.7-12.9 18.3 3.6 7.4 6.2z"/><path d="M610.5 271.4c-4.3-.3-1.3-3.4-4.7-5.2-17.4-15.6 19-3.2 4.7 5.2zM467.2 641.1c-3.3.1-4.1-4.9-.9-5.9-1.8-5.7-13.3-12.8-17.8-19.4-1.2-2.2-6.7 6.8-7.4-1.5 2.6-19 46.7 25.6 26.1 26.8zM278.5 531.7c-12.5-5.3 15.1-16 20.7-21.8 12.1 3.5-16 18-20.7 21.8zM480.1 561.1c-2.4.1-4-3.1-2.3-4.9-1.3-2.3-8.2 1-6.6-4.7 3.8-10.7 20.2 6.1 8.9 9.6zM307.5 653c-10.5-2.2 7.7-26.7 9.6-15.9-.1 3.7-2.5 5.4-4.2 6.9-5 3.2.2 8-5.4 9zM297.6 499.1c-13.2-3.4 16.8-17.6 6.6-4.6-1.7 1.8-2.7 4.5-6.6 4.6zM422.9 376.7c-8.8-3.3 6.3-10.2 5.8-16.2 12-3.1.7 15.4-5.8 16.2zm5.7-12zM619.8 537.4c-7.5-3.4-2.7-16.8 5.3-15.7 6.9 5.1 1.6 14.3-5.3 15.7zM381.4 727c-10.3-1.2-6.8-8.1 1.4-6.6 3.6-4.7 13.3-1.6 7 3.2-3.4.6-4.4 3.4-8.4 3.4zM298.3 634.2c-10.9-2.6 11.8-18.7 7.1-5.9-1.3 1-5.2 6.2-7.1 5.9zM720.3 381.1c-7.1-1 1.5-12 4.9-11.7 5.9 2.5-1.5 11-4.9 11.7zM507.4 593.5c-8.1 0-7.3-12.1.2-14.3 9.4 1.5 11 13.9-.2 14.3zm.8-7.3c-.2.8-.4 1.4.6.6 0 .1-.6-.6-.6-.6zM625.7 285.3c-10.4-.7-6.8-17 .2-6.1 7.9-13.9 12.2 5.9-.2 6.1zM525.8 492.2c-14.3-7.7 21.2-26.5 10.9-11.1-7.3-.6-5.7 9.1-10.9 11.1z"/><path d="M300.4 636.3c-7.1-.9 1.6-11.9 4.8-11.7 6.1 2.4-1.2 11.1-4.8 11.7zM539.5 672.7c-8.4-2 8.1-22.6 13.2-15.4.7 2.1-10.7 14.6-13.2 15.4zM480.9 313.8c-13.8-1.2 6.1-19.5 7.1-8.2-1.8 3.9-3.7 7.1-7.1 8.2zM418.1 700.7c-9.2-5.2 12.7-14.4 15.2-20.5 7.2-4.4 2.9-10.5 10-15.2 22.7-9-14.6 32.7-25.2 35.7zM613.1 302.5c-6.8.2-11.2-15.1-2.1-9.2 2 2.8 9.1 7.4 2.1 9.2zM565.2 549.3c-2.6-3.9-14.3-3.9-12.6-10.2 5.8-2.7 30 4 12.6 10.2zM361.9 599.6c-7.3-2.6 0-5 2-8.8 7.6 1 5.7 7.4-2 8.8zM488.3 345c-9.1-2.8 5-10.1 8.4-8.3 4.5 5.1-5.1 7.9-8.4 8.3zM272.3 560.3c-11.8-3 7.2-12.5 9.8-17.4 13.7-3-5.8 15.8-9.8 17.4zm-2.3-4.8zM624.2 287.2c-2.2.4-5.2-5.2-6.6-6.4-3.3-12.8 17 4.3 6.6 6.4zM436.3 625.5c-8.2-2 2.2-15 6.6-10.1 2.9 3.1-3.1 5.2-3.6 7 .1 1.6-1.3 3.1-3 3.1zM527.3 560.2c-6.9-4.5-53.7-44.2-37.5-43.6 9.4 7.4 28 31.6 32.4 30.5 7.3-8.6 19.9 14.4 5.1 13.1zm-4-10.1c1.4 1.3 2.8 2.9 4.2 4.1-1.2-2-2.4-3.4-4.2-4.1zM524.7 620c-3.6-2.8-9.7-5.1-11.2-8.7 2.3-9.1 21.1 6.4 11.2 8.7z"/><path d="M504.7 355c-9.4-2.8 5.2-7.4-.4-7.2-16.4-13.3 32.5 1.5.4 7.2zM346.6 614.4c-7.7-1.1 2.8-10.6 5.3-11.5 6.6 2.4-.1 11.7-5.3 11.5zM314.9 491.4c-10.6-2 21.8-34.5 26.4-24.1 2.5 3.1-2.5 6.9-4.8 3.6-7.7 6.1-13.9 15.3-21.6 20.5zM428.9 631.8c-9.1-2.1 5.7-15.8 8.2-7.8-.2 3.5-5.3 5.7-8.2 7.8zM529.5 622.6c-7.5-1.1 2-12.2 5.8-10.7 4.7 3.2-2.6 9.8-5.8 10.7zM300.1 493.6c-8.9-1.5 7.9-18 11.6-12.3.6 4.7-7.3 10-11.6 12.3zM392.2 597.3c-3.8-2-23.4-22.5-9.6-18.9 2.2 4.8 18.9 14.5 9.6 18.9zM533.7 506.5c-5.6-1.4-15.1-11.9-8.6-15.9 2.3.6 16.7 15.1 8.6 15.9zM582.9 402c-6.6.9-12.6-16.4-2.7-9.5 4.7 7.1 11.6-9.8 17.2-12.4 16.8-11.4-8.1 22.1-14.5 21.9zM612.9 537.1c-11.5-3 7.7-20.4 3.3-6.3-.8 1.5.4 6.6-3.3 6.3zM257.4 576.9c-9.7-1.3-2.5-18.3 1.4-8.2-.5 3 4.4 7.4-1.4 8.2zM518.9 693.3c-10.6-2.7 10.4-15.7 6.6-4.4-2 2.2-4 3.9-6.6 4.4zM560.9 379c-11.9-5.4 16.5-28.2 17.5-12.4-.3 3-4.6 3.6-5.7.8-7-.1-6.6 9.9-11.8 11.6zm17-14.4zm0 0zM764.1 424.9c-1.6 0-2.9-1.3-3-2.9-.7-1.1-4.7-1.8-3.6-4.5 3.9-7.6 15.1 6.2 6.6 7.4zM508.9 615.7c-12.3-4.9 5.1-17.1 2.4-4.9 1.4 2 .1 5-2.4 4.9zM517.3 447.4c-7.9-2.9-.5-16.3-9-19.6-3.5-1.6-.8-7.2 2.6-5.4 6.8 1.5 13 21.4 6.4 25zM466.2 539.3c-4-.3-8.6-3.9-5.9-7.4 4.5-3 15.7 6.4 5.9 7.4zM687.3 513.4c-8.5-1.9 6.4-18.3 10.8-14.9 2.4 5-7.4 12-10.8 14.9zM550.8 537.4c-5.1-6.9-12.2-17.1-20.9-23.5-13-19.1 38.2 17.8 20.9 23.5z"/><path d="M558.8 371.1c-10.2-1.4 14.1-23.1 16.9-19.3 3.8 4.1-14.3 17.8-16.9 19.3zM623.7 575.4c-9.1-2 5.1-11.3 6.8-13.9 17.8-15.1 33.8-37.8 52.3-49.6 5.7 5.3-7.1 11.6-9.6 15.8-16.4 15.4-32 33.9-49.5 47.7zM487.8 415.7c-8.1-1 2.6-14.1 6.2-7.5.8 3-3.6 6.4-6.2 7.5zM356.3 606.8c-8.4-1.2 4.3-15.3 6.2-7-.3 4.7-3.3 5.8-6.2 7zM473.5 739.8c-8.2-1.6 4.1-13.2 7.7-12 5.1 4.1-4.4 10.5-7.7 12zM364.4 672.3c-2.6-3.8-30.1-25.5-15.1-24.5 3.2 7.9 27.3 17.7 15.1 24.5zM503.9 536.8c-7.2-1 .6-13 4.9-9.2 2.7 3-2.3 8.4-4.9 9.2zM757.5 422c-6-5-11.9-13.2-18.5-18.8-3.4-7.2 5.8-5.1 7.8-.6 3.1 5.2 21 14.3 10.7 19.4zm-2.4-4.8 2.4 1.8-2.4-1.8zM598.6 495.9c-8.4-1.7 5.1-15.9 9.2-9.1 2.6 4.9-6.3 6.4-9.2 9.1zM526 265.6c-8.5-1.5 4.1-13.7 7.4-8.1 1.6 3.7-4.5 6.6-7.4 8.1z"/><path d="M737.1 404.4c-3.7-.2-8.4-7.7-3.4-9.6 3.9-.7 9.8 9 3.4 9.6z"/><path d="M741.4 401.2c-2.3.3-2.4-2.4-3.6-3.2-10.9-11.4 16.4-2.8 3.6 3.2zM603.4 351.6c2.3-2.5 2.3-2.4 0 0-10.6-4.2 10-25.4 10.1-13.8-3.9 6-6.3 8.7-10.1 13.8zM459.3 648.8c-7.9-.5-3.4-7.1 1.9-6.6.9-1.7-1.1-5.5 2.2-6.2 8.4.4 3.2 14.4-4.1 12.8zM278 514.7c-7.1-.9.5-12 4.8-8.8 3.2 2.8-2.1 8-4.8 8.8zM349 543c-6.1-.3-7.2-12-.1-7.3-1.3-5.4 2.1-8 6.3-12.1 10.7-4.2-2.1 19.4-6.2 19.4zm5.1-12.3zM683.8 385.4c-9.1-3.1 10.6-18.5 14.5-9.3 5.9 3.9-2.6 8.4-5.4 3.3-2.4 1.3-4.8 5.7-9.1 6zM580.7 326c-17.3-7.4-2.3-18.7 6-26.4 6.9-4.6 14.3-21.5 23.5-13.6 7.7 5.5-.4 10.9-4.9 3.7-4.8 4.5-9.5 9.5-14.3 14.2-2.3 3.1-11.5 10-12.4 12.5-.7 1 10.1 8.4 2.1 9.6zM554.3 430c-6.7-.4-4.5-13.8 1.9-8.4.7 2.6 2.6 8.1-1.9 8.4zm-3-3.2zM465.3 390.7c-7.7.9-6.6-12.8.1-6 7.5-5.2 7.1 6.9-.1 6zM493.8 352.6c-8.3-1.2 3.4-13.6 6.1-6.3.4 2.9-3.5 5.5-6.1 6.3zM760.6 427.9c-3.3 0-8.9-6.5-3.8-8.8 3.7-.9 10.6 7.9 3.8 8.8zM433.9 561.9c-1.9.2-3.6-2.8-4.7-4-3.5-11.6 14.9 1.4 4.7 4zM645.8 552.7c-2.4-.8-6.8.8-7-3.2.8-8 16.7-.2 7 3.2zM495 598.2c-6.9-.5.5-12.7 4.8-9.8 3.5 2.5-1.9 9.3-4.8 9.8zM554 656.6c-6.7-1.1-1.2-12 3.3-8.1 2.3 2.3-.3 7.9-3.3 8.1zM503 708.2c-16-4.2 17.2-17.1 8.8-5.2-2.4 3.9-6.2 3.9-8.8 5.2zm.8-1.6zM301.7 489.9c-11.3-2.6 13.9-20.1 8.6-6.9-1.3.9-6.7 7.2-8.6 6.9zM463.8 422.8c-5.8-.5-.6-24.6 6.3-17.8-1.1 5-.1 15.8-6.3 17.8zM362.4 676.2c-6.2-.3-.9-11.1 3.5-8.4 3.3 2-.5 8.1-3.5 8.4z"/><path d="M426.4 554.5c-5.2-.1-13.9-7.6-5.6-9.5 3 0 5 5 6.7 3.1 6.8-2.1 4.5 7.6-1.1 6.4zM529.7 429.7c-8.5-5.1-12.8-16.8-16.8-24.6 4.4-4.5 16.2 7.9 13.1 12.5.3 3.1 12.3 9.6 3.7 12.1zM388.9 713.9c-3.2-.3-8.3-1.5-7.1-5.4 3.7-5.8 19.1 3.8 7.1 5.4zM344 462.9c-4.3-.7-6-4.8-4.4-7.6 4-4.3 11.2 7.1 4.4 7.6zm-4.1-3.3zM603.6 259.2c-2.2-.7-5-2.5-5.6-4.9 1-9 14.6 2.8 5.6 4.9zM576.2 359c-8.5-.8-5.6-19.1.6-10.2-.6 4.2 5.8 8.8-.6 10.2zM547.9 428.5c-6.6-.1-6.2-10.8.1-6.7 8.2-2.4 7.7 7.2-.1 6.7zM607.1 552.4c-4.9 1.4-10.8-4.7-3.8-6.3 4.7-1.3 10.4 4.5 3.8 6.3zM482 320.2c-9.2-1.7 5.5-15.8 8-7.2-.7 3.1-5.1 5.3-8 7.2z"/><path d="M599.9 263.4c-12.2-.9.7-19.4 1.3-6.6.6 1.8 3.7 6.1-1.3 6.6zm.4-6zM238.1 563.5c-3.9-1.7-13.6-7.8-4.2-10.3 6.2.1 10.2 9.2 4.2 10.3zM424.2 552.7c-2.8-.4-6.8-5.6-3.5-7.9 4.2-2.8 9.9 7.2 3.5 7.9zm.6-7.1zM604.9 606.2c-7.9-9.4 29.4-32 36.1-42.4 66.4-59.4-18.2 30.8-36.1 42.4zM545 247.6c-10-2.7 7-14.7 4.3-3.7-1.5 1.4-1.9 3.7-4.3 3.7zm-.6-7zm0 0zM443.7 665.1c-3.4.1-4.1-5.1-.8-5.9 4.2-.8 1.2-5.9 5.5-5.9 7 1.8.9 11.8-4.7 11.8zM340.3 465.6c-2.2-.3-3.4-1.9-4.7-3.8-.7-10.1 14.1 1.9 4.7 3.8zM622.6 391.2c-8.2-1.3 5.1-14.1 8.8-12.6 4.1 4.3-4.3 11.3-8.8 12.6zM270.1 563.2c-8.1-1.2 2.9-13.7 4.6-5.2-.5 3.3-2.3 4.7-4.6 5.2zM538.2 665.1c-2.1-.5-4.8-2.2-5.1-4.5 1.4-8.5 13.7 2.9 5.1 4.5zm1.6-5.6zM445.9 677.3c-11.9.1 2.7-13.3 3.9-3.8-.1 2.2-1.9 3.9-3.9 3.8zm-.4-.3zM455 504.4c-9.7-10.5-29.3-22.9-32.8-35.7 7.6.2 40.6 29.3 32.8 35.7zM438.4 566.4c-1.5.2-3-1.8-4-2.7-4.5-11.1 14.5-.4 4 2.7zM533.9 677.8c-8.2-1.1 3.3-14.8 7-8.4.9 3.2-4.2 7.1-7 8.4z"/><path d="M551.1 662.2c-10.8-7.4 15.6-21.1 20.1-29.5 13.2-9.3 22.1-24.3 34.4-32.4 1 18.5-43.1 43.9-54.5 61.9zM512.3 406.5c-2.2.3-4.3-4.1-5.6-5.4-2.9-12.3 15.7 3.2 5.6 5.4zM629.7 291.2c-3.5-1.3-12.2-5.8-5.1-8.6 5.5-.9 11.9 7.1 5.1 8.6zM438.2 760.9c-8.9-3.3 5.6-10.5 8.3-14.5 12.4-2.3-3.3 13.6-8.3 14.5zM526.3 354.5c-7.8-1.5 2.4-14 6.7-11.6 4 3.6-4.1 10.1-6.7 11.6zM577.5 479.6c-3.7-.7-11.4-12.2-2.9-12.2 2.4 2.1 9.9 10.7 2.9 12.2zM428.1 559.3c-3-.5-7.5-6.9-3.3-8.9 4.3-1.9 9.9 7.9 3.3 8.9zm.7-7.4zM338.4 469c-10.1-2.6 7.9-15.2 4.5-3.8-1.1 1.2-2.6 4-4.5 3.8zM488.3 427.8c-9.3-2.8 5.1-10.8 6.4-3.5.3 3.6-4 3.4-6.4 3.5zM739.2 474.6c-14.7-2.6 12.4-17.8 7.4-5.7-2.3 1.9-4.3 5.7-7.4 5.7zm-.9-5.7zM501.8 289.8c-8.9-1.6 6.5-17.8 10.4-11.3.2 4.3-7 8.8-10.4 11.3zM417.3 374.3c-8.7-1.4 5.1-16.3 8.8-9.7.5 3.9-5.8 7.6-8.8 9.7zM369.6 421.2c-10.5-1.1 7.5-17.3 10.3-9.6-.6 3.6-6.8 8.1-10.3 9.6zM321.5 470.1c-8.3-1.2 4.1-15.6 7.9-9.7 1.1 3.7-4.9 8.1-7.9 9.7zM464.5 641.1c-4.7-4.7-31-22.8-21.4-27.1 4.7 3.6 31.1 23.3 21.4 27.1zM548.7 331c-8.6-1.5 3.6-13 5.1-4.6-.2 2.4-2.8 4.1-5.1 4.6zm-1.3-5.7zM665.1 458.5c-8.1-2.8 2.4-7.1 4.3-11 10.2-4.2 2.4 11.2-4.3 11z"/><path d="M672.8 451.3c-6.2-.7-1-8.9 3-8 4.5 1.8.7 8-3 8zM380.9 410.2c-9.3-1.7 6.5-16.3 8-6.8-1.6 2.9-4.4 5.4-8 6.8z"/><path d="M389.3 401.2c-8.1-1.2 3.8-13.6 7.5-9.8 2.7 3.9-4 8.6-7.5 9.8zM587.5 383c-6.1-.7-2.9-9.4 2-7.6 3.5 1.4 1.2 7.5-2 7.6zm-1.9-6zM593.3 338.7c-5.9-1.4-24-21.1-10.3-17.5 1.3 4.9 19.7 13.3 10.3 17.5zM531.8 347.9c-8.6-3 11.3-21.1 15.9-19.8 2.6 7.1-10.7 15.6-15.9 19.8zM427.1 772.5c-8.5-2 6.8-16.3 10.6-15 4.4 5.1-6.8 12.6-10.6 15zM256.1 548.2c-3.6.1-4.6-6.6-.8-7.3 4.3-.9 5.4 7.3.8 7.3zM349.2 693.1c-6.6-.8.3-10.4 3.3-10.7 6.5 1.4.3 10.8-3.3 10.7z"/><path fill="none" d="M600 600h300v300H600z"/><path d="M718.8 863.6c2.8 12.5 11.8 17.9 26.1 17.9s20.4-5.7 20.4-14.7c0-10.1-6-14.5-27.2-19.4-33.8-7.9-42.1-20.2-42.1-37 0-21.6 16.2-36.3 45.6-36.3 32.9 0 46.1 17.7 47.9 35.9h-27c-1.3-7.6-5.5-15.9-21.5-15.9-10.9 0-17.5 4.5-17.5 13.3 0 8.6 5.3 12.1 25.3 16.8 36.1 8.5 44 21.9 44 39.4 0 22.7-17.1 38.2-49.9 38.2-31.5 0-48.1-15.5-51.1-38.1h27zM859.6 899.9v-26.6H806v-22.4l49.4-69.4h28.1v71h14.3l-2.4 20.8h-11.9v26.6h-23.9zm0-68.5c0-12.8 0-20 .5-27.4-4.7 9.9-20.1 32.5-31.3 48.5h30.8v-21.1zM352.9 883.1c-2.3 0-4.9-.4-7.9-1.3-.9-.3-1.9-.6-2.8-.9-5.3-1.6-10.8-3.2-16.8-6.8-9.9-5.9-16.8-12.5-21.6-20.8-5.5-6.8-8.3-13.5-11.1-19.9l-1.2-2.7c-1.7-3.8-2-3.8-3.9-3.5l-4.5.6c-11.8 1.7-23.9 3.4-38.5 1-3.4-.6-7.5-1.4-11.7-3-11.1-4.2-19.7-13.8-26.7-22.6l-.9-1.1c-2.7-3.4-5.5-6.9-7-10.7l-.1-.3c-.3-1.2.2-1.9.5-2.3.3-.3.9-.9 2.1-.8l.4.1c1.7.5 2.9 1.5 3.9 2.6-.2-.5-.5-1-.7-1.4-3-6.1-3.6-11.1-4.2-15.9-.1-.6-.2-1.3-.2-1.9-1.4-10.4 1.7-17.6 5-24.1.4-.7 1.1-2.2 2.8-2.7 1.3-.4 2.7-.1 4.3.9 3.4 1.9 4.4 4.6 5.4 7l.1.2c1.6 4 4.4 8.3 8.3 12.8-.7-1.9-1.5-3.8-2.3-5.7-2.6-6.3-5.2-12.9-6.4-19-1-5.3-.8-10-.7-14.4.1-1.6.1-3.3.1-5 0-1.8 1-2.7 1.5-3.1.9-.6 2.5-1 5.2.1 2.4 1 4.6 3 6 5.7.7 1.3 1.3 2.5 1.9 3.8.7 1.4 1.3 2.7 2 4 3.4 5.9 7.6 11.6 12.9 17.3-5.3-11-6.9-22.2-3.9-30 1.6-4.2 4.5-7.2 8.2-8.5.3-.1.7-.5 1.1-.9l.5-.5c2-1.8 4.2-2.6 6.7-2.4 4.4.3 9.3 3.8 14.9 10.6 2.9 3.5 5.4 6.2 8.3 8.5-.9-1.6-1.9-3.2-2.9-4.8-2.3-3.7-4.7-7.5-6-11.4-2.7-8.1-.3-12.1 2.2-14 2.5-1.9 5-4 7.4-6l.1-.1c1.7-1.5 3.5-2 5.4-1.7 2.8.5 5.3 3 8.3 8.1 4.4 7.7 10.1 13.3 17.3 17-.9-1.4-1.8-2.8-2.8-4.3-1-1.4-2-2.9-2.9-4.4-6.2-10.3-9-19.7-10.9-27.6-1.8-7.5.6-12.4 3-15.8 2.7-3.9 6.6-8.5 13.5-9.8 2.7-.5 5.7-.4 8.6-.4 1.3 0 2.7.1 4 .1.5 0 1 0 1.4.1h.2c-.3-.3-.7-.7-1.1-1l-.2-.2c-3.1-2.7-6.3-4.5-10.3-5.8-4.1-1.4-8.1-2-12.6-2h-1c-2.5.1-6 .2-9.7-4.3-4.3-5.2-4.8-9.8-4.4-12.9.7-6.7 5.4-9.6 9.5-12.1 2.5-1.6 5.2-2.6 7.9-3.7 2-.8 3.9-1.5 5.6-2.5 3.7-1.9 5-6.3 6.5-11l.1-.3c1.4-4.3 3.8-7.5 7.3-9.3 5-2.6 11.9-2.4 21.1.6 3.8 1.3 6.5 4 7.8 8.1 2.1 6.4 2.5 12.2 1.4 18.9-1 5.8-1.1 12.5-1.2 18.7 0 2 .6 4.4 2 7.1-.2-5.7-.1-11.2.9-16.2 1.9-9.4 5.1-18.5 15.1-20.6 9.7-2.1 22 4.6 32.2 17.6 3.5 4.5 4.4 8.8 5.1 12.7 1.3 7.9.7 14.7.2 21.3-.1 1.9-.3 3.8-.4 5.7-.2 3.6.2 7.8 1.2 12.7.1.4.2.7.2 1.1-.6-4-.6-7.9.1-12 1.5-9.2 6.7-15.6 15.9-19.6.7-.3 1.5-.6 2.2-.8.9-.3 1.7-.6 2.4-1 3.3-1.8 7.7-.2 11.9 1.3l.4.1c.8.3 1.3.4 1.7.5-.1-.4-.2-.9-.4-1.7-.6-1.9-1.2-4-.4-5.7.8-1.9 1.3-4.1 1.8-6.5.4-2 .9-4.2 1.6-6.1 2.9-7.9 10.3-10 16.4-10.9 2.9-.4 6.1-.4 9.2-.3 3.3 0 6.5.1 9.2-.4.4-.1.7-.1 1.1-.1.3 0 .6-.1.8-.1l.7-.1c.9-.2 2.5-.5 2.6-.9 0 0 .4-.8-1.2-3.6l-3.2-5.9 5.9 3.2c.3.2.6.3 1 .5.7.4 1.5.8 2.2 1.2 7.4 4.6 11.6 4.9 13.1 3.7 1.6-1.3 1.4-5.4-.7-10.9-.3-.7-.4-1.4-.5-2 0-.1-.1-.3-.1-.4-10.7-16.3-12.6-21.7-5.9-32.2 4.7-7.3 12.5-11.4 22.5-11.9 8.2-.4 16.9 1.6 26.1 5.9.9.4 1.7.8 2.6 1.1.4.2.8.4 1.3.5l.2.1c7.5 4.3 13.3 9 18.5 14.7 4.7 5.2 7.6 10.3 8.9 15.4.5 2.1 1.5 4.4 2.5 6.7l.6 1.5c3.9 8.9 5.8 16.3 5.9 22.7.1 5.6-2.6 9-5.3 11.5-6.7 6.4-18.1 3.3-29.2-.4-1.2-.4-2.3-.8-3.5-1.2-6.4-2.2-12.5-4.3-18-4.5-6-.2-10.1.8-12.5 3-1.8 1.7-2.7 4.3-2.7 7.8 0 7.4 3.1 16.7 5.8 24 4.9 13.2 9.9 28.2 5.7 38.6-2.3 5.8-5.3 11.6-11.7 14.2-.2.1-.5.2-.7.2-2.7 3.9-8 2.9-12.6 2-1.1-.2-2.1-.4-3.1-.5-3.5-.5-6.8-2.9-10-7.1-2.8-3.7-1.9-5.9-.8-7.8.1-.1.2-.3.2-.4 4.2-7.5 4.3-17.5.2-29.5-.1-.2-.1-.4-.2-.5.1 1.8.1 3.7 0 5.4-.7 11.4-4.9 21-12.7 29.2-3.7 3.9-8.5 6.4-12.8 8.5.6.9 1.5 1.5 2.8 2 9.3 3.9 16.4 5.4 21.7 4.4.2 0 .3-.1.5-.1 2-.4 4.2-.6 7 2.4 3.1 3.2 2.6 5.7 2.3 7.5v.2c-2.1 12-5.4 21.4-10.2 28.6-5 7.6-13.2 10.2-24.4 7.8-4.5-1-9.3-2.9-13.9-5.6-5.6-3.3-9.2-6.8-8.6-13.3.1-1.2.2-2.5.2-3.8.1-2.2.2-4.5.6-6.6 0-.2.1-.4.1-.6-.5.7-1 1.5-1.5 2.4-.5.8-1 1.7-1.6 2.5-7.2 9.6-19.7 11.3-37.1 4.8 2.7 1.7 5.2 3.2 7.5 4.5 5.2 3 10.7 6 15.8 7.6 3 .9 5.3 2.8 6.7 5.5.9 1.6 1.1 3 .7 4.2-.6 1.6-2 2.2-2.5 2.4-2.7 1.2-4.4 3.7-6.2 6.4-.6.9-1.2 1.8-1.9 2.7-2 2.7-4.4 5.1-6.7 7.4l-2.1 2.1c-.9.9-1.6 1.9-2.5 3-2 2.5-4.2 5.4-7.9 6.8l-1.1.4c-2.2.9-4.5 1.8-7.2 2.2-4.6.7-8.9-2.7-11-8.7-1.2-3.4-1.2-6.2-1.3-8.9 0-1.5-.1-2.9-.3-4.5 0-.2-.1-.4-.1-.7-2.3 6.7-8 9.7-17.2 9.2-5.7-.3-11.9-2.1-17.9-3.9l-1-.3c-5.9-1.7-12.7-5.2-18.6-8.2l-3.6-1.8c-2.8-1.4-5.7-2.9-8.7-4.7 1.3 1.8 2.7 3.3 4.2 4.6 11.9 10.4 24.5 21 37.2 24.9 2.4.7 4.1 2 5.6 4.1 1.8 2.5 1.2 4.2.9 5.4v.2c-.5 1.6-1 3.1-1.5 4.6-1.1 3.2-2.1 6.3-2.8 9.7-1 5.8 1.3 13 4.4 21.8.4 1.2.9 2.4 1.3 3.5 1.9 5.2 3.9 10.5 4.7 15.5 1.2 6.8-.8 13.4-5.2 17.3-2.2 2.2-5.6 4-10.7 4zm-64.4-59.9c3.4 0 4.8 1.9 6.6 6l1.2 2.7c2.8 6.5 5.4 12.7 10.6 19.1l.2.2c4.5 7.7 10.9 13.9 20.3 19.5 5.6 3.3 10.6 4.8 15.9 6.4 1 .3 1.9.6 2.9.9 6.2 1.9 11.4 1.4 14.8-1.6 3.4-2.9 4.9-8.2 3.9-13.6-.8-4.6-2.7-9.8-4.5-14.8-.4-1.2-.9-2.4-1.3-3.6-3.4-9.4-5.8-17.1-4.6-23.8.7-3.7 1.8-7.1 2.9-10.3l1.5-4.5.1-.2c.2-.8.3-1-.3-1.9-.9-1.3-2-2.1-3.5-2.6-13.4-4.2-26.4-15-38.6-25.7-2.4-2.1-4.6-4.7-6.5-7.8l-.1-.2c-.8-1.3-2.1-3.3-.7-5 1.7-2 4.2-.4 5.4.4 3.6 2.4 7.3 4.3 10.9 6.1 1.2.6 2.4 1.2 3.6 1.9 5.7 3 12.3 6.3 17.9 7.9l1 .3c5.8 1.7 11.8 3.4 17 3.7 7.8.4 12-1.9 13.5-7.4.5-1.8 0-4.6-.6-7.5-.2-1.2-.5-2.4-.7-3.6l-1.9-11.8 5.7 10.5c2.9 5.4 4.4 9.7 5.2 14.6.3 1.8.3 3.4.4 5 .1 2.5.1 4.9 1.1 7.7 1.4 4.1 4 6.4 6.6 6 2.3-.4 4.3-1.1 6.4-2l1.2-.5c2.7-1 4.4-3.2 6.2-5.5.9-1.1 1.7-2.2 2.8-3.3l2.1-2.1c2.3-2.3 4.4-4.5 6.3-7 .6-.8 1.2-1.6 1.7-2.5 1.9-2.9 4.1-6.2 7.9-7.9.1 0 .2-.1.2-.1 0-.2-.1-.5-.4-1-1-1.8-2.4-2.9-4.4-3.6-5.5-1.7-11.2-4.8-16.6-7.9-5.6-3.2-12.3-7.2-19.8-13.9l-8.7-7.8 10.8 4.4c1.7.7 3.2 1.3 4.6 1.9 2.1.8 3.9 1.6 5.8 2.4 17.5 7.2 29.2 6.5 35.7-2.2.5-.6.9-1.3 1.3-2.1 1.1-1.9 2.4-4.2 4.9-5.4l1.6-.8 1 1.5c1.7 2.8 1.6 4.4 1.3 5.7-.4 1.8-.4 3.8-.5 5.9 0 1.3-.1 2.7-.2 4.1-.3 3.5.6 5.9 6.7 9.4 4.2 2.5 8.6 4.3 12.7 5.2 9.5 2.1 16.1.1 20.2-6.1 4.4-6.7 7.6-15.6 9.6-27v-.2c.3-1.5.4-2.3-1.3-4-1.5-1.6-2.1-1.5-3.3-1.3-.2 0-.4.1-.6.1-6.2 1.1-13.8-.4-23.9-4.7-1.8-.8-3.9-1.9-5-4.3-.5-1.1-.6-2-.3-2.9.4-1.2 1.5-1.7 2.1-1.9l.2-.1c4.1-2 8.4-4.2 11.7-7.7 7.3-7.6 11-16.1 11.6-26.7.1-1.8 0-3.7-.1-5.7-.1-2.7-.2-5.5.1-8.1l.7-5.3 3 4.4c2.3 3.5 3.4 6.3 4.3 8.7 4.4 13.2 4.3 24.2-.5 32.8-.1.2-.2.3-.3.5-.6 1.1-.9 1.4.5 3.3 2.5 3.3 5 5.2 7.3 5.5 1.1.2 2.2.4 3.2.6 4.6.9 7.6 1.3 8.7-.6.6-1 1.6-1.2 2.1-1.4.1 0 .1 0 .2-.1 5-2.1 7.5-7 9.5-12 3.6-9.2-1.1-23.3-5.8-35.8-3-8-6.1-17.4-6.1-25.4 0-4.6 1.4-8.2 4-10.7 3.2-3.1 8.3-4.4 15.4-4.1 6 .2 12.7 2.5 19.1 4.7 1.2.4 2.3.8 3.5 1.2 10 3.3 20.1 6.1 25.2 1.2 2.5-2.4 4.1-4.6 4-8.5-.1-5.8-1.9-12.7-5.5-21.1-.2-.5-.4-1-.6-1.4-1.1-2.4-2.2-5-2.8-7.4-1.1-4.5-3.7-8.9-7.9-13.6-4.9-5.4-10.4-9.8-17.4-13.9-.4-.2-.7-.3-1.1-.5-.9-.4-1.8-.8-2.8-1.2-7.8-3.7-15.3-5.6-22.3-5.6l-3.7 4c-2.4 2.6-5.7 6.3-6.6 11.9-.5 3-.5 6.4-.5 9.7 0 3.2 0 6.5-.4 9.5-.2 1.7-.6 4.7-3.2 5.8 0 .1 0 .1.1.2 3.5 9.5 1.7 13.6-.5 15.4-2.3 1.9-6.9 2.9-16.3-2.5 0 .8-.1 1.4-.4 2.1-1 2.2-3.5 2.7-5.5 3.1l-.7.1c-.4.1-.8.1-1.2.2-.3 0-.5.1-.8.1-3.2.6-6.6.5-10 .5-2.9 0-5.9-.1-8.5.3-7.7 1.1-11.6 3.6-13.3 8.3-.6 1.7-1 3.6-1.4 5.6-.5 2.4-1 5-2 7.2-.1.5.3 2.1.6 2.9.7 2.3 1.2 4.6-.3 6.1s-3.9.8-6.1 0l-.4-.1c-3.2-1.2-6.9-2.5-8.6-1.5-1 .6-2.1.9-3.1 1.3-.7.2-1.3.4-1.9.7-7.9 3.5-12.2 8.8-13.5 16.6-.9 5.6-.6 10.5 1.1 16.2.3 1 .9 3-.4 4.3-.4.4-1.4 1.1-3 .5-2.3-.8-3.3-2.9-4.1-4.4l-.1-.2c-.8-1.6-1.3-3.3-1.7-5.3-1.1-5.3-1.5-9.8-1.2-13.7.1-2 .3-3.9.4-5.8.5-6.6 1-12.9-.2-20.4-.6-3.6-1.3-7.1-4.3-10.9-9.2-11.8-19.9-18-28.1-16.2-7.4 1.6-10.1 8.2-12 17.5-1.1 5.6-1 12.1-.7 18.9v.2c0 .7.1 2-1 2.9-.4.3-1.2.7-2.5.3-1.9-.7-2.9-2.4-3.5-3.6l-.1-.1c-2.1-3.8-3.1-7.3-3.1-10.4 0-6.5.1-13.3 1.2-19.4.7-4 1.2-9.6-1.2-17-1-2.9-2.6-4.7-5.3-5.5-8-2.6-14-2.9-18-.9-2.5 1.3-4.3 3.6-5.3 6.9l-.1.3c-1.6 5.2-3.3 10.7-8.5 13.4-1.9 1-4 1.8-6 2.6-2.6 1-5 2-7.2 3.3-3.8 2.4-7.1 4.5-7.6 9.2-.4 3.2.9 6.7 3.5 9.9 2.4 3 4.2 2.9 6.5 2.8h1.1c4.9 0 9.3.7 13.9 2.2 4.5 1.5 8.2 3.6 11.6 6.6l.2.2c1.3 1.1 2.7 2.4 3.1 4.3.2 1.2-.2 2.1-.5 2.6-.9 1.1-2.3 1.2-2.9 1.3-.6 0-1.2 0-1.7-.1-.4 0-.7-.1-.9-.1-1.4 0-2.8 0-4.2-.1-2.8-.1-5.4-.2-7.8.3-5.4 1.1-8.6 4.7-11 8.2-2 2.9-3.8 6.6-2.4 12.6 1.9 8 4.5 16.7 10.4 26.5.9 1.4 1.8 2.8 2.8 4.2 1.1 1.6 2.2 3.3 3.2 4.9 1.3 2.3 2.4 4.5 1 6.1-1.5 1.6-4 .4-5.6-.4-8.4-4.1-14.9-10.4-19.9-19.1-2.8-4.8-4.5-6-5.5-6.2-.4-.1-1-.1-2.1.8l-.1.1c-2.4 2-5 4.1-7.5 6.1-2.2 1.7-2.4 4.9-.9 9.5 1.2 3.5 3.4 7.1 5.6 10.6 1.1 1.8 2.3 3.7 3.3 5.5.1.2.3.5.4.7 1 1.7 2.7 4.6.4 6.3-2.1 1.6-4.5-.4-6-1.7-.3-.3-.6-.5-.9-.7-3.3-2.5-6-5.5-9.1-9.2-6-7.2-9.9-8.9-12.1-9.1-1.4-.1-2.6.3-3.7 1.4l-.4.4c-.6.6-1.4 1.4-2.6 1.8-2.7.9-4.6 3-5.8 6.1-2.8 7.4-.7 19.1 5.4 30l.2.4c1.1 1.9 2.3 4.2 2.3 6.7v4.5l-3.3-3.1c-9-8.2-15.8-16.5-20.8-25.3-.8-1.4-1.5-2.9-2.2-4.3-.6-1.2-1.1-2.4-1.8-3.6-1-1.8-2.5-3.3-4.1-4-.5-.2-.9-.3-1.1-.4 0 1.6-.1 3.2-.1 4.8-.2 4.5-.3 8.7.6 13.6 1.1 5.7 3.6 12.1 6.1 18.2 1 2.6 2.1 5.2 3.1 7.8.1.2.3.6.4.9.6 1.3 1.4 2.7.6 4.1-.2.4-.9 1.2-2.1 1.3-2.2.2-4.2-1.8-5.8-3.7-4.6-5.1-7.7-9.9-9.6-14.5l-.1-.2c-.8-2.1-1.5-3.7-3.6-5-.7-.4-1-.5-1.2-.5-.1.1-.2.3-.4.6-3.1 6.2-5.8 12.5-4.6 21.7.1.6.2 1.3.2 1.9.6 4.7 1.1 9.1 3.8 14.6 4.3 8.9 8.9 17.5 17.7 25.5.8.7 1.3 1.6 1.6 2.8l.9 3.3c2 1.2 4 2.3 6.2 3.1 3.9 1.5 7.5 2.2 10.9 2.8 13.9 2.3 25.3.7 37.3-1 1.5-.2 3-.4 4.6-.6.1.6.6.5 1.1.5zm175.1-111.5zm47.9-148.9c-.5.3-1 .5-1.4.8-3.5 2.1-5.2 5.8-7.2 10.8-1.4 3.4 2.1 9.6 4.8 14.1l.3.6c.3-2.7.3-5.6.3-8.4 0-3.4 0-7 .5-10.3.5-3 1.5-5.5 2.7-7.6zm6.8-7.4c-7.4 1-12.9 4.3-16.5 9.8-2.3 3.6-3.6 6.2-3.2 9.6.1-.7.3-1.3.5-1.9 1.9-4.5 4-9.7 8.8-12.6 2.4-1.5 5-2.6 7.1-3.5.7-.3 1.4-.6 2-.9l1.3-.5z"/><path fill="#CCC" d="M488.5 604.9c.7.7 1.3 1.4 2.1 2 5.5 4.5 6 5.6 2 6.5-6.2 1.4-12.8 2.3-20.1 2-12.9-.5-21.7 3.8-22.4 17.1-.1 1.5-.6 2.8-1.1 4-.6 1.4-.2 3.1.9 5.4 1.8 3.9.1 7-3.3 5.2-11.3-6.2-15.9-1.6-21.2 1.3-7.2 3.9-10.7 11.4-10.8 21.7 0 4 2.2 9 2.5 13.1.1 1.6 1.2 4.2-.7 4-1.8-.2-3.6-2.9-5.2-4.7-3.5-4-4.3-7.6-5-11-1.8-8.4-1.1-15.4-.3-22.2.7-6 .2-12.6-.8-19.5-.8-5.8-8.6-15.1-15.5-19.1-10.2-5.8-18.6-5.1-22.6 1-6.1 9.2-7.6 21.6-5.2 36.8.2 1 .5 2.1-.7 1.9-1.2-.2-2.4-1.3-3.4-2.5-5.3-6.2-7.4-11.9-7.5-16.9-.1-8.1.5-15.6 1.7-22.7.6-3.8 0-8.3-1.3-13.2-.7-2.6-2.2-4-4.7-4.8-12.7-3.7-21.5-2.1-23.9 8-1.9 7.9-7 12.3-14.1 15-6.5 2.5-13.7 4.6-15 12.8-.2 1-.3 2 0 3.3 1.5 6.2 3.6 8.3 8.8 8.2 6.1-.1 12.5.6 20.3 4.6 4.1 2.1 8.3 4.6 11.7 9.4 1.7 2.5 1.9 3.9-.3 3.8-3.6-.1-7.2-.2-10.9-.3-13.9-.6-21 6.2-21.3 19.6-.2 9.1 5 20.7 12.7 32.4 2.3 3.5 4.4 7 7.4 10.4 1.9 2.1 2 3.3-.4 2.6-10.1-2.9-20.6-9.8-27.7-22.4-3.4-6-4.6-6.8-7.4-4.4-2.5 2.1-4.7 4.5-7.6 6.1-3.7 2.1-2.4 10.2 1.9 17 3.4 5.3 7.2 10.7 8.9 16 1.1 3.3 0 4-3.2 1.4-5.2-4.2-10.4-8.2-14.8-13.9-6.7-8.6-11.8-10.6-15.9-6.8-2.7 2.5-6.6 3.7-8.3 7.4-4.3 9.3-1.2 21.8 7.5 36.9l.6.9c1.2 1.9 4.5 4.2 3.4 5.4-1.1 1.3-3.8-1.9-5.6-3.4-6.1-5.1-11.3-10.9-16.4-17.2-4.6-5.7-7.3-11.1-10-16.7-.8-1.6-1.6-3.2-3.4-4-1.5-.6-2.3-.2-2.2 1.1.4 6.6-.9 12.1.9 19.6 2.2 9.1 6.3 18.6 10.9 28.4.8 1.7 2.4 3.8 1.4 4.5-1.2.9-3.2-1.4-4.9-2.7-7.8-5.9-12.5-12.9-15.5-20.4-.5-1.2-.6-2.5-2-3.4-1.7-1.2-2.1-.1-2.5.6-4.8 8.2-7.3 18.3-3.2 32.2 2.8 9.3 7.2 19.9 18 29.5 2.8 2.5 4.7 5.9 7.8 8.3.4.3 1 1.3 1 1.7 0 .9-1 .5-1.9.2-4.6-1.9-8.8-6-12.9-9.9-7-6.5-12.4-13.8-17.2-21.4-5.9-9.4-6.9-17-7.8-24.7-1.1-9.7 1.1-17 3.4-24.3.9-3 3.9-3.9 5.6-6 2-2.5.8-6.8-3.5-11.5-2.5-2.7-4.9-5.3-7.7-7.6-2.2-1.8-4.1-3.9-5.5-6.3-.3-1-2.1-2.5-.7-2.8 5.5 2.6 5.9 2.7 6.2-2 .5-8.5 1-17.1 1.6-25.4.7-8.8 2.9-16.4 10.6-19.1 5.4-1.9 17.4 2.8 26.3 10.2 3 2.6 3.6 4.9 3.4 7-.3 4 0 8.4 1.7 13.4.5 1.4 1.1 3.3 2.7 4.3 2 1.2 1.9-.6 2.2-1.4 3.7-9 9.7-15.6 18.4-19.4.7-.3 1.7-.6.5-2.2-.9-1.2-2-1.5-2.9-1.7-.8-.2-1.5-.1-2.2-.1-4.9.1-6.8-1.2-10.7-7.6-6.9-11.2-10.5-21.4-11.9-31.1-1.1-8.3-.2-14.8 4.9-18.2 2.4-1.6 5.2-2.5 9.1-1.8 4.7.9 8.8 4.7 10.9 10 2.9 7.4 5.5 14.8 8 22.1 1.2 3.6 2.6 7.4 5.3 11.2.2.1.3.2.5.3 0-.1.1-.3.1-.3s.2-.1.1-.2c2.1-9.9 3.3-20.4 5.9-29.9.3-1.4 1.2-2.4 0-4.7-.3-.2-.5-.3-.7-.5-2.6-1.1-1.2 1.8-1.9 2.5-3.5.9-5.8-.8-8.5-6.3-5.9-11.7-7.3-21.6-7.7-30.9-.4-10.9 2.6-19.1 9.2-24.2 3.9-3 9.3-3.4 16.9-.1 5 2.1 7.4 4.9 7.6 9.4.2 3.7.5 7.4 1.7 11.6.4 1.4.8 3.1 2.5 4.3 1.9 1.3 2.2 0 2.7-.9 3.6-7.5 10.5-11.3 17.8-14.8 6.1-3 12.9-5.1 18.9-8.4 6.1-3.4 6.4-10.4.1-21.4-5.1-8.9-10.8-17.8-15.7-26.7-5.8-10.3-8.1-18.7-3.3-23.7 3.7-3.9 1.6-9.5-5.7-17.3-2.1-2.2-4.1-4.6-6.3-6.6-8.4-7.6-11.2-14.7-10.9-21.2.5-10.4 4.6-14.2 17.9-7.5 4.6 2.3 9.2 6 13.7 9.7 4.9 4 9.9 8 14.9 11.7 4.5 3.3 4.9 3.1 3.6-1.1-1.5-5.1-3.4-10.2-3.6-14.7-.3-6.3 2.6-9.6 8.2-10.1 3-.3 6.5.1 10.2 1 2.2.5 4.1.5 5.8.2.9-.1 1.8-.3 1.4-1.7-.5-1.6-1.9-2.6-3.2-3.6-3.3-2.3-6.2-3.4-8.7-3.3-2.5.1-4.8.6-6.5 2-1.9 1.5-4.4.5-8.3-2.7-12-9.8-15.2-21.4-9.8-26 8.1-6.8 18.9-9.3 34.2-5.2 1.9 1.4 3.7 2.5 5.7 3.3 11.9 4.9 15.9 8.8 22.7 21.7.5 3.2.9 6.3 1.2 9.4.3 2.9.7 5.9.7 8.4.2-1.2-.3-3.4 1.6-3.5.5-.1 1.1.1 1.8.6 1.3 4.1.1 6.6-.3 9.8-2.9 8-5.4 16.4-11.4 21.6-3 2.7-7.2 4.3-11.8 5-3.2.5-3.3 1.1-.5 5.7 5.7 9.1 11.8 18.2 14.2 27.1 1.9 7.1-.2 10.7-4.1 13-5.8 3.5-14.6 2.6-22.1 3.7-5.4.8-11.6.5-14.3 4.8 10.6 10.9 19.8 22.2 25.3 34.5 3 6.8 4.9 13.3 5.8 19.3.8 6.1 1.5 6.8 7.7 8.6 8.8 2.6 17.7 5.9 27.3 12.2 7.5 4.9 13.4 11.3 17.8 18.9 2.9 5 2.9 4.9 5.7 3.5 6.3-3.2 10.1-9 16-12.7 6.8-4.3 15.4-6.1 24.6-7 3.7-.5 7.4-1.6 13.3 2.6z"/><path d="M232 824.1c-.8 0-1.6-.3-2.1-.6-4.6-1.9-8.6-5.7-12.5-9.3l-1-1c-6.3-5.9-12.1-13.1-17.5-21.8-6.3-10-7.2-18.2-8.1-25.5-1.2-10 1.1-17.6 3.4-24.9l.1-.2c.7-2.5 2.6-3.8 4-5 .8-.6 1.5-1.1 2-1.7 1.3-1.6 0-5.2-3.4-8.9l-.1-.1c-2.3-2.5-4.7-5.1-7.4-7.3-2.6-2.1-4.6-4.4-6-6.9l-.1-.3c0-.1-.2-.4-.4-.6-.5-.8-1.4-2-.8-3.4.2-.5.7-1.3 2-1.5l.6-.1.6.3c1.1.5 2.4 1.1 3.2 1.4.1-.6.1-1.4.1-1.7.1-2 .2-4 .4-6 .4-6.4.8-13 1.3-19.4.7-8 2.6-17.6 12-20.8 6.8-2.3 20 3.7 28.2 10.6 3.1 2.6 4.4 5.3 4.1 8.7-.3 4.4.2 8.4 1.6 12.6v.1c.3.9.6 1.9 1.2 2.5 3.9-9.3 10.2-16.1 18.7-20.1-.3-.3-.7-.4-1.4-.5-.4-.1-.8-.1-1.3-.1h-.4c-6 .1-8.5-2.1-12.4-8.5-6.7-10.8-10.7-21.3-12.2-31.9-.9-6.4-1.3-15.5 5.7-20.1 3.3-2.2 6.6-2.8 10.6-2.1 5.3 1 10.1 5.3 12.4 11.2 2.8 7.2 5.5 14.7 8 22.2.8 2.3 1.6 4.8 3 7.3.5-2.6.9-5.2 1.4-7.8 1-6.1 2.1-12.3 3.7-18.2 0-.1.1-.2.1-.4l-.3.1c-5.5 1.5-8.5-2.7-10.8-7.3-6.4-12.6-7.6-23.1-7.9-31.8-.5-11.7 2.9-20.4 10-25.9 4.8-3.6 11.1-3.8 18.9-.4 5.8 2.5 8.6 6 8.8 11.1.2 3.9.5 7.3 1.6 11.1l.1.3c.3 1.2.6 2 1.4 2.7 3.8-7.9 11-11.9 18.6-15.7 2.7-1.3 5.5-2.5 8.3-3.6 3.6-1.5 7.2-3 10.5-4.8 1.8-1 2.9-2.3 3.4-4.1.9-3.4-.5-8.3-4.1-14.6-2.3-3.9-4.7-7.9-7-11.8-2.9-4.9-6-9.9-8.7-14.9-4.4-7.9-9.5-19.2-3-26.1 1.1-1.2 4-4.2-5.7-14.5-.6-.6-1.1-1.2-1.7-1.9-1.5-1.6-3-3.2-4.5-4.6-8-7.3-11.9-15-11.6-22.8.2-3.9.9-9.3 4.8-11.7 3.5-2 8.6-1.3 16 2.5 4.7 2.4 9.3 6.1 13.8 9.7l1.1.8c4.6 3.7 9.3 7.5 14 11 .1.1.1.1.2.1-.1-.5-.3-.9-.4-1.4-1.4-4.3-2.8-8.8-2.9-12.9-.3-7.2 3.3-11.5 10-12.1 3-.3 6.5 0 10.8 1 1.5.3 2.9.4 4.4.3-.5-.6-1.2-1.1-2-1.7-2.9-2-5.4-3-7.5-2.9-2.6.2-4.3.6-5.4 1.5-3.8 3.1-8.3-.7-10.8-2.7-8.1-6.6-13-14.6-13-21.3 0-3.2 1.1-5.9 3.3-7.7 9.3-7.8 21-9.6 36-5.6l.3.1.3.2c2 1.4 3.7 2.4 5.3 3.1 12.2 5.1 16.7 9.3 23.7 22.6l.1.3.1.3c.5 2.9.9 6 1.2 9.6l.3 2.7v.4c1 0 2 .3 3 1l.5.4.2.6c1.1 3.5.6 6 .2 8.3-.1.8-.3 1.5-.4 2.2v.3l-.1.2c-.3.8-.6 1.6-.9 2.5-2.6 7.3-5.3 14.9-11 19.9-3.2 2.8-7.5 4.7-12.8 5.5-.2 0-.4.1-.6.1.4.8 1.2 2.1 1.5 2.5.7 1.1 1.4 2.3 2.1 3.4 5 7.9 10.1 16.1 12.3 24.2 1.9 7.1.3 12-5 15.2-4.4 2.7-10.2 3-15.8 3.3-2.4.1-4.8.3-7 .6-1 .1-2.1.3-3.1.4-3.5.4-6.8.7-8.8 2.4 11.9 12.3 19.7 23.1 24.4 33.8 3.1 6.9 5 13.5 5.9 19.9.7 5.3.8 5.3 6.3 7 8.5 2.5 17.7 5.8 27.9 12.5 7.6 5 13.8 11.6 18.5 19.5.8 1.3 1.6 2.7 2 3.2.3-.1.6-.3.9-.4l.1-.1c3.2-1.6 5.8-4 8.5-6.5 2.3-2.1 4.6-4.3 7.4-6 6.3-3.9 14.1-6.2 25.5-7.3.4 0 .9-.1 1.3-.1 3.6-.4 7.6-.9 13.5 3.3l.2.2.7.7c.4.4.9.9 1.3 1.2 3.6 2.9 5.8 4.9 5.3 7.1-.5 2.1-2.8 2.6-4.1 2.9-7.3 1.7-13.9 2.3-20.7 2.1-13.3-.5-19.8 4.3-20.4 15.2-.1 2-.8 3.5-1.3 4.7-.3.7 0 1.9.8 3.8 1.4 3 1.2 5.9-.5 7.5-1.4 1.3-3.5 1.4-5.6.2-8.9-4.9-12.8-2.6-17.3.1-.7.4-1.4.8-2 1.2-6.4 3.5-9.6 10.2-9.7 20 0 1.9.6 4.2 1.2 6.5.6 2.1 1.2 4.3 1.3 6.4 0 .3.1.7.2 1.1.3 1.4.6 3-.5 4.2-.4.4-1.2 1-2.5.8-2.3-.3-4-2.4-5.6-4.3-.3-.4-.6-.7-.9-1-3.8-4.4-4.7-8.4-5.4-11.9-1.9-9.1-1.1-16.7-.4-22.9.6-5.1.3-11.1-.8-19-.7-5-8-13.9-14.6-17.6-9-5.1-16.4-5-20 .4-5.7 8.6-7.3 20.2-4.9 35.4l.1.3c.1.8.4 2.2-.6 3.1-.3.4-1.1.9-2.5.7-1.5-.3-3-1.3-4.6-3.1-5.2-6.1-7.9-12.2-8-18.2-.1-7.7.4-15.3 1.8-23.1.5-3.2.1-7.2-1.3-12.3-.5-1.9-1.4-2.8-3.3-3.4-7.7-2.2-13.4-2.3-16.9-.2-2.2 1.3-3.7 3.5-4.5 6.8-1.9 7.9-6.9 13.3-15.4 16.5l-1.2.5c-5.9 2.2-11.4 4.3-12.5 10.8-.1.8-.2 1.5 0 2.5 1.4 5.8 3.1 6.7 6.8 6.6 5.7-.1 12.7.4 21.3 4.9 4.3 2.3 8.8 4.9 12.4 10.1 1.2 1.7 2.3 3.7 1.3 5.4-.4.7-1.3 1.6-3.3 1.5-1.5-.1-2.9-.1-4.4-.1-2.1-.1-4.3-.1-6.5-.2-6.3-.3-11.1 1.1-14.3 4-3.1 2.9-4.7 7.5-4.8 13.6-.1 7.9 4.1 18.7 12.4 31.2.5.7.9 1.4 1.4 2.1 1.8 2.8 3.5 5.5 5.9 8.1.8.8 2.8 3 1.6 4.9-.7 1.2-2.1 1.5-4 .9-12.1-3.4-22.4-11.7-28.9-23.4-2-3.6-2.9-4.5-3.2-4.6 0 0-.3.1-1.1.8-.6.6-1.3 1.1-1.9 1.7-1.8 1.6-3.7 3.3-6 4.7-.5.3-.8.8-1 1.6-.7 3 .7 8.2 3.5 12.6.5.8 1.1 1.7 1.6 2.6 2.9 4.5 6 9.2 7.5 13.9.3.9 1.2 3.8-.7 5.1-2 1.4-4.6-.7-5.7-1.6l-1.6-1.3c-4.6-3.8-9.4-7.6-13.5-12.9-4.9-6.2-8-7.7-9.8-7.9-1.1-.1-2.1.3-3.2 1.3s-2.3 1.8-3.4 2.5c-1.9 1.3-3.6 2.4-4.5 4.2-3.8 8.3-1.4 19.7 7.5 35 .1.1.1.2.2.3.1.2.2.3.3.5.3.5.9 1.1 1.4 1.7 1.5 1.6 3.7 3.9 1.8 6.1-.5.6-1.2.9-2 1-1.8.1-3.5-1.4-5.2-3-.4-.4-.8-.8-1.2-1.1-5.4-4.5-10.6-9.9-16.7-17.5-4.8-6-7.6-11.6-10.2-17.1-.6-1.2-1.1-2.1-1.8-2.6.1 2 0 3.9-.1 5.8-.1 3.9-.3 7.7.8 12.2 2.4 9.7 7 20.1 10.7 28 .2.4.4.7.6 1.1.9 1.6 2.3 4.3.2 5.9-2.2 1.6-4.5-.4-6.2-1.8-.4-.3-.7-.6-1.1-.9-7.4-5.6-12.7-12.6-16.2-21.3l-.3-.9c-.2-.7-.4-1.1-.8-1.5-5.4 9.2-6.3 18.9-2.9 30.4 2.6 8.8 6.7 19 17.4 28.6 1.4 1.2 2.5 2.6 3.6 3.9 1.3 1.6 2.6 3.1 4.1 4.3.6.5 1.8 2 1.8 3.2 0 .9-.4 1.7-1 2.2-.4.5-.9.6-1.3.6zm-1.5-2.1zM188 710.9c1 1.3 2.2 2.6 3.8 3.8 2.9 2.3 5.4 5 7.8 7.7l.1.1c5 5.4 6.4 10.7 3.6 14.1-.8 1-1.8 1.7-2.7 2.4-1.4 1.1-2.3 1.8-2.6 2.9l-.1.2c-2.2 7.3-4.3 14.1-3.2 23.3.8 7.2 1.7 14.6 7.5 23.8 5.3 8.4 10.8 15.3 16.9 21l1 1 3.9 3.6c-.6-.6-1.1-1.2-1.7-1.7-11.5-10.3-16-21.7-18.6-30.4-3.7-12.7-2.7-23.4 3.4-33.8l.1-.2c.3-.6.9-1.6 2.2-1.9 1.4-.3 2.7.5 3.1.8 1.7 1.1 2.2 2.6 2.6 3.7.1.2.1.4.2.6 3.2 8 8.1 14.4 14.9 19.6.1.1.2.2.3.2-3.8-8-8.4-18.4-10.8-28.3-1.2-5-1.1-9.2-1-13.2.1-2.3.1-4.4 0-6.7-.1-1.7.7-2.6 1.2-3 .7-.5 1.9-.9 3.7-.1 2.6 1.1 3.7 3.4 4.4 4.9 2.6 5.3 5.2 10.7 9.8 16.4 5 6.3 9.4 11 13.7 14.9-8.7-15.7-10.9-27.9-6.7-37.1 1.3-2.9 3.8-4.5 5.9-5.9 1.1-.7 2-1.3 2.9-2.1 1.9-1.7 3.9-2.5 6.2-2.3 3.8.3 7.8 3.3 12.6 9.4 3.8 4.9 8.2 8.5 12.9 12.3l1.3 1.1c-1.5-3.9-4.1-7.9-6.7-11.9-.6-.9-1.1-1.7-1.7-2.6-3.5-5.4-5.1-11.6-4.1-15.7.5-1.9 1.4-3.3 2.9-4.1 1.9-1.1 3.6-2.6 5.3-4.2.7-.6 1.3-1.2 2-1.8 1.2-1 2.6-2 4.4-1.7 2.2.4 3.7 2.4 6 6.6 5.5 9.7 13.7 16.9 23.5 20.5-1.9-2.3-3.4-4.6-4.8-6.9-.4-.7-.9-1.4-1.3-2-6.1-9.2-13.3-22.5-13.1-33.5.1-7.2 2.2-12.7 6.1-16.4 4-3.7 9.8-5.5 17.2-5.1 2.2.1 4.3.2 6.5.2 1.1 0 2.2.1 3.4.1-.1-.2-.2-.4-.4-.6-3.1-4.4-6.9-6.7-11-8.8-7.8-4.1-14.2-4.5-19.4-4.4-7 .1-9.3-3.8-10.7-9.7-.4-1.7-.2-3-.1-4.1 1.5-8.8 8.7-11.5 15.1-13.9l1.2-.5c7.3-2.7 11.4-7.1 12.9-13.6 1-4.3 3.2-7.4 6.4-9.3 4.6-2.7 11.1-2.7 20-.2 3.2.9 5.2 2.9 6 6.2 1.6 5.7 2 10.3 1.4 14.1-1.3 7.6-1.9 14.9-1.7 22.4.1 5 2.5 10.3 7 15.7l.3.3c-2.1-15.3-.2-27.3 5.8-36.4 4.8-7.2 14.4-7.8 25.3-1.7 6.9 3.9 15.6 13.7 16.5 20.5 1.1 8.2 1.4 14.5.8 20-.8 7.5-1.3 13.8.3 21.6.7 3.2 1.4 6.6 4.5 10.1.3.4.6.7.9 1.1.4.5 1 1.2 1.5 1.7 0-.2-.1-.5-.1-.7-.1-1.7-.6-3.6-1.2-5.7-.7-2.5-1.4-5.1-1.4-7.6.1-11.4 4-19.3 11.8-23.5.6-.3 1.3-.7 1.9-1.1 4.9-2.9 10.4-6.1 21.2-.2.6.3.9.3 1 .3.1-.1.3-1.2-.4-2.9-1-2.2-1.9-4.7-.9-7.1.5-1.2.9-2.1 1-3.3.7-13.2 9-19.6 24.5-19 6.4.3 12.7-.4 19.6-2 .2 0 .4-.1.5-.1-.5-.6-1.5-1.5-3.3-2.9-.6-.5-1.1-1-1.6-1.5l-.5-.5c-4.6-3.2-7.4-2.8-10.6-2.5-.5.1-.9.1-1.4.2-10.7 1-18 3.1-23.7 6.7-2.5 1.5-4.5 3.5-6.8 5.6-2.8 2.6-5.7 5.3-9.4 7.2l-.1.1c-4.3 2.2-5.3.5-8.2-4.4-4.3-7.4-10.1-13.5-17.2-18.2-9.7-6.4-18.6-9.5-26.8-12-7-2.1-8.2-3.4-9.1-10.3-.8-6-2.7-12.3-5.6-18.8-4.7-10.6-12.6-21.4-24.9-34l-1.1-1.1.9-1.3c2.8-4.3 8.1-4.9 12.7-5.3 1-.1 2-.2 3-.4 2.4-.3 4.9-.5 7.4-.6 5.3-.3 10.4-.6 14-2.8 2.7-1.6 5-4.1 3.2-10.8-2-7.5-7-15.4-11.9-23.1-.7-1.1-1.4-2.3-2.1-3.4-1.8-2.9-2.9-4.8-2.1-6.6.7-1.6 2.7-1.9 3.9-2.1 4.6-.7 8.2-2.2 10.8-4.5 4.9-4.3 7.4-11.1 9.9-18.3.3-.8.5-1.5.8-2.3.1-.8.2-1.6.4-2.3.2-1.3.5-2.4.4-3.8l-3.9-.3c0-1.6-.2-3.5-.4-5.5l-.3-2.7c-.3-3.4-.6-6.2-1.1-8.9-6.5-12.3-10.2-15.8-21.5-20.5-1.8-.7-3.6-1.8-5.8-3.3-13.4-3.6-23.9-2-32 4.9-1.2 1-1.9 2.6-1.8 4.6 0 4.3 3.1 11.3 11.6 18.2 4.5 3.7 5.4 3 5.7 2.7 2.3-1.9 5.3-2.3 7.7-2.4 3-.2 6.4 1 10 3.6 1.4 1 3.3 2.4 4 4.6.4 1.3.1 2.2-.3 2.8-.8 1.2-2.1 1.4-2.7 1.5-2.2.3-4.4.2-6.5-.3-3.8-.9-7-1.2-9.5-.9-4.6.4-6.6 2.9-6.4 8 .1 3.5 1.5 7.8 2.8 11.9.2.8.5 1.6.7 2.3.7 2.3 1.4 4.4-.3 5.6-1.7 1.2-3.7-.2-6.4-2.3-4.7-3.5-9.5-7.4-14.1-11.1l-1-.8c-4.3-3.5-8.8-7.1-13.1-9.3-5.9-3-10-3.9-12.2-2.6-1.7 1-2.7 3.8-2.9 8.4-.3 6.7 3.1 13.1 10.3 19.6 1.7 1.5 3.3 3.3 4.8 4.9.6.6 1.1 1.2 1.7 1.8 5.3 5.6 11.6 13.8 5.7 20-3.6 3.8-2.4 10.6 3.6 21.4 2.7 4.9 5.8 9.9 8.7 14.8 2.3 3.9 4.8 7.9 7 11.9 4.3 7.4 5.7 13.2 4.5 17.7-.8 2.8-2.6 4.9-5.3 6.5-3.5 1.9-7.3 3.5-10.9 5-2.7 1.1-5.5 2.2-8 3.5-7.3 3.6-13.6 7.1-16.8 13.9l-.1.2c-.3.6-.8 1.9-2.2 2.2-1.5.4-2.8-.5-3.3-.8-2.2-1.5-2.8-3.6-3.2-5.1l-.1-.3c-1.3-4.4-1.6-8.4-1.8-12.1-.2-3.5-2-5.7-6.4-7.6-6.5-2.8-11.3-2.8-14.9-.1-6 4.6-8.9 12.2-8.5 22.5.3 8.2 1.5 18.2 7.5 30.1 2.2 4.3 3.6 5.4 5 5.4 0-.8.2-1.9 1.2-2.5 1.3-.9 2.8-.3 3.2-.1l.2.1c.2.1.4.2.6.4l.2.2.5.3.3.5c1.3 2.5.8 4.2.4 5.4-.1.2-.2.5-.2.7v.1c-1.5 5.7-2.6 11.8-3.6 17.8-.7 3.9-1.3 7.9-2.2 11.7v.3l1.2 3-3.9-1c-.4-.1-.7-.3-.9-.4l-.4-.2-.3-.4c-2.9-4.2-4.4-8.2-5.6-11.7-2.5-7.5-5.2-14.9-8-22-1.8-4.7-5.4-8-9.4-8.8-2.9-.5-5.3-.1-7.6 1.5-3.9 2.6-5.2 7.7-4 16.2 1.4 10.1 5.2 20 11.6 30.3 3.8 6.1 5.1 6.7 8.9 6.6h.4c.6 0 1.4-.1 2.3.2 1.1.3 2.8.6 4.1 2.5.3.4 1.2 1.7.8 3.2-.4 1.3-1.5 1.8-2 2l-.1.1c-8.1 3.6-13.8 9.6-17.4 18.4 0 .1-.1.2-.1.3-.2.7-.5 2-1.9 2.6-.9.4-2 .2-3.2-.5-2.2-1.4-3-3.7-3.5-5.2v-.1c-1.6-4.8-2.2-9.3-1.8-14.2.1-1.5-.1-3.2-2.7-5.4-8.8-7.4-20.1-11.3-24.3-9.9-5.7 1.9-8.4 7.1-9.3 17.3-.5 6.4-.9 13-1.3 19.3-.1 2-.2 4-.4 6.1-.1 2.2-.3 4.3-1.9 5.3-1 .4-1.8.5-2.8.2zm85.3-88.9z"/><path fill="#999" d="M305.3 852.2c9.2 14.1 20.4 19 31.4 23 4.8 1.8 9.4 2.8 13.7 3.3 11.5 1.2 17.5-9.8 12.8-23.2-3.3-9.5-7.9-19.5-9.3-28.3-1-6.8.6-11.8 2.4-16.6.8-2 .9-4.5 2.3-6 1.2-1.2-.5-2.4-2.2-2.9-3.2-.8-6.6-2.8-10-4.4-11.1-5.2-21.1-14.4-31.1-23.5-4.3-3.9-6.7-8.6-9.5-13-1.5-2.4-.8-3.5 1.8-1.7 11.9 8.2 23.6 14 34.8 18.1 13.4 4.9 26.5 8.8 33.3 1.5 3.5-3.7 3.7-9.5-.6-17.9-.7-1.4-1.8-3.1-.7-3.4 1.3-.4 3 1.6 4 2.9 4.4 6.4 6.9 12.5 7.6 18 .5 4.3.6 8.4 1.4 12.9.6 3.6 2.8 5.5 5.4 4.8 5.7-1.6 11.4-3.2 14.3-8.3 1.3-2.4 3.5-4.1 5.5-5.8 4.5-3.9 7.2-9.6 11.3-13.9 1-1.1 2.4-1.9 3.7-2.8.5-.4 1.5-.5.9-1.8-.8-1.6-2.2-2-3.2-2.4-4.9-1.5-10.1-4.3-15.3-7-8.8-4.6-17.2-11.1-25.5-18-1-.8-2.1-2-2-2.9.1-1.2 1.7-.2 2.8.3 7.7 4.1 15.2 7.3 22.4 9.3 12.4 3.4 21.7 1.9 27-5.1 2.3-3.1 5.2-5.7 5.8-10.2.1-.9.8-1.4 2.3-.6 1.3.7 1.7 1.9 2.1 2.9 1.1 3.2 2 6.3 1.5 8.8-.6 3.3-.7 7.1-1 10.7-.1 1.9.9 3.7 3.7 5.5 7.9 4.8 14.9 7.2 21 7 13.3-.5 17.3-10.6 20.5-21.5 1.3-4.3 3.2-8 3.4-13.1 0-1.1 1.2-1.9-.3-3.6-1.8-2-2.4-.5-3.4-.4-7.5 1.5-16.8-1.4-26.9-6.2-1.9-.9-4.1-2.3-5.2-4.6-1.1-2.2.2-2.8 1.2-3.3 2.7-1.2 5.3-2.5 7.9-4 6.5-3.8 10.7-9.7 14.1-16.5 4.3-8.6 5-19.5 2.7-32.5-.2-1-1-2.8.7-2.1 1.7.7 2.6 2.5 3.5 4 5.3 9.2 7.5 17.4 8.6 25.2 1.1 8-.8 13.8-3.4 19.1-.5 1-1.9 1.6 0 4.1 2 2.6 4 3.5 6.3 4.1 11.9 3.2 16.7-2.5 21.4-8.6 7.1-9.3 4.2-24.3-2.6-41.5-3.5-8.9-6.1-17.6-6.4-24.9-.3-8 3.4-12.9 10.5-14.3 8.4-1.6 18.3.7 29.5 5.1 6.4 2.6 12.3 3.9 17.7 4.1 9.8.5 16.6-7.5 12.6-20.8-2.9-9.5-7.9-19.6-10.6-29.1-1.2-4.2-5.9-8.3-10.1-11.6-3.8-3-7.6-5.7-11.4-8.5 8.9 3.4 16.4 11.2 22.8 19.3 13.4 17.1 20.4 33.1 19.8 47.1-.2 3.8-1.1 7.1-3.6 9-1.8 1.4-3 3.5-4.3 5.4-1.9 2.9-5.3 4.3-9.5 4.5-6.4.4-12.1 1.7-20.2-.6-8-2.3-15.7-7.6-23.6-13.1-6-4.2-9-4.3-8.6 1.1.6 7.9 3.3 16.7 6.1 25.6 4.4 13.8 10 27.9 14.1 41.5 3.8 12.4 5.7 24.1 1.6 32.1-3.5 6.8-11.1 8.2-20.2 7.8-3.1-.2-6.2-.5-9.4-1-2.6-.3-3.1 1-1.5 4 5.5 10.3 6.9 19.1 6.5 26.6-.5 10.5-4.7 17.8-13.2 21.5-11.4 4.9-26.2-1.9-42.9-13.5-4.9-3.4-4.8-3-4 1.5 1.5 8.4 2 15.9-2.6 20.4-5.7 5.6-13.9 7.7-22.1 9.8-10.7 2.8-22.8 3.8-32.7 7.9-5.3 2.2-7.5 7.3-9.7 12.4-3.5 7.9-5.1 17.1-5.4 27.5-.2 9.6-1.4 18.7-5.3 25.3-4.5 7.6-14.4 8.2-26.4 5.5-7-1.6-14.2-3.7-22.1-8.3-.4-.3-.9-.4-1.3-.7-9.2-7-18.3-14.4-25.8-24.1-1.1-.4-1.6-1.4-1.6-2.4z"/><path d="M367.3 891.8c-3.5 0-7.4-.5-11.9-1.5-6.4-1.4-14-3.5-22.6-8.5-.1-.1-.3-.1-.4-.2-.3-.2-.7-.4-1.2-.7-9-6.8-18.4-14.4-26.1-24.4-1.2-1.6-1.8-2.9-1.8-4.3v-6.7l3.7 5.6c8.8 13.4 19.4 18.2 30.4 22.3 4.4 1.6 8.8 2.7 13.2 3.2 4 .4 7.3-.8 9.5-3.6 3.1-3.9 3.6-10.3 1.2-17-.9-2.6-2-5.3-3-8-2.6-6.9-5.4-14.1-6.4-20.7-1.1-7.3.6-12.7 2.5-17.6.2-.5.4-1.2.5-1.9.3-1.3.7-2.8 1.6-4.1-.2-.1-.4-.2-.7-.2-2.5-.7-5.1-2-7.6-3.2-.9-.4-1.8-.9-2.7-1.3-10.9-5.1-20.9-14.1-30.5-22.8l-1.1-1c-3.7-3.3-6-7.2-8.3-10.9-.5-.8-1-1.7-1.5-2.5-1.7-2.7-1.1-4.2-.3-5 1.2-1.1 2.8-.9 5 .6 10.8 7.5 22.1 13.4 34.4 17.9 11.9 4.4 25.1 8.5 31.2 2.1 3-3.2 2.7-8.5-.9-15.6l-.2-.5c-.7-1.4-1.5-2.9-.9-4.3.3-.7.9-1.2 1.7-1.5 2.7-.8 5 2 6.2 3.7 4.6 6.7 7.2 13.1 7.9 18.9.2 1.6.3 3.2.4 4.8.2 2.7.4 5.3.9 8 .2 1.5.8 2.6 1.5 3 .4.3.9.3 1.4.2 5.2-1.4 10.6-2.9 13.1-7.4 1.3-2.3 3.2-4 5-5.6.3-.3.6-.5.9-.8 2.3-2.1 4.2-4.7 6.1-7.4 1.5-2.1 3.1-4.4 5-6.3 1-1 2.1-1.8 3.1-2.5.2-.1.4-.3.6-.4-.4-.4-.9-.5-1.6-.8-4.6-1.4-9.4-3.9-14-6.3l-1.5-.8c-8.4-4.4-16.5-10.4-25.9-18.2-1.3-1.1-3-2.7-2.8-4.7.1-.9.6-1.7 1.4-2.1 1.4-.7 2.8.1 4 .7l.3.2c8.2 4.3 15.4 7.3 22 9.1 11.9 3.2 20.2 1.7 24.9-4.4.4-.6.9-1.2 1.4-1.7 1.8-2.3 3.6-4.4 4.1-7.6.2-1.1.8-2 1.7-2.4.7-.4 1.9-.6 3.5.3 2 1.1 2.6 2.9 3 4 1.1 3.5 2.1 6.8 1.5 9.8-.5 2.7-.7 5.7-.8 8.7l-.1 1.8c0 .9.2 2.1 2.7 3.6 7.5 4.6 14.2 6.9 19.9 6.7 11.9-.4 15.5-9.3 18.7-20 .4-1.2.8-2.3 1.1-3.5 1-3 2-5.7 2.2-9.2 0-.7.2-1.2.4-1.6 0-.1.1-.2.1-.3 0-.1-.1-.2-.2-.3l-.2-.2c-.3.2-.7.4-1.2.5-7.2 1.4-16.1-.6-28.1-6.4-2.9-1.4-5-3.2-6.2-5.5-.7-1.3-.8-2.5-.5-3.6.5-1.5 1.9-2.1 2.6-2.5 2.7-1.2 5.2-2.5 7.7-3.9 5.3-3.1 9.4-7.9 13.3-15.6 3.9-7.9 4.8-18.4 2.5-31.2 0-.1-.1-.3-.1-.5-.2-.9-.7-2.5.5-3.5.5-.5 1.5-.9 2.9-.3 2.2.9 3.4 2.9 4.3 4.5l.2.4c4.8 8.3 7.6 16.5 8.8 25.9 1.2 9.1-1.3 15.6-3.6 20.3-.2.4-.4.7-.6.9 0 .1-.1.1-.1.2.1.1.2.4.5.9 1.6 2.1 3.1 2.8 5.2 3.4 10.2 2.8 14.3-1.3 19.3-7.9 5.7-7.5 4.8-20-2.9-39.5-4.2-10.7-6.3-18.8-6.5-25.5-.3-8.9 4-14.7 12.2-16.3 8.1-1.6 17.8.1 30.6 5.2 5.9 2.4 11.7 3.7 17.1 4 3.9.2 7.2-1.2 9.3-3.8 2.6-3.3 3-8.4 1.2-14.4-1.4-4.5-3.2-9.2-5-13.7-2-5.1-4.1-10.3-5.5-15.4-1-3.6-5.3-7.3-9.4-10.6-2.6-2-5.3-4-7.9-5.9-1.2-.9-2.4-1.7-3.5-2.6l-11.7-8.7 13.6 5.2c10.2 3.9 18.4 13.3 23.6 20 14 17.9 20.9 34.2 20.2 48.4-.2 5-1.7 8.5-4.4 10.5-1.3 1-2.2 2.5-3.3 4l-.6.9c-2.2 3.3-5.9 5.1-11 5.4-1.3.1-2.7.2-4 .3-5 .5-10.1.9-16.9-1-8.5-2.4-16.8-8.2-24.2-13.3-3.6-2.5-5-2.7-5.3-2.7-.1.2-.2.7-.1 2 .6 7.7 3.3 16.6 6 25.1 1.9 6 4.1 12.2 6.3 18.2 2.7 7.7 5.5 15.7 7.9 23.3 4.8 15.9 5.3 26.2 1.5 33.6-4.5 8.7-14.7 9.2-22.1 8.9-3.2-.2-6.5-.6-9.6-1 .1.3.3.6.5 1 5 9.3 7.2 18.3 6.7 27.7-.5 11.5-5.4 19.3-14.4 23.2-13.6 5.9-31.1-4.2-44.9-13.6-.2-.2-.6-.4-1-.7v.1c1.5 8.4 2.2 16.9-3.2 22.2-5.9 5.8-14.3 8.1-22.5 10.2l-.5.1c-4.1 1.1-8.4 1.9-12.5 2.7-6.8 1.3-13.9 2.6-19.9 5.1-4.5 1.9-6.5 6.5-8.7 11.4-3.2 7.4-5 16.4-5.2 26.7-.3 11.9-2 20.3-5.6 26.3-3 5.6-8.5 8.2-16.5 8.2zm-37.7-17.2c1.4 1.1 2.7 2.1 4.1 3.1.1.1.3.2.5.3l.6.3c8.1 4.7 15.4 6.7 21.5 8.1 12.8 2.8 20.7 1.3 24.2-4.6 3.2-5.4 4.8-13.1 5-24.3.2-10.9 2.1-20.4 5.5-28.2 2.2-5.1 4.8-11 10.8-13.5 6.4-2.7 13.6-4 20.7-5.4 4.1-.8 8.3-1.6 12.3-2.6l.5-.1c8-2.1 15.5-4.1 20.7-9.2 3.8-3.8 3.6-10.2 2.1-18.7-.5-2.9-.9-4.7.7-5.7 1.7-1.1 3.3.1 6.4 2.2 19.2 13.2 31.8 17.3 41 13.3 7.6-3.3 11.5-9.8 12-19.8.4-8.6-1.6-17-6.3-25.6-.8-1.5-1.8-3.8-.6-5.6.8-1.2 2.2-1.6 4.1-1.3 3 .4 6.2.8 9.3.9 10.1.5 15.7-1.6 18.3-6.7 4.2-8.2 1-21.4-1.8-30.6-2.3-7.6-5.1-15.5-7.8-23.2-2.1-6-4.3-12.2-6.3-18.3-2.8-8.7-5.6-17.9-6.2-26-.1-1.1-.3-4.4 2.1-5.8 2.1-1.2 5-.3 9.7 2.9 7.1 4.9 15.1 10.5 23 12.8 6 1.7 10.6 1.3 15.4.9 1.3-.1 2.7-.2 4.1-.3 3.8-.2 6.5-1.4 7.9-3.6l.6-.9c1.2-1.8 2.3-3.6 4.2-5 1.7-1.3 2.7-3.8 2.8-7.5.5-11.6-4.4-24.9-14.8-39.6l3 7.8c1.8 4.6 3.8 9.4 5.2 14.1 2.2 7.2 1.5 13.6-1.9 18-2.9 3.7-7.4 5.6-12.7 5.3-5.8-.3-12-1.7-18.4-4.3-11.9-4.8-21.1-6.4-28.3-5-6.2 1.2-9.2 5.2-8.9 12.2.2 6.2 2.3 14.1 6.2 24.2 8.4 21.2 9.1 34.6 2.3 43.4-4.4 5.8-9.9 13-23.5 9.3-2.4-.6-4.9-1.7-7.3-4.8-2.2-2.8-1.5-4.6-.4-5.9.1-.1.1-.2.2-.3 2.2-4.4 4.3-10 3.2-18-1.2-8.8-3.8-16.6-8.3-24.4 1.7 12.3.6 22.3-3.4 30.3-4.2 8.5-8.8 13.8-14.9 17.3-2.5 1.5-5.2 2.8-8 4.1-.1 0-.3.1-.4.2 0 .1.1.2.2.4.7 1.4 2.2 2.7 4.3 3.7 11 5.2 19.3 7.2 25.5 6.1l.1-.1c1.2-.7 3-1.4 5.2 1.1 1.9 2.1 1.2 3.9.9 4.7 0 .1-.1.3-.1.3-.2 4-1.3 7.2-2.4 10.3-.4 1.1-.8 2.2-1.1 3.3-3.4 11.3-7.9 22.3-22.4 22.9-6.5.2-13.9-2.2-22.1-7.3-3.2-2-4.8-4.4-4.6-7.3l.1-1.8c.2-3.1.3-6.3.9-9.2.4-2-.4-4.9-1.4-7.8-.2-.7-.4-1.1-.7-1.4-.8 3.6-2.9 6.1-4.7 8.3-.4.5-.9 1.1-1.3 1.6-5.7 7.5-15.5 9.5-29.1 5.8-5.2-1.4-10.6-3.5-16.6-6.3 7.3 5.8 13.7 10.4 20.4 13.9l1.6.8c4.7 2.4 9.1 4.7 13.4 6.1 1.1.3 3.2 1 4.4 3.4.4.8 1.1 3-1.4 4.2 0 0-.1 0-.1.1l-.9.6c-.9.6-1.8 1.2-2.4 1.9-1.7 1.8-3.1 3.8-4.6 5.9-2 2.8-4.1 5.7-6.8 8.1-.3.3-.6.5-.9.8-1.6 1.4-3.2 2.8-4.2 4.5-3.3 5.9-9.8 7.7-15.5 9.3-1.6.5-3.2.2-4.6-.6-1.7-1.1-2.9-3.1-3.3-5.7-.5-2.9-.7-5.6-.9-8.3-.1-1.5-.3-3.1-.4-4.7-.5-4.1-2.1-8.6-4.8-13.3 2.1 6.3 1.4 11.2-2 14.9-7.7 8.3-22.4 3.8-35.5-1-11.6-4.3-22.2-9.6-32.4-16.4 2 3.3 4.2 6.8 7.3 9.6l1.1 1c9.4 8.5 19.1 17.3 29.5 22.2.9.4 1.9.9 2.8 1.4 2.4 1.2 4.7 2.4 6.9 2.9.8.2 3.4 1.1 4 3.2.3 1.1 0 2.2-.9 3-.6.6-.9 1.8-1.2 3-.2.8-.4 1.5-.7 2.3-1.8 4.6-3.3 9.2-2.3 15.6.9 6.2 3.6 13.1 6.2 19.9 1 2.7 2.1 5.4 3 8.1 2.8 8.1 2.1 15.8-1.8 20.8-3 3.8-7.7 5.6-13.1 5-4.8-.5-9.5-1.7-14.2-3.4-2.2-.8-4.3-1.7-6.4-2.6zm-24.1-114.5zm208.7-18.7zM190.8 715.9c-.3 0-.6 0-1-.1-2.2-.5-3.5-2.3-4.7-3.9-.2-.3-.5-.6-.7-.9l-1.2-1.5-.6-.8c-7-9.9-10.8-19.5-11.5-28.5-.8-11.8 2.9-19.9 11.5-25 10.6-6.3 24.3-7.4 41.8-3.3-.7-.7-1.3-1.4-2-2.1-3.1-3.3-6.3-6.7-8.5-10.7-14.1-21.1-20.2-40.3-18.3-57 1.4-11.7 8.3-15.5 13.9-16.5 5.4-1 11.9 1 20.1 6.1 6.3 4.2 11.1 8 15.2 12.2-.4-2.8-1-5.8-1.5-8.7-.4-1.9-.8-3.9-1.1-5.8l-.3-1.8c-1.2-6.9-2.4-14.1 0-19.3 2.7-5.6 6.5-9.2 11.4-10.6 7.5-2.3 17.1.2 29.6 7.6 2.7 1.6 5.4 3.3 8 4.9 4.5 2.8 9.1 5.7 13.7 8 7.2 3.7 11.3 2.4 14.4.7 1.8-1 3.3-2.2 4.5-3.7 2.3-2.8 1.3-7.9-3.2-16.5-1-1.9-2.2-3.7-3.5-5.7-.8-1.2-1.6-2.5-2.4-3.8-2.3-3.2-4.8-6.5-7.2-9.6-5.3-7-10.8-14.1-15.1-21.5-3.9-6.6-5.4-12.1-4.3-16.1.7-2.5 2.2-4.4 4.6-5.8.4-.2.6-.4.8-.5-.5-.9-2.1-2.5-3-3.5-16-14.6-21.6-29.3-14.9-39.5 5.9-9 16.8-12.8 33-11.6 4 .3 8.4 1.7 12.7 3.1-4-5.9-7.1-11.6-9.5-17.5-3.5-8.4-3.5-15.6-.2-21.9 6-11.2 18-14.5 35.8-9.7 4.5 1.2 9.2 3.6 13.8 5.9l1.3.6c5.1 2.5 10.8 5.4 16.3 7.3l.4.1c.7.3 2 .7 2.3.6l.5-.3.5.1c4.6.4 7.5 0 9.3-1.4 1.4-1.1 3.1-1.2 4.8-.3l.3.2c3.5 2.9 2.3 5.2 1.6 6.1-.2.2-.3.4-.5.5-.1.1-.3.3-.3.4v.4l-.1.4c-3 8.5-3.5 18.6-1.4 30.2l.1.3v.3c-.1 1 0 2.2.1 3.5.2 1.9.3 3.9-.2 5.7-.2.7-.3 1.6-.4 2.6-.2 2.4-.4 5.6-3.2 7.5l-2.2 1.5-.8-2.5c-1.9-6-2.3-10.9-2.6-15.7-.2-3.2-.5-6.2-1.2-9.5-1.5-7-6-12.5-13.7-16.7-3.6-2-7.3-3.6-10.7-4.7-14-3-24.5-1.2-31 5.5-1.1 1.1-1.5 2.5-1.4 4.3.3 4.6 4.7 10.6 11.4 15.8 1.6 1.2 1.8 1.1 2.5.6.2-.1.4-.3.6-.4 5.9-3.7 12.4-2.6 20.4 3.3.3.2.6.5 1 .7 2 1.5 4.6 3.3 5.3 6.2.3 1.3.2 2.5-.4 3.3-1 1.4-2.7 1.6-4 1.8h-.4c-3.2.4-6.8-.2-10.2-.8-.9-.2-1.8-.3-2.7-.4-4.1-.6-6.9-.1-8.4 1.4-1.5 1.6-1.9 4.5-1.1 8.6.9 4.5 1.9 9.3 5 14.6.9 1.5 2.3 3.9.7 5.5-1.6 1.6-4 .1-5.6-.9-5.3-3.4-10.5-7.6-15.6-11.7-1.9-1.5-3.8-3.1-5.6-4.6l-1.7-1.4c-3.7-2.9-7.5-6-11.1-7.8-5.2-2.6-8.6-3.3-10.4-2.3-1.5.9-2.3 3.4-2.5 7.9-.3 5.6 2.6 11 8.7 16.6 1.9 1.8 3.8 3.8 5.5 5.7.7.8 1.4 1.5 2.1 2.3 11.8 12.5 9 19 6.2 21.7-3.8 3.8-2.6 10.5 3.8 21.2 3.5 5.7 6.9 11.6 10.2 17.2 1.5 2.5 3 5.1 4.5 7.6 5 8.4 6.7 15.2 5.2 20.3-.9 2.9-2.9 5.1-5.7 6.5-3.2 1.5-6.6 3-9.8 4.4-4.1 1.8-8.4 3.7-12.4 5.7-6.9 3.5-12 7.2-14 14l-.1.2c-.2.8-.6 2.2-2 2.8-.9.4-2 .4-3.2-.2-2.6-1.2-4-3.5-5.2-5.8-2.5-5.2-3.7-10.2-3.8-15.8 0-5-.2-5.5-6.4-7.5-8-2.6-11.7.1-15.1 5.3-4.8 7.4-5.3 18.7-1.5 34.7.8 3.3 2.5 7 4.2 10.6.4.8.8 1.7 1.2 2.5.5 1 .8 1.5 1.1 1.8.2-.2.4-.4.6-.7.9-1.1 2.4-2.7 5.2-2.4l1.8.2v.7c1.3.9 3 2.5 2.2 5.2-.1.3-.2.6-.3 1-.5 1.4-.8 2.5-.8 4v.4l-.1.3c-3.3 8.9-4.1 19.7-4.4 28.1 0 .3.1.7.2 1.2.1.6.3 1.3.3 1.9v4.2l-1.7-1.4c-.4.2-.7.3-1 .3-2.1.2-3.7-1.8-5.3-4.1-3.3-4.3-4.8-8.5-6.3-12.4l-.1-.3c-1.6-4.2-3.1-8.5-4.5-12.6-1.1-3-2.1-6-3.2-9-1.3-3.7-4-8-8.9-7.4-6.4.7-9.3 4.5-8.9 11.6.6 11.4 4 21.7 10.6 32.5 3.8 6.3 3.8 6.3 7.8 6 1.4-.1 2.5 0 3.7.4 2.4.7 5.8 2.1 7.8 5.5.4.6 1.4 2.4.7 4.2-.6 1.6-2.2 2.1-3.3 2.4-.2 0-.3.1-.5.1-9.2 3.1-15.3 10.1-18.6 21.3 0 .1 0 .3-.1.4-.1.7-.2 2.1-1.5 2.8-1.3.7-2.7 0-3.2-.2-2-1-2.9-2.7-3.8-4.2-.1-.2-.2-.5-.4-.7-4.1-7.2-5.7-13.8-5.1-21 .2-2-.3-3-4.1-5.6-8.2-5.8-15-8.1-19.9-6.4-3.6 1.2-5.3 4.4-6.1 6.9-1.9 6-2.2 13.4-2.5 20.5-.1 2.7-.2 5.5-.4 8.2-.3 3.6-.6 7.3-1.2 10.8 0 .2 0 .3-.1.5-.1.9-.3 2.3-1.5 3.2-.4.1-1 .3-1.7.3zm-4.9-9.5.5.6c.4.5.8 1 1.2 1.6.3.3.5.7.8 1 .5.7 1.1 1.5 1.6 2 0-.1 0-.3.1-.4.6-3.3.8-7 1.1-10.5.2-2.6.3-5.4.4-8.1.3-7.4.6-15.1 2.7-21.6 1.5-4.8 4.5-8.1 8.7-9.5 4.2-1.4 11.8-1.4 23.4 7 3.6 2.6 6.1 4.7 5.7 9.2-.5 6.3.9 12.2 4.6 18.7.1.2.3.5.4.7.4.8.8 1.5 1.2 1.9 3.8-12.4 10.7-20.2 21.1-23.7.2-.1.4-.1.6-.2.2 0 .4-.1.6-.2-.1-.1-.2-.3-.3-.6-1.3-2.2-3.5-3.1-5.5-3.7-.7-.2-1.4-.3-2.3-.2-6.2.4-7.1-.8-11.4-7.9-7-11.4-10.5-22.3-11.2-34.4-.5-9.2 3.9-14.8 12.4-15.8 5.8-.7 10.6 3 13.1 10 1.1 3 2.2 6 3.2 9 1.5 4.1 3 8.4 4.5 12.6l.1.3c1.4 3.9 2.8 7.6 5.7 11.4l.1.1c.1.2.2.3.3.4v-.5c.3-8.6 1.2-19.6 4.5-29 0-2 .6-3.5 1-4.9l.3-.9v-.2s-.2-.2-1-.7c-.5 0-.8.3-1.4 1.1-.3.4-.7.8-1.1 1.2-1.1 1.1-2.3 1.2-2.9 1.1-1.6-.3-3-1.6-4.2-4.4-.4-.8-.8-1.6-1.2-2.5-1.8-3.8-3.6-7.7-4.5-11.4-4-17-3.3-29.4 2.1-37.8 3.3-5.1 8.5-10.5 19.7-6.9 7.6 2.4 9.1 4.3 9.2 11.3 0 5 1.1 9.5 3.4 14.1.7 1.4 1.6 3 2.9 3.8l.1-.2c2.6-8.7 9.2-13 16-16.4 4.1-2.1 8.4-4 12.6-5.8 3.2-1.4 6.5-2.9 9.7-4.4 1.9-.9 3.1-2.2 3.6-4.1 1.2-3.8-.5-9.9-4.8-17.1-1.5-2.5-3-5.1-4.5-7.6-3.3-5.6-6.8-11.5-10.2-17.2-4.7-7.9-10.2-19.2-3.2-26.1 4.2-4.1-3-12.6-6.3-16.1-.7-.8-1.5-1.6-2.2-2.3-1.7-1.8-3.5-3.8-5.3-5.4-7.1-6.5-10.4-13-10-19.8.2-4.1.9-9 4.5-11.1 3.1-1.8 7.5-1.1 14.2 2.2 4 2 8 5.2 11.9 8.2l1.7 1.4c1.9 1.5 3.8 3 5.7 4.6 4.4 3.5 8.8 7.2 13.4 10.3-2.6-5.1-3.6-9.6-4.4-13.9-1-5.5-.3-9.5 2.1-12.1 2.4-2.5 6.4-3.4 11.9-2.6.9.1 1.9.3 2.8.4 3.2.5 6.5 1.1 9.1.8h.4c.3 0 .7-.1 1-.1-.4-1.5-2.1-2.8-3.8-3.9-.4-.3-.7-.5-1-.8-8.4-6.3-12.9-5-15.9-3.1-.1.1-.3.2-.4.3-1.6 1.1-3.6 2.1-7.2-.7-7.8-6-12.5-12.8-12.9-18.7-.2-2.9.7-5.4 2.6-7.3 7.6-7.8 19.3-10 34.9-6.6l.2.1c3.7 1.2 7.6 2.9 11.5 5 8.8 4.8 13.9 11.2 15.6 19.4.8 3.5 1 6.8 1.2 10 .2 2.7.4 5.5.9 8.6.1-1 .2-1.9.5-2.8.3-1 .2-2.6 0-4.2-.1-1.3-.2-2.7-.1-3.9-2.1-12-1.6-22.6 1.5-31.6.1-1.5.9-2.3 1.4-2.8-.1-.1-.3-.4-.6-.6-.1-.1-.2-.1-.2-.1l-.1.1c-3.3 2.5-7.9 2.6-11.7 2.2-1.6.4-3.2-.1-4.7-.7l-.4-.1c-5.7-1.9-11.6-4.9-16.8-7.5l-1.3-.6c-4.4-2.2-9-4.5-13.1-5.6-15.8-4.2-26.3-1.6-31.3 7.7-2.8 5.3-2.7 11.1.3 18.5 2.4 5.8 5.5 11.5 9.5 17.3 2.1 3 3 4.4 1.9 5.9-1.1 1.4-2.7.9-5.2.1l-1.5-.5c-4.1-1.3-8.2-2.7-11.8-3-14.9-1.1-24.2 2-29.4 9.8-5.4 8.2.1 21.4 14.3 34.4l.1.1c3.1 3.3 4.5 5 4.2 7-.3 1.7-1.8 2.6-3 3.3-1.4.8-2.3 1.9-2.7 3.4-.8 3 .6 7.5 3.9 13.1 4.3 7.2 9.7 14.3 14.9 21.1 2.4 3.2 4.9 6.5 7.3 9.8l.1.1c.7 1.2 1.6 2.5 2.4 3.7 1.3 2 2.6 4 3.7 6 3.8 7.3 7.2 15.5 2.7 20.9-1.5 1.9-3.4 3.4-5.6 4.7-5.6 3.1-11.2 2.9-18.2-.6-4.7-2.4-9.4-5.4-14-8.2-2.6-1.6-5.3-3.3-7.9-4.9-11.3-6.7-20.2-9.1-26.4-7.2-3.8 1.2-6.8 4-8.9 8.5-1.9 4.1-.8 10.6.3 16.9l.3 1.8c.3 1.9.7 3.8 1.1 5.7.8 4 1.6 8 1.9 11.9 0 .8.2 2.8-1.5 3.5-1.9.8-3.5-.9-4.7-2.1-4.2-4.4-9-8.3-15.5-12.6-7.3-4.5-12.9-6.4-17.2-5.6-6.3 1.2-9.7 5.4-10.6 13-1.8 15.8 4.1 34.1 17.7 54.4l.1.1c2 3.6 4.9 6.7 8 10 .7.7 1.4 1.5 2.1 2.2l.2.2c1.1 1.2 2.6 2.8 2.4 4.7-.1.8-.5 1.5-1.1 2-1.1.8-2.3.4-3.2.2l-.3-.1c-17.4-4.3-30.7-3.6-40.8 2.4-7.2 4.3-10.2 11-9.5 21.3.6 8.1 4.2 16.9 10.8 26.3zm53.7-6.6zM366 435.2zM553.2 537.7c-2.7 0-5.8-.6-9.2-1.8-3.7-1.3-7.3-2.5-11-3.8-8.3-2.8-15.6-8.7-21.6-17.6l-5.3-8.1-.1-.3c-.5-1.7.4-2.7.8-3l.7-.5v-.2c.2-10.2 3.5-17.9 9.7-23 6-4.8 13-5.3 21.6-1.7.4-1 1.6-1.8 3.1-1.3l.3.1.3.2c4 2.8 7 6.4 9.8 10 .6.7 1.1 1.4 1.7 2.1l.2.2.1.2c.8 1.7 1.8 3.5 2.8 5.2.4.8.9 1.6 1.3 2.3 6 10.9 8.1 21 6.4 30.9-.7 4-2.5 6.9-5.4 8.6-1.6 1-3.7 1.5-6.2 1.5zm-38.4-25.4c5.5 8.1 12 13.5 19.5 16 3.7 1.3 7.3 2.5 11 3.8 5.4 1.9 9.6 2.1 12.3.6 1.8-1 3-3 3.4-5.8 1.5-8.9-.4-18.2-5.9-28.3-.4-.8-.8-1.5-1.3-2.3-1-1.7-2-3.5-2.8-5.3-.5-.6-1-1.3-1.5-1.9-2.3-2.8-4.5-5.5-7.1-7.8-.1.2-.3.3-.5.5-1.3.9-2.9.2-3.5-.1-10-4.6-15.3-1.8-18.4.7-5.3 4.2-8 10.9-8.2 19.9v.3c0 .9 0 2.2-1 3.2l4 6.5zm25.7-34z"/><path d="M559.4 550c-5.7 0-12.7-2.2-19.9-7.4-11-8-20.1-17.1-28-28l3.2-2.3c6.5 8.9 13.4 12.4 21.7 14.9 1.7.5 3.5 1.2 5.2 1.8 2.8 1.1 5.8 2.3 8.1 2.4 3.4.1 5.8-.6 7.3-2.2 2.1-2.3 2.7-6.7 1.8-13.4-1.1-7.8-4.4-16.2-8-24.9l-6.2-15.1 9.7 13.1c11.5 15.5 17.6 30.1 18.1 43.4 0 1 .2 2.1.4 3.3.5 3.2 1 6.8-1.1 9.4-2.5 3-6.9 5-12.3 5zm-30.2-21.3c3.9 3.8 8.2 7.3 12.7 10.6 11.6 8.4 22.7 8.2 26.7 3.1 1-1.2.6-3.8.3-6.3-.2-1.2-.4-2.5-.4-3.7-.3-7.9-2.8-16.4-7.4-25.3.8 2.7 1.4 5.5 1.7 8.1 1.1 8 .2 13.3-2.8 16.6-2.3 2.5-5.8 3.7-10.4 3.5-3-.1-6.3-1.4-9.4-2.6-1.6-.6-3.3-1.3-4.8-1.7-2.1-.7-4.2-1.4-6.2-2.3zM628.3 574.6c-1.2 0-2.4-.1-3.8-.4-8.6-2-18.4-11.5-21.4-20.7l-.3-.9c-.9-2.8-1.8-5.4-2.8-8.1-2-5.1-1.1-12.3 1.9-15.2l.2-.2.2-.1c3.1-1.7 14.4-5.8 28.9 11.1 8.2 9.6 11.9 17.6 11.4 25-.2 3.8-2.2 6.3-6.2 7.7l-.4.2c-2.3.7-4.7 1.6-7.7 1.6zm-23.8-42.3c-1.4 1.7-2.2 6.8-.8 10.7 1.1 2.8 2 5.6 2.9 8.3l.3.9c2.6 7.9 11.2 16.3 18.5 18 3.7.9 6.4-.1 9.2-1.1l.5-.2c2.4-.9 3.4-2 3.5-4.1.4-6.3-3-13.4-10.5-22.2-12.1-14.1-20.9-11.7-23.6-10.3zM290.4 472.2c-15.9-12.4-23.1-30.3-16.2-39.9 9.2-12.7 24.4-15.8 45.3-9.3.1 0 .2.1.3.1-.3-.5-.7-1.1-1.1-1.6-10.7-16.1-13.3-29-7.8-38.3 5.9-10.1 17.2-13.4 33.6-9.8 5.1 1.1 10.7 3.9 16 6.6 1.2.6 2.4 1.2 3.5 1.8l.6.3c5.5 2.7 11.2 5.5 16.2 6.7l.2.1h.2c.6.1 1.9.4 2.9 2.1l1.5 2.8-3.2.1c-4.5.1-9.6-2.3-14.5-4.7-1.1-.5-2.2-1.1-3.2-1.6-1.7-.8-3.4-1.6-5.1-2.5-4.1-2-8.2-4-12.1-5.3-10.6-3.5-21.2-2.8-27.5 1.9-4.2 3.1-6.3 7.7-6.3 13.8.1 6.4 3 13.9 9.3 23.7l.8 1.2c3.4 5.2 4.4 6.8 3.1 8.4-1.2 1.6-3 1-7.2-.3l-1.4-.4c-13.1-4.1-23.7-3.6-32.6 1.3-5.9 3.3-8.5 7.8-8.3 14.6.1 6.8 6.1 14.5 11.7 21.1.8.9 1.7 1.8 2.6 2.8.4.4.8.9 1.3 1.3l-2.6 3zM247.2 590.6c-2.5 0-4.8-2.5-7-4.9-.4-.5-.9-.9-1.3-1.3-1.7-1.7-3.6-3.1-5.5-4.5-2-1.5-4.1-3-6.1-5.1l-8.2-8.4 10.6 5.2c4.9 2.4 9.8 6.1 14.5 10.9-.4-3.7-1.2-7.6-1.9-11.4-.7-3.5-1.4-7-1.8-10.4-1.7-14 4-22.5 16.7-24.6 9.5-1.5 21.4 5.4 31.9 12 4.4 2.8 9 5.5 14.1 8.3 5.5 3 9.7 4 12.6 2.8 2.7-1.1 5.4-2.4 7.2-4.6 2.6-3.2 1.2-9.2-4.2-18.3-.4-.6-.8-1.3-1.2-1.9-1.2-1.9-2.5-3.8-3-5.9l-2-8.7 5.5 7c7.7 9.7 11.6 18.3 11.7 25.4 0 7-5 9.5-9 11.6l-.7.4c-8.6 4.4-20.5-3.3-31-10.1-11.6-7.5-23.6-14.2-32.2-12-7.8 2-11.2 6.8-11 15.1.2 5.9 1.5 12.5 2.8 18.9.3 1.4.6 2.7.8 4.1 0 .2.1.5.2.7.1.5.3 1.1.3 1.6s.2 1.2.3 1.8c.4 1.9.8 3.8-.3 5.2-.5.7-1.4 1.1-2.3 1.1h-.5zM342.9 528.3l-.1-3.5c-.1-3.9 2.9-5 4.7-5.6l.4-.1c4.7-1.7 10.2-2 15.5-2.3 3.3-.2 6.8-.4 9.9-1 5.1-.9 8.1-2.6 9.3-5.3 2-4.7-.9-12.9-9.2-25.9l-1.2-1.9c-4.3-6.7-5.9-9.2-5-11.7.8-2.2 3.3-3 6.7-4.1 7.8-2.5 12.8-8.6 15.8-19.1.4-1.5 1.3-2.5 2-3.2.5-.5.9-.9 1.1-1.4l3.9 1c-1.3 6.6-3.5 12.6-6.6 17.9-3.8 6.5-10.7 8.9-17.4 11.2l-.2.1c.1.3.3.7.8 1.5 1.3 2 2.5 4.1 3.8 6.1 1.3 2.2 2.7 4.5 4.1 6.7 3.8 6 6.3 12.2 7.5 18.8 1 5.5-.9 9.4-5.8 12.2-4.5 2.5-10.3 2.9-15.9 3.3-1.4.1-2.7.2-4.1.3h-.4c-6.3.6-12.3 1.2-16.6 3.9l-3 2.1zM190.5 721.4l-7.1-10.2c-9.9-14.3-14.2-27-13-38.9 1.2-12.1 9.4-17.2 15.5-20 9.4-4.3 21.4-4.9 36.6-1.7-.6-.6-1.1-1.2-1.7-1.9-2.8-3-5.6-6.2-7-9.9l-4.5-12.4 7.9 10.5c3.1 4.1 6.7 8 10.3 11.8l.7.7c1.6 1.8 3.5 3.8 3.3 6.1-.1 1.2-.8 1.9-1.2 2.1-1.3.8-2.7.3-3.8-.2-.3-.1-.6-.2-.8-.3-20.3-5.2-35.2-3.4-44.2 5.4-8.9 8.7-7.7 22.9 3.7 42.2.3.5.5 1 .7 1.5.1.2.2.3.2.5l.1.3 4.3 14.4z"/><path d="m395.7 431-2.1-1.2c-1.7-1-1.9-2.3-2-3v-.2l-.1-.2c-2.4-12.4-1.9-23.3 1.3-32.3l.1-.2c.2-.5.5-1 .8-1.5-3.1 1.3-6.7 2.4-11.4 1.6l-.4-.1-9.8-6.1 8.7 1c6.6.7 11.5-1.2 15.7-6.3 2.7-3.2 6.2-5.5 10.5-6.7l.2-.1c.9-.3 3-1 5.2 1.6 1.8 2.1.9 3.9.6 4.6 0 .1-.1.1-.1.2-1.1 3-3.4 4.5-5.1 5.4-10.4 5.5-14.1 16.9-11.3 35 0 .3.1.6.2.9.3 1.8.6 3.7 0 5.4l-1 2.2zm6.8-48.8 2.2 2.3c.4-.2.8-.4 1.1-.6 1.8-.9 2.7-1.9 3.2-3.2.1-.2.2-.5.3-.7 0 0 0-.1-.1-.1-.4-.4-.6-.5-.6-.5-.1 0-.3.1-.4.1l-.3.1c-1.9.6-3.8 1.5-5.4 2.6zm-1.1.9c-.3.2-.5.4-.7.7l.7-.7zM199.7 793.8l-1.3-1.9c-4.3-6.3-6-12.2-7.2-17.5-2.7-12.1-1.2-21.5.6-29 1.4-6 4.9-9.7 7.7-12.4 1.6-1.5-1.6-5.5-3-7.1-2.4-2.7-5-5.5-7.8-7.9-2.9-2.5-4.7-4.8-5.5-7.3l-2.8-8.7 6.2 6.7c2.4 2.7 5.1 5.3 8.4 8.3 7.1 6.4 10.4 11.5 10.5 16 0 2.6-1 4.8-3.1 6.8-8.1 7.6-9.2 21.4-3.4 42 .3.9.9 2.1 1.5 3.2.9 1.7 1.8 3.4 2.1 5.1l.2 1.1-3.1 2.6zM540.7 480.8c-1.6 0-3-1.1-4-1.9-7.7-5.9-14.6-8.5-19.9-7.5-3.8.7-6 3.1-7.2 4.9-.1.2-.2.4-.4.6-.8 1.4-2.4 4.2-6.6 2.8l-.3-.1-1.9-1.3.1-1.2c.6-5.9 3.6-10.4 8.4-12.6 6.8-3.1 16.1-1.2 25.6 5.2 3 2 5.7 4.4 8.4 7.2l1.3 1.4-2.1 2-.4.1c-.1.3-.6.4-1 .4zM516.2 467c-2 0-3.9.4-5.5 1.1-3.1 1.4-5.2 4.3-5.9 8 .3 0 .5-.3 1-1.2.2-.3.3-.5.5-.8 2.3-3.7 5.7-6 9.9-6.7.8-.1 1.7-.2 2.6-.3-.9 0-1.8-.1-2.6-.1zM507.6 508.7l-1.2-2.2c-3.4-6-6.3-11.4-6-16.3l.1-2.5 3.3.8.2.1c1.7.9 3 2.4 3.7 4.1 1.2 2.9 2.6 6.4 3.8 9.7.6 1.7.2 2.8-.3 3.4-.3.4-.8.9-1.8 1.1l-1.8 1.8z"/><path d="M503.5 492.6c-.8 0-1.4-.2-1.7-.3l-1-.4-.3-.8c-2.7-6.6-1.4-10.9.4-14.6l.9-1.8 1.9.9c1.9 1 3.8 3 3.5 5.2-.2 1.2-.2 2.5-.2 3.9 0 1.9 0 3.9-.5 5.7-.2.8-.7 1.4-1.4 1.8-.6.3-1.1.4-1.6.4zm-.6-9.4v1.1-1.1zM392.9 438.7l-.8-3.3c-.9-3.7-.8-6.9-.7-9.6l.4-6.6 4.7 8.2v.4c0 .5.1 1.1.2 1.7.2 1.7.5 3.5 0 5.2l-.2.5-3.6 3.5zM510.2 600.9c-1.6 0-2.7-1.5-3.2-2.2l-1.5-2.1-1.1-1.5v-.6c0-1-1-2.5-1.9-4l-.2-.3c-5.9-9.5-7.1-16.7-3.8-22.8 4.6-8.5 11.6-13.1 21.3-14 0 0 .1-.1.2-.1.9-.4 3.2-1.3 5.4 1.7.3.4 1.2 1.7.6 3.1-.6 1.3-2 1.6-2.6 1.7h-.2c-6.2 5.3-8.8 11.3-8.3 19.6.4 7.6-.3 14.2-2.1 19.7-.5 1.5-1.6 1.9-2.1 2-.3-.2-.4-.2-.5-.2zm-2-7.2.5.6c.3.4.6.8.9 1.1 1.1-4.6 1.5-9.9 1.2-15.9-.5-9.2 2.4-16.2 8.9-22.1-8.1.9-13.9 4.8-17.8 11.9-2.6 4.7-1.4 10.7 3.7 18.8l.2.3c1 1.7 2.1 3.4 2.4 5.3zM273.1 667.3l-3.1-7.6c-1.5-3.8-1.2-6.6-1-9.1.1-.9.2-1.7.2-2.5.1-8.7 1.5-15.7 4.3-21.5 0-1 .4-1.5.8-1.8.4-.4 1.3-.9 2.7-.5l1 .3.3 1c.8 2.7.1 4.5-.4 5.9l-.2.5c-2.2 5.9-2.7 13.2-3.2 20.3-.2 2.3-.3 4.6-.6 6.9l-.8 8.1zM387.5 423.9l-1.8-4.2c-4.7-10.8-6-12.6-17.9-18.5-.7-.3-1.3-.6-2.1-.9-1.6-.6-3.4-1.3-5.3-2.9l-4.3-3.7 5.7.2c8.7.3 22.7 10.6 26.8 19.8.8 1.9 1.7 4.1.8 6l-1.9 4.2z"/><path d="m274.5 630.6-.9-3.1c-.7-2.3-.1-3.9.4-5.1.1-.2.1-.3.2-.5.3-1 .5-1.3-.7-2.6l-1.8-2.1 2.6-1.1c.1 0 .1-.1.2-.1 1.2-.6 3-1.2 5.1 1.2 1.5 1.6 1.6 3.5.3 5.1-.1.2-.2.9-.3 1.4-.2 1.2-.4 2.9-1.8 4l-3.3 2.9z"/><path d="m268.2 622.8.2-2.3c.1-1.4.5-3.3 2.2-4.4 1.3-.8 2.9-.8 5 0l3.1 1.2-2.5 2.2c-.2.2-.5.4-.7.7-1.1 1-2.5 2.5-5.1 2.5l-2.2.1zM271.8 663.4c-.5 0-1.1-.1-1.8-.4-2.7-1.2-3.7-3.6-4.4-5.3l-3.6-9.1 6.8 6.8c1.7 1.7 2.3 1.6 2.3 1.6l1.8-.6.7 1.8c.4 1 1.2 3.2-.2 4.5-.2.4-.7.7-1.6.7zM393.5 398.6l-.8-3.5c-.4-1.8.4-2.9.8-3.6.1-.1.2-.3.2-.4 0 0 0-.2-.3-.7l-.8-1.4 3.7-3.3c2.8-2.6 5.7-5.2 8.6-7.7.8-.7 1.9-.7 2.6-.7h.4l1-.1 3.3 3.6-18.7 17.8zM512.1 510.3h-.2c-1.9-.1-3-1.5-3.9-2.7-.3-.4-.6-.8-.9-1l-.3-.3-.2-.4c-.9-2-1.6-3.9-2.2-5.8-1.1-3-2.1-5.8-3.8-8.8l-.3-.5.3-14.2.4-.5c.6-.8 1.2-1.6 1.9-2.4 1.4-1.9 2.9-3.9 4.9-5.5 6.5-5.4 15.5-4.5 26.7 2.5 3 1.9 5.6 4 8 6.5.1.1.3.2.4.3.5.5 1.1 1 1.8 1.5 2.3 1.8 4.6 3.7 4.5 6.3-.1 1-.6 1.7-1.4 2.1-1.6.8-3.2-.3-5.2-1.7-.7-.4-1.3-.9-1.8-1.1-11.1-5.4-16.6-2.4-20.2.8-3.4 3.1-5.6 8.2-6.9 16-.1.7 0 1.8.1 2.8 0 .4.1.8.1 1.2 0 .1.1.4.2.6.2.9.6 2.2-.2 3.3-.1.4-.7 1-1.8 1zm-7.7-20.4c1.7 3.1 2.7 6.1 3.8 8.9.6 1.6 1.1 3.1 1.7 4.6-.1-.9-.1-1.8 0-2.6 1.4-8.7 4-14.6 8.1-18.3 5.9-5.3 12.7-6.2 21.2-2.9-2-2.1-4.3-3.9-6.8-5.5-9.7-6.1-16.9-7-22-2.8-1.6 1.3-2.9 3-4.2 4.8-.5.7-1 1.3-1.5 2l-.3 11.8zM623.6 565c-3.3 0-6.8-2.8-11.9-7.6-6-5.7-11.4-11.3-11.4-18 0-3.6 1.4-6.7 3.9-8.6 2.6-2 6-2.5 9.6-1.5 7 1.9 10.6 4.7 15.7 11.9 3.1 4.4 5.7 14.5 2.9 18.1-.6.7-1.2 1.3-1.8 1.8-.2.2-.5.4-.7.6-2.3 2.3-4.3 3.3-6.3 3.3zm-13.2-32.2c-1.4 0-2.7.4-3.7 1.2-1.5 1.1-2.3 3.1-2.3 5.4 0 5.1 4.8 10.1 10.2 15.1 8.7 8.2 9.5 7.4 12.7 4.4.3-.2.5-.5.8-.7.5-.4.9-.8 1.3-1.2 1-1.3 0-9.1-3-13.4-4.5-6.5-7.4-8.7-13.4-10.3-1.1-.3-1.9-.5-2.6-.5z"/></svg>