<svg xmlns="http://www.w3.org/2000/svg" xml:space="preserve" baseProfile="tiny" overflow="visible" version="1.2" viewBox="0 0 1000 1000"><path fill="none" d="M500 725c-60.1 0-116.6-23.4-159.1-65.9-42.5-42.5-65.9-99-65.9-159.1s23.4-116.6 65.9-159.1c42.5-42.5 99-65.9 159.1-65.9s116.6 23.4 159.1 65.9c42.5 42.5 65.9 99 65.9 159.1s-23.4 116.6-65.9 159.1c-42.5 42.5-99 65.9-159.1 65.9zm0-400c-96.5 0-175 78.5-175 175s78.5 175 175 175 175-78.5 175-175-78.5-175-175-175z"/><path fill="#FFF" d="m447.7 354.2-85.4 26.6-18.8 77.2 131 99.7 68.8-64z"/><path fill="none" stroke="#FFF" stroke-miterlimit="10" stroke-width="20" d="m166.2 355.3 177.3-179 346.9 342.2 7 21.5-30.9 36.9-3.5-3.3-99.1 89.7 6.3 12.5-31.6 31.8-18.7-3.1z"/><path d="M324.7 199.3c-6.7 6.3-13 13.1-19.4 19.7-5.3 5.5-10.9 10.9-16.3 16.4-3.8 3.8-7.6 7.5-11.4 11.2-3 3-5.9 6.2-8.8 9.3-2 2.1-4.5 3.7-6.9 5.3-1.1.8-2.1 1.5-2.1 3.1 0 .9-.8 1.3-1.3 1.8-9.1 9.1-18.2 18.2-27.2 27.4-6 6.1-12 12.1-17.9 18.3-8.8 9.1-18 17.9-26.9 26.9-6.1 6.2-12.3 12.5-18.6 18.5-2.1 2-2.1 2.5-.1 4.5 17.9 17.7 35.9 35.4 53.8 53.1 8.9 8.8 17.8 17.8 26.7 26.6 4.2 4.2 8.6 8.2 12.8 12.4 5.6 5.5 11.2 11.1 16.9 16.7 9.6 9.5 19.3 18.8 28.8 28.4 8.2 8.3 16.4 16.6 24.7 24.8 8.1 8.1 16.4 16 24.5 24 5.9 5.8 11.7 11.7 17.6 17.6 11.7 11.6 23.3 23.2 35.1 34.7 6.7 6.6 13.5 13.2 20.3 19.7 10.9 10.5 21.4 21.3 32.1 31.9 7.5 7.4 15 14.8 22.5 22.3 9 9 17.9 18.1 27 26.9 4.8 4.6 10.5 8.2 17 10.1 4.8 1.4 9.6 1.5 14.5 0 4-1.2 6.4-4.3 9.2-7.1 5.3-5.4 10.7-10.8 16-16.2 2.8-2.9 5.7-5.7 8.6-8.6 1.8-1.9 1.8-2.5-.1-4.2-1.3-1.3-2.6-2.7-4-3.9-1.1-.9-.9-1.7-.1-2.6 2.4-2.9 5.1-5.5 7.8-8.1 1.2-1.1 1.9-2.2 2.2-4 .6-4.6 2.1-9.1 3.1-13.7.4-2.3 1.6-3.8 3.2-5.3.3-.2.7-.6.6-.8-.6-2.4 1.4-3.2 2.6-4.4 3-3.2 6.1-6.2 9.3-9.3 2.3-2.2 2.5-2.2 4.6-.1 9.8 9.8 20.1 19 30 28.7 8.4 8.2 17.2 16 25.4 24.3 2.9 2.9 6 5.6 8.7 8.7.9 1 1.7.8 2.5 0 2.2-2.2 4.3-4.4 6.4-6.6 1-.9.4-1.4-.3-2.2-8.5-8.7-16.9-17.4-25.3-26.1-9.2-9.6-18.5-19.2-27.6-28.9l-8.7-9c-2.2-2.3-2.1-2.4-.1-4.7 2.5-2.8 5.2-5.4 7.8-8.1 1.8-1.8 2.9-1.7 4.3.4 1.2 1.8 3.1 2.5 5.2 1.8 2.2-.7 3.9-2.8 3.6-5-.2-1.1.2-1.7.9-2.3 1-.9 1.9-1.9 1.7-3.4-.1-.9.5-.9 1.2-1.1 2.1-.6 4.2-.8 6.3-1 2.6-.2 4.7-1.2 6.4-3.2 2.5-2.9 5.4-5.6 8.3-8.1 1-.8 1.6-.7 2.4.1 1.5 1.6 3.2 3.1 4.7 4.7.9.9 1.5 1.2 2.5 0 8.8-9.5 18.3-18.3 27.1-27.7 2.3-2.4 3.1-5.9 3.3-9.1.7-11.2-3-20.7-11-28.6-8.1-8.1-16-16.3-24.2-24.4-7.5-7.4-15.1-14.6-22.6-22-4.7-4.6-9.3-9.3-14-14-11.5-11.3-22.8-22.6-34.5-33.7-4.8-4.6-9.4-9.5-14.2-14.1-11.5-11-22.6-22.5-33.9-33.7l-42-41.7-44.7-44.4c-5.3-5.3-10.4-10.7-15.9-15.8-11.4-10.5-22.2-21.7-33.4-32.4-5.8-5.5-11.4-11.3-17.1-17l-15.9-15.6c-10.1-9.9-20.3-19.8-30.4-29.7-1-1-1.6-.8-2.5.1-4.6 4.7-9.3 9.3-13.8 14.2-2.1 2.7-4.6 5-7 7.3zm-18.5 243.1c.6.5 1 1.4 1.9 1.5.9.2 1.8.2 2.6.4.5.1 1.3 0 1.3.7-.1.9-1 .6-1.5.6-.9 0-1.9-.5-2.8-.6-1.9-.1-2.2-1-1.5-2.6.1-3.4 1.1-6.7 2.1-9.9.1.9 0 1.8-.3 2.6-.6 2.4-.4 5.1-1.8 7.3zM394.4 280c1.1-.8 2.1-1.4 2.4.7 0 .1.1.3.2.4 2.4 1.9 2.4 1.9 2.1 4.4-1.2-2.1-2.6-3.9-4.5-5.2-1.7-.6-1.9-1-2.3-4.9.9 1.5 2 2.8 2.1 4.6zm82.2 357.9c-.4.3-.1.7 0 1.1 1.2 4.7 2.7 9.3 3.9 13.9 1.6 6.1 3 12.3 4.9 18.4.1.4.5 1 0 1.3-.5.3-.9-.2-1.2-.5l-5-5c-8.7-8.5-17.3-17-26-25.6-17.8-17.7-35.6-35.4-53.5-53-12.9-12.8-25.8-25.5-38.7-38.2-5.6-5.6-11-11.4-16.7-16.9-7.2-6.9-14.1-14-21.3-20.8-7.3-6.9-14.2-14.1-21.4-21.1-6.6-6.4-12.9-13-19.4-19.5-7.2-7.2-14.5-14.3-21.8-21.5-13.2-12.9-26-26.2-39.5-38.8-5.9-5.5-11.4-11.3-17-17-.6-.6-1.2-1.1-1.3-2 1.2-.1 2.1.4 3.1.6 1.4.4 2.6 0 3.6-1.1.9-1 1.1-2.3.4-3.5-.9-1.7-2.1-3.1-3.9-4-1.4-.7-3-.8-4.3.3-1.2 1-.9 2.4-.5 3.7.3 1 .5 2.1.7 3.2-10.2-9-19.9-18.5-29.3-28.4.9-.8 1.7-.9 2.5-1 6.6-.9 13.3-1.8 19.9-2.6 5.8-.7 11.5-1.3 17.3-2.2 1.3-.2 2.2 0 3.1.9 7.2 7.1 14.3 14.1 21.5 21.1 6.4 6.1 12.5 12.4 19 18.4 5.2 4.8 9.9 10.1 15.1 14.9 6.6 6.2 13.1 12.6 19.6 19.1 5.7 5.8 11.3 11.7 17 17.5 6.8 6.8 13.6 13.5 20.5 20.2.7.7 1 1.4.6 2.2-.6 1.6 0 2.6 1.1 3.7 4.2 4.1 8.4 8.1 12.5 12.3 5.9 5.9 12 11.6 18.4 16.9.6.5 1.1.8 1.9.8 1.2 0 2 .7 2.8 1.5 6.3 6.2 12.5 12.5 18.9 18.6 9 8.6 17.9 17.4 26.7 26.2l7.8 7.8.5-.5-27.9-27.9c.1-.2.3-.3.4-.5 5.3 4.7 9.9 10.1 15.3 14.7-2.5-3.3-5.8-5.8-8.5-9.4 2.8.6 4.5 2.2 6.7 3 5.2 1.9 10.4 4 15.7 5.4 3.8 1 7.4 2.5 11.4 2.8 2.1.2 4.4-.4 6.3.2 8.3 2.4 16.6 5.2 24.8 7.9.6.2.9.6 1.2 1.3.7 1.6 2.7 2.2 4.3 1.4.8-.4 1.8-.4 2.5.3.9.8-.2 1.4-.6 1.8-1.1 1.3-2.4 2.5-3.5 3.8-1.3 1.4-1.3 2.9-.4 4.6 1.2 2.1 2.7 3.9 4.2 5.7 1.3 1.6 3.4 2.6 3.7 4.6.3 1.8 1.2 2.9 2.3 4 2.4 2.3 4.7 4.8 7.2 7 2 1.8 4.3 2.8 7 1.2.9-.6 1.8-.7 2.7.1-.5.7-1 1.3-1.6 2 1.8-.4 2.5-2.1 4.2-2.5l-3.5 3.5.4.4c8.7-11.9 20-21.3 30.1-31.8.1.1.3.2.4.4l-2.9 2.9c2.9-1.3 3.6-4.4 6-5.8 1.9-1.1 3.5-3 5-4.7 1.1-1.1 1.8-1.1 2.9-.1 9.1 8.6 18.2 17.3 27.3 25.8 1.3 1.2 1.9 2 .3 3.5-1.8 1.7-1.4 5 .5 5.5 2.1.6 4.5 2.3 6.3-.6.2-.3.5-.6 1-.2.7.5.2.8 0 1.2-.4.6-.8 1.1-1.3 1.6-1.6 1.8-3.3 3.6-4.9 5.4l.4.4 5.4-5.4c-1.6 2.9-4.4 4.7-6.1 7.8.9-1 1.4-1.2 2 .1 1 2.2 2.7 2.3 4.4.6l3.1-3.1c2.8-2.6 2.8-2.6 5.9-.4.4.3.8.6 1.1.9 6.8 6.1 13 12.8 19.8 19 1.5 1.4 1.3 2.4 0 3.7-4.4 4.3-8.7 8.7-13.1 13.1-1 1.1-1.9 2.2-2.2 3.7-1.2 5.1-2.4 10.2-3.5 15.3-.4 1.8-.7 3.7-2.1 5.1-2.8 2.7-5.6 5.5-8.3 8.3-1.3 1.3-2.1 1.1-3.3-.2-4.1-4.2-8.3-8.3-12.6-12.4-1.3-1.2-1.4-2.1 0-3.4 2.5-2.3 4.8-4.8 7.2-7.2.8-.8 1.3-1.9.2-2.4-3-1.5-4.9-4.4-8-5.9-2.9-1.4-5.2-1.4-7.5.5-2.1 1.8-2.5 4.2-1.4 7.2.2.4.4.9-.3 1.5l-5.7-5.7c-2.9-2.9-2.9-2.9-.7-6.3.1-.2.3-.5.4-.7.1-.1 0-.3.1-.5-1.7.8-1.2-1.4-2.2-1.7-1.3-.4-.9-1.3-.1-2 .6-.6 1.2-1.2 1.7-1.8.3-.3.9-.3.9-.2-.3 1.9 2.9 1.6 1.9 4.2 1.1-1.1 1.8-1.7 2.4-2.4 1.2-1.3 1-3.4-.6-4-1.7-.6-1-1.4-.3-2.5-2.7 2-4.5 4.5-7.3 5.9l5.3-5.3c-2.5 1.9-4.9 3.9-7.1 6.1-3.8 3.8-3.8 3.8 0 7.6 0 0 .1.1.2.1 1 .7 1 1.4.1 2.3-3.2 3.3-6.2 6.8-9.3 10-7.5 7.8-15.4 15.2-22.7 23.2-2.7 3-5.7 5.7-8.7 8.8-.6-1-1-1.5-1.1-2.1-.9-3-1.7-6.1-2.5-9.2-2.3-8.7-4.6-17.5-7.1-26.2-2.5-9.1-5.2-18.2-7.9-27.3-.2-.8 0-1.4.6-2 .8-.8 1.9-1.5 2.1-3-1.4.3-1.7 2.2-3.3 2.1 2.4-2 3.6-3.5 3.9-4.8-4.3 3.7-4.3 3.7-8.3-.6-1-1.1-2.4-2-2.8-3.7 5 1.8 10.7.4 13.2-3.1 2.6-3.7 2.7-10-.2-13.3-2.7-3-7.5-4.8-12.8-2.4-2.6 1.2-4.2 3.3-5.2 5.9-1 2.6-.7 5.2.1 8.2-4.5-3.4-8-7.3-12.1-10.5 7.2 7.9 15.3 14.9 22.4 22.9-5.7-4.4-10.4-10-15.8-14.7 1.7 2.1 3.8 3.9 5.6 6 2 2.3 4.9 3.8 5.8 6.9 1 3.5 2 7 3 10.4.3.9.4 2 1.8 2.1.1-.7.1-1.3-.2-2-.9-2.6-1.7-5.3-1.7-8.3 2 1.2 2.9 2.7 3.4 4.7 1.7 6.4 3.4 12.8 5.2 19.1l8.1 29.7c1.2 4.3 2.3 8.7 3.5 13.4-1.5-.9-2.8-1.5-3.2-3.1-1.4-4.9-2.7-9.8-4-14.7-1.6-5.6-3.1-11.2-4.8-16.7-1-1.7-.8-4-2.6-5.5zm23.2-59.8c4.3.2 7.5-2.2 9.4-7 .3-.9.4-1.9 1.9-1.7.8.1 1.6 0 1.9.8.4 1.2-.5 1.8-1.2 2.4-1.9 2-3.9 3.9-5.9 5.9-3.4 3.4-6.7 6.8-10.1 10.2-.8.8-1.3 1-2.2-.3-.9-1.4-.2-2.5-.1-3.8-.9.8-1.8 1.3-2.9.2-1.2-1.3-2.3-2.6-3.5-3.8-.3-.3-.7-.7-.2-1.1.8-.7.6-1.9 1.2-3 1 1.1 1.9 2.1 2.8 3.1 1.2 1.4 2.8 2.5 2.6 4.7.8-1.1.7-2.3-.2-3.2-2.8-2.9-5.6-5.7-8.4-8.6-1.2-1.2-2.3-1.1-3.7-.2-1.1.7-1.9 2.3-3.2 2.1-1.3-.2-2-1.9-2.9-2.8l-.4-.4c-3.9-4.8-2.8-8 1.4-11.3.3-.3.6-.5 1.1-.3 2 1.1 4.4 1.2 6.3 2.5 2.7 1.9 5.1 3.9 5.6 7.7.5 3.9 3 6.5 7 7.4-1.9-1-3.4-2.4-4.6-4.3 1.6 1.6 3.3 3 5.8 1.7.2-.1.6 0 .8.2.8.9 1.3.3 1.9-.3.6-.6.9-.8 1.4.1.4.8 1.3.5 1.8.1.7-.5.3-1.1-.1-1.6-.4-.4-1.1-.7-.4-1.5.5-.5.9-.3 1.4.1.6.5 1.4.4 1.9-.2.4-.5.7-1.1.2-1.7-.8-.9-.1-1 .5-1.1 1.2 0 2.1.2 1.7 1.8-.3 1.2-.9 2.3-1.7 3.3-1.9 2.4-4.4 3.2-6.9 3.9zm38.4-48.5c.5.3 1.1.7 1.6.9 1.6.6 1.8 1.2.6 2.6-1.9 2.2-4.1 4.2-6.1 6.3-2.8 2.9-5.7 5.7-8.5 8.6-1 1-1.6.9-2.1-.4l-1.5-3.6c.2 3.2 1.1 6.2 3.7 8.4 2.2 1.9 2.2 2.4.3 4.3-2.7 2.7-5.6 5.3-8.1 8.2-2.5 2.9-5.3 3.7-8.9 2.7 3.4-2.4 4.7-5.5 3.5-9.6-.2-.5-.1-1.1-.7-.9-2 .4-2.4-.8-2.9-2.3-.6-1.9-1.2-2-2.5-.4-1.7 2.2-4.1 3.6-5.4 6.3-1.2 2.4-1.6 3.3.2 5.5.3.4 1 .6.8 1.4-2.8.3-5.7.2-8.6-.1-1.2-.1-2.6.4-3.7-.8-3.6-3.7-7.2-7.3-10.9-10.9-.5-.5-.7-.9-.2-1.4.9-1 1.9-1.8 2.8-2.8.6-.6 1.1-.5 1.8 0 2.9 2.6 5.1 6.1 9.1 7.3.6.2.8 1.5 1.8.6.9-.8 2.2-1.9 1.8-2.8-.6-1.7-1-3.7-2.7-4.9-1.9-1.4-3.5-3.3-5.4-4.8-.8-.7-.9-1.2-.2-2 4.9-5 9.7-10.1 14.6-15.1 3.9-4 7.8-7.9 11.7-11.8 7.4-7.5 14.7-15.1 22.1-22.6 1.1-1.1 1.9-1 3 0 2.5 2.5 4.7 5.4 8 7 .9.4 1.6 1 2.6.3s1.2-1.5.9-2.5c-.7-2.3-1-4.7-3.4-6.1-1.3-.8-2.3-2-3.4-3.1-1-.9-2-1.7-.3-2.9 1.2-.9 1.9-2.7 3.8-.7 3.5 3.7 7.2 7.2 10.8 10.7.5.5.7 1 .6 1.6 0 1.6 0 3.2.1 4.7.1 2.9-.1 5.9-.5 8.9-1-.7-1.7-1.3-2.5-1.8-.6-.4-1.3-.5-1.6.2-.4.8.3 1.3.9 1.3 2 .3 2.7 1.6 2.8 3.3.1 1.9-.5 3.5-2.1 4.7-1.6 1.2-3.2 1.6-5.5.5.6 1.1.9 1.3 1.4 1.5 2.1.6 3.8-.2 5.3-1.7.3-.3.6-.7 1-.5.4.2.3.7.3 1.1.2.9.1 1.6-.5 2.3-3 3.2-6 6.4-9.1 9.4-1 1-1.7.9-2.7 0-2.2-2.1-4.6-3.9-7.9-4.1zm63.3 32c.7-.3 1.3-.6 2.2-1.1-.3 1.6.6 2.4 1.8 2.7 1.2.3.8.9.4 1.4-.4.5-.9 1-1.4 1.4-1 1-2.1 2.2-2.2-.5 0-.7-.8-.7-1.2-.9-1-.4-1.2-.8-.4-1.6.3-.3.7-.7.8-1.4-.6.9-1.6 1.3-2.4 1.7-2.1.9-3.6 2.1-3.8 4.6.8-.5 1.5-.7 2.1.2.5.6 1 1.2 1.8 1.3 1.3.1 1 .9.4 1.3-1.3 1.2-2.3 2.7-4.1 3.5.2-1.2.4-2.5-.8-3-1.4-.7-1-1.5-.5-2.4-1.8 1-3.8 1.6-5.1 3.3-1.3 1.6-2.7 3-4.4 4.1-.5.3-.8 1.1-1.6.6-.6-.4-.9-1.1-.6-1.8.6-1.5.1-2.9-.1-4.3-.4-2.4-1.8-3.1-3.8-1.7-1.8 1.3-2.7.7-4-.6-5.4-5.7-11-11.4-16.5-17.1-3.2-3.3-6.4-6.5-9.7-9.7-.9-.9-1-1.6 0-2.6 2.3-2.1 4.1-4.6 6.4-6.7 6.5-6 12-12.9 18.6-18.7.8-.7 1.5-1.6 2.2-2.5.3-.4-.5-.9.3-1.6 2.7-2.5 5.2-5.1 7.8-7.7-.1-.2-.1-.4-.2-.6-.9.7-1.7 1.1-1.4-.5.2-1.2.3-2.2 1-3.3 1.6-2.2 1.2-4.6-.7-6.5-2.6-2.6-5.2-5.2-7.9-7.7-.7-.7-1.4-1.7-2.6-1.6-2 .2-3-1-4.2-2.2-1.4-1.4-2.8-2.9-4.3-4.2-2.9-2.6-5.7-2.6-8.6.1-1.2 1.1-2.3 2.2-3.5 3.3-.3.3-.6.8-1.2.4-1.2-1-1.3-3 0-4 .5-.4 1.4-.7.9-1.6-.5-.8-.9-2.3-1.8-2-2.3.8-2.2-1.1-2.8-2.2-1.4-2.3-2-4.9-2.9-7.3-2.8-7.7-5.3-15.5-6.4-23.7-.7-5.9-2.7-11.5-5-17-.8-1.8-1.4-3.7-2.1-5.5 2.5 2 4.7 4.2 6.8 6.4.4.4 1.1.9.2 1.4-1.3.8-.9 2-1 3.2-.1 1.3.7 1.9 1.7 1.9 1.1 0 1.9-.7 2-2 0-.7-.3-1.5 0-2.2.6 0 1.1.4 1.5.7 3.6 2.7 7.2 5.2 10.7 8 6.4 5.1 11.8 11.1 16.4 17.8 4.9 7.1 9.1 14.5 13.3 22 3.1 5.5 6.1 11.2 8.4 17.1.8 2 .9 3.6-.9 5.3-1.6 1.6-3.4 3.1-4.9 5.6 1.8-1.8 3-3.1 4.4-4.4.6-.6 1.2-1.8 2-1.5.9.4 1.4 1.5 1.5 2.6 0 .3.2.5.2.8.8 5.6 2.3 10.9 4.8 15.9 2.2 4.6 4.2 9.3 7.1 13.5 3.2 4.9 6.5 9.7 9.7 14.5 1.8 2.7 1.7 2.7-.3 5.3-2.1 2.6-5.2 4.5-6 8 .9 0 1.2-1.1 2.2-1.3.2 1.7 1.2 2.6 3.1 2.8-1.3 1.6-2.5 3.1-4.3 4.4 0-2-.7-3.3-2.8-3.4.3-.4.6-.6.6-.8.1-.3 1-.5.1-.8-.5-.2-.1-.9-.7-.8-.3.1-.9.4-.3 1 .2.2-.4.8-.7.8-2-.4-2 1.3-2.7 2.4-.1.4.1 1.3-.6 1.7zM206.4 354.9c1.4.6 3-.4 4.5.4-3.2 1.4-39 5.7-41.1 4.9 2.1-.8 4.4-.3 6.3-1.5-2.1-.4-4.2.8-6.5-.1 7.7-8.7 16.1-16.5 24.5-24.7-.6 2.1 1.2 2.2 2.1 3.1 3.7 3.6 7.4 7.2 11.1 10.7.6.6 1.2 1.2 1.9.5s.7-1.4-.2-2c-2.8-3.3-6.6-5.7-8.9-9.5 1.7 1.2 3.2 2.6 5.4 2.6.5 0 1 .5.6 1-1 1.7.4 2.5 1.3 3.4.8.7 1.7 1.3 1.5 2.5.9-.9 2 .8 3-.4 1.1-1.3 2.5-2.4 3.8-3.5.9-.7 1-1.6.3-2.4-1.2-1.4-2.5-2.6-3.8-3.8-.4-.4-1-.6-1.5-.2-1.2.8-1.8.1-1.7-1 .1-1.7-.8-3.1-1.5-4.5.3.1.5.2.7.4 2.5 2.5 4.9 5.1 7.5 7.6.6.6 1.3 1.4 2.3.4 1.1-1.1-.1-1.4-.6-1.9-3.8-4.2-8.2-7.7-11.9-12-1.1-1.3-1-2 .1-3.1 2.1-2 4-4.1 6-6.1 2.7-2.8 5.4-5.6 8.1-8.3.4-.4 1.1-1.6 1.7-.4.7 1.4 1.6 1.5 2.9 1.1.6-.2 1.2-.2 1.6.5-.5.5-.8 1.1-1.1 1.7-1.6 3-2.1 6.7-4 9.2-1.7 2.3-2.9 3.9-2.2 6.9.3 1.4.6 2.5 1.6 3 2.1 1 2.5 3.6 4.5 4.6.4.2.1.6 0 .9-.1.9.4 1.6 1.2 1.6.9.1 1.6-.7 1.5-1.6-.1-1 .2-1.7.9-2.4s1.2-1.7 2-2.5c.7-.7 1.1-2 .2-2.8-1.2-1-.3-1.4.3-2.1.9-1.1 2.6-1 3.2-2.2 1.9-3.4 5-5.7 7.6-8.5 3-3.1 6-6.2 9.1-9.2 1-1 2-2.7 3.9-1 .4.3 2.1.2 1.7-1-.8-2.2.7-2.1 1.9-2.4 1.3-.3 2.1-1.1 1.2-2.1-1.2-1.5-.3-2.2.6-3 .9-.9 1.8-1.9 2.7-2.8 2.7-2.8 5.4-5.5 8.2-8.2.5-.4.8-1.2 1.9-.7 1.6.7 2.5-.3 2-2-.1-.5-.1-.9.2-1.1 1.5-1.2 2.3-3.4 4.8-3.1.3.1.8-.2 1.1-.5.8-.8 1.5-1.2 2.7-.7.6.3 1.4.1 1.7-.8.2-.6.4-1.2-.3-1.7-2-1.3-3.2-3.4-5-4.9-1.9-1.5-2.7-4.2-5.5-4.8 4-4.5 8.9-8 13-12.2-3.8 2.3-6.8 5.5-10.3 8.2-7 5.6-13.8 11.6-20.3 17.7-5.5 5.2-11.5 9.8-16.9 15-.4.4-1.2 1.2-1.7.6-.7-.8.4-1.3.8-1.7 2.8-2.6 5.7-5.2 8.6-7.8 5.5-4.7 10.8-9.8 16.4-14.5 4-3.3 7.8-6.8 11.7-10.2 4.6-4.1 8.9-8.4 13.9-12.2.5-.4 1.1-1.2 1.7-.4.7.8-.3 1.2-.7 1.7-.7.9-1.9 1.5-2.3 2.8.8.1 1-.4 1.4-.7 1.4-1 2.6-2.3 4.7-2.2 1.8.1 2.8-1.1 2.7-3 0-.7.4-1.1.8-1.5 2.9-3.2 6.5-5.5 9.6-8.4 1.5-1.4 2.4-1.2 3.3.4.8 1.4 1.8 1.4 3.1.8.5-.3.7-1.6 1.5-.8.4.4.6 1.5.3 2.1-.9 1.7.3 2.7 1.3 3.2 1.2.5 1.9-.7 2.8-1.5 1.4-1.3 2.1-3.5 4.7-3 .7.1 1.1-.8 1-1.6-.1-.9-.7-.8-1.3-.9-1.8-.2-3.4-1.2-5.3-1.1-.5 0-.8-.7-1.1-1.2.4-.5 2 .1 1.4-1.4-.4-1.1-1.3-2.6-2.2-2.3-1.6.4-2.8 0-4.1-.7-1.1-.6-2.5-1-3.2.3-.8 1.5-2.2 2-3.3 3.1-.8.8-1.7 1.1-2.9.8.3-1 1.1-1.5 1.8-2.1 2.9-2.3 5.7-4.8 8.5-7.3 1.1-1 2-2.2 3.7-.9.2.1.8 0 1-.2 1-1 1.7-.3 2.5.4 1.3 1.2 2.6 2.5 3.9 3.8.5.4.9.8 1.5 1 .5.1.9.4 1.3-.1.3-.5.1-.9-.3-1.3-.3-.3-.7-.5-.9-.8-2.2-2.4-4.8-4.3-6.8-7.2 1.9.3 3.4.6 5 .9.8.2 1.2.7.9 1.7-.6 2.1.5 3.6 3.4 5.5 1.8 1.2 2.4-.5 3.5-1.1.4-.2.6-.6.9-.9 2.9-2.8 3-2.8-.1-5.4-1.2-1-2-2.5-4.1-2.2-.6.1-1.9-1.1-1.8-2.2.1-1.4-.5-2.5-1.2-3.8 1.6.8 2.7 1.8 3.8 2.9 1.7 1.6 3.4 3.2 5.1 4.7.6.5 1.3.7 1.8 0 .5-.6 0-1.2-.5-1.6-4.3-3.6-8.4-7.4-12.4-11.4-1.3-1.3-1.2-1.7-.1-2.8 3.9-3.7 7.7-7.5 11.6-11.2 3-3 6-6 9-9.1.4-.4 1-1.2 1.4-.3.5 1.4-.1 2.9-.3 4.3-.1 1-1.3.7-2.1.9-4.5 1.3-6.5 4-6.8 8.2-.1.8.1 1.5.8 2.1 2 1.9 2.5 6.1.9 8.4-1.1 1.6-1.3 3 .1 4.5.7.8 1 1.8 1.3 2.8l1.8 5.7c.1.3.5.5.3.9-.3.6-.7.1-1.1.1-.8-.2-1.6-.1-1.9.8-.2.8.4 1.3 1.1 1.6.4.2.7.4 1.3.6-4.8 6-10.7 10.8-15.7 16.5.6.5.7-.6 1.1-.2.3.3.1.6-.2.9l-6.1 6.1c2.2-1.9 4.7-3.5 6.7-5.6 1-1 1.7-.9 2.6 0l8.7 8.4c3.8 3.7 7.6 7.3 11.4 11 5.7 5.5 11.5 11 17.2 16.5.7.7.8 1.2 0 2-5 5.6-10.3 10.9-15.6 16.2l-11.7 11.7-27.6 27.9c-10.7 10.7-21.4 21.3-32.2 32-3.4 3.4-6.8 6.8-10.3 10.2-2 2-2.2 1.9-4.2 0-1.4-1.2-2.7-2.5-4-3.8-3.7-3.5-7.5-7-11.2-10.5-.5-.5-1.7-1.1-.5-2.1.7-.5 1.1-1.1.9-1.9-.1-.4-.5-.7-.9-.7-.9.1-1.5.6-1.8 1.5-.1.2-.2.3-.4.5-1.9-1.4-3.4-3-5-4.7-3.6-3.6-7.3-7-10.8-10.6-.7-.7-3.2-1.9.2-2.7.8-.2 1-1.2.5-1.9-.5-.8-1.3-.7-1.9 0-.4.5-.9 1-1.3 1.5-.2-.2-.4-.3-.5-.5 7.5-9.2 16.1-17.3 24.1-26-4.5 4.2-8.5 8.9-13.2 12.9-.1-.2-.3-.3-.4-.5l5.4-5.4c-1.6.5-2.2 1.7-3 2.4-4.8 4.5-9.6 9-14.1 13.8-3.3 3.6-6.6 7.3-10 10.7-2.9 2.9-5.3 6.8-10.2 6.8-.5.3-.8.6-1 .8zm442.7 133.8c-1-1.3-2.4-1-3.7-1-.3 0-.6.4-.9.1-1.2-1.1-2.9-1.4-4.4-1.8-3.1-1-6.3-1.8-9.5-2.7-8-2.2-16.2-3.9-24.3-6-2.7-.7-5.4-1.3-7.5-3.6-3.5-3.7-7.3-7.1-10.9-10.8-3.9-4-8.1-7.7-12-11.7-5.3-5.4-10.8-10.6-16.2-15.8-8.1-7.8-15.9-15.9-24-23.6-3.3-3.1-6.5-6.5-9.5-9.9-.4-.4-.7-.9-1-1.3-2.4-4-4.5-8.2-7.8-11.7-4.6-4.9-10-8.6-15.9-11.7-2.2-1.2-4.6-2.2-5.5-5-.7-2.2-.5-4.9-3.4-5.8-.1 0-.2-.4-.3-.5-.6-1.2-1.4-2.2-2.4-3.1-8.6-8.4-16.6-17.4-24.9-26-.5-.5-1-.9-1.6-.6-1.8.6-2.9-.4-3.9-1.6-1.2-1.2-2.3-2.5-3.6-3.7-9.4-8.9-18.7-17.9-27.8-27-9.6-9.6-19-19.3-28.8-28.6-5.8-5.5-11.2-11.3-17.1-16.6-6-5.4-11.6-11.1-17.3-16.9-5.7-5.7-11.5-11.4-17.3-17.1-1-1-1.5-1.9-1.1-3.4.5-2.6.5-5.3.8-8 1-7.9 1.6-15.8 2.4-23.7.2-2.3.7-4.5 1.1-7.3l8.8 8.8 17 16.7c.5.5 1.4 1 1.1 1.8-.2.7-1.2.5-1.9.6-2.6.5-3.5 2.3-2.4 4.8.6 1.3 1.8 2.1 2.7 3.1 1.2 1.3 2.7 1.7 4.1.9 1.3-.8 2.3-2 1.8-3.8-.2-.9-.1-1.5 1-1 .4.2.8.5 1.1.9 7.5 7.3 15.1 14.5 22.5 21.8 5.8 5.7 11.5 11.5 17.3 17.2 2.2 2.2 4.3 4.3 6.4 6.5.3.3.7.6.5 1-.2.5-.8.3-1.1.2-.4-.1-.8-.3-1.1-.4-1.2-.3-2.1.4-3 1.1-.8.6-.4 1.4-.2 2.3.5 2.1 2 3.4 3.7 4.6 1.1.8 2.5.9 3.5.1.9-.7 1.8-1.8 1.1-3.2-.3-.6-.2-1.2.2-1.7.5 0 .8.4 1 .7 10.6 10.1 20.8 20.6 31.2 30.9.7.7 2.1 1.4 1.8 2.3-.3.8-1.8.6-2.8.7-2.2.3-3.2 2.2-2.1 4.1.9 1.5 2.1 2.8 3.8 3.5 1 .5 2.1.8 3.1-.1.9-.8 1.6-1.7 1.2-3.1-.2-.7-.4-1.5.5-2.3l3.7 3.7c14.7 14.7 29.4 29.4 44.2 44.1.5.5 1.4 1 1.1 1.8-.3.8-1.2.4-1.9.4-2.4 0-3.5 1.8-2.4 3.9.7 1.3 1.6 2.4 2.7 3.3 2.1 1.8 4.5 1 5.1-1.8.1-.4 0-.8.1-1.2.1-.5 0-1.1.5-1.3.4-.2.7.3 1 .6 1 .9 2 1.7 2.9 2.7 9.3 9.3 18.7 18.5 28 27.8.6.6 1.7 1.2 1.4 2-.3.7-1.4.8-2.4 1-2.3.4-2.6 1-2 3.4.4 1.8 1.8 2.9 3.1 4.1 1.3 1.2 2.6 1.1 4 .5 1.4-.6 1-1.9.8-2.9-.1-.6-.1-1.1.4-1.5.6-.4 1.1.2 1.5.4.5.3.9.8 1.4 1.2 4.2 4.1 8.4 8.3 12.6 12.4 9.9 9.6 19.9 19.2 29.7 28.9 1.7 1.7 3.8 3 4.9 5.5-1.3 0-2.4.5-3.6.4-1.5 0-2.5 1.6-2.3 3 .4 2.2 1.9 3.7 3.7 4.8 2.5 1.5 5.2-.1 5.1-3 0-.8-.3-1.7.4-2 .7-.3 1.1.6 1.6 1.1 9.8 9.8 19.6 19.5 29.4 29.3 5.3 5.3 10.6 10.7 15.8 16 .4.4 1.2.9.8 1.5-.4.8-1.1.1-1.6 0-3.8-.7-7.4-2-11.2-2.4.4 1.7 1.9 1.9 3.3 2.3 3.4.9 6.9 1.8 10.2 2.9 1.8.6 4.2.1 4.9 3-2.5 0-4.7-1.2-7.2-1.5.4.8 1 .8 1.6 1 1.7.6 3.5.6 5.1 1.4 2.1 1.1 2.2 1.2.6 2.9l-.3.3c-7.8 8-15.4 16.1-23.5 23.9-1.1 1.1-2 2.4-3.6 3.4.8-1.6 0-2.3-.8-3.1-4.6-4.5-9.1-9.1-13.7-13.6-1.3-1.3-1.2-3.5-3-4.7-1.4-.9-2-.5-3 .4-1 1-1.1 1.7-.1 2.8 1.2 1.3 3.1 1.7 4.2 2.7 4.3 3.8 8.3 8.1 12.5 12.3-3.1.9-3.7.9-4.2-.6-.8-2.7-3-3.6-5.3-4.4-2.3-.8-4 .4-5.2 2.5-1.2 2.3-.4 4.3.6 6.6-2.8-1.7-4.7-4.1-6.7-6.3-.5-.5-1.3-.8-1.3-1.6-.1-2-2-2.5-3-3.7-.5-.6-1.1-.3-1.6.2-1.5 1.4-1.4 2.8.3 4.5.4.4 1.5.7 1.1 1.3-1.4 2.4.7 3.4 1.9 4.6 2.4 2.5 2.3 2.4 0 5-1 1.2-1.5.7-2.2-.1-1.3-1.4-2.1-3.2-3.1-4.8-2.7-4.5-5.4-9-7.2-13.9-1.5-4-2.9-8-4.1-12.4 1.5.8 2.8.3 4 .6 1.5.3 3.3 0 3.5-1.4.3-1.7 1.6-3.6.2-5.5-1.4-1.9-3-1.8-5.7-.3-1.1.6-1.7 2.7-2.7 2.3-1.3-.5-.3-2.5-1.1-3.8-.6-1-.3-2 .6-2.8 2.3-2.3 4.7-4.4 6.6-6.9 2.3-3.1 5-2.8 8-1.8.1 0 .3.1.4.1 2.2.2 4.1 1.5 6.3 1.4 0-.8-.5-.8-1-.9-3.1-.8-6.3-1.6-9.4-2.4-1-.3-1.9-.6-2.2-1.8 7.3 1.8 14.5 3.4 21.7 5.2 4.6 1.2 9.2 2.6 13.9 3.9 2.6.7 5.3 1.4 7.9 2.1 1.1-.3 1.3-.7.8-1.6zm-202.2 33.6c1.5 0 2.4-.2 3.3.2 3.3 1.7 6.5 3.5 9.8 5.3 2.5 1.4 5.1 2.8 7.6 4.3.6.3 1 .3 1.5-.1.5-.5.3-1-.1-1.5-.3-.5-.8-.8-1.3-1-4.8-2.6-9.7-5.2-14.5-7.9-1.2-.7-2.5-1.2-3.5-2.4-1.2-1.4-2-3.9-4.9-3.1-1 .3-.8-.8-.2-1.4 1.2-1.3 2.3-2.6 3.5-3.8 6.1-6.2 12.1-12.4 18.2-18.6 2.1-2.2 4.3-4.4 6.5-6.5.8-.8 1.8-1.5 2 .5.1.8.6 1.3 1.3 1.4 2 .3 3.6 1.6 4.9 2.8 3.6 3.4 7.3 6.8 10.5 10.5.9 1.1 2.1 2 3.3 2.8.7.5 1.5.5 2.1-.2.7-.7.2-1.4-.4-2l-2.2-2.2c-5-5.6-11.9-9.5-14.7-17-.1-.2-.4-.5-.6-.5-3.2-.1-1.1-1.4-.4-2.1 6-6.2 12.1-12.4 18.2-18.6 3-3 5.9-6.1 8.9-9 .4-.4.9-1.2 1.7-.8.8.4.6 1.1.5 1.8-.1.7-.1 1.4.6 1.8 2.5 1.4 4.4 3.2 5.7 5.8 2.4 4.7 5 9.3 7.4 13.9.6 1.2 1.4 1.8 2.9 1.3-1.9-4.4-4.8-8.2-6.4-12.7 3.4 2.8 6.9 5.5 9.9 8.7-.3-.6-.8-1.1-1.2-1.5-2.3-2.3-4.6-4.5-6.8-6.8-.7-.7-1.8-1.3-.4-2.8 1.8-1.9-.2-7.2-2.8-7.9-.9-.2-1.7-1.4-2.7-.7-1.1.8-1.3 0-1.8-.7-1.4-2.3-2.9-4.7-4-7.1-1.1-2.5-4.6-4.6-2-8.3 1.1-1.6-.8-5.6-2.6-6.7-1.2-.7-2.5-1.7-3.1.9-1.9-2.3-3-4.7-4.3-6.9-3.3-5.8-6.5-11.6-9.7-17.4-3-5.4-6.1-10.7-9-16.1-3.1-5.6-5.8-11.3-9.1-16.8-3.7-6.1-7.1-12.4-10.7-18.5-2.3-4-4.6-8.1-6.8-12.2-.5-.8-1-1.8.6-2.2 3.5-1 7-2.2 10.6-2.7.5-.1.9-.2 1.5.4 4.7 4.9 9.4 9.8 14.1 14.6.6.6 1.2 1.2.7 2.3-.4 1 .2 2 1.2 2.4 1.3.6 1.7 1.5 1.6 2.9-.1.9.5 1.8 1.4 2.1 1 .5 1.2-.5 1.6-1.1.3-.5.8-.9 1.3-.3 1.1 1.1 2.1 2.2 3.1 3.4.4.4.4 1.1-.2 1.5-1.7 1-1.6 2.5-1.2 4.2.8 3.8 3.4 5.6 7.2 4.7.8-.2.9.4 1.2.8 1.9 3.2 3.8 6.4 5.7 9.5 3.5 5.8 7 11.5 10.4 17.4 2.8 4.8 5.4 9.8 8.1 14.7.4.8.6 1.3 0 2-.9 1-.6 2.1.4 2.9 1 .8 1.6 1.7 1.7 3.1.2 1.2.4 3.4 2.7 1.7.5-.4.6.2.7.4.5.7.9 1.5 1.4 2.2 1.1 1.7.1 1.9-1.1 2-1.8.1-2 1.5-1.8 2.6.2 1.4.7 2.8 1.3 4 1 2 3.6 3 5.3 2.2.7-.3 1.2-1.7 2.1-.4.5.7.9 1.5 1.3 2.3.1.3.1.5-.3.8-1.6 1.1-1.7 1.9-.2 3.1 1.4 1.1 2.2 2.3 2.2 4.2 0 .6.2 1.7 1.2 1.3 2.1-.8 2.1.9 2.5 1.9 1.6 4.1 3.2 8.1 4.5 12.3.8 2.5 2.9 5.1 0 7.6-.1.1-.1.3-.1.4-.3 1.2-1.2 1.6-2.3 1.7-1.8.1-3.1 1.3-4 2.5-.9 1.1.6 2.2 1.2 3.2.1.1 0 .2.2.7-2.3-2-4.2-3.8-6.2-5.5.3.7.8 1.2 1.3 1.7 2.3 2.5 4.7 5 7 7.5.9 1 1.2 1.8 0 3-6 6-11.8 12.2-17.7 18.2-10.1 10.4-20.2 20.7-30.4 31l-12 12c-1 1-1.7 1.3-3.1.1-5.3-4.8-10.3-10-15.5-14.9-4.1-3.9-7.5-8.5-12.7-11-.4-.2-1.2-.7-2.6-1.6zm7.9-31c-5.9 6.6-10.6 11-15 15.6-.9.9-1.6 1.3-2.9.5-4.8-2.8-9.7-5.5-14.6-8.2l-30.9-17.4c-5.6-3.1-5.6-3.3-.9-7.6 3.6-3.2 3.6-3.2 6.9.8.6.8 1 1.1 1.7.1.3-.4.8-.8 1.1-1.2 2.7-2.9 2.7-3-.1-5.8-1.3-1.3-1.5-2.3 0-3.8 4.8-4.6 9.5-9.4 14.2-14.1 2.5-2.5 2.5-2.4 5 0 2.1 2.1 2.1 2.1 4.1.1.5-.5.9-1.1 1.5-1.5 1.5-1 1.4-1.7 0-2.8-3.6-2.9-3.5-3.2-.1-6.3l.3-.3c1-1.1 1.7-1.1 2.9 0 6.8 6.5 13.7 12.8 20.5 19.3 6.1 5.8 12 11.8 18 17.6 1.1 1.1 1.5 1.8.2 3.2-4.7 4.5-9.1 9.1-11.9 11.8zm27.7-28 .2.2c-3.7 3.7-7.4 7.4-11 11.1-.9.9-1.5 1.2-2.5.1-12.5-12.3-25.6-23.8-38-36.2-2.6-2.6-2.5-2.5-.2-5 2.8-2.9 2.1-3.4 5.5.2 1.4 1.4 2.4 1.1 3.5.1 3.4-3.3 3.3-3.3 0-6.7l-.1-.1c-1.2-1-1.1-1.8 0-2.9 5.1-5 10.2-10 15.1-15.2 1.3-1.4 2.3-1.2 3.4 0 .3.3.5.6.8.9 2.2 2.1 2.8 2.1 4.8-.2 2-2.3 2-2.3-.1-4.6-.4-.5-.8-.9-1.2-1.4-.8-.9-.8-1.6.1-2.5 1.2-1.1 2.4-2.3 3.6-3.5 2.1-2.2 2.3-2.2 4 .4 3.3 5.3 6.2 10.9 9.3 16.3 6 10.6 11.6 21.4 18 31.8.6.9.4 1.6-.3 2.4-5.1 4.9-10 9.9-14.9 14.8zm-68.7-41.2c-6.1-5.3-10.2-9.7-14.6-14-2.4-2.3-2.5-3.8-.4-5.9 5.3-5.4 10.7-10.7 16.1-16.1 4.6-4.6 9.1-9.3 13.7-13.9 5.2-5.2 10.3-10.4 15.5-15.6.9-.9 1.5-1.4 2.4.2 2.3 4.3 4.8 8.5 7.3 12.8 4.2 7.2 8.4 14.4 12.6 21.7.9 1.6 1.5 3.2-.5 4.6-.9.7-1.6 1.7-2.5 2.5-3.7 3.8-3 3-6.1-.1-1.9-1.9-2.2-1.9-4.1 0-3.4 3.3-3.1 2.7.1 5.6 2.3 2 2.3 2.7.3 4.8-4.9 5-9.9 9.9-14.7 15-.9.9-1.6.9-2.4 0-1-1-2-2-2.9-3-.7-.7-1.2-.8-2.1 0-1 .8-1.5 2-2.6 2.7-1.4.9-1.3 1.6 0 2.7 4 3.5 3.9 3.6.5 7.4-.1.2-.3.3-.4.4-1.1 1.3-2 1.5-3.4.1-4.4-4.6-8.8-8.9-11.8-11.9zm-42.7 8.9-.4-.4 20.7-20.7c4.3-4.3 3.5-4.3 8.1 0 8.1 7.7 15.8 15.7 23.7 23.6 3 3 3.8 2.4 0 6.2-2.6 2.6-2.1 2.8-4.8.1-.5-.5-1.2-1-1.6-1.6-1.1-1.7-2-1.1-3.1.1-3 3.2-3.1 3.2.1 6.4 2 2 2.1 2.3.1 4.4-4.8 4.9-9.7 9.8-14.4 14.8-1.4 1.5-2.3 1.4-3.7-.1-3.7-3.9-3.8-3.8-7.3.3-.8.9-.5 1.3.2 2 1.1 1 2.1 2.1 3.2 3.2.7.7.7 1.2 0 1.9-1.7 1.7-3.4 3.4-5 5.3-1.2 1.4-2.3 1.2-3.6.4-5.2-2.9-10.3-5.9-15.5-8.9-6.2-3.5-12.4-7.1-18.6-10.6-2.1-1.2-2.4-1.9-.6-3.7 7.4-7.6 15-15.1 22.5-22.7zM418 535.1c.6-.7 2-.5 1.8-1.6-.2-.9-1.2-1.6-2.1-1.4-2.2.6-3.2-.4-3.8-2.4-.2-.7-.9-1-1.7-.9-.7.1-.7.7-.8 1.3 0 .5.1 1-.6 1.3-7.7-4.4-15.4-8.9-23.2-13.3-2.6-1.5-5.2-2.9-7.7-4.4-4-2.3-8.1-4.6-12-6.9-.5-.3-1.9-.6-1-1.8.7-.9 1.2-1.1 2.3-.2 1.9 1.4 3.8 3 6.5 2.6.7-.1 1.5-.2 1.5-1.1 0-.8-.8-1.5-1.3-1.5-2.7.1-4.4-1.4-5.9-3.4-.2-.2-.5-.5-.7-.4-1.5.5-1.9-.8-2.7-1.5-2.7-2.3-6.7-3.1-8.4.3-.7 1.4-1.3.9-2 .4-1.4-1.1-2.6-2.4-3.9-3.6-.4-.3-.8-.7-.6-1.2.2-.4.8-.4 1.3-.4.6.1 1.3.2 1.4-.8.1-.8-.1-1.4-.8-1.8-.4-.2-.8-.4-1.4-.3-1.8.1-3-.6-3.8-2.2-.5-1.1-1.4-2-2.8-1.2-.7.4-1.1.1-1.6-.3-4.6-4.6-9.4-9-13.8-13.8-.6-.7-.8-1.4-.7-2.5.4-3.8 1.6-7.4 2.4-11.1.3-1.5 1.1-.9 1.8-.4 5.4 3.3 11 6.2 16.6 9.3 6.9 3.8 13.7 7.8 20.6 11.6 4.1 2.3 8.3 4.4 12.4 6.7 6.4 3.6 12.7 7.6 19.2 11.1 5.7 3 11.1 6.6 16.9 9.3.5.2 1.3.5 1.4 1.2.4 3.2 2.9 4.3 5.3 5.7 1.3.8 2.5.8 3.7.1 1-.6 1.8-.4 2.5.1 3.9 2.6 8.1 4.4 12.2 6.5.7.3 1 .6.9 1.6-.2 2.4 3.9 6 6.2 5.3 2-.5 3.6-.3 4.9 1.5.5.6 1.1 1 1.7 1.6 3.9 3.7 7.8 7.5 11.7 11.2.8.8 1.1 1.3 0 2.3-1.4 1.3-2.9 2.8-1.9 5.4-1.7-1-1.9-.1-2.4 1.1-.9 2.5-1.4 2.6-3.9 1.7-2.1-.7-4.2-1.3-6.3-2-3.5-1.1-6.9-2.3-10.3-3.5-.6-.2-1.4-.4-1.1-1.2.5-1.3-.4-1.7-1.3-1.8-2-.3-3.7-.7-4.7-2.8-.3-.7-1.2-1-2-.5s-.8 1.2-.2 1.9c.3.3.3.8 0 1.3-1.4-.7-2.7-1.5-4.1-2.1-1.6-.6-1.6-1.4-.3-2.3 1.5-1.1 1.7-2.5 1.2-4.1-.6-1.9-4.1-3.9-6.4-3.6-2.3.3-3.2 2-3.3 4.1 0 .2-.2.4-.3.6-1.4-.9-3.1-1.5-4.6-2.8zm171.6 70-.7.7c-6.1-6.1-12.1-12.2-18.2-18.2-11.6-11.3-23.3-22.6-35-33.8-1-1-.9-1.7 0-2.6 3-3 6-6 8.9-9 .9-.9 1.5-.7 2.2.1 2.4 2.3 4.9 4.6 7.2 7l36.6 37.8c12.3 12.6 24.6 25.3 36.9 37.9 4.3 4.5 8.7 9 13 13.5 5.8 6.1 11.6 12.1 17.4 18.2 5.7 6 11.5 12 17.2 18.1 2 2.1 1.9 3.1-.2 5.1-.7.7-1.4 1.3-2.1 1.9-2 1.6-2.4 1.6-4.3-.2-7.7-7.3-15.3-14.6-23-22-12.6-12.1-25.3-24.2-37.9-36.3-6-6.1-12-12.2-18-18.2zM234.7 374.3l-.2.2-16.7-16.7c-1-1-1.1-1.7-.1-2.8 3.6-3.8 7.1-7.7 11-11.2.9-.7 1.4-.7 2.3 0 1.7 1.2 2.4 3.3 4 4.4 4.1 2.8 7.2 6.6 10.8 9.9 7.9 7.1 15.1 15.1 22.9 22.4 8.6 8 16.6 16.6 24.9 25 1.5 1.5 1.9 4.8.4 6.1-1.8 1.5-3 3.6-5.1 4.8-1.5.9-1.6 4-.2 4.4 1.2.4 1.1 1.1 1.3 1.9 1.1 4.7 3 6.5 7.7 7 .7.1 1.1.1 1.6.8 1 1.4 2.3 1 3.4.1.6-.5 1.1-1 1.5-1.6.8-1.1 2-2 3.1-1.3.9.6.9 2-.3 3-.1.1 0 .3 0 .4-.6 3.4-1.3 6.8-1.9 10.2-.1.5-.1 1.2-.7 1.4-.6.2-1-.5-1.3-.8-3.4-3.4-6.7-6.9-10.2-10.1-8.8-8.2-17-17-25.8-25.2-5.3-4.9-10.2-10.1-15.3-15.2l-17.1-17.1zm287 315.9c-1.3 1.1-2.4.9-3.3-.3-.4-.5-.8-.4-1.3 0-2.3 1.4-3.9 3.5-5.6 5.4-.6.7-.7 1.6.3 2.3.4.3 1.1.8.5 1.4-.7.8-1.1-.2-1.5-.5-4.9-4.7-9.8-9.6-14.8-14.3-1.2-1.2-1.3-2-.1-3.2 4.7-4.8 9.5-9.6 14.1-14.4 8.3-8.8 16.7-17.6 25.4-26 1.8-1.8 1.9-1.8 3.8.1 3.2 3.2 6.3 6.3 9.5 9.4 3.8 3.7 3.8 3.7.2 7.4-.4.4-.7.8-1.2 1.2-1 .8-1.3 1.8-.8 2.8.8 1.5.1 2.5-.9 3.5-.5.5-1 1.1-1.5 1.7 1.2-.6 2.2-1.3 3.1-2.2.7-.7 1.3-.7 1.9 0 1.5 1.7 2.6.9 3.7-.6.5-.7 1.1-1.4 1.8-2 3.5-3 2.3-3.2 5.5-.1l.9.9c1.1.9.9 1.6 0 2.6-2.6 2.8-5.2 5.7-8.1 8.3-3.1 2.8-5.8 6.1-8.8 9-2.8 2.6-5.4 5.4-7.9 8.3-4.6 5.3-9.7 10.1-14.6 15.1-.6.6-1.2.7-2 .2-2.2-1.4-4.4-2.6-6-4.7-.3-.4-1.3-.5-.6-1.2.5-.5.9.1 1.2.4.9 1 1.7.9 2.6-.1 1.2-1.5 2.5-2.8 4-4.1.8-.7 1.6-2 .6-2.9-1.3-1.4-.7-2.2-.1-3.4zM312.5 440.9c-1.9-3.8-2.5-7.8-3.5-11.6-2.4-9.6-5.8-18.9-9.1-28.2-2.6-7.2-5.4-14.3-8.3-21.4-.9-2.3-2-4.8-.4-7.3 1.2-1.9 2.3-3.8 3.3-5.8 4.6-8.1 10.7-15 16.7-22 2.2-2.6 4.8-5 7.2-7.5 1.1-1.1 2.1-1.1 3.2 0 2.1 2.1 4.2 4 6.3 6.1.7.7 1.2 1.4 0 2.4-1.5 1.2-2.8 2.7-4 4.2-1.2 1.5-1 3 .5 4.1.7.5 1.5 1.1 2.3 1.4 1.3.5 1.3 1.3.6 2.2-.7 1-1.5 1.8-2.2 2.8-4.3 5.4-7.2 11.6-9.5 18.1-.6 1.5-1 3.3-3.4 2.2-.4-.2-1.6-.6-1.8.6-.2 1.1-.1 1.9 1.3 2.1.9.1 1.2.7 1 1.6-.7 3.4-.9 6.8-1 10.3 0 .6.1 1.5-.2 1.8-2 2.1-1.6 4.8-2.3 7.3-.5 2 .2 3.2 1.8 4.1.8.5 1.1 1.2.8 2.2-.5 1.9-.5 3.8-.1 5.7.3 1.3 1 2.4 1.3 3.7 1.5 6.1 2.8 12.2 4.2 18.3.2 1 .2 1.5-1 1.3-1.3-.1-2.5.2-3.7 1.3zm116.8-113.5c-1.8.3-3.2-.4-4.7-.7-5.7-1.3-11.3-2.8-17-4.1-3.1-.7-6.1-2.5-9.4-.6-.6.3-.7-.2-.8-.6-.3-1.7-1.6-1.9-2.8-1.5-2.6.8-5.6-.1-8.1 1.8-.3.2-.9.2-1.2.1-2.1-.7-4.1-.2-6.1.1-1.8.2-3.7.7-5.5 1-.7.1-1.5.5-2-.4-.3-.6-.4-1.4-1.4-1-.8.4-1.2 1.1-1 1.8.4 1.2-.3 1.5-1.1 1.8-.6.3-1.3.4-1.9.7-6.4 3.3-12.7 6.8-18.5 11.1-3 2.3-3.2 2.3-5.2-.9-1.1-1.8-2.3-1.7-3.8-.9-1.7.9-2.8 2.5-4.1 3.8-.9 1-1.5.8-2.4 0-2.4-2.3-4.7-4.6-7.1-6.7-.8-.7-.5-1.2-.1-1.8 1.1-1.9 2.7-3.3 4.3-4.7 9.2-8.5 19.4-15.7 29.8-22.6 2.4-1.6 4.9-2.2 7.7-1 1.6.7 3.3 1.1 4.8 1.7 9.2 3.7 18.5 7.1 28 10.1 6.9 2.2 13.9 4.2 21.1 5.6 2.3.4 4.6 1 6.8 1.7.5.2 2 0 1.4 1.2-.8 1.7-.1 3.3.3 5zm-59.4 102.2.3.3-8.2 8.2-14.7 14.7c-.3.3-.6.9-1.2.7-.5-.3-.3-.8-.2-1.3l3.3-12.9c2.1-8.2 4.2-16.3 6.3-24.5 3-11.7 5.9-23.5 8.9-35.2.6-2.3.9-2.4 2.6-.8 8.6 8.1 17.1 16.4 25.5 24.8 1.5 1.5 1.3 2.3-.1 3.7-7.6 7.3-15 14.8-22.5 22.3zm73.8-75.2c-.6 1.5-1.3 2.2-2.1 2.9-4.5 4.4-8.9 8.9-13.3 13.5-10.3 10.6-20.8 20.8-31.1 31.4-.9 1-1.7 1.2-2.8.2-2.2-2.1-4.5-4.2-6.7-6.3-6.3-6.1-12.6-12.3-19-18.4-1.6-1.6-1.6-2 .6-2.7.7-.2 1.4-.6 2.1-.8 7.4-1.9 14.8-3.9 22.2-6 10.4-2.9 20.7-5.8 31.1-8.7 6.3-1.8 12.4-3.4 19-5.1zM695 546.1c2-.6 3.2-2.2 4.7-3.3.3-.2.5-.6.9-.4.3.2.4.5.4.9-.4 4.1-1.2 8-4.4 11.1-3 2.9-5.9 6-8.9 9-5.2 5.3-10.4 10.5-15.7 15.7-.5.5-1 1.5-1.8 1.2-1.7-.5-2.7-1.9-3.5-3.3-.6-1 .4-1.6 1-2.2 2.8-2.8 5.6-5.6 8.4-8.5-2.6 1.4-4.4 3.7-6.5 5.6-4.5 4.2-4.4 4.2-8.8-.3-3.5-3.5-3.4-2.5.1-6.2 6.4-6.9 13.1-13.6 20-20.1 2.4-2.3 4.7-4.7 7-7l-.4-.4-12.9 12.9c-4.8 4.7-9.7 9.4-14.5 14-3.8 3.7-2.8 2.9-6.2-.2-.8-.8-1-1.5-.1-2.4 1.2-1.1 2.1-2.4 3.3-3.5 1.2-1.1 1.5-2.2.1-3.3-1.1-.9-.9-1.7 0-2.6 2.6-2.7 5.3-5.3 7.9-8 .9-.9 1.6-1.3 2.8-.2.8.7 1.9 1.4 3.1.3l5.3-5.3c-.2-.9-1.7-.8-1.3-1 1.5-.8.2-1.4-.1-1.7-.9-1-.7-1.6.2-2.5 2.5-2.4 5-4.9 7.4-7.4 1.1-1.1 2-1.3 3 0 .9 1.1 1.9 1.2 3 0 .8-.9 1.7-1.8 2.6-2.7 1-1 2.5-2.9 3-2.6 1.2.9 1.8 2.5 2.6 3.9.7 1.1.5 2-.5 2.9-1.1 1.1-2 2.2-3 3.4 1.7-1 2.8-2.8 4.7-3.6 1.7 3.4 2.3 7.1 3 10.6.2.8 0 1.3-.6 1.8-1.8 1.9-3.6 3.6-5.3 5.4zm-24.9-41.9c.1-.8.8-1.2 1.2-1.7 1.1-1.3 2.1-1.7 3.5-.1 3.8 4 7.8 7.9 11.8 11.8 1 .9 1.3 1.6.1 2.7-1.5 1.4-2.8 3-4.2 4.5-.8.8-1.3 1.8-.4 2.8.9 1 .4 1.6-.3 2.3l-7.7 8c-.5.6-1.3.6-1.7.2-1.5-1.6-2.5-.5-3.5.6-1.4 1.4-2.7 2.8-4.1 4.1-1 .9-1.4 1.8-.1 2.7.7.5.7 1.1.1 1.7-2.9 2.9-5.7 5.9-8.6 8.7-.4.4-1 .9-1.5.4-1.8-1.9-2.9-.5-4.1.7-.8.8-1.6 1.5-2.3 2.3-1.2 1.4-2.2 1.2-3.4-.1-3.8-4-7.7-8-11.6-11.9-.8-.8-.9-1.5-.1-2.3 1.9-1.6 3.3-3.7 5.1-5.5l21.9-22.2c2.9-3 5.7-6.2 9-8.8.6.9.7 2.3 2.1 1.9.6-.1.9-.6.9-1.3.3-1.5-1.2-1-2.1-1.5zM396.6 284.6l8.7 8.7c1 .9 1.1 1.5 0 2.5-1.7 1.4-3.5 2.8-3.9 5.2-.1.4-.4.8-.8.8-2.7-.3-5.3.7-7.9-1.9-8.5-8.4-17-16.9-25.5-25.4l-18.9-18.6c-1.8-1.7-3.5-3.6-5.4-5.2-3.9-3.3-7.3-7.1-11-10.7-.9-.9-.7-1.6 0-2.5.7-.8 2.1-1.3 1.5-2.9 0-.1.4-.6.5-.6 1.4.4 1.8-.9 2.4-1.5 1-1 2-2.2 2.8-3.5.7-1 2.7-1.3 3.7-2.6 1.3-1.6 2.4-1.4 3.7 0 1.8 1.9 3.6 3.6 5.5 5.4 1.1 1 1 1.4-.5 1.8-2.6.7-4.8 3.5-3.9 5.3 1.3 2.9 3.7 5.5 6.7 6.4 1.9.6 3.1 1.7 4.6 2.6 1.6 1 1.8 2.2.3 3.7-1.4 1.5-.7 3.3 1.1 3.9 1.2.4 1.9-.5 2.6-1.3.4-.4.6-1.4 1.6-.6 1 .9 2.3 1.6 3.3 2.6 4.8 4.6 9.5 9.3 14.6 13.7 5.1 4.8 9.3 10 14.2 14.7zm207.9 283.1-.3-.3 6.7-6.7c2.5-2.6 5-5.2 7.6-7.7.4-.4 1-1.4 1.9-.5.7.7 1 1.5.2 2.4-.2.3-.4.5-.7.8-2.4 2.5-4.7 5-7.1 7.5-1 1.1-1.1 2.4.4 2.5 1.7.2 2.6 1.2 3.5 2.2 1.3 1.5 2.1 1.2 3.2-.1 1.5-1.7 3.1-3.3 4.8-4.8.9-.8 1.8-.8 2.2.5 1 3.4 2.2 6.7 2.8 10.1.9 4.7 1.4 9.5 2 14.3.1 1.1 0 2-.9 2.8-1.4 1.2-2.7 2.4-4 3.6-3.9 3.9-7.9 7.8-11.8 11.8-1.2 1.2-2.2 1.8-3.7.2-6.8-7.3-13.6-14.5-20.5-21.6-1.4-1.4-1.2-2.2.1-3.5 4.6-4.5 9.1-9 13.6-13.5zm19.6-21.3c2-1.2 3.1-2.1 4.1-3.2.9-.9 1.5-.8 2.4 0 3.6 3.4 7 6.9 10.5 10.4 6.3 6.4 12.7 12.8 19.2 19.1 1.1 1.1 1.3 1.8 0 3-3.3 3.2-6.4 6.5-9.6 9.7-.6.6-1.2 1.1-2.1 1.3-3.6.6-7.1 1.8-10.8 1.8-1.2 0-1.5-.4-1.8-1.4-1.1-3.7-1.5-7.5-1.9-11.3-1-8.2-4.2-15.5-8.3-22.6-1-1.8-3-3.4-2.3-5.9 0-.1.3-.5-.2-.3-2 .5-2-1.4-2.8-2.3-.8-.8-.1-1.4.5-1.9.7-.7 1.2-.4 1.7.2.4.4.8 1 1.3 1 1.6.1 1.6.7.1 2.4zm-289.2-89.3c.3-2.5 1.2-4.8.3-7.4-.6-1.9.4-4.1.9-6.1 1.7-6.9 3.5-13.8 5.3-20.6.6-2.1.6-4.6 2.1-6 1.5-1.4 1.7-3 2-4.7.3-1.6 1.9-3.4-.1-5-.1-.1-.1-.5 0-.8 1-3.3 1.5-6.7 2.7-10 .3-.7.6-1.3 1.4-1.2 1.2.1 1.6-.5 1.9-1.5.6-1.8 1.7-3.7-.6-5.1-.1-.1-.2-.4-.2-.6.6-2.1.8-4.6 2-6.3 2.2-3.1 3.5-7.6 2.4-10.9-.3-.9 0-1.9.5-2.5.6-.6 1.2.4 1.7.8.9.7 1.6 1.5 2.4 2.2 2.8 2.5 5 5.2 2.8 9.3-.1.1 0 .3-.1.4-2.1 8.6-4.2 17.1-6.3 25.7-2.3 9.3-4.7 18.6-7.1 27.9-1.6 6.3-3.3 12.6-5 18.9-.3 1-.5 2-1.7 2.4-2.4.6-4.7 1.3-7.3 1.1zm113.3-113.9c-.7 2.5-1.5 4.8-2.1 7.1-.3 1.2-1 1.8-2.2 2.2-8 2.2-15.9 4.4-23.9 6.7-7.6 2.1-15.3 4.3-22.9 6.4-9.6 2.7-19.1 5.4-28.7 8.1-1 .3-2.1.8-3.1-.2-2.1-2.1-4.2-4-6.3-6.1-.7-.7-.5-1.2.4-1.5.7-.3 1.6-.5 2.2.1 1.4 1.4 2.8 1.1 4.3.4 2.3-1.1 5.2-.6 6.9-3.5.7-1.3 3.3-1.3 5.2-1.7 1.2-.3.9 1.1 1.6 1.4 1.9 1 3.3-.3 4.9-.7.8-.2 1.5-.6 1.2-1.8-.3-1.1.3-1.8 1.4-2.1 3.3-.9 6.5-1.8 9.8-2.7.5-.1 1.1-.1 1.6.1 1.4.7 6.6-.1 7.1-1.4.6-1.7 2-2 3.3-2.4 9.8-2.7 19.6-5.4 29.4-8.2 1.1-.3 1.9-.4 2.4.8.2.5.5 1.1 1.2.9 1.9-.5 3.9-1.1 6.3-1.9zm-134.4 66c.9-.5 1.8-1.2 3.1-.8 2 .6 4 1.1 6 1.6 5.3 1.3 10.6 2.5 15.8 4.4 1.7.6 1.9 1.4 1.6 3.1-.7 3.5-1.7 6.8-2.6 10.2l-4.8 18.9c-.7 2.5-1 2.6-3.1 1.4-2.4-1.3-4.8-2.8-7.3-3.9-2.3-.9-3.6-2.4-4.1-4.7-.9-3.8-2-7.6-2.7-11.4-.8-4.1-2.1-8.2-2.7-12.3-.4-2.1-.9-4.4.8-6.5zm118.9-78.8c1.9 3.2 3.9 6.5 5.8 9.8.5.9-.1 1.4-1.1 1.7-6.6 1.8-13.2 3.7-19.7 5.5-3.7 1-7.5 2-11.2 3-1 .3-1.5.1-1.8-1-.8-3-1.8-6.1-2.7-9.1-1.2-4-2.5-7.9-3.6-11.9-.3-1.2-1.2-2.5-.4-3.9 1.2-2.2 2.8-2.6 5.6-2 7.6 1.7 15 3.9 22.6 5.4 2.1.4 4.5.7 6.5 2.5zM404.4 313c-.1.1-.1.2-.2.4-2.6-.8-5.2-1.6-7.8-2.5-4-1.3-7.9-3-11.9-4.3-4.5-1.4-8.8-3.2-13.3-4.5-3.4-1-6.8-2.4-10.4-.9-2.4 1-4.9 1.9-6.9-.7-.5-.6-1-.5-1.7-.2-1.7.7-2.2-.9-3.2-1.7-.4-.3-.6-.7-.2-1.2 2.9-3.2 5.9-6.4 9.1-9.4.5-.5.9-.8 1.3.2s1.1 1.2 2 .4c.8-.7.4-2 0-2.1-1.8-.5-.5-1.1-.2-1.6 1.6-2.5 4.2-4 6.1-6.2.9-1 2-1.2 3.1-.1 3.9 3.9 7.7 7.8 11.6 11.6 3.3 3.3 6.7 6.6 10 10 .3.4 1.3.7.4 1.4-.5.3-1.5.1-1 1.3.4 1 1.1 1.3 2.1 1.2 1-.1 2.1-.2 2.8.4 2.7 2.8 5.5 5.7 8.3 8.5zm-56.2 25.1c1.4-1 3.7-2.8 6.2-4.3 4.6-2.9 9.3-5.9 14.6-7.4 1.1-.3 1.5-.2 1.9 1 1 3.7 2.2 7.2 3.4 10.9 1.9 6 4.3 11.9 4.7 18.3.1 1.1-.1 1.7-1.2 2l-7.5 2.4c-1.2.4-1.9-.4-2.7-1-6.8-5.7-13.5-11.5-20.3-17.2-2.3-2-2.3-2 .9-4.7zm-5.3 32.6c1.9 1.6 3.8 4.2 5.9 6.6.7.8 1.5 1.6 1 2.9-.7 2.2-1.2 4.4-1.7 6.6-.2.8-.8 1.3-1.6 1.4-1.9.2-3.8.3-5.7-.3-4.9-1.3-9.9-2.4-14.8-3.8-2.8-.8-5.6-1.5-8.3-2.2-1.5-.4-2.2-1.3-1.6-2.9 2.5-7.5 6.1-14.4 11.4-20.3 2.1-2.4 2.7-2.4 4.9.1 3.3 3.8 6.6 7.6 10.5 11.9zm-49 33.3c-.8-.8-1.5-1.6-2.3-2.3-.9-.8-1.6-1.5-.2-2.6.8-.5.7-1.4 0-1.9-.8-.5-2-.5-2.3.3-.7 1.7-1.2.5-1.7.1-2-1.9-3.9-3.9-5.9-5.8l-12.3-12.3c-.9-.9-.9-1.5 0-2.4l8.1-8.1 9.9-9.9c1.2-1.3 2.2-1.1 3.3.1.8 1 1.7 1.8.9 3.3-.3.5-.1 1.1.4 1.5 2 1.4 1.4 2.9.3 4.6-.6.9-.9 2.1-1.6 2.9-2.1 2.4-1.4 5-.5 7.4 3 8 6.3 16 9.3 24.1 1.1 3 2.3 5.9 2.9 9.3-2.9-2.4-5.8-4.5-5.2-8.8.1-1.1.1-3-1.8-2.9-1.8 0-.7 1.9-1.3 3.4zm255.6 274.8-.3-.3 4-4c3-3 5.9-6.1 9.1-8.9.6-.5 1.2-1.3 2.1-.3 1.7 1.8 3.5 3.6 5.2 5.4.7.7.7 1.3.2 2-.5.7-.9 1.6-1.6 2.1-3.9 2.8-6.7 6.6-10 10-8 8.2-16.2 16.3-24.2 24.5-.7.8-1.5 1-2.6.9-2.8-.1-5.3-1.4-7.9-2.4-1.3-.5-.8-1.3-.1-2.1 3.5-3.7 6.9-7.6 10.5-11.3 5.1-5.2 10.4-10.4 15.6-15.6zM387.7 324c.6 1 1.7 2.3 2.1 3.7 2.6 7.7 5 15.4 7.1 23.3.4 1.7-.3 2.2-1.5 2.5-3.5 1-6.9 1.9-10.4 2.9-.6.1-1.5.4-1.6-.3-.3-1.4-1.4-2.3-1.9-3.6-1.6-5.1-3.5-10.1-5.1-15.2-1.2-3.8-2.3-7.6-3.5-11.5-.3-1-.2-1.5 1-1.6 2.6-.4 5.1-1.2 7.7-1.4 1.9-.3 4.1-.6 6.1 1.2zm-73.2 74.4c-.7-.5-.9-1.2-1-2-.4-3.8.2-7.6 1.2-11.3.2-.7.6-1.1 1.3-.9 2.6.6 5.2 1.1 7.8 1.9 3.9 1.2 7.8 2.3 11.7 3.5 2.5.8 5.2.9 7.4 2.5 1.4.9 3.6 1.3 2.9 3.8-1 3.4-1.9 6.8-2.8 10.2-.3 1.1-1.2.9-2 .7-6.2-1.7-12.4-3.4-18.7-5-2.9-.7-5.4-2-7.8-3.4zm184.3 46.2c-.2-.3-.5-.7-.7-1-3.9-6.7-7.8-13.4-11.6-20.1-5.1-8.9-10-17.8-15.2-26.6-1.4-2.3-1.5-4.1-.1-6.2.2-.2.2-.5.3-.8.7-1.1.9-3.2 2.2-3.2 1.2 0 1.7 1.9 2.4 3.1 3.7 6.4 7.3 12.7 11 19.1 3.1 5.5 6.1 11 9.2 16.4 3.5 6 7.1 12 10.6 18 .6 1 .3 1.5-.8 1.6-1.9.1-3.7.2-5.6.3-.6.1-1.3 0-1.7-.6zM571 507c.1-.3.1-.6.2-1 .4-6.3-5.2-10.5-10.7-10.3-2.5.1-4.6-.9-5.3-2.9-1-2.5-1.9-5-2.8-7.6-.2-.7-.5-1.5.1-2.1 1.5-1.5 2.9-3.2 4.8-4.2 1.4-.7 2.7-.7 4 0 1.4.7 2.8 1.6 4 2.6 3.1 2.6 3.1 2.7 0 5.3-1.5 1.2-1.5 2.4-.2 3.6 2.8 2.7 5.7 5.4 8.6 8.1 1.1 1 2.3 1.1 3.6.6 1.4-.5 2.9-.7 3.8.3 1 1.1-.2 2.3-.8 3.3-.1.1-.1.3-.2.4-5.2 6.1-10.8 11.7-16.5 17.2-.8.8-1.6 2.6-2.8 2-1.1-.6-.4-2.4-.6-3.7-.3-1.6.1-2.3 2-2.4 3.2-.2 5.7-1.8 7.2-4.6-.7.4-1.3 1-1.8 1.6-1.7 1.7-3.8 2.4-6.1 2.3-.7 0-1.1-.1-1.1-1-.1-1.5.3-2.3 1.9-1.5.8.4 1.5.4 2-.3s.2-1.1-.5-1.5c-.7-.4-.3-1 .1-1.4.5-.4 1-1.4 1.8-.2.4.7 1.1.5 1.6 0 .6-.5.6-1 .3-1.7-.2-.4-1-.8-.6-1.2 1.5-1.1 1-2.7 1.3-4.1.3-1.2.1-2-.7-2.8-.5-.5-1.1-1-1.4-2.2 3.5 2.5 4.3 5.7 4.8 9.4zm-130 8.5c-.6-1.5-.4-3-.7-4.5-.2-1.1 0-1.7.8-2.5 6.4-6.8 13-13.2 19.5-19.8 12.4-12.7 24.9-25.3 37.2-38.1 1.6-1.7 3.4-2.3 5.5-2 1 .1 2.6-.7 3 .6.4 1.3-.8 2.5-1.8 3.3-8 6.8-14.9 14.7-22.5 22-5.1 4.9-9.9 10.1-14.8 15.2-8 8.3-16.2 16.4-24.3 24.6-.5.4-1 1-1.9 1.2zm-4.6.5c-1-.2-1.8-.5-2.7-1-5.9-3.6-12-6.7-17.9-10.1-5.1-2.9-10.2-5.8-15.4-8.5-4.2-2.2-8.3-4.4-12.4-6.7-3.3-1.8-6.5-3.7-9.8-5.5-1.2-.7-1.2-1.2.1-1.7 1.7-.7 3.4-1.5 5.1-2.3.9-.4 1.6-.3 2.3.1 7.8 4.3 15.6 8.6 23.4 13 7.6 4.3 15.2 8.8 22.8 13.1 4.1 2.4 5.3 4.8 4.5 9.6zm124.4 167.5-.4-.4 9.1-9.1c.5-.5 1.1-1.4 1.9-1 1.6.7 2.9 2 3.7 3.5.7 1.2-.7 2-1.4 2.7-9.2 9.8-18.7 19.2-28.4 28.5-2.6 2.5-5.8 3.1-9.2 2.9-.5 0-1.4.5-1.6-.4-.2-.6.6-1.1 1-1.5 8.5-8.5 16.9-16.9 25.3-25.2zM448 326.3l.3-.3 9.3 9.3c.5.5 1.5.9.7 1.8-.6.6-1.3.3-2-.3-5.1-4.8-10.3-9.4-15.3-14.3-5.9-5.7-11.7-11.6-17.5-17.4l-22.4-22.4c-6.2-6.2-12.4-12.5-18.7-18.6-4.3-4.2-8.7-8.2-13.1-12.3-.6-.6-1.5-1.2-.6-2.1.8-.8 1.4.3 1.8.7 6.3 6.5 13.3 12.4 19.7 18.8 12.4 12.3 24.8 24.7 37.5 36.8 6.9 6.6 13.6 13.5 20.3 20.3zm19.9 63.8c-1.3-1.5-2.1-2.9-2.9-4.4-3.5-6.2-6.9-12.4-10.4-18.6-1.8-3.2-3.6-6.4-5.4-9.5-.4-.6-.8-1.4-.4-1.9.9-1.4 2-3 3.6-3.3 1.3-.2 1.9 1.6 2.5 2.7 4.7 8.5 9.5 17 14.1 25.5.8 1.4 2.4 2.8 1.6 4.7-.7 1.6-1.7 3.1-2.7 4.8zm-90.3 123.8c3.2 1.3 5.4 3 7.2 5.4 1.2 1.5 2.7 2.9 4.3 4.1 4.5 3.4 9.2 6.7 14.1 9.4 4.2 2.4 8.6 4.5 13.2 5.8 6.3 1.6 12.5 3.3 17.9 7.1.4.3 1.3.2 1.2 1.2-1.2 0-2.3 0-3.5-.2-6.1-1-11.9-3-17.8-4.8-6.6-2.1-13-4.8-18.7-8.8-5.3-3.6-9.4-8.5-13.9-13-1.6-1.7-3-3.6-4-6.2zm198.8-59.2c2.9 2.5 5.6 5 8.3 7.7 5.6 5.6 11.4 10.9 16.6 16.9.7.8 1.3 1.5.5 2.3-2.3 2.4-4.6 4.7-6.9 7.1-.6.6-1 .4-1.2-.3-1.5-4.6-3.6-8.9-5.7-13.2-3.5-7.1-7.2-14-11.6-20.5zm-195.5 23.6c-3.1 1.7-5.3 2.6-8.7.6-9.4-5.4-18.8-10.6-28.2-16-.6-.3-1.4-.6-1.5-1.3-.1-1.2 3.4-3.3 4.5-2.9 3.2 1.2 5.9 3.2 8.9 4.8 5.4 3 10.7 6.1 16 9.2 3 1.8 5.8 3.6 9 5.6zm-27-110.5-19.4-19.4c-4.3-4.3-8.6-8.8-13-13-1-.9-1.1-1.4-.2-2.3 1-1 1.9-2.3 3-.1.1.2.4.3.6.5 9.8 9.7 19.7 19.4 29.5 29 1.1 1.1 2.7 2.2.3 3.7-.5.4-.6 1.1-.8 1.6zm-2.9-14.2-.1.1-11.6-11.6c-.5-.5-1.1-1-.4-1.7.6-.7 1.2-1.6 2.4-1 .6.3 1.3.6 1.8 1 2.6 2.2 5.1 4.6 7.8 6.8 5.4 4.5 10.9 9 16.2 13.6 1 .9 3 1.9 2.6 2.9-.4 1.3-2.5 1.3-4 1.6-1.2.2-2.2.9-3.4-.4-3.7-3.8-7.5-7.5-11.3-11.3zm-1.4 22.8c-.1 0-.1 0 0 0-7.1-7.8-14.2-15.8-21.2-23.7-.8-.9-.7-1.6.1-2.5.9-.9 1.7-1.4 2.8-.4 4.1 3.5 7.6 7.6 11.5 11.4 3.1 3 6 6.4 9.2 9.3 1.6 1.5 1.9 3.1 1.8 4.9-.1 1.2-.2 2.9-1.2 3.3-.9.4-1.7-1.2-2.5-1.9-.2-.1-.4-.3-.5-.4zM238 298.8c1.1-1.5 1.2-3.4 2.8-4.7 4.8-4.1 9.5-8.3 14.2-12.5 2.1-1.9 4.2-3.9 6.4-5.8.5-.5 1.2-1.5 2.1-.4.7.8 1.5.7 2.2.2.8-.6.5-1.4.3-2.1-.2-.5-.6-.9 0-1.5 1.9-1.9 4-3.5 6.3-4.9-1.4 2.1-1.7 4.9-3.5 6.7-4.5 4.4-9.1 8.7-13.5 13.2-2.9 2.9-6.3 5.2-8.8 8.4-2.2 2.6-6 1.3-8.5 3.4zm299.1 143.5c-1-.8-1.5-1.5-2-2.2-1.2-1.8-1.2-3.9-1.7-5.8-1-3.5-2.2-6.9-3.4-10.4-1.7-5.1-3.7-10-6.4-14.6-1.9-3.2-4-6.3-6.1-9.4-3-4.5-6.4-8.6-10.6-11.9-1.7-1.3-3.7-2.5-4-5.4 2.2 1.2 4.2 2.2 5.8 3.8 4.5 4.4 9 8.8 12.3 14.3 3.2 5.2 5.8 10.7 8.6 16.2 2.2 4.3 3.7 8.9 5.3 13.4 1.1 3.8 1.5 7.7 2.2 12zm16 206.4c-1.1.5-2.2.2-2.4-.9-.2-.9-.7-.9-1.3-1.3-1.8-1.1-3.8-6.5-3.2-8.6.8-2.8 4.4-3.6 7.5-1.8 2.1 1.2 3.3 3.4 5.4 4.6.5.3.4.9.5 1.4.7-.1 1.3-1.1 2.1-.4.6.5.1.9-.3 1.2-2.3 2.3-4.6 4.6-7 6.9-.4.4-.9 1.1-1.6.7-.7-.5.6-.9.3-1.8zm-20.3-106.5c2.5-2.9 5.3-5.6 8.1-8.3.9-.8 1.8-1.9 3.1-.3 1.1 1.3 2.2 2.3.5 4-5 5.1-9.9 10.3-14.8 15.5-1 1-2.1.8-2.6-.1-.6-1.1-3.2-1.8-1.3-3.8 2.3-2.4 4.7-4.7 7-7zM306.2 425.8c-1.3.2-1.9-.7-2.6-1.2-.4-.3-.8-1.1-1.3-.7-.6.5-.1 1.1.4 1.5.7.6.3 1.2-.1 1.6-.6.7-.9 0-1.3-.3-.5-.3-.7-1.2-1.7-.9.1 1.4 1.2 2.1 2.2 2.9.3.3.5.7.2 1.1-.5.5-.7-.1-1-.3-.2-.1-.3-.5-.5-.6-1-.6-1.8-2.8-3.4-.6-.2.4-.9.3-1.4 0-1.5-.9-2.8-2-3.7-3.5-.2-.3-.5-.9 0-1.1 1.4-.7.4-1.5 0-2.2-.5-1-1.5-1.6-2.3-2.3-.2-.2-.6-.5-.2-.9.3-.4.6-.2.9.1.6.5 1.1 1 1.7 1.6.4.3.8.8 1.3.4.5-.5-.1-.9-.4-1.2-.5-.5-.8-.9-.2-1.6.6-.6 1.1-.4 1.6.1.3.2.6.7 1.2.4-.1-1.1-.9-1.7-1.6-2.4-.5-.4-1.1-.9-.4-1.5.5-.5 1 .3 1.3.6 1.1 1.2 2.4 1.9 3.8 2.4.4-.8-.8-1-.4-1.7 2.8 0 6.1 2.8 6.3 5.3 0 .4-.1.5-.3.6-1.6.6-.7 1.3-.1 2 .4.8 1.2 1.6 2 2.4zM269.3 262c.5-.6 1-1.2 1.6-1.7.4-.3.7-1.3 1.4-.5.8.7.1 1.3-.4 1.7-3 2.7-6 5.5-9 8.2-.6.6-1.4 1.3-2-.2-.2-.6-1-1.2-1.7-.8-.6.4-1.1 1.5-.5 2 2.1 1.8 0 2.6-.8 3.4-2.5 2.4-5.3 4.6-7.9 7-4 3.5-7.9 7.1-11.9 10.6-.5.4-1.1 1.6-2 .6-1-1 .2-1.4.7-1.9 2-2.2 4.1-4.3 6.1-6.4 5.5-5.6 10.8-11.3 16.5-16.7.8-.8 1.4-1 2.2-.1.7.9 1.3.6 2.1-.1 1.9-1.9 3.8-3.5 5.6-5.1zm128.6 69.7c.2.6.4 1.1.5 1.5 1.4 3.9 2.3 8 3.6 11.9.8 2.3 1.8 4.6 2.1 7.1.1 1.1 0 1.6-1.1 1.7-.7.1-1.5.4-2.2.5-.9.2-1.6.1-1.9-1.2-.6-2.4-1.6-4.7-2.2-7.1-1-4.1-2.5-8-3.5-12.1-.4-1.5.8-1.7 1.4-1.9 1-.2 2.2-.2 3.3-.4zm-118.2-84.3c-.2-.2-.4-.4-.5-.6 1.9-1.9 3.7-3.9 5.7-5.6 4.8-4.2 8.8-9.2 13.5-13.6 4.3-4 8.3-8.4 12.3-12.6 1.3-1.4 2.2-.8 3.4.3 1.3 1.2.6 2.1-.3 2.9-1.6 1.5-3.4 2.9-5 4.4-4.3 4-8.7 7.8-13.4 11.4-2.1 1.6-3.8 3.6-6.4 4.5-.8.3-1.3 1.2-1.8 1.9-1.8 2.9-4.7 4.9-7.5 7zm250.2 181.8c-2.8-3-21.6-35.7-21.5-37.2 11.1 9.5 19.3 26.4 21.5 37.2zM413.1 309.3c.2 1.4 1.6 1.9 2.3 2.8.4.5.6 1 0 1.4-.5.4-.9-.1-1.1-.6-.1-.3-.4-.6-.6-.8-1-.7-1.5-3.2-3.4-.9-.2.2-1.1 0-1.6-.2-1.2-.5-2.2-1.4-3.1-2.4-.4-.5-1.4-1.4.2-2 .3-.1.2-.7-.1-1.1-.7-.9-1.2-2-2.2-2.7-.4-.3-1.4-.7-.7-1.4.6-.7 1.3-.3 2 .3.6.5.9 1.6 2.2 1.2-.3-.5-.6-.9-.9-1.3-.3-.4-.4-.8 0-1.1.2-.2.7-.1 1 0 .6.2 1 1.7 1.7.8.5-.7-.8-1.2-1.3-1.9l-.6-.6c-.4-.3-.7-.6-.3-1 .3-.3.8-.5 1.1-.2 1.6 1.5 3.8 2 5.5 3.5 2.4 2.1 3.2 5.4 5.7 7.3.3.2 1.1.7.4 1.3-.6.5-1.1.2-1.6-.3-.7-.6-1.1-1.7-2.4-1.8.1.8 1.5 1 .6 2-1.1 1.4-1.7-.6-2.8-.3zm18.8 10.8c-1.4-.3-2.2-.3-3.1-.5-5.9-1.2-11.6-3.1-17.5-4.1-1.3-.2-2.8-.3-3.9-1.3-3.1-2.9-6.1-5.9-9.1-8.9-.3-.3-.6-.6-.1-1 1-.7 4 .2 4.5 1.4.8 2 2.2 3.5 3.7 5.1 2.3 2.3 6.1 1.2 8.2 3.9.1.1.5-.1.8 0 2.9.4 4.5-1.8 5.7-3.7.9-1.3 1.2-.8 1.8-.2 2.9 2.9 6 5.8 9 9.3zm-93.5-5.9-11.2 11.2c-.3.3-.6.9-1.1.4-.4-.3-.3-.8-.1-1.2 1.2-2.8 2.1-5.9 4.2-8.2 5.2-5.5 10.5-10.9 15.8-16.3 1-1 1.9-1.5 3.1-.1 1.1 1.1 1.5 1.8.2 3.2-3.4 3.9-7.2 7.5-10.9 11zm-35.2 35.6c-3.1 3.3-6.1 6.4-9.3 9.4-1.4 1.3-2.1-.1-2.9-.8-.8-.7-1.5-1.5-.3-2.6 2.1-2 4.2-4 6.2-6.2 5.3-5.9 11.2-11.1 18.8-14 .6-.2 1.1-.9 2.1-.3-3.1 3.7-6.6 6.8-10.2 9.9.2-.5.4-.9.7-1.2.6-.7 1-1.4.1-2.1-.8-.6-1.4 0-2 .5-1.2 1.2-2.4 2.3-3.5 3.5-.9.9-1.7 1.8-2.5 2.8-.6.7-.8 1.5 0 2.2.9.8 1.2-.3 1.6-.7.3-.3.5-.5 1.2-.4zm119 189.3c-7-1.3-13.5-3.8-19.6-7.4-6.1-3.6-12-7.4-16.7-12.9 12.4 6.3 24.5 13.1 36.3 20.3zm-95.8-134.4c.4-.4 1-.3 1.4-.2 4.8 1.3 9.6 2.7 14.3 4.1 1.6.5 2.2 2 1.7 4-.4 1.8-1.9 1.6-3 1.3-5-1.3-10-2.7-15-4.1-1.3-.4-2-2.1-1.1-3 .7-.7 1.4-1.2 1.7-2.1zm323.2 119 .1.1c-3 3-6 6.1-9.1 9.1-2.8 2.7-5.2 5.8-8.3 8.2-.4.3-.6.9-1.1.3-.4-.5-.2-.9.1-1.3.3-.4.7-.7 1-1.1 3.1-3.6 6.7-6.7 10-10.1 4.1-4.3 8.1-8.7 12.1-12.9 5.1-5.3 10.2-10.5 15.4-15.7.4-.4 1-1.3 1.7-.7.8.7.1 1.4-.4 2-1.8 2-3.5 4-5.3 5.8-5.4 5.5-10.8 10.9-16.2 16.3zM441.4 343.6c0-.1 0-.2-.1-.2-3.2-5.6-6.4-11.3-9.6-16.9-.2-.3-.4-.5 0-.9.8-.7 4.5-.1 4.9.9.7 1.7 1.7 3.3 2.7 4.8 2.1 3.2 4.1 6.4 5.7 9.9.2.5 1.1 1.2.1 1.7-1.1.6-2.3 1.3-3.7.7zm-165.8-68.7c-3.5 4.5-7.1 8.1-10.6 11.7-3 3-5.8 6.1-9 8.9-.9.8-1.6.6-2.3-.2-.6-.8-1.3-1.4-.3-2.5 4.2-4.5 8.9-8.4 13.2-12.7.6-.6 1.1-.8 2-.4 1.3.7 2.3.2 2-1.3-.3-1.6.5-2 1.6-2.4 1-.3 1.9-.6 3.4-1.1zM317 447c-.6-.8-.6-2-.9-3.1-.2-.9.1-1.4 1.2-1 1.9.6 3.5 1.7 5.2 2.6 3.7 1.9 7.4 3.7 10.8 6 1.6 1.1 1 2.4.3 3.4-.7 1.1-1.7.1-2.4-.3-1.8-1-3.6-1.9-5.5-2.8-2.9-1.4-5.7-3.1-8.7-4.8zm177.1 234.2c4.2-6.4 39.6-42.3 42.3-42.9-13.9 14.5-27.7 29.1-42.3 42.9zm-163-221.1c-.1 1.8-.6 3.4-1 5-.6 2.3-.8 2.4-2.5.7-6.1-5.9-12.1-11.8-18.1-17.7-.5-.4-.9-.9-.9-1.7 2.6.4 5.4.1 6.1 3.6 0 .2.3.4.5.6 3.6 3.6 7.2 7.2 10.8 10.7 1.2 1.2 2.4 1.2 3.7.1.3-.2.5-1 1.4-1.3zm-89.2-150.6.1.1c-.4.4-.8.9-1.3 1.3-.3.3-.7.6-1.1.2-.4-.3-.4-.8 0-1.1 1.7-1.5 1.1-3 .1-4.6-.8-1.3-.3-2 1-2.4 2.8-.9 5.1-2.7 7.3-4.6 1.2-1 1.9-.8 2.9.2 1.1 1.1.1 1.7-.5 2.3-2.7 2.9-5.6 5.7-8.5 8.6zm84.7 11.2c-.5 1.5-1 2.9-1.6 4.4-.5 1.1.6 2.3-.3 3.2-1.4 1.6-2.9 3.2-4.5 4.6-.8.7-2.1.3-3.2 1.1-2.3 1.6-5 2.7-7.8 3.5 5.6-5.8 11.1-11.7 17.4-16.8zm-38.1-78.3c-.9 2.2-2.4 3.1-3.7 4.3-5.2 4.7-10.9 9-15.9 13.9-1.5 1.5-3.2 2.8-4.8 4.2-.4.4-.9 1-1.4.6-.5-.3-.8-1-.9-1.6-.1-.7.5-1 1-1.4 5.7-4.4 11.3-8.8 16.9-13.3 2.8-2.3 5.5-4.6 8.8-6.7zm264 247.4c-.2.1-.3.2-.5.4-1.4-1.4-2.9-2.9-4.4-4.3-1-1-2.1-1.7-3.4-.3-.6.7-1.1.5-1.7-.1-2.1-2.1-3.3-2.2.4-4 .3-.2.8-.4.8-.6.2-2.2 1.8-1.7 3.3-2.1 1.2-.3 1.8 0 2.1.9 1.2 3.3 2.6 6.6 3.4 10.1zM343.6 220.3c.4-13.6 2.2-27.1 3.5-40.7.7.2 1.1.6 1.1 1.1-1.1 13.3-1.8 26.5-4.6 39.6zm-48.4 15.1c5-4.4 9.7-8.5 14.4-12.6 1.9-1.6 3.9-3.1 5.8-4.7.4-.3.8-.6 1.3-.2.4.3.2.7.1.9-.6.9-1.3 1.8-2.1 2.5-5 4.2-10 8.3-15 12.4-2 1.6-4.1 3.3-5.9 5.1-.3.3-1 .8-1.5.1-.4-.5.1-.9.5-1.2 1-.9 1.8-1.7 2.4-2.3zm182.9 351.3c3.2 2.8 3.7 6.2 2.9 9.8-.2.7-.7 1.7-1.5.6-1.1-1.5-.5-3.8-2.3-5.1.3-.3.5-.7.8-1 .4-.5.3-.9-.1-1.2-.4-.4-.9-.5-1.3 0-.6 1-1.1 1-1.9.1-.7-.7-1.4-1.2-.2-2 .3-.2.6-.8.1-1.3-.4-.4-1.2-.9-1.4-.5-1.4 2-2 .2-2.8-.5-.3-.3-1-.5-.7-1.1.2-.5.9-.5 1.3-.5 2.9-.2 5.3.9 7.1 2.7zm87-108.7c.1 0 .1-.1 0 0 1.2 1 2.3 2.2 3.5 3.3.3.4 1 .8.4 1.3-.5.4-1.1.1-1.5-.2-1.4-1.1-2.8-2.3-4.2-3.4-2.7-2.2-5.1-2.2-7.8 0-1 .8-1.8 1.7-2.8 2.4-.3.3-.8.8-1.3.3-.6-.5-.2-1 .1-1.5 1.7-2 3.4-4 5.6-5.4 1.9-1.2 3.7-1 5.3.5 1 .9 1.8 1.8 2.7 2.7zm-61 79.8c.8-.8 4.3-1.7 4.8-1.2 1.2 1 1.4 6.2.3 7.3-1.4 1.4-3.3 1.2-5-.4-2.3-2.2-2.4-3.4-.1-5.7zM222.6 320.2c.4-3.3 1.5-6.1 3.1-8.8.7-1.1 1.2-.8 1.9-.3 1.2.9 2.2 2 3.4 2.6 1.6.8 1.1 1.5.2 2.2-2.5 2-5.4 3.2-8.6 4.3zm-3.1 26.5-.1-.1 5.4-5.4c.7-.6 1.3-1.6 2.4-.4 1 1.1.1 1.6-.5 2.2-1.5 1.5-2.9 3-4.4 4.4-2.1 2.1-4.1 4.3-6.5 6.1-.7.5-1.3.9-2 .2-.8-.8 0-1.2.5-1.7 1.7-1.8 3.5-3.5 5.2-5.3zm254.9 256c-2.3.9-4.2.7-6-.1-.5-.2-1.3-.4-.5-1.3.4-.4.6-1.2-.2-1.6-.6-.2-1.1 0-1.4.5-.2.3-.1 1.2-.9.7-.6-.4-1-.9-.3-1.5.5-.4.4-.9.1-1.3-.3-.4-.7-.6-1.1-.3-1.3 1-1.4-.2-1.7-1-.3-.8-.5-1.7-.3-2.7.6.1 1.3 1.3 1.8.1.6-1.3 1.2-.6 1.7-.1 1.6 1.5 3.2 3.1 4.7 4.7.6.6 1.4 1.1.1 1.9-.5.3-.4.8 0 1.3.4.4 1 .6 1.3.2 1.4-2 1.7-.1 2.7.5zm-4.7-7.9c-1.4-1.3-2.9-2.6-4.1-4.1-.6-.7-.9-1.7 0-2.6.9-.9 1.5-.1 2.1.4 2.5 2.4 5 4.9 7.6 7.3 1 1 .9 1.7 0 2.6-1.1 1-1.6.2-2.3-.5-1.1-1-2.2-2-3.3-3.1zm1-33.1s0 .1 0 0c.7-.6 1.3-1.2 2-1.9.6-.6 1.6-1.2 2.1-.5.6.7-.6 1-1 1.5-3 3.2-4.2 7.6-.1 11.5.9.9 1.7 1.8 2.4 2.8.4.5.8 1.4 0 1.8-.6.3-1-.4-1.4-.8-1.9-2.3-3.7-4.6-5.6-6.9-1.8-2.1-1.9-3.3-.2-5.4l1.8-2.1zm6.7-75.2-.6-.6c-.5-.9-2.4-1.5-1-2.7 1.2-1.1 1.7.8 2.5 1.2 2.4 1.2 2.7 4 4.8 5.6 4.5 3.4 8.2 7.7 12.3 11.7.5.5 1.2 1.1.5 1.7-.7.6-1-.3-1.5-.7-6-5.2-10.8-11.6-17-16.2zm3.1 73c-2.1-.6-4.1-1.3-6-1.8-2.4-.5-3.5-1.6-2.5-3.7.8-1.7 2.5-3.1 3.7-4.6 0 0 .2 0 .4.1 1.6.4 2.3 2.6 1.4 4-.8 1.2-1.2 2.3.3 3.4.9.7 1.8 1.7 2.7 2.6zm149.2-20.3c-.1.1-.2.3-.3.4l-1.7-1.7c-2-2.1-2.9-2.2-4.9-.2-.7.7-1.4 1.5-2.1 2.3-2 2.1-2.5 2.1-3.6-.7-.1-.2-.2-.5-.2-.7 2.3.1 4.1-1 3.6-2.2-.6-1.4-.3-2.9-.4-4.3-.1-.6-.5-1.4.3-1.7.7-.3 1 .5 1.5.9 2.7 2.5 4.8 5.7 7.8 7.9zM289.5 244.4c0 1.1-.3 1.7-.8 2.3-3.7 3.9-8.1 7.1-12 10.8-.4.3-.8.6-1.2.1-.4-.4-.8-.9-.3-1.4.3-.3.5-.6.8-.9 2-1.8 4-3.6 6.1-5.3 2.3-1.9 4.6-3.8 7.4-5.6zm284.9 239.8c3 2.4 5.5 5.1 7.9 7.9 1.3 1.5 1.2 3.1.3 4.8-.2.4-.4.8-.9.8-.5-.1-.5-.6-.5-1 .1-1.6-.7-2.7-1.8-3.8-1.3-1.2-2.4-2.5-3.7-3.6-1.5-1.4-2-2.9-1.3-5.1zM547 537.7c-.6.8-1 1.6-1.6 2.3-4.3 5-9.1 9.4-13.8 14-.4.4-.8.7-1.2.3-.6-.6.2-1 .5-1.3 4.5-5.2 9.6-9.7 14.3-14.7.5-.5.8-1.1 1.8-.6zm-61.4 36.8c1.3.7 1.5 2 1.3 3.5-.1 1.3-.9 1.7-1.9.9-1-.8-1.9-1-3.1-.7-1.1.2-1.6-.8-2.3-1.5-.5-.6-.3-1 0-1.5 1.6-2.5 3.8-2.8 6-.7zm145.9-36.6c.4-.9.6-1.7.5-2.7-.5-4 2.6-6.8 6.6-6.2 1.4.2 1.3.7.5 1.5-2.4 2.6-4.8 5.2-7.6 7.4zM252.7 301.2c-5.6 7-12.1 13.1-18.8 19 5.9-6.7 11.9-13.3 18.8-19zm138.2 165.9c-2.2-2.2-2.2-2.1-.5-4 1.4-1.6 2.5-1.4 3.6.2.4.6 1 1 1.5 1.5.5.4.6.9.3 1.5-1.3 2.5-2.9 2.8-4.9.8zm87.9 115.4c1.6-.9 2.5-.7 3.4.3 1.8 2 3.8 3.9 5.6 5.9.5.6 1 .5 1.5.6 1.3.2 2-1 3.2-1.5-1.6 3.4-4.3 4.1-6.7 1.8-2.3-2.4-4.6-4.7-7-7.1zM431 426.6c-1.1-1.2-2.8-1.9-.7-3.7 2.3-1.9 2.1-2.1 4.4.2 1.9 1.9 1.8 2 0 4.1-1.9 2.2-2.7.2-3.7-.6zm135.9 59.9c1.1-.8 1.6-2.1 2.6-1.1.7.7 2 1.4.9 2.9-.6.8-.1 1.7.2 2.6.2.5.9.8.2 1.4-.5.5-1.2.4-1.8.3-3.5-1.1-4.2-4-2.1-6.1zM351.2 242.1c-.7-.5-1.3-1-1.8-1.7-1.2-1.4-1.1-3.3.4-4.5 1.3-1.1 2.8-1.3 4.1 0 1.5 1.4 3.1 2.6 4 4.7.5 1.3.9 2.1-.3 3.2-1.4 1.1-2.7 1.8-4.2.5-.8-.7-1.5-1.5-2.2-2.2zm62.7 201.6c-.4-.9-2.2-1.2-1.6-2.7 1-2.5 3.1-2.8 4.9-.8.5.5 1 1 1.4 1.5.3.3.4.7.2 1.1-.9 2.5-2.9 2.9-4.9.9zm40.1-40.8c-1.9-2-1.9-2-1.6-2.6 1-2.3 3-2.7 4.7-1l1.3 1.3c.7.7.6 1.2 0 1.9-1.8 2.6-2.3 2.6-4.4.4zm-224.5-91.7c-.7-.8-1.4-1.4-1.7-2.3-.4-1 .2-1.6.8-2.1.8-.7 1.3-.1 1.7.4 1.1 1.3 2.8 2.1 3.9 3.4.4.4 1.5.6.8 1.5-.5.7-1.1 1.3-2.2 1.1-1.4-.4-2.5-1.1-3.3-2zm237.1 275.1c.3-.4.7-.2.9 0 3.5 3.4 7 6.8 10.5 10.3.7.7.7 1.6 0 2.4-.6.7-1.2 1.3-1.9 2-.9 1-1.7.9-2.6-.1-2.8-2.8-5.8-5.6-8.6-8.4-.7-.7-1.2-1.5-1.7-2.3-.2-.3 0-.7.4-.8.5-.2.7.3.6.6-.3 1.2.5 1.8 1.2 2.4 1.7 1.7 3.5 3.4 5.3 5 1 .9 1.9 1.9 3 2.6 1.8 1.2 2.3-.7 3.3-1.5s.6-1.5-.2-2.2c-1-.9-2-2-3-2.9-2.6-2.4-4.4-5.2-7.2-7.1zM317.9 407.6c-.7-.6-.2-4 .9-4.9 1.4-1.1 2.9.2 4.4.6.8.2-.2 3.4-1.7 4.7-1.3 1.2-2.4-.7-3.6-.4zm-61.2-110-.5-.5 20.5-20.5.5.5c-6.6 7.1-13.5 13.8-20.5 20.5zm-53.3 35.3c.9-.3 1.2-1.9 2.5-1.5 1.5.5 2.4 4.2 1.1 5.2-1.6 1.3-3.1 1.3-4.5 0-2-1.9.5-2.5.9-3.7zm20.7-11.7c3-2 6.4-2.9 9-5.2.3-.3.6-.1.9.2.4.3.4.7.1 1.1-.5.5-1.1 1.3-1.7 1.4-1.5.3-2 1.2-2.5 2.6-.9 2.3-2.1 2.5-4 1-.5-.4-1.1-.6-1.8-1.1zm216 107.1c2 2 1.9 2.1-.1 4.3-2 2.2-2.9-.1-3.9-.9-1.9-1.7.5-2.3 1.1-3.4 1-1.7 2.1-.9 2.9 0zm-43.3 40.9c1.1-2 2.3-1.1 3.5.3 1.4 1.7 1.4 2-.6 3.9-1.9 1.8-2.6-.4-3.6-1.2-1.6-1.2-.5-2.1.7-3zm197 107c-1.1 1.8-2.6 2.9-3.9 4.1-.2.2-.7.6-.8.3-.4-1.3-2-2.2-2.1-3.2-.2-1.4 1.5-2.3 2.6-3.2 1.1-.8 1.1.6 1.6 1 .6.5 1.4.9 2.6 1zM316 232.3c.1 0 .1 0 0 0 1.2 1.1 2.3 2.2 3.5 3.3.4.4.6.8.2 1.4-.4.6-.8.5-1.2.1l-7.5-6.9c-.5-.4-.6-1.1 0-1.7.6-.5 1.1-.2 1.6.3 1.2 1.3 2.3 2.4 3.4 3.5zm147.2 172.9c1.9 1.9 1.8 2-.1 4.1-1.7 1.9-2.6 0-3.6-.8-2.3-1.8 0-2.7.9-3.8 1.4-1.8 2.1 0 2.8.5zM328.8 237c4.3-5.1 9-9.9 14.1-14.1-4.2 5.2-8.6 10.2-14.1 14.1zm231.7 270.5c-1-3.3-.5-5.4 1.5-6.9 1.1-.8 1.8-.5 2.7.4.8.8.9 1.4.1 2.3-1.4 1.3-2.7 2.7-4.3 4.2zm-69.4 45.7.1-.1c1.1 1.1 2.3 2.3 3.5 3.4.5.5.5.8-.1 1.1-.4.2-.5 1.1-1.1.5-2.5-2.4-5.3-4.4-7.3-7.3-.3-.4-.6-.9 0-1.2.6-.4 1-.2 1.5.3 1.2 1.1 2.3 2.2 3.4 3.3zm-43.4-199c.6-3.7 2-6.7 2.9-9.9 2.9 3 2.9 4 .5 6.7-.9 1.1-2 2-3.4 3.2zM423 445.9c.7.8 2.5 1.5.7 2.9-.9.7-1.6 3-3.3 1-.8-1-2.8-1.8-.8-3.4.9-.7 1.7-3.1 3.4-.5zM297 240.8c1.3-1 2.6-2.1 3.8-3.1.7-.6 1.6-1.4 2.3-.4.7.9-.2 2-1 2.3-1.4.8-2.5 2-3.8 2.9-.9.6-2 2.2-2.8 1.3-1.1-1.3 1-1.9 1.5-3zm279.4 254.4s-.1.1 0 0c-.6-.5-1.1-1-1.7-1.5-.4-.3-1.1-.6-.4-1.2.6-.5 1.3-1.9 2.1-1.3 1.6 1.2 3.3 2.5 4 4.5.3.8-.2 1.4-.7 1.8-.6.5-1.1 0-1.5-.5-.6-.7-1.2-1.2-1.8-1.8zM268.1 276.4c-5 6-10.9 11.1-16.7 16.3 5.2-5.8 10.6-11.4 16.7-16.3zm302.2 323.7c.1-1.8-.7-2.9-2.2-3.8l2.4-2.4c.4-.4 1-.7 1.4 0 .6 1.2 1.8 1 2.9 1.4-1.3 1.8-2.6 3.4-4.5 4.8zm-250-146.8c3.2 1 5.5 3 8.3 4.2 1.1.5.5 1.7.1 2.6-.5.9-1.2.6-1.7.1-2.2-2.2-4.5-4.3-6.7-6.9zM619.9 562c-.8.9-1.7 1.7-2.5 2.5-.4.4-.9.7-1.4.2-.5-.4-.6-.9-.1-1.4 1.7-1.8 3.5-3.6 5.2-5.4.4-.4 1-.6 1.5-.1s.2 1.1-.1 1.5c-.8.9-1.7 1.8-2.6 2.7zm-49-67c-.4-.5-1-.8-.8-1.4.2-.5.8-.5 1.2-.6.8-.3 1.3-.1 1.9.5 1 1 2.1 2 3.1 3 .4.4 1.4.8.8 1.6-.5.7-1.5.3-2.1.1-1.7-.6-2.6-2.3-4.1-3.2zm-227.4-37c-2.8 4.4-4.5 5.4-7.8 1.5 2.5-.9 4.9-1.3 7.8-1.5zm-21.4-244.3c.5-.3 1.1-.8 1.7-1.2.6-.4.9-1.4 1.8-.7.8.6.9 1.5.6 2.5-.5 1.6-1.8 2.3-3.3 2.3-.7 0-1.6 0-2-.8-.3-1.1.7-1.4 1.2-2.1zM612.7 551c.9-1.2 1.8-2.1 3-2.8.4 1 .8 1.9 1.7 2.1 1.7.4 1.3 1.1.5 2-.7.8-1.3 1.7-2.7 2.2.2-1.9-1.1-2.5-2.5-3.5zM351.1 303.1c.8-.3 1.1-1.9 2.5-1.2 1.9 1 1.9 2.5 0 3.4-.9.4-1.7 1.6-2.8 1.1-1.6-.8-1.5-1.5.3-3.3zm194 194.7c-1-1-2-1.9-3-2.9-.4-.4-1.2-.8-.5-1.5.6-.6 1.2-.1 1.6.3 2 2.1 3.9 4.2 5.9 6.4.3.3.7.7.3 1.1-.5.4-.9.1-1.2-.3-1-1.1-2-2.1-3.1-3.1zm-246.9-87.7c2.3 2.5 4.7 4.3 6 7.1-2-2.3-4.4-3.7-7.7-3.1.7-1.3 1.4-2.3 1.7-4zm2.6-175.5c-.3.7.3 1.6-.4 2.2-1.9 1.5-3.7 3-5.6 4.5-.4.3-.8.4-1.1 0-.3-.4 0-.8.3-1.1 2.2-1.9 4-4.3 6.8-5.6zm103.6 53c1 1.6 3 2.4 3.2 4.5 0 .3.3.8.6.6.4-.3.5-.9 1-.1.2.4.4 1.1-.1 1.3-1 .4-.4.8 0 1.1.4.3 1 .5.5 1.2-1.7-1.1-2.7-2.8-4.1-4.2-.9-1-2.9-2.3-1.1-4.4zm-169.5 19.8c-.3-.5-1-.8-.6-1.5.6-.8 3.3-1 4-.2.7.9 1.9 1.9.6 3-2 1.8-2.7-1.1-4-1.3zm252.1 279c-.3-.3-.5-.4-.7-.7-.4-.6-1.7-1-.6-2.1 1-1 1.7-.5 2.5.4.6.7 1.3 1.4 2 2.1.4.4.7.9.4 1.5-.4.5-1 .4-1.5.3-1.1-.2-1.5-1.1-2.1-1.5zm62.6-113.5c-2.2 3-5.4 4.5-8.4 6.3-.2.1-.6 0-.7-.3-.1-.4.1-.7.4-.9 2.8-1.8 5.5-3.9 8.7-5.1zM318.8 208.8c.9-.8 1.7-1.4 2.4-2.2.4-.4.6-1.1 1.3-.5.5.5.1 1-.3 1.4-1.6 1.9-3.5 3.5-5.3 5.2-.4.4-.7.5-1 .2-.4-.3-.2-.7.1-1.1 1-.9 1.9-2 2.8-3zm149.4 346.8c-.5.8-.8 1.1-1.2.9-.8-.4 0-.8.1-1.2 1.1-2.1 2.2-4.2 3.7-6.2.3-.4.5-1.2 1.2-.8.7.4.3 1.1 0 1.6-1.2 2.2-2.4 4.3-3.8 5.7zm-75.7-227.7c.6-.8 1.6-.6 2.5-.8 1.9-.5 1.8 1.1 2 2 .2 1.4-.9.3-1.3.4-.5.1-.7.6-1 .7-.9.1-2 .3-2.6-.5-.5-.4-.5-1.2.4-1.8zm-157.9-30.8c-2.3 3.5-5.7 5.6-8.9 8 2.3-3.4 5.4-5.9 8.9-8zm242.6 281c1.3-1.8 2.2-.9 3-.3.8.7 1.6 1.7.7 2.6-1 1-2.4.8-3.4-.1-1.1-.8-.6-1.8-.3-2.2zm33.3-127.4c.7 1.3 1.6 3 2.5 4.7.2.4.2 1-.3 1.2-.6.3-1 0-1.3-.6-.8-1.6-1.7-3.1-2.6-4.7-.3-.5-.3-.9.2-1.2.4-.2.9-.3 1.5.6zm-42.1 80.2c-.2.2-.3.5-.5.7l-13.5-7.8c.1-.2.2-.4.4-.6 4.5 2.6 9.2 4.9 13.6 7.7zm70.1-114.3c-2.2.3-4.3-1.8-7.5-7.5 2.8 2.7 5.1 5 7.5 7.5zM430.6 540.5c-1-2.7-2.7-3.8-5.2-3.5-.5.1-.8-.6-.8-1.1 0-.4.4-.8.8-.9 1.6-.3 3.1.2 4.2 1.3 1.1.9 1.8 2.1 1 4.2zm68.1 28.6c-1.3 1.4-1.8 2.6-3 3.3-.7.5-1.3.4-1.8-.3-.5-.6-.9-1-.3-2 1.3-1.9 3-.8 5.1-1zM242.2 298.5c.8 2.2-.7 2.7-1.7 3.3-1.2.6-2.6.7-3.6 1.8-.2.2-.8.4-1.1.1-.3-.3-.2-.7.1-.9.4-.4.4-1 .9-1.5 1-1 3.1.8 3.5-1.5.1.1.3.1.4.2 1.3.9 1.1-.4 1.5-1.5zM615.9 529c-.1-.7-1.9-.7-.8-2.1 1.1-1.4 1.9-.6 2.6.3.7.9 2.4 1.8 1.2 3-1 1.1-2-.4-3-1.2zM380.8 354.2c1.7 1.6 1.6 3.8 2.3 5.6.2.5-.1 1-.7 1.1-.4.1-.9.1-1-.4-.5-2-2.1-3.9-.6-6.3zm-18-104.5c.2-.2.4-.3.5-.4.6-.9 1.1-1.1 2-.1.9 1 .5 1.5-.4 2-.6.3-1.1.9-1.6 1.3-.4.3-.9.4-1.3 0s-.4-.8-.3-1.3c.1-.8.8-1 1.1-1.5zm-47.6 155.8c-.2.8-.8.6-1.3.4-1.7-.8-.5-2.2-.5-3.3 0-.9 1.1-1.1 1.9-1.1.2 0 .5.3.4.3-.5 1.2 1.1 2.7-.5 3.7zm285.4 91.9c.6-.5 1.2-1.2 2.1-1.3.8-.1 1 .1 1.2 1 .1.8.1 1.1-.8 1.1-1.5 0-2.2 1-2.6 2.2-.1.4-.2.9-.7.8-.7-.1-.6-.7-.6-1.2 0-1 .6-1.9 1.4-2.6zm-152.4 21.8c.4.5 1 .9.6 1.5-.3.4-.9.4-1.5.1-1.4-.8-2.5-2-4-2.5-.4-.1-.6-.6-.5-1 .2-.6.7-.3 1-.2 1.6.6 3 1.4 4.4 2.1zm122.7-33.9c-.2-.5-1.5-.8-.9-2 .3-.5.6-1 1.3-.9.9 0 1.2.8 1.6 1.4.5.9 1.1 2.1.3 2.8-.9.7-1.5-.5-2.3-1.3zM243.7 385.1c0 .1-.1.2-.1.3l-15.8-15.8.2-.2c5.2 5.3 10.5 10.5 15.7 15.7zm77.1-173.5c.8-.8 1.3-1.2 1.7-1.7.4-.4.9-1.1 1.5-.5.8.7 0 1.2-.5 1.7s-1.1.8-1.6 1.3c-.9.7-1.6 1.8-2.9 2 .1-1.6 1.4-2.2 1.8-2.8zm39.1 29c2 1.2 3.3 2.9 4.8 4.4.3.3.3.7.1.9-.4.5-.8.1-1-.2-.9-.8-1.6-1.9-2.6-2.3-1.2-.5-1.5-1.3-1.3-2.8zm-135.2 62.5c2.2-3.1 5.1-5.6 8.1-8-2 3.3-5.3 5.4-8.1 8zm282 263.4c2-.3 3.3-1.5 4.3-3.3 1-1.7 0-3.6.6-5.7 1.3 2.4 1.2 4.5 0 6.3-1.1 1.7-2.7 2.9-4.9 2.7zM206 388.8c.4.8 1.5 1.2 1.6 2.3.1.7-.3 1.2-1 1.3-.4.1-.6-.4-.5-.7.4-2.5-.9-3.5-3.2-3.5-.7 0-1.1-.2-.9-.9.2-.7.7-.5 1.2-.4 1.1.2 2 1 2.8 1.9zm109.4 67.3c-3.4-3.1-6.8-6.2-9.6-9.7 3.4 3 6.7 6.2 9.6 9.7zm44.9-210c.7-.9 1.3-.9 2.1-.2.8.8.8 1.5 0 2.3-.7.7-1.2 1-2 .1-.9-.8-1-1.5-.1-2.2zm248.5 196c1.2 2.4 1.3 2.5 4 3.4.4.1.9.1.7.7-.1.4-.5.7-.9.7-.5-.1-1.1-.2-1.6-.4-1.8-.9-2.9-3-2.2-4.4zM477.6 594.6c-2.9-2.5-5.8-5.1-8.1-8.2 2.9 2.5 5.8 5 8.1 8.2zM294.3 361c.5-.4 1.1-1.3 1.6-.3.7 1.4-.8 2.3-1.2 3.4-.3.7-.8.5-1.1 0-.9-1.3 0-2.1.7-3.1zm-21.5 53.2c3.9 2.9 7.2 6.3 10.6 9.7-.5.3-.7.1-.9-.1-3.3-3.2-6.5-6.4-9.7-9.6zm35.7-180.3c-.5.3-1.2.7-1.9 1-.1 0-.5-.6-.7-.9-.2-.6 2.2-3.1 2.8-2.8.5.2.9.7.7 1.3-.2.4-.5.8-.9 1.4zm194.4 335.7c-.7 1.8-2.2 3.1-3.6 4.3-.3.2-.7.3-.9 0-.3-.3 0-.6.2-.9 1.3-1.3 2.4-2.8 4.3-3.4zm120.5-39.8c.1-.2.3-.4.4-.5.7.8 1.5 1.3 2.5 1.3s1.3.7 1.8 1.2.5 1.2 0 1.7-1-.1-1.4-.4l-3.3-3.3zM443.9 332.2c.1-.1.3-.2.4-.3 1.1 1.1 2.3 2.2 3.4 3.4.6.6.3 1.3-.2 1.8-.4.4-.8.2-1-.2-.7-1.6-1.7-3.1-2.6-4.7zm-172.1-60.5c-.2 2 1.1 1.5 2.1 1.3.2.7-.2.7-.5.9-1.1.7-2.4 1.8-3.6.9-.4-.2.8-2.1 2-3.1zm284 117.8c.6 1.5 1.1 3 2.7 3.5.6.2 1.4-.2 1.7.7.1.3-.1.5-.4.6-.9.4-1.5-.1-2.1-.6-.8-.6-1.6-1.2-2.1-2.2-.3-.6-.8-1.2.2-2zm-259.5-30.8 6.2-6.2c-1.3 2.9-3.5 4.8-6.2 6.2zm70.4 143c-1.9-1.6-3.8-2.8-6.7-2.2 2.5-1.8 5-.9 6.7 2.2zM204.2 329.6c-1.4 2.6-2.9 4.2-4.6 5.1.5-2 1.6-3.3 4.6-5.1zm99.6 114.6c-2.7-2.1-5.3-4.2-7.1-7.1 2.4 2.3 4.8 4.7 7.1 7.1zm36.6-249.5c.8-.5 1.8-1.1 2.3-.6.6.6-.1 1.7-.5 2.3-.4.5-1.5 1-1.9.6-1-.8.6-1.5.1-2.3zm-9.3 26.7c-1.5 2.2-2.8 2.2-3.9 0-.2-.3-.3-.7 0-.9.3-.2.6-.1.9.2.8.8 1.7 1.5 3 .7zM203.2 327.1c-1.4 2.6-4.7 5.9-6.2 6.2l6.2-6.2zm172.3 11.8c.2 0 .4-.1.6-.1.8 2.6 1.6 5.3 2.5 7.9-1.8-2.4-2.3-5.1-3.1-7.8zm-66.1 97.5c.1 2.1 0 4.1-1.1 6-.4-2.2.5-4.1 1.1-6zm85.8-112.3c.1.3.4.9 0 .8-1.3 0-2.5 1.2-3.8.2-.3-.2-.6-.4-.4-.8.1-.4 3.9-.6 4.2-.2zm177.7 165.5c.3-.6.7-1.2 1.5-.4.6.6.7 1.4.1 2-.7.7-1.6.4-2.2-.1-.7-.6-.1-1 .6-1.5zm-89.3 92.9c-.4-.5-1.1-.9-.2-1.6.7-.5 1.2-.9 1.9 0 .6.7.7 1.4.1 2-.6.6-1.3.3-1.8-.4zm31.5-127.1c.5-.1.9-.2 1-.1 1 .7 1.6 1.7 1.9 2.8 0 .2-.3.6-.6.8-.6.2-.6-.3-.8-.7-.5-.9-1-1.8-1.5-2.8zm114.6 72.3.5-.5c.7-.4 1.2-1.9 1.8-1.2.9 1-1 .9-1.2 1.6 0 .2-.3.3-.4.4-.8.5-.8 2.6-2 1.6-.8-.7 1.2-1.1 1.3-1.9zm-69.1-16.4c4-5.1 4.3-5.4 6-5.8-2 2-3.8 4.2-6 5.8zm-59.1-80.2c1.3.9 3.3 1.5 2.4 3.8-1-1.1-2-2.2-2.4-3.8zm-141.4 70.4c1.1-1.4 2.3-1.1 3.7-.3 1.2.7 2.3 1.4 1.9 3.2-2.5-3.6-2.6-3.7-5.6-2.9zM224.7 327.3c1.4 0 2 1.1 2.9 1.5.3.1.9.2.6.8-.2.3-.5.6-.9.8-.4.2-.7 0-.9-.5-.5-.8-1-1.5-1.7-2.6zm358.9 132.9c-1.6-1.2-3.3-2.3-4-4.2 1.6 1.1 3.2 2.3 4 4.2zm16.4 16.1c-2.1-1-3.7-2.7-4.8-4.7 2 1.2 3.3 3 4.8 4.7zm29.8 121.3c1.8 2.1 3.5 1.3 5.2.3-2.8 2.5-4.6 2.5-5.2-.3zm-298.6-380c2.4 1.2 2.6 2 .5 3.5.1-1.3-.3-2.4-.5-3.5zm43.5-3c1.5.8 2.4 2.3 3.8 3.2-2.1 0-2.7-1.9-3.8-3.2zm97.4 171.6c-.9 1.9-1.8 3.7-2.8 5.6.1-2.3 1.2-4 2.8-5.6zm214.1 138.2c.2-.3.5-.7.8-.9.6-.4.8.1 1.1.5.2.4.9.7.5 1.2s-.6-.2-.9-.3c-.8-.4-1.5-.5-1.5.8 0 .3-.2.5-.5.3-.2-.1-.5-.4-.3-.7.2-.3.5-.6.8-.9zm-473.9-185c-.1-.6-1.6-.8-.8-1.5s1.1.6 1.7.9c.4.3 1 .7.4 1.3-.9.8-.8-.6-1.3-.7zm129-128.1c-.2-.8-.3-1.4-.5-1.9-.2-.6-.3-1.1.3-1.5.3-.2.5-.2.8 0 .5.4.4.9.2 1.5s-.1 1.2-.8 1.9zm177.2 141.4c.3 2.3 1.6 3.7 4 4.1-2.6 0-4.5-1.9-4-4.1zm-225.9-107c.9.1 1.6 2.1 2.2 0 0 0 .6 0 .9.2.4.2.4.6 0 .8-.5.3-.5 1.1-1.4 1-1-.3-1.2-1.1-1.7-2zm-66.9 121.6-.1.1-5.8-5.8.1-.1 5.8 5.8zm42.6 41.9c-2.3-1.5-4-3.5-5.7-5.7 2 1.9 3.9 3.8 5.7 5.7zm357.5 114c-.4.4-.7.8-1.3 0-.4-.5-.8-1.1-.4-1.6.5-.6 1.2 0 1.6.2.8.5.5 1 .1 1.4zM248.1 296c-1 1.7-1.7 2.7-3.8 3 1-1.6 2.2-2.2 3.8-3zm155.3-8.7c-.3.4-.6.2-.8.3-1.7.2-1.2-1.4-1.8-2-.2-.2-.2-.6.2-.6.9 0 .7.9.9 1.4 0 .1.2.2.3.2 1.4-1.2.7.5 1.2.7zm-92.8 152.8c.7 1.1 1 1.9.5 2.9-.1.2-.8.2-.9 0-.8-1 .1-1.7.4-2.9zM422 305.5c1.1 1.1 1.6 2.5 1.5 4.4-1.2-1.5-1.3-3-1.5-4.4zm-211.6 37.9c-1.4 0-2.1-.6-2.7-1.5-.2-.3 0-.5.3-.6 1.1-.1 1.5.8 2.1 1.4.2.1.2.3.3.7zm216.4-33.3c1.3 1 1.3 2.1 1.6 3 .1.4.4.9-.1 1.1-.5.2-.7-.3-.8-.7-.3-1-.4-2-.7-3.4zm21.9 29.5c.9-.8.5-2 1.8-2 .5 0 1 .6.9.9-.3 1.1-1.4.8-2.7 1.1zm242 182.3c.6.2 1 .5.4 1-.3.3-.8.9-1.1.2-.3-.6-1.3-1-.7-1.7.8-1.1.9.6 1.4.5z"/><path d="M476.6 637.9c.6-1.6-.5-5.3-1.8-6.5h.1c-.2.1-.5.2-.5.3.6 2.1.8 4.4 2.2 6.2.1 0 0 0 0 0zM528.8 636.3c-2.7.6-3.8 0-4.2-2.3-.4-2.1-2.9-2.3-4.4-3.3-2-1.3-4.3-.8-5.7 1.1-1.2 1.7-1.5 3.7-.7 5.7.2.6.5 1.1.3 1.9-2.3-2.3-5.1-4.3-6.8-7-1.4-2.2-3.1-4.1-4.4-6.3-.1-.2-.1-.7-.4-.6-1.1.4-1.7 1.4-2.3 2.3-.5.7-.6 1.3-.1 1.8 1.2 1.2 1.9 3 4 3.3 1.4.2 2.2 1.7 3.2 2.6 4 3.8 7.8 7.7 11.6 11.6.8.8 1.6 1.7 2.6 1.2 1.1-.6 2.3-1.4 2.1-3-.1-1.1 0-2.1.4-3.1.9-2.3 2.1-3.1 4.6-3 .5 0 1 .2 1.4.1 1-.1 1.7-.7 2.2-1.5.6-1-.2-1.4-.7-1.9-1.5-1.6-3.2-3.2-4.7-4.8-.4-.4-1.2-.9-.8-1.7.4-.6 1.1-.5 1.7-.5 3.2 0 4.3-1.6 3.6-4.8-.1-.4 0-.8 0-1.2 0-2.4-1.7-3.5-3.9-2.5-.8.4-1.6.8-2.2 1.5-1.3 1.4-2.3 1.1-3.4-.2-.6-.8-1.4-1.4-2.1-2-.4-.3-1-.8-1.2-.7-2.4 1.1-3.5-.9-4.8-2.1-1.1-1-1.9-.9-2.8 0-1 1-1 1.9-.1 3 2 2.6 5.4 3.5 7.6 5.9 3.3 3.7 6.8 6.9 10.4 10.5zm-13.6 3.6c1 1 2 1.4 3.5 1 .7-.2 1.3.5 1.3 1.3 0 .7.4 1.6-.2 2-.8.5-1.2-.4-1.6-.9-1.1-1-2-2.2-3-3.4zm4.9-15.4c-.5-.5-1.5-.9-.4-1.9.8-.7 1.4-.5 2 .2.6.7 1.3 1.6.5 2.3-.7.9-1.5.3-2.1-.6zm4.1.9c.6-2.2 2.4-3.2 4.2-4.1.7-.3 1.2-.1 1.4.9-2.4 0-3.7 1.9-5.6 3.2zm-.5 10.9.4.4c-1.4.8-2.3 1.9-3.2 3.2-.2.3-.6.4-.9.1-.4-.4-.1-.8.2-1 1.2-.9 2.3-1.8 3.5-2.7zm-5.9-4.2c.5.6 0 .9-.3 1.2-.4.4-.8 1.2-1.4.8-.7-.5-.3-1.3.1-1.8.4-.7 1-.2 1.6-.2zm3.1 3.7c.3.3.3.8-.1 1.2-.6.5-1.1.3-1.6-.2s-.3-.8.2-1.2c.5-.4 1-.4 1.5.2zm6.7-11.4c-.6 1.3-1 2.2-1.4 3.1-.2.4-.4.8-.9.5-.5-.3-.2-.7-.1-1.1.5-.9 1.3-1.6 2.4-2.5zM490.1 638c1.2 1 2 2.2 2.3 3.8.4 2.2 2.2 3.4 4 3.1 1.8-.2 3.2-1.6 3.3-3.2.1-1.8-1.7-3.9-3.4-4.5-2.4-.8-4-2.6-5-4.8-.7-1.5-1.3-2.8-3-3-1.8-.2-2.9.8-3.6 2.3-.8 1.6.4 2.8 1.2 4 .1.2.5.4.6.4 2-.7 2.5 1.2 3.6 1.9zm3.3-1.4 3.2 3.2c.6.6 1.4 1.1.5 2-.9.9-1.7.4-2.6-.2-.9-.6-1-1.6-1.9-2.2-1.9-1.4-3.4-3.2-5.1-4.9-.7-.8-.3-1.7.2-2.3.5-.5 1.2-.2 1.8.4 1.3 1.5 2.6 2.8 3.9 4zM388.1 565c-1.2-1.1-2.3-2-3.9-2.2-2.6-.3-4 1.7-3.1 4.2.6 1.8 1.3 3.4 3.1 4.3 1.9.9 3.9.8 5-.8 1-1.5 1-3.1-.4-4.5-.3-.3-.5-.7-.7-1zm-1.5 2.2c.9.8.8 1.9.9 2.9 0 .4-.4.6-.7.6-.6.1-.5-.4-.4-.7.3-.9-.4-1.9.2-2.8zM440.6 616.2c-.7-.6-2-1.1-3.4-1.1-1.8-.1-2.9 1.3-2.6 3.1.3 2.7 2.5 5.2 5 5.7 1.6.4 3.7-1.8 3.4-3.6-.2-1-1.3-3-2.4-4.1zM313.4 459.1c-2.3-2.1-4.9-2.3-6.2-.7-.6.7-.8 1.4-.5 2.5.7 2.4 1.4 4.3 4.5 4.7 1.6.2 2.5-.4 3.4-1.1 1-.8.6-1.9.3-2.9-.2-1.2-1-1.9-1.5-2.5zM254 437.4c-.5.7-.9 1.5-.7 2.6.5 2 .9 3.9 3.2 4.6 3.7 1.1 5.7.1 5.7-2.7 0-2.4-2.5-4.8-5.3-5.3-1.2-.3-2 .2-2.9.8zm.6 1.8c1.6-1.2 2.5-.1 3.4.5 1.3.8 1.9 2 1.8 3.5 0 .7-.7.7-1.3.6 1.1-2.4-1-4.3-3.9-4.6zM297.6 475.7c-2.1-2.1-4.8-2.8-6-1.4-1.1 1.2-.6 5.1.8 6.4 1.3 1.2 4.9 1.3 6.1.1 1.3-1.3 1-3.3-.9-5.1zM399 554c.9.4 2.1 1.2 3.5 1.5 1.3.3 2.9-1.6 2.8-3-.2-2.2-3.5-5.5-5.7-5.6-2.1-.1-2.9.7-2.8 2.8.1.7 1.3 3.5 2.2 4.3zM224 370.9c-.5-.4-.9-.7-1.3-1-1.2-.9-2.6-1.4-4.1-.6-1 .6-1.6 1.6-1.5 2.8.2 1.6.4 3.4 2.3 4.1.6.3 1.3.6 1.9.6 1.5 0 3.2.3 4-1.5 1-1.9-.6-3.1-1.3-4.4zM275.6 422c-.6-.3-1.4-.9-2.3-1.2-1.5-.4-2.9-.2-3.2 1.8-.3 1.8-.4 3.6 1.1 4.7 1.6 1.2 3.5 2.2 5.7 1.2 1-.5 1.3-1.3 1.2-2.4-.3-1.6-1.3-2.7-2.5-4.1zM350 527.5c-1.5-1.2-3-1.9-4.8-1.1-1.4.7-1.9 1.6-1.4 3.3.7 2.3 1.7 3.8 4.1 4.3 1.3.3 2.4.1 3.3-.8.9-.9.8-2 .3-3.1-.5-.9-1.1-1.8-1.5-2.6zM360.2 510.5c-1.2 1.2-.7 4.8.8 6.4 1.2 1.2 5.1 1.3 6.3.1 1.3-1.2.9-3.9-.7-5.6-1.8-1.7-5.1-2.2-6.4-.9zm4.8 6.3c-.3-2.2-1.4-3.6-3.7-3.6-.4 0-.7-.2-.6-.6.1-.2.4-.5.6-.5 1.2 0 2.3.3 3.1 1.3.7 1 1.5 2.1.6 3.4zM526.8 569.8c-.5.7-1.3 1.6-1.7 2.7-.3 1.1-.5 2.5.7 3 2 1 4.2.4 6.2-.3 1.5-.5 1.5-2.1 1.3-3.4-.1-1 .8-2.1-.2-3.1-1.8-1.8-3.8-1.5-6.3 1.1zm6 .5c-3.7.6-3.7.6-4.3 4-.1.5-.3.8-.8.7-.6-.2-.9-.9-.7-1.3.3-1 .8-2.1 1.6-2.8 1.1-1.1 2.3-1.8 4.2-.6zM488.7 608.4c-1.6 1.6-2 3.5-1 4.8.8 1 4.6 1.7 6 1 1.5-.8 2-2 1.8-3.8-.1-1.6.6-3.5-1.5-4.1-2.2-.7-3.8.8-5.3 2.1zm1.8 1.4c1.1-.6 1.8-1.9 3.2-1.7.3 0 .8 0 .9.4.1.5-.3.7-.7.8-1.9.2-3.1 1.3-3.7 3.1-.1.4-.3.8-.9.5-.5-.3-.4-.6-.2-1 .5-.8 1-1.5 1.4-2.1zM457 601.2c-1.4-1.4-2.7-2.4-4.7-2.1-.9.2-1.5.6-1.8 1.3-1.2 2.6 1.7 7 4.6 7.2 1.6.1 2.6-.6 3.3-1.9.8-1.3.1-2.4-.6-3.4-.2-.5-.6-.9-.8-1.1zm-5.1 1c1.8-.6 4.6 1.2 4.7 2.9 0 .5-.1 1-.6 1.2-.4.1-.6-.2-.6-.6 0-2.3-1.7-2.9-3.5-3.5zm-.2-1.7c2.4-.9 4.6.2 5.2 2.9-1.3-2.1-3-2.6-5.2-2.9zM544.6 619.3c.9-.6 1.4-.4 1.7.7.3 1.2 1.4 2 2.4 2 1.3 0 2.3-1.3 2.7-2.3.2-.6-.6-1.7-1.3-2.4-1.7-1.8-2.1-1.7-3.8.2-.6.5-1.1 1.1-1.7 1.8zM551.3 612.6c1-.1 1.3.4 1.5 1.1.3 1.3 1.6 1.6 2.5 1.7 1 .1 1.9-1 2.2-2 .3-1.1-.1-2-1-2.9-1.5-1.3-2.6-1.3-3.7.3-.5.7-.9 1.2-1.5 1.8zM562.4 601.3l-3.2 3.2c-1.3 1.3.4 2.2.3 3.4 1.2-.1 2.1 1.7 3.5.3 1-1 1.1-3.4-.2-4.1-2-1-.9-1.7-.4-2.8zM474.9 631.4s-.1 0 0 0c.7-2.4-.7-4.5-1.4-6.6-.4-1.1-.1-2.4-1.1-3.3-.7.5-.8 1.4-.5 2 1.2 2.6 1 5.7 3 7.9zM408.6 547.5l15.4 15.4.2-.2-15.4-15.4c0 .1-.1.1-.2.2zM488.3 597.2l-8.7 8.7.2.2 8.7-8.7-.2-.2zM434.8 573.5c-.7-1.5-1.8-2.8-3.5-3.5 1.2 1.2 2.4 2.3 3.5 3.5zM584.2 433.9c-1.6 1.9-3.3 3.7-4.9 5.6-2.5 3-2.2 7.5.3 11.2 1.6 2.4 6.9 3.7 10.2 2.6 3.8-1.3 6.3-4.1 8.7-6.9 3.2-3.7 4.1-3.1-.4-6.9-3-2.6-5.8-5.6-8.6-8.4-.8-.8-1.4-1.4-2.3 0-.7 1.1-1.9 2-2.9 3 0-.1 0-.1-.1-.2zm10.1 2.8c1.7 1.5 3.2 3.1 4.8 4.6.7.7 1 1.3.2 2.1-2.1 2-4.1 4.1-6.3 6-2.5 2.2-7.8 3-11.3-.5-2.4-2.3-2.5-6.9-.2-10.3 1.7-2.5 3.9-4.5 6-6.6.8-.8 1.4-.9 2.2 0 1.4 1.7 3 3.2 4.6 4.7zM410.8 283.9c1 1.4 2.6 1.7 4 2.2 1.2.5 3.5-1 3.4-2.3-.1-1.7-.3-3.4-1-4.9-.2-.4-.5-1-1.2-1-1.3 0-2.4-.5-3.6-.9-1.8-.6-3.9 1.5-3.5 3.5.3 1.3.8 2.6 1.9 3.4zM597.4 457.4c-1.3-1.3-5.3-1.3-6.6 0-.5.5-.5 1.1-.6 1.7-.1 3.2 3 6.2 6.2 6 .5 0 1-.2 1.3-.5 1.3-1.2 1-5.9-.3-7.2zM359.1 232.4c.9.3 1.4 1.7 2.9 1.8 2.3.2 4.1-1.4 3.9-3.6 0-.8 0-1.7-.2-2.5-.6-2-1.8-2.5-4.9-1.8-1.3.3-2.9.4-3.4 1.9-.6 1.7.5 2.9 1.7 4.2zM448.2 321.1c1.8 1.8 4.8 2.3 6 1 .9-1 1.1-6.1-.2-7.1-1.1-.8-6-1-6.9-.2-1.3 1.4-.8 4.5 1.1 6.3zm5-.8c-1.6 0-4.6-2.3-4.8-3.6-.1-.6 0-1.2.6-1.4.5-.2.6.3.6.6-.2 2.6 1.4 3.7 3.6 4.4zM501.7 373.5c.7.5 1.1 1 1.7 1.3 2 1.2 4.1.3 4.5-2 .2-1.3.4-2.6 0-3.9-.7-1.7-5.5-2.6-6.9-1.4-1.5 1.3-1.6 2.6-.5 4.4.3.6.9 1.2 1.2 1.6zm3-1.5c-1.6-.6-2.5-1.5-2.9-2.8-.1-.5-.4-1 .3-1.2.6-.2.9.3.9.8.2 1.2.7 2.1 1.7 3.2zM539.2 410.7c1.9 1.9 4.3 2.2 5.4.9 1.3-1.5 1.2-4.8-.4-6.4-1.1-1.1-5-1.4-6-.5-1.4 1.3-1 3.9 1 6zm.6-5.8c.6 2.3 1.5 3.9 3.8 4.2.3 0 .5.2.4.6-.1.3-.3.5-.6.5-1.6.1-4.1-3.1-3.6-5.3zM280.4 294.8c-1.2.4-2 .5-2.8-.7-.7-1.1-.4-1.7.5-2.5 1.2-1.1 2.2-2.3 3.3-3.4.7-.7 1.3-1.4 2.4-.4 1.1 1 .7 1.8 0 2.6-.2.3-.4.5-.9 1.1 1.3-.3 1.9-1.1 2.5-1.7 2-2.3 4.2-4.4 6.5-6.5.9-.9 1.3-1.9.3-2.6-1.1-.7-1.9-3-3.8-1.2s-3.7 3.6-5.5 5.5c-4.3 4.6-8.7 9-13.4 13.2-1.8 1.6-.8 2.4.3 3.7 1.2 1.5 2.1 1.5 3.4.2 2.4-2.4 4.8-4.8 7.2-7.3zm5.5-11 1-.8c.5-.5 1-1.3 1.9-.4.7.8 1.2 1.4.3 2.4-.8 1-1.7 1.9-2.7 2.7-1.1.9-1.6-.2-2.2-.7-.8-.6-.4-1.1.2-1.7.4-.3.7-.7 1.5-1.5zm-12 12.1c.1 0 .1 0 0 0 .5-.3.9-.7 1.2-1.1.7-1 1.3-.5 1.9 0 .6.6 1.1 1.2.4 2-1 1.1-2.1 2.1-3.2 3.1-.6.6-1.2.5-1.8-.2-.5-.6-.9-1.1-.3-1.8.6-.7 1.2-1.3 1.8-2zm-3.4 5.3c-.2-.4-1.1-.7-.5-1.3.8-.9 1.3.2 1.9.5.6.3.6 1 .1 1.4-.9.6-1-.5-1.5-.6zM289.7 276.4c-3.4.6-5.3 2.5-6.8 5.3-.6 1.1-2.2 1.9-3.3 2.8-4.3 3.5-7.9 7.7-12 11.4-2.3 2.1-4.5 4.5-6.3 7.1l5.7-5.7c.1 1.6-1.2 2-1.3 3.1 8.5-7.5 16-15.8 24-24zM270 295.3c.6-1.9 2-2.9 3.6-3.6-1.1 1.2-2.4 2.4-3.6 3.6zM294.8 302.6c-.8-.6-1.7-.9-2.5-.2-.6.6-.6 1.4.1 2 .8.7 1.6.8 2.4 0 .7-.5.5-1.2 0-1.8zM303 315c.7.6 1.2.5 1.8-.1.7-.7.8-1.6.2-2.2-.5-.5-1.3-.4-1.9.1-.7.7-.5 1.4-.1 2.2zM315.7 325c-.6.5-1.2 1.1-.4 1.8.7.6 1.5.3 2-.2.6-.5.9-1.3.3-2-.8-.8-1.3-.1-1.9.4zM293 347.2c-.5.6-1.2 1.1-.4 1.8.7.6 1.4.4 2.1-.2.7-.6.7-1.4.2-2-.8-1-1.3 0-1.9.4zM245.8 314c.7.4 1.5.6 2.2-.1.5-.5.3-1.3-.1-1.7-.7-.6-1.5-.6-2.2.1-.5.5-.4 1.1.1 1.7zM197.5 356.2c3-.3 6.1-.3 9-1.3-3.1-.3-6.1.1-9 1.3zM298.7 308.3c-.4.7-.6 1.3.1 1.9.8.7 1.5 0 1.9-.4.4-.4.7-1.1 0-1.6-.6-.5-1.4-.6-2 .1zM302.5 254.9c-.8.6-.5 1.4-.2 2 .3.5 1.1.6 1.6 0s1.2-1.4.4-2.2c-.4-.3-1.3-.4-1.8.2zM345.3 258.9c-.3.6-.5 1.2 0 1.7.6.6 1.3.6 1.8.1.6-.5.5-1.3.1-1.9-.5-.4-1.3-.2-1.9.1zM336.1 304c-.6.6-.9 1.3-.2 1.8.6.5 1.4.2 1.8-.3.5-.5.9-1.2.2-1.8-.6-.6-1.2-.1-1.8.3zM275.8 365.6c-.7-.6-1.4-.3-1.9.2-.5.4-.9 1-.3 1.6.5.6 1.3.6 1.8.1s.7-1.2.4-1.9zM328.3 241.4c-.4-.4-1-.3-1.5.2s-.7 1.2-.1 1.8c.6.6 1.2.6 1.8 0 .6-.6.6-1.3-.2-2zM264 293.5c-.5.6-.9 1.1-.1 1.7.7.6 1.3.4 1.8-.1s.7-1 .1-1.6c-.6-.4-1.2-.8-1.8 0zM356 285.4c.6.5 1.2.5 1.6 0 .4-.6 1-1.4.4-2-.4-.4-1.3-.7-1.9-.1-.5.6-.6 1.4-.1 2.1zM265.9 373.7c-.4.7-.2 1.1.3 1.6.6.6 1.1.7 1.6.1s.5-1.4-.2-1.8c-.5-.3-1.1-.3-1.7.1zM363.6 276c-.5.6-.2 1.3.1 1.7.4.6 1.2.7 1.8.1.6-.5.2-1.2-.2-1.7-.3-.4-1-.4-1.7-.1zM209.2 352.4c.5.3 1 .5 1.4-.1.4-.6.7-1.3 0-1.9-.5-.5-1-.4-1.4.2-.4.5-.7 1.2 0 1.8zM308.2 257.8c-2.2 1.3-3.6 3.3-5.2 5.2 1.7-1.7 3.4-3.5 5.2-5.2zM511.3 438.6c-1.8 1.6-1.3 4.9 1 7.2 1.1 1.1 2.4 2 4.1 1.4 1.7-.6 1.8-2.1 1.9-3.6.1-1.6.2-3.3-1.6-4.1-.2-.1-.7-.3-.7-.3.4-2-.3-4.1-.1-6.1 0-.2.4-.4.6-.6 2.8-1.5 3.1-2.7 1.4-5.4-.7-1.1-1.1-2.5-2.7-3-1.1-.4-1.8-1-3.1-.1-.9.6-2 .2-2.7-1.1-3.4-6.1-6.7-12.3-9.9-18.4-3.9-7.4-8-14.7-11.7-22.2-1.1-2.2-2.3-4.1-4.9-4.4-.7-.1-.9-.8-1.2-1.3-.7-1.5-2.1-2.2-3.4-2.8-.9-.4-2.2-.4-3.1.6-1 1.1-1.1 2.5-.7 3.9 1 3.3 2.7 4.4 6.2 4.2 1.8-.1 4.6 2.5 4.5 4.4 0 1.2.2 2.1 1.4 2.4.6.2.9.7 1.2 1.1 2.4 4.2 5.3 8.2 6.9 12.7.9 2.5 3.2 4 3.8 6.6.2.7.6 1.4.6 2.2.1.9.1 1.8 1.3 2 .4.1.8.6 1 1 3.2 7.2 7.2 13.8 10.8 20.8.5 1.1.2 2.1-.9 2.9zm1.2-5.7c-9.3-16-17.9-32.3-25.9-49 2.4 3.8 4.8 7.5 6.8 11.5 2.6 5.5 5.6 10.9 8.5 16.3 3.6 6.7 7.1 13.4 10.7 20.1.2.5.2.8-.1 1.1 2.6 2 3 3.4 1.1 5.9.8-2.6-.5-4.1-1.1-5.9zm4 12.7c-2.5-.6-3-2.2-3.4-3.9.8 1.3 1.9 2.4 3.4 3.9zM529 447.9c-1.2-1.2-4-1.4-5.3-.4-.9.8-.4 2.7 1 3.2 1.7.5 2.2 1.4 1.7 3.1-.3 1.1.3 2.9 1.1 2.7 1.2-.3 3.1.3 3.7-1.6.7-2-.2-5-2.2-7zM473.7 359.2c-.7-.4-1.5-1-2.3-1.2-1-.2-1.3.6-1 1.5.2.5.6.9 1.1 1.2 1.3 1 2.5 1.8 1.7 3.9-.3.8.3 1.8 1.4 2 1 .1 1-.7 1.3-1.4 1.2-2.9-1.3-4.1-2.2-6zM506.4 403.2c.5.9 1.5 1.8 1 3.3-.2.8.3 1.6 1 1.8.9.3 1-.7 1.2-1.3.6-1.7-.1-4.6-1.9-5.8-.9-.6-2-2.6-3.2-1.2-1.2 1.4.9 2.1 1.9 3.2zM492.9 379.4c1.2.8 2.5 1.6 1.8 3.7-.2.5.5 1.4 1.1 1.8.4.2.6-.1.8-.4.7-.9 1.3-2.1.8-3.1-.8-1.9-2-3.6-3.8-4.7-.4-.3-1.1-.5-1.5.1-.5 1 .1 1.8.8 2.6zM561.3 534c-.9 1.1-2.1 2.4-1.2 4.2.8 1.7 2.7 2.4 5.1 1.8 1.7-.5 2.9-1.6 2.3-3.5-.3-1.2 1.1-2.3-.2-3.5-1.6-1.4-3.8-1.3-6 1zM431.3 520.3c-1.5 1.8-2.7 2-5.5.6-6.3-3.2-12.4-6.7-18.4-10.3-.7-.4-1.4-.9-1.7-1.7-.4-.9-1.3-1.3-2.2-1.2-.9.1-1.7-.2-2.3-.7-5.4-3.9-11.7-6.2-17.1-10-2.1-1.5-4.5-2.3-6.6-3.6-1.3-.8-2.7-1.8-2.4-4 .2-1.6-.9-3.3-2.4-4.1-1.8-.9-3.7-1.8-5.7-.7-.9.5-1.5 1.3-1.2 2.4.5 1.8.7 3.8 2.9 4.4.2.1.4.2.5.3 2.4 4.5 7.4 5.4 11.3 7.8 5.5 3.5 11.3 6.6 17 9.8 5.8 3.3 11.7 6.6 17.5 9.9 1 .6 2.7 1 .8 2.7-.9.7.2 1.6.6 2.4 1 1.9 5.7 3.9 7.7 3.2.3-.1.8-.3.8-.5.1-2.4 1.5-1.1 2.3-.8 1.5.6 2.9 1.3 4.4 0 .5-.4 1 .1 1.5.3 1.9.6 3.8 1.1 5.8.2 2.2-1.1 2.7-2.9 1.2-4.7-1.6-2.1-3.7-3.3-6.5-3-1.1-.1-1.7.6-2.3 1.3zm-.4 3c-.6 2.2-1.7 2.6-3.2 1.4-2.4-1.9-5.3-2.9-7.9-4.3-6-3.1-11.7-6.6-17.6-9.8-6.5-3.5-12.8-7.3-19.2-11-3-1.8-6.1-3.6-9.1-5.4 2.4.1 4.3 1.4 6.3 2.5 6.3 3.5 12.5 7 18.7 10.6 5.1 2.9 10.3 5.7 15.3 8.6 4 2.3 8 4.8 12 7.1 1.2.7 2.7 1.8 4.7.3zm2.4-1.5c1.9-.7 4.9.8 5.2 2.7.1.6 0 1.4-.7 1.6-.9.2-.7-.7-.7-1.1-.2-1-.9-1.5-1.7-1.9-.7-.6-1.7-.5-2.1-1.3zM440.3 537.5c1.9 2.2 4.5 2.4 7.1 2.8.2 0 .5-.1.7-.2-.6-1.4.7-1.9 1.2-2.9.6-1.2-.6-1.7-1.5-1.7-2.1-.1-3.6-.7-4.7-2.7-.8-1.3-2.3-1-2.8.5-.1.2 0 .6-.1.8-1.2 1.8-1.2 2.2.1 3.4zM352 482.5c1.7 1 3.2 2.7 5.3 2.8 1 0 2.7 0 2.6-1.3-.1-1.1-1.5-2-2.7-1.7-1.6.4-2.4-.5-3-1.5-.5-.9-1.1-1.4-2-1.5-.5-.1-.8.2-1 .6-.4 1.1.5 1.8.8 2.6zM392.3 516.7c2.1 1.6 4.1 3.1 6.9 2.9.4 0 .8-.1 1.1-.4.3-.5.1-.9-.3-1.3-.6-.6-1.2-1.1-2.2-1-1.6.2-2.7-.6-3.6-1.9-.2-.4-.6-.8-1-1.1-.6-.4-1.1-.8-1.8-.1-.7.6-.5 1.2 0 1.8.4.3.7.8.9 1.1zM522.2 544.1c.3-2.2-.2-4.4.7-6.6 1.4-3.4 3.3-6.1 7.1-6.9l2.4-.6c-4.5-.3-9 3-10.1 7.4-.4 1.7-.9 3.4-.7 5.3 0 .6.2 1 .6 1.4zM636 503.5c1.5-.8.9-2.3.6-3.6-.3-1.2-1.4-1.4-2.5-1.3-.7.1-1.2-.1-1.6-.6-1.5-1.8-3.9-2.7-4.2-5.5-.2-1.4-3.1-2.8-4.4-2.5-1.9.5-2.7 1.9-2.5 4 .3 2.3 1 3 3.5 3.1.6 0 .9.3 1.2.6 1.5 1.7 3.8 2.8 4.4 5.5.5 2.3 3.4 2.4 5.5.3zm-7.6-5.4-.2.2-3.5-3.5c-.5-.5-.8-1-.2-1.6.6-.6 1-.5 1.6 0 2.5 2.4 5.4 4.5 7.5 7.3.4.5 1.3 1 .5 1.7-.6.6-1.3.1-1.8-.4-1.4-1.1-2.6-2.4-3.9-3.7zM614.6 512.5c-.9.1-2 1.5-2.2-.4 0-.5-.9-.6-1.5-.5-.5.1-.9.5-.7 1.1.1.5.2 1-.5 1.1-.9.1-1.7-.2-2.3-.8-.5-.5-.1-.8.3-1.1.5-.4.6-1 .2-1.5-.4-.5-1-.6-1.5-.4-.6.2-1.1.5-1.2-.4-.1-.6-.2-1.1.8-1.2 1.3-.1 1.6-1 .6-2-.5-.6-.4-1 0-1.4.4-.5.9-.6 1.4-.1.6.6 1.4.8 2.1.3.6-.4.2-1-.1-1.5-.5-1-1.3-.6-2-.3-2.6.9-3.8 2.5-3.9 5.2-.1 2.5 1.4 4.7 3.5 5.5 2.7 1 5 .5 7-1.6zM638 488.8c-4.9-1.7-9.9-2.8-14.9-3.8 4.9 1.9 9.9 3.1 14.9 3.8z"/><path d="M616 506.2c-.2.4-.7.5-.6 1 .2 1.2.8 2.5-1.4 1.6-.4-.2-.7.3-.9.7-.1.5 0 .8.4 1.1.6.4 1.1.7 1.8 1 1.1-1.6 1.2-3.5.7-5.4zM616 506.2c-.8-1.5-1.8-2.8-3.9-2.8.2.7.2 1.3-.1 2-.2.4.1 1 .6 1.2.3.1 1 .1 1 0 .5-2.4 1.7 0 2.4-.4zM539.7 671.8c-.8.2-.9.8-1.3 1.1-.8.7-1.7 1.3-2.6 0-.9-1.3-1.6-.8-2.5.1-1.4 1.5-2.9 3-4.4 4.4-.7.7-1 1.3-.3 2.1 1 1.1.5 2-.3 2.9-1.7 1.9-3.4 3.9-4.9 6.1l5.4-5.4c1-1.1 2-1.4 3.1-.2.9.9 1.4.9 2.3-.2 1-1.4 2.5-2.4 3.6-3.8.7-1 1.5-2.2.4-3.5-.6-.7-.5-1.2.1-1.8.6-.3 1.1-.9 1.4-1.8zM535.4 643.3c-.5-.5-1.1-.4-1.5 0-.5.5-1 1.1-.4 1.8.5.7 1.2.7 1.8.2.8-.5.2-1.3.1-2zM510.4 667.1c-.3.8-.3 1.5.3 2 .5.5 1.1.3 1.4-.1.5-.5.6-1.3 0-1.8-.5-.5-1.1-.2-1.7-.1zM499.2 679.5c-.4.7-.1 1.3.3 1.7.4.5 1 .4 1.4-.2.4-.5.5-1 0-1.5-.5-.3-1.1-.3-1.7 0zM522.3 656.1c-.4.5-.4 1 0 1.5s1 .6 1.4.1c.5-.5.4-1.1-.2-1.6-.3-.4-.7-.4-1.2 0zM688.9 552.5l-7.2 7.2c3.1-2.2 5.2-4.6 7.2-7.2zM636 540c-.2.7-.5 1.5.2 2.1.4.4 1 .5 1.4-.1.4-.6.7-1.2.1-1.9-.6-.6-1.1-.4-1.7-.1zM658.7 517.2c-.6.4-.2 1 .1 1.4.4.7 1 .6 1.6.1.5-.4.6-.9.1-1.4-.6-.6-1.2-.5-1.8-.1zM349.5 405c-.5.3-.6.9-.8 1.4-1.5 4.3-2.4 8.8-3.4 13.3-.3 1.1.3 1.7 1.3 2 1 .4 1.5-.2 1.8-1.1 1.3-3.4 1.7-6.9 2.7-10.4.4-1.4.9-2.9.8-4.4 0-.7-.3-1.1-.9-1.5-.7-.3-1.1.3-1.5.7zM396.5 358.9c-.5.5-.5 1-.2 1.5.3.6.7 1.2 1.6 1 4.9-1.2 9.8-2.3 14.7-3.5.8-.2 1.4-.9 1.2-1.9-.2-1.1-1.1-1.3-1.9-1.1-5 1.2-10.1 2.6-15.1 3.9 0 0-.1 0-.3.1zM367.1 279.6c-.3.5-.6 1 0 1.6.4.4.9.7 1.4.2.5-.5 1-1.1.4-1.8-.5-.4-1.2-.4-1.8 0zM386.7 298.3c-.4.4-.5.9 0 1.4.6.6 1.3.4 1.8-.1s.3-1.2-.2-1.7c-.6-.5-1.1-.2-1.6.4zM273.2 378.4c-.7-.4-1.5-.2-2.1.2-.7.4-.6 1.3-.1 1.8.6.7 1.4.3 2-.1.7-.5.5-1.2.2-1.9zM278.2 372.3c.4.5 1.1.4 1.6.1.6-.4.2-1-.1-1.4-.5-.7-1.1-.3-1.6.1-.6.3-.4.8.1 1.2zM491.5 427.8c.7.8 1.5.8 2.2.3.7-.5.9-1.3.3-2.2-1.9-3.2-3.7-6.4-5.6-9.7-.6-1-1.2-1.9-1.7-2.8-.5-.9-1-1.8-2.2-1.1-1.1.7-.9 1.7-.4 2.7.8 1.5 1.6 3 2.5 4.5 1.6 2.9 3.3 5.6 4.9 8.3zM447.7 503.9c-1.6 1.6-3.2 3.1-4.7 4.7-.6.6-1.3 1.2-.4 2.1.8.9 1.7.6 2.4-.1 3.2-3.2 6.5-6.5 9.6-9.7.6-.6 1.4-1.5.3-2.3-1-.8-1.8-.2-2.5.5-1.6 1.6-3.2 3.2-4.7 4.8zM496.9 457.7c1.5-1.8 3.4-3.2 4.8-5.2.5-.7 1.1-1.4.1-2.1-.8-.6-1.6-.4-2.2.2-.4.4-.7.8-1.1 1.2-2.4 2.8-4.9 5.5-7.8 8-.5.4-.9.9-1.2 1.4-.3.6-.4 1.2.2 1.7.5.4 1 .2 1.5 0 1.2-.5 1.9-1.5 2.8-2.4 1-1 2-1.9 2.9-2.8zM403.8 496.7c2.4 1.4 4.8 2.9 7.4 4.2 1.2.6 2.4 1.4 3.5 2.1.6.4 1.2.7 1.9.8.9.2 1.8.4 2.2-.8.4-1.1-.1-1.8-1-2.2-4.3-1.9-8.3-4.4-12.4-6.6-.6-.3-1.5-1.2-2.2-.2-.7.9-.4 1.8.6 2.7zM334.3 313.9l-3.6 3.6c-.7.7-1.2 1.5-.3 2.3.9.8 1.4-.1 1.9-.6 2.1-2 4.1-4.1 6.2-6.2.2-.2.5-.5.6-.8.3-.7 1.2-1.5.3-2.2-.9-.7-1.5.2-2.1.7-1 1-2 2.1-3 3.2-.1-.1 0 0 0 0zM317.9 330.1c-.3.6-.3 1.3.1 1.7.4.4 1.1.1 1.5-.3.4-.5.6-1.2 0-1.7-.5-.3-1.1 0-1.6.3zM321 326.9c-.3.5-.4 1.1 0 1.5.4.5 1 .5 1.5.1.6-.4.5-1.1.1-1.6-.5-.4-1.1-.2-1.6 0zM355.3 238.4c-.8-.7-1.5-1.4-2.4-2-.9-.6-1.7-.3-2.4.4s-1 1.6-.3 2.4c1 1.3 2.1 2.5 3.3 3.7 1 1 2.4 1.3 3.3.1.9-1.1.9-2.6-.3-3.7-.5-.3-.9-.6-1.2-.9zm-.9.8c.4.9 2.5 1.7 1.2 2.9-1.2 1.1-2-.8-2.7-1.7-.7-.8-2.1-2-1.4-2.7 1-.9 1.9.8 2.9 1.5zM593.6 437.2c-.8-.7-1.7-1.2-2.3-2.1-1.3-2.2-2.5-1.5-3.9-.1-1.5 1.5-3.1 3-4.6 4.6-2.3 2.5-2.8 6.4.8 9.5 2.3 1.9 6.7 1.4 8.8-1.1 1.4-1.7 2.9-3.4 4.5-4.9 1-1 1-1.7 0-2.6-1.1-1-2.1-2.2-3.3-3.3zm-6.6 7.4c2.1 1.1 4.7.5 5.5-1.2.9-1.9-.6-3.9-3.8-5.1 1.6-.7 3.6-.1 4.5 1.5 1.3 2.1 1 3.7-1 5.3-2 1.6-3.4 1.5-5.2-.5zm-2 2.6c-.5-.4-.7-.9-.7-1.4 0-.4-.8-.9-.1-1.3.6-.4.8.3 1.1.6.6.5 1.1 1 1.7 1.5.4.3 1 .4.7 1-.3.6-.8.3-1.3.3-.6 0-1-.3-1.4-.7z"/><path fill="none" d="m248.056 226.509 141.42-141.42 424.26 424.26-141.42 141.42z"/><path d="M524.8 296.7c8.2-8.2 19-18.6 25.5-24.6l-.4-.4c-13.5 9.1-32.6 21.2-51.8 32.6L485.8 292c11.8-17.9 24-37 33.7-50.7l-.5-.5c-5.8 6.6-15.7 17.2-24.8 26.2l-16.7 16.7-13.7-13.7 52.6-52.6 22.2 22.2c-8 13.2-20.4 31.7-27 40.6l.3.3c9.8-7.1 27.3-17.6 41.8-25.9l21.6 21.6-52.6 52.6-14.8-14.8 16.9-17.3zM578.6 333.6 567 345.2l-22.5-22.5 11.6-11.6 22.5 22.5zM565.7 371.9l35.3-35.3c-2.8-1.7-6.4-4.8-8.3-6.7l9.7-9.7c5.9 4.5 12.7 6.1 18.3 5.9l10.5 10.5-50.4 50.4-15.1-15.1zM657 412.3c-14.3 14.3-31.6 21.3-47.5 5.3-15.7-15.7-9.1-33 5.1-47.1 13.8-13.8 31.7-20.7 47.4-5 14.9 15 9.6 32.1-5 46.8zm-27.1-26.8c-10.5 10.5-15.1 16.8-10 21.9 5 5 11 .4 21.6-10.2 10.9-10.9 14.8-16.5 10-21.3-4.5-4.6-10.1-1.9-21.6 9.6z"/><path fill="none" d="M-.2.2h1000v1000H-.2z"/><path fill="none" d="M99.6 599.8h400.2v300H99.6z"/><path d="M202 757.6v22.9c-22.5 31.9-44.6 78-50.1 119.2h-31.8c5.6-41.8 31.1-91.9 50.4-116.7h-66.9v-25.4H202zM314.3 782.8h-56.9c-.9 7.6-3.4 21.2-4.3 27.1 5.3-4.4 13.4-7.6 25.6-7.6 28 0 43.8 20.2 43.8 47.3 0 27.5-15 52.7-53.4 52.7-28.1 0-48.8-14.4-51.9-39.8H248c2.7 9.8 9.6 16.1 21.7 16.1 14.7 0 21.7-10.8 21.7-26.5 0-14.8-5.5-25.4-21.8-25.4-13.2 0-18.6 5.7-21.8 14.2l-27.9-3.6c3.8-18.1 9.9-60.2 12.2-79.8h86.6l-4.4 25.3z"/><path fill="none" d="M600 100.1h300v300H600z"/><path d="M725.3 257.8V151.5c-6.6 3.1-18.6 5.6-25.7 6.2v-23.1c13.5-2.5 27.1-10.1 35.2-19.1h21.8v142.3h-31.3zM782.5 216.9c0-18.2 12.7-29.3 23.2-34-10.9-6.8-17.6-15.3-17.6-29.7 0-24.1 17.7-40.1 49.7-40.1 29.2 0 48.5 15.2 48.5 39.7 0 16.4-8.4 24.4-18.1 28.5 10.2 3.8 23.2 15.8 23.2 34.6 0 29.3-23.4 44.5-55.8 44.5-29.1 0-53.1-15.4-53.1-43.5zm78-1.4c0-14.1-9.7-20.6-23.6-20.6-15.5 0-23.4 8.4-23.4 20.4 0 12.6 9.5 21 23.9 21 13.4.1 23.1-6.3 23.1-20.8zm-42.9-61.2c0 9.6 6.9 16.1 19.9 16.1 12.6 0 19.5-4.9 19.5-16 0-10.8-7.1-17.4-19.8-17.4-13-.1-19.6 6-19.6 17.3z"/><path fill="none" d="M599.4 600.4h300v300h-300z"/><path d="M705.1 842.8v22.4H655v-22.4h50.1zM721.1 909.5l49.8-135.1h21.4l-49.6 135.1h-21.6zM864.4 810.7c-1.5-5.8-4.8-11.4-15.1-11.4-15.9 0-20 14.9-20.7 30.8 5-6.1 13.4-11 26.8-11 21.7 0 37.1 16 37.1 39.3 0 25.3-16.2 44.1-43.5 44.1-34.4 0-45.8-26.5-45.8-59.9 0-30.8 10.9-62.8 47.2-62.8 25.7 0 37.7 16.1 38.9 31h-24.9zm2.3 49.8c0-11.3-4.2-21.4-18.4-21.4-11.5 0-18.3 6.7-18.3 20.5 0 9.6 4.6 22.3 18.3 22.3 12.6.1 18.4-9.4 18.4-21.4z"/><path fill="none" d="M99.6 500H300v200.3H99.6z"/><path d="M157.5 665.8v-1.6c0-20.6 9.3-37.4 34.9-56.1 16.7-12.2 21.8-16.4 21.8-26.8 0-10.3-5-16-15-16-11.6 0-15.8 7.1-17.4 17.4h-24.9c1.7-20.4 15.1-37.5 42.3-37.5 30.4 0 40.9 18.1 40.9 35.9 0 17.2-7.4 25.6-29.2 40.9-14.6 10.3-20.5 17-22.5 22.3h56.1l-3.2 21.5h-83.8z"/><path d="M200 705c-57.9 0-105-47.1-105-105s47.1-105 105-105 105 47.1 105 105-47.1 105-105 105zm0-200c-52.4 0-95 42.6-95 95s42.6 95 95 95 95-42.6 95-95-42.6-95-95-95z"/></svg>