<svg xmlns="http://www.w3.org/2000/svg" xml:space="preserve" baseProfile="tiny" overflow="visible" version="1.2" viewBox="0 0 1000 1000"><path fill="none" stroke="#FFF" stroke-miterlimit="10" stroke-width="20" d="m142.4 324.8 30.9-30.3 36.8 33.3 117.4-112.2-34.6-35.8 35.9-30.8 368.6 369.3-27.2 32.2-10.8-5.1-119.3 113.8 7.5 12.5-29.4 28.1-376.6-371.1z"/><circle cx="500" cy="500" r="200" fill="none"/><path d="M242.8 297.7c-15.1 5-22.9 17-31.7 28.2-8.9-8.9-18.5-18.3-27.8-28-3.8-3.9-6.6-4.1-10.4-.1-7.8 8.1-15.9 16-23.9 24-5.5 5.5-5.4 6.5.4 12.3l73.2 73.2 69.9 69.9c3.9 3.9 7.4 7.3 1.6 12.5-2.5 2.3-.9 5.1 1.1 7 17.3 17.4 34.7 34.8 52 52.1 2.7 2.7 5.8 3.4 8.7.3 4.1-4.5 6.8-1.6 9.8 1.4 27.5 27.5 55 55.1 82.6 82.6 22.7 22.7 45.3 45.4 68 68 6.8 6.8 7.2 6.8 14.2-.2 6.9-6.9 13.6-13.9 20.7-20.6 4.5-4.2 5.3-7.9.2-12-.3-.3-.7-.6-.9-.9-1.3-2.1-5.6-3.6-3.9-5.9 2.1-2.7 6.4-1.6 9.2.2 2.7 1.7 5.2 5.6 8.4 2.8 4-3.4 8.7-6.9 9.1-13.1.3-4.7 2.4-8.1 5.9-11.8 3.5-3.8 8.3-6.3 11.3-11 2.2-3.4 7-5.1 9-9.8.8-1.8 5.1-2.2 7.6.5 9.1 9.6 20.2 17.3 25.7 30.1 1.8 4.2 5.3 6.7 10.1 5.9 4.8-.8 8-4 8.9-8.7 1-5-1.5-9-6.1-10.5-13.8-4.8-21-17-30.7-26.5-2.4-2.3-3.9-5.4 1.7-6.2 2-.3 2.8-2.3 3.1-4 .5-2.5 1.6-4 4.3-4.1 4.4-.2 6.8-5.9 7.1-6.9 1.7-6.3 10.3-5.4 11.3-12.4.3-2.2 5.7-3.9 9.4-4.2 6-.5 9.5-5.2 13.6-8.7 1.5-1.3 1.3-4.5-.9-6.5-3.6-3.2-3.5-7.2-2-13 3.4 3.4 6.2 6.1 8.8 8.8 2.6 2.7 5 3.2 7.9.3 8.5-8.7 17.1-17.3 25.8-25.8 4.2-4.1 1-6.6-1.7-9.3-23.9-23.9-47.8-47.9-71.7-71.8-98.7-98.4-197.2-197-295.7-295.5-7.7-7.7-7.7-7.7-15.4 0-7.4 7.3-14.7 14.7-22.1 22-6.2 6.2-6.2 6.6-.2 12.7 8.3 8.3 16.6 16.6 24.8 24.9 1.5 1.5 4.1 3.3 2.3 5.5-2.2 2.6-3.8-.5-5.3-1.6-7.4-5.5-10.2-4.8-17.8-.5-8.5 4.7-13.4 12.2-19.3 19.2-9.6 11.2-20.7 21.2-31.3 31.5-2.3 2.2-5.7 3.3-8.2 5.4-10.3 8.8-10.8 16.1-1.9 26.3.5.9 1.4 1.6 1.2 2zm368.7 209.6c-3.6.1-5.3 3-7.4 5.1-2.8 2.8-5.1 2.9-7.8.1-2-2.1-4.3-3.1-1.2-7.1 2.8-3.6 5.6-7.2 8.6-10.7 3.4-3.9 6.1-3.9 9.8-.1 14 14.4 28.2 28.6 42.6 42.6 3.8 3.7 3.4 6.2-.2 9.7-15.9 15.6-31.6 31.4-47.4 47.2-1.1 1.1-2.2 2.2-3.5 3-1 .6-2.2.4-2.9-.7-.7-1-.5-2 .4-3 5.2-5.7 12.3-9.5 16.1-16.6.4-.7 1.8-1.2 2.8-1.3 1.3-.2 2.2-.7 1.7-2.1-1.3-4.3 1.4-10.5-5.8-12.3-1.4-.3-2.3-2.6-3.5-3.8-3.6-3.8-7-7.9-10.8-11.3-4.5-4.1-8.6-8.7-13-12.8-2.3-2.1-3.7-3.9-6.8-3.4-1.4 5.5 4.1 4.5 6.2 6.6 9 8.9 18.2 17.6 26.8 27 5.5 6 3.5 11.9-4.3 15-1.2.5-2.8.2-2.8 2 0 4.8-4.4 6.2-6.8 9.2-2.5 3.2-5 2.6-7.7-.1-10.5-10.7-21.7-20.7-29.8-33.5-2.4-3.8-3.2-7 .7-9.7 6.6-4.5 10.5-11.5 16.6-16.4-2.8-1.1-4.9-.4-6.9 2-3.7 4.3-7.8 8.3-11.8 12.3-1.5 1.5-3.4 2.5-5.3.7-2-1.9-.6-3.7.9-5.1 9-8 16.4-17.6 26.5-24.8 4.6-3.3 5.4-1 8 .9 3.4 2.5 1.5 5.5 1.3 8.3 3.7-2.8 6.9-2.9 8.7 2 1.1 3 3.7 4.2 5.9 6 3.5 2.7 7.1 4.4 10.5.5 4.7-5.4.2-9.1-2.9-13.1-3-4-5.6-3.2-8.7-.1-1.1 1.1-2.4 3.2-4.3 1-1.5-1.8-1.2-3.6.4-5.3 2.3-2.7 4.7-5.3 7.1-7.9zm-73.1-1.6c.4-.5 1-1.1 1.1-1.7.6-5.7 2.2-7.3 6.9-2.5 3.9 3.9 7.9 3.4 11.9-.9 7.9-8.4 16.1-16.4 24.4-24.4 3.6-3.5 4-6.5 1.8-11.1-4.5-9.3-12.3-15.5-19-22.8-3.3-3.5-5.8-5.1-10.4-1.2-2.7 2.4-6.1 4.2-8.7 7-8.5 9.1-18.4 16.7-25.5 27.2-.1-1.2.1-2.3.5-3.1 4.8-8.8 7.4-18.3 9.4-28 .5-2.5.4-4.7-.5-7.1-5.7-15.7-6.7-32.2-7.8-48.6-.4-6.6.3-13.3-4.9-18.6-18-18-36-36-53.9-54-2.3-2.3-4.6-3.1-8.2-3.1-6.3 0-12.7-1.3-19-2.3-1.6-.2-4.4-1.1-3.1-3.2 2.7-4.3 6.2-8.3 10.7-10.6 3.8-1.9 5.7 2.5 7.8 4.7 30.9 30.8 61.6 61.6 92.4 92.5 1.9 1.9 3.9 3.7 5.3 5.9 15.5 24.7 30.9 49.5 46.3 74.3 1.7 2.8 2 5.2-.6 7.7-15.7 15.6-31.3 31.3-46.9 46.9-3.3 3.3-4.4 2.3-5.2-1.9-1.1-5.8-.1-12.1-4-17.2-.5.7-1.2 1.4-1.3 2.3-.6 3.2-.3 7.2-4.1 8.4-4.3 1.2-5.7-3.4-8.4-5.3-.7-.5-1.3-1.2-1.8-1.9-2.1-2.4-1.6-4.1 1.2-5.7 5.2-3 5.6-5.9 1.6-10.3-2.5-2.8-5.3-5.3-7.9-8.1-1.4-1.4-3.4-3.1-1.6-5 2.1-2.2 3.5.5 4.7 1.7 6.4 5.9 13 11.7 16.8 20zm-70.5-33.1c-12.5 12.5-25.1 24.9-37.5 37.5-3.8 3.9-6.7 4.7-10.9.3-12.3-12.7-24.8-25.2-37.5-37.5-3.9-3.8-4-6.5-.1-10.4 25.4-25.2 50.8-50.5 76-75.9 3.9-4 6.6-3.7 10.3.2 12 12.4 24.1 24.6 36.6 36.5 4.7 4.5 5.1 7.5.2 12.3-12.6 12.1-24.8 24.6-37.1 37zm-155.8-10.2c7-.6 7-4.3 6.1-9-2.4-12.1-4.5-24.4-6.7-36.5-.3-1.7-.3-4.4-1.9-4.7-4.1-.7-3.3-2.8-2.8-5.7.6-4-.9-7.6-5.4-8.6-4.2-.9-7.6.8-8.9 5-1.5 4.6.8 8.5 5.1 9.2 4.8.8 5.5 3.5 6.1 7.1.3 1.9 1.3 3.7 1.7 5.7 2.4 10.1 4.8 20.1 7.2 30.2.3 1.5.5 3.2-1.4 4-1.6.7-2.4-.7-3.3-1.7-2.4-2.6-4.9-5.1-7.3-7.7-1.9-2-2.2-4-.4-6.4 5.2-7.2 4.1-15.8-2.5-22.8-12.4-13.2-12.2-13 .5-26.4 5-5.2 8.8-6.8 15.5-2.7 8.5 5.1 11.2 9.8 8.3 19.1-1.1 3.6-1.8 7.3-3.2 10.8-1.8 4.6-.9 8.3 1.7 12.4 9.7 15.3 19.1 30.8 28.5 46.3 1.5 2.4 4.1 5.1 3.9 7.5-.4 5.3-1.4 9.7 6.5 6.8.8-.3 2.5 1.6 3.6 2.6 10.5 10.3 22.2 18.8 36.7 22.8.2 0 .2.7.3 1.5-6.4-1.5-12.5-3-18.8-4.4-2.9-.7-6.4-1.1-6.9 2.7-.6 3.9 3.2 4.6 5.9 4.7 13 .4 25.3 4.2 36.9 9.3 13 5.6 24.6 3.9 36.7-1.4 7.1-3.1 14.2-6.1 21.3-9.1 2-.9 4.1-2.2 7-1.3-2.2 1.4-4 2.2-5.4 3.6-10.2 10-20.4 20.2-30.6 30.3-1.4 1.4-1.4 2.8 0 4 8.9 8.2 15.9 18.4 27.1 24.2 4.3 2.2 7.6 2.1 11.1-1.7 5.7-6.2 11.4-12.5 17.9-17.8 8.5-7 12.9-14.1 5.1-24.2-.1-.1.1-.4.3-1.3 4.6 2.3 9 4.8 13.6 6.7 5.3 2.3 6.1 4.6 1.6 9-13.2 12.8-26.1 25.8-39 38.9-3.3 3.4-6 4-10.3 1.3-15.4-9.9-31.4-19.1-46.6-29.3-13.4-8.9-28.2-15.7-39.6-27.5-11.5-11.9-23.4-23.6-35.1-35.3-13-13.1-26.2-26.2-40.1-40.2zM335 213.8l24.9-24.9c1.5-1.5 3.4-3.7 5.6-1.7 4.5 4.2 10.4 6.1 14.9 10.6 62.2 62.6 124.7 124.9 187.1 187.4l47.4 47.4c1.3 1.3 4.6 2.6 2.2 5.2-2.1 2.2-4.5.6-6.4-1.2-1.7-1.7-3.8-3.1-3-6.1.5-1.8-.6-2.9-2.1-3.6-9.6-4.8-16.5-13-24.5-19.7-2.9-2.5-5-5.6-6.1-9.3-1.6-5.4-4.3-6.8-9.1-3-4.1 3.2-7.6 2-9.5-2.7-1.3-3.3-3.6-5.5-5.9-7.8-40-40.1-80-80.2-120-120.2-3.4-3.4-6.4-7.9-12.2-3.7-.5.4-1.9.2-2.5-.3-4.9-3.8-10.2-7.8-12.8-13.2-1.9-3.9 1.9-8.5 3.6-12.6.7-1.8 2.7-3.5.6-5.2-5.7-4.7-7.9-12.1-13.4-16.9-3.1-2.7-7.3-3.9-10-7.4-2.5-3.3-5.3-3.9-9.7-1.7-3.7 1.8-8.4 6-12.6 2.8-4.4-3.3-7.5-2.3-11.4-.1-4.8 2.5-9.7 5-15.1 7.9zm-31.2 163.5c-7.6-4-8.5-11.6-5.9-20.6 7.5-26.4 24.3-44 50.2-52.9 9.8-3.4 18.6-3.1 25.1 6.5 1.2 1.8 3.1 3.1 4.6 4.7 4 4.3 3.6 9.6-1.7 10.1-6.7.6-7.5 2.4-9 8.7-1.3 5.5-8.6 13.3-13.3 13.4-9.7.2-9.3 5.7-11.4 11.7-1.2 3.4-5.1 6-7.9 8.7-2.7 2.7-4.9 6.3-10 3.6-2.3-1.2-4.6 1.1-3.1 3.7 3.5 6.2-2.2 7.9-5 10.3-3.4 3-5.3-1.2-7.5-3-1.5-1.1-2.7-2.5-5.1-4.9zm110.4 217.5c.2-.2.3-.5.5-.7 1.7 1.7 3.4 3.5 5.1 5.1 1.3 1.2 3 2.4 4.6.6 1.6-1.7.3-3.3-.9-4.7-.6-.7-1.2-1.3-1.8-1.9-16.9-17.1-33.9-34.1-50.8-51.1-1.6-1.6-3.7-3.2-1.8-5.6 1.7-2.2 3.2-5.1 6.7-4.6 5.2.7 17.8 14.9 18.2 20.2.5 7.3 4.2 11 11.6 12.1 1.5.2 3.6-.9 3.7 2.2.2 3.4 2.7 5 5.7 6.6 4.5 2.3 8.8 5 12.8 8 2.9 2.1 4.9 2.6 7-.8.8-1.3 1-3.7 4.2-1.2 7.5 6 14.5 13.7 25.4 13.6.7 0 2 .9 2 1.5.6 7.3 5.7 6.9 10.9 6.7 1 0 2.2.6 3 1.3 9.3 9.2 18.5 18.5 27.8 27.7-4.2-1.4-9.2 4.5-11.5 0-3.6-7-10.8-10.3-14.8-16.5-1.9-3-4.4-4.9-7.5-6.1-2.5-1-4.9-3.8-7.8-1.1-3.2 3-.9 6.2.8 8.3 6.4 8.2 13.8 15.4 22.2 22.1-2.1 1-4.2 3-5.9 2.7-3.3-.5-6-6.2-10-.7-.1.1-2.6-1.5-2.9-3.2-.3-1.7-.4-3.5-.7-5.2-1-6.6-7.8-11.3-13.4-9.5-3.5 1.1-4.8 3.8-4.8 7.1 0 2.2.4 4.8 2.8 5.6 3.8 1.4 1.9-4 5.1-4.3-1 2.7.3 4.3 2.2 6.1 1.6 1.5 2.6 4.2.7 5.9-1.7 1.4-3-1-4.2-2.2-14.8-14.6-29.5-29.3-44.2-44zm102.4 38.9-18.3-18.3c-7.7-7.7-7.5-7.5-.1-15.4 10.9-11.7 26.7-17.7 36.4-30.9 1.7-2.3 4.3-3.9 4.9-6.9.3-1.6-.2-4.2 2.8-3.1 2.2.8 1.5 2.4.6 4.3-1.9 4-2.2 9.7 1.3 11.5 5.4 2.8 5.9 10.2 12.4 11.4 2.9.6.8 5.4 4 6.1 6.8 1.5 9.8 8 13.5 12.3 3.2 3.8 5.7 5 9.6 4.3 2.1-.4 5.4 2.8 6.6-1.8.2-.7 1.7.9 1.7 1.9.1 2-1.6 3.1-2.8 4.3-13.9 13.9-27.9 27.8-41.6 41.8-3.4 3.5-5.9 3.7-9.3.1-7.2-7.4-14.5-14.4-21.7-21.6zM390.8 351.4c12.9-5.6 12.9-5.6 21.9 1.6.5.4 1.1.7 1.7 1.1 12.3 8.6 24.2 17.8 38.2 23.6 4.8 2 6.4 4.4 1.7 9-19.4 19-38.5 38.4-57.8 57.6-.7.7-1.3 1.9-2.6 1.5-.7-11.4-3.9-16.3-11.8-16.9-3.7-.3-7.5-.4-10.9 1.6-4.4 2.5-2.1 7.7-4.5 12.4-1.8-3.7-6.4-3.4-7.1-7.8-1-6.6-4.7-11.8-9.7-16-8.9-7.6-9.4-9.9-3.7-21.3 1 1.9 1.8 3.7 2.7 5.4 8.3 16.5 26.7 24 44.3 18.4 5.2-1.7 9.2-6.3 15.2-6 1.1 0 2-1.3 1.8-2.4-.7-3.8 2-6.2 3.5-9.1 4.9-9.6 5.5-19.4 1.9-29.5-4.2-11.7-12.3-19-24.8-23.2zM631 507.9l-27.3-27.3c-1.2-1.3-2.3-2.8-2.3-4.6-.1-3.8-1-6.4-3.7-10-6.6-8.9-11.4-18.8-19.8-27-7.7-7.5-12-18.4-17.8-27.8-1-1.7-2.1-3.6-.1-5.4 2.1-1.8 3.5-.1 5.2 1 8 4.9 13.9 12.3 20.6 18.6 3.4 3.2 3.9 6.1.3 9.5-1.2 1.1-3.1 2.6-1.2 4.4 1.9 1.7 3.2-.3 4.4-1.4 2.9-2.7 5.3-4.6 5.9 1.6.2 1.7 2.4 1.4 3.8 1.8 5.1 1.5 11.5 2.3 8.6 10.5-.2.7.1 1.9.6 2.4 1 1.1 2 0 2.8-.6 1.2-1 2.3-2.1 3.4-3.2 10.2-9.9 7.6-10.7 18.5.2.3.3.4.9 1 2.1l-5.7-5.7c-1.7-1.6-3.5-3.1-5.7-1.1-2.3 2.1-1.1 4.2.6 5.7 4.6 4.1 6.5 10.5 12.9 13.3 7.6 3.3 10.6 11.8 16.6 17.1 1.8 1.6 3.6 4-.7 5.9-3.8 1.7-4.9 4.9-1.3 8.4 1.4 1.3 2.2 2.9.6 4.6-1.8 1.9-3 .3-4.5-.6-8.4-5.5-13.8-3.2-15.7 7.6zm-351.2-216c-.8 4.9 4 13.3 7.1 12.3 7.3-2.4 9.7 3.3 13.6 6.7 2.5 2.2 2.4 4.3-.2 6.7-3.2 3-6.1 6.4-9.2 9.5-2.4 2.4-2.4 4.4.1 6.7 2.1 1.9 4.1 4.1 6.1 6.1 1.4 1.5 3 3.3 1 5.1-1.9 1.8-3.1-.5-4.3-1.6-3.5-3.3-7.1-6.7-10.3-10.3-3.8-4.4-7.6-4.1-11.4-.5-5.8 5.5-11.4 11.1-17 16.8-3.1 3.1-3.4 6.8-2.2 11.1 3 9.9 7.1 18.9 15.4 25.7 3 2.5 6.6 4.9 6.7 9.9-17.1-16.2-35.8-31-47.7-52 16.7-16.6 34.3-34.2 52.3-52.2zm24.7-25.2 36-36c1.2-1.2 2.5-2.8 4.5-2 1.6.6 2 1.9 1.9 3.7-.2 6.6 3.4 10.3 9.9 10.1 2-.1 3.4.6 4.7 1.9l10.8 10.8c.9.9 2.1 1.9 1.8 3.3-.5 2.2-2.4 1.4-3.8 1.4-3.2 0-5.3 1.8-7.4 3.9-4.9 4.8-9.7 9.6-14.5 14.5-6.8 6.9-6.8 8.7-.5 15.9 1.4 1.6 5.2 3.2 2.9 5.5-2.1 2.2-6 3.1-9.1.7-2.3-1.7-4.1-3.9-6.2-6-1.2-1.2-2.3-3.3-4.2-2.7-3.6 1.2-5.2-1.2-7.2-3.2-3.5-3.4-6.9-6.8-10.3-10.3-1.2-1.2-2.5-2.2-2-4.5 1.1-5.5-2.4-6.9-7.3-7zm8.4-71.3c-4.2-4.2-8.3-8.5-12.6-12.7-2.8-2.7-2.8-5.1 0-7.9 8.3-8.2 16.6-16.5 24.8-24.8 2.5-2.5 4.7-2.9 7.3-.2 8 8.2 16.3 16.1 24.2 24.5 2.8 3 3.1 6.3 1 10.7-3.6 7.5-9.4 12.6-15.1 18.1-9.5 9.2-12.9 9-22.1-.3-2.5-2.4-5-4.9-7.5-7.4zm-150 116.8c4.1-4.1 8.1-8.1 12.1-12.2 2.2-2.3 4.4-2.7 6.8-.2 8.8 9.2 17.7 18.4 26.5 27.6 2.5 2.7 2.7 4.7-2 4.4-2.2-.1-4.3 1.5-4.3 3.4.3 8-6.4 11.3-11 15.5-3.2 2.9-8.3 6.2-12.6 4.2-11.2-5.5-19.3-15-27.8-23.7-2.4-2.4-2.1-4.6.1-6.8 4.1-4.1 8.2-8.1 12.2-12.2zm57.4 88.7c.3-.4.5-.8.8-1.2 1 .8 2.1 1.4 2.9 2.3 3.5 4 6.1 6.2 12.4 2.4 9.3-5.6 9.9-4.6 18.2 3.8 10.9 10.9 21.8 21.9 32.8 32.8 3.8 3.8 4.1 6.7-1.3 8.8-1.6.6-3.2 1.2-2.4 3.2.7 1.9 2.1 3.6 4.2 3.8 2.4.2 1.8-1.8 2.1-3.3.8-3.8 2.6-4.3 5.4-1.5 4.2 4.3 8.2 8.7 12.6 12.7 7.2 6.3-6.9 7.3-3 12.9.3.5-1.9 3-3.8 3.1-1.9.1-3-1.8-4.2-3-9.2-9.2-18.5-18.4-27.7-27.6-16.2-16.4-32.6-32.8-49-49.2zm135.4-185.4c.4 2.2-.5 4.9 2.9 4.2 2.6-.5 4.1 1.1 5.7 2.7 7.5 7.5 15.6 14.5 22.2 22.7 3.6 4.4 7.3 7.9 11.5 11.6 13 11.5 24.9 24.4 37.2 36.7 1.9 1.9 4.1 4.1 1.5 6.8-2.7 2.7-4.4 7.1-9.2 6.6-3.6-.4-10.1-9.2-10.1-13.2-.1-6-2.9-9.4-8.9-8.8-3.6.3-5.3-1.1-7.3-3.1-3-2.9-5.9-5.9-8.9-8.9-2.5-2.5-4.7-4.6-3.7-9 .8-3.5-1.6-7.9-5.6-7.5-10.4.9-13.9-7.9-20-12.9-1.8-1.5-2.1-3.4-2-5.9.4-6.9-2.5-9.6-9.5-9-1.7.1-3.1.4-4.1-1.1-1.3-2 0-3.3 1.2-4.6 2.1-2.4 4.3-4.5 7.1-7.3zM325.6 399c-1.9-1.9-3.9-3.6-5.6-5.7-1.4-1.7-4.7-2.8-2.4-5.9 1.6-2.2 3.4-4.2 6.6-2.4 2.2 1.2 4.5.5 4.3-2.1-.9-10.2 7.7-14.1 13-20.2 2.8-3.3 7.5 2.3 9.6-1.6 1.6-3-.2-7.2 2.7-10.4 5.2-5.7 10.3-11.5 16.6-16.2 2.3-1.7 4.4-3.7 8.3-2.4 3.2 1.1 4-1.7 2.7-4.5-.8-1.7-1.4-3.4.4-4.7 2.1-1.6 3.8-.3 5.2 1.1 4.3 4.2 8.5 8.4 12.7 12.6 2.6 2.6 1.5 4.3-1.4 5.3-8.3 2.9-16.2 7.1-24.9 9.2-14.7 3.6-23.9 12.9-27.5 27.5-1.5 6-3.5 11.8-5.8 17.6-4.9 12.5-4.9 12.5-14.5 2.8zm-64.2-12.4.1-.1c11.1 11.1 22 22.4 33.4 33.2 4.4 4.2 5.6 9.4 6.8 14.8.5 2.2-.3 4-2.3 5-2 1-3.4-.4-4.6-1.7-13.6-13.6-27.5-26.9-40.6-41-2.9-3.1-5-6.2-8.7-9-9.4-7.2-17.5-16.2-25.4-25.1-1.9-2.2-4.4-6.2-1.6-10 3.1-4.1 5.9-3.2 9.2.1 11.1 11.4 22.4 22.6 33.7 33.8zm232.4 141c-7.2-7.2-14.5-14.4-21.6-21.7-1.3-1.3-.3-2.9.6-4.2 6.3-9.7 14.1-18 23.9-24.3 2.4-1.5 4.5-1.6 6.5.5 5.8 5.8 11.6 11.5 17.3 17.3 1.7 1.7 2.9 3.8 1 5.8-4.9 5.1-9.9 10.1-15 14.9-.6.6-2.1.6-3.1.5-8-.9-10.4 1.8-9.6 11.2zm45.5-69.9c0 .1.1.1 0 0 3.5-3.4 7.1-6.7 10.3-10.3 3.7-4 7.2-3.7 10.8-.1 5 5 10.1 10 15 15 1.6 1.7 4.1 3.9 1.9 6.2-2.4 2.5-4.2-.5-6.1-1.9-1.5-1.1-3-3.6-4.9-1.4-1.8 2.1.4 3.7 1.8 4.9 3.7 3.2 2.5 6.1-.3 9-2 2.1-4.1 4-6.1 6.1-2.9 3.1-5.7 4-9 .6-1.5-1.5-3.6-3.7-5.6-1.4-2 2.2.5 3.9 1.8 5.6 1.3 1.7 3.6 3.5 1.2 5.6-2.1 1.8-4.2 0-5.8-1.6-5.4-5.3-10.7-10.6-16-15.9-3.3-3.3-3.2-6.5.1-9.8 3.7-3.3 7.3-7 10.9-10.6zM282.6 288.6c6.4-6.4 11.5-11.6 16.7-16.7.9-.9 2.1-1.9 3.5-1 1.2.8.1 1.9 0 2.9-.5 4.6 3.8 9.2 8.2 8.1 2.6-.7 3.7.2 5.1 1.6 5.8 5.8 11.5 11.6 17.3 17.3 2.5 2.5 3.2 4.4-.6 6.6-5.4 3-10.6 6.3-15.1 10.7-1.4 1.3-3.2 2.3-4.7.9-6.6-6.1-15-11.2-18.1-19.7-2.2-6-4-10.3-12.3-10.7zm183.1 250.3c3.7-3.7 7.5-7.5 11.3-11.2 1.8-1.8 4.1-3.5 6.3-1.4 6.9 6.5 13.5 13.3 20.2 20.1.8.8 1.1 2 .2 3-1.1 1.3-2.4.8-3.5 0s-2-1.7-3.1-2.5c-1.3-1-2.7-1.9-4.2-.7-1.8 1.6-.7 3.3.6 4.6 6.9 6.8-.3 9.9-3.7 13.8-3.5 4.1-7.2 7.7-12.3 1.6-1-1.2-2.6-2.1-4-.8-1.5 1.3-.5 2.9.2 4.2.4.8 1.1 1.4 1.6 2.1 1.1 1.6 3 3.3.8 5.1-1.7 1.4-3.4-.3-4.6-1.5-5.8-5.7-11.6-11.5-17.3-17.3-2.7-2.7-2.4-5.4.3-8 3.8-3.5 7.5-7.3 11.2-11.1zm4.4-204.4 16.6 16.6c1.5 1.5 2.8 3.1 1 5.1-1.5 1.8-3.3 2-5.3.7-1.3-.8-2.7-1.5-4-2.3-16.4-10-32.9-19.9-49.2-30-3.7-2.3-7-3-11.1-1.1-5.2 2.4-10.7 4.2-16.1 6.2-1.4.5-3.1 1.3-4.1-.5-.8-1.4.4-2.5 1.3-3.5 6.7-7.9 13.5-15.3 25.6-10.1 2.8 1.2 6.1 1.3 9.1 1.5 15.5.9 29.4 5.2 36.2 17.4zm189.3 201.9c-5.1-5.1-9.6-9.9-14.5-14.4-4.4-3.9-3.6-6.8.1-10.9 6.8-7.7 17.3-11 22.9-20.1 1.7-2.7 4.2-1.3 6.1.7 3.7 3.8 7.4 7.6 11.3 11.2 2.5 2.4 2.3 3.6-1 5-2.1.9-3.9 2.7-4.1 5.6-.3 5.4-8.2 14.2-13.6 14.7-5 .3-7 3-7.2 8.2zm-123 121.3c-4.4.8-8.2 1.7-8.1 6.9 0 4.6-7.8 14.8-12 14.4-6.1-.6-8.3 2.5-9.7 8.2-5-5-9.6-9.4-13.9-14-1.9-2-5.8-3.6-3.4-7.5 1.9-3.2 4.8-3.9 8.5-3.1 5 1.1 9.4-1.6 8.3-6.4-1.6-7.3 2.8-10.4 6.7-14.4 2.8-2.9 5.2-2.6 7.8.1 5.2 5.3 10.4 10.4 15.8 15.8zM485 400.9c-2.8-2.8-5.7-5.6-8.4-8.4-13.5-14.1-14.2-9.5 0-24.4 4.3-4.5 7.8-3.8 11.9-.4 17.6 14.4 24.7 35 32.5 55.2.8 2.1.1 3.5-2.3 3.7-1.5.1-3 1.2-3.7-1.9-.9-3.8-5.2-8.8-7.8-7.6-5.9 2.9-7.3-1.7-9.9-4-4.3-3.9-8.2-8.1-12.3-12.2zM557.4 569c-3.3-3.3-6.5-6.6-9.8-9.8-2.5-2.4-1.9-4.5.4-6.8 2.3-2.2 4.4-2.8 6.8-.4l4.2 4.2c22.2 22.4 44.5 44.7 65.9 67.9 1.5 1.7 5.4 3.2 2.1 6.3-2.7 2.5-4.8 0-6.8-1.7-21.6-19.1-40.9-40.8-62.8-59.7zm-190.6-91c8.2-8.2 8.2-8.2 16.4 0 7.8 7.8 15.6 15.6 23.4 23.5 2.6 2.6 4.8 5.1 5.3 9.4.4 4 3.7 7.7 8.5 7.6 3.5 0 2.4 1.8 1.8 3.3-1.3 3.5-3.9 2.3-6.1 1.4-16.9-7.2-35.1-11.6-48.5-26-7.8-8.5-9.1-10.9-.8-19.2zm324.5 59.5-7.9 7.9c-7.6 7.6-7.5 7.5-15.3-.2-3.3-3.2-5.5-5.8-.4-9.3 1-.7 1.7-2 2.4-3.1 4.8-7.7 11.6-13.1 19.2-17.8 4.5-2.8 9.2-.5 13.7 5.5 3.2 4.2-.6 5.9-2.6 8.1-3 3.1-6.1 5.9-9.1 8.9zM268.1 251.9c11.8-11.8 23.5-23.8 35.5-35.4 6-5.8 8.2 1.6 11.3 4.3 3.4 2.9 3 6.5-1 8.7-4.5 2.5-8 6.1-11.6 9.7-5.1 5.1-9.7 10.6-15.5 14.9-2 1.5-4.1 3.5-6.4 1.2-3.6-3.5-7.5-4.2-12.3-3.4zM525.4 676c3.2-4.9 9.4-6.9 13.1-11.7 1.5-1.9 3-1.4 4.5 0 1.8 1.7 3.4 3.5 5.2 5.1 4.1 3.4 3.6 6.3-.1 9.8-6.3 5.9-12.2 12.1-18.3 18.2-6.5 6.5-7.4 6.4-13.4-.4-2.9-3.3-2.5-6.4-.4-9.6 2.6-4.1 5.4-8.1 9.4-11.4zM382.8 385.4c-2.5-2.5-5.2-4.9-7.5-7.5-2.2-2.5-7.1-4.6-5.6-8.1 1.9-4.2 7.2-4.5 11.6-4.5 4.3.1 8.3.7 10.7 5.1 1 1.9 2.7 3.8 4.6 4.7 5.8 2.8 6.1 8.3 6.9 13.4.7 4.1-2.1 7.3-5 9.4-2.8 2-4.6-1.5-6.4-3.2-3.2-2.9-6.2-6.2-9.3-9.3zm-21 9.6c-3-5.2-2.7-10.9-.3-16.7 1.6-3.9 3.7-4.7 6.9-1.5 5.7 5.8 11.6 11.5 17.2 17.4 3.8 3.9 3.2 8.6.8 12.9-1.5 2.6-11.8 1.5-14.1-1.4-3-3.9-6-7.7-10.5-10.7zm-150.6-56.1c-1.9 3.8-3.4 7.2-5.2 10.4-2.2 3.9-3.7 7.5.7 11.1 1.9 1.5 1 3.3-.1 5.3-6.4 10.6-6.3 10.7 1.6 20.7.2.2 0 .7 0 2.2l-20.3-20.3c-1-1-1.9-2.7-1-3.5 4.3-4.2 3.4-11 8.1-15.3 4.6-4.4 9.2-8.6 16.2-10.6zM354 446.3c2.9 4.6 5.8 9.3 8.8 13.9 2.2 3.2 1.7 5.2-1.4 7.7-9.1 7.3-9 7.4-15.1-2.6-.8-1.3-1.7-2.6-2.4-4-3.9-8.1-3-10.9 4.7-15.2 1.9-1.1 3.6-1.9 5.4.2zm91.7-99.5 2.7-2.7c1.9 4.5 7.8 1.4 9.7 5 1.6 2.9 3.6 3.5 6.5 4.3 1.8.5 5.7 1.3 4.4 5-3.3 9.2-9.1 11.1-17.5 6.1l-3.9-2.4c-9.1-5.9-9.2-6.9-1.9-15.3zm121.8 236.9c5.8 5.7 11.6 11.5 17.4 17.3 1.3 1.3 2.2 2.9.6 4.6-.8.9-1.9 1.4-2.9.5-3.7-3.3-8.8-4.4-12.1-8.6-2.5-3.3-4.3-8.2-7-9.8-7.2-4.3-13.2-8.9-16.2-17-.6-1.5-5.1-1.4-1.9-4.5 2.6-2.5 4.4-.2 6.1 1.5l16 16zM483 480.1l2.3-2.3c6.3-6.2 12.5-12.5 18.8-18.7 1.8-1.8 3.7-2.3 5.7-.2 1.8 1.8 1.8 4-.3 5-4.3 2.1-6.4 6.5-10.5 8.8-13.2 7.8-23.4 18.6-31.2 31.7-1 1.7-1.6 3.8-4.1 3.8-1.4 0-2.4-1.1-3-2.3-1.4-2.6.5-4.1 2-5.7 6.8-6.7 13.6-13.4 20.3-20.1zm48.8 67.2c-1.7-1.7-3.5-3.4-5.1-5.1-1.5-1.6-1.9-3.2-.7-5.3 4.6-7.8 8.9-8.5 15.3-2.2 1.4 1.4 2.7 2.9 4.2 4.2 3.8 3.2 4 6.1.3 9.8-6.3 6.1-6.5 6.2-14-1.4zM425.6 332.9c7-2.9 10.7 2.7 15 5.1 4.5 2.5 3.7 7.2-1.3 13.6-2.9 3.7-9 2.4-16.6-5-5.8-5.7 3.5-8.3 2.9-13.7zm91.9 72.1c-4.7-15.2-14.6-27-25.4-38.2-1.9-2-3.8-4.2-1.1-6.8 2.7-2.5 4.3 0 6.1 1.5 11.9 9.5 19.9 20.9 19.5 37 .1 2.2.7 4.4.9 6.5zm-280-81.7c-3.1 3.1-6.3 6.2-9.4 9.4-2 2-4 2.6-6.3.3-2.1-2.1-2.4-4.2-.3-6.3 6.2-6.3 12.4-12.5 18.7-18.8 2.1-2.1 4.2-1.9 6.3.2 2.3 2.2 1.8 4.2-.2 6.2-2.9 3.1-5.8 6-8.8 9zm94 117.4c-1.5-2.3-5.4-6.4-3-7.8 3.7-2 6-6.5 10.6-6.6 5-.1 5 4.8 7.3 7.4 1 1.1 1.7 2.5 2.5 3.8 1.5 2.5.9 4.4-1.3 6.3-6.7 6-8.8 5.8-13.6-1.6-.4-.6-1.4-.9-2.5-1.5zm303.9 209.9c-1.8-3.6-4.7-7.7-5.9-12.3-.9-3.3 2-6.1 5.7-4.9 3.9 1.3 7.7 3.3 11.2 5.5 4.1 2.6 4.4 7.5 1.1 11.6-2.9 3.8-8.1 4.1-12.1.1zm-389-377.2s.1 0 0 0c1.5-1.4 2.8-2.8 4.3-4.2 1.6-1.5 3.6-3.7 5.6-1.3 2.1 2.5 6.6 4.5 4.7 8.6-2.2 4.8-5.7 8.9-11 10.9-4.8 1.8-6.8-2.2-9.1-4.9-2.5-2.8.8-4.2 2.3-5.8 1-1.2 2.1-2.2 3.2-3.3zm181.8 243.3c26.4-29.3 54.3-57.1 83.5-83.5-27.8 27.8-55.7 55.6-83.5 83.5zm96.2 1.4c5 3.5 5.6 6.9.9 11.7-4.8 4.8-7.6 3.6-11.9-.5-4.5-4.4-4.7-7.2-.1-11.8 4.5-4.4 7.7-4.5 11.1.6zM214.5 353.6c-.1-.2-.1-.4-.2-.5L352.4 215l.3.3c-46.1 46.1-92.2 92.2-138.2 138.3zm182.7-103.3c8 2.4 43.9 39.3 44.5 44.5-15.1-15.2-29.8-29.8-44.5-44.5zm151.6 142.5c-.2 0-.3 0-.5.1L420.7 265.3l.3-.3c42.6 42.5 85.2 85.2 127.8 127.8zM488.2 654c-3.1-3.6-6.1-6.9-2.4-11.3 2.9-3.4 7.5-2.6 11.3 2 2 2.4 3.6 5 5.2 7.6 1.2 1.9 2 4.2.1 6.1-1.8 1.8-4.2 1.5-6.2.5-2.7-1.5-5.5-3.3-8-4.9zm59.4-119.6-.6-.6 51.4-51.4.6.6c-17.1 17.1-34.3 34.2-51.4 51.4zm-77.3-24.9c.1.6.3 1.1.4 1.7-13 5.7-25.9 11.3-38.9 17-.4-.6-.7-1.2-1.1-1.8 8.6-2.7 14.7-8.6 20.8-14.6 2-2 5.3-3.1 7.3-1.7 4.2 2.8 7.7 1.4 11.5-.6zm-2.7 138.7c2.2.8 4.4 2 6.1 1.2 5.7-2.6 8.3.5 10.7 4.8.6 1.1 1.8 1.9 2.9 2.6 2.2 1.6 4.7 2.9 2 6.1-2.6 2.9-4.8 2.2-7.2-.3-4.8-4.8-9.7-9.6-14.5-14.4zm15.5-49.2c-.3-.3-.6-.5-.8-.8l46.7-46.7.8.8c-15.6 15.6-31.2 31.1-46.7 46.7zM249 397.7l.9-.9 45.8 45.8-.9.9c-15.2-15.3-30.5-30.5-45.8-45.8zm130.5-169c4.4 4.4 8.8 8.7 13.1 13.1.9.9 2.1 2.1.5 3.3-1.1.8-2.1-.2-2.9-.9L365 219c-.7-.8-1.7-1.8-.9-2.9 1.2-1.5 2.4-.4 3.3.5 4 4 8 8.1 12.1 12.1zM263.3 374.4c-.4-2.4-.7-3-.5-3.3 7.3-9.5 16.4-17.1 24.7-25.6.6-.6 1.5-1.1 2.4-.4 1.1.9.6 2-.2 2.8-8.5 8.6-17 17.1-26.4 26.5zm120.8 63.8c2 2.4 1.9 5-.5 7.4-2.5 2.5-4.7 1.4-6.8-.7-2.3-2.4-2-4.7.2-6.9 2.3-2.2 4.6-2.5 7.1.2z"/><path d="M540.1 646.7c1.1-.1 2.2-.3 3.2-.1 7.4 1.4 12.3-1 16.3-7.2 2.8-4.3-2.7-7.2-1.1-11.1h-1.3c-2.5 1.5-5.2-2.4-7.4.2-4.4 5-11.5 8.5-9.7 17v1.2z"/><path d="M558.6 628.3c.1-2.9-1.6-4.9-3.5-6.8-7.8-7.8-15.5-15.7-23.4-23.3-5.4-5.2-8-5.1-13.4.1-3.2 3.1-6.2 6.3-9.3 9.3-3.6 3.6-4 7.3-.4 11 8.5 8.6 17.1 17.2 25.7 25.7 1.6 1.6 3.5 2.6 5.9 2.5v-1.2c-7.1-6.9-14.4-13.6-21.3-20.7-13.8-14-14.4-10 1.3-25.8 2.9-3 5.6-2.9 8.5 0 9.5 9.8 19.1 19.5 28.6 29.2h1.3zM611.5 507.3c12.3 9.5 22.2 21.4 32.9 32.6-7.7-.5-17.5 9-16.5 19-12-12.3-23.9-22.2-33.3-34.7-1.8 3.3.2 5.5 2.2 7.6 8 8.2 16 16.4 24.3 24.3 6 5.6 16.8 5.4 22.2.1 5.3-5.3 5.7-15.2.3-20.8-8.4-8.7-17.1-17.2-25.7-25.7-1.7-1.9-3.6-3.4-6.4-2.4zM493.1 382.7c-1.2-1.2-2.4-2.6-3.7-3.7-2.7-2.4-4.8-6.2-9.4-3.1-4.5 3-3.8 6.7-2 11 2.8 6.6 8.1 9.9 14.3 12.5 3.8 1.6 6.4-.1 8.5-3 2.2-3 .6-5.4-1.6-7.5-2-2.1-4-4.2-6.1-6.2zm-1 2 5.1 5.1c1.5 1.6 2.4 3.3.7 5.2-1.8 2.1-3.9 2-5.8.2-3.8-3.7-7.5-7.4-11.2-11.3-1.6-1.7-1.5-3.6.2-5.3 1.9-1.8 3.6-1.2 5.2.4 2.1 2 3.9 3.9 5.8 5.7zM375.9 495.4c1.7 2 3.4 4 5.2 5.9 2.5 2.7 4.7 6.5 9.1 3.9 4.3-2.5 5.7-6.4 3.1-11.2-3.1-5.8-6.6-10.8-13.7-12.7-4.3-1.2-7.3-.5-9.6 3.1-2.5 3.9.6 6 2.9 8.3l2.8 2.8c.1 0 .2 0 .2-.1zm3.7.9c-2.1-2.2-4.4-4.3-6.5-6.6-1.4-1.6-1.2-3.2.3-4.7s3.2-1.8 4.7-.3c4.3 4.1 8.5 8.3 12.6 12.6 1.7 1.7 1.4 3.6-.4 5.2-1.6 1.4-3.2 1.3-4.7-.1-2-2-4-4.1-6-6.1z"/><path d="M518.4 609.2c-2.4 2-3.6 5 .6 8.7 5.2 4.7 10.1 5.8 13.3 2.3 3.2-3.4 1.7-8.7-3.4-13.8-4.2-4.1-6.6-.8-10.5 2.8z"/><path fill="none" d="M0 0h1000v1000H0z"/><path fill="none" d="M99.8 599.6H500v300H99.8z"/><path d="M202.2 757.4v22.9c-22.5 31.9-44.6 78-50.1 119.2h-31.8c5.6-41.8 31.1-91.9 50.4-116.7h-66.9v-25.4h98.4zM314.5 782.6h-56.9c-.9 7.6-3.4 21.2-4.3 27.1 5.3-4.4 13.4-7.6 25.6-7.6 28 0 43.8 20.2 43.8 47.3 0 27.5-15 52.7-53.4 52.7-28.1 0-48.8-14.4-51.9-39.8h30.8c2.7 9.8 9.6 16.1 21.7 16.1 14.7 0 21.7-10.8 21.7-26.5 0-14.8-5.5-25.4-21.8-25.4-13.2 0-18.6 5.7-21.8 14.2l-27.9-3.6c3.8-18.1 9.9-60.2 12.2-79.8h86.6l-4.4 25.3z"/><path fill="none" d="M600.1 99.9h300v300h-300z"/><path d="M729.1 257.6V151.3c-6.6 3.1-18.6 5.6-25.7 6.2v-23.1c13.5-2.5 27.1-10.1 35.2-19.1h21.8v142.3h-31.3zM789.5 257.6v-2c0-24.7 11.1-44.9 41.9-67.3 20.1-14.7 26.1-19.7 26.1-32.1 0-12.3-6-19.2-17.9-19.2-13.9 0-18.9 8.5-20.9 20.9h-29.8c2-24.5 18.1-45 50.7-45 36.5 0 49 21.7 49 43 0 20.7-8.9 30.7-35.1 49.1-17.5 12.3-24.6 20.4-27 26.8h67.3l-3.8 25.8H789.5z"/><path fill="none" d="M599.6 600.1h300v300h-300z"/><path d="M675.5 900.1v-26.6H622V851l49.4-69.4h28.1v71h14.3l-2.4 20.8h-11.9V900h-24zm0-68.5c0-12.8 0-20 .5-27.4-4.7 9.9-20.1 32.5-31.3 48.5h30.8v-21.1zM722.3 909.3l49.8-135.1h21.4l-49.6 135.1h-21.6zM807.4 900.1v-1.6c0-20.6 9.3-37.4 34.9-56.1 16.7-12.2 21.8-16.4 21.8-26.8 0-10.3-5-16-15-16-11.6 0-15.8 7.1-17.4 17.4h-24.9c1.7-20.4 15.1-37.5 42.3-37.5 30.4 0 40.9 18.1 40.9 35.9 0 17.2-7.4 25.6-29.2 40.9-14.6 10.3-20.5 17-22.5 22.3h56.1l-3.2 21.5h-83.8z"/><path fill="none" d="m304.89 115.808 70.71-70.71 424.26 424.26-70.71 70.71z"/><path d="m450.1 125.1 24.4 24.4c11.9 11.9 13.2 26.4 3 36.7-11.8 11.8-26.3 8.2-37.5-3l-8.8-8.8-18.5 18.6-15.2-15.2 52.6-52.7zm-8.1 38.5 6.3 6.3c4.4 4.4 9.3 5.6 13.7 1.3 4.5-4.5 3.1-9.4-1.2-13.7l-6.3-6.3-12.5 12.4zM455.8 216.6c3.4-.1 33-1.9 38-2l-17.1-17.1 10.3-10.3 33.7 33.7-10.1 10.1c-3.7.3-33.8 2.2-36.8 2.3l18.9 18.9-12.1 8.6-34.4-34.4 9.6-9.8zM574.2 249.2l-52.6 52.6-15.5-15.5 52.6-52.6 15.5 15.5zM545 325.3l34.6-70.6L596 271l-16.1 29.1c-5 9.1-8.6 15.1-13.3 22.2l.2.2c6.5-4.4 12.7-8 22.1-13.1l29.5-16 15.8 15.8-71 34.2-18.2-18.1zM639.5 314.5l39.3 39.3-11.4 11.4-24.2-24.2-10.2 10.2 22.7 22.7-11.5 11.5-22.7-22.7-19.5 19.5-15.1-15.1 52.6-52.6zM631 411.2l1.3-1.3c10.4-10.4 21.9-12.3 38.2-9.6 12.5 2.1 16 2.4 19.7-1.4 3.5-3.5 3.9-6.9.7-10.1-3.9-3.9-7.7-2.5-12.2 1.2L665 376.3c8.4-7.4 22-11.8 36.7 2.9 14.2 14.2 11.4 26.8 3.3 34.9-6.8 6.8-13.4 7.8-28.8 4.6-8.8-1.7-13.5-1.8-16.2-.9l22.2 22.2-12.8 9.3-38.4-38.1z"/></svg>