<?xml version="1.0" encoding="UTF-8" standalone="no"?>
<svg
   xml:space="preserve"
   overflow="visible"
   version="1.2"
   viewBox="0 0 1000 1000"
   id="svg11675"
   sodipodi:docname="c_veh_su_m3.svg"
   inkscape:version="1.2.1 (9c6d41e410, 2022-07-14)"
   xmlns:inkscape="http://www.inkscape.org/namespaces/inkscape"
   xmlns:sodipodi="http://sodipodi.sourceforge.net/DTD/sodipodi-0.dtd"
   xmlns="http://www.w3.org/2000/svg"
   xmlns:svg="http://www.w3.org/2000/svg"><defs
     id="defs11679" /><sodipodi:namedview
     id="namedview11677"
     pagecolor="#ffffff"
     bordercolor="#000000"
     borderopacity="0.25"
     inkscape:showpageshadow="2"
     inkscape:pageopacity="0.0"
     inkscape:pagecheckerboard="0"
     inkscape:deskcolor="#d1d1d1"
     showgrid="false"
     inkscape:zoom="1.027"
     inkscape:cx="499.51315"
     inkscape:cy="499.51315"
     inkscape:window-width="3440"
     inkscape:window-height="1369"
     inkscape:window-x="-8"
     inkscape:window-y="-8"
     inkscape:window-maximized="1"
     inkscape:current-layer="svg11675" /><path
     fill="#FFF"
     d="m597.5 497.8.2 34.7-78.9 79.2-28.7-.3-41.2-31.8 120.6-122.2 28.4 37.2M244.6 121.9 112.9 244.6l336 335 121.3-125.8-325.6-331.9"
     id="path11651" /><path
     fill="none"
     d="M.9 12.6h1000v1000H.9z"
     id="path11653" /><path
     d="m599.5 510.1.3 20.9c0 2.5-1.2 4.4-3 6.1-15.9 15.6-30.3 32.8-46.5 48.1-8.5 8-17.4 15.4-25.3 24.1-1.7 1.9-3.7 2.5-6.2 2.5-8.7 0-17.4-.1-26.1.2-2.8.1-4.8-.7-6.7-2.6-6.2-6.4-12.5-12.8-19-18.9-3-2.9-2.6-5 .2-7.7 5.9-5.6 11.6-11.4 17.3-17.3 1.2-1.3 4.3-2.4 1.6-5-2.3-2.3-3.4.3-4.6 1.4-1.8 1.7-3.7 3-6.2 2.1-3.1-1.1-1.1-4-2.2-7.1-3.3 4.3-6.7 7.7-5.1 12.7 1 3.2.3 5.2-1.7 7.3-1.9 1.9-3.8 3.9-5.8 5.7-.8.7-2.3 1.9-2.8 1.6-5.6-3-12.8-.9-17.6-6.2-3.7-4-7.4-8.1-11.6-11.4-11.2-8.7-19.5-20.3-29.8-29.9-10.5-9.8-20.1-20.5-30.6-30.3-24.9-23.1-48.3-47.7-72.2-71.8-3.3-3.3-6.4-4.8-10.7-3-5.1 2.1-8.5-.1-12.1-3.8-26.1-26.3-52.3-52.4-78.6-78.5-28.2-28-56.5-55.9-84.9-83.6-4.1-4-5-6.8-.2-10.5 1.3-1 3.4-2.9 3.2-3.9-1.5-5.8 3.3-7.2 6.2-10.1 9-8.8 18-17.7 26.8-26.8 5.8-6.1 14.4-8.4 19.5-15.4 1.7-2.4 3.7-4 .8-6.7-1.2-1.2-1.4-2.9-.8-4.3 1.1-2.5.8-4.3-1.2-6.2-2.4-2.3-.5-4.8 1.4-4.7 3.9.2 6.2-2.7 9.4-3.6 1.3-.4 3.1-1.4 3.8-.9 3.9 2.9 7.5-2.8 11.8.1 1.4 1 3.2-2.9 4.8-5.6-3 .2-3.6 3.2-6 3-.4-2.5 1.6-4.2 3.1-4.9 8.5-4 13.6-11.8 20.2-17.8 5.7-5.2 12-10.3 16-16.8 2.6-4.2 5-3.8 8.5-4.5 2.3-.5 4.1-3.3 6.1-5.2 1.8-1.7 3.2-2 5.3.1 14.3 14.2 28.4 28.6 42.8 42.8 12.9 12.8 25.8 25.5 39.2 37.8 6 5.6 11.6 12 17.2 18.1 2.7 3 4.8 3 7.5-.1 3.8-4.2 7.9-8 11.9-12 1.4-1.4 3.1-2.9 5-1.1 1.9 1.8.5 3.5-1 5-4 4-7.8 8.2-12 11.9-2.9 2.6-2.5 4.3.1 6.9 18.1 17.9 35.9 36 54.1 53.7 4.7 4.5 7.2 8.7 4.6 15.1-1.2 3-.6 5.6 2.1 8.3 33.5 33.1 66.9 66.4 100.4 99.7 6.9 6.8 13.3 14.3 21.1 20 9.2 6.7 14.5 16.8 23.3 23.6 5.5 4.2 5 11.4 7.8 17 1.3 2.6-2.4 4-4.1 5.7-3.1 3.2-5.2 8-11.9 5.4-2.3-.9-6.5 2.6-9.8 4.2-.3.2-.6 1.3-.5 1.4.5.5 1.4 1.1 1.9.9 1.8-.5 3.6-1.1 4.3 1.2.6 2-.3 3.8-1.8 5.2-.4.4-.8.9-1.1 1.3-1.2 1.4-3.2 2.6-1.1 4.8 2.2 2.4 3.4 0 4.7-1.2 5.7-5.6 11.6-11 16.7-17 3.8-4.4 6.6-4.1 10.2-.2 5.8 6.2 11.8 12.3 17.9 18.2 3.8 3.8 2.1 8.2 2 12.5-1.9-1.2-1.4-3-1.3-4.7.2-2.3-.3-4.2-2.5-5.4.1-.4.4-.9.3-1-6-7.4-13.2-13.6-19.8-20.4-1.8-1.8-3.1-.3-4.4.9-6.1 6.2-12.3 12.4-18.4 18.6-1.1 1.1-3.3 2.2-1.4 4.2 2.2 2.3 3.4-.2 4.7-1.4 5.1-5 10.2-10 15-15.3 2-2.2 3.2-2.2 5.1-.2 3.9 4.1 7.9 7.9 11.8 12 1.7 1.8 3.4 3 5.9 2.6-2.1 3.5 1.2 7.9-1.9 11.2l-15.6 15.6c3.9 1.6 8.3-.7 11.2 3.1.6.8 1.5 2 2.8 1.4 1.5-.7 1.4-2.2 1.4-3.5.1-5.6.1-11.2.1-16.8 2.3 3.3.6 7.1 1.3 10.5-.6 3.1.5 6.4-1 9.5-1.1 2.4 2.4 2 2.5 3.7 1.4-.2 2.1-1.3 2.1-2.3 0-3.6 1.8-7.5-1.1-10.8 1.8-1.3 1.1-3.3 1.5-5.1.5-2-1.1-4.7 1.4-6.4zM316 350.2c-2.6 3.3-8 2.8-10.2 7.7 5.6-2.9 10.6-5.5 15.7-8.1l6.6-.6c-.4 2-2.1 2-3.5 2.4-3.3.8-8.4 1-9.2 3.8-.8 2.8 3.9 5.1 6.3 7.4 1.4 1.3 2.7 2.1.9 4.1-1.2 1.2-3.8 2.3-1.9 4.7 2.2 2.7 4.6 5.3 8.3 5.9 1.6.3 3.1-1.8 2.5-2.3-2.1-2.1.4-5.7-2.9-7.3-2.9-1.4-2.3-3.5-.3-5.6 3-3.1 5.8-6.3 8.8-9.3 1.5-1.5 1.3-2.2-.8-2.4 4.6-2 8.6.3 12.8 1.4 4.6 1.3 8.5 4.2 12.9 6.1-1.5-1.6-3.3-2.6-4.9-3.9-6.6-4.9-14.9-4.8-22.2-7.7 2.3.1 4.5.1 6.8.3 1.3.1 2.6.1 2.9-1.1.6-2.4-1.7-1.2-2.6-1.8-.6-.4-1.4-.6-2.1-.9.6-.7 1.3-1.4 1.9-2.1 5.3-.3 10.4 3.6 15.8.3 1.7-1 3.6-2.2 3.9-4 .3-1.8-1.7-2.9-3.1-3.9-2.1-1.7-2.9 1-4.3 1.6-1.2.6-1.9 3.4-4 .6-6.9-9.5-16.2-16.6-24-25.2-2.4-2.6-4.2-1.7-6.3.5-7.1 7.4-14.3 14.7-21.5 22.1-1.3 1.3-3.6 2.6-1.8 4.8 1.6 1.8 2.8 5.1 6.4 3.3 1.7-.8 4-1.1 4.9.2 2.8 3.9 5.9 2.1 9.1 1.2 2.6-.7 5.1-2 7.9-1.5.7.8 1.4 1.6 2 2.4-5.5 1.6-11.6 1.6-16.1 5.9 2 2.6 3.7-.3 5.3 1zm183.6 256c-2.3-.1-4.5-.2-6.8-.2-1.1 0-1.7.8-1.6 1.9 0 1 .5 2.3 1.5 2.1 2.6-.6 5.7 1.9 7.8-1.4 2.8 2.9 6.1 1.4 9.3.8 7.5 1.8 13.4.1 19.1-5.8 14.5-15.1 29.8-29.4 44.5-44.2 6.8-6.9 13.2-14.3 20-21.8-4.4-1.4-8.2.5-12.7-1.3 1.7 2.9 5.4 3.7 1.9 7.4-17.5 18.1-34.4 36.8-53.4 53.3-2.2 1.9-4.5 3.6-3.7 7.2.4 1.6-1.9 3.8-2.3 3.2-2.9-4.1-6.8-.2-9.9-1.5 7-2.6 7-2.6 3.8-7.7 4-3.2 4-3.2 6 1.6 1.4-4.7-.4-8.7-3.7-9.2-3.3-.5-.9 3.9-1.8 6-.2.5-.4 1.1-.6 1.6-2.1-2.3.4-5.8-2-8.3l-14 14c1.4.7 2.5 1.3 3.7 1.9-1.8.1-3.5.2-5.1.4zm-92.3-237.3c1.2-.9 2.5-1.6 3.7-2.6 5-4.4 11.3-8 10.3-16.2.3-.6 2.2-1.4.6-1.7-1.6-.3-3.7.8-5.4 1.7-7.9 4.1-12.6 10.9-15.8 18.9-3.5.4-6.2-.9-8.6-3.6-4.2-4.6-8.6-8.9-13.1-13.2-1.2-1.1-2.3-3.9-4.5-1.4-2.1 2.3.4 3.5 1.6 4.7 5.7 5.8 11.4 11.6 17.2 17.2 2 1.9 3.4 4.6 6.7 5.1.7-3.2-1.7-6.4.7-9.1 1.3 1.8-.6 4.3 1.7 6.7-.5-4.2 5.6-2.2 4.9-6.5zm-120.2 48.9c-.7.8-3.6-.4-2.4 1.1 2.1 2.8 4.2 6.1 8.1 7.3.8-5.1-4.5-5.3-5.9-8.4 1.6-.5 1.4-1 .3-2.2l-20.4-20.4c-1.1-1.1-2.3-3.6-4.1-2.1-2 1.8-.5 4.1 1.1 5.4 7.9 6.4 13.1 15.9 23.3 19.3zM113.8 261.3c2 2.5-.6 6.2 2.6 8.5 6.5 4.6 11.2 11.1 17.1 16.4 18.2 16.3 34.6 34.3 52.3 51.1 2.9 2.7 4.4 2.3 7-.1 3.3-3.1.2-4.3-1.3-5.9-13.6-13.7-27.3-27.4-41-41.1L116.3 256c-1 2.1-1.7 3.6-2.4 5.1-.1-2-.1-4.1-.2-6.2-2.4.2-3.4 2-4.7 3.2-1 1-2.7 2.1-1.1 3.7 1.3 1.3 2.4 3.6 4.3 3.4 1.8-.2.8-2.7 1.6-3.9zm149.5-21.4c6.5 7.2 12.8 14.5 20.4 20.6 1.7 1.4 3.4 3.6 5.9 1.1 5-5.1 10-10.2 15.1-15.3 1.7-1.7 1.8-2.9-.1-4.7-6.3-6-12.5-12.2-18.5-18.5-2.3-2.4-3.9-2.2-6.1 0-5.5 5.7-11.1 11.3-16.7 17-1.7-2.8-2.4-7.1-8-5.1 3 1.9 3.2 6.9 8 4.9zm-14.8-112.1c1.3-1 3.8-1.2 1.3-3.9-3.8-4.2-6-3.5-10 3.8 3 .9 6-1.2 9 .1-1.9 2-5 .3-7.2 2.6.5.6.9 1.2 1.4 1.7 19 18.8 38 37.7 57 56.5 5.9 5.8 12.1 11.5 17.9 17.4 2.1 2.1 3.4 2.1 5.7.1 3.4-3 1.7-4.7-.6-6.9-22.6-22.4-45.1-44.8-67.6-67.3-2-2.2-4.3-3.5-6.9-4.1zm-44 40.5c10.4-7.9 18.9-17.8 27.9-27.1 3.9-4 5.8-3.6 9.5.1 29.3 29.4 58.8 58.5 88.2 87.9 2.8 2.8 4.9 3.3 7.6-.1-6.1-6.9-12.6-13.5-20.2-18.9.8.4 1.6.8 3.1 1.6-3.6-3.1-6.4-5.7-9.1-8.6-11.9-12.5-24.3-24.4-36.5-36.6-6.3-6.3-13-12.3-19-18.8-2.1-2.2-6.2-1.5-6.6-3.6-1.1-6.1-6.5-8.3-9.8-12.4-1.8-2.1-3.3-2-5.2 0l-32.7 33c-1.4 1.5-2.6 3.1.8 3.5-2-.7-3.5.7-5.5.9 5.2 6.6 5.2 6.6 10.3 1.4l8.7-8.7c-2.1.8-3.5 2.5-5.1 3.8-1.9 1.4-3.2 4.6-6.4 2.6zm253.8 220.1c-4.8 1.5-5.8 6.5-8.9 9.6-16.7 16.5-33.3 32.9-50 49.5-1.3 1.3-3.4 2.4-3.1 6.4l36.9-36.9c-10.3 12.2-21.6 23.4-32.8 34.6-1.5 1.5-3.3 2.9-.7 5.2 2.2 2 3.4.5 4.8-.9 20.1-20.2 40.2-40.4 60.5-60.5 2.2-2.2 2.9-3.8.7-6.2-2.8-3-4 .1-5.5 1.4-7 6.4-13.7 13.2-19.9 20.5l-1.1-1.1 23.5-23.5c-3 .4-3.8 1.1-4.3 2.1 5.1-5 1.8-9-1.4-13-1.1-1.3-2-2.9-2.7-4.4-1.4-3-2.7-3.5-5.3-.8-19.1 19.5-38.3 38.9-57.5 58.3-9 9.1-8.9 9-.4 18.7 3.4 3.9 5.8 3.1 8.1-.4 2-3.1 4.7-5.5 7.2-8 2.2-2.3 3.9-4.3.4-6.9-1.4-1-2-2.5 0-3.7 6.2-3.8 10.3-9.8 15.5-14.6 1-.9 1.8-2.4 3.2-.8 1.1 1.4-.5 1.8-1.2 2.6-3.8 3.9-7.6 7.7-11.3 11.7-1.1 1.2-3.4 2.4-1.5 4.2 1.9 1.7 3-.8 4-1.8 11.3-11.2 22.5-22.4 33.8-33.7 2.3-3 5.2-5.9 9-7.6zm-2.3 59.2c3.3 3.3 6 7.9 9.9 9.5 6.2 2.6 8.9 6.9 12.4 12.2 4.5 7 11.7 12.3 17.8 18.2 1 1 1.6 2.5 3.7 2 4.5-1.1 6.5 1.1 5.7 5.4-.4 2.4 1 3.2 2.3 4.1 1.5 1.2 2.5-.3 3.4-1.2 3.2-3.1 6.1-6.5 9.5-9.4 3.6-3 4.1-5.6 1.4-9.7-15.8-24.7-31.3-49.7-47.1-74.5-2.1-3.3-3.5-9.2-6.9-9.1-3 .1-6 4.9-8.9 7.8L419 443.1c-1.3 1.3-3.9 4.3-1.2 4.4 7.5.3 8.8 4.7 9.4 10.4 0 .2.3.3.4.4 3.4 3.5 6.3 7.6 10.3 10.2 5.2 3.3 7.4 11.1 15.5 10 1-.1 3.5 2.7 3.3 3.5-1.7 5.3 2.8 7 5.4 9.8 4.1 4.4 8.4 8.6 12.7 12.8 2 2 3.4 4.8 7.6 3.6 1.7-.5 5.6 1.9 4.1 5.8-.7 1.8.2 2.5 1.5 3.1 1.3.6 2.5 1.4 4-.2 4.2-4.5 8.7-8.8 13.1-13.2 1.2-1.2 2.1-2.5.8-4.1-.9-1.1-1.8-2.4-3.8-1.5-4 1.9-6.2-2.5-5.8-3.9 1.5-4.5-1.8-5.9-3.9-8.1-4.7-4.9-9.5-9.7-14.4-14.4-1.9-1.8-3.2-4.5-7.2-3.1-2.2.8-5.4-2.9-4.7-4.5 1.8-4-1.2-5.2-2.9-7.2-2.4-2.8-5.9-5.1-7.2-9.3zM243.1 269.9c-2.3 2.6-6 5.1-6.2 8.3-.3 4.2 5.4 4.8 7.6 7.8 6.9 9.4 15.7 16.9 23.8 25.2 2.7 2.7 5 2.9 7.9-.1 7.1-7.4 14.5-14.6 21.8-21.8 3.2-3.2 4.2-6 .1-9.4-12.1-9.7-19.8-24.3-34.7-30.9-1.9-6.4-8-9-12.1-13.3-5.7-5.9-11.7-11.5-17.3-17.5-2.8-3.1-4.8-2.9-7.4.1-2.8 3.2-5.6 6.6-9 9.1-4.3 3.3-3 5.4.2 8.5 10 9.6 19.6 19.5 29.4 29.3-9.6-7.7-18.2-16.4-26.9-24.9-9.5-9.2-5.8-9.2-16 .3-2.5 2.3-2.6 4 .1 6.6 7.5 7.2 14.7 14.8 22.1 22.2 8 8 8 8 16.6.5zm158.7 231.4c-1.1-3.1-3.7-3.9-5.9-4.7-3-1.2-2.9-3.8-4-5.9-.2-.3-1.1-.6-1.5-.5-3.8 1.3-5.6-.8-6.8-3.9-.7-1.9-2.3-3.2-4-2-1.7 1.1-4.9 2.4-3 5.2 2.1 3.2.5 4.9-1.5 6.9-7.5 7.9-7.5 8 .4 15.4 1.2 1.1 2.1 2.5 4.3 2.5 2.2 0 4.4 2.2 4.5 3.8.2 3.7 2.9 5.3 4.9 7.4 10.9 11.6 23.4 21.5 34 33.4 4.9 5.5 10.2 10.6 15.6 15.6 6.1 5.6 13.9 5.3 19.4.3 4.2-3.8 6.2-8.2 7.8-13.5 1.5-5.2 3-9.3-1.7-13.5-2.1-1.8-1.7-2.2 1.4-2.7 2.5-.4 5.1-1.5 5.6-3.9.4-1.7-1.6-3.6-3.7-3.7-6.1-.2-9.5-6.2-15.5-6.7-1.2-.1-2.1-1.7-2.3-3.1-.2-1.5-1-2.3-2.3-3.1-14.3-8.8-28.6-17.6-42.9-26.5-.9-.5-1.8-1.2-2.6-.5-1.1 1 1.6 1.7-.2 3.7zm153.7-25.2c3.6-4.2 8.4-6.5 9.8-12.3 1-4.3 1.6-7.8-1.8-11.1-3.5-3.4-7.5-6.4-10.2-10.3-5.1-7.5-13.7-10.9-19.2-18.3-7.3-9.8-17.2-17.8-26.4-26.2-1.7-1.5-5.7-1.9-6.2-4.3-1-4.5-4.7-6.4-7.1-9.5-2.6-3.4-4.6-3.5-7.6-.1-2.7 3-4.9 8-10.2 5.7-.2 2.4-.6 4.9-.5 7.4.1 2 2.1 3.4.9 6.3-.9 2.4 4.4 1 5.6 3.7 1.2 2.6 3 4.8 4.6 7.2-2.7 1.2-2.7 2.6-.9 4.8 11.4 14.1 16.5 32.7 31.7 44.3 3.7 2.8 2.3 10 7.4 12.9.8.5.2 1.7-.2 2.6-.8 2.1.9 3.1 2.3 4 2 1.2 2.4-.8 3.5-1.7 1.9-1.7 1.3-4.2 2.4-6.2 9.6 6.2 15 5.5 24-3.3-.1 1.6-2.4 2-1.9 4.4zm-139.6-3 .2-.2c3.2 3.2 6.4 6.2 9.4 9.5 1.1 1.2 4 2.2 1.9 4.6-2.2 2.5-3.7.1-5.2-1.3-6.7-6.6-13.5-13.3-20.1-20-1.7-1.7-3-1.9-4.8-.1-4.3 4.5-8.6 8.9-13 13.3-1.9 1.9-2.4 3 .5 4.7 5.1 2.8 9.8 6.2 14.8 9.3 22.7 14 45.5 28 68.1 42.1 2.9 1.8 5 2.2 7.5-.7 3.3-3.8 7.1-7.2 10.6-10.8 1.1-1.2 3.1-2.3 1.4-4.3-1.1-1.3-2-2.2-4.4-1.4-3.9 1.3-6.2-1.8-5.4-4.9.6-2.7-.2-3.9-1.7-5.4L458 489.8c-1.4-1.4-2.5-2.7-5.4-1.8-3.1 1-5.8-2.2-5.1-4.9.7-2.6-.2-3.5-1.5-4.8-5.3-5.4-10.5-10.9-16.2-15.9-2.3-2-3.8-6.9-8.7-4-.8.5-1.7-1.1-.9-2.5.6-1 .5-1.6-1.1-1.5-2.5 0-2.9-.4-2.1-2.1.9-1.8.1-2.5-.9-3.4-1.2-.9-2.1 0-3 .7-10.8 7.9-10.9 9.6-1.6 19.1l4.4 4.4zm-239.5-283 .2.2c-5.2 5.2-10.3 10.4-15.6 15.6-1.7 1.7-3.9 3-1.5 5.6 2 2.2 4.4 4.9 7.3 2.5 3-2.5 4-.9 5.9 1 7.8 8 15.9 15.8 23.6 24 3.1 3.3 5.3 3.5 8.4.2 7.3-7.7 14.8-15.2 22.2-22.7 2-2 1.9-3.6-.3-5.7-7.5-7.1-14.8-14.4-22.2-21.7-1.1-1.1-2.1-2.7-3.4-3.1-3.7-1.2-3.5-2.4-1.2-5.2 2.9-3.5-.6-5.4-2.7-7.6-2.6-2.8-3.7.1-5 1.3-5.3 5.1-10.5 10.4-15.7 15.6zm130.7 131s0 .1 0 0c5.1-5 10.2-10 15.3-15.1 3.3-3.4 3-8.1-1.2-9.3-5.8-1.6-9.6-5.4-13.4-9.4-2.6-2.8-4.6-1.9-6.7.3-8.8 9-17.6 17.9-26.4 26.8-2.3 2.3-2.7 4.2-.4 6.9 3.6 4.1 7.8 7.7 9.8 13.3 1.5 4.3 5.3 4.3 8.7.9 4.7-4.8 9.5-9.6 14.3-14.4zm-135.4-21c-4.4-4.4-8.7-8.8-13.2-13.2-10.9-10.7-21.7-21.5-32.7-32.1-2.5-2.4-2.4-3.8 0-6 4.7-4.4 9.1-9 13.6-13.5 1-1.1 3.2-2.4 2.2-3.7-3-3.8-.1-5.5 2.1-7.5 2.2-2.1 3.8-5 7-5.8 1.1-.3 2.9 1 2.6-1.5-.1-.5-.3-1.3-.7-1.4-1.4-.5-2 .9-2.7 1.6l-32.1 32.1c-1.1 1.1-2.9 2.7-1.4 3.8 4.6 3.4 6 11 13.6 10.4 1.3-.1 2.5 1.2 1.8 2.3-2.2 3.3 1 4.2 2.4 5.5 16 16 32.1 32.1 48.4 47.9 5 4.8 8.9 11 16.1 13.2 1.1.3 2.5 2 2.4 2.9-.3 2.7 1.6 3.9 3.1 5.2 9.2 8 15.7 19 27.2 24.3 3.1 1.4 1.9 5.1 4 7.1 6.6 6.3 13 12.8 19.4 19.3 1.6 1.7 3.1 2.9 5.2.5 2.2-2.5-.3-3.4-1.5-4.6-6.7-6.8-13.2-13.7-20.3-20.1-2.9-2.7-4.7-8.8-10.9-5.2-.3.2-1.3-.7-1.8-1.2-2.4-2.3-4.7-4.6-7-7-.9-.9-2.5-2-1.2-3.4 2.6-2.7.3-4-1.3-5.6l-44.3-44.3zm214.8 56.5c2.7 2.8 5.6 5.4 8.1 8.3 2.6 3 5 2.1 6.4-.5 4-7.4 9.7-12.8 17-16.9 2.5-1.4 4-3.9.6-6.9-5.7-5.2-11.1-10.8-16.4-16.4-2.3-2.4-4-2.2-6.2.1-5.8 6-11.7 11.9-17.6 17.6-2.5 2.4-2.9 4.1 0 6.6 2.8 2.4 5.4 5.3 8.1 8.1zm-116-36.6c-3.1-3.2-6.2-6.3-9.7-9-2.6-2-4.1-2-6.3.3-5.2 5.5-10.5 10.8-15.8 16.2-2 2-1 3.1.8 4.6 3.9 3.4 7.8 7 11.4 10.7 10.2 10.3 12.1 10.3 21.6-.9 9.7-11.4 9.7-11.4-2-21.9zm66.2-6.1c3.4 3.1 6.9 6.2 10.3 9.3 1.6 1.4 3.3 2.2 5 .1 4.6-5.7 10.7-10 15.3-15.7 2.1-2.6 2-4-.3-6.1-4-3.7-7.7-7.6-11.5-11.4-9.3-9.4-9.3-9.4-18.8 0-11.9 11.9-11.9 11.9 0 23.8zm-173.2-48.3-.2.2-10.2-10.2c-3.5-3.6-7-7.2-10.6-10.8-5.2-5.1-6.7-5-11.1.8-.7.9-1.9 1.9-.9 3 1.2 1.3 2.4.3 3.4-.7 5.8-5.6 8.5.8 11.9 3.4 3.5 2.7 0 4.7-.9 7.2-1.2 3.4-6.1 6.6-2.1 10.7 10.5 10.8 21.3 21.4 32 32.1 1 1 1.8 2.7 3.6.5 2.3-2.8 5-5.4 7.6-7.9 2.4-2.3 2.1-3.9-.2-6.1-7.6-7.3-14.9-14.8-22.3-22.2zM264.8 202l-.2.2c-3.1-3.1-6.4-6.2-9.4-9.5-2.1-2.3-3.5-2.2-5.6 0-4.7 4.9-9.5 9.7-14.4 14.4-1.8 1.7-1.7 3-.2 4.9 5.6 6.9 12 13.1 18.8 18.8 2 1.7 3.5 1.9 5.4-.2 4.6-4.9 9.4-9.7 14.3-14.4 2.2-2.1 2.1-3.6-.1-5.6-3-2.7-5.7-5.7-8.6-8.6zm-76.3 76.3-.1.1c2.9 2.9 5.9 5.6 8.6 8.7 2.2 2.6 3.9 2.4 6.1.1 4.7-4.9 9.4-9.7 14.3-14.5 1.9-1.9 1.2-3.3-.2-5-4.3-5-8.8-9.8-13.7-14.2-7.3-6.5-7.2-6.5-14.2-.1l-3 2.7c-10.2 9.8-10.2 9.8-.3 19.7.9.8 1.7 1.6 2.5 2.5zm30.8 30.4.2-.2c2.9 2.9 6 5.5 8.5 8.7 2.1 2.6 3.9 2.7 6 .5 4.9-4.9 9.9-9.8 14.8-14.6 1.4-1.4.8-2.7-.2-4.1-5.9-7.5-12.5-14.3-20.1-20-1.5-1.1-2.8-1.4-4 .1-4.4 5.4-10.3 9.3-14.5 14.9-2 2.6-1.5 4 .4 5.8 2.9 3 5.9 6 8.9 8.9zm31.5-132.4s0 .1 0 0c5.8 6 11.7 11.9 17.6 17.7 8.6 8.5 8.5 8.3 17-.6 2.4-2.5 2.9-3.7.2-6.3-9.4-9-18.8-17.9-27.6-27.5-4.5-4.9-8.1-5.2-13.1-1.1-1.8 1.5-4.3 3.7-7.3 1.3-5.8-4.5-6.3-6.1-3.4-13.2.5-1.2 1.1-3.1-1.3-2.5-3 .7-4.6 3.5-6.3 5.7-1.6 2.3 1.1 3.3 2.3 4.5 7.4 7.5 14.7 14.7 21.9 22zm-19.6-7c-1.6-2.8-4.9-4.3-6.7-6.9-2.3-3.2-3.8-2.2-5.8-.1-4.7 4.8-9.5 9.6-14.4 14.2-1.9 1.8-1.7 3.1-.2 4.9 5.7 6.9 12 13.1 18.9 18.8 1.4 1.2 2.9 1.8 4.6.2 5-5.1 10.1-10.2 15.1-15.3 1.7-1.7 1.7-2.9-.3-4.7-3.9-3.4-7.4-7.3-11.2-11.1zm49.9 251.9c-.2-.7-.2-1.2-.4-1.4-26.6-26.6-53.3-53.1-79.9-79.6-2.6-2.5-3.6-.2-5.1 1.1-1.9 1.6-2.6 3-.4 5.2 23.9 23.8 47.8 47.6 71.5 71.6 4.2 4.3 8.5 5.4 14.3 3.1zM156.5 246.7c0-.1.1-.1 0 0 3.1 3 6.2 5.8 9 9 2.5 2.8 4.7 2.9 7.2.2 4.6-4.7 9.2-9.3 13.8-14 2.2-2.2.8-3.7-.8-5.3-5.4-5.8-10.7-11.6-16.8-16.7-1.6-1.3-3.4-4.1-5.2-2.2-2.6 2.6-7.1 4.3-7 8.6.2 8.9.4 9-8.1 8.2-1.1-.1-1.9 0-2.4 1-.6 1.2.6 1.6 1.2 2.3 3.1 2.9 6.1 5.9 9.1 8.9zm185.8 135.4c.9 1 1.9 2 2.8 2.9 9.2 9.6 6.6 8.2 15.7.1 13.5-12 12.9-16.2-2.3-26.6-8.6-5.9-8.8-5.9-16.1 1.5l-2.9 2.9c-8.3 8.3-8.3 8.3.3 16.8.9.8 1.7 1.6 2.5 2.4zM336 251.6c-3.9 2.2-3.8 4.2-.8 7.1 12.6 12.3 25 24.9 37.5 37.4 1.2 1.2 2.4 3.9 4.6 2.2 3.6-2.7 6.9-5.9 10.2-9 .1-.1-.6-1.3-1.2-1.8-5-5.1-10-10.1-15.2-15.3-.5 1-.8 1.5-1.1 2-2 3-4 5.8-8.2 5.2-2.8-.4-4.6-2.3-5.4-4.6-1.5-4.1 1.8-5.7 4.4-7.6 1.8-1.3 2.7-2.6.7-4.6-5.1-5-10.2-10.1-15.2-15.2-1.9-1.9-3.8-1.8-4 1-.4 4.6-4.4 5-6.7 7.4-1.7-2 .9-2.6.4-4.2zm229.1 263.6 1.6 1.6c9 8.9 8.6 8.5 18-.4 11.8-11.2 8.8-12.4-.7-21.7-9.4-9.3-9.4-9.4-18.7 0-10.2 10.3-10.2 10.3-.2 20.5zM436.3 365c-1.4-.2-1.8-.4-2-.2-8.3 8.2-16.6 16.3-24.8 24.5-.9.9-1.7 1.9-.6 3 3 2.8.5 4.4-1.3 6.1-9.6 9.6-19.2 19.2-29 28.6-2.1 2.1-2.4 3.6-.2 5.7 2.1 2 3.8 3.1 6.2.3 2.7-3.1 5.7-5.8 8.6-8.7 18.2-18.3 36.5-36.5 54.7-54.8 2.5-2.5-.5-12.4-4-13.3-.3-.1-.9-.1-1.1.1-2.2 2.1-1.4 5.7-4.2 7.8-1.5 1.2.8 2.6 1.8 3.6 2.3 2.4 1.9 3.7-.7 5.9-5 4.2-9.7 8.9-14 13.9-1.9 2.2-2.4 5-5.8 1.9-2.8-2.5-4.4-4.3-.6-7.7 5.8-5 11-10.8 17-16.7zm66.9 212.3c-2.5-2.5-5-4.9-7.4-7.4-1.8-2-3.3-2.1-5.3-.1-4.5 4.6-9 9.1-13.6 13.5-2.1 2.1-2.1 3.7.1 5.8 4.5 4.3 8.8 8.7 13.2 13.1 3.1 3.1 6.1 2.8 9.1 0 1.4-1.3 2.8-2.7 4.1-4.1 10.4-10.4 10.4-10.4-.2-20.8zM316.6 251c-3.8 1.6-17.9 15.2-20.2 18.1-1.5 1.9-.6 3.2.6 4.6 5.6 6.9 12.5 12.7 18.9 18.8 1.9 1.8 3.5 1.7 5.4-.3 4.8-5.1 9.7-10.1 14.7-14.9 2.6-2.5 2.6-4.1-.1-6.5-13.1-11.8-7.8-11.6-19.4.5-4 4.2-6.1 2.3-9 .8-3.5-1.9-3.5-6.8-.9-9.6 3.5-3.8 7.7-6.8 10-11.5zm-65.4 126c1.7-.8 1.2-1.8 1.6-2.3 2-2.6 4.1-5.9 7.8-4.7 2.7.9 5.5 3 6 6.4.5 3.4-1.6 5.5-4.3 6.9-1.1.6-3.7-.5-2.3 2.2.9 1.7 2.6 3.8 5.1 1.5 2-1.8 3.7-4 5.8-5.7 3.2-2.6 2.8-4.6-.1-7.4-11.5-11.2-22.8-22.8-34.3-34-2.2-2.1-3.6-4.1-1.2-8.4l-14.2 14.2c1.6.8 2.5.9 3.6.2 2.6-1.7 5.3-2.6 7.9 0 2.4 2.5 2.2 5.1.3 7.9-1.7 2.6-.4 4.7 1.6 6.7 5.7 5.6 11.3 11.2 16.7 16.5zm156.6-81.4c.1-5.6 2.6-9.5-.9-13.1l-51-51c-1.2-1.2-2.4-2.9-4.3-1-1.4 1.4-3.5 2.6-2 5.3.7 1.3 1.2 2.8 2.3 3.9 18.2 18.2 36.4 36.5 55.9 55.9zm-76.3 117.8c-.7-2.4 1.4-3.7 2.5-5.3.7-1 2.3-1.6 1.1-3.3-1.9-2.8-3.6-5.7-5.4-8.6-1.5-2.4-3-2.5-5-.4-3.6 3.8-7.2 7.6-10.9 11.2-1.9 1.8-1.4 3.3.2 4.9 3.2 3.1 6.4 6.2 9.5 9.3 11.7 12 11.7 12 22.7-.5.3-.3.5-.6.8-.8 1.3-1.3 1.6-2.7.2-4-2.4-2.5-4.3-5.9-7.7-6.8-2.6-.7-3.8 2.8-5.8 4.2-.7.3-1.3.7-2.2.1zm88.2-44.7-.2-.2c4.7-4.7 9.2-9.5 14-13.9 2.5-2.3 3-4.2 1.2-7.4-5.2-9.1-9.9-18.4-14.9-27.6-3.6-6.6-7.3-13.2-11.2-19.7-.7-1.1-1.9-3.6-4-1.3-1.1 1.2-2 2.2-.7 4.4 7.6 13.3 14.4 27 22.4 40 3.5 5.7 2.4 8.8-2.1 13-7.9 7.4-15.3 15.4-22.8 23.2-1.3 1.4-3.1 2.5-.9 4.7 2.3 2.2 3.4.3 4.7-1 4.9-4.6 9.7-9.4 14.5-14.2zm-127.4-9.5-.2-.2c2.2-1.9 4.3-4 6.5-5.8 2.7-2.2 1.6-4.2-.6-5.5-3.8-2.3-6.4-9.8-11.1-6.7-6.6 4.4-11.4 11.3-17 17.1-1.3 1.3-1 2.3.1 3.4 1.5 1.5 3 3.1 4.5 4.6 5.9 5.9 5.9 5.9 11.2-.3 2.1-2.4 4.4-4.4 6.6-6.6zM354.9 465c3.3 2.2 5.6 3.9 8.1 5.4 7.8 4.7 7.8 4.7 14.1-1.7 3.8-3.8 7.7-7.6 11.5-11.5.9-.9 2.1-1.9.9-3.4-.7-.9-1.7-2.1-2.8-.9-4.2 4.2-9.3 7.6-11.3 13.6-.4 1.1.3 2.9-1.3 3.2-2 .3-3.1-1.4-4-2.9-1-1.6.7-2.2 1.6-3.1 3.6-3.2 7.2-6.4 10.6-9.9 1.2-1.3 5-2.6 1.4-5.2-2.7-2-4.7-7.4-9.3-3-6.5 6.2-12.8 12.7-19.5 19.4zm-29.5-83.6c-2.5-6.6-7.7-11.3-13-14.1-3.5-1.8-6.2 5.1-9.5 7.8-1.2 1-2.1 2.3-3.3 3.3-2.3 1.9-2.5 3.6-.3 5.7 3.2 3.1 6.4 6.2 9.4 9.5 2.1 2.2 3.5.9 5.8.1 4.2-1.5-1.2-10.3 6.7-7.9-.1-.4-.1-.7-.3-1.1-1.8-5.4 1.8-3.6 4.5-3.3zm226.3 130.9c-4.5-2.1-7.3-1.9-10.8 1.8-12.9 13.6-26.3 26.7-39.5 40-1.6 1.6-4.1 3.3-1.6 5.7 2.3 2.3 4 .2 5.6-1.6 10.4-11.4 22.1-21.5 32.7-32.7 4.3-4.4 7.8-9.9 13.6-13.2zM343 433.6c-2.1 2.1-3 3.4-6.8 1.2-7.9-4.6-13.4-11.6-19.7-17.6-3.3-3.2-5.6-3.5-8.4.2-.7.9-1.5 1.8-2.4 2.5-3.4 2.6-2.3 3.9 1 5.5 7.9 4 15.7 8.3 23.4 12.7 6.7 3.7 9 3.1 12.9-4.5zm9.6-189.3-3.7-3.7c-3 2.9-2.4 5 .3 7.7 11.5 11.2 22.8 22.7 34.2 34.1 1.4 1.4 2.6 3.8 5.2 1.3 2.5-2.4.2-3.7-1.2-5.1-9.8-9.9-19.7-19.8-29.6-29.6-.9-.9-1.4-2.4-3.2-2.1-3.3.7-3.6-2.2-4.6-4.3.7.5 1.5 1 2.6 1.7zm7.8 72.7-5.7 5.7c-1.2 1.2-1.7 2.2-.6 4 5.6 8.7 9 9.2 16.1 2.2 1.7-1.6 3.2-3.3 5-4.8 2.6-2.1 2.9-3.8.3-6.5-7.3-7.6-7.2-7.7-15.1-.6zm-73.3 95.6c-2.5-7.4-3.7-13.7-2.7-20 1-6.4-3.7-9.3-7.5-11.7-2.7-1.7-4.5 3.2-6.9 4.8-.6.4-1 1.2-1.7 1.6-2.7 2-3 3.8-.3 6.3 6.1 5.8 11.9 11.8 19.1 19zm62.1-130.8.2-.2c6.4 6.4 12.8 12.9 19.4 19.3 1.2 1.1 2.2 3.9 4.6 1.6 2.2-2.2-.1-3.5-1.4-4.7-12.5-12.7-25.1-25.4-37.7-38-1.3-1.3-2.7-4.1-5.1-1.7-2.5 2.5.4 3.8 1.7 5.1 5.9 6.3 12.2 12.4 18.3 18.6zm-207.1-44.9c17.8 19.8 36.3 38.7 56.5 56-17.6-20-36.4-38.7-56.5-56zm181.4-4.4c-7.5 3.9-7.4 3.8-13.7-1.2-1.5-1.2-1.9-2.9-3.1-4.1-8.5-8.1-8.8-8.2-4-18.5 1.8-3.8-.3-5.2-2.5-7.2-2.6-2.3-3.7-.1-5.2 1.4-1.8 1.8-3.5 3.7-5.4 5.3-2.7 2.3-2.7 4.1 0 6.5 7.9 7.4 15.8 14.9 23.3 22.6 3 3.1 5.2 2.9 7.3-.4.9-1.3 3-1.7 3.3-4.4zm98.4 108.7c.3-.2.5-.3.8-.5-.9-2-1.7-4.1-2.8-6-3.8-6.7-7.9-13.2-11.4-20.1-4.6-9.1-4.4-9.2-11.2-2.3-1.9 2-4.1 3.8-1.5 6.6 1.9 2.1 4.7 1.7 7.1 1.2 1-.2 1.6-2 3.2-1.6-2.8 3.6-3 3.8-.8 6 5.5 5.6 11.1 11.1 16.6 16.7zm-201.3-5.4c8.4-7.1 7.8-5.2.9-12.1-5-5.1-10.1-10.2-15.3-15.1-8.7-8.3-8.8-8.3-17.1.5-1.3 1.4-4 2.7-1.5 5.1 1.9 1.9 3.4 5.1 7.1 2.7 2.3-1.5 4.6-2.9 6.9-4.2 2.3-1.2 5.1-2.3 6.8.2 2.9 4.3 6.8 8.2 10.6 11 6 4.2 4.6 7.4 1.6 11.9zm35 20.6c5.7 5.7 11.5 11.5 17.3 17.2 1.2 1.1 2.4 2.9 4.4 1.2 1.9-1.7.7-3.1-.6-4.4-12-11.5-23-24-35.8-34.7-1.4-1.2-3-2.5-4.5-.7-1.4 1.7.6 2.8 1.6 3.8l17.6 17.6zm181.8-29.3c-.4.3-.8.7-1.3 1 5.9 11.4 14.2 21.2 20.8 32.2 1.4 2.3 3.5 1.9 4.6-.1 1.1-2.1 5.7-3.4 2-7-8.7-8.6-17.4-17.4-26.1-26.1zm-73.3 85.7c5.1 5 4.8 4.8 12.3-2 4-3.6 1.4-5.4-1-7.6-7.4-6.8-5.4-8-12.2-1.1-4.9 5-4.8 5 .9 10.7zm123.5 194.9c2-2.7 1.1-4.4-.8-6.3-3.9-3.7-7.5-7.8-11.5-11.4-3-2.7-2.4-4.5.2-7 4.9-4.7 9.5-9.6 14.2-14.5 1-1.1 3.3-2.1 1.1-4.1-1.8-1.5-2.8 0-3.8 1.1-6.2 6.4-12.3 12.8-18.5 19.1-1.4 1.4-1.4 2.5 0 3.9 6.3 6.4 12.7 12.8 19.1 19.2zM377.3 423.8c9.1-9.1 17.7-17.6 26.2-26.3 1.1-1.1 3.4-2.3 1.1-4.7-2.4-2.5-3.7-.6-5.2.9-6.6 6.5-13.2 13.1-19.6 19.7-2.6 2.7-4 5.9-2.5 10.4zm-84.5-10 5.9-5.9c6.7-6.7 6.1-6.2 0-13.4-3.5-4-6.5-1.4-9.3-1.1-2.1.2-.7 3.9-.5 5.9.3 4.8 1 9.5 3.9 14.5zm216.7 108.5c6.8-6.8 13.7-13.6 20.5-20.5 1-1 2.9-2.1 1.4-3.8-1.3-1.4-2.4.1-3.3 1-13.6 13.7-27.2 27.5-40.8 41.2-.9.9-2.2 2.1-.6 3.3 1.3 1 2-.5 2.7-1.2 6.7-6.6 13.4-13.3 20.1-20zm55.7 17.3c-3.2-5.8-8.6-9.1-12.5-13.7-1.8-2.1-3.6-1.4-5.4.4-1.8 1.8-1.2 3.1.2 4.9 3.3 4.3 7.2 7.9 11.4 11.3.5.4 3.8.8.6 2.1-1.6.7-1.7 1.1-.7 2.3 1 1.3 2 1.6 3.3.3 2.1-2.2 4.4-4.4 6.5-6.6.8-.9 1.7-2.4.4-2.8-3.1-1-3.8-4.6-6.7-6.1-1.1 3.6 4 3.8 2.9 7.9zM340.1 215.8l-.1.1-7.8-7.8c-1.5-1.5-3.1-1.7-4.4.1-1 1.4-4.2 2.7-2.5 4.5 5.5 5.6 10 12.3 17.3 16 2.9 1.4 3.9-1 5.1-2.4 1.8-2-.4-3.1-1.5-4.3-1.9-2.2-4.1-4.2-6.1-6.2zm-61.7-3c.4-.4.8-.9 1.3-1.3l-56.2-56.2-1.4 1.4c18.2 19.3 36.9 38 56.3 56.1zM178 185.9c2.2-2.2 4.4-4.3 6.5-6.6 1.8-1.9 1.6-3.4-1.1-4.2-4.7-1.4-8.8-.9-12.8 2.4-4.2 3.4-3.7 8.3-3.9 12.5-.1 2.6 2.6 4.8 5.6 1.6 1.8-2 3.8-3.8 5.7-5.7zm366.9 388.2c4.7-4.7 9.3-9.3 13.9-14 1-1 2.8-2 1.1-3.8-1.6-1.7-2.8-.1-3.8.9-8.9 8.9-17.7 17.8-26.5 26.8-1.1 1.2-3.3 2.5-1.6 4.2 2.1 2.1 3.4-.7 4.6-1.8 4.1-4 8.2-8.2 12.3-12.3zM323.5 459.9c6.2 6.2 12 12.7 18.6 18.3 2.6 2.2 3.8-2.3 5.7-3.6 1.2-.8 3.1-2 .9-4-3.1-2.9-6.3-6.1-10.6-6.5-5.2-.5-10-1.4-14.6-4.2zm210.4 28.9c.3 1.1.3 1.8.6 2.2 11.9 12 23.8 23.9 35.7 35.9.8.8 1.7 2.1 2.8 1.1 1.5-1.4-.1-2.5-.9-3.3-6.4-6.5-12.6-13.1-19.3-19.3-3.6-3.3-6-7.7-11.4-9.5-2.1-.8-3.1-6.1-7.5-7.1zM291.2 382.5c.4.3.9.6 1.3.8 6-6 11.9-12 18-17.9 1.6-1.6 1.3-3-.1-4.5-1.1-1.2-2.2-2.6-3.9-1.1-7.1 6.3-13.8 12.8-15.3 22.7zm187.4 163.7c-.3 6.3 5.4 7.9 8.4 11.8 7.5 10 17.3 18.2 26.1 27.1.8.8 1.8 1.8 2.9.5.7-.8 0-1.8-.7-2.5l-9.3-9.6c-9.1-9-18.2-18.1-27.4-27.3zm47.8-61.1c-1 .3-1.5.4-1.7.6-16.4 16.4-32.9 32.8-49.3 49.2-.8.8-2.7 1.9-1 3.2 1.4 1.1 2.3-.7 3.2-1.6l43.8-44.1c1.9-2 4.2-3.8 5-7.3zm9 16.8c-2.3-1.6-3.1-.8-3.7-.1l-41.4 41.7c-.7.8-2.2 1.6-1 2.8 1.4 1.5 2.4 0 3.3-.9 6.5-6.6 12.8-13.4 19.3-20 7.7-7.8 15.5-15.5 23.5-23.5zM376.8 401.5c.5-1.4.8-2.3 1.1-3.2 1-2.8-.4-12.8-1.9-12.7-3.5.2-4.8 4-7.4 5.8-.5.3-.8.9-1.2 1.3-8.4 8.7-8.4 8.7-17.4.3-.7-.6-1.4-1.2-3.2-2.6 1.5 1.8 2.1 2.5 2.8 3.2 2.3 2.3 4.8 4.5 6.9 7 2.3 2.7 4 2.6 6.5 0 5.6-5.7 5.7-5.5 11.9-.2.4.2.9.5 1.9 1.1zm7.9 66c-2.3 2.4-4.7 4.6-6.9 7.1-1 1.1-3.3 2-1.1 4.1 1.9 1.7 3.5 2.2 5.3 0 4.4-5.2 10.6-8.7 13.6-15.3.6-1.2 2.7-1.4.7-3.3-1.6-1.5-2.8-1.7-4.3 0-2.3 2.5-4.9 4.9-7.3 7.4zm-20.8-82.8-.1-.1-7.8 7.8c-1.5 1.5-1.9 2.7-.1 4.3 1.6 1.3 2.9 1.6 4.4 0 4.6-4.7 9.3-9.3 13.9-14 2.1-2.1.7-4.3-.6-5.6-1.7-1.7-2.6.7-3.5 1.6-2.2 1.8-4.2 4-6.2 6zm-117.5-68 .3.3 6.1-6.1c1.9-1.9.7-3.3-.7-4.9-1.6-1.8-2.8-1.4-4.2.1-3.6 3.8-7.2 7.5-11 11.2-1.7 1.6-1.6 3 0 4.3 1.5 1.2 3 2.6 4.9.4 1.5-1.9 3.1-3.5 4.6-5.3zm279.3 175.9-1.5-1.5c-14.9 15-30.2 29.7-44.4 45.4l1 1c15-14.9 29.9-29.9 44.9-44.9zm-34 56 1.4 1.4c15.3-14.6 30.4-29.4 44.8-44.9l-1.3-1.3c-15 14.9-30 29.9-44.9 44.8zm37-52.8c-.3-.3-.6-.6-.9-1l-44.9 44.9c.3.3.6.6 1 .9 14.9-14.8 29.9-29.8 44.8-44.8zM180.3 250.9c-1.2 2-3.1 3.6-5.1 5.1-1.6 1.2-2.2 2.5-.3 4.2 1.5 1.4 2.6 2.7 4.7.6 3.6-3.8 7.3-7.4 11-11 1.6-1.6 2-3 .2-4.8-2-1.9-3.5-1.8-5.2.2-1.7 1.9-3.5 3.7-5.3 5.7zm338.3 283.5c6.9-6.9 13.4-13.4 19.8-19.9 1.1-1.1 4-2.2 1.7-4.5-2.2-2-3.8-.1-5.3 1.5-4.6 4.6-9.2 9.3-13.9 13.9-2.6 2.4-3.1 5.1-2.3 9zm29.1 27.4-.1-.1c1.9-1.9 4-3.7 5.7-5.8 1-1.3 4.1-2.4 1.9-4.5-1.4-1.4-4-.9-5.7.7-4.4 4.1-8.6 8.3-13 12.5-1.8 1.7-.8 3.1.3 4.5 1.4 1.7 2.6 1 3.9-.2 2.3-2.4 4.6-4.8 7-7.1zm-276.2-332-.1-.1c1.9-1.9 3.7-3.9 5.7-5.7 1.8-1.6 1.2-3-.2-4.4-1.2-1.2-2.3-2-3.9-.4-3.8 3.9-7.6 7.6-11.5 11.4-1.7 1.7-1.1 2.9.3 4.4 1.5 1.5 2.7 1.8 4.3.1 1.8-1.8 3.6-3.5 5.4-5.3zm62 61.7-.1-.1 6.1-6.1c1.5-1.5 1-2.7-.3-3.9-1.1-1-2.1-2.3-3.8-.7-3.8 3.8-7.8 7.5-11.7 11.2-1.6 1.5-1.4 2.9.1 4.5 1.7 1.8 3.1 1.9 4.8.1 1.6-1.8 3.3-3.4 4.9-5zm-92.9-92.2-.3-.3c2-1.8 3.9-3.6 6-5.3 2-1.6 1.2-2.9-.2-4.2-1.3-1.2-2.2-2.7-4.2-.7-3.5 3.6-7.1 7.1-10.7 10.6-1.7 1.6-2 2.9-.2 4.8 2.1 2.1 3.5 1.7 5.2-.3 1.3-1.7 2.9-3.1 4.4-4.6zm109.5 208-4.9-4.9c-1.1-1.1-2.2-2.3-3.9-.7-1.6 1.5-.7 2.7.5 3.9 2.2 2.1 4.4 4.2 6.5 6.5 2 2.3 4.2 4.4 5.9 7 1.2 1.9 4 4.7 6.6 2.4 2.8-2.6-.4-5.6-2-6.5-3.6-2-5.8-5.2-8.7-7.7zm23.8 33.6c-5.2 3.6-8.7 8.4-12.9 12.6-1.6 1.6-2.7 3.2-5.1 1-4.3-4-5.2 1.8-7.6 3-1.8.8-1.5 2.3.3 3.5 2.5 1.5 4.3 4.6 7.7.9 5.4-5.8 11.2-11.2 16.7-16.8.9-.9 2.2-1.8.9-4.2zm-75.6-185.6-.1-.1c-2.1 2.1-4.1 4.1-6.2 6.1-1.7 1.7-.9 3 .5 4.4 1.3 1.3 2.4 1.9 3.9.4 3.8-3.9 7.6-7.7 11.5-11.5 1.9-1.8.7-3.1-.5-4.4-1.5-1.6-2.8-1.7-4.3.2-1.4 1.8-3.1 3.3-4.8 4.9zm-86.8 26.2c-1.7 1.8-3.4 3.7-5.2 5.3-1.6 1.4-2.2 2.4-.4 4.2 1.7 1.8 3.1 1.8 4.8 0 3.6-3.7 7.3-7.4 11-11 1.4-1.4 1.8-2.6.1-4.3-1.7-1.7-3.2-2-4.8-.2-1.9 2-3.7 4-5.5 6zm66.1 66 .1.1 5.7-5.7c1.6-1.6 1.8-3.1-.1-4.8-1.9-1.7-3-.9-4.4.5-3.5 3.6-7 7.3-10.6 10.8-1.5 1.4-2.1 2.6-.5 4.3 1.8 2 3.2 1.6 4.8-.2 1.6-1.8 3.3-3.4 5-5zm97-44.1c5.3-1.7 6.9.8 7.5 4.9 2.4-2.4 4.8-4.7 7.1-7.1 2-2.1 2.5-4.7.5-6.7-2.1-2-4.7-1.4-6.7.6-2.8 2.6-5.3 5.2-8.4 8.3zm-143 23.4c-2-6.5-25.1-29.3-31.3-30.4 10.4 10.9 20.1 20.7 31.3 30.4zm295.6 213.8c-2.1 2.2-4.3 4.4-6.5 6.6-1.4 1.4-3.6 2.6-.9 5 2.5 2.2 3.9.5 5.2-1.2 3.2-4.3 7-8.2 10.9-11.9 1.1-1 1.6-2.1 1.7-3.5.1-1.2.3-2.4-1-3-1.1-.5-1.8.4-2.4 1l-7 7zm38.7 17.7-1.3-1.3-35.7 35.7c13.6-10.2 25-22.7 37-34.4zm-252-111.5c5.8 4.3 10.4 10.2 17.3 12.9 1 .4 3.3 1.7 2.9-.6-.3-1.8 3.3-3.7-.2-5.2-6.4-2.9-12.6-6.5-20-7.1zM297 413.6c2.8 2.9 5.6 4 9.2 3 2.6-.8 4.9-2.2 4.5-4.9-.3-1.8 1.5-4.2-1.9-5.7s-4.5.5-6.2 2.1c-1.8 1.6-3.5 3.4-5.6 5.5zm217 118.8c-5.3 5.3-10.4 10.4-15.5 15.6-1.6 1.6-1 3.3.3 4.6 1.5 1.5 2.3-.4 3.2-1.2 3.7-3.6 7.4-7.3 11-11 1.9-2.2 3.4-4.6 1-8zM391.5 307.7c0 .1.1.1 0 0 2-1.8 3.9-3.7 5.8-5.6 2.1-2.1.4-3.4-1-4.7-.9-.8-2.6-2.6-3.1-.8-1.7 6-7.1 8.9-10.7 13.4-1.1 1.3-1.1 2.3.2 3.4s2.4.8 3.5-.3c1.7-1.8 3.5-3.6 5.3-5.4zm-275-62.5c12.7-10.2 24.1-21.7 34.3-34.3-11.4 11.5-22.8 22.9-34.3 34.3zm167.2-30.3c-.5.5-1 .9-1.5 1.4 9.3 9.7 18.4 19.7 28.8 28.3l1.2-1.2-28.5-28.5zm98.6 113.2.2.2c-2.9 2.9-5.8 5.7-8.6 8.7-.8.8-2 1.7-.8 2.9.7.7 1.9.4 2.6-.3 6.2-5.6 12.3-11.2 17.5-17.8.6-.7 1.1-1.8.2-2.6-1.2-1.1-2.1 0-2.9.8-2.8 2.6-5.5 5.3-8.2 8.1zm.2 77.7 15.3-15.3c1.2-1.2 2.1-2.4.5-3.9-.9-.8-1.9-1.8-3-.8-3.1 3-7.2 5.3-8.4 9.8-.4 1.4.1 3.2-2.1 3.5-3.9.8-2.6 3.8-2.3 6.7zm92.3-30.4c.2-.1.5-.2.7-.3-.5-.5-1.1-1-1.6-1.6-1.9-2.7-6.2-4.1-4.2-9 .5-1.2-.5-5.3-3.8-4.3-3.2.9-5.7 3.6-6.4 6.8-.4 1.8 2.1 1.9 3.6 2.8 4.1 2.3 2.5-1.4 3.4-2.8 2.8 2.9 5.6 5.6 8.3 8.4zm-87.4 71.7c-.3.4-.7.7-1 1.1 11.1 11.8 23.3 22.5 35.3 33.2-11.4-11.5-22.9-22.9-34.3-34.3zm-84.5-57.6c-1.5-1.5-2.9-3.1-4.5-4.5-1-.9-1.8-3.1-3.7-1.7-2 1.5-.4 3.4.6 4.5 3.3 3.8 6.8 7.3 10.2 11 1.2 1.2 2.3 1 3.5-.1 1.3-1.3.7-2.4-.4-3.4-1.9-1.9-3.8-3.8-5.7-5.8zm52.8 18.2 1.3-1.3c-2.5-2.5-4.9-5-7.5-7.4-4-3.9-8-7.8-12.1-11.6-1-.9-2.2-1.9-3.5-.5-1.2 1.4 0 2.5.9 3.5s1.9 2.4 3 2.5c3.8.6 5.7 3.4 8.1 5.9 3.2 3.1 6.1 6.4 9.8 8.9zm-165-117.1c.2-.1.4-.1.6-.2l-50.6-50.6-.4.4 50.4 50.4zM336 246.2c-1-1.5 4-1.2 1.1-4.1-2.2-2.2-3.9-1.7-5.6.2-2.1 2.3-4.1 4.6-6.2 6.8-1.5 1.5-1 2.7.3 3.9.9.8 2.5 1.7 2.8.3.9-4 5.2-4.1 7.6-7.1zm27.9 191.3c-8.5.1-12.2 5.2-16.5 9.3-1.7 1.6-1.4 2.8.1 4.3 1.9 1.8 2.7.1 3.7-.9 3.8-3.8 7.6-7.7 12.7-12.7zM275.7 204l.3-.3-47.2-47.2-.3.3 47.2 47.2zm171.1 148.5c.5-.4.9-.8 1.4-1.2-7.8-11.5-15.7-23-23.5-34.4 6 12.7 14.4 23.9 22.1 35.6zM328.9 231.9c-4.1 1.1-6.1 4.6-8.6 7.3-3.2 3.4-5.4 3.1-8.5-.2-8.7-9.1-17.7-17.8-26.6-26.7 8.8 10.5 18.5 20.2 28.2 29.9 1.6 1.6 3.1 2.2 5 .3 3.4-3.6 7-7.1 10.5-10.6zM218.5 341l.7.7c3.2-3.2 6.4-6.5 9.7-9.7 1.8-1.8 1.3-3.1-.3-4.8-9.8-9.6-19.4-19.4-29.1-29.1.3 1.3 1 2.1 1.8 2.9 8.5 8.5 16.9 17.1 25.5 25.4 2.6 2.5 2.5 4.3-.1 6.6-3 2.5-5.6 5.3-8.2 8zm68.1 27.3c-.7.7-1.5 1.3-2 2.1-.7 1.2-3 1.9-1.7 3.8.8 1.2 2 2.7 3.3 3 2.5.6 2-2.2 2.9-3.5 1.3-1.7 2.3-3.5 3.3-5.4.7-1.2.2-2.3-.8-3-1-.7-1.8-.2-2.5.5l-2.5 2.5zm48.5-10.7c-.1 0-.1 0 0 0-1.7 1.6-3.4 3.2-4.9 4.9-.8.9-2.6 1.9-1.2 3.2 1.1 1 2.6 0 3.6-.9 3.5-3.3 7-6.6 10.4-9.9.7-.7 2.1-1.6.5-2.7-.9-.6-2.1-.9-3.1.2-1.8 1.7-3.6 3.5-5.3 5.2zm187.1 229.1.9-.9-20.2-20.2c-.3.3-.6.6-.8.9 6.7 6.8 13.4 13.5 20.1 20.2zm-87-216.9c-5.5 2.8-9 7.7-13.3 11.6-.8.7-1.1 1.7-.3 2.4.6.5 1.4.5 2.1-.2 4.3-4.2 9.5-7.8 11.5-13.8zm-76.8 109c-1.6-2-.2-7-4.7-5.8-2.7.7-6.1 3.5-6.1 6.9 0 3.9 4.2 2.3 6.1 3.9 1.2-2-2.2-3 0-4.9 1.8-1.5 2.6 1.6 4.7-.1zm211.3 69.8c2-2 4.1-4.1 6.1-6.2.7-.7 1.1-1.6.4-2.6-.7-1-1.6-.8-2.4-.1-4.1 4.1-8.3 8.1-12.4 12.2-1 1-.8 2.2.3 3 .9.7 1.8.4 2.5-.4 1.9-1.8 3.7-3.8 5.5-5.9zM324.1 391.4c-1-.2-1.9-.7-2.4-.5-5.5 2.4-8.7 7.4-12.8 11.4-.6.6-.2 1.4.6 1.9s1.6.2 2.1-.4c4.1-4 9.1-7.2 12.5-12.4zm-110-57c3.2-.4 5.4-.8 6.2-3.6.3-1 .6-2.5-.3-2.3-3.6.7-4.2-.8-4.2-4 0-1.6-1.5-.9-2.6-.4-2.2 1-3 2.7-3.3 5.3 3.8-.6 6.5.1 4.2 5zm158.7-26c-.7-.9-.9-2.4-2.5-1.2-1.4 1.1-1.3 2.2 0 3.3 2.1 2 4.1 4.2 6.2 6.2 1.4 1.4 2.9 3.9 5 1 2-2.7-1-3.7-2.3-4.9-2-1.7-5.6-1-6.4-4.4zm-3.8 40c1.2.8 2.7 3.9 4.7 1.1 1.4-2 1-5.2-.6-7.2-1.3-1.6-3.3-2-5.3.2-2.6 2.6-.9 4 1.2 5.9zm23.6 108.7-1.3-1.3c-5.3 6.5-12.4 11.3-16.3 19 5.8-5.9 11.7-11.8 17.6-17.7zm-80.9-239.3c-4.4.3-4.7.1-5.5-1.7-.4-.9 2.3-2.9-.8-2.7-2 .1-4.1 1.3-4.4 3.3-.6 3.6 7.1 1.7 4.9 6.8.7 0 1.5.1 2.1-.1 2.5-.8 3-2.9 3.7-5.6zm-166.9 35.1c-2.3-.2-6.6 2.1-4.9-3.5.5-1.7-1.2-1.4-2.3-1-2.6 1.1-3.7 3.1-3.4 6.1 2.2-.9 5.1-1.4 4.6 1.8-.6 3.9 1.3 2 2.7 1.8 2.4-.5 2.8-2.6 3.3-5.2zm87.1-121.8c-.2-.2-.4-.3-.7-.5l-30.5 30.5.6.6c10.2-10.3 20.4-20.5 30.6-30.6zm-26.4 193.8c2.8-.3 5.2-1.5 5.5-4.3.3-3.3-2.5-.9-3.7-1.6-1.6-.9-1.1-2-.8-3.4.2-1-.6-1.7-1.8-1.3-1.9.6-3.7 1.1-3.7 3.7 0 .8-1 2.2.7 1.9 4.7-.8 3.4 2.8 3.8 5zm33.8-167.2c3.1.2 4.8-1.3 5.1-4.2.3-3-2.4-.4-3.4-1.5-.8-.9-1.5-1.7-1.3-3 .2-1.6-.1-1.7-1.8-1.4-2.5.5-2.8 2.2-3.5 4-.5 1.3.3 2.1 1.3 1.7 5.6-2.1 2.3 3 3.6 4.4zm76.8 64.5c-2.8 1.1-5.6 1.4-5.8 4.7-.2 3.6 2.7.5 3.7 1.6.5.5.9 1.2 1 1.9.2 1-1.5 3 1 2.9 1.9-.1 3.4-1.3 4-3.6.7-2.5-.9-1.7-2.1-2-2.9-.6-2.3-2.9-1.8-5.5zM295 429.5c3.8 3.8 7.5 7.6 11.3 11.3.7.7 1.5 2.2 2.7.7.8-1 .9-2.3-.3-3-4.8-2.6-8.5-6.7-13.7-9zm71.3-91.4c.3.3.6.5.9.8l14.4-14.4c-.3-.3-.6-.5-.8-.8-4.8 4.7-9.6 9.5-14.5 14.4zM145.6 224.2c-.5.8-1.7 2-2 3.4-.2 1.3-.6 3.5 1.3 4 2.7.6 1.8-1.8 1.9-3.1.2-2.3.9-3.9 3.6-4 1.2 0 2.9.6 3.6-1 .2-.5-.5-1.8-.8-1.8-1.4-.2-3-.3-4.4.1-1.1.2-1.9 1.3-3.2 2.4zm48.9 15.7c.1-.1.3-.1.4-.2l-24.3-24.3-.3.3 24.2 24.2zm-39.2-28.8c-.3 3.6-1 7 .7 10.5 6.8-5.5 6.7-6.4-.7-10.5zm375.4 283.2c1.8.3 2.6 5.4 5.2 2.7 2.3-2.4-2-3.8-3.3-5.7-.5-.8-1.3-1.4-2-2.1-1-.9-2-2.2-3.4-1-1.6 1.4 0 2.3.8 3.3.7.9 1.6 1.7 2.7 2.8zm-51 50.8c1.8.6 2.9 5.2 5.3 3 2.8-2.7-1.7-4-3-5.9-.2-.3-.5-.6-.8-.8-1.5-1.1-2.7-4.4-4.8-2.2-2.3 2.2 1.3 3.3 2.2 4.9.2.2.6.4 1.1 1zM233.2 278.4c0-.2.1-.3.1-.5l-21.8-21.8-.3.3c7.3 7.4 14.7 14.7 22 22zM510 562.7c2.3.4 3.8 5.9 6.1 3.5 2.5-2.6-2.8-4.4-3.9-7.2-.7-1.8-2-1.4-3.2-.2-1.3 1.5-1.1 2.7 1 3.9zm-257.1-327 .4-.4-22.7-22.7-.4.4c7.6 7.5 15.1 15.1 22.7 22.7zM304 427.9c5.1 6.2 10.7 9.2 18.4 10.2-6.8-3.7-12.6-7-18.4-10.2zm-19.5-43.1c3.3-4.3.3-6.1-1.8-8.1-1-1-2.1-1.5-3.4-.3-1.3 1.3-.9 2.3.2 3.3 1.6 1.6 3.2 3.2 5 5.1zm57.9 54c4.7-.4 7.3-1.6 9.8-2.9 1.3-.7 3.2-1.3 1-3.7-1.5-1.6-2.2-2.1-3.8-.4-1.9 2-3.9 3.9-7 7zm182.9 144.5c-2.7-6.5-4-7.9-11.4-11.7 3.6 5.3 7.4 8.6 11.4 11.7zM375.7 368.1l-17.4-17.4c-.4.4-.8.8-1.1 1.2 7 4.5 12.8 10.3 18.5 16.2zm1-9.2-.4.4 19.4 19.4.4-.4-19.4-19.4zm190.1 196.8c4.6-2.3 7.8-5.7 9.6-10.5-4 2.9-7.5 6.1-9.6 10.5zM197.2 244.8l-7.4-7.4c.4 6.6 2 8.2 7.4 7.4zm97.3-46.1c-3.8 2.8-8 5.4-9.6 10.3 4.2-2.5 7.2-6.1 9.6-10.3zm226.7 368.9c-1-1.4-2.1-2.1-3.7-.6-1.4 1.3-1.6 2.5-.2 3.9 1.4 1.3 2.6 2.3 4.4.5 1.5-1.5 1.1-2.7-.5-3.8zm32.9-53.2-.6.6 20 20 .6-.6-20-20zm-249.6-81.5c7.4 6.2 13.1 8.6 19.1 8.1-7.4-1.8-13.2-5.1-19.1-8.1zm-72-102c6.8-5.6 6.8-6.6-.4-10 2.8 3.6 0 6.5.4 10zm74.4-84.7c3 5.3 5.6 5.7 8.6 1.8.4-.5.4-1.4.3-2-.1-.3-1.2-.7-1.4-.6-2.1 2.2-5-.1-7.5.8zM498 562.4c-2.7-6.6-7.2-9.1-11.6-11.6 3.5 3.4 6.9 6.9 11.6 11.6zm18.3-9.4c.4 3.9-1.7 7.6 2.5 10 1.3-3.7 3.8-7.4-2.5-10zm70.2-18.5c-.8-1.8-3.5-.3-3.5-2.6 0-.9 3.2-2.7-.6-2.4-1.6.1-3.7-1.2-4.6 1-.5 1.5 1.3 2.1 2.3 2.9 1.7 1.4 3.6 2.9 6.4 1.1zM371.1 206.7c-4.5 1.8-7 3.9-8.2 8.6 4.5-1.4 7.1-3.5 8.2-8.6zm-185.3 102c3.5-2.9 7.6-5.3 9.6-9.7-4.3 2.1-7.4 5.3-9.6 9.7zm371.5 217.8c-2.3-3.4-5.2-4.9-8.4-5-2.2-.1-5.8 5.9-5.4 8 3-6.2 3-6.2 13.8-3zm-245.8-169c1.2 3.2 1.8 5.6 2.9 7.7.6 1.2 1.8 3 3.5 2 1.7-1.1.6-2.7-.5-3.8-1.7-1.8-3.5-3.4-5.9-5.9zm84.3-69c-1.7-1.5-2.9-.6-4 .6-.9 1.1-3.4 1.9-1.4 4 1 1.1 2.2 1.6 3.3.2 1.2-1.4 2.9-2.6 2.1-4.8zm-175-19.9c.1 5.3 2.2 7.4 7.7 7.7-2.9-3-5-5.1-7.7-7.7zm9.8-58.6 1.1-1.1c-1.1-2.8-2.3-5.6-7.4-5.2 2.5 2.4 4.4 4.4 6.3 6.3zm108.7 186.8c-.9-1-1.9-2.1-3.6-.5-1.4 1.2-1 2.3.1 3.3 1.3 1.2 2.4 2.7 4.3.8 1.3-1.4.5-2.4-.8-3.6zm42.3-26.9c-1.3-1.5-2.3-.7-3.4.3-1.4 1.2-1.6 2.6-.4 4 1.2 1.5 2.3.6 3.4-.4 1.2-1.2 1.9-2.4.4-3.9zM363 348.1c3.5 2.8 7 5.7 10.5 8.5-2.9-3.5-5.1-7.9-10.5-8.5zm142.6 215c1.3 2.9 3.3 5.1 6.3 7 .7-5.5-3.3-5.8-6.3-7zM205 187.2l-.2.2 12.5 12.5.2-.2c-4.1-4.2-8.3-8.4-12.5-12.5zm84.4 81.8c1.2.2 2 3 3.5 1.5s-.4-3-1.6-4.2c-1.1-1.1-2.5-2.6-3.8-1.1-1.3 1.6 1.1 2.4 1.9 3.8z"
     id="path11655" /><path
     d="m339.7 343-12.8.3c-.7-.8-1.4-1.6-2-2.4 5.6-1.5 11.1-1.5 16.7 0-.6.7-1.3 1.4-1.9 2.1zM334.6 346.5c-1.1 1.8-3.8.6-4.7 2.7h-1.8l-6.6.6c-1.8.2-3.6.3-5.4.5v-.1c5.6-3.7 11.9-4.2 18.5-3.7zM437.4 437.1c-3.7-2.5-1.6-4.9.2-6.8 2-2 4.1-1.8 6.5.5 2.6 2.5 1.5 4.9-.2 6.5-1.8 1.7-4.6 3.3-6.5-.2zM443.6 392.1c1.9-2.7 6.4-4.6 7.8-9.1.3-.9 1.2-1.3 2.4-.8 1.5.6.9 2.7 2.7 3.1.5.1-.3 1.6-1 1.7-8.1 1.5-11.4 8.9-16.8 13.8-1 .9-1.3 2.6-2.9 1.3-1.4-1.2-.5-2 .8-3.1 2.2-1.8 4.1-4 7-6.9zM404.5 368c-.5-6.6 4.2-10.2 8.4-13.8 2.4-2.1 5.3-3.6 8.6-4-7 4.6-13.8 9.5-17 17.8z"
     id="path11657" /><path
     fill="none"
     d="M100.6 612.1h300v300h-300z"
     id="path11659" /><path
     fill="#FFF"
     d="M118.4 763.1H180c31.6 0 53.1 17.8 53.1 46.1 0 32.4-24.5 47.2-53.9 47.2h-28.6V912h-32.2V763.1zm32.2 67.7h24.6c14.9 0 25.4-5.7 25.4-20.9 0-15.4-11.1-21.1-24.8-21.1h-25.2v42zM348.2 795.2h-56.9c-.9 7.6-3.4 21.2-4.3 27.1 5.3-4.4 13.4-7.6 25.6-7.6 28 0 43.8 20.2 43.8 47.3 0 27.5-15 52.7-53.4 52.7-28.1 0-48.8-14.4-51.9-39.8h30.8c2.7 9.8 9.6 16.1 21.7 16.1 14.7 0 21.7-10.8 21.7-26.5 0-14.8-5.5-25.4-21.8-25.4-13.2 0-18.6 5.7-21.8 14.2l-27.9-3.6c3.8-18.1 9.9-60.2 12.2-79.8h86.6l-4.4 25.3z"
     id="path11661" /><path
     fill="none"
     d="M601 112.5h300v300H601z"
     id="path11663" /><path
     d="M725.4 270.1V163.8c-6.6 3.1-18.6 5.6-25.7 6.2v-23.1c13.5-2.5 27.1-10.1 35.2-19.1h21.8v142.3h-31.3zM859 162.6c-1.7-7-5.8-13.7-18.2-13.7-19 0-24 17.9-24.8 37 6-7.3 16.1-13.2 32.2-13.2 26 0 44.5 19.2 44.5 47.1 0 30.3-19.4 52.9-52.2 52.9-41.2 0-55-31.8-55-71.9 0-37 13.1-75.4 56.7-75.4 30.9 0 45.3 19.3 46.7 37.2H859zm2.8 59.8c0-13.5-5-25.6-22.1-25.6-13.8 0-21.9 8.1-21.9 24.5 0 11.5 5.5 26.8 22 26.8 15 0 22-11.3 22-25.7z"
     id="path11665" /><path
     fill="none"
     d="m219.018 70.109 70.71-70.71 424.26 424.26-70.71 70.71z"
     id="path11667" /><path
     d="M441.5 227.5c8.2-8.2 19-18.6 25.5-24.6l-.4-.4c-13.5 9.1-32.6 21.2-51.8 32.6l-12.3-12.3c11.8-17.9 24-37 33.7-50.7l-.5-.5c-5.8 6.6-15.7 17.2-24.8 26.2l-16.7 16.7-13.7-13.7 52.6-52.6 22.2 22.2c-8 13.2-20.4 31.7-27 40.6l.3.3c9.8-7.1 27.3-17.6 41.8-25.9L492 207l-52.6 52.6-14.8-14.8 16.9-17.3zM495.3 264.4 483.7 276l-22.5-22.5 11.6-11.6 22.5 22.5zM512.6 259.7c7.1-5.7 19.5-9.8 34 4.7 12.6 12.6 12 25 4.5 32.5-5.9 5.9-12.2 5.3-16.7 3.5l-.3.3c2 4.3 4.4 12.5-3.4 20.4-8 8-21.5 10.7-36.5-4.3-15.9-15.9-10.5-29.1-4.9-35.5l13.9 13.9c-2.4 3.3-3.3 7.4.7 11.5 3.8 3.8 8.1 3 12-.8 4.1-4.1 4.7-8.2-.6-13.5l-4.5-4.5 9.9-9.9 4.2 4.2c4.7 4.7 7.5 4.5 11 1.1 2.9-2.9 3.3-6.2.1-9.5-3.8-3.8-7-2.7-9.9-.6l-13.5-13.5zM665.7 645.7l35.5 66-66-35.5s16.3-6.1 20.3-10.1 10.2-20.4 10.2-20.4z"
     id="path11669" /><path
     fill="none"
     d="M500.6 612.1h399.6v300H500.6z"
     id="path11671" /></svg>
