<svg xmlns="http://www.w3.org/2000/svg" xml:space="preserve" baseProfile="tiny" overflow="visible" version="1.2" viewBox="0 0 1000 1000"><path fill="none" d="M0 0h1000v1000H0z"/><g stroke="#000" stroke-miterlimit="10" stroke-width="3"><path d="M415.9 517.9c.5.2 1 .5 1.6.2 3-1.5 6-2.9 9-4.4 1.1-.5 1.5-1.6 2.2-2.7-.7 2.3 1.5 2.2 2.4 3.1l8.7 8.7c.7.7 1.5 1.4 2.9 2.6-2-2.8-4-4.5-5.9-6.4-1.1-1.1-1.4-1.8-.2-3 2.7-2.6 5.3-5.2 7.9-7.9 1.1-1.2 1.8-.9 2.8.2 1.7 1.9 3.6 3.6 5.5 5.3-2.6-2.6-4.3-5.9-7.7-7.8-.7-.4-.6-3 .6-4.3.7-.8 1.4-1.5 2-2.4-1.8.8-3 2.2-3.5 4.1-.2.6-.3 1.3-1.2 1.3-.2 0-.5-.3-.6-.5-.4-.7.2-1 .6-1.4 4.9-4.6 9.4-9.6 15-13.5 3.2-2.2 5.2-5.5 7.7-8.4 5.2-6.1 10.5-12.1 16.9-16.9 1.8-1.4 3.1-3.3 4.5-5.2 3.2-4.4 7.2-8.1 11.4-12 2.8 4.9 5.5 9.8 8.4 14.6.5.9 0 1.3-.5 1.6-2.3 1.9-3.9 4.4-5 7.2-1.2 3.1-3.1.2-4.7.7.5.3.9.7 1.4 1 .6.4 1.6.5 1.2 1.6-.1.4-.6.8-1 .9-.9.2-1.2-.7-1.6-1.3-.5-.7-.4-1.4.1-2.1-1.4 1-1.5 1.2-.5 2.7.9 1.4 1.5 2.6.4 4.3 1.2-1.1 2-1.3 3.1 0 1.6 1.7 3.6 3 6.2 3.5-.3-3.4-2.4-5.4-4.6-7.4 1.3 2 3.2 3.7 3.7 6.4-2.5-.7-4.1-2.5-5.9-3.9-.4-.3-.6-.8-.2-1.2 3.2-3.5 4-8.6 7.7-11.8.4-.3.7-.6 1.2-1 3.4 5.6 6.9 11.2 10.1 16.8 1.3 2.3 2.5 4.5 5.1 5.5h-.1c-.4-1 .4-2.3-1.7-2.6-1-.1-.6-2.7-1.6-4.1-1.6-2.2-3.7-4.3-4.1-7.3 0-.2-.4-.6-.5-.6-2.7 1.4-2.6-1.4-3.3-2.5-3.5-5.6-7-11.2-10.2-17.9 12.6 12.5 23.8 25.2 36.3 37-.2-1.2-1-1.7-1.6-2.2-10.7-11-21.3-22-32-32.9-1.8-1.8-1.9-2.9-.1-4.6 3.1-2.9 6-5.9 8.9-8.9-1.8-2.7-2.8 3.1-4.5 0-.1 1.1 1.2 1.3.6 2.4-.9.4-1.1-1.1-1.9-1-.9 1.2 1.1 1.6.7 2.8-1.1.2-1.4-1.1-2.3-1.4-.9 1.4 1 1.7.9 2.7-.7.9-1.1-.2-1.8-.2-.7.7 1.4 1.1.2 1.7-2.5-1.1-2.5-1.1-4.5 3.5-.8-4.4-3.2-7.2-5.1-10.2-1.8-2.9-3.1-6.2-6.1-8.4 1.4-.9 1.3.7 2.1.7.2-1.2-.5-1.9-1.3-1.9-3.2.2-1.9-3-3.1-4.3-.7-.8 1.2 0 1.8-.5-1.2-2.2-4.4-1.3-5.6-3.5.8-.4 1.1 1 1.8.2-1-2-2-4.1-4.6-4.6 1.1-1.5 1.6.5 2.4-.7-1-1.5-2.8-1.1-4.1-1.7-1.1-.5-1.9-.9-1.2-2.2-.5-.5-1-1.1-1.8-1.3-.4-.1-1-.4-.8-1 .3-.8.9.5 1.5-.1-.3-.9-1.1-2.1-1.5-2.4-1.3-1-.5-3.5-2-3.5-2 .1-1.9-1.4-2.7-2.3-1 .4-1.6.1-2.3-.9-1.9-2.8-2.5-6.2-4.3-9.2 3.4 1 3.4 1 4.9 4 .3.7.5 1.7 1.2 1.8 2.5.4 3.4 2.4 4.4 4.4 1.2.4 2.5.3 3.5 1.6 2.8 3.7 6.9 6.3 8.6 10.8 1.2 1.2 2.1 2.8 4.5 1.8-2.3-2.5-4.4-5-6.7-7.3-4.4-4.4-8.8-8.7-13-13.3-1.6-1.7-3.4-3.3-4.9-5.1-.5-.6-1.2-1.3-1.9-.4-1.2 1.6-3 2.2-4.5 3.3-.2.2-.5.5-.6.5-3.9-1.3-3.5 2.3-4.4 4.1-.9 1.9-2.7 2.8-4 4.3-2.4 2.8-5.1 5.4-7.6 8.2-.9 1-1.6 1-2.5 0-1.6-1.8-3.6-3.2-4.8-5.5-2.3 2.3-4.9 4.9-7.5 7.4-.6.6-.8 1.2-.1 1.7 1.9 1.4 2.4 4.1 4.8 5.1.7.3.7.7.2 1.3-1.4 1.6-2.8 3.1-4.2 4.7-.9 1-1.4-.9-2.5 0-.5.5 1.2.8.4 1.7-1.9-2.2-3.3-4.9-5.6-6.5-.2 2.2-1.3 3.7-4.6 3.5 2.4 1.5 3 3.7 5 4.5-2.2-.4-3.7-2.1-5.6-3.3-.1.2-.3.5-.4.7 2 1.3 3.9 2.6 5.9 3.9 1.4.9 1.6 1.6.3 2.8-1.1.9-2 2.1-3.1 3-1.6 1.5-2.9 4.4-4.7 4.2-1.7-.2-3-2.9-4.7-4.4-1.3-1.1-.9-1.8.1-2.8 1.7-1.6 3.4-3.4 5-5.2-2.5 1.6-4.4 3.9-6.5 5.9-1 .9-.7 1.5.2 2.3 1.8 1.7 3.6 3.5 5.1 5.5-2.2-1-3.4-3-5.1-4.6-.5-.5-.9-1-1.4-1.4-.3-.2-.6.2-.9.5-.5.7.2.5.4.7 1.6 1.5 3.1 3.1 4.7 4.6.7.7 1.4 1.2.3 2.3-1.1 1.2-1.6.4-2.3-.2l-4.3-4.3c-.3-.3-.4-1.1-1-.5-.5.5-.2.9.3 1.4 7.7 6.4 6.3 4.1.9 10.4-1.6 1.9-3.5 3.5-5.1 5.4-1.2 1.4-2.7 2.5-4.6 2.3-2.3-.2-1.1 2.7-2.8 2.8 1.9.7 2.2-1.9 3.9-2-2.7 5.1-2.7 5.2-5.6 5.5 1.5-.6 1-1.7.8-2.6-.4-1.4.6-.7 1.1-.8-1.5-.9-2.4-1.8-2 1.2.2 1.9.4 4.6-1.9 6.3-1.9 1.4-1.5 2.9.2 4.4 4.5 4.4 8.9 8.9 13.4 13.3.4.4.6 1.3 2 .8-1.8-1.2-1.4-4-4.2-4.1-.2 0-2.5-.7-1-2.2-4.5-2.5-7.2-6.7-10.8-10.1.9 0 1.6 1.1 2.4 0 .9-1 .1-2.1-.2-3.2 2 0 1.2 1.5 1.7 2.2 1.4 1.9.5-1.7 1.5-.7.1.1.2.1.2.2.1 1.6 2.1 1.5 2.4 2.9.9-.1 2.1.3 2.3.8 1.1 3.8 4.1 5.7 7 7.9 1.7 1.2 4.4 1 5.1 3.6 1.5-1.3 2 .1 2.4 1 .3.6.6 1.2 1.2 1.5 1.5.6 3.9 3.4 4.2 4.8.1.6 3.2 2.3 3.6 1.9.3-.3-.8-.8 0-1 .6-.2.9.5 1.2 1 .3.5.9 1.2 1.4 1.4 3.1.9 4.6 3.6 6.9 5.4 4.7 2.4 6.7 4.5 7.1 7.7-.7-.7-.9-1.9-2.1-1.5-.3.9 1.4 1.2.5 1.9-1 .8-1.4-.4-1.8-1.1-.1-.2-.4-.4-.6-.6-.8 2.9-1.6-1-2.1-.3-.7.9-.4 1.2 0 1.5.9.8.9 2.6.4 2.6-1.6 0-3.3 2.9-4.4.6-1.3-2.5-4.4-2.9-5.6-5.7-.9-2-3.2-3.7-5.3-4.9-1.7-1-2-3.3-3.4-3.9-3-1.1-3.8-4.4-6.5-5.6.1-.1.2-.3.3-.4-.9-1.2-2.6-1.1-3.8-2l13.8 13.8c2.7 2.7 5.3 5.4 8.1 8 1.7 1.7 1.9 2.9-.5 4.1-1.7.8-3.3 1.8-4.9 2.6-1.1-.9.5-1.9-.3-2.8-2.5.6-3.9 3.1-6.2 4.1 2.1.2 3.2-1.8 5.2-2.3-.6 2.1-2.7 2.1-3.6 3.3zm17.7-5.5c-.4 1.6.5 2.5 2 3-1.7 1.1-2.4.1-2.9-.9-.3-.6-.5-1.2-1.1-1.5-2.6-1.3-.8-1.7.5-2.2.9-.9 1.8-2 2.6.1.5 1.3 1.5.5 2.2.2-1.1-.1-2.2-.8-1.8-1.6.4-1 1.4-2.3 3-1.9.7-1.9 2-.5 3-.5.4 0 .6.9 1.1.4 1.2-1.1 1.1-1.1 2.1-.9-1.1 1.1-2.3 2.1-3.2 3.2-1 1.3-1.5.3-2.2-.3-.8.8 1.2 1.4.3 2.1-1 .8-1.3-1-2.2-.7-.1 0-.1.1-.2.2.3.9 1.9 1.7.2 2.9-1 .7-1.7.5-2.4-.1-.5-.2-.7-.9-1-1.5zm12-105.3 10.5-10.5c2-2 4.8-2.3 6.3-.6 3.5 4.2 7.1 8.4 10.3 12.9 8 11.2 15.7 22.6 23.7 33.9 1.2 1.8 1.1 2.7-.3 4-12.9 13.1-25.7 26.3-38.6 39.5l-15.6 16.2c-.6.6-1.1 1.7-2.3.7-3.2-2.5-6.6-4.8-9.7-7.4-6.3-5.2-12.9-10.1-19.1-15.5-5.1-4.4-10.5-8.6-15.7-12.8-1-.9-1.2-1.8-1.2-3.4 0-3.3 2-5.3 3.9-7.3 16-16.7 32.1-33.4 47.8-49.7zm-8.1.7c.7.8 1.1 1.2 1.4 1.7.7.9 2.3 1.4.6 3-1.7 1.6-2.3.1-3.2-.7-1.2-1.1-2.2-2.3-3.1-3.6-1-1.3.1-1.6.6-2.3.8-.9 1.4-.6 2 .2.6.8 1.3 1.4 1.7 1.7zm-16.6 15.1c.6-.4 1.1-1.9 2.1-.6 1 1.4-.9 1.8-1.3 2.7-.3.7-1.1 1.3-1.8.5-1-1.2.2-1.8 1-2.6zm13.9-9.3c-.1-.8-2.1-.7-.9-2.1.8-.9 1.2.1 1.5.5.5.9 2.8 1.3 1.6 2.7-1 1.2-1.1-1.1-2.2-1.1z"/><path d="M311.7 314c2.5-.5 3.2-3.1 5-4.4 3.2-2.3 4.9-6.3 8.3-8.2 3.1-1.7 5.1-4.6 7.3-6.9 4.1-4.3 8.2-8.7 12.6-12.9 5-4.7 9.3-10.2 14.5-14.6.7-.6.9-2.3 2.6-1.3.4.2.6-.7-.2-1.4-1-.8-2.6-1.2-2.7-3.4l21.4 21.4c-2.5-.9-3-3.2-4.8-4l-.6.6 23.4 23.4c-4.3-5.6-9.6-9.5-13.7-14.5.2-.2.4-.3.6-.5l24.8 24.8c-2.8-.1-3.3-2.7-5.7-3.6 4.5 4.5 8.5 8.7 12.7 12.6 6.3 5.9 12.3 12.2 18 18.8 1.3 1.4 2.5 3 4 4.1 2.3 1.7 1.5 3 0 4.5-4.2 4.1-8.3 8.3-12.4 12.4-.9.9-1.8 1.9-2.3 3.1 5-5 10.2-10 15.1-15.2 1.9-2.1 2.9-1.7 4.6.1 4.8 5 9.8 10 14.8 14.8 2.4 2.3 5.5 3.9 6.8 7.2-.2 0-.4.2-.5.1-1.4-.9-2.5-3.5-3.8-2.9-2 .9-3.6 3.1-5.1 4.9-.9 1.1.4 1.8 1 2.2 2.4 1.7 1.7 3 0 4.7-13.5 13.4-27.1 26.6-40.2 40.5-9.3 9.9-19.2 19.2-28.4 29.1-4.6 4.9-9.1 9.8-13.8 14.5-.6.6-1.6 1.3-.4 2.3h-.1c.7-2 2.2-3.3 3.7-4.7 12.1-12.1 23.8-24.5 35.7-36.7 7.8-8 15.3-16.5 23.7-23.9 7.1-6.2 13.3-13.4 20.2-19.7 3.5-3.2 6-7.4 10-10.2 1.3-.9 1-2.1 0-2.9-7.1-6-13.1-13.3-19.9-19.7-6.6-6.2-12.4-13.1-19.3-19-.2-.2-.4-.3-1.1 0l35.1 35.1c-.2.2-.4.4-.5.6-1.9-1.6-4.2-2.8-5.6-4.7-3-4.2-7.3-6.9-10.7-10.5-5.8-6.1-11.7-12.2-17.4-18.3-.8-.9-2.8-1.6-1.5-3.6.1-.1-.7-1.1-.8-1-1.9.8-1.4-2.8-3.3-1.8-.8-4-4.5-5.9-6.9-8.5-6-6.4-12.2-12.4-18.4-18.6-4.3-4.3-8.5-8.8-13.1-12.7-2.4-2.1-4.2-4.7-6.5-6.9-2.6-2.4-4.9-5.1-7.3-7.6-2.4-2.4-4.9-4.7-7.4-7.1-2.5-2.4-4.9-4.9-7.4-7.4-.4.7-.2 2.6-1.7.8-1.2-1.4-2.3-2.9-4.3-4 1.6 2.9 4.3 4.4 6.1 6.6l4.3 4.6c.2 1.1-.8 1.5-1.3 2-15 15.1-30 30.1-44.9 45.1-1 .7-2 1.3-2.3 2.4zm149.5 54.9c.3.1.5.3.8.4-1.2.7-2 2-1 2.8 1.2 1 1.2-.8 1.8-1.4.3-.3.7-.2 1.1.1-1.2 1.5-2.3 3-3.5 4.4-.6.7-1.5.9-2.2.1-.4-.4-1.4-.8-.9-1.5 1.2-1.7 2.6-3.3 3.9-4.9zm-40.1-45.7c-3.6-1.9-7.8-6-8.6-8.6 3.1 3 5.8 5.8 8.6 8.6zM531.8 502.1c2.8 5.6 6.8 10.3 11 14.8 2.7 2.9 5.2 5.9 8 8.5 1.2 1.1-.1 1.6-.1 1.5.5 1.7 2-1.9 1.6 1.2-.1 1 .7 1.3 1.2 1.8.5.4.8.9.2 1.4-.5.5-1 .1-1.5-.2-1-.6-1.2-2-2.5-2.3 0 1.5 1.4 2 2.1 2.9.9 1.1 0 1.5-.6 2.1-7 7.1-14.1 14.1-21.1 21.2-1.4 1.4-2 .5-3-.3-1.2-1.1-.8-1.7.2-2.7 6.6-6.5 13.1-13.1 19.7-19.7.5-.5 1.1-.8 1.1-1.8-4.6 4.6-9 9-13.5 13.4-3.4 3.4-7 6.8-10.3 10.4-1.6 1.7-2.5 1.3-3.9-.1-2.1-2-3.8-4.6-6.9-5.8.1 2 .8 3.1 2.6 3.5.7.2 1.4.3 2 .8 1.9 1.6 2.8 2.8.4 4.9-3.1 2.7-5.9 5.8-8.7 8.7-.7.7-1.3 1.1-2.1.2-1.1-1.2.5-1.2.8-1.4 1.5-.9.7-2.8 2.2-3.9 1.1-.8 1.4-2.4 3.3-2.7 1.4-.2 1.3-2.2 1.7-3.3.4-1.1-.9-1.2-1.6-1.5-1.7-.7-2.8-2.6-4.9-2.4.5.4 1.1.8 1.6 1.1 2 1.1 3.4 2.1.7 4.1-1.4 1-2.5 2.4-3.7 3.6-.8.9-1.1.7-1.8-.3-1.5-2-2-4.5-3-6.7-.3 2.3.5 4.3 1.8 6.1 1.1 1.5 2.3 3.1.4 5-1.5-.6-2.2-2.3-3.8-2.9 1.7 1.7 3.5 3.5 5.2 5.3.5.5 1.6 1 .7 2.1-1.9 2.3-4.8 3.7-5.7 6.9-.2.5-1.4.8-2.2 1.2 2.7.2 4.1-.8 10.5-7.5-1.8.3-2.5 1.6-3.5 2.5-1 .9-1.9 1.9-2.9 2.9l-.5-.5 18-18c.2.2.4.4.6.5l-11.1 11.1c4.4-2.9 7.7-7 11.7-10.5.7 3.4.1 6-2.6 8.3-4.1 3.6-7.8 7.7-11.7 11.5-1.3 1.2-1.2 1.9 0 3.2 4.9 5 4.9 5.1 9.9.1 20.3-20.3 40.6-40.6 61-60.9 2-2 2-3.1 0-5-4.2-4-4.1-4.1-8.3.1-2.7 2.7-5.6 5.3-8.1 8.2-2.5 2.9-5.3 4.7-10.1 3.5l12.2-12.2c2.7-2.7 5.3-5.5 7.8-8.4 2.3-2.8 2.5-5.4.1-8.1-.6-.7-1.3-1.3-2.2-2.3-.2 1.4.5 1.7 1.1 2.3 2.7 2.3 2.8 5.3.3 7.8-.9 1-1.9 1.9-2.8 2.9-.6.6-1 1.6-2.3.6-1-.7-1.6.7-2.2 1.3-1.1 1.3-1.9 1.2-3 0-1.7-1.8-3.5-3.5-5.6-4.8 1.7 1.7 3.4 3.6 5.3 5.2 1.2 1.1 1.1 1.9-.1 3-2.3 2.2-4.6 4.5-6.4 7.2 3.2-3.2 6.4-6.5 9.7-9.7.6-.6 1.2-2.1 2.1-1.2.9.8-.3 1.7-.9 2.3-4.4 4.5-8.9 8.9-13.5 13.5-.9-2.2 2.1-2.5 1.9-4.2-1 0-1.2.9-1.7 1.3-1.8 1.8-2.7 1.8-3.4-.6-.7-2.1-1.2-4.1-4.1-3.6-.2 0-.6-.4-.8-.7-3.5-4.1-7.2-8.1-10.2-12.7-.6-.9-.1-2.2-1.1-2.8 0-.4-.4-.4-.7-.3zm-6.6 58.7c0-.3-.1-.5-.1-.8-.5-.4-1-.8-.4-1.4 1.4-1.2 2-2.1-.2-2.9-.5-.2-.3-.4-.2-.6.3-.3.8-1 1-.9 1.2.4 2.8 2.1 2.5 2.3-1.8 1.9.4 2.4 1 3.3 1.6 2.3 1.1 4-1.3 4.3.6.4 1.1.9 2 .3 1.7-1.2 1.9-2.9.1-4.5-1.6-1.4-1.6-2.3-.1-3.8 7.8-7.6 15.5-15.4 23.2-23.1 1.4-1.4 2.1-1.5 3.5 0 2.1 2.2 3.9 1.8 5.3-.9 1.2-2.3.7-4.3-1.8-6l11.4-11.4c3.4-3.4 3.3-3.3 6.8-.1 2.2 2 1.7 3-.1 4.9-20.2 20.1-40.4 40.3-60.6 60.5-4.2 4.2-4.1 4.1-8.3-.2-1.1-1.2-1.2-1.8 0-3 4.1-4 8.1-8.1 12.2-12.2.7-.7 1.3-2.1 2.3.1.5 1.2 1.9 1.1 2.6-.4-.5-1.1-1.3-2.1-.8-3.5zm29.9-32.5c1.2 2.4 3.4 3.1 5.6 4-.4.6-.5 1.2-1.7 1-1.8-.3-2.8-1.5-4.1-2.5-1.4-1.1-.6-2.7-.3-3.2.9-1.3 2.7-.7 4-.5 1.1.2.5 1.4.6 2.3-1.5-.2-2.3-1.5-4.1-1.1zm-46.7 33.5-.6-.6c2.4-2.2 4.2-5 7.4-6.3-2.2 2.3-4.5 4.6-6.8 6.9zM199.5 300.8c.3-.2.6-.4.8-.7 1-1.3 1.8-2 2.5.3.5 1.5 1.5 2.9 3 3.7.3-.9-.5-1.1-.8-1.6-2.7-3.9-2.6-4.8.7-8.2 9.8-9.8 19.5-19.6 29.3-29.3 10.9-10.9 21.8-21.7 32.7-32.6 9.4-9.4 18.7-18.8 28.1-28.2 2.6-2.7 3.2-2.4 5.7.2 2.3 2.3 5.2 3.9 7.4 6.4.8 1 2 1.7 2.9 3.7l-6.9-6.9-.6.6 9.7 9.7c1.5 1.5 2.8 3.1 4.4 4.4 1.4 1.2 1.2 1.9 0 3.1-6.7 6.7-13.4 13.5-20.1 20.3l-2.8 2.8c1.7.3 2.5-.9 3.2-1.7 6.5-6.8 12.9-13.7 19.6-20.4 1.5-1.5 2.7-3.1 4.8-.7l-7-7 .5-.5 5 5c0-2-1.4-2.3-2.2-3.1-5.9-5.9-12-11.8-17.9-17.8-1.7-1.7-2.9-2.1-4.5-.1-.8 1-1.6 1.7-3.4 1.6-2-.1-3.8 2.4-4.8 4.4-.5 1-1.2 1.9-2 2.7-5.7 5.8-11.5 11.5-17.2 17.3-1.4 1.5-3.4 2.1-4.7 3.7-8.3 10.2-18.3 18.9-27.4 28.3-1 1-2.2 1.7-3.3 2.5-1.9 1.3-3.9 2.6-3.9 5.9 0 1.7-2.7 3.9-4.9 4.7-.9.3-1.6.7-2.2 1.3-4.2 4.1-8.3 8.2-12.4 12.3-1.1 1.1-2.4 1.9-3.5 2.9-1.6 1.5-4.4 2.4-3.7 5.6.1.6-1.4 1.4-2 2.3-.8 1.1-2.4 1.4-2.1 3.1zm88.9-90.5.2.2-20.3 20.3-.2-.2c6.7-6.8 13.5-13.5 20.3-20.3zm-64.7 65-9.9 9.9c2.9-3.7 6.3-6.8 9.9-9.9zm38.9-39.2.2.2-9.2 9.2-.2-.2 9.2-9.2z"/><path d="M374.5 466.3c-.5-.2-1.2-.7-1.6-.1-1.4 1.9-2.7 2.1-4.3.1-.6-.7-.9 0-1.3.4-1.1 1 1 .9.5 1.9-1-.6-2.8-.6-1.3-2.5.3-.4.4-.8-.1-1.2-4.7-4.7-8.7-10.2-14-14.6 1.2 3 3.3 5.1 5.6 6.9 2.3 1.9 3.7 4.8 6.3 6.3.6.3 1.3 1.2.6 1.9-.8.7-1.3-.3-1.8-.8-1.7-1.7-3.5-3.5-5.7-4.8 3.8 3.8 7.5 7.6 11.4 11.3 1.3 1.2 2.9 1.7 4.4-.3.9-1.3 2.9-1.8 2.9-3.8 0-.1.2-.3.4-.4 4.8-2.3 6.2-3.4 10.7-8.8 1-1.2 2-2.3 3-3.4.7-.8 1.8-1.4.6-2.6-.7-.7 0-1.2.4-1.6 1-1 2-2 2.8-3.2-6.1 6-12.6 11.7-18.1 18.2-.4.5-.6 1.3-1.4 1.2-.1-.1 0-.1 0-.1zm9.7-6.8c-1.7 1.9-3.5 3.8-5.2 5.7-.5.6-.9 1.3-1.8.6-1.1-.8 0-1.4.4-1.8 3.6-3.8 7.3-7.5 10.9-11.3.4-.4.8-1.3 1.6-.6.8.8.1 1.4-.5 1.9-1.7 1.9-3.5 3.7-5.4 5.5zM535.7 461l33.9 33.9c.1-.1.2-.1.3-.2-1.9-1.9-3.6-3.8-5.6-5.6-3.6-3.2-6.3-6.9-8.1-11.3-.2-.5-.7-.7-.3-1.4 1.4-2.4.6-4.7-1.6-6.2-2-1.4-3.9-2.1-6-.4-2.4-2.1-6-2.2-8.1-4.8-1.3-1.5-2.8-2.8-4.2-4.2-.1.1-.2.2-.3.2zm13 11.1c.4-.9.5-2.4 1.9-1.1 1.4 1.3 2.7 2.6 4 4.1 1.1 1.2.7 1.8-.9 1.7-.1 0-.2-.1-.2-.2v.3c.5 1.2 2.3 1.5 2.3 3.3l-10.9-10.9c2.3-.1 2.1 2.5 3.8 2.8zM302.9 399.8l5.8 5.8c-3.1-2.7-.3-4.2 1.3-5.7 20.9-21.6 42.1-42.9 63.3-64.1.5-.5.9-1 1-1.8l-11.7 11.7c-18.3 18.3-36.6 36.7-54.8 55.1-1.3 1.3-2 1.3-3 0-.4-.5-.9-.9-1.4-1.4-.3 0-.4.2-.5.4zM213.9 310.8c.3 1.5-1.1 3 .4 4.1-1 .6-1.2-.5-2-.6l27.2 27.2.5-.5c-8.2-7.3-15.3-15.7-23.8-23.5 1.6-.1 2.8-.2 4.1-.3-2.2-2.1-4.3-4.2-6.4-6.4zM476.7 508.5c-.6-2-1.8-3.5-3.3-4.8-1.1-1-.9-1.6.1-2.5 1.5-1.5 3.6-2.2 4.9-4.4-1 .6-1.7.9-2.3 1.4-2.6 2.1-4.9 5.4-9.2 1.5 2.3 3.7.8 5.4-2 6.9-1.4.7-2.7 2-3.4 3.4-1.6 2.9-3.3 4-6 1.3-.2-.2-.9-.4-1.3.5 3.8 2.2 7.6 4.4 11.8 6.8-1-1.9-2.6-2.3-3.9-3-1.7-1-2.3-1.7-1-3.8 1.8-2.8 4.1-4.7 6.8-6.4.9-.6 1.5-.5 2.3.5 1.5 1.8 3.3 3.3 5.8 3.4-1.6-1-3.3-1.9-4.6-3.4-.5-.6-1.6-1-.6-2.1.9-.9 1.5-.3 2.2.3 1.5 1.2 2 3.3 3.7 4.4zM266.9 362.8c-.3-1.5.3-2.4 1.3-3.2 3.4-2.9 6.5-6.1 8.9-10.2-3.7 2.8-6.3 6.3-9.2 9.6-1.6 1.8-2.7 2-4.1 0-1.1-1.7-1.1 0-1.4.5-1-.1-.4-1.1-.8-1.6-.5-.5-.1-1.8-1.1-1.7-1.5.2-.4.8-.1 1.3-1.3-.4-2.7 1.1-4-.3-3.2-3.3-6.4-6.5-10-9.4l18.2 18.2c-.3-1.6-1.8-1.9-2.3-3-.3-.7-2-1.1-.6-2.2.9-.7 1.9-1.7 3.1-.1.5.7 1.3 1.4 2.1 2.1zM287.9 256.7c-12.3 12.2-24.3 24.7-36.4 37.1 12.5-12 24.9-24.1 36.4-37.1zM240.2 337.4c.7-1.3-.7-1.7-1.2-2.2-4-4.1-8-8.2-12.1-12.2-1.7-1.6-1.7-2.7.1-4.4 5.4-5.2 10.5-10.7 16-15.8 2.5-2.3 4.4-5.1 6.7-7.6l-8.9 8.9c-5.1 5.1-10.1 10.1-15.3 15.1-1.3 1.2-1.5 2-.1 3.3 3.4 3.1 6.8 6.2 9.9 9.6 1.1 1.2 2.7 2.1 2.5 4.4-.2 1.5 1.8-.3 2.4.9zM366.9 422.9c-6.7 5.6-12.1 12.6-18.3 18.7-1.5 1.5-2.3 1.6-3.8 0-3.7-3.9-7.6-7.7-11.9-11l17 17c0-.5.1-.7 0-.8-2.7-3-2.7-3 .2-6 4.5-4.6 9.1-9.1 13.7-13.6 1.2-1.2 1.6-3.1 3.1-4.3zM470.4 554.4c-.2 3.1 3.4 2.2 3.8 4.6-2.8-.5-4-2.8-5.8-4.3-.4-.3-.2-1.6-1.2-1-.6.3-.9 1-.9 1.7 0 1.7 3.9 6 5.5 5.5 2.3-.7 4.1.6 6.4.6-2.2-2.9-4.9-4.8-7.8-7.1zM478.6 489.9c-1.2.8-2.4 1.5-3.4 2.4-.9.8-.4 1.8.1 2.6s1.3 1.2 2.2.5c5.4-3.9 10.4-8.3 14.2-13.8 1.1-1.6.3-2.5-.8-3.3-1.3-.9-1.7.3-2.4 1.1-3 3.7-6 7.6-9.9 10.5 1.2 0 2-.9 2.8-1.7 2.8-2.4 4.9-5.5 7.4-8.3.4-.5.9-1.4 1.8-.6.9.8.5 1.3-.1 2.1-3.4 5.2-7.9 9.2-12.8 12.8-.6.4-1.2.9-1.7.3-.5-.6-.5-1.3.1-2 .9-.8 2.2-1.2 2.5-2.6zM470.8 521.7c9.3 5.8 18.3 12 28.4 16.2-9.4-5.4-18.7-11.2-28.4-16.2zM324.8 227.3c5.1 6.2 10.8 11.8 16.7 17.3.4.4.8 1.3 1.6.8.2-.1.4-.5.4-.7-.4-.6-.7-1.4-1.6-1.2-.5.2-1.1.3-.9-.4.7-2.2-1.7-2.1-2.2-3.5-.4.7.8.9 0 1.8-3.7-6.7-9.7-11.2-15.1-16.2l12 12-.5.5c-3.4-3.5-6.9-6.9-10.4-10.4zM500.8 565c-1.7-.9-2.3.3-2.6 1.5-.8 3.2 1.7 3.8 3.8 4.6 2.1.9 2.6-1.2 3.4-2.2 1-1.2-1.8-3.9-4-4 2.5 2.7-1.5 2.7-1.5 4.8-1.9-2.4-.8-3.6.9-4.7zM292.2 375.9c-.2-.3-.4-.7-.7-.8-1-.4-5.3 2.6-6 4.5-.6 1.7.8 2.8 1.9 4 .5.5 1.1.4 1.5-.1 1.6-1.6 3.2-3.2 4.7-4.9.6-.7-.1-1.2-.5-1.7-1.1 2.3-2.5 4.5-4.5 5.8-1.7 1.1-1.8-.9-2.1-2.1 1.2 1.1 2 .2 3.1-.1 1.4-.5.1-1 .3-1.5.4-1.4-1.7.5-1.5-.9.2-1.1 1.3-.1 1.8-.8.6-.8-.5-.6-.4-.7.5-2 1.5-.6 2.4-.7zM380.3 292c3.1-3.1 3-3 .8-5.2-.8-.8-1.5-.9-2.2-.1-1.5 1.6-3.1 3-4.4 4.8-1 1.3.9 1.8 1.5 2.6s1.3 1 2.1.2c.7-.9 1.5-1.6 2.2-2.3zm1.3-3c-1.1 1.2-2.1 2.5-3.2 3.7-.5.6-.8 1.8-1.9 1-.6-.5-1.5-.9-1.5-1.9 1.6.6.8-2.4 2.6-1.7 1.6.6 2.8-.3 4-1.1zM246.8 336.2l-1.2 1.2c-1.3 1.2-2.2 2.2-.3 3.8 1.6 1.4 2.7 2.4 4.3.3.6-.7 1.3-1.3 2-2 2.3-2.5 2.1-3.9-.9-5.8-.8-.5-1.2-.3-1.7.3-.7.7-1.4 1.5-2.2 2.2zm1.9 2.1c-1.2-.2-2 .4-2.5 1.2-.3.5-.6.8-1.1.4-.2-.2-.2-.8 0-1 1.3-1.4 2.5-2.8 3.9-4.1 1.4-1.3 2.2.1 2.5 1 .8 2.5-2.1 5.8-4.8 5.7.8-1 1.8-1.9 2-3.2zM417.1 328.7c-.1.2-.2.2-.2.3-2.6 2.9-2.4 3.5 1 5.4.7.4 1 .2 1.5-.2.8-.8 1.6-1.7 2.4-2.4 1.7-1.4 2.6-2.7.4-4.5-2.1-1.7-3.3-1-4.6.9-.1.2-.3.3-.5.5zm5.9-.1c-1 1.4-1.8 2.7-2.7 3.8-.6.7-1.2 1.6-2.4 1-1.2-.6-1.1-2.1-.9-2.8.4-1.4 1.6-2.4 2.9-3.2.2-.1.6 0 .8.1.3.3.3.8-.1.9-.7.2-1.2.5-.8 1.1.5.7 1 0 1.4-.4.4-.1.6-.8 1.8-.5zM296.5 206.5c-.5.6-.9 1.4-1.5 1.9-1.2 1-1.4 1.7-.1 3 1.2 1.3 2.2 1.3 3.3.2.6-.5 1.1-1.1 1.6-1.6 1.8-1.4 1.6-2.6.1-4.2-1.8-2.1-2.3.2-3.4.7zm3-.5c-1.1 1.4-3.4 1.6-2.5 3.1 1.2 2 1.5-1.6 2.9-.8-1 1-1.6 2.4-3.4 2.1.3.7.6 1.6-.7 1.1-.6-.2-1.6-1.2-1.1-1.7 1.5-1.3 2.1-3.5 4.8-3.8zM328.5 430.4c.4-1.2-1.5-1.7-.3-2.5 1.7-1.1 1.8 1.6 3.5 1.4-2.4-2.4-4.6-4.6-6.9-6.8-.2-.2-.4-.5-.7-.5-3.1-.2-3.1-.2-5.6-1.9l6.4 6.4c-.4-1-1-2-1.1-3.4 3 1.6 1.6 5.8 4.7 7.3zM311.7 314.1c-3.6 2.8-6.5 6.3-9.7 9.5-2.1 2.1-4.1 4.1-6 6.5 3.6-2.3 6.5-5.4 9.2-8.6 2.2-2.4 5.6-3.9 6.5-7.4 0-.1 0 0 0 0z"/><path d="M288.8 385.5c-1.3.1-1.3-.9-1.8-1.5-3.7-4.1-6.7-8.8-10.7-12.5-1.1-1-2.1-2.1-3.4-3 2.6 2.9 5.2 5.8 7.6 8.9 1.2 1.5 3 2.5 3 5.1 0 1.1 2.3 2.7 3.4 4.2.4.6 1.2-.7 1.9-1.2zM240.2 337.4c.7 1.6 4.1 2.8.4 4.8 1 .5 1.2-.6 2.1-.7-.6 1-1.7 2.1 0 3 .4-.7-1-1.6.3-2.1.2-.1.5-.2.7-.2-.3.9 1.1 1.4.3 2.6-.8 1.1.9 2 1.2 1.7 2-2.5 3.2-.2 4.6.7-3.2-3.4-6.4-6.6-9.6-9.8zM491.6 416.3c1.8 7.4 10.2 8.6 13.3 14.8-.3-1.9-3.7-5.8-6.5-8-2.5-2-4.8-4.2-6.8-6.8zM332.8 250.9c1.8.1 2.3 2.7 3.7 1.7 1.9-1.2 3.5-3 4.8-4.8.6-.8-1-1.9-1.6-2.7-.6-.8-1.3.2-1.8.7l-5.1 5.1zm7.8-3.6c-1.2 1.4-1.9 3-3.5 3.9-.5.3-.9 1.1-1.6.5-.7-.5-.3-1.3 0-1.8 1.2-1.8 3.2-2 5.1-2.6zM316.3 413.1c-5.8-.7-9.1-4.8-13-8.3l13.2 13.2c-.8-1.6-2.7-2.7-2.2-4.7.3-1 1.2 0 2-.2zM331.2 416.8c-1.2 1.2-2.1 2.2-3.1 3.1-1.9 1.5-1.8 2.8 0 4.3 1.1.9 1.8 1.7 2.9 0 .3-.5.9-.9 1.5-1.4 1.7-1.3 2.2-2.6.1-4-.8-.4-1-1.1-1.4-2zm-2.9 4.1c1-.9 1.2-2.9 3.1-2.5.8.2 2.2 1.4 1.6 2.4-.7 1.4-1.9 2.9-3.4 3.2-1.1.3-1.9-1-2-2.6.7 2.4 1.6 1.5 2.4.5.4-.5 1.6-.9.7-1.8-1.2-1-1.2 1.1-2.4.8zM465.5 547c-.8.4-1.4 1.1-.9 1.8.7.9.4-.7 1-.7s.8.4 1.1.7l13.8 13.8c.3.3.6.5.9.3-5.4-5.2-10.7-10.5-15.9-15.9zM386.2 322.8l6.3-6.3c2.8-2.8 5.7-5.6 8.5-8.5.9-.9 1.7-1.8 2.7.1-1.1-3-1-3-3-1-4.3 4.4-8.7 8.7-13 13-.7.7-1.3 1.5-2 2.2.1.2.3.3.5.5zM555.9 512.1c-2 1.2-3.1 3.2-4.7 4.7-.9.9-1.3 1.5-2.4-.1-1.2-1.7-1.6-3.8-2.7-5.4-.4 3.4 2.4 5.5 3.5 8.4.4 1 1.9.1 2.6-.7 1-1.2 1.8-2.5 2.5-4l-4 4c1-2.9 4.4-3.9 5.2-6.9zM281.8 345.6l13.1-13.1-.5-.5-13.1 13.1.5.5zM349.2 251.9l-4-4c3.3 2 5.6 5.2 8.9 7.3l-9.4-9.4c-.4-.4-.9-.2-1.2.2-.5.5-.1.9.2 1.2l5.2 5.2c.1-.2.2-.4.3-.5zM479.7 495.7c5.4-2.3 10.1-5.2 13-9.4-3.8 3.4-7.8 6.8-13 9.4z"/><path d="M550 507.9c1.7.9 3.3 1.9 5 2.7.7.4.9.9.9 1.6.2.4 1.5-.3.9.7-.5.8-.9 1.5.2 1.7 1.1.2 1.7-1.1 2.2-1.9.4-.7.1-2.3-.5-2.1-3 1.2-4.2-2-6.6-2.4-.7-.1-1.4-.4-2.1-.3zM206.8 300.4c1-.7 3-1 1.4-3-.5-.6-.4-1.2.6-1.3.3 0 .8-.2.5-.7-.2-.3-.6-.6-.8-.6-1.4.1-3.8 3.7-3.5 5.2.5.2 1.1.3 1.8.4zM522.9 484.5c-1.3.3-1.4 1-.7 2 1.1 1.7 2.1 3.4 3.1 5.1.4.8.9 1.7 1.9.8 1.2-1.1-.8-.5-.7-1.2.5-2.2-3-2.9-2.1-5.5.3-.9-1.4-.3-1.5-1.3-.1.1 0 .1 0 .1z"/><path d="M206.8 300.4c-.6-.1-1.2-.2-1.9-.3 1.5 3.2 1.7 3.2 3.9 1l1.8-1.8c.7-.7 1.9-1.8 1.8-2-.7-1.2-1.8-2.1-2.1-3.5-.1-.3-.5-.2-.6 0-.2.3-.8.5-.1 1.1.6.4.7 1.1.8 1.9 0 .4 1.4 1.1.5 1.2-1.9.2-1.3 4.2-4.1 2.4zM465.4 547c-4.5-4.6-8.7-9.4-14-13.2 3.5 3 6.6 6.5 9.9 9.7 1.4 1.3 1.8 3.6 4.1 3.5.1 0 0 0 0 0zM199.5 300.8c1.7 3.2 4.4 5.5 6.9 8.1 1.5 1.6 3.1 3.1 4.8 4.4-4.1-4-7-9.1-11.7-12.5zM262.4 240.6c-4.4 3.1-7.4 7.6-11 11.6 4.5-3.2 7-8.1 11-11.6zM553.9 502.2l-13-13c3.8 4.8 8.2 9.2 13 13zM382.1 407.4l-13.2 13.2.2.2 13.2-13.2c-.1 0-.2-.1-.2-.2zM370.8 273.8l-6.9-6.9c1.7 2.9 4.1 5.2 6.9 6.9zM269 369.8l12.8 12.8.2-.2-12.8-12.8-.2.2zM531.8 502.1h1.1c.3-.5.8-1-.1-1.3-.4-.2-1.3.5-1.1-.5.5-2.3-2-2.7-2.6-4.4-.1-.4-.6-.8-1.1-.4-.5.4-.1.8.2 1.2 1.2 1.7 2.4 3.5 3.6 5.4zM288.6 255.8c3.1-1 4.2-4.4 7.3-5.4-4-.3-4.8 3.6-7.3 5.4zM294.5 207.1c-3.6 2.3-5.9 5.8-8.6 9 3.4-2.5 5.9-5.8 8.6-9zM466.3 526.4l-9.8-9.8c2.8 3.8 5.9 7.1 9.8 9.8zM375.4 461.8c-.9 1-2.3 1.5-2.6 2.9-1.2.2-.2-3.3-2.2-1.1-.5.6-1.2 1.1-.8 1.9.5.9 2 .5 2.2.4 1.3-1.1 2.9-2.2 3.4-4.1zM294.5 390.8c1.5 3.3 4.3 5.3 7.2 7.2l-7.2-7.2zM521.9 447.1l10.2 10.2.2-.2-10.2-10.2c0 .2-.1.2-.2.2zM295.8 222.7c2.8-2.7 5.6-5.3 7.2-9-2.2 3.3-5.4 5.5-7.2 9z"/><path d="M374.2 460.7c-1.9-1.6-4.9.3-6.8 4.3 2.8-.6 2.9-5.4 6.8-4.3zM400.3 440.6c-2.1 1.3-3.9 2.8-5.1 5.1l5.1-5.1zM258 354.2l-6.4-6.4-.3.3 6.4 6.4.3-.3zM455.4 366.3c-3-.1-2.9 2.9-4.5 4.3 1.9-1 2.7-3.2 4.5-4.3zM338.7 258.5c-2.1 1.9-4.6 3.4-7.3 5.3 3.4-.8 5.5-2.8 7.3-5.3zM408.8 380.3c-3.3 2.2-5 4.9-7.2 7.2l7.2-7.2zM506.3 542c2.1 2.1 4.6 3.6 6.7 5.7-1.8-2.3-3.7-4.6-6.7-5.7zM296.9 383.9c2.6-1.8 5-2.9 5.8-5.8-1.1 2.4-4 3.1-5.8 5.8zM527.5 564.1c-1.2-.8-1.8-2-2.3-3.4-.6 1.4.3 2.5.9 3.6.5 0 .9-.1 1.4-.2z"/></g><path fill="none" d="M100.1 599.9h300v300h-300z"/><path fill="#FFF" d="M117.9 750.9h61.6c31.6 0 53.1 17.8 53.1 46.1 0 32.4-24.5 47.2-53.9 47.2h-28.6v55.6h-32.2V750.9zm32.2 67.7h24.6c14.9 0 25.4-5.7 25.4-20.9 0-15.4-11.1-21.1-24.8-21.1h-25.2v42zM343.6 757.7v22.9c-22.5 31.9-44.6 78-50.1 119.2h-31.8c5.6-41.8 31.1-91.9 50.4-116.7h-66.9v-25.4h98.4z"/><path fill="none" d="M600.1 99.9h300v300h-300z"/><path d="M671.3 257.6v-2c0-24.7 11.1-44.9 41.9-67.3 20.1-14.7 26.1-19.7 26.1-32.1 0-12.3-6-19.2-17.9-19.2-13.9 0-18.9 8.5-20.9 20.9h-29.8c2-24.5 18.1-45 50.7-45 36.5 0 49 21.7 49 43 0 20.7-8.9 30.7-35.1 49.1-17.5 12.3-24.6 20.4-27 26.8h67.3l-3.8 25.8H671.3zM851.6 257.6v-31.9h-64.3v-26.9l59.3-83.2h33.7v85.2h17.1l-2.8 25h-14.3v31.9h-28.7zm0-82.3c0-15.4 0-24 .6-32.9-5.6 11.9-24.2 39-37.5 58.2h36.9v-25.3z"/><path fill="none" d="m241.51 112.226 70.71-70.71 424.26 424.26-70.71 70.71z"/><path d="m418.6 176.2-15-15 11.4-11.4 45.4 45.4-11.4 11.4-15-14.9-41.2 41.2-15.4-15.4 41.2-41.3zM438.4 221.3c3.8-3.8 7.9-8 11.4-11.6l14.6 14.6c-1.1 1.4-4.4 5.1-6.1 6.9 5.4-2.3 12.9-2 19.8 4.8l-13.6 13.6c-8.1-8.8-13.8-10.7-23.2-1.3l-16.4 16.4-14.9-14.9 28.4-28.5zM494.5 308.9c-3.5 3.5-9 9-12.7 12.9l-14.6-14.6c.8-1.1 2.9-3.4 3.9-4.5-6.4 1.2-11.2-.8-16.3-5.8-8.6-8.6-7.9-18.4 1.6-27.9l26.3-26.3 14.9 14.9-23.8 23.8c-3.6 3.6-5.2 7.2-1.8 10.6 3.5 3.5 6.9 2.9 12.8-3l22.1-22.1 14.9 14.9-27.3 27.1zM542.5 354.7c-8.4 6-20.7 9-34.5-4.8-14.1-14.1-11-29.5.3-40.9 12-12 28.8-13.9 42.2-.5 15.1 15.1 8.7 29.1 4.1 34.1l-14.2-14.2c2.4-3.2 3.4-6.7.1-9.9-3.8-3.8-9.2-2.1-16.5 5.2-8.2 8.2-9.2 13.4-5.7 16.9 3 3 6.7 2.1 10 0l14.2 14.1zM574.1 364.6c6.2-1.5 15.5-3.1 25.7-4.9l16.7 16.7-27.7 2.3c-1.6 4.3-9.8 34.5-11.3 38.7l-16.7-16.7c.7-1.4 7.8-22 8.3-23l-8.4.1-11.4 11.4-14.9-14.9 55.3-55.3 14.9 14.9-30.5 30.7zM611.5 582l35.5 66-66-35.5s16.3-6.1 20.3-10.1 10.2-20.4 10.2-20.4z"/></svg>