<svg xmlns="http://www.w3.org/2000/svg" xml:space="preserve" baseProfile="tiny" overflow="visible" version="1.2" viewBox="0 0 1000 1000"><path d="M656.5 286.7c-1.4 1.6-1.7 3.5-2.3 5.2-.8-1.3-1.8-1.5-3.2-.8-2.1 1.1-4.3 1.7-7.1 1 1.5 3.8 3.8 4.9 7 4.7-.4.6-3.3.6-.4 1.8.6.3 1.5.1 2.2.1-3.4 4 1.7 4.1 2.7 6 .9 1.8 2.3 2.2 4.2.4 6.9-6.8 14.1-13.1 21.5-19.3 15.1-12.6 27.8-28 42.2-41.5 8.1-7.6 15.6-16 23.3-24 .3.4.7.7 1 1.1-3.1 3.3-6.2 6.6-9.4 9.7-16.1 16-32.2 31.9-48.2 47.9-3.3 3.3-8.9 6.2-8.8 10.4.1 4.1 5.9 6.8 8.8 10.5 2.5 3.2 4.3 3 7.1.1 19.3-20.3 38.8-40.5 58.3-60.6 7.1-7.3 7.2-7.2.5-14.5-1.5-1.7-2.8-3.8-4.6-4.9-3.5-2.1-2.5-3.7-.2-5.9 9.1-8.8 18.2-17.5 27.2-26.4 3.4-3.4 6.4-7.2 10.6-9.9 2-1.3 3.3-1.3 4.9.6 2.9 3.3 5.8 6.5 8.8 9.7 1.6 1.6 1.5 3.1.3 4.8-1-6.9-7.2-9.5-11-14.2-.9-1-2-.2-2.8.8-.9 1.2-.9 2.3.2 3.4 2.4 2.4 4.7 4.8 6.4 8-2.2-2.3-4.5-4.6-6.7-6.9-1.5-1.6-2.5-2.2-4.5 0-6.5 6.9-13.1 13.9-20.3 20-4 3.4-7.9 6.9-11.7 10.6-1.8 1.7-2 2.9-.1 4.7 3.6 3.5 7 7.2 10.4 10.9 1.4 1.6 2.6 1.7 3.9.1l.3-.3c8.4-9.1 9-5.9.6-15-.9-1-1.8-1.9-2.4-3.1l7.6 7.9c1.1 1.2 1.3 1.4 2.8-.4 5.9-7 12.5-13.3 19-19.7 1.5-1.5 3-2.9 4.2-4.6.9-1.2 1.9-3.2 4.1-2-9.4 11.6-21 20.9-30.1 32.8-3.3 4.3-8.8 6.4-12.2 10.1-22.6 24.7-48 46.6-68.7 73.2-4.1 5.2-9 9.8-13.6 14.5-1.8 1.8-2.4 3.2-.4 5.3 7.3 7.6 14.5 15.3 21.8 22.9 2.2 2.3 4.2 3 6.2-.5 1.3-2.2 3.7-2.9 6.1-3.6 2.6-.8 5.3.7 8.1-1.2 1.5-1.1 3.8 1 2.6 3.5-.7 1.6-1.1 3-1 4.7.3 4.3-1.7 8-5.1 9.9-3.6 2-1.8 3-.2 4.8 3.7 4.4 8.7 7.7 11.3 13.2 1.3 2.7 2.7.8 4.1-.3 1.2-1 1.8-3.3 4.2-2.3 5.6 2.2 10.9 4.7 14.7 9.9 1.3 1.8 2.3 4.6 3.8 5.3 7.3 3.7 10.1 12 16.7 16.3 1.3.9 2.3 2.2 3.4 3.4 1.9 2.2 1.6 4.6.9 7.2-.9 3.3-4.8 3.8-5.7 5.9-2.3 5.5-8.8 6.4-10.8 12.1-.7 2.1-2.9 4.2-6 4.3-.9 0-1.8 1.3-2.4 2.6-3.6 7-9.7 11.6-15.3 16.7-.4.4-1.4.2-1.8.6-.6.8-2.2.7-1.8 2.4.6 2.3-1.1 3.5-2.5 4.4-3.9 2.4-7.4 5.1-9.3 9.7-.7 1.6-2.4 2.5-4.3 2.8-1.4.2-3.2.8-3.3 2.9-.2 3.9-2.9 5.6-5.8 6.8-1.8.7-3.2 1.3-3.7 3.7-.6 3.2-2.9 5.4-6 6.2-1.8.5-3.4 1.1-3.7 3.1-.5 4-3 5.7-6.2 6.9-1.3.5-3.4 1.6-3.5 2.5-.3 4.4-3.2 5.8-6.4 7.4-1.3.7-3.3.8-3.1 3.4.1 1.8-1.6 3.5-3 4.2-4.2 2-6.4 5.8-9.3 9.2-2.9 3.5-7 5.6-9.7 9.9-2.3 3.7-7.1 5.4-9.6 9.9-2.1 3.8-7.1 5.1-9.7 9.7-2.1 3.8-6.6 6.3-9.7 10-3 3.7-7.4 6.3-10 10.7-1.4 2.3-5.2 1.6-5.8 3.9-1.9 7.6-11.2 8.1-13.3 15.5-.4 1.5-2.2 2.6-4.2 2.9-1.3.1-2.8 1-3 2.5-.5 4.2-3.1 6-6.5 7.3-1.3.5-2.7 1.1-3 2.7-.7 4-3.4 5.9-6.8 7.1-1.4.5-2.9 1.2-3.1 3.2-.4 3.8-3.1 5.4-6 6.6-1.6.7-3.6 1.2-3.5 3.2.1 2.9-2 4.4-3.6 5.3-3.3 1.8-5.4 4.1-7.8 7.3-3.2 4.5-8.2 7.9-11.6 12.6-.5.7-1.8.7-2.4 1.4-4 4.7-7.6 9.7-13 12.9-.1.1 0 .3-.1.5-4.1 6.3-10.5 10.3-15.1 16.1-.1.1-.3.1-.5.1-1.9.5-2.9 1.8-3.5 3.6-1.1 3.3-3.2 5.5-6.5 6.6-1.6.5-2.3 1.9-3.2 3.3-4.1 6.2-10.1 10.6-14.8 16.2-.9 1-3.2.9-3.8 2.6-2.7 7.6-11.1 9.6-14.5 16.4-.2.5-1 .8-1.6 1-2.2.7-2.8 2.6-4.1 4.2-4.3 5.7-10.1 10-14.5 15.7-.3.4-1.2.3-1.8.5-1.2.5-2.2 1.4-2.6 2.7-1.1 3.5-4 4.9-6.5 7.1-4.4 3.9-6.7 10-12.8 11.9-.1 0-.1.3-.1.5-.2 4.5-3.5 5.6-6.7 7.6-2.9 1.8-6.6 1.2-8.8 4.2-.6.9-1.9 1.6-.7 2.9 1.1 1.1 2 .4 2.9-.5 1-1.1 2.1-2.1 3.1-3.2-1 2.9-2.7 5.3-5.5 6.1-1.3.4-3 1.4-3 2-.1 3.7-2.7 4.6-5.1 6.1-1.3.9-2.5 1.9-4.1 2.3 1.9 3.5-.5 1.7-1.9 1.7-2.9.1-4.6-1.6-6.4-3.5-7.4-7.8-14.8-15.6-22.3-23.3-3.7-3.8-7.8-7.1-7.6-13.4.1-3.2-2.1-2.8-3.6-.8-2.1 2.8-4.2 2.5-6.4.3-7.6-7.5-15.7-14.5-22.6-22.6-4.7-5.5-9.5-11-14.6-16.2-15.4-15.7-30.5-31.9-46-47.5-6.4-6.5-12-14-18.5-20.6-1.9-2-2.9-4.4 0-6.7.7-.5 1.6-1.2.8-3-6.9 1.3-10.3-4.4-14.6-8.6-1.4-1.4-1.8-3.8-3.2-4.7-7.1-4.9-12-12.2-18.5-17.7-3.2-2.7-2.8-6.4-3.4-9.8-.5-2.7 2.5-1.7 3.8-2.6.4-.3.5-.8.8-1.2 3-5.2 8.6-8.1 11.5-13.5.2-.4 1.1-.8 1.7-.7 2.8.2 3.7-1.6 3.9-4 .1-1.5 1-2.6 2-3.2 4.6-2.5 8.1-6.1 11-10.6.6-1 1.6-2.2 3.1-1.6 1.7.6 1.9-1 2.2-1.9 2.9-7.4 10.8-10.2 14.4-16.9.4-.7 1.5-1.2 2.4-1.5 1.6-.6 2.6-1.8 3.4-3.2 3.7-6.4 10.6-9.8 14.6-16 .3-.5 1.4-.6 2.2-.8 1.3-.5 2-1.3 2.6-2.6 3.3-7.1 10.5-10.5 14.7-16.7.2-.3.9-.4 1.3-.5 1.9-.1 3-1.3 3.3-3.1.5-2.9 2.7-4.7 4.8-5.9 5.8-3.3 9.4-9.2 13.7-13.8 4.5-4.9 11-8.2 13.8-14.8 1.1-2.5 5-1.6 5.8-3.9 2.5-7.4 10.4-9.5 13.9-15.8 1.3-2.3 4.7-2.1 5.9-4.7 3.2-7 11.1-9.5 14.6-16.3.2-.4.8-.8 1.2-.7 2.5.5 3.1-1.5 3.9-3.2 1.6-3.5 4.3-5.3 7.7-7.2 2.7-1.6 3.5-6.6 6.8-9 .3-.2.6-.5.8-.4 2.7 1 3.2-1.7 3.9-3 3.6-6.9 11.2-9.8 14.9-16.4.2-.3.9-.4 1.3-.3 2.2.4 2.8-1.8 3.3-2.9 1.6-3.8 3.7-5.8 7.9-7.2 2.8-1 3-6.9 6.4-9.1.4-.3.9-.6 1.3-.5 2.7.8 3.4-1.5 3.9-3.1 1.1-3.6 4-4.9 6.4-7.1 4.3-3.9 7.1-9.7 12.9-12.1.2-.1.1-.9.2-1.4.1-1.3 1-2 1.8-2.8 3.4-2.9 6.8-5.5 9.6-9.4 3.1-4.3 8.2-7.2 11.4-11.8.5-.8 1.6-1.8 2.2-1.7 2.3.6 3-1.4 3.5-2.5 3.1-7.1 10.9-9.6 14.4-16.4.2-.4.7-.8 1.1-.8 2.8-.1 3.1-2.6 4.4-4.2 4.4-5.6 10.2-9.8 14.6-15.5.1-.1.3-.2.4-.2 2.7 0 3-2.4 4.4-4 4.5-5.5 9.7-10.4 14.7-15.5.1-.1.4 0 .5-.1 4.5-4.3 9.6-8.2 13.3-13.2 2-2.6 3.9-5 6.6-6.6.8-.5 1.9-.7 2.3-1.6 3.1-7.2 10.1-10.6 14.9-16.2 4.3-5 9.1-9.7 13.6-14.7 3.3-3.6 7.7-3.6 11.2-.4 4.8 4.4 8 10.3 13.4 14 2.3 1.5 3.3 5.2 5.1 6.6 5.9 4.6 10.8 9 13.1 16.9 1 3.5.6 4.9-1.4 6.8-1 .9-2.3 2.1-.5 3.1 5.4 3.1 9 8.4 13.4 12.6 1.3 1.2 1.9 1.8 3.1-.3 2.2-3.8 5.8-6 10-5.3 2.7.4 4.8-2.9 7.2-1 3 2.4-1.1 4.7-.5 7.6.8 4.4-1.2 8.3-5.5 10.5 4.2-7.5 4.2-7.5 3.4-12.5zm-19.9 269.7c-4 2.2-6.2 5.3-7.7 9.2.9 1.5-2.4 3-.2 4.2 2 1.1 2.8-1.3 4-2.5.5-.5 1.1-1.5.5-2.1-1.5-1.6-2.8.9-4.3.5 2.4-3 6.3-4.7 7.7-9.3zm73.6-203.3c-3.4 3-5.9 5.6.3 9.6 0-4 .8-7.7 3.3-10.7-.7 3.4 2.4 4 4 4.5 1.7.6 2.4-1.8 2.2-3.7 0-.6.4-1.2.7-1.8.6-1.1 1.7-2.4.1-3.3-1.3-.8-1.8.8-2.5 1.6-.6.7-1.1 1.7-2.3 1.2.1-.5.9-1.2.1-1.6-4.6-2-10.1 1.9-10.6 7.8 3.2-3.1 5.8-6.9 10.7-6.2-.8.5-1.6 1-2.4 1.6-1.1.6-2.5 0-3.6 1zM497.7 524.7c-1.4-2.3-2.8-1.9-4.5-.1-1.9 2-3.6 3.8-2.1 6.7.3.6.8 1 1.3 1.5 4.6 5.2 4.6 5.2 9.2.2.5-.6 1.2-1.1 1.5-1.8.8-1.8 5-2 2.1-5.6-2.4-3.1-4.7-3.8-7.5-.9zm165.9-98.1c1.4-.9 2.6-2.3 3.4-3.8.5-.9-.7-1.6-1.8-1.5 1.6-1.6.3-2.6-.7-3.6-3.7-3.9-7.3-7.8-11.1-11.5-1.7-1.7-3.4-2.9-6-.4-2.6 2.6-1.3 4.5.3 6 4.6 4.3 7.8 10.2 13.7 13 .8.6.8 2.7 2.2 1.8zm-89-40.6c0-1.6 3.4-1.1 1.8-3-2.5-3-5.1-5.8-8.1-8.2-1.3-1-1 2.7-3.1 2.5-.8-.1.1 1.3.5 1.7 3.3 3.5 6.6 6.9 9.9 10.4 10.4 11.1 20.8 22.1 31.2 33.2 1.5 1.5 2.7 3.4 5.1 1.2 2.8-2.5.2-3.7-1.1-5-6.1-6.5-12.2-12.9-18.4-19.2-.8-.9-2.1-4-3.2 0-.3 1.1-2.2 1-2.9.2-.9-1-1.1-2.8.4-3.3 2.8-1 1.1-1.8.2-2.8-1.1-1.2-2.4-2.2-3.3-3.5-2.4-3.6-4.9-4.7-7.8-.6-.9-1.1-1.2-2.2-1.2-3.6zM467.2 561c1.7 4.7 4.1 8.2 8.7 10.7 4.5 2.4 8 6.9 10.6 11.8 1.2 2.2 2.2 5.6 6 3.5-2.2 5.6-4.2.6-6.8.5 6.3 6.5 12.7 12.9 18.8 19.6 1.7 1.9 5.9 3.3 2.6 7.4-.2.2.9 1.6 1.5 2.3 4 4.2 8.1 8.4 12.6 12.3-4.9-10.2-5.7-22.3-14.2-30.8-3.4-3.4-6.8-6.9-10-10.6-1.6-1.8-2.9-1.4-4.5-.4-8.4-8.9-16.8-17.6-25.3-26.3zm35.5-179.1c-9 5-18 9.7-27 14.8-1.4.8-4.9.4-3.2 3.9 1.5 3 3.5 1.1 5.2.2 16.1-8.6 32.2-17.3 48.2-25.9 3-1.6 5.8-3.7 8.9-4.7 4.5-1.5 6.1-4.6 6.1-9.1-.5-1.3 1.5-1.8 1.1-2.3-.7-1-1 .7-1.9.8-6.3.9-11.1 5.3-16.7 7.9-4.6 2.2-9.1 4.6-13.5 7.2-1.1.6-3.5.6-2.7 3.6 9-4.9 17.9-9.8 26.9-14.5 2.2-1.2 4.2-3.1 7-2.7-12.5 7.5-25.6 13.8-38.4 20.8zm115.7-65.2c-.7.9-2.1 1.6-1.1 3.2-3.7.7-5.7 3.7-8.8 7.2 6.2-.2 11.1.9 14.3 5.9.8 1.2 1.6.1 2.5-.2 1.4-.5 2.7.8 2.2 1.6-2.1 3.6 1.2 4.6 2.7 6.3 4.6 5.1 9.3 9.9 14 14.8 1.2 1.3 2.2 3.4 4.7 1.6.9-.6 2.2.5 1.9 1.4-2 4.5 2.1 5.3 4 7.4.3 3.5.7 7 1.1 11.1 3.8-3 6.7-5.9 7.7-10.5.3 2.6 1.4 2 2.6.6 4-4.3 8.7-8.2 10.1-14.6.4-2 1.7-3.8 2.6-5.7 0 .3.1.7 0 1-3.9 6.2.1 9.8 3.9 13.7 7.4 7.5 14.6 15.1 22.5 23.2 1.6-6.7 3.1-13 4.5-19.3.3-1.1-.5-1.8-1.2-2.5-11.1-11.5-22.3-23.1-34.4-35.6.3 4-3.5 7.3 3.2 8.6 4.6.9 2.5 6.2 3.2 9.5-2.3-4.1-5.8-7-8.7-10.4-1.5-1.8-2.6-1.4-3.8.1-2.8 3.7-7.1 6.1-8.6 10.9-.3.8-1.3 1.3-2.1 1.9-1.6 1.2-5.1 1.2-1.8 5.6-3.2-5.1-8.1-5.1-11.6-7.7-4.6-3.4-7.9-7.8-8.6-13.6-.6-5-4.2-7.5-7.1-10.6-1.2-1.3-2.3-.4-3.2.7-1.5 1.6-3.1 3.2-5.2 5.4.8-2.7 2.7-3.6 3.8-5.1.9-1.2.8-2.1-.7-2.4 2-1.1 3.7-.9 5.5.9 6.7 6.4 6.7 6.3 13.9.5.2-.2.5-.4.7-.6 8.6-7.3 8.5-7.4.7-15.3-2.4-2.4-4.4-2.6-7-.7-1.2.9-2.6 1.8-4.3 1.7 3.7-2.9 7.5-5.2 12.5-3.6 2.4.7 4.2 1.7 4.3 4.5 0 1.3-.4 2.8 1.6 2.6 1.6-.1 3.5.3 4.4-1.2.9-1.4-.9-2.2-1.7-3.1-.8-1-2-1.7-2.6-2.8-6.9-11.6-16.9-9.7-27.2-6.9-1.9.5-3.1 1.3-1 3.1 3.2 2.7 4.9 7.4 9.9 7.6-5.7 1.5-10.5 5-14.3 9.8zM435.3 453.1c1-1.8 2.1-3.5 3.2-5.3-.5-.3-.9-.6-1.4-.9-8.7 14-17.5 27.9-26.2 41.9l1.2.9c4-5 7-10.6 10.3-16.1 0 3.8-2.9 6-4.4 9-1.2 2.3-3.1 4.2-4.1 6.6-.7 1.6-3.6 3.3-1.7 4.8 2.4 1.8 4.6 0 6.1-2.5 3.3-5.6 6.9-11.1 10.3-16.6 13.7-22 27.4-43.9 41.1-65.9.7-1.1 1.2-2.3 2-3.4 1.1-1.5 1.1-2.6-.5-3.7-2-1.4-2.7-.1-3.7 1.4-10 16.1-20 32.1-30 48.1-3.5 5.5-7.1 10.9-10.6 16.4 1.8-5.5 5.7-9.8 8.4-14.7zm165.5 90.8c1.5-1 4-1.3 2.1-4.2-1.8-2.7-3.3-.5-4.7.4-21.8 14.2-43.5 28.4-65.3 42.6-1.7 1.1-3.3 2.6-5.4 2.9 8.1-6.9 17.5-11.9 26.2-18 8.3-5.8 16.8-11.3 25.3-16.7 2.6-1.7 2.4-2.7.4-4.6-3.4-3.3-6.5-6.8-9.8-10.1-1-1-1.6-2.7-3.7-.7-1.3 1.3-3.2-.9-2-2.1 2.4-2.5.2-3.3-.9-4.5-1.4-1.6-3-3-4.3-4.6-1.2-1.4-2.1-3.1-3.8-.5-.4.7-1.5.8-2-.1-.3-.5-.5-1.6-.3-1.8 3.4-2.6.1-3.9-1.1-5.4-1.3-1.7-3.1-2.9-4.2-4.7-2.1-3-3.5 2-5.5.3-2.5-2.1 3.2-3.4.4-5.6-2.3-1.8-4.1-4.1-6.2-6.2-.9-1-1.8-2-3-.2-.5.8-1.4 1-2.1.5-.7-.5-1.1-1.7-.6-2.2 3.9-4-1.2-4.9-2.5-6.2-1.5-1.5-2.2-6.1-6.3-3.4-1.5 1-3.4-.6-2.2-2 2.5-2.7.1-3.5-1.1-4.8-1.3-1.5-2.6-2.9-4-4.3-1.2-1.2-1.9-2.8-4-.7-1.4 1.4-2.6-.2-2.3-2.1.9-4.8-4.6-10.4-9.3-9.3-1.3.3-2.3-.6-1.8-1.3 3.1-4.7-1.6-5.9-3.4-8.3-1.4-1.8-2.7-4.9-6.2-2.2-1.5 1.2-2.3-1.5-1.5-2.2 2.4-2.2.6-3.6-.8-4.4-3-1.7-3.5-8-9.1-5.1-1.1.6-1.7-1.3-1.2-1.9 2.4-2.6-.1-3.7-1.4-5.1-3.6-3.9-7.4-7.7-11.3-11.7-9.7 15.5-19.1 30.5-28.5 45.6-4.7 7.6-9.5 15.2-14.2 22.7-1.3 2.1-1.9 3.6.3 5.8 10.5 10.6 20.7 21.4 31.1 32.1 1.2 1.2 2.4 4.3 4.5.7.2-.3 1.3-.3 1.7 0 .8.6.4 1.4-.1 2.1-3.1 4.6 2.4 4.8 3.6 7 1.4 2.5 2.9.3 4.1-.9 6.7-6.8 13.4-13.6 19.9-20.6 2.3-2.5 4.7-2.5 7.9-2.8 5.3-.4 10.4 4.8 15.7.4 1-.8 2.8.1 3.8 1.4 1 1.3 1.1 3 .3 4.2-2.6 3.6-1.9 7.4.5 10.3 2.9 3.5 6.8 5.4 11.3 2.1 1.3-1 3.1-.5 4.4.8 1.4 1.4 1.1 3 .5 4.6-2.4 6.2 1.1 14.7 6.9 17 1.4.6 1.9-.8 3-1 1.2-.2 2.3-.2 3 .9.8 1.2.8 2.5-.2 3.6-1.8 1.9-3.6 3.8-5.5 5.5-.9.9-2.1.8-3.1.2-.9-.6-1.5-1.8-1-2.5 2.9-4.4-1.1-5.9-3.1-8.2-1-1.2-2.2-2.3-3.9-4.1.1 3.2-1.6 4.5-3 6-6.4 6.7-12.5 13.6-19.4 19.8-2.8 2.5-3.7 5.2-.1 8 1.5 1.2 2.8 2.7 4 4.2 3 3.6 5.9 7.2 11.2 4.2-3.1 1.7-6 3.5-3.7 8.2 5.6-3.5 11.1-6.9 16.6-10.3-3.6 4.1-9.1 5.6-12.8 9.6.3.4.5.8.8 1.2 13.6-9 27.3-18 40.9-27-.2-.4-.5-.8-.7-1.2-9.8 5.3-18.3 12.7-28.4 17.4 23.6-15.2 47.1-30.8 70.6-46.5zm-91.7-3.1c1.9.5 1.4-2.3 3.2-2.1 1.5.2 1.9-1.4 2.2-2.5.1-.4-.7-1.4-1.4-1.7-1.3-.7-1.8.8-2.6 1.5-.7.6-1.3 1.4-1.9 2.1-.7-.7-1.5-1.3-2-2.1-2.2-3-4.2-3.2-6.2.1-2.3 3.8-4.1 2.8-7.1.3-4.8-3.9-4.6-8.1-2.7-13.1.4-1.1 1.5-2.6 0-3.5-1.3-.8-2.8-.5-3.9.7-7.5 7.7-14.9 15.4-22.4 23-1.3 1.4-1.3 2.4 0 3.7 9.9 10.3 19.7 20.6 29.6 31 1.4 1.5 2.3 1.2 3.5-.1 2.8-3.1 5.6-6.2 8.4-9.2.2-.2.8-.5.8-.5-2.8-5.2 2.9-5.8 4.3-8.7.1-.3.5-.5.6-.8.7-5.3-3.8-7.1-6.5-10-1.7-1.8-4.1-2.5-6.2-.1-1.1 1.2-2.7 2.2-3.2 3.6-.6 1.8-1.3 2-2.3.7-1.6-2.1-2.3-.3-3.4.9 1-2.7 1-2.7 4.2-2.7 1.4 0 1.9-1.5 2.9-2.2 1.5-1.2 2.5-4 4.4-3.3 5.9 2.2 5.4-2.4 6.4-5.7.2-.8.7-1.5 1-2.2 0 .9.2 1.9.3 2.9zm134.8 1.4c2.7-2 3.6-5.3 5.1-8.1.7-1.4 0-2.4-1.2-3.3-1.3-.9-2.3-.8-3.2.6-1.9 2.9-4.6 5.1-4.7 9.2-.1 3.1-3 5.3-4.1 8.2-.6 1.5-3.2 2.9-1.3 4.6 2 1.7 2.3-2.1 4-2.2 2-.4 3.3-1.9 4.6-3.3 21.8-22.3 43.6-44.7 65.6-66.9 3.1-3.2 3.2-5 0-8.1-6.3-6-12.2-12.5-18.5-19-3.7 8.2-7.2 16.2-11 24.1-7.3 15.4-15.8 30-24.6 44.5-1.8 2.9-3 5.7-3.7 9.2-1.1 5-3.4 9.6-7.8 13-2.1 1.6-3.2 4.5-4.7 6.7.8-3.8 2.5-7 5.5-9.2zm-263.7-43.7c4.2-3.9 6.6-3.7 10.7 0 1.7 1.6 3.7 5.9 5.4 4.1 2.4-2.6-2.1-4.2-3.6-6.1-3-3.6-6.5-6.8-9.8-10.2-1.8-1.9-3.5-4.8-6.4.2 1.6-2.9 1-4.5-.7-6.1-5.3-5.3-10.5-10.6-15.5-16.1-2.1-2.3-3.4-1.9-5.3.2-7.1 7.7-7.2 7.7-.1 15.4 3.2 3.4 6.7 6.6 9.7 10.2 2.6 3.2 4.7 3.2 7.1-.1.6-.9 1.5-1.6 2.4-2.3-5.2 8.7-12.8 15.1-19.9 21.9-8.3 7.9-15.7 16.7-23.9 24.8-1.6 1.6-.5 2.2.3 3.1 4.7 5 9.4 9.8 14 14.8 1.6 1.7 2.8 1.5 4.3-.1 8.3-8.6 16.7-17.2 25.1-25.8 1.7-1.7 1.5-2.9-.2-4.4-1.3-1.2-2.4-2.6-3.7-3.8-1.1-1.1-1.8-2.3-2-3.8-.5-3.6 4.8-11.3 8.6-12.4-1.4 3-3.8 5.2-5.9 7.6-1.7 2-2 4.2-.8 6.4 1.6 2.8 3.8 5.3 6.7 6.8.9.5 1.6-.8 2.3-1.4 4.5-4.6 9-9.4 13.6-14 1.8-1.8 1.9-3.2 0-4.8-1.2-1.1-2.2-2.4-3.4-3.5-2.6-2.4-5.3-2.7-8-.1-1.3 1.3-2.3 3.3-4.6 3.1 1.2-1.4 2.4-2.5 3.6-3.6zm227.9-174.8c-4.3-4.4-8.1-8.2-11.7-12.1-1.7-1.9-2.9-1.7-4.7 0-4 3.7-6.8 8.9-12.2 10.7-.3.1-.7.5-.6.7.7 3.6 4.3 4.9 6.1 7.7 1.3 2 2.3.3 3.5-.5 2.2-1.5 3.1-5.5 6.9-3.9-9.3 8.5-17.9 17.8-26.7 26.9-2.5 2.5-4.9 5.2-7.5 7.6-2 1.8-2.5 3.9-1.9 6.2.8 3.3 2.8.7 4.2.7 1.4 0 1.9 1.1 2.6 1.9 16 16.8 32 33.6 47.9 50.4 1.2 1.2 2.9 2.2 2.6 4.4-.7 4.6 2.1 2.8 4 2.3.7-.2 1.3-1 1.8-1.6l33.5-34.4c3-3 4-6.6 3.4-10.8-.1-1-.2-2.2-1.3-2.2-.6 0-1.3.8-1.7 1.5-6.4 10.3-16.1 17.6-23.9 26.5-1.6 1.8-3 1.1-4.4-.4-2.7-2.9-5.4-5.4-9.6-2.5-1 .7-2.1 0-3-.9-1.9-2-3.8-4-5.7-5.9-1.9-1.8-2.2-3.7-.1-5.4 2.2-1.7 1.6-2.9-.1-4.5-3.8-3.8-7.4-7.7-11.1-11.6-1.2-1.3-2-1.8-3.2.1-1.8 2.6-3.9 2.5-5.9.2-1.7-1.9-3.5-3.8-5.4-5.6-1.1-1-1.8-2.4-.9-3.4 3.4-4 .6-6.8-1.8-8.9-3.2-2.8-2.3-4.6.2-7.1 7-6.7 13.9-13.6 20.6-20.5 1.6-1.6 3.5-1.8 5.6-2.8-1.4-1-2.5-1.9-3.6-2.7 1.1-.1 2.1-.1 4.1-.1zm-118 388.7c5.8-7.2 6-7-.5-13.7-3.8-4-7.7-7.8-11.5-11.9-1.7-1.9-2.9-2.3-5-.3-8.5 8.1-8.5 7.9-.5 16.5 3.2 3.4 7.2 6 9.1 10.6-6.1-5-11-11.3-16.7-16.8-.2-.2-.5-.6-.5-.8 1.7-8-5.6-10-9.1-14.3-6.4-7.9-6.8-7.6-13.8-.3-18.6 19.2-37.2 38.4-55.9 57.5-2.6 2.6-3 4.2-.2 7 10 10.1 19.7 20.6 29.6 30.9 1.1 1.1 2.2 3.7 4.1 1.5 1.6-1.9-.7-2.9-1.7-3.9-4.1-4.4-8.2-8.8-12.5-12.9-2.5-2.4-2.3-3.9 0-6.3 12.6-12.7 25.3-25.4 37.5-38.5 5.5-5.9 11.5-11.3 16.9-17.2 1.9-2.1 3.1-2 5 .1 4.3 4.8 8.9 9.5 13.4 14.1 1.3 1.3 2.6 3 3.8-.1 3.4 3.3 5.7 2.3 8.5-1.2zM354.7 596.7c7.5-.4 9.9 4.8 13.3 9.5.4.6-.4 2.4 1.3 1.6 1-.5 1.1-1.5.3-2.5-.1-.1-.2-.2-.3-.4-5.4-8.5-5.2-10.7 1.6-17.7 15.5-16 31.1-31.9 46.7-47.8 1.9-1.9 3.6-4.4 6.8-3.4-5.6 2.5-9.1 7.6-13.3 11.8-13.8 13.9-27.4 28-41 42.1-4.5 4.6-4.4 10 0 13.7.9.7 1.6 1.6 2.8.5 4.8-4.6 5.5 2 8 3.4 2.1 1.2 3.8 3.3.9 5.8-1.7 1.6 0 2.6.9 3.6 3.6 3.8 7.2 7.5 10.8 11.2 1.9 1.9 3.5 5.3 6.7 1.5.6-.7 1.6-.4 2.2.2 2.2 2.2 4.3 4.4 6.3 6.7.3.4.5 1.6.2 1.8-4.1 3.7-.6 5.6 1.9 7.2 3.2 2 6.4 1.3 9.1-1.4 6.3-6.5 12.7-12.9 19.1-19.4 8.9-9.2 17.8-18.4 26.7-27.5 3.2-3.2 6.4-6.4 8.2-10.7-1.8 4 3.3 3.2 3.8 5.7 0 .2 1.8-1.1 1.7-1.2-1.9-1.8.5-4.3-1-6-.8-1-1.7-2.4-3-2-1.8.5-1.3 2.4-1.5 3.8-2.6-6.6-7.7-11-12.4-15.9-9.5-9.9-19-19.7-28.4-29.7-2.5-2.7-5.2-4.6-8.9-5 3.8-2.1 6.3.6 8.6 2.9 6.6 6.7 13.1 13.5 19.8 20.4.4-2.6-1.5-3.9-2.7-5.2-3.1-3.5-7.5-6.2-9.6-10.2-7.5-13.9-20.3-22.6-30.2-34.3-7-8.4-5-7.5-11.9-.5-24.4 24.8-48.6 49.8-73.1 74.6-2.9 3-3.5 4.7-.2 8.1 31.4 32.6 62.5 65.4 93.7 98.2 2.5 2.6 4 3.1 6.8.2 24.9-26 49.9-51.9 75.2-77.6 3.7-3.7 3.1-5.7-.3-8.9-4.6-4.3-8.8-9.1-13.1-13.7-1.8-1.9-3.5-2.6-6.1-.8 4 4.2 7.8 8.4 11.9 12.2 3.4 3.1 2 5.2-.5 7.6-12.1 11.6-23.5 23.8-35.3 35.8-6.9 7-12.7 15.4-21.6 20.1-1.2.7.1 1.4-.4 2.1-1.1 1.6-2.1 3.1-4.1 1.1-3.8-4-7.4-8.3-11.5-11.8-2.4-2.1.4-3.5-.3-5.5-1.4-4.3 1.5-2.1 3.3-1.6.4.1 1.3-.9 1.8-1.4 2.9-3 5.9-6 8.8-9.1.7-.7 1.9-1.2 1.1-2.8-1.5-2.9-.2-3.7 2.3-2.5 1.3.6 1.8 0 2.4-.6 3.3-3.3 6.5-6.8 9.8-10.1 1.1-1.1.7-1.7 0-2.8-.7-1.1.3-2.9 1.2-2.4 4 2.1 5.1-1.8 7.1-3.4 2.1-1.8 4.5-3.6 5.6-6 1.4-3.2 2.3-6 6.4-6.6 1.5-.2 2.9-2.5 4-4 .6-.8 3.2-1.3.8-3.2-1.5-1.2-2.5-1.3-4 .2-6.2 6.6-12.5 13.1-18.8 19.6-9.8 10.1-19.5 20.2-29.4 30.3-4.7 4.8-9.4 4.7-14.7 0-.7-.6-1.5-2.4-2.6-.9-1.2 1.6.8 1.8 1.5 2.3 4.3 3.1 8.3 5.6 7.8 12.5-.4 6.1-1.1 7.3-7.6 5.8 1.8-1.3 5.7.9 5.6-3.5-.1-3.7-5.1-10.1-7.8-10-3.7.1-3.9 3.8-4.7 6-1 2.8-2.8 6.6 1.6 8.7-1.1 0-2.1.9-3.2.1-2.3-1.7-2.7-13.3-.4-14.9 3.3-2.3 4.6-4.4.7-7.6-2.7-2.2-6.4-4.6-2.1-9 .8-.8-.8-1.9-1.5-2.7-3.4-3.6-6.9-7.2-10.4-10.8-2.1-2.1-3.6-6-7.4-2-.9.9-2.3 0-3.3-1.1-1.5-1.7-3.4-3.1-4.6-4.9-1.1-1.9-2.1-1.9-3.1-.3-3 5.1-7.3 4.3-12 3.6-6.2-1-6.6-1.4-4.3-7.7 1.2 1.6-1.2 4.9 1 5.2 3.9.6 7.7-1.2 11.1-3.3 2-1.2 1.1-3.2.4-4.3-2.2-3.5-5.6-5.6-9.4-6.5-2.5-.6-1.4 2.9-2.9 3.7-.7-4.8.5-6 5.3-6.3zM633 467.6c1-1.4-.2-2.1-.9-2.9-2.1-2.3-4.8-4.2-6.1-6.9-1.9-3.8-5 1.1-6.4-1.5-1-1.8 2.2-4.2-1-6.1-2.4-1.5-4.1-4.2-6.1-6.2-1-1-1.9-2.8-3.7-.7-.3.3-1.5-.1-2.2-.4-.2-.1-.3-1.1-.1-1.4 2.3-2.7-3.4-6.5 1.6-9.3 3-1.7 6.2-4.4 7.2-9.1-6 3.7-6 3.7-11-1.6-13.1-13.7-26.3-27.4-39.4-41.1-3-3.1-8.3-6.1-.6-10.2-2.4-1.7-3.6-.3-4.7.7-1.3 1.2-2.5 2.5-3.7 3.8-4.6 4.8-4.5 4.8-9.1.3-1.6-1.6-2.8-4.8-5.9-2.3-.2.1-.6 0-.9-.1-4.4-2-4.6-1.9-9.6 1.9 7.5 2.2 9.3 7.5 4 14.4 1.7-1.6 2.5-2.6 3.6-3.3 1.5-.9.8-2.1 1-3.3.2-1.2 1.5-1.3 2.2-.4 2.3 3.1 5 3.7 8.4 2.1 1-.5 1.5.4 1.4 1.3-.4 3.5-1.4 7 2.7 9.3.8.5 0 2-1 2.2-3.6.7-5.6 2.7-6.2 6.5-.2 1.2-1.6 1.1-2.3.3-2.3-2.5-4.9-3.2-8.1-2.3-1.5.4-1.8-.4-1.7-2 .6-6.5-.5-8.3-6.3-10.8-4.4-1.9-5.3-6.2-2-12.4-13 6.9-25.3 13.5-38.1 20.3 2.1 2.2 3.7 4 5.4 5.6 2.9 2.7 3.3 6 .8 8.7-1.8 1.9 0 5.1-2.8 6.3-3.3 1.5-6.4 3.6-9.8 4.4-3.2.7-4.7-2.9-6.8-4.8-5.3-5.2-5-5-9.4 1-2.6 3.6-1.9 5.7.9 8.6 28.1 29.4 56.1 58.9 84.2 88.3 5 5.3 10.2 10.4 15.3 15.7 1.1 1.2 2.5 2.8 3.9 1 1.3-1.6-.9-2.3-1.7-3.2-4.6-5.1-4.6-6.2.1-10.8l2.4-2.4c5.1-5.5 5.3-5.6 10.5-.1 1.6 1.7 2.9 3.2 5.2.5-2.3 4.5-2.1 4.4-5.2 1.4-1.7-1.7-3-5.4-5.9-4-3.7 1.8-6.9 4.9-8.4 8.9-1.1 3 2.1 4.5 3.8 6.2 1.3 1.4 3.1 1.9 1.3 4.5-1.1 1.5.2 3.9 1.3 5.3 2.1 2.7 4.6 5 7 7.4.8.8 1.7 2 2.3-.1.2-.7 1-1.1 1.5-.8 1.4.9 2.5 2.7 4.5.8 4.6-4.2 11.3-5.6 14.3-11.8 1.5-3.1 3.2-6.1 4.6-9.2.7-1.5 3.9-3.8-.7-4.7-.2 0-.5-1.2-.4-1.8.3-1 1.4-1.2 1.9-.7 2.6 2.6 3-.2 3.8-1.6 1.5-2.5 2.9-5.1 4.1-7.8.7-1.5 3.4-3.6-.8-4.5-.6-.1-.7-1.4-.2-2.2.5-.9 1.7-.9 2.1-.4 2.6 3.9 2.8-.5 3.2-1.2 5.1-9.3 9.9-18.7 14.9-28.2-1.2-.4-4.4.1-2.2-3.1zM351.5 759.3c2.8 2.9 4.3 2.6 6.9 0 19.9-20.7 39.9-41.3 60-61.7 3.1-3.1 1.3-4.6-.7-6.7-23.2-24.2-46.4-48.5-69.7-72.8-8.4-8.8-16.9-17.5-25.1-26.4-2.1-2.3-3.4-2-5.3.1-20.3 21-40.6 42-61 62.8-2.4 2.4-1.4 3.6.4 5.4 14.1 14.6 28 29.3 42 43.9 1.9 2 3.8 4 5.7 5.9-.1.2-.3.3-.4.5 15.7 16.3 31.6 32.5 47.2 49zm51.3-313c-.3-.2-.5-.4-.8-.5 5.8-9.3 11.4-18.9 17.7-27.9 3.3-4.7 4.4-9.5 3.7-15.8-2.9 3-5.4 5.7-8 8.2-16.8 16.4-33.3 33-49.4 50.2-3 3.2-3.4 5.2-.1 8.3 3.8 3.5 7.3 7.4 10.8 11.2 1.5 1.6 2.4 2.1 3.8-.3 3.1-5.3 6.6-10.3 10.6-14.9-2.8 4.5-5.7 9.1-8.5 13.6-1.3 2.1-1.5 3.5 1.3 4.6 6.4 2.6 12.6 5.4 18.8 8.3 2.6 1.2 4.1.4 5.5-1.9 14.3-23.2 28.6-46.5 42.9-69.7 4.4-7.2 8.9-14.5 13.6-21.4 1.2-1.7.9-2.3-.2-3.5-3.9-4.1-7.9-8.2-11.7-12.4-1.6-1.8-2.9-1.8-4.3 0-6 7.7-14 13.5-18.9 22.1-1.1 1.9-3.8 3.7-1.3 6.7.7.8-.4 3.1-1.9 3.5-1.5.4-.7-1.8-1.9-2.4-7.2 11.3-14.4 22.7-21.7 34zm-68.2 331.8c3.3 3.5 5.1 2.9 7.8-.3 3-3.6 6.3-7 9.7-10.2 2.5-2.3 2.3-3.8 0-6.2-22.7-23.6-45.3-47.3-67.9-71-9.7-10.2-19.5-20.4-29-30.7-2.4-2.6-3.8-2.5-6.1 0-3.3 3.8-6.8 7.4-10.6 10.7-3 2.7-2.4 4.5.1 7.1 14.4 14.7 28.6 29.6 42.9 44.4 1.9 2 3.8 4 5.5 5.6 15.5 17.7 31.9 33.7 47.6 50.6zm273-232.8c-2 3.5-5.7 4.7-8.6 6.6-27 17.6-54 35.1-81.1 52.5-2.1 1.3-3 2.5-1.9 5.1 2.9 6.8 5.7 13.6 8.2 20.5.9 2.5 2.1 2.5 3.8 1.3l5.1-3.6c1.6-1.1 4.2-1.7 1.5-4.4-.5-.5-.6-1.6.2-2.1.8-.6 2.2-.9 2.5.1 1.4 4.3 3.5 1.4 5 .4 15.6-10.4 31.2-20.9 46.7-31.4.9-.6 2.4-.9 1.6-2.9-1-2.5 1.6-3.1 2.5-2.8 5.6 1.8 8.8-2.7 12.1-5.5 3.7-3 7.7-6.1 9.6-11.2.7-1.9 4.1-2.2 6-4.1 1.8-1.9 2.4-3.1.3-5.2-4.5-4.6-8.9-9.4-13.3-14.2-1.6-1.7-3-2.1-4.8-.2 1.6 1.9 3.1-.4 4.6 1.1zm-71.2-219c-23.3 12.9-46.5 25.8-69.5 39.1-4.9 2.8-10 5.8-13.4 11.1-1.2 1.8-1.1 2.7.2 4.1 3.9 3.9 7.7 7.9 11.4 12 1.8 2 3.2 1.7 5.4.6 23.7-12.9 47.6-25.7 71.4-38.5 1.1-.6 2.2-1.1 2.7-2.5 3.9-11.8 7.8-23.6 11.9-36-8 2.1-13.9 6.6-20.1 10.1zm78.9 5.5c-2.6-2.7-11-3.3-13.6-.7-6.6 6.6-13.1 13.5-19.7 20.2-1.2 1.2-1.8 2.4-.2 3.6 1.3.9 2 4.1 4.5 1.9 2-1.8 3.4-1 4.9.6 1.6 1.8 3.4 3.5 5.1 5.3.8.8 1.9 1.9 1.3 3-2.7 5.2 1.6 7.2 4.1 10 3.6 4 7.4 7.8 11 11.6.8.9 1.5 2.6 3 1.5 5.7-4.3 6.7 2.5 9.6 4.5 2.1 1.4 3.7 3.5 1.1 6.5-1.7 2 .9 3 1.9 4.3 1.2 1.6 2.4 1 3.6-.2 6.5-6.5 13.2-12.9 19.6-19.5 2.6-2.6 2.4-12.3-.2-15-6-6.3-12.2-12.6-18.2-18.9l.1-.1c-6-6.2-11.9-12.4-17.9-18.6zm37.8 132.7c-1.7.6-2.8 1.7-3.7 3.4-12.3 23.9-24.7 47.8-37.2 71.6-1.9 3.5-1.8 5.7 1.2 8.4 3.1 2.8 5.9 6 8.7 9.2 1.8 2 3.3 2.8 5.5.6.9-.9 2-2.3 3.7-1.5.4.2 1.6.1 1.2-.7-2.5-4.3 1.4-6.2 3.2-8.7 3.2-4.5 3.4-10.2 6.9-14.8 17.6-23.8 28.6-51.8 43.5-77.3.1-.2.1-.6.1-1.5-11.4 3.9-22.3 7.6-33.1 11.3zM313.4 541c5.5 5.7 5.5 5.6-.1 11.5-12.1 12.6-25.4 24-36.7 37.4-4.8 5.7-10.8 10.1-15.6 15.8-1.8 2.1-3.1 2-4.9-.1-4.4-4.8-9-9.4-13.5-14-.8-.9-1.8-2.3-3.1-.9s.2 2.4 1 3.2c10.2 10.8 20.6 21.6 30.7 32.5 2.2 2.4 3.6 2.1 5.7-.1 15.3-16 30.8-31.9 46.2-47.8 4.5-4.6 9-9.3 13.8-13.7 2.9-2.6 3.3-4.5.2-7.3-3.7-3.3-6.9-7.3-10.5-10.8-1.7-1.7-2.9-5.1-6.6-2.9-.9.5-1.8-1.1-2.6-1.9-4.3-4.4-8.6-8.9-12.8-13.3-.7-.8-1.4-1.8-3.7-.6 4.1 4.3 8.3 8.6 12.5 13zm436.1-101.8c2-2 2.8-3.4.3-5.9-10.1-10.2-20.1-20.7-29.9-31.2-2.4-2.6-4-2.5-6 .2-.6.8-1.2 1.5-2 2.1-11.3 7.8-15 19.5-17.7 32.7-1.7 8.3-.8 13.8 5.6 19 4.7 3.9 8.8 8.6 12.8 13.3 2.7 3.1 4.6 3.6 7.6.2 4.6-5.3 9.6-10.1 14.4-15.1l.1.1c4.9-5.2 9.8-10.4 14.8-15.4zM575.4 251.3c-1.7-1.8-2.9-2-4.7-.2-10.3 10.7-20.7 21.4-31.1 32.1-1.8 1.9-1.5 3 .2 4.8 6.8 6.9 13.5 14 20.1 21 1.2 1.3 2.4 1.8 4.2 1.2 6.9-2.2 14-2.9 21.1-3.9 3.3-.5 5.9-1.8 8.2-4.3 4-4.4 8.2-8.7 12.6-12.8 2.4-2.3 2.1-3.7-.1-5.9-5.2-5.1-10.2-10.4-15.2-15.7 0-.1.1-.1.1-.2-5.1-5.4-10.3-10.7-15.4-16.1zM236.8 598.1c-1.9-2-3.2-2-5.1 0-8.9 9.2-17.9 18.3-27 27.3-1.9 1.9-2.1 3.3-.2 5.3l31.2 32.7c1.5 1.6 2.7 1.7 4.4 0 9.1-9.4 18.3-18.8 27.5-28.1 2-2 1.8-3.3-.2-5.3-5.3-5.2-10.4-10.7-15.6-16l.1-.1c-5-5.2-10.1-10.4-15.1-15.8zm144.4 151c-1.8-2-3.1-2.1-5-.1-8.8 9.2-17.7 18.4-26.8 27.4-2.4 2.4-1.9 3.8.2 6 9.9 10.2 19.7 20.6 29.5 31 2.2 2.4 3.7 2.6 6.1.1 8.6-9 17.4-17.8 26.3-26.6 2.4-2.4 2.6-3.9.1-6.3-5.2-5.1-10.2-10.4-15.2-15.7-5.1-5.3-10.3-10.4-15.2-15.8zm76.8-84.6c-2.3 2.3-2.8 3.8-.2 6.2 4.4 4.1 8.4 8.6 12.6 12.9 1 1.1 1.6 2.3 3.6.4 9.8-9.4 19.1-19.3 28.7-28.9 6-6.1 11.8-12.4 17.9-18.4 2.2-2.2 2.6-3.5.1-5.9-4.2-4-8.1-8.4-12-12.7-2.1-2.4-3.5-2.3-5.7 0-7.4 7.9-15 15.7-22.6 23.5-7.4 7.5-14.8 15.3-22.4 22.9zM643.4 464c1.5 1.5 2.8 1.1 4.3.6 11.9-4.1 23.8-8.3 35.8-12.2 3.3-1.1 3.3-2.3.9-4.5-1.6-1.4-2.9-3-4.3-4.6-1.7-1.8-3.3-3.2-6.1-2.5-2.6.7-6.1-.4-6.8-2.6-2-6.4-8.5-7.2-12-11.7-3.7-4.7-8.2-8.7-12.3-13.1-1.9-2.1-3.9-3.4-5.5-.2-2.8 5.5-8.7 7.4-12.2 12.1-1.8 2.3-2.6 5.2-5.8 6.9-2.7 1.4-4 1.5-6.4.4 10.2 10.4 20.4 20.8 30.4 31.4zM475.3 348.8c3.2-.5 5.4-.1 7.7-1.7 20.9-14.1 43.9-23.9 67.3-32.5 5.5-2 5.5-2 1.6-6.1-5.2-5.4-10.4-10.7-15.4-16.3-2.2-2.4-3.6-2.2-5.7.1-6.4 6.9-13 13.5-19.6 20.4-.7-1.5 1.5-1.9.3-3.6-7.6 9.8-17.5 17.1-25.7 26.2-8.4 9.4-17.4 18.2-26 27.4 12-11.3 22.6-24.2 35.1-35.1-5.7 7.5-12.5 13.9-19.6 21.2zm127.2 239c-1.1 2.3-4.3 2.3-6.2 1.5-1.9-.8-2.9-.4-4.3.5-21.3 14.2-42.6 28.5-64.1 42.5-3 2-2.8 3-.5 5.3 3.8 3.7 7.6 7.5 11.1 11.6 2.4 2.7 3.8 2.8 6.4.1 13.1-13.9 26.4-27.7 39.7-41.4 10-10.4 20.1-20.7 30.1-31 1.1-1.1 2.6-1.9 2.8-4.5-4.9 5.7-11.7 8.5-15 15.4zM419.9 741.6c-1.9 1.9-2.5 3.3-.2 5.6 5.4 5.3 10.7 10.9 15.9 16.4 1.6 1.7 2.8 2.1 4.7.2 9.1-9.5 18.2-18.8 27.4-28.2 1.7-1.7 1.4-3-.1-4.5-5.5-5.7-11.1-11.4-16.5-17.1-1.9-2-3.2-1.2-4.7.4-4.4 4.7-9 9.3-13.5 14-4.4 4.4-8.6 8.9-13 13.2zm239.3-403c1.7 1.8 3 1.8 4.7-.1 9-10.2 18-20.4 27.1-30.5 1.6-1.8 1.3-2.9-.2-4.5-3.9-3.9-7.6-7.9-11.4-12-1.6-1.7-2.8-1.4-4.4.1-11.1 10.6-22.3 21.1-33.6 31.5-1.9 1.8-1.8 3-.1 4.8 4.8 4.9 9.4 9.9 14.1 14.8 1.2 1.2 2.2 2.3 3.9.7 2-1.9.8-3.1-.5-4.4-2.4-2.4-4.7-4.9-7.1-7.3.1-.1.2-.3.3-.4 2.5 2.4 4.9 4.8 7.2 7.3zM528.7 672.5c1.7-1.7 1.9-3.1.1-4.9-5.5-5.5-10.9-11.1-16.3-16.7-1.6-1.6-2.7-2.1-4.6-.1-8.9 9.4-18 18.7-27.1 27.9-1.9 2-1.4 3.1.2 4.8 5.3 5.4 10.7 10.9 15.8 16.5 1.8 2 3.2 2.1 5 .1 4.3-4.6 8.7-9.1 13.1-13.6l.1.1c4.7-4.8 9.2-9.5 13.7-14.1zM301.3 562.6c1.9-1.9 2-3.2 0-5.2-5.5-5.5-10.8-11.1-16.1-16.8-1.5-1.6-2.5-1.3-3.9.1-9.2 9.5-18.5 19-27.7 28.5-1.7 1.8-1.2 3.1.2 4.6 5.5 5.7 11.1 11.3 16.5 17.1 1.7 1.9 2.7.8 3.8-.5 4.6-4.8 9.2-9.5 13.8-14.3l.1.1c4.5-4.6 8.8-9.2 13.3-13.6zm14.1-57.4c-1.9 1.9-1.9 3.2 0 5.2 5.3 5.3 10.4 10.6 15.5 16.1 1.8 2 3.1 2.1 5 .1 8.9-9.2 17.8-18.4 26.8-27.4 1.8-1.8 1.7-3.1 0-4.8-5.3-5.5-10.5-11-15.6-16.7-2-2.3-3.2-1.7-4.9.2-4.3 4.6-8.7 9.1-13.1 13.6 0-.1-.1-.1-.1-.2-4.5 4.7-9 9.4-13.6 13.9zm377.7-94.9c2.1 2.2 3.3 2.1 4.2-1.1.9-3.3 2.2-6.5 3.4-9.7.2-.6.8-1.4.6-1.8-1.5-3.6-3-7.1 2.1-9.1-.5-.8-.9-1.7-1.5-2.4-7.9-8.3-15.9-16.6-23.9-24.9-1.3-1.3-2.3-1.9-3.8-.2-3.9 4.3-8.9 7.5-11.3 13.5-1.1 2.8-.5 3.6 1 5.2 4.9 5 9.7 10 14.5 15l-.2.2c5 5 10 10.1 14.9 15.3zm-134.5-50.2c.8-.4 1.6-1.1 2.3-1.7 4.9-4.6 8.4-10.7 14.1-14.5 2.9-2-.2-4.3.5-5.9 1.3-2.7 4.2 2.3 5.6-.5 1.4-2.7 5.2-5.5.3-8.8-1.8-1.2-3.1-3.3-4.7-4.9-.9-.9-1.8-1.3-2.8-.2-1 1.1-.1 1.7.5 2.4.9 1.1 1.5 2.2.2 3.4-1.7 1.5-2.6-.1-3.5-1.1-3.3-3.4-6.5-6.7-9.7-10.2-1.9-2.1-2.9-2-3.8.9-4.2 12.8-8.5 25.5-12.7 38.2-.4 1.2-.8 2.4.4 3.6 3.5 3.5 7 7.1 9.8 10.1-2.6-3.7-1.4-8.2 3.5-10.8zm94.8 36.4c-2.5 2.4-2.3 3.9.1 6.3 4.7 4.6 9.1 9.6 13.8 14.3 2.2 2.2 3.7 5.8 7.8 4.5.5-.1 1.5.6 1.9 1.3 3.1 5.1 5.6 3 8.7-.3 8.4-8.8 8.5-8.7.1-17.4-8.2-8.5-16.4-16.9-25.3-26.2.4 7.8-2.6 13.1-7.1 17.5zm114.3 17.8c-10.2-10.4-20.2-21-30.3-31.6-4.7-4.9-5.9 1.1-8.4 2.9-2.4 1.6-2.1 3.4-.1 5.1.9.7 1.7 1.7 2.9.6.9-.8 1.6-1.6 2.7-.3.8.9.6 1.8-.1 2.6-1.5 1.7-.1 2.6.9 3.7 2.3 2.5 4.7 4.9 7 7.4 1.2 1.3 2.2 2.5 4.3.9 1.6-1.1 3.5.4 2.3 2.3-1.6 2.5-.3 3.4 1.1 4.8 2.2 2.2 4.3 4.4 6.4 6.7.6.6 1.3 1.7 1.7 1.6 4.1-1.2 5.9-.4 4.3 4.4-.2.5 1.3 1.4 2.3.4 1-1 2-2.1 3.4-3.5 4.2-2.3 2.7-4.8-.4-8zM622.8 263.1c-9.7-10-19.3-20.2-29-30.2-1.1-1.2-2.2-3.8-4-2.6-2.6 1.8-5.5 3.8-6.6 6.9-.6 1.7 1.1 2.2 2.8 1.1 2.1-1.4 3.7.2 2.7 1.7-1.9 3.2.2 4.4 1.8 6.1 2 2.1 4.4 3.9 6 6.4 2 3.2 4.4-1.5 6.2.8 1.5 1.9-2.6 3.8.2 6 3 2.4 5.8 5.3 8.1 8.4 2.1 3 3.9-1.6 5.8.3 2 2-2.4 3.3-.2 5.6 3.5 3.7 4.4-.4 6-1.8 5.4-3 3.2-5.7.2-8.7zm-366.7 341c1.7 1.9 2.8 1.8 4.7.1 8.7-8.1 8.8-8 .3-16.7-3.2-3.3-6.2-6.6-9.3-9.9-.4-.5-.8-1.2-1.4-1.3-5.7-1.8-6.5 4.7-10 6.6-2.2 1.2-2 3 0 4.6 1.2 1 2.3 2.3 3.4 3.5l-.2.2c4.2 4.2 8.5 8.5 12.5 12.9zm213.8 102.2c-8.3-8.6-8.3-8.6-16 .5-1.4 1.6-1.5 2.6-.1 4.1 5.6 5.8 11.2 11.7 16.7 17.5.2.2.4.6.7.6 5.3.7 6.4-4.9 9.7-7.2 2.1-1.4 1.1-3-.3-4.4l-8.1-8.4c-.8-.8-1.7-1.8-2.6-2.7zm61.9-41.6c1.7 1.8 2.8 1.8 4.7 0 8.3-7.8 8.3-7.7.7-15.7-3.7-3.8-7.5-7.6-11.1-11.5-1.9-2.1-3.2-2.4-5.3-.2-7.6 7.7-7.7 7.7-.2 15.4 1 1 2 2.1 3 3.1l-.1.1c2.7 3 5.5 5.8 8.3 8.8zM420.5 776c4.4 4.5 4.4 4.5 8.6-.4 5.4-6.2 5.4-6.2-.1-12.2-4.1-4.4-8.3-8.6-12.4-13-1.7-1.8-3-2.2-5.1-.2-8.4 7.9-8.5 7.8-.5 16 1.1 1.2 2.2 2.3 3.4 3.5 2 2.1 4.1 4.2 6.1 6.3zM312.8 535.6c7.3 7.5 7.2 7.4 14.4.1 2.6-2.6 2.6-4.2.1-6.7-5-5-9.9-10.3-14.7-15.5-1.9-2.1-3.3-2.2-5.4 0-7.6 8.1-7.7 8-.1 16.1.9.9 1.8 1.9 2.7 2.8l-.1.1c1.1 1 2.1 2.1 3.1 3.1zM302.4 552c4.5 4.6 4.5 4.6 9.2-.2.7-.7 1.3-1.5 2-2.1 2.7-2.1 2.9-3.9.3-6.6-5-5-9.8-10.2-14.6-15.5-1.7-1.9-2.9-2.3-5-.3-8 7.5-8.1 7.4-.5 15.5 1.1 1.2 2.2 2.3 3.4 3.5l-.1.1c1.7 1.9 3.5 3.8 5.3 5.6zm309-250.1c-.4-.4-1.8.1-2.7.4-2.7 1-5.3 2.2-7.9 3.3-5.5 2.4-5.5 2.4-1.4 6.7 1.5 1.5 2.9 3 4.4 4.5 4.6 4.9 8.5 4.9 13.4-.1.7-.7 1.4-1.4 2-2.1 7.8-7.7 7.8-7.7-.6-15.2-1.8 2.6-3.1 6.8-7.2 2.5zm24.4 170.8c-10.5 20.3-21.1 40.5-31.6 60.8-.4.7-.7 1.5-1.1 2.2-.8 1.9.6 2.7 1.8 3.4 1.4.8 1.9-.4 2.4-1.5 11.8-22.9 23.7-45.8 35.7-68.9-3.9-.7-5.7 1.1-7.2 4zm121-51.1c-3.8-3.6-6-9.4-12-10.5-.5-.1-1.2-.7-1.4-1.2-2.6-6.6-7-11.2-13.3-13.9-1.5-.7-.4-2.6-1.2-3.4-1-1-1.6-3.3-3.7-1.7-1.6 1.2-2.2 2.4-.5 4.4 9.9 11.3 19.7 22.9 29.6 34.2 3.9 4.4 4.4-1.5 6.9-2.6-3.8-.2-2.9-3.9-4.4-5.3zM581.5 248.1c10.1 9.5 20.1 19.1 30.1 28.7 1.1 1 1.8 3 3.8 2.2.9-.4 2.2-1.3 1.8-2.6-.4-1.6-1.6-2.8-3.4-2.9-2.9 0-1.6-3.2-2.9-4.2-4.2-3.5-6.3-9.5-12.3-10.8-2.3-.5-.7-3.3-2.1-4.5-4.1-3.4-6.3-9.1-12.1-10.3-2.1-.4-.6-3-2-3.9-5.4 4-5.4 4.1-.9 8.3zm33.8 187.6c-.8-.8-1.7-1.4-2.6-2.2-1.8-1.7-2.8-.2-3.9.9-1.2 1.2-1.7 2.2-.3 3.6 9.2 9.6 18.2 19.3 27.5 28.8 2.3 2.3 4.3-.4 7.6-.9-10.6-10.1-19-20.6-28.3-30.2zM411.8 504c3.4 2.8 5.5 7.5 10.9 7.7 1.9.1 2.7 2.3 2.9 4.1.1 1.1-.4 2.3.7 3.1 1.3.9 2 3.8 4 2.2 2.4-1.9-.3-3.1-1.3-4.2-5.7-6.2-11.4-12.4-17.2-18.5-.8-.8-1.6-1.6-2.6-2.1-8.1-3.7-16.3-7.3-25.2-10.1 4.3 4.4 8.5 8.9 12.8 13.2.4.4 1.4 1.1 1.6.9 4.1-3.2 5.6 1.1 7.5 3.1 11.2 11.4 22.3 23 34.2 33.7l-9.1-9.4c-8-8.3-15.9-16.6-23.9-24.9-1-1.1-3.2-2-2.2-3.8 1-1.7 2.1.9 3.2.7.9-.2 1.7-.7 2.5-1.1-.9 2.4-.6 3.9 1.2 5.4zm106.5-172.9c-7.8 3.7-15.5 7.7-23.1 11.8-6.2 3.4-13 6.3-16.4 14.3 20.4-11.4 40.4-22.6 60.3-33.8-.1-.3-.3-.6-.4-1-6.8 2.9-13.7 5.6-20.4 8.7zm190.4 55.7c-.5 2.8 2 4 3.7 5.3 1.5 1.2 2.5-.7 3.6-1.6 10.5-9.3 10.5-9.3.7-19.4-1-1-1.9-2-3.6-3.8-1.7 7.1-3.2 13.2-4.4 19.5zm-229.5 29.4c2.6 3.2 4.3 1.3 4.8-1.4.6-3.1 1.9-4.7 5-5.1 2.6-.4 3.9-2.1 1.7-4.8-5.1-6.3-11.5-6.5-16.8-.3-3.7 4.4.5 6.2 2.8 9 .7.7 1.7 1.6 2.5 2.6zm-23.6 126.2c1 1 2 3.3 3.8 1.7 2-1.8-.4-2.9-1.3-3.9-13.2-14-26.5-28-39.7-42-1.6-1.7-3.3-3-6.6-1.2 14.7 15.4 29.2 30.5 43.8 45.4zm173.6-262.7c-1.7-1.9-2.9-2-4.6-.1-2.6 2.9-5.3 5.7-7.9 8.5-.9.9-2.1 1.8-.9 3.2 1 1.2 1.8 2.8 3.9 2.2 5.9-2 12-2.9 19.1-3.9-3.8-3.9-6.8-6.8-9.6-9.9zm13.4 62.4c3.9 4 8.4 6.8 14.9 4.5-6.7-6.9-13-13.5-19.9-20.6-2.3 7.2.9 11.9 5 16.1zM547.8 398c1.7-2.2 3.4-5.7.5-7.1-2.6-1.3-2.3-5.9-6.2-5-1.7.4-3.4.8-4.7 2.2-2.6 2.7-2.2 7.2.7 10 3.1 2.9 7.3 3 9.7-.1zM686 430.2c-5.2 5.2-5 6.4.3 11.6 2.3 2.2 3.5 2.4 4.2-1.1 1.1-5.8 2.3-11.5 3.4-17.3-.3-.2-.6-.3-.9-.5-2.3 2.4-4.6 4.9-7 7.3zM521.3 547.6c1-1.1 3-2.4.9-3.9-1.6-1.2-2.1-5.3-5.4-2.9-1.3 1-2.2.6-3.4.2-2.8-.9-3.9 1.7-5.1 3.3-1.2 1.5-1.7 3.5 0 5.3.6.6 1.1 1.2 1.6 1.8 2.4 3.5 4.9 4.3 7.5.3.4-.7 1.1-1.2 1.7-1.7.6-.8 1.4-1.5 2.2-2.4zm-64.6 0c12.5 12.9 24.3 25.1 36.2 37.5-.4-4.1-31-36.5-36.2-37.5zm108.7-234.2c.1.6.1.8.1.9 6.7 9 6.7 9 14.2 1.4 1.6-1.6 3.1-3.2 4.7-4.9-6.5.3-12.9.3-19 2.6zM434.8 523c-.9-.9-1.7-2.2-3-.6-.9 1.2-.4 2 .5 2.9 5.6 5.8 11.1 11.7 16.6 17.5.7.8 1.4 1.8 2.8 1.1 2-1.1 2.3-.1 1.6 1.6-.4 1-.6 2.1.5 2.5.4.2 1.3-.6 1.8-1.1 1-.9.4-1.7-.3-2.5l-10.5-10.8.1-.1c-3.4-3.5-6.7-7-10.1-10.5zm69.6 89.4-.4-.4-78.2 80.9c.1.2.3.3.4.5 26-27.1 52.1-54.1 78.2-81zm-182.1-29.2c26.4-25.7 51.2-53 76.9-79.6-25.3 26.8-52.2 52-76.9 79.6zM477.9 352c-1.7-2-3.1-.8-4.5.1-5.8 3.7-9 10.4-15 13.9-.7.4-1.2 1.1-.7 2.1.5.9 1.5 1 2 .4 5.1-5 11.8-7.3 16.7-10.7 1.8-2.3 3.4-3.6 1.5-5.8zm65.4 300.3c.1.2.3.3.4.5 23.9-24.7 47.8-49.4 71.6-74.1-.1-.2-.3-.3-.4-.5-23.9 24.7-47.7 49.4-71.6 74.1zm129.4-212.7c2.1.2 4.6.3 5.6-1.7 1.1-2-1.5-2.8-2.6-4.1-1.8-2.1-3.9-3.9-5.7-6-1.9-2.3-3.1-1.7-3.9.8-1 3.2-.6 6.2 2.3 9.1.9.9 2.5 1.7 4.3 1.9zm-126.4-75.3c-1-.8-1.9-3.3-3.2-1.8-1.2 1.5-2.8 4-.7 6.2 2.4 2.6 5 5.1 7.4 7.7 1.5 1.6 2.4.6 3.5-.5 1.3-1.2 2.2-2.3.4-4-1.6-1.4-2.9-3-4.4-4.5l.1-.1c-1-1-1.9-2.2-3.1-3zm-31.5 283.8c-.8-.8-1.8-2.4-3.1-1.1-1.1 1.1.2 2.2.9 2.9 5.7 6.1 11.5 12.2 17.3 18.3.6.7 1.5 1.6 2.4.6 1.1-1.1.3-2.2-.5-3-3-3.2-6-6.3-9-9.4l.1-.1c-2.7-2.6-5.4-5.4-8.1-8.2zm-94.8 52-.6-.6c-19.1 19.8-38.2 39.5-57.3 59.3l.6.6c19.1-19.8 38.2-39.6 57.3-59.3zm46.1-296.2c-.5-.3-1-.7-1.5-1-8.7 13.9-17.3 27.8-26 41.7.5.3.9.7 1.4 1l26.1-41.7zm187-34.9.7-.7c-12.5-13-25.1-25.9-37.6-38.9-.2.3-.4.5-.6.8 12.5 12.9 25 25.8 37.5 38.8zM510.3 594.5c-3.4-3.4-6.7-7-10.1-10.4-.9-1-1.9-2.6-3.5-.8-1.3 1.4-.2 2.4.7 3.3 4.3 4.5 8.7 9 13.3 13.8 1.4-2.6 1.2-4.3-.4-5.9zm148.2-60 .3.3c18.4-19 36.8-38 55.2-57.1l-.3-.3c-18.4 19.1-36.8 38.1-55.2 57.1zm-77.7-295.3c-.1-.2-.3-.3-.4-.5-18.2 18.8-36.4 37.6-54.5 56.4.2.1.3.3.5.4 18.1-18.7 36.3-37.5 54.4-56.3zm-146 528.4c.4.3 1.2.5 1.7.3.7-.3.7-1.1.2-1.6-6.7-7-13.4-13.9-20.2-20.9-.4.4-.8.8-1.3 1.2 6.2 7.3 12.5 14.5 19.6 21zm125.9-195.8c.3.5.5.9.8 1.4 13.6-8.8 27.1-17.5 40.7-26.3l-.9-1.5c-13.5 8.7-27 17.5-40.6 26.4zm-22.6-284.3c.5 5.3 4 7.3 6.3 9.5 2.4 2.2 4.5 4.5 6.6 7 2.1 2.5 3.8 6.4 9 6.2-7.5-7.7-14.3-14.7-21.9-22.7zm-65.8 107.4c.3.5.5 1.1.8 1.6 10.9-5.9 21.8-11.8 32.7-17.6-.3-.5-.5-1.1-.8-1.6-10.9 5.9-21.8 11.8-32.7 17.6zM324.7 524.7c1.9 2 3.7 4.1 5.6 6 .3.4 1.2.5 1.7.3.8-.3.6-1.3.2-1.7-6.7-7-13.5-14-20.2-21l-1.5 1.5c4.6 5.1 9.4 10 14.2 14.9zm320.9-54.8c-.5-.3-.9-.5-1.4-.8-5.8 11.2-11.7 22.3-17.5 33.5.5.3.9.6 1.4.9 5.9-11.1 11.7-22.3 17.5-33.6zm-279 25.8c-5.6-8.6-12.9-15.6-19.8-22.9l-1.2 1.2c7 7.2 14 14.5 21 21.7zm260.6 9.7c-.5-.3-1-.5-1.4-.8-5.8 11.2-11.6 22.4-17.4 33.5.5.3.9.5 1.4.8 5.7-11.1 11.5-22.3 17.4-33.5zM477.5 682.2l-1.2 1.2c6.5 7.6 13.5 14.8 20.7 21.7l1.3-1.3c-6.9-7.2-13.8-14.4-20.8-21.6zM305 559.2l.8-.8c-6.9-7.1-13.8-14.3-20.7-21.4-.3.3-.5.6-.8.8 6.9 7.1 13.8 14.2 20.7 21.4zm-54 16.3c5.6 5.9 11.1 11.7 16.8 17.6.7.7 1.5 2.3 2.6 1.3 1.3-1.2-.3-2-.9-2.7-6.3-6.6-12.7-13.2-19.5-20.2-.8 2.6.3 3.2 1 4zm199.9 134.4-.8.8c6.9 7.2 13.9 14.4 20.8 21.6l.8-.8c-6.9-7.3-13.9-14.5-20.8-21.6zm-163.7-90.7c10.2-8.8 19-19.1 28.2-28.9-10.9 8.1-18.8 19.3-28.2 28.9zm374.5-188.7.9-.9c-6.8-7-13.6-14-20.3-21 5.6 8.2 12.3 15.3 19.4 21.9zM595.5 367c2.5-2.5-1-4.3-2.6-5.7-1.7-1.5-3.1-6.4-6-3.2-2.5 2.8 2.8 3.5 2.9 5.8 2.3 1.1 2.9 5.9 5.7 3.1zm-393 258.7.3.3c11.4-11.8 22.9-23.6 34.3-35.5l-.3-.3c-11.4 11.9-22.9 23.7-34.3 35.5zM534 385.9c2.2-2.2 2.1-4.9.2-7.1-2-2.2-4.6-2.3-6.9-.3-2.3 2.1-2 4.6-.1 7.1 2.2 1.9 4.5 2.6 6.8.3zm-73.4 160.3-.2.2 34.5 35.7.2-.2-34.5-35.7zm259.2-152.9c-1.6-2-2.8-2.3-4.5-.4-1.6 1.7-3.3 3.6-6.3 2.5 2.2 3.9 4.8 3.7 7.1.9 2.2-2.5 3.5-1.5 5.2.4 3.2 3.5 6.6 6.9 10 10.4l.2-.2c-4-4.6-8-9-11.7-13.6zM611.2 281.5c2.4 2.3 2.9 4.1.1 6.3-.7.6-1.4 1.4-1.9 2.2-.6 1.1.3 1.9 1 2.5 1.4 1.2 1.2-.5 1.6-1.1.8-1 1.6-2 2.6-2.9 1.8-1.7 1.8-3.2.1-5-4.6-4.7-9.2-9.5-13.8-14.2-.3.3-.6.6-.8.9 3.7 3.7 7.3 7.6 11.1 11.3zm14.6 117c2.3-2.4-1.5-4.1-3-5.5-1.6-1.5-2.9-6-5.6-3.3-2.9 2.9 2.2 3.7 2.7 6.1 2.3.5 3 5.8 5.9 2.7zm-15.4-7.2c-2.9 2.6 1 4.1 2.3 5.6 1.6 1.8 3.2 6.2 5.8 3.8 3-3-2.7-3.9-2.9-6.7-2.3-.2-2.5-5.1-5.2-2.7zm-25.3-26.1c-2.8 2.8 1.4 4.3 2.8 5.8 1.5 1.6 3.1 5.9 5.6 3.1 2.5-2.8-2.6-3.6-2.7-6-2.4-.7-3.1-5.5-5.7-2.9zM389.8 811.1c.1.1.2.3.4.4 10.2-10.5 20.4-21.1 30.6-31.6-.2-.1-.3-.2-.5-.3-10.2 10.5-20.3 21-30.5 31.5zm130.9-257.5c.4-.5.4-1.3-.2-1.7-1.1-.8-1.8.1-2.4.8L507 565.3c.3.3.7.6 1 .9 4.8-3.5 8.7-8.1 12.7-12.6zm-96-152.5c4.5.7 5.1-4.3 8.5-5.6-.5 3.2-3.8 3.6-4.5 6 5.7-2.1 5.4-8.7 8.3-13.1-4.1 4.1-8.1 8.3-12.3 12.7zm-150 230.2c-6.8 7.1-13.7 14.2-20.5 21.2 6.7-7.2 13.7-14 20.5-21.2zm379-342.7c1-1.9 2.1-3.6 3.9-4.7.6-.4.5-1.2.1-1.7-.4-.6-1.2-.8-1.7-.3-2 2-5.7.2-7 3.1-.6 1.4 2 2.4 1.7 4.3 1.3.7 2.5.1 3-.7zm41.9 126.1c-4.3 3.6-8.9 6.8-11.7 11.9 5.5-2.4 8.8-7 11.7-11.9zm-242.5-39.1c-.4-.4-.8-.7-1.2-1.1-5.3 4.2-9.1 10-12.9 15.7 4.8-4.9 9.4-9.8 14.1-14.6zm33.1 142.7c-6.5 7.1-13.7 13.3-19.6 20.9 5.7-5.9 11.5-11.8 17.2-17.8 2.2-2.3 4.4-4.2 7.8-3.4-2.1-2.1-3.8-1.5-5.4.3zm-15.1 60.4c-2.1-7.8-9.3-9.5-12.5-14.9-.3.3-.7.6-1 .9 4.2 4.4 8.6 8.9 13.5 14zm203.4-97.6c-.3-.2-.6-.4-1-.6-3.5 6.6-7.1 13.3-10.6 19.9.3.3.7.5 1 .8 3.5-6.7 7.1-13.4 10.6-20.1zM268.4 629.5c.2-3.8-5.6-9.9-9.8-10.2 3.4 3.6 6.6 6.8 9.8 10.2zm189.3 43c-.2-.2-.9-.2-1.3 0-.7.4-.5 1.1 0 1.6 2.9 2.7 5.1 6.1 8.9 7.8-1.5-4.1-5-6.4-7.6-9.4zm134.4-363.3c-3.1-.1-9.2 5.7-10.5 10.9 3.8-3.9 7.2-7.5 10.5-10.9zM413.1 780c2.1-2.6-1.9-4.1-3.4-5.8-1.4-1.6-3.3-5.5-5.2-3.5-1.9 2 2.8 3 3.1 5.2 2.4 1.4 4.4 5.5 5.5 4.1zm215.7-220.6c-4.3 2.1-7.3 5.7-10.1 9.6 4-2.4 7.7-5.2 10.1-9.6zm-60-237.9c-1-3.6-2.8-6.4-6.9-6.8 1.7 3 3.8 5.4 6.9 6.8zM712.9 473l.9-.9-9.3-9.6c-.3.4-.7.8-1 1.1 2.7 3.5 5.5 7 9.4 9.4zm-378.4 70.7c-.5-.6-1.2-.6-1.6 0-.5.6-.1 1.2.3 1.7l7.9 8.2c.4-.4.7-.8 1.1-1.2-1.8-3.5-5.1-5.8-7.7-8.7zM247 605.8c-1.8-4.1-5.1-6.8-8.5-9.3 1.7 4.3 4.5 7.4 8.5 9.3zm144.6 152.6c0-4.1-5.1-9.6-10.3-10.8 3.4 4.3 6.6 7.6 10.3 10.8zm70.6-73.4c-1.8-4.2-4.9-7-8.7-9.3 2.1 4.1 5.1 6.9 8.7 9.3zm259.1-285.2c1.9 4 5.3 6.7 8.6 9.3-1.9-4.2-4.9-7.1-8.6-9.3zM392.5 759c3 4.3 6.3 7.3 10.2 10.9-.6-4.7-5.5-9.9-10.2-10.9zM732 411.1c1.9 4.1 5.3 6.6 8.8 9.1-2.7-3.4-4.7-7.4-8.8-9.1zm-38.4 40c0 3.4 4.5 8.6 9.3 9.6l-9.3-9.6zM250 607.7c-.4-.1-1 .1-1.2.4-.4.6 0 1.2.4 1.7.3.4.6.7 1 1.1 2.3 2.4 4.6 4.8 7.5 7.8-.2-3.1-5.9-10.6-7.7-11zm493-185.5c1.8 4.1 5.1 6.9 8.5 9.5-1.8-4.2-5.1-6.8-8.5-9.5zM330.2 546.6c1.7 4.1 5 6.8 8.5 9.3-1.8-4.2-5.2-6.7-8.5-9.3zm258.4-285.5c1.9 3.9 5 6.7 8.5 9.1-2.1-3.8-4.8-6.9-8.5-9.1zm-54.1 296.8c-1.7-3.9-4.7-6.6-8.2-8.9 1.7 3.9 4.8 6.5 8.2 8.9zm43.6-308.4c-.2.2-.4.4-.7.6l8.9 9.2.6-.6c-2.9-3.1-5.9-6.2-8.8-9.2zm92 176.4c3.2 3.3 6.4 6.6 9.6 10-2.4-4.2-5.4-7.7-9.6-10zm-62.4-144.6c-2-3.7-4.6-6.8-8.3-8.8 1.9 3.8 4.9 6.5 8.3 8.8zm109.2 192.9.3.3c5-5.2 10.1-10.4 15.1-15.6l-.3-.3c-5 5.2-10 10.4-15.1 15.6zM402.8 632.8c-.5-.5-.9-1.4-1.9-1.1-.8.3-.8 1.4-.5 1.5 1.1.3-1.4 2.7 1.1 1.9.4-.1 1.5.6 1.4.9-.5 4.2 2.4 1.4 3.4 2.3.2-.4.4-.8.7-1.1-1.4-1.5-2.7-3-4.2-4.4zm304.8-230c-2.5 2.4-6.8 3.1-6.2 8.1.3-4.2 6.1-3.6 6.2-8.1zM596.8 302.4c3.9-.9 6.8-3.1 9-8.1-4.6 2.1-5.6 6.5-9 8.1zm26.5 272.7c-1.6-1.6-2.6.9-3.7 1.7-1.1.7-2.3 1.8-.9 3 1.3 1.1 2.2-.3 3.2-1.2.7-1 2.7-2.2 1.4-3.5zm-374.4 81.3-.3-.3c-4.3 4.4-8.6 8.9-12.9 13.3l.3.3c4.3-4.4 8.6-8.8 12.9-13.3zm93.8 124 .2.2c3.9-4 7.8-8.1 11.7-12.1-.1 0-.2-.1-.2-.1-3.9 3.9-7.8 8-11.7 12zm64 18.1c1.3 1.3 2.3-.3 3.2-1 1-.9 2.6-2.2 1.4-3.6-1.4-1.7-2.4.4-3.4 1.1-.8 1-2.7 1.9-1.2 3.5zm-27.2-358.2c-1.4-1.1-2.5.5-3.5 1.4-.9.9-2.3 2-1 3.2 1.9 1.8 2.3-1.1 3.6-1.6.4-1 2.6-1.7.9-3zm1.8 171c-1.4-3.1-3.6-4.8-6.2-6.1 1.8 2.1 1 6.8 6.2 6.1zm181.4-358.1c-1.4-1-2.1.9-2.9 1.6-.7.7-2.4 1.5-1.3 2.6 1.4 1.4 2.5-.2 3.6-1.3.6-.8 2.2-1.8.6-2.9zm-9 9.6c-1.5-1.6-2.4.5-3.4 1.3s-2.3 2-1.2 3.2c1.5 1.6 2.2-.8 3.3-1.3.8-1 2.6-1.9 1.3-3.2zm156 223.3c-1.3-1.2-2.3.4-3.1 1.3-.8.9-2.5 1.8-1.3 3.1 1.5 1.7 2.3-.6 3.4-1.2.8-.9 2.3-1.9 1-3.2zm-266.1 58.4 8.3 8.6c-1.6-4-4.7-6.5-8.3-8.6zM565 634.3c-1.3-1.2-2.3.4-3.1 1.3-.9 1-2.6 2.1-1 3.6 1.3 1.2 2.1-.6 3.1-1.3.6-1.2 2.7-2 1-3.6zM437.4 381.2c-1.6-1-2.5.8-3.4 1.7-.7.7-2.1 1.8-.8 2.7 1.9 1.5 2.4-1.3 3.5-1.6.8-1 2.3-1.9.7-2.8zm48.3-49.3c-1.3-1.2-2.2.4-3 1.3-.8.8-2.4 1.8-1.1 3.1 1.3 1.3 2-.7 3-1.3.5-1 2.5-1.7 1.1-3.1zm-38.4 39.4c-1.3-1.2-2.3.3-3.1 1.2-.9.9-2.4 1.9-1.2 3.2 1.5 1.6 2.3-.7 3.3-1 .7-1.2 2.4-2.1 1-3.4zm29.1-29.7c-1.3-1.5-2.5.2-3.5 1.1-.9.9-2.3 2-1.1 3.2 1.5 1.6 2.2-.7 3.3-1.3.5-1 2.6-1.6 1.3-3zm117.5 263.1c-1.1-1.1-2.4.3-3.2 1.2-.8.9-2.3 1.9-1.1 3.2 1.3 1.4 2.2 0 3.1-.9.6-1.1 2.8-2 1.2-3.5zM452.4 366c1.2 1.4 2.3 0 3.1-1 .8-1 2.9-1.9 1.3-3.5-1.2-1.2-2.2.4-3.1 1.2-1 1-2.4 2-1.3 3.3zm98.7 283.1c1.4 1.4 2.2-.5 3-1.3.9-.8 2.3-1.8 1.1-3.2-1.4-1.7-2.1.4-3 .7-.8 1.3-2.7 2.2-1.1 3.8zM719.4 476c-1.1-1.1-2.3.4-3.1 1.3-.8.9-2.3 1.9-1.1 3.2 1.3 1.5 2.1-.4 3.1-1.1.6-1 2.8-1.8 1.1-3.4zm-19.3 20c-1.5-1.4-2.4.6-3.3 1.5-.8.8-2.4 1.8-.9 3.1 1.4 1.1 2.1-.8 3-1.4.8-.9 2.3-2 1.2-3.2zm-9.5 9.8c-1.5-1.7-2.3.6-3.2 1.4-.8.7-2.7 1.5-1.2 3 1.2 1.2 2.2-.3 3.1-1.2.8-.9 2.5-1.9 1.3-3.2zm-19.6 20c-1.6-1.3-2.4.7-3.4 1.6-.7.7-2.2 1.6-1.1 2.7 1.4 1.5 2.5-.2 3.5-1.1.8-1 2.4-2 1-3.2zm-9.4 9.4c-1.2-1.2-2.1.7-2.9 1.5-.8.9-2.9 1.8-1.4 3.3 1.1 1.1 2.2-.5 3.1-1.3.8-1 2.6-2.1 1.2-3.5z"/><path d="M529.7 438.1c.7-1.7.5-2.7-1.5-1.6s-3.8 2.6-6.3 2.3c1.9-1.1 3.8-2.3 5.7-3.4-.1-.4-.2-.7-.3-1-1.3-2.2-5.7-2-4.5-6 1.3-4.5 6.2-8.1 10.6-7.8 2.5.2 3-.7 2.8-3-.3-3.1-1-5.4-3.8-9.9 0 3.6.2 6.8-2.3 9.3-2.9 2.9-6.1 4.1-10 2.7-3.7-1.4-5.5-4.2-5.7-8.3-.2-3.7-2.5-7.6.7-11 2.5.1 5 .2 7.3-1.1 5.9.7 9.1 5.4 13.1 9.8-1.6-6.7-7.3-8.3-11.2-11.7v.1c7.2 1 13.8 8.4 15.2 17.3.6 3.4 0 7.3 4.3 8.9 1.7.6 1.1 2.2.6 3.8-.8 2.8-1.8 5.8.7 8.3 1.8 1.9 1.7 4 .5 5.8-1.3 1.9-3.2 1.5-5.2.8-3.9-1.3-7-.2-9.4 3.4-4.2 6.2-8.7 12.2-13.1 18.2-1.2 1.6-2.4 2.9-.5 5 1.2 1.4.6 3.2-1.3 4-1.7.8-8.6-3.7-9.1-6-.4-1.6 0-3 1.7-3.6.4-.1 1.1-.3 1.4-.1 2.9 1.8 4-.6 5.3-2.3 4.5-6.3 8.9-12.8 13.6-19.1 1-1.4 1.2-2.5.9-4l-.2.2zm6.6-7.2c2.7-3.8.7-6.2-2.4-8.2-3.2-2-4.8-.4-7.1 2.2-3.3 3.8-2.7 6.1 1.4 8.1 2.1 1 3.2 3.6 5.8 3.8 2.4-1.4 4.6-2.7 2.3-5.9zm-14.1-23.2c-.1 1.2-1.5 2.4-2.3 3.5-.7.9-3.1-1.4-2.6 1.3.4 2.1 1.6 3.8 3.9 4.6 1.8.6 4.8.5 4.8-.2.1-2.7.7-3.9 3.3-5.1 1.1-.5 0-3.9-1.8-5.7-2.1-.9-4.7-4.4-5.3 1.6zm9.9 34.4c-.4-.3-.9-.7-1.3-1-5.7 7.9-11.3 15.8-17 23.7.4.3.9.7 1.3 1 5.7-7.9 11.3-15.8 17-23.7zM558 458.8c-1.3 2.4 0 2 1.4 1.5.5.3 1 .7 1.6 1 2.2 1.1 5.9-.8 6.5 3.2.7 4.8-2.1 10.2-5.9 11.5-2.7 1-2.6 2.1-1.4 4.3 3.6 6.5 9.4 9 16.1 9.8.9 2.2 3.5 1.2 4.7 2.7-7.7 2-14.3 0-20.2-5.5-2.9-2.7-4.1-6.5-6.8-9.3 1-.7 2.1-1.4 3.1-2.1-.9-1.3-2.7.3-3.4-.9-1.2-2-2.8-2.4-3.9-.7-1.4 2.4 1.6 2.5 2.5 3.8-2.5.2-4.2 0-4.2-3.5 0-2.9-1.1-5.8-4.2-7-2.1-.8-3-2.3-2.7-4.6.4-2.3 1.8-3.2 4-3.3 4.2-.3 6.3-2.9 7.1-7 .5-2.5.3-5.3 2-7.4.8 3.9-1.5 7.5-.7 11.4 3.3-9.3 3.6-19.3 6.5-28.6h.3c-1.5 9.6-3.1 19.2-4.6 29.1 2.2-.7 2.7-2.4 3.9-3.4 3-2.5 5.5-6.1 10.1-5.2-4.7 2-9 5-11.8 10.2zm-3 11.1c-.3 4.2 2.7 4.5 5.6 4.7 3.2.2 4.2-1.8 4.7-4.8 1.1-6.2 1.2-6.2-4.8-7.2-2-.3-4-1-6-1.1-4-.2-2.4 3.5-3 5.4-.9 2.7 1.1 2.4 2.8 2 .2.4.4.7.7 1zm16.4 21.2c-6.1-2.6-10.9-6.7-14-12.8 1.4 7 6.7 11.9 14 12.8z"/><path d="M576.5 490.1c.9 2.2 3.5 1.2 4.7 2.7 8.5-1.5 15.6-8.5 16.9-16.5-3 4.7-4.8 10.6-11.1 12.2 5.6-3.1 7.6-8.8 10-14.3-.7-3.4 1-7.3-1.7-10.3h.1c-.3 3.8.8 7.6-.4 11.9-2.1-2.5-3.4-2.4-5.5 0-4.9 5.8-5.4 5.6-10.4.2-.4-.5-.9-.9-1.3-1.4-4.3-4.5-4.3-4.9.3-9.3 1.8-1.8 4.3-3.2 1.9-6.7 5.3 3.1 8.5 8.1 13.1 11.5-3.4-3.9-7-7.6-10.5-11.4-.8-.9-1.5-2-2.7-1.1-1 .7-2.8 2.3-2.1 2.8 3 2.5-.1 3.2-1 4.3-5 5.3-5 5.3 0 10.6.8.8 1.5 1.7 2.3 2.5 5.2 5.5 5.3 5.4 10.8.5.8-.7 1.3-3.2 3.1-1.6 1.6 1.4.6 2.8-.3 4.3-3.9 6.3-9.8 8.1-16.2 9.1zM494.9 420.1c-.7 9.9 4.9 16 12.5 20.1 7.5 4.1 15.3 3.7 22.2-2.3v.2c-4.6 1.6-9 3.6-14 3.3-8.3-.6-16.6-7.1-17.3-14.2 4.4 8.5 10.5 13.6 20.2 12.4-7-1.3-13.5-3.4-17.5-10.2-3.1-5.2-2.9-10.8-2.5-16.5h.1c-2.1 2-1.3 4.8-1.6 7.2-.6 3.5-1.4.1-2.1 0zM560.9 428.2c1.5-1.9 5.8.2 5.4-3.8-.4-4.2-4.4-2.6-6.8-3.6-1.8-.7-3.9-1-5 1.2-1.2 2.2.2 3.3 2 4 1.8.8.8 2.2.6 3.4-.6 4.5-2.2 8.9-2 13.5 2.5-4.1 1.9-9 3.2-13.4.3-1.1.1-3.7 2.3-1.3h.3z"/><path d="M580.6 447.4c2.9 2.7 7.5 2.6 10.6 7.2-5.6-3.2-10.3-6-15.9-5 3.3 2.6 9.6-.6 10.9 6 5.9-.6 6 5.6 9.2 8.2h-.1c1-3-2.8-4.6-2.2-7.9 3.4 3.7 4.4 8.1 5.4 12.4 1.6-8.8-7.5-19.6-17.9-20.9zM515 400.4c2.5.1 5 .2 7.3-1.1-.8-1.2-2.7-.1-3.5-1.6 1.9-1.4 3.7.8 5.4-.3v.1c-3.7-2.5-7.6-2.6-11.6-.8.8 1.2 2.9-.7 3.4 1.4-10.6 2.3-16.3 7.2-17.4 14.8h-.1c1.2-.7 1.3-2.1 2-3.2 3.4-5.4 7.4-10 14.5-9.3z"/><path d="M494.9 416.6c2.2-3.8 2.6-8.3 5.6-11.8 3.4-4 8-5.8 12.3-8.1-9 .4-17.4 9.8-17.9 19.9zM319.2 665.5c.8 2 2.3 1.8 3.9 1.4 12.2-2.9 20.8-19 15.5-30.7-2.8-6.2-8.1-11.2-13.8-14.5-5.2-3-11.5-2-17.1.4-11.4 4.8-16.8 19.1-11.7 31.5 2.2 5.3 6 9.2 11 11.8 1.2.6 2.7 2.2 4.1.1-.8-.3-1.5-.7-2.3-1-6.4-2.3-10.6-6.8-12-13.8-.6-4.1-1.9-8.3 0-12.4-.1-.4-.2-.7-.3-1.1 1.9-8.1 8.8-14.5 16.5-15.5 1.1-.1 2.3-.4 2.8 1.1 2.4-1.3 3.9.9 5.8 1.5 11.1 3.4 15.1 11.6 14.8 22.8 1.7 2.1 1 4.2-.2 6.2-1.9 6.5-6.1 10.2-12.5 11.5-.8 0-1.5 0-2.3-.1-.6.3-1.4.5-2.2.8zM375.9 718.7c7.7-1.8 11.9-7.6 13.8-14.7 1.9-7.1 2.2-14.4-4.1-20-4.1-3.7-6.9-9.2-13-10.2-1.9-.3-3.9-1.1-4.8 1.6v-.2c6.1 1 11.4 4.2 14.8 9 3.6 5.1 7.2 11 5 18.2 1.5 1.6.4 3-.3 4.5-2.2 5.5-6.8 8.7-11.4 11.8z"/><path d="M296.8 638.3c-1.9 4.1-.6 8.2 0 12.4 3.1 5.4 6.6 10.5 12 13.8.8.3 1.5.7 2.3 1 2.4.1 4.7 2.2 7.2.3 0-.7 0-1.4.1-2.1-15.4.9-20.2-10.9-19.5-21.9-.3-.9-.7-1.8-1-2.7-.4-.3-.7-.6-1.1-.8zM345.9 691.1c2.7-4 4.2-8.9 8.3-11.8 2.6-1.8 4.8-4.5 8.5-3.2l1.8-.3c1.1-.2 2.3-.4 3.4-.7v.2c-.6-2.1-2.1-2.1-3.8-1.9-8.6 1-16.4 8.5-18.2 17.7zM346.2 703.1c1 8.9 9.2 16.6 18.3 17.2-1.9-1.9-5.2-1.2-6.7-3.8-1.5.5-2.2-.8-3.2-1.6-4-3-6.1-7.5-8.4-11.8zM388.4 675.7c-1.6-2-2.9-2.7-4.4-1.1-1.8 2-.1 3.1 1.1 4.4 1.3 1.4 2.6 2.6 4.2.5 1.8-2.1-.3-3.1-.9-3.8zM334.6 625.9c1.1 1.6 2.1 2.8 3.9 1.1 2-2 .2-3.1-.9-4.4-1.1-1.3-2.3-2.4-3.9-.8-1.9 2-.3 3.2.9 4.1zM316.4 603.5c1.4.7 2.7.6 3.7-.5.9-.9.9-2.2.1-3.1-1-1.2-2.3-1-3.4.1-.9 1-.7 2.3-.4 3.5z"/><path d="M318.3 663.6c0 .7 0 1.4-.1 2.1.3-.1.7-.2 1-.3.8-.2 1.5-.4 2.3-.7.2-.3.3-.7.5-1-1.2 0-2.5 0-3.7-.1zM450.5 452.7c-.6 2.5 2.3 3.3 2.6 3 3.2-3.1 4.9.5 7 1.6 2.9 1.6 4.8.8 6.4-1.8.8-1.2 1.5-2.5 2.2-3.8 4.9-7.8 4.9-7.8-2.4-13.1-1.5-1.1-2-1.3-.5-3 .7-.7-1.1-2-1.9-2.3-1.9-.7-4-.3-5.8.4-.9.3-.7 1.6-.2 2.6.4.7.5 1.5.8 2.2h-.2c2-.9 2.1-4.4 5.1-4.5-1.4 5.1-1.6 5.3 4.4 9.5 2.7 1.9 2.4 3.2.9 5.3-.7.9-1.2 1.9-1.8 2.9-2.9 4.8-4.3 5.3-8.5 2.4-2.2-1.5-4.2-3.9-6.8-.6-.1.1-1-.6-1.5-1 .1.2.2.2.2.2zM441.8 491.1c-1.3-1.4-2.6-2.9-4-4.1-1.5-1.4-3.2-1-4.8 0-2.2 1.4-2.7 6-7.2 3.9-.9-.4-.2 1.7.6 2.4 1.2 1.1 2.5 2.1 4.2.6-2.2-2.2.6-2.6 1.3-3.6 2.4-3.4 5-3.6 7.6-.1.3.4.7.7 1 1.1 6.4 6.8 6.5 7.1-.8 12.9-1.7 1.4-1 2.1-.2 2.8.8.7.8 2.8 2.2 2.1 1.9-1.1.4-1.7-.6-2.7-.7-.7.4-1.3.9-1.9 5.6-7 5.6-7-.2-13.4z"/><path d="M458.7 438.7c-2.4 2-3.5 5-5.2 7.5-.8 1.2-1.1 2.8-3 2.6-1.2-.1-2.2 0-2.4 1.6-.2 1.9 1.4 1.8 2.5 2.4h-.1c2.9-4.5 6.3-8.8 8.1-14l.1-.1zM431.3 501.7c-2.1-2.2-4.5-4.2-6.3-6.6-1.6-2.2-3-.7-4.4-.3-.4.1-.7 1.1-.6 1.6.1.5 1.2 1.1 1.3 1.1 4.6-3.9 5.4 1.9 7.9 3.3.6.4 1.1 1.1 1.6 1.6.1-.2.3-.5.5-.7zM413.8 597.8c-2.3-1.9-2.2-6.6-.1-8.9 2.6-2.8 6.5-2.9 8.9-.2 2.5 2.9 2.1 5.9 0 8.8-3 2.6-6 2.6-8.8.3zm7.1-7.4c-1.5-1.6-3.4-1.6-5 0-1.5 1.5-2.1 3.3-.6 5.2 1.6 1.9 3.4 2 5.3.6 1.7-2 1.9-4.1.3-5.8zM459.2 580.7c-1.9 2.2-2.2 4.2-.7 5.8 1.6 1.6 3.9 2.1 5.5.2 1.5-1.8 2.7-4.7 1-6.7-2-2.4-4.1.8-5.8.7zM424.6 551c1.9 1.7 4.1 2 5.6.2 1.4-1.8 3.1-4.6 1.2-6.6-1.8-1.9-4.7-.5-6.5.9-1.8 1.3-1.7 3.6-.3 5.5zM351.4 585c1.6 1.6 3.4 3.1 4.7 4.9 2.2 3.1 5.4 0 7.9 1.5.5.3 1-1 .7-1.4-2.2-3.1.7-4.2 2.2-5.7 4.3-4.4 7.4-9.9 12.3-13.7 3.8-3 7.7-6 10.8-9.8.8-1 1.6-.5 2.5-.1.9.4 2.4.4 2.2-.8-1.2-6.6 5.1-7.8 7.6-11.6 1.1-1.7 2.5-5.1 5.9-2.7.6.4 1.7-.5 1.4-1.4-1.8-5.3 3.7-6 5.4-9.1.5-.9 1.4-1 2.4 0 .9.9 2.3 1.3 3.4 0 1-1.2.7-2.3 0-3.6-1-1.9-.7-2.7 1.5-1.5 1 .5 1.9.3 2.2-.9.2-.7.1-1.4-.6-1.7-5.9-2.6-9.1-8.5-13.6-12.7-2.5-2.3-3.8-2.4-6.2.1-18.7 19.5-37.5 39-56.4 58.2-3.2 3.3-3.3 5.4.1 8.1 1.3 1.2 2.4 2.6 3.6 3.9zM629.2 435.2c1.3 1.1 2.7 2.5 4.1 1.3 1.4-1.3.3-2.9-.8-4.1-1.1-1.2-2.4-2.6-4-1.2-1.6 1.4-.2 2.8.7 4zM479.4 561.2c2.6 1.4 5 .6 6.7-.9 1.7-1.4 2-3.8.3-5.6-1.5-1.7-3.7-1.4-5 .1-1.6 1.6-2.8 3.8-2 6.4zM446.4 735c-1.7-1.4-3.9-2.3-6.3 0-2.4 2.5-2 5.2.1 7.4 2 2.1 4.7 2.3 6.8 0 2-2.1 1.8-4.6-.6-7.4zM508.3 679.5c2.1-2.7 2-5.3-.2-7.6-1.9-2-4.2-2.3-6.4-.3-2.5 2.3-2.4 5-.3 7.4 2 2.1 4.5 2.2 6.9.5zM274.3 569.1c2.4 2.2 4.8 2.3 6.9.1 2.1-2.2 1.9-5 0-7.1-2.2-2.4-4.8-2.3-7.1.2s-1.3 4.7.2 6.8zM335.6 498.7c-1.8 2.2-2.2 4.7-.1 6.9s5 2.8 7.2.5c2.1-2.2 1.9-5.3-.2-7.5s-4.6-2.1-6.9.1zM654.7 365.9c.7-.3 1.5-.4 2.1-.9 5.2-4.7 5.2-4.7 6.8 1.7.5-3.1.2-6.1-.7-9.5-2.4 3.6-5.1 6.3-8.2 8.7zM654 409.6c1.6 3.8 4.2 6.4 7.7 8.2-1.5-3.7-4.4-6.1-7.7-8.2zM514.4 549.8c1-.8 1.9-2.1 2.9-2.3 7.6-1.5 1.4-3.4.4-5.3-.8 2.7-2.6 4.8-3.3 7.6zM497.7 524.7c3 2.7.3 4.8-1.3 7.7 2.8-.6 3.9-3.7 6.7-2.7.6.2 1.1-1.4.4-2.7-1.4-2.5-3.9-1.5-5.8-2.3-.1 0 0 0 0 0zM532.6 384.1c.9-1.4.9-3-.3-4.1-1-.9-2.5-.6-3.5.3-1 1-1.1 2.4-.1 3.5 1.2 1.4 2.5 1.2 3.9.3zM536.3 430.9c-2.7 1.3-4.6-2.3-8.1-1.6 3.2 2 4.4 4.8 5.8 7.4 2.4-1.3 4.6-2.6 2.3-5.8zM555 469.9c.4-.3.9-.5 1.1-.9.9-1.9 2.1-3.8.4-5.8-.6-.6-2-1-2.5-.1-1 1.8-1.7 3.9.2 5.8.3.4.5.7.8 1zM336.4 647.1c-1.8 8.4-6.9 13.6-14.4 16.7-.2.3-.3.7-.5 1 .8 0 1.5 0 2.3.1 4.9-3 9.2-6.6 12.5-11.5 1.2-2.1 1.8-4.2.1-6.3zM311.1 626.2c.8-1.3 2-2.1 3.5-2.4-3.2-1.5-5.6.7-8.3 1.9-5 2.3-6.6 7.6-9.8 11.5.1.4.2.7.3 1.1.3.3.7.5 1 .8 1.5-4.6 4.1-8.4 7.7-11.3 1.6-1.3 3.2-3.6 5.6-1.6zM386.3 705.2c-2.8 3.7-5.3 7.6-9.6 9.9-8.7 4.5-22 .6-25.5-8.3-1.6-4.1-2-8.7-2-13.2-.4-.3-.7-.6-1.1-.9-1.4 2.8-.3 5.8-.7 8.7 1.5 6.6 6.1 10.9 10.5 15.3 4.7 1.2 9.4 2.3 14.3 1.7 6.1-2.8 12.2-5.5 14.1-13.2z"/><path d="M348 692.6c.4.3.7.6 1.1.9 1-8.4 5.7-13.4 13.2-15.9 1-.3 1.7-.9 2.2-1.7l-1.8.3c-7.6 2.8-13.4 7.5-14.7 16.4zM757.4 587.4l-34.2-81.1 32.4-23.1 42.6 72.5-40.8 31.7zm-26.8-79 29.3 69.5 30.5-23.7-36.6-62.3-23.2 16.5zM287.8 436.5 263 422.6l13.7-23.3-15.8-20.2 43.5-15.4 5-16.8 41.6 44.6-7.4 33.8-55.8 11.2zm-16.5-16.1 17.5 9.8 49.8-10 5.9-26.9-32.4-34.7-2.9 9.7-38.4 13.7 13.2 16.8-12.7 21.6zM194.4 570.5l-5.1-4.7 15.2-16.7 26.4-6.2 1.1-10.8 6.9.7-1.5 15.7-29.2 6.9zM507.6 751.8l-9.3 10.5-22.4 10.6-15.9 15.9-6.6 33 21.2-14.5 19.8-14.6 17.2-10.5z"/><path d="m448.3 829.6 8.5-42.5 17-17 22.3-10.5 13.9-15.8 5.3 40.3-19 11.7-19.8 14.5-28.2 19.3zm15-39.1-4.7 23.5 14-9.6 20-14.7 15.2-9.4-2.7-20.5-4.6 5.3-22.6 10.6-14.6 14.8zM264 713.2l-2.3-2.3c-7-7-10.5-13.9-11.1-21.5-.3-4.2 1.2-8.1 4.2-10.8.3-.4.6-.6.8-.8.2-.2.5-.4.7-.6-.2-.3-.4-.5-.5-.6-2-2.7-2.8-5.7-3.2-7.7-2-9.4.3-17.7 6.6-24.5 2.1-2.2 4.4-4.1 6.6-6 .6-.5 1.3-1 1.9-1.6 1.3-1.1 2.6-1.6 3.9-2.1.7-.3 1.4-.6 1.9-.9 4.7-2.9 9.8-4.2 15.1-3.9 1.8.1 3.4.6 4.8 1.1 0-.2 0-.4.1-.6.2-1.7.3-3.5.9-5.4 2.1-7.7 6.2-12.6 12.5-14.9 1.8-.6 3.8-.6 6 .2l.6.2c1.6.6 3.2 1.1 4.7 2.1.7.4 2.7 1.7 3 4 1-.7 1.9-1.3 2.9-1.9 2.4-1.4 4.8-2.6 7.2-3.6-.3-.2-.6-.3-.8-.5-.8-.6-2.2-2.1-2.1-5.2.3-6.6 3.6-11.7 6-15 3.1-4.2 7.2-7.4 12-9.5 6.2-2.7 12-2 16.8 1.8.4.3.9.7 1.4 1 .1 0 .1.1.2.1l.3-1.2c.4-1.5.8-3.1 1.7-4.7 3.2-6.3 6.9-11.2 11.4-15 .7-.6 1.5-1.3 2.2-1.9 4-3.5 8.1-7.1 13.1-9.6 6-3 11.6-2.7 16.7.9 2.1 1.5 3.8 3.6 5.5 6.6 2.5 4.5 3.3 8.6 2.7 12.9-.8 5.6-3.9 9.4-6.5 12.2-.5.5-1.3 1.2-2.3 1.6.6.7 1.2 1.4 1.7 2.2 1.3 2.1 2.7 4.3 3.8 6.8.4-.9 1.1-1.8 2.4-2.5 2.4-1.2 4.9-.7 6.9 1.3.4.4.8.8 1.2 1.3 2.5 2.5 5.1 5.1 7.2 8.3 1.9-2 4.1-3.2 6-4.1 5.4-2.8 11.1-3.5 15.6-3.9 3.1-.2 5.9.9 8.1 1.8.1 0 .3.1.5.1l.5.1.5.3c3.6 2.1 6.4 4.3 8.8 6.7 4.7 4.8 7.7 12.6 3.9 19-.8 1.3-1.7 2.4-2.9 3.5l2.5 1-2.4 3c-1.1 1.4-3.1 2.1-5.4 1.9-1.2-.1-2.3-.5-3.1-1.1.2 2.4-.7 4.8-2.7 7.2-2.2 2.6-4.8 5-8 7.2-5.4 3.8-10.9 3-16.2 1.6-1.4-.4-2.6-1-3.7-1.5-1 3.4-3.2 6.2-6.7 8.4-.8.5-1.7 1.1-2.5 1.6-1.9 1.2-3.8 2.5-5.9 3.5-.9.4-1.8.8-2.8 1-2.8.6-4.2-.7-5-1.8-.5-.7-.7-1.4-.7-2.2-3 3.2-6.5 5-9.3 6.2-4.7 2-9.7 2.3-14.4.8-3.1-1-5.7-3-7.9-4.8-.1 2.9-1.2 5.5-2.3 7.8-1.7 3.4-4.3 5.6-6.6 7.6-.6.5-1.1 1-1.7 1.5-3.7 3.4-8.1 6.8-13.3 10.2-1.4.9-2.8 1.3-4 1.5-.5.1-1 .2-1.4.4-2 .7-4.1-.3-5.1-2.4-.2-.5-.4-1-.4-1.5 0 0-.1 0-.1.1-2.7 1.3-6.2 2.9-10.2 3.2.3.3.5.5.7.8.6.9 1.1 2.3.4 4.5-.6 1.7-1.6 3.4-2.8 4.6-4.3 4.3-9.2 7.2-14.8 8.9-6.4 1.8-12.2.2-17.3-4.9-3-3-5.2-6.6-6.4-10.4-.5-1.7-.2-3.3.7-4.6-1.1.3-2.2.5-3.3.6.4.3.7.6.9 1 1.7 2.4.8 5.6-.1 7.7-.2.5-.4.8-.6 1.1 0 0 0 .1-.1.1-1.8 5.1-6 7.2-9.9 8.6-3 1.1-6.3 1.2-9.6.5-3.2-.7-6-1.6-8.5-2.6.1.1.2.3.3.4.4.5.8 1.1 1.2 1.6.1.1.1.2.2.2 1.5 2 1.7 3.9.3 5.7l-1.8 2.5zm35.9-24.3c.9 2.9 2.6 5.6 5 7.9 3.7 3.7 7.4 4.8 11.7 3.5 4.7-1.4 8.8-3.8 12.4-7.4.5-.5.9-1.1 1.2-1.7-1.1 0-2.5-.1-3.9-.9l-.2-.1c-.8-.4-3.1-1.5-2.8-4.2.1-1 .7-3.4 4.3-3.7 1-.1 2-.3 3-.4 1.1-.2 2.3-.4 3.5-.5 3.1-.3 5.9-1.5 8.3-2.7 4-2 7.4-5.2 10.7-8.7.3-.3.6-.6.9-1 .5-.5 1-1.1 1.7-1.8l5.1-5.1-.2 7.2c-.1 2.2-.8 3.8-1.5 5-1 1.8-2.3 3.4-3.7 5 3.8-2.7 7.1-5.3 10-7.9.6-.5 1.2-1.1 1.8-1.6 2.1-1.8 4.1-3.5 5.3-5.9 2-4.1 2.2-6.8.7-9.5-.1-.1-.1-.2-.2-.3l-4.4-.4v-1.5c-.1-1-.4-2-1-3-.9-1.7-2.1-3.3-3.9-5l-.1-.1c-1.1-1-2.6-2.4-3.5-4.9l-2.1-6 5.9 2.4c4 1.7 6.7 3.6 8.8 6.4l1.2 1.5c.4.5.9 1.1 1.3 1.6 5-1.7 9-3.5 12.4-6.5 1.8-1.7 3.6-1.2 4.4-.8l1.8.9-.3 2c-.2 1.6-.9 3.2-2.1 4.7-.6.8-1.2 1.6-1.8 2.5-1.7 2.3-3.5 4.7-5.9 6.7l-.1.1c1.8 1.4 3.6 2.8 5.6 3.4 3.4 1.1 6.9.9 10.4-.6 5.1-2.2 8.2-4.9 10-8.6.8-1.7 1.6-3.3 2.6-4.8l1.5-2.2 2.3 1.4c1.3.8 1.7 1.9 1.8 2.2 1.2 3 1.3 5.8.4 8.4 1.4-.8 2.8-1.7 4.2-2.6.9-.6 1.7-1.1 2.6-1.7 2.6-1.6 4.1-3.7 4.5-6.4.3-2 1.3-2.9 2-3.3 1.7-.9 3.4-.1 4 .2.5.2.9.4 1.3.7 1 .5 2 1.1 3 1.3 4.6 1.2 8.2 1.6 11.4-.7 2.7-1.9 5-4 6.9-6.2 1.6-1.9 1.6-3 1.1-4.1-1-2.1.1-3.9.6-4.8l.1-.1c1.3-2.1 1.6-4.2 1.1-6.4 0-.2-.1-.4-.2-.6-.3-1.2-.7-2.6-.4-4.3l.4-2.6 2.6.3c2.2.2 3.3 1.7 3.8 2.5l.1.1c1 1.4 1.7 2.8 2.1 4.3 1.1-1.4 1.2-3.2.9-5.6l-.9-.9.9-1.9c.1-.1.1-.2.2-.3-.6-1-1.3-1.9-2.1-2.7-1.9-1.9-4.2-3.7-7.1-5.5l-1.2-.3c-2.2-.9-3.9-1.5-5.6-1.4-3.9.3-8.8.9-13.3 3.2-2.1 1.1-4 2.1-5.2 4-1.2 1.8-2.6 2.2-3.6 2.2s-2.4-.5-3.5-2.4c-2-3.3-4.7-6-7.5-8.9l-1.3-1.3-.1-.1v.4c0 .5.1 1 .2 1.6.2 1.2.4 2.6.1 4.3-1.1 5.3-4.2 8.8-7.2 12.2l-7.1 8 2-10.1c.2-.9.5-1.6.8-2.1.1-.1.1-.2.2-.4 2-4.3 2.6-7.9 1.8-11.3-.8-3.3-2.6-6.3-4.4-9.2-1.1-1.7-2.6-2.8-4.9-3.4-.8-.2-1.7 0-3.2.4-.6.2-1.2.3-1.9.5l-1.4-5.4c3.5-1 7-1.9 10.7-2.1.9 0 1.5-.3 1.9-.6 3-3.2 4.5-6 5-9.2.5-3.1-.2-6-2-9.4-1.2-2.2-2.4-3.7-3.8-4.7-3.3-2.4-6.7-2.5-10.8-.5-4.4 2.2-8.1 5.4-12 8.8-.8.7-1.5 1.3-2.3 2-3.9 3.3-7.2 7.7-10.1 13.3-.6 1.1-.9 2.3-1.2 3.6-.2.9-.5 1.8-.8 2.8-.3.8-1 2.8-3 3.4-2 .6-3.7-.7-4.3-1.1-.4-.3-.7-.5-1.1-.8-.6-.4-1.2-.8-1.8-1.3-3.2-2.6-6.7-2.9-11-1.1-3.9 1.7-7.2 4.3-9.7 7.7-3.2 4.3-4.7 8-4.9 11.9v.2h.1c6.2-2.2 12.3-2.1 18.1.2.7.3 2.5 1 3.1 3.2l.9 3.5h-5.9c-1.4 0-2.8-.1-4 .1-6.8.9-13.1 3.1-19.2 6.7-2.4 1.4-4.7 3.2-7.2 5.7-1.3 1.3-2.2 3.1-3.1 5l-2.1 4.3-2.8-2.9c-1.5-1.5-1.2-3.2-1.1-4v-.2c.3-3.7 1.9-7 4.5-9.9.1-.1.1-.2.2-.2-.1 0-.1-.1-.2-.1-1-.7-2.2-1.1-3.5-1.6l-.6-.2c-.9-.3-1.7-.4-2.1-.2-4.5 1.6-7.4 5.1-9 11.1-.4 1.4-.5 2.9-.7 4.4l-.3 2.4c-.1.7-.3 2.4-1.9 3.3-1.5.9-3.1.3-3.8.1l-.7-.3c-1.4-.5-2.8-1-4.1-1.1-4.2-.2-8.1.8-11.9 3.1-.9.6-1.9 1-2.7 1.3-1 .4-1.8.7-2.3 1.2-.6.5-1.3 1.1-1.9 1.6-2.2 1.8-4.2 3.5-6 5.4-5.1 5.5-6.8 12-5.2 19.6.5 2.4 1.2 4 2.2 5.4 2.9 3.9 2.4 5.6-.8 8.6l-.1.2-.6.5c-1.8 1.5-2.8 3.8-2.6 6.4.1.9.2 1.8.4 2.7l1.5 1.1c.1.1.4.2.6.4.4.2 1 .5 1.5.9 3.4 2.7 7.6 4.5 13.6 5.9 2.2.5 4.4.4 6.4-.3 3.3-1.2 5.6-2.4 6.5-5.2.2-.6.5-1 .7-1.3l.1-.1c.5-1.1.6-1.8.6-2.1-.2 0-.5-.1-1 0-2.4.1-4.6-.7-6.3-2.4-1.7-1.7-2.6-3.6-3.4-5.6-.3-.6-.5-1.2-.8-1.8l-3-5.9 6.3 2c1.5.5 2.4 1.2 3 1.7.1.1.2.2.3.2 1.9 1.4 4.2 2.1 7.1 1.9 4.7-.3 9-2.4 14.3-7.3 2.4-2.2 4.5-4.8 6.8-7.9l4.7-6.1.6 7.3c.2 3.1-.1 5.7-.5 7.9-.5 3.7-2.7 6.4-6 7.6-2.9 1.1-5.5 2.9-8.2 4.8-1 .9-1.7 1.4-2.4 1.9zm31.3 2.4zm-42.8-.4zm42-.7zm-30.6-1.2zm77.4-38.8c.2.3.4.6.5.9.1.1.1.3.2.4.2.3.4.7.5 1 .4-.9 1-1.7 1.7-2.3.6-.5 1.2-1.1 1.8-1.8-1.5.7-3.1 1.2-4.7 1.8zm-43.8-44zm32.8-20.9z"/><path d="M326.4 747.5c-2.5 0-5-.4-7.4-1.2-7-2.4-12.1-7.8-15.2-16-.4-1.1-.8-2.2-1.1-3.4-.4.6-.8 1.1-1.3 1.7-3.9 4.5-10.2 10.2-20 9.2l-.4.2h-.8c-2.7-.1-4.5-1.6-5.9-2.8l-.2-.1c-5.2-4.5-7.6-9.4-7.3-15.1 0-.2-.1-.6 0-1 .3-2.3-.3-3.8-2.3-5.1-1-.7-1.7-1.5-2.4-2.3-.2-.3-.4-.5-.7-.8l-.2-.3-.2-.3c-.9-1.6-2-3.1-3.2-4.6l-.3-.4c-2.5-3.2-4.1-6.9-5.5-10.4l-.1-.1c-.3-.6-.9-1.9-.3-3.3.3-.9 1-1.6 1.9-2 .8-.3 3.4-1.1 5.2 2.5.1.2.2.3.8.6 1.1.6 2.2 1.3 3.2 2 2.1 1.3 4 2.6 6.2 3.2h.1c3.5 1 6.8 1.9 9.9 1.1 3.1-.8 5.1-1.7 6.2-3.8.3-.6.6-1.1.9-1.6.3-.4.5-.9.7-1.3 0-.1.1-.2.1-.3-2.8.2-5.3-.9-7.3-3.2-1.8-2.1-2.8-4.4-3.8-6.7-.2-.6-.5-1.1-.7-1.7-.9-2-.2-4.1 1.6-5.1.9-.5 3.1-1.4 5.2 1.4 2.2 2.9 5 3.9 9.1 3.4 7.4-1 12.6-6.1 17.1-11.4 1-1.1 2-2.5 2.7-4.1v-.1c1.1-3 3.7-2.5 4.1-2.4.8.2 2.6.9 2.8 3.6.2 2.5 0 5-.2 7.4v.7c-.4 5.5-3.5 9.2-9.1 11-1.6.5-3.2 1.7-4.8 2.9-.8.6-1.7 1.3-2.6 1.9 0 .1.1.2.1.3.5 1.2.9 2.2 1.5 2.7 1 .9 1.6 1.9 2.1 2.7.4.6.7 1.1 1 1.4 3.6 3.1 6.8 4 10.8 2.8 4.9-1.5 8.7-3.8 11.5-7.2-1.9-.3-3.6-1.2-5.3-2.7l-.1-.1c-.5-.4-2.2-1.8-1.6-4.2.6-2.5 2.8-3.1 3.5-3.2 1.9-.5 3.8-.7 5.7-1 1.4-.2 2.6-.4 3.9-.6 4.8-.9 8.1-2.3 10.8-4.4 4.1-3.2 7.5-6.5 10.1-9.9l.1-.1c2.1-3.1 4.8-1.8 5.3-1.4.9.6 2.3 1.9 1.4 4.5v.1c-.3 1.9-.9 3.6-1.6 5.1 2.4-1.9 4.7-4 7-5.9 3.1-2.7 4.7-5.1 5.6-7.9.2-.8.4-1.5.4-2.2l-1.5 2.9-2.7-2.1c-.7-.5-1.8-1.8-1.3-3.9.7-3.6-.5-6.5-4-9.8-.9-.8-1.6-1.7-2.3-2.5-.7-.8-1.4-1.6-2.1-2.3-1.5-1.3-1.8-3.4-.7-5 .5-.8 1.9-2.4 4.8-1.4 4.6 1.7 8 4.1 10.4 7.4l.1.1c.6.9 1.3 1.8 1.7 2.2.5-.1 1.6-.5 2.6-.9 4-1.5 8-3.5 11-7.1 1.8-2.2 3.9-1.3 4.3-1.1.5.3 2 1.3 1.8 3.6-.2 2.1-.7 5.1-2.7 7.6-.7.9-1.4 1.8-2.1 2.8-1.5 2-3 4.1-5 5.9 2.5 1.8 4.6 2.9 7 3.1 3.9.3 7.5-.7 11.2-3.2 3.2-2.2 5.5-5.1 6.9-8.9.1-.3.1-.7.2-1.3v-.1c-.3-2.7 1.4-3.7 2.2-4 .8-.3 2.9-.7 4.5 1.8 1.8 2.8 2.9 6.4 2.6 9.8 2.4-1.4 4.6-2.7 6.5-4.4 1.2-1 1.9-2.2 2.2-3.5l-1.5-2.8 1.6 1.5c0-.4 0-.8-.1-1.2-.5-2.8 1.5-3.7 1.9-3.9 1.4-.5 2.8-.1 3.6.5 2.1 1.5 4.2 2.6 6.4 3.2 5.6 1.7 9 1.1 12.1-1.9.7-.7 1.5-1.4 2.2-2 1.4-1.2 2.6-2.2 3.3-3.5.2-.3.5-.9.6-1.2h-.1c-.8-.7-1.3-1.6-1.4-2.5-.1-1.6.9-2.8 1.2-3.1 2.4-2.7 2.5-5.8.6-10.6l-.1-.1c-.8-1.5-.7-2.8.1-4 .2-.3 2-2.7 5-.8h.1c2.6 1.1 4.5 3 5.6 5.4.1-1.1-.1-2.4-.4-4.1 0-.1-.1-.2-.1-.3-.1-.3-.3-.6-.4-1-.8-2.9 1.2-4.1 1.6-4.3.6-.3 2.5-1.1 4.3 1 2.2 2.4 3.2 6.1 2.7 10-.4 3.5-2 6.6-4.2 8.6 2.6.9 4.7 3.3 5.7 4.7 2.7 3.7 3.9 7.8 3.2 11l-.5 2.3h-1.3c-1.7 8.4-5.5 14.8-11.7 19.4-2.2 1.7-5 2.4-7.7 2-2.4-.4-3.5-1.6-4-2.5-1.2 1-2.5 1.9-3.6 2.8l-.6.4c-1.4 1-3 2.2-5 3-1.2.5-2.4.5-3.5.2.1.2.3.4.4.6 3.3 5.4 2.2 11.4-2.7 15.2-2.6 2-5.4 3.9-8.1 5.7-1.4.9-2.7 1.9-4.1 2.8-3.6 2.5-7.6 4.1-12.2 4.9-3.5.6-6.8.6-9.9.1.2 1.2.1 2.6-1.1 4.3-1.3 1.8-3.1 3.4-5.7 4.7-5.5 3-11.2 4.1-16.9 3.2-1.4-.2-2.5-.8-3.3-1.8-2.6 1-5 2.4-7.3 3.7-2.2 1.3-4.6 2.1-6.8 2.8-1.5.5-2.9 1-4.3 1.6l-.4.2-.4.1c-2 .3-3.6.4-5.1.4-2.5 0-3.7-1.3-4.2-2.1-.3-.4-.5-1.1-.6-1.9-1.5 1.6-3.2 2.9-5.1 4 1.1 1 1.7 2.5 2.2 4 1.9 6 .5 11.7-4.1 16.8-4.5 5.1-11.4 8.1-18.2 8.1zm-23.6-32.9 2.8 3.2c1.1 1.3 1.4 2.7 1.6 3.6.5 2.7 1.2 5 1.9 7 2.5 6.6 6.4 10.8 11.8 12.6 6.8 2.4 14.7.1 19.8-5.6 3.3-3.7 4.2-7.3 2.9-11.5-.1-.4-.2-.7-.3-.9-.2.1-.4.1-.7.3-5 2-9.8 1.8-14.1-.8l2.7-4.9c1.2.6 2.2.7 3.4.4 2.3-.6 4.4-1.7 6.6-2.9.9-.5 1.7-1 2.6-1.4 2.7-1.4 4.9-3.7 6.6-7 1-1.9 1.5-4.1 2-6.4.2-.8.4-1.5.6-2.3v-.2c.6-3.4 3.2-3.4 3.9-3.3 1.3.1 2.9.8 3.3 3.6v.1c.6 3.3 1.1 7.2-.7 11.2-.3.6-.5 1.2-.8 1.9-.2.5-.4 1.1-.7 1.6.7 0 1.5-.1 2.4-.2 1.5-.7 3-1.2 4.5-1.7 2-.7 4-1.3 5.7-2.3 2.7-1.6 5.7-3.3 9-4.5 1.1-.4 1.9-1.4 3-2.7.4-.5.9-1.1 1.4-1.6l.1-.1.2-.2c.2-.3.6-.9 1-1.4.8-1.3 1.1-1.9 1.1-2.3l5.6.9c-.2 1.4-.9 2.8-1.8 4.1-.4.7-.9 1.3-1.3 2l-.9 1.2c-.5.7-.9 1.4-1.5 2 4 .3 7.9-.7 11.8-2.8 1.8-1 2.9-1.9 3.7-3-1.9-1.8-3.4-3.9-4.5-5.7l-7-11 10.9 7.1c4.4 2.9 9.4 3.8 15.3 2.8 3.7-.6 6.9-1.9 9.8-3.9 1.4-1 2.8-1.9 4.2-2.9 2.6-1.8 5.3-3.6 7.8-5.5s3-4.6 1.6-7.4c-.9.8-1.9 1.6-2.8 2.5-.5.5-1 1-1.5 1.4l-.3.2c-.3.2-.6.5-.9.7-1.4 1.1-3.2 2.5-5.8 2.7l-9.6.6 7.7-5.7c.3-.2.7-.7 1.1-1.1.8-.9 1.9-2.2 3.6-2.8 1.9-2.2 3.2-4.9 3.9-8.4.7-3.1.3-6.2-1.2-9l-2.7-5.1c-.5.6-1 1.1-1.6 1.7-2.7 2.4-5.7 4.1-8.5 5.7-.8.5-1.6.9-2.5 1.4-.7.4-1.5.6-2 .7-.1 0-.2 0-.3.1-2.3.6-3.6-.5-4.1-1.2-.3-.4-1.6-2.4.5-4.5.8-.9 1.1-2.1 1.1-3.4-1.9 3.5-4.4 6.4-7.7 8.6-4.7 3.2-9.7 4.6-14.9 4.2-4.3-.4-7.5-2.5-10.3-4.5-1.6-1.2-2.5-2.5-2.5-4 0-1 .3-2.5 2-3.8 1.7-1.4 3.1-3.2 4.5-5.2-1.8 1-3.7 1.8-5.5 2.5-2 .8-3.5 1.2-4.8 1.3.4.3.8.7 1.2 1.3 2.2 3.2 2.8 7.1 1.6 11.1-1.1 3.9-3.4 7.2-7.2 10.6-4.6 4-9.8 8.6-15.5 12.3l-.2.1c-.7.4-1.7 1.1-3.2 1.1 0 0-.1 0-.1.1-.7.4-2 1.1-3.5.6-.6-.2-1.6-.7-2.2-2.1-.4-1-.4-1.9-.1-2.7-3.7 2.2-7.6 3.2-10.8 3.8-1.4.3-2.8.5-4.2.7-.4.1-.9.1-1.3.2h.4c3.1-.4 4.3 1.3 4.7 2.4.9 2.3-.5 4.1-1.1 4.9l-.1.2c-3.7 5.1-8.7 8.5-15.4 10.5-5.8 1.7-11.1.5-16.1-3.9-1-.9-1.7-1.9-2.2-2.8-.3-.6-.6-1.1-1-1.4-1.7-1.4-2.4-3.3-3-4.9-.1-.3-.3-.7-.4-1-.9-2.1-.2-4.5 1.7-5.6 1-.6 1.9-1.3 2.9-2.1 1.8-1.4 3.9-3 6.5-3.8 3.5-1.1 5-2.9 5.2-6.1v-.5c-4.9 5.7-11.1 11.5-20.1 12.7-3.1.4-5.8.2-8.2-.8.1.1.2.2.3.4 1 1.2 1.8 1.4 2.8 1.3 2.5-.2 4.4.4 5.5 1.9 1.1 1.6 1.1 3.7-.2 6.3-.3.6-.6 1.2-1 1.7-.3.4-.5.8-.7 1.2-2.1 4.4-6 5.9-9.8 6.8-4.6 1.2-9-.1-12.8-1.2h-.1c-2.6-.7-4.7-2-6.8-3.3.4.7.9 1.4 1.4 2l.3.4c1.2 1.6 2.5 3.2 3.5 5.1.2.2.4.5.6.7.4.5.8 1 1.2 1.2 3.7 2.4 5.3 6 4.8 10.3v.7c-.3 4 1.4 7.3 5.3 10.7l.2.1c.7.6 1.3 1.1 1.9 1.4.5-.2 1.1-.2 1.7-.1 5.6.7 10.4-1.6 15.4-7.3 1.2-1.4 2.1-3.1 3-5 .2-.5.5-1 .8-1.5l2.2-3.5zm-35.8 5.2zm5.5 0zm15.5-28zm152.8-24.3c.2 0 .5 0 .7.1.2 0 .4.1.6.1-.4-.6-.6-1.4-.6-2.2 0-.3-.1-.6-.1-.9 0 .1-.1.3-.1.4-.2.8-.4 1.7-.6 2.4 0 .1 0 .1.1.1zm5.1-3.2zm-12.3-17.6 5.3 4.8c1.4 1.3 2.6 2.6 3.6 3.8l.4.5c1.7 2.2 3.5 4.7 4.1 8 .9-.5 1.8-1.1 2.7-1.8l.6-.5c3.8-2.8 6.9-5.3 8.7-9.4l4.7-10.7.8 11.6c.2 2.6.2 5-1.1 7.2 1-.1 1.8-.5 2.3-.9 5.9-4.4 9.2-10.9 10.1-19.9h1.2c-.2-1.5-1.1-3.4-2.3-5-1.3-1.7-2.4-2.5-3-2.7-1.1.1-2-.1-2.7-.2-.3-.1-.7-.1-.9-.1-1.8-.1-3.1-1.3-3.4-2.9 0-.1 0-.2-.1-.3-.2.4-.5.8-.8 1.2 1.9 2.7.3 5.6-.5 6.9-1.2 2.2-3 3.7-4.6 5.1-.7.6-1.3 1.1-1.9 1.7-5.9 5.9-12.6 4.9-17.7 3.4-1.6-.5-3.2-1.1-4.7-1.9-.3.6-.5 1.4-.8 2.1zm28.1 13.5zm-77.3-5zm0-1.4zm95.2-14.1 1.4.1c-.3-.5-.9-.8-1.4-.8v.7zm-11.3-13.9zm-2.3-2.4c-.1.6-.2 1.1-.3 1.7.1-.1.3-.2.4-.3l.7-.5c-.2-.3-.5-.6-.8-.9zm-1.8-12.3z"/><path d="m248 690 6.5-11c.4-.6.8-1.3.9-1.7-.3-.4-.8-1.1-1.3-1.7-3.1-4-5.6-8.5-7.4-13.3-2.9-7.7-2.8-14.8.3-21 1.2-2.4 3-4.3 4.8-6.1.3-.3.6-.6.9-1 2.7-2.9 5.9-4.5 9-6 .5-.2.9-.5 1.4-.7.8-.4 1.5-.8 2.3-1.2 2.8-1.5 5.6-3.1 9-3.8 1.1-.2 2.3-.5 3.5-.6-2.5-6.4-1.9-13.2 1.6-20.7 2.1-4.4 5-8.6 8.9-13 1.6-1.8 3.5-3.2 5.3-4.6.3-.3.7-.5 1-.8 6.2-4.8 11.8-7.2 17.8-7.6 7.1-.5 12.3 1.4 16 5.8.5.6 1 1.1 1.6 1.7.6.7 1.3 1.4 1.9 2.1 2-3.2 4.3-6 6.4-8.6 2.8-3.5 6-6.2 9.5-8 3-1.6 6.7-1.8 10.1-.8 2.5.8 4.7 2.3 6.2 4.4.4-.6.7-1.1 1.1-1.7 1.8-2.9 3.6-5.9 5.9-8.6 2.9-3.6 6.4-7.6 10.5-11.2 5-4.2 10.6-6.3 15.5-7.8 3.4-1 6.8-1 9.8-1 3.2 0 6.2.4 9.2.7l.9.1c8.8 1 14.5 5.7 16.9 13.8 1.7 5.8.5 10.9-3.5 14.8l-1.4 1.4c2 0 3.4 1 4.1 1.5 2.3 1.6 4.5 3.7 6.4 6.2 2.5 3.2 2.9 8.2 1.4 12.4 1-.1 1.9-.1 2.7-.1 6.9-.2 13.7 1.5 20.1 5l7.7 4.2-8.7 1.1c-1.7.2-3.2-.2-4.5-.5-.9-.2-1.7-.4-2.4-.4-8.1.4-13.5 2.1-18.1 5.7-.3.3-.7.8-1.1 1.4-.3.5-.6 1-1 1.5-1.3 1.7-2.8 2-3.7 1.9-1-.1-2.3-.6-3.2-2.6-1.6-3.5-4.2-6.2-7-9l-.3-.3c.2 1 .4 2.2 0 3.6-1.5 5.9-4.9 10.9-10.4 15.2-1.7 1.4-3.4.9-4.3 0-1.4-1.3-1.6-3.4-.3-5 .7-.9 1.2-1.9 1.6-2.9 2.7-5.8 2.8-10.4.3-14.8-.4-.6-.7-1.3-1-1.9-.7-1.3-1.3-2.5-2.1-3.6-1.5-2-3.8-2.8-6-2.1-.5.1-1 .3-1.4.4-.9.2-1.6.4-2.2.7-1.9.9-3.9.4-4.9-1.3-.2-.4-1.3-2.6.9-4.5 1.6-1.6 3.6-2.2 5-2.5h.1c3-.8 6-1.6 9.3-1.6.7 0 1.2-.4 2.4-1.9.2-.2.3-.4.5-.6 3.8-4.5 3.1-9.4 2.3-12-1.3-4.4-4.6-8.1-8.1-9.1-2.2-.6-4.3.1-7 1.3-3.4 1.4-6.2 3.9-9.3 6.6l-1.8 1.6c-2.8 2.4-5.5 4.7-7.7 7.6-3.7 5-6 9.8-7 14.9-.3 1.4-.7 3.3-2.5 4.1-1.8.7-3.4-.4-4.4-1.1-.8-.5-1.5-1.1-2.2-1.6-1-.7-1.9-1.4-2.8-2-2-1.3-3.9-1.7-5.9-1.4-6.3 1-11.2 4.9-15.4 12.2-1.3 2.3-2 4.3-2.2 6.2 4.4-1.4 9.2-1.6 14.3-.5 2.8.6 5.1 1.7 7 3.4l.1.1c2.1 1.8 1.9 3.6 1.4 4.8-.2.5-1.4 2.7-4.4 1.7-3.1-.4-6.5-.3-10.7.4-6 1-11.8 3.5-18.5 8-4 2.7-6.3 5.9-7 9.6v.1c-.4 2.9-2.4 3.3-3.2 3.4-.7.1-3.2 0-3.9-3.2v-.1c-1.3-5.1-.1-9.9 3.7-14.5-1.1-.5-2.3-1.1-3.6-1.4-.5-.1-2-.5-4.5 1.9-3.4 3.3-5.2 7.3-5.4 12 0 .7-.1 1.4-.2 2-.2 1.2-.3 2 0 2.6.7 1.6.2 3.5-1.3 4.5-1.4 1-3.3.8-4.6-.4-3.3-3.1-7.1-3.5-13-1.4-5.4 1.9-9.6 4.4-13.2 7.7-2.9 2.7-5.9 5.6-7.7 9.4-1.8 3.8-2.1 7.9-.9 13.1.7 3.2 1.6 5.5 2.9 7.3 1 1.3 1 2.5.8 3.3-.1.8-.6 1.8-1.9 2.7-.5.3-1 .7-1.5 1l-.8.5L248 690zm31.7-62.7c-1.3 0-2.7.3-4.1.6-2.6.6-4.9 1.9-7.4 3.2-.8.4-1.6.9-2.4 1.3-.5.2-.9.5-1.4.7-2.8 1.4-5.4 2.7-7.4 4.9-.3.3-.6.7-1 1-1.5 1.6-2.9 3-3.8 4.7-2.4 4.8-2.5 10.2-.1 16.5.2.6.4 1.1.7 1.7 0-3.5.7-6.7 2.1-9.6 2.2-4.7 5.7-8.1 9-11.1 4.1-3.8 9.1-6.6 15.2-8.8 4-1.4 9.7-2.8 15.1-.1 0-.3.1-.5.1-.8.1-.5.1-1 .2-1.4.3-6.2 2.7-11.5 7.1-15.8 4-3.8 7.6-3.9 9.9-3.3 2.1.6 4.2 1.5 5.7 2.3.7.3 2.5 1.3 2.9 3.2.2.8 0 1.5-.2 2.2.4-.3.7-.5 1.1-.8 7.2-4.9 13.9-7.8 20.6-8.9-2 .1-3.8.5-5.7 1.2-.7.3-2.9 1.1-4.7-.2-1.9-1.3-1.9-3.6-1.9-4.4 0-3.3.9-6.5 3-10 5.1-8.7 11.4-13.6 19.4-14.9 3.4-.6 6.8.2 9.9 2.2 1.1.7 2.1 1.5 3.1 2.2.2.1.4.3.6.4 1.3-5.3 3.8-10.4 7.7-15.6 2.5-3.4 5.6-6 8.5-8.5l1.8-1.6c3.2-2.8 6.6-5.7 10.8-7.5 2.7-1.2 6.5-2.8 10.8-1.5 5.3 1.5 10 6.6 11.9 12.9 1.9 6.2.6 12.5-3.4 17.3-.2.2-.3.4-.4.5-1.1 1.4-2.7 3.2-5.1 3.7.8.6 1.5 1.4 2.2 2.2 1 1.4 1.8 2.9 2.6 4.3.3.6.6 1.2.9 1.7 1.7 3 2.6 6.2 2.5 9.5.1-.2.1-.4.2-.6.1-.4 0-.9-.2-1.7-.2-.8-.4-1.9-.3-3.1v-.3c0-.8-.1-3 2.2-4.2 2-1 4.3-.6 5.9 1.2.7.8 1.5 1.5 2.2 2.3 2.4 2.4 4.9 5 6.8 8.1.4-.6 1-1.2 1.7-1.8 3.2-2.5 6.5-4 9.8-5h-.3c-1.8 0-3.6.1-5.3.8-2.8 1.2-4.3-.5-4.8-1-.5-.6-1.5-2.3.2-4.5l.1-.1c.2-.3.4-.6.6-.8 0-.1.1-.1.1-.2 1.8-2.4 2-6.7.4-8.7-1.6-2-3.3-3.7-5.2-5-.6-.5-.8-.5-.9-.5 0 0-.1 0-.3.1-1.1.6-2.3.7-3.3.8-.2 0-.5.1-.7.1h-.1c-2.9.5-4-1.3-4.3-2.1-.6-1.4-.3-2.9.9-4.2.5-.6.9-1.1 1.4-1.6 1.2-1.4 2.4-2.8 3.7-4.1 2.5-2.4 3.2-5.4 2-9.2-1.8-5.9-5.7-9-12.2-9.8l-.9-.1c-2.9-.4-5.7-.7-8.4-.7h-.1c-2.8 0-5.6 0-8.2.8-4.5 1.4-9.3 3.1-13.5 6.7-3.8 3.2-6.9 6.9-9.8 10.5-2 2.4-3.7 5.1-5.4 8l-2.1 3.3c-1.2 1.8-2.5 2.7-4.1 2.6-1.5-.1-2.8-1.1-3.7-2.9-.8-1.5-2.2-2.7-3.9-3.2-1.9-.6-4.1-.5-5.7.4-2.8 1.5-5.4 3.6-7.7 6.5-2.5 3.1-5.1 6.3-7 9.9-1.2 2.2-2.8 2.5-3.6 2.5-.8 0-2.3-.3-3.5-2.2-.7-1.2-1.7-2.3-2.7-3.4-.6-.6-1.2-1.3-1.8-2-2.5-3-5.9-4.2-11.2-3.8-4.8.4-9.5 2.4-14.8 6.5-.4.3-.7.5-1.1.8-1.7 1.3-3.3 2.5-4.6 3.9-3.6 4-6.2 7.7-8 11.6-3.2 6.7-3.4 12.3-.8 17.7.8 1.7.9 3.2.1 4.4-.8 1.2-2.1 1.8-3.9 1.7h-.3zm131.3-9.8s0 .1 0 0c0 .1 0 0 0 0zM326.1 750.4h-2.8c-.9 0-1.8-.2-2.6-.3-.3-.1-.6-.1-.9-.1-3.8-.4-7.4-2-10.8-4.9-3.2-2.6-5.4-6.2-6.7-10.7-5.8 4.3-12.5 5.8-19.9 4.5l-.4-.1-3.4-1.1-.5-.7c-1.6-2.1-.8-3.7-.5-4.2.3-.4 1.4-1.9 3.8-1.4 5.4 1.1 9.8-2 13.6-5.4 2.9-2.6 4.4-5.3 4.6-8.4.2-2.8 2.2-3.5 3.4-3.5 1.6 0 2.9 1.1 3.6 2.7 1 2.3 1.5 4.7 1.9 6.6 1.5 7.3 4.8 12.4 10.1 15.7 6.1 3.8 16 1.9 21.2-4 2-2.3 3-4.3 3.4-6.5.2-1.3-.1-2.7-.5-4.1-4.8 2-9.5 1.8-14-.5l-.6-.3-.3-.2c-1.2-.8-4.7-3.1-2.8-6.4.6-1 1.4-1.6 2.5-1.8 1.8-.3 3.2.7 4.1 1.4.2.1.4.3.5.3.7.4 1.3.5 2.8.1 3.4-1 6.9-2.8 10.6-5.4 3.8-2.7 5.4-7.1 6.6-13.2.2-1.2.6-2.3.8-3.3v-.1c.7-2.4 2.2-3 3.4-3.1 1.2-.1 2.8.3 3.8 2.6 2.2 4.8 2.5 9.4 1.1 13.8l-.2.6c-.3.9-.6 1.9-1 2.8h.4c5.3-.8 10.2-3.2 14.8-5.6 3.4-1.8 6.7-3.7 8.9-6.6.7-1.1 1.5-1.5 2.1-1.7.9-.2 1.8-.1 2.6.3 1.4.8 2.2 2.6 1.1 4.6l-.1.2-.9 1.4-.6.9c5-.1 9.1-1.7 12.6-4.7-2.3-2.1-4-4.9-5.3-8.6l-1-2.7 2.8-.9c1.5-.5 2.9-.1 4.2 1.1 3 2.8 6.7 3.5 11.3 3.7 3.1.1 6.4-.6 9.8-2.1 2.7-1.1 5.1-3 7.7-4.9l.1-.1c1.1-.8 2.1-1.5 3.2-2.2 2-1.3 3.9-2.6 5.4-4.3.9-1 1.2-2.6.9-4l-3.9 3.6-.5.3c-1.8 1.2-3.8 2.7-6.4 3h-.1c-2.8.6-3.9-1.4-4.1-2-.2-.6-.8-2.6 1.4-4.2l.7-.6c1.3-1 2.5-2 3.4-3.2l.1-.1c2.7-3.3 4.1-6.7 4.3-10.3.2-2.7-.4-5-1.8-7.1l-.1-.1c-.2-.3-.4-.6-.6-1.1-1.5-2.6.3-4.2.6-4.5.5-.4 2.4-1.6 4.8.3 2 1.6 3.9 3.6 5.7 5.8 1.6 2.1 2.9 4.2 3.8 6.4l.1.3c.1.1.1.3.2.4 3.2-2 6-4.3 8.2-6.8 1.5-1.7 2.3-3.3 2.4-5.2l.6-7.8 4.5 6.4c2 2.8 2.5 6.5 1.6 9.6.1-.1.2-.1.3-.2 4.9-3.9 7.9-9.3 9.1-16.6.1-.4.1-.8.2-1.3.2-1.3.4-2.6.5-3.8l.4-7.8 4.7 6.3c1.1 1.4 1.3 2.9 1.6 4.1.1.5.2 1.1.4 1.4l.2.4v.5c.8 9.3-1.6 17.2-7.3 23.5-4.5 5-9.7 6.6-15.9 5 .5 5.2-1 10.2-4.5 15.3-3.5 5-8.1 9.5-14.1 13.7-6.1 4.3-12.6 7.3-19.2 9.1-1.6.4-3.6.8-5.9.2-2.2-.3-4-1.3-5.7-2.2l-.2-.1s-.1.1-.2.1l-.4.3c-3 2.3-6.1 4.6-9.7 6.4-4.4 2.1-9.1 3.9-14.6 2.9-1.7-.3-3.3-.9-5.1-1.8-1.1 2.7-2.2 5.1-3.4 7.3-4.4 8.3-10.2 15-17.3 20-9.1 6-19.5 9-32.7 9zm18.8-32c.1 0 .2.1.3.1.8.3 1.8 1.1 2.3 2.7.8 2.3 1.7 5 1.2 8.1-.5 3.3-2 6.2-4.7 9.3-2 2.3-4.5 4.1-7.2 5.4 7.1-1.2 13.2-3.7 18.7-7.5 6.4-4.5 11.5-10.4 15.6-18 .9-1.7 1.8-3.6 2.7-5.7-3.8 1.8-8.1 3.5-12.7 4.2h-.1c-.4 0-.8.1-1.2.1-.9.1-1.7.2-2.6.3-2.4.3-3.5-.8-4-1.5-.4-.6-1.1-2.2.4-4.2.9-1.3 1.4-2.9 2-4.7l.2-.6c.1-.3.2-.6.3-1-1.3 4-3.4 7.8-7.3 10.6-1.4.9-2.6 1.7-3.9 2.4zm-41.7 6.4c-.9 1.6-2.1 3.2-3.6 4.6.1-.1.2-.2.3-.2 1.3-1.1 2.5-2.1 3.9-2-.3-.8-.5-1.6-.6-2.4zm106.2-24.6c.8 0 1.7.2 2.7.7l.2.1c1.4.7 2.7 1.4 3.9 1.6l.4.1c.8.2 1.8.2 3.2-.2 6.1-1.6 11.8-4.3 17.4-8.3 5.5-3.8 9.6-7.8 12.7-12.2 3.2-4.6 4.2-8.9 3.3-13.4 0 0 0-.1-.1-.1-.5-1.3-.5-2.3-.2-3-1.2.9-2.5 1.7-3.8 2.5-1.3.7-2.8 1.6-4.5.8-1.7-.8-2-2.6-2.2-4.2 0-.1-.1-.3-.2-.5l-.1-.3c-.4-.9-.8-1.9-1.4-2.8v1.4c-.1 2.3-.6 4.5-1.5 6.7.5-.2 1.1-.4 1.9-.3.8.1 1.9.4 2.8 1.6 2.9 3.7 2.7 9.4-.4 12.9-2 2.2-4.3 3.7-6.5 5.2-1 .7-2 1.3-2.9 2l-.1.1c-2.7 2.1-5.6 4.2-8.9 5.6-4.2 1.8-8.3 2.6-12.3 2.5-2.1-.1-4.3-.2-6.5-.7.4.6.8 1.4.8 2.4 0 .3 0 .5-.1.8.7-.7 1.5-1 2.4-1zm-7.8.6zm61.5-35.9c2.9.2 5.3-1.1 7.7-3.7l1.5-1.8c-1.1 1.2-2.2 2.3-3.5 3.3-1.7 1.3-3.6 2-5.7 2.2zm-6.9-1.8c.7 0 1.4.2 2.3.7 0 0 .1 0 .1.1-.4-.4-.7-.9-.8-1.3-.1-.3-.2-.6-.2-.9-.5.5-1 .9-1.6 1.4h.2zm-23.7-9.6z"/><path d="m363.9 735.8 7.1-17.1c.4-.9.7-1.8 1.1-2.7.9-2.1 1.8-4.3 2.7-6.4.7-1.5 1.7-2.1 2.5-2.4 1.7-.6 3.2.3 3.9.8l.1.1c3 1.8 5.9 2.3 8.9 1.7 4.3-.9 8.3-3.3 12-5.8 1-.7 2-1.5 3.1-2.3l.9-.7c1.6-1.3 3.5-1.5 5.2-.7 1.3.6 2.7 1.2 4 1.8l10.4 4.7-9.5 1.4c-2.7.4-4.8-.9-6.4-1.8l-.4-.2s-.2.1-.5.3c-3.5 2.8-7.8 5.9-12.9 7.8-4.1 1.6-10.3 3.3-16.6-.1-.1.3-.2.5-.3.8-.8 2.1-1.8 4.5-3.5 6.5l-11.8 14.3zM320.2 750c-6.2 0-10.5-3.7-13.2-6.5-2.5-2.6-3.9-5.7-4.8-8.7-5.5 3.9-11.6 5.4-18.2 4.5-.7-.1-1.2-.3-1.6-.5-.1 0-.2-.1-.3-.1l-9.5-3.2 9.7-2.2c1.4-.3 2.7-.1 3.7 0 .5.1 1 .1 1.4.1 5.2-.3 9.5-2 13-5.1.6-.6 2.4-2.1 4.5-1.4 2.1.7 2.6 2.9 2.7 3.8 1.5 7.2 5.5 11.5 12.3 13.3.6.1 1 .4 1.3.5.1 0 .1.1.2.1l11.6 5.3-12.8.1z"/><path d="M360.8 717h-.1l-9.5-.1 8-5.1c1.4-.9 2.8-1.2 4-1.4.5-.1.9-.2 1.3-.3 5.3-1.6 10.6-4.3 16.8-8.4.3-.2.6-.6 1-1 .7-.8 1.6-1.8 2.9-2.4l6-2.8-2.1 6.3c-.8 2.4-2.6 3.7-4.2 4.8-1.2.8-2.5 1.7-3.7 2.5-.8.6-1.6 1.1-2.4 1.7-1.2.8-2.6 1.3-3.7 1.8l-1.5.6c-.6.2-1.1.5-1.7.8-3.4 1.3-6.9 3-11.1 3z"/><path d="m386.2 707.4-.8-3.1-4.9 2.2 3.4-7c.3-.6.6-1.1.9-1.7 1-1.8 1.6-2.9 1.4-4.3-.1-1.2.2-2.3 1-3 .7-.7 1.7-1 2.7-.9 1.3.2 2.9 1.1 3.1 3.4.3 3-.8 5.6-1.8 7.6-.4.7-.8 1.3-1.2 1.7-.1.1-.2.3-.3.4l-3.5 4.7zM427.8 682.7c-1.1 0-1.9-.3-2.4-.8l-5.1-.1 3.6-3.1c.1-1 .6-2.2 2.4-3.1h.1c.6-.3 1.1-.9 1.8-1.5.9-.9 1.9-1.9 3.3-2.6l4.9-2.4-.6 4 9.3-4-8.5 9.4c-2 2.2-4.5 3.5-7.7 4.1-.3.1-.7.1-1.1.1z"/><path fill="none" d="M0 0h1000v1000H0z"/><path fill="none" d="M100 99.9h800.1v300H100z"/><path d="m162 257.6-37.9-148.9h34.3c14 68.4 20.3 98.8 22.1 115.2h.2c5.7-27.4 20-79.2 28.7-115.2h28.9c7.7 28.6 22.7 86.4 27.6 113.6h.2c4.9-32.8 19.6-90.5 24.8-113.6h31.3l-40.3 148.9h-33.4c-7.8-33-20.9-81.1-26.2-106.6h-.2c-5.4 26.5-18.8 76.6-26.8 106.6H162zM372.9 198v59.6h-31.5v-149h65.4c32.5 0 50 17.9 50 40.9 0 20-10.9 30.8-21.6 35.2 7.4 2.7 18.5 10.4 18.5 37.1v7.4c0 10 .1 21.4 2.1 28.4h-30.5c-2.6-6.5-3.1-17.6-3.1-33.4V222c0-16.3-4.1-24-28.1-24h-21.2zm0-25.7h27c17.6 0 24.4-6.7 24.4-19.2 0-12.1-7.9-18.9-23.7-18.9h-27.8v38.1zM587.9 193.3h-71.2v37.8h78.6l-3.8 26.4h-106V108.6h105.6V135h-74.3v31.9H588v26.4zM747.1 211.7c-6 27.8-26.9 48-64.2 48-47.2 0-69.5-33.4-69.5-75.8 0-40.8 23-77.4 71.1-77.4 39.7 0 58.9 23.3 62.5 48.2h-32.2c-3.1-11.5-11.1-22.9-31.3-22.9-26.6 0-36.8 23.9-36.8 51 0 25.2 8.9 51.7 37.7 51.7 21 0 27.6-14.1 30.5-22.8h32.2zM771.9 108.6h31.8v66.5c9.8-11.5 40.5-45 59.3-66.5h38.6l-59.8 61.9 62 87h-38.6l-45.7-66.2-15.7 15v51.1H772V108.6z"/><path fill="none" d="M600 600h300v300H600z"/><path d="M714.6 863.6c2.8 12.5 11.8 17.9 26.1 17.9s20.5-5.7 20.5-14.7c0-10.1-6-14.5-27.2-19.4-33.8-7.9-42.1-20.2-42.1-37 0-21.6 16.2-36.3 45.6-36.3 32.9 0 46.1 17.7 47.9 35.9h-27c-1.3-7.6-5.5-15.9-21.5-15.9-10.9 0-17.5 4.5-17.5 13.3 0 8.6 5.3 12.1 25.3 16.8 36.1 8.5 44 21.9 44 39.4 0 22.7-17.1 38.2-49.9 38.2-31.5 0-48.1-15.5-51.1-38.1h26.9zM865 810.3c-1.5-5.8-4.8-11.4-15.1-11.4-15.9 0-20 14.9-20.7 30.8 5-6.1 13.4-11 26.8-11 21.7 0 37.1 16 37.1 39.3 0 25.3-16.2 44.1-43.5 44.1-34.4 0-45.8-26.5-45.8-59.9 0-30.8 10.9-62.8 47.2-62.8 25.7 0 37.7 16.1 38.9 31H865zm2.3 49.9c0-11.3-4.2-21.4-18.4-21.4-11.5 0-18.3 6.7-18.3 20.5 0 9.6 4.6 22.3 18.3 22.3 12.6 0 18.4-9.4 18.4-21.4z"/></svg>