<svg xmlns="http://www.w3.org/2000/svg" xml:space="preserve" baseProfile="tiny" overflow="visible" version="1.2" viewBox="0 0 1000 1000"><path d="m644.4 253.5 20.9-.3c2.5 0 4.4 1.2 6.1 3 15.6 15.9 32.8 30.3 48.1 46.5 8 8.5 15.4 17.4 24.1 25.3 1.9 1.7 2.5 3.7 2.5 6.2 0 8.7-.1 17.4.2 26.1.1 2.8-.7 4.8-2.6 6.7-6.4 6.2-12.8 12.5-18.9 19-2.9 3-5 2.6-7.7-.2-5.6-5.9-11.4-11.6-17.3-17.3-1.3-1.2-2.4-4.3-5-1.6-2.3 2.3.3 3.4 1.4 4.6 1.7 1.8 3 3.7 2.1 6.2-1.1 3.1-4 1.1-7.1 2.2 4.3 3.3 7.7 6.7 12.7 5.1 3.2-1 5.2-.3 7.3 1.7 1.9 1.9 3.9 3.8 5.7 5.8.7.8 1.9 2.3 1.6 2.8-3 5.6-.9 12.8-6.2 17.6-4 3.7-8.1 7.4-11.4 11.6-8.7 11.2-20.3 19.5-29.9 29.8-9.8 10.5-20.5 20.1-30.3 30.6-23.1 24.9-47.7 48.3-71.8 72.2-3.3 3.3-4.8 6.4-3 10.7 2.1 5.1-.1 8.5-3.8 12.1-26.3 26.1-52.4 52.3-78.5 78.6-28 28.2-55.9 56.5-83.6 84.9-4 4.1-6.8 5-10.5.2-1-1.3-2.9-3.4-3.9-3.2-5.8 1.5-7.2-3.3-10.1-6.2-8.8-9-17.7-18-26.8-26.8-6.1-5.8-8.4-14.4-15.4-19.5-2.4-1.7-4-3.7-6.7-.8-1.2 1.2-2.9 1.4-4.3.8-2.5-1.1-4.3-.8-6.2 1.2-2.3 2.4-4.8.5-4.7-1.4.2-3.9-2.7-6.2-3.6-9.4-.4-1.3-1.4-3.1-.9-3.8 2.9-3.9-2.8-7.5.1-11.8 1-1.4-2.9-3.2-5.6-4.8.2 3 3.2 3.6 3 6-2.5.4-4.2-1.6-4.9-3.1-4-8.5-11.8-13.6-17.8-20.2-5.2-5.7-10.3-12-16.8-16-4.2-2.6-3.8-5-4.5-8.5-.5-2.3-3.3-4.1-5.2-6.1-1.7-1.8-2-3.2.1-5.3 14.2-14.3 28.6-28.4 42.8-42.8 12.8-12.9 25.5-25.8 37.8-39.2 5.6-6 12-11.6 18.1-17.2 3-2.7 3-4.8-.1-7.5-4.2-3.8-8-7.9-12-11.9-1.4-1.4-2.9-3.1-1.1-5 1.8-1.9 3.5-.5 5 1 4 4 8.2 7.8 11.9 12 2.6 2.9 4.3 2.5 6.9-.1 17.9-18.1 36-35.9 53.7-54.1 4.5-4.7 8.7-7.2 15.1-4.6 3 1.2 5.6.6 8.3-2.1 33.1-33.5 66.4-66.9 99.7-100.4 6.8-6.9 14.3-13.3 20-21.1 6.7-9.2 16.8-14.5 23.6-23.3 4.2-5.5 11.4-5 17-7.8 2.6-1.3 4 2.4 5.7 4.1 3.2 3.1 8 5.2 5.4 11.9-.9 2.3 2.6 6.5 4.2 9.8.2.3 1.3.6 1.4.5.5-.5 1.1-1.4.9-1.9-.5-1.8-1.1-3.6 1.2-4.3 2-.6 3.8.3 5.2 1.8.4.4.9.8 1.3 1.1 1.4 1.2 2.6 3.2 4.8 1.1 2.4-2.2 0-3.4-1.2-4.7-5.6-5.7-11-11.6-17-16.7-4.4-3.8-4.1-6.6-.2-10.2 6.2-5.8 12.3-11.8 18.2-17.9 3.8-3.8 8.2-2.1 12.5-2-1.2 1.9-3 1.4-4.7 1.3-2.3-.2-4.2.3-5.4 2.5-.4-.1-.9-.4-1-.3-7.4 6-13.6 13.2-20.4 19.8-1.8 1.8-.3 3.1.9 4.4 6.2 6.1 12.4 12.3 18.6 18.4 1.1 1.1 2.2 3.3 4.2 1.4 2.3-2.2-.2-3.4-1.4-4.7-5-5.1-10-10.2-15.3-15-2.2-2-2.2-3.2-.2-5.1 4.1-3.9 7.9-7.9 12-11.8 1.8-1.7 3-3.4 2.6-5.9 3.5 2.1 7.9-1.2 11.2 1.9l15.6 15.6c1.6-3.9-.7-8.3 3.1-11.2.8-.6 2-1.5 1.4-2.8-.7-1.5-2.2-1.4-3.5-1.4-5.6-.1-11.2-.1-16.8-.1 3.3-2.3 7.1-.6 10.5-1.3 3.1.6 6.4-.5 9.5 1 2.4 1.1 2-2.4 3.7-2.5-.2-1.4-1.3-2.1-2.3-2.1-3.6 0-7.5-1.8-10.8 1.1-1.3-1.8-3.3-1.1-5.1-1.5-2-.5-4.7 1-6.4-1.4zM484.5 537c3.3 2.6 2.8 8 7.7 10.2-2.9-5.6-5.5-10.6-8.1-15.7l-.6-6.6c2 .4 2 2.1 2.4 3.5.8 3.3 1 8.4 3.8 9.2 2.8.8 5.1-3.9 7.4-6.3 1.3-1.4 2.1-2.7 4.1-.9 1.2 1.2 2.3 3.8 4.7 1.9 2.7-2.2 5.3-4.6 5.9-8.3.3-1.6-1.8-3.1-2.3-2.5-2.1 2.1-5.7-.4-7.3 2.9-1.4 2.9-3.5 2.3-5.6.3-3.1-3-6.3-5.8-9.3-8.8-1.5-1.5-2.2-1.3-2.4.8-2-4.6.3-8.6 1.4-12.8 1.3-4.6 4.2-8.5 6.1-12.9-1.6 1.5-2.6 3.3-3.9 4.9-4.9 6.6-4.8 14.9-7.7 22.2.1-2.3.1-4.5.3-6.8.1-1.3.1-2.6-1.1-2.9-2.4-.6-1.2 1.7-1.8 2.6-.4.6-.6 1.4-.9 2.1-.7-.6-1.4-1.3-2.1-1.9-.3-5.3 3.6-10.4.3-15.8-1-1.7-2.2-3.6-4-3.9-1.8-.3-2.9 1.7-3.9 3.1-1.7 2.1 1 2.9 1.6 4.3.6 1.2 3.4 1.9.6 4-9.5 6.9-16.6 16.2-25.2 24-2.6 2.4-1.7 4.2.5 6.3 7.4 7.1 14.7 14.3 22.1 21.5 1.3 1.3 2.6 3.6 4.8 1.8 1.8-1.6 5.1-2.8 3.3-6.4-.8-1.7-1.1-4 .2-4.9 3.9-2.8 2.1-5.9 1.2-9.1-.7-2.6-2-5.1-1.5-7.9.8-.7 1.6-1.4 2.4-2 1.6 5.5 1.6 11.6 5.9 16.1 2.6-2.1-.3-3.8 1-5.3zm256-183.6c-.1 2.3-.2 4.5-.2 6.8 0 1.1.8 1.7 1.9 1.6 1 0 2.3-.5 2.1-1.5-.6-2.6 1.9-5.7-1.4-7.8 2.9-2.8 1.4-6.1.8-9.3 1.8-7.5.1-13.4-5.8-19.1-15.1-14.5-29.4-29.8-44.2-44.5-6.9-6.8-14.3-13.2-21.8-20-1.4 4.4.5 8.2-1.3 12.7 2.9-1.7 3.7-5.4 7.4-1.9 18.1 17.5 36.8 34.4 53.3 53.4 1.9 2.2 3.6 4.5 7.2 3.7 1.6-.4 3.8 1.9 3.2 2.3-4.1 2.9-.2 6.8-1.5 9.9-2.6-7-2.6-7-7.7-3.8-3.2-4-3.2-4 1.6-6-4.7-1.4-8.7.4-9.2 3.7-.5 3.3 3.9.9 6 1.8.5.2 1.1.4 1.6.6-2.3 2.1-5.8-.4-8.3 2l14 14c.7-1.4 1.3-2.5 1.9-3.7.1 1.7.2 3.4.4 5.1zm-237.3 92.2c-.9-1.2-1.6-2.5-2.6-3.7-4.4-5-8-11.3-16.2-10.3-.6-.3-1.4-2.2-1.7-.6-.3 1.6.8 3.7 1.7 5.4 4.1 7.9 10.9 12.6 18.9 15.8.4 3.5-.9 6.2-3.6 8.6-4.6 4.2-8.9 8.6-13.2 13.1-1.1 1.2-3.9 2.3-1.4 4.5 2.3 2.1 3.5-.4 4.7-1.6 5.8-5.7 11.6-11.4 17.2-17.2 1.9-2 4.6-3.4 5.1-6.7-3.2-.7-6.4 1.7-9.1-.7 1.8-1.3 4.3.6 6.7-1.7-4.2.5-2.2-5.6-6.5-4.9zm49 120.2c.8.7-.4 3.6 1.1 2.4 2.8-2.1 6.1-4.2 7.3-8.1-5.1-.8-5.3 4.5-8.4 5.9-.5-1.6-1-1.4-2.2-.3l-20.4 20.4c-1.1 1.1-3.6 2.3-2.1 4.1 1.8 2 4.1.5 5.4-1.1 6.3-7.9 15.8-13.1 19.3-23.3zM395.6 739.1c2.5-2 6.2.6 8.5-2.6 4.6-6.5 11.1-11.2 16.4-17.1 16.3-18.2 34.3-34.6 51.1-52.3 2.7-2.9 2.3-4.4-.1-7-3.1-3.3-4.3-.2-5.9 1.3-13.7 13.6-27.4 27.3-41.1 41l-34.2 34.2c2.1 1 3.6 1.7 5.1 2.4-2 .1-4.1.1-6.2.2.2 2.4 2 3.4 3.2 4.7 1 1 2.1 2.7 3.7 1.1 1.3-1.3 3.6-2.4 3.4-4.3-.2-1.8-2.7-.8-3.9-1.6zm-21.4-149.5c7.2-6.5 14.5-12.8 20.6-20.4 1.4-1.7 3.6-3.4 1.1-5.9-5.1-5-10.2-10-15.3-15.1-1.7-1.7-2.9-1.8-4.7.1-6 6.3-12.2 12.5-18.5 18.5-2.4 2.3-2.2 3.9 0 6.1 5.7 5.5 11.3 11.1 17 16.7-2.8 1.7-7.1 2.4-5.1 8 1.9-3 6.9-3.2 4.9-8zm-112.1 14.9c-1-1.3-1.2-3.8-3.9-1.3-4.2 3.8-3.5 6 3.8 10 .9-3-1.2-6 .1-9 2 1.9.3 5 2.6 7.2.6-.5 1.2-.9 1.7-1.4 18.8-19 37.7-38 56.5-57 5.8-5.9 11.5-12.1 17.4-17.9 2.1-2.1 2.1-3.4.1-5.7-3-3.4-4.7-1.7-6.9.6-22.4 22.6-44.8 45.1-67.3 67.6-2.2 2-3.4 4.2-4.1 6.9zm40.5 43.9c-7.9-10.4-17.8-18.9-27.1-27.9-4-3.9-3.6-5.8.1-9.5 29.4-29.3 58.5-58.8 87.9-88.2 2.8-2.8 3.3-4.9-.1-7.6-6.9 6.1-13.5 12.6-18.9 20.2.4-.8.8-1.6 1.6-3.1-3.1 3.6-5.7 6.4-8.6 9.1-12.5 11.9-24.4 24.3-36.6 36.5-6.3 6.3-12.3 13-18.8 19-2.2 2.1-1.5 6.2-3.6 6.6-6.1 1.1-8.3 6.5-12.4 9.8-2.1 1.8-2 3.3 0 5.2l33 32.7c1.5 1.4 3.1 2.6 3.5-.8-.7 2 .7 3.5.9 5.5 6.6-5.2 6.6-5.2 1.4-10.3l-8.7-8.7c.8 2.1 2.5 3.5 3.8 5.1 1.4 2 4.6 3.2 2.6 6.4zm220.1-253.7c1.5 4.8 6.5 5.8 9.6 8.9 16.5 16.7 32.9 33.3 49.5 50 1.3 1.3 2.4 3.4 6.4 3.1l-36.9-36.9c12.2 10.3 23.4 21.6 34.6 32.8 1.5 1.5 2.9 3.3 5.2.7 2-2.2.5-3.4-.9-4.8-20.2-20.1-40.4-40.2-60.5-60.5-2.2-2.2-3.8-2.9-6.2-.7-3 2.8.1 4 1.4 5.5 6.4 7 13.2 13.7 20.5 19.9l-1.1 1.1-23.5-23.5c.4 3 1.1 3.8 2.1 4.3-5-5.1-9-1.8-13 1.4-1.3 1.1-2.9 2-4.4 2.7-3 1.4-3.5 2.7-.8 5.3 19.5 19.1 38.9 38.3 58.3 57.5 9.1 9 9 8.9 18.7.4 3.9-3.4 3.1-5.8-.4-8.1-3.1-2-5.5-4.7-8-7.2-2.3-2.2-4.3-3.9-6.9-.4-1 1.4-2.5 2-3.7 0-3.8-6.2-9.8-10.3-14.6-15.5-.9-1-2.4-1.8-.8-3.2 1.4-1.1 1.8.5 2.6 1.2 3.9 3.8 7.7 7.6 11.7 11.3 1.2 1.1 2.4 3.4 4.2 1.5 1.7-1.9-.8-3-1.8-4-11.2-11.3-22.4-22.5-33.7-33.8-3-2.4-5.8-5.3-7.6-9zM582 397c3.3-3.3 7.9-6 9.5-9.9 2.6-6.2 6.9-8.9 12.2-12.4 7-4.5 12.3-11.7 18.2-17.8 1-1 2.5-1.6 2-3.7-1.1-4.5 1.1-6.5 5.4-5.7 2.4.4 3.2-1 4.1-2.3 1.2-1.5-.3-2.5-1.2-3.4-3.1-3.2-6.5-6.1-9.4-9.5-3-3.6-5.6-4.1-9.7-1.4-24.8 15.8-49.8 31.3-74.6 47.1-3.3 2.1-9.2 3.5-9.1 6.9.1 3 4.9 6 7.8 8.9l40.2 40.2c1.3 1.3 4.3 3.9 4.4 1.2.3-7.5 4.7-8.8 10.4-9.4.2 0 .3-.3.4-.4 3.5-3.4 7.6-6.3 10.2-10.3 3.3-5.2 11.1-7.4 10-15.5-.1-1 2.7-3.5 3.5-3.3 5.3 1.7 7-2.8 9.8-5.4 4.4-4.1 8.6-8.4 12.8-12.7 2-2 4.8-3.4 3.6-7.6-.5-1.7 1.9-5.6 5.8-4.1 1.8.7 2.5-.2 3.1-1.5.6-1.3 1.4-2.5-.2-4-4.5-4.2-8.8-8.7-13.2-13.1-1.2-1.2-2.5-2.1-4.1-.8-1.1.9-2.4 1.8-1.5 3.8 1.9 4-2.5 6.2-3.9 5.8-4.5-1.5-5.9 1.8-8.1 3.9-4.9 4.7-9.7 9.5-14.4 14.4-1.8 1.9-4.5 3.2-3.1 7.2.8 2.2-2.9 5.4-4.5 4.7-4-1.8-5.2 1.2-7.2 2.9-2.8 2.4-5.1 5.8-9.2 7.2zM404.2 609.8c2.6 2.3 5.1 6 8.3 6.2 4.2.3 4.8-5.4 7.8-7.6 9.4-6.9 16.9-15.7 25.2-23.8 2.7-2.7 2.9-5-.1-7.9-7.4-7.1-14.6-14.5-21.8-21.8-3.2-3.2-6-4.2-9.4-.1-9.7 12.1-24.3 19.8-30.9 34.7-6.4 1.9-9 8-13.3 12.1-5.9 5.7-11.5 11.7-17.5 17.3-3.1 2.8-2.9 4.8.1 7.4 3.2 2.8 6.6 5.6 9.1 9 3.3 4.3 5.4 3 8.5-.2 9.6-10 19.5-19.6 29.3-29.4-7.7 9.6-16.4 18.2-24.9 26.9-9.2 9.5-9.2 5.8.3 16 2.3 2.5 4 2.6 6.6-.1 7.2-7.5 14.8-14.7 22.2-22.1 8-8 8-8 .5-16.6zm231.4-158.7c-3.1 1.1-3.9 3.7-4.7 5.9-1.2 3-3.8 2.9-5.9 4-.3.2-.6 1.1-.5 1.5 1.3 3.8-.8 5.6-3.9 6.8-1.9.7-3.2 2.3-2 4 1.1 1.7 2.4 4.9 5.2 3 3.2-2.1 4.9-.5 6.9 1.5 7.9 7.5 8 7.5 15.4-.4 1.1-1.2 2.5-2.1 2.5-4.3 0-2.2 2.2-4.4 3.8-4.5 3.7-.2 5.3-2.9 7.4-4.9 11.6-10.9 21.5-23.4 33.4-34 5.5-4.9 10.6-10.2 15.6-15.6 5.6-6.1 5.3-13.9.3-19.4-3.8-4.2-8.2-6.2-13.5-7.8-5.2-1.5-9.3-3-13.5 1.7-1.8 2.1-2.2 1.7-2.7-1.4-.4-2.5-1.5-5.1-3.9-5.6-1.7-.4-3.6 1.6-3.7 3.7-.2 6.1-6.2 9.5-6.7 15.5-.1 1.2-1.7 2.1-3.1 2.3-1.5.2-2.3 1-3.1 2.3-8.8 14.3-17.6 28.6-26.5 42.9-.5.9-1.2 1.8-.5 2.6 1 1.1 1.7-1.6 3.7.2zm-25.2-153.6c-4.2-3.6-6.5-8.4-12.3-9.8-4.3-1-7.8-1.6-11.1 1.8-3.4 3.5-6.4 7.5-10.3 10.2-7.5 5.1-10.9 13.7-18.3 19.2-9.8 7.3-17.8 17.2-26.2 26.4-1.5 1.7-1.9 5.7-4.3 6.2-4.5 1-6.4 4.7-9.5 7.1-3.4 2.6-3.5 4.6-.1 7.6 3 2.7 8 4.9 5.7 10.2 2.4.2 4.9.6 7.4.5 2-.1 3.4-2.1 6.3-.9 2.4.9 1-4.4 3.7-5.6 2.6-1.2 4.8-3 7.2-4.6 1.2 2.7 2.6 2.7 4.8.9 14.1-11.4 32.7-16.5 44.3-31.7 2.8-3.7 10-2.3 12.9-7.4.5-.8 1.7-.2 2.6.2 2.1.8 3.1-.9 4-2.3 1.2-2-.8-2.4-1.7-3.5-1.7-1.9-4.2-1.3-6.2-2.4 6.2-9.6 5.5-15-3.3-24 1.7 0 2 2.3 4.4 1.9zm-3 139.5-.2-.2c3.2-3.2 6.2-6.4 9.5-9.4 1.2-1.1 2.2-4 4.6-1.9 2.5 2.2.1 3.7-1.3 5.2-6.6 6.7-13.3 13.5-20 20.1-1.7 1.7-1.9 3-.1 4.8 4.5 4.3 8.9 8.6 13.3 13 1.9 1.9 3 2.4 4.7-.5 2.8-5.1 6.2-9.8 9.3-14.8 14-22.7 28-45.5 42.1-68.1 1.8-2.9 2.2-5-.7-7.5-3.8-3.3-7.2-7.1-10.8-10.6-1.2-1.1-2.3-3.1-4.3-1.4-1.3 1.1-2.2 2-1.4 4.4 1.3 3.9-1.8 6.2-4.9 5.4-2.7-.6-3.9.2-5.4 1.7l-17.7 17.7c-1.4 1.4-2.7 2.5-1.8 5.4 1 3.1-2.2 5.8-4.9 5.1-2.6-.7-3.5.2-4.8 1.5-5.4 5.3-10.9 10.5-15.9 16.2-2 2.3-6.9 3.8-4 8.7.5.8-1.1 1.7-2.5.9-1-.6-1.6-.5-1.5 1.1 0 2.5-.4 2.9-2.1 2.1-1.8-.9-2.5-.1-3.4.9-.9 1.2 0 2.1.7 3 7.9 10.8 9.6 10.9 19.1 1.6l4.4-4.4zm-283 239.5.2-.2c5.2 5.2 10.4 10.3 15.6 15.6 1.7 1.7 3 3.9 5.6 1.5 2.2-2 4.9-4.4 2.5-7.3-2.5-3-.9-4 1-5.9 8-7.8 15.8-15.9 24-23.6 3.3-3.1 3.5-5.3.2-8.4-7.7-7.3-15.2-14.8-22.7-22.2-2-2-3.6-1.9-5.7.3-7.1 7.5-14.4 14.8-21.7 22.2-1.1 1.1-2.7 2.1-3.1 3.4-1.2 3.7-2.4 3.5-5.2 1.2-3.5-2.9-5.4.6-7.6 2.7-2.8 2.6.1 3.7 1.3 5 5.1 5.4 10.4 10.5 15.6 15.7zm131-130.7c.1 0 .1 0 0 0-5-5.1-10-10.2-15.1-15.3-3.4-3.3-8.1-3-9.3 1.2-1.6 5.8-5.4 9.6-9.4 13.4-2.8 2.6-1.9 4.6.3 6.7 9 8.8 17.9 17.6 26.8 26.4 2.3 2.3 4.2 2.7 6.9.4 4.1-3.6 7.7-7.8 13.3-9.8 4.3-1.5 4.3-5.3.9-8.7-4.8-4.7-9.6-9.5-14.4-14.3zm-21 135.4c-4.4 4.4-8.8 8.7-13.2 13.2-10.7 10.9-21.5 21.7-32.1 32.7-2.4 2.5-3.8 2.4-6 0-4.4-4.7-9-9.1-13.5-13.6-1.1-1-2.4-3.2-3.7-2.2-3.8 3-5.5.1-7.5-2.1-2.1-2.2-5-3.8-5.8-7-.3-1.1 1-2.9-1.5-2.6-.5.1-1.3.3-1.4.7-.5 1.4.9 2 1.6 2.7l32.1 32.1c1.1 1.1 2.7 2.9 3.8 1.4 3.4-4.6 11-6 10.4-13.6-.1-1.3 1.2-2.5 2.3-1.8 3.3 2.2 4.2-1 5.5-2.4 16-16 32.1-32.1 47.9-48.4 4.8-5 11-8.9 13.2-16.1.3-1.1 2-2.5 2.9-2.4 2.7.3 3.9-1.6 5.2-3.1 8-9.2 19-15.7 24.3-27.2 1.4-3.1 5.1-1.9 7.1-4 6.3-6.6 12.8-13 19.3-19.4 1.7-1.6 2.9-3.1.5-5.2-2.5-2.2-3.4.3-4.6 1.5-6.8 6.7-13.7 13.2-20.1 20.3-2.7 2.9-8.8 4.7-5.2 10.9.2.3-.7 1.3-1.2 1.8-2.3 2.4-4.6 4.7-7 7-.9.9-2 2.5-3.4 1.2-2.7-2.6-4-.3-5.6 1.3l-44.3 44.3zm56.5-214.8c2.8-2.7 5.4-5.6 8.3-8.1 3-2.6 2.1-5-.5-6.4-7.4-4-12.8-9.7-16.9-17-1.4-2.5-3.9-4-6.9-.6-5.2 5.7-10.8 11.1-16.4 16.4-2.4 2.3-2.2 4 .1 6.2 6 5.8 11.9 11.7 17.6 17.6 2.4 2.5 4.1 2.9 6.6 0 2.4-2.8 5.4-5.4 8.1-8.1zm-36.5 116c-3.2 3.1-6.3 6.2-9 9.7-2 2.6-2 4.1.3 6.3 5.5 5.2 10.8 10.5 16.2 15.8 2 2 3.1 1 4.6-.8 3.4-3.9 7-7.8 10.7-11.4 10.3-10.2 10.3-12.1-.9-21.6-11.5-9.6-11.5-9.6-21.9 2zm-6.2-66.1c3.1-3.4 6.2-6.9 9.3-10.3 1.4-1.6 2.2-3.3.1-5-5.7-4.6-10-10.7-15.7-15.3-2.6-2.1-4-2-6.1.3-3.7 4-7.6 7.7-11.4 11.5-9.4 9.3-9.4 9.3 0 18.8 11.9 11.8 11.9 11.8 23.8 0zm-48.3 173.1.2.2-10.2 10.2c-3.6 3.5-7.2 7-10.8 10.6-5.1 5.2-5 6.7.8 11.1.9.7 1.9 1.9 3 .9 1.3-1.2.3-2.4-.7-3.4-5.6-5.8.8-8.5 3.4-11.9 2.7-3.5 4.7 0 7.2.9 3.4 1.2 6.6 6.1 10.7 2.1 10.8-10.5 21.4-21.3 32.1-32 1-1 2.7-1.8.5-3.6-2.8-2.3-5.4-5-7.9-7.6-2.3-2.4-3.9-2.1-6.1.2-7.3 7.6-14.8 14.9-22.2 22.3zm-63.6-101.3.2.2c-3.1 3.1-6.2 6.4-9.5 9.4-2.3 2.1-2.2 3.5 0 5.6 4.9 4.7 9.7 9.5 14.4 14.4 1.7 1.8 3 1.7 4.9.2 6.9-5.6 13.1-12 18.8-18.8 1.7-2 1.9-3.5-.2-5.4-4.9-4.6-9.7-9.4-14.4-14.3-2.1-2.2-3.6-2.1-5.6.1-2.7 3-5.7 5.8-8.6 8.6zm76.3 76.3.1.1c2.9-2.9 5.6-5.9 8.7-8.6 2.6-2.2 2.4-3.9.1-6.1-4.9-4.7-9.7-9.4-14.5-14.3-1.9-1.9-3.3-1.2-5 .2-5 4.3-9.8 8.8-14.2 13.7-6.5 7.3-6.5 7.2-.1 14.2l2.7 3c9.8 10.2 9.8 10.2 19.7.3l2.5-2.5zm30.5-30.7-.2-.2c2.9-2.9 5.5-6 8.7-8.5 2.6-2.1 2.7-3.9.5-6-4.9-4.9-9.8-9.9-14.6-14.8-1.4-1.4-2.7-.8-4.1.2-7.5 5.9-14.3 12.5-20 20.1-1.1 1.5-1.4 2.8.1 4 5.4 4.4 9.3 10.3 14.9 14.5 2.6 2 4 1.5 5.8-.4 2.9-3 5.9-5.9 8.9-8.9zm-132.5-31.6s.1 0 0 0c6-5.8 11.9-11.7 17.7-17.6 8.5-8.6 8.3-8.5-.6-17-2.5-2.4-3.7-2.9-6.3-.2-9 9.4-17.9 18.8-27.5 27.6-4.9 4.5-5.2 8.1-1.1 13.1 1.5 1.8 3.7 4.3 1.3 7.3-4.5 5.8-6.1 6.3-13.2 3.4-1.2-.5-3.1-1.1-2.5 1.3.7 3 3.5 4.6 5.7 6.3 2.3 1.6 3.3-1.1 4.5-2.3 7.5-7.3 14.8-14.6 22-21.9zm-7 19.7c-2.8 1.6-4.3 4.9-6.9 6.7-3.2 2.3-2.2 3.8-.1 5.8 4.8 4.7 9.6 9.5 14.2 14.4 1.8 1.9 3.1 1.7 4.9.2 6.9-5.7 13.1-12 18.8-18.9 1.2-1.4 1.8-2.9.2-4.6-5.1-5-10.2-10.1-15.3-15.1-1.7-1.7-2.9-1.7-4.7.3-3.4 3.8-7.3 7.4-11.1 11.2zm251.9-49.9c-.7.2-1.2.2-1.4.4-26.6 26.6-53.1 53.3-79.6 79.9-2.5 2.6-.2 3.6 1.1 5.1 1.6 1.9 3 2.6 5.2.4 23.8-23.9 47.6-47.8 71.6-71.5 4.3-4.2 5.4-8.5 3.1-14.3zM381 696.4s-.1 0 0 0c3-3.1 5.8-6.2 9-9 2.8-2.5 2.9-4.7.2-7.2-4.7-4.6-9.3-9.2-14-13.8-2.2-2.2-3.7-.8-5.3.8-5.8 5.4-11.6 10.7-16.7 16.8-1.3 1.6-4.1 3.4-2.2 5.2 2.6 2.6 4.3 7.1 8.6 7 8.9-.2 9-.4 8.2 8.1-.1 1.1 0 1.9 1 2.4 1.2.6 1.6-.6 2.3-1.2 2.9-3.1 5.9-6.1 8.9-9.1zm135.4-185.8s.1.1 0 0c1-.9 2-1.9 2.9-2.8 9.6-9.2 8.2-6.6.1-15.7-12-13.5-16.2-12.9-26.6 2.3-5.9 8.6-5.9 8.8 1.5 16.1l2.9 2.9c8.3 8.3 8.3 8.3 16.8-.3.8-.9 1.6-1.7 2.4-2.5zm-130.5 6.3c2.2 3.9 4.2 3.8 7.1.8 12.3-12.6 24.9-25 37.4-37.5 1.2-1.2 3.9-2.4 2.2-4.6-2.7-3.6-5.9-6.9-9-10.2-.1-.1-1.3.6-1.8 1.2-5.1 5-10.1 10-15.3 15.2 1 .5 1.5.8 2 1.1 3 2 5.8 4 5.2 8.2-.4 2.8-2.3 4.6-4.6 5.4-4.1 1.5-5.7-1.8-7.6-4.4-1.3-1.8-2.6-2.7-4.6-.7-5 5.1-10.1 10.2-15.2 15.2-1.9 1.9-1.8 3.8 1 4 4.6.4 5 4.4 7.4 6.7-2 1.8-2.6-.9-4.2-.4zm263.6-229.1 1.6-1.6c8.9-9 8.5-8.6-.4-18-11.2-11.8-12.4-8.8-21.7.7s-9.4 9.4 0 18.7c10.3 10.3 10.3 10.3 20.5.2zM499.3 416.6c-.2 1.4-.4 1.8-.2 2 8.2 8.3 16.3 16.6 24.5 24.8.9.9 1.9 1.7 3 .6 2.8-3 4.4-.5 6.1 1.3 9.6 9.6 19.2 19.2 28.6 29 2.1 2.1 3.6 2.4 5.7.2 2-2.1 3.1-3.8.3-6.2-3.1-2.7-5.8-5.7-8.7-8.6-18.3-18.2-36.5-36.5-54.8-54.7-2.5-2.5-12.4.5-13.3 4-.1.3-.1.9.1 1.1 2.1 2.2 5.7 1.4 7.8 4.2 1.2 1.5 2.6-.8 3.6-1.8 2.4-2.3 3.7-1.9 5.9.7 4.2 5 8.9 9.7 13.9 14 2.2 1.9 5 2.4 1.9 5.8-2.5 2.8-4.3 4.4-7.7.6-5-5.7-10.7-11-16.7-17zm212.3-66.9c-2.5 2.5-4.9 5-7.4 7.4-2 1.8-2.1 3.3-.1 5.3 4.6 4.5 9.1 9 13.5 13.6 2.1 2.1 3.7 2.1 5.8-.1 4.3-4.5 8.7-8.8 13.1-13.2 3.1-3.1 2.8-6.1 0-9.1-1.3-1.4-2.7-2.8-4.1-4.1-10.4-10.4-10.4-10.4-20.8.2zM385.3 536.4c1.6 3.8 15.2 17.9 18.1 20.2 1.9 1.5 3.2.6 4.6-.6 6.9-5.6 12.7-12.5 18.8-18.9 1.8-1.9 1.7-3.5-.3-5.4-5.1-4.8-10.1-9.7-14.9-14.7-2.5-2.6-4.1-2.6-6.5.1-11.8 13.1-11.6 7.8.5 19.4 4.2 4 2.3 6.1.8 9-1.9 3.5-6.8 3.5-9.6.9-3.8-3.6-6.8-7.8-11.5-10zm126 65.4c-.8-1.7-1.8-1.2-2.3-1.6-2.6-2-5.9-4.1-4.7-7.8.9-2.7 3-5.5 6.4-6 3.4-.5 5.5 1.6 6.9 4.3.6 1.1-.5 3.7 2.2 2.3 1.7-.9 3.8-2.6 1.5-5.1-1.8-2-4-3.7-5.7-5.8-2.6-3.2-4.6-2.8-7.4.1-11.2 11.5-22.8 22.8-34 34.3-2.1 2.2-4.1 3.6-8.4 1.2l14.2 14.2c.8-1.6.9-2.5.2-3.6-1.7-2.6-2.6-5.3 0-7.9 2.5-2.4 5.1-2.2 7.9-.3 2.6 1.7 4.7.4 6.7-1.6 5.6-5.8 11.2-11.4 16.5-16.7zM430 445.1c-5.6-.1-9.5-2.6-13.1.9l-51 51c-1.2 1.2-2.9 2.4-1 4.3 1.4 1.4 2.6 3.5 5.3 2 1.3-.7 2.8-1.2 3.9-2.3l55.9-55.9zm117.7 76.3c-2.4.7-3.7-1.4-5.3-2.5-1-.7-1.6-2.3-3.3-1.1-2.8 1.9-5.7 3.6-8.6 5.4-2.4 1.5-2.5 3-.4 5 3.8 3.6 7.6 7.2 11.2 10.9 1.8 1.9 3.3 1.4 4.9-.2 3.1-3.2 6.2-6.4 9.3-9.5 12-11.7 12-11.7-.5-22.7-.3-.3-.6-.5-.8-.8-1.3-1.3-2.7-1.6-4-.2-2.5 2.4-5.9 4.3-6.8 7.7-.7 2.6 2.8 3.8 4.2 5.8.3.7.7 1.3.1 2.2zM503 433.2l-.2.2c-4.7-4.7-9.5-9.2-13.9-14-2.3-2.5-4.2-3-7.4-1.2-9.1 5.2-18.4 9.9-27.6 14.9-6.6 3.6-13.2 7.3-19.7 11.2-1.1.7-3.6 1.9-1.3 4 1.2 1.1 2.2 2 4.4.7 13.3-7.6 27-14.4 40-22.4 5.7-3.5 8.8-2.4 13 2.1 7.4 7.9 15.4 15.3 23.2 22.8 1.4 1.3 2.5 3.1 4.7.9 2.2-2.3.3-3.4-1-4.7-4.6-4.9-9.4-9.7-14.2-14.5zm-9.5 127.4-.2.2c-1.9-2.2-4-4.3-5.8-6.5-2.2-2.7-4.2-1.6-5.5.6-2.3 3.8-9.8 6.4-6.7 11.1 4.4 6.6 11.3 11.4 17.1 17 1.3 1.3 2.3 1 3.4-.1 1.5-1.5 3.1-3 4.6-4.5 5.9-5.9 5.9-5.9-.3-11.2-2.3-2.1-4.4-4.4-6.6-6.6zM599.3 498c2.2-3.3 3.9-5.6 5.4-8.1 4.7-7.8 4.7-7.8-1.7-14.1-3.8-3.8-7.6-7.7-11.5-11.5-.9-.9-1.9-2.1-3.4-.9-.9.7-2.1 1.7-.9 2.8 4.2 4.2 7.6 9.3 13.6 11.3 1.1.4 2.9-.3 3.2 1.3.3 2-1.4 3.1-2.9 4-1.6 1-2.2-.7-3.1-1.6-3.2-3.6-6.4-7.2-9.9-10.6-1.3-1.2-2.6-5-5.2-1.4-2 2.7-7.4 4.7-3 9.3 6.2 6.5 12.7 12.8 19.4 19.5zm-83.5 29.5c-6.6 2.5-11.3 7.7-14.1 13-1.8 3.5 5.1 6.2 7.8 9.5 1 1.2 2.3 2.1 3.3 3.3 1.9 2.3 3.6 2.5 5.7.3 3.1-3.2 6.2-6.4 9.5-9.4 2.2-2.1.9-3.5.1-5.8-1.5-4.2-10.3 1.2-7.9-6.7-.4.1-.7.1-1.1.3-5.5 1.9-3.6-1.8-3.3-4.5zm130.8-226.3c-2.1 4.5-1.9 7.3 1.8 10.8 13.6 12.9 26.7 26.3 40 39.5 1.6 1.6 3.3 4.1 5.7 1.6 2.3-2.3.2-4-1.6-5.6-11.4-10.4-21.5-22.1-32.7-32.7-4.4-4.3-9.9-7.8-13.2-13.6zm-78.7 208.7c2.1 2.1 3.4 3 1.2 6.8-4.6 7.9-11.6 13.4-17.6 19.7-3.2 3.3-3.5 5.6.2 8.4.9.7 1.8 1.5 2.5 2.4 2.6 3.4 3.9 2.3 5.5-1 4-7.9 8.3-15.7 12.7-23.4 3.7-6.7 3.1-9-4.5-12.9zm-189.3-9.6-3.7 3.7c2.9 3 5 2.4 7.7-.3 11.2-11.5 22.7-22.8 34.1-34.2 1.4-1.4 3.8-2.6 1.3-5.2-2.4-2.5-3.7-.2-5.1 1.2-9.9 9.8-19.8 19.7-29.6 29.6-.9.9-2.4 1.4-2.1 3.2.7 3.3-2.2 3.6-4.3 4.6.5-.7 1-1.4 1.7-2.6zm72.7-7.8 5.7 5.7c1.2 1.2 2.2 1.7 4 .6 8.7-5.6 9.2-9 2.2-16.1-1.6-1.7-3.3-3.2-4.8-5-2.1-2.6-3.8-2.9-6.5-.3-7.6 7.4-7.7 7.2-.6 15.1zm95.6 73.4c-7.4 2.5-13.7 3.7-20 2.7-6.4-1-9.3 3.7-11.7 7.5-1.7 2.7 3.2 4.5 4.8 6.9.4.6 1.2 1 1.6 1.7 2 2.7 3.8 3 6.3.3 5.8-6.2 11.8-12 19-19.1zm-130.8-62.2-.2-.2c6.4-6.4 12.9-12.8 19.3-19.4 1.1-1.2 3.9-2.2 1.6-4.6-2.2-2.2-3.5.1-4.7 1.4-12.7 12.5-25.4 25.1-38 37.7-1.3 1.3-4.1 2.7-1.7 5.1 2.5 2.5 3.8-.4 5.1-1.7 6.3-5.9 12.4-12.1 18.6-18.3zm-44.9 207.1c19.8-17.8 38.7-36.3 56-56.5-20 17.6-38.7 36.4-56 56.5zm-4.4-181.3c3.9 7.5 3.8 7.4-1.2 13.7-1.2 1.5-2.9 1.9-4.1 3.1-8.1 8.5-8.2 8.8-18.5 4-3.8-1.8-5.2.3-7.2 2.5-2.3 2.6-.1 3.7 1.4 5.2 1.8 1.8 3.7 3.5 5.3 5.4 2.3 2.7 4.1 2.7 6.5 0 7.4-7.9 14.9-15.8 22.6-23.3 3.1-3 2.9-5.2-.4-7.3-1.3-.9-1.6-3-4.4-3.3zM475.5 431c-.2-.3-.3-.5-.5-.8-2 .9-4.1 1.7-6 2.8-6.7 3.8-13.2 7.9-20.1 11.4-9.1 4.6-9.2 4.4-2.3 11.2 2 1.9 3.8 4.1 6.6 1.5 2.1-1.9 1.7-4.7 1.2-7.1-.2-1-2-1.6-1.6-3.2 3.6 2.8 3.8 3 6 .8 5.6-5.4 11.1-11 16.7-16.6zm-5.4 201.3c-7.1-8.4-5.2-7.8-12.1-.9-5.1 5-10.2 10.1-15.1 15.3-8.3 8.7-8.3 8.8.5 17.1 1.4 1.3 2.7 4 5.1 1.5 1.9-1.9 5.1-3.4 2.7-7.1-1.5-2.3-2.9-4.6-4.2-6.9-1.2-2.3-2.3-5.1.2-6.8 4.3-2.9 8.2-6.8 11-10.6 4.2-6 7.4-4.6 11.9-1.6zm20.6-35c5.7-5.7 11.5-11.5 17.2-17.3 1.1-1.2 2.9-2.4 1.2-4.4-1.7-1.9-3.1-.7-4.4.6-11.5 12-24 23-34.7 35.8-1.2 1.4-2.5 3-.7 4.5 1.7 1.4 2.8-.6 3.8-1.6l17.6-17.6zm-29.3-181.8c.3.4.7.8 1 1.3 11.4-5.9 21.2-14.2 32.2-20.8 2.3-1.4 1.9-3.5-.1-4.6-2.1-1.1-3.4-5.7-7-2-8.6 8.7-17.3 17.4-26.1 26.1zm85.7 73.3c5-5.1 4.8-4.8-2-12.3-3.6-4-5.4-1.4-7.6 1-6.8 7.4-8 5.4-1.1 12.2 5 4.9 5 4.9 10.7-.9zM742 365.3c-2.7-2-4.4-1.1-6.3.8-3.7 3.9-7.8 7.5-11.4 11.5-2.7 3-4.5 2.4-7-.2-4.7-4.9-9.6-9.5-14.5-14.2-1.1-1-2.1-3.3-4.1-1.1-1.5 1.8 0 2.8 1.1 3.8 6.4 6.2 12.8 12.3 19.1 18.5 1.4 1.4 2.5 1.4 3.9 0 6.4-6.3 12.8-12.6 19.2-19.1zM558.2 475.6c-9.1-9.1-17.6-17.7-26.3-26.2-1.1-1.1-2.3-3.4-4.7-1.1-2.5 2.4-.6 3.7.9 5.2 6.5 6.6 13.1 13.2 19.7 19.6 2.7 2.6 5.8 4.1 10.4 2.5zm-10.1 84.5-5.9-5.9c-6.7-6.7-6.2-6.1-13.4 0-4 3.5-1.4 6.5-1.1 9.3.2 2.1 3.9.7 5.9.5 4.8-.3 9.5-1 14.5-3.9zm108.5-216.6c-6.8-6.8-13.6-13.7-20.5-20.5-1-1-2.1-2.9-3.8-1.4-1.4 1.3.1 2.4 1 3.3 13.7 13.6 27.5 27.2 41.2 40.8.9.9 2.1 2.2 3.3.6 1-1.3-.5-2-1.2-2.7-6.6-6.7-13.3-13.4-20-20.1zm17.3-55.7c-5.8 3.2-9.1 8.6-13.7 12.5-2.1 1.8-1.4 3.6.4 5.4 1.8 1.8 3.1 1.2 4.9-.2 4.3-3.3 7.9-7.2 11.3-11.4.4-.5.8-3.8 2.1-.6.7 1.6 1.1 1.7 2.3.7 1.3-1 1.6-2 .3-3.3-2.2-2.1-4.4-4.4-6.6-6.5-.9-.8-2.4-1.7-2.8-.4-1 3.1-4.6 3.8-6.1 6.7 3.6 1.1 3.9-4 7.9-2.9zm-323.8 225 .1.1-7.8 7.8c-1.5 1.5-1.7 3.1.1 4.4 1.4 1 2.7 4.2 4.5 2.5 5.6-5.5 12.3-10 16-17.3 1.4-2.9-1-3.9-2.4-5.1-2-1.8-3.1.4-4.3 1.5-2.2 2-4.2 4.1-6.2 6.1zm-3 61.8c-.4-.4-.9-.8-1.3-1.3l-56.2 56.2 1.4 1.4c19.3-18.3 38-37 56.1-56.3zm-26.9 100.3c-2.2-2.2-4.3-4.4-6.6-6.5-1.9-1.8-3.4-1.6-4.2 1.1-1.4 4.7-.9 8.8 2.4 12.8 3.4 4.2 8.3 3.7 12.5 3.9 2.6.1 4.8-2.6 1.6-5.6-2-1.8-3.8-3.8-5.7-5.7zM708.4 308c-4.7-4.7-9.3-9.3-14-13.9-1-1-2-2.8-3.8-1.1-1.7 1.6-.1 2.8.9 3.8 8.9 8.9 17.8 17.7 26.8 26.5 1.2 1.1 2.5 3.3 4.2 1.6 2.1-2.1-.7-3.4-1.8-4.6-4-4.1-8.2-8.2-12.3-12.3zM594.2 529.4c6.2-6.2 12.7-12 18.3-18.6 2.2-2.6-2.3-3.8-3.6-5.7-.8-1.2-2-3.1-4-.9-2.9 3.1-6.1 6.3-6.5 10.6-.5 5.2-1.4 10-4.2 14.6zM623.1 319c1.1-.3 1.8-.3 2.2-.6 12-11.9 23.9-23.8 35.9-35.7.8-.8 2.1-1.7 1.1-2.8-1.4-1.5-2.5.1-3.3.9-6.5 6.4-13.1 12.6-19.3 19.3-3.3 3.6-7.7 6-9.5 11.4-.8 2.1-6.1 3.1-7.1 7.5zM516.8 561.7c.3-.4.6-.9.8-1.3-6-6-12-11.9-17.9-18-1.6-1.6-3-1.3-4.5.1-1.2 1.1-2.6 2.2-1.1 3.9 6.3 7.1 12.8 13.8 22.7 15.3zm163.8-187.4c6.3.3 7.9-5.4 11.8-8.4 10-7.5 18.2-17.3 27.1-26.1.8-.8 1.8-1.8.5-2.9-.8-.7-1.8 0-2.5.7l-9.6 9.3c-9.1 9.1-18.2 18.3-27.3 27.4zm-61.2-47.7c.3 1 .4 1.5.6 1.7 16.4 16.4 32.8 32.9 49.2 49.3.8.8 1.9 2.7 3.2 1 1.1-1.4-.7-2.3-1.6-3.2l-44.1-43.8c-2-1.9-3.8-4.3-7.3-5zm16.8-9.1c-1.6 2.3-.8 3.1-.1 3.7l41.7 41.4c.8.7 1.6 2.2 2.8 1 1.5-1.4 0-2.4-.9-3.3-6.6-6.5-13.4-12.8-20-19.3-7.8-7.7-15.5-15.5-23.5-23.5zM535.8 476.2c-1.4-.5-2.3-.8-3.2-1.1-2.8-1-12.8.4-12.7 1.9.2 3.5 4 4.8 5.8 7.4.3.5.9.8 1.3 1.2 8.7 8.4 8.7 8.4.3 17.4-.6.7-1.2 1.4-2.6 3.2 1.8-1.5 2.5-2.1 3.2-2.8 2.3-2.3 4.5-4.8 7-6.9 2.7-2.3 2.6-4 0-6.5-5.7-5.6-5.5-5.7-.2-11.9.2-.5.5-1 1.1-1.9zm66-8c2.4 2.3 4.6 4.7 7.1 6.9 1.1 1 2 3.3 4.1 1.1 1.7-1.9 2.2-3.5 0-5.3-5.2-4.4-8.7-10.6-15.3-13.6-1.2-.6-1.4-2.7-3.3-.7-1.5 1.6-1.7 2.8 0 4.3 2.5 2.3 4.9 4.9 7.4 7.3zM519 489l-.1.1 7.8 7.8c1.5 1.5 2.7 1.9 4.3.1 1.3-1.6 1.6-2.9 0-4.4-4.7-4.6-9.3-9.3-14-13.9-2.1-2.1-4.3-.7-5.6.6-1.7 1.7.7 2.6 1.6 3.5 1.9 2.2 4 4.2 6 6.2zm-68 117.5.3-.3-6.1-6.1c-1.9-1.9-3.3-.7-4.9.7-1.8 1.6-1.4 2.8.1 4.2 3.8 3.6 7.5 7.2 11.2 11 1.6 1.7 3 1.6 4.3 0 1.2-1.5 2.6-3 .4-4.9-1.8-1.5-3.5-3.1-5.3-4.6zm176-279.3-1.5 1.5c15 14.9 29.7 30.2 45.4 44.4l1-1c-15-14.9-30-29.9-44.9-44.9zm55.9 34 1.4-1.4c-14.6-15.3-29.4-30.4-44.9-44.8l-1.3 1.3c14.9 15 29.9 30 44.8 44.9zm-52.7-37c-.3.3-.6.6-1 .9l44.9 44.9c.3-.3.6-.6.9-1-14.9-14.9-29.9-29.8-44.8-44.8zm-245 348.4c2 1.2 3.6 3.1 5.1 5.1 1.2 1.6 2.5 2.2 4.2.3 1.4-1.5 2.7-2.6.6-4.7-3.8-3.6-7.4-7.3-11-11-1.6-1.6-3-2-4.8-.2-1.9 2-1.8 3.5.2 5.2 1.9 1.8 3.7 3.5 5.7 5.3zm283.6-338.2c-6.9-6.9-13.4-13.4-19.9-19.8-1.1-1.1-2.2-4-4.5-1.7-2 2.2-.1 3.8 1.5 5.3 4.6 4.6 9.3 9.2 13.9 13.9 2.3 2.5 5 3 9 2.3zm27.3-29.1-.1.1c-1.9-1.9-3.7-4-5.8-5.7-1.3-1-2.4-4.1-4.5-1.9-1.4 1.4-.9 4 .7 5.7 4.1 4.4 8.3 8.6 12.5 13 1.7 1.8 3.1.8 4.5-.3 1.7-1.4 1-2.6-.2-3.9-2.4-2.4-4.8-4.7-7.1-7zm-332 276.1-.1.1c-1.9-1.9-3.9-3.7-5.7-5.7-1.6-1.8-3-1.2-4.4.2-1.2 1.2-2 2.3-.4 3.9 3.9 3.8 7.6 7.6 11.4 11.5 1.7 1.7 2.9 1.1 4.4-.3 1.5-1.5 1.8-2.7.1-4.3-1.8-1.8-3.5-3.6-5.3-5.4zm61.7-62-.1.1-6.1-6.1c-1.5-1.5-2.7-1-3.9.3-1 1.1-2.3 2.1-.7 3.8 3.8 3.8 7.5 7.8 11.2 11.7 1.5 1.6 2.9 1.4 4.5-.1 1.8-1.7 1.9-3.1.1-4.8-1.8-1.6-3.4-3.3-5-4.9zm-92.2 93-.3.3c-1.8-2-3.6-4-5.3-6-1.6-2-2.9-1.2-4.2.2-1.2 1.3-2.7 2.2-.7 4.2 3.6 3.5 7.1 7.1 10.6 10.7 1.6 1.7 2.9 2 4.8.2 2.1-2.1 1.7-3.5-.3-5.2-1.7-1.3-3.1-2.9-4.6-4.4zm208.1-109.6-4.9 4.9c-1.1 1.1-2.3 2.2-.7 3.9 1.5 1.6 2.7.7 3.9-.5 2.1-2.2 4.2-4.4 6.5-6.5 2.3-2 4.4-4.2 7-5.9 1.9-1.2 4.7-4 2.4-6.6-2.6-2.8-5.6.4-6.5 2-2.1 3.6-5.3 5.8-7.7 8.7zm33.5-23.8c3.6 5.2 8.4 8.7 12.6 12.9 1.6 1.6 3.2 2.7 1 5.1-4 4.3 1.8 5.2 3 7.6.8 1.8 2.3 1.5 3.5-.3 1.5-2.5 4.6-4.3.9-7.7-5.8-5.4-11.2-11.2-16.8-16.7-.9-.8-1.7-2.2-4.2-.9zm-185.6 75.6-.1.1c2.1 2.1 4.1 4.1 6.1 6.2 1.7 1.7 3 .9 4.4-.5 1.3-1.3 1.9-2.4.4-3.9-3.9-3.8-7.7-7.6-11.5-11.5-1.8-1.9-3.1-.7-4.4.5-1.6 1.5-1.7 2.8.2 4.3 1.8 1.4 3.3 3.2 4.9 4.8zm26.2 86.8c1.8 1.7 3.7 3.4 5.3 5.2 1.4 1.6 2.4 2.2 4.2.4 1.8-1.7 1.8-3.1 0-4.8-3.7-3.6-7.4-7.3-11-11-1.4-1.4-2.6-1.8-4.3-.1-1.7 1.7-2 3.2-.2 4.8 2 1.9 4 3.7 6 5.5zm66-66.1.1-.1-5.7-5.7c-1.6-1.6-3.1-1.8-4.8.1-1.7 1.9-.9 3 .5 4.4 3.6 3.5 7.3 7 10.8 10.6 1.4 1.5 2.6 2.1 4.3.5 2-1.8 1.6-3.2-.2-4.8-1.8-1.6-3.4-3.3-5-5zm-44.1-96.9c-1.7-5.3.8-6.9 4.9-7.5-2.4-2.4-4.7-4.8-7.1-7.1-2.1-2-4.7-2.5-6.7-.5-2 2.1-1.4 4.7.6 6.7 2.6 2.7 5.2 5.2 8.3 8.4zm23.4 142.9c-6.5 2-29.3 25.1-30.4 31.3 10.9-10.4 20.7-20 30.4-31.3zm213.8-295.6s.1 0 0 0c2.2 2.1 4.4 4.3 6.6 6.5 1.4 1.4 2.6 3.6 5 .9 2.2-2.5.5-3.9-1.2-5.2-4.3-3.2-8.2-7-11.9-10.9-1-1.1-2.1-1.6-3.5-1.7-1.2-.1-2.4-.3-3 1-.5 1.1.4 1.8 1 2.4l7 7zm17.7-38.7-1.3 1.3L727 324c-10.2-13.6-22.6-24.9-34.4-37zM581.1 539c4.3-5.8 10.2-10.4 12.9-17.3.4-1 1.7-3.3-.6-2.9-1.8.3-3.7-3.3-5.2.2-2.9 6.5-6.5 12.6-7.1 20zm-33.2 17c2.9-2.8 4-5.6 3-9.2-.8-2.6-2.2-4.9-4.9-4.5-1.8.3-4.2-1.5-5.7 1.9s.5 4.5 2.1 6.2c1.6 1.7 3.5 3.5 5.5 5.6zm118.8-217.1c5.3 5.3 10.4 10.4 15.6 15.5 1.6 1.6 3.3 1 4.6-.3 1.5-1.5-.4-2.3-1.2-3.2-3.6-3.7-7.3-7.4-11-11-2.2-1.9-4.6-3.4-8-1zM442 461.4c.1 0 .1 0 0 0-1.8-2-3.7-3.9-5.6-5.8-2.1-2.1-3.4-.4-4.7 1-.8.9-2.6 2.6-.8 3.1 6 1.7 8.9 7.1 13.4 10.7 1.3 1.1 2.3 1.1 3.4-.2s.8-2.4-.3-3.5c-1.8-1.7-3.6-3.5-5.4-5.3zm-62.4 275c-10.2-12.7-21.7-24.1-34.3-34.3l34.3 34.3zm-30.4-167.1c.5.5.9 1 1.4 1.5 9.7-9.3 19.7-18.4 28.3-28.8l-1.2-1.2c-9.4 9.5-18.9 19-28.5 28.5zm113.2-98.6.2-.2c2.9 2.9 5.7 5.8 8.7 8.6.8.8 1.7 2 2.9.8.7-.7.4-1.9-.3-2.6-5.6-6.2-11.2-12.3-17.8-17.5-.7-.6-1.8-1.1-2.6-.2-1.1 1.2 0 2.1.8 2.9 2.6 2.7 5.4 5.4 8.1 8.2zm77.7-.3-15.3-15.3c-1.2-1.2-2.4-2.1-3.9-.5-.8.9-1.8 1.9-.8 3 3 3.1 5.3 7.2 9.8 8.4 1.4.4 3.2-.1 3.5 2.1.8 3.9 3.8 2.6 6.7 2.3zm-30.4-92.3c-.1-.2-.2-.5-.3-.7-.5.5-1 1.1-1.6 1.6-2.7 1.9-4.1 6.2-9 4.2-1.2-.5-5.3.5-4.3 3.8.9 3.2 3.6 5.7 6.8 6.4 1.8.4 1.9-2.1 2.8-3.6 2.3-4.1-1.4-2.5-2.8-3.4 2.9-2.8 5.7-5.5 8.4-8.3zm71.7 87.4c.4.3.7.7 1.1 1 11.8-11.1 22.5-23.3 33.2-35.3l-34.3 34.3zM523.9 550s-.1 0 0 0c-1.5 1.5-3.1 2.9-4.5 4.5-.9 1-3.1 1.8-1.7 3.7 1.5 2 3.4.4 4.5-.6 3.8-3.3 7.3-6.8 11-10.2 1.2-1.2 1-2.3-.1-3.5-1.3-1.3-2.4-.7-3.4.4-2 1.9-3.9 3.8-5.8 5.7zm18.1-52.8-1.3-1.3c-2.5 2.5-5 4.9-7.4 7.5-3.9 4-7.8 8-11.6 12.1-.9 1-1.9 2.2-.5 3.5 1.4 1.2 2.5 0 3.5-.9s2.4-1.9 2.5-3c.6-3.8 3.4-5.7 5.9-8.1 3.1-3.1 6.5-6.1 8.9-9.8zm-117 165c-.1-.2-.1-.4-.2-.6l-50.6 50.6.4.4 50.4-50.4zM380.5 517c-1.5 1-1.2-4-4.1-1.1-2.2 2.2-1.7 3.9.2 5.6 2.3 2.1 4.6 4.1 6.8 6.2 1.5 1.5 2.7 1 3.9-.3.8-.9 1.7-2.5.3-2.8-4-1-4.1-5.3-7.1-7.6zm191.3-28c.1 8.5 5.2 12.2 9.3 16.5 1.6 1.7 2.8 1.4 4.3-.1 1.8-1.9.1-2.7-.9-3.7L571.8 489zm-233.5 88.2-.3-.3-47.2 47.2.3.3 47.2-47.2zm148.5-171.1c-.4-.5-.8-.9-1.2-1.4-11.5 7.8-23 15.7-34.4 23.5 12.7-6 24-14.3 35.6-22.1zM366.2 524c1.1 4.1 4.6 6.1 7.3 8.6 3.4 3.2 3.1 5.4-.2 8.5-9.1 8.7-17.8 17.7-26.7 26.6 10.5-8.8 20.2-18.5 29.9-28.2 1.6-1.6 2.2-3.1.3-5-3.5-3.4-7.1-6.9-10.6-10.5zm109.1 110.5.7-.7c-3.2-3.2-6.5-6.4-9.7-9.7-1.8-1.8-3.1-1.3-4.8.3-9.6 9.8-19.4 19.4-29.1 29.1 1.3-.3 2.1-1 2.9-1.8 8.5-8.5 17.1-16.9 25.4-25.5 2.5-2.6 4.3-2.5 6.6.1 2.5 2.9 5.3 5.5 8 8.2zm27.3-68.2c.7.7 1.3 1.5 2.1 2 1.2.7 1.9 3 3.8 1.7 1.2-.8 2.7-2 3-3.3.6-2.5-2.2-2-3.5-2.9-1.7-1.3-3.5-2.3-5.4-3.3-1.2-.7-2.3-.2-3 .8-.7 1-.2 1.8.5 2.5l2.5 2.5zM492 517.9c-.1 0-.1 0 0 0 1.6 1.7 3.2 3.4 4.9 4.9.9.8 1.9 2.6 3.2 1.2 1-1.1 0-2.6-.9-3.6-3.3-3.5-6.6-7-9.9-10.4-.7-.7-1.6-2.1-2.7-.5-.6.9-.9 2.1.2 3.1 1.6 1.7 3.4 3.5 5.2 5.3zm229-187.2-.9-.9-20.2 20.2c.3.3.6.6.9.8 6.8-6.7 13.5-13.4 20.2-20.1zm-216.9 87c2.8 5.5 7.7 9 11.6 13.3.7.8 1.7 1.1 2.4.3.5-.6.5-1.4-.2-2.1-4.2-4.3-7.7-9.4-13.8-11.5zm109 76.9c-2 1.6-7 .2-5.8 4.7.7 2.7 3.5 6.1 6.9 6.1 3.9 0 2.3-4.2 3.9-6.1-2-1.2-3 2.2-4.9 0-1.5-1.9 1.7-2.6-.1-4.7zM683 283.2c-2-2-4.1-4.1-6.2-6.1-.7-.7-1.6-1.1-2.6-.4-1 .7-.8 1.6-.1 2.4 4.1 4.1 8.1 8.3 12.2 12.4 1 1 2.2.8 3-.3.7-.9.4-1.8-.4-2.5-1.9-1.9-3.9-3.7-5.9-5.5zM525.7 528.8c-.2 1-.7 1.9-.5 2.4 2.4 5.5 7.4 8.7 11.4 12.8.6.6 1.4.2 1.9-.6s.2-1.6-.4-2.1c-4-4.1-7.2-9.1-12.4-12.5zm-57 110c-.4-3.2-.8-5.4-3.6-6.2-1-.3-2.5-.6-2.3.3.7 3.6-.8 4.2-4 4.2-1.6 0-.9 1.5-.4 2.6 1 2.2 2.7 3 5.3 3.3-.6-3.8.1-6.4 5-4.2zm-26-158.7c-.9.7-2.4.9-1.2 2.5 1.1 1.4 2.2 1.3 3.3 0 2-2.1 4.2-4.1 6.2-6.2 1.4-1.4 3.9-2.9 1-5-2.7-2-3.7 1-4.9 2.3-1.7 2.1-1 5.7-4.4 6.4zm40 3.9c.8-1.2 3.9-2.7 1.1-4.7-2-1.4-5.2-1-7.2.6-1.6 1.3-2 3.3.2 5.3 2.6 2.5 4 .8 5.9-1.2zm108.7-23.7-1.3 1.3c6.5 5.3 11.3 12.4 19 16.3-5.9-5.8-11.8-11.7-17.7-17.6zm-239.3 80.9c.3 4.4.1 4.7-1.7 5.5-.9.4-2.9-2.3-2.7.8.1 2 1.3 4.1 3.3 4.4 3.6.6 1.7-7.1 6.8-4.9 0-.7.1-1.5-.1-2.1-.8-2.5-2.9-3-5.6-3.7zm35.1 166.9c-.2 2.3 2.1 6.6-3.5 4.9-1.7-.5-1.4 1.2-1 2.3 1.1 2.6 3.1 3.7 6.1 3.4-.9-2.2-1.4-5.1 1.8-4.6 3.9.6 2-1.3 1.8-2.7-.5-2.4-2.6-2.8-5.2-3.3zm-121.8-87c-.2.2-.3.4-.5.7l30.5 30.5.6-.6-30.6-30.6zm193.9 26.3c-.3-2.8-1.5-5.2-4.3-5.5-3.3-.3-.9 2.5-1.6 3.7-.9 1.6-2 1.1-3.4.8-1-.2-1.7.6-1.3 1.8.6 1.9 1.1 3.7 3.7 3.7.8 0 2.2 1 1.9-.7-.9-4.6 2.7-3.4 5-3.8zM292 613.7c.2-3.1-1.3-4.8-4.2-5.1-3-.3-.4 2.4-1.5 3.4-.9.8-1.7 1.5-3 1.3-1.6-.2-1.7.1-1.4 1.8.5 2.5 2.2 2.8 4 3.5 1.3.5 2.1-.3 1.7-1.3-2.1-5.7 3-2.4 4.4-3.6zm64.5-76.9c1.1 2.8 1.4 5.6 4.7 5.8 3.6.2.5-2.7 1.6-3.7.5-.5 1.2-.9 1.9-1 1-.2 3 1.5 2.9-1-.1-1.9-1.3-3.4-3.6-4-2.5-.7-1.7.9-2 2.1-.6 2.9-2.9 2.3-5.5 1.8zm207.3 21.1c3.8-3.8 7.6-7.5 11.3-11.3.7-.7 2.2-1.5.7-2.7-1-.8-2.3-.9-3 .3-2.5 4.8-6.7 8.5-9 13.7zm-91.4-71.3c.3-.3.5-.6.8-.9l-14.4-14.4c-.3.3-.5.6-.8.8 4.7 4.9 9.6 9.7 14.4 14.5zM358.5 707.4c.8.5 2 1.7 3.4 2 1.3.2 3.5.6 4-1.3.6-2.7-1.8-1.8-3.1-1.9-2.3-.2-3.9-.9-4-3.6 0-1.2.6-2.9-1-3.6-.5-.2-1.8.5-1.8.8-.2 1.4-.3 3 .1 4.4.2 1.1 1.3 1.8 2.4 3.2zm15.7-49c-.1-.1-.1-.3-.2-.4l-24.3 24.3.3.3c8.1-8 16.1-16.1 24.2-24.2zm-28.8 39.2c3.6.3 7 1 10.5-.7-5.5-6.7-6.3-6.7-10.5.7zm283.2-375.4c.3-1.8 5.4-2.6 2.7-5.2-2.4-2.3-3.8 2-5.7 3.3-.8.5-1.4 1.3-2.1 2-.9 1-2.2 2-1 3.4 1.4 1.6 2.3 0 3.3-.8.9-.7 1.7-1.6 2.8-2.7zm50.8 51c.6-1.8 5.2-2.9 3-5.3-2.7-2.8-4 1.7-5.9 3-.3.2-.6.5-.8.8-1.1 1.5-4.4 2.7-2.2 4.8 2.2 2.3 3.3-1.3 4.9-2.2.2-.2.4-.6 1-1.1zM412.7 619.7c-.2 0-.3-.1-.5-.1l-21.8 21.8.3.3c7.4-7.3 14.7-14.6 22-22zM697 342.9c.4-2.3 5.9-3.8 3.5-6.1-2.6-2.5-4.4 2.8-7.2 3.9-1.8.7-1.4 2-.2 3.2 1.5 1.4 2.7 1.1 3.9-1zM370 600l-.4-.4-22.7 22.7.4.4c7.6-7.5 15.1-15.1 22.7-22.7zm192.2-51.1c6.2-5.1 9.2-10.7 10.2-18.4-3.7 6.9-6.9 12.6-10.2 18.4zm-43.1 19.5c-4.3-3.3-6.1-.3-8.1 1.8-1 1-1.5 2.1-.3 3.4 1.3 1.3 2.3.9 3.3-.2 1.7-1.6 3.3-3.2 5.1-5zm54-57.9c-.4-4.7-1.6-7.3-2.9-9.8-.7-1.3-1.3-3.2-3.7-1-1.6 1.5-2.1 2.2-.4 3.8 2 1.9 3.9 4 7 7zm144.5-182.9c-6.5 2.7-7.9 4-11.7 11.4 5.4-3.5 8.6-7.4 11.7-11.4zM502.5 477.2l-17.4 17.4c.4.4.8.8 1.2 1.1 4.4-7 10.2-12.8 16.2-18.5zm-9.3-1 .4.4 19.4-19.4-.4-.4c-6.5 6.5-12.9 13-19.4 19.4zm196.8-190c-2.3-4.6-5.7-7.8-10.5-9.6 2.9 3.9 6.1 7.4 10.5 9.6zM379.2 655.7l-7.4 7.4c6.5-.3 8.2-2 7.4-7.4zM333 558.4c2.8 3.8 5.4 8 10.3 9.6-2.5-4.2-6.1-7.2-10.3-9.6zm368.9-226.7c-1.4 1-2.1 2.1-.6 3.7 1.3 1.4 2.5 1.6 3.9.2 1.3-1.4 2.3-2.6.5-4.4-1.5-1.5-2.7-1.1-3.8.5zm-53.2-32.9.6.6 20-20-.6-.6c-6.6 6.7-13.3 13.3-20 20zm-81.4 249.6c6.2-7.4 8.6-13.1 8.1-19.1-1.8 7.4-5.2 13.2-8.1 19.1zm-102.1 72c-5.6-6.8-6.6-6.8-10 .4 3.7-2.8 6.5 0 10-.4zM380.5 546c5.3-3 5.7-5.6 1.8-8.6-.5-.4-1.4-.4-2-.3-.3.1-.7 1.2-.6 1.4 2.2 2.2 0 5 .8 7.5zm316.2-191.1c-6.6 2.7-9.1 7.2-11.6 11.6l11.6-11.6zm-9.4-18.2c3.9-.4 7.6 1.7 10-2.5-3.7-1.4-7.4-3.9-10 2.5zm-18.5-70.3c-1.8.8-.3 3.5-2.6 3.5-.9 0-2.7-3.2-2.4.6.1 1.6-1.2 3.7 1 4.6 1.5.5 2.1-1.3 2.9-2.3 1.4-1.7 3-3.5 1.1-6.4zM341 481.8c1.8 4.5 3.9 7 8.6 8.2-1.4-4.4-3.5-7-8.6-8.2zm102 185.3c-2.9-3.5-5.3-7.6-9.7-9.6 2.1 4.3 5.3 7.5 9.7 9.6zm217.8-371.5c-3.4 2.3-4.9 5.2-5 8.4-.1 2.2 5.9 5.8 8 5.4-6.2-3-6.2-3-3-13.8zm-169 245.8c3.2-1.2 5.6-1.8 7.7-2.9 1.2-.6 3-1.8 2-3.5-1.1-1.7-2.7-.6-3.8.5-1.7 1.8-3.4 3.5-5.9 5.9zm-69-84.3c-1.5 1.7-.6 2.9.6 4 1.1.9 1.9 3.4 4 1.4 1.1-1 1.6-2.2.2-3.3-1.4-1.2-2.6-2.9-4.8-2.1zm-19.9 175c5.3-.1 7.4-2.2 7.7-7.7-3 2.9-5.1 5.1-7.7 7.7zm-58.6-9.8-1.1-1.1c-2.8 1.1-5.6 2.3-5.2 7.4l6.3-6.3zm186.8-108.6c-1 .9-2.1 1.9-.5 3.6 1.2 1.4 2.3 1 3.3-.1 1.2-1.3 2.7-2.4.8-4.3-1.4-1.3-2.4-.5-3.6.8zm-26.9-42.4c-1.5 1.3-.7 2.3.3 3.4 1.2 1.4 2.6 1.6 4 .4 1.5-1.2.6-2.3-.4-3.4-1.2-1.2-2.4-1.8-3.9-.4zm-21.7 18.6c2.8-3.5 5.7-7 8.5-10.5-3.6 3-8 5.1-8.5 10.5zm214.9-142.6c2.9-1.3 5.1-3.3 7-6.3-5.5-.7-5.8 3.4-7 6.3zM321.5 647.9l.2.2 12.5-12.5-.2-.2c-4.2 4.2-8.4 8.3-12.5 12.5zm81.9-84.4c.2-1.2 3-2 1.5-3.5s-3 .4-4.2 1.6c-1.1 1.1-2.6 2.5-1.1 3.8 1.5 1.4 2.3-1.1 3.8-1.9z"/><path d="m477.4 513.2.3 12.8c-.8.7-1.6 1.4-2.4 2-1.5-5.6-1.5-11.1 0-16.7.6.7 1.4 1.3 2.1 1.9zM480.8 518.3c1.8 1.1.6 3.8 2.7 4.7v1.8l.6 6.6c.2 1.8.3 3.6.5 5.4h-.1c-3.7-5.6-4.2-11.9-3.7-18.5zM571.4 415.5c-2.5 3.7-4.9 1.6-6.8-.2-2-2-1.8-4.1.5-6.5 2.5-2.6 4.9-1.5 6.5.2 1.7 1.8 3.4 4.7-.2 6.5zM526.5 409.4c-2.7-1.9-4.6-6.4-9.1-7.8-.9-.3-1.3-1.2-.8-2.4.6-1.5 2.7-.9 3.1-2.7.1-.5 1.6.3 1.7 1 1.5 8.1 8.9 11.4 13.8 16.8.9 1 2.6 1.3 1.3 2.9-1.2 1.4-2 .5-3.1-.8-1.9-2.3-4.1-4.2-6.9-7zM502.3 448.4c-6.6.5-10.2-4.2-13.8-8.4-2.1-2.4-3.6-5.3-4-8.6 4.6 7 9.5 13.8 17.8 17z"/><path d="m269.4 424.7 5-1.4c-3.8-1.4-7.2-3.4-10.2-5.8-.5-.4-.9-.7-1.4-1-.2-.2-.5-.3-.7-.5l-.3-.2c-3.7-3.9-5.8-7.7-6.6-11.9-.8-4.1-.1-7.6 2.3-10.9.8-1.1 1.3-2.5 1.9-3.9l.4-.9c2.3-5.7 5.3-10.1 9.1-13.7 3.2-3 7.1-4.2 10.8-5.1 9-2.2 16.5 1.5 23.4 5.4.7.4 1.4.8 2.2 1.3 3.9 2.3 7.6 4.5 11.9 5.5 8.7 2.1 15.2 1 20.3-3.5 4.5-4 7.4-9.2 9.7-13.9 4-8.1 9.1-17.2 18.8-22.2 5.2-2.7 11-5.2 17.5-5.5h1c4.3-1.7 8-.2 11.2 1.1.7.3 1.4.6 2.2.8 2.9 1 4.6 3.4 4.6 6.8 0 3.3-2.5 4.4-4.1 5l-.5.2c-6.9 2.9-12.1 7-16 12.4.4-.4.9-.8 1.4-1.2 7.5-6.1 16.4-10.4 27.8-13.5 5.3-1.4 10.6-1.9 15.3-2.3-5.2-3.7-10-5.6-14.9-6.1h-.5c-1.4-.1-4.2-.3-4.9-3.4-.7-3.1 1.5-4.6 2.9-5.6l.1-.1c9-6.1 17.3-10.6 25.5-13.6 8.4-3.1 16.5-3.1 24 .2 3.2 1.4 6.1 3.4 8.3 5.7 1.2 1.2 2.7 3.2 2.5 5.5-.2 2.3-2 4-3.4 5-.8.6-1.5 1.2-2.3 1.8.2-.1.4-.1.6-.2 11.3-3.8 22.3-2.5 32.6 3.9-.7-.8-1.4-1.5-2.1-2.2-2.4-2.5-5-5-8.1-6.7-3.3-1.8-3.2-4.3-2.8-5.7.6-2.1 2.2-3.3 4.9-3.4 3.3-.2 6.3-1.3 9.6-2.5 1.1-.4 2.1-.8 3.2-1.1 3.3-1.1 6.6-2 9.8-2.8 1-.3 2-.5 3-.8 1.3-.4 2.6-.8 4-1.2 3.2-1 6.5-2.1 10.1-2.2h1.2c2.3-.1 4.7-.2 7.1.1 2.9.3 4.2 1.6 4.8 2.7.6 1.1 1 3-.5 5.8-1 1.8-2.3 3.2-3.7 4.5 4.8-1.8 10-1.9 15.8-.4 4.5 1.2 8.6 3.3 12.5 5.3l.6.3c3.9 2 7.5 5.1 10.5 7.9.6.5 1.2 1.1 1.8 1.6 1.6 1.4 3.3 2.9 4.9 4.7 0-1.1-.1-2.1-.5-3-3.5-7.9-7.2-15.3-14.9-19.4-1.9-1-2.8-2.5-2.8-4.4.1-2.2 1.7-3.2 2.7-3.7l.1-.1c1.3-.8 2.7-1.5 4-2.2 2.8-1.5 5.6-3.1 8.3-4.9 4.4-3 6.8-7.2 9.5-12.5.4-.7.7-1.4 1.1-2.1 1.6-3.2 3.3-6.5 5.6-9.4 5.4-6.7 19.1-12.6 30.7-6.3.6.3 1.2.6 1.8 1 3.5 1.8 7.1 3.7 10 6.9 4.8 5.2 6.6 10.5 5.5 16.1.3 4.9-1.4 9.1-3.1 13.2-.2.5-.5 1.1-.7 1.6-.1.3-.2.6-.3.8.2 0 .4.1.8.1 1.4.2 2.7.3 4.1.5 10.7 1.2 21.7 2.3 32.2 6.2 2.5.9 5.4 2.1 8 3.7 7.1 4.6 8.4 12.1 8.8 18.1v.7c.2 2.4.4 5.1-.9 7.7l-.2.3c-.7.9-1.8 1.3-3 1l-.2-.1-.2-.1c-1.5-.7-2.1-1.8-2.3-2.8-.2.5-.3 1.1-.5 1.6-1.4 4.1-3.9 6.9-6.4 9.7-.3.4-.6.7-.9 1.1-5.2 5.9-12 9.2-18.6 12.2-1.2.5-4 1.8-6.4-.6-2.3-2.3-1.1-4.8-.5-6.3l.1-.1c1-2.1 1.3-4.5.9-7.2-.7 1.4-1.3 2.7-1.9 4.1-1.8 4-3.6 8.1-6.5 11.7-2.5 3.1-5.4 5.6-8.3 8-1 .9-2.1 1.8-3.1 2.7-1.8 1.6-4.3 1.6-6.4.1-1.8-1.3-2.5-3.4-2-5.6.2-.9.5-1.7.8-2.5.3-.8.5-1.6.7-2.4.8-3.6.8-7.2 0-10.9-3.4 11.4-15.2 20.8-26.5 21-.5 0-1.2.2-1.8.3-.2.1-.5.1-.7.2-3.7.9-6.7.5-9-1.1s-3.6-4.4-4-8.2c-.2-2.2-.6-4-1.5-5.5-.1-.1-.1-.2-.2-.3 0 .1 0 .2-.1.3-.3 1.1-.4 2.2-.6 3.4-.4 2.5-.8 5.1-2.1 7.7-2.1 3.9-5.5 6.3-9.8 7.1-3.2.6-6.4 1.3-9.5 1.9l-.4.1c-1.9.4-4.7.7-6.5-1-1.8-1.8-1.4-4.5-1-6.4 1-4.7-.2-8.3-3.9-11.4l-.1-.1v.1c-.2.9-.3 1.9-.3 2.9-.1 1-.1 2-.3 3.1-1.2 6.9-4.7 12.7-8 17.4-3.1 4.4-7.9 6.6-11.8 8-4.6 1.7-10.2 3.3-16.4 2.9-2.5-.2-4.9-.8-7.3-1.3-1.1-.3-2.2-.5-3.3-.7-.4-.1-.8-.2-1.1-.3-.3-.1-.5-.2-.7-.2.8 1.7 2.1 3.1 4.4 4.3 2.5 1.4 5.4 2.5 9 3.3.3.1.5.1.8.2 2.1.4 5.7 1.1 6.1 5.1.3 3.3-1.2 6.3-4.5 8.7-4.4 3.3-9.5 4-14.4 4.7-2.9.4-5.8.5-8.6.6-2 .1-4.2.2-6.2.4-4.6.4-8.6 2.7-12.8 5.1l-.3.2c-8.9 5-18.2 4.9-27.7-.5-3-1.7-3.7-4.5-2-7.6 2.8-5.1 7.1-8.4 10.5-10.7 3.3-2.2 6.4-4.8 9.4-7.4-1.7 1.4-3.5 2.8-5.4 4-7.1 4.7-14.9 8.9-24 8.3-9.7-.6-16-6.8-16.4-16.4-.2-3.5 1.8-6.2 3.8-8.6 3.8-4.6 8.4-8.2 12.9-11.7.2-.1.3-.3.5-.4-6.1 3.5-13.1 5.5-21.6 6-.7 0-1.5.1-2.2.1-1 0-1.9 0-2.8.1-3.6.4-6.4-1.3-8.8-2.8l-.2-.1c-1.2-.7-1.6-.7-1.6-.7s-.3.2-1.1 1.4c-.7 1.1-1.5 2.4-3 3.2-1.9.9-3.6 2.1-5.5 3.3-1.6 1-3.2 2.1-4.9 3-6.7 3.6-13.5 3.5-19.2 2.9-2.6-.3-5.2-.8-7.7-1.4-2.7-.6-5.3-1.2-7.9-1.4-.3 0-.6-.1-1-.1-.3 0-.5-.1-.8-.1h-.7c-3.4-.2-4.2-.1-4.7 2l-.8 3.3-2.5-2.3c-.1-.1-.3-.3-.5-.4-.4-.3-.8-.7-1.2-1.2-2.6-3-5.5-4.4-8.2-4-2.7.4-5.2 2.6-7 6.2-.3.5-.6 1-.9 1.3-1.3 11.5-3.7 14.5-14.6 18.7-8.1 3.1-16.5 3.9-25 2.4-1.8-.3-3.5-.7-5.1-1.2l-7.9-.3zm-4.8-11.9c.2.1.4.3.5.4.5.4 1.1.8 1.6 1.2 4.1 3.4 9.2 5.7 15 6.9l5.9-1.7c3.7-1.1 8.8-2.5 13-5.5 2.2-1.6 4.2-3.3 6.3-5.2 1.9-1.7 4-3.5 6.1-5.1 1.5-1.1 3.4-2.5 6-2.4 0-.1.1-.1.1-.2 2.4-4.9 6-7.8 10.1-8.4 3.8-.5 7.7 1.2 11.1 4.7 2-2.5 5.4-2.3 7.6-2.1h.6c.4 0 .7.1 1.1.1.2 0 .5.1.7.1 2.9.2 5.7.9 8.5 1.5 2.5.6 4.8 1.1 7.2 1.3 5.1.5 11.2.7 16.9-2.4 1.6-.8 3.1-1.8 4.6-2.8 1.9-1.2 3.8-2.5 5.9-3.5.5-.2.9-1 1.4-1.7 2.2-3.6 4.5-4.1 8.1-2l.2.1c2.2 1.4 4.1 2.5 6.3 2.3 1.1-.1 2.1-.1 3.1-.1h2c9-.5 16.1-2.8 22.1-6.9 4.1-2.9 6.9-5.6 8.8-8.9 1.9-3.2 4.2-2.2 4.9-1.8 2.3 1.3 1.5 3.9 1.2 4.7v.1c-.4 1.1-1 2.3-1.9 3.5-2.4 3.1-4.8 5.6-7.4 7.7-1.3 1-2.6 2.1-3.9 3.1-4.5 3.5-8.7 6.9-12.2 11.1-1.6 2-3 3.7-2.9 5.9.3 7.4 5.1 12.1 12.6 12.6 7.5.4 14-2.8 21.6-7.7 4.4-2.9 8.2-6.5 12.1-10.2l.1-.1c1.6-1.6 2.9-1.3 3.8-.8 2 1.2 1.4 3.4 1.3 4.1-.7 2.7-2 5-4 6.7-3.9 3.5-8.2 7.2-12.8 10.3-4.5 3.1-7.3 5.9-9.2 9.3-.7 1.3-.4 1.6.5 2.1 8.3 4.7 16 4.9 23.7.5l.3-.2c4.4-2.5 8.9-5.1 14.4-5.6 2.2-.2 4.3-.3 6.4-.4 2.7-.1 5.5-.2 8.1-.6 4.7-.6 9-1.3 12.6-3.9 2.1-1.6 3.1-3.3 2.9-5.1-.1-.8-.5-1.1-2.9-1.6-.3-.1-.6-.1-.9-.2-4.1-.9-7.3-2.1-10.2-3.7-1.9-1.1-4.6-2.9-6.1-6.2l-.1-.1c-.4-.8-1.2-2.5.2-4.2 1.3-1.7 3.3-1.4 4.1-1.2.5.1 1 .2 1.4.3.2.1.5.2.7.2 1.2.2 2.3.5 3.4.8 2.3.5 4.4 1 6.6 1.2 5.4.4 10.5-1.1 14.7-2.7 3.3-1.2 7.4-3 9.9-6.5 3.2-4.6 6.3-9.7 7.4-15.8.1-.8.2-1.7.3-2.7.1-1.1.2-2.2.4-3.4.2-.9.6-3.1 2.4-3.7 1.8-.6 3.5.8 4.2 1.4 4.7 4 6.5 9.1 5.2 15.2-.5 2.3-.1 2.8-.1 2.8s.5.4 2.9-.1l.4-.1c3.1-.7 6.4-1.3 9.6-1.9 3.1-.6 5.5-2.3 7-5.1 1-1.9 1.4-4.1 1.7-6.3.2-1.2.4-2.5.7-3.7 0-.1.1-.3.1-.4.2-1.1.7-3.3 3.1-3.7 2.6-.5 3.7 1.7 4.1 2.6.1.2.2.3.2.4 1.4 2.3 1.8 4.8 2 7.2.3 2.6 1.1 4.5 2.3 5.4 1.3.9 3.2 1.1 5.8.5.2 0 .4-.1.6-.2.8-.2 1.7-.4 2.8-.5 9.9-.1 20.7-9.2 23.1-19.4l.1-.3c.3-1.3.7-3 2.4-4.6l2.1-1.9 1 2.7c2.5 6.3 3 12.3 1.8 18.2-.2 1-.5 1.9-.8 2.8-.3.7-.5 1.4-.7 2.1-.2.8.1 1.2.4 1.4.4.3 1 .6 1.4.2 1.1-.9 2.1-1.8 3.2-2.8 2.8-2.4 5.5-4.7 7.7-7.5 2.6-3.2 4.2-6.9 6-10.8.7-1.6 1.4-3.2 2.2-4.8.1-.1.1-.3.1-.4.7-2.1 1.9-3 3.7-2.8 1.7.3 2.8 1.6 3.3 4 .7 3.8.4 7.3-1 10.4l-.1.1c-.7 1.5-.6 1.5-.3 1.8.3.3.4.5 1.9-.2 6.4-2.9 12.6-5.9 17.2-11.1.3-.4.6-.7 1-1.1 2.3-2.6 4.5-5 5.6-8.3 1.8-5.3 3.2-10.6 1-16-.4-.9-.2-2 .5-3l.7-1.1c-.7-.7-1.4-1.3-2.2-1.8-2.2-1.4-4.8-2.5-7.2-3.3-10-3.7-20.8-4.8-31.3-6-1.4-.1-2.8-.3-4.1-.5-1.5-.2-3.2-.5-4-1.9-.8-1.4-.3-3 .3-4.5.2-.6.5-1.1.7-1.7 1.6-3.9 3.1-7.6 2.8-11.6v-.3l.1-.3c.9-4.6-.5-8.5-4.5-12.9-2.4-2.6-5.6-4.3-8.9-6.1-.6-.3-1.2-.6-1.8-1-9.6-5.1-21.2-.1-25.7 5.3-2.1 2.6-3.6 5.5-5.2 8.7-.4.7-.7 1.5-1.1 2.2-2.3 4.5-5.3 10.2-10.8 13.9-2.8 1.9-5.8 3.5-8.6 5.1-1.3.7-2.7 1.4-4 2.2l-.1.1c-.3.1-.6.4-.7.5 0 .2 0 .3.7.7 8.8 4.8 13.1 13.2 16.7 21.4.8 1.8 1 3.9.7 6.2v.1c-.1.8-.4 2.6-2.3 3.3-2.1.7-3.4-1-3.9-1.6-1.4-1.8-3.2-3.4-5.1-5-.6-.5-1.3-1.1-1.9-1.7-2.8-2.6-6.2-5.5-9.7-7.3l-.6-.3c-3.7-1.9-7.6-3.9-11.7-5-6.4-1.6-11.7-1-16.6 1.9-1.6.9-2.7 2.4-4.1 4.2-.5.7-1.1 1.4-1.7 2.1l-5.7 6.9 2.3-8.7c.9-3.6 2.4-6.4 4.8-9.3.9-1 1.8-1.9 2.8-2.8 1.4-1.3 2.8-2.6 3.6-4.2.6-1 .6-1.7.5-2-.1-.2-.6-.5-1.7-.6-2.1-.2-4.3-.1-6.6-.1H528c-3.1.1-6 1-9 2-1.3.4-2.7.9-4.2 1.3-1 .3-2 .5-3 .8-3.2.8-6.4 1.7-9.6 2.7-1 .3-2 .7-3 1.1-3.4 1.3-6.9 2.6-10.7 2.8-1.1.1-1.2.3-1.2.5-.1.3-.2.6.8 1.2 3.6 1.9 6.5 4.7 9.1 7.4 2.8 2.8 5.9 6.3 8.1 11.4l2.7 6.4-5.7-3.9c-1-.7-1.8-1.3-2.6-1.8-1.2-.8-2.3-1.6-3.3-2.3-10-7-20.2-8.6-31.3-4.8l-2.4.9c-2.1.8-4.2 1.7-6.8 1.9l-2.5.2.4-2.5c.4-2.4 1.8-3.4 2.6-3.9 1.4-.9 2.7-2 4-3.2.8-.7 1.7-1.5 2.6-2.2 1.5-1.1 1.8-1.8 1.8-2.2 0-.3-.1-1-1.4-2.4-1.9-2-4.3-3.6-7-4.8-6.6-2.8-13.7-2.8-21-.1-7.9 2.9-15.9 7.2-24.6 13.2l-.2.1c-1.3.9-1.3 1-1.2 1.3 0 .2.1.2.1.2.1 0 .8.1 1.2.1h.6c5.7.5 11.1 2.7 17 6.8 1.9 1.4 2.6 3 2 4.8-.7 2.2-2.8 2.3-3.7 2.4h-.3c-4.5.4-9.7.8-14.6 2.2-10.9 2.9-19.2 7-26.3 12.7-1.2.9-2.2 2-3.4 3.1-1.5 1.5-3.1 3-5 4.4l-3.6 2.6.4-4.4c.2-2.5 1.1-4.4 2-6 4.4-8 11.2-14 20.2-17.8l.5-.2c1.6-.6 1.6-.8 1.6-1.2 0-2.1-1-2.8-1.9-3.1-.8-.3-1.6-.6-2.3-.9-3-1.2-5.5-2.2-8.4-1.1-.7.3-1.4.3-1.8.2h-.3c-5.7.3-11 2.6-15.9 5.1-8.6 4.4-13.3 12.8-17 20.4-2.5 5-5.6 10.7-10.6 15.1-6.1 5.4-13.9 6.9-23.9 4.4-4.9-1.2-9-3.6-13-5.9l-2.1-1.2c-6.4-3.7-12.9-6.8-20.5-5-3.7.9-6.6 1.9-9 4.2-3.4 3.1-6.1 7.1-8.1 12.2l-.3.9c-.6 1.6-1.2 3.2-2.3 4.7-1.7 2.4-2.2 4.9-1.6 7.8.7 4.1 2.5 7.3 5.5 10.5zm50.5-5.6c-1.9 1.4-3.6 3-5.5 4.6-2.1 1.9-4.3 3.8-6.7 5.5-.1.1-.3.2-.4.3 3-1 5.8-2.4 8.3-3.6 2.3-1.1 3.6-3.2 4.3-6.8z"/><path d="M317.4 540.1c-.3-.1-.6-.3-.9-.4l-.5-.2-.3-.4c-.7-1-1.4-1.7-2.2-2.3-7.4-5.2-8.7-8.9-6.2-18l.1-.4.3-.3c1.4-1.7 2.9-3.4 4.9-5.4.2-.2.3-.3.4-.5-.3-.3-.5-.5-.7-.8l-.7-1 .6-1.1c1.3-2.2 3.2-3.5 5-4.7.6-.4 1.2-.8 1.7-1.2l.3-.2 2.2-1.2c6.5-3.5 13.3-7.1 20.8-8.8 4.2-.9 8.7-1.2 13.4-.7.8.1 1.2.1 1.4.1.1-.2.2-.6.3-1.4.1-.7.2-1.5.3-2.2.7-5.3 1.5-10.8 4.8-15.8 3.6-5.5 9-6.8 12.7-7.3 5.1-.7 10 .2 14.7.9 2 .3 4.1.7 6.2.9.9.1 1.9.2 2.8.3 3.2.4 6.3.8 9.3.2-2.1-8.7-1.8-15.9.8-22.6 1.7-4.4 4.2-8.5 7.4-12.1.7-.8 1.2-1.4 1.5-1.8-.5-.4-1.5-.9-2-1.1-5.3-2.8-11.3-6.4-15.7-12-3.5-4.4-4.7-9.5-3.6-15 0-.2.1-.4.1-.6H396c-3.8.3-7.4 1.2-11.2 2.1-3.1.7-6.3 1.5-9.5 2-7.4 1-15.1.9-25-.5-.4-.1-.8-.1-1.2-.2-3.3-.4-7-.9-9.6-4.5l-.2-.2-.1-.3c-.1-.2-.1-.4-.2-.5-.1-.2-.1-.5-.2-.6-1-1.9-1.9-3.8-.9-5.3 1-1.6 3.1-1.6 5.1-1.5 7 .4 12.8 1.1 18.2 2.5 10.9 2.7 19.8 1.1 27.1-5 1.1-.9 2.4-1.6 3.8-2.2.8-.4 1.2-.9 1.6-2 .7-2 2.6-3.6 4.7-4.1 1.7-.4 3.3 0 4.4 1.1 4.1 4 9.1 3.4 14.3 2.7l2.4-.3c7.7-.8 14.8-4 21-9.5 1.1-1 2-2.3 2.9-3.7.8-1.3 1.7-2.6 2.9-3.8.2-.2.3-.4.5-.6.7-.9 2.2-2.8 4.5-2 2.3.8 2.6 3.1 2.7 4.4 0 .2 0 .4.1.6.6 3.6-1.4 6.3-3 8.4-4 5.3-9.4 9.4-13.7 12.6-3.6 2.7-7 6-10.9 10.4-2.1 2.4-1.6 7.7 1.1 10.4 4.2 4.3 10.6 5.4 17.1 2.9 10.1-3.8 18.6-9.8 25.9-18.6l.1-.2c.4-.5 1.7-2.1 3.8-1.3.8.3 2.2 1.2 2.6 3.5.6 4.6-1 8.8-4.8 12.3-4.6 4.2-9.6 8.2-15.5 12.3-2.4 1.6-4.5 3.9-6.4 6.9-.1.1-.1.2-.2.3.1.1.2.1.4.2 8.3 4.2 15.7 4.2 22.5-.1 6.2-3.9 13.1-5.8 21.8-6h1.3c6.2-.2 12.5-.3 17.8-4 .7-.5 1.2-.8 1.5-1.3.9-1.3 1.1-1.9 1.2-2.2-.2-.1-.7-.4-2.2-.7-4.8-.9-10.4-2.5-14.9-6.6-2.3-2.1-4.8-4.7-4.5-8.8.1-1.5.6-2.6 1.5-3.3.9-.7 2.1-.8 3.5-.5 1.2.3 2.3.6 3.5.8 1.8.4 3.5.8 5.3 1.3 10.2 2.6 19.8.3 27.6-6.5 6.1-5.3 8-13 8.6-18.6 0-.5.1-.9.2-1.4.2-1.7.4-3.4.1-4.9-.4-2.1.5-3.1 1-3.5.6-.4 1.8-1 3.8 0 8.4 4.3 12.1 11.1 10.2 19.3-.2.7-.2 1.2-.3 1.5.3 0 .7-.1 1.3-.2.9-.2 1.8-.4 2.6-.6 2.4-.6 4.9-1.1 7.5-1.5 3.2-.4 6.6-4.1 7-7.8.1-.5.1-1.1.2-1.7.4-3.1.7-6.3 2.4-9.3 1.2-2.2 2.7-2.6 3.7-2.6.9 0 2.3.5 3.3 2.5l.5 1c1.6 3 3.2 6.1 3.4 10 .1 2.2.6 3.7 1.6 4.4 1 .7 2.6.8 4.9.3 1.4-.3 2.8-.5 4.2-.7 2.4-.4 4.7-.7 6.8-1.7 8.1-3.8 13.1-10.4 15.1-19.9v-.5c0-.1-.1-.4-.1-.6-.6-2.4.1-4 2-4.5 3.1-.9 4.3 2.2 4.7 3.2.1.2.2.5.3.6 1.8 3.6 2.8 7.6 3.2 13 .3 4.4-.9 8.1-2 11.6v.1c1.3-1.3 2.6-2.4 3.9-3.5 2.5-2.1 4.9-4.1 6.7-6.7 3.9-5.6 6.4-12 8.1-16.9.1-.2.1-.4.2-.6.2-1 .7-3 3-3.4 2.7-.5 3.8 1.8 4.2 2.7.1.2.2.4.3.5 2.8 4.5 3 9.6.8 15 9.8-4.1 16.4-9.1 20.5-15.8 3.1-5 5.8-10.9 3.1-17.4-.5-1.1-.6-2.2-.7-3.2-.1-1-.2-1.8-.6-2.4-.7-1.1-.4-2.7.5-3.6.8-.7 2.2-1.3 4.1.1 3 2.1 4.1 5.2 5.1 7.9l.3.7c1.7 4.6 2.1 9.7 1.2 15.6-1 6.9-5.3 11.7-9.1 15.9-5.1 5.6-11.6 9.4-17.9 12.9l-.2.1c-1.9 1.1-3.9 1.4-5.8 1.8-1 .2-2 .4-2.9.7-1.3.4-3.4 1.5-2.8 4.6.4 1.8.8 3.5 1.5 5 1 1.9 1.3 3.8.9 5.8l-.1.3v.1c0 .5-.1 1.5-1 2.2-.6.5-1.3.7-2.2.6l-.6-.1-.5-.4c-.6-.5-1.5-1.2-1.9-1.4-.4.2-1.5 1-1.9 1.4l-4 3.3c-4.2 3.4-8.5 6.9-12.9 10.3-5.6 4.4-12.5 8.8-21.6 9-6.4.1-14.1-5-17.2-11.3-.9-1.7-1.2-4.3 2-6.9 2.6-2.1 4.5-4.1 5.8-6.3-7.5 3.6-15.2 5.9-23.2 6.9 3.3 1.2 4.2 3.3 3.5 7.6-1.1 7.3-4.3 13.9-9.7 20-5 5.7-10.1 8.8-16.3 9.7-3.8.6-6.9.3-9.6-.7-2.1-.8-3.6-2.2-4.4-4-.7-1.8-.6-3.9.4-6 2.1-4.4 4.4-9 6.9-13.6.4-.7.8-1.4 1.1-2.1-1.8 1.2-3.7 2.5-5.5 3.7-3.8 2.6-7.8 5.4-11.9 7.9.8.3 1.6.8 2.1 1.5 1.2 1.7.8 3.8.2 5.5-2.5 8.2-8 14.2-13 19-6.7 6.4-14.5 10.4-23.4 12.1-5.9 1.1-11.1 0-15.6-3.2-2-1.4-3-3-3.1-4.6-.1-1.6.6-3.2 2.3-4.9 2.1-2 3.8-3.8 5.1-5.9-7.5 3.3-15.5 4.2-23.7 4.9-3 .2-6 .4-8.9.5-3.8.2-7.8.4-11.7.8-6.5.7-10.1 3.9-11.4 10.1-.5 2.5-1 5.1-1.4 7.6-.6 3.2-1.1 6.5-1.9 9.7-1.9 8.3-6.1 13.1-13.2 15-4.2 1.2-5.5 3.4-4.4 8 .1.4.2.9.3 1.4.2 1.1.4 2.1.8 3.1 1.7 4.1 2.2 10.2-4.5 15.7-5.5 4.5-12.9 8.8-21.9.9-2.6-2.3-4.2-5.2-5.7-8.1l-.4-.7c-1.5-2.8-3-5.6-4.7-8.3 0-.1-.1-.2-.1-.2 0 .1-.1.1-.1.2-.3.5-.5.9-.8 1.4-1.5 2.6-3.1 5.4-5.5 7.7-3.4 3.2-7.4 4.8-11.9 4.8 1 .8 1.7 1.9 2.2 2.9 2 3.9 2.2 7.9.6 11.4-1.7 3.7-5.3 6.3-9.7 7.3-11.6 2.6-22 1.7-31.5-2.8zm1.2-3.8c8.9 4.2 18.5 5.1 29.6 2.8 3.2-.7 5.7-2.5 6.9-5.1 1.1-2.4 1-5.1-.5-7.9-1.1-2-1.8-2.1-3-1.9-2.2.4-4.4.4-7.3 0-2.7-.5-4.9-1.8-6.5-4.1-.5-.8-1.8-2.6-.5-4.7 1.2-1.9 3.3-1.7 4.1-1.6 2 .2 3.7.6 5.2 1.3 2.6 1.1 5 1.8 7.3 2.2 4.4.6 8.1-.5 11.2-3.5 2-1.9 3.4-4.3 4.9-6.8.3-.5.6-.9.8-1.4.8-1.3 1.7-2.9 3.5-2.9 1.7 0 2.8 1.6 3.6 2.9 1.8 2.8 3.3 5.7 4.9 8.5l.4.7c1.4 2.7 2.8 5.2 4.8 7 5.5 4.8 10.1 4.6 16.7-1 4-3.3 5.1-6.9 3.3-11.2-.5-1.3-.8-2.5-1-3.8-.1-.4-.2-.8-.3-1.3-1.5-6.7.9-11 7.3-12.8 5.6-1.5 8.7-5.2 10.3-12 .7-3.1 1.3-6.4 1.8-9.5.4-2.5.9-5.2 1.4-7.7 1.7-7.9 6.7-12.3 14.8-13.2 4-.4 8-.6 11.9-.8 2.9-.1 5.9-.3 8.8-.5 8.4-.7 15.9-1.5 23-4.8l.2-.1c.8-.4 3.2-1.6 4.9.7 1.5 2 .2 4-.3 4.9l-.1.2c-1.7 2.7-3.9 4.9-6 7-1.1 1-1.1 1.6-1.1 1.7 0 .1.1.7 1.5 1.7 3.6 2.6 7.6 3.4 12.5 2.5 8.1-1.5 15.2-5.2 21.3-11 4.7-4.5 9.7-10 12-17.3.5-1.5.3-2 .3-2s-.3-.2-1.1-.2l-.1.1c-.6.5-2.3 2.1-4.6.6l-.3-.2c-.1-.1-.3-.3-.4-.5l-.7-.8.3-1c.5-1.9 2.1-2.8 3.1-3.4.2-.1.4-.2.6-.4 4.8-2.9 9.5-6.1 14-9.1 2.9-2 5.9-4.1 9-6 0 0 .1 0 .1-.1l.5-1.2 1.9.9c.5.2.8.6.9.7l.6.6-.1.8c-.1 3.1-1.5 5.7-2.7 7.9-2.5 4.5-4.8 9-6.8 13.3-.4.8-.7 1.9-.3 2.8.4.9 1.3 1.5 2.1 1.8 2.1.8 4.4 1 7.5.5 5.1-.8 9.5-3.4 13.8-8.4 4.9-5.6 7.7-11.5 8.7-18 .5-3.1.4-3.1-2.6-3.7l-.3-.1c-.6-.1-1.2-.2-1.9-.5s-2.6-1.2-2.5-3.4c.1-1.3.7-2.9 3.5-3h.1c9-.6 17.8-3 26.2-7.2.1-.1.2-.1.4-.2 2-1.2 3.6-1.1 4.8.3 1.6 1.9.4 4.1-.1 5-1.7 3-4 5.7-7.3 8.3-1.4 1.1-1.2 1.5-.9 2 2.4 4.9 8.8 9.1 13.6 9.1 7.9-.1 14.1-4.2 19.1-8.1 4.3-3.4 8.6-6.9 12.8-10.3l4-3.3c3-2.5 4.4-3 6.8-1.5 0-.7-.2-1.3-.6-2.1-1-1.9-1.5-4-1.9-5.9-.9-4.3 1.2-8 5.4-9.3 1.1-.4 2.3-.6 3.4-.8 1.7-.3 3.2-.6 4.5-1.3l.2-.1c6.3-3.6 12.2-7 16.9-12.2 3.6-4 7.3-8.1 8.1-13.7.8-5.3.4-9.7-1-13.7l-.3-.7c-.4-1.1-.8-2.2-1.3-3.2.1.6.2 1.1.3 1.5 3.5 8.2 0 15.6-3.3 21-4.7 7.6-12.1 13.3-23.2 17.8l-.2.1c-.7.3-3 1.3-4.6-.8-1.3-1.7-.3-3.3 0-4 .1-.1.1-.2.2-.3 2.1-4.6 2-8.4-.2-12-.1-.1-.2-.3-.3-.5 0 .2-.1.3-.1.5-1.8 5.1-4.4 11.8-8.6 17.8-2.1 3-4.8 5.3-7.4 7.5-1.4 1.2-2.8 2.4-4.1 3.6-1.4 1.4-3.5 1.6-5.1.4-2.2-1.6-1.4-4.1-1.1-5 1.1-3.3 2.1-6.5 1.9-10.1-.3-4.2-1-7.5-2.2-10.3-2.4 10.7-8 18-17.3 22.4-2.6 1.2-5.3 1.6-7.9 2-1.3.2-2.6.4-3.8.7-3.5.8-6.2.5-8.2-.9-1.9-1.4-3-3.9-3.2-7.4-.2-3-1.5-5.6-2.9-8.3l-.5-.9v.1c-1.3 2.3-1.6 5-1.9 7.8-.1.6-.1 1.1-.2 1.7-.7 5.5-5.5 10.7-10.5 11.3-2.4.3-4.7.8-7.1 1.4l-2.7.6c-1.9.4-3.9.7-5.2-.6-1.3-1.3-1-3.3-.5-5.5 1.7-7.3-2.6-11.7-7-14.2.1 1.7-.1 3.2-.2 4.8-.1.4-.1.9-.2 1.3-.9 9-4.3 16.3-9.9 21.2-8.9 7.7-19.7 10.3-31.2 7.4-1.7-.4-3.5-.8-5.2-1.2-1.2-.3-2.4-.6-3.6-.8v.2c-.1 2.1 1 3.6 3.2 5.6 3.8 3.4 8.6 4.8 12.9 5.6 2 .4 4.3 1.1 5.1 3.1.8 2-.4 4.2-1.7 6-.7 1-1.7 1.7-2.5 2.3-6.2 4.3-13.2 4.5-20 4.7h-1.3c-8 .2-14.3 2-19.8 5.4-8.2 5.1-16.8 5.2-26.5.3-1.3-.7-2.2-1.6-2.5-2.7-.3-1.1 0-2.3.8-3.6 2.2-3.4 4.7-6 7.5-8 5.7-3.9 10.6-7.8 15.1-11.9 2.7-2.5 3.8-5.2 3.6-8.2-7.6 8.9-16.7 15.3-27.1 19.2-8.1 3-16 1.6-21.4-3.9-4.1-4.2-4.7-11.9-1.3-15.8 4.1-4.7 7.7-8.2 11.5-11 5.2-3.9 9.5-7.3 12.9-11.8 1.4-1.9 2.6-3.4 2.3-5.4 0-.3-.1-.6-.1-.9 0-.1 0-.3-.1-.5l-.1.1c-.2.3-.5.6-.8.9-.9.9-1.6 2-2.4 3.2-1 1.5-2 3.1-3.6 4.5-6.8 6-14.6 9.6-23.2 10.4-.8.1-1.5.2-2.3.3-5.7.7-12.1 1.5-17.6-3.8-.2-.2-.6-.1-.8-.1-.8.2-1.6.8-1.8 1.6-.5 1.4-1.4 3.1-3.6 4.2-1.2.6-2.2 1.1-3 1.7-8.4 6.9-18.4 8.8-30.6 5.8-5.1-1.3-10.7-2-17.4-2.4h-1c.1.3.3.6.5 1 .3.5.4 1 .5 1.4v.1c1.5 1.9 3.5 2.2 6.6 2.6.4.1.8.1 1.2.2 9.5 1.3 16.9 1.5 23.9.5 3.1-.4 6.2-1.2 9.2-1.9 3.8-.9 7.8-1.9 11.8-2.2h.2c1.9-.2 3.2-.3 4.2.8s.7 2.5.3 4.5c-.9 4.4 0 8.3 2.8 11.8 4 5 9.3 8.2 14.4 10.9 2 1 3.8 2 4.2 3.9.3 1.8-.8 3.3-2.5 5.2-2.9 3.3-5.1 7-6.7 10.9-2.5 6.3-2.5 13.3-.1 22l.5 1.8-1.7.6c-4.4 1.7-8.8 1.1-12.9.6l-2.7-.3c-2.2-.2-4.3-.6-6.4-.9-4.6-.8-9-1.5-13.5-.9-4.8.6-7.8 2.3-9.9 5.5-2.8 4.2-3.4 9.1-4.2 14.2-.1.7-.2 1.5-.3 2.2-.6 4-2 5.1-6 4.7-4.3-.4-8.4-.2-12.2.6-7 1.6-13.5 5-19.8 8.4l-2.1 1.1-1.8 1.2c-.4.3-.8.5-1.2.8l1.6 2c-1 .9-2 1.9-3 3.1-.5.5-1 1-1.4 1.5-1.7 1.8-3.2 3.4-4.4 4.9-1.9 7.1-1.2 9 4.8 13.2 1.5.4 2.4 1.3 3.2 2.5zm22.5-18.6c0 .1 0 .1 0 0 1 1.4 2.3 2.2 3.9 2.5 2 .3 3.5.4 5 .2-1.6-.4-3.2-1-4.9-1.7-1.2-.5-2.4-.8-4-1zm189.3-86.9zm18.8-62.7zm35.9-1.4zm71.5 30.9zm28.7-69.9z"/><path d="m270 421.1-7.8-5.1c-6.5-4.2-7.6-11.2-7.9-16.1-.7-12.6 3.7-23 13.1-30.8 3.1-2.6 6.2-4.1 9.4-4.7 1.8-.3 3.6-1 5.5-1.7l1-.4c3.5-1.3 7.4-1.6 11.6-.9 1.2.2 2.3.4 3.5.5 4.4.6 8.9 1.3 13.4 3.5 5.8 2.9 9.2 7.7 12.2 11.9.9 1.3 1.8 2 2.4 2 .7.1 1.7-.7 2.3-1.4 4.2-4.2 7.3-9.5 10.2-14.6 2.1-3.6 4-7.3 5.9-11 2.5-4.7 5-9.5 7.8-14.1 5.7-9.5 11.6-15.3 19.1-18.6 8.5-3.7 17-2.3 22.7-.8 2.5.6 5 1.4 7.3 2.2.5.2.8.1.8.1s.1-.1.3-.6c1.6-6.1 5.4-11.6 11.5-16.7 7.3-6 15.7-9.3 25.1-9.9 14.8-.8 23.2 7.9 28.9 15.6.2.2.3.4.4.6.2-.2.4-.5.6-.8 3.8-4.8 8.4-9.5 15.7-11.4 8.2-2.1 16.3-1.8 24.2-1.6h.5c4 .1 8 .4 11.9.7 6.4.5 13.1 1 19.6.7 5.3-.3 9.9-2.5 14.8-4.9 7.2-3.5 14.2-8.1 20.7-13.7 7.4-6.4 13.9-10.6 20.3-13.2 7.9-3.2 16.6-2.7 26.6 1.6 4.5 1.9 9.6 4.5 13.8 8.8l.1.1c.2.2.5.5.8.9 3.3 5.5 6.6 11.4 6.8 18.6.1 1.4-.4 2.6-1.4 3.5l-3.9 3.5.6-5.2c.9-8-4.4-12.1-10.9-16.1-2.5-1.6-5.5-2.9-8.8-4-7.8-2.4-18.4 2.1-22.3 9.4l-2.4 4.8c-2.1 4.3-4.2 8.7-7.5 12.6-3.5 4.2-8.2 6.8-12.7 9.1-.5.3-1.1.6-1.6 1-.7.4-1.4.9-2.2 1.2 1 .7 1.9 1.5 2.8 2.2.5.4.9.8 1.4 1.2 6.1 4.9 8.9 11.7 11.6 18.3l.3.8c1.2 2.8.7 5.6.3 8.1-.1.5-.2 1.1-.2 1.6-.2 1.6-1.1 2.8-2.4 3.1-1.3.3-2.7-.3-3.7-1.6-4.3-5.8-9.8-10.9-17.1-15.4-7.4-4.7-15.5-9-24.9-6.4-4.8 1.3-7.7 4.1-9 8.5l-.1.3c-.2.9-.9 3.1-3.4 3.1-1 0-1.8-.4-2.5-1.1-1-1.1-1.1-2.6-1-3.3.3-4.7 2.1-8.9 5.3-12.3.8-.9 1.7-1.8 2.6-2.7 1.5-1.5 2.8-2.9 4.1-4.5.1-.1.1-.2.2-.3h-.3c-5.3-.1-10.8-.3-16 1.9-2.3 1-4.8 1.5-7.2 2l-1.2.3c-3.3.7-6.6 1.9-9.8 3-2.5.9-5.2 1.8-7.8 2.5-1.2.3-2.3.5-3.4.7 2.4 1.5 4.5 3.4 6.5 5.2l.8.7c4.9 4.4 8 10 10.5 14.8 1.4 2.6-.2 4.1-.7 4.5-1 .7-2.5 1.2-4.5-.7l-.1-.1c-4-3.7-8-6.5-12.3-8.6-7.9-3.8-15.9-4.5-23.8-1.9-.7.2-1.4.5-2.2.7-3 1-5.9 1.9-8.4 3.6-1.6 1.1-3.5 1-4.8-.3-1.7-1.7-.6-3.7-.3-4.4 1.2-2.2 2.5-4.2 4.8-5.7 2.1-1.4 4.1-3 6-4.6l1.2-1 .3-.3c0-.1-.1-.2-.3-.4-3.2-3.7-7.2-6-11.9-6.8-10.5-1.9-19.5 2.6-28.6 7.9-1 .6-2 1.1-3 1.7-2.4 1.3-4.6 2.5-6.7 4.1 6.3.7 12.1 3.4 18.2 8.4 2.5 2.1 2.6 4.1 2.2 5.5-.8 2.8-3.6 2.9-4.8 3-3 .2-5.9.5-8.8.8-6.5.8-13 2.7-21 6.3-8.3 3.7-15.2 9.1-21.3 16.6l-.2.2c-1.7 2.6-3.6 1.7-4.3 1.2-2.1-1.4-1.6-3.7-1.4-4.6l.1-.2c1.2-5.5 3.9-10.7 8.7-16.1 4.5-5.1 10.2-8.1 15.2-10.3l.9-.3c.1 0 .3-.1.4-.1-.1-.5-.3-.8-1.5-1.4-6.8-3.3-13.1-1.7-21.3 1-9.6 3.2-16.3 9.9-21.9 22-3.1 6.6-6.4 11.6-10.3 15.3-5 4.8-11.6 7-18.9 6.5-7.5-.6-14.7-3.3-22.1-8.3-3.4-2.3-7.2-4-11.4-5.1-6.8-1.7-16.4.9-20.8 8.2-1.6 2.6-2.8 5.4-4.2 8.3-1.4 3.1-2.9 6.4-4.9 9.5-1 1.6.1 3.9 1.3 6 .9 1.5 1.8 3 2.8 4.5.4.7.9 1.4 1.3 2l4.9 8.1zm39.2-52.4c-3.6-1.7-7.4-2.2-11.4-2.8-1.2-.2-2.4-.3-3.6-.5-3.5-.6-6.7-.3-9.5.7l-1 .4c-1.9.7-4 1.5-6.1 1.9-2.6.5-5 1.7-7.6 3.9-7.1 5.9-11 13.4-11.6 22.4.8-1.6 1.6-3.3 2.4-5.1 1.3-2.9 2.7-5.8 4.4-8.7 5.6-9.2 17.1-12.1 25.2-10 4.7 1.2 9 3.1 12.7 5.6 6.9 4.7 13.3 7.1 20.1 7.6 6.2.5 11.6-1.4 15.8-5.4 3.5-3.3 6.6-7.9 9.5-14.1 6-12.9 13.7-20.6 24.3-24.1 6.9-2.3 15.5-5.2 24.3-.8 1.1.5 3.6 1.8 3.8 5 .1 2.9-2.2 3.7-3.1 4-.2.1-.3.1-.5.2-4.6 2.1-9.8 4.8-13.8 9.3-3.7 4.2-6.1 8.2-7.3 12.3 6-6.9 13.1-12.1 21-15.7 8.4-3.8 15.3-5.8 22.2-6.7 2.9-.4 5.9-.6 9-.8.3 0 1.1-.1 1.3-.2 0-.3-.2-.7-.9-1.3-5.8-4.8-11.3-7.2-17.2-7.6h-.4c-3 .4-3.8-1.4-4-2.5-.4-2.3 1.5-3.3 2.2-3.7.1-.1.4-.2.4-.2 2.5-2.1 5.4-3.6 8.1-5.1 1-.5 2-1.1 2.9-1.6 9.8-5.6 19.5-10.5 31.3-8.3 5.6 1 10.4 3.8 14.2 8.1 1 1.1 1.4 2.2 1.3 3.4-.1 1.1-.7 2.2-1.8 3.1l-1.1.9c-2 1.7-4.1 3.4-6.3 4.9-1 .7-1.8 1.6-2.5 2.6 2.5-1.4 5.1-2.2 7.7-3 .7-.2 1.4-.4 2.1-.7 8.9-3 17.9-2.3 26.8 2.1 3.6 1.8 7 4 10.4 6.7-2.2-3.9-4.6-7.2-7.7-10l-.8-.7c-2.3-2.1-4.5-4.1-7.1-5.5-2-1.1-2.7-2.5-2.2-4.2.6-1.9 2.4-2.1 3.1-2.2h.3c.4-.1.8-.1 1.1-.2 1.2-.2 2.3-.4 3.4-.6 2.5-.7 5.1-1.6 7.6-2.5 3.3-1.2 6.7-2.4 10.2-3.2l1.3-.3c2.3-.5 4.5-1 6.5-1.8 6-2.5 12.2-2.3 17.7-2.2 2.6.1 3.7 1.2 4.2 2.2.4 1 .6 2.6-1.1 4.6-1.4 1.7-2.9 3.2-4.3 4.7-.8.9-1.7 1.7-2.5 2.6-1.5 1.6-2.6 3.4-3.3 5.4 2.2-3.5 5.5-5.9 10-7.1 11-3 20.2 2 28.1 6.9 7.2 4.5 12.9 9.5 17.3 15.3v-.2c.4-2.2.7-4.2 0-6l-.3-.8c-2.6-6.4-5.1-12.4-10.4-16.7-.5-.4-1-.8-1.5-1.3-1.2-1-2.4-2-3.7-2.6-1.6-.7-2.4-1.9-2.3-3.2.1-.7.5-2 2.5-2.5 1.1-.3 2.2-.9 3.3-1.6.6-.4 1.2-.8 1.9-1.1 4.1-2.1 8.4-4.5 11.5-8.1 2.9-3.4 4.9-7.5 6.9-11.7.8-1.6 1.6-3.3 2.5-5 4.8-9 17.4-14.4 27-11.4 3.6 1.1 6.9 2.6 9.8 4.4 1.4.9 2.8 1.8 4.1 2.8-.3-.5-.6-.9-.8-1.4h-.1c-.1-.1-.3-.2-.4-.4-3.7-3.8-8.4-6.2-12.4-7.9-8.9-3.8-16.6-4.4-23.5-1.6-6 2.4-12.1 6.4-19.2 12.5-6.8 5.9-14.1 10.7-21.6 14.3-5.1 2.4-10.3 5-16.4 5.3-6.8.3-13.6-.2-20.1-.7-3.8-.3-7.8-.6-11.7-.7h-.5c-8-.3-15.5-.5-23.1 1.4-5.8 1.5-9.6 5.1-13.5 10-1.3 1.6-2.2 2.8-3.8 2.8-1.6 0-2.6-1.3-3.6-2.7-7.7-10.4-15.3-14.6-25.4-14-8.5.5-16.2 3.5-22.8 9-5.5 4.5-8.8 9.3-10.2 14.6-.4 1.5-1.1 2.5-2.2 3.1-1.1.6-2.5.7-4 .1-2.2-.7-4.6-1.5-7-2.1-8.2-2.1-14.4-1.9-20.1.6-6.7 2.9-12 8.2-17.3 17-2.7 4.5-5.2 9.3-7.7 13.9-1.9 3.7-3.9 7.4-6 11.1-3 5.3-6.3 10.8-10.9 15.4-1.8 1.8-3.6 2.7-5.5 2.5-1.9-.1-3.7-1.4-5.4-3.7-2.9-4-5.8-8.1-10.7-10.6-.4 0-.6-.1-.9-.2zM318.9 552.1c-.3-.1-.6-.3-.9-.4-3.1-1.5-5.6-3.7-8-5.8l-.6-.6c-2.6-2.2-5.5-4.8-8.8-6.7l-.2-.1c-.7-.4-1.2-.7-1.6-.7h-.4l-.4-.1c-3.6-1.1-6.4-1.3-9-.9-.7.1-2.5.5-4-.9l-.3-.2-.2-.3c-.6-1.3-.5-2.3-.2-2.9.3-.6.9-1.5 2.3-1.9.2-.1.4-.1.6-.2.4-.1.8-.2 1-.4l.2-.2.2-.1c7.7-4.1 14.3-9.6 19.6-16.2l.2-.2.2-.2c.7-.5 1.3-1.2 2-1.9 1-1.1 2.1-2.2 3.5-3 .7-.4 1.3-.9 2-1.4 1.5-1.2 3.5-2.8 6.5-3.3l4.1-.6-2.1 3.6c-2.1 3.7-4.9 6.5-7.5 9.1-1.7 1.8-3.4 3.5-4.8 5.3-2.7 3.6-2.5 6.6.8 9.8 1.7 1.7 3.6 3.1 5.7 4.3 9.8 4.1 19.7 4.9 29.5 2.3 2.8-.7 4.7-2.2 5.6-4.2.8-2 .5-4.6-1.1-7.2-.2-.4-.3-.4-1.6-.2-.2 0-.5.1-.7.1-6.9.9-11.8-1-14.9-5.8-.1-.2-.2-.3-.3-.5-.8-1.2-2.3-3.4-.7-5.8 1.6-2.3 4.2-2 5.7-1.8h.3c2.8.3 5.4 1.3 7.9 2.2.7.2 1.3.5 2 .7 6.2 2.2 11.1.8 15-4 2-2.5 3.9-5.2 4.6-8.4.1-.7.6-2.9 2.5-3.4s3.4 1.3 3.9 1.8c2.4 2.9 4.1 6.2 5.8 9.3.6 1.1 1.2 2.3 1.9 3.4l.6 1.1c1.2 2.2 2.4 4.4 4.1 5.8 5 4.3 8.5 4 14.8-1.2 3.4-2.8 4.2-5.6 2.8-9.3-.6-1.4-.9-2.9-1.2-4.3-.1-.5-.2-1.1-.3-1.6-1.6-7 1.3-12.1 7.8-13.8 5.7-1.5 8.8-5.1 10-11.9.7-3.7 1.4-7.5 2-11.1.3-1.7.6-3.3.9-5 1.6-8.7 7.5-14.1 16.2-14.7 3.6-.3 7.2-.5 10.8-.7 4.5-.3 9.2-.6 13.7-.9 7-.6 14.3-1.7 20.8-5.4l.2-.1c1-.6 3-1.8 5.1-.2 2.4 1.8 1.5 4.7 1.2 5.6-1.1 3.4-3.3 6.5-6.7 9.6-1.1 1-1.6 1.5-1.8 1.9.3.2.9.7 2.2 1.4 5.4 3 11 1.6 16.3-.4 8.6-3.3 16-9.4 22.6-18.7 1.3-1.8 2-4 2.8-6.2l.3-.9c-.1 0-.3.1-.4.1-1.4.4-3.1.9-5.1.3l-3.1-.9 1.1-1.2c-.1-.4-.2-.8-.1-1.3.1-1 .8-1.9 1.9-2.5.3-.2.6-.3.8-.5 1.2-.7 2.3-1.3 3.2-2.1l.2-.2.2-.1c8.2-4.3 15.5-10.1 20.9-14.6.1-.1.3-.4.5-.6.3-.4.6-.8 1-1.2l1.8-1.6.4.7c.8-.1 1.5 0 2.1.4 1.5 1 1.4 3 1.4 4 0 3.2-1.3 6-2.5 8.4l-.1.2c-1.3 2.6-2.6 5.2-4 7.7-1 1.8-1.9 3.7-2.9 5.5-.6 1.2-.8 2.1-.5 2.6.3.6 1.3 1 2.7 1.2 6.1.8 11.3-.9 15.5-5 6.3-6.2 9.8-12.2 10.9-19 .1-.9.3-2.2.3-2.7-.5-.2-1.7-.4-2.3-.5-1.2-.2-2.1-.5-2.9-.9-2.9-1.5-4.1-3.5-3.7-5.8.7-3.5 4-3.4 5.4-3.4h.5c9.8-.1 19.3-2.9 29.1-8.6.1-.1.2-.2.4-.3.6-.5 2.6-1.9 4.6-.1 1.6 1.5 1.2 3.3.9 4.4 0 .1-.1.3-.1.4-1.1 4.9-3.9 8.9-8.8 12.8-.7.6-.8.8-.8.8s.1.4.8 1.3c7.4 10.8 18.9 5.5 22.2 3.7 5.3-3 10.1-7 14.7-10.8 1.7-1.5 3.6-3 5.4-4.4 2.4-1.9 4.9-3.9 7.5-5.7.1-.1.3-.2.4-.3.9-.6 2.5-1.9 4.5-.9 2.1 1 2.1 3.1 2.1 4.1v.5c0 .3 0 .7.1 1v.8c-.3 6.9-3.1 13.1-8.1 18.2-6.3 6.4-14.2 10.1-23.9 11.4-12.6 1.6-24.7-.3-36.9-5.9.1.3.2.7.2 1 .6 2.4 1.2 5 .5 7.9-1.3 14.2-8 25.9-19.9 34.8-6.4 4.7-13.2 6.8-20.4 6.3-5.1-.4-9.4-2.7-13.2-7.2l-.1-.1c-1.6-2.1-3.9-5.3-5.2-9.3-1.6 1.7-3.1 3.6-4.6 5.6-.9 1.1-1.7 2.3-2.7 3.4l-.9 1c-3.2 4-6.6 8.1-11.6 10.4-13.7 6.3-25.5 4.3-35.1-5.9-1.3-1.3-2.5-2.8-3.6-4.1-2-2.4-4-4.6-6.2-6.6-2.8-2.5-6.2-3.3-11.4-2.7-2.2.2-4.3.7-6.3 1.3-3.9 1.2-6.1 3.9-7.6 9.3-.3 1.1-.4 2.3-.6 3.5l-.3 2.4c0 2.1 0 4.3.1 6.3.1 4.8.2 9.7-.7 14.7-1.3 7.1-5.9 11.3-13.1 12.2-.3 0-1 .1-1.5.2.1.4.2 1.1.3 1.4 2.1 5.3 2.2 10.5.3 14.8-2 4.6-6.2 8.1-12 10.3-10 3.8-21 3.9-33.4.5-3.2-.9-6-2.5-8.7-4l-.7-.4c-.3 4.1-1.3 7.9-3 11.7-2.3 5.3-6.6 9.3-13.1 12.1-10.7 4.9-22 4.7-33.3-.6zm-31.2-17.6zm13.4-.1c.5.2.9.5 1.2.7l.2.1c3.3 1.9 6.1 4.3 9.4 7.1l.7.6c2.3 2 4.6 3.9 7.1 5.2 10.5 5.1 21.1 5.5 31.3 1.1 5.6-2.4 9.1-5.6 11-10 1.5-3.5 2.4-6.9 2.7-10.7.1-1.7.2-3.2 1.6-3.9 1.3-.7 2.5 0 4.1.8l.9.5c2.6 1.5 5.1 2.9 7.8 3.6 11.8 3.3 21.6 3.2 31-.3 4.8-1.8 8.1-4.6 9.7-8.2 1.5-3.4 1.4-7.4-.4-11.9l-.1-.3c-.4-1.8-.8-3.5.2-4.9 1-1.4 2.7-1.6 4.4-1.8 5.5-.6 8.6-3.5 9.6-8.9.8-4.5.7-9 .6-13.8-.1-2.2-.1-4.4-.1-6.7v-.3c.1-.8.2-1.5.3-2.3.1-1.3.3-2.7.7-4.1 1.3-4.5 3.6-10 10.3-12.1 2.3-.7 4.7-1.2 7.1-1.5 4.3-.5 9.8-.5 14.5 3.7 2.5 2.2 4.6 4.7 6.6 7 1.1 1.3 2.3 2.7 3.5 4 8.5 9.1 18.2 10.7 30.5 5 4.2-1.9 7.1-5.5 10.2-9.3l.9-1.1c.9-1.1 1.7-2.2 2.6-3.3 1.8-2.3 3.6-4.7 5.7-6.8.5-.5 1.7-1.7 3.3-1.3 1.6.4 2.1 2.2 2.2 2.7.8 2.9 2.2 5.7 4.8 9 3.1 3.6 6.4 5.4 10.4 5.7 6.2.5 12.2-1.4 17.7-5.5 11-8.2 17.2-19 18.3-32.1l.1-.3c.5-2 0-4-.5-6.2-.1-.5-.2-1.1-.4-1.6v-.2c-.2-.8-.6-2.7 1.1-4.1 1.6-1.2 3.1-.5 3.8-.1l.2.1c11.7 5.4 23.2 7.3 35.3 5.8 8.8-1.1 15.9-4.4 21.5-10.2 4.4-4.4 6.7-9.5 7-15.5v-.4c0-.4-.1-.7-.1-1.1v-1c-.1.1-.2.2-.3.2-.2.1-.3.2-.5.4-2.5 1.7-5 3.7-7.3 5.5-1.8 1.4-3.6 2.9-5.3 4.3-4.8 4-9.7 8.1-15.3 11.2-8.4 4.7-20 5.9-27.5-4.9-1.6-2.3-2.6-4.9.9-7.6 4.2-3.3 6.5-6.6 7.4-10.5-10.4 6-20.5 8.9-31 9h-.6c-.4 0-1.1 0-1.4.1v.1c0 .1-.1.6 1.6 1.5.4.2.9.4 1.7.5 5.6.9 6.2 2.4 5.3 7.8-1.2 7.7-5 14.4-12 21.2-5 4.9-11.5 7-18.8 6.1-2.9-.4-4.8-1.5-5.8-3.3-.6-1.2-1.1-3.3.5-6.3.9-1.8 1.9-3.7 2.9-5.5 1.3-2.5 2.6-5 3.9-7.6l.1-.2c1-2 1.9-3.8 2.1-5.8l-.6.6c-5.5 4.6-12.9 10.5-21.3 15-.3.3-.7.6-1.1.8h.2c2-.5 3 .1 3.6.7.9 1 1 2.3.4 4.1-.2.5-.4 1-.5 1.5-.9 2.4-1.7 5-3.4 7.2-7.1 10-15.1 16.6-24.5 20.1-5.9 2.2-12.9 4-19.7.2-2.2-1.3-4.1-2.4-4.3-4.4-.2-2 1.3-3.5 3.3-5.3 2.9-2.6 4.7-5.2 5.6-7.9.2-.6.2-.9.2-1.1-.2.1-.5.3-.7.4l-.2.1c-7.1 4.1-15 5.3-22.4 5.9-4.6.4-9.3.7-13.9 1-3.5.2-7.2.4-10.7.7-6.8.5-11.3 4.6-12.5 11.5-.3 1.7-.6 3.3-.9 5-.7 3.6-1.4 7.4-2 11.1-1.5 8.3-5.7 13.2-13 15.1-4.5 1.1-6.1 4.1-4.9 9 .1.6.2 1.1.4 1.7.3 1.3.5 2.5 1 3.6 1.4 3.6 1.9 9-4 13.8-6.5 5.4-12.4 7.6-20 1.2-2.3-1.9-3.7-4.5-5-6.9l-.6-1c-.7-1.2-1.3-2.3-1.9-3.5-1.5-2.9-3-5.6-4.9-8.1-1 3.7-3.2 6.7-5.2 9.3-4.9 6.2-11.6 8.1-19.4 5.3-.7-.2-1.4-.5-2-.7-2.4-.9-4.7-1.7-7-2h-.4c-1.3-.2-1.7-.1-1.9.1 0 .1-.1.1-.1.1 0 .2.5.9.7 1.2.1.2.3.4.4.6 2.3 3.6 5.5 4.8 11 4 .2 0 .4-.1.6-.1 1.4-.2 4-.7 5.7 2.1 2.2 3.7 2.6 7.5 1.3 10.7-1.3 3.2-4.2 5.5-8.2 6.6-10.7 2.8-21.5 2-32.1-2.6h-.1l-.1-.1c-2.4-1.4-4.6-3-6.6-4.9-4.7-4.6-5.2-9.8-1.3-15-5 5.6-10.9 10.3-17.6 14.1 2.7 0 5.1.6 7.1 1.2.9.4 1.7.6 2.4.9zM219.4 462.4s-.1 0 0 0l-.5-.3-.3-.4c-1.8-2.5-2.1-5.4-2.3-7.9 0-.5-.1-.9-.1-1.4v-.5l.2-.4c.4-1 .6-2 .8-3.1l.3-1.5c1.8-7.2 6.3-13.2 13.7-18.3 6.8-4.6 14.3-4.8 21.4-.5 2.2 1.4 4.5 2.7 6.7 4 5.5 3.2 8.2 8.3 7.6 14.7v.1l-.7 5.6-.3.4c-.5.7-1.1 1.2-2 1.3l-.5.1-.4-.2c-.1.1-.3.3-.5.4l-.2.2c-6.3 5.4-13.5 9-21.4 10.6-7.6 1.5-13.8.5-18.7-3.1l-.2.2-.3.1c-.5.3-1.5.3-2.3-.1zm.8-9.8c0 .3.1.7.1 1 .1 1.6.2 3.1.7 4.4 1.1-.5 2.2-.4 3.4.5 4.1 3.2 9.1 4 15.9 2.7 7.2-1.4 13.8-4.7 19.5-9.7l.2-.2c.5-.5 1.4-1.2 2.5-1.4l.4-3.7c.4-4.8-1.5-8.4-5.7-10.8-2.2-1.3-4.5-2.6-6.8-4-5.7-3.5-11.6-3.3-17 .4-6.6 4.5-10.6 9.8-12.1 16-.1.5-.2.9-.3 1.4-.1 1.2-.4 2.3-.8 3.4z"/><path d="M216.2 461.9v-9.6c0-10.8 4-20.1 11.8-27.6.6-.6 1.1-1.2 1.7-1.9 1.5-1.8 3.3-3.8 6.2-4.8 8-2.6 19.4-.8 24.9 7.4 4.3 6.5 6.4 13.4 6.2 21l-4-.1c.1-5.3-3.1-8-8.2-10.7-1.1-.6-2.2-1.3-3.2-2-1.7-1.1-3.3-2.2-5.1-2.6-6.8-1.7-12.2.5-18 7.2-3.8 4.4-6.2 9.5-8.5 14.7l-3.8 9zm35.3-39.2c-4.5-2.1-10-2.2-14.4-.8-1.9.6-3.1 2-4.4 3.6-.6.7-1.2 1.4-2 2.1-3.8 3.6-6.5 7.6-8.3 12.1.9-1.4 1.9-2.7 3.1-4 4.3-4.9 11.2-11.1 22-8.4 2.5.6 4.4 1.9 6.3 3.2 1 .6 1.9 1.2 2.8 1.7 1.5.8 3.1 1.7 4.5 2.8-.9-2.5-2.1-4.9-3.7-7.2-1.4-2.3-3.5-4-5.9-5.1zM191.7 421.9c-3.8-1.7-6.7-5.1-7.5-10.7-.9-7.1 1-12.5 6.1-16.6 3-2.4 6.5-2.8 8.8-2.8h.5c3.3-.1 6.7-.1 10 1.3 3.1 1.4 5.5 4 6.5 7.2 1.1 3.2.7 6.7-.9 9.6l-.3.5c-.9 1.6-1.8 3.2-2.6 4.9-1.7 3.5-6.9 7-10.4 7.9h-.3c-3.3.4-6.9.1-9.9-1.3zm16.4-25.1s-.1 0-.1-.1c-2.5-1.1-5.3-1.1-8.3-1h-.5c-2.8.1-4.8.6-6.4 1.9-4 3.2-5.4 7.2-4.6 13 1.2 8.8 9.3 9 12.9 8.7 2.7-.7 6.7-3.7 7.7-5.7.9-1.8 1.8-3.5 2.7-5.1l.3-.5c1.1-2 1.3-4.2.6-6.4-.7-2.2-2.3-3.9-4.3-4.8zM318.7 552.8c-3.4-1.6-6.2-4-8.8-6.3-.6-.5-1.2-1.1-1.8-1.6l-.3-.3c-2.9-2.5-5.8-4.8-9.1-6.3l-.1-.1-.1-.1c-2.1-.9-1.9-2.7-1.7-3.2l.5-1.8 1.8.3c3.9.7 6.6 3 9.3 5.3.6.5 1.1.9 1.7 1.4.9.7 1.8 1.5 2.7 2.3 2.2 1.8 4.2 3.6 6.6 4.9 10.4 5.9 28 6.4 38.3-2.9 3.7-3.4 5.8-7.8 6.5-13.9l.1-.8c.4-3 .5-4.6 2.1-5.4 1.5-.8 2.9 0 5.5 1.4l.9.5c8.3 4.5 17.4 6.1 27.9 4.9 7.1-.8 12.4-2.9 16.5-6.8 3.4-3.1 3.6-7.1 2.9-12.6-.1-.6-.2-1.2-.4-1.8-.1-.3-.2-.7-.2-1l-2.8-12.7 6.5 11.2c2.7 4.6 3.1 9.8 1.3 14.6-1.9 5.2-6.3 9.3-12.1 11.3-14.9 5.2-29.1 4.2-42.2-3-.3-.2-.6-.4-1-.5 0 .4-.1.8-.1 1.1-1.1 11-6.8 18.7-16.9 22.7-10.6 4.3-21.7 4-32.8-.7-.4 0-.5-.1-.7-.1zM434.4 478.6l-.4-5.6c-.5-7 1.6-12.7 6.1-16.7 3.9-3.6 9.1-4 13.6-4.4l.8-.1c9.6-.9 15.1 5.8 19.5 11.2 5.6 6.9 11 11.6 18.9 11.8 8 .3 14.2-1.9 19.2-6.6 3.4-3.2 6.2-6.9 9.2-10.8l1.8-2.4c.1-.1.2-.2.2-.4.2-.3.5-.7.8-1 .2-.2.5-.6.8-1 1-1.3 2.4-3.3 5-2.8s3.3 3.2 3.7 4.8c.1.3.1.6.2.9.3 1 1 2 1.6 3.1.8 1.2 1.7 2.6 2.1 4.2l1.7 6.3-5-4.2c-2.6-2.2-4.5-5.1-5.5-8.6-2.1 2.2-4 4.6-5.9 7.1-1.5 2-3.1 4.1-4.9 6-7 7.8-16.3 11.3-27.6 10.2-8.4-.8-14.3-6.4-19.3-12.4-1.9-2.2-4-4.5-6.5-6.9-2.6-2.5-5.3-3.7-8.5-3.5-3 .1-6.2.4-9.2 1.4-4.4 1.4-6.8 4.6-7.8 10.4-.1.4-.1.8-.1 1.2-.1 1.3-.3 2.9-1.3 4.3l-3.2 4.5zM321.1 506.8l-2.1-3.4c5-3.3 10.5-6.2 16.2-8.5 6.7-2.7 13.7-2.8 20.4-2.9h.3c.5 0 .7-.1.7-.1s.1-.2.1-.5c.2-1.4.4-2.7.6-4 .2-1.4.5-2.9.7-4.3.6-4.2 2.4-8.1 5.5-12.1 3.2-4.1 8.1-5 11.4-5.4 5.1-.5 10 .2 14.8 1 1.2.2 2.4.4 3.5.5h.3c5.7.8 11 1.5 16.4.8l6.2-.9-4.6 4.3c-2 1.9-4.4 1.9-6.3 1.9h-.4c-4.8.1-9.5-.7-14-1.4-2.9-.5-5.9-1-8.8-1.2-12.8-1.1-18.2 3.4-19.9 16.6l-.2 1.2c-1 7.8-1.9 8.6-10.3 8.6-8.3 0-16.4 2.5-25.5 7.8-1.1.6-2.2 1-3.2 1.2-.4.2-1.2.5-1.8.8zM583.9 438.5l-.1-7.9c0-2.6-.6-5.2-1.2-7.9l-.1-.5c-.3-1.1-.8-3.4 1.2-5 1.9-1.4 3.7-.3 4.4.2.1.1.3.2.4.2 13.5 6.4 27.1 8 40.2 4.7 12.9-3.2 20.6-11.1 22.9-23.3.1-.5.2-.9.4-1.2 0-.1.1-.2.1-.3l.1-.2 5.2-8.4-.5 8c-.6 9.9-4.9 17.8-13.2 24.2-8 6.1-17 7.4-24.1 7.9-10.5.7-20.9-1.2-31.7-5.8.1.3.1.6.2.9.4 2.3 1 4.8-.4 7.5l-3.8 6.9z"/><path d="M266.8 540.4c-1-.4-1.5-1.2-1.7-2.4-.3-2.3 1.7-3.2 2.4-3.4.1 0 .2-.1.3-.1 2.4-1.3 4.9-1.6 6.8-1.8 12.4-1.2 22.6-6.9 31.4-17.3.1-.2.3-.3.4-.5.8-1 1.7-2.1 3.2-2.9l1.4-.7 1 1.1c.4.4 1.5 1.9 0 3.7l-.2.2c-5.1 6.6-11.4 12-18.5 16.2 2 .1 3.9.4 5.9 1.1l.5.2 5.7 6.7-6.6-2.1c-5.2-1.6-10.5-1.4-17.4.8-3.9 1.2-8 1.8-12.2 1.7h-.2c-.8-.1-1.6-.2-2.2-.5zM653.9 402.3l-1.1-5.2c-.4-1.8-.9-3.6-1.8-5.7-1.6-3.9-1.7-7.1-.4-9.6 1.3-2.5 3.9-4.2 7.9-5.2 11.6-2.8 21-10.1 28.8-22.4.3-.4.4-1 .6-1.7.3-1.1.6-2.4 1.6-3.6l.4-.5 3.9-.9-.2 2.7c-.3 4.5-2.6 8.2-5 11.4-5.2 7.1-12.1 11.9-18.2 15.7-4.6 2.9-9.6 4.3-13.4 5.2-1.6.4-2.6 1.1-2.2 3.6.3 1.8.7 3.6 1.5 5.3 1.1 2.2 1.2 4.3.1 6.2l-2.5 4.7zM228.2 472.8c-2.8-1.3-5.3-3.3-7.2-5.8-1.4-1.8-2.3-3.7-2.7-5.9l-.4-1.9 2.9-.7c2.2-.1 3.2 1.6 3.7 2.3 6.1 9.9 16.7 7.2 20.9 5.5.2-.1.5-.2.7-.3 1.6-.7 3.9-1.6 6.4-.2l.4.2 1.7 2.3-1.6 1.2c-4.7 3.5-10.7 5.4-16.6 5.2-3-.1-5.7-.8-8.2-1.9zM260.2 463.3l-1.9-.9-.2-.2c-1.2-1.2-1.5-2.8-.8-4.4.8-1.8 1.8-4 2.8-6 .7-1.5 2.2-2.2 3.7-2l3.2-.8-.7 3.1c-.7 3.1-1.6 7.4-5.2 10.4l-.9.8z"/><path d="m251.4 470.3-1.1-.9c-.9-.8-1.3-1.8-1.3-2.8.1-1 .5-1.8 1.3-2.4.9-.6 1.7-1.4 2.6-2.1 1.2-1 2.4-2.1 3.8-3 .7-.4 2.2-1 4 .1l.1.1 1.4.9-.6 1.6c-1.9 4.3-5.5 6.4-9.2 8l-1 .5zM307.1 520.1l1.6-7.4.4-.4c.3-.3.6-.6.8-.9.8-.9 1.7-2 3.1-2.8l.3-.1 6.6-1.5-3 4.3c-1.6 2.2-3.6 4-5.3 5.4l-4.5 3.4zM282 424.2c-.3-.1-.5-.3-.8-.5-.4-.4-.9-1.1-.9-2.3 0-1.1.5-1.7.9-2 .9-.8 2.1-.7 2.8-.6h.4c8.7-1.8 14.7-4.8 19.6-9.5 4.3-4.2 8.8-7.6 13.6-10.3 1.4-.8 2.4-.5 3-.2.6.4 1.3 1.1 1.3 2.7v2.3l-.1.7-.5.5c-.4.4-.5.9-.6 1.9v.2c-.9 6.4-4.5 10.9-10.8 13.6-8.7 3.7-16.9 4.9-25.3 3.8h-.5c-.4 0-1.3 0-2.1-.3zm35.6-20.6c-3.7 2.3-7.2 5.1-10.6 8.4-4.1 4-8.8 6.8-15 8.8 5.4-.2 10.8-1.4 16.5-3.8 5.1-2.2 7.7-5.4 8.4-10.4v-.2c.1-.9.2-1.8.7-2.8zM527.7 428.3c-.1 0-.1 0-.2-.1l-1.9-1 1.1-1.8c1-1.7 2.6-2.5 3.9-3.2l.5-.2c5.5-2.9 10.4-6.8 15.2-10.6 1.5-1.2 3.1-2.5 4.7-3.7l6.3-4.8-3.3 7.2c-1.1 2.5-3.1 4-4.9 5.4-.6.5-1.2.9-1.7 1.4-5.4 4.7-10.8 8.3-16.5 10.9-.9.8-2.1 1-3.2.5z"/><path d="M315.2 538c-3-1.4-5.7-3.9-7.3-7-1.7-3.2-2-6.6-.9-9.3.5-1.3 1.3-2.8 3-3.6l4.7-2.3-2 4.8c-2.5 6-2.7 6.7 3.1 11.6.3.2.7.5 1.1.7 1 .7 2.3 1.5 3.1 3.1l1.8 3.8-4-1c-1-.2-1.8-.5-2.6-.8zM522.2 432.8c-1.1-.5-1.5-1.6-1.6-2.3-.1-.6-.2-2.7 2.7-3.6.5-.1.9-.5 1.5-.9.9-.6 1.9-1.4 3.3-1.6l5.8-1.4-2.5 4.1c-.9 1.5-2.3 2.2-3.4 2.8l-.5.2c-.3.2-.7.4-.9.5v.1l.3 2.2-2.2.1h-.3c-.9.2-1.6.1-2.2-.2z"/><path d="M524.5 433.2c-.3-.1-.6-.3-.8-.5l-4-2.6 4.7-1c.4-.1.7-.2 1.1-.3 1.5-.4 3.2-.8 5.1-.4l4.4.8-3.6 2.7c-1 .8-3.7 2.8-6.9 1.3zM554.1 416.9l-1.6-5c-.1-.3-.2-.5-.2-.5H548.9l1.3-2.9c.4-.9 1.1-2.1 2.5-2.4.6-.2 1.6-.2 2.7.6 2.4 1.8 1.2 4.4.8 5.3l-2.1 4.9zM268.1 539.7l-.9-4.3 28-6.9-3.3 4.4c-.8 1-1.8 1.4-2.6 1.7-.3.1-.6.2-.7.3l-.3 1.2-4.5 1.1c-4 .9-7.9 1.9-11.9 2.7-.8.2-1.5 0-2-.1-.1 0-.3-.1-.4-.1h-1.4zM228.5 471.7c-2.5-1.2-4.8-2.9-6.7-5.2-1.4-1.7-2.4-3.4-2.8-5.4 0-.1-.1-.2-.1-.3-.1-.2-.3-.6-.5-.9-.6-1.1-2.1-3.8.3-5.7.6-.5 1.4-.7 2.1-.6 1.4.2 2.2 1.3 2.9 2.2.2.2.4.6.6.7 4.4 3.7 9.8 4.6 17.3 2.9 5-1.1 10-3.6 15.9-7.7.6-.4 1.1-1 1.6-1.6.2-.2.4-.5.6-.7.1-.1.1-.2.2-.3.4-.6 1.4-2.2 3.5-1.7 2.2.6 2.3 2.6 2.3 3.3v.3l.3.7-.3.6c-.5 1.3-1.1 2.5-1.7 3.6-.9 1.8-1.7 3.4-2.2 5.2l-.2.6-9 7.7-.4.1c-1 .3-2 .7-3 1-2.3.8-4.7 1.6-7.1 2.1-5.1 1.4-9.7 1-13.6-.9zm-5.6-11.1c.4 1.2 1 2.2 1.9 3.3 4.1 4.8 9.5 6.5 16.5 5 2.2-.5 4.4-1.2 6.6-2l2.7-.9 7.4-6.3c.5-1.9 1.4-3.6 2.2-5.2-.2.2-.4.3-.6.5-6.3 4.4-11.8 7.1-17.3 8.3-5.1 1.2-12.6 2.2-19.4-2.7zM192.8 421.1c-.1 0-.1-.1-.2-.1-5-2.5-6.6-5.1-6.3-10.5.2-3.8 4.8-9.7 8.5-10.9.8-.3 1.6-.4 2.4-.6.3-.1.6-.1 1-.2 7.4-1.8 9.9-.5 12.4 6.3 1.2 3.2 3.1 8.7-1.8 13.1-4.3 3.8-11.3 5.1-16 2.9zm11.5-18.9c-1-.5-2.5-.2-5.2.5-.3.1-.7.2-1 .2-.7.2-1.4.3-2 .5-2.1.7-5.7 5.2-5.8 7.3-.2 3.7.5 4.9 4.1 6.7 3.3 1.7 8.6.6 11.8-2.2 2.4-2.2 2.1-4.7.7-8.7-1-2.6-1.5-3.9-2.6-4.3z"/><path fill="none" d="M0 0h1000v1000H0z"/><path fill="none" d="M100 99.9h800.1v300H100z"/><path d="m162 257.6-37.9-148.9h34.3c14 68.4 20.3 98.8 22.1 115.2h.2c5.7-27.4 20-79.2 28.7-115.2h28.9c7.7 28.6 22.7 86.4 27.6 113.6h.2c4.9-32.8 19.6-90.5 24.8-113.6h31.3l-40.3 148.9h-33.4c-7.8-33-20.9-81.1-26.2-106.6h-.2c-5.4 26.5-18.8 76.6-26.8 106.6H162zM372.9 198v59.6h-31.5v-149h65.4c32.5 0 50 17.9 50 40.9 0 20-10.9 30.8-21.6 35.2 7.4 2.7 18.5 10.4 18.5 37.1v7.4c0 10 .1 21.4 2.1 28.4h-30.5c-2.6-6.5-3.1-17.6-3.1-33.4V222c0-16.3-4.1-24-28.1-24h-21.2zm0-25.7h27c17.6 0 24.4-6.7 24.4-19.2 0-12.1-7.9-18.9-23.7-18.9h-27.8v38.1zM587.9 193.3h-71.2v37.8h78.6l-3.8 26.4h-106V108.6h105.6V135h-74.3v31.9H588v26.4zM747.1 211.7c-6 27.8-26.9 48-64.2 48-47.2 0-69.5-33.4-69.5-75.8 0-40.8 23-77.4 71.1-77.4 39.7 0 58.9 23.3 62.5 48.2h-32.2c-3.1-11.5-11.1-22.9-31.3-22.9-26.6 0-36.8 23.9-36.8 51 0 25.2 8.9 51.7 37.7 51.7 21 0 27.6-14.1 30.5-22.8h32.2zM771.9 108.6h31.8v66.5c9.8-11.5 40.5-45 59.3-66.5h38.6l-59.8 61.9 62 87h-38.6l-45.7-66.2-15.7 15v51.1H772V108.6z"/><path fill="none" d="M600 600h300v300H600z"/><path d="M714.6 863.6c2.8 12.5 11.8 17.9 26.1 17.9s20.5-5.7 20.5-14.7c0-10.1-6-14.5-27.2-19.4-33.8-7.9-42.1-20.2-42.1-37 0-21.6 16.2-36.3 45.6-36.3 32.9 0 46.1 17.7 47.9 35.9h-27c-1.3-7.6-5.5-15.9-21.5-15.9-10.9 0-17.5 4.5-17.5 13.3 0 8.6 5.3 12.1 25.3 16.8 36.1 8.5 44 21.9 44 39.4 0 22.7-17.1 38.2-49.9 38.2-31.5 0-48.1-15.5-51.1-38.1h26.9zM855.4 899.9v-26.6h-53.6v-22.4l49.4-69.4h28.1v71h14.3l-2.4 20.8h-11.9v26.6h-23.9zm0-68.5c0-12.8 0-20 .5-27.4-4.7 9.9-20.1 32.5-31.3 48.5h30.8v-21.1z"/></svg>