<svg xmlns="http://www.w3.org/2000/svg" xml:space="preserve" baseProfile="tiny" overflow="visible" version="1.2" viewBox="0 0 1000 1000"><path d="M441.4 659.6c37.4 31.1 72 84.9 111.6 104.2 16.7-20.8 50.3-32.1 16.8-54 7.5-18 38.7-46 55.1-58.1 8.2 6 17.3 26.2 26.4 13.7 14.9 13.3 29.4 29.3 44.2 43.5 31.3-8.8-21.9-38.9-31.1-53.7-3.6-5.3 8.1-6.4-.2-11.4-3.9-6.1-17.6-13-15.9-19.6 20.2-17.7 33.2-49.7 54.8-16.7 68.3-43.3 19.3-50.4-18.1-94.4-86-84.7-171-170.4-256.8-254.8-26.8-27.2-55-54.9-82.1-82.4-14.6-.7-25.8 24.2-38.4 32.8-3.1 7.3 5.1 2.9-5.4 8.4C256.1 273.4 202 316.4 153 364.3c76.9 101.7 197.5 197 288.4 295.3zm70.2-288.5c6.4 9.2 8.3-4.7 13.9-1.1 1 1.3 2.2 2.2 3.8.6.9-1 3.2.5 2.2 1.6-2.9 2.5-10.7 16.6-13 9.4 2.5-2.9-.5-3.9-1.7-5.4-1.9-1.6-4 2.2-5.7-1 .2-13.3-8.5-4.2-7.7-9.3 2-3.2 11-14.6 13.2-8.7.7 11 5.2 1.3-5 13.9zM354.7 510.7c-14.7-11.5-4.2-7.9-8.7-16.6-21.2-13.2-37.1-37.7-56.1-53.3-19.9-14.4-36.1-45.3-55.7-50.1 2.9-23.4 77.6 70.4 100.6 87.7 23.5 15.3 22 33.9 16.5 59.2-16.4-10.1-6.3-16.4 3.4-26.9zm132.7-.6c-25.9 29.4-54.3 39.4-9.9 71.8 2.8 5.5-12.7 9.6-5.1 16.3 4.3 5-9.4 17-13.1 7.7-24.5-27.6-59.1-53.1-79-81.6 40-40.3 79.8-80.6 119.8-120.9 8.8-.8 16.2 15.3 24.4 20.2 4.9 8.2 28.1 18.7 19.4 27.9-3.2 3.3-3.3 4.7-.1 8.2 21.6 29 20.4-8.5 42.6 27.7-14.3 16.2-6.6 5.4-18-2.9-19.3-6.4-20.4 26.6 1.1 20.3-27.8 29.2-32.6 42.9-60.8 6.4-5.9-13.3-26.6 3.1-11.2-10.9 2.2-2.4 2.2-4.2.1-6.5-5.7-3.3 7.3-16.6 11-9.8 5.9 5.2 10.8-6 15.2-9 4.5-4.4-4.5-6.6-3.4-10.8-20.8-31.3-30.4-45.3-57.9-9.1-9.9 9.6-26.8 20.5-8.6 31.4 10.2 10.4 19.6 21.9 33.5 23.6zM220.5 313.9c-3.5 7 8.8 7.2 4.6 20.6 9.1 19.1 42.7 19.6 32.3-6.2-5.1-4.8-10.8-16.9-17.9-12-6.2.9-11.2-8.9-15.4-5.8-8.4.7.2-6.3 4.2-10.3.4 3.1 4.2 3.2 4.7.2-4.3-3.3 5.3-12.4 8.9-8.6 5.6-2.5-3.4-5.5 6-10.7 15.8 4.8 2.7-9.3 14.2-15-.8 4.1 4.7 4 4.4.5-5.1-3.6 1.2-5.1 4.8-9.8 1.6-2.7 3.1 3.3 5.4.1.4-7.1-1.3-4.3 5.2-10.9 1.9-2.5 2.7-.1 3.8.7 2.1 1.8-3.9 3.2-.6 5.5 6.9 4.5 5.9 11.5 5.3 17.2 7.9 8.2 18.7 22.2 30.5 11.5 12.1-9.7-5.8-34.5-16.3-30.1-5.3-1-9.1-3.3-12.9-7.3-4.2 1.9-1.8 0-5.7-1.7 2.8-8.7 18.2-.6 13.8-10.9 16.3-35.6 15.3 30.7 47.9-16.3 5.8 0 4.1 20 6.5 26.6-.2 9.6 9 23.3 1.2 30.8-2.8 1.3-3.4-4.1-6.1-2.9-.7 11.5-17.4 19.9-24.7 29.9-17.4 29.8-52.7 49.2-76.2 75.7-1 1-2 2-3.4.5-6.3-.6 3.7 4.9.3 6.8-17.7.3-37.7-4.9-55.7-7.4 5.4-7.4 13.8-13.9 20-21.2 3.6-7.7-17.4-14.1-13.2-21 .2 5.5 7.9.4 3-1.9-.5-2.4 5.8-8.7 9-5.6 9 2.6 0-19.3 12.1-11zm306.4 284.4c19.8 17.6 57.8 66.2 82.7 45.4 3.2-6.1 9.3-.2 7.2 3.6-18.7 14.3-37.4 48.2-56.9 52.6-35-32.8-18.4-34.1-52.8-9.8-7-26.8-53.5-63.5-31.5-85.8 11.6 5 12.8 9.4 23.5-4.6 36.6 19.9-14.7 10.4 22.7 38.9 22.6 25.5 11.6 16.9 36.4-4.8-3-11.8-24.6-22.1-31.3-35.5zm38.6-84.3c24.2-39.7 44.2-14.7 76 1.5 25.6 13.2 31.2 12.6 7.4 34 23.9 41.7 46.4 21.4-3.5 68.4-3.9 4-2.9 3.9-7.2 0 24.8-25.4-42.3-97.4-72.7-103.9zm42.4 32.4c10.2 5.2 17 32.4 4.3 32.9-3.6-6.2-14.9-9.5-15.6-15.8 3.8-4.8-17.4-25.6-19.2-18.3 6.8 9.3-26.9 44.9-32.3 36.4-14.6-2.7 9 23 15 19.1 44.6 41.5-24.7 21.1-41.4-14.1-20.2-26.6 30.7-46.7 43.1-68.4 17.7-9.8 34.1 17.8 46.1 28.2zm-47.7 155.5c31.2 25.7 26.9 29.3-1.7 54.8-8.2 7.3-56.6-60.8-54.7-44.6 67.3 62.9 53.9 66.5-5.1 3 2.5-13.6 24.3-24.9 33.3-37.5 10.2-.1 18.8 18 28.2 24.3zM677 579.7c-5.9-6.9-23.8-17.5-23.1-26.7 12.3-8.7 23.5-30.5 36.7-32.6 5.8 9.3 62.9 52.9 44.5 52-17.3-14.8-32.8-36.8-51-48.3 4.2 11 19.1 19.3 26.9 29.2 32.1 25.3 20.8 28.2-4.5 52.6-10.6-1.6-19.7-19.1-29.5-26.2zM308.6 411.6c9.1-27.3 68.8 51.4 81.5 63.6-1.3 8.2-11.7 28.5-21.3 21.3-9.4-14-38.9-29.3-37.8-43.8 4.5-4.9-9.1-18.4-13.5-10.1-1.1 1-1.8 1.3-3 .1-13-15.4-26.7-15.7-5.9-31.1zm95.7-43.3c-25.8-23.9-31.7-22.9-5.2-47.9 5.7 4 23 15.1 18.2 22.3-1.9 2.4-1.9 3.6.1 5.7 3.8 3.3 8.1 11.2 13 5 15.4 5.1 28.8 27.9 43.2 39-10.3 47.6-51.3-6.2-69.3-24.1zm-160.5 17.3c12.2-7.5 23.3-18.6 34.4-30.4 1-9 17.4-25.2 26.9-24.9 4.9-24.7 44.7-32.5 51.1-57.4 1.8-1.3 5.3-7.4 6-2.7 2.6 21.2 27.4 31 35.1 47.3-4.4 3.6-9.3 13.2-14.7 12.9-2.6-3.7-4.6.6-6.7 2.3.8 12.7-17.4 21.6-26.2 32.6-2.6 2.2-4.8-3.9-7.3.4-5.9 4.9 1.6 8.8-7.2 14.1-9.1 8.7-16.5 19.7-27.5 21-13 46.9-35.1-13.8-63.9-15.2zm245.6 277.7c-7.5.3-10.9-6.2-15.4-5.5-1.9 2.2-2.9.8-4.1-.5-8.6-6.4-5.3-12.6 3.8-9.1-9.7-19.1-44.2-40.3-56.4-60.8-19.5-12.3-38.1-39.5-54.7-52.1-5.7 5.9 20.9 21.5 25.5 29.7 7.8 23.5-26.5-16.4-32.1-21.4-7.3-5.8 7.2-15.3 13.2-15.8 49.3 26.7 93.3 83.3 120.2 135.5zm-17.1-216.2c5.9-3.6 12.2-18.3 19.6-13.4 5.9 9 28.9 22.1 25.8 30-15.6-5.9-2.1-.5-14.8 8.3-2.5 7.1 2 9.9-7.1 16.1-3.1 4.4-6.3-4.7-9.8-.4-17.5 10.7-2.8 23-13.2 16.1-30.2-26.2-31.5-30.4-.5-56.7zm-51 187.9c-8-12.9-46.5-30.5-27.3-44.3 26.8 8.4 53.3 52 79.5 72.4 9 49.4-37.3-17.8-52.2-28.1zm-89.8-87.8c-6-8.4-67.3-55.9-43.2-54.7 8.4 10.5 25.4 20.1 26.7 31.5 2.7 4.3 4.2 2.7 7.8 3 10.8 15.8 10.7-3 18.4 5.5 14.1 17.2 45.4 39.1 51.1 54.1-5-.3-8.5 7.3-8.9 10.8-18.3-13.1-34.4-34.3-51.9-50.2zm275 44.4c12.2 8.8 45.1 51.8 36.1 32.4 10.4 14.4 26.6 19.1 3.4 10.1-11.1 7.5-21.8 18.5-7.8 29-20.9-20.6-17.4-23.2-50.1-53.8 5.8 12.4 26.4 21.3 29.3 33.8-15.4-18.2-49.6-34-17.7-54 14-2.9 28.8 23.5 38.8 31.9-11.4-5.9-20.3-21.8-32-29.4zM563 441.1c-13-3.5 15.3 25.4 6 2.2 31.9 30.3 11.8 11.3 15.9 34.1 8.4 13.4-16.8-10.9-15-18.6-19-21.1-59.8-36.5-65.9-68.1 8.4-19.1 9.6-10.1 20.4-2.4-2.4 4.5 21 15 6.7 13.2-4.4-4.1-25.7-29.1-18.6-11.9 16.8 13.7 40.3 33 50.5 51.5zm-308.1-27.5c18.8 14.9 19.8 20.4.5 35.9-13.9 6.5-26.1-22-38-29-3.8-8.6 12.5-16.1 17-23.3 7.3-2.5 13.9 12.5 20.5 16.4zm134.3-134.8c-3.9-5.8-19.5-13.6-16.4-20.7 6.9-4.9 13-19.2 22-17.8 7.6 12.3 34 23.7 30.5 38.1-13.9 19-22 19.3-36.1.4zM321.8 480c4.3 6.2 17.2 12.5 16.7 19.8-7.4 4.4-15.3 23.2-24.6 16.7-9.8-10.5-22-20.2-30.6-31.2 12.4-21.3 22.6-27.8 38.5-5.3zm134.5-134.5c-20.3-16.4-19.9-19.9.2-36.8 12.9-4 24.2 21.5 35.5 28.5 6.3 9.5-12.4 17.3-16.9 24.9-6.8-.9-12.5-12.1-18.8-16.6zm-51.5 47.7c34.2 26 22.1 32.1-4.8 57.3-23.7.4-44.1-41.5-65.5-56-6.6-13.2 20.9-24.7 27.6-35.9 15.8-3.2 29.1 25.8 42.7 34.6zm249.6 93.1c8.5 13 40.4 25.9 19 39.3-13.8-5.3-25.2-24.6-37.9-34.6-8.8-11.1-30.5-20.1-11.5-31.9 10.7 3.3 20.1 19.7 30.4 27.2zm-256.9-25.7c15.7-8.5 27.8-25.9 40.2-38.2 3.8 2.3 6.2 8 11.8 4.8 35.6-11.8-37.4 46.8-43.4 56.6-.8.8-1.5 1.8-2.9.5 2.2-.3 3.6-2.9 1.1-3.9-7.3 2.6 6.7-13.5-6.8-19.8zM187.3 369c-6.4 4.7-12.2 16.5-19.2 17.3-10.9-10-22.9-18.4-5.9-29.2 8.8-6 17.1-23.6 26.7-23.5 19.6 15.6 16 20.3-1.6 35.4zm156.9-157.5c-15.1 18.1-19.8 20.3-35 .9 3.2-12.5 22.2-23.1 30.7-34.7 7.2-6 13.6 9.8 19.6 13.2 4.5 6.6-12 14-15.3 20.6zm252.3 359.4c6.6 7.8 20.3 14.3 2.9 16.7-27.7 25.1-10 36.5-41.9 3.1 2.6-9.3 21.1-17.8 25.6-30 4.3-3.1 9.3 7.9 13.4 10.2zM359.9 251.7c13.1 18.9 147.4 132.1 114.7 125.6-34.8-43.1-93.8-75.8-114.7-125.6zm306.7 274.5c-10.8-10.1-96.3-41.1-62.7-48.1 4.3 6.1 13.4 9.2 14.3 17-1.1 1.3 6.6 1.6 6.3-.1-6.1-11.4-24.8-18.8-25.1-31.6 19.1 12.7 45.4 40.9 67.2 62.8zm-4.1 148.5c-7.5-6.8-13.3-11.4-2.8-18.6 16.2 6.2 30.2 29.8 45.5 41.8-7.8 25.6-30.1-16.1-42.7-23.2zm-423.1-219c-6.2-6.9-37.9-32.7-32.5-35.2 16.5-.4 26.6 20.8 40.5 31.7.9.9 1.4 1.6.1 2.7-2 1.8 4.7 8.4 6.3 5.6 6.7 2.6 16.6 14.5 21.6 20.8-4.1 3.8 5.2 4.7 1.3 8.2-13.5-3.6-24.8-24.4-37.3-33.8zM499 553.8c-6.5 5.6-6.6 6.2-3.2 12.8-1.2 4.6-14.5 6.2-8.3.5 2.5-4.9-12.1-19.8-16.6-12.4-1.4-15.9 8.6-5.2 11.3-8.7 4.4-5.9 14.7-9.4 8.3-16.8.1-3.2 12.3-7.1 8.7-2.2-4 3.8 11 19.5 14.9 14.2 3.9-2.6 2.1 5.8.3 7.1-5.3 6-8.5-6-15.4 5.5zm69 72.6c8.4-12.8 37.5 3.2 43.5 13.1-3.8 11.1-14.2-.4-10.3 11-8.9-2.7-35.4-13.7-35.7-21.6.8 7.5 9.7-.1 2.5-2.5zm56.5-58.3c8.5 5 18.4 26.3 21.3 36.8-2.1-1.9-7.4-2.1-5.3 2.4.9 12.9-13.4 2.7-16.5-4.5.5-8.1-8.2-13.9-8.8-20.9 3.2-2.1 3-11.9 7.7-9 4.2 3.5 6.9-4.1 1.6-4.8zm-189.9-290c4.8-1.8-2.5-9.7-4.9-6.8-6.3-.4-12-11.6-17.9-15.7-4.1-25.7 56.3 50.1 67.2 56.1 5.6 3.2 2.3 8.9-2.3 8.3-9.9-7.1-11.5-15.6-18.1-22-7 4.5-11.1-15.8-17.8-6.9 4.2-2-.6-8.2-6.2-13zm-43.1 196.7c21.8 14.9-11.4 22.4-17 37.3 2.2 6.4-11.1-4.7-8.5-7.1-3.9-16.3-29.1-29.9-40.3-45 18.7-2.4 50.4 76.2 65.8 14.8zm63.2-103.1c-5.7-7.2-18.3-14.5-20.5-22.6 12.3 4.6 24.2 23 35.3 32.9 5.3 3.4 7.9 10.3 14.3 6.3 15.5 9.3-7.9 15.4-14.9 27 .3 11.1-17.8 6.8-16-1.1 32.6-8.3 22.6-26.4 1.8-42.5zm-232.2 30.8c-8 12.3-21 11.3-22.1-2.4 7.3-5 13.8-18.8 21.8-19.3 10.5 8.4 12.1 12.8.3 21.7zm143.7-169.3c5.9-13.9 23.9-8.5 19.1 5.2-6.4 4.3-12.5 18-19.7 17.1-11.6-8.5-10.4-13.8.6-22.3zm-89.3 224.6c4.1-2.3 8.9-13.6 13.6-8.9 2.3 4 13.3 8.4 6.8 12.7-16.1 26.6-42.9 14.5-20.4-3.8zm156.5-156.9c5.8-14.4 23.6-9 19.4 4.6-6.4 4.4-12.6 17.6-19.7 17-11.1-8.3-10.6-13.4.3-21.6zm213.1 339c-1.8 4.1 4.2 2.4 2.4-.3-.9-.9-.2-1.3.4-1.7 26.1 6.1 9.4 18-2.9 30.8-3.6.7-14.7-12.7-10.7-16.9 2.5 4.3 3.6-8.7 10.8-11.9zM275.2 455.8c-3.8 2.4-8.1 12-12.8 9.8-3.6-3.9-9-6.8-4.5-12.1 6.5-4.2 12.8-18 20.2-16.8 11.3 7.4 4.9 11.9-2.9 19.1zm156.4-157.1c-15.1 21.5-27.5-.6-7.1-12.6 11.6-15.2 23.4 4.8 7.1 12.6zm-89.9 223.7c-4.9 11.7-22 12-16.8-2.3 11.9-21.3 40.6-19.7 16.8 2.3zm145.7-166c5-9.5 20.7-13.7 19.6-.4-7.1 4.6-14 18.8-21.8 18.2-10-6.9-5.4-11.3 2.2-17.8zM293.8 252.8c2.3-2.9 9-3.5 9.8-.3-1.1 1.5.2 2 1.2 2.4 1.9.8 7.5.5 5.2 4 7.6 3.6 12.7 20.2-2.2 17.6-5-.4-4.5-7.4-7.8-7.8-1.7.9-2.9.4-3.2-1.6.3-7.2-10.4-4.7-3-14.3zm-44.4 75.4c10.1 14.9-9.6 18.2-14.8 6.1-5.5 1.8-1.2-8.3-6.7-6.6-.9.3-1.1-.8-1.3-1.5-1.8-11.2 9.3-13.1 13.7-5.6 9.3 1.3.2 3.6 9.1 7.6zm113.7-59.5c10.4 14.3 38.9 27.9 38.3 44.6-14.3-4.6-34.2-27-38.3-44.6zM532.2 627c6.3-11.5 18.3-9.5 17.3 3.1-12 21.6-37.9 14.8-17.3-3.1zM244.9 387.4c18.3 2.9 36.8 23.5 45.3 36.9-16.1 4.2-30.8-27.9-45.3-36.9zm330.4 310.4c-33.3 27.5 36.9-48.2 45.2-50.2-6.9 17.8-32.5 33.1-45.2 50.2zm-147.4-89.2c-10.1-11.3-27.8-23.3-34.1-36.5 19 14.5 35.9 35.4 54 52.1 5.3 6.4 14.2 11.9 17.7 18.8-14.2-5.7-24.8-24.2-37.6-34.4zM555.1 447c-11.1-.6 8.6 12.9 11 16.7-4.9 23.4-37.2-17.7-11-16.7zM361.7 201.5c6.4-11.7 80.5 80 34.2 38.3-.8-.8-2.1-1.5-.1-2.7 2.1-2.9-5.3-4.8-3-7.8 1-5.7-5.2-1.9-7.2-4-2.5-2.1 2.4-4.8-1.3-6.7-2.1-2.8-4 2.8-6.2-.5-3.6-2.1 2.1-3.9-.3-5.9-2-4.1-4.4.8-6.9-1.2-3.5-1.8 1.3-4-.8-6.1-2.3-3.4-5.7-.1-8.4-3.4zm33.1 253c15.4-5.7 26.3-29.6 39-34.6 5.9 2.3-38.1 50.6-39 34.6zm208.2 3.4c-9 9.1-3.8.1-7.1-2.7-1.8-3.7-4.9 1.5-6.7-1.7-3.2-1.4 2.1-4-1-5.5-1.8-3-3.3-2.6-6.5-2.1-1.1-4.5 7.5-12.9 12.4-12.1 1.7 1.6-2.3 2.5-.3 4.3 6.9 6-9.3 8.1-.9 13.8 3.9 4.2 7.1-9.8 11.1-3.5 10.3-.2 3.4 4-1 9.5zM402.3 589.5c-3.3-3.1-11.7-8.8-12.2-13.5 25.4 20.5 50.2 49.3 74.1 72.5-22.1-14-41-40.7-61.9-59zM664 606.2c-2.7 2.9-20.4 25.5-19.9 14.7 10.4-5.8 31-41.1 37-31.8-5.7 5.6-11.4 11.4-17.1 17.1zm-174.4-94.3c3-7.1 20.4-4.7 11.3 2.8-4.4 2.5 6.8 9.4-.9 9.1-4.1-2.8-16.8 9.9-10.7.1 2-2.1 2-2.8.1-4.9-4.1-4.1-3.6-3.2.2-7.1zm-31.9 32c2.6-2.5 3.5-4.8 6.2-1 2.8 2.6 3.7 3.7 6.3.2 9.5-3.2-4.3 7.2-.6 11.6-.9 7.8-6.8-5.6-10.1 1.8-7.2 6.5-7.4-10.8-1.8-12.6zm44.4-199c2.5-2.3-1-8.7-4.9-7.6-4.1 1.1-23.3-15.9-14.6-19.1 5.9 1.7 30.9 21 19.5 26.7zm8.3 226.1c-1 6.8 15.2 26.4 7.7 18.2-5.4-7.2-10 .8-14.4 4.8-7.9-12.5-3.9-12.6 6.7-23zm-90.9-99c-1.1 11.4-47.7 40.6-36.2 45.1-36.2 28.5 22.5-33 36.2-45.1zm111 64.9c5.5 4.4-1.8 17.5-7.5 15.6-2.8-6.6-10.3 3.7-9.5-1.8 6.6-2.2.2-14.9 6.4-13 4.6 6.7 6.1-2.8 10.6-.8zm39 37.9c-5.1 3.2-12.2 15-17.6 10.1 7.1-9.2 20.5-17.9 27.2-29.5 9.1.4-7.2 15.8-9.6 19.4zm-73 7.7c-5.2 7.4-19.5 4.5-9.7-4.5.3-2.3-6.5-6.4-1.1-6.8 5.6 3.3 8.5-3.3 12.6-3.7-7.7 10.8 6.3 7.6-1.8 15zm20.1 29.1c2.8-4.5 15.6-14.8 12.9-3.7-4.6 3.4-4.9 5.4-3.6 9.8-2.3 1.7-3.8-3.7-6-.1-1.6 2.2-6.7-.6-5.8 4.3-6.8 11-8.8-4.3 2.5-10.3zM319.2 452.9c-5.4-5.4-5.4-5.4.1-10.6 13.9-6.8 12.6 24.7-.1 10.6zm210.6 160c16.2.8-3.8 27.4-9.9 13.1 3.1 1.7 8.1 6.9 3.1.4-6.8-7.7 5.1-5 4.6-10.6-.6-1.4 1.1-2.4 2-1.2 6.9 7.1 6 3.7.2-1.7zM429.5 342.6c8 3.2.4 13.5-5.1 10.8-4.3-5.2-11.4-6.8-3.4-12.5 4.3-5.7 4.8-1.1 8.5 1.7zm59.1 245.6c-10.5 7.7-14.2 17 .2 18.8 11-10.6 14.2-11.4 7.8-20.8 12.5 5.4-6 24.5-12.9 20.8-14.3-7.9-13.1-26.1 4.9-18.8zm107.2-118.7c7.8 3.2 2.5 13.2-2.3 11.4-.1-5.6-14.7-5.9-7.9-12.1 4.3-5.9 5.9-4.2 10.2.7zM487 405.4c-17 21-39.3 39.4-57.7 59.1-2.2-4 43-43.7 57.7-59.1zm-294.9-26.2c5.2.6 20.6.6 22.5 4.5-8.5 13.9-14.1 4-22.5-4.5zm161.6-162.7c4 2.9 12 9.2 13.1 14.1-12.7 17.8-10.2-2.6-13.1-14.1zm44.4 102.3c14.7-17.3 2.6-1.8 15.1 7.4 2.5 3.2 11.6 6.4 9.4 11.1-9.3-.1-14.1-17.5-24.5-18.5zm-39.3 184c3.6 2.9 13.2 9.7 13 14.6-12.6 17.2-9.6-3.4-13-14.6zm125 14.7c8.8 1.4 4.4 7.1-2.2 7.6-7 3.1-12.8 21.7-16.7 17.2-5.5-6.9 10.7-13.6 14.1-19.8.8-.8 1.6-2.1 2.6-.1 3 2.2 6.5-3.7 2.2-4.9zm-6.2 61.9c-3.5-5.9-27.3-20.2-14.2-22.9 3.4 6.3 7.7 12.2 14 17.4 2.8 1.5 6.1-.2 7.3 3.7.1 8.2-4.8-5.5-7.1 1.8zm2.1-197.1c4.9.7 20 .8 21.3 4.9-8 13.5-13.5 2.6-21.3-4.9zm-244.3-45c2.9 7.2 20.2 9.1 17.5 1.1 3.9-5.5-4.5-10.3-1.8-14.2.9-1.4 4.4 2 2.7 3.3 6.8 8 .1 23-15 18.4 5.8-3.4-7.4-2.6-11.3-10.8 2.3-1.9 7.1-.6 5 2.9-1.5 3.1 3.7 2.6 2.9-.7zm216.9 81.4c10.6 8.3-11.5 10.5-14.5 1.7-1.2-3.4 13.2-7 14.5-1.7zm47.5 136c5.7-7.8 10.2-6.1 10.5 2.8-4.5-.5-6.5-1.3-4.5 4.4-5.7-1-5.5 0-5 5.2-6.9-2.4-7.6-8.3-1-12.4zM295.3 421.8c.8 10.5 18.2 15.2 18.5 24.4-6.9-1-12-12.5-18.8-16.3-1.8-2-3.3 0-4.8 1.3-7.5-1.2 2.4-6.5 5.1-9.4zm209.6 114c-8.2-6.1-5.8-10.4 2.9-10.4-.6 2-1.4 6.8 2.7 4.7 4.7-2.4-3.2 8.3 6.3 4.3-1.1 7.3-8 8.1-11.9 1.4zm-39.4-100.7c-4.6 3.9-26.9 29.6-24.2 21.9 16.3-15.3 31.7-33.8 48.5-47.5-5.6 9.2-16.8 17-24.3 25.6zm-69.6 41.3c-7.2-5.4-1.2-22.5 6-9.7 2.7 4.2-.9 18.6-6 9.7zm85.6 82.4c8.1 5.8 5.9 10.1-2.9 10.3.9-2.1 1.1-7.7-2.7-4.6-4.1 3 2-8.3-4.7-4.8-5.4-1 5.9-11.2 10.3-.9zm4.5-18.7c-4.6 8.1-10.5 6.3-9.9-2.7 6.7 1.2 4.5-.4 4.3-4.6 5.8 1.5 5.4 0 4.8-4.9 7.1 2.4 7.1 8.1.8 12.2zm17.4-26.1c1.7 1.6 33.9 20.4 20.3 24.4-5.7-16.2-27-20.1-20.3-24.4zm-1.9 63.2c-8.8-3.5-1.4-6.5 3.4-7.7 6.1-5.2 10-11.3 13.2-17.4 13 .3-8.4 15.4-11.4 20.1-2.6.7-9.1-.7-5.2 5zm19.7 109.4c-4 2.6-8.3 11.4-12.6 10.6.4-9.1 14.8-15.3 20.1-23.3 10-3.1-4.9 10.2-7.5 12.7zm28.5-285.5c-4 6.2-5 .3-9.4.6-8.2 1.3 13.3-21.8 10.5-7 3.1 3 1.4 3.7-1.1 6.4zm-72.8 263.5c16.7-6.3 10.2 5.8.9 12.4-4.3.7-3.3-10.5-.9-12.4zm8.9-71.1c2.5-3.1 7.8-9.6 11-3.5-1 9.5-27.2 20.4-11 3.5zm73.9-179.6c-8.9 8.7-4.1 1.9-7.5-2.9-2.6-2.6 3.3-4.7 4.4-7 1.4-1.6 2.5-1.4 3.6.2 10.8 1.4 4.3 2.7-.5 9.7zm32.5 205.6c15 14.2-6.1 3.3-13-1.9-2.7-8.4 10.7-3.5 13 1.9zm-86.7 72.7c-4.1-5.7-23.9-15.7-15.2-22.6 6.9-.2 10 16.9 15.2 22.6zm-16.7-315c1.6-2.6 10-13.4 12.5-11 15.2 12.6-2 8-12.5 11zM353.9 535.8c-.5-8.8 2.5-19.7 3.2-29.1 1.9 10.8 8.3 22.2-3.2 29.1zm205.8-36.7c-4.9-4.8 1-5.5 2.4-9.1 1.9-4.3 9.1 1.2 8.3 5.1.3 2.6-5 .8-4.3 4.2.3 3.5-5.1 1.3-6.4-.2zm-76-118.8c9.1-1.7 18.1-3.5 26.8-3.5-4.3 11.8-17 4.4-26.8 3.5zm139.1 222.2c-4.4-6.6-19-12.6-12-20.6 6.1 4 10.4 12.9 12 20.6zM494.2 492.4c-3.4-3.5-6.9 2.2-4.7 5.3-1.4-.4-2.6-2.6-4.3-.4-1.9 2.3-2.1 2.2-.5 5.9-2.8-3.7-5.8 2.1-7.5-2 1.4-6 11.4-19.2 17-8.8zm-69.5-16.2c-13 12.2-25.2 28.2-38.8 38.3 10.5-12.4 24.5-28.7 38.8-38.3zm77.7-87.3c-.1 7.2-3 15.2-9.9 18.1-.8-1.5.8-4.2-2.4-3.4-.9-4.2 8.5-10 12.3-14.7zm-66.8 21.2c2.5-7.9 14.1 2.9 9.7 4.9-5.6 3.1-18.6 2.8-9.7-4.9zm67.8 299.5c16.5 15 36.4 34.9 51.4 51.6-17.1-17.2-34.3-34.4-51.4-51.6zM390.9 471.5c-5.8-5.3-10.6-9-2.3-14.3 8.1-4.7 3.9 9.9 2.3 14.3zm157.5 121.2c-2.6-2.3-12.9-12.4-3.3-9.2 4.8 5.1 8.8 12 14.9 13.7.8 8.2-9.5-1.7-11.6-4.5zm42.4-38.7c2.6 2.4 8.7 7.9 2.9 9.8-3-5.6-8.7-11-14.8-15.5-2.3-9.4 9.4 3.3 11.9 5.7zm-43.5 89.3c-1 2.3-14.2 15.9-11.1 7.4 7.1-5.5 13.3-16.8 21-19.2.3 4.3-7.4 7.9-9.9 11.8zm-36.4-52c5.5-6.9 8.2 5.5 2.2 8.3-9.4 4.6-9.8-3.3-2.2-8.3zm160-61.4c-4.7 1.9 1.6 4.6-2.3 6.5-3.4 5.7-3-1.7-6.3 1.8-.2 2.6 3.5 2.1.1 4.3-1.6 3.6-3.8-.4-5.8 1.5.2 2.9 2.2 3.5-1.4 6-.9.8-1.7 1.8-2.8.2-2.6-2.2-3.7 3.6-.1 2.7-10.6 2.4 14.8-21.2 18.6-23zM302.3 279.5c-2.2-4.1-14.1-9.6-9.5-13.5-2.4 5.3 2.7 1.7 4.4 3.8 2.4.9-1.3 6.6 2.8 4.8 4-2 7.6 6.4 13.1 3.1 10.6-1.3-3.7 7.2-8.6 3 3.8-2.8-1.4-5.9-2.2-1.2zm-92.4 36.3c11-12.7 24.9-26.3 37.1-36.8-10.2 12.5-24.7 25.4-37.1 36.8zm62.1-63.2c5.4-5.8 12.7-14.3 19.1-18.8-.8 4-6.9 7.1-9.5 10.7-9.4 8.7-18.4 20.6-28.1 27.6 4.1-6.8 12.9-12.9 18.5-19.5zm464.7 323.7c-17.2-16.9-34.9-33.3-51.3-50.9 17.4 16.7 34.7 33.5 51.3 50.9zM602 439.6c-18.6-18-.6-6.9 5.6 1.6 11.5 11.6-1.4 4.9-5.6-1.6zm-68.2-53.8c-12.1 12.8-6.2-3.6 1.8-7.8 7.3-1.6.9 6-1.8 7.8zm103.8 256.8c2.4-3.4 14.1-11.8 10.8-5.7-6.5 4.4-11.1 11.2-16.1 16.7-3.2-3 4.2-9.1 5.3-11zM351 273.9c-1.3 1.9.1 5.2-2.4 5.7-4.5-.7-2.4 4.8-5.5 5.5-4.2-.3-2.8 4.5-5.5 5.6-2.4.4-4.1 1.4-4.1 4.2-3.2 1.9-5 3.7-6.9 7-.3-8.9 18.3-19 24.4-28zM245 399.2c18.4 15 36.8 36.9 55.2 54.2-18.8-17.6-36.9-36-55.2-54.2zm283.4-15.6c-10.5 5.4 3.9-10.2 6.7-12.9 9.5-1.7-4.7 9.9-6.7 12.9zm83.4 67.2c10.9-11.7-3.5 14.5-9 11.8-1.7-4.5 6.7-7.9 9-11.8zm0 12.7c-1.7 2.1-9 9.7-7.7 2.6 3.6-8.7 20.6-15.2 7.7-2.6zm-26.4-26.7c-12.9 11.6 2.8-14.1 8.1-11.1 1.4 3.7-6.3 7.9-8.1 11.1zm-308.3-83.6c-3.7 6.7-36.3 38.4-21.9 20.3 1-2.7 5.6-1.1 5.3-5.3.8-3 5.9-1.5 5.7-5.8.8-3 6-1.3 5.6-5.7.7-2.4 3.7-1 5.3-3.5zm288.3 63.4c12.8-11.8 5.1 3.8-2.1 8-6.7 1.7-.2-6.5 2.1-8zm-317.6-39c8-6.9 19.6-25.7 27.8-25.2-5.9 2.2-3.6 3.4-7.1 6.8-4.8-.9-2.5 4.5-5.3 5.5-4.8-.7-2.9 4.8-5.7 5.8-5 .8-3.7 6-9.7 7.1zm321.6 32.7c-1.8 2.3-6.7 9.3-10.1 8.9-2.9-6.1 21.6-22.7 10.1-8.9zm-33.9-23.1c12.6-12.6 5.6 2.5-1.9 7.6-6.8 2.8-1.3-5.9 1.9-7.6zm8.8 3.4c-16.2 17.3-1.1-11.2 5.5-8.3 2.1 2.5-4.7 6.4-5.5 8.3zm34.8 40.4c1-3.6 10.9-8.9 6.4-1.3-4.8 8.1-18.5 13.1-6.4 1.3zm-92.5 77.7c7.2-6.3 3.5-5-.6-8.7 4.4-.4 6.9.7 5.3-5.6 13.5-1 .9 11.4-4.7 14.3zM327.7 303.5c2.1-1.7 1.4-4.4 3.2-5.4 4.6.6 2.9-4.4 5.7-5.6 4 .2 3.2-4 5.3-5.5 2.9-.1 4.3-1.5 4.4-4.4 19.8-16.7-11.2 15.9-18.6 20.9zm171.6 399c-2.6 2.5-7 8.9-9.2 2.8 1.7-1.1 5.2 1.3 4.4-2.8-.3-5.3 8.4-3.4 7.5-7.7 5.2-3.6.8 6.4-2.7 7.7zM227 402.9c-1.8 1.5-10.6 12.8-9.7 6.6 7.1-9 27.5-25.3 9.7-6.6zm286.7 123.6c5.9 5.6 9.1 7.4-.8 6.8.7-2 1.8-6.4-2.4-4.8-3.9 3.3 1-8.4-4.8-4.2-4.3-1 3.3-6.3 8 2.2zm-248.4-85.2c1.8-1.7 11.4-13 9.5-6.4-7 8.7-27.3 25-9.5 6.4zm68.4 68.1c-18.3 17.7-2.4-2.4 6.3-9.4 6.7-2.1-4.6 7.5-6.3 9.4zm-39.6-39.5c-18.3 17.9-2.7-2.1 6.2-9.3 6.8-2.7-4.4 7.5-6.2 9.3zm84.7-222.5c16.1-17.7-2.3 9.5-10 11.8-.1-4.3 7.3-7.9 10-11.8zm302.6 276.4c-1.6 1.8-9.5 9.7-7.1 2.7 4.4-6.8 20.6-16.9 7.1-2.7zM483.8 355.3c17.9-17.4 2.4 2.2-6.4 9.4-6.3 1.8 4.8-7.6 6.4-9.4zm-38.1-37.7c-1.7 1.5-10.8 12.6-9.3 6.5 6.9-8.6 26.8-24.8 9.3-6.5zm-31.2-23.5c-13.2 13.5 5.8-12.9 12-13.5-.9 4.9-8.7 9-12 13.5zm3.6 298.6c6.7 5.5 50.6 49.4 51.4 51.6-17.3-17.4-34.4-34.5-51.4-51.6zM319.2 277c-1.3-5.3 1.4-11.2-3.8-16-1-.6 1.3-3.2 1.9-2.4 3.7 1.1 1.2 3.1 1.4 5.8 6.2.5 4 8.3.5 12.6zM500 703.5c9.9-12.4 10 1 .2 1 .9 9.3-12.6 8.2-.2-1zm66.6-271.4c-3.3-1.1-5.8-8.5-.3-6 6.8 3.7 9.4 15.5.3 6zm-93.9 135.5c-5.5-6.2-9-6.1.4-6.8.2 2-1.3 7.8 3.5 4.9 2.8-1.5-1.7 7.9 4.4 4.4.4-.4 1.3-.5 1.1.5-2.6 6-6.7-.5-9.4-3zm4.5-36.2c5.2-5 6.7-9.3 6.7.3-4.5-.7-6.3-.7-4.8 4.7-3.9-1.7-6.1.3-4 4.1-7-1-.8-6.6 2.1-9.1zm-134.6-36c-12.6-11.4-27.6-26.5-39-39.2 13 13.1 26 26.2 39 39.2zm166.2 68c-6 5-6.5 9.8-6.8-.2 1.5-1.7 2.4 2 3.9.5 1.1-1 2.5-2.1 1-3.8-2.2-3 8.5 1.4 4.1-4.9-.8-2.6 2.8.3 3.2 1.4.5 2.9-3.9 4.7-5.4 7zm55.9-126.6c-15.9-14.6-34.5-33.2-49-49.2 16.3 16.4 32.7 32.8 49 49.2zm-154.4 148c-15.2-14.8-30.6-29.5-45-45.1 15 15 30 30.1 45 45.1zm75.6 109.6c-3.5-3.3 1.7-9.1 5.4-5.7 4 3.7-1.7 9.3-5.4 5.7zM384.3 512.6c17-16.5 34.3-37.1 51.3-51.4-17.1 17.2-34.2 34.3-51.3 51.4zm-43.1-15.9c-11.8-10.8-25.9-24.9-36.6-36.8 12.1 12.3 24.3 24.5 36.6 36.8zm217.9-102.6c1.7 1.8 11.3 9.6 4.1 7.8-2.9-5.5-8.6-7.6-11.3-12.7-.8-4.8 5.6 3.8 7.2 4.9zm-221.6-174c1-1.6 9.3-10.3 7.3-4.4-5.4 7.2-20.8 18.5-7.3 4.4zm188.9 141.8c6.1 2.7 9.2 12.5.5 3.8-.6-5.2-10.5-5.2-7.8-10.6 2.7 1.2 4.8 4.8 7.3 6.8zm-330.1.4c14-13.9 3.2 2.1-4.6 7.3-5.4 2.8 2.8-6 4.6-7.3zm242.5 95.4c14-16 33.2-33 49-49.2-16.3 16.4-32.7 32.8-49 49.2zM588.6 488c-17.9 18.2-35.4 36.6-53.6 54.4 18-18 35.2-36.8 53.6-54.4zM386 575.7c-14.8-16-34.2-32.1-46.7-48.1 15.2 16.4 31 32.2 46.7 48.1zm117.2-213.6c3.5-4.2 7.2-6.3 7.1-11.5 12.5-11-1.9 11.3-7.1 11.5zm167.3 165.6c-18.2-17.5-37.9-37.3-55.3-55.5 18.4 18.5 36.8 37 55.3 55.5zM344.8 413c-1.9-1.2-8.4-8.6-2.8-5.8 6.2 4.5 13.9 16.9 2.8 5.8zm13 13.1c-1.5-1.2-8.4-7.9-3-6 5.8 4.1 14 16.7 3 6zm-170.2-49.3c7.5-1.9 20.4 3 29.7 3.3-7.5 2-20.4-3-29.7-3.3zm168.9-135.7c-3-6.9-5.5-22.4-4.9-29.9 1.7 10 3.3 20 4.9 29.9zm-83.9 187.7c-9.4-8.9-19.9-19.4-28.8-28.9 9.6 9.7 19.2 19.3 28.8 28.9zm209.5 268.9c-1.3-1.2-7.6-6.4-2.6-5.6 5.9 3.3 12.4 15.6 2.6 5.6zM400.7 383c-10.8-11 1.6-2.7 6 3.1 2 5.2-4.9-1.6-6-3.1zm111 219.4c3.9 0 8.1.5 6.1-5.7 6.5 7 .6 12.2-6.1 5.7zM330.5 398.8c-1.5-.9-7.2-7.2-2.4-5.3 5.5 3.7 12.1 14.8 2.4 5.3zm-142-20.3c5.9 2.4 10.9 10.5 16.1 15.2-5.4-2.6-10.7-10.7-16.1-15.2zm200.6-9.6c1.5.7 8.4 8 3.1 5.6-5.6-4.2-13.8-16.1-3.1-5.6zm129.6 264.2c-4.6-5.4 3.5-4.8 5.6-.7-.6 2.7-3.1 3.7-5.6.7zM383.6 448.9c1.1 1.2 7.9 6.8 3.5 5.9-5.5-3.7-14.2-16.1-3.5-5.9zm133.8 142.8c2.6 3.3 11.5 7.4 4.4 11.1.5-4.5-4.2-6.6-4.4-11.1zm73.2-129.2c-7-6.2-16.1-15.3-22.4-22.4 7.5 7.4 14.9 14.9 22.4 22.4zm-252.1-42.7c-1.4-.9-8.1-7.8-3.3-5.5 5.6 4.2 14 15.9 3.3 5.5zm-39.3-.9c1-2 16.4-17.6 18-18.1-6 6.1-12 12.1-18 18.1zm270.6 31c-3.9.9-8.7-3.8-8.4-8.4l8.4 8.4zm-140.4-36.7c-10.7-9.4-24-22.7-33.3-33.4 11.1 11.2 22.2 22.3 33.3 33.4zM247.3 276c4.4 3.1 7 1 4-3.6 8.6 5.3.4 12.7-4 3.6zm259.3 325.6c4 1.4 8.8 4.2 11.2 6.2-3.8 5-7.7-3.9-11.2-6.2zm-81-194.2c-1.3-.9-7.5-7.1-3-5.4 5.4 4 13.2 15.3 3 5.4zm-49.5 49.4c-1.4-.9-7.6-7.4-2.8-5.1 5.4 4.1 12.9 15.1 2.8 5.1zm177-8.1c3.7 1.4 12.2 9.6 13.3 13.3-4.5-4.4-8.9-8.8-13.3-13.3zm-174.9-95.2c1.1.6 8.3 7.4 4.1 5.9-5.8-4.5-15.6-17.1-4.1-5.9zm-9.1 83.9c-8.3-8.5 1.7-2.9 4.8 1.9 1.5 4.5-3.8-.5-4.8-1.9zm5.8-82.6c1.2.9 7.1 6.6 2.8 5.2-5.1-3.6-12.3-14.5-2.8-5.2zm138.5 128.8c8.8-8.4-5.3-6.5 8.4-8.9 2.5-1.7-2.4-4 .2-4.8 5.3 4.3-6.4 9.8-8.6 13.7zM294.3 227.9c9.1 3.7 2.2 12.5-2.7 3.6 3.8 3.4 6-.8 2.7-3.6zm-90.3 91c3.8 3 6.8.2 3.5-3.5 8.5 5 1.1 12.3-3.5 3.5zm310.5 153.9c-2.3-2.9-3.4-.2-4.8 1-5.3-7.2 2.9-8.1 4.8-1zm-25.1 207.8c2.1 2.3 11.7 9 8.3 10-2.6-2.9-7.7-4.5-8.3-10zM325.2 404.1c1.3 1.6 4.4 3.3 4.6 5.3-5.3.2-15-16.2-4.6-5.3zm103.4 68.4c1.2-3.9 5-9.7 8.7-10.1-.6 3.9-6.2 6.6-8.7 10.1zM194.8 336.1c4.6 5.2 11.1 9.9 14.3 15.6-4.3-4-11.1-10.3-14.3-15.6zM490.9 666c-.8 2.7-11.8 13.2-13.3 13.4 4.5-4.5 8.9-8.9 13.3-13.4zM192.3 334c1.6-3.3 8.6-10.3 11.9-11.9-4 3.9-8 7.9-11.9 11.9zm235.9 71.1c-1.1-1.1-7.6-6.9-3.5-5.5 5.2 3.8 13.7 15.3 3.5 5.5zm-76.8 27c-1-.2-7.8-6.6-3.9-5.7 5.2 4.3 14.7 16.3 3.9 5.7zM324 396c3.2 1.6 9.8 8.2 11.3 11.4-3.7-3.8-7.5-7.6-11.3-11.4zm72.4-23.7c-3.6-1.9-9.2-7.2-10.9-10.7 3.7 1.5 8.7 7.2 10.9 10.7zm176.4 56.1c1.6-3.2 8.1-9.7 11.3-11.3l-11.3 11.3zM297.5 227.8c3.4-4 7.9-11.8 12.3-12.3l-12.3 12.3zm36 181.5c-3.7-2.7-9.4-7.6-11.3-11.4 3.8 2.5 9.1 7.4 11.3 11.4zm43.9-68.4c4.4-5.4 11.8-13.2 18.2-18.3-6 6.1-12.1 12.2-18.2 18.3zm31.3 34c1.2 1 7.7 7.3 3.7 5.5-5.5-4.1-14.4-15.8-3.7-5.5zM348.9 420c-3-1.4-9.6-7.9-10.9-11 3.6 3.7 7.2 7.3 10.9 11zm149.7 171.9c3.2 2.6-11.3 17.4-13.3 13.3 5-1.4 12-8 13.3-13.3zM222.4 318.7c-4.9-3.9 1-5.9 3.3-1.3 1.9 3.2-1.9 4.1-3.3 1.3zm352.9 112c.8-3.2 8.2-10.3 11.2-11.3-3.7 3.7-7.5 7.5-11.2 11.3zm-350.2-48.5c4.1-1.8 12 1.7 17.3 1.8-3.6 2.4-12.1-1.3-17.3-1.8zm336.3 214.1c4.9 5.9 10.5 11.2 15.8 16.8-3.2-2-15.1-14.6-15.8-16.8zM413.6 393c1.6.7 6 6.5 1.8 4.2-4.6-3.2-9.7-12-1.8-4.2zm-12.2-24.8c-2.4-.4-10.9-8.9-11.4-11.3 4.2 3.5 8 6.8 11.4 11.3zM374 346.3c3.1 1 10.8 8.2 11.3 11.4-3.7-3.8-7.5-7.6-11.3-11.4zm-37.9 64.6c2.9 3.8 9 7.3 10.4 11.4-3.6-2.7-9.3-6.8-10.4-11.4zm12.1 13.2c4.2 2.4 8.7 7.2 11.4 10.9-4.3-1.5-8.1-6.9-11.4-10.9zm55.3-43.7c-1-.9-7.6-6.8-3.7-5.4 5.2 4.2 14.3 15.6 3.7 5.4zm-16.4-21c2.7.8 11 9.3 11.2 11.5-3.7-3.9-7.6-7.1-11.2-11.5zm-97.4-109c2.5 1.3 2.1 7.1-.8 3.7-3.9-1.8-3.4-8.1.8-3.7zm67.2-1.1c2.4 2.2 4.5 14.1 3 17.1-1-5.8-2-11.4-3-17.1zm43.4 123.3c2.8 1.1 10 7.9 10.5 10.7-3.4-3.5-7.4-6.7-10.5-10.7zm65.5 309c2.3-.1 3.1 5.3 6.5 2.6 2-1.1 3.9 4.5 2.5 5.4-3.5-1.1-6-5.7-9-8zM228.5 312.7c3.6 1.8.3 5.3-1.8 2.7-4-2.1-1.3-7.1 1.8-2.7zm158.1 144.5c-2.6-.7-10.4-8.7-10.6-10.7 3.5 3.6 6.9 7 10.6 10.7zm35-60c-2.8-1.1-9.1-7.5-10.2-10.2l10.2 10.2zm-48.2 51.9c2.8 0 9.3 7.3 10.6 10.3-3.8-1.4-7.7-6.8-10.6-10.3zm182.9 142.1c2.4.9 3.8 5.6-.1 3.2-4.3-2.9-5.6-9.3.1-3.2zM438.1 404.8c-2.7-1-8.9-7.3-9.9-9.9l9.9 9.9zm-87.5 17.7c3.2.7 8.9 7.3 10.8 10.5-3.7-1.9-7.8-7-10.8-10.5zm247.3 47.1c7.2 7.3 14.5 14.5 21.7 21.8-7.6-6.8-15-14-21.7-21.8zm-61.3 146.2c-1.5-1-3.7-4.8-.2-3.9 3.6 1.7 4.6 9.1.2 3.9z"/><path d="M449 487.9c-4.3-4.2-5.8-4.9-10-2-4.8.2-8.4-1-12.3-1.7-16.6 7.8-4.3 14.9-9.6 26.3 9.3 16.8 13.9 3.8 27.3 9.2 11-5.2 8.2-12.8 6.5-22.1 3.5-3.8 2.3-5.3-1.9-9.7zm-26.8 2c7.1-4.8 23.4-5.7 28.1 3.1-1.9 8.4 4.8 20-6.7 24.6-7.4-2.8-23.5 4.1-24.3-8.7 3.4-5.6-3.7-14.5 2.9-19zM260.5 281.8c-2.7 3-10.6 8.3-3.9 11.3-1.5 11.7-3.6 31.4 16.6 29.9 49.9-12.5 27.3-65.6-12.7-41.2zm-3.7 19.8c1.2-9.5 4.4.4 8.9-3.5 16.4-11.2 6.7-18 13.9-19.9 32.6-6.3 21.6 39.8-2.3 42.9-13.5 6-28.7-15-17.1-16.4 2.7-2.3-.6-5.3-3.4-3.1zm11.9-11.4c-13.1 11.9-2.8-1.6 3.1-7.3 5.9-2.6-.9 6-3.1 7.3zm-5.2-5.3c-12.5 11.7-2.2-1.2 4.1-6.4 4.7-1.2-3 5-4.1 6.4zM557.6 678c-10.8 8.4 8.1 13.2 5.2 1.4-2.8-5-.2-14.3-8.6-14.6-4.6-4.2-7.2-4.3-10.3 2.4 5.1 4.3 4.3 12.4 13.7 10.8zm-2.5-3.6c-1.1-.9-5.4-5.9-1.8-5.2 5.5 1.6 9.9 12.7 1.8 5.2zM654.2 578.9c1.3-9.4-6.5-8.1-10.7-13.5-5.9 3-7.6 5.8-2.5 10.3 0 8.4 9.5 6 14.4 8.6 11.7 3.2 7.1-16.1-1.2-5.4zm-6.1-.4c-8-9.1 5.5-2.4 5.2 3-2 .8-3.6-1.9-5.2-3zM604.9 515c-4.7 4.6.8 10.5 5.5 5.9 4.5-4.4-.8-10.8-5.5-5.9zM555.8 563.3c7.6 6.6 6.1-3.7.1-5.7-4.6-1.2-2 4-.1 5.7zM550.4 538.9c3 3.3 8.2-1.7 5-4.8-2.9-3.2-8.3 1.6-5 4.8zM561.9 522.5c-3.2 3.1 2.2 8 5.1 4.7 2.8-3.3-1.9-8.2-5.1-4.7zM540.2 549.3c2.9 3.3 8-1.7 5-4.7-3-3.3-8.3 1.6-5 4.7zM523.1 566.7c-3.1-3.3-7.7 2-4.7 4.9 3.3 3.1 8-1.7 4.7-4.9zM530 555.1c-3.7 3 1.6 8 4.6 4.8 3.3-2.6-1.7-8.3-4.6-4.8zM350.8 455.4c16.8 6.6-31.3-34.4-36.2-41-3.4 10.6 29.3 27.4 36.2 41zm.1-2.7c-10.9-10.5-22.8-22.5-33.3-33.4 11.1 11.1 22.2 22.2 33.3 33.4zM432 375c-15-10.5-26.6-31.3-41.7-38.4 1.5 5.4 49.5 54.6 41.7 38.4zM309 333c-10.7 16.4-43.7 31.6-41.8 50.3 10.2 6 20.9 31.1 32.9 24.1 23.1-23.3 46.3-46.7 69.9-69.6 28-17.6 4.8-30.7-11.4-47-18.6.6-33.1 32.6-49.6 42.2zm5.9 26.5c-2.2-2.5-16.8-15.1-10.9-13 7.5 8.7 19.2 16.7 24.6 25.8-4.9-2.1-9.1-9-13.7-12.8zm22.3-16.7c3.1 3 9.6 7.7 10.9 11.7-9.1-5.7-17.4-17.3-26.2-25-3.2-6.6 12.2 10.5 15.3 13.3zM298.5 376c28.9 29.3-2.6.2-14.1-12.2 1.2-3.5 10.6 9.9 14.1 12.2zm39.9-67.6c2.8.8 27.9 26.2 28 28.1-9.3-9.3-18.5-18.5-28-28.1zm8.8 48.7c-3.3 5.3-10 11.7-15.1 15.3 2.7-5.4 10.1-11.6 15.1-15.3zm-30-29.7c-3.4 4.5-10.2 11.4-14.7 14.8 4.9-5 9.8-9.9 14.7-14.8zM457.8 611.9c-4.9-5.2-11.3-5.3-7 2.2 2 7.4 15.4 6.2 7-2.2zm-1.4 4.2c-.9-1.6-8.5-6.6-4.5-6.7 4.9-.6 10.6 13.2 4.5 6.7zM470.2 454.7c-3.4 3.4 1.9 8.6 5.2 5.2 3.4-3.4-1.8-8.6-5.2-5.2zM605.8 613.1c7.7 6.6 5.7-4.2-.2-5.9-4.5-.7-1.5 4.4.2 5.9zM238.8 427.2c3.4 3.7 8.9-2 5.3-5.5-3.5-3.8-9.4 1.8-5.3 5.5zM396.8 262.2c-3.4 3.4 2.4 9.3 5.7 5.5 3.4-3.4-2.3-9.5-5.7-5.5zM306.5 488.5c-3.8 3.6 2 9 5.5 5.5 3.3-3.6-2-9.2-5.5-5.5zm3.4 2.2c.9 1.1-.8 2.2-1.6 1.2-.9-1 .9-2.2 1.6-1.2zM470.1 329.9c-3.8-3.8-9.3 1.2-5.8 5.3 3.3 3.5 9.1-1.6 5.8-5.3zM355.3 409.5c12.4 7.6 23.9 35 38.8 30.1 5.6-9.6 29.6-19.2 21.1-31.1-11.3-9.4-55.7-65.6-56.9-34.6-7 8.2-8.4 8.3-16.9 9.5-3.9 9.3 6 21 13.9 26.1zm10.2 8.6c-22-22.4-31.3-17.9-6.3-43.3 9.3-.2 5.1-4.7 9.4-7.7 17.2 9.7 30.3 29.1 45.6 42.4 6.6 10.8-15.4 19.9-20.5 28.8-10.6 6.3-19.4-15.1-28.2-20.2zM163.4 375.2c-15.9-15.5-2.7 1.5 5.2 8.2 7.1 3.7-3.2-6.5-5.2-8.2zM351.3 186c-16.4-15.9-2.2 2.4 5.8 8.7 6 1.6-4.4-7-5.8-8.7zM581.7 580.7c-4.1 3.6-2.1 11.8 4.1 9.9 11.6-2.9 5.5-19.8-4.1-9.9zm7.1 6.9c-6.8 4.9-4.7-7.5.7-4.2 1.3 1.4 0 2.8-.7 4.2zM473.8 367.2c-36.1-29.6-76.9-84.8-109-103.4 32.4 35.2 73.4 68.7 104.4 105.8.1 3.8 10.6 2.6 4.6-2.4zm-45.6-42.4c-17.8-17-37.6-36.8-54.5-54.7 18.2 18.2 36.4 36.4 54.5 54.7zm42.4 41.9c-12.6-11.6-27.2-26.3-38.9-39 13 13 25.9 26 38.9 39z"/><path d="M285.1 307.1c-2.5.9-5.9 8.6-2.3 8.4 3.1-3.5 2.9-9.2 9.2-9.4 7-4.3-5.8-3.6-6.9 1zM398.3 422.8c-3.6 3.4 1.6 9.1 5.3 5.3 3.5-3.3-1.9-8.8-5.3-5.3z"/><path fill="none" d="m333.517 164.516 70.71-70.71 424.26 424.26-70.71 70.71z"/><path d="M479.3 247.8c-3.7 5.5-2.4 10.6 2.6 15.6 4.7 4.7 8.4 5.2 11.5 2.1 3.5-3.5 2.4-7.1-3.9-17.4-11.8-19.3-9.2-28-2.1-35.1 8.8-8.8 22.7-9.7 37.3 4.9 15.2 15.2 13.7 29.2 6.2 38.2L516 241.2c2.4-3.2 3.8-7.5-1.6-13-3.5-3.5-7-4.4-9.9-1.5-2.9 2.8-2 5.9 4.1 16 12.2 20.3 9.5 29.3 2.1 36.8-9.9 9.9-24.4 9.1-39.8-6.3-14.5-14.5-15.5-29-6.5-40.3l14.9 14.9zM569.5 264.6 537.2 297c-7.5 7.5-6.4 13.8-1.7 18.5 5.1 5.1 11.1 4.9 18.1-2.1l32.3-32.3 15.5 15.5-30.8 30.8c-17.5 17.5-33.1 12.5-46.5-1-13.9-13.9-17.9-29.2-.8-46.3l30.9-30.9 15.3 15.4zM563.8 364.1l35.3-35.3c-2.8-1.7-6.4-4.8-8.3-6.7l9.7-9.7c5.9 4.5 12.7 6.1 18.3 5.9l10.5 10.5-50.4 50.4-15.1-15.1zM587.9 388.2l1.3-1.3c10.4-10.4 21.9-12.3 38.2-9.6 12.5 2.1 16 2.4 19.7-1.4 3.5-3.5 3.9-6.9.7-10.1-3.9-3.9-7.7-2.5-12.2 1.2l-13.7-13.7c8.4-7.4 22-11.8 36.7 2.9 14.2 14.2 11.4 26.8 3.3 34.9-6.8 6.8-13.4 7.8-28.8 4.6-8.8-1.7-13.5-1.8-16.2-.9l22.2 22.2-12.8 9.3-38.4-38.1zM633.9 434.2l1.3-1.3c10.4-10.4 21.9-12.3 38.2-9.6 12.5 2.1 16 2.4 19.7-1.4 3.5-3.5 3.9-6.9.7-10.1-3.9-3.9-7.7-2.5-12.2 1.2l-13.7-13.7c8.4-7.4 22-11.8 36.7 2.9 14.2 14.2 11.4 26.8 3.3 34.9-6.8 6.8-13.4 7.8-28.8 4.6-8.8-1.7-13.5-1.8-16.2-.9l22.2 22.2-12.8 9.3-38.4-38.1z"/><path fill="none" d="M.3.4h1000v1000H.3z"/><path fill="none" d="M100 599.9h400.2v300H100z"/><path d="M135.1 899.9V793.6c-6.6 3.1-18.6 5.6-25.7 6.2v-23.1c13.5-2.5 27.1-10.1 35.2-19.1h21.8v142.3h-31.3zM195.4 899.9v-2c0-24.7 11.1-44.9 41.9-67.3 20.1-14.7 26.1-19.7 26.1-32.1 0-12.3-6-19.2-17.9-19.2-13.9 0-18.9 8.5-20.9 20.9h-29.8c2-24.5 18.1-45 50.7-45 36.5 0 49 21.7 49 43 0 20.7-8.9 30.7-35.1 49.1-17.5 12.3-24.6 20.4-27 26.8h67.3l-3.8 25.8H195.4zM318.1 899.9v-2c0-24.7 11.1-44.9 41.9-67.3 20.1-14.7 26.1-19.7 26.1-32.1 0-12.3-6-19.2-17.9-19.2-13.9 0-18.9 8.5-20.9 20.9h-29.8c2-24.5 18.1-45 50.7-45 36.5 0 49 21.7 49 43 0 20.7-8.9 30.7-35.1 49.1-17.5 12.3-24.6 20.4-27 26.8h67.3l-3.8 25.8H318.1z"/><path fill="none" d="M600.4 100.3h300v300h-300z"/><path d="M722.3 257.9V151.6c-6.6 3.1-18.6 5.6-25.7 6.2v-23.1c13.5-2.5 27.1-10.1 35.2-19.1h21.8v142.3h-31.3zM891.1 186c0 39.1-12.4 74.5-54.6 74.5-41.7 0-54.6-34.3-54.6-73.7 0-39 14.3-73.7 55.2-73.7 39.7.1 54 32.5 54 72.9zm-77.3.5c0 26.1 3 49.4 23.1 49.4 19.6 0 22.2-21.7 22.2-49.7 0-27.6-3.3-48.3-21.9-48.3-18.2-.1-23.4 17.8-23.4 48.6z"/><path fill="none" stroke="#000" stroke-miterlimit="10" stroke-width="9" d="M112.3 739.9h311.5"/><path fill="none" d="M100.2 99.9h199.7V300H100.2z"/><path d="m210.4 150.9-3.7 32.7 23.8-20.9 11.6 19-31.5 12.6 31.3 12.6-11.4 19-23.8-21.2 3.8 32.9h-20.9l3.7-32.8-23.6 21-11.4-19 31.1-12.8-31.3-12.4 11.6-19.3 23.4 21.3-3.5-32.7h20.8z"/></svg>