<svg xmlns="http://www.w3.org/2000/svg" xml:space="preserve" baseProfile="tiny" overflow="visible" version="1.2" viewBox="0 0 1000 1000"><path d="M441.4 659.6c11.8 11.8 23.6 23.7 35.4 35.5 22.9 22.8 45.8 45.6 68.7 68.5 3.2 3.2 3.9 3.1 7.5.3 4.4-3.5 7.6-8.1 11.7-11.9 4.1-3.8 7.9-7.9 11.9-11.8l9.3-9.3c2.4-2.4 2.4-2.5.1-4.8-5.4-5.4-10.8-10.8-16.2-16.1-2.4-2.4-2.4-2.5-.1-4.8 13.3-13.6 26.7-27.2 40-40.8 4-4.1 8-8.2 11.8-12.5 1.3-1.4 2.2-1.3 3.4 0 .8 1 1.9 1.7 2.3 3.1.1.4.5.9.8 1.2 5.9 3.5 9.8 9.1 14.7 13.7 1.8 1.6 2.8 1.6 4.3-.1 1.3-1.5 2.4-3.9 4.2-4.1 1.9-.1 2.9 2.5 4.3 3.9 11.6 11.4 23.2 23 34.7 34.5 1.7 1.7 3.5 3.4 5.1 5.1 1.2 1.3 2.3 1.5 3.6.1 2.6-2.8 5.3-5.5 8-8.2 1.5-1.5.4-2.4-.6-3.4-8.8-8.8-17.6-17.7-26.5-26.5-5.2-5.2-10.4-10.5-15.7-15.6-1.4-1.4-1.5-2.4 0-3.8 4.2-4.1 3.9-3.5-.2-7.6-3.1-3.1-6.3-6.1-9.3-9.3-2.1-2.3-4-4.8-6.6-6.6-1.6-1.1-1.5-2.2-.1-3.7 7.6-7.5 15.1-15.1 22.6-22.8 3.6-3.7 7.2-7.5 10.7-11.3 1.4-1.5 2.3-1.4 3.8 0 5.9 5.8 11.5 11.9 17.7 17.3 1.4 1.2 2.1 1.2 3.3-.1 5-5.1 10-10.2 15.1-15.2 4.4-4.4 8.8-8.9 13.6-12.8 2.1-1.8 3.7-3.8 5.5-5.8 2.1-2.2 2-3.4-.1-5.6-8.4-8.4-16.6-17.1-25.3-25.2-10.4-9.6-19.9-19.9-30.1-29.7-23.1-22.1-45.3-45.2-68.1-67.5-28.2-27.6-55.8-55.8-83.9-83.5-17-16.8-33.8-33.8-51-50.4-1.9-1.9-2.4-4.5-4.5-6.2-18-14.1-32.8-31.6-49.3-47.3-1.6-1.5-1.7-3.8-3.5-5.1-2.2-1.6-4.6-2.9-6.6-5-8.5-8.7-17.4-17.2-26-25.9-9.8-9.8-19.5-19.6-29.1-29.7-5.5-5.7-11-11.3-16.8-16.7-2.1-2-4.2-1.9-6.2.1-7.5 7.5-15 15.1-22.4 22.6-3.3 3.3-6.5 6.7-9.8 10.1-1.2 1.2-1.9 2.3-.3 3.8 1.4 1.3.4 2.5-1 2.4-2-.1-3 .9-4.1 2.2-2.3 2.6-5.6 4.4-6 8.3 0 .4-.5.6-.9.7-3.1 1-4.8 3.1-6.1 6.2-.9 2.3-3.3 4.1-5.2 6-9.6 9.8-19.2 19.4-28.7 29.3-2.1 2.2-4.8 3.4-7.1 5.3s-2.5 4.9-4.6 6.9c-8.3 7.8-16.3 15.9-24.5 23.9-2.5 2.5-5 5.1-7.6 7.6-1.3 1.2-2.2 2.9-4.6 2.6-1.4-.2-4.8 3.8-4.7 5.4 0 1.1-.4 1.1-1.2 1.3-4.6.9-6.8 4.9-9.7 8-.5.6-.2 1.9-.3 2.8-.1.6-.1 1.4-.9 1.6-.6.1-1.1-.2-1.4-.7-1.4-1.9-2.7-1.6-4.3.1-6.2 6.6-12.8 12.9-19 19.5-4 4.3-8.5 8.2-12.6 12.5-3.4 3.6-3.4 5.5.1 9 13.1 12.9 26.2 25.8 39.3 38.8 8.5 8.4 16.8 16.9 25.3 25.3 27.1 27 54 54.1 81.3 80.8 26.3 25.8 52.1 52.1 78.4 78 6.7 6.6 13.4 13.1 20 19.7 14.6 14.6 29.2 29.3 43.8 44 .4-.4.5-.5.5-.6zm70.2-288.5c1.3.5 2.2 1.4 3 2.4 1.4 1.8 2.6 1.5 3.9-.1 1-1.2 2.2-2.2 3.2-3.3 1.3-1.6 2.5-1.9 3.9-.1 1 1.3 2.2 2.2 3.8.6.7-.6 1.3-.2 2 .2.6.4.6.9.2 1.4-3.2 4-6.4 7.9-10.1 11.4-.7.6-1.3.5-1.9-.1-.5-.6-1.6-1.2-.9-2 2.5-2.9-.5-3.9-1.7-5.4-.6-.7-1.4-.9-2.1-.2-1.6 1.6-2.5.1-3.6-.8-1.3-1.1-.9-2 0-3.1.1 0 .2-.5.3-.9l-2.4-2.4c-1.2-1.3-2.4-2.6-4.2-.8-.5.5-1.1.2-1.5-.3-.4-.5-.4-1.1-.1-1.6 3-4.5 6.4-8.5 11.5-10.6.6-.2 1.1.2 1.5.6.4.4.5 1 .2 1.3-2.3 1.8-.4 2.9.8 4 1.5 1.3 1.4 2.1 0 3.4-2.1 2-4.5 3.7-5.8 6.4zM354.7 510.7c-3.8-3.2-7.1-6.8-10.4-10.5.9.2 1.5 1 2.5.3 2-1.6-.8-3.4.3-5.1.3-.4-.5-1.1-1.2-1.3-.2 0-.5 0-.7.1-1.3.8-2.1-.1-2.9-.9-1-1-1.9-2-2.9-2.9l-33.7-33.7c-.7-.7-1.4-1.4-1-2.7.4-1.2-.6-2.3-1.7-1.9-1.7.5-2.4-.5-3.3-1.4-3.3-3.3-6.5-6.6-9.8-9.8-14.4-13.6-28.1-27.8-42.1-41.7-.7-.7-1.5-1.2-1-2.7.4-1.3-.7-2.6-2.1-2.1-1.3.4-1.8-.1-2.5-.8-1-1-2-1.9-2.9-2.9-1-1.1-2.1-1.6-3.2-.2-.6.8-1.4.8-1.9.3-2.1-2-4.1-4.1-6.7-6.7 5.1.8 9.5 1.6 13.9 2.3 1 .2 1.7.9 2.4 1.6 13.8 13.6 27.3 27.4 41.2 40.9 16.8 16.3 33.2 33 49.8 49.6l20.4 20.1c.7.7 1.4 1.2 1 2.4-1 3-1.1 6.4-1.5 9.7-1.2 8.8-2.3 17.7-3.5 26.8-.7-.5-1.2-.7-1.5-1.1-2.6-2.6-5-5.5-7.8-7.9-2-1.7-1.7-2.7 0-4.4 4.4-4.3 8.9-8.5 12.8-13.4zm132.7-.6c.1.2.2.3.4.5-1.6 1.6-3.2 3.2-4.7 4.8-9 9.1-18 18.2-27.1 27.2-4.7 4.6-5.7 12.9 0 18.2 7.4 6.8 14.6 13.9 21.6 21.1 1.1 1.1 1.3 1.9.1 3-1.8 1.7-3.6 3.5-5.3 5.4-2.5 2.8-2.4 5.2.1 8 .4.5.9.9 1.3 1.4.7.8.6 1.5-.2 2.3-2.4 2.3-4.7 4.6-7 7.1-1.5 1.6-2.7 2-4.2 0-.9-1.2-2-2.1-3.1-3.1-18.3-18.1-36.1-36.5-54.6-54.3-8.1-7.8-16-15.9-24-23.8-1-1-1.9-1.9-.4-3.4 21.8-21.8 43.4-43.6 64.9-65.7 10.8-11.1 21.9-21.9 32.9-32.8 7.4-7.4 14.7-14.9 22-22.4 1.4-1.4 2.3-1.5 3.8 0 6.8 6.8 13.6 13.7 20.6 20.3 6.7 6.2 13 12.9 19.5 19.4 4.2 4.2 4.2 4.3-.1 8.5-3.2 3.3-3.2 4.7-.1 8.2 3.8 4.2 8 8 12.1 11.9 2.7 2.5 5 2.5 7.5-.1 1.1-1.1 2.2-2.2 3.2-3.3.8-.9 1.7-.9 2.5 0 5.7 5.7 11.3 11.4 17 17 .6.6 1 1.4.2 2.1-3.8 3.8-7.6 7.6-11.6 11.7 1-7.8-.9-12-6.4-14.5-3.6-1.7-9.3-.7-11.8 2-3.8 4.2-4.4 8.8-1.8 13.7 2.5 4.5 7 6.1 14.6 4.6-11.8 11.8-23.3 23.3-34.9 35-.6-2.8-2.1-4.8-4.1-6.9-7.2-7.4-14.7-14.3-21.8-21.7-1.7-1.8-3.1-4-5.5-5-4.7-2-8.9-1.1-13 1.6 2.4-2.6 4.9-5 7.3-7.5 2.2-2.3 2.2-4.2.1-6.5-.5-.5-.8-1.3-1.4-1.7-1.8-1-.9-1.9.1-2.8l5.2-5.2c3.5-3.6 3.5-3.6 7.2-.2 2.3 2.1 3.9 2.2 6.1.1 3.1-2.9 6.1-6 9-9.1 1.6-1.6 1.6-3.5 0-5.2l-2.4-2.4c-.8-.9-1.6-1.8-1-3.2 1-2.6-.1-4.6-1.9-6.3-1.9-1.8-3.9-3.6-5.8-5.5-6.5-6.4-13-12.9-19.5-19.4-2.8-2.7-5.7-2.9-8.6-.3-3.4 3.1-6.5 6.5-9.8 9.8-4.1 4.2-8.1 8.6-12.4 12.6-5.3 5-10.5 10.1-15.5 15.4-3.1 3.2-2.9 6.5.3 9.7 2.2 2.2 4.4 4.2 6.6 6.4 6.3 6.2 12.6 12.5 19 18.8 1.4 1.4 3.2 2.3 5.1 1.5 2-.8 3.2-.1 4.4 1.3 1.5 1.4 3.1 2.3 5.3 1.7zM220.5 313.9c-1.2 1.4-2.1 2.6-.5 4.1 2.7 2.5 5.2 5 5.8 9.1.3 1.9.7 3.2-.8 4.4-1.3 1.1-1 1.8.1 2.9 3.1 3 6 6.1 8.9 9.3 1.7 1.8 3.6 3.5 5.9 4.6 5.3 2.6 12.3 1.1 16.2-3.4 4.1-4.8 4.7-11.7 1.2-16.7-3.6-5.1-8.4-8.9-12.7-13.4-1-1-1.9-.6-2.8.2-.7.6-1.4 1.6-2.5 1.3-3.9-1.5-8.7-1.3-11.3-5.6-1.2-2.1-2.6-2-4.1-.1-.3.4-1.1 1.7-1.8.4-.7-1.5-1.9-1.5-3-1.7l9-9c.6 1.3.8 2.7 2.5 2.4 1.2-.2 2.1-.9 2.3-2.2.3-2-1.5-1.8-2.8-2.4 3.6-2.5 6-5.9 9.4-8.7.2 1.6.7 2.5 2.3 2.5 1.2 0 1.8-.8 2.1-1.7.5-1.4.1-2.4-1.5-2.6-.5-.1-.5-.6-.2-.9 1.8-1.8 3.5-3.8 5.6-5.4 1.3-1 2.7.6 4 1 3.3.9 6.3-1.5 4.8-4.6-2-4.1-.1-6.2 2.5-8.6.9-.8 1.7-1.7 2.9-2.9-.1 2.1.5 3.4 2.4 3.1 1.4-.2 2.1-1.2 2-2.6-.1-1.9-1.5-2-3.3-1.7l8.2-8.2c.5-.5 1.1-1.7 2-.1.9 1.5 2.2 1.6 3.4.3 1.1-1.2 1.4-2.5-.1-3.5-1.1-.7-.8-1.2-.1-1.8 1.8-1.8 3.9-3.5 5.4-5.6 1.9-2.5 2.7-.1 3.8.7 1.6 1.1-.2 1.6-.6 2.1-1.1 1.2-1.3 2.2 0 3.3 3 2.6 5.5 5.5 6.1 9.8.3 1.7.9 3.1-.7 4.3-1.2.9-1.1 2 0 3.1 4 3.9 7.8 8.1 11.9 11.9 5.1 4.8 13.4 4.5 18.6-.4 5-4.7 5.7-12.9 1.5-18.4-3.6-4.8-8.3-8.6-12.4-13-1-1-1.9-.9-2.9.1-.7.7-1.4 1.7-2.4 1.2-3.3-1.7-8-.8-10.2-5-.5-1-1.7-1.8-2.7-2.3-1.3-.7-1.9 1.2-3.2 1.5.5-1.9-.7-2.7-2.5-3.2 1.1-1.1 2-1.8 2.6-2.7 2-2.6 4.2-3.9 7.4-2.1 1.4.7 2.5.2 3.7-.8 2.1-1.9.8-3.6.1-5.3-.7-1.7-.5-2.8.8-4.1 2.3-2.2 4.5-4.4 6.7-6.7 1.4-1.6 2.5-1.5 4 0 4.2 4.4 8.5 8.6 12.9 12.9 2.3 2.3 3.1 2.3 5.4-.1 6.1-6.1 12.1-12.2 18.1-18.3.5-.5.9-1.4 1.7-1.1.7.3.5 1.1.6 1.7 1.4 8.6 3.1 17.2 4.1 25.9.3 2.7.8 5.2 1.4 7.8 1.3 5.6 2 11.3 3 17 .4 2.3-.9 4.8-3.2 6-2 1-2.4-1.3-3.6-2-.3-.1-.5-.4-.7-.6-.5-.4-1.1-.8-1.8-.3-.7.6-.6 1.4-.1 1.9 1.2 1.2.6 2.1-.3 3.1-.8.8-1.5 1.7-2.3 2.5l-22 22.3c-.7.7-1.9 1.4-1.1 2.6 1.1 1.5.3 2.3-.7 3.3-5.5 5.3-11.1 10.6-16.6 16-9.3 9.2-18.5 18.4-27.7 27.6-.6.6-1.3 1.9-2.4 1.2-1.8-1.2-2.8-.1-3.9 1-7.9 8-15.9 16-23.8 24-1 1-2 2-3.4.5-.5-.6-1.2-.5-1.7.1-.6.6-.4 1.2.1 1.7.6.7 1.3 1.5 2 2.1 1.1 1 1 1.9 0 2.9s-2 1.1-3.3.9c-4.1-.7-8.3-1.7-12.5-1.9-4.1-.2-7.7-3.3-12-1.9-.3.1-.6-.1-.9-.2-8.2-1.2-16.3-2.4-24.5-3.6-.9-.1-2.1.1-2.4-.7-.4-1 .8-1.5 1.4-2 6.3-6.3 12.5-12.7 18.6-19.2 1.1-1.2 1.2-2.2.1-3.5-4.3-5-9.1-9.5-13.7-14.2-1.2-1.3-1.4-2.2.4-3.3.3 1.3.5 2.6 2.1 2.5 1.1 0 1.9-.6 2.3-1.5.5-1.3-.1-2.4-1.4-2.9-.4-.2-.8-.5-.4-.9 1.8-1.9 3.5-3.8 5.5-5.4 1.3-1 2.6.4 3.8.8 1.3.3 2.5.7 3.6-.4 1-1 1.8-2.2 1-3.7-1.6-3.3-.5-5.6 2.2-7.6.8-.6 1.4-1.4 2.6-2.5-.8 2.4.6 3 2.5 3.3zm306.4 284.4c3.3 2.7 5.5 6.1 8.3 9 6.2 6.4 12.9 12.3 19.2 18.6 3.1 3.1 7.4 4.5 10.2 7.8 0 .1.1.1.2.1 11 6 22.1 11.9 33.1 17.9 1.8 1 3 .8 4.3-.6 2.4-2.5 4.9-4.9 7.4-7.4 4.2-4.3 3.3-3.6 7.1.1 1.2 1.2 1.4 2.2.1 3.5-4.6 4.7-9 9.5-13.7 14.1-12.6 12.7-25.2 25.4-37.5 38.4-2.9 3-2.9 3-5.8.1-9-9.1-18.1-18.2-27.1-27.2-2.2-2.2-2.4-2.2-4.6 0-5.9 5.9-11.8 11.8-17.7 17.8-1.8 1.8-2.2 1.7-3.4-.4-7.9-14.3-15.8-28.7-23.7-43-5.6-10.2-11.3-20.4-17-30.6-.7-1.2-.8-2.2.3-3.2 3-2.9 6-6 8.9-9 1.1-1.1 1.9-1.2 3 0 1.2 1.3 2.5 2.5 3.8 3.7 2.9 2.8 5.7 2.9 8.5.1 2.8-2.7 5.5-5.5 8.1-8.4 1.3-1.4 2.5-2.5 3.4.3.2.6.8 1 1.2 1.5 3.1 3 6.3 6.1 9.4 9 1 1 1 1.7 0 2.6-1.6 1.5-3.1 3.1-4.6 4.6-3 3-3.1 4.6 0 7.7 4.4 4.4 8.8 8.8 13.3 13.1 3.4 3.2 6.1 7.2 10.7 9 1.1.4.6 1.3 0 1.7-1.4 1.1-.9 2 .2 2.9.6.5 1.1 1.2 1.6 1.8 1.3 1.3 2.7 1.7 4.2.1 6.6-6.8 13.2-13.6 19.7-20.4.5-.5 1.2-1.2.7-1.9-1.1-1.5-2.3-2.9-3.6-4.2-.6-.7-1.3-.1-2 .2-.7.3-.7-.4-.9-.8-.9-2.7-2.6-4.8-4.6-6.7l-18-17.4c-.3-.3-.6-.6-.9-.8-1.3-.5-1.9-1.7-1.8-3.7zm38.6-84.3c.3-.5.3-.7.5-.9 7.8-8 15.7-16.1 23.5-24.2 1.1-1.2 2.1-.7 3.2-.1 16.2 8.9 32.5 17.7 48.8 26.6 8.2 4.5 16.3 9 24.5 13.4 1.3.7 1.8 1.3.5 2.5-6.1 5.8-11.7 12.1-17.5 18.1-2.3 2.4-2.4 2.4-.1 4.7 9.3 9.1 18.6 18.3 28 27.4 1.7 1.6 1.7 2.6 0 4.3-10.5 10.6-21 21.4-31.5 32.1-4 4-2.9 3.9-7.2 0-1.3-1.2-1.4-2.1-.1-3.4 2.8-2.8 5.6-5.7 8.4-8.5 1.3-1.3 1.7-2.6.7-4.3-6.1-11.1-12.1-22.2-18.1-33.3-.8-1.4-1.7-2.6-3-3.5-.9-.6-1.4-1.4-1.6-2.3-.4-1.6-1.4-2.7-2.5-3.8-6.7-7.1-14-13.7-20.5-21.1-4.6-5.2-9.4-10.3-15.1-14.5-6.2-4.5-12.5-9-20.9-9.2zm42.4 32.4 4.8 4.8c7.1 7.4 8.3 19 3 27.7-1.4 2.2-1.7 2.3-3.5.4-4.5-4.7-9.3-9-14.7-12.7-1.3-.8-1.8-1.7-.9-3.2 1.6-2.6 1-4.6-1.3-6.7-4.4-3.9-8.6-8.1-12.8-12.2-3.3-3.1-2.2-3.4-5 .7-1.3 1.8-1 3.1.7 4.2 1.4.9 2.3 1.3.8 3.6-2.9 4.6-6.2 8.7-9.8 12.6-5.2 5.5-10.2 11-16.2 15.6-1.2.9-3 .9-3.8 2.1-1.1 1.8-1.8 1.1-2.6-.1-.4-.6-.9-1.1-1.5-1.6-1.3-1.2-3.2-.7-5.4 1.4-1.4 1.4-.1 2.2.7 3 4.4 4.5 8.9 8.7 13.1 13.4 2.1 2.3 4 3 6.6 1.4 1-.6 1.8-.6 2.4.5 3.7 5.9 8.4 10.9 13.4 15.7 1.5 1.5 1.1 2.4-.5 3.4-8.3 5.7-20.3 4.9-27.6-2.2-6.1-5.9-12.1-11.9-17.8-18.3-3.9-4.4-8.1-8.4-11.5-13.2-2.8-4.1-5.6-8.2-6.5-13.2-.4-1.9-.6-3.8 1.1-5.4 6.9-6.8 13.6-13.9 20.3-20.9 9.3-9.7 19.1-18.9 28.2-28.9 2.5-2.7 5.2-3.5 8.7-2.5 7.3 2.1 13.1 6.5 18.7 11.3 6.9 5.9 12.6 12.9 18.9 19.3zm-47.7 155.5c8.2 8.1 16.3 16.3 24.5 24.4 1.7 1.7 1.6 2.7 0 4.3-8.8 8.7-17.4 17.4-26.1 26.1-2.6 2.6-2.6 2.6-5.1.1-15.8-15.7-31.6-31.4-47.4-47-1-1-2.1-2.7-3.6-1.2-1.5 1.5.3 2.6 1.3 3.6 15.7 15.9 31.6 31.6 47.7 47.1 2.2 2.1 2.2 2.6 0 4.6-1.7 1.7-3.1 1.1-4.5-.4-16.1-16.2-32.1-32.3-48.3-48.4-1.7-1.7-1.4-2.8.2-4.3 11.1-11 22.2-22.1 33.1-33.2 1.6-1.6 2.6-1.5 4.1.1 7.9 8.1 16 16.1 24.1 24.2zM677 579.7l-.3.3c-7.6-7.6-15.1-15.2-22.7-22.7-1.6-1.6-1.8-2.6-.1-4.3 10.9-10.8 21.8-21.7 32.6-32.7 1.6-1.6 2.6-1.5 4.1.1 5.2 5.1 10.3 10.3 15.6 15.3 11.2 10.5 21.7 21.9 32.9 32.4 2.1 2 2 3.1.2 5.1-2 2.3-3 .3-4.2-.9-7.5-7.3-14.7-14.8-22.3-22-5.8-5.4-11.2-11.1-16.6-16.9-3-3.2-6.3-6-9.5-9.1-.8-.7-1.6-1.3-2.5-.3-.9.9-.3 1.8.2 2.6.2.3.5.6.8.9 8.6 8.6 17.3 17.1 25.9 25.7 7.5 7.4 14.8 14.9 22.6 22.1 1.2 1.1 1.5 2 .1 3.3-2.7 2.5-5.2 5.3-7.8 7.9-6.5 6.4-13 12.8-19.4 19.3-1.2 1.2-2 1.4-3.3.1-8.8-8.7-17.5-17.4-26.3-26.2zM308.6 411.6c2.5-2.5 5-5.1 7.5-7.6 2.4-2.4 2.4-2.4 4.7 0 11.5 11.5 23 23 34.6 34.4 11.4 11.1 22.6 22.5 33.6 34 .8.8 1.3 1.7.9 2.8-1.8 6-2.6 12.4-8.3 16.5-1.8 1.3-3.2 3.2-4.8 4.8-3.1 3.1-5.1 3.1-8.2 0l-37.7-37.7c-3.6-3.6-3.2-3-.1-6.2 2-2.1 2-3.6 0-5.7-1.4-1.5-2.9-2.9-4.3-4.3-4.3-4.3-4.9-4.3-9.2-.1-1.1 1-1.8 1.3-3 .1-5.4-5.5-10.9-10.9-16.4-16.3-1.1-1.1-1.8-2.3-1.6-3.9.2-1.1.1-2.5 2-1.6.9.4 1.5-.5 2-1 3-2.8 5.7-5.5 8.3-8.2zm95.7-43.3-.3.3c-8-8-15.9-16-23.9-23.9-1.6-1.6-1.6-2.6 0-4.2 5.4-5.3 10.7-10.6 16-16 .6-.6 1.6-1.2 1.2-2.2-.9-2.2.6-1.9 1.8-1.9 1.5-.1 2.6.7 3.6 1.7 4.7 4.8 9.5 9.5 14.3 14.2 3 3 3 3 .3 6.4-1.9 2.4-1.9 3.6.1 5.7 2.1 2.2 4.4 4.3 6.5 6.5 1.3 1.3 2.7 1.3 4.1.2.8-.6 1.7-1.1 2.3-1.8 1.5-1.7 2.6-1.2 4 .2 7.3 7.3 14.6 14.5 21.9 21.7 5.8 5.7 11.5 11.4 17.2 17.1 2.3 2.3 2.4 3.8.3 6.3-2.2 2.5-4.7 4.7-6.7 7.3-2.4 3.1-5.5 4.6-9.1 5.5-2 .5-4.1 1-6.1 1.7-1.4.5-2.3.2-3.2-.7-3-3-6.1-6-9.2-9-11.8-11.6-23.4-23.4-35.1-35.1zm-160.5 17.3c1.2-1.3 2.1-2.3 3-3.3 1-1.2 2.1-2.1 3.7-.8.8.6 1.5 0 2.1-.6 8.5-8.6 17-17.1 25.6-25.7.8-.9 1.3-1.8.3-2.8-1.1-1.1-.5-1.8.3-2.6 6.4-6.3 12.8-12.7 19.2-19 1-1 1.8-1.4 3.1-.3 1.3 1.1 2.8.9 4-.2 1.1-1.1 1.5-2.6.5-4-1-1.3-.6-2.1.4-3.1 6.1-6 12.1-12 18.1-18 .9-.9 1.6-1.3 2.7-.3 1 1 1.9.4 2.7-.4l5.7-5.7 19.8-20.1c.6-.6 1.8-1.5.8-2.4-1.6-1.5-.5-2.4.5-3.4 1.1-1.2 2.3-2.3 3.4-3.4.5-.5.9-1.5 1.7-1.1.6.3.7 1.2.9 1.9 1.1 4.2 2.5 8.2 4.3 12.1 2.3 5.2 6.8 8.6 10.7 12.5 6.4 6.6 13 13.1 19.5 19.6.8.8 1.9 1.6.7 3-3.8 4.5-8 8.7-12.3 12.7-.8.7-1.6 1.4-2.4.2-1.7-2.3-3.2-1.6-4.7.2-.6.7-1.3 1.4-2.1 2.1-1.5 1.3-1.6 2.5-.1 3.8 1.1 1 1.3 1.9.1 3.1-8.7 8.5-17.5 17.1-26.2 25.7-.8.8-1.7 1.1-2.5.1-1.8-2.2-3.3-1.4-4.8.3-.7.8-1.4 1.5-2.2 2.2-1.4 1.2-1.5 2.5 0 3.7 1.5 1.2 1 2.3-.2 3.4l-4.8 4.8c-6.5 6.5-13 13-19.5 19.4-.7.7-1.3 1.7-2.6.8-3-1.9-3-1.8-5.4.7-.5.5-1 1.1-1.5 1.5-1.4 1.2-1.6 2.2-.1 3.5.9.7 1.5 1.5.4 2.6-4.3 4.2-8.5 8.5-12.8 12.7-.9.9-1.7.7-2.7-.2l-27.2-26.9c-1.8-1.7-3.8-3-6.1-3.9-4.4-1.9-8.9-3.3-14-4.4zm245.6 277.7c-3.1-.8-5.5-1.7-8-1.5-1.3.1-1.8-.3-2.2-1.5-.9-2.4-3.9-3.8-5.2-2.4-1.9 2.2-2.9.8-4.1-.5-1-1.1-2.1-2.1-3.1-3.1-3.2-3.2-3.1-3.1-.4-6.6 1.2-1.4 2.2-1.7 3.6-.4.4.4 1 .6 1.5.9.7.5 1.5.9 2.2.1 1.3-1.5-.3-3.3.3-5 .2-.5-.8-1.1-1.7-1-.1 0-.2 0-.2.1-1.3.9-2.1 0-2.9-.8-16.2-16.6-32.6-33-49.2-49.1-.9-.9-1.5-1.6-.8-3.1.5-1.2-.8-2.4-1.9-1.9-1.6.7-2.3.1-3.2-1-.9-1.1-2-2.1-3-3.1l-43.6-43.3c-.7-.7-1.1-1.4-1-2.7.4-3.5-2.6-1.3-3.9-2-1.1-.6-1.8.1-2.3 1.1-.1.1-.1.4 0 .5.7 1.2.8 2.9 2.4 3.5 1.3.4 2.2 1.4 3.1 2.3 7.5 7.4 14.9 14.9 22.4 22.3 3.6 3.6 4.2 2.9 0 7.2-1.5 1.5-2.2 1.4-3.6 0-9.4-9.6-19-19.1-28.5-28.6-3.4-3.4-3.4-3.4-.4-7 .2-.2.4-.5.6-.8 3.8-3.5 6.9-8 12.9-8.1 1.7 0 3.4-.4 5-.8 1.5-.4 2.6 0 3.7 1.1 3.3 3.4 6.7 6.8 10.1 10.2 12.6 12.4 25.1 24.8 37.7 37.2 7.4 7.3 14.8 14.4 22 21.9 4.7 4.9 10.3 8.9 13.6 15.3 6.5 12.4 13.6 24.5 20.4 36.7 2.4 4.4 4.9 8.9 7.7 13.9zm-17.1-216.2c4.4-4.4 8.7-8.8 13.1-13.1 2.3-2.3 4.5-2.4 6.6-.3 8.8 8.7 17.4 17.4 26.2 26.1 1 1 1.2 2.1 1.1 3.3-.1 1.2-.6 1.5-1.5.5-1.2-1.3-2.7-1.9-4.4-1.5-1.1.3-1.8.1-2.6-.7-.5-.5-1.1-1.2-1.9-.5-.7.7-.2 1.4.4 1.9 1.2 1.1.8 1.9-.2 2.8-2.1 2-4.2 4.1-6.2 6.2-2.1 2.2-2.2 3.9-.3 6.2 1.1 1.3.8 2.3-.3 3.3-2.2 2.1-4.4 4.3-6.5 6.6-1.5 1.7-2.6 1.9-4.3.1-1.8-2-3.9-2.1-5.5-.5-3.2 3.1-6.4 6.3-9.4 9.5-1.7 1.8-1.5 3.8 0 5.7.4.4.8.8 1.1 1.2.9 1.1.3 1.7-.8 1.7-1.7.1-3-.9-4.2-2.1-8.1-8.1-16.1-16.2-24.3-24.2-3.4-3.4-3.5-5-.1-8.5 8.1-7.8 16.1-15.7 24-23.7zm-51 187.9-.2.2C410.1 624.1 399 613 388 602c-2.4-2.4-2.4-2.4-.2-4.8 2-2.2 4.1-4.4 6.2-6.5 4.1-4 3-3.5 6.5.1 15.6 15.3 31.1 30.7 46.6 46.1 8.8 8.7 17.5 17.5 26.3 26.3.7.7 1.6 1.4 1.1 2.5-1.6 3.4-1.4 6.9.1 10.1 1.3 3 .1 4.6-2 6.2-.2.1-.4.3-.6.4-1.2 1.7-2.3 1.3-3.5 0-4.5-4.7-9.1-9.4-13.8-14-11.2-10.9-22.2-22.2-33.4-33.4zm-89.8-87.8-.3.3-13.2-13.2-34.6-34.6c-4.1-4.1-4-3 0-7.1 2.3-2.4 2.5-2.4 4.8-.1l21.3 21.3 5.2 5.2c.7.7 1.1 1.2-.1 2-1.4.9-.9 2.3.3 3 1.9 1.1 2.5 5 5.6 2.9 1.2-.8 1.5-.7 2.2.1 1.8 1.8 3.6 3.5 5.4 5.3 2.9 2.9 2.8 2.9 5.7.1 4.3-4.2 3.1-4.1 7.4.1 16.8 16.6 33.4 33.3 50.1 50l2.4 2.4c.5.5 1 1.2.3 1.9-.6.7-1.1.2-1.6-.2-.7-.6-1.4-.6-2.1.1-2 2-4 4.1-6 6-.7.7-1 1.4-.4 2.1.8 1 .5 1.8-.4 2.5-1.1.9-1.8 0-2.4-.7-16.7-16.3-33.2-32.8-49.6-49.4zm275 44.4c13.4 13.5 26.9 27 40.3 40.5l.5-.5c-1.6-2.4-4.1-4-6.1-6.1-.6-.7-.3-.9 0-1.4.4-.7.8-.6 1.3-.1 2.3 2.7 5.5 4.6 7.1 7.9.3.6.7 1 1.3 1.4 3.8 2.1 6.2 5.8 9.4 8.6-3.3-2.4-6.4-4.9-9.6-7.4-1.5-1.2-3.1-1.6-4.9-.4-6.1 4.1-11.1 9.3-15.1 15.6-1.2 1.9-.8 3.5.5 5.1 2.3 2.7 4.5 5.5 6.7 8.2-5.7-6.4-12.6-11.7-18.5-17.6 2.2-1.9 3.4-.2 4.8 1.2 1.3 1.3 2.5 2.9 4.4 3.5-13.5-13.6-27-27.1-40.8-41-.3 1.5.5 1.9.9 2.3 9.3 9.4 18.6 18.7 28 28 1.2 1.2 1.7 2.1.3 3.4l-6.3-6.3c-8.4-8.4-16.8-16.7-25.1-25.1-2.7-2.7-2.7-5.7-.1-8.4 4.6-4.8 9.2-9.5 13.9-14.2 2.4-2.4 5.1-2.4 7.5 0 4.3 4.1 8.6 8.3 12.8 12.5 6 6 12 12 18 18.1.3.3 1.4.6.5 1.4-.7.6-1.3.7-1.9-.2-.1-.2-.4-.3-.6-.5-7.7-7.7-15.4-15.4-23.2-23-1.6-1.9-3.2-4.3-6-5.5zM563 441.1c-.6-.3-1.2-1.8-2.4-.9-1.1.8-1.2 2.1-.8 3.3 1.5 4 4.2 6.7 8.2 8 .6.2 1.3.2 1.9.1 1.6-.3 2.2-1.6 1-2.7-1.6-1.5-1.8-3.2-1.9-5.6 6.4 6.4 12.6 12.6 18.7 18.8.9.9.9 1.8-.1 2.7-1.7 1.7-3.4 3.5-5.2 5.1-1 .9-1 1.6-.2 2.4.6.6 1.1 1.2 1.7 1.7 1 .9 2.3 1.6.9 3.3-.5.5.1 1.2.5 1.7 1 1.2 1.9 2.5 3.1 4-.6-.3-.9-.4-1.2-.6-5.9-5.2-11.3-10.8-16.8-16.4-.6-.6-.7-1.2-.2-2 1.3-1.9.9-3.9-.5-5.4-4.4-4.9-9-9.6-14-13.8-1.5-1.3-3.4-1.6-5.1-.2-1.1.9-1.6.4-2.4-.4-5.9-6-11.9-11.9-17.8-17.8-7-7-13.9-14.1-21-20.9-4.3-4.1-7.2-8.1-5.5-14.9 1.2-5.1 4.5-8.1 7.6-11.4 1.5-1.6 3.7-1.1 4.1.7 1 4.1 4.1 6 7.7 7.3.5.2 1.6.1.9 1.1-.9 1.3 0 2 .7 2.7 1.5 1.6 3 3.1 4.6 4.6 1 .9 1.7 2 3.4 1.8 1.1-.1 2.1 1.4 2.4 2.5.3 1.3-1.1 1.9-2 2.5-1.1.8-1.8-.3-2.4-.9-2.2-2.2-4.6-4.4-6.7-6.7-2.9-3.3-6.8-5.7-8.8-9.9-.6-1.3-2.5-1.7-3.8-1.4-1.4.3-1.3 1.6-.6 2.8.1.2-.1.6-.2.9-1.2 1.9.3 2.7 1.5 2.4 1.9-.5 2.7.5 3.7 1.5 14.5 14.3 29 28.7 43.5 43 2.2 1.9 5.1 3.3 3.5 7zm-308.1-27.5.1-.1c5.5 5.6 11.1 11.2 16.7 16.7 1.2 1.2 1.1 1.8 0 2.9-5.5 5.4-10.8 10.9-16.3 16.4-3.4 3.5-5.6 3.4-9 0l-1.4-1.4-27.7-27.7c-.7-.7-2-1.5-1.4-2.3 1.4-1.6 1.1-3.9 2.8-5.4 5.3-5.1 10.5-10.3 15.6-15.6 1.5-1.6 2.5-1.7 4.1-.1 5.5 5.6 11 11.1 16.5 16.6zm134.3-134.8-.1.1c-5.4-5.4-10.8-11-16.3-16.3-1.8-1.8-1.8-2.9.1-4.5 1.3-1.2 2.4-2.6 3.7-3.8 5-4.8 8.8-10.8 15.2-14.3 1.5-.8 2-.8 3.1.3 10.1 10.1 20.2 20.2 30.3 30.2 2.6 2.6 2.8 5.2.2 7.9-5.5 5.8-11.1 11.5-16.7 17.2-.9 1-1.7.9-2.6 0-5.7-5.6-11.3-11.2-16.9-16.8zM321.8 480c0-.1 0-.1 0 0 5.5 5.4 10.9 10.9 16.4 16.3 1.2 1.2 1.5 2.3.3 3.5-5.6 5.6-11.2 11.3-16.8 16.8-2.8 2.7-5.1 2.6-7.8-.1-9.8-9.7-19.6-19.4-29.3-29.1-.6-.6-1.7-1.7-1.3-2.2 1.4-1.6 1-3.8 2.6-5.3 5.5-5.3 10.8-10.7 16.1-16.2 1.4-1.5 2.3-1.5 3.7 0 5.3 5.5 10.7 10.9 16.1 16.3zm134.5-134.5-.1.1-16.5-16.5c-.9-.9-1.9-1.7-.5-3 5.8-5.8 11.4-11.7 17.3-17.4 3.1-2.9 4.4-2.7 7.4.2l28.2 28.2c2.5 2.5 2.7 5.1.2 7.7-5.6 5.8-11.4 11.5-17.1 17.3-.9 1-1.5.8-2.4-.1l-16.5-16.5zm-51.5 47.7.1-.1c7.3 7.3 14.7 14.7 22 22.1 3 3.1 3 5.3 0 8.3-9 9-17.9 18-26.9 27.1-3.6 3.6-5.9 3.6-9.6-.1-4.9-5-9.8-10-14.8-14.9-13.8-13.6-27.4-27.3-41.1-41-3.4-3.4-3.4-5.5 0-8.9l27.6-27c2.9-2.8 5-2.8 7.9.1 4.2 4 8.4 8 12.5 12.1 7.5 7.3 14.9 14.8 22.3 22.3zm249.6 93.1 2.7 2.7c8.2 8.3 16.5 16.5 24.7 24.7 1.1 1.1 1.4 2 .1 3.2-2.9 2.8-5.8 5.7-8.6 8.6-1 1-1.8 1.1-2.9 0-1.8-1.8-3.8-3.5-5.6-5.3-9.8-9.8-19.7-19.5-29.5-29.3-6.6-6.6-13.1-13.2-19.8-19.7-1.3-1.3-1.7-2.3-.2-3.8 2.9-2.7 5.7-5.6 8.4-8.4 1-1 1.8-1.1 2.9-.1 9.1 9.6 18.6 18.3 27.8 27.4zm-256.9-25.7c2.5-.5 4.3-1.2 5.8-2.7 10.2-10.3 20.5-20.5 30.7-30.8.6-.6 1.1-1.2 1.6-1.8.9-.9.8-3 2.1-2.9 1.1.1 2.2 1.6 3 2.6 2.4 3.1 5.1 3.8 8.7 2.2 2.7-1.2 5.6-1.7 8.3-2.6 1.9-.6 2.9.8 3.7 2 .9 1.2-.5 1.9-1.1 2.6-2 2.1-4.1 4.2-6.1 6.2-11.5 11.5-23 23.1-34.5 34.6-4.6 4.6-9.1 9.2-13.7 13.8-.8.8-1.5 1.8-2.9.5 1.2-.6 2.7-.7 2.4-2.3-.1-.8-.5-1.3-1.3-1.5-1.6-.4-2 .9-2.6 2.1-.5-.9-.2-1.5 0-2.1.8-3 1.5-6 2.5-8.9.9-2.5 0-4.3-1.6-5.9-1.5-1.7-3.1-3.2-5-5.1zM187.3 369c-5.3 5.8-11.1 11-16.3 16.9-.8.9-1.6 1.8-3 .5-5.2-5-10.3-10-15.1-15.3-1.4-1.6-1.5-3.2 0-4.7 3.1-3.1 6.2-6.1 9.2-9.2 7.7-7.8 15.4-15.6 23-23.6 1.5-1.6 2.4-1.2 3.7.1 5 5.1 9.9 10.2 15 15.2 1.4 1.4 1.3 2.2 0 3.6-5.4 5.4-10.9 11-16.5 16.5zm156.9-157.5c-5.4 5.4-10.9 10.9-16.3 16.4-1.2 1.2-2 1.5-3.4.1-5.1-5.3-10.2-10.5-15.4-15.6-1.3-1.3-1.3-2.1 0-3.4 10.3-10.4 20.5-20.9 30.7-31.3 2.6-2.6 4.1-2.5 6.7.1 4.3 4.4 8.6 8.7 12.9 13 2.4 2.4 2.5 2.5.2 4.7-5.3 5.1-10.3 10.6-15.4 16zm252.3 359.4c0-.1 0-.1 0 0 1.7 1.7 3.5 3.4 5.2 5.1l5.7 5.7c1.3 1.3 1 2.7.4 4.1-.7 1.5-1.7.5-2.7.4-2.1-.3-4-.2-5.6 1.4-4.8 4.9-9.7 9.8-14.5 14.7-1.8 1.9-3 4.4-1.8 6.9 1 2.2 0 2.7-1.6 3.3-1.7.6-2.9.1-4.1-1.1-5-4.9-9.7-10-14.3-15.2-1.7-1.9-3.6-3.7-5.5-5.5-1.4-1.3-1.6-2.1.2-3.3 3.8-2.4 7.3-5.4 10.6-8.5 5.7-5.4 10.6-11.6 14.8-18.2 1-1.6 1.7-1.5 2.9-.3 3.3 3.5 6.8 6.9 10.3 10.5zM359.9 251.7c4.7 3.8 8 8.2 11.9 12 14.2 13.7 28 27.9 42 41.8 1.8 1.8 3.5 3.6 5.5 5.1.6.5 1.9.5 1.9.8-.2 1.5 1 2 1.8 2.7 5.8 5.5 11.1 11.5 16.9 17.1 15.4 14.7 29.8 30.4 45.4 44.9.4.4 1 .8.8 1.6-2.6.3-5.2.5-7.7 1-1.7.3-2.7-.2-3.8-1.3-9.5-9.8-19.5-19.1-29.1-28.9-18-18.2-36.3-36.2-54.5-54.3-8.2-8.1-16.3-16.2-24.5-24.3-1.6-1.6-3.9-3-4.5-5.3-.9-4.2-1.8-8.3-2.1-12.9zm306.7 274.5-20.1-11.1c-10.6-5.9-21.2-11.7-31.8-17.6-6.9-3.8-13.7-7.6-20.6-11.4-1.2-.7-1.5-1.4-.3-2.1 2.6-1.5 4.4-3.9 6.4-5.9 1.4-1.4 2.4-1.4 3.8 0 3.5 3.6 7.3 6.9 10.6 10.6 1.6 1.7 4.5 2.4 3.7 6.3-.5 2.5 3.3-.6 4.7 1.3.3.4 1.7-.9 1.6-1.4-.6-1.5-.5-3.7-2.3-4.2-1.7-.5-2.7-1.6-3.8-2.8l-8.4-8.4c-3.2-3.2-6.4-6.4-9.6-9.5-.6-.6-1-1.1-.2-1.8 1.4-1.2.7-2.2-.2-3.3-.4-.4-1.1-.9-.5-1.6.5-.6 1.2-.2 1.8 0 1.1.6 1.7 1.4 1.1 2.8-1.1 2.5 1.3 3.2 2.5 4.4 1.1 1.1 2.1.2 2.9-.7 1-1.2 1.8-.9 2.8.1 3.8 3.7 7.6 7.4 11.4 11.2 14.7 15 29.5 30.1 44.5 45.1zm-4.1 148.5c-3-3-5.9-6-9-8.9-1.4-1.3-1.2-2.2 0-3.4 2.1-2 4.2-4.1 6.1-6.2 1.3-1.4 2.3-1.4 3.6 0 4.7 4.7 9.4 9.3 14.1 14 9.3 9.3 18.5 18.6 27.8 27.8 1 1 .9 1.7 0 2.6-2.1 2.1-4.3 4.2-6.2 6.5-1.4 1.7-2.3 1.4-3.7 0-10.6-10.9-21.4-21.9-32.7-32.4zm-423.1-219-.3.3c-11.2-11.2-22.4-22.5-33.6-33.8-.7-.7-2-1.4-.9-2.6 1-1 1.7.2 2.4.8.8.7 5.6 1.3 6.5.8.2-.1.5-.3.5-.5.4-2 1.3-.8 1.9-.2 2.1 2 4.1 4.1 6.2 6.2 8.5 8.5 16.9 17 25.4 25.4.9.9 1.5 1.6.1 2.6-.9.7-.7 1.7.2 2.5 1.1 1 2.1 2.2 3.3 3.2.9.7 2 1.4 2.8-.1.7-1.4 1.3-.5 1.8 0 6.4 6.4 12.9 12.8 19.3 19.2.4.4 1.2 1 .6 1.6-2.3 2.1-.3 3.4 1 4.5 1.5 1.3 1.9 2.1.4 3.7-1.5 1.5-2.4 1.3-3.8-.1-11.4-11.1-22.6-22.3-33.8-33.5zM499 553.8l-3.8 3.8c-3.2 3.2-3.2 3.2-.2 6.5.6.7 1.6 1.4.8 2.5-1.6 2-3.4 4-6.3 4.1-1.4.1-3.1.4-3.8-.9-.7-1.3 1.1-1.9 1.8-2.8 1-1.1 1.8-2.3.5-3.6-3.7-3.7-7.5-7.4-11.3-11-1.2-1.1-2.3-1-3.4.1-.4.5-.9.9-1.4 1.4-.3.3-.6.9-1.2.7-.7-.2-.5-.9-.6-1.4-.4-3.1 1.3-5.2 3.2-7.3 1.5-1.6 2.6-1.8 4.1 0 1.4 1.7 3 1.9 4.7 0 2.9-3.1 6.1-6 9.1-9 2.6-2.6 2.5-2.9 0-5.7-.5-.6-1.3-1-.9-2.1.9-2.3 5.1-4.8 7.8-4.4.7.1 1.6-.2 1.9.7.2.7-.6 1.1-1 1.5-2 2.3-2 2.8.1 5 3 3 5.9 6 8.9 8.9 2.8 2.8 2.8 2.8 5.8.2 1.4-1.2 2-.7 2.2.8.3 2.4-.3 4.5-1.9 6.3-2.9 3.5-3 3.5-6.2.5-1.4-1.3-2.6-1.4-3.9 0-1.5 1.8-3.3 3.5-5 5.2zm69 72.6c.7-1.2 1.6-1.9 2.8-2.3 2.5-.8 4.7-2.2 6.7-3.8 1.2-1 2.2-1 3.5-.2 2.4 1.6 4.9 3.2 7.4 4.6 2.8 1.6 5.6 3.8 8.9 3.6 3.3-.2 5.1 1.2 7 3.4.8.9 1.7 1.7 2.6 2.6 1.6 1.8 4.7 3.2 4.6 5.3-.1 2.2-3.1 3.7-4.8 5.5l-.3.3c-.7.7-1.1.9-1.9-.1-1.1-1.4-2.5-1.1-3.6.1-1.1 1.1-1.3 2.3 0 3.4.6.5 1.1 1 .4 1.7-.6.6-1.2 1.1-2.1.6-.8-.5-1.7-.9-2.6-1.3-10.3-5.7-20.6-11.5-30.9-17.2-2.4-1.4-2.4-1.6-.1-3.6-.2 2.2 1.2 3 2.9 3.2 1.2.2 2-.6 2.3-1.8.3-2.2-1-3.3-2.8-4zm56.5-58.3c2.1-1.1 2.1-1.1 3.4 1.3l16.8 30c.6 1.1 1.2 2.3 1.7 3.5.3.7 0 1.5-.6 2-.9.7-.9-.4-1.3-.8-1.1-1-2.2-1.3-3.4-.3-1.1 1-1.6 2.6-.6 3.4 2.2 1.8.5 2.6-.5 3.6s-2 1.9-2.9 2.9c-1.1 1.2-2 1.1-3 0-3-3.1-6-6.1-9.1-9.2-.5-.5-1-1.1-1-1.9.1-3.7-1.6-6.9-3.4-10-1.6-2.9-3.4-5.7-5.2-8.5-.5-.8-1.1-1.4-.3-2.4 2-2.4 3.1-5.3 4.2-8.1.8-1.9 1.9-2.1 3.5-.9 1 .7 2.1 1.2 3.4.6.9-.4 1.4-1.2 1.3-2.2-.1-1.3-.6-2.5-2.1-2.9-.2.2-.4.1-.9-.1zm-189.9-290c2.2-1.4 2.3-2.6.6-4.4l-2.4-2.4c-1-1.1-2.1-1.3-3.1 0-.9 1.2-1.5.8-2.3-.1l-15.6-15.6c-3.1-3.1-3.1-3.1 0-6.1 2.2-2.2 2.2-2.2 4.5.1 20.8 20.7 41.4 41.8 62.6 62.1 4.3 4.2 4.3 4.2-.1 8.3-.9.8-1.4.8-2.2 0-4.8-4.9-9.7-9.8-14.8-14.9 1.5 0 2.1-.7 1.9-1.9-.2-1.3-3.8-5-5.1-5.2-.6-.1-1.3-.1-1.6.4-.7 1.2-1.3.8-2.1 0-2.3-2.4-4.8-4.6-7-7-3.5-3.8-3.5-3.8-7.1-.3l-1 1c.6-1 1.4-1.8 2.2-2.5 1.8-1.5 1.5-2.6-.2-4.1-2.5-2.3-4.8-4.9-7.2-7.4zm-43.1 196.7c4.5 4.3 10.5 7.4 6.2 14.9-.3.5-.2 1.1-.4 1.7-.3 1-.6 2-1.9.8-1.1-1-2-.6-2.9.3-5.7 5.8-11.4 11.5-17.1 17.3-.6.7-1.2 1.3-.9 2.4.2.7 1.3 1.4.1 2-.9.5-1.7 0-2.4-.6-2.1-2-4.1-4.1-6.2-6.2-.8-.8-.8-1.5 0-2.3 2.1-1.9 1.3-3.6-.5-5.1-4.3-3.7-7.5-8.3-11.8-12-9.6-8.4-17.8-18.3-27.2-26.9-.3-.3-.6-.6-.8-.9-.8-.8-.6-1.5.1-2.3 1.4-1.4 2.2-.4 3.2.6 12.8 12.8 25.7 25.6 38.5 38.4.7.7 1.4 1.4 2.2 1.9 2.6 1.8 4.9 1.7 7.2-.5 3-2.9 6-5.9 9-8.8 1.4-1.4 2.4-3 2.8-5 .7-3.2 1.7-6.2 2.8-9.7zm63.2-103.1c-.1 0-.1 0 0 0-6.7-6.6-13.3-13.2-20-19.9-.9-.9-1.7-1.4-.5-2.7 1.2-1.2 2.2-1.3 3.2.1 2.3 3.1 5.1 5.5 7.9 8.1 6.7 6.2 13 12.8 19.5 19.3 1.7 1.7 2.6 4.2 4.8 5.4 2.9 1.6 4.8 4.3 7.2 6.4 2 1.8 3 2 5.2.3.6-.5 1.1-1.2 1.8-.4 2.3 2.3 4.6 4.6 6.8 6.9.5.6.5 1.4 0 2-.4.6-.9.5-1.5.2-1.3-.7-2.4-.1-3.3.8l-17 17c-1 1-1.6 2.1-.6 3.5.6.8.4 1.3-.5 1.6-2.5.7-5 1.5-7.4 2.2-1.1.3-1.9-.3-2.6-1-1.8-1.8-3.5-3.6-5.3-5.3-1-1-.8-1.6.5-2 2.6-.7 5.1-1.5 7.7-2.3 1.5-.5 3-.8 4.1-1.9 3.2-3.3 6.6-6.5 9.7-9.9 3.1-3.5 3-5.6-.4-9-6.4-6.4-12.9-12.9-19.3-19.4zm-232.2 30.8c-3.4 2.3-5.7 7.4-11 9.3-1.7.6-2.4.8-3.5-.3-2.4-2.5-4.9-4.9-7.4-7.3-1.5-1.4-1.8-2.5-.1-4.1 6.4-6.4 12.7-12.9 18.9-19.4 1-1 1.8-1 2.8.1 3 3.1 6.1 6.3 9.3 9.3 1.4 1.4 1.2 2.3-.1 3.6-2.8 2.6-5.4 5.3-8.9 8.8zm143.7-169.3-.2-.2c3.1-3.2 6.3-6.3 9.4-9.5 1-1 1.6-1.1 2.6-.1l7.2 7.2c2.4 2.4 2.5 5.1.1 7.7-5.5 5.8-11 11.4-16.5 17.2-1.2 1.3-2.1 1.1-3.2 0-3-3.1-6-6.1-9.1-9.1-1.4-1.3-1.3-2.3.1-3.6 3.2-3.1 6.4-6.4 9.6-9.6zm-89.3 224.6c3-3 5.9-6 8.9-9 2.1-2.1 2.6-2.1 4.7.1 2.2 2.2 4.4 4.4 6.7 6.6 3.2 3.1 3.3 3.2.1 6.1-6.4 5.7-10.9 13.3-18.9 17.3-1.3.6-1.9.7-2.9-.2-2.7-2.7-5.4-5.4-8.1-8-1.3-1.2-1.3-2.2 0-3.4 3.3-3.2 6.4-6.4 9.5-9.5zm156.5-156.9-.3-.3c3-3 6-5.9 8.9-9 1.5-1.6 2.6-1.8 4.1-.1 1.9 2.2 4 4.2 6.2 6.2 2.6 2.4 3 5.3.6 7.8-5.5 5.8-11.2 11.4-16.8 17.1-1.1 1.2-1.9 1-3-.1-2.9-3-5.8-5.9-8.8-8.7-1.4-1.4-1.5-2.4-.1-3.8 3.1-2.9 6.1-6.1 9.2-9.1zm213.1 339c0 1-.8 1.9.2 2.4.7.3 1.3.1 1.8-.4.7-.7 1.2-1.6.4-2.3-.9-.9-.2-1.3.4-1.7 1.2-1 2.4-.8 3.5.1 4 3 8.1 6 12.1 8.9 1.2.9.8 1.5.1 2.3-6.3 6.4-12.8 12.7-18.7 19.4-.9 1-1.6 1.2-2.5-.1-2.7-3.7-5.5-7.5-8.4-11-1.7-2.1-1.7-3.8.2-5.8.3.8.8 1.6 1.9 1.1.8-.4 1.5-1 1.4-2.1-.1-1.1-1.1-.8-2.2-.8 3-3.6 6.3-6.6 9.8-10zM275.2 455.8c-3.2 3.2-6.4 6.4-9.5 9.7-1.1 1.1-2 1.4-3.2.1-1.9-2-3.9-3.9-5.8-5.9-.4-.4-1.3-1.1-.9-1.6 1.3-1.4.9-3.4 2.2-4.6 5.6-5.6 11.2-11.2 16.8-16.9 1.3-1.3 2.2-1.2 3.4.1 2.1 2.2 4.3 4.4 6.6 6.4 1.3 1.2 1.3 1.9.1 3.1-3.3 3.2-6.5 6.4-9.7 9.6zm156.4-157.1c.1 0 .1 0 0 0-3.1 3.2-6.3 6.4-9.3 9.6-1.3 1.4-2.3 1.3-3.6 0-2-2.1-4-4.2-6.2-6.2-1.5-1.4-1.3-2.4.1-3.8 4-4 7.8-8.3 11.9-12.2 2.3-2.2 3.9-5.2 7.5-6.1 1.3-.3 2-.5 2.9.5 2 2.1 4.1 4.2 6.2 6.2 1 .9 1 1.7 0 2.6-3.2 3.1-6.3 6.2-9.5 9.4zm-89.9 223.7.2.2c-3 3-6 5.9-8.9 9-1.5 1.5-2.6 1.8-4.1 0-1.1-1.4-2.5-2.5-3.8-3.8-2.6-2.6-2.8-5-.3-7.7 5.6-5.8 11.4-11.5 17.1-17.3.9-.9 1.8-.9 2.7 0 2.2 2.2 4.3 4.4 6.6 6.5 1.3 1.2 1.3 2.2 0 3.5-3.2 3.1-6.4 6.4-9.5 9.6zm145.7-166c2.5-2.5 5-5.1 7.5-7.6 3.4-3.4 5.4-3.4 8.7-.1 1.1 1.1 2.1 2.3 3.3 3.3 1.7 1.4 1.5 2.6.1 4l-18.6 18.3c-1.2 1.2-2.2 1-3.2-.2-1.9-2-3.8-4-5.9-5.8-1.7-1.5-1.4-2.5 0-3.9 2.8-2.6 5.4-5.3 8.1-8zM293.8 252.8c2.7-2.8 6.5-3.2 9.4-1.2.3.2 1 .1.4.9-1.1 1.5.2 2 1.2 2.4 1.2.4 2.6.4 3.7 1 1.1.5 3.2.9 1.5 3-.7.9 0 1.6.9 1.7 2.8.4 4.2 2.4 5.6 4.6 1.9 3 1.9 6.4-.2 9.1-1.9 2.5-5.3 3.5-8.5 2.2-2.8-1.1-5.2-2.9-5.9-6.2-.2-.9-.2-2.4-1.9-1.6-1.7.9-2.9.4-3.2-1.6-.2-1.4-.3-2.7-1-4-.3-.6-.7-1.6-1.6-1.2-2.4 1.2-2.4-.7-2.7-2-.4-2.8.2-5.2 2.3-7.1zm-44.4 75.4.8.8c3.5 4.4 2.6 10-1.8 12.3-4.4 2.3-10.6-.4-11.8-5.3-.2-1-.3-2.7-2-1.8-1.8.9-2.3-.4-3-1.4-.4-.6-.2-1.4-.4-2.1-.5-1.6-.2-4.1-3.3-3.1-.9.3-1.1-.8-1.3-1.5-1.1-3.3-.1-6.4 2.7-8.7 2.4-1.9 5.9-2.1 8.7-.5.3.2 1 .2.6.7-1.8 2.4.7 2.3 1.7 2.8.9.4 2.1.2 3.1.6 1.1.4 2.9 1 1.7 2.6-1.3 1.7-.2 2 .9 2.3 1.2.5 2.4 1 3.4 2.3zm113.7-59.5c1 .8 1.4 1.2 1.8 1.5 4.4 4.3 8.8 8.5 13.2 12.9 7.8 7.7 15.5 15.4 23.2 23.1 2.4 2.4 2.5 4.6.1 7.1-1.9 2-2.3 2-4.3 0-4.3-4.3-8.8-8.6-13-13-5-5.2-10.6-10-15-15.8-3.3-4.5-4.5-9.9-6-15.8zM532.2 627s-.1-.1 0 0c2.8-3 5.6-5.8 8.5-8.7.6-.6 1-1.1 1.8-.4 2.6 2.6 5.6 4.9 7.5 8.2.9 1.4.8 2.7-.4 4-4.4 4.5-8.7 9.1-13.1 13.6-2.6 2.6-4.2 2.6-7 0-2-1.8-3.9-3.9-5.9-5.8-.9-.9-.8-1.5.1-2.3 2.8-2.8 5.6-5.7 8.5-8.6zM244.9 387.4c1.6-.4 2.8.4 4 .7 6 1.7 11.7 3.9 16.2 8.7 5.6 6 11.5 11.6 17.3 17.4 2.5 2.4 5.1 4.8 7.6 7.1 1.1 1 1.2 1.8.1 3.1-2.4 2.8-4.8 3.7-8.5 0-8.4-8.6-17-17.1-25.6-25.6-3.5-3.8-7.2-7.5-11.1-11.4zm330.4 310.4-7.2 7.2c-1.2 1.3-2.1.9-3.3-.2-1.2-1.2-.9-2 .1-3.1 2.8-2.8 5.5-5.7 8.3-8.5 8-8.1 16-16.1 24-24.2 6.9-7 13.6-14.1 20.5-21.1.8-.8 1.5-1.9 2.7-.5 1 1.1 1.9 2 .2 3.5-2.3 2-4.3 4.4-6.4 6.6-12.8 13.7-26.3 26.6-38.9 40.3zm-147.4-89.2-.2.2c-10.6-10.6-21.2-21.2-31.8-31.9-.7-.7-1.5-1.3-1.9-2.2-.4-.8-1.3-1.8-.2-2.6 1-.7 1.6.4 2.2.9 7.9 6.9 14.9 14.8 22.5 22.1 9.9 9.6 19.5 19.4 29.3 29.2 5.6 5.6 11.3 11.2 16.9 16.8.6.6 1.4 1.1.8 2-.6.9-1.5.4-2.2.1-1.4-.5-2.4-1.5-3.5-2.6-10.6-10.7-21.2-21.4-31.9-32zM555.1 447c-1.6-.8-3.3-.2-4 .8-.8 1.1 1 2 1.7 2.8l13.2 13.2c.8.8 1.1 1.3.3 2.2-1.6 1.6-3.1 3.3-4.7 4.9-1.5 1.5-3.2 1.5-4.7 0-4.3-4.2-8.5-8.4-12.7-12.7-1.3-1.4-1.4-2.9-.1-4.3 2.3-2.4 4.6-4.8 7-7.1 1.4-1.3 2.8-1.4 4 .2zM361.7 201.5c2.8-3.3 3.2-3.4 5.1-1.4 6.1 6.4 12.5 12.6 18.7 19 7.9 8.2 16.2 16.1 24.2 24.1 3.4 3.5 3.3 3.5-.2 7-1.3 1.3-2.2 1.2-3.4-.1-3.4-3.5-6.9-6.9-10.3-10.3-.8-.8-2.1-1.5-.1-2.7.7-.4.4-1.7-.2-2.4-.7-.9-1.5-1.7-2.3-2.5-.9-.9-1.4-1.6-.5-2.9 1.1-1.6-.6-2.2-1.4-3.2-.8-.9-1.7-1.3-2.7-.3-1.3 1.2-2.1.4-3.1-.5-.9-.9-1.4-1.7-.3-2.9 1.6-1.7 0-2.7-1-3.8-1.1-1.2-1.9-1.3-3-.1-1.2 1.4-2.2.5-3.2-.5-1.1-1-1.8-1.8-.7-3.2.7-.8 2-1.6.4-2.7-1.2-.8-2.1-3.4-4.2-1.1-.8.9-1.9.9-2.7-.2-.7-.9-2.2-1.6-1.1-3 .8-1 1.6-2 .3-3.1-1.1-1-2-2.8-4-1.3-.6.5-1.2.1-1.7-.3-.8-.5-1.7-1-2.6-1.6zm33.1 253c2.6.1 4.3-1.3 5.9-2.9 9.1-9.2 18.2-18.4 27.4-27.5 1.2-1.2 2.2-2.4 2.5-4.1.2-1 .5-1.3 1.4-.7.5.3 1.2.4 1.8.6 2.1.6 2.6 1.6 1.3 3.5-.5.7-1.1 1.4-1.8 2-8.4 8.6-16.7 17.2-25.2 25.7-2.5 2.5-4.7 5.7-8 7.3-2.5 1.2-3.5.7-4.4-1.9-.2-.5-.5-1.1-.9-2zm208.2 3.4-3.4 3.4c-1 1-1.8.2-2.5-.5-.5-.5-1.3-1-.4-1.8 2.1-1.8.3-2.8-.7-3.9-1.1-1.1-2.1-2.6-4-.7-1.3 1.3-1.9-.4-2.7-1-.7-.6-1.8-1.3-.8-2.3 1.3-1.3 1.1-2.4-.2-3.2-1.5-1-2.1-4.3-4.9-2.1-.5.4-1 .5-1.5 0s-1-1.1-.5-1.7c1.2-1.4 1.6-3.1 2.9-4.5 2.4-2.5 4.8-5 8.2-6.2.7-.3 1.2-.2 1.7.2.8.7.5 1.3-.1 1.8-.9.8-1 1.5-.2 2.5 2.7 3.4 2.6 3.4-.4 6.4-.5.5-1.1 1-1.6 1.5-2.3 2.2-2.3 2.3 0 4.6.4.4.8.8 1.1 1.3.8 1.3 1.8 1.3 2.8.2l3.8-3.8c2.3-2.2 2.3-2.3 4.5.1.9 1 1.7 1.8 2.9.3.6-.8 1.3-.9 2-.2.8.7 1 1.5.1 2.3-2.1 2.4-3.7 5.2-6.1 7.3zM402.3 589.5l-.3.3-2.6-2.6c-2.9-2.9-5.9-5.8-8.8-8.8-.6-.6-1.7-1.3-.6-2.4 1.1-1 1.7.1 2.4.7l.2.2c6.4 6.3 12.8 12.6 19.1 18.9 12.7 12.6 25.3 25.3 38 38 4.6 4.6 9 9.4 14 13.5.4.3.7.7.4 1.2-.3.5-1.1.7-1.2.5-.7-1.7-2.7-1.2-3.7-2.3-1.8-2-3.8-3.7-5.7-5.6-3.2-3.2-6.3-6.5-9.5-9.7-3.2-3.2-6.3-6.6-9.6-9.6-3.2-3-6-6.4-9.2-9.4-7.8-7.6-15.3-15.3-22.9-22.9zM664 606.2l.3.3c-5.7 5.7-11.4 11.5-17.1 17.2-1 1.1-1.9 1.3-3 .1-1.1-1.1-1.2-1.9 0-3 11.6-11.3 22.5-23.3 33.9-34.8 1-1.1 1.9-1.3 3-.1 1.1 1.1 1.1 2 0 3.1-5.7 5.7-11.4 11.5-17.1 17.2zm-174.4-94.3c.9-.9 1.7-1.8 2.6-2.6 2.6-2.2 6.7-2.5 9.5-.8 2.7 1.6 2.8 2.5.7 4.6-.5.5-1 1.1-1.5 1.5-1.7 1.5-1.5 2.9 0 4.3l1.2 1.2c1.1 1 .6 2.1.2 3.1-.5 1.3-1.4.7-2.3.5-3.4-.8-6.2 0-8.6 2.5-.5.5-1 1-1.6 1.5-.8.7-1.5.3-2.1-.3-.6-.6-.7-1.2-.1-1.9.5-.6 1.1-1.2 1.7-1.7 2-2.1 2-2.8.1-4.9-4.1-4-3.6-3.1.2-7zm-31.9 32 1.3-1.3c2.4-2.4 2.4-2.4 4.7.1l.2.2c2.8 2.6 3.7 3.7 6.3.2.2-.3.6-.6.9-.8 1.2-.7 2.1.3 2.8.8.8.5-.2 1.2-.6 1.7-.3.4-.6.7-1 1.1-2.7 2.4-3.9 5.3-2.7 8.9.4 1.1 0 1.9-.9 2.5-1.2.8-1.8-.2-2.4-.9-3.3-3.1-3.8-3.1-6.8.1-2.4 2.6-3.4 2.5-5.1-.7-.3-.6-.6-1.3-.7-2-1-4.5 1.4-7.5 4-9.9zm44.4-199c-.1-.2-.2-.4-.4-.5.5-.3 1.1-.5 1.3-1 .9-1.5-.1-2.6-1.1-3.3-1.5-1.1-2.5-4.3-4.7-2.7-2.1 1.5-3 .3-3.9-.7-3.4-3.8-7.2-7.2-10.8-10.7-4.5-4.5-4.1-3.1.1-7.6 1-1 1.8-1.1 2.8-.1 6.8 6.9 13.6 13.7 20.4 20.5.5.5 1.3 1.1.7 1.9-1.2 1.6-2.5 3.2-4.4 4.2zm8.3 226.1c1.3 8.8 6 15.3 11.1 21.6-1.2-1.1-2.4-2.1-3.5-3.3-3.6-4-6-3.9-9.6 0-1.5 1.6-3.1 3.1-4.7 4.8.4-2.1-.4-3.7-1.9-5-1.2-1.1-2.4-2.2-3.5-3.3-.8-.7-1-1.4-.2-2.3 4-4.1 8-8.2 12.3-12.5zm-90.9-99c.6.7.4 1.2.1 1.5-1.7 1.8-3 4-4.8 5.7-7.1 7.1-14 14.4-21 21.5-3.2 3.3-6.5 6.6-9.8 9.8-1.3 1.3-3.6 1.4-4 3.9-.1.7-.8 1.4-.1 2.2.6.8 1.3.8 2.2.3.4-.2 1-.4 1.3.1.1.2.2.7 0 .9-2.2 2.3-3.9 5.2-6.8 6.4-3.3 1.3-6.9 1.5-10.5 1.6 18.5-17.2 35.3-36.1 53.4-53.9zm111 64.9c2.6 2.5 2.7 7.6.2 10.6-1.5 1.8-3.3 3.4-4.9 5.1-1 1.1-1.8.9-2.9-.1-3.7-3.3-3.7-3.3-7.9-.3-.7.5-1.3.7-1.9.1-.7-.7-.1-1.2.3-1.6 3.3-3 4.9-6.5 3.3-11.1-.4-1.1.4-1.8 1.2-2.4.8-.5 1.3 0 1.9.5 3.8 3.3 3.8 3.3 7.5-.3.2-.2.4-.3.5-.5 1-1 1.9-.8 2.7 0zm39 37.9c-3 2.7-5.6 5.2-8.3 7.4-1.9 1.5-4 2.8-6 4.1-1.8 1.2-2.4-.6-3.3-1.4-1.1-1.1.2-1.5.8-2 10.1-7.9 19-17 26.4-27.5.3-.4.4-1.1 1.2-.7 1.5.6 2.2 2.5 1.4 3.9-3.4 6.1-8 11.3-12.2 16.2zm-73 7.7c-.9 1.1-2.4 2.3-4.1 3.3-2.4 1.5-6.3 1.3-8.5-.4-1.3-1.1-1.9-2.1-.3-3.5 1.2-1.1 2.9-2.1 3.1-3.9.3-2-1.8-2.7-2.8-4-.7-.8-.4-1.4 0-2.2.4-1 1-.9 1.7-.6 4.1 1.6 7.4.3 10.2-2.8.6-.6 1.3-1.9 2.4-.9 1 1-.1 1.7-.7 2.4-3 3.2-3 3.3.1 6.4 2.5 2.5 2.5 2.5 0 5.1-.2.3-.5.5-1.1 1.1zm20.1 29.1c2.7-2.8 5.5-5.5 8.2-8.3 2-2 3.2-.4 4.7.8 1.5 1.3 1.6 2.4 0 3.7-1.4 1.2-2.6 2.7-3.9 3.9-1.3 1.2-1.6 2.3-.1 3.6.7.6 1.3 1.3.4 2.3-.9.9-1.6.4-2.3-.3-1.4-1.6-2.5-1.2-3.8.2-.6.7-1.1 1.4-2.4 1-2.1-.7-3.8 1-3.4 3.3.3 1.4-2 4.3-3.2 4-1.5-.5-2.5-1.8-3.2-3.1-.6-1.2 0-2.2.9-3l8.1-8.1zM319.2 452.9c-5.4-5.4-5.4-5.4.1-10.6l.2-.2c2-1.9 3-2 5-.1 1.9 1.8 3.8 3.8 5.7 5.7 1.4 1.4 1.2 2.7 0 4-1.5 1.6-3.1 3.1-4.6 4.7-1 1-1.8 1.1-2.8 0-1.2-1.2-2.4-2.3-3.6-3.5zm210.6 160c.5-.7 1.1-.5 1.4-.3 2.2 1.4 4 3.3 5.5 5.4.7.9.5 2.1-.3 2.9-3 3.2-6.1 6.3-9.2 9.3-.8.8-2 1-2.9.3-1.8-1.2-3.3-2.7-4.3-4.6 2.4.5 3.3 2.9 5.4 4.5-.2-2.2-1.2-3.3-2.3-4.1-1.8-1.3-1.6-3.3-1.7-5-.1-1.1 1-2.4 2.7-2 2.5.5 4.1-1 3.6-3.6-.1-.6-.2-1.1.3-1.5.7-.5 1.2-.2 1.7.3l3.6 3.6c.7.6 1.4 1.4 2.9.8-2.6-1.9-4.7-3.8-6.4-6zM429.5 342.6c1.3 1.2 2.5 2.5 3.8 3.8.9.9.9 1.6 0 2.4-1.7 1.6-3.5 3.1-5.1 4.7-1.3 1.3-2.5 1.2-3.7-.2-1.1-1.2-2.4-2.2-3.5-3.3-5.1-5.3-5.1-3.9 0-9.2 4-4.2 3.2-3.3 6.6-.1.6.7 1.2 1.3 1.9 1.9zm59.1 245.6c-3.6 3.6-6.9 7-10.3 10.3-.6.6-1 .8-.2 1.6 2.3 2.2 4.5 4.6 6.8 6.9 1.2 1.2 2.5 1.3 3.8 0l11.5-11.5c1.4-1.4 1.3-2.6-.1-4-1.5-1.4-3-2.9-4.5-4.4-.3-.3-.8-.8-.3-1.2.5-.5.9 0 1.2.4 1.2 1.3 2.5 2.5 3.7 3.8 2.2 2.3 2.2 3.6.1 5.8-3.7 3.8-7.4 7.5-11.1 11.2-2.2 2.2-3.3 2.1-5.5 0-3.5-3.4-7-6.8-10.4-10.2-1.6-1.6-1.7-3.4 0-5.2 1.8-1.9 3.8-3.8 5.6-5.7.8-.8 1.6-1.1 2.5-.3 1.9 1.7 4.3 2.3 7.2 2.5zm107.2-118.7c1.4 1.4 2.8 2.9 4.3 4.3.9.9 1.1 1.7.1 2.7-1.7 1.6-3.3 3.3-5 5-.8.8-1.5 1-1.7-.5-.3-2.1-1.6-3.7-3.6-4.1-1.8-.3-2.9-1.4-4-2.4-2.9-2.7-2.9-2.7-.3-5.5.5-.5 1-1.1 1.5-1.6 3.6-3.6 2.8-3.5 6.4.1.8.5 1.5 1.2 2.3 2zM487 405.4c-.1 1.8-1.1 2.4-1.8 3.1-11.4 11.4-22.7 22.9-34.1 34.3-4.1 4.1-8.3 8.2-12.4 12.4-1.2 1.3-3.4 1.3-4 3-1.1 2.8-3.4 4.5-5.5 6.4-1.2 1.1-2.5 2.6-4.4 2.6 20.3-21 40.7-41.6 62.2-61.8zm-294.9-26.2c.1-.2.1-.3.2-.5 7.4 1.1 14.7 2.2 22.1 3.4 1.3.2.7 1 .2 1.5-2.5 2.7-5.1 5.4-7.7 8.1-.6.6-1.3 1.1-2.1.3-4.2-4.3-8.4-8.6-12.7-12.8zm161.6-162.7c.2-.1.4-.2.6-.2 4 4 8 8 11.9 12 .7.7 1.3 1.5.6 2.3-2.9 3.1-5.7 6.4-9.4 9.1-1.2-7.9-2.4-15.5-3.7-23.2zm44.4 102.3c2.1-3 5.2-4.6 6.4-7.9.2-.5.8-.4 1.3-.1 1.8.8 2.1 2.3.7 3.8-.9 1-1.8 2-.6 3.3 2.6 2.6 5.2 5.2 7.3 8.3.4.7 1.1 1.3 1.8 1.6 3.2 1.3 5 4.3 7.5 6.5 1.1.9 1.4 1.8.2 3-1.2 1.1-1.9.9-3-.2-4.8-4.9-9.8-9.7-14.6-14.6-2-1.9-3.8-3.8-7-3.7zm-39.3 184c.2-.1.4-.2.5-.3l12.4 12.4c.8.8 1 1.6.1 2.5l-8.8 8.8c-1.4-7.9-2.8-15.7-4.2-23.4zm125 14.7c1.7-.7 2.4.3 3 .9.9.9 3 1.5 1.7 3.4-1 1.5-1.9 3.7-4.5 2.4-.9-.5-1.7.2-2.3.9-3.5 3.5-7 7-10.4 10.5-.6.6-1.5 1.5-1 2.3 1.3 2.2-.4 2.9-1.5 4.2-1.3 1.5-2.3 1.7-3.7.2-2.6-2.8-2.7-2.9-.8-4.8 5-5 9.9-10 14.9-15 .8-.8 1.6-2.1 2.6-.1.3.7 1.3.6 2 .4 1.2-.3 1.8-1.2 2.2-2.4.3-1.6-1-2.1-2.2-2.9zm-6.2 61.9c-6-6-11.9-11.9-17.7-17.8-.5-.5-1.3-1-1.2-1.7.2-1.7 1.8-2.4 2.8-3.5.6-.6 1.4-.5 1.9.1.9 1.1 2.7 1.7 2.5 3.6 0 .2-.1.3-.2.4-.4 1.1.1 1.9.8 2.6l10.8 10.8c.6.6 1.4 1.2 2.4.8 3-1.4 3.7 1.6 4.9 2.9 1.4 1.4-.9 2.1-1.6 3.4-.5-1.9-1.1-3.5-3.1-3.8-1.4-.2-1.8.9-2.3 2.2zm2.1-197.1c.1-.2.2-.3.3-.5 6.8 1.2 13.7 2.4 20.5 3.6 1.4.3 1.3.8.5 1.7-2.3 2.5-4.6 5-6.9 7.4-.7.8-1.4.7-2.1 0-4.1-4-8.2-8.1-12.3-12.2zm-244.3-45c2.9 5.2 8.3 7.2 13.2 5.3.7-.3 1.3-.5 1.9.2.7.8 1.6.7 2.4-.1.7-.7 1-1.5.3-2.4-.6-.7-.6-1.3-.3-2 1.8-4.3.4-8.1-2.3-11.3-1.4-1.6-.1-2 .5-2.9.8-1.3 1.3 0 1.6.3.6.9 2.8 1.3 1.1 3-.7.6-1.1 1.2-.6 2.1.5.8 1.2 1.1 2 .7 1.3-.5 1.5.1 1.7 1.2.8 5.4-1.2 9.7-5.3 12.8-3.7 2.8-8.1 3.4-12.8 1.6 1.1-.8 2.1-1.4 1.6-2.7-.3-.7-.9-.9-1.6-.8-1.4.2-1.7 1.2-1.5 2.7l-9.9-9.9c1.3-.3 2.4-.6 2.7-1.9.6.7 1.1 1.3 1.6 1.8.9.9 2.6 1.4.7 3-.5.4-.4 1.5.4 1.9.7.5 1.4.2 2-.3.5-.5.5-1.2.6-2.3zm216.9 81.4c1.3 1.3 2.2 2.3 3.2 3.1 1.3 1.2.8 1.9-.6 2.4-2.8.9-5.5 1.7-8.3 2.4-1.2.3-2.4-.1-3.3-1-1.8-1.8-3.6-3.5-5.3-5.3-.9-.9-1.1-1.6.4-2 2-.5 4.1-1 6-1.8 3.4-1.4 6.3-.9 7.9 2.2zm47.5 136 4.8-4.8c1.1-1.2 2-1.1 3 0 1.1 1.3 3.2 2.1 1.8 4.4-.3.5.3 1 .6 1.5.4.5.9 1 .3 1.7-.7.8-1.3.4-1.9-.2-1.1-1.1-2-.6-2.9.3-1 1-1.2 1.8 0 2.8.5.4.7.9.3 1.5-.5.7-1.2.5-1.7 0-1.1-1.1-2-.9-3.1.2-1.2 1.2-1.2 2.1-.1 3.3.5.6.5 1.2-.1 1.7-.7.6-1 0-1.4-.4-1.4-1.3-2.8-2.7-4.2-4-1.2-1.1-1.3-2.1 0-3.3 1.6-1.5 3.1-3.1 4.6-4.7zM295.3 421.8c-.1 3.3 1.6 5 3.4 6.8 4.4 4.3 8.7 8.7 13.1 13 .7.7 1.5 1.5 2.2 2.3.8.9.4 1.6-.3 2.3-.7.7-1.3.9-2 .1-.8-.8-1.6-1.6-2.5-2.2-2.8-2-3.8-5.7-6.6-7.6-2.9-1.9-5.2-4.3-7.7-6.6-1.1-1.1-2.2-1.2-3.4 0-.5.5-.9 1-1.5 1.3-1.3.8-1.8-.3-2.2-1.1-.3-.6-1.6-1.5-.3-2 3.1-1.2 4.7-4.2 7.8-6.3zm209.6 114-4.8-4.8c-.6-.6-1.4-1.3-.8-2.1.8-1.1 1.7-2.1 2.7-3 .8-.7 1.5 0 2.2.4.8.4 1.4-.1 1.9-.6.5-.4 1-.9 1.7-.3.5.5.2 1.1-.2 1.5-1.2 1-.9 1.9 0 2.9s1.8 1.3 2.9.3c.5-.4 1.1-.9 1.7-.3.6.6.3 1.2-.2 1.7-1.2 1.2-.7 2.1.3 3.1s2 1.3 3 .1c.4-.5.9-.7 1.5-.2.7.6.4 1.2-.1 1.7-1.5 1.5-2.6 3.3-4.2 4.7-1.1 1-1.9.8-2.8-.2-1.6-1.8-3.2-3.3-4.8-4.9zm-39.4-100.7s0 .1 0 0c-7.8 8-15.7 15.9-23.6 23.8-.5.5-1 1.7-1.9.8-.8-.8.2-1.4.7-2l.7-.7c14.7-14.7 29.4-29.5 44.1-44.2 1-1 2.1-2 3.1-3 .4-.4.8-.7 1.2-.3.4.4.3.9-.1 1.3l-1.2 1.2c-7.7 7.7-15.3 15.4-23 23.1zm-69.6 41.3s0-.1 0 0c-1-1.1-2.1-2.2-3.2-3.3-.5-.4-.6-.9-.4-1.5l2.4-9.6c.3-1.3.9-1.6 1.9-.6 1.8 1.8 3.6 3.5 5.3 5.4 1.1 1.2 1.5 2.6 1.1 4.3-.8 2.6-1.5 5.3-2.2 7.9-.4 1.6-1.1 1.2-2 .4-.9-1.1-1.9-2.1-2.9-3zm85.6 82.4s.1 0 0 0c1.5 1.4 3 3 4.5 4.4.8.7 1.8 1.5.9 2.6-1 1.2-1.7 3.3-3.8 2.5-1.1-.4-1.8-.3-2.6.5-.5.5-1.2 1-1.9.3-.6-.6-.1-1.3.4-1.7 1.5-1.3.6-2.2-.4-3.2-1.1-1.2-1.9-.9-2.7.3-.4.6-1.1.8-1.7.3-.7-.6-.4-1.2.1-1.7 1.1-1 1.2-1.9.1-3-1-1-2-1.8-3.3-.4-.5.5-1.2.7-1.7.1s-.2-1.2.3-1.7c1.3-1.3 2.6-2.7 3.9-4 1-1.1 2-1.1 3.1 0 1.6 1.5 3.2 3.1 4.8 4.7zm4.5-18.7.2.2-5.1 5.1c-.5.5-1.1.9-1.7.4-1.2-1-2.3-2.1-3.3-3.2-.7-.8.4-1.4.6-2.1.2-.6-.1-1.1-.4-1.6-.3-.5-.8-.9-.3-1.5s1.1-.3 1.5.2c1.2 1.3 2.1.4 3-.4 1.3-1.1.5-1.8-.2-2.6-.5-.6-.5-1.1 0-1.7.5-.6 1-.4 1.5 0 1.1 1.1 2.1 1.2 3.3 0 1.2-1.2 1-2.2-.1-3.3-.5-.5-.5-1.2.1-1.7.6-.4 1-.1 1.5.4 1.3 1.3 2.6 2.6 4 3.8 1.4 1.2 1.2 2.2-.1 3.4-1.5 1.5-3 3.1-4.5 4.6zm17.4-26.1c1.3 2.3 2.5 4.5 5.4 2.1.6-.5 1 .2 1.4.6l16.8 16.8c.5.5.9.9.7 1.7-.3 1-3.2 3.4-4 3.2-1.5-.3-3.1-2.9-2.8-4.6.2-1.1-.2-2-1-2.8-3.5-3.5-7-6.9-10.5-10.4-.9-.9-1.7-1.1-3-.8-2.4.6-3.3-1.7-4.4-3.1-1-1.2.6-1.8 1.4-2.7zm-1.9 63.2c-2.2-.1-3.1-1.8-4.2-3.3-.1-.2 0-.7.2-.9 1.4-1.1 2-3.6 4.6-2.4 1 .5 2-.4 2.8-1.1 3.4-3.5 6.7-7 10.1-10.5.5-.5 1.3-1.2 1-1.8-1.2-2.6.9-3.6 2.2-5 1.5-1.6 2.4-.3 3.4.6 1 1 2.3 1.8.7 3.4-5.2 5.3-10.3 10.7-15.5 16.1-.6.6-1.2 1.2-2.1.5-1.3-1.1-2.4-1-3.5.3-1.4 1.4-.8 2.7.3 4.1zm19.7 109.4c-3.4 3.4-6.8 6.9-10.3 10.3-.7.7-1.5 1.6-2.3.3-.7-1.3-1-2.7.3-4 6.8-6.2 13.3-12.7 19.7-19.3.9-1 1.8-1.9 3.2-.5 1.3 1.4.3 2.1-.6 3-3.2 3.4-6.6 6.8-10 10.2zm28.5-285.5-.9.9c-2.9 3-2.9 3-6.1.2-.8-.7-1.5-1.3-2.5-.5-.6.5-1.2 1.2-2 .3-.8-.8-.5-1.5.1-2.3 3.1-3.8 5.6-8.2 10.7-9.9.6-.2 1-.4 1.5.1.6.6.7 1.3.1 1.9-1 1.1-.8 1.9.1 2.9 2.5 2.9 2.5 2.9-.2 5.6-.3.2-.6.5-.8.8zm-72.8 263.5c2.3-2.2 9.5-2.2 11.9 0 .6.5.5.9 0 1.4l-11 11c-.6.6-1.1.4-1.6-.3-2.1-2.8-1.7-9.7.7-12.1zm8.9-71.1s-.1 0 0 0c1.5-1.7 3.1-3.3 4.7-4.9.6-.6 1.2-1 2.1-1.2 2.3-.5 3.1 1.3 4.2 2.6 1.2 1.3-.3 1.9-.9 2.5-3.5 3.5-7.2 7-10.8 10.4-1.9 1.8-2.6-.2-3.7-1.1-1-.9-2.2-1.9-.6-3.4 1.7-1.5 3.3-3.2 5-4.9zm73.9-179.6-.1-.1-3.8 3.8c-.7.7-1.3.8-2 0-.6-.7-1.6-1.4-.7-2.2 2-2 .5-3.2-.8-4.3-1.1-1-1-1.8.1-2.7 1.5-1.3 3-2.7 4.3-4.3 1.4-1.6 2.5-1.4 3.6.2.9 1.4 1.9 2.1 3.2.5.8-.9 1.5-.6 2.2.1 1 .8.5 1.5-.1 2.2-2.1 2.3-4 4.6-5.9 6.8zm32.5 205.6c1.9 1.9 3.8 3.8 5.6 5.7.4.4 1.3.8 1 1.5-.4.9-1.3.4-1.9.4-.2 0-.5-.1-.7-.2-6.2-2-11.4-6-17-9.3-.9-.5-1-1.6-.9-2.6.2-1.1 1.1-.9 1.9-1.1.9-.2 1.9-.4 2.8-.9 1.4-.8 2.4-.5 3.4.6 1.9 2.1 3.8 4 5.8 5.9zm-86.7 72.7c-.1.1-.3.1-.4.2-5-5-10-9.9-14.9-15-4.3-4.4-4.5-3.1 0-7.9 1.3-1.4 2.1-1.3 3 .3 4.1 7.6 8.2 15 12.3 22.4zm-16.7-315-.3-.6c3.7-3.8 7.5-7.5 11.3-11.3 1-1 1.4-.2 1.5.8.3 1.8 1.7 3.4 3.2 3.7 1.7.3 2.4 1.5 3.4 2.4 1.4 1.3.8 2.2-.8 2.4-6.2.9-12.3 1.7-18.3 2.6zM353.9 535.8c-.2-.1-.4-.1-.5-.2 1.2-9.6 2.5-19.3 3.7-28.9 1.6 6.8 2.9 13.6 4.2 20.4.1.7 0 1.3-.5 1.8l-6.9 6.9zm205.8-36.7c-.2-.2-.4-.3-.5-.5-1.1-1.3-1.3-2.9-1.3-4.5 0-1.7 1.6-.6 2.2-1.2.8-.9 2-1.4 2-2.9 0-1.1.5-1.3 1.5-1.4 3.6-.4 7 2.8 6.8 6.5-.1.9-.1 1.6-1.5 1.6-1.6-.1-3 1.1-2.8 2.6.3 2-.9 1.8-1.9 1.8-1.7-.1-3.3-.7-4.5-2zm-76-118.8c3.2-1.2 6-1.1 8.8-1.5 5.3-.8 10.7-1.5 16-2.2.7-.1 1.6-.5 2 .2.5.8-.5 1.2-.9 1.8-1.2 1.6-2.9 2.7-4.1 4.4-.4.6-1.1 1.1-2.1.9-6.4-1.2-12.8-2.3-19.7-3.6zm139.1 222.2c-4.1-4.1-7.6-8-11.5-11.4-2.3-2.1-3.5-4-1.8-6.9.4-.8-.1-2.2 1.3-2.3 1.1 0 2.1.5 2.8 1.6 2.1 3.6 4.4 7 6.4 10.6 1.3 2.4 2.8 4.7 2.8 8.4zM494.2 492.4c-1.2-.6-1.9-2.2-3.1-1-.9.9-1.9 1.8-2.6 2.9-.8 1.3 1.4 1.9.9 3.3-1.4-.4-2.6-2.6-4.3-.4-1.9 2.3-2.1 2.2-.5 5.9-1.9-1.6-3.4-1.9-5.3-.4-.8.7-1.8-.6-2.2-1.6-.7-1.6.3-2.8 1.3-3.9 1.8-1.9 3.6-3.7 5.5-5.5 5-5.1 5.1-5 10.3.7zm-69.5-16.2c-1.4 1.4-2.6 2.6-3.8 3.9-4.8 5-9.6 10.1-14.5 15.1-5.9 6-11.8 11.9-17.8 17.9-.7.7-1.5 2.5-2.6 1.5-1.2-1.1.6-1.9 1.3-2.6 10.3-10.4 20.7-20.7 30.7-31.3 1.7-2.1 3.6-3.9 6.7-4.5zm77.7-87.3c-.2 1.3-.2 2.9-.6 4.3-.6 2.2 0 4.7-1.5 6.5-1.9 2.5-4.3 4.6-6.5 6.9-.3.4-.8.6-1.3.4-.6-.3-.3-.7-.2-1.2.4-1.8-.4-2.5-2.2-2.2-.3.1-.7.5-.8-.3 1.2-1.5 2.7-2.8 2.5-5 0-.5.3-1.2 1.1-.9.6.2 1 0 1.5-.5l8-8zm-66.8 21.2c1.1-1.1 2.1-2 3-3 .8-1 1.4-.8 2.2 0 1.7 1.8 3.4 3.7 5.3 5.3 1.9 1.7 1 2.2-.8 2.7-2.6.7-5.1 1.5-7.7 2.2-2.1.6-4-.3-5.1-2.4-1-1.8 1-2.1 1.6-3 .4-.8 1-1.3 1.5-1.8zm67.8 299.5.4-.4c17.1 17.2 34.3 34.4 51.4 51.6l-.4.4c-17.1-17.2-34.3-34.4-51.4-51.6zM390.9 471.5c-2.5-2.7-5.1-4.8-7.1-7.4-.7-.8-.9-1.3 0-2.2 1.7-1.5 3.1-3.2 4.8-4.7.6-.5 1.1-2.1 2.2-1.2 1.2 1 3.4 1.8 3 3.7-.7 3.8-1.8 7.6-2.9 11.8zm157.5 121.2c0-.1 0-.1 0 0-2.3-2.4-4.6-4.7-7-7.1-.5-.5-1.2-.9-.6-1.8 1.1-1.6 3-1.8 4.2-.3 3.2 3.7 6.5 7.4 9.7 11.1 1 1.2 1.8 2.2 3.6 1.6.8-.3 1.4.1 1.6 1 .1.7 1.1 1.2.5 2-.9 1.3-4 1.5-5.2.4-2.2-2.4-4.5-4.7-6.8-6.9zm42.4-38.7c1.3 1.3 2.4 2.7 3.8 3.7 1.8 1.4 1.9 3 .9 4.9-.4.8-.8 1.5-1.8 1.2-.9-.3-2.1-.6-1.7-1.9.5-1.9-.5-2.9-1.7-3.9-3.8-3.3-7.5-6.6-11.4-9.8-1.7-1.4-.4-2.3.2-3.3.9-1.4 1.6-.3 2.3.3 3.1 3 6.4 5.7 9.4 8.8zm-43.5 89.3.2.2c-3.1 3.1-6.1 6.2-9.2 9.2-.8.8-1.5 1.9-2.7.6-1.1-1.2-.2-1.9.6-2.6 6.2-6.3 12.4-12.5 18.6-18.8.7-.7 1.3-1.5 2.4-.5 1.2 1.1.2 1.7-.5 2.4-3.2 3.2-6.3 6.3-9.4 9.5zm-36.4-52c.6-.6 1.3-1.4 2.1-2.1.8-.8 1.5-.6 2.1.4 2.5 3.7 2.3 5.7-.8 8.9l-1.2 1.2c-1.3 1.6-2.9 1.9-4.7 1.1-.9-.4-1.8-.8-2.7-1-1.6-.4-1.4-1.1-.6-2.2 1.5-2.3 4-3.8 5.8-6.3zm160-61.4c-1.4.8-2.9 1.9-1.7 2.9 2.2 1.9.3 2.6-.6 3.6-1 1.1-2 2.1-3.2 3.3 0-1.1.3-2.3-1.1-2.5-.9-.2-1.6.3-1.9 1.1-.6 1.6 1.1 1.8 2 2.6-.7.7-1.4 1.2-1.9 1.8-1.1 1.2-2 2.9-3.9.9-.5-.5-1.4-.1-1.9.6-.4.6-.2 1.2.2 1.8.3.5 1.2.5 1.3 1.3-1 1-1.9 2-2.9 2.9-.9.8-1.7 1.8-2.8.2-.5-.8-1.4-.6-2.1.1-.6.7-.6 1.5 0 2.2.5.5 1.2.4 2 .4-1.1 1.5-2.2 1-3 .2-1.1-1.1-.2-1.9.5-2.7 6.2-6.5 12.4-12.9 18.7-19.3.4-.8.9-1.5 2.3-1.4zM302.3 279.5c-3.6-3.6-6.9-7-10.3-10.4-1.4-1.4-1-2.2.8-3.1-.4 1.2-1 2.2-.1 3.1.5.5 1.2.5 1.8 0 1.2-1 1.9-.1 2.7.6.9.8 1.6 1.6.7 2.9-.5.7-.2 1.4.4 2 .6.5 1.3.5 1.8 0 1.3-1.6 2.1-.6 3.1.3 2.9 2.5 6.1 4.2 10 2.9 1.8-.6 3.3-1 4.6.7-3.9 3.1-8.2 4.3-13.2 2.2.8-1 1.8-1.6 1.4-2.9-.2-.6-.7-.9-1.3-.9-1.6.1-1.9 1.3-2.4 2.6zm-92.4 36.3c.3-1.5 1.1-2 1.7-2.6 4.4-4.4 8.8-8.8 13.3-13.2 6.4-6.3 12.8-12.6 19.2-18.8 1-1 2.1-3.2 3.1-2.3 1 1-1.3 2.2-2.2 3.1-10.3 10.2-20.8 20.4-31.2 30.5-1.2 1.3-1.9 2.7-3.9 3.3zm62.1-63.2-.2-.2c5.9-5.9 11.8-11.8 17.6-17.7.5-.5 1-1.5 1.7-.9.8.8-.3 1.4-.8 1.9-2.7 3.1-5.9 5.7-8.7 8.7-6.6 7-13.5 13.7-20.3 20.6-2 2-3.8 4.2-5.8 6.2-.5.5-1.2 1.6-2 .8s.4-1.4.9-1.9c5.9-5.8 11.8-11.6 17.6-17.5zm464.7 323.7c-17.2-16.9-34.9-33.3-51.3-50.9 17.4 16.7 34.7 33.5 51.3 50.9zM602 439.6c-2.7-2.6-5.3-5.3-7.9-7.9-.5-.5-1.1-1-.6-1.7.4-.6 1.2-1 1.9-.7.6.3 1 .8 1.5 1.2 3.6 3.5 7.2 7 10.7 10.6 1.3 1.3 2.8 2.5 4 3.8.7.8 1.2 1.9.3 2.8-1.1 1.1-1.7-.1-2.4-.7-2.4-2.3-4.9-4.9-7.5-7.4zm-68.2-53.8-4.8 4.8c-.7.7-1.5 1-2.3.2-.8-.7-1.3-1.5-.5-2.5 2.9-3.6 5.7-7.4 9.5-10.3 1.4-1 2.1-.6 3 .4 1.1 1.2.5 2-.4 2.9l-4.5 4.5zm103.8 256.8c3.4-3.5 6.2-5.7 9.2-7.6.8-.5 2-.8 2.7.2.8 1.1-.6 1.3-1.1 1.7-3.2 3-6.9 5.2-9.6 8.8-1.8 2.4-3.7 4.7-5.5 7.1-.3.4-.5 1-1.1.8-.6-.2-.8-.7-.9-1.3-.2-.9.2-1.6.7-2.3 2-2.9 3.9-5.8 5.6-7.4zM351 273.9c-.3 1.6-1.3 2.7-.9 4.4.1.6-.7 1.3-1.5 1.2-2.6-.1-3.6 1.4-3.8 3.8-.1 1.1-.7 1.6-1.7 1.7-2.5.2-3.7 1.6-4 4-.1.9-.5 1.5-1.5 1.6-2.4.4-4.1 1.4-4.1 4.2 0 .7-.5 1.2-1.2 1.3-2.7.3-4.2 1.7-4.4 4.5 0 .6-.6 1.2-1.3 1.2-.5.1-.9-.3-1.2-.7-.5-.7-.2-1.2.3-1.7l1.2-1.2c7.1-7.1 14.1-14.2 21.2-21.4 1-.9 1.9-1.9 2.9-2.9zM245 399.2l.6-.6c18.2 18.3 36.4 36.5 54.6 54.8-18.8-17.6-36.9-36-55.2-54.2zm283.4-15.6c-.2.2-.3.4-.5.5-1 .6-1.6 2.2-3.2.7-1.5-1.5-.2-2.2.6-3.2 3.3-3.7 6.6-7.3 9.8-11 .9-1 1.6-1.2 2.5-.2.8.8 1.8 1.6.5 2.8-3.5 3.2-6.6 6.9-9.7 10.4zm83.4 67.2-.5-.5 2.2-2.2c1-1 1.6-.4 2.4.4.7.8 1.3 1.4.2 2.4-3.9 3.2-6.7 7.5-10.4 10.9-.8.8-1.4 2.4-3 .8-1.4-1.4-.5-2.3.5-3.2 2.9-2.8 5.7-5.7 8.6-8.6zm0 12.7-5 5c-.8.8-1.6 1.1-2.5.2-.8-.8-.9-1.6-.2-2.6 2.8-3.9 6.1-7.3 9.9-10.2 1.2-.9 1.9-.5 2.6.4.7.8.9 1.6-.1 2.5-1.6 1.4-3.1 3.1-4.7 4.7zm-26.4-26.7-2.9 2.9c-.9.9-1.6.7-2.5-.2-.8-.8-.8-1.5 0-2.3 1.2-1.3 2.5-2.6 3.7-3.9 2.4-2.5 4.8-5 7-7.8 1-1.2 1.8-.8 2.8.1 1.1 1 .9 1.7-.1 2.5-3.2 2.8-5.2 6.2-8 8.7zm-308.3-83.6c-.2 1.5-.8 2-1.4 2.6l-22.5 22.8-1.2 1.2c-.5.4-1 .5-1.5 0-.4-.4-.9-.8-.5-1.5.2-.5.6-1 1.3-1 2.8.2 3.8-1.5 4-3.8.1-1 .6-1.5 1.6-1.5 2.4-.1 3.5-1.5 3.8-3.8.1-1.2.7-1.6 1.9-1.8 2.2-.4 3.6-1.6 3.8-4 .1-1 .7-1.6 1.7-1.7 2.4-.2 3.8-1.5 3.9-4 0-.8.5-1.4 1.1-1.4 1.5.1 2.6-.9 4-2.1zm288.3 63.4c1.6-1.7 3.1-3.4 5-4.5 1.1-.7 1.8-.2 2.5.6.6.7.8 1.4.1 2.1-3.2 3.3-6.5 6.6-9.7 9.8-.9.9-1.7.6-2.5-.2-.7-.7-.9-1.4-.2-2.3 1.5-1.9 3-3.9 4.8-5.5zm-317.6-39c.6-1.6 1.5-2.2 2.2-2.9 7.6-7.6 15.2-15.3 22.8-22.9.5-.5 1.1-1.3 2-.8.5.3 1 .7.7 1.4-.2.7-.8 1.2-1.6 1.2-2.9.2-3.4.8-3.8 3.9-.1 1-.7 1.7-1.7 1.7-2.8-.1-3.9 1.3-3.9 3.9 0 1-.6 1.6-1.5 1.6-2.8 0-4.1 1.5-4.2 4.2 0 .9-.7 1.6-1.5 1.6-2.6-.1-3.5 1.4-3.8 3.6-.1.7-.4 1.6-.9 1.5-1.8-.3-2.9 1.3-4.8 2zm321.6 32.7.3.3c-2.7 2.7-5.4 5.4-8 8.1-.7.7-1.2 1.7-2.3.6-1-1-1.1-1.7-.1-2.8 3.4-3.7 6.8-7.6 10.1-11.4.9-1 1.6-1.7 2.9-.3 1.3 1.3 1 2.1-.3 3.1-1 .5-1.8 1.5-2.6 2.4zm-33.9-23.1s.1 0 0 0c1.8-1.7 3.5-3.4 5.2-5.1.6-.6 1.2-.9 1.9-.3.7.6 1.3 1.3.8 2.3-.3.5-.6 1-1 1.4-2.9 3.1-5.8 6.2-8.8 9.3-.7.8-1.4 1.6-2.5.4-1-1.1-1.8-1.9-.4-3.2 1.7-1.6 3.2-3.2 4.8-4.8zm8.8 3.4-5.4 5.4c-.8.8-1.5.7-2.3 0-.7-.7-.8-1.3-.1-2.1 3.5-4.1 7.4-7.8 10.8-12.1 1.1-1.4 1.9-.1 2.6.5.6.6 1.3 1.5.2 2.3-2.6 1.8-4 4.7-5.8 6zm34.8 40.4-.2-.2c1.6-1.7 3.3-3.3 4.9-5 .6-.6 1.2-.9 1.9-.2.6.6 1.5 1.1.9 2.2-.3.6-.7 1.3-1.2 1.8-2.8 2.9-5.7 5.8-8.5 8.7-1 1-1.8 1.2-2.8.1-1-1-.8-1.8.1-2.7 1.7-1.5 3.3-3.1 4.9-4.7zm-92.5 77.7c1.2-1.2 2.3-2.2 3.3-3.3.6-.6 1.4-1.3.7-2.3-.6-.9-1.2-2-2.7-1.6-.4.1-.8.2-1.2 0-.6-.3-1.1-.8-.8-1.6.3-.8.9-1 1.5-.4 1.2 1 2.2 1.1 3.4-.1 1.3-1.2 1.5-2.4.3-3.7-.4-.4-.3-.9.1-1.3.3-.3.8-.5 1.1-.2 1.1 1 2.2.8 3.5.6 1.5-.2 2.1 1.2 1.9 2.7-.2.9-.7 1.6-1.3 2.3-2.7 2.7-5.4 5.4-8 8.1-.4.4-.8 1-1.8.8zM327.7 303.5c.9-1.7 2.6-2.6 2.1-4.6-.1-.3.5-.8 1.1-.8 2.8 0 4-1.5 4.3-4.2.1-.8.6-1.3 1.5-1.4 2.5-.2 3.9-1.6 4.1-4.1.1-.7.4-1.4 1.1-1.4 2.9-.1 4.3-1.5 4.4-4.4 0-.7.6-1.2 1.3-1.2 2.7-.1 4-1.6 4.2-4.2 0-.6.4-1.1 1-1.2.5-.1 1 .2 1.2.6.3.5 0 .9-.4 1.3-.2.2-.4.5-.7.7-7.7 7.9-15.3 15.8-23 23.6-.4.5-.8 1.4-2.2 1.3zm171.6 399-2.1 2.1c-.7.7-1.6 1.4-2.2 2.2-1.5 1.8-2.8 1.5-4.1-.2-.3-.4-1.1-.8-.8-1.3.3-.7 1.1-.4 1.7-.3 2.1.6 3-.3 2.6-2.5-.2-1.6 3.3-5.2 5-5 2.1.3 2.9-.5 2.5-2.7-.1-.8 0-1.3.9-1.1 1.6.4 2.3 2.7 1.2 4-1.4 1.6-3.1 3.2-4.7 4.8zM227 402.9c-2.6 2.7-5.3 5.4-8 8.1-.5.5-1 1.1-1.8.3-.7-.7-.5-1.2.1-1.8 5.3-5.3 10.6-10.7 15.9-16 .7-.7 1.5-1.3 2.3-.3.8.9-.3 1.5-.8 2-2.6 2.6-5.2 5.1-7.7 7.7zm286.7 123.6c1.8 1.7 3.6 3.5 5.4 5.3.6.6.8 1.3.1 1.9-.6.6-1.1.2-1.5-.2-1-1.1-2-1.2-3.1-.1-.5.5-1.2.6-1.7 0-.6-.7 0-1.3.5-1.7 1-.8 1.1-1.5.1-2.4-.9-.8-1.6-2-3-.8-.5.5-1.2 1.1-1.9.3-.5-.6-.3-1.2.2-1.7 1.1-1.1.5-2-.4-2.9-1-1-1.9-1.1-2.8 0-.3.4-.8.6-1.3.3-.2-.1-.3-.5-.2-.6.5-1.3 1.5-2.1 2.6-2.8.9-.5 1.6 0 2.3.7 1.6 1.7 3.1 3.2 4.7 4.7zm-248.4-85.2c2.6-2.6 5.2-5.3 7.9-7.9.5-.5 1.1-1.4 2-.6.9.9.1 1.5-.4 2l-15.6 15.6c-.6.6-1.2 1.4-2 .6-1-.9 0-1.6.6-2.2l7.5-7.5zm68.4 68.1c-2.6 2.6-5.1 5.2-7.7 7.7-.6.6-1.2 1.3-2 .4-.7-.7-.1-1.4.4-1.9 5.2-5.2 10.4-10.5 15.6-15.7.6-.6 1.3-1.2 2.1-.4 1 .9-.1 1.5-.5 2l-7.9 7.9zm-39.6-39.5c-2.5 2.6-5 5.1-7.5 7.6-.6.5-1.1 1.7-2.1.6-1.1-1.1 0-1.6.6-2.1 5.1-5.1 10.2-10.2 15.2-15.4.6-.6 1.3-1.6 2.2-.7 1 1-.2 1.6-.7 2.2-2.6 2.7-5.2 5.2-7.7 7.8zm84.7-222.5-.3-.3c1.9-1.9 3.8-3.8 5.6-5.7.5-.5 1.1-1.4 2-.7 1.1.9.1 1.6-.5 2.2-5 5.2-9.9 10.4-14.9 15.5-.5.6-1.1 1.4-2 .7-1-.9-.1-1.6.5-2.2 3.2-3.1 6.4-6.3 9.6-9.5zm302.6 276.4s-.1 0 0 0c-1.7 1.6-3.4 3.2-5 4.9-.8.8-1.4 1.3-2.4.2-.9-1-.5-1.7.3-2.5l9.6-9.6c.8-.8 1.5-1.6 2.6-.4 1 1.1.3 1.9-.5 2.7-1.5 1.6-3.1 3.2-4.6 4.7zM483.8 355.3c2.6-2.6 5.2-5.2 7.8-7.9.5-.5 1-1.2 1.8-.4.7.7.2 1.3-.3 1.9-5.2 5.3-10.5 10.5-15.7 15.8-.5.5-1.1 1.2-1.9.6-.8-.7-.2-1.4.4-2 2.6-2.8 5.3-5.4 7.9-8zm-38.1-37.7c-2.6 2.7-5.2 5.3-7.8 7.9-.5.6-1.1 1.1-1.8.4-.8-.7-.2-1.3.3-1.8 5.2-5.2 10.3-10.5 15.5-15.7.6-.6 1.2-1.3 2-.4.7.8-.1 1.3-.6 1.8-2.5 2.7-5 5.2-7.6 7.8zm-31.2-23.5.2.2c-1.3 1.3-2.6 2.7-3.9 3.9-.5.5-1 1.5-2 .6-.7-.7-.2-1.3.4-1.9l15.6-16.2c.7-.7 1.1-.8 1.8-.1.9.8.3 1.2-.3 1.7-3.9 4-7.8 7.9-11.8 11.8zm3.6 298.6c6.7 5.5 50.6 49.4 51.4 51.6-17.3-17.4-34.4-34.5-51.4-51.6zM319.2 277c1-1.6-1.7-1.8-1.1-3.1 2.4-5 .3-9-2.7-12.9-.2-.3-.7-.9-.3-1 1.1-.2 1.1-2.5 2.1-1.5.8.8 3.8 1.2 1.7 3.6-.6.7-.8 1.4-.3 2.2.4.6 1 1 1.6.7 1.8-1 1.9.5 2 1.5.6 3.9-.2 7.3-3 10.5zM500 703.5l.1.1 5.3-5.3c.7-.7 1.3-1.2 2.2-.2.8.8.7 1.5-.1 2.3l-3.6 3.6c-.7.7-1.4 1.7-2.6.4-.3-.3-.8-.3-1.1.1-.3.3-.4.9-.1 1.1 1.9 1 .4 1.7-.3 2.4-.9 1-2 1.9-2.9 2.9-.8.9-1.6 1-2.5 0-.9-.9-.3-1.6.3-2.3 1.9-1.7 3.6-3.4 5.3-5.1zm66.6-271.4s0 .1 0 0c-1.1-.9-2.1-2.1-3.2-3-1.3-1.1-.9-1.8.1-2.9 1-1.2 1.8-1.1 2.8-.1 2 2.1 4.1 4.1 6.2 6.1 1.1 1 1.2 1.9.1 3.1-1.1 1.2-1.9 1-2.9-.1s-2.1-2.1-3.1-3.1zm-93.9 135.5c-1.7-1.7-3.5-3.4-5.2-5.2-.5-.5-.9-1.1-.3-1.7.5-.5 1.1-.1 1.5.3 1.1 1.1 2.1 1.1 3-.2.3-.4.8-.5 1.3-.2.5.4.7 1 .3 1.5-1 1.1-1.4 2.1-.1 3.3 1.2 1.1 2.2 1.2 3.3.1.4-.4.9-.4 1.3 0 .3.4.2.8-.1 1.1-.8.9-1.4 1.7-.2 2.9 1.1 1.1 2.1 1.6 3.4.3.4-.4 1.3-.5 1.1.5-.3 1.2-1.4 2-2.4 2.6-.9.5-1.5-.1-2.1-.7-1.6-1.4-3.2-3-4.8-4.6zm4.5-36.2c1.7-1.8 3.4-3.5 5.1-5.2.5-.5 1.1-.9 1.7-.3.5.5 0 1.1-.3 1.5-.8 1-.7 1.9.1 2.8.4.5.6 1 .1 1.5s-1 .6-1.5.1c-1-1-2-1.2-3.1-.1-1.1 1.1-1.3 2.2-.2 3.4.3.4.5.9 0 1.3s-1 .2-1.3-.2c-1.1-1.3-2-.8-3 .1-1.3 1.2-1.1 2.1.1 3.2.3.3.5.7.1 1-.2.1-.5.3-.6.2-1.2-.5-2.1-1.5-2.8-2.6-.5-.9.3-1.5.9-2l4.7-4.7zm-134.6-36-.3.3c-13-13.1-26-26.1-39.1-39.2l.3-.3c13.1 13.1 26.1 26.2 39.1 39.2zm166.2 68c-1.8 1.8-3.6 3.5-5.3 5.3-.4.4-.9.7-1.5.2-.6-.6-.2-1 .2-1.4.8-.8 1.4-1.6.2-2.6-.5-.4-1-.9-.4-1.6.7-.8 1.3-.5 1.9.1.6.5 1.3 1.3 2.1.4 1.1-1 2.5-2.1 1-3.8-.4-.4-.8-.9-.2-1.5.3-.3.8-.3 1.1 0 1.1 1.1 2 1.4 3.3.1 1.3-1.3.9-2.3 0-3.6-.4-.5-.2-1.3.6-1 1.1.4 1.9 1.4 2.6 2.4.7 1-.2 1.7-.8 2.3-1.7 1.6-3.3 3.2-4.8 4.7zm55.9-126.6-.3.3c-16.3-16.4-32.7-32.8-49-49.2l.3-.3c16.3 16.4 32.7 32.8 49 49.2zm-154.4 148c-15.2-14.8-30.6-29.5-45-45.1 15 15 30 30.1 45 45.1zm75.6 109.6c-1.5-1.5-1.5-4 .1-5.7 1.2-1.3 4-1.3 5.3 0 1.7 1.7 1.8 4 .2 5.6-1.4 1.6-4 1.6-5.6.1zM384.3 512.6c16.8-17.5 34-34.5 50.7-52l.6.6c-17.1 17.2-34.2 34.3-51.3 51.4zm-43.1-15.9-.3.3c-12.2-12.3-24.4-24.5-36.7-36.8l.3-.3c12.2 12.3 24.4 24.5 36.7 36.8zm217.9-102.6c2 1.9 3.9 3.9 5.8 5.8.5.5 1.7 1.1 1.1 1.9-.6.8-1.9.8-2.9.1-.8-.5-1.6-1.2-1.9-2.2-.7-2.3-2.5-4.3-4.3-5-3-1-3.8-3.4-5.2-5.6-.3-.5-.6-1.1-.1-1.6.6-.6 1 .1 1.4.5l6.1 6.1zm-221.6-174c1.9-2 3.8-4 5.7-5.9.6-.6 1.1-1.3 2-.3.8.8.1 1.3-.4 1.8-3.9 3.9-7.7 7.8-11.6 11.7-.6.6-1.2 1.3-2 .4-.7-.8 0-1.3.5-1.8 2-2 3.9-3.9 5.8-5.9zm188.9 141.8c.1-.1.2-.2.3-.2l6 6c.4.4.9.8.7 1.4-.1.5-.7.6-1 .5-1.9-1.2-4.5-1.3-5.5-3.9-1.1-2.7-3.1-4.5-5.7-5.7-1.5-.7-2.9-1.6-2.6-3.6.1-.4.2-1.1.5-1.3.5-.3.8.3 1.2.6 2 2.1 4 4.1 6.1 6.2zm-330.1.4c1.9-2 3.9-3.9 5.8-5.9.6-.6 1.2-1.1 2-.3 1 .9-.1 1.3-.5 1.7-3.8 4.1-7.7 8.1-11.9 11.7-.4.4-.6 1.7-1.5.9-.9-.8-.4-1.6.3-2.3 2-1.9 3.9-3.8 5.8-5.8zm242.5 95.4c-.2-.2-.4-.3-.5-.5 16.9-15.8 32.8-32.7 49.6-48.7-16.4 16.4-32.8 32.8-49.1 49.2zM588.6 488c-17.9 18.2-35.4 36.6-53.6 54.4 18-18 35.2-36.8 53.6-54.4zM386 575.7c-15.8-15.8-31.6-31.7-47.3-47.5l.6-.6c15.2 16.4 31 32.2 46.7 48.1zm117.2-213.6c1.5-2.2 3.5-3.7 5.2-5.5 1.1-1.2 2.8-2.2 1.3-4.3-.4-.6.2-1.2.6-1.7.6-.7 1.2-1.3 1.8-2 .8-1 1.3-2.4 2.9-.9 1.3 1.2 1.2 2.1 0 3.4-3.4 3.4-7 6.7-10 10.5-.4.5-.7 1-1.8.5zm167.3 165.6-.2.2c-18.4-18.5-36.9-37-55.3-55.5l.2-.2c18.4 18.5 36.8 37 55.3 55.5zM344.8 413c-.1.1-.1.1 0 0-1.4-1.4-2.9-2.8-4.3-4.3-.5-.5-1.6-1-.7-1.9.9-1.1 1.6-.1 2.2.5 3 2.9 5.9 5.9 8.9 8.9.5.5 1.1 1.1.4 1.8-.7.7-1.3.2-1.9-.4-1.6-1.5-3.1-3-4.6-4.6zm13 13.1c-1.5-1.5-3-2.9-4.4-4.4-.5-.5-1.2-1.1-.5-1.8s1.3-.3 1.9.3l8.9 8.9c.5.5 1 1.2.3 1.9-.8.7-1.3.1-1.8-.5l-4.4-4.4zm-170.2-49.3c0-.3.1-.7.1-1 9.9 1.4 19.7 2.9 29.6 4.3-.1.4-.1.7-.2 1.1-9.8-1.5-19.6-3-29.5-4.4zm168.9-135.7c-.3 0-.6.1-.8.1-1.9-9.9-3.5-19.9-4.9-29.9.3 0 .6-.1.8-.1 1.7 10 3.3 20 4.9 29.9zm-83.9 187.7-.1.1c-9.6-9.6-19.2-19.2-28.8-28.9l.1-.1c9.6 9.7 19.2 19.3 28.8 28.9zm209.5 268.9c-1.3-1.3-2.7-2.6-4-3.9-.4-.4-1.1-.8-.6-1.4.5-.5 1.3-.9 2-.3 3 2.6 6 5.1 8.1 8.5.3.5.6 1 .1 1.5-.6.5-1.1.1-1.5-.3-1.4-1.4-2.7-2.8-4.1-4.1zM400.7 383c-1.6-1.5-3.1-3.1-4.6-4.6-.4-.4-.9-.8-.3-1.4.6-.6 1.1-.5 1.7.1 3.1 3.1 6.2 6.1 9.3 9.1.5.5 1.1 1.1.3 1.8-.7.6-1.3 0-1.9-.5-1.6-1.6-3-3.1-4.5-4.5zm111 219.4c3.9 0 8.1.5 6.1-5.7 2.9 3.3 3.5 6.3 2 7.8-1.5 1.7-4.8 1-8.1-2.1zM330.5 398.8c-1.3-1.2-2.5-2.5-3.8-3.8-.5-.5-1-1.2-.3-1.9s1.3 0 1.7.4c2.6 2.5 5.2 5.1 7.7 7.7.4.4.9 1 .3 1.7-.7.8-1.3.2-1.8-.3l-3.8-3.8zm-142-20.3c.6-.3 1.3-.3 1.6 0 4.5 5.4 10 9.8 14.5 15.2l-.5.5c-5.2-5.2-10.4-10.4-15.6-15.7zm200.6-9.6s.1 0 0 0c1.5 1.3 2.9 2.8 4.4 4.2.6.6 1.5 1 .6 1.9-.7.7-1.3 0-1.8-.5l-8.7-8.7c-.4-.4-1.1-1-.5-1.6.7-.8 1.3 0 1.8.5 1.4 1.3 2.8 2.8 4.2 4.2zm129.6 264.2-1-1c-.5-.5-.8-1.1-.4-1.7.6-.7 1.2-2 2.1-1.8 2 .6 3.2 2.6 4.9 3.8.3.2-.1.7-.4 1-1.6 2.2-2.7 2.2-5.2-.3zM383.6 448.9c1.5 1.5 3.1 3.1 4.6 4.7.4.4.7 1 .2 1.5-.4.4-.9.2-1.3-.2-3-2.9-6.1-5.8-9-8.8-.4-.4-.7-1.2 0-1.7.6-.5 1.1.1 1.5.5 1.3 1.2 2.6 2.6 4 4zm133.8 142.8c.3.2.5.3.6.4l5 5c2.5 2.6 2.4 3.3-1.1 5.7.4-4.5-4.3-6.6-4.5-11.1zm73.2-129.2c0 .1-.1.2-.1.3-7.5-7.5-15-15-22.4-22.5l.2-.2c7.4 7.4 14.8 14.9 22.3 22.4zm-252.1-42.7c-1.5-1.4-2.9-2.8-4.3-4.3-.5-.5-1.3-1-.6-1.8.6-.6 1.2.1 1.6.5 2.9 2.9 5.9 5.8 8.8 8.8.4.4 1.1 1 .4 1.6-.7.6-1.2-.2-1.6-.6-1.5-1.3-2.9-2.8-4.3-4.2zm-39.3-.9c1-2 16.4-17.6 18-18.1-6 6.1-12 12.1-18 18.1zm270.6 31c-3.9.9-8.7-3.8-8.4-8.4l8.4 8.4zm-140.4-36.7c-.1.1-.2.2-.4.3-11.1-11.1-22.2-22.3-33.3-33.4l.3-.3 33.4 33.4zM247.3 276c2 0 2.8 3 4.8 1.3 2.2-1.9-.9-3.1-.8-4.9 2.2 1.5 3.6 3.1 3.9 5.6.2 1.7-.5 2.7-2.1 2.5-2.6-.3-4.5-1.8-5.8-4.5zm259.3 325.6c1.8.4 3 .6 4.1 1.6 1.9 1.7 3.8 3.2 6.5 3.5.7.1 1 .3.7 1.1-.9 1.8-2.7 2.2-4.1.9-2.5-2.2-4.6-4.5-7.2-7.1zm-81-194.2c-1.4-1.3-2.8-2.7-4.1-4.1-.4-.5-1-1-.3-1.6.6-.5 1.1 0 1.5.4l8.4 8.4c.4.4.8.9.3 1.5-.7.8-1.2.1-1.6-.4l-4.2-4.2zm-49.5 49.4c0 .1-.1.1 0 0-1.3-1.3-2.7-2.6-4-3.9-.4-.4-1.2-1-.7-1.6.6-.8 1.3-.2 1.8.4l8.2 8.2c.4.4 1 .9.5 1.4-.5.7-1.2.2-1.6-.2-1.4-1.4-2.8-2.8-4.2-4.3zm177-8.1.6-.6c4.6 4.3 9 8.7 13.3 13.3l-.6.6c-4.5-4.4-8.9-8.8-13.3-13.3zm-174.9-95.2.1-.1 5 5c.4.4.9.9.3 1.4-.4.4-.9 0-1.3-.4-3.3-3.3-6.7-6.6-10-9.9-.3-.3-.9-.9-.3-1.4.6-.5 1 .2 1.4.6l4.8 4.8zm-9.1 83.9c-1.1-1.1-2.1-2.2-3.2-3.3-.4-.4-.7-.9-.3-1.5.5-.7 1.2-.5 1.7 0 2.2 2.2 4.5 4.4 6.7 6.7.5.5.7 1.2.1 1.7-.7.6-1.2 0-1.7-.4-1.2-1-2.2-2.2-3.3-3.2zm5.8-82.6c1.3 1.3 2.7 2.6 3.9 3.9.4.4.8.9.3 1.5-.5.5-1.1.2-1.5-.2-2.6-2.5-5.2-5.1-7.7-7.7-.4-.5-1-1.1-.3-1.6.6-.5 1.1 0 1.5.4 1.3 1.2 2.6 2.4 3.8 3.7zm138.5 128.8c-.1-.1-.2-.1-.3-.2l3.1-3.1c.7-.7 1-1.4.3-2.4-.5-.7-1.7-1.3-.8-2.4.9-1.2 1.8-.4 2.7.1 1.4.8 2.5.1 3.4-1 .7-.9 1-1.8.2-2.8-.4-.5-1.2-.8-.7-1.6.1-.2.5-.4.8-.4.9 0 1.1.8 1.4 1.5.5 1 .3 1.9-.5 2.7l-9.6 9.6zM294.3 227.9c2.3.5 5.1 4.4 4.8 6.3-.2 1-.9 1.3-1.8 1.3-2.2 0-4.8-1.8-5.7-4 1.3.5 2.2 2.4 3.8.9 2.2-2-.6-2.9-1.1-4.5zm-90.3 91c1.7.4 2.6 2.6 4.4.9 1.9-1.7-.4-2.7-.9-4.5 2.5 1.6 3.8 3.4 4 5.9.2 1.6-.6 2.3-2.2 1.9-2.3-.3-4-1.6-5.3-4.2zm310.5 153.9c-2.3-2.9-3.4-.2-4.8 1-.6-1-.5-2.1-1.3-2.7-1.3-1.1-.8-2 .2-3 1.1-1.1 1.8-.8 2.8.1 1.4 1.3 2.4 2.7 3.1 4.6zm-25.1 207.8c3.6 2.8 6.4 5.9 9.3 9 .3.3.5.7.2 1.1-.3.4-.7.2-1.1 0-.6-.3-1.4-.5-1.5-1.4-.1-.8-.6-1.2-1.4-1.4-2.3-.5-5.2-4.3-5.5-7.3zM325.2 404.1c1.3 1.3 2.7 2.6 3.9 3.9.4.4 1.1.8.6 1.4-.5.6-1.2.3-1.7-.2-1.5-1.4-3-2.9-4.5-4.4-1.1-1.1-2.3-2.3-3.3-3.5-.4-.4-.6-1.1 0-1.5.5-.4.9.2 1.2.5 1.3 1.3 2.5 2.6 3.8 3.8zm103.4 68.4c1-4.4 4.3-7.1 7.3-10 .4-.4 1-.7 1.5-.1s.1 1.2-.3 1.5c-2.8 2.9-5.6 5.7-8.5 8.6zM194.8 336.1l6.4 6.4c2.5 2.5 4.9 5.2 7.3 7.7.4.4 1 1 .5 1.4-.6.7-1.2-.1-1.5-.5-1.1-1.5-2.2-3.3-3.3-4.5-2-2.2-4.2-4.6-6.5-6.4-1.5-1.2-2.9-1.9-2.9-4.1zM490.9 666c-.8 2.7-11.8 13.2-13.3 13.4 4.5-4.5 8.9-8.9 13.3-13.4zM192.3 334c-.2-.1-.3-.3-.5-.4 4-4 7.9-8 11.9-11.9.1.2.3.3.4.5-3.9 3.8-7.9 7.8-11.8 11.8zm235.9 71.1c-1.5-1.5-3-3-4.4-4.5-.4-.4-.9-.9-.3-1.4.5-.5.9.1 1.2.4 2.9 2.8 5.8 5.6 8.6 8.5.3.3 1.1.7.5 1.3-.6.6-1.2.2-1.6-.3-1.3-1.3-2.6-2.7-4-4zm-76.8 27-.2.2-4.6-4.6c-.3-.3-.8-.7-.4-1.2s.9-.4 1.3 0l9.6 9.6c.3.3.5.7.2 1.1-.4.3-.8.1-1.1-.2-1.6-1.6-3.2-3.3-4.8-4.9zM324 396c.2-.1.3-.3.5-.4 3.8 3.8 7.5 7.6 11.3 11.4l-.4.4L324 396zm72.4-23.7c-.6.3-.9 0-1.3-.3-3-2.9-6-5.8-9-8.8-.4-.4-1.4-.9-.7-1.5.8-.7 1.3.2 1.8.7l8.4 8.4c.5.4 1.1.7.8 1.5zm176.4 56.1-.4-.4 11.3-11.3.4.4-11.3 11.3zM297.5 227.8c3.3-4.9 7.3-9.1 11.7-13l.6.6c-4.1 4.2-8.2 8.3-12.3 12.4zm36 181.5c-.2 0-.5.1-.6 0-3.5-3.4-7.1-6.9-10.6-10.4-.3-.3-.6-.7-.1-1 .5-.3.9.2 1.2.5l9.6 9.6c.4.3.8.6.5 1.3zm43.9-68.4c-.2-.2-.3-.4-.5-.5 7-5.1 11.4-12.9 18.7-17.8-6 6.1-12.1 12.2-18.2 18.3zm31.3 34c1.6 1.5 3.1 3.1 4.6 4.6.3.3.8.8.4 1.2-.6.7-1-.1-1.3-.4l-9-8.7c-.5-.4-.9-.9-.5-1.4.6-.8 1.1 0 1.5.4 1.4 1.4 2.8 2.9 4.3 4.3zM348.9 420l-.4.4c-3.6-3.7-7.3-7.3-10.9-11l.4-.4c3.6 3.7 7.2 7.3 10.9 11zm149.7 171.9c2 1 1.3 2.1.3 3.1-2.9 2.9-5.7 5.9-8.6 8.8-.8.9-1.7 1.7-2.6 2.5-.5.4-1.2.6-1.8 0-.4-.3-.9-.7-.6-1.2.3-.8 1-.2 1.5-.2 1.1 0 1.9-.7 2.7-1.4 2.7-2.9 5.4-5.7 8.1-8.5.9-.9 1.4-1.7 1-3.1zM222.4 318.7l-1.4-1.4c-.8-.8-1.2-1.4-.1-2.4.9-.8 1.6-.9 2.4 0 .7.8 1.6 1.6 2.3 2.4 1 1.1.4 2.2-.4 3-.9.9-1.3-.3-1.9-.7l-.9-.9zm352.9 112-.5-.5c3.5-4 7.4-7.5 11.2-11.2.2.2.4.3.5.5-3.7 3.6-7.5 7.4-11.2 11.2zm-350.2-48.5c.1-.3.1-.6.2-.8 5.7.9 11.4 1.7 17.1 2.6-.1.3-.1.6-.2 1-5.7-.6-11.4-1.4-17.1-2.8zm336.3 214.1c4.9 5.9 10.5 11.2 15.8 16.8-3.2-2-15.1-14.6-15.8-16.8zM413.6 393c1 .9 2 1.9 2.9 2.9.5.5 1.2 1.1.5 1.8-.6.6-1.2-.1-1.6-.5-2.1-2-4.1-4.1-6.1-6.1-.4-.4-1-.8-.4-1.4.5-.5 1-.3 1.5.1 1.1 1 2.1 2.1 3.2 3.2zm-12.2-24.8c-2.4-.4-10.9-8.9-11.4-11.3 4.2 3.5 8 6.8 11.4 11.3zM374 346.3c.2-.2.4-.3.6-.5 3.9 3.6 7.8 7.3 11.4 11.2l-.6.6c-3.8-3.7-7.6-7.5-11.4-11.3zm-37.9 64.6 10.4 10.4c.3.3.5.7 0 1-.5.3-.9-.2-1.2-.5-2.6-2.6-5.3-5.2-7.9-7.9-.7-.7-1.8-1.3-1.3-3zm12.1 13.2c.8.2 1.1.2 1.2.3 3.3 3.3 6.7 6.5 10 9.8.2.2.5.5.2.8-.6.6-1 .1-1.4-.3-2.2-2.1-4.4-4.3-6.5-6.5-1.2-1.1-2.6-2.1-3.5-4.1zm55.3-43.7c-1.5-1.4-3-2.9-4.5-4.4-.3-.4-1.1-.8-.5-1.4.4-.4.9 0 1.2.4 3.1 3.1 6.2 6.1 9.2 9.2.3.3.6.7.3 1-.4.5-.9.1-1.2-.2-1.4-1.5-2.9-3.1-4.5-4.6zm-16.4-21c2.7.8 11 9.3 11.2 11.5-3.7-3.9-7.6-7.1-11.2-11.5zm-97.4-109c-.1 0-.1 0 0 0 .4.6.8 1 1.3 1.5 1.1 1.1.6 2.3-.1 3-1 1.1-1.4-.4-2-.8-1-.8-1.8-1.8-2.7-2.8-.6-.7-.4-1.3.2-1.9.6-.6 1.2-.8 1.9-.3.4.4.9.8 1.4 1.3zm67.2-1.1c.3-.1.6-.1 1-.2 1.1 5.7 2.3 11.3 3 17.1-.3.1-.6.1-.9.2-1.1-5.8-2.1-11.4-3.1-17.1zm43.4 123.3.5-.5 10.6 10.6-.6.6c-3.4-3.5-7.4-6.7-10.5-10.7zm65.5 309c.1-.1.2-.2.4-.3.5.5 1 1.1 1.5 1.5 1.3 1.2 2.2 3.2 4.6 1.3.9-.7 1.9.5 2.3 1.5.2.5 0 1.2.3 1.6.5.9.9 1.7-.1 2.3-.9.5-1.4-.6-1.9-1.1-2.5-2.1-4.8-4.5-7.1-6.8zM228.5 312.7c.1 0 .1 0 0 0 .4.3.7.7 1 1 1.7 1.3.5 1.8-.6 2.5-1.1.6-1.7-.2-2.2-.8-.8-1-2.6-1.6-2.2-3.2.3-1.1 1.3-1.9 2.6-.8.6.3 1 .8 1.4 1.3zm158.1 144.5c-2.6-.7-10.4-8.7-10.6-10.7 3.5 3.6 6.9 7 10.6 10.7zm35-60c-.1.2-.3.3-.4.5L411 387.5c.1-.2.3-.3.4-.5l10.2 10.2zm-48.2 51.9.7-.7 9.6 9.6c.4.4.9.9.4 1.4-.6.6-1.1-.1-1.4-.4-2.1-2.1-4.2-4.2-6.2-6.4-1.1-1.1-2.6-1.9-3.1-3.5zm182.9 142.1c0-.1 0-.1 0 0 .6.5 1.2 1.1 1.7 1.7.4.5 1.6 1 .5 1.9-.8.7-1.7.4-2.3-.3-1.3-1.3-2.5-2.7-3.7-4.1-.4-.4-1-1-.3-1.6.5-.5 1.2-.4 1.8.1.7.6 1.5 1.5 2.3 2.3zM438.1 404.8l-.4.4-9.9-9.9.4-.4 9.9 9.9zm-87.5 17.7.6-.6 10 10c.3.3.6.7.2 1.1-.5.5-.9 0-1.2-.4-2.3-2.3-4.6-4.7-7-7-.9-1-2.2-1.7-2.6-3.1zm247.3 47.1c7.2 7.3 14.5 14.5 21.7 21.8-7.6-6.8-15-14-21.7-21.8zm-61.3 146.2c-.6-.7-1.4-1.4-2-2.1-.5-.6-.3-1.2.3-1.7.5-.4 1-.6 1.5-.1 1.1 1.1 2.3 2.2 3.3 3.5.6.7.3 1.5-.5 2.1-.9.7-1.2-.1-1.7-.7-.3-.3-.6-.6-.9-1z"/><path d="M449 487.9c-1.6-1.7-3.4-3-5.5-3.9-1.1-.5-2.2-1.1-2.4.9-.2 1.1-1 1.3-2 1.1-2.2-.5-4.5-.5-6.7 0-1 .2-1.9 0-2.5-1-.8-1.2-1.8-1.4-3.1-.7-3.7 1.8-6.9 4.3-9 7.9-1 1.6-2.3 3.5.5 4.9.8.4.7 1.2.6 1.9-.4 2.5-.5 5 .3 7.4.3 1-.1 1.3-.9 1.5-1.5.4-1.6 1.4-1 2.6 2.4 4.6 5.8 8.1 10.8 10 1.2.5 1.8.4 1.9-1.1.1-1.2.8-1.7 2-1.4 1.8.6 3.7.3 5.5.1 1.9-.2 3.6-.7 4.7 1.6.5 1 1.6.4 2.4 0 4.4-2.3 7.4-5.9 9.4-10.4.5-1.1-.1-1.8-1-2.1-1.3-.4-1.6-1.2-1.4-2.4.3-2.4.4-4.8-.4-7.2-.4-1.1.1-1.8 1.3-1.7 1.7.1 1.5-.9 1.1-1.9-1.3-2.3-2.8-4.3-4.6-6.1zm-26.8 2c3.4-3.4 3.4-2.6 8.5-2.9 3.9-.2 7.9 1.4 11.7-.6.3-.1.8 0 1.1.2 2.7 1.7 5.1 3.7 6.8 6.5.3.6.8 1.3.2 1.8-1.6 1.3-1 2.7-.6 4.2.4 1.6.4 3.2.4 4.8-.1 1.5-.9 3.3 1 4.4.3.2.2.7.1 1.1-1.5 3.7-4.1 6.5-7.7 8.3-.6.3-1.3.6-1.7-.2-.9-1.4-2.1-1.2-3.4-.8-1.8.6-3.7.5-5.5.3-1.5-.1-3.2-1.1-4.3 1-.1.2-.8.2-1.1 0-3.7-1.5-6.8-3.7-8.5-7.6-.2-.5-.5-1.1.2-1.5 1.5-.6 1.2-1.8.9-2.9-.7-2.6-.6-5.1-.1-7.7.1-.7.6-1.5-.2-2-1.7-1-.9-2.1-.2-3.3.4-1.2 1.4-2.2 2.4-3.1zM260.5 281.8c-1.7 1.7-3.5 3.4-5.1 5.2-2.3 2.5-1.8 4.8 1.3 6.1 1.7.7 1.4 1.6.8 2.9-2.1 4.6-3.1 9.4-2.1 14.4 1.6 8.1 9.1 13.2 17.9 12.6 14.6-1.1 28.6-15.5 28.6-30 0-8.6-6.3-15.9-14.8-16.6-4.2-.4-8.2.4-12 2.1-1.6.7-2.7 1-3.6-1-1.2-2.6-3.7-2.8-5.8-.9-1.8 1.7-3.5 3.5-5.2 5.2zm-3.7 19.8c.3-1.1.5-1.8.8-2.5 1-3 1-3 3.4-.9 1.7 1.4 3.2 1.4 4.7-.1 3.6-3.5 7.1-7.1 10.6-10.7 1.4-1.4 1.5-3.2.4-4.9-1.7-2.7-1.7-2.7 1.5-3.8.5-.2.9-.3 1.4-.5 12.2-3.1 22.9 4.5 20.7 18.1-1.8 11.4-11.8 22.1-23 24.8-13.4 3.2-22.7-5.7-20.7-17.3 1 1.3 2.1 2.1 3.7.9 1.1-.8 1.2-2 .6-3-1-1.5-2.4-.8-4.1-.1zm11.9-11.4c0-.1-.1-.1 0 0-1.8 1.7-3.6 3.5-5.4 5.3-.5.5-1.1.7-1.7.2-.7-.6-.3-1.1.1-1.7.7-1 1.3-2 2.2-2.8 2.9-2.5 5.8-5 7.9-8.2.3-.5.7-1.2 1.5-.8.6.4 1.1.9 1 1.8-.1.8-.6 1.3-1.1 1.8-1.5 1.4-3 2.9-4.5 4.4zm-5.2-5.3c0-.1 0-.1 0 0-1.9 1.7-3.7 3.6-5.6 5.4-.3.3-.8.8-1.3.3-.4-.4-.3-.9.1-1.3 3.6-3.6 7.2-7.3 10.8-10.8.4-.4 1.1-.7 1.5-.2.5.6-.1 1-.5 1.4-1.5 1.7-3.2 3.4-5 5.2zM557.6 678c-1.3 1-2.1 2-2.7 3.1-.9 1.6-1 3.3.4 4.7 1.3 1.3 2.8 1.4 4.4.6 3-1.4 4-3.8 3-6.9-.9-2.9-2.7-5.6-1.8-9 .6-2-4.7-6-6.9-5.5-1.2.3-1.5.1-1.9-1.1-1.1-2.8-3-3-5-.9-.6.6-1.3 1.2-1.9 1.8-.7.7-2 1.4-1.5 2.5.6 1.2 1.4 2.7 3.1 2.6.9 0 .9.2.9.9.1 5.3 3.2 7.9 8.6 7 .3-.1.7.1 1.3.2zm-2.5-3.6c-1.2-1-2.1-2.4-3-3.7-.3-.4-.5-.9-.1-1.3s.9-.3 1.3-.1c2.8 1.5 5.1 3.6 6.6 6.5.2.4.3 1-.1 1.4-.5.5-1 .2-1.5-.1-1.1-.9-2.3-1.6-3.2-2.7zM654.2 578.9c-.8-1.3.3-2.1.2-3.2-.2-3.4-4-6.7-7.3-6.4-.8.1-1.2.4-1-1 .2-1.4-1.5-2.2-2.6-2.9-1.1-.7-1.4.7-2 1.2-.7.6-1.3 1.2-2 1.8-2.9 2.5-2.7 4.3.8 5.8 1.1.5.8.8.7 1.5-.5 2.8 3.5 7.5 6.2 6.9 3.1-.7 5.6.8 8.2 1.7 3 1 6-.1 7.1-3.1.6-1.7.7-3.5-.9-4.6-1.6-1.2-3.4-1.1-5 0-.9.6-1.5 1.5-2.4 2.3zm-6.1-.4c-.9-1.1-1.8-2.2-2.6-3.4-.3-.4-.4-.9-.1-1.4.4-.5.9-.3 1.3 0 2.8 1.6 5 3.8 6.6 6.7.2.4.3.8 0 1.1-.3.4-.7.2-1.1.1-1.7-.6-2.7-2-4.1-3.1zM604.9 515c-2 2.1-2.4 4.9-.8 6.5 1.5 1.5 4.4 1.2 6.3-.6 1.9-1.9 2.3-5 .7-6.6-1.5-1.6-4.2-1.3-6.2.7zM555.8 563.3c.9.7 1.8 1.4 2.8 2 .9.6 1.7.5 2.4-.3.6-.7.7-1.4.3-2.2-1.3-2.2-3.1-4-5.3-5.2-.8-.4-1.6-.4-2.2.3-.6.7-.7 1.5-.2 2.2.6 1.1 1.4 2.1 2.2 3.2zM550.4 538.9c1.4 1.4 3.5 1.4 5 0 1.3-1.4 1.3-3.4 0-4.8-1.4-1.4-3.5-1.4-5 0-1.4 1.4-1.4 3.4 0 4.8zM561.9 522.5c-1.3 1.4-1.3 3.4.1 4.8 1.4 1.4 3.6 1.4 5-.1 1.2-1.3 1-3.8-.3-5-1.3-1.3-3.5-1.1-4.8.3zM540.2 549.3c1.3 1.4 3.3 1.4 4.7.1 1.4-1.4 1.5-3.4.2-4.8-1.2-1.4-3.5-1.4-4.8-.2-1.5 1.4-1.5 3.4-.1 4.9zM523.1 566.7c-1.4-1.4-3.4-1.4-4.7.1-1.3 1.4-1.3 3.6 0 4.8 1.4 1.3 3.8 1.3 5-.1 1.2-1.3 1.1-3.5-.3-4.8zM530 555.1c-1.6 1.6-1.7 3.3-.2 4.9 1.4 1.4 3.4 1.3 4.8 0 1.5-1.4 1.4-3.5-.2-4.9-1.4-1.4-2.9-1.6-4.4 0zM350.8 455.4c1.2.8 2.2 1.6 3.3 2.3.6.4 1.2.5 1.8-.1.5-.5.7-1.2.3-1.8-1.1-1.3-1.7-2.8-3.2-3.9-2.3-1.6-4.3-3.6-6.3-5.6-9.1-9-18.2-18.1-27.4-27.2-1.6-1.5-2.2-4-4.6-4.7-.8-.3-1.4-.7-2.2 0-.8.8-.6 1.5 0 2.4 2.7 3.7 6.4 6.3 9.6 9.5 3.5 3.5 6.9 7 10.5 10.4l13.2 12.9c1.8 1.8 3.9 3.4 5 5.8zm.1-2.7-.1.1c-11.1-11.1-22.2-22.3-33.3-33.4l.1-.1c11.1 11.1 22.2 22.2 33.3 33.4zM432 375c-6.2-4.9-11.5-10.8-17.1-16.4-5.7-5.6-11.2-11.2-16.9-16.8-1.8-1.7-2.6-4.3-5.2-5.3-1-.4-1.7-.9-2.5.1-.7.9-.2 1.5.3 2.3 1.8 3.2 5.1 4.8 7.6 7.3 9.3 9.5 18.8 18.8 28.1 28.2 1.7 1.8 3 3.9 5.3 5.2.8.5 1.4.6 2.1 0 .6-.6.7-1.3.1-1.9-.9-.8-.9-2.1-1.8-2.7zM309 333c-14 14-27.9 28-41.9 42-2.8 2.8-2.7 5.4.1 8.2 8 8 16 16.1 24.1 24.1 3.3 3.3 5.6 3.3 8.9 0 13.9-13.9 27.7-27.9 41.6-41.8 9.3-9.3 18.8-18.5 28.2-27.8 4.9-4.8 9.7-9.7 14.5-14.6 2-2 2.1-4.4.1-6.5-8.6-8.7-17.3-17.3-26-25.9-2.2-2.2-4.9-2-7.3.5-10.5 10.5-21 21-31.4 31.5l-10.6 10.6c0-.1-.2-.2-.3-.3zm5.9 26.5c0 .1-.1.1 0 0-.8-.7-1.5-1.4-2.3-2.2-3.4-3.4-6.8-6.8-10.1-10.2-.4-.4-1.2-.9-.5-1.6.6-.5 1 0 1.4.4.2.2.4.3.5.5 8 7.9 16 15.9 23.9 23.8.5.5 1.6 1.2.7 2-.9.8-1.4-.5-1.9-.9-3.9-3.8-7.8-7.8-11.7-11.8zm22.3-16.7.2-.2c3.3 3.3 6.6 6.6 9.9 10 .5.5 1.7 1 .8 1.9-.9 1-1.4-.3-1.9-.7l-24.3-24.3c-.6-.7-2.3-1.4-1.4-2.3.6-.7 1.7.7 2.4 1.5 4.9 4.6 9.6 9.4 14.3 14.1zM298.5 376s.1 0 0 0c.4.3.7.7 1 1l11.7 11.7c.4.4 1.3.9.5 1.5-.5.5-1-.3-1.4-.6-.3-.3-.6-.6-.9-.8-5.7-5.6-11.4-11.3-17-16.9l-8-8c-.3-.3-.9-.6-.4-1.1.4-.5.9-.1 1.3.1.5.4 1 .8 1.4 1.3 4 3.9 7.9 7.9 11.8 11.8zm39.9-67.6c2.8.8 27.9 26.2 28 28.1-9.3-9.3-18.5-18.5-28-28.1zm8.8 48.7c.3.5.1.8-.2 1.1-4.6 4.6-9.1 9.2-13.7 13.7-.3.3-.8.8-1.2.4-.7-.5 0-1 .3-1.4.2-.3.5-.6.8-.9 3.9-3.8 7.8-7.7 11.8-11.5.6-.6 1.1-1.6 2.2-1.4zm-30-29.7.3.3-14.7 14.7-.3-.3 14.7-14.7zM457.8 611.9c-2.1-2.1-3.9-3.4-6.3-3.8-1-.2-2 0-2.6.8-.6.9.3 1.5.8 2.1.7.9 1.1 2 1.1 3.1 0 2.2 1.2 3.2 3.2 3.5 1.1.1 2.2.5 3.1 1.3.7.6 1.5 1.2 2.4.6.9-.7 1.3-1.8 1-3-.6-1.9-1.7-3.6-2.7-4.6zm-1.4 4.2-5.3-5.3c-.3-.3-.8-.7-.5-1.2.3-.5.9-.3 1.3-.2 2.9.8 4.9 2.7 6.4 5.2.7 1.1 1.7 2.7.6 3.5-1 .8-1.9-1-2.5-2zM470.2 454.7c-1.4 1.4-1.4 3.9 0 5.2 1.4 1.4 3.9 1.4 5.2 0 1.4-1.5 1.4-3.8 0-5.2-1.4-1.4-3.8-1.4-5.2 0zM605.8 613.1c1 .7 1.8 1.4 2.7 2 .7.5 1.5.6 2.2-.1.6-.6.8-1.4.4-2.2-1.2-2.4-3.1-4.2-5.5-5.5-.7-.4-1.4-.2-2 .4-.6.6-.8 1.5-.3 2.2.9 1.1 1.8 2.2 2.5 3.2zM238.8 427.2c1.5 1.6 3.7 1.6 5.3 0 1.5-1.5 1.4-3.8-.1-5.4-1.5-1.6-3.8-1.7-5.4-.2-1.7 1.5-1.6 3.6.2 5.6zM396.8 262.2c-1.5 1.5-1.3 4 .4 5.6 1.6 1.5 3.9 1.5 5.4-.1 1.5-1.6 1.3-4.1-.4-5.6-1.7-1.6-3.8-1.6-5.4.1zM306.5 488.5c-1.5 1.5-1.6 3.9-.2 5.4 1.5 1.6 4.2 1.6 5.7 0 1.3-1.4 1.3-4 .1-5.3-1.7-1.7-3.9-1.8-5.6-.1zm3.4 2.2c.3.5.4.9-.1 1.3-.5.5-1.1.3-1.5-.2-.4-.4-.4-.9.1-1.3.5-.3 1.1-.3 1.5.2zM470.1 329.9c-1.6-1.6-4.4-1.8-5.9-.3-1.3 1.2-1.2 4.1.1 5.6s4.3 1.4 5.7 0c1.3-1.4 1.4-4 .1-5.3zM355.3 409.5c10 10 20 20.1 30 30.1 2.8 2.8 6 2.7 8.8 0 7-6.9 13.9-14.1 21.1-20.8 3.6-3.3 3.5-6.8 0-10.3-13.5-13.5-27-26.9-40.4-40.4-2.5-2.5-5.3-3.4-8.6-1.6-1.1.6-1.8.1-2.6-.7-1.6-1.7-3.3-1.6-4.7.1-2 2.3-3.1 3.6-.6 5.4 1.1.8.9 1.7 0 2.6-3.1 3-6.1 6-9.1 9.1-1.1 1.1-1.8.8-2.9-.1-1.8-1.6-3.1-1.4-5 .5-1.4 1.5-2.2 3.1-.3 4.8.8.7 1.4 1.5.9 2.8-1.3 2.9-.3 5.4 1.8 7.5 3.7 3.8 7.5 7.6 11.3 11.4.1-.1.2-.3.3-.4zm10.2 8.6-.3.3c-6.7-6.8-13.5-13.5-20.2-20.3-1.3-1.3-2.3-2.8-2.3-4.7 0-1.3.1-2.3 2.1-2 2.6.5 5.5-2.9 4.6-5.4-.3-.8-.2-1.4.4-1.9 3.2-3.1 6.3-6.2 9.5-9.4.7-.7 1.2-.9 2.3-.5 2.3.8 5.8-2.3 5.2-4.7-.5-2 .4-2.3 1.9-2.5 1.7-.3 3.1.3 4.4 1.5 2.5 2.5 5 5.1 7.6 7.6 11.5 10.9 22.6 22.1 33.7 33.3 2.9 2.9 3 5.2 0 8.2-6.8 6.9-13.7 13.8-20.6 20.7-2.8 2.8-5.3 2.8-8.2-.1l-20.1-20.1zM163.4 375.2l-6.9-6.9c-.5-.5-1.1-1.3-1.8-.6-.9.9 0 1.5.6 2 4.4 4.6 8.9 9.1 13.4 13.7l.7.7c.6.4 1.3 1 1.9.3.5-.6 0-1.3-.5-1.7-2.5-2.6-5-5-7.4-7.5zM351.3 186c-2.3-2.3-4.5-4.6-6.8-6.8-.5-.5-1.2-1.4-2-.5-.6.7 0 1.4.5 1.9 4.7 4.8 9.5 9.5 14.2 14.2.5.5 1.2 1.1 1.9.3.7-.7 0-1.4-.5-1.9-2.5-2.4-4.9-4.8-7.3-7.2zM581.7 580.7c-1.3 1.1-1.7 2.6-2.1 4.1-.9 4 2.3 7 6.2 5.8 3.4-1 5.5-3.3 6.5-6.7 1.1-3.9-1.9-7-5.9-6-1.9.4-3.4 1.5-4.7 2.8zm7.1 6.9c-1.3.8-2.8 1.8-3.9.6-1.3-1.3-.3-3 .7-4.1 1-1 2.7-1.9 3.9-.6 1.3 1.3 0 2.7-.7 4.1zM473.8 367.2c-13-11.6-24.9-24.2-37.3-36.4-1.8-1.7-3.7-3.3-4.8-5.7-.7-1.5-2.7-1.6-3.8-2.8-9.4-9.4-18.8-18.6-28.3-28-7.6-7.5-15.2-15.1-22.7-22.7-1.2-1.2-2.5-2.3-3.1-4-.5-1.4-2.2-1.3-3.1-2.2-1.3-1.2-2.5-2.5-3.9-3.7-.7-.6-1.5-1.1-2.4-.2-.9.9-.4 1.6.3 2.3.9 1 1.9 2 2.9 3 .8.8 1.5 1.5 1.2 2.9-.3 1.3.7 2.4 2 2 1.5-.4 2.1.3 2.9 1.1 17.3 17.1 34.6 34.3 51.9 51.4 1 1 2 1.8 1.3 3.5-.3.9.6 2.4 1.8 1.8 1.7-.8 2.4.2 3.3 1.1l11.7 11.7c8.2 8 16.4 16.1 24.6 24.1.9.9 2 1.6 1.1 3.3-.6 1 1 2.3 1.3 2 1.6-1.7 4.2 2.2 5-1 .2-1.3-1.1-2.5-1.9-3.5zm-45.6-42.4-.2.2c-18.2-18.2-36.4-36.5-54.5-54.7l.2-.2c18.2 18.2 36.4 36.4 54.5 54.7zm42.4 41.9-.3.3c-13-13-25.9-26-38.9-39l.3-.3c13 13 25.9 26 38.9 39z"/><path d="M285.1 307.1c-3.2 1.3-2.8 4.6-4 7.1-.2.4 0 .8.3 1.1.4.4.8.5 1.3.2.9-.4 1.4-1.1 1.6-2 .8-4.3 3.3-6.7 7.6-7.4.9-.1 1.7-.5 2.1-1.5.2-.5.3-1-.1-1.4-.3-.4-.8-.6-1.3-.4-2.7 1.2-6 1-7.5 4.3zM398.3 422.8c-1.5 1.5-1.6 3.9-.1 5.4 1.4 1.5 3.8 1.4 5.4-.1 1.6-1.6 1.6-3.7-.1-5.4-1.4-1.4-3.8-1.3-5.2.1z"/><path fill="none" d="m333.517 164.516 70.71-70.71 424.26 424.26-70.71 70.71z"/><path d="M479.3 247.8c-3.7 5.5-2.4 10.6 2.6 15.6 4.7 4.7 8.4 5.2 11.5 2.1 3.5-3.5 2.4-7.1-3.9-17.4-11.8-19.3-9.2-28-2.1-35.1 8.8-8.8 22.7-9.7 37.3 4.9 15.2 15.2 13.7 29.2 6.2 38.2L516 241.2c2.4-3.2 3.8-7.5-1.6-13-3.5-3.5-7-4.4-9.9-1.5-2.9 2.8-2 5.9 4.1 16 12.2 20.3 9.5 29.3 2.1 36.8-9.9 9.9-24.4 9.1-39.8-6.3-14.5-14.5-15.5-29-6.5-40.3l14.9 14.9zM569.5 264.6 537.2 297c-7.5 7.5-6.4 13.8-1.7 18.5 5.1 5.1 11.1 4.9 18.1-2.1l32.3-32.3 15.5 15.5-30.8 30.8c-17.5 17.5-33.1 12.5-46.5-1-13.9-13.9-17.9-29.2-.8-46.3l30.9-30.9 15.3 15.4zM563.8 364.1l35.3-35.3c-2.8-1.7-6.4-4.8-8.3-6.7l9.7-9.7c5.9 4.5 12.7 6.1 18.3 5.9l10.5 10.5-50.4 50.4-15.1-15.1zM587.9 388.2l1.3-1.3c10.4-10.4 21.9-12.3 38.2-9.6 12.5 2.1 16 2.4 19.7-1.4 3.5-3.5 3.9-6.9.7-10.1-3.9-3.9-7.7-2.5-12.2 1.2l-13.7-13.7c8.4-7.4 22-11.8 36.7 2.9 14.2 14.2 11.4 26.8 3.3 34.9-6.8 6.8-13.4 7.8-28.8 4.6-8.8-1.7-13.5-1.8-16.2-.9l22.2 22.2-12.8 9.3-38.4-38.1zM633.9 434.2l1.3-1.3c10.4-10.4 21.9-12.3 38.2-9.6 12.5 2.1 16 2.4 19.7-1.4 3.5-3.5 3.9-6.9.7-10.1-3.9-3.9-7.7-2.5-12.2 1.2l-13.7-13.7c8.4-7.4 22-11.8 36.7 2.9 14.2 14.2 11.4 26.8 3.3 34.9-6.8 6.8-13.4 7.8-28.8 4.6-8.8-1.7-13.5-1.8-16.2-.9l22.2 22.2-12.8 9.3-38.4-38.1z"/><path fill="none" d="M.3.4h1000v1000H.3z"/><path fill="none" d="M100 599.9h400.2v300H100z"/><path d="M135.1 899.9V793.6c-6.6 3.1-18.6 5.6-25.7 6.2v-23.1c13.5-2.5 27.1-10.1 35.2-19.1h21.8v142.3h-31.3zM195.4 899.9v-2c0-24.7 11.1-44.9 41.9-67.3 20.1-14.7 26.1-19.7 26.1-32.1 0-12.3-6-19.2-17.9-19.2-13.9 0-18.9 8.5-20.9 20.9h-29.8c2-24.5 18.1-45 50.7-45 36.5 0 49 21.7 49 43 0 20.7-8.9 30.7-35.1 49.1-17.5 12.3-24.6 20.4-27 26.8h67.3l-3.8 25.8H195.4zM318.1 899.9v-2c0-24.7 11.1-44.9 41.9-67.3 20.1-14.7 26.1-19.7 26.1-32.1 0-12.3-6-19.2-17.9-19.2-13.9 0-18.9 8.5-20.9 20.9h-29.8c2-24.5 18.1-45 50.7-45 36.5 0 49 21.7 49 43 0 20.7-8.9 30.7-35.1 49.1-17.5 12.3-24.6 20.4-27 26.8h67.3l-3.8 25.8H318.1z"/><path fill="none" d="M600.4 100.3h300v300h-300z"/><path d="M722.3 257.9V151.6c-6.6 3.1-18.6 5.6-25.7 6.2v-23.1c13.5-2.5 27.1-10.1 35.2-19.1h21.8v142.3h-31.3zM891.1 186c0 39.1-12.4 74.5-54.6 74.5-41.7 0-54.6-34.3-54.6-73.7 0-39 14.3-73.7 55.2-73.7 39.7.1 54 32.5 54 72.9zm-77.3.5c0 26.1 3 49.4 23.1 49.4 19.6 0 22.2-21.7 22.2-49.7 0-27.6-3.3-48.3-21.9-48.3-18.2-.1-23.4 17.8-23.4 48.6z"/><path fill="none" stroke="#000" stroke-miterlimit="10" stroke-width="9" d="M112.3 739.9h311.5"/><path fill="none" d="M100.2 99.9h199.7V300H100.2z"/><path d="m210.4 150.9-3.7 32.7 23.8-20.9 11.6 19-31.5 12.6 31.3 12.6-11.4 19-23.8-21.2 3.8 32.9h-20.9l3.7-32.8-23.6 21-11.4-19 31.1-12.8-31.3-12.4 11.6-19.3 23.4 21.3-3.5-32.7h20.8z"/></svg>