<svg xmlns="http://www.w3.org/2000/svg" xml:space="preserve" baseProfile="tiny" overflow="visible" version="1.2" viewBox="0 0 1000 1000"><path fill="none" d="M0 0h1000v1000H0z"/><path fill="none" d="M100 99.9h800.1v300H100z"/><path d="m162 257.6-37.9-148.9h34.3c14 68.4 20.3 98.8 22.1 115.2h.2c5.7-27.4 20-79.2 28.7-115.2h28.9c7.7 28.6 22.7 86.4 27.6 113.6h.2c4.9-32.8 19.6-90.5 24.8-113.6h31.3l-40.3 148.9h-33.4c-7.8-33-20.9-81.1-26.2-106.6h-.2c-5.4 26.5-18.8 76.6-26.8 106.6H162zM372.9 198v59.6h-31.5v-149h65.4c32.5 0 50 17.9 50 40.9 0 20-10.9 30.8-21.6 35.2 7.4 2.7 18.5 10.4 18.5 37.1v7.4c0 10 .1 21.4 2.1 28.4h-30.5c-2.6-6.5-3.1-17.6-3.1-33.4V222c0-16.3-4.1-24-28.1-24h-21.2zm0-25.7h27c17.6 0 24.4-6.7 24.4-19.2 0-12.1-7.9-18.9-23.7-18.9h-27.8v38.1zM587.9 193.3h-71.2v37.8h78.6l-3.8 26.4h-106V108.6h105.6V135h-74.3v31.9H588v26.4zM747.1 211.7c-6 27.8-26.9 48-64.2 48-47.2 0-69.5-33.4-69.5-75.8 0-40.8 23-77.4 71.1-77.4 39.7 0 58.9 23.3 62.5 48.2h-32.2c-3.1-11.5-11.1-22.9-31.3-22.9-26.6 0-36.8 23.9-36.8 51 0 25.2 8.9 51.7 37.7 51.7 21 0 27.6-14.1 30.5-22.8h32.2zM771.9 108.6h31.8v66.5c9.8-11.5 40.5-45 59.3-66.5h38.6l-59.8 61.9 62 87h-38.6l-45.7-66.2-15.7 15v51.1H772V108.6zM625.6 473.9c-6.8-17-5.9-12.6 7.4-26.7-3.9 1.6-5.7 8.5-9.4 6.1-6.7-6.1-11.3-9.7-2.5-16.2-5 3.2-8.4 12.4-14.5 5.2.1 3 6.6 2.9 4.9 5.3-18.5-18.4-38-37.5-57.4-56 5.3-1.9 11.3-8.7 16.2-7.9 2.5 4.1 10.8 4.2 7.8 9.7.9-1.2 2.2-4.3 3.4-1.6-.7 2.1-5.4 3-.7 2 6.2-.5 11-16.2.4-5.1 6.8-6.6 7.4-.4 1.3 2.5-24.7-10.6 1.1-13.1 9.5-24.1-12.2 5.6-20.7 15.3-35 21.4 12.5-12.6 25.2-23.8 37-36.3-16.4 8-32.5 49.5-48.6 24.8-2.7 1.8 3.1 2.8 0 4.5 2.3-.9 3-.9 1.4 1.3 6.5-2.2-1.9 4 4.2.8.9.7-.2 1.1-.2 1.8 3.7-1-1.7 2.7 5.2 4.2-9.8 1.5-23.9 17.6-24.7 11.8-3.4 7.7-4.5 1.4-7.9 8.5-1.8-6.8-1 4.7-4.6 3-1.1 1-2.4 4.7-2.4 1.2-5 2.1-6.8 4.8-9.2 8.5-29 16.3 34.2-36.2 7.9-16.1-8.5 10-28 19.6-10.8 29.4 3.3 4.3 13.4 9.1 12.4 14.2-10.6 5 3.5 18 8.8 7.7 2.2-.9 6.8 4 6 6.5.5.5.8-1.2 1.7-.4-6.9 4.8-5.4 3.4-3 10.2 4.8-5.5 5.4-4.8 1.3.6 4.1-1.5 4.9-11.1 10.4-2.7 10.1 6.7-3.6 13.7-8.1 4.3 5.3 13.8 18.4-3.7 9.1 6.3-3.8 6.8 4.5-5.2 6.6-3.2 1.8 2.6-3.3 4.4-4.5 6.5-1.4.5 0 2.1.9.7 5.8-12.2 14.8 3 18.1 8.8 2.4 3.7 4 2.2.8-1 5.1 2.7 5.2 2.7 5.5 5.6-1.6-2.8-7.6.4-2.2.2 4.1-2.2 7.3 5.9 10.7 1.7 4.2-5.4 11.6-9.5 14.1-15.4-5.7 4.8-10 10.3-16.4 16 1.4-2.7-1.1-3.3-3.2-2.2 0-2 1.5-1.2 2.2-1.7 1.1-2.1-3.4.6 2.4-4.2 7.8-6.5 11-16.6 19.5-22.1 2.8-4.4 8.4-18.1 16.3-20.3-5.1 3.3 4 .2-.6 3.4-.5 1.8 1.6.5-.9 2.7 14.3-.9-6.1 13.7-9.8 18.3-19.6 25.2 10.8-15.6 17.9-11.4 4.1 5.9-2.3 5.3 4 11.4-1.2-4.7-2.7-7.6 1.3-2.5zm-5.5-17.6c1.6.4 2.5-.5 3-2 1.7 2.1-4.7 7.3-4.6 3.6-3.1-2 2.2-2.5.3-4.9-1.2 5.1-5.7-2.2-4.1-4.2-.2-4.3-.6-2.6 2.8 0 1.3 1 .3 1.5-.3 2.2.8.8 1.4-1.2 2.1-.3 1 1-1.5 1.6-.5 2.4 3-2.8 5.1 2.4 1.3 3.2zm-105.3-12.1c-31.5-21.2 21.7-35.6 35.7-50.8 21.5 10.8 39.4 38.3 59.7 54.4-42.2 75.4-45 41.6-95.4-3.6zm.7 8.2c2-1 2.3-4.1 4.7-2 3.2 5.5-12.7 9.3-4.7 2zm15.1 16.6c-2.7-2.1.8-3.2 2.1-.8 2.5 1.6-1.2 3.2-2.1.8zm-9.3-13.9c-.7 1.8-3.9.9-1.6-.6 1.5-2.6 4.4-2.1 1.6.6z"/><path d="M642.5 438.8c-31.7 34.7-14.6 9.5-17 42.7-3.8-8.1-6.4-8.7-6.2-16.4-7.4 2.5-15.8 15.8-23.5 21.8-4.9 1.3-16.9 24.9-23.4 14.8-.3-.1.8 7.9.7 7.9-1.4-3.2-4.6-13.9-6.9-4.9-.5-8.7-7.7-15.9-14.8-22.2-9.2 17.8-16.6-14.6-22.5-3.3 2.5-16.5-10.4-1 1.6-17.1-9.1-6.6-8 10.5-21.4-7.9 17.7-7.6-9.3-14.2-10.1-22.6-5.2-5.6-5.2-7.2 2.3-13.4 7-4.5 17.1-21.4 23-19.2 3.5 6.4-19.7 15.6-11.1 15.5 5.9-3.9 5.6-1.8 9.1-8.4 5 .9 8.8-10 11-5.1 2.9-4.8 18.6-7.9 17.6-13.5-.8-2.2-4.4-1.6-5.3-4.6-5-.3-5.1-.5-.8-2.7-2.2-1.4-1.2-4.4 1.1-5.2 17.1 27.4 32.3-23.7 52.5-25-6.8 9.1-45.2 40.8-22.6 26.4 1.3-4.4 11.5-7.9 15.4-10.7.1-.3 3.4-8.8 3.2-8.4 0 .4-.7 10.8-.7 10.8-3.4 7.9-30.8 12.7-15 18.8 6.3-1.3 18.6-11.3 7.3 5 .2.5 8 8.6 8 8.7-13.5-11.4-15.6-.1-17.1-6.7 0-1.3-4 2.1-4 1.9 5.7-2.8-1.2-10.2-4.3-10.5-13 6.6-13.7 7.4-1.4 16.6 15.1 13.8 28.1 28.4 43.1 41.4 3.7 1.2 6.5-5.8 9.9-7.2 4.8 2.7-2 5.4-3.5 8.1 8.1 14 15.6.3 25.8-5.4zm-25.7 13.6c0 .2.1.4.4.6 0-.3 0-.5-.4-.6zm-.4-2.6c.1-.2-.2-.3-.2 0h.2zm-19.7 30.5c3.6-6.5 21.4-16 16.1-20.9-2.2-.8-4-3.8-5.1-.1-6.1 5.6-6.4 12.2-13.4 17.2-1.2 2.3-3.7 1.6-1.1 3.8-3.2.1-3.8 2.5-5.1 5.2-12.6 11.1-12.4 18.9-1.6 3.2 1.4 2.3 2.1-2.9 4.1-2.6 3.6-2.7 2.6-3 6.1-5.8zm18.4-21.7.3.1c0-.2-.1-.3-.3-.1zm-1.7-9.9c.2-2-.7.8-.8 1.6.6-.1.6-1.1.8-1.6zm-3.5 7.6c2.7-2.3.7-2.1-.7.6 1.3.8 3.1-.2.7-.6zm-.1-7.2zm-59.9 27c25.9 37.4 37.1-2.1 56.8-22.8-2.5-19.8-39-38.8-53.3-58.4-12 4.1-24 16.6-36 23.6-15 9.2-15.6 13.8-1.7 24.8 7.7 4.1 20.5 29.1 23.3 11.3-4.6 7.3 5.4 22.9 12.4 17.9.2-.2-1.5 3.6-1.5 3.6zm47.2-5.6c.1-.1.3-.4.4-.6-.1.1-.5.5-.4.6zm.4-.1zm-.5.2zm-13.8-81c.1-.1.2-.3.4-.4-.2.1-.7.2-.4.4zm-4.2-15.4s0 .1 0 0c0 .1 0 0 0 0zm-1.4 16.4c.1-.2-.1-.2-.4-.4-.1 0 .4.4.4.4zm-2.5 106.2zm-2.7 1.7c.2-.5.5-.8.8-1-1.1-.2-2.2.4-.8 1zm-27.1-118.6zm-4.6 100.3c5.7-3.8 3.4-5.2-.9-8.8-6.1-4.2-4.7 6.5.9 8.8zm-.2.1zm-6.5-13 .7-1.8c-1.2-1.3-2.8 1.3-.7 1.8zm-2.9-62.2c.2-.1.4-.3.6-.4-.5-.2-.4 0-.6.4zm-5.6 3.9c.4-.5 1.7-.7 1.3-1.4-.5.5-1 .9-1.3 1.4zm-5.6 51.9c1.5-1.9 7.1-3.7 3.7-6-1.2.4-.4 1.8-1.7 1.7-2.4 2.7-7.5-.9-2 4.3zm.3.3zm-.7-9.4zm-4.4 3.7c1.2-1.1 3.9-2.6 4-4-.9.5-4 2.8-4 4zm3.7-4.4zm-6.6-32.5c.6-.5 2-1.2.4-.8-.4 0-.3.5-.4.8zm-5.4 1.1c.4-.7 3.3-1.9 2.3-2.1-5.1 1.2-3.2 7.4-2.3 2.1zm-5.7 9.8c.1-1.3.7-2.4 1.6-3.2-2.1.7-3.5 1.2-1.6 3.2zm.7 3.3c0 .2.1.3.2.4-.1-.1-.2-.3-.2-.4z"/><path d="M421.7 578.2c-69.4-72.7-57-35.5 7.2-105.5 18.7-17.9 22.6-31.9 42.9-7.2-26-19-10.5-25.3 7-40.9-6.5 2.5 1.2 11.4 4.2 7.9 15.8 3.2 29.8 29.7 45.1 40.2 15.3 13.3 29.9 32.7 45.9 42.6-22.3-19.4-44.1-41.7-65.3-62.9-22.6-21.3-28.1-43.4-52.5-10.4-36.2 36.2-.3 2.5 16.1-14.8-32.1 37.3-73.3 68.4-108.3 107 .7.4 2.6.2.8 1.7-8.8 8.8 3.8-2.7 7.1-6.2 17.2 14.7 32.9 33.6 49.8 48.5zm54.8-149.5c.5-.4 6.3 1.6 1.8-1.6 5.3-2 7.3 11.3-1.8 1.6zm-45.6 40.1c-1.9 3.6-6 7.8-8.6 8.6 3-3.1 5.8-5.8 8.6-8.6z"/><path d="M576 510.4c2.1 26.2-78.5-71.1-90.9-78-15.6 6.6-1.9-14.1-27.3 14.4 1.2 7.8 15.8 16 21.3 23.7-10.6-3.3-17.3-13-25.2-19.8-14.7 13.5-27.7 26.8-41.5 40.6 2.6-5.7 0-1.6-2.2.1 3.7.5-23.9 24.8-23.6 25.5-.7-3.6-11.1 10.1-12 10 1 4.3 6.4 7.6 9.6 11.1 15.2 12.2 26.5 31.3 43.2 40.1-12.9 5.7-41.2-37-54.6-45.9-50.4 39.8 50.7-60.9 62.6-70.6 13.9-10.1 35.1-52.3 50.2-34.4 29.6 24.1 60.9 71.5 90.4 83.2zm-94.2-79.5c.5-.4-.5-.7-.8-1.1-.6.5.4.7.8 1.1zm-5-7.5c.2-.2 1-.3.6-.6 0 .1-.5.4-.6.6zM609.7 358.1c11.9-5.3 20.3-19.3 29.2-21.9 1 1.8-2.3 2.3-2.5 4 9-5.4 17.6 14.5 26.1 19.5-1.3 10.6-17.3-13.8-22.7-16.9-1.4 4.9 34.6 21.8 16.1 33.4 3.3.2 3.1-2.5 4.3-4.6 3.4-5.2 13.7 7.3 13.8 10.4-6.5-.8-11.1-16.3-15.3-1.6 1.6-7.3 9.8-.2 8.5 3.1-12.1 7.1-.7-1.3 4.4.7-6 8.4 1-2.4 4.4-2.1 6.7 7.7 13.9 10.1.5-2.6 13.8 18.5-28.4-27.9-1.6-.6-4.7-5.4-16.1-17.6-2.2-9.1 4.5 3 9.4 13.7 14.7 11.7 5-4.9 5.1-4.9.1-9.9-8.4-10.6-94.6-95.5-57.6-44.6 15.1 26.3-25.6-24.9-25.2-8.8 5.8-6.8 14.6 5.7 12.6 9.9-9.1 11.5-1.2-1.9 3.4.4 13.8 12.4-.6.3-3.7-5.5 3.6.4 21.1 19.2 11.6 12.5 0 1 .9 1.2 1.3 1.7 3.4 4.8-17 16.8-20.2 20.9zm58.8 6.6c-2.2 2.1-3.7-2.9-5 .8-.3.9-1.5-.7-1.5-.9 1.5-4.1 4.2-.5 5.6-3.6 3.1-3.4 5.4 3.5 4.6-.7-12.5 1.8-20.7-14.4-31.4-23.2-3.6-3.1 5.5-6.2-.9-8.8-5.8 2.1-23.6-8.5-17.5-16.4 4.8-3.1 85.2 73.1 62.2 69-2.7-4.5-14-10.3-12.1-14.5 2.9-3.4-2.3-1.6-4-1.7zM636 334.8c9.2-13.2 4.4 3.4-.7.5-3-4.4 3.3-7.4.7-.5zm33.5 46.7c-2.2.5-5.6-4.4-6.9-6.9l6.9 6.9z"/><path d="M692.9 376.7c-4.8 20-22.7-11.5-23.4-6.5 6.9 8 19.8 15.6 15.8 25.4-5.1-13-12.3-12.5-20-1.8-.4-2 6.4-11.9 2.4-7.9-3.9 3.5-18.4 2.4-7.6-.7 11.2-2 1.6-11.2-2.4-.4 2-13.6-10.1-1.3 1.6-15 5.5-5-13-15.6-18.1-23-10-14.9-19.5 11.2-32.8 13.8-.1-9.1 15.5-10.5 17.7-19.8-5.9.4 3.6-1.3 3.7-1.6-9.6-14.5-15.1-5.5-25.1 5 2.8-5 8.9-13.8 12.1-17.7-4.3-7.1-5.1-10.9-14.2-5.5l-2.9-.5c11.4-16.5 23.5 6.1 32.9 13.5-2-9.5-26.2-18.6-8.2-26.2 23.3 20.5 48.6 45.5 68.5 68.9zm-6.9 3.4c9.4-4.3-10.1-14.8-12-19.1-1.5 8.1 5.7 12.7 12 19.1zm-14.9 2c.4.2.3.1.2-.2 0-.1-.2.2-.2.2zm.2-.2zm-3.7-18.6c1.1-.4 1.7.5 2.9-.3 0-2.6-1.9-1.1-2.9.3zm-1.8-3.4c9.5-2.3-21.9-32.6-24.1-25.2 5.5 8.9 17.4 17.5 24.1 25.2zm1.9 16c.1.2.4.5.7.7l-.7-.7zm-2.5-10.6zm-2.8 6.9c.8 0 3 1.1 1.7-.1-1.1-1.6-2.3-.8-1.7.1zm-1.4-10.4c-3.2-6-15.8-19.2-21.7-21.4 7.6 6.6 14.3 14.3 21.7 21.4zm-20.6-22.7zm-6.7-11.3c11.2-2.2-4.7-10-9.1-15.9-2 1.7-4.8 3.4-1.2 5.7l10.3 10.2zm3.3 1.4.7-.1c-.2 0-.5 0-.7.1zm-21.8-7.2zM408.4 690.4c-4.9-3.6 2-2.9 3.3-6.4-4.2 1.9-5.9 4.8-9.7.1-26.5-32.1-73.3-62.6-89.9-95.8 12.5-12.5 18.3-26.6 44.1 6.2-3.3-10.4-24-17-22.7-27.6-2.4 1.6-5.1 6.7-7.5 6.5 13.9-12.6-20.7 13.7-16 19.6 30.1 33.2 65.1 68.8 98.4 97.4zM318 601.5c6.5 5.7 14.6 13.8 20.3 20.3L318 601.5zm65 64.7 9.9 9.9c-3.7-2.9-6.8-6.3-9.9-9.9zm-39.3-39c2.8 2 7.1 6.4 9.2 9.2l-9.2-9.2z"/><path d="M413.9 683.1c-1.7 4.2-6.2 4.7-5 8.6-2.1.5-10.3-5.5-11.6-7.1-27.2-31.7-62.4-58.4-88.3-90.6-4.4-10 16.5-22 23.4-28.4.3 1.2 2.6 1 1.6 1.7.9 5.6 10.1 10.8 14.4 15.9 3.6 4.4 11.2 7.1 8.8 14.2-8.6-7.8-17.5-18.8-26.1-25.1-3.1 5.7-22.2 16.9-18.2 20.4 32 24.3 67.1 83.5 101 90.4zm-10.4 4.7zM574 515.4c-1.1 2.4 3.6 3.6 0 5.8-.8 2 1.4 1.3 2.2.9-5.3 2.9-13 8.8-18.3 15.3 9.9-9.3 25.2-14.8 20.6-20.6-17.1-21.4-31.4-25.9-4.5-1.4zm-6.8-9.8c1.7 1.2 10 8.7 4.5 6.6-6.8-5.1-17.7-19.3-4.5-6.6z"/><path d="M581.4 518.9c-4 8.6-15 15.5-21.1 23 8.2-12.8.9-2.4-7.2-.8 8-10.9 22-19.1 19.3-23.8-6.6-10-19.5-19.8-27.9-29.6 9.5 6.9 23.9 12.1 29.8 22.1l2.7-8.8c-2.4 9.1.1 11.6 4.4 17.9zm-4.3 1.9c2.9-1.9-.4-3.5-1.5-5.1.9 1.6 1.2 3.8 1.5 5.1zM568.7 354.2c12.1-14.5 51.6-46.6 16.7-20.5-12.1-2.5-7.5 15.3-16.7 20.5zm11.1-13c-4.8-.1 5.4-9.6 4.7-5 .5 1 1.8-2.4 3.4-2.1-3.1 3.3-15.1 15.1-8.1 7.1z"/><path d="M604.6 320.4c-.9-1.4-41 46.5-37.2 32.4 10-4.2 4.5-24.2 17.1-20.2 8.1-.5 14.7-17.8 20.1-12.2zm-21.4 15zm-.2.2zm-4.6 1.8c.8-.8 1.6-1.7 2.6-2.5-1.2.3-2 1.5-2.6 2.5zM507.5 587c4.9-12.9-48.7-49.4-64.1-70.3 9.9 17.2 58 48.1 64.1 70.3z"/><path d="M514.3 582.2c-2.7 1.8-6.4 9.5-9.7 4.6-6.8-24-48.8-49.1-67.2-73.2 27.3 12.5 49 51.7 76.9 68.6zM418.5 676c9 1.9 20.3-17.5 30.8-25.6-11.5 10.5-21.8 20.5-30.8 25.6z"/><path d="M451.5 650.4c-.3-1.9-35.5 40.3-30.8 27.4-1.4-.7-5.3.5-6.7.8 1.8.2 15-19.7 12.7-8.4 7.2-4.5 18.6-25.3 24.8-19.8zm-28 23.7c.4-.2.3-.8.3-1.2-.5.4-.8.7-.3 1.2zM616.1 413.2c-6.1 4.3-6.9 4.3-11.8-1.7 1.8 4.2 7.6 6 3 11.5 3.9-3.9 16.1 8.3 11.6 11.4 1.1 3 5.1-7.9 7.2-10.4-4.6 8.1-9 4.9-13.2-1.9-1.1-2.9 4.5-4.5 3.9-8.1-4.1 8.5-8.9 4.6-.7-.8z"/><path d="M630.2 420 620 437.7c-3.8-1.1-2.3-4.1-1-6.2-8-8.9-9.8-9.3-19.7-1.7 11-9.5 8.1-12.2.6-22.7 7.8 4 9.1 10.3 16.9 4.4 1.3-1.3 2.3-5.3 1.8-.5 2.3 5.8-9.5 10.5 1.6 16.6 2.3.1 5.4-6.9 10-7.6zM620 435.4zm-9.5-15.1c0-.1 0 0 0 0 .2 0 .1 0 0 0zM470.5 623c-5.5-.9-7.7-8.1-13.4-10.2 4.7 5.9 14.7 11 8.5 15.6-4.5 1.3 2 1.7-.8 5.2-23.6 22.5 17.5-13.3 3.6-5.3-2.3-2 .7-3.7 2.1-5.3z"/><path d="M478.2 622.9c-1.8-.2-22.3 27.1-24 19.7 1.9-3.4 7.9-7 9.4-10.9-3.5-2.2.7-4.9 2.1-6.8.9-3.5-8-6.9-9.9-11.2-5.1-6.6-5.4-6.4 1.9-2.2 7.8 3.5 9.2 12.7 17.4 8.9l-3.6 3.6c-5.8 5.7 2.9-1.8 6.7-1.1zm-11.6 7.4.7-.7c-.3.1-.8.1-.7.7zM364.4 602c12.2 12.3 24.7 24.3 37.1 36.4-12-12.5-24.1-24.9-37.1-36.4z"/><path d="M402.6 637.3c-12.6-.9-26.6-25-39.3-34.3 12.9.3 26.8 24.8 39.3 34.3zM445.1 649.7c-19.7 24-23.7 5.7-42.2-9.5 19.5 17.3 22.3 35.7 42.2 9.5z"/><path d="M448.3 646.5c-22.3 33.6-23.2 15.9-46.5-5.2 8.5-3.5 18.2 16.6 26.7 21.4 5.9-4.4 11.3-13.7 19.8-16.2zM530.6 523c12.4 13.2 27.3 19.4 7.7 34 4.4-5.3 14.3-12.7 16.2-17-8.2 5.1-15.5-14-23.9-17z"/><path d="M558.9 538.5c-1.9-.1-19.9 24.6-21.7 17.5 3.1-4 6.8-7.9 11.2-12.1.1-7-22.4-15.3-16.6-22 10.3 6 14.9 20.8 27.1 16.6zM662.1 419.5c6.1-4.7 4.6-2.5.3 2-3.9 4.7 7.5-.2 6.1-3.4 1.3-10.3-2.1-3.5-6.4 1.4z"/><path d="M670.6 411.7c2.5 6.7-9.8 20.5-10.3 9.2-2.6-.3 12.1-17.5 10.3-9.2zM597.6 411.2c13.1 13.4-4.6-19-11.7-12.3.9 4.8 9.2 7.4 11.7 12.3.3-4-15.9-12.2-8.4-12 5.1 1.9 19.7 20.1 8.4 12z"/><path d="M604.9 413.3c-5.6 10.2-13.6-9.9-20.6-12.3 2.4-13.1 17.4 5.6 20.6 12.3zM629.4 419c5.8-9.3 12-18.3 16.2-28.4-5.4 9.5-11.2 18.8-16.2 28.4z"/><path d="M647 391.3c-5.1 7.8-10.6 27.8-19 27.1 6.1-7.5 10.6-27.4 19-27.1zM335 565c4.8-2.9 21.9-21.9 15.9-16.1-4.4 2.2-11.4 10.3-18 17.2 10.5-10.9 15.5-14.1 2.1-1.1z"/><path d="M354.7 547.2c-1.5 5.3-29.4 29.3-19.6 14.4 4.2-3.1 17.4-22.4 19.6-14.4zm-1.5.5zM672.7 389.1c-.1 7.7 11.2-2.3 4-4.5-1.2-1-3.9 1.8-4 4 2.7-2.5 2.7 1.5 4.8 1.5-2.5 1.8-3.7.7-4.8-1z"/><path d="M682 388.6c-2.6 3.9-12 7.9-10.8.2-.3-6.8 10.5-8.1 9.1-.3-.2.1 1.7.1 1.7.1zm-4.9-.4c.9-1.3 0-1.6-1.1-2.3-1.4.6.8 1.4 1.1 2.3zM483.6 597.6c-.5 13.6 16.5 2.4 1-1 6.3.8 6.6 11 3.5 3.6-.5-1.4-1-.1-1.5-.3-1.4-.4.5 1.7-.9 1.5-1.1-.2-.1-1.3-.8-1.8-2 .6-1.8-.2-1.3-2z"/><path d="M493.1 601.7c-.7 4.7-6.1 3.6-9.6 4.7 3.2-2-1.4-4-1.8-6.2-1.5-9.2 10.1-4.5 11.4 1.5zM399.7 509.5c-2.7-4.3-6.4-1.5-5.4 1.4 3 6 12.1 4.4 5.4-1.4zm-3-1.2c1.8 1.9 7.8 4.8 2.7 6.6-1.7-1.9-1.2-4.1-2.7-6.6z"/><path d="M404 512.8c-2.1 7-7.6 3.3-10.7-.8-2.2-3.4 2.6-5.6-2.9-11.2 5 5.3 11.3 5.9 13.6 12zm-8.6-2.9c.9 1 1.2 1.1.3-.3 0 .1-.2.2-.3.3zM443.9 643.1c4 6.2 9.6-1.6 3.3-4.8-4.2-4.5-8.3 2.3-3.3 4.8zm2.1-2c3 6.3-.7 2.5-3.5-.4-1.8-8.9 13.6 6.1 3.5.4z"/><path d="M451.9 642.1c-1.4 7.5-7.9 4.8-11.3-.2-3.9-9.2 10.6-7 11.3.2zm-7.4-1.4.2-1.1c-1.4-.2-.9.5-.2 1.1zM436.4 472.7c4.3 5.2 8-2 3.1-4.7-3.2-4.7-8.2 2.7-3.1 4.7zm-.1-5.8c2.9 1.3 8.1 6.2 2.1 6-2.5-.6-5-5.5-1.1-2.7 1-1.4-1.7-1.5-1-3.3z"/><path d="M443.8 471.3c-1.4 7.9-9.2 4.4-11.3-1.1.4-8.5 9.3-5 11.3 1.1zm-5.5 0c.4.2 1.1.4 1.5.1-.7-.7-.8-1-1.5-.1zM314.2 593.4c3.5 4.8 8.5.3 3.4-3.3-2.4-3.4-6.9 1.3-3.4 3.3zm-.6-3c2.6 3.9 4.4 3.3 2.3-.4 6.5 4.9.3 7.6-2.3.4z"/><path d="M321.5 593.3c-2.6 9.1-12.5-.2-9.8-6.5 3.3 1.4 8.9.7 9.8 6.5zM538.1 561.4c-4.2 1.5-2.3-.9-1.1-3.2-4.8 3.9-7.2 7.8-9.2 13.1 7.9-7.6 1.1-4.4 10.3-9.9z"/><path d="M540.3 560.9c-2.2 3.1-9 8.5-11.5 11.5-5.8-5.2 5.4-12.9 9.3-17.4.2 3 .3 5.4 2.2 5.9zM421.8 578.2c4.9 5.6 10.4 10.7 16 15.6-4.6-5.7-9.9-12-16-15.6z"/><path d="M443.5 600.2c-10.5-5.8-16.8-19.1-27.8-21.8 11.1-6.2 21.4 12.7 27.8 21.8zM493.2 601.1c-6.4 6.4-26.2 22.8-8.2 8.3 1.5-3 11.8-3.9 8.2-8.3z"/><path d="M496 602.7c-2.9 2.9-18.7 17.5-21.1 13.4 4.2-8 18.7-10.7 16.3-20.4.9 1.9 4.3 5 4.8 7zM445.1 649.7c2.8-4.1 5.9.8 4.2-2.5 1 .6 2.1 1.7 3 0-1-.1-2.2.8-2.4-1 1-.7 4.7.4 4.2-1.5-.2-8.9-3.3 1.7-9 5z"/><path d="M463.1 629.6c-.6 2-9.3 12.7-8.1 13.9 2.4 3.6-4.7 5.6-5 9.1l-1.4-2.5c-15.5 5.2 10.4-15.1 14.5-20.5zm-9.9 16.2zm-5.3 3.3zM524 398.3c7.4-1.8 8.6-10.2 14.8-13.3-5.1 1.4-10 9.9-14.8 13.3z"/><path d="M547.8 382c-12.4 3.5-16.2 18.7-30.1 19.4 10-6.8 16.5-20.3 30.1-19.4zM358.6 557c3.5-3.8.2-6-3.1-8.5-6.4 1.2.7 5.8 3.1 8.5zm-3.6-7.7c1.5 1.4 4.8 2.8 4.5 5.1-2.8 1.4-4-3.1-4.5-5.1z"/><path d="M362.1 553.9c-.8 2.4-2.7 3.7-2.2 6.5-2-3.5-11-7.3-8-11.6 1.6-.6.6-2.7.3-3.8 3.3 2.7 8.5 3.6 9.9 8.9zM520.8 573.6c-8.2 18.2-7.6 10 5-.3-1.5 1.2-6.1 4.4-5 .3z"/><path d="M533.6 567.6c-1.8-.1-20.6 25.3-22.2 17.9 6.6-5.1 8.8-13.2 8.9-21.1 1.3 13.3 4.4 7.1 13.3 3.2zM524.4 558.7c2.1 4.3 10 6.1 7.4.2-2.8-4-3.9-2.7-7.4-.2zm4.2 2.9c-6.4-3.3 1.7-7.2 3.2-1.2.3 1.1-1 1.9-2.6 2 2.4-.7 1.5-1.6.5-2.4-2-2.4-2.3 0-1.1 1.6z"/><path d="M534.3 560.2c-1.1 7.2-14.4 3.1-19.4 5.1 3.2-2.2 15.7-1.6 6.9-7 5.9-3.9 9.1-5.6 12.5 1.9zM654.7 424.4c2.2.8 10.3-11.1 15.6-15-2.6.9-11 11.3-15.6 15z"/><path d="M672.2 408.7c-12.4 11.8-18.3 31.1-22.1 2.7l5.1 10.4c1.2.6 17.3-21.6 17-13.1zM430.4 503.7c-3.5-5.6-16.2-11.8-14.7-17.5-5.4 2.6 11.6 15.4 14.7 17.5z"/><path d="M432.5 503.7c-5.5 5.9-13.1-10.2-18.8-13.4-5.6-14.4 15 10.1 18.8 13.4zM619.8 334c.7 2.6 7.6 4.5 4.6 7.1-9 4.3-1.6 2.5 3-.7 1.7-2-3-4.2-4.7-5.1 6.5 6.9 1.4 1.1-2.9-1.3z"/><path d="M632.6 343c-6.1-3.8-10.6 4.8-17.6 1.8 2.2-2.2 6.5-3.5 8.5-5.1-3.5-2.4-6-6.9-7.7-9.3 7.1 2.3 12.6 6.5 16.8 12.6zM453.3 608.1c-4.5-3.6-9.2-11-13.7-12.6 4.5 3.5 9.1 11 13.7 12.6z"/><path d="M455.4 608.1c-2.2 8.2-15.6-12.3-17.9-12.7 2.2-8.2 15.6 12.4 17.9 12.7zM359.6 540.7c-7.9 7.7.6-1.1 3.3-4.9l-9.4 9.4c-.7 4.1 7-3.9 6.1-4.5z"/><path d="M370.8 525.7c-6.3 11.7-12.6 20.2-22.9 28.8 4.2-10.9 13.9-20.4 22.9-28.8zM603.3 410.2c-2.3-5.4-5.2-10.1-9.4-13 3.5 3.8 6.9 7.8 9.4 13z"/><path d="M604.7 409.6c-7 .4-13-15.8-20-20.3 8.4 5.5 15.9 9 20 20.3zM615.5 339.9c1.8-4 3.7-6.5 6.7-7-2.8-6.9-6 3.9-6.7 7z"/><path d="M623.8 332.7c0 2.7-2.1 2-3.5 2.8-2.2 1.3-4 7.1-5.7 9.3-2.1-5.9 3.7-23.2 9.2-12.1zM408.1 683.1c-1.5-4-2.9.4-4.9-2.5-2.4 1.8 5.7 7 4.9 2.5z"/><path d="M409.7 682.8c.9 8.1-12.4.6-7.3-3.4 2.9-.5 6.1.3 7.3 3.4zm-3.6.1c.1 0 .4.3.3.1-.1-.1-.2-.3-.3-.1zM592.2 366.9c1.1 4.2 11.7-6.5 6.7-3.5-2.3.7-5.2 2.5-6.7 3.5z"/><path d="M602 363.5c-11.1 12-12.4 4.6-10.7-7.7 3.5 20.3 5.5-2.5 10.7 7.7zm-2.7-1.6s0 .1 0 0c0 .1 0 0 0 0zM408.1 683.1c6 5.2-3.1-11-6.7-2.9.8 1.3 3.5-2.1 4.2-1.2.3 1.8 4.3 1.2 2.5 4.1z"/><path d="M411.8 683.1c.1 2.3-4.1 3.3-6 4.4.1-2.2 2.3-6-.8-6.7-13.5 3.5 2.4-12.3 6.8 2.3zM654.7 424.4c-4.6 4.5-9.4 8.7-13.2 14 3.8-5.2 10.4-8.7 13.2-14z"/><path d="M656.4 424.9c-3.9 3.9-11.3 16-16.1 12.6 3.9-3.5 13.3-18.9 16.1-12.6zM408.5 690.4c4.9-3 8.8-7.4 12.5-11.7-3.9 4.1-9.1 7-12.5 11.7z"/><path d="M422.2 679.5c-2.4 2.6-14.6 17.6-14.9 9.9 3.9-3.2 10.6-13.8 14.9-9.9zM348.3 627.4c3.1 4.4 7.6 7.4 11.6 11-3.2-4.4-8.1-7-11.6-11z"/><path d="M369.4 649.2c-6.6-6.7-16.6-13.6-22.4-20.9 7.7-3.4 17.2 14.9 22.4 20.9zM609.9 336l-13 13c4.8-3.9 9.2-8.2 13-13z"/><path d="M611.1 336.9c-3.7 3-10.8 16.2-15.3 11.1 2-.3 13.4-17.5 15.3-11.1zM515.1 507.8c4.5 4 9 9.8 13.4 13-4.4-4-8.9-9.8-13.4-13z"/><path d="M530.7 520.8c-1.9 7.6-15.6-12.8-17.7-13l2.3-2.4 15.4 15.4zM381.5 519.1l-6.9 6.9c2.9-1.7 5.2-4.1 6.9-6.9z"/><path d="M389.4 509c-4.8 10.1-13.3 19.7-23.8 23.8 0 .1 23.8-23.8 23.8-23.8zM477.5 620.9c3.8-4.3 9.6-8.7 12.5-13-3.8 4.3-9.7 8.7-12.5 13z"/><path d="M492.4 608.1c-2.2.5-14.9 19.5-17.4 12.7 2.1-.2 15.5-20.3 17.4-12.7zM609.7 358.1c-.2-3-1.1-.7-1.9 0-9.1 4.2-3 4.8 1.9 0z"/><path d="M611.2 358.9c-2.5 1-6.9 6.3-9.2 3.9-2.5-3.9 10.9-12.1 9.2-3.9zM363.5 601.2c-1-3.1-4.4-4.2-5.4-7.3-.3 4.1 3.6 4.9 5.4 7.3z"/><path d="M367.7 609.7c-5-7.7-14.1-13.1-10.6-23.8 1.6 8.5 9.4 15.1 10.6 23.8zM314.8 595.4c2.3 3.6 5.8 5.9 9 8.6-2.5-3.4-5.8-6-9-8.6z"/><path d="M333 613.6c-8.7-7.2-19.7-15.1-24.7-25.7 8.9 6.7 18.6 16.3 24.7 25.7zM634.1 423.6l-9.8 9.8c3.7-2.8 7.1-6 9.8-9.8z"/><path d="M635.3 424.4c-2.4 2.3-8.6 13.2-12.1 7.9 2-.7 9.9-13.5 12.1-7.9zM569.5 514.5c5.4 4.7 0 1.9 1.7 4.8 4.7 3.2 1.5-4.9-1.7-4.8z"/><path d="M575.2 518.9c0 5.4-8.4 1.7-5.6-1.9-.6-1.1-4.7-4.3-5.6-5.2 4.2.7 10.9 2 11.2 7.1zM498.5 595.4c3.3-1.5 5.3-4.3 7.2-7.2l-7.2 7.2z"/><path d="M515.2 576.6c-5.7 9.1-12.5 20.9-23.7 23.7l23.7-23.7zM554.8 368c3.1-3.5 7.6-6.9 10.1-10.4-3.2 3.5-7.5 6.8-10.1 10.4z"/><path d="M567.1 357.8c-1-.5-14.1 17.7-13.7 10.8 3-1.5-.5.9-.5-1.2 2.1-.4 12.4-16.7 14.2-9.6zM330.4 594.1c-2.7-2.8-5.3-5.6-9-7.2 3.3 2.1 5.5 5.4 9 7.2z"/><path d="M337.7 599.6c-4.7-3-18.9-7.9-15.7-14 6.2 2.7 11 9.4 15.7 14zM568.4 515.7c-1.6 1.9.3 4.9 4.3 6.8-.6-2.8-5.4-3-4.3-6.8z"/><path d="M574.8 525.1c-9.5-2.9-10.3-10-3.1-15.6-4.5 8.3 1.8 8.5 3.1 15.6zM548.3 489.6c1.3 2.1 2.8 3.9 5.1 5.1-1.7-1.8-3.4-3.4-5.1-5.1z"/><path d="M561.1 500.2c-10-2.8-16.8-13-21.5-21.5l21.5 21.5zM461.9 631.9c-1.7 2.2-5.5 4.5-6.1 6.6 1.7-2.2 5.5-4.5 6.1-6.6z"/><path d="m464.3 632.1-8.5 8.5c-6.5-2.1 5.1-8.5 6-10.8l2.5 2.3zM474 434.5c-.1 3 2.9 2.9 4.3 4.5-1-1.9-3.2-2.7-4.3-4.5z"/><path d="M485.8 450.4c-3.8-6.8-15.6-12-13.2-20.9 4 5.5 10.7 14.1 13.2 20.9zM366.2 551.2c1.9 2.1 3.4 4.6 5.3 7.3-.9-3.4-2.9-5.5-5.3-7.3z"/><path d="M374.6 565.5c-5-7.7-13-17.7-19.5-24.2 8.4 5.7 19.4 12.3 19.5 24.2zM488 481.1c2.2 3.3 4.9 5 7.2 7.2l-7.2-7.2z"/><path d="M496.3 487.3c-5.8 5.8-13.9-13.7-17.7-17.7 0-.1 17.7 17.7 17.7 17.7zM649.7 383.5c2.1-2.1 3.6-4.6 5.7-6.7-2.3 1.9-4.6 3.8-5.7 6.7z"/><path d="M656.5 377.9c-3.1 3.6-7.1 8.4-10.7 11.7 1.5-3.9 6-17.7 10.7-11.7zM491.6 593c-1.8-2.6-2.9-5-5.8-5.8 2.4 1.1 3.1 4 5.8 5.8z"/><path d="M497.2 598.4c-3.8-2.9-13.8-7.4-11-12.7 5.4 1.8 7.6 8.7 11 12.7zM671.8 362.4c-.8 1.2-2 1.8-3.4 2.3 1.7.5 4.3-.4 3.4-2.3z"/><path d="M673.8 364.6c-2.8 2.3-6.6 1.6-9.8-.2 7.5.4 8.5-11.7 9.8.2zM267.7 731.2l-2.9-2.9c-8.6-8.8-13-17.3-13.7-26.9-.4-5.2 1.5-10.1 5.2-13.5.4-.5.7-.8.9-1l.8-.8c-.2-.3-.5-.6-.6-.8-2.5-3.4-3.5-7.1-4-9.6-2.4-11.8.3-22.1 8.2-30.7 2.6-2.8 5.4-5.2 8.2-7.5.8-.6 1.6-1.3 2.3-1.9 1.6-1.3 3.3-2 4.8-2.6.9-.4 1.7-.7 2.4-1.1 5.8-3.6 12.1-5.2 18.8-4.9 2.2.1 4.2.7 6 1.4 0-.2 0-.5.1-.7.2-2.2.4-4.4 1.1-6.7 2.7-9.7 7.7-15.8 15.5-18.6 2.2-.8 4.7-.7 7.5.3l.7.2c1.9.7 3.9 1.4 5.9 2.7.8.5 3.3 2.2 3.7 5.1 1.2-.9 2.4-1.7 3.6-2.4 2.9-1.7 5.9-3.2 9-4.5-.4-.2-.7-.4-1-.6-1-.8-2.8-2.7-2.6-6.5.4-8.2 4.4-14.6 7.4-18.7 3.9-5.2 8.9-9.2 14.9-11.9 7.7-3.4 14.9-2.6 20.9 2.3.5.4 1.1.8 1.8 1.3.1.1.2.1.3.2.1-.5.3-1 .4-1.6.5-1.9 1.1-3.9 2.1-5.9 4-7.8 8.6-14 14.1-18.8.9-.8 1.8-1.6 2.8-2.4 5-4.4 10.1-8.9 16.3-12.1 7.5-3.8 14.4-3.4 20.7 1.2 2.6 1.9 4.8 4.5 6.8 8.2 3.1 5.6 4.1 10.8 3.3 16.2-1 7-4.8 11.8-8 15.2-.6.7-1.6 1.4-2.8 2 .8.8 1.5 1.7 2.1 2.8 1.6 2.6 3.3 5.4 4.7 8.5.5-1.2 1.4-2.3 3-3.1 3-1.4 6.1-.8 8.5 1.7.5.5 1 1 1.5 1.6 3.1 3.2 6.3 6.4 9 10.3 2.3-2.5 5.1-3.9 7.4-5.2 6.7-3.5 13.8-4.4 19.3-4.8 3.9-.3 7.3 1.1 10.1 2.2.1 0 .4.1.6.1l.7.1.6.3c4.4 2.6 8 5.4 10.9 8.4 5.8 6.1 9.5 15.8 4.8 23.8-.9 1.6-2.1 3-3.6 4.4l3.1 1.2-3 3.7c-1.4 1.7-3.9 2.6-6.6 2.3-1.5-.2-2.8-.6-3.8-1.4.3 3-.8 6-3.3 9.1-2.7 3.2-6 6.2-9.9 9-6.7 4.7-13.6 3.7-20.1 2-1.7-.5-3.2-1.2-4.6-1.9-1.2 4.3-4 7.8-8.3 10.5-1 .7-2.1 1.3-3.1 2-2.3 1.5-4.7 3.1-7.3 4.4-1.1.6-2.3 1-3.5 1.2-3.4.7-5.2-.8-6.2-2.2-.6-.9-.9-1.8-.9-2.8-3.7 4-8.1 6.2-11.5 7.7-5.8 2.5-12 2.8-17.8.9-3.9-1.3-7-3.8-9.8-6-.2 3.6-1.5 6.9-2.8 9.7-2.1 4.2-5.3 7-8.2 9.6-.7.6-1.4 1.2-2.1 1.9-4.6 4.3-10 8.5-16.4 12.8-1.7 1.2-3.5 1.6-4.9 1.9-.6.2-1.3.3-1.8.5-2.5.9-5.1-.3-6.3-3-.3-.6-.4-1.2-.5-1.9 0 0-.1 0-.1.1-3.3 1.6-7.7 3.6-12.6 4 .4.3.6.7.9 1 .7 1.1 1.4 2.9.5 5.7-.7 2.2-1.9 4.2-3.4 5.7-5.3 5.4-11.4 9.1-18.4 11.1-7.9 2.3-15.1.2-21.5-6.2-3.8-3.8-6.5-8.3-7.9-13-.6-2.1-.3-4.1.9-5.8-1.3.4-2.7.6-4.1.8l1.2 1.2c2.2 3 1 6.9-.1 9.6-.2.6-.6 1-.8 1.3 0 0 0 .1-.1.1-2.2 6.4-7.4 9-12.3 10.7-3.7 1.3-7.8 1.6-11.9.6-4-.9-7.5-2-10.6-3.3.1.2.2.3.3.5.5.7 1 1.3 1.4 2 .1.1.1.2.2.3 1.9 2.5 2.1 4.9.4 7.1l-2.9 3.5zm44.5-30.4c1.1 3.6 3.2 7 6.1 9.9 4.5 4.6 9.1 6 14.5 4.4 5.8-1.7 10.9-4.8 15.3-9.3.6-.6 1.1-1.3 1.4-2.1-1.4-.1-3.1-.2-4.9-1.1l-.2-.1c-.9-.5-3.8-1.8-3.5-5.2.1-1.3.8-4.2 5.3-4.7 1.2-.1 2.4-.3 3.7-.6 1.4-.2 2.9-.5 4.4-.6 3.8-.3 7.4-1.9 10.4-3.4 5-2.5 9.1-6.5 13.2-10.9l1.2-1.2c.6-.7 1.3-1.4 2.1-2.3l6.3-6.4-.3 9c-.1 2.8-1 4.7-1.9 6.2-1.3 2.2-2.8 4.3-4.6 6.2 4.7-3.3 8.8-6.6 12.4-9.9.7-.7 1.5-1.3 2.2-2 2.6-2.3 5.1-4.4 6.5-7.4 2.5-5.2 2.8-8.5.9-11.9-.1-.1-.1-.2-.2-.3l-5.4-.4v-2c-.1-1.2-.5-2.5-1.2-3.8-1.1-2.2-2.6-4.1-4.8-6.2l-.1-.1c-1.3-1.3-3.2-3-4.3-6.1l-2.6-7.4 7.3 3.1c5 2.1 8.3 4.5 10.9 8 .5.6 1 1.3 1.5 1.9.5.7 1.1 1.3 1.6 2 6.2-2.2 11.2-4.4 15.4-8.1 2.3-2.1 4.4-1.5 5.5-1l2.2 1.1-.3 2.5c-.3 2-1.1 4-2.6 5.8-.8 1-1.5 2-2.3 3.1-2.1 2.9-4.3 5.9-7.3 8.4l-.1.1c2.2 1.8 4.5 3.5 6.9 4.3 4.3 1.4 8.6 1.1 12.9-.7 6.4-2.8 10.2-6.1 12.4-10.8 1-2.1 1.9-4.1 3.2-6l1.9-2.8 2.9 1.8c1.6 1 2.1 2.3 2.3 2.8 1.5 3.8 1.6 7.3.5 10.5 1.7-1 3.4-2.1 5.2-3.2l3.3-2.1c3.3-2 5.1-4.7 5.5-8 .3-2.4 1.6-3.6 2.5-4.1 2.1-1.1 4.3-.1 4.9.2.6.3 1.1.6 1.7.9 1.3.7 2.5 1.3 3.7 1.6 5.8 1.6 10.1 1.9 14.2-.9 3.4-2.4 6.2-5 8.5-7.7 2-2.4 2-3.8 1.4-5.1-1.2-2.6.1-4.9.8-5.9l.1-.1c1.6-2.6 2-5.2 1.4-8.1-.1-.3-.1-.5-.2-.8-.4-1.5-.8-3.3-.5-5.4l.6-3.2 3.3.3c2.7.3 4.1 2.2 4.7 3.1l.1.1c1.2 1.7 2.1 3.5 2.6 5.4 1.4-1.8 1.4-4 1.1-7l-1.2-1.1 1.1-2.3c.1-.1.1-.3.2-.4-.8-1.2-1.6-2.3-2.6-3.3-2.3-2.4-5.2-4.7-8.8-6.9-.4-.1-.9-.2-1.5-.4-2.7-1.1-4.9-1.9-7-1.8-4.8.3-11 1.1-16.5 4-2.6 1.4-5 2.6-6.5 4.9-1.5 2.3-3.2 2.8-4.5 2.7-1.2 0-3-.6-4.4-3-2.4-4.2-5.8-7.5-9.3-11.1-.5-.5-1-1.1-1.6-1.6l-.1-.1V587.3c0 .6.1 1.3.2 2 .2 1.5.5 3.3.1 5.3-1.3 6.6-5.2 11-9 15.2l-8.8 10 2.5-12.7c.2-1.1.7-2 1-2.6.1-.2.2-.3.2-.5 2.5-5.4 3.2-9.9 2.2-14.1-.9-4.1-3.3-7.9-5.5-11.5-1.3-2.2-3.2-3.5-6.1-4.2-1-.3-2.1 0-3.9.5-.7.2-1.5.4-2.4.6l-1.7-6.8c4.4-1.2 8.7-2.4 13.3-2.6 1.1 0 1.9-.3 2.3-.8 3.8-4 5.6-7.4 6.2-11.5.6-3.9-.2-7.5-2.5-11.8-1.5-2.8-3-4.6-4.8-5.9-4.1-3-8.4-3.2-13.4-.6-5.4 2.7-10 6.8-14.8 11.1-.9.8-1.9 1.7-2.8 2.5-4.8 4.2-8.9 9.6-12.5 16.6-.7 1.3-1.1 2.9-1.5 4.6-.3 1.1-.6 2.3-1 3.4s-1.2 3.5-3.7 4.3c-2.4.7-4.5-.8-5.3-1.4-.4-.3-.9-.6-1.4-1-.7-.5-1.5-1-2.2-1.6-4-3.2-8.3-3.7-13.6-1.3-4.9 2.1-9 5.4-12.1 9.6-4 5.4-5.9 10-6.1 14.9v.2h.1c7.7-2.7 15.2-2.6 22.4.2.9.4 3.1 1.2 3.8 4l1.1 4.4h-4.5c-1 0-1.9 0-2.9-.1-1.8-.1-3.5-.1-5 .1-8.4 1.1-16.2 3.9-23.8 8.4-3 1.8-5.8 4.1-9 7.2-1.6 1.6-2.7 3.9-3.9 6.3l-2.6 5.3-3.5-3.6c-1.8-1.9-1.5-4.1-1.4-5v-.2c.4-4.6 2.3-8.8 5.6-12.3.1-.1.2-.2.2-.3-.1 0-.1-.1-.2-.1-1.3-.8-2.8-1.4-4.4-2l-.7-.3c-1.2-.4-2-.5-2.7-.3-5.6 2-9.1 6.4-11.2 13.9-.5 1.7-.7 3.6-.8 5.6l-.3 3c-.1.8-.4 3-2.3 4.2-1.9 1.1-3.9.4-4.7.1l-.9-.3c-1.8-.7-3.5-1.3-5.1-1.4-5.2-.3-10.1 1-14.7 3.9-1.2.7-2.3 1.2-3.4 1.6-1.2.5-2.2.9-2.9 1.5-.8.7-1.6 1.3-2.4 2-2.7 2.2-5.2 4.3-7.5 6.8-6.3 6.9-8.4 15-6.5 24.5.6 3 1.5 5.1 2.8 6.8 3.6 4.9 2.9 7-1 10.8l-.1.3-.7.6c-2.3 1.9-3.4 4.8-3.2 8 .1 1.1.2 2.2.5 3.3l1.8 1.4c.2.1.5.3.8.4.5.3 1.2.6 1.9 1.2 4.3 3.4 9.5 5.7 16.8 7.3 2.7.6 5.5.5 8-.4 4.1-1.5 6.9-3.1 8-6.5.3-.8.6-1.3.9-1.7l.1-.1c.6-1.4.7-2.2.8-2.6-.3 0-.7-.1-1.3 0-3 .2-5.6-.8-7.8-3-2.1-2.1-3.2-4.6-4.3-6.9-.3-.7-.7-1.5-1-2.2l-3.7-7.4 7.8 2.5c1.9.6 3 1.5 3.7 2.1.1.1.2.2.4.3 2.3 1.8 5.2 2.6 8.8 2.4 5.8-.3 11.1-3 17.8-9.1 3-2.7 5.5-6 8.5-9.9l5.9-7.7.7 9.1c.3 3.9-.2 7.1-.6 9.9-.7 4.6-3.3 8-7.4 9.6-3.6 1.4-6.8 3.6-10.2 6-.6.8-1.4 1.4-2.4 2 .1 0 0 0 0 0zm-14.2 2.5zm110.2-50.9c.3.4.5.8.6 1.1.1.2.2.3.3.5l.6 1.2c.5-1.1 1.2-2.1 2.1-2.9.8-.7 1.5-1.4 2.3-2.2-2 .9-4 1.6-5.9 2.3zM521.5 615zm-167.8-17.6zm38.2-25.4zm2.6-.8z"/><path d="M345.1 774.1c-3.1 0-6.2-.5-9.2-1.6-8.7-3.1-15-9.8-18.8-20-.5-1.3-1-2.7-1.4-4.2-.5.7-1 1.4-1.6 2.1-4.9 5.6-12.7 12.8-24.7 11.5l-.4.3h-1c-3.3-.1-5.6-2.1-7.3-3.5l-.2-.2c-6.5-5.6-9.4-11.7-9-18.9 0-.3-.1-.7 0-1.3.4-2.9-.4-4.8-2.9-6.4-1.3-.8-2.1-1.9-2.9-2.9-.3-.3-.5-.6-.8-.9l-.3-.3-.2-.4c-1.1-2-2.5-3.8-4-5.8l-.4-.6c-3.1-4-5.1-8.6-6.8-13h-.2c-.4-.8-1.1-2.4-.4-4.2.4-1.1 1.3-2 2.4-2.5.9-.4 4.2-1.4 6.4 3.1.1.2.3.4.9.8 1.4.8 2.7 1.6 4 2.5 2.6 1.7 5 3.2 7.6 4h.1c4.3 1.2 8.4 2.4 12.3 1.4 3.8-1 6.3-2.1 7.6-4.8.4-.8.8-1.4 1.1-2 .3-.6.6-1.1.9-1.6.1-.1.1-.2.1-.3-3.5.2-6.6-1.1-9.1-4.1-2.2-2.6-3.5-5.6-4.7-8.4l-.9-2.1c-1.1-2.4-.3-5.1 1.9-6.4 1.1-.6 3.9-1.7 6.5 1.8 2.7 3.6 6.2 4.9 11.3 4.2 9.2-1.3 15.6-7.6 21.2-14.3 1.2-1.4 2.5-3.1 3.3-5.2v-.1c1.4-3.7 4.5-3.2 5.1-3 1 .2 3.2 1.2 3.4 4.5.2 3.2 0 6.3-.2 9.3l-.1.8c-.5 6.8-4.3 11.5-11.3 13.7-2 .7-3.9 2.1-5.9 3.7-1 .8-2.1 1.6-3.2 2.4.1.1.1.3.2.4.6 1.5 1.1 2.7 1.9 3.4 1.2 1.1 2 2.4 2.6 3.4.5.8.8 1.4 1.3 1.8 4.4 3.9 8.4 4.9 13.3 3.5 6-1.8 10.7-4.8 14.3-9-2.3-.4-4.5-1.5-6.5-3.4l-.2-.1c-.7-.6-2.7-2.3-2-5.2.7-3.2 3.4-3.8 4.3-4 2.4-.6 4.8-.9 7.1-1.2 1.7-.2 3.3-.5 4.8-.8 5.9-1.2 10-2.8 13.4-5.5 5.1-4 9.2-8.1 12.6-12.4 0-.1.1-.1.1-.2 2.7-3.9 5.9-2.2 6.5-1.8 1.1.7 2.8 2.3 1.7 5.6 0 .1 0 .1-.1.2-.4 2.4-1.1 4.5-2 6.4 3-2.4 5.8-5 8.6-7.4 3.8-3.4 5.9-6.3 6.9-9.9.3-1 .4-1.9.5-2.8l-1.9 3.7-3.3-2.6c-.9-.7-2.2-2.2-1.6-4.8.8-4.5-.7-8.2-5-12.3-1.1-1-2-2.1-2.9-3.1-.9-1-1.7-2-2.6-2.8-1.8-1.6-2.2-4.2-.9-6.3.6-.9 2.4-3 6-1.7 5.7 2.1 10 5.1 13 9.3l.1.1c.8 1.1 1.6 2.3 2.1 2.7.7-.2 2-.7 3.2-1.1 4.9-1.9 10-4.3 13.6-8.9 2.2-2.8 4.9-1.6 5.4-1.4.6.3 2.5 1.6 2.3 4.5-.2 2.6-.9 6.4-3.3 9.5-.9 1.1-1.7 2.2-2.6 3.5-1.8 2.5-3.7 5.1-6.2 7.3 3.1 2.2 5.7 3.6 8.6 3.8 4.8.4 9.3-.9 13.9-4 4-2.7 6.8-6.4 8.6-11.2.1-.4.2-.9.2-1.6v-.1c-.4-3.4 1.8-4.6 2.8-4.9 1-.4 3.6-.9 5.6 2.3 2.2 3.5 3.6 8 3.3 12.2 2.9-1.7 5.7-3.4 8.1-5.5 1.5-1.3 2.4-2.7 2.7-4.4l-1.8-3.5 2 1.9c0-.5 0-1-.1-1.5-.6-3.5 1.8-4.6 2.3-4.8 1.7-.7 3.4-.1 4.4.7 2.6 1.9 5.2 3.2 7.9 4 7 2.1 11.2 1.4 15-2.4.9-.9 1.9-1.7 2.8-2.5 1.7-1.5 3.2-2.7 4.1-4.4.2-.4.6-1.1.7-1.5l-.1-.1c-1-.8-1.6-2-1.7-3.2-.2-2 1.1-3.5 1.5-3.9 2.9-3.4 3.2-7.3.8-13.3l-.1-.1c-.9-1.9-.9-3.5.1-5 .2-.3 2.5-3.4 6.2-1.1h.1c3.2 1.4 5.5 3.7 6.9 6.8.1-1.4-.1-3.1-.5-5.1 0-.1-.1-.2-.2-.4-.1-.3-.3-.7-.5-1.2-1-3.6 1.5-5.1 2-5.4.7-.4 3.1-1.3 5.3 1.3 2.7 3.1 3.9 7.6 3.3 12.5-.5 4.4-2.4 8.3-5.2 10.8 3.2 1.1 5.8 4.1 7.1 5.9 3.3 4.6 4.8 9.7 4 13.7l-.6 2.9h-1.6c-2.1 10.5-6.8 18.5-14.5 24.3-2.8 2.1-6.2 3-9.5 2.5-3-.5-4.4-2-5-3.1-1.5 1.3-3 2.4-4.5 3.5l-.7.5c-1.7 1.3-3.7 2.8-6.1 3.7-1.5.6-3 .7-4.3.3.2.3.3.5.5.8 4.1 6.8 2.8 14.3-3.3 19-3.3 2.5-6.7 4.9-10 7.2-1.7 1.2-3.4 2.3-5.1 3.5-4.5 3.2-9.4 5.2-15.1 6.1-4.3.7-8.5.8-12.3.1.3 1.4.1 3.3-1.4 5.4-1.6 2.3-3.9 4.2-7 5.9-6.8 3.7-13.9 5.1-21 4-1.7-.3-3.1-1-4.1-2.2-3.2 1.2-6.2 3-9.1 4.7-2.8 1.7-5.7 2.6-8.4 3.5-1.9.6-3.7 1.2-5.3 2l-.5.2-.5.1c-2.4.3-4.4.5-6.3.5-3.2 0-4.6-1.6-5.2-2.6-.3-.5-.7-1.3-.8-2.4-1.8 2-3.9 3.7-6.3 5 1.4 1.2 2.2 3.1 2.7 5 2.3 7.5.6 14.6-5.1 21-5.6 6.4-14.2 10.1-22.6 10.1zm-29.2-41.2 3.4 4c1.4 1.7 1.8 3.4 2 4.5.7 3.4 1.4 6.2 2.4 8.7 3.1 8.3 7.9 13.4 14.6 15.8 8.4 3 18.2.1 24.5-7 4.1-4.7 5.2-9.1 3.6-14.3-.2-.5-.3-.9-.4-1.2-.2.1-.5.2-.9.3-6.3 2.5-12.1 2.2-17.5-1l3.3-6.1c1.5.7 2.7.8 4.3.4 2.8-.7 5.4-2.2 8.2-3.7l3.3-1.8c3.4-1.7 6.1-4.6 8.2-8.8 1.2-2.4 1.8-5.1 2.5-8 .2-1 .5-1.9.7-2.9v-.2c.8-4.2 3.9-4.3 4.9-4.2 1.6.1 3.6 1 4.2 4.5v.1c.7 4.2 1.3 9-.9 13.9-.3.8-.7 1.5-1 2.3-.3.7-.5 1.4-.8 2 .9-.1 1.9-.2 3-.3 1.9-.8 3.8-1.5 5.6-2.1 2.5-.8 4.9-1.6 7-2.9 3.4-2 7.1-4.2 11.2-5.6 1.3-.5 2.4-1.8 3.7-3.4.5-.6 1.1-1.3 1.7-2l.1-.1.3-.3c.3-.4.8-1.1 1.2-1.8 1-1.6 1.3-2.4 1.4-2.9l6.9 1.2c-.3 1.7-1.1 3.5-2.2 5.2-.5.8-1.1 1.7-1.6 2.4-.4.5-.7 1-1.1 1.5-.6.8-1.2 1.7-1.8 2.5 4.9.3 9.8-.8 14.6-3.5 2.2-1.2 3.7-2.4 4.6-3.8-2.4-2.3-4.2-4.8-5.6-7.1l-8.6-13.7 13.5 8.9c5.4 3.6 11.7 4.7 19 3.5 4.6-.8 8.6-2.4 12.2-4.9 1.7-1.2 3.4-2.4 5.2-3.6 3.2-2.2 6.6-4.5 9.7-6.9 3.1-2.4 3.8-5.7 1.9-9.2-1.2 1-2.3 2.1-3.5 3.2-.6.6-1.3 1.2-1.9 1.8l-.3.3-1.2.9c-1.8 1.4-4 3.1-7.2 3.3l-11.8.8 9.5-7.1c.4-.3.9-.8 1.4-1.4 1-1.2 2.3-2.7 4.4-3.5 2.4-2.7 4-6.2 4.9-10.5.8-3.9.3-7.7-1.5-11.3l-3.3-6.4c-.6.7-1.3 1.4-2 2.1-3.3 3-7 5.1-10.6 7.2-1 .6-2 1.2-3.1 1.8-.9.6-1.8.8-2.5.9-.1 0-.3.1-.4.1-2.9.8-4.4-.6-5.1-1.5-.3-.5-1.9-3 .6-5.6 1-1.1 1.4-2.6 1.3-4.3-2.3 4.4-5.5 8-9.5 10.8-5.8 4-12 5.8-18.4 5.3-5.3-.4-9.4-3.1-12.8-5.6-2-1.5-3-3.2-3.1-5.1 0-1.2.4-3.1 2.5-4.8 2.1-1.7 3.8-4 5.6-6.4-2.3 1.2-4.6 2.2-6.8 3.1-2.5 1-4.4 1.6-5.9 1.6.5.4 1 .9 1.5 1.6 2.8 4 3.5 8.9 2 13.9-1.4 4.9-4.2 9-9 13.2-5.7 5-12.2 10.8-19.3 15.3l-.3.2c-.8.5-2.1 1.4-3.9 1.4-.1 0-.1.1-.2.1-.8.5-2.4 1.4-4.3.8-.7-.2-2-.9-2.7-2.6-.5-1.3-.5-2.4-.1-3.3-4.6 2.8-9.5 4-13.4 4.8-1.8.3-3.5.6-5.2.8-.5.1-1.1.2-1.6.2h.5c3.9-.6 5.3 1.6 5.8 3 1.1 2.8-.6 5.1-1.4 6.2l-.2.2c-4.6 6.4-10.8 10.7-19.1 13.2-7.2 2.2-13.8.6-20-4.9-1.3-1.1-2-2.4-2.7-3.5-.4-.7-.8-1.4-1.2-1.7-2.1-1.8-3-4.1-3.8-6.1-.2-.4-.3-.9-.5-1.3-1.2-2.6-.2-5.6 2.2-7 1.2-.7 2.4-1.6 3.6-2.6 2.3-1.8 4.8-3.8 8-4.8 4.4-1.4 6.2-3.6 6.5-7.6v-.6c-6.1 7.1-13.8 14.4-24.9 15.9-3.8.5-7.2.2-10.2-.9.1.2.2.3.4.5 1.3 1.5 2.3 1.7 3.4 1.6 3.2-.3 5.4.5 6.8 2.4 1.4 2 1.3 4.6-.2 7.9-.4.8-.8 1.5-1.2 2.1-.3.5-.6 1-.8 1.5-2.6 5.4-7.4 7.3-12.2 8.5-5.7 1.4-11.1-.1-15.9-1.5h-.1c-3.2-.9-5.9-2.5-8.4-4.1.5.9 1.1 1.7 1.7 2.5l.4.6c1.5 2 3.1 4 4.4 6.3.3.3.5.6.8.9.5.6 1 1.3 1.5 1.5 4.5 3 6.6 7.5 5.9 12.8v.9c-.3 5 1.7 9.1 6.6 13.3l.2.2c.8.7 1.7 1.4 2.4 1.7.7-.2 1.4-.2 2.1-.1 7 .9 12.9-1.9 19.1-9.1 1.5-1.7 2.6-3.9 3.7-6.3.3-.6.6-1.3.9-1.9l2.6-4.2zm-44.5 6.5zm6.9 0zm19.2-35zm189.4-30.3c.3 0 .6 0 .9.1.2 0 .5.1.7.2-.4-.8-.7-1.7-.8-2.7 0-.4-.1-.7-.2-1.1 0 .2-.1.3-.1.5-.2 1.1-.5 2.1-.8 3.1.2-.1.3-.1.3-.1zm6.3-4zM478 648l6.6 6c1.7 1.6 3.2 3.2 4.4 4.8l.5.6c2.1 2.8 4.3 5.8 5.1 10 1.1-.6 2.2-1.4 3.3-2.2l.8-.6c4.7-3.5 8.5-6.6 10.8-11.8l5.8-13.3.9 14.5c.2 3.2.2 6.2-1.4 9 1.2-.1 2.2-.7 2.8-1.2 7.3-5.5 11.4-13.7 12.5-24.9l1.5.1c-.3-1.9-1.3-4.2-2.8-6.3-1.6-2.2-3-3.2-3.7-3.4-1.3.1-2.4-.1-3.4-.3-.4-.1-.8-.2-1.1-.2-2.2-.2-3.9-1.6-4.2-3.6 0-.1 0-.3-.1-.4-.3.5-.6 1-1 1.5 2.3 3.4.3 7-.6 8.6-1.5 2.8-3.8 4.7-5.7 6.3l-2.4 2.1c-7.3 7.4-15.6 6.1-22 4.2-2-.6-3.9-1.4-5.8-2.4-.2 1.1-.4 2-.8 2.9zm34.9 16.9zm-95.9-6.2zm.1-1.8zm118-17.7 1.7.1c-.4-.6-1.1-1.1-1.7-1.1v1zm-14-17.3zm-2.8-3c-.1.7-.2 1.4-.4 2.1.2-.1.3-.3.5-.4l.9-.7c-.4-.2-.7-.6-1-1zm-2.4-15.4z"/><path d="m247.9 702.2 8.1-13.7c.5-.8 1-1.6 1.2-2.1-.3-.5-1-1.4-1.6-2.2-3.8-5-6.9-10.6-9.2-16.6-3.6-9.7-3.5-18.5.4-26.3 1.5-3.1 3.8-5.4 5.9-7.6.4-.4.8-.8 1.1-1.2 3.3-3.6 7.3-5.6 11.1-7.6.6-.3 1.1-.6 1.7-.9.9-.5 1.9-1 2.8-1.5 3.4-1.9 6.9-3.8 11.1-4.8 1.3-.3 2.8-.6 4.4-.8-3.1-8-2.4-16.5 2-25.8 2.6-5.5 6.2-10.8 11.1-16.2 2-2.3 4.4-4 6.6-5.8.4-.3.9-.7 1.3-1 7.7-5.9 14.7-9 22.1-9.5 8.8-.7 15.2 1.7 19.8 7.3.6.7 1.2 1.4 1.9 2.2.8.9 1.6 1.7 2.4 2.7 2.4-4 5.3-7.6 7.9-10.8 3.5-4.4 7.5-7.7 11.8-10 3.8-2 8.3-2.3 12.5-.9 3.2 1 5.8 2.9 7.7 5.5.4-.7.9-1.4 1.3-2.1 2.2-3.6 4.5-7.3 7.3-10.7 3.6-4.4 7.9-9.6 13-14 6.2-5.3 13.2-7.9 19.2-9.7 4.2-1.3 8.4-1.3 12.1-1.3 3.9 0 7.7.5 11.4.9l1.1.1c10.9 1.3 17.9 7.1 21 17.2 2.2 7.2.7 13.6-4.3 18.5-.6.6-1.1 1.2-1.7 1.8 2.4 0 4.3 1.3 5.1 1.9 2.9 2 5.6 4.6 7.9 7.7 3.1 4 3.7 10.3 1.7 15.5 1.2-.1 2.3-.2 3.4-.2 8.6-.2 16.9 1.9 24.9 6.3l9.5 5.2-10.8 1.4c-2.2.3-4-.2-5.6-.6-1.1-.3-2.1-.5-2.9-.5-10.1.5-16.8 2.6-22.5 7.1-.4.3-.8 1-1.3 1.8-.3.6-.7 1.2-1.2 1.8-1.7 2.2-3.4 2.5-4.6 2.4-1.2-.1-2.8-.8-4-3.2-2-4.3-5.3-7.7-8.7-11.3l-.4-.4c.2 1.2.4 2.8 0 4.5-1.8 7.4-6 13.6-12.9 19-2.1 1.7-4.2 1.1-5.3 0-1.8-1.6-1.9-4.3-.4-6.3.8-1.1 1.5-2.4 2-3.6 3.4-7.2 3.5-13 .3-18.5-.4-.8-.9-1.6-1.3-2.4-.8-1.6-1.6-3.1-2.6-4.5-1.8-2.5-4.7-3.5-7.5-2.7-.6.2-1.2.3-1.8.5-1.1.3-2 .5-2.8.9-2.3 1.2-4.9.5-6.1-1.6-.3-.5-1.7-3.2 1.1-5.6 2-2 4.5-2.7 6.2-3.2h.2c3.7-1 7.5-2 11.5-2 .9 0 1.5-.5 3-2.4.2-.2.4-.5.6-.7 4.8-5.6 3.9-11.8 2.9-15-1.6-5.5-5.8-10.1-10-11.4-2.8-.8-5.4.2-8.7 1.6-4.2 1.8-7.7 4.9-11.5 8.2l-2.3 2c-3.5 3.1-6.8 5.9-9.5 9.5-4.6 6.2-7.5 12.3-8.7 18.6-.4 1.8-.8 4.2-3.1 5.1-2.3.9-4.2-.4-5.5-1.3-.9-.7-1.9-1.4-2.8-2-1.2-.9-2.3-1.8-3.5-2.5-2.5-1.6-4.8-2.2-7.3-1.7-7.8 1.3-13.9 6.1-19.1 15.2-1.6 2.8-2.5 5.3-2.7 7.8 5.5-1.8 11.4-2 17.7-.6 3.4.8 6.3 2.2 8.7 4.3l.1.1c2.6 2.3 2.4 4.5 1.8 5.9-.3.6-1.7 3.4-5.5 2.1-3.9-.5-8.1-.3-13.2.5-7.4 1.2-14.7 4.4-22.9 10-5 3.4-7.8 7.3-8.7 12v.1c-.5 3.6-3 4.2-4 4.2-.9.1-3.9 0-4.8-4v-.2c-1.6-6.4-.1-12.3 4.6-18.1-1.3-.7-2.9-1.3-4.4-1.7-.6-.2-2.5-.7-5.6 2.3-4.2 4.1-6.4 9.1-6.7 15 0 .9-.2 1.7-.3 2.5-.2 1.5-.3 2.5 0 3.2.9 2 .2 4.4-1.6 5.6-1.8 1.2-4.1 1-5.7-.5-4.1-3.9-8.8-4.4-16.1-1.7-6.7 2.4-11.9 5.5-16.4 9.6-3.6 3.3-7.4 7-9.6 11.7-2.2 4.7-2.6 9.9-1.2 16.4.9 4.1 2 6.9 3.6 9.1 1.2 1.7 1.2 3.2 1 4.1-.2.9-.7 2.3-2.4 3.4-.6.4-1.3.9-1.9 1.3l-.9.7-13 9.2zm39.3-78.4c-1.6 0-3.3.4-5.1.8-3.2.7-6.1 2.3-9.2 4-1 .5-2 1.1-2.9 1.6l-1.8.9c-3.4 1.8-6.7 3.4-9.2 6.1-.4.4-.8.8-1.2 1.3-1.9 2-3.6 3.8-4.7 5.9-3 6-3.1 12.8-.1 20.7.3.7.5 1.4.8 2.1 0-4.3.9-8.3 2.6-12 2.7-5.9 7-10.1 11.2-13.9 5.1-4.7 11.3-8.3 18.8-11 5-1.8 12-3.5 18.7-.1 0-.3.1-.7.1-1 .1-.6.2-1.2.2-1.8.3-7.7 3.3-14.4 8.8-19.7 4.9-4.8 9.4-4.9 12.3-4.1 2.7.7 5.2 1.9 7 2.9.8.4 3.1 1.6 3.6 4 .2 1 0 1.9-.3 2.7.4-.3.9-.7 1.4-1 8.9-6.1 17.2-9.7 25.5-11.1-2.4.1-4.8.6-7 1.5-.9.3-3.5 1.3-5.8-.2-2.3-1.6-2.3-4.6-2.3-5.5 0-4.1 1.2-8.2 3.7-12.5 6.3-10.9 14.2-17 24.1-18.6 4.2-.7 8.4.2 12.3 2.8 1.4.9 2.6 1.9 3.9 2.8.2.2.5.4.7.6 1.6-6.6 4.8-13 9.6-19.5 3.1-4.2 6.9-7.5 10.5-10.6l2.2-2c4-3.5 8.2-7.2 13.3-9.4 3.4-1.5 8-3.5 13.4-1.9 6.6 1.9 12.4 8.2 14.8 16.1 2.3 7.8.8 15.7-4.3 21.6-.2.2-.4.4-.6.7-1.4 1.7-3.3 4-6.4 4.7 1 .8 1.9 1.7 2.7 2.8 1.3 1.8 2.3 3.6 3.2 5.4.4.7.8 1.5 1.2 2.2 2.1 3.8 3.2 7.7 3.2 11.9.1-.3.1-.5.2-.8.1-.5 0-1.1-.2-2.1-.2-1.1-.5-2.4-.4-3.9v-.4c0-.9-.1-3.8 2.7-5.3 2.5-1.3 5.3-.8 7.4 1.5.9 1 1.8 1.9 2.7 2.9 3 3.1 6 6.2 8.4 10.1.5-.8 1.2-1.6 2.1-2.2 3.9-3.1 8.1-5 12.2-6.3h-.3c-2.2 0-4.5.2-6.5 1-3.5 1.5-5.4-.6-5.9-1.2-.6-.8-1.8-2.9.2-5.6l.1-.1c.2-.4.5-.7.7-1l.2-.2c2.2-3 2.4-8.4.4-10.9s-4.1-4.6-6.5-6.3c-.8-.6-1.1-.6-1.1-.6s-.1 0-.3.1c-1.4.7-2.9.9-4.1 1-.3 0-.6.1-.9.1h-.1c-3.6.6-4.9-1.6-5.3-2.6-.7-1.8-.3-3.6 1.2-5.3.6-.7 1.1-1.4 1.7-2 1.4-1.7 2.9-3.5 4.6-5.2 3.1-3 3.9-6.8 2.5-11.5-2.2-7.4-7-11.3-15.1-12.3l-1.1-.1c-3.6-.4-7-.9-10.4-.9h-.1c-3.4 0-7 0-10.1 1-5.6 1.7-11.5 3.9-16.7 8.3-4.7 4-8.6 8.7-12.2 13.1-2.5 3-4.6 6.4-6.7 10-.8 1.4-1.7 2.7-2.6 4.1-1.4 2.2-3.1 3.3-5.1 3.2-1.9-.1-3.5-1.3-4.6-3.6-.9-1.9-2.7-3.3-4.9-4.1-2.4-.8-5-.6-7.1.5-3.5 1.8-6.7 4.5-9.6 8.1-3.1 3.8-6.3 7.8-8.7 12.3-1.5 2.7-3.4 3.2-4.5 3.2-1 0-2.9-.4-4.2-2.8-.9-1.5-2.1-2.9-3.4-4.3-.7-.8-1.5-1.6-2.2-2.5-3.1-3.8-7.4-5.3-13.8-4.8-6 .5-11.8 3-18.3 8.1-.4.3-.9.7-1.3 1-2.1 1.6-4.1 3.1-5.7 4.9-4.5 5-7.6 9.6-9.9 14.5-3.9 8.4-4.2 15.4-1 22.1 1 2.1 1.1 4 .1 5.5s-2.6 2.2-4.9 2.1h-.5zM450 611.6zM344.8 777.8c-1.1 0-2.3 0-3.5-.1-1.2 0-2.3-.2-3.2-.4-.4-.1-.7-.1-1.1-.2-4.7-.5-9.2-2.6-13.4-6.1-3.9-3.3-6.7-7.8-8.3-13.4-7.1 5.4-15.5 7.3-24.7 5.6l-.5-.1-4.2-1.4-.7-.9c-2-2.6-1-4.6-.6-5.2.3-.6 1.7-2.3 4.7-1.7 6.8 1.4 12.1-2.5 16.9-6.8 3.6-3.2 5.4-6.7 5.7-10.5.2-3.5 2.8-4.4 4.2-4.3 2 .1 3.6 1.3 4.5 3.4 1.2 2.9 1.9 5.9 2.4 8.2 1.9 9.1 6 15.5 12.5 19.6 7.5 4.7 19.8 2.4 26.3-5 2.5-2.9 3.8-5.3 4.2-8.1.3-1.7-.1-3.4-.7-5.2-6 2.5-11.8 2.3-17.4-.7-.3-.1-.5-.3-.7-.4l-.4-.3c-1.5-1-5.9-3.9-3.5-8 .7-1.2 1.8-2 3.1-2.3 2.2-.4 3.9.9 5.1 1.8.2.1.5.4.6.4.8.5 1.6.6 3.5.1 4.3-1.2 8.6-3.5 13.2-6.8 4.8-3.4 6.7-8.9 8.2-16.5.3-1.5.7-2.9 1-4.1v-.1c.8-3 2.7-3.8 4.2-3.9 1.5-.1 3.4.4 4.7 3.2 2.7 6 3.1 11.8 1.3 17.3l-.2.7c-.4 1.2-.8 2.3-1.2 3.5h.5c6.6-1 12.7-4 18.4-7 4.2-2.3 8.3-4.6 11.1-8.3.8-1.3 1.9-1.9 2.7-2.1 1.1-.3 2.2-.2 3.2.4 1.7 1 2.7 3.3 1.4 5.8l-.2.3-1.2 1.8c-.2.4-.5.7-.7 1.1 6.2-.1 11.3-2.1 15.6-5.9-2.8-2.6-5-6.1-6.6-10.7l-1.2-3.4 3.4-1.1c1.9-.6 3.7-.1 5.3 1.4 3.7 3.6 8.3 4.4 14.1 4.6 3.9.1 8-.7 12.2-2.6 3.3-1.4 6.4-3.7 9.6-6.2l.1-.1c1.3-1 2.6-1.9 3.9-2.7 2.5-1.7 4.9-3.2 6.7-5.3 1.1-1.2 1.5-3.3 1.2-5l-4.9 4.5-.6.4c-2.2 1.6-4.7 3.3-8 3.8h-.1c-3.5.7-4.8-1.8-5.1-2.5-.3-.7-1.1-3.3 1.8-5.3l.9-.7c1.6-1.3 3.1-2.5 4.2-4l.1-.1c3.3-4.1 5.1-8.3 5.4-12.9.2-3.4-.5-6.3-2.2-8.9l-.1-.2c-.2-.3-.5-.8-.8-1.3v-.1c-1.9-3.2.3-5.3.8-5.7.6-.5 2.9-2 5.9.4 2.5 2 4.9 4.5 7.1 7.3 2 2.6 3.6 5.3 4.7 8l.1.3c.1.2.1.3.2.5 4-2.5 7.4-5.4 10.2-8.5 1.9-2.1 2.8-4.1 3-6.4l.8-9.7 5.6 8c2.5 3.5 3.1 8.1 2 12 .1-.1.3-.2.4-.3 6.1-4.9 9.8-11.7 11.3-20.8.1-.5.2-1.1.3-1.6.3-1.7.6-3.2.6-4.8l.4-9.8 5.9 7.8c1.3 1.7 1.7 3.6 1.9 5.1.1.7.3 1.3.4 1.8l.2.5.1.6c1 11.7-2 21.6-9 29.4-5.6 6.2-12.1 8.3-19.8 6.2.6 6.5-1.3 12.8-5.6 19.1-4.3 6.2-10 11.8-17.5 17.1-7.6 5.3-15.6 9.2-23.8 11.4-1.9.5-4.5 1-7.4.3-2.7-.4-5-1.6-7-2.7l-.2-.1c-.1 0-.1.1-.2.2l-.5.4c-3.7 2.9-7.6 5.8-12.1 8-5.4 2.6-11.3 4.9-18.1 3.6-2.1-.4-4.1-1.1-6.3-2.3-1.4 3.4-2.7 6.4-4.2 9.1-5.5 10.4-12.7 18.8-21.4 25-11.6 7.8-24.6 11.6-40.9 11.6zm23.3-40.1c.1 0 .3.1.4.2.9.4 2.2 1.3 2.9 3.4 1 2.9 2.1 6.2 1.5 10.1-.6 4.1-2.4 7.7-5.8 11.6-2.5 2.8-5.6 5.1-8.9 6.8 8.8-1.5 16.3-4.6 23.1-9.4 7.9-5.6 14.2-13 19.3-22.6 1.1-2.1 2.2-4.5 3.3-7.1-4.8 2.3-10 4.4-15.7 5.2h-.2c-.5.1-1 .1-1.5.1-1.1.1-2.2.2-3.2.3-3 .4-4.4-1-4.9-1.9-.5-.7-1.3-2.7.5-5.3 1.1-1.6 1.8-3.7 2.5-5.8l.2-.7.3-1.2c-1.6 4.9-4.2 9.7-9 13.2-1.7 1.2-3.3 2.2-4.8 3.1zm-51.8 8c-1.1 2-2.6 4-4.5 5.8.1-.1.3-.2.4-.3 1.6-1.4 3.1-2.6 4.8-2.5-.3-1-.5-2-.7-3zM448 714.9c1 0 2.1.3 3.4.9l.3.1c1.7.9 3.3 1.8 4.8 2l.5.1c1 .3 2.2.2 3.9-.2 7.5-2 14.6-5.4 21.6-10.4 6.8-4.8 11.9-9.8 15.8-15.3 3.9-5.7 5.2-11.1 4.1-16.8 0 0 0-.1-.1-.2-.7-1.6-.6-2.8-.3-3.8-1.5 1.1-3.1 2.1-4.7 3.1-1.6.9-3.5 2.1-5.6 1-2.1-1-2.4-3.2-2.7-5.3 0-.1-.1-.4-.2-.6l-.2-.4c-.5-1.2-1.1-2.4-1.8-3.5v1.8c-.2 2.9-.8 5.7-1.8 8.4.6-.3 1.4-.5 2.3-.4.9.1 2.3.5 3.5 2 3.6 4.6 3.3 11.8-.5 16.1-2.5 2.8-5.3 4.7-8.1 6.5-1.3.8-2.5 1.6-3.6 2.5l-.1.1c-3.4 2.6-6.9 5.2-11 7-5.2 2.2-10.3 3.3-15.2 3.2-2.6-.1-5.3-.3-8-.9.5.8 1 1.8 1 3 0 .3 0 .7-.1 1 .7-.6 1.7-1 2.8-1zm-9.6.9zm76.2-45c3.6.2 6.6-1.3 9.6-4.7.6-.7 1.2-1.5 1.8-2.2-1.3 1.5-2.8 2.9-4.4 4.1-2 1.7-4.4 2.6-7 2.8zm-8.5-2.3c.8 0 1.8.2 2.8.8l.1.1c-.5-.5-.8-1.1-1-1.6-.1-.4-.2-.7-.3-1.1-.6.6-1.3 1.2-2 1.8h.4zm-29.5-12z"/><path d="m391.6 759.5 8.8-21.4c.5-1.1.9-2.2 1.4-3.3 1.1-2.6 2.2-5.4 3.3-8 .8-1.9 2.1-2.7 3.1-3 2.1-.7 3.9.4 4.9.9l.2.1c3.8 2.2 7.4 2.9 11 2.1 5.4-1.1 10.3-4.2 14.8-7.2 1.3-.9 2.5-1.9 3.9-2.9l1.1-.8c2-1.6 4.3-1.9 6.5-.8 1.7.8 3.3 1.5 5 2.3l12.9 5.9-11.8 1.7c-3.3.5-6-1.1-7.9-2.2-.3-.2-.4-.2-.5-.2 0 0-.2.1-.6.4-4.4 3.5-9.7 7.4-16 9.8-5.1 2-12.7 4.1-20.6-.2-.1.3-.3.7-.4 1-1 2.6-2.2 5.6-4.3 8.1l-14.8 17.7zM337.4 777.2c-7.7 0-13-4.6-16.4-8.1-3.1-3.2-4.8-7.2-5.9-10.8-6.8 4.9-14.4 6.8-22.6 5.6-.8-.1-1.5-.4-2-.6-.1-.1-.3-.1-.4-.1l-11.7-4 12-2.8c1.8-.4 3.3-.2 4.6 0 .7.1 1.3.2 1.8.2 6.5-.4 11.7-2.5 16.1-6.4.8-.7 2.9-2.7 5.5-1.8 2.6.9 3.2 3.7 3.4 4.8 1.8 9 6.8 14.4 15.3 16.6.7.2 1.2.5 1.6.7.1 0 .2.1.3.1l14.4 6.6-15.8.1c-.1-.1-.2-.1-.2-.1z"/><path d="M387.7 735.9h-.2l-11.7-.1 9.9-6.3c1.7-1.1 3.5-1.5 5-1.8.6-.1 1.2-.2 1.6-.4 6.6-2 13.2-5.4 20.9-10.5.3-.2.8-.7 1.2-1.2.9-1 1.9-2.3 3.6-3.1l7.5-3.5-2.7 7.8c-1 2.9-3.2 4.7-5.2 6-1.5 1-3.1 2.1-4.5 3.1l-3 2.1c-1.5 1.1-3.2 1.7-4.6 2.2-.7.2-1.3.5-1.9.7l-2.1.9c-4.1 2.1-8.5 4.1-13.8 4.1z"/><path d="m419.2 724-1-3.9-6 2.8 4.2-8.7c.3-.7.7-1.4 1.1-2.1 1.2-2.2 2-3.7 1.8-5.3-.2-1.5.3-2.8 1.2-3.7.9-.9 2.1-1.3 3.4-1.1 1.6.2 3.5 1.4 3.8 4.3.4 3.8-1 7-2.2 9.5-.4.9-1 1.6-1.5 2.1-.1.2-.3.3-.4.5l-4.4 5.6zM470.9 693.1c-1.4 0-2.3-.4-3-1l-6.3-.1 4.5-3.9c.1-1.2.7-2.8 3-3.9l.1-.1c.7-.4 1.4-1.1 2.2-1.9 1.1-1.1 2.4-2.4 4.1-3.2l6.1-3-.8 5 11.5-5-10.5 11.8c-2.4 2.7-5.5 4.4-9.5 5.2-.5 0-1 .1-1.4.1z"/></svg>