<svg xmlns="http://www.w3.org/2000/svg" xml:space="preserve" baseProfile="tiny" overflow="visible" version="1.2" viewBox="0 0 1000 1000"><path d="M673.2 638.2c-1.6-1.4-3.5-1.7-5.2-2.3 1.3-.8 1.5-1.8.8-3.2-1.1-2.1-1.7-4.3-1-7.1-3.8 1.5-4.9 3.8-4.7 7-.6-.4-.6-3.3-1.8-.4-.3.6-.1 1.5-.1 2.2-4-3.4-4.1 1.7-6 2.7-1.8.9-2.2 2.3-.4 4.2 6.8 6.9 13.1 14.1 19.3 21.5 12.6 15.1 28 27.8 41.5 42.2 7.6 8.1 16 15.6 24 23.3-.4.3-.7.7-1.1 1-3.3-3.1-6.6-6.2-9.7-9.4-16-16.1-31.9-32.2-47.9-48.2-3.3-3.3-6.2-8.9-10.4-8.8-4.1.1-6.8 5.9-10.5 8.8-3.2 2.5-3 4.3-.1 7.1 20.3 19.3 40.5 38.8 60.6 58.3 7.3 7.1 7.2 7.2 14.5.5 1.7-1.5 3.8-2.8 4.9-4.6 2.1-3.5 3.7-2.5 5.9-.2 8.8 9.1 17.5 18.2 26.4 27.2 3.4 3.4 7.2 6.4 9.9 10.6 1.3 2 1.3 3.3-.6 4.9-3.3 2.9-6.5 5.8-9.7 8.8-1.6 1.6-3.1 1.5-4.8.3 6.9-1 9.5-7.2 14.2-11 1-.9.2-2-.8-2.8-1.2-.9-2.3-.9-3.4.2-2.4 2.4-4.8 4.7-8 6.4 2.3-2.2 4.6-4.5 6.9-6.7 1.6-1.5 2.2-2.5 0-4.5-6.9-6.5-13.9-13.1-20-20.3-3.4-4-6.9-7.9-10.6-11.7-1.7-1.8-2.9-2-4.7-.1-3.5 3.6-7.2 7-10.9 10.4-1.6 1.4-1.7 2.6-.1 3.9l.3.3c9.1 8.4 5.9 9 15 .6 1-.9 1.9-1.8 3.1-2.4l-7.9 7.6c-1.2 1.1-1.4 1.3.4 2.8 7 5.9 13.3 12.5 19.7 19 1.5 1.5 2.9 3 4.6 4.2 1.2.9 3.2 1.9 2 4.1-11.6-9.4-20.9-21-32.8-30.1-4.3-3.3-6.4-8.8-10.1-12.2-24.7-22.6-46.6-48-73.2-68.7-5.2-4.1-9.8-9-14.5-13.6-1.8-1.8-3.2-2.4-5.3-.4-7.6 7.3-15.3 14.5-22.9 21.8-2.3 2.2-3 4.2.5 6.2 2.2 1.3 2.9 3.7 3.6 6.1.8 2.6-.7 5.3 1.2 8.1 1.1 1.5-1 3.8-3.5 2.6-1.6-.7-3-1.1-4.7-1-4.3.3-8-1.7-9.9-5.1-2-3.6-3-1.8-4.8-.2-4.4 3.7-7.7 8.7-13.2 11.3-2.7 1.3-.8 2.7.3 4.1 1 1.2 3.3 1.8 2.3 4.2-2.2 5.6-4.7 10.9-9.9 14.7-1.8 1.3-4.6 2.3-5.3 3.8-3.7 7.3-12 10.1-16.3 16.7-.9 1.3-2.2 2.3-3.4 3.4-2.2 1.9-4.6 1.6-7.2.9-3.3-.9-3.8-4.8-5.9-5.7-5.5-2.3-6.4-8.8-12.1-10.8-2.1-.7-4.2-2.9-4.3-6 0-.9-1.3-1.8-2.6-2.4-7-3.6-11.6-9.7-16.7-15.3-.4-.4-.2-1.4-.6-1.8-.8-.6-.7-2.2-2.4-1.8-2.3.6-3.5-1.1-4.4-2.5-2.4-3.9-5.1-7.4-9.7-9.3-1.6-.7-2.5-2.4-2.8-4.3-.2-1.4-.8-3.2-2.9-3.3-3.9-.2-5.6-2.9-6.8-5.8-.7-1.8-1.3-3.2-3.7-3.7-3.2-.6-5.4-2.9-6.2-6-.5-1.8-1.1-3.4-3.1-3.7-4-.5-5.7-3-6.9-6.2-.5-1.3-1.6-3.4-2.5-3.5-4.4-.3-5.8-3.2-7.4-6.4-.7-1.3-.8-3.3-3.4-3.1-1.8.1-3.5-1.6-4.2-3-2-4.2-5.8-6.4-9.2-9.3-3.5-2.9-5.6-7-9.9-9.7-3.7-2.3-5.4-7.1-9.9-9.6-3.8-2.1-5.1-7.1-9.7-9.7-3.8-2.1-6.3-6.6-10-9.7-3.7-3-6.3-7.4-10.7-10-2.3-1.4-1.6-5.2-3.9-5.8-7.6-1.9-8.1-11.2-15.5-13.3-1.5-.4-2.6-2.2-2.9-4.2-.1-1.3-1-2.8-2.5-3-4.2-.5-6-3.1-7.3-6.5-.5-1.3-1.1-2.7-2.7-3-4-.7-5.9-3.4-7.1-6.8-.5-1.4-1.2-2.9-3.2-3.1-3.8-.4-5.4-3.1-6.6-6-.7-1.6-1.2-3.6-3.2-3.5-2.9.1-4.4-2-5.3-3.6-1.8-3.3-4.1-5.4-7.3-7.8-4.5-3.2-7.9-8.2-12.6-11.6-.7-.5-.7-1.8-1.4-2.4-4.7-4-9.7-7.6-12.9-13-.1-.1-.3 0-.5-.1-6.3-4.1-10.3-10.5-16.1-15.1-.1-.1-.1-.3-.1-.5-.5-1.9-1.8-2.9-3.6-3.5-3.3-1.1-5.5-3.2-6.6-6.5-.5-1.6-1.9-2.3-3.3-3.2-6.2-4.1-10.6-10.1-16.2-14.8-1-.9-.9-3.2-2.6-3.8-7.6-2.7-9.6-11.1-16.4-14.5-.5-.2-.8-1-1-1.6-.7-2.2-2.6-2.8-4.2-4.1-5.7-4.3-10-10.1-15.7-14.5-.4-.3-.3-1.2-.5-1.8-.5-1.2-1.4-2.2-2.7-2.6-3.5-1.1-4.9-4-7.1-6.5-3.9-4.4-10-6.7-11.9-12.8 0-.1-.3-.1-.5-.1-4.5-.2-5.6-3.5-7.6-6.7-1.8-2.9-1.2-6.6-4.2-8.8-.9-.6-1.6-1.9-2.9-.7-1.1 1.1-.4 2 .5 2.9 1.1 1 2.1 2.1 3.2 3.1-2.9-1-5.3-2.7-6.1-5.5-.4-1.3-1.4-3-2-3-3.7-.1-4.6-2.7-6.1-5.1-.9-1.3-1.9-2.5-2.3-4.1-3.5 1.9-1.7-.5-1.7-1.9-.1-2.9 1.6-4.6 3.5-6.4 7.8-7.4 15.6-14.8 23.3-22.3 3.8-3.7 7.1-7.8 13.4-7.6 3.2.1 2.8-2.1.8-3.6-2.8-2.1-2.5-4.2-.3-6.4 7.5-7.6 14.5-15.7 22.6-22.6 5.5-4.7 11-9.5 16.2-14.6 15.7-15.4 31.9-30.5 47.5-46 6.5-6.4 14-12 20.6-18.5 2-1.9 4.4-2.9 6.7 0 .5.7 1.2 1.6 3 .8-1.3-6.9 4.4-10.3 8.6-14.6 1.4-1.4 3.8-1.8 4.7-3.2 4.9-7.1 12.2-12 17.7-18.5 2.7-3.2 6.4-2.8 9.8-3.4 2.7-.5 1.7 2.5 2.6 3.8.3.4.8.5 1.2.8 5.2 3 8.1 8.6 13.5 11.5.4.2.8 1.1.7 1.7-.2 2.8 1.6 3.7 4 3.9 1.5.1 2.6 1 3.2 2 2.5 4.6 6.1 8.1 10.6 11 1 .6 2.2 1.6 1.6 3.1-.6 1.7 1 1.9 1.9 2.2 7.4 2.9 10.2 10.8 16.9 14.4.7.4 1.2 1.5 1.5 2.4.6 1.6 1.8 2.6 3.2 3.4 6.4 3.7 9.8 10.6 16 14.6.5.3.6 1.4.8 2.2.5 1.3 1.3 2 2.6 2.6 7.1 3.3 10.5 10.5 16.7 14.7.3.2.4.9.5 1.3.1 1.9 1.3 3 3.1 3.3 2.9.5 4.7 2.7 5.9 4.8 3.3 5.8 9.2 9.4 13.8 13.7 4.9 4.5 8.2 11 14.8 13.8 2.5 1.1 1.6 5 3.9 5.8 7.4 2.5 9.5 10.4 15.8 13.9 2.3 1.3 2.1 4.7 4.7 5.9 7 3.2 9.5 11.1 16.3 14.6.4.2.8.8.7 1.2-.5 2.5 1.5 3.1 3.2 3.9 3.5 1.6 5.3 4.3 7.2 7.7 1.6 2.7 6.6 3.5 9 6.8.2.3.5.6.4.8-1 2.7 1.7 3.2 3 3.9 6.9 3.6 9.8 11.2 16.4 14.9.3.2.4.9.3 1.3-.4 2.2 1.8 2.8 2.9 3.3 3.8 1.6 5.8 3.7 7.2 7.9 1 2.8 6.9 3 9.1 6.4.3.4.6.9.5 1.3-.8 2.7 1.5 3.4 3.1 3.9 3.6 1.1 4.9 4 7.1 6.4 3.9 4.3 9.7 7.1 12.1 12.9.1.2.9.1 1.4.2 1.3.1 2 1 2.8 1.8 2.9 3.4 5.5 6.8 9.4 9.6 4.3 3.1 7.2 8.2 11.8 11.4.8.5 1.8 1.6 1.7 2.2-.6 2.3 1.4 3 2.5 3.5 7.1 3.1 9.6 10.9 16.4 14.4.4.2.8.7.8 1.1.1 2.8 2.6 3.1 4.2 4.4 5.6 4.4 9.8 10.2 15.5 14.6.1.1.2.3.2.4 0 2.7 2.4 3 4 4.4 5.5 4.5 10.4 9.7 15.5 14.7.1.1 0 .4.1.5 4.3 4.5 8.2 9.6 13.2 13.3 2.6 2 5 3.9 6.6 6.6.5.8.7 1.9 1.6 2.3 7.2 3.1 10.6 10.1 16.2 14.9 5 4.3 9.7 9.1 14.7 13.6 3.6 3.3 3.6 7.7.4 11.2-4.4 4.8-10.3 8-14 13.4-1.5 2.3-5.2 3.3-6.6 5.1-4.6 5.9-9 10.8-16.9 13.1-3.5 1-4.9.6-6.8-1.4-.9-1-2.1-2.3-3.1-.5-3.1 5.4-8.4 9-12.6 13.4-1.2 1.3-1.8 1.9.3 3.1 3.8 2.2 6 5.8 5.3 10-.4 2.7 2.9 4.8 1 7.2-2.4 3-4.7-1.1-7.6-.5-4.4.8-8.3-1.2-10.5-5.5 7.5 4.2 7.5 4.2 12.5 3.4zm-269.7-19.9c-2.2-4-5.3-6.2-9.2-7.7-1.5.9-3-2.4-4.2-.2-1.1 2 1.3 2.8 2.5 4 .5.5 1.5 1.1 2.1.5 1.6-1.5-.9-2.8-.5-4.3 3 2.4 4.7 6.4 9.3 7.7zm203.3 73.6c-3-3.4-5.6-5.9-9.6.3 4 0 7.7.8 10.7 3.3-3.4-.7-4 2.4-4.5 4-.6 1.7 1.8 2.4 3.7 2.2.6 0 1.2.4 1.8.7 1.1.6 2.4 1.7 3.3.1.8-1.3-.8-1.8-1.6-2.5-.7-.6-1.7-1.1-1.2-2.3.5.1 1.2.9 1.6.1 2-4.6-1.9-10.1-7.8-10.6 3.1 3.2 6.9 5.8 6.2 10.7-.5-.8-1-1.6-1.6-2.4-.6-1.1 0-2.5-1-3.6zM435.2 479.5c2.3-1.4 1.9-2.8.1-4.5-2-1.9-3.8-3.6-6.7-2.1-.6.3-1 .8-1.5 1.3-5.2 4.6-5.2 4.6-.2 9.2.6.5 1.1 1.2 1.8 1.5 1.8.8 2 5 5.6 2.1 3.1-2.5 3.8-4.8.9-7.5zm98.1 165.8c.9 1.4 2.3 2.6 3.8 3.4.9.5 1.6-.7 1.5-1.8 1.6 1.6 2.6.3 3.6-.7 3.9-3.7 7.8-7.3 11.5-11.1 1.7-1.7 2.9-3.4.4-6-2.6-2.6-4.5-1.3-6 .3-4.3 4.6-10.2 7.8-13 13.7-.6.9-2.7.8-1.8 2.2zm40.6-88.9c1.6 0 1.1 3.4 3 1.8 3-2.5 5.8-5.1 8.2-8.1 1-1.3-2.7-1-2.5-3.1.1-.8-1.3.1-1.7.5-3.5 3.3-6.9 6.6-10.4 9.9-11.1 10.4-22.1 20.8-33.2 31.2-1.5 1.5-3.4 2.7-1.2 5.1 2.5 2.8 3.7.2 5-1.1 6.5-6.1 12.9-12.2 19.2-18.4.9-.8 4-2.1 0-3.2-1.1-.3-1-2.2-.2-2.9 1-.9 2.8-1.1 3.3.4 1 2.8 1.8 1.1 2.8.2 1.2-1.1 2.2-2.4 3.5-3.3 3.6-2.4 4.7-4.9.6-7.8 1.1-1 2.2-1.3 3.6-1.2zM398.9 449c-4.7 1.7-8.2 4.1-10.7 8.7-2.4 4.5-6.9 8-11.8 10.6-2.2 1.2-5.6 2.2-3.5 6-5.6-2.2-.6-4.2-.5-6.8-6.5 6.3-12.9 12.7-19.6 18.8-1.9 1.7-3.3 5.9-7.4 2.6-.2-.2-1.6.9-2.3 1.5-4.2 4-8.4 8.1-12.3 12.6 10.2-4.9 22.3-5.7 30.8-14.2 3.4-3.4 6.9-6.8 10.6-10 1.8-1.6 1.4-2.9.4-4.5 8.9-8.5 17.6-16.9 26.3-25.3zM578 484.5c-5-9-9.7-18-14.8-27-.8-1.4-.4-4.9-3.9-3.2-3 1.5-1.1 3.5-.2 5.2 8.6 16.1 17.3 32.2 25.9 48.2 1.6 3 3.7 5.8 4.7 8.9 1.5 4.5 4.6 6.1 9.1 6.1 1.3-.5 1.8 1.5 2.3 1.1 1-.7-.7-1-.8-1.9-.9-6.3-5.3-11.1-7.9-16.7-2.2-4.6-4.6-9.1-7.2-13.5-.6-1.1-.6-3.5-3.6-2.7 4.9 9 9.8 17.9 14.5 26.9 1.2 2.2 3.1 4.2 2.7 7-7.5-12.5-13.8-25.7-20.8-38.4zm65.2 115.6c-.9-.7-1.6-2.1-3.2-1.1-.7-3.7-3.7-5.7-7.2-8.8.2 6.2-.9 11.1-5.9 14.3-1.2.8-.1 1.6.2 2.5.5 1.4-.8 2.7-1.6 2.2-3.6-2.1-4.6 1.2-6.3 2.7-5.1 4.6-9.9 9.3-14.8 14-1.3 1.2-3.4 2.2-1.6 4.7.6.9-.5 2.2-1.4 1.9-4.5-2-5.3 2.1-7.4 4-3.5.3-7 .7-11.1 1.1 3 3.8 5.9 6.7 10.5 7.7-2.6.3-2 1.4-.6 2.6 4.3 4 8.2 8.7 14.6 10.1 2 .4 3.8 1.7 5.7 2.6-.3 0-.7.1-1 0-6.2-3.9-9.8.1-13.7 3.9-7.5 7.4-15.1 14.6-23.2 22.5 6.7 1.6 13 3.1 19.3 4.5 1.1.3 1.8-.5 2.5-1.2 11.5-11.1 23.1-22.3 35.6-34.4-4 .3-7.3-3.5-8.6 3.2-.9 4.6-6.2 2.5-9.5 3.2 4.1-2.3 7-5.8 10.4-8.7 1.8-1.5 1.4-2.6-.1-3.8-3.7-2.8-6.1-7.1-10.9-8.6-.8-.3-1.3-1.3-1.9-2.1-1.2-1.6-1.2-5.1-5.6-1.8 5.1-3.2 5.1-8.1 7.7-11.6 3.4-4.6 7.8-7.9 13.6-8.6 5-.6 7.5-4.2 10.6-7.1 1.3-1.2.4-2.3-.7-3.2-1.6-1.5-3.2-3.1-5.4-5.2 2.7.8 3.6 2.7 5.1 3.8 1.2.9 2.1.8 2.4-.7 1.1 2 .9 3.7-.9 5.5-6.4 6.7-6.3 6.7-.5 13.9.2.2.4.5.6.7 7.3 8.6 7.4 8.5 15.3.7 2.4-2.4 2.6-4.4.7-7-.9-1.2-1.8-2.6-1.7-4.3 2.9 3.7 5.2 7.5 3.6 12.5-.7 2.4-1.7 4.2-4.5 4.3-1.3 0-2.8-.4-2.6 1.6.1 1.6-.3 3.5 1.2 4.4 1.4.9 2.2-.9 3.1-1.7 1-.8 1.7-2 2.8-2.6 11.6-6.9 9.7-16.9 6.9-27.2-.5-1.9-1.3-3.1-3.1-1-2.7 3.2-7.4 4.9-7.6 9.9-1.5-5.7-5-10.4-9.8-14.3zM506.8 417c1.8 1 3.5 2.1 5.3 3.2.3-.5.6-.9.9-1.4-14-8.7-27.9-17.5-41.9-26.2l-.9 1.2c5 4 10.6 7 16.1 10.3-3.8 0-6-2.9-9-4.4-2.3-1.2-4.2-3.1-6.6-4.1-1.6-.7-3.3-3.6-4.8-1.7-1.8 2.4 0 4.6 2.5 6.1 5.6 3.3 11.1 6.9 16.6 10.3 22 13.7 43.9 27.4 65.9 41.1 1.1.7 2.3 1.2 3.4 2 1.5 1.1 2.6 1.1 3.7-.5 1.4-2 .1-2.7-1.4-3.7-16.1-10-32.1-20-48.1-30-5.5-3.5-10.9-7.1-16.4-10.6 5.5 1.9 9.8 5.7 14.7 8.4zM416 582.5c1 1.5 1.3 4 4.2 2.1 2.7-1.8.5-3.3-.4-4.7-14.2-21.8-28.4-43.5-42.6-65.3-1.1-1.7-2.6-3.3-2.9-5.4 6.9 8.1 11.9 17.5 18 26.2 5.8 8.3 11.3 16.8 16.7 25.3 1.7 2.6 2.7 2.4 4.6.4 3.3-3.4 6.8-6.5 10.1-9.8 1-1 2.7-1.6.7-3.7-1.3-1.3.9-3.2 2.1-2 2.5 2.4 3.3.2 4.5-.9 1.6-1.4 3-3 4.6-4.3 1.4-1.2 3.1-2.1.5-3.8-.7-.4-.8-1.5.1-2 .5-.3 1.6-.5 1.8-.3 2.6 3.4 3.9.1 5.4-1.1 1.7-1.3 2.9-3.1 4.7-4.2 3-2.1-2-3.5-.3-5.5 2.1-2.5 3.4 3.2 5.6.4 1.8-2.3 4.1-4.1 6.2-6.2 1-.9 2-1.8.2-3-.8-.5-1-1.4-.5-2.1.5-.7 1.7-1.1 2.2-.6 4 3.9 4.9-1.2 6.2-2.5 1.5-1.5 6.1-2.2 3.4-6.3-1-1.5.6-3.4 2-2.2 2.7 2.5 3.5.1 4.8-1.1 1.5-1.3 2.9-2.6 4.3-4 1.2-1.2 2.8-1.9.7-4-1.4-1.4.2-2.6 2.1-2.3 4.8.9 10.4-4.6 9.3-9.3-.3-1.3.6-2.3 1.3-1.8 4.7 3.1 5.9-1.6 8.3-3.4 1.8-1.4 4.9-2.7 2.2-6.2-1.2-1.5 1.5-2.3 2.2-1.5 2.2 2.4 3.6.6 4.4-.8 1.7-3 8-3.5 5.1-9.1-.6-1.1 1.3-1.7 1.9-1.2 2.6 2.4 3.7-.1 5.1-1.4 3.9-3.6 7.7-7.4 11.7-11.3-15.5-9.7-30.5-19.1-45.6-28.5-7.6-4.7-15.2-9.5-22.7-14.2-2.1-1.3-3.6-1.9-5.8.3-10.6 10.5-21.4 20.7-32.1 31.1-1.2 1.2-4.3 2.4-.7 4.5.3.2.3 1.3 0 1.7-.6.8-1.4.4-2.1-.1-4.6-3.1-4.8 2.4-7 3.6-2.5 1.4-.3 2.9.9 4.1 6.8 6.7 13.6 13.4 20.6 19.9 2.5 2.3 2.5 4.7 2.8 7.9.4 5.3-4.8 10.4-.4 15.7.8 1-.1 2.8-1.4 3.8-1.3 1-3 1.1-4.2.3-3.6-2.6-7.4-1.9-10.3.5-3.5 2.9-5.4 6.8-2.1 11.3 1 1.3.5 3.1-.8 4.4-1.4 1.4-3 1.1-4.6.5-6.2-2.4-14.7 1.1-17 6.9-.6 1.4.8 1.9 1 3 .2 1.2.2 2.3-.9 3-1.2.8-2.5.8-3.6-.2-1.9-1.8-3.8-3.6-5.5-5.5-.9-.9-.8-2.1-.2-3.1.6-.9 1.8-1.5 2.5-1 4.4 2.9 5.9-1.1 8.2-3.1 1.2-1 2.3-2.2 4.1-3.9-3.2.1-4.5-1.6-6-3-6.7-6.4-13.6-12.5-19.8-19.4-2.5-2.8-5.2-3.7-8-.1-1.2 1.5-2.7 2.8-4.2 4-3.6 3-7.2 5.9-4.2 11.2-1.7-3.1-3.5-6-8.2-3.7 3.5 5.6 6.9 11.1 10.3 16.6-4.1-3.6-5.6-9.1-9.6-12.8-.4.3-.8.5-1.2.8 9 13.6 18 27.3 27 40.9.4-.2.8-.5 1.2-.7-5.3-9.8-12.7-18.3-17.4-28.4 15.2 23.6 30.8 47.1 46.5 70.6zm3.1-91.7c-.5 1.9 2.3 1.4 2.1 3.2-.2 1.5 1.4 1.9 2.5 2.2.4.1 1.4-.7 1.7-1.4.7-1.3-.8-1.8-1.5-2.6-.6-.7-1.4-1.3-2.1-1.9.7-.7 1.3-1.5 2.1-2 3-2.2 3.2-4.2-.1-6.2-3.8-2.3-2.8-4.1-.3-7.1 3.9-4.8 8.1-4.6 13.1-2.7 1.1.4 2.6 1.5 3.5 0 .8-1.3.5-2.8-.7-3.9-7.7-7.5-15.4-14.9-23-22.4-1.4-1.3-2.4-1.3-3.7 0-10.3 9.9-20.6 19.7-31 29.6-1.5 1.4-1.2 2.3.1 3.5 3.1 2.8 6.2 5.6 9.2 8.4.2.2.5.8.5.8 5.2-2.8 5.8 2.9 8.7 4.3.3.1.5.5.8.6 5.3.7 7.1-3.8 10-6.5 1.8-1.7 2.5-4.1.1-6.2-1.2-1.1-2.2-2.7-3.6-3.2-1.8-.6-2-1.3-.7-2.3 2.1-1.6.3-2.3-.9-3.4 2.7 1 2.7 1 2.7 4.2 0 1.4 1.5 1.9 2.2 2.9 1.2 1.5 4 2.5 3.3 4.4-2.2 5.9 2.4 5.4 5.7 6.4.8.2 1.5.7 2.2 1-.9 0-1.9.2-2.9.3zm-1.4 134.8c2 2.7 5.3 3.6 8.1 5.1 1.4.7 2.4 0 3.3-1.2.9-1.3.8-2.3-.6-3.2-2.9-1.9-5.1-4.6-9.2-4.7-3.1-.1-5.3-3-8.2-4.1-1.5-.6-2.9-3.2-4.6-1.3-1.7 2 2.1 2.3 2.2 4 .4 2 1.9 3.3 3.3 4.6 22.3 21.8 44.7 43.6 66.9 65.6 3.2 3.1 5 3.2 8.1 0 6-6.3 12.5-12.2 19-18.5-8.2-3.7-16.2-7.2-24.1-11-15.4-7.3-30-15.8-44.5-24.6-2.9-1.8-5.7-3-9.2-3.7-5-1.1-9.6-3.4-13-7.8-1.6-2.1-4.5-3.2-6.7-4.7 3.8.8 7 2.5 9.2 5.5zm43.7-263.7c3.9 4.2 3.7 6.6 0 10.7-1.6 1.7-5.9 3.7-4.1 5.4 2.6 2.4 4.2-2.1 6.1-3.6 3.6-3 6.8-6.5 10.2-9.8 1.9-1.8 4.8-3.5-.2-6.4 2.9 1.6 4.5 1 6.1-.7 5.3-5.3 10.6-10.5 16.1-15.5 2.3-2.1 1.9-3.4-.2-5.3-7.7-7.1-7.7-7.2-15.4-.1-3.4 3.2-6.6 6.7-10.2 9.7-3.2 2.6-3.2 4.7.1 7.1.9.6 1.6 1.5 2.3 2.4-8.7-5.2-15.1-12.8-21.9-19.9-7.9-8.3-16.7-15.7-24.8-23.9-1.6-1.6-2.2-.5-3.1.3-5 4.7-9.8 9.4-14.8 14-1.7 1.6-1.5 2.8.1 4.3 8.6 8.3 17.2 16.7 25.8 25.1 1.7 1.7 2.9 1.5 4.4-.2 1.2-1.3 2.6-2.4 3.8-3.7 1.1-1.1 2.3-1.8 3.8-2 3.6-.5 11.3 4.8 12.4 8.6-3-1.4-5.2-3.8-7.6-5.9-2-1.7-4.2-2-6.4-.8-2.8 1.6-5.3 3.8-6.8 6.7-.5.9.8 1.6 1.4 2.3 4.6 4.5 9.4 9 14 13.6 1.8 1.8 3.2 1.9 4.8 0 1.1-1.2 2.4-2.2 3.5-3.4 2.4-2.6 2.7-5.3.1-8-1.3-1.3-3.3-2.3-3.1-4.6 1.4 1.3 2.5 2.4 3.6 3.6zm174.7 227.9c4.4-4.3 8.2-8.1 12.1-11.7 1.9-1.7 1.7-2.9 0-4.7-3.7-4-8.9-6.8-10.7-12.2-.1-.3-.5-.7-.7-.6-3.6.7-4.9 4.3-7.7 6.1-2 1.3-.3 2.3.5 3.5 1.5 2.2 5.5 3.1 3.9 6.9-8.5-9.3-17.8-17.9-26.9-26.7-2.5-2.5-5.2-4.9-7.6-7.5-1.8-2-3.9-2.5-6.2-1.9-3.3.8-.7 2.8-.7 4.2 0 1.4-1.1 1.9-1.9 2.6-16.8 16-33.6 32-50.4 47.9-1.2 1.2-2.2 2.9-4.4 2.6-4.6-.7-2.8 2.1-2.3 4 .2.7 1 1.3 1.6 1.8l34.4 33.5c3 3 6.6 4 10.8 3.4 1-.1 2.2-.2 2.2-1.3 0-.6-.8-1.3-1.5-1.7-10.3-6.4-17.6-16.1-26.5-23.9-1.8-1.6-1.1-3 .4-4.4 2.9-2.7 5.4-5.4 2.5-9.6-.7-1 0-2.1.9-3 2-1.9 4-3.8 5.9-5.7 1.8-1.9 3.7-2.2 5.4-.1 1.7 2.2 2.9 1.6 4.5-.1 3.8-3.8 7.7-7.4 11.6-11.1 1.3-1.2 1.8-2-.1-3.2-2.6-1.8-2.5-3.9-.2-5.9 1.9-1.7 3.8-3.5 5.6-5.4 1-1.1 2.4-1.8 3.4-.9 4 3.4 6.8.6 8.9-1.8 2.8-3.2 4.6-2.3 7.1.2 6.7 7 13.6 13.9 20.5 20.6 1.6 1.6 1.8 3.5 2.8 5.6 1-1.4 1.9-2.5 2.7-3.6.2 1.1.2 2.1.1 4.1zm-388.6-118c7.2 5.8 7 6 13.7-.5 4-3.8 7.8-7.7 11.9-11.5 1.9-1.7 2.3-2.9.3-5-8.1-8.5-7.9-8.5-16.5-.5-3.4 3.2-6 7.2-10.6 9.1 5-6.1 11.3-11 16.8-16.7.2-.2.6-.5.8-.5 8 1.7 10-5.6 14.3-9.1 7.9-6.4 7.6-6.8.3-13.8-19.2-18.6-38.4-37.2-57.5-55.9-2.6-2.6-4.2-3-7-.2-10.1 10-20.6 19.7-30.9 29.6-1.1 1.1-3.7 2.2-1.5 4.1 1.9 1.6 2.9-.7 3.9-1.7 4.4-4.1 8.8-8.2 12.9-12.5 2.4-2.5 3.9-2.3 6.3 0 12.7 12.6 25.4 25.3 38.5 37.5 5.9 5.5 11.3 11.5 17.2 16.9 2.1 1.9 2 3.1-.1 5-4.8 4.3-9.5 8.9-14.1 13.4-1.3 1.3-3 2.6.1 3.8-3.3 3.4-2.3 5.7 1.2 8.5zm115.7-135.4c.4 7.5-4.8 9.9-9.5 13.3-.6.4-2.4-.4-1.6 1.3.5 1 1.5 1.1 2.5.3.1-.1.2-.2.4-.3 8.5-5.4 10.7-5.2 17.7 1.6 16 15.5 31.9 31.1 47.8 46.7 1.9 1.9 4.4 3.6 3.4 6.8-2.5-5.6-7.6-9.1-11.8-13.3-13.9-13.8-28-27.4-42.1-41-4.6-4.5-10-4.4-13.7 0-.7.9-1.6 1.6-.5 2.8 4.6 4.8-2 5.5-3.4 8-1.2 2.1-3.3 3.8-5.8.9-1.6-1.7-2.6 0-3.6.9-3.8 3.6-7.5 7.2-11.2 10.8-1.9 1.9-5.3 3.5-1.5 6.7.7.6.4 1.6-.2 2.2-2.2 2.2-4.4 4.3-6.7 6.3-.4.3-1.6.5-1.8.2-3.7-4.1-5.6-.6-7.2 1.9-2 3.2-1.3 6.4 1.4 9.1 6.5 6.3 12.9 12.7 19.4 19.1 9.2 8.9 18.4 17.8 27.5 26.7 3.2 3.2 6.4 6.4 10.7 8.2-4-1.8-3.2 3.3-5.7 3.8-.2 0 1.1 1.8 1.2 1.7 1.8-1.9 4.3.5 6-1 1-.8 2.4-1.7 2-3-.5-1.8-2.4-1.3-3.8-1.5 6.6-2.6 11-7.7 15.9-12.4 9.9-9.5 19.7-19 29.7-28.4 2.7-2.5 4.6-5.2 5-8.9 2.1 3.8-.6 6.3-2.9 8.6-6.7 6.6-13.5 13.1-20.4 19.8 2.6.4 3.9-1.5 5.2-2.7 3.5-3.1 6.2-7.5 10.2-9.6 13.9-7.5 22.6-20.3 34.3-30.2 8.4-7 7.5-5 .5-11.9-24.8-24.4-49.8-48.6-74.6-73.1-3-2.9-4.7-3.5-8.1-.2-32.6 31.4-65.4 62.5-98.2 93.7-2.6 2.5-3.1 4-.2 6.8 26 24.9 51.9 49.9 77.6 75.2 3.7 3.7 5.7 3.1 8.9-.3 4.3-4.6 9.1-8.8 13.7-13.1 1.9-1.8 2.6-3.5.8-6.1-4.2 4-8.4 7.8-12.2 11.9-3.1 3.4-5.2 2-7.6-.5-11.6-12.1-23.8-23.5-35.8-35.3-7-6.9-15.4-12.7-20.1-21.6-.7-1.2-1.4.1-2.1-.4-1.6-1.1-3.1-2.1-1.1-4.1 4-3.8 8.3-7.4 11.8-11.5 2.1-2.4 3.5.4 5.5-.3 4.3-1.4 2.1 1.5 1.6 3.3-.1.4.9 1.3 1.4 1.8 3 2.9 6 5.9 9.1 8.8.7.7 1.2 1.9 2.8 1.1 2.9-1.5 3.7-.2 2.5 2.3-.6 1.3 0 1.8.6 2.4 3.3 3.3 6.8 6.5 10.1 9.8 1.1 1.1 1.7.7 2.8 0 1.1-.7 2.9.3 2.4 1.2-2.1 4 1.8 5.1 3.4 7.1 1.8 2.1 3.6 4.5 6 5.6 3.2 1.4 6 2.3 6.6 6.4.2 1.5 2.5 2.9 4 4 .8.6 1.3 3.2 3.2.8 1.2-1.5 1.3-2.5-.2-4-6.6-6.2-13.1-12.5-19.6-18.8-10.1-9.8-20.2-19.5-30.3-29.4-4.8-4.7-4.7-9.4 0-14.7.6-.7 2.4-1.5.9-2.6-1.6-1.2-1.8.8-2.3 1.5-3.1 4.3-5.6 8.3-12.5 7.8-6.1-.4-7.3-1.1-5.8-7.6 1.3 1.8-.9 5.7 3.5 5.6 3.7-.1 10.1-5.1 10-7.8-.1-3.7-3.8-3.9-6-4.7-2.8-1-6.6-2.8-8.7 1.6 0-1.1-.9-2.1-.1-3.2 1.7-2.3 13.3-2.7 14.9-.4 2.3 3.3 4.4 4.6 7.6.7 2.2-2.7 4.6-6.4 9-2.1.8.8 1.9-.8 2.7-1.5 3.6-3.4 7.2-6.9 10.8-10.4 2.1-2.1 6-3.6 2-7.4-.9-.9 0-2.3 1.1-3.3 1.7-1.5 3.1-3.4 4.9-4.6 1.9-1.1 1.9-2.1.3-3.1-5.1-3-4.3-7.3-3.6-12 1-6.2 1.4-6.6 7.7-4.3-1.6 1.2-4.9-1.2-5.2 1-.6 3.9 1.2 7.7 3.3 11.1 1.2 2 3.2 1.1 4.3.4 3.5-2.2 5.6-5.6 6.5-9.4.6-2.5-2.9-1.4-3.7-2.9 4.8-.6 6 .5 6.3 5.3zm129.1 278.3c1.4 1 2.1-.2 2.9-.9 2.3-2.1 4.2-4.8 6.9-6.1 3.8-1.9-1.1-5 1.5-6.4 1.8-1 4.2 2.2 6.1-1 1.5-2.4 4.2-4.1 6.2-6.1 1-1 2.8-1.9.7-3.7-.3-.3.1-1.5.4-2.2.1-.2 1.1-.3 1.4-.1 2.7 2.3 6.5-3.4 9.3 1.6 1.7 3 4.4 6.2 9.1 7.2-3.7-6-3.7-6 1.6-11 13.7-13.1 27.4-26.3 41.1-39.4 3.1-3 6.1-8.3 10.2-.6 1.7-2.4.3-3.6-.7-4.7-1.2-1.3-2.5-2.5-3.8-3.7-4.8-4.6-4.8-4.5-.3-9.1 1.6-1.6 4.8-2.8 2.3-5.9-.1-.2 0-.6.1-.9 2-4.4 1.9-4.6-1.9-9.6-2.2 7.5-7.5 9.3-14.4 4 1.6 1.7 2.6 2.5 3.3 3.6.9 1.5 2.1.8 3.3 1 1.2.2 1.3 1.5.4 2.2-3.1 2.3-3.7 5-2.1 8.4.5 1-.4 1.5-1.3 1.4-3.5-.4-7-1.4-9.3 2.7-.5.8-2 0-2.2-1-.7-3.6-2.7-5.6-6.5-6.2-1.2-.2-1.1-1.6-.3-2.3 2.5-2.3 3.2-4.9 2.3-8.1-.4-1.5.4-1.8 2-1.7 6.5.6 8.3-.5 10.8-6.3 1.9-4.4 6.2-5.3 12.4-2-6.9-13-13.5-25.3-20.3-38.1-2.2 2.1-4 3.7-5.6 5.4-2.7 2.9-6 3.3-8.7.8-1.9-1.8-5.1 0-6.3-2.8-1.5-3.3-3.6-6.4-4.4-9.8-.7-3.2 2.9-4.7 4.8-6.8 5.2-5.3 5-5-1-9.4-3.6-2.6-5.7-1.9-8.6.9-29.4 28.1-58.9 56.1-88.3 84.2-5.3 5-10.4 10.2-15.7 15.3-1.2 1.1-2.8 2.5-1 3.9 1.6 1.3 2.3-.9 3.2-1.7 5.1-4.6 6.2-4.6 10.8.1l2.4 2.4c5.5 5.1 5.6 5.3.1 10.5-1.7 1.6-3.2 2.9-.5 5.2-4.5-2.3-4.4-2.1-1.4-5.2 1.7-1.7 5.4-3 4-5.9-1.8-3.7-4.9-6.9-8.9-8.4-3-1.1-4.5 2.1-6.2 3.8-1.4 1.3-1.9 3.1-4.5 1.3-1.5-1.1-3.9.2-5.3 1.3-2.7 2.1-5 4.6-7.4 7-.8.8-2 1.7.1 2.3.7.2 1.1 1 .8 1.5-.9 1.4-2.7 2.5-.8 4.5 4.2 4.6 5.6 11.3 11.8 14.3 3.1 1.5 6.1 3.2 9.2 4.6 1.5.7 3.8 3.9 4.7-.7 0-.2 1.2-.5 1.8-.4 1 .3 1.2 1.4.7 1.9-2.6 2.6.2 3 1.6 3.8 2.5 1.5 5.1 2.9 7.8 4.1 1.5.7 3.6 3.4 4.5-.8.1-.6 1.4-.7 2.2-.2.9.5.9 1.7.4 2.1-3.9 2.6.5 2.8 1.2 3.2 9.3 5.1 18.7 9.9 28.2 14.9.4-1.2-.1-4.4 3.1-2.2zM200.6 333.2c-2.9 2.8-2.6 4.3 0 6.9 20.7 19.9 41.3 39.9 61.7 60 3.1 3.1 4.6 1.3 6.7-.7 24.2-23.2 48.5-46.4 72.8-69.7 8.8-8.4 17.5-16.9 26.4-25.1 2.3-2.1 2-3.4-.1-5.3-21-20.3-42-40.6-62.8-61-2.4-2.4-3.6-1.4-5.4.4-14.6 14.1-29.3 28-43.9 42-2 1.9-4 3.8-5.9 5.7-.2-.1-.3-.3-.5-.4-16.3 15.7-32.5 31.6-49 47.2zm313 51.4c.2-.3.4-.5.5-.8 9.3 5.8 18.9 11.4 27.9 17.7 4.7 3.3 9.5 4.4 15.8 3.7-3-2.9-5.7-5.4-8.2-8-16.4-16.8-33-33.3-50.2-49.4-3.2-3-5.2-3.4-8.3-.1-3.5 3.8-7.4 7.3-11.2 10.8-1.6 1.5-2.1 2.4.3 3.8 5.3 3.1 10.3 6.6 14.9 10.6-4.5-2.8-9.1-5.7-13.6-8.5-2.1-1.3-3.5-1.5-4.6 1.3-2.6 6.4-5.4 12.6-8.3 18.8-1.2 2.6-.4 4.1 1.9 5.5 23.2 14.3 46.5 28.6 69.7 42.9 7.2 4.4 14.5 8.9 21.4 13.6 1.7 1.2 2.3.9 3.5-.2 4.1-3.9 8.2-7.9 12.4-11.7 1.8-1.6 1.8-2.9 0-4.3-7.7-6-13.5-14-22.1-18.9-1.9-1.1-3.7-3.8-6.7-1.3-.8.7-3.1-.4-3.5-1.9-.4-1.5 1.8-.7 2.4-1.9-11.3-7.3-22.7-14.5-34-21.7zm-331.8-68.3c-3.5 3.3-2.9 5.1.3 7.8 3.6 3 7 6.3 10.2 9.7 2.3 2.5 3.8 2.3 6.2 0 23.6-22.7 47.3-45.3 71-67.9 10.2-9.7 20.4-19.5 30.7-29 2.6-2.4 2.5-3.8 0-6.1-3.8-3.3-7.4-6.8-10.7-10.6-2.7-3-4.5-2.4-7.1.1-14.7 14.4-29.6 28.6-44.4 42.9-2 1.9-4 3.8-5.6 5.5-17.7 15.5-33.7 32-50.6 47.6zm232.8 273c-3.5-2-4.7-5.7-6.6-8.6-17.6-27-35.1-54-52.5-81.1-1.3-2.1-2.5-3-5.1-1.9-6.8 2.9-13.6 5.7-20.5 8.2-2.5.9-2.5 2.1-1.3 3.8l3.6 5.1c1.1 1.6 1.7 4.2 4.4 1.5.5-.5 1.6-.6 2.1.2.6.8.9 2.2-.1 2.5-4.3 1.4-1.4 3.5-.4 5 10.4 15.6 20.9 31.2 31.4 46.7.6.9.9 2.4 2.9 1.6 2.5-1 3.1 1.6 2.8 2.5-1.8 5.6 2.7 8.8 5.5 12.1 3 3.7 6.1 7.7 11.2 9.6 1.9.7 2.2 4.1 4.1 6 1.9 1.8 3.1 2.4 5.2.3 4.6-4.5 9.4-8.9 14.2-13.3 1.7-1.6 2.1-3 .2-4.8-1.9 1.6.4 3.1-1.1 4.6zm219-71.2c-12.9-23.3-25.8-46.5-39.1-69.5-2.8-4.9-5.8-10-11.1-13.4-1.8-1.2-2.7-1.1-4.1.2-3.9 3.9-7.9 7.7-12 11.4-2 1.8-1.7 3.2-.6 5.4 12.9 23.7 25.7 47.6 38.5 71.4.6 1.1 1.1 2.2 2.5 2.7 11.8 3.9 23.6 7.8 36 11.9-2.1-8-6.6-13.8-10.1-20.1zm-5.5 78.9c2.7-2.6 3.3-11 .7-13.6-6.6-6.6-13.5-13.1-20.2-19.7-1.2-1.2-2.4-1.8-3.6-.2-.9 1.3-4.1 2-1.9 4.5 1.8 2 1 3.4-.6 4.9-1.8 1.6-3.5 3.4-5.3 5.1-.8.8-1.9 1.9-3 1.3-5.2-2.7-7.2 1.6-10 4.1-4 3.6-7.8 7.4-11.6 11-.9.8-2.6 1.5-1.5 3 4.3 5.7-2.5 6.7-4.5 9.7-1.4 2.1-3.5 3.7-6.5 1.1-2-1.7-3 .9-4.3 1.9-1.6 1.2-1 2.4.2 3.6 6.5 6.5 12.9 13.2 19.5 19.6 2.6 2.6 12.3 2.4 15-.2 6.3-6 12.6-12.2 18.9-18.2l.1.1 18.6-18zm-132.7 37.8c-.6-1.7-1.7-2.8-3.4-3.7-23.9-12.3-47.8-24.7-71.6-37.2-3.5-1.8-5.7-1.8-8.4 1.2-2.8 3.1-6 5.9-9.2 8.7-2 1.8-2.8 3.3-.6 5.5.9.9 2.3 2 1.5 3.7-.2.4-.1 1.6.7 1.2 4.3-2.5 6.2 1.4 8.7 3.2 4.5 3.2 10.2 3.4 14.8 6.9 23.8 17.6 51.8 28.6 77.3 43.5.2.1.6.1 1.5.1-3.9-11.4-7.6-22.3-11.3-33.1zm-76.5-339.7c-5.7 5.5-5.6 5.5-11.5-.1-12.6-12.1-24-25.4-37.4-36.7-5.7-4.8-10.1-10.8-15.8-15.6-2.1-1.8-2-3.1.1-4.9 4.8-4.4 9.4-9 14-13.5.9-.8 2.3-1.8.9-3.1s-2.4.2-3.2 1c-10.8 10.2-21.6 20.6-32.5 30.7-2.4 2.2-2.1 3.6.1 5.7 16 15.3 31.9 30.8 47.8 46.2 4.6 4.5 9.3 9 13.7 13.8 2.6 2.9 4.5 3.3 7.3.2 3.3-3.7 7.3-6.9 10.8-10.5 1.7-1.7 5.1-2.9 2.9-6.6-.5-.9 1.1-1.8 1.9-2.6 4.4-4.3 8.9-8.6 13.3-12.8.8-.7 1.8-1.4.6-3.7-4.3 4.1-8.6 8.3-13 12.5zm101.8 436.2c2 2 3.4 2.8 5.9.3 10.2-10.1 20.7-20.1 31.2-29.9 2.6-2.4 2.5-4-.2-6-.8-.6-1.5-1.2-2.1-2-7.8-11.3-19.5-15-32.7-17.7-8.3-1.7-13.8-.8-19 5.6-3.9 4.7-8.6 8.8-13.3 12.8-3.1 2.7-3.6 4.6-.2 7.6 5.3 4.6 10.1 9.6 15.1 14.4l-.1.1c5.2 4.8 10.4 9.7 15.4 14.8zm187.9-174.2c1.8-1.7 2-2.9.2-4.7-10.7-10.3-21.4-20.7-32.1-31.1-1.9-1.8-3-1.5-4.8.2-6.9 6.8-14 13.5-21 20.1-1.3 1.2-1.8 2.4-1.2 4.2 2.2 6.9 2.9 14 3.9 21.1.5 3.3 1.8 5.9 4.3 8.2 4.4 4 8.7 8.2 12.8 12.6 2.3 2.4 3.7 2.1 5.9-.1 5.1-5.2 10.4-10.2 15.7-15.2.1 0 .1.1.2.1 5.4-5 10.7-10.3 16.1-15.4zM361.8 218.6c2-1.9 2-3.2 0-5.1-9.2-8.9-18.3-17.9-27.3-27-1.9-1.9-3.3-2.1-5.3-.2l-32.7 31.2c-1.6 1.5-1.7 2.7 0 4.4 9.4 9.1 18.8 18.3 28.1 27.5 2 2 3.3 1.8 5.3-.2 5.2-5.3 10.7-10.4 16-15.6l.1.1c5.2-5 10.4-10.2 15.8-15.1zm-151 144.3c2-1.8 2.1-3.1.1-5-9.2-8.8-18.4-17.7-27.4-26.8-2.4-2.4-3.8-1.9-6 .2-10.2 9.9-20.6 19.7-31 29.5-2.4 2.2-2.6 3.7-.1 6.1 9 8.6 17.8 17.4 26.6 26.3 2.4 2.4 3.9 2.6 6.3.1 5.1-5.2 10.4-10.2 15.7-15.2 5.3-5.1 10.4-10.2 15.8-15.2zm84.6 76.9c-2.3-2.3-3.8-2.8-6.2-.2-4.1 4.4-8.6 8.4-12.9 12.6-1.1 1-2.3 1.6-.4 3.6 9.4 9.8 19.3 19.1 28.9 28.7 6.1 6 12.4 11.8 18.4 17.9 2.2 2.2 3.5 2.6 5.9.1 4-4.2 8.4-8.1 12.7-12 2.4-2.1 2.3-3.5 0-5.7-7.9-7.4-15.7-15-23.5-22.6-7.5-7.5-15.3-14.9-22.9-22.4zm200.5 185.3c-1.5 1.5-1.1 2.8-.6 4.3 4.1 11.9 8.3 23.8 12.2 35.8 1.1 3.3 2.3 3.3 4.5.9 1.4-1.6 3-2.9 4.6-4.3 1.8-1.7 3.2-3.3 2.5-6.1-.7-2.6.4-6.1 2.6-6.8 6.4-2 7.2-8.5 11.7-12 4.7-3.7 8.7-8.2 13.1-12.3 2.1-1.9 3.4-3.9.2-5.5-5.5-2.8-7.4-8.7-12.1-12.2-2.3-1.8-5.2-2.6-6.9-5.8-1.4-2.7-1.5-4-.4-6.4-10.4 10.2-20.8 20.4-31.4 30.4zM611.1 457c.5 3.2.1 5.4 1.7 7.7 14.1 20.9 23.9 43.9 32.5 67.3 2 5.5 2 5.5 6.1 1.6 5.4-5.2 10.7-10.4 16.3-15.4 2.4-2.2 2.2-3.6-.1-5.7-6.9-6.4-13.5-13-20.4-19.6 1.5-.7 1.9 1.5 3.6.3-9.8-7.6-17.1-17.5-26.2-25.7-9.4-8.4-18.2-17.4-27.4-26 11.3 12 24.2 22.6 35.1 35.1-7.5-5.7-13.9-12.4-21.2-19.6zm-239 127.3c-2.3-1.1-2.3-4.3-1.5-6.2.8-1.9.4-2.9-.5-4.3-14.2-21.3-28.5-42.6-42.5-64.1-2-3-3-2.8-5.3-.5-3.7 3.8-7.5 7.6-11.6 11.1-2.7 2.4-2.8 3.8-.1 6.4 13.9 13.1 27.7 26.4 41.4 39.7 10.4 10 20.7 20.1 31 30.1 1.1 1.1 1.9 2.6 4.5 2.8-5.7-5-8.5-11.8-15.4-15zM218.3 401.6c-1.9-1.9-3.3-2.5-5.6-.2-5.3 5.4-10.9 10.7-16.4 15.9-1.7 1.6-2.1 2.8-.2 4.7 9.5 9.1 18.8 18.2 28.2 27.4 1.7 1.7 3 1.4 4.5-.1 5.7-5.5 11.4-11.1 17.1-16.5 2-1.9 1.2-3.2-.4-4.7-4.7-4.4-9.3-9-14-13.5-4.4-4.4-8.9-8.6-13.2-13zm403 239.3c-1.8 1.7-1.8 3 .1 4.7 10.2 9 20.4 18 30.5 27.1 1.8 1.6 2.9 1.3 4.5-.2 3.9-3.9 7.9-7.6 12-11.4 1.7-1.6 1.4-2.8-.1-4.4-10.6-11.1-21.1-22.3-31.5-33.6-1.8-1.9-3-1.8-4.8-.1-4.9 4.8-9.9 9.4-14.8 14.1-1.2 1.2-2.3 2.2-.7 3.9 1.9 2 3.1.8 4.4-.5 2.4-2.4 4.9-4.7 7.3-7.1.1.1.3.2.4.3-2.4 2.5-4.8 4.9-7.3 7.2zM287.4 510.5c1.7 1.7 3.1 1.9 4.9.1 5.5-5.5 11.1-10.9 16.7-16.3 1.6-1.6 2.1-2.7.1-4.6-9.4-8.9-18.7-18-27.9-27.1-2-1.9-3.1-1.4-4.8.2-5.4 5.3-10.9 10.7-16.5 15.8-2 1.8-2.1 3.2-.1 5 4.6 4.3 9.1 8.7 13.6 13.1l-.1.1c4.8 4.6 9.5 9.1 14.1 13.7zM397.3 283c1.9 1.9 3.2 2 5.2 0 5.5-5.5 11.1-10.8 16.8-16.1 1.6-1.5 1.3-2.5-.1-3.9-9.5-9.2-19-18.5-28.5-27.7-1.8-1.7-3.1-1.2-4.6.2-5.7 5.5-11.3 11.1-17.1 16.5-1.9 1.7-.8 2.7.5 3.8 4.8 4.6 9.5 9.2 14.3 13.8l-.1.1c4.6 4.5 9.2 8.8 13.6 13.3zm57.4 14.2c-1.9-1.9-3.2-1.9-5.2 0-5.3 5.3-10.6 10.4-16.1 15.5-2 1.8-2.1 3.1-.1 5 9.2 8.9 18.4 17.8 27.4 26.8 1.8 1.8 3.1 1.7 4.8 0 5.5-5.3 11-10.5 16.7-15.6 2.3-2 1.7-3.2-.2-4.9-4.6-4.3-9.1-8.7-13.6-13.1.1 0 .1-.1.2-.1-4.7-4.6-9.4-9-13.9-13.6zm94.9 377.6c-2.2 2.1-2.1 3.3 1.1 4.2 3.3.9 6.5 2.2 9.7 3.4.6.2 1.4.8 1.8.6 3.6-1.5 7.1-3 9.1 2.1.8-.5 1.7-.9 2.4-1.5 8.3-7.9 16.6-15.9 24.9-23.9 1.3-1.3 1.9-2.3.2-3.8-4.3-3.9-7.5-8.9-13.5-11.3-2.8-1.1-3.6-.5-5.2 1-5 4.9-10 9.7-15 14.5l-.2-.2c-5 5.1-10.1 10-15.3 14.9zm50.2-134.5c.4.8 1.1 1.6 1.7 2.3 4.6 4.9 10.7 8.4 14.5 14.1 2 2.9 4.3-.2 5.9.5 2.7 1.3-2.3 4.2.5 5.6 2.7 1.4 5.5 5.2 8.8.3 1.2-1.8 3.3-3.1 4.9-4.7.9-.9 1.3-1.8.2-2.8-1.1-1-1.7-.1-2.4.5-1.1.9-2.2 1.5-3.4.2-1.5-1.7.1-2.6 1.1-3.5 3.4-3.3 6.7-6.5 10.2-9.7 2.1-1.9 2-2.9-.9-3.8-12.8-4.2-25.5-8.5-38.2-12.7-1.2-.4-2.4-.8-3.6.4-3.5 3.5-7.1 7-10.1 9.8 3.7-2.6 8.2-1.4 10.8 3.5zm-36.4 94.9c-2.4-2.5-3.9-2.3-6.3.1-4.6 4.7-9.6 9.1-14.3 13.8-2.2 2.2-5.8 3.7-4.5 7.8.1.5-.6 1.5-1.3 1.9-5.1 3.1-3 5.6.3 8.7 8.8 8.4 8.7 8.5 17.4.1 8.5-8.2 16.9-16.4 26.2-25.3-7.8.3-13.1-2.7-17.5-7.1zm-17.8 114.3c10.4-10.2 21-20.2 31.6-30.3 4.9-4.7-1.1-5.9-2.9-8.4-1.6-2.4-3.4-2.1-5.1-.1-.7.9-1.7 1.7-.6 2.9.8.9 1.6 1.6.3 2.7-.9.8-1.8.6-2.6-.1-1.7-1.5-2.6-.1-3.7.9-2.5 2.3-4.9 4.7-7.4 7-1.3 1.2-2.5 2.2-.9 4.3 1.1 1.6-.4 3.5-2.3 2.3-2.5-1.6-3.4-.3-4.8 1.1-2.2 2.2-4.4 4.3-6.7 6.4-.6.6-1.7 1.3-1.6 1.7 1.2 4.1.4 5.9-4.4 4.3-.5-.2-1.4 1.3-.4 2.3 1 1 2.1 2 3.5 3.4 2.3 4.1 4.8 2.6 8-.4zm151.2-144.9c10-9.7 20.2-19.3 30.2-29 1.2-1.1 3.8-2.2 2.6-4-1.8-2.6-3.8-5.5-6.9-6.6-1.7-.6-2.2 1.1-1.1 2.8 1.4 2.1-.2 3.7-1.7 2.7-3.2-1.9-4.4.2-6.1 1.8-2.1 2-3.9 4.4-6.4 6-3.2 2 1.5 4.4-.8 6.2-1.9 1.5-3.8-2.6-6 .2-2.4 3-5.3 5.8-8.4 8.1-3 2.1 1.6 3.9-.3 5.8-2 2-3.3-2.4-5.6-.2-3.7 3.5.4 4.4 1.8 6 3 5.3 5.7 3.1 8.7.2zm-341-366.8c-1.9 1.7-1.8 2.8-.1 4.7 8.1 8.7 8 8.8 16.7.3 3.3-3.2 6.6-6.2 9.9-9.3.5-.4 1.2-.8 1.3-1.4 1.8-5.7-4.7-6.5-6.6-10-1.2-2.2-3-2-4.6 0-1 1.2-2.3 2.3-3.5 3.4l-.2-.2c-4.2 4.2-8.5 8.5-12.9 12.5zM253.6 451.6c8.6-8.3 8.6-8.3-.5-16-1.6-1.4-2.6-1.5-4.1-.1-5.8 5.6-11.7 11.2-17.5 16.7-.2.2-.6.4-.6.7-.7 5.3 4.9 6.4 7.2 9.7 1.4 2.1 3 1.1 4.4-.3l8.4-8.1c.8-.8 1.8-1.7 2.7-2.6zm41.6 61.9c-1.8 1.7-1.8 2.8 0 4.7 7.8 8.3 7.7 8.3 15.7.7 3.8-3.7 7.6-7.5 11.5-11.1 2.1-1.9 2.4-3.2.2-5.3-7.7-7.6-7.7-7.7-15.4-.2-1 1-2.1 2-3.1 3l-.1-.1c-3 2.7-5.8 5.6-8.8 8.3zM183.9 402.2c-4.5 4.4-4.5 4.4.4 8.6 6.2 5.4 6.2 5.4 12.2-.1 4.4-4.1 8.6-8.3 13-12.4 1.8-1.7 2.2-3 .2-5.1-7.9-8.4-7.8-8.5-16-.5-1.2 1.1-2.3 2.2-3.5 3.4-2.1 2.1-4.2 4.1-6.3 6.1zm240.4-107.7c-7.5 7.3-7.4 7.2-.1 14.4 2.6 2.6 4.2 2.6 6.7.1 5-5 10.3-9.9 15.5-14.7 2.1-1.9 2.2-3.3 0-5.4-8.1-7.6-8-7.7-16.1-.1-.9.9-1.9 1.8-2.8 2.7l-.1-.1c-1 1.1-2.1 2.1-3.1 3.1zm-16.4-10.4c-4.6 4.5-4.6 4.5.2 9.2.7.7 1.5 1.3 2.1 2 2.1 2.7 3.9 2.9 6.6.3 5-5 10.2-9.8 15.5-14.6 1.9-1.7 2.3-2.9.3-5-7.5-8-7.4-8.1-15.5-.5-1.2 1.1-2.3 2.2-3.5 3.4l-.1-.1c-1.9 1.8-3.8 3.5-5.6 5.3zm250.1 309c.4-.4-.1-1.8-.4-2.7-1-2.7-2.2-5.3-3.3-7.9-2.4-5.5-2.4-5.5-6.7-1.4-1.5 1.5-3 2.9-4.5 4.4-4.9 4.6-4.9 8.5.1 13.4.7.7 1.4 1.4 2.1 2 7.7 7.8 7.7 7.8 15.2-.6-2.6-1.8-6.8-3-2.5-7.2zm-170.8 24.4c-20.3-10.5-40.5-21.1-60.8-31.6-.7-.4-1.5-.7-2.2-1.1-1.9-.8-2.7.6-3.4 1.8-.8 1.4.4 1.9 1.5 2.4 22.9 11.8 45.8 23.7 68.9 35.7.7-3.9-1.1-5.7-4-7.2zm51.1 121c3.6-3.8 9.4-6 10.5-12 .1-.5.7-1.2 1.2-1.4 6.6-2.6 11.2-7 13.9-13.3.7-1.5 2.6-.4 3.4-1.2 1-1 3.3-1.6 1.7-3.7-1.2-1.6-2.4-2.2-4.4-.5-11.3 9.9-22.9 19.7-34.2 29.6-4.4 3.9 1.5 4.4 2.6 6.9.2-3.7 3.9-2.9 5.3-4.4zm173.5-175.3c-9.5 10.1-19.1 20.1-28.7 30.1-1 1.1-3 1.8-2.2 3.8.4.9 1.3 2.2 2.6 1.8 1.6-.4 2.8-1.6 2.9-3.4 0-2.9 3.2-1.6 4.2-2.9 3.5-4.2 9.5-6.3 10.8-12.3.5-2.3 3.3-.7 4.5-2.1 3.4-4.1 9.1-6.3 10.3-12.1.4-2.1 3-.6 3.9-2-4-5.4-4.1-5.4-8.3-.9zM524.2 597c.8-.8 1.4-1.7 2.2-2.6 1.7-1.8.2-2.8-.9-3.9-1.2-1.2-2.2-1.7-3.6-.3-9.6 9.2-19.3 18.2-28.8 27.5-2.3 2.3.4 4.3.9 7.6 10.1-10.6 20.6-19 30.2-28.3zm-68.3-203.4c-2.8 3.4-7.5 5.5-7.7 10.9-.1 1.9-2.3 2.7-4.1 2.9-1.1.1-2.3-.4-3.1.7-.9 1.3-3.8 2-2.2 4 1.9 2.4 3.1-.3 4.2-1.3 6.2-5.7 12.4-11.4 18.5-17.2.8-.8 1.6-1.6 2.1-2.6 3.7-8.1 7.3-16.3 10.1-25.2-4.4 4.3-8.9 8.5-13.2 12.8-.4.4-1.1 1.4-.9 1.6 3.2 4.1-1.1 5.6-3.1 7.5-11.4 11.2-23 22.3-33.7 34.2l9.4-9.1c8.3-8 16.6-15.9 24.9-23.9 1.1-1 2-3.2 3.8-2.2 1.7 1-.9 2.1-.7 3.2.2.9.7 1.7 1.1 2.5-2.4-.9-3.9-.7-5.4 1.2zM628.8 500c-3.7-7.8-7.7-15.5-11.8-23.1-3.4-6.2-6.3-13-14.3-16.4 11.4 20.4 22.6 40.4 33.8 60.3.3-.1.6-.3 1-.4-2.9-6.8-5.6-13.7-8.7-20.4zm-55.7 190.4c-2.8-.5-4 2-5.3 3.7-1.2 1.5.7 2.5 1.6 3.6 9.3 10.5 9.3 10.5 19.4.7 1-1 2-1.9 3.8-3.6-7.1-1.7-13.2-3.2-19.5-4.4zm-29.4-229.5c-3.2 2.6-1.3 4.3 1.4 4.8 3.1.6 4.7 1.9 5.1 5 .4 2.6 2.1 3.9 4.8 1.7 6.3-5.1 6.5-11.5.3-16.8-4.4-3.7-6.2.5-9 2.8-.7.8-1.6 1.7-2.6 2.5zm-126.2-23.6c-1 1-3.3 2-1.7 3.8 1.8 2 2.9-.4 3.9-1.3 14-13.2 28-26.5 42-39.7 1.7-1.6 3-3.3 1.2-6.6-15.4 14.8-30.5 29.3-45.4 43.8zm262.7 173.6c1.9-1.7 2-2.9.1-4.6-2.9-2.6-5.7-5.3-8.5-7.9-.9-.9-1.8-2.1-3.2-.9-1.2 1-2.8 1.8-2.2 3.9 2 5.9 2.9 12 3.9 19.1 3.9-3.8 6.8-6.8 9.9-9.6zm-62.4 13.5c-4 3.9-6.8 8.4-4.5 14.9 6.9-6.7 13.5-13 20.6-19.9-7.2-2.4-12 .8-16.1 5zm-55.9-94.9c2.2 1.7 5.7 3.4 7.1.5 1.3-2.6 5.9-2.3 5-6.2-.4-1.7-.8-3.4-2.2-4.7-2.7-2.6-7.2-2.2-10 .7-2.9 3.1-3 7.3.1 9.7zm-32.2 138.2c-5.2-5.2-6.4-5-11.6.3-2.2 2.3-2.4 3.5 1.1 4.2 5.8 1.1 11.5 2.3 17.3 3.4.2-.3.3-.6.5-.9-2.4-2.3-4.9-4.6-7.3-7zM412.3 503c1.1 1 2.4 3 3.9.9 1.2-1.6 5.3-2.1 2.9-5.4-1-1.3-.6-2.2-.2-3.4.9-2.8-1.7-3.9-3.3-5.1-1.5-1.2-3.5-1.7-5.3 0-.6.6-1.2 1.1-1.8 1.6-3.5 2.4-4.3 4.9-.3 7.5.7.4 1.2 1.1 1.7 1.7.8.6 1.5 1.5 2.4 2.2zm0-64.6c-12.9 12.5-25.1 24.3-37.5 36.2 4.1-.3 36.5-31 37.5-36.2zm234.1 108.8c-.6.1-.8.1-.9.1-9 6.7-9 6.7-1.4 14.2 1.6 1.6 3.2 3.1 4.9 4.7-.2-6.6-.2-13-2.6-19zM436.9 416.5c.9-.9 2.2-1.7.6-3-1.2-.9-2-.4-2.9.5-5.8 5.6-11.7 11.1-17.5 16.6-.8.7-1.8 1.4-1.1 2.8 1.1 2 .1 2.3-1.6 1.6-1-.4-2.1-.6-2.5.5-.2.4.6 1.3 1.1 1.8.9 1 1.7.4 2.5-.3l10.8-10.5.1.1c3.5-3.4 7-6.7 10.5-10.1zm-89.4 69.6.4-.4-80.9-78.2c-.2.1-.3.3-.5.4 27.1 26.1 54.1 52.1 81 78.2zm29.2-182c25.7 26.4 53 51.2 79.6 76.9-26.8-25.4-52-52.3-79.6-76.9zm231.2 155.5c2-1.7.8-3.1-.1-4.5-3.7-5.8-10.4-9-13.9-15-.4-.7-1.1-1.2-2.1-.7-.9.5-1 1.5-.4 2 5 5.1 7.3 11.8 10.7 16.7 2.3 1.8 3.6 3.5 5.8 1.5zM307.6 525c-.2.1-.3.3-.5.4 24.7 23.9 49.4 47.8 74.1 71.6.2-.1.3-.3.5-.4-24.7-23.9-49.4-47.7-74.1-71.6zm212.7 129.4c-.2 2.1-.3 4.6 1.7 5.6 2 1.1 2.8-1.5 4.1-2.6 2.1-1.8 3.9-3.9 6-5.7 2.3-1.9 1.7-3.1-.8-3.9-3.2-1-6.2-.6-9.1 2.3-.9.9-1.7 2.5-1.9 4.3zm75.3-126.3c.8-1 3.3-1.9 1.8-3.2-1.5-1.2-4-2.8-6.2-.7-2.6 2.4-5.1 5-7.7 7.4-1.6 1.5-.6 2.4.5 3.5 1.2 1.3 2.3 2.2 4 .4 1.4-1.6 3-2.9 4.5-4.4l.1.1c1-1.1 2.2-2 3-3.1zm-283.8-31.6c.8-.8 2.4-1.8 1.1-3.1-1.1-1.1-2.2.2-2.9.9-6.1 5.7-12.2 11.5-18.3 17.3-.7.6-1.6 1.5-.6 2.4 1.1 1.1 2.2.3 3-.5 3.2-3 6.3-6 9.4-9l.1.1c2.6-2.7 5.4-5.3 8.2-8.1zm-52-94.8.6-.6c-19.8-19.1-39.5-38.2-59.3-57.3l-.6.6c19.8 19.1 39.6 38.2 59.3 57.3zM556 447.8c.3-.5.7-1 1-1.5-13.9-8.7-27.8-17.3-41.7-26-.3.5-.7.9-1 1.4l41.7 26.1zm34.9 187 .7.7c13-12.5 25.9-25.1 38.9-37.6-.3-.2-.5-.4-.8-.6-12.9 12.6-25.8 25.1-38.8 37.5zM365.4 492c3.4-3.4 7-6.7 10.4-10.1 1-.9 2.6-1.9.8-3.5-1.4-1.3-2.4-.2-3.3.7-4.5 4.3-9 8.7-13.8 13.3 2.6 1.4 4.3 1.2 5.9-.4zm60 148.2-.3.3c19 18.4 38 36.8 57.1 55.2l.3-.3c-19.1-18.4-38.1-36.8-57.1-55.2zm295.3-77.7c.2-.1.3-.3.5-.4-18.8-18.2-37.6-36.4-56.4-54.5-.1.2-.3.3-.4.5 18.7 18.1 37.5 36.3 56.3 54.4zm-528.4-146c-.3.4-.5 1.2-.3 1.7.3.7 1.1.7 1.6.2 7-6.7 13.9-13.4 20.9-20.2-.4-.4-.8-.8-1.2-1.3-7.3 6.2-14.5 12.5-21 19.6zm195.8 126c-.5.3-.9.5-1.4.8 8.8 13.6 17.5 27.1 26.3 40.7l1.5-.9c-8.7-13.6-17.5-27.1-26.4-40.6zm284.3-22.7c-5.3.5-7.3 4-9.5 6.3-2.2 2.4-4.5 4.5-7 6.6-2.5 2.1-6.4 3.8-6.2 9 7.7-7.5 14.7-14.2 22.7-21.9zM565 454c-.5.3-1.1.5-1.6.8 5.9 10.9 11.8 21.8 17.6 32.7.5-.3 1.1-.5 1.6-.8-5.9-10.9-11.8-21.8-17.6-32.7zM435.2 306.4c-2 1.9-4.1 3.7-6 5.6-.4.3-.5 1.2-.3 1.7.3.8 1.3.6 1.7.2 7-6.7 14-13.5 21-20.2l-1.5-1.5c-5.1 4.7-10 9.4-14.9 14.2zm54.8 321c.3-.5.5-.9.8-1.4-11.2-5.8-22.3-11.7-33.5-17.5-.3.5-.6.9-.9 1.4 11.1 5.8 22.3 11.6 33.6 17.5zm-25.8-279.1c8.6-5.6 15.6-12.9 22.9-19.8l-1.2-1.2c-7.2 7-14.5 14-21.7 21zm-9.7 260.6c.3-.5.5-1 .8-1.4-11.2-5.8-22.4-11.6-33.5-17.4-.3.5-.5.9-.8 1.4 11.1 5.7 22.3 11.6 33.5 17.4zM277.7 459.2l-1.2-1.2c-7.6 6.5-14.8 13.5-21.7 20.7l1.3 1.3c7.2-6.9 14.4-13.8 21.6-20.8zm123-172.5.8.8c7.1-6.9 14.3-13.8 21.4-20.7-.3-.3-.6-.5-.8-.8-7.1 6.9-14.2 13.8-21.4 20.7zm-16.3-54c-5.9 5.6-11.7 11.1-17.6 16.8-.7.7-2.3 1.5-1.3 2.6 1.2 1.3 2-.3 2.7-.9 6.6-6.3 13.2-12.7 20.2-19.5-2.6-.8-3.2.3-4 1zM250 432.6l-.8-.8c-7.2 6.9-14.4 13.9-21.6 20.8l.8.8c7.3-6.9 14.5-13.8 21.6-20.8zm90.7-163.7c8.8 10.2 19.1 19 28.9 28.2-8.1-10.9-19.3-18.8-28.9-28.2zm188.7 374.5.9.9c7-6.8 14-13.6 21-20.3-8.2 5.6-15.3 12.3-21.9 19.4zm63.5-66.2c2.5 2.5 4.3-1 5.7-2.6 1.5-1.7 6.4-3.1 3.2-6-2.8-2.5-3.5 2.8-5.8 2.9-1.1 2.3-5.9 2.9-3.1 5.7zm-258.7-393-.3.3c11.8 11.4 23.6 22.9 35.5 34.3l.3-.3c-11.9-11.4-23.7-22.8-35.5-34.3zM574 515.7c2.2 2.2 4.9 2.1 7.1.2 2.2-2 2.3-4.6.3-6.9-2.1-2.3-4.6-2-7.1-.1-1.9 2.2-2.6 4.5-.3 6.8zm-160.3-73.4-.2-.2-35.7 34.5.2.2 35.7-34.5zm152.9 259.2c2-1.6 2.3-2.8.4-4.5-1.7-1.6-3.6-3.3-2.5-6.3-3.9 2.2-3.7 4.8-.9 7.1 2.5 2.2 1.5 3.5-.4 5.2-3.5 3.2-6.9 6.6-10.4 10l.2.2c4.6-3.9 9-8 13.6-11.7zm111.8-108.6c-2.3 2.4-4.1 2.9-6.3.1-.6-.7-1.4-1.4-2.2-1.9-1.1-.6-1.9.3-2.5 1-1.2 1.4.5 1.2 1.1 1.6 1 .8 2 1.6 2.9 2.6 1.7 1.8 3.2 1.8 5 .1 4.7-4.6 9.5-9.2 14.2-13.8-.3-.3-.6-.6-.9-.8-3.7 3.7-7.6 7.3-11.3 11.1zm-117 14.6c2.4 2.3 4.1-1.5 5.5-3 1.5-1.6 6-2.9 3.3-5.6-2.9-2.9-3.7 2.2-6.1 2.7-.5 2.3-5.8 3-2.7 5.9zm7.2-15.4c-2.6-2.9-4.1 1-5.6 2.3-1.8 1.6-6.2 3.2-3.8 5.8 3 3 3.9-2.7 6.7-2.9.2-2.3 5.1-2.5 2.7-5.2zm26.1-25.2c-2.8-2.8-4.3 1.4-5.8 2.8-1.6 1.5-5.9 3.1-3.1 5.6 2.8 2.5 3.6-2.6 6-2.7.7-2.4 5.5-3.2 2.9-5.7zM148.8 371.5c-.1.1-.3.2-.4.4 10.5 10.2 21.1 20.4 31.6 30.6.1-.2.2-.3.3-.5-10.5-10.1-21-20.3-31.5-30.5zm257.5 130.9c.5.4 1.3.4 1.7-.2.8-1.1-.1-1.8-.8-2.4l-12.6-11.1c-.3.3-.6.7-.9 1 3.5 4.9 8.1 8.7 12.6 12.7zm152.5-96c-.7 4.5 4.3 5.1 5.6 8.5-3.2-.5-3.6-3.8-6-4.5 2.1 5.7 8.7 5.4 13.1 8.3-4.1-4-8.3-8-12.7-12.3zm-230.2-150c-7.1-6.8-14.2-13.7-21.2-20.5 7.2 6.8 14 13.8 21.2 20.5zm342.7 379c1.9 1 3.6 2.1 4.7 3.9.4.6 1.2.5 1.7.1.6-.4.8-1.2.3-1.7-2-2-.2-5.7-3.1-7-1.4-.6-2.4 2-4.3 1.7-.7 1.3-.1 2.5.7 3zm-126.1 41.9c-3.6-4.3-6.8-8.9-11.9-11.7 2.4 5.5 7 8.8 11.9 11.7zm39.1-242.5c.4-.4.7-.8 1.1-1.2-4.2-5.3-10-9.1-15.7-12.9 4.9 4.8 9.8 9.5 14.6 14.1zm-142.7 33.1c-7.1-6.5-13.3-13.7-20.9-19.6 5.9 5.7 11.8 11.5 17.8 17.2 2.3 2.2 4.2 4.4 3.4 7.8 2.1-2.1 1.5-3.7-.3-5.4zm-60.4-15.1c7.8-2.1 9.5-9.3 14.9-12.5-.3-.3-.6-.7-.9-1-4.4 4.3-8.9 8.6-14 13.5zm97.6 203.4c.2-.3.4-.6.6-1-6.6-3.5-13.3-7.1-19.9-10.6-.3.3-.5.7-.8 1 6.7 3.6 13.4 7.1 20.1 10.6zm-148.4-406c3.8.2 9.9-5.6 10.2-9.8-3.6 3.3-6.8 6.5-10.2 9.8zm-43 189.2c.2-.2.2-.9 0-1.3-.4-.7-1.1-.5-1.6 0-2.7 2.9-6.1 5.1-7.8 8.9 4.1-1.5 6.4-5 9.4-7.6zm363.3 134.4c.1-3.1-5.7-9.2-10.9-10.5 3.9 3.8 7.5 7.2 10.9 10.5zM179.9 394.9c2.6 2.1 4.1-1.9 5.8-3.4 1.6-1.4 5.5-3.3 3.5-5.2-2-1.9-3 2.8-5.2 3.1-1.4 2.3-5.5 4.3-4.1 5.5zm220.6 215.6c-2.1-4.3-5.7-7.3-9.6-10.1 2.4 4 5.2 7.8 9.6 10.1zm237.9-59.9c3.6-1 6.4-2.8 6.8-6.9-3 1.6-5.4 3.7-6.8 6.9zm-151.5 144 .9.9 9.6-9.3c-.4-.3-.8-.7-1.1-1-3.5 2.8-7 5.6-9.4 9.4zm-70.7-378.4c.6-.5.6-1.2 0-1.6-.6-.5-1.2-.1-1.7.3l-8.2 7.9c.4.4.8.7 1.2 1.1 3.5-1.8 5.8-5.1 8.7-7.7zm-62.1-87.5c4.1-1.8 6.8-5.1 9.3-8.5-4.3 1.7-7.4 4.5-9.3 8.5zM201.5 373.3c4.1 0 9.6-5.1 10.8-10.3-4.3 3.4-7.6 6.6-10.8 10.3zm73.4 70.6c4.2-1.8 7-4.9 9.3-8.7-4.1 2.1-6.9 5.2-9.3 8.7zM560.1 703c-4 1.9-6.7 5.3-9.3 8.6 4.2-1.9 7.1-4.9 9.3-8.6zM200.9 374.2c-4.3 3-7.3 6.3-10.9 10.2 4.7-.6 9.9-5.5 10.9-10.2zm347.9 339.5c-4.1 1.9-6.6 5.3-9.1 8.8 3.4-2.6 7.4-4.6 9.1-8.8zm-40-38.4c-3.4 0-8.6 4.5-9.6 9.3l9.6-9.3zM352.2 231.8c.1-.4-.1-1-.4-1.2-.6-.4-1.2 0-1.7.4-.4.3-.7.6-1.1 1-2.4 2.3-4.8 4.6-7.8 7.5 3.1-.3 10.6-6 11-7.7zm185.5 493c-4.1 1.8-6.9 5.1-9.5 8.5 4.2-1.9 6.8-5.2 9.5-8.5zM413.3 311.9c-4.1 1.7-6.8 5-9.3 8.5 4.2-1.8 6.7-5.2 9.3-8.5zm285.5 258.4c-3.9 1.9-6.7 5-9.1 8.5 3.8-2.1 6.9-4.8 9.1-8.5zM402 516.2c3.9-1.7 6.6-4.7 8.9-8.2-3.9 1.7-6.5 4.9-8.9 8.2zm308.4 43.6c-.2-.2-.4-.4-.6-.7l-9.2 8.9.6.6c3.1-2.9 6.2-5.9 9.2-8.8zm-176.4 92c-3.3 3.2-6.6 6.4-10 9.6 4.2-2.4 7.7-5.4 10-9.6zm144.6-62.4c3.7-2 6.8-4.6 8.8-8.3-3.8 1.9-6.5 4.9-8.8 8.3zM485.7 698.7l-.3.3c5.2 5 10.4 10.1 15.6 15.1l.3-.3c-5.2-5.1-10.4-10.1-15.6-15.1zM327.1 384.5c.5-.5 1.4-.9 1.1-1.9-.3-.8-1.4-.8-1.5-.5-.3 1.1-2.7-1.4-1.9 1.1.1.4-.6 1.5-.9 1.4-4.2-.5-1.4 2.4-2.3 3.4.4.2.8.4 1.1.7 1.5-1.3 3-2.7 4.4-4.2zm230 304.9c-2.4-2.5-3.1-6.8-8.1-6.2 4.2.2 3.6 6.1 8.1 6.2zm100.4-110.9c.9 3.9 3.1 6.8 8.1 9-2.1-4.6-6.5-5.5-8.1-9zM384.8 605c1.6-1.6-.9-2.6-1.7-3.7-.7-1.1-1.8-2.3-3-.9-1.1 1.3.3 2.2 1.2 3.2 1 .7 2.2 2.7 3.5 1.4zm-81.3-374.3.3-.3c-4.4-4.3-8.9-8.6-13.3-12.9l-.3.3c4.4 4.3 8.8 8.6 13.3 12.9zm-124 93.7-.2.2c4 3.9 8.1 7.8 12.1 11.7 0-.1.1-.2.1-.2-3.9-3.9-8-7.8-12-11.7zm-18.1 64.1c-1.3 1.3.3 2.3 1 3.2.9 1 2.2 2.6 3.6 1.4 1.7-1.4-.4-2.4-1.1-3.4-1-.9-1.9-2.8-3.5-1.2zm358.2-27.2c1.1-1.4-.5-2.5-1.4-3.5-.9-.9-2-2.3-3.2-1-1.8 1.9 1.1 2.3 1.6 3.6 1 .4 1.7 2.5 3 .9zm-171 1.7c3.1-1.4 4.8-3.6 6.1-6.2-2.1 1.9-6.8 1-6.1 6.2zm358.1 181.5c1-1.4-.9-2.1-1.6-2.9-.7-.7-1.5-2.4-2.6-1.3-1.4 1.4.2 2.5 1.3 3.6.8.6 1.8 2.2 2.9.6zm-9.6-9.1c1.6-1.5-.5-2.4-1.3-3.4s-2-2.3-3.2-1.2c-1.6 1.5.8 2.2 1.3 3.3 1 .9 1.9 2.6 3.2 1.3zm-223.3 156c1.2-1.3-.4-2.3-1.3-3.1-.9-.8-1.8-2.5-3.1-1.3-1.7 1.5.6 2.3 1.2 3.4.9.8 1.9 2.3 3.2 1zm-58.4-266.1-8.6 8.3c4-1.5 6.5-4.7 8.6-8.3zm-89.8 121.4c1.2-1.3-.4-2.3-1.3-3.1-1-.9-2.1-2.6-3.6-1-1.2 1.3.6 2.1 1.3 3.1 1.2.6 2 2.8 3.6 1zm253.1-127.5c1-1.6-.8-2.5-1.7-3.4-.7-.7-1.8-2.1-2.7-.8-1.5 1.9 1.3 2.4 1.6 3.5 1 .7 1.9 2.2 2.8.7zm49.3 48.2c1.2-1.3-.4-2.2-1.3-3-.8-.8-1.8-2.4-3.1-1.1-1.3 1.3.7 2 1.3 3 1 .5 1.7 2.5 3.1 1.1zM588.6 429c1.2-1.3-.3-2.3-1.2-3.1-.9-.9-1.9-2.4-3.2-1.2-1.6 1.5.7 2.3 1 3.3 1.2.8 2.1 2.4 3.4 1zm29.7 29.1c1.5-1.3-.2-2.5-1.1-3.5-.9-.9-2-2.3-3.2-1.1-1.6 1.5.7 2.2 1.3 3.3 1 .5 1.6 2.6 3 1.3zM355.2 575.6c1.1-1.1-.3-2.4-1.2-3.2-.9-.8-1.9-2.3-3.2-1.1-1.4 1.3 0 2.2.9 3.1 1.1.6 2 2.8 3.5 1.2zm238.7-141.5c-1.4 1.2 0 2.3 1 3.1 1 .8 1.9 2.9 3.5 1.3 1.2-1.2-.4-2.2-1.2-3.1-1-.9-2-2.4-3.3-1.3zm-283.1 98.7c-1.4 1.4.5 2.2 1.3 3 .8.9 1.8 2.3 3.2 1.1 1.7-1.4-.4-2.1-.7-3-1.3-.7-2.2-2.6-3.8-1.1zm173.1 168.3c1.1-1.1-.4-2.3-1.3-3.1-.9-.8-1.9-2.3-3.2-1.1-1.5 1.3.4 2.1 1.1 3.1 1 .6 1.8 2.8 3.4 1.1zm-20-19.3c1.4-1.5-.6-2.4-1.5-3.3-.8-.8-1.8-2.4-3.1-.9-1.1 1.4.8 2.1 1.4 3 .9.8 2 2.4 3.2 1.2zm-9.8-9.5c1.7-1.5-.6-2.3-1.4-3.2-.7-.8-1.5-2.7-3-1.2-1.2 1.2.3 2.2 1.2 3.1.9.9 1.9 2.5 3.2 1.3zm-20-19.5c1.3-1.6-.7-2.4-1.6-3.4-.7-.7-1.6-2.2-2.7-1.1-1.5 1.4.2 2.5 1.1 3.5 1 .7 2 2.4 3.2 1zm-9.4-9.5c1.2-1.2-.7-2.1-1.5-2.9-.9-.8-1.8-2.9-3.3-1.4-1.1 1.1.5 2.2 1.3 3.1 1 .8 2.1 2.6 3.5 1.2z"/><path d="M521.8 511.4c1.7.7 2.7.5 1.6-1.4-1.1-2-2.6-3.8-2.3-6.3 1.1 1.9 2.3 3.8 3.4 5.7.4-.1.7-.2 1-.3 2.2-1.3 2-5.7 6-4.5 4.5 1.3 8.1 6.2 7.8 10.6-.2 2.5.7 3 3 2.8 3.1-.3 5.4-1 9.9-3.8-3.6 0-6.8.2-9.3-2.3-2.9-2.9-4.1-6.1-2.7-10 1.4-3.7 4.2-5.5 8.3-5.7 3.7-.2 7.6-2.5 11 .7-.1 2.5-.2 5 1.1 7.3-.7 5.9-5.4 9.1-9.8 13.1 6.7-1.6 8.3-7.3 11.7-11.2h-.1c-1 7.2-8.4 13.8-17.3 15.2-3.4.6-7.3 0-8.9 4.3-.6 1.7-2.2 1.1-3.8.6-2.8-.8-5.8-1.8-8.3.7-1.9 1.8-4 1.7-5.8.5-1.9-1.3-1.5-3.2-.8-5.2 1.3-3.9.2-7-3.4-9.4-6.2-4.2-12.2-8.7-18.2-13.1-1.6-1.2-2.9-2.4-5-.5-1.4 1.2-3.2.6-4-1.3-.8-1.7 3.7-8.6 6-9.1 1.6-.4 3 0 3.6 1.7.1.4.3 1.1.1 1.4-1.8 2.9.6 4 2.3 5.3 6.3 4.5 12.8 8.9 19.1 13.6 1.4 1 2.5 1.2 4 .9l-.2-.3zm7.2 6.6c3.8 2.7 6.2.7 8.2-2.4 2-3.2.4-4.8-2.2-7.1-3.8-3.3-6.1-2.7-8.1 1.4-1 2.1-3.6 3.2-3.8 5.8 1.4 2.4 2.7 4.7 5.9 2.3zm23.2-14.1c-1.2-.1-2.4-1.5-3.5-2.3-.9-.7 1.4-3.1-1.3-2.6-2.1.4-3.8 1.6-4.6 3.9-.6 1.8-.5 4.8.2 4.8 2.7.1 3.9.7 5.1 3.3.5 1.1 3.9 0 5.7-1.8.9-2 4.4-4.7-1.6-5.3zm-34.4 9.9c.3-.4.7-.9 1-1.3-7.9-5.7-15.8-11.3-23.7-17-.3.4-.7.9-1 1.3 7.9 5.7 15.8 11.4 23.7 17zM501.1 539.8c-2.4-1.3-2 0-1.5 1.4-.3.5-.7 1-1 1.6-1.1 2.2.8 5.9-3.2 6.5-4.8.7-10.2-2.1-11.5-5.9-1-2.7-2.1-2.6-4.3-1.4-6.5 3.6-9 9.4-9.8 16.1-2.2.9-1.2 3.5-2.7 4.7-2-7.7 0-14.3 5.5-20.2 2.7-2.9 6.5-4.1 9.3-6.8.7 1 1.4 2.1 2.1 3.1 1.3-.9-.3-2.7.9-3.4 2-1.2 2.4-2.8.7-3.9-2.4-1.4-2.5 1.6-3.8 2.5-.2-2.5 0-4.2 3.5-4.2 2.9 0 5.8-1.1 7-4.2.8-2.1 2.3-3 4.6-2.7 2.3.4 3.2 1.8 3.3 4 .3 4.2 2.9 6.3 7 7.1 2.5.5 5.3.3 7.4 2-3.9.8-7.5-1.5-11.4-.7 9.3 3.3 19.3 3.6 28.6 6.5v.3c-9.6-1.5-19.2-3.1-29.1-4.6.7 2.2 2.4 2.7 3.4 3.9 2.5 3 6.1 5.5 5.2 10.1-2-4.8-5-9.1-10.2-11.8zm-11.1-3.1c-4.2-.3-4.5 2.7-4.7 5.6-.2 3.2 1.8 4.2 4.8 4.7 6.2 1.1 6.2 1.2 7.2-4.8.3-2 1-4 1.1-6 .2-4-3.5-2.4-5.4-3-2.7-.9-2.4 1.1-2 2.8-.4.2-.7.4-1 .7zm-21.2 16.4c2.6-6.1 6.7-10.9 12.8-14-7 1.4-11.9 6.7-12.8 14z"/><path d="M469.8 558.2c-2.2.9-1.2 3.5-2.7 4.7 1.5 8.5 8.5 15.6 16.5 16.9-4.7-3-10.6-4.8-12.2-11.1 3.1 5.6 8.8 7.6 14.3 10 3.4-.7 7.3 1 10.3-1.7v.1c-3.8-.3-7.6.8-11.9-.4 2.5-2.1 2.4-3.4 0-5.5-5.8-4.9-5.6-5.4-.2-10.4.5-.4.9-.9 1.4-1.3 4.5-4.3 4.9-4.3 9.3.3 1.8 1.8 3.2 4.3 6.7 1.9-3.1 5.3-8.1 8.5-11.5 13.1 3.9-3.4 7.6-7 11.4-10.5.9-.8 2-1.5 1.1-2.7-.7-1-2.3-2.8-2.8-2.1-2.5 3-3.2-.1-4.3-1-5.3-5-5.3-5-10.6 0-.8.8-1.7 1.5-2.5 2.3-5.5 5.2-5.4 5.3-.5 10.8.7.8 3.2 1.3 1.6 3.1-1.4 1.6-2.8.6-4.3-.3-6.3-3.8-8.1-9.8-9.1-16.2zM539.8 476.7c-9.9-.7-16 4.9-20.1 12.5-4.1 7.5-3.7 15.3 2.3 22.2h-.2c-1.6-4.6-3.6-9-3.3-14 .6-8.3 7.1-16.6 14.2-17.3-8.5 4.4-13.6 10.5-12.4 20.2 1.3-7 3.4-13.5 10.2-17.5 5.2-3.1 10.8-2.9 16.5-2.5v.1c-2-2.1-4.8-1.3-7.2-1.6-3.5-.7-.1-1.5 0-2.1zM531.7 542.6c1.9 1.5-.2 5.8 3.8 5.4 4.2-.4 2.6-4.4 3.6-6.8.7-1.8 1-3.9-1.2-5-2.2-1.2-3.3.2-4 2-.8 1.8-2.2.8-3.4.6-4.5-.6-8.9-2.2-13.5-2 4.1 2.5 9 1.9 13.4 3.2 1.1.3 3.7.1 1.3 2.3v.3z"/><path d="M512.5 562.4c-2.7 2.9-2.6 7.5-7.2 10.6 3.2-5.6 6-10.3 5-15.9-2.6 3.3.6 9.6-6 10.9.6 5.9-5.6 6-8.2 9.2v-.1c3 1 4.6-2.8 7.9-2.2-3.7 3.4-8.1 4.4-12.4 5.4 8.8 1.5 19.6-7.6 20.9-17.9zM559.5 496.7c-.1 2.5-.2 5 1.1 7.3 1.2-.8.1-2.7 1.6-3.5 1.4 1.9-.8 3.7.3 5.4h-.1c2.5-3.7 2.6-7.6.8-11.6-1.2.8.7 2.9-1.4 3.4-2.3-10.6-7.2-16.3-14.8-17.4v-.1c.7 1.2 2.1 1.3 3.2 2 5.4 3.4 10 7.4 9.3 14.5z"/><path d="M543.3 476.7c3.8 2.2 8.3 2.6 11.8 5.6 4 3.4 5.8 8 8.1 12.3-.4-9.1-9.8-17.5-19.9-17.9zM294.4 301c-2 .8-1.8 2.3-1.4 3.9 2.9 12.2 19 20.8 30.7 15.5 6.2-2.8 11.2-8.1 14.5-13.8 3-5.2 2-11.5-.4-17.1-4.8-11.4-19.1-16.8-31.5-11.7-5.3 2.2-9.2 6-11.8 11-.6 1.2-2.2 2.7-.1 4.1.3-.8.7-1.5 1-2.3 2.3-6.4 6.8-10.6 13.8-12 4.1-.6 8.3-1.9 12.4 0 .4-.1.7-.2 1.1-.3 8.1 1.9 14.5 8.8 15.5 16.5.1 1.1.4 2.3-1.1 2.8 1.3 2.4-.9 3.9-1.5 5.8-3.4 11.1-11.6 15.1-22.8 14.8-2.1 1.7-4.2 1-6.2-.2-6.5-1.9-10.2-6.1-11.5-12.5 0-.8 0-1.5.1-2.3-.3-.7-.5-1.5-.8-2.2zM241.2 357.6c1.8 7.7 7.6 11.9 14.7 13.8 7.1 1.9 14.4 2.2 20-4.1 3.7-4.1 9.2-6.9 10.2-13 .3-1.9 1.1-3.9-1.6-4.8h.2c-1 6.1-4.2 11.4-9 14.8-5.1 3.6-11 7.2-18.2 5-1.6 1.5-3 .4-4.5-.3-5.5-2.2-8.7-6.8-11.8-11.4z"/><path d="M321.6 278.5c-4.1-1.9-8.2-.6-12.4 0-5.4 3.1-10.5 6.6-13.8 12-.3.8-.7 1.5-1 2.3-.1 2.4-2.2 4.7-.3 7.2.7 0 1.4 0 2.1.1-.9-15.4 10.9-20.2 21.9-19.5.9-.3 1.8-.7 2.7-1 .3-.4.6-.7.8-1.1zM268.8 327.6c4 2.7 8.9 4.2 11.8 8.3 1.8 2.6 4.5 4.8 3.2 8.5l.3 1.8c.2 1.1.4 2.3.7 3.4h-.2c2.1-.6 2.1-2.1 1.9-3.8-1-8.5-8.5-16.4-17.7-18.2zM256.8 327.9c-8.9 1-16.6 9.2-17.2 18.3 1.9-1.9 1.2-5.2 3.8-6.7-.5-1.5.8-2.2 1.6-3.2 3-4 7.5-6 11.8-8.4zM284.2 370.1c2-1.6 2.7-2.9 1.1-4.4-2-1.8-3.1-.1-4.4 1.1-1.4 1.3-2.6 2.6-.5 4.2 2.1 1.8 3.1-.3 3.8-.9zM334 316.3c-1.6 1.1-2.8 2.1-1.1 3.9 2 2 3.1.2 4.4-.9 1.3-1.1 2.4-2.3.8-3.9-2-1.9-3.2-.2-4.1.9zM356.4 298.2c-.7 1.4-.6 2.7.5 3.7.9.9 2.2.9 3.1.1 1.2-1 1-2.3-.1-3.4-1-1-2.3-.8-3.5-.4z"/><path d="M296.3 300c-.7 0-1.4 0-2.1-.1.1.3.2.7.3 1 .2.8.4 1.5.7 2.3.3.2.7.3 1 .5 0-1.2 0-2.4.1-3.7zM507.2 432.3c-2.5-.6-3.3 2.3-3 2.6 3.1 3.2-.5 4.9-1.6 7-1.6 2.9-.8 4.8 1.8 6.4 1.2.8 2.5 1.5 3.8 2.2 7.8 4.9 7.8 4.9 13.1-2.4 1.1-1.5 1.3-2 3-.5.7.7 2-1.1 2.3-1.9.7-1.9.3-4-.4-5.8-.3-.9-1.6-.7-2.6-.2-.7.4-1.5.5-2.2.8v-.2c.9 2 4.4 2.1 4.5 5.1-5.1-1.4-5.3-1.6-9.5 4.4-1.9 2.7-3.2 2.4-5.3.9-.9-.7-1.9-1.2-2.9-1.8-4.8-2.9-5.3-4.3-2.4-8.5 1.5-2.2 3.9-4.2.6-6.8-.1-.1.6-1 1-1.5-.2 0-.2.2-.2.2zM468.8 423.5c1.4-1.3 2.9-2.6 4.1-4 1.4-1.5 1-3.2 0-4.8-1.4-2.2-6-2.7-3.9-7.2.4-.9-1.7-.2-2.4.6-1.1 1.2-2.1 2.5-.6 4.2 2.2-2.2 2.6.6 3.6 1.3 3.4 2.4 3.6 5 .1 7.6-.4.3-.7.7-1.1 1-6.8 6.4-7.1 6.5-12.9-.8-1.4-1.7-2.1-1-2.8-.2-.7.8-2.8.8-2.1 2.2 1.1 1.9 1.7.4 2.7-.6.7-.7 1.3.4 1.9.9 7 5.6 7 5.6 13.4-.2z"/><path d="M521.2 440.4c-2-2.4-5-3.5-7.5-5.2-1.2-.8-2.8-1.1-2.6-3 .1-1.2 0-2.2-1.6-2.4-1.9-.2-1.8 1.4-2.4 2.5v-.1c4.5 2.9 8.8 6.3 14 8.1l.1.1zM458.2 413c2.2-2.1 4.2-4.5 6.6-6.3 2.2-1.6.7-3 .3-4.4-.1-.4-1.1-.7-1.6-.6-.5.1-1.1 1.2-1.1 1.3 3.9 4.6-1.9 5.4-3.3 7.9-.4.6-1.1 1.1-1.6 1.6.2.2.5.3.7.5zM362.1 395.5c1.9-2.3 6.6-2.2 8.9-.1 2.8 2.6 2.9 6.5.2 8.9-2.9 2.5-5.9 2.1-8.8 0-2.6-3-2.6-6-.3-8.8zm7.4 7.1c1.6-1.5 1.6-3.4 0-5-1.5-1.5-3.3-2.1-5.2-.6-1.9 1.6-2 3.4-.6 5.3 2 1.7 4.1 1.9 5.8.3zM379.2 440.9c-2.2-1.9-4.2-2.2-5.8-.7-1.6 1.6-2.1 3.9-.2 5.5 1.8 1.5 4.7 2.7 6.7 1 2.4-2-.8-4.1-.7-5.8zM408.9 406.3c-1.7 1.9-2 4.1-.2 5.6 1.8 1.4 4.6 3.1 6.6 1.2 1.9-1.8.5-4.7-.9-6.5-1.3-1.8-3.6-1.7-5.5-.3zM374.9 333.1c-1.6 1.6-3.1 3.4-4.9 4.7-3.1 2.2 0 5.4-1.5 7.9-.3.5 1 1 1.4.7 3.1-2.2 4.2.7 5.7 2.2 4.4 4.3 9.9 7.4 13.7 12.3 3 3.8 6 7.7 9.8 10.8 1 .8.5 1.6.1 2.5-.4.9-.4 2.4.8 2.2 6.6-1.2 7.8 5.1 11.6 7.6 1.7 1.1 5 2.5 2.7 5.9-.4.6.5 1.7 1.4 1.4 5.3-1.8 6 3.7 9.1 5.4.9.5 1 1.4 0 2.4-.9.9-1.3 2.3 0 3.4 1.2 1 2.3.7 3.6 0 1.9-1 2.7-.7 1.5 1.5-.5 1-.3 1.9.9 2.2.7.2 1.4.1 1.7-.6 2.6-5.9 8.5-9.1 12.7-13.6 2.3-2.5 2.4-3.8-.1-6.2-19.5-18.7-39-37.5-58.2-56.4-3.3-3.2-5.4-3.3-8.1.1-1.2 1.3-2.6 2.5-3.9 3.6 0 .1 0 0 0 0zM524.7 611c-1.1 1.3-2.5 2.7-1.3 4.1 1.3 1.4 2.9.3 4.1-.8 1.2-1.1 2.6-2.4 1.2-4-1.4-1.7-2.8-.2-4 .7zM398.7 461.1c-1.4 2.6-.6 5 .9 6.7 1.4 1.7 3.8 2 5.6.3 1.7-1.5 1.4-3.7-.1-5-1.6-1.6-3.8-2.7-6.4-2zM224.9 428.1c1.4-1.7 2.3-3.9 0-6.3-2.5-2.4-5.2-2-7.4.1-2.1 2-2.3 4.7 0 6.8 2.1 2 4.6 1.9 7.4-.6zM280.4 490c2.7 2.1 5.3 2 7.6-.2 2-1.9 2.3-4.2.3-6.4-2.3-2.5-5-2.4-7.4-.3-2.1 2-2.2 4.5-.5 6.9zM390.8 256.1c-2.2 2.4-2.3 4.8-.1 6.9 2.2 2.1 5 1.9 7.1 0 2.4-2.2 2.3-4.8-.2-7.1-2.5-2.4-4.7-1.3-6.8.2zM461.2 317.3c-2.2-1.8-4.7-2.2-6.9-.1s-2.8 5-.5 7.2c2.2 2.1 5.3 1.9 7.5-.2 2.2-2 2.1-4.5-.1-6.9zM594 636.4c.3.7.4 1.5.9 2.1 4.7 5.2 4.7 5.2-1.7 6.8 3.1.5 6.1.2 9.5-.7-3.6-2.4-6.3-5.1-8.7-8.2zM550.3 635.7c-3.8 1.6-6.4 4.2-8.2 7.7 3.7-1.5 6.1-4.4 8.2-7.7zM410.1 496.1c.8 1 2.1 1.9 2.3 2.9 1.5 7.6 3.4 1.4 5.3.4-2.7-.8-4.8-2.6-7.6-3.3zM435.2 479.5c-2.7 3-4.8.3-7.7-1.3.6 2.8 3.7 3.9 2.7 6.7-.2.6 1.4 1.1 2.7.4 2.5-1.5 1.5-4 2.3-5.8 0-.1 0 0 0 0zM575.8 514.3c1.4.9 3 .9 4.1-.3.9-1 .6-2.5-.3-3.5-1-1-2.4-1.1-3.5-.1-1.4 1.2-1.2 2.6-.3 3.9zM529 518c-1.3-2.7 2.3-4.6 1.6-8.1-2 3.2-4.8 4.4-7.4 5.8 1.3 2.4 2.6 4.7 5.8 2.3zM490 536.7c.3.4.5.9.9 1.1 1.9.9 3.8 2.1 5.8.4.6-.6 1-2 .1-2.5-1.8-1-3.9-1.7-5.8.2-.4.3-.7.5-1 .8zM312.8 318.2c-8.4-1.8-13.6-6.9-16.7-14.4-.3-.2-.7-.3-1-.5 0 .8 0 1.5-.1 2.3 3 4.9 6.6 9.2 11.5 12.5 2.1 1.1 4.2 1.8 6.3.1zM333.7 292.9c1.3.8 2.1 2 2.4 3.5 1.5-3.2-.7-5.6-1.9-8.3-2.3-5-7.6-6.6-11.5-9.8-.4.1-.7.2-1.1.3-.3.3-.5.7-.8 1 4.6 1.5 8.4 4.1 11.3 7.7 1.3 1.5 3.6 3.1 1.6 5.6zM254.7 368c-3.7-2.8-7.6-5.3-9.9-9.6-4.5-8.7-.6-22 8.3-25.5 4.1-1.6 8.7-2 13.2-2 .3-.4.6-.7.9-1.1-2.8-1.4-5.8-.3-8.7-.7-6.6 1.5-10.9 6.1-15.3 10.5-1.2 4.7-2.3 9.4-1.7 14.3 2.8 6.1 5.5 12.2 13.2 14.1z"/><path d="M267.3 329.8c-.3.4-.6.7-.9 1.1 8.4 1 13.4 5.7 15.9 13.2.3 1 .9 1.7 1.7 2.2l-.3-1.8c-2.8-7.7-7.5-13.4-16.4-14.7z"/><path fill="none" d="m303.518 129.516 70.71-70.71 424.26 424.26-70.71 70.71z"/><path d="M449.6 213c-3.7 5.5-2.4 10.6 2.6 15.6 4.7 4.7 8.4 5.2 11.5 2.1 3.5-3.5 2.4-7.1-3.9-17.4-11.8-19.3-9.2-28-2.1-35.1 8.8-8.8 22.7-9.7 37.3 4.9 15.2 15.2 13.7 29.2 6.2 38.2l-14.9-14.9c2.4-3.2 3.8-7.5-1.6-13-3.5-3.5-7-4.4-9.9-1.5-2.9 2.9-2 5.9 4.1 16 12.2 20.3 9.5 29.3 2.1 36.8-9.9 9.9-24.4 9.1-39.8-6.3-14.5-14.5-15.5-29-6.5-40.3l14.9 14.9zM539.8 229.9l-32.3 32.3c-7.5 7.5-6.4 13.8-1.7 18.5 5.1 5.1 11.1 4.9 18.1-2.1l32.3-32.3 15.5 15.5-30.8 30.8c-17.5 17.5-33.1 12.5-46.5-1-13.9-13.9-17.9-29.2-.8-46.3l30.9-30.9 15.3 15.5zM534 329.3l35.3-35.3c-2.8-1.7-6.4-4.8-8.3-6.7l9.7-9.7c5.9 4.5 12.7 6.1 18.3 5.9l10.5 10.5-50.4 50.4-15.1-15.1zM634.7 351.5 614.2 331c-1.7 1.3-6.7 4.9-8.1 5.9 3.2.6 6.8 2.5 10.9 6.6 10.5 10.5 9 23.3-.4 32.7-10.4 10.4-25.2 12.3-39.3-1.8-12.3-12.3-13.1-25.4-5.3-35.3l14.3 14.3c-2.2 3.6-2.6 7.3.9 10.8 4 4 8.9 2.6 13.5-2s6-9 1.6-13.4c-3.5-3.5-6.7-3.3-9.9-1.9l-11.8-14.2c7.3-4.9 25.2-18.1 33.1-24.5l34.1 34.1-13.1 9.2zM603.6 398.9l1.3-1.3c10.4-10.4 21.9-12.3 38.2-9.6 12.5 2.1 16 2.4 19.7-1.4 3.5-3.5 3.9-6.9.7-10.1-3.9-3.9-7.7-2.5-12.2 1.2L637.6 364c8.4-7.4 22-11.8 36.7 2.9 14.2 14.2 11.4 26.8 3.3 34.9-6.8 6.8-13.4 7.8-28.8 4.6-8.8-1.7-13.5-1.8-16.2-.9l22.2 22.2L642 437l-38.4-38.1z"/><path fill="none" d="M.3.4h1000v1000H.3z"/><path fill="none" d="M100 599.9h400.2v300H100z"/><path d="M135.1 899.9V793.6c-6.6 3.1-18.6 5.6-25.7 6.2v-23.1c13.5-2.5 27.1-10.1 35.2-19.1h21.8v142.3h-31.3zM292.7 783h-56.9c-.9 7.6-3.4 21.2-4.3 27.1 5.3-4.4 13.4-7.6 25.6-7.6 28 0 43.8 20.2 43.8 47.3 0 27.5-15 52.7-53.4 52.7-28.1 0-48.8-14.4-51.9-39.8h30.8c2.7 9.8 9.6 16.1 21.7 16.1 14.7 0 21.7-10.8 21.7-26.5 0-14.8-5.5-25.4-21.8-25.4-13.2 0-18.6 5.7-21.8 14.2l-27.9-3.6c3.8-18.1 9.9-60.2 12.2-79.8h86.6l-4.4 25.3zM315.7 899.9v-2c0-24.7 11.1-44.9 41.9-67.3 20.1-14.7 26.1-19.7 26.1-32.1 0-12.3-6-19.2-17.9-19.2-13.9 0-18.9 8.5-20.9 20.9h-29.8c2-24.5 18.1-45 50.7-45 36.5 0 49 21.7 49 43 0 20.7-8.9 30.7-35.1 49.1-17.5 12.3-24.6 20.4-27 26.8H420l-3.8 25.8H315.7z"/><path fill="none" d="M600.4 100.3h300v300h-300z"/><path d="M782.9 217c0-18.2 12.7-29.3 23.2-34-10.9-6.8-17.6-15.3-17.6-29.7 0-24.1 17.7-40.1 49.6-40.1 29.2 0 48.5 15.2 48.5 39.7 0 16.4-8.4 24.4-18.1 28.5 10.2 3.8 23.2 15.8 23.2 34.6 0 29.3-23.4 44.5-55.8 44.5-29 0-53-15.3-53-43.5zm78-1.3c0-14.1-9.7-20.6-23.6-20.6-15.5 0-23.4 8.4-23.4 20.4 0 12.6 9.5 21 23.9 21 13.5 0 23.1-6.4 23.1-20.8zM818 154.4c0 9.6 6.9 16.1 19.9 16.1 12.6 0 19.5-4.9 19.5-16 0-10.8-7.1-17.4-19.8-17.4-13-.1-19.6 6-19.6 17.3z"/><path fill="none" stroke="#000" stroke-miterlimit="10" stroke-width="9" d="M112.3 739.9h311.5"/><path fill="none" d="M100.2 99.9h199.7V300H100.2z"/><path d="m210.4 150.9-3.7 32.7 23.8-20.9 11.6 19-31.5 12.6 31.3 12.6-11.4 19-23.8-21.2 3.8 32.9h-20.9l3.7-32.8-23.6 21-11.4-19 31.1-12.8-31.3-12.4 11.6-19.3 23.4 21.3-3.5-32.7h20.8z"/></svg>