<svg xmlns="http://www.w3.org/2000/svg" xml:space="preserve" baseProfile="tiny" overflow="visible" version="1.2" viewBox="0 0 1000 1000"><path fill="#FFF" d="m173 282 115-105 340 339-112 121-347-347M649 553l6 34-71 70-36 5-32-23 112-121z"/><path d="m236.7 248.3-16.1-16.1c-4.4-4.4-9.7-3.8-13.2 1.3-4.4 6.4-9.4 12.3-16.4 16.2-3.6 2-4 7.7-1 10.8 5 5.2 10.2 10.3 15.3 15.4.9.9 2.4 2 1.4 3.3-1 1.4-2.5.3-3.6-.3-5.1-3-10.2-6-15.1-9.3-3.2-2.1-5.6-2-8.5.8-8.8 8.4-8.9 8.3-2.2 18.6 1.2 1.9 2.4 3.9 3.8 5.7 3.2 4 4.8 7.5-.2 11.6-3.2 2.6-.6 5.3 1.3 7.3 6.6 7 13.7 13.7 20.6 20.4 10.4 10 19.8 21.1 30.3 31 13.4 12.7 26.1 26.1 39.2 39.1 17.6 17.4 35 34.9 52.5 52.4 56.9 56.9 113.8 113.9 170.6 170.8 7.3 7.3 15.1 8.6 23.9 3.5 3.4-1.9 5.7-4.8 6.5-8.9 1-4.7.5-11.4 9-9 .8.2 2.2-1.2 3.3-2 1.4-1.1 2.8-2.4 4.4-.6 1.6 1.7.4 3.2-.9 4.5-5 5-10 10-15 14.9-1.4 1.3-2.6 2.8-4.1 4-4 3.2-3.3 6.2 0 9.5 5.7 5.6 11.3 11.3 16.9 17 2.3 2.4 4.9 3.4 8.2 3.3 7.6-.2 15.2-.3 22.9-.3 5.9 0 10.7-2.2 14.8-6.3l65-65c3.8-3.8 5.9-8.3 5.8-13.8 0-1.7-.3-3.5.1-5.1 6.1-21.8-9.4-32.8-22.5-45.1-2.6-2.5-4.5-.6-6.3 1.1-5.8 5.8-11.6 11.6-17.4 17.3-1.1 1.1-2.2 2.1-3.3 3.2-1.3 1.1-2.7 1.6-4 .1-1.1-1.2-.7-2.5.2-3.6 1.8-2.2 4-3.5 2-7.6-1.1-2.4 4.2-4.8 7.4-5.6 10-2.6 9.9-3.8 12.9-12.8 2.9-8.6-.7-13-6-18.3-48.9-48.9-96.9-98.6-146.2-147.1-17.3-17-34.3-34.4-51.5-51.6-18.1-18.2-36.7-35.9-54.2-54.6-11.8-12.6-25.3-23.5-36.7-36.5-7.3-8.3-15.2-15.8-23.3-23.2-2-1.8-3.6-3.5-6.9-3-4 .7-5.6-3.4-8-5.6-6.9-6.5-10.6-6.1-15.7 2.2-1 1.6-2.4 2.9-3.8 4.3-11.6 11.8-22.9 24-35 35.2-3.3 3-7.1 5.3-9.5 9.4-1.8 3-1.7 5.2.8 7.5 2.9 2.7 5.6 5.5 8.3 8.3.2.4-.3.9-.8 1.3zm227.6 344c-2.9-3-5.9-5.9-8.9-8.9-9.4-9.4-18.9-18.8-28.2-28.3-1.1-1.2-4.4-2.7-1.1-4.7 4.9-3 8.6-6.6 10.8-12 .6-1.6 3.3-5.3 4.8-2.4 3.1 5.5 10.7 3.9 13.2 9.7.4.9 2.3 1.5 3.6 1.4 3.3-.1 5.8 1.7 8.3 3.3 4.9 3 9.9 5.7 14.5 9 8.1 5.7 17.8 9.1 24.5 17.4 3 3.7 9.4 4.1 12.9 8.2.4.5 1.8.2 2.7.2 4.4 0 6.6 3.4 9 6.2.7.8.5 1.8-.1 2.7-.7 1-1.5.8-2.5.3-1.9-1-4.4-3.5-6-1.5-1.5 2.1 1.3 4.3 2.5 6.5.7 1.3 1 3 1.9 4.1 5.2 5.8 1.2 9.6-2.6 13.5-3.6 3.7-7.2 7.3-10.9 10.9-5.3 5.2-7.7 5.2-12.9 0-11.8-11.9-23.7-23.7-35.5-35.6zm129.3-114c-1.4 2.3-3.8.8-4.8 2.4-3.1 4.7-7.1 8.6-11.6 12-1.8 1.4-1.1 2.6-.4 3.9.9 1.6 3.3 3 4.2 1.7 3.9-5.3 9.9-8.6 13.5-13.9 1.9-2.8 2.5-2.7 4.4-.8 8 7.9 16 15.8 23.7 23.9 3.4 3.5 3.5 7.3-.4 11-4.9 4.5-9.5 9.4-14.3 14-2.7 2.6-5.3 3.8-9 1.3-2.9-2-6.7-2.4-9.5-4.9-.7-.6-2-1.5-3.1-.6-1.1 1-.1 2.1.3 3.1.3.7.6 1.4 1.1 2 1.2 1.4 1.4 2.5-.2 3.8-1.9 1.8-3 .4-4.3-.8-2-1.9-3.8-4.2-4-6.8-.4-7.1-7.1-10.9-8.6-17.4-.2-.8-1.2-1.4-2-2-2.9-2-4.8-4.8-6.6-7.8-5.9-9.8-11.9-19.5-17.8-29.3-1.3-2.1-3.2-4.1-3.2-6.6-.1-7.1-6.6-10.8-9-16.8-1.9-4.7-3.1-6.3 2.1-8.4 4-1.6 7-4.2 9.2-7.4 2.5-3.6 3.8-2.7 6.3-.2 11.3 11.6 22.8 23 34.3 34.4 3.2 3.7 6.5 7 9.7 10.2zm-98.9 1.6c9.6-9.6 18.6-18.3 27.2-27.4 3.3-3.5 5.1-3.2 7.5.8 10.7 17.8 21.9 35.3 32.3 53.2 3.7 6.4 10.7 11.6 9.4 20.5 0 .2.8.5 1.3.7l5.4 6.7c-.2.5-.3 1.1-.7 1.5-4.2 4.6-8.3 9.2-14.1 13.6.1-4.8-2-8.4-5.1-8.9-5.3-.7-7.9-4.4-10.7-7.7-4.7-5.4-12.1-8.6-13.5-16.9-.3-1.9-2.7-4-5.1-4-2.7 0-4.1-1.6-5.7-3.2L505.8 492c-.9-.9-2.3-1.7-2.1-3.2.6-5.5-3-7.4-9-8.9zm-19.7 1.4c-14.3 14.3-28.6 28.4-42.7 42.8-3.5 3.6-6.2 4-10 .3-4.6-4.5-9.6-8.7-14.7-12.6-3.1-2.4-2.9-4.9.1-6 5.4-1.9 7.3-6.6 10.7-10.2 10.8-11.5 20.2-24.7 34.7-32.4 2.3-1.2 4.5-3.1 4.8-6 .2-2.1 1.6-3.4 2.9-4.8 8.9-8.9 17.7-17.8 26.6-26.6 1.2-1.2 2.3-2.6 4.1-2.9 4.4-.9 6.6-3.6 7.8-7.9 1-3.6 3.2-4.4 6-1 4 4.9 8 9.7 12.3 14.2 3.8 4 3.9 6.9-.3 10.9-14.2 13.9-28.2 28.1-42.3 42.2zm-2.1 20.4c1.1 5.1 2.6 8.8 7 9.3 3 .3 5 1.8 6.7 3.8 6.3 7.8 16.3 12.5 18.9 23.5.9 3.7 6.5 2.5 8.5 4.6 6.7 7.1 16.6 11.7 19 22.5.3 1.3 1.6 3.1 2.8 3.4 8.7 2.5 3.2 5.5.4 8.3-1.5 1.5-2.9 3-4.5 4.4-3.8 3.6-6.3 3.5-5.7.7 1.4-6.5-5.6 2.1-4.5-2.8.1-.4.2-.8.1-1.1-.3-1.2-1.4-1.8-2.1-1-2.7 2.9-4.5 0-6.3-1-6.7-4-13.3-8.2-19.9-12.3-15.5-9.6-31.1-19.1-46.6-28.7-1.9-1.1-5.3-2.2-2.1-5.4 9.2-9.1 18.3-18.2 28.3-28.2zm89.2 49.6c-5.4 5.4-9.6 9.7-13.9 13.9-1.9 1.9-3.9 4.6-4.8-1-.4-2.6-2.7-4.9-5.6-4.9-3.3-.1-5.2-2-7.2-4-4-4.1-9.2-7.5-11.8-12.3-3.7-6.8-8.4-11.4-15.2-15.3-6.2-3.6-10.7-10.1-15.9-15.4-1.2-1.2-2.8-2.3-2.8-4.1 0-5.7-3.5-7.8-9-8.6l16.7-16.7c.1 4.8 1.4 8.8 5.4 9 4.8.2 7.1 3.1 9.8 5.8 4.1 4 8.1 8.1 12.1 12.1 2 2 3.6 3.9 3.5 7.3-.1 3.4 2.4 5.9 6.2 6.1 1.3 0 2.7-.5 3.8.5 5.8 5.7 11.6 11.5 17.3 17.3.6.6.8 1.8.8 2.6-.3 6.1 3.2 7.9 10.6 7.7zM246 251.8c8.2-8.2 16.5-16.4 24.6-24.7 2.5-2.6 4.5-2.8 7.1-.1 4.2 4.4 8.6 8.7 12.9 13 1.7 1.7 1.8 3.2.1 4.9-4.8 4.6-8.9 9.7-15.1 12.9-8.8 4.5-15.8 11.7-20.8 19.9-3.9 6.5-8.7 11.9-13.8 17.2-2.8 3-5 3.4-7.9.1-3.4-3.8-7.1-7.5-10.9-10.9-3.3-3-3.3-5.3 0-8.4 8-7.9 15.8-16 23.8-23.9zm71.6 184.1c6-.2 10-2 10.3-7.8.2-4.1-2.4-7-6.2-7.7-6.9-1.2-8.7 3.9-9.8 9.8-7.7-7.7-14.8-14.7-21.9-21.9-8.9-9-9.1-6.8.1-16.5 3.3-3.4 5.5-3.3 8.8.1 11.7 12.2 23.5 24.3 35.5 36.3 5.1 5.1 10.8 9.6 15.4 15.2 7.2 8.9 7.2 8.8-1.7 16.4-2.6 2.2-4.5 2.2-6.8-.2-7.7-7.7-15.4-15.3-23.7-23.7zM291.9 183c6.2 6.2 6.2 6.2 0 12.3-5 5-10.1 9.8-14.9 15-3.2 3.4-5.7 3.7-8.8.1-1.3-1.6-3.1-4.3-5.6-1.8-2.5 2.6.7 4 2.1 5.4 2.2 2.4 4.2 4.4.9 7.5-7.2 7-14.3 14.2-21.4 21.3-1.2 1.2-2.6 2.8-4.4 1.6-3.5-2.3-6.3-5.4-8.9-8.7-1-1.2-.4-2.5.7-3.6 1-1 2.2-1.5 3.6-.7 1 .6 1.8 1.5 2.7 2.1 1.2.8 2.7 2.1 4.1.9 1.6-1.4.1-3-.9-3.9-3.6-3.4-2.3-5.9.8-8.9 11.7-11.4 23.2-23 34.7-34.7 2.8-2.9 5.1-3.6 7.9-.2.9 1.1 2.4 2.7 3.8 1.5 1.6-1.4-.2-2.6-.9-3.8-1-1.6-4.3-3-2.2-5 2.4-2.3 3.7 1.3 5.4 2.4.6.3.9.8 1.3 1.2zM393 424.7c7 9.7 15.3 16.8 23.8 23.8 2.8 2.3 5.2 2.8 7.9 0 5.6-5.7 11.2-11.4 16.9-17 2.7-2.7 2.7-5.3.4-8-6.4-7.7-12.2-16.1-20.9-21.6-1-.6-3-1-1.6-2.8 1-1.4 2.4-.5 3.5.4 1 .9 1.9 1.8 2.9 2.7 10.5 10.2 20.5 20.9 31.4 30.7 2.2 2 3.4 2.2 5.5-.1 5.2-5.6 10.6-10.9 16.1-16.2 1.2-1.1 2.5-3 4.3-1.5 1.9 1.6.2 3.2-.9 4.3-16.4 16.4-32.8 32.9-49.2 49.3-1.2 1.2-2.5 2.7-4.3.7-2.5-2.7-5.8-2.6-9.5-2.5 6.6-7.1 6.6-7.1.3-13.5-7.7-7.7-15.4-15.3-23-23-1.7-1.3-3.7-2.4-3.6-5.7zm33.4-63.2-11.7 11.7c-10.1 10-7.3 9.8-18-.4-3.2-3.1-3.2-5.3 0-8.4 9.3-9 18.3-18.3 27.5-27.3 10.8-10.6 7.4-10.9 19.2.4 2.6 2.6 2.6 4.6 0 7.1-5.8 5.6-11.4 11.3-17 16.9zM217.8 336c3.7.4 5.4-2.1 7.5-3.9 4.1-3.3 4.6-6.6.4-10.3-3.3-2.9-6.3-6.1-9.3-9.3-3.1-3.3-5.9-3.7-9-.1-2 2.3-4.2 4.3-6.3 6.4 4.1-5.2 8.7-9.8 13.4-14.5 2-2 3.8-1.1 5.4.6 10.1 10.3 20.8 20 30.1 31.1 1.6 1.9 1.5 3.2-.1 4.8-3 2.9-5.9 5.9-8.8 8.9-1.6 1.6-2.5 3.2-1.1 5.5 4.6 7.7 8.6 8.4 14.8 2.2l3.6-3.6c2.1-2.1 4.1-3.4 6.7-.7 2.4 2.5 2.8 5 .4 7.5-2.5 2.6-5.1 5.1-7.6 7.8-2.6 2.9-4.7 2.9-7.5.1-10.7-10.8-21.5-21.5-32.6-32.5zm92.9-127.9c-7.5 9.9-7.5 9.9 1.5 18.9l2 2c6.7 6.6 6.7 6.7 13.6.4 2.2-2 4.1-3.4 6.8-.8 9.5 9.6 19.1 19.1 28.7 28.7 1.3 1.3 2.4 2.9 1 4.5-3.3 3.9-6.6 7.9-11.1 10.6-2.5 1.4-4.7.3-6.6-1.8-2.2-2.4-.7-4.1 1-5.8l3.6-3.6c6.8-6.8 6.6-8-.8-14.2-2.6-2.1-4.6-2.1-6.8.3-2.6 2.8-5.4 5.3-8.1 8.1-2 2-3.8 2.1-5.9.1-10.1-10.1-20.2-20.1-30.4-30.1-2.1-2-1.8-3.9.2-5.9 3.8-3.8 7.5-7.6 11.3-11.4zM265 269.2c2.8-2.6 5.4-5.4 8.5-7.6 6.1-4.5 12.9-6.7 20.4-4.5 2.9.8 6.5 1.9 6.8 5.3.3 3.2-2.8 5.6-5.5 6.7-14.5 6.3-25.1 16.2-30.4 31.4-.9 2.7-3.5 3.7-5.7 4.2-2.6.5-4-2-5-3.9-2.8-5.2-2.4-10.6-.5-16.1 2.2-6.4 6.8-10.9 11.4-15.5zm-75.2-12.6c3.2-.2 3.8 1.3 4.9 2 1.4.9 2.8 2.8 4.4 1.3 1.7-1.6-.2-3.2-1.3-4.3-3.1-3.4-2-5.9 1-8.6 2.7-2.4 5.2-5 7.7-7.6 1.9-1.9 3.7-2.2 5.9-.3 1.4 1.3 3.1 3.9 5.1 2.1 1.7-1.6-1.1-3.2-1.7-4.9-.1-.3-.4-.6-.6-1-.6-1-1.6-2.1-.4-3 1.1-.9 2.1.1 2.9.9 4.9 4.8 9.7 9.6 14.7 14.3 2.9 2.7 2.6 5-.2 7.6-4.7 4.4-9.4 8.9-13.6 13.7-3.9 4.5-7.3 5.7-11.3.4-.5-.7-1.5-1.5-2.3-1.5-7.1-.4-9.7-6.6-15.2-11.1zm431.7 290.2c2.4-2.4 4.9-4.8 7.3-7.3 2.3-2.4 4.4-2.6 6.8-.1 4.2 4.4 8.6 8.6 12.9 13 2.5 2.5 2.4 5 0 7.5-2.8 2.9-5.6 5.7-8.5 8.5-10.6 10.3-7.8 10.7-18.5.2-11-10.8-11-10.9 0-21.8zM298.7 301.9c4.3 4 7.1 1.5 9.7-1.2 2.1-2.1 4.1-3.5 6.7-.8 4.1 4.2 8.3 8.4 12.5 12.5 2 2 2.1 3.9.1 5.9-5.1 5.1-10.2 10.2-15.3 15.4-2.2 2.2-4.2 2.2-6.3-.1-3.4-3.5-6.5-7.7-10.6-10.3-6.3-4.1 1.1-9.2-1.8-13.2-.2-.3-.2-.6-.4-1 .4-.1.7-.2 1.1-.2 4.5.1 4.5-3 4.3-7zm262.6 326.2c9.5 9.5 9.5 9.5.1 18.9l-2.4 2.4c-9.3 9.2-9.4 9.3-18.6-.1-12.3-12.5-12.3-9.1-.1-21.4 12-11.9 8.7-11.8 21 .2zM410.8 394c-.2.3-.4.5-.5.8-4.7-4.7-9.4-9.2-14-14-3.5-3.7-6.4-3.6-10 .1-11.8 12.1-23.8 24-35.9 35.9-10.1 9.9-7 11.1-18.8-.8l-.4-.4c-.8-1-2-2.1-.8-3.5 1.1-1.4 2.9-1.6 4.1-.4 4.2 4.1 6.9 1.5 10-1.6 12.4-12.6 25-25 37.5-37.5 1.8-1.8 3.3-4.4 6.4-1.2 7.3 7.7 14.9 15.1 22.4 22.6zm13.3-75.9c-5.8.8-9.4 2.5-10.1 7.2-.5 3.8 1.2 6.6 4.6 8.3 1 .5 2.9.4 2.5 2.4-.1.4-.7.9-1.2 1.1-1.5.7-2.5-.3-3.4-1.3-9.1-9.3-17.8-19.1-27.1-28.2-8.4-8.2-8-8.5 1.3-16.4 2.3-2 4.2-2.2 6.4 0 8.7 8.6 17.4 17.3 27 26.9zm-51.4 60c-4.8 4.9-9.6 9.7-14.5 14.5-1.5 1.4-3 4.2-5.6 1.8-2.1-1.9-.6-4.1.8-5.5 3.7-3.9 3.1-6.9-1.2-9.7-3.4-2.2-3.3-4.6-.5-7.4 5.3-5.2 10.4-10.6 15.5-15.9 2.1-2.2 3.8-2.2 5.4.4 3.2 5.1 6.9 6.8 11.9 2 1.3-1.3 3.4-2.1 5 0 1.4 1.9-.2 3.2-1.3 4.4-5.3 5.2-10.4 10.3-15.5 15.4zm19.5 71.9c3-3.2 5.3-1.9 7.1.8 2.9 4.5 6.7 8.2 11.1 11.2 3.4 2.3 3.6 5.1.3 7.2-5.3 3.5-9.6 7.9-13.1 13.2-1.9 2.8-4.4 3.5-6.8.1-3.4-4.8-7.4-9.1-12.5-12.3-2.7-1.7-2.8-4.3-.2-6.1 5.8-3.7 10.6-8.4 14.1-14.1zm75.6-39.7c-1.8 2.5-3.5 5-5.4 7.4-2.4 3.1-5.1 3.5-7.4.1-3.1-4.7-6.9-8.5-11.6-11.6-3.4-2.2-3.3-5 .1-7.3 5.1-3.4 9.4-7.6 12.8-12.8 2.1-3.2 4.8-3.8 7.1-.1 3 4.8 6.8 8.6 11.5 11.6 3.7 2.4 3.1 4.8.1 7.2-2.2 2-4.7 3.7-7.2 5.5zm-150-30.4c4.5-2.4 8.3-6.9 11.9-11.6 2.2-2.9 4.9-3 6.9.2 3.4 5.2 7.8 9.3 12.8 12.8 3.1 2.1 3 4.9-.1 7-4.6 3.2-8.4 7.1-11.6 11.7-2.2 3.2-5 3.5-7.3.1-3.5-5.1-7.7-9.4-12.8-12.8-2.6-2.1-3.3-4.4.2-7.4zm55.7-55.3c4.2-4.6 6.2-4.6 9.1-.2 3 4.5 6.7 8.2 11.2 11.2 4.1 2.7 4.2 5.1.2 7.9-4.2 3-7.9 6.5-10.8 10.8-2.6 3.9-5.6 3.8-8.1 0-3.2-4.9-7.1-8.8-12-12-3.5-2.3-3.7-5.2 0-7.7 4.4-2.9 8.5-6 10.4-10zm33.9 108.8c-4.8-3.6-4.8-6.4-.9-8.8 4.8-3 8.5-6.8 11.6-11.5 2.5-3.8 5.4-4.2 8-.3 2.9 4.4 6.4 7.9 10.7 10.8 4.1 2.7 4 5.2.1 8-4.7 3.3-8.8 7.2-12 12-2.6 3.9-5.5 3.8-8 0-2.8-4.5-5.9-8.6-9.5-10.2zM421.5 547c-.3.3-.6.7-1 1L355 482.5c6 3.1 11.8 6.6 17.5 10.2 12.3 7.9 25.4 14.5 36.8 23.8 4.8 3.9 4.3 6.1.2 9.5-3.5 2.9-3.6 5.8-.1 9.1 4.2 3.7 8.1 7.9 12.1 11.9zm-77-196.8c2.7-2.7 5.4-5.4 8.1-8 1.2-1.2 2.4-2.6 4.3-.8 2.8 2.5 5.7 5 8.6 7.4 2.2 1.9 2.1 3.8.1 5.8l-16.5 16.5c-2.1 2.1-3.8 1.8-5.8-.2-9.7-9-9.8-9.6-.7-18.7.6-.6 1.2-1.3 1.9-2zm76.4-38.8c-12.2-12.3-24.5-24.6-36.7-36.8-1.2-1.2-2.4-2.5-3.5-3.8-.6-.8-.9-1.8-.1-2.6.9-1.1 2.1-.8 3-.1.9.7 1.7 1.5 2.6 2.3l75 75.3c.7.7 1.4 1.3 2 2.1.9 1 1.9 2.2.5 3.5-1.3 1.2-2.5.2-3.5-.7-1.2-1-2.2-2.1-3.3-3.2-12.1-12-24-24-36-36zM301.8 429.8c-12.2-12.3-24.5-24.5-36.7-36.9-1.6-1.6-5.3-3.5-3.2-5.7 2.6-2.7 4.5 1.3 6.1 2.9 25 24.8 49.9 49.8 74.7 74.7.8.8 1.6 1.7 2.2 2.6.6.8.7 1.8-.1 2.6-.8.8-1.8.6-2.6 0-1.2-1-2.3-2-3.4-3.1-12.2-12.3-24.6-24.7-37-37.1zm218.7 10c1.9 2.3 4.2 4.4 3 5.5-3.4 3.2-4 8.8-8.5 10.7-6.9 2.8-7.9 12.1-15.7 13.6-1.8 8.2-10.7 10.1-14.7 16.7-3.7 6-10.1 10.1-15.3 14.9-4.3 4-7 9.8-12.1 12.4-6.6 3.4-8.2 11.6-15.9 14.1-3.9 1.3-3.9 2.9-7-1.7 3.5.2 5.9-1.3 8.1-3.5 24.8-24.9 49.7-49.8 74.7-74.7 1.8-2 3.4-4 3.4-8zM278.1 282.6c5.5-4.2 10.8-8.6 17.4-10.8 3.6-1.3 6.4.2 7 3.6 1.1 6-8 14.1-14 12.9-6.4-1.3-11 3.6-9.7 9.9.5 2.6.1 6.5-2.2 7.3-2.1.8-4.9 3.4-7.9.7-2.6-2.5-1.8-5-.7-7.8 2.3-6 6.3-10.8 10.1-15.8zm-82.1 8.7c-1.5 1.5-3 2.9-4.4 4.5-2.8 3.1-5.1 3.6-7.4-.6-2.2-3.8-4.7-7.4-7.1-11-1-1.5-1.8-2.7-.9-4.7 3.5-6.9 9.1-8.6 15.9-4.6.7.4 1.3.7 2 1.1 13.3 8.2 10.4 6.2 1.9 15.3zM375.4 476l-11.7-11.7c-3.4-3.4-3.5-6.8.1-10.4 6.8-6.6 13.5-13.5 20.2-20.2 4.3-4.3 7-4.3 11.6.2 7 6.8 13.8 13.7 20.7 20.5 1.3 1.3 2.9 2.6 3.1 4.6.1 1.5.4 3.2-1.3 4-1.6.7-2.4-.7-3.2-1.7-5.4-7-12-12.8-18.2-18.9-7.9-7.8-12.3-7.7-20.2 0-3.3 3.2-6.4 6.5-9.5 9.9-3.2 3.5-3.9 6.5-.5 10.9 3.5 4.3 7 8.5 10.9 12.4 3.5 3.5 6.9 7.1 11.1 9.8 1.3.9 3.8 2.3 2.5 3.8-1.9 2.1-3.2-.8-4.4-1.9-3.7-3.6-7.4-7.5-11.2-11.3zm151.8-64.2c-5.1-.4-6.9 3.5-9.5 6.1-2.4 2.3-3.8 3-6.1-.2-4.7-6.2-9.1-12.5-13.2-19.1-2.3-3.7-.8-5.9 1.8-8.3 2.8-2.6 4.7-.9 6.7 1.1 6.5 6.5 13 13.1 20.3 20.4zm-192.9-187s.1-.1 0 0c-10.1-10.3-20.4-20.6-30.6-30.8-1.1-1.1-3.1-2.4-1.5-4.2 1.6-1.8 3 .1 4.3 1.1.6.5 1.1 1 1.6 1.6l58.2 58.2c.7.7 1.4 1.3 2 2.1 1 1.2 2.3 2.4.7 3.9-1.3 1.2-2.5.1-3.5-.8-1.1-1-2.2-2.1-3.3-3.2l-27.9-27.9zM215.6 343.5l-30.3-30.3c-1.2-1.2-3.7-2.6-1.9-4.6 1.8-2 3.4.2 4.7 1.5 20.1 20.1 40.1 40.1 60.1 60.3 1.3 1.3 4.2 3 1.8 5-2.2 1.9-3.6-1.1-5-2.4-9.8-9.8-19.6-19.7-29.4-29.5zm362.6 242.2c6.5-6.5 12.9-12.9 19.4-19.3 1.5-1.4 3-3.4 5.3-1.2 2.4 2.2.2 3.6-1.1 5.2-11.8 13.6-25.6 25.3-37.8 38.5-1.5 1.7-3.3 2.5-5.4.5-2.5-2.4-.2-3.7 1.2-5.1 6-6.3 12.2-12.4 18.4-18.6zM348.8 464.9c-.2-.3-.5-.5-.7-.8l109.8-109.8.7.7c-36.6 36.6-73.2 73.3-109.8 109.9zM282.4 345l-.3.3 16.5 16.5c1.1 1.2 1.8 2.7.3 4-1.3 1.2-2.5.4-3.5-.6-10.5-10-21.1-20-31.6-30.1-1.4-1.4-2.6-3-.8-4.9 2.1-2.2 3.7-.9 5.3.7 4.8 4.7 9.4 9.4 14.1 14.1zm91.6 87.2c-.3.4-.7.7-1 1.1-4.4-4.4-8.9-8.6-13.1-13.2-4.3-4.7-6.8-1.3-9.8 1.6-3 2.9-5.3 5.4-1.1 9.3 4.3 4 8.9 8 11.9 13.3-5.4-4.6-10.5-9.6-15.5-14.6-1.8-1.8-.7-3.5.7-5 14-14 28-28 42-42.1 2.2-2.2 4.1-2.3 6.3 0 4.4 4.5 8.9 8.9 13.3 13.4-4.7-3.7-8.8-7.9-13-12-1.4-1.3-2.7-2.6-5-1.5-7.4 3.4-8.6 9.2-3.1 14.7l11.2 11.2c-.5.4-.9.9-1.4 1.3-4.1-4.1-8.4-8.1-12.3-12.4-3.6-4-6.3-3.6-9.9.1-3.4 3.5-6 6.3-1.1 10.7 4.4 3.9 8.4 8.3 12.6 12.5-5.1-3.4-9.5-7.6-13.6-12-4.3-4.7-7-1.8-10.3 1.3-3.4 3.2-4.4 5.7-.5 9.4 4.6 3.9 9.2 7.9 12.7 12.9zm-14.8-100.5c-5 5-9.9 10-15 14.9-1.4 1.4-2.9 2.9-4.8.8-1.5-1.7-.4-3.2.8-4.5 9.8-9.9 19.6-19.7 29.4-29.5 1.4-1.4 3.2-2.7 4.9-.7 1.8 2 .1 3.5-1.3 4.8-4.5 4.8-9.2 9.5-14 14.2zm7-31.6c-4.9-4.8-9.7-9.6-14.5-14.5-1.4-1.4-3.7-3-1.6-5.2s3.8 0 5.2 1.4c9.5 9.5 18.9 19.1 28.4 28.7 1.3 1.3 3.3 2.8 1.4 4.7-2.2 2.3-3.7-.1-5.1-1.5-4.7-4.5-9.2-9-13.8-13.6zm208.5 320.3c-1.8-1.9-3.7-3.8-5.6-5.6-2.6-2.6-1.2-4.7.8-6.8 2.2-2.2 4.3-3.9 7.2-1 3.2 3.2 6.3 6.5 9.7 9.6 3.1 2.8 3.6 5.2.3 8.5-3.4 3.4-5.8 2.4-8.4-.6-1.2-1.5-2.7-2.8-4-4.1zM340.3 288.9c-4.7-4.7-9.4-9.3-14-14.1-1.5-1.5-4.3-3.2-1.9-5.6 2.4-2.5 4 .3 5.6 1.8 10.1 9.2 18.6 19.8 28.2 29.6 1.1 1.2 3 2.6 1.4 4.3-2 2-3.4-.3-4.6-1.5-5.1-4.8-9.9-9.6-14.7-14.5zM493.4 403c-1.5-2.5-3-5.1-4.6-7.7-7.4-12-14.8-24-22.1-36-1-1.7-3.1-4-.5-5.4 2.6-1.4 3.2 1.9 4.2 3.4 3.3 5.1 6.4 10.3 9.6 15.5 5.5 8.9 10.9 17.8 16.3 26.8.7 1.2 2 2.6.6 4.1-1.3 1.4-2.4.3-3.5-.7zm-212-17.7c-1.4 1.3-2.8 2.6-4 4-2.8 3.1-5.1 1.6-7-.9-1.9-2.4-6.5-4.1-2.6-8.2 2.5-2.6 4.9-5.3 8-7.2 4.6-2.9 7.5-.1 10.2 2.9 3 3.3-.5 5-2.2 7-.7.9-1.6 1.6-2.4 2.4zm97.8-97.8-2.4 2.4c-4.6 4.6-8.6 3.6-10.6-2.6-1.3-3.9 6.8-14.9 10.8-14.8.4 0 .7.1 1.1.3 6.3 2.1 7.8 8.1 3.1 12.8-.6.6-1.3 1.2-2 1.9zm-30.2 188c-1-.8-2.7-1.4-1.5-3 1.4-1.8 3-.9 4.6 0 9.4 5.7 18.9 11.5 28.3 17.2 5.4 3.3 10.7 6.6 16 9.9 1.1.7 2.3 1.7 1.4 3.3-.9 1.5-2.3.9-3.5.2l-7.8-4.8-37.5-22.8zm-55.6-103.6c5.1 5.1 10.2 10.2 15.3 15.4 1.1 1.1 1.9 2.6.4 4-1.4 1.4-2.4.1-3.3-.8-9.8-10.1-21-18.6-30.4-29.2-1.2-1.4-3.3-2.8-1.4-4.8 2.1-2.3 3.8-.1 5.2 1.3 4.8 4.6 9.5 9.4 14.2 14.1zm264.8 193.3c5.4-5.4 10.7-10.8 16.2-16.1 1.1-1.1 2.6-3 4.2-1.1 1.3 1.5-.4 2.8-1.4 3.8-10.7 10.8-21.5 21.5-32.3 32.3-1.2 1.1-2.7 2.9-4.3 1.1-1.4-1.5.4-2.8 1.4-3.8l16.2-16.2zm29.3 78c-.9-2.7 1.4-3.7 2.7-5.1 13.9-14.1 28-28 42-42l1.6-1.6c.8-.7 1.8-1.9 2.9-.9 1.2 1 .2 2-.6 2.9-.5.6-1 1.1-1.6 1.6l-42.4 42.4c-1.2 1.3-2.2 3.3-4.6 2.7zm18.5-22.8s0-.1 0 0c-5.3 5.2-10.5 10.5-15.8 15.7-1.1 1.1-2.6 2-4 .6s-.1-2.5.8-3.3l31.5-31.5c1.3-1.3 2.9-2.4 4.4-.6 1.3 1.7-.6 2.7-1.5 3.7-5.1 5.2-10.3 10.3-15.4 15.4zM327.4 332.8c-3.1 3.1-6.2 6.1-9.3 9.3-1.6 1.7-3.2 1.8-4.9.1-1.6-1.6-1.3-2.9.2-4.4 6.2-6.2 12.4-12.4 18.6-18.5 1.5-1.5 3.1-2.4 4.9-.7 2.2 2 .9 3.7-.7 5.3-2.9 3-5.8 5.9-8.8 8.9zm265.2 263.9c0 .1 0 .1 0 0 2-2 4.1-4 6.1-6 2.3-2.3 4.3-1.5 6.3.6s1.8 3.9-.1 5.9c-3.8 3.7-7.5 7.5-11.3 11.3-2.1 2.1-4 2.5-6.3.2-2.5-2.4-2.3-4.5.1-6.8 1.8-1.6 3.5-3.4 5.2-5.2zM442.4 348c2.3-1 3.2-5.8 7.4-3.7 6 3 6.6 7 1.9 11.8-1.5 1.5-3 2.9-4.4 4.4-1.9 1.9-3.6 2.1-5.9.3-5.7-4.7-5.7-6.1 1-12.8zM384 488.1c-.3.2-.5.5-.8.7-9.5-5.8-19.1-11.7-28.6-17.6-2-1.3-5.6-2.2-2.3-5.8 2.4-2.6 4.6-4.6 8-1.1 7.9 8.1 15.8 15.9 23.7 23.8zm211.5 74.1c.7 2.3-1.2 3.4-2.5 4.7-11.6 11.6-23.1 23.3-34.8 34.7-2.4 2.3-4.7 4.4-5.2 8-2.8-4.4.4-7.2 2.8-9.6 12-12.3 24.2-24.3 36.3-36.4.8-.9 1.7-2.2 3.4-1.4zM417.6 372.8l8.1-8.1c1.6-1.6 3.3-2.8 5.3-.6 1.8 1.9.6 3.5-.8 4.9l-16.6 16.6c-1.5 1.5-3 2.5-4.9.6-1.8-1.8-1.1-3.4.4-4.9l8.5-8.5zm173.3 222-6 6c-1.8 1.8-3.6 1.9-5.4 0-1.8-1.8-1.8-3.7 0-5.4 4-4 8-8.1 12.1-12.1 1.8-1.8 3.6-1.8 5.4 0 1.9 1.9 1.8 3.6 0 5.4-2 2.1-4.1 4.1-6.1 6.1zM475.2 360.5c.1-.1.3-.2.4-.3 7.5 7.5 14.9 15 22.5 22.4 2.7 2.7 1.5 4.6-.8 6.6-2.1 1.9-3.7 1.5-5.1-.8-5.7-9.3-11.3-18.6-17-27.9zm89.5 210.7c.1 0 .1 0 0 0-5.6 5.7-11.3 11.3-16.9 16.9-.9.9-2.1 2.5-3.3 1.4-1.8-1.5.3-2.7 1.2-3.6 8.7-8.8 17.5-17.5 26.2-26.2 2.4-2.4 4.8-4.9 7.3-7.2.9-.9 2.2-2.1 3.3-.6.9 1.2-.6 2-1.3 2.7-5.4 5.6-10.9 11.1-16.5 16.6zM445 386.8c-2.4 2.4-4.8 4.9-7.2 7.2-1.2 1.1-2.3 3-4.2 1.2-1.8-1.6-2.1-3.7-.3-5.5 4.9-5 9.8-10 14.9-14.8 1.5-1.4 3.5-1.7 5 .2 1.5 1.8.4 3.2-.9 4.4l-7.3 7.3zM379.9 452c-.1-.1-.1-.1 0 0-2.4 2.4-4.8 4.8-7.3 7.2-1.2 1.2-2.6 2.5-4.4 1-1.9-1.5-1.7-3.4-.3-5 4.6-5.3 9.4-10.4 14.9-14.8 1.6-1.3 3.5-1.6 5 .3 1.4 1.8.2 3.2-1 4.5-2.4 2.2-4.7 4.5-6.9 6.8zM216.4 275.8l54-54c-16.5 19.6-35.1 37-54 54zm373.9 282.5c-2.1 6.6-34.5 38.4-38.7 38.7 12.7-12.7 25.3-25.2 38.7-38.7zm-4.3-2.6c.7 1.3 0 2.2-.8 3-11 11.1-22.1 22.1-33.1 33.1-.9.9-2.2 2.4-3.3 1.2-1.4-1.5.4-2.7 1.4-3.7 10.6-10.7 21.3-21.3 32-31.9.9-1 1.9-2.5 3.8-1.7zm-264.2-253c-1.7-1.8-3.4-3.5-5.1-5.3-1.6-1.7-1.5-3.3.1-5 1.7-1.8 3.5-2.1 5.4-.3l10.8 10.8c1.6 1.6 1.4 3.3-.2 5-1.7 1.8-3.5 2.2-5.4.3-1.9-1.7-3.8-3.6-5.6-5.5zM473 383.4l10.5 10.5c1.2 1.2 1.7 2.7.3 4-1.5 1.4-2.8.7-3.9-.6-.9-1-1.7-2.1-2.5-3.1-5.2-6.6-11.4-12.2-17.5-18-1-1-4-1-1.8-3.5 1.7-1.9 3.4-1 4.9.5 3.3 3.5 6.6 6.8 10 10.2zm-40.6-22.2c7.5 6.6 7.5 6.6.7 13.5-5.4 5.4-10.7 10.8-16.1 16.1-1.2 1.2-2.7 3.5-4.6 1.3-1.6-1.9.6-3.1 1.7-4.2 5.9-5.9 11.8-11.8 17.8-17.7 2.8-2.8 4.9-5.6.5-9zm-112-143.1c1.1 1 2.1 2.2 3.2 3.2 2.2 2.1 3.2 4 .6 6.7-2.7 2.6-4.7 1.4-6.7-.7-2.4-2.4-4.8-4.8-7.2-7.3-2.2-2.2-1.1-4 .7-5.8 1.8-1.8 3.5-2 5.4-.1l4 4zm262.1 438.2-.8-.8 52.4-52.4.8.8-52.4 52.4zm23.3-47.3c-1.8 1.9-3.7 3.8-5.6 5.7-1.7 1.6-3.4 3.5-5.7 1-2.2-2.4-.4-4.2 1.2-5.8 3.7-3.8 7.5-7.5 11.2-11.3 1.5-1.5 2.9-2.5 4.8-.5 1.6 1.6 1.9 3.3.2 5-2.1 1.8-4.1 3.8-6.1 5.9zM262.1 320.6c-5.6-3.7-10.2-8.7-15.6-12.6-6.1-4.4-5.8-5.9-.1-11.3 2.1-2 2.6-2 4.1 1 3.8 7.5 4.5 16.8 11.6 22.9zm128.3-8.4 14.6 14.6c1.5 1.6 2.8 3.3.7 5.3-2.2 2-3.8.5-5.3-1-2.8-2.8-5.5-5.8-8.5-8.4-3.7-2.9-4.7-6.1-1.5-10.5zM317 280c1.5.4 2.4.3 2.9.8 10.2 10.1 20.4 20.3 30.6 30.5.7.7 1.4 1.7.6 2.5-1.5 1.4-2.4-.3-3.2-1.1-8.6-8.6-17.2-17.1-25.7-25.8-1.8-1.9-4.2-3.3-5.2-6.9zm333.4 282.2c-.3 6.8-.4 11.9-.8 16.9-.1 1.2-.5 3.7-1.7 2.7-3.9-3.3-9-1.7-13.4-3.8 5.2-5.1 9.9-9.8 15.9-15.8zM380.3 409.5s-.1 0 0 0c-1.2-1-2.2-2.1-3.3-3.1-2.5-2.2-2.3-4.4-.2-6.9 2.4-2.8 4.3-1.3 6.1.6 2.5 2.6 4.9 5.3 7.4 7.8 1.7 1.7 1.5 3.3-.2 4.8-1.6 1.5-3.2 3-5.4 1.1-1.5-1.3-2.9-2.8-4.4-4.3zm-64.7-4.4.1-.1c-1.9-1.9-3.8-3.7-5.6-5.7-1.1-1.2-2.8-2.4-.8-4.3 1.6-1.4 3.2-2.2 5-.4 4.1 4 8.1 8 12.1 12.1 1.2 1.2 1.7 2.6.5 4-1.3 1.5-3 1.7-4.5.5-2.3-1.9-4.5-4.1-6.8-6.1zM555.9 657c4.6-6.2 9-9.8 12.9-13.8 1.5-1.5 2.8-2 3.3.9.7 3.5.3 7.2 2.5 10.3 1 1.4-.5 2-1.6 2.1-5.1.2-10.3.3-17.1.5zM340.3 255.9c1.4-1.5 2.9-3 4.4-4.4 1.9-2 3.8-2.2 5.8-.1 1.9 2 1.4 3.7-.3 5.4-3 2.9-5.9 5.9-8.9 8.8-1.8 1.8-3.2 1.4-4.7-.5-1.3-1.5-2.6-2.9-.7-4.8 1.5-1.5 2.9-3 4.4-4.4zm-44.4-49.2c1.2-1.2 2.5-2.4 3.6-3.6 2.2-2.4 4-2 6.2.1 2.5 2.4.9 3.9-.8 5.6-2.6 2.5-5.3 5-7.6 7.6-2.1 2.4-3.7 1.7-5.7-.1-2.1-1.9-2-3.4-.1-5.2 1.5-1.4 2.9-2.9 4.4-4.4zm73.6 215.4c-2.3-2.3-3.4-3.7-4.8-4.7-2.3-1.7-2.7-3.3-.6-5.6 2-2 3.8-2.3 5.8-.3 2.5 2.6 5.1 5.1 7.7 7.6 2.3 2.2 1.9 4.2-.3 6.3-2.3 2.3-4 1.4-5.6-.7-1-1.2-2.1-2.5-2.2-2.6zm70.7-44.5s0 .1 0 0l14.1-14.1c1.1-1.1 2.4-2 4-.9 1.2.8 2.4 2.1 1.6 3.3-1.8 2.7-3.4 6.4-7.6 5.6-2.4-.5-4 .4-5.7 1.7-5.7 4.2-10.5 9.3-15.1 14.7-1.7 2-3.4 4.2-2.1 7.2.4.9.2 1.9-.7 2.5-1.3.7-2.1-.2-3-1-2.3-2.1-.8-3.7.7-5.2 4.7-4.6 9.2-9.2 13.8-13.8zm-180.4-5.7 4-4c1.9-2 3.8-2.2 5.9-.1 1.9 2 1.5 3.7-.2 5.4-2.8 2.8-5.7 5.6-8.4 8.5-2.1 2.2-3.5 1.1-5.2-.6-1.6-1.6-2.3-3-.4-4.8 1.3-1.4 2.8-2.9 4.3-4.4zm-58.7-70.4c1.4-1.3 2.7-2.7 4-4 1.7-1.7 3.4-2.3 5.4-.4 1.8 1.7 2.2 3.5.4 5.4-2.6 2.8-5.2 5.5-7.9 8.2-1.9 1.9-3.9 1.9-5.9-.2-2.2-2.3-1.1-4.1.7-5.8 1.2-1 2.2-2.1 3.3-3.2zm11.9 23.7c-1.1-1-2.2-2.1-3.3-3.2-1.7-1.6-3.5-3-1.1-5.6 2.4-2.5 4.4-2.4 6.6.1 2.3 2.5 4.8 4.9 7.2 7.3 1.7 1.7 2.3 3.4.4 5.4-2 2.1-3.9 1.9-5.9 0-1.2-1.3-2.6-2.7-3.9-4zm36.4 21.7c0-.1 0-.1 0 0 1.4-1.5 2.8-3 4.3-4.5 1.9-1.8 3.6-1.6 5.4.2 1.6 1.6 1.8 3.3.1 4.9-2.9 2.9-5.8 5.9-8.8 8.8-1.5 1.4-3 1.2-4.5-.2s-2.5-3-.9-4.9c1.4-1.5 3-2.9 4.4-4.3zm116.3-81c1.3-1.4 2.7-2.7 4-4 1.9-1.9 3.8-2.3 5.9-.2 1.9 1.9 1.5 3.7-.2 5.4l-8 8c-1.8 1.8-3.6 1.7-5.4-.1-1.8-1.9-1.6-3.7.2-5.4 1.1-1.3 2.3-2.5 3.5-3.7zM356 432.5c-1.1-1-2.2-2.1-3.3-3.2-2.1-1.9-2.2-3.7-.2-5.8 2.1-2.2 3.9-1.7 5.8.2 2.5 2.6 5.1 5.1 7.6 7.7 1.8 1.8 1.8 3.6 0 5.4-1.8 1.8-3.7 1.7-5.5 0-1.5-1.4-2.9-2.9-4.4-4.3zm36.3-35c-1.4-1.3-2.8-2.6-4.1-3.9-1.5-1.5-2.4-3-.6-4.9 1.8-1.9 3.8-2.7 5.9-.7 2.8 2.6 5.4 5.3 8.1 8 1.8 1.9 1.6 3.7-.2 5.4-1.7 1.6-3.3 1.6-5 0-1.4-1.2-2.8-2.6-4.1-3.9zm224.5 184.4c1.8 2.2 4 4 6.4 5.6 2 1.4 1.2 2.9-.2 4.2-1.4 1.3-2.7 1.1-3.8-.4-4.2-5.9-9.4-10.9-15.2-15.3-1.7-1.3-2.3-2.5-.7-4.2 1.7-1.8 3.3-1.6 4.6.5 2.3 3.8 6 6.4 8.9 9.6zM306.9 356.2c-11.8-10.1-23.1-20.6-32.3-33.2 12.6 9.2 22.1 21.5 32.3 33.2zm297.7 208.5c1.5-1.5 2.6-1.3 3.3-.8 9 7.8 17.1 16.6 25.5 25.1.7.7 1.1 1.7.1 2.5-1 .7-1.8 0-2.5-.7-3.8-3.7-7.6-7.4-11.3-11.2-5.1-4.9-10.1-9.9-15.1-14.9zM273.4 319.9c-.2-.3-.4-.5-.6-.8l41-41 .7.7-41.1 41.1zm356.3 260.5c-.3.4-.6.7-.9 1.1l-37-37 1-1c12.3 12.2 24.6 24.6 36.9 36.9zM290.4 253.7c5-6.5 5.8-6.9 11.1-1.8 4.1 4 6.8 9.4 11.3 13.3 1 .9 2.5 1.8 1.9 4.3-7.1-7.5-14.6-13.3-24.3-15.8zm3.6 77.8s0-.1 0 0c-1.8-1.9-3.7-3.8-5.6-5.7-1.1-1.2-1.9-2.5-.6-4 1.3-1.5 2.8-.9 4 .2 3.8 3.7 7.6 7.5 11.3 11.3 1.2 1.3 1.6 2.6.1 3.9-1.5 1.3-2.8.7-4-.5l-5.2-5.2zM574.2 635l-1.3 1.3c-12.1-11.9-24.2-23.8-34.7-37.3l36 36zM456.4 424.1c-2.2 1.4-3.9 1.1-5.2-.1-6.8-6.6-13.5-13.4-20.2-20.1-.8-.8-1.6-2.1-.6-3 1.6-1.4 2.3.5 3 1.4 7.1 7.7 14.8 14.7 23 21.8zm-145.1-52.6c.1.1.2.2.3.2 1.5-1.5 2.9-3 4.4-4.4 1.4-1.3 2.9-2.1 4.5-.4 1.3 1.4.8 2.9-.4 4-3 3.1-6.1 6.2-9.3 9.3-1.3 1.3-2.8 2.1-4.4.4-1.3-1.4-.7-2.8.4-4.1 1.4-1.6 3-3.3 4.5-5z"/><path d="M522.2 611.9c-1.2-10.4-37.2-48.5-51.9-54.2 10.3 9.4 19.5 17.6 28.5 26.1 8.8 8.5 17 17.6 23.4 28.1zM552 479.3c13.8 18.2 28.1 35.8 47.9 47.9-9.7-6-16.5-15.3-24.8-22.9-8.5-7.7-14.5-17.6-23.1-25zM485.3 433.6l-2.4 2.4c-6.6 6.7-6.6 7.2.3 14 5.9 5.8 6.4 5.8 12.3-.1l8.1-8.1c.9-.9 2.3-1.9 2.5-3 1.2-6.2-5.1-7.6-7.7-11.5-1.6-2.4-4.3-2.2-6.5-.1-2.3 2.1-4.4 4.3-6.6 6.4 0 .1 0 0 0 0zM441.6 503.8l.8-.8c8.6-8.6 8.5-8.5-.3-17-3.3-3.2-6-3.4-9.1-.1-3.4 3.6-7 7-10.5 10.5-2.6 2.6-2.5 5-.1 7.9 8.6 9.9 8.8 9.9 19.2-.5zM664.5 633.1l35.5 66-66-35.5s16.3-6.1 20.3-10.1c4-4.1 10.2-20.4 10.2-20.4z"/><path fill="none" d="m258.628 142.188 70.71-70.71 424.26 424.26-70.71 70.71z"/><path d="M465 283.6c8.2-8.2 19-18.6 25.5-24.6l-.4-.4c-13.5 9.1-32.6 21.2-51.8 32.6L426 278.9c11.8-17.9 24-37 33.7-50.7l-.5-.5c-5.8 6.6-15.7 17.2-24.7 26.2l-16.7 16.7-13.7-13.7 52.6-52.6 22.2 22.2c-8 13.2-20.4 31.7-27 40.6l.3.3c9.8-7.1 27.3-17.6 41.8-25.9l21.6 21.6-52.6 52.6-14.8-14.8 16.8-17.3zM518.9 320.5l-11.6 11.6-22.5-22.5 11.6-11.6 22.5 22.5zM505.9 358.8l35.3-35.3c-2.8-1.7-6.4-4.8-8.3-6.7l9.7-9.7c5.9 4.5 12.7 6.1 18.3 5.9l10.5 10.5-50.4 50.4-15.1-15.1zM593.9 371.5c1.6-2.4 2.8-5.5-.8-9.1-5-5-11-1.8-17.5 4.3 4.3.1 9.2 1.9 14.3 7 9.1 9.1 9.6 22.3-.7 32.6-11.3 11.3-26.7 11.1-39.1-1.3-15.4-15.4-10.3-31.9 4.4-46.6 13.4-13.4 31.9-21.7 48.5-5.1 13.2 13.2 10 25.8 4.6 32l-13.7-13.8zm-20.8 21c4.4-4.4 6.7-9 2.1-13.6-3.8-3.8-8.1-3.1-13 1.8-4.2 4.2-6.9 9.6-2.6 13.9 3.9 3.9 8.8 2.5 13.5-2.1z"/><path fill="none" d="M0 0h1000v1000H0z"/><path fill="none" d="M600.1 99.9h300v300h-300z"/><path d="M724.6 257.6V151.3c-6.6 3.1-18.6 5.6-25.7 6.2v-23.1c13.5-2.5 27.1-10.1 35.2-19.1H756v142.3h-31.4zM858.1 150c-1.7-7-5.8-13.7-18.2-13.7-19 0-24 17.9-24.8 37 6-7.3 16.1-13.2 32.2-13.2 26 0 44.5 19.2 44.5 47.1 0 30.3-19.4 52.9-52.2 52.9-41.2 0-55-31.8-55-71.9 0-37 13.1-75.4 56.7-75.4 30.9 0 45.3 19.3 46.7 37.2h-29.9zm2.8 59.8c0-13.5-5-25.6-22.1-25.6-13.8 0-21.9 8.1-21.9 24.5 0 11.5 5.5 26.8 22 26.8 15 .1 22-11.3 22-25.7z"/><path fill="none" d="M500 600.1h399.6v300H500z"/><path d="M607.8 842.6V865h-50.1v-22.4h50.1zM623.8 909.3l49.8-135.1H695l-49.6 135.1h-21.6zM708.9 900.1v-1.6c0-20.6 9.3-37.4 34.9-56.1 16.7-12.2 21.8-16.4 21.8-26.8 0-10.3-5-16-15-16-11.6 0-15.8 7.1-17.4 17.4h-24.9c1.7-20.4 15.1-37.5 42.3-37.5 30.4 0 40.9 18.1 40.9 35.9 0 17.2-7.4 25.6-29.2 40.9-14.6 10.3-20.5 17-22.5 22.3h56.1l-3.2 21.5h-83.8zM859.1 900.1v-26.6h-53.6V851l49.4-69.4H883v71h14.3l-2.4 20.8H883V900h-23.9zm0-68.5c0-12.8 0-20 .5-27.4-4.7 9.9-20.1 32.5-31.3 48.5h30.8v-21.1z"/></svg>