<svg xmlns="http://www.w3.org/2000/svg" xml:space="preserve" baseProfile="tiny" overflow="visible" version="1.2" viewBox="0 0 1000 1000"><path d="m630.5 599.9 35.5 66-66-35.5s16.3-6.1 20.3-10.1 10.2-20.4 10.2-20.4z"/><path fill="#FFF" d="m246.6 157.8 31.3-2.2L598 466.5 469.2 594 158.1 279.2l.2-36.3 84.8-84.8"/><path d="M578.3 456.7c-.4.3-.5.7-.4 1.2.1.6.6.5 1 .3.4-.1.9-.4 1 .2.1.4-.1.9-.3 1.2-.3.5-.7.3-1.1 0-1.5-1.4-3.1-2.7-4.5-4.2-.4-.4.5-1.1 1.2-1.2.8.5-.2 1.8.8 2 .9.1 1.5-.5 2.1-1.3.8-1 2.7-1.3 2.6-2.8 0-1.4-1.6-2.1-2.6-3.1l-12.9-12.9c-3.8-3.8-7.7-7.6-11.4-11.5-1.2-1.2-2-1.3-3.2 0-5.1 5.2-10.3 10.3-15.4 15.5-.9.9-1.2 1.8-.6 2.9 1.2 2.4 2.4 4.7 3.4 7.1 1.5 3.5 2.8 7.2 4.3 10.7 3.3 7.9 6.6 15.7 9.9 23.5 1.4 3.4 1.6 3.4 4.2.9 2.1-2 4.1-4.1 6.5-5.9l-7.2 7.2c-1.9 2-1.8 2.8.5 4.2 2 1.2 4 2.7 6.5 3.5-.6-2.3-1.3-4.6-.3-6.8 2.1-4.5 6.6-6.7 11.2-3.9 3.7 2.2 5.9 2.2 8.7-1.1 3.8-4.5 8.2-8.4 12.2-12.8 1.1-1.2 1.3-2.7-.4-4.3-3-3-6.1-6-9.2-8.9-3.9 5.6-9.3 9.7-14.2 14.3 1.6-1.6 3.1-3.2 4.7-4.7 2.6-2.3 4.6-5.1 7.2-7.3 2-1.7 1.6-3.7-.7-5.9 1 0 2.6-1.3 2.7 1.1 0 .3.6.6.9.9 3.3 2.9 6.4 6 9.3 9.3 3 3.4 2.8 4.7-.4 8-.9.9-2 1.5-2 3.1-.1 4.5-5 11-9.5 11.9-2.8.6-3.5 2.1-4.3 4.4-.6 1.8.1 2.6 1.3 3.3 1.2.7 2.4 1.2 3.8-.3 4.3-4.5 8.8-8.9 13.2-13.3.5-.5.9-1.4 1.6-1.2 1.8.7 3 2.3 4.1 3.8.8 1.1-.6 1.8-1.3 2.5-12.3 12.3-24.6 24.7-37 37l-32.4 32.4c-15.1 15.1-30.1 30.2-45.2 45.2-2.8 2.8-2.6 2.6-5.6 0-1.8-1.6-1.6-2.5 0-4 5.3-5 10.3-10.3 15.5-15.4.4-.4 1.3-.8.8-1.7-.6-1-1.4-.4-2 0-1.6 1-3.4 1.1-5.1 1.4-.6.1-.8.1-1.1.7-1.2 3.1-4 4.9-6.2 7.2-1.5 1.7-3.5 2.4-5.8 2-1.3-.2-2.3.1-3.2 1.1-.8 1-1.8 1.8-2.8 2.7-1.5 1.3-4.6 1.2-6.1-.2-3.7-3.6-7.4-7.2-11.2-10.6-1.3-1.1-.9-1.6.1-2.4 1 2.1 2.7 1 4.7 1-2.4.8-1.7 1.7-.7 2.7 2.3 2.4 4.7 4.7 6.8 7.2 1.9 2.3 4.9 2.1 7.1 0 4.4-4.3 8.3-9.2 13.1-13.1 1.4-1.1 2-2.1 1-3.9-1.2-2.1-1.9-4.4-.9-6.9 1.6-4 5-5 9-5.6-3.3-2-5.5-4.5-6.3-8.2-.2-.8-.4-2.3-2-2.9-10.9-4.2-21.8-8.6-32.7-13.1-1.4-.6-2.3-.4-3.3.7-5.2 5.3-10.4 10.4-15.6 15.7-1.1 1.1-2.9 2-2.9 3.4-.1 1.2 2 1.7 2.8 2.7 4.1 5.2 9.2 9.3 13.7 14.2l3.3 3.3c.4.4 1.3.7.2 1.5-1 .7-1 .2-1.3-.5-.1-.4-.5-.7-.8-1l-13.5-13.2-82.2-82.2-4.2-4.2c-.4-.4-.7-1.3-1.7-.7-1.3.9-2.1-.2-2.8-.9-38.2-38.1-76.3-76.3-114.5-114.4L229 362c-.3-.4-.8-.8-.4-1.3 1.1-1.5-.2-2.2-1-3-6.5-6.6-13.1-13.1-19.6-19.6-8.1-8.1-16.3-16.1-24.5-24.2-6.4-6.3-12.9-12.6-19.3-19-1.1-1.1-1.7-2.5-.1-3.8 1.3-1 .7-2-.1-2.8-1.9-1.9-3.7-3.9-5.7-5.6-1.3-1.1-2-2.3-2.1-3.9-.1-3.9-.2-7.8-.4-11.7-.3-5.7-.9-11.4-1-17-.1-2.7-1.1-5.6 1.6-8 3-2.5 5.6-5.5 8.3-8.2.5-.5 1.4-1.1 1.1-1.6-1.3-2.2.6-3 1.6-4 8.1-8.2 16.3-16.3 24.5-24.5 1.4-1.4 2.1-5.1 4.9-1.1.7-4 1.2-4.5 4.6-3.9-1.5 1.9-.2 3.1 1.1 4.3 3.3 3.2 6.6 6.4 9.7 9.8 1.5 1.7 2.4 1.5 3.9-.1 4.2-4.4 8.6-8.6 12.9-12.9 5.4-5.4 10.8-10.8 16.1-16.2.8-.8 1.5-1.4.4-2.5-4.5-4.4-9-8.9-13.4-13.4-.9-.9-1.7-1-2.7 0-8.8 9-17.9 17.6-26.5 26.7-.8.8-1.3 4.3-3.9 1.7 1.2-1.9 3.3-2.6 4.9-4.2 8.1-8.3 16.4-16.5 24.6-24.7.6-.6 1.1-1.7 2-1.4 2.2.8 3.1-.8 4.3-2 2.3-2.3 4.7-4.6 7-7 .9-.9 1.8-1.4 3.1-1.4 10.9.1 21.8.1 32.7 0 1.8 0 3.3.4 4.6 1.9 2 2.2 4.2 4.2 6.2 6.3.9 1 1.9 1.3 2.9.3 1.2-1.3 2.2-.5 3.2.2 2.2 1.7 3.8 3.9 5.8 5.8 7.5 7.1 14.8 14.5 22.1 21.8 11.7 11.6 23.3 23.3 35 34.9 1.1 1.1 1.9 3.2 4.1 1.5.2-.2 1.2.2 1.3.6.6 1.2 1.9 1.7 2.6 2.7 3.8 4.7 8.6 8.4 12.7 12.9 4.3 4.7 9.5 8.6 13.7 13.5 3.1 3.6 6.6 6.8 9.9 10.1 6.3 6.1 12.3 12.6 18.7 18.6 7.2 6.9 14.2 14 21.3 21 2.3 2.2 4.5 4.5 6.8 6.7-1.5 1.1-2.8 2.2-3.7 3.6 1.3.8 1.4-.6 2.3-.6-1.4 1.4-1.3 2.5.1 3.9 6 5.9 11.9 11.8 17.7 17.8 1.5 1.5 2.7 2.2 4.4.1-.5.7-1 1.2-1.4 1.7-.4.5-.1 1.2.4 1.2 1.3 0 1.7-1.3 2.5-1.9.5-.4 1-1.1.3-1.5-1.1-.6-1.4-1.7-2.1-2.4-6.1-6-12.1-12-18.1-18-.9-.9-1.8-1.6-3.1-1.8.6-1.3 1.2-1.7 2.3-.6 9.5 9.6 19.1 19.2 28.7 28.7.6.6 1.4 1.3.9 2-1.4 1.8.1 2.6 1.1 3.6l76.7 76.7c1.9 1.9 3.8 3.7 5.7 5.6 4.1 4.1 8.1 8.4 12.4 12.2 3.4 3 5 4.7 6.3 7.9 0 .1.1.1.2.2-1.1 1.4-2.4 2.7-3.8 4zM291 252.9c.3.2.7.4 1 .6v.5c-1.5 3.1-1.2 3.8 2 5.4.2.1.5.2.6.4.2.7-.3 2 1.3 1.5 1.5-.4 1.5-2 2.3-2.7 2-1.5 2.6-3.6 3.7-5.5.2-.4.8.1 1.2.2 1.6.5 2.3-.2 2-1.8-.2-.9-.6-1.5 1.1-1.2 2.4.5 3.3-2.2 4.7-3.5.8-.8.6-2.3-.6-3.4-2.8-2.6-5-6-8.1-8.1-2.6-1.7-3.7-4.4-6-6-3.2-2.2-4.8-5.8-8-8.1-.9-.7-2-.8-2.8-1.6-1.4-1.3-2.6-2.8-3.3-4.7-1.2-2.8-4.4-3.2-7-.6.6-2.6-2.7-2.9-2.5-5.3.8.3 1.2 1.9 2.2 1 .5-.5-.2-1.3-.5-2-.5-1.1-2-1.9-2.2-2.5-.9-1.9-3.6-1.8-4-4-.1-.3-.3-.9-.5-.9-3.4.2-3.1-3.3-4.8-4.8-1.6-1.3-2.6-1.5-4.1 0-3.4 3.5-6.8 6.8-10.3 10.2-.5.5-.8 1.4 0 1.6.8.2 1.5.3.8 1.1-.4.5-1.4 1.4-2.2 0-.3-.7-1.1-.7-1.2-.1-.1 1-1.4.8-1.4 1.7.6.5 2.7-.4 1.6 1.8-.2.3 1.4.8 2.3.7 1.3-.1 2.9-1 1.9 1.8-.5 1.5 1.4 2.9 2.4 4.1.6.7 1.5 1.2 2.2 2 .9 1.1 1.8 1.9 3.4 1 .5-.3 1.5-.4 1.4.7-.2 2.9.4 3.4 3.5 3.5.3 0 2.1.4.8 1.7-.3.3-.7 1.3-.3 1.3 2.3-.1 2 1.2 2 2.8 0 1.3 1.3 1.2 2.4 1 .6-.1 1.5-.7 1.5.6.1 2.9 2.7 5.9 5.6 6.7.6.2 2-.2 2 1 0 .9-1 .4-1.6.8 1.5.7 2.9 1.5 4.3-.2.4-.5.9-.5 1.3-.5.6.1.2.7.2 1 0 .5.2 1 .2 1.5-.1 4.6 1.4 6 5.8 5.5 0 .4-.1.6-.5.7-.7.3-1.6.7-1.4 1.5.3.9 1.1 1.4 2.2 1.1 1.1 2.4 2.4.2 3.4.5zm133.7 140.3c4.8-5 9.8-9.8 14.7-14.7 2.5-2.5 2.5-2.5-.3-4.9 1.2.5 2 1.1 3.3.9-1.1-1.9-2.7-3.1-4.2-4.4-1 .7-.4 1.6-.2 2.6-.9-1.9-1.9-1.6-3.1-.5-5.5 5.3-10.3 11.2-16.1 16.2-.6.5-.5 1-.3 1.6-.6.3-1.8.3-.8 1.4.7.9 1.3 1.8 2.1 2.6.4.4 1.1.9 1.5.8.9-.3-.1-1.2.2-1.7.8 2 1.7 1.7 3.2.1zM209 272.8l.2.1c-.6 1.5-.2 2.3 1.1 3.5 1.7 1.6 3.3 3.3 4.8 5.1 1.8 2.2 4.1 4 6.2 6 1.2 1.1 1.9 3.2 4.1 2.9.1 0 .3.2.4.3 1 3.9 3.5 6.2 7.4 7.1-.4 2.3 2.5 2.5 2.9 4 .3 1.3.9 1.6 1.9 2.2.7.4 1.7 1 1.9 2.2.2 1.1.9.9 1.7.1.5-.5 1.3-.5 2-.8-.2.9 1.2 1.7.3 2.4-1.4 1.1-.4 1.7.3 2.3.8.7 1.2.4 2.2-.4 4.4-3.6 7.6-8.5 12.2-11.8 1-.7-.4-2.1 1.1-2.3 0-.2.1-.4.1-.6.3-1.5.1-2.8-1.8-3.2-1.4-.3-1-2.1-2.1-2.9-2.4-1.8-5-3.7-6.8-6.1-2.2-3-5-5.4-7.7-7.9-1.4-1.4-2.3-4.4-5.6-3.5-.8.2-.8-.8.6-2.3-1.5.2-1.8-1-2.6-1.7-2-1.9-3-5.4-6.7-5.3-.7 0-.9-.6-.6-1.3.5-1.4-1.2-2.5-1.6-2.4-2.6.9-3.3-1.7-5-2.4-.6-.3-.6-.9-.5-1.3.8-2.8-.9-3.1-3-3.1.8-1.6-.6-2.6-1.3-3.4-1-1.1-2.7-1.4-3.7-2.8-.3-.3-2.6.2-3.4 1-4.2 4-8.4 8-12.4 12.2-1.6 1.6 0 3.2.9 4.5 1.5 2.1 4.3 3 5.5 5.6.3.6 1.1 1.3 1.9 1.2 1.3-.1 1.9 0 1.7 1.6-.1.4.5 1.1 1.3.4.7-.7 1.4-.2 2 .5l.1.3zm296.3 278.4c1.2-2.4 2.1-4.6 2.6-7.8l-2.1 2.1c0-.5 0-1 .1-1.5.1-.4.4-.8-.2-1-.7-.2-.7.2-1 .7-.7 1.5-1.2 2.9-3.6 1.9-2.4-1-2.4-2.5-1.4-4.2.6-1 .7-1.4-.3-1.9-5.9-3.1-11.7-6.1-17.6-9.2-4.7-2.5-9.6-4.8-14.2-7.5-1.5-.9-3.4-.4-4.8-2.2-1.2-1.5-3.8-1.8-5.5-3-1.7-1.1-3.6-1.8-5.6-2.8-.6 1.7-.6 3.1.9 4.2s1.5 2.6 1.2 4.2c-.3 1.8-.7 3.5-1.1 5.3-.4 1.8-1.4 2.8-3.3 1.8l-7.8-4.2c-11-5.9-21.9-11.8-32.9-17.6-2.4-1.3-3.3-3.1-2.9-5.7.2-1.4.5-2.7.8-4 .4-2.1 1.2-3.7 3.8-2.7.5.2 1 .3 1.3-.4.2-.5.4-.9-.1-1.4-.5-.5-.9-1-1.4-1.6 3.8.9 6.9 3.2 10.3 4.9 7.7 3.8 15.3 8 22.9 12 6.5 3.5 13.1 6.9 19.7 10.3 10.5 5.3 20.9 11 31.5 16.2 3.5 1.7 7.1 3.4 10.4 5.5 1.1.7 2.8-.3 3.5 1.6.1.4.8-.4 1.2-.7 11.2-11.2 22.5-22.4 33.7-33.7 1.7-1.7-.2-3.5-.9-4.9-4.3-8.5-8.9-16.9-13.4-25.3-2.5-4.6-5.4-9.1-7.6-13.8-4-8.4-8.5-16.4-12.8-24.7-6.9-13.5-14.3-26.7-21.4-40.1-.6-1.2-1.5-2.3-1.5-3.8 3.3 4 5 8.9 7.6 13.3.8 1.3 1.4 3 3.4 1.1.7-.7.4-1.1.2-1.7-.5-1.6.3-2.5 1.8-2.9 2.1-.5 4.1-1 6.3-1.3 1.8-.2 3.2.5 4.2 2.3 4.7 8.9 9.5 17.6 14.2 26.4 2.6 4.8 5.1 9.6 7.6 14.5 1.3 2.6.7 3.5-2.2 4-1.3.2-2.6.9-4 .4.8-1.1 2.2-.9 3.3-1.1 2.7-.7 3.1-1.3 1.7-3.8l-8.7-16.2c-4.2-7.7-8.4-15.4-12.5-23.1-1.1-2-2.5-2.5-4.4-2.3-1.6.2-3.2.7-4.7 1-.9.2-1.8.6-1.5 1.6.2.8.4 2 2 1.7 1.7-.2 4.2 2.3 4.3 3.9 0 .6-.3 1.1-.7 1.3-2.2.8-1.1 1.8-.4 3.1 4.3 7.8 8.5 15.7 12.6 23.6.7 1.3 1.2 2.1 2.9 1.7 2.3-.5 2.6 1.9 3.5 3.2.9 1.2-.1 1.9-1.1 2.6-1.4 1-.6 1.9.4 2.3 1.1.4 2.3.4 3.5.6-2.1 1.1-3.9.8-5.4-1.1-1.1-1.5-2.6-.7-4.2-.9 1.5 4.4 3.6 8.3 6.1 11.7 1.9 2.7 2.6 5.9 4.2 8.7 5.8 10.1 11.1 20.5 16.7 30.7.8 1.4.6 3.6 3 3.7.4 0 .2.3.3.5.1 1.7.1 1.7 1.8 1.2 5.4-1.7 10.8-3.4 16.1-5.1.6-.2 1.3-.5 1.9-.7.6-.2 1.6-.1 1.5-1-.1-.8-1-.5-1.5-.5-.8 0-.8 0-.4-.8.6-1.1-.8-1.1-1.3-1.4-2.8-1.8-5.7-3.4-8.6-5-1.2-.6-1.9-1.4-2.4-2.5l-8.7-21c-2.6-6.1-5.2-12.2-7.9-18.5l-6.2 6.2c-.1-.1-.2-.2-.4-.3 1.5-1.5 3-3.1 4.6-4.5 1.6-1.4 1.6-2.8.8-4.6-3-6.4-6.8-12.4-10.2-18.5-4.5-8.1-9.1-16.2-13.9-24.1-5.6-9.1-11.5-17.9-17.3-26.8-3.4-5.3-6.9-10.6-10.4-15.9l-3.3-5.1c-.5-.7-1.1-.7-1.8-.7h-10.9c-1.6 0-2.2.4-1.3 2.1 2.7 4.9 5.5 9.8 8 14.8 3.1 6.2 6.6 12.3 9.7 18.5.8 1.6 1.9 3 2.2 4.8-2.9-2.7-4.1-6.5-5.9-9.8-4.9-8.9-9.5-17.9-14.2-26.9-1.1-2.1-1.9-1.7-3.4-.3-21.7 21.8-43.5 43.6-65.3 65.3l-37.9 37.9c-2.1 2.1-2.1 2.1.5 3.4 15.6 8.1 31.2 16.1 46.8 24.2 1.4.7 2.6 1.7 3.9 2.6-4.8-1.5-9-4.4-13.5-6.6-4-1.9-7.9-3.9-11.8-6.2-1.1-.6-2.1.2-3.1-.5-2.1-1.4-4-3.2-6.4-4.4-6.3-3-12.4-6.3-18.7-9.6-.2 2.8-.1 5.4-.5 8-.7 4.5 2.3 6.4 5.4 8.5 9 6 17.9 12.2 26.7 18.5 10.8 7.7 22.2 14.5 33.8 21 6.2 3.5 12.3 7.3 18.6 10.7 2.4 1.4 5.1 2.3 7.8 3.3 1.1.4 1.9 0 2.7-.9 1.4-1.6 3-3.1 4.9-4.2-1.6 1.6-3.1 3.2-4.7 4.7-.9.9-.9 1.2.4 1.7 11.7 4.7 23.3 9.4 35 14.2 1.4.6 2.4.5 3.3-.7.3-.4.7-.7 1.1-1.1 3.4-4.1 6.9-4.5 11.7-.4 2.3 1.9 1.6-1 2.4-1.4.6 1.2-1.3 2.3-.2 3.9zM178.9 275.1c-.9.3-1.9.4-2.7.9-1.4.9-2.4 1.7-.8 3.6 4.7 5.4 9.5 10.7 14.8 15.5 3.9 3.6 7.4 7.8 11.2 11.6 2.7 2.7 5.6 5.1 8.5 7.5.8.7 1.8 1.2 1.3 2.5-.4 1.3-1.7 1.9-2.8 2.6-.5-1.2-2.4-1.3-2.5-2.4-.1-1.3-.9-1.8-1.6-2.5-4-4-8.1-7.9-11.9-12-1.5-1.7-3.6-2.3-5.3-3.7-1.2-.9-.2-1.8-1-2.6-4.7-4.6-9.4-9.2-14.4-13.5-1.2-1-4.3 1.6-4.4 3.7 0 2-.2 4 2 5.5 1.3.9 2.5 2.4 3.7 3.6.6.6 1 1 1.6-.2 1-2 2.4-1.8 3.8-.2 1.2 1.4 2.7 2.7 4 4.1.8.9 3 .5 2.7 2.6-.1.5.8.4 1.4.4.3 0 .6-.1.8-.2-.7 3.6 2.8 4.4 4.5 6.3 2.9 3.3 6.4 6.3 9.8 9.2 1.9 1.7 3.8 3.4 5.4 5.4 2 2.4 4.3 4.5 6.6 6.7 2.2 2.1 4.1 4.5 6.7 6.1.6.4 1.1 1.6 1.8.8.5-.6 1.4-1.4 1-2.5-.9-2.6 1.6-3.4 2.9-4.5 1.3-1.1 2 .7 2.9 1.4.7.5 1.2 1.2 1.9 1.8 2.9 2.9 2.7 4.9-1.2 6.6-2.4 1-3.6 3.2-5.4 4.7-1.7 1.4.4 2.8 1.2 3.6 10 9.3 19.5 19.2 29.1 28.8 32.8 32.7 65.5 65.5 98.3 98.2l2.4 2.4c.7-1.8.5-3.5.5-5 0-8.3-.7-16.6 0-24.8.2-2.5-.6-4.3-2.4-5.9-7.5-7.1-14.7-14.7-22.2-21.8-3.4-3.3-7.3-6-10.2-9.9-1.3.9-1 3.3-2.9 2.9-1.3-.3-2.5-1.6-2.8-2.8-.4-1.9 1.8-1.7 2.7-2.6L182.4 271.5c.4 2.8-1.6 3.1-3.5 3.6zm265 79.2c.8.8 1.6.8 2.6.8 6.5-.3 12.9 0 19.4-.2 3.8-.1 7.6-.5 11.6-.1-.2-1.4-1-1.8-1.6-2.4l-80.6-80.6-24.2-24.2c-.6-.6-1.3-1.1-1.9-1.7-.5-.5-1-1.2-1.7-.7s-.4 1.3-.2 1.9c.9 2.9-1 4.6-4.3 4.6-3.4 0-4.9-.5-6.5-3.7-1.1-2.2-4.1-3.7-6.1-5.7-1-1-1.8-2-.4-3.2.9-.8.3-1.3-.3-1.9-9.1-9.1-18.2-18.1-27.2-27.2-.8-.8-1.6-1.2-2.4-.4-.9.8-.2 1.5.5 2.2l18.5 18.5c.8.8 1.9 1.2 2.6 2 1.3 1.3 1.3 2.9 0 4.1-1.3 1.1-2.7.8-3.8-.6-5.8-7.4-13-13.4-19.5-20.2-.2-.2-.4-.3-.6-.4-4.1 5.7-4.4 5.7-9.2.9-2.9-2.9-5.9-5.9-8.9-8.8-1.2-1.2-1.1-2 0-3.2 3.5-3.6 3.5-3.6-.1-7.2l-12-12c-.8-.8-1.7-1.6-2.6-.6-1.2 1.2-1.9.6-2.7-.3-1.8-2-4.1-3.5-5.3-6-.1-.3-.4-.7-.7-.7-4.9-.8-3.5-4.5-3.5-7.5 0-1.5.6-2.7 2.2-2.6 2.9 0 6.1-1.4 8.1 2.7 1.4 2.7 4.4 4.6 6.6 6.9.8.7 1.6 1.4.3 2.5-1 .9-.6 1.8.3 2.6 8.3 8.3 16.6 16.5 24.8 24.8.8.8 1.4 1.2 2.3.2 1-1.1 0-1.5-.6-2.1-5.3-5.3-10.6-10.5-15.8-15.9-.7-.7-1.5-1.1-2.3-1.5-1.4-.6-2.1-1.6-2-2.9.1-1.1 1.2-2 2.2-2.4 1.2-.4 2.4.5 3.1 1.4 5.4 6.7 12 12.2 17.9 18.4.5.5 1 .8 1.8.6 1.6-.3 2.7 1 2.6 2.3-.1 1.3.4 1.9 1.1 2.6l26.1 26.1c.6.6 1.2 1.6 2.4 1.3 1.4-.4 1.8-2 .7-3.1-4-3.9-8.1-7.8-12.1-11.7-8.8-8.8-17.6-17.6-26.5-26.4-8.5-8.4-16.9-16.9-25.4-25.3-.4-.4-.7-1-1.7-.9-2 .3-2.9-.5-2.6-2.8.2-1.2-1.2-1.8-2-2.5-3.9-4-4-4.1-8-.3-3.8 3.6-7.5 7.4-11.2 11.1-.6.6-1.9 1.2-1.2 2.6.7.4.9-.3 1.3-.5.9-.7 1.7-2.3 3.1-.7 1.1 1.2 2.5 2.4.3 4-1.5 1.1-.3 1.9.5 2.7l16.2 16.2c6.4 6.4 12.7 12.8 19.2 19 6.3 6 12.3 12.4 18.6 18.4 4.6 4.4 9.2 9 13.7 13.7 3.2 3.3 6.5 6.4 9.8 9.6 20 20 40 39.9 60 59.8 1.2 1.2 2.1 2.7 3.3-.1.4-1 1.6-1.1 2.4-.2.8 1 2.9 1.6 1.5 3.5-.5.7-1.3 1.1-2.1 1.8 11 10.4 21.6 21 32.2 31.6zm-1.9 3.9c1.7-1.7 1.8-2.6 0-4.4-7.2-7-14.3-14.1-21.3-21.3-1.5-1.6-2.5-1.5-4 0-7.6 7.7-15.3 15.4-23 23l-30.4 30.4c-10 10-19.9 20-30 29.9-1.9 1.9-1.8 3 .1 4.8 5.1 4.9 9.8 10 15 14.8 2.4 2.3 4.4 5 7.3 6.8 1.1.6 1.6.7 2.3-.2.4-.5.9-.9 1.3-1.3l41-41c14-13.8 27.8-27.7 41.7-41.5zm-187.2-41c-1.4 1.7-1 5.4.9 5.3 1.8-.1 1.5 1.1 2.2 1.7 5 4.5 8.8 10.2 14.1 14.5.6.5 1 1 1.8.9.5-.1 1 .1 1.1.5.4 1.9 2 2.8 3.1 4.1 1.9 2.2 3.7 4.4 6 6.1 3.2 2.4 5.5 5.8 8.3 8.7 8.2 8.1 16.2 16.4 24.3 24.5 2.8 2.8 5.8 5.6 8.6 8.4 1.1 1.1 2.4 2 3.3 3.3.9 1.1 2.3 1.4 3.1.6 4.3-4.9 9.8-8.7 13.7-14 1.3-1.7 1.1-2.8-.5-4.1-3.6-2.9-6.3-6.8-9.7-9.8-4.5-4-8.5-8.4-12.8-12.5-4.2-4-8.4-7.9-12.2-12.2-2.4-2.8-5.4-5.2-8.1-7.8-.9-.8-1.3-2.1-3-2.2-1.1-.1-.9-2.4-2.3-3.2-.2-.1-.6-.5-.9-.8-2.2-2.2-4.4-4.5-6.6-6.7-.2-.2-.4-.3-.6-.4-1.4-.4-3.5-2.1-3.9-3.5-.2-.7-.2-.9-1-1.1-.8-.1-1.9-.5-1.6-1.8 0-.2-.3-.6-.6-.7-3.3-1.4-4.3-5.2-7.2-7.1-.7-.5-1.1-1.8-2.2-.5-.3.3-.7.3-.7-.2 0-.3 0-.8.2-.9.3-.2 1.3-.1.7-.8-.6-.7-1.6-1.3-2.6-1.3-.8 0-.5.8-.4 1.2.3 1.2-1.3 1.7-1.1 2.9.1.6-.7.1-1 .4-.5.3-.5 0-.5-.4-.1-4.2-1.5-1.4-2.6-.5-.1.1-.3.1-.4.2-.1.1-.1.3-.2.5-3 2.8-6.1 5.5-8.7 8.7zm56.9-41.3c1.2.2 1.4.8 1 1.4-1.3 1.5-.5 1.4.8 1.6 1.7.2 3.3.2 3.1 3-.1 1.3 1.8 2.9 3 4.1 2.5 2.7 5 5.4 7.7 7.7 1.9 1.5 3 4.3 5 4.7 2.2.5 1.6 2.7 3.5 3.4 1.6.6 2.4 3 4 4.2 2.5 1.8 4.3 4.3 6.5 6.4 2.9 2.7 5.7 5.6 8.5 8.5.9.9 1.6 2 3 2.2.7.1 1.1.6 1.2 1.4.2 1.8 2.2 3.5 4 3.4.6 0 .4.2.5.6.1.6-.1 1.4.6 1.9 3.9 2.4 5.9 6.7 9.7 9.3 1.7 1.1 2.7 3.2 4.2 4.7 2.3 2.5 4.5 2.3 6.9-.1 3.6-3.7 7.4-7.3 11.1-10.8 1.2-1.1 1.9-2.1.4-3.7-1.7-1.9-2.8-4.3-5.4-5.4-.7-.3-.9-1.6-1.7-2.4-6-5.9-11.7-12.3-18-17.9-2.9-2.6-5.1-5.7-8.1-8.1-3.7-3-6.4-7-10-10-2.6-2.1-4.5-4.9-7.1-7-4.9-4.1-8.7-9.3-13.5-13.5-3.8-3.3-6.9-7.3-10.6-10.6-1.3-1.2-2.2-1.1-3.1.1-2.2 3.2-5.8 4.9-8.1 8.1-1.4 2-3.5 3.8-5.5 5.4-1.6 1.3 1.1 1.9.3 3 .9.3 2 1.9 2.7-.6-.5 3.4.1 4.5 3.4 5zm-99.9-58.5c1-1 1.6-1.6.3-3-3.6-3.9-7.3-7.7-11.1-11.3-.5-.5-1.3-1-1.5-.8-2.2 2.1-5.7 1.6-7.7 3.6-7.9 7.7-15.6 15.5-23.4 23.3-1.3 1.3-1.5 2.2-.1 3.5 4.3 4.1 8.4 8.3 12.5 12.5 1.2 1.3 2 1.4 3.3 0 4.6-4.7 9.3-9.3 13.9-14l13.8-13.8zm204.6 110.9c-7.9-7.8-15.8-15.5-23.6-23.2-5.4-5.4-10.7-10.8-16.1-16.2-3.3-3.3-6.8-6.5-10.1-9.9-4.6-4.7-9.2-9.5-13.9-14-6.6-6.4-13.1-12.8-19.6-19.3-22.8-22.6-45.4-45.3-68.1-68.1-1.8-1.8-2.9-2-4.5 0-2.7 3.3-5.6 6.4-8.7 9.2-10 9-19 19-28.7 28.2-.7.7-1.7 1.3-1.9 2.7 3.6.6 5.9 2.5 5.1 6.9 2.3-1.4 3.6-3.3 5.3-4.9 5.1-4.9 10.4-9.6 15.3-14.8 3.4-3.7 7-7.2 10.4-10.9.5-.6.8-1.1 1.8-1.1 5.3-.2 10.5-.2 15.8-.8 3-.3 4.8 1.2 6.5 3.1 5.8 6.4 12.2 12.2 18.3 18.3 12.3 12.1 24.4 24.3 36.6 36.5 26.3 26.3 52.7 52.6 79 78.9.6.6 1.1 1.4 2.2 1.6.2-1.3-.6-1.7-1.1-2.2zm129.2 180.4c-1.2.4-2.3 1.6-3.3 2.6-7.6 7.5-15.2 15.1-22.7 22.7l-8.5 8.5c-2.7 2.7-3.6 6.3-4.4 9.7-.4 1.7 1.6 3 2.3 4.7 1.1 2.6 1.3 2.6 3.4.5 17.7-17.8 35.5-35.6 53.2-53.4l2-2c-.1-.1-.1-.3-.2-.4-7.3 2.3-14.6 4.6-21.8 7.1zm54.6-22.4c2.2-2.2 2.1-2.7-.2-4.7-.8-.7-1.3-.6-1.9.1-4.3 4.8-9.5 8.8-13.7 13.8-.6.7-.9 1.2-.7 2.3.5 2.7-1.3 4.5-3.9 4-1.2-.3-1.8.2-2.5.9-4.7 5-10.2 9.2-14.6 14.6-2.1 2.6-4.8 4.7-7.2 7.1-5.2 5.2-10.1 10.6-15.5 15.6-9.5 8.9-18.3 18.5-27.6 27.6-2.1 2.1-4 4.3-6.1 6.3-1.4 1.3-2.7 2.5-2.3 5 .3 1.8-2 3.4-3.9 2.8-1.1-.3-1.5 0-2.2.6l-15.6 15.6c-1 1-1.2 1.9-.1 2.7 1 .7 1.9 2.4 3.6.5 2.6-2.9 5.5-5.6 8.2-8.3l49.3-49.3c18.9-19.1 37.9-38.1 56.9-57.2zM217.3 221.4c-1.1.3-1.7 1.1-2.4 1.8-8.6 8.6-17.5 17.1-25.8 26-3.7 3.9-7.8 7.2-11.4 11.2-1.4 1.6-2 2.6 0 4.4 4.7 4.4 9.2 9.1 14 13.9.6-6.8 1.3-13.1 1.6-19.5 0-1.1.4-1.4.9-2l29.4-29.4c.1-.1.2-.3.4-.6-4.8-.6-5.5-1.2-6.7-5.8zm358.4 281.3c.7-.7 2.5-1.4 1-2.8-1.7-1.7-3.9-1.9-4.9-.4-2 2.9-4.6 5.2-7.1 7.7-8.3 8.2-16.4 16.5-24.7 24.7-5.6 5.5-11 11.2-16.5 16.8-3.3 3.3-6.3 6.8-9.7 10-1.8 1.7-3.7 3.3-4.8 5.6-.4.9-1.3 1.8-2.2 2.2-2.8 1.2-3.9 3.7-4.7 6.4-.2.8-.6 1.7.4 2.3 1 .5 1.4-.5 1.9-1 7.9-7.8 15.7-15.7 23.5-23.5l12.3-12.3c11.9-12.1 23.7-23.9 35.5-35.7zm-131 15.5c1.1-3.3-1.9-3.7-3.5-4.6-7.6-4.1-15.2-7.9-22.7-12.2-.5-.3-1.4-1.1-1.9.2-.4 1.1-1 1.9-2.3 1.2-1.3-.7-3.1-1-3.4-3-.1-.5 0-1 0-1.6-.1-.9-.8-1.5-1.5-1.6-.9-.2-1.5.6-1.7 1.3-.5 2-1.1 4-1.1 6-.1 1.9 1.3 3 3 3.8 10.9 5.7 21.7 11.5 32.5 17.3 2.5 1.3 5 2.6 7.4 4 .9.5 1.8.7 2.1-.4.7-2.6 1.6-5.1 1.2-7.8-.2-1-1.2-2.7-2.2-1.1-2.3 3.6-3.4-.2-4.8 0-.6-.7-1.2-1.2-1.1-1.5zm46.6-155.8c-4-3.9-8-7.9-12-11.7-.6-.6-1.1-2.2-2.4-.9-1.1 1.2.3 1.7.9 2.2 4.7 4.7 7.7 10.7 11.4 16.1 5.2 7.6 10.2 15.4 15.3 23.2.8 1.3 1.6 2.6 2.5 3.9.7 1 1.5 1.4 2.4.2.2-.3.5-.5.7-.7 3-3 3.1-3.1 6.3-.2 1.8 1.6 2.1-.4 3-1 1.3-.9 1.5-1.9.2-3.2-4-3.9-7.9-7.8-11.8-11.7l-.2.2c-5.4-5.5-10.9-10.9-16.3-16.4zm-83.7 151.9c-3.5-2.2-6.8-1.6-10.2-1.2-1.2.1-3-.5-3.5.9-.4 1.3 1.4 1.9 2.2 2.9 5 6.3 12.6 8.9 19.2 12.9 4 2.5 8.2 4.5 12.3 6.8.5.3 1 .8 1.6.5 3.4-1.2 6.9-2.2 10.5-4.1-11.1-6.3-21.8-12.2-32.1-18.7zm-16.1 4.8c.9.9 1.6 1.6 2.9.3 1.2-1.2 1.2-1.9 0-3.1-2.8-2.9-2.7-3 .2-6 2.2-2.2 2.2-2.2-.4-4l-29.1-20.4c-4.3-3-9.1-5.5-12.7-9.5-.6-.7-1.1-.8-1.9-.1-1.2 1.1-.2 1.6.4 2.3l20.4 20.4c6.7 6.6 13.5 13.3 20.2 20.1zm145.7-89c.4-1 .1-1.9-.4-2.7-4.7-8.4-9.2-16.9-14.3-25.1-1.9-3.1-5.1-5.4-7.7-8-.8-.8-1.1-.5-1.3.5-.3 2.8-.6 5.6-1 8.4-.1 1.2.5 2.1 1.1 3.1 6.1 10.6 12.4 21.1 18.5 31.7.4.6.8 1.1 1.6 1.5 1.2-3.2 2.3-6.3 3.5-9.4zM250.6 183.4c-.7-.3-.8-.9-.3-1.4.5-.6 1.1-.5 1.5.1 1 1.6 1.8.8 2.9 0 2.4-1.9 4.2-4.2 6.3-6.4.9-.9.5-1.4-.2-2.1-5.2-5.1-10.3-10.3-15.4-15.5-.9-.9-1.5-.8-2.3.1-2.7 2.7-5.3 5.5-8.1 8.1-1.2 1.1-1.1 1.8 0 2.9 4.3 4.2 8.6 8.6 12.9 12.8.9.9 1.3 2.6 3 2.6.3-.6.2-1-.3-1.2zm-77.1 77.2c.8.9 1.6 1.4 2.5.2 1.9-2.4 4.7-4 6.6-6.5.6-.8 1.4-1.7 0-2.5-.6-.3-1-.8-.6-1.4.5-.7 1.2-.7 1.8-.1.8.9 1.4 1.3 1.1-.4-.1-.3 0-.5.3-.4.4.1 1 1.2 1.2 0 .2-.9-1-1.2-1.4-1-2.1 1.1-2.9-.6-4.2-1.6-4.4-3.6-7.7-8.3-12-12-1.2-1-1.6-.7-2.5.1-2.6 2.7-5.2 5.3-7.9 7.9-1.1 1.1-.9 1.7.1 2.7 2.6 2.5 5 5 7.5 7.5s5 4.9 7.5 7.5zM399 420.2c8-7.7 15.8-15.3 23.3-23.4-1.5 1-3.1 2.9-4.9 1.1-2.3-2.3-6.2-4-4.5-8.9l-24.4 24.4c4.9-2.2 10.3 1.6 10.5 6.8zm-171.2-64.1 1.1 1.1c.9.8 1.7 2 3 .6 1.2-1.3.1-2-.7-2.8l-18.9-18.9c-7.6-7.6-15.1-15.3-22.8-22.7-7.2-6.9-13.9-14.4-21.4-20.9-.7-.6-1.2-2.1-2.5-.8-1.2 1.2-.1 2 .7 2.8l31.4 31.4c10 10.1 20 20.1 30.1 30.2zm34.2-183c.9.9 1.9.2 2.2-.2 4.4-5.4 10.2-9.4 14.4-15 .1-.1 0-.3 0-.2-10.6 0-21.1.1-32 .1 5.1 5.1 10.3 10.2 15.4 15.3zm-97.4 99.6c2.7-2.8 5.3-5.8 8-8.6.9-.9 1.3-1.5.1-2.7-5.1-4.9-10.1-10-15.2-15-.2-.1-.5-.1-1.1-.3.6 10.8 1.1 21.5 1.7 33 2.5-2.4 4.5-4.4 6.5-6.4zm278.3 262c-1.2-.5-2-.3-3 .6-4.8 4.9-9.7 9.8-14.7 14.7-1.2 1.1-1.3 1.9 0 2.9.5.4 1 1 1.5 1.5 3.7 3.7 3.8 3.8 7.4.1l16.5-16.5c-2.7-1.2-5.2-2.2-7.7-3.3zm-68.3-89.4c-3.1.3-7.4-2-8.4-4.8-.5-1.4-.6-3 .9-4.5 6.2-6 12.2-12.1 18.4-18.4-1.4-.4-1.8.4-2.3.9-8.4 8.4-16.8 16.7-25.2 25.1-.7.7-.9 1.4-.9 2.3.1 5.5.1 11 .1 16.6 5.8-5.7 11.5-11.4 17.4-17.2zM188.3 243.9c-.4.4-.8.7-1.1 1.1-.8.9-.6 1.9.1 2.6.9.8 2.3.2 2.4-.5.4-3.1 3.6-3.2 5.2-5 3.3-3.7 7-7.1 10.5-10.7.4-.4.9-1 .8-1.2-1.3-2.9 1.6-3.6 2.7-5.3.1-.2.4-.5.6-.5 4.6.8 5.7-3.6 8.4-5.6 1.4-1 2.7-2.4 4-3.6 1-.9 2.4-2 1.4-4-.5-1 3.4-4.5 4.7-4.1 1.3.5 1.9 0 2.6-.8 4.1-4.4 9-8 12.7-12.8 1.2-1.5 1.6-3.7 4-4.2.8-.1 1.6-1.4.6-2.3-.8-.7-1.9-.8-2.8.1-.5.6-1.1 1.1-1.7 1.7L232.2 200c-14.7 14.6-29.3 29.3-43.9 43.9zm107.5-76.7c-.7-.7-1.4-1.6-2.4-2-.6-.2-1.1-.6-1.6.1-.4.6-.3 1.1.1 1.6.2.3.5.5.7.7 6.7 6.5 13.1 13.3 20 19.7 3.9 3.6 7.5 7.7 11.4 11.4 5 4.7 9.7 9.7 14.7 14.4 5.6 5.4 11.4 10.7 16.7 16.5.4.4.9.8 1.3 1.2.4.4.8 1 1.5.4.6-.6.6-1.2 0-1.8l-1.3-1.3-30.5-30.5c-10.2-10-20.4-20.2-30.6-30.4zm99.9 254.3c-.8-1.8-2.4-2.7-3.5-4-.2-.2-.9-.2-.9-.2-.7 2.3-3.4 1.9-4.8 3.5-4 4.6-8.6 8.8-12.9 13.1-1 1-2.9 1.9-.3 3.3.4.2.5.8.7 1.3-.2.1-.5.2-.5.2-.6-.9-1.8-1.8-2.4-1.2-1.1 1.1.5 1.7 1.1 2.3.7.7 1.3 2.1 2.3 1.8 1.5-.4 3.1-.3 4.5-1.8 4.6-5 9.5-9.7 14.4-14.5 2.4-2.4 2.4-2.4-.6-4-.3-.2-.5-.5-1-.9 1.4.2 2.3 1.5 3.9 1.1zm106.8 143.7c4.7 1.1 6.7-2.3 5.4-6-1.6-4.3-4.5-8-8.3-10.8-2.3-1.7-6.7-.4-9 2.6-1.4 1.8-1 4.8 1 7l1.8 1.8c2.5 2.7 5.6 4.6 9.1 5.4zm29.2-162.8c-1-1.1-2-1-2.8.1-3.2 4-3.9 2.7-1 7.4 2.7 4.4 5.2 9 7.6 13.6.8 1.6 1.4 1.9 2.7.5 1.9-2 3.8-4 5.9-5.9 1.4-1.3 1.2-2.2-.1-3.4-2.1-1.9-4.1-4-6.1-6-2-2.2-4.1-4.2-6.2-6.3zm-213.6 46.9c6.4 6.6 12.9 13.1 19.5 19.5.8.8 1.8 3.2 3.8 1 1.1-1.3 2.3-1.7.2-3.6-6.9-6.4-13.6-13.2-20.1-20-2.7-2.8-5.8-5.3-8.3-8.2-1.3-1.5-2.2-1-3.4.1-1.3 1.2-1.1 2.1.1 3.2.9.8 1.7 1.7 2.6 2.6 2.2 2.2 2.2 2.2 4.9 1-2 1.8-.3 3.3.7 4.4zm127.5-75.4 16.8-16.8c-5.2-.2-10.6-.3-16-.5-.6 0-1.2-.2-1.7.4-2.3 2.5-5 4.5-6.9 7.6 4.9 1.2 8.4 5.3 7.8 9.3zm-148.5 54.6c1.1 1.3 2.7 1.3 3.8 2.6.8.9 1.7-1.4 2.8-2 .4-.2.5-1.6.3-1.6-2.7.6-2.9-2.2-4.3-3.3-1.7-1.2-3-2.9-4.5-4.3-4.7-4.6-9.3-9.3-14-13.9-.1-.1-.3-.2-.4-.3-.7-.4 0-3-1.9-1.4-.9.8-3 1.2-1.2 3.9 1.4 2 3.1 3.6 4.6 5.3 1.9 2.2 4.1 4.2 6.2 6.3 2.9 2.9 6 5.6 8.6 8.7zm-56.4-63.1c-1.4-1.5-1.8.1-2.3.6-.5.6-2.4 1-.9 2.5 6.9 7 13.8 13.9 20.7 20.9 1.1 1.1 1.9 1.6 3.1.2.9-1.1 2.1-1.9.4-3.5-3.3-3-6.4-6.3-9.6-9.5l-.1.1c-3.8-3.7-7.6-7.4-11.3-11.3zM171 267.2c-3.2 4.4-7.8 7.3-11.4 11.2-1.3 1.4-1.5 2.4.1 3.6.4.3.7.7 1.1 1.1 1 1 2 2.7 3.4 2.6 1.6-.1 1.3-2.2 2.1-3.3 1-1.4 2-2.7 1.9-4.7 0-1 1.2-1.8 2.4-2 3.9-.6 6.5-3.9 10.3-4.7 1-.2.5-1.1-.1-1.6-.9-.7-1.5-2.5-3.1-.8-1.1 1.2-1.9 2-3.6.2-2.4-2.4-.2-3 .7-4.6-1.3 1-2.9 1.8-3.8 3zM490.8 580c.9.8 1.4-.3 1.8-.8 2.6-2.5 5.1-5.2 7.8-7.7 1.4-1.4 2-2-.2-3.6-3.1-2.3-6-4-9.9-2.5-3.2 1.3-4.6 4.3-3.7 7.7.5 1.7 1.3 3.1 2.2 4.5.7 1.2 1.4.9 2.5.2-.1.9-1.6 1.3-.5 2.2zm86.7-90.1c1-.7 1-1.3-.1-2.5-1.7-1.9-3.6-3.1-5.9-3.7-2.7-.7-6.3.7-7.5 3-1.4 2.7-1.2 5.5.4 8.1 3.2 5.1 3.3 5 8.3.1 1.7-1.3 2.8-3.6 4.8-5zM410.7 278.2c-1.1-.9-1.6-1.3-2.6 0-.8 1-2.5 1.6-.7 3.4 5.2 4.9 10.1 10 15.3 14.9 1.3 1.2 2.5 2.5 3.7 3.8 1.7 1.7 2.4.5 3.5-.4 1.3-1.2.8-2.2-.3-3.2-1.8-1.6-3.4-3.4-5.6-5.5-4.4-3.9-8.3-9-13.3-13zm-39.3-39.1c-.9-.9-1.5-1.8-2.9-.4-1.2 1.2-1.9 2.2-.5 3.6l5.4 5.4c4.5 4.4 9 8.7 13.3 13.2 1.3 1.3 1.9 1.1 3.1.1 1.3-1.1 1.7-2 .3-3.3-1.9-1.8-3.8-3.8-5.7-5.6l-.1.1c-4.2-4.4-8.6-8.7-12.9-13.1zm142.2 206.3c2.9-1.8 1-3.5 0-5.3-3.8-7.1-7.6-14.3-11.2-21.5-1.1-2.3-2.6-2.9-5.2-2.2 5.3 9.9 10.5 19.8 16 30.2.2-.7.2-1.1.4-1.2zm36.5-22.3c.5-.5.6-1 .1-1.5l-.4-.4c-3.3-3.8-4.9-3.8-8.2.5-.7.9-1.4 1.8-2.2 2.5-1.3 1.2-1.9 2.1-.9 4 .8 1.5-.7 3-1.1 4.6-.3 1.1-.9 2-.5 3.6 4.5-4.6 8.8-9 13.2-13.3zM433.9 536.9c-2.1.8-4.2 2.5-6.8 1.3-.8-.4-1.9.1-2.6.8-1.7 1.7-3.4 3.4-5.2 5.1-.8.8-.8 1.2 0 2.1 3.5 3.9 3.5 3.9 7.3.3 3.5-3.4 6.8-6.8 10.7-10.7-1.5.5-2.4.7-3.4 1.1zM285.2 173.5c-3.8-3.8-5.1-3.7-8.2.8-.5.8-.4 1.3.1 2.1 1.5 2.6 3.9 4.4 5.8 6.5.8.8 1.5.6 1.8-.2.5-1.2 1.5-1.8 2.4-2.5 2.6-2.1 2.5-2.2.1-4.7l-1.5-1.5c-.2-.1-.3-.3-.5-.5zM424 537.7c.5-.2 1-.3 1.1-.9.1-.7-.6-.7-1.1-.9-4.7-2.6-9.3-5.2-13.9-7.9-.5-.3-1.1-1-1.6-.5-.3.3-.3 1.2-.2 1.7.4 2.3 1.2 4.5 3 6 3.7 3.6 8.6 4.6 12.7 2.5zm-66.4-301.4c-1.2-1.2-2.4-2.8-3.2.4-.2.9-1.6 1.7-2.6 2.2-1.7.8-1.7 1.6-.6 2.9 1.8 2.1 4.1 3.6 6.2 5.4.4.4 1 .6 1.4.2 1.6-1.3 3.2-2.7 4.3-4.4.4-.7-.1-1.3-.6-1.8l-2.9-2.9c-.7-.6-1.3-1.3-2-2zm68.6 268.2c5.8 3.1 11.6 6.1 17.3 9.2.9.5 1.5.8 2.1-.3.6-1.1.1-1.7-.9-2.2-8.5-4.3-16.9-8.7-25.4-13.1-.6-.3-1.2-1.2-1.7-.3-.4.7-.5 1.7.4 2.4 2.8 1.5 5.5 2.9 8.2 4.3zm-228-226.2-.3.3 38.7 38.7.3-.3-38.7-38.7zm122-39.2-.3.3 38.5 38.5c.1-.1.2-.2.4-.3-13-12.8-25.8-25.6-38.6-38.5zm76.9 77.7.4-.4-35.9-35.9-.4.4c12 11.9 24 23.9 35.9 35.9zm-129.8 81.8c2.1 2.1 2.5 2.1 4.5-.4.5-.7.7-1.1 0-1.7l-5.7-5.7c-1.1-1.2-2-.4-2.8.4-.8.9-1.8 1.8-.4 3l2.7 2.7c.6.6 1.2 1.1 1.7 1.7zM336 230.9c1 1 1.8 2 2.5 3.3.3.5.3 1.4 1.3 1.3.6 0 1-.3 1.2-.8.3-.8-.3-1.3-.8-1.8-3.8-3.7-7.5-7.5-11.3-11.2-3-3-6-6.1-9.1-9.1-.4-.4-.8-1.3-1.7-.6-.8.8.1 1.2.6 1.6 3.1 3.1 6.2 6.3 9.3 9.4 2.7 2.6 5.3 5.3 8 7.9zm-57.9 127.9.4-.4-38.8-38.8c-.1.1-.2.3-.3.4 12.8 12.9 25.7 25.9 38.7 38.8zm247.7 38.5c-1-1-2.1-2-3-3-.8-.9-1.2-.6-2.1 0-1.8 1.3-1.9 2.3-.1 3.6 2.1 1.6 3 4.2 4.7 6.2 4.1-3.3 4.1-3.3.5-6.8zm-181-167.2c.4.4.9 1.4 1.6.7.7-.7-.1-1.3-.6-1.7-6-5.9-12.1-11.7-18.1-17.5-1.2-1.2-2.2-2.7-3.6-3.8-.5-.4-.8-1-1.4-.5-.8.7.2 1.1.5 1.4 3.6 3.7 7.3 7.4 11 11 3.6 3.5 7.1 7 10.6 10.4zm50.6 32.5c-1.3-1.5-2.4-.7-3.6.1-1.4.9-1 2.1-.2 3.1 1.2 1.4 2.5 2.8 4 4 1.5 1.2 3.7.4 4.4-1.4.2-.7-.1-1.1-.6-1.5-.8-.6-1.4-1.4-2.2-2.1l.1-.1c-.5-.8-1.3-1.4-1.9-2.1zm78.9 78.7c-1.1-1.4-2.1-1.6-3.6-.2-1.5 1.5-1.1 2.4.2 3.5 1 .8 1.8 1.8 2.7 2.7 1.9 1.9 3.5 1.7 4.8-.7.4-.8 0-1.1-.4-1.5l-2.4-2.4c-.3-.4-.8-.9-1.3-1.4zM312.5 205.5c-5.4-5.7-11-11.2-16.6-16.8-.4-.4-.7-.8-1.2-.9-.5-.1-.6-1.3-1.4-.4-.6.8.1 1.1.5 1.5l19.5 19.5c.4.4.8.9 1.6.6.1-1.8-1.5-2.5-2.4-3.5zm33 264.6c-1-1-1.8-2.2-3.3-.5-1.2 1.4-1.7 2.5 0 3.8 1.1.9 2.2 2 3.1 3.1 1.2 1.4 2 1.3 3.3.1 1.4-1.3 1.6-2.2 0-3.4-.6-.4-1.1-1.1-1.7-1.6-.4-.5-.9-1-1.4-1.5zm-139.2-144c4.5 3.1 6.5 8.3 10.6 11.7.4.3.7.7 1.1 1.1.7.6 1.4.4 2-.2.7-.7.5-1.7-.1-2.1-5.2-3.8-9.1-9-14.1-13-.2-.2-.6-.3-1-.6-.3 1.7.9 2.7 1.5 3.1zm107.6-128.7c-4.4-4.3-8.9-8.6-13-13.3-.5-.5-1-1-1.8-.8-.5.2-.8.5-.9 1.1-.1.7.4 1.3.9 1.5 4.1 1.5 6 5.5 9.1 8 4 3.3 7.1 7.5 11.4 10.4-1-3-3.6-4.8-5.7-6.9zm127.9 118.1c1 1.6 1.9 2 3.5.4 1.5-1.5 1.5-2.5-.1-3.7-1.1-.8-2.2-1.7-2.9-2.8-1.3-1.9-2.3-1.3-3.7-.1-1.6 1.4-.7 2.3.4 3.3.6.5 1.1 1.1 1.6 1.6l-.1.1c.5.4 1 .7 1.3 1.2zm-6.6-13.4c-1.1-1.3-2-1.5-3.4-.2-1.3 1.3-1.5 2.2-.2 3.5.9.9 1.7 1.8 2.6 2.7 1.7 1.8 3.6 1.4 4.9-.9.4-.7.1-1.1-.3-1.5l-2.2-2.2c-.4-.4-1-.8-1.4-1.4zM306.4 431c-1.4-2-2.5-1.1-3.8.1-1.8 1.6-.4 2.3.6 3.3.8.9 1.9 1.6 2.5 2.6 1.4 2 2.7 1.5 4.1.1 1.7-1.6.3-2.5-.8-3.5l-1.3-1.3c-.4-.4-.9-.8-1.3-1.3zm-71.9-65.3c1.2 1.5 2.2 1.3 3.6 0 1.4-1.4 1-2.3-.2-3.4-.9-.8-1.9-1.6-2.5-2.6-1.3-1.8-2.6-1.8-4.1-.4-1.7 1.7-.4 2.7.8 3.7.4.3.7.7 1.1 1.1.3.6.8 1.1 1.3 1.6zm181.7 178c.6.6 1.3.9 2 .2.8-.9 0-1.1-.6-1.4-.6-.2-.5-.7-.4-1.1.1-1.6-.9-2.2-2.2-2.8-2.8-1.2-5.1-2.9-6.4-5.9-1.1-2.7-1.3-2.6-4.5-1.2 4.1 4.2 8.1 8.2 12.1 12.2zm-12.9-273.2c-.7-1.3-1.7-2-3.1-.8-1.2 1.1-2.4 2.1-.6 3.7.9.8 1.6 1.9 2.6 2.8 2 1.9 3.4 1.6 4.7-.8.5-.8.5-.8-1.9-3.4-.4-.6-1.3-.7-1.7-1.5zm-86.6-34 .4-.4-38.5-38.5c-.1.1-.2.3-.3.4 12.8 12.9 25.6 25.7 38.4 38.5zm46 .4c1.5 2.4 2.9.9 4.1-.2 1.6-1.3 0-2.1-.7-2.9-.8-1-1.9-1.8-2.7-2.8-1.3-1.6-2.2-1.3-3.4.1-1 1.2-1.7 2.1.1 3 .7.3.5 1.4 1.4 1.4.4.5.9.9 1.2 1.4zM226.5 337.1c-2.2-2-2.1-2.1-3.9.4-.3.4-.7.8-1.1 1.1-1.1 1.2-2.9 1.9-.7 4 2.1 2 2.9.3 4.1-.8l.5-.5c.6-1.2 3.8-1.8 1.1-4.2zm47.5 68.1c1.1 1.4 2 1.5 3.3.1 1.2-1.3 1.8-2.2.1-3.5-.8-.5-1.4-1.3-2-2-1.4-1.8-2.5-1.5-3.9.1-2.4 2.6 1.1 2.8 1.3 4 .4.6.9.9 1.2 1.3zm36.4-191.8c-.4-.7-1.1-1.2-1.4-2.1l2.7 2.7c.7.7 1.8.9 2.2.2.6-1-.8-.7-1.2-1.1-2.5-2.4-5.4-4.5-7.3-7.5-.3-.5-.2-1.5-1.2-1.5-.4 0-.5.4-.6.7-.1.8 0 1.8.7 2 1.9.6 2.1 2.5 3.4 3.6-1.9-.9-2.9-3-5.2-3.5l9.1 9.1c.4-1.7-.7-1.9-1.2-2.6zm-79.2 123c0-.1.1-.1.2-.2.5-.9-1.9-4.4-3.9-5.5-1.6-.9-2.4.5-2.9 1.4-1.1 2 1.4 2.4 1.9 3.5 2.7 2.7 3.2 2.8 4.7.8zm344.9 160.1c-.3.3-.6.6-.5 1.1.2.8 4.8 3.6 5.7 3.4.9-.2 1.3-.6 1.5-1.5.3-1 .3-1-1.4-2.7-2.7-2.4-3.6-2.5-5.3-.3zM281.6 361.3l-.4.4 35.6 35.6c.1-.1.2-.3.3-.4-11.9-11.9-23.7-23.7-35.5-35.6zm116.3 159c-.7-.7-1.2-1.4-2.3-.2-.8 1-1.1 1.5 0 2.4 2 1.9 3.6 4.7 7 2.9.3-.1.5-.4 1.3-1-2.9-.6-4.4-2.4-6-4.1zM185.7 304l-.5.5c5.3 5.6 10.6 11.2 16.4 16.3l.5-.5c-5.5-5.4-10.9-10.9-16.4-16.3zm-18.6-20c.5-.4 1-.7 1.4-1.2 1.3-1.7 2.7-2.6 4.6-.7.7.7 1.4.7 2-.1.6-.7.3-1.5-.4-2-1.1-.8-1.5-2-1.5-3.9-2.9 2.6-5.2 4.7-6.1 7.9zm24.5 14.9-.4.4 15.6 15.6.4-.4-15.6-15.6zm215 231c1.3-.4.5-1.5.6-2.4.1-1.2-.6-1.3-1.5-1.2-.9.1-1.7.3-2.6.4-.7.1-1.7-.3-2.1.6-.4.9.8 1.2 1.1 1.8 1.3 1.9 3 1.2 4.5.8zM280.2 169.8c.4-.4.9-.9.4-1.6-.5-.6-1.2-.7-1.8-.1-1.7 1.6-3.3 3.3-5 5-.5.5-.4 1.1.1 1.6.6.7 1.1.2 1.5-.2l2.4-2.4.1.1c.8-.8 1.6-1.6 2.3-2.4zM175.8 283l-.4.4 12.3 12.3.4-.4-12.3-12.3zm394.3 215.3c3.8-.2 7-3.3 7.8-7.8l-7.8 7.8zM359.2 248.9c-.3.3-.8.7-.3 1.3.4.5.9.5 1.4.2 2.2-1.4 3.9-3.3 5.2-5.6.1-.2 0-.7-.2-.9-.4-.4-.9-.3-1.3.2-.6.7-1.2 1.4-1.4 1.6-1.5 1.3-2.5 2.2-3.4 3.2zm140.2 331c1.2 1.1 2.2.9 3.1 0 1.6-1.6 0-2.8-.8-4-.6-1.1-1.3-.1-1.9.4-.5 1.1-2.1 2-.4 3.6zM376.9 364.2l-.2-.2-18.4 18.4.2.2 18.4-18.4zM220.9 224c.9.8 1.9.8 2.8-.1.9-.9 1-2 0-2.9-.9-.9-2-.8-3 0-.8 1.1-.8 2.1.2 3zm149.2 218.1c1.2-.1 1.7 2.6 2.9 1.2 1-1.1-1-1.6-1.6-2.5-.7-1-2-1.5-1.8-2.9 0-.3.2-1-.5-.9-.5 0-1 .2-1.2.8-.8 2.1.8 2.9 2 3.8.1.2.2.5.2.5zm49.7-45.5c.2-3.2-5.1-3.6-3.4-7.4-3.1 2.8-2.3 4.5 3.4 7.4zm22.2-24.7c.7.6 1.2 1.1 1.7.5.6-.6-.1-1.1-.7-1.7-.6-.6-1.4-1.2-2-2.1-1.2-2-2.4-1.9-4.3.2 2.9-.5 3.9 1.8 5.3 3.1zm-46.8 46.7c.5.4.7 1.4 1.4.9.8-.5.1-1.3-.4-1.7-.7-.7-1.3-1.5-2-2.3-1.1-1.4-2.5-1.9-3.9.2 2.7-.4 3.5 1.8 4.9 2.9zm105.6 154-6.4 6.4c3.4-.7 5.4-3 6.4-6.4zM176.7 295.1l-.5.5c2.1 1.9 3.7 4.2 6 5.8.1-.2.3-.3.4-.5-2-1.9-4-3.8-5.9-5.8zm170.7-62.9c1.3 1.8 2.4 3.7 4.8 4.3-.8-2.3-2.3-3.8-4.8-4.3zm83.2 139.9-.3-.3-7.6 7.6c.1.1.2.2.3.4 2.5-2.6 5-5.2 7.6-7.7zM364 248.2c-.5.5-1 1.2-1.2 1.9-.1.4.6.4 1 .5 1.1.1 1.8-.4 2.3-1.3.4-.7.3-1.5-.1-2.5-.8.5-1.5.9-2 1.4zm-72-62c1.1-1.1-1.5-1.6-1.6-2.9 0-.2-.4-.2-.6-.4-.6-.5-1.1-1.9-2-.9-1 1.1.9 1 1.1 1.8.1.2.3.4.7.7.9.3 1.5 2.6 2.4 1.7zm28.5 20.4c-.8-.7-1.4-.8-2.2-.1-.7.7-.8 1.4-.1 2.2.8.9 1.3.2 1.9-.4.4-.4 1.3-.8.4-1.7zm88.5 68.9c-.8-.9-1.6.3-2.2.9-.7.7-2 1.5-1.1 2.4.8.8 1.4-.8 2.2-1.2.3-.7 1.8-1.2 1.1-2.1zM263.8 388.6c-1-.9-1.6.6-2.2 1.2-.6.5-1.8 1.1-.9 2 1.1 1.1 1.4-.7 2.3-1 .2-.8 2-1.1.8-2.2zm125.5-125.4c1 1 1.6-.7 2.3-1.2.6-.5 1.7-1.3.9-2-.8-.8-1.4.5-2.1 1-.4.7-1.8 1.5-1.1 2.2zM180 273.8c.6-.1 1.3-.4 1-1.1-.2-.5-.9-.4-1.4-.2-1.6 1-3.5 1.3-4.8 2.7 1.8-.4 3.4-1.2 5.2-1.4zm27.6-45c1.5-.3 2.3-1.3 2.9-2.6.2-.4-.2-.7-.6-.5-1.4.6-2.3 1.6-2.8 3 .4.1.4.1.5.1zm66.3-59.7c-.3.7-.3 1.8.3 1.7 1.4-.1 1.8-1.6 3.2-2.7-1.9-.4-2.9-.6-3.5 1zm95 68c.1-.2-.3-.5-.5-.8-1.2.9-2.5 1.7-2.9 3.4 1.9 0 2.9-1 3.4-2.6zm-143.2-25.9c.9-.7 2.2-1.1 2.2-2.6 0-.5-.6-.4-.8-.3-1.1.8-2.4 1.5-2.6 3.4.6-.2 1-.3 1.2-.5zm207.5 88c-2.6 0-3.3 1.7-4.4 3.6 2.1-.7 2.9-2.2 4.4-3.6z"/><path d="M454.5 581.7c-.1-2.7 2.6-3.1 3.9-4.6.4-.4 1.4.1 1.3 1-.1 1.1.5.8 1 .5.5-.2 1-.6.3-1.2-1.6-1.4-3.1-2.8-4.8-4.1-.4-.3-.8.2-.9.6-.1.4-.3.9.6.9 2.1.1 1.5 1.1.5 2-.8.8-1.4 1.6-2.3 2.3-1.2 1.2-.8 2 .4 2.6 0 .1 0 0 0 0zM289.6 249.4c0 1.4-.5 2.6-1.8 3.3.9 2.2 2.2-.1 3.3.3.4-1.7-.6-2.7-1.5-3.6zM292.1 254c.3-.2.4-.4 0-.5v.5zM209.2 273c0-.2-.1-.3-.3-.3l.1.2.2.1zM259.7 295.3c0 .2-.1.4-.1.6 0-.2.1-.4.1-.6zM449.7 428.6c5.9-5.9 11.8-11.8 17.7-17.6 2.7-2.6 5.7-2.3 7.7.8 1.1 1.7 2.2 1.8 3.9.9 2.9-1.6 3.9-1.3 5.5 1.5.4.7.7 1.4 1 2 1 1.9.6 3.4-1.5 4.1-2.5.8-2.3 2-1.1 4 5.4 8.5 10.7 17 16 25.5.8 1.3 1.6 1.4 2.9.4 2.4-1.9 3.6-1.6 5.2 1.1.3.5.6 1 .8 1.6 1.4 2.8 1.4 3.6-1.3 4.8-2.2 1-1.5 2-.8 3.4 2.3 4.4 2.1 5.8-1.4 9.3l-32.9 32.9c-4.2 4.2-5 4.3-10.5 1.6-.8-.4-1.6-.8-2.4.3-2.5 3.4-2.5 3.4-6.4 1.1-3.1-1.8-3.3-2.2-1.4-5.1.8-1.2.7-2-.5-2.8l-25.8-15.6c-1.4-.9-2.3-.7-2.9 1-.9 2.3-2.5 2.9-4.6 1.3-.7-.5-1.5-.8-2.2-1.2-1.8-1.1-2.6-2.6-1.1-4.4 1.5-1.9.6-2.9-1-4-3.9-2.8-4.2-5.6-1-8.8 9.3-9.1 18.4-18.4 27.6-27.6l10.5-10.5zm34.9 56.3c1.6 1.6 2.4 1.5 3.8-.1 5.3-5.5 10.8-10.8 16.1-16.2 2.5-2.5 2.6-4.8.3-7.7-1-1.3-1.9-1.3-3.3-.5-2.8 1.8-3.5 1.5-5.1-1.2-2.1-3.8-2.2-3.9 1.3-6.8 1.4-1.1.4-2.1-.1-2.9-3.3-5.4-6.7-10.7-10-16-1.9-3-3.6-6-5.5-9-1.1-1.7-2.2-2.8-4.3-1.1-1.9 1.5-3.3.4-4.4-1.3-.5-.9-1-1.8-1.4-2.7-.7-1.6-.9-2.9 1.1-3.7 1.6-.6 2.7-1.6 1.2-3.5-1.7-2.2-3.9-3.1-5.4-1.8-2.1 2-4.5 3.6-6.3 6-2.5 3.4-6.2 5.7-9 8.9-4.2 4.6-8.7 8.9-13.2 13.3-1.3 1.2-.3 1.9.5 2.7 7.4 7.3 14.7 14.7 22.1 22.1 7.4 7.2 14.6 14.3 21.6 21.5zm-44.1-42.7c-1-1-1.6-1.5-2.9-.2-2.9 2.9-6 5.6-8.9 8.4-4.1 4-7.8 8.3-12 12.1-1.8 1.6-3.4 3.5-4.9 5.3-2.4 2.9-2.1 4.8 1 7 1.7 1.2 2.9 1.1 4-.8 1.7-2.8 2.3-2.9 5-1.3 4.1 2.4 4.1 2.4 2.1 6.7-.6 1.2-.3 2.1.9 2.7 5.6 3.3 11.1 6.7 16.6 10.1 2.9 1.8 5.9 3.4 8.8 5.2 1.4.9 2.4 1 3.2-.8.6-1.3 1.3-3.1 3.2-2.7 2.2.6 4.3 1.7 5.5 3.7.8 1.3-.5 2.5-1.1 3.4-1.1 1.7-.5 2.6 1 3.5 3.3 1.9 5 1.6 7.8-1.1 4.8-4.8 9.5-9.6 14.4-14.3 1.4-1.3 1.5-2 .1-3.4-7.3-7.2-14.5-14.4-21.7-21.7-7.5-7.2-14.8-14.5-22.1-21.8zm64.8 13.5c0-.6 1.7-.6.5-1.6-1.2-.9-1.5-3.5-3.8-2.3-1.1.6-2.3 1.2-3.1 2-.7.7-2 1.7-.1 3.2.7.6.9 1.9 2.4 1.7.8-.1 1.4 0 1.4-1.2.6-.9 2.7.1 2.7-1.8zm-24.2-35.8c1.7.5 1-1.1 1.4-1.4 2.1-2-1.8-2.6-.8-4.1-.2-.1-.3-.1-.5-.2-1.6-.4-5.4 1.8-6.1 3.4-.2.5-1 1.2-.2 1.4 1.4.5 1.5 3.2 3.8 2.1 1.2-.6.9-1.2.8-2.1-.1-.7.5-1 1.4-1.5-.7 1.1-1.4 2 .2 2.4zM422.7 478c0-1.4-.6-2-2.1-2.2-.5-.1-.4-1.8-1.4-1.1-.8.5-2.4.4-2.1 2.1 0 .2.1.4.1.5-3.3 2.2-.2 3.3.6 5 1 2.1 2.4-1.3 3.1.5.2-.7.9-1 .2-2.2-1-1.6 1.7-1.2 2.2-2.3 0-.6-.6-.1-.6-.3zm35.5 20.5c-3.2-2.7-4.2.4-5.4 2.1-.7 1-1.5 2.8.9 2.9 1 .1.6 2.3 2.6 1.1 1.3-.8 2.3-.7 1.5-2.4-.1-.2 0-.6.1-.6 2.6-.2.9-2.5 1.8-3.4-.8-.4-1.2.6-1.5.3zM507 537.4c-2.4-2.5-4.8-5-7.4-7.3-1.4-1.3-1.5-2-.1-3.4 8-7.8 15.8-15.8 23.8-23.7 1.9-1.9 3.8-5.1 5.8-5.2 2.3-.1 3.9 3.4 6 5.2 2.1 1.8 3.5 4.3 6.4 5.4l-32.4 32.4c-.2-1.8-1.3-2.6-2.1-3.4zm4.5-6.5c3 3 4.3 2.8 6.7-.8.4-.7.4-1-.1-1.5l-8.8-8.8c-.2-.2-.6-.4-.9-.4-1.8.5-2.7 2.1-3.6 3.5-.9 1.3.7 1.7 1.3 2.4 1 1.2 2.2 2.2 3.3 3.3.6.8 1.4 1.5 2.1 2.3zm16.7-29.1c-1.1-1.3-1.9-.9-2.9.2-2.7 3.1-2.7 3.1.3 6 2 2 4 3.9 5.8 5.9 1 1.1 1.9 1.3 2.9.1.5-.6 1-1.2 1.6-1.7 1.4-1 1.1-1.8-.1-2.8-1.4-1.2-2.6-2.5-3.9-3.8-1.2-1.3-2.5-2.5-3.7-3.9zm-6.5 6.1c-.7-.8-1.2-.8-2.1 0-3.4 3.5-3.4 3.4.1 6.9 1.8 1.8 3.7 3.6 5.4 5.4 1.1 1.2 2 1.2 3 0 .5-.6 1-1.2 1.6-1.7 1.2-.9 1.1-1.7 0-2.7-1.3-1.2-2.6-2.5-3.9-3.8-1.3-1.3-2.8-2.7-4.1-4.1zm-3.4 17.2c2.8 2.7 1.8 2.7 4.8 0 1.6-1.4 1.6-2.5.1-4-2.3-2.2-4.6-4.4-6.8-6.7-2.5-2.5-3.2.5-4.6 1.4-1.8 1.2-.6 2.1.3 3l3.7 3.7c.8.9 1.6 1.8 2.5 2.6zm-14.4 1.8c-1.1-1.4-2.1-1.4-3.3-.2-1.2 1.3-1.5 2.2.1 3.6 2.5 2.2 4.9 4.7 7.2 7.1 1.6 1.8 2.4.4 3.6-.5 1.5-1.2.6-2-.3-2.8-1.2-1.2-2.5-2.4-3.7-3.7-1.3-1.2-2.6-2.3-3.6-3.5zm25.7-28-.2.2 9.5 9.5c0-.1.1-.3.1-.4-3.1-3-6.3-6.2-9.4-9.3zM498.8 499.2c0 .9-.2 2-.1 3.1.1 1.4.6-.1 1 .1.7.4 1.3.9 1.6 1.6.2.4.6.8 1 .4.4-.3.2-.8 0-1.1-.8-1.3-2-2.4-2.4-4-.1-.4-.5-.4-1.1-.1zM323.9 433.1c-1.9-1.7-1.7-3.1.1-4.7 1.4-1.3 2.8-2.6 4-4 1.5-1.7 2.8-1.5 4.3.1 3.2 3.3 6.5 6.6 9.8 9.8 1.7 1.7 3.5 3.3 5.1 5 .7.8 1.6 1.7.5 2.9-1.8 1.8-3.5 3.7-5.4 5.5-1.3 1.4-2.6 1.3-4-.1-2.4-2.5-4.9-4.9-7.3-7.4-2.3-2.4-4.6-4.9-7.1-7.1zm18.3 8.7c2.3-2.4 2.3-2.6-.3-5-3.3-3-6.4-6-9.3-9.4-.5-.5-1-.9-1.7-1-.5-.1-.9-.4-.9-1 0-.5 1.5-.5.5-1.2-.9-.6-1.2.4-1.6.8-1.5 1.4-2.8 2.8-4.2 4.2-.7.7-1.5 1.3-.3 2.6.6-1.3 1.2-2.6 2.9-2.1-1.8 2-1.4 2.5 1 4.2 3.3 2.3 5.8 5.5 8.5 8.3.2.3.2.8.1 1.3-.2 1.2.8 2.1 1.7 1.8 2-.7 4.5-.5 5.8-2.7.2-.4 1-.7.4-1.2-.4-.4-1-.2-1.4.1l-1.5 1.2-.2-.2c.1-.1.2-.4.5-.7zm-2.8 5.1c.9 1.2 1.7.5 2.4-.2 1.9-1.8 3.8-3.7 5-6-2.1 2.5-4 5-7.4 6.2zM270.3 372.8c-.6-.6-1.5-1.3-.9-2.2 1-1.5 2.1-3.2 3.8-3.6 1.2-.3 2.3 1.1 3.3 2.1 2.5 2.6 5 5.3 7.7 7.7 3.8 3.4 4 4.1.6 7.5-1.1 1.1-1.9 1.2-3 0-1.8-1.9-3.8-3.8-5.7-5.7l-5.8-5.8zm3.4-1c-.5-.2-1.3-.3-1.6.4-.4 1 .6.7 1 1 3.2 1.9 5.2 4.9 7.9 7.4.5.5.4 2 1.3 1.5 1.2-.7.1-1.6-.4-2.4.8-.4 1.1 1.3 1.8.4.6-.9-.2-1.4-.8-1.9-2.2-2.2-4.4-4.4-6.6-6.5-.5-.5-1-1.6-1.8-.9-.9.8.3 1.4.8 2.3-.7-.6-1.1-1.1-1.6-1.3zM207.6 310.1c-1.9-1.9-3.7-3.9-5.7-5.7-1.5-1.3-1.4-2.4.1-3.5.4-.3.8-.7 1.1-1.1 1.2-1.6 2.3-1.7 3.8-.1 3.1 3.3 6.3 6.4 9.5 9.6 3.4 3.4 3.4 3.4-.1 6.9-1 .9-1.6 1-2.6 0l-6.1-6.1zm-1.8-9c-.2-.4-.5-.5-.8-.2-.8.6-1.8 1.2-1.5 2.5.1.6 0 1.3.9 1.7 3.8 1.8 6.6 4.7 8.6 8.4.3.5.5.7.9.5 1.1-.4 1.9-3.4 1.1-4.1-2.2-1.8-4-4-6.1-5.9-1.1-1-2.3-2.3-4.1-.1-.3-1.8 1.4-1.7 1-2.8zM342.5 449c.9-.9 1.8-1.9 2.7-2.7.8-.7 1.7-2.1 3-.6 1.1 1.3-.1 2-.8 2.8-1.6 1.8-3.6 3.2-4.7 5.4-.5 1-1.5 1.6-2.7.5-1-1-1.1-1.8 0-2.8.8-1 1.6-1.8 2.5-2.6 0-.1 0-.1 0 0zm4.5-2.3c-2 .8-3.3 2.4-4.3 4.2 1.8-1 3.3-2.4 4.3-4.2zM427.5 334.2c-.9-.9-1.8-1.8-.5-3 2-1.9 3.9-3.8 5.8-5.8 1.1-1.2 2.3-.8 3.2.1 5.2 5 10.4 10.1 15.5 15.2 1.2 1.2 1.3 2.5-.1 3.8-1.7 1.6-3.3 3.2-4.9 4.9-1.4 1.5-2.6 1.3-3.9-.1l-7.5-7.5c-2.6-2.6-5.1-5-7.6-7.6zm6-8-5.5 5.5c-.3.3-.3.7 0 1.3 1.2-.5 1-2.3 2.4-2.5.9.7-1.1 1.4-.2 1.8 1.3.5 1.5-1.4 2.7-1.5 0 .1 0 .3-.1.4-2.5 2.8-2.6 2.8 0 5.4 2.9 2.9 5.7 5.8 8.7 8.6.8.7 1.4 2.7 3 .9.5.6.8 2.2 2.1 0-.2 1.8-1.6 1.7-2.2 2.6 2.2-.3 6.7-5.2 6.4-6.8-.8.1-.4.7-.5 1.1-.2.5-.5 1-1.1.8-.3-.1-.7-.6-.5-1.1.7-1.7-.7-2.4-1.7-3.1-3.8-2.8-7.2-6.2-10-10-.6-.8-1.4-2.4-2.7-.6-.3.4-.6.5-1-.1-.3-.4-.5-.7-.1-1.1.7-.5 1-2 2.4-.9-.7-.5-1-1.8-2.1-.7zM379.2 276.4l5.7 5.7c.7.7 1 1.4.6 2.3-.5.8-1 1.3-1.8.1-.2-.2-1.6.3-1.1 1.6.6 1.7-.3 1.9-1.6 1.5-.7-.2-1.4-.7-1.9-1.3-3.5-3.5-7.1-7-10.6-10.6-1.1-1.1-1.5-2.3-.1-3.5.7-.6 1.3-1.2 1.8-1.8 1-1.3 2-1.1 3 0 1.9 2 3.9 4 6 6zm-.1 7.2c.4.3 1 .7 1.4.3.5-.5-.2-1-.4-1.6.6.3 1 .5 1.5.7.4.1.9.1 1.1-.4.2-.5-.2-.8-.5-1-3.3-2.1-5.9-4.9-8.2-8-.3-.5-.6-1.2-1.3-.7-.7.4-.3 1.1.1 1.6.6.7 1.2 1.3 2.1 2.1-1.8.3-2-1.7-4-1.5 2.8 3.2 5.4 6 8.2 8.5zM457.3 345.1c1.3-1 1.3-1.9.4-2.8-.9-.9-1.9-1.1-2.6 0-1.5 2.3-3.5 4.2-5.5 6-.6.5-1 1.2-.1 1.9.8.7 1.5.6 2.2-.1 1.8-1.8 3.4-4.1 5.6-5zM409.7 364.3c-7.8 4.7-15.1 8.9-22.4 13.3-1.8 1.1-3.3 2.2-4 4.5-.4 1.2-1.6 2.5-3.3 2.5-1.7.1-3.2-.3-4-1.9-.8-1.6-1.2-3.3 0-4.9 1.2-1.7 3-2.1 4.8-1.6 1.7.5 2.8.2 4.2-.7 8.8-5.4 17.7-10.6 26.5-15.8.9-.5 1.5-1.3 1.9-2.3 2.5-5.6 5.1-11.2 7-17 .1-.4.3-.8.8-1 .6-.2.8.4 1.1.8.8.8.6 1.5.2 2.4-1.3 3.5-2.6 7.1-3.9 10.5-.4 1.1-.7 1.9.3 3 1.3 1.5 1.1 2.9-1.1 3.6-2.5.7-4 2.6-5 4.9-1.1 2.5-2.4 4.9-3.9 7.2-4.7 7.5-9.7 15-15.9 21.3-4.4 4.5-9.5 8.3-14.8 12-10.9 7.6-22.5 13.7-35 18.1-1.7.6-3 .6-3.8-1.3 29.9-11.1 55.2-27.5 70.3-57.6zm-30.9 39.5c15.1-10.6 25.8-24.6 33.6-41.1-4.1 6.6-8.1 13.3-12.9 19.4-5 6.4-10.7 12.1-17 17.2-6.2 5.1-13 9.2-19.9 13-6.9 3.8-14.1 6.9-21.3 10 13.6-3.9 25.9-10.4 37.5-18.5zm4.3-25.1c10.6-6.4 21.8-12 31.7-19.5-10.8 6.2-21.7 12.1-31.7 19.5zm32.2-22.5.6.3c2.9-4.7 4.2-10.1 6.3-15.2-.3-.1-.5-.2-.8-.2-2 5-4.1 10.1-6.1 15.1zM378 378.9c-.9 1.1-.7 2.4.3 3.2 1 .8 2.1.4 2.9-.5 1-1 .3-2 .1-2.9-1.3-.8-2.4-.9-3.3.2zm38.5-21.7c-.5.5-1.1 1-.4 1.7.6.6 1.3.3 1.8-.2.5-.4 1.2-.8.6-1.6-.7-.7-1.3-.5-2 .1zM543.2 498.3c-1.6 2.2.8 3.4 1.4 4.8.7 1.5 2.1-.4 2.5-.8 1.5-1.4-.1-2.9-.8-4-.7-1.5-2-.4-3.1 0zM206.7 258.9c-.5-.3-1.5 0-2.1.5-1.3 1.2 1.8 1.3.9 2.7-.1.1 1.4.5 1.5.2.2-.9 1-1.9-.3-3.4zM228.3 282c-.6 1.2-1.8.9-2.8 1.1 0 1.4 1.2 1.2 1.7 1.8.1-1 1.9-1.3 1.1-2.9zM293.3 253.4l-.1-.1v.1zM428.8 380.4l-8 8 .2.2 8-8c-.1 0-.2-.1-.2-.2z"/><path d="M447.9 438.1c-1.3.6-1.9 1.5-3.1 1.5-.5 0-.8.5-.8 1.1 0 .6.3 1 .8 1.2.6.3 1.4.1 1.5-.5.2-1.2 1.5-1.7 1.6-3.3zM485 480.1c-.6.6-.7 1.2-.2 1.9.5.6 1.2.7 1.8.1.5-.5.7-1.2.2-1.9-.6-.6-1.2-.4-1.8-.1zM443 344l-9.9-9.9-.2.2 9.9 9.9.2-.2z"/><path fill="none" d="m234.629 92.188 70.71-70.71 424.26 424.26-70.71 70.71z"/><path d="M325.2 120.2c-3.7 5.5-2.4 10.6 2.6 15.6 4.7 4.7 8.4 5.2 11.5 2.1 3.5-3.5 2.4-7.1-3.9-17.4-11.8-19.3-9.2-28-2.1-35.1 8.8-8.8 22.7-9.7 37.3 4.9 15.2 15.2 13.7 29.2 6.2 38.2l-14.9-14.9c2.4-3.2 3.8-7.5-1.6-13-3.5-3.5-7-4.4-9.9-1.5-2.8 2.8-2 5.9 4.1 16 12.2 20.3 9.5 29.3 2.1 36.8-9.9 9.9-24.4 9.1-39.8-6.3-14.5-14.5-15.5-29-6.5-40.3l14.9 14.9zM349 175.8l30-30-5.2-5.2 10-10 5.2 5.2 2.3-2.3c8.6-8.6 18.1-9.4 27.9.5 2.2 2.2 4.8 5.1 5.6 6.6l-9.8 9.8c-.4-.6-1.1-1.5-1.8-2.1-2.6-2.6-4.4-2.5-7.3.4l-2.1 2.1 6.2 6.2-10 10-6.2-6.2-30 30-14.8-15zM429.3 151l15.3 15.3-21.4 21.4c8.2-1.4 25.6-3.2 37.8-5l18.3 18.3-40.9 2.2-11.1 51-18.1-18.1 8.5-33.7-9.4.1-16.3 16.4-15.3-15.3 52.6-52.6z"/><path d="m431.5 258.4 30-30-5.2-5.2 10-10 5.2 5.2 2.3-2.3c8.6-8.6 18.1-9.4 27.9.5 2.2 2.2 4.8 5.1 5.6 6.6l-9.8 9.8c-.4-.6-1.2-1.5-1.8-2.1-2.6-2.6-4.4-2.5-7.3.4l-2.1 2.1 6.2 6.2-10 10-6.2-6.2-30 30-14.8-15zM466.1 273.6c3.4-.1 33-1.9 38-2L487 254.4l10.3-10.3 33.7 33.7-10.1 10.1c-3.7.3-33.8 2.2-36.8 2.3l18.9 18.9-12.1 8.6-34.4-34.4 9.6-9.7zM514 340.9l1.3-1.3c10.4-10.4 21.9-12.3 38.2-9.6 12.5 2.1 16 2.4 19.7-1.4 3.5-3.5 3.9-6.9.7-10.1-3.9-3.9-7.7-2.5-12.2 1.2L547.9 306c8.4-7.4 22-11.8 36.7 2.9 14.2 14.2 11.4 26.8 3.3 34.9-6.8 6.8-13.4 7.8-28.8 4.6-8.8-1.7-13.5-1.8-16.2-.9l22.2 22.2-12.8 9.3-38.3-38.1zM635.1 383.5 614.6 363c-1.7 1.3-6.7 4.9-8.1 5.9 3.2.6 6.8 2.5 10.9 6.6 10.5 10.5 9 23.3-.4 32.7-10.4 10.4-25.2 12.3-39.3-1.8-12.3-12.3-13.1-25.4-5.3-35.3l14.3 14.3c-2.2 3.6-2.6 7.3.9 10.8 4 4 8.9 2.6 13.5-2s6-9 1.6-13.4c-3.5-3.5-6.7-3.3-9.9-1.9L581 364.7c7.3-4.9 25.2-18.1 33.1-24.5l34.1 34.1-13.1 9.2zM611.4 438.2l35.3-35.3c-2.8-1.7-6.4-4.8-8.3-6.7l9.7-9.7c5.9 4.5 12.7 6.1 18.3 5.9l10.5 10.5-50.4 50.4-15.1-15.1z"/><path fill="none" d="M0 0h1000v1000H0z"/><path fill="none" d="M99.8 599.6H500v300H99.8z"/><path fill="#FFF" d="M185.5 750.6h61.6c31.6 0 53.1 17.8 53.1 46.1 0 32.4-24.5 47.2-53.9 47.2h-28.6v55.6h-32.2V750.6zm32.3 67.7h24.6c14.9 0 25.4-5.7 25.4-20.9 0-15.4-11.1-21.1-24.8-21.1h-25.2v42zM415.4 782.6h-56.9c-.9 7.6-3.4 21.2-4.3 27.1 5.3-4.4 13.4-7.6 25.6-7.6 28 0 43.8 20.2 43.8 47.3 0 27.5-15 52.7-53.4 52.7-28.1 0-48.8-14.4-51.9-39.8H349c2.7 9.8 9.6 16.1 21.7 16.1 14.7 0 21.7-10.8 21.7-26.5 0-14.8-5.5-25.4-21.8-25.4-13.2 0-18.6 5.7-21.8 14.2l-27.9-3.6c3.8-18.1 9.9-60.2 12.2-79.8h86.6l-4.3 25.3z"/><path fill="none" d="M600.1 99.9h300v300h-300z"/><path d="M724.6 257.6V151.3c-6.6 3.1-18.6 5.6-25.7 6.2v-23.1c13.5-2.5 27.1-10.1 35.2-19.1H756v142.3h-31.4zM858.1 150c-1.7-7-5.8-13.7-18.2-13.7-19 0-24 17.9-24.8 37 6-7.3 16.1-13.2 32.2-13.2 26 0 44.5 19.2 44.5 47.1 0 30.3-19.4 52.9-52.2 52.9-41.2 0-55-31.8-55-71.9 0-37 13.1-75.4 56.7-75.4 30.9 0 45.3 19.3 46.7 37.2h-29.9zm2.8 59.8c0-13.5-5-25.6-22.1-25.6-13.8 0-21.9 8.1-21.9 24.5 0 11.5 5.5 26.8 22 26.8 15 .1 22-11.3 22-25.7z"/><path fill="none" d="M600.3 600h300v300h-300z"/><path d="M706.8 842.4v22.4h-50.1v-22.4h50.1zM722.8 909.1 772.6 774H794l-49.6 135.1h-21.6zM859.8 900v-26.6h-53.6V851l49.4-69.4h28.1v71H898l-2.4 20.8h-11.9V900h-23.9zm0-68.6c0-12.8 0-20 .5-27.4-4.7 9.9-20.1 32.5-31.3 48.5h30.8v-21.1z"/></svg>