<svg xmlns="http://www.w3.org/2000/svg" xml:space="preserve" baseProfile="tiny" overflow="visible" version="1.2" viewBox="0 0 1000 1000"><path d="M577.4 300.6c.3.4.7.5 1.2.4.6-.1.5-.6.3-1-.1-.4-.4-.9.2-1 .4-.1.9.1 1.2.3.5.3.3.7 0 1.1-1.4 1.5-2.7 3.1-4.2 4.5-.4.4-1.1-.5-1.2-1.2.5-.8 1.8.2 2-.8.1-.9-.5-1.5-1.3-2.1-1-.8-1.3-2.7-2.8-2.6-1.4 0-2.1 1.6-3.1 2.6l-12.9 12.9c-3.8 3.8-7.6 7.7-11.5 11.4-1.2 1.2-1.3 2 0 3.2 5.2 5.1 10.3 10.3 15.5 15.4.9.9 1.8 1.2 2.9.6 2.4-1.2 4.7-2.4 7.1-3.4 3.5-1.5 7.2-2.8 10.7-4.3 7.9-3.3 15.7-6.6 23.5-9.9 3.4-1.4 3.4-1.6.9-4.2-2-2.1-4.1-4.1-5.9-6.5l7.2 7.2c2 1.9 2.8 1.8 4.2-.5 1.2-2 2.7-4 3.5-6.5-2.3.6-4.6 1.3-6.8.3-4.5-2.1-6.7-6.6-3.9-11.2 2.2-3.7 2.2-5.9-1.1-8.7-4.5-3.8-8.4-8.2-12.8-12.2-1.2-1.1-2.7-1.3-4.3.4-3 3-6 6.1-8.9 9.2 5.6 3.9 9.7 9.3 14.3 14.2-1.6-1.6-3.2-3.1-4.7-4.7-2.3-2.6-5.1-4.6-7.3-7.2-1.7-2-3.7-1.6-5.9.7 0-1-1.3-2.6 1.1-2.7.3 0 .6-.6.9-.9 2.9-3.3 6-6.4 9.3-9.3 3.4-3 4.7-2.8 8 .4.9.9 1.5 2 3.1 2 4.5.1 11 5 11.9 9.5.6 2.8 2.1 3.5 4.4 4.3 1.8.6 2.6-.1 3.3-1.3.7-1.2 1.2-2.4-.3-3.8-4.5-4.3-8.9-8.8-13.3-13.2-.5-.5-1.4-.9-1.2-1.6.7-1.8 2.3-3 3.8-4.1 1.1-.8 1.8.6 2.5 1.3 12.3 12.3 24.7 24.6 37 37l32.4 32.4c15.1 15.1 30.2 30.1 45.2 45.2 2.8 2.8 2.6 2.6 0 5.6-1.6 1.8-2.5 1.6-4 0-5-5.3-10.3-10.3-15.4-15.5-.4-.4-.8-1.3-1.7-.8-1 .6-.4 1.4 0 2 1 1.6 1.1 3.4 1.4 5.1.1.6.1.8.7 1.1 3.1 1.2 4.9 4 7.2 6.2 1.7 1.5 2.4 3.5 2 5.8-.2 1.3.1 2.3 1.1 3.2 1 .8 1.8 1.8 2.7 2.8 1.3 1.5 1.2 4.6-.2 6.1-3.6 3.7-7.2 7.4-10.6 11.2-1.1 1.3-1.6.9-2.4-.1 2.1-1 1-2.7 1-4.7.8 2.4 1.7 1.7 2.7.7 2.4-2.3 4.7-4.7 7.2-6.8 2.3-1.9 2.1-4.9 0-7.1-4.3-4.4-9.2-8.3-13.1-13.1-1.1-1.4-2.1-2-3.9-1-2.1 1.2-4.4 1.9-6.9.9-4-1.6-5-5-5.6-9-2 3.3-4.5 5.5-8.2 6.3-.8.2-2.3.4-2.9 2-4.2 10.9-8.6 21.8-13.1 32.7-.6 1.4-.4 2.3.7 3.3 5.3 5.2 10.4 10.4 15.7 15.6 1.1 1.1 2 2.9 3.4 2.9 1.2.1 1.7-2 2.7-2.8 5.2-4.1 9.3-9.2 14.2-13.7l3.3-3.3c.4-.4.7-1.3 1.5-.2.7 1 .2 1-.5 1.3-.4.1-.7.5-1 .8l-13.2 13.5-82.2 82.2-4.2 4.2c-.4.4-1.3.7-.7 1.7.9 1.3-.2 2.1-.9 2.8-38.1 38.2-76.3 76.3-114.4 114.5l-1.3 1.3c-.4.3-.8.8-1.3.4-1.5-1.1-2.2.2-3 1-6.6 6.5-13.1 13.1-19.6 19.6-8.1 8.1-16.1 16.3-24.2 24.5-6.3 6.4-12.6 12.9-19 19.3-1.1 1.1-2.5 1.7-3.8.1-1-1.3-2-.7-2.8.1-1.9 1.9-3.9 3.7-5.6 5.7-1.1 1.3-2.3 2-3.9 2.1-3.9.1-7.8.2-11.7.4-5.7.3-11.4.9-17 1-2.7.1-5.6 1.1-8-1.6-2.5-3-5.5-5.6-8.2-8.3-.5-.5-1.1-1.4-1.6-1.1-2.2 1.3-3-.6-4-1.6-8.2-8.1-16.3-16.3-24.5-24.5-1.4-1.4-5.1-2.1-1.1-4.9-4-.7-4.5-1.2-3.9-4.6 1.9 1.5 3.1.2 4.3-1.1 3.2-3.3 6.4-6.6 9.8-9.7 1.7-1.5 1.5-2.4-.1-3.9-4.4-4.2-8.6-8.6-12.9-12.9-5.4-5.4-10.8-10.8-16.2-16.1-.8-.8-1.4-1.5-2.5-.4-4.4 4.5-8.9 9-13.4 13.4-.9.9-1 1.7 0 2.7 9 8.8 17.6 17.9 26.7 26.5.8.8 4.3 1.3 1.7 3.9-1.9-1.2-2.6-3.3-4.2-4.9-8.3-8.1-16.5-16.4-24.7-24.6-.6-.6-1.7-1.1-1.4-2 .8-2.2-.8-3.1-2-4.3-2.3-2.3-4.6-4.7-7-7-.9-.9-1.4-1.8-1.4-3.1.1-10.9.1-21.8 0-32.7 0-1.8.4-3.3 1.9-4.6 2.2-2 4.2-4.2 6.3-6.2 1-.9 1.3-1.9.3-2.9-1.3-1.2-.5-2.2.2-3.2 1.7-2.2 3.9-3.8 5.8-5.8 7.1-7.5 14.5-14.8 21.8-22.1 11.6-11.7 23.3-23.3 34.9-35 1.1-1.1 3.2-1.9 1.5-4.1-.2-.2.2-1.2.6-1.3 1.2-.6 1.7-1.9 2.7-2.6 4.7-3.8 8.4-8.6 12.9-12.7 4.7-4.3 8.6-9.5 13.5-13.7 3.6-3.1 6.8-6.6 10.1-9.9 6.1-6.3 12.6-12.3 18.6-18.7 6.9-7.2 14-14.2 21-21.3 2.2-2.3 4.5-4.5 6.7-6.8 1.1 1.5 2.2 2.8 3.6 3.7.8-1.3-.6-1.4-.6-2.3 1.4 1.4 2.5 1.3 3.9-.1 5.9-6 11.8-11.9 17.8-17.7 1.5-1.5 2.2-2.7.1-4.4.7.5 1.2 1 1.7 1.4.5.4 1.2.1 1.2-.4 0-1.3-1.3-1.7-1.9-2.5-.4-.5-1.1-1-1.5-.3-.6 1.1-1.7 1.4-2.4 2.1-6 6.1-12 12.1-18 18.1-.9.9-1.6 1.8-1.8 3.1-1.3-.6-1.7-1.2-.6-2.3 9.6-9.5 19.2-19.1 28.7-28.7.6-.6 1.3-1.4 2-.9 1.8 1.4 2.6-.1 3.6-1.1l76.7-76.7c1.9-1.9 3.7-3.8 5.6-5.7 4.1-4.1 8.4-8.1 12.2-12.4 3-3.4 4.7-5 7.9-6.3.1 0 .1-.1.2-.2 1.4 1.2 2.7 2.5 4 3.8zM373.6 588c.2-.3.4-.7.6-1h.5c3.1 1.5 3.8 1.2 5.4-2 .1-.2.2-.5.4-.6.7-.2 2 .3 1.5-1.3-.4-1.5-2-1.5-2.7-2.3-1.5-2-3.6-2.6-5.5-3.7-.4-.2.1-.8.2-1.2.5-1.6-.2-2.3-1.8-2-.9.2-1.5.6-1.2-1.1.5-2.4-2.2-3.3-3.5-4.7-.8-.8-2.3-.6-3.4.6-2.6 2.8-6 5-8.1 8.1-1.7 2.6-4.4 3.7-6 6-2.2 3.2-5.8 4.8-8.1 8-.7.9-.8 2-1.6 2.8-1.3 1.4-2.8 2.6-4.7 3.3-2.8 1.2-3.2 4.4-.6 7-2.6-.6-2.9 2.7-5.3 2.5.3-.8 1.9-1.2 1-2.2-.5-.5-1.3.2-2 .5-1.1.5-1.9 2-2.5 2.2-1.9.9-1.8 3.6-4 4-.3.1-.9.3-.9.5.2 3.4-3.3 3.1-4.8 4.8-1.3 1.6-1.5 2.6 0 4.1 3.5 3.4 6.8 6.8 10.2 10.3.5.5 1.4.8 1.6 0 .2-.8.3-1.5 1.1-.8.5.4 1.4 1.4 0 2.2-.7.3-.7 1.1-.1 1.2 1 .1.8 1.4 1.7 1.4.5-.6-.4-2.7 1.8-1.6.3.2.8-1.4.7-2.3-.1-1.3-1-2.9 1.8-1.9 1.5.5 2.9-1.4 4.1-2.4.7-.6 1.2-1.5 2-2.2 1.1-.9 1.9-1.8 1-3.4-.3-.5-.4-1.5.7-1.4 2.9.2 3.4-.4 3.5-3.5 0-.3.4-2.1 1.7-.8.3.3 1.3.7 1.3.3-.1-2.3 1.2-2 2.8-2 1.3 0 1.2-1.3 1-2.4-.1-.6-.7-1.5.6-1.5 2.9-.1 5.9-2.7 6.7-5.6.2-.6-.2-2 1-2 .9 0 .4 1 .8 1.6.7-1.5 1.5-2.9-.2-4.3-.5-.4-.5-.9-.5-1.3.1-.6.7-.2 1-.2.5 0 1-.2 1.5-.2 4.6.1 6-1.4 5.5-5.8.4 0 .6.1.7.5.3.7.7 1.6 1.5 1.4.9-.3 1.4-1.1 1.1-2.2 2.4-1.1.2-2.4.5-3.4zm140.3-133.7c-5-4.8-9.8-9.8-14.7-14.7-2.5-2.5-2.5-2.5-4.9.3.5-1.2 1.1-2 .9-3.3-1.9 1.1-3.1 2.7-4.4 4.2.7 1 1.6.4 2.6.2-1.9.9-1.6 1.9-.5 3.1 5.3 5.5 11.2 10.3 16.2 16.1.5.6 1 .5 1.6.3.3.6.3 1.8 1.4.8.9-.7 1.8-1.3 2.6-2.1.4-.4.9-1.1.8-1.5-.3-.9-1.2.1-1.7-.2 2-.8 1.7-1.8.1-3.2zM393.5 670l.1-.2c1.5.6 2.3.2 3.5-1.1 1.6-1.7 3.3-3.3 5.1-4.8 2.2-1.8 4-4.1 6-6.2 1.1-1.2 3.2-1.9 2.9-4.1 0-.1.2-.3.3-.4 3.9-1 6.2-3.5 7.1-7.4 2.3.4 2.5-2.5 4-2.9 1.3-.3 1.6-.9 2.2-1.9.4-.7 1-1.7 2.2-1.9 1.1-.2.9-.9.1-1.7-.5-.5-.5-1.3-.8-2 .9.2 1.7-1.2 2.4-.3 1.1 1.4 1.7.4 2.3-.3.7-.8.4-1.2-.4-2.2-3.6-4.4-8.5-7.6-11.8-12.2-.7-1-2.1.4-2.3-1.1-.2 0-.4-.1-.6-.1-1.5-.3-2.8-.1-3.2 1.8-.3 1.4-2.1 1-2.9 2.1-1.8 2.4-3.7 5-6.1 6.8-3 2.2-5.4 5-7.9 7.7-1.4 1.4-4.4 2.3-3.5 5.6.2.8-.8.8-2.3-.6.2 1.5-1 1.8-1.7 2.6-1.9 2-5.4 3-5.3 6.7 0 .7-.6.9-1.3.6-1.4-.5-2.5 1.2-2.4 1.6.9 2.6-1.7 3.3-2.4 5-.3.6-.9.6-1.3.5-2.8-.8-3.1.9-3.1 3-1.6-.8-2.6.6-3.4 1.3-1.1 1-1.4 2.7-2.8 3.7-.3.3.2 2.6 1 3.4 4 4.2 8 8.4 12.2 12.4 1.6 1.6 3.2 0 4.5-.9 2.1-1.5 3-4.3 5.6-5.5.6-.3 1.3-1.1 1.2-1.9-.1-1.3 0-1.9 1.6-1.7.4.1 1.1-.5.4-1.3-.7-.7-.2-1.4.5-2l.3-.1zm278.4-296.3c-2.4-1.2-4.6-2.1-7.8-2.6l2.1 2.1c-.5 0-1 0-1.5-.1-.4-.1-.8-.4-1 .2-.2.7.2.7.7 1 1.5.7 2.9 1.2 1.9 3.6-1 2.4-2.5 2.4-4.2 1.4-1-.6-1.4-.7-1.9.3-3.1 5.9-6.1 11.7-9.2 17.6-2.5 4.7-4.8 9.6-7.5 14.2-.9 1.5-.4 3.4-2.2 4.8-1.5 1.2-1.8 3.8-3 5.5-1.1 1.7-1.8 3.6-2.8 5.6 1.7.6 3.1.6 4.2-.9s2.6-1.5 4.2-1.2c1.8.3 3.5.7 5.3 1.1 1.8.4 2.8 1.4 1.8 3.3l-4.2 7.8c-5.9 11-11.8 21.9-17.6 32.9-1.3 2.4-3.1 3.3-5.7 2.9-1.4-.2-2.7-.5-4-.8-2.1-.4-3.7-1.2-2.7-3.8.2-.5.3-1-.4-1.3-.5-.2-.9-.4-1.4.1-.5.5-1 .9-1.6 1.4.9-3.8 3.2-6.9 4.9-10.3 3.8-7.7 8-15.3 12-22.9 3.5-6.5 6.9-13.1 10.3-19.7 5.3-10.5 11-20.9 16.2-31.5 1.7-3.5 3.4-7.1 5.5-10.4.7-1.1-.3-2.8 1.6-3.5.4-.1-.4-.8-.7-1.2-11.2-11.2-22.4-22.5-33.7-33.7-1.7-1.7-3.5.2-4.9.9-8.5 4.3-16.9 8.9-25.3 13.4-4.6 2.5-9.1 5.4-13.8 7.6-8.4 4-16.4 8.5-24.7 12.8-13.5 6.9-26.7 14.3-40.1 21.4-1.2.6-2.3 1.5-3.8 1.5 4-3.3 8.9-5 13.3-7.6 1.3-.8 3-1.4 1.1-3.4-.7-.7-1.1-.4-1.7-.2-1.6.5-2.5-.3-2.9-1.8-.5-2.1-1-4.1-1.3-6.3-.2-1.8.5-3.2 2.3-4.2 8.9-4.7 17.6-9.5 26.4-14.2 4.8-2.6 9.6-5.1 14.5-7.6 2.6-1.3 3.5-.7 4 2.2.2 1.3.9 2.6.4 4-1.1-.8-.9-2.2-1.1-3.3-.7-2.7-1.3-3.1-3.8-1.7l-16.2 8.7c-7.7 4.2-15.4 8.4-23.1 12.5-2 1.1-2.5 2.5-2.3 4.4.2 1.6.7 3.2 1 4.7.2.9.6 1.8 1.6 1.5.8-.2 2-.4 1.7-2-.2-1.7 2.3-4.2 3.9-4.3.6 0 1.1.3 1.3.7.8 2.2 1.8 1.1 3.1.4 7.8-4.3 15.7-8.5 23.6-12.6 1.3-.7 2.1-1.2 1.7-2.9-.5-2.3 1.9-2.6 3.2-3.5 1.2-.9 1.9.1 2.6 1.1 1 1.4 1.9.6 2.3-.4.4-1.1.4-2.3.6-3.5 1.1 2.1.8 3.9-1.1 5.4-1.5 1.1-.7 2.6-.9 4.2 4.4-1.5 8.3-3.6 11.7-6.1 2.7-1.9 5.9-2.6 8.7-4.2 10.1-5.8 20.5-11.1 30.7-16.7 1.4-.8 3.6-.6 3.7-3 0-.4.3-.3.5-.3 1.7-.1 1.7-.1 1.2-1.8-1.7-5.4-3.4-10.8-5.1-16.1-.2-.6-.5-1.3-.7-1.9-.2-.6-.1-1.6-1-1.5-.8.1-.5 1-.5 1.5 0 .8 0 .8-.8.4-1.1-.6-1.1.8-1.4 1.3-1.8 2.8-3.4 5.7-5 8.6-.6 1.2-1.4 1.9-2.5 2.4l-21 8.7c-6.1 2.6-12.2 5.2-18.5 7.9l6.2 6.2c-.1.1-.2.2-.3.4-1.5-1.5-3.1-3-4.5-4.6-1.4-1.6-2.8-1.6-4.6-.8-6.4 3-12.4 6.8-18.5 10.2-8.1 4.5-16.2 9.1-24.1 13.9-9.1 5.6-17.9 11.5-26.8 17.3-5.3 3.4-10.6 6.9-15.9 10.4l-5.1 3.3c-.7.5-.7 1.1-.7 1.8v10.9c0 1.6.4 2.2 2.1 1.3 4.9-2.7 9.8-5.5 14.8-8 6.2-3.1 12.3-6.6 18.5-9.7 1.6-.8 3-1.9 4.8-2.2-2.7 2.9-6.5 4.1-9.8 5.9-8.9 4.9-17.9 9.5-26.9 14.2-2.1 1.1-1.7 1.9-.3 3.4 21.8 21.7 43.6 43.5 65.3 65.3l37.9 37.9c2.1 2.1 2.1 2.1 3.4-.5 8.1-15.6 16.1-31.2 24.2-46.8.7-1.4 1.7-2.6 2.6-3.9-1.5 4.8-4.4 9-6.6 13.5-1.9 4-3.9 7.9-6.2 11.8-.6 1.1.2 2.1-.5 3.1-1.4 2.1-3.2 4-4.4 6.4-3 6.3-6.3 12.4-9.6 18.7 2.8.2 5.4.1 8 .5 4.5.7 6.4-2.3 8.5-5.4 6-9 12.2-17.9 18.5-26.7 7.7-10.8 14.5-22.2 21-33.8 3.5-6.2 7.3-12.3 10.7-18.6 1.4-2.4 2.3-5.1 3.3-7.8.4-1.1 0-1.9-.9-2.7-1.6-1.4-3.1-3-4.2-4.9 1.6 1.6 3.2 3.1 4.7 4.7.9.9 1.2.9 1.7-.4 4.7-11.7 9.4-23.3 14.2-35 .6-1.4.5-2.4-.7-3.3-.4-.3-.7-.7-1.1-1.1-4.1-3.4-4.5-6.9-.4-11.7 1.9-2.3-1-1.6-1.4-2.4 1.2-.7 2.3 1.2 3.9.2zM395.8 700c.3.9.4 1.9.9 2.7.9 1.4 1.7 2.4 3.6.8 5.4-4.7 10.7-9.5 15.5-14.8 3.6-3.9 7.8-7.4 11.6-11.2 2.7-2.7 5.1-5.6 7.5-8.5.7-.8 1.2-1.8 2.5-1.3 1.3.4 1.9 1.7 2.6 2.8-1.2.5-1.3 2.4-2.4 2.5-1.3.1-1.8.9-2.5 1.6-4 4-7.9 8.1-12 11.9-1.7 1.5-2.3 3.6-3.7 5.3-.9 1.2-1.8.2-2.6 1-4.6 4.7-9.2 9.4-13.5 14.4-1 1.2 1.6 4.3 3.7 4.4 2 0 4 .2 5.5-2 .9-1.3 2.4-2.5 3.6-3.7.6-.6 1-1-.2-1.6-2-1-1.8-2.4-.2-3.8 1.4-1.2 2.7-2.7 4.1-4 .9-.8.5-3 2.6-2.7.5.1.4-.8.4-1.4 0-.3-.1-.6-.2-.8 3.6.7 4.4-2.8 6.3-4.5 3.3-2.9 6.3-6.4 9.2-9.8 1.7-1.9 3.4-3.8 5.4-5.4 2.4-2 4.5-4.3 6.7-6.6 2.1-2.2 4.5-4.1 6.1-6.7.4-.6 1.6-1.1.8-1.8-.6-.5-1.4-1.4-2.5-1-2.6.9-3.4-1.6-4.5-2.9-1.1-1.3.7-2 1.4-2.9.5-.7 1.2-1.2 1.8-1.9 2.9-2.9 4.9-2.7 6.6 1.2 1 2.4 3.2 3.6 4.7 5.4 1.4 1.7 2.8-.4 3.6-1.2 9.3-10 19.2-19.5 28.8-29.1 32.7-32.8 65.5-65.5 98.2-98.3l2.4-2.4c-1.8-.7-3.5-.5-5-.5-8.3 0-16.6.7-24.8 0-2.5-.2-4.3.6-5.9 2.4-7.1 7.5-14.7 14.7-21.8 22.2-3.3 3.4-6 7.3-9.9 10.2.9 1.3 3.3 1 2.9 2.9-.3 1.3-1.6 2.5-2.8 2.8-1.9.4-1.7-1.8-2.6-2.7L392.2 696.5c2.8-.3 3.1 1.7 3.6 3.5zM475 435.1c.8-.8.8-1.6.8-2.6-.3-6.5 0-12.9-.2-19.4-.1-3.8-.5-7.6-.1-11.6-1.4.2-1.8 1-2.4 1.6l-80.6 80.6-24.2 24.2c-.6.6-1.1 1.3-1.7 1.9-.5.5-1.2 1-.7 1.7s1.3.4 1.9.2c2.9-.9 4.6 1 4.6 4.3 0 3.4-.5 4.9-3.7 6.5-2.2 1.1-3.7 4.1-5.7 6.1-1 1-2 1.8-3.2.4-.8-.9-1.3-.3-1.9.3-9.1 9.1-18.1 18.2-27.2 27.2-.8.8-1.2 1.6-.4 2.4.8.9 1.5.2 2.2-.5l18.5-18.5c.8-.8 1.2-1.9 2-2.6 1.3-1.3 2.9-1.3 4.1 0 1.1 1.3.8 2.7-.6 3.8-7.4 5.8-13.4 13-20.2 19.5-.2.2-.3.4-.4.6 5.7 4.1 5.7 4.4.9 9.2-2.9 2.9-5.9 5.9-8.8 8.9-1.2 1.2-2 1.1-3.2 0-3.6-3.5-3.6-3.5-7.2.1l-12 12c-.8.8-1.6 1.7-.6 2.6 1.2 1.2.6 1.9-.3 2.7-2 1.8-3.5 4.1-6 5.3-.3.1-.7.4-.7.7-.8 4.9-4.5 3.5-7.5 3.5-1.5 0-2.7-.6-2.6-2.2 0-2.9-1.4-6.1 2.7-8.1 2.7-1.4 4.6-4.4 6.9-6.6.7-.8 1.4-1.6 2.5-.3.9 1 1.8.6 2.6-.3 8.3-8.3 16.5-16.6 24.8-24.8.8-.8 1.2-1.4.2-2.3-1.1-1-1.5 0-2.1.6-5.3 5.3-10.5 10.6-15.9 15.8-.7.7-1.1 1.5-1.5 2.3-.6 1.4-1.6 2.1-2.9 2-1.1-.1-2-1.2-2.4-2.2-.4-1.2.5-2.4 1.4-3.1 6.7-5.4 12.2-12 18.4-17.9.5-.5.8-1 .6-1.8-.3-1.6 1-2.7 2.3-2.6 1.3.1 1.9-.4 2.6-1.1l26.1-26.1c.6-.6 1.6-1.2 1.3-2.4-.4-1.4-2-1.8-3.1-.7-3.9 4-7.8 8.1-11.7 12.1-8.8 8.8-17.6 17.6-26.4 26.5-8.4 8.5-16.9 16.9-25.3 25.4-.4.4-1 .7-.9 1.7.3 2-.5 2.9-2.8 2.6-1.2-.2-1.8 1.2-2.5 2-4 3.9-4.1 4-.3 8 3.6 3.8 7.4 7.5 11.1 11.2.6.6 1.2 1.9 2.6 1.2.4-.7-.3-.9-.5-1.3-.7-.9-2.3-1.7-.7-3.1 1.2-1.1 2.4-2.5 4-.3 1.1 1.5 1.9.3 2.7-.5l16.2-16.2c6.4-6.4 12.8-12.7 19-19.2 6-6.3 12.4-12.3 18.4-18.6 4.4-4.6 9-9.2 13.7-13.7 3.3-3.2 6.4-6.5 9.6-9.8 20-20 39.9-40 59.8-60 1.2-1.2 2.7-2.1-.1-3.3-1-.4-1.1-1.6-.2-2.4 1-.8 1.6-2.9 3.5-1.5.7.5 1.1 1.3 1.8 2.1 10.4-11 21-21.6 31.6-32.2zm3.9 1.8c-1.7-1.7-2.6-1.8-4.4 0-7 7.2-14.1 14.3-21.3 21.3-1.6 1.5-1.5 2.5 0 4 7.7 7.6 15.4 15.3 23 23l30.4 30.4c10 10 20 19.9 29.9 30 1.9 1.9 3 1.8 4.8-.1 4.9-5.1 10-9.8 14.8-15 2.3-2.4 5-4.4 6.8-7.3.6-1.1.7-1.6-.2-2.3-.5-.4-.9-.9-1.3-1.3l-41-41c-13.8-13.9-27.7-27.7-41.5-41.7zm-41 187.3c1.7 1.4 5.4 1 5.3-.9-.1-1.8 1.1-1.5 1.7-2.2 4.5-5 10.2-8.8 14.5-14.1.5-.6 1-1 .9-1.8-.1-.5.1-1 .5-1.1 1.9-.4 2.8-2 4.1-3.1 2.2-1.9 4.4-3.7 6.1-6 2.4-3.2 5.8-5.5 8.7-8.3 8.1-8.2 16.4-16.2 24.5-24.3 2.8-2.8 5.6-5.8 8.4-8.6 1.1-1.1 2-2.4 3.3-3.3 1.1-.9 1.4-2.3.6-3.1-4.9-4.3-8.7-9.8-14-13.7-1.7-1.3-2.8-1.1-4.1.5-2.9 3.6-6.8 6.3-9.8 9.7-4 4.5-8.4 8.5-12.5 12.8-4 4.2-7.9 8.4-12.2 12.2-2.8 2.4-5.2 5.4-7.8 8.1-.8.9-2.1 1.3-2.2 3-.1 1.1-2.4.9-3.2 2.3-.1.2-.5.6-.8.9-2.2 2.2-4.5 4.4-6.7 6.6-.2.2-.3.4-.4.6-.4 1.4-2.1 3.5-3.5 3.9-.7.2-.9.2-1.1 1-.1.8-.5 1.9-1.8 1.6-.2 0-.6.3-.7.6-1.4 3.3-5.2 4.3-7.1 7.2-.5.7-1.8 1.1-.5 2.2.3.3.3.7-.2.7-.3 0-.8 0-.9-.2-.2-.3-.1-1.3-.8-.7-.7.6-1.3 1.6-1.3 2.6 0 .8.8.5 1.2.4 1.2-.3 1.7 1.3 2.9 1.1.6-.1.1.7.4 1 .3.5 0 .5-.4.5-4.2.1-1.4 1.5-.5 2.6.1.1.1.3.2.4.1.1.3.1.5.2 2.8 3 5.5 6.1 8.7 8.7zm-41.3-56.9c.2-1.2.8-1.4 1.4-1 1.5 1.3 1.4.5 1.6-.8.2-1.7.2-3.3 3-3.1 1.3.1 2.9-1.8 4.1-3 2.7-2.5 5.4-5 7.7-7.7 1.5-1.9 4.3-3 4.7-5 .5-2.2 2.7-1.6 3.4-3.5.6-1.6 3-2.4 4.2-4 1.8-2.5 4.3-4.3 6.4-6.5 2.7-2.9 5.6-5.7 8.5-8.5.9-.9 2-1.6 2.2-3 .1-.7.6-1.1 1.4-1.2 1.8-.2 3.5-2.2 3.4-4 0-.6.2-.4.6-.5.6-.1 1.4.1 1.9-.6 2.4-3.9 6.7-5.9 9.3-9.7 1.1-1.7 3.2-2.7 4.7-4.2 2.5-2.3 2.3-4.5-.1-6.9-3.7-3.6-7.3-7.4-10.8-11.1-1.1-1.2-2.1-1.9-3.7-.4-1.9 1.7-4.3 2.8-5.4 5.4-.3.7-1.6.9-2.4 1.7-5.9 6-12.3 11.7-17.9 18-2.6 2.9-5.7 5.1-8.1 8.1-3 3.7-7 6.4-10 10-2.1 2.6-4.9 4.5-7 7.1-4.1 4.9-9.3 8.7-13.5 13.5-3.3 3.8-7.3 6.9-10.6 10.6-1.2 1.3-1.1 2.2.1 3.1 3.2 2.2 4.9 5.8 8.1 8.1 2 1.4 3.8 3.5 5.4 5.5 1.3 1.6 1.9-1.1 3-.3.3-.9 1.9-2-.6-2.7 3.4.5 4.5-.2 5-3.4zm-58.5 99.9c-1-1-1.6-1.6-3-.3-3.9 3.6-7.7 7.3-11.3 11.1-.5.5-1 1.3-.8 1.5 2.1 2.2 1.6 5.7 3.6 7.7 7.7 7.9 15.5 15.6 23.3 23.4 1.3 1.3 2.2 1.5 3.5.1 4.1-4.3 8.3-8.4 12.5-12.5 1.3-1.2 1.4-2 0-3.3-4.7-4.6-9.3-9.3-14-13.9l-13.8-13.8zM449 462.6c-7.8 7.9-15.5 15.8-23.2 23.6-5.4 5.4-10.8 10.7-16.2 16.1-3.3 3.3-6.5 6.8-9.9 10.1-4.7 4.6-9.5 9.2-14 13.9-6.4 6.6-12.8 13.1-19.3 19.6-22.6 22.8-45.3 45.4-68.1 68.1-1.8 1.8-2 2.9 0 4.5 3.3 2.7 6.4 5.6 9.2 8.7 9 10 19 19 28.2 28.7.7.7 1.3 1.7 2.7 1.9.6-3.6 2.5-5.9 6.9-5.1-1.4-2.3-3.3-3.6-4.9-5.3-4.9-5.1-9.6-10.4-14.8-15.3-3.7-3.4-7.2-7-10.9-10.4-.6-.5-1.1-.8-1.1-1.8-.2-5.3-.2-10.5-.8-15.8-.3-3 1.2-4.8 3.1-6.5 6.4-5.8 12.2-12.2 18.3-18.3 12.1-12.3 24.3-24.4 36.5-36.6 26.3-26.3 52.6-52.7 78.9-79 .6-.6 1.4-1.1 1.6-2.2-1.3-.2-1.7.6-2.2 1.1zm180.4-129.2c.4 1.2 1.6 2.3 2.6 3.3 7.5 7.6 15.1 15.2 22.7 22.7l8.5 8.5c2.7 2.7 6.3 3.6 9.7 4.4 1.7.4 3-1.6 4.7-2.3 2.6-1.1 2.6-1.3.5-3.4-17.8-17.7-35.6-35.5-53.4-53.2l-2-2c-.1.1-.3.1-.4.2 2.3 7.3 4.6 14.6 7.1 21.8zM607 278.8c-2.2-2.2-2.7-2.1-4.7.2-.7.8-.6 1.3.1 1.9 4.8 4.3 8.8 9.5 13.8 13.7.7.6 1.2.9 2.3.7 2.7-.5 4.5 1.3 4 3.9-.3 1.2.2 1.8.9 2.5 5 4.7 9.2 10.2 14.6 14.6 2.6 2.1 4.7 4.8 7.1 7.2 5.2 5.2 10.6 10.1 15.6 15.5 8.9 9.5 18.5 18.3 27.6 27.6 2.1 2.1 4.3 4 6.3 6.1 1.3 1.4 2.5 2.7 5 2.3 1.8-.3 3.4 2 2.8 3.9-.3 1.1 0 1.5.6 2.2l15.6 15.6c1 1 1.9 1.2 2.7.1.7-1 2.4-1.9.5-3.6-2.9-2.6-5.6-5.5-8.3-8.2l-49.3-49.3c-19.1-18.9-38.1-37.9-57.2-56.9zM342.1 661.7c.3 1.1 1.1 1.7 1.8 2.4 8.6 8.6 17.1 17.5 26 25.8 3.9 3.7 7.2 7.8 11.2 11.4 1.6 1.4 2.6 2 4.4 0 4.4-4.7 9.1-9.2 13.9-14-6.8-.6-13.1-1.3-19.5-1.6-1.1 0-1.4-.4-2-.9l-29.4-29.4c-.1-.1-.3-.2-.6-.4-.6 4.8-1.2 5.5-5.8 6.7zm281.3-358.5c-.7-.7-1.4-2.5-2.8-1-1.7 1.7-1.9 3.9-.4 4.9 2.9 2 5.2 4.6 7.7 7.1 8.2 8.3 16.5 16.4 24.7 24.7 5.5 5.6 11.2 11 16.8 16.5 3.3 3.3 6.8 6.3 10 9.7 1.7 1.8 3.3 3.7 5.6 4.8.9.4 1.8 1.3 2.2 2.2 1.2 2.8 3.7 3.9 6.4 4.7.8.2 1.7.6 2.3-.4.5-1-.5-1.4-1-1.9-7.8-7.9-15.7-15.7-23.5-23.5l-12.3-12.3c-12.1-11.8-23.9-23.7-35.7-35.5zm15.5 131.1c-3.3-1.1-3.7 1.9-4.6 3.5-4.1 7.6-7.9 15.2-12.2 22.7-.3.5-1.1 1.4.2 1.9 1.1.4 1.9 1 1.2 2.3-.7 1.3-1 3.1-3 3.4-.5.1-1 0-1.6 0-.9.1-1.5.8-1.6 1.5-.2.9.6 1.5 1.3 1.7 2 .5 4 1.1 6 1.1 1.9.1 3-1.3 3.8-3 5.7-10.9 11.5-21.7 17.3-32.5 1.3-2.5 2.6-5 4-7.4.5-.9.7-1.8-.4-2.1-2.6-.7-5.1-1.6-7.8-1.2-1 .2-2.7 1.2-1.1 2.2 3.6 2.3-.2 3.4 0 4.8-.7.6-1.2 1.2-1.5 1.1zm-155.8-46.6c-3.9 4-7.9 8-11.7 12-.6.6-2.2 1.1-.9 2.4 1.2 1.1 1.7-.3 2.2-.9 4.7-4.7 10.7-7.7 16.1-11.4 7.6-5.2 15.4-10.2 23.2-15.3 1.3-.8 2.6-1.6 3.9-2.5 1-.7 1.4-1.5.2-2.4-.3-.2-.5-.5-.7-.7-3-3-3.1-3.1-.2-6.3 1.6-1.8-.4-2.1-1-3-.9-1.3-1.9-1.5-3.2-.2-3.9 4-7.8 7.9-11.7 11.8l.2.2c-5.5 5.4-10.9 10.8-16.4 16.3zM635 471.4c-2.2 3.5-1.6 6.8-1.2 10.2.1 1.2-.5 3 .9 3.5 1.3.4 1.9-1.4 2.9-2.2 6.3-5 8.9-12.6 12.9-19.2 2.5-4 4.5-8.2 6.8-12.3.3-.5.8-1 .5-1.6-1.2-3.4-2.2-6.9-4.1-10.5-6.3 11.1-12.2 21.8-18.7 32.1zm4.8 16.1c.9-.9 1.6-1.6.3-2.9-1.2-1.2-1.9-1.2-3.1 0-2.9 2.8-3 2.7-6-.2-2.2-2.2-2.2-2.2-4 .4l-20.4 29.1c-3 4.3-5.5 9.1-9.5 12.7-.7.6-.8 1.1-.1 1.9 1.1 1.2 1.6.2 2.3-.4l20.4-20.4c6.6-6.7 13.3-13.5 20.1-20.2zm-89-145.7c-1-.4-1.9-.1-2.7.4-8.4 4.7-16.9 9.2-25.1 14.3-3.1 1.9-5.4 5.1-8 7.7-.8.8-.5 1.1.5 1.3 2.8.3 5.6.6 8.4 1 1.2.1 2.1-.5 3.1-1.1 10.6-6.1 21.1-12.4 31.7-18.5.6-.4 1.1-.8 1.5-1.6-3.2-1.2-6.3-2.3-9.4-3.5zM304.1 628.3c-.3.7-.9.8-1.4.3-.6-.5-.5-1.1.1-1.5 1.6-1 .8-1.8 0-2.9-1.9-2.4-4.2-4.2-6.4-6.3-.9-.9-1.4-.5-2.1.2-5.1 5.2-10.3 10.3-15.5 15.4-.9.9-.8 1.5.1 2.3 2.7 2.7 5.5 5.3 8.1 8.1 1.1 1.2 1.8 1.1 2.9 0 4.2-4.3 8.6-8.6 12.8-12.9.9-.9 2.6-1.3 2.6-3-.6-.2-1-.1-1.2.3zm77.2 77.2c.9-.8 1.4-1.6.2-2.5-2.4-1.9-4-4.7-6.5-6.6-.8-.6-1.7-1.4-2.5 0-.3.6-.8 1-1.4.6-.7-.5-.7-1.2-.1-1.8.9-.8 1.3-1.4-.4-1.1-.3.1-.5 0-.4-.3.1-.4 1.2-1 0-1.2-.9-.2-1.2 1-1 1.4 1.1 2.1-.6 2.9-1.6 4.2-3.6 4.4-8.3 7.7-12 12-1 1.2-.7 1.6.1 2.5 2.7 2.6 5.3 5.2 7.9 7.9 1.1 1.1 1.7.9 2.7-.1 2.5-2.6 5-5 7.5-7.5s4.9-5 7.5-7.5zm159.6-225.6c-7.7-8-15.3-15.8-23.4-23.3 1 1.5 2.9 3.1 1.1 4.9-2.3 2.3-4 6.2-8.9 4.5l24.4 24.4c-2.2-4.8 1.6-10.2 6.8-10.5zm-64.1 171.3 1.1-1.1c.8-.9 2-1.7.6-3-1.3-1.2-2-.1-2.8.7l-18.9 18.9c-7.6 7.6-15.3 15.1-22.7 22.8-6.9 7.2-14.4 13.9-20.9 21.4-.6.7-2.1 1.2-.8 2.5 1.2 1.2 2 .1 2.8-.7l31.4-31.4c10.1-10 20.1-20 30.2-30.1zm-183-34.2c.9-.9.2-1.9-.2-2.2-5.4-4.4-9.4-10.2-15-14.4-.1-.1-.3 0-.2 0 0 10.6.1 21.1.1 32 5.1-5.2 10.2-10.3 15.3-15.4zm99.6 97.4c-2.8-2.7-5.8-5.3-8.6-8-.9-.9-1.5-1.3-2.7-.1-4.9 5.1-10 10.1-15 15.2-.1.2-.1.5-.3 1.1 10.8-.6 21.5-1.1 33-1.7-2.4-2.5-4.4-4.6-6.4-6.5zm262-278.4c-.5 1.2-.3 2 .6 3 4.9 4.8 9.8 9.7 14.7 14.7 1.1 1.2 1.9 1.3 2.9 0 .4-.5 1-1 1.5-1.5 3.7-3.7 3.8-3.8.1-7.4l-16.5-16.5c-1.2 2.7-2.2 5.3-3.3 7.7zM566 504.4c.3 3.1-2 7.4-4.8 8.4-1.4.5-3 .6-4.5-.9-6-6.2-12.1-12.2-18.4-18.4-.4 1.4.4 1.8.9 2.3 8.4 8.4 16.7 16.8 25.1 25.2.7.7 1.4.9 2.3.9 5.5-.1 11-.1 16.6-.1-5.7-5.8-11.4-11.5-17.2-17.4zM364.6 690.7c.4.4.7.8 1.1 1.1.9.8 1.9.6 2.6-.1.8-.9.2-2.3-.5-2.4-3.1-.4-3.2-3.6-5-5.2-3.7-3.3-7.1-7-10.7-10.5-.4-.4-1-.9-1.2-.8-2.9 1.3-3.6-1.6-5.3-2.7-.2-.1-.5-.4-.5-.6.8-4.6-3.6-5.7-5.6-8.4-1-1.4-2.4-2.7-3.6-4-.9-1-2-2.4-4-1.4-1 .5-4.5-3.4-4.1-4.7.5-1.3 0-1.9-.8-2.6-4.4-4.1-8-9-12.8-12.7-1.5-1.2-3.7-1.6-4.2-4-.1-.8-1.4-1.6-2.3-.6-.7.8-.8 1.9.1 2.8.6.5 1.1 1.1 1.7 1.7l11.2 11.2c14.7 14.6 29.3 29.3 43.9 43.9zm-76.7-107.6c-.7.7-1.6 1.4-2 2.4-.2.6-.6 1.1.1 1.6.6.4 1.1.3 1.6-.1.3-.2.5-.5.7-.7 6.5-6.7 13.3-13.1 19.7-20 3.6-3.9 7.7-7.5 11.4-11.4 4.7-5 9.7-9.7 14.4-14.7 5.4-5.6 10.7-11.4 16.5-16.7.4-.4.8-.9 1.2-1.3.4-.4 1-.8.4-1.5-.6-.6-1.2-.6-1.8 0l-1.3 1.3-30.5 30.5c-10 10.3-20.2 20.5-30.4 30.6zm254.3-99.9c-1.8.8-2.7 2.4-4 3.5-.2.2-.2.9-.2.9 2.3.7 1.9 3.4 3.5 4.8 4.6 4 8.8 8.6 13.1 12.9 1 1 1.9 2.9 3.3.3.2-.4.8-.5 1.3-.7.1.2.2.5.2.5-.9.6-1.8 1.8-1.2 2.4 1.1 1.1 1.7-.5 2.3-1.1.7-.7 2.1-1.3 1.8-2.3-.4-1.5-.3-3.1-1.8-4.5-5-4.6-9.7-9.5-14.5-14.4-2.4-2.4-2.4-2.4-4 .6-.2.3-.5.5-.9 1 .2-1.3 1.5-2.2 1.1-3.9zm143.7-106.8c1.1-4.7-2.3-6.7-6-5.4-4.3 1.6-8 4.5-10.8 8.3-1.7 2.3-.4 6.7 2.6 9 1.8 1.4 4.8 1 7-1l1.8-1.8c2.7-2.4 4.6-5.5 5.4-9.1zm-162.8-29.2c-1.1 1-1 2 .1 2.8 4 3.2 2.7 3.9 7.4 1 4.4-2.7 9-5.2 13.6-7.6 1.6-.8 1.9-1.4.5-2.7-2-1.9-4-3.8-5.9-5.9-1.3-1.4-2.2-1.2-3.4.1-1.9 2.1-4 4.1-6 6.1-2.2 2.1-4.2 4.2-6.3 6.2zM570 560.8c6.6-6.4 13.1-12.9 19.5-19.5.8-.8 3.2-1.8 1-3.8-1.3-1.1-1.7-2.3-3.6-.2-6.4 6.9-13.2 13.6-20 20.1-2.8 2.7-5.3 5.8-8.2 8.3-1.5 1.3-1 2.2.1 3.4 1.2 1.3 2.1 1.1 3.2-.1.8-.9 1.7-1.7 2.6-2.6 2.2-2.2 2.2-2.2 1-4.9 1.8 2.1 3.3.4 4.4-.7zm-75.4-127.4-16.8-16.8c-.2 5.2-.3 10.6-.5 16 0 .6-.2 1.2.4 1.7 2.5 2.3 4.5 5 7.6 6.9 1.2-4.9 5.3-8.4 9.3-7.8zm54.6 148.5c1.3-1.1 1.3-2.7 2.6-3.8.9-.8-1.4-1.7-2-2.8-.2-.4-1.6-.5-1.6-.3.6 2.7-2.2 2.9-3.3 4.3-1.2 1.7-2.9 3-4.3 4.5-4.6 4.7-9.3 9.3-13.9 14-.1.1-.2.3-.3.4-.4.7-3 0-1.4 1.9.8.9 1.2 3 3.9 1.2 2-1.4 3.6-3.1 5.3-4.6 2.2-1.9 4.2-4.1 6.3-6.2 2.9-3 5.6-6 8.7-8.6zm-63.1 56.4c-1.5 1.4.1 1.8.6 2.3.6.5 1 2.4 2.5.9 7-6.9 13.9-13.8 20.9-20.7 1.1-1.1 1.6-1.9.2-3.1-1.1-.9-1.9-2.1-3.5-.4-3 3.3-6.3 6.4-9.5 9.6l.1.1c-3.7 3.8-7.4 7.6-11.3 11.3zM387.9 708c4.4 3.2 7.3 7.8 11.2 11.4 1.4 1.3 2.4 1.5 3.6-.1.3-.4.7-.7 1.1-1.1 1-1 2.7-2 2.6-3.4-.1-1.6-2.2-1.3-3.3-2.1-1.4-1-2.7-2-4.7-1.9-1 0-1.8-1.2-2-2.4-.6-3.9-3.9-6.5-4.7-10.3-.2-1-1.1-.5-1.6.1-.7.9-2.5 1.5-.8 3.1 1.2 1.1 2 1.9.2 3.6-2.4 2.4-3 .2-4.6-.7 1 1.3 1.8 2.9 3 3.8zm312.8-319.8c.8-.9-.3-1.4-.8-1.8-2.5-2.6-5.2-5.1-7.7-7.8-1.4-1.4-2-2-3.6.2-2.3 3.1-4 6-2.5 9.9 1.3 3.2 4.3 4.6 7.7 3.7 1.7-.5 3.1-1.3 4.5-2.2 1.2-.7.9-1.4.2-2.5.9.1 1.3 1.6 2.2.5zm-90.1-86.7c-.7-1-1.3-1-2.5.1-1.9 1.7-3.1 3.6-3.7 5.9-.7 2.7.7 6.3 3 7.5 2.7 1.4 5.5 1.2 8.1-.4 5.1-3.2 5-3.3.1-8.3-1.3-1.7-3.6-2.8-5-4.8zM398.9 468.3c-.9 1.1-1.3 1.6 0 2.6 1 .8 1.6 2.5 3.4.7 4.9-5.2 10-10.1 14.9-15.3 1.2-1.3 2.5-2.5 3.8-3.7 1.7-1.7.5-2.4-.4-3.5-1.2-1.3-2.2-.8-3.2.3-1.6 1.8-3.4 3.4-5.5 5.6-3.9 4.4-9 8.3-13 13.3zm-39.1 39.3c-.9.9-1.8 1.5-.4 2.9 1.2 1.2 2.2 1.9 3.6.5l5.4-5.4c4.4-4.5 8.7-9 13.2-13.3 1.3-1.3 1.1-1.9.1-3.1-1.1-1.3-2-1.7-3.3-.3-1.8 1.9-3.8 3.8-5.6 5.7l.1.1c-4.4 4.2-8.7 8.5-13.1 12.9zm206.3-142.2c-1.8-2.9-3.5-1-5.3 0-7.1 3.8-14.3 7.6-21.5 11.2-2.3 1.1-2.9 2.6-2.2 5.2 9.9-5.3 19.8-10.5 30.2-16-.7-.2-1.1-.2-1.2-.4zm-22.3-36.5c-.5-.5-1-.6-1.5-.1l-.4.4c-3.8 3.3-3.8 4.9.5 8.2.9.7 1.8 1.4 2.5 2.2 1.2 1.3 2.1 1.9 4 .9 1.5-.8 3 .7 4.6 1.1 1.1.3 2 .9 3.6.5-4.6-4.5-9-8.9-13.3-13.2zm113.8 116.2c.8 2.1 2.5 4.2 1.3 6.8-.4.8.1 1.9.8 2.6 1.7 1.7 3.4 3.4 5.1 5.2.8.8 1.2.8 2.1 0 3.9-3.5 3.9-3.5.3-7.3-3.4-3.5-6.8-6.8-10.7-10.7.5 1.5.7 2.4 1.1 3.4zM294.2 593.8c-3.8 3.8-3.7 5.1.8 8.2.8.5 1.3.4 2.1-.1 2.6-1.5 4.4-3.9 6.5-5.8.8-.8.6-1.5-.2-1.8-1.2-.5-1.8-1.5-2.5-2.4-2.1-2.6-2.2-2.5-4.7-.1l-1.5 1.5-.5.5zM658.4 455c-.2-.5-.3-1-.9-1.1-.7-.1-.7.6-.9 1.1-2.6 4.7-5.2 9.3-7.9 13.9-.3.5-1 1.1-.5 1.6.3.3 1.2.3 1.7.2 2.3-.4 4.5-1.2 6-3 3.7-3.7 4.6-8.6 2.5-12.7zm-301.3 66.4c-1.2 1.2-2.8 2.4.4 3.2.9.2 1.7 1.6 2.2 2.6.8 1.7 1.6 1.7 2.9.6 2.1-1.8 3.6-4.1 5.4-6.2.4-.4.6-1 .2-1.4-1.3-1.6-2.7-3.2-4.4-4.3-.7-.4-1.3.1-1.8.6l-2.9 2.9c-.7.6-1.4 1.3-2 2zm268.1-68.6c3.1-5.8 6.1-11.6 9.2-17.3.5-.9.8-1.5-.3-2.1-1.1-.6-1.7-.1-2.2.9-4.3 8.5-8.7 16.9-13.1 25.4-.3.6-1.2 1.2-.3 1.7.7.4 1.7.5 2.4-.4 1.5-2.8 2.9-5.5 4.3-8.2zM399 680.8l.3.3 38.7-38.7-.3-.3-38.7 38.7zm-39.2-122 .3.3 38.5-38.5c-.1-.1-.2-.2-.3-.4-12.8 13-25.6 25.8-38.5 38.6zm77.7-77-.4-.4-35.9 35.9.4.4 35.9-35.9zm81.8 129.9c2.1-2.1 2.1-2.5-.4-4.5-.7-.5-1.1-.7-1.7 0l-5.7 5.7c-1.2 1.1-.4 2 .4 2.8.9.8 1.8 1.8 3 .4l2.7-2.7c.6-.7 1.1-1.2 1.7-1.7zM351.6 543c1-1 2-1.8 3.3-2.5.5-.3 1.4-.3 1.3-1.3 0-.6-.3-1-.8-1.2-.8-.3-1.3.3-1.8.8-3.7 3.8-7.5 7.5-11.2 11.3-3 3-6.1 6-9.1 9.1-.4.4-1.3.8-.6 1.7.8.8 1.2-.1 1.6-.6 3.1-3.1 6.3-6.2 9.4-9.3 2.6-2.7 5.3-5.3 7.9-8zm127.9 57.9-.4-.4-38.8 38.8c.1.1.3.2.4.3 12.9-12.8 25.9-25.7 38.8-38.7zm38.6-247.7c-1 1-2 2.1-3 3-.9.8-.6 1.2 0 2.1 1.3 1.8 2.3 1.9 3.6.1 1.6-2.1 4.2-3 6.2-4.7-3.4-4.1-3.4-4.1-6.8-.5zm-167.3 181c.4-.4 1.4-.9.7-1.6-.7-.7-1.3.1-1.7.6-5.9 6-11.7 12.1-17.5 18.1-1.2 1.2-2.7 2.2-3.8 3.6-.4.5-1 .8-.5 1.4.7.8 1.1-.2 1.4-.5 3.7-3.6 7.4-7.3 11-11 3.5-3.6 7-7.1 10.4-10.6zm32.5-50.7c-1.5 1.3-.7 2.4.1 3.6.9 1.4 2.1 1 3.1.2 1.4-1.2 2.8-2.5 4-4 1.2-1.5.4-3.7-1.4-4.4-.7-.2-1.1.1-1.5.6-.6.8-1.4 1.4-2.1 2.2l-.1-.1c-.8.6-1.4 1.3-2.1 1.9zm78.7-78.9c-1.4 1.1-1.6 2.1-.2 3.6 1.5 1.5 2.4 1.1 3.5-.2.8-1 1.8-1.8 2.7-2.7 1.9-1.9 1.7-3.5-.7-4.8-.8-.4-1.1 0-1.5.4l-2.4 2.4c-.4.4-.9.9-1.4 1.3zM326.2 566.5c-5.7 5.4-11.2 11-16.8 16.6-.4.4-.8.7-.9 1.2-.1.5-1.3.6-.4 1.4.8.6 1.1-.1 1.5-.5l19.5-19.5c.4-.4.9-.8.6-1.6-1.8-.1-2.5 1.4-3.5 2.4zm264.6-33c-1 1-2.2 1.8-.5 3.3 1.4 1.2 2.5 1.7 3.8 0 .9-1.1 2-2.2 3.1-3.1 1.4-1.2 1.3-2 .1-3.3-1.3-1.4-2.2-1.6-3.4 0-.4.6-1.1 1.1-1.6 1.7-.5.4-1 .9-1.5 1.4zm-144 139.2c3.1-4.5 8.3-6.5 11.7-10.6.3-.4.7-.7 1.1-1.1.6-.7.4-1.4-.2-2-.7-.7-1.7-.5-2.1.1-3.8 5.2-9 9.1-13 14.1-.2.2-.3.6-.6 1 1.7.3 2.7-.9 3.1-1.5zM318.1 565.1c-4.3 4.4-8.6 8.9-13.3 13-.5.5-1 1-.8 1.8.2.5.5.8 1.1.9.7.1 1.3-.4 1.5-.9 1.5-4.1 5.5-6 8-9.1 3.3-4 7.5-7.1 10.4-11.4-3 1-4.8 3.6-6.9 5.7zm118.1-128c1.6-1 2-1.9.4-3.5-1.5-1.5-2.5-1.5-3.7.1-.8 1.1-1.7 2.2-2.8 2.9-1.9 1.3-1.3 2.3-.1 3.7 1.4 1.6 2.3.7 3.3-.4.5-.6 1.1-1.1 1.6-1.6l.1.1c.4-.4.7-1 1.2-1.3zm-13.3 6.7c-1.3 1.1-1.5 2-.2 3.4 1.3 1.3 2.2 1.5 3.5.2.9-.9 1.8-1.7 2.7-2.6 1.8-1.7 1.4-3.6-.9-4.9-.7-.4-1.1-.1-1.5.3l-2.2 2.2c-.5.4-.9 1-1.4 1.4zm128.8 128.7c-2 1.4-1.1 2.5.1 3.8 1.6 1.8 2.3.4 3.3-.6.9-.8 1.6-1.9 2.6-2.5 2-1.4 1.5-2.7.1-4.1-1.6-1.7-2.5-.3-3.5.8l-1.3 1.3c-.4.5-.8 1-1.3 1.3zm-65.3 72c1.5-1.2 1.3-2.2 0-3.6-1.4-1.4-2.3-1-3.4.2-.8.9-1.6 1.9-2.6 2.5-1.8 1.3-1.8 2.6-.4 4.1 1.7 1.7 2.7.4 3.7-.8.3-.4.7-.7 1.1-1.1.7-.3 1.1-.9 1.6-1.3zm178-181.7c.6-.6.9-1.3.2-2-.9-.8-1.1 0-1.4.6-.2.6-.7.5-1.1.4-1.6-.1-2.2.9-2.8 2.2-1.2 2.8-2.9 5.1-5.9 6.4-2.7 1.1-2.6 1.3-1.2 4.5 4.2-4.1 8.2-8.1 12.2-12.1zm-273.2 12.9c-1.3.7-2 1.7-.8 3.1 1.1 1.2 2.1 2.4 3.7.6.8-.9 1.9-1.6 2.8-2.6 1.9-2 1.6-3.4-.8-4.7-.8-.5-.8-.5-3.4 1.9-.6.4-.7 1.3-1.5 1.7zm-34 86.6-.4-.4-38.5 38.5c.1.1.3.2.4.3 12.9-12.8 25.7-25.6 38.5-38.4zm.4-46c2.4-1.5.9-2.9-.2-4.1-1.3-1.6-2.1 0-2.9.7-1 .8-1.8 1.9-2.8 2.7-1.6 1.3-1.3 2.2.1 3.4 1.2 1 2.1 1.7 3-.1.3-.7 1.4-.5 1.4-1.4.5-.4.9-.9 1.4-1.2zm100.2 136.2c-2 2.2-2.1 2.1.4 3.9.4.3.8.7 1.1 1.1 1.2 1.1 1.9 2.9 4 .7 2-2.1.3-2.9-.8-4.1l-.5-.5c-1.2-.7-1.8-3.8-4.2-1.1zm68.1-47.5c1.4-1.1 1.5-2 .1-3.3-1.3-1.2-2.2-1.8-3.5-.1-.5.8-1.3 1.4-2 2-1.8 1.4-1.5 2.5.1 3.9 2.6 2.4 2.8-1.1 4-1.3.6-.5.9-.9 1.3-1.2zm-191.8-36.4c-.7.4-1.2 1.1-2.1 1.4l2.7-2.7c.7-.7.9-1.8.2-2.2-1-.6-.7.8-1.1 1.2-2.4 2.5-4.5 5.4-7.5 7.3-.5.3-1.5.2-1.5 1.2 0 .4.4.5.7.6.8.1 1.8 0 2-.7.6-1.9 2.5-2.1 3.6-3.4-.9 1.9-3 2.9-3.5 5.2l9.1-9.1c-1.7-.4-1.9.7-2.6 1.2zm123 79.2c-.1 0-.1-.1-.2-.2-.9-.5-4.4 1.9-5.5 3.9-.9 1.6.5 2.4 1.4 2.9 2 1.1 2.4-1.4 3.5-1.9 2.8-2.7 2.8-3.3.8-4.7zm160.1-344.9c.3.3.6.6 1.1.5.8-.2 3.6-4.8 3.4-5.7-.2-.9-.6-1.3-1.5-1.5-1-.3-1-.3-2.7 1.4-2.4 2.6-2.5 3.6-.3 5.3zM482 597.4l.4.4 35.6-35.6c-.1-.1-.3-.2-.4-.3-11.9 11.8-23.7 23.7-35.6 35.5zm159-116.3c-.7.7-1.4 1.2-.2 2.3 1 .8 1.5 1.1 2.4 0 1.9-2 4.7-3.6 2.9-7-.1-.3-.4-.5-1-1.3-.6 2.9-2.4 4.4-4.1 6zM424.7 693.2l.5.5c5.6-5.3 11.2-10.6 16.3-16.4l-.5-.5c-5.4 5.5-10.9 11-16.3 16.4zm-20 18.7c-.4-.5-.7-1-1.2-1.4-1.7-1.3-2.6-2.7-.7-4.6.7-.7.7-1.4-.1-2-.7-.6-1.5-.3-2 .4-.8 1.1-2 1.5-3.9 1.5 2.6 2.9 4.7 5.2 7.9 6.1zm14.9-24.5.4.4 15.6-15.6-.4-.4c-5.2 5.1-10.4 10.4-15.6 15.6zm231-215.1c-.4-1.3-1.5-.5-2.4-.6-1.2-.1-1.3.6-1.2 1.5.1.9.3 1.7.4 2.6.1.7-.3 1.7.6 2.1.9.4 1.2-.8 1.8-1.1 1.9-1.2 1.2-2.9.8-4.5zM290.5 598.7c-.4-.4-.9-.9-1.6-.4-.6.5-.7 1.2-.1 1.8 1.6 1.7 3.3 3.3 5 5 .5.5 1.1.4 1.6-.1.7-.6.2-1.1-.2-1.5l-2.4-2.4.1-.1c-.8-.7-1.6-1.5-2.4-2.3zm113.2 104.5.4.4 12.3-12.3-.4-.4-12.3 12.3zM619 308.9c-.2-3.8-3.3-7-7.8-7.8l7.8 7.8zM369.6 519.7c.3.3.7.8 1.3.3.5-.4.5-.9.2-1.4-1.4-2.2-3.3-3.9-5.6-5.2-.2-.1-.7 0-.9.2-.4.4-.3.9.2 1.3.7.6 1.4 1.2 1.6 1.4 1.3 1.6 2.2 2.5 3.2 3.4zm331-140.1c1.1-1.2.9-2.2 0-3.1-1.6-1.6-2.8 0-4 .8-1.1.6-.1 1.3.4 1.9 1.1.5 2 2.1 3.6.4zM484.9 502l-.2.2 18.4 18.4.2-.2c-6.2-6.1-12.3-12.2-18.4-18.4zM344.7 658.1c.8-.9.8-1.9-.1-2.8-.9-.9-2-1-2.9 0-.9.9-.8 2 0 3 1.1.8 2.1.8 3-.2zm218.1-149.2c-.1-1.2 2.6-1.7 1.2-2.9-1.1-1-1.6 1-2.5 1.6-1 .7-1.5 2-2.9 1.8-.3 0-1-.2-.9.5 0 .5.2 1 .8 1.2 2.1.8 2.9-.8 3.8-2 .2-.1.5-.2.5-.2zm-45.5-49.7c-3.2-.2-3.6 5.1-7.4 3.4 2.8 3.1 4.5 2.2 7.4-3.4zM492.6 437c.6-.7 1.1-1.2.5-1.7-.6-.6-1.1.1-1.7.7-.6.6-1.2 1.4-2.1 2-2 1.2-1.9 2.4.2 4.3-.5-2.9 1.8-3.9 3.1-5.3zm46.7 46.7c.4-.5 1.4-.7.9-1.4-.5-.8-1.3-.1-1.7.4-.7.7-1.5 1.3-2.3 2-1.4 1.1-1.9 2.5.2 3.9-.4-2.6 1.8-3.4 2.9-4.9zm154-105.5 6.4 6.4c-.7-3.5-3-5.4-6.4-6.4zM415.8 702.3l.5.5c1.9-2.1 4.2-3.7 5.8-6-.2-.1-.3-.3-.5-.4-1.9 2-3.8 4-5.8 5.9zm-62.9-170.8c1.8-1.3 3.7-2.4 4.3-4.8-2.3.9-3.8 2.4-4.3 4.8zm139.9-83.1-.3.3 7.6 7.6c.1-.1.2-.2.4-.3-2.6-2.5-5.2-5-7.7-7.6zM368.9 515c.5.5 1.2 1 1.9 1.2.4.1.4-.6.5-1 .1-1.1-.4-1.8-1.3-2.3-.7-.4-1.5-.3-2.5.1.5.8.9 1.5 1.4 2zm-62 72c-1.1-1.1-1.6 1.5-2.9 1.6-.2 0-.2.4-.4.6-.5.6-1.9 1.1-.9 2 1.1 1 1-.9 1.8-1.1.2-.1.4-.3.7-.7.3-.9 2.6-1.5 1.7-2.4zm20.4-28.5c-.7.8-.8 1.4-.1 2.2.7.7 1.4.8 2.2.1.9-.8.2-1.3-.4-1.9-.4-.5-.8-1.4-1.7-.4zm68.9-88.5c-.9.8.3 1.6.9 2.2.7.7 1.5 2 2.4 1.1.8-.8-.8-1.4-1.2-2.2-.7-.3-1.2-1.8-2.1-1.1zm113.2 145.1c-.9 1 .6 1.6 1.2 2.2.5.6 1.1 1.8 2 .9 1.1-1.1-.7-1.4-1-2.3-.9-.1-1.2-2-2.2-.8zM383.9 489.7c1-1-.7-1.6-1.2-2.3-.5-.6-1.3-1.7-2-.9-.8.8.5 1.4 1 2.1.7.4 1.5 1.8 2.2 1.1zM394.5 699c-.1-.6-.4-1.3-1.1-1-.5.2-.4.9-.2 1.4 1 1.6 1.3 3.5 2.7 4.8-.4-1.8-1.2-3.4-1.4-5.2zm-45-27.6c-.3-1.5-1.3-2.3-2.6-2.9-.4-.2-.7.2-.5.6.6 1.4 1.6 2.3 3 2.8.1-.4.1-.5.1-.5zm-59.7-66.3c.7.3 1.8.3 1.7-.3-.1-1.4-1.6-1.8-2.7-3.2-.4 1.9-.6 2.9 1 3.5zm68-95c-.2-.1-.5.3-.8.5.9 1.2 1.7 2.5 3.4 2.9 0-1.9-1-2.9-2.6-3.4zm-25.9 143.2c-.7-.9-1.1-2.2-2.6-2.2-.5 0-.4.6-.3.8.8 1.1 1.5 2.4 3.4 2.6-.2-.6-.3-1-.5-1.2zm88-207.5c0 2.6 1.7 3.3 3.6 4.4-.7-2.2-2.2-2.9-3.6-4.4z"/><path d="M702.4 424.5c-2.7.1-3.1-2.6-4.6-3.9-.4-.4.1-1.4 1-1.3 1.1.1.8-.5.5-1-.2-.5-.6-1-1.2-.3-1.4 1.6-2.8 3.1-4.1 4.8-.3.4.2.8.6.9.4.1.9.3.9-.6.1-2.1 1.1-1.5 2-.5.8.8 1.6 1.4 2.3 2.3 1.2 1.2 2 .8 2.6-.4.1 0 0 0 0 0zM370.1 589.4c1.4 0 2.6.5 3.3 1.8 2.2-.9-.1-2.2.3-3.3-1.7-.4-2.6.6-3.6 1.5zM374.7 586.9c-.2-.3-.4-.4-.5 0h.5zM393.7 669.8c-.2 0-.3.1-.3.3l.2-.1.1-.2zM416 619.3c.2 0 .4.1.6.1-.2 0-.4-.1-.6-.1zM549.3 429.3c-5.9-5.9-11.8-11.8-17.6-17.7-2.6-2.7-2.3-5.7.8-7.7 1.7-1.1 1.8-2.2.9-3.9-1.6-2.9-1.3-3.9 1.5-5.5.7-.4 1.4-.7 2-1 1.9-1 3.4-.6 4.1 1.5.8 2.5 2 2.3 4 1.1 8.5-5.4 17-10.7 25.5-16 1.3-.8 1.4-1.6.4-2.9-1.9-2.4-1.6-3.6 1.1-5.2.5-.3 1-.6 1.6-.8 2.8-1.4 3.6-1.4 4.8 1.3 1 2.2 2 1.5 3.4.8 4.4-2.3 5.8-2.1 9.3 1.4l32.9 32.9c4.2 4.2 4.3 5 1.6 10.5-.4.8-.8 1.6.3 2.4 3.4 2.5 3.4 2.5 1.1 6.4-1.8 3.1-2.2 3.3-5.1 1.4-1.2-.8-2-.7-2.8.5l-15.6 25.8c-.9 1.4-.7 2.3 1 2.9 2.3.9 2.9 2.5 1.3 4.6-.5.7-.8 1.5-1.2 2.2-1.1 1.8-2.6 2.6-4.4 1.1-1.9-1.5-2.9-.6-4 1-2.8 3.9-5.6 4.2-8.8 1-9.1-9.3-18.4-18.4-27.6-27.6l-10.5-10.5zm56.3-34.9c1.6-1.6 1.5-2.4-.1-3.8-5.5-5.3-10.8-10.8-16.2-16.1-2.5-2.5-4.8-2.6-7.7-.3-1.3 1-1.3 1.9-.5 3.3 1.8 2.8 1.5 3.5-1.2 5.1-3.8 2.1-3.9 2.2-6.8-1.3-1.1-1.4-2.1-.4-2.9.1-5.4 3.3-10.7 6.7-16 10-3 1.9-6 3.6-9 5.5-1.7 1.1-2.8 2.2-1.1 4.3 1.5 1.9.4 3.3-1.3 4.4-.9.5-1.8 1-2.7 1.4-1.6.7-2.9.9-3.7-1.1-.6-1.6-1.6-2.7-3.5-1.2-2.2 1.7-3.1 3.9-1.8 5.4 2 2.1 3.6 4.5 6 6.3 3.4 2.5 5.7 6.2 8.9 9 4.6 4.2 8.9 8.7 13.3 13.2 1.2 1.3 1.9.3 2.7-.5 7.3-7.4 14.7-14.7 22.1-22.1 7.2-7.4 14.3-14.6 21.5-21.6zm-42.7 44.1c-1 1-1.5 1.6-.2 2.9 2.9 2.9 5.6 6 8.4 8.9 4 4.1 8.3 7.8 12.1 12 1.6 1.8 3.5 3.4 5.3 4.9 2.9 2.4 4.8 2.1 7-1 1.2-1.7 1.1-2.9-.8-4-2.8-1.7-2.9-2.3-1.3-5 2.4-4.1 2.4-4.1 6.7-2.1 1.2.6 2.1.3 2.7-.9 3.3-5.6 6.7-11.1 10.1-16.6 1.8-2.9 3.4-5.9 5.2-8.8.9-1.4 1-2.4-.8-3.2-1.3-.6-3.1-1.3-2.7-3.2.6-2.2 1.7-4.3 3.7-5.5 1.3-.8 2.5.5 3.4 1.1 1.7 1.1 2.6.5 3.5-1 1.9-3.3 1.6-5-1.1-7.8-4.8-4.8-9.6-9.5-14.3-14.4-1.3-1.4-2-1.5-3.4-.1-7.2 7.3-14.4 14.5-21.7 21.7-7.2 7.5-14.5 14.8-21.8 22.1zm13.5-64.8c-.6 0-.6-1.7-1.6-.5-.9 1.2-3.5 1.5-2.3 3.8.6 1.1 1.2 2.3 2 3.1.7.7 1.7 2 3.2.1.6-.7 1.9-.9 1.7-2.4-.1-.8 0-1.4-1.2-1.4-.9-.6.2-2.7-1.8-2.7zm-35.8 24.2c.5-1.7-1.1-1-1.4-1.4-2-2.1-2.6 1.8-4.1.8-.1.2-.1.3-.2.5-.4 1.6 1.8 5.4 3.4 6.1.5.2 1.2 1 1.4.2.5-1.4 3.2-1.5 2.1-3.8-.5-1.2-1.2-.9-2.1-.8-.7.1-1-.5-1.5-1.4 1.1.7 2 1.4 2.4-.2zm58.1 58.4c-1.4 0-2 .6-2.2 2.1-.1.5-1.8.4-1.1 1.4.5.8.4 2.4 2.1 2.1.2 0 .4-.1.5-.1 2.2 3.3 3.3.2 5-.6 2.1-1-1.3-2.4.5-3.1-.7-.2-1-.9-2.2-.2-1.6 1-1.2-1.7-2.3-2.2-.6-.1-.1.6-.3.6zm20.5-35.5c-2.7 3.2.4 4.2 2.1 5.4 1 .7 2.8 1.5 2.9-.9.1-1 2.3-.6 1.1-2.6-.8-1.3-.7-2.3-2.4-1.5-.2.1-.6 0-.6-.1-.2-2.6-2.5-.9-3.4-1.8-.4.8.6 1.2.3 1.5zM658.1 372c-2.5 2.4-5 4.8-7.3 7.4-1.3 1.4-2 1.5-3.4.1-7.8-8-15.8-15.8-23.7-23.8-1.9-1.9-5.1-3.8-5.2-5.8-.1-2.3 3.4-3.9 5.2-6 1.8-2.1 4.3-3.5 5.4-6.4l32.4 32.4c-1.8.2-2.6 1.2-3.4 2.1zm-6.5-4.5c3-3 2.8-4.3-.8-6.7-.7-.4-1-.4-1.5.1l-8.8 8.8c-.2.2-.4.6-.4.9.5 1.8 2.1 2.7 3.5 3.6 1.3.9 1.7-.7 2.4-1.3 1.2-1 2.2-2.2 3.3-3.3.8-.7 1.5-1.4 2.3-2.1zm-29.1-16.7c-1.3 1.1-.9 1.9.2 2.9 3.1 2.7 3.1 2.7 6-.3 2-2 3.9-4 5.9-5.8 1.1-1 1.3-1.9.1-2.9-.6-.5-1.2-1-1.7-1.6-1-1.4-1.8-1.1-2.8.1-1.2 1.4-2.5 2.6-3.8 3.9-1.3 1.2-2.5 2.5-3.9 3.7zm6.1 6.5c-.8.7-.8 1.2 0 2.1 3.5 3.4 3.4 3.4 6.9-.1 1.8-1.8 3.6-3.7 5.4-5.4 1.2-1.1 1.2-2 0-3-.6-.5-1.2-1-1.7-1.6-.9-1.2-1.7-1.1-2.7 0-1.2 1.3-2.5 2.6-3.8 3.9l-4.1 4.1zm17.2 3.4c2.7-2.8 2.7-1.8 0-4.8-1.4-1.6-2.5-1.6-4-.1-2.2 2.3-4.4 4.6-6.7 6.8-2.5 2.5.5 3.2 1.4 4.6 1.2 1.8 2.1.6 3-.3l3.7-3.7c.9-.8 1.8-1.7 2.6-2.5zm1.8 14.4c-1.4 1.1-1.4 2.1-.2 3.3 1.3 1.2 2.2 1.5 3.6-.1 2.2-2.5 4.7-4.9 7.1-7.2 1.8-1.6.4-2.4-.5-3.6-1.2-1.5-2-.6-2.8.3-1.2 1.2-2.4 2.5-3.7 3.7-1.2 1.3-2.2 2.6-3.5 3.6zm-28-25.7.2.2 9.5-9.5c-.1 0-.3-.1-.4-.1-3 3.1-6.2 6.2-9.3 9.4zM619.9 380.2c.9 0 2 .2 3.1.1 1.4-.1-.1-.6.1-1 .4-.7.9-1.3 1.6-1.6.4-.2.8-.6.4-1-.3-.4-.8-.2-1.1 0-1.3.8-2.4 2-4 2.4-.4.1-.4.5-.1 1.1zM553.8 555.1c-1.7 1.9-3.1 1.7-4.7-.1-1.3-1.4-2.6-2.8-4-4-1.7-1.5-1.5-2.8.1-4.3 3.3-3.2 6.6-6.5 9.8-9.8 1.7-1.7 3.3-3.5 5-5.1.8-.7 1.7-1.6 2.9-.5 1.8 1.8 3.7 3.5 5.5 5.4 1.4 1.3 1.3 2.6-.1 4-2.5 2.4-4.9 4.9-7.4 7.3-2.4 2.3-4.9 4.6-7.1 7.1zm8.7-18.3c-2.4-2.3-2.6-2.3-5 .3-3 3.3-6 6.4-9.4 9.3-.5.5-.9 1-1 1.7-.1.5-.4.9-1 .9-.5 0-.5-1.5-1.2-.5-.6.9.4 1.2.8 1.6 1.4 1.5 2.8 2.8 4.2 4.2.7.7 1.3 1.5 2.6.3-1.3-.6-2.6-1.2-2.1-2.9 2 1.8 2.5 1.4 4.2-1 2.3-3.3 5.5-5.8 8.3-8.5.3-.2.8-.2 1.3-.1 1.2.2 2.1-.8 1.8-1.7-.7-2-.5-4.5-2.7-5.8-.4-.2-.7-1-1.2-.4-.4.4-.2 1 .1 1.4l1.2 1.5-.2.2c-.1-.1-.4-.3-.7-.5zm5.1 2.8c1.2-.9.5-1.7-.2-2.4-1.8-1.9-3.7-3.8-6-5 2.5 2 5 4 6.2 7.4zM493.5 608.7c-.6.6-1.3 1.5-2.2.9-1.5-1-3.2-2.1-3.6-3.8-.3-1.2 1.1-2.3 2.1-3.3 2.6-2.5 5.3-5 7.7-7.7 3.4-3.8 4.1-4 7.5-.6 1.1 1.1 1.2 1.9 0 3-1.9 1.8-3.8 3.8-5.7 5.7l-5.8 5.8zm-1-3.4c-.2.5-.3 1.3.4 1.6 1 .4.7-.6 1-1 1.9-3.2 4.9-5.2 7.4-7.9.5-.5 2-.4 1.5-1.3-.7-1.2-1.6-.1-2.4.4-.4-.8 1.3-1.1.4-1.8-.9-.6-1.4.2-1.9.8-2.2 2.2-4.4 4.4-6.5 6.6-.5.5-1.6 1-.9 1.8.8.9 1.4-.3 2.3-.8-.6.7-1.1 1.1-1.3 1.6zM430.8 671.4c-1.9 1.9-3.9 3.7-5.7 5.7-1.3 1.5-2.4 1.4-3.5-.1-.3-.4-.7-.8-1.1-1.1-1.6-1.2-1.7-2.3-.1-3.8 3.3-3.1 6.4-6.3 9.6-9.5 3.4-3.4 3.4-3.4 6.9.1.9 1 1 1.6 0 2.6-2.1 2-4.1 4.1-6.1 6.1zm-9 1.8c-.4.2-.5.5-.2.8.6.8 1.2 1.8 2.5 1.5.6-.1 1.3 0 1.7-.9 1.8-3.8 4.7-6.6 8.4-8.6.5-.3.7-.5.5-.9-.4-1.1-3.4-1.9-4.1-1.1-1.8 2.2-4 4-5.9 6.1-1 1.1-2.3 2.3-.1 4.1-1.7.3-1.6-1.5-2.8-1zM569.7 536.5c-.9-.9-1.9-1.8-2.7-2.7-.7-.8-2.1-1.7-.6-3 1.3-1.1 2 .1 2.8.8 1.8 1.6 3.2 3.6 5.4 4.7 1 .5 1.6 1.5.5 2.7-1 1-1.8 1.1-2.8 0-.9-.8-1.8-1.6-2.6-2.5-.1 0 0 0 0 0zm-2.3-4.5c.8 2 2.4 3.3 4.2 4.3-1-1.9-2.4-3.3-4.2-4.3zM454.9 451.5c-.9.9-1.8 1.8-3 .5-1.9-2-3.8-3.9-5.8-5.8-1.2-1.1-.8-2.3.1-3.2 5-5.2 10.1-10.4 15.2-15.5 1.2-1.2 2.5-1.3 3.8.1 1.6 1.7 3.2 3.3 4.9 4.9 1.5 1.4 1.3 2.6-.1 3.9l-7.5 7.5c-2.6 2.6-5 5.1-7.6 7.6zm-8-6 5.5 5.5c.3.3.7.3 1.3 0-.5-1.2-2.3-1-2.5-2.4.7-.9 1.4 1.1 1.8.2.5-1.3-1.4-1.5-1.5-2.7.1 0 .3 0 .4.1 2.8 2.5 2.8 2.6 5.4 0 2.9-2.9 5.8-5.7 8.6-8.7.7-.8 2.7-1.4.9-3 .6-.5 2.2-.8 0-2.1 1.8.2 1.7 1.6 2.6 2.2-.3-2.2-5.2-6.7-6.8-6.4.1.8.7.4 1.1.5.5.2 1 .5.8 1.1-.1.3-.6.7-1.1.5-1.7-.7-2.4.7-3.1 1.7-2.8 3.8-6.2 7.2-10 10-.8.6-2.4 1.4-.6 2.7.4.3.5.6-.1 1-.4.3-.7.5-1.1.1-.5-.7-2-1-.9-2.4-.5.7-1.8 1-.7 2.1zM397.1 499.8l5.7-5.7c.7-.7 1.4-1 2.3-.6.8.5 1.3 1 .1 1.8-.2.2.3 1.6 1.6 1.1 1.7-.6 1.9.3 1.5 1.6-.2.7-.7 1.4-1.3 1.9-3.5 3.5-7 7.1-10.6 10.6-1.1 1.1-2.3 1.5-3.5.1-.6-.7-1.2-1.3-1.8-1.8-1.3-1-1.1-2 0-3 2-1.9 4-3.9 6-6zm7.2 0c.3-.4.7-1 .3-1.4-.5-.5-1 .2-1.6.4.3-.6.5-1 .7-1.5.1-.4.1-.9-.4-1.1-.5-.2-.8.2-1 .5-2.1 3.3-4.9 5.9-8 8.2-.5.3-1.2.6-.7 1.3.4.7 1.1.3 1.6-.1.7-.6 1.3-1.2 2.1-2.1.3 1.8-1.7 2-1.5 4 3.2-2.7 6-5.3 8.5-8.2zM465.8 421.7c-1-1.3-1.9-1.3-2.8-.4-.9.9-1.1 1.9 0 2.6 2.3 1.5 4.2 3.5 6 5.5.5.6 1.2 1 1.9.1.7-.8.6-1.5-.1-2.2-1.8-1.9-4.1-3.4-5-5.6zM485 469.3c4.7 7.8 8.9 15.1 13.3 22.4 1.1 1.8 2.2 3.3 4.5 4 1.2.4 2.5 1.6 2.5 3.3.1 1.7-.3 3.2-1.9 4-1.6.8-3.3 1.2-4.9 0-1.7-1.2-2.1-3-1.6-4.8.5-1.7.2-2.8-.7-4.2-5.4-8.8-10.6-17.7-15.8-26.5-.5-.9-1.3-1.5-2.3-1.9-5.6-2.5-11.2-5.1-17-7-.4-.1-.8-.3-1-.8-.2-.6.4-.8.8-1.1.8-.8 1.5-.6 2.4-.2 3.5 1.3 7.1 2.6 10.5 3.9 1.1.4 1.9.7 3-.3 1.5-1.3 2.9-1.1 3.6 1.1.7 2.5 2.6 4 4.9 5 2.5 1.1 4.9 2.4 7.2 3.9 7.5 4.7 15 9.7 21.3 15.9 4.5 4.4 8.3 9.5 12 14.8 7.6 10.9 13.7 22.5 18.1 35 .6 1.7.6 3-1.3 3.8-11.1-29.9-27.5-55.3-57.6-70.3zm39.5 30.9c-10.6-15.1-24.6-25.8-41.1-33.6 6.6 4.1 13.2 8.1 19.4 12.9 6.4 5 12.1 10.7 17.2 17 5.1 6.2 9.2 13 13 19.9 3.8 6.9 6.9 14.1 10 21.3-3.9-13.6-10.4-25.9-18.5-37.5zm-25.1-4.3c-6.4-10.6-12-21.8-19.5-31.7 6.2 10.8 12.1 21.7 19.5 31.7zm-22.5-32.2.3-.6c-4.7-2.9-10.1-4.2-15.2-6.3-.1.3-.2.5-.2.8 5 2 10.1 4.1 15.1 6.1zm22.7 37.3c1.1.9 2.4.7 3.2-.3.8-1 .4-2.1-.5-2.9-1-1-2-.3-2.9-.1-.8 1.3-.9 2.4.2 3.3zm-21.7-38.6c.5.5 1 1.1 1.7.4.6-.6.3-1.3-.2-1.8-.4-.5-.8-1.2-1.6-.6-.7.8-.5 1.4.1 2zM619 335.7c2.2 1.6 3.4-.8 4.8-1.4 1.5-.7-.4-2.1-.8-2.5-1.4-1.5-2.9.1-4 .8-1.5.8-.3 2.1 0 3.1zM379.7 672.3c-.3.5 0 1.5.5 2.1 1.2 1.3 1.3-1.8 2.7-.9.1.1.5-1.4.2-1.5-1-.3-2-1-3.4.3zM402.7 650.7c1.2.6.9 1.8 1.1 2.8 1.4 0 1.2-1.2 1.8-1.7-1-.2-1.3-1.9-2.9-1.1zM374.1 585.7h-.1l.1.1zM501.1 450.2l8 8 .2-.2-8-8c0 .1-.1.2-.2.2z"/><path d="M558.8 431c.6 1.3 1.5 1.9 1.5 3.1 0 .5.5.8 1.1.8.6 0 1-.3 1.2-.8.3-.6.1-1.4-.5-1.5-1.1-.1-1.7-1.4-3.3-1.6zM600.8 394c.6.6 1.2.7 1.9.2.6-.5.7-1.2.1-1.8-.5-.5-1.2-.7-1.9-.2-.6.5-.4 1.2-.1 1.8zM464.7 436l-9.9 9.9.2.2 9.9-9.9-.2-.2z"/><path fill="none" d="M0 0h1000v1000H0z"/><path fill="none" d="M100 99.9h800.1v300H100z"/><path d="m162 257.6-37.9-148.9h34.3c14 68.4 20.3 98.8 22.1 115.2h.2c5.7-27.4 20-79.2 28.7-115.2h28.9c7.7 28.6 22.7 86.4 27.6 113.6h.2c4.9-32.8 19.6-90.5 24.8-113.6h31.3l-40.3 148.9h-33.4c-7.8-33-20.9-81.1-26.2-106.6h-.2c-5.4 26.5-18.8 76.6-26.8 106.6H162zM372.9 198v59.6h-31.5v-149h65.4c32.5 0 50 17.9 50 40.9 0 20-10.9 30.8-21.6 35.2 7.4 2.7 18.5 10.4 18.5 37.1v7.4c0 10 .1 21.4 2.1 28.4h-30.5c-2.6-6.5-3.1-17.6-3.1-33.4V222c0-16.3-4.1-24-28.1-24h-21.2zm0-25.7h27c17.6 0 24.4-6.7 24.4-19.2 0-12.1-7.9-18.9-23.7-18.9h-27.8v38.1zM587.9 193.3h-71.2v37.8h78.6l-3.8 26.4h-106V108.6h105.6V135h-74.3v31.9H588v26.4zM747.1 211.7c-6 27.8-26.9 48-64.2 48-47.2 0-69.5-33.4-69.5-75.8 0-40.8 23-77.4 71.1-77.4 39.7 0 58.9 23.3 62.5 48.2h-32.2c-3.1-11.5-11.1-22.9-31.3-22.9-26.6 0-36.8 23.9-36.8 51 0 25.2 8.9 51.7 37.7 51.7 21 0 27.6-14.1 30.5-22.8h32.2zM771.9 108.6h31.8v66.5c9.8-11.5 40.5-45 59.3-66.5h38.6l-59.8 61.9 62 87h-38.6l-45.7-66.2-15.7 15v51.1H772V108.6z"/><path fill="none" d="M600 600h300v300H600z"/><path d="M355.5 654.7c-5.4 0-10.8-1.4-16-4.2-3.4-1.8-6.3-4-9.2-6.1-.8-.6-1.6-1.2-2.5-1.8-1.7-1.2-2.8-2.7-3.7-4-.6-.8-1.1-1.5-1.7-2-4.9-4.8-8-10.5-9.3-17-.4-2.2-.3-4.3-.2-6.2-.2 0-.5.1-.7.1-2.2.3-4.4.7-6.8.6-10-.2-17.2-3.6-21.8-10.5-1.3-2-1.8-4.3-1.5-7.3l.1-.7c.2-2 .4-4.1 1.2-6.3.3-.9 1.3-3.7 4-4.8-1.1-.9-2.2-1.9-3.2-2.9-2.4-2.4-4.6-4.9-6.6-7.6-.1.4-.2.8-.3 1.1-.5 1.2-1.9 3.3-5.6 4.1-8.1 1.7-15.3-.7-20-2.6-6-2.5-11.1-6.3-15.2-11.5-5.1-6.6-6.1-13.8-2.9-20.8.3-.6.5-1.3.8-2 0-.1.1-.2.1-.3h-1.6c-2 0-4-.1-6.2-.6-8.6-1.9-15.7-4.9-21.7-9.1l-3-2.1c-5.5-3.7-11.1-7.6-15.7-12.8-5.5-6.3-6.8-13.1-3.9-20.4 1.2-3 3.2-5.7 6.3-8.6 4.7-4.4 9.4-6.6 14.8-7.2 7-.7 12.6 1.8 16.7 4 .8.5 1.8 1.2 2.7 2.3.6-1 1.3-1.9 2.1-2.7 2.1-2.2 4.4-4.5 7.1-6.6-1.3-.2-2.6-.8-3.7-2.2-2.1-2.5-2.3-5.7-.5-8.7.4-.6.8-1.3 1.1-1.9 2.3-3.8 4.7-7.7 7.8-11.2-3-1.6-5.1-4-6.8-5.9-5.1-5.6-7.7-12.3-9.4-17.5-1.2-3.7-.7-7.4-.3-10.3v-.6l-.1-.7.2-.7c1.5-4.9 3.2-9.1 5.5-12.6 4.5-7.1 12.9-13.1 21.9-10.5 1.8.5 3.5 1.3 5.1 2.4l.4-3.3 4.3 2c2 .9 3.5 3.1 3.9 5.9.2 1.5.1 2.9-.4 4.1 2.9-1 6.1-.7 9.6 1 3.8 1.8 7.5 4.3 11.1 7.4 6.2 5.3 6.9 12.2 6.8 19 0 1.8-.4 3.4-.7 4.9 4.5.1 8.6 1.9 12.2 5.4.9.9 1.8 1.7 2.7 2.5 2 1.9 4.1 3.8 6 6 .8.9 1.5 2 2.1 3.1 1.5 3.1.5 5.3-.7 6.5-.7.8-1.5 1.3-2.5 1.5 4.7 2.6 8 6.3 10.3 9.3 3.9 5 5.7 10.9 5.3 17.1-.3 4.1-1.9 7.7-3.4 11 3.6-.7 7.1-.3 10.1.4 4.6 1 8 3.3 11.3 5.6.8.5 1.5 1.1 2.3 1.6 5.3 3.4 10.7 7.6 16.4 12.8 1.5 1.4 2.4 3 3.1 4.3.3.6.6 1.1.9 1.6 1.5 2.2.9 5-1.3 6.8-.5.4-1.1.7-1.7 1l.1.1c2.4 2.8 5.4 6.6 7 11.3.2-.4.5-.8.8-1.1.9-1 2.5-2.1 5.4-1.9 2.3.2 4.6.8 6.4 1.9 6.6 3.9 11.6 8.8 15.3 15.1 4.2 7.1 3.9 14.6-.7 22.3-2.8 4.6-6.4 8.3-10.6 10.9-1.9 1.1-3.9 1.3-5.8.6.7 1.2 1.3 2.4 1.8 3.8.2-.5.5-1 .9-1.4 2.4-2.8 6.5-2.6 9.4-2.2.6.1 1.2.3 1.5.4h.1c6.7.6 10.5 5 13.4 9.3 2.2 3.3 3.4 7.2 3.5 11.4.1 4.1-.1 7.7-.6 11.1.1-.2.3-.3.4-.5.5-.6 1.1-1.3 1.6-1.9.1-.1.1-.2.2-.3 2-2.5 4.2-3.2 6.8-2.1l3.8 1.6-2.1 3.5c-6.4 10.5-13.6 16.8-22.7 19.9-5 1.7-10.2 1-14.3-1.7-.6-.2-1-.5-1.2-.7-.3-.2-.7-.4-1-.6-.2.3-.5.6-.6.7-2.7 3.3-6 5.1-8.3 6.2-5.6 2.4-10.8 3.7-16 3.7zm-40.2-48.6c1 0 2.4.2 3.5 1.3 1.6 1.6 1.4 3.7 1.3 4.6l-.1.9c-.2 1.9-.4 3.7-.1 5.3 1 5.1 3.4 9.5 7.4 13.3 1 .9 1.7 2 2.4 2.9.8 1 1.4 1.9 2.2 2.4.8.6 1.7 1.2 2.5 1.8 2.8 2.1 5.5 4 8.4 5.6 8.3 4.4 16.6 4.5 25.4.3 2.7-1.3 4.5-2.7 5.9-4.4 3.8-4.7 6-4.6 10.7-1.7h.3l.8.6c2.4 1.7 5.5 2.1 8.5 1.1 1.1-.4 2.1-.8 3.1-1.3l.9-2.1c.1-.2.2-.5.2-.9.1-.6.3-1.3.7-2.1 2.3-5 3.2-10.6 3-18.1-.1-2.8-.9-5.4-2.4-7.6-2.4-3.6-4.7-5.9-8.3-6.2-.8-.1-1.4-.3-1.8-.4-.1 0-.1 0-.2-.1-1.5-.2-2.3-.2-2.8-.1 0 .3.1.7.3 1.2.9 2.9.6 5.7-1 8.3-1.5 2.5-3.6 4.2-5.7 5.9-.6.5-1.3 1-1.9 1.6l-6.2 5.4.5-8.2c.1-1.9.7-3.3 1.1-4.2.1-.1.1-.3.2-.4 1.2-2.7 1.2-5.7.1-9.1-1.7-5.5-5.7-10-13.2-15-3.4-2.3-7.2-3.9-11.6-5.8l-8.9-3.8 8.7-2.9c3.7-1.2 6.9-1.6 9.8-1.9 4.6-.5 8.6 1.2 11.1 4.9 2.2 3.2 5.2 5.7 8.4 8.4l2.4 2.1h.1c3.2-2 6-4.9 8.1-8.4 3.3-5.5 3.5-10.3.7-15.2-3.1-5.2-7.3-9.4-12.8-12.6-.7-.4-1.5-.7-2.4-.9.3 1.4.6 3.1.2 5l-.1.3c-.2 1-.9 4.1-4.2 4.7-1.3.2-4.3.2-5.8-4-.4-1.1-.9-2.3-1.5-3.5-.6-1.3-1.2-2.7-1.7-4.1-1.3-3.6-3.6-6.7-5.8-9.2-3.6-4.3-8.6-7.2-13.8-10.2-.5-.3-1-.5-1.5-.8-.8-.4-1.7-.9-2.7-1.5l-7.8-4.5 8.7-1.9c2.7-.6 4.8-.2 6.5.3 2.5.7 4.8 1.7 7.1 2.9-4.4-3.8-8.6-6.9-12.6-9.6-.8-.5-1.7-1.1-2.5-1.7-2.8-2-5.5-3.8-8.7-4.5-5.6-1.2-8.9-.6-11.8 2.1l-.3.3.9 5.4c-.2 0-.4.1-.6.2-.4.1-.9.2-1.3.3-1.2.4-2.2 1.1-3.4 2.1-1.8 1.6-3.4 3.6-4.8 6.2l-.1.2c-.9 1.6-2.1 3.8-4.9 5.7l-6.6 4.4 1.2-7.8c.8-5.3 2.4-9.2 5-12.5.5-.6 1-1.3 1.5-1.9.5-.7 1-1.4 1.6-2.1-3.6-5.5-7-9.8-11.7-13-2.6-1.7-2.5-3.9-2.3-5.1l.5-2.4 2.5-.3c2.1-.2 4.2.1 6.3 1 1.1.5 2.3 1 3.5 1.5 3.3 1.3 6.8 2.7 9.9 5 0 0 .1 0 .1.1 1.2-2.6 2.3-5.2 2.5-7.7.3-4.5-1-8.6-3.8-12.3-4.2-5.5-8.4-8.4-13.5-9.4-2.2-.4-4.4-.9-6.6-1.6l-3.2-1.2 1-3.2c.6-1.8 1.8-2.6 2.1-2.9 3.3-2.3 6.7-3.4 10-3.1-1.4-1.4-2.9-2.8-4.4-4.2-.9-.9-1.9-1.7-2.8-2.6-2.8-2.7-5.8-3.8-9.1-3.4-2.5.3-3.8-.6-4.6-1.4-1.6-1.8-1.2-4.1-1-4.8.1-.6.3-1.2.4-1.8.3-1.4.7-2.8.7-4 .1-6-.6-10.3-4.4-13.5-3.1-2.7-6.4-4.8-9.6-6.4-2.8-1.4-4.2-1-5.3-.1-2.3 1.9-4.8 1.1-6 .7h-.1c-3-.9-5.5-.7-8.1.6-.2.1-.5.2-.7.4-1.3.7-3 1.6-5.1 1.8l-3.3.3-.5-3.2c-.4-2.7 1.1-4.5 1.8-5.3l.1-.1c1.4-1.6 2.9-2.9 4.6-3.8-2.1-.9-4.2-.4-7 .6l-.8 1.4-2.5-.5c-.2 0-.3-.1-.5-.1-1 1-1.9 2.2-2.6 3.3-1.8 2.8-3.3 6.2-4.5 10.2v1.5c-.4 2.9-.6 5.2 0 7.2 1.5 4.5 3.7 10.4 7.9 15 2 2.2 3.8 4.2 6.4 5.1 2.6.9 3.5 2.5 3.7 3.7.3 1.2.2 3-1.8 5-3.4 3.4-5.9 7.4-8.5 11.7-.4.6-.8 1.3-1.2 1.9 0 0 0 .1-.1.1.1 0 .3-.1.4-.1h.2c.6-.2 1.2-.4 1.9-.7 1.4-.6 3.1-1.3 5.1-1.4 6.7-.3 11.9 2.4 17 5l11.8 6.1-12.9.7c-1.1.1-2.1-.2-2.8-.3-.2 0-.3-.1-.5-.1-5.8-1.1-10.3-.7-14.2 1.3-3.7 1.9-6.8 5.1-9.8 8.2-1.8 1.8-2.6 4-2.6 6.9 0 1 .5 2 1.5 3.7l1.2 2.1-6.2 3.3c-2.3-3.9-4.4-7.8-5.8-12.3-.3-1.1-.8-1.7-1.3-2.1-4.8-2.7-8.6-3.6-12.6-3.2-3.9.4-7.2 2-10.8 5.3-2.3 2.1-3.8 4.1-4.6 6.1-1.9 4.7-1 8.9 2.7 13.1 4 4.6 9 8 14.4 11.7 1 .7 2.1 1.4 3.1 2.1 5.2 3.7 11.5 6.3 19.2 8 1.5.3 3.1.4 4.8.4 1.2 0 2.4 0 3.6.1 1.1.1 3.7.3 5 2.5 1.3 2.2.3 4.6-.1 5.5l-.6 1.5c-.3.8-.6 1.7-1 2.6-2.2 4.7-1.5 9 2.1 13.5 3.3 4.2 7.4 7.4 12.3 9.4 6.2 2.5 11.1 3.2 15.9 2.2h.2s0-.1-.1-.1c-4.5-6.8-6.3-14.1-5.3-21.8.1-1 .4-3.3 3-4.7l3.9-2.2 1.1 4.4c.2 1 .5 1.9.7 2.8.4 1.7.8 3.4 1.3 4.8 3.2 7.9 7.8 14.8 14 21.1 2.5 2.5 5.4 4.7 9.1 6.9 2 1.2 4.4 1.7 7 2.2l5.8 1.2-2.6 4.2c-1.4 2.3-3.6 2.5-4.5 2.6h-.2c-4.6.7-9.1-.1-13.3-2.4-.1-.1-.2-.1-.3-.2 0 .1-.1.2-.1.2-.5 1.4-.6 3-.8 4.7l-.1.8c-.1 1.2 0 2.1.4 2.7 3.3 4.9 8.5 7.3 16.2 7.4 1.8 0 3.6-.2 5.6-.5 1-.2 2-.3 3-.4.9-.2 1.2-.3 1.7-.3zm74.5-4.6zm-3.2 0zm.3-.5zm-12.5-51.5zm-67.4-48c1.3 1.7 2.5 3.4 3.6 5.1.3-.4.7-.7.9-.9.1-.1.3-.2.4-.4.3-.3.7-.6 1-.9-1.2-.2-2.3-.6-3.3-1.3-.8-.5-1.7-1.1-2.6-1.6zm-60.5-95.6z"/><path d="M399.1 644.9h-.5c-1.2-.1-2.2-.7-3-1.7-.6-.8-2.4-3.7 1.4-7 .2-.2.4-.4.6-1.1.4-1.6.9-3 1.4-4.5 1-2.9 1.9-5.6 2-8.4v-.1c.1-4.5.3-8.8-1.6-12.3-1.9-3.5-3.6-5.6-6.5-6.2-.8-.2-1.6-.4-2.3-.6-.6-.2-1.2-.4-1.7-.5-.1 0-.2 0-.3-.1 1.1 3.4.5 6.7-1.7 9.8-2 2.8-4.5 4.7-7 6.6-.6.5-1.2.9-1.8 1.4-2.1 1.7-4.9 1.5-6.7-.3-.9-.9-2.6-3.4.1-6.7 2.9-3.5 3.3-7.2 1.3-12-3.5-8.6-11.2-13.2-19-17-1.7-.8-3.7-1.7-5.8-2h-.1c-4-.5-4.2-3.6-4.2-4.2 0-1 .3-3.4 3.6-4.5 3-1 6.1-1.5 9.1-2l.8-.1c6.7-1.2 12.2 1.4 16.1 7.5 1.1 1.8 3 3.3 5 4.8 1 .8 2.1 1.6 3.1 2.5.1-.1.2-.2.3-.2 1.3-.9 2.4-1.7 2.9-2.7.7-1.5 1.8-2.5 2.6-3.4.6-.6 1.2-1.2 1.4-1.7 2.7-5.2 2.7-9.4.1-13.8-3.3-5.4-7.3-9.2-12.2-11.6.2 2.3-.4 4.7-1.7 7.1l-.1.2c-.4.8-1.5 3.1-4.5 3.2-3.2.1-4.6-2.4-5-3.2-1.1-2.2-2-4.4-2.9-6.5-.6-1.6-1.2-3-1.9-4.5-2.6-5.4-5.2-9-8.6-11.6-5.2-4-10.1-7-15.1-9.1-.1 0-.1 0-.2-.1-4.5-1.6-3.6-5.2-3.3-5.9.4-1.2 1.6-3.3 5-3.1h.2c2.4-.2 4.6 0 6.7.4-3.1-2.3-6.2-4.4-9.3-6.5-4.2-2.9-7.6-4.1-11.3-4.3-1 0-1.9 0-2.8.2l4 .9-1.7 3.9c-.4 1-1.6 2.7-4.3 2.7-4.6.3-7.7 2.7-10.7 7.9-.7 1.3-1.5 2.4-2.3 3.5s-1.5 2.2-2.1 3.2c-1.1 2.2-3.6 3.2-5.9 2.4-1.1-.4-3.5-1.6-3.1-5.4.6-6.1 2.5-10.9 5.8-14.8l.1-.1c.9-1 1.8-2.1 2.1-2.7-.3-.6-1.1-1.8-1.9-2.8-3.1-4.3-6.6-8.6-12-11-3.3-1.5-2.8-4.3-2.6-4.9.2-.7.9-2.8 3.8-3.3 2.6-.4 6.4-.7 10 .9 1.3.6 2.6 1.1 4 1.7 2.9 1.1 5.9 2.3 8.6 4.2 1.4-3.5 2.1-6.4 1.6-9.3-.8-4.8-3.2-8.8-7.3-12.5-3.6-3.2-7.9-5-12.9-5.6-.4 0-.9 0-1.6.2h-.1c-3.2 1.2-4.9-.6-5.5-1.5-.6-.9-1.8-3.3.9-6 2.8-3 6.9-5.5 11-6.2-2.4-2.4-4.7-4.7-7.4-6.5-1.6-1.1-3.2-1.6-4.9-1.6l-3 2.7 1.3-2.4c-.5.1-1 .3-1.5.5-3.2 1.5-4.9-.6-5.3-1.1-1.1-1.5-.9-3.3-.4-4.5 1.2-3 1.8-5.8 2-8.7.3-7.3-1.3-11.2-6-13.9-1.1-.7-2.1-1.4-3.1-2.1-1.8-1.3-3.4-2.4-5.3-2.9-.5-.1-1.2-.3-1.6-.4v.1c-.6 1.2-1.5 2-2.7 2.4-1.9.7-3.6-.2-4.2-.5-4-2-7.8-1.3-13.1 2.5l-.1.1c-1.6 1.4-3.2 1.8-4.8 1.2-.4-.1-3.9-1.6-2.5-5.8v-.1c.6-3.4 2.2-6.3 4.9-8.4-1.4.2-2.9.8-4.8 1.8-.1.1-.2.1-.3.2-.3.2-.6.5-1.1.8-3.2 1.9-5.3-.2-5.7-.6-.5-.6-2-2.7-.1-5.5 2.3-3.4 6.4-5.7 11.3-6.3 4.4-.6 8.6.3 11.7 2.4.3-3.4 2.5-6.6 4-8.3 3.6-4.3 8.2-7 12.3-7.2l2.9-.1.4 1.6c10.7-.6 19.6 2.1 27.1 8.1 2.7 2.2 4.4 5.3 4.7 8.7.3 3-.8 4.7-1.8 5.6 1.6 1.2 3.1 2.4 4.4 3.5l.7.6c1.7 1.4 3.6 2.9 5.1 5.1.9 1.3 1.4 2.8 1.3 4.1.2-.2.4-.5.6-.7 5.6-5.6 13.1-6.2 19.2-1.4 3.3 2.6 6.4 5.3 9.4 8 1.5 1.4 3.1 2.7 4.6 4 4.2 3.5 7.3 7.8 9.6 13.1 1.8 4 2.8 8 3.1 11.9 1.3-.6 3.1-.9 5.6 0 2.6 1 5 2.7 7.5 5.4 5.3 5.7 8.3 12.2 9 19.3.2 1.7-.2 3.3-1.2 4.5 2 2.8 4.4 5.3 6.8 7.6 2.3 2.3 3.9 4.8 5.5 7.3 1.1 1.7 2.1 3.2 3.2 4.7l.3.4.2.5c.9 2.3 1.6 4.2 2 6 .8 3.1-.4 4.9-1.2 5.8-.4.4-1.1 1-2.1 1.3 2.4 1.3 4.5 2.9 6.3 4.9.8-1.7 2.5-2.9 4.1-3.9 6.7-4.1 14-4.1 21.6-.2 11 5.7 17.7 17.3 16.6 28.9-.8 9.2-5.8 16.9-14.7 23.2-1.2.8-2.4 1.6-3.8 2.4.8.3 1.6.6 2.4 1 6.6 3.4 15.5 9.2 17.2 21.2l.4.4.2 1c.7 3.3-.6 6-1.6 7.9l-.1.2c-3.8 7.6-9.1 12-16.1 13.4-.3.1-.7.3-1.2.3-2.9.3-4.5 1.6-5.5 4.3-.5 1.4-1.3 2.6-2.1 3.5-.2.3-.5.7-.7 1l-.2.4-.3.3c-1.7 1.5-3.1 3.3-4.6 5.3l-.4.5c-3.2 4-7.1 7-10.9 9.8l-.1.1c-.7.7-1.9 1.7-3.5 1.7zm-11.6-49.5c.8 0 1.7.1 2.7.3.9.2 1.6.4 2.4.6.6.2 1.2.3 1.7.5 5.9 1.2 8.9 5.4 11.3 9.7 2.8 5.1 2.6 10.8 2.5 15.8v.1c-.1 3.3-1 6.3-1.9 9.1.7-.7 1.4-1.5 2-2.3l.4-.5c1.5-2 3.1-4 5.1-5.8.2-.3.5-.6.7-1 .5-.6 1-1.3 1.1-1.8 1.8-5.1 5.6-8.2 11-8.9.2-.1.5-.2.8-.2 5-.9 8.5-3.9 11.3-9.7l.1-.2c.5-1 1-2 1.1-2.7-.3-.6-.6-1.3-.7-2-.9-7-5-12-13.5-16.3-2-1-4.4-1.5-7-2.1-.7-.1-1.4-.3-2.1-.4l-5.2-1.1 3.1-4.3c1.3-1.8 2.8-2.5 3.9-3 3.2-1.5 5.7-2.9 7.9-4.4 7.3-5 11.1-11 11.8-18 .8-8.8-4.3-17.7-12.8-22.1-5.5-2.8-10.1-2.9-14.8 0-.5.3-.8.5-1 .7.1.2.3.4.5.8 4 5.4 5.1 11.2 3.3 17.2l-6.8-1.7c.3-1.6.2-2.8-.6-4.2-1.4-2.6-3.4-4.7-5.6-7-.8-.9-1.7-1.8-2.5-2.7-2.5-2.9-6-4.8-10.5-5.8-2.6-.6-5.4-.5-8.4-.5h-3.1c-4.3.3-5.1-2.8-5.3-3.7-.2-1.6.1-3.7 3.4-5.1l.1-.1c3.9-1.7 8.4-3.5 13.7-2.6.8.1 1.7.3 2.5.4.7.1 1.5.2 2.2.3-.3-.9-.6-1.8-1-2.9-1.3-1.6-2.3-3.3-3.4-4.9-1.4-2.2-2.8-4.4-4.5-6.1-2.8-2.8-5.8-5.8-8.2-9.5-.8-1.2-2.3-1.9-4.2-2.7-.8-.4-1.5-.7-2.3-1.1l-.2-.1c-.1-.1-.2-.1-.4-.2-.5-.2-1.3-.5-2.1-.8-1.8-.6-2.6-.7-3.1-.6l-.6-7c1.7-.1 3.6.2 5.5.8 1 .3 1.9.6 2.8 1 .6.2 1.2.5 1.8.7 1 .4 1.9.7 2.9 1.2-.9-4.8-3.2-9.3-6.9-13.3-1.7-1.8-3.2-3-4.8-3.6-1.6 2.9-3.7 5.2-5.5 7.2l-11.2 11.7 5.3-15.3c2.1-6.1 1.7-12.5-1.3-19.3-1.9-4.3-4.4-7.8-7.8-10.6-1.6-1.4-3.2-2.7-4.7-4.1-2.9-2.6-6-5.3-9.1-7.7-3.1-2.4-6.5-2.2-9.4.4 1.2.9 2.6 1.7 3.9 2.6.7.5 1.5.9 2.2 1.4l.3.3c.4.3.8.6 1.1.9 1.8 1.4 4 3.1 5 6.2l3.6 11.3-9.2-7.5c-.4-.3-1-.6-1.7-1-1.4-.7-3.2-1.6-4.5-3.4-3.2-1.6-6.9-2.3-11.3-2.2-4 .2-7.6 1.6-10.6 4.3l-5.4 4.8c.9.4 1.7.9 2.5 1.4 3.7 2.5 6.6 5.5 9.5 8.5l2.5 2.5c.8.8 1.2 1.6 1.5 2.2.1.1.1.2.2.4 1.5 2.6.5 4.4-.2 5.3-.4.5-2.4 2.6-5.6.8-1.3-.7-2.9-.7-4.5-.2 4.8 1.1 9.1 3.3 12.8 6.6 5.3 4.7 8.6 10.2 9.6 16.6.9 5.2-.7 9.8-2.3 13.8-.9 2.3-2.3 3.7-4.1 4.2-1.2.3-3.1.4-5.2-1.2-2.2-1.6-4.8-2.7-7.6-3.9 1.8 1.9 3.3 3.9 4.7 5.8 1.6 2.2 2.6 3.8 3 5.3.3-.6.6-1.2 1.2-1.9 3.2-3.7 7.7-5.5 13-5.4 5.1.2 9.7 1.9 15 5.5 6.3 4.3 13.4 9.2 19.6 14.9l.2.2c.7.7 1.9 1.7 2.3 3.4l.1.1c.7.7 2 2 1.8 4-.1.7-.4 2.1-1.8 3.2-1.1.8-2.2 1.1-3.2 1 3.8 3.8 6.2 8.2 7.9 11.8.8 1.6 1.4 3.3 2.1 4.8l.6 1.5c0-.1 0-.2-.1-.3 0 0-.1-.1-.1-.2-1.5-3.6.3-5.6 1.4-6.4 2.5-1.7 5.1-.7 6.3-.2l.3.1c7.3 2.9 13 7.9 17.5 15.3 3.9 6.5 3.9 13.2.1 20.6-.8 1.5-1.8 2.6-2.7 3.4-.6.6-1.1 1.1-1.4 1.6-1.2 2.4-3.2 3.9-5 5.2-.4.3-.7.5-1.1.8-2.3 1.8-5.3 1.6-7.3-.4-1-1-2.2-1.9-3.4-2.9-2.3-1.8-4.8-3.8-6.6-6.6-2.5-3.9-5-5.1-9-4.4l-.6.1c8.4 4.1 17.3 9.8 21.6 20.3 1.4 3.5 2 6.9 1.6 10.1.1-.2.2-.3.3-.5 1.1-1.6 1.1-2.6.7-3.7-1-3-.8-5.4.7-7.2 1.6-1.5 3.2-2.1 5.4-2.1zm-.3 7zm1-1.2zm-26.4-74.4zm-23.7-7.4zm-25.3-22.5zm1.7-.4zm-21.6-27.9zm-5.6-28.7c.6 0 1.3 0 1.9.1l4.2-7.9c1.1-2.1 2.3-3.9 3.6-5.5l.5-.6c2.2-2.7 4.6-5.6 8.4-7.4-.8-.9-1.9-1.8-3-2.7l-.7-.6c-4.6-3.7-8.5-6.7-14.1-7.6l-14.4-2.3 13.8-4.5c2.6-.8 5.7-1.8 9.1-.9-.4-1.2-1.2-2-1.8-2.5-7.1-5.7-16-7.7-27.2-6l-.3-1.4c-1.8.7-3.8 2.3-5.4 4.3-1.7 2-2.3 3.7-2.4 4.4.4 1.2.5 2.4.5 3.4 0 .4 0 .8.1 1.2.4 2.2-.6 4.1-2.5 5-.1.1-.3.1-.4.2.5.2 1.1.3 1.7.6 2.7-3.1 6.7-2 8.5-1.5 3.1.8 5.4 2.5 7.5 4 .9.6 1.8 1.3 2.6 1.8 9 5.3 9.8 13.6 9.5 20.3-.1 2.1-.4 4.1-.9 6.2.5-.1.9-.1 1.2-.1zm24.8-16.6c-.7.6-1.5 1.1-2.5 1.4-.4.1-.7.3-1 .4h3.7c-.1-.3-.2-.7-.2-1.1v-.7zm-75.4-9.1zm15.2-7.4c-.2.5-.4.9-.7 1.3.7-.1 1.4-.1 2.2-.1-.2-.1-.4-.3-.6-.4l-.9-.8zm1.5-2.1zm45.3-3.8zm-32.4-15.7c-.5.5-.8 1.3-.6 1.9l1-.2-.4-1.7z"/><path d="M345.5 666.5c-2.1 0-4.1-.2-6.1-.7-3.3-.7-6.1-2.3-8.8-3.8-.5-.3-1-.5-1.5-.8-4.3-2.4-7.2-5.7-10.1-8.9-.4-.5-.8-1-1.3-1.4-.7-.8-1.4-1.6-2.2-2.3-2.7-2.8-5.4-5.8-7.3-9.6-.6-1.2-1.3-2.6-1.8-4-7 4.9-15.4 6.4-25.5 4.4-5.9-1.1-12-3.4-18.4-6.8-2.7-1.4-5-3.2-7.2-5-.4-.3-.8-.7-1.3-1-7.6-6-12.3-12-14.7-19.1-2.8-8.3-2.1-15.2 2.2-21 .6-.8 1.1-1.6 1.6-2.4.6-1 1.3-2 2-2.9-4.5-1.4-8.6-3.3-12.4-5-5.1-2.3-9.3-5.4-12.6-9-2.8-3.2-4.3-7.5-4-11.9.2-3.3 1.4-6.4 3.4-8.8-.8-.3-1.6-.5-2.4-.7-4-1.3-8.2-2.6-12.2-4.4-5.2-2.4-11.2-5.3-16.7-9.2-6.7-4.7-10.9-10.8-14.1-16.3-2.2-3.7-3.3-7.8-4.2-11.4-1-3.8-1.5-7.6-1.9-11.3l-.1-1.1c-1.4-10.9 2.5-19.1 11.6-24.5 6.5-3.9 13.1-4 19-.4.7.4 1.4.8 2.2 1.2-.6-2.4.2-4.5.6-5.4 1.3-3.3 3.1-6.5 5.5-9.6 3.1-4 9.1-6.1 14.6-5.5-.4-1.1-.7-2.2-1-3.3-2.3-8.3-2.3-16.9 0-25.7l2.7-10.5 4 10.1c.8 2 .8 3.9.8 5.6 0 1.1 0 2.1.3 2.9 3 9.6 6.7 15.6 12.4 20.1.4.3 1.2.6 2.1.8.6.2 1.4.4 2.1.7 2.5 1.1 3.3 2.7 3.4 3.9.2 1.2-.1 2.9-2.2 4.6-3.7 3-6.2 7-8.8 11.2-.1.2-.2.3-.3.5 1.1-.5 2.6-1.1 4.4-1.1 7.6-.1 14.7 2.5 21.6 7.9 2.2 1.6 2.1 3.8 1.3 5.2-1.1 2.1-3.6 2.9-6 1.9-1.3-.5-2.7-.8-4-1.1-7.8-1.5-13.4-.2-18.1 4.2-.6.6-1.3 1.2-2 1.8-1.4 1.2-2.6 2.4-3.7 3.6-1.9 2.4-2.2 5.4-.8 7.9.3.5.6 1.1.9 1.6.5 1 1 1.8 1.6 2.5 1.7 1.9 1.7 4.6-.1 6.3-.4.4-2.7 2.4-5.7.3-2.5-1.4-3.7-3.7-4.6-5.3l-.1-.1c-1.9-3.3-3.8-6.7-4.8-10.7-.2-.9-.9-1.3-3-2.3-.3-.1-.6-.3-.9-.4-6.6-3.3-12.4-.8-15.3.9-4.9 2.9-8.4 8.1-8.6 12.5-.1 2.9 1.5 5.2 3.7 8 2.8 3.6 6.7 6.3 10.8 9.1l2.5 1.7c3.8 2.7 7.4 5.2 11.6 6.9 7.2 3 13.8 4.2 20.2 3.9 1.8-.1 4.2-.2 5.7 1.8 1.4 2 .6 4.2 0 5.7-.4 1.1-.9 2.1-1.3 3.2-.6 1.4-1.1 2.7-1.6 4-.9 2.8-.9 5.2.1 7.5 3.2 7.3 9.4 12 19.5 14.8 3.1.9 5.8 1.1 8.2.7-3.1-4.9-4.7-10.6-4.9-17-.1-3.5.6-6.6 2-9.5l.1-.2c1.5-3.1 3.8-3.4 5.3-3.2.6.1 3.7.8 3.4 4.8.5 3.9 1.7 7.9 3.7 12.7 3 6.9 7.9 13.2 15.3 19.8 4.5 4 9 5.8 13.8 5.5h.1c3.6-.4 4.8 1.9 5.1 2.8.3.9.9 3.8-2.7 5.7l-.2.1c-5.8 3.1-11.9 3.1-18.7 0-.3 1.5-.6 3.1-.6 4.7 0 .6 0 2.6 3.6 4.9 5 3 10.4 4 16.2 2.8.9-.2 1.7-.3 2.5-.3 1.5-.2 2.5-.3 3.1-.8 1.7-1.4 4.2-1.3 5.8.1 1.6 1.4 2 3.7.9 5.6-2.7 4.9-2.1 9.6 2.3 16.1 4 5.9 8.2 10.2 13.3 13.6 4.1 2.7 8.6 5.4 13.7 6.4s10.2 0 16.2-2.9c3.7-1.8 6.2-3.6 8-5.7 1.3-1.6 2.8-2 3.7-2 1-.1 2.4.2 3.8 1.5l1.8 1.5.8.7 12 10.5-15.3-4.5c-.9-.3-1.8-.5-2.3-.6-.4.4-1.1 1.3-1.7 2.1-3.9 4.9-8.5 9.3-13.9 13-6.1 4.3-12.6 6.6-19.1 6.6zm-37.7-40.3c.5 0 .9.1 1.4.2 1.7.6 2.8 2 3.3 4.2.4 1.7 1.2 3.3 2 5 1.5 2.9 3.8 5.4 6.2 8 .8.8 1.5 1.6 2.3 2.5.4.5.9 1 1.3 1.5 2.5 2.9 5 5.7 8.2 7.4l1.5.9c2.4 1.3 4.6 2.6 6.9 3.1 6.6 1.5 13.1-.2 20.1-4.9.6-.4 1.2-.9 1.9-1.3-4.2 1-8.3 1.2-12.3.4-6.4-1.2-11.5-4.3-16.3-7.4-5.8-3.8-10.8-8.9-15.3-15.5-3-4.4-6.4-10.8-4.7-18.1-.3 0-.7.1-1 .1-.6.1-1.2.1-1.8.2-7.6 1.6-14.7.3-21.3-3.7-5.9-3.6-7-7.9-7-10.9 0-2.8.6-5.5 1.1-7.5.2-.9.8-3.4 3-4.5.9-.4 1.8-.5 2.7-.4-.4-.4-.9-.7-1.3-1.1-8.1-7.1-13.6-14.3-17-22 .7 2.3 1.8 4.5 3.2 6.4.5.8 2.2 3.1 1.2 5.7-1 2.6-3.8 3.4-4.8 3.6-3.9 1-8.2.9-13-.5-12.1-3.4-20-9.6-24-18.8-1.7-3.9-1.8-8.2-.3-12.6.5-1.5 1.2-3 1.8-4.4.1-.3.2-.6.4-.9h-.3c-6.7 0-13.6-1.5-20.9-4.5-4.8-2-8.9-4.9-12.9-7.6l-2.4-1.7c-4.4-3-8.9-6.2-12.4-10.6-2.2-2.9-5.3-6.9-5.1-12.5.2-6.9 4.9-14.1 12-18.3 7-4.2 15-4.6 22-1.2.3.1.5.3.8.4 2 1 4.6 2.2 6.1 5 .5-1.2 1.2-2.3 2.1-3.3 1.4-1.7 2.9-3.1 4.4-4.4.6-.5 1.2-1.1 1.8-1.7 3.2-3 6.7-5 10.8-6h-.8c-.5 0-1.1.3-2 .7-1 .5-2.2 1.1-3.6 1.3-.1 0-.3.1-.4.1-.9.3-3.7 1-5.8-1.4-1.9-2.1-2-4.9-.4-7.5.7-1.1 1.4-2.2 2.1-3.4 2.2-3.6 4.5-7.4 7.7-10.6-.9-.3-1.8-.8-2.7-1.5-3.9-3.1-6.9-6.6-9.1-10.3 0 .1.1.2.1.3.7 2.6 1.4 4.5 2.6 6.1 2.3 3 .8 5.4.3 6-.6.8-2.4 2.5-5.5 1.2h-.1c-.4-.1-.8-.3-1.1-.4-.1 0-.2-.1-.2-.1-3.5-1.4-8.7-.3-10.7 2.2s-3.5 5.1-4.5 7.8c-.4.9-.3 1.2-.3 1.2s.1.1.2.3c1.1 1.2 1.6 2.6 2 3.7.1.3.2.6.3.8v.1c1.5 3.3-.4 5.2-1.2 5.8-1.5 1.1-3.4 1.2-5.4.2l-2.4-1.2c-2-1-4.1-2-6.1-3.2-3.7-2.3-7.5-2.1-11.7.4-6.6 4-9.2 9.6-8.2 17.6l.1 1.1c.5 3.7.9 7.1 1.8 10.4.8 3.3 1.7 6.7 3.4 9.6 3 5 6.6 10.2 12.2 14.1 5.1 3.5 10.5 6.2 15.7 8.6 3.6 1.7 7.3 2.8 11.3 4.1 1.5.5 3.1 1 4.6 1.5 2.5.8 4 2.2 4.4 4.1.4 1.9-.4 3.7-2.4 5.4-1.6 1.4-2.6 3.4-2.7 5.7-.2 2.5.7 5 2.2 6.8 2.6 3 6 5.4 10.3 7.3 4.5 2 9.1 4.2 14.1 5.4 3 .7 3.9 2.6 4.2 3.6.3 1 .4 2.9-1.6 4.8-1.3 1.2-2.3 2.7-3.3 4.4-.6.9-1.2 1.8-1.9 2.7-2.9 3.9-3.3 8.4-1.2 14.6 1.9 5.7 5.8 10.7 12.3 15.8.4.3.9.7 1.3 1 2.1 1.6 4 3.2 6.1 4.3 5.9 3.1 11.2 5.1 16.5 6.1 9.1 1.8 16 .3 21.7-4.4.9-.9 2.2-1.5 3.4-1.5zM442.2 601.2c-.5 0-1-.1-1.2-.2-.6-.2-2.7-1.1-2.8-4.1-.3-6.9-5.4-11.1-10.7-14.7-4-2.7-7.8-3.6-11.6-3-3.5.7-4.9-1.6-5.2-3-.4-1.9.4-3.9 2.2-5.2 2.5-1.9 5.3-3.3 7.4-4.3 8.4-4.1 13.6-9.6 15.9-16.9 2.7-8.5-2.6-19.8-11.3-24.2-3.4-1.7-6.1-2.3-8.9-2.1-1.7.2-3.3 1-4.9 1.9 3.9 5.2 5.1 10.9 3.6 17.1-.1.3-.1.6-.2.9l-.2.4c-.6 1.6-2.3 6.6-6.9 5.4-1.3-.4-2.4-1.2-3-2.4-1-2.1-.1-4 .5-5.3.1-.2.2-.6.3-.7.3-.9.2-1.7-.8-3.4-2.3-3.8-5.5-7.5-9.8-11.1-4.5-3.8-10.2-4.3-18-3.9-1.5.1-2.9 0-4.2 0h-.1c-3.1-.1-4.3-1.7-4.8-3.1-.5-1.4-.5-3.4 2-5.4 5.2-4.1 10.7-5.9 16.4-5.5h.7c1.2.1 2.4.2 3.7.3-.1-.2-.1-.3-.2-.5-2.6-6.2-7-11.3-11.3-16.1-3.2-3.6-6.5-6.9-10.7-8.7-1.5-.5-2.3-1.4-2.7-2.1-.6-1-.7-2.1-.4-3.2.5-1.9 2.5-3.5 5.2-2.7l.3.1 2.2.8c.3.1.7.2 1 .4-1.6-6-4.8-10.5-9.6-13.7-1.8 3.4-4.7 6.3-8.8 9l-3 2-1.9-3c-1.1-1.7-1-3.5.1-5.4 2.5-4.5 2.2-9.1 1-14.8-.8-3.8-2.7-7.5-5.5-11.2-2.2-2.9-5.2-5.2-8.3-7.8l-.1-.1c-1.3-1-2.5-2.1-3.6-3.1-2.2-2-4.3-3.9-6.8-5.2-1.5-.8-3.5-.7-5.1.1l5.5 3.6.5.4c2 1.7 4.4 3.7 5.6 6.8v.1c1.5 3.2-.5 5.1-1.2 5.6-.6.5-3 1.8-5.5-.4l-.9-.7c-1.6-1.2-3.2-2.3-4.9-3.1h-.1c-4.8-2.2-9.3-2.9-13.8-2-3.4.6-6 2-8 4.3l-.1.2c-.3.3-.6.7-1.1 1.1-2.7 2.6-5.2 1-5.7.6-.7-.5-2.7-2.4-1.1-5.8 1.4-2.9 3.2-5.8 5.3-8.6 2-2.6 4.2-4.8 6.6-6.5l.3-.2c.1-.1.3-.2.4-.3-3.4-3.2-7-5.8-10.7-7.8-2.5-1.3-4.7-1.7-7-1.3l-9.6 1.7 6.4-7.4c2.8-3.3 7-5 11.1-4.9-.1-.1-.2-.2-.4-.3-6.2-4.7-13.7-6.6-22.9-5.8-.5 0-1.1.1-1.6.1-1.7.1-3.3.2-4.8.6l-9.6 2 6.2-7.6c1.4-1.7 3.1-2.5 4.4-3.1.6-.3 1.2-.6 1.6-.9l.5-.4.5-.2c11-3.9 21.4-3.4 30.7 1.5 7.4 3.9 11 9.7 10.9 17.6 6.2-2.2 12.7-1.9 19.9.8 7.1 2.6 13.9 6.8 20.9 12.8 7 6.1 12.7 12.9 16.9 20.3 1 1.7 2.1 4.1 2.1 7.1.3 2.7-.3 5.3-.9 7.5l-.1.3c.1 0 .1.1.2.2l.5.4c3.7 2.9 7.5 5.9 10.7 9.7 3.9 4.6 7.5 9.8 7.9 16.7.1 2.1-.1 4.3-.7 6.7 3.6.5 6.9 1.1 9.8 1.8 11.4 2.8 21.3 7.7 29.5 14.6 11.2 9.6 18.3 22.2 22.2 39.8.2 1.1.3 2.2.4 3.2 0 .4 0 .7.1 1.1.6 4.7-.2 9.5-2.6 14.5-2.2 4.6-5.9 8.4-11 11.4 7 5.6 10.8 13.2 11.5 22.6v.2l-.3 4.7-.7.8c-1.3 1.3-2.7 1.6-3.7 1.6zm-18.6-28.4c2.2.6 4.5 1.6 6.7 2.9-.1-.1-.3-.2-.4-.3-1.7-1.2-3.2-2.4-3.6-4.1-.9.6-1.8 1.1-2.7 1.5zm-6.5-56.3c4.4 0 8.1 1.5 10.8 2.9 3.4 1.7 6.3 4.1 8.7 7-3.6-8.1-8.5-14.7-14.8-20.1-7.4-6.3-16.1-10.6-26.6-13.2-2.3-.6-4.9-1-7.7-1.5 3.4 4 6.7 8.7 8.9 14l.1.1c.2.5.3 1 .5 1.4.4 1.1.7 2.1 1.1 3 1.1 2.8.1 4.5-.7 5.2-.6.6-2.3 1.9-5.2.9-1.9-.7-4-.8-6.3-1l-.8-.1h-1.3c5.2.4 10.5 1.7 15 5.5 1.5 1.2 2.9 2.5 4.1 3.8 0-.1 0-.3.1-.4.2-1 .7-2.5 2.6-3.6 2.6-1.7 5.5-3.5 9.4-3.9h2.1zm-92.4-100.7c1.9 0 3.9.4 5.6 1.3 3.3 1.7 5.8 4 8.3 6.2 1.1 1 2.2 2 3.3 2.9l.1.1c3.3 2.7 6.8 5.4 9.5 9 3.4 4.5 5.7 9.2 6.8 14 .6 2.5 1 5.2 1.1 8 .6-.7 1.5-1.4 2.6-1.7.3-.1.7-.1 1-.2-1.2-1.3-2.1-3.3-1.4-6.2l.1-.3c.5-1.9.9-3.6.7-5.2v-.6c0-1.1-.3-2.2-1.2-3.8-3.8-6.8-8.8-12.8-15.3-18.4-6.3-5.4-12.4-9.2-18.7-11.5-6.5-2.4-12-2.4-17.3.2l-.1.1c-1.4 1-2.6 1.3-3.6 1.2 1.4 1.2 2.8 2.5 4.1 3.8 1.3 1.3 2.9 2.9 2.4 5.2-.5 2.3-2.5 3.1-4.5 3.9-.1 0-.4.2-.6.4l-.4.3c-1 .7-2 1.6-3 2.6.6-.2 1.2-.3 1.7-.4 2.9-.5 5.7-.6 8.6-.3-.4-.5-.8-1.2-1-2.1-.2-.9-.1-2.4 1.1-3.9 2.3-2.9 6.3-4.6 10.1-4.6zm-24.6-9.2c.7.5 1.5 1 2.2 1.5-.3-.8-.3-1.9 0-3.3v-.2c-.4.6-.8 1.1-1.3 1.4-.3.3-.6.5-.9.6zm-7.3-17.1c1.8.9 3.5 2 5.1 3.2 2.1 1.6 3.6 3.7 4.4 6.1-.7-3.6-2.9-6.1-6.9-8.2-.8-.3-1.7-.7-2.6-1.1z"/><path d="m418.4 496.4-22.9-3.3c-1.2-.2-2.3-.3-3.5-.5-2.8-.4-5.8-.8-8.7-1.3-2.1-.3-3.1-1.4-3.6-2.2-1.2-1.9-.6-3.9-.3-5l.1-.2c1.2-4.2 1-7.9-.7-11.2-2.4-4.9-6.5-9-10.6-12.6-1.2-1-2.4-2-3.8-3l-1.1-.8c-2-1.5-2.9-3.7-2.4-6.1.3-1.8.7-3.6 1-5.4l2.5-14 4.6 11.1c1.3 3.1.4 6.1-.2 8.2-.1.3-.1.5-.1.5s.1.2.5.5c4.4 3.4 9.5 7.6 13.4 13.1 3.2 4.5 7.1 11.3 4.9 20 .4 0 .7.1 1.1.1 2.8.4 6 .8 8.9 2.2l20.9 9.9zM445.9 606.3l-5.6-11c-.8-1.6-1-3.2-1.1-4.5-.1-.7-.1-1.3-.3-1.8-1.9-6.2-5.3-10.8-10.2-14-.9-.6-3.3-2.2-3.1-4.9.2-2.7 2.8-4 3.8-4.5 8.3-4 12.3-10.2 12.3-18.9 0-.7.1-1.3.2-1.7 0-.1 0-.2.1-.3l2.9-15.5 4 15.3c1.9 7.5-1.3 13.8-3.8 17.9-2.4 3.8-5.8 6.4-9 8.4 6.4 5.4 10.1 12.3 11 20.5.1.8 0 1.6-.1 2.1v.4l-1.1 12.5z"/><path d="m399.4 517.5-8.6-8c-1.5-1.4-2.3-3.1-3-4.4-.3-.5-.5-1.1-.8-1.5-3.6-5.9-8.5-11.5-15.3-17.6-.3-.3-.9-.6-1.5-.9-1.2-.6-2.7-1.3-3.9-2.8l-5.3-6.4 8.2.7c3.1.2 5.3 1.9 7.1 3.5 1.3 1.2 2.8 2.4 4.1 3.6.9.8 1.9 1.6 2.8 2.4 1.4 1.2 2.4 2.7 3.3 4 .4.6.8 1.1 1.2 1.6.5.6.9 1.2 1.4 1.8 3 3.7 6.1 7.4 7.3 12.6l3 11.4z"/><path d="m377.9 485.5-9.5-1.9c-.8-.2-1.5-.4-2.3-.6-2.4-.6-4-1-5.6-.4-1.4.5-2.8.4-3.9-.3-1.1-.6-1.8-1.7-1.9-3-.2-1.6.5-3.8 3.2-4.7 3.6-1.3 7.1-.8 9.7-.2 1 .2 1.8.6 2.4.9l.6.3 6.7 2.8-3.5 1.9 4.1 5.2zM335.9 445.2l-4.9-3.4c-1.2.2-2.9 0-4.5-1.9l-.1-.1c-.5-.6-1.4-1.1-2.4-1.7-1.3-.8-2.9-1.7-4.2-3.2l-4.4-5.1 5-.5-7.7-10 14 7.3c3.2 1.7 5.6 4.3 7.4 7.9.9 2 .8 3.5.3 4.5l1.5 6.2z"/></svg>