<svg xmlns="http://www.w3.org/2000/svg" xml:space="preserve" baseProfile="tiny" overflow="visible" version="1.2" viewBox="0 0 1000 1000"><path fill="none" stroke="#FFF" stroke-miterlimit="10" stroke-width="20" d="m153.5 335 30.9-30.4 36.8 33.4 117.4-112.2L304 190l35.9-30.8 368.6 369.3-27.2 32.2-10.8-5.1-119.3 113.8 7.5 12.5-29.3 28.1-376.7-371.1z"/><circle cx="500" cy="500" r="200" fill="none"/><path d="M670.5 555.6c9.4 7.5 9.4 7.5 17.5-.8 6.4-6.6 12.8-13.3 19.5-19.7 4.1-3.9 3.9-6.6-.1-10.5-44.7-44-89.2-88.2-133.7-132.3-27.2-26.9-54.3-53.8-81.5-80.8-2.2-2.2-5.1-4-3.8-8.1.7-2-1.4-3.4-2.7-4.8-3.1-3.3-6.2-6.5-9.4-9.7-2-2-3.8-3.9-7.2-3.1-3.9.9-5.7-2.6-7.8-4.7-35-35.1-70-70.2-105-105.4-5.5-5.5-11.1-10.8-16.4-16.4-3.7-4-6.6-3.6-10.2.1-8.5 8.8-17.2 17.4-26.1 25.9-3.9 3.7-3.5 6.6.2 10.1 7.6 7.3 15 14.8 22.4 22.3 1.5 1.5 4.7 3 2.3 5.6-1.9 2-3.9-.4-5.7-1.4-2.1-1.1-4-2.5-6.1-3.5-2.2-1-5.4-1.8-6.8 0-5.5 6.9-17 6.9-20.1 15.3-5 13.5-17.1 20.2-25.9 30.1-4.5 5.1-9.6 10.1-15 13.8-4.2 2.9-9.7 4.1-13.5 8.2-3.3 3.5-4.1 6 .1 9.4 4.2 3.3 7.8 7.4 11.6 11.2 1 1 2.4 2.3 1.1 3.9-1.4 1.6-2.8.5-3.8-.6-3.7-3.8-6.8-2.4-9.8.9-4.8 5.2-9.6 10.4-14.6 15.4-1.8 1.8-2.5 3.9-3 7.4-8.8-8.8-17.5-16.6-25.3-25.3-4.5-5-7.4-4.3-11.5-.1-7.3 7.5-15 14.8-22.4 22.3-6.9 6.9-6.8 7.7 0 14.4 37.3 36.9 74.5 73.8 112 110.5 8.6 8.4 14.8 18.7 24.2 26.4 12.7 10.5 24.3 22.1 36.4 33.2 11.7 10.8 23.1 21.9 34.4 33 19.8 19.4 39.3 39.1 59 58.6 33.3 33 66.6 65.9 99.9 98.8 6.7 6.6 7.6 6.8 13.9.1 7.2-7.6 14-15.6 21.2-23.2 3.1-3.3 4.7-6.1.5-9.6-1.1-.9-2.5-2.4-.9-3.8 1.4-1.2 3.2-.7 4.6.6 3.8 3.2 7.7 2.4 9.4-2 .4-1.1 0-2.7 1.7-3 5.2-.9 2.9-4.3 1.6-6.2-4.3-6-2-9.4 2.9-14 15.6-14.4 30.6-29.5 45.4-44.9 8-8.4 16.7-16.1 25.1-24.1 2.1-2 3.9-2.7 6.7-.4 3.2 2.6 7 3 10-.7.9-1.1 1.8-1.9 3.1-2 4.1-.4 4.2-3.1 3.3-6.1-1-3.2-1.8-6.2-1.7-10.3zM449.4 322.5c-.2-.3-.5-.6-.8-.9-2.3-1.8-7.6-1.5-7.1-4.3.8-4.5 5.4-7.6 8.9-10.6 2.5-2.1 4.5 1.4 6.2 3.1 29.9 29.6 59.7 59.3 89.5 89 2.6 2.6 5.3 5.2 7.2 8.2 16.1 25 32 50.2 48.1 75.2 2.8 4.3 2 7.1-1.5 10.5-15.6 15.1-30.9 30.4-46.4 45.6-1.3 1.3-2.5 3.3-4.8 2.6-2.6-.8-2.5-3.3-2.6-5.4-.1-7.7.2-15.4 0-23.1-.1-4.8 1.7-5.2 5.3-2.9 3.2 2 6.3 3.6 9.8.1 9.5-9.6 19.1-19.1 28.8-28.6 2.7-2.6 2.4-4.9.7-8-6.4-11.7-16.6-20.1-25.8-29.3-1.6-1.6-3.5-2-4.7.4-5.2 10.6-15.6 16.2-23.2 24.7 3.4-10.3 4-20.5 1.1-30.7-.7-2.6-2.6-5.2-2.5-7.8.5-13.6-3.9-26.5-5.5-39.9-.5-4.1-2.3-7.1-5.2-10-17.8-17.5-35.5-34.9-53.1-52.6-4.6-4.6-9.5-6.4-15.7-4-.3.1-.6.1-.9 0-.5-.3-1-.5-1.5-.8h-1.4c-.4-.3-.8-.5-1.2-.8-.5.4-1.1.4-1.7.3zM355 452.3c-1.7.6-3.3.7-4-1.4-.3-.9.2-1.8 1.1-1.9 2.5-.3 1.8 2.3 2.9 3.3zm1.8-20c-.7 1.2-1.5 3.6-3.1 2.3-6.3-5.2-9.6.9-13 3.7-3.4 2.8-1.8 7.9 0 10.7 8.3 12.5 12.4 27.8 24.7 37.8 1 .8 1.9 1.9.6 3.2-1.2 1.2-2.5 1.9-3.9.5-1.2-1.2-2.4-2.5-3.3-3.9-9.2-15.2-18.3-30.4-27.3-45.7-1-1.6-2.2-3.4-1-5.4 2.7-4.3 7.3-6.6 11.2-9.5 3.5-2.7 2.2 3.5 4.9 3.1.6-.1 1.5.6 1.8.4 4.7-3.9 5.9 1.2 8.4 2.8.8-3-1.1-4.8-2.7-6.8-5.1-6.5-4.6-12.2 1.5-18.2 8.4 18.6 22.7 28.4 40.2 25.4 17.3-3 27.6-10.9 31.4-28.8 2-9.3-.7-18.3-5.9-25.6-5.2-7.2-11.7-14-22.1-16.1 10.6-5.1 24-2.1 28.9 5.6 3.3 5.2 6.1 10.9 13.9 11.7 3 .3 7.6 1.5 7.4 6.6 0 .5 1 1.4 1.1 1.3 5.2-2.3 8.8 2.6 13.4 2.7 1.9 0 4.3-1.1 5.2 1.1 1 2.5-1.7 3.7-3.1 5.1-19.9 19.3-39.8 38.5-59.7 57.8-.3.3-1.1.2-1.7.2-2-10.1-6-14.4-13.4-14.9-9.8-.6-10.2-.2-14.9 15-3.1-3-5.3-6.3-6.1-10.3-.3-1.3 1.3-3-.7-4-4.4-2.1-7.1-7.3-12.7-7.8zm62.6 80.7c.5-.5 1.1-1 1.6-1.5-.5-2.4-2.5-3.7-4.1-5.3-8.4-8-16.8-16-25.4-23.8-3.9-3.5-4.2-6-.3-9.9 25.6-25.7 52-50.6 78.4-75.5 3-2.8 5-2.8 8 .3 12.9 13.8 25.9 27.5 39.1 40.9 3.5 3.5 3.7 6 .1 9.5-25 24.6-49.8 49.2-74.6 73.9-3.6 3.6-6.2 3.3-9.7-.1-2.5-2.4-4.4-5.9-10.3-6.7 4.4 4.3 7.3 7.7 10.7 10.5 3.2 2.6 1.3 5 .3 7.4-1.3 2.9-3.4 1.6-5.4.7-4.1-1.8-8.2-3.9-12.5-5.2-16.5-5.1-29.9-14.8-41.8-26.9-5.3-5.4-4.9-10.7 1.1-15 1.6-1.1 3.3-2 4.8-3.3 4-3.5 7.1-3 10.9 1 9.5 10 19.4 19.4 29.1 29zm-8.6-278.3c14 17.2 36.7 33.1 53.9 54.3-.7.9-1.5.8-2.4.6-1.6-.5-3.3-.4-3.6 1.5-.5 2.9 1.7 4.1 3.8 5.3 1.4.8 3.5 1 3.8-.7 1.2-7.2 3.8-2.5 5.8-.7 2.4 2.1 4.7 4.4 6.9 6.8 1.7 1.8 4.3 3.9-.5 5.4-1.6.5-2.3 2-1.5 3.7.8 1.8 2.2 3.2 4.2 3.7 1.5.3 2.9-.5 2.9-1.8.3-6.9 3.1-2.5 4.7-1 9.7 9.7 19.2 19.7 28.9 29.4 24.4 24.1 48.8 48.3 73.6 72 14.1 13.5 26.7 28.4 41.2 41.6 12.7 11.6 24.3 24.2 36.5 36.4 2.4 2.4 4.7 4.8 1.2 8.1-7.3 7-14.4 14.1-21.8 21.1-2.1 2-4.8 3.4-7.4.7-10.4-10.5-21.5-20.3-30.9-31.8-2.2-2.7-.1-7.2-2.5-8-6-1.9-5.9-7.2-8.3-11.1-5-8.3-10.3-16.2-16.7-23.6-10-11.6-17-25.6-25.2-38.7-1.3-2.1-3-4.4-.3-6.9 1.2-1.1 1.3-2.7.3-4.1-1.2-1.6-2.8-2.1-4.5-.9-3.5 2.4-5.5 0-7.7-2.1-15.2-13.6-29-28.7-43.3-43.1-16.9-17.1-34.1-33.9-51.1-50.8-14.2-14-28.4-28-42.7-41.9-2.4-2.4-2.1-4.3-1.3-7.7 1.3-6 9.4-12.7 4-15.7zM226.6 408.1l.9-1.2c1 .7 2 1.3 2.9 2.1 2.9 2.6 5.2 5.8 9.3.5 2.6-3.4 13.5-1.7 16.8 1.6 47 46.6 94 93.1 141.1 139.6 3 3 5.3 6 5.5 10.4.2 3 1.4 6.1 4.3 7.5 4.8 2.3 9.8 3.1 13.4 8.6 3.2 4.9 10.4 7.2 16 10.5 1.8 1.1 4.5 2.9 5.8.6 3.4-6.2 5.8-1.5 8.6.2 2.7 1.7 5.8 3 8.2 5.1 5.9 5.4 17.3 2.9 19.8 13.3.1.3 1.6.5 2.3.4 6.5-.6 11.2 3 15.3 7.1 6.2 6.2 12 12.9 18 19.3 2.4 2.6 2.1 4.2-1.2 5.8-3.9 1.9-7.5 5.2-4.6 9.5 2.9 4.5 1.5 6.9-1.8 9.7-2.7 2.4-5.4 5-7.8 7.7-3.4 3.8-6 4-10.1.3-20.3-17.9-38.6-37.8-58-56.6-39.3-37.5-77.6-76-116.3-114.2-2.4-2.4-5-4.7-7.3-7.3-1.9-2.1-2.5-4.5 1.5-4.7 2.3-.1 4.1-.7 4-3-.2-2.6-2.5-4-4.7-4.7-2.6-.9-3.3 1-3.5 3.2-.4 3.6-2.4 3.8-4.8 1.7-3.8-3.5-7.5-7.1-11-10.9-2.1-2.3-1.8-4.4 1.9-4.4 1.9 0 3.9.1 3.8-2.3-.1-2.5-2-4.3-4.2-5.2-2.1-.8-3.2.7-3.7 2.5-1.5 5.9-4.3 3.2-6.7.9-2.8-2.7-5.3-5.6-8-8.3-15.2-15.2-30.4-30.3-45.7-45.3zm83.2 30.8c1.1-3.7 0-6.7-2.6-9.2-2.6-2.5-5-5.3-7.9-7.6-4.9-3.8-4.3-7.1.2-10.8 4.7-3.8 9.1-7.8 13.6-11.9 2.7-2.4 4.8-1.7 7.3.4 8.8 7 15.1 14.6 8.3 26.4-.9 1.6-.9 3.7-1.7 5.5-1.3 3.3-.7 6.1 1.2 9 9.2 15 18.2 30 27.3 45 1.5 2.5 2.7 4.7-.1 7.4-2.4 2.4-1.8 4.6 1.9 4.3 5.9-.5 9.6 2.9 13.5 6.4 10.9 9.7 21.6 19.8 36.3 24 .8.2 2.6.2 2.3 2-6-1.9-12-3.8-18-5.5-2.8-.8-6.2-2.4-7.6 1.9-1.5 4.5 2.6 4.7 5.2 5.6 13.7 4.4 27.8 8.1 41.2 13.4 10.6 4.2 20 2.9 29.6-1.9 8.3-4.1 16.7-8.1 24.8-12.5 3.9-2.1 7.8-2 11 .1 4.5 3 7.6 7.7 10.2 12.5-3.9-2.9-7.5-6.2-10.7-9.7-3.4-3.7-6.5-3.6-9.9-.2-3.5 3.5-7.1 6.9-10.5 10.5-5.7 6.1-11.2 13.1-17.6 17.6-7.8 5.5-2.9 7.6.3 10.4 8 6.9 14.9 15.2 25.4 19.1 3.9 1.4 6 1.7 8.9-1.2 8.4-8.3 16.4-17.1 25.7-24.3 4.9-3.8 5.5-7.4 1.7-12.4-2.7-3.5-4.6-7.6-7.3-12.3 7 3.6 13 7.3 19.5 10 6.2 2.5 5.1 4.5 1.3 8.6-13.3 14.3-29.8 25.4-41.9 40.9-2.6 3.3-5.3 2.5-8.5.6-19.8-12.2-39.6-24.2-59.4-36.3-8.2-5.1-16.8-9.7-23.8-16.6-24.5-24.1-49-48.2-73.4-72.5-2.1-2.1-8.1-4.5-.7-7.9 1.2-.5 1-2.3.8-3.6-2.1-13.5-4.2-27-6.2-40.6-.5-3-5-4-3.5-8.3 1.3-3.7.3-7.5-4.6-8.3-3.6-.6-7.2-.3-8.7 3.7-1.7 4.5.1 8.3 4.6 9.8 3.6 1.2 4.5 3.5 4.9 6.6.6 4.4.9 8.7 4.5 12.3 1.4 1.3 2.1 5.5 1.1 6.6-3.4 3.6-1.3 7.2-1 10.8.2 3.1.7 6.2 1.2 10.8-4.6-4.6-8.1-8-11.6-11.5-1.2-1.2-2.9-2.9-1.5-4.4 3.7-4 2.1-5.3-2.3-6.8-2.4-.8-4.2-3.5-6.2-5.5-11.4-11.4-22.7-22.9-34.1-34.3-2.5-2.5-6.3-4.2-3.8-8.9.8-1.5-.7-2.8-2-2.1-4.7 2.6-6.7-1-9.2-3.5-6.3-6.2-12.4-12.5-18.8-18.6-3.2-3-6.2-5.7-4-10.9.6-1.4-.6-4 1.6-4.9 2.3-1 3.5 1.3 4.7 2.6 14.9 15.8 32.5 28.8 46.6 45.4 4.4 5.2 9.5 9.9 14.7 14.4 6.9 6.1 14.4 11.3 17.7 20.4zm251.5 120.9c-.3-3.8 2.1-5 3.6-6.6 8-8.1 16.1-16.1 24.3-24 2-1.9 3.7-5.9 7.2-3.9 3.2 1.8 6.4 4.5 5.3 9.3-.9 4 1.2 7 3.9 9.7 6.7 6.6 13.4 13.3 20.2 19.9 10.5 10.3 16.9 10.3 26.9-.2 2.3-2.4 5.4-4.4 4.8-8.5-.8-5.6-2.5-10.5-7.1-14.5-6.6-5.8-12.6-12.3-18.9-18.5-8-7.8-10.8-7.9-18.9-.6-1.9 1.7-3.8 4.9-6.9 1.4-2.6-2.9-5.3-5.9-.9-9.7 3.3-2.8 6.3-5.9 9.2-9.1 2.9-3.1 5.2-2.8 8.1.1 13.8 13.8 27.7 27.6 41.7 41.3 3.6 3.6 3.7 6.4-.1 10.2-17.4 17.4-35.6 34.1-52.6 52s-35.1 34.7-53.2 51.6c-6.1 5.7-6 5.8-11.3-.7-.5-.6-1.3-1-2.1-1.4-7.5-4.5-13.3-10.7-18.1-17.8-1-1.4-1.7-2.7-3.4-3.6-7.2-3.8-12.1-10.1-17.3-16-2.9-3.4-2.5-6 .6-9.4 8.4-9.3 18.8-16.3 27.6-25.1 5.1-5.1 9.5-10.9 16.1-14.9 1.4 3.3-1 7.8 2.3 9.2 6.3 2.6 9.5 8.5 13.7 12.8 6.9 7.1 16.4 11.9 20.4 21.6.4 1.1 2 .4 2.9.7 9.3 3.6 13.2-5.1 17.3-9.2 6.7-6.7 13.2-14 20.2-20.3 3.9-3.5 3.4-6 3.7-9.9.3-4.2-3.8-3.2-5.1-5.4-3.7-6.2-10-10-14.7-15.4-4.7-5.4-10.6-10-15.4-15.5-3.5-4.1-9.2-4.1-13-.2-6.9 6.9-13.7 13.4-21 20.6zM330.5 333.1c6-6.9 16.7-11.5 28.1-15.4 10.4-3.5 18.8-3.8 26.2 5.9 5.1 6.7 4.4 11.4-4.2 13.4-2.8.6-4 2-4.8 4.4-2.8 8.3-9.6 12.9-16.7 16.7-2.8 1.5-4.7 2.8-6.2 5.7-3.9 7.2-9.9 12.9-17.1 16.9-2.8 1.5-4.7 2.7-5.9 5.9-1.5 4.1-4.3 8.5-9.5 8.2-4.8-.3-13.2-13.3-12.5-18.2 2.2-16 9-29.8 22.6-43.5zM618 565.8c2.8 3.3 5.2 6 7.5 8.8 3 3.8 1.7 6.9-1.5 10-8.4 8.2-16.7 16.6-25 25-2.5 2.5-4.6 4.2-8.2 1.4-13.5-10.2-25-22.3-36-35.1-2.2-2.6-.9-4.3.8-6.1 9.6-9.7 19.2-19.3 28.9-29 2-2 3.5-2.1 6.4-.1 10.7 7.1 16.9 18.6 27.1 25.1zm-326-150c1.4-5.2-1.1-9.9-5.4-9.7-3.7.1-5.6-1.7-7.6-3.8-12.8-13.2-26.2-25.9-39.8-38.4-1-.9-2.2-1.8-1.4-3.1 2-3 .2-5-1.8-6.6-3.9-3.2-2.1-5.1.6-8.1 9.2-10.2 20-18.7 28.9-29.3 5.1-6 10.8-11.6 17.2-16.4 3.5-2.6 5.7-1.1 5.5 2.4-.2 5.5 2.1 6.6 7.2 7.1 5.1.4 8.9 4.7 11.2 8.9 2.2 4.1-3 5.9-5.1 8.6-1.4 1.9-3 3.7-4.8 5.2-4.5 3.5-3.5 6.6.2 9.9 3.5 3.2 6.8 6.6 10.1 10 1.3 1.3 3.6 3 1.9 4.8-1.8 1.9-3.5-.8-4.7-1.9-4.3-4.1-8.3-8.6-12.6-12.7-5.3-5.1-7.4-5.1-12.5-.3-5.1 4.9-10.1 9.9-15.2 14.9-1.4 1.4-3.3 2.8-2.6 4.9 3.2 9.6 3.7 20.3 11.6 27.9 6.3 6.1 12.6 12.3 18.8 18.5 2 1.7 4.8 3.6.3 7.2zm88.7-144.2c-3.2-2.1-6.2-6.5-10.4-2.6-6.9 6.4-13.6 13.1-20.3 19.7-3.2 3.1-3.1 6.4 0 9.6 3.1 3.3 6.4 6.4 9.5 9.7 1.1 1.2 4 2.3 2.1 4.5-1.4 1.6-4 2-6 1-1.9-.9-3.2-2.8-5-4-3.9-2.7-5.6-10.1-12.8-6.1-.3.2-1.1-.5-1.6-.9-6-3.7-22.9-24.3-24.7-30.2-.5-1.6.8-2.3 1.6-3.2 10.4-10.3 20.8-20.5 31.2-30.7 1.1-1 2.2-2.4 3.9-1.7 1.7.7 1.4 2.5 1.2 3.9-.9 5.8 1.9 7.9 7.4 7.2 1.5-.2 3.1-.2 4.3 1 6.2 5.9 12.4 11.8 18.6 17.8 1.2 1.4 2.5 2.7 1 5zm-61.6-97.2c4.1-4.1 8.3-8.1 12.3-12.2 2.3-2.3 4.3-2.3 6.6 0 6.8 6.8 13.9 13.4 20.4 20.6 2.2 2.4 5.1 5.6 3.4 9.6-1.7 4.1-3.6 8.1-7.1 11.2-5.5 4.9-10.6 10.1-17 14.3-3.4 2.2-4 2.5-6.3 0-7.8-8.2-15.7-16.4-23.7-24.5-3-3-2.5-5.4.4-8.1 3.8-3.6 7.4-7.3 11-10.9zM202 322.4c4.2 4.3 8.5 8.5 12.7 12.8.9.9 3 2.4 1.1 3.6-4.8 3-5.7 8.8-10 12.2-5.6 4.5-10.2 10.2-16.6 13.9-2.1 1.2-2.7 1.5-4.6.1-9.9-6.8-17.2-16.1-25.8-24.1-2.8-2.6-1.6-4.9.6-7.1 7.8-7.7 15.7-15.3 23.3-23.2 3.1-3.2 5.2-2.6 7.9.4 3.6 4 7.6 7.6 11.4 11.4zm219.9-39.3c6.7 6.6 13.4 13.3 20.1 19.9 2.8 2.7 3.3 4.9.3 8-6.4 6.6-7.2 6.7-13.7 0-1.9-2-3.9-3.8-3.2-7.2.6-2.8-1.9-5.1-3.8-5.1-9-.4-12.9-7.7-18.5-12.6-4.6-4-9.7-7.7-9.8-15 0-2-2.9-3-5.3-3.8-11.6-4-18.5-13.8-26.4-22.2-.4-.5-.1-1.6-.1-2.5 0-4.7-1.8-7.1-7.1-6.4-3.6.5-4.7-1.4-2.8-4.7 3.7-6.3 10.1-7.2 15.5-2 7.4 7.1 14.8 14.3 22.2 21.5 2.1 2 4.8 3.8 3.4 7.6-.7 2 .9 2.8 2.6 2.4 3.7-.9 5.6 1.6 7.7 3.6 6.5 6.1 12.7 12.4 18.9 18.5zm-88.5 125.4c-2-2-4-3.9-5.9-5.9-1.6-1.7-3.8-3.3-1.7-5.9 1.6-2 3.3-3.1 6.1-1.9 4.5 1.9 6.5-.1 6.3-4.6-.1-2.5.7-5 2.1-6.6 4-4.4 7-11.2 13.8-10.8 4.7.3 6-.3 6.6-4.8 1.3-8.9 15.3-22.3 24.4-23 4.7-.4 5.8-2 4.4-6-.8-2.2 0-3.7 1.7-5 1.8-1.3 3.3-.3 4.6.9 4.3 4.2 8.6 8.4 12.8 12.7 1.6 1.6 2.4 3.6-.4 4.5-6.1 2-11.5 5.7-17.9 7.1-15.2 3.4-28.2 9.9-33.6 25.8-2.3 6.9-5 13.6-7.9 20.3-5.5 13.1-5.4 13.1-15.4 3.2zm-1.8-106.3.2-.2c4.1 4.1 8.1 8.2 12.4 12.2 2.2 2.1 2.9 3.7-.3 5.3-5.4 2.8-10.1 6.5-14.5 10.6-2.1 2-4 1.8-6.2 0-8-6.2-14.9-13.5-22-20.7-1.3-1.3-1.9-2.7-1.5-4.6 1.1-5.2-.9-7.7-6.4-6.7-1.8.3-3.7-.2-4.6-1.6-1.2-1.9.8-3.1 1.9-4.3 4.1-4.4 8.3-8.6 12.6-12.8.9-.9 2-2 3.3-1.2 1.8.9.3 2.1 0 3.2-.9 3.3 4.5 10.1 6.7 8.5 4.9-3.5 6.4.7 8.8 2.8 3.3 3 6.4 6.3 9.6 9.5zm364.6 214.9c-5.2 1.8-8.5 3.6-8.6 9.5-.1 5.2-5.1 9.8-9.4 10-6.8.4-9.4 3.6-11.1 9.9-6.6-6.5-12.6-12.5-18.6-18.5-1.4-1.4-1.5-3.1 0-4.6 7.8-7.7 14.9-16 23.6-22.7 1.7-1.3 3.9-2.5 5.8-.5 5.5 6 12.9 9.9 18.3 16.9zM547.3 665.9c-6.8.4-10.1 3.2-10.9 9.7-.5 3.9-4.3 7.5-8.3 8.2-6 1.1-8.9 4.3-10.5 10.9-6.7-6.6-12.8-12.5-18.7-18.6-2.5-2.5-.8-4.7 1.2-6.6 7.5-7.3 15.1-14.6 22.6-21.9 2.3-2.2 4-2.4 6.4.1 5.6 6 11.5 11.5 18.2 18.2zm-72.7-323.6c6.2 6.1 10.2 10.2 14.4 14.2 2.9 2.7 2 5.8.3 8.2-2 2.9-4.1-.2-5.8-1.2-12.2-6.8-25-12.9-36.2-21-11.6-8.4-22.5-10.3-35-3.5-1.9 1.1-4.9 2.7-6.5.5-2-2.7 1.1-4.8 2.7-6.4 4.5-4.2 7.3-11.5 16-9.1 5.2 1.4 10.6 2.2 15.9 2.6 14.7 1.2 27.9 4.5 34.2 15.7zm-202-83.6c8.6-8.5 16.8-16.6 25-24.8 10.3-10.2 10.2-10.1 20.1.6 2.6 2.8 2.8 5 .2 7.7-12.7 12.5-25.3 25.1-38 37.6-1.4 1.4-3.2 3-5.1 1.6-4.7-3.5-9-7.4-11.6-13 3.7 5.3 9 4.1 14 3.9 3.5-.1 5.7-1.9 6-5.4.3-3.6-1.2-6.3-4.7-7.5-1.7-.7-3.6-.5-5.9-.7zm214.1 146.1c-13.4-13.8-12.9-12.7-.3-26.4 3.6-3.9 6.6-3.2 9.8-.1 15.9 15.7 25.4 35.2 33.5 55.5 1.7 4.2-.7 5.4-4 6.1-3.3.8-5.1-1.6-7.1-3.5-10.6-10.5-21.3-21-31.9-31.6zm-13 142.6.1.1c3.8-3.8 7.6-7.5 11.4-11.3 3-3 5.9-3 8.9 0 5.3 5.3 10.7 10.5 16 15.8 1.8 1.8 4.7 3.7 2.3 6.4-2.3 2.7-4.1-.5-5.8-1.8-1.4-1-2.8-2.5-4.5-.9-1.6 1.6-.4 3.3.9 4.4 4 3.4 2.5 6.2-.6 9-1.6 1.4-3.2 2.9-4.5 4.5-3.4 4.1-6.8 6.8-11.4 1.5-.8-1-2.3-1.5-3.5-.6-1.5 1.2-.9 2.7 0 4 .6.9 1.4 1.7 2 2.5.8 1 1.7 2.2.7 3.4-1.2 1.4-2.8 1-4-.1-2.7-2.4-5.1-5.2-8-7.5-3.5-2.8-3.6-5.3-.1-8.2 1.4-1.2 3.1-2.7 2-4.9-.8-1.5-2.6-1.5-4-1.4-2.2.1-4.4.3-4.9 3.1-.2 1.2.8 3.6-1.7 3.2-1.3-.2-2.5-1.5-3.4-2.6-2.4-2.9-1.2-5.5 1.2-7.9 3.6-3.5 7.2-7.1 10.9-10.7zm71.2-81.7.1.1c4-3.9 7.9-7.9 11.9-11.8 2.9-2.8 5.5-1.6 7.7.9 3.2 3.8-1.5 2.6-2.5 3.7-2.4 2.6-1.5 5.5 0 7.6 1.8 2.5 4 .6 5.4-.9 2.9-3.2 5.4-2.7 8.1.1 1.6 1.7 3.6 3.1 5.4 4.6 2.1 1.7 4.3 4.2 2.4 6.5-2.4 2.9-3.8-.9-5.5-2-1.7-1.1-3.3-2.4-5.1-.6-1.6 1.6-.7 3.4.7 4.4 4.7 3.6 3.1 6.7-.6 9.8-2.3 2-4.4 4.1-6.5 6.3-2.8 3-5.4 4.1-8.5.4-1.2-1.4-2.9-3.4-4.9-1.6-2.2 1.9.3 3.3 1.4 4.7 1.1 1.5 3.3 2.9 1.3 4.8-2.1 2-4 .3-5.5-1.3-5.4-5.2-10.7-10.5-16.1-15.7-3.5-3.3-3.6-6.4.1-9.8 3.8-3.1 7.2-6.7 10.7-10.2zm66.8 63.5c3.8-10.5 10-12.3 17.3-5.2 4.5 4.3 9 8.7 13.3 13.1 3.6 3.7 7.9 6.9 10.9 11.8-8.7.4-18.6 10.7-18.8 20.1-4-3.9-7.3-7.2-10.6-10.5-6.1-6.1-12.1-12.2-18.2-18.2-.3-.3-.5-.7-.7-1.1-.7-1.4-1.4-2.9.1-4 1.4-1 2.5.4 3.2 1.3 3 3.7 7.6 4.6 11.4 7.1 4 2.6 8 1.4 10.4-2.9 2.7-4.7-.8-11.3-8-16.4-5.2-3.6-4.5 2.7-6.8 3.8-1 .4-1.6 1.4-3.5 1.1zM401.2 409.5c-2.4 0-5.6-2.2-4.5 2.6.8 4-1.5 6.9-6 5.9-3-.7-9.1 2.4-7.7-5.5.6-3.3-3.1-5.2-5.8-7-.5-.3-2-.1-2.3.3-1.9 2.5 1.4 3.6 1.8 5.5 0 .2-.5.5-.8.8-2.5-1.8-3.9-3.9-2.4-7 .6-1.2 1.2-2.9-.1-3.5-8-3.5-3.2-8.7-1.7-13.3 1.3-4 3.7-4.4 6.7-1.5 7.4 7.5 14.8 14.9 22.8 22.7zm-8.6-14.4c-3.9-3.7-7.7-7.5-11.5-11.3-1-1-2.8-2.2-2-3.7 2.1-4 6.4-4.2 10.2-4.2 2.4 0 5.7-1.9 6.9 3.2 1.2 5 6.3 9.8 10.9 9.4 5.7-.6 5 2.6 5.6 5.2.9 3.8-.1 7.6-1.6 11.3-1.6 3.9-3.6 5.1-7 1.5-3.8-4-7.7-7.7-11.5-11.4zm-2.5-179.6c-.5-.3-1.1-.6-1.5-1-3.5-3.5-6.2-7-12.4-2.8-2.4 1.7-7.1 5.2-11 2.9-4.1-2.4-6.9-.8-10.1 1-5.3 2.9-10.8 5.4-16.4 10.2.3-2.4.1-3.2.4-3.5 8.4-8.6 16.9-17.1 25.3-25.6 1.9-1.9 3.7-1.1 5.8-.1 8.7 4 13.8 12 19.9 18.9zM421.4 360c7.1-2.5 4.1-6.6 1.6-8.3-3.2-2.2-2.2-3.5-.6-5.4 1.5-1.8 3.3-3.4 4.5-5.4 2.3-3.7 4.7-3.3 8.1-1.4 15.2 8.8 30.6 17.3 45.9 26 9.1 5.2 9.1 5.5 1.6 13-.4.4-.9.5-1.6.9 1.1-6.1-.8-10.4-6.2-13.4-9.8-5.4-19.3-11.2-29.1-16.6-4.3-2.4-8.8-2.4-12 2-2.5 3.5-5.5 7.2-3 13.2-3.7-2-6-3-9.2-4.6zm123 332.3s.1 0 0 0c-1.6 1.8-3.2 3.4-4.9 5.1-1.8 1.8-3.7 3.6-5.5 5.4-2.1 2-4.2 4.1-7 1.1-2.7-2.9-3.2-6 .1-8.8 1.8-1.6 3.3-3.2 3.8-5.7 1-5.3 5-8.6 9.5-10.5 3.8-1.6 6.7-3.6 8.4-7.2.6-1.1.7-2.5 2.5-2.2 4.8.9 7.5 8.5 4.1 12-3.6 3.7-7.4 7.2-11 10.8zM255.3 319.8c-.9-4.4 1.3-5.8 2.9-7.3 12.9-12.9 25.8-25.8 38.8-38.6 6.2-6.1 12-12.8 20.2-16.7 3.1-1.5 6.2-3.9 7.1-7.2 1.4-5.2 5.1-8.3 8.6-11.7 3.4-3.3 6.7-6.6 9.4-10.5 3.1-4.5 7.9-7.2 13.8-7.8-33.4 33-66.7 66-100.8 99.8zm-42.9 73.8c-8.6-7.3-15-14-20.3-21.7-1.6-2.3-.4-4 1.2-5.6l15.6-15.3c2-2 4.2-2.8 7-.9-2.8 5.9-10 11.1-3.6 18.7.2.3-.1 1.4-.5 1.7-4 3-1.5 8.7-5.2 11.9-1.4 1.3.2 3.1 1.4 4.4 1.1 1.6 3.1 2.7 4.4 6.8zm479.8 152.2c-3.2 3.2-6.4 6.3-9.6 9.5-1.4 1.4-2.9 2.9-5 1.6-2.6-1.6-5.3-3.5-6.1-6.3-.8-3 2.8-1.4 4.1-2.6 2-1.7 4.5-3.1 4.7-5.8.3-3.6 3-5.3 4.8-7.9 3.6-4.8 9.9-4.5 14-8.4 1.7-1.6 4.1-.4 5.8 1.2 2.1 2 .8 3.7-.5 5.6-3.4 5-8.3 8.6-12.2 13.1zM261.4 298.2c-7.3 7.2-7.3 7.2-14.5 1.1-6.8-5.8-6.9-8.5-.3-15 9-8.9 8.8-8.6 17.9.2 4.4 4.3 4.1 7.4-.3 11-1.1.7-1.9 1.8-2.8 2.7zM525.2 418c-4.4-18-16.6-29.5-26.9-42.2-2.7-3.3-3.6-6.6-1.7-10.9 16.9 13.5 31.4 27.7 28.6 53.1zm-10 73.8c1.5 2.4 6.3 3.8 5.2 7.6-1.3 4.3-5.4 7.2-9.1 9.5-1.2.8-3.7-3.6-5.2-4.1-3.2-1.1-4.1-4.2-7.1-5.3-3.5-1.4-3.7-4.5-.6-7.6 7.1-7.4 9.1-7.6 16.8-.1zm-4.5 22.2s.1 0 0 0c3.6-3.4 7.1-6.9 10.6-10.4 2.5-2.5 4.7-1.5 6.6.7 1.8 2 2.2 3.8-.1 6.1-6.7 6.6-13.2 13.4-19.8 20.1-2.4 2.5-4.9 2.1-7.4.1-2.7-2.2-2-4.4.1-6.6 3.3-3.4 6.7-6.7 10-10zm-22.6 4.7c-7.5-7.4-7.5-9.2.2-16.4 1.8-1.6 3.6-4.5 5.1.6.2.6 3.5 4 6.5 5.2 1.9.8 6.1 4.3 4.8 7.5-3.8 8.8-10 9.6-16.6 3.1zm48.6-18.7c7 5.2 4.7 12.6 4 19.4-.3 2.4-2.7 5-5.3 5-3.2 0-4.6-3.5-6.5-5.7-1.9-2.2-.1-3.8 1.4-5.5 3.8-4.7 3.3-8.6-1.6-12.5-1.7-1.3-3.9-2-4.8-4.1-.4-1-.7-2.1.2-3 .4-.3 1.4-.4 1.7-.2 3.1 3 8.3 2.6 10.9 6.6zm43.1 20.6c-.4 3.1 5.6 4.4 2.2 7.9-7 7.2-14.2 14.3-21.3 21.4-1.7 1.7-3.7 2.2-5.6.1-2-2.1-1.1-3.8.6-5.5 8.1-8 16.1-16 24.1-23.9zm-140.3 18.8c.7-2 2.3-2.5 3.5-3.1 6.5-3 12.1-6.9 16.5-12.8 3.6-4.8 8.2-8.5 14.9-4.3.8.5 2.5-.2 3.6-.6 1.7-.5 3.8-3 4.8-.2.8 2.1-2.2 2.7-3.8 3.5-10.5 5-20.9 10.1-31.5 15-2.3 1.3-4.3 3.9-8 2.5zm9.5-236.3-1.6 1.6c-15.6-15.4-31.2-30.8-46.7-46.3l1.2-1.2c16.3 14.7 31.9 30 47.1 45.9zm-161.8 71.8c4.5-4.6 9.3-8.9 14.2-13 1.2-1 2.3-3.2 4.2-1.4 2 1.8.6 3.5-.8 5-2.8 3-5.6 5.9-8.6 8.8-4.7 4.7-9.6 9.2-14.3 13.9-1.7 1.6-3.7 2.9-5.6 1-2.4-2.4.5-3.7 1.8-5.1 2.9-3.3 6-6.2 9.1-9.2zm206.7 115.7c6.3-6.2 12.5-12.4 18.8-18.5 1.6-1.5 3.5-3 5.6-.7 2.1 2.3 0 3.7-1.5 5.3-3.6 4.1-9.6 5.2-13 8.4-8.8 8.4-20.4 14.7-24.4 27.4-.6 1.8-1.7 3.2-3.8 2.1-1.9-.9-2.2-2.6-1.1-4.3.9-1.4 2.2-2.6 3.4-3.8 5.3-5.3 10.7-10.6 16-15.9zM285.4 368.5c0-.1-.1-.1 0 0-3.6 3.4-7 6.9-10.7 10.3-1.3 1.2-2.7 4.4-5.1 1.8-2.3-2.5-.8-4.9 1.7-6.3 4.4-2.5 7.3-6.3 10.4-10.2 3.1-3.9 7.3-7.1 11.2-10.4 1.3-1.1 2.9-3.3 4.8-.9 1.6 2-.1 3.6-1.5 5-3.5 3.5-7.2 7.1-10.8 10.7zm-49.7-42.8c2.6-2.6 5.1-5.2 7.7-7.7 1.8-1.7 3.7-2 5.7-.3 2.1 1.9 1.5 3.7-.3 5.4-5.2 5.1-10.3 10.2-15.5 15.2-1.5 1.5-3.3 2.1-5.1.5-2-1.8-2-3.7-.2-5.5 2.5-2.6 5.2-5.1 7.7-7.6zm276.7 261.8c3.3 5.2 2 9-2.6 12.6-3.1 2.5-6.2 5.3-8.2 8.9-1.2 2.2-3.1 2.8-5.3 1-2.1-1.8-3-3.4-.8-5.8 5.4-5.9 10.8-11.7 16.9-16.7zM299.9 449.4c-15.2-15.1-30.5-30.2-46.6-46.2 5.5 2.1 43.6 39.4 46.6 46.2zm-20.7-91.2c-3 3-6 6.1-9.2 9-1.1 1-2.2 3.5-4.1 1.6-1.5-1.5-1.2-3.6.4-5.1 6.1-6 12.3-11.9 18.5-17.8 1.2-1.1 2.7-2.7 4.4-1.1 1.8 1.7.2 3.1-1 4.3-2.9 3.1-6 6.1-9 9.1zm103.6-74.8c.2-1.5.9-3 2.5-2.2 1.7.8 1.8 2.4 1 3.8-.9 1.7-1.9 3.4-3.2 4.8-4.9 5.1-9.9 10.1-15 15-1.4 1.3-3.1 4-5.2 1.6-1.7-1.9.6-3.5 1.8-4.8 5.9-6.2 12-12.2 18.1-18.2zm-77.2 49.3c6.5-7.4 8.8 1.8 12.6 3.6 4.5 2.2.5 5.5-1.2 7.1-5.4 4.9-8.4-2.1-12.3-3.6-4.1-1.6-1.3-4.9.9-7.1zm-72.3-9.1c-2.1 2.1-4.2 4.3-6.4 6.3-1.3 1.2-2.5 3.7-4.7 1.5-1.7-1.7-1-3.6.5-5.1 4.6-4.7 9.3-9.4 14-14.1 1.3-1.2 2.8-2.4 4.5-.8 1.9 1.8.8 3.6-.6 5-2.4 2.4-4.9 4.8-7.3 7.2zm179.7 2.1-.3-.3c-2.9 2.8-5.7 5.7-8.6 8.5-1 .9-2.2 1.5-3.4.6-1.3-1-.8-2.3.1-3.3 6.2-6.7 12.4-13.4 18.7-20.1 1.1-1.2 2.8-1.6 4-.4 1.4 1.4.3 2.8-.7 3.9-3.3 3.8-6.5 7.4-9.8 11.1zm-47.5-35.3c-2.2 2.3-4.4 4.6-6.8 6.8-1.2 1.1-2.5 3-4.3 1.2-1.6-1.6-.1-3.2 1.1-4.4 6.3-6.5 12.6-12.9 18.8-19.4 1.4-1.5 3-1.8 4.5-.5 1.8 1.5.2 2.8-.7 3.7-4.1 4.3-8.4 8.4-12.6 12.6zm33.1-36.5c-8.4-3.2-31-26.8-30.4-31.4 9.7 10.5 20.6 19.2 30.4 31.4zm-63.7-24.3.5.5-84.3 83.4-.5-.5 84.3-83.4zM519.6 524c2.7-2.8 5.4-5.7 8.5-1.3 1.5 2.1 6.2 4.1 1.4 7.5-3.1 2.2-5.3 7.4-10.4 2.3-3.9-3.7-2.6-6.2.5-8.5zM395.8 309.5s0-.1 0 0c-2.8 2.7-5.5 5.4-8.3 8.1-1 .9-2.4 1.3-3.5.2-1.3-1.2-.3-2.4.6-3.3 4.9-5.3 9.9-10.7 14.8-16 1.1-1.2 2.5-1.9 3.9-.6 1.8 1.5 1 3.1-.3 4.4-2.3 2.4-4.8 4.8-7.2 7.2zm-92.4 65.8c.9 4.1 1.1 6.7-1.7 8.8-4.5 3.3-8.5 7.3-11.8 11.8-1.1 1.5-2.7 3.3-4.8 1.3-1.7-1.6-.6-3.2.7-4.4 5.6-5.7 11.3-11.2 17.6-17.5zm141.9-13.1c-.8-.7-.9-1.2-.3-1.7.3-.2 1-.3 1.1-.2.3.4.4 1 .6 1.5-.5.2-1.1.3-1.4.4z"/><path d="M384.1 501.8c4.3 3.5 8.5 7.1 12.8 10.6 2 1.6 4.2 2.4 6.2.2 1.8-2 3-4.1 1-6.8-4.9-6.5-10.8-12-17.8-16.3-3-1.9-5.6-1.9-7.8 1.2-2.2 3.2-.7 5.6 1.8 7.7 1.3 1.1 2.6 2.2 4 3.2-.1.1-.1.2-.2.2zM458.3 422.3c-5 4.9-5 13-.1 17.8 4.9 4.8 14.2 4.9 18.7.1 4.6-4.8 4.5-13.4-.1-18.1-4.7-4.8-13.5-4.7-18.5.2zm2.1 3c4.1-4.1 10.9-4.5 14.5-1 3.2 3.2 3.9 10.7 1.2 13.4-4.3 4.2-11.4 4.6-15.4.8-3.6-3.4-3.7-9.8-.3-13.2zM495.3 623.8c-2.4-5.7-10.2-7.6-15.3-12.7-2-2-3.9-1.1-5.6.5-1.8 1.7-1.5 3.3-.6 5.7 4 10.8 15 15.6 21.2 24.5 1.6 2.3 5.5 4.2 9.3 2.9 1.7-.6 3.2-2.1 2.7-3.9-.8-3.2-.9-6.8-3.8-9.3-2.3-2-4.5-4.3-7.9-7.7zM531.6 638.7c3.7 3.6 7.3 7.2 11 10.8 7.9 7.8 14.7 7.8 22.5-.1 9.5-9.6 9.4-14.7-.5-24.6-7-6.9-13.9-13.9-21-20.7-5.2-5-8.5-5-13.9-.1-3.7 3.3-7.1 6.9-10.6 10.3-4.1 3.9-3.8 7.8 0 11.7 4 4.3 8.3 8.4 12.5 12.7zm37.6-4.8c-10.1-.6-19.7 9.3-18.6 17.9-.9-.2-1.9-.1-2.4-.5-10.2-8.6-19.3-18.3-28.5-27.8-2-2.1-1.7-4.8.5-6.9 4.1-3.8 8.2-7.5 12.3-11.3 2.2-2 4.7-2.9 6.9-.7 9.8 9.3 19.5 19 29.8 29.3zM493.8 384.8c-1.4-1.5-3.8-2.5-6.5-.2-2.6 2.2-2.6 4.5-.9 7.3 3.8 6.4 7.4 12.8 14.4 16.6 2.9 1.6 4.9 2.1 7.3-.3 2.7-2.6 1.9-4.6-.3-7.1-4.6-5-8.9-10.2-14-16.3zM484.8 568.5c2.6 3.2 6 3.6 9.8 2.2 3.5-1.3 4.7-4.2 5-7.6.4-4.1-1.5-7.2-5.1-8.9-3.3-1.5-7-1.8-10.2-3.8-2.2-1.4-4 .7-5.5 2.2-1.3 1.3-2.6 3.2-1.3 4.5 3.3 3.3 3.4 8.4 7.3 11.4zm.7-2.1c-2.1-3-3.2-7.7-.7-9.6 2.4-1.8 7.6-2.6 10.6 1 2.4 3 2.4 6.4-.6 9.1-3 2.8-6.2 2.3-9.3-.5zM549.4 471.4c-.3.6-1.8 2.2-1.4 2.7 3.1 4.9 3.3 11.6 8.8 15 4.1 2.5 10.1.7 12.3-3.4 2.4-4.6.7-10.5-4-12.4-3.3-1.4-6.8-1.8-9.8-4.4-2-1.7-3.8.9-5.9 2.5zm4.4 3.5c5.6.4 12.7-2.8 13.7 6.2.4 4-2.2 6.7-6.2 6.6-8.5-.1-6.7-7-7.5-12.8z"/><path d="M528.2 612.5c-3.6 2.5-6.9 4.6-2.1 9.2 7.2 7 13.1 9.2 17.1 5.6 4.2-3.8 2.3-8-5.6-17.1-5.5-6.2-6.7.3-9.4 2.3z"/><path fill="none" d="M-.1-.1h1000v1000H-.1z"/><path fill="none" d="M99.7 599.4h400.2v300H99.7z"/><path d="M202.1 757.3v22.9c-22.5 31.9-44.6 78-50.1 119.2h-31.8c5.6-41.8 31.1-91.9 50.4-116.7h-66.9v-25.4h98.4zM314.4 782.5h-56.9c-.9 7.6-3.4 21.2-4.3 27.1 5.3-4.4 13.4-7.6 25.6-7.6 28 0 43.8 20.2 43.8 47.3 0 27.5-15 52.7-53.4 52.7-28.1 0-48.8-14.4-51.9-39.8h30.8c2.7 9.8 9.6 16.1 21.7 16.1 14.7 0 21.7-10.8 21.7-26.5 0-14.8-5.5-25.4-21.8-25.4-13.2 0-18.6 5.7-21.8 14.2L220 837c3.8-18.1 9.9-60.2 12.2-79.8h86.6l-4.4 25.3z"/><path fill="none" d="M600.1 99.8h300v300h-300z"/><path d="M729.1 257.5V151.2c-6.6 3.1-18.6 5.6-25.7 6.2v-23.1c13.5-2.5 27.1-10.1 35.2-19.1h21.8v142.3h-31.3zM789.4 257.5v-2c0-24.7 11.1-44.9 41.9-67.3 20.1-14.7 26.1-19.7 26.1-32.1 0-12.3-6-19.2-17.9-19.2-13.9 0-18.9 8.5-20.9 20.9h-29.8c2-24.5 18.1-45 50.7-45 36.5 0 49 21.7 49 43 0 20.7-8.9 30.7-35.1 49.1-17.5 12.3-24.6 20.4-27 26.8h67.3l-3.8 25.8H789.4z"/><path fill="none" d="M599.5 600h300v300h-300z"/><path d="M675.5 900v-26.6h-53.6V851l49.4-69.4h28.1v71h14.3l-2.4 20.8h-11.9V900h-23.9zm0-68.5c0-12.8 0-20 .5-27.4-4.7 9.9-20.1 32.5-31.3 48.5h30.8v-21.1zM722.2 909.2 772 774.1h21.4l-49.6 135.1h-21.6zM807.3 900v-1.6c0-20.6 9.3-37.4 34.9-56.1 16.7-12.2 21.8-16.4 21.8-26.8 0-10.3-5-16-15-16-11.6 0-15.8 7.1-17.4 17.4h-24.9c1.7-20.4 15.1-37.5 42.3-37.5 30.4 0 40.9 18.1 40.9 35.9 0 17.2-7.4 25.6-29.2 40.9-14.6 10.3-20.5 17-22.5 22.3h56.1l-3.2 21.5h-83.8z"/><path fill="none" d="M99.7 400h300v300h-300z"/><path d="M219.9 661.7c-5 23.1-22.4 40-53.5 40-39.3 0-58-27.8-58-63.1 0-34 19.2-64.5 59.2-64.5 33 0 49.1 19.4 52.1 40.1h-26.8c-2.6-9.6-9.2-19.1-26.1-19.1-22.1 0-30.7 19.9-30.7 42.5 0 21 7.4 43.1 31.4 43.1 17.5 0 23-11.7 25.4-19h27zM313.2 581.5v19.1c-18.8 26.6-37.1 65-41.8 99.3h-26.5c4.7-34.8 25.9-76.6 42-97.3h-55.8v-21.2h82.1z"/><path fill="none" stroke="#000" stroke-miterlimit="10" stroke-width="9" d="M111.9 739.4h187.6"/><path d="m665.4 634.8 35.5 66-66-35.5s16.3-6.1 20.3-10.1 10.2-20.4 10.2-20.4z"/><path fill="none" d="M99.9 99.4h199.7v200.1H99.9z"/><path d="m210.1 150.5-3.7 32.7 23.8-20.9 11.6 19-31.5 12.6 31.3 12.6-11.4 19-23.8-21.2 3.8 32.9h-20.9l3.7-32.8-23.6 21-11.4-19 31.1-12.8-31.3-12.4 11.6-19.3 23.4 21.3-3.5-32.7h20.8z"/><path fill="none" d="m303.89 123.808 70.71-70.71 424.26 424.26-70.71 70.71z"/><path d="m456.1 140.1 24.4 24.4c11.9 11.9 13.2 26.4 3 36.7-11.8 11.8-26.3 8.2-37.5-3l-8.8-8.8-18.5 18.5-15.2-15.2 52.6-52.6zm-8.1 38.5 6.3 6.3c4.4 4.4 9.3 5.6 13.7 1.3 4.5-4.5 3.1-9.4-1.2-13.7l-6.3-6.3-12.5 12.4zM461.8 231.6c3.4-.1 33-1.9 38-2l-17.1-17.1 10.3-10.3 33.7 33.7-10.2 10.1c-3.7.3-33.8 2.2-36.8 2.3l18.9 18.9-12.1 8.6-34.4-34.4 9.7-9.8zM580.1 264.2l-52.6 52.6-15.5-15.5 52.6-52.6 15.5 15.5zM551 340.3l34.6-70.6L602 286l-16.1 29.1c-5 9.1-8.6 15.1-13.3 22.2l.2.2c6.5-4.4 12.7-8 22.1-13.1l29.5-16 15.8 15.8-71 34.2-18.2-18.1zM645.5 329.5l39.3 39.3-11.4 11.4-24.2-24.2-10.2 10.2 22.7 22.7-11.5 11.5-22.7-22.7-19.5 19.5-15.1-15.1 52.6-52.6zM644.2 433.4l35.3-35.3c-2.8-1.7-6.4-4.8-8.3-6.7l9.7-9.7c5.9 4.5 12.7 6.1 18.3 5.9l10.5 10.5-50.4 50.4-15.1-15.1z"/></svg>