<svg xmlns="http://www.w3.org/2000/svg" xml:space="preserve" baseProfile="tiny" overflow="visible" version="1.2" viewBox="0 0 1000 1000"><path fill="none" d="M0 0h1000v1000H0z"/><path d="M345.1 261.2c.4-1.4.1-2.7.5-4 .5-1.3 1.7-2.2 3.1-2.2 4.4 0 8.7.6 13 1 1.9.2 3.1 1.9 2.9 4-.1.7-.2 1.5-.3 2.2-.1.8.2 1.4.8 2 12.4 12.3 24.7 24.7 37.1 37 .3.3.6.6 1.1.6.5 0 2.1 1.5 2 2 0 .9.5 1.6 1 2.2.5.6 1.1 1.1 1.7 1.7l.2.2c1.1-.1 1.8.8 2.7 1.1.4.2.8.3 1.1.6l10.4 10.4c.6.6.6 1.3.1 1.9-.5.6-.5 1.1.2 1.5 1 .7 1.4 1.8 2.3 2.6.2.1.3.3.2.5-.4.8.2 1.2.6 1.7 5 5 10 9.8 14.8 14.9 2.1 2.2 4.1 4.5 6.3 6.4 2.5 2.1 3.5 5 4.7 7.8 1.4 3.2 2.6 6.3 3.6 9.6.2.7.6.9 1.3.6 2.4-1.1 4.9-.8 7.4-.2.6.1 1.3.6 1.6 1.2.3.6.9.7 1.2 1.2.1.3.3.1.5 0 1.3-.8 2.2-1.9 2.8-3.3 1.6-3.4 3.4-6.7 5.1-10.1.2-.3.2-.9.9-.6.6.2.7.6.6 1.1-.2.9-.1 1.9-.4 2.8-.4 1.1.3 1.9.8 2.8.5.8.2 1.4-.6 1.8-1.2.7-2.5 1.2-3.4 2.2-1.3 1.5-2.9 2.8-4.5 4-.5.4-.6.9-.1 1.4 2.4 2.4 4.8 5 7.4 7.3.7.7 1.3 1.4 2 2.1l19.5 19.5c6.5 6.5 13.2 12.9 19.6 19.6 5.7 6.1 11.8 11.8 17.6 17.8.3.3.4.6.4 1v6c0 .6-.2 1.1-.6 1.4-2.3 1.7-4.1 3.9-6.1 5.9-.8.8-1.6 1-2.6.8-1.6-.3-3.2-.6-4.8-.7-.6 0-1.1-.3-1.6-.8-1-1.1-2-2-3-3.1-.4-.4-.7-.8-1.3-.2-.5.5-1.2.9-.6 1.8 1.2 1.7 1.2 1.7-.2 3.1-1.5 1.5-3.1 3-4.6 4.5-.4.4-.4.7 0 1.2.7.9 1.8 1 2.5 1.8.2.2.5.3.6.5 1.7 2.3 4.2 3 6.8 3.6 1.1.3 2.2.4 3.1 1.3.5.4 1 .1 1.3-.3 1.4-1.5 3.1-2.8 4.3-4.5.3-.5.9-.3 1.3-.3 1.5-.2 2.9-.2 4.4-.6.6-.1 1 .5.9 1.4-.2 1.5-.8 2.8-1.6 4-1.1 1.8-2.7 3-4.2 4.5-4.5 4.6-9.1 9.2-13.7 13.8-4.9 4.9-9.9 9.8-14.8 14.6-7 6.9-14 13.9-21 20.9l-5.4 5.1c-1.8 1.8-3.7 3.6-5.5 5.5-1.3 1.3-2.8 2.3-4.7 2.4-1 .1-1.3-.2-1.1-1.2.2-1.5.4-2.9.5-4.4 0-.6.2-1 .6-1.3 2.1-2 4.1-4.1 6.2-6.2.5-.5.7-.9 0-1.4-.8-.7-.8-1.7-1.2-2.6-.5-1.3-.9-2.7-1.3-4.1-.2-.6-.6-1.1-1-1.6-1.3-1.4-2.7-2.7-3.9-4.2-.4-.5-.7-.5-1.1 0-1.4 1.3-2.9 2.5-4.2 3.9-.5.5-.5 1.4-1.3 1.4s-.7-1-1.3-1.3c-.4-.3-.7-.5-1.1-.1-.2.1-.4.2-.6.4-1.8 1.5-1.8 1.5-.1 3.2.7.7 1.4 1.5 2.1 2.1.8.7 1 1.6 1.1 2.5 0 1.4.1 2.8.3 4.2.1.5-.2.9-.6 1.2l-6.4 6.4c-.5.5-1.1.3-1.6.3-1.3 0-2.5-.4-3.8-.5-1.1-.1-2-.6-2.8-1.5-7.1-7.5-14.6-14.7-21.7-22.1-5.9-6.1-12.1-12-17.9-18.1-3.3-3.5-6.9-6.8-10.2-10.4-4.1-4.5-8.5-8.7-12.8-13-1.4-1.4-2.9-2.8-3.9-4.5-.9-1.5-1.3-3-1.6-4.7-.2-1.6.2-3.1.7-4.5.2-.6.1-.9-.5-1.1-2.3-.9-4.6-1.9-6.9-2.8-1.6-.6-3.2-1.3-4.8-2-1.1-.4-2.3-.5-3.2-1.3-1-.9-2.3-1.4-3.2-2.5l-1.2-1.2c-5.2-5.1-10-10.5-15.3-15.6l-5.1-5.1c-.3-.3-.5-.7-1-.2-.3.3-.6.1-.8-.2l-1.2-1.2c-.8-.8-1.7-1.4-2.9-1-.8.2-1.5-.1-2.1-.7-1.4-1.4-2.7-2.9-4.2-4.2-1.9-1.6-3.4-3.6-5.2-5.3-.1-.1-.3-.2-.4-.4-.4-1.2-1.1-2.1-1.6-3.3-.1-.2-.1-.4-.2-.5-1-1.1-2-2.2-3-3.2-.3-.4-.6-.7-1.2-.3-.3.2-.9 0-1-.2-.2-.4-.4-.5-.7-.6-.4-.2-.7-.6-.4-1.1.3-.6.1-1-.4-1.4-3.2-3.1-6.3-6.3-9.4-9.4-1.4-1.4-2.8-2.9-4.3-4.3-7.9-7.3-15.4-15.2-23-22.8-.8-.8-1.6-1-2.7-.8-3.5.7-5.1-.6-5.2-4-.1-1.5-.3-3-.4-4.5-.2-1.9-.4-3.7-.7-5.6-.2-1.3-.5-2.5-.3-3.8.2-1.4 1.2-2.3 2.5-2.6 1.8-.3 3.5-.6 5.3-.6.4 0 .6-.3.8-.6 2.2-2.2 4.4-4.5 6.7-6.7 2.6-2.4 5.2-4.9 7.7-7.4 1.8-1.9 3.7-3.7 5.5-5.5.2-.2.7-.5.3-.8-.4-.5-.7 0-.9.3-4 4.6-8.5 8.7-12.8 13-2.1 2.2-4.3 4.3-6.4 6.4-.5.5-1.1.3-1.6.4-1.4.3-2.9.4-4.3.7-.6.1-1 .1-1.5-.4-1.8-1.8-3.6-3.6-5.5-5.4-.3-.3-.5-.6-.4-1.1.4-1.7.6-3.4.7-5.1.1-.6.3-1 .7-1.4 1.5-1.3 2.8-2.7 4.3-4.1 4.6-4.4 9.1-8.9 13.6-13.4 4.3-4.3 8.5-8.7 12.9-12.8 3.2-3 6.2-6.1 9.3-9.1.8-.7 1.7-.6 2.6-.8 1.2-.3 2.4-.5 3.5-.8.5-.1.7-.3.3-.8-1.4-2.1-.9-3.4.9-5.1 2-1.8 3.9-3.7 5.7-5.8.5-.6 1.2-1.1 1.7-1.7.2-.2.5-.4.4-.5-.6-1.4.7-1.8 1.3-2.6.3-.4.7-.7 1-1 .3-.3.6-.6 1.1-.2.4.3.6-.1.9-.3 2.2-2 4.4-4 6.4-6.1 1.9-1.9 3.9-3.7 5.6-5.7 1.4-1.7 4.3-1.3 5.8 0 3.1 2.8 6 5.8 9 8.7.4-.2.5-.1.7.1zm58.2 198.9-1.5 1.5c-1.8 1.7-1.7 1.6.1 3.3 2.7 2.5 5.5 5 8.4 7.4 2.4 2.1 4.9 4.1 7.4 6.1s4.9 4.1 7.3 6.1c2 1.6 3.9 3.3 5.8 4.9 3.3 2.7 6.7 5.3 10 8 2.3 1.8 4.5 3.7 6.8 5.6 2.4 2 4.7 3.9 7.1 5.9 1.4 1.2 1.5 1.2 2.8-.1l6.3-6.3c1.5-1.5 3-3.1 4.6-4.6 1.5-1.5 3.1-3 4.6-4.6 1.5-1.5 3.1-3 4.6-4.5 1.5-1.5 3-3.1 4.6-4.6 1.5-1.4 2.7-3.1 4.4-4.4.9-.7 1.6-1.6 2.4-2.4l11.9-11.9c3.3-3.3 6.5-6.5 9.8-9.7.4-.4.6-.9 1-1.1 1.1-.7 1.8-1.7 2.8-2.5.3-.3.2-.5 0-.8-.6-1.1-1.5-1.9-2.2-2.9l-4.2-5.1-4.5-5.7c-1.2-1.4-2.5-2.7-3.5-4.2-1.4-2-3.1-3.8-4.6-5.7-1.1-1.4-2.4-2.7-3.4-4.1-1.3-1.8-2.7-3.4-4.1-5.1-1.7-2.1-3.5-4-5.2-6.1-2.3-2.7-4.4-5.6-6.8-8.2-2.2-2.5-4.4-5-6.4-7.6-.3-.4-.7-.6-1.2-.1-3.1 3.1-6.2 6.3-9.5 9.2-1.8 1.6-3.2 3.5-4.9 5.2-3.2 3.1-6.3 6.2-9.5 9.3-6.6 6.5-13.4 12.9-19.9 19.5-.7.8-1.5 1.5-2.2 2.3-.6.6-1.3 1.2-1.9 1.8-1 .9-2 1.7-3 2.6-4.9 4.4-9.3 9.2-14.2 13.6zM286 328.1l-.7.7c-1 1-1 1 0 2 4.1 4.1 8.1 8.2 12.3 12.3 1.9 1.8 3.6 3.7 5.5 5.6 1.2 1.2 2.2 2.6 4 3 1.6.4 3.3.5 4.6-.3 1-.6 1.9-1.5 2.8-2.4l11-11c1.3-1.3 2.5-2.8 4-3.9 1.7-1.3 3.1-2.9 4.7-4.4 1.1-.9 2.1-2 3.1-3.1 2.1-2.3 4.4-4.4 6.6-6.6 3.6-3.6 7-7.3 10.9-10.6 1.5-1.3 2.4-2.9 3-4.6.6-1.9.4-3.9-1.2-5.5l-5.1-5.1c-1.8-1.7-3.7-3.3-5.4-5.1l-9.6-9.6c-.3-.3-.5-.7-.9-.5-.5.2-.6.8-.8 1.3 1-.6 1.3-.7 1.6-.3 1 1 1 3 0 4.1l-3.6 3.9c-1.3 1.5-2.8 2.9-4.3 4.2-2.4 2-4.3 4.5-6.6 6.6-2.5 2.3-4.9 4.8-7.3 7.2-.4.4-.7 1.1-1.1 1.4-1.8 1.2-3.2 2.9-4.7 4.3-4.1 3.8-7.9 7.8-11.8 11.7-.2.2-.4.4-.7.6-1.7 1.2-3 2.7-4.5 4.1-1 1-2 1.6-3.3 1.8-1.4.3-2.3-.5-2.5-1.8zm103.3 116.7-5.4 5.4c-.3.3-.7.6-.2.9 1.2.9 2.5 1.8 3.7 2.7 1.2.9 2.4 1.7 3.6 2.6 1.4 1.1 2.9 2.2 4.3 3.3 1.2.9 2.5 1.6 3.5 2.5.8.8 1.2.6 1.9-.1 5.4-5.3 10.5-10.8 16.1-15.9 4.9-4.4 9.2-9.5 14.1-13.8 1.8-1.6 3.4-3.5 5.1-5.1 4.9-4.7 9.5-9.6 14.5-14.2 2.6-2.4 5.1-5.1 7.6-7.6.8-.8 1.9-1.5 2.6-2.4 1.1-1.3 2.3-2.4 3.5-3.6 1.2-1.2 2.4-2.3 3.6-3.4.5-.4.5-.8.2-1.3-1.1-1.9-2.4-3.6-3.6-5.4-2.3-3.4-4.5-6.9-6.9-10.3-.8-1.1-.8-1.2-1.8-.1-5.3 5.4-10.6 10.7-15.9 16.1-7.2 7.3-14.3 14.6-21.8 21.6-5.3 4.9-10 10.3-15.3 15.1-2.8 2.5-5.4 5.1-8 7.7-1.8 1.6-3.6 3.4-5.4 5.3zm-13.4-57.6c0 .1-.1.1-.1.2.1.2.3.3.4.5l9.1 9.1 3.5 3.5c.7.7 1.8.4 2.1-.6.3-.8.7-1.7 1.5-2.2.8-.5 1.5-1.2 2.2-1.9 2.1-2 4.1-4.1 6.2-6.2 1.8-1.7 4.3-1.3 5.7.8.6 1 1.6 1.8 2.5 2.5.8.6 1.3 1.3 1.5 2.2.2.7.4.7.8.3l2-2c1.6-1.6 3.1-3.2 4.8-4.6.1-.1.3-.2.2-.4-.2-.3-.4-.1-.6 0-2.8 1-5.6 1.5-8.5 1.3-.3 0-.5-.1-.8.2-.8.9-1.4.4-2-.2-1.1-1.1-2.1-2.4-3.5-3.1-.8-.5-1.5-1.2-2.4-1.7-.5-.3-1.1-.9-1.5-1.5-.7-1-1.5-1.9-2.6-2.5-.3-.2-.5-.4-.7-.6-1.4-1.4-2.7-3-4.2-4.3-3.7-3.4-7.1-7.2-10.8-10.7-1-1-1.8-2.1-2.4-3.3-.6-1.2-1.6-2.2-2.7-2.7-1.2-.6-2.2-1.5-3.1-2.4l-1.2-1.2c-.5-.6-.9-.4-1.4 0-1.3 1.3-2.6 2.6-4 3.9-2.1 1.9-4 4-6.1 5.9-1.6 1.5-3 3.1-4.6 4.6-.6.6-.4.8 0 1.2 1.1 1.1 2.5 2 3 3.4.5 1.2 1.3 2.1 2.2 2.9.2.2.4.4.8.4 1.3 0 2.2.8 3 1.6 2.2 2.1 4.3 4.3 6.5 6.5.6.6 1.1 1.5 1.8 1.9 1.5 1 2.3 2.5 3.6 3.6 1.2 1 2.2 2.2 3.2 3.4 1.2 1.3 2.5 2.5 3.8 3.8.8.8 1.7 1.6 2.2 2.7.5 1.1.9 2.3 2 3.1.9.7 1.6 1.5 2.4 2.3.3.3.6.7.1 1.1-.4.3-.8.8-1.4.2-.5-.5-1.1-.9-1.6-1.4-1.4-1.4-1.4-1.4-2.8 0l-.4.4c-2.8 2.7-5.8 5.3-8.6 8-4.5 4.4-9 8.6-13.4 13.1-.9.9-1.8 2-3.1 2.4-.4.1-.5.3-.3.6.8 1 1.7 2 2.6 2.9.2.3.6.3.8.1.3-.3-.1-.5-.3-.6-.6-.7-1.3-1.3-2-2-.2-.2-.3-.4-.1-.6.2-.2.4 0 .5.2l2.6 2.6c.3.3.3.6 0 1-.7.7-1.5.5-2.4-.5-.9-1-1.8-2-2.7-2.9-.2-.2-.3-.4-.6-.4-1.1-.1-1.9-.9-2.7-1.6l-5.5-5.5c-2.9-2.9-5.8-5.7-8.5-8.8-.5-.5-1.2-.7-1.6-1.4-.6-1.1-1.6-1.8-2.5-2.7-1-1-2.2-1.8-2.8-3.1-.7-1.4-1.6-2.8-2.9-3.3-1.6-.6-2.4-1.8-3.5-2.8-1.6-1.4-2.8-3.2-4.3-4.6-.5-.5-.7-1.2-.3-1.8 1.2-1.9 2.3-3.9 3.5-5.7 1.6-2.3 3.2-4.6 5.2-6.6.2-.2.4-.3.1-.7-1.1 1.2-2.2 2.2-3.2 3.4-2.1 2.6-4 5.4-5.5 8.4-.3.6-.6 1.4-1.4 1.1-1-.4-.4-1.3-.1-1.9 1.6-2.9 3.3-5.6 5.2-8.2 1.5-2.2 3.5-4.1 5.3-6.1.4-.4.4-.7 0-1.1l-2.7-2.7c-.6-.7-1-.7-1.6 0-3.7 3.7-7.4 7.4-11.1 11.2-1.5 1.5-3 3.2-4.7 4.5-.9.7-.6 1 0 1.6l7.1 7.1c2.8 2.8 5.5 5.7 8.3 8.5 6.9 7.1 13.9 14 20.9 21 1.6 1.7 3.3 3.3 4.9 5 1.8 1.8 3.6 3.7 5.5 5.4.7.7 1.5 1.2 2.4 1.7 1.2.7 2.5 1 3.7 1.5 2 .9 4 1.6 6 2.4.2.1.5.2.7 0 .2-.3-.1-.4-.3-.6l-3.3-3.3c-1-1-1-1 .1-1.9.2-.1.3-.3.4-.4 4.1-3.8 7.8-8 12-11.8 4.3-4 8.4-8.3 12.5-12.4.4-.4.6-.6.2-1.2-.4-.6.2-1.1.7-1.4.4-.3.9-.3 1.1.3.1.3.4.2.6 0l3.3-3.3c.2-.2.4-.4 0-.5-1.2-.4-1.9-1.5-2.8-2.4-1.3-1.5-3.1-2.5-4-4.5-.1-.3-.5-.2-.7-.1-.8.3-1.5.1-2.1-.5L371 384.1c-.6-.6-.6-1.2 0-1.9l11.1-11.1c.5-.5 1-.6 1.6 0l1.8 1.8 13.1 13.1c.5.5.7 1 0 1.7-.4.4-.9.8-1.3 1.2-2 2.1-4.1 4.1-6.2 6.2-.3.3-.6.6-.9.2-.4-.5-1-.8-1.5-1.3-.8-1.1-1.9-2-3.2-2.6-1.4-.7-2.9-1.2-4.4-1.8-1.7-1-3.5-1.7-5.2-2.4zm-6.5-1.7-2.8-2.8c-.9-.9-1.8-1.8-2.8-2.7-1.4-1.4-2.3-1.6-3.7-1-.6.2-.6.8-.9 1.1l-6.9 6.9c-1.6 1.5-3.1 3.2-4.8 4.7-2.4 2.1-4.6 4.4-6.8 6.7s-4.7 4.3-6.6 6.8c-.7 1-.8 1.9.1 2.7 3.2 3 6.1 6.2 9.2 9.2 2.6 2.5 5.1 5 7.5 7.7 1.3 1.5 2.7 2.8 4.1 4.2 1.5 1.6 3.3 1.7 4.8.1 2.6-2.7 5.5-5.1 8.1-7.8 1.9-1.9 3.8-3.9 5.9-5.7 2.4-2 4.4-4.4 6.7-6.4 1.5-1.3 2.8-2.8 4.2-4.2.9-.9.9-2.5.1-3.3-.2-.2-.4-.3-.5-.5-.9-2-2.7-3.3-4.2-4.8-.8-.9-1.9-1.6-2.6-2.6-1-1.2-2.2-2.1-3.2-3.3-1.4-1.7-3.2-3.3-4.9-5zm-2-59.5 7-7c.6-.6.6-1 0-1.6l-10.2-10.2c-.6-.6-1.1-.7-1.7 0-1.6 1.7-3.4 3.3-4.9 5.1-1.5 1.8-3.1 3.3-4.8 4.9-3.6 3.4-6.9 7-10.6 10.3-1.4 1.2-2.5 2.6-3.7 3.9-1.7 1.8-3.4 3.5-5.3 5.1-3 2.6-5.5 5.6-8.5 8.3-2.4 2.1-4.5 4.5-6.8 6.7-1.7 1.6-3.3 3.4-5.1 4.8-1 .8-1 1.4-.1 2.3l10.1 10.1c.5.5.8.6 1.3 0 1.9-1.9 3.9-3.7 5.8-5.6 1.6-1.6 3.3-3.2 4.9-4.8 5.9-6 12.1-11.7 17.7-18 1.3-1.4 2.7-2.6 4.1-3.8 1.4-1.3 2.6-2.8 4-4 2.5-2 4.6-4.3 6.8-6.5zm35.1 59.3c-.5-1.7-.6-3.3-.5-4.9.3-3.6 1-7 2.8-10.2 2.1-3.7 4.9-6.6 8.5-8.8 3.2-2 6.7-3.4 10.5-3.8 2.5-.2 5.1-.7 7.6.6.3.1.5.4.8.1.3-.3.2-.6.1-1-.3-.8-.7-1.6-1.3-2.2-1.5-1.4-3-2.9-4.5-4.3-2-1.9-3.8-3.9-5.8-5.8-2.3-2-4.3-4.3-6.5-6.4-1.4-1.4-2.9-2.8-4.4-4.1-1.6-1.4-2.7-1.5-4.2-.3-1 .9-2 1.8-2.9 2.7-3.8 3.8-7.5 7.6-11.3 11.3-3.9 3.9-7.9 7.8-11.8 11.7-.7.7-.9 2-.3 2.7.7.9 1.5 1.8 2.3 2.6.9.9 2 1.8 2.9 2.7 3.8 3.8 7.6 7.6 11.3 11.5 2.1 2.1 4 4.3 6.7 5.9zm49.5-19.4c.1-.2 0-.4 0-.6-.6-1.6-1-3.2-1.7-4.8-.7-1.5-1.1-3.1-1.8-4.5-1.2-2.4-2.9-4.4-4.8-6.3-1.9-1.9-3.7-3.8-5.6-5.7-2.8-2.7-5.5-5.6-8.2-8.4-9.9-10.1-19.9-20-29.9-30-.9-.9-1.1-.9-2 0-3 3-6.1 6.1-9.2 9-2.6 2.4-5.1 5-7.6 7.5-.4.4-.8.7-.1 1.1 1.4.9 2.5 2.2 3.6 3.4.5.5.9.5 1.5.1 2.9-2 5.9-3.9 9.2-5.3 1.3-.5 2 0 2.1 1.3.7-.3 1.4-.2 1.9.3 1.6 1.6 3.3 3.2 4.9 4.9.1.1.2.3.3.5.7 2.3 2.4 3.6 4.4 4.7.3.2.7.1 1 .5.8 1.1 1.9 1.8 2.9 2.7 4.1 3.9 8 8.1 12.2 11.9 1.4 1.3 2.9 2.6 4 4.2.4.5.8 1.1 1.4 1.4 1.3.7 2.2 1.9 2.5 3.3.3 1 .8 1.5 1.4 2.1.4.4.7.8 1.1 1.1.8.6.8 1.2.2 1.9-.2.3-.2.5-.2.8.2 1.5.5 3 0 4.5-.4 1.4-.7 2.9-1.3 4.3-.1.2-.5.5-.1.8.3.2.6-.1.8-.4l.4-.4 10.5-10.5c.5-.5.8-.6 1.3 0 1.3 1.4 2.7 2.7 4.1 4.1.2.1.3.5.8.5zm-3 139.4c.1 0 .1-.1.2-.1-.1-.1-.2-.3-.3-.4-1.3-1.4-2.9-2.4-4.3-3.6-.7-.6-1.3-1.3-2-1.9-2.3-1.6-4.4-3.5-6.7-5.2-1.9-1.5-3.6-3.1-5.4-4.6-2.3-1.9-4.8-3.7-7.1-5.7-2.1-1.8-4.3-3.4-6.3-5.2-2.3-2-4.8-3.8-7-5.8-.4-.4-.9-.8-1.6-.1-3.2 3.2-6.2 6.5-9.7 9.4-.6.5-.5.9 0 1.5 5.3 5.3 10.6 10.5 15.7 15.9 3.6 3.7 7.3 7.3 11 11 .5.5.7 1.1 1.2 1.5 1.3.9 2.6 1.7 4.1 2.4 4.9 2.3 9.9 2.3 14.9.2.4-.2.9-.4.4-1.1.3.3.5.6.9.3 1.7-1 3.2-2.3 4.7-3.6.2-.2.5-.4 0-.7-1.5-.9-2.6-2.2-4.1-3.1-.5-.3-.9-.7-1.1-1.3-.1-.4 0-.7.2-.9.2-.2.6-.2.9.1.4.4.9.7 1.4 1zm-80.7-154.7c-.5.2-1.1.6-1.5 0-.3-.5-.6-1.1-.2-1.9 1.1-2.1 2.4-4 3.6-6 1.8-2.8 4.1-5.3 6.3-7.8 2-2.2 4.3-4.2 6.7-5.9 1.7-1.2 1.7-1.3.3-2.8l-.1-.1c-1-.9-2-1.9-3-2.9-.8-.7-1.5-1.6-2.3-2.5-.3-.3-.5-.5-.9-.1-2 2-4 3.9-5.9 6-.6.7-1.2 1.5-1.9 2-1.6 1.3-2.7 3-4.3 4.2-1.6 1.3-3 2.9-4.4 4.5-2.1 2.4-4.5 4.6-6.8 6.8-5 4.9-9.8 10.1-15 14.7-1.5 1.4-2.9 2.9-4.4 4.2-2.8 2.5-5.3 5.2-7.9 7.9-.4.4-.4.7 0 1.1l5.4 5.4c.3.3.6.4.9 0 .8-1 2-1.7 2.9-2.6 1.1-1.1 2.4-2 3.6-3 2-1.5 4.2-2.8 6.3-4.1 1.1-.7 2.3-1.4 3.8-1.3.4 0 .9.1 1.1.6.1.5-.2.8-.6 1-.8.4-1.5.9-2.3 1.3.4 0 .7-.1 1-.3.8-.4 1.5-.9 2.3-1.1 1.2-.3 2.1.3 2.8 1.2.5.6.9.6 1.5 0 2.9-3 5.8-5.9 8.9-8.7 2-1.8 3.8-3.8 5.7-5.6.6-.6.4-1 0-1.5-.2-.3-.5-.3-.8-.5-1.1-.3-1.4-1.3-.8-2.2zm17.4-59.2-11.9-11.9c-.6-.6-1-.6-1.6 0l-3.9 3.9c-2.4 2.4-4.8 4.8-7.3 7.1-2 1.7-3.7 3.7-5.6 5.5-.7.6-.4 1 0 1.5.8.8 1.7 1.6 2.5 2.4l21.2 21.2c.6.7 1.1.8 1.8 0 1.2-1.4 2.7-2.6 4-3.9 1.6-1.5 3.2-3.1 4.8-4.6 2.6-2.6 5.2-5.2 7.9-7.8.6-.6.7-1 0-1.6-4-3.9-7.9-7.8-11.9-11.8zm123.3 152c.1-.2.1-.3.1-.4.1-.4-.1-.8.3-1 .5-.2.7.3 1 .5.9.7 1.6 1.7 2.2 2.6.5.7 1.4 1.1 1.5 2 .1 1.1.5.6.9.2 1-.8 1.7-1.9 2.5-2.8 1.3-1.5 2.1-3.2 2.7-5 .8-2.5 1.3-5 1.1-7.6-.2-2.3-.6-4.5-1.7-6.6-1.6-2.9-3.8-5.4-6.1-7.8-4.8-5.1-9.9-10-14.9-15-1.3-1.3-2.5-2.6-3.8-4-1.4-1.5-2.8-3-4.4-4.3-1.3-1-1.2-1.1-2.3 0-1.7 1.7-3.3 3.6-5.2 5.1-1.9 1.6-3.5 3.4-5.2 5-.3.3-.4.5-.1.9l2.7 3.3c1.1 1.3 2.2 2.6 3.4 3.9 1.9 2.3 3.7 4.5 5.6 6.8 1 1.2 2 2.4 3 3.7 1.1 1.3 2 2.7 3.2 4 .8.8 1.4.8 2.2 0l3.4-3.4c.8-.8 1.7-.9 2.7-.3.7.4 1.3.8 2.1.2.7-.5 1.5-.4 2.4-.5 1.1-.1 2 .5 3 .6.7 0 1 .3.8 1.1-.2.7-.1 1.2.4 1.8 1.2 1.3 1.2 1.8-.1 3l-3.6 3.6c-.5.5-1 .6-1.6.3-.6-.3-1.3-.5-1.7-1.1-.2-.2-.4-.3-.7-.2-.8.3-1.3 0-1.2-.9 0-.5-.1-.9-.2-1.4-.4-1.5-.5-2.9.3-4.3.2-.3.4-.6 0-.9-.3-.3-.7-.3-1.1-.1-.2.1-.4.3-.5.5-1.3 1.3-2.5 2.5-3.9 3.6-.5.4-.4.8 0 1.3 1.2 1.4 2.2 2.8 3.4 4.2 1 1.2 2 2.5 3 3.7.8.9 1.5 1.8 2.2 2.7.5 1.2 1.3 2.1 2.2 3zm-194.2-82c-4-4-8-7.9-11.9-11.9-.5-.5-.8-.6-1.3 0l-9.9 9.9-6 6c-.4.4-.4.7 0 1.1 2.5 2.2 4.5 4.8 6.9 7.2.3.3.7.4.9.6 1 1.5 2.7 2.3 3.6 3.8.1.1.2.3.4.4.9.6 1.6 1.4 2.3 2.2 3.1 3.4 6.6 6.6 9.8 9.9.4.4.7.3 1 0 1.5-1.5 3.1-2.9 4.6-4.4 3.9-3.8 7.7-7.7 11.6-11.5.5-.5.7-.9 0-1.5-4.2-3.9-8.1-7.9-12-11.8zm160.8 130.1c0 .1 0 .1 0 0l-8.4 8.4c-.3.3-.9.5-.6.9.3.5.7 1.2 1.3 1.2.7 0 1 .4 1.4.7.6.6 1.2 1.1 1.7 1.7 1.1 1.4 2.6 2 4.3 2.5 1.5.4 3 .8 4.3 1.6 1 .7 1.4.3 2-.3 1.2-1.3 2.3-2.5 3.5-3.7 1-1.1 2.2-2 3.3-3.1 1.2-1 2.1-2.3 3.2-3.4 1-1 2.4-1.8 3.2-3 1.4-2.1 3.4-3.6 5.2-5.3 1.5-1.4 3-2.9 4.4-4.4 1.5-1.6 3-3.1 4.5-4.6 1.3-1.4 3.1-2.3 4-4 .2-.3.5-.5.1-.8-1.1-.8-1.1-2.1-1.3-3.2-.6-3-1.5-5.7-4.2-7.5-.4-.3-.7-.7-.7-1.3-.1-.8-.8-1.2-1.4-1.5-.5-.3-.7.5-1 .6-.6.3-.9.8-1.2 1.3-1.1 1.3-2.7 2.2-3.8 3.5-1.8 1.9-3.6 3.8-5.5 5.6-2.8 2.7-5.4 5.6-8.4 8.1-.9.8-1.5 1.8-2.4 2.7-2.6 2.4-5.1 4.9-7.5 7.3zm-35.1-98.3c5.4-5.4 10.9-10.8 16.3-16.3.8-.8 1.8-.9 2.7-.6.9.3 1.7.9 1.9 2 .7 3 1.7 6 2.7 8.9.1.3.2.6.5.6.3-.1.2-.4.2-.7.1-1.5-.5-2.8-.9-4.2-.6-2.2-1.3-4.4-1.9-6.7-.1-.6-.4-.9-.9-1.1-1-.4-1.9-1-2.7-1.8-3.1-3.2-6.2-6.3-9.4-9.4-1.4-1.4-1.4-1.4-2.8 0-.6.6-.6 1 0 1.5 2.3 2.2 4.6 4.5 6.8 6.8.7.7.7 1.3-.2 1.8-.4.2-.7.5-1 .8-5.6 5.7-11.3 11.2-16.8 17-3.2 3.4-6.5 6.8-10.1 9.9-1.9 1.7-3.6 3.6-5.4 5.4l-16.6 16.6c-.2.2-.4.5-.7.6-1.4.8-2.4 2.2-3.7 3.2-1.9 1.6-3.5 3.6-5.3 5.3-3.3 3.2-6.4 6.4-9.8 9.5-1.6 1.4-3 3-4.5 4.5-.5.5-.8.6-1.4.1-2.4-2.2-4.6-4.6-6.9-6.8-.3-.3-.5-.9-.9-.6-.6.3-1.1.7-1.4 1.4-.1.2 0 .3.1.5l.5.5c3.8 3.7 7.4 7.5 11 11.3.4.4.7.9.8 1.5.1.8.6 1.2 1.1 1.5 1.5.8 3.1 1.3 4.6 2.2 1.5.8 3.3.4 4.6 1.5.1.1.4 0 .6 0 .3-.1.8 0 .8-.4 0-.3-.4-.4-.7-.5-.9-.4-1.9-.7-2.7-1.2-1.6-.9-3.3-1.7-5-2.3-2.3-.9-3-3.7-1.2-5.4 2.2-2.2 4.4-4.5 6.8-6.5 1.6-1.4 2.9-3 4.3-4.5 1.6-1.7 3.4-3.2 5.1-4.9 5.3-5.4 10.7-10.6 16-16 2.2-2.2 4.6-4.3 6.7-6.6.8-.9 1.8-1.6 2.7-2.5 5.5-5.3 10.8-10.6 16.1-15.9zm-31.7 7.4c0 .5.3.8.6 1.1 2 1.9 3.9 3.9 5.9 5.9.3.4.5.4.9 0 3.3-3.1 6.4-6.4 9.8-9.5 2.2-2 4.2-4.1 6.2-6.3 1.2-1.4 2.7-2.6 4.1-3.9 3-2.9 5.9-5.9 8.9-8.8.3-.3.5-.8.9-1.1 1.5-1.1 2.7-2.5 4-3.9.3-.3.7-.8.2-1.3-1.9-1.9-3.5-4.1-5.6-5.9-.4-.3-.6-.3-1.1 0-1.1.8-2 1.8-2.9 2.7-4.1 4-8.1 8-12.1 12-.2.2-.5.3-.3.8 3.4-1.4 6.7-2.8 10.1-4.2 1.7-.7 3.5-1.5 5.2-2.2.4-.2.8-.2 1 .3.2.5-.1.8-.5 1.1-.4.2-.9.3-1.3.5-3 1.3-6 2.5-9 3.8-2 .9-4 1.9-5.9 3-.8.5-1.6 1.1-2.6.7-.3-.1-.4 0-.6.2-.5.5-1.1.9-1.6 1.3l-11 11c-.2.2-.4.6-.9.5.1-1.1 1.4-1.3 1.8-2.1 1-1.8 2.7-2.8 4-4.2 1.5-1.5 3-2.9 4.5-4.4 8.1-8 16.1-16.2 24.4-24.1.3-.3.7-.6.9-1.1.1-.2.4-.4.1-.6-.2-.1-.5-.4-.8-.1l-.6.6c-4.8 4.8-9.5 9.6-14.3 14.3-3.6 3.6-7.1 7.3-10.9 10.7-1.1 1-2.1 2.2-3.2 3.2-1.7 1.5-3.3 3.2-4.9 4.8-1.1 1.1-2.1 2.2-3.3 3.3-1.1 1-2 2.1-3.1 3.1-4.4 4.2-8.5 8.6-13 12.8-4 3.7-7.7 7.8-11.8 11.4-1.7 1.5-3.2 3.3-4.9 4.9-1.9 1.9-3.8 3.8-5.8 5.6-1 .9-1.8 2-2.8 3-.3.3-.6.5-.2.9.4.4.7 0 .9-.2 2.2-2.2 4.4-4.3 6.7-6.5 6.3-5.9 12.2-12.4 18.6-18.3 3.1-2.9 6-6 9-9 2.1-1.9 4-4 6.3-5.8zM304.2 295.4l6.2-6.2c.3-.3.7-.7.2-1.1-1-.8-1.5-2.1-2.6-2.9-.8-.6-1.5-1.2-2.1-1.9-.5-.6-.8-.5-1.3 0-2.3 2.5-4.9 4.8-7.3 7.3-1.8 1.9-3.8 3.8-5.8 5.6-1.3 1.2-2.5 2.4-3.7 3.7-1.2 1.2-2.4 2.5-3.7 3.7-1.2 1.1-2.2 2.4-3.5 3.5-3.6 3.3-7 6.7-10.5 10.1-2.4 2.4-4.8 4.9-7.3 7.2-1.7 1.5-3.2 3.1-4.8 4.7-.2.2-.6.5-.3.8l2.4 2.4c.2.2.6-.2.7.3.4 1.2 1.4 1.8 2.3 2.6.5.4.8.2 1.2-.2 5.7-5.5 11.1-11.4 16.9-16.7 1.6-1.5 3-3.3 4.6-4.8 1.7-1.5 3.2-3.1 4.9-4.7 1.4-1.3 2.7-2.7 3.9-4.2 1-1.2 2.3-2.2 3.5-3.2 2.2-2 4.1-4 6.1-6zm6.9 102.2c0-.5-.3-.7-.6-1-1-1-2.3-1.9-2.3-3.6 0-.2-.2-.3-.3-.5l-8.1-8.4c-9.5-9.7-19.2-19.3-28.9-28.9-.2-.2-.5-.5-.8-.7-2.4-1.7-4.5-3.5-4.5-6.8 0-1.6.3-3.2 1.3-4.6.8-1.1 1.8-1.8 2.7-2.7 4.3-4.2 8.5-8.5 12.8-12.8 1.4-1.4 3.1-2.6 4.4-4.2 1.4-1.7 3-3.1 4.5-4.6 1.3-1.3 2.6-2.8 4.1-4 1.3-1 2.2-2.4 3.4-3.6 1.5-1.6 3.2-3.2 4.9-4.7 1.9-1.7 3.6-3.6 5.4-5.4 5.5-5.3 10.8-10.8 16.4-16.1 7.6-7.3 14.9-14.8 22.3-22.2.9-.9 1.6-1.8 2.6-2.4 2.6-1.7 5.1-1.3 7.6 0 1.4.7 2.4 1.8 3.5 2.9 2 1.9 3.9 3.9 5.9 5.8 10.6 10.6 21.3 21.2 31.9 31.9.7.7 1.5.9 2.4.9.2 0 .4.1.4-.1.1-.2 0-.3-.2-.4l-.6-.6c-13.6-13.6-27.3-27.2-40.9-40.9-3.5-3.5-9.3-3.4-12.8 0-5.7 5.7-11.5 11.4-17.1 17.2-1.3 1.4-2.8 2.7-4.2 4-4.3 4.1-8.4 8.3-12.6 12.5-1.3 1.3-2.8 2.6-4.2 3.9l-19.8 19.8c-.1.1-.3.4-.4.4-1.3.4-1.7 1.8-2.7 2.5-1.3 1-2.4 2.3-3.6 3.5-5.3 5.5-10.9 10.6-16 16.3-1.8 2-2.9 4.1-2.7 6.7 0 .4-.5 1.2.6 1.2.2 0 .1.3-.1.4-.2.1-.3.2-.2.5.3.8.4 1.6.9 2.4 1 1.5 2.3 2.7 3.5 4 10.6 10.7 21.2 21.3 31.8 31.9 2.1 2.1 4.3 4 6.2 6.2.5.6 1.2.9 1.6 1.5.7 1.2 1.6 2 2.5 2.8zm36.3-111.4c1.9 1.9 3.6 3.7 5.5 5.2.5.4 1 .6 1.6.3.7-.2 1.3-.6 1.8-1.1 2.4-2.3 4.7-4.7 7.1-6.9 1.5-1.4 3.2-2.7 4.4-4.5.4-.7.6-1.2.5-2-.1-1-1-1.5-1.6-2.1-3.8-3.8-7.5-7.8-11.3-11.6-.3-.3-.5-.6-.9-.6-1.6.2-3.2.5-4.5 1.7l-4.2 4.2c-2.3 2.2-4.3 4.6-6.8 6.6-1.1.9-1 1.2 0 2.2 1.5 1.4 2.9 2.8 4.3 4.2 1.4 1.6 2.9 3 4.1 4.4zm44.1 132.3c.5 0 1 .1 1.4-.1 2.6-.9 5.2-1.9 7.8-2.9 1.1-.4 2.2-.8 3.4-1.2.4-.1.8 0 1 .4.1.3.1.5-.3.6-2 .7-4 1.8-6 2.4-3.1.9-5.9 2.3-8.7 3.8-.6.3-1.1.7-1.8.2-.3-.2-.6.1-.8.3-2 2.2-4.4 3.9-6.4 6.1-1.2 1.3-2.4 2.6-3.7 3.8-1.9 1.8-3.6 3.7-5.6 5.4-.5.5-.4.8 0 1.2 1.3 1.3 2.6 2.6 3.9 3.8.7.7 1.3 1.4 2.1 1.9.5.3.7.3 1-.1 1.3-1.3 2.6-2.5 3.9-3.7 4-3.8 7.7-7.8 11.8-11.5 1.5-1.3 2.8-2.9 4.2-4.3 2.4-2.3 4.8-4.7 7-7.1 1.5-1.7 3.2-3.3 4.8-4.8.9-.8 1.3-2 2.5-2.4.4-.1.2-.6-.1-.9l-6-6c-.3-.3-.6-.4-.9-.1-1.2 1.4-2.8 2.4-4 3.7-.9 1.1-1.9 2.2-3 3.1-2.6 2.4-5 5-7.6 7.5.2.4.1.5.1.9zm-113-62.6c1.6 1.6 3.2 3.2 4.8 4.9.5.5 1.1.7 1.7.3 1-.6 2.1-1.2 2.9-2.1 1.4-1.6 2.9-3.1 4.4-4.6 1.5-1.6 3.1-3.1 4.6-4.6.5-.5.7-1.1.6-1.7-.1-1.1-.7-2-1.4-2.7-1.2-1.1-2.3-2.4-3.5-3.6-3.2-3.2-6.4-6.4-9.6-9.7-.4-.4-.6-.3-1 0-1.6 1.2-2.9 2.7-4.3 4-2.2 2.2-4.3 4.6-6.7 6.6-1.3 1.1-2 2.3-2.1 3.9 0 .2 0 .6.1.6 1.4-.4 1.5 1 2.1 1.5 2.6 2.3 5 4.8 7.4 7.2zm216.7 139.3c-9.9 9.9-19.8 19.9-29.8 29.7-1.7 1.6-1.5 3.5-1.9 5.4-.1.3.1.6.5.4 1.1-.4 2.1-.7 3-1.6 1-1.1 2.1-2.1 3.1-3.1 1.5-1.4 3.1-2.7 4.5-4.2 3.8-3.9 7.6-7.7 11.4-11.5 5.8-5.6 11.2-11.5 17.2-16.9 1.4-1.3 2.7-2.7 4.1-4.1l15.1-15.1c2.5-2.5 5-5.1 7.6-7.5 1.3-1.3 2.3-2.7 3-4.4.3-.7 0-.9-.7-.9-1 0-2 .1-2.9.3-.4.1-1-.1-1.2.4-.6 1.3-2 1.9-2.9 2.9-10.1 10.1-20.1 20.1-30.1 30.2zM355.9 372.6l-1.2-1.2c-.5-.5-.9-1.3-1.5-.1-.1.3-.5.4-.7.5-1.2.6-2.5 1.2-3.7 1.9-1.7 1-3.3 2.2-5 3.4-2.9 2.1-5.5 4.6-8.1 7.1-1.5 1.4-2.7 3-4 4.6-.9 1.1-1.7 2.2-2.5 3.3-1.4 2-2.3 4.3-4.1 6-.3.3 0 .5.1.7 1.1 1.7 2.7 2.9 4.1 4.3.7.7 1.6.6 2.1-.3 1.2-2.1 2.5-4.1 3.8-6 1.8-2.6 3.6-5.1 5.8-7.4 2-2.1 4.1-4 6.4-5.9 1.5-1.2 3.1-2.4 4.7-3.5s3.4-1.9 5-2.9c1.3-.8 1.6-1.8.5-2.9-.6-.5-1.1-1.1-1.7-1.6zm18.4-18.2 1.9 1.9c.2.2.3.4.1.5-.2.2-.4.1-.5-.1-.1-.1-.2-.3-.4-.4-1-1-2-2-3-3.1-.6-.6-1 .1-1.4.2-.3.1-.2.4 0 .7 1.2 1.2 2.3 2.4 3.6 3.6.8.7 2.4.5 2.9-.4 1.4-2.4 2.8-4.8 4.4-7 2-2.8 4.1-5.4 6.5-7.9 2.2-2.2 4.6-4.1 7.1-6 2.5-1.8 5-3.6 7.7-5.1 1.1-.7 1.3-1.4.6-2.5-.7-1.2-1.7-2.2-2.7-3.1-.6-.5-1-.7-1.5 0-.2.3-.6.5-.9.6-5.1 2.2-9.4 5.6-13.4 9.4-2.5 2.4-4.9 4.9-7.1 7.6-2.1 2.5-3.8 5.2-5.5 7.9-.4.6-.5 1.2.2 1.8.5.4 1 .9 1.4 1.4zm109.5 43.5c1.5-1.5 2.9-2.9 4.4-4.3.7-.6.7-1 0-1.6-2.9-2.8-5.7-5.7-8.6-8.5-.9-.9-1.9-1.7-2.8-2.5-.2-.2-.5-.4-.8-.1-.5.6-1.2.9-1.7 1.4-1.7 1.8-3.4 3.4-5.1 5.2-1.2 1.2-1 2.1.5 2.8.2.1.5.2.7.2.3.1.8.2.7.7-.1.5-.4.7-.9.6-.9-.2-.8.4-.5.9.2.4.1.6-.1.9-.2.2-.5.3-.7 0-.2-.2-.5-.3-.6 0-.1.2 0 .5.1.7.5.8 1 1.5 1.6 2.2.9 1.2 1.9 2.4 2.9 3.5 1.3 1.5 2.5 3 3.9 4.4.2.2.6.4.8.1.4-1.1 1.5-1.4 2.2-2.2 1.2-1.7 2.6-3 4-4.4zm-109.4 50.7c-1-1.4-2.2-2.3-3.9-2.9-2.6-.8-5-2-7.5-2.9-2.1-.8-4.2-1.6-5.8-3.2-1.8-1.8-3.6-3.5-5.3-5.3-1.2-1.2-2.3-2.5-3.5-3.8-9.8-10-19.9-19.5-29.4-29.7-2-2.1-4.2-4.1-6.2-6.1-14.1-14.3-28.3-28.4-42.5-42.6-1.5-1.5-1.9-3.4-1.9-5.5.1-1.7.9-3 2.1-4.2 2-1.8 3.8-3.8 5.7-5.7 2.8-2.7 5.5-5.5 8.4-8.1.2-.2.6-.4.5-.7-.2-.6.3-.9.6-1.2 1.7-1.8 3.5-3.5 5.2-5.2.5-.5 1.1-1.1.9-2.1l-6.1 6.1-9.3 9.3c-2.3 2.3-4.7 4.7-7.1 7-1.4 1.3-2.6 2.6-3.1 4.6-.4 2.2.2 3.9 1.5 5.5.8.9 1.8 1.5 2.7 2.4 8.7 8.7 17.4 17.4 26.1 26.2.9.9 1.7 1.8 2.5 2.7 2.9 3.2 6.1 6.1 9 9.2 1.7 1.8 3.6 3.4 5.3 5.3 1.1 1.2 2 2.5 3.8 2.8.3 0 .6.2.8.5.5.7 1.2 1.1 1.8 1.7.4.5 1.1.8.5 1.6-.2.2.1.4.3.6 3 3.2 6.2 6.2 9.2 9.3 1.4 1.5 3 2.9 4.4 4.4 1.6 1.7 3.3 3.4 4.9 5.1 5.1 5.3 10.3 10.5 15.6 15.5 1.5 1.4 3 2.9 5 3.8 4.9 1.9 9.8 3.8 14.8 5.6zm17.2 27.7 5.4 5.4c.6.6 1.2.6 1.6-.1.9-1.5 2.4-2.6 3.6-3.8 1.9-1.9 3.8-3.7 5.7-5.5.5-.5.4-.8 0-1.2-.6-.7-1.6-1.1-2.2-1.8-2-2.4-4.7-3.9-6.7-6.2-.3-.3-.7-.5-.9-.3-.5.7-.8 1.5-1.8 1.4 0 0 0 .3-.1.5-.2.6-1.2.8-1.3.3-.2-.8-1.1-1-1.4-1.6-.4-.7-.6-.5-1-.1l-6.3 6.3c-.5.5-.5.9 0 1.3l5.4 5.4zm-36.4-162.9c.1 0 .1 0 0 0 2.4-2.3 4.7-4.6 7-6.9.5-.5.5-.8 0-1.3-1-.9-1.8-1.8-2.8-2.7-.2-.2-.3-.6-.7-.4-.2.2-.1.5-.1.8.1 2-.5 3.9-1.9 5.4-3.4 3.5-6.9 6.9-10.3 10.3-1.7 1.7-3.4 3.2-5.1 4.8-2.7 2.5-5.2 5.2-7.8 7.8-2.2 2.1-4.3 4.4-6.6 6.4-1.5 1.3-2.7 2.8-4.1 4.2-3.1 2.9-6 6.1-9.2 8.9-.4.3-.7.7-1 1.1-.3.4-.8.7-1.4.8-1.1.2-2.2.2-3.3.1-.2 0-.5-.2-.6.1-.2.3.1.4.3.6 1 1 2 1.9 3 3 .7.8 1.2.7 1.9 0s1.3-1.6 2.1-2.2c1.7-1.5 3.3-3.2 5-4.8 4.6-4.4 8.9-9.1 13.6-13.3 1.9-1.7 3.6-3.5 5.3-5.3 3.6-3.7 7.3-7.1 10.7-11 1.8-2.4 4-4.3 6-6.4zm36.6-16.7 9.3 9.3c8.4 8.5 17 16.9 25.4 25.4 2 2 3.9 4.2 5.9 6.1.6.6 1.4 1.1 2 1.7 3.6 3.6 7.3 7.3 10.7 11.1 1.4 1.6 2.7 3.2 3.7 5 1.6 2.8 2.6 5.9 3.6 9 .3.8.8 1.6.9 2.4.1.7.4 1.1.8 1.5.2.2.4.4.7.2.2-.2.2-.4.1-.7-.9-2.1-1.5-4.4-2.4-6.5-1-2.3-1.8-4.6-2.8-6.8-.3-.8-.5-1.6-1.1-2.2-2.6-2.6-5.1-5.3-7.7-7.9-6.4-6.7-13.1-13.1-19.6-19.8-1.5-1.5-3.1-3-4.5-4.6-1.6-1.8-3.3-3.5-5.2-5.1-.4-.4-1-.3-1.4-.8-.9-1-1.9-1.9-2.8-2.9-.2-.2-.5-.3-.5-.6.1-.7-.4-1.1-.9-1.5l-17.1-17.1-25.2-25.2c-1.4-1.4-2.9-2.8-4.3-4.1-3.4-3.1-7.5-2.9-10.6 0-5.9 5.9-11.8 11.8-17.8 17.7-1.4 1.3-2.5 2.8-4.1 3.9-.2.2-.3.4-.2.6.1.3.4.2.6 0 1.1-1.2 2.7-2 3.6-3.5.3-.6.8-1.2 1.5-1.4 2.1-.8 3.5-2.5 5-4l4.7-4.7.4-.4c2.4-1.7 4.3-3.9 6.2-6 .9-1 1.8-1.8 3.1-2.4 2.1-.9 5.6-.3 7.3 1.3 10.9 11.1 21.8 22 32.7 33zM330 264.2l-3.4-3.4c-.7-.7-1.9-1-2.5-.6-.6.4-1.2.9-1.7 1.4-3.9 3.8-7.6 7.7-11.7 11.4-1.5 1.4-2.9 2.9-4.4 4.3-.9.9-.9 1.8-.1 2.7l1 1c.9 1 1.9 1.8 2.7 2.9 1.1 1.4 2.4 2.8 4.1 3.6.8.4 1.6.5 2.5-.3 2.1-2.2 4.2-4.4 6.5-6.3 1.8-1.5 3.4-3.3 5.1-4.9 1.9-1.7 3.8-3.5 5.2-5.7.6-1 .8-1.8-.1-2.6-.9-1.3-2.1-2.4-3.2-3.5zm67.4 123.4c.4-.6 1.4-.8.5-1.8-3.5-3.4-6.9-6.9-10.4-10.4-.5-.5-.7-.5-1.2 0-1.6 1.5-3.1 3.1-4.7 4.5-2 1.8-3.9 3.9-5.8 5.8-.5.5-.4.7.2.9 2.7.9 5.3 2.3 8.1 3.1 2.5.7 4.1 2.1 5.7 4 .4.5.9.6 1.4.2.5-.4.2-.8-.2-1.1-.5-.5-.4-1 .1-1.4.5-.4 1.1-.2 1.3.2.3.6.6.5.9.2l3.6-3.6c-.7-.3-1.4-.6-1.3-1.5 0-.4.3-.6.7-.6.9-.1.9.7 1.1 1.5zm-98.9-99 4.9-4.9c.2-.2.4-.3.3-.6-.1-.2-.3-.2-.4-.2-1.9.5-4 .2-5.4 2.1-.7.9-1.6 1.7-2.5 2.5-2.9 2.9-6 5.6-9 8.5-2.9 2.8-5.7 5.8-8.6 8.6-4.3 4.2-8.3 8.7-12.9 12.6-1.9 1.6-3.4 3.5-5.2 5.2-1 .9-1.7 1.9-1.7 3.3 0 .5.1 1-.1 1.5-.1.2-.2.6.1.8.3.2.5-.2.6-.4l6.6-6.3c2.2-2.1 4.1-4.3 6.4-6.3 1-.9 1.9-2 2.9-3 1.1-1.2 2.2-2.4 3.6-3.3 1.4-1 2.4-2.5 3.6-3.7 2.7-2.5 5.3-5.2 7.9-7.8 1.3-1.3 2.7-2.5 4-3.8 1.7-1.6 3.3-3.2 4.9-4.8zm-33.3 46.6c1.1 0 2.2 0 3.2-.3.5-.2 1.2.1 1.6-.5.6-1.1 1.6-1.7 2.5-2.6 2-2.1 4.1-4.2 6.3-6.1 1.3-1.1 2.1-2.6 3.4-3.6 1.7-1.3 3.1-3 4.7-4.5 1.5-1.3 2.7-2.8 4.1-4.2 2.4-2.3 4.7-4.8 7-7.2 1.2-1.2 2.4-2.4 3.7-3.5 2.5-2.2 4.7-4.6 7-6.9.8-.7 1.4-1.5 1.6-2.6.1-.7.2-1.5.3-2.2.1-.3.2-.7 0-.8-.3-.2-.5.2-.7.4-4.7 4.6-9.1 9.4-14 13.7-1 .9-2 2-3 3l-27.1 27.1c-.2.2-.6.3-.6.8zm26.6-11.5-4.4 4.4c-.2.2-.6.4-.4.8.2.4.5.5.9.5.7-.1 1.5-.2 2.1-.7 1.1-.9 2.2-1.9 3.3-2.9 2.6-2.6 5.1-5.2 7.8-7.7 1.3-1.3 2.6-2.6 4-3.8 3-2.6 5.7-5.6 8.5-8.4l12.1-12.1c1.6-1.6 3.3-3.1 4.9-4.6 1.8-1.7 3.3-3.7 5.1-5.4.5-.5.6-1.1.7-1.8.1-.4-.2-.7-.5-.9-.3-.2-.5.1-.7.3-.9 1.1-2.1 1.8-3 2.7-5.3 5.2-10.3 10.6-15.8 15.6-.5.5-1.2.9-1.5 1.5-.9 1.7-2.6 2.7-3.8 4.1-1 1.1-2.3 2.1-3.4 3.1-4.2 4-8.2 8.3-12.6 12.2-1.2.9-2.2 2-3.3 3.1zM388.9 466c.7-.7 1.3-1.3 1.9-2 .7-.7 1.9-1.2 1.2-2.6 0-.1.2-.4 0-.4-.4.1-.8-.2-1.2.1-.2.2 0 .3.1.5.3.6.2.8-.5.8-.5 0-.6-.1-.7-.6-.1-.6.2-1.4-.5-1.7-2.2-1-4.4-2-6.7-2.9-1.4-.5-2.3-1.4-2.6-2.8 0-.2-.1-.3-.2-.5-1.2-1.7-2.8-3.1-4.2-4.6-.4-.4-.6-.3-.8.2-.6 1.5-1.2 2.9-1.1 4.6.2 2.5 1 4.7 2.9 6.4.6.5 1.2 1 1.7 1.7 1.9 2.5 4.4 4.5 6.5 6.8.5.5.8.3 1.2-.1 1-.9 2-1.9 3-2.9zm-48.3-75c-.2.3-.7.7-1.2 1.2-1.1 1.4-2.1 2.8-3.2 4.2-1.5 2-2.9 4-4.1 6.2-.5.9.3 1.2.7 1.6.5.5.9.2 1.3-.2 3.6-3.6 7.2-7.2 10.9-10.7 4.5-4.1 8.4-8.7 12.8-12.8.3-.3.6-.6.8-.9.2-.4.4-.7 0-1-.4-.3-.6-1-1.4-.7-1.5.6-2.8 1.5-4.2 2.3-1.6.9-3 2.1-4.4 3.1-1.8 1.3-3.3 3-5.1 4.4-1 .9-1.8 2-2.9 3.3zm51.9-44.8 5.2-5.2c2.3-2.3 4.7-4.7 7.1-7 .4-.4.4-.7 0-1.1-.7-.8-1.3-.8-2.2-.3-1.7 1.1-3.5 2.2-5.2 3.4-2.4 1.7-4.8 3.4-6.9 5.6l-4.2 4.2c-.7.8-1.4 1.6-2 2.4-1.2 1.6-2.3 3.1-3.4 4.7-1 1.5-2 3-2.7 4.7-.2.5-.1.8.2 1.2.4.3.7.4 1.2.1.4-.2.8-.5 1.1-.9 3.9-3.9 7.9-7.8 11.8-11.8zm47.2 174.1c1.5 1.5 3 2.8 4.3 4.4 1 1.1 2 2.2 3 3.2 1.2 1.1 1.3 1.3 2.6 0 1.7-1.7 3.3-3.4 5-5 1.1-1 1.2-1 .1-2-2.1-1.9-3.9-4.1-5.9-6-.7-.6-1.1-.9-1.8-.4-.9.6-1.8 1-2.8 1.4-2.2.7-4.5 1-6.9.9-.3 0-.6-.1-.8.1-.2.3.2.5.4.7 1 1 1.9 1.8 2.8 2.7zm82.9-72 3.5 3.5c.2.2.4.6.9.3.4-.3.9-.6 1.3-1l4.8-4.8c1-1 1-1.1 0-2.1-2.4-2.4-4.7-4.8-7.1-7.1-1-1-2.1-1.9-3.1-2.8-.2-.2-.4-.4-.6-.3-.1.1-.2.4-.2.7-.1 1.1-.3 2.1-.6 3.2-.5 1.9-1.1 3.8-2.2 5.5-.5.7-.5 1.2.2 1.8 1 1 2 2.1 3.1 3.1zM410 366.8c-1.1.9-1.8 2.1-2.7 3.2-1.5 1.8-2 4.1-2.9 6.2-.2.5 0 1.1.4 1.5.4.4.9.4 1.2.2 1.9-1.1 4.1-1.6 6.1-2.6 1-.5 2.2-1 2.5-2.3.4-2.1 2-3.1 3.6-4.2.6-.4 1.1-.7 1.4-1.4.7-2.1 1.3-4.2 2-6.3.1-.2.3-.5.1-.8-.2-.2-.6-.1-.9 0-4.1 1.3-7.7 3.5-10.8 6.5zm12.9 11.5c-.5-.5-.9-1-1.4-1.4-.4-.3-.8-.8-1.3-.5-1.5.9-3 .5-4.5.2-.5-.1-.7 0-1 .3-1.7 1.8-3.5 3.5-5.2 5.2-.8.8-1.6 1.7-2.6 2.4-1.2.9-.9 1.4.2 2.1 2.6 1.5 5.3 1.1 7.9.4 3.3-.8 6.2-2.7 9-4.6.8-.5.9-1.5.5-2.4-.4-.7-1.2-1.1-1.6-1.7zm16.1 8.9c4.4-4.4 8.8-8.9 13.3-13.3.6-.6.6-.9 0-1.5-2.2-2.1-4.3-4.3-6.5-6.4-.1-.1-.3-.3-.5-.4-.2-.1-.3-.1-.5.1-.1.1-.2.3-.1.5.6.5.8 1.3 1.5 1.8 1 .6 1.8 1.5 2.5 2.4.6.8 1.4 1.2 2 1.9.8.8.9 1.1.1 2-3.8 3.8-7.6 7.7-11.5 11.5-2 2-3.9 4.2-6.1 6-1.6 1.3-2.8 2.9-4.3 4.3-1.2 1.1-2.4 2.3-3.6 3.5-3 2.9-6 5.9-8.9 9-.7.8-.9.4-1.3 0l-6.2-6.2c-.4-.4-.7-.6-1.3 0-.5.5-.3.8.1 1.2l5.8 5.8c.9.9.9 1 0 1.9-5.2 5.1-10.3 10.4-15.6 15.4-4.9 4.5-9.4 9.5-14.3 14.1-1.6 1.5-3.2 3.1-4.8 4.6-.2.2-.4.6-.8.2-.7-.7-1.6-1.2-2.2-2-1.3-1.7-3.2-2.9-4.6-4.5-.2-.3-.5-.5-.8-.2-.3.3 0 .6.2.8 2.3 2.3 4.7 4.6 6.9 7 .4.5.8.3 1.1 0 1-.9 1.9-1.8 2.9-2.7 7.2-7 14-14.2 21.3-21.1 7.7-7.2 14.8-15 22.5-22.2 4.9-4.4 9.2-9 13.7-13.5zm-12.9-22c-1.2 1.3-2.5 2.5-3.8 3.8-.3.3-.4.5-.3 1 .5 1.2.5 2.5 0 3.8-.2.7-.1 1.2.5 1.7.9.8 1.8 1.8 2.7 2.7.8.8 1.4.8 2.2 0 1-1.1 1.7-2.3 2.5-3.6 1.2-1.9 2-4.1 2.8-6.2 1.1-2.7.4-5.2-1.4-6.8-.6-.6-1.1-.5-1.6 0-1.1 1.2-2.4 2.4-3.6 3.6zm-99 1.7c-.8.8-1.5 1.5-2.3 2.2-.6.5-.6.9 0 1.4.5.5.9.4 1.3-.1 2.5-2.6 5.1-5.1 7.7-7.7 4.6-4.6 9.2-9.2 13.8-13.9.4-.4 1-.4 1.2-.9.5-1.3 1.8-1.9 2.5-2.9.8-1 1.9-1.9 2.9-2.9 5.8-5.7 11.5-11.5 17.3-17.2 1.6-1.6 3.2-3.2 4.9-4.7.5-.4.4-.6.1-.9-.3-.3-.6-.8-1.1-.2-.7.8-1.7 1.4-2.5 2.1-2.6 2.7-5.2 5.3-7.9 7.9-5.4 5.4-10.9 10.9-16.4 16.3-5.6 5.5-11 11.3-16.9 16.6-1.5 1.7-3 3.3-4.6 4.9zm139.6 22.2c.2-.1.2-.3.1-.4-.3-1.2-.3-1.2.9-1.2.2 0 .4-.1.5-.3l7.1-7.1c.5-.5.3-.9-.1-1.3-.1-.1-.3-.1-.5-.3-2.1-2.5-4.4-4.8-6.9-6.9-.3-.3-.5-.1-.8 0-1.1.5-1.9 1.5-2.8 2.4-.7.7-1.8 1.3-1.3 2.8.6 1.8 1.1 3.6 1.6 5.4.4 1.6 1.2 3 .9 4.8-.1 1 .5 1.7 1.3 2.1zM356.1 263.5c2.3 2.4 4.4 4.7 6.5 6.9l5.7 5.7c1.1 1.1 1.1 2.7 0 3.8-3.9 3.8-7.7 7.8-11.7 11.5-1.8 1.6-3.3 1.7-5 0-4.5-4.5-8.9-8.9-13.3-13.4-.5-.5-1-.5-1.5-.1-.6.5-.1.9.3 1.3 1.6 1.3 2.8 3 4.3 4.5 2.9 2.9 5.8 5.8 8.6 8.8 1.1 1.2 2.3 2.3 3.6 3.4.7.6 1 .7 1.6 0l16.5-16.5c.7-.7.8-1.1 0-1.8-2.7-2.4-5.1-5.1-7.7-7.5-1.6-1.5-3-3.1-4.5-4.7-.9-1.1-1.9-1.8-3.4-1.9zm-87 84.1c0 1.6.6 3 1.7 4.1 4.3 4.4 8.7 8.7 13 13 .6.6 1 .5 1.6.1.2-.2.4-.4.7-.6l14.8-14.8c1-1 1-1.2 0-2.2-.9-.9-1.9-1.9-2.9-2.8-4.4-4.4-8.8-8.9-13.1-13.4-.4-.5-.9-.8-1.5-.2-.6.7.1.9.4 1.2 4.5 4.6 9.1 9 13.5 13.7 1.1 1.2 1.4 3.5-.1 4.9-.9.9-2 1.7-2.9 2.6-2.7 2.6-5.3 5.3-7.9 7.9-1.3 1.3-2.7 1-3.7 0-2.3-2.4-4.6-4.9-7-7.1-2.3-2-4-4.6-6.6-6.4zm62.5 35.7c-2.4 2.6-4.5 5.4-6.4 8.3-.9 1.3-1.5 2.7-2.3 4-.4.7.1 1.2.6 1.5.6.3 1.5.6 1.9-.2.7-1.3 1.5-2.5 2.3-3.7 2.1-3.5 4.7-6.5 7.5-9.5 1.4-1.4 2.8-2.7 4.3-4.1 1.9-1.7 3.9-3.2 6-4.6 2.1-1.4 4.3-2.8 6.6-4 .8-.4.2-1 0-1.6-.2-.5-.6-.9-1.1-.5-1.4.9-3 1.4-4.4 2.2-2.2 1.3-4.3 2.8-6.4 4.3-2.4 1.7-4.5 3.6-6.6 5.5-.7.7-1.1 1.8-2 2.4zm37.5-31c.7.7 2.1.7 2.3 0 .3-.7.7-1.2 1-1.8 1.6-3 3.7-5.6 5.7-8.3 1.6-2.1 3.6-3.8 5.3-5.6 2-2.1 4.2-4 6.4-5.8 2.7-2.1 5.6-4 8.8-5.4.8-.3 1-.8.6-1.5s-1-.6-1.6-.3c-2.3 1.1-4.5 2.3-6.6 3.6-3 1.9-6 3.9-8.5 6.5-1 1-2.1 2-3.1 3-1.3 1.4-2.6 2.8-3.8 4.3-.8.9-1.3 1.9-2.1 2.8-.9 1.1-1.5 2.4-2.3 3.5-.9 1.2-1.5 2.6-2.4 3.9-.2.5-.1.9.3 1.1zm47.1 23.8c-.8-1.6-1.1-1.7-2.4-.9l-.6.3c-2.2 1-4.5 1.7-6.6 2.8-.6.3-1.4.4-1.9-.1-.6-.5-.9-1.2-.7-2.1.2-1 .6-1.8.9-2.7 1.8-4.7 5.2-7.9 9.3-10.7 2.1-1.4 4.4-2.5 6.8-3.2.5-.2 1.1-.5 1.6 0s.2 1 0 1.5c-.5 1.2-.9 2.6-1.4 3.8-.5 1.2-.5 2.7-1.5 3.8-.2.2 0 .5.2.5.3 0 .6.3 1.1.1-.5-.9 0-1.8.3-2.7.7-1.9 1.3-3.8 2-5.7.4-1 1.2-1.9 2.2-2.1 1.2-.3 2.5-.3 3.6.3 4.2 2 6.3 5.1 4.4 9.7-.9 2.2-1.7 4.4-3 6.4-.2.3-.2.5.1.7.2.2.5.1.6 0 .4-.4.7-.6 1-1.2.9-2 1.8-4 2.4-6.2 1-3.4.9-6.4-1.9-8.8-1.3-1.1-2.9-1.8-4.5-1.8-2 .1-4.1.2-6.1.7-2.1.5-4.2 1.1-6.2 2.2-3 1.6-5.7 3.6-8 6.2-1.5 1.7-2.7 3.6-3.5 5.7-.9 2.2-1.4 4.5-1.6 6.8-.2 1.9.1 3.7.6 5.5.5 1.7 2 2.8 3.6 3.5 1.3.5 2.6.6 4 .5 3.4-.1 6.5-1 9.5-2.5.8-.4 1.4-1.2 1.9-2-2.1 1.1-4.3 2.1-6.5 2.9-3 1.1-6 1.2-8.9-.4-.6-.3-1-.7-1.6-1-1-.4-.7-1.5-1-2.2-1-2.4.5-4.1 2.4-4.8 2.3-.8 4.4-1.9 6.5-3 .9-.4 1.7-1.2 2.9.2zm-20.9 19.6-2.9 2.9c-.9.9-1 1.9-.5 3 .5.9 1.3 1.5 2 2.3.3.3.5.3.6-.2.1-.6.2-1.2.8-1.7 1-.8 2.2-1 3.2-.4s1.6 1.6 1.4 2.9c-.1.6.4.9.7 1.1.3.3.5-.1.7-.3 2-2 4-4 6-5.9.5-.5.4-.8 0-1.2-.8-.7-1.5-1.4-2.2-2.2-.5-.5-.9-.7-1.6-.5-1.2.3-2.7-.7-3.1-1.9-.3-1.2.4-2.9 1.5-3.3 1.2-.4 2.3-.1 3.2.6.8.6 1 1.6.9 2.7-.1.4-.3.7 0 1 .8.8 1.6 1.7 2.4 2.5.5.5 1.3.1 1.3-.6s0-1.5-.5-2c-1.2-1.4-2.2-3-3.8-4-2-1.3-3-1.9-4.9.1-.7.7-1.3 1.4-2.1 2-1 1-2.1 2.3-3.1 3.1zm71.2 109c-2 2-2 2 0 4 .8.8 1.6 1.7 2 2.9.5 1.8 1.1 3.5 1.7 5.3.5 1.4.8 1.5 2 .7.5-.3.4-.6.2-.9-.3-.5-.1-.8.2-1.1 1.1-1.1 2.3-2.2 3.3-3.3.5-.5.8-1.4 1.7-.5.1.1.3-.1.5-.1.6-.2.8-.7 1.1-1.1.6-.8.5-1.2-.4-1.6-.8-.3-1.5-.5-2.3-.7-2.3-.8-4.6-1.3-6.3-3.3-1.7-2.3-1.8-2.2-3.7-.3zm53.5-80.8c-.2.3-.2.4-.1.5 1.1 2.3 2.1 4.7 2.1 7.3 0 .6.3 1.2.8 1.7 1.7 1.6 3.4 3.1 5 4.7 1.9 2 3.9 3.9 5.7 5.9.2.2.4.4.7.3.3-.1.2-.4.2-.6 0-1.6-.3-3.3-.1-4.9 0-.2-.1-.4-.2-.6-1.4-1.5-2.6-3.1-4.2-4.4-1-.9-1.9-2-2.9-2.9l-7-7zM338.2 256.7c-.7-.7-1.5-1.5-2.2-2.3-.5-.5-1-1-1.6-1.2-1-.4-2.2-1-3.2-.2-2 1.8-3.8 3.8-5.8 5.7-.4.4-.3.6.2.7.7.1 1.2.7 1.6 1.1l4.8 4.8c.2.2.4.5.7.6 1 .5 1.5 1.4 1.9 2.4.3.7.5.8 1 .2 1.7-1.7 3.2-3.6 5-5.3 1-.9 1.1-1.8.8-2.9-.1-.5-.4-.9-.7-1.2-.8-.7-1.7-1.6-2.5-2.4zm175 218.3c.3.2.5.7 1 .3.3-.3 1-.5.5-1.3-.3-.5-.2-1.1.3-1.5 1.2-1.1 2.3-2.3 3.5-3.5.4-.4.8-.6 1.2-.2.8.6 1.2.1 1.7-.4.2-.2.3-.6.5-.7 1-.5.3-.8-.1-1.1-1.1-.9-2.6-.9-3.9-1.3-1.8-.6-3.8-.6-5.1-2.4-.2-.3-.5-.6-.7-.9-.8-1.2-1.4-1.2-2.4-.3-.6.6-1.1 1.2-1.8 1.7s-.6.9-.1 1.4c.7.6 1.2 1.4 2.1 1.9.5.3.9.7 1.1 1.3.3 1.3.5 2.6.9 3.8.5 1.1.5 2.3 1.3 3.2zm-137.8-96.6c-1.2 1.2-2.4 2.5-3.7 3.7-.5.5-.6.8 0 1.3.7.6 1.3 1.2 1.9 1.9.6.7 1 .7 1.6 0 1.8-1.9 3.7-3.8 5.5-5.6.7-.7 1.6-1.1 2.1-2 .1-.3-.1-.7.3-.8 1.3-.3 1.9-1.5 2.8-2.3.4-.3.3-.6-.1-.9-.8-.7-1.5-1.5-2.3-2.2-.3-.4-.6-.3-.9 0l-4.8 4.5-2.4 2.4zm-55.3-94c-1.2 1.2-2.3 2.2-3.3 3.3-.4.5-.9.8-1.6.8-.2 0-.5 0-.4.3.2.6.7.9 1.1 1.3.4.3.6-.1.8-.3 1.6-1.6 3.2-3.1 4.7-4.7.4-.4.9-.7 1.3-1.2 1-1.2 2.3-2.2 3.4-3.3 3.1-3 6.2-6 9.1-9.2 1.4-1.5 2.8-3.1 4.4-4.4 1.4-1.2 2.4-2.7 3.8-3.9.4-.4.2-.9-.2-1.1-.3-.2-.7-.2-.9.3-.1.2-.2.4-.3.5-1.9 1.8-3.4 3.9-5.3 5.7-.8.8-1.6 1.6-2.5 2.4-1 .9-2 1.7-2.9 2.7-2.5 2.5-4.9 5.1-7.5 7.4-1.3 1-2.5 2.4-3.7 3.4zm126.7 244.3c.1-.6-.4-.8-.7-1.1-3.5-3.5-6.9-7-10.4-10.4-.4-.4-.7-.6-1.3-.7-1.3-.3-2.5-.7-3.8-1.2-.3-.1-.5-.5-.8-.2-.3.4.2.6.4.8l11.8 11.8c.2.2.4.5.8.5 1.4.1 2.7.3 4 .5zm10.9-156.9c.7.7 1.3 1.4 2 2 .9.9 1.8 1.1 2.6.4 1.3-1.1 2.5-2.3 3.8-3.4.2-.2.2-.4.1-.7-.7-1.3-1.8-1.8-3.2-2.2-2.5-.8-4.8-.4-7 .7-.7.3-.8.6-.2 1.2.6.7 1.2 1.4 1.9 2zm-163.9-54.5c1.1-.1 1.9-.7 2.5-1.3 4.6-4.6 9.1-9.2 13.7-13.7 1.6-1.6 3.2-3.1 4.7-4.7 2.7-2.8 5.8-5.2 8.4-8.1.4-.4 1-1 .5-1.4-.6-.5-.9.4-1.2.7-5.2 4.9-9.8 10.2-15.2 14.9-1.3 1.1-2.4 2.5-3.7 3.7-3.2 2.9-6.2 6.1-9.3 9.2 0 .1-.3.3-.4.7zm131.9 47.4 3-3c.4-.4 1.3-.8 1.1-1.4-.2-.6-1.1-.7-1.7-.9-2.3-.6-3.7 0-4.4 1.9-.6 1.4-1.1 2.8-1.5 4.3-.2.8-.7 1.5-.7 2.3 0 .2-.1.5.1.7.3.1.4-.1.6-.3 1.1-1.2 2.3-2.4 3.5-3.6zm-29.4-42.6c-1.8.7-3.6 1.3-5.2 2.3-1.9 1.2-3.8 2.5-5.7 3.8-1.6 1.2-3.3 2.3-4.7 3.7-3 2.9-5.9 5.8-8.3 9.1-1.9 2.6-3.8 5.1-5.1 8-.1.3-.5.6 0 .8.5.2.5-.4.6-.6 1.3-2 2.4-4.1 3.8-6 1.4-1.9 2.9-3.7 4.4-5.6 1.9-2.5 4.4-4.5 6.7-6.6 1.7-1.5 3.6-2.8 5.5-4.1 1.8-1.2 3.6-2.4 5.5-3.4.8-.3 1.8-.6 2.5-1.4zm125.6 126.4-2.9-2.9c-.5-.5-.8-.8-1.2.1-.3.6-.7 1-1.1 1.5-.3.3-.3.6 0 .9l3.3 3.3c.1.1.4.2.6.2 1.3.2 2.7.4 4 .6.2 0 .6.2.7-.1.1-.3-.2-.5-.3-.7-1.1-.9-2.1-1.9-3.1-2.9zm-253.4-91.9c-.3-.3-.5-.1-.8-.1-2-.1-2.5-.5-2.9-2.5-.2-1.2-.2-2.4-.8-3.6-.8-1.6-.9-3.3-.7-5 .1-.9.3-1.7.1-2.7-.5-2.6 0-4.4 3.1-4.3.7 0 1.1-.3 1.6-.8.1-.1.2-.3.1-.4-.1-.2-.3-.1-.5-.1-1.1.1-2.2.3-3.3.4-1.5.1-2.8 1.7-2.6 3.2.6 4.3 1.1 8.6 1.5 12.9.4 3 2.2 3.8 5.2 3zm52.7 37.3c.5 0 .6-.2.7-.4.8-1.4 1.5-2.7 2.4-4 1.6-2.4 3.5-4.7 5.4-6.9 2.6-2.9 5.4-5.6 8.5-7.9 3.4-2.4 6.7-4.9 10.6-6.7.3-.1.7-.3.5-.6-.2-.4-.6-.2-.9 0-.1 0-.2.1-.3.1-5.2 2.5-9.7 5.8-13.9 9.7-1.6 1.5-3 3.1-4.6 4.6-.9.9-1.7 1.9-2.5 2.9-1.3 1.7-2.5 3.4-3.6 5.2-.7 1.3-1.4 2.6-2.3 4zM452 517.2l2.9 2.9c.2.2.3.5.6.4.3-.2.2-.6.1-.8-.2-.8-.1-1.6-.1-2.3 0-.6-.2-1.1-.6-1.5-1.1-1.2-2.4-2.3-3.4-3.7-.3-.5-.7-.5-1.2-.1-.4.5-.8.9-1.5 1.2-.5.2-.2.6.1.9 1.1 1 2.1 2 3.1 3zM324.7 289.1c-2 1.8-4.1 3.6-6 5.5-3.1 3-6.1 6-9.1 9.1-2.2 2.2-4.4 4.5-6.7 6.6-2.4 2.1-4.6 4.5-6.9 6.7-.3.2-.5.5-.1 1.1 9.8-9.6 19.3-19.3 28.8-29zm89.1 87.9c-.1-.1-.1-.2-.2-.3-2.1 1.1-4.3 1.9-6.5 2.8-.8.4-1.5.9-2.2 1.4-.8.6-.5 3 .2 3.7.5.5.7.2 1.1-.1l6.4-6.4c.4-.3.8-.7 1.2-1.1zm-67.1-120.1c-.6.5-.6 1.4-.6 2.4 0 .2-.2.6.2.6s.3-.3.4-.6c0-2.1 2.1-3.2 3.7-2.8.8.2 1.7.2 2.6.2.8 0 1.7.1 2.6.2 1.6.2 3 1.2 4.7 1.1 1.9-.1 3 1.3 2.7 3.2v.8c0 .2.2.4.4.4.3 0 .2-.3.2-.5.1-.5.1-1 .2-1.5.6-2.4-1.1-3.7-3.1-3.7-3.5-.1-7-.7-10.5-.9-1.1-.1-2.3-.1-3.5 1.1zm-34.9 37.8 2.8-2.8c.3-.3.6-.6.2-.9-.9-.7-1.4-1.6-2.1-2.5-1-1.1-2.3-1.9-3.1-3.2-.1-.2-.3-.3-.5-.1-.2.2 0 .3.1.4.1.1.3.2.5.4.9 1.1 2.5 1.8 2 3.7-.1.3-.1.5-.1.8-.2 1-.5 2-.5 3.1 0 .6-.1.9-.5 1.3l-3.9 3.9c-.2.2-.5.4-.3.7.2.3.6.1.8-.1l.6-.6c1.2-1.3 2.6-2.7 4-4.1zm195.4 132.7c.5-.5 1.1-1 1.6-1.6.4-.5 1.4-.9 1.2-1.5-.2-.7-1.2-.3-1.8-.6-.1-.1-.3 0-.4 0-2.9.6-4.8 2.6-4.1 5.8.2.9.5 1 1.1.4.8-.8 1.6-1.7 2.4-2.5zm24.5 39.1c-.6-.1-.8.2-1 .5-1.8 1.8-3.6 3.7-5.5 5.5-3.6 3.5-7.1 7-10.7 10.4-2.5 2.4-4.8 5-7.3 7.5-1.7 1.7-3.5 3.4-5.3 5-.2.2-.6.4-.2.7.3.2.5-.1.7-.3 4.1-4.1 8.1-8.2 12.4-12.1 1.5-1.4 2.8-3 4.2-4.5 3.2-3.2 6.4-6.4 9.6-9.7 1-.9 2.1-2 3.1-3zm-59.5 58.8c.5.1.6-.2.8-.4 6.2-6 12.1-12.3 18.5-18.2 3.1-2.8 5.9-5.9 8.9-8.8.3-.3 1.1-.7.6-1.1-.4-.4-.8.4-1.1.7L473.4 524c-.3.3-.9.6-1.2 1.3zm-49.5-200.2c.4.3.7.7 1.1 1.1.1.1.3.4.5.2.3-.2.1-.4-.1-.6-.6-.7-1.3-1.3-2-1.9-.8-.7-.9-1.3-.3-2.1.3-.4.5-.8 0-1.4-2.5-2.6-5-5.1-7.4-7.7-.4-.4-.8-.6-1.2-.2-.6.5.1.8.3 1 2.3 2.3 4.7 4.6 7 6.9.6.6.9 1.3.6 2-.3.7 0 1.2.4 1.6.3.5.7.8 1.1 1.1zM323.3 408l-3-3c-.3-.3-.6-.5-1-.1-.3.3-.4.7-.1 1.1l.9.9c.8.7 1.7 1.3 2.3 2.1 1.2 1.7 2.8 2.9 4.2 4.4.2.3.6.4.9.6.3.1.6.2.8-.1.2-.3-.1-.5-.3-.7-1.7-1.8-3.1-3.9-4.7-5.2zm8.8 9.4.2-.2c-.8-.8-1.6-1.7-2.5-2.5-.4-.3-.8-.4-1.3-.2-.8.3-1.4.2-2-.5-2.1-2.4-4.7-4.3-6.6-6.9-.8-1.1-2.1-.8-3.1-1.7 0 .3 0 .4.1.5 2 2 4 4.2 6.1 6.1 1 .9 1.9 1.7 2.8 2.6.6.6 1.3.8 2 .6.7-.2 1.2 0 1.7.2 1.1.5 1.6 1.5 2.6 2zm60.1 41c0-.1.1-.1.1-.2-1.9-1.5-3.9-3-5.8-4.4-.9-.7-1.8-1.3-2.7-1.8-.2-.1-.8-.7-1 .1-.2.8.5 2.4 1.3 2.7 1.6.8 3.3 1.5 4.9 2.2 1 .5 2.1 1 3.2 1.4zm-96.4-149.1c-1.2 1.4-3.2 2.9-4.7 4.9-.2.2-.7.4-.3.7.4.3.6-.1.8-.4l11.8-11.8c.7-.7 1.6-1.1 2.2-1.8.2-.2.5-.5.2-.8-.3-.3-.5 0-.8.2-1.4 1.4-2.8 2.8-4.4 4.1-1.5 1.4-2.9 3-4.8 4.9zM420 374.5c.7-.3.9-1.1 1.1-1.8.3-.9.1-1.8-.8-2.4-.7-.5-1.5-.9-2.3-.4-1.2.6-2 1.6-2.5 2.9-.1.4-.2.7 0 1.2 1 1.7 3 2.1 4.5.5zm89.6 55.7 2.1-2.1c.6-.5.6-.9 0-1.4-.5-.6-.9-.4-1.3.1-1.4 1.4-2.9 2.8-4.3 4.2-.4.5-.6.8-.2 1.3.4.5.9.7 1.5.1.7-.8 1.5-1.5 2.2-2.2zm-113.9-27.3c-.8.8-.8 1.9 0 2.7.8.8 2.2.9 3 .1 1.2-1.3 1.1-2 .2-2.9-1.1-1.1-2-1-3.2.1zm20.9-85.5-3.6-3.6c-.3-.3-.6-.6-1-.1-.4.4-.2.8.2 1 1.5.9 2.4 2.5 3.6 3.7.4.4.9.7 1.3 1.2.7 1 1.7 1.8 2.6 2.7.2.2.3.2.5.1s.3-.3.3-.6c0-.4-.3-.7-.5-.9-1-1.2-2.2-2.3-3.4-3.5zm-5.5-7-1.2-1.2c-.4-.3-.8-.4-1.1 0-.4.4-1.3.8-.9 1.4.6 1 1.3 2 2.4 2.6.6.3.9.4 1.4-.1 1-1 1-1.1 0-2.1l-.6-.6zm-9.1 81c-.7.6-.8 2.3-.2 2.9.6.6 1.9.5 2.7-.2.9-.8 1-2 .2-2.7-.8-.7-2-.7-2.7 0zm-17.9-60.1c-4.1 2-15 15.3-15.2 18.4 4-7 9-13.1 15.2-18.4zm-65.8 70.8c-1.3-1.3-1.3-1.3-2.6 0l-.1.1c-.6.3-.4.7 0 1 .6.6 1.3 1 1.8 1.7.2.4.7.5 1-.1.1-.2.2-.4.4-.5.9-.5.8-1 .1-1.6l-.6-.6zm147.6 102.3 1-1c.5-.5.4-.8-.1-1.3-.5-.4-.9-1-1.5-.3-.6.6-1.1 1.3-1.8 1.8-.9.7-.5 1.1.1 1.7.6.6 1 .6 1.5-.1.2-.3.5-.5.8-.8zM461.8 384c.1.1.2.4.5.2.2-.1 0-.4 0-.6-.5-1.8-1.1-3.6-1.6-5.4-.1-.5-.3-.4-.6-.1-.5.5-.7 2.1-.1 3 .4 1 1.1 1.9 1.8 2.9zm45.4 76.2c-1.4 1.4-1.5 1.1-.5 2.1.5.5.8.7 1.3 0l.8-.8c.4-.3 1.1-.8.5-1.5-.9-1-1-1-1.8-.2-.1.2-.2.3-.3.4zm-79.1-81.6c-1.7 1.2-2.8.4-3.8-.7-.7-.8-1.5-1.5-2.2-2.3-.2-.2-.3-.5-.7-.4-.2 0-.3.2-.3.4 0 .3.3.4.5.5 1 .9 1.9 1.8 2.8 2.7.6.6 1 2 1.5 1.9.8 0 1.3-1.1 2-1.8 0 .2 0 .1.2-.3zm79.9 49.7 3-3c.2-.2.6-.5.3-.8-.3-.4-.5.1-.7.3l-6.1 6.1c-.2.2-.6.5-.3.7.3.3.6-.1.8-.3 1.1-1 2-2 3-3zm-195.5-31.1c-.1 0-.2.1-.4.1.5.5.6.9.2 1.3-.1.1 0 .3.1.5.7.7 1.4 1.5 2.2 2.2.3.3.7.2 1-.1.2-.2.4-.4.2-.7-1.2-1.2-2.3-2.2-3.3-3.3zm93.2-89.3 1.3 1.3c.3.3.6.3.9 0 .2-.3.3-.5.1-.8-.9-.9-1.7-1.8-2.8-2.5-.3-.2-.5-.1-.7.1-.2.3-.1.5.1.7.2.3.6.8 1.1 1.2zM517 471.3l-1.6 1.6c-.2.2-.3.5-.1.7.2.2.4.1.6-.1.9-.7 1.5-1.6 2.4-2.3.3-.2.7-.3.8-.7 0-.3.6-.6.2-.9-.3-.2-.6 0-.9.2-.4.6-.9 1-1.4 1.5zM316.2 266.8l.8-.8c.3-.3.5-.5.1-.9-.3-.3-.5-.4-.9-.2-.9.5-1.4 1.2-1.9 2-.2.4 0 .6.2.8.3.3.5.3.8 0 .2-.2.5-.6.9-.9zm9.4 19.9c-.1.4-1.2.6-.4 1.5.6.6 1.2.7 1.6.2.3-.5 1.4-.8.7-1.7-.7-.9-.9-.9-1.9 0zm-32.2 32c-.5.4-.8.8-.1 1.5 1.1 1.2 1.4-.2 1.9-.5.7-.4.1-1.2-.2-1.5-.7-.7-1.1 0-1.6.5zm181.9 41.1c-.1 0-.2 0-.2.1-1.1 1.5-1.5 3.4-2.7 4.7-.1.1-.1.5.1.6.3.2.5-.1.7-.3.7-1.1 1.4-2.3 2-3.4.1-.5.5-1.1.1-1.7zm-141.8-79.7c-2 1.5-3.7 3.3-5.5 5-.2.2-.3.4-.1.6.2.2.4 0 .6-.2l5-5c.1 0 .2-.1 0-.4zm-46.8 46.8 5.9-5.9-.3-.3c-1.8 2.1-4 3.8-5.6 6.2zm57.5-65.2.1-.1-6.2-6.2-.1.1 6.2 6.2zM389.6 420l-.6.6c-.1.1-.3.3-.2.5.1.1.3.1.5.1 1-.5 1.9-.9 2.8-1.4.2-.1.3-.3.1-.5-.1-.2-.3-.3-.4-.2-.7.4-1.7.1-2.2.9zm62.4 88.6c-1.6-1.2-2.9-2.8-5-3.6.9 1.3 4.1 3.6 5 3.6zm-64-102.7-1.2-1.2c-.2-.2-.4-.4-.6-.3-.3.2-.1.6 0 .7.8.9 1.6 1.8 2.7 2.4.2.1.3.1.4-.1.1-.2 0-.3-.1-.4-.4-.4-.8-.8-1.2-1.1zm.9-78.2c2.4-1.3 4.7-3 7.2-4.1-2.6.9-5 2.3-7.2 4.1zm-122.3 26.4c-.5.1-.4-1-.9-.7-.6.4 0 1 .1 1.4 0 .1.1.2.1.3.3.5.8.4 1.2.4.2 0 .4 0 .4-.2.1-.5-.4-.5-.6-.7 0-.1-.1-.2-.3-.5zm206.3 162 .2.2c1.3-1.2 2.7-2.3 3.6-4-1.2 1.3-2.5 2.5-3.8 3.8zm-46.5-132.3-.4.4c-.2.2-.5.4-.3.7.2.3.5 0 .7-.1.5-.1.9-.4 1.2-.7.3-.3 1.1-.4.9-.8-.2-.3-1.1-.3-1.7.1l-.4.4zM361 260.1l.6.6c.2.2.4.3.5 0 .3-.7-.1-1.2-.6-1.6-.4-.3-.8-.8-1.2-.3-.3.6.4.8.7 1.3 0-.1 0-.1 0 0zm-96.1 81.2c.2-.5.6-.9 1-1.3.1-.1.2-.3.2-.4-.1-.2-.3-.2-.5-.2-.9.1-1.3.8-1.4 1.6 0 .2-.2.5.2.6.2.1.3-.1.5-.3zm112.5 18.5.4.4c.2.2.4.5.7.2.3-.2.1-.5 0-.7-.2-.5-.6-.8-1-1.2-.2-.2-.5-.1-.7.1-.2.2-.2.4 0 .6.2.3.4.4.6.6zm28.5-28.1-.3-.3c-.2-.2-.5-.6-.8-.3-.4.4.1.6.3.9l.2.2c.4.3.8 1 1.2.5.4-.4-.4-.7-.6-1zm-8.8 75.3c.3.7.9.6 1.5.5.3 0 .8.1.7-.4-.1-.4-.4-.7-.8-.5-.5.1-1 0-1.4.4zm11.2-8.8.1-.1-2.8-2.8-.1.1c1 .9 1.9 1.8 2.8 2.8zM305.8 281.9l-.2.2 2.4 2.4.2-.2c-.8-.9-1.5-1.7-2.4-2.4zm26.5 122.6-.4-.4c-.2-.2-.5-.4-.7-.2-.3.2.1.5.2.7l.6.6c.2.2.4.6.7.3.3-.2-.1-.5-.3-.8.1 0 0-.1-.1-.2zm63.4 56.3c-.1.1-.1.2-.2.2l1.3 1.3c.2.2.3.3.5.1.2-.2 0-.4-.1-.5-.3-.5-1-.7-1.5-1.1zm-36.2-83.5c-.3-.1-.5-.7-.8-.3-.2.3.2.7.4 1 .2.3.6.2.7.1.3-.3-.1-.5-.3-.8zm115.9-13.7c.1-.6.7-1 .6-1.6 0-.2-.4-.1-.5.1-.1.6-.8.9-.5 1.6 0 .1.2.1.4-.1zm-161.7-74.9c.3.9.9 1.5 1.7 1.8-.3-.8-1.3-1-1.7-1.8zm89.5 16.7c.2-.4.1-.7-.1-.9-.2-.3-.4-.7-.9-.6-.1 0-.2.1-.2.2 0 .4.3.6.6.8.2.1.4.2.6.5zM468 529.5l1.5-1.5c-.8.2-1.3.7-1.5 1.5zm-160.5-247c.4.6.8 1.2 1.5 1.4-.3-.7-.7-1.2-1.5-1.4zm40.4-24.2c.6-.2 1.1-.3 1.6-.8-.8-.1-1.3.1-1.6.8z"/><path d="m465.1 534.5.2-.6c-.4.1-.9.2-1.3.2-.6 0-1.5 0-2.2-.7-.7-.8-.6-1.9-.5-2.2.2-1.7.4-3 .5-4.3.1-.9.4-1.7 1.1-2.3.9-.9 1.8-1.7 2.6-2.6l3.2-3.2c-.6-.7-.8-1.5-.9-2.2-.1-.2-.1-.4-.2-.6-.5-1.3-.9-2.7-1.2-4l-.1-.2c-.1-.3-.3-.6-.6-.9l-.1-.1-1.5-1.5c-.6-.7-1.3-1.3-1.9-2.1-.5.4-.9.8-1.4 1.2-.8.7-1.5 1.3-2.2 2 0 .1-.1.2-.1.2-.2.5-.8 1.6-2.2 1.6-1.3.1-1.9-.9-2.1-1.4-.2.1-.3.3-.5.4l.5.5.7.7c.5.5.9.9 1.4 1.3 1 .9 1.6 2.1 1.6 3.6s.1 2.8.3 4c.1.9-.2 1.7-1 2.5l-3.9 3.9-2.5 2.5c-.9.9-2 .8-2.5.7h-.2c-.8 0-1.5-.1-2.3-.3-.6-.1-1.1-.2-1.6-.2-1.4-.1-2.7-.7-3.8-1.9-3.8-4.1-7.9-8.1-11.8-12-3.3-3.3-6.7-6.7-9.9-10.1-2.6-2.8-5.4-5.5-8.1-8.2-3.3-3.2-6.6-6.6-9.8-10-1.5-1.6-3.1-3.2-4.7-4.8-1.8-1.8-3.7-3.7-5.5-5.7-2.9-3.2-6-6.3-9-9.3l-3.7-3.7-.5-.6c-1.3-1.3-2.6-2.6-3.6-4.2-.9-1.5-1.5-3.1-1.8-5.3-.3-1.7.1-3.3.6-4.7-.7-.3-1.5-.6-2.2-.9-1.3-.6-2.7-1.1-4.1-1.6-1.3-.5-2.6-1-3.9-1.6l-1-.4-.9-.3c-.8-.2-1.8-.5-2.7-1.3-.3-.3-.7-.6-1.2-.8-.7-.5-1.5-1-2.2-1.8-.2-.3-.5-.5-.8-.8l-.3-.3c-2.5-2.5-5-5.1-7.4-7.6-2.5-2.7-5.2-5.4-7.9-8-1.2-1.1-2.3-2.3-3.4-3.4-.4-.5-.9-.9-1.3-1.4-.2 0-.3.1-.5.1-.6 0-1.1-.2-1.6-.7l-.5-.5-.7-.7c-.7-.7-1-.7-1.4-.6-1.3.4-2.5 0-3.6-1.1l-.8-.9c-1.1-1.2-2.1-2.3-3.3-3.2-1.2-.9-2.1-2-3.1-3.1-.7-.8-1.4-1.6-2.2-2.3-.2-.2-.6-.5-.8-1-.1-.5-.4-1-.7-1.5-.3-.5-.6-1.1-.8-1.7 0-.1 0-.1-.1-.2l-1-1.1c-.5-.6-1.1-1.2-1.6-1.8-.4.1-.8.1-1.2 0-.6-.2-1.1-.5-1.3-1-.1 0-.1-.1-.2-.1-1.2-.8-1.4-1.9-1-2.7-2.4-2.4-4.8-4.7-7.1-7.1l-2.3-2.3-1.4-1.4c-.9-1-1.9-2-2.9-2.9-5.4-5-10.6-10.2-15.6-15.3l-7.5-7.5c-.4-.4-.7-.5-1.3-.4-2.2.4-3.9.2-5.1-.8-1.2-.9-1.8-2.5-1.9-4.7 0-1.2-.2-2.3-.3-3.5l-.1-.8c-.2-1.9-.4-3.7-.7-5.5 0-.2-.1-.5-.1-.7-.2-1.1-.4-2.3-.2-3.6.2-1.1.7-2 1.4-2.7l-3.8-3.8-1.3-1.3c-.3-.3-1.1-1.1-.8-2.5.3-1.5.5-3 .7-4.9.1-1 .5-1.8 1.2-2.4.9-.8 1.8-1.6 2.7-2.5l1.5-1.5c3.4-3.2 6.7-6.5 9.9-9.8l3.6-3.6 3.9-3.9c2.9-3 5.9-6 9-8.9 1.8-1.7 3.7-3.5 5.4-5.3 1.3-1.3 2.6-2.5 3.9-3.8.9-.9 1.9-1 2.7-1.1.2 0 .4-.1.6-.1.8-.2 1.6-.3 2.3-.5-1.1-2.6.3-4.4 1.8-5.8 2-1.8 3.9-3.6 5.5-5.6.4-.5.8-.9 1.3-1.3.1-.1.3-.2.4-.4-.2-1.5.9-2.4 1.4-2.8.1-.1.3-.3.4-.3.3-.3.5-.6.8-.8l.3-.3c.9-.9 1.7-1 2.3-.8.6-.5 1.1-1.1 1.7-1.6 1.5-1.4 3-2.8 4.4-4.3.7-.7 1.4-1.4 2.2-2.1 1.2-1.2 2.4-2.3 3.4-3.5.8-1 2-1.5 3.4-1.6 1.7-.1 3.4.5 4.6 1.5 2.2 2 4.4 4.1 6.4 6.2l.8.8c0-.4.1-.8.3-1.2.7-1.9 2.5-3.2 4.5-3.2 3.5 0 7 .4 10.3.7.9.1 1.9.2 2.8.3 1.2.1 2.4.7 3.2 1.7.9 1.1 1.3 2.5 1.1 4-.1.7-.2 1.5-.3 2.2 0 .2 0 .3.3.7l33.9 33.9 3.1 3.1.1.1c.4 0 1.1.1 2.2 1.2 1.1 1.1 1.3 1.8 1.3 2.3 0 .3.2.6.6 1.1l.1.1c.2.3.6.6 1 1 .1.1.2.2.4.3.8.1 1.4.5 1.9.8.2.2.5.3.6.4.5.2 1.1.4 1.7 1l4.3 4.3 6.1 6.1c1 1 1.2 2.4.5 3.6.5.5.9 1 1.3 1.5.3.4.5.7.8.9.6.6.8 1.3.6 2.1l.1.1.2.2 4.1 4.1c3.6 3.5 7.2 7.2 10.8 10.9.5.5 1 1.1 1.5 1.6 1.5 1.6 3.1 3.3 4.7 4.7 2.5 2.2 3.7 4.9 4.8 7.6l.3.7c1.1 2.7 2.4 5.8 3.5 9.2 2.8-1 5.5-.6 7.8-.1 1.1.3 2.1 1.1 2.6 2 0 0 .1 0 .1.1.7-.6 1.2-1.3 1.7-2.2 1.5-3.1 3.1-6.2 4.7-9.2l.5-.9c.7-1.9 2.4-1.5 2.7-1.4 1.3.4 1.9 1.5 1.6 2.8-.1.3-.1.6-.1 1 0 .6-.1 1.3-.3 2-.1.2 0 .4.5 1.1l.2.3c.6.9.5 1.7.4 2.2-.1.5-.5 1.2-1.5 1.8-.2.1-.5.3-.7.4-.9.5-1.7.9-2.3 1.5-1.2 1.3-2.5 2.5-4.2 3.7.5.5 1 1 1.5 1.6 1.7 1.7 3.5 3.5 5.3 5.2.5.4.9.9 1.3 1.3.3.3.5.6.8.8 4 3.9 7.9 7.9 11.9 11.8l7.7 7.7c2 2 4.1 4.1 6.2 6.1 4.5 4.4 9.1 8.9 13.4 13.5 3.3 3.4 6.7 6.9 10 10.2l7.6 7.6c.6.6.8 1.3.8 2v6c0 1.4-.7 2.2-1.3 2.6-1.5 1.1-2.8 2.5-4.2 4-.6.6-1.1 1.2-1.7 1.8-1.1 1.1-2.4 1.5-4 1.3l-.8-.1c-1.3-.2-2.6-.5-3.8-.5-1 0-1.9-.5-2.6-1.3-.5-.5-1-1.1-1.6-1.6.4 1.2 0 2-1.4 3.4l-.6.6c-1.2 1.2-2.3 2.3-3.5 3.4.1.1.3.2.4.2.5.2 1 .5 1.5 1 .3.2.6.4.8.7 1.3 1.8 3.2 2.4 5.9 3.1.2 0 .3.1.5.1.8.2 1.8.4 2.7 1 .5-.5 1-1 1.5-1.4.9-.9 1.8-1.7 2.4-2.7.7-1 1.8-1 2.2-1h.1c.5-.1 1.1-.1 1.6-.2.9-.1 1.8-.2 2.6-.4.7-.2 1.4 0 1.9.5.7.6 1 1.5.8 2.6-.2 1.9-1.1 3.4-1.8 4.6-.9 1.5-2 2.6-3.2 3.6l-1.2 1.2c-4.8 4.9-9.6 9.7-13.7 13.8-2.8 2.8-5.6 5.6-8.5 8.4-2.1 2.1-4.2 4.2-6.4 6.3-3 2.9-5.9 5.9-8.9 8.8-4 4-8.1 8-12.2 12.1-1 .9-1.9 1.9-2.9 2.8-.8.8-1.6 1.5-2.5 2.3-1.4 1.4-2.9 2.8-4.3 4.3l-1.2 1.2c-1.2 1.2-2.5 2.1-3.8 2.5l-1 .7zm32.1-39.2-.9.9-7.5 7.5c-7.3 7.3-14.9 14.9-22.4 22.3-.8.8-1 1.6-1.2 2.7.2-.1.5-.3.6-.5l3.2-3.2c.6-.6 1.3-1.2 1.9-1.8.9-.8 1.7-1.6 2.5-2.4l.4-.4c3.6-3.7 7.3-7.5 11-11.1 2.2-2.1 4.4-4.3 6.5-6.4 3.4-3.5 7-7.1 10.8-10.5.9-.8 1.8-1.7 2.7-2.7l1.3-1.3 15.1-15.1 2.2-2.2c1.7-1.8 3.6-3.6 5.4-5.3.9-.8 1.6-1.7 2.1-2.7-.5 0-.9.1-1.3.2-.2 0-.3.1-.5.1-.6.9-1.3 1.5-2 2.1-.3.3-.7.5-.9.8l-23.4 23.4-5.6 5.6zm-56.5 23.9 1.3 1.3c1 1 2.1 2.1 3.1 3.2 1.1 1.3 2 2.3 2.9 3.1l.1.1.2.2.2-.2 1.4-1.4 3.6-3.6c-1.1-1-2.1-2-3-3.1-.9-.9-1.8-1.9-2.8-2.8l-.1-.1c-.9.6-1.9 1.1-3 1.4-1.6.5-3.2.8-5 1 .1.1.2.2.3.2l.8.7zm10-5.4 1.3 1.3 1.7 1.7.3.3c0-.1 0-.1-.2-.3l-.8-.8c-.7-.7-1.5-1.5-2.2-2.3 0 .1 0 .1-.1.1zm15.9-7.1c.2.3.6.6.9.9 1 1 1.9 2 2.4 3.5.3 1.2.8 2.5 1.2 3.7.1-.2.3-.3.4-.5l.4-.3c1-1 2-1.9 2.9-2.9l.2-.2c.3-.4.8-1.1 1.8-1.1h.1c-.3-.1-.5-.2-.8-.2l-.7-.2c-2.1-.7-4.4-1.4-6.2-3.6-.1-.2-.4-.5-.7-.8-.3.2-.6.6-.9.9-.4.2-.8.6-1 .8zm-66.5-23.8 1.1 1.1c4.7 4.7 9.6 9.6 14.3 14.5 2.9 3 5.9 6 8.8 8.9l2.1 2.1c.3.3.5.6.7.9.1.2.2.4.3.4 1.4 1 2.6 1.7 3.8 2.3 4.2 2 8.4 2.1 12.8.5l-7.9-11 10.5 9.7c1-.6 1.9-1.4 2.9-2.2-.3-.3-.6-.5-.9-.8-.6-.6-1.3-1.1-1.9-1.5-.9-.5-1.5-1.3-1.7-2.2-.1-.3-.1-.6-.1-.9L443 502l.2.1-.6-.6c-.3-.3-.6-.7-1-.9-1.6-1.1-3.1-2.3-4.6-3.5-.7-.6-1.4-1.2-2.2-1.7-1.1-.8-2.1-1.8-3.1-2.6-.8-.7-1.5-1.3-2.3-1.9l-3-2.4c-1.4-1.1-2.8-2.2-4.1-3.3-1-.8-1.9-1.6-2.9-2.4-1.2-.9-2.3-1.9-3.4-2.8-1-.9-2.1-1.7-3.2-2.6-1.2-1-2.5-2-3.8-3.1-.6.6-1.1 1.2-1.7 1.7-2.2 2.2-4.6 4.7-7.2 6.9zm2.2-19.7c.1.1.2.2.4.3l.3.2c2.4 2.2 5.1 4.6 8.3 7.4 1.8 1.5 3.6 3 5.4 4.4.7.5 1.3 1.1 2 1.6l3.9 3.3c1.1 1 2.3 1.9 3.4 2.8.9.8 1.9 1.6 2.8 2.4 1 .8 2 1.7 3 2.5 1.7 1.4 3.4 2.7 5.1 4.1 1.6 1.3 3.3 2.6 4.9 3.9 1.7 1.4 3.4 2.8 5.1 4.3l8.7 7.3c.1.1.3.2.4.3l.4-.4 3.1-3.1c1.1-1.1 2.1-2.2 3.2-3.3l4-4 .6-.6c1.5-1.5 3.1-3 4.6-4.6l1.9-1.9 2.7-2.7 1.5-1.5c1-1 2-2.1 3.1-3.1l1.8-1.8c.8-.9 1.6-1.8 2.7-2.6.5-.4 1-.9 1.4-1.4.3-.3.5-.6.8-.9l11.9-11.9 2.1-2.1c2.5-2.5 5.1-5.1 7.8-7.7.1-.1.2-.2.2-.3.2-.3.5-.7 1.1-1.1.5-.3.9-.7 1.4-1.2.2-.2.4-.4.5-.6-.3-.4-.7-.9-1.1-1.3-.2-.3-.5-.6-.7-.9-.7-.9-1.4-1.7-2.1-2.6-.7-.8-1.4-1.7-2.1-2.5-.7-.8-1.3-1.6-2-2.4-.9-1.1-1.7-2.2-2.6-3.2-.4-.5-.9-1-1.3-1.5-.8-.9-1.6-1.7-2.3-2.7-.9-1.2-1.9-2.4-2.8-3.6-.6-.7-1.1-1.4-1.7-2.1-.5-.6-1-1.2-1.5-1.7-.7-.8-1.4-1.6-2-2.4-.9-1.2-1.9-2.4-2.8-3.5-.4-.5-.9-1.1-1.3-1.6-.9-1.2-2-2.4-3-3.5-.7-.9-1.5-1.7-2.2-2.6-.8-1-1.6-2-2.5-3-1.4-1.7-2.8-3.5-4.3-5.1-2.4-2.6-4.3-4.9-6-7.1-2.9 2.9-5.8 5.9-8.9 8.7-.9.8-1.8 1.8-2.7 2.7-.7.8-1.5 1.6-2.3 2.4-2.1 2.1-4.3 4.2-6.4 6.3l-3.1 3c-2.4 2.4-4.8 4.7-7.2 7-4.2 4.1-8.5 8.3-12.7 12.5l-.7.7-1.5 1.5c-.5.5-1 1-1.5 1.4-.2.2-.4.3-.5.5-.4.3-.8.7-1.2 1-.6.5-1.2 1-1.7 1.5-1.8 1.8-3.7 3.6-5.5 5.4-2.8 2.8-5.6 5.6-8.6 8.3l-.4.5-1.1 1.1c.2.5 0 .6-.2.8zm66.3 37.5c.8.2 1.3.7 1.6 1l.1.1c.2.2.3.3.5.4.4.4.9.8 1.3 1.4.8 1 1.8 1.5 3.5 2 1.3.3 2.9.7 4.3 1.5l2.6-2.6-.7 1.3c.7-.8 1.4-1.5 2.1-2.3.8-.8 1.7-1.6 2.5-2.4l.8-.7c.6-.5 1.1-1.2 1.7-1.8.5-.5.9-1.1 1.4-1.6.4-.4.9-.8 1.4-1.2.6-.5 1.3-1 1.6-1.6 1.2-1.7 2.7-3 4.1-4.3.5-.4.9-.8 1.3-1.2 1.4-1.3 2.9-2.8 4.3-4.4.8-.8 1.5-1.6 2.3-2.4l2.2-2.2c.6-.6 1.2-1.1 1.8-1.6.7-.6 1.4-1.1 1.8-1.7-.7-.9-.9-2-1-2.8 0-.2-.1-.4-.1-.6-.5-2.5-1.2-5-3.5-6.6-.8-.5-1.2-1.3-1.3-2.2-.1.1-.2.1-.2.1l-.5.5c-.1.1-.2.3-.3.4-.7.8-1.5 1.5-2.3 2.1-.6.5-1.2.9-1.6 1.4-1.8 1.9-3.6 3.8-5.6 5.7-1 .9-1.9 1.9-2.9 2.8-1.8 1.8-3.6 3.6-5.6 5.3-.4.3-.7.8-1.1 1.2-.4.4-.7.9-1.2 1.4-1.8 1.7-3.6 3.5-5.3 5.3l-1 1-2.9 2.9c-1.9 2.2-4 4.3-6.1 6.4zm-75.9-25.5 1.5 1.5 3.5 3.5c.7-1 1.6-1.8 2.5-2.6.3-.3.7-.6 1-.9l1.6-1.6c1.2-1.1 2.4-2.3 3.6-3.5-.1-.1-.3-.2-.4-.3-.4-.3-1-.7-1.4-1.2-1-1.2-2.1-2.1-3.4-3.1-.9-.7-1.8-1.5-2.6-2.3-.3.3-.6.6-1 .8-.4.8-1.3 1.3-2.2 1.3-.9 0-1.5-.6-1.8-1.4 0 0-.2-.1-.3-.2-.1-.1-.2-.1-.3-.2l-5.3 5.3 3.5 3.5 1.5 1.4zm116.8-11 .2.2c.4.4.7.8 1.1 1 .9.5 1.6 1.3 1.8 2.3.1.4.2.7.2 1.1.2.9.4 1.8.7 2.6 0 .1.1.3.1.4.1-.1.2-.2.3-.4 1.1-1 2.2-2.1 3.4-3.4.6-.6 1.2-.9 1.9-.9-.1 0-.2 0-.3-.1-.5-.1-1-.2-1.5-.4l-1.2-.3c-1.5-.4-3.4-.8-4.6-2.7l-.3-.3c-.2-.2-.3-.4-.4-.5l-.1-.1-.5.5c-.2.3-.5.7-.8 1zm-133.9-12.5c-.3.8-.5 1.6-.4 2.5.2 2.4 1 4.1 2.4 5.5l.4.3c.5.5 1 .9 1.5 1.5 1.1 1.4 2.4 2.7 3.8 4 .7.7 1.4 1.3 2.1 2.1l1.7-1.7.9-.9.6-.6.7-.7c-.4-.3-.7-.7-.9-1.5v-.8l-.2-.1c-2-.9-4-1.8-6.1-2.6-1.9-.7-3.1-2-3.5-3.8-.8-1.1-1.7-2-2.8-3-.1-.1-.1-.2-.2-.2zm19 10.6c.1.1.2.3.3.4 0 0 .1 0 .1.1h.1l-.5-.5zm116.6.2zm-117.5-1c.2.1.3.1.4.2l-.5-.5v.1c0 .1 0 .1.1.2zm-8.2-10.8c.4.3.9.6 1.3.9.5.3.9.7 1.4 1 1.2.9 2.4 1.8 3.6 2.6.6.5 1.2.9 1.8 1.4.8.6 1.6 1.3 2.5 1.9.4.3.8.5 1.2.8.8.5 1.6 1.1 2.3 1.7 2-1.9 3.9-3.9 5.8-5.8 3.3-3.4 6.8-6.9 10.3-10.1 2.3-2.1 4.5-4.3 6.6-6.5 2.4-2.5 4.9-5 7.5-7.3 1-.9 1.9-1.8 2.9-2.9.7-.7 1.4-1.5 2.2-2.2 2-2 4.1-4 6-6 2.7-2.8 5.6-5.6 8.5-8.3 1.8-1.7 3.6-3.5 5.3-5.2.8-.8 1.6-1.6 2.3-2.4.4-.4.8-.7 1.2-1.1.5-.4 1-.8 1.3-1.2 1.2-1.3 2.4-2.5 3.6-3.7l.9-.8c.8-.8 1.6-1.6 2.5-2.4-1-1.5-2-3-3-4.4l-.4-.6-3-4.5c-1.2-1.8-2.4-3.7-3.6-5.4-3 3.1-6.1 6.3-9.2 9.3-2.2 2.2-4.3 4.4-6.5 6.5l-2.5 2.6c-6.2 6.3-12.6 12.9-19.3 19-2.4 2.2-4.7 4.6-7 6.9-2.7 2.8-5.5 5.6-8.4 8.2-2.1 1.8-4.1 3.8-6 5.7-.7.6-1.3 1.3-2 1.9-1.3 1.3-2.6 2.6-3.9 3.8l-2.9 2.9c-.9 1.3-2.1 2.5-3.3 3.7zm8.3 9.8c0 .1-.1.1-.1.2l.1-.2c0 .1 0 0 0 0zm119.3-.7zM377.9 449c.9.9 1.8 1.9 2.7 2.8.1-1 .6-1.9 1.4-2.7l1.6-1.6c1.7-1.7 3.4-3.4 5.2-5 .9-.8 1.7-1.7 2.6-2.7.5-.6 1.1-1.2 1.7-1.8.9-.9 1.8-1.7 2.6-2.5s1.6-1.5 2.4-2.3c2.4-2.4 4.8-4.8 7.2-7.1l8.9-8.9c.9-.9 1.8-1.8 2.7-2.6 1.4-1.3 2.7-2.6 4-4 .5-.6 1.1-1.1 1.7-1.6.4-.3.7-.6 1.1-1 4-4 8-7.9 11.9-11.9l8-8 12.3-12.3c.5-.5 1.1-.9 1.9-1.1l-.2-.2c-2.3-2.3-4.5-4.6-6.8-6.8l-2.5-2.5c-.1-.1-.2-.2-.4-.3l-.1.1c1.8 1.7 3.5 3.5 5.3 5.2l1.3 1.3c.9.9 1 1.7.9 2.3-.1.5-.4 1.3-1.4 1.9-.2.1-.4.3-.7.6l-6.3 6.3c-3.5 3.5-7.1 7-10.5 10.7-2.7 2.9-6.3 6.6-10.2 10-1.3 1.1-2.4 2.3-3.6 3.6-.6.6-1.1 1.2-1.7 1.7L404 425.2c-.2.2-.5.5-.9.7-.7.4-1.4 1.1-2.1 1.7-.4.4-.9.9-1.4 1.3-1.1.9-2.1 2-3.2 3.1l-2.1 2.1-3.3 3.3c-2.1 2.1-4.2 4.2-6.5 6.2-1.1 1-2.1 2-3.1 3-.4.5-.9.9-1.4 1.4-.5.9-1.3 1.1-2.1 1zm142.9 1.3c.3 0 .5.1.8.1l-1.6-1.6-1.5-1.5c-.1.1-.2.3-.3.4l.2.2c.9.8 1.6 1.6 2.4 2.4zm-.3-6.2c.8.7 1.5 1.4 2.2 2.2l.9.9.9.9 2.2 2.2c.2-.1.3-.2.4-.3 1.2-1.2 2.4-2.4 3.6-3.5l1.2-1.2-1.4-1.4-5.7-5.7c-.5-.5-1-1-1.6-1.5-.1.5-.2 1.1-.3 1.5-.5 1.9-1.1 4-2.4 5.9zm-10.8-3.6c.6 0 1.1.3 1.7.9l.1.1c.9.7 1.6 1.7 2.3 2.6l.2.3.4.4.6.6c.3-.3.5-.6.8-.9.2-.3.5-.6.7-.8 1-1.2 1.8-2.7 2.4-4.5.9-2.7 1.2-4.9 1-7-.2-2.6-.7-4.4-1.5-6-1.4-2.6-3.4-4.8-5.9-7.5-3.4-3.6-7-7.2-10.5-10.6-1.5-1.4-2.9-2.9-4.4-4.3-1.4-1.4-2.7-2.8-3.8-4.1-1.2-1.3-2.6-2.8-4.2-4.1l-.2-.2-.1.1c-.5.5-1 1-1.5 1.6-1.2 1.2-2.4 2.5-3.8 3.6-1 .9-2 1.8-3 2.8-.5.5-1.1 1.1-1.7 1.6l.4.5c.6.7 1.1 1.4 1.7 2.1l1.5 1.8 1.8 2.1 4.5 5.4 1.8 2.2c.8 1 1.6 1.9 2.4 2.9.3.4.7.9 1 1.3.7.9 1.3 1.8 2.1 2.5l1.5-1.5 1.9-1.9c1.3-1.3 3-1.4 4.5-.5.1.1.3.2.4.3 1-.7 2-.7 2.8-.7h.4c.8 0 1.6.2 2.2.4.4.1.7.2 1 .2.9.1 1.5.4 1.9.9.3.4.5 1.1.2 2.1v.2s0 .1.1.1c2.1 2.1 1.5 3.5-.1 5.1l-1.1 1c-.9.8-1.7 1.7-2.5 2.6-.9 1-2.1 1.2-3.3.7l-.2-.1c-.5-.2-1.1-.4-1.6-.9-1 .2-1.6-.2-1.9-.4-.3-.3-.9-.9-.8-2.2 0-.2 0-.5-.1-.9-.2-.8-.4-1.7-.3-2.6-.6.6-1.3 1.2-2 1.8.6.8 1.2 1.5 1.8 2.3l1.2 1.5.6.7c.8 1 1.6 1.9 2.4 2.9.5.6 1 1.2 1.4 1.7.3.4.6.7.9 1.1.3.4.6.7.9 1.1.1 0 .2-.1.3-.1.2-.3.4-.3.7-.3zm10.6 3.5zm-146.8-6 1.5 1.5 1.9 1.9.6.6c.3.3.6.6.9.8.7-.7 1.4-1.3 2.1-2 .5-.4 1-.9 1.5-1.3 1.7-1.6 3.4-3.3 5-4.9 2.2-2.2 4.5-4.5 6.8-6.6.8-.7 1.5-1.4 2.2-2.2.6-.7 1.3-1.4 2-2 2.5-2.4 4.7-4.6 6.7-6.7-.6.2-1.1.5-1.7.7-1.1.5-2.3 1-3.6 1.4-3 .9-5.8 2.3-8.4 3.7l-.1.1c-.5.3-1.3.7-2.4.5-.9 1-1.9 1.8-2.9 2.7-1.2 1-2.3 2-3.3 3.1-1.2 1.3-2.4 2.6-3.7 3.9l-2.1 2.1c-1 .8-2 1.8-3 2.7zm-60.9-46.3c1.9 1.8 3.7 3.7 5.5 5.5l1.3 1.3c1.8 1.8 3.6 3.7 5.4 5.5 1 1 1.9 2 2.9 3 4.1 4.2 8.3 8.4 12.3 12.4l8.5 8.5.4.4c1.5 1.5 3 3 4.5 4.6 1.9 1.9 3.6 3.7 5.4 5.3.7.6 1.4 1.1 2.1 1.5.6.3 1.3.6 2 .8l1.5.6c.3.1.6.3.9.4-.4-.5-.7-1-.7-1.7.1-.9.7-1.4 1.4-2l.1-.1c.1-.1.1-.2.2-.2 1.8-1.7 3.6-3.5 5.3-5.2 2.2-2.2 4.4-4.4 6.7-6.5 3-2.7 5.8-5.6 8.6-8.5 1.2-1.2 2.4-2.5 3.7-3.7-.2-.7-.3-1.9 1.3-3 .8-.6 1.5-.5 2-.4.1 0 .2.1.2.1l.7-.7.8-.8c-.5-.4-1-.9-1.3-1.4-.1-.2-.3-.3-.4-.5l-1.2-1.2c-.9-.8-1.8-1.6-2.5-2.8-.9.2-1.9-.1-2.7-.7.2.4.5.8.9 1.1.7.5 1.3 1.1 1.8 1.7.2.2.4.5.7.7.2.2.9.9.8 1.8 0 .4-.2 1-.8 1.5l-.1.1c-1.4 1.2-2.6.7-3.2.1-.2-.2-.4-.4-.6-.5-.3-.3-.7-.5-1-.9l-.3-.3-.3.3-.3.3-.2.1c-1.3 1.3-2.7 2.6-4.1 3.8l-4.5 4.2c-1.7 1.7-3.4 3.3-5.1 4.9-2.7 2.6-5.6 5.4-8.3 8.1l-.4.4c-.3.3-.5.6-.8.8l.5.5 1.6 1.6c.9.9.9 2.1 0 3-.7.8-1.5.9-2 .9-.9 0-1.8-.5-2.7-1.5-.7-.8-1.5-1.6-2.2-2.4l-.5-.5c-1.4-.3-2.4-1.2-3.2-2l-3.3-3.3-3.9-3.9c-2.3-2.3-4.8-4.7-7-7.3-.1-.1-.2-.2-.4-.3-.4-.3-1-.7-1.4-1.4-.3-.5-.8-1-1.4-1.5l-.9-.9-.8-.8c-.8-.7-1.7-1.5-2.2-2.7-.6-1.3-1.4-2.2-2-2.5-1.5-.5-2.4-1.5-3.2-2.3l-.8-.8c-.9-.8-1.6-1.6-2.3-2.5-.7-.8-1.3-1.5-2-2.1-.5-.4-.8-1-.9-1.6-.1 0-.2-.1-.2-.1-.8-.3-1.1-.8-1.3-1.2h-.5l.4-.6c-.1-.9.3-1.6.6-2.1 1.4-2.7 3.2-5.4 5.3-8.4 1.2-1.7 2.5-3.1 3.8-4.5.4-.4.7-.8 1.1-1.2-.7-.6-1.3-1.3-2-2-3.2 3.2-6.4 6.5-9.6 9.7l-1.2 1.2c-.4.4-.8.8-1.1 1.2-1.2 1.5-2.3 2.6-3.4 3.6zm210.6 37.6c.2.8.2 1.6.2 2.4 0 .1 0 .3.3.6.5.5 1.1 1 1.6 1.5 1.1 1 2.3 2.1 3.4 3.2.8.8 1.5 1.6 2.3 2.3l1.6 1.6c0-.7-.1-1.3 0-2.1-.3-.3-.6-.6-.9-1-1-1.1-1.9-2.1-2.9-3.1-.8-.7-1.5-1.5-2.2-2.2l-.8-.8c-.8-.7-1.7-1.6-2.6-2.4zm-162.4-48.9c-.1.3-.3.6-.6.9l-3 3c-1.3 1.3-2.6 2.6-4 3.9-.6.6-1.3 1.2-1.9 1.9-.9 1-1.9 1.9-3 2.9-2.4 2.1-4.6 4.4-6.7 6.6-.8.9-1.7 1.7-2.5 2.5-1.5 1.4-2.8 2.7-4 4.2-.4.5-.3.6-.1.8 1.9 1.7 3.6 3.5 5.3 5.3 1.3 1.3 2.6 2.7 3.9 3.9 2.5 2.4 5.1 5 7.6 7.8.8.9 1.6 1.7 2.5 2.6l1.5 1.5c.4.4.9.8 1.5.8.4 0 .8-.2 1.2-.7 1.5-1.5 3-3 4.6-4.4 1.2-1.1 2.4-2.3 3.6-3.4l1.2-1.2c1.5-1.5 3.1-3.1 4.7-4.5 1.1-1 2.2-2 3.3-3.2 1.1-1.1 2.2-2.2 3.4-3.3 1-.8 1.8-1.7 2.8-2.7l1.4-1.4c.3-.3.3-1 .1-1.2l-.1-.1c-.2-.2-.5-.4-.7-.8-.5-1.1-1.5-2.1-2.5-3-.5-.5-1-.9-1.4-1.4-.3-.3-.7-.7-1.1-1-.5-.5-1.1-1-1.6-1.6-.4-.6-1-1.1-1.5-1.6-.6-.5-1.1-1.1-1.7-1.7-1-1.2-2.1-2.3-3.3-3.4l-1.5-1.5-5.5-5.5c-.9-1.3-1.2-1.3-1.9-1zM507 425.5c-.9.4-1.6.9-1.9 1.9l.3-.3.8-.8.5-.5c0-.1.2-.2.3-.3zm-100.2-20.2c-.5.5-1 .9-1.5 1.3-.7.6-1.3 1.1-1.8 1.7-.8 1-1.9 2.2-3.1 3.2-1.4 1.3-2.9 2.7-4.2 4.1.6-.2 1.2-.4 1.8-.7l2.8-1c1-.4 1.9-.7 2.9-1 1.2-.4 2.4.1 2.9 1.2.1.2.2.5.2.7 1-1 2-2 3.1-2.9.2-.2.4-.5.6-.7.3-.4.6-.8 1-1.1-1.6-1.7-3.2-3.3-4.7-4.8zm-13.3 5.8zm16.8-10.6s.1 0 .1.1c1.8 1.8 3.6 3.5 5.3 5.3 1.2-1.2 2.4-2.3 3.6-3.5 1.8-1.8 3.7-3.7 5.6-5.4 2-1.9 4.1-4 6.1-6.2.9-1 2-2 3-3 .4-.3.7-.7 1.1-1 2.2-2.1 4.4-4.3 6.6-6.5l.6-.6c-1.1.5-2.3 1-3.5 1.4-1.5.6-3.1 1.3-4.6 1.9-2.1.9-4 1.9-5.7 2.9l-.2.1c-.7.5-1.8 1.1-3.2.9-.1.1-.2.2-.4.3-.3.3-.6.5-.9.8l-7.9 7.9-3.1 3.1c-.8.9-1.5 1.1-2.4.8l-.4-.1.3.8zm-12.9 3s-.2 0-.6.4c-.1.1-.2.2-.2.3 0 .1.1.2.2.3.1.1.3.2.5.2.1 0 .3 0 .3-.1.3-.3.4-.5.5-.6l-.2-.2c-.4-.2-.5-.3-.5-.3zm-79.4.5zm79.3-4.2c.7 0 1.3.2 1.9.5 1.2.6 1.9 1.7 2.1 2.9l.2-.2c1.4-1.4 2.8-2.8 4.3-4.2L404 397l-.1-.1h-.1c-1.9.5-4.1-.9-4.8-2.8-.5.4-1 .9-1.4 1.4-.4.5-.9.9-1.3 1.3l-2.9 2.9c-.4.4-.5.8-.2 1.3.1.2.3.4.5.6.2-.3.4-.5.7-.7.9-.7 1.9-1.1 2.9-1.1zm73.1-5.3c.2.3.4.6.6.8.8 1.1 1.7 2.2 2.8 3.5.4.4.7.9 1.1 1.3.7.8 1.3 1.6 2 2.3.3-.3.6-.5.9-.8.3-.2.5-.4.7-.5l3-3 1.2-1.2c.4-.4.8-.8 1.2-1.3l2.9-2.9c-1.5-1.5-3.1-3-4.6-4.6l-3.7-3.7c-.6-.6-1.3-1.2-1.9-1.8-.1-.1-.2-.2-.3-.2-.1.1-.2.2-.4.3-.3.2-.5.3-.6.5-1.2 1.3-2.5 2.5-3.7 3.8l-1.4 1.4-.2.2c.1 0 .2.1.3.2.1 0 .1 0 .2.1.1 0 .2.1.3.1h.1c1.6.5 1.7 1.7 1.6 2.3-.1.6-.4 1.1-.9 1.5-.1.1-.3.2-.4.2 0 .5-.2 1-.8 1.5.1-.1.1 0 0 0zm-143.7 4c.6.8 1.4 1.5 2.2 2.3.4.4.8.7 1.1 1.1 1.1-1.9 2.3-3.8 3.8-6 1.8-2.6 3.7-5.2 6-7.5 2.4-2.4 4.5-4.3 6.5-6 1.4-1.1 3-2.3 4.8-3.6 1.1-.8 2.2-1.4 3.3-2 .6-.3 1.2-.7 1.8-1 .2-.1.3-.2.4-.3 0-.1-.1-.2-.2-.3-.3-.4-.7-.7-1.1-1.1l-.9-.9-.6-.6c-.3.2-.5.3-.7.4l-.8.4c-1 .5-2 1-2.9 1.5-1.6 1-3.1 2-4.9 3.3-2.9 2.2-5.6 4.7-8 6.9-1 1-1.9 2.1-2.9 3.3-.3.4-.7.8-1 1.2-.9 1.1-1.8 2.2-2.5 3.2-.5.7-.9 1.4-1.4 2.2-.4 1.3-1 2.4-2 3.5zm15-6.6-.5.5c-.2.2-.4.4-.6.7-.8 1-1.7 2.1-2.4 3.2l-.7.9c-1 1.4-2.1 2.8-3 4.3l2-2c2.4-2.4 5-5 7.6-7.4 2.2-2 4.4-4.3 6.5-6.4 1.8-1.9 3.7-3.8 5.6-5.7-.5.3-.9.5-1.4.8-.3.2-.6.4-1 .6-1 .6-2 1.3-3 2.1-.4.3-.9.6-1.3 1-1 .7-1.8 1.5-2.8 2.3-.7.7-1.5 1.3-2.3 2-.6.5-1.1 1.1-1.7 1.9-.3.4-.6.8-1 1.2zm67.7 8.7h.9-.9zm-28.1-9.7 6.1 6.1c.7.7 1.4 1.5 2.2 2.2.4-1 1-2 2-2.7.6-.4 1.1-.9 1.7-1.5l.2-.2 3.3-3.3 2.8-2.8c.5-.5 1.2-.9 1.8-1.2-.2-.1-.4-.3-.5-.4-.1-.1-.3-.2-.4-.3 0 .6-.4 1.2-.9 1.8l-.4.4c-.3.3-.6.5-.8.8-.5.5-.9 1-1.4 1.4l-.1.2-3 3-1.6 1.6c-.3.3-.9.9-1.8.9-.5 0-1-.3-1.4-.7-.1-.1-.3-.3-.5-.4-.3-.2-.7-.5-1-1-.7-.9-1.6-1.7-2.7-2.1-1-.5-2.1-.9-3.2-1.3l-.4-.5zm-54.6 1.1c-.1.1-.2.3-.3.4-.2.3-.4.7-.6 1 .2-.4.5-.7.7-1.1.1 0 .1-.2.2-.3zm82.5-.7c.2.2.4.3.6.5.6.4 1.1.9 1.5 1.5l1-1 .9-.9.5-.5c-1.6.3-3 .4-4.5.4.1-.1 0 0 0 0zm-6.2 1.2c-.1.1-.1.5-.1.8.2 0 .4-.1.5-.2.2-.2.3-.3.3-.4v-.1c-.3-.3-.5-.3-.7-.1zm64.2-1.9c.2.4.5.7.7 1.1 0-.3.1-.6.3-.8-.2-.2-.5-.4-.6-.6l-.4.3zm-89.4-4.8 2.1.9c1.5.6 3 1.2 4.5 1.7 1.8.5 3.4 1.4 4.9 2.8.1-.3.4-.6.7-.9.6-.5 1.3-.7 2-.5.3.1.5.2.8.3l1.7-1.7c-.3-.4-.5-1-.4-1.8.1-.6.4-1.2.9-1.5-2.6-2.5-5.1-5.1-8.1-8.1l-1.5 1.5c-.9.9-1.8 1.8-2.8 2.7-1.3 1.2-2.6 2.5-3.8 3.8-.4.1-.7.4-1 .8zm-79.7-8.6c1 .6 1.7 1.4 2.3 2.1l.2.3c1.8 2 3.7 3.9 5.6 5.7l3.6 3.6c.5-.5 1.1-1 1.6-1.5.8-.8 1.6-1.5 2.4-2.3 1.9-1.9 3.9-3.8 5.8-5.8 1.8-1.8 3.7-3.6 5.5-5.4-2.9-2.8-5.7-5.7-8.6-8.6l-5.7-5.7-8.7-8.7-7.1 7.1-3.8 3.8c-1.3 1.4-2.7 2.7-4.1 4 1.2 1.2 2.3 2.4 3.4 3.6.9 1 1.9 2.1 2.9 3.1 0 0 .1 0 .1.1.3.2.6.4.9.8.4.5.9 1 1.5 1.5.9.7 1.6 1.4 2.2 2.3zm171.7 11.2zm-61.7-2.9c1.9 1 3.8.8 6.5.1 1.9-.5 3.7-1.3 5.4-2.4l-4.1-5.1H415.6l-.3.3-4.8 4.8-.6.6c-.6.6-1.1 1.1-1.8 1.7zm59.2-12.2c-.5.3-.9.7-1.3 1.2-.2.3-.5.5-.7.7l-.3.3c-.7.6-.6.6-.6.8.6 1.7 1.1 3.5 1.5 5.2l.1.3.3 1.2c.3.9.6 1.9.7 3h.4l1.4-1.4 4.9-4.9s-.1-.1-.1-.2c-1.9-2.1-4-4.2-6.3-6.2zm-94.1 9.5 1.2 1.2c1.2-1.3 2.4-2.5 3.6-3.7l1.6-1.6c.3-.3.7-.6 1-.8.3-.3.6-.4.7-.6.1-1.3 1.1-1.7 1.4-1.7.4-.1.7-.4 1.2-1l.3-.3-1.1-1.1c-.6.6-1.2 1.2-1.9 1.7-.8.7-1.6 1.5-2.4 2.2-.6.5-1.1 1.1-1.6 1.6l-1.8 1.8c-.7.8-1.5 1.6-2.2 2.3zm-36.5-2.6c-.4.4-.9.8-1.3 1.2l-.7.6c-.2.2-.4.5-.7.8l.1-.1c.9-.9 1.8-1.7 2.6-2.5zm82.2-1.8 2 4.3c.7-.5 1.5-1 2.2-1.5.2-.1 0-.5 0-.5-.1-.2-.3-.4-.5-.6-.3-.2-.6-.5-.8-.9l-.4-.4-.8-.8-.1-.1c-.6.3-1.1.5-1.6.5zM406 382c0 .2-.1.4 0 .6l1.7-1.7c-.6.3-1.1.7-1.7 1.1zm-44.3-5.4c1.8.1 3 1.2 3.8 2 1.2 1.2 2.5 2.4 3.7 3.6.1-.4.3-.9.8-1.4l3-2.9 8.1-8.1c.4-.4.8-.7 1.3-.8-.9-.9-1.7-1.8-2.6-2.6-1.1-1.1-2-2.3-2.7-3.7-.5-.9-1.2-1.7-2-2.1-1.4-.7-2.4-1.7-3.5-2.7l-.2-.2c-.2-.2-.4-.4-.6-.5-.4.3-.7.7-1 1-.9.9-1.7 1.7-2.6 2.5-1.2 1.1-2.4 2.3-3.6 3.5l-2.4 2.4-2.1 2.1c-.6.7-1.3 1.4-2 2 .2.1.3.3.5.4.9.8 1.9 1.7 2.4 3 .3.9 1 1.6 1.7 2.3v.2zm45.8-41.8c-.3 0-.5.2-.9.5-.9.7-1.8 1.6-2.8 2.6l-5.6 5.6-5.7 5.7-7.2 7.2c-1.5 1.5-3.1 3-4.6 4.6-.2.2-.2.6-.2.8.6.8 1.4 1.6 2.1 2.4.5.5 1 .9 1.5 1.3s1 .9 1.5 1.3c4 4 8 8 11.3 11.5.3.3.6.6.9 1 .9.9 1.7 1.8 2.6 2.6 0-.6 0-1.1.1-1.7.3-3 .9-7 3-10.8 2.2-3.9 5.1-7 9-9.4 3.8-2.3 7.4-3.6 11.1-4l.7-.1c1.7-.2 3.6-.4 5.5 0-1-.9-2-1.9-2.9-2.8l-1.4-1.4c-.8-.8-1.7-1.6-2.5-2.5l-3.3-3.3c-1.5-1.3-2.8-2.7-4.2-4.1l-2.4-2.4c-1.5-1.5-3-2.8-4.3-4-.6-.4-1-.6-1.3-.6zm36.6 33.6c-.5.4-1 .9-1.5 1.4-.3.3-.6.6-.8.9-2.6 2.6-5.3 5.2-7.9 7.8 1.3-.6 2.7-1.1 4-1.7l2.1-.9c1-.4 2-.9 3.1-1.3.7-.3 1.3-.3 1.9-.1.4.2.8.5 1.1 1.2 0 .1 0 .1.1.2.6-.5 1.2-1.1 1.7-1.8.3-.3.5-.6.8-.8-.7-.7-1.4-1.5-2.1-2.3-.9-.9-1.7-1.8-2.5-2.6zm-17.9 8.8zm.4 0zm-3.1-3s.1.1 0 0c.7.6 1.3 1.3 1.9 1.9l.9.9.1-.1c.7-.7 1.2-1.6 1.8-2.5.2-.3.3-.5.5-.8 1-1.6 1.7-3.3 2.3-5.1l.3-.8c.7-1.9.4-3.7-.8-4.9l-2.4 2.4-2.1 2.1-2.5 2.5c.6 1.5.6 3 0 4.4zm-3.8-11.9c-3.2 1.2-6.1 3.1-8.6 5.5l-.1.1c-.6.6-1.2 1.3-1.7 2-.2.3-.5.7-.8 1-.9 1.2-1.5 2.6-2 4.1-.1.4-.3.8-.4 1.2.9-.4 1.8-.8 2.7-1.1 1-.4 1.9-.7 2.7-1.1l.3-.2c.9-.4 1.3-.7 1.4-1.1.5-2.8 2.7-4.2 4.3-5.1.4-.3.7-.4.7-.6.5-1.6 1-3.1 1.5-4.7zm-91.7 9.3 4.3 4.3c.4-.4.9-.7 1.3-1.1.4-.3.7-.6 1.1-.9 1-1 2.2-1.9 3.7-3.1 2-1.5 4.1-2.8 6.4-4.2 1.2-.7 2.7-1.6 4.6-1.5 1.3.1 2.1.6 2.4 1.6.8.1 1.7.5 2.6 1.4 2.6-2.6 5.5-5.6 8.7-8.4 1.1-1 2.2-2.1 3.2-3.2l.8-.8.1-2.2c-.3-.4-.5-.7-.6-1.1-.5-.2-.8-.5-1-.9-.3-.5-1.1-1.7-.3-3.3.9-1.8 2-3.5 3-5.1l.6-1c1.6-2.5 3.5-4.7 5.4-6.9l1-1.1c1.9-2.1 4.2-4.1 7-6.1.1-.1.2-.1.3-.2-.1-.1-.2-.2-.2-.3l-.1-.1c-.5-.5-1-.9-1.5-1.4-.5-.5-1-1-1.6-1.5-.6-.5-1-1.1-1.5-1.6-.1-.1-.2-.2-.3-.4l-1.1 1.1c-1.4 1.3-2.8 2.7-4.1 4.2-.2.2-.3.4-.5.6-.5.5-1 1.1-1.5 1.5-.7.5-1.3 1.2-1.9 1.9-.7.8-1.5 1.6-2.4 2.3-1.2 1-2.3 2.2-3.5 3.5l-.7.8c-1.7 1.9-3.5 3.7-5.3 5.4l-1.5 1.5c-1.7 1.7-3.5 3.5-5.1 5.2-3.2 3.2-6.5 6.6-9.9 9.6-.8.7-1.5 1.4-2.2 2.1-.7.7-1.4 1.4-2.2 2.1-1.9 1.7-3.7 3.5-5.4 5.3-.8.7-1.5 1.3-2.1 2zm89 1.7c.2.4.5.6.8.7.4.1.8-.1 1.2-.5l.2-.2.2-.1c.1-.1.2-.5.3-.7l.1-.3c.1-.2.1-.4-.3-.7-.5-.4-.7-.3-.7-.3-.9.4-1.5 1.1-1.8 2.1zm40.6-3.7.6.6 1.2 1.2 1.4 1.4c.3.3.5.4.5.4l.1-.1c.9-.7 1.7-1.5 2.6-2.3.2-.1.3-.3.5-.4-.4-.4-.9-.6-1.9-.9-1.7-.6-3.3-.6-5 .1zm-20.7-6.7c.2 1.5.5 3.3 0 5v.2l7.9-7.9c.2-.2.9-.8 1.8-.8s1.5.7 1.7.9c.2.2.3.4.5.5-.2-.6-.5-1.2-.7-1.8-.3-.8-.6-1.6-.9-2.3-.9-1.9-2.4-3.8-4.5-5.9-.8-.8-1.6-1.6-2.3-2.4-1.1-1.1-2.1-2.2-3.2-3.3-1.9-1.9-3.8-3.8-5.6-5.7-.9-.9-1.8-1.8-2.6-2.7-7.2-7.3-14.6-14.7-21.7-21.8l-8.1-8.1-.6.6c-2.8 2.8-5.7 5.7-8.6 8.4-1.8 1.6-3.5 3.4-5.1 5.1l-1.9 1.9c.8.6 1.5 1.3 2.1 2 .2.2.4.4.6.7 3.3-2.2 6.1-4 9.3-5.3 1.2-.5 2-.3 2.6-.1l3.8-1.5-2.2 2.7c.5.1 1 .4 1.5.8 1.3 1.2 2.5 2.5 3.7 3.7l1.2 1.2c.3.3.6.7.7 1.1.5 1.7 1.8 2.7 3.6 3.8h.1c.3.1 1 .2 1.5.9.4.5 1 1 1.6 1.5.4.3.8.6 1.2 1 1.7 1.6 3.3 3.2 4.9 4.8 2.3 2.3 4.8 4.8 7.3 7 1.5 1.3 3 2.7 4.2 4.5.3.4.6.7.9.9 1.6.9 2.7 2.4 3.2 4.2.2.6.5.9 1 1.5l.3.3c.2.2.4.5.6.6.8.5 1.2 1.2 1.3 2-.4.5-.6 1.2-1.1 1.8zm-123-5.4c0 .1.1.1 0 0l2.6 2.6 7.2 7.2c1-1 2-1.9 3-2.9.8-.8 1.6-1.6 2.4-2.3 1.5-1.4 3.2-3.1 4.8-4.8l6.9-6.9c3.6-3.6 7.3-7.2 10.8-11 1-1.1 2.1-2.1 3.2-3.1.3-.3.7-.6 1-.9l1.9-1.9 2.1-2.1c1.6-1.4 3.1-3 4.6-4.5l2-2 1.9-1.9c1.6-1.6 3.2-3.3 4.9-4.9-3.1-3.1-6.3-6.2-9.7-9.6-.6.7-1.3 1.3-1.9 1.9-1 .9-1.9 1.8-2.7 2.8-1.4 1.7-2.9 3.1-4.4 4.6l-.5.5c-1.3 1.2-2.6 2.5-3.8 3.8-2.2 2.2-4.4 4.4-6.8 6.5-.8.7-1.5 1.5-2.2 2.3-.5.5-.9 1-1.4 1.5-1.5 1.6-3.4 3.5-5.4 5.2-1.5 1.3-2.9 2.7-4.2 4.1-1.4 1.4-2.8 2.9-4.3 4.2-1.5 1.3-2.8 2.7-4.2 4.1-.8.9-1.7 1.7-2.5 2.6l-1.3 1.3c-1.2 1.2-2.5 2.5-4 3.6zm112.7 3.3c-1 0-1.3.5-1.6 1.2-.3.7-.5 1.4-.8 2.1l1.3-1.3c.6-.6 1.3-1.2 1.9-1.9-.3 0-.6-.1-.8-.1zm-146-4.9.3.3 3.5 3.5.3-.2c.8-.5 1.6-.9 2.1-1.5 1-1.2 2.1-2.2 3.1-3.3.5-.5.9-.9 1.3-1.4 1.6-1.7 3.3-3.3 4.7-4.7.2-.2.2-.3.2-.5-.1-.7-.4-1.3-.9-1.8-.8-.7-1.5-1.5-2.2-2.3-.4-.4-.8-.9-1.3-1.3-1.6-1.7-3.3-3.3-5-5l-4.2-4.2c-1 .8-1.8 1.6-2.6 2.5-.3.4-.7.7-1 1-.8.7-1.5 1.5-2.2 2.3-1.4 1.5-2.9 3-4.5 4.4-.7.7-1.2 1.3-1.4 2 .8.4 1.2 1.1 1.4 1.5.1.1.1.2.2.3 1.8 1.7 3.6 3.5 5.4 5.3.6.7 1.3 1.3 1.9 2l.9 1.1zm120.9-20.8c-1.1.7-2.2 1.4-3.2 2.1-2.3 1.6-4.7 3.4-6.7 5.4l-1.4 1.4-2.8 2.8c-.7.7-1.3 1.5-1.9 2.2-1.1 1.5-2.3 3.1-3.3 4.7l-.4.6c-.3.5-.6.9-.9 1.4l9.4-9.4 8-8c1.1-1 2.1-2.1 3.2-3.2zm-90.3 20.3zm-.7-1.3c.3.3.6.7 1 1 .2-.2.3-.4.5-.5.4-.4.8-.9 1.2-1.3-.5.4-1.1.6-1.8.7-.3 0-.6.1-.9.1zm57.5.2-.5.8.7-.7h-.1s0-.1-.1-.1zm8.4.1.7.7c1.1-1.8 2.3-3.7 3.6-5.6 2.2-3.1 4.4-5.7 6.7-8 2.4-2.4 5-4.5 7.3-6.2 2.6-1.9 5.2-3.7 7.8-5.2.1-.1.2-.1.3-.2 0-.1-.1-.2-.2-.3-.5-.8-1.2-1.7-2.2-2.5-.4.3-.8.5-1.1.6h-.1c-4.3 1.9-8.3 4.7-12.9 9.1-2.6 2.5-4.9 4.9-7 7.5-2.1 2.5-3.8 5.3-5.3 7.7.4.3.7.6 1 1l.4.4 1 1zm-47.5-16.7c-.3.3-.7.6-1 .9-.8.7-1.6 1.5-2.4 2.3-.5.6-1.1 1.2-1.7 1.8-1.2 1.1-2.3 2.3-3.5 3.4-1.8 1.8-3.8 3.8-5.8 5.5-.3.3-.5.5-.7.8-.1.1-.2.3-.3.4 1.1-1 2.1-2 3.2-3l1.7-1.7c1.7-1.6 3.3-3.3 4.9-4.9 1.8-1.8 3.7-3.6 5.6-5.5zm45 14.5zm-85.7-20.7 1.8 1.8c2.8 2.9 5.8 5.8 8.7 8.7 1.3 1.2 2.5 2.5 3.7 3.7.6.6 1.2 1.2 1.8 1.9.2.2.4.5.6.7.9 1 1.6 1.7 2.7 2 1.6.4 2.7.4 3.5-.1.8-.5 1.7-1.3 2.5-2.1l9.3-9.3 1.7-1.7 1.2-1.2c.9-1 1.9-2 3-2.9 1-.7 1.8-1.6 2.8-2.5l1.8-1.8c1-.9 2-2 3-3 1.6-1.7 3.3-3.4 4.9-5 .6-.6 1.2-1.1 1.7-1.7l2.9-2.9c2.6-2.6 5.2-5.3 8.1-7.7 1.1-1 2-2.3 2.5-3.9.4-1.1.5-2.6-.8-3.9L354 299l-3.7-3.7c-.8-.7-1.5-1.4-2.3-2.2-1-.9-2.1-1.9-3.1-3l-6.6-6.6c-.2.6-.5 1.1-.9 1.6-.5.5-1 1.1-1.5 1.6-.7.8-1.4 1.5-2.1 2.3-1.5 1.6-3 3.1-4.5 4.3-1.3 1-2.4 2.3-3.6 3.5-.9 1-1.9 2-3 3-1.6 1.4-3.1 3-4.6 4.5-.9.9-1.8 1.8-2.6 2.7-.1.1-.2.2-.3.4-.2.4-.5.8-1.1 1.2-1.1.8-2.1 1.7-3.1 2.8l-1.4 1.4c-2.8 2.6-5.6 5.5-8.3 8.2-1.1 1.2-2.3 2.3-3.4 3.5-.3.3-.6.5-.9.7-1.1.8-2.1 1.8-3.1 2.8l-1.2 1.2c-1.3 1.3-2.6 2-4.1 2.2-.2.1-.3.1-.4.1zm55.4-8.2-1.2 1.2c-1.6 1.5-3.2 3.1-4.8 4.7-1 1-2 2.1-3.1 3.1l-1.6 1.6-2.1 2.1c.4-.4.8-.7 1.2-1.1 1.6-1.4 3.2-3 4.7-4.6l.6-.6c1.2-1.3 2.5-2.5 3.7-3.8.9-.9 1.7-1.8 2.6-2.6zm-82.8 7.6c.8.1 1.3.7 1.4 1.3.1.5.6.8 1.3 1.4l6-6c3.4-3.5 7-7.1 10.7-10.4.8-.7 1.5-1.5 2.2-2.3.8-.8 1.6-1.7 2.4-2.5 1.2-1.1 2.4-2.3 3.6-3.5l1.2-1.2c1.5-1.5 2.7-2.8 3.8-4.1.8-1 1.7-1.7 2.6-2.5.4-.3.7-.6 1-.9 1.5-1.3 2.9-2.8 4.2-4.1l1.8-1.8 5.8-5.8c-.3-.3-.5-.6-.7-.9-.4-.5-.7-.9-1.1-1.2-.8-.6-1.4-1.1-1.9-1.6-1.1 1.2-2.4 2.4-3.5 3.5s-2.3 2.2-3.3 3.3c-1.8 1.9-3.8 3.8-5.9 5.7-.9.8-1.7 1.6-2.5 2.5-.4.4-.8.8-1.1 1.2l-1.1 1.1c-.8.9-1.7 1.8-2.6 2.6-.6.5-1.1 1.1-1.7 1.7-.6.6-1.1 1.2-1.8 1.8-2.8 2.5-5.5 5.2-8.1 7.8l-2.3 2.2-2.5 2.5c-1.6 1.6-3.2 3.2-4.9 4.8-.9.8-1.7 1.6-2.6 2.5l-1.7 1.7.9.9.4.3zm.4.3zm17.9-8.1-2.1 2.1c.3-.2.5-.5.8-.7.5-.3.9-.8 1.3-1.4zm-12.2-5.6c-.3.3-.6.5-.9.7-1 .8-1.9 1.8-2.8 2.7l-.9.9c.6-.6 1.3-1.2 1.9-1.8l2.5-2.5c.1.1.1 0 .2 0zm28.6-10.8c-.2.2-.4.4-.6.7-.3.3-.6.6-.9 1l-2.3 2.3-9.7 9.7c.7-.6 1.3-1.2 2-1.9s1.3-1.4 2.1-2c.8-.7 1.5-1.4 2.2-2.2.6-.6 1.2-1.3 1.9-1.9 1.7-1.8 3.5-3.8 5.3-5.7zm61.3-9.9c.3.3.6.5.8.8.5.4.9.9 1.3 1.3l.5.5c6.9 6.8 13.7 13.7 20.6 20.6.9-1 1.8-1.8 2.7-2.7.4-.4.8-.7 1.1-1.1l1.3-1.3c1.2-1.1 2.3-2.2 3.4-3.3 1.2-1.1 2.3-2.3 3.5-3.5l4.1-4.1c-2.9-2.8-5.7-5.7-8.6-8.6l-5.9-5.9c-2.9-2.9-5.8-5.8-8.7-8.8-1.2 1.3-2.5 2.6-3.7 3.7-.8.7-1.5 1.5-2.3 2.3-1.6 1.6-3.3 3.3-5.1 4.9-1.1 1-2.1 2-3.2 3.1-.4.8-1.1 1.5-1.8 2.1zM294 319.3c.1 0 .1 0 0 0 .1 0 .2 0 .2-.1 0 0-.1 0-.2.1 0-.1 0 0 0 0zm-14.2-14.5c-.3.3-.6.5-.8.8-.7.7-1.4 1.3-2.1 2 .1-.1.3-.2.4-.3.7-.5 1.3-1.2 1.9-1.9l.6-.6zm80.2.2c-.2.9-.5 1.7-.9 2.5l1.7-1.7c-.3-.3-.6-.5-.8-.8zm-70.2-10.1c-.8.7-1.5 1.4-2.3 2.1-1.5 1.4-3 3-4.4 4.4l-2 2c1.6-1.5 3.2-3.1 4.8-4.7l2.8-2.8c.3-.3.7-.6 1.1-1zm64.2-.9.3.3.3-.3h-.6zm-62-1.1c-.3.3-.6.6-.9.8l-.5.5.3-.3c.3-.3.7-.6 1.1-1zm20.8-1.6c0 .1-.1.3-.1.4l.3-.3c-.1 0-.1-.1-.2-.1zm35.7-6.1c.5.5 1.1 1 1.6 1.5 1.3 1.3 2.4 2.4 3.7 3.5.1.1.2.1.2.1.5-.2.9-.4 1.3-.8 1.3-1.2 2.5-2.5 3.8-3.7l3.3-3.3c.4-.4.8-.7 1.2-1.1 1.1-1 2.2-2 3-3.1.3-.4.3-.6.2-.9 0-.2-.2-.4-.6-.7-.2-.2-.4-.3-.6-.5-2.1-2.1-4.2-4.3-6.2-6.4-1.7-1.7-3.4-3.5-5.1-5.3l-.1-.1c-1.4.2-2.4.5-3.2 1.3l-1.3 1.3c-1 1-2 2-3 2.9l-2.4 2.4c-1.4 1.4-2.8 2.9-4.4 4.2 1.6 1.5 3 2.9 4.4 4.2l1.2 1.2c1 1.2 2.1 2.2 3 3.3zm-22.3 2.2h.1-.1c0-.1 0 0 0 0zm-19.1-8.7s.1.1.2.3c.1.2.3.3.5.4l.6.6c.3.3.6.6.8.9.7.7 1.3 1.3 2 2.1 1 1.2 2.1 2.5 3.6 3.1.5.2.6.2.8 0l.6-.7c1.9-1.9 3.9-4 6-5.8 1-.8 1.9-1.8 2.9-2.7.7-.7 1.4-1.4 2.2-2.1l.3-.2c1.8-1.6 3.5-3.2 4.7-5.1.3-.4.3-.6.3-.6s0-.1-.1-.2l-2.4-2.4-2-2-2.4-2.4c-.2-.2-.6-.3-.7-.4-.6.4-1 .8-1.4 1.2-1.3 1.3-2.6 2.5-3.8 3.8-2.5 2.5-5.1 5.2-7.9 7.6-1 .9-2 1.9-2.9 2.9-.5.5-.9 1-1.4 1.4-.5.1-.5.2-.5.3zm63.7-.1zm-43.3-19.9c.3.2.5.4.7.6l.1.1 4.8 4.8.1.1c.1.1.1.2.2.2.8.4 1.5 1.1 2 2 .5-.5 1-1.1 1.5-1.6.8-.9 1.7-1.9 2.7-2.8.5-.5.5-.7.4-1.3-.1-.3-.2-.4-.3-.6l-1.8-1.8-1.4-1.4-1.6-1.6c-.3-.3-.7-.7-1.1-.9l-.3-.1c-.5-.2-1.2-.5-1.3-.3-1.3 1.2-2.6 2.5-3.9 3.8-.2.3-.5.6-.8.8z"/><path d="m460.1 489.9-2.5-2.5c-1-1-1-1.5 0-2.5.9-.9 1.9-1.8 2.7-2.8.5-.6.9-.5 1.4 0 2 2 3.8 4.3 5.9 6.2.3.2.5.5.1.8-1.3 1-2 2.7-3.5 3.6-.6.4-.9.3-1.3-.1-.9-.9-1.9-1.8-2.8-2.7zm2-5-1.4-1.4c-.2-.2-.4-.4-.6-.3-.7.4-1.4 1.1-1.8 1.8-.3.5.4.8.7 1.2 1.4 1.4 2.8 2.8 4.1 4.4.6.8 1.2.8 1.9.1l.8-.8c.4-.3.3-.6 0-.9-1.4-1.3-2.4-2.9-3.7-4.1zm1.2 7.3c.1 0 .1-.1.2-.1-.1-.2-.1-.5-.2-.6l-5.4-5.4c-.1-.1-.4-.2-.5-.1-.2.2 0 .4.1.5 2 1.9 3.9 3.8 5.8 5.7zm-2.2-9.5c1.7 2.2 3.6 4.2 5.7 6-1.7-2.1-3.5-4.3-5.7-6z"/><path d="M463.5 494.6c-.6 0-1.2-.3-1.7-.8-.6-.6-1.2-1.2-1.7-1.8l-1.8-1.8-1.8-1.8c-1.5-1.6-1.5-3 0-4.6.3-.3.6-.6.9-.8l1.2-1.2-5.8-7.5 7.7 6c.2 0 .3-.1.5-.1.9 0 1.5.5 1.8.9.9.9 1.7 1.8 2.5 2.7 1.1 1.2 2.2 2.4 3.3 3.5.2.2.9.8.8 1.7 0 .6-.3 1.1-.8 1.5-.5.4-.9.9-1.3 1.4-.6.8-1.3 1.7-2.4 2.3-.4.2-.9.4-1.4.4zm.5-5.3.2.2c-.1-.1-.1-.2-.2-.2zm-3.8-4.1c.3.3.6.7 1 1l1.8 1.8c-.1-.1-.1-.2-.2-.2-.5-.6-1-1.2-1.6-1.7l-1-.9c0-.1 0 0 0 0zM494.9 455.5c.8 1 2.1 1.8 3 3.2.3.5.2.8-.1 1.1-1 1-2 1.9-2.9 2.9-.4.5-.7.4-1.2 0l-4.8-4.8c-.5-.5-1.3-.6-1.5-1.4-.1-.4-.2-.7.1-1l3-3c.5-.5.9-.4 1.4 0 .9.9 1.8 1.9 3 3zm-3.6 3.1 1.8 1.8c1.4 1.4 1.4 1.4 2.8 0 .6-.6.6-1 0-1.6-1.5-1.4-2.9-2.9-4.4-4.3-1.1-1.1-1.1-1.1-2.3-.2-.1.1-.2.3-.3.4-1.1.6-.5 1.1.1 1.7.8.7 1.6 1.5 2.3 2.2zm5.9.5.2-.2-5.4-5.7c-.2-.2-.6-.5-1-.2 2.1 2 4.1 4.1 6.2 6.1z"/><path d="M494.2 464.6c-.9 0-1.5-.6-1.7-.8-.6-.7-1.3-1.3-2-2l-2.8-2.8s-.2-.1-.3-.2c-.5-.3-1.2-.7-1.6-1.7-.1-.4-.5-1.5.5-2.5l3-3c.5-.5 1.1-.8 1.7-.8.6 0 1.2.3 1.8.9.6.6 1.2 1.3 2 2l1.1 1.1c.2.3.6.6 1 1 .7.6 1.5 1.4 2.1 2.3.5.8.8 1.9-.4 3l-2.9 2.9c-.3.3-.8.6-1.5.6.1 0 .1 0 0 0zm-3.9-9.1c.5.5 1 .9 1.4 1.4l2.5 2.5.3.3.1-.1c-1-.9-1.9-1.9-2.8-2.8l-1.2-1.2c-.1-.1-.2-.1-.3-.1.1 0 0 0 0 0zM331.8 325.9c1.2.6 1.8-.3 2.3-1 .7-1 1.6-1.8 2.5-2.7 2.6-2.6 5.2-5.3 7.8-7.8 3-3 6.1-6 9.2-8.9 1.8-1.7 1.3-3.1.5-4.7-.5-.9-1.2-1.7-1.9-2.4-2-2.1-3.7-4.6-5.9-6.5-.1-.1-.3-.2-.3-.4-.1-.2-.3-.5-.1-.6.2-.2.5-.1.7.1.6.7 1.3 1.4 1.8 2.2.9 1.3 2.1 2.3 3.1 3.5 1 1.2 2.1 2.4 3.2 3.6 1.6 2 1.5 4.7-1.3 6.5-.3.2-.6.4-.9.7-4.8 4.8-9.6 9.7-14.5 14.4-2.8 2.6-5.2 5.6-8 8.2-3 2.8-6 5.5-8.8 8.5-.5.5-.8 1.1-1.3 1.5-2.3 2-4.4 4.3-6.7 6.3-.9.8-1.7 1.6-2.6 2.4-.7.7-2.4.9-3.3.4-1.1-.6-2.1-1.3-3-2.1-1.4-1.3-3.1-2.4-4.5-3.7-1.5-1.4-3.4-2.4-4.7-4.1.3-.3.6-.2.8 0 1.3 1.3 2.8 2.4 4.3 3.6 2 1.7 3.9 3.5 6.2 4.9 2 1.2 2.9 1 4.7-.5 2.7-2.3 5-5 7.6-7.3 1.9-1.6 3.5-3.4 5.3-5.1 2.6-2.5 5.3-4.8 7.8-7.4.4-.5.6-.9 0-1.6z"/><path d="M308.5 351c-.7 0-1.4-.1-1.9-.4-1.2-.6-2.3-1.4-3.4-2.4-.6-.6-1.3-1.1-2.1-1.7-.8-.6-1.7-1.3-2.5-2.1-.5-.5-1.1-.9-1.7-1.4-1.1-.8-2.2-1.7-3.1-2.9l-.8-1.1.9-.9c.9-.8 2.1-.8 2.9 0 .8.8 1.7 1.6 2.7 2.3.5.4 1 .8 1.4 1.2.5.4.9.8 1.4 1.2 1.5 1.3 2.9 2.5 4.6 3.5 1.4.8 1.6.8 2.9-.4 1.3-1.1 2.5-2.4 3.8-3.6 1.2-1.2 2.5-2.5 3.9-3.7 1.3-1.1 2.5-2.3 3.6-3.4l1.6-1.6c1-1 2-1.9 3-2.8 1.5-1.4 3.1-2.9 4.5-4.4l-4.7-5.2 6.8 3.2c.1-.1.2-.3.3-.4.7-1 1.5-1.7 2.2-2.5l.5-.5c.9-.9 1.7-1.8 2.6-2.6l5.2-5.2c2.7-2.7 5.9-5.8 9.2-8.9 1-.9.9-1.5.2-3-.3-.6-.8-1.2-1.4-1.7l-.3-.3c-.8-.8-1.5-1.7-2.2-2.5-1.2-1.4-2.3-2.7-3.6-3.9-.2-.2-.4-.4-.6-.7-.8-1.3-.2-2.2.1-2.5.4-.4.8-.6 1.4-.6.4 0 1 .1 1.5.7.8.9 1.4 1.6 1.9 2.3.5.7 1.1 1.3 1.7 2 .5.5.9 1 1.3 1.5.5.6 1 1.1 1.5 1.7.6.6 1.1 1.3 1.7 1.9 1.1 1.3 1.6 3 1.3 4.5-.2 1.2-.9 2.9-3 4.2-.3.2-.5.3-.6.5l-4.4 4.4c-3.3 3.3-6.7 6.7-10.1 10-1.3 1.2-2.5 2.5-3.7 3.8-1.4 1.5-2.8 3-4.3 4.4l-1.3 1.2c-2.5 2.3-5.1 4.8-7.5 7.3-.2.2-.3.4-.4.5-.3.3-.6.7-1 1.1-1.3 1.2-2.6 2.4-3.8 3.6-.9.9-1.9 1.8-2.8 2.7l-1 .9c-.6.5-1.1 1-1.6 1.5-.4.8-1.6 1.2-2.8 1.2zM509.7 432.7c1.7-1.9 4.2-3.7 6.1-5.9.4-.5.7-.5 1.2 0 1.6 1.7 1.7 1.3.1 2.8l-1.1 1.1-7.4 7.1c-.6.6-.9.4-1.3-.1-.1-.1-.1-.3-.2-.5-.9-1-.9-1 .1-2l2.5-2.5zm3.6-.4c1.2-1.2 2.4-2.4 3.6-3.5.4-.4.5-.7.1-1.1-.4-.5-.7-.3-1.1.1-1.2 1.2-2.4 2.4-3.7 3.6-1.4 1.2-2.7 2.6-4 3.9-.1.1-.3.3-.5.4-.5.1-.6.5-.6.9s.4.7.7.8c.4.2.8-.2 1-.4 1.5-1.7 3-3.2 4.5-4.7z"/><path d="M508 439.7h-.2c-1-.1-1.5-.8-1.7-1.1-.1-.2-.2-.4-.3-.5-1.3-1.5-1.2-2.4.3-3.9l2.5-2.5c.9-1 1.9-1.9 3-2.9 1.1-.9 2.1-1.9 3.1-2.9.5-.6 1.1-.8 1.7-.8.6 0 1.2.3 1.7.8l.5.5c.7.7 1.2 1.2 1.2 2.1 0 .9-.6 1.4-1.3 2l-.4.4-.5.5-.6.6-2.2 2.1c-1.7 1.6-3.4 3.3-5.1 5-.5.3-1.1.6-1.7.6zm-2-1.4zM409.4 400.1c.6-.4.6-1.4 1.5-1.6-.3.8-.7 1.4-1.5 1.6z"/><path d="m402.2 403.4 6.3-4.4c0-.1.1-.1.1-.2.3-.5.8-1.4 2-1.7l2.9-.6-1.2 2.7c-.3.7-.9 2.1-2.6 2.5l-7.5 1.7zM348.8 284.7c-.5-.5-.7-1-.2-1.4.5-.4.9-.2 1.3.2s.6.8.1 1.3c-.5.4-.9.4-1.2-.1z"/><path d="M349.4 286.6h-.2c-.4 0-1-.2-1.5-.9-.6-.6-.9-1.2-.9-1.8 0-.4.1-1.1.8-1.7.6-.6 1.2-.7 1.6-.6.7 0 1.3.3 1.8.9 1.5 1.6.5 2.9.1 3.4-.6.4-1.1.7-1.7.7zm-.5-2-.1.1.1-.1zm0 0 .1-.1c.2 0 .4-.1.6-.2.1-.1.1-.2.2-.3l.3-.2-.3.2v-.4c-.3-.1-.7-.1-.9 0-.1.2-.2.5-.1.8h.2l-.1.2zm.8-1.1zM346.9 281.2c-.4.4-.9.4-1.3 0s-.4-.8-.1-1.2c.4-.5.9-.3 1.3.1.3.3.5.7.1 1.1z"/><path d="M346.2 283c-.6 0-1.2-.3-1.7-.8-1-1-1-2.3-.1-3.2.6-.6 1.2-.8 1.6-.8.5 0 1.1.1 1.8.8.2.2.9.8.8 1.8 0 .4-.2 1-.8 1.6-.4.4-1 .6-1.6.6zm-.4-1.8c.2.1.6 0 .8-.1.2-.3.2-.7 0-.9-.2-.1-.6-.2-.7 0-.3.1-.3.7-.1 1zM286.6 339.7c.6.4.7.9.3 1.5-.5.6-1 .3-1.4-.1-.5-.4-.4-1.1-.1-1.6.3-.4.9-.3 1.2.2z"/><path d="M286.3 343c-.6 0-1.2-.3-1.8-.8-1.1-1-1.1-2.6-.3-3.6.4-.6 1.1-.9 1.8-.9s1.3.3 1.8.9c.5.5.9 1 .9 1.7 0 .4 0 1.1-.6 1.8-.5.6-1.2.8-1.6.9h-.2zm-.6-2.3h.2c.3 0 .5-.1.7-.3.1-.1 0-.3-.1-.4-.2-.1-.6 0-.8.2v.5zm-.3-.2zM290.1 344c-.4.4-.9.5-1.2.2-.3-.3-.7-.8-.2-1.3.4-.4.8-.5 1.3-.1.4.3.4.8.1 1.2z"/><path d="M289.4 345.9h-.2c-.6 0-1.1-.3-1.4-.8-1.4-1.7-.5-2.9-.1-3.3 1-1 2.3-1.1 3.3-.2 1 .8 1.2 2 .5 3.2l-.1.2-.2.2c-.6.4-1.2.7-1.8.7zm-.6-2.6c-.1.2 0 .5.2.6.2.2.6.1.8 0l-1-.6zm.6-.4c-.1 0-.2 0-.3.1l.8.8c.1-.2.1-.5.1-.7-.2-.2-.4-.2-.6-.2zm.6.3s.1 0 0 0c.1 0 0 0 0 0zM473.3 520.2c-.5-.5-.5-.9 0-1.4.4-.4.9-.3 1.2.1.5.5.3 1-.2 1.5-.4.4-.7.1-1-.2z"/><path d="M473.9 522.1c-.9 0-1.4-.6-1.7-.9-.6-.7-.8-1.3-.8-1.8 0-.4.2-1.1.8-1.7 1-.9 2.3-.9 3.3.1.8.8 1.2 2.2-.1 3.6-.5.6-1.1.7-1.5.7zm-.5-2.9c-.1.2 0 .6.1.7.2.1.6.1.8 0 .1-.1.1-.5 0-.7-.2-.1-.7-.1-.9 0zm0 0zM481.1 511.5c.5.4.5.8 0 1.3-.4.4-.7.4-1 0-.4-.5-.5-1-.1-1.4.3-.5.8-.3 1.1.1z"/><path d="M480.6 514.5c-.6 0-1.1-.3-1.6-.7-1-1.1-1.1-2.5-.1-3.5.4-.5 1-.7 1.6-.7.4 0 1.1.1 1.7.8.6.6.8 1.2.8 1.7 0 .4-.1 1.1-.8 1.8-.5.4-1 .6-1.6.6zm-.6-2c.1 0 .2.1.4.1.3 0 .5-.1.6-.3.1-.1.1-.5 0-.6-.2-.2-.8-.2-1.1 0 0 .2 0 .5.1.8zM517 477.5c-.5.4-.9.3-1.3 0s-.4-.8-.1-1.2c.4-.4.8-.4 1.2 0 .4.3.4.8.2 1.2z"/><path d="M516.4 479.2c-.5 0-1.1-.2-1.6-.7-.5-.4-.8-1-.9-1.6 0-.6.2-1.2.6-1.7.6-.6 1.2-.8 1.6-.8.4 0 1.1.1 1.8.7.4.4 1.3 1.4.5 3l-.1.3-.2.2c-.5.4-1.1.6-1.7.6zm-.8-2.4c0 .2 0 .4.2.5.2.1.6.1.8-.1l-1-.4zm.8-.6c-.2 0-.3 0-.4.1l.8.8c.1-.1.1-.3.1-.5s-.1-.4-.2-.5c-.1.2-.2.1-.3.1zM523.7 469.5c.4.4.6.8.2 1.2-.4.3-1 .4-1.3 0-.3-.3-.6-1-.1-1.4.4-.3.9-.2 1.2.2z"/><path d="M523.3 472.5h-.2c-.7-.1-1.2-.4-1.6-.9-.9-1.2-.9-2.6.1-3.4.5-.4 1.1-.6 1.7-.5.6.1 1.1.4 1.5.9.5.5.8 1.1.8 1.7 0 .6-.2 1.2-.7 1.6-.4.3-1 .6-1.6.6zm-.6-1.9c.1 0 .1.1.2.1.2 0 .4 0 .6-.2.3-.2.3-.6.3-.8-.1-.1-.3-.2-.5-.2-.1 0-.3 0-.4.1-.3.3-.3.7-.2 1zm-.2-.2zM355.5 374l-1.4-1.4c-.1-.2-.4-.3-.2-.6.3-.3.4 0 .6.1l2.9 2.9c.1.1.3.4.1.5-.1.1-.4.1-.5-.1-.5-.4-1-.9-1.5-1.4z"/><path d="M357.4 377.1c-.5 0-1-.2-1.4-.6l-1.9-1.9-1-1c-1.1-1-.6-2.1-.2-2.6.4-.4.8-.6 1.3-.6.8 0 1.2.5 1.4.7l2.5 2.5.4.4c.4.4.7.9.6 1.4 0 .5-.2.9-.5 1.2-.3.4-.8.5-1.2.5zm.7-2.7zM400.9 328.7l-1.4-1.4c-.1-.1-.3-.3-.1-.5.2-.2.4 0 .5.1.9.9 1.7 1.8 2.8 2.5.3.2.5.5.2.8-.2.2-.6 0-.8-.2-.3-.5-.8-.9-1.2-1.3z"/><path d="M402.7 331.8c-.5 0-1.1-.2-1.6-.7l-.9-.9-.8-.8-1-1c-.2-.2-.6-.6-.6-1.4 0-.5.2-.9.6-1.3.5-.4 1.5-.9 2.6.1.2.2.5.4.7.7.6.6 1.2 1.2 1.9 1.7.6.4 1 .9 1 1.6.1.6-.1 1.1-.5 1.5-.4.2-.8.5-1.4.5zM316.4 270.1l5.6-5.6c1.4-1.4 3.4-1 4.2.8.3.8.1 1.7-.5 2.1-1 .8-2 1.7-2.8 2.6-2.3 2.5-5 4.6-7.4 7.1-.8.8-1.2 1.8-2.2 2.4-.8.5-1.5.3-2.1 0-.7-.4-1.2-1.1-1.1-2 .1-.7.3-1.3.8-1.8 1.8-1.8 3.6-3.7 5.5-5.6zm1 4c.3-.3.6-.7.9-.9.5-.4.5-.8 0-1.2l-.9-.9c-.5-.5-.8-.3-1.2.1-.9.9-1.9 1.8-2.7 2.8-.9 1-2.1 1.7-2.7 3-.3.6-.2 1.4.3 1.7.6.4 1.3.5 1.9-.2 1.4-1.6 2.9-3 4.4-4.4zm6.4-6.1.9-.9c.6-.6.7-1.2.3-1.9-.3-.6-1.4-.7-2.1-.3-1.1.6-1.9 1.5-2.8 2.4-.3.3-.3.6 0 .9 1.6 1.6 1.5 2.1 3.3.2.2-.3.3-.4.4-.4zm-3.3 1.2c-1-1-1.3-1-2.3 0-.7.7-.6 1.2.2 2 .7.6 1.5.6 2.2 0 .5-.6.4-1.4-.1-2z"/><path d="M312.2 281.3c-.9 0-1.5-.4-1.8-.5-1.3-.7-2-2-1.9-3.4.1-1.1.5-2 1.3-2.7 1.4-1.3 2.7-2.7 4.1-4.1l3.2-3.2 3.9-3.9c1-1 2.4-1.4 3.7-1.2 1.3.3 2.4 1.2 2.9 2.5.6 1.4.2 3-1 3.9-.8.6-1.7 1.4-2.6 2.4-1.3 1.4-2.7 2.7-4.1 4-1.1 1-2.2 2-3.3 3.1-.2.2-.4.5-.6.7-.5.6-1 1.4-2 1.9-.7.4-1.3.5-1.8.5zm-.3-3.9zm7.5-7.1.4-.4-.4.4zm2.5-2.7c0 .1 0 .1 0 0 .2 0 .3-.2.5-.4l.6-.6.2-.2c-.5.3-.9.8-1.3 1.2z"/><path d="m321.4 274.1 5.1-5.1c.6-.6 2.1-1 2.7-.5.8.5 1.5 1.2 1.3 2.3-.1.5-.3.9-.7 1.2-3.7 3.8-7.8 7.1-11.3 11-1.1 1.2-2.8 1-3.6 0-.8-1-.6-2.5.6-3.3.6-.4 1.2-1 1.7-1.6 1.5-1.3 2.9-2.7 4.2-4zm-3.3 4.1c-.7.8-1.5 1.5-2.2 2.3-.6.6-.8 1.5-.3 2.1.4.5 1.7.5 2.3 0 .4-.4.8-.7 1.2-1.2 1.1-1.3 2.6-2.3 3.8-3.5.5-.5.5-1 0-1.5l-.7-.7c-.5-.5-1-.5-1.5 0-.9.9-1.7 1.7-2.6 2.5zm9.9-5.5c.4-.4.9-.8 1.3-1.3.5-.6.5-1.3 0-1.9-.5-.6-1.3-.7-1.8-.2-.9.8-1.8 1.4-2.6 2.2-.4.4-.5.9 0 1.4 1.4 1.5 1.4 1.5 2.9 0l.2-.2zm-5.1 2.9c1.1 1.1 1.1 1.1 2 .2 1-1 1-1 0-2-1.1-1.1-1.3-1.1-2.2-.1-.9.9-.9.9.2 1.9z"/><path d="M316.9 285.3s-.1 0 0 0c-1.2 0-2.3-.5-3-1.4-.7-.8-1-1.9-.8-2.9.2-1.1.8-2 1.7-2.6.4-.2.7-.6 1.1-1l.4-.4 2.9-2.9 2.6-2.6c1.2-1.2 2.4-2.4 3.7-3.6.9-.9 3.2-1.7 4.6-.7.7.5 2.3 1.6 2 3.8-.1 1.1-.7 1.7-1.1 2.1-1.6 1.6-3.3 3.2-4.9 4.7-2.1 2-4.4 4.1-6.3 6.3-.8.8-1.8 1.2-2.9 1.2zm4.5-8.2c-.2.3-.5.5-.7.7.2-.2.5-.4.7-.7 0 .1 0 .1 0 0zm4.8-4.8s.1 0 0 0l.6-.6c-.1.2-.4.4-.6.6zM403.1 401.9c-1.5 1.5-1.5 1.5-3.1-.1-.4-.4-1-.6-.9-1.4 0-.3-.4-.3-.7-.3-1.5-.1-2.6-1.1-2.8-2.5-.1-1.2 1.1-2.6 2.4-2.8 1.4-.2 3.2.6 3.2 1.8-.1 1.4 1.1 1.5 1.6 2.1.3.4.6.9 1.2 1.1.3.1.3.7-.1 1.1-.2.4-.5.7-.8 1zm-6-3c.9.9 2 .8 3.1-.1.9-.8.6-2.2.1-2.7-.6-.7-2.5-.4-3.3.3-.9.8-.8 1.5.1 2.5zm5.3 2.5c.2-.1.3-.3.5-.4.3-.3.7-.6.4-1-.4-.5-.8-1.1-1.4-1.2-.3-.1-.4.2-.4.5 0 .4.3.6.5.8.3.3.6.6.2 1-.4.4-.8.5-1.3.3-.4-.1-.5-1-1-.5-.3.4.5.4.7.8.3.9.9.8 1.4.2.1-.2.3-.4.4-.5zm-2-1.6c.2.6.5.9 1 1 .1 0 .3-.1.2-.3-.2-.5-.4-.9-1.2-.7z"/><path d="M401.5 404.6c-1.1 0-1.7-.7-2.6-1.7-.1-.1-.1-.1-.2-.1-.2-.2-.7-.6-.9-1.2-2-.3-3.4-1.9-3.6-3.9-.2-2 1.6-4.1 3.7-4.4 1.3-.2 2.9.2 3.9 1.1.7.6 1.1 1.5 1 2.3v.1s.2.1.3.2c.3.2.6.4.9.7.1.1.3.3.4.5.1.1.2.3.3.3.6.2 1 .7 1.1 1.4.1.7-.1 1.6-.7 2.1l-.9 1c-1 .9-1.7 1.6-2.7 1.6zm-3.6-7c0 .1.1.1.2.3.1.1.4.4 1-.2.1-.1.1-.3 0-.5-.3 0-.9.1-1.1.3l-.1.1zM467.8 507.1c-.4-.4-.7-.7-.1-1.3.5-.5 1-.5 1.4 0 .4.5.5 1 0 1.5-.6.7-.9.2-1.3-.2z"/><path d="M468.5 509.2c-.9 0-1.4-.6-1.8-.9-.3-.2-.9-.8-.9-1.7 0-.4.1-1.1.8-1.8.7-.7 1.4-.8 1.9-.8.4 0 1.1.2 1.7.9.9 1.1.9 2.5-.1 3.5-.5.6-1.1.8-1.6.8zm0-3c-.2 0-.5.1-.6.2-.1.1-.1.3 0 .4.1.2.6.2.8.1.1-.1.1-.4.1-.7h-.3zM472 511.4c-.4-.3-.6-.6-.1-1.1.4-.4.7-.4 1.1 0 .4.4.4 1 .1 1.3-.2.4-.7.2-1.1-.2z"/><path d="M472.7 513.3c-.6 0-1.3-.3-1.8-.8-.3-.2-.8-.8-.8-1.6 0-.4.1-1 .7-1.6 1-1 2.2-1 3.2 0 1.1 1 1 2.4.3 3.3-.3.4-.9.7-1.6.7.1 0 .1 0 0 0zm-.7-1.9c.2.1.8.1 1-.1.2-.2.2-.7.1-1-.1 0-.2-.1-.3-.1-.3 0-.6.2-.8.4-.3.4-.1.7 0 .8zm1.2-1zM330.4 262.8c-1.2-.5-.6-1.5-.8-2.3-.3-1.2.3-2.5-.1-3.8-.1-.4.3-1 .8-1.2.4-.2.8-.2 1.2.3.3.4.7.2 1 .2 1 .1 2.1.2 3.1.4.8.2 1.5.9 1.7 1.5.4 1.3 1.2 2.5.9 4 0 .2 0 .4.1.6.5.6.3 1-.2 1.5-.5.4-.9.6-1.4.2-.1-.1-.3-.2-.4-.1-1.6.3-3.1-.4-4.6-.3-.8-.2-.9-.7-1.3-1zm4.1.3c.1.1.2.2.3.2.8 0 1.6-.4 2.4 0 .3.1.3-.2.3-.5-.2-1.8-.6-3.5-1.4-5.1-.1-.3-.4-.6-.8-.6-1.3 0-2.5-.5-3.8-.7-1.3-.2-1.3-.3-1 .9.1.3 0 .8-.1 1.1-.2.5-.2.9-.2 1.4.1.7.4 1.3.3 2.1-.1.5.6.8 1.1.9.4.1.9.1 1-.2.2-.4-.4-.6-.6-.9l-.2-.2c-.8-1.1-1-2.2-.4-3.1.5-.8 1.5-1 2.3-.9 1.2.2 2 1 2.5 2.1.6 1.3.2 2.2-.7 3-.2.2-.7 0-1 .5zm.3-4.3c-.8-.8-1.8-.9-2.5-.2-.6.5-.4 1.9.4 2.8.6.7 2.3.8 2.9.3.5-.6.1-2-.8-2.9z"/><path d="M337.1 265.8c-.5 0-.8-.1-1.1-.3-1 .1-2-.1-2.8-.2-.6-.1-1.1-.2-1.6-.2-1.1 0-1.7-.7-2-1-1.6-.8-1.5-2.3-1.4-2.9v-.4c-.2-.8-.1-1.5 0-2.1.1-.6.1-1.1 0-1.5-.4-1.2.4-2.5 1.5-3.1.9-.5 2-.4 2.7.3h.3c1 .1 2.1.2 3.3.5 1.3.3 2.4 1.3 2.8 2.5.1.3.2.6.3.8.4 1 .9 2.2.7 3.6.4.6.8 1.9-.6 3.2-.9.6-1.5.8-2.1.8zm-1.5-.5zm-2.1-5.7c0 .2.1.5.3.6.1 0 .2.1.4.1-.1-.2-.2-.4-.4-.5-.2 0-.3-.1-.3-.2zm1.2.8zm-2.1-5.6zM511.6 463.4c.4.5.5.9.1 1.4-.4.4-.9.4-1.3 0s-.4-.8 0-1.3c.3-.4.7-.4 1.2-.1z"/><path d="M511 466.6s-.1 0 0 0c-.5 0-1.1-.1-1.7-.8-.9-1-1-2.3-.1-3.3s2.3-1.1 3.4-.3l.1.1c1 1.1 1 2.5 0 3.5-.6.7-1.3.8-1.7.8zm-.4-2c.2.1.6.1.8-.1.1-.2.1-.6 0-.8l-.8.9zm.7-.9-.7.9.7-.9zm-.3-.1c-.1 0-.3 0-.4.1-.2.2-.2.6-.1.8l.8-.8c-.1 0-.2-.1-.3-.1zM515.6 467.8c.2.2.2.6-.2 1-.4.3-.8.3-1.2-.1-.3-.4-.2-.8.2-1.2.4-.4.7-.2 1.2.3z"/><path d="M514.8 470.6h-.2c-.6-.1-1.2-.4-1.6-.9-.8-1-.7-2.3.3-3.3.6-.5 1.2-.6 1.6-.6.9.1 1.5.8 1.8 1.1l.1.1c.6.8.6 2.2-.5 3.1-.4.3-.9.5-1.5.5zm-.3-1.8c.3.1.7 0 .9-.1.1-.1.1-.4.1-.7l-1 .8zm-.1-.1 1.1-.7c0-.1 0-.1-.1-.1-.1-.1-.2-.2-.5-.2-.2 0-.4 0-.5.1-.1 0-.3.5 0 .9zM374.5 382.2c.5.5.6 1 .1 1.4-.4.3-.8.3-1.2-.1-.5-.5-.3-1.1 0-1.5.3-.4.8-.2 1.1.2z"/><path d="M374.1 385.3c-.6 0-1.3-.3-1.8-.8-.9-1-.9-2.5 0-3.5.4-.4 1-.7 1.6-.6.6 0 1.3.4 1.7.9.7.7.8 1.4.8 1.8 0 .6-.3 1.2-.8 1.6-.4.4-1 .6-1.5.6zm-.7-2.1c.1.1.2.1.3.1.3 0 .6-.1.8-.3.1-.1.1-.5 0-.6-.2-.1-.6-.2-.9 0-.2.2-.2.6-.2.8zm-.1-.1zM382.9 374c-.3-.3-.5-.8-.1-1.2.4-.4.9-.3 1.3 0 .5.4.3 1.1 0 1.5-.4.4-.8.1-1.2-.3z"/><path d="M383.7 376c-.8 0-1.4-.5-1.8-.9-.5-.4-.8-1.1-.8-1.7 0-.6.2-1.2.7-1.7.9-.9 2.3-.9 3.3-.1 1 .9 1.1 2.4.2 3.6-.4.5-.9.8-1.6.8.1 0 0 0 0 0zm0-3c-.3 0-.6.1-.8.3-.1.1-.1.4.2.6.2.2.5.1.7-.1.1-.1.2-.3.2-.6 0-.1 0-.2-.1-.3 0 .1-.1.1-.2.1zM379 379.2c-.4.3-.8.3-1 0-.3-.4-.4-.9.1-1.3.3-.3.7-.2 1 .1.3.4.2.8-.1 1.2z"/><path d="M378.4 380.9h-.3c-.5-.1-1-.4-1.3-.8-.8-1.1-.7-2.4.3-3.3.4-.4 1-.6 1.6-.6.6 0 1.1.3 1.6.8.8.9.8 2.1.1 3.1l-.1.2-.2.1c-.6.3-1.2.5-1.7.5zm-.6-2.6c-.1.2-.1.5.1.7.1.1.2.2.5.2.2 0 .4 0 .5-.1l.1.1-.1-.1-1.1-.8zm.6-.4c-.2 0-.3 0-.3.1l.8 1.1s.1 0 .1-.1c.2-.2.2-.6.2-.7-.2-.2-.4-.4-.7-.4h-.1zM417.4 371.7c.8-.8 1.7-.9 2.3-.4.8.8.7 1.7-.2 2.6-.7.7-1.6.8-2.3.1-.7-.7-.7-1.5.2-2.3zm.3.5c-.1.2-.5.4-.2.6.3.2.8.2 1.1-.1.2-.2.5-.7.2-.9-.3-.3-.8 0-1.1.4z"/><path d="M418.2 376c-.8 0-1.5-.3-2.1-.9-1.3-1.3-1.2-3.1.2-4.5.6-.6 1.3-1 2.1-1.1.9-.1 1.8.1 2.4.7 1.4 1.4 1.3 3.3-.2 4.7-.7.7-1.5 1.1-2.4 1.1zm0-3.1s.1 0 .2-.1l-.1-.1c0 .1 0 .2-.1.2zm.3-.2c.1 0 .2-.1.2-.1-.1-.1-.2 0-.2.1z"/><path fill="none" d="M600 100h300v300H600z"/><path d="M671.2 257.7v-2c0-24.7 11.1-44.9 41.9-67.3 20.1-14.7 26.1-19.7 26.1-32.1 0-12.3-6-19.2-17.9-19.2-13.9 0-18.9 8.5-20.9 20.9h-29.8c2-24.5 18.1-45 50.7-45 36.5 0 49 21.7 49 43 0 20.7-8.9 30.7-35.1 49.1-17.5 12.3-24.6 20.4-27 26.8h67.3l-3.8 25.8H671.2zM851.5 257.7v-31.9h-64.3v-26.9l59.3-83.2h33.7v85.2h17.1l-2.8 25h-14.3v31.9h-28.7zm0-82.3c0-15.4 0-24 .6-32.9-5.6 11.9-24.2 39-37.5 58.2h36.9v-25.3zM564.8 534.7l35.5 66-66-35.5s16.3-6.1 20.3-10.1 10.2-20.4 10.2-20.4zM438.2 244.2c-12.7 12.7-23.2 14.4-36.7.9-2.8-2.8-5.7-6.2-7-8.3l11.1-11.1c.9 1.2 2.9 3.4 4.4 4.9 4.6 4.6 8.3 2.8 11.9-.9l35.4-35.4 15.4 15.4-34.5 34.5zM459 266.8c-4 4-6.5 9.6-2.1 14 3.5 3.5 6 3 8.9 1.7l14.6 14.6c-6.8 3.9-19.6 7.6-33.7-6.6-15.1-15.1-10.5-30.9 0-41.3 12.1-12.1 27.7-14.9 42.3-.4 15.5 15.5 9.7 30.7-.2 40.7-1.3 1.3-2.4 2.3-3.6 3.3l-26.2-26zm19 3.5c3.7-3.8 5.8-8 1.5-12.3-4-4-8.4-2.6-12.7 1.1l11.2 11.2zM505.4 313.2c-4 4-6.5 9.6-2.1 14 3.5 3.5 6 3 8.9 1.7l14.6 14.6c-6.8 3.9-19.6 7.6-33.7-6.6-15.1-15.1-10.5-30.9 0-41.3 12.1-12.1 27.7-14.9 42.3-.4 15.5 15.5 9.7 30.7-.2 40.7-1.3 1.3-2.4 2.3-3.6 3.3l-26.2-26zm19 3.5c3.7-3.8 5.8-8 1.5-12.3-4-4-8.4-2.6-12.7 1.1l11.2 11.2zM538.9 375.2l-17.5 17.5-14.8-14.8 43.9-43.9c3.6-3.6 8-8 10.7-10.9l14.5 14.5c-.8 1.2-2.9 3.7-4.1 4.9 4-.8 10.2-.6 16.7 5.8 8.4 8.4 8.7 22.7-4.3 35.7-14.8 14.8-30.3 13.6-39.5 4.4-5-5-6.1-9.6-5.6-13.2zm29.3-5.9c7.4-7.4 7.9-12.4 4.1-16.2-4.7-4.7-9.3-2.9-16.8 4.6-6.9 6.9-9 12-4.7 16.3 4.3 4.4 9.7 3 17.4-4.7z"/></svg>