<svg xmlns="http://www.w3.org/2000/svg" xml:space="preserve" baseProfile="tiny" overflow="visible" version="1.2" viewBox="0 0 1000 1000"><g fill="none" stroke="#000" stroke-linecap="round" stroke-linejoin="round" stroke-miterlimit="10" stroke-width="6"><path d="M175.5 376.3c8.6 8 16.2 16.8 24.7 24.9 14.1 13.5 27.7 27.5 41.5 41.3l94.5 94.5 9.8 9.8c2.8-3.8 7.1-5.9 10-9.8l3.5 3.5c-3.2 3.4-6.7 6.3-9.3 9.9M213.8 312.7c-5.5-4.4-10-9.7-15.3-14.7l6.4-6.4c15.1-15.1 30-30.6 45.5-45.2 6.2-5.9 12.1-12.2 18.9-17.6M345 375.7c-3.6-5.5-7.2-11.1-10.8-16.6-1.3-2-1.2-3.7.7-5.6 7-6.8 13.8-13.7 20.6-20.5 10.6-10.6 21.1-21.1 31.6-31.7 2.1-2.2 3.6-2.2 5.9-.1 2.1 1.8 5.1 2.6 7.5 4.1 3.5 2.1 6.9 4.4 10.3 6.6M201.9 349.3c3.7 2.6 6.8 5.8 10 9 5.9 5.9 12 11.6 17.9 17.4 5.1 5 10 10.1 15.1 15 13.5 13.1 26.2 26.9 40 39.7 1 .9 1.8 2.1 2.7 3.1M468.7 396.6c-2.3-3.7-5.6-3-9.2-2.5-11.9 1.6-23.9 2.9-35.9 4.3-2 .2-3.9.6-5.8.9-.5 3.4 1.5 3.9 3.9 3.5 14.5-2.3 29.2-3.4 43.8-5.2 3.1-.4 4.5-1.2 4.6-4.6 0-2.9.8-5.8 1.2-8.7M461.6 265.9l-6.6 6.6c.6 1.3 1.5 2.3 3.1 3.2l7.1-7.1 48.8 48.8M333.3 321.9c-15.8-17.1-33.3-32.5-49.9-49.4 1.2-3.3 4.5-5.6 7.2-8.1 8.1-7.3 15.4-15.2 23.1-22.8 6.5-6.3 12.9-12.8 19.3-19.2.9-.9 1.6-2 2.9-2.4M300.6 413.2l32.5-32.5c3.7-3.7 4.3-8.6 1.3-12.9-1.8-2.6-3.7-5-6-7.2-4.3-3.8-7.6-8.6-12.2-12.1M200.6 357c12.9 13.3 26.1 26.4 39.2 39.4 12.1 12 23.8 24.4 36.4 35.9 2.1 1.9 5.2 3.6 5.7 7M219.6 335.9c12.8-13 25.7-26.1 38.5-39 7.7-7.8 15.5-15.5 23.2-23.2.4-.4.6-1 1.3-.8M322 352.8l73.6-73.6M543.4 335.6c3.9.8 5.8 4.1 8.1 6.7 1.5 1.7 3.3 3.1 4.9 4.6l50.4 50.4c.3.3.4.7.5 1M472.7 419.5c1-1.1-.8-1.9-.2-3 11-1.7 22.1-3.7 33.2-5 3.5-.4 5.7-2.7 8.3-3.9 6 5.6 11.1 11.3 16.9 16.5 2.5 2.3-.1 4.3-1.8 6M380.3 574.7c8.2 1 16.2 3.2 24.3 4.8 6.2 1.2 12.4 2.5 18.5 3.8 2.4-4.6 4.2-9 7.1-13.3 1.3 1 2.2 1.6 3.1 2.3M333.1 216.6c6.7 6.3 13.1 13 19.7 19.4 10.1 9.8 19.9 19.8 29.9 29.7 3.4 3.3 7.4 6 10.1 10M321.2 195.7l-16.4-16.4 12.1-12.1 19.8-19.8c2.9-2.9 4-2.9 6.9 0l16.9 16.9c.8.8 1.9 1.5 1.8 2.9M521.2 586.8c-5 .7-7.2 5-10.5 8s-6.4 6.3-9.5 9.5c-2.6 2.6-2.6 4.3 0 6.9 7.6 7.7 15.3 15.3 23 23 4.3 4.3 4.9 4.3 9.5 0M378.7 383.6c.3-1.4 1.5-2 2.4-2.9l30.6-30.6c.9-.9 1.5-2.1 2.9-2.4M388.8 193.1c3 1.7 5 4.5 7.4 6.9 11.3 11.1 22.6 22.1 33.7 33.3 1.3 1.3 3.7 1.5 4 3.9M313 411.9c-6.3 5.1-11.9 10.9-17.7 16.6-2.2 2.2-4 5-7 6.3l-.7-.7 37.5-37.5M336.5 425.9c-.1-1 .8-1.3 1.3-1.8l35.4-35.4c.5-.5.8-1.4 1.8-1.3M659.5 535.1c1.6 5.1 6.6 7.1 9.7 11.7l36.9-36.9c-3.9-3.4-6.1-8.3-11.2-10.1"/><path d="M347.9 543.8c.1-1-.8-1.3-1.3-1.8-24.8-25.1-50.2-49.7-74.7-75.2-.8-.8-1.9-1.6-2.8-2.4M559.5 637.8c12.9-12.8 25.7-25.7 38.8-38.2 13.6-13 26.7-26.4 40.1-39.6M421.5 340.9c1.1-2.2 3.1-3.6 4.8-5.3 8.6-8.7 17.2-17.3 25.8-25.9l2.9-2.9c-2.5-.7-3.3 1-4.5 1.9-4.7 3.5-7.9 8.8-13.4 11.4-.9.4-2 1.2-2.1 2.6M550.8 347.2c-.7-.1-1.4.2-2.1-.5-18.7-20-38.4-39.1-57.9-58.3-12.8-12.6-25.4-25.3-37.7-38.3-5.7-6.1-11.6-12-17.4-18M454.7 307.6c7.1 5.1 13.2 11.5 19.8 17.2 7.2 6.3 14.6 12.4 21.5 19.2 4.9 4.8 10.4 8.9 15.2 13.8M155.2 351.2c-3.7-3.7-7.7-7.1-10.9-11.8 1.1-1.1 2.2-2.1 3.2-3.2 9.5-9.7 19.4-19 28.5-29 3.6-3.9 4.1-3.8 7.9 0l12.4 12.4M381.5 208.5c-1.4.5-1.2 1.7-.4 2.2 6.2 3.5 10.2 9.5 15.4 14.1 8 7.1 15.4 14.8 23 22.3 3.6 3.5 7 7.1 10.6 10.5.7.7 1 1.2.4 2"/><path d="M604.9 586c5.4-3.5 9.9-8.2 13.6-13.3 1.6-2.2 3.5-4 5.3-5.8 2.7-2.7 5.6-5.4 8.2-8.1 2-2.1 3.4-2.7 5.6-.3 2.3 2.5 6.6 2.8 9.4 1.1.6-.4.6-1 .5-1.6M188.7 345.1c4.2 4.2 7.9 4.2 12.1 0 6.3-6.3 12.6-12.7 19-19 10-9.7 20-19.4 30.1-29M507.5 514c1.4-3.1 3-6.3 3.4-9.8 1.3-10.7-7.6-22.4-21.4-17.2-12.4 4.7-20.6 13.6-26 25.2-2 4.3-2.8 9.2-.4 13.9 4.6 9.4 12.4 11.2 21.2 8 4.7-1.7 7.8-4.8 11-8.1 4-3.9 7.9-7.9 11.9-11.9M619.4 410l27.2 27.2c.9.9 1.5 2.1 2.9 2.4M589.6 519c-.4 2.2.7 3.8 2.1 5.3 7.7 8 15.9 15.4 23.2 23.7 2.5 2.9 4.3 2.5 7.9-1M554 430.6c-4.8 6.3-4.9 6.4.6 12.1 4.3 4.5 8.8 8.8 13.1 13.1 6.1-3.3 6.9-8 4.8-13.6-1.2-3.2.3-4.6 2.9-5.6M466.6 674.2c-.4-2.6-2.7-3.7-4.3-5.2-1.8-1.7-3.9-3.2-5.4-5.2-2.8-3.8-8.3-4.3-10.5-8.4-3-5.6-9.6-7.7-12.6-13.3-.9-1.7-2.7-3.2-4.8-4.2-1.9-.9-3.6-2.8-4.7-4.7-1.8-2.9-4-5.1-6.9-6.9-3-1.9-2.9-6.3-6.1-8.1-5-2.8-7.6-8.4-12.9-10.9-1-.4-2.3-1.5-2.3-2.3-.1-3-2.2-4.6-4.1-6-4.1-3-6.6-7.5-11-10.1-.6-.3-1-.5-1.6-.5M556.6 354.1c2.8 4 6.7 7.1 10 10.5 6 6.1 12.1 12.2 18.2 18.2"/><path d="M476.1 542.2c-2.3 4.6-3.3 4.5-10 3.3-12.9-2.3-18.4-15.5-16.6-25.7 2.2-11.9 6.2-22.9 15.8-31.2 2.5-2.1 4.7-4.5 7-6.7 4.4-4.3 10.4-4.7 15.7-6.4 3.8-1.2 7.9-1.3 11.8-2M465.8 392.6c1.5-4.7 1.6-9.7 2.4-14.5 1.7-11 3.3-22 5-33M311.7 268.1c-1.1.2-2.4 1.3-3.4.2-.9-1-.6-2.4-.1-3.6.6-1.4 1.6-2.6 2.6-3.7l16.9-16.9c.7-.7 1.5-1.5 2.4-1.8 2.7-.8 4.4.7 4.5 3.9M672.7 464.9c3.7-.6 5.4 2.4 7 4.6 1.3 1.8-.4 3.7-3.3 4.9l-10.8-10.8c-10.3-10.3-20.5-20.6-30.9-30.9-5.6-5.5-10.7-11.4-16.9-16.4M321.9 276.1l18.3-18.6c1-1 1.9-2 2.3-3.5 1.2-4.2-.9-6.9-5.2-6.2-.4.1-.9.2-1.3.3M504.3 602.1c3.3 3.7 6.6 7.4 10 11.1 1.1 1.1 6 .8 7.3-.5 4.9-5.1 4.3-7.7-.8-12.9-2.3-2.4-4.9-4.6-7.4-6.9M335.5 359.4c7.6-7.4 15.1-14.8 22.7-22.1.8-.7.9-1.6 1.3-2.4M394.8 361.7c2.5-1.9 5.2-3.2 7.1-6.2 2.1-3.4 5.8-5.7 8.8-8.6 3.3-3.2 6.7-6.4 9.7-9.8 3.8-4.3 8.9-7.3 12.7-11.6.6-.6 1.6-1 1.6-2.1M391.4 189.9c4.2 2.9 7.4 7 11.1 10.6 9.3 9 18.6 18 28 26.9 1.7 1.6 4.1 2.6 6 4 4.4 3.3 10.1 4.2 14.3 7.9 1.3 1.2 2.5 2.5 3.7 3.7M252.9 360.2c6.2-6.5 12.3-13 18.5-19.5 1.2-1.3 3.2-1.7 3.7-3.7"/><path d="M429.1 549.6c-3.5-.2-6.9-.7-10.3-1.2-1.7-.3-3.1-1-3.9-2-3.2-4-7.2-7.3-10.6-11-2.7-2.9-2.8-4.5 0-7.4 5.8-5.9 11.8-11.8 17.7-17.7 4.9-4.9 9.8-9.9 14.8-14.8 5.6-5.4 11.4-10.5 16.8-15.9 10.6-10.5 21.1-21.1 31.7-31.7.4-.4.5-.9.8-1.3M655.3 533c-1.7-3.7-5.3-5.7-7.8-8.6-4.7-5.5-10.1-10.3-15.2-15.4l36.2-36.2M379 580.2c-9.6-9.9-19.8-19.3-29.1-29.5-1.2-1.3-2.8-2.1-3.6-3.8M318 436.9c1.7.1 2.8-.7 4-1.8 7-6.9 14-13.8 21.1-20.6 7.2-6.9 15-13.1 21.5-20.7 3-3.4 6.5-6.2 9.6-9.4 3.1-3.1 6.2-6.1 9.2-9.3 1.4-1.4 2.8-2.8 4-4.4 2.2-2.8-2.4-3.2-1.6-5.3M522.8 581.6c-2.5 2.8-2.3 4 .5 6.4 2.2 1.9 4.3 3.9 6.1 6.1 3.7 4.6 8.4 8.2 12.2 12.6 1.3 1.5 3.5 1.5 4.4 1.1 2.6-1.1 3.9.2 5.3 1.8 6.4 6.9 7.6 5.8 13.2 0 9.1-9.2 18.3-18.3 27.4-27.5 4.3-4.3 4.3-6.3 0-10.6l-26.1-26.1c-.3-.3-.6-.4-.9-.7-4.6-5.3-5.2-5.3-10.2-.3L544.1 555M368.4 452.5l19.5-19.5c.7-.7 1.8-1.2 1.9-2.4M366.6 452.8c-3.6 2-5.9 5.4-8.8 8.1-2.5 2.2-4.8 4.7-7.2 7.5l21.6 21.6M357.1 204.2c.9 3 3.4 4.9 5.6 6.5 4.9 3.3 8.1 8.1 12.3 12 6 5.6 11.5 11.7 17.8 17 6.6 5.6 12.4 12.2 18.6 18.3 5.2 5.2 10.5 10.3 15.5 15.6 1.9 2 3.3 4.4 5.3 6.3 1.1 1 2.1 1.7 3.4.3 2.7-2.9 6-5.3 8.2-8.7M578.8 610.1c-6.7 5.4-12.3 11.9-18.5 17.9-8.1 7.9-15.8 16.2-24.2 23.8-1 .9-2.2 2.2-1.9 4 2.3-.8 3.6-2.7 5.3-4.3 5.5-5.3 11-10.5 16.3-15.9 7.6-7.9 15.9-15.1 23-23.5 7.3-8.7 16.2-15.9 23.5-24.5 4.5-5.2 9.6-9.8 14.3-14.7.4-.4.6-1 1.3-.8M350.2 468.1c-7.9-8.1-16.3-15.7-23.9-24.4 2.7-3.5 6.3-5.9 8.5-9.4M542.6 335.3c-1.9-3.2-5.2-5.1-7.4-7.9-8.7-11.1-19.1-20.6-29-30.6-3.8-3.9-7.8-7.7-11.6-11.6-1.3-1.4-3-2.3-4.5-3.4M424.6 347.2c2.4-.4 3.9-2.5 6-3.5 7.9-3.5 17.4-1.3 23.9 4.7 5.9 5.5 8.7 11.7 7.8 19.6M389.3 478.1c2.6 1.7 4.9.7 6.8-1.1 6.5-6.3 12.9-12.8 19.3-19.2.8-.8 1.7-1.6 1.3-2.9M204.3 351.7c-6.5 7.6-13.9 14.2-20.8 21.4-1 1.1-2.2 2-2.9 3.5 2.9 1.5 4.1 4.6 6.6 6.6M579.3 494.5c3.3-.9 4.7-4.1 7.1-6.1 3.7-3.3 7.2-6.9 10.6-10.5 2-2.2 3.6-1.8 5.3 0 3.8 4 7.6 7.9 11.3 11.9M585.9 383.9l20.6 20.6M432.3 550.7l1.3-1.3c3.7-3.1 3.8-3.2 7.1.3 4.4 4.5 8.9 9.1 13.2 13.7 2.7 2.9 2.5 3.8-.8 6.6-.5.4-.9.9-1.3 1.3-4.3-2.9-9.3-1.7-14.1-2.4 5.5 7.9 12.9 14 18.6 21.2L437.4 609c-3.3 3.3-6.4 7.1-10.1 9.9-2.7 2.1-1.4 2.9.1 4.4 12.1 12.3 24.6 24.3 36.6 36.8 1.4 1.5 2.9 3.1 4.5 4.5 3 2.5 3 2.9 5.9-.1 9.9-10 19.9-19.9 29.8-29.8 1.5-1.5 3.2-2.8 4.7-4.2M182.8 350.8c6.6-7.3 14.1-13.7 21.3-20.4 1.4-1.3 2.7-2.7 2.8-4.5.2-2.5 1.4-4.1 3.5-5 1.9-.8 3.1-2.2 4.5-3.5M279.6 381.7c6.7-7.4 14-14.2 21.2-21M253.9 371.8c5.6 2.7 8.9 8 13.5 11.9 3.7 3.2 6.2 7.7 11.1 9.6.5.2.7 1 1.1 1.5 1.8 2.8 2.8 3 5.5.8M378.5 384.4c10.4 10.1 20.9 19.9 30.8 30.5 1.4 1.5 2.7 3.9 5.4 4.1M690.1 493.9c-4.5-5.7-9.7-10.7-15-15.6-5.2-4.8-10.1-10-15.1-15-4.5-4.5-8.9-9-13.5-13.4-7.5-7.3-14.4-15.1-22.4-21.9M283.5 249.3c3-2.7 4.5-6.1 6.4-9.6 2.6-4.8 7.1-8.7 11.2-12.4 1.3-1.2 3.3-1.9 4.6-3.3 2.3-2.4 4.7-4.4 7.6-6.1 4.2-2.4 8.1-5.5 9.5-10.5.2-.8.7-1.2 1.1-1.6 3.5-2.9 6.9-5.9 8.7-10.3.6-1.5 2.4-1.8 3.7-2.6 2.3-1.5 4.8-2.4 4.6-6.1-.1-2.2 1.2-4.6 3.3-6.1M443.6 422.2c.1 1.4-.4 2.8.9 4.1 12.6-2.1 25.4-4.2 38.1-6.2 2.5-.4 4.4.3 6.1 2.3 3.1 3.5 6.7 6.7 9.9 10.1 1.2 1.3 2.6 2.1 4.2 2.6M497.5 692.9c.9 3.1 3.4 5 5.8 6.9.2.2.3.4.5.5 1.8.8 1.8 4.1 4.2 3.6 2.1-.4 3.2-2.7 4.8-4.1 1.4-1.2 2.7-2.6 4-3.9M329.1 294.4c-1-3.8-4.9-5-6.9-8.3-3.6 3.4-6.5 6.8-10.4 9.3 1.7 2.3 3 4.6 6.1 6.1 2.9 1.4 5.4 4.4 7.2 7.4.3.4.1 1.1.5 1.6 2.6 2.9 3.4 2.9 6.3 0 1.8-1.9 4.3-3.1 5.6-5.5.7-1.3.9-2.2-.2-3.5-1.9-2.2-3.6-4.5-6.1-6M290.1 322.4c-7.1-7.3-14.6-14.3-21.5-21.8-2-2.2-4.9-3.5-6.5-6.2M336.2 291.5c7.5-6.4 14.1-13.7 21.1-20.6 1.2-1.2 2-3 1.1-4.7-1.2-2-2.3-4.4-5.5-3.5M472.4 375.5c1.5-9.6 3.1-19.2 4.4-28.8.3-2.4-.8-3.7-3.4-2.4M416.2 534.6l26.7-26.7M476.9 476.5c-.1-1.3.8-1.9 1.6-2.6 6.5-6.3 12.6-13.1 19.5-19M448.1 452.5c4.3-1.9 9-2.2 13.5-2.7 8.3-.9 16.4-2.9 24.7-3.7 4.2-.4 8.8-.7 13.1-2.6 1.5-2.2-.4-3.4-1.7-4.7"/><path d="M282.4 440.4c1.3 1.8 3.5 2 5.3 2.5 7 2.1 13.4 5.7 20.5 7.6 1.8.5 2.9.3 4-.9 5.6-6.5 11.9-12.3 18-18.4.2-.2.7 0 1 0M453.9 305.8c-1.9-8-5.8-15.3-8-23.2-.2-.8-.6-1.9-1.9-2M476.6 596.6c1.9-2.5 3.9-4.9 6.5-6.7 2.5 3.8 2.5 3.9-.7 6.7-3.4 2.9-3.2 2.8-.3 6.1 7.5 8.7 16.2 16.2 23.9 24.7 8.3 9.2 17.5 17.7 26.3 26.5.4.4 1 .7 1.6 1.1M161.5 368.1c6.1 5 11 11.2 16.4 16.9 6.2 6.5 12.1 13.4 18.8 19.2 7.5 6.4 14.1 13.7 21 20.7M530.2 569.4c5.7 2.2 10.3 6 14.8 10.6 3-3 5.5-5.9 8.5-8.4 1.6-1.3 1.1-1.7.3-3-1.3-1.9-2.9-3.5-4.6-4.9-2.9-2.3-2.7-6.2-5-8.8M450 240.1c5 5.9 10.5 11.3 16.4 16.4M255.8 287.6c-1.4-2.7-3.7-4.8-5.8-6.8 3.4-3.4 6.4-6.8 9.9-9.7 1.9-1.5 3.3-3.4 5.2-4.9 1.9-1.5.4-3.1-.6-4.1-3.4-3.6-7-7.1-10.5-10.6-1.2-1.2-2.4-1.2-3.9-.3 1.1 2.5 3.4 4 5.2 5.9 2.3 2.6 5.7 4.4 5.8 8.4M234.6 273.3c-4.1-3.9-3.8-4.3-.3-7.7 5.2-4.9 9.7-10.4 15.6-14.5M283.5 263c11.7-10.2 22.2-21.8 33.6-32.4 10-9.4 19.9-18.8 29.9-28.2 3.5-3.3 2.6-6.1 1.7-9.4-.9-3-3-4.5-6.3-3.7M369.2 454.4c.9-.1 1.5-.4 2.1-1l19.8-19.8c.5-.5.9-1.2 1.3-1.8.1-1.5-1.5-1.3-2.1-2.1M479.8 442l-33 5.4c-.4 2-1.3 3.4.9 5.6 5.2 5.4 10.6 10.5 15.7 15.9M429.9 584.2c8.3 2.4 16.7 4.2 25.3 5.3M549.7 391.6c-2.9-1.4-4.1-.8-4.2 2.1-.1 1.4-.3 2.9.1 4.2.3.9 1.2 2 2.5 2.1 1.4.1 2.5-.3 2.9-1.8.7-2.3.9-4.5-1.1-6.3M588 435.6c2.3 6.3 3.2 13 4.7 19.5.3 1.4.4 1.7 1.6 1 .5-.3.9-.9 1.3-1.3 9.1-8.8 18.3-17.6 27.4-26.4.2-.2.2-.5.3-1-2.5-3.5-6.4-5.8-8.8-9.6M187.1 341.9c1.6-3.9 5.4-5.9 7.9-9 2.1-2.6 5.3-4.3 6.6-7.7M310.1 451.2c3.8 5.6 8.5 10.4 12.9 15.6 6.3 7.4 12.8 14.7 19.3 21.9 4.1 4.6 8.5 9.1 12.6 13.8 6.7 7.6 13.2 15.3 19.8 22.9.6.6.6 1.5 2.1 1.7 8.1 1.4 16.2 3 24.3 4.1M263.4 364.9l20.1-19.5"/><path d="M160.8 367.8c-3.3-2-1.6-3.8.7-5.9l14.1 14.1c2.9-5 8.8-6.9 9.8-12.6M489.6 532.5c3.3 5.6 8.7 9.3 13 14 3.9 4.2 8.7 7.5 11.7 12.6.7 1.2 2.7 2.2 4.1 3.2 1.3.9 2.3.8 3.8-.9 4.2-4.9 8.8-9.5 13.7-13.7 2-1.7 2.2-2.5.5-4.4-7.3-7.5-14.3-15.2-21.7-22.6-2.2-2.2-3.7-5.2-7.1-6.1M253.1 282.8l11.9-11.9c6.6-6.4 13.2-12.8 19.8-19.3M521.8 412.7l13.1-13.1c5.7 4.5 10.3 9.6 15.2 14.4 1.1 1.1 1.9 2.1 2 4 .1 3.8 2.6 7.3 1.3 11.4-.1.4.7 1.3 1.3 1.8 5.8 5.1 11.2 10.6 16.4 16.4.2.3.9.2 1.3.3M253.1 357.3l-2.4.3c-1-3.1.2-5.2 2.4-7.2 5.6-5.4 11.1-11 16.6-16.6 1.8-1.9 3.6-2.8 5.6-.3M438.6 387.1c-15.9-1.2-27-16.5-19.3-32.5.2-.4.2-.9.3-1.3M517.8 694.8l27.3-27.3c-2.6-4.2-6.9-7.4-10.4-11.2M418.1 619.3c-5.5-5.5-5.4-5.5-1.4-12.4 4.3-7.3 8.5-14.8 12.5-22.3 1.9-3.6 1.6-8.1 4.3-11.6.4-.6 1.6-1.2 1.5-2.3M535 398.9c-.6-7.8-3.9-15.1-4-23 0-.4-.8-.9-1.3-1.3-6-5.5-12-10.9-17.9-16.4M307.7 295.2c.1-1.6 1-2.7 2.1-3.7 3.6-3.3 6.5-7.2 10.6-9.9 1.5-1 .6-2.5 1.3-3.5M537.6 503.4c0 .2-.1.4 0 .5 7.7 7.6 5.4 7.1 12.1.5 2.1-2.1 4.5-4 6.1-6.8-.6-1.9-2.7-2.8-3.8-4.5-1.6-2.4-4.1-1.1-5.3.3-2 2.2-4.6 4-6.3 6.3-2.3 3.1-4.6 3.8-7.9 2.1.8 5.9 2.9 8.4 8 9.6M394 185.2c4.7 6 10.6 10.8 16 16.2 1.4 1.5 1.9 3.3 3.2 4.7 4.4 4.7 10 7.6 14.8 11.6 2.3 1.9 4.3 4.2 6.4 6.3M447.9 568.4c-4.3-4.7-8.6-9.4-12.9-14-6.1-6.4-12.8-12.2-18.5-19-.7-.8-1.6-1.4-2.6-1.6-3.5-.4-6.9-1.9-10.6-1.6M234.6 442.8c-1-3.2-3.6-5.1-5.8-7.4-2.1-2.2-4.4-4.4-6.6-6.6M571.6 427.2c.4 3.3 2.6 2 4.2 1.5 5.7-1.6 11.5-3.1 17.1-5 4.8-1.6 9.6-3 14.5-4 3.2-.6 6.2-2.1 9.3-3.2-.9-3.1-2.3-5.4-5.9-4.3-1.4.4-1.6-.6-2.1-1.1-5.8-5.3-11.8-10.3-16.4-16.9-.2-.3-1.1.5-1-.5M311.4 269.9c7.2-6.9 14.4-13.7 21.6-20.6 1.3-1.2 2.3-2.6 3.4-3.9M545.2 531.7c-.6-4.3.6-7.5 4.1-10.7 6.8-6.1 13-13.1 19.4-19.7M350.5 198.1c5.1-3.5 9.5-7.8 12.9-12.9M187.7 362.5c5.8-4.4 10.7-9.7 15.2-15.5 3.6-4.7 8.2-8.6 12.6-12.7 2.8-2.6 4.7-6.2 8.1-8.3.4-.3.7-1.7.1-2.6M377.1 318.2l16.1-16.1M531.5 376c7.6.5 15.1 1.1 22.7 1.6"/><path d="M581.1 498.4c.6 1.7-.5 2.7-1.6 3.7-6.7 6-12.5 12.8-19.4 18.7-3.2 2.7-5.8 6.5-8.9 9.5-1.6 1.6-2.7 3.9-5.5 4.1-1.2.1-.2 2.2-1.4 2.5-6.8-2.6-8.2-9.4-11.4-14.5-1.8-2.9-3.4-6.2-5-9.4-.4-.8-1.3-1.5-.2-2.4M325.7 286.3c5.1-4.8 10.3-9.4 15.3-14.3 2.5-2.4 4.7-5.1 7.2-7.6.7-.7 1.3-2.1 2.7-1.2M432.4 257.4c-.4.8-1.7 1.5-.1 2.5 3.9 2.6 6.4 6.6 9.8 9.7 2.8 2.6 3.9 2.4 6.6-.2 2.1-2 3.5-4.7 6.6-5.6M265 459.4c-2.5-.9-4-3-5.8-4.8-15.7-15.6-31.3-31.3-47-46.9-7.2-7.2-14.6-14.3-21.9-21.4l-2.6-2.6M372.7 197.1c5.7 4.1 11.3 8.4 17.2 12.4 7.5 5.1 14.1 11.4 22.1 15.9M470.8 262c4.4 3.5 8.4 7.5 11.9 11.9M593.3 387.1c3.3 3.3 6.4 6.6 9.8 9.7 1.2 1.1 1.8 3.3 4.5 2 1.3-.6 6.2 5.6 6 7.5-.1 1.3.7 1.7 1.4 2.4 3.1 3.1 6.1 6.2 9.2 9.2M583.5 417.4c-3.4-1.3-6.6-.2-9.8.8-.9.3-1.6.7-1.6 1.6 0 1.6-.7 3.2 0 4.8-1.4.7-3.1-.3-4.5 1.3 1 1.5 1.6 3.5 4.1 3.2M513.6 420.3c.8-1 2.3-1.5 2.3-3.3 4.7 1.4 6.9 5.6 10.1 8.3M452.1 571.5c.4 3.1 3.4 4.2 5.2 5.9 3.7 3.6 7.1 7.4 10.4 11.3.3.4.7.4 1.1 0M501.4 474.2c10.4-.1 20.3 9 20.9 20.3.4 7.8-1.3 14.9-4.8 21.6l-2.4 4.5M333.9 387.9c3.7-4 7.9-7.6 11.5-11.8.8-1 2-2.8 4.7-1.9 1.7.6 3.1-2.5 4.7-4M558.2 482.3c8.7 3.5 17.2 7.1 22.7 15.3M443.1 421.1c6.6-.1 13-2 19.4-2.6l.9 1.8M393.2 460.4c2.9-.8 3.7-3 2.5-5.2-1.8-3.4-2.3-7.3-4.1-10.6-1.9 1.2-3.6 2.5-4.2 4.8"/><path d="M485.9 276c-1.3-.2-2-2.1-3.7-1.1-1 .6-1.5-.4-2.1-1-2.9-3.1-5.7-6.3-8.8-9.2-1.5-1.4-.3-3.2-1.3-4.5M406.2 288.6c2.5 4.3 6.8 3.9 10.8 3.9 4.3 0 8.2-.8 11.2-4.6 3.1-4 3.4-3.8 7.8-.6M373.2 355.9c3.6 1.3 6.1 4 8.1 7.2 1 1.6 1.6 3.3 4 2.9M314.1 410.3c4.9-3.9 8.9-8.7 13.5-12.9 1.9-1.8 3.4-4 5.8-5.3M415.1 418.5c-1.3 1.3.2 1.7.8 2.4 6 6.4 11.6 13 18 18.9 4 3.6 7.2 8 11.8 10.9M591.4 455.4c-6.4-5.3-11.9-11.7-17.9-17.4M483.5 589.7c2.2-3.6 5.6-6 8.5-8.9 7.2-7.2 14.7-14.1 22.1-21.2M384.5 235.9c7.9 7.9 16.1 15.6 23.7 23.8 7.4 7.9 15.3 15.3 22.8 23.1.5.5.2.8.5 1.1M465.8 443.8c-2-4.6-6-7.8-8.4-12.2-1.2-2.3-4.8-3.1-4-6.6"/><path d="M393.5 330.9c14.1-15.3 29-29.8 43.9-44.2 6.7-6.5 11.6-14.4 18.1-21 .3-.3.2-.9.3-1.3M548.7 347.2c-2.8 3.4-5.7 6.6-9.3 9.3.7 1.4 1.3 2.8 3.2 3.6l10.3-10.3M442.9 266.2c-3.4-3.8-6.1-8-9-12.1-4.5-6.3-9.2-12.3-13.4-18.8-2.3-3.5-4.7-6.8-7.7-9.7M176.9 345.4c4.5-2.4 7-6.8 9.9-10.6 2.3-3.1 4.7-5.8 8-7.9 3-1.9 5.5-4.4 9.2-5.2 1.6-.3 2.1.7 3.2.7M283.5 398.7c4.3 5.4 9.1 10.2 14 15 .2.2.8-.1 1.3-.2M341 429.8l26.8-26.8c-.2-2.1-.1-2 2.7-2.7.5-.1 1-.4 1.3-.8 3-4 6.9-7.2 10.3-10.8M598.8 555.2l2.4-2.4c1.2-1.1 1.1-2 0-3.2-1.8-1.9-3.5-3.9-5.3-5.8M635 481c-.9-2.6-1-5.2 1.6-6.8 2.2-1.3 4.6-3.1 7.4-1.1M439.7 387.1c6.9.1 12.7-1.9 16.8-8.1 1.1-1.7 3.1-3.2 4.9-4.6M475.1 545.4c5.4 1.8 10.4-.4 15.3-2.2 1.8-.7 3.8-1.2 5-2.9M392.7 290c3.2-5.1 9.7-3.5 11.1 2.6M502.5 294.2c-.5.6-.9 1.2-1.9.3-3.6-3.6-7.4-7.1-11-10.6-.4-.3-.8-1.2-.8-1.3 3.6-3.4-.9-4.2-1.9-6.1-.2-.4-.2-.9-.3-1.3M512 440.4c1.4-1.6 3.4-.8 5.1-1.2 4.1-1 5.9-4.6 3.1-8.1-4-5-6.8-10.9-11.4-15.2l5-5 13.3 13.3M593.8 513.7c2.9 2.9 5.9 5.7 8.7 8.7 1.8 2 3.9 3.5 6.6 3.4 3.7-.2 6.9-4.6 5.1-7.8-1.9-3.4-4.4-6.7-8-8.9-1.7-1-2.4-1.3-3.8.5-1.6 2.2-4 3.8-6 5.6M527.8 433.5c-1 3 1.6 4.4 3 5.9 1.3 1.4 2.6-.3 3.3-1.5-.4-2.4-3.1-2.9-3.8-4.9-.1-.3-1.6-.9-2.3.2M412.5 613.2c-1.7-.6-2.6-2-3.3-3.3 4.2-8.9 9.9-17.1 13.4-26.3M368.4 161.7c3.1 1.8 6 3.8 7.4 7.4 1 2.4 3.9 2.8 5.8 4.1 1.5 1 2.5 1.8 3.5 3.4 1.6 2.5 3.9 4.9 6.7 6.5M367.9 388.7c-4.5-5.7-10-10.4-15-15.6M537.3 339.6c2.4 3.7 5.9 6.4 9 9.5M491.1 439.6c-2.4-3.9-6.2-6.5-9.1-9.9-1.6-1.7-1.6-2.4-.4-3.8 1.5-1.7 3-3.3 4.5-5M370.6 371.8c2.7-.8 4.1-2.9 5.6-5.2-4.9-1.7-6.7-.3-6.1 4.7M375.8 174.9c-.6-2.8-3.2-3.8-4.8-5.8-1.6-2.1-4-3.4-5.3-5.8M349.7 200.5c.2.2.4.3.5.5 2.2 4.3 3.9 4.3 7.2.8 4-4.3 8.2-8.3 12.4-12.4.6-.6 1.6-.9 2.4-1.3M294 329.5l9 9M363.4 168.3c4.1 1.8 6.2 5.8 9.5 8.4M383.7 478.9c2.7 1.5 4.5-.3 5.7-2.2 3.5-5.4 8.7-9.3 13.1-13.9 2.5-2.6 5.3-4.9 7.6-7.7.8-.9 2-1.7 3.1-2.1 2.3-.9 2.7-3 3.7-4.8M641.3 487.3c6.4 1.2 9-1.2 7.9-7.4M487.5 420.1c.8-.9 1.6-1.2 2.9-1.4 5.9-.8 11.8-1.9 17.7-2.8"/><path d="m358.7 180.4 2.4 2.4c2.4 2.6 5.2 2.7 7.3-.1 1.8-2.3 3.9-4.2 5.9-6.3.9-1 2.1-1.5 3.4-.8 3.5 1.8 3.5 1.8 4.2-2.1M561.1 378.1c4.8-.2 9.5 1.6 14.3.5M650.3 439.8c3.4 2.1 5.5 5.9 9.2 7.7M423.1 469.7c3.5 7.3 13.1 8.7 19.8 2.9 3.2-2.8 4.6-6.3 4.2-10.6M506.7 604c3.5-2 5.4-5.9 9-7.9M457.4 590.5c4.7 1 9.3 1.9 14 2.9M334.7 389.2c-.4 2 1 3 2.1 4.2 2.9 3.1 4.8 7.3 9.3 8.7M554.7 649.4c3.3-4.8 3.3-4.9-2.6-9.5M471.4 666.8c.1 2.3 2.1 3.1 3.5 4.5 5.4 5.4 11.1 10.4 16.2 16 1.9 2.1 5 1.7 6.3 4.1.2.1.4.2.5.2 1.1-.9 2.2-1.8 3.3-2.8M283.2 344.6c0-5.6-1.6-7.4-6.6-7.7M573 423.8c8.4-2.1 16.7-4.4 24.8-7.4 3.4-1.3 7-2.3 10.6-3.1.9-.2.6-.9 1-1.1M262.4 456.7c3.4-3.1 6.9-6.2 10.3-9.2M590.4 428.5c3.7-1.4 7.5-2.7 10.8-5M623.4 497.4c2.8-2.8 5.5-5.8 8.7-8.2 1.8-1.4 3.2-3.1 2.7-5.8-.1-.8-.1-1.8.8-2.4 3.9-2.6 6.3-6.8 10.5-9.2 5 2 5.9 3.8 3.5 7.3M393.5 462.3c-1.9-4-4.1-7.9-4.5-12.4M596.7 472.8c-2.3-2.8-1-6.5-2.5-9.6-.8-1.6-.5-3.8-.6-5.8M672.3 465.6c.6-1.4-.8-2-1.5-2.4-1.4-.8-2.2-1.8-2.6-3.2-.2-.7-.7-1.5-1.3-1.8-4.6-2.6-6.3-7.8-10-11.1M631.8 420.3c-.5-2-2.3-3.1-3.6-4.3-1.1-1.1-2.1-2.4-3.3-3.6M670.9 524.8c-.8-1.3.3-1.9 1.1-2.6 3.7-3.5 7.4-7 11.1-10.6.9-.8 1.8-1.1 2.9-1.4 3.3-.6 4.1-1.9 4-6M353.4 309.7c-.1.8-.2 1.6-.4 2.5 2.9 1.1 4.9.4 7.3-1.9 5.7-5.4 11.1-11.1 16.8-16.5.9-.9 1.7-2 2.1-3.2 1.2-3.6.4-4.4-3.6-4.2M265.3 457.5c2-1.7 3.4-4 5.8-5.3 2.1-1.1 2.9-3.5 4.2-5.3 3.4-4.9 9-7.6 12.7-12.1M241.5 281.2c-.2-.5-.5-1.1-.5-1.6.4-5.2-3.7-7.7-6.6-10.8M266 459.4c2.4-.3 3.2-2.3 4.5-3.9 1.3-1.6 1.8-1.5 2.9.2M326.2 395.5c1.8-1.8 3.6-3.5 5.3-5.3 1.9-2.1 5.1-2 7-4.6 1.5-2.1 3.2-4.6 6.2-5.4M419.4 231.6c5.4 3.2 10.1 7.5 15 11.4 5.8 4.4 11.4 9 17.2 13.4M630.5 542.5c-.7 2.3-1.9 4.6-4.3 5.2-2.5.6-4.1-2.3-7.5-2.3 1.7-3.4 3.8-5.2 6.2-6.8.8-.5 1.9.1 2.6 1 2.7 3.2 3.6 3.3 6.1 1.3 2.5-2 2.4-3.1.1-6.4-.6-.8-1.6-.9-1.9-1.8M249.7 458.3c-2.7-1.2-4.3-3.6-5.7-5.9-1.8-2.9-4.1-5-6.7-7.1M339.4 223.5c-1.7 1-2.6 2-.8 4 2 2.3 3.5 1.9 5.1-.3M495.6 284.2c3 1.5 4.4 4.8 7.4 6.3M476.4 264.4c2.2 2.4 4.4 4.8 6.6 7.1"/><path d="M635 486.3c3 2.1 5.5 1.7 8-1 1.7-1.8 3.2-3.9 5.5-5.1M216.7 334c3.5 2.6 5.5 6.9 9.8 8.7M532.6 501.1c2.3-3.7 5.7-6.2 8.7-9.2 3.1-3.1 6.4-6 9.5-9 2.8-2.8 2.8-2.8 6.6-.8M453.9 656.2c5.6 5 11.5 9.7 15.9 15.4-.4 2.5-2.7 2.3-3.8 3.6M298.5 466c.9 1.1 1.8.1 2.6 0 .6-3.6-.9-6.5-3.7-8-2.1-1.1-2.9-.1-3.2 1.6-.5 3.1 2 4.5 3.7 6.3M383.5 234.8c-5.4-4.5-10-9.7-14.9-14.6-.8-.8-1-2.1-2.2-2.5M461.6 300.2c-.8-1.8-3-3.7-.7-5.5 2.2-1.7 3.6 1.1 5.4 1.8.1 0 .4.9.8 1.2 1.4 1 1.8 2.3 1 3.7-.9 1.5-2.2.3-3.4.4-1.5.1-1.7-1.5-2.9-1.4M576.7 436.9c2.8 1 5.6.3 8.4.5 1.1.1 1.4-.8 1.8-1.4 2.3-3.3 3.6-6.8 1.9-10.8M557.9 645.7c.9-.2 1.8-.4 2.9-.6 1-4.2-1.7-6.9-4.2-9.7M552.9 428.5c-4.8-4.3-9.5-8.9-13.7-13.7-2.5-2.8-2.4-7.9-2.6-12.2M542.1 629.3c.9-.5 1.8-1 2.6-1.6 2.8-2.1 2.8-3.4.3-6.1-1-1-.9-3.3-3.2-2.6-1.6.5-2.7 1.7-3.8 3.1-1.4 1.9-3.5 3.2-5.2 4.8-1.2 1.1-2.7 2.4-2.1 4.2.8 2.2 3 3 5 3.3 1.7.3 3.4-.8 4.4-2.3.6-.9.9-1.9 1.3-2.9M500.4 441.4c3.7-.5 7.4-.9 11.2-1.4-.7 3-3.8 4-4.4 6.7M654.2 538.8c1 .6 1.1 1.6.7 2.4-1.3 3-.4 5.8.3 8.7.7 2.8-.9 5.1-3.4 5M270 229c2.5 1.8 5.3 3.3 7 6.3.9 1.6 2.4 3.1 4.7 3.2M305.1 331.1c3.5 2.8 6 6.7 9.8 9.2M343.4 255.4c5.4-.5 6.9.5 6.9 4.8M389.8 178.9c2.4 1.8 3.3 5.2 6.3 6.3M367.4 278.9c-1.3-.1-1.9.9-2.6 1.6-6.6 6.3-12.5 13.2-19.5 19-2.1 1.7-.4 3.9.2 5.2 1.4 3.3 7.2 3.7 9.9 1.1 6.4-6.3 12.7-12.7 19-19M218.7 313c3.1.1 5.8-2.1 7-5.9.4-1.3.4-2.8.6-4.2M309.3 341.7c2.1 1.9 4.3 3.8 6.3 5.8 1.1 1 1.1-.4 1.6-.5M366.1 277c1.1-3.8-1-6.3-5.8-6.9M388.8 369.4c2.5-1.7 4.6-3.8 6.3-6.3M209 418.7c2 2.2 4 4.4 6.1 6.6M578.5 390.2c-.7-3.3-2.5-6.5-1.6-10M336.5 294.4c1.3 3.1 3.4 5.3 6.9 5.8M427.3 445.9c2.9-1 4.6-3.4 6.3-5.8M285.3 345.1c3.9-.6 5.2 2.3 6.6 5M181.3 348.8c-3.5 2.9-3.6 7.5-.3 10.3 1.4 1.2 2.8 2.5 4.2 3.7M272.4 372.8c6.5-6.3 13-12.7 19.5-19M347.6 180.4c2.7-.7 4.3-3.7 7.7-3.1.6.1 2.4-1.7 2.9-3.2.7-2.6 2.7-4.3 4.5-6.1M374.5 284.4c.1-3.7-1.6-5.3-5.8-5.8M353.9 205.2c3.6 4.6 8 8.5 12.4 12.4M589.6 378.1c-1.3-2.5-3.9-3.8-5.5-6.1M538.9 653.1c1.2 1.3 2.5.7 4 .4 1.7-.4 3.6-.8 5.3.4M365.8 404c-1.3-1.4-3.3-2.4-1.1-4.8 3.4-3.7 4.3-4 7.7-1.8M254.7 359.9c.8 3.3 2.7 5.4 6.3 5.3M355.8 369.1l5.6-5.6c-1.4-3.4-2.3-.4-3.4.3"/><path d="M650.8 552.8c-.7-1.8-1.7-3.5-2.8-5.1-1.2-1.7-1.3-3.5.7-5 1.7-1.3 3.3-2.7 5-4 1.5-1.1 2.9-2.7 1.9-4.9M286.9 249.1c1.1 2.5 3.7 3.7 5.5 5.5M169.2 359.9c3.6.4 5.7-2.7 6.6-4.9 1.1-2.6 2-5.4 3.2-8.1M521 431.4l15.6-15M335.1 327.3c.5-1.7 1.1-2.6 2.8-.9 1.6 1.6 3 3.4 5 4.5M682.7 507.1c2-4 3.3-4.6 6.9-3.2M266 465.7c3.3-2.4 6-5.2 8.4-8.4M199 408.7c1.2 2.3 3.4 3.6 5 5.5M175.8 385.5c1.4 2.8 4.5 4 6.1 6.6M534.2 539.6l5.3-5.3M656.9 535.1c2.5.3 3.7-1.3 4.8-3.1.7-1.2 1.7-2.1 2.6-3.2M287.2 391.8c1.4 4.3 2.6 4.7 5.8 1.6 5.7-5.6 11.3-11.2 16.9-16.9 1-1.1 2.6-1.4 3.3-3.1 1-2.5.2-4.2-2.7-4.8M397.5 201.8c-.7.7-1.4 1.1-.3 2.4 3.3 3.8 6.4 7.7 9.2 11.9 2 3 4.9 5.2 6.1 8.7M367.1 404.8l.3.3c1.9 1.3 3 .6 5.9-2.6 1.5-1.7 1.8-2.8-.6-3.7M275.3 232.2c3.5-.8 6 .9 8.2 3.4 1.3 1.4 2.5 3.1 4.7 3.2M429.1 221.9c-.3 3.3 3.8 3.5 4.5 6.1M551.6 347.5c2.1 3.8 6 5.6 9.3 8.1.4.3 1.3.3 1.8-.2M396.9 550.2c1.2-.5 2.5-1 3.7-1.5-2.4-4.9-3.3-5.3-9.9-4.3 1.6 2.1 2.6 4.6 5.1 5.8M204.6 313.4c-.5-1.4-.8-2.8-1.8-4-2-2.1-1.7-4.5-.5-6.9M294 222.9l5 5M547.1 644.9c2 1.4 3.3 3.6 5.8 4.2M338.4 437.7l4.8-4.8c-.7-3.2-3.7-2.9-5.8-3.6-2-.6-3.2 2.2-2 4.6.6 1.2 1.6 2.3 2.3 3.4M648.2 555.4c-3.1.3-4.5-2.3-5.1-4.3-.7-2.4 2-3.7 3.8-5M447.1 461c-.8-6.5-5.1-9.4-11.1-10.6M291.9 225c1.7 1.7 3.2 3.7 5.8 4.2M255.5 464.1c1.9 1.7 3.5 3.6 6.3 4.4 2.3.7 3.8 3.5 4.9 6M615.4 403.4c1.3 2 4 3 5 6.4-3.1-.9-3.9-3.6-6-4.3M227.5 342.7c2.3 4.1 5.5 7.6 8.8 10.7 4.2 3.9 7.9 8.3 12 12.2 1.6 1.6 3.2 3.1 5.2-.1l4.6 4.6c1.2 1.1 2 2.2.3 3.4M625.7 537.8c1.1-2 2.7-3.6 4.8-4.8M381.6 493.2c-.9-1-2.1-1.8-2.7-3.4 4.9-1.7 3.5-6.8 5.6-10.1M328.6 286.5c.2 3 2.5 3.9 4.8 4.8M586.2 419.5c-2.2-1.7-2-4.4-2.9-6.6M368.2 195.7c-.1.4-.4 1.2-.2 1.3 4.7 3.4 8.1 8.1 12.4 11.9M641 548.8c1.8-1.4 3.5-2.8 5.3-4.2M302.7 360.9c3-.2 3.8 2.4 5.3 4.2M406.4 412.4c-5.3 5.3-10.8 10.3-15.6 16.1-2.1 2.5-4.8 4.4-7.1 6.7-5.1 5.1-10.3 10.2-15.3 15.3-1.2 1.3.2 5.6 1.8 6 .3.1 1 .1 1 0 1.3-2.9 5.3-3.2 6.1-6.6M308.3 449.3c2.2-2.5 5.4-4.3 5.5-8.2M580.3 428.5c.5 3.6-2.9 5.3-4.2 8.3-3.3-1.6-2.7-4.8-3-7.5M313.8 271.2c.7 3 2.5 4.7 5.5 5M456.1 263.6c3.1-2.5.4-4.5-.9-6-4.5-5-9.4-9.6-14.2-14.3-1.3-1.3-2.4-2.9-4.2-3.7M296.4 353.6c2.2 1.1 3.8 2.8 4.2 5.3M305.6 454.1c1.7 1.5 2.9 3.5 5 4.5M434.7 224.8c2.1 3.5 6 5.4 7.9 9M331 316.9c3.6-1.6 5.8-4.8 8.6-7.3 1.8-1.6 3.6-3.1 5.4-4.6M421.7 458.3c2.2-4 5.5-6.8 10-7.9M531.5 502.1c-1.9.8-3 2.6-4.5 4-2 1.8 0 3 .9 3.9 2 2.1 4.4 3.7 6.5 5.6 2.9 2.7 5.7 5.6 8.5 8.4.6.6 1.1 1.3 2.1 1.1M391.1 537.5c2.1 0 4.3-.6 5.8 1.6M351.3 182c1.2-2.4 3.3-1.7 5.3-1.6M234.9 443.5c1 1.5 1.7 3.1 3.2 4.2M549.2 485.5c3.6 1.5 7.2 2.9 9.5 6.3 1.6 2.4 2.5 4.7 1.9 7.7-.3 1.7-1.2.2-1.6.5M503.3 688.7c2.4-.1 3.2-1.7 3.7-3.7M312.5 433.5c1.1-.5 2.1-1 3.4-1.5.2.5.4 1.2.6 1.8M480.9 442c3.9-.7 7.7-1.9 11.6-2 4.2-.1 6.1-2.5 7.6-5.7M389 391.8c-.5-2.1.8-3.4 2.1-4.8M414.9 611.9c3.7 2.4 6.7 5.6 9.8 8.7M390.9 475.5c2.1 1.2 3.8.3 5.3-1.1 5.6-5.5 11.1-11.1 16.6-16.6.9-.9 1.6-1.9 1.6-3.2M571.4 498.2c-4.8-4.9-9.5-9.9-14.3-14.8M410.7 606.1c-2.1-1-3.4-2.9-5-4.5-7.7-7.7-15.5-15.4-23.2-23.2-9.9-10-19.7-20-29.6-30.1M512.5 412.4c1.5.8 2.8 1.8 3.4 3.4M321.5 281c1.6.7 1.4 3.4 3.7 3.2M188.5 398.2c2.3 2 3.6 4.9 6.3 6.3M255.9 289c1.3 1.9 2.3.6 3-.4 4.6-6.4 10.7-11.5 16.4-16.9"/><path d="M391.4 428.5c1.9.1 2.7 1.8 4 2.9M506.2 682.1c1.5 1.1 2-.4 2.6-1.1l15.3-15.3M432.3 523.2c1.4 1.4 2.8 2.9 4.2 4.2 1 1 1.1 1.8 0 2.7M666.4 455.4c-1-1.8-2.2-3.3-3.7-4.8M523.9 661.8c.9-1.4 2.1-2.2 3.7-2.6M527 666c1.8-.3 2.9-1.3 3.2-3.2M575.9 530.1c2.8-3 3.1-3.4 6.4 0 1.9 2 3.6 4.3 6.3 5.3M279.5 382.6c-.7 4.9 2.3 7.7 6.9 6.3M413.6 202.6c1.6.5 2.3 2 3.4 2.9M387.7 271.2l-2.4 2.4c2.5 1.8 3.7 5.4 7.5 2.6.2-.1 1.4-.3 1.8.7.8 2.3 3.3 3 4.7 4.8M546.3 621.9c.7-2 3-2.9 3.4-5-2.3-2.8-5.7-4.7-6.9-8.4M634.7 535.1c.8-.8 1.6-1.5 2.4-2.4 2.2-2.5 2.2-3.6-.3-6.1l-19-19c-.8-.8-1.8-1.5-2.3-2.4-4.5-6.9-8.6-6.9-13.2 0M498.3 478.9c1.3.1 2.1-2.8 3.7-.5M539.4 387.1c-2.6 1.7-2.3 3.7-.5 5.8M578.2 421.6c-.4-1.5-1.9-2-2.6-3.2M500.4 685.3c.7-1.3 1.4-2.4 2.9-2.9M366.3 358.6c1-.8 1.9-1.6 2.9-2.4M375.6 570.5c1.1-1.3.3-2.6.3-4M330 419.7c1.5 1 2.9 2 4.4 3M271.6 478.6c1.5-.6 2.1.6 2.9 1.3M224.9 435.1c-1-1.9-2.6-3.1-4.3-4.2 2.4-3.1.2-4.5-2.1-5.9M438.4 226.4c2 2.2 4 4.4 6.1 6.6M505.4 388.4c2 2.1 5 2.1 7.1 1.6 3-.7 4.4.4 5.9 2.3M252.1 287.1c1 .6 1.9 1.2 2.9 1.8M374.5 353.6c-1.9-3.2 0-5.3 2.1-7.4.4-.4.9-.7.3-1.3M498.5 454.4c1.6-1.4 3.2-2.8 4.6-4.3 1.9-2 3.2-4 6.2-1.8.6.4 1.7.1 2.4-.7 2.1-2.6 5-4.5 6.8-7.4M214.6 315c-.8-2.1.3-3.9 1.1-5.8M465.3 268.6c.1-1.6 1.9-1.3 2.6-2.1M669 528.3c1.2-.5 2.2-1.1 2.1-2.6M569.3 500.8c1.5-2.7 4.3-1.9 6.6-2.4M500.6 476c-.4-.7.8-1.5 0-2.1-2-1.7 0-2.4.8-3.4M375.8 531.7c.1-1.3.2-2.6.3-4M612 411.6c-.2-2.5-2.1-3.8-4-5M664.8 524.6c1-3.1 2.9-2.4 5-1.3M364.7 162.8c1.9-.9 4.2-1.3 4.3-4.2 0-1-.9-.6-1.1-1.1"/><path d="M375.6 348.8c1.2-.1 1.5-1.3 2.4-1.8M377.4 589.2c1.1-.7 1.1-1.7.2-2.3-3.2-2.5-4.6-6.7-7.9-8.9-4.1-2.7-6.5-7.2-10.1-9.9-4.8-3.6-7-9.1-11.6-12.7-5.6-4.4-10.7-9.4-15.3-14.8-3.3-4-7-7.4-10.7-11M680.6 469.7c1.2.1 1.5 1.3 2.4 1.8M263.1 368.3c.8 3 2.6 4.7 5.8 4.8M462.6 264.9c1.4.1.9-1.5 1.8-1.8M544.2 554.4c-2.9-1.9-5.7-3.8-7.1-7.1M365 194.7c.7.5 1 1.6 2.1 1.6M263.1 462.8c.5-.7 1.6-1 1.6-2.1M251 368.9c.4.9-.9 2.4 1.1 2.6M423.9 379.7c7.7-6.7 14.6-14.3 21.9-21.4 3-3 5.8-6.1 8.7-9.2M361.8 363.1l1.8-1.8M250.5 458.6c1.5 1.3 3.4 2.3 4.2 4.2M266 475.7c.7-.9 1.4-.9 2.1 0 1.6 1.9 3.5 3.6 5 5.6 4.6 6.5 12.2 9.8 17 16.3 3.3 4.5 7.1 8.8 11.3 12.4 5.4 4.6 9.4 10.7 15.2 14.9 1.9 1.4 2.6 4.1 5.3 4.7M521.8 436.9c1.4-1.1 2.8-2.1 4.2-3.2M637.1 554.4c1.3-1.3 2.9-2.6 2.6-4.8M167.4 362.8c1.5 3.2 4.8 4.8 6.7 7.6.6.9 1.7 1.8 2.5 2.7M573.7 450.9c2.8.7 3.9 3.6 6.1 5M448.7 502.1c1.3-.1 2.1-1 2.9-1.8 1-.9 1.7-2.4 3.4-1.8M369 352.8c1.8.4 2-1.6 3.2-2.1M459.2 263c.9.7 1.8 1.4 2.6 2.1M500.4 412.9c.1 1.1.2 2.3.3 3.4M458.4 669.2c-1.2-1.2-2.4-2.6-3.7-3.7-1.4-1.2-1.5-2.1 0-3.2M645.5 434c-1.5-3.4-4.5-5.3-7.1-7.7M559.5 348c-1.1-2.7-3.3-4.4-5.5-6.1M513.1 301.6c-.6-2.9-3.6-3.8-5.1-6-.4-.6-1.3-.9-.8-1.9M463.4 251.4c-1.2-2.3-3.4-3.6-5.3-5.3M287.2 389.2c6.4-6.4 12.9-12.8 19.2-19.3.7-.7 1.8-1.2 1.9-2.4M597.2 473.4c.4.8 1.6 1 1.6 2.1M475.8 596.3c-2.3-2-5.2-3.3-6.1-6.6M476.9 597.4c.3 1.1 1 1.8 2.1 2.1M522 310.5c.2-2.9-3.3-2.8-4-5M531.8 319.2c-1.6-1.7-3.5-3.2-4.8-5.3M545.2 512.2c1.4-1.5 1.2.5 1.8.8M589.6 518c3.8-4.7 7.9-9 12.7-12.7M580.3 456.5c4.8 4.7 9.3 9.7 14.5 14M155.7 351.7c3.2 2.9 5.7 6.6 9.5 9M380.1 180.7c.4-.1.9-.2 1.3-.3M239.9 277c-2.2-.1-3.5-1.6-4.8-3.2"/></g><path fill="none" d="M-.1-.1h1000v1000H-.1z"/><path fill="none" d="M99.7 599.4h400.2v300H99.7z"/><path d="M134.7 899.4V793.1c-6.6 3.1-18.6 5.6-25.7 6.2v-23.1c13.5-2.5 27.1-10.1 35.2-19.1H166v142.3h-31.3zM303.6 827.4c0 39.1-12.4 74.5-54.6 74.5-41.7 0-54.6-34.3-54.6-73.7 0-39 14.3-73.7 55.2-73.7 39.7.2 54 32.6 54 72.9zm-77.3.6c0 26.1 3 49.4 23.1 49.4 19.6 0 22.2-21.7 22.2-49.7 0-27.6-3.3-48.3-21.9-48.3-18.2-.1-23.4 17.8-23.4 48.6zM421.3 782.5h-56.9c-.9 7.6-3.4 21.2-4.3 27.1 5.3-4.4 13.4-7.6 25.6-7.6 28 0 43.8 20.2 43.8 47.3 0 27.5-15 52.7-53.4 52.7-28.1 0-48.8-14.4-51.9-39.8H355c2.7 9.8 9.6 16.1 21.7 16.1 14.7 0 21.7-10.8 21.7-26.5 0-14.8-5.5-25.4-21.8-25.4-13.2 0-18.6 5.7-21.8 14.2l-27.9-3.6c3.8-18.1 9.9-60.2 12.2-79.8h86.6l-4.4 25.3z"/><path fill="none" d="M600.1 99.8h300v300h-300z"/><path d="M858 149.9c-1.7-7-5.8-13.7-18.2-13.7-19 0-24 17.9-24.8 37 6-7.3 16.1-13.2 32.2-13.2 26 0 44.5 19.2 44.5 47.1 0 30.3-19.4 52.9-52.2 52.9-41.2 0-55-31.8-55-71.9 0-37 13.1-75.4 56.7-75.4 30.9 0 45.3 19.3 46.7 37.2H858zm2.8 59.8c0-13.5-5-25.6-22.1-25.6-13.8 0-21.9 8.1-21.9 24.5 0 11.5 5.5 26.8 22 26.8 15.1.1 22-11.3 22-25.7z"/><path fill="none" d="M599.5 600h300v300h-300z"/><path d="M705.7 900v-26.6h-53.6V851l49.4-69.4h28.1v71h14.3l-2.4 20.8h-11.9V900h-23.9zm0-68.5c0-12.8 0-20 .5-27.4-4.7 9.9-20.1 32.5-31.3 48.5h30.8v-21.1zM752.5 909.2l49.8-135.1h21.4L774 909.2h-21.5zM889.8 842.5v22.4h-50.1v-22.4h50.1z"/><path fill="none" stroke="#000" stroke-miterlimit="10" stroke-width="9" d="M111.9 739.4h311.5"/><path d="m665.4 634.8 35.5 66-66-35.5s16.3-6.1 20.3-10.1 10.2-20.4 10.2-20.4z"/><path fill="none" d="M99.9 99.4h199.7v200.1H99.9z"/><path d="m210.1 150.5-3.7 32.7 23.8-20.9 11.6 19-31.5 12.6 31.3 12.6-11.4 19-23.8-21.2 3.8 32.9h-20.9l3.7-32.8-23.6 21-11.4-19 31.1-12.8-31.3-12.4 11.6-19.3 23.4 21.3-3.5-32.7h20.8z"/><path fill="none" d="m322.165 113.212 70.71-70.71 424.26 424.26-70.71 70.71z"/><path d="m407.4 62.6 26.2 26.2c12.7 12.7 12 24.6 4.6 32-5.6 5.6-12.6 6.7-18.5 4.2 2.5 5.3 3.5 13.7-3.3 20.5-8.6 8.6-22.1 9.2-35.2-3.9l-26.3-26.3 52.5-52.7zm-27.3 57.2 7.9 7.9c5.1 5.1 9.4 5 13.2 1.3 3.3-3.3 3.6-7.7-1.3-12.6l-8.2-8.2-11.6 11.6zm30.6-13.4c4.2 4.2 8.1 3.8 11 .9 3.3-3.3 2.5-7.2-1.2-10.9l-8.5-8.5-9.9 9.9 8.6 8.6zM436 139.3c3.8-3.8 7.9-8 11.4-11.6l14.6 14.6c-1.1 1.4-4.4 5.1-6.1 6.9 5.4-2.3 12.9-2 19.8 4.8l-13.6 13.6c-8.1-8.8-13.8-10.7-23.2-1.3l-16.4 16.4-14.9-14.9 28.4-28.5zM492 226.8c-3.5 3.6-9 9-12.7 12.9l-14.6-14.6c.8-1.1 2.9-3.4 3.9-4.5-6.4 1.2-11.2-.8-16.3-5.8-8.6-8.6-7.9-18.4 1.6-27.9l26.3-26.3 14.9 14.9-23.8 23.8c-3.6 3.6-5.2 7.2-1.8 10.6 3.5 3.5 6.9 2.9 12.8-3l22.1-22.1 14.9 14.9-27.3 27.1zM516.8 219c3.7-3.7 7.5-7.5 10.9-11l14.3 14.3c-.8 1.1-2.5 3.2-3.8 4.7 4.9-.6 10.8.3 16.5 6 6 6 5.9 11.8 4.7 15.7 5-.4 11.1.1 17.8 6.8 7.5 7.5 8.3 17.7-2 27.9l-26 26-14.6-14.6 24.8-24.8c3-3 4.4-6.4 1.2-9.6-3.3-3.3-6.8-2.4-11.4 2.2L525.8 286l-14.6-14.6 24.6-24.6c3-3 4.7-6.2 1.4-9.6-3.3-3.3-6.5-2.8-11.7 2.4l-23 23-14.7-14.7 29-28.9zM586.7 288.9c3.7-3.7 7.5-7.5 10.9-11l14.3 14.3c-.8 1.1-2.5 3.2-3.8 4.7 4.9-.6 10.8.3 16.5 6 6 6 5.9 11.8 4.7 15.7 5-.4 11.1.1 17.8 6.8 7.5 7.5 8.3 17.7-2 27.9l-26 26-14.6-14.6 24.8-24.8c3-3 4.4-6.4 1.2-9.6-3.3-3.3-6.8-2.4-11.4 2.2L595.7 356 581 341.4l24.6-24.6c3-3 4.7-6.2 1.4-9.6-3.3-3.3-6.5-2.8-11.7 2.4l-23 23-14.7-14.7 29.1-29zM682.8 332.5l14.9 14.9-18.8 18.8c4.1-.4 9.5.5 15.5 6.4 9.9 9.9 8 24-4.2 36.2-12.4 12.4-28.1 15.4-39.1 4.4-5.5-5.5-6.3-9.7-5.6-14-1 1-2.5 2.1-3.6 2.8l-14.4-14.4c4.2-4 8.7-8.5 12.9-12.8l42.4-42.3zm-8.2 61.6c6.4-6.4 8.4-11.9 4-16.3-4.7-4.7-9.5-3-17 4.5-6.3 6.3-9.2 11.7-4.3 16.6 4.2 4.3 10.3 2.2 17.3-4.8zM724.7 461.3c-4.5 4.5-10.3 10.8-11.4 12.4L699.6 460c.5-1.1 2.2-3.3 3.1-4.3-4.4.6-9.5-.2-16-6.6-9-9-8.2-19.5-1.1-26.6 9.4-9.4 21-5.9 33.2 6.3l4.9 4.9 2.2-2.2c2.6-2.6 3.5-5.4-.1-8.9-3.4-3.4-5.8-2.7-8.7-.5l-13.7-13.7c7.2-6.2 17.7-8.8 31.9 5.5 13.1 13.2 13.3 23.5 3.7 33.2l-14.3 14.2zm-8.5-20.2-3.3-3.3c-5.1-5.1-8.6-5-11.6-2.1-2.4 2.4-2.9 5.6.1 8.6 5 5 9.2 2.3 13.5-2l1.3-1.2zM749.9 453.2c3.8-3.8 7.9-8 11.4-11.6l14.6 14.6c-1.1 1.4-4.4 5.1-6.1 6.9 5.4-2.3 12.9-2 19.8 4.8L776 481.5c-8.1-8.8-13.8-10.7-23.2-1.3l-16.4 16.4-14.9-14.9 28.4-28.5z"/></svg>